<?xml version="1.0" ?><svg width="340px" height="340px" viewBox="0 0 340 340" id="icons" xmlns="http://www.w3.org/2000/svg"><title/><path d="M58.908,100.04a163.2,163.2,0,0,1-43.934,35.6A9.573,9.573,0,0,0,10,144v32.02l1.822,8.9L41.484,164.3Z" style="fill:#346b99"/><path d="M10,176.017s19.081-13.177,35.5-51.478c0,0,24.44-64.93,91.558-78.792,0,0,29.508-9.193,65.739.211A88.371,88.371,0,0,1,248.8,74.709a65.232,65.232,0,0,1,11.869,20.527,4.2,4.2,0,0,1-5.9,5.1c-5.277-2.849-12.855-4.7-22.093-.746l-54.034,21.3,1.11,144.674L10,278.838Z" style="fill:#eefaff"/><path d="M126.841,212.359a17.28,17.28,0,0,0-18.475-5.211,15.733,15.733,0,0,0-7.731,4.573C73.27,243.81,35.779,257.719,10,261.13v11.057l2.184,6.48L126.841,269.7Z" style="fill:#96c1d6"/><path d="M130.126,136.764s-28.273,2.953-43.9,26.507a8.225,8.225,0,0,0,6.875,12.746h40.676Z" style="fill:#96c1d6"/><path d="M232.673,99.594s-31.976,12.5-44.9,55.3a60.782,60.782,0,0,0-.449,34.516c4.49,15.442,16.593,33.758,47.894,41.016l-55.465,35.142s-76.613-8.2-62.308-109.291c1.628-11.506,5.456-29.635,11.7-39.437C145.527,98.429,178.22,98.531,191,102.2c2.789.8,18-10.167,21.61-11.291,5.658-1.763,9.949-.729,14.3,3.3C228.677,95.837,231.823,96.619,232.673,99.594Z" style="fill:#6295d3"/><path d="M204.122,103.95C211.7,98.929,218,101.059,222.76,105.2a55.672,55.672,0,0,1,9.913-5.6,14.683,14.683,0,0,0-4.223-6.824A16.577,16.577,0,0,0,212.2,89.439a42.66,42.66,0,0,0-9.458,4.483A16.066,16.066,0,0,1,180.96,89.49c-.273-.4-.508-.786-.709-1.134a1.741,1.741,0,0,0-2.622-.483L171.922,92.6a17.57,17.57,0,0,1-11.2,4.034h-2.914a24.042,24.042,0,0,0-14.311,4.642,57.938,57.938,0,0,0-14.413,15.653l0,0c6.209-4.429,13.786-7.954,22.086-7.789,0,0,13.023,5.619,23.126-5.188C174.3,103.95,186.183,115.838,204.122,103.95Z" style="fill:#346b99"/><path d="M115.674,179.306c-.089,14.785-2.852,32.3.737,42.475l63.338,43.784,55.465-35.142a83.937,83.937,0,0,1-18.056-6.28c-8.485,9.151-29.572,9.143-29.572,9.143-54.038-16.233-42.707-69.315-42.707-69.315S127.564,172.674,115.674,179.306Z" style="fill:#346b99"/><path d="M77.205,180.049s18.864-33.427,60.14-27.734a9.572,9.572,0,0,1,7.38,5.231c1.774,3.729,1.405,9.28-9.551,15.18,0,0,6.89,14.646-11.243,20.922,0,0,5.16,6.526.762,16.674,0,0-6.3,10.277-15.675,17.041l-10.2-13.556Z" style="fill:#eefaff"/><path d="M108.239,228.519c9.376-6.765,14.184-12.963,16.452-18.2a17.183,17.183,0,0,0-16.325-3.173,18.969,18.969,0,0,0-7.731,4.573,20.408,20.408,0,0,0-1.815,2.086Z" style="fill:#96c1d6"/><path d="M220.186,154.064h0a10.426,10.426,0,0,0-2.611,11.069,14.724,14.724,0,0,0,2.169,3.926c6.048,7.82,18.573,3.354,18.594-6.532,0-.117,0-.235,0-.355A10.613,10.613,0,0,0,237,157.089c-.127-.228-.265-.47-.413-.724A10.521,10.521,0,0,0,220.186,154.064Z" style="fill:#6295d3"/><path d="M177.428,206.592c-.819-1.818-1.585-3.693-2.277-5.571a4,4,0,0,0-7.507,2.765c.756,2.053,1.594,4.1,2.49,6.091,5.705,12.666,19.39,28.433,37.823,37.815l8.012-5.076C195.856,234.031,182.1,216.969,177.428,206.592Z" style="fill:#346b99"/><circle cx="295.232" cy="152.387" r="7.026" style="fill:#6295d3"/><path d="M268.551,211.309c11.724,6.359,32.559,16.857,47.277,22.744l11.1,4.854L330,253.432v44.845H315.828L158.92,291.363l.362-37.2s54.434-3,94.107-40.846A12.31,12.31,0,0,1,268.551,211.309Z" style="fill:#346b99"/><path d="M316.5,232.381c-14.72-5.888-35.245-16.682-46.967-23.04a13.861,13.861,0,0,0-16.186,2.193c-39.673,37.855-94.062,39.746-94.062,39.746l-2.676,47H215.1a75.867,75.867,0,0,0,3.559-17.479,65.586,65.586,0,0,1,1.272-8.291,22.529,22.529,0,0,1,28.336-16.622l33.656,9.863a2.129,2.129,0,0,0,1.958-3.682c-5.853-4.827-12.86-10.264-18.262-14.388a8.588,8.588,0,0,1-.186-13.493l.169-.137a8.177,8.177,0,0,1,9.3-.754c14.822,8.677,42.455,16.719,55.106,20.138v-18.04C324.771,236.4,316.5,232.381,316.5,232.381Z" style="fill:#eefaff"/><path d="M218.656,280.8a65.586,65.586,0,0,1,1.272-8.291,22.31,22.31,0,0,1,3.425-7.823,352.913,352.913,0,0,1-42.477-16.475,137.329,137.329,0,0,1-21.594,3.071l-2.676,47H215.1A75.867,75.867,0,0,0,218.656,280.8Z" style="fill:#96c1d6"/><path d="M124.282,224.911c21.082,18.306,80.023,57.47,191.546,73.366-28.49-1.192-58.23-2.69-70.884,0H145c-11.493-2.291-22.269-2.779-31.747,0h-59.1l-41.082-1.9L10,274.636s53.272-7.039,96.889-49.056C112.005,220.651,118.918,220.253,124.282,224.911Z" style="fill:#6295d3"/><path d="M107.013,252.085a74.235,74.235,0,0,1,6.325-4.259,13.86,13.86,0,0,1,15.742,1.063c36.662,28.922,89.9,43.591,115.864,49.388h70.884c-111.523-15.9-169.679-56.942-190.761-75.248a13.725,13.725,0,0,0-18.518.431C62.932,265.478,10,272.187,10,272.187v26.09H54.148c3.908-11.363,9.086-17.4,13.725-20.569a12.918,12.918,0,0,1,15.946,1.181c8.457,7.63,19.652,14.322,29.434,19.388H145a195.532,195.532,0,0,1-38.388-24.308A13.846,13.846,0,0,1,107.013,252.085Z" style="fill:#eefaff"/><path d="M69.27,201.591a8.066,8.066,0,0,1-1.5-.152,7.54,7.54,0,0,1-1.445-.445,7.267,7.267,0,0,1-1.33-.713,6.966,6.966,0,0,1-2.119-2.118,7.813,7.813,0,0,1-1.157-2.776,7.454,7.454,0,0,1,0-3,7.425,7.425,0,0,1,.444-1.445,7.324,7.324,0,0,1,.713-1.33,7.869,7.869,0,0,1,.944-1.174,7.778,7.778,0,0,1,6.955-2.1,7.345,7.345,0,0,1,1.446.426,9.409,9.409,0,0,1,1.329.713,8.044,8.044,0,0,1,1.175.963,9.43,9.43,0,0,1,.963,1.174,7.3,7.3,0,0,1,.695,1.33,7.423,7.423,0,0,1,.443,1.445,7.407,7.407,0,0,1,0,3,7.465,7.465,0,0,1-.443,1.445,7.371,7.371,0,0,1-.695,1.331,9.43,9.43,0,0,1-.963,1.174A7.759,7.759,0,0,1,69.27,201.591Z" style="fill:#5c91c4"/><path d="M251.79,128.256a4.151,4.151,0,0,1-.79-.08,4.028,4.028,0,0,1-.74-.229,3.753,3.753,0,0,1-.69-.361,4.148,4.148,0,0,1-.61-.5,3.963,3.963,0,1,1,5.05.5,4.529,4.529,0,0,1-.69.361,4.382,4.382,0,0,1-.75.229A4.049,4.049,0,0,1,251.79,128.256Z" style="fill:#346b99"/><path d="M276.843,191.348a4.012,4.012,0,0,1-4-3.99,4.234,4.234,0,0,1,.08-.79,3.956,3.956,0,0,1,.23-.74,4.049,4.049,0,0,1,.87-1.3,4.025,4.025,0,0,1,4.35-.87,3.782,3.782,0,0,1,.69.37,4,4,0,0,1,1.11,1.11,3.782,3.782,0,0,1,.37.69,4.87,4.87,0,0,1,.23.74,4.219,4.219,0,0,1,.07.79,3.995,3.995,0,0,1-4,3.99Z" style="fill:#346b99"/><path d="M166.612,187.353a4,4,0,0,1-3.955-3.437q-.137-.952-.253-1.91a4,4,0,0,1,7.941-.971q.108.878.232,1.752a4,4,0,0,1-3.4,4.525A4.091,4.091,0,0,1,166.612,187.353Z" style="fill:#346b99"/><path d="M204.649,96.388c-2.122.953-11.526,2.808-15.3,2.193-10.967,12.154-23.285,30.308-26.8,57.117-.205,1.557-.377,3.138-.512,4.7a4,4,0,0,0,3.642,4.33q.175.015.348.015a4,4,0,0,0,3.981-3.656c.125-1.442.283-2.9.473-4.346C175.252,120.35,199.112,101.036,204.649,96.388Z" style="fill:#346b99"/><path d="M144.519,135.44a4.056,4.056,0,0,0,.836.089,4,4,0,0,0,3.909-3.168c3.331-15.653,8.671-25.759,15.33-34.513l-9.936.308c-5.777,8.837-10.275,18.7-13.22,32.539A4,4,0,0,0,144.519,135.44Z" style="fill:#346b99"/></svg>