<?xml version="1.0" encoding="UTF-8"?>
<!DOCTYPE svg PUBLIC "-//W3C//DTD SVG 1.1//EN" "http://www.w3.org/Graphics/SVG/1.1/DTD/svg11.dtd">

<svg xmlns="http://www.w3.org/2000/svg" xml:space="preserve" width="2048px" height="2048px" style="shape-rendering:geometricPrecision; text-rendering:geometricPrecision; image-rendering:optimizeQuality; fill-rule:evenodd; clip-rule:evenodd"
viewBox="0 0 2048 2048"
 xmlns:xlink="http://www.w3.org/1999/xlink">
 <defs>
  <style type="text/css">
   <![CDATA[
    .fil6 {fill:none}
    .fil5 {fill:#004D40;fill-rule:nonzero}
    .fil0 {fill:#1F998D;fill-rule:nonzero}
    .fil3 {fill:#239588;fill-rule:nonzero}
    .fil4 {fill:#2BA295;fill-rule:nonzero}
    .fil2 {fill:#2BA699;fill-rule:nonzero}
    .fil1 {fill:#35B5A8;fill-rule:nonzero}
   ]]>
  </style>
 </defs>
 <g id="Layer_x0020_1">
  <metadata id="CorelCorpID_0Corel-Layer"/>
  <polygon class="fil0" points="1686,1006 1636,1504 1573,1504 1542,1040 "/>
  <path class="fil1" d="M994 731l1 -2 0 0c0,-1 1,-3 1,-4 6,-16 25,-25 41,-19 134,50 251,60 350,37 105,-24 191,-86 259,-175 1,-2 2,-3 4,-5 12,-12 33,-12 45,0 48,49 84,131 94,213 5,40 4,81 -5,118 -9,39 -26,74 -53,101 -27,27 -63,45 -109,51 -328,41 -375,200 -412,324 -3,10 -6,20 -9,30l0 0c-1,2 -2,4 -3,7 -29,50 -101,74 -186,83 -125,13 -281,-4 -346,-14 -27,-4 -55,-9 -83,-15 -80,-16 -161,-38 -222,-68 -70,-35 -115,-80 -105,-140 0,-2 1,-3 1,-5 7,-34 167,-83 321,-130 26,-8 52,-16 77,-24 9,-3 19,-6 28,-9 125,-39 188,-58 224,-97 38,-41 53,-112 86,-258z"/>
  <polygon class="fil2" points="1105,772 1059,1000 1239,809 "/>
  <path class="fil3" d="M1045 709c130,48 245,57 342,34 102,-24 187,-83 254,-169 6,-3 11,-5 15,-6 66,-18 -73,194 -238,243 -201,60 -465,-70 -373,-102z"/>
  <path class="fil4" d="M1202 1396c0,2 -1,3 -1,5l0 0c-1,2 -2,4 -3,7 -29,50 -101,74 -186,83 -125,13 -281,-4 -346,-14 -27,-4 -55,-9 -83,-15 -80,-16 -161,-38 -222,-68 -47,-23 -83,-52 -98,-86 47,31 117,65 217,86 208,43 533,70 721,3z"/>
  <path class="fil5" d="M965 800c-1,-5 2,-10 8,-11 5,-1 10,2 11,8 1,8 10,16 21,23 12,7 26,12 37,12 5,0 10,4 10,9 0,5 -4,10 -9,10 -15,1 -33,-5 -48,-15 -15,-10 -27,-23 -29,-36z"/>
  <path class="fil5" d="M952 851c-1,-5 2,-10 8,-11 5,-1 10,2 11,8 1,8 10,16 21,23 12,7 26,12 37,12 5,0 10,4 10,9 0,5 -4,10 -9,10 -15,1 -33,-5 -48,-15 -15,-10 -27,-23 -29,-36z"/>
  <path class="fil5" d="M938 903c-1,-5 2,-10 8,-11 5,-1 10,2 11,8 1,8 10,16 21,23 12,7 26,12 37,12 5,0 10,4 10,9 0,5 -4,10 -9,10 -15,1 -33,-5 -48,-15 -15,-10 -27,-23 -29,-36z"/>
  <path class="fil5" d="M919 953c-1,-5 2,-10 8,-11 5,-1 10,2 11,8 1,8 10,16 21,23 12,7 26,12 37,12 5,0 10,4 10,9 0,5 -4,10 -9,10 -15,1 -33,-5 -48,-15 -15,-10 -27,-23 -29,-36z"/>
  <rect class="fil6" width="2048" height="2048"/>
 </g>
</svg>
