<?xml version="1.0" ?><svg width="340px" height="340px" viewBox="0 0 340 340" id="icons" xmlns="http://www.w3.org/2000/svg"><title/><path d="M220.341,15.859H114.47C113.812,48.07,95.927,57.583,89.936,59.87a1.821,1.821,0,0,0-.889,2.657,18.558,18.558,0,0,0,7.025,6.314,26.662,26.662,0,0,0,12.773,3.114H225.966a26.658,26.658,0,0,0,12.772-3.114,18.568,18.568,0,0,0,7.026-6.314,1.822,1.822,0,0,0-.89-2.657C238.884,57.583,221,48.07,220.341,15.859Z" style="fill:#4c5768"/><rect height="35.924" style="fill:#fff4eb" width="105.846" x="114.482" y="71.955"/><rect height="7.032" style="fill:#ceb29f" width="105.846" x="114.482" y="71.955"/><polygon points="275.461 248.171 275.461 289.485 123.775 289.485 123.775 241.947 275.461 248.171" style="fill:#fff4eb"/><polygon points="123.775 289.485 145.148 289.485 145.148 258.07 275.461 258.07 275.461 248.171 123.775 241.947 123.775 289.485" style="fill:#ceb29f"/><polygon points="167.405 137.753 89.016 137.753 89.016 166.933 167.405 166.933 245.795 166.933 245.795 137.753 167.405 137.753" style="fill:#ceb29f"/><polygon points="167.405 180.219 74.931 180.219 74.931 234.181 167.405 234.181 259.88 234.181 259.88 180.219 167.405 180.219" style="fill:#fff4eb"/><rect height="12.514" rx="0.952" style="fill:#47413f" width="19.691" x="131.098" y="197.807"/><path d="M251.916,107.879H82.894a60.419,60.419,0,0,1-12.649,26.482,2.069,2.069,0,0,0,1.587,3.392H262.978a2.069,2.069,0,0,0,1.587-3.392A60.419,60.419,0,0,1,251.916,107.879Z" style="fill:#4c5768"/><path d="M219.477,137.753a229.385,229.385,0,0,1-32.351-29.874H147.685a229.385,229.385,0,0,1-32.351,29.874Z" style="fill:#2f3a47"/><rect height="12.514" rx="0.952" style="fill:#47413f" transform="translate(387.734 408.128) rotate(180)" width="19.691" x="184.021" y="197.807"/><rect height="12.514" rx="0.952" style="fill:#47413f" width="19.691" x="163.311" y="264.209"/><path d="M259.88,180.219H74.931v53.962h56.234l8.529-8.943s-18.738-10.059-33.9-26.665a3.332,3.332,0,0,1,2.44-5.594H259.88Z" style="fill:#ceb29f"/><rect height="12.514" rx="0.952" style="fill:#47413f" transform="translate(452.16 540.933) rotate(180)" width="19.691" x="216.234" y="264.209"/><path d="M56.233,169.134a22.748,22.748,0,0,0,11.268,13.5,18.75,18.75,0,0,0,8.766,2.13H258.544a18.753,18.753,0,0,0,8.766-2.13A22.746,22.746,0,0,0,278.588,169.1a1.545,1.545,0,0,0-1.575-1.985c-21.118,1.469-42.006-8.354-59.794-21.1H117.592C99.8,158.761,78.916,168.584,57.8,167.115A1.552,1.552,0,0,0,56.233,169.134Z" style="fill:#4c5768"/><path d="M166.44,97.908c-4.842,6.372-27.41,34.912-56.6,53.336a1.211,1.211,0,0,0,.646,2.238H224.329a1.212,1.212,0,0,0,.647-2.238c-29.2-18.424-51.764-46.964-56.6-53.336A1.211,1.211,0,0,0,166.44,97.908Z" style="fill:#4c5768"/><path d="M165.991,116.105c-4.3,5.532-18.014,22.212-35.658,34.1a1.789,1.789,0,0,0,.994,3.277h72.157a1.789,1.789,0,0,0,.993-3.277c-17.644-11.888-31.356-28.568-35.657-34.1A1.789,1.789,0,0,0,165.991,116.105Z" style="fill:#fff4eb"/><rect height="10.722" rx="0.952" style="fill:#47413f" width="16.871" x="158.97" y="133.157"/><path d="M123.775,225.238H268.361a16.352,16.352,0,0,1,11.562,4.79L296.5,246.6a2.07,2.07,0,0,1-1.464,3.534H123.775Z" style="fill:#4c5768"/><path d="M157.183,234.628a182.67,182.67,0,0,1-17.489-9.39H123.775v24.9h26.186l7.879-13.423A1.471,1.471,0,0,0,157.183,234.628Z" style="fill:#2f3a47"/><rect height="42.037" style="fill:#665e5b" width="151.686" x="123.775" y="289.485"/><polygon points="94.848 210.321 55.714 237.688 55.714 272.59 94.848 272.59 133.982 272.59 133.982 237.688 94.848 210.321" style="fill:#fff4eb"/><path d="M114.47,15.859V9.227a.748.748,0,0,1,1.423-.323l5.325,6.955Z" style="fill:#4c5768"/><path d="M220.328,15.859V9.227a.748.748,0,0,0-1.423-.323l-5.325,6.955Z" style="fill:#4c5768"/><path d="M55.714,237.688v15.9c11.052-6.117,27.312-16.157,39.134-27.071,13.292,11.96,29.712,21.841,39.134,26.662V237.688L94.848,210.321Z" style="fill:#ceb29f"/><polygon points="209.212 289.485 202.212 289.485 202.212 307.004 168.264 307.004 168.264 289.485 161.264 289.485 161.264 307.004 123.775 307.004 123.775 314.004 161.264 314.004 161.264 331.523 168.264 331.523 168.264 314.004 202.212 314.004 202.212 331.523 209.212 331.523 209.212 314.004 209.212 307.004 209.212 289.485" style="fill:#473f3b"/><polygon points="250.161 307.004 250.161 289.485 243.161 289.485 243.161 307.004 216.756 307.004 216.756 314.004 243.161 314.004 243.161 331.523 250.161 331.523 250.161 314.004 275.461 314.004 275.461 307.004 250.161 307.004" style="fill:#473f3b"/><path d="M93.047,198.558c-15.376,17.976-50.156,35.623-50.156,35.623l5.022,8.091a5.269,5.269,0,0,0,6.927,1.875c17.07-8.924,33.977-22.852,38.707-26.866a2.006,2.006,0,0,1,2.6,0c4.73,4.014,21.637,17.942,38.707,26.866a5.269,5.269,0,0,0,6.927-1.875l5.022-8.091s-34.78-17.647-50.156-35.623A2.359,2.359,0,0,0,93.047,198.558Z" style="fill:#4c5768"/><rect height="42.037" style="fill:#473f3b" width="21.373" x="123.775" y="289.485"/><rect height="58.932" style="fill:#665e5b" width="78.268" x="55.714" y="272.59"/><polygon points="84.65 272.59 77.65 272.59 77.65 298.557 55.714 298.557 55.714 305.557 77.65 305.557 77.65 331.523 84.65 331.523 84.65 305.557 84.65 298.557 84.65 272.59" style="fill:#473f3b"/><polygon points="133.982 298.557 111.753 298.557 111.581 272.59 104.581 272.59 104.753 298.557 90.719 298.557 90.719 305.557 104.799 305.557 104.971 331.523 111.971 331.523 111.799 305.557 133.982 305.557 133.982 298.557" style="fill:#473f3b"/><polygon points="150.095 75.721 143.095 75.721 143.095 90.183 114.482 90.183 114.482 97.183 143.095 97.183 143.095 107.879 150.095 107.879 150.095 97.183 150.095 90.183 150.095 75.721" style="fill:#ceb29f"/><polygon points="191.716 90.183 191.716 75.721 184.716 75.721 184.716 90.183 155.618 90.183 155.618 97.183 184.716 97.183 184.716 107.879 191.716 107.879 191.716 97.183 220.328 97.183 220.328 90.183 191.716 90.183" style="fill:#ceb29f"/></svg>