<?xml version="1.0" encoding="UTF-8"?>
<!DOCTYPE svg PUBLIC "-//W3C//DTD SVG 1.1//EN" "http://www.w3.org/Graphics/SVG/1.1/DTD/svg11.dtd">

<svg xmlns="http://www.w3.org/2000/svg" xml:space="preserve" width="2048px" height="2048px" style="shape-rendering:geometricPrecision; text-rendering:geometricPrecision; image-rendering:optimizeQuality; fill-rule:evenodd; clip-rule:evenodd"
viewBox="0 0 2048 2048"
 xmlns:xlink="http://www.w3.org/1999/xlink">
 <defs>
  <style type="text/css">
   <![CDATA[
    .fil6 {fill:none}
    .fil2 {fill:#1565C0}
    .fil5 {fill:#FF6F00}
    .fil3 {fill:#FFAB00}
    .fil4 {fill:#FFCDD2}
    .fil1 {fill:#0D47A1;fill-rule:nonzero}
    .fil0 {fill:#1976D2;fill-rule:nonzero}
   ]]>
  </style>
 </defs>
 <g id="Layer_x0020_1">
  <metadata id="CorelCorpID_0Corel-Layer"/>
  <path class="fil0" d="M727 637c76,-76 180,-124 297,-124 118,0 222,48 299,124 78,78 128,187 134,307 6,115 34,237 111,325 54,47 146,84 193,102 9,4 5,2 12,5l0 0c7,3 13,8 17,16 7,16 1,35 -15,42 -139,66 -453,100 -763,100 -301,0 -600,-32 -737,-100l0 0c-6,-3 -11,-7 -14,-13 -8,-15 -3,-35 13,-43 8,-4 18,-9 30,-15 44,-21 118,-57 165,-99 72,-82 118,-210 124,-319 7,-120 57,-229 135,-307z"/>
  <path class="fil1" d="M513 1211c85,66 282,96 484,95 213,-1 429,-35 524,-99l37 55c-106,71 -336,110 -560,110 -215,1 -427,-34 -524,-109l40 -52z"/>
  <path class="fil2" d="M1139 1019c22,2 43,9 62,19 10,5 21,12 30,19l17 14 -18 14c-9,7 -21,13 -31,18 -23,11 -48,18 -74,17 -5,0 -10,0 -16,-1 3,4 6,9 8,13 12,22 18,48 20,73 1,11 0,25 -1,36l-4 22 -21 -8c-10,-4 -22,-11 -31,-17 -19,-13 -36,-30 -49,-50l-28 34 0 -24c-12,15 -27,28 -43,38 -9,6 -22,13 -32,17l-20 7 -3 -21c-2,-11 -1,-26 -1,-36 2,-23 8,-46 19,-67l-9 -2 0 -15c0,0 0,-1 0,-1 -24,-1 -47,-9 -68,-19 -10,-5 -21,-12 -30,-19l-7 -5 0 -9c0,-11 8,-16 16,-20 7,-5 14,-9 22,-12 21,-10 44,-17 67,-17l-6 -16 17 -2c-10,-21 -16,-44 -17,-67 0,-8 0,-17 0,-25 0,-2 1,-8 1,-8l0 -27 25 10c10,4 22,11 31,17 19,13 36,30 49,50l11 -13 10 13c13,-19 30,-36 50,-48 9,-6 22,-13 32,-17l20 -7 3 21c2,11 1,25 0,36 -2,23 -7,45 -18,66l34 0 -20 20z"/>
  <g id="_240345792">
   <path class="fil3" d="M1105 996c-26,44 -76,63 -76,63 0,0 -7,-53 19,-97 26,-44 76,-63 76,-63 0,0 7,53 -19,97z"/>
   <path class="fil3" d="M1003 962c25,45 16,97 16,97 0,0 -49,-20 -74,-65 -25,-45 -16,-97 -16,-97 0,0 49,20 74,65z"/>
   <path class="fil3" d="M922 1033c51,1 92,34 92,34 0,0 -42,33 -93,32 -51,-1 -92,-34 -92,-34 0,0 42,-33 93,-32z"/>
   <path class="fil3" d="M943 1139c26,-44 76,-63 76,-63 0,0 7,53 -19,97 -26,44 -76,63 -76,63 0,0 -7,-53 19,-97z"/>
   <path class="fil3" d="M1045 1173c-25,-45 -16,-97 -16,-97 0,0 49,20 74,65 25,45 16,97 16,97 0,0 -49,-20 -74,-65z"/>
   <path class="fil3" d="M1126 1102c-51,-1 -92,-34 -92,-34 0,0 42,-33 93,-32 51,1 92,34 92,34 0,0 -42,33 -93,32z"/>
   <path class="fil4" d="M1042 1013c0,27 -18,49 -18,49 0,0 -17,-22 -17,-50 0,-27 18,-49 18,-49 0,0 17,22 17,50z"/>
   <path class="fil4" d="M986 1024c23,14 33,41 33,41 0,0 -28,4 -52,-10 -23,-14 -33,-41 -33,-41 0,0 28,-4 52,10z"/>
   <path class="fil4" d="M968 1079c24,-13 52,-9 52,-9 0,0 -11,26 -35,40 -24,13 -52,9 -52,9 0,0 11,-26 35,-40z"/>
   <path class="fil4" d="M1006 1122c0,-27 18,-49 18,-49 0,0 17,22 17,50 0,27 -18,49 -18,49 0,0 -17,-22 -17,-50z"/>
   <path class="fil4" d="M1062 1111c-23,-14 -33,-41 -33,-41 0,0 28,-4 52,10 23,14 33,41 33,41 0,0 -28,4 -52,-10z"/>
   <path class="fil4" d="M1080 1056c-24,13 -52,9 -52,9 0,0 11,-26 35,-40 24,-13 52,-9 52,-9 0,0 -11,26 -35,40z"/>
   <path class="fil5" d="M1039 1077c-5,9 -16,11 -25,6 -9,-5 -11,-16 -6,-25 5,-9 16,-11 25,-6 9,5 11,16 6,25z"/>
  </g>
  <rect class="fil6" width="2048" height="2048"/>
 </g>
</svg>
