<?xml version="1.0" encoding="UTF-8"?>
<!DOCTYPE svg PUBLIC "-//W3C//DTD SVG 1.1//EN" "http://www.w3.org/Graphics/SVG/1.1/DTD/svg11.dtd">

<svg xmlns="http://www.w3.org/2000/svg" xml:space="preserve" width="2048px" height="2048px" style="shape-rendering:geometricPrecision; text-rendering:geometricPrecision; image-rendering:optimizeQuality; fill-rule:evenodd; clip-rule:evenodd"
viewBox="0 0 2048 2048"
 xmlns:xlink="http://www.w3.org/1999/xlink">
 <defs>
  <style type="text/css">
   <![CDATA[
    .fil5 {fill:none}
    .fil0 {fill:#BF3D69}
    .fil4 {fill:#C5E1A5;fill-rule:nonzero}
    .fil3 {fill:#DE5985;fill-rule:nonzero}
    .fil2 {fill:#EE5B8D;fill-rule:nonzero}
    .fil1 {fill:#F06292;fill-rule:nonzero}
   ]]>
  </style>
 </defs>
 <g id="Layer_x0020_1">
  <metadata id="CorelCorpID_0Corel-Layer"/>
  <path class="fil0" d="M831 283c126,81 255,83 386,0l0 274 -386 0 0 -274z"/>
  <path class="fil1" d="M1197 287c25,0 50,0 75,0 119,-1 156,-2 248,75l282 254 -164 239 -197 -120c-37,110 -52,253 -52,402 0,211 26,419 76,624l-888 0c53,-204 77,-407 77,-618 0,-158 -15,-306 -51,-409l-199 120 -158 -239 281 -257c78,-73 118,-73 221,-72 34,0 69,0 103,-1 -1,10 -2,21 -2,31 0,116 78,211 174,211 96,0 174,-94 174,-211 0,-10 -1,-21 -2,-31z"/>
  <path class="fil2" d="M1024 1761l-447 0c53,-204 77,-407 77,-618 0,-158 -15,-306 -51,-409l-199 120 -158 -239 281 -257c78,-73 118,-73 221,-72 34,0 69,0 103,-1 -1,10 -2,21 -2,31 0,116 78,211 174,211l0 1232z"/>
  <path class="fil3" d="M1438 745c-3,10 -6,20 -9,31 -130,107 -210,142 -399,103 191,23 264,4 408,-134l0 0zm-821 36c-3,-10 -6,-20 -9,-30 140,132 213,150 402,128 -186,39 -267,5 -393,-98z"/>
  <path class="fil3" d="M644 943c-1,-11 -2,-22 -4,-32 -4,-29 -8,-58 -14,-84 16,18 40,38 76,59 20,12 40,21 60,27 90,30 174,12 202,4 7,-2 10,-3 10,-3 -2,1 -4,2 -6,3 -8,4 -16,9 -25,15 -135,57 -216,51 -300,12z"/>
  <path class="fil3" d="M1399 943c1,-11 2,-22 4,-32 4,-29 8,-58 14,-84 -16,18 -40,38 -76,59 -20,12 -40,21 -60,27 -90,30 -174,12 -202,4 -7,-2 -10,-3 -10,-3 2,1 4,2 6,3 8,4 16,9 25,15 135,57 216,51 300,12z"/>
  <path class="fil4" d="M1212 281c1,5 1,15 2,21 0,6 1,11 1,16 0,62 -21,118 -55,159 -34,42 -82,67 -135,67 -53,0 -101,-26 -135,-67 -34,-41 -55,-97 -55,-159 0,-5 0,-10 0,-15 0,-5 1,-14 1,-19l30 3c-1,5 -1,13 -1,17 0,4 0,9 0,14 0,55 18,104 48,140 29,35 68,56 112,56 43,0 83,-22 112,-56 29,-36 48,-85 48,-140 0,-5 0,-10 0,-14 0,-5 -1,-15 -2,-20l30 -2z"/>
  <path class="fil4" d="M1220 301c0,-7 -1,-14 -2,-20l-10 1c1,6 1,13 2,20l10 0zm-391 -19c-1,6 -1,12 -1,18l10 1c0,-6 1,-11 1,-17l-10 -1zm-2 28l0 0 0 0 0 0 0 0 0 0 0 0 0 0 0 0 0 0 0 0 0 0 0 0 0 0 0 0 0 0 0 0 0 0 0 0 0 0 0 0 0 0 0 0 0 0 0 0 0 0 0 0 0 0 0 0 0 0 0 0 0 0 0 0 0 0 0 0 0 0 0 0 0 0 0 0 0 0 0 0 0 2 0 2 0 2 0 2 0 2 0 2 0 2 0 2 0 2 0 1 10 -1 0 -1 0 -1 0 -1 0 -1 0 -1 0 -1 0 -1 0 -1 0 -1 0 -1 0 0 0 0 0 0 0 0 0 0 0 0 0 0 0 0 0 0 0 0 0 0 0 0 0 0 0 0 0 0 0 0 0 0 0 0 0 0 0 0 0 0 0 0 0 0 0 0 0 0 0 0 0 0 0 0 0 0 0 0 0 0 0 0 0 0 0 0 0 0 0 0 0 0 0 0 0 0 0 0 -10 0zm1 31l0 0 0 2 0 1 0 1 0 1 0 1 0 1 0 1 0 1 0 1 0 1 0 1 0 1 0 1 0 0 10 -2 0 0 0 -1 0 -1 0 -1 0 -1 0 -1 0 -1 0 -1 0 -1 0 -1 0 -1 0 -1 0 -1 0 -1 0 0 -10 1zm4 30l0 1 0 1 0 1 0 1 0 1 0 1 0 1 0 1 0 1 0 1 0 1 0 1 0 1 0 1 0 0 10 -3 0 0 0 -1 0 -1 0 -1 0 -1 0 -1 0 -1 0 -1 0 -1 0 -1 0 -1 0 -1 0 -1 0 -1 0 -1 -10 2zm7 30l0 1 0 1 0 1 0 1 0 1 0 1 0 1 0 1 0 1 0 1 0 1 0 1 1 1 1 1 0 1 9 -4 0 -1 0 -1 0 -1 0 -1 0 -1 0 -1 0 -1 0 -1 0 -1 0 -1 0 -1 0 -1 0 -1 0 -1 0 -1 -10 3zm11 29l1 1 1 1 1 1 1 1 1 1 1 1 1 1 1 1 1 1 1 1 1 1 1 1 1 1 1 1 1 1 9 -5 -1 -1 -1 -1 -1 -1 -1 -1 -1 -1 -1 -1 -1 -1 -1 -1 -1 -1 -1 -1 -1 -1 -1 -1 -1 -1 -1 -1 -1 -1 -9 4zm14 27l0 1 1 1 1 1 1 1 1 1 1 1 1 1 1 1 1 1 1 1 1 1 1 1 1 1 1 1 1 1 0 1 8 -6 0 -1 -1 -1 -1 -1 -1 -1 -1 -1 -1 -1 -1 -1 -1 -1 -1 -1 -1 -1 -1 -1 -1 -1 -1 -1 -1 -1 -1 -1 0 -1 -9 5zm17 25l1 1 1 1 1 1 1 1 1 1 1 1 1 1 1 1 1 1 1 1 1 1 1 1 1 1 1 1 1 1 1 1 7 -7 -1 -1 -1 -1 -1 -1 -1 -1 -1 -1 -1 -1 -1 -1 -1 -1 -1 -1 -1 -1 -1 -1 -1 -1 -1 -1 -1 -1 -1 -1 -1 -1 -8 6zm21 23l0 0 1 1 1 1 1 1 1 1 1 1 1 1 1 1 1 1 1 1 1 1 1 1 1 1 1 1 1 1 1 1 1 1 6 -8 -1 -1 -1 -1 -1 -1 -1 -1 -1 -1 -1 -1 -1 -1 -1 -1 -1 -1 -1 -1 -1 -1 -1 -1 -1 -1 -1 -1 -1 -1 -1 -1 0 0 -7 7zm24 19l1 1 1 1 1 1 1 1 1 1 1 1 1 1 1 1 1 1 1 1 1 1 1 1 1 1 1 1 1 1 1 1 1 0 5 -9 -1 0 -1 -1 -1 -1 -1 -1 -1 -1 -1 -1 -1 -1 -1 -1 -1 -1 -1 -1 -1 -1 -1 -1 -1 -1 -1 -1 -1 -1 -1 -1 -1 -1 -6 8zm27 15l0 0 1 1 1 1 1 1 1 0 1 0 1 0 1 0 1 0 1 0 1 0 1 0 1 0 1 0 1 0 1 0 1 0 1 0 3 -10 0 0 -1 0 -1 0 -1 0 -1 0 -1 0 -1 0 -1 0 -1 0 -1 0 -1 0 -1 0 -1 0 -1 0 -1 0 -1 0 -1 0 0 0 -4 9zm29 10l0 0 1 0 1 0 1 0 1 0 1 0 1 0 1 0 1 0 1 0 1 0 1 0 1 0 1 0 1 0 1 0 1 0 0 0 1 -10 0 0 -1 0 -1 0 -1 0 -1 0 -1 0 -1 0 -1 0 -1 0 -1 0 -1 0 -1 0 -1 0 -1 0 -1 0 -1 0 -1 0 0 0 -3 10zm31 5l1 0 1 0 1 0 1 0 1 0 1 0 1 0 1 0 1 0 1 0 1 0 1 0 1 0 1 0 1 0 1 0 1 0 -1 -10 -1 0 -1 0 -1 0 -1 0 -1 0 -1 0 -1 0 -1 0 -1 0 -1 0 -1 0 -1 0 -1 0 -1 0 -1 0 -1 0 -1 0 -1 10zm31 -1l0 0 1 0 1 0 1 0 1 0 1 0 1 0 1 0 1 0 1 0 1 0 1 0 1 0 1 0 1 0 1 0 1 0 1 0 -3 -10 0 0 -1 0 -1 0 -1 0 -1 0 -1 0 -1 0 -1 0 -1 0 -1 0 -1 0 -1 0 -1 0 -1 0 -1 0 -1 0 -1 0 0 0 1 10zm30 -7l0 0 1 0 1 0 1 0 1 0 1 0 1 0 1 0 1 0 1 0 1 0 1 0 1 0 1 0 1 0 1 -1 1 -1 0 0 -4 -9 0 0 -1 0 -1 0 -1 0 -1 0 -1 0 -1 0 -1 0 -1 0 -1 0 -1 0 -1 0 -1 0 -1 0 -1 0 -1 0 -1 0 0 0 3 10zm28 -12l0 0 1 -1 1 -1 1 -1 1 -1 1 -1 1 -1 1 -1 1 -1 1 -1 1 -1 1 -1 1 -1 1 -1 1 -1 1 -1 1 -1 0 0 -6 -8 0 0 -1 1 -1 1 -1 1 -1 1 -1 1 -1 1 -1 1 -1 1 -1 1 -1 1 -1 1 -1 1 -1 1 -1 1 -1 1 -1 1 0 0 5 9zm26 -17l1 -1 1 -1 1 -1 1 -1 1 -1 1 -1 1 -1 1 -1 1 -1 1 -1 1 -1 1 -1 1 -1 1 -1 1 -1 1 -1 0 0 -7 -7 0 0 -1 1 -1 1 -1 1 -1 1 -1 1 -1 1 -1 1 -1 1 -1 1 -1 1 -1 1 -1 1 -1 1 -1 1 -1 1 -1 1 6 8zm23 -20l1 -1 1 -1 1 -1 1 -1 1 -1 1 -1 1 -1 1 -1 1 -1 1 -1 1 -1 1 -1 1 -1 1 -1 1 -1 1 -1 -8 -6 -1 1 -1 1 -1 1 -1 1 -1 1 -1 1 -1 1 -1 1 -1 1 -1 1 -1 1 -1 1 -1 1 -1 1 -1 1 -1 1 7 7zm20 -24l0 0 1 -1 1 -1 1 -1 1 -1 1 -1 1 -1 1 -1 1 -1 1 -1 1 -1 1 -1 1 -1 1 -1 1 -1 1 -1 -9 -5 -1 1 -1 1 -1 1 -1 1 -1 1 -1 1 -1 1 -1 1 -1 1 -1 1 -1 1 -1 1 -1 1 -1 1 -1 1 0 0 8 6zm16 -26l0 -1 1 -1 1 -1 1 -1 1 -1 1 -1 1 -1 1 -1 1 -1 1 -1 1 -1 1 -1 1 -1 1 -1 1 -1 0 0 -9 -4 0 0 -1 1 -1 1 -1 1 -1 1 -1 1 -1 1 -1 1 -1 1 -1 1 -1 1 -1 1 -1 1 -1 1 -1 1 0 1 9 5zm13 -28l0 -1 1 -1 1 -1 1 -1 0 -1 0 -1 0 -1 0 -1 0 -1 0 -1 0 -1 0 -1 0 -1 0 -1 0 -1 -10 -3 0 1 0 1 0 1 0 1 0 1 0 1 0 1 0 1 0 1 0 1 0 1 0 1 0 1 0 1 0 1 9 4zm10 -29l0 -1 0 -1 0 -1 0 -1 0 -1 0 -1 0 -1 0 -1 0 -1 0 -1 0 -1 0 -1 0 -1 0 -1 0 0 -10 -2 0 0 0 1 0 1 0 1 0 1 0 1 0 1 0 1 0 1 0 1 0 1 0 1 0 1 0 1 0 1 10 3zm6 -30l0 0 0 -1 0 -1 0 -1 0 -1 0 -1 0 -1 0 -1 0 -1 0 -1 0 -1 0 -1 0 -1 0 -1 0 -1 -10 -1 0 1 0 1 0 1 0 1 0 1 0 1 0 1 0 1 0 1 0 1 0 1 0 1 0 1 0 1 0 0 10 2zm3 -30l0 -1 0 -2 0 -2 0 -2 0 -2 0 -2 0 -2 0 -2 0 -2 0 -2 0 -2 0 0 0 0 0 0 0 0 0 0 0 0 0 0 0 0 0 0 0 0 0 0 0 0 0 0 0 0 0 0 0 0 0 0 0 0 0 0 0 0 0 0 0 0 0 0 0 0 0 0 0 0 0 0 0 0 0 0 0 0 -10 0 0 0 0 0 0 0 0 0 0 0 0 0 0 0 0 0 0 0 0 0 0 0 0 0 0 0 0 0 0 0 0 0 0 0 0 0 0 0 0 0 0 0 0 0 0 0 0 0 0 0 0 0 0 0 0 0 0 0 0 0 0 1 0 1 0 1 0 1 0 1 0 1 0 1 0 1 0 1 0 1 0 1 10 1z"/>
  <polygon class="fil4" points="262,602 421,845 396,861 237,618 "/>
  <polygon class="fil4" points="1805,617 1644,861 1619,845 1781,598 "/>
  <path class="fil4" d="M238 618c-1,-2 -3,-3 -5,-2 -3,1 -5,5 -3,8l5 8c1,2 3,3 5,2 3,-1 5,-5 3,-8l-5 -8zm151 248c1,2 3,3 5,2 3,-1 5,-5 3,-8l-5 -8c-1,-2 -3,-3 -5,-2 -3,1 -5,5 -3,8l5 8zm-22 -33c1,2 3,3 5,2 3,-1 5,-5 3,-8l-5 -8c-1,-2 -3,-3 -5,-2 -3,1 -5,5 -3,8l5 8zm-22 -33c1,2 3,3 5,2 3,-1 5,-5 3,-8l-5 -8c-1,-2 -3,-3 -5,-2 -3,1 -5,5 -3,8l5 8zm-22 -33c1,2 3,3 5,2 3,-1 5,-5 3,-8l-5 -8c-1,-2 -3,-3 -5,-2 -3,1 -5,5 -3,8l5 8zm-22 -33c1,2 3,3 5,2 3,-1 5,-5 3,-8l-5 -8c-1,-2 -3,-3 -5,-2 -3,1 -5,5 -3,8l5 8zm-22 -33c1,2 3,3 5,2 3,-1 5,-5 3,-8l-5 -8c-1,-2 -3,-3 -5,-2 -3,1 -5,5 -3,8l5 8zm-22 -33c1,2 3,3 5,2 3,-1 5,-5 3,-8l-5 -8c-1,-2 -3,-3 -5,-2 -3,1 -5,5 -3,8l5 8z"/>
  <path class="fil4" d="M1810 624c3,-5 -3,-11 -8,-6 0,0 0,0 -1,1l-5 8c-3,5 3,11 8,6 0,0 0,0 1,-1l5 -8zm-168 237c-3,5 3,11 8,6 0,0 0,0 1,-1l5 -8c3,-5 -3,-11 -8,-6 0,0 0,0 -1,1l-5 8zm22 -33c-3,5 3,11 8,6 0,0 0,0 1,-1l5 -8c3,-5 -3,-11 -8,-6 0,0 0,0 -1,1l-5 8zm22 -33c-3,5 3,11 8,6 0,0 0,0 1,-1l5 -8c3,-5 -3,-11 -8,-6 0,0 0,0 -1,1l-5 8zm22 -33c-3,5 3,11 8,6 0,0 0,0 1,-1l5 -8c3,-5 -3,-11 -8,-6 0,0 0,0 -1,1l-5 8zm22 -33c-3,5 3,11 8,6 0,0 0,0 1,-1l5 -8c3,-5 -3,-11 -8,-6 0,0 0,0 -1,1l-5 8zm22 -33c-3,5 3,11 8,6 0,0 0,0 1,-1l5 -8c3,-5 -3,-11 -8,-6 0,0 0,0 -1,1l-5 8zm22 -33c-3,5 3,11 8,6 0,0 0,0 1,-1l5 -8c3,-5 -3,-11 -8,-6 0,0 0,0 -1,1l-5 8z"/>
  <rect class="fil5" width="2048" height="2048"/>
 </g>
</svg>
