<?xml version="1.0" ?><svg width="340px" height="340px" viewBox="0 0 340 340" id="icons" xmlns="http://www.w3.org/2000/svg"><title/><path d="M88.353,50.356S84.068,82.9,56.3,107.974l9.717,10.892S88.81,101.135,92.863,79.1Z" style="fill:#f7954d"/><path d="M86.053,36.811v40.4s2.3,37.347-15.48,55.331l11.892,10.025s20.091-15.448,21.075-57.038V36.811Z" style="fill:#f7954d"/><polygon points="68.767 30.178 310.179 30.178 310.179 50.356 68.767 42.001 68.767 30.178" style="fill:#f2ab83"/><path d="M92.863,123.793s9.044,10.36,10.677,22.265,0,35.287,0,35.287l29.36,9.565L114.135,99.147,95.65,94.385Z" style="fill:#f7954d"/><path d="M99.732,30.178h53.352V70.026a126.841,126.841,0,0,0,4.351,33.065,275.152,275.152,0,0,0,12.615,36.4,94.522,94.522,0,0,1,6.925,25.86c.475,3.907.914,8.43,1.232,13.509L121.419,190.91s2.972-13.871.617-37.724a84.53,84.53,0,0,0-9.986-32.457c-5.474-9.947-12.318-24.891-12.318-44.908Z" style="fill:#fff099"/><path d="M144.568,186V173.032a162.781,162.781,0,0,0-1.9-25.144,108.186,108.186,0,0,0-12.692-35.936C118.341,91.1,118.07,73,118.068,72.844V30.178h-8V72.859c0,.816.224,20.235,12.924,42.992a100.235,100.235,0,0,1,11.774,33.277,154.744,154.744,0,0,1,1.8,23.9V187.7Z" style="fill:#f7954d"/><path d="M165.957,181.461v-8.429a162.781,162.781,0,0,0-1.9-25.144,108.205,108.205,0,0,0-12.691-35.936C139.73,91.1,139.459,73,139.457,72.844V30.178h-8V72.859c0,.816.224,20.235,12.924,42.992a100.235,100.235,0,0,1,11.774,33.277,154.744,154.744,0,0,1,1.8,23.9v10.126Z" style="fill:#f7954d"/><path d="M158.132,170a41.206,41.206,0,0,0-40.756,47.266h81.513A41.206,41.206,0,0,0,158.132,170Z" style="fill:#f7954d"/><path d="M185.888,217.266a29.644,29.644,0,1,0-57.627,0h7.265a22.644,22.644,0,1,1,43.1,0Z" style="fill:#d66b2f"/><path d="M159.24,217.266h10.3a14.277,14.277,0,1,0-24.922,0h10.3a7.277,7.277,0,1,1,4.33,0Z" style="fill:#d66b2f"/><path d="M202.841,175.091a36.773,36.773,0,0,0-36.367,42.175h72.733a36.773,36.773,0,0,0-36.366-42.175Z" style="fill:#fff099"/><path d="M202.158,182.816a29.628,29.628,0,0,0-29.249,34.45h7.123a22.645,22.645,0,1,1,44.251,0h7.123a29.623,29.623,0,0,0-29.248-34.45Z" style="fill:#f7954d"/><path d="M217.055,217.266a15.66,15.66,0,1,0-29.8,0h7.7a8.659,8.659,0,1,1,14.395,0Z" style="fill:#f7954d"/><path d="M97.725,173.032A41.428,41.428,0,0,0,56.3,214.46c0,.944.043,1.878.106,2.806h82.645c.062-.928.1-1.862.1-2.806A41.428,41.428,0,0,0,97.725,173.032Z" style="fill:#fff099"/><path d="M96.673,182.816A33.416,33.416,0,0,0,63.3,216.194c0,.359.016.715.027,1.072h7c-.014-.356-.027-.713-.027-1.072a26.378,26.378,0,0,1,52.756,0c0,.359-.013.716-.028,1.072h7c.012-.357.028-.713.028-1.072A33.416,33.416,0,0,0,96.673,182.816Z" style="fill:#f7954d"/><path d="M114.014,217.266c.022-.357.054-.71.054-1.072a17.4,17.4,0,1,0-34.79,0c0,.362.032.715.054,1.072h7a10.554,10.554,0,0,1-.055-1.072,10.4,10.4,0,1,1,20.79,0,10.554,10.554,0,0,1-.055,1.072Z" style="fill:#f7954d"/><path d="M32.494,164.423l23.831-6.737a12.5,12.5,0,0,1,14.439,6.169c5.788,10.885,14.791,30.765,17.589,53.411H53.67S45.5,186.808,32.494,164.423Z" style="fill:#728772"/><path d="M45.087,217.266s-3.771-17.79-15.266-32.31l21.069-3.485a9.38,9.38,0,0,1,9.678,4.606A93.739,93.739,0,0,1,71.6,217.266Z" style="fill:#3c4c3c"/><path d="M157.5,103.32a127.279,127.279,0,0,1-4.413-33.294v-7.6l-7.457,7.435a5.52,5.52,0,0,1-3.029,1.543L129.2,73.54a5.519,5.519,0,0,0-4.651,5.442l-.019,13.564a5.512,5.512,0,0,1-1.051,3.232l-7.964,10.98a5.517,5.517,0,0,0,.56,7.136l9.577,9.6a5.52,5.52,0,0,1,1.543,3.029l2.132,13.395a5.519,5.519,0,0,0,5.442,4.651l13.564.018a5.52,5.52,0,0,1,3.232,1.052l10.98,7.964a5.517,5.517,0,0,0,7.136-.56l3.889-3.877a92.72,92.72,0,0,0-3.523-9.678A275.157,275.157,0,0,1,157.5,103.32Z" style="fill:#f7954d"/><polygon points="68.767 30.178 310.179 30.178 310.179 10 68.767 18.355 68.767 30.178" style="fill:#ffd2b3"/><path d="M173.37,75.853l13.063.018a2.747,2.747,0,0,1,2.709,2.315l2.054,12.9a2.745,2.745,0,0,0,.768,1.508l9.224,9.249a2.748,2.748,0,0,1,.278,3.553l-7.67,10.574a2.751,2.751,0,0,0-.523,1.609l-.018,13.063a2.747,2.747,0,0,1-2.315,2.709l-12.9,2.054a2.745,2.745,0,0,0-1.508.768l-9.25,9.224a2.747,2.747,0,0,1-3.552.278l-10.574-7.67a2.751,2.751,0,0,0-1.609-.523l-13.063-.018a2.747,2.747,0,0,1-2.709-2.315l-2.054-12.9a2.752,2.752,0,0,0-.768-1.508l-9.224-9.249a2.748,2.748,0,0,1-.278-3.553l7.67-10.574a2.751,2.751,0,0,0,.523-1.609l.018-13.063a2.747,2.747,0,0,1,2.315-2.709l12.9-2.054a2.745,2.745,0,0,0,1.508-.768l9.249-9.224a2.748,2.748,0,0,1,3.553-.278l10.574,7.67A2.751,2.751,0,0,0,173.37,75.853Z" style="fill:#ffc7d8"/><path d="M166.124,130.111a19.519,19.519,0,0,1-13.051-4.978,17.016,17.016,0,0,1-5.677-12.445,14.788,14.788,0,0,1,4.623-11.118c3.774-3.544,7.441-4.056,9.855-3.866,5.625.448,9.226,4.912,9.618,5.419a4.131,4.131,0,1,1-6.537,5.052,6.338,6.338,0,0,0-3.768-2.238c-.4-.029-1.629-.114-3.512,1.655a6.582,6.582,0,0,0-2.018,4.994,8.866,8.866,0,0,0,2.921,6.388,11.352,11.352,0,0,0,16.009-.9,15.205,15.205,0,0,0-1.2-21.469,18.4,18.4,0,0,0-14.453-4.877c-5.218.67-9.829,3.81-13.333,9.084a4.131,4.131,0,1,1-6.881-4.572c4.8-7.225,11.607-11.737,19.164-12.706a26.627,26.627,0,0,1,21.008,6.912,23.465,23.465,0,0,1,1.857,33.134A19.56,19.56,0,0,1,166.124,130.111Z" style="fill:#fff"/><path d="M239.531,216.266H45.087c-1.98,69.792,35.7,92.438,53.039,98.682a14.475,14.475,0,0,1,6.95,5.331,499.048,499.048,0,0,0,74.466,0,14.474,14.474,0,0,1,6.952-5.331C203.832,308.7,241.511,286.056,239.531,216.266Z" style="fill:#e9ebfc"/><path d="M105.06,320.29a14.732,14.732,0,0,1,2.619,6.932v.009A3.1,3.1,0,0,0,110.761,330h63.1a3.1,3.1,0,0,0,3.081-2.769v-.009a14.743,14.743,0,0,1,2.619-6.932Z" style="fill:#acb9d4"/><path d="M47.4,248.859H237.221a139.456,139.456,0,0,0,2.044-16.621H45.354A139.257,139.257,0,0,0,47.4,248.859Z" style="fill:#acb9d4"/></svg>