<?xml version="1.0" encoding="UTF-8"?>
<!DOCTYPE svg PUBLIC "-//W3C//DTD SVG 1.1//EN" "http://www.w3.org/Graphics/SVG/1.1/DTD/svg11.dtd">

<svg xmlns="http://www.w3.org/2000/svg" xml:space="preserve" width="2048px" height="2048px" style="shape-rendering:geometricPrecision; text-rendering:geometricPrecision; image-rendering:optimizeQuality; fill-rule:evenodd; clip-rule:evenodd"
viewBox="0 0 2048 2048"
 xmlns:xlink="http://www.w3.org/1999/xlink">
 <defs>
  <style type="text/css">
   <![CDATA[
    .fil10 {fill:none}
    .fil7 {fill:#212121}
    .fil6 {fill:#2B2A2A}
    .fil1 {fill:#476678}
    .fil0 {fill:#526C79}
    .fil9 {fill:#968468}
    .fil4 {fill:#B09D7F}
    .fil3 {fill:#B5A284}
    .fil2 {fill:#B9A688}
    .fil5 {fill:#E4D1B1}
    .fil8 {fill:#FAFAFA}
   ]]>
  </style>
 </defs>
 <g id="Layer_x0020_1">
  <metadata id="CorelCorpID_0Corel-Layer"/>
  <g id="_574990688">
   <g>
    <path class="fil0" d="M766 434l103 -50 3 -25c102,15 204,13 307,0l1 24 98 1277 -520 0 9 -1226z"/>
    <path class="fil1" d="M1024 417l51 -1 1 -25c51,15 101,13 152,0l0 24 49 1245 -258 0 4 -1243z"/>
    <path class="fil2" d="M847 394l22 -11 3 -25c102,15 204,13 307,0l1 24 2 21c-111,33 -222,31 -333,-5l0 -4z"/>
    <path class="fil3" d="M638 871l0 -2 -3 20 -92 541 -254 -71c11,-46 24,-91 36,-137 23,-82 46,-165 62,-251 7,-37 14,-76 21,-113 32,-182 60,-343 146,-430 1,-1 3,-3 4,-4 57,80 94,340 81,448z"/>
    <path class="fil4" d="M546 1424l-17 100 -262 -73c6,-34 13,-66 21,-99l258 72z"/>
    <path class="fil2" d="M1006 1146l2 68 0 105 0 5 -3 24c-21,153 -25,184 -108,327l-9 15 -17 0 -212 0 -24 0 -5 -26c-11,-56 -19,-150 -24,-241 -5,-103 -6,-203 -1,-242 4,-31 10,-66 17,-101 12,-66 23,-132 20,-166 -1,-18 -3,-32 -4,-44 -4,-107 -42,-368 -81,-448 1,-1 2,-2 2,-2l16 -8 289 -41c13,4 19,11 28,21 147,148 18,486 114,753z"/>
    <path class="fil5" d="M991 547c-1,238 12,429 17,668l-141 -451 25 -118 -99 -132 78 -155c41,55 62,95 91,134 21,27 29,21 28,55z"/>
    <polygon class="fil5" points="695,1312 917,1312 917,1350 695,1350 "/>
    <path class="fil3" d="M1410 871l0 -2 3 20 92 541 254 -71c-11,-46 -24,-91 -36,-137 -23,-82 -46,-165 -62,-251 -7,-37 -14,-76 -21,-113 -32,-182 -60,-343 -146,-430 -1,-1 -3,-3 -4,-4 -57,80 -94,340 -81,448z"/>
    <path class="fil4" d="M1502 1424l17 100 262 -73c-6,-34 -13,-66 -21,-99l-258 72z"/>
    <path class="fil2" d="M1042 1150l-2 170 0 5 3 24c21,153 25,184 108,327l9 15 17 0 212 0 24 0 5 -26c11,-56 19,-150 24,-241 5,-103 6,-203 1,-242 -4,-31 -10,-66 -17,-101 -12,-66 -23,-132 -20,-166 1,-18 3,-32 4,-44 4,-107 42,-368 81,-448 -1,-1 -2,-2 -2,-2l-16 -8 -289 -41c-13,4 -19,11 -28,21 -147,148 -17,489 -113,756z"/>
    <path class="fil5" d="M1057 547c1,238 -10,430 -16,668l140 -451 -25 -118 99 -132 -78 -155c-41,55 -62,95 -91,134 -21,27 -29,21 -28,55z"/>
    <polygon class="fil5" points="1353,1312 1131,1312 1131,1350 1353,1350 "/>
    <g>
     <path class="fil6" d="M1078 1228c-14,0 -24,11 -24,26 0,14 11,26 24,26 14,0 24,-11 24,-26 0,-14 -11,-26 -24,-26z"/>
     <path class="fil7" d="M1078 1238c-8,0 -15,7 -15,15 0,8 7,15 15,15 8,0 15,-7 15,-15 0,-8 -7,-15 -15,-15z"/>
     <g>
      <path class="fil8" d="M1078 1247c-1,0 -2,1 -2,2 0,1 1,2 2,2 1,0 2,-1 2,-2 0,-1 -1,-2 -2,-2z"/>
      <path class="fil8" d="M1078 1256c-1,0 -2,1 -2,2 0,1 1,2 2,2 1,0 2,-1 2,-2 0,-1 -1,-2 -2,-2z"/>
     </g>
    </g>
    <g>
     <path class="fil6" d="M1547 1450c-9,0 -16,7 -16,16 0,9 7,16 16,16 9,0 16,-7 16,-16 0,-9 -7,-16 -16,-16z"/>
     <path class="fil7" d="M1547 1457c-5,0 -9,4 -9,10 0,5 4,10 9,10 5,0 9,-4 9,-10 0,-5 -4,-10 -9,-10z"/>
     <g>
      <path class="fil8" d="M1547 1462c-1,0 -1,1 -1,1 0,1 1,1 1,1 1,0 1,-1 1,-1 0,-1 -1,-1 -1,-1z"/>
      <path class="fil8" d="M1547 1468c-1,0 -1,1 -1,1 0,1 1,1 1,1 1,0 1,-1 1,-1 0,-1 -1,-1 -1,-1z"/>
     </g>
    </g>
    <g>
     <path class="fil6" d="M505 1454c-9,0 -16,7 -16,16 0,9 7,16 16,16 9,0 16,-7 16,-16 0,-9 -7,-16 -16,-16z"/>
     <path class="fil7" d="M505 1460c-5,0 -9,4 -9,10 0,5 4,10 9,10 5,0 9,-4 9,-10 0,-5 -4,-10 -9,-10z"/>
     <g>
      <path class="fil8" d="M505 1465c-1,0 -1,1 -1,1 0,1 1,1 1,1 1,0 1,-1 1,-1 0,-1 -1,-1 -1,-1z"/>
      <path class="fil8" d="M505 1472c-1,0 -1,1 -1,1 0,1 1,1 1,1 1,0 1,-1 1,-1 0,-1 -1,-1 -1,-1z"/>
     </g>
    </g>
   </g>
   <ellipse class="fil9" cx="980" cy="1254" rx="2" ry="21"/>
  </g>
  <rect class="fil10" width="2048" height="2048"/>
 </g>
</svg>
