<?xml version="1.0" encoding="UTF-8"?>
<!DOCTYPE svg PUBLIC "-//W3C//DTD SVG 1.1//EN" "http://www.w3.org/Graphics/SVG/1.1/DTD/svg11.dtd">

<svg xmlns="http://www.w3.org/2000/svg" xml:space="preserve" width="2048px" height="2048px" style="shape-rendering:geometricPrecision; text-rendering:geometricPrecision; image-rendering:optimizeQuality; fill-rule:evenodd; clip-rule:evenodd"
viewBox="0 0 2048 2048"
 xmlns:xlink="http://www.w3.org/1999/xlink">
 <defs>
  <style type="text/css">
   <![CDATA[
    .fil8 {fill:none}
    .fil7 {fill:#33691E}
    .fil3 {fill:#558B2F}
    .fil2 {fill:#8BC34A}
    .fil4 {fill:#BA0909}
    .fil1 {fill:#FA7878}
    .fil0 {fill:#FF5252}
    .fil5 {fill:#FF9100}
    .fil6 {fill:#FFB74D;fill-rule:nonzero}
   ]]>
  </style>
 </defs>
 <g id="Layer_x0020_1">
  <metadata id="CorelCorpID_0Corel-Layer"/>
  <path class="fil0" d="M1273 319c96,12 207,18 302,41l0 1400 0 32 -32 0 -1036 0 -32 0 0 -32 0 -1387 325 -54 473 0z"/>
  <rect class="fil1" x="971" y="542" width="108" height="1250"/>
  <polygon class="fil2" points="985,601 1066,599 1173,1309 1025,1605 877,1309 "/>
  <path class="fil3" d="M1138 1077l12 78 -216 -216 9 -58 196 196zm20 131l12 78 -251 -251 9 -58 230 230zm7 118l-22 44 -238 -238 9 -58 252 252zm-37 74l-22 44 -216 -216 9 -58 229 229z"/>
  <path class="fil4" d="M918 340l30 201 63 -52c8,-7 22,-7 31,0l62 51 30 -201c-72,-12 -143,-15 -215,-1z"/>
  <path class="fil5" d="M904 276c79,-20 160,-15 243,0 0,24 0,48 0,72 -81,-16 -162,-20 -243,0 0,-24 0,-48 0,-72z"/>
  <path class="fil6" d="M911 273l39 265 -297 106 96 -271c18,-56 35,-71 67,-80 22,-6 45,-13 95,-20z"/>
  <path class="fil6" d="M1139 273l-39 265 297 106 -96 -271c-18,-56 -35,-71 -67,-80 -22,-6 -45,-13 -95,-20z"/>
  <rect class="fil7" transform="matrix(0.743807 -0.611431 0.743807 0.611431 923.99 557.395)" width="136" height="136" rx="19" ry="19"/>
  <rect class="fil8" width="2048" height="2048"/>
 </g>
</svg>
