<?xml version="1.0" ?><svg width="24px" height="24px" viewBox="0 0 24 24" xmlns="http://www.w3.org/2000/svg" xmlns:xlink="http://www.w3.org/1999/xlink"><defs><polygon id="icon-pride-fist-a" points="8 19.5 2 16 .5 9 3.5 4 6 3.5 8 .5 11 1.5 12 0 16 3.5 16 5.5 17.5 7 12.5 15.5"/></defs><g fill="none" fill-rule="evenodd"><g transform="translate(3 2.5)"><mask fill="#fff" id="icon-pride-fist-b"><use xlink:href="#icon-pride-fist-a"/></mask><use fill="gray" xlink:href="#icon-pride-fist-a"/><polygon fill="#FF547F" mask="url(#icon-pride-fist-b)" points="0 -1.5 18 -1.5 18 3.5 0 3.5"/><polygon fill="#FFB331" mask="url(#icon-pride-fist-b)" points="0 3.5 18 3.5 18 7.5 0 7.5"/><polygon fill="#FFD631" mask="url(#icon-pride-fist-b)" points="0 6.5 18 6.5 18 10.5 0 10.5"/><polygon fill="#31D362" mask="url(#icon-pride-fist-b)" points="0 9.5 18 9.5 18 13.5 0 13.5"/><polygon fill="#5B55FF" mask="url(#icon-pride-fist-b)" points="0 12.5 18 12.5 18 16.5 0 16.5"/><polygon fill="#AB56FF" mask="url(#icon-pride-fist-b)" points="0 15.5 18 15.5 18 19.5 0 19.5"/></g><path d="M14.2286086,9.95066366 C13.8726692,9.95066366 13.5341034,9.87627822 13.2276086,9.74220464 C13.2282739,9.76695176 13.2286086,9.79178132 13.2286086,9.81668906 C13.2286086,11.4708237 11.9212468,12.8291868 10.2683227,12.8924581 L9.80696249,12.9101183 C9.91360025,13.4960556 10.1271518,13.9349933 10.4357154,14.2435569 C10.8262397,14.6340812 10.8262397,15.2672461 10.4357154,15.6577704 C10.0451911,16.0482947 9.41202611,16.0482947 9.02150182,15.6577704 C8.14656587,14.7828345 7.7286086,13.5289627 7.7286086,11.9506637 C7.7286086,11.4132618 8.15334955,10.9719513 8.69035816,10.9513955 L10.1918218,10.8939218 C10.7707287,10.8717621 11.2286086,10.3960199 11.2286086,9.81668906 C11.2286086,9.41885736 10.9061023,9.09635105 10.5082706,9.09635105 C10.5351085,9.09635105 9.08093861,9.3074088 7.42961364,9.55364647 C6.45162372,9.70151523 5.7286086,10.5420653 5.7286086,11.5311707 L5.7286086,13.9506637 C5.7286086,14.9967098 6.29827246,15.8573095 7.70113965,17.182266 C7.78436527,17.2608696 8.35318609,17.7909007 8.51574293,17.9461523 C8.83419583,18.2502941 9.07907553,18.5005507 9.29487422,18.7492556 C9.94337771,19.4966467 10.2986264,20.2060306 10.3004029,21.0106335 C10.3016224,21.5629169 9.85489677,22.0116196 9.30261337,22.012844 C8.75032996,22.0140585 8.30162725,21.5673329 8.30040781,21.0150495 C8.29989466,20.7826431 8.14784961,20.4790295 7.78426112,20.0599989 C7.61633921,19.8664713 7.41153768,19.6571729 7.13440178,19.3924914 C6.98266927,19.2475777 6.41953807,18.7228481 6.32787813,18.6362787 C4.55254796,16.9595446 3.7286086,15.714807 3.7286086,13.9506637 L3.7286086,11.5311707 C3.7286086,10.0635619 4.52449827,8.75948166 5.73486754,8.06317461 C5.73073228,8.02624171 5.7286086,7.98870069 5.7286086,7.95066366 L5.7286086,5.45066366 C5.7286086,4.06995178 6.84789673,2.95066366 8.2286086,2.95066366 C8.41362741,2.95066366 8.59395191,2.97076234 8.7675179,3.00889547 C8.9761297,1.83888877 9.9986411,0.950663659 11.2286086,0.950663659 C12.1172291,0.950663659 12.8975638,1.41429036 13.3409167,2.11284783 C13.6167737,2.00804424 13.9159902,1.95066366 14.2286086,1.95066366 C15.4585761,1.95066366 16.4810875,2.83888877 16.6896993,4.00889547 C16.8632653,3.97076234 17.0435898,3.95066366 17.2286086,3.95066366 C18.6093205,3.95066366 19.7286086,5.06995178 19.7286086,6.45066366 L19.7286086,7.45066366 C19.7286086,7.51117223 19.7264589,7.57117872 19.7222318,7.63061092 C19.7264446,7.66788141 19.7286086,7.70577264 19.7286086,7.74416931 C19.7286086,8.13066916 19.7371396,8.42209781 19.7715404,9.37020681 C19.7887556,9.8446685 19.7978887,10.1243578 19.8051434,10.4287494 C19.8314878,11.534094 19.8115408,12.3648915 19.7205519,13.0773466 C19.5451007,14.4511518 19.191438,15.4697972 18.4723608,17.0007735 L18.4800757,16.9843768 C18.5438358,16.8485519 18.1557786,17.6701757 18.074843,17.8464154 C17.5231342,19.0477781 17.2955959,19.8470534 17.2955959,20.8346383 C17.2955959,21.386923 16.8478806,21.8346383 16.2955959,21.8346383 C15.7433111,21.8346383 15.2955959,21.386923 15.2955959,20.8346383 C15.2955959,19.5071434 15.5960628,18.4516913 16.2573352,17.0117506 C16.3148046,16.8866091 16.3743797,16.7592449 16.4531562,16.5925241 C16.5510957,16.3856629 16.6054462,16.2708778 16.6480207,16.1804461 C17.2955992,14.8049354 17.5921078,13.955885 17.7366653,12.8239808 C17.8119452,12.2345298 17.8298451,11.4889972 17.8057112,10.4764032 C17.8012699,10.2900554 17.7960582,10.1120381 17.7885215,9.8877218 C17.6085149,9.92890815 17.4211024,9.95066366 17.2286086,9.95066366 C16.6658056,9.95066366 16.1464389,9.76469125 15.7286086,9.45084675 C15.3107783,9.76469125 14.7914116,9.95066366 14.2286086,9.95066366 Z M17.2286086,7.95066366 C17.504751,7.95066366 17.7286086,7.72680603 17.7286086,7.45066366 L17.7286086,6.45066366 C17.7286086,6.17452128 17.504751,5.95066366 17.2286086,5.95066366 C16.9524662,5.95066366 16.7286086,6.17452128 16.7286086,6.45066366 L16.7286086,7.45066366 C16.7286086,7.72680603 16.9524662,7.95066366 17.2286086,7.95066366 Z M14.7286086,6.45066366 L14.7286086,4.45066366 C14.7286086,4.17452128 14.504751,3.95066366 14.2286086,3.95066366 C13.9524662,3.95066366 13.7286086,4.17452128 13.7286086,4.45066366 L13.7286086,6.45066366 L13.7286086,7.45066366 C13.7286086,7.72680603 13.9524662,7.95066366 14.2286086,7.95066366 C14.504751,7.95066366 14.7286086,7.72680603 14.7286086,7.45066366 L14.7286086,6.45066366 Z M11.7286086,4.45066366 L11.7286086,3.45066366 C11.7286086,3.17452128 11.504751,2.95066366 11.2286086,2.95066366 C10.9524662,2.95066366 10.7286086,3.17452128 10.7286086,3.45066366 L10.7286086,5.45066366 L10.7286086,6.45066366 C10.7286086,6.72680603 10.9524662,6.95066366 11.2286086,6.95066366 C11.504751,6.95066366 11.7286086,6.72680603 11.7286086,6.45066366 L11.7286086,4.45066366 Z M8.7286086,7.33862334 L8.7286086,5.45066366 C8.7286086,5.17452128 8.50475098,4.95066366 8.2286086,4.95066366 C7.95246623,4.95066366 7.7286086,5.17452128 7.7286086,5.45066366 L7.7286086,7.48701672 C8.1100979,7.43022752 8.44131741,7.3810526 8.7286086,7.33862334 Z" fill="#000" fill-rule="nonzero" transform="rotate(30 11.772 11.482)"/></g></svg>