<?xml version="1.0" ?><svg width="24px" height="24px" viewBox="0 0 24 24" xmlns="http://www.w3.org/2000/svg" xmlns:xlink="http://www.w3.org/1999/xlink"><defs><rect height="11" id="icon-pride-rainbow-a" width="20" x="0" y="0"/></defs><g fill="none" fill-rule="evenodd"><g transform="translate(2 8)"><mask fill="#fff" id="icon-pride-rainbow-b"><use xlink:href="#icon-pride-rainbow-a"/></mask><circle cx="10" cy="10" fill="#FF547F" mask="url(#icon-pride-rainbow-b)" r="10"/><path d="M10,17.5 C14.1421356,17.5 17.5,14.1421356 17.5,10 C17.5,5.85786438 14.1421356,2.5 10,2.5 C5.85786438,2.5 2.5,5.85786438 2.5,10 C2.5,14.1421356 5.85786438,17.5 10,17.5 Z" fill="#FFB331" mask="url(#icon-pride-rainbow-b)"/><path d="M10,16 C13.3137085,16 16,13.3137085 16,10 C16,6.6862915 13.3137085,4 10,4 C6.6862915,4 4,6.6862915 4,10 C4,13.3137085 6.6862915,16 10,16 Z" fill="#FFD631" mask="url(#icon-pride-rainbow-b)"/><path d="M10,14.5 C12.4852814,14.5 14.5,12.4852814 14.5,10 C14.5,7.51471863 12.4852814,5.5 10,5.5 C7.51471863,5.5 5.5,7.51471863 5.5,10 C5.5,12.4852814 7.51471863,14.5 10,14.5 Z" fill="#31D362" mask="url(#icon-pride-rainbow-b)"/><path d="M10,13 C11.6568542,13 13,11.6568542 13,10 C13,8.34314575 11.6568542,7 10,7 C8.34314575,7 7,8.34314575 7,10 C7,11.6568542 8.34314575,13 10,13 Z" fill="#5B55FF" mask="url(#icon-pride-rainbow-b)"/><path d="M10,11.5 C10.8284271,11.5 11.5,10.8284271 11.5,10 C11.5,9.17157288 10.8284271,8.5 10,8.5 C9.17157288,8.5 8.5,9.17157288 8.5,10 C8.5,10.8284271 9.17157288,11.5 10,11.5 Z" fill="#AB56FF" mask="url(#icon-pride-rainbow-b)"/></g><path d="M23,18 C23,19.1045695 22.1045695,20 21,20 L3,20 C1.8954305,20 1,19.1045695 1,18 C1,11.9248678 5.92486775,7 12,7 C18.0751322,7 23,11.9248678 23,18 Z M21,18 C21,13.0294373 16.9705627,9 12,9 C7.02943725,9 3,13.0294373 3,18 L21,18 Z M2.2,6.6 C1.86862915,6.1581722 1.9581722,5.53137085 2.4,5.2 C2.8418278,4.86862915 3.46862915,4.9581722 3.8,5.4 L5,7 C5.33137085,7.4418278 5.2418278,8.06862915 4.8,8.4 C4.3581722,8.73137085 3.73137085,8.6418278 3.4,8.2 L2.2,6.6 Z M20.2,5.4 C20.5313708,4.9581722 21.1581722,4.86862915 21.6,5.2 C22.0418278,5.53137085 22.1313708,6.1581722 21.8,6.6 L20.6,8.2 C20.2686292,8.6418278 19.6418278,8.73137085 19.2,8.4 C18.7581722,8.06862915 18.6686292,7.4418278 19,7 L20.2,5.4 Z M11,3 C11,2.44771525 11.4477153,2 12,2 C12.5522847,2 13,2.44771525 13,3 L13,5 C13,5.55228475 12.5522847,6 12,6 C11.4477153,6 11,5.55228475 11,5 L11,3 Z" fill="#000" fill-rule="nonzero"/></g></svg>