<?xml version="1.0" ?><svg width="100px" height="100px" viewBox="0 0 100 100" data-name="Layer 1" id="Layer_1" xmlns="http://www.w3.org/2000/svg"><defs><style>.cls-1{fill:#995f5b;}.cls-2{fill:#c8da52;}</style></defs><title/><path class="cls-1" d="M47.21,68.42,34.07,74.55V55.74a1,1,0,0,0-2,0V91.65a1,1,0,0,0,2,0V76.76l14-6.52a1,1,0,0,0-.84-1.82Z"/><path class="cls-1" d="M87.53,73.42a1,1,0,0,0-1.33-.48l-5.54,2.58v-12a1,1,0,1,0-2,0V91.65a1,1,0,0,0,2,0V77.73l6.38-3A1,1,0,0,0,87.53,73.42Z"/><path class="cls-2" d="M59.31,30A25.75,25.75,0,1,0,33.56,55.77,25.78,25.78,0,0,0,59.31,30ZM33.56,53.77A23.75,23.75,0,1,1,57.31,30,23.77,23.77,0,0,1,33.56,53.77Z"/><path class="cls-2" d="M33.56,14a16,16,0,1,0,16,16A16.06,16.06,0,0,0,33.56,14Z"/><path class="cls-2" d="M54.91,52.8A10.22,10.22,0,1,0,65.13,63,10.23,10.23,0,0,0,54.91,52.8Zm0,18.44A8.22,8.22,0,1,1,63.13,63,8.23,8.23,0,0,1,54.91,71.24Z"/><path class="cls-2" d="M94.25,48.46A15.08,15.08,0,1,0,79.17,63.54,15.09,15.09,0,0,0,94.25,48.46ZM79.17,61.54A13.08,13.08,0,1,1,92.25,48.46,13.09,13.09,0,0,1,79.17,61.54Z"/><path class="cls-2" d="M79.17,42.47a6,6,0,1,0,6,6A6,6,0,0,0,79.17,42.47Z"/><path class="cls-2" d="M90.1,65.42a5.41,5.41,0,1,0,5.41,5.41A5.41,5.41,0,0,0,90.1,65.42Zm0,8.82a3.41,3.41,0,1,1,3.41-3.41A3.41,3.41,0,0,1,90.1,74.24Z"/></svg>