<?xml version="1.0" ?><svg width="100px" height="100px" viewBox="0 0 100 100" data-name="Layer 1" id="Layer_1" xmlns="http://www.w3.org/2000/svg"><defs><style>.cls-1{fill:#c8da52;}.cls-2{fill:#995f5b;}</style></defs><title/><rect class="cls-1" height="71.82" rx="14.18" ry="14.18" width="41.74" x="10.27" y="9.12"/><rect class="cls-1" height="32.03" rx="10.7" ry="10.7" width="31.06" x="62.69" y="54.74"/><path class="cls-2" d="M39.39,35.35a1,1,0,0,0,0-2,8.91,8.91,0,0,0-8.73,5.83,8.94,8.94,0,0,0-8.74-5.83,1,1,0,0,0,0,2c7.62,0,7.74,8.36,7.74,8.71V47a8.8,8.8,0,0,0-7.74-3.94,1,1,0,0,0,0,2c7.62,0,7.74,8.35,7.74,8.71v3.9a8.79,8.79,0,0,0-7.74-3.93,1,1,0,1,0,0,2c7.62,0,7.74,8.35,7.74,8.71v2.93a8.8,8.8,0,0,0-7.74-3.94,1,1,0,0,0,0,2c7.62,0,7.74,8.36,7.74,8.71V92.59a1,1,0,0,0,2,0V74.15c0-.35.12-8.71,7.73-8.71a1,1,0,0,0,0-2,8.78,8.78,0,0,0-7.73,3.94V64.45c0-.36.12-8.71,7.73-8.71a1,1,0,0,0,0-2,8.77,8.77,0,0,0-7.73,3.93v-3.9c0-.36.12-8.71,7.73-8.71a1,1,0,0,0,0-2A8.78,8.78,0,0,0,31.66,47V44.06C31.66,43.71,31.78,35.35,39.39,35.35Z"/><path class="cls-2" d="M87,76.06A8.78,8.78,0,0,0,79.22,80V77.06c0-.35.11-8.7,7.73-8.7a1,1,0,0,0,0-2,8.91,8.91,0,0,0-8.73,5.82,8.93,8.93,0,0,0-8.74-5.82,1,1,0,0,0,0,2c7.62,0,7.73,8.35,7.74,8.7V80a8.81,8.81,0,0,0-7.74-3.94,1,1,0,0,0,0,2c7.62,0,7.73,8.35,7.74,8.71v5.82a1,1,0,0,0,2,0V86.77c0-.36.11-8.71,7.73-8.71a1,1,0,0,0,0-2Z"/></svg>