<?xml version="1.0" ?><svg width="100px" height="100px" viewBox="0 0 100 100" data-name="Layer 1" id="Layer_1" xmlns="http://www.w3.org/2000/svg"><defs><style>.cls-1{fill:#c8da52;}.cls-2{fill:#995f5b;}</style></defs><title/><path class="cls-1" d="M70,55.7C82.15,52.44,94.5,38.08,94.5,38.08a82.92,82.92,0,0,0-14.79-3.43,83.93,83.93,0,0,0,5.67-14.09A83.2,83.2,0,0,0,70.53,23.7a84,84,0,0,0-.81-15.16,83,83,0,0,0-12.22,9.2A83.08,83.08,0,0,0,50.33,4.27a83,83,0,0,0-7.15,13.39A84,84,0,0,0,31.05,8.54a83.47,83.47,0,0,0-.82,15.16,83.2,83.2,0,0,0-14.85-3.14,83.93,83.93,0,0,0,5.67,14.09A82.92,82.92,0,0,0,6.26,38.08S18.61,52.44,30.78,55.7s18-.12,19.55-5.82h.11C52,55.58,57.82,59,70,55.7Z"/><path class="cls-1" d="M82,68.11c-1-6-5.37-12.4-5.37-12.4s-4.33,6.35-5.37,12.37C66,65,58.32,64.24,58.32,64.24S61,73.79,66.05,78,74.63,82,76.62,79.59h.06c2,2.37,5.51,2.68,10.56-1.56S95,64.24,95,64.24,87.27,65,82,68.11Z"/><path class="cls-2" d="M68.5,31.71a1,1,0,0,0-1.41,0L50.33,48.47,33.56,31.71a1,1,0,0,0-1.41,1.41L49.33,50.3V92.59a1,1,0,0,0,2,0V50.3L68.5,33.12A1,1,0,0,0,68.5,31.71Z"/><path class="cls-2" d="M84,73.44a1,1,0,0,0-1.41,0l-6.09,6.09-6.09-6.09a1,1,0,0,0-1.41,0,1,1,0,0,0,0,1.42l6.5,6.5V92.59a1,1,0,0,0,2,0V81.36l6.5-6.5A1,1,0,0,0,84,73.44Z"/></svg>