<?xml version="1.0" ?><svg width="100px" height="100px" viewBox="0 0 100 100" data-name="Layer 1" id="Layer_1" xmlns="http://www.w3.org/2000/svg"><defs><style>.cls-1{fill:#c8da52;}.cls-2{fill:#995f5b;}</style></defs><title/><ellipse class="cls-1" cx="51.84" cy="30.96" rx="44.65" ry="26.69"/><ellipse class="cls-1" cx="77.56" cy="70.75" rx="18.93" ry="11.16"/><path class="cls-2" d="M88.72,70.24a1,1,0,0,0-1,1v1.67a2.37,2.37,0,0,1-1.14.24H79V67.36a1,1,0,0,0-2,0v5.79h-8.5a2.37,2.37,0,0,1-1.14-.24V71.24a1,1,0,1,0-2,0v1.87c0,1.18,1.32,2,3.14,2H77V92.59a1,1,0,0,0,2,0V75.15h7.54c1.82,0,3.14-.86,3.14-2V71.24A1,1,0,0,0,88.72,70.24Z"/><path class="cls-2" d="M72.22,43.12c3.23,0,5.85-2,5.85-4.47V32.41a1,1,0,0,0-2,0v6.24c0,1.34-1.76,2.47-3.85,2.47H52.84V33.41h14c2.45,0,4.45-1.55,4.45-3.46V25.62a1,1,0,0,0-2,0V30c0,.69-1,1.46-2.45,1.46h-14V21.74a1,1,0,1,0-2,0v9.67h-13c-1.44,0-2.45-.77-2.45-1.46V25.62a1,1,0,1,0-2,0V30c0,1.91,2,3.46,4.45,3.46h13v7.71H31.46c-2.09,0-3.86-1.13-3.86-2.47V32.41a1,1,0,0,0-2,0v6.24c0,2.47,2.63,4.47,5.86,4.47H50.84V92.59a1,1,0,0,0,2,0V43.12Z"/></svg>