<?xml version="1.0" ?><svg width="100px" height="100px" viewBox="0 0 100 100" data-name="Layer 1" id="Layer_1" xmlns="http://www.w3.org/2000/svg"><defs><style>.cls-1{fill:#995f5b;}.cls-2{fill:#c8da52;}</style></defs><title/><path class="cls-1" d="M34.46,95.57a1,1,0,0,1-1-1V41.19a1,1,0,0,1,2,0V94.57A1,1,0,0,1,34.46,95.57Z"/><path class="cls-1" d="M77.17,95.57a1,1,0,0,1-1-1V70.31a1,1,0,0,1,2,0V94.57A1,1,0,0,1,77.17,95.57Z"/><path class="cls-2" d="M93.25,76.83c-3.51-3.45-8.08-8-11.47-11.37H86a1.92,1.92,0,0,0,1.35-3.28c-2.9-2.85-6.95-6.86-9-9a1.91,1.91,0,0,0-2.72,0l-9,9A1.92,1.92,0,0,0,68,65.46h4.16L60.79,76.84A3,3,0,0,0,62.91,82H91.14A3,3,0,0,0,93.25,76.83Z"/><path class="cls-2" d="M61.11,57.87c-3.89-3.83-8.57-8.46-12.94-12.8h4.59a4,4,0,0,0,2.8-6.8c-4.47-4.4-10.24-10.11-14.68-14.55H46a2.53,2.53,0,0,0,1.78-4.34c-3.84-3.79-9.22-9.11-12-11.9a2.55,2.55,0,0,0-3.61,0L20.29,19.39a2.53,2.53,0,0,0,1.79,4.33h5L12.5,38.29a4,4,0,0,0,2.81,6.78h4.45L6.94,57.89a5,5,0,0,0,3.53,8.54H57.59A5,5,0,0,0,61.11,57.87Z"/></svg>