<?xml version="1.0" ?><svg width="100px" height="100px" viewBox="0 0 100 100" data-name="Layer 1" id="Layer_1" xmlns="http://www.w3.org/2000/svg"><defs><style>.cls-1{fill:#c8da52;}.cls-2{fill:#995f5b;}</style></defs><title/><path class="cls-1" d="M96.27,66.52c0,10.72-6.86,16.13-15.31,16.13S65.65,77.24,65.65,66.52,81,43.82,81,43.82,96.27,55.8,96.27,66.52Z"/><path class="cls-1" d="M65.4,48.12c0,20.37-13,30.65-29.09,30.65S7.22,68.49,7.22,48.12,36.31,5,36.31,5,65.4,27.75,65.4,48.12Z"/><path class="cls-2" d="M88.55,68.91a1,1,0,0,0-1.42,0L82,74.09V63.24a1,1,0,1,0-2,0V74.09l-5.18-5.18a1,1,0,0,0-1.41,0,1,1,0,0,0,0,1.42L80,76.92v16.4a1,1,0,0,0,2,0V76.92l6.59-6.59A1,1,0,0,0,88.55,68.91Z"/><path class="cls-2" d="M53.07,53.79,37.31,69.56V53.94L50.6,40.65a1,1,0,0,0-1.41-1.42L37.31,51.12V31.21a1,1,0,0,0-2,0V51.12L23.43,39.23A1,1,0,1,0,22,40.65l13.3,13.29V69.56L19.54,53.79a1,1,0,0,0-1.41,0,1,1,0,0,0,0,1.42L35.31,72.39V93.32a1,1,0,0,0,2,0V72.39L54.49,55.21a1,1,0,0,0-1.42-1.42Z"/></svg>