<?xml version="1.0" ?><svg width="100px" height="100px" viewBox="0 0 100 100" data-name="Layer 1" id="Layer_1" xmlns="http://www.w3.org/2000/svg"><defs><style>.cls-1{fill:#c8da52;}.cls-2{fill:#995f5b;}</style></defs><title/><path class="cls-1" d="M57.66,63.52c0,23-3,26.2-6.79,26.2s-6.8-3.15-6.8-26.2,6.28-57.27,6.8-57.27S57.66,40.47,57.66,63.52Z"/><path class="cls-1" d="M42.13,66.56c0,20.37-2.69,23.16-6,23.16s-6-2.79-6-23.16,5.55-50.6,6-50.6S42.13,46.19,42.13,66.56Z"/><path class="cls-2" d="M50.87,95.57a1,1,0,0,1-1-1V72.25a1,1,0,0,1,2,0V94.57A1,1,0,0,1,50.87,95.57Z"/><path class="cls-2" d="M36.31,95.57a1,1,0,0,1-1-1V78.07a1,1,0,0,1,2,0v16.5A1,1,0,0,1,36.31,95.57Z"/><path class="cls-1" d="M69.31,75.7c0,12.33-2.17,14-4.85,14S59.6,88,59.6,75.7s4.48-30.63,4.86-30.63S69.31,63.37,69.31,75.7Z"/><path class="cls-2" d="M64.46,95.57a1,1,0,0,1-1-1V83.9a1,1,0,0,1,2,0V94.57A1,1,0,0,1,64.46,95.57Z"/></svg>