<?xml version="1.0" ?><svg width="100px" height="100px" viewBox="0 0 100 100" data-name="Layer 1" id="Layer_1" xmlns="http://www.w3.org/2000/svg"><defs><style>.cls-1{fill:#c8da52;}.cls-2{fill:#995f5b;}</style></defs><title/><circle class="cls-1" cx="39.31" cy="38.97" r="33.97"/><circle class="cls-1" cx="81.05" cy="67.12" r="13.59"/><path class="cls-2" d="M57.49,33.85a1,1,0,0,0-1.41-1.41L39.31,49.2,22.55,32.44a1,1,0,1,0-1.41,1.41L38.31,51V62.76L22.55,47a1,1,0,1,0-1.41,1.41L38.31,65.59V93.32a1,1,0,0,0,2,0V65.59L57.49,48.41A1,1,0,0,0,56.08,47L40.31,62.76V51Z"/><path class="cls-2" d="M88.64,68.91a1,1,0,0,0-1.41,0l-6.18,6.18-6.17-6.18a1,1,0,0,0-1.42,1.42l6.59,6.59v16.4a1,1,0,0,0,2,0V76.92l6.59-6.59A1,1,0,0,0,88.64,68.91Z"/></svg>