<?xml version="1.0" ?><svg width="100px" height="100px" viewBox="0 0 100 100" data-name="Layer 1" id="Layer_1" xmlns="http://www.w3.org/2000/svg"><defs><style>.cls-1{fill:#c8da52;}.cls-2{fill:#995f5b;}</style></defs><title/><path class="cls-1" d="M56.94,1.74h-.33c-10.76.2-19.34,9.55-19.13,20.83h0v44a1,1,0,0,0,2,0v-44h0C39.28,12.36,47,3.92,56.65,3.74h.29a15.31,15.31,0,0,1,15.28,15A13.1,13.1,0,0,1,59.39,32.06a10.93,10.93,0,0,1-8-3.13A11.08,11.08,0,0,1,48,21.1a9.51,9.51,0,0,1,9.33-9.69,8.14,8.14,0,0,1,5.76,2.26,8,8,0,0,1,2.48,5.67,6.87,6.87,0,0,1-6.72,7,5.68,5.68,0,0,1-4.13-1.62A5.79,5.79,0,0,1,53,20.65a4.8,4.8,0,0,1,.13-1.14,4.48,4.48,0,0,0-.07.64,5.34,5.34,0,0,0,10.27,2,5.31,5.31,0,0,0,.59-2.54A6,6,0,0,0,62,15.39a5.9,5.9,0,0,0-4.32-1.7,6.86,6.86,0,0,0-6.74,7,7.8,7.8,0,0,0,7.93,7.65,8.87,8.87,0,0,0,8.69-9,10.09,10.09,0,0,0-10.27-9.9A11.52,11.52,0,0,0,46,21.14,13.16,13.16,0,0,0,59.18,34.06h.25A15.1,15.1,0,0,0,74.22,18.7,17.31,17.31,0,0,0,56.94,1.74Z"/><path class="cls-1" d="M34.62,39.06c.16-8.66-6.42-15.83-14.67-16a13.34,13.34,0,0,0-9.47,3.71,13.19,13.19,0,0,0-4.07,9.32,11.64,11.64,0,0,0,11.4,11.83H18A10.16,10.16,0,0,0,28.17,38a8.93,8.93,0,0,0-8.76-9.1,7.87,7.87,0,0,0-8,7.71,6.94,6.94,0,0,0,6.8,7,6,6,0,0,0,4.36-1.71,6.1,6.1,0,0,0,1.87-4.29,5.43,5.43,0,0,0-5.32-5.53,5,5,0,0,0-3.44,1.35,4.82,4.82,0,0,0-1.48,3.39A4.2,4.2,0,0,0,20,40.9a3.87,3.87,0,0,0,1.4-.67c-.07.08-.13.17-.2.24a4.17,4.17,0,0,1-2.94,1.15,4.93,4.93,0,0,1-4.83-5,5.87,5.87,0,0,1,5.86-5.75h.11a6.93,6.93,0,0,1,6.79,7.06,8.14,8.14,0,0,1-2.5,5.74,8.23,8.23,0,0,1-5.82,2.28,9.63,9.63,0,0,1-9.44-9.79,11.29,11.29,0,0,1,11.5-11.07c7.15.13,12.85,6.39,12.71,13.94,0,0,0,0,0,0V72.58a1,1,0,0,0,2,0V39.06Z"/><path class="cls-1" d="M48.89,61.87A6.85,6.85,0,0,0,42.33,69a.36.36,0,0,0,0,.1.24.24,0,0,0,0,.09V83.55a1,1,0,0,0,2,0V69.17s0-.08,0-.11,0-.07,0-.11a4.85,4.85,0,0,1,4.59-5.08H49a4,4,0,0,1,4,3.93,3.2,3.2,0,0,1-.11.93A4,4,0,0,0,53,68a3.81,3.81,0,0,0-3.87-3.72A4.22,4.22,0,0,0,45,68.54a4.74,4.74,0,0,0,1.45,3.32,4.7,4.7,0,0,0,3.29,1.33h.09A5.33,5.33,0,0,0,55,67.76,6,6,0,0,0,48.89,61.87Z"/><path class="cls-2" d="M38.47,65.25a1,1,0,0,0-1,1v23.3a1,1,0,0,0,2,0V66.25A1,1,0,0,0,38.47,65.25Z"/><path class="cls-2" d="M33.62,71.08a1,1,0,0,0-1,1V89.55a1,1,0,0,0,2,0V72.08A1,1,0,0,0,33.62,71.08Z"/><path class="cls-2" d="M43.33,81.75a1,1,0,0,0-1,1v6.8a1,1,0,0,0,2,0v-6.8A1,1,0,0,0,43.33,81.75Z"/></svg>