<?xml version="1.0" ?><svg width="47.5px" height="47.5px" viewBox="0 0 47.5 47.5" id="svg2" style="enable-background:new 0 0 47.5 47.5;" version="1.1" xml:space="preserve" xmlns="http://www.w3.org/2000/svg" xmlns:cc="http://creativecommons.org/ns#" xmlns:dc="http://purl.org/dc/elements/1.1/" xmlns:rdf="http://www.w3.org/1999/02/22-rdf-syntax-ns#" xmlns:svg="http://www.w3.org/2000/svg"><defs id="defs6"><clipPath clipPathUnits="userSpaceOnUse" id="clipPath16"><path d="M 0,38 38,38 38,0 0,0 0,38 Z" id="path18"/></clipPath></defs><g id="g10" transform="matrix(1.25,0,0,-1.25,0,47.5)"><g id="g12"><g clip-path="url(#clipPath16)" id="g14"><g id="g20" transform="translate(37,14)"><path d="m 0,0 c 0,-5.522 -8.059,-10 -18,-10 -9.941,0 -18,4.478 -18,10 0,5.522 8.059,10 18,10 C -8.059,10 0,5.522 0,0" id="path22" style="fill:#939598;fill-opacity:1;fill-rule:nonzero;stroke:none"/></g><g id="g24" transform="translate(37,16)"><path d="m 0,0 c 0,-5.522 -8.059,-10 -18,-10 -9.941,0 -18,4.478 -18,10 0,5.522 8.059,10 18,10 C -8.059,10 0,5.522 0,0" id="path26" style="fill:#f1f2f2;fill-opacity:1;fill-rule:nonzero;stroke:none"/></g><g id="g28" transform="translate(32,17)"><path d="m 0,0 c 0,-3.988 -5.82,-7.223 -13,-7.223 -7.18,0 -13,3.235 -13,7.223 0,3.988 5.82,7.222 13,7.222 C -5.82,7.222 0,3.988 0,0" id="path30" style="fill:#c1694f;fill-opacity:1;fill-rule:nonzero;stroke:none"/></g><g id="g32" transform="translate(30,17)"><path d="m 0,0 c 0,-3.068 -4.926,-5.556 -11,-5.556 -6.075,0 -11,2.488 -11,5.556 0,3.068 4.925,5.556 11,5.556 C -4.926,5.556 0,3.068 0,0" id="path34" style="fill:#8a4b38;fill-opacity:1;fill-rule:nonzero;stroke:none"/></g><g id="g36" transform="translate(19,30)"><path d="m 0,0 c 3.383,0 4.724,-2 5.921,-2 1.691,0 2.537,-2 4.228,-9 0.698,-2.885 -4.228,-6 -10.149,-6 -5.92,0 -10.846,3.115 -10.149,6 1.691,7 2.537,9 4.229,9 1.195,0 2.537,2 5.92,2" id="path38" style="fill:#ffcc4d;fill-opacity:1;fill-rule:nonzero;stroke:none"/></g><g id="g40" transform="translate(26.6123,26)"><path d="m 0,0 c 0,-2.209 -3.408,-4 -7.612,-4 -4.204,0 -7.612,1.791 -7.612,4 0,2.209 3.408,4 7.612,4 C -3.408,4 0,2.209 0,0" id="path42" style="fill:#662113;fill-opacity:1;fill-rule:nonzero;stroke:none"/></g></g></g></g></svg>