<?xml version="1.0" ?><!DOCTYPE svg  PUBLIC '-//W3C//DTD SVG 1.0//EN'  'http://www.w3.org/TR/2001/REC-SVG-20010904/DTD/svg10.dtd'><svg width="256px" height="256px" viewBox="0 0 256 256" enable-background="new 0 0 256 256" id="Layer_1" version="1.0" xml:space="preserve" xmlns="http://www.w3.org/2000/svg" xmlns:xlink="http://www.w3.org/1999/xlink"><g><path d="M161.483,160.59c2.461,1.502,5.143,2.721,8.037,3.563c24.945,7.258,42.578,0.949,53.605-9.885   c10.936-10.746,10.266-37.828,10.076-41.25l0.002-0.367c0,0-3.559,0.736-5.922-4.027c-1.291-0.209-2.816-0.33-4.641-0.33   c0,0-44.65-5.154-66.34,10.93c-3.018,2.238-4.672,6.131-5.084,10.816l0.027,1.852C150.36,141.256,154.075,152.4,161.483,160.59z" fill="#06F7CF"/><path d="   M156.301,119.223c-3.018,2.238-4.672,6.131-5.084,10.816l0.027,1.852" fill="none" stroke="#14346E" stroke-linecap="round" stroke-linejoin="round" stroke-miterlimit="10" stroke-width="6"/><path d="M93.352,164.152c17.754-5.166,27.664-24.246,26.273-38.932l0.027-1.846c-0.242-2.76-0.92-5.24-2.047-7.271   c-22.863-12.254-61.379-7.811-61.379-7.811c-10.453,0-11.373,5.096-12.377,6.463c-3.697,5.035-6.18,4.559-6.18,4.559v0.367   c-0.186,3.318-0.82,28.879,9.107,40.225C57.762,167.014,73.161,170.027,93.352,164.152z" fill="#06F7CF"/><path d="   M109.627,127.221l0.029-1.848c-0.244-2.758-0.92-5.238-2.049-7.27" fill="none" stroke="#14346E" stroke-linecap="round" stroke-linejoin="round" stroke-miterlimit="10" stroke-width="6"/><path d="M238.905,98.016c0,0-54.219-10.795-82.5,1.902c-12.646,5.678-13.807,9.502-24.961,9.502   c-11.158,0-12.316-3.824-24.963-9.502C78.2,87.221,23.983,98.016,23.983,98.016l-1.344,9.314c0,0,7.223,2.09,7.033,5.512   c0,0,2.482,0.477,6.182-4.559c1.002-1.367,1.924-6.463,12.375-6.463c0,0,44.652-5.154,66.342,10.93   c3.016,2.238,4.668,6.129,5.082,10.816c0,0,1.723-3.695,6.988-5.971c0,0,1.787-1.236,5.07-1.236c3.281,0,4.535,1.236,4.535,1.236   c2.326,1.016,6.975,5.973,6.975,5.973c0.412-4.688,2.066-8.58,5.084-10.818c21.688-16.084,66.336-10.93,66.336-10.93   c10.457,0,11.256,3.9,12.379,6.463c2.352,5.369,6.184,4.559,6.184,4.559c-0.189-3.422,7.033-5.512,7.033-5.512L238.905,98.016z" fill="#FF9D00"/><path d="   M240.235,107.699c0,0-7.225,2.09-7.033,5.512c0.189,3.42,0.859,30.502-10.076,41.248c-11.027,10.834-28.66,17.143-53.605,9.887   c-23.521-6.844-33.273-38.109-21.219-51.225" fill="none" stroke="#14346E" stroke-linecap="round" stroke-linejoin="round" stroke-miterlimit="10" stroke-width="6"/><path d="   M220.245,137.582c-1.055,4.066-2.707,7.906-5.291,10.443c-3.504,3.445-7.967,6.234-13.436,7.773" fill="none" stroke="#FFFFFF" stroke-linecap="round" stroke-linejoin="round" stroke-miterlimit="10" stroke-width="6"/><path d="   M106.313,137.582c-1.053,4.066-2.707,7.906-5.291,10.443c-3.504,3.445-7.967,6.234-13.438,7.773" fill="none" stroke="#FFFFFF" stroke-linecap="round" stroke-linejoin="round" stroke-miterlimit="10" stroke-width="6"/><path d="   M227.018,108.65c0,0-1.924-6.461-12.379-6.461" fill="none" stroke="#14346E" stroke-linecap="round" stroke-linejoin="round" stroke-miterlimit="10" stroke-width="6"/><path d="   M126.641,117.963c0,0,1.787-1.236,5.07-1.236c3.281,0,4.535,1.236,4.535,1.236" fill="none" stroke="#14346E" stroke-linecap="round" stroke-linejoin="round" stroke-miterlimit="10" stroke-width="6"/><path d="   M23.983,98.383c0,0,54.217-10.793,82.498,1.904c12.646,5.678,13.805,9.502,24.963,9.502c11.154,0,12.314-3.824,24.961-9.502   c28.281-12.697,82.5-1.904,82.5-1.904" fill="none" stroke="#14346E" stroke-linecap="round" stroke-linejoin="round" stroke-miterlimit="10" stroke-width="6"/><path d="   M22.639,107.699c0,0,7.223,2.09,7.033,5.512c-0.191,3.42-0.861,30.502,10.074,41.248c11.025,10.834,28.656,17.143,53.605,9.887   c23.523-6.844,33.275-38.109,21.219-51.227" fill="none" stroke="#14346E" stroke-linecap="round" stroke-linejoin="round" stroke-miterlimit="10" stroke-width="6"/><path d="   M35.854,108.65c0,0,1.924-6.461,12.375-6.461" fill="none" stroke="#14346E" stroke-linecap="round" stroke-linejoin="round" stroke-miterlimit="10" stroke-width="6"/></g></svg>