<?xml version="1.0" ?><!DOCTYPE svg  PUBLIC '-//W3C//DTD SVG 1.0//EN'  'http://www.w3.org/TR/2001/REC-SVG-20010904/DTD/svg10.dtd'><svg width="256px" height="256px" viewBox="0 0 256 256" enable-background="new 0 0 256 256" id="Layer_1" version="1.0" xml:space="preserve" xmlns="http://www.w3.org/2000/svg" xmlns:xlink="http://www.w3.org/1999/xlink"><g><path d="M184.474,54.309l-0.004-0.139h-4.623l-8.336,1.402c-4.613-3.596-14.221-6.067-25.326-6.067   c-12.098,0-22.42,2.932-26.439,7.055l-7.83-2.39h-4.018l-0.006,0.141l-37.615,17.08l9.766,21.97   c5.053-3.574,10.416-6.318,10.209-1.655c-0.076,1.726,1.061,6.216,2.256,12.398c5.629-4.378,13.438-9.479,13.189-3.873   c-0.158,3.566,4.863,18.903,4.863,36.674c0,39.194-11.375,69.932-14.266,82.535c1.873-0.062,3.936-0.177,6.209-0.351l13.521,0.668   l17.381,0.049c14.383,0,20.703-2.292,20.703-2.292c3.795,3.472,13.715,1.461,16.186,1.044c4.42-0.746,11.832-4.957,11.832-4.957   c-4.193-14.438-14.295-51.295-15.543-85.22c-0.66-17.981,4.785-32.954,4.641-36.678c-0.311-8.181,10.748,1.041,16.049,5.914   c0.766-0.925,2.195-0.78,3.934-0.021l14.883-33.473L184.474,54.309z" fill="#FFDE58"/><path d="M110.45,143.523c-1.686,34.317-11.521,64.422-14.156,75.916c1.873-0.062,3.936-0.177,6.209-0.351   l13.521,0.668l17.381,0.049c14.383,0,20.703-2.292,20.703-2.292c3.795,3.472,13.715,1.461,16.186,1.044   c4.42-0.746,11.832-4.957,11.832-4.957c-3.629-12.495-11.682-41.784-14.592-71.432c-8.559-1.779-13.51,2.996-21.35,4.052   c-5.535,0.744-11.037-6.022-16.996-5.831C123.087,140.583,116.675,144.191,110.45,143.523z" fill="#FF9D00"/><polygon fill="#3497FF" points="130.856,133.724 138.517,123.729 100.417,123.729 100.417,133.724  "/><g><g><path d="     M158.976,52.068c0,6.013-12.643,10.886-28.234,10.886c-15.598,0-28.238-4.873-28.238-10.886c0-6.011,12.641-10.885,28.238-10.885     C146.333,41.184,158.976,46.058,158.976,52.068z" fill="none" stroke="#14346E" stroke-dasharray="8.3668,17.4307" stroke-linecap="round" stroke-linejoin="round" stroke-width="6"/></g><path d="    M182.126,213.804c-4.193-14.438-14.295-51.295-15.543-85.218c-0.66-17.982,4.785-32.956,4.641-36.679    c-0.408-10.747,18.809,8.541,18.809,8.541l16.615-37.378l-37.619-17.083l-0.004-0.139h-4.621" fill="none" stroke="#14346E" stroke-linecap="round" stroke-linejoin="round" stroke-miterlimit="10" stroke-width="6"/><path d="    M117.231,140.429c0,0-6.029,79.531-1.207,79.531l17.381,0.051" fill="none" stroke="#14346E" stroke-linecap="round" stroke-linejoin="round" stroke-miterlimit="10" stroke-width="6"/><line fill="none" stroke="#14346E" stroke-linecap="round" stroke-linejoin="round" stroke-miterlimit="10" stroke-width="6" x1="134.804" x2="134.804" y1="205.408" y2="157.757"/><path d="    M152.72,120.434c0,0,2.703,28.913,1.734,42.62c-1.766,24.967,1.236,34.038-1.682,49.626c-1.84,9.81,14.314,6.813,17.521,6.08" fill="none" stroke="#14346E" stroke-dasharray="7.9976,16.6616" stroke-linecap="round" stroke-linejoin="round" stroke-miterlimit="10" stroke-width="6"/><g><path d="     M96.468,45.849h-4.016l-0.008,0.141L54.829,63.07l16.617,37.378c0,0,19.195-17.277,18.805-8.54     c-0.135,3.04,3.492,14.63,4.566,28.985" fill="none" stroke="#14346E" stroke-linecap="round" stroke-linejoin="round" stroke-miterlimit="10" stroke-width="6"/><polyline fill="none" points="     130.856,134.224 88.202,134.224 88.202,120.894 146.185,120.894    " stroke="#14346E" stroke-linecap="round" stroke-linejoin="round" stroke-miterlimit="10" stroke-width="6"/><path d="     M95.034,134.224c-1.275,46.319-17.74,79.619-14.402,82.85c2.361,2.283,8.529,3.234,21.871,2.221" fill="none" stroke="#14346E" stroke-linecap="round" stroke-linejoin="round" stroke-miterlimit="10" stroke-width="6"/></g></g></g></svg>