<?xml version="1.0" ?><!DOCTYPE svg  PUBLIC '-//W3C//DTD SVG 1.0//EN'  'http://www.w3.org/TR/2001/REC-SVG-20010904/DTD/svg10.dtd'><svg width="256px" height="256px" viewBox="0 0 256 256" enable-background="new 0 0 256 256" id="Layer_1" version="1.0" xml:space="preserve" xmlns="http://www.w3.org/2000/svg" xmlns:xlink="http://www.w3.org/1999/xlink"><g><path d="M178.918,73.209l-0.006-0.14h-4.27l-7.086,1.962c-3.973-3.896-13.229-6.627-24.016-6.627   c-9.006,0-16.945,1.902-21.635,4.799l-10.027-0.134h-3.715l-0.006,0.142L73.409,90.29l8.551,20.82   c5.127-4.23,11.73-8.678,11.512-3.311c-0.109,2.64-0.363,8.692-0.688,16.195c5.209-4.521,13.6-10.904,13.35-4.865   c-0.363,8.739-2.309,54.832-3.107,67.338c-0.313,4.896-0.783,9.777-0.221,13.939c0.637,0.057,1.289,0.104,1.984,0.121l10.029,2   l16.059,0.049l17.02-1.111l17.521-1.525l6.779-3.568c0,0-3.537-77.827-3.916-88.573s17.377,8.54,17.377,8.54l13.605-33.131   L178.918,73.209z M149.184,149.006c-1.424,2.203-3.506,3.93-6.248,5.174c-2.742,1.246-5.998,1.871-9.758,1.871   c-4.51,0-8.229-0.852-11.158-2.555c-2.08-1.227-3.768-2.863-5.066-4.912c-1.299-2.045-1.949-4.035-1.949-5.969   c0-1.121,0.391-2.082,1.17-2.885c0.779-0.797,1.771-1.199,2.977-1.199c0.977,0,1.803,0.313,2.479,0.938   c0.674,0.621,1.25,1.547,1.73,2.773c0.58,1.455,1.211,2.67,1.885,3.646c0.676,0.977,1.625,1.781,2.854,2.416   c1.225,0.635,2.834,0.951,4.83,0.951c2.744,0,4.973-0.639,6.686-1.918c1.717-1.277,2.574-2.873,2.574-4.785   c0-1.516-0.465-2.746-1.387-3.693c-0.928-0.945-2.121-1.668-3.588-2.166c-1.463-0.5-3.422-1.029-5.875-1.59   c-3.283-0.77-6.029-1.668-8.246-2.697c-2.213-1.029-3.967-2.431-5.266-4.209c-1.301-1.775-1.947-3.983-1.947-6.623   c0-2.516,0.684-4.748,2.057-6.702c1.371-1.952,3.355-3.453,5.953-4.504c2.598-1.049,5.652-1.573,9.164-1.573   c2.805,0,5.23,0.347,7.279,1.044c2.045,0.695,3.746,1.62,5.096,2.774c1.352,1.152,2.338,2.363,2.961,3.631s0.938,2.504,0.938,3.709   c0,1.102-0.391,2.094-1.17,2.978c-0.779,0.883-1.75,1.323-2.914,1.323c-1.061,0-1.865-0.264-2.416-0.794   c-0.551-0.529-1.148-1.397-1.793-2.602c-0.832-1.726-1.828-3.072-2.992-4.038s-3.033-1.45-5.611-1.45   c-2.391,0-4.316,0.526-5.783,1.574c-1.463,1.05-2.197,2.313-2.197,3.788c0,0.915,0.25,1.705,0.748,2.369   c0.5,0.665,1.186,1.236,2.059,1.715c0.871,0.479,1.754,0.852,2.648,1.121c0.895,0.271,2.369,0.667,4.43,1.185   c2.572,0.604,4.906,1.268,6.996,1.996c2.088,0.727,3.865,1.609,5.33,2.649c1.465,1.039,2.607,2.355,3.428,3.943   c0.822,1.59,1.23,3.539,1.23,5.846C151.319,144.318,150.606,146.803,149.184,149.006z" fill="#34DBAE"/><path d="   M99.215,62.51h-3.713l-0.004,0.14L60.747,79.731l15.349,37.378c0,0,17.734-17.277,17.375-8.538   c-0.363,8.737-2.309,54.833-3.105,67.338c-0.799,12.504-2.662,24.943,14.424,25.389" fill="none" stroke="#14346E" stroke-linecap="round" stroke-linejoin="round" stroke-miterlimit="10" stroke-width="6"/><g><ellipse cx="130.877" cy="68.73" fill="none" rx="26.088" ry="10.885" stroke="#14346E" stroke-dasharray="7.8533,16.3609" stroke-linecap="round" stroke-linejoin="round" stroke-width="6"/></g><path d="   M172.198,197.142c0,0-3.537-77.825-3.916-88.572s17.377,8.54,17.377,8.54l15.35-37.378l-34.752-17.082l-0.006-0.14h-4.271" fill="none" stroke="#14346E" stroke-linecap="round" stroke-linejoin="round" stroke-miterlimit="10" stroke-width="6"/><path d="   M115.934,157.092c0,0-5.572,46.206-1.115,46.206l16.059,0.051" fill="none" stroke="#14346E" stroke-linecap="round" stroke-linejoin="round" stroke-miterlimit="10" stroke-width="6"/><line fill="none" stroke="#14346E" stroke-linecap="round" stroke-linejoin="round" stroke-miterlimit="10" stroke-width="6" x1="165.418" x2="147.897" y1="200.71" y2="202.237"/></g></svg>