<?xml version="1.0" ?><svg width="340px" height="340px" viewBox="0 0 340 340" id="icons" xmlns="http://www.w3.org/2000/svg"><title/><path d="M282.173,285.38a4,4,0,0,0-4,4v3.432H257.046V289.38a4,4,0,0,0-8,0v31.162a4,4,0,0,0,8,0v-19.73h21.127v19.73a4,4,0,0,0,8,0V289.38A4,4,0,0,0,282.173,285.38Z" style="fill:#c12140"/><path d="M86.954,285.38a4,4,0,0,0-4,4v3.432H61.827V289.38a4,4,0,0,0-8,0v30.162a4,4,0,0,0,8,0v-18.73H82.954v18.73a4,4,0,0,0,8,0V289.38A4,4,0,0,0,86.954,285.38Z" style="fill:#c12140"/><rect height="49.468" style="fill:#f74f73" width="129.402" x="105.299" y="266.075"/><rect height="60.182" style="fill:#f74f73" width="129.402" x="105.299" y="205.893"/><rect height="63.394" style="fill:#f74f73" width="129.402" x="105.299" y="111.658"/><path d="M179.95,43.333a5.076,5.076,0,0,0,1.288-9.434l-2-1.067a4.3,4.3,0,0,1,.915-7.943l1.142-.3a3.543,3.543,0,0,0,.3-6.754l-1.8-.655a4.3,4.3,0,0,1-2.829-4.038,5.646,5.646,0,0,0-5.646-5.647h-2.632a5.646,5.646,0,0,0-5.646,5.647,4.3,4.3,0,0,1-2.829,4.038l-1.8.655a3.543,3.543,0,0,0,.3,6.754l1.142.3a4.3,4.3,0,0,1,.915,7.943l-2,1.067a5.076,5.076,0,0,0,1.288,9.434,3.815,3.815,0,0,1,2.988,3.724v2.716a4.3,4.3,0,0,1-2.275,3.792l-2.812,1.5a3.545,3.545,0,0,0-1.876,3.127v7.273h27.85V58.191a3.545,3.545,0,0,0-1.876-3.127l-2.812-1.5a4.3,4.3,0,0,1-2.275-3.792V47.057A3.815,3.815,0,0,1,179.95,43.333Z" style="fill:#ffc257"/><path d="M132.519,279.668h0a8.629,8.629,0,0,1,8.629,8.629v9.792a1,1,0,0,1-1,1H124.892a1,1,0,0,1-1-1V288.3a8.629,8.629,0,0,1,8.629-8.629Z" style="fill:#373d4c"/><path d="M252.185,90.675a56.488,56.488,0,0,1-47.329-13.98,79.546,79.546,0,0,1-6.8-6.935,12.5,12.5,0,0,0-9.458-4.3H151.4a12.594,12.594,0,0,0-9.514,4.36,79.268,79.268,0,0,1-5.964,6.158C122.74,88.2,104.589,93.878,86.93,90.514c-1.269-.242-2.546-.532-3.818-.878a3.514,3.514,0,0,0-4.339,4.272c1.905,7.062,7.452,17.75,23.577,17.75h135.3c16.123,0,21.671-10.686,23.577-17.748a3.51,3.51,0,0,0-4.3-4.284C255.344,90.057,253.757,90.4,252.185,90.675Z" style="fill:#4c5768"/><polygon points="156.075 129.349 156.075 175.051 170 175.051 183.925 175.051 183.925 129.349 156.075 129.349" style="fill:#373d4c"/><path d="M243.493,175.051H96.507c-1.863,13.684-14.428,15.626-21.17,15.664a2.8,2.8,0,0,0-2.468,4.127c3.492,6.252,9.667,9,13.863,10.184a23.67,23.67,0,0,0,6.441.867H246.827a23.67,23.67,0,0,0,6.441-.867c4.2-1.185,10.371-3.932,13.863-10.184a2.8,2.8,0,0,0-2.468-4.127C257.921,190.677,245.356,188.735,243.493,175.051Z" style="fill:#4c5768"/><polygon points="156.075 224.087 156.075 266.075 170 266.075 183.925 266.075 183.925 224.087 156.075 224.087" style="fill:#373d4c"/><polygon points="170 304.461 105.299 304.461 105.299 315.543 170 315.543 234.701 315.543 234.701 304.461 170 304.461" style="fill:#c12140"/><polygon points="157.401 283.236 157.401 315.543 170 315.543 182.599 315.543 182.599 283.236 157.401 283.236" style="fill:#373d4c"/><path d="M199.854,279.668h15.253a1,1,0,0,1,1,1v9.792a8.629,8.629,0,0,1-8.629,8.629h0a8.629,8.629,0,0,1-8.629-8.629v-9.792a1,1,0,0,1,1-1Z" style="fill:#373d4c" transform="translate(414.962 578.76) rotate(-180)"/><path d="M292.791,321.935a12.013,12.013,0,0,0-10.618-6.392H57.827a12.013,12.013,0,0,0-10.618,6.392l-5.6,10.574H298.392Z" style="fill:#4c5768"/><path d="M259.816,231.984a4,4,0,0,0-4,4v3.974H202.851v-3.974a4,4,0,0,0-8,0v26.091h-49.7V235.984a4,4,0,0,0-8,0v3.974H84.183v-3.974a4,4,0,0,0-8,0v23.559a10.544,10.544,0,0,0,10.532,10.532h166.57a10.544,10.544,0,0,0,10.531-10.532V235.984A4,4,0,0,0,259.816,231.984ZM84.183,259.543V247.958h52.965v14.117H86.715A2.535,2.535,0,0,1,84.183,259.543Zm169.1,2.532H202.851V247.958h52.965v11.585A2.535,2.535,0,0,1,253.285,262.075Z" style="fill:#c12140"/><path d="M259.816,140.96a4,4,0,0,0-4,4v3.975H202.851V144.96a4,4,0,0,0-8,0v26.091h-49.7V144.96a4,4,0,0,0-8,0v3.975H84.183V144.96a4,4,0,0,0-8,0v23.56a10.544,10.544,0,0,0,10.532,10.531h166.57a10.543,10.543,0,0,0,10.531-10.531V144.96A4,4,0,0,0,259.816,140.96ZM84.183,168.52V156.935h52.965v14.116H86.715A2.535,2.535,0,0,1,84.183,168.52Zm169.1,2.531H202.851V156.935h52.965V168.52A2.535,2.535,0,0,1,253.285,171.051Z" style="fill:#c12140"/><rect height="10.727" style="fill:#c12140" width="129.402" x="105.299" y="111.658"/><rect height="11.367" style="fill:#c12140" width="129.402" x="105.299" y="205.893"/></svg>