<?xml version="1.0" ?><!DOCTYPE svg  PUBLIC '-//W3C//DTD SVG 1.0//EN'  'http://www.w3.org/TR/2001/REC-SVG-20010904/DTD/svg10.dtd'><svg width="256px" height="256px" viewBox="0 0 256 256" enable-background="new 0 0 256 256" id="Layer_1" version="1.0" xml:space="preserve" xmlns="http://www.w3.org/2000/svg" xmlns:xlink="http://www.w3.org/1999/xlink"><g><path d="M145.875,96.47l6.695,1.871c-0.838,1.328-1.365,2.689-1.365,4.125l4.055,1.137   c-0.723,2.07-2.998,5.029-2.998,5.029c-3.969,5.096,0.463,12.719,0.463,12.719L136.582,160.3l9.293,62.871   c0,0-0.354,0.619-0.99,1.457c0,0-7.688,1.59-14.342-1.676l4.242-8.219l3.334-36.363l-3.469-12.072l3.469-44.209   c0,0-2.141-0.764-5.443-4.596l0.111-1.404c0,0-0.908-0.32-2.451-1.598c-0.002-0.002-0.004-0.004-0.006-0.006   c-0.258-0.365-0.52-0.736-0.787-1.135c-5.025-7.49-5.512-11.037-5.512-11.037l2.047-2.514c-3.846-9.156-13.551-11.994-8.664-22.658   c3.492-7.619,9.639-6.887,22.525-6.887c7.656,0,14.408,1.988,18.816,4.611c1.168,6.928-7.975,11.871-11.516,17.477   C147.24,92.343,146.256,94.007,145.875,96.47z" fill="#066ACF"/><g><path d="M234.328,177.714c-1.283-2.082-2.705-4.373-4.227-6.822c-11.992-19.074-27.242-42.701-37.369-56.096    c-5.145,10.719-6.766,28.375-7.172,42.307c7.877,11.215,17.354,25.738,24.141,36.305c5.283,8.229,8.938,8.363,8.938,8.363    l16.846-11.842C235.484,189.929,238.914,185.146,234.328,177.714z" fill="#34DBAE"/><g><path d="M78.885,125.374c-14.287,17.586-31.877,41.627-43.193,57.369c-2.834,3.943-4.219,7.367-4.865,10.037     l10.445,6.732c0,0,4.857-0.096,11.682-8.92c8.602-11.121,20.332-26.053,29.404-36.729     C81.969,144.628,81.012,134.202,78.885,125.374z" fill="#34DBAE"/><path d="M178.172,102.728c-6.438-2.621-10.977-0.998-10.977-0.998c-0.07-6.029,6.828-4.889,11.328-6.523     c-0.197-0.186-0.393-0.363-0.578-0.52c-1.461-1.246-4.061-1.654-6.438-2.621c-6.438-2.623-10.979-0.998-10.979-0.998     c-0.111-9.553,17.277-1.098,14.891-14.219c-0.508-2.787-2.246-6.828-4.68-11.279c-6.158-8.789-13.436-16.748-18.23-18.043     c-4.689-1.27-14.186-1.967-20.252-1.035c-14.172,2.174-27.238,23.014-31.043,38.027c3.461,0.252,6.809,0.436,6.887,3.771     l-7.781,2.541c0.842,7.473,14.291,1.396,14.445,8.121l-16.445,5.373c-1.777,1.301-4.063,3.463-6.715,6.277     c1.65,7.143,2.59,17.225,1.695,31.393c1.855-1.639,2.918-2.094,2.869-0.922c-0.041,0.994-0.027,7.025,0.018,15.34     c4.115-4.395,6.723-6.498,6.646-4.676c-0.123,3.002,0.26,51.949,0.414,70.973c3.064,1.039,7.328,2.088,13.057,2.721l8.051-7.084     c0.029,0.033,0.059,0.061,0.088,0.09l5.01-9.703l3.334-36.361L129.32,160.3l0.129-1.658l-9.354-28.893l11.664-13.174     c0,0,0.367,0.631,0.871,1.508l0.156-1.994c0,0-3.549-1.242-8.576-8.734c-5.023-7.494-5.512-11.039-5.512-11.039l2.047-2.512     c-3.844-9.16-13.551-11.998-8.666-22.66c3.494-7.619,9.641-6.887,22.527-6.887c12.885,0,23.205,5.631,24.127,10.441     c1.662,8.662-12.859,14.219-12.859,21.771l10.533,2.947c0,0-0.18,4.115-4.146,9.215c-3.969,5.096,0.463,12.719,0.463,12.719     L136.582,160.3l9.293,62.871c0,0-0.354,0.619-0.99,1.457h1.006c16.564-0.301,26.68-7.941,26.68-7.941s-1.42-71.061-1.582-75.615     c-0.063-1.801,1.383-0.893,3.801,1.816c-1.41-20.756,1.084-32.9,4.049-39.91C178.617,102.897,178.391,102.815,178.172,102.728z" fill="#34DBAE"/></g></g><path d="M91.604,110.603c-3.107,3.291-6.727,7.479-10.643,12.232c2.721,7.629,4.17,17.482,4.912,26.953   c3.039-3.459,5.609-6.191,7.424-7.791C94.193,127.829,93.254,117.743,91.604,110.603z" fill="#FF9D00"/><path d="M184.613,105.349c-0.5-0.422-1.137-0.746-1.844-1.031c-3.408,6.348-6.836,18.592-5.371,41.701   c2.32,2.924,5.121,6.756,8.162,11.084c0.406-13.932,2.027-31.588,7.172-42.307C189.348,110.321,186.539,106.989,184.613,105.349z" fill="#FF9D00"/><g><path d="    M93.297,141.997c0.896-14.168-0.043-24.254-1.693-31.395" fill="none" stroke="#14346E" stroke-dasharray="7.9976,16.6616" stroke-linecap="round" stroke-linejoin="round" stroke-miterlimit="10" stroke-width="6"/><path d="    M185.561,157.103c0.406-13.932,2.027-31.588,7.172-42.307" fill="none" stroke="#14346E" stroke-dasharray="7.9976,16.6616" stroke-linecap="round" stroke-linejoin="round" stroke-miterlimit="10" stroke-width="6"/></g><path d="   M108.102,88.472c-0.17-7.275-15.898,0.439-14.396-10.223c2.105-14.977,16.334-39.854,31.891-42.238   c6.063-0.932,15.559-0.234,20.25,1.033c9.24,2.5,27.703,29.723,29.574,39.988c2.387,13.119-15.002,4.664-14.891,14.215" fill="none" stroke="#14346E" stroke-linecap="round" stroke-linejoin="round" stroke-miterlimit="10" stroke-width="6"/><path d="   M124.355,218.53l-8.051,7.082c-14.549-1.604-19.66-5.898-19.66-5.898s-0.629-74.729-0.475-78.459   c0.242-5.836-27.025,28.59-43.217,49.521c-6.824,8.822-11.682,8.92-11.682,8.92l-17.436-11.24c0,0-1.75-6.535,5.193-16.195   c17.766-24.719,51.014-69.906,62.625-78.418" fill="none" stroke="#14346E" stroke-linecap="round" stroke-linejoin="round" stroke-miterlimit="10" stroke-width="6"/><path d="   M120.764,93.694c-3.846-9.16-13.553-11.998-8.664-22.662c3.49-7.617,9.641-6.885,22.525-6.885c12.883,0,23.205,5.631,24.127,10.439   c1.66,8.666-12.861,14.219-12.861,21.771" fill="none" stroke="#14346E" stroke-linecap="round" stroke-linejoin="round" stroke-miterlimit="10" stroke-width="6"/><path d="   M156.424,99.308c0,0-0.18,4.113-4.146,9.213c-3.967,5.098,0.465,12.721,0.465,12.721l-16.145,38.949" fill="none" stroke="#14346E" stroke-linecap="round" stroke-linejoin="round" stroke-miterlimit="10" stroke-width="6"/><line fill="none" stroke="#14346E" stroke-linecap="round" stroke-linejoin="round" stroke-miterlimit="10" stroke-width="6" x1="132.801" x2="129.469" y1="172.261" y2="208.624"/><polyline fill="none" points="   113.432,106.093 125.457,122.817 119.012,130.214 129.338,160.19  " stroke="#14346E" stroke-linecap="round" stroke-linejoin="round" stroke-miterlimit="10" stroke-width="6"/><path d="   M118.717,96.206c0,0,0.486,3.543,5.512,11.037c5.023,7.492,8.572,8.736,8.572,8.736" fill="none" stroke="#14346E" stroke-linecap="round" stroke-linejoin="round" stroke-miterlimit="10" stroke-width="6"/><path d="   M145.891,224.81c16.564-0.301,26.68-7.941,26.68-7.941s-1.42-71.061-1.582-75.613c-0.26-7.387,24.842,30.736,38.713,52.336   c5.283,8.227,8.938,8.363,8.938,8.363l16.846-11.842c0,0,3.43-4.783-1.156-12.215c-14.688-23.803-46.699-74.791-56.383-83.029   c-1.461-1.244-3.93-2.072-6.438-2.621" fill="none" stroke="#14346E" stroke-linecap="round" stroke-linejoin="round" stroke-miterlimit="10" stroke-width="6"/><path d="M131.518,154.616c1.479-11.182,4.1-31.137,4.02-31.377c-0.025-0.076-0.244-0.477-0.557-1.035   l-10.217,11.543L131.518,154.616z" fill="#FF9D00"/><line fill="none" stroke="#14346E" stroke-dasharray="7.9976,16.6616" stroke-linecap="round" stroke-linejoin="round" stroke-miterlimit="10" stroke-width="6" x1="140.648" x2="144.67" y1="188.13" y2="215.353"/><g><g><path d="M107.211,176.337     c0,0,0.877,1.45,2.209,3.333" fill="none" stroke="#14346E" stroke-linecap="round" stroke-linejoin="round" stroke-width="6"/><path d="M115.197,186.352     c1.23,1.033,2.447,1.73,3.52,1.778" fill="none" stroke="#14346E" stroke-linecap="round" stroke-linejoin="round" stroke-width="6"/></g></g><g><g><path d="M164.637,176.337     c0,0-0.877,1.45-2.21,3.333" fill="none" stroke="#14346E" stroke-linecap="round" stroke-linejoin="round" stroke-width="6"/><path d="M156.646,186.354     c-1.229,1.032-2.443,1.728-3.515,1.775" fill="none" stroke="#14346E" stroke-linecap="round" stroke-linejoin="round" stroke-width="6"/></g></g></g></svg>