<?xml version="1.0" ?><!DOCTYPE svg  PUBLIC '-//W3C//DTD SVG 1.0//EN'  'http://www.w3.org/TR/2001/REC-SVG-20010904/DTD/svg10.dtd'><svg width="256px" height="256px" viewBox="0 0 256 256" enable-background="new 0 0 256 256" id="Layer_1" version="1.0" xml:space="preserve" xmlns="http://www.w3.org/2000/svg" xmlns:xlink="http://www.w3.org/1999/xlink"><g><path d="M173.152,155.369c-0.664-19.162,0.658-32.618,0.479-37.68c-0.014-0.405,0.049-0.676,0.174-0.831   c-1.766-14.595,0.061-29.426,1.887-39.243c-0.645-0.006-1.031,0.013-1.031,0.013h-8.797c-0.074-0.06-0.139-0.122-0.215-0.182l0,0   c2.256-1.782,3.555-3.848,3.555-6.052c0-2.364-1.486-4.565-4.049-6.43h-8.623c-0.074-0.06-0.137-0.122-0.213-0.182l0,0   c1.154-0.911,2.053-1.898,2.66-2.94c-4.492-1.6-10.137-2.555-16.273-2.555c-14.635,0-26.498,5.42-26.498,12.106   c0,2.204,1.297,4.27,3.553,6.052c-0.074,0.06-0.139,0.122-0.211,0.182h-7.65c0,0-3.859-0.917-9.168,2.116   c-1.707,0.975-5.451,4.999-8.701,8.698c0.969,8.627,1.418,18.785,0.299,28.563c0.34-0.03,0.514,0.184,0.494,0.685   c-0.113,2.756,0.656,9.151,1.219,18.787c4.969-5.43,8.197-8.202,8.111-6.125c-0.176,4.28,1.779,17.325,1.781,37.682   c0,14.754-1.832,26.035-2.326,32.576v4.58c0.08,0.49,0.203,0.885,0.379,1.179c0.758,1.274,3.789,3.133,8.951,4.878v0.639   c5.4,1.388,13.143,2.685,23.215,2.685c21.66,0,32.545-5.997,32.545-5.997v-9.971c4.807-2.06,7.211-4.348,7.934-5.895   C178.25,189.245,173.898,176.888,173.152,155.369z" fill="#34DBAE"/><g><path d="M245.568,171.818c0,0-7.393-10.454-7.83-18.054c-13.271-19.427-36.014-52.576-49.486-71.472    c-0.584-0.724-1.023-1.227-1.291-1.469c-1.547-1.4-3.746-2.193-5.859-2.642c-1.811,7.783-4.926,24.198-3.762,41.09    c2.875,3.146,7.172,8.922,12.018,15.837c6.4,7.987,16.551,23.007,25.467,36.617c4.828,4.604,11.002,13.897,11.002,13.897    L245.568,171.818z" fill="#069BEE"/><path d="M91.803,91.009c-2.045,2.386-3.529,4.194-3.529,4.194s-46.65,59.34-53.426,67.693    c-1.127,5.349-5.703,11.92-8.555,15.621l8.035,6.729c0,0,8.406-12.662,15.301-15.817c15.678-20.257,40.824-52.015,44.688-52.419    C94.229,107.192,93.027,97.874,91.803,91.009z" fill="#069BEE"/></g><path d="   M103.828,198.585v9.988c0,0,10.885,5.997,32.543,5.997c21.662,0,32.547-5.997,32.547-5.997v-9.971" fill="none" stroke="#14346E" stroke-linecap="round" stroke-linejoin="round" stroke-miterlimit="10" stroke-width="6"/><path d="   M102.787,64.965c0,0-3.857-0.917-9.168,2.116C90.287,68.985,79.164,82.54,79.164,82.54s-46.65,59.34-53.428,67.693   c-1.664,7.91-10.889,18.51-10.889,18.51l19.701,16.503c0,0,8.406-12.662,15.299-15.817c17.094-22.085,45.445-57.847,45.195-51.738   c-0.178,4.279,1.779,17.325,1.781,37.679c0.002,21.209-3.787,35.245-1.947,38.338c1.84,3.091,17.059,9.638,43.717,9.638   s36.641-7.176,38.258-10.637c1.617-3.463-2.732-15.82-3.48-37.339c-0.662-19.162,0.658-32.618,0.48-37.68   c-0.262-7.453,23.977,29.062,38.863,52.149c4.854,3.022,13.332,15.785,13.332,15.785l19.742-13.806c0,0-7.395-10.454-7.828-18.054   c-18.734-27.42-56.338-82.191-60.111-85.604c-3.984-3.607-12.299-3.196-12.299-3.196" fill="none" stroke="#14346E" stroke-linecap="round" stroke-linejoin="round" stroke-miterlimit="10" stroke-width="6"/><path d="   M110.65,64.783c-2.256,1.782-3.555,3.847-3.555,6.054c0,6.686,11.865,12.104,26.498,12.104c14.635,0,26.5-5.419,26.5-12.104   c0-2.207-1.301-4.271-3.555-6.054" fill="none" stroke="#14346E" stroke-linecap="round" stroke-linejoin="round" stroke-miterlimit="10" stroke-width="6"/><ellipse cx="133.595" cy="58.73" fill="none" rx="26.499" ry="12.106" stroke="#14346E" stroke-linecap="round" stroke-linejoin="round" stroke-miterlimit="10" stroke-width="6"/><path d="   M106.518,181.804" fill="none" stroke="#14346E" stroke-linecap="round" stroke-linejoin="round" stroke-miterlimit="10" stroke-width="6"/><path d="   M147.879,106.802c0,0-0.186,64.604,3.334,80.05" fill="none" stroke="#14346E" stroke-dasharray="7.9976,16.6616" stroke-linecap="round" stroke-linejoin="round" stroke-miterlimit="10" stroke-width="6"/><path d="   M119.221,103.369c0,0,3.01,69.94-2.664,83.482" fill="none" stroke="#14346E" stroke-dasharray="7.9976,16.6616" stroke-linecap="round" stroke-linejoin="round" stroke-miterlimit="10" stroke-width="6"/><g><path d="    M177.631,68.331c0,0-8.236,23.484-4,49.526" fill="none" stroke="#14346E" stroke-dasharray="7.9976,16.6616" stroke-linecap="round" stroke-linejoin="round" stroke-miterlimit="10" stroke-width="6"/><path d="    M245.568,171.987" fill="none" stroke="#14346E" stroke-dasharray="7.9976,16.6616" stroke-linecap="round" stroke-linejoin="round" stroke-miterlimit="10" stroke-width="6"/><path d="    M94.549,117.193c3.486-22.5-2.234-42.952-3.746-47.786" fill="none" stroke="#14346E" stroke-dasharray="7.9976,16.6616" stroke-linecap="round" stroke-linejoin="round" stroke-miterlimit="10" stroke-width="6"/></g><path d="   M231.41,156.617c0,0-6.73,0.624-9.842,5.142" fill="none" stroke="#14346E" stroke-dasharray="7.9976,16.6616" stroke-linecap="round" stroke-linejoin="round" stroke-miterlimit="10" stroke-width="6"/><path d="   M32.984,154.584c0,0,6.391,2.202,8.342,7.329" fill="none" stroke="#14346E" stroke-dasharray="7.9976,16.6616" stroke-linecap="round" stroke-linejoin="round" stroke-miterlimit="10" stroke-width="6"/></g></svg>