<?xml version="1.0" ?><!DOCTYPE svg  PUBLIC '-//W3C//DTD SVG 1.0//EN'  'http://www.w3.org/TR/2001/REC-SVG-20010904/DTD/svg10.dtd'><svg width="256px" height="256px" viewBox="0 0 256 256" enable-background="new 0 0 256 256" id="Layer_1" version="1.0" xml:space="preserve" xmlns="http://www.w3.org/2000/svg" xmlns:xlink="http://www.w3.org/1999/xlink"><g><g><path d="M174.092,122.899l-2.863-1.473c0,0-7.799-3.814-13.424-2.246c-11.43,3.188-29.303,8.912-38.678,15.328    c-8.721,5.965-12.352,15.006-13.85,20.143l18.818,9.027c0,0-5.598-22.498,26.99-33.348    C161.047,127.015,168.241,123.979,174.092,122.899z" fill="#34AEDB"/><path d="M60.44,80.255c-20.982-7.172-26.297,2.598-26.297,2.598c-0.443,0.986-0.764,1.959-0.982,2.908    c-0.02,0.547,0.023,1.141,0.107,1.771c0.076,0.182,0.145,0.359,0.225,0.543c4.129-9.637,17.648-11.273,34.361,0.611    c14.031,9.979,16.904,16.289,16.904,16.289s2.008,3.152,1.494,5.773c0.365,0.584,0.506,0.891,0.506,0.891s0.633,0.996,1.1,2.332    l20.807,2.248C97.831,105.435,76.559,85.767,60.44,80.255z" fill="#066ACF"/><path d="M41.782,125.079c-0.721,0.627-1.404,1.277-2.166,1.982c-3.371,3.119-4.195,6.793-2.535,9.947    c1.125,0.684,2.441,1.285,3.955,1.779c0,0,0.158,0.055,0.451,0.16c0.809-0.961,2.41-3.104,2.248-4.871    C43.735,134.077,43.743,130.376,41.782,125.079z" fill="#FFCF59"/><g><path d="M61.625,119.462c-2.496,0.631-4.621,1.219-6.459,1.777c5.734,8.111,10.564,14.199,10.564,14.199     s5.166,6.658,7.586,14.818c2.934,1.049,5.963,2.133,9.074,3.246c14.912,5.346,31.367,11.275,44.82,15.111l-18.24-8.75     c0.084-0.25,0.287-1.389,0.746-3.082l-6.076-2.918c0.322-0.973,2.482-15.582,14.82-24.02c1.764-1.207,3.83-2.387,6.094-3.531     C100.932,121.739,77.368,115.478,61.625,119.462z" fill="#FFCF59"/><path d="M220.28,152.665c0.096-1.059,0.082-2.08-0.17-3.086c-2.609-1.59-6.369-3.256-11.754-5.084     c-3.342-1.135-8.713-2.705-18.242-5.264l-26.787-5.289c-2.15,0.762-4.441,1.564-6.91,2.387     c-29.82,9.93-27.664,29.609-27.082,32.879c6.26,1.719,11.781,2.93,16.07,3.338C172.645,175.14,219.145,165.327,220.28,152.665z" fill="#FFCF59"/></g><path d="M61.065,138.103c0,0-34.127-42.99-28.65-52.773c-0.004-0.008-0.008-0.016-0.01-0.025    c-0.979,1.518-1.385,3.852-1.447,6.475c0.656,4.369,1.568,7.975,1.664,8.385c1.107,4.729,5.355,15.59,8.684,23.688    c2.443,5.945,2.43,10.227,2.43,10.227c0.064,0.709-0.156,1.416-0.494,2.063c0.422,1.441,0.693,2.711,0.863,3.736    c5.186,1.838,15.813,5.609,22.951,8.148C64.479,142.198,61.065,138.103,61.065,138.103z" fill="#34AEDB"/><path d="M145.405,175.878c-13.756-1.311-40.191-10.861-63.014-19.041c-4.674-1.676-9.191-3.291-13.422-4.801    l-27.482-9.758c-0.293-0.104-0.451-0.158-0.451-0.158c-5.777-1.889-8.729-5.984-8.785-9.613l-0.094,0.602l0.029,9.094    c-0.006,0.063-0.006,0.123-0.01,0.186l0.004,1.221c0.326,3.412,3.229,6.488,8.855,8.328l30.51,10.34l3.74-3.689    c0,0,54.078,20.178,70.119,22.236c32.871,4.221,73.74-6.244,74.875-18.906v-5.92C219.145,168.659,172.645,178.472,145.405,175.878    z" fill="#FF9D00"/></g><path d="   M56.293,113.056c21.484-4.01,41.678,2.93,66.465,7.523" fill="none" stroke="#14346E" stroke-dasharray="7.9976,16.6616" stroke-linecap="round" stroke-linejoin="round" stroke-miterlimit="10" stroke-width="6"/><path d="   M184.782,132.827c9.531,2.559,14.9,4.129,18.242,5.264c15.918,5.404,17.688,9.395,17.256,14.168   c-1.135,12.66-47.635,22.475-74.875,19.881c-13.756-1.309-40.191-10.861-63.014-19.043c-22.422-8.035-41.355-14.717-41.355-14.717   c-9.428-3.08-10.873-9.807-5.42-15.723" fill="none" stroke="#14346E" stroke-linecap="round" stroke-linejoin="round" stroke-miterlimit="10" stroke-width="6"/><path d="   M220.28,161.511c-1.135,12.66-42.004,23.125-74.875,18.906c-16.041-2.059-70.119-22.238-70.119-22.238l-3.74,3.691l-30.51-10.342   c-6.393-2.088-9.271-5.775-8.85-9.734l-0.041-12.355" fill="none" stroke="#14346E" stroke-linecap="round" stroke-linejoin="round" stroke-miterlimit="10" stroke-width="6"/><path d="   M124.096,163.272c0,0-5.598-22.498,26.99-33.35c17.477-5.818,26.453-10.783,34.553-5.809c6.836,4.199,13.006,10.881,13.006,10.881" fill="none" stroke="#14346E" stroke-linecap="round" stroke-linejoin="round" stroke-miterlimit="10" stroke-width="6"/><path d="   M103.641,153.458c0.322-0.975,2.482-15.582,14.82-24.02c9.377-6.416,27.248-12.143,38.678-15.33   c5.623-1.568,13.426,2.246,13.426,2.246" fill="none" stroke="#14346E" stroke-linecap="round" stroke-linejoin="round" stroke-miterlimit="10" stroke-width="6"/><path d="   M43.735,133.671c0,0,0.014-4.283-2.43-10.229c-3.328-8.096-6.99-15.652-8.592-23.314c-4.059-19.41,12.635-27.795,35.061-11.848   c14.029,9.977,16.904,16.289,16.904,16.289" fill="none" stroke="#14346E" stroke-linecap="round" stroke-linejoin="round" stroke-miterlimit="10" stroke-width="6"/><path d="   M60.399,129.032c0,0-35.313-44.486-28.334-53.25c-4.221,5.117,0.648,24.346,0.648,24.346" fill="none" stroke="#14346E" stroke-linecap="round" stroke-linejoin="round" stroke-miterlimit="10" stroke-width="6"/><path d="   M32.065,75.782c0,0,5.311-9.771,26.295-2.598c22.559,7.715,55.221,43.17,55.221,43.17" fill="none" stroke="#14346E" stroke-linecap="round" stroke-linejoin="round" stroke-miterlimit="10" stroke-width="6"/></g></svg>