<?xml version="1.0" ?><!DOCTYPE svg  PUBLIC '-//W3C//DTD SVG 1.0//EN'  'http://www.w3.org/TR/2001/REC-SVG-20010904/DTD/svg10.dtd'><svg width="256px" height="256px" viewBox="0 0 256 256" enable-background="new 0 0 256 256" id="Layer_1" version="1.0" xml:space="preserve" xmlns="http://www.w3.org/2000/svg" xmlns:xlink="http://www.w3.org/1999/xlink"><g><path d="M225.541,94.475c-8.361,0.944-28.102,3.657-42.582,9.448c-18.842,7.537-25.795,16.461-25.795,16.461   l-8.803,4.608c-5.139,1.71-9.25-0.282-13.018-0.313c-3.77-0.033-10.619-1.17-10.619,2.054c0,0-4.773-7.219-7.932-9.167   c-39.016-24.06-66.895-23.502-66.895-23.502s-7.322-2.769-8.414,7.462c-0.51,4.78-3.768,29.458-2.738,41.697   c0.643,7.691,3.723,24.16,5.922,35.346c8.463-0.272,26.32-1.583,43.609-7.53c20.037-6.896,25.621-18.12,25.621-18.12   c2.613-3.671,9.488-6.029,9.488-6.029c2.744-1.886,3.77,0.567,6.166,0.711c2.4,0.145,7.537-0.711,9.936-0.711   s5.822,2.226,6.338,2.054l6.775,2.222c0,0,10.352,9.598,24.396,15.42c14.043,5.821,31.172,8.564,35.967,11.445   c4.795,2.88,11.646-5.279,11.307-10.761c-0.344-5.48,6.506-27.404,7.191-39.734C231.881,120.022,228.357,105.038,225.541,94.475z    M98.592,135.908c0,0-5.646,1.737-16.438,6.875c-10.791,5.137-40.244,5.138-40.758-11.555s27.688-15.644,31.041-14.907   c7.877,1.725,8.877,4.392,13.148,6.168c4.273,1.772,23.752,8.025,23.752,8.025L98.592,135.908z M208.135,131.992   c-2.057,18.755-16.445,18.432-24.15,16.797c-7.707-1.639-11.818-10.373-18.498-11.144c0,0-8.109-2.438-13.873-7.131   c0,0,7.449,1.992,23.379-10.082c0,0,10.572-8.803,16.957-7.47C191.949,112.963,210.189,113.238,208.135,131.992z" fill="#066ACF"/><path d="M195.281,116.962c-6.383-1.334-16.957,7.469-16.957,7.469c-10.158,7.699-16.863,9.678-20.391,10.103   c4.043,2.058,7.553,3.112,7.553,3.112c6.68,0.771,10.791,9.505,18.498,11.144c7.705,1.635,22.094,1.958,24.15-16.797   c0.521-4.768-0.271-8.336-1.74-11.015C201.613,117.062,195.281,116.962,195.281,116.962z" fill="#34AEDB"/><path d="M82.154,142.783c10.791-5.138,16.438-6.875,16.438-6.875l6.676-3.351   c-5.891-1.933-13.25-4.396-15.684-5.404c-4.271-1.775-5.27-4.441-13.146-6.166c-3.355-0.736-30.223-1.786-29.709,14.906   c0.057,1.87-0.852,3.53-0.135,4.998C55.648,147.589,74.098,146.619,82.154,142.783z" fill="#34AEDB"/><path d="   M42.443,82.57c0,0,28.113-0.932,66.895,23.501" fill="none" stroke="#14346E" stroke-linecap="round" stroke-linejoin="round" stroke-miterlimit="10" stroke-width="6"/><path d="   M149.709,108.888c0,0,6.955-8.923,25.797-16.46c18.84-7.536,46.588-9.857,46.588-9.857s9.934,32.467,9.248,44.798   c-0.686,12.333-7.535,34.256-7.193,39.736s-6.508,13.641-11.305,10.76c-4.797-2.88-21.922-5.621-35.967-11.445   C162.832,160.596,152.48,151,152.48,151" fill="none" stroke="#14346E" stroke-linecap="round" stroke-linejoin="round" stroke-miterlimit="10" stroke-width="6"/><path d="   M113.777,152.753c0,0-5.582,11.227-25.621,18.119c-23.773,8.18-48.645,7.591-48.645,7.591s-7.193-34.494-8.221-46.734   c-1.029-12.239,2.4-36.903,2.742-41.697" fill="none" stroke="#14346E" stroke-linecap="round" stroke-linejoin="round" stroke-miterlimit="10" stroke-width="6"/><path d="   M117.271,141.413c0.857,5.311,3.256,7.193,5.994,5.311c2.74-1.885,3.768,0.566,6.166,0.711s7.537-0.711,9.936-0.711   c2.396,0,5.822,2.226,6.336,2.055c0.516-0.173-0.855-21.066-0.855-26.204c0-5.14,1.199-10.791-3.939-9.078   c-5.137,1.712-9.25-0.283-13.018-0.313c-3.768-0.031-10.619-1.169-10.619,2.056C117.271,118.462,116.418,136.104,117.271,141.413z" fill="none" stroke="#14346E" stroke-linecap="round" stroke-linejoin="round" stroke-miterlimit="10" stroke-width="6"/><path d="   M151.613,130.515c0,0,7.449,1.992,23.379-10.082" fill="none" stroke="#14346E" stroke-linecap="round" stroke-linejoin="round" stroke-miterlimit="10" stroke-width="6"/><g><g><path d="M191.949,112.963     c0,0,1.673,0.025,3.949,0.582" fill="none" stroke="#14346E" stroke-linecap="round" stroke-linejoin="round" stroke-width="6"/><path d="     M208.17,126.805c0.172,1.549,0.174,3.271-0.036,5.188c-2.057,18.755-16.445,18.432-24.15,16.797     c-2.761-0.587-5.06-2.084-7.181-3.8" fill="none" stroke="#14346E" stroke-dasharray="9.3011,19.3772" stroke-linecap="round" stroke-linejoin="round" stroke-width="6"/><path d="M169.238,138.944     c-1.181-0.671-2.415-1.145-3.751-1.299" fill="none" stroke="#14346E" stroke-linecap="round" stroke-linejoin="round" stroke-width="6"/></g></g><path d="   M109.338,130.515c0,0-15.789-4.429-23.752-8.025" fill="none" stroke="#14346E" stroke-linecap="round" stroke-linejoin="round" stroke-miterlimit="10" stroke-width="6"/><path d="   M72.438,116.321c0,0-31.555-1.785-31.041,14.907s29.967,16.691,40.758,11.555c10.791-5.138,16.438-6.875,16.438-6.875" fill="none" stroke="#14346E" stroke-dasharray="7.9976,16.6616" stroke-linecap="round" stroke-linejoin="round" stroke-miterlimit="10" stroke-width="6"/></g></svg>