<?xml version="1.0" ?><!DOCTYPE svg  PUBLIC '-//W3C//DTD SVG 1.0//EN'  'http://www.w3.org/TR/2001/REC-SVG-20010904/DTD/svg10.dtd'><svg width="256px" height="256px" viewBox="0 0 256 256" enable-background="new 0 0 256 256" id="Layer_1" version="1.0" xml:space="preserve" xmlns="http://www.w3.org/2000/svg" xmlns:xlink="http://www.w3.org/1999/xlink"><g><path d="M181.076,70.438c-4.24-2.057-10.127-1.766-10.127-1.766l-1.459-7.108c-0.064-0.163-0.139-0.327-0.213-0.487   c-3.02-0.531-5.66-0.401-5.66-0.401l-1.158-5.652c-4.428-2.22-10.676-3.792-18.334-4.224c7.219,2.057,11.924,6.016,13.232,10.098   c0,0,3.242,10.137-4.617,18.687c-4.604,5.01-9.697,6.374-9.697,6.374l-6.816,48.053l-4.063,5.627l-3.588-5.627l0.832-48.72   c0,0-4.514,0.584-11.289-6.081c-5.736-5.644-7.072-7.698-7.371-12.545l-1.896,4.006c0,0-3.859-0.916-9.166,2.117   c-3.334,1.904-14.459,15.459-14.459,15.459l-66.361,81.241l16.416,12.135c0,0,58.188-76.961,57.828-68.224   c-0.078,1.865-0.219,6.92-0.396,13.707c4.748-5.152,9.146-7.732,9.063-5.709c-0.307,7.333-2.957,63.846-3.373,81.85   c4.633,1.335,11.148,2.872,18.762,3.712l8.479-7.46l21.174,7.281c17.447-0.318,30.102-8.365,30.102-8.365   s-4.621-74.27-4.998-85.017c-0.098-2.792,3.246,0.596,8.246,7.13c5.232,2.33,31.613,43.034,43.48,61.646l22.875-17.313   C246.521,164.86,197.691,93.041,181.076,70.438z" fill="#066ACF"/><path d="M157.357,60.896c-0.145-0.445-0.33-0.878-0.553-1.304c-4.283-2.622-10.852-4.25-19.096-4.25   c-13.424,0-22.504,2.637-22.977,10.22c-0.258,4.172,0.902,9.886,5.65,15.682c5.498,4.498,9.025,4.046,9.025,4.046l0.807,2.556   c2.967,1.449,2.525,2.109,2.525,2.109l-0.156,48.843l3.643-4.788l6.816-48.053c0,0,5.094-1.364,9.697-6.374   C160.6,71.033,157.357,60.896,157.357,60.896z" fill="#00CFDB"/><path d="   M108.545,60.41c2.223-6.792,10.885-10.219,24.311-10.219s22.422,4.316,24.311,10.219" fill="none" stroke="#14346E" stroke-linecap="round" stroke-linejoin="round" stroke-miterlimit="10" stroke-width="6"/><path d="   M103.211,53.746c2.715-6.792,13.273-10.886,29.645-10.886c16.369,0,27.34,4.982,29.643,10.886" fill="none" stroke="#14346E" stroke-linecap="round" stroke-linejoin="round" stroke-miterlimit="10" stroke-width="6"/><path d="   M147.156,206.098c17.449-0.317,30.102-8.367,30.102-8.367s-4.619-74.269-4.998-85.016c-0.379-10.746,50.193,69.938,50.193,69.938   l24.408-18.473c0,0-65.563-96.428-70.604-100.991c-3.986-3.607-12.301-3.196-12.301-3.196" fill="none" stroke="#14346E" stroke-linecap="round" stroke-linejoin="round" stroke-miterlimit="10" stroke-width="6"/><path d="   M125.98,199.679l-8.479,7.461c-15.328-1.69-26.219-6.212-26.219-6.212s1.803-78.609,2.166-87.348   c0.359-8.738-57.83,68.222-57.83,68.222l-25.031-18.503L77.57,78.43c0,0,11.125-13.555,14.457-15.46   c5.307-3.033,9.168-2.114,9.168-2.114" fill="none" stroke="#14346E" stroke-linecap="round" stroke-linejoin="round" stroke-miterlimit="10" stroke-width="6"/><path d="M140.146,126.672l15.676-26.127l-4.68-8.492l10.439-1.98l-3.021-13.396   c-0.639,1.61-1.666,3.595-3.344,5.753c-4.178,5.369-9.699,6.374-9.699,6.374L140.146,126.672z" fill="#FFFFFF"/><path d="   M156.918,69.393c0,0-0.189,4.334-4.367,9.705c-4.178,5.369-9.697,6.373-9.697,6.373l-6.818,48.053l19.787-32.979l-4.68-8.492   l10.439-1.98" fill="none" stroke="#14346E" stroke-linecap="round" stroke-linejoin="round" stroke-miterlimit="10" stroke-width="6"/><line fill="none" stroke="#14346E" stroke-linecap="round" stroke-linejoin="round" stroke-miterlimit="10" stroke-width="6" x1="132.037" x2="132.037" y1="146.24" y2="189.244"/><polyline fill="none" points="   109.154,82.741 123.596,92.053 118.916,100.545 128.387,133.523  " stroke="#14346E" stroke-linecap="round" stroke-linejoin="round" stroke-miterlimit="10" stroke-width="6"/><path d="   M111.82,67.393c0,0-0.668,4.666,6.109,11.331c6.775,6.663,11.289,6.081,11.289,6.081" fill="none" stroke="#14346E" stroke-linecap="round" stroke-linejoin="round" stroke-miterlimit="10" stroke-width="6"/><path d="   M166.65,153.822c0,0-12.021,10.225-17.84,10.891l2.055,15.217" fill="none" stroke="#14346E" stroke-dasharray="7.9976,16.6616" stroke-linecap="round" stroke-linejoin="round" stroke-miterlimit="10" stroke-width="6"/><path d="   M98.52,153.822c0,0,12.02,10.225,17.84,10.891l-2.057,15.217" fill="none" stroke="#14346E" stroke-dasharray="7.9976,16.6616" stroke-linecap="round" stroke-linejoin="round" stroke-miterlimit="10" stroke-width="6"/></g></svg>