<?xml version="1.0" ?><svg width="64px" height="64px" viewBox="0 0 64 64" xmlns="http://www.w3.org/2000/svg"><g id="Flat"><g id="Color"><polygon fill="#111315" points="20 20 32 32 39 3 24 3 20 20"/><polygon fill="#a60416" points="34.89 3 28.68 28.68 23.33 23.33 28.11 3 34.89 3"/><polygon fill="#212529" points="44 20 32 32 25 3 40 3 44 20"/><polygon fill="#dd051d" points="40.67 23.33 35.32 28.68 29.11 3 35.89 3 40.67 23.33"/><circle cx="32" cy="45.5" fill="#fccd1d" r="15.5"/><circle cx="32" cy="45.5" fill="#f9a215" r="11.39"/><path d="M33.1,39.43l1.21,2.11a1.26,1.26,0,0,0,.85.6l2.43.48a1.22,1.22,0,0,1,.67,2l-1.67,1.78a1.22,1.22,0,0,0-.33,1l.29,2.4a1.26,1.26,0,0,1-1.78,1.27l-2.24-1a1.3,1.3,0,0,0-1.06,0l-2.24,1a1.26,1.26,0,0,1-1.78-1.27l.29-2.4a1.22,1.22,0,0,0-.33-1l-1.67-1.78a1.22,1.22,0,0,1,.67-2l2.43-.48a1.26,1.26,0,0,0,.85-.6l1.21-2.11A1.28,1.28,0,0,1,33.1,39.43Z" fill="#fccd1d"/></g></g></svg>