<?xml version="1.0" ?><svg width="64px" height="64px" viewBox="0 0 64 64" xmlns="http://www.w3.org/2000/svg"><g id="Flat"><g id="Color"><polygon fill="#a60416" points="45 28 27 28 27 56 36 50 45 56 45 28"/><polygon fill="#a60416" points="19 28 37 28 37 56 28 50 19 56 19 28"/><polygon fill="#212529" points="41 33 23 33 23 61 32 55 41 61 41 33"/><path d="M23,42.82a11.22,11.22,0,0,1,2.65.23c2,.87,3.68,3,6.35,3s4.35-2.08,6.35-3A11.22,11.22,0,0,1,41,42.82V33H23Z" fill="#111315"/><polygon fill="#dd051d" points="37 33 37 58.33 32 55 27 58.33 27 33 37 33"/><path d="M27,43.81c3.65,2.88,6.36,2.88,10,0V33H27Z" fill="#a60416"/><path d="M50.55,23.5c0-2.11,1.57-4.44,1-6.34S48.2,14.24,47,12.6s-1.3-4.48-3-5.69-4.35-.42-6.32-1S34.11,3,32,3s-3.83,2.24-5.73,2.86-4.68-.14-6.32,1-1.75,4-3,5.69-3.85,2.59-4.49,4.56.95,4.23.95,6.34-1.57,4.44-.95,6.34S15.8,32.76,17,34.4s1.3,4.48,3,5.69,4.35.42,6.32,1S29.89,44,32,44s3.83-2.24,5.73-2.86,4.68.14,6.32-1,1.75-4,3-5.69,3.85-2.59,4.49-4.56S50.55,25.61,50.55,23.5Z" fill="#fccd1d"/><circle cx="32" cy="23.5" fill="#f9a215" r="14.5"/><path d="M33.37,16l1.52,2.63a1.54,1.54,0,0,0,1.06.76L39,20a1.53,1.53,0,0,1,.85,2.56l-2.1,2.22a1.5,1.5,0,0,0-.4,1.22l.36,3a1.57,1.57,0,0,1-2.22,1.58l-2.81-1.27a1.6,1.6,0,0,0-1.32,0l-2.81,1.27A1.57,1.57,0,0,1,26.31,29l.36-3a1.5,1.5,0,0,0-.4-1.22l-2.1-2.22A1.53,1.53,0,0,1,25,20l3-.59a1.54,1.54,0,0,0,1.06-.76L30.63,16A1.59,1.59,0,0,1,33.37,16Z" fill="#fccd1d"/></g></g></svg>