<?xml version="1.0" ?><svg width="64px" height="64px" viewBox="0 0 64 64" xmlns="http://www.w3.org/2000/svg"><g id="Flat"><g id="Color"><polygon fill="#212529" points="39 33 25 33 25 61 32 55 39 61 39 33"/><path d="M25,42.81a21.4,21.4,0,0,0,14,0V33H25Z" fill="#111315"/><polygon fill="#dd051d" points="35 33 35 57.57 32 55 29 57.57 29 33 35 33"/><path d="M29,43.77a20.11,20.11,0,0,0,6,0V33H29Z" fill="#a60416"/><circle cx="32" cy="22.5" fill="#fccd1d" r="19.5"/><circle cx="32" cy="22.5" fill="#f9a215" r="14.5"/><path d="M33.37,15l1.52,2.63a1.54,1.54,0,0,0,1.06.76L39,19a1.53,1.53,0,0,1,.85,2.56l-2.1,2.22a1.5,1.5,0,0,0-.4,1.22l.36,3a1.57,1.57,0,0,1-2.22,1.58l-2.81-1.27a1.6,1.6,0,0,0-1.32,0l-2.81,1.27A1.57,1.57,0,0,1,26.31,28l.36-3a1.5,1.5,0,0,0-.4-1.22l-2.1-2.22A1.53,1.53,0,0,1,25,19l3-.59a1.54,1.54,0,0,0,1.06-.76L30.63,15A1.59,1.59,0,0,1,33.37,15Z" fill="#fccd1d"/></g></g></svg>