<?xml version="1.0" ?><svg width="64px" height="64px" viewBox="0 0 64 64" xmlns="http://www.w3.org/2000/svg"><g id="Flat"><g id="Color"><polygon fill="#a60416" points="21.08 13 42.92 13 48.62 3 15.38 3 21.08 13"/><polygon fill="#111315" points="45.77 8 42.92 13 21.08 13 18.23 8 45.77 8"/><path d="M36.12,39.38,27.36,44.5,9,13,15.38,3Z" fill="#dd051d"/><path d="M31.8,41.9l-4.44,2.6L9,13l3.11-4.87Z" fill="#212529"/><path d="M55,13,36.64,44.5l-8.76-5.12L48.62,3Z" fill="#dd051d"/><path d="M36.64,44.5l8-13.72c-.93-2.33-3.52-3.1-5.67-3a6.48,6.48,0,0,1-1.65-.15,13.81,13.81,0,0,1-2-1.27l-7.42,13Z" fill="#a60416"/><path d="M27.36,44.5l8.76-5.12-7.42-13a13.81,13.81,0,0,1-2,1.27,6.48,6.48,0,0,1-1.65.15c-2.15-.11-4.74.67-5.67,3Z" fill="#a60416"/><path d="M27.36,44.5l4.44-2.6-8.18-14a5,5,0,0,0-4.26,2.91Z" fill="#111315"/><polygon fill="#212529" points="55 13 36.64 44.5 32.21 41.91 51.89 8.13 55 13"/><path d="M36.64,44.5l8-13.72a5,5,0,0,0-4.25-2.91l-8.18,14Z" fill="#111315"/><path d="M47.2,44c0-1.73,1.29-3.64.78-5.19s-2.7-2.4-3.68-3.74-1.07-3.67-2.42-4.66-3.57-.35-5.18-.87-3-2.34-4.7-2.34S28.86,29,27.3,29.54s-3.83-.11-5.18.87-1.43,3.3-2.42,4.66S16.54,37.19,16,38.81s.78,3.46.78,5.19-1.29,3.64-.78,5.19,2.7,2.4,3.68,3.74,1.07,3.67,2.42,4.66,3.57.35,5.18.87,3,2.34,4.7,2.34,3.14-1.83,4.7-2.34,3.83.11,5.18-.87,1.43-3.3,2.42-4.66,3.16-2.12,3.68-3.74S47.2,45.73,47.2,44Z" fill="#fccd1d"/><circle cx="32" cy="44.09" fill="#f9a215" r="11.45"/><path d="M33.1,38l1.21,2.11a1.26,1.26,0,0,0,.85.6l2.43.48a1.22,1.22,0,0,1,.67,2L36.59,45a1.22,1.22,0,0,0-.33,1l.29,2.4a1.26,1.26,0,0,1-1.78,1.27l-2.24-1a1.3,1.3,0,0,0-1.06,0l-2.24,1a1.26,1.26,0,0,1-1.78-1.27l.29-2.4a1.22,1.22,0,0,0-.33-1l-1.67-1.78a1.22,1.22,0,0,1,.67-2l2.43-.48a1.26,1.26,0,0,0,.85-.6L30.9,38A1.28,1.28,0,0,1,33.1,38Z" fill="#fccd1d"/></g></g></svg>