<?xml version="1.0" ?><svg width="340px" height="340px" viewBox="0 0 340 340" id="icons" xmlns="http://www.w3.org/2000/svg"><title/><path d="M10,235.307H260.237s52.873-1.326,55.731-31.387c0,0,2.3-24.939-39.536-30.06,0,0-3.36-.305-8.866-1.333,0,0-31.018,0-56.922-21.74-8.534-7.161-19.686-10.306-30.827-10.306l-4-1.393H10Z" style="fill:#f0f2ff"/><rect height="19.539" style="fill:#4c5768" width="320" x="10" y="250.243"/><path d="M210.787,149.268a52.878,52.878,0,0,0-30.954-10.18h-4.016v19.676a13.761,13.761,0,0,0,13.761,13.761h77.988C255.008,170.183,231.28,164.084,210.787,149.268Z" style="fill:#4c5768"/><path d="M315.9,201.567c-15.6,10.969-45.024,9.715-45.024,9.715H10v24.025H260.237s52.873-1.327,55.731-31.387A13.7,13.7,0,0,0,315.9,201.567Z" style="fill:#608ed8"/><rect height="48.5" style="fill:#4c5768" width="22" x="92.288" y="162.782"/><rect height="22" style="fill:#4c5768" width="22" x="50.833" y="162.782"/><rect height="22" style="fill:#4c5768" width="22" x="10" y="162.782"/><rect height="22" style="fill:#4c5768" width="22" x="133.742" y="162.782"/><path d="M330,78.218H193.667a4,4,0,0,1,0-8H330a4,4,0,0,1,0,8Z" style="fill:#c9dae2"/><path d="M164.768,78.218h-1a4,4,0,0,1,0-8h1a4,4,0,0,1,0,8Z" style="fill:#c9dae2"/><path d="M137.169,78.218H114.886a4,4,0,0,1,0-8h22.283a4,4,0,0,1,0,8Z" style="fill:#c9dae2"/><path d="M91.748,78.218H10a4,4,0,0,1,0-8H91.748a4,4,0,0,1,0,8Z" style="fill:#c9dae2"/><path d="M307.99,97.651H232.326a4,4,0,0,1,0-8H307.99a4,4,0,0,1,0,8Z" style="fill:#c9dae2"/><path d="M208.161,97.651h-6.289a4,4,0,0,1,0-8h6.289a4,4,0,0,1,0,8Z" style="fill:#c9dae2"/><path d="M175.817,97.651H32.99a4,4,0,0,1,0-8H175.817a4,4,0,0,1,0,8Z" style="fill:#c9dae2"/><path d="M330,120.369H307.471a4,4,0,0,1,0-8H330a4,4,0,0,1,0,8Z" style="fill:#c9dae2"/><path d="M280.657,120.369H140.631a4,4,0,0,1,0-8H280.657a4,4,0,0,1,0,8Z" style="fill:#c9dae2"/><path d="M116.8,120.369h-2.318a4,4,0,0,1,0-8H116.8a4,4,0,0,1,0,8Z" style="fill:#c9dae2"/><path d="M88.328,120.369H10a4,4,0,0,1,0-8H88.328a4,4,0,0,1,0,8Z" style="fill:#c9dae2"/></svg>