<?xml version="1.0" ?><svg width="64px" height="64px" viewBox="0 0 64 64" xmlns="http://www.w3.org/2000/svg"><g id="Flat"><g id="Color"><path d="M50.55,27.5c0-2.11,1.57-4.44,1-6.34S48.2,18.24,47,16.6s-1.3-4.48-3-5.69-4.35-.42-6.32-1.05S34.11,7,32,7s-3.83,2.24-5.73,2.86S21.59,9.72,20,10.91s-1.75,4-3,5.69-3.85,2.59-4.49,4.56.95,4.23.95,6.34-1.57,4.44-.95,6.34S15.8,36.76,17,38.4s1.3,4.48,3,5.69,4.35.42,6.32,1S29.89,48,32,48s3.83-2.24,5.73-2.86,4.68.14,6.32-1,1.75-4,3-5.69,3.85-2.59,4.49-4.56S50.55,29.61,50.55,27.5Z" fill="#fccd1d"/><circle cx="32" cy="27.5" fill="#f9a215" r="14.5"/><path d="M33.37,20l1.52,2.63a1.54,1.54,0,0,0,1.06.76L39,24a1.53,1.53,0,0,1,.85,2.56l-2.1,2.22a1.5,1.5,0,0,0-.4,1.22l.36,3a1.57,1.57,0,0,1-2.22,1.58l-2.81-1.27a1.6,1.6,0,0,0-1.32,0l-2.81,1.27A1.57,1.57,0,0,1,26.31,33l.36-3a1.5,1.5,0,0,0-.4-1.22l-2.1-2.22A1.53,1.53,0,0,1,25,24l3-.59a1.54,1.54,0,0,0,1.06-.76L30.63,20A1.59,1.59,0,0,1,33.37,20Z" fill="#fccd1d"/><polygon fill="#212529" points="45 43 45 57 61 57 55 50 61 43 45 43"/><polygon fill="#212529" points="19 43 19 57 3 57 9 50 3 43 19 43"/><rect fill="#dd051d" height="14" width="38" x="13" y="39"/><polygon fill="#a60416" points="13 53 19 57 19 53 13 53"/><polygon fill="#a60416" points="51 53 45 57 45 53 51 53"/></g></g></svg>