<?xml version="1.0" ?><svg width="1417px" height="1417px" viewBox="0 -41.83 1417 1417" id="svg2" version="1.1" xml:space="preserve" xmlns="http://www.w3.org/2000/svg" xmlns:inkscape="http://www.inkscape.org/namespaces/inkscape" xmlns:sodipodi="http://sodipodi.sourceforge.net/DTD/sodipodi-0.dtd" xmlns:svg="http://www.w3.org/2000/svg"><defs id="defs6"/><g id="g8" transform="matrix(1.3333333,0,0,-1.3333333,0,1333.3333)"><g id="g10" transform="scale(0.1)"><path d="m 625.383,4009.11 c 0,0 1690.197,-65.43 2525.027,-1652.53 464.19,-882.46 1469.85,-1122.18 1469.85,-1122.18 0,0 -1800.05,-261.56 -3178.87,671.41 -930.628,629.7 -816.007,2103.3 -816.007,2103.3" id="path12" style="fill:#dcf5f9;fill-opacity:1;fill-rule:nonzero;stroke:none"/><path d="m 648.313,1396.68 c 0,0 646.427,-446.77 1668.567,-152.9 584.29,167.99 1110.74,172.09 1110.74,172.09 0,0 -414.87,649.13 -1464.69,633.82 -634.36,-9.25 -1314.617,-653.01 -1314.617,-653.01" id="path14" style="fill:#dcf5f9;fill-opacity:1;fill-rule:nonzero;stroke:none"/><path d="m 9063.8,4995.62 c 0,-74.16 52.62,-109.44 29.29,-214.55 -15.46,-69.67 -106.92,-97.9 -131.84,-162.77 -35.9,-93.45 52.79,-285.67 -62.1,-371.58 -83.49,-62.42 -213.92,-39.87 -294.98,-103.5 -86.04,-67.53 -107.4,-183.65 -210.64,-222.24 -114.24,-42.7 -234.13,-1.61 -362.45,-1.61 -114.76,0 -228.6,-45.75 -332.4,-11.27 -96.08,31.9 -128.3,164.6 -210.67,221.53 -60.6,41.89 -174.97,2.79 -226.19,56.19 -57.11,59.55 -51.85,232.16 -95.12,303.75 -61.76,102.17 -164.28,108.94 -192.15,229.71 -19.63,85.05 72.52,206.38 72.52,297.72 0,84.62 -93.62,134.53 -76.7,213.83 20.22,94.75 171.95,126.12 213.42,210.25 35.56,72.14 -41.76,198.65 7.25,260.73 62.7,79.4 250.16,37.63 331.16,96.7 97.03,70.77 91.12,237.47 207.84,272.18 94.62,28.14 167.42,-70.11 270.7,-70.11 117.48,0 257.72,93.82 363.64,57.76 92.06,-31.33 108.25,-164.13 187.59,-218.55 82.24,-56.4 216.97,2.45 281.54,-74.53 71.48,-85.23 59.84,-204.38 104.36,-309.3 28.38,-66.87 128.33,-83.11 161.98,-201.31 34.51,-121.19 -36.05,-174.42 -36.05,-259.03" id="path16" style="fill:#003977;fill-opacity:1;fill-rule:nonzero;stroke:none"/><path d="m 7713.84,5562.3 c -98.14,-127.98 -114.22,-302 -39.86,-435.1 1.82,-3.25 548,-128.66 579.8,-129.78 298.4,-10.54 270.31,370.44 224.89,475.71 -111.13,257.54 -555.18,362.56 -764.83,89.17" id="path18" style="fill:#003977;fill-opacity:1;fill-rule:nonzero;stroke:none"/><path d="m 8035.4,3759.75 c 154.23,-4.61 338.3,417.32 395.46,506.65 0,0 -81.23,40.82 -120.88,52.81 -259.75,78.59 -368.65,106.92 -677.18,-17.51 -36.53,-14.73 -136.4,-78.84 -136.4,-78.84 2.71,-11.79 403.34,-459.06 539,-463.11" id="path20" style="fill:#b97860;fill-opacity:1;fill-rule:nonzero;stroke:none"/><path d="m 7801.37,4735.92 346.82,-6.65 c 3.18,-0.06 5.71,-2.68 5.64,-5.86 l -9.58,-500.19 c -0.68,-35.22 -29.78,-63.22 -64.99,-62.55 l -230.79,4.42 c -35.22,0.68 -63.23,29.78 -62.55,65 l 9.59,500.19 c 0.06,3.17 2.68,5.7 5.86,5.64" id="path22" style="fill:#b97860;fill-opacity:1;fill-rule:nonzero;stroke:none"/><path d="m 8431.35,4977.28 c -4.58,-45.43 -44.77,-78.58 -89.76,-74.04 -44.98,4.53 -77.73,45.04 -73.15,90.47 4.58,45.43 44.75,78.58 89.74,74.04 44.99,-4.53 77.75,-45.04 73.17,-90.47" id="path24" style="fill:#c2866e;fill-opacity:1;fill-rule:nonzero;stroke:none"/><path d="m 7749.77,5050.53 c -4.58,-45.43 -44.76,-78.58 -89.75,-74.04 -44.99,4.54 -77.74,45.04 -73.16,90.47 4.58,45.43 44.76,78.58 89.75,74.05 44.98,-4.54 77.75,-45.05 73.16,-90.48" id="path26" style="fill:#c2866e;fill-opacity:1;fill-rule:nonzero;stroke:none"/><path d="m 8368.18,5051.61 c -44.32,-281.23 -277.19,-468.29 -396.93,-456.21 -120.15,12.11 -328.85,214.03 -300.28,497.3 28.56,283.26 70.63,519.62 398.62,477.91 475.58,-60.48 319.78,-384.54 298.59,-519" id="path28" style="fill:#c2866e;fill-opacity:1;fill-rule:nonzero;stroke:none"/><path d="m 8314.36,5640.55 c -81.35,76.12 -376.48,168.69 -576.52,-10.35 -252.55,-226.05 -61.06,-490.09 -61.06,-490.09 0,0 22.77,207.52 116.96,261.35 115.09,65.76 183.85,-15.89 246.97,-50.72 112.53,-62.11 241.36,46.48 303.67,-9.32 69.34,-62.1 26.38,-275.56 26.38,-275.56 0,0 67.07,62.22 89.53,138.94 57.81,197.42 -79.38,373.47 -145.93,435.75" id="path30" style="fill:#003977;fill-opacity:1;fill-rule:nonzero;stroke:none"/><path d="m 9066.83,1856.47 c -104.9,363.45 -331.31,703.82 -561.37,1133.73 0,0 -283.94,-60.47 -503.44,-87.06 -265.3,-32.14 -425.44,19.99 -425.44,19.99 -468.04,-938.38 -484.07,-1148.5 -468.04,-1553.9 4.74,-119.78 37.89,-729.609 37.89,-729.609 h 978.38 l 31.48,259.258 52.81,-259.258 h 857.82 c 0,0 31.9,574.289 42.44,696.589 10.49,121.89 -21.86,448.62 -42.53,520.26" id="path32" style="fill:#2d7ac0;fill-opacity:1;fill-rule:nonzero;stroke:none"/><path d="M 7566.62,2928.57 7159.61,2040.7 c 0,0 347.56,-77.39 465.49,-92.98 280.11,-37.03 468.32,-37.66 468.32,-37.66 l 20.79,170.23 61.01,-159.74 c 0,0 259.64,66.61 430.72,145.86 129.14,59.82 331.16,178.54 331.16,178.54 l -428.83,752.11 -941.65,-68.49" id="path34" style="fill:#00c7d1;fill-opacity:1;fill-rule:nonzero;stroke:none"/><path d="m 6518.57,3017.81 c 79.93,-151.02 398.36,-656.7 399.1,-672.26 1.99,-42.46 68.89,-198.4 92.09,-251.04 29.58,-67.12 154.5,-208.69 190.6,-250.32 28.52,-32.87 50.44,-6.59 37.53,17.98 -20.15,38.38 -22.26,48.12 -22.26,48.12 0,0 69.85,-78.77 126.4,-114.05 5.14,-3.21 45.09,-18.8 62.89,2.87 10.62,12.91 8.71,30.55 0.31,42.77 -52.38,76.17 -81.92,146.4 -81.92,146.4 0,0 43.35,-19.48 92.3,-83.29 13.66,-17.8 51.1,-26.99 33.6,34.29 -23.09,80.86 -144.77,220.3 -153.58,306.58 -5.55,54.24 11.93,117.58 11.93,117.58 -27.91,17.13 -186.56,108.07 -211.71,129.04 -139.86,116.59 -237.57,555.4 -289.53,610.86 -148.19,158.18 -321.33,-22.06 -287.75,-85.53" id="path36" style="fill:#c2866e;fill-opacity:1;fill-rule:nonzero;stroke:none"/><path d="m 9346.97,2129.72 -66.58,-217.82 c 0,0 -65.26,-142.85 -104.54,-175.49 -33.4,-27.76 -151.27,-91.69 -162.64,-69.37 -15.35,30.11 11.54,39.22 11.54,39.22 0,0 -80.68,-45.6 -109.57,-56.25 -13.33,-4.91 -34.62,-13.16 -46.9,-6.02 -8.34,4.86 -21.82,20.72 -19.24,30.01 17.37,62.65 61.02,79.67 61.02,79.67 0,0 7.24,-27.66 -91.77,-35.13 -24.49,-1.85 -39.3,21.62 -31.5,29.14 120.41,116.22 201.37,213.67 197.58,326.92 l -28.7,77.71 188.26,125.36 c 0,0 164.87,879.62 344.61,770.8 47.29,-28.63 -141.57,-918.75 -141.57,-918.75" id="path38" style="fill:#c2866e;fill-opacity:1;fill-rule:nonzero;stroke:none"/><path d="m 9519.48,3151.07 c 0,0 -527.18,667.82 -860.96,982.78 -99.32,93.71 -365.37,217.53 -365.37,217.53 0,0 -32.82,-265.41 -349.75,-276.98 -286.99,-10.47 -358.74,229.93 -358.74,229.93 0,0 -206.98,-99.24 -314.45,-188.91 -154.52,-128.93 -725.93,-822.4 -836.51,-992.51 -26.9,-41.41 -16.22,-73.07 -0.85,-90.64 83.65,-95.67 412.79,-660.36 412.79,-660.36 l 224.08,176.22 -172.32,484.14 c 0,0 372.57,456.68 431.87,410.04 97.33,-76.52 217.11,-440.33 255.5,-563.97 42.65,-137.42 869.18,-163.77 920.69,111.86 10.97,58.66 22.26,330.01 111.51,360.85 155.57,53.76 523.45,-309.12 523.45,-309.12 l -23.92,-738.33 314.07,-65.42 93.95,819.61 -5.04,93.28" id="path40" style="fill:#00c7d1;fill-opacity:1;fill-rule:nonzero;stroke:none"/><path d="M 5604.86,8908.35 H 2268 c -190.21,0 -344.39,-154.18 -344.39,-344.39 V 7121.45 c 0,-190.2 154.19,-344.39 344.39,-344.39 h 3336.86 c 190.2,0 344.39,154.19 344.39,344.39 v 1442.52 c 0,190.2 -154.19,344.38 -344.39,344.38" id="path42" style="fill:#d3f2f7;fill-opacity:1;fill-rule:nonzero;stroke:none"/><path d="M 6208.48,8317.45 H 3175.63 c -172.88,0 -313.01,-140.14 -313.01,-313.01 v -1311.1 c 0,-172.87 140.13,-313.01 313.01,-313.01 h 276.02 v -433.97 l 433.98,433.97 h 2322.84 c 172.87,0 313.01,140.14 313.01,313.01 v 1311.1 c 0,172.87 -140.14,313.01 -313,313.01" id="path44" style="fill:#dcf5f9;fill-opacity:1;fill-rule:nonzero;stroke:none"/><path d="M 5085.38,7268.7 H 3456.16 v 646.58 H 5085.38 V 7268.7" id="path46" style="fill:#f2fbfd;fill-opacity:1;fill-rule:nonzero;stroke:none"/><path d="m 5856.16,7268.7 -448.56,1.6 c -39.65,0 -71.77,32.12 -71.77,71.78 0,39.64 32.12,71.76 71.77,71.76 l 448.56,-1.6 c 39.65,0 71.78,-32.12 71.78,-71.77 0,-39.65 -32.13,-71.77 -71.78,-71.77" id="path48" style="fill:#f2fbfd;fill-opacity:1;fill-rule:nonzero;stroke:none"/><path d="m 5856.16,7770.13 -448.56,1.6 c -39.65,0 -71.77,32.12 -71.77,71.78 0,39.65 32.12,71.77 71.77,71.77 l 448.56,-1.61 c 39.65,0 71.78,-32.11 71.78,-71.77 0,-39.65 -32.13,-71.77 -71.78,-71.77" id="path50" style="fill:#f2fbfd;fill-opacity:1;fill-rule:nonzero;stroke:none"/><path d="m 5856.16,6767.67 -2328.23,0.8 c -39.65,0 -71.77,32.12 -71.77,71.77 0,39.65 32.12,71.77 71.77,71.77 l 2328.23,-0.8 c 39.65,0 71.78,-32.12 71.78,-71.77 0,-39.66 -32.13,-71.77 -71.78,-71.77" id="path52" style="fill:#f2fbfd;fill-opacity:1;fill-rule:nonzero;stroke:none"/><path d="m 725.84,4922.46 78.23,-11.2 10.664,74.55 -78.218,11.2 z m 109.18,-52.49 -150.469,21.54 21.015,146.78 150.457,-21.54 -21.003,-146.78" id="path54" style="fill:#dcf5f9;fill-opacity:1;fill-rule:nonzero;stroke:none"/><path d="m 5494.8,4612.67 c 100.26,13.85 262.15,-269.09 313.13,-528.64 93.91,-478.14 173.87,-622.89 172.94,-1019.12 -0.21,-88.22 -160.46,-887.62 -160.46,-887.62 l -208.02,168.83 49.65,599.64 c 0,0 -297.38,1648.91 -167.24,1666.91" id="path56" style="fill:#004381;fill-opacity:1;fill-rule:nonzero;stroke:none"/><path d="M 5534.52,2883.24 4751.88,2861.95 4637.86,4471 5360.79,4442.93 5534.52,2883.24" id="path58" style="fill:#00d89e;fill-opacity:1;fill-rule:nonzero;stroke:none"/><path d="m 4301.75,639.621 h 708.4 c 14.91,256.149 25.69,507.339 25.69,507.339 l -829.66,772.47 c 0,0 16.19,-560.32 33.07,-773.11 9.84,-124.18 36.35,-326.23 62.5,-506.699" id="path60" style="fill:#ffd0ce;fill-opacity:1;fill-rule:nonzero;stroke:none"/><path d="M 5980.87,639.621 C 5889.41,1150.5 5792.72,1649.11 5792.72,1649.11 l -704.55,-320.68 c 0,0 111.85,-314.96 232.94,-688.809 h 659.76" id="path62" style="fill:#ffd0ce;fill-opacity:1;fill-rule:nonzero;stroke:none"/><path d="m 5050.63,1527.95 c -230.21,-20.94 -909.94,181.19 -894.66,487.72 16.61,333.58 311.12,895.34 311.12,895.34 l 1073.22,19.94 c 0,0 269.19,-595.08 321.1,-816.57 84.08,-358.83 -587.32,-566.1 -810.78,-586.43" id="path64" style="fill:#0096c6;fill-opacity:1;fill-rule:nonzero;stroke:none"/><path d="m 4664,5972.61 c -350.22,-441.8 -292.95,-1053.74 -200.12,-1172.08 124,-158.09 778.22,-56.68 1053.04,-95.37 52.59,-7.41 231.6,570.31 13.24,1146.45 -105.48,278.32 -655.03,387.34 -866.16,121" id="path66" style="fill:#ea659d;fill-opacity:1;fill-rule:nonzero;stroke:none"/><path d="m 5035.29,4252.38 c 151.35,16.19 332.04,243.82 394.05,328.09 0,0 -77.35,45.4 -115.61,59.75 -250.64,94.02 -356.03,128.9 -667.72,26.21 -36.91,-12.16 -139.34,-68.85 -139.34,-68.85 1.91,-11.79 375.8,-361.54 528.62,-345.2" id="path68" style="fill:#ffc6c3;fill-opacity:1;fill-rule:nonzero;stroke:none"/><path d="m 5118.89,5119.11 -319.69,3.8 c -8.74,0.1 -15.94,-8.29 -16.06,-18.75 l -4.37,-382.84 c -1.38,-116 86.62,-185.45 183.64,-186.6 97.03,-1.16 166.36,82.42 167.74,198.42 l 4.35,366.85 c 0.13,10.45 -6.86,19.02 -15.61,19.12" id="path70" style="fill:#ffc6c3;fill-opacity:1;fill-rule:nonzero;stroke:none"/><path d="m 5461.56,5370.89 c -3.08,-44.93 -41.66,-78.88 -86.16,-75.83 -44.49,3.06 -78.07,41.96 -74.98,86.9 3.09,44.93 41.66,78.88 86.16,75.83 44.49,-3.05 78.07,-41.96 74.98,-86.9" id="path72" style="fill:#ffc6c3;fill-opacity:1;fill-rule:nonzero;stroke:none"/><path d="m 5113.67,5887.51 c -181.1,12.43 -338.28,-128.43 -351.06,-314.62 l -21.11,-307.35 c -12.78,-186.2 172.72,-350.31 344.19,-362.37 190.05,-13.37 298.87,131.15 311.65,317.34 l 21.1,307.36 c 12.78,186.19 -123.66,347.21 -304.77,359.64" id="path74" style="fill:#ffd0ce;fill-opacity:1;fill-rule:nonzero;stroke:none"/><path d="m 5360.24,5995.96 c -80.77,72.4 -296.08,142.26 -505.15,-15.07 -213.96,-161.01 -133.67,-495.96 -96.9,-472.22 121.68,78.55 108.72,202.01 217.99,198.87 88.05,-2.53 214.71,-245.84 504.04,-306.24 22.53,-4.7 67.49,154.84 59.37,233.27 -23.36,225.57 -113.28,302.15 -179.35,361.39" id="path76" style="fill:#ea659d;fill-opacity:1;fill-rule:nonzero;stroke:none"/><path d="m 5090.13,5416.57 c -3.12,-45.97 -40.58,-81.03 -83.49,-78.13 l -24.56,1.65 c -56.45,3.81 -99.05,56.12 -94.94,116.6 1.33,19.62 17.3,34.57 35.62,33.33 l 138.36,-9.32 c 18.32,-1.24 32.13,-18.2 30.79,-37.81 z m -27.8,81.92 -138.37,9.32 c -27.46,1.86 -51.43,-20.57 -53.42,-50 -4.78,-70.29 44.72,-131.08 110.34,-135.51 l 24.55,-1.65 c 52.08,-3.51 97.52,39.01 101.31,94.8 l 1.79,26.31 c 1.99,29.43 -18.73,54.88 -46.2,56.73" id="path78" style="fill:#1a1b5c;fill-opacity:1;fill-rule:nonzero;stroke:none"/><path d="m 5223.67,5434 c 1.33,19.62 17.31,34.57 35.62,33.34 l 138.37,-9.33 c 18.31,-1.23 32.13,-18.2 30.79,-37.81 -4.1,-60.49 -53.38,-106.6 -109.85,-102.8 l -24.55,1.66 c -42.91,2.89 -75.29,42.65 -72.17,88.63 z m -16.6,1.12 -1.79,-26.32 c -3.79,-55.78 35.49,-104.02 87.56,-107.53 l 24.56,-1.66 c 65.61,-4.42 122.88,49.17 127.65,119.47 2,29.42 -18.72,54.87 -46.18,56.72 l -138.37,9.33 c -27.47,1.85 -51.44,-20.58 -53.43,-50.01" id="path80" style="fill:#1a1b5c;fill-opacity:1;fill-rule:nonzero;stroke:none"/><path d="m 5196.93,5435.89 c -21.72,20.35 -54.07,22.84 -78.62,6.06 -3.51,-2.39 -4.56,-7.35 -2.35,-11.08 2.18,-3.71 6.81,-4.81 10.32,-2.42 18.97,12.96 43.94,11.03 60.73,-4.67 1.28,-1.2 2.83,-1.84 4.42,-1.95 2.25,-0.15 4.55,0.79 6.16,2.75 2.73,3.35 2.45,8.42 -0.66,11.31" id="path82" style="fill:#1a1b5c;fill-opacity:1;fill-rule:nonzero;stroke:none"/><path d="m 4671.3,5424.35 c 3.05,44.94 41.58,78.93 86.08,75.92 44.5,-3.01 78.12,-41.88 75.08,-86.82 -3.05,-44.94 -41.58,-78.93 -86.08,-75.92 -44.5,3.01 -78.12,41.88 -75.08,86.82" id="path84" style="fill:#ffc6c3;fill-opacity:1;fill-rule:nonzero;stroke:none"/><path d="m 4758.71,4719.33 c 0,0 358.66,-803.25 385.93,-1055.26 38.03,-351.4 61.44,-1323.78 61.44,-1323.78 l -971.32,53.77 64.05,948.38 c 0,0 -181.45,938.73 45.37,1171.58 80.78,82.93 414.53,205.31 414.53,205.31" id="path86" style="fill:#003977;fill-opacity:1;fill-rule:nonzero;stroke:none"/><path d="m 5159.77,4705.08 c 0,0 191.15,-768.03 197.94,-1137.1 6.18,-336.6 -19.74,-1227.69 -19.74,-1227.69 l 424.25,85.54 c 0,0 2.35,418.21 -18.11,830.01 -30.16,607.31 -36.93,1004.28 -209.59,1278.87 -66.21,105.3 -374.75,170.37 -374.75,170.37" id="path88" style="fill:#003977;fill-opacity:1;fill-rule:nonzero;stroke:none"/><path d="m 5065.74,639.621 129.92,1009.489 c 0,0 -1016.46,636.72 -1037.57,394.61 -22.6,-259.13 19.59,-857.18 69,-1404.099 h 838.65" id="path90" style="fill:#0096c6;fill-opacity:1;fill-rule:nonzero;stroke:none"/><path d="m 6077.47,639.621 c -61.36,529.599 -139.79,1125.549 -216.07,1474.759 -48.76,223.29 -812.12,-621.17 -812.12,-621.17 l 213.01,-853.589 h 815.18" id="path92" style="fill:#0096c6;fill-opacity:1;fill-rule:nonzero;stroke:none"/><path d="m 5045.63,3516.31 37.31,84.79 318.89,-7 33.58,-84.44" id="path94" style="fill:#a6eee9;fill-opacity:1;fill-rule:nonzero;stroke:none"/><path d="m 5439.62,3459.51 -8.4,-63.58 -50.24,-380.21 c -2.49,-18.86 -18.78,-32.83 -37.82,-32.41 l -227.7,5 c -19.01,0.42 -34.67,15.07 -36.35,34.02 l -39.77,449.92 400.28,-12.74" id="path96" style="fill:#58dbdb;fill-opacity:1;fill-rule:nonzero;stroke:none"/><path d="m 5466.22,3448.2 -454.04,9.97 1.92,87.77 454.05,-9.98 -1.93,-87.76" id="path98" style="fill:#bdffd8;fill-opacity:1;fill-rule:nonzero;stroke:none"/><path d="m 5092.31,3062.26 c -47.57,-16.04 -204.21,8.94 -309.61,23.74 l -24.28,140.36 c 0,0 109.05,15.87 123.67,19.65 93.47,24.2 208.47,90.79 300.63,119.57 46.09,14.39 235.21,-26.05 235.21,-26.05 0,0 -16.14,-25.3 -30.8,-33.63 -33.01,-18.75 -162.35,0.31 -162.35,0.31 l 117.95,-80.96 56.88,-84.17 c 0,0 -9.86,-12.73 -37.01,-13.78 -23.61,-0.92 -63.14,56.07 -63.14,56.07 l -71.33,10.53 123.32,-142.95 c 0,0 -31.67,-25.56 -44.61,-28.01 -13.81,-2.61 -55.25,10.42 -55.25,10.42 0,0 -14.52,-15.91 -19.16,-16.96 -45.3,-10.19 -107.8,56.76 -140.12,45.86" id="path100" style="fill:#ffd0ce;fill-opacity:1;fill-rule:nonzero;stroke:none"/><path d="m 4374.52,4490.33 c -123.55,20.72 -304.08,-138.95 -387.3,-430.48 -120.35,-421.63 -120.21,-666.29 -138.36,-1116.83 -7.71,-191.16 99.42,-152 159.86,-149.75 497.95,18.52 905.72,190.03 905.72,190.03 l -44.23,318.21 -578.76,-35.89 114.02,757.34 c 0,0 37.71,455.86 -30.95,467.37" id="path102" style="fill:#004381;fill-opacity:1;fill-rule:nonzero;stroke:none"/><path d="m 3718.82,3041.92 c 77.89,-293.09 185.09,-813.4 185.09,-813.4 0,0 226.11,-99.56 883.8,-140.81 37.77,-2.37 57.33,-35.84 78.42,-70.42 3.22,-5.27 79.24,-20.38 98.73,-32.01 32.64,-19.48 -41.3,-269.11 -72.61,-344.55 -26.12,-62.9 -90.93,-27.11 -90.93,-27.11 0,0 -23.66,-34.14 -60.52,-48.09 -261,-98.74 -1026.67,93.26 -1227.02,163.99 -34.24,12.09 -7.1,34.62 -37.05,100.19 -196.26,429.67 -198.89,999.12 -159.05,1296.39 8.12,60.6 79.71,207.51 128.51,208.11 139.19,1.71 216.06,-79.43 272.63,-292.29" id="path104" style="fill:#00d0bc;fill-opacity:1;fill-rule:nonzero;stroke:none"/><path d="m 3567.06,4761.34 c -170.08,-106.55 -281.98,-352.95 -191.35,-526.06 78.39,-149.72 556.92,-278.77 591.84,-287.75 327.75,-84.25 367.95,295.79 327.18,470.59 -68.56,293.91 -410.35,542.01 -727.67,343.22" id="path106" style="fill:#00649f;fill-opacity:1;fill-rule:nonzero;stroke:none"/><path d="m 3027.1,3072.59 c 147.46,-69.71 461.35,-7.27 554.52,55.09 0,0 -55.2,265.91 -88.54,294.31 -218.39,186.02 -214.35,155.47 -565.87,165.45 -41.62,1.18 -111.89,-165.45 -111.89,-165.45 -2.37,-12.57 82.07,-288.07 211.78,-349.4" id="path108" style="fill:#ffc6c3;fill-opacity:1;fill-rule:nonzero;stroke:none"/><path d="m 3424.25,4140.53 209.12,-407.23 c 8.91,-3.1 13.61,-12.84 10.52,-21.74 l -167.16,-369.65 c -34.39,-98.81 -80.84,-85.07 -179.65,-50.69 -98.81,34.37 -175.93,151.03 -141.55,249.83 l 246.98,588.96 c 3.1,8.91 12.83,13.62 21.74,10.52" id="path110" style="fill:#ffc6c3;fill-opacity:1;fill-rule:nonzero;stroke:none"/><path d="m 3394.86,4109.43 -34.03,223.62 c 0,0 -158.67,-221.59 -246.11,-392.24 -142.71,-278.52 -168.4,-513.73 -42.95,-747.79 115.36,-215.23 37.37,-309.05 42.63,-309.78 0,0 174.56,195.43 161.98,335.92 -32.58,363.9 -19.03,422.35 -8.81,537.07 14.35,161.28 127.29,353.2 127.29,353.2" id="path112" style="fill:#00649f;fill-opacity:1;fill-rule:nonzero;stroke:none"/><path d="m 3341.22,4204.58 c -7.51,-47.69 24.68,-92.36 71.9,-99.8 47.21,-7.44 91.58,25.19 99.08,72.87 7.51,47.68 -24.68,92.36 -71.9,99.8 -47.21,7.43 -91.58,-25.19 -99.08,-72.87" id="path114" style="fill:#ffc6c3;fill-opacity:1;fill-rule:nonzero;stroke:none"/><path d="m 4143.88,3935.06 c -82.59,-286.29 -341.55,-424.87 -448.87,-371.4 -223.98,111.58 -330.6,325.44 -248.01,611.74 82.59,286.28 296.7,436.61 492.28,380.19 195.58,-56.42 287.18,-334.24 204.6,-620.53" id="path116" style="fill:#ffd0ce;fill-opacity:1;fill-rule:nonzero;stroke:none"/><path d="m 3756.71,4695.72 c -264.66,-37.37 -320.12,-401.9 -316.41,-418.27 5.89,-25.98 39.97,-51.49 55.31,-50.56 271.14,16.57 627.55,135.13 627.55,135.13 0,0 178.34,-265.96 -150.78,-861.17 0,0 196.29,200.72 287.74,523.27 115.73,408.17 -119.34,725.82 -503.41,671.6" id="path118" style="fill:#00649f;fill-opacity:1;fill-rule:nonzero;stroke:none"/><path d="m 4669.02,639.621 c -450.83,333.078 -975.57,592.199 -975.57,592.199 -93.52,288.17 -193.39,547.8 -193.39,547.8 L 2216.93,1658.89 c 0,0 -100.6,-640.51 -122.67,-1019.269 h 2574.76" id="path120" style="fill:#00649f;fill-opacity:1;fill-rule:nonzero;stroke:none"/><path d="m 3661.74,3050.81 c -19.27,84.19 -139.98,315.64 -139.98,315.64 l -45.03,-61 -395.8,302.69 c 0,0 -408.39,-68.83 -519.01,-158.67 -202.81,-164.72 -290.12,-513.62 -331.51,-761.17 -16.55,-99.03 -101.42,-485.87 -77.59,-881.34 6.66,-110.63 -5.79,-322.73 81.99,-365.45 290.47,-141.34 1238.9,-38.06 1331.05,161.76 48.89,106 -86.94,500.98 -25.88,655.53 31.34,79.33 112.02,205.79 148.58,282.86 76.83,161.94 -5.71,416.9 -26.82,509.15" id="path122" style="fill:#34eabe;fill-opacity:1;fill-rule:nonzero;stroke:none"/><path d="m 3644.83,3265.62 c -4.52,3.7 -132.23,126.78 -132.23,126.78 l -35.87,-86.95 c 0,0 86.92,-183.02 89.25,-177.66 34.81,80.36 78.85,137.83 78.85,137.83" id="path124" style="fill:#00d0bc;fill-opacity:1;fill-rule:nonzero;stroke:none"/><path d="m 3476.73,3305.45 -96.05,-200.17 c -153.28,102.05 -546.34,463.26 -546.34,463.26 l 203.84,103.54 438.55,-366.63" id="path126" style="fill:#00d0bc;fill-opacity:1;fill-rule:nonzero;stroke:none"/><path d="M 3206.32,4080.48 C 2845.71,3601.83 2989.34,2933.51 2989.34,2933.51 l 381.7,-25.17 c 0,0 -184.56,417.05 -81.67,977.51 29.22,159.26 32.34,347.79 -83.05,194.63" id="path128" style="fill:#00649f;fill-opacity:1;fill-rule:nonzero;stroke:none"/><path d="m 4738.21,1673.42 c -3.46,3.27 -96.83,91.08 -159.61,101.87 -125.5,21.58 -360.77,-43.09 -484.56,-73 -126.07,-30.46 -235.22,-56.94 -233.9,-172.44 0.73,-63.28 99.55,-138.38 155.02,-147.85 75.78,-12.94 214.54,27.95 290.54,16.37 44.49,-6.77 112.16,-25.54 151.66,-47.09 13.26,-7.23 41.57,-23.14 56.55,-21.24 6.22,0.79 21.16,13.43 21.16,13.43 0,0 40.83,-40.2 58.61,-45.43 16.66,-4.9 69.21,6.09 69.21,6.09 l -149.45,246.89 119.75,-85.4 c 0,0 59.39,-76.68 87.66,-89.79 32.52,-15.07 56.19,9.83 56.19,9.83 l -157.76,269.08 c 0,0 140.44,-100.08 190.48,-97.89 22.21,0.97 56.37,20.98 56.37,20.98 l -127.92,95.59" id="path130" style="fill:#ffd0ce;fill-opacity:1;fill-rule:nonzero;stroke:none"/><path d="m 2873.53,3105.28 c 73.2,-271.84 18.32,-1050.78 18.32,-1050.78 0,0 329.26,-74.98 886.83,-206.08 36.84,-8.65 54.79,-44.3 75.88,-78.88 3.21,-5.28 87.66,-33.26 97.32,-58.18 32.59,-84.04 -40.03,-287 -126.25,-313.33 -14.55,-4.44 -128.48,20.47 -128.48,20.47 0,0 -46.95,-18.06 -86.33,-16.37 -619.78,26.61 -1114.84,29.77 -1325.55,304.73 -12.56,16.39 -18.85,59.32 -21.15,79.84 -32.63,291.9 50.68,872.24 52.31,1200.32 0.6,121.97 199.29,443.67 304.16,464.22 136.6,26.77 195.67,-133.29 252.94,-345.96" id="path132" style="fill:#00d0bc;fill-opacity:1;fill-rule:nonzero;stroke:none"/><path d="m 4806.44,1873.97 c 20.79,94.57 52.21,80.69 181.71,87.67 127.17,6.86 379.03,19.03 498.51,-25.05 59.76,-22.04 156.22,-176.28 159.03,-180.13 l 39.61,-88.45 c 0,0 -39.83,-29.64 -51.04,-7.48 -42.23,83.45 -105.8,121.99 -105.8,121.99 l 144.55,-152.5 c 0,0 -22.2,-24.64 -57.96,-22.39 -30.56,1.92 -61.44,35.81 -80.78,52.45 -35.87,30.88 -104.19,94.41 -104.19,94.41 l 108.67,-211.86 c 3.4,-6.86 -1.71,-14.89 -9.37,-14.62 -17.34,0.62 -41.45,4.38 -53.97,12.29 -15.66,9.91 -99.04,95.55 -120.84,146.24 -5.7,13.28 -74.39,42.22 -104.74,45.68 -24.74,2.82 -83.96,-47.07 5.23,-53.75 26.36,-1.97 70.31,8.29 95.8,-15.83 4.98,-4.72 20.02,-22.83 6.68,-32.17 -13.04,-9.13 -51.13,-26.7 -81.5,-29.6 -48.04,-4.59 -87.24,-13.59 -104.73,-15.69 -121.76,-14.64 -170.03,32.69 -213.61,49.61 -157.1,61 -164.85,177.37 -151.26,239.18" id="path134" style="fill:#ffd0ce;fill-opacity:1;fill-rule:nonzero;stroke:none"/><path d="M 6278.84,1283.88 H 4676.03 l 509.15,1105.55 c 22.33,48.51 82.1,82.22 139.48,78.93 l 1304.01,-74.73 c 60.29,-3.45 93.31,-54.58 70.51,-108.89 L 6278.84,1283.88" id="path136" style="fill:#8ceae7;fill-opacity:1;fill-rule:nonzero;stroke:none"/><path d="M 6243.45,1283.88 H 3941.04 v 46.95 c 0,11.44 9.26,20.71 20.71,20.71 h 2281.7 v -67.66" id="path138" style="fill:#65d7cc;fill-opacity:1;fill-rule:nonzero;stroke:none"/><path d="M 9652.29,1025.33 H 1283.92 v 260.65 h 8368.37 v -260.65" id="path140" style="fill:#e3e3e9;fill-opacity:1;fill-rule:nonzero;stroke:none"/><path d="m 2483.93,5832.83 v -146.91 l 243.77,0.08 c 3.2,0 5.89,2.7 5.89,5.89 0,3.19 -2.69,5.89 -5.88,5.89 -10.61,0 -19.21,8.6 -19.21,19.2 0,10.61 8.6,19.21 19.21,19.21 h 14.34 c 5.26,0 9.71,4.44 9.71,9.7 0,5.26 -4.45,9.71 -9.71,9.71 -10.6,0 -19.2,8.6 -19.2,19.2 0,10.61 8.6,19.21 19.2,19.21 h 4.23 c 5.94,0 10.96,5.01 10.96,10.95 0,5.93 -5.02,10.94 -10.96,10.94 h -4.23 c -10.6,0 -19.2,8.6 -19.2,19.21 0,10.6 8.6,19.2 19.2,19.2 5.26,0 9.71,4.45 9.71,9.71 0,5.26 -4.45,9.71 -9.71,9.71 l -104.67,-0.02 c -6.83,0 -13.14,3.62 -16.59,9.52 -3.45,5.9 -3.5,13.18 -0.14,19.13 0.49,0.92 14.62,28.5 1.08,77.5 -1.77,6.4 -4.42,10.55 -7.84,12.33 0.53,-13.69 -0.72,-31.76 -7.96,-48.89 -7.77,-18.37 -23.99,-35.64 -36.58,-45.69 -27.89,-22.23 -32.4,-47.18 -32.58,-48.23 -1.56,-9.15 -9.48,-16.11 -18.77,-16.21 z m -19.2,-185.32 c -5.1,0 -9.98,2.02 -13.58,5.62 -3.6,3.6 -5.63,8.49 -5.63,13.58 v 185.13 c 0,10.53 8.48,19.1 19.01,19.2 l 38.91,0.4 c 5.55,14.59 17.4,36.62 41.96,56.21 9.17,7.31 20.5,19.6 25.15,30.59 9.07,21.46 3.24,47.5 3.18,47.76 -2.15,9.34 2.9,18.91 11.86,22.32 2.45,0.94 24.53,8.82 45.54,-1.81 9.3,-4.7 21.64,-14.84 27.62,-36.41 9.16,-33.13 8.08,-59.66 4.65,-77.98 l 78.65,0.01 c 26.53,0 48.12,-21.58 48.12,-48.11 0,-9.47 -2.75,-18.31 -7.49,-25.75 8.04,-8.79 12.96,-20.49 12.96,-33.31 0,-12.83 -4.92,-24.53 -12.96,-33.31 4.74,-7.45 7.49,-16.29 7.49,-25.76 0,-16.31 -8.16,-30.75 -20.62,-39.46 1.59,-4.56 2.45,-9.45 2.45,-14.54 0,-24.43 -19.87,-44.3 -44.29,-44.3 l -262.98,-0.08" id="path142" style="fill:#dcf5f9;fill-opacity:1;fill-rule:nonzero;stroke:none"/><path d="m 9835.98,8409.03 -25.7,-9.16 c -9.37,-3.33 -14.75,-13.16 -12.53,-22.85 1.25,-5.41 6.41,-9.01 12.01,-8.38 108.4,12.27 200.24,113.47 200.54,220.98 0.1,6.11 -4.5,11.21 -10.66,11.84 -9.83,1.03 -18.87,-5.46 -21.07,-15.08 l -6.39,-28.06 c 0.76,-3.23 6.13,-10.41 11.26,-14.96 5.05,-4.49 7.43,-11.36 6.16,-18 -8.84,-46.38 -72.04,-115.27 -118.65,-129.33 -6.34,-1.9 -13.22,-0.42 -18.2,3.94 -5.37,4.62 -13.59,9.06 -16.77,9.06 z m -27.54,-78.87 c -22.77,0 -42.9,15.64 -48.11,38.23 -6.62,28.71 9.33,57.8 37.09,67.67 l 25.9,9.2 c 16.59,6.32 34.17,-1.97 45.01,-9.07 29.48,14.31 69.37,57.44 80.88,87.35 -8.56,10 -18.97,26.46 -14.38,43.72 l 6.29,27.66 c 6.52,28.53 33.36,47.8 62.48,44.74 25.8,-2.68 45.2,-24.24 45.2,-50.15 -0.4,-128.23 -105.7,-244.43 -234.72,-259.03 -1.89,-0.22 -3.78,-0.32 -5.64,-0.32" id="path144" style="fill:#dcf5f9;fill-opacity:1;fill-rule:nonzero;stroke:none"/><path d="m 8477.18,7372.66 c -83.04,-16.37 -137.29,-97.25 -120.91,-180.29 16.37,-83.04 97.25,-137.28 180.28,-120.91 83.04,16.37 137.29,97.25 120.91,180.29 -16.37,83.04 -97.25,137.28 -180.28,120.91 z m 66.8,-338.88 c -103.81,-20.47 -204.93,47.34 -225.4,151.17 -20.46,103.81 47.35,204.93 151.17,225.39 103.81,20.47 204.93,-47.34 225.4,-151.16 20.47,-103.82 -47.35,-204.94 -151.17,-225.4" id="path146" style="fill:#dcf5f9;fill-opacity:1;fill-rule:nonzero;stroke:none"/><path d="m 8488.58,7314.79 c -51.13,-10.08 -84.52,-59.88 -74.44,-111.01 10.08,-51.13 59.87,-84.53 111.01,-74.45 51.13,10.08 84.52,59.88 74.44,111.01 -10.08,51.13 -59.87,84.53 -111.01,74.45 z m 44,-223.14 c -71.92,-14.18 -141.95,32.79 -156.12,104.7 -14.18,71.91 32.79,141.95 104.69,156.13 71.92,14.17 141.96,-32.8 156.13,-104.71 14.18,-71.91 -32.8,-141.94 -104.7,-156.12" id="path148" style="fill:#dcf5f9;fill-opacity:1;fill-rule:nonzero;stroke:none"/><path d="m 8524,7381.89 c -10.41,-2.05 -20.5,4.72 -22.55,15.13 l -15.58,79.02 c -2.05,10.41 4.72,20.51 15.13,22.56 10.4,2.05 20.5,-4.72 22.55,-15.13 l 15.58,-79.02 c 2.05,-10.41 -4.73,-20.51 -15.13,-22.56" id="path150" style="fill:#dcf5f9;fill-opacity:1;fill-rule:nonzero;stroke:none"/><path d="m 8430.35,7363.43 c -10.41,-2.05 -20.51,4.72 -22.56,15.12 l -15.57,79.03 c -2.05,10.41 4.71,20.51 15.12,22.56 10.41,2.05 20.51,-4.72 22.56,-15.13 l 15.58,-79.02 c 2.05,-10.41 -4.72,-20.51 -15.13,-22.56" id="path152" style="fill:#dcf5f9;fill-opacity:1;fill-rule:nonzero;stroke:none"/><path d="m 8550.5,7469.21 -177.8,-35.05 c -10.41,-2.05 -20.5,4.72 -22.55,15.13 -2.06,10.4 4.71,20.5 15.12,22.56 l 177.8,35.04 c 10.41,2.06 20.5,-4.72 22.56,-15.12 2.05,-10.41 -4.73,-20.51 -15.13,-22.56" id="path154" style="fill:#dcf5f9;fill-opacity:1;fill-rule:nonzero;stroke:none"/><path d="m 8661.41,7362.98 c -5.09,-1 -10.57,0.05 -15.08,3.36 l -32.24,23.66 c -8.55,6.28 -10.39,18.3 -4.12,26.86 6.28,8.54 18.3,10.38 26.85,4.11 l 32.23,-23.66 c 8.56,-6.27 10.4,-18.3 4.12,-26.85 -2.96,-4.03 -7.2,-6.58 -11.76,-7.48" id="path156" style="fill:#dcf5f9;fill-opacity:1;fill-rule:nonzero;stroke:none"/><path d="m 8510.59,7203.22 c -5.3,-1.04 -11,0.14 -15.59,3.74 -8.34,6.55 -9.79,18.62 -3.24,26.97 l 38.87,49.52 c 6.56,8.34 18.63,9.8 26.98,3.25 8.34,-6.55 9.79,-18.62 3.24,-26.97 l -38.88,-49.53 c -2.96,-3.76 -7.03,-6.12 -11.38,-6.98" id="path158" style="fill:#dcf5f9;fill-opacity:1;fill-rule:nonzero;stroke:none"/><path d="m 1035.14,8544.7 -6.15,37.92 56.51,9.16 6.14,-37.93 -56.5,-9.15" id="path160" style="fill:#dcf5f9;fill-opacity:1;fill-rule:nonzero;stroke:none"/><path d="m 1091.59,8606.26 -8.97,55.45 37.92,6.14 8.97,-55.45 -37.92,-6.14" id="path162" style="fill:#dcf5f9;fill-opacity:1;fill-rule:nonzero;stroke:none"/><path d="m 1153.4,8563.84 -6.14,37.92 53.43,8.66 6.15,-37.92 -53.44,-8.66" id="path164" style="fill:#dcf5f9;fill-opacity:1;fill-rule:nonzero;stroke:none"/><path d="m 1111.21,8485.07 -9.48,58.61 37.91,6.13 9.48,-58.61 -37.91,-6.13" id="path166" style="fill:#dcf5f9;fill-opacity:1;fill-rule:nonzero;stroke:none"/><path d="m 6983.97,8843.22 c -8.7,0 -17.24,-2.42 -24.81,-7.14 -10.69,-6.65 -18.15,-17.07 -21.01,-29.33 -5.88,-25.31 9.92,-50.71 35.24,-56.59 25.33,-5.88 50.7,9.92 56.59,35.22 5.89,25.31 -9.92,50.7 -35.23,56.59 -3.58,0.84 -7.19,1.25 -10.78,1.25 z m 0.09,-132.71 c -6.39,0 -12.89,0.72 -19.38,2.23 -45.95,10.7 -74.62,56.77 -63.93,102.71 5.18,22.26 18.71,41.17 38.11,53.25 19.4,12.06 42.34,15.88 64.6,10.68 45.93,-10.69 74.62,-56.76 63.92,-102.71 -9.18,-39.43 -44.45,-66.16 -83.32,-66.16" id="path168" style="fill:#dcf5f9;fill-opacity:1;fill-rule:nonzero;stroke:none"/></g></g></svg>