<?xml version="1.0" ?><svg width="1333.3333px" height="1333.3333px" viewBox="0 0 1333.3333 1333.3333" id="svg2" version="1.1" xml:space="preserve" xmlns="http://www.w3.org/2000/svg" xmlns:inkscape="http://www.inkscape.org/namespaces/inkscape" xmlns:sodipodi="http://sodipodi.sourceforge.net/DTD/sodipodi-0.dtd" xmlns:svg="http://www.w3.org/2000/svg"><defs id="defs6"><clipPath clipPathUnits="userSpaceOnUse" id="clipPath84"><path d="m 6208.54,1609.26 c 37.37,13.98 481.8,304.05 479.6,348.18 -3,59.73 -99.17,1609.85 -99.17,1609.85 l -620.44,27.41 c 0,0 51.38,-1788.6 50.86,-2051.84 90.04,29.21 126.96,43.14 189.15,66.4 z" id="path82"/></clipPath></defs><g id="g8" transform="matrix(1.3333333,0,0,-1.3333333,0,1333.3333)"><g id="g10" transform="scale(0.1)"><path d="m 4937.89,8492.79 c 1965.39,0 3558.65,-1593.27 3558.65,-3558.65 0,-1064.29 -467.46,-2019.14 -1207.97,-2671.26 -7.61,-5.22 -14.45,-11.22 -20.34,-18 -48.8,-42.32 -98.72,-83.39 -149.8,-123.05 -7.36,-5.1 -14.65,-10.24 -21.75,-15.55 -13.8,-10.3 -27.21,-20.98 -40.5,-31.77 -591.86,-439.15 -1324.69,-699.03 -2118.29,-699.03 -1965.38,0 -3558.65,1593.27 -3558.65,3558.66 0,1965.38 1593.27,3558.65 3558.65,3558.65" id="path12" style="fill:#e5f2f9;fill-opacity:1;fill-rule:nonzero;stroke:none"/><path d="m 4945.3,7363.65 -11.21,4.74 -3288.96,-1361.85 115.75,-255.71 198.33,79.27 -21.63,54.07 -146.61,-58.61 -67.98,150.19 3210.9,1329.51 3219.87,-1356.88 -60.64,-146.56 -139.78,56.7 -21.9,-53.95 193.38,-78.47 104.88,253.48 -3284.4,1384.07" id="path14" style="fill:#ffffff;fill-opacity:1;fill-rule:nonzero;stroke:none"/><path d="m 3800.51,1650.26 c -5.57,-20.11 -13.45,-39.6 -23.23,-58.23 h 2385.63 c 43.4,16.02 99.83,38.33 99.83,38.33 l 48.53,19.9 H 3800.51" id="path16" style="fill:#ffffff;fill-opacity:1;fill-rule:nonzero;stroke:none"/><path d="m 7448.19,5871.15 -0.01,-79.59 -147.34,0.02 0.01,79.59 -258.82,0.02 v -79.59 l -147.34,0.02 0.01,79.59 -258.82,0.01 -0.01,-79.58 -147.34,0.02 0.01,79.58 -258.81,0.02 -0.01,-79.58 -147.34,0.01 0.01,79.59 -258.82,0.02 v -79.59 l -147.34,0.02 0.01,79.59 -258.82,0.02 -0.01,-79.59 -147.33,0.02 v 79.59 l -258.81,0.02 -0.01,-79.59 -147.33,0.02 v 79.58 l -258.81,0.02 -0.01,-79.56 -147.34,0.02 0.01,79.56 -258.82,0.02 -0.01,-79.57 -147.33,0.02 0.01,79.57 -258.82,0.02 -0.01,-79.57 -147.34,0.02 0.01,79.57 -258.81,0.02 -0.01,-79.57 -147.34,0.02 0.01,79.56 -258.82,0.02 -0.01,-79.56 -147.34,0.02 0.01,79.56 -258.81,0.04 -0.01,-79.58 -147.34,0.02 0.01,79.58 -258.82,0.02 v -79.58 l -149.99,0.01 0.02,174.32 5839.36,-0.57 -0.01,-174.32 -150.57,0.02 0.01,79.57 z m 322.64,-690.53 V 5098 H 2104.96 v 82.62 z M 6162.24,4827.41 6110.26,2059.58 h -143.88 v -117.43 h -304.67 l 0.83,1178.78 -58.24,0.04 -0.83,-1178.82 h -69.67 l 0.14,1410.82 H 4341.99 V 1942.15 h -70.74 v 1480.77 h 1333.26 l -0.15,-222.39 58.23,-0.04 0.2,280.67 H 4213.01 V 1942.15 h -312.03 v 117.43 h -151.53 l -51.99,2767.83 h 172.44 v 212.36 H 5980.08 V 4827.41 Z M 5475.56,1942.15 H 4967.01 V 3175.6 h -58.23 V 1942.15 h -508.55 l 0.14,1352.58 h 1075.19 z m 2440.23,3791.14 0.03,290.79 -5469.9,0.52 2488,995.39 2442.49,-990.07 21.87,53.99 -2453.35,994.45 -10.87,4.42 -2536.1,-1014.65 17.42,-43.53 -455.39,0.04 -0.03,-290.78 209.08,-0.02 V 5571.3 h -122.32 v -199.09 h 122.32 v -133.35 h -122.32 v -199.09 h 112.66 v -212.36 h 182.15 l -44.61,-2278.53 c 14.87,-16.36 37.66,-41.59 57.04,-61.65 l 46.91,2398.41 h -183.26 v 154.13 H 3811.67 V 4885.64 H 3533.1 v -58.23 h 106.12 l 50.31,-2679.26 c 26.39,-46.69 51.25,-96.45 68.47,-146.81 h 84.74 v -59.19 h -68.92 c 3.58,-19.18 6,-38.74 8.15,-58.23 H 6425.2 c 42.28,19.49 84.59,38.88 126.92,58.23 h -527.5 v 59.19 h 188.5 v 58.24 h -44.62 l 51.99,2767.83 h 39.72 v 58.23 h -221.89 v 154.13 h 889.52 v -212.36 h 182.15 l -2.83,-151.29 h -423.17 v -58.23 h 422.07 l -13,-692.03 h -91.24 v -58.23 h 90.15 l -4.75,-252.44 h -299.25 v -58.24 h 298.16 l -12.93,-688.74 h -65.5 v -58.24 h 64.4 l -11.78,-627.47 c 19.8,10.1 39.45,20.48 58.83,31.32 l 49.09,2613.59 h 47.43 v 58.23 h -229.59 v 154.13 h 650.87 v -154.13 h -254.81 v -58.23 h 82.35 l 41.9,-2231.19 c 18.63,8.72 38.01,15.39 57.87,20.02 l -41.52,2211.17 h 172.44 v 212.36 h 133.88 v 199.09 h -123.7 v 133.35 h 123.7 v 199.09 h -123.7 v 114.46 h -58.24 V 5571.3 H 5665.84 v -58.24 h 2104.99 v -82.62 H 5665.84 v -58.23 H 7647.12 V 5238.86 H 2227.27 v 133.35 h 1951.35 v 58.23 H 2104.96 v 82.62 h 2073.66 v 58.24 H 2227.27 v 199.32 h -0.85 l 0.01,42.8 142.34,-0.02 -0.01,-79.58 263.82,-0.02 v 79.58 l 142.34,-0.04 -0.01,-79.56 263.81,-0.02 0.01,79.57 142.35,-0.02 -0.01,-79.56 263.81,-0.02 0.01,79.56 142.34,-0.02 -0.01,-79.56 263.81,-0.02 0.01,79.56 142.34,-0.02 v -79.56 l 263.8,-0.02 0.01,79.56 142.34,-0.02 v -79.56 l 263.81,-0.02 0.01,79.56 142.34,-0.02 -0.01,-79.58 263.81,-0.02 0.01,79.58 142.34,-0.01 -0.01,-79.58 263.82,-0.02 0.01,79.58 142.33,-0.02 v -79.58 l 263.81,-0.02 0.01,79.58 142.34,-0.02 -0.01,-79.58 263.82,-0.02 v 79.58 l 142.34,-0.02 -0.01,-79.58 263.81,-0.02 0.01,79.58 142.35,-0.01 -0.01,-79.59 263.82,-0.02 v 79.59 l 142.34,-0.02 -0.01,-79.59 263.81,-0.01 0.01,79.58 142.34,-0.04 v -79.56 l 267.03,-0.02" id="path18" style="fill:#ffffff;fill-opacity:1;fill-rule:nonzero;stroke:none"/><path d="m 4179.61,4439.25 h 584.86 v -297.16 h -163.73 v 222.58 h -58.23 v -222.58 h -284.8 v -58.23 h 284.8 v -361.32 h -362.9 z m 421.13,-716.71 v 361.32 h 163.73 v -361.32 z m -479.37,-58.23 h 701.34 v 833.18 h -701.34 v -833.18" id="path20" style="fill:#ffffff;fill-opacity:1;fill-rule:nonzero;stroke:none"/><path d="m 5097.06,4439.25 h 584.86 v -297.16 h -155.24 v 222.58 h -58.24 v -222.58 h -284.8 v -58.23 h 284.8 v -361.32 h -371.38 z m 429.62,-716.71 v 361.32 h 155.24 v -361.32 z m -487.86,-58.23 h 701.34 v 833.18 h -701.34 v -833.18" id="path22" style="fill:#ffffff;fill-opacity:1;fill-rule:nonzero;stroke:none"/><path d="m 7326.65,4885.64 h -55.49 v -58.23 h 55.49 v 58.23" id="path24" style="fill:#ffffff;fill-opacity:1;fill-rule:nonzero;stroke:none"/><path d="m 3797.99,1796.22 c 6.49,-19.2 10.23,-38.72 11.67,-58.24 h 1536.28 v 58.24 H 3797.99" id="path26" style="fill:#ffffff;fill-opacity:1;fill-rule:nonzero;stroke:none"/><path d="m 5526.44,1737.98 h 624.25 v 58.24 h -624.25 v -58.24" id="path28" style="fill:#ffffff;fill-opacity:1;fill-rule:nonzero;stroke:none"/><path d="m 4487.78,5393.87 h -79.35 v 70.83 h 79.35 c 21.24,0 51.48,-13 51.48,-37.76 0,-26 -30.24,-33.07 -51.48,-33.07 z m -79.35,179.85 h 79.35 c 33.02,0 43.23,-21.27 43.23,-33.85 0,-15.76 -10.59,-29.53 -43.23,-29.53 h -79.35 z m 174.06,-32.69 c 0,55.52 -40.5,79.9 -94.71,79.9 -43.61,0 -87.21,0 -130.44,0 v -275.47 c 43.6,0 86.83,0 130.44,0 56.97,0 102.96,19.69 102.96,81.06 0,17.34 -11.82,51.56 -44.03,61.4 25.53,11.43 35.78,31.88 35.78,53.11" id="path30" style="fill:#ffffff;fill-opacity:1;fill-rule:nonzero;stroke:none"/><path d="m 4724.92,5445.82 51.1,117.28 51.05,-117.28 z m 22.81,175.11 -123.38,-275.47 h 56.19 l 23.57,51.95 h 143.81 l 23.19,-51.95 h 56.54 l -123.34,275.47 h -56.58" id="path32" style="fill:#ffffff;fill-opacity:1;fill-rule:nonzero;stroke:none"/><path d="m 5167.63,5450.13 -134.75,170.8 h -42.03 v -275.47 h 51.86 v 185.76 l 144.57,-186.15 32.21,0.39 v 275.86 h -51.86 v -171.19" id="path34" style="fill:#ffffff;fill-opacity:1;fill-rule:nonzero;stroke:none"/><path d="m 5287.43,5620.93 v -275.47 h 51.86 v 122.01 l 115.12,-122.01 h 64.04 v 3.15 l -132.41,138.93 122.19,131.82 v 1.57 h -64.41 l -104.53,-116.47 v 116.47 h -51.86" id="path36" style="fill:#ffffff;fill-opacity:1;fill-rule:nonzero;stroke:none"/><path d="m 3286.38,5200.67 392.93,-870.43 c 0,0 -28.99,-53.25 29.41,-37.57 104.34,28.01 194.43,326.77 194.43,326.77 l -195.11,1078.91 -555.87,-291.94 134.21,-205.74" id="path38" style="fill:#93e7f3;fill-opacity:1;fill-rule:nonzero;stroke:none"/><path d="m 4611.27,4454.53 -992.42,310.33 c 0,0 -171.69,-263.54 -140.51,-370.9 43.41,-149.42 613.83,-197.95 613.83,-197.95 l 511.76,24.04 7.34,234.48" id="path40" style="fill:#ffd0ce;fill-opacity:1;fill-rule:nonzero;stroke:none"/><path d="m 3270.32,5567.4 -399.7,170.87 46.77,537.8 371.42,-155.25 54.68,-362.32 -73.17,-191.1" id="path42" style="fill:#ffc6c3;fill-opacity:1;fill-rule:nonzero;stroke:none"/><path d="m 2912.54,5725.41 379.57,-39.05 164.79,72.14 -48.27,-720.62 -496.09,687.53" id="path44" style="fill:#93e7f3;fill-opacity:1;fill-rule:nonzero;stroke:none"/><path d="m 2265.42,3338.55 -405.95,785.13 382.01,20.3 251.79,-738.18 -227.85,-67.25" id="path46" style="fill:#ffd0ce;fill-opacity:1;fill-rule:nonzero;stroke:none"/><path d="m 2811.72,2080.21 c 114.25,-84.25 217.62,-160.87 350.03,-230.48 l 76.58,507.08 74.39,-564.96 2.79,-25.87 c 26.83,-13.78 53.74,-25.88 80.5,-40.02 177.04,-93.58 451.19,-180.22 451.19,-180.22 l -23.41,2175.08 H 2618.91 l -138.31,-714.39 80.12,-720.56 c 103.59,-91.74 180.24,-153.49 251,-205.66" id="path48" style="fill:#00d0d3;fill-opacity:1;fill-rule:nonzero;stroke:none"/><path d="m 2288.86,5545.86 c 67.35,145.09 559.2,308.39 559.2,308.39 l 346.76,-286.85 207.48,-339.87 -19.25,439.16 19.25,185.64 311.32,-149.77 133.35,-748.19 0.13,-1294.09 -312.91,-90.66 h -964.3 l -49.01,808.05 c 0,0 -335.87,944.45 -232.02,1168.19" id="path50" style="fill:#1282c6;fill-opacity:1;fill-rule:nonzero;stroke:none"/><path d="m 1800.33,4090.06 c 0,0 256.61,1022.07 354.56,1210.72 33.85,65.2 140.58,285.13 214.04,285.93 175.51,1.91 302.61,-494.59 294.1,-669.9 -13.3,-273.98 -397.61,-807.14 -397.61,-807.14 l -465.09,-19.61" id="path52" style="fill:#93e7f3;fill-opacity:1;fill-rule:nonzero;stroke:none"/><path d="m 2934.38,6293.36 183.09,-269.62 315.31,46.45 10.24,38.18 -40.72,29.87 -0.5,160.27 80.12,44 -115.39,150.67 -79.09,219.47 -254,-77.78 -109.11,-33.32 -41.34,-44.08 51.39,-264.11" id="path54" style="fill:#ffd0ce;fill-opacity:1;fill-rule:nonzero;stroke:none"/><path d="m 2756.55,5773.18 101.41,144.34 434.15,-231.16 -75.95,-202.97 -459.61,289.79" id="path56" style="fill:#bcf1f7;fill-opacity:1;fill-rule:nonzero;stroke:none"/><path d="m 3292.11,5686.36 40.94,262.9 85.89,-46.85 v -281.13 l -126.83,65.08" id="path58" style="fill:#bcf1f7;fill-opacity:1;fill-rule:nonzero;stroke:none"/><path d="m 2482.65,3414.84 139.38,-79.46 c 0,0 85.63,-105.5 94.71,-132.38 3.38,-10.03 -15.48,-34.33 -15.71,-83.97 -0.14,-30.1 -24.97,-43.11 -35.07,-49.85 -14.03,-9.37 -20.09,-21.92 -46.84,-48.6 -4.5,-4.5 -64.4,-6.83 -75.13,-3.31 -7.18,2.35 -67.56,23.46 -77.87,41.12 -8.11,13.86 -9.81,26.83 -10.72,51.93 -0.71,19.79 6.78,25.14 16.72,26.48 12.63,1.7 25.08,-12.45 35.13,-48.48 0,0 28.16,-12.3 30.9,-2.48 5.8,20.88 -50.27,53.32 -74.51,66.32 -40.18,21.55 -98.14,5.31 -127.2,35.73 -43.46,45.5 -71.02,150.66 -71.02,150.66 l 217.23,76.29" id="path60" style="fill:#ffd0ce;fill-opacity:1;fill-rule:nonzero;stroke:none"/><path d="m 3283.56,6665.99 c -80.52,-72.05 -427.38,-149.07 -427.38,-149.07 0,0 -99.35,217.63 46.03,254.55 331,84.07 359.82,167.85 359.82,167.85 0,0 141.52,-165.95 21.53,-273.33" id="path62" style="fill:#003977;fill-opacity:1;fill-rule:nonzero;stroke:none"/><path d="m 2940.29,6276.34 -31.84,-103.04 c 0,0 -119.02,97.57 -163.2,163.4 -81.96,122.1 -82.35,249.14 80.85,381.33 l 28.45,-37.46 116.88,-240.02 c 16.74,-50.14 5.78,-107.93 -31.14,-164.21" id="path64" style="fill:#003977;fill-opacity:1;fill-rule:nonzero;stroke:none"/><path d="m 2891.93,6323.12 c 4.14,27.65 29.69,46.73 57.06,42.62 27.37,-4.1 46.21,-29.84 42.06,-57.48 -4.14,-27.64 -29.69,-46.72 -57.06,-42.62 -27.38,4.11 -46.2,29.84 -42.06,57.48" id="path66" style="fill:#ffc6c3;fill-opacity:1;fill-rule:nonzero;stroke:none"/><path d="m 3363.8,6178.35 38.36,4.39 0.14,-44.5 z" id="path68" style="fill:#003977;fill-opacity:1;fill-rule:nonzero;stroke:none"/><path d="m 4603.93,4220.05 c 0,0 137.54,8.58 184.71,6.01 110.37,-6.01 290.1,35.56 290.1,35.56 0,0 169.98,62.73 182.69,122.56 1.57,7.43 -5.2,38.5 -5.2,38.5 0,0 22.04,30.42 24.46,41.9 1.61,7.67 2.5,20.62 -3.37,25.83 -4.12,3.65 -31.15,11.79 -31.15,11.79 0,0 2.94,23.45 1.16,29.69 -2.35,8.21 -11.14,13.13 -19.59,14.31 -40.59,5.68 -152.73,-8.78 -200.51,-19.41 -63.35,-14.09 -163.35,10.14 -163.35,10.14 0,0 109.68,35.14 119.28,58.82 12.24,30.23 -10.93,60.86 -10.93,60.86 0,0 -39.28,-35.27 -120.93,-48.33 -57.33,-9.18 -53.96,7.31 -131.2,-32.13 -18.1,-9.25 -76.79,-87.42 -76.79,-87.42 l -82.64,-18.37 43.26,-250.31" id="path70" style="fill:#ffc6c3;fill-opacity:1;fill-rule:nonzero;stroke:none"/><path d="m 5110.44,3304.83 c -2.39,4.3 -0.89,7.15 -1.62,8.33 -1.51,2.45 -8.09,-0.43 -10.31,1.48 -8.74,7.49 -5.81,21.52 -0.01,29.32 17.14,23.07 41.2,42.17 67.44,52.66 9.12,3.64 54.47,58.91 54.47,58.91 0,0 -79.61,-36.69 -119.37,-85.2 -11.1,-13.54 -39.17,-20.61 -22.67,25.91 21.77,61.36 137.53,130.39 175.87,183.42 53.99,74.67 75.97,220.92 152.91,249.23 147.22,54.19 150.64,140.58 150.64,140.58 l 125.17,-143.44 c 0,0 -29.35,-127.83 -123.44,-182.39 -14.03,-6.47 -18.19,-38.02 -73.64,-127.67 -37.94,-61.35 -86.16,-77.02 -101.52,-97.33 -58.99,-77.95 -114.58,-83.55 -131.28,-99.38 -17.37,-16.46 -34.02,-5.57 -23.08,13.09 17.09,29.15 60.29,50.32 60.29,50.32 0,0 -58.08,-39.58 -72.11,-52.17 -8.92,-8 -53.5,-17.15 -70.35,-27.53 -3.97,-2.44 -30.93,-9.75 -37.39,1.86" id="path72" style="fill:#ffd0ce;fill-opacity:1;fill-rule:nonzero;stroke:none"/><path d="m 5434.69,3735.82 c 11.82,21.91 29.34,104.18 -30.79,98.47 -56.78,-5.38 -73.88,-23.26 -131.19,-104.19 -45.82,-64.72 -145.18,-70.34 -154.87,-97.36 -4.8,-13.37 30.24,-30.51 51.26,-33.87 35.52,-5.67 63.79,22.86 129.51,38.82 46.31,11.25 113.97,57.12 136.08,98.13" id="path74" style="fill:#ffc6c3;fill-opacity:1;fill-rule:nonzero;stroke:none"/><path d="m 6041.96,5151.48 -193,-665.12 -412.84,-626.02 184.12,-199.02 c 0,0 44.21,21.46 97.06,60.74 232.56,172.83 477,545.18 554.83,641.18 33.17,40.92 94.76,339.24 97.74,625.28 0.61,58.52 -30.27,335.19 -41.78,417.27 -17.53,125.07 -286.13,-254.31 -286.13,-254.31" id="path76" style="fill:#0964b7;fill-opacity:1;fill-rule:nonzero;stroke:none"/><g id="g78"><g clip-path="url(#clipPath84)" id="g80"><path d="m 5866.79,1540.69 0.19,3.77 821.43,-40.68 -0.19,-3.78 z" id="path86" style="fill:#f8b9b7;fill-opacity:1;fill-rule:nonzero;stroke:none"/><path d="m 5866.98,1544.46 0.19,3.79 821.42,-40.69 -0.18,-3.78 z" id="path88" style="fill:#f8b9b6;fill-opacity:1;fill-rule:nonzero;stroke:none"/><path d="m 5867.17,1548.25 0.19,3.78 821.42,-40.69 -0.19,-3.78 z" id="path90" style="fill:#f8b9b6;fill-opacity:1;fill-rule:nonzero;stroke:none"/><path d="m 5867.36,1552.03 0.18,3.78 821.42,-40.68 -0.18,-3.79 z" id="path92" style="fill:#f8b9b6;fill-opacity:1;fill-rule:nonzero;stroke:none"/><path d="m 5867.54,1555.81 0.19,3.78 821.42,-40.68 -0.19,-3.78 z" id="path94" style="fill:#f8b8b6;fill-opacity:1;fill-rule:nonzero;stroke:none"/><path d="m 5867.73,1559.59 0.19,3.78 821.42,-40.69 -0.19,-3.77 z" id="path96" style="fill:#f8b8b6;fill-opacity:1;fill-rule:nonzero;stroke:none"/><path d="m 5867.92,1563.37 0.19,3.78 821.42,-40.69 -0.19,-3.78 z" id="path98" style="fill:#f8b8b5;fill-opacity:1;fill-rule:nonzero;stroke:none"/><path d="m 5868.11,1567.15 0.18,3.78 821.42,-40.68 -0.18,-3.79 z" id="path100" style="fill:#f8b8b5;fill-opacity:1;fill-rule:nonzero;stroke:none"/><path d="m 5868.29,1570.93 0.19,3.78 821.42,-40.68 -0.19,-3.78 z" id="path102" style="fill:#f8b8b5;fill-opacity:1;fill-rule:nonzero;stroke:none"/><path d="m 5868.48,1574.71 0.19,3.79 821.42,-40.69 -0.19,-3.78 z" id="path104" style="fill:#f8b8b5;fill-opacity:1;fill-rule:nonzero;stroke:none"/><path d="m 5868.67,1578.5 0.19,3.78 821.42,-40.69 -0.19,-3.78 z" id="path106" style="fill:#f8b7b5;fill-opacity:1;fill-rule:nonzero;stroke:none"/><path d="m 5868.86,1582.28 0.18,3.78 821.42,-40.69 -0.18,-3.78 z" id="path108" style="fill:#f7b7b5;fill-opacity:1;fill-rule:nonzero;stroke:none"/><path d="m 5869.04,1586.06 0.19,3.78 821.42,-40.69 -0.19,-3.78 z" id="path110" style="fill:#f7b7b4;fill-opacity:1;fill-rule:nonzero;stroke:none"/><path d="m 5869.23,1589.84 0.18,3.78 821.43,-40.69 -0.19,-3.78 z" id="path112" style="fill:#f7b7b4;fill-opacity:1;fill-rule:nonzero;stroke:none"/><path d="m 5869.41,1593.62 0.19,3.78 821.43,-40.69 -0.19,-3.78 z" id="path114" style="fill:#f7b7b4;fill-opacity:1;fill-rule:nonzero;stroke:none"/><path d="m 5869.6,1597.4 0.19,3.78 821.42,-40.68 -0.18,-3.79 z" id="path116" style="fill:#f7b7b4;fill-opacity:1;fill-rule:nonzero;stroke:none"/><path d="m 5869.79,1601.18 0.19,3.78 821.42,-40.68 -0.19,-3.78 z" id="path118" style="fill:#f7b6b4;fill-opacity:1;fill-rule:nonzero;stroke:none"/><path d="m 5869.98,1604.96 0.18,3.78 821.43,-40.68 -0.19,-3.78 z" id="path120" style="fill:#f7b6b4;fill-opacity:1;fill-rule:nonzero;stroke:none"/><path d="m 5870.16,1608.74 0.19,3.78 821.43,-40.68 -0.19,-3.78 z" id="path122" style="fill:#f7b6b3;fill-opacity:1;fill-rule:nonzero;stroke:none"/><path d="m 5870.35,1612.52 0.19,3.78 821.42,-40.68 -0.18,-3.78 z" id="path124" style="fill:#f7b6b3;fill-opacity:1;fill-rule:nonzero;stroke:none"/><path d="m 5870.54,1616.3 0.19,3.79 821.42,-40.69 -0.19,-3.78 z" id="path126" style="fill:#f7b6b3;fill-opacity:1;fill-rule:nonzero;stroke:none"/><path d="m 5870.73,1620.09 0.18,3.78 821.43,-40.69 -0.19,-3.78 z" id="path128" style="fill:#f7b6b3;fill-opacity:1;fill-rule:nonzero;stroke:none"/><path d="m 5870.91,1623.87 0.19,3.78 821.42,-40.69 -0.18,-3.78 z" id="path130" style="fill:#f7b5b3;fill-opacity:1;fill-rule:nonzero;stroke:none"/><path d="m 5871.1,1627.65 0.19,3.78 821.42,-40.69 -0.19,-3.78 z" id="path132" style="fill:#f7b5b2;fill-opacity:1;fill-rule:nonzero;stroke:none"/><path d="m 5871.29,1631.43 0.19,3.78 821.42,-40.69 -0.19,-3.78 z" id="path134" style="fill:#f7b5b2;fill-opacity:1;fill-rule:nonzero;stroke:none"/><path d="m 5871.48,1635.21 0.18,3.78 821.43,-40.69 -0.19,-3.78 z" id="path136" style="fill:#f7b5b2;fill-opacity:1;fill-rule:nonzero;stroke:none"/><path d="m 5871.66,1638.99 0.19,3.78 821.42,-40.68 -0.18,-3.79 z" id="path138" style="fill:#f7b5b2;fill-opacity:1;fill-rule:nonzero;stroke:none"/><path d="m 5871.85,1642.77 0.19,3.78 821.42,-40.68 -0.19,-3.78 z" id="path140" style="fill:#f7b4b2;fill-opacity:1;fill-rule:nonzero;stroke:none"/><path d="m 5872.04,1646.55 0.19,3.79 821.42,-40.69 -0.19,-3.78 z" id="path142" style="fill:#f7b4b2;fill-opacity:1;fill-rule:nonzero;stroke:none"/><path d="m 5872.23,1650.34 0.18,3.78 821.43,-40.69 -0.19,-3.78 z" id="path144" style="fill:#f7b4b1;fill-opacity:1;fill-rule:nonzero;stroke:none"/><path d="m 5872.41,1654.12 0.19,3.77 821.42,-40.68 -0.18,-3.78 z" id="path146" style="fill:#f7b4b1;fill-opacity:1;fill-rule:nonzero;stroke:none"/><path d="m 5872.6,1657.89 0.19,3.79 821.42,-40.69 -0.19,-3.78 z" id="path148" style="fill:#f6b4b1;fill-opacity:1;fill-rule:nonzero;stroke:none"/><path d="m 5872.79,1661.68 0.18,3.78 821.43,-40.69 -0.19,-3.78 z" id="path150" style="fill:#f6b4b1;fill-opacity:1;fill-rule:nonzero;stroke:none"/><path d="m 5872.97,1665.46 0.19,3.78 821.43,-40.69 -0.19,-3.78 z" id="path152" style="fill:#f6b3b1;fill-opacity:1;fill-rule:nonzero;stroke:none"/><path d="m 5873.16,1669.24 0.19,3.78 821.42,-40.68 -0.18,-3.79 z" id="path154" style="fill:#f6b3b1;fill-opacity:1;fill-rule:nonzero;stroke:none"/><path d="m 5873.35,1673.02 0.19,3.78 821.42,-40.68 -0.19,-3.78 z" id="path156" style="fill:#f6b3b0;fill-opacity:1;fill-rule:nonzero;stroke:none"/><path d="m 5873.54,1676.8 0.18,3.78 821.43,-40.69 -0.19,-3.77 z" id="path158" style="fill:#f6b3b0;fill-opacity:1;fill-rule:nonzero;stroke:none"/><path d="m 5873.72,1680.58 0.19,3.78 821.42,-40.68 -0.18,-3.79 z" id="path160" style="fill:#f6b3b0;fill-opacity:1;fill-rule:nonzero;stroke:none"/><path d="m 5873.91,1684.36 0.19,3.78 821.42,-40.68 -0.19,-3.78 z" id="path162" style="fill:#f6b3b0;fill-opacity:1;fill-rule:nonzero;stroke:none"/><path d="m 5874.1,1688.14 0.19,3.79 821.42,-40.69 -0.19,-3.78 z" id="path164" style="fill:#f6b2b0;fill-opacity:1;fill-rule:nonzero;stroke:none"/><path d="m 5874.29,1691.93 0.18,3.78 821.42,-40.69 -0.18,-3.78 z" id="path166" style="fill:#f6b2af;fill-opacity:1;fill-rule:nonzero;stroke:none"/><path d="m 5874.47,1695.71 0.19,3.78 821.42,-40.69 -0.19,-3.78 z" id="path168" style="fill:#f6b2af;fill-opacity:1;fill-rule:nonzero;stroke:none"/><path d="m 5874.66,1699.49 0.19,3.78 821.42,-40.69 -0.19,-3.78 z" id="path170" style="fill:#f6b2af;fill-opacity:1;fill-rule:nonzero;stroke:none"/><path d="m 5874.85,1703.27 0.19,3.78 821.42,-40.69 -0.19,-3.78 z" id="path172" style="fill:#f6b2af;fill-opacity:1;fill-rule:nonzero;stroke:none"/><path d="m 5875.04,1707.05 0.18,3.78 821.42,-40.69 -0.18,-3.78 z" id="path174" style="fill:#f6b2af;fill-opacity:1;fill-rule:nonzero;stroke:none"/><path d="m 5875.22,1710.83 0.19,3.78 821.42,-40.68 -0.19,-3.79 z" id="path176" style="fill:#f6b1af;fill-opacity:1;fill-rule:nonzero;stroke:none"/><path d="m 5875.41,1714.61 0.18,3.78 821.43,-40.68 -0.19,-3.78 z" id="path178" style="fill:#f6b1ae;fill-opacity:1;fill-rule:nonzero;stroke:none"/><path d="m 5875.59,1718.39 0.19,3.78 821.43,-40.68 -0.19,-3.78 z" id="path180" style="fill:#f6b1ae;fill-opacity:1;fill-rule:nonzero;stroke:none"/><path d="m 5875.78,1722.17 0.19,3.78 821.42,-40.68 -0.18,-3.78 z" id="path182" style="fill:#f6b1ae;fill-opacity:1;fill-rule:nonzero;stroke:none"/><path d="m 5875.97,1725.95 0.19,3.78 821.42,-40.68 -0.19,-3.78 z" id="path184" style="fill:#f6b1ae;fill-opacity:1;fill-rule:nonzero;stroke:none"/><path d="m 5876.16,1729.73 0.18,3.79 821.43,-40.69 -0.19,-3.78 z" id="path186" style="fill:#f6b1ae;fill-opacity:1;fill-rule:nonzero;stroke:none"/><path d="m 5876.34,1733.52 0.19,3.78 821.43,-40.69 -0.19,-3.78 z" id="path188" style="fill:#f5b0ae;fill-opacity:1;fill-rule:nonzero;stroke:none"/><path d="m 5876.53,1737.3 0.19,3.78 821.42,-40.69 -0.18,-3.78 z" id="path190" style="fill:#f5b0ad;fill-opacity:1;fill-rule:nonzero;stroke:none"/><path d="m 5876.72,1741.08 0.19,3.78 821.42,-40.69 -0.19,-3.78 z" id="path192" style="fill:#f5b0ad;fill-opacity:1;fill-rule:nonzero;stroke:none"/><path d="m 5876.91,1744.86 0.18,3.78 821.43,-40.69 -0.19,-3.78 z" id="path194" style="fill:#f5b0ad;fill-opacity:1;fill-rule:nonzero;stroke:none"/><path d="m 5877.09,1748.64 0.19,3.78 821.42,-40.69 -0.18,-3.78 z" id="path196" style="fill:#f5b0ad;fill-opacity:1;fill-rule:nonzero;stroke:none"/><path d="m 5877.28,1752.42 0.19,3.78 821.42,-40.68 -0.19,-3.79 z" id="path198" style="fill:#f5b0ad;fill-opacity:1;fill-rule:nonzero;stroke:none"/><path d="m 5877.47,1756.2 0.19,3.78 821.42,-40.68 -0.19,-3.78 z" id="path200" style="fill:#f5afac;fill-opacity:1;fill-rule:nonzero;stroke:none"/><path d="m 5877.66,1759.98 0.18,3.79 821.43,-40.69 -0.19,-3.78 z" id="path202" style="fill:#f5afac;fill-opacity:1;fill-rule:nonzero;stroke:none"/><path d="m 5877.84,1763.77 0.19,3.78 821.42,-40.69 -0.18,-3.78 z" id="path204" style="fill:#f5afac;fill-opacity:1;fill-rule:nonzero;stroke:none"/><path d="m 5878.03,1767.55 0.19,3.78 821.42,-40.69 -0.19,-3.78 z" id="path206" style="fill:#f5afac;fill-opacity:1;fill-rule:nonzero;stroke:none"/><path d="m 5878.22,1771.33 0.19,3.78 821.42,-40.69 -0.19,-3.78 z" id="path208" style="fill:#f5afac;fill-opacity:1;fill-rule:nonzero;stroke:none"/><path d="m 5878.41,1775.11 0.18,3.78 821.43,-40.69 -0.19,-3.78 z" id="path210" style="fill:#f5aeac;fill-opacity:1;fill-rule:nonzero;stroke:none"/><path d="m 5878.59,1778.89 0.19,3.78 821.42,-40.69 -0.18,-3.78 z" id="path212" style="fill:#f5aeab;fill-opacity:1;fill-rule:nonzero;stroke:none"/><path d="m 5878.78,1782.67 0.18,3.78 821.43,-40.68 -0.19,-3.79 z" id="path214" style="fill:#f5aeab;fill-opacity:1;fill-rule:nonzero;stroke:none"/><path d="m 5878.96,1786.45 0.19,3.78 821.43,-40.68 -0.19,-3.78 z" id="path216" style="fill:#f5aeab;fill-opacity:1;fill-rule:nonzero;stroke:none"/><path d="m 5879.15,1790.23 0.19,3.78 821.43,-40.69 -0.19,-3.77 z" id="path218" style="fill:#f5aeab;fill-opacity:1;fill-rule:nonzero;stroke:none"/><path d="m 5879.34,1794.01 0.19,3.78 821.42,-40.68 -0.18,-3.79 z" id="path220" style="fill:#f5aeab;fill-opacity:1;fill-rule:nonzero;stroke:none"/><path d="m 5879.53,1797.79 0.18,3.78 821.43,-40.68 -0.19,-3.78 z" id="path222" style="fill:#f5adab;fill-opacity:1;fill-rule:nonzero;stroke:none"/><path d="m 5879.71,1801.57 0.19,3.79 821.43,-40.69 -0.19,-3.78 z" id="path224" style="fill:#f5adaa;fill-opacity:1;fill-rule:nonzero;stroke:none"/><path d="m 5879.9,1805.36 0.19,3.78 821.43,-40.69 -0.19,-3.78 z" id="path226" style="fill:#f5adaa;fill-opacity:1;fill-rule:nonzero;stroke:none"/><path d="m 5880.09,1809.14 0.19,3.78 821.42,-40.69 -0.18,-3.78 z" id="path228" style="fill:#f4adaa;fill-opacity:1;fill-rule:nonzero;stroke:none"/><path d="m 5880.28,1812.92 0.18,3.78 821.43,-40.69 -0.19,-3.78 z" id="path230" style="fill:#f4adaa;fill-opacity:1;fill-rule:nonzero;stroke:none"/><path d="m 5880.46,1816.7 0.19,3.78 821.42,-40.69 -0.18,-3.78 z" id="path232" style="fill:#f4adaa;fill-opacity:1;fill-rule:nonzero;stroke:none"/><path d="m 5880.65,1820.48 0.19,3.78 821.42,-40.69 -0.19,-3.78 z" id="path234" style="fill:#f4aca9;fill-opacity:1;fill-rule:nonzero;stroke:none"/><path d="m 5880.84,1824.26 0.19,3.78 821.42,-40.68 -0.19,-3.79 z" id="path236" style="fill:#f4aca9;fill-opacity:1;fill-rule:nonzero;stroke:none"/><path d="m 5881.03,1828.04 0.18,3.78 821.43,-40.68 -0.19,-3.78 z" id="path238" style="fill:#f4aca9;fill-opacity:1;fill-rule:nonzero;stroke:none"/><path d="m 5881.21,1831.82 0.19,3.78 821.42,-40.68 -0.18,-3.78 z" id="path240" style="fill:#f4aca9;fill-opacity:1;fill-rule:nonzero;stroke:none"/><path d="m 5881.4,1835.6 0.19,3.78 821.42,-40.68 -0.19,-3.78 z" id="path242" style="fill:#f4aca9;fill-opacity:1;fill-rule:nonzero;stroke:none"/><path d="m 5881.59,1839.38 0.19,3.78 821.42,-40.68 -0.19,-3.78 z" id="path244" style="fill:#f4aca9;fill-opacity:1;fill-rule:nonzero;stroke:none"/><path d="m 5881.78,1843.16 0.18,3.79 821.43,-40.69 -0.19,-3.78 z" id="path246" style="fill:#f4aba8;fill-opacity:1;fill-rule:nonzero;stroke:none"/><path d="m 5881.96,1846.95 0.19,3.78 821.42,-40.69 -0.18,-3.78 z" id="path248" style="fill:#f4aba8;fill-opacity:1;fill-rule:nonzero;stroke:none"/><path d="m 5882.15,1850.73 0.19,3.78 821.42,-40.69 -0.19,-3.78 z" id="path250" style="fill:#f4aba8;fill-opacity:1;fill-rule:nonzero;stroke:none"/><path d="m 5882.34,1854.51 0.18,3.78 821.43,-40.69 -0.19,-3.78 z" id="path252" style="fill:#f4aba8;fill-opacity:1;fill-rule:nonzero;stroke:none"/><path d="m 5882.52,1858.29 0.19,3.78 821.43,-40.69 -0.19,-3.78 z" id="path254" style="fill:#f4aba8;fill-opacity:1;fill-rule:nonzero;stroke:none"/><path d="m 5882.71,1862.07 0.19,3.78 821.42,-40.69 -0.18,-3.78 z" id="path256" style="fill:#f4aba8;fill-opacity:1;fill-rule:nonzero;stroke:none"/><path d="m 5882.9,1865.85 0.19,3.78 821.42,-40.68 -0.19,-3.79 z" id="path258" style="fill:#f4aaa7;fill-opacity:1;fill-rule:nonzero;stroke:none"/><path d="m 5883.09,1869.63 0.18,3.78 821.43,-40.68 -0.19,-3.78 z" id="path260" style="fill:#f4aaa7;fill-opacity:1;fill-rule:nonzero;stroke:none"/><path d="m 5883.27,1873.41 0.19,3.79 821.43,-40.69 -0.19,-3.78 z" id="path262" style="fill:#f4aaa7;fill-opacity:1;fill-rule:nonzero;stroke:none"/><path d="m 5883.46,1877.2 0.19,3.78 821.42,-40.69 -0.18,-3.78 z" id="path264" style="fill:#f4aaa7;fill-opacity:1;fill-rule:nonzero;stroke:none"/><path d="m 5883.65,1880.98 0.19,3.78 821.42,-40.69 -0.19,-3.78 z" id="path266" style="fill:#f4aaa7;fill-opacity:1;fill-rule:nonzero;stroke:none"/><path d="m 5883.84,1884.76 86.46,1745.6 821.42,-40.68 -86.46,-1745.61 z" id="path268" style="fill:#f4aaa7;fill-opacity:1;fill-rule:nonzero;stroke:none"/></g></g><path d="m 6980.13,6211.42 c 142.22,14.32 223.7,150.65 208.67,267.22 -14.38,111.49 -177.58,204.96 -311.99,156.32 -76.95,-27.85 -120.1,-133.87 -108.84,-227.7 12.7,-105.71 34.79,-213.71 212.16,-195.84" id="path270" style="fill:#0050b2;fill-opacity:1;fill-rule:nonzero;stroke:none"/><path d="m 6450.22,5297.51 c 72.45,5.82 176,104.75 247.29,190.44 36.24,43.56 -78.44,146.67 -105.84,151.48 -123.93,21.78 -194.11,20.16 -364.58,-71.51 -24.65,-13.25 127.01,-278.13 223.13,-270.41" id="path272" style="fill:#ffc6c3;fill-opacity:1;fill-rule:nonzero;stroke:none"/><path d="m 6283.42,5913.96 c 0,0 266.14,103.72 263.57,36.46 -7.36,-192.43 12.08,-373.28 12.08,-373.28 -2.64,-75.08 -65.64,-133.81 -140.72,-131.18 -75.09,2.63 -115.98,36.01 -131.19,140.72 -11.34,78.15 -35.79,155.54 -16.42,315.45 0.81,6.72 5.92,12.06 12.68,11.83" id="path274" style="fill:#ffc6c3;fill-opacity:1;fill-rule:nonzero;stroke:none"/><path d="m 6645.51,6068.36 c -38.91,-193.5 -202.96,-239.81 -331.87,-244.23 -51.37,-1.77 -139,17.19 -174.12,34.91 -44.73,22.58 -66.12,117.64 -41.16,251.42 0.26,1.35 -29.47,16.85 -44.61,24.64 -14.61,7.53 -15.89,27.83 -2.44,37.29 24.38,17.15 88.67,73.3 93.89,91.09 56.99,194.08 180.09,272.74 324.54,239.73 144.45,-33 215.64,-236.55 175.77,-434.85" id="path276" style="fill:#ffd0ce;fill-opacity:1;fill-rule:nonzero;stroke:none"/><path d="m 6901.55,6454.59 c -40.45,75.35 -291.34,212.35 -520.24,170.69 -234.26,-42.62 -283.25,-311.92 -251.02,-292.84 53.44,31.64 32.92,1.03 77.33,36.96 10.83,8.76 28.65,50.07 28.65,50.07 l -78.58,-93.98 c 0,0 66.46,3.88 114.31,40.53 28.96,22.18 79.39,81.19 79.39,81.19 0,0 183.41,-147.71 211.77,-319.18 13.11,-79.21 -27.65,-225.95 -17.57,-230.69 25.9,-12.15 115.63,15.85 192.87,50.27 43.02,19.17 93.41,80.51 121.44,112.14 108.04,121.83 74.75,333.21 41.65,394.84" id="path278" style="fill:#0050b2;fill-opacity:1;fill-rule:nonzero;stroke:none"/><path d="m 6828.17,6580.6 c 28.37,27.05 58,57.25 96.89,68.57 64.72,18.84 97.26,-25.1 146.38,-53.53 8.04,-4.65 15.65,5.89 9.68,12.54 -65.8,73.21 -220.78,85.49 -260.73,-23.05 -1.69,-4.58 4.64,-7.53 7.78,-4.53" id="path280" style="fill:#0050b2;fill-opacity:1;fill-rule:nonzero;stroke:none"/><path d="m 6812.95,6569.97 c 20.75,34.2 44.67,68.93 79.58,90.4 74.15,45.6 133.6,-9.14 184.78,-57.66 2.96,-2.81 8.59,1.01 5.92,4.57 -41.47,55.46 -107.74,95.4 -177.96,70.63 -40.41,-14.26 -97.67,-59.55 -99.35,-106.04 -0.14,-3.83 5.15,-5 7.03,-1.9" id="path282" style="fill:#0050b2;fill-opacity:1;fill-rule:nonzero;stroke:none"/><path d="m 6347.22,6489.01 c -1.75,-86.95 40.39,-144.72 112.54,-188.52 38.79,-23.54 63.79,-39.91 81.61,-84.03 14.54,-35.99 25.8,-55.27 61.87,-74.84 7.23,-3.91 14.84,5.47 8.87,11.5 -31.2,31.51 -40.1,57.65 -58.85,95.15 -11.54,23.08 -27.05,37.05 -48.41,50.84 -79.92,51.6 -133.57,89.8 -152.62,190.58 -0.55,2.9 -4.95,2.11 -5.01,-0.68" id="path284" style="fill:#0050b2;fill-opacity:1;fill-rule:nonzero;stroke:none"/><path d="m 6634.15,6085.11 c -12.28,-30.03 -46.34,-44.5 -76.08,-32.34 -29.73,12.16 -43.87,46.36 -31.59,76.39 12.29,30.02 46.34,44.5 76.08,32.33 29.73,-12.16 43.88,-46.36 31.59,-76.38" id="path286" style="fill:#ffc6c3;fill-opacity:1;fill-rule:nonzero;stroke:none"/><path d="m 6158.1,1590.26 c 153.17,51.42 568.26,228.56 869.16,463.02 119.62,93.2 308.17,216.88 600.4,551.31 -136.54,529.68 -228.14,1125.42 -456.91,1453.82 -75.03,107.69 -408.93,415.12 -408.93,415.12 l -797.58,-50.48 c 0,0 -180.65,-166.3 -290,-485.03 -155.55,-453.41 -233.78,-885.92 -235.65,-1531.98 -0.7,-239.25 -38.71,-540.52 -38.71,-540.52 0,0 213.32,-32.75 656.76,-240.23 15.34,-7.17 84.19,-29.8 101.46,-35.03" id="path288" style="fill:#0050b2;fill-opacity:1;fill-rule:nonzero;stroke:none"/><path d="m 5985.77,4796.99 c 0,0 -27.75,-112.04 -33.44,-150.05 -6.7,-44.66 -14.11,-180.1 -14.11,-180.1 l 416.21,-34.55 446.53,54.07 c 0,0 102.24,355.31 108.89,513.04 7.16,170.12 -30.28,461.48 -30.28,461.48 L 6588.4,5697.69 6245.07,5540.46 5891.2,5107.72 c -38.01,-135.88 94.57,-310.73 94.57,-310.73" id="path290" style="fill:#0050b2;fill-opacity:1;fill-rule:nonzero;stroke:none"/><path d="m 6286.62,5590.35 -19.92,-19.29 c 0,0 95.11,43.06 122.18,59.24 43.25,25.86 117.03,65.95 139.47,98.38 12.52,18.09 19.17,68.4 19.17,68.4 0,0 40.33,-31.84 48.19,-46.65 11.32,-21.31 27.54,-56.34 17.31,-78.2 -37.16,-79.46 -259.12,-213.95 -279.76,-232.86 -11.01,-10.09 -35.69,-12.04 -51.47,-0.41 -14.87,10.95 -61.85,41.91 -61.85,41.91 l -275.17,-363.14 -9.96,6.64 259.82,361.07 c 0,0 -25.16,-2.64 -31.24,-1.38 -6.94,1.43 -11.06,7.24 -9.19,12.98 l 30.68,50.14 c 3.34,6.22 86.81,89.81 93.43,92.26 l 8.31,-49.09" id="path292" style="fill:#bcf1f7;fill-opacity:1;fill-rule:nonzero;stroke:none"/><path d="m 5938.22,4396.35 c 0,0 307.7,-38.66 420.08,-31.34 136.9,8.92 443.24,64.37 443.24,64.37 l -0.58,56.98 c 0,0 -300.51,-28.16 -442.66,-39.44 -117.14,-9.3 -420.08,19.92 -420.08,19.92 v -70.49" id="path294" style="fill:#ea659d;fill-opacity:1;fill-rule:nonzero;stroke:none"/><path d="m 4760.27,4585.72 c 2.41,1.4 56.47,39.78 93.7,37.61 74.44,-4.32 189.58,-73.07 264.15,-73.72 11.66,-0.1 87.1,15.51 87.1,15.51 l 76.67,-116.89 c 0,0 -25.69,-71.11 -25.83,-74.74 -0.15,-3.64 -89.13,-51.75 -122.02,-49.8 -44.94,2.67 -114.8,79.75 -159.69,83.21 -26.26,2.04 -71.2,-35.07 -96.58,-42.13 -8.53,-2.37 -26.78,-7.69 -35.07,-4.62 -3.45,1.28 -10.29,10.47 -10.29,10.47 0,0 -28.61,-17.52 -39.45,-18.15 -10.16,-0.58 -38.67,12.65 -38.67,12.65 l 117.96,121 -79.62,-32.83 c 0,0 -44.03,-35.87 -61.89,-39.6 -20.54,-4.29 -30.75,13.05 -30.75,13.05 l 125.64,132.57 c 0,0 -93.37,-38.48 -121.61,-30.6 -12.55,3.5 -29.37,19.44 -29.37,19.44 l 85.62,37.57" id="path296" style="fill:#ffd0ce;fill-opacity:1;fill-rule:nonzero;stroke:none"/><path d="m 6383.61,5163.53 c -109.35,-119.18 -384.6,-359.07 -384.6,-359.07 l -814.18,-217.99 v -275.25 c 0,0 218.63,-69.93 310.56,-67.51 360.81,9.48 595.89,120.98 703.57,168.13 107.87,47.23 566.32,436.84 643.37,582.5 71.82,135.76 125.56,433.7 2.04,492.48 -128.97,61.37 -364.6,-218.49 -460.76,-323.29" id="path298" style="fill:#0964b7;fill-opacity:1;fill-rule:nonzero;stroke:none"/></g></g></svg>