<?xml version="1.0" ?><svg width="1333.3333px" height="1333.3333px" viewBox="0 0 1333.3333 1333.3333" id="svg2" version="1.1" xml:space="preserve" xmlns="http://www.w3.org/2000/svg" xmlns:inkscape="http://www.inkscape.org/namespaces/inkscape" xmlns:sodipodi="http://sodipodi.sourceforge.net/DTD/sodipodi-0.dtd" xmlns:svg="http://www.w3.org/2000/svg"><defs id="defs6"/><g id="g8" transform="matrix(1.3333333,0,0,-1.3333333,0,1333.3333)"><g id="g10" transform="scale(0.1)"><path d="M 9009.38,1070.07 H 940.813 V 956 H 9009.38 v 114.07" id="path12" style="fill:#e3edf5;fill-opacity:1;fill-rule:nonzero;stroke:none"/><path d="m 3971.33,8223.56 -30.74,21.89 77.73,109.18 114.32,-77.04 -21.1,-31.28 -83.82,56.48 -56.39,-79.23" id="path14" style="fill:#dcf5f9;fill-opacity:1;fill-rule:nonzero;stroke:none"/><path d="m 3021.3,1068.59 h 3192.87 c 200.82,0 363.61,162.79 363.61,363.61 v 5131.61 c 0,200.82 -162.79,363.61 -363.61,363.61 H 3021.3 c -200.81,0 -363.62,-162.79 -363.62,-363.61 V 1432.2 c 0,-200.82 162.81,-363.61 363.62,-363.61" id="path16" style="fill:#4acfd3;fill-opacity:1;fill-rule:nonzero;stroke:none"/><path d="m 3235.68,1068.59 h 3192.87 c 200.81,0 363.62,162.79 363.62,363.61 v 5131.61 c 0,200.82 -162.81,363.61 -363.62,363.61 H 3235.68 c -200.82,0 -363.61,-162.79 -363.61,-363.61 V 1432.2 c 0,-200.82 162.79,-363.61 363.61,-363.61" id="path18" style="fill:#8ceae7;fill-opacity:1;fill-rule:nonzero;stroke:none"/><path d="m 4696.46,1378.3 c 0,-74.92 60.74,-135.65 135.66,-135.65 74.91,0 135.64,60.73 135.64,135.65 0,74.91 -60.73,135.65 -135.64,135.65 -74.92,0 -135.66,-60.74 -135.66,-135.65" id="path20" style="fill:#92ffdd;fill-opacity:1;fill-rule:nonzero;stroke:none"/><path d="m 7573.5,1708.64 h -781.33 v 4855.17 c 0,200.82 -162.81,363.61 -363.62,363.61 h -214.38 v 0 h -3031 v 484.05 H 7573.5 V 1708.64" id="path22" style="fill:#eaf9fc;fill-opacity:1;fill-rule:nonzero;stroke:none"/><path d="m 3183.17,6923.66 v 3.76 h 3031 v 0 H 3235.68 c -17.83,0 -35.36,-1.28 -52.51,-3.76" id="path24" style="fill:#a2e6ea;fill-opacity:1;fill-rule:nonzero;stroke:none"/><path d="m 6792.17,1708.64 h -3609 v 5215.02 c 17.15,2.48 34.68,3.76 52.51,3.76 h 2978.49 214.38 c 200.81,0 363.62,-162.79 363.62,-363.61 V 1708.64" id="path26" style="fill:#bcf1f2;fill-opacity:1;fill-rule:nonzero;stroke:none"/><path d="m 5942.55,7417.89 c 7.39,134.37 -67.28,247.74 -166.77,253.21 -99.49,5.46 -186.13,-99.03 -193.51,-233.4 -7.4,-134.38 67.27,-247.74 166.76,-253.21 99.5,-5.47 186.14,99.03 193.52,233.4" id="path28" style="fill:#003977;fill-opacity:1;fill-rule:nonzero;stroke:none"/><path d="m 5892.78,7420.87 c 7.39,134.38 -56.13,247.13 -141.88,251.84 -85.74,4.71 -161.24,-100.39 -168.62,-234.77 -7.4,-134.37 56.13,-247.12 141.87,-251.83 85.74,-4.72 161.24,100.39 168.63,234.76" id="path30" style="fill:#004381;fill-opacity:1;fill-rule:nonzero;stroke:none"/><path d="m 5886.24,7760.28 c -4.7,-105.51 -39.08,-195.1 -77.69,-193.32 -41.37,1.9 -98,95.69 -93.31,201.2 4.69,105.51 30.97,142.7 91.9,139.9 60.93,-2.81 83.79,-42.27 79.1,-147.78" id="path32" style="fill:#2e1709;fill-opacity:1;fill-rule:nonzero;stroke:none"/><path d="m 4751.12,6238.97 c 0,136.28 313.08,344.8 508.13,344.8 273.54,0 537.5,-162.39 537.5,-352.82 0,-190.43 -263.96,-336.78 -537.5,-336.78 -273.55,0 -508.13,154.37 -508.13,344.8" id="path34" style="fill:#008baf;fill-opacity:1;fill-rule:nonzero;stroke:none"/><path d="m 6598.7,2666.66 c -24.77,221.46 -234.06,860.09 -234.06,860.09 H 4819.83 l -340.54,-350.43 -80.54,-1462.56 2222.78,-0.59 c 8.9,361.28 5.15,703.46 -22.83,953.49" id="path36" style="fill:#00649f;fill-opacity:1;fill-rule:nonzero;stroke:none"/><path d="m 5692.88,6061.31 -743.69,-1.28 48.86,618.68 32.51,698.8 589.99,-617.27 72.33,-698.93" id="path38" style="fill:#b97860;fill-opacity:1;fill-rule:nonzero;stroke:none"/><path d="m 5850.02,7431.48 c 1.09,-62.91 -42.54,-114.68 -97.47,-115.64 -54.92,-0.96 -100.34,49.26 -101.44,112.17 -1.1,62.9 42.54,114.67 97.46,115.63 54.94,0.96 100.36,-49.26 101.45,-112.16" id="path40" style="fill:#b97860;fill-opacity:1;fill-rule:nonzero;stroke:none"/><path d="m 5570.07,6698.03 c -40.78,-0.72 -108.77,-1.96 -163.16,-2.92 -130.83,-2.31 -276.25,112.4 -305.32,296.6 -14.59,92.39 -39.84,292.26 -39.84,292.26 l -60.51,715.41 833.49,14.53 -25.23,-1090.22 c -2.86,-123.72 -108.59,-223.34 -239.43,-225.66" id="path42" style="fill:#c2866e;fill-opacity:1;fill-rule:nonzero;stroke:none"/><path d="m 5645.49,7764.04 c -194.56,-23.48 -312.8,68.7 -516.83,60.52 -133.66,-5.35 -210.01,115.35 -190.74,209.16 42.35,206.21 375.71,168.47 502.42,161.16 305.8,-17.63 423.19,31.67 492.96,60.84 33.88,14.16 71.15,-10.2 70.28,-46.39 -7.37,-306.89 -158.6,-421.21 -358.09,-445.29" id="path44" style="fill:#2e1709;fill-opacity:1;fill-rule:nonzero;stroke:none"/><path d="m 5091.22,7706.73 c -21.39,-63.66 -12.28,-246.85 -72.23,-258.73 -59.82,-11.85 -199.63,44.67 -199.61,362.64 0.01,116.39 78.58,310.94 218.22,257.69 245.23,-93.51 105.98,-205.74 53.62,-361.6" id="path46" style="fill:#2e1709;fill-opacity:1;fill-rule:nonzero;stroke:none"/><path d="m 5722.64,6238.97 c 0,0 -246.77,-191.57 -688.02,-84.91 l 230.32,-1519.47 -49.81,-1258.35 15.56,-80.95 1192.98,82.1 -464.37,1798.57 -236.66,1063.01" id="path48" style="fill:#dcf5f9;fill-opacity:1;fill-rule:nonzero;stroke:none"/><path d="m 4296.48,6125.35 441.43,238.4 224.74,-81.59 730.23,-1801.64 V 2267.49 c 0,0 -323.01,-70.22 -344.07,-70.22 -21.07,0 -1052.33,62.16 -1052.33,62.16 l 167.57,1650.4 -91.28,1365.52 -76.29,850" id="path50" style="fill:#00a6ba;fill-opacity:1;fill-rule:nonzero;stroke:none"/><path d="m 5677.66,6438.36 317.16,-1539.84 268.08,-898.45 48.23,1025.95 66.36,986.63 -699.83,425.71" id="path52" style="fill:#00a6ba;fill-opacity:1;fill-rule:nonzero;stroke:none"/><path d="m 6377.49,6012.65 c 112.96,-34.19 156.35,-279.57 189.91,-515.88 42.33,-298.05 105.53,-3038.25 105.53,-3038.25 0,0 -243.59,428.77 -306.51,524.56 -42.07,64.05 -86.06,231.18 -96.5,312.21 -86.88,674.3 -112.63,2784 107.57,2717.36" id="path54" style="fill:#00a6ba;fill-opacity:1;fill-rule:nonzero;stroke:none"/><path d="m 5068.67,7497.4 c -14.41,3.39 -29.74,4.54 -45.52,2.8 -68.36,-7.53 -118.18,-64.32 -111.25,-126.85 6.94,-62.53 67.98,-107.12 136.36,-99.59 15.44,1.7 29.86,6.02 42.96,12.24 l -22.55,211.4" id="path56" style="fill:#b97860;fill-opacity:1;fill-rule:nonzero;stroke:none"/><path d="m 4700.51,6294.39 c -31.25,-103.69 -161.38,-558.2 -161.38,-558.2 l 220.11,-47.85 -181.83,-162.69 1115.47,-1045.13 c 0,0 -747.12,1918.42 -761.89,1980.79 0,0 -162.62,-65.57 -202.22,-97.98 -9.91,-8.11 -20.23,-42.26 -28.26,-68.94" id="path58" style="fill:#008baf;fill-opacity:1;fill-rule:nonzero;stroke:none"/><path d="m 6106.72,6086.01 -131.56,-106.46 181.71,-48.02 -66.18,-1354.33 c 0,0 -158.89,511.68 -272.78,1015.91 -84.47,374.02 -135.58,786.02 -166.8,871.78 0,0 96.98,-41.69 130.55,-62.44 21.43,-13.23 325.06,-316.44 325.06,-316.44" id="path60" style="fill:#008baf;fill-opacity:1;fill-rule:nonzero;stroke:none"/><path d="m 5669.3,8194.8 c -75.02,56.47 -193.79,110.02 -370.85,73.33 -323.72,-67.13 -361.21,-611.31 -362.41,-634.52 l 66.43,-3.19 c 0.26,5.19 35.98,518.27 309.97,575.08 103.36,21.5 173.56,11.4 234.57,-14.26 2.06,-0.87 125.49,1.14 122.29,3.56" id="path62" style="fill:#00bac8;fill-opacity:1;fill-rule:nonzero;stroke:none"/><path d="m 5540.44,6967.41 h -94.48 c -19.09,0 -35.24,-12.53 -41.08,-29.7 -109.86,8.74 -210.84,70.48 -268,165.7 l -74.1,123.4 -31.67,-19.01 74.1,-123.4 c 63.69,-106.07 176.46,-174.69 298.96,-183.72 5.13,-18.35 21.87,-31.99 41.79,-31.99 h 94.48 c 23.96,0 43.56,19.6 43.56,43.57 v 11.58 c 0,23.96 -19.6,43.57 -43.56,43.57" id="path64" style="fill:#005592;fill-opacity:1;fill-rule:nonzero;stroke:none"/><path d="m 5142.14,7425.06 c 14.44,-133.8 -54.16,-250.93 -153.23,-261.62 -99.07,-10.69 -191.08,89.1 -205.52,222.9 -14.44,133.8 54.16,250.93 153.22,261.62 99.07,10.69 191.09,-89.1 205.53,-222.9" id="path66" style="fill:#004381;fill-opacity:1;fill-rule:nonzero;stroke:none"/><path d="m 5092.59,7419.47 c 14.44,-133.8 -43.06,-249.74 -128.44,-258.96 -85.38,-9.21 -166.3,91.78 -180.74,225.58 -14.45,133.8 43.06,249.74 128.45,258.95 85.37,9.21 166.29,-91.78 180.73,-225.57" id="path68" style="fill:#003977;fill-opacity:1;fill-rule:nonzero;stroke:none"/><path d="m 5059.65,7416.02 c 11.39,-105.55 -42.76,-197.96 -120.96,-206.4 -78.19,-8.44 -150.82,70.28 -162.21,175.84 -11.39,105.55 42.76,197.96 120.96,206.4 78.19,8.44 150.82,-70.29 162.21,-175.84" id="path70" style="fill:#00bac8;fill-opacity:1;fill-rule:nonzero;stroke:none"/><path d="m 5007.13,7410.52 c 11.12,-103.1 -32.96,-192.4 -98.47,-199.47 -65.51,-7.07 -127.62,70.77 -138.76,173.86 -11.12,103.1 32.96,192.41 98.47,199.48 65.51,7.07 127.63,-70.77 138.76,-173.87" id="path72" style="fill:#00d0d3;fill-opacity:1;fill-rule:nonzero;stroke:none"/><path d="m 6343.48,5023.34 c 0,0 -14.31,952.86 10.61,977.23 39.03,38.18 141.17,-44.2 188.17,-97.37 129.11,-146.14 746.46,-1482.15 610.14,-1989.75 -20.82,-77.52 -248.5,-162.81 -248.5,-162.81 0,0 -332.52,330.46 -345.15,359.64 -84.68,195.6 -189.79,828.95 -189.79,828.95 -16.77,25.02 -25.61,54.18 -25.48,84.11" id="path74" style="fill:#00a6ba;fill-opacity:1;fill-rule:nonzero;stroke:none"/><path d="m 4521.4,5017.44 c 0,0 -129.56,1101.3 -161.68,1122.96 -50.3,33.93 -276.83,-186.76 -330.32,-275.31 -147.35,-243.96 -259.02,-817.72 -302.66,-1068.26 -52.54,-301.63 -93.71,-823.67 -46.16,-1101.12 14.64,-85.49 102.34,-348.57 102.34,-348.57 l 595.32,896.44 143.16,773.86" id="path76" style="fill:#00a6ba;fill-opacity:1;fill-rule:nonzero;stroke:none"/><path d="m 4942.34,3457.77 h 1364.32 l 306.62,1933.4 H 5248.97 l -306.63,-1933.4" id="path78" style="fill:#ffffff;fill-opacity:1;fill-rule:nonzero;stroke:none"/><path d="m 6601.34,4085.33 -252.75,144.2 c 0,0 -170.28,75.22 -206.74,102.48 -27.78,20.76 -243.66,167.73 -250.73,245.51 -0.88,9.66 13.23,48.34 13.23,48.34 0,0 -16.46,44.48 -25.64,56.47 -9.35,12.22 32.22,40.57 81.58,35.65 2.92,-0.29 41.44,-7.88 86.6,-16.9 67.79,-13.52 185.03,-1.88 185.03,-1.88 0,0 -76.68,44.62 -143.4,56.34 -35.24,6.2 -116.42,8.02 -140.11,40.08 -6.53,8.83 -0.13,51.71 58.09,63.03 51.05,9.92 322.65,-26.03 490.59,-63.38 20.77,-4.62 39.87,118.19 39.87,118.19 51.65,0 132.66,-85.01 157.5,-121.19 55.53,-80.88 115.12,-416.01 115.12,-416.01 l -208.24,-290.93" id="path80" style="fill:#c2866e;fill-opacity:1;fill-rule:nonzero;stroke:none"/><path d="m 6383.63,4162.64 438.03,302.18 c 0,0 364.17,-312.49 365.1,-459.11 0.41,-64.46 -93.25,-196.51 -157.75,-237.66 -43.13,-27.52 -155.92,-49.68 -202.62,-37.61 -164.9,42.62 -442.76,432.2 -442.76,432.2" id="path82" style="fill:#00a6ba;fill-opacity:1;fill-rule:nonzero;stroke:none"/><path d="m 4901.74,3926.55 415.62,123.79 c 0,0 140.4,21.17 176.86,48.43 27.77,20.76 243.66,167.73 250.73,245.51 0.88,9.66 -13.22,48.33 -13.22,48.33 0,0 16.45,44.5 25.62,56.47 9.37,12.23 -32.2,40.58 -81.57,35.66 -2.93,-0.29 -41.43,-7.89 -86.61,-16.9 -67.77,-13.52 -185.02,-1.88 -185.02,-1.88 0,0 78.51,33.9 145.23,45.62 35.23,6.19 116.42,8.02 140.1,40.08 6.53,8.83 0.13,51.71 -58.08,63.03 -51.06,9.92 -328.3,-1.04 -492.42,-52.66 -12.12,-3.81 -23.65,7.02 -20.83,19.41 l 15.47,67.93 c -94.33,-5.22 -114.83,-64.99 -141.79,-98.74 -61.21,-76.66 -297.86,-326.29 -297.86,-326.29 l 207.77,-297.79" id="path84" style="fill:#c2866e;fill-opacity:1;fill-rule:nonzero;stroke:none"/><path d="m 5042.55,3858.71 -300.1,529.53 -373.96,-159.1 -451.39,-471.3 c 0,0 -167.02,-380.63 -134.18,-410.7 38.22,-35 377.97,50.51 454.49,74.83 233.37,74.18 805.14,436.74 805.14,436.74" id="path86" style="fill:#00a6ba;fill-opacity:1;fill-rule:nonzero;stroke:none"/><path d="m 8220.79,3432.35 c -75.78,22.29 -155.57,-21.23 -177.85,-97 -22.3,-75.78 21.22,-155.57 97,-177.86 75.78,-22.29 155.57,21.23 177.86,97.01 22.29,75.78 -21.23,155.57 -97.01,177.85 z m -90.97,-309.25 c -94.73,27.87 -149.14,127.62 -121.28,222.36 27.88,94.74 127.62,149.15 222.37,121.28 94.73,-27.87 149.15,-127.61 121.28,-222.35 -27.87,-94.74 -127.62,-149.15 -222.37,-121.29" id="path88" style="fill:#dcf5f9;fill-opacity:1;fill-rule:nonzero;stroke:none"/><path d="m 8205.25,3379.54 c -46.66,13.73 -95.78,-13.07 -109.51,-59.73 -13.72,-46.66 13.08,-95.78 59.74,-109.51 46.66,-13.72 95.78,13.07 109.51,59.73 13.72,46.66 -13.08,95.79 -59.74,109.51 z m -59.89,-203.63 c -65.62,19.3 -103.31,88.39 -84,154.01 19.29,65.63 88.39,103.31 154.01,84.01 65.63,-19.3 103.31,-88.39 84.01,-154.02 -19.3,-65.62 -88.39,-103.3 -154.02,-84" id="path90" style="fill:#dcf5f9;fill-opacity:1;fill-rule:nonzero;stroke:none"/><path d="m 8263.53,3419.78 c -9.51,2.8 -14.94,12.76 -12.14,22.26 l 21.21,72.11 c 2.79,9.5 12.75,14.93 22.24,12.14 9.51,-2.79 14.94,-12.76 12.14,-22.25 l -21.21,-72.12 c -2.79,-9.5 -12.75,-14.93 -22.24,-12.14" id="path92" style="fill:#dcf5f9;fill-opacity:1;fill-rule:nonzero;stroke:none"/><path d="m 8178.06,3444.92 c -9.5,2.8 -14.93,12.76 -12.14,22.25 l 21.21,72.12 c 2.79,9.5 12.76,14.93 22.25,12.14 9.5,-2.8 14.94,-12.76 12.14,-22.25 l -21.21,-72.12 c -2.79,-9.5 -12.75,-14.93 -22.25,-12.14" id="path94" style="fill:#dcf5f9;fill-opacity:1;fill-rule:nonzero;stroke:none"/><path d="m 8323.13,3480.61 -162.25,47.72 c -9.5,2.79 -14.93,12.76 -12.14,22.25 2.79,9.5 12.75,14.93 22.25,12.14 L 8333.24,3515 c 9.49,-2.8 14.93,-12.76 12.14,-22.25 -2.79,-9.5 -12.75,-14.94 -22.25,-12.14" id="path96" style="fill:#dcf5f9;fill-opacity:1;fill-rule:nonzero;stroke:none"/><path d="m 8369.06,3344.85 c -4.64,1.36 -8.72,4.6 -11.02,9.28 l -16.47,33.49 c -4.36,8.89 -0.7,19.63 8.18,24 8.88,4.36 19.63,0.7 23.99,-8.18 l 16.47,-33.49 c 4.36,-8.88 0.7,-19.63 -8.18,-24 -4.2,-2.06 -8.81,-2.33 -12.97,-1.1" id="path98" style="fill:#dcf5f9;fill-opacity:1;fill-rule:nonzero;stroke:none"/><path d="m 8175.31,3277.73 c -4.83,1.42 -9.04,4.86 -11.28,9.81 -4.07,9.02 -0.07,19.64 8.96,23.72 l 53.54,24.21 c 9.02,4.07 19.64,0.06 23.71,-8.95 4.09,-9.03 0.08,-19.64 -8.94,-23.73 l -53.56,-24.2 c -4.06,-1.84 -8.45,-2.03 -12.43,-0.86" id="path100" style="fill:#dcf5f9;fill-opacity:1;fill-rule:nonzero;stroke:none"/><path d="m 8389.52,7609.94 h 30.24 c 2.26,15.18 8.21,36.67 23.71,52.95 l 0.69,0.72 c 5.66,5.67 23.9,26.22 20.81,52.52 -4.02,34.34 -29.32,57.41 -62.93,57.41 -33.79,0 -61.27,-26.97 -61.27,-60.11 0,-17.61 7.16,-34.93 18.68,-45.21 18.96,-16.88 26.83,-41.7 30.07,-58.28 z m 46.8,-35.85 h -62.46 c -9.55,0 -17.42,7.49 -17.9,17.03 -0.53,9.39 -5.23,36.87 -20.34,50.34 -19.22,17.13 -30.7,44.03 -30.7,71.97 0,52.9 43.57,95.95 97.12,95.95 51.87,0 92.38,-36.63 98.54,-89.08 4.94,-42.2 -22.41,-73.34 -31,-81.96 -12.91,-13.56 -15.44,-37.83 -15.34,-46.04 0.06,-4.79 -1.81,-9.44 -5.18,-12.84 -3.37,-3.41 -7.96,-5.37 -12.74,-5.37" id="path102" style="fill:#dcf5f9;fill-opacity:1;fill-rule:nonzero;stroke:none"/><path d="m 8416.95,7527.84 h -23.73 c -9.9,0 -17.93,8.03 -17.93,17.93 0,9.9 8.03,17.92 17.93,17.92 h 23.73 c 9.91,0 17.92,-8.02 17.92,-17.92 0,-9.9 -8.01,-17.93 -17.92,-17.93" id="path104" style="fill:#dcf5f9;fill-opacity:1;fill-rule:nonzero;stroke:none"/><path d="m 8405.61,7629.41 c -9.9,0 -17.92,8.02 -17.92,17.92 v 34.35 c 0,9.9 8.02,17.93 17.92,17.93 9.9,0 17.93,-8.03 17.93,-17.93 v -34.35 c 0,-9.9 -8.03,-17.92 -17.93,-17.92" id="path106" style="fill:#dcf5f9;fill-opacity:1;fill-rule:nonzero;stroke:none"/><path d="m 8404.62,7740.71 c -4.33,0 -7.84,-3.58 -7.84,-8 0,-4.42 3.51,-8.01 7.84,-8.01 4.34,0 7.86,3.59 7.86,8.01 0,4.42 -3.52,8 -7.86,8 z m 0,-35.84 c -15.43,0 -27.98,12.49 -27.98,27.84 0,15.35 12.55,27.84 27.98,27.84 15.44,0 28,-12.49 28,-27.84 0,-15.35 -12.56,-27.84 -28,-27.84" id="path108" style="fill:#dcf5f9;fill-opacity:1;fill-rule:nonzero;stroke:none"/><path d="m 8319.76,7794.29 c -4.55,0 -9.1,1.72 -12.58,5.16 l -24.78,24.42 c -7.05,6.95 -7.13,18.3 -0.18,25.35 6.95,7.04 18.3,7.13 25.35,0.18 l 24.77,-24.42 c 7.05,-6.95 7.13,-18.29 0.18,-25.34 -3.51,-3.56 -8.14,-5.35 -12.76,-5.35" id="path110" style="fill:#dcf5f9;fill-opacity:1;fill-rule:nonzero;stroke:none"/><path d="m 8490.64,7786.88 c -4.62,0 -9.25,1.78 -12.76,5.34 -6.95,7.05 -6.87,18.4 0.18,25.35 l 24.77,24.41 c 7.05,6.96 18.4,6.87 25.35,-0.18 6.95,-7.05 6.87,-18.39 -0.18,-25.34 l -24.78,-24.42 c -3.48,-3.44 -8.03,-5.16 -12.58,-5.16" id="path112" style="fill:#dcf5f9;fill-opacity:1;fill-rule:nonzero;stroke:none"/><path d="m 8531.56,7728.66 c -9.08,0 -16.86,6.87 -17.81,16.1 -1.01,9.85 6.16,18.65 16.02,19.65 l 34.6,3.53 c 9.83,0.97 18.64,-6.16 19.64,-16.01 1.01,-9.85 -6.16,-18.64 -16,-19.65 l -34.61,-3.53 -1.84,-0.09" id="path114" style="fill:#dcf5f9;fill-opacity:1;fill-rule:nonzero;stroke:none"/><path d="m 8277.2,7728.66 -1.85,0.09 -34.6,3.53 c -9.84,1.01 -17.02,9.8 -16.01,19.65 1,9.85 9.8,16.98 19.65,16.01 l 34.6,-3.53 c 9.85,-1 17.02,-9.8 16.01,-19.65 -0.94,-9.23 -8.72,-16.1 -17.8,-16.1" id="path116" style="fill:#dcf5f9;fill-opacity:1;fill-rule:nonzero;stroke:none"/><path d="m 8405.61,7823 c -9.9,0 -17.92,8.03 -17.92,17.93 v 35.99 c 0,9.89 8.02,17.92 17.92,17.92 9.9,0 17.93,-8.03 17.93,-17.92 v -35.99 c 0,-9.9 -8.03,-17.93 -17.93,-17.93" id="path118" style="fill:#dcf5f9;fill-opacity:1;fill-rule:nonzero;stroke:none"/><path d="m 1640.72,8323.58 h -205.37 c -34.46,0 -62.5,28.03 -62.5,62.49 v 230.65 c 0,10.41 8.44,18.86 18.87,18.86 h 223.74 c 10.42,0 18.87,-8.45 18.87,-18.86 v -194.89 c 0,-10.41 -8.45,-18.86 -18.87,-18.86 -10.42,0 -18.86,8.45 -18.86,18.86 v 176.02 h -186.02 v -211.78 c 0,-13.65 11.11,-24.76 24.77,-24.76 h 205.37 c 10.42,0 18.87,-8.45 18.87,-18.87 0,-10.42 -8.45,-18.86 -18.87,-18.86" id="path120" style="fill:#dcf5f9;fill-opacity:1;fill-rule:nonzero;stroke:none"/><path d="M 1477.67,8361.31 H 1644 c 13.67,0 24.77,11.11 24.77,24.76 v 16.9 h -186.02 v -16.9 c 0,-8.76 -1.79,-17.14 -5.08,-24.76 z M 1644,8323.58 h -208.65 c -3.48,0 -7.02,0.31 -10.78,0.97 -9.04,1.57 -15.63,9.41 -15.63,18.58 0,9.17 6.59,17.02 15.62,18.59 11.86,2.08 20.47,12.32 20.47,24.35 v 35.76 c 0,10.42 8.44,18.87 18.86,18.87 h 223.75 c 10.42,0 18.86,-8.45 18.86,-18.87 v -35.76 c 0,-34.46 -28.03,-62.49 -62.5,-62.49" id="path122" style="fill:#dcf5f9;fill-opacity:1;fill-rule:nonzero;stroke:none"/><path d="m 1559.72,8532.89 h -113.87 c -10.42,0 -18.87,8.45 -18.87,18.87 0,10.41 8.45,18.86 18.87,18.86 h 113.87 c 10.42,0 18.86,-8.45 18.86,-18.86 0,-10.42 -8.44,-18.87 -18.86,-18.87" id="path124" style="fill:#dcf5f9;fill-opacity:1;fill-rule:nonzero;stroke:none"/><path d="m 1559.72,8467.93 h -113.87 c -10.42,0 -18.87,8.44 -18.87,18.86 0,10.42 8.45,18.87 18.87,18.87 h 113.87 c 10.42,0 18.86,-8.45 18.86,-18.87 0,-10.42 -8.44,-18.86 -18.86,-18.86" id="path126" style="fill:#dcf5f9;fill-opacity:1;fill-rule:nonzero;stroke:none"/><path d="m 1331.88,8370.49 c -10.42,0 -18.87,8.44 -18.87,18.86 v 285.1 c 0,10.42 8.45,18.87 18.87,18.87 h 283.58 c 10.42,0 18.87,-8.45 18.87,-18.87 0,-10.42 -8.45,-18.87 -18.87,-18.87 h -264.72 v -266.23 c 0,-10.42 -8.45,-18.86 -18.86,-18.86" id="path128" style="fill:#dcf5f9;fill-opacity:1;fill-rule:nonzero;stroke:none"/><path d="m 1748.89,5541.98 c -2.56,0 -4.65,-1.93 -4.65,-4.3 v -293.01 c 0,-2.37 2.09,-4.3 4.65,-4.3 h 168.2 c 2.56,0 4.64,1.93 4.64,4.3 v 293.01 c 0,2.37 -2.08,4.3 -4.64,4.3 z m 168.2,-339.35 h -168.2 c -23.37,0 -42.39,18.86 -42.39,42.04 v 293.01 c 0,23.18 19.02,42.03 42.39,42.03 h 168.2 c 23.37,0 42.37,-18.85 42.37,-42.03 v -293.01 c 0,-23.18 -19,-42.04 -42.37,-42.04" id="path130" style="fill:#dcf5f9;fill-opacity:1;fill-rule:nonzero;stroke:none"/><path d="m 1744.24,5294.91 h 177.49 v 192.52 h -177.49 z m 196.36,-37.73 h -215.23 c -10.42,0 -18.87,8.45 -18.87,18.87 v 230.24 c 0,10.42 8.45,18.87 18.87,18.87 h 215.23 c 10.42,0 18.86,-8.45 18.86,-18.87 v -230.24 c 0,-10.42 -8.44,-18.87 -18.86,-18.87" id="path132" style="fill:#dcf5f9;fill-opacity:1;fill-rule:nonzero;stroke:none"/><path d="m 1822.85,5328.55 c -8.89,0 -19.36,2.45 -31.16,9.09 -9.07,5.12 -12.29,16.62 -7.18,25.7 5.11,9.08 16.62,12.29 25.7,7.18 6.02,-3.39 12.61,-5.04 13.37,-5.21 11.06,14.69 22.56,35.52 22.57,44.13 -0.53,1.93 -5.98,7.18 -9.63,9.4 -8.9,5.4 -11.74,17 -6.34,25.91 5.4,8.9 17,11.76 25.91,6.35 4.64,-2.82 27.81,-18.07 27.8,-41.69 -0.02,-26.38 -26.07,-61.5 -31.28,-68.27 l -0.94,-1.12 c -4.9,-5.44 -14.89,-11.47 -28.82,-11.47" id="path134" style="fill:#dcf5f9;fill-opacity:1;fill-rule:nonzero;stroke:none"/><path d="m 2384.41,7185.92 c -8.54,0 -16.94,-2.38 -24.37,-7.01 -10.5,-6.53 -17.83,-16.77 -20.64,-28.82 -5.78,-24.86 9.75,-49.81 34.61,-55.59 24.9,-5.78 49.82,9.75 55.6,34.6 5.78,24.86 -9.74,49.81 -34.61,55.59 -3.52,0.82 -7.06,1.23 -10.59,1.23 z m 0.09,-130.37 c -6.28,0 -12.66,0.71 -19.04,2.19 -45.14,10.51 -73.3,55.77 -62.8,100.9 5.08,21.87 18.38,40.44 37.44,52.31 19.06,11.85 41.59,15.6 63.45,10.5 45.14,-10.51 73.31,-55.77 62.81,-100.9 -9.03,-38.75 -43.67,-65 -81.86,-65" id="path136" style="fill:#dcf5f9;fill-opacity:1;fill-rule:nonzero;stroke:none"/><path d="m 8822.26,5439.72 -6.04,37.25 55.51,8.99 6.03,-37.25 -55.5,-8.99" id="path138" style="fill:#dcf5f9;fill-opacity:1;fill-rule:nonzero;stroke:none"/><path d="m 8877.72,5500.2 -8.81,54.47 37.24,6.02 8.81,-54.47 -37.24,-6.02" id="path140" style="fill:#dcf5f9;fill-opacity:1;fill-rule:nonzero;stroke:none"/><path d="m 8938.44,5458.52 -6.04,37.25 52.5,8.5 6.04,-37.25 -52.5,-8.5" id="path142" style="fill:#dcf5f9;fill-opacity:1;fill-rule:nonzero;stroke:none"/><path d="m 8896.99,5381.14 -9.31,57.57 37.24,6.03 9.32,-57.58 -37.25,-6.02" id="path144" style="fill:#dcf5f9;fill-opacity:1;fill-rule:nonzero;stroke:none"/><path d="m 6626.96,8746.85 80.9,-11.58 11.04,77.09 -80.91,11.58 z m 112.9,-54.28 -155.6,22.28 21.73,151.78 155.6,-22.27 -21.73,-151.79" id="path146" style="fill:#dcf5f9;fill-opacity:1;fill-rule:nonzero;stroke:none"/><path d="m 1362.97,3262.54 80.91,-11.58 11.02,77.09 -80.9,11.58 z m 112.91,-54.29 -155.61,22.29 21.72,151.78 155.62,-22.27 -21.73,-151.8" id="path148" style="fill:#dcf5f9;fill-opacity:1;fill-rule:nonzero;stroke:none"/></g></g></svg>