<svg width="584.69px" height="584.69px" viewBox="-78.25 0 584.69 584.69" xmlns="http://www.w3.org/2000/svg">
  <g id="Group_8" data-name="Group 8" transform="translate(-1908.958 790.814)">
    <path id="path16" d="M2109.755-570l31.387,12.813-25.413,63.32-31.4-12.8L2109.755-570" fill="#5b7fc9" fill-rule="evenodd"/>
    <path id="path18" d="M2324.461-677.6l7.213,8.32,4.293,4.96a4.732,4.732,0,0,1,.773,5.067,4.638,4.638,0,0,1-4.227,2.84l-11.2.253-11.2.267a4.655,4.655,0,0,1-4.347-2.653,4.7,4.7,0,0,1,.533-5.093l4.067-5.147,6.826-8.64a4.567,4.567,0,0,1,3.6-1.8,4.514,4.514,0,0,1,3.667,1.627" fill="#cb3325" fill-rule="evenodd"/>
    <path id="path20" d="M2065.608-783.2l-10.92.933-6.507.547a4.632,4.632,0,0,0-4.04,3.107,4.694,4.694,0,0,0,1.067,5l7.867,8.04,7.88,8.027a4.6,4.6,0,0,0,4.947,1.147,4.639,4.639,0,0,0,3.12-4.04l.64-6.547,1.053-11a4.616,4.616,0,0,0-1.347-3.813,4.558,4.558,0,0,0-3.76-1.4" fill="#cb3325" fill-rule="evenodd"/>
    <path id="path22" d="M2275.168-678.012q-135.96,57.46-176.906-71.973a4.479,4.479,0,0,0-.333-.787q-12.28-23.46-36.96-15.013-20.02,7.08-16.6,34.053a4.474,4.474,0,0,0,.307,1.173l14,35c.027.08.053.133.08.2q57.52,127.22,206.653,84.48a4.528,4.528,0,0,0,.707-.267l33.213-15.547a4.459,4.459,0,0,0,.96-.6c14.093-11.32,18.72-23.053,12.387-35.813q-11.96-23.48-37.16-15.04a3.684,3.684,0,0,0-.346.133" fill="#f0393c" fill-rule="evenodd"/>
    <path id="path24" d="M2123.115-575.772l-9.826-23.373a9.331,9.331,0,0,1-.067-7.307l.907-17.827a135.506,135.506,0,0,1-16.747-13.893l-10.48,26.093a9.251,9.251,0,0,0-.146,6.787l17.413,49.187,5,14.08a9.2,9.2,0,0,0,5.36,5.64,9.082,9.082,0,0,0,7.733-.293l13.307-6.627,46.44-23.12a9.16,9.16,0,0,0,4.587-4.973l11.533-28.733a174.955,174.955,0,0,1-21.053-1.027l-13.28,15.333a9.149,9.149,0,0,1-5.08,5.2l-23.187,9.907a9.456,9.456,0,0,1-12.413-5.053" fill="#5b7fc9" fill-rule="evenodd"/>
    <path id="path26" d="M2055.9-321.186l-48.933-18.907-31.427,73.32a9.188,9.188,0,0,0-.68,5.107L1977-246.493a9.134,9.134,0,0,0,2.373,5.093l7.8,8.627a9.2,9.2,0,0,0,8.627,2.973l13.854-2.453a9.01,9.01,0,0,0,3.92-1.667l10.413-7.613a9.226,9.226,0,0,0,3.28-4.307Zm-51.68,46.733a9.275,9.275,0,0,1,9.24,9.307,9.275,9.275,0,0,1-9.24,9.307,9.273,9.273,0,0,1-9.227-9.307,9.273,9.273,0,0,1,9.227-9.307h0" fill="#f9b317" fill-rule="evenodd"/>
    <path id="path28" d="M2006.968-340.092l48.933,18.907,64.253-169a9.631,9.631,0,0,0-1.92-9.933,9.254,9.254,0,0,0-3.36-2.32l-24.053-9.827a9.439,9.439,0,0,0-3.973-.68,9.473,9.473,0,0,0-8.267,5.747l-71.613,167.106" fill="#43bb4e" fill-rule="evenodd"/>
    <path id="path30" d="M2212.354-528.639a14.668,14.668,0,0,1,13.693,15.56,14.628,14.628,0,0,1-15.427,13.8,14.676,14.676,0,0,1-13.693-15.56,14.628,14.628,0,0,1,15.427-13.8" fill="#f9b317" fill-rule="evenodd"/>
    <path id="path32" d="M1930.329-388.8a20.269,20.269,0,0,1,18.933,21.507,20.244,20.244,0,0,1-21.347,19.08A20.283,20.283,0,0,1,1909-369.719a20.222,20.222,0,0,1,21.333-19.08" fill="#f9b317" fill-rule="evenodd"/>
    <path id="path34" d="M1983.262-558.705a3.728,3.728,0,0,1,3.4-4.04,3.717,3.717,0,0,1,4,3.413l1.347,16.387a3.722,3.722,0,0,1-3.387,4.027,3.729,3.729,0,0,1-4.013-3.413l-1.347-16.373" fill="#f0393c" fill-rule="evenodd"/>
    <path id="path36" d="M1985.848-527.425a3.735,3.735,0,0,1,3.387-4.04,3.72,3.72,0,0,1,4,3.427l1.36,16.373a3.754,3.754,0,0,1-3.4,4.04,3.717,3.717,0,0,1-4-3.413l-1.347-16.387" fill="#f0393c" fill-rule="evenodd"/>
    <path id="path38" d="M1965.6-529.479a3.729,3.729,0,0,1-4.013-3.413,3.746,3.746,0,0,1,3.4-4.04l16.24-1.36a3.709,3.709,0,0,1,4,3.413,3.727,3.727,0,0,1-3.387,4.04l-16.24,1.36" fill="#f0393c" fill-rule="evenodd"/>
    <path id="path40" d="M1996.635-532.079a3.721,3.721,0,0,1-4.013-3.413,3.727,3.727,0,0,1,3.387-4.04l16.253-1.36a3.709,3.709,0,0,1,4,3.413,3.734,3.734,0,0,1-3.387,4.04l-16.24,1.36" fill="#f0393c" fill-rule="evenodd"/>
    <path id="path42" d="M2218.808-715.958a56.818,56.818,0,0,1,32.853-31.133,4.143,4.143,0,0,0,2.76-3.827,4.137,4.137,0,0,0-2.52-3.987,56.922,56.922,0,0,1-30.88-33.12,4.129,4.129,0,0,0-3.8-2.787,4.1,4.1,0,0,0-3.96,2.547,56.82,56.82,0,0,1-32.853,31.133,4.131,4.131,0,0,0-2.76,3.827,4.129,4.129,0,0,0,2.533,3.987,56.965,56.965,0,0,1,30.88,33.12,4.086,4.086,0,0,0,3.787,2.773,4.106,4.106,0,0,0,3.96-2.533" fill="#5b7fc9" fill-rule="evenodd"/>
    <path id="path44" d="M2233.048-768.238q-3.78,28.92-34.026,32.24a57.139,57.139,0,0,1,12.04,19.8,4.086,4.086,0,0,0,3.787,2.773,4.106,4.106,0,0,0,3.96-2.533,56.818,56.818,0,0,1,32.853-31.133,4.144,4.144,0,0,0,2.76-3.827,4.138,4.138,0,0,0-2.52-3.987,56.356,56.356,0,0,1-18.853-13.333" fill="#4267ba" fill-rule="evenodd"/>
    <path id="path46" d="M2184.915-393.6l17.693,20.12a4.514,4.514,0,0,1-.374,6.333l-19.96,17.84a4.422,4.422,0,0,1-6.267-.373L2158.3-369.8a4.51,4.51,0,0,1,.374-6.32l19.96-17.853a4.438,4.438,0,0,1,6.28.373" fill="#43bb4e" fill-rule="evenodd"/>
    <path id="path48" d="M2193.768-383.532q-4.36,19.44-26.613,23.787l8.853,10.067a4.423,4.423,0,0,0,6.267.373l19.96-17.84a4.514,4.514,0,0,0,.374-6.333l-8.84-10.053" fill="#32a940" fill-rule="evenodd"/>
    <path id="path50" d="M2106.141-209.013a42.027,42.027,0,0,1,15.08-29.68,3.007,3.007,0,0,0,.973-3.32,3.01,3.01,0,0,0-2.707-2.133,41.461,41.461,0,0,1-29.44-15.213,2.973,2.973,0,0,0-3.293-.973,3,3,0,0,0-2.12,2.733,42.022,42.022,0,0,1-15.08,29.667,3.034,3.034,0,0,0-.973,3.333,3.014,3.014,0,0,0,2.707,2.133,41.446,41.446,0,0,1,29.44,15.2,2.979,2.979,0,0,0,3.293.987,3.03,3.03,0,0,0,2.12-2.733" fill="#5b7fc9" fill-rule="evenodd"/>
    <path id="path52" d="M2103.208-248.666q4.44,20.9-15.64,30.72a41.651,41.651,0,0,1,13.16,10.68,2.979,2.979,0,0,0,3.293.987,3.03,3.03,0,0,0,2.12-2.733,42.025,42.025,0,0,1,15.08-29.68,3.007,3.007,0,0,0,.973-3.32,3.01,3.01,0,0,0-2.707-2.133,41.2,41.2,0,0,1-16.28-4.52" fill="#4267ba" fill-rule="evenodd"/>
  </g>
</svg>
