<svg width="513.967px" height="513.967px" viewBox="0 -21.51 513.967 513.967" xmlns="http://www.w3.org/2000/svg">
  <g id="Group_12" data-name="Group 12" transform="translate(-244.396 2384.075)">
    <path id="path428" d="M285.953-1985.315a47.311,47.311,0,0,1,26.515-26.733,3.435,3.435,0,0,0,2.2-3.253,3.439,3.439,0,0,0-2.2-3.253,47.3,47.3,0,0,1-26.517-26.72,3.4,3.4,0,0,0-3.224-2.227,3.4,3.4,0,0,0-3.224,2.227,47.32,47.32,0,0,1-26.517,26.72,3.446,3.446,0,0,0-2.195,3.253,3.435,3.435,0,0,0,2.2,3.253,47.309,47.309,0,0,1,26.516,26.733,3.414,3.414,0,0,0,3.225,2.213,3.413,3.413,0,0,0,3.224-2.213" fill="#f9b317" fill-rule="evenodd"/>
    <path id="path430" d="M296.459-2029.142q-2.4,24.14-27.464,27.68a47.341,47.341,0,0,1,10.508,16.146,3.414,3.414,0,0,0,3.225,2.213,3.413,3.413,0,0,0,3.224-2.213,47.311,47.311,0,0,1,26.515-26.733,3.435,3.435,0,0,0,2.2-3.253,3.439,3.439,0,0,0-2.2-3.253,46.946,46.946,0,0,1-16.008-10.587" fill="#db8e19" fill-rule="evenodd"/>
    <path id="path432" d="M513.081-1960.969l19.753,19.92a4.735,4.735,0,0,1,0,6.64L513.081-1914.5a4.639,4.639,0,0,1-6.583,0l-19.755-19.906a4.735,4.735,0,0,1,0-6.64l19.755-19.92a4.639,4.639,0,0,1,6.583,0" fill="#f0393c" fill-rule="evenodd"/>
    <path id="path434" d="M522.957-1951.009q-3.346,20.6-26.333,26.547l9.876,9.96a4.635,4.635,0,0,0,6.58,0l19.753-19.906a4.73,4.73,0,0,0,0-6.64l-9.876-9.96" fill="#cb3325" fill-rule="evenodd"/>
    <path id="path436" d="M723.561-2183.555a4.159,4.159,0,0,1,4.147-4.173,4.159,4.159,0,0,1,4.147,4.173v18.373a4.159,4.159,0,0,1-4.147,4.173,4.159,4.159,0,0,1-4.147-4.173v-18.373" fill="#43bb4e" fill-rule="evenodd"/>
    <path id="path438" d="M701.2-2187.728a4.169,4.169,0,0,1-4.144-4.187,4.158,4.158,0,0,1,4.144-4.174h18.219a4.158,4.158,0,0,1,4.144,4.174,4.169,4.169,0,0,1-4.144,4.187H701.2" fill="#43bb4e" fill-rule="evenodd"/>
    <path id="path440" d="M736-2187.728a4.17,4.17,0,0,1-4.145-4.187,4.159,4.159,0,0,1,4.145-4.174h18.219a4.159,4.159,0,0,1,4.145,4.174,4.171,4.171,0,0,1-4.145,4.187H736" fill="#43bb4e" fill-rule="evenodd"/>
    <path id="path442" d="M723.561-2218.635a4.171,4.171,0,0,1,4.147-4.187,4.17,4.17,0,0,1,4.147,4.187v18.36a4.17,4.17,0,0,1-4.147,4.187,4.171,4.171,0,0,1-4.147-4.187v-18.36" fill="#43bb4e" fill-rule="evenodd"/>
    <path id="path444" d="M381.306-2252.715a4.169,4.169,0,0,1,4.144-4.187,4.17,4.17,0,0,1,4.147,4.187v18.36a4.17,4.17,0,0,1-4.147,4.187,4.169,4.169,0,0,1-4.144-4.187v-18.36" fill="#f0393c" fill-rule="evenodd"/>
    <path id="path446" d="M381.306-2217.635a4.158,4.158,0,0,1,4.144-4.173,4.159,4.159,0,0,1,4.147,4.173v18.36a4.17,4.17,0,0,1-4.147,4.187,4.169,4.169,0,0,1-4.144-4.187v-18.36" fill="#f0393c" fill-rule="evenodd"/>
    <path id="path448" d="M358.942-2221.808a4.171,4.171,0,0,1-4.147-4.187,4.159,4.159,0,0,1,4.147-4.174h18.217a4.16,4.16,0,0,1,4.147,4.174,4.171,4.171,0,0,1-4.147,4.187H358.942" fill="#f0393c" fill-rule="evenodd"/>
    <path id="path450" d="M393.743-2221.808a4.171,4.171,0,0,1-4.147-4.187,4.16,4.16,0,0,1,4.147-4.174H411.96a4.158,4.158,0,0,1,4.145,4.174,4.17,4.17,0,0,1-4.145,4.187H393.743" fill="#f0393c" fill-rule="evenodd"/>
    <path id="path452" d="M299.114-2232.728l19.7,81.88a4.834,4.834,0,0,0,.279.813c6.089,13.533-1.7,32.973-18.967,45.453-18.9,13.68-41.988,13.853-51.575.387s-2.037-35.453,16.86-49.133a55.168,55.168,0,0,1,20.672-9.4,4.442,4.442,0,0,0,2.916-2.04,4.511,4.511,0,0,0,.575-3.547l-22.952-95.346a4.551,4.551,0,0,1,2.225-5.107L347-2312.328a4.552,4.552,0,0,1,6.2,1.8l7.36,13.427a23.149,23.149,0,0,1-8.928,31.24l-50.289,28.026a4.564,4.564,0,0,0-2.225,5.107" fill="#43bb4e" fill-rule="evenodd"/>
    <path id="path454" d="M300.41-2103.768c17.263-12.48,25.055-31.92,18.967-45.453l-.28-.813q-14.846,25.9-57.3,55.453c11.141,3.146,25.836.066,38.616-9.187" fill="#32a940" fill-rule="evenodd"/>
    <path id="path456" d="M611.036-1943.3c19.7-8.04,31.819-25.08,29.067-39.68l-.08-.853q-20.49,21.64-68.66,40.266c10.091,5.707,25.092,6.213,39.673.267" fill="#db8e19" fill-rule="evenodd"/>
    <path id="path458" d="M665.788-1971.9c10.085,5.48,24.869,5.88,39.247.027,14.785-6.04,25.3-17.146,28.463-28.48h.409v-1.187l.089-.893a23.863,23.863,0,0,0,.009-9.573q-20.394,21.56-68.217,40.107" fill="#db8e19" fill-rule="evenodd"/>
    <path id="path460" d="M640.022-2068.075v84.24a4.4,4.4,0,0,0,.08.853c2.752,14.6-9.368,31.64-29.067,39.68-21.563,8.787-44.044,3.467-50.211-11.893s6.315-34.947,27.876-43.746a55.151,55.151,0,0,1,22.288-4.213,4.4,4.4,0,0,0,3.315-1.293,4.494,4.494,0,0,0,1.384-3.307v-98.12a4.547,4.547,0,0,1,3.363-4.44l90.522-24.853v-.107h.392l18.129-4.973a4.388,4.388,0,0,1,3.969.787,4.462,4.462,0,0,1,1.789,3.654v.533h.053v122.32a4.306,4.306,0,0,0,.1.947,23.864,23.864,0,0,1-.009,9.573,4.417,4.417,0,0,0-.089.893v1.187H733.5c-3.159,11.333-13.677,22.44-28.463,28.48-21.565,8.787-44.044,3.467-50.212-11.893s6.315-34.947,27.877-43.747a55.1,55.1,0,0,1,22.185-4.213,4.4,4.4,0,0,0,3.307-1.307,4.441,4.441,0,0,0,1.381-3.293v-48.36a4.454,4.454,0,0,0-1.792-3.653,4.39,4.39,0,0,0-3.968-.787L643.383-2072.5a4.533,4.533,0,0,0-3.36,4.427" fill="#f9b317" fill-rule="evenodd"/>
    <path id="path462" d="M473.109-2230.741l96.393,56.106a11.874,11.874,0,0,1,5.743,7.747,11.951,11.951,0,0,1-1.607,9.533l-152.8,238.573a12.108,12.108,0,0,1-16.3,3.973l-72.149-42a12.3,12.3,0,0,1-4.743-16.213L456.2-2225.715a11.8,11.8,0,0,1,7.385-6.16,11.7,11.7,0,0,1,9.523,1.134" fill="#5b7fc9" fill-rule="evenodd"/>
    <path id="path464" d="M616.359-2368.648c54.556,31.747,73.248,102.08,41.751,157.066s-101.258,73.84-155.814,42.093-73.246-102.08-41.749-157.08,101.257-73.84,155.813-42.08" fill="#465da9" fill-rule="evenodd"/>
    <path id="path466" d="M471.127-2341.648l194.65,113.293a19.3,19.3,0,0,1,6.957,26.174h0a18.968,18.968,0,0,1-25.968,7.013l-194.652-113.28a19.316,19.316,0,0,1-6.957-26.187h0a18.981,18.981,0,0,1,25.969-7.013" fill="#5b7fc9" fill-rule="evenodd"/>
    <path id="path468" d="M547.787-2116.995q-113.94,155.88-193.36,173.013l50.109,29.173a12.108,12.108,0,0,0,16.3-3.973l126.948-198.213" fill="#4267ba" fill-rule="evenodd"/>
    <path id="path470" d="M642.222-2242.074l23.553,13.72.2.12a115.547,115.547,0,0,0,4.289-67.56,171.492,171.492,0,0,1-28.043,53.72" fill="#2f4686" fill-rule="evenodd"/>
    <path id="path472" d="M614.681-2213.835A169.323,169.323,0,0,1,555.64-2182.7a169.154,169.154,0,0,1-47.835,6.867q-8.252,0-16.315-.773a116.276,116.276,0,0,0,10.8,7.12,112.918,112.918,0,0,0,69.7,14.707,113.941,113.941,0,0,0,74.776-40.386l-32.085-18.667" fill="#2f4686" fill-rule="evenodd"/>
    <path id="path474" d="M443.8-2079.608l10.539,6.133a6.163,6.163,0,0,1,2.225,8.373l-14.448,25.227a6.067,6.067,0,0,1-8.309,2.24l-10.537-6.133a6.167,6.167,0,0,1-2.227-8.373l14.449-25.227a6.065,6.065,0,0,1,8.308-2.24" fill="#f0393c" fill-rule="evenodd"/>
    <path id="path476" d="M421.831-2041.262l10.537,6.133a6.17,6.17,0,0,1,2.227,8.373l-4.183,7.307a6.055,6.055,0,0,1-8.309,2.24l-10.539-6.133a6.164,6.164,0,0,1-2.225-8.373l4.184-7.307a6.065,6.065,0,0,1,8.308-2.24" fill="#f9b317" fill-rule="evenodd"/>
  </g>
</svg>
