<?xml version="1.0" ?><svg width="64px" height="64px" viewBox="0 0 64 64" data-name="Layer 1" id="Layer_1" xmlns="http://www.w3.org/2000/svg"><defs><style>.cls-1{fill:#d81b61;}.cls-2{fill:#c21e5c;}.cls-3{fill:#42a047;}.cls-4{fill:#378e43;}.cls-5{fill:#ae1f59;}.cls-6{fill:#881a51;}.cls-7{fill:#edeff0;}</style></defs><path class="cls-1" d="M31.01,47.04c-1.96,3.02-5.21,4.5-9.01,4.86a18.73,18.73,0,0,1-2,.1c-.68,0-1.35-.03-2-.09-6.23-.6-11-4.16-11-12.66C7,29.86,12.82,18,20,18c6.37,0,11.67,9.34,12.78,18H26C26,40.67,27.44,44.75,31.01,47.04Z"/><path class="cls-2" d="M31.01,47.04c-1.96,3.02-5.21,4.5-9.01,4.86a18.73,18.73,0,0,1-2,.1V18c6.37,0,11.67,9.34,12.78,18H26C26,40.67,27.44,44.75,31.01,47.04Z"/><path class="cls-3" d="M28,44a5.2159,5.2159,0,0,0-2-4,5.2159,5.2159,0,0,0-2,4"/><path class="cls-4" d="M28,44H26V40A5.2166,5.2166,0,0,1,28,44Z"/><path class="cls-3" d="M21.94,16.83v1.46a6.634,6.634,0,0,0-3.88,0V16.83A6.9512,6.9512,0,0,1,20,12,6.9512,6.9512,0,0,1,21.94,16.83Z"/><path class="cls-4" d="M21.94,16.83v1.46A6.704,6.704,0,0,0,20,18V12A6.9512,6.9512,0,0,1,21.94,16.83Z"/><path class="cls-3" d="M22,26H18a5.2166,5.2166,0,0,1,2-4A5.2166,5.2166,0,0,1,22,26Z"/><path class="cls-4" d="M22,26H20V22A5.2166,5.2166,0,0,1,22,26Z"/><path class="cls-3" d="M16,32a5.2159,5.2159,0,0,0-2-4,5.2159,5.2159,0,0,0-2,4"/><path class="cls-3" d="M28,32a5.2159,5.2159,0,0,0-2-4,5.2159,5.2159,0,0,0-2,4"/><path class="cls-3" d="M22,38a5.2159,5.2159,0,0,0-2-4,5.2159,5.2159,0,0,0-2,4"/><path class="cls-3" d="M22,50v1.9a18.73,18.73,0,0,1-2,.1c-.68,0-1.35-.03-2-.09V50a5.2166,5.2166,0,0,1,2-4A5.2166,5.2166,0,0,1,22,50Z"/><path class="cls-4" d="M22,50v1.9a18.73,18.73,0,0,1-2,.1V46A5.2166,5.2166,0,0,1,22,50Z"/><path class="cls-3" d="M16,44a5.2159,5.2159,0,0,0-2-4,5.2159,5.2159,0,0,0-2,4"/><path class="cls-4" d="M30.6044,27.9861l1.109-2.1328a7.02,7.02,0,0,0,.5034-5.2005,6.6587,6.6587,0,0,0-3.8261,3.1463A26.21,26.21,0,0,1,30.6044,27.9861Z"/><path class="cls-3" d="M9.3956,27.9861a26.21,26.21,0,0,1,2.2137-4.187,6.6587,6.6587,0,0,0-3.8261-3.1463,7.02,7.02,0,0,0,.5034,5.2005Z"/><path class="cls-3" d="M7,39.25c0-.615.0264-1.241.0751-1.8731a6.4956,6.4956,0,0,0-3.0392-1.1492,6.9776,6.9776,0,0,0,1.4421,5.01l2.1091,2.6829A17.2372,17.2372,0,0,1,7,39.25Z"/><path class="cls-1" d="M60,36c0,6.13-8.63,11.26-17,12.64a27.0945,27.0945,0,0,1-4.25.36C29.36,49,26,43.18,26,36Z"/><path class="cls-2" d="M60,36c0,6.13-8.63,11.26-17,12.64V36Z"/><path class="cls-3" d="M50.0139,46.6044l2.1328,1.109a7.02,7.02,0,0,0,5.2.5034,6.6584,6.6584,0,0,0-3.1463-3.8261A26.2179,26.2179,0,0,1,50.0139,46.6044Z"/><path class="cls-3" d="M41.7723,51.9641a6.4956,6.4956,0,0,0-1.1492-3.0392C39.991,48.9736,39.365,49,38.75,49a17.2372,17.2372,0,0,1-4.6708-.5871l2.683,2.1091A6.9772,6.9772,0,0,0,41.7723,51.9641Z"/><path class="cls-5" d="M56,36c0,4.09-6.64,7.54-13,8.63A23.4414,23.4414,0,0,1,39,45c-7.18,0-9-4.03-9-9Z"/><path class="cls-6" d="M56,36c0,4.09-6.64,7.54-13,8.63V36Z"/><path class="cls-4" d="M28,32H26V28A5.2166,5.2166,0,0,1,28,32Z"/><path class="cls-4" d="M16,32H14V28A5.2166,5.2166,0,0,1,16,32Z"/><path class="cls-4" d="M22,38H20V34A5.2166,5.2166,0,0,1,22,38Z"/><path class="cls-4" d="M16,44H14V40A5.2166,5.2166,0,0,1,16,44Z"/><circle class="cls-7" cx="35" cy="40" r="1"/><circle class="cls-7" cx="39" cy="40" r="1"/><circle class="cls-7" cx="43" cy="40" r="1"/><circle class="cls-7" cx="47" cy="40" r="1"/></svg>