<?xml version="1.0" ?><svg width="64px" height="64px" viewBox="0 0 64 64" data-name="Layer 1" id="Layer_1" xmlns="http://www.w3.org/2000/svg"><defs><style>.cls-1{fill:#fdd837;}.cls-2{fill:#f9bf2c;}.cls-3{fill:#fef8c5;}.cls-4{fill:#fff278;}.cls-5{fill:#fef59f;}.cls-6{fill:#feed58;}</style></defs><path class="cls-1" d="M60,35a17,17,0,0,1-34,0Z"/><path class="cls-2" d="M60,35A16.9985,16.9985,0,0,1,43,52V35Z"/><path class="cls-3" d="M56,35a13,13,0,1,1-26,0Z"/><path class="cls-4" d="M56,35A12.9985,12.9985,0,0,1,43,48V35Z"/><path class="cls-5" d="M48.81,46.63a13.0047,13.0047,0,0,1-11.62,0L43,35Z"/><path class="cls-6" d="M48.81,46.63A12.8816,12.8816,0,0,1,43,48V35Z"/><path class="cls-1" d="M26,35a16.9391,16.9391,0,0,0,6.08,13.02c-5.62,3.97-11.75,5.32-17.06,2.42a4.0466,4.0466,0,0,0-3.26-.29l-1.32.47a3.9709,3.9709,0,0,1-5.06-5.06l.47-1.32a4.0466,4.0466,0,0,0-.29-3.26c-3.66-6.7-.57-14.72,6.06-21.36,6.64-6.63,14.66-9.72,21.36-6.06a4.0466,4.0466,0,0,0,3.26.29l1.32-.47a3.9709,3.9709,0,0,1,5.06,5.06l-.47,1.32a4.0466,4.0466,0,0,0,.29,3.26c2.04,3.74,1.98,7.89.38,11.98Z"/><path class="cls-2" d="M26,35a16.9391,16.9391,0,0,0,6.08,13.02c-5.62,3.97-11.75,5.32-17.06,2.42a4.0466,4.0466,0,0,0-3.26-.29l-1.32.47a3.9571,3.9571,0,0,1-4.12-.94L41.68,14.32a3.9571,3.9571,0,0,1,.94,4.12l-.47,1.32a4.0466,4.0466,0,0,0,.29,3.26c2.04,3.74,1.98,7.89.38,11.98Z"/></svg>