<?xml version="1.0" ?><svg width="64px" height="64px" viewBox="0 0 64 64" data-name="Layer 1" id="Layer_1" xmlns="http://www.w3.org/2000/svg"><defs><style>.cls-1{fill:#6d4d42;}.cls-2{fill:#f78c1e;}.cls-3{fill:#f47c20;}.cls-4{fill:#378e43;}.cls-5{fill:#42a047;}.cls-6{fill:#faa629;}.cls-7{fill:#fcb64d;}</style></defs><path class="cls-1" d="M20,21a1,1,0,0,1-1-1,9.01,9.01,0,0,1,9-9,1,1,0,0,1,0,2,7.0081,7.0081,0,0,0-7,7A1,1,0,0,1,20,21Z"/><path class="cls-2" d="M30,48.48a16,16,0,1,1,0-24.96,15.9792,15.9792,0,0,0,0,24.96Z"/><path class="cls-3" d="M30,48.48A15.9059,15.9059,0,0,1,20,52V20a15.9059,15.9059,0,0,1,10,3.52,15.9792,15.9792,0,0,0,0,24.96Z"/><path class="cls-4" d="M20,18.06V20H18.06A6.056,6.056,0,0,1,12,13.94V12h1.94A6.056,6.056,0,0,1,20,18.06Z"/><path class="cls-5" d="M20,20H18.06A6.056,6.056,0,0,1,12,13.94V12Z"/><path class="cls-1" d="M40,21a1,1,0,0,0,1-1,9.01,9.01,0,0,0-9-9,1,1,0,0,0,0,2,7.0081,7.0081,0,0,1,7,7A1,1,0,0,0,40,21Z"/><path class="cls-4" d="M40,18.06V20h1.94A6.056,6.056,0,0,0,48,13.94V12H46.06A6.056,6.056,0,0,0,40,18.06Z"/><path class="cls-5" d="M40,20h1.94A6.056,6.056,0,0,0,48,13.94V12Z"/><path class="cls-6" d="M56.36,48.36a12.4386,12.4386,0,0,1-15.2,1.86,2.43,2.43,0,0,1-.45-3.79l.14-.14.01-.01a9.3414,9.3414,0,0,1,6.71-2.56,4.1654,4.1654,0,0,0,4.15-4.15,9.3414,9.3414,0,0,1,2.56-6.71l.01-.01.14-.14a2.43,2.43,0,0,1,3.79.45A12.4386,12.4386,0,0,1,56.36,48.36Z"/><path class="cls-7" d="M57,39.5a9.5041,9.5041,0,0,1-16.15,6.79l.01-.01a9.3414,9.3414,0,0,1,6.71-2.56,4.1654,4.1654,0,0,0,4.15-4.15,9.3414,9.3414,0,0,1,2.56-6.71l.01-.01A9.4559,9.4559,0,0,1,57,39.5Z"/><path class="cls-2" d="M55.5,32.1a2.4092,2.4092,0,0,0-1.07.61l-.15.15a9.3414,9.3414,0,0,0-2.56,6.71,4.1654,4.1654,0,0,1-4.15,4.15,9.3414,9.3414,0,0,0-6.71,2.56l-.15.15a2.4318,2.4318,0,0,0,.45,3.79A12.6231,12.6231,0,0,0,44,51.48,15.9959,15.9959,0,1,1,55.5,32.1Z"/><path class="cls-3" d="M40,52V48.15a2.4057,2.4057,0,0,0,1.16,2.07A12.6231,12.6231,0,0,0,44,51.48,16.0069,16.0069,0,0,1,40,52Z"/><path class="cls-3" d="M55.5,32.1a2.4092,2.4092,0,0,0-1.07.61l-.15.15a9.3414,9.3414,0,0,0-2.56,6.71,4.1654,4.1654,0,0,1-4.15,4.15,9.3414,9.3414,0,0,0-6.71,2.56l-.15.15A2.414,2.414,0,0,0,40,48.15V20A15.9839,15.9839,0,0,1,55.5,32.1Z"/></svg>