<?xml version="1.0" ?><svg width="64px" height="64px" viewBox="0 0 64 64" data-name="Layer 1" id="Layer_1" xmlns="http://www.w3.org/2000/svg"><defs><style>.cls-1{fill:#6d4d42;}.cls-2{fill:#42a047;}.cls-3{fill:#378e43;}.cls-4{fill:#f78c1e;}.cls-5{fill:#f47c20;}.cls-6{fill:#e55325;}.cls-7{fill:#ed6d23;}</style></defs><path class="cls-1" d="M24,24a1,1,0,0,1-1-1V19.74A8.75,8.75,0,0,1,31.74,11H35a1,1,0,0,1,0,2H31.74A6.7475,6.7475,0,0,0,25,19.74V23A1,1,0,0,1,24,24Z"/><path class="cls-2" d="M28,28c0,4-4,5-4,5s-4-1-4-5,4-5,4-5S28,24,28,28Z"/><path class="cls-3" d="M28,28c0,4-4,5-4,5V23S28,24,28,28Z"/><path class="cls-2" d="M29,19c-4,0-5,4-5,4a5.5357,5.5357,0,0,1,3.8748,3.8748A5.29,5.29,0,0,0,29,27c4,0,5-4,5-4S33,19,29,19Z"/><path class="cls-3" d="M24,23s-1-4-5-4-5,4-5,4,1,4,5,4a5.29,5.29,0,0,0,1.1252-.1252A5.5357,5.5357,0,0,1,24,23Z"/><circle class="cls-4" cx="46" cy="38" r="14"/><path class="cls-5" d="M60,38A14.0025,14.0025,0,0,1,46,52V24A14.0025,14.0025,0,0,1,60,38Z"/><path class="cls-4" d="M37.67,49.23A14.9,14.9,0,0,1,24,51.13a14.9867,14.9867,0,1,1-9.96-28.27A.8328.8328,0,0,0,14,23s1,4,5,4a5.0061,5.0061,0,0,0,1.13-.13A5.0061,5.0061,0,0,0,20,28c0,4,4,5,4,5s4-1,4-5a5.0061,5.0061,0,0,0-.13-1.13A5.0061,5.0061,0,0,0,29,27c4,0,5-4,5-4a.8328.8328,0,0,0-.04-.14,15.0323,15.0323,0,0,1,5.07,3.01,13.9688,13.9688,0,0,0-1.36,23.36Z"/><path class="cls-5" d="M37.67,49.23A14.9,14.9,0,0,1,24,51.13V33s4-1,4-5a5.0061,5.0061,0,0,0-.13-1.13A5.0061,5.0061,0,0,0,29,27c4,0,5-4,5-4a.8328.8328,0,0,0-.04-.14,15.0323,15.0323,0,0,1,5.07,3.01,13.9688,13.9688,0,0,0-1.36,23.36Z"/><path class="cls-6" d="M49,47a.9994.9994,0,0,1-.9482-.6836l-1-3a1,1,0,1,1,1.8964-.6328l1,3A1.0007,1.0007,0,0,1,49,47Z"/><path class="cls-7" d="M43,47a1.0007,1.0007,0,0,1-.9482-1.3164l1-3a1,1,0,0,1,1.8964.6328l-1,3A.9994.9994,0,0,1,43,47Z"/><path class="cls-6" d="M48,34a1.0007,1.0007,0,0,1-.9482-1.3164l1-3a1,1,0,0,1,1.8964.6328l-1,3A.9994.9994,0,0,1,48,34Z"/><path class="cls-7" d="M44,34a.9994.9994,0,0,1-.9482-.6836l-1-3a1,1,0,0,1,1.8964-.6328l1,3A1.0007,1.0007,0,0,1,44,34Z"/><path class="cls-7" d="M38,42a1,1,0,0,1-.3164-1.9482l3-1a1,1,0,1,1,.6328,1.8964l-3,1A.9972.9972,0,0,1,38,42Z"/><path class="cls-7" d="M41,37a.9972.9972,0,0,1-.3164-.0518l-3-1a1,1,0,0,1,.6328-1.8964l3,1A1,1,0,0,1,41,37Z"/><path class="cls-6" d="M54,42a.9972.9972,0,0,1-.3164-.0518l-3-1a1,1,0,0,1,.6328-1.8964l3,1A1,1,0,0,1,54,42Z"/><path class="cls-6" d="M51,37a1,1,0,0,1-.3164-1.9482l3-1a1,1,0,0,1,.6328,1.8964l-3,1A.9972.9972,0,0,1,51,37Z"/><path class="cls-3" d="M29,19c4,0,5,4,5,4H24S25,19,29,19Z"/><path class="cls-2" d="M19,19c-4,0-5,4-5,4H24S23,19,19,19Z"/></svg>