<?xml version="1.0" ?><svg width="64px" height="64px" viewBox="0 0 64 64" data-name="Layer 1" id="Layer_1" xmlns="http://www.w3.org/2000/svg"><defs><style>.cls-1{fill:#fdd837;}.cls-2{fill:#f9bf2c;}.cls-3{fill:#378e43;}.cls-4{fill:#42a047;}.cls-5{fill:#6d4d42;}</style></defs><path class="cls-1" d="M59.99,38a8.9936,8.9936,0,0,1-.13,1.62,7.74,7.74,0,0,1-5.81,6.41,6.25,6.25,0,0,1-1.54.13,10.422,10.422,0,0,0-7.48,2.63A12.4142,12.4142,0,0,1,43,50.32,11.36,11.36,0,0,1,37.07,52a12.1219,12.1219,0,0,1-10.16-5.86A5.8923,5.8923,0,0,1,28.73,38Z"/><path class="cls-2" d="M59.99,38a8.9936,8.9936,0,0,1-.13,1.62,7.74,7.74,0,0,1-5.81,6.41,6.25,6.25,0,0,1-1.54.13,10.422,10.422,0,0,0-7.48,2.63A12.4142,12.4142,0,0,1,43,50.32V38Z"/><path class="cls-1" d="M26.91,46.14a13.6313,13.6313,0,0,0,2.07,2.51,13.6521,13.6521,0,0,1-2.84,2.44A5.8923,5.8923,0,0,1,18,49.27a5.8842,5.8842,0,0,1-8.21,1.76,12.3041,12.3041,0,0,1-5.72-8.79,11.5463,11.5463,0,0,1,2.9-9,10.8133,10.8133,0,0,0,2.87-7.63c0-.1-.01-.21-.01-.32,0-4.03,3.66-7.3,8.17-7.29a9.94,9.94,0,0,1,1.62.14,7.74,7.74,0,0,1,6.41,5.81,6.25,6.25,0,0,1,.13,1.54,10.422,10.422,0,0,0,2.63,7.48A11.8513,11.8513,0,0,1,31.6,38H28.73A5.8923,5.8923,0,0,0,26.91,46.14Z"/><path class="cls-2" d="M26.91,46.14a13.6313,13.6313,0,0,0,2.07,2.51,13.6521,13.6521,0,0,1-2.84,2.44A5.8923,5.8923,0,0,1,18,49.27V18a9.94,9.94,0,0,1,1.62.14,7.74,7.74,0,0,1,6.41,5.81,6.25,6.25,0,0,1,.13,1.54,10.422,10.422,0,0,0,2.63,7.48A11.8513,11.8513,0,0,1,31.6,38H28.73A5.8923,5.8923,0,0,0,26.91,46.14Z"/><path class="cls-3" d="M18,15.85V18H15.85A3.8453,3.8453,0,0,1,12,14.15V12h2.15A3.8453,3.8453,0,0,1,18,15.85Z"/><path class="cls-4" d="M18,18H15.85A3.8453,3.8453,0,0,1,12,14.15V12Z"/><circle class="cls-5" cx="37" cy="42" r="1"/><circle class="cls-5" cx="41" cy="42" r="1"/></svg>