<?xml version="1.0" ?><svg width="64px" height="64px" viewBox="0 0 64 64" data-name="Layer 1" id="Layer_1" xmlns="http://www.w3.org/2000/svg"><defs><style>.cls-1{fill:#6d4d42;}.cls-2{fill:#378e43;}.cls-3{fill:#42a047;}.cls-4{fill:#f78c1e;}.cls-5{fill:#f47c20;}.cls-6{fill:#ab6cad;}.cls-7{fill:#9b51a0;}.cls-8{fill:#863b96;}.cls-9{fill:#fcb64d;}.cls-10{fill:#faa629;}</style></defs><path class="cls-1" d="M44,21a1,1,0,0,0,1-1,9.01,9.01,0,0,0-9-9,1,1,0,0,0,0,2,7.0081,7.0081,0,0,1,7,7A1,1,0,0,0,44,21Z"/><path class="cls-2" d="M44,18.06V20h1.94A6.056,6.056,0,0,0,52,13.94V12H50.06A6.056,6.056,0,0,0,44,18.06Z"/><path class="cls-3" d="M44,20h1.94A6.056,6.056,0,0,0,52,13.94V12Z"/><path class="cls-4" d="M60,36c0,8.84-5.82,16-13,16a10.3775,10.3775,0,0,1-3-.45A10.3775,10.3775,0,0,1,41,52c-7.18,0-13-7.16-13-16s5.82-16,13-16a10.3775,10.3775,0,0,1,3,.45A10.3775,10.3775,0,0,1,47,20C54.18,20,60,27.16,60,36Z"/><path class="cls-5" d="M60,36c0,8.84-5.82,16-13,16a10.3775,10.3775,0,0,1-3-.45V20.45A10.3775,10.3775,0,0,1,47,20C54.18,20,60,27.16,60,36Z"/><path class="cls-1" d="M20,21a1,1,0,0,1-1-1,9.01,9.01,0,0,1,9-9,1,1,0,0,1,0,2,7.0081,7.0081,0,0,0-7,7A1,1,0,0,1,20,21Z"/><path class="cls-2" d="M20,18.06V20H18.06A6.056,6.056,0,0,1,12,13.94V12h1.94A6.056,6.056,0,0,1,20,18.06Z"/><path class="cls-3" d="M20,20H18.06A6.056,6.056,0,0,1,12,13.94V12Z"/><path class="cls-6" d="M28,36a17.8919,17.8919,0,0,0,4,11.53A11.8237,11.8237,0,0,1,23,52a10.3775,10.3775,0,0,1-3-.45A10.3775,10.3775,0,0,1,17,52C9.82,52,4,44.84,4,36S9.82,20,17,20a8.2724,8.2724,0,0,1,1.11.07,9.3142,9.3142,0,0,1,1.89.38A10.3775,10.3775,0,0,1,23,20c.33,0,.66.02.99.05A12.0322,12.0322,0,0,1,32,24.47,17.8919,17.8919,0,0,0,28,36Z"/><path class="cls-7" d="M28,36a17.8919,17.8919,0,0,0,4,11.53A11.8237,11.8237,0,0,1,23,52a10.3775,10.3775,0,0,1-3-.45V20.45A10.3775,10.3775,0,0,1,23,20a11.8237,11.8237,0,0,1,9,4.47A17.8919,17.8919,0,0,0,28,36Z"/><path class="cls-8" d="M23.99,20.05A.9911.9911,0,0,1,23,21c-6.62,0-12,6.73-12,15a1,1,0,0,1-2,0c0-7.28,3.79-13.52,9.11-15.93a9.3142,9.3142,0,0,1,1.89.38A10.3775,10.3775,0,0,1,23,20C23.33,20,23.66,20.02,23.99,20.05Z"/><ellipse class="cls-9" cx="44" cy="36" rx="4" ry="7"/><path class="cls-10" d="M48,36c0,3.87-1.79,7-4,7V29C46.21,29,48,32.13,48,36Z"/></svg>