<?xml version="1.0" ?><svg width="64px" height="64px" viewBox="0 0 64 64" data-name="Layer 1" id="Layer_1" xmlns="http://www.w3.org/2000/svg"><defs><style>.cls-1{fill:#e53a35;}.cls-2{fill:#d32e2e;}.cls-3{fill:#6d4d42;}.cls-4{fill:#42a047;}.cls-5{fill:#378e43;}.cls-6{fill:#b72025;}.cls-7{fill:#c52928;}</style></defs><path class="cls-1" d="M20,36.7207V37H17.6951A3.693,3.693,0,0,1,14.07,34.0035c-.0237,0-.0466-.0035-.07-.0035a8.02,8.02,0,1,0,6,2.7207Z"/><path class="cls-2" d="M19.6569,36.3431,8.3431,47.6569A8,8,0,0,0,19.6569,36.3431Z"/><path class="cls-3" d="M19,39a1,1,0,0,1-.6934-1.7207l3.6622-3.5244A30.5736,30.5736,0,0,0,30.9717,12a1,1,0,0,1,2,0,32.5693,32.5693,0,0,1-9.6026,23.1826l-3.6757,3.5381A.9973.9973,0,0,1,19,39Z"/><path class="cls-3" d="M45,39a.9953.9953,0,0,1-.68-.2666l-2.6709-2.4766-1.0742-1.0742A32.5678,32.5678,0,0,1,30.9717,12a1,1,0,0,1,2,0,30.5831,30.5831,0,0,0,9.0176,21.7686l1.0468,1.0478,2.6436,2.45A1,1,0,0,1,45,39Z"/><path class="cls-4" d="M32,12A11.9967,11.9967,0,0,1,20,24,11.9839,11.9839,0,0,1,32,12Z"/><path class="cls-5" d="M32,12A11.9967,11.9967,0,0,1,20,24Z"/><path class="cls-6" d="M14,53a1,1,0,0,1-1-1V48a1,1,0,0,1,2,0v4A1,1,0,0,1,14,53Z"/><path class="cls-7" d="M8,43H4a1,1,0,0,1,0-2H8a1,1,0,0,1,0,2Z"/><path class="cls-6" d="M24,43H20a1,1,0,0,1,0-2h4a1,1,0,0,1,0,2Z"/><path class="cls-7" d="M9.7578,38.7578a.9964.9964,0,0,1-.707-.293L6.2217,35.6357a1,1,0,0,1,1.414-1.414l2.8291,2.8291a1,1,0,0,1-.707,1.707Z"/><path class="cls-6" d="M21.0713,50.0713a.9967.9967,0,0,1-.707-.293l-2.8291-2.8291a1,1,0,1,1,1.414-1.414l2.8291,2.8291a1,1,0,0,1-.707,1.707Z"/><path class="cls-6" d="M6.9287,50.0713a1,1,0,0,1-.707-1.707l2.8291-2.8291a1,1,0,1,1,1.414,1.414L7.6357,49.7783A.9967.9967,0,0,1,6.9287,50.0713Z"/><path class="cls-5" d="M20,34.7V37H17.7A3.6917,3.6917,0,0,1,14,33.3V31h2.3A3.6917,3.6917,0,0,1,20,34.7Z"/><path class="cls-4" d="M20,37H17.7A3.6917,3.6917,0,0,1,14,33.3V31Z"/><path class="cls-1" d="M44,36.7207V37h2.3049A3.693,3.693,0,0,0,49.93,34.0035c.0237,0,.0466-.0035.07-.0035a8.02,8.02,0,1,1-6,2.7207Z"/><path class="cls-2" d="M44.3431,36.3431,55.6569,47.6569A8,8,0,0,1,44.3431,36.3431Z"/><path class="cls-6" d="M50,53a1,1,0,0,0,1-1V48a1,1,0,0,0-2,0v4A1,1,0,0,0,50,53Z"/><path class="cls-7" d="M56,43h4a1,1,0,0,0,0-2H56a1,1,0,0,0,0,2Z"/><path class="cls-6" d="M40,43h4a1,1,0,0,0,0-2H40a1,1,0,0,0,0,2Z"/><path class="cls-7" d="M54.2422,38.7578a.9964.9964,0,0,0,.707-.293l2.8291-2.8291a1,1,0,0,0-1.414-1.414l-2.8291,2.8291a1,1,0,0,0,.707,1.707Z"/><path class="cls-6" d="M42.9287,50.0713a.9967.9967,0,0,0,.707-.293l2.8291-2.8291a1,1,0,1,0-1.414-1.414l-2.8291,2.8291a1,1,0,0,0,.707,1.707Z"/><path class="cls-6" d="M57.0713,50.0713a1,1,0,0,0,.707-1.707l-2.8291-2.8291a1,1,0,1,0-1.414,1.414l2.8291,2.8291A.9967.9967,0,0,0,57.0713,50.0713Z"/><path class="cls-5" d="M44,34.7V37h2.3A3.6917,3.6917,0,0,0,50,33.3V31H47.7A3.6917,3.6917,0,0,0,44,34.7Z"/><path class="cls-4" d="M44,37h2.3A3.6917,3.6917,0,0,0,50,33.3V31Z"/></svg>