<?xml version="1.0" ?><svg width="64px" height="64px" viewBox="0 0 64 64" data-name="Layer 1" id="Layer_1" xmlns="http://www.w3.org/2000/svg"><defs><style>.cls-1{fill:#42a047;}.cls-2{fill:#378e43;}.cls-3{fill:#e53a35;}.cls-4{fill:#d32e2e;}.cls-5{fill:#263238;}.cls-6{fill:#317e3d;}</style></defs><path class="cls-1" d="M60,33a19,19,0,0,1-38,0Z"/><path class="cls-2" d="M60,33A19.0044,19.0044,0,0,1,41,52V33Z"/><path class="cls-3" d="M56,33a15,15,0,0,1-30,0Z"/><path class="cls-4" d="M56,33A15.0055,15.0055,0,0,1,41,48V33Z"/><circle class="cls-5" cx="43" cy="37" r="1"/><circle class="cls-5" cx="47" cy="37" r="1"/><circle class="cls-5" cx="49" cy="41" r="1"/><circle class="cls-5" cx="45" cy="41" r="1"/><circle class="cls-5" cx="41" cy="41" r="1"/><circle class="cls-5" cx="37" cy="41" r="1"/><circle class="cls-5" cx="33" cy="41" r="1"/><circle class="cls-5" cx="35" cy="37" r="1"/><circle class="cls-5" cx="31" cy="37" r="1"/><circle class="cls-5" cx="39" cy="37" r="1"/><circle class="cls-5" cx="51" cy="37" r="1"/><path class="cls-2" d="M40,32c0,.34-.03.67-.05,1H35.03a.01.01,0,0,1-.01-.01c-.85-.96-2-1.64-2.63-2.79a3.1824,3.1824,0,0,1-.16-.32,4.0206,4.0206,0,0,1-.31-1.59c0-3.71,4.16-3.71,4.16-7.42a3.6852,3.6852,0,0,0-.04-.58.2485.2485,0,0,0-.01-.08,2.8443,2.8443,0,0,0-.09-.42.0756.0756,0,0,0-.01-.04,2.4011,2.4011,0,0,0-.12-.38.59.59,0,0,0-.04-.08,3.1065,3.1065,0,0,0-.2-.41A21.1962,21.1962,0,0,1,40,32Z"/><path class="cls-6" d="M35.02,32.99a.01.01,0,0,0,.01.01h-8c-1.24-1.39-3.11-2.21-3.11-4.71,0-3.71,4.16-3.71,4.16-7.42,0-3.72-4.16-3.72-4.16-7.44a3.9261,3.9261,0,0,1,.2-1.29,16.9328,16.9328,0,0,1,8.83,3.99,17.9808,17.9808,0,0,0,1.41,1.35s.03.01.03.02a14.6245,14.6245,0,0,1,1.15,1.33.055.055,0,0,1,.03.05c.07.13.14.27.2.41a.59.59,0,0,1,.04.08,2.4011,2.4011,0,0,1,.12.38.0756.0756,0,0,1,.01.04,2.8443,2.8443,0,0,1,.09.42.2485.2485,0,0,1,.01.08,3.6852,3.6852,0,0,1,.04.58c0,3.71-4.16,3.71-4.16,7.42a4.0206,4.0206,0,0,0,.31,1.59,3.1824,3.1824,0,0,0,.16.32C33.02,31.35,34.17,32.03,35.02,32.99Z"/><path class="cls-1" d="M28.08,50.57a2.0083,2.0083,0,0,1-.01.25A16.2043,16.2043,0,0,1,22,52a16.41,16.41,0,0,1-2.12-.14,3.9261,3.9261,0,0,0,.2-1.29c0-3.71-4.16-3.71-4.16-7.42s4.16-3.71,4.16-7.43c0-3.71-4.16-3.71-4.16-7.43,0-3.71,4.16-3.71,4.16-7.42,0-3.72-4.16-3.72-4.16-7.44a2.26,2.26,0,0,1,.01-.26,16.2773,16.2773,0,0,1,8.19-1.03,3.9261,3.9261,0,0,0-.2,1.29c0,3.72,4.16,3.72,4.16,7.44,0,3.71-4.16,3.71-4.16,7.42,0,2.5,1.87,3.32,3.11,4.71H22a18.8642,18.8642,0,0,0,2.15,8.77,4.1084,4.1084,0,0,0-.23,1.38C23.92,46.86,28.08,46.86,28.08,50.57Z"/><path class="cls-2" d="M27.03,33H22V12a16.41,16.41,0,0,1,2.12.14,3.9261,3.9261,0,0,0-.2,1.29c0,3.72,4.16,3.72,4.16,7.44,0,3.71-4.16,3.71-4.16,7.42C23.92,30.79,25.79,31.61,27.03,33Z"/><path class="cls-2" d="M28.08,50.57a2.0083,2.0083,0,0,1-.01.25A16.2043,16.2043,0,0,1,22,52V33a18.8642,18.8642,0,0,0,2.15,8.77,4.1084,4.1084,0,0,0-.23,1.38C23.92,46.86,28.08,46.86,28.08,50.57Z"/><path class="cls-2" d="M15.92,43.15c0,3.71,4.16,3.71,4.16,7.42a3.9261,3.9261,0,0,1-.2,1.29,16.9762,16.9762,0,0,1-8.86-4.01.0781.0781,0,0,1-.04-.04A14.7574,14.7574,0,0,0,9.7,46.59a15.9994,15.9994,0,0,1-1.27-1.46,3.8436,3.8436,0,0,1-.51-1.98c0-3.71,4.16-3.71,4.16-7.43,0-3.71-4.16-3.71-4.16-7.43,0-3.71,4.16-3.71,4.16-7.42,0-1.88-1.06-2.81-2.11-3.74a17.6638,17.6638,0,0,1,5.96-3.96,2.26,2.26,0,0,0-.01.26c0,3.72,4.16,3.72,4.16,7.44,0,3.71-4.16,3.71-4.16,7.42,0,3.72,4.16,3.72,4.16,7.43C20.08,39.44,15.92,39.44,15.92,43.15Z"/><path class="cls-1" d="M12.08,35.72c0,3.72-4.16,3.72-4.16,7.43a3.8436,3.8436,0,0,0,.51,1.98A21.2252,21.2252,0,0,1,4,32,20.9652,20.9652,0,0,1,9.97,17.13c1.05.93,2.11,1.86,2.11,3.74,0,3.71-4.16,3.71-4.16,7.42C7.92,32.01,12.08,32.01,12.08,35.72Z"/><path class="cls-6" d="M28.07,50.82a2.0083,2.0083,0,0,0,.01-.25c0-3.71-4.16-3.71-4.16-7.42a4.1084,4.1084,0,0,1,.23-1.38,19.1369,19.1369,0,0,0,6.98,7.44A17.8682,17.8682,0,0,1,28.07,50.82Z"/></svg>