<?xml version="1.0" ?><svg width="64px" height="64px" viewBox="0 0 64 64" data-name="Layer 1" id="Layer_1" xmlns="http://www.w3.org/2000/svg"><defs><style>.cls-1{fill:#ffe081;}.cls-2{fill:#ffecb2;}.cls-3{fill:#6d4d42;}.cls-4{fill:#42a047;}.cls-5{fill:#e53a35;}.cls-6{fill:#d32e2e;}.cls-7{fill:#378e43;}</style></defs><path class="cls-1" d="M59.49,40.01c-2.04,9.79-10.57,13.12-17.6,11.66a8.2633,8.2633,0,0,1-3.83-1.94v-.02l1.43-6.84a2.8294,2.8294,0,0,1,1.63-1.99,5.7331,5.7331,0,0,0,2.71-4.13,5.7245,5.7245,0,0,0-.84-4.86,2.8529,2.8529,0,0,1-.7-2.48l1.27-6.06a16.6966,16.6966,0,0,1,6.13-.57,15.7854,15.7854,0,0,1,1.95.28C58.67,24.52,61.18,31.9,59.49,40.01Z"/><path class="cls-2" d="M56,35A15.0043,15.0043,0,0,1,38.06,49.71l1.43-6.84a2.8294,2.8294,0,0,1,1.63-1.99,5.7331,5.7331,0,0,0,2.71-4.13,5.7245,5.7245,0,0,0-.84-4.86,2.8529,2.8529,0,0,1-.7-2.48l1.27-6.06a16.6966,16.6966,0,0,1,6.13-.57A14.9731,14.9731,0,0,1,56,35Z"/><path class="cls-3" d="M25,23a1,1,0,0,1-1-1A11.0125,11.0125,0,0,1,35,11a1,1,0,0,1,0,2,9.01,9.01,0,0,0-9,9A1,1,0,0,1,25,23Z"/><path class="cls-4" d="M25,19.52V22H22.52A7.5241,7.5241,0,0,1,15,14.48V12h2.48A7.5241,7.5241,0,0,1,25,19.52Z"/><path class="cls-5" d="M43.83,36.75a5.7331,5.7331,0,0,1-2.71,4.13,2.8294,2.8294,0,0,0-1.63,1.99l-1.42,6.85A17.0834,17.0834,0,0,1,29.58,52c-1.7,0-3.22-1.2-4.58-2-1.36.8-2.88,2-4.58,2C12.49,52,4,46.33,4,35c0-9.22,4.23-16.7,11.89-16.97A7.5131,7.5131,0,0,0,22.52,22H25c2.65-1.43,4-4,8.68-4,4.38,0,7.67,2.32,9.75,5.98l-1.14,5.43a2.8529,2.8529,0,0,0,.7,2.48A5.7245,5.7245,0,0,1,43.83,36.75Z"/><path class="cls-6" d="M43.83,36.75a5.7331,5.7331,0,0,1-2.71,4.13,2.8294,2.8294,0,0,0-1.63,1.99l-1.42,6.85A17.0834,17.0834,0,0,1,29.58,52c-1.7,0-3.22-1.2-4.58-2V22c2.65-1.43,4-4,8.68-4,4.38,0,7.67,2.32,9.75,5.98l-1.14,5.43a2.8529,2.8529,0,0,0,.7,2.48A5.7245,5.7245,0,0,1,43.83,36.75Z"/><circle class="cls-3" cx="47" cy="38" r="1"/><path class="cls-7" d="M25,19.52V22L15,12h2.48A7.5241,7.5241,0,0,1,25,19.52Z"/></svg>