<?xml version="1.0" ?><svg width="64px" height="64px" viewBox="0 0 64 64" data-name="Layer 1" id="Layer_1" xmlns="http://www.w3.org/2000/svg"><defs><style>.cls-1{fill:#6d4d42;}.cls-2{fill:#42a047;}.cls-3{fill:#378e43;}.cls-4{fill:#e53a35;}.cls-5{fill:#d32e2e;}.cls-6{fill:#edeff0;}</style></defs><path class="cls-1" d="M45.0205,22.6582a.9988.9988,0,0,1-.8828-.5293l-1.89-3.5415A2.9966,2.9966,0,0,0,39.6006,17H36a4.9961,4.9961,0,0,1-4-2.0029A4.9961,4.9961,0,0,1,28,17H24.3994a2.9966,2.9966,0,0,0-2.6474,1.5874l-1.89,3.5415a1,1,0,1,1-1.7637-.9414l1.89-3.5415A4.9912,4.9912,0,0,1,24.3994,15H28a3.0033,3.0033,0,0,0,3-3,1,1,0,0,1,2,0,3.0033,3.0033,0,0,0,3,3h3.6006a4.9912,4.9912,0,0,1,4.4111,2.646l1.89,3.5415a1,1,0,0,1-.8809,1.4707Z"/><path class="cls-2" d="M16.8757,31.0936h0A6.8073,6.8073,0,0,1,18.98,21.6582h0a6.8073,6.8073,0,0,1-2.1045,9.4354Z"/><path class="cls-3" d="M19.8869,26.8391a6.7921,6.7921,0,0,0,4.2771,2.979,6.8073,6.8073,0,0,0-5.1838-8.16A6.7929,6.7929,0,0,1,19.8869,26.8391Z"/><path class="cls-2" d="M23.2848,24.6805a6.7927,6.7927,0,0,0,5.1309-.9178A6.8075,6.8075,0,0,0,18.98,21.6581l0,0A6.7928,6.7928,0,0,1,23.2848,24.6805Z"/><path class="cls-3" d="M18.98,21.6582a6.8073,6.8073,0,0,0-8.16,5.1837,6.7924,6.7924,0,0,0,5.1377-.8792A6.7924,6.7924,0,0,1,18.98,21.6582Z"/><path class="cls-2" d="M18.98,21.6582v0a6.8073,6.8073,0,0,0-9.4354-2.1045,6.7927,6.7927,0,0,0,4.2545,3.0112A6.7926,6.7926,0,0,1,18.98,21.6582Z"/><path class="cls-4" d="M28.67,35.94c-.71,3.2-4.49,6.01-6.56,8.79-3.32,4.47-5.69,8.05-9.86,7.12-4.18-.93-4.8-5.18-5.91-10.64-.69-3.39-2.91-7.55-2.2-10.74,1.14-5.13,3.93-7.84,7.48-8.83a6.7551,6.7551,0,0,0,2.18.92,6.77,6.77,0,0,0-2.98,4.28,6.7737,6.7737,0,0,0,5.14-.88,6.7755,6.7755,0,0,0,.92,5.13,6.7907,6.7907,0,0,0,3.01-4.25,6.7861,6.7861,0,0,0,4.27,2.98,6.6214,6.6214,0,0,0,.17-1.52,6.7737,6.7737,0,0,0-1.05-3.62,6.7447,6.7447,0,0,0,2.37.09C28.45,27.17,29.81,30.82,28.67,35.94Z"/><path class="cls-5" d="M28.67,35.94c-.71,3.2-4.49,6.01-6.56,8.79-3.32,4.47-5.69,8.05-9.86,7.12l4.63-20.76a6.7907,6.7907,0,0,0,3.01-4.25,6.7861,6.7861,0,0,0,4.27,2.98,6.6214,6.6214,0,0,0,.17-1.52,6.7737,6.7737,0,0,0-1.05-3.62,6.7447,6.7447,0,0,0,2.37.09C28.45,27.17,29.81,30.82,28.67,35.94Z"/><circle class="cls-6" cx="15.192" cy="38.642" r="0.9667"/><circle class="cls-6" cx="14.3502" cy="42.4162" r="0.9667"/><circle class="cls-6" cx="13.5084" cy="46.1904" r="0.9667"/><circle class="cls-6" cx="17.7035" cy="45.1451" r="0.9667"/><circle class="cls-6" cx="18.5453" cy="41.371" r="0.9667"/><circle class="cls-6" cx="19.3871" cy="37.5968" r="0.9667"/><circle class="cls-6" cx="20.229" cy="33.8226" r="0.9667"/><circle class="cls-6" cx="16.0339" cy="34.8678" r="0.9667"/><circle class="cls-6" cx="23.5822" cy="36.5515" r="0.9667"/><circle class="cls-6" cx="24.4241" cy="32.7773" r="0.9667"/><circle class="cls-6" cx="10.1551" cy="43.4615" r="0.9667"/><circle class="cls-6" cx="10.9969" cy="39.6873" r="0.9667"/><circle class="cls-6" cx="11.8388" cy="35.9131" r="0.9667"/><circle class="cls-6" cx="12.6806" cy="32.1389" r="0.9667"/><circle class="cls-6" cx="8.4855" cy="33.1842" r="0.9667"/><circle class="cls-6" cx="9.3273" cy="29.41" r="0.9667"/><path class="cls-2" d="M47.1243,31.0936h0A6.8073,6.8073,0,0,0,45.02,21.6582h0a6.8073,6.8073,0,0,0,2.1045,9.4354Z"/><path class="cls-3" d="M44.1131,26.8391a6.7921,6.7921,0,0,1-4.2771,2.979,6.8073,6.8073,0,0,1,5.1838-8.16A6.7929,6.7929,0,0,0,44.1131,26.8391Z"/><path class="cls-2" d="M40.7152,24.6805a6.7927,6.7927,0,0,1-5.1309-.9178A6.8075,6.8075,0,0,1,45.02,21.6581l0,0A6.7928,6.7928,0,0,0,40.7152,24.6805Z"/><path class="cls-3" d="M45.02,21.6582a6.8073,6.8073,0,0,1,8.16,5.1837,6.7924,6.7924,0,0,1-5.1377-.8792A6.7924,6.7924,0,0,0,45.02,21.6582Z"/><path class="cls-2" d="M45.02,21.6582v0a6.8073,6.8073,0,0,1,9.4354-2.1045,6.7927,6.7927,0,0,1-4.2545,3.0112A6.7926,6.7926,0,0,0,45.02,21.6582Z"/><path class="cls-4" d="M35.33,35.94c.71,3.2,4.49,6.01,6.56,8.79,3.32,4.47,5.69,8.05,9.86,7.12,4.18-.93,4.8-5.18,5.91-10.64.69-3.39,2.91-7.55,2.2-10.74-1.14-5.13-3.93-7.84-7.48-8.83a6.7551,6.7551,0,0,1-2.18.92,6.77,6.77,0,0,1,2.98,4.28,6.7737,6.7737,0,0,1-5.14-.88,6.7755,6.7755,0,0,1-.92,5.13,6.7907,6.7907,0,0,1-3.01-4.25,6.7861,6.7861,0,0,1-4.27,2.98,6.6214,6.6214,0,0,1-.17-1.52,6.7737,6.7737,0,0,1,1.05-3.62,6.7447,6.7447,0,0,1-2.37.09C35.55,27.17,34.19,30.82,35.33,35.94Z"/><path class="cls-5" d="M35.33,35.94c.71,3.2,4.49,6.01,6.56,8.79,3.32,4.47,5.69,8.05,9.86,7.12L47.12,31.09a6.7907,6.7907,0,0,1-3.01-4.25,6.7861,6.7861,0,0,1-4.27,2.98,6.6214,6.6214,0,0,1-.17-1.52,6.7737,6.7737,0,0,1,1.05-3.62,6.7447,6.7447,0,0,1-2.37.09C35.55,27.17,34.19,30.82,35.33,35.94Z"/><circle class="cls-6" cx="48.808" cy="38.642" r="0.9667"/><circle class="cls-6" cx="49.6498" cy="42.4162" r="0.9667"/><circle class="cls-6" cx="50.4916" cy="46.1904" r="0.9667"/><circle class="cls-6" cx="46.2965" cy="45.1451" r="0.9667"/><circle class="cls-6" cx="45.4547" cy="41.371" r="0.9667"/><circle class="cls-6" cx="44.6129" cy="37.5968" r="0.9667"/><circle class="cls-6" cx="43.771" cy="33.8226" r="0.9667"/><circle class="cls-6" cx="47.9661" cy="34.8678" r="0.9667"/><circle class="cls-6" cx="40.4178" cy="36.5515" r="0.9667"/><circle class="cls-6" cx="39.5759" cy="32.7773" r="0.9667"/><circle class="cls-6" cx="53.8449" cy="43.4615" r="0.9667"/><circle class="cls-6" cx="53.0031" cy="39.6873" r="0.9667"/><circle class="cls-6" cx="52.1612" cy="35.9131" r="0.9667"/><circle class="cls-6" cx="51.3194" cy="32.1389" r="0.9667"/><circle class="cls-6" cx="55.5145" cy="33.1842" r="0.9667"/><circle class="cls-6" cx="54.6727" cy="29.41" r="0.9667"/></svg>