<?xml version="1.0" ?><svg width="340px" height="340px" viewBox="0 0 340 340" id="icons" xmlns="http://www.w3.org/2000/svg"><title/><path d="M254.648,206.331s-6.342,27.129-6.342,65.886v4.353a37.165,37.165,0,0,0,12.9,28.4q.445.378.912.755a7.461,7.461,0,0,1,2.744,5.8h0a7.517,7.517,0,0,1-7.516,7.517h-5.415a14.526,14.526,0,0,1-12.123-6.544c-.319-.483-.67-.991-1.045-1.523a65.718,65.718,0,0,1-11.952-37.921v-47.7Z" style="fill:#b8ccd1"/><path d="M141.649,205.238A191.18,191.18,0,0,1,123.592,253.5a20.5,20.5,0,0,1-7.473,7.85c-7.408,4.432-22.1,16-24.764,39.092,0,0-.217,2.812,2.66,6.046a6.964,6.964,0,0,1,1.83,4.616v1.207a6.738,6.738,0,0,1-6.738,6.738H80.433a11.134,11.134,0,0,1-11.117-10.412C68.83,300.978,67.815,294,73,282.383a51.541,51.541,0,0,1,6.58-10.725c5.147-6.564,15.394-22.842,6.383-39.477l18.544-39.517Z" style="fill:#b8ccd1"/><path d="M263.135,40.006s4.809-7,14.815-13.167a6.244,6.244,0,0,1,9.476,6.019l-2.344,20.7S266.537,49.952,263.135,40.006Z" style="fill:#db5e26"/><path d="M323.027,81.123l-4.986-11.314a72.167,72.167,0,0,1-11.765-6.976c.25-.081.5-.153.746-.252-3.937-2.428-7.8-5.058-11.052-7.448-.963-.748-1.882-1.461-2.738-2.122-.813-.626-1.564-1.224-2.241-1.781a40.951,40.951,0,0,0-18.421-8.743,54.107,54.107,0,0,0-5.86-.812A64.036,64.036,0,0,0,259.968,24.6a7.654,7.654,0,0,0-12.658-.956,112.844,112.844,0,0,0-10.641,16.427,23.879,23.879,0,0,1-4.938,6.371c-36.2,33.046-50.622,62.606-50.622,62.606-4.983-.59-11.084,1.191-14.955,2.608a60.184,60.184,0,0,1-10.76,2.848c-29.359,4.9-49.154,1.361-49.154,1.361a70.875,70.875,0,0,0-.357-34.513A47.716,47.716,0,0,0,87.167,53.983q-.708-.487-1.418-.941c-17.44-11.121-43.9-7.591-58.86,6.692A51.567,51.567,0,0,0,12,87.366,39.52,39.52,0,0,0,12.264,105c4.528,17.568,19.156,24.07,27.272,26.365a7.818,7.818,0,0,1,5.6,8.869,22.672,22.672,0,0,1-1.128,4.032A21.009,21.009,0,0,1,35.606,154.3c-7.268,4.7-10.428,10.3-11.78,13.869A2.379,2.379,0,0,0,26.3,171.4l2.166-.235a.981.981,0,0,1,.761,1.7,25.385,25.385,0,0,0-6.638,9.977,2.266,2.266,0,0,0,3.288,2.738l.308-.186a.937.937,0,0,1,1.419.8c.123,7.366,4.538,14.24,4.538,14.24a49.784,49.784,0,0,1,6.557,11.5,80.729,80.729,0,0,1,6.261,31.518l.005,2.843c-.6,8.776-6.426,15.862-10.54,19.823a16.353,16.353,0,0,0-4.879,9.7L27.98,288.008c1.429,15.018,17.489,22.715,20.044,12.84a20.514,20.514,0,0,1,.252-7.274c2.363-11.151,8.3-20.59,12.517-26.2a43.173,43.173,0,0,1,7.456-7.723c1.366-1.1,2.484-2.333,3.654-3.375,8.7-7.755,11.273-15.142,11.273-15.142,8.3-17.222,16.471-28.424,22.159-34.7,4.021-4.438,11.669-4.26,17.278-2.163a115.544,115.544,0,0,1,25.541,13.81c20.417,14.305,40.807,12.359,40.807,12.359l2.289,34.728c.252,6.059.551,12.025.824,17.093,3.124,18.352,25.915,34.3,24.917,17.839l-.63-1.056a23.8,23.8,0,0,1-3-12.517c1.091-29.916,11.935-49.457,11.935-49.457a93.037,93.037,0,0,1,8.368-7.779l16.327-14.227a35.026,35.026,0,0,0,11.689-12.447c5.886-11.827,10.615-30.867,12.343-54.351,1.85-13.8,6.568-23,8.549-28.706a18.3,18.3,0,0,1,9.288-10.36c8.579-4.208,16.293-8.871,20.823-10.6a14.491,14.491,0,0,0,8.379-7.465C323.183,86.81,323.027,81.123,323.027,81.123Z" style="fill:#f99848"/><path d="M293.429,53.223c-5.626-1.771-14.2-3.149-23.153.338a45.1,45.1,0,0,0-17.465,11.687,33.174,33.174,0,0,1-13.9,9.628,29.959,29.959,0,0,1-7.588,1.553,2,2,0,0,0-1.545,3.066,15.784,15.784,0,0,0,4.642,4.581,1.989,1.989,0,0,1,.271,3.081,12.9,12.9,0,0,0-1.222,1.346c-13.013,16.509,1.579,32.974,5.92,37.228a1.987,1.987,0,0,1,.2,2.632c-1.76,2.275-6.534,6.294-18.579,7.117a3.032,3.032,0,0,0-2.836,2.905,25.754,25.754,0,0,0,4.494,15.374,11.5,11.5,0,0,1-.262,13.448,16.836,16.836,0,0,1-1.157,1.326,26.856,26.856,0,0,0-6.222,9.855c-4.029,11.718-7.66,35.1,18.542,51.017a167.524,167.524,0,0,1,17.109-12.311c25.81-16.888,25.491-68.507,25.491-68.507,1.86-13.695,4.438-22.994,6.448-28.707a18.364,18.364,0,0,1,9.273-10.432c8.617-4.2,16.582-7.393,21.127-9.121a16.311,16.311,0,0,0,8.92-7.929A34.663,34.663,0,0,0,324.6,82.081l-5.868-13.174C310.711,65.392,300.032,58.332,293.429,53.223Z" style="fill:#e7eef2"/><path d="M315.274,67.262a37.343,37.343,0,0,1,9.326,4.411c3.3,2.362,3.552,4.294,4.119,6.7a5.642,5.642,0,0,1-1.541,5.226,6.709,6.709,0,0,1-8.643.6C314.9,81.489,311.467,76.169,315.274,67.262Z" style="fill:#373d4c"/><path d="M92.551,198.741c-3.925,4.406-8.132,11.886-10.169,24.464A114.287,114.287,0,0,1,71.9,256.28c8.715-7.739,12.123-13.694,12.123-13.694,8.324-17.2,16.862-28.284,22.561-34.554a14.626,14.626,0,0,1,15.978-3.831l-14.971-8.1A12.3,12.3,0,0,0,92.551,198.741Z" style="fill:#e7eef2"/><path d="M180.014,210.432c-.006,5.807-.18,13.178-.829,19.661a49.624,49.624,0,0,0,9.674.384,57.457,57.457,0,0,0-4.363-20.9A2.323,2.323,0,0,0,180.014,210.432Z" style="fill:#db5e26"/><path d="M282.2,67.353a2.98,2.98,0,0,1-.96-.158,8.637,8.637,0,0,0-2.314-.395,3,3,0,0,1,0-6,14.474,14.474,0,0,1,4.234.71,3,3,0,0,1-.96,5.843Z" style="fill:#373d4c"/><path d="M106.331,115.767c-4.7,12.1-12.8,17.521-19.53,19.933a6.971,6.971,0,0,1-9.278-7.259,52.3,52.3,0,0,0-.811-14.106l-6.2-4.177-.393-3.206H50.7l-5.641,12.2-2.774,7.584a16.748,16.748,0,0,0,13.678,1.048,9.9,9.9,0,0,0,5.005-4.381,5.151,5.151,0,0,1,5.307-2.516,5.269,5.269,0,0,1,3.847,2.438c1.783,3.415.93,6.429.623,9.7-.737,7.836,6.939,11.45,14.814,10.074,10.623-1.858,20.945-10.4,25.837-26.693C108.118,116.087,106.331,115.767,106.331,115.767Z" style="fill:#db5e26"/><path d="M106.331,115.767c.018-.074.031-.146.049-.22A.2.2,0,0,0,106.331,115.767Z" style="fill:#db5e26"/><path d="M38.705,123.728c-2.2-3.114-3.423-8.108-.642-15.987,0,0,5.521-13.8,21.395-11.043,0,0,14.148,2.49,17.254,17.637,0,0-9.265-5.795-19.217-2.159a8.571,8.571,0,0,0-5.675,8.645c.048.6.278,1.21.318,1.876a3.593,3.593,0,0,1-.329,1.612,5.813,5.813,0,0,1-5.556,3.4A9.549,9.549,0,0,1,38.705,123.728Z" style="fill:#e7eef2"/><path d="M243.67,93.283a26.877,26.877,0,0,0,10.577,1.787.737.737,0,0,1,.7,1.083,19.433,19.433,0,0,1-10.632,9.153.74.74,0,0,0-.085,1.367c2.359,1.1,7.324,2.617,14.306.63a.747.747,0,0,1,.938.918,19.86,19.86,0,0,1-2.072,4.636.744.744,0,0,0,1.041,1.017,21.52,21.52,0,0,0,8.565-12.2.742.742,0,0,0-.964-.886,42.949,42.949,0,0,1-7.731,1.952.744.744,0,0,1-.657-1.233,23.5,23.5,0,0,0,5.622-10.734.745.745,0,0,0-.866-.872A119.352,119.352,0,0,1,243.9,91.827.748.748,0,0,0,243.67,93.283Z" style="fill:#b8ccd1"/><path d="M37.65,319.262l8.122-.014A6.692,6.692,0,0,0,52.3,314a6.531,6.531,0,0,0-1.094-5.337,16.382,16.382,0,0,1-2.1-3.809,18.03,18.03,0,0,1-1.068-4c-2.578,1.676-5.648,2.028-9.2-.3A30.326,30.326,0,0,1,27.98,288.008l-1.725,13.445a22.911,22.911,0,0,0,2.205,12.122A10.222,10.222,0,0,0,37.65,319.262Z" style="fill:#e7eef2"/><path d="M224.488,308.743a35.965,35.965,0,0,1-7.5-8.642c-.22-.348-.417-.706-.617-1.064-2.961,3.049-6.763,4.531-11.368,1.512a31.012,31.012,0,0,1-12.932-18.287c.235,4.359.451,8.062.6,10.577a24.57,24.57,0,0,0,2.049,8.461,53.214,53.214,0,0,0,7.824,12.428,14.712,14.712,0,0,0,11.329,5.237l7.148-.012a5.682,5.682,0,0,0,5.673-5.693v-.026A5.813,5.813,0,0,0,224.488,308.743Z" style="fill:#e7eef2"/><path d="M252.1,43.4a71.523,71.523,0,0,1,7.107-1.18,1.729,1.729,0,0,0,1.492-2.183,73.93,73.93,0,0,0-4.281-11.87,1.745,1.745,0,0,0-3.037-.153c-1.462,2.256-3.28,6.53-3.238,13.809A1.623,1.623,0,0,0,252.1,43.4Z" style="fill:#db5e26"/></svg>