<?xml version="1.0" ?><svg width="340px" height="340px" viewBox="0 0 340 340" id="icons" xmlns="http://www.w3.org/2000/svg"><title/><polygon points="159.693 294.167 159.693 328.217 133.47 328.217 120.15 281.322 159.693 294.167" style="fill:#ffd9d2"/><polygon points="159.693 294.167 159.693 328.217 185.915 328.217 198.066 285.022 159.693 294.167" style="fill:#ffd9d2"/><path d="M159.693,294.167,120.15,281.322l8.983,31.625a38.433,38.433,0,0,0,6.008.468,48.253,48.253,0,0,0,14.559-2.4,11.1,11.1,0,0,1,3.373-.534,10.022,10.022,0,0,1,3.168.508v17.231h6.9V312.638a36.884,36.884,0,0,0,5.409.419,35.949,35.949,0,0,0,21.108-6.882,10.234,10.234,0,0,1,2.85-1.405l5.555-19.748Z" style="fill:#f29999"/><path d="M289.289,148.942c-13.563-23.215-43.532-42.583-43.532-42.583A166.87,166.87,0,0,1,202.2,66.245a88.091,88.091,0,0,1-11.164-20.014,148.009,148.009,0,0,0-9.493-19.841c-9.693-14.782-27.383-9.693-27.383-9.693-16.478-4.847-28.11,15.024-28.11,15.024-25.687,45.558-.969,91.358-.969,91.358l36.349,89.9c26.072,1.693,47.806-2.066,65.6-8.36a9.613,9.613,0,0,0,6.332-10.6c-.753-4.591-1.483-10.459-1.977-17.724l20.1,16.951a130.855,130.855,0,0,0,36.961-32.113A10.959,10.959,0,0,0,289.289,148.942Z" style="fill:#383a3d"/><path d="M88.915,235.021s-10.5,2.625-23.416,13.206c-.188.154-.371.311-.549.473,0,0-6.092,15.947,2.1,20.692a25.255,25.255,0,0,0,4.155,2.436c4,1.39,8.225,3.8,10.387,7.449,3.182,5.366,8.87,12.092,21.633,12.178,4.831.033,10.193,3.038,13.754,6.3,5.282,4.846,13.762,9.469,29.584,4.441,3.781-1.2,8.706-2.2,12.464-.931,5.913,2,13.766,3.876,24-3.367,3.865-2.736,10.342-3.027,15.041-2.435,5.547.7,11.32-.887,18.053-5.874,2.816-2.087,8.392-2.738,11.891-2.937,4.515-.258,8.592-1.739,13.9-8.74a21.565,21.565,0,0,1,6.375-5.587c4.615-2.537,12.826-6.881,12.679-20.2-.048-4.394-4.322-11.1-4.322-11.1a14.011,14.011,0,0,0-2.118-1.324,87.848,87.848,0,0,0-23.084-7.745Z" style="fill:#ffa9d6"/><path d="M231.437,231.959,88.915,235.021s-6.814,1.707-16.215,7.9a18.806,18.806,0,0,0,3.942,5.149,28.163,28.163,0,0,0,11.734,6.459,10.375,10.375,0,0,1,5.4,3.366c6.422,8.064,16.1,12.5,27.26,12.5.767,0,1.552-.02,2.334-.061.183-.009.366-.014.548-.014a8.966,8.966,0,0,1,4.617,1.213,38.533,38.533,0,0,0,19.52,5.725,32.777,32.777,0,0,0,15.755-4.055,10.264,10.264,0,0,1,4.862-1.264,9.317,9.317,0,0,1,2.893.458,36.354,36.354,0,0,0,11.276,1.865,30.572,30.572,0,0,0,18.81-6.349,9.922,9.922,0,0,1,4.673-2.016c6.638-.83,15.735-3.293,21.379-10.313a10.709,10.709,0,0,1,4.5-3.45,29.588,29.588,0,0,0,10.133-6.348,21.023,21.023,0,0,0,5.568-9.059A90.75,90.75,0,0,0,231.437,231.959Z" style="fill:#ea5f9e"/><path d="M130.987,189.369s-7.276,18.929-25.648,28.95a98.5,98.5,0,0,1-18.13,6.235,9.907,9.907,0,0,0-4.47,16.9,19.184,19.184,0,0,0,8.027,4.4c5.2.436,8.283,2.825,10.05,6.436,3.5,4.391,10.213,9.678,22.088,9.064.1-.006.2-.01.3-.014,4.008-.882,7.443-.581,9.635,2.292q.162.093.324.189c5.541,3.323,15.6,7.3,26.361,1.474,1.06-.573,2.478-.547,3.287-1.412,2.7-2.893,8.749-2.015,12.445.244,5.776,1.7,13.613,2.169,20.969-3.388q.213-.162.431-.318c2.083-3.058,6.072-4.072,11.2-3.867,4.429-.855,9.686-2.688,12.832-6.6q.334-.416.685-.814s.9-4.321,6.589-5.621c1.112-.254,4.43-1.405,4.43-1.405A20.124,20.124,0,0,0,236.1,239.3c7.877-7.564,2.405-20.91-8.516-20.832-2.408.018-4.983-.027-7.641-.17a35.881,35.881,0,0,1-27.061-14.439c-4.041-5.492-7.919-13.128-10.439-23.674Z" style="fill:#ffa9d6"/><path d="M188.864,197.468a71.083,71.083,0,0,1-6.419-17.285l-51.458,9.186a58.5,58.5,0,0,1-6.329,11.279C133.412,202.411,167.555,208.273,188.864,197.468Z" style="fill:#ea5f9e"/><path d="M104.173,154.639l-12.3,27.01L53.615,163.3,52.23,177.84s25.191,22.625,43.286,28.742l30.473-38.365Z" style="fill:#ffd9d2"/><path d="M104.173,154.639l-3.821,8.39,10.748,6.016a5.3,5.3,0,0,1,2.582,3.538,14.193,14.193,0,0,0,3.336,6.928l8.971-11.294Z" style="fill:#f29999"/><path d="M202.561,94.491s30.983-29.382,57.793-49.64a13.671,13.671,0,0,0,5.422-10.914v-.991a13.706,13.706,0,0,1,3.517-9.167l4.168-4.631c3.209-3.3,5.534-2.81,8.016.277l1.172,1.48,7.414-5.844c7.427-7.4,9.546-.618,10.6,4.107a36.582,36.582,0,0,1,.847,6.387,14.111,14.111,0,0,1-4.866,11.2l-8.419,7.367a20.705,20.705,0,0,1-8.272,4.417h0a20.72,20.72,0,0,0-10.03,6.15L206.71,124.926Z" style="fill:#ffd9d2"/><path d="M206.71,124.926l8.44-9.377c.465-12.418-3.2-24.7-4.489-28.579-5.033,4.613-8.1,7.521-8.1,7.521Z" style="fill:#f29999"/><path d="M175.264,112.438s.664-5.756,9.4-10.541c5.816-3.185,11.817-10.056,15.181-14.3a2.477,2.477,0,0,1,4.3.771,107.5,107.5,0,0,1,5.407,33.611A16.335,16.335,0,0,1,207.309,130a46.44,46.44,0,0,1-16.193,16.63s1.115,10.673-2.928,17.661a8.437,8.437,0,0,0-.3,8.241c.164.305.344.613.54.92a4.691,4.691,0,0,1-.333,5.617,47.289,47.289,0,0,1-7.039,6.552,42.4,42.4,0,0,1-25.69,8.445H132.607a6.775,6.775,0,0,1-6.688-7.708q.086-.647.15-1.333a8.345,8.345,0,0,0-1.891-6.1,21.675,21.675,0,0,1-4.841-12.11L94.281,152.194a1.612,1.612,0,0,1-.052-2.756,33.555,33.555,0,0,0,3.755-2.761,14.243,14.243,0,0,0,4.761-8.251c.867-4.718,3.3-12.971,10.008-18.161,6.572-5.083,15.939-5.056,21.97.659q.343.326.679.68Z" style="fill:#ffa9d6"/><path d="M166.52,105.518V91.761l-10.937,2.345h-10.09v15.645a9.293,9.293,0,0,1-4,7.64L135.4,121.6c5.969,13.856,20.181,18.545,20.181,18.545,18.9-8.1,19.681-27.711,19.681-27.711a15.511,15.511,0,0,1-2.968-.1A6.83,6.83,0,0,1,166.52,105.518Z" style="fill:#ffd9d2"/><path d="M121.128,148.846a1.508,1.508,0,0,0-2.721-1.245,35.786,35.786,0,0,0-5.087,15.7l6.017,3.51A45.286,45.286,0,0,1,121.128,148.846Z" style="fill:#ea5f9e"/><path d="M187.1,131.575a1.023,1.023,0,0,0-1.568,1.285,48.053,48.053,0,0,1,5.585,13.769,40.987,40.987,0,0,0,3.471-2.3A26.55,26.55,0,0,0,187.1,131.575Z" style="fill:#ea5f9e"/><path d="M166.52,91.761l-10.937,2.345h-10.09v15.645c0,.308-.026.612-.056.916,10.461-1.2,17.1-4.6,21.083-7.65Z" style="fill:#f29999"/><path d="M160.405,39.17a48.776,48.776,0,0,1,7.372,18.2,4.691,4.691,0,0,0,4.605,3.786h7.779s1.126,26.885-14.595,36.657a19.742,19.742,0,0,1-20.649.03c-6.966-4.277-14.927-14.708-13.827-35.412h16.462a9.638,9.638,0,0,0,7.7-3.779C157.8,55.282,160.579,49.273,160.405,39.17Z" style="fill:#ffd9d2"/><path d="M155.475,90.919a13.235,13.235,0,0,1-4.483-.808,2.5,2.5,0,0,1,1.7-4.7,7.5,7.5,0,0,0,5.127.1,2.5,2.5,0,1,1,1.711,4.7A11.792,11.792,0,0,1,155.475,90.919Z" style="fill:#f29999"/><path d="M149.336,78.046a2.51,2.51,0,0,1-.916-.175,13.737,13.737,0,0,0-3.429-.886,2.5,2.5,0,1,1,.567-4.968,18.644,18.644,0,0,1,4.7,1.2,2.5,2.5,0,0,1-.918,4.827Z" style="fill:#f29999"/><path d="M161.329,78.046a2.5,2.5,0,0,1-.917-4.827,18.623,18.623,0,0,1,4.7-1.2,2.5,2.5,0,1,1,.567,4.968,13.723,13.723,0,0,0-3.431.886A2.5,2.5,0,0,1,161.329,78.046Z" style="fill:#f29999"/><path d="M180.043,66.322c.2-3.136.118-5.165.118-5.165h-7.778a4.691,4.691,0,0,1-4.606-3.786,48.776,48.776,0,0,0-7.372-18.2c.174,10.089-2.595,16.094-5.146,19.469a9.646,9.646,0,0,1-7.707,3.793H131.09c-.072,1.34-.1,2.635-.1,3.89H149.4a5.538,5.538,0,0,0,1.482-.2c2.855-.79,12.026-4.286,11.6-16.51a30.012,30.012,0,0,1,2.376,11.563,5.172,5.172,0,0,0,5.209,5.146Z" style="fill:#f29999"/><path d="M172.3,112.336c-.089-.012-1.017-.238-1.1-.253-1.072,4.968-3.359,14.388-12.39,21.913a6.409,6.409,0,0,1-6.184,1.142c-3.828-1.319-10.116-4.006-14.469-8.519a37.515,37.515,0,0,0,17.434,13.53c18.9-8.1,19.681-27.711,19.681-27.711A15.511,15.511,0,0,1,172.3,112.336Z" style="fill:#f29999"/><path d="M65.8,169.14,53.615,163.3,52.23,177.84s5.675,5.094,13.567,11.1Z" style="fill:#f29999"/><path d="M46.659,137.472l19.059,1.563-12.339,52.77a5.869,5.869,0,0,1-6.28,4.535h0a5.868,5.868,0,0,1-5.289-6.351Z" style="fill:#535f70"/><path d="M48.931,153.472a23.813,23.813,0,0,1,5.117.863,8.782,8.782,0,0,1,6.171,9.9l-2.144,12.83A8.786,8.786,0,0,1,46.674,184a21.451,21.451,0,0,1-4.283-1.949,8.244,8.244,0,0,1-3.845-8.133l1.729-13.221A8.269,8.269,0,0,1,48.931,153.472Z" style="fill:#ffd9d2"/><circle cx="57.55" cy="128.274" r="14.599" style="fill:#c6c6c6"/><path d="M68.352,121.288a14.6,14.6,0,0,0-.367-3.213,14.58,14.58,0,0,0-24.667,13.413,14.592,14.592,0,0,0,25.034-10.2Z" style="fill:#efefef"/><path d="M288.96,37.115a37.944,37.944,0,0,0-8.054-11.8,1.558,1.558,0,0,1-.126-2.117l1.869-2.3-1.928-2.339h0l-4.605,5.492a3.809,3.809,0,0,0-.634,3.752,14.536,14.536,0,0,1,.625,7.757.747.747,0,0,0,1.329.6,9.549,9.549,0,0,0,1.6-7.96,59.486,59.486,0,0,1,6.814,10.338,1.714,1.714,0,0,0,2.409.731h0A1.711,1.711,0,0,0,288.96,37.115Z" style="fill:#f29999"/><path d="M298.444,13.319,281.6,27.108l1.708,3.44L300.086,16.9A11.479,11.479,0,0,0,298.444,13.319Z" style="fill:#f29999"/><path d="M301.022,21.016,285.778,33.5l1.708,3.44L301.51,25.527A36.553,36.553,0,0,0,301.022,21.016Z" style="fill:#f29999"/><path d="M100.816,252.287c.029.037.062.074.091.11a52.077,52.077,0,0,0,8.153-9.654,1.822,1.822,0,0,0-2.386-2.61,66.354,66.354,0,0,1-15.908,5.718A19.237,19.237,0,0,1,100.816,252.287Z" style="fill:#ea5f9e"/><path d="M132.763,250.573a131.068,131.068,0,0,1-9.558,10.772,18.054,18.054,0,0,1,9.628,2.293,84.59,84.59,0,0,0,2.824-11.8A1.626,1.626,0,0,0,132.763,250.573Z" style="fill:#ea5f9e"/><path d="M165.3,252.347a1.981,1.981,0,0,0-3.658,1.138,96.357,96.357,0,0,0,1.177,10.406,18.561,18.561,0,0,1,11.542-.045c.292.095.595.186.9.275C171.219,261.065,167.71,256.232,165.3,252.347Z" style="fill:#ea5f9e"/><path d="M205.206,256.971c.828-.1,1.722-.243,2.649-.422a64.217,64.217,0,0,1-13.649-4.864,1.691,1.691,0,0,0-2.226,2.359,33.1,33.1,0,0,0,4.682,6.382A18.65,18.65,0,0,1,205.206,256.971Z" style="fill:#ea5f9e"/><path d="M232.39,242.106a67.9,67.9,0,0,1-16.211-1.32,1.79,1.79,0,0,0-1.595,3.066,49.486,49.486,0,0,0,6.793,5.287,19.366,19.366,0,0,1,7.651-5.423A21.553,21.553,0,0,0,232.39,242.106Z" style="fill:#ea5f9e"/><path d="M218.372,291.783a18.019,18.019,0,0,1,9.717-3.434c4.543-.259,11.06-2.062,16.384-9.171a18.344,18.344,0,0,1,5.9-5.068c4.612-2.525,11.97-8.651,11.823-22a14.094,14.094,0,0,0-5.563-11.071c-.806,11.152-6.411,17.154-10.931,20.216a30.056,30.056,0,0,0-8.352,8.626c-3.43,5.317-8.885,7.448-13.265,8.276a29.912,29.912,0,0,0-11.13,4.52c-3.878,2.606-8.534,3.35-12.495,3.377a30.051,30.051,0,0,0-15.3,4.382c-9.743,5.886-20.761,4.68-27.37,3.076a29.935,29.935,0,0,0-12.146-.418c-10.506,1.81-17.873-.6-22.463-3.242a30.473,30.473,0,0,0-14.583-4.207c-13.383-.258-20.606-6.626-24.213-11.58a28.126,28.126,0,0,0-9.283-8.212c-8.207-4.459-10.05-11.744-10.135-17.129a14.023,14.023,0,0,0,2.223,22.451,23.285,23.285,0,0,0,4.067,1.841,17.872,17.872,0,0,1,9.5,7.818c3.182,5.366,9.744,12.234,22.507,12.32a19.356,19.356,0,0,1,13,5.094c5.282,4.846,15.188,10.173,31.014,5.143a18.548,18.548,0,0,1,11.581.036,28.326,28.326,0,0,0,26.18-3.777,18.863,18.863,0,0,1,13.284-3.243C203.875,297.114,211.608,296.794,218.372,291.783Z" style="fill:#ea5f9e"/></svg>