<svg width="64px" height="64px" viewBox="0 0 64 64" xmlns="http://www.w3.org/2000/svg"><title>koala-cry</title><g id="koala-cry"><circle cx="23.5" cy="24.5" r="22.5" style="fill:#ffded5"/><path d="M26.95,62H39.191c4.941-.074,8.577-6.313,7.67-12.869l-1.018-7.354C45.3,37.848,42.758,35,39.8,35H26.2c-2.961,0-5.5,2.848-6.046,6.776L19.139,49.13c-.907,6.556,2.729,12.795,7.67,12.869Z" style="fill:#eaeaea;stroke:#4c241d;stroke-linecap:round;stroke-linejoin:round;stroke-width:2px"/><path d="M41,58h3a4,4,0,0,1,4,4H37" style="fill:#fff;stroke:#4c241d;stroke-linecap:round;stroke-linejoin:round;stroke-width:2px"/><path d="M25,58H22a4,4,0,0,0-4,4H29" style="fill:#fff;stroke:#4c241d;stroke-linecap:round;stroke-linejoin:round;stroke-width:2px"/><circle cx="10.74" cy="34.987" r="1.069" style="fill:#4c241d"/><circle cx="57.74" cy="27.987" r="1.069" style="fill:#4c241d"/><circle cx="4.5" cy="46.5" r="2.5" style="fill:none;stroke:#4c241d;stroke-linecap:round;stroke-linejoin:round;stroke-width:2px"/><line x1="30" y1="43" x2="27" y2="43" style="fill:none;stroke:#4c241d;stroke-linecap:round;stroke-linejoin:round;stroke-width:2px"/><line x1="30" y1="46" x2="27" y2="46" style="fill:none;stroke:#4c241d;stroke-linecap:round;stroke-linejoin:round;stroke-width:2px"/><line x1="30" y1="49" x2="27" y2="49" style="fill:none;stroke:#4c241d;stroke-linecap:round;stroke-linejoin:round;stroke-width:2px"/><path d="M23,41h2.908A2.091,2.091,0,0,1,28,43.092v5.816A2.091,2.091,0,0,1,25.908,51H19.444A3.444,3.444,0,0,1,16,47.556V44a7,7,0,0,1,7-7h9" style="fill:#fff;stroke:#4c241d;stroke-linecap:round;stroke-linejoin:round;stroke-width:2px"/><line x1="36" y1="43" x2="39" y2="43" style="fill:none;stroke:#4c241d;stroke-linecap:round;stroke-linejoin:round;stroke-width:2px"/><line x1="36" y1="46" x2="39" y2="46" style="fill:none;stroke:#4c241d;stroke-linecap:round;stroke-linejoin:round;stroke-width:2px"/><line x1="36" y1="49" x2="39" y2="49" style="fill:none;stroke:#4c241d;stroke-linecap:round;stroke-linejoin:round;stroke-width:2px"/><path d="M43,41H40.092A2.091,2.091,0,0,0,38,43.092v5.816A2.091,2.091,0,0,0,40.092,51h6.464A3.444,3.444,0,0,0,50,47.556V44a7,7,0,0,0-7-7H26" style="fill:#fff;stroke:#4c241d;stroke-linecap:round;stroke-linejoin:round;stroke-width:2px"/><path d="M22.142,14.5a5.69,5.69,0,0,0-6.163-5.174l-5.258.458a4.133,4.133,0,0,0-3.758,4.476l.324,3.713a5.867,5.867,0,0,0,6.355,5.336l4.447-.388" style="fill:#eaeaea;stroke:#4c241d;stroke-linecap:round;stroke-linejoin:round;stroke-width:2px"/><path d="M42.947,14.5A5.69,5.69,0,0,1,49.11,9.328l5.258.458a4.133,4.133,0,0,1,3.758,4.476L57.8,17.975a5.867,5.867,0,0,1-6.355,5.336L47,22.923" style="fill:#eaeaea;stroke:#4c241d;stroke-linecap:round;stroke-linejoin:round;stroke-width:2px"/><path d="M50,26.586C50,34.629,40.729,38.9,32.833,38.9S15,34.629,15,26.586,22.857,10.1,32.833,10.1A16.764,16.764,0,0,1,50,26.586Z" style="fill:#eaeaea;stroke:#4c241d;stroke-linecap:round;stroke-linejoin:round;stroke-width:2px"/><circle cx="25.5" cy="20.5" r="1.5" style="fill:#4c241d"/><circle cx="39.821" cy="20.5" r="1.5" style="fill:#4c241d"/><line x1="33" y1="62" x2="33" y2="54" style="fill:none;stroke:#4c241d;stroke-linecap:round;stroke-linejoin:round;stroke-width:2px"/><path d="M34.953,35H31.047A2.44,2.44,0,0,1,28.5,32.245l1.14-6.268A2.526,2.526,0,0,1,32.187,24h1.626a2.526,2.526,0,0,1,2.546,1.977l1.14,6.268A2.44,2.44,0,0,1,34.953,35Z" style="fill:#6b4f5b;stroke:#4c241d;stroke-linecap:round;stroke-linejoin:round;stroke-width:2px"/><path d="M51.125,54.353C47.643,51.486,52.858,48,52.858,48H50.529a6.4,6.4,0,0,0-5.971,8.78,4.95,4.95,0,0,0,.214.461c-2.031-1.269-3.391-1.2-4.279-.722a30.618,30.618,0,0,0-2.368-2.166C34.643,51.486,39.858,48,39.858,48H37.529a6.4,6.4,0,0,0-5.971,8.78,4.95,4.95,0,0,0,.214.461c-2.55-1.594-4.041-1.075-4.868-.291a30.065,30.065,0,0,0-2.779-2.6C20.643,51.486,25.858,48,25.858,48H23.529a6.4,6.4,0,0,0-5.971,8.78,4.95,4.95,0,0,0,.214.461C13.151,54.353,12,58.4,12,58.4a3.375,3.375,0,0,1,2.035,3.41c0,.067-.025.129-.032.194H57.548A24.54,24.54,0,0,0,51.125,54.353Z" style="fill:#e66353;stroke:#4c241d;stroke-linecap:round;stroke-linejoin:round;stroke-width:2px"/><path d="M42,27c0-1.105-2-4-2-4s-2,2.895-2,4a2,2,0,0,0,4,0Z" style="fill:#9dc1e4"/><path d="M28,27c0-1.105-2-4-2-4s-2,2.895-2,4a2,2,0,0,0,4,0Z" style="fill:#9dc1e4"/><path d="M46,31c0-1.105-2-4-2-4s-2,2.895-2,4a2,2,0,0,0,4,0Z" style="fill:#9dc1e4"/><line x1="6" y1="62" x2="62" y2="62" style="fill:none;stroke:#4c241d;stroke-linecap:round;stroke-linejoin:round;stroke-width:2px"/></g></svg>