<svg width="64px" height="64px" viewBox="0 0 64 64" xmlns="http://www.w3.org/2000/svg"><title>kangaroo</title><g id="kangaroo"><circle cx="35.5" cy="24.5" r="22.5" style="fill:#ffded5"/><line x1="52" y1="7" x2="52" y2="9" style="fill:none;stroke:#4c241d;stroke-linecap:round;stroke-linejoin:round;stroke-width:2px"/><line x1="52" y1="13" x2="52" y2="15" style="fill:none;stroke:#4c241d;stroke-linecap:round;stroke-linejoin:round;stroke-width:2px"/><line x1="48" y1="11" x2="50" y2="11" style="fill:none;stroke:#4c241d;stroke-linecap:round;stroke-linejoin:round;stroke-width:2px"/><line x1="54" y1="11" x2="56" y2="11" style="fill:none;stroke:#4c241d;stroke-linecap:round;stroke-linejoin:round;stroke-width:2px"/><circle cx="12.74" cy="33.987" r="1.069" style="fill:#4c241d"/><circle cx="58.74" cy="16.987" r="1.069" style="fill:#4c241d"/><path d="M35.407,6.812l3.718-4.7a.863.863,0,0,1,1.5.265C41.119,4.03,41.258,7.091,38,11" style="fill:#bf7e68;stroke:#4c241d;stroke-linecap:round;stroke-linejoin:round;stroke-width:2px"/><path d="M24.893,6.812l-3.719-4.7a.863.863,0,0,0-1.5.265C19.18,4.03,19.042,7.091,22.3,11" style="fill:#bf7e68;stroke:#4c241d;stroke-linecap:round;stroke-linejoin:round;stroke-width:2px"/><circle cx="6.5" cy="45.5" r="2.5" style="fill:none;stroke:#4c241d;stroke-linecap:round;stroke-linejoin:round;stroke-width:2px"/><path d="M25.006,24h9.989A4.006,4.006,0,0,1,39,28.006V37a0,0,0,0,1,0,0H21a0,0,0,0,1,0,0V28.006A4.006,4.006,0,0,1,25.006,24Z" style="fill:#bf7e68;stroke:#4c241d;stroke-linecap:round;stroke-linejoin:round;stroke-width:2px"/><path d="M38,13.4C38,7.6,34.418,5,30,5s-8,2.6-8,8.4S25.582,26,30,26,38,19.2,38,13.4Z" style="fill:#bf7e68;stroke:#4c241d;stroke-linecap:round;stroke-linejoin:round;stroke-width:2px"/><path d="M31.236,20.763H28.764A.852.852,0,0,1,28,20.292l-.911-1.823a.851.851,0,0,1,.761-1.232h4.3a.851.851,0,0,1,.761,1.232L32,20.292A.852.852,0,0,1,31.236,20.763Z" style="fill:#4c241d"/><line x1="30" y1="20" x2="30" y2="23" style="fill:none;stroke:#4c241d;stroke-linecap:round;stroke-linejoin:round;stroke-width:2px"/><path d="M41.223,45.026s4.058.5,4.2.5a2.532,2.532,0,0,0,.861-.091,2.908,2.908,0,0,0,1.539-1.1,3.028,3.028,0,0,0,.465-.934c.035-.084.215-1.4.215-1.4l.375-3.213.187-1.606a6.429,6.429,0,0,1,.422-1.8A5.377,5.377,0,0,1,55,32a4.619,4.619,0,0,0-4.076,3.8,4.717,4.717,0,0,0,.013,1.377l.188,1.606L51.5,42s.151,1.628.135,1.807a6.6,6.6,0,0,1-.427,2.137,7.065,7.065,0,0,1-2.825,3.467,7.272,7.272,0,0,1-2.172.922c-.389.1-4.869.627-4.869.627" style="fill:#bf7e68;stroke:#4c241d;stroke-linecap:round;stroke-linejoin:round;stroke-width:2px"/><circle cx="26.74" cy="12.987" r="1.069" style="fill:#4c241d"/><path d="M41,59V45.227a2.681,2.681,0,0,0-2-2.465V37H21v5.762a2.681,2.681,0,0,0-2,2.465V59" style="fill:#bf7e68;stroke:#4c241d;stroke-linecap:round;stroke-linejoin:round;stroke-width:2px"/><circle cx="33.74" cy="12.987" r="1.069" style="fill:#4c241d"/><polyline points="26 30 26 33 34 33 34 30" style="fill:#bf7e68;stroke:#4c241d;stroke-linecap:round;stroke-linejoin:round;stroke-width:2px"/><line x1="30" y1="37" x2="30" y2="33" style="fill:none;stroke:#4c241d;stroke-linecap:round;stroke-linejoin:round;stroke-width:2px"/><path d="M26,59v4H15a4,4,0,0,1,4-4h3" style="fill:#bf7e68;stroke:#4c241d;stroke-linecap:round;stroke-linejoin:round;stroke-width:2px"/><path d="M34,59v4H45a4,4,0,0,0-4-4H38" style="fill:#bf7e68;stroke:#4c241d;stroke-linecap:round;stroke-linejoin:round;stroke-width:2px"/><path d="M23,53a7,7,0,0,0,14,0" style="fill:#bf7e68;stroke:#4c241d;stroke-linecap:round;stroke-linejoin:round;stroke-width:2px"/><path d="M26,37h8a0,0,0,0,1,0,0v8a4,4,0,0,1-4,4h0a4,4,0,0,1-4-4V37A0,0,0,0,1,26,37Z" style="fill:#ffded5;stroke:#4c241d;stroke-linecap:round;stroke-linejoin:round;stroke-width:2px"/><line x1="5" y1="63" x2="55" y2="63" style="fill:none;stroke:#4c241d;stroke-linecap:round;stroke-linejoin:round;stroke-width:2px"/></g></svg>