<svg width="64px" height="64px" viewBox="0 0 64 64" xmlns="http://www.w3.org/2000/svg"><title>aborigen-female</title><g id="aborigen-female"><circle cx="33.5" cy="31.5" r="22.5" style="fill:#ffded5"/><circle cx="4.5" cy="10.5" r="2.5" style="fill:none;stroke:#4c241d;stroke-linecap:round;stroke-linejoin:round;stroke-width:2px"/><circle cx="56.5" cy="18.5" r="1.132" style="fill:#4c241d"/><circle cx="12.5" cy="4.5" r="1.132" style="fill:#4c241d"/><circle cx="10.5" cy="18.5" r="1.132" style="fill:#4c241d"/><line x1="51.837" y1="5.663" x2="48.163" y2="9.337" style="fill:none;stroke:#4c241d;stroke-linecap:round;stroke-linejoin:round;stroke-width:2px"/><line x1="48.163" y1="5.663" x2="51.837" y2="9.337" style="fill:none;stroke:#4c241d;stroke-linecap:round;stroke-linejoin:round;stroke-width:2px"/><path d="M43,46H21L19,19.888C19,12.77,24.178,7,30.566,7h2.868C39.822,7,45,12.77,45,19.888Z" style="fill:#6b4f5b;stroke:#4c241d;stroke-linecap:round;stroke-linejoin:round;stroke-width:2px"/><path d="M42,21.976a4.622,4.622,0,0,0-4.623-4.622H36.286A5.5,5.5,0,0,1,32,15.208a5.5,5.5,0,0,1-4.286,2.146H22v4.83a2.982,2.982,0,0,0,0,5.632v.166C22,32.41,25.59,37,30.018,37h3.964C38.41,37,42,32.41,42,27.982v-.166a2.982,2.982,0,0,0,0-5.632Z" style="fill:#bf7e68;stroke:#4c241d;stroke-linecap:round;stroke-linejoin:round;stroke-width:2px"/><circle cx="27" cy="25" r="1" style="fill:#4c241d"/><path d="M44.778,43.943c-2.163-.627-6.338-1.224-8.375-2.084L35,41.266V37H29v4.266l-1.4.593c-2.037.86-6.212,1.457-8.375,2.084C16.761,44.657,15,46.562,15,48.8V62H49V48.8C49,46.562,47.239,44.657,44.778,43.943Z" style="fill:#bf7e68;stroke:#4c241d;stroke-linecap:round;stroke-linejoin:round;stroke-width:2px"/><circle cx="37" cy="25" r="1" style="fill:#4c241d"/><path d="M40,42.868v6.941A3.191,3.191,0,0,1,36.809,53H27.191A3.191,3.191,0,0,1,24,49.809V42.868c-1.4.309-2.853.592-4,.872V62H44V43.74C42.853,43.46,41.4,43.177,40,42.868Z" style="fill:#a9ba5a;stroke:#4c241d;stroke-linecap:round;stroke-linejoin:round;stroke-width:2px"/><line x1="32" y1="15" x2="32" y2="11" style="fill:none;stroke:#4c241d;stroke-linecap:round;stroke-linejoin:round;stroke-width:2px"/><line x1="27" y1="45" x2="30" y2="46" style="fill:none;stroke:#4c241d;stroke-linecap:round;stroke-linejoin:round;stroke-width:2px"/><line x1="34" y1="46" x2="37" y2="45" style="fill:none;stroke:#4c241d;stroke-linecap:round;stroke-linejoin:round;stroke-width:2px"/><line x1="32" y1="19" x2="32" y2="22" style="fill:none;stroke:#ffce56;stroke-linecap:round;stroke-linejoin:round;stroke-width:2px"/><line x1="18" y1="53" x2="17" y2="53" style="fill:none;stroke:#ffce56;stroke-linecap:round;stroke-linejoin:round;stroke-width:2px"/><line x1="18" y1="57" x2="17" y2="57" style="fill:none;stroke:#ffce56;stroke-linecap:round;stroke-linejoin:round;stroke-width:2px"/><line x1="47" y1="53" x2="46" y2="53" style="fill:none;stroke:#ffce56;stroke-linecap:round;stroke-linejoin:round;stroke-width:2px"/><line x1="47" y1="57" x2="46" y2="57" style="fill:none;stroke:#ffce56;stroke-linecap:round;stroke-linejoin:round;stroke-width:2px"/></g></svg>