<?xml version="1.0" ?><svg width="340px" height="340px" viewBox="0 0 340 340" id="icons" xmlns="http://www.w3.org/2000/svg"><title/><path d="M49.037,56.805H43.649A17.1,17.1,0,0,0,26.583,71.392q-.075.557-.126,1.139a9.657,9.657,0,0,0-.038,1.142A22.08,22.08,0,0,0,40.284,90.291l112.77-2.785L151.67,53.889c-4.042-6.037-10.794-11.117-21.766-13.547,0,0-24.326-5.651-48.406,6.634L70.639,52.027A51.23,51.23,0,0,1,49.037,56.805Z" style="fill:#9fc2ab"/><path d="M151.668,53.891a13.294,13.294,0,0,1-4.837,8.165,13.817,13.817,0,0,1-8.587,2.823H64.366a14.114,14.114,0,0,0-4.906.852,23.233,23.233,0,0,0-10.185,7.325c-5.892,7.5-17.106,7.785-22.855.617.049,3.214,1.3,12.423,13.552,17.041h114.75S161.928,69.217,151.668,53.891Z" style="fill:#698779"/><polygon points="10 300.955 330 300.955 330 136.839 63.947 136.839 10 144.418 10 300.955" style="fill:#e5e2a8"/><path d="M10,144.418v53.633l17.4,3.621a34.2,34.2,0,0,1,13.386,6l8.329,6.168a34.2,34.2,0,0,0,20.355,6.717h68.887a34.2,34.2,0,0,0,23.433-9.288l22.019-20.709a34.2,34.2,0,0,1,16.389-8.554l4.295-.9a13.5,13.5,0,0,0,10.016-17.523h0a13.5,13.5,0,0,0-7.4-8.066l-24.256-10.585-7.4-8.088H63.947Z" style="fill:#b3af66"/><path d="M77.761,210.538H120.2a1.626,1.626,0,0,0,1.575-2.05,41.9,41.9,0,0,0-3.439-8.688,23.6,23.6,0,0,1-2.729-11.166v-9.328s4.916-6.941,17.062-7.23a66.55,66.55,0,0,0,9.824-.918,27.461,27.461,0,0,0,22.854-27.133H151.755s-.247,12.124-11.5,13.943a15.112,15.112,0,0,1-4.479-.022c-4.07-.565-15.354-1.441-21.9,4.876v-8.547a19.9,19.9,0,0,1,16.955-19.739q.2-.029.4-.054V105.274H104.04s-4.967,21.839-21.426,33.256H69.048s-13.881-9.607-12.724-33.256H41.575s-.867,29.5,15.327,42.221l27.473,8.369a111.335,111.335,0,0,1,3.612,25.193,23.836,23.836,0,0,1-6.311,16.76,20.556,20.556,0,0,0-5.537,10.9A1.625,1.625,0,0,0,77.761,210.538Z" style="fill:#473b37"/><path d="M59.641,86.537H22.471A12.429,12.429,0,0,0,10,99.014c0,.1,0,.2.005.3,0,0-.492,9.092,8.846,9.092H34.925a19.052,19.052,0,0,1,9.45,2.509l1.537.879a19.051,19.051,0,0,0,9.449,2.509h0a19.045,19.045,0,0,0,15.156-7.511l4.85-6.372Z" style="fill:#698779"/><path d="M330,189.944H211.031s-40.4-2.467-68.158,29.82a88.375,88.375,0,0,1-46.216,28.388c-20.275,4.886-48.983,7.129-86.657-.593v53.4H330Z" style="fill:#b3af66"/><path d="M165.347,86.537h25.668a12.444,12.444,0,0,1,9.462,4.362l3.935,4.607a12.449,12.449,0,0,0,5.982,3.865h0a12.443,12.443,0,0,1,8.963,11.947h0a14.327,14.327,0,0,1-14.327,14.328H150.8Z" style="fill:#698779"/><path d="M330,202.841H211.127a68.016,68.016,0,0,0-53.28,25.739l-9.19,11.582A68.016,68.016,0,0,1,95.377,265.9H76.827v35.054H330Z" style="fill:#b0d6ed"/><path d="M330,220.556H207.083A13.044,13.044,0,0,0,194.039,233.6h0a13.044,13.044,0,0,0,13.044,13.044H330Z" style="fill:#72aad3"/><path d="M310.028,237.909a2.929,2.929,0,0,0,2.929-3.114c-.456-7.1-1.9-24.92-5.488-38.439a43.068,43.068,0,0,0-6.331-13.564,28.831,28.831,0,0,0-23.581-12.068H251.038a28.834,28.834,0,0,0-23.582,12.068,43.051,43.051,0,0,0-6.33,13.564c-3.591,13.519-5.032,31.338-5.489,38.439a2.929,2.929,0,0,0,2.929,3.114h18.749V220.433a20.113,20.113,0,0,1,.189-2.548l.021-.132A17.5,17.5,0,0,1,254.836,203.1h18.922a17.5,17.5,0,0,1,17.311,14.651l.019.12a19.938,19.938,0,0,1,.191,2.56v17.476Z" style="fill:#a5b3ce"/><path d="M288.091,152.011H240.5a9.933,9.933,0,1,0,0,19.865h47.588a9.933,9.933,0,1,0,0-19.865Z" style="fill:#a5b3ce"/><polygon points="264.297 117.994 243.503 117.994 243.503 152.011 264.297 152.011 285.091 152.011 285.091 117.994 264.297 117.994" style="fill:#a5b3ce"/><path d="M261.867,131.725h0a8.879,8.879,0,0,1,8.879,8.879v11.407a0,0,0,0,1,0,0H252.988a0,0,0,0,1,0,0V140.6A8.879,8.879,0,0,1,261.867,131.725Z" style="fill:#373d4c"/><path d="M91.845,243.8l2.526.084c7,0,11.48,5.521,11.769,12.518l.707,13.185c.16,3.868,1.356,8.107,3.89,11.034l3.005,2.828a16.243,16.243,0,0,1,4.124,9.016v8.488H56.292s2.82-37.214,27.471-55.261a12.526,12.526,0,0,1,1.065-.7A40.794,40.794,0,0,1,91.845,243.8Z" style="fill:#a5b3ce"/><path d="M39.089,224.822h0c.32,0,.637.013.952.037,0,0,8.28,4.057,9.61,9.007l4.2,15.02A30.282,30.282,0,0,0,59.063,260l5.408,7.11a29.061,29.061,0,0,1,6.709,16.022l1.1,17.822H10V270.007a23.959,23.959,0,0,1,5.521-15.3l6.087-7.336A23.967,23.967,0,0,0,26.4,237.95l1.023-4.043A12.038,12.038,0,0,1,39.089,224.822Z" style="fill:#a5b3ce"/><path d="M26.665,128.506c12.942-.7,42.66-1.511,60.239,4.351A17.433,17.433,0,0,1,97.858,143.2c.036.1.071.194.106.292a16.1,16.1,0,0,1,.877,6.806s-6.122,11.63-13.885,13.639c-7.611,1.969-19.527,2.993-34.2-4.513-4.061-2.077-8.743-2.436-13.356-2.436l-13.9-.813c-10.18,0-12.752-16.539-12.752-16.539a13.652,13.652,0,0,1,.911-2.016c.07-.127.141-.253.214-.379A18.131,18.131,0,0,1,26.665,128.506Z" style="fill:#9fc2ab"/><path d="M184.465,116.515h-45.83c-9.414,0-16.977,6.564-19.355,15.673-.1.373-2.166,11.15,11.988,12.537l5.856.366a24.8,24.8,0,0,1,11.713,3.294s7,2.745,10.981,2.745l24.707-.274s9.849.6,17.2-5.491c10.12-8.378,6.186-22.018-5.852-26.917-.545-.222-2.017-1.017-2.017-1.017A44.1,44.1,0,0,0,184.465,116.515Z" style="fill:#9fc2ab"/><path d="M18.277,251.386l3.686,16.531a2.136,2.136,0,0,0,4.22-.465v-4.563L26.4,237.95a23.967,23.967,0,0,1-4.788,9.422Z" style="fill:#607491"/><path d="M243.5,117.994v7.652H266.73a11,11,0,0,1,11,11v15.365h7.361V117.994H243.5Z" style="fill:#607491"/><path d="M266.107,74.007h-3.62A14.553,14.553,0,0,0,247.934,88.56v9.568h32.727V88.56A14.554,14.554,0,0,0,266.107,74.007Z" style="fill:#a5b3ce"/><path d="M268.952,74.289a24.648,24.648,0,0,1,.754,6.009v17.83h10.955V88.56A14.555,14.555,0,0,0,268.952,74.289Z" style="fill:#607491"/><path d="M287.091,98.128H241.5a9.933,9.933,0,1,0,0,19.866h45.588a9.933,9.933,0,0,0,0-19.866Z" style="fill:#a5b3ce"/><path d="M288.091,152.011H277.73v4.827a7.618,7.618,0,0,1-7.617,7.618H237.8a14.4,14.4,0,0,1-7.2-3.164c-.014.217-.033.432-.033.652a9.933,9.933,0,0,0,9.933,9.932h47.588a9.933,9.933,0,1,0,0-19.865Z" style="fill:#607491"/><path d="M294.471,114.693a9.889,9.889,0,0,0,2.507-7.6A10.126,10.126,0,0,0,286.8,98.128h-17.1v5.023a7.644,7.644,0,0,1-7.644,7.644H238.818a13.65,13.65,0,0,1-7.23-2.385,9.925,9.925,0,0,0,9.915,9.584h45.588a10.065,10.065,0,0,0,1.284-.092c.112-.015.223-.033.333-.051a9.964,9.964,0,0,0,1.043-.228c.063-.018.128-.03.191-.049a9.983,9.983,0,0,0,1.18-.44c.061-.027.12-.059.181-.087a9.9,9.9,0,0,0,.989-.535l.142-.086a9.973,9.973,0,0,0,1.989-1.68Z" style="fill:#607491"/><path d="M252.988,203.2H241.3a9.236,9.236,0,0,0-6.437,2.55c-2.581,2.5-5.6,7.084-5.494,14.789,0,0-.8,11.146-.605,17.368h8.549V220.433a15.6,15.6,0,0,1,.148-2.275c.02-.136.041-.271.062-.405a17.477,17.477,0,0,1,15.463-14.545Z" style="fill:#607491"/><path d="M221.183,265.41H160.425a4,4,0,0,1,0-8h60.758a4,4,0,0,1,0,8Z" style="fill:#72aad3"/><path d="M314.106,265.41H259.462a4,4,0,0,1,0-8h54.644a4,4,0,0,1,0,8Z" style="fill:#72aad3"/><path d="M238.42,265.406a3.5,3.5,0,0,1-.78-.08,4.1,4.1,0,0,1-.75-.221,4.616,4.616,0,0,1-.69-.369,4.238,4.238,0,0,1-.61-.5,3.688,3.688,0,0,1-.49-.611,3.306,3.306,0,0,1-.371-.69,4,4,0,0,1-.229-.739,3.9,3.9,0,0,1,0-1.571,4.382,4.382,0,0,1,.229-.75,3.932,3.932,0,0,1,.371-.69,3.565,3.565,0,0,1,.49-.6,4,4,0,0,1,6.83,2.821,4.167,4.167,0,0,1-.08.79,3.856,3.856,0,0,1-.231.739,3.177,3.177,0,0,1-.359.69,4.345,4.345,0,0,1-.5.611A4.021,4.021,0,0,1,238.42,265.406Z" style="fill:#72aad3"/><path d="M172.962,285.382h-32.72a4,4,0,0,1,0-8h32.72a4,4,0,0,1,0,8Z" style="fill:#72aad3"/><path d="M330,277.382H196.8a4,4,0,0,0,0,8H330Z" style="fill:#72aad3"/><path d="M301.138,182.792a28.831,28.831,0,0,0-23.581-12.068h-9c-.991.705-1.6,1.152-1.6,1.152s27.535.1,34.963,38.4c0,0,1.441,17.286,1.848,27.636h6.26a2.929,2.929,0,0,0,2.929-3.114c-.456-7.1-1.9-24.92-5.488-38.439A43.068,43.068,0,0,0,301.138,182.792Z" style="fill:#607491"/><path d="M85.093,165.851a18.036,18.036,0,0,0,13.733-15.557,21.672,21.672,0,0,1-9.51,5.93,33.259,33.259,0,0,1-10.677,1.682H72.746a27.363,27.363,0,0,1-15.19-4.591,27.038,27.038,0,0,0-14.877-4.59H28.823c-11.744,0-16.346-4.653-18.07-9.09-3.114,8.747,3.891,18.271,14.071,18.271H37.4a29.03,29.03,0,0,1,13.2,3.217C65.275,168.629,77.482,167.82,85.093,165.851Z" style="fill:#698779"/><path d="M184.465,151.9s10.263.337,17.618-5.751c10.12-8.378,6.2-24.734-6.453-28.276-.564-.158-1.159-.3-1.771-.434,5.488,26.856-17.635,24.431-17.635,24.431H164.693a18.024,18.024,0,0,1-9.519-2.718h0a18.035,18.035,0,0,0-9.52-2.717H134.163a5.717,5.717,0,0,1-4.266-9.543,22.111,22.111,0,0,1,7.031-4.85L136.7,120.9s-.771-1.677-2.011-4A20.669,20.669,0,0,0,118.4,131.832q-.147.56-.275,1.146s-3.195,11.165,13.023,12.954h5.54a22.7,22.7,0,0,1,11.357,2.88,23.086,23.086,0,0,0,11.53,3.086Z" style="fill:#698779"/><path d="M72.373,72.531h81.033a18.577,18.577,0,0,1,14.167,6.331s4.868,9.463,4.641,16.541c-.273,8.554-4.427,15.522-11.036,20.959-4.217,3.469-9.2,6.166-15.7,6.166l-24.2.374a27.865,27.865,0,0,1-19.153-7.661c-.081-.074-11.327-7.778-18.032-8.129-10.491-.549-24.122-1.316-28.123-10.651-.943-2.2-2.71-6.262-2.71-6.262a15.276,15.276,0,0,1,2.931-9.44A19.668,19.668,0,0,1,72.373,72.531Z" style="fill:#9fc2ab"/><path d="M168.279,79.749c-.227-.3-.463-.6-.707-.886,2.805,14.624-4.128,21.471-10.315,24.623a24.935,24.935,0,0,1-11.332,2.6H130.343A51.289,51.289,0,0,1,110.2,101.97h0a47.78,47.78,0,0,0-18.771-3.842H75.367c-14.287,0-19.91-4.2-22.093-7.929a17.188,17.188,0,0,0,1.452,6.167c4,9.335,18.01,11.879,28.5,12.428a28.554,28.554,0,0,1,17.933,7.671l.243.224a29.625,29.625,0,0,0,19.95,7.443H145.4c6.5,0,12.154-3.2,16.372-6.673A29.793,29.793,0,0,0,172.947,95.6,25.128,25.128,0,0,0,168.279,79.749Z" style="fill:#698779"/><path d="M73.787,300.955l-1.325-18.077a29.314,29.314,0,0,0-6.4-16.235l-5.9-7.337a29.307,29.307,0,0,1-5.471-10.771l-3.976-14.8a12.035,12.035,0,0,0-10.674-8.874,27.424,27.424,0,0,1,6.33,15.777l4.871,39.01A2.307,2.307,0,0,0,55.122,281l1.17-1.117a2.305,2.305,0,0,1,3.811,1.023,56.781,56.781,0,0,1,1.827,20.046Z" style="fill:#607491"/><path d="M119.849,300.955l-.968-8.824a17.117,17.117,0,0,0-4.072-9.335l-2.563-2.962a17.117,17.117,0,0,1-4.159-10.494l-.564-13.617A13.059,13.059,0,0,0,94.474,243.2H91.447a13.048,13.048,0,0,0-6.615,1.8c.141-.019,16-2.129,15.651,15.294V288.4a2.475,2.475,0,0,0,3.96,1.98l.754-.565a3.381,3.381,0,0,1,5.331,1.942,40.738,40.738,0,0,1,.883,9.2Z" style="fill:#607491"/><path d="M82.961,261.229a2.251,2.251,0,0,1-1.376-1.016,2.792,2.792,0,0,1-.189-.4,2.508,2.508,0,0,1-.107-.424,2.207,2.207,0,0,1-.019-.437,1.958,1.958,0,0,1,.062-.433,2.223,2.223,0,0,1,1.016-1.376,2.018,2.018,0,0,1,.4-.189,2.213,2.213,0,0,1,.424-.107,2.535,2.535,0,0,1,.438-.024,2.281,2.281,0,0,1,.845.21,2.714,2.714,0,0,1,.376.226,2.568,2.568,0,0,1,.324.294,2.229,2.229,0,0,1,.141,2.832,2.039,2.039,0,0,1-.293.324,2.3,2.3,0,0,1-.348.265,2.263,2.263,0,0,1-.4.183,2.253,2.253,0,0,1-.861.132A2.316,2.316,0,0,1,82.961,261.229Z" style="fill:#607491"/><path d="M84.121,269.109a2.291,2.291,0,0,1-.413-.142,2.2,2.2,0,0,1-.376-.227,2.083,2.083,0,0,1-.324-.293,2.051,2.051,0,0,1-.263-.353,2.265,2.265,0,0,1-.19-.393,2.462,2.462,0,0,1-.1-.423,2.4,2.4,0,0,1-.023-.437,2.316,2.316,0,0,1,.061-.434,2.362,2.362,0,0,1,.15-.417,2.27,2.27,0,0,1,.225-.37,2.117,2.117,0,0,1,.288-.326,2.318,2.318,0,0,1,.354-.263,2.256,2.256,0,0,1,2.1-.11,2.1,2.1,0,0,1,.376.226,2.507,2.507,0,0,1,.324.294,2.28,2.28,0,0,1,.263.353,2.31,2.31,0,0,1,.189.4,2.043,2.043,0,0,1,.1.423,2.244,2.244,0,0,1,.026.432,2.459,2.459,0,0,1-.064.439,2.305,2.305,0,0,1-.148.412,2.441,2.441,0,0,1-.226.375,2.416,2.416,0,0,1-.289.326,2.326,2.326,0,0,1-.351.258,2.032,2.032,0,0,1-.4.188,2.146,2.146,0,0,1-.424.108,2.2,2.2,0,0,1-.438.024A2.315,2.315,0,0,1,84.121,269.109Z" style="fill:#607491"/><path d="M76.617,268.2a2.362,2.362,0,0,1-.417-.15,2.211,2.211,0,0,1-.371-.225,2.051,2.051,0,0,1-.329-.294,2.018,2.018,0,0,1-.258-.352A2.22,2.22,0,0,1,76,264.115a1.954,1.954,0,0,1,.393-.19,2.342,2.342,0,0,1,.429-.107,2.234,2.234,0,1,1-.209,4.381Z" style="fill:#607491"/><path d="M242.463,186.085a2.251,2.251,0,0,1-1.377-1.015,2.8,2.8,0,0,1-.189-.4,2.556,2.556,0,0,1-.107-.424,2.274,2.274,0,0,1-.018-.436,1.893,1.893,0,0,1,.062-.433A2.222,2.222,0,0,1,241.849,182a2.027,2.027,0,0,1,.4-.189,2.271,2.271,0,0,1,.424-.108,2.633,2.633,0,0,1,.437-.024,2.3,2.3,0,0,1,.846.211,2.574,2.574,0,0,1,.375.226,2.5,2.5,0,0,1,.325.293,2.282,2.282,0,0,1,.262.354,2.246,2.246,0,0,1,.253,1.691,2.305,2.305,0,0,1-.148.412,2.329,2.329,0,0,1-.226.376,2.085,2.085,0,0,1-.294.324,2.008,2.008,0,0,1-.744.448,2.279,2.279,0,0,1-.862.131A2.238,2.238,0,0,1,242.463,186.085Z" style="fill:#607491"/><path d="M243.622,193.966a2.322,2.322,0,0,1-.413-.143,2.122,2.122,0,0,1-.375-.226,2.047,2.047,0,0,1-.325-.294,1.972,1.972,0,0,1-.262-.353,2.3,2.3,0,0,1-.191-.392,2.556,2.556,0,0,1-.1-.423,2.507,2.507,0,0,1-.024-.438,2.318,2.318,0,0,1,.062-.433,2.362,2.362,0,0,1,.15-.417,2.211,2.211,0,0,1,.225-.371,2.009,2.009,0,0,1,.288-.325,2.36,2.36,0,0,1,.353-.263,2.258,2.258,0,0,1,2.1-.11,2.131,2.131,0,0,1,.376.226,2.568,2.568,0,0,1,.324.294,2.233,2.233,0,0,1,.263.353,2.35,2.35,0,0,1,.189.4,2.018,2.018,0,0,1,.1.422,2.253,2.253,0,0,1,.025.433,2.171,2.171,0,0,1-.211.85,2.378,2.378,0,0,1-.515.7,2.309,2.309,0,0,1-.352.257,1.955,1.955,0,0,1-.4.189,2.111,2.111,0,0,1-.424.108,2.194,2.194,0,0,1-.437.023A2.324,2.324,0,0,1,243.622,193.966Z" style="fill:#607491"/><path d="M236.119,193.055a2.372,2.372,0,0,1-.418-.15,2.133,2.133,0,0,1-.37-.224,2.01,2.01,0,0,1-.329-.3,1.981,1.981,0,0,1-.258-.352,2.218,2.218,0,0,1,.761-3.063,2.1,2.1,0,0,1,.393-.19,2.424,2.424,0,0,1,.429-.106,2.153,2.153,0,0,1,.431-.019,2.233,2.233,0,1,1-.639,4.4Z" style="fill:#607491"/></svg>