<svg width="64px" height="64px" viewBox="0 0 64 64" xmlns="http://www.w3.org/2000/svg"><title>bambus</title><g id="bambus"><path d="M5,61H5a4,4,0,0,1,4-4H56a4,4,0,0,1,4,4h0" style="fill:#bf7e68;stroke:#4c241d;stroke-linecap:round;stroke-linejoin:round;stroke-width:2px"/><circle cx="51.5" cy="7.5" r="2.5" style="fill:none;stroke:#4c241d;stroke-linecap:round;stroke-linejoin:round;stroke-width:2px"/><circle cx="31.5" cy="28.5" r="21.5" style="fill:#ffe5d2"/><line x1="49.837" y1="26.663" x2="46.163" y2="30.337" style="fill:none;stroke:#4c241d;stroke-linecap:round;stroke-linejoin:round;stroke-width:2px"/><line x1="46.163" y1="26.663" x2="49.837" y2="30.337" style="fill:none;stroke:#4c241d;stroke-linecap:round;stroke-linejoin:round;stroke-width:2px"/><line x1="8" y1="8" x2="8" y2="10" style="fill:none;stroke:#4c241d;stroke-linecap:round;stroke-linejoin:round;stroke-width:2px"/><line x1="8" y1="14" x2="8" y2="16" style="fill:none;stroke:#4c241d;stroke-linecap:round;stroke-linejoin:round;stroke-width:2px"/><line x1="4" y1="12" x2="6" y2="12" style="fill:none;stroke:#4c241d;stroke-linecap:round;stroke-linejoin:round;stroke-width:2px"/><line x1="10" y1="12" x2="12" y2="12" style="fill:none;stroke:#4c241d;stroke-linecap:round;stroke-linejoin:round;stroke-width:2px"/><circle cx="59.239" cy="23.082" r="1.069" style="fill:#4c241d"/><circle cx="23.239" cy="18.082" r="1.069" style="fill:#4c241d"/><circle cx="5.239" cy="30.082" r="1.069" style="fill:#4c241d"/><circle cx="12.239" cy="43.082" r="1.069" style="fill:#4c241d"/><ellipse cx="20.141" cy="33.718" rx="2.057" ry="4.982" transform="matrix(0.548, -0.836, 0.836, 0.548, -19.1, 32.08)" style="fill:#0faa00;stroke:#4c241d;stroke-linecap:round;stroke-linejoin:round;stroke-width:2px"/><ellipse cx="44.141" cy="39.718" rx="4.982" ry="2.057" transform="translate(-14.549 30.697) rotate(-33.243)" style="fill:#0faa00;stroke:#4c241d;stroke-linecap:round;stroke-linejoin:round;stroke-width:2px"/><ellipse cx="44.141" cy="45.718" rx="2.057" ry="4.982" transform="translate(-18.293 57.574) rotate(-56.757)" style="fill:#0faa00;stroke:#4c241d;stroke-linecap:round;stroke-linejoin:round;stroke-width:2px"/><ellipse cx="43.141" cy="17.718" rx="4.982" ry="2.057" transform="translate(-2.653 26.549) rotate(-33.243)" style="fill:#0faa00;stroke:#4c241d;stroke-linecap:round;stroke-linejoin:round;stroke-width:2px"/><ellipse cx="31.141" cy="8.718" rx="2.057" ry="4.982" transform="translate(6.779 29.984) rotate(-56.757)" style="fill:#0faa00;stroke:#4c241d;stroke-linecap:round;stroke-linejoin:round;stroke-width:2px"/><rect x="25" y="27" width="4" height="10" style="fill:#a9ba5a;stroke:#4c241d;stroke-linecap:round;stroke-linejoin:round;stroke-width:2px"/><rect x="25" y="37" width="4" height="10" style="fill:#0faa00;stroke:#4c241d;stroke-linecap:round;stroke-linejoin:round;stroke-width:2px"/><rect x="25" y="47" width="4" height="10" style="fill:#a9ba5a;stroke:#4c241d;stroke-linecap:round;stroke-linejoin:round;stroke-width:2px"/><rect x="35" y="47" width="4" height="10" style="fill:#a9ba5a;stroke:#4c241d;stroke-linecap:round;stroke-linejoin:round;stroke-width:2px"/><rect x="35" y="7" width="4" height="10" style="fill:#a9ba5a;stroke:#4c241d;stroke-linecap:round;stroke-linejoin:round;stroke-width:2px"/><rect x="35" y="17" width="4" height="10" style="fill:#0faa00;stroke:#4c241d;stroke-linecap:round;stroke-linejoin:round;stroke-width:2px"/><rect x="35" y="27" width="4" height="10" style="fill:#a9ba5a;stroke:#4c241d;stroke-linecap:round;stroke-linejoin:round;stroke-width:2px"/><rect x="35" y="37" width="4" height="10" style="fill:#0faa00;stroke:#4c241d;stroke-linecap:round;stroke-linejoin:round;stroke-width:2px"/></g></svg>