<svg width="64px" height="64px" viewBox="0 0 64 64" xmlns="http://www.w3.org/2000/svg"><title>beer</title><g id="beer"><circle cx="28.5" cy="29.5" r="22.5" style="fill:#ffded5"/><circle cx="30.74" cy="8.987" r="1.069" style="fill:#4c241d"/><circle cx="7.5" cy="34.5" r="2.5" style="fill:none;stroke:#4c241d;stroke-linecap:round;stroke-linejoin:round;stroke-width:2px"/><line x1="42" y1="7" x2="42" y2="9" style="fill:none;stroke:#4c241d;stroke-linecap:round;stroke-linejoin:round;stroke-width:2px"/><line x1="42" y1="13" x2="42" y2="15" style="fill:none;stroke:#4c241d;stroke-linecap:round;stroke-linejoin:round;stroke-width:2px"/><line x1="38" y1="11" x2="40" y2="11" style="fill:none;stroke:#4c241d;stroke-linecap:round;stroke-linejoin:round;stroke-width:2px"/><line x1="44" y1="11" x2="46" y2="11" style="fill:none;stroke:#4c241d;stroke-linecap:round;stroke-linejoin:round;stroke-width:2px"/><polygon points="62 62 45 62 46 58 61 58 62 62" style="fill:#fff;stroke:#4c241d;stroke-linecap:round;stroke-linejoin:round;stroke-width:2px"/><polyline points="55 25 44 25 44.97 41 62.03 41 63 25 59 25" style="fill:#fff;stroke:#4c241d;stroke-linecap:round;stroke-linejoin:round;stroke-width:2px"/><polygon points="44.97 41 46 58 61 58 62.03 41 44.97 41" style="fill:#ffce56;stroke:#4c241d;stroke-linecap:round;stroke-linejoin:round;stroke-width:2px"/><circle cx="55.74" cy="45.987" r="1.069" style="fill:#4c241d"/><circle cx="50.74" cy="47.987" r="1.069" style="fill:#4c241d"/><circle cx="56.74" cy="52.987" r="1.069" style="fill:#4c241d"/><path d="M60.381,22H56.816A2.962,2.962,0,0,0,57,21a3,3,0,0,0-6,0,2.962,2.962,0,0,0,.184,1H51a2,2,0,0,0-4,0h-.381A2.618,2.618,0,0,0,44,24.619V25H55v6a2,2,0,0,0,4,0V25h4v-.381A2.618,2.618,0,0,0,60.381,22Z" style="fill:#ffce56;stroke:#4c241d;stroke-linecap:round;stroke-linejoin:round;stroke-width:2px"/><polygon points="38 62 21 62 22 58 37 58 38 62" style="fill:#fff;stroke:#4c241d;stroke-linecap:round;stroke-linejoin:round;stroke-width:2px"/><polyline points="31 25 20 25 20.97 41 38.03 41 39 25 35 25" style="fill:#fff;stroke:#4c241d;stroke-linecap:round;stroke-linejoin:round;stroke-width:2px"/><polygon points="20.97 41 22 58 37 58 38.03 41 20.97 41" style="fill:#ffce56;stroke:#4c241d;stroke-linecap:round;stroke-linejoin:round;stroke-width:2px"/><circle cx="31.74" cy="45.987" r="1.069" style="fill:#4c241d"/><circle cx="26.74" cy="47.987" r="1.069" style="fill:#4c241d"/><circle cx="32.74" cy="52.987" r="1.069" style="fill:#4c241d"/><path d="M36.381,22H32.816A2.962,2.962,0,0,0,33,21a3,3,0,0,0-6,0,2.962,2.962,0,0,0,.184,1H27a2,2,0,0,0-4,0h-.381A2.618,2.618,0,0,0,20,24.619V25h6v4a2,2,0,0,0,4,0V25h9v-.381A2.618,2.618,0,0,0,36.381,22Z" style="fill:#ffce56;stroke:#4c241d;stroke-linecap:round;stroke-linejoin:round;stroke-width:2px"/><circle cx="11.5" cy="11.5" r="10.5" style="fill:#a9ba5a;stroke:#4c241d;stroke-linecap:round;stroke-linejoin:round;stroke-width:2px"/><path d="M11.407,17.7s5.907-6.251,5.907-7.936a3.174,3.174,0,0,0-3.282-3.053,3.352,3.352,0,0,0-2.625,1.238A3.352,3.352,0,0,0,8.782,6.709,3.174,3.174,0,0,0,5.5,9.762C5.5,11.447,11.407,17.7,11.407,17.7Z" style="fill:#f96e43;stroke:#4c241d;stroke-linecap:round;stroke-linejoin:round;stroke-width:2px"/></g></svg>