<svg width="64px" height="64px" viewBox="0 0 64 64" xmlns="http://www.w3.org/2000/svg"><title>male</title><g id="male"><circle cx="37.5" cy="31.5" r="21.5" style="fill:#ffe5d2"/><circle cx="6.5" cy="11.5" r="2.5" style="fill:none;stroke:#4c241d;stroke-linecap:round;stroke-linejoin:round;stroke-width:2px"/><circle cx="54.5" cy="42.5" r="1.132" style="fill:#4c241d"/><circle cx="14.5" cy="5.5" r="1.132" style="fill:#4c241d"/><circle cx="12.5" cy="19.5" r="1.132" style="fill:#4c241d"/><path d="M49,63H11V54.775a9.369,9.369,0,0,1,5.746-8.568L30,40.5l13.254,5.707A9.369,9.369,0,0,1,49,54.775Z" style="fill:#e66353;stroke:#4c241d;stroke-linecap:round;stroke-linejoin:round;stroke-width:2px"/><path d="M26,40h8a0,0,0,0,1,0,0v3a4,4,0,0,1-4,4h0a4,4,0,0,1-4-4V40a0,0,0,0,1,0,0Z" style="fill:#edebdc;stroke:#4c241d;stroke-linecap:round;stroke-linejoin:round;stroke-width:2px"/><line x1="19" y1="61" x2="19" y2="56" style="fill:none;stroke:#4c241d;stroke-linecap:round;stroke-linejoin:round;stroke-width:2px"/><line x1="41" y1="61" x2="41" y2="56" style="fill:none;stroke:#4c241d;stroke-linecap:round;stroke-linejoin:round;stroke-width:2px"/><line x1="49.837" y1="5.663" x2="46.163" y2="9.337" style="fill:none;stroke:#4c241d;stroke-linecap:round;stroke-linejoin:round;stroke-width:2px"/><path d="M43,25.5V18H18v7.5a2.5,2.5,0,0,0-2.5,2.591,2.56,2.56,0,0,0,1.183,1.97,2.225,2.225,0,0,0,2.108.3A13.9,13.9,0,0,0,28.15,40.808a6.978,6.978,0,0,0,4.285-.046l.444-.144a13.9,13.9,0,0,0,9.293-10.269,2.282,2.282,0,0,0,2.093-.238,2.537,2.537,0,0,0,1.215-1.793A2.5,2.5,0,0,0,43,25.5Z" style="fill:#edebdc;stroke:#4c241d;stroke-linecap:round;stroke-linejoin:round;stroke-width:2px"/><line x1="46.163" y1="5.663" x2="49.837" y2="9.337" style="fill:none;stroke:#4c241d;stroke-linecap:round;stroke-linejoin:round;stroke-width:2px"/><path d="M43,15C43,4,17.945,2,18,16.835c0,1.441.037,3,.022,4.086a9.394,9.394,0,0,0,6.988-2.5C27.926,24.067,36.054,26.383,43,20.97Z" style="fill:#6b4f5b;stroke:#4c241d;stroke-linecap:round;stroke-linejoin:round;stroke-width:2px"/><polygon points="30 45.503 30 48.425 37 50.617 37 44.042 30 45.503" style="fill:#fc8c29;stroke:#4c241d;stroke-linecap:round;stroke-linejoin:round;stroke-width:2px"/><polygon points="30 45.503 30 48.425 23 50.617 23 44.042 30 45.503" style="fill:#fc8c29;stroke:#4c241d;stroke-linecap:round;stroke-linejoin:round;stroke-width:2px"/><line x1="27" y1="53" x2="33" y2="53" style="fill:none;stroke:#ffce56;stroke-linecap:round;stroke-linejoin:round;stroke-width:2px"/><line x1="27" y1="56" x2="33" y2="56" style="fill:none;stroke:#ffce56;stroke-linecap:round;stroke-linejoin:round;stroke-width:2px"/><line x1="38" y1="27" x2="36" y2="28" style="fill:none;stroke:#4c241d;stroke-linecap:round;stroke-linejoin:round;stroke-width:2px"/><line x1="25" y1="28" x2="23" y2="27" style="fill:none;stroke:#4c241d;stroke-linecap:round;stroke-linejoin:round;stroke-width:2px"/><rect x="24" y="30" width="3" height="2" rx="1" ry="1" style="fill:#e66353"/><rect x="34" y="30" width="3" height="2" rx="1" ry="1" style="fill:#e66353"/><rect x="19" y="60" width="22" height="3" style="fill:#ffce56;stroke:#4c241d;stroke-linecap:round;stroke-linejoin:round;stroke-width:2px"/></g></svg>