<svg width="64px" height="64px" viewBox="0 0 64 64" xmlns="http://www.w3.org/2000/svg"><title>orange</title><g id="orange"><circle cx="26.5" cy="32.5" r="21.5" style="fill:#ffe5d2"/><path d="M38.528,18.275s5.177-1.916,7.031-6.229-.317-9.389-.317-9.389S40.064,4.573,38.21,8.886,38.528,18.275,38.528,18.275Z" style="fill:#77a052;stroke:#4c241d;stroke-linecap:round;stroke-linejoin:round;stroke-width:2px"/><path d="M38,17.22S37,10,29,4" style="fill:none;stroke:#4c241d;stroke-linecap:round;stroke-linejoin:round;stroke-width:2px"/><path d="M58.826,38.609c0,11.658-8.877,21.109-19.826,21.109S19.174,50.267,19.174,38.609c0-10.2,6.8-18.712,15.83-20.68C36.3,17.648,37.3,16,38.673,16c1.213,0,2.728,1.616,3.881,1.838C51.807,19.621,58.826,28.242,58.826,38.609Z" style="fill:#fc8c29;stroke:#4c241d;stroke-linecap:round;stroke-linejoin:round;stroke-width:2px"/><circle cx="54.466" cy="35.678" r="1.069" style="fill:#e66353"/><circle cx="53.466" cy="46.678" r="1.069" style="fill:#e66353"/><circle cx="51.466" cy="41.678" r="1.069" style="fill:#e66353"/><circle cx="50.466" cy="46.678" r="1.069" style="fill:#e66353"/><circle cx="55.466" cy="40.678" r="1.069" style="fill:#e66353"/><circle cx="46.466" cy="53.678" r="1.069" style="fill:#e66353"/><circle cx="49.466" cy="50.678" r="1.069" style="fill:#e66353"/><line x1="11" y1="5" x2="11" y2="7" style="fill:none;stroke:#4c241d;stroke-linecap:round;stroke-linejoin:round;stroke-width:2px"/><line x1="11" y1="11" x2="11" y2="13" style="fill:none;stroke:#4c241d;stroke-linecap:round;stroke-linejoin:round;stroke-width:2px"/><line x1="7" y1="9" x2="9" y2="9" style="fill:none;stroke:#4c241d;stroke-linecap:round;stroke-linejoin:round;stroke-width:2px"/><line x1="13" y1="9" x2="15" y2="9" style="fill:none;stroke:#4c241d;stroke-linecap:round;stroke-linejoin:round;stroke-width:2px"/><circle cx="19.239" cy="15.082" r="1.069" style="fill:#4c241d"/><path d="M43.667,48c0,8.837-8.358,16-18.667,16S6.333,56.837,6.333,48Z" style="fill:#fc8c29;stroke:#4c241d;stroke-linecap:round;stroke-linejoin:round;stroke-width:2px"/><path d="M40,48c0,7.1-6.716,12.857-15,12.857S10,55.1,10,48Z" style="fill:#e86436;stroke:#4c241d;stroke-linecap:round;stroke-linejoin:round;stroke-width:2px"/><line x1="25" y1="51" x2="25" y2="52" style="fill:none;stroke:#4c241d;stroke-linecap:round;stroke-linejoin:round;stroke-width:2px"/><line x1="29" y1="51" x2="30" y2="52" style="fill:none;stroke:#4c241d;stroke-linecap:round;stroke-linejoin:round;stroke-width:2px"/><line x1="21" y1="51" x2="20" y2="52" style="fill:none;stroke:#4c241d;stroke-linecap:round;stroke-linejoin:round;stroke-width:2px"/><rect x="31" y="37" width="16" height="5" style="fill:#fc8c29;stroke:#4c241d;stroke-linecap:round;stroke-linejoin:round;stroke-width:2px"/><line x1="31" y1="34" x2="47" y2="34" style="fill:none;stroke:#4c241d;stroke-linecap:round;stroke-linejoin:round;stroke-width:2px"/><line x1="47" y1="31" x2="31" y2="31" style="fill:none;stroke:#4c241d;stroke-linecap:round;stroke-linejoin:round;stroke-width:2px"/><line x1="39" y1="34" x2="39" y2="28" style="fill:none;stroke:#4c241d;stroke-linecap:round;stroke-linejoin:round;stroke-width:2px"/><path d="M32,22s-6,3-7,7" style="fill:none;stroke:#ffce56;stroke-linecap:round;stroke-linejoin:round;stroke-width:2px"/></g></svg>