<svg width="64px" height="64px" viewBox="0 0 64 64" xmlns="http://www.w3.org/2000/svg"><title>peasant</title><g id="peasant"><circle cx="39.5" cy="31.5" r="21.5" style="fill:#ffe5d2"/><circle cx="56.5" cy="33.5" r="2.5" style="fill:none;stroke:#4c241d;stroke-linecap:round;stroke-linejoin:round;stroke-width:2px"/><circle cx="56.5" cy="42.5" r="1.132" style="fill:#4c241d"/><circle cx="4.5" cy="33.5" r="1.132" style="fill:#4c241d"/><circle cx="55.5" cy="7.5" r="1.132" style="fill:#4c241d"/><path d="M51,63H13V54.775a9.369,9.369,0,0,1,5.746-8.568L32,40.5l13.254,5.707A9.369,9.369,0,0,1,51,54.775Z" style="fill:#b5a19c;stroke:#4c241d;stroke-linecap:round;stroke-linejoin:round;stroke-width:2px"/><path d="M28,40h8a0,0,0,0,1,0,0v3a4,4,0,0,1-4,4h0a4,4,0,0,1-4-4V40A0,0,0,0,1,28,40Z" style="fill:#edebdc;stroke:#4c241d;stroke-linecap:round;stroke-linejoin:round;stroke-width:2px"/><line x1="21" y1="61" x2="21" y2="56" style="fill:none;stroke:#4c241d;stroke-linecap:round;stroke-linejoin:round;stroke-width:2px"/><path d="M11.687,23.286a21.643,21.643,0,0,0,41.579.175" style="fill:none;stroke:#bf7e68;stroke-linecap:round;stroke-linejoin:round;stroke-width:2px"/><line x1="43" y1="61" x2="43" y2="56" style="fill:none;stroke:#4c241d;stroke-linecap:round;stroke-linejoin:round;stroke-width:2px"/><line x1="12.837" y1="37.663" x2="9.163" y2="41.337" style="fill:none;stroke:#4c241d;stroke-linecap:round;stroke-linejoin:round;stroke-width:2px"/><path d="M45,25.5V18H20v7.5a2.5,2.5,0,0,0-2.5,2.591,2.56,2.56,0,0,0,1.183,1.97,2.225,2.225,0,0,0,2.108.3A13.9,13.9,0,0,0,30.15,40.808a6.978,6.978,0,0,0,4.285-.046l.444-.144a13.9,13.9,0,0,0,9.293-10.269,2.282,2.282,0,0,0,2.093-.238,2.537,2.537,0,0,0,1.215-1.793A2.5,2.5,0,0,0,45,25.5Z" style="fill:#edebdc;stroke:#4c241d;stroke-linecap:round;stroke-linejoin:round;stroke-width:2px"/><line x1="9.163" y1="37.663" x2="12.837" y2="41.337" style="fill:none;stroke:#4c241d;stroke-linecap:round;stroke-linejoin:round;stroke-width:2px"/><line x1="40" y1="27" x2="38" y2="28" style="fill:none;stroke:#4c241d;stroke-linecap:round;stroke-linejoin:round;stroke-width:2px"/><line x1="27" y1="28" x2="25" y2="27" style="fill:none;stroke:#4c241d;stroke-linecap:round;stroke-linejoin:round;stroke-width:2px"/><rect x="26" y="30" width="3" height="2" rx="1" ry="1" style="fill:#e66353"/><rect x="36" y="30" width="3" height="2" rx="1" ry="1" style="fill:#e66353"/><rect x="21" y="60" width="22" height="3" style="fill:#6b4f5b;stroke:#4c241d;stroke-linecap:round;stroke-linejoin:round;stroke-width:2px"/><path d="M59,23H5L30.261,2.648a2.657,2.657,0,0,1,3.478,0Z" style="fill:#ffce56;stroke:#4c241d;stroke-linecap:round;stroke-linejoin:round;stroke-width:2px"/><path d="M44,23H20L31.227,2.648c.477-.864,1.069-.864,1.546,0Z" style="fill:#fc8c29;stroke:#4c241d;stroke-linecap:round;stroke-linejoin:round;stroke-width:2px"/><line x1="32" y1="52" x2="32" y2="48" style="fill:none;stroke:#4c241d;stroke-linecap:round;stroke-linejoin:round;stroke-width:2px"/><line x1="32" y1="23" x2="32" y2="2.508" style="fill:none;stroke:#4c241d;stroke-linecap:round;stroke-linejoin:round;stroke-width:2px"/></g></svg>