<svg width="64px" height="64px" viewBox="0 0 64 64" xmlns="http://www.w3.org/2000/svg"><title>bus</title><g id="bus"><circle cx="31.5" cy="33.5" r="21.5" style="fill:#eaeaea"/><line x1="54" y1="14.463" x2="54" y2="15.878" style="fill:none;stroke:#4c241d;stroke-linecap:round;stroke-linejoin:round;stroke-width:2px"/><line x1="54" y1="20.122" x2="54" y2="21.537" style="fill:none;stroke:#4c241d;stroke-linecap:round;stroke-linejoin:round;stroke-width:2px"/><line x1="50.463" y1="18" x2="51.878" y2="18" style="fill:none;stroke:#4c241d;stroke-linecap:round;stroke-linejoin:round;stroke-width:2px"/><line x1="56.122" y1="18" x2="57.537" y2="18" style="fill:none;stroke:#4c241d;stroke-linecap:round;stroke-linejoin:round;stroke-width:2px"/><circle cx="20.5" cy="11.5" r="2.5" style="fill:none;stroke:#4c241d;stroke-linecap:round;stroke-linejoin:round;stroke-width:2px"/><circle cx="35.5" cy="20.5" r="1.069" style="fill:#4c241d"/><circle cx="46.5" cy="7.5" r="1.069" style="fill:#4c241d"/><circle cx="5.5" cy="5.5" r="1.069" style="fill:#4c241d"/><path d="M11.252,26h45.5A5.252,5.252,0,0,1,62,31.252V39a0,0,0,0,1,0,0H6a0,0,0,0,1,0,0V31.252A5.252,5.252,0,0,1,11.252,26Z" style="fill:#e66353;stroke:#4c241d;stroke-linecap:round;stroke-linejoin:round;stroke-width:2px"/><path d="M6,39V56H62V50.6A2.6,2.6,0,0,0,59.4,48H59V39.052S5.831,39.175,6,39Z" style="fill:#e66353;stroke:#4c241d;stroke-linecap:round;stroke-linejoin:round;stroke-width:2px"/><rect x="10" y="30" width="6" height="5" style="fill:#9dc1e4;stroke:#4c241d;stroke-linecap:round;stroke-linejoin:round;stroke-width:2px"/><rect x="20" y="30" width="6" height="5" style="fill:#9dc1e4;stroke:#4c241d;stroke-linecap:round;stroke-linejoin:round;stroke-width:2px"/><rect x="30" y="30" width="6" height="5" style="fill:#9dc1e4;stroke:#4c241d;stroke-linecap:round;stroke-linejoin:round;stroke-width:2px"/><rect x="40" y="30" width="6" height="5" style="fill:#9dc1e4;stroke:#4c241d;stroke-linecap:round;stroke-linejoin:round;stroke-width:2px"/><rect x="50" y="30" width="6" height="5" style="fill:#9dc1e4;stroke:#4c241d;stroke-linecap:round;stroke-linejoin:round;stroke-width:2px"/><rect x="10.118" y="43" width="5.882" height="13" style="fill:#6b4f5b;stroke:#4c241d;stroke-linecap:round;stroke-linejoin:round;stroke-width:2px"/><rect x="20" y="43" width="27" height="5" style="fill:#9dc1e4;stroke:#4c241d;stroke-linecap:round;stroke-linejoin:round;stroke-width:2px"/><rect x="51" y="39" width="8" height="9" style="fill:#9dc1e4;stroke:#4c241d;stroke-linecap:round;stroke-linejoin:round;stroke-width:2px"/><circle cx="52.824" cy="55.342" r="3.928" style="fill:#6b4f5b;stroke:#4c241d;stroke-linecap:round;stroke-linejoin:round;stroke-width:2px"/><circle cx="52.824" cy="55.342" r="1.028" style="fill:#4c241d"/><circle cx="25.353" cy="55.342" r="3.928" style="fill:#6b4f5b;stroke:#4c241d;stroke-linecap:round;stroke-linejoin:round;stroke-width:2px"/><circle cx="25.353" cy="55.342" r="1.01" style="fill:#4c241d"/><line x1="26" y1="43" x2="26" y2="48" style="fill:none;stroke:#4c241d;stroke-linecap:round;stroke-linejoin:round;stroke-width:2px"/><line x1="32" y1="43" x2="32" y2="48" style="fill:none;stroke:#4c241d;stroke-linecap:round;stroke-linejoin:round;stroke-width:2px"/><line x1="38" y1="43" x2="38" y2="48" style="fill:none;stroke:#4c241d;stroke-linecap:round;stroke-linejoin:round;stroke-width:2px"/></g></svg>