<svg width="120px" height="120px" viewBox="0 0 120 120" xmlns="http://www.w3.org/2000/svg"><defs><style>.cls-1{fill:#cbe6f8;}.cls-2{fill:#fdd88e;}.cls-3{fill:#9f5656;}.cls-4{fill:#ffe7b7;}.cls-5{fill:#2b3c58;}.cls-6{fill:#2b3c59;}.cls-7{fill:#a05757;}.cls-8{fill:#a05656;}.cls-9{fill:#9d9789;}.cls-10{fill:#e99735;}.cls-11{fill:#f2dba4;}.cls-12{fill:#d9c09e;}.cls-13{fill:#fff;}.cls-14{fill:#a05657;}.cls-15{fill:#d8c2a2;}.cls-16{fill:#d3d0c5;}.cls-17{fill:#d7e3e0;}.cls-18{fill:#d2e4ea;}</style></defs><title>hs-huzzah-14</title><g id="Layer_2" data-name="Layer 2"><path class="cls-1" d="M99,58.31a29.88,29.88,0,0,0-.51-3.19,11.78,11.78,0,0,0-1-4.6c-.16-.33,0-1.28-.34-1.48-.09,0,0-.26-.41-.86a5.1,5.1,0,0,0-2.78-2,8.66,8.66,0,0,0-6-.1c-.39.14-1.22,0-1.24.92,0,1.41-.23,2.82-.34,4.23,0,.31.06.66-.34.78-.24.07-.57.18-.72-.12s-.6-.62-.28-1.09c.08-.12.2-.28.17-.38-.48-2,.11-3.92.33-5.83s.16-4,.49-6c.19-1.19,0-2.4.34-3.57.21-.65.52-1.41-.92-1-2.39.62-4.45,2-6.87,2.55-1.24.27-2.38,1-3.62,1.17-4.09.73-8.26.78-12.4,1.19-3.39.33-6.8-.22-10.2.1a2.9,2.9,0,0,1-2.7-.7c-2.81.4-5.62,0-8.43,0-1.54,0-3,.46-4.61.1a12.51,12.51,0,0,0-4-.13c-2.35.24-4.68-.31-7.06,0a4.65,4.65,0,0,1-2.79-.42c-2.12-1.47-1,.59-1.29,1.08a2.38,2.38,0,0,1,.19.61,48.81,48.81,0,0,0,.44,6.82c.5,3.22.74,6.49,1.22,9.72.16,1.14.32,2.33.43,3.45.24,2.51.54,5,.82,7.51.46,4.13,1,8.26,1.21,12.41A80.74,80.74,0,0,0,27.09,91c.24,1.25-.46,3.13,1.67,3.55.45-.72.45-.72,1.28-.32a11.4,11.4,0,0,0,1.13.5c2,.69,3.93,1.42,5.9,2.11a39.12,39.12,0,0,0,9.74,2c3,.25,6,.4,9,.55.35,0,.84,0,.86.59a.8.8,0,0,1-.72.86,2.33,2.33,0,0,1-.36.08,22,22,0,0,1-6.82,0,1.23,1.23,0,0,1-.53-.22c-.64-.46-.81-.43-1.39.19.05.58-.48.67-.94,1.33a6.22,6.22,0,0,0-1.22,4.33,5.22,5.22,0,0,0,2.46,2.85,14.9,14.9,0,0,0,4.54,1.89,23,23,0,0,0,4.89.64c.31,0,.77-.06.87.34s-.26.69-.6.89a1.82,1.82,0,0,1-.55.2c-.59.12-1.19.19-1.8.27a11.07,11.07,0,0,1-2.57-.29A8.79,8.79,0,0,1,46,110.39c-.6-.67-1-1.49-1.53-2.17a34.59,34.59,0,0,0-6.41.81,43.88,43.88,0,0,0-5.72,1.15c-1.45.46-3.17.67-4.05,2.25a3.58,3.58,0,0,1,.64,1.12,1,1,0,0,0,.47.55,12.21,12.21,0,0,0,2.87,1.24c2.2.53,4.43.83,6.67,1.15a90.56,90.56,0,0,0,9.74.7c5.14.17,10.29.43,15.44.27.32,0,.71-.07.8.42l6.15-.59c1.55-.15,3.09-.41,4.63-.64a9.73,9.73,0,0,0,6.11-3c.66-.75.91-1.65-.37-2.34a16.75,16.75,0,0,0-4.72-1.54c-3-.62-6-.49-9-.71a2.78,2.78,0,0,0-2.46.8,6,6,0,0,1-4.47,1.93c-.26,0-.54-.34-.81-.52.09-.13.15-.3.27-.37a32.75,32.75,0,0,0,3-1.77,6.24,6.24,0,0,0,1.85-2c.49-.91,0-2-.13-3-.4-2.11-1.95-3.43-3.53-4.68l-.32-.27a1.34,1.34,0,0,1,.18-.07c1.49-.16,3-.43,4.45-.58a35.44,35.44,0,0,0,7.11-2A21.94,21.94,0,0,0,78,94.32c1.07-.69,2.62-.91,2.77-2.6.07-.85.07-1.72.17-2.58.25-2,.47-4,.85-6,.15-.78-.28-1.68.42-2.35,0-.43.39-.46.66-.55a13.63,13.63,0,0,0,2-.71,16.69,16.69,0,0,0,4.29-3.31,47.81,47.81,0,0,0,4.66-5.38,7.57,7.57,0,0,0,1.12-1.56c.23-.61.65-1.18.91-1.81a1.43,1.43,0,0,1,1-.9c.16,0,.44,0,.29-.34-.29-.54.07-.48.42-.45s.68,0,.56-.19c-.32-.58.2-.84.26-1.21A48.06,48.06,0,0,0,99,58.31ZM89.47,66c-.59,1.2-1,2.49-1.46,3.74h0c-.88,1.42-1.77,2.84-2.64,4.27-.35.57-1,.91-1.3,1.37-.36.63-.82.39-1.2.57a.35.35,0,0,1-.54-.37c.23-2.76.39-5.54.77-8.28.18-1.23.19-2.47.36-3.7A2.82,2.82,0,0,1,84.25,62c.54-.62.55-1.69.8-2.57.64-2.21.93-4.56,2.51-6.42.49-.58,1-1.4,1.7-1.25s1.07,1.25,1.17,1.95c.27,1.94.82,3.87.38,5.87C90.72,60,89.71,65.48,89.47,66Z"/><path class="cls-2" d="M21.49,38.92c-1.28-.36-1.47-1.76-2.35-2.51a2.48,2.48,0,0,1,.2-.37c.06-.11.1-.22.15-.33-1.37.25-.33-1.26-1.07-1.46v-.73c.63-1.37.64-3,1.77-4.15a10.76,10.76,0,0,1,6.08-3c.42.15.54.52.69.88.77,1.88,1.55,3.75,2.39,5.6a1.68,1.68,0,0,1,.27,1c-.13.57.2.85.65,1.06a4.85,4.85,0,0,0,3.95-.07c.29-.12.55-.3.85-.41a.67.67,0,0,0,.48-.66c.05-.26.25-.39.45-.54.9-.65,1.75-1.33,1.7-2.6a.19.19,0,0,1,.17-.2h.69a3.13,3.13,0,0,0-.09-.88,42.22,42.22,0,0,1-2-7c-.26-1.22.88-1.81,1.44-2.65a5.75,5.75,0,0,1,1.45-1.5c1.77-1.19,3.66-2.46,5.83-2.3,4.24.3,6.82-2,9.21-5a16.43,16.43,0,0,1,4.82-4.06,12.12,12.12,0,0,1,5.16-1.73,3.34,3.34,0,0,1,3.17,1.14c.3.39.18.54-.25.73C65.68,8,64.05,8.9,64.16,11a3.7,3.7,0,0,0,2.67,3.26c.08.3-.17.36-.34.47s-.37.19-.32.43a.54.54,0,0,0,.54.42,12.14,12.14,0,0,1,2,.47,8.3,8.3,0,0,1,3.73,2l.22.19c.2.19.63,0,.69.29.19,1,1.23,1.65,1.21,2.75a.47.47,0,0,1-.18.23c-.45.25-.54.53-.09.87a.59.59,0,0,1,.17.24,1.13,1.13,0,0,1-.31,1.11c-2.27,2.7-5.44,3.49-8.67,4.13-2.29.45-4.63.56-6.9,1.14a2.12,2.12,0,0,1-.44,0c-.23,0-.38-.05-.12.25s0,.46-.32.5a1.62,1.62,0,0,1-.7-.18l-.55-.19c.07.16.25.2.33.36s0,.22-.12.29a1.23,1.23,0,0,1-.42.1c-.22,0-.46-.06-.68.08a2.23,2.23,0,0,0,.73.05c.14,0,.35,0,.38.14.13.59.58.46,1,.48a33.79,33.79,0,0,0,6.5-.65c1.78-.25,3.55-.6,5.33-.86,1.52-.22,2.92-.88,4.42-1.23a2.26,2.26,0,0,1,1.21,0,13.67,13.67,0,0,0,1.92.42,9.62,9.62,0,0,1,5.33,2.66c.25.24.57.48.44.92-2.53,1-5.14,1.63-7.73,2.36-2,.55-4,.76-6,1.35a24.18,24.18,0,0,1-5.26.77c-3.58.22-7.17.25-10.74.59-1.13.11-2.55-.17-3.42,1a5.1,5.1,0,0,1-3.12.36,35.66,35.66,0,0,0-3.86-.14c-1.46,0-3-.3-4.37.12-1,.3-1.65-.28-2.45-.22-1.39.1-2.77-.06-4.15,0a24.56,24.56,0,0,1-4.37-.11,2.2,2.2,0,0,0-1.49.16.33.33,0,0,1-.41,0c-.58-.52-1.29-.36-1.95-.38A1.91,1.91,0,0,1,22,37.68c-.06-.07-.15-.16-.24-.1s0,.18,0,.27C21.76,38.23,21.89,38.63,21.49,38.92Z"/><path class="cls-3" d="M37.87,30.49c.26,1.78-1.11,2.47-2.23,3.33-.93.42-1.87.81-2.83,1.14-.68.23-1.19-.09-1.54-.86-.48-1.06-.75-2.21-1.19-3.28-1.14-2.76-2.14-5.57-3.46-8.26q-2.27-4.61-4.11-9.4a56.81,56.81,0,0,1-2-6,2.9,2.9,0,0,1,.27-2.65.75.75,0,0,0,0-.89c2-2.19,6.45-2.27,7.33-.06a78.79,78.79,0,0,1,3,8.16A108.05,108.05,0,0,0,35,22.93c1,2.43,1.79,4.9,2.68,7.35C37.71,30.36,37.81,30.42,37.87,30.49Z"/><path class="cls-4" d="M74.45,21.38a4.39,4.39,0,0,0-1.35-2.66c-1.32-.75-2.35-2.07-4-2.32-.83-.13-1.64-.36-2.46-.55-.37-.08-.74-.21-.82-.62-.15-.77.76-.52,1-1,2.13.61,4.26,1.24,6.39,1.84,3.25.91,6.25,3.4,6.32,7.38,0,2.29.73,2.59,3,3.16a6.13,6.13,0,0,1,4.13,3.16c.19.36.19.67-.27.87-1.21.49-2.42,1-3.62,1.53-1.62-2.28-4.08-2.88-6.61-3.58s-4.33.69-6.48,1C66,30.2,62.26,31,58.5,31.25a11,11,0,0,1-1.81-.08c-.17,0-1.81-.06-1.81-1,0-.56.91-.83.88-.88a13,13,0,0,0,1.4-.27,4.39,4.39,0,0,1,.52-.13C61.3,28.26,65,28,68.52,27a11.59,11.59,0,0,0,5.71-3.51c.15-.18,0-.56.07-.85.35-.34.81,0,1.18-.18.17-.08.5,0,.45-.34s-.12-.56-.52-.59S74.73,21.71,74.45,21.38Z"/><path class="cls-5" d="M20.86,3.62c.49-.06.64.25.39.55-1.32,1.56-.45,3.13,0,4.63A102.61,102.61,0,0,0,26.9,22.65a97.58,97.58,0,0,1,4.35,10.91c.54,1.61,1.44,1.42,2.55.8a3.27,3.27,0,0,1,1.84-.54c.47.32.15.56-.13.7-1.7.87-3.43,1.56-5.35.62-.58-.28-.9-.45-.75-1.33.12-.67-.59-1.49-.92-2.26-.75-1.72-1.48-3.44-2.22-5.16-.72-1.95-1.36-3.93-2.17-5.84a60.22,60.22,0,0,1-3.09-8A19.34,19.34,0,0,0,19.8,9.72c0-.07,0-.18,0-.25C18.87,7.28,18.66,5.23,20.86,3.62Z"/><path class="cls-6" d="M28.76,94.51c-.11-.89.15-1.05,1-.69a57,57,0,0,0,13.44,4.31c2.95.45,6,.4,8.93.83,1,.16,3.76.16,4.16.24s.7,0,.65.56,0,1-.73,1.19a18.62,18.62,0,0,1-7.83,0,5.23,5.23,0,0,0-1.52-.14,47.33,47.33,0,0,1-16.32-4.91A3.48,3.48,0,0,1,28.76,94.51Z"/><path class="cls-6" d="M28.33,112.43a2.85,2.85,0,0,1,.79.82c.61,1.24,1.95,1.5,3.15,1.82A76.78,76.78,0,0,0,44,116.77c1.47.15,3,.17,4.44.2,2.78.07,5.58,0,8.36.19s5.38-.09,8.07.11c.22,0,.48,0,.51.27,0,.09-.24.22-.38.34-2.77.13-5.54.33-8.32.39-2.44,0-4.9-.15-7.34-.07a69.47,69.47,0,0,1-7.07-.21,83.5,83.5,0,0,1-9.18-1.19,24,24,0,0,1-4.8-1.29,5.25,5.25,0,0,1-1.55-.88c-.44-.41-.64-.67-.08-1.54S27.68,112.28,28.33,112.43Z"/><path class="cls-6" d="M82.17,80.82c-.12,0-.34-.08-.36-.16s.14-.22.3-.29A17.29,17.29,0,0,0,87,77.84a37.12,37.12,0,0,0,6.75-7A21,21,0,0,0,95.89,67c2-4.22,2.06-1.61,2.14-1.34.13.51-1.1,3.25-1.36,3.88A25.65,25.65,0,0,1,91.77,77c-.29.33-.75.56-1,1-.16.08-.19.11-.13.16A9.11,9.11,0,0,1,82.17,80.82Z"/><path class="cls-6" d="M44.71,106.49c1.23,2.2,3.36,3.33,5.55,4.14a20.91,20.91,0,0,0,6.79,1.1c.26,0,.66-.17.74.25a1,1,0,0,1-.42,1.06,6.14,6.14,0,0,1-4.22.71,12.83,12.83,0,0,1-4.74-1.25,8,8,0,0,1-3.9-4.28A2,2,0,0,1,44.71,106.49Z"/><path class="cls-2" d="M53.24,37.68c-.08,0-.15.07-.19,0s-.1-.07-.14-.12.12-.09.18-.09S53.18,37.61,53.24,37.68Z"/><path class="cls-7" d="M55.69,25.66c-.56-.2-1.62,0-1.56-.83s1.21-.94,1.95-1c.48-.06,1.31.1,1.25.83S56.41,25.53,55.69,25.66Z"/><path class="cls-8" d="M50.47,22.76c-.39-.2-1.16.07-1.06-.52A1.64,1.64,0,0,1,51.09,21c.42,0,1-.11,1,.56C52.09,22.59,51.14,22.5,50.47,22.76Z"/><path class="cls-7" d="M43.4,29.13c.38.14,1.2-.13,1.18.54,0,.88-.94.84-1.6.92s-1.28-.25-1.22-.5C41.93,29.42,42.59,29.13,43.4,29.13Z"/><path class="cls-7" d="M74.45,21.38l.55-.1a1.78,1.78,0,0,1,1.23.26c-.18.28,0,.51.12.75a9.88,9.88,0,0,1-1.27.41,2.39,2.39,0,0,1-.78-.1c-.36-.07-.7-.34-.68-.63S74.08,21.45,74.45,21.38Z"/><path class="cls-7" d="M56.22,18.21c-.51,0-1.23.07-1.12-.53.15-.85,1.1-.75,1.76-.85.2,0,.91-.15.74.32S57,18.43,56.22,18.21Z"/><path class="cls-9" d="M71.81,30.44c-.12.09-.17.15-.21.14a1.6,1.6,0,0,1-.31-.1c0-.05.08-.14.11-.14A3.29,3.29,0,0,1,71.81,30.44Z"/><path class="cls-10" d="M80.83,54.53l-.36,4a31.62,31.62,0,0,1-.54,5c-.24.94-.42,1.89-.59,2.84A39.42,39.42,0,0,1,79,70.93c-.52,2.15-.45,4.35-.78,6.52-.39,2.57-.51,5.18-.88,7.75a42.08,42.08,0,0,0-.42,5.37.58.58,0,0,1-.35.41c-1.1.23-1.8,1.15-2.82,1.56A44.46,44.46,0,0,1,65.45,95a37.46,37.46,0,0,1-6.35.45,2.92,2.92,0,0,0-.85.28,1,1,0,0,1-.57,0c-.87-.63-1.84-.16-2.76-.26-2.53-.28-5.09-.23-7.62-.64a37.4,37.4,0,0,0-3.81-.32,31.14,31.14,0,0,1-5.32-1.24A31.51,31.51,0,0,1,31.25,91c-.91-.44-.58-1.29-.68-1.9q-1.07-6.76-1.91-13.56c-.23-1.89-.19-3.82-.33-5.73a18.44,18.44,0,0,0-.44-3.24c-.27-1,0-2.09-.19-3.12a39.78,39.78,0,0,1-.49-8.16c1.07.21,2.11.52,3.17.78a54.59,54.59,0,0,0,7.64,1,47.43,47.43,0,0,0,5.59.25,5.83,5.83,0,0,1,1.19.23c1.11.21,2.23,0,3.34.21a1.57,1.57,0,0,0,1.57-.32.29.29,0,0,1,.4,0c.65.55,1.44.34,2.16.34,1.07,0,2.14-.08,3.2-.16,2-.15,4-.13,5.92-.32,1.39-.14,2.78-.24,4.17-.49a22,22,0,0,1,3-.36c1.49-.06,3-.32,4.41-.5.66-.09,1.26-.49,2-.29a.06.06,0,0,0,.07,0c.59-.65,1.31-.4,2-.35a9.41,9.41,0,0,0,3-.81C80.33,54.41,80.61,54.15,80.83,54.53Z"/><path class="cls-2" d="M80.83,54.53l-2.4.75a2.46,2.46,0,0,1-2.3,0c-.56-.38-.45.56-1,.61-2.35.19-4.69.52-7,.83a42.71,42.71,0,0,1-4.62.63c-1.84,0-3.68.19-5.5.29s-3.56.12-5.33.3c-.84.09-1.84.53-2.64-.38-.19-.22-.23.54-.75.5-1.62-.13-3.25-.06-4.86-.19-4.12-.35-8.24-.66-12.33-1.21a13.93,13.93,0,0,1-4.85-1.37c-.07-1.07.17-2.29-.25-3.2-1.33-2.85-.56-5.88-1.05-8.79-.11-.68-.24-1.48.47-1.79a2.77,2.77,0,0,1,2.19.2c.18.08.18,0,.27,0,.38-.06,1-.55,1,.35,0,0,.12.11.13.11,1.13-.94,2.18-.66,3.43-.11a3.42,3.42,0,0,0,2.14-.21c.76-.34.85.55,1.35.36.88-.35,1.76,0,2.63,0a41.12,41.12,0,0,1,6,.52,20.94,20.94,0,0,0,2.23-.11c2.66,0,5.33.16,8,.11,2,0,4-.45,6.05-.4A54.42,54.42,0,0,0,69.54,42a73,73,0,0,0,8.89-1.62c1-.26,2.12-1.16,3.32-.32a1.23,1.23,0,0,1,.52,1.43,14,14,0,0,0-.63,3.89,36.12,36.12,0,0,1-.27,6.42A5.44,5.44,0,0,1,80.83,54.53Z"/><path class="cls-11" d="M45.77,39.07c-.13.11-.23.24-.27.22a.62.62,0,0,1-.28-.25s.15-.24.19-.23A2,2,0,0,1,45.77,39.07Z"/><path class="cls-12" d="M57.68,95.66c.19,0,.41-.61.57,0C58.05,96,57.85,96.13,57.68,95.66Z"/><path class="cls-13" d="M88,69.7l.42.07c0,.06-.05.15-.1.17-.22.09-.28-.06-.31-.24Z"/><path class="cls-5" d="M24.26,6.54a2.47,2.47,0,0,1-2.6.72c-.21,0-.46,0-.48-.3,0-.13,0-.26,0-.39a2.16,2.16,0,0,1,.57,0c1.3.41,1.65-.52,1.93-1.43.13-.4.27-.73.66-.81s.62.15.81.54C26.53,7.81,27,11,28.19,14a68.43,68.43,0,0,1,2.7,8.74C31.5,25,32.34,27.26,33,29.54c.1.32.52.79,0,1s-.58-.32-.7-.69q-1.94-5.78-3.89-11.55c-1.16-3.39-2.33-6.77-3.55-10.14C24.72,7.63,24.86,6.93,24.26,6.54Z"/><path class="cls-14" d="M68.7,29.18c-.61-.11-1.53.13-1.47-.45.15-1.31,1.41-1.42,2.43-1.44.49,0,1.52,0,1.39.74C70.81,29.35,69.48,28.92,68.7,29.18Z"/><path class="cls-14" d="M74.37,26.49c-.55-.36-1.71.3-1.63-.84.07-1,1.11-.84,1.8-.85.53,0,1.38.09,1.3.8S74.93,26.32,74.37,26.49Z"/><path class="cls-15" d="M77.8,76.91c-.07,0-.13.11-.16.11l-.3-.14c0-.06.11-.18.13-.17A2.23,2.23,0,0,1,77.8,76.91Z"/><path class="cls-16" d="M77,76.24a1.08,1.08,0,0,1,0-.19,2.36,2.36,0,0,1,.12-.28.51.51,0,0,1,0,.2c0,.1,0,.19-.06.29Z"/><path class="cls-17" d="M34.39,44.72c-.18.09-.25.15-.33.15a.73.73,0,0,1-.25-.1c.08-.06.15-.15.24-.17S34.2,44.65,34.39,44.72Z"/><path class="cls-18" d="M78,51.75l-.18.25c0-.06-.15-.12-.15-.18s.08-.15.12-.23Z"/><path class="cls-18" d="M36.71,42.59a1.47,1.47,0,0,1-.31.11.53.53,0,0,1-.2-.05,1.79,1.79,0,0,1,.28-.2S36.58,42.51,36.71,42.59Z"/></g></svg>