<svg width="120px" height="120px" viewBox="0 0 120 120" id="Layer_1" data-name="Layer 1" xmlns="http://www.w3.org/2000/svg"><defs><style>.cls-1{fill:#2d3d59;}.cls-2{fill:#f7b1c3;}.cls-3{fill:#fcc49f;}.cls-4{fill:#f49cb8;}.cls-5{fill:#f9b38f;}.cls-6{fill:#2f3e5a;}.cls-7{fill:#f7b2c3;}.cls-8{fill:#f59eba;}.cls-9{fill:#2d3c59;}.cls-10{fill:#fffcfd;}.cls-11{fill:#fffcf9;}.cls-12{fill:#fff;}.cls-13{fill:#fcc5a2;}</style></defs><title>hs-huzzah-20</title><path class="cls-1" d="M30.641,114.738c-.02089-.0602-.04471-.11955-.12213-.11985a27.267,27.267,0,0,1-4.23415-.54574,30.89179,30.89179,0,0,0-4.30235-.36459c-.22634-.00469-.47724.04645-.65682-.16771a.26133.26133,0,0,0-.233-.08113,23.79025,23.79025,0,0,1-2.671-.27064c-.46442-.01028-.92237-.19619-1.38917-.24083-.85167-.08145-1.584-.5497-2.4131-.696a3.874,3.874,0,0,1-1.72866-.53186c-.298.2208-.58968.06748-.87675-.023-1.1621-.36634-2.35781-.624-3.49625-1.065-.528-.20449-1.04714-.43393-1.561-.67208a33.53748,33.53748,0,0,1-3.3255-1.82436c-.39192-.23872-.72947-.56544-1.10092-.8397-.10995-.08119-.07951-.17893-.09314-.27746-.02044-.14783.12332-.59114-.24555-.13532-.06551.081-.14223-.047-.20492-.095a4.18945,4.18945,0,0,1-1.35193-1.88509,8.33068,8.33068,0,0,1-.33727-1.58235,2.90441,2.90441,0,0,1,.47731-2.354,4.79332,4.79332,0,0,1,1.00047-.96A19.69657,19.69657,0,0,1,5.8602,97.733a10.93387,10.93387,0,0,1,2.34134-.82192c.36811.02786.369.35384.47566.59078.19355.43.17457.99479.75939,1.17519a.17951.17951,0,0,1,.09711.15673,10.06561,10.06561,0,0,0,1.14515,3.58933,1.45715,1.45715,0,0,0,.26826.43259c2.09183,1.94955,4.23917,3.77286,7.08311,4.61668,2.00355.59446,4.02335,1.12343,6.06344,1.52419a25.92068,25.92068,0,0,0,3.702.66646,1.15743,1.15743,0,0,0,.55961-.07863.52307.52307,0,0,1,.59974.064,1.2535,1.2535,0,0,0,.83757.269c2.2019.03919,4.38424.36146,6.58993.41592a31.31282,31.31282,0,0,1,3.36053-.09592c.22121.02929.33279-.05954.40693-.29384.16538-.52259.35-.5662.71031-.14919a.88981.88981,0,0,0,.735.29,41.61422,41.61422,0,0,0,4.40541-.29313c1.6303-.11685,3.23307-.51671,4.87116-.63437a7.42052,7.42052,0,0,0,2.0512-.35477,29.07672,29.07672,0,0,1,3.50478-.63c1.1764-.30561,2.35018-.624,3.51319-.97006a29.2562,29.2562,0,0,0,3.32555-1.13409c.244-.10586.499-.29071.76136-.02547.53853.72947.43124.90789-.29754,1.44223a13.3481,13.3481,0,0,1-2.04451,1.03932,30.75677,30.75677,0,0,1-4.06034,1.71967,12.208,12.208,0,0,1-3.06129.79922c-.27481.33287-.69118.25442-1.04433.36035-.90562.27164-1.86448.3309-2.75841.60788-1.20834.3744-2.44361.63358-3.66585.93594a5.799,5.799,0,0,1-1.695.2984,9.45033,9.45033,0,0,0-1.75278.37008c-.71554.11277-1.43739.24284-2.15075.39959-.9125.20049-1.84506.31114-2.77025.45216a28.54789,28.54789,0,0,1-3.61393.14656c-.12669.00316-.30913-.09976-.36932.124Z"/><path class="cls-2" d="M26.91916,68.09174a7.82507,7.82507,0,0,0,.83167-.02429c.53373-.06984.68346-.34984.47058-.84412-.1102-.25585-.1486-.56978-.51644-.62881-.08711-.014-.03581-.106-.01862-.19083a1.07,1.07,0,0,0-.19331-.92054,4.72568,4.72568,0,0,1-.58358-1.45324,17.494,17.494,0,0,1-.4539-3.54756.65181.65181,0,0,1,.22812-.5652,6.50941,6.50941,0,0,1,2.24224-1.61246c.48178-.17588.94906-.43751,1.43275-.63779a11.4876,11.4876,0,0,0,1.13207-.36305,7.31751,7.31751,0,0,1,2.22429-.37051,12.98138,12.98138,0,0,0,2.148-.46526c.38668-.14855.78207-.304,1.16882-.46657.32315-.13587.64834.05481.97569.06914.1432.00627.26074.08287.40043-.03925.197-.17223.35875-.136.60969.00829a2.24694,2.24694,0,0,0,.94132.10842,12.44271,12.44271,0,0,1,3.17139.37116c.19624.06252.43126-.003.63312.04934a21.14552,21.14552,0,0,1,2.3188.56852,4.12676,4.12676,0,0,0,.69165.08419,11.6118,11.6118,0,0,1,2.83436,1.107.19494.19494,0,0,0,.05971.02237,7.67428,7.67428,0,0,1,2.51254,1.2382A8.41684,8.41684,0,0,1,54.05544,60.75a9.3348,9.3348,0,0,0,1.406.8996c.03571.0222.09085.02379.11451.05309A12.62967,12.62967,0,0,0,56.99789,62.91a6.322,6.322,0,0,0,.82141.638,24.32478,24.32478,0,0,1,2.05587,1.9159c.77321.64155,1.50223,1.33635,2.25081,2.0076.01575.01413.04277.02053.05125.03726.33861.66829,1.0309.9796,1.51456,1.5014.43438.46865.99041.80318,1.43261,1.25692a9.67063,9.67063,0,0,1,1.42337,1.417,1.28112,1.28112,0,0,0,.16119.1938c.15845.16461.55469.05349.53715.13039-.06954.30494.129.42173.28175.58088.1448.15087.25481.32752.40674.4766.44263.43429.82822.93072,1.294,1.33633.601.52328,1.22333,1.04124,1.76271,1.60945.36392.38337.8351.45608,1.18786.76926a.9278.9278,0,0,0,.13439.142l-.00619-.00743a17.44867,17.44867,0,0,1,1.9725,2.32935c.77415.86549,1.45687,1.81072,2.26077,2.65108a2.63727,2.63727,0,0,1,.88025,1.652c.01549.24016.10258.53173-.28388.58529a6.90526,6.90526,0,0,0-4.2844.61336q-2.46752,1.04377-4.98641,1.97631c-2.07891.7702-4.19533,1.42858-6.32051,2.04888a42.94845,42.94845,0,0,1-4.47486,1.05763c-2.4309.43473-4.86871.84524-7.26213,1.48441-1.60438.42846-3.26379.627-4.88961.96-2.36662.48481-4.75662.76582-7.14546,1.075-.34418.04453-.45993.17565-.30367.4995-.127.37813-.47871.327-.75047.3451-1.23047.08186-2.45263.18532-3.69838.15589C31.664,94.317,30.29263,94.4003,28.9348,94.3c-1.4236-.1052-2.84879-.10667-4.27137-.18543a33.1889,33.1889,0,0,1-6.80222-1.04329,17.028,17.028,0,0,1-3.70931-1.35848,1.96916,1.96916,0,0,0-.48688-.1549,10.60533,10.60533,0,0,1-5.43109-3.06473A31.29932,31.29932,0,0,1,6.38687,85.9c-.141-.18393.01965-.48191-.21659-.64156a13.668,13.668,0,0,1,.95969-3.041,1.25774,1.25774,0,0,1,.403-.44368c.16885-.13409.3487-.18772.08636-.453-.20321-.20546.0048-.50376.16153-.68554.43016-.49891.66062-1.12377,1.06464-1.63094.3276-.41126.60275-.95,1.29694-.8074.16343.03358.35017.02366.36612-.23069.01921-.30619-.19173-.27116-.38324-.27209-.04253-.0002-.085-.0041-.12756-.0063l.00476.00467a2.12061,2.12061,0,0,1,.67027-.6614,3.03177,3.03177,0,0,0,.75726-.576.34751.34751,0,0,1,.44827-.14238c.05445.025.13767.05722.15159-.02935.11109-.6913.78437-.77292,1.21994-1.09006.53878-.39228,1.15934-.67088,1.73688-1.01163a25.82507,25.82507,0,0,1,3.75891-1.82476c.36714-.143.71158-.33686,1.06916-.49864a17.12063,17.12063,0,0,1,3.00239-.99564,4.59579,4.59579,0,0,0,1.13408-.35514.52814.52814,0,0,0,.15439-.12868.18735.18735,0,0,1,.0912-.0042,1.75128,1.75128,0,0,1,.73136-.36236,3.96333,3.96333,0,0,0,1.14565-.53617A1.6673,1.6673,0,0,0,26.91916,68.09174Z"/><path class="cls-3" d="M69.23448,70.63907c-.5293-.50963-1.07035-1.00772-1.58524-1.53152-.85048-.8652-1.62907-1.7977-2.54288-2.60623-.25319-.224-.47782-.519-.72279-.77554-.1946-.20378-.37731-.41012-.70371-.35035a.17218.17218,0,0,1-.2-.11208c-.307-.65375-.31349-.647-.77832-.97433a2.24827,2.24827,0,0,1-.36792-.35555,10.29623,10.29623,0,0,0-1.80088-1.49164c-.12039-.08558-.24165-.171-.36908-.24526-.1003-.05842-.33348-.05447-.31928-.06762.22965-.21269-.05179-.20846-.11286-.28736-.07631-.09861-.1434-.23608-.24567-.27519a1.714,1.714,0,0,1-.38243-.21076,16.32285,16.32285,0,0,0-1.531-1.01126c-.30722-.16748-.49148-.46491-.8075-.60945-.49912-.22829-.48855-.23431-.1413-.67468.58882-.74669,1.18243-1.49021,1.74873-2.25381a7.58937,7.58937,0,0,1,1.13368-1.10769c.46769-.41469.74623-1.05,1.40844-1.24132-.01452-.27235.09972-.40842.38542-.36782.01471.00209.05012-.02886.048-.03668-.19518-.70364.52889-.82259.81973-1.18755a5.0232,5.0232,0,0,1,1.1187-1.03282,2.82168,2.82168,0,0,0,.74871-.68761c.22246-.31339.67921-.33776.78994-.82413.08283-.36383.57605-.52723.86207-.80725a15.9464,15.9464,0,0,1,2.193-1.5154c.259-.18056.54291-.331.7892-.53472A20.95209,20.95209,0,0,1,71.384,45.75891a10.49436,10.49436,0,0,0,2.20906-1.3092.48366.48366,0,0,1,.36247-.09361.48056.48056,0,0,0,.345-.1362,12.69556,12.69556,0,0,1,2.82256-1.656,5.68975,5.68975,0,0,0,.91719-.55688,1.68984,1.68984,0,0,1,.97243-.42859,4.64879,4.64879,0,0,0,2.28562-.83129,4.74453,4.74453,0,0,1,1.8535-.59291,10.327,10.327,0,0,0,2.2185-.479.89932.89932,0,0,1,.62273-.00876,2.33094,2.33094,0,0,0,1.26272.048,8.12137,8.12137,0,0,1,2.80029.00319,9.996,9.996,0,0,0,1.57633.1527,11.82829,11.82829,0,0,1,2.55883.269,6.67128,6.67128,0,0,1,1.587.58782A22.91458,22.91458,0,0,1,98.298,41.84556a6.66,6.66,0,0,1,2.64727,2.55963,11.21509,11.21509,0,0,0,1.0823,1.64179,1.6796,1.6796,0,0,1,.30125.81694,22.80586,22.80586,0,0,1,.24092,2.64986c0,.02136-.00062.04273.00005.06406.02632.832.1971,1.00117,1.03182,1.057.57719.03864,1.15256.10957,1.73012.13526.32638.01452.565.23157.89284.28072a21.16782,21.16782,0,0,1,3.0766.65874,9.69162,9.69162,0,0,1,1.31329.5567c.45778.22065.96461.33929,1.38934.58343a18.21025,18.21025,0,0,1,1.93981,1.00646c.4555.339,1.00771.527,1.46119.889a14.4724,14.4724,0,0,1,2.84353,2.69175,4.12416,4.12416,0,0,1,.48025.88888c.005.14986.122.28484.08829.43281-.35632,1.56242.00965,3.18471-.4136,4.74663a3.81148,3.81148,0,0,1-1.02881,1.78829c-.92649-.23671-1.4885.38421-1.97039.96395a9.48338,9.48338,0,0,1-3.78426,2.41367,22.58044,22.58044,0,0,1-5.14821,1.49282,60.8442,60.8442,0,0,1-10.0085,1.20537c-1.85055.01583-3.69353-.01976-5.54219-.1382a14.37384,14.37384,0,0,0-4.6281.39865.875.875,0,0,0-.73478.7642.447.447,0,0,1-.45328.17847,28.84494,28.84494,0,0,1-3.04317-.33606,11.38725,11.38725,0,0,0-2.01758-.0462,30.83149,30.83149,0,0,1-3.56293-.29416c-2.27312-.43256-4.596-.52369-6.84939-1.06371A.85934.85934,0,0,1,69.23448,70.63907Z"/><path class="cls-4" d="M6.17028,85.25844c.16075.00889.42816-.03565.34182.21934a.3932.3932,0,0,0,.21.54917.62912.62912,0,0,1,.28878.32926,3.6736,3.6736,0,0,0,.76769,1.281,7.44215,7.44215,0,0,0,2.39234,2.27462,7.785,7.785,0,0,0,2.78027,1.25285,8.80564,8.80564,0,0,1,2.2165.84984,8.017,8.017,0,0,0,2.61286.82134,8.3115,8.3115,0,0,1,1.36912.41035c.72238.18957,1.466.25446,2.19243.39171a20.96005,20.96005,0,0,0,2.35388.2983c.67934.04932,1.38084.021,2.06868.0481a15.60069,15.60069,0,0,1,2.86671.16516c.36678.08231.81077-.04441,1.22.02269a15.6074,15.6074,0,0,0,1.99066.04743,1.42047,1.42047,0,0,0,.75354-.07.67645.67645,0,0,1,.501-.04025,7.91612,7.91612,0,0,0,3.02669-.03857,2.71118,2.71118,0,0,0,1.31329-.20118c.47279-.25606.96812-.05835,1.44392-.03868a34.698,34.698,0,0,0,4.65765-.21129,77.44382,77.44382,0,0,0,9.20849-1.54471c1.54031-.33388,3.0613-.78249,4.62253-.99426a67.37765,67.37765,0,0,0,8.27862-1.93886c2.16607-.57779,4.30954-1.228,6.40142-2.00816,1.53437-.57228,3.0707-1.15743,4.58691-1.78537a1.15019,1.15019,0,0,1,.6698-.177c.30449.13148.21547.37867.15954.59831a4.30147,4.30147,0,0,0-.11625,1.00762c-.20486,1.25869-.51265,2.49768-.72579,3.75532-.07645.45111.0584.95355-.3062,1.33936a7.03608,7.03608,0,0,0-.14944,1.66845c-.02339.70336-.33815,1.35216-.32321,2.06147.02289,1.08738-.47867,2.09436-.48666,3.19246A10.23446,10.23446,0,0,1,74.975,100.772c-.02822.13331-.14507.19158-.25277.26734a12.39175,12.39175,0,0,1-3.165,1.83626c-.54451.18026-.98743.56628-1.525.78018a4.61313,4.61313,0,0,0-1.23681.456.13986.13986,0,0,1-.16648.034c-.09215-.0503.0355-.30972-.18952-.21043-.10083.04448-.08345.18488-.11276.28562a.4811.4811,0,0,1-.37515.31688c-.94071.22326-1.741.80321-2.696,1.01686a7.63052,7.63052,0,0,0-1.22758.48793.6736.6736,0,0,0-.60426.1279,9.64674,9.64674,0,0,1-2.175.81151c-1.52248.41344-3.007.95325-4.55128,1.30236-.59214.13386-1.25157.01114-1.78489.40011-.37558-.22754-.82523.31465-1.18131-.11358-.07745-.09313-.12151.00391-.106.03894.20392.46132-.18986.3-.36263.341-.361.08557-.72238.29393-1.098.02941a.17671.17671,0,0,0-.17.01721c-.23736.37172-.66325.27219-.9825.329a14.53385,14.53385,0,0,0-1.75785.17977c-.22334.06709-.50738-.08837-.69245.17636-.02017.02885-.08411.02334-.115.04909-.21407.17879-.43458-.36123-.65728.0166-.17288.2933-.47756-.00536-.70527.11921a.22106.22106,0,0,1-.32262-.10532c-.03155-.06278-.11579-.10222-.13948-.046-.25611.60739-.8049.28062-1.17911.30325-.84339.051-1.67788.16966-2.518.22935-.64746.046-1.30078.00725-1.95146.01156-.18384.00121-.29328-.03975-.21591-.25408a.23006.23006,0,0,0-.10778-.32281c-.09445-.04708-.19394-.10721-.29779-.04027-.08357.05387-.06351.148-.05333.232.06955.57377.04933.58415-.54786.52272a4.95042,4.95042,0,0,0-.6358.02856c-.19039.0054-.40511.1956-.56112-.08825-.06829-.12425-.14052.01257-.20372.03992a2.50329,2.50329,0,0,1-1.40767.16645c-.70024-.09964-1.42314-.02727-2.13335-.07388-.53813-.03532-1.08386-.02158-1.61-.07994-.57577-.06385-1.14839-.10309-1.72526-.12547-.18935-.00734-.45708.11288-.47379-.24612-.00394-.08468-.042-.07513-.09442-.01623-.30729.34555-.682.03215-1.02141.09419-.1138.0208-.27755-.108-.3603-.06257-.34622.19018-.50463-.00215-.66778-.2574-.1187-.18567-.22654-.261-.44-.04077-.19626.20241-.47669.42309-.74521.00438-.08487-.13236-.24058.10036-.40523.04654a14.11786,14.11786,0,0,1-1.77044-.4122,1.42619,1.42619,0,0,0-.72585-.06309,7.87071,7.87071,0,0,1-1.89947-.39018,7.481,7.481,0,0,1-2.03407-.54829c-.20327-.10191-.39794.16069-.54637.03308-.38906-.33453-.89373-.21735-1.32038-.39074-.44277-.17992-.89962-.32786-1.34774-.48806a8.61211,8.61211,0,0,1-1.954-.8753c-.20592-.13871-.43587-.11-.647-.22427a11.85847,11.85847,0,0,1-1.96972-1.42464,8.83649,8.83649,0,0,1-1.304-1.34176c-.06327-.08145-.165-.194-.24532-.19116-.45564.01628-.647-.38622-.79988-.6396a5.64568,5.64568,0,0,1-.954-2.35106,3.43115,3.43115,0,0,0-.57107-1.20582c-.10834-.2133-.17011-.28236.11035-.30553.08045-.00665.19158-.019.16582-.13718a.16957.16957,0,0,0-.2551-.1038c-.2585.153-.26054.02624-.35971-.1932a7.52606,7.52606,0,0,0-.63632-1.62332c.10924-.31928-.21271-.66361.09253-.99334.12372-.13364-.22482-.01771-.24169-.2454-.06544-.88323-.48957-1.70387-.48957-2.6043,0-.08487.02141-.19532-.02212-.25054A2.56492,2.56492,0,0,1,7.118,91.38329c-.07575-.83413-.49285-1.56514-.63536-2.37793-.13714-.78221-.38355-1.54608-.50523-2.32991A4.21717,4.21717,0,0,1,6.17028,85.25844Z"/><path class="cls-5" d="M77.20013,86.782a2.22016,2.22016,0,0,1,.1331-1.18587c.07755-.1799.11953-.31741-.08747-.42228.34248-.58674.34248-.58674-.06024-1.04788.3031-.46236.04682-.92358-.11959-1.3062a3.28061,3.28061,0,0,0-.7451-.9366,5.96061,5.96061,0,0,1-1.14339-1.3664,1.14665,1.14665,0,0,0-.61069-.61951c-.11909-.03937-.269-.08154-.29586-.218-.10728-.5441-.6006-.81546-.86313-1.25052-.32243-.53435-.81294-.95067-1.10034-1.51348a.555.555,0,0,0,.503-.68221,3.94486,3.94486,0,0,0-.65246-1.81259c-.63736-.899-1.37716-1.72515-2.03367-2.61428a9.00236,9.00236,0,0,0-.70686-.78489c-.1037-.11043-.21034-.21228-.183-.38225a3.31763,3.31763,0,0,1,1.24362.21392,1.79747,1.79747,0,0,0,.50236.0434c.16856.01232.34918-.04466.504.04331a3.79128,3.79128,0,0,0,1.77575.24119c.17506.01.31416.0983.48623.11121.35879.02693.72366.31243,1.05826-.07022.04334-.04957.11208-.02258.16437.025a2.33888,2.33888,0,0,0,1.79021.45078,2.294,2.294,0,0,1,.616.11,13.37276,13.37276,0,0,0,2.14417.16816c.55226.0514,1.11216.06548,1.66279.15625.13311.02194.18016-.04408.25991-.118a.49437.49437,0,0,1,.59418-.05842c.38622.38049.8863.22856,1.3159.32013.60983.13,1.26709-.01882,1.89195.15539a.222.222,0,0,0,.26873-.11936.752.752,0,0,1,.61274.10679,7.96921,7.96921,0,0,0,3.26032.51524c2.02255.08225,4.04339.16488,6.0634.31475a18.81842,18.81842,0,0,0,4.02685-.05543c.7886-.11141,1.57208.05792,2.36419-.03232,1.29412-.14744,2.56858-.40975,3.85729-.58724a36.09584,36.09584,0,0,0,3.96023-.70618,12.07933,12.07933,0,0,0,6.87569-4.00393,3.08691,3.08691,0,0,0,.76961-2.59328c.26732-.32558.41029-.72814.68831-1.05536.18163-.21376.15348-.559.2362-.8332a8.14993,8.14993,0,0,0,.23343-2.5052,5.10242,5.10242,0,0,1,.201-1.99676c.08213-.20473-.243-.41644.0664-.55381a3.44107,3.44107,0,0,1,.87556,1.96222c.06353.49008.09293.98451.14418,1.4763a7.052,7.052,0,0,1-.23449,2.44371c-.34392,1.36319-.37882,2.76464-.66611,4.12987-.08668.41191-.17159.83389-.29066,1.227-.2878.95017-.33273,1.95275-.68313,2.885a5.85241,5.85241,0,0,0-.154,1.18882c-.1371.88032-.44821,1.71545-.57988,2.58984-.06616.43936-.3329.8387-.24937,1.30406-.61057.874-.31187,1.974-.73251,2.90554a4.31045,4.31045,0,0,1-1.58193,2.12947c-.52387.30269-.88507.82689-1.50774.98737-.585.15076-1.12224.46249-1.72391.57956a.86765.86765,0,0,0-.2243.11986,10.08552,10.08552,0,0,1-2.27327.991,33.86133,33.86133,0,0,1-6.11854,1.56706,2.32642,2.32642,0,0,0-.59524.22676,7.3132,7.3132,0,0,1-2.06.35021c-1.13037.191-2.27807.30408-3.42007.38578-1.25842.09-2.52177.145-3.78293.21532-.9637.05371-1.91862-.19443-2.86909-.14315-2.13258.11507-4.23388-.30524-6.3587-.27455a21.78386,21.78386,0,0,1-4.68647-.4417c-.49632-.10145-1.09865.14516-1.46248-.4205C77.41105,86.79761,77.33377,86.90577,77.20013,86.782Z"/><path class="cls-6" d="M77.20013,86.782a1.46467,1.46467,0,0,1,.53129.0561c.11921.04439.25972.12868.36412.09952.56246-.15709,1.0914.29027,1.6552.07216.13076-.05058.14744.15175.27764.1918a7.19845,7.19845,0,0,0,1.1148.08743,14.99166,14.99166,0,0,0,2.2407.14044c1.12.00042,2.23336.073,3.34722.13137.84449.04425,1.68519.17485,2.53286.206.06145.00226.16657.03417.17748.01342.20024-.38058.46464-.03689.69317-.05909a2.52561,2.52561,0,0,1,.82824.02469,7.528,7.528,0,0,0,2.3261.05705c.68583-.047,1.37131-.01158,2.05424-.07222.26019-.02311.554.08.62-.3378.0206-.13041.29373-.08254.27065.01215-.0794.32565.09622.29431.2915.26529a8.06214,8.06214,0,0,1,1.66955-.17329,9.77681,9.77681,0,0,0,1.35468-.19875c.38087-.03852.8311.07932,1.12337-.3178.0558-.07583.105.00954.1415.04783.293.30762.57555.1459.86326-.0111.29538-.16117.6897-.12917.89852-.46009.32617.27219.65586.06653.95146-.03681.74506-.26044,1.53253-.28687,2.28772-.47389.55145-.13655,1.09435-.313,1.63192-.49815a8.00214,8.00214,0,0,1,1.01339-.343c.76256-.1551,1.41-.63652,2.16973-.81356.165-.03844.32664-.09112.48983-.13723a.53847.53847,0,0,1-.16685.57938,9.8611,9.8611,0,0,1-2.00713,1.78469.98211.98211,0,0,1-.33451.16178c-.15913.03419-.61427-.31022-.29984.264.04346.07936-.041.10441-.09541.12908a.633.633,0,0,1-.12066.03517,5.38241,5.38241,0,0,0-1.54316.77687,14.777,14.777,0,0,1-3.88325,1.50783,24.37192,24.37192,0,0,0-2.41859.71477,8.87027,8.87027,0,0,1-2.68061.54947c-.25032.01369-.42195.32277-.70074.15522a7.3169,7.3169,0,0,1-1.9528.39089,15.37552,15.37552,0,0,1-2.03252.35634,10.3353,10.3353,0,0,1-1.1383.22123c-.06836-.0133-.06187-.0366-.036-.0924.07478-.16116.39752-.28936.23722-.45116-.22838-.23055-.36644.10724-.47076.23889a1.40676,1.40676,0,0,1-1.03057.48922c-.63589.08113-1.27866.13668-1.91231.19941a10.62907,10.62907,0,0,1-1.65863-.01609,6.6026,6.6026,0,0,0-1.29961.08236,6.01627,6.01627,0,0,1-2.56944-.01912c-.28685-.08339-.55629.234-.83084-.00018-.52028.27127-1.04106-.04987-1.56446-.001-.33787.03158-.68226-.01387-1.02283-.00086-.15412.00588-.29123.039-.39-.123a.18881.18881,0,0,0-.26563-.09579,2.44111,2.44111,0,0,1-1.63234-.04844c-.32641-.063-.655-.11457-.98261-.17127.05034-.49934.09038-1,.1537-1.49769.07443-.58518.32413-1.153.37419-1.71657C76.90255,88.00986,77.15268,87.41811,77.20013,86.782Z"/><path class="cls-2" d="M85.41917,12.68914c-.30126.16577-.55627-.031-.81589-.2028a1.39787,1.39787,0,0,1-.2-.15847c-.1526-.14748-.532-.02947-.50344-.34271a1.1249,1.1249,0,0,1,.28382-.62308c.22783-.25959.177-.64229.34445-.94656a23.25688,23.25688,0,0,1,1.23936-2.1237c.46534-.66836.96353-1.30119,1.489-1.92074a2.66192,2.66192,0,0,1,1.40721-.9026,3.67551,3.67551,0,0,1,1.665-.0394,1.20121,1.20121,0,0,1,.8346,1.37047,4.91675,4.91675,0,0,1-.06.63207c-.10833.35672-.00252.48524.36422.381a10.59878,10.59878,0,0,1,2.379-.28106c.31877-.0166.643.21083.97437.25573a1.21439,1.21439,0,0,1,.71673.35946.62439.62439,0,0,1,.06722.93329,2.56962,2.56962,0,0,1-1.14654.77645c-1.52116.55906-3.02543,1.16506-4.57939,1.63893-.59782.1823-1.198.4141-1.79328.58429A7.22338,7.22338,0,0,1,85.41917,12.68914Z"/><path class="cls-7" d="M9.52453,32.77828a6.19724,6.19724,0,0,1-.06347-2.73807,10.33313,10.33313,0,0,1,.14231-1.065,1.09728,1.09728,0,0,1,.29589-.473c.31594-.3317.73812-.23762,1.12607-.31454a1.00486,1.00486,0,0,1,1.03855.21939c.2417.24543.59782.29983.82676.636a9.69338,9.69338,0,0,1,.69053,1.235,8.34832,8.34832,0,0,1,.52242,2.24473,14.98714,14.98714,0,0,0,.32168,1.66847c.11336.37652-.06959.80493.26655,1.15823.0886.09313-.06269.49162-.38249.54665-.109.01876-.23713.03809-.255.15213-.02628.1673.14781.08288.22074.1333.28444.19666.28852.40793.00239.59408-.08824.05741-.19509.13948-.28591.13089-.534-.05048-1.05693.1844-1.61216-.05156-.50665-.21531-1.11925-.22259-1.61481-.41378-.70086-.27038-1.44893-.372-2.12576-.68895a7.10563,7.10563,0,0,0-.7989-.38087,1.70226,1.70226,0,0,1-.98747-1.05584c-.02156-.05173-.09826-.07787-.13137-.12782-.40978-.61823-.27224-.98161.45153-1.24824A4.264,4.264,0,0,1,9.52453,32.77828Z"/><path class="cls-2" d="M47.8977,44.74a6.55767,6.55767,0,0,1-2.82249-.39688,4.49587,4.49587,0,0,1-2.411-2.11539.87459.87459,0,0,1,.32221-1.27025,1.80076,1.80076,0,0,1,1.10557-.345c.46884.0291.95771-.12409,1.44711-.10471.15939.00631.22477-.0932.2257-.243.00173-.27749-.00061-.55506.00514-.83246A1.53926,1.53926,0,0,1,47.4132,37.823c.44828-.00107.89707-.01266,1.3447.00464a1.03967,1.03967,0,0,1,.99389,1.03734c.0034.07492-.02513.21272.0988.16783.28693-.10394.2569.10681.30308.261a6.53971,6.53971,0,0,1,.23694,1.23452c.08177.818.07158,1.64423.234,2.45576a3.7945,3.7945,0,0,1,.01547.70267.50141.50141,0,0,1-.44919.53487,3.74473,3.74473,0,0,0-1.12581.41165C48.65787,44.84994,48.22477,44.68939,47.8977,44.74Z"/><path class="cls-7" d="M73.18025,32.73577c-.27333-.26738-.68992-.03372-.94386-.326A2.80635,2.80635,0,0,1,71.42461,31.08a1.52531,1.52531,0,0,1,1.12909-1.55321,4.2589,4.2589,0,0,1,1.92425-.03787c.019.00715.04326-.001.06359.004,1.11357.27456,1.1483.35765.88132,1.48162a7.16518,7.16518,0,0,1-.29109.83213,1.11713,1.11713,0,0,1-1.13187.75386A2.08871,2.08871,0,0,0,73.18025,32.73577Z"/><path class="cls-7" d="M58.38071,18.21019c.30739,0,.47956-.01378.64891.00222,1.19186.1126,1.40732.77221,1.14739,1.68118a3.22818,3.22818,0,0,0-.18648.53683.76584.76584,0,0,1-.52676.58852,4.0662,4.0662,0,0,1-2.73159.092c-.27365-.06966-.55892-.20319-.38052-.64639.07641-.18982-.06059-.48121-.1401-.7129a1.12759,1.12759,0,0,1-.0472-.5022.97781.97781,0,0,1,.74537-.76094A2.37583,2.37583,0,0,1,58.38071,18.21019Z"/><path class="cls-8" d="M26.91916,68.09174a.8402.8402,0,0,1-.26594,1.10934,4.83427,4.83427,0,0,1-2.45633,1.17351c.05292-.19927-.10752-.36415-.08813-.56049.01439-.14572-.06718-.33814.05714-.42854.43-.31272.28952-.75613.32286-1.16958.07046-.87389-.1103-1.73337-.123-2.60262a12.47861,12.47861,0,0,0,.00094-1.82216c-.02221-.13839-.05056-.32779.07248-.42574.13993-.11139.12649-.44737.3657-.34891.13788.05676.08472.30616-.00719.46334-.0878.15017-.00572.27554.03266.42024a11.485,11.485,0,0,0,.84668,2.61625c.23779.43476.25214.98289.67993,1.32519A.83687.83687,0,0,0,26.91916,68.09174Z"/><path class="cls-7" d="M13.9446,66.40971a4.44986,4.44986,0,0,1-1.65835-.459.603.603,0,0,1-.27437-.85443,1.65066,1.65066,0,0,1,1.88419-1.24682c.29859-.00066.5979.01034.89562-.00641a2.16477,2.16477,0,0,1,1.4516.55318c.40674.31167.4074.64774.06334,1.02691A3.41777,3.41777,0,0,1,13.9446,66.40971Z"/><path class="cls-7" d="M101.81039,26.02811c.21656,0,.3654-.00107.51423.00018.87505.00732,1.19941.50915.85672,1.32482a1.61582,1.61582,0,0,1-2.40961.79011,1.16287,1.16287,0,0,1-.51755-1.14447.96578.96578,0,0,1,.55286-.91033A2.77076,2.77076,0,0,1,101.81039,26.02811Z"/><path class="cls-7" d="M32.20438,27.183c-.515.20533-.85972-.30238-1.3071-.48914-.27827-.11617-.029-.50958-.22944-.7572-.07805-.09644.11908-.41075.3416-.547a3.16,3.16,0,0,1,1.149-.28906,2.24423,2.24423,0,0,1,1.49928.26044c.2855.14485.45437.27976.0988.52611-.21259.1473-.01126.12069.05923.14678.30911.11443.34661.23821.08963.49244A1.8622,1.8622,0,0,1,32.20438,27.183Z"/><path class="cls-5" d="M72.31361,76.92272a.16353.16353,0,0,1-.13439-.142Z"/><path class="cls-8" d="M24.10569,70.37879a.16349.16349,0,0,1-.15439.12868A.19717.19717,0,0,1,24.10569,70.37879Z"/><path class="cls-2" d="M9.99779,77.68783l-.06181.06809c.00334-.01413.00211-.03414.011-.04109a.20606.20606,0,0,1,.05553-.02232Z"/><path class="cls-9" d="M77.18552,84.126c.05142.08623.14269.07245.22262.09352.48368.1276.53424.31723.18541.68246a.90708.90708,0,0,1-.34779.2719,7.31239,7.31239,0,0,1-1.99194.87711,10.908,10.908,0,0,0-1.49827.59561c-.52183.18894-1.01028.46776-1.52854.63831-.65115.21429-1.3073.41339-1.94973.65637a8.04891,8.04891,0,0,1-1.30191.44247c-1.02875.19656-1.97132.6711-3.00573.85787a19.60314,19.60314,0,0,0-2.28976.639,22.41776,22.41776,0,0,1-3.76436.89382,3.70607,3.70607,0,0,0-.721.209,3.78817,3.78817,0,0,1-.99432.17649,10.77256,10.77256,0,0,0-2.4592.42658,5.99231,5.99231,0,0,1-1.3519.29388c-.82772.05236-1.56816.41094-2.378.529-.79665.1161-1.59578.3454-2.38928.49757a35.63,35.63,0,0,1-3.78305.58332c-.78269.0645-1.57749.26119-2.363.32359a16.89315,16.89315,0,0,1-2.65892.16489,1.45332,1.45332,0,0,0-.93442.10707.36392.36392,0,0,1-.25174.01031c-.72063-.18465-1.47544-.03191-2.19422-.22654-.2153-.05828-.43353-.13311-.37427-.41615.05618-.2683.28218-.27113.50571-.26795a19.82785,19.82785,0,0,0,2.68335-.34649c.72934-.089,1.45711-.19838,2.18763-.26783.58612-.05573,1.1474-.219,1.7257-.30551a16.15359,16.15359,0,0,1,2.27876-.38493,6.70319,6.70319,0,0,0,1.88352-.3919c.71976-.22492,1.46836-.30379,2.18921-.51646.62108-.18324,1.26494-.28879,1.88735-.46817.69391-.2,1.41495-.21418,2.11745-.36628a30.67059,30.67059,0,0,1,3.63264-.64456A3.54922,3.54922,0,0,0,58.701,89.352a30.96764,30.96764,0,0,0,3.478-.93323c.60017-.22689,1.22034-.3664,1.82176-.56871.892-.30006,1.79588-.5671,2.67405-.90959.91272-.356,1.85979-.6115,2.76144-1.00727.64579-.28346,1.30081-.55025,1.94559-.83887.057-.02551.11-.08614.16486-.08616.83508-.0004,1.44493-.57975,2.17857-.83392a6.17753,6.17753,0,0,1,1.40553-.318A15.0515,15.0515,0,0,1,76.794,83.8469C76.97873,83.84937,77.19766,83.8339,77.18552,84.126Z"/><path class="cls-10" d="M38.96379,77.30829a5.76864,5.76864,0,0,1,.86936.13821A5.05731,5.05731,0,0,1,42.045,77.985a8.64093,8.64093,0,0,1,1.08968.797,1.85224,1.85224,0,0,1,.10183,1.3682,3.86507,3.86507,0,0,1-1.39723,1.67631,8.79927,8.79927,0,0,1-1.5883.72743,15.76693,15.76693,0,0,1-2.82.63322c-.3523.0708-.65371-.14416-1.00213-.129a3.293,3.293,0,0,1-1.13365-.08217,9.06823,9.06823,0,0,1-2.40776-1.15786c-.05206-.03463-.14129-.06655-.14725-.109-.05326-.37959-.3568-.646-.43888-1.01417a2.02427,2.02427,0,0,1,1.23659-2.248,9.23888,9.23888,0,0,1,1.95942-.47654c.83391-.12738,1.64138-.361,2.47156-.49041A3.58577,3.58577,0,0,0,38.96379,77.30829Z"/><path class="cls-10" d="M57.3017,70.3144a2.957,2.957,0,0,1-.533,1.39859A4.41886,4.41886,0,0,1,54.01,73.34294c-.30521.03865-.571.24229-.90574.2581a19.583,19.583,0,0,1-3.26431.08889,9.55855,9.55855,0,0,1-2.57528-.77751,1.84586,1.84586,0,0,1-.80023-2.01912,2.87075,2.87075,0,0,1,1.06277-1.53361,7.53136,7.53136,0,0,1,2.39768-1.39176,6.55583,6.55583,0,0,1,2.46566-.32106,17.36691,17.36691,0,0,1,2.99583.44894A2.31872,2.31872,0,0,1,57.3017,70.3144Z"/><path class="cls-10" d="M32.68814,88.19827a6.70373,6.70373,0,0,1-1.92974-.8994c-.58382-.36846-1.17983-.71784-1.77425-1.06922a1.3583,1.3583,0,0,0-.87626-.07189,9.38265,9.38265,0,0,0-1.67146.31931,4.86739,4.86739,0,0,1-1.61025.26456c-.63357-.03526-1.27211-.03247-1.90618-.08156a.23292.23292,0,0,1-.16278-.07356c-.06245-.09913.03764-.12953.09632-.18818.08772-.08768.44353-.06507.14816-.34877-.085-.08162.09269-.16636.18345-.19208a3.57392,3.57392,0,0,1,.9842-.21181c.40561.00122.81337-.03745,1.21638-.00748a4.72658,4.72658,0,0,0,1.92012-.36082c.23206-.08042.2287-.1357.07338-.26694-.36594-.30924-.73406-.61614-1.10787-.91579-.31275-.25072-.32482-.31246-.07571-.60713a2.50521,2.50521,0,0,1,1.75142-.76555.23222.23222,0,0,1,.1659.078c.46063.512,1.1459.71348,1.62849,1.21428a6.42211,6.42211,0,0,0,1.18622.80529.241.241,0,0,0,.1811.04238c.48142-.191.91522.17,1.429.08439.48566-.08093.97017-.18,1.45229-.28428a11.74313,11.74313,0,0,1,2.54931-.43189,1.71228,1.71228,0,0,1,.3824.01684.30163.30163,0,0,1,.249.25919c.01533.12354-.0626.17964-.15194.25075a3.49849,3.49849,0,0,1-1.928.735,3.2262,3.2262,0,0,0-.92811.18287,2.638,2.638,0,0,1-1.39791.18564,14.30917,14.30917,0,0,0,1.99769,1.30032,1.14752,1.14752,0,0,1,.328.17881c.23964.23328.226.3562-.09965.46736a.398.398,0,0,0-.25566.2241,1.652,1.652,0,0,1-1.92656.4587.31718.31718,0,0,1-.11295-.28495Z"/><path class="cls-10" d="M38.12486,76.43992a3.35345,3.35345,0,0,1,1.16005-.56573,29.72849,29.72849,0,0,1,3.3768-.49359.68777.68777,0,0,0,.30443-.07745c.10258-.065.25463-.08675.22959-.2603-.01874-.12986-.12758-.13482-.22706-.1771a1.133,1.133,0,0,1-.72111-.59575.72532.72532,0,0,0-.43854-.35289,1.36679,1.36679,0,0,1-.54719-.429.52689.52689,0,0,1,.35769-.91531,3.02753,3.02753,0,0,0,.74477-.12673.37766.37766,0,0,1,.35864.08264,13.93729,13.93729,0,0,1,2.41775,1.92506,1.32148,1.32148,0,0,0,1.37825.36778c.7676-.12014,1.52826-.26638,2.28992-.41678a3.87931,3.87931,0,0,1,1.22787.11776.2181.2181,0,0,1,.19062.22417.2294.2294,0,0,1-.14136.19781,4.13347,4.13347,0,0,1-1.907.57682,5.913,5.913,0,0,0-1.12822.13413.29368.29368,0,0,0-.1943.146c-.03573.08162.0418.1722.12133.19026.3337.07578.34161.53084.72271.58113.19888.02624.09049.22678.04075.36809-.064.18167.03852.27147.17029.1337.149-.15578.25338-.15135.35114.00147a1.00036,1.00036,0,0,0,.31782.29334c.36008.24.36217.62811-.03236.76083a1.95821,1.95821,0,0,1-1.87866-.08258c-.654-.43933-1.15731-1.03463-1.76579-1.51869a1.65641,1.65641,0,0,0-1.46855-.33591,3.471,3.471,0,0,1-.75085.087,6.85073,6.85073,0,0,0-1.621.22763c-.6829.1509-1.38855.20074-2.08551.28477-.16061.01936-.16919.00731-.33894-.191C38.50027,76.43956,38.2761,76.64385,38.12486,76.43992Z"/><path class="cls-1" d="M117.30322,65.27021a.78464.78464,0,0,1,.12767,1.16169.77819.77819,0,0,0-.11962.28668,4.744,4.744,0,0,1-1.63575,2.31593,8.91051,8.91051,0,0,1-2.57562,1.773c-.17339.07628-.31017.30909-.56509.15262-.11116-.06824-.1902.05675-.23379.14588a.74439.74439,0,0,1-.55813.37961c-.5918.10011-1.13354.44294-1.68646.50159-.72317.07671-1.37415.38966-2.08493.446-1.29809.103-2.56241.45537-3.86613.517a2.55575,2.55575,0,0,0-.73426.14772,12.72,12.72,0,0,1-2.08565.29187c-.30778.05976-.66577-.09215-.99913-.05278a28.74594,28.74594,0,0,1-4.069.11334,19.10732,19.10732,0,0,1-3.0205-.236,4.02551,4.02551,0,0,0-.63895-.01073,16.53967,16.53967,0,0,1-2.25937-.10674c-.52755-.08306-1.0788.03024-1.62024-.01958a10.76153,10.76153,0,0,1-1.60911-.14492,5.40272,5.40272,0,0,1-1.55622-.62063c-.07507-.49508.01851-.67263.41793-.77092a11.53613,11.53613,0,0,1,2.73308-.41566c.58393-.00225,1.17979-.13735,1.77221-.09444,1.01312.07337,2.02937.09613,3.04034.21818a2.2832,2.2832,0,0,0,1.14676-.07842.5062.5062,0,0,1,.25407-.00921,17.15053,17.15053,0,0,0,3.2371-.04128,46.05683,46.05683,0,0,0,5.68163-.674,7.96852,7.96852,0,0,1,2.5015-.35835c.1714.0262.42867-.16.65777-.20784a18.27206,18.27206,0,0,0,3.45376-.92665c.60476-.25726,1.23416-.46053,1.8349-.7396.47188-.21923.94725-.47833,1.422-.69658a3.97674,3.97674,0,0,0,1.45492-1.18974c.3635-.4747.88137-.785,1.27-1.23272a.3887.3887,0,0,1,.52492-.02757A.88782.88782,0,0,0,117.30322,65.27021Z"/><path class="cls-11" d="M91.28,57.951c-.03486-.17011-.29409-.089-.28635-.17995.01294-.15222.20036-.16869.33423-.1973.82478-.1763,1.65475-.33041,2.47466-.52671A19.96737,19.96737,0,0,1,96.11,56.63981a7.07528,7.07528,0,0,0,1.07989-.35629,2.57445,2.57445,0,0,1,1.85419-.13368,3.31206,3.31206,0,0,1,1.08952.72272c.09217.0975.18014.22425.10005.34316-.28357.421.07551.64092.29173.854a2.14565,2.14565,0,0,1,.75238,1.73631,1.2152,1.2152,0,0,1-1.26449,1.22224,5.776,5.776,0,0,1-2.98919-.70692c-.09328-.047-.20254-.06113-.29991-.10136-.14508-.05994-.20186.00508-.18436.13685.05821.43809-.097.86383-.02389,1.31319a4.13832,4.13832,0,0,1-.36375,1.84972c-.05255.17394-.12112.16676-.27354.11669a3.02667,3.02667,0,0,1-1.17638-.84417c-.24335-.249-.13037-.70057-.04706-1.04489a1.33643,1.33643,0,0,0-.00136-.672,3.847,3.847,0,0,1,.17737-1.749c.03184-.1395.21562-.26857.11067-.40551a.38588.38588,0,0,0-.47823-.04514c-.46437.237-.99557.21094-1.46283.39782a1.35107,1.35107,0,0,1-1.09591-.13484,3.0232,3.0232,0,0,1-1.04285-.92941c-.11143-.12617-.085-.2359.10108-.25614.1057-.01149.2134-.00466.32019-.00608Z"/><path class="cls-11" d="M88.304,50.51914c.17565.11334.28987.05515.38176-.13626.02848-.05935.13668-.09775.21485-.11333a25.439,25.439,0,0,1,3.31121-.5143,2.11861,2.11861,0,0,1,1.67521.93805c.15507.164-.0371.23993-.166.32084a6.6774,6.6774,0,0,1-2.14284.67865,9.034,9.034,0,0,0-2.9651.85027c-.23353.14738-.4277.334-.65136.48716-.19766.13535-.13915.36991.1062.40651a11.41684,11.41684,0,0,0,1.189.0807c.10332.00448.20921-.04829.31236-.04319a26.03882,26.03882,0,0,0,3.97476-.40477c.06339-.00656.15009.01616.18729-.01748.40586-.36708.82808-.20072,1.25079-.05044a3.40376,3.40376,0,0,1,1.33078.95256c.17286.18534.11608.3229-.11533.44148a2.72721,2.72721,0,0,1-.86361.18155,13.94413,13.94413,0,0,1-2.195.29633.92775.92775,0,0,0-.25142.03053,9.4045,9.4045,0,0,1-2.92295.17043,5.85615,5.85615,0,0,1-1.59941-.20914,5.53393,5.53393,0,0,1-2.543-1.545,1.35855,1.35855,0,0,1,.18925-1.78065,6.46886,6.46886,0,0,1,2.02716-1.017A.89132.89132,0,0,1,88.304,50.51914Z"/><path class="cls-11" d="M88.96106,61.26419a4.79565,4.79565,0,0,1,1.77179.68239,9.87216,9.87216,0,0,1,1.87848,1.70421.73144.73144,0,0,1,.2187.48207.57566.57566,0,0,0,.004.25367.71389.71389,0,0,1-.417,1.07041c-.4262.205-.84408.47324-1.35186.16541-.32315-.19591-.39311-.13971-.41438.23668a3.21177,3.21177,0,0,1-.00671.38335,1.02408,1.02408,0,0,1-.72987.92271,5.48308,5.48308,0,0,1-4.61681-.61861A6.79157,6.79157,0,0,1,83.802,65.20089a2.122,2.122,0,0,1,.25289-2.62562,2.149,2.149,0,0,1,1.78131-.21445A5.4993,5.4993,0,0,1,87.545,62.801c.06069.03458.28133.0377.17018-.11283-.36511-.49445.03937-.75522.303-1.01641A1.627,1.627,0,0,1,88.96106,61.26419Z"/><path class="cls-11" d="M77.01714,54.82482c-.203-.30681-.3896-.60924-.59777-.896a1.214,1.214,0,0,1-.26165-.57112c-.01414-.1226-.04981-.27449.07736-.35146.10665-.06456.18483.06257.27779.10179a2.75371,2.75371,0,0,1,1.45855,1.31989c.25377.48386.71525.87034.96379,1.38884.29247.61017.25331.7182-.40575.85323a3.27979,3.27979,0,0,1-2.23891-.10786c-.23943-.12013-.4103-.20578-.394-.48615.01776-.30635-.17064-.45175-.409-.5838a6.141,6.141,0,0,1-1.256-.948,2.03656,2.03656,0,0,1-.62507-2.34366,3.5364,3.5364,0,0,1,1.95728-1.74724,5.94079,5.94079,0,0,1,3.213-.14419,5.70985,5.70985,0,0,1,3.27559,1.7954,2.457,2.457,0,0,1,.48122.87789.93068.93068,0,0,1-.26569.98753,2.42733,2.42733,0,0,1-2.79068.57226,1.23875,1.23875,0,0,1-.53972-.43765c-.10431-.1515-.27433-.30377-.19843-.511.0819-.22359.296-.0844.44884-.11912a6.05131,6.05131,0,0,0,1.16433-.29638,1.02568,1.02568,0,0,0,.51885-.72387A.73875.73875,0,0,0,80.283,51.659a5.77236,5.77236,0,0,0-3.421.06372,2.85275,2.85275,0,0,0-1.79022,1.721,1.05388,1.05388,0,0,0,.17666,1.01813c.03031.05228.08544.137.12029.13284C75.928,54.528,76.40208,55.02552,77.01714,54.82482Z"/><path class="cls-11" d="M86.0808,60.25031a4.77378,4.77378,0,0,1-2.01264-.49379c-.32834-.09079-.72254-.0971-.97114-.41758-.07239-.09333-.1409-.01244-.177.07258-.033.07771-.103.15777-.09641.23145a3.325,3.325,0,0,1-.53341,1.9105c-.01781.03258-.0436.07946-.03268.10622.1223.29948-.05356.51537-.19941.74042-.33011-.18156-.7828.05032-1.06012-.32386-.16027-.21624-.415-.3436-.49088-.64565a1.4448,1.4448,0,0,1,.32895-1.247c.307-.41556.22587-.91958.41382-1.35514.02814-.0652-.09983-.103-.19223-.06667-.13768.05414-.28021.096-.41765.15064a1.48192,1.48192,0,0,1-1.882-.67412.294.294,0,0,1,.12243-.42956,2.75523,2.75523,0,0,1,.6645-.36438c1.17319-.35028,2.31167-.79819,3.4495-1.24619.331-.13033.68037-.19337,1.01292-.337a.94616.94616,0,0,1,.88827.153,7.73516,7.73516,0,0,1,2.05508,2.04745,1.75748,1.75748,0,0,1,.36731,1.35375c-.15078.59854-.31425.802-.92169.834C86.26877,60.25605,86.14062,60.25031,86.0808,60.25031Z"/><polygon class="cls-12" points="61.475 54.266 61.487 54.302 61.455 54.298 61.475 54.266"/><path class="cls-12" d="M92.0343,91.12264l.08485-.08872c.03218.03673.13331.02545.08715.11557a1.124,1.124,0,0,1-.09873.1388C92.07379,91.2501,91.9835,91.25344,92.0343,91.12264Z"/><path class="cls-10" d="M92.04979,9.23471c-.06147.19-.25139.14088-.3774.1779a19.20221,19.20221,0,0,1-1.88561.60967,3.10068,3.10068,0,0,1,2.2659-.78472Z"/><path class="cls-10" d="M92.05268,9.23756l.049-.09158c.08315.08824-.02163.06671-.05185.08873Z"/><path class="cls-7" d="M37.65406,78.44263a5.3484,5.3484,0,0,1,2.28693.62391,1.30279,1.30279,0,0,1,.0845,2.27526,2.84318,2.84318,0,0,1-2.88708.25252c-.25286-.0967-.51686-.17119-.77456-.25988a2.475,2.475,0,0,1-1.31265-1.38671.76.76,0,0,1,.42128-1.12442A13.84939,13.84939,0,0,1,37.65406,78.44263Z"/><path class="cls-7" d="M54.61746,70.68661a2.54537,2.54537,0,0,1-.19745,1.04,1.19879,1.19879,0,0,1-.90492.773,5.224,5.224,0,0,1-3.94076-.62939c-.87433-.47662-.8505-1.09639-.49515-1.898a4.121,4.121,0,0,1,1.1664-1.30069.4148.4148,0,0,1,.423-.0666c.56845.19747,1.17584.06586,1.74879.24022a2.86488,2.86488,0,0,1,2.05014,1.301A1.04148,1.04148,0,0,1,54.61746,70.68661Z"/><path class="cls-2" d="M32.68814,88.19827c-.0018-.07382-.01192-.15123.06648-.19612.00616-.00351.03835.0193.04227.03414a.129.129,0,0,1-.10124.16853Z"/><path class="cls-13" d="M98.14367,59.74106c-.59845-.27567-1.3469-.28653-1.8339-.86217-.14086-.1665-.13525-.27871.13046-.32549.37338-.06573.73407-.20991,1.10834-.26253.48183-.06774.89739-.34557,1.3834-.392.10268-.0098.21641-.09043.27766.02933a2.158,2.158,0,0,1,.32173,1.07,1.02878,1.02878,0,0,1-.8676.69287A1.14644,1.14644,0,0,0,98.14367,59.74106Z"/><path class="cls-3" d="M91.28,57.951c.07492-.00534.15134-.0131.20069.06072.00369.0055-.01824.04029-.03239.04356-.09029.02086-.139-.02757-.165-.10812Z"/><path class="cls-13" d="M86.97439,63.71509a1.47823,1.47823,0,0,1,1.41347.53289.88374.88374,0,0,0,.3747.22974c.211.06247.216.16218.12689.32671a.52122.52122,0,0,0-.0424.18406.922.922,0,0,1-.84225.89488,11.424,11.424,0,0,1-1.77109.15582.752.752,0,0,1-.7788-.52792,2.05568,2.05568,0,0,1-.03364-1.19461.75894.75894,0,0,1,.84732-.60093C86.46062,63.7119,86.65279,63.71509,86.97439,63.71509Z"/><path class="cls-13" d="M90.1208,62.55756a.81523.81523,0,0,1,.90221.82577,1.26287,1.26287,0,0,0,.06555.30643c.18973.47272-.04.8011-.53461.75355-.02012-.00194-.03844-.02242-.05855-.02434a3.62,3.62,0,0,1-.98039-.43614c-.26486-.23146-.477-.45389-.28-.85682A.82585.82585,0,0,1,90.1208,62.55756Z"/><path class="cls-13" d="M85.63249,58.1624a.86892.86892,0,0,1-1.21909.78527,4.063,4.063,0,0,1-1.51052-.57929c-.05382-.04449-.18563-.02716-.13587-.15589a.15227.15227,0,0,1,.08572-.08844c.64393-.13106,1.17114-.54877,1.80427-.71739C85.3485,57.22248,85.64189,57.42647,85.63249,58.1624Z"/></svg>