<svg width="120px" height="120px" viewBox="0 0 120 120" id="Layer_1" data-name="Layer 1" xmlns="http://www.w3.org/2000/svg"><defs><style>.cls-1{fill:#93a1b0;}.cls-2{fill:#5087f6;}.cls-3{fill:#b1c7f9;}.cls-4{fill:#79a1f6;}.cls-5{fill:#fad68f;}.cls-6{fill:#dee6fe;}.cls-7{fill:#2b3c59;}.cls-8{fill:#556575;}.cls-9{fill:#e8983a;}.cls-10{fill:#c8d9fe;}.cls-11{fill:#fdfdfd;}.cls-12{fill:#3e4f66;}.cls-13{fill:#92a0af;}.cls-14{fill:#3f7cf6;}</style></defs><title>hs-huzzah-30</title><path class="cls-1" d="M59.70688,10.84125a6.7427,6.7427,0,0,1,2.515.01292c.23139.00683,2.26315-.03417,2.92629-.04285,1.22387-.016,2.4491-.11714,3.67684-.1049,2.10932.021,4.20906.23658,6.31983.27472,2.26931.041,4.53926.14915,6.80764.079,1.513-.04678,3.02041-.01581,4.53126.01975,1.65988.03907,3.32994-.082,4.97906.05929,1.42454.12208,2.8465.02174,4.272.14442,1.127.097,2.28526.063,3.4297.07245,1.44136.01187,2.88374.11909,4.32314.0832a31.96652,31.96652,0,0,1,3.57.12.88485.88485,0,0,1,.8587.99608,14.90126,14.90126,0,0,1-.19243,3.11673c-.113.45567.2408.90172.09624,1.38138a14.03964,14.03964,0,0,0-.06109,2.6015c-.044.38714.09768.74173.04423,1.15112a10.28344,10.28344,0,0,0-.02876,2.808c.11871.8-.11966,1.5756.06732,2.39936a4.005,4.005,0,0,1-.02076,1.65053,11.3437,11.3437,0,0,0,.058,2.63753,24.862,24.862,0,0,0,.11064,3.69107c.10065,1.01431.29671,2.34245-.72839,3.19579a2.13172,2.13172,0,0,1-1.79286.21536,16.01918,16.01918,0,0,0-2.93235.01446c-.12191-.00152-.24373-.00972-.36559-.01483a.58086.58086,0,0,1-.25337-.58754c.12256-1.343.11215-2.69359.11466-4.03658.00209-1.11852-.04121-2.24228-.004-3.36079.03542-1.06448-.10931-2.12078-.06737-3.18184a18.50744,18.50744,0,0,0-.14546-1.89572.634.634,0,0,0-.59354-.67,4.69207,4.69207,0,0,0-1.34372-.04155,11.25973,11.25973,0,0,1-3.04755.06014,30.65972,30.65972,0,0,0-3.847.05852,8.45956,8.45956,0,0,1-2.43608-.06841.554.554,0,0,0-.18207-.024c-1.07616.13427-2.15766.07916-3.23623.11343-.65368.02077-1.30248-.01517-1.95363-.0059a.93127.93127,0,0,1-.20744-.00063c-1.34319-.14974-2.69165-.1289-4.03979-.15589a40.013,40.013,0,0,1-4.01791-.0206,12.35449,12.35449,0,0,0-2.119.04216c-1.29228.07452-2.57147-.13385-3.86075-.04117-.81326.05847-1.63575.00134-2.4535.0017-2.06774.0009-4.13016-.116-6.1938-.213a.37724.37724,0,0,0-.22575.0788,1.34669,1.34669,0,0,0-.70985,1.41691,21.16119,21.16119,0,0,1,.1498,5.18521,4.31945,4.31945,0,0,0,.03,1.99484.80546.80546,0,0,1-.00081.21691,11.12435,11.12435,0,0,0,.02258,3.38084,3.31707,3.31707,0,0,1,.03906.85173c-.065.34415.063.736-.24992,1.02a1.09341,1.09341,0,0,1-.53423.1257c-1.57586-.05918-3.1531.01155-4.72864-.05569a.70347.70347,0,0,1-.23528-.06521c-.29772-.184-.27414-.494-.25741-.76958.11517-1.89775.015-3.79756.045-5.6962.028-1.77149.03214-3.54869-.04667-5.32582-.06945-1.56616-.25391-3.1274-.234-4.698a4.08512,4.08512,0,0,0-.22152-.89,31.97208,31.97208,0,0,1-.03572-3.35231,4.58614,4.58614,0,0,1,1.19288-2.1584c.90228-1.30582,2.11922-2.35982,3.07562-3.62991C59.43654,10.90142,59.5274,10.76,59.70688,10.84125Z"/><path class="cls-1" d="M72.81364,38.77077a17.79974,17.79974,0,0,1,2.16-.05992c5.559.1406,11.11795.034,16.67645.03145.5188-.00024,1.03644.04152,1.55533.03722,2.07811-.01725,4.15644-.00714,6.2347-.00714q3.44908,0,6.89817.00088a1.43041,1.43041,0,0,1,1.48561,1.12731,14.3529,14.3529,0,0,1,.65258,3.34121c.10316,1.09791.35018,2.166.44959,3.2572a8.84937,8.84937,0,0,0,.34776,2.11072,10.61539,10.61539,0,0,1,.49231,2.22368c.30709,1.25954.60344,2.52183.92447,3.77781.1405.54972.01919,1.10871.209,1.68065a7.97751,7.97751,0,0,1,.35294,2.38135A10.15079,10.15079,0,0,0,111.606,61.153c.14978,1.21469.71891,2.36109.77936,3.612.0311.6437.51549,4.379.22645,5.04205-.13851.31771.04052.65788-.01441,1.00829a28.57524,28.57524,0,0,0-.24476,4.24607,8.9249,8.9249,0,0,0-.04991,1.85992,15.69772,15.69772,0,0,1,.00359,3.93544,1.29538,1.29538,0,0,0-.00446.5788c.18318.53927-.05243,1.09873.016,1.64042.0989.783-.10824,1.545.0267,2.35581a13.45638,13.45638,0,0,1-.03546,3.32227c-.09192,1.06246-.34724,2.10991-.33965,3.18549.00286.40671-.11709.8256-.09486,1.20471a8.53434,8.53434,0,0,0,.02651,2.13921c.11106.35176-.17884.585-.16822.92468.04323,1.38105.01872,2.7644.01057,4.14684-.00413.70049-.21844.81334-.90532.76069-.91887-.07041-1.84583-.04414-2.76931-.04373-1.30986.00059-2.62084-.01484-3.92923.03351-1.10458.04083-2.22021.07731-3.31292.05354-1.43415-.03122-2.87132-.05343-4.30722-.083a10.07227,10.07227,0,0,0-1.10534-.00341,18.859,18.859,0,0,1-3.46786.08363c-1.12425-.0668-2.24755.00919-3.37036-.05728a7.01655,7.01655,0,0,0-2.70784.13014c-.56085.18693-1.15352-.14275-1.7716-.116-1.51516.06563-3.03478-.0955-4.56006.02065-.9299.0708-1.87376-.052-2.81168-.06792a9.10259,9.10259,0,0,1-1.99972-.00658.63988.63988,0,0,1-.31769-.55713c-.16914-1.41112-.341-2.82211-.43687-4.24078a.53028.53028,0,0,1,.13118-.45228.96938.96938,0,0,1,.583-.13858c1.15562.00982,2.31216-.05659,3.46631.03737a2.64774,2.64774,0,0,0,.78506.09237c1.919-.05441,3.84077-.1599,5.75748-.09707,1.73751.057,3.47844.06983,5.21035.04819,2.49488-.03117,4.99026.05048,7.48585-.03787.932-.033,1.88048.04115,2.8155.0392,1.49181-.00312,2.9894-.01054,4.47928-.123.57344-.04328,1.145-.05679,1.718-.0741.668-.02018.9077-.21513.94482-.86676.142-2.49322.49686-4.97552.39223-7.48156a5.27477,5.27477,0,0,1,.09541-1.101,17.4643,17.4643,0,0,0,.10861-3.76972c-.09173-1.95309.18917-3.92081.25345-5.88584q.03623-1.10718.02789-2.213a58.17563,58.17563,0,0,1,.32689-6.93354.688.688,0,0,0-.29232-.74457.4206.4206,0,0,1-.103-.64739.93866.93866,0,0,0,.11259-.86591c-.39431-1.80161-.66341-3.627-1.011-5.43772a4.39377,4.39377,0,0,1-.24256-1.13713,3.85,3.85,0,0,0-.41438-2.67286,2.04936,2.04936,0,0,1-.20331-.70556A53.04593,53.04593,0,0,0,105.428,49.591c-.31453-1.44992-.75961-2.887-1.20031-4.314-.1396-.452-.23222-.9126-.33486-1.37229-.24714-1.10687-.53507-1.33517-1.68065-1.37565-1.00311-.03545-2.0053.02616-3.00848.0227-.98237-.0034-1.96419-.0558-2.94685-.03025-2.55706.06648-5.1153-.0574-7.67309.068-1.01973.05-2.04553.00769-3.06839-.03228a23.58381,23.58381,0,0,0-2.51063.05174,2.53625,2.53625,0,0,1-.85579.00356,2.21573,2.21573,0,0,0-1.66154.19311c-2.1772-.04848-4.35694.02068-6.5322-.11708-.4019-.02545-.813.13152-1.2058-.059a8.21,8.21,0,0,1-.0982-2.186C72.68643,39.88662,72.41277,39.292,72.81364,38.77077Z"/><path class="cls-2" d="M15.29823,106.50529a31.10824,31.10824,0,0,1-4.502-.97811,12.10131,12.10131,0,0,1-4.079-2.282,1.482,1.482,0,0,1-.151-1.88186c.59062-.97192,1.1403-1.97063,1.7692-2.91686a21.19141,21.19141,0,0,1,2.24108-3.04152c.4321-.44864.5439-1.01913.9578-1.45406a5.652,5.652,0,0,0,1.12728-1.57838,4.557,4.557,0,0,1,.70321-.90883c.05117-.06341,1.02956-1.30045,1.20132-1.53415.393-.53472,1.50534-1.92285,1.64854-2.11672.86264-1.16792,1.76563-2.31038,2.54707-3.53057.17183-.2683.47807-.37858.56633-.662.1335-.42869.54524-.62959.75834-1.00406a2.50624,2.50624,0,0,1,.75675-.99956c.33325.09312.24574.38038.25249.59934.02018.65476.02938,1.31127.00272,1.9654A5.45475,5.45475,0,0,0,22.155,87.44553a4.09562,4.09562,0,0,0,2.11,1.40295,6.53966,6.53966,0,0,1,2.82967,1.76233c.248.30571.70729.26687,1.02524.51836a13.07558,13.07558,0,0,1,1.81351,1.91071,17.116,17.116,0,0,1,2.09892,3.27943,5.02287,5.02287,0,0,1,.4212,2.48444c-.01539.567.0563,1.14632.022,1.7284a2.75889,2.75889,0,0,1-.24153,1.06393,2.099,2.099,0,0,1-.81751.63,42.77654,42.77654,0,0,1-6.79877,2.90738,16.22852,16.22852,0,0,0-2.7599.99306,8.23745,8.23745,0,0,1-1.85342.37125A26.11527,26.11527,0,0,1,15.29823,106.50529Z"/><path class="cls-3" d="M60.42684,2.48057a5.49977,5.49977,0,0,1,3.10207.42253c.32863.10172-.76433.87913-1.12959,1.297a84.97778,84.97778,0,0,0-6.53069,7.20165c-.12512.15636-.40571.35123-.17268.51525a.51092.51092,0,0,0,.698-.19766.93179.93179,0,0,1,.71184-.51187c.17908.293-.05467.46191-.21148.63112-.69623.75131-1.33353,1.55465-1.99575,2.33342-.76063.89452-1.481,1.82829-2.2185,2.74527a1.47457,1.47457,0,0,0-.34584.71089c-.11367.81654-.51555,1.56965-.59232,2.37724a8.40857,8.40857,0,0,1-.49787,1.77556c-.548,1.73418-1.09666,3.47151-1.58938,5.22509-.29133,1.03686-.60415,2.07429-.97613,3.09363-.24667.676-.37486,1.41-.582,2.11457-.50779,1.7274-1.07439,3.43677-1.58073,5.16277-.57567,1.96233-1.26218,3.89283-1.733,5.88556a8.12318,8.12318,0,0,0-.40667,1.34706c-.04241.88054-.57417,1.60862-.65052,2.48385a6.668,6.668,0,0,1-.49314,1.223A3.4806,3.4806,0,0,0,42.8849,49.791a1.60627,1.60627,0,0,1-.36479.87847,12.73128,12.73128,0,0,0-.8248,2.719c-.84819,2.58409-1.541,5.21747-2.37735,7.80639a1.07749,1.07749,0,0,0,.05954,1.09535c.25022.34517.12746.48805-.34074.50549a.41447.41447,0,0,1-.10515-.11358.36064.36064,0,0,0,.03875.0629c.15949.11862.32628.23233.20988.47223-.171.28724-.04642.65223-.244.93272a1.25624,1.25624,0,0,0-.62963.98159c-.13694.88163-.55773,1.69145-.67242,2.58092A17.60137,17.60137,0,0,0,36.083,71.69935a.65788.65788,0,0,1-.37342.52924,2.4185,2.4185,0,0,1-1.43373-.08746,2.55839,2.55839,0,0,0-.772-.1608,3.97948,3.97948,0,0,1-1.68895-.4545,1.08152,1.08152,0,0,0-1.04847-.06632c-1.32207-.10212-1.66591-.65614-1.11233-1.84677.21161-.45511.20773-.95473.37851-1.41478a6.76941,6.76941,0,0,1,.70062-1.49026c.92719.07211,1.8466.21959,2.76463.35982.83025.12683,1.66574.18168,2.49737.28148.15975.01917.39278.04164.41944-.14088.03014-.20633-.22359-.19611-.36475-.22524a10.03738,10.03738,0,0,0-1.76157-.22783,2.66887,2.66887,0,0,1-1.30748-.26077,3.3848,3.3848,0,0,1,.43975-1.86373c.29011-.78552.50311-1.59475.79933-2.37722a2.37889,2.37889,0,0,1,.494-.89355c.12176-.08775.34292-.03344.36283-.268a5.3184,5.3184,0,0,1,.69394-2.12074c.45868-.803.3088-1.72284.782-2.48008.65611-1.0499.59646-2.33289,1.07621-3.45664a11.22654,11.22654,0,0,0,.64-1.70548c.13193-.53707.27251-1.0735.44243-1.5995q1.2672-3.92261,2.55372-7.839c.76617-2.333,1.55811-4.65762,2.30864-6.99559.336-1.04657.59852-2.11672.89439-3.17617a32.89351,32.89351,0,0,1,1.04118-3.38837A79.75477,79.75477,0,0,1,48.104,20.7406a.65692.65692,0,0,0,.06312-.17255c.18629-1.57115.66446-3.12709.24456-4.73021a1.8954,1.8954,0,0,0-.42582-.80469,5.894,5.894,0,0,1-.89784-1.73531.92364.92364,0,0,1,.04846-.7752l.26324-.57048c.24463-.07122.375.12047.52926.24063a1.43366,1.43366,0,0,0,1.17937.18093c.38671-.0608.28046-.3259.15017-.55878-.1957-.34976-.53136-.63109-.523-1.07968a1.82553,1.82553,0,0,1,.88222-.64244c.36334.03895.64391.33033,1.018.33494.21186.00262.47607.15221.61684-.07855.14415-.23632-.04569-.45547-.16658-.66407-.12157-.20977-.41939-.35387-.25937-.6727a3.25182,3.25182,0,0,0,.8941-.89954c.21485-.10732.33014.08039.47955.16359a1.44476,1.44476,0,0,0,.91763.2394c.42142-.06051.50712-.24866.27845-.60805-.11734-.18443-.29307-.34106-.239-.593.11831-.41152.60366-.5089.75985-.888.23869-.09593.37156.10308.53675.2a1.18115,1.18115,0,0,0,.558.22484c.27761.00656.63145.13436.80479-.1176.20349-.29576-.16537-.49029-.29-.72666-.09761-.18511-.35006-.3036-.24453-.57506.50987-.04876.71185-.558,1.12447-.75214a1.08491,1.08491,0,0,1,.67421.246,1.32282,1.32282,0,0,0,.51268.19123c.2811.02374.62.12741.811-.11931.221-.28547-.00759-.577-.15932-.8396a.73886.73886,0,0,1-.172-.38342c.06777-.35268.52212-.26393.6394-.56008.389.03659.66019.36521,1.04691.41787a2.588,2.588,0,0,0,.53427.09387c.51366-.03548.63455-.27715.3621-.71859C60.55456,2.84389,60.3541,2.72105,60.42684,2.48057Z"/><path class="cls-4" d="M30.76994,66.71927c.05171.244-.089.41531-.2012.61243-.51532.905-.5107,1.9859-.98352,2.92a.59765.59765,0,0,0,.52182.89621,2.718,2.718,0,0,1,.61945.24858.15487.15487,0,0,1,.128.12405.52525.52525,0,0,1,.00121.18881c-.47689,1.45613-.83358,2.94921-1.37033,4.38923-.30584.82054-.43631,1.6984-.78093,2.51563a.80368.80368,0,0,1-.97729.58981c-.48739-.06582-.96866-.16-1.4539-.23326-.11878-.01793-.28778-.06571-.34227.04791-.06871.14326.11842.18149.20486.25362a.47432.47432,0,0,1,.17771.24185c-.51214,1.41828-.77525,2.91647-1.39816,4.30065-.41442.92091-.25924,1.278.68266,1.63142a15.39382,15.39382,0,0,0,3.14811.79835,5.69214,5.69214,0,0,1,2.06132.68861.99565.99565,0,0,1-1.289.18725,7.559,7.559,0,0,0-1.53477-.41334c-.28485-.07491-.44692.01579-.46561.30565a8.1752,8.1752,0,0,1-.36223,1.74054c-.08842.30623-.00287.49965.35686.562q2.71983.47122,5.42482,1.023c.48669.10028.79621-.02153.9243-.52679a1.08871,1.08871,0,0,1,.30958-.5254c1.03667-.9589,1.456-2.3054,2.17885-3.46032,1.13955-1.82065,1.9628-3.8173,3.164-5.61182a21.29517,21.29517,0,0,0,2.03422-3.98208,35.02781,35.02781,0,0,1,1.95478-3.39649c1.34474-2.50931,2.95553-4.859,4.359-7.33523a32.62915,32.62915,0,0,1,1.98938-3.5152.68774.68774,0,0,0,.122-.21253c.11593-.40818.34886-.84915-.02236-1.2141-.36364-.35749-.74591-.04086-1.071.12323q-2.24713,1.13429-4.4845,2.28828a9.93551,9.93551,0,0,1-4.18122,1.5011,2.43779,2.43779,0,0,1-1.6164-.3188A5.03505,5.03505,0,0,1,38.76438,63.05a3.27456,3.27456,0,0,0,3.01893-.39161,21.77562,21.77562,0,0,0,2.545-1.23332,21.145,21.145,0,0,0,2.17593-1.12841A24.8308,24.8308,0,0,0,49.471,58.84719a2.48145,2.48145,0,0,1,2.7532.144A4.40574,4.40574,0,0,1,51.7671,60.63c-.20758.66038-.55154,1.27428-.8236,1.91007-.36778.85949-.782,1.70291-1.10513,2.577A18.755,18.755,0,0,1,48.633,67.51568a10.68336,10.68336,0,0,0-.82742,1.64273,18.04213,18.04213,0,0,1-1.47024,2.53181,9.35982,9.35982,0,0,1-1.228,2.04716c-.181.199-.13718.3167.12768.4403.26343.12293.24058.414.14509.6523-.10814.26986-.32676.19507-.51745.10174-.35861-.17551-.53687.05274-.69428.305-.48772.78156-.88093,1.61571-1.32753,2.42047a52.45145,52.45145,0,0,1-2.76636,4.55439,15.2006,15.2006,0,0,0-.79231,1.5898,3.6821,3.6821,0,0,0-.68857,2.46408c-.04428,1.81985.15936,3.62932.10845,5.44553-.03668,1.30818.0335,2.6154.05666,3.923a2.44775,2.44775,0,0,1-.77438,1.97067,15.51943,15.51943,0,0,1-3.66065,2.74257c-.47574.23917-.83.66569-1.29309.92984-.2728.15564-.52684.40839-.89206.26112a7.53662,7.53662,0,0,0,.20157-2.26029c-.00538-.154.05951-.7695.02855-.95111a6.97789,6.97789,0,0,0-1.471-3.4967c-.39834-.47588-.7036-1.179-1.1337-1.70688a8.04027,8.04027,0,0,0-1.88914-1.9467,9.09282,9.09282,0,0,1-1.29409-.86034,4.97555,4.97555,0,0,0-1.53229-.96572A8.03612,8.03612,0,0,1,22.46807,88.063a5.18359,5.18359,0,0,1-1.53262-3.46161,18.49111,18.49111,0,0,0-.09221-2.98488,3.24678,3.24678,0,0,1,.40013-.63352,16.33243,16.33243,0,0,0,1.29671-1.97474l-.01015.00817a6.48482,6.48482,0,0,0,1.3188-1.79495A9.752,9.752,0,0,0,25.19161,72.816c.11836-.79442.16275-1.60008.25714-2.38391.08746-.72634.40778-1.473.44776-2.23075.0672-1.27387.3751-2.51261.467-3.77966a.7403.7403,0,0,1,.55157-.75872,52.31,52.31,0,0,1,6.76432-2.00248c.35372-.06833.64679-.34762,1.03454-.30032q-.86607,2.53831-1.7322,5.07746a3.17832,3.17832,0,0,1-1.49162.00546C31.20553,66.433,30.905,66.3515,30.76994,66.71927Z"/><path class="cls-5" d="M74.093,95.87268c.157,1.47163.31025,2.94368.47443,4.41451.029.25989.10364.51468.15738.772a12.24951,12.24951,0,0,0,1.27,5.695,10.15354,10.15354,0,0,0,1.58425,2.48759,8.04121,8.04121,0,0,0,2.94063,1.62439,45.79121,45.79121,0,0,1,4.93916,2.01051c1.05651.51765,2.12083,1.02439,3.15224,1.5879.89771.49045,1.55179,1.16426,1.12086,2.33429a4.98558,4.98558,0,0,0-.1441.71716c-.01113.0539-.05661.21421-.09862.09413-.25546-.73006-.526-.07031-.68661.022a3.39212,3.39212,0,0,1-2.38542.43089c-1.46279-.413-2.8249.13579-4.21274.03279-1.44507-.10724-2.88463-.01551-4.32616-.08461-1.30192-.06242-2.61123.0478-3.91594.0196-1.29714-.028-2.59654-.04256-3.89222-.06006-1.099-.01487-2.2075.03774-3.31178.034-1.16815-.004-2.34512.1089-3.49669.06932-1.46356-.05033-2.93347.08063-4.39448-.10083a8.58358,8.58358,0,0,0-1.08844.02886q-2.10921.012-4.21847.01293-4.02374.00175-8.04748-.0018c-2.10622-.00006-4.21654.08023-6.317-.029a4.7822,4.7822,0,0,1-3.11258-1.31628,1.34028,1.34028,0,0,1-.11444-.12662c.4578-.4529-.10908-.45423-.27029-.647a.35029.35029,0,0,1,.08992-.57328,6.69086,6.69086,0,0,1,3.49227-1.12173c.4807-.02908.94664-.20638,1.43336-.282a42.11938,42.11938,0,0,1,4.57459-.21512c1.97214-.0912,3.9428-.18183,5.9071-.435,1.26926-.16359,2.57167-.05766,3.8466-.1922a28.223,28.223,0,0,0,6.77262-1.075c.05745-.02075.12957-.01667.17576-.05034.34738-.25326.96013-.3205.94044-.84373-.01808-.48016-.58129-.53582-.95138-.71279a11.20172,11.20172,0,0,0-5.27747-.86869c-1.01382.02836-2.02932-.00283-3.04406-.00718.05489-.32033.34648-.28546.55632-.35964a20.66091,20.66091,0,0,0,2.25709-.84344c1.753.05215,3.54075-.163,5.23662.38924a15.31641,15.31641,0,0,1,3.15348,1.12758,3.50688,3.50688,0,0,1,1.144,1.16319c.1846.27714.04846.5542-.11513.80168a3.26235,3.26235,0,0,1-1.59676,1.19921,18.76952,18.76952,0,0,1-4.89688,1.12781c-3.47954.38873-6.98239.49823-10.46715.842a31.8403,31.8403,0,0,1-4.11269.16215,24.36276,24.36276,0,0,0-4.6376.45044,2.43248,2.43248,0,0,0-.81487.26459c-.12386.06963-.2738.1416-.24363.31478a.3595.3595,0,0,0,.30444.27014,3.93448,3.93448,0,0,0,1.163.03884c1.18508-.07315,2.37338.081,3.55615-.04475.83856-.08917,1.67383.03127,2.512-.003,1.42994-.05851,2.8601-.01189,4.29057.03986,1.80215.06518,3.60623.04366,5.408-.0226,2.63831-.097,5.27559.101,7.9108.02684,2.18931-.06161,4.37771.00994,6.56752-.04344,1.46532-.03572,2.941-.03745,4.412-.03045,1.43146.00682,2.8669-.0278,4.29434.02835,1.61761.06361,3.2363-.00151,4.85088.10262a4.5663,4.5663,0,0,0,2.00017-.15545,1.70537,1.70537,0,0,1,.85082-.05758c.09612.0128.233.0544.27712-.04413.05032-.11248-.09774-.15581-.16387-.22542a9.76743,9.76743,0,0,0-2.3472-1.55371,37.32088,37.32088,0,0,0-5.01112-2.17266c-1.21612-.48461-2.41651-.99182-3.59109-1.57963-1.385-.69312-1.95983-1.97-2.64747-3.20094a20.09842,20.09842,0,0,1-.99219-2.8298,3.69022,3.69022,0,0,1-.01984-1.16021,18.76753,18.76753,0,0,1-.134-2.45232c-.31621-1.51683-.20432-3.0893-.60038-4.59557a2.51919,2.51919,0,0,1-.06875-.66862c.08556-.98592-.18811-1.956-.13175-2.93944.09423-1.6444-.14631-3.27721-.15907-4.91836-.011-1.411-.0037-2.82234-.0135-4.23161a23.48427,23.48427,0,0,0-.10613-2.55551,19.78218,19.78218,0,0,1-.0852-2.38557c.01747-3.03448-.1932-6.05842-.34188-9.08623a25.18673,25.18673,0,0,1-.03348-3.489,12.57679,12.57679,0,0,1,.0046-3.23867,14.15661,14.15661,0,0,0-.00868-1.53346c-.09706-1.34722.08967-2.68854.07461-4.03385a.7207.7207,0,0,1,.07632-.29512,10.68329,10.68329,0,0,0,.71509-2.39961c.19621-.64447.47549-1.26263.60892-1.92845.033-.16474.05449-.45081.37918-.33384a2.47826,2.47826,0,0,1,.168,1.60686,27.37515,27.37515,0,0,0,.01827,2.88162,21.90086,21.90086,0,0,1,.02246,2.19988c-.07778,2.06462-.099,4.12891-.094,6.19412a4.45559,4.45559,0,0,1-.10833.78848,33.18326,33.18326,0,0,1,.21778,3.673c.027,1.20153.15269,2.4051.16567,3.60187.019,1.75507.2429,3.49908.15022,5.26472a23.16533,23.16533,0,0,0,.11074,3.17741,23.15141,23.15141,0,0,1,.08714,2.39169c-.02859,1.68047.18322,3.35409.1821,5.02744-.001,1.51165.19836,3.00731.18884,4.51425a4.34123,4.34123,0,0,0,.15828,1.45818A.62773.62773,0,0,1,74.093,95.87268Z"/><path class="cls-6" d="M85.15988,23.63566c.17892-.28125.37863-.02755.56794-.0352,1.15635-.04671,2.31347.01025,3.4715-.06948a5.47038,5.47038,0,0,1,1.62205.01056,6.76494,6.76494,0,0,0,1.92868.059c1.13918-.08125,2.27707-.06046,3.414-.08395a13.65651,13.65651,0,0,0,3.76605-.07709,3.82514,3.82514,0,0,1,1.31881.02967c.52941.04091.7546.33617.77584.87761.04868,1.24112.226,2.48261.19242,3.71965a16.706,16.706,0,0,1-.03167,2.48707,3.47738,3.47738,0,0,0,.03757,1.4593,4.584,4.584,0,0,1-.00853,1.09424c.0006,1.43247-.16257,2.8634-.04414,4.29636a14.977,14.977,0,0,0-3.71628-.02811c-1.3612.1205-2.70343-.13954-4.04559.05968a24.361,24.361,0,0,1-3.12405.00046c-.92878.01843-1.85785.03553-2.78672.03237-1.17693-.004-2.35806-.09951-3.52967-.02842-1.72125.10442-3.46216.10316-5.164.087-1.919-.01821-3.85856.00758-5.7854-.10025-.40807-.02284-.81857-.00223-1.22795-.00163-.27706-.15167-.2128-.39536-.1718-.63276.11389-.28567.38827-.34231.63461-.42326a11.59,11.59,0,0,0,4.18424-2.54086,1.88129,1.88129,0,0,1,.3758-.30989c.393-.15452.83208-.02864,1.22178-.20238a4.66468,4.66468,0,0,0,1.63619-.65129,1.98977,1.98977,0,0,0,.66829-2.29993,6.62749,6.62749,0,0,1-.33225-1.36055,10.66733,10.66733,0,0,1,2.9963-3.47667,7.83511,7.83511,0,0,1,2.27027-1.4,2.89115,2.89115,0,0,0-.8229-.12228C85.25724,23.97266,85,23.96023,85.15988,23.63566Z"/><path class="cls-7" d="M41.80857,62.76545a3.13937,3.13937,0,0,1-1.83568.76893A1.77774,1.77774,0,0,1,38.76438,63.05c.114-.2403.23017-1.4321.35812-1.82676.72489-2.23579,1.39024-4.48879,2.02852-6.751.17707-.62756.37313-1.25771.58859-1.87647.13446-.38613.59724-2.20127.62993-2.2392.54295-.63018.26566-1.52393.77528-2.214a5.181,5.181,0,0,0,.53716-1.837c.051-.21193.78913-2.275.95492-3.08789.32062-1.5721.95224-3.0677,1.36292-4.61514.57492-2.16632,1.35414-4.26625,1.92749-6.43287.58445-2.20856,1.40654-4.35454,1.98185-6.56508.32455-1.247.838-2.43489,1.07581-3.70819.05757-.30834.60033-2.01323.72611-2.47235.34428-1.25668.44785-2.62907,1.62085-3.53137a4.5668,4.5668,0,0,0,.96182-1.143c.80724-1.28068,2.00819-2.2167,2.80607-3.48147.0097-.01536.00432-.04023.006-.06067l-.00108.00126a3.19778,3.19778,0,0,0,.24759-.24722l-.00078.001a.90738.90738,0,0,0,.12531-.12242l-.00135.00135a.81255.81255,0,0,0,.12172-.1261l-.00136.00153c.08411-.061.05306-.18669.13862-.24687,1.22069-1.41873,2.61777-2.66394,3.9271-3.99547.626-.63657,1.26078-1.26661,1.85011-1.93612.31837-.36167.80365-.56529.98541-1.05353.037-.0994.1151-.17227.23481-.10057a.286.286,0,0,1,.12444.32113,5.5543,5.5543,0,0,1-1.7019,3.41106c-1.22148,1.09-2.157,2.472-3.40429,3.54945-.03717.0321-.02985.11572-.04328.17531-1.09411,1.27035-2.21815,2.5166-3.26883,3.82191a8.252,8.252,0,0,0-1.21577,1.944,13.483,13.483,0,0,1-.91708,1.93644,23.8237,23.8237,0,0,0-1.45393,3.97678c-.52787,1.79019-1.3396,3.48344-1.848,5.27306A55.72953,55.72953,0,0,0,49.09693,34.71a9.96873,9.96873,0,0,1-.85713,2.99015A7.43349,7.43349,0,0,0,48.053,38.829a4.14963,4.14963,0,0,1-.39753,1.72114,6.23,6.23,0,0,0-.32588,1.4307c-.37723,1.54678-.7939,3.08425-1.1438,4.63712-.49412,2.193-1.12291,4.35085-1.65419,6.53377-.23941.30319-.12857.68872-.23707,1.02292-.33908,1.11568-.59584,2.25339-.86189,3.38665a13.49785,13.49785,0,0,1-.41084,1.53553c-.30846.8511-.29694,1.77075-.53448,2.64186A1.39046,1.39046,0,0,1,41.80857,62.76545Z"/><path class="cls-5" d="M12.8093,43.02706A14.27747,14.27747,0,0,1,12.35147,41.55c-.12771-.40749-.22548-.82266-.33692-1.23277-.12652-.46556.09126-.63056.43165-.80158.39278-.19733.86357-.21025,1.04977.1364.71011,1.322,1.56987,2.55621,2.26154,3.883.57991,1.11243,1.11829,2.243,1.80652,3.297.19642.30079.24017.21376.44653.00632a6.81478,6.81478,0,0,1,2.55226-1.8157c.59847-.20666.93027-.11044,1.11857.56318.61348,2.19473,1.357,4.34919,1.88109,6.57412.47391,2.01186,1.13214,3.98008,1.69775,5.97078.08885.31272.31033.719-.14941.89882a.82187.82187,0,0,1-1.08348-.40631,60.73533,60.73533,0,0,1-4.482-7.80781c-.084-.19978-.17122-.42281-.444-.08565-.55135.68158-1.16917,1.30887-1.73913,1.976-.586.68592-1.40772.64884-1.70615-.17664-.47718-1.31994-.85279-2.67735-1.25106-4.02491-.50555-1.71053-1.16284-3.37683-1.502-5.1361C12.88076,43.25273,12.841,43.14068,12.8093,43.02706Z"/><path class="cls-5" d="M28.77642,55.68231c.17529-1.24876.3699-2.4952.51984-3.747a19.102,19.102,0,0,1,.56693-3.048c.10633-.36773-.06134-.31616-.29156-.279-.58046.09382-1.17039.14516-1.74064.2805a1.13721,1.13721,0,0,1-1.08027-.21239c-.32553-.29083-.11149-.6521.01327-.96722.80246-2.02688,1.55846-4.075,2.447-6.06375.42764-.9572.82484-1.92729,1.23936-2.8894.18655-.433.46632-.39506.79158-.28754a.61117.61117,0,0,1,.47591.74122q-.50223,2.80827-1.00826,5.61584c-.14672.80846-.02025.94407.80179.78563a4.1,4.1,0,0,1,1.98184.22565c.3492.10528.49643.32615.328.79611-.87507,2.441-2.04826,4.75464-3.00113,7.16182-.28261.714-.669,1.38913-.93559,2.11749-.11065.30237-.21393.74764-.65694.67248C28.74367,56.50266,28.80892,56.05454,28.77642,55.68231Z"/><path class="cls-8" d="M47.13645,12.52264a3.77106,3.77106,0,0,0,.75508,2.08338c1.00014,1.32569.78871,2.738.68673,4.267-.12318,1.84675-1.05447,3.35051-1.53131,5.03161-.41444,1.4611-.94168,2.884-1.34095,4.34713a30.92116,30.92116,0,0,1-1.2379,3.46692c.03069-.79309.03892-1.58776.09705-2.37875.09493-1.2918-.12281-2.5706-.12827-3.85876-.00286-.67555.1342-1.35043.069-2.01239-.08763-.89-.001-1.77916-.1129-2.67892a22.56684,22.56684,0,0,1,.09677-2.2657c-.01532-1.18315.09043-2.36609-.04366-3.55994-.06758-.60169.074-1.27027.06955-1.91467a.43033.43033,0,0,1,.45613-.33364C45.71286,12.82034,46.406,12.47163,47.13645,12.52264Z"/><path class="cls-9" d="M56.35826,108.44173c.08989.16076.00347.1801-.13869.22546-.85694.27345-1.70821.56466-2.56139.84993-.45036.00829-.901.00886-1.351.02626-2.04927.07922-4.09877.15443-6.14739.24838-1.437.0659-2.87592.12307-4.30821.24949-2.1805.19248-4.35556.44609-6.53389.66412-.76547.07661-1.5347.11516-2.30063.1878a81.90486,81.90486,0,0,1-9.95684.35968,22.37365,22.37365,0,0,1-5.24724-.76968,3.58781,3.58781,0,0,1-1.402-.84722c-.05709-.05159-.14041-.14923-.12446-.19552.32425-.94088-.8282-1.78483-.17779-2.74183a.48507.48507,0,0,1,.52792-.33167,17.2089,17.2089,0,0,0,3.45215-.02139c.13622.09206.26856-.00639.40288-.0086.52356-.00862.64343.16991.46147.68959a1.56332,1.56332,0,0,1-.09759.16471c-.05181.08572-.10529.16952-.15907.25394a3.89417,3.89417,0,0,0-.28216.47668,1.32669,1.32669,0,0,1-.9338.8953c-.15636.03553-.321.12693-.31226.32943.00811.18827.16718.26868.30986.35a.69746.69746,0,0,0,.23239.07784,27.46209,27.46209,0,0,0,3.83473.51031A103.611,103.611,0,0,0,35.75,109.37655c2.73228-.25968,5.46481-.52116,8.20854-.65125,2.7-.128,5.39476-.34235,8.1-.39275,1.12461-.021,2.25252-.02708,3.37771-.08795C55.75283,108.22748,56.09953,108.15227,56.35826,108.44173Z"/><path class="cls-9" d="M72.74773,36.68234a1.5948,1.5948,0,0,0,.043.74213,1.8213,1.8213,0,0,0,.0233,1.34632c-.0805,1.26814.1221,2.54206-.078,3.80777.27093.15772.287.42365.30327.6951.10539,1.75687.11789,3.51815.13794,5.27554a33.441,33.441,0,0,1-.04975,3.3772c-.017.189.05008.42919-.24132.48574A30.7637,30.7637,0,0,0,71.762,56.14183a2.06686,2.06686,0,0,1-.38425.99929,1.1798,1.1798,0,0,1-.25544-.97632c.07772-1.39039.11307-2.78093.07087-4.17381-.02483-.81949.16874-1.6301.11731-2.45372-.09815-1.57174-.08283-3.149-.22319-4.71885-.06774-.75758.04936-1.51578-.01215-2.27349q-.05223-1.84962-.00128-3.69833c-.01072-.40474-.0206-.80985.00107-1.21449a2.01556,2.01556,0,0,0-.078-.62349c-.13062-1.07631.02364-2.1631-.15421-3.24236-.22608-1.37192-.25843-1.4325-1.68674-1.58034a8.053,8.053,0,0,1-1.09495-.00941,1.04447,1.04447,0,0,1-.96728-.99849,1.09386,1.09386,0,0,1,.79581-1.20658,4.25674,4.25674,0,0,1,1.20691-.11007,6.01691,6.01691,0,0,1,1.57245.22338A2.804,2.804,0,0,1,72.50688,32.065a9.68358,9.68358,0,0,1,.39935,4.16286A.765.765,0,0,1,72.74773,36.68234Z"/><path class="cls-5" d="M13.06631,59.84331a4.59978,4.59978,0,0,1,.33409-1.64483c.14721-.2959.31715-.38669.67805-.22475,2.56607,1.15141,5.04885,2.46614,7.53378,3.77789a6.23291,6.23291,0,0,1,.61767.26386c.21029.14333.62724.19556.481.58048a.6638.6638,0,0,1-.82312.37722c-.47937-.1069-.97033-.14156-1.44633-.23057-1.48046-.27684-2.95267-.60831-4.41187-.9819-.43909-.11242-.44484.109-.3735.33825.16159.51918.0411,1.05928.18252,1.5776a.90588.90588,0,0,1-.29081.94272c-.27348.24155-.53655.03434-.79155-.08867q-3.73491-1.80174-7.46959-3.604c-.36463-.17625-.81027-.311-.54091-.88433a.6256.6256,0,0,1,.82817-.39314c1.535.37314,3.07778.7154,4.62177,1.05015C13.07788,60.89059,13.0815,60.87387,13.06631,59.84331Z"/><path class="cls-7" d="M48.73548,10.73526c.2294.3293.47587.6484.6812.99208.10693.179.26754.37607.1362.61883-.13028.2408-.36722.19445-.58464.23025a1.90776,1.90776,0,0,1-1.56861-.62437q-.13638-.23706-.27289-.47435c-.17506-.30446-.36427-.67645-.17691-.96535.2082-.321.65906-.21.99893-.18723A1.20316,1.20316,0,0,1,48.73548,10.73526Z"/><path class="cls-7" d="M55.28218,5.4324c.22662.30994.47578.60625.67368.93357.2069.34219.21155.57627-.31908.635a2.09751,2.09751,0,0,1-1.7197-.57426c-.172-.39953-.70565-.85407-.255-1.2208C54.15466,4.805,54.77473,5.08466,55.28218,5.4324Z"/><path class="cls-7" d="M58.07331,3.77518c.11031.11854.21549.24241.332.35451a.89837.89837,0,0,1,.23319.87191c-.07855.35359-.45115.29956-.71379.318a2.645,2.645,0,0,1-1.518-.63928c-.13653-.29425-.36473-.60921-.09021-.90869a.88253.88253,0,0,1,1.14094-.21819A4.70442,4.70442,0,0,0,58.07331,3.77518Z"/><path class="cls-7" d="M50.82663,9.01244c.00421.4176.44089.56267.5683.91626.20266.56239.1176.70517-.47.68814a1.7369,1.7369,0,0,1-1.30721-.5239c-.00678-.113-.08424-.1676-.16284-.23917-.33024-.30068-.53643-.74523-.24483-1.074.33166-.37394.85814-.26306,1.29789-.046A1.62353,1.62353,0,0,1,50.82663,9.01244Z"/><path class="cls-7" d="M53.15734,7.31484c.09353.13172.17785.27136.28268.39338.17438.203.432.44219.32719.67975-.11367.25768-.48768.2566-.75872.28587a1.871,1.871,0,0,1-1.28784-.561,1.62933,1.62933,0,0,1-.31973-.35918.69967.69967,0,0,1-.04726-.681c.12475-.21742.3221-.20309.52826-.20287A1.94806,1.94806,0,0,1,53.15734,7.31484Z"/><path class="cls-7" d="M60.42684,2.48057a2.284,2.284,0,0,1,.23982.27512c.16283.25787.50527.48377.30028.83936a.78146.78146,0,0,1-.924.26527,2.00654,2.00654,0,0,1-1.33027-.64527c-.06036-.96134.51669-1.29717,1.448-.844C60.24678,2.413,60.338,2.44432,60.42684,2.48057Z"/><path class="cls-3" d="M57.47685,10.84008l-.12529.12241Z"/><path class="cls-3" d="M57.59722,10.71533l-.1217.12608Z"/><path class="cls-10" d="M69.192,32.02027c1.39318-.02183,1.67712.27356,1.8473,1.67219a21.57219,21.57219,0,0,1,.106,3.35729c-.52932.16665-1.15547.03322-1.58489.51294a.452.452,0,0,1-.30393.04441c-1.92731-.0246-3.85379-.00476-5.78-.009-.111.00048-.222.01392-.33324.00871-.50771-.0447-1.02011.0329-1.52683-.05388a.41852.41852,0,0,1-.18153-.12106c-.1878-.28872-.04041-.58328-.01528-.8757a.44211.44211,0,0,0,.05532-.3536c-.16256-1.31952.00849-2.64528-.07907-3.96587a.56043.56043,0,0,1,.02566-.11106c-.03526-1.3356.11838-2.667.10433-4.00053a13.075,13.075,0,0,0-.33053-3.3739c-.2108-.67843.23169-1.02681.69044-1.367a.33065.33065,0,0,1,.29036-.06106,10.881,10.881,0,0,0,3.63628.344c2.55653.05064,5.11231-.00981,7.66816.02845,1.021.01529,2.05092-.09441,3.06079-.05037,1.22194.0533,2.44024-.01427,3.66034.02418,1.60776.05066,3.22226.08231,4.83239-.02483l.12585-.00888c.23138.50564.69533.05673,1.01166.24351.10851.06408.32028-.06387.37656.10443.05906.17659-.15137.24159-.25577.28678a12.06408,12.06408,0,0,0-3.96341,3.06587,6.885,6.885,0,0,0-1.24574,1.62786,4.69916,4.69916,0,0,0-3.12177-.50919,2.61192,2.61192,0,0,0-1.9511,3.66681,1.82628,1.82628,0,0,0,1.20978,1.12857c.20646.06884.51576.01512.56119.35381-.0375.09184-.04945.21307-.11627.27117a11.65988,11.65988,0,0,1-4.91729,2.807,23.25888,23.25888,0,0,0-.072-2.97491,5.44513,5.44513,0,0,0-.99485-2.73055c-.69033-.87734-1.62313-.77422-2.50906-.94783a3.87559,3.87559,0,0,0-1.80066-.23565c-.71649.07954-.95656.37286-1.052,1.26112a1.1653,1.1653,0,0,0,.83748,1.2611A2.12945,2.12945,0,0,0,69.192,32.02027Z"/><path class="cls-6" d="M77.80469,18.96329c-2.42887,0-4.85879.04351-7.28622-.01553a35.62868,35.62868,0,0,1-4.73854-.09283,1.63449,1.63449,0,0,1-.71725-2.93,1.57011,1.57011,0,0,1,1.07979-.14022,35.717,35.717,0,0,0,4.24168.06734c1.27643.0277,2.5563.02759,3.8311-.03386,1.58681-.07649,3.17148.04131,4.75722.02907,1.7-.01312,3.40893-.0211,5.11424.02384,3.65.0962,7.30239.0984,10.95364.15037.64739.00921,1.294.07225,1.94093.11214a.56724.56724,0,0,1,.34133.09477,1.96571,1.96571,0,0,1,.35643,1.9762c-.19276.44123-.63252.47654-1.08266.52618-1.28641.14186-2.57521-.03727-3.84641.02535-2.96.14579-5.92124.02049-8.8804.18174-2.016.10986-4.04288.021-6.06489.021Z"/><path class="cls-8" d="M48.15268,37.67105c-.03859-.041.02809-.17578.03692-.19517.88927-1.95364.895-4.02024,1.43352-6.0624.19326-.73286.56493-1.41737.77836-2.14644.9872-3.37217,2.243-6.65366,3.377-9.97549a7.05223,7.05223,0,0,1,1.444-2.68433q.02319,1.79035.04671,3.5808c-.84832.25363-.68426.93684-.821,1.60536a28.501,28.501,0,0,0-.387,5.30464c-.03043,1.87667-.18316,3.757-.06418,5.62854a7.42612,7.42612,0,0,0,.21818,2.8457.40342.40342,0,0,1-.04479.4116.61739.61739,0,0,0,.05481.83336c.27538.35482.12587.60461-.26409.74964-1.03584.10521-2.07409.02916-3.11093.04689a5.55859,5.55859,0,0,0-1.62958.1727A1.412,1.412,0,0,1,48.15268,37.67105Z"/><path class="cls-7" d="M53.95167,37.44807c.33313-.15552.50281-.349.07363-.58171a.50858.50858,0,0,1-.20108-.72641c.47611-.33491.08051-.63984.06545-.95723-.04382-.92387-.07923-1.8486-.09218-2.77335-.0121-.86428.04078-1.73036.00445-2.5931a14.79841,14.79841,0,0,0,.16669-1.81919,10.94105,10.94105,0,0,1-.0245-2.93,7.3572,7.3572,0,0,1,.3919-3.20037c.04472-.08459-.03016-.23082-.04531-.34895-.145-1.13042-.07595-1.22392.97842-1.32967.46452.72859.14111,1.55639.29114,2.32993.25355,1.30738.03321,2.65428.1981,3.9596.18429,1.459-.06433,2.90586.07835,4.36146.067.68356-.13546,1.41357-.06564,2.11842.14755,1.48964-.0885,2.97319-.01926,4.45956A1.205,1.205,0,0,1,53.95167,37.44807Z"/><path class="cls-11" d="M53.95167,37.44807a1.941,1.941,0,0,0,1.80016-.031q2.84137.00734,5.68288.01476a.32528.32528,0,0,0,.10742-.004,2.3248,2.3248,0,0,0,1.58.00255l.30747.00969a7.01028,7.01028,0,0,0,2.28082.05957c1.21689.00086,2.43381-.03751,3.65067.01493l.18587-.08122c.55859-.22517,1.1137-.39876,1.62292.1093a3.41285,3.41285,0,0,1,.02932,1.21692.99665.99665,0,0,1-.86277.21549c-3.01143-.07182-6.02324.01366-9.03587-.03916-1.81843-.03189-3.64678.01157-5.47035.04387a6.49365,6.49365,0,0,1-.79882-.02028c-2.15467.0373-4.30955-.0005-6.46432.01339a.80893.80893,0,0,1-.67224-.22224,2.7391,2.7391,0,0,1,.25787-1.07951c.62931-.0709,1.25742-.18665,1.88815-.20335C51.3437,37.43321,52.648,37.45149,53.95167,37.44807Z"/><path class="cls-6" d="M85.034,23.64457c-.06152.34853-.33556.2378-.53767.23-1.68291-.06471-3.36891-.04471-5.051-.07084-2.51546-.03908-5.0373.10884-7.55667.0738-2.01956-.02809-4.03827.04386-6.06009-.04a14.15369,14.15369,0,0,1-3.02543-.14107c-.3118-.0806-.61182-.20682-.91734-.31222.04791-.21322.20776-.22444.38109-.21115q3.17029.24321,6.34991.24234a42.49736,42.49736,0,0,1,4.25861.04337,17.77391,17.77391,0,0,1,2.692.05357c.3419.08609,3.66249-.09634,4.84922-.05062a22.44434,22.44434,0,0,0,3.309-.01669A5.04858,5.04858,0,0,1,85.034,23.64457Z"/><path class="cls-6" d="M61.19527,24.7512a.4191.4191,0,0,1,.29008.52932,5.3956,5.3956,0,0,0,.07893,1.61858,29.11787,29.11787,0,0,1,.009,3.281,5.27882,5.27882,0,0,1-.1518,1.94556,3.1817,3.1817,0,0,1-.09639-2.087,20.26519,20.26519,0,0,0-.14553-4.98279A1.44723,1.44723,0,0,1,61.19527,24.7512Z"/><path class="cls-6" d="M61.39581,32.23669a1.34358,1.34358,0,0,1,.19932,1.09853c-.09163,1.026-.00353,2.05-.07925,3.071-.00386.05208-.063.10006-.09634.14992a18.51328,18.51328,0,0,1-.12677-3.67753C61.31771,32.66333,61.22206,32.42818,61.39581,32.23669Z"/><path class="cls-8" d="M72.88618,52.41214c.07082-.96371.07273-1.92786.05939-2.89413-.01617-1.171.085-2.34719.00837-3.51277a26.64147,26.64147,0,0,0-.21791-3.4266c2.302-.11236,4.60137.01747,6.90121.08266.26889.00763.55647-.2106.8092.05126a4.99882,4.99882,0,0,0,2.58431.34786c2.35328-.03683,4.709-.05746,7.05834-.00357,2.02446.04644,4.04617-.04927,6.07227.01805,1.936.06433,3.8829.06208,5.82422.023a.71409.71409,0,0,1,.83156.61446c.67775,2.86767,1.7649,5.62523,2.27935,8.538a21.044,21.044,0,0,0,.75623,3.46842,9.98989,9.98989,0,0,0,1.33091,2.74931c.17891.88776.36258,1.77459.53557,2.6635.23514,1.20816.46685,2.417.68786,3.62785a1.37888,1.37888,0,0,0,.1592.57962,6.32334,6.32334,0,0,1,.2005,1.78517c-.17436,1.12622-.13673,2.26657-.25316,3.39069-.16319,1.57586-.03675,3.14728-.102,4.7187-.05425,1.30682-.187,2.61438-.16212,3.91927a21.00822,21.00822,0,0,0-.17191,3.35924c.46988,2.51606-.369,4.96628-.2,7.47147a30.31848,30.31848,0,0,1-.34495,4.9058.84266.84266,0,0,1-.93844.87564c-1.56744.01328-3.13762.22121-4.69938.16094-.74094-.02859-1.484.0475-2.22741.0114-.90895-.04416-1.84712-.06977-2.77683-.02173-.87243.04509-1.78267.00185-2.66233.01715-.86293.015-1.7262-.07609-2.597-.0212a12.03192,12.03192,0,0,1-2.94352.00917,5.0658,5.0658,0,0,0-1.38089-.04327c-1.64129.15882-3.286-.14813-4.916.0142-1.229.1224-2.45476-.085-3.67534.09328-.1506.022-.33407.05854-.4433-.12054.08493-.38125.40372-.26867.63981-.282.91372-.05142.984-.11488,1.03728-1.05153a9.01284,9.01284,0,0,1,.13637-1.70137c.14295-.54549.27718-1.10008.41225-1.65083a15.45652,15.45652,0,0,1,1.8922-4.7,29.42978,29.42978,0,0,1,2.52634-3.5706,13.68209,13.68209,0,0,1,2.88215-2.26894c1.84153-1.23553,3.87965-2.11291,5.76093-3.27592.81325-.50275,1.6766-.93188,2.487-1.45245a17.18152,17.18152,0,0,0,4.81243-4.27584,4.19523,4.19523,0,0,0,.77852-1.7879,6.27689,6.27689,0,0,1,.2623-1.1943c.10547-.28478.11234-.57328-.33181-.61389-.413-.03776-.32851-.26686-.154-.50373a.99867.99867,0,0,1,.12764-.13274c.52527-.49042.52638-.49186.00221-1.01195-.10357-.10276-.23819-.20381-.17274-.36065.087-.20857.30054-.17572.55431-.19358a1.12665,1.12665,0,0,0-.73629-.03684,14.36363,14.36363,0,0,1-4.08875.02339,11.32151,11.32151,0,0,0-2.746.07817,17.86436,17.86436,0,0,1-3.73144.23543c-1.39327.01653-2.78989.07726-4.17818.05869-1.28635-.01718-2.57216.06274-3.86108.00414-.996-.04527-2.00288.13487-3.00633.05844-2.04794-.156-4.09333.05767-6.1401.0213-.22577-.004-.45607.0302-.61863-.18051.05285-2.06768.026-4.13567.11451-6.20446.074-1.73014-.04525-3.46821-.06654-5.20292C72.85713,53.93169,72.87867,53.17183,72.88618,52.41214Z"/><path class="cls-12" d="M72.81849,66.09856c1.40448-.05617,2.80859.03342,4.217-.08523,1.023-.08618,2.06417.06219,3.09766.07687.62915.00895,1.26332-.09381,1.88776-.04688,1.21306.09118,2.41978-.05525,3.63455-.01325,1.93037.06675,3.87015-.1344,5.80025-.06464,1.65435.05977,3.24074-.4983,4.88845-.3707,1.1166.08648,2.2415.09575,3.35083.23441.64051.08,1.18609-.25362,1.79357-.23026.137.00526.297-.119.40668.0205.124.15786.51087.01686.44186.31143-.06792.28993-.32629.11963-.51294.07268-.118-.0297-.27492-.07759-.33469.04423-.076.15489.11223.17878.19864.249a1.95117,1.95117,0,0,1,.46251.38943c.15395.24729.27936.5544-.19261.64027-.22247.04049-.34182.21564-.4831.35916a.64132.64132,0,0,0-.09.2032c.05827.00673.1249.03544.17357.01693.78658-.29911.67038.3693.55072.64618-.35542.82238-.239,1.74826-.71877,2.5563A11.37049,11.37049,0,0,1,99.9029,73.0219a7.8315,7.8315,0,0,1-2.42578,2.113,16.65994,16.65994,0,0,0-2.115,1.44718c-.70765.44973-1.50342.7133-2.19422,1.18758-1.59816,1.09722-3.41555,1.80554-5.04508,2.86722a13.88746,13.88746,0,0,0-3.59227,2.98385c-.34428.44372-.60955.96681-.94878,1.3853a29.32111,29.32111,0,0,0-2.137,3.55015,3.47712,3.47712,0,0,0-.38819,1.20926c-.16073.89593-.43764,1.76558-.62225,2.65308-.18393.88419-.21782,1.76324-.33642,2.64217a.69286.69286,0,0,1-.81807.69908,1.343,1.343,0,0,0-1.0077.10471q-2.08962.004-4.17921.00811a27.17293,27.17293,0,0,1-.32644-3.995c-.13865-1.94535-.14861-3.89275-.26065-5.837-.11684-2.02748-.108-4.062-.16723-6.09314-.0103-.35334-.01162-1.39871-.03156-1.75289-.06217-1.10386-.16089-2.21578-.13559-3.31915.02315-1.00922-.12018-2.005-.12107-3.01255-.00088-.97358-.099-1.96418-.12942-2.949C72.892,67.97532,72.853,67.037,72.81849,66.09856Z"/><path class="cls-11" d="M107.18364,58.46815c-.6304-.19739-.78125-.81132-.98692-1.294a22.47958,22.47958,0,0,1-1.27259-4.82339,32.1204,32.1204,0,0,0-1.11344-4.71035c-.47569-1.37706-.83487-2.77581-1.2258-4.1712a.33867.33867,0,0,0-.40187-.27275c-1.02094.06557-2.04692.0022-3.06546.0163-.87383.0121-1.75118-.06492-2.633.02364-.76984.07732-1.5573-.08024-2.34376-.03532a20.4546,20.4546,0,0,1-3.06315.05961c-1.3021-.12257-2.59967-.05069-3.89645-.063a37.61622,37.61622,0,0,0-4.15941.0488c-.65862.06654-1.33189-.16857-2.01909-.08079a.48734.48734,0,0,1-.55624-.45313A2.03816,2.03816,0,0,1,82.0366,42.432c.95217.10793,1.93249-.06774,2.89809-.03652,2.935.09493,5.87-.03,8.80582.01255,1.43158.02076,2.88057.02093,4.32186-.03726,1.49875-.06052,3.00267-.01233,4.50387.01446.8846.01579,1.19359.30336,1.414,1.1665.48139,1.88554,1.03367,3.75331,1.53,5.63246a50.35781,50.35781,0,0,1,1.007,5.70834,9.221,9.221,0,0,0,.54929,1.59947A3.43778,3.43778,0,0,1,107.18364,58.46815Z"/><path class="cls-7" d="M20.81286,107.07076c.4345-.91679-.51884-.44752-.72415-.72525a30.13547,30.13547,0,0,0,5.06047-1.55121,21.29141,21.29141,0,0,0,4.5082-1.89709,14.31349,14.31349,0,0,0,2.48107-1.359,3.02034,3.02034,0,0,0,1.17016-.65754,27.19857,27.19857,0,0,1,2.39746-1.54826,17.13123,17.13123,0,0,0,2.67909-2.39722,1.40374,1.40374,0,0,0,.21731-1.103c-.16655-1.711-.10176-3.43431-.11394-5.13922a27.74848,27.74848,0,0,1-.0441-4.16306c.08058-.56871-.06212-1.24123.04681-1.82476a3.40577,3.40577,0,0,1,.59395-1.12366,10.61567,10.61567,0,0,1,.65862-1.13578A71.49069,71.49069,0,0,0,43.91092,75.345a5.14575,5.14575,0,0,0,.26864-.46546,4.37,4.37,0,0,1,.60492-.93137c.71263-1.03764,1.2509-2.18152,1.92081-3.23786.966-1.52325,1.64031-3.19148,2.55038-4.73273.4105-.69518.60511-1.45506.948-2.16421A49.63492,49.63492,0,0,0,52.193,59.07709c.40049-.27325.59915.01905.78479.29464A9.74236,9.74236,0,0,1,54.301,62.12467a3.50573,3.50573,0,0,0,.364.90931,1.11891,1.11891,0,0,1,.097.89388,11.48508,11.48508,0,0,1-.91387,2.46858,37.974,37.974,0,0,1-2.49087,4.21392C49.729,72.957,48.51392,75.534,47.06373,77.978c-.73037,1.23088-1.51169,2.43026-2.1933,3.69186A10.84363,10.84363,0,0,1,44.26259,82.94c-.17792.24955-.30551.52961-.504.76833a4.477,4.477,0,0,0-1.05488,3.3014c.1228,1.48977.18139,2.98567.17891,4.47069a51.66942,51.66942,0,0,1-.03733,5.98985,3.54191,3.54191,0,0,1-1.48751,2.48194,35.83017,35.83017,0,0,1-5.16137,3.30614,30.03892,30.03892,0,0,1-8.30209,3.10583,59.53815,59.53815,0,0,1-6.175.95174A.96724.96724,0,0,1,20.81286,107.07076Z"/><path class="cls-11" d="M38.90711,64.11091a5.4746,5.4746,0,0,0,3.93717-.59906c1.86971-.81862,3.57513-1.95319,5.47246-2.70567.33061-.13112.60988-.37061.95377-.50184.61819-.23589,1.08774.02917,1.05987.67766a1.56782,1.56782,0,0,1-.20524.874,31.75733,31.75733,0,0,0-1.554,2.82758c-.96678,1.44952-1.7149,3.03016-2.66322,4.48509-.92462,1.41858-1.73444,2.90011-2.61166,4.34351A34.00865,34.00865,0,0,0,41.061,77.76813a31.60231,31.60231,0,0,1-2.12856,3.66878c-.96653,1.61171-1.69177,3.37056-2.68924,4.9604-.60466.96375-.876,2.15625-1.87029,2.8821a1.226,1.226,0,0,0-.40572.80278.56874.56874,0,0,1-.76472.4892q-2.68581-.52572-5.3716-1.05163c-.03978-.00781-.07688-.02931-.11667-.03709-.94941-.18561-.98055-.258-.60356-1.22062a3.916,3.916,0,0,0,.24774-1.374c.00671-.38087.1473-.49268.58777-.3946a19.18877,19.18877,0,0,0,2.3769.6.62007.62007,0,0,0,.4624-.08.51847.51847,0,0,1,.14407-.1109.98424.98424,0,0,1,.59956.02573c.79818.21824,1.05877.094,1.33165-.698.44448-1.28992.77072-2.61523,1.13439-3.92916.04887-.17658.07789-.35855.1196-.53736.07962-.34136.34949-.71188-.04148-1.01132-.38908-.298-.81473-.465-1.2461-.041-.03983.03915-.11477.03721-.17588.049a22.04439,22.04439,0,0,1-3.60683-.5573c-.701-.11377-1.402-.24465-2.0965-.40126a1.40435,1.40435,0,0,1-.723-.29578c-.26313-.16422-.75953-.27769-.65705-.57793.0816-.23905.58038-.18344.92922-.10082.5305.12568,1.07565.19037,1.61539.27575.25029.0396.29758-.14558.357-.32864.55128-1.69806,1.13378-3.38568,1.59424-5.11294.18711-.70188.45932-1.38106.69281-2.07057.04421-.01073.05954-.02355.04639-.03881a.05712.05712,0,0,0-.04157-.02429l-.03461-.13134c.231-.43685.56386-.28391.882-.14158a12.0985,12.0985,0,0,0,4.08172.86448.38366.38366,0,0,1,.1316.26633.70625.70625,0,0,0,.76015.65c.41987-.01353.832-.12572.941-.62616.22629-1.03893.64094-2.01908.93248-3.03772.3866-1.35077.34906-1.43376-.90261-1.66839a.53561.53561,0,0,1-.01642-.61993,10.03143,10.03143,0,0,0,.63508-2.13819C38.26682,64.54361,38.30972,64.07776,38.90711,64.11091Z"/><path class="cls-7" d="M37.553,67.7035c.97908-.19113,1.48642.09464,1.33237.76578a6.13088,6.13088,0,0,1-.45027,1.55582,20.48664,20.48664,0,0,0-.75521,2.34526c-.25966.64735-.646.97162-1.29241.83008a.81521.81521,0,0,1-.69706-1.081c.32724-.8909.61845-1.79735.9942-2.66729A4.16765,4.16765,0,0,1,37.553,67.7035Z"/><path class="cls-11" d="M30.76994,66.71927c-.2566-.46053.04359-.52786.38311-.49865.6113.05263,1.21936.14273,1.82875.2171,1.08047.18374,2.19357.114,3.25775.40542.22887.06267.66145.03718.6052.34769a.73307.73307,0,0,1-.76114.36961c-1.14013-.15912-2.27917-.34056-3.425-.43867A5.4028,5.4028,0,0,1,30.76994,66.71927Z"/><path class="cls-8" d="M44.17878,82.8674a19.70708,19.70708,0,0,1,1.77868-3.38848c1.05173-1.73667,2.06181-3.49864,3.00507-5.30015.71628-1.368,1.61087-2.637,2.4283-3.94827a22.55423,22.55423,0,0,0,3.12946-6.01288c.12341-.46608.266-.90694-.14348-1.31318-.076-.07539-.08033-.22505-.113-.34176a11.28489,11.28489,0,0,0-1.4252-3.13567c-.15569-.23905-.33319-.41239-.64565-.3499a2.55777,2.55777,0,0,0-3.12862.29482.73656.73656,0,0,1-.25425.16442,18.91387,18.91387,0,0,0-3.96634,1.86206,2.29117,2.29117,0,0,1-.51955.161,4.20024,4.20024,0,0,1-.1603-2.145,24.71885,24.71885,0,0,0,.018-4.72.8959.8959,0,0,1,.05266-.47966c.16452-.328.02452-.715.20113-1.0408a17.29115,17.29115,0,0,1,.605-2.787c.1707-1.05851.6471-2.04125.78016-3.12539a25.61278,25.61278,0,0,1,.62745-2.56078c.27677-1.20236.6553-2.37692.84886-3.60466a13.02223,13.02223,0,0,0,.59757-2.34555c1.25652-.01932,2.51888-.04651,3.76819-.04165a30.4016,30.4016,0,0,1,3.34143.0872,1.9263,1.9263,0,0,1,.2811,1.047c.33259,2.41153.69109,4.82111.978,7.23691.303,2.55163.69963,5.087,1.06405,7.62843.40027,2.79143.712,5.59536,1.16592,8.37924a42.7923,42.7923,0,0,1,.5165,8.29656,1.20864,1.20864,0,0,1-.179.8211,1.42308,1.42308,0,0,0-.80028,1.509c.02032,2.35629-.06516,4.71669.0412,7.06771.04676,1.03369-.23672,2.004-.21174,3.02233.044,1.79594-.09549,3.59491.03944,5.39185a3.84713,3.84713,0,0,1-.00066.61422c-.30031,3.5332-.18628,7.07639-.25527,10.61514a1.11843,1.11843,0,0,1-.10242.59624,1.26025,1.26025,0,0,1-.92263.246,13.7661,13.7661,0,0,1-3.41472-.63333c-1.31019-.30131-2.56541-.77224-3.87488-1.07641a23.581,23.581,0,0,1-4.40675-1.075,1.15068,1.15068,0,0,1-.80492-1.20156c-.00078-2.785.01449-5.57044-.012-8.35472-.01476-1.55315.10112-3.10965-.06335-4.66379A5.03973,5.03973,0,0,1,44.17878,82.8674Z"/><path class="cls-3" d="M26.2249,79.50612c.81867.13926,1.64147.25809,2.4551.42235,1.37.27659,2.73768.562,4.12814.71936a2.37714,2.37714,0,0,1-.233,1.36739c-.651,1.54671-1.03993,3.175-1.53552,4.7699a.66211.66211,0,0,1-.11622.21321l-.138.01505c-1.4374-.56118-2.99074-.66088-4.45391-1.11909a9.41169,9.41169,0,0,1-1.30742-.43659.9169.9169,0,0,1-.45253-1.25114,20.05368,20.05368,0,0,0,1.28573-4.09976C25.90273,79.84892,26.267,79.80542,26.2249,79.50612Z"/><path class="cls-11" d="M44.31739,54.15423c.29722,2.468-.06844,4.93651.0068,7.40491a9.74181,9.74181,0,0,1-2.51561,1.20631c.00194-.08173-.0286-.21163.01063-.23809.803-.54166.58646-1.48591.78518-2.22846.11039-.41248.16386-.94339.2978-1.35125.39411-1.2.52519-2.45793.91666-3.65422a3.59246,3.59246,0,0,1,.35607-1.15643A.10035.10035,0,0,1,44.31739,54.15423Z"/><path class="cls-11" d="M44.17878,82.8674a1.62566,1.62566,0,0,1,.02346,1.0986c-.19118.54138.19893,1.12093.13017,1.72294-.19687,1.72344.11489,3.45607-.02454,5.179-.11591,1.43232.07039,2.85551.01831,4.28382-.03039.83334.00031,1.66877-.00662,2.50318-.00185.22294.03467.39641.26653.49212a24.31209,24.31209,0,0,0,3.725,1.01541c1.1049.26261,2.32284.22688,3.29215.97472a.333.333,0,0,0,.23092.05237,3.181,3.181,0,0,1,1.75668.34378,7.84676,7.84676,0,0,0,3.87484.52573c.17459.19072.52485.20233.53.57582.00234.16914.18377.10164.29433.08029.496-.0958.99553-.1863,1.25444-.70783.02459-.04955.09661-.06864.15339-.09266a8.28814,8.28814,0,0,1,1.95433-.02571c1.30694-.0104,2.61669-.0003,3.9244-.00557,2.10461-.00848,4.20942.01929,6.314-.018.29486-.00523.62349-.09314.84859.20865.01237,1.102.19528,2.19014.1809,3.30231a5.88457,5.88457,0,0,0,.61745,2.26277c.36392.85209.88763,1.63452,1.31045,2.46329a3.17937,3.17937,0,0,0,1.34568,1.29521,40.18152,40.18152,0,0,0,4.9374,2.13812,34.20366,34.20366,0,0,1,4.58575,2.127c.75489.44584,1.37159,1.062,2.14235,1.46308.07424.03864.10616.15865.15773.24088-.08925.04882-.17531.105-.26828.14517-.35059.1516-.696-.208-1.01736-.05708a6.2594,6.2594,0,0,1-2.95643.22635c-1.70765-.03668-3.41654-.09557-5.12243-.106-1.55759-.00953-3.12277.01684-4.6818.03779a28.10565,28.10565,0,0,1-2.88585-.01245c-.9304-.0827-1.8948.04758-2.84791.02923-1.52574-.0294-3.05353-.04939-4.57823-.00194a27.40931,27.40931,0,0,1-3.28023-.02714,11.31387,11.31387,0,0,1-1.74011-.03112,10.78766,10.78766,0,0,0-2.178.0697c-2.03187-.05786-4.06373.03176-6.1-.04393a32.222,32.222,0,0,0-3.972.00414c-.85528.07381-1.74127-.14083-2.58573-.02452-1.32086.18193-2.63561-.094-3.94663.08141a1.48752,1.48752,0,0,1-.55068-.01464.66834.66834,0,0,1-.50551-.55891c-.0531-.30035.232-.29292.39645-.37669a7.75778,7.75778,0,0,1,2.96406-.61131c2.21014-.18,4.43667-.14865,6.651-.29,2.272-.14506,4.53414-.46119,6.807-.57256a45.6153,45.6153,0,0,0,4.55948-.40937,12.294,12.294,0,0,0,4.87068-1.4473c.446-.27948.97933-.66158.86-1.14747a1.64771,1.64771,0,0,0-1.00248-1.17059,12.7828,12.7828,0,0,0-2.42956-.85332c-.626-.08056-1.29589-.43632-1.99-.55688a8.62,8.62,0,0,0-2.17932-.09948c-.66159.05392-1.29453-.17938-1.94861-.10611-2.23845.04048-4.48578-.028-6.71283.15306-2.08483.16948-4.17626.1959-6.26189.39755-1.57314.15211-3.17414.17808-4.75608.31654-1.81318.15871-3.63016.29934-5.43768.50026a70.35357,70.35357,0,0,1-10.14059.44644,23.79577,23.79577,0,0,1-3.5128-.49239c-.279-.05177-.7039-.16644-.69484-.64619.00891-.472.39413-.45019.68563-.51873a.63761.63761,0,0,0,.57517-.50536,3.88878,3.88878,0,0,1,.61127-.959.18976.18976,0,0,0,.10808-.07289l-.00881.00982a20.92952,20.92952,0,0,0,5.32133-.52154,32.96307,32.96307,0,0,0,5.36748-1.37906,21.19508,21.19508,0,0,0,3.675-1.5841c1.1957-.70262,2.42081-1.35542,3.61241-2.06471a24.97329,24.97329,0,0,0,3.12714-2.2468,2.86085,2.86085,0,0,0,.79626-2.25442c.06928-1.485-.03263-2.97421-.02777-4.456.00381-1.16369-.08552-2.32874-.03867-3.497.03769-.94014-.11612-1.88953-.09571-2.84286a5.109,5.109,0,0,1,1.03584-2.628A7.49543,7.49543,0,0,1,44.17878,82.8674Z"/><path class="cls-13" d="M72.73913,101.074c-1.17337.17015-2.34937-.14225-3.54648.085a5.07391,5.07391,0,0,1-1.576-.053,20.2578,20.2578,0,0,0-2.47694-.01431,25.48212,25.48212,0,0,0-2.86346.02773,25.543,25.543,0,0,1-2.66148-.06041c-.297-.19466-.22667-.50706-.22995-.78111-.0179-1.49527.06242-2.99772-.06514-4.4841-.13994-1.63076-.04493-3.25989-.13121-4.89021-.14508-2.74148-.03756-5.49213-.06863-8.23884-.007-.61672-.06894-1.23008-.13051-1.83777a34.83,34.83,0,0,1,.04252-3.9299c.00869-.78006-.01237-1.55691-.059-2.33291a3.823,3.823,0,0,1,.1061-1.40167.97412.97412,0,0,0-.23632-1.05274c-.0047-1.76572.08637-3.53932-.05757-5.29362-.06463-.78768-.16092-1.60353-.28979-2.40139-.25709-1.59163-.54911-3.18337-.66759-4.80068-.07811-1.06619-.34725-2.11713-.49716-3.17965-.1593-1.12911-.26717-2.2654-.41951-3.39559a17.72349,17.72349,0,0,0-.42215-2.54445,9.97577,9.97577,0,0,1-.28535-2.24424c-.11248-1.99843-.59755-3.94044-.80321-5.92249-.12224-1.1782-.26326-2.35445-.39583-3.53157,1.73988-.00983,3.47977-.0244,5.21967-.02814,1.70734-.00368,3.4147.00667,5.12205.00535q2.92667-.00226,5.85318-.014c.08776,1.27817.08207,2.5573.045,3.8368a1.01815,1.01815,0,0,1-.75454.17643c-2.222.00967-4.44392-.00909-6.66462-.08973-.71755-.02607-1.42455.09549-2.13882.10817-.46793.00831-.5971.27629-.4826.70059a2.01487,2.01487,0,0,1,.10007,1.023c-.04748.065.0011-.014-.01293.05658a1.329,1.329,0,0,0,.17883,1.07326.52711.52711,0,0,1,.07805.09141,1.87,1.87,0,0,1,.19969.82774c.1472,1.15435.33408,2.30383.50031,3.45469.42542,2.94533.73007,5.90521,1.14468,8.85113.08334.59214-.044,1.24767.5151,1.703a.3037.3037,0,0,1,.03363.34907,4.06127,4.06127,0,0,0,.00487,2.34544,1.55722,1.55722,0,0,1,.02815.78652,1.02008,1.02008,0,0,0,.04384.83091,3.5412,3.5412,0,0,1,.13032,1.02744c.04983,1.61623-.11595,3.22988-.06337,4.84493.07462,2.2925-.08013,4.58339-.004,6.87744.04108,1.23836.03875,2.48317.01389,3.727-.03515,1.7589-.05158,3.5216-.03529,5.283.01247,1.34794.09744,2.69931.07258,4.03972-.02643,1.42531.33116,2.8491.00427,4.27386-.10366.4518.10166.66089.59762.68025,2.15168.084,4.30349.01223,6.45489.04231.32223.0045.66359-.05715.93572.19653.38671,1.50364.31288,3.06645.56729,4.58919C72.72089,100.6396,73.23976,100.85508,72.73913,101.074Z"/><path class="cls-12" d="M72.1246,95.87687c-2.45616-.05794-4.91435.06258-7.36971-.093-.88878-.05629-.91817-.1022-.77037-1.00814a12.11808,12.11808,0,0,0,.01294-2.42311c-.03719-.97057-.10488-1.94058-.11677-2.91135-.02236-1.82475-.0153-3.64988-.01819-5.47485-.00168-1.05928-.05331-2.1221.01552-3.17693.08775-1.345-.0446-2.68351-.01328-4.02484.03607-1.54521.00869-3.09022.07118-4.63727.03593-.88968-.03355-1.81442-.05535-2.72114-.02852-1.18592.05921-2.37464.09693-3.56216a.86238.86238,0,0,1,.645-.12167c1.922.02488,3.8362.22876,5.75866.25239a1.23672,1.23672,0,0,1,.86891.24043c.04679,1.81187.07935,3.62425.14645,5.43537.033.89025.21032,1.781.17821,2.66636-.04322,1.19113.15111,2.377.05068,3.559a14.00759,14.00759,0,0,0,.10145,3.09c.11929.84475-.33327,1.7235.20465,2.58413.1622.2595-.04349.98371-.09056,1.4904a39.747,39.747,0,0,0,.0862,4.83425,15.33612,15.33612,0,0,1,.12751,2.12277C71.87489,93.32075,72.34057,94.58775,72.1246,95.87687Z"/><path class="cls-8" d="M71.25,66.21528c-1.94912-.15094-3.9077-.11951-5.85573-.32072a10.41324,10.41324,0,0,1-1.41669-.05039c-.03656-.47-.34116-1.00913-.26955-1.34707.22714-1.07192-.30658-2.074-.1399-3.068a2.19144,2.19144,0,0,0-.1464-1.20517,15.34785,15.34785,0,0,1-.40214-2.699c-.14628-1.1192-.28881-2.23888-.43825-3.35765-.137-1.02534-.19033-2.05612-.26145-3.08687-.03741-.54222-.25992-1.07333-.31644-1.64687-.125-1.26833-.39284-2.52256-.60242-3.78255a1.35859,1.35859,0,0,1-.21247-.99956,3.77973,3.77973,0,0,0-.21627-1.25339c-.17712-.52414.01843-.78965.60759-.81741,1.48116-.06976,2.959-.052,4.4409-.0063,1.73977.05364,3.48228.0184,5.22353.02176.00185,1.73144.08484,3.46622.19277,5.18734.10465,1.66863-.04,3.32618.02127,4.9899a19.66532,19.66532,0,0,1-.14478,3.40647,4.61671,4.61671,0,0,0,.06422.961c.06612,1.04247-.14118,2.07121-.11564,3.11843.041,1.68159-.0619,3.36646-.09123,5.05018A8.35739,8.35739,0,0,0,71.25,66.21528Z"/><path class="cls-14" d="M87.35582,28.2127a4.45424,4.45424,0,0,1,2.77669.438.71674.71674,0,0,1,.35187.4566,4.51523,4.51523,0,0,1-.00136,3.13593,2.00354,2.00354,0,0,1-1.75663,1.136A3.05953,3.05953,0,0,1,85.5863,30.5022,2.47191,2.47191,0,0,1,87.35582,28.2127Z"/><path class="cls-14" d="M97.56166,28.16037c.59147.35041,1.32062.39687,1.824.97114a2.31766,2.31766,0,0,1,.17111,3.0329c-.24334.30892-.43135.7-.83949.8586a2.98236,2.98236,0,0,1-3.08806-.52714,2.41527,2.41527,0,0,1-.01407-3.69574A2.365,2.365,0,0,1,97.56166,28.16037Z"/><path class="cls-14" d="M77.89722,28.33833a3.41619,3.41619,0,0,1,3.186.62571,4.853,4.853,0,0,1,.46523,2.82327,1.73419,1.73419,0,0,1-1.0531,1.1903,4.34686,4.34686,0,0,1-1.35438.47363A3.03637,3.03637,0,0,1,77.03113,29.325,1.846,1.846,0,0,1,77.89722,28.33833Z"/><path class="cls-10" d="M97.21923,33.62683a3.3839,3.3839,0,0,1-2.60157,1.08024,4.3351,4.3351,0,0,1-2.64007-.58955,1.48407,1.48407,0,0,1-.59211-1.75534,2.84577,2.84577,0,0,1,.82738-1.4611c.9-.6499,1.30409-1.83809,2.44436-2.20947a.37124.37124,0,0,1-.05657.45482c-.21022.28358-.30681.62793-.49663.9168-.62889.957-.40778,1.65242.49929,2.54963a2.83,2.83,0,0,0,1.99713.83253C96.81794,33.44842,97.06033,33.40665,97.21923,33.62683Z"/><path class="cls-10" d="M88.6095,33.49832a3.26511,3.26511,0,0,1-1.9252,1.11761,6.41825,6.41825,0,0,1-2.722.36893c-1.26861-.19492-1.95572-1.12693-1.39729-2.27865a6.49068,6.49068,0,0,1,1.35612-2.15367c.21294-.19037.40237-.40943.72372-.39483.18813.12276.15651.31447.1551.49628a2.40989,2.40989,0,0,0,1.73788,2.50559,3.70387,3.70387,0,0,0,1.56643.21093C88.2791,33.3575,88.47847,33.31057,88.6095,33.49832Z"/><path class="cls-7" d="M97.21923,33.62683a3.35527,3.35527,0,0,1-2.98342-1.14429c-.75944-.98366-.94733-1.4002-.25484-2.5204.25173-.40722.45231-.84607.67623-1.27051a3.14518,3.14518,0,0,1,2.90444-.53117,2.62068,2.62068,0,0,0-2.46091,1.57137,2.38779,2.38779,0,0,0,1.93339,3.28009,4.585,4.585,0,0,0,1.6832.01087A4.32072,4.32072,0,0,1,97.21923,33.62683Z"/><path class="cls-7" d="M77.89722,28.33833a4.70452,4.70452,0,0,0-.7223.97265,2.9521,2.9521,0,0,0,1.80368,3.96648c.06642.0253.10852.11452.16217.17386a3.62326,3.62326,0,0,1-1.35951.15281c-.558-.31525-1.29848-.27578-1.67168-.95967a3.39684,3.39684,0,0,1-.157-2.90581A2.19848,2.19848,0,0,1,77.89722,28.33833Z"/><path class="cls-7" d="M88.6095,33.49832a4.388,4.388,0,0,1-2.293-.2509,2.40564,2.40564,0,0,1-1.65066-2.725,2.93008,2.93008,0,0,0-.021-.36473,2.838,2.838,0,0,1,2.711-1.945A2.49186,2.49186,0,0,0,85.895,29.72243c-.63712,1.6369.73824,3.23734,2.395,3.52692.15094.02638.3342-.05921.43653.12984Z"/><path class="cls-7" d="M20.82168,107.061l-.108.07288Z"/><path class="cls-7" d="M69.192,32.02027c-.0606.46532-.47108.45218-.78018.54164a1.79389,1.79389,0,0,1-2.22971-1.012,1.47046,1.47046,0,0,1,1.00115-1.88518,2.16917,2.16917,0,0,1,1.98862.36441,3.84114,3.84114,0,0,1-1.06608.0875c-.81884-.01639-.8573.6104-.85685,1.06369a.81834.81834,0,0,0,1.02722.83447A6.49865,6.49865,0,0,1,69.192,32.02027Z"/><path class="cls-6" d="M71.16985,37.54257a4.48656,4.48656,0,0,0-1.623-.10942,1.41061,1.41061,0,0,1,1.59843-.38341A.4801.4801,0,0,1,71.16985,37.54257Z"/><path class="cls-7" d="M30.92337,86.99833a6.04019,6.04019,0,0,1,.55149-2.2825c.34849-1.38018.87868-2.71449,1.33318-4.068.31264.09943.21078-.47513.63178-.33393,1.10593.37094,1.17145.44489.73732,1.99885-.403,1.44273-.8411,2.87575-1.27127,4.31078a.89937.89937,0,0,1-1.17129.53763A2.99042,2.99042,0,0,0,30.92337,86.99833Z"/><path class="cls-7" d="M58.84258,72.10979c.51931.14146.87.281.43787.94866a2.1762,2.1762,0,0,0-.13663,1.29776,29.34675,29.34675,0,0,1,.02752,4.07236,30.60417,30.60417,0,0,0,.096,3.46083c.08537,1.08982.04872,2.18971.0536,3.28522.00885,1.9859-.07376,3.97686.04692,5.95563.06061.99381.0772,1.99251.12361,2.98508.10048,2.1491.05785,4.30485.07718,6.45785.00145.16207.03008.3239.04609.48586a.80717.80717,0,0,1-.892.70709c-.31052-.01207-.5253.37476-.87119.17813-.08068-.04586-.26406-.10215-.23626-.12444.45155-.36212-.12687-.50663-.14957-.76072.00492-2.14314-.0519-4.28879.03509-6.4286.06473-1.59218.00923-3.18759.19233-4.781a20.72738,20.72738,0,0,0-.07476-2.883A14.37639,14.37639,0,0,1,57.657,85.3787c.07828-.93719.05371-1.88326.0634-2.82571.00239-.23264.24621-4.71017.133-6.65368-.04754-.81626.02581-1.63936-.01658-2.45619C57.79746,72.685,58.06327,72.21971,58.84258,72.10979Z"/></svg>