<svg width="120px" height="120px" viewBox="0 0 120 120" xmlns="http://www.w3.org/2000/svg"><path d="m11 53.29a19.12 19.12 0 0 1 4.68-3.51 18 18 0 0 0 3.2-1.85c1.45-1.22 3-2.37 4.48-3.5a44.62 44.62 0 0 1 3.64-2.69c.76-.45 1.47-1 2.25-1.48a13.76 13.76 0 0 1 7.16-1.79 9.36 9.36 0 0 1 3.4.7 30.23 30.23 0 0 1 3.31 1.55 14.7 14.7 0 0 1 3.39 3.1 8.57 8.57 0 0 1 2.28 4.31c.11.58.27 1.18.41 1.77s.34.85.89.53c.76.32 1.28-.44 2-.46a8.51 8.51 0 0 1 1.21-.15c.89.12 1.86-.34 2.63.1.48.27.71-.12 1.11 0a19.14 19.14 0 0 1 4.19 1.08c.62.31.62.32.87-.78a16.12 16.12 0 0 1 1.26-4.28 18.36 18.36 0 0 1 3.76-4.35 8.73 8.73 0 0 1 2.51-1.61 12.79 12.79 0 0 1 4.54-1.41 14.13 14.13 0 0 1 7.3 1.39 35.21 35.21 0 0 1 3.68 2.34c2 1.32 3.71 3 5.72 4.3a4.3 4.3 0 0 1 .54.51l-.66-.19a10.44 10.44 0 0 0 -3.2-.19s-.56-.27-.52.24c0 0-.35-.26-.47-.25a5.55 5.55 0 0 0 -2.78.73.29.29 0 0 0 -.14.34c0 .23.26.12.32.09.38-.19.75 0 1.13 0a19.06 19.06 0 0 1 5.11.41 43.32 43.32 0 0 1 4.42 1.36 11.93 11.93 0 0 1 3.9 2c.66.55 1.27 1.15 1.91 1.72-.05.34.12.44.42.4a11.35 11.35 0 0 0 1 .94c.34.24.2 1 .9.83.07.81.91 1 1.32 1.6s.92 1.42 1.35 2.12a17.73 17.73 0 0 1 1.33 2.65 4.08 4.08 0 0 0 1 1.92c.24.19 0 .7.06 1.11.14.57.35 1.13.45 1.71.2.1.29.23.15.46a.21.21 0 0 0 0 .28c.13.59.27 1.17.38 1.75a18.61 18.61 0 0 1 .46 4.07l-.09 2.63a1.58 1.58 0 0 0 .12.91.27.27 0 0 1 0 .26c-.81.92-.53 2.14-.89 3.19s-.59 2.15-1 3.2a39.21 39.21 0 0 1 -2.15 4.24 33.61 33.61 0 0 1 -2.47 3.32 9.84 9.84 0 0 1 -2.07 1.85c-.94.77-2 1.37-3 2.14a11.25 11.25 0 0 1 -3.44 1.77 31 31 0 0 1 -6.13 1.62l-2.63.38h-4.07c-.64-.09-1.29 0-1.94-.11-1-.16-1.95-.31-2.91-.53a20.49 20.49 0 0 1 -2.58-.87 13.3 13.3 0 0 1 -2.41-1.07c-.4-.23-.83-.4-1.24-.61a24.52 24.52 0 0 1 -3.49-2.31c-.48-.37-1-.74-1.43-1.16-.1-.09-.24-.15-.21-.32a.87.87 0 0 1 .63-.22s.13 0 .14 0-.09 0-.15 0a.77.77 0 0 0 -.57.25c-.38 0-.56-.3-.69-.53s-.66-.49-.73-.94c-.32 0-.46-.27-.64-.49a19 19 0 0 1 -2.18-2.92c-.36-.63-.79-1.22-1.1-1.88s-.56-1.35-.92-2a20.59 20.59 0 0 1 -.78-2.11 5.34 5.34 0 0 1 -.43-1.9c0-.2-.15-.37-.15-.59a1.36 1.36 0 0 1 0-.63c0-.11-.28-.29-.08-.53 0-.05-.05-.11-.1-.15a.49.49 0 0 1 -.13-.2c-.1-.22.29-.41 0-.68s-.08-.56-.12-.86 0-.55 0-.83a4 4 0 0 1 -.08-.85c.07-.68 0-1.37.07-2a7.81 7.81 0 0 1 0-1.45c.13-.49.08-1 .19-1.49h.06c.24-.07.24-.07.06-.26a.32.32 0 0 1 0-.35.9.9 0 0 0 .1-.62c0-.33.16-.52.35-.76s-.31-.48-.08-.79c.18-.15.3.16.47.06s.16 0 .14-.07-.09 0-.13 0c-.2.1-.3 0-.4-.15s.1-.45.12-.67a1.24 1.24 0 0 1 .1-.39c.06-.18.56-.08.25-.5-.15-.22.15-.49.18-.76a4 4 0 0 1 .55-1.67c.09-.14 0-.33.19-.44a1.47 1.47 0 0 0 .64-.77c.38-.77 1-1.38 1.4-2.15a7.29 7.29 0 0 1 1.79-2.29c.69-.59 1.28-1.29 2-1.86a9.17 9.17 0 0 1 1-.78c1-.57 1.77-1.36 2.74-1.9a20.87 20.87 0 0 1 3.24-1.62c.1 0 .29-.05.24-.21s-.22-.13-.35-.11a11.69 11.69 0 0 0 -3 1.11 32.22 32.22 0 0 0 -5.85 4c-.76.61-1.38 1.38-2.1 2-.24.22-.41.26-.62 0a5.36 5.36 0 0 0 -2.7-1.11 8.32 8.32 0 0 0 -2.23 0 14.85 14.85 0 0 0 -2.19.63 12 12 0 0 0 -1.55.8c-.13.07-.24.18-.41.14a5 5 0 0 1 -.88-.84c-1.08-1.15-2.29-2.15-3.42-3.26a28.47 28.47 0 0 0 -3.77-3 17.86 17.86 0 0 0 -2.77-1.55 10.65 10.65 0 0 0 -3.29-1c-.51-.06-1 0-1.54-.1h-.16c-.25 0-.59 0-.6.28s.33.21.53.23a12 12 0 0 1 3.23.94 20 20 0 0 1 3.9 2.2c.77.5 1.49 1.13 2.26 1.65a26.82 26.82 0 0 1 3.15 2.87 16.13 16.13 0 0 1 1.72 1.89 16.4 16.4 0 0 1 2.33 3.76c.35.85.59 1.74.9 2.61a.44.44 0 0 1 -.15.51c.14.11.38.06.44.29s.1.67.19 1a.3.3 0 0 1 -.44.14s-.11 0-.1.06.06 0 .09 0c.2.1.33-.2.53-.08a.47.47 0 0 1 0 .63c-.13.14-.12.24.05.32a.45.45 0 0 1 .25.54c-.09.38.23.7.09 1.06-.19.2-.19.2.11.3a8.25 8.25 0 0 1 .12 2.53 2.81 2.81 0 0 0 0 .69 16.49 16.49 0 0 1 0 3 6.36 6.36 0 0 0 0 .88c0 .23 0 .52-.26.64s0 .09 0 .12.17.21.11.28c-.21.27-.08.64-.3.9 0 0-.06.06 0 .12s.08.39 0 .58a9.84 9.84 0 0 1 -.73 2.78.65.65 0 0 0 0 .19 7.3 7.3 0 0 1 -.71 1.85c-.28.71-.67 1.37-1 2.07a5.77 5.77 0 0 1 -.75 1.24.18.18 0 0 0 0 .07 15.68 15.68 0 0 1 -1.68 2.43 4 4 0 0 1 -.84.93 15.82 15.82 0 0 0 -1.44 1.52c-.1.1-.18.26-.37.18a.7.7 0 0 0 -.34-.21.58.58 0 0 0 -.39 0c.09.09.22 0 .32.07a.73.73 0 0 1 .44.19c0 .17-.09.24-.19.32a29.65 29.65 0 0 1 -4.32 3.15 32 32 0 0 1 -3.16 1.57 29.47 29.47 0 0 1 -3.72 1.21c-.33.1-.66.15-1 .22a22.17 22.17 0 0 1 -3.9.43h-4.16l-3-.47c-1.22-.17-2.37-.59-3.55-.87a24.94 24.94 0 0 1 -4-1.44 16.46 16.46 0 0 1 -2.94-1.87c-.35-.25-.75-.44-1.08-.72a24 24 0 0 1 -4.13-4.17c-.91-1.24-1.54-2.6-2.31-3.9a15.4 15.4 0 0 1 -1.3-3.21c-.48-1.48-.67-3-1.07-4.51a21.2 21.2 0 0 1 -.27-5.2 20.62 20.62 0 0 1 .8-5 .21.21 0 0 0 .06-.29c-.14-.23-.05-.36.16-.46a10.66 10.66 0 0 0 .53-2.18c0-1 .77-1.61 1-2.43a21.66 21.66 0 0 1 1.23-2.73 9.86 9.86 0 0 1 .88-1.33 6.32 6.32 0 0 1 1.54-1.87c.25-.19.3-.88.88-.53 0-.14-.24-.23 0-.43.46-.42.89-.88 1.33-1.32.28.01.45-.09.45-.43z" fill="#566676"/><path d="m59.31 61.29c-.19.56-.41 1.11-.56 1.68a5.83 5.83 0 0 0 -.28 1c.55.55-.18.48-.27.69s0 .71-.25 1c0 .07-.05.11-.09.17 0 .28-.08.55.25.73.15.08.06.19-.07.21-.6.12-.44.56-.36.93s-.37.37-.16.65a.38.38 0 0 1 -.15.34c0 .68 0 1.36-.13 2a.37.37 0 0 0 .15.43c.18.14.21.26-.08.3 0 0-.07 0-.11.05.52.25-.27.63.1 1 .13.12-.14.59-.1.89.07.49-.17 1.06.28 1.48-.42.37 0 .81-.1 1.22a.26.26 0 0 0 0 .19c.13.17.23-.07.35 0s.08.17 0 .24-.29 0-.3.19-.06.33.18.38.18.14.26.21l-.24.1a.5.5 0 0 0 -.09.13.53.53 0 0 0 .25.16c.08 0 .19-.09.23 0a.36.36 0 0 1 -.2.15c-.23 0-.19.14-.15.31a13.11 13.11 0 0 0 .63 2.54c.32.68.45 1.42.8 2.11.45.87.78 1.88 1.28 2.73a13.33 13.33 0 0 0 2 3 11 11 0 0 1 1 1.29s.06.09.08.09c.53 0 .77.51.92.75a7.41 7.41 0 0 0 .91 1.09c.5.41.85 1 1.6 1.07h.09a1.47 1.47 0 0 0 .67.88 28.78 28.78 0 0 0 5.85 3.23 21.77 21.77 0 0 0 5.09 1.37l2.84.37h-51.43c.7-.09 1.39-.19 2.09-.27a22.7 22.7 0 0 0 5.39-1.31 29.83 29.83 0 0 0 7.15-4h.06c-.13-.46.35-.25.5-.44a5.87 5.87 0 0 1 1-.81s0-.05 0-.08a3.7 3.7 0 0 0 .85-1c.09-.22.61-.27.35-.72.46.26.55-.11.8-.38a15.24 15.24 0 0 0 2.1-2.76 15 15 0 0 0 1.2-2.09c.27-.64.59-1.26.83-1.92.15-.42.41-.87.56-1.33a13.24 13.24 0 0 0 .69-2.25 6.51 6.51 0 0 0 .23-1.15s0-.07 0-.08c-.34-.21-.39-.38.07-.47-.6-.39.32-.55.13-.86 0-.07-.13-.11-.19-.16s-.23-.15-.22-.19.16-.08.26 0 .26-.07.24-.21c-.06-.41.32-.85-.1-1.22.41-.38.2-.88.26-1.33s-.19-1 0-1.42c-.39-.17.14-.68-.31-.82.54-.41.27-1 .19-1.43s0-.78-.06-1.16c-.13-.08-.13-.21-.15-.34-.33-.49.32-1.33-.59-1.61-.12 0-.07-.15 0-.18.34-.16.28-.45.25-.73 0-.06-.09-.1-.09-.17s-.43-.29-.11-.55c-.2-.21 0-.81-.62-.62 0 0-.11-.09-.16-.13a.28.28 0 0 1 .13-.07c.42 0 .29-.26.21-.47a29.11 29.11 0 0 0 -1.43-3.63 17.7 17.7 0 0 0 -2.35-3.28c-1.14-1.2-2.28-2.41-3.49-3.54a16.49 16.49 0 0 0 -2.1-1.48c-.84-.58-1.68-1.16-2.53-1.72a15.92 15.92 0 0 0 -3.54-1.67 7.9 7.9 0 0 0 -2.15-.49c-.23 0-.63-.09-.61-.29 0-.36.45-.47.74-.47a11 11 0 0 1 4.07.67 24.2 24.2 0 0 1 5.63 3.31c1.83 1.39 3.39 3.08 5.11 4.58a6.58 6.58 0 0 1 1.13 1.27 2.54 2.54 0 0 1 .71.75 2.85 2.85 0 0 0 .52.76s.1.09.09.13c0 .39.36.53.48.82a.39.39 0 0 0 .52.2 5.46 5.46 0 0 1 1.89-.12 2.5 2.5 0 0 0 .67-.06 6.8 6.8 0 0 1 1.7.35 3.42 3.42 0 0 1 .7.32c.13.08.26.2.17.37s0 .42.24.48a.28.28 0 0 1 .2.12z" fill="#fff"/><path d="m115.6 31.35c-.26.47-.49 1-.8 1.41-.16.25-.24.6-.57.7-.13 0-.26.7-.43 0h-.11a.28.28 0 0 0 -.21.3 1.8 1.8 0 0 1 0 .28c-.65 0-1.14.61-1.81.49a.47.47 0 0 1 -.33-.2c-.49-1.22-1.72-2-2.06-3.28-.16-.63-.75-1.24-.26-2a.14.14 0 0 0 0-.14c-.69-.52-.52-1.3-.55-2 0-.28-.24-.71.24-.91-.64-.81-.14-1.69-.12-2.53a19.28 19.28 0 0 1 .51-1.92 12.86 12.86 0 0 1 .77-2.44c.11-.33.26-.86.46-.89.67-.11.18-.58.33-.83s.33-.1.5-.11.14.18.14.31a21.19 21.19 0 0 0 .39 3.55 3.72 3.72 0 0 0 .55 1.26c.5.79 1 1.61 1.52 2.36a4 4 0 0 1 .25.51c.23.38 0 .77 0 1.15a14.81 14.81 0 0 1 -.66 2.8 14.94 14.94 0 0 1 -1.59 3.78c-.08.13-.23.27-.06.43s.29.07.45 0a1.51 1.51 0 0 0 .79-.84 23.44 23.44 0 0 0 1-2.92c.2-.72.43-1.43.57-2.17a.41.41 0 0 1 .23-.36.81.81 0 0 1 .37.7.6.6 0 0 0 .16.43s.08.09.08.14c0 .67.48 1.2.51 1.87 0 .23 0 .42-.17.57s-.18.35-.09.5z" fill="#eb7124"/><path d="m99.86 14.54c-.34.56.36.56.5.89.33.79 1.08 1.5 1 2.34 0 .52.3.39.39.6s-.37.05-.23.25.44 0 .45.22-.28.39-.56.38a.75.75 0 0 0 -.21 0l.15.12c.22.14.68.12.6.46s-.5.21-.79.22-.79.11-1.06-.06c-1.31-.82-2.86-.29-4.22-.79a13.18 13.18 0 0 1 -4.12-2.17 10.25 10.25 0 0 1 -3.31-4.32 5.3 5.3 0 0 1 -.5-2c0-.28.06-.43.34-.45-.68-.66-.22-1.37-.12-2.07.11-.06.19 0 .26.06a5.57 5.57 0 0 1 1.29 1.63 3 3 0 0 0 1 1.08c.28.18.59.33.88.51a1.07 1.07 0 0 1 .41.38c.42.63.94 1.19 1.38 1.81a5.55 5.55 0 0 0 .49.48c.73.86 1.48 1.7 2.26 2.51a7.84 7.84 0 0 0 1.86 1.47.44.44 0 0 0 .19.07c.09 0 .22.05.27 0s-.07-.16-.14-.21a23.62 23.62 0 0 1 -3.15-3.33c-.33-.37-.71-.69-1-1.08-.13-.16-.31-.34-.12-.57s.31 0 .46.05a10.91 10.91 0 0 0 3 1c.65.11 1.29.3 2 .4a1.17 1.17 0 0 1 .35.12z" fill="#eb7124"/><path d="m113.89 25.39a27.12 27.12 0 0 1 -2.2-3.7 11.08 11.08 0 0 1 -.51-3.19l-.06-1.12c-.27-.65.27-.95.63-1.23s.22-.34.13-.52a15.66 15.66 0 0 0 -2.41-3.46 14.28 14.28 0 0 0 -1.61-1.32c-.21-.17-.47-.46-.37-.64s.49.1.65.11a3.26 3.26 0 0 1 1.76.84 11 11 0 0 1 3.16 3.26 15.88 15.88 0 0 1 1 1.88c.26.58.86.76 1.29 1.14a5.11 5.11 0 0 1 1.49 2.4c.35 1.2.59 2.43.87 3.65a.45.45 0 0 1 0 .11 19.58 19.58 0 0 1 0 2.54c-.14.74-.47 1.46-.57 2.15a7.73 7.73 0 0 1 -.7 2 1.81 1.81 0 0 1 -.8 1.1c-.16-.06-.41-.13-.21-.34.75-.76-.07-1.31-.16-2-.06-.38-.33-.67-.28-1.08 0-.22-.15-.46-.24-.69-.24-.06-.18-.25-.16-.39a15.77 15.77 0 0 0 0-4.23 13.05 13.05 0 0 0 -.53-2.84c-.07-.2-.14-.36-.4-.28s-.16.28-.12.44a22.28 22.28 0 0 1 .55 3.54 12.05 12.05 0 0 1 0 1.59c-.04.11-.09.24-.2.28z" fill="#ef8922"/><path d="m97.08 41c-.2 0-.39.17-.42-.23s-.19-1-.24-1.46a3.11 3.11 0 0 1 0-1.45c.55-1.29-.13-2.54 0-3.81a11.08 11.08 0 0 1 .42-3.44.72.72 0 0 1 .93-.4c.33.07.34.29.37.58.17 1.48 0 3 .3 4.45.12.66.79.68 1.17.8a9.86 9.86 0 0 1 3.65 2.62 12.32 12.32 0 0 1 1.2 1.3 3.26 3.26 0 0 1 .82 1.26c.07.42.61.66.47.91-.3.52.36.59.31 1a1.26 1.26 0 0 0 0 .27.68.68 0 0 1 -.57-.16c-.64-.38-1.33-.67-2-1a2.17 2.17 0 0 0 -1.06-.24 12.21 12.21 0 0 1 -1.71 0c-.45-.19-.62-.66-.91-1a7.31 7.31 0 0 1 -.81-1.29.36.36 0 0 0 -.07-.1c-.14-.14-.27-.38-.49-.25s-.08.34 0 .51a4.73 4.73 0 0 0 .56 1.13c.13.2.36.37.31.67-.39.11-.7-.14-1-.25a5 5 0 0 0 -1.23-.42z" fill="#ef8922"/><path d="m91.64 11.61a5.32 5.32 0 0 1 -1.64-1.18c-.66-.68-.89-1.72-1.81-2.18.63-.92-.11-1.72-.27-2.55a28.19 28.19 0 0 1 -.37-4c0-.18.07-.21.22-.24a.33.33 0 0 0 .23-.26c0-.16-.16-.12-.27 0s-.13 0-.12-.07c0-.32-.09-.76.34-.88.84-.22 1 .31 1 1a25.57 25.57 0 0 0 .7 5.07c.15.63.63.46.92.49a8.75 8.75 0 0 1 3.31 1.39 17.89 17.89 0 0 1 3 2.46 5.74 5.74 0 0 1 1.12 1.08c.58 1 1.51 1.7 1.89 2.8a20.27 20.27 0 0 1 -5.59-1.54.88.88 0 0 0 -.3 0 .59.59 0 0 1 -.53-.32c-.7-1-1.54-2-2.33-3a.48.48 0 0 0 -.26-.18c-.11 0-.23-.06-.31 0s0 .18 0 .26a7.92 7.92 0 0 0 1 1.41c.04.16.28.26.07.44z" fill="#ef8922"/><path d="m100.65 41.8a6.59 6.59 0 0 1 4.62 1.11c.24.16.52.28.78.42 0 .48.34 1-.1 1.41.66.44-.28 1.39.56 1.79.11 0-.11.36.12.48-.25.13-.5.31-.82.18a2 2 0 0 0 -.35-.09l.16.16s-.09.07-.14.07c-2.81 0-5.28-.84-7.07-3.15a11.41 11.41 0 0 1 -1.51-2.68c-.11-.27.16-.34.18-.52.71-.21 1.17.47 1.8.52a3.45 3.45 0 0 1 .43.12c.23 0 .29.21.4.36a9.85 9.85 0 0 0 2.35 2.34 16.79 16.79 0 0 0 2.45 1.19h.12c.13 0 .32.08.37 0s-.14-.2-.24-.26c-.29-.16-.57-.33-.86-.47a6.88 6.88 0 0 1 -2.67-2.14c-.23-.27-.58-.43-.58-.84z" fill="#eb7124"/><g fill="#2b3c59"><path d="m87.39 16.75a2.85 2.85 0 0 1 -1.39-1.22 12 12 0 0 1 -1.87-4c-.09-.41 0-.56.29-.66.17-.06-.16-.29.06-.35a.92.92 0 0 1 .58-.06c.22.11.59 0 .63.42a9.46 9.46 0 0 0 1 2.62 16.41 16.41 0 0 0 1.72 2.74c.09.12 0 .32-.23.37z"/><path d="m116.45 33c1.43 0 1.46.11 1 1.3-.05.12.09.32 0 .44-.12.27-.17-.16-.3-.06a.21.21 0 0 0 -.06.1c.18 1.36-.92 1.94-1.7 2.65a4.67 4.67 0 0 1 -2.27 1.25 1.32 1.32 0 0 1 -.85-.15c-.13-.06-.11-.09 0-.18a9.58 9.58 0 0 0 2.82-2.78 9.2 9.2 0 0 0 .43-1.14c.23-.64.48-1.27.93-1.43z"/><path d="m116.06 39.64-.37-.12a1.58 1.58 0 0 1 .19-.34 16.7 16.7 0 0 0 1.23-1.79 18.49 18.49 0 0 0 1.51-3.52.82.82 0 0 1 1.13-.49c.41.13.22.55.17.87a8.65 8.65 0 0 1 -2.39 4.66 2.13 2.13 0 0 1 -1.47.73z"/><path d="m82.42 14c.62.08.76.8 1.07 1.28a4.32 4.32 0 0 0 .8.75 13.27 13.27 0 0 0 3.09 2.38c.09 0 .22.16.21.2a.46.46 0 0 1 -.22.27 1.57 1.57 0 0 1 -1.49 0 10 10 0 0 1 -4.26-4.21c-.3-.59.21-.67.8-.67z"/></g><path d="m3.11 66.57c-.31.19.11.55-.17.74 0-.06 0-.18-.07-.18-.21 0-.54-.08-.48-.22a.57.57 0 0 1 .72-.34z" fill="#8a919d"/><path d="m108.44 67.31c-.28-.19.14-.55-.16-.74a.57.57 0 0 1 .71.34c.06.14-.27.22-.48.22-.02 0-.05.12-.07.18z" fill="#8a919d"/><path d="m115.79 45.37c.06.16.08.31-.12.31 0 0-.33 0-.22-.21s-.12-.35.19-.35.22.11.15.25z" fill="#7f7f94"/><path d="m100.85 53.69c-.12.05-.14.34-.31.21a.48.48 0 0 1 -.11-.61c-.01.29.33.21.42.4z" fill="#a4a8b2"/><path d="m11 53.29a.48.48 0 0 1 -.11.61c-.17.13-.19-.16-.31-.21.04-.19.42-.11.42-.4z" fill="#a4a8b2"/><path d="m1.93 76.07c-.28.19-.42.29-.56.37s-.14-.09-.14-.13c0-.29.27-.11.4-.2s.09-.02.3-.04z" fill="#767f8d"/><path d="m109.91 76.61-.29-.49s.1 0 .11 0 .42-.09.42.23c0 .02-.08.07-.24.26z" fill="#767f8d"/><path d="m109.4 69.14a.83.83 0 0 1 -.2.08 1.41 1.41 0 0 1 -.22-.06s.07-.11.12-.11.14.03.3.09z" fill="#566676"/><path d="m2 69.16c.11-.06.17-.12.22-.11a.52.52 0 0 1 .19.08.7.7 0 0 1 -.17.09c-.05.01-.11-.03-.24-.06z" fill="#566676"/><path d="m67.48 58.76a14.51 14.51 0 0 1 2.12-1.95.16.16 0 0 1 .11.22c0 .16.07.24.16.33l.08.08c1.39 1.53 2.74 3.09 4.14 4.61.65.71 1.39 1.34 2.09 2s1.17 1.1 1.7 1.7a3.32 3.32 0 0 0 .42.32 2.52 2.52 0 0 1 .57 1 1.66 1.66 0 0 1 -.15.83c-.25.64-.36 1.31-.55 2a1.28 1.28 0 0 1 -.41.73.65.65 0 0 1 -1.08-.44 16.67 16.67 0 0 1 -.33-1.85 1.94 1.94 0 0 0 -.35-1.17.9.9 0 0 0 -1-.31 2.94 2.94 0 0 0 -1.86 1.65 7.67 7.67 0 0 0 -.82 1.85 7.62 7.62 0 0 1 -.2 1.08c.36.39 0 .7-.11 1a6.27 6.27 0 0 0 0 1.62 25.62 25.62 0 0 0 .49 3.14 11.76 11.76 0 0 0 .74 2.24c.46 1 .69 2.11 1.11 3.14a7.43 7.43 0 0 1 .65 1.61 10.55 10.55 0 0 1 -.15 2.1 7.14 7.14 0 0 0 .83 3.88c.1.2.25.53.53.37s0-.41-.06-.62a4 4 0 0 1 -.34-1.12 5.41 5.41 0 0 1 -.33-1.8c0-.09 0-.19 0-.28a3.85 3.85 0 0 0 .17-1.43 2.73 2.73 0 0 1 .25-1 2.12 2.12 0 0 1 1.32-.72c.71-.13 1.44-.26 2.15-.43a2.25 2.25 0 0 1 .36-.06 21.56 21.56 0 0 0 3.48-.47 12.14 12.14 0 0 0 2.28-.74 4.86 4.86 0 0 0 1.51-1.14 4.11 4.11 0 0 1 .35-.27c.22-.18.49-.33.48-.67a.18.18 0 0 1 .17-.19.6.6 0 0 0 .36-.62.41.41 0 0 1 .08-.3c.15-.19.14-.35-.1-.46a.19.19 0 0 1 -.13-.13 1.26 1.26 0 0 0 -1.37-1.09 6.61 6.61 0 0 0 -1.66 0c-.39.06-.78.08-1.17.17a.51.51 0 0 1 -.68-.27.63.63 0 0 1 .35-.74 13.65 13.65 0 0 1 1.51-.68 5.71 5.71 0 0 1 1.58-.48c.62.3 1 .9 1.45 1.35 1 .93 2 1.86 3 2.8s2.28 2.09 3.42 3.13l.73.65a.48.48 0 0 1 .23.37 8 8 0 0 1 -.62.94c-.1.18-.44.27-.66.43-.57.39-1 .94-1.58 1.34 0 0-.1 0-.08.1s.07 0 .11 0 .34 0 .32.24-.2.2-.35.23a1.53 1.53 0 0 1 -.37 0 .62.62 0 0 0 -.27 0c.07.09.19.19 0 .25a.17.17 0 0 0 .1 0 2.88 2.88 0 0 1 .71-.2c.15 0 .33 0 .36.17s-.16.17-.27.23a4 4 0 0 0 -.49.16 2.6 2.6 0 0 0 .54.17h.24a2.44 2.44 0 0 1 1.13-.13 1.93 1.93 0 0 0 1-.5c.18-.12-.05-.41.23-.46s.36.07.51-.08c.35-.32.78-.54 1.11-.89a.81.81 0 0 1 .43-.29.37.37 0 0 1 .3.1c.53.55 1.24.9 1.74 1.5-.21.28-.42.56-.64.83-.08.1-.25.18 0 .3 0 0 .1.18 0 .17-.77-.11-1 .64-1.45 1-.2.15-.5.28-.61.54-.37.88-1.39.83-2 1.42a7 7 0 0 1 -2.53 1.46c-1 .38-2.12.67-3.18 1a18.22 18.22 0 0 1 -8.35.8 23.24 23.24 0 0 0 -2.98-.61c-.15.1-.29 0-.42 0-1.29-.51-2.53-1.12-3.79-1.68a10.07 10.07 0 0 1 -1.79-1.12 6.94 6.94 0 0 1 -1.47-1.13 6.49 6.49 0 0 0 -.94-.78 25.5 25.5 0 0 1 -2.67-2.81 24.73 24.73 0 0 1 -3.08-4.59 2.89 2.89 0 0 1 -.57-1.37c.1-.18.32-.19.45-.33s.08-.07.07-.1-.09 0-.13 0c-.21 0-.3.32-.54.18a4.15 4.15 0 0 1 -.43-1c-.18-.7-.43-1.37-.59-2.07a2.89 2.89 0 0 1 -.1-.72 9.52 9.52 0 0 0 -.14-1.6 11.82 11.82 0 0 1 0-2.59 3.16 3.16 0 0 1 .23-1.48.09.09 0 0 0 0-.11c-.21-.4 0-.76.11-1.13.22-.83.37-1.69.67-2.5a18.16 18.16 0 0 1 2.48-5.13c.26-.33.47-.73.72-1.09.12-.16.19-.36.46-.24a1.29 1.29 0 0 1 .39-.71 4.9 4.9 0 0 0 .58-.7.61.61 0 0 0 .16.12 1.08 1.08 0 0 0 .4 0c-.11 0-.21 0-.32 0a.55.55 0 0 1 -.26-.08z" fill="#beccda"/><path d="m15.1 56.13a10.2 10.2 0 0 1 3.33-2.21 27.13 27.13 0 0 1 4.91-1.61 10.72 10.72 0 0 1 2.33-.48 16.32 16.32 0 0 1 3.63 0c.16 0 .29.09.33-.15 0 0 .12-.1.14-.09.9.59 2 .34 2.9.65s1.86.46 2.77.79c.1 0 .39.26.31-.16a.2.2 0 0 1 .08-.14c.12 0 .27 0 .34.12s0 .11-.11.13-.16.24.07.32l2 .68a11.17 11.17 0 0 1 3.38 2c.83.66 1.51 1.47 2.31 2.15.23.19.08.4.23.57.64.7 1.5 1.21 1.88 2.14.05.11-.72.22 0 .31.4.06.36.43.54.64a.29.29 0 0 1 0 .24.39.39 0 0 0 -.22.31 1.23 1.23 0 0 1 .31-.14c.14 0 .21.09.22.22 0 .52.67.92.33 1.52.54.13.48.64.62 1a8.47 8.47 0 0 1 .25.86c.07.23-.07.24-.23.27a2.08 2.08 0 0 0 -.32.12c.1 0 .21.06.3 0 .53-.12.51.29.49.57s.08.17.12.26 0 .25-.17.25a1.27 1.27 0 0 0 -.28 0c-.08 0-.16 0-.21.09a.06.06 0 0 0 0 .1.22.22 0 0 0 .23 0 .84.84 0 0 1 .25-.09c.26-.11.29 0 .31.22-.42.56.28.94.22 1.49-.1.88.49 1.74.09 2.67-.08.18.22.51.17.73-.12.52.1 1 0 1.53a8.42 8.42 0 0 0 -.11 1.33c0 .1.22.65-.34.47h-.07c.52.21 0 .59.14.87 0 0 .07.07.06.09-.42.94-.34 2-.75 3-.29.72-.57 1.49-.88 2.22a16.72 16.72 0 0 1 -3.21 4.92c-.14.15-.41.2-.47.46 0 .06-.15.08-.18 0-.39-.47-1-.59-1.41-1.06-.1-.11-.24-.19-.23-.36a11.15 11.15 0 0 1 .83-1 5.09 5.09 0 0 0 1.31-1.74 1 1 0 0 1 .14-.24 7 7 0 0 0 1.54-2.97.51.51 0 0 0 -.08-.49c-.28-.2-.11-.32 0-.43a.6.6 0 0 0 .22-.72c0-.19-.11-.3-.32-.28s-.22 0-.27-.12-.34-.29-.58-.25a2.16 2.16 0 0 1 -.44 0 .79.79 0 0 0 -.87.89c0 .14 0 .31-.15.34s-.31.24-.38.42a15.93 15.93 0 0 1 -2.45 4.46 1.5 1.5 0 0 0 -.2.4c0 .13-.09.27-.27.25-.93-.85-1.9-1.66-2.82-2.51-1.11-1-2.25-2-3.33-3.06a6.31 6.31 0 0 1 -1.06-1.07l-.11-.18a1.35 1.35 0 0 0 -.2-.27 3.39 3.39 0 0 0 -1.12-.86c-.53-.29-.78-.88-1.28-1.21a.23.23 0 0 1 -.08-.26 2.86 2.86 0 0 1 1.41-.57c.75-.14 1.51-.21 2.25-.37a7 7 0 0 0 3.27-1.36 2 2 0 0 0 .92-2.12 1.22 1.22 0 0 0 -1.23-1.07 8.87 8.87 0 0 1 -1.63 0l-.44-.1c-.22-.07-.45-.14-.49-.42a.65.65 0 0 1 .31-.7 6.84 6.84 0 0 1 1-.54 19.92 19.92 0 0 1 2.47-.94c.59-.17 1.12-.52 1.72-.65a6.3 6.3 0 0 0 1.46-.5 13.93 13.93 0 0 0 1.72-.88c.2-.14.42-.25.38-.56 0-.15.11-.16.22-.18a1 1 0 0 0 .47-1.42 4.9 4.9 0 0 0 -1.33-1 5.36 5.36 0 0 0 -1.69-.41 13.63 13.63 0 0 0 -5.08.42 25 25 0 0 0 -4.44 1.62l-.27.09a.58.58 0 0 1 -.65-.31c-.12-.26 0-.49.19-.71a6.44 6.44 0 0 0 1.08-2.81c.12-.76-.58-1.22-1.13-1.36a2.88 2.88 0 0 0 -2.54.71 6.47 6.47 0 0 0 -1.59 1.41c-.39.58-.76 1.19-1.11 1.8s-.57 1.05-.81 1.59-.26 1.06-.48 1.55c-.34.76-.48 1.58-.75 2.37-.24.17-.4 0-.56-.15s-.37-.51-.76-.47c-.1 0-.15-.15-.18-.25a1.16 1.16 0 0 0 -.37-.53c-1.26-1.17-2.5-2.37-3.74-3.56a29.68 29.68 0 0 1 -2.13-2.34c-.52-.62-1.08-1.21-1.65-1.8-.15-.16-.34-.32-.27-.59s.29-.41.57-.45a.31.31 0 0 0 .31-.15c0-.53.57-.64.74-1 .11-.13.3.01.4-.21z" fill="#d8dee3"/><path d="m41.62 86c.43.66 1.27.8 1.78 1.37l-.88.9c-.18 0-.36-.09-.54-.11.18 0 .36.07.54.11a14.79 14.79 0 0 1 -2.85 2.25 20 20 0 0 1 -6.83 2.93 25 25 0 0 1 -7.87.33h-.65a.3.3 0 0 1 -.34 0 16.53 16.53 0 0 1 -2.93-1c-.35-.18-.77-.18-1.09-.43-.12-.1-.2 0-.3.06-.33.14-.41.1-.44-.24 0-.18-.12-.23-.24-.29-.83-.48-1.69-.93-2.51-1.44a9.91 9.91 0 0 1 -1.09-.69 23.1 23.1 0 0 1 -5-5 17.75 17.75 0 0 1 -1.57-2.56 14 14 0 0 1 -1-2.77c-.19-.79-.41-1.57-.59-2.37a7.66 7.66 0 0 1 -.14-1c.02-.69-.08-1.48-.08-2.28a12.49 12.49 0 0 1 .21-2.77c.07-.32 0-.65.08-1a33 33 0 0 1 2-7.08 13.75 13.75 0 0 1 1-2.09c.07-.12.1-.3.3-.29.47-.54.84-1.25 1.43-1.57s.5-.88 1-1a22.27 22.27 0 0 0 1.98 2.15c.44.46.8 1 1.25 1.45 1.42 1.44 2.84 2.88 4.3 4.28.34.32.76.53.84 1 .66-.15.72.72 1.28.76.11.13 0 .26 0 .38-.16.57-.34 1.14-.45 1.73a.73.73 0 0 1 -.07.19.87.87 0 0 1 -.73.62.77.77 0 0 1 -.66-.69q-.19-.88-.33-1.8a3.38 3.38 0 0 0 -.14-.63.91.91 0 0 0 -1.15-.58 2.09 2.09 0 0 0 -1.07.72 8 8 0 0 0 -1 1.47 4.19 4.19 0 0 0 -.55 1.81 1.38 1.38 0 0 1 -.1.4c0 .06-.07.15 0 .18.37.18.14.34 0 .53a1.41 1.41 0 0 0 -.15.9 18.17 18.17 0 0 0 .79 5c.24.77.63 1.47.87 2.24a29.67 29.67 0 0 0 1.07 2.92 2.12 2.12 0 0 1 .21.69 12.71 12.71 0 0 1 -.15 1.95 6.61 6.61 0 0 0 .94 3.78.51.51 0 0 0 .09.13c.1.1.23.25.38.14s.09-.26 0-.37a12.45 12.45 0 0 1 -.74-2.32 1.3 1.3 0 0 1 0-.65c.12-.74.09-1.5.21-2.25a1.53 1.53 0 0 1 1.47-1.12c.32 0 .62-.16.94-.21.68-.11 1.36-.22 2-.31a17.88 17.88 0 0 0 2.76-.46c.69-.24 1.41-.38 2.08-.69a4.89 4.89 0 0 0 1.61-1.13c.11-.12.27-.18.38-.3s.42-.31.39-.63c0-.1.08-.12.15-.17a.6.6 0 0 0 .3-.5c0-.31.23-.53.25-.82 1.59 1.47 3.16 2.95 4.75 4.4a16.51 16.51 0 0 0 2.21 1.84 1.35 1.35 0 0 1 .26.44c-.41.4-.84.79-1.22 1.23a6.22 6.22 0 0 1 -1.38 1.12.37.37 0 0 0 -.21.23c0 .07-.1.21.1.16s.17 0 .19.09 0 .12-.1.17l-.14.08c-.06 0-.18 0-.16.14s.14.09.21.07c.34-.07.6.19.94.21a2.84 2.84 0 0 0 2.56-1 .58.58 0 0 1 .24-.14 1.43 1.43 0 0 0 .67-.57.34.34 0 0 1 .43-.23z" fill="#beccda"/><path d="m95.54 83.31-3-2.74c-1.49-1.39-3-2.77-4.45-4.17-.45-.43-.88-.9-1.32-1.34 0-.21.21-.19.35-.22.76-.18 1.56-.19 2.32-.38a7.31 7.31 0 0 0 3.22-1.28 2.92 2.92 0 0 0 1.13-1.18 2.18 2.18 0 0 0 -.11-1.59.93.93 0 0 0 -.75-.56 4.23 4.23 0 0 0 -1.18 0 3.73 3.73 0 0 1 -1.48-.19.44.44 0 0 1 -.35-.4.7.7 0 0 1 .32-.71 9.32 9.32 0 0 1 1.07-.59c1.45-.61 2.94-1.14 4.43-1.63.57-.18 1.14-.37 1.68-.6a4.67 4.67 0 0 0 1.66-1 8.53 8.53 0 0 1 .8-.79c.48-.41.34-1-.08-1.49a4.42 4.42 0 0 0 -3-1.33 14.32 14.32 0 0 0 -5.25.45 17.38 17.38 0 0 0 -3.68 1.38c-.24.13-.51.19-.75.33a.7.7 0 0 1 -.54.12.54.54 0 0 1 -.3-.92 8.68 8.68 0 0 0 1-2.15 3.58 3.58 0 0 0 .2-.78c.17-.91-.6-1.43-1.33-1.58a3.06 3.06 0 0 0 -2.5.74 10.37 10.37 0 0 0 -1.5 1.29 15.19 15.19 0 0 0 -1.15 1.71c-.39.61-.66 1.28-1 1.9a2.93 2.93 0 0 0 -.18.66c-.23.83-.59 1.61-.81 2.43 0 .12-.08.24-.21.29a9.75 9.75 0 0 0 -1.88-2c-1.29-1.35-2.75-2.52-4-3.95-1-1.21-2.08-2.38-3.13-3.57-.33-.12-.27-.38-.24-.64l.25-.18c.07 0 .15-.05.16-.14a19.79 19.79 0 0 1 7.84-3.72 24.72 24.72 0 0 1 10.2-.18 25.41 25.41 0 0 1 8 3 14.34 14.34 0 0 1 2.22 2c.24.22.69.36.75.62.17.67.71 1.07 1 1.65s.82 1.23 1.17 1.87a26 26 0 0 1 2.1 4.77c.29.93.61 1.86.87 2.8.11.37-.14.89.46 1-.12.09-.36.18-.36.27 0 .76.08 1.53.15 2.29a2.15 2.15 0 0 1 -.06.58c0 .4.27.8.1 1.08s-.24.42.19.28h.06s-.11.16-.17.16c-.42 0-.33.19-.3.52a7.81 7.81 0 0 1 -.23 1.72 7.42 7.42 0 0 1 -.44 2 16.91 16.91 0 0 0 -.5 2 14 14 0 0 1 -1.85 3.35c-.11.15-.2.32-.3.48a7.6 7.6 0 0 1 -1.15 1.55l-2-1.55a.59.59 0 0 1 .31-.49 2.6 2.6 0 0 0 1.09-1.31.19.19 0 0 1 .1-.13 2 2 0 0 0 1-1.53c.11-.47.4-.86.52-1.33.06-.21.18-.39.06-.62s0-.22.08-.33c.24-.33.21-.44-.14-.61-.09 0-.2-.06-.18-.18 0-.31-.19-.3-.39-.34a3.82 3.82 0 0 0 -1.81 0 .57.57 0 0 0 -.45.79c.06.17.09.28-.14.3a.16.16 0 0 0 -.16.11 2.86 2.86 0 0 1 -.22 1c0 .09.09.15.14.23s.07.23-.08.24-.2.21-.18.39.08.4-.24.25-.18.07-.23.16a3.62 3.62 0 0 1 -.55 1.07.31.31 0 0 0 0 .31.28.28 0 0 1 -.19.36c-.25.11-.41.12-.51-.08z" fill="#d8dee3"/><path d="m62.18 69.12c.17.3-.16.55-.08.84s.22.64.12.76c-.32.35-.29.55.09.77-.1.12-.36-.19-.37.12v2.44c0 .41.07.82.11 1.22a12.24 12.24 0 0 0 .95 3.89 3.25 3.25 0 0 1 .17.63c.07.08.19.12.16.26a4.19 4.19 0 0 1 .51.93 8.64 8.64 0 0 0 1.45 2.63 24.07 24.07 0 0 0 5.31 5.9 22.78 22.78 0 0 0 2.21 1.58 38.4 38.4 0 0 0 5.19 2.43 21 21 0 0 0 6.39 1.16c1 0 1.9-.11 2.84-.19.18 0 .43-.11.52.09s-.12.32-.28.44a5 5 0 0 1 -2.58.69 19.66 19.66 0 0 1 -7.59-.77 22.73 22.73 0 0 1 -3.3-1.23 21.67 21.67 0 0 1 -6.17-4 9.81 9.81 0 0 1 -1.22-1.42c-.29-.37-.8-.71-1.12-1.14s-.71-1.34-1.1-1.74a16.79 16.79 0 0 1 -1.83-2.93 13.91 13.91 0 0 1 -2.1-6.06 25.11 25.11 0 0 1 1-9.6 19 19 0 0 1 2.85-5.77c.53-.75 1-1.54 1.49-2.31a.94.94 0 0 1 .16-.23c.2-.15.44-.48.63-.33s-.09.42-.21.62a33.51 33.51 0 0 0 -3.33 6.29 11.39 11.39 0 0 0 -.87 4.03z" fill="#2b3c58"/><path d="m10.62 60.54a28.18 28.18 0 0 0 -3.07 8.6 20.47 20.47 0 0 0 -.27 6.86 23.61 23.61 0 0 0 1.46 5.6 18.12 18.12 0 0 0 4.43 6.2 19.2 19.2 0 0 0 2.47 2c1.17.82 2.45 1.43 3.66 2.15l.18.08c-.07.11-.21.22-.2.32s.2.08.3 0 .12-.24.3-.16c.58.24 1.16.5 1.75.7.89.31 1.79.57 2.69.85a9.37 9.37 0 0 0 3.64.51c.23 0 .62-.13.65.16s-.35.48-.66.54a15.44 15.44 0 0 1 -6.79-.41 29.68 29.68 0 0 1 -4.88-2 .41.41 0 0 1 -.13-.1c.09 0 .27-.11.27-.17 0-.21-.17-.09-.27-.1s-.26.05-.35 0a17.38 17.38 0 0 1 -1.8-1.08 18.12 18.12 0 0 1 -3.44-3.09c-.59-.75-1.13-1.56-1.68-2.33a14.27 14.27 0 0 1 -1.88-3.57 22.29 22.29 0 0 1 -1-4.63 23 23 0 0 1 0-5.74 28 28 0 0 1 1.33-5.55 21.34 21.34 0 0 1 2.22-5.18c.36-.53.75-1 1.14-1.56a.45.45 0 0 1 .4-.12c.21.11 0 .25-.05.36-.13.32-.28.59-.42.86z" fill="#2b3c58"/><path d="m59.31 61.29c-.28-.13-1 .13-.49-.67.09-.12-.43-.38-.73-.47-.59-.18-1.19-.34-1.79-.51-.62 0-1.25 0-1.88 0a3 3 0 0 1 -1 .06.8.8 0 0 1 -.26-.09l-1.71-2.52a11 11 0 0 1 4.41-1.68c.49-.07 1 .1 1.43.07a3.94 3.94 0 0 1 1.5.17 4.38 4.38 0 0 1 1.76.93c.45.43.61 0 .75-.14a29.39 29.39 0 0 1 5.7-4.62 16.35 16.35 0 0 1 5.13-2.34.5.5 0 0 1 .57.26c.08.21-.22.21-.36.26a27.4 27.4 0 0 0 -7.83 5.08 11.13 11.13 0 0 0 -2.61 2.74c-.57 1-1.35 2-1.9 3a.92.92 0 0 1 -.69.47z" fill="#2b3c58"/><path d="m48.54 67.58c-.09-.3-.39-.13-.42-.09-.17.22-.34.26-.55.12a.26.26 0 0 1 0-.24.5.5 0 0 1 .61-.18c.16.07.25.1.26-.11a.47.47 0 0 1 .1.5z" fill="#7b8794"/><path d="m65.29 91.72c-.1-.48.34-.26.51-.37a.42.42 0 0 1 .51.14c.09.12 0 .11-.12.12l-.91.1z" fill="#fff"/><path d="m46.1 91.71-.63-.1c-.14 0-.42.07-.39-.08s.34-.27.5-.18.61-.1.51.37z" fill="#fff"/><path d="m57.86 65.86.09-.17c.2.26.47-.33.63 0 .05.11.11.4-.07.39a1.89 1.89 0 0 1 -.65-.22z" fill="#acafb8"/><path d="m53.43 65.69.09.17a1.89 1.89 0 0 1 -.65.26c-.18 0-.12-.28-.07-.39.2-.37.43.27.63-.04z" fill="#acafb8"/><path d="m19.62 97.24a.32.32 0 0 1 -.4-.28s.11-.14.12-.13.42 0 .47.24c.02.05-.15.14-.19.17z" fill="#e9e9ea"/><path d="m91.75 97.24s-.2-.12-.18-.17c.06-.22.31-.15.47-.25 0 0 .13.11.12.14s-.16.31-.41.28z" fill="#e9e9ea"/><path d="m53.86 68.38.15.34c-.26-.19-.57.43-.7 0s.46-.02.55-.34z" fill="#b2b5bd"/><path d="m57.37 68.72.15-.34c.09.32.68.09.59.35s-.47-.23-.74-.01z" fill="#b2b5bd"/><path d="m53.93 73.57c-.21.13-.31.23-.43.25s-.27-.06-.26-.09.16-.18.29-.19a2.43 2.43 0 0 1 .4.03z" fill="#b9bbc2"/><path d="m57.79 73.47.37.23c-.08 0-.18.14-.25.13a1.32 1.32 0 0 1 -.34-.2z" fill="#b9bbc2"/><path d="m61.74 86.1a2.19 2.19 0 0 1 -.38.25s-.1-.07-.16-.1a2.35 2.35 0 0 1 .29-.26s.12.01.25.11z" fill="#f2f1f2"/><path d="m50.27 86.28c-.14 0-.21.08-.27.07a.26.26 0 0 1 -.26-.26s.13-.11.16-.09a2.24 2.24 0 0 1 .37.28z" fill="#f2f1f2"/><path d="m52.63 80c-.08.07-.12.14-.17.14s-.15-.16-.2-.25 0-.07.06-.11z" fill="#b9bbc3"/><path d="m59 80.19c-.08-.09-.17-.17-.16-.18a2.73 2.73 0 0 1 .23-.25s.09.07.09.09-.16.2-.16.34z" fill="#b9bcc3"/><path d="m14 57.34-.18.32-.13-.17z" fill="#beccda"/><path d="m73.63 95.73c.07.09.12.13.13.18s0 .11-.06.17-.12-.08-.15-.14.04-.11.08-.21z" fill="#bcbec5"/><path d="m37.88 95.92-.18.16s-.08-.1-.08-.15.07-.09.11-.14z" fill="#bcbec5"/><path d="m70 56.49c0 .08.14.22.12.23s-.18-.07-.28-.09z" fill="#beccda"/><path d="m15.1 56.13c0 .28-.26.15-.41.17z" fill="#beccda"/><path d="m100.84 85.11.26.13v.08l-.21-.22z" fill="#d8dee3"/><path d="m104.17 77.2.12.11a.28.28 0 0 1 -.09 0 .94.94 0 0 1 -.12-.09z" fill="#d8dee3"/><path d="m53.13 59.65c1.06.08 2.12-.3 3.17 0-.46.4-1 0-1.5.12a4.93 4.93 0 0 0 -1.14.18c-.29.1-.43-.05-.53-.3z" fill="#5a6979"/><path d="m113.89 25.39a11.53 11.53 0 0 0 -.11-3.42 23 23 0 0 0 -.51-2.33c0-.11 0-.24.1-.2s.59-.37.72.07a17.06 17.06 0 0 1 .7 4.92c0 .94-.05 1.89-.08 2.84-.23.8-.45 1.62-.7 2.42a11.87 11.87 0 0 1 -1.36 3.55 1.36 1.36 0 0 1 -.67.51c-.15.06-.43-.08-.56-.21s.06-.28.14-.43a18 18 0 0 0 1.32-3c.34-1 .57-2 .83-2.93a4 4 0 0 0 .18-1.79z" fill="#2b3c58"/><path d="m115 29.33c-.09.05-.14.11-.18.11a.5.5 0 0 1 -.17-.1s.09-.1.14-.1.07.04.21.09z" fill="#ef8922"/><path d="m91.64 11.61c-.39-.59-.78-1.17-1.15-1.76-.08-.13-.34-.29-.09-.45a.62.62 0 0 1 .74.1c.83 1 1.6 2.11 2.41 3.16a2 2 0 0 0 .45.34c.3.81 1.06 1.25 1.58 1.88a13.31 13.31 0 0 0 3 3.1s.06.23 0 .24a.79.79 0 0 1 -.76 0 18.12 18.12 0 0 1 -3.3-3.22c-1.03-1.06-1.9-2.27-2.88-3.39z" fill="#2b3c58"/><path d="m91.66 16.56s-.07.05-.09 0a.58.58 0 0 1 -.18-.17s0-.12.08-.12.19.13.19.29z" fill="#f9ceaf"/><path d="m88.45 11.19c-.11 0-.18.09-.21.07a1 1 0 0 1 -.14-.15s.09-.07.12-.06a1.4 1.4 0 0 1 .23.14z" fill="#fad5b9"/><path d="m89.87 14.15c-.09 0-.12 0-.15 0l-.19-.12a.27.27 0 0 1 .12 0 1.2 1.2 0 0 1 .22.12z" fill="#fce6d4"/><path d="m88.38 9s-.08.06-.09 0a.16.16 0 0 1 -.07-.09l.07-.06z" fill="#ef8922"/><path d="m88.3 10.32v-.25s.08 0 .1 0 0 .15-.07.22z" fill="#fdfcfc"/><path d="m100.65 41.8a9.93 9.93 0 0 0 4.12 3.33c.21.09.55.22.46.42s-.42.17-.69.08a9.86 9.86 0 0 1 -5.23-4 6 6 0 0 1 -1-1.77c-.06-.21-.18-.5 0-.63s.63.15.76.39c.44.78 1.09 1.43 1.58 2.18z" fill="#2b3c58"/><path d="m96.69 39.55c0-.08-.08-.12-.08-.17s.08-.09.1-.08a.32.32 0 0 1 .14.12z" fill="#fdeedf"/><path d="m105.55 44.44a.6.6 0 0 1 .14 0s0 .06.06.09a.22.22 0 0 1 -.13.06s-.04-.1-.07-.15z" fill="#fdede0"/><path d="m78.81 67a22.12 22.12 0 0 1 2.94-6.69c.4-.57 1.11-.9 1.53-1.36a4.34 4.34 0 0 1 1.84-1.07 2 2 0 0 1 2.28.58 1.8 1.8 0 0 1 0 2 6.45 6.45 0 0 1 -1 2.1c-.09.1-.29.33-.08.54a.6.6 0 0 0 .78.1c.18 0 .11.11.08.18a2.49 2.49 0 0 1 -.39.62 4.69 4.69 0 0 0 -1 2.09c-.14.48-.31 1-.48 1.42a9.54 9.54 0 0 0 -.62 1.87 2.09 2.09 0 0 1 -.81.78c-.27.19-.35-.05-.36-.24a6.82 6.82 0 0 1 -.07-.9c0-1.55-.12-3.09-.06-4.64a2.61 2.61 0 0 1 .24-1.11 13.94 13.94 0 0 0 .49-1.55s0-.12 0-.15-.12 0-.16.08a1.77 1.77 0 0 0 -.26.41 8.77 8.77 0 0 0 -.73 2.6 9.11 9.11 0 0 0 -.12 2.55 16.82 16.82 0 0 1 .08 3.25 3 3 0 0 1 -.86 1.81 26.25 26.25 0 0 0 -3.07 3.84c-.42.67-.81 1.35-1.29 2a2.11 2.11 0 0 0 -.31.57c-.05.14-.13.25-.29.25a.29.29 0 0 1 -.26-.22 12.6 12.6 0 0 1 -.85-2.33 8 8 0 0 0 -.33-1 20.71 20.71 0 0 1 -.8-3.57c0-.11 0-.21-.06-.32a.94.94 0 0 0 -.06-.15.3.3 0 0 0 0 .16 14.55 14.55 0 0 0 .37 3.07 35.16 35.16 0 0 0 1.42 4.24 1.91 1.91 0 0 1 -.06 1.35c-.26.72-.6 1.4-.88 2.1a6.66 6.66 0 0 0 -.29 1.06c-.08.33-.07.72-.41.93-.65-1.71-1.27-3.43-2-5.13a19.51 19.51 0 0 1 -1.1-6c0-.33-.2-.9.37-1.11 0 0 0-.12.06-.18s0-.05-.08-.06c-.3-.08-.23-.06-.17-.39a10.38 10.38 0 0 1 .89-2.71c.53-1.14 1.83-2.17 2.69-1.87s.79 1 .88 1.67a15.42 15.42 0 0 0 .33 1.8c.05.2.26.44.49.41a.73.73 0 0 0 .74-.58c.23-1.04.52-2.1.81-3.1z" fill="#e87024"/><path d="m84.61 69.28a7 7 0 0 1 .69-2.18 14 14 0 0 1 1-2.88c.22-.36.62-.61.7-1.06a23.12 23.12 0 0 1 4.4-1.73 16.43 16.43 0 0 1 4.4-.55 5.49 5.49 0 0 1 4.27 1.63 1 1 0 0 1 0 1.17c-.13.23-.1.82-.68.5-.06 0-.21 0-.12.12.43.43-.15.49-.27.57a15 15 0 0 1 -3.78 1.65 29.28 29.28 0 0 0 -4.94 2 .59.59 0 0 0 -.35.69c.14.47.62.35 1 .41a10 10 0 0 0 1.34 0 1.63 1.63 0 0 1 1.5 2.53 4.56 4.56 0 0 1 -2.83 2c-1.37.45-2.81.48-4.18.87l-1.55.48c-.24-.26-.15-.61-.25-.92a3.71 3.71 0 0 0 -.34-.89 1.12 1.12 0 0 1 0-1 10.74 10.74 0 0 1 2.38-.51c1.14-.18 2.29-.31 3.41-.56a7.75 7.75 0 0 0 .81-.28c.06 0 .15 0 .13-.12s-.11-.07-.18-.07a2.56 2.56 0 0 0 -.87.19 8.4 8.4 0 0 1 -1.71.36c-1.09.13-2.16.38-3.26.5a5.47 5.47 0 0 0 -1.9.43l-.15.05c-.24.06-.52.26-.71 0s.06-.49.22-.68a24.3 24.3 0 0 1 1.67-1.84 26.9 26.9 0 0 1 3.12-2.72c.64-.51 1.31-1 2-1.46a12.76 12.76 0 0 1 3.85-2 14.89 14.89 0 0 1 2.1-.49 1.45 1.45 0 0 0 .36-.08s.15 0 .13-.11-.09 0-.14 0a12.94 12.94 0 0 0 -1.41.21 7.6 7.6 0 0 0 -2.38.84c-.58.33-1.21.6-1.82.89a13.77 13.77 0 0 0 -2.65 1.74c-.35.26-.69.52-1 .77a13.4 13.4 0 0 0 -1.54 1.25c-.08.13-.24.33-.47.28z" fill="#ef8922"/><path d="m84.61 69.28a24.32 24.32 0 0 1 5-3.87 13.87 13.87 0 0 1 6.13-2.27c.24 0 .62 0 .61.09 0 .26-.38.29-.61.32a13.53 13.53 0 0 0 -6.14 2.53 35.79 35.79 0 0 0 -5.77 4.92c-.37.41-.71.85-1 1.28a.42.42 0 0 0 -.09.32c.07.15.24.09.36 0 2-.73 4.07-.75 6.1-1.13a17 17 0 0 0 1.8-.47c.29-.09.61 0 .68.18s-.29.2-.47.27c-1.81.66-3.75.65-5.6 1.06-.31.06-.62.16-.93.24-.76.38-1.59.59-2.37.94a5.05 5.05 0 0 0 -2.17 2.07c-.64 1-1.3 2-1.91 3.07-.34.58-.62 1.18-.92 1.77 0 0-.06.1 0 .14s.07 0 .11-.06a6.28 6.28 0 0 1 3.14-.65 11 11 0 0 0 3.44-.41c.29-.09.59-.09.87-.19a.93.93 0 0 1 .81-.1.36.36 0 0 1 .27.32c0 .15-.15.17-.26.23a9.63 9.63 0 0 1 -1.2.32 15 15 0 0 1 -4.22.45 6.1 6.1 0 0 0 -3.1.85.54.54 0 0 0 -.29.37 13.6 13.6 0 0 0 -.69 2c0 .16-.14.26-.19.4-.12.6-.11 1.21-.17 1.79a4.48 4.48 0 0 0 -.11 1.74 6.13 6.13 0 0 0 .71 2.23.63.63 0 0 1 0 .63.46.46 0 0 1 -.63-.18 6.7 6.7 0 0 1 -1-4.23c.08-.7.11-1.39.17-2.09.35-1.55 1.07-3 1.56-4.47.32-1-.43-1.82-.73-2.71a15.73 15.73 0 0 1 -1.08-5.75c0-.12 0-.29.16-.29s0 .17.06.25c.36 1.44.53 2.92 1 4.33.36 1 .71 2.09 1.06 3.13 0 .06.11.14.15.13a.26.26 0 0 0 .17-.14 30.34 30.34 0 0 1 2.64-4.09c.72-1 1.53-1.84 2.32-2.74s.63-2.09.58-3.19a16.41 16.41 0 0 1 .07-4.62 6.3 6.3 0 0 1 1.07-2.63.35.35 0 0 1 .27-.11c.13.06 0 .19 0 .28a11.48 11.48 0 0 0 -.75 5.74c.09.84 0 1.69 0 2.54a1.34 1.34 0 0 0 .07.27 1.55 1.55 0 0 0 .22-.12z" fill="#ce5628"/><path d="m84.86 79.55a16.82 16.82 0 0 1 -4.74.62 4.93 4.93 0 0 0 -2.78.72 2.29 2.29 0 0 1 -.27.14 2 2 0 0 1 .08-.26 32.14 32.14 0 0 1 2.5-4.38 6.68 6.68 0 0 1 1.88-2.33 8.16 8.16 0 0 1 3.16-1.27.79.79 0 0 0 0 .8 4.84 4.84 0 0 1 .52 2l-1.5.67a.49.49 0 0 0 -.31.64c.1.32.34.19.56.16l1.23-.16a.12.12 0 0 1 .17.11c0 .46.14 1-.2 1.36-.09.1-.2.2-.12.36.22.27.04.57-.18.82z" fill="#e87024"/><path d="m95.54 83.31c.23 0 .46.31.49-.3a2.34 2.34 0 0 1 .85-1.65c.35-.22 0-.44.17-.47.46-.07.06-.36.14-.47.22-.32.11-.92.26-1 .5-.22.07-.61.29-.88a1.85 1.85 0 0 1 1.87-.48c.3 0 1.11-.36 1 .56.43 0 .62.16.49.6a12.44 12.44 0 0 1 -.5 1.74c-.32.68-.38 1.51-.94 2a19.56 19.56 0 0 1 -2 2.08c-.46.39-.91.8-1.39 1.16-.14.11-.3.44-.56.13a.19.19 0 0 0 -.17 0c-.44.82-.46.69-1.8.93a5.42 5.42 0 0 1 -1.4 0 1.52 1.52 0 0 1 -.25-.09l.23-.14.86-.32c-.35-.19-.65.13-1 .12a1.85 1.85 0 0 0 -.5.1l.36-.2c.08 0 .06-.06 0-.09s-.31.06-.28-.12.25-.11.39-.12a3.31 3.31 0 0 0 .44 0 2.54 2.54 0 0 0 .44-.15c-.09-.19-.26-.09-.4-.11h-.26c.06-.06.12-.13.19-.19a19.44 19.44 0 0 1 2-1.72c.44-.23.58-.67.98-.92z" fill="#fff"/><path d="m76 84.31a6.46 6.46 0 0 1 .86-2.67c.35-.62 1.24-.74 1.94-.94 1.25-.36 2.56-.09 3.83-.28a16.55 16.55 0 0 1 1.85-.29.64.64 0 0 1 .07.69 3.79 3.79 0 0 1 -1.21 1.83 13.5 13.5 0 0 1 -2.34.35c-1.17.17-2.35.3-3.51.57a2.86 2.86 0 0 0 -1.49.74z" fill="#e87024"/><path d="m83.31 82.65a8.87 8.87 0 0 0 1.06-1.71 5.42 5.42 0 0 0 .08-.81c.28-.32.74-.07 1-.32a1.86 1.86 0 0 1 .34-.19.44.44 0 0 0 -.49-.22 4 4 0 0 0 -.49.15c.23-.37 0-1 .09-1.09.45-.37.34-.82.38-1.25 0-.11-.06-.24-.09-.36a5.11 5.11 0 0 1 2.27.21c.37.12.86.38.72 1 .21 0 .37.06.41.36a1.48 1.48 0 0 1 -.71 1.28c-.16.06.24.26 0 .43a5.67 5.67 0 0 0 -1.08.87 5.49 5.49 0 0 1 -2.49 1.35c-.31.15-.67.21-1 .3z" fill="#ef8922"/><path d="m69.84 71c-.24.45.29 1.18-.46 1.42s-1.2-.47-1-1.55c.07-.4-.27-.92.31-1.19-.33-.18-.14-.47-.12-.7a2.31 2.31 0 0 1 1.63-2.07.79.79 0 0 1 .76.24c.18.18-.07.35-.18.5-.78 1.03-.68 2.25-.94 3.35z" fill="#ef8922"/><path d="m66 70.92c.07-.15-.23-.59.32-.6 0 0 .05-.11.05-.18s-.37-.23-.19-.35a1.19 1.19 0 0 1 1.2-.11.58.58 0 0 1 .28.67 5 5 0 0 0 .26 2c.16.67.33 1.33.46 2a1.12 1.12 0 0 1 -.5.22 1.17 1.17 0 0 1 -1.28-1 6.66 6.66 0 0 1 -.6-2.65z" fill="#ef8922"/><path d="m63.32 80.05-.16-.26c.19-.33.54-.28.84-.35 0 0 .07.07.06.08-.18.23-.35.54-.74.53z" fill="#6b7989"/><path d="m67.48 58.76h.39.54c-.07.06-.14.16-.2.16-.26 0-.6.2-.73-.23z" fill="#687786"/><path d="m83.51 90.51c-.08 0-.19 0-.13-.05.22-.33.64-.14.92-.33 0 0 .07 0 .11.05a1.9 1.9 0 0 1 -.9.33z" fill="#7b8a99"/><path d="m63 74.91a1.23 1.23 0 0 1 .17.31s-.07.12-.11.18-.18-.13-.2-.21.04-.19.14-.28z" fill="#60707f"/><path d="m65 63.42c-.11.07-.18.13-.21.11a1.43 1.43 0 0 1 -.24-.19s.1-.11.14-.1a2.32 2.32 0 0 1 .31.18z" fill="#6a7988"/><path d="m66.67 84.75c-.17.06-.26.12-.3.1a1 1 0 0 1 -.23-.19c.06 0 .12-.07.17-.06a2.85 2.85 0 0 1 .36.15z" fill="#697888"/><path d="m19.12 83.71c-.72-1.92-1.5-3.82-2.14-5.77a13.93 13.93 0 0 1 -.77-5.84c0-.2.07-.25.23-.29s.09-.09.11-.15a.18.18 0 0 0 -.1-.09c-.6.09-.16-.22-.15-.37a5.8 5.8 0 0 1 .85-2.61c.46-.71.85-1.52 1.76-1.77s1.52.18 1.63 1.18c.06.63.22 1.25.33 1.87.05.31.21.59.52.57a.68.68 0 0 0 .63-.55c.2-.76.43-1.51.65-2.27a21.09 21.09 0 0 1 2.68-6.73 6.58 6.58 0 0 1 1.34-1.53 4.34 4.34 0 0 1 3.31-1.36 1.63 1.63 0 0 1 1.23 2 6.66 6.66 0 0 1 -1.09 2.45c-.38.45-.17.75.4.79.21-.07.24 0 .22.21a.71.71 0 0 1 -.21.39 4.09 4.09 0 0 0 -.94 1.91 33.68 33.68 0 0 1 -1.15 3.24l-.1.27a1.85 1.85 0 0 1 -.66.7c-.18.14-.31.08-.33-.15a6.77 6.77 0 0 1 -.06-.89c0-1.23-.1-2.45-.13-3.67a5.14 5.14 0 0 1 .44-2.5c.16-.33.12-.72.31-1 0 0 0-.09 0-.11s-.1 0-.14 0a.18.18 0 0 0 -.05.07 6.88 6.88 0 0 0 -.74 1.77c-.06.47-.14.94-.24 1.4a8.81 8.81 0 0 0 0 2.76 17.5 17.5 0 0 1 .07 2.4 3.45 3.45 0 0 1 -1.08 2.21 25.41 25.41 0 0 0 -3.27 4.37c-.31.55-.71 1-1 1.62-.16.3-.43.26-.58-.12a14.27 14.27 0 0 1 -.64-1.76c-.22-.81-.48-1.61-.72-2.42s-.28-1.66-.49-2.47a1.09 1.09 0 0 0 -.08-.31.61.61 0 0 0 -.06.35 26.64 26.64 0 0 0 .39 2.66 32.72 32.72 0 0 0 1.37 4.09 2.05 2.05 0 0 1 -.07 1.54c-.3.69-.57 1.39-.86 2.07-.2.48-.2 1-.38 1.5-.07.13-.03.31-.24.34z" fill="#e87024"/><path d="m28.24 69.28c.6-1.64 1.18-3.29 1.8-4.92a3.92 3.92 0 0 1 .52-.71c.06-.1.24-.27 0-.34a21.92 21.92 0 0 1 5.44-2.05 12.36 12.36 0 0 1 5.48 0 3.83 3.83 0 0 1 1.9 1.33 1 1 0 0 1 -.08 1.19 5.42 5.42 0 0 1 -1.75 1.52c-1.92.74-3.85 1.43-5.76 2.17-.65.25-1.25.59-1.88.88a.61.61 0 0 0 -.33.61c0 .26.25.3.46.36a7 7 0 0 0 1.89.11 1.61 1.61 0 0 1 1.36 2.45c-.85 1.42-2.31 1.9-3.8 2.25a22.88 22.88 0 0 0 -4 .89.45.45 0 0 1 -.55.22 9.14 9.14 0 0 0 -.29-1.38c-.09-.33-.34-.61-.31-1 0-.13 0-.27.05-.39a.67.67 0 0 1 .45-.24c1.06-.2 2.12-.37 3.18-.52a9.93 9.93 0 0 0 2.69-.62c.08 0 .24 0 .21-.14s-.19-.09-.29-.07c-.44.11-.86.25-1.29.37-.67.19-1.38.17-2.05.34-1.07.28-2.18.27-3.25.53-.37.08-.7.24-1 .34-.18 0-.39.12-.52-.07s0-.35.1-.52a11.52 11.52 0 0 1 1.38-1.58 22.61 22.61 0 0 1 2.3-2.18c.86-.68 1.75-1.33 2.62-2a12.29 12.29 0 0 1 3.9-2.11 13 13 0 0 1 2.18-.56 1.16 1.16 0 0 0 .32-.08s.07 0 .06 0 0 0-.08 0a3.13 3.13 0 0 0 -.61 0 9.5 9.5 0 0 0 -3.23 1.05c-.5.29-1.05.51-1.58.76a13.33 13.33 0 0 0 -2.66 1.79c-.39.32-.81.59-1.21.9s-.79.78-1.22 1.13c-.15.1-.28.33-.55.29z" fill="#ef8922"/><path d="m41.62 86c-.54.45-1.09.9-1.61 1.37a3.21 3.21 0 0 1 -2.54.68c-.3 0-.58-.25-.92-.22-.09 0-.18-.14-.27-.21l.35-.17.27-.16h-.28-.16c.22-.12-.05-.34 0-.39 1.19-.6 1.87-1.82 3-2.5a24.08 24.08 0 0 0 2.54-4.25c.14-.4.23-1 .52-1.14.54-.3.16-.91.57-1.17a1.7 1.7 0 0 1 1.64-.2c.3.17 1 .12.93.81 0 .27 0 .46-.23.63a2.23 2.23 0 0 0 -.26.27l.28-.08a2.52 2.52 0 0 1 0 .67 12.46 12.46 0 0 1 -2.85 5c-.3.4-.6.73-.98 1.06z" fill="#fff"/><path d="m32.33 77.76a2.57 2.57 0 0 1 -.45 1.46 5.7 5.7 0 0 1 -1.05 1.15 6.52 6.52 0 0 1 -2.83 1.49c-.27.06-.53.14-.8.21a.68.68 0 0 1 .24-.57 3.45 3.45 0 0 0 .71-1.11.51.51 0 0 0 .06-.32.56.56 0 0 1 .36-.64 4.75 4.75 0 0 0 .73-.23s.11 0 .1-.1-.1-.1-.15-.1-.29 0-.44 0a.15.15 0 0 1 -.11-.2 1.09 1.09 0 0 0 0-.71.23.23 0 0 1 .06-.26c.44-.4.32-.91.3-1.41 0-.16.17-.14.28-.15a5.13 5.13 0 0 1 1.66.16c.51.13.78.57 1.14.89 0 .09 0 .19.13.21z" fill="#ef8922"/><path d="m36.2 76.41h-.59a2.66 2.66 0 0 1 -.38-.1c.23 0 .06-.3.28-.41a8.65 8.65 0 0 0 3-2.54 1 1 0 0 1 1.24-.36c.53.19.4 1-.21 1.49s-1.21.91-1.83 1.35a3.23 3.23 0 0 1 -1.51.57z" fill="#ef8922"/><path d="m31 76.47h-1.91a3.56 3.56 0 0 1 -1.48.3c-.16 0-.29-.12-.35-.29a.47.47 0 0 1 .15-.55 3.47 3.47 0 0 1 1.61-.7l.55-.17z" fill="#d4dbe1"/><path d="m48.11 72.37c-.09-.14-.17-.22-.18-.31s.08-.14.12-.21.21.12.22.19-.08.18-.16.33z" fill="#707d8b"/><path d="m47.38 68c.09 0 .24.09.25.15s-.2 0-.25.15l-.26-.14z" fill="#7a8693"/><path d="m44.05 59.4a2.88 2.88 0 0 1 -.13-.45c0-.05.07-.12.1-.17a1.73 1.73 0 0 1 .14.31s-.04.12-.11.31z" fill="#697785"/><path d="m45.61 62.28c-.1.07-.16.14-.19.12a2.19 2.19 0 0 1 -.29-.17s.1-.13.12-.13a3 3 0 0 1 .36.18z" fill="#74808e"/><path d="m28.11 55.51-.19-.07.45-.12h.17c-.07.22-.24.16-.43.19z" fill="#6e7c8a"/><path d="m45.85 83.9c-.1 0-.17.11-.2.09s-.15-.13-.23-.19.1-.11.13-.1a2.2 2.2 0 0 1 .3.2z" fill="#647381"/><path d="m48.55 73.56.16.1a1.16 1.16 0 0 1 -.26.15c-.05 0-.11-.07-.17-.11z" fill="#788491"/><path d="m47.38 74 .15.2c-.05 0-.1.1-.14.09a.2.2 0 0 1 -.12-.13s.05-.04.11-.16z" fill="#6c7987"/><path d="m32.23 77.57-.29.07.16-.28z" fill="#d4dbe1"/><path d="m15.78 55.93a.87.87 0 0 1 .1.2s-.06.07-.08.06a.13.13 0 0 1 -.08-.08s.01-.05.06-.18z" fill="#beccda"/><path d="m15.6 56.66-.13.07s0-.09 0-.11a.23.23 0 0 1 .11-.08z" fill="#beccda"/><path d="m14.26 57.28a.42.42 0 0 1 .05.1.48.48 0 0 1 -.09.11s-.07-.05-.06-.07a1.37 1.37 0 0 1 .1-.14z" fill="#beccda"/><path d="m17 55.38-.06-.13h.09s0 0 0 .06-.03.02-.03.07z" fill="#beccda"/><path d="m28.81 79c.3-.1.69-.24.81.11s-.4.21-.62.34-.28 0-.43 0a4.53 4.53 0 0 1 -1.48.49c-1.21.18-2.43.09-3.64.25a6 6 0 0 0 -2.2.78.64.64 0 0 0 -.3.42 14.2 14.2 0 0 0 -.62 1.84c0 .3-.28.57-.32.9.09 1.14-.45 2.27 0 3.4.22.56.12 1.22.61 1.7a.67.67 0 0 1 -.06.62.5.5 0 0 1 -.63-.24 6.51 6.51 0 0 1 -1-4c.08-.63.1-1.26.15-1.89a21.48 21.48 0 0 1 1.44-4.2 2.6 2.6 0 0 0 -.35-2.1 18.51 18.51 0 0 1 -1.45-5.89 2.29 2.29 0 0 1 .14-.68c.28.1.21.38.23.56a33.21 33.21 0 0 0 1.35 5.3c.15.47.33.93.5 1.38 0 .11.13.25.21.27s.12-.16.18-.24c.79-1.23 1.55-2.47 2.4-3.65s1.71-2 2.5-3.11a3.9 3.9 0 0 0 .39-2.88 14.39 14.39 0 0 1 .38-5.48 7.83 7.83 0 0 1 .64-1.34.44.44 0 0 1 .44-.23 1.76 1.76 0 0 1 -.06.41 11.58 11.58 0 0 0 -.61 6 11.22 11.22 0 0 1 0 1.64c0 .62.15.65.51.2l.31-.36a26.59 26.59 0 0 1 4.52-3.62c2.05-1.23 4.15-2.47 6.68-2.5a1.21 1.21 0 0 1 .31.09 1.25 1.25 0 0 1 -.24.16 34.34 34.34 0 0 0 -3.56 1 21.79 21.79 0 0 0 -4.29 2.79 22.13 22.13 0 0 0 -3.34 2.92c-.57.64-1.13 1.29-1.68 1.94-.06.07-.06.19-.09.29s.24.09.33 0a33.42 33.42 0 0 1 6-1.12 11 11 0 0 0 1.67-.5c.26-.09.59 0 .66.14s-.26.23-.42.29c-1.89.72-3.93.67-5.87 1.15-.15 0-.3.11-.45.16a2.08 2.08 0 0 1 -.75.32 8.15 8.15 0 0 0 -2.11.94 4.67 4.67 0 0 0 -1.52 1.72c-.26.42-.49.84-.76 1.25a21.77 21.77 0 0 0 -1.79 3.26c0 .08-.13.21-.09.25s.19 0 .28-.07a6.14 6.14 0 0 1 2.8-.56 12.66 12.66 0 0 0 3.48-.52 1.8 1.8 0 0 1 .81-.1z" fill="#ce5628"/><path d="m20 84.16a5.91 5.91 0 0 1 1-3.08 3.7 3.7 0 0 1 2.8-1c1.19-.07 2.38-.11 3.56-.21a6.5 6.5 0 0 0 1.19-.36c-.45.37-.17 1-.57 1.44a8.82 8.82 0 0 0 -.82 1.15 25.68 25.68 0 0 1 -3.16.51c-1.07.16-2.13.36-3.18.61a1.24 1.24 0 0 0 -.82.94z" fill="#e87024"/><path d="m12.25 72.83c0-1 0-1.85 0-2.67 0-.66 0-.64.49-.93 0 0-.22-.43.12-.57a1.77 1.77 0 0 1 1.3 0 .41.41 0 0 1 .18.37 3.86 3.86 0 0 0 -.29 1.67 14.71 14.71 0 0 0 0 2.57 1.27 1.27 0 0 1 -.11.84c-.09.15.4.33.39.67s.31.56-.09.68-.94.3-1.28-.19a5.42 5.42 0 0 1 -.71-2.44z" fill="#ef8922"/><path d="m12.26 76.29c-1.06 0-1.38-.62-1.61-1.67a11.49 11.49 0 0 1 -.53-1.72.51.51 0 0 1 .46-.64c.41-.06.88 0 1 .46a12.65 12.65 0 0 0 1.13 3c.29.5-.23.52-.45.57z" fill="#ef8922"/><path d="m42.52 88.28h-.82s-.09-.05-.13-.07.1-.11.15-.12a.82.82 0 0 1 .8.21z" fill="#566676"/><path d="m96.35 72.85c-.17.09.16.66-.43.52 0 0-.11.06-.11.1a3.32 3.32 0 0 1 -3.93 2.42c-.09 0-.27 0-.24-.12a.42.42 0 0 1 .24-.28 5.33 5.33 0 0 0 2.94-3c.23-.42.68-.33 1.06-.28s.55.19.47.64z" fill="#ef8922"/><path d="m88.56 53.21-.24-.21c.09-.05.19-.16.26-.14a.42.42 0 0 1 .24.23c.02.2-.13.1-.26.12z" fill="#677584"/><path d="m69.84 57.45.08-.28s.06 0 .06 0 0 .19-.14.25z" fill="#beccda"/><path d="m103.9 75.45a2 2 0 0 1 -.15-.29s0-.06.07-.09l.1.17a1.24 1.24 0 0 1 -.02.21z" fill="#566676"/><path d="m20.25 92.67c-.11 0-.16.07-.19.06l-.27-.15s.11-.12.14-.11.17.11.32.2z" fill="#a7b6c6"/><path d="m28.81 79a16.19 16.19 0 0 1 -5.08.73 5.36 5.36 0 0 0 -2.3.67l-.21.1c0-.07 0-.15.05-.22a18.21 18.21 0 0 1 2-3.63c.44-.64.79-1.35 1.27-2a6.18 6.18 0 0 1 3.26-1.94c.21-.07.44-.11.66-.17-.08.72.39 1.29.5 2a1.08 1.08 0 0 1 0 .71c-.45.21-.9.44-1.36.64a.45.45 0 0 0 -.3.57c.07.3.31.23.55.19s.79-.11 1.18-.16a1.43 1.43 0 0 1 -.16 1.43c-.16.23-.04.69-.06 1.08z" fill="#e87024"/><path d="m11.05 75-.08.22s-.09-.1-.08-.14a.86.86 0 0 1 .07-.21z" fill="#c6c3c0"/></svg>