<svg width="120px" height="120px" viewBox="0 0 120 120" id="Layer_1" data-name="Layer 1" xmlns="http://www.w3.org/2000/svg"><defs><style>.cls-1{fill:#29191a;}.cls-2{fill:#f79871;}.cls-3{fill:#95645d;}.cls-4{fill:#d5dbe0;}.cls-5{fill:#768594;}.cls-6{fill:#f37e5d;}.cls-7{fill:#f27c5f;}.cls-8{fill:#b7c2cb;}.cls-9{fill:#2f3e5a;}.cls-10{fill:#a7d2f1;}.cls-11{fill:#c9d4da;}.cls-12{fill:#805455;}.cls-13{fill:#4e3040;}.cls-14{fill:#fff;}.cls-15{fill:#324553;}</style></defs><title>Huzzahs_Black-History</title><path class="cls-1" d="M48.78371,22.04629a8.08858,8.08858,0,0,1-.66324-2.04536,5.69491,5.69491,0,0,0-.389-.97274c-.09259-.27727-.36943-2.28509-.38743-2.468a12.42293,12.42293,0,0,1-.0452-1.93913c.05951-1.01263-.0405-2.02271.00684-3.03585a4.8929,4.8929,0,0,1,.28424-1.38614,22.50075,22.50075,0,0,1,.942-2.22118,10.28995,10.28995,0,0,1,1.06944-2.03049,23.844,23.844,0,0,1,1.98209-2.32724,6.73913,6.73913,0,0,1,2.95483-1.57847,10.859,10.859,0,0,1,1.652-.395,22.54876,22.54876,0,0,1,6.55793-.127,28.23962,28.23962,0,0,1,7.68395,2.23067,19.54907,19.54907,0,0,1,2.88217,1.07129c.667.74734,1.63256,1.19205,2.1062,2.14562.183.3684.58863.59706.75537,1.00916a14.54572,14.54572,0,0,1,.65238,1.4507c.1343.48008.42356,2.99785.526,3.67527a21.89813,21.89813,0,0,1,.234,2.662,14.08623,14.08623,0,0,1-.37812,3.39456,5.29268,5.29268,0,0,0-.19713,1.95156,3.39748,3.39748,0,0,1-.65393,2.49306c-.28747.29886-.26682.84695-.77811.96589-.39771-.08891-.38283-.44607-.46344-.73129-.26671-.94366-.10681-1.94938-.41588-2.89-.0757-.23038-.1193-.47255-.20489-.70073-.1807-.78787-.4349-1.55508-.66834-2.32886-.11366-.37676-.28617-.5911-.70242-.5576a3.39279,3.39279,0,0,1-1.82-.39322,4.598,4.598,0,0,0-1.25389-.225,14.327,14.327,0,0,1-4.3114-1.67265c-.23933-.13521-.56965-.43074-.76284-.19211-.16.19761.14233.51727.328.74048.11363.13659.263.25079.26382.45276a.25262.25262,0,0,1-.14909.12776A4.57924,4.57924,0,0,1,62.691,15.2125a26.15685,26.15685,0,0,0-2.77637-1.77194,6.2962,6.2962,0,0,0-3.7655-.66163,1.24491,1.24491,0,0,0-.944.58065c-.44754.50315-.97569.93149-1.405,1.44655a5.08394,5.08394,0,0,0-1.4071,4.0322,6.92512,6.92512,0,0,1-.56649,4.12879c-.41076.77118-1.11919.94933-1.61017.25344C49.83417,22.6789,49.1685,22.546,48.78371,22.04629Z"/><path class="cls-2" d="M101.06305,57.592c.21691.36755.13656.80026.26043,1.18821A4.60067,4.60067,0,0,1,99.915,60.00187a26.112,26.112,0,0,1-4.54982,2.74682,8.47882,8.47882,0,0,1-1.07974.37136c-.17635.05015-.36634.10686-.30369.35549.05581.22143.2065.25167.41725.20508a3.8406,3.8406,0,0,0,1.0189-.325,19.91025,19.91025,0,0,1,2.78274-1.36008c.23686-.08259.55128-.31332.71939-.01106.162.29124-.09689.56392-.33746.73106a12.35467,12.35467,0,0,1-3.01922,1.60735c-.23377.08026-.46979.15406-.70362.234-.18725.064-.43319.10569-.362.38706.07409.293.28616.34039.57759.30061a6.63492,6.63492,0,0,0,2.46348-1.0398c.671-.39986,1.35424-.79272,2.00566-1.23428a10.47332,10.47332,0,0,0,1.7665-1.44333c.173-.18253.36312-.4228.68843-.30968.116.69865.47521,1.32859.55806,2.03974a8.431,8.431,0,0,0,.898,2.17485,13.12722,13.12722,0,0,0,1.12487,1.77013c.079.129.20825.3081.32659.318.50087.04192,1.35713,1.26089,1.3835,1.35282.04368.15226-.11764.15611-.1988.21815-.35578.272-.84235.28666-1.178.603-.068.064-.27451.12507-.09036.19505.56455.21453.62314.79933.83724,1.208.22814.43541.48308.87617.68749,1.33472a17.12208,17.12208,0,0,1,.63086,2.09534,6.27755,6.27755,0,0,1,.49625,1.50649c.01087.22025.29036,1.41988.00419,1.57184-.03545.01882-.02772.119-.04.18144a.56447.56447,0,0,1-.67134.17017,18.58609,18.58609,0,0,0-6.62841-.1716c-.11168.01151-.22206.036-.33438.04267-1.31593.0786-1.48862-.11874-1.50867-1.41536a23.54865,23.54865,0,0,0-.76293-5.52831c-.12174-.47189-.40322-.8893-.55848-1.36137a1.0757,1.0757,0,0,0-1.39529-.45243.4528.4528,0,0,0-.25244.61851,15.62713,15.62713,0,0,1,.76,3.50323c.286,1.59165.53054,3.18615.69186,4.794a3.88834,3.88834,0,0,0,.57818,1.34677c.21519.42167.16762.48664-.235.53014-.12451.01345-.3339-.06474-.353.08812-.02693.21531.20608.27473.37038.31443a3.14747,3.14747,0,0,0,1.67.01748,18.43013,18.43013,0,0,1,4.325-.57644,22.60932,22.60932,0,0,0,2.66921-.3548c.30583-.06.62158-.1516.9.09051a1.83692,1.83692,0,0,0,.17886,1.06808,5.94487,5.94487,0,0,1,.36127,1.63623,17.9461,17.9461,0,0,1,.49754,2.32791c.05383.79114.32371,4.57444.31684,4.97827-.00228.13425-.01787.26828-.02737.4024a10.13048,10.13048,0,0,1-2.10673,2.16511c-1.27981,1.12372-2.73079,2.05493-3.97266,3.21239-1.06945.99676-2.2973,1.78753-3.33374,2.82729-.849.85169-1.83269,1.58113-2.76787,2.34852-.98941.81188-1.85816,1.7479-2.85188,2.55656-1.75366,1.42708-3.58488,2.74118-5.44454,4.01972-.98234.67537-1.90784,1.42585-2.85759,2.14325-.99154.74895-2.12637,1.25673-3.13442,1.97223-.34629.24578-.54179.06429-.62886-.28727a13.97446,13.97446,0,0,0-2.59161-5.198,11.87379,11.87379,0,0,0-1.785-1.98937,20.761,20.761,0,0,0-3.35807-1.83624,5.51881,5.51881,0,0,1-1.37039-.84124c-.13431-.26022-.33758-.49729-.28214-.82257.63108-.61195.669-1.48853.98465-2.24032a9.41453,9.41453,0,0,1,.50638-1.57973,38.72082,38.72082,0,0,1,3.37694-3.18128c.19118-.14967.34055-.37061.629-.33648a1.73487,1.73487,0,0,0,1.32011-.56352c2.53782-2.054,5.311-3.778,7.93766-5.70646a17.28561,17.28561,0,0,0,3.049-3.21066c.23254-.28591.42931-.677.05981-.95694-.32693-.24768-.68395-.0568-.95375.22393-.16893.17577-.3165.45948-.58571.37888-.26105-.07814-.28837-.39856-.30436-.63416-.10423-1.53514-.62106-2.98937-.86063-4.49752a18.71168,18.71168,0,0,1,.04928-3.97069c.07475-1.388.01778-2.78145.191-4.17086a16.3052,16.3052,0,0,1,.50545-2.77642c.10571-.34625.17871-.74941-.19721-.96639a.766.766,0,0,0-.93534.15183,1.19473,1.19473,0,0,0-.25111.54469,7.20537,7.20537,0,0,1-.40285,1.21431c-.28988.51518-.60107,1.01781-.90562,1.52537a.6751.6751,0,0,1-.48261.20979,19.35524,19.35524,0,0,1-5.18092.20332,2.36235,2.36235,0,0,1-.65276-.1081c-.25144-.34811.08529-.47259.26409-.61987a29.42444,29.42444,0,0,0,3.26891-2.91257,34.45271,34.45271,0,0,0,3.91363-5.04133,17.69579,17.69579,0,0,0,2.02428-4.9666,38.12694,38.12694,0,0,0,1.29615-7.0109,22.39281,22.39281,0,0,0-.52043-7.13978c-.19025-.71373-.35388-1.43464-.57082-2.14239-.10536-.34372-.32851-.71847-.01142-1.08.10926.0209.25665.00356.32189.06861a13.14905,13.14905,0,0,0,2.32535,1.4849A16.97658,16.97658,0,0,0,93.442,41.94008a7.59952,7.59952,0,0,1,1.73139,1.58787,10.16682,10.16682,0,0,0,.75842.84341c.4849.56195.87071,1.19348,1.37962,1.74722a5.97771,5.97771,0,0,1,1.47478,2.9609c.04227.22433.11923.38444-.02031.6105-.168.27223-.22648.56761.2631.595.14851.00832.1236.1587.144.2624a.85753.85753,0,0,1-.36981.75448,26.28657,26.28657,0,0,1-4.0219,3.01457c-.9879.50132-1.92711,1.1261-2.93747,1.60829a.54221.54221,0,0,0-.31073.7178,16.22479,16.22479,0,0,0,1.08233,2.96594,1.34418,1.34418,0,0,1,.141.57056c.01942.63925.11907.68057.7334.41886a9.802,9.802,0,0,0,2.53883-1.51035,1.66414,1.66414,0,0,1,.76281-.41093c.248-.04652.5189-.08761.66943.16733a.5477.5477,0,0,1-.16751.72706,8.0183,8.0183,0,0,1-1.72493,1.2787,12.30925,12.30925,0,0,1-1.798.91281c-.1627.043-.37817.16825-.25352.38308.0991.17083.29174.03434.42328-.02543a22.559,22.559,0,0,0,3.17923-1.75512c1.2328-.82029,2.42058-1.696,3.584-2.60852A.578.578,0,0,1,101.06305,57.592Z"/><path class="cls-3" d="M65.4062,16.12318a.98481.98481,0,0,1,.12749-.02346A35.185,35.185,0,0,0,69.337,18.47216a2.89133,2.89133,0,0,0,1.45213.63322.2787.2787,0,0,1,.19347.04576,4.2583,4.2583,0,0,0,3.31585.87926.4995.4995,0,0,1,.30839.11566,4.77867,4.77867,0,0,1,.50629,2.14915,10.16423,10.16423,0,0,0,.2792,1.9488.28157.28157,0,0,0,.26294.24881.241.241,0,0,1,.08806.16936c.02961.1745-.194.44148.11051.50757.27142.05892.46144-.14946.55183-.39346.16456-.4442.33617-.90267-.1962-1.24229a5.6638,5.6638,0,0,0,.8035-2.42349c.75852.09471,1.01626.44307.901,1.141a11.66258,11.66258,0,0,1-.61738,1.9476c-.31219.89-.79676,1.70147-1.11689,2.5866a2.45108,2.45108,0,0,1-.38541.541.21606.21606,0,0,1-.053.04032c-.95266.32948-.88256.09194-.73129,1.16074-.33466.45643-.09969.96342-.12845,1.447a1.09386,1.09386,0,0,1-.02333.97344,4.87055,4.87055,0,0,0-.29489,1.9073,7.68483,7.68483,0,0,1-2.09416,3.99964,4.418,4.418,0,0,0-1.22277,3.27657c.05451,1.84094-.05181,3.68112-.1386,5.5196a3.08388,3.08388,0,0,1-1.60056,2.36357,11.69468,11.69468,0,0,1-6.451,1.78163,7.79567,7.79567,0,0,1-5.08263-1.62862,7.85687,7.85687,0,0,1-1.66489-1.35232c-.19255-.24792-.42649-.47949-.285-.83958a.5259.5259,0,0,1,.62149-.09075,10.09013,10.09013,0,0,0,5.38523-.10079,25.81506,25.81506,0,0,0,5.833-3.77017c.179-.19732.58634-.3904.33382-.68251-.20056-.232-.48387.08635-.69773.22709a4.64751,4.64751,0,0,1-2.67477.76191,22.93781,22.93781,0,0,1-2.34318-.0316A6.943,6.943,0,0,1,59.05955,40.851c-1.03123-.75691-2.07963-1.4931-3.16013-2.18047A14.95069,14.95069,0,0,1,51.932,33.124a3.87516,3.87516,0,0,1-.2112-.7738c-.01559-.28827-.22795-.55253-.10692-.85767a5.282,5.282,0,0,0-.22882-2.03056c-.084-.26508.11721-.58545-.16948-.80142-.1597-.16492-.107-.37031-.11563-.5677-.03165-.7265-.24664-.89073-.959-.74045a.47532.47532,0,0,1-.32361-.00482,10.06426,10.06426,0,0,0-1.36353-2.183,4.23167,4.23167,0,0,1-.41793-.6635c-.17142-.34949-.259-.72965-.42234-1.08909-.34018-.7486.1838-1.31307,1.17013-1.36567a3.07359,3.07359,0,0,1,1.68868,1.20984.67666.67666,0,0,0,1.13286-.20456,6.03834,6.03834,0,0,1,.41564-.97865,1.57547,1.57547,0,0,0,.15326-.576c.03552-.73953-.01814-2.99534-.01125-3.4051a2.59948,2.59948,0,0,1,.60065-1.98029c.407-1.26481,1.49-1.96871,2.3623-2.84751a1.58352,1.58352,0,0,1,1.57431-.038,37.75768,37.75768,0,0,1,3.9527,2.29462,7.678,7.678,0,0,0,2.32445,1.03948A2.61377,2.61377,0,0,0,65.4062,16.12318Z"/><path class="cls-4" d="M24.22374,103.76067c-.1314-.08107-.33874-.13359-.38173-.24791-.255-.67816-.83335-1.16794-1.08074-1.831-.24136-.64692-.71357-1.18069-.91613-1.80655a9.26509,9.26509,0,0,1-.55484-1.83915,14.08836,14.08836,0,0,0-.53871-1.6958c-.286-1.22857-.57441-2.46275-.81122-3.6956-.17312-.9013-.53219-3.46324-.55318-3.85716-.03944-.74006-.24291-5.83732.94555-8.75558.22968-.564,1.28574-3.32428,1.47753-3.65572a20.98949,20.98949,0,0,1,1.50033-2.59934c.35513-.44906.715-.89236,1.03-1.3717a7.31093,7.31093,0,0,1,2.09964-2.16287c1.0776-.81007,2.212-1.53922,3.27484-2.36765a3.425,3.425,0,0,1,1.02964-.63049c.04285-.01383.10978-.022.1212-.05234.30726-.81508,1.16961-.53563,1.71608-.87677A20.71256,20.71256,0,0,1,37.5,64.14712a23.65346,23.65346,0,0,1,4.56413-.81223c.42.03445.83273-.22668,1.25636-.033.33065.42348-.09251.512-.31516.6093A14.55089,14.55089,0,0,0,40.97693,64.96a32.24922,32.24922,0,0,0-3.43221,2.35863A21.43174,21.43174,0,0,0,34.10523,70.906a12.22867,12.22867,0,0,0-1.47514,1.826,41.2675,41.2675,0,0,0-1.88789,4.07122,11.65334,11.65334,0,0,1-.79064,2.14192,1.16859,1.16859,0,0,0-.14336.51632c-.02832.39322-.03677.77018.55541.57249a.371.371,0,0,1,.378.08222,10.20881,10.20881,0,0,1-.16672,2.72195,8.61685,8.61685,0,0,0,.0373,2.67823c.15626.566.20025,1.15031.31782,1.72239a.75827.75827,0,0,0,.84551.68111,9.93043,9.93043,0,0,1,2.07614.13883,7.47911,7.47911,0,0,1,3.8396,2.35461,6.59567,6.59567,0,0,1,1.81987,4.70647,13.391,13.391,0,0,1-.094,2.2836,6.66063,6.66063,0,0,1-3.42177,5.11421.78071.78071,0,0,0-.43488,1.14118,1.06134,1.06134,0,0,1,.0068,1.095c-2.05.647-4.09039,1.329-6.18211,1.83241a9.3573,9.3573,0,0,1-1.74467.06532c-.27134.0132-.40173-.10228-.43072-.38662-.17027-1.66977-.536-2.05531-2.19329-2.38436A3.221,3.221,0,0,1,24.22374,103.76067Z"/><path class="cls-5" d="M74.724,30.94827c-.02232-.33665.20275-.63323.15768-.97356q.58243.14344,1.16494.28663c.20905.051,1.02154.64367,1.27532.7647a18.33927,18.33927,0,0,1,3.07162,2.2307c.33775.25651.41482.517.66606.613.16711.06385.20236.28719.31619.41957.45867.53341.92445,1.06037,1.3303,1.63652a5.139,5.139,0,0,1,1.425,2.54739,16.81451,16.81451,0,0,1,1.067,5.11108,2.04177,2.04177,0,0,0,.49991,1.6271.22191.22191,0,0,1,.02766.25542c-.51646.99591-.04888,2.02273-.0931,3.03327-.04975,1.13674-.02182,2.27314-.15132,3.41085a28.25316,28.25316,0,0,1-1.08389,4.14074c-.108.40014-.176.90494-.69432,1.07478-.428-.34884-.62789-.12819-.93021.24749a38.193,38.193,0,0,1-4.12318,4.3222,25.33253,25.33253,0,0,1-7.78651,4.7086q-1.52339.60932-3.06251,1.20126c.35891-.01033.70144-.11289,1.05192-.15274.22553-.02565.50166-.13366.62519.19742a.3626.3626,0,0,1-.25625.20256,17.37228,17.37228,0,0,1-3.63971.548c-.804-.02642-1.63079.18089-2.45365.22153-.113.00557-.26363.02048-.32191-.058-.31944-.43027-.87767-.39253-1.27231-.67738-.4358-.31455-.87626-.625-1.32772-.917a9.72487,9.72487,0,0,0-1.70425-.79c-1.53963-.61612-3.0076-1.41086-4.592-1.90665a8.85256,8.85256,0,0,0-2.77657-.72279,3.03025,3.03025,0,0,1-.30772-.0123,1.54426,1.54426,0,0,1-.30094-.05609c-.4735-.31058-1.06615.03483-1.54038-.2761A18.74056,18.74056,0,0,1,44.71206,58.486c-.62744-.94464-1.04641-1.98077-1.60374-2.9453a21.72205,21.72205,0,0,1-1.61864-4.36231,8.882,8.882,0,0,1-.14535-3.47572,24.748,24.748,0,0,1,.6598-4.723,40.13361,40.13361,0,0,1,1.82712-4.71252,1.8227,1.8227,0,0,1,.62006-.70047c.22136-.46079.66788-.73075.95631-1.14725a12.31471,12.31471,0,0,1,1.24971-1.79077,20.78794,20.78794,0,0,1,2.12649-1.96586.45591.45591,0,0,1,.17106-.10045,15.43933,15.43933,0,0,0,1.77311-.80872c.29347-.09288.59051-.17446.88594-.26116a2.35775,2.35775,0,0,1,.26869.81222,1.4164,1.4164,0,0,1-.72242.44832.59949.59949,0,0,0-.99576-.08037,14.48051,14.48051,0,0,0-4.48585,5.79021,22.88383,22.88383,0,0,0-1.11734,2.95876,16.28891,16.28891,0,0,0-.50354,4.65477,11.68639,11.68639,0,0,0,.15438,2.21159,1.026,1.026,0,0,0,.57358.77422c.2282.49316.26318,1.04148.45456,1.54825a16.12181,16.12181,0,0,0,4.4446,6.1656,23.42462,23.42462,0,0,0,4.9395,3.25254A15.41822,15.41822,0,0,0,57.71459,61.177a20.73887,20.73887,0,0,0,6.53341.66238,9.18813,9.18813,0,0,0,2.4533-.36623c1.07437-.35673,2.21636-.28874,3.26342-.71287,1.041-.42169,2.09257-.81583,3.12709-1.2558a11.15394,11.15394,0,0,0,1.83928-1.11879,22.757,22.757,0,0,0,3.14923-2.41453A15.32693,15.32693,0,0,0,81.929,50.18983,15.56614,15.56614,0,0,0,82.932,43.57871a11.50129,11.50129,0,0,0-.86121-4.53381c-.31824-.61793-.39929-1.32787-.71681-1.95959a8.50541,8.50541,0,0,0-1.55623-2.02105c-.60206-.62757-1.22991-1.24321-1.88988-1.81861a14.98222,14.98222,0,0,0-2.85-1.90585A.52143.52143,0,0,1,74.724,30.94827Z"/><path class="cls-6" d="M63.09488,68.512a3.51168,3.51168,0,0,1,1.39642-.14068c.24719-.01376,2.20831-.2399,2.893-.35616.63-.107,1.26245-.21272,1.89355-.321a.24942.24942,0,0,0,.20129-.1505,10.38875,10.38875,0,0,1,1.86357-.7,29.97163,29.97163,0,0,0,5.1782-2.53522,27.48726,27.48726,0,0,0,3.63339-2.6592A10.32,10.32,0,0,0,83.46793,57.324a.37883.37883,0,0,1,.20179-.25469c.37622-.30659.98958-2.67192,1.29828-3.37811.13052-.29859.3605-2.89333.45128-3.27195a13.0575,13.0575,0,0,0-.14369-4.094,21.19355,21.19355,0,0,1-.274-2.35275c-.0234-.64189-.77461-4.39386-.96241-5.36568a3.13422,3.13422,0,0,0-.24261-.54084c-.29294-.75071-.74639-1.41726-1.09047-2.14021a11.2691,11.2691,0,0,1,2.22158,1.06876c.34884.25688.78711.26988,1.1413.5a16.08049,16.08049,0,0,1,2.03754,1.27069,1.9474,1.9474,0,0,0,.19793,1.1029,9.97261,9.97261,0,0,1,.503,1.90257,14.251,14.251,0,0,1,.61281,3.65985c-.03549.6536.12767,1.27675.10773,1.91791a.71655.71655,0,0,1-.00381.19129,6.73924,6.73924,0,0,0-.12524,2.16587,10.3475,10.3475,0,0,1-.24382,1.43527c-.13685.94021-.32463,1.87462-.53153,2.80246a7.08693,7.08693,0,0,0-.42279,2.01438,1.2728,1.2728,0,0,1-.2001.56115,2.62262,2.62262,0,0,0-.33943,1.14268,1.07426,1.07426,0,0,1-.26079.67273,1.51278,1.51278,0,0,0-.26167.5372,17.96936,17.96936,0,0,1-2.242,4.037c-.64821.99455-1.51668,1.78443-2.19552,2.74713a9.4879,9.4879,0,0,1-1.92345,1.91667c-.822.6439-1.61172,1.329-2.41547,1.99622a.38906.38906,0,0,1-.178.14426c-1.47194-.08058-2.92388.23753-4.39643.21363-1.63817-.0266-1.69446.05892-1.71083,1.67613a2.70761,2.70761,0,0,1-.06546.79855.46129.46129,0,0,1-.22061.25575,18.22252,18.22252,0,0,1-3.56228.73474,2.13741,2.13741,0,0,1-1.24045-1.11779c-.06063-.17312-.226-.2757-.35025-.40487a21.84655,21.84655,0,0,0-3.31939-2.8819C63.16033,68.87785,62.94372,68.776,63.09488,68.512Z"/><path class="cls-3" d="M51.89486,116.50244a9.10026,9.10026,0,0,1-2.513-.8176,3.63348,3.63348,0,0,1-1.53268-.827,3.04661,3.04661,0,0,1-.194-.26708.97329.97329,0,0,1,.87194-.25037c.74227.032,1.48458-.08431,2.21253-.051a20.90257,20.90257,0,0,0,3.39856-.36632c.76892-.089.82028-.23787.443-.86046a1.09464,1.09464,0,0,1,.87913-.22538,8.5309,8.5309,0,0,0,2.6385-.22693,3.17962,3.17962,0,0,1,1.50914-.03978,3.72078,3.72078,0,0,0,1.25273-.02206A21.98933,21.98933,0,0,1,63.55433,112.5a11.03594,11.03594,0,0,0,5.11374-.93975,1.81583,1.81583,0,0,0-1.66759-.2763,13.83927,13.83927,0,0,1-2.98335.52784,19.06606,19.06606,0,0,1-3.489-.051,4.68956,4.68956,0,0,1-1.163-.54693c-.07082-.56191,1.113-.48892,1.44209-.77629a17.14907,17.14907,0,0,1,2.59327-1.78728c.6734-.39794,1.40755-.686,2.06882-1.11271.70059-.452,4.4828-2.56951,4.686-2.63908a8.329,8.329,0,0,1,2.372.90258,13.65216,13.65216,0,0,1,3.50751,2.87669,4.47512,4.47512,0,0,1,1.001,4.2555c-.06912.22621-.14155.42646-.38633.50823-1.19724-.29283-2.13272.32393-3.09943.871a18.42538,18.42538,0,0,1-3.403,1.59127,14.019,14.019,0,0,1-2.93637.93358,2.00075,2.00075,0,0,1-.19874.06883,28.96632,28.96632,0,0,1-7.23084.47973c-2.57775-.14169-5.03248-.89126-7.55977-1.262C51.76337,116.05667,51.90694,116.29568,51.89486,116.50244Z"/><path class="cls-2" d="M42.04468,63.48438c-1.35454.2199-2.7103.43019-4.05828.69183a8.9007,8.9007,0,0,0-1.61685.579,17.38992,17.38992,0,0,0-2.559,1.054c-.40118.24107-.80984.46337-1.23177.66353-.29771-.00536-.55475-.10155-.58087-.43238A2.5116,2.5116,0,0,0,31.49,64.88329c-.76555-1.19139-1.29515-2.511-2.03222-3.71756a.43545.43545,0,0,1-.00961-.50619c.27659-.14788.41168.06978.5613.22668.29446.30876.57874.62984.89484.91446a1.1073,1.1073,0,0,0,1.8741-.50293,3.376,3.376,0,0,1,.73876-1.338A20.42516,20.42516,0,0,0,35.435,57.13105a.68908.68908,0,0,0-.116-.94259,31.3873,31.3873,0,0,1-2.40286-2.89535,13.38165,13.38165,0,0,1-.87739-1.7836,10.69783,10.69783,0,0,1-.86843-2.60962,2.78992,2.78992,0,0,1,.044-1.45776,9.23743,9.23743,0,0,0,.86417-1.33732c.15031-.23834.287-.357.487-.09037a7.48817,7.48817,0,0,1,1.44,2.103c.23652.73973.69329,1.38272.93248,2.12473.08082.25071.14979.51179.24466.74847a3.6454,3.6454,0,0,0,.73329,1.53167c.29837.27893.32594.79417.65265,1.10422.10095.0958.155.11253.233-.03682a1.16345,1.16345,0,0,0,.06144-.91594,1.39157,1.39157,0,0,1-.04893-.85212,1.101,1.101,0,0,0-.03931-.57357,13.56591,13.56591,0,0,0-.98985-3.37291,3.581,3.581,0,0,0-1.36022-1.8122c-.205-.54784-.71218-.76749-1.15668-1.0488-.17875-.11313-.12079-.19044-.02173-.30693a6.77246,6.77246,0,0,1,1.23174-.90332c.75576-.56743,1.55328-1.07721,2.31462-1.64053a8.19676,8.19676,0,0,1,1.37375-.79777A26.24487,26.24487,0,0,0,40.492,39.96028a5.52939,5.52939,0,0,1,.87466-.47214c.29662.40849.10286.7847-.12051,1.11913a10.43942,10.43942,0,0,0-1.05081,2.60158c-.42276,1.261-.66059,2.55622-.9673,3.8391a16.68856,16.68856,0,0,0-.64536,5.322,21.78289,21.78289,0,0,0,1.75165,7.817c.22667.46549.52927.88675.78863,1.33332.166.28574.46954.31282.74813.39887.53646.16569.56189.26344.22119.68471-.04224.05223-.2103.10767-.04063.1701.16684.0614.4486-.08221.44032.25124C42.48523,63.29669,42.21967,63.35524,42.04468,63.48438Z"/><path class="cls-7" d="M76.617,113.347a6.76475,6.76475,0,0,0,.31977-2.698,8.32414,8.32414,0,0,0-1.59644-2.54469c-.26961-.34228-.66174-.47649-.95141-.77222a10.87929,10.87929,0,0,0-1.19616-.86807c-.24954-.1389-.45265-.35922-.69677-.51051a4.90373,4.90373,0,0,0-.72122-.34788,2.604,2.604,0,0,0-.826-.24054c-.31232-.02008-.48437-.39912-.833-.3523-.3186-.17218-.07332-.39194-.0321-.57572a18.21816,18.21816,0,0,1,1.28307-2.79716c.11044-.27074.09239-.64663.48717-.73661.76713.38608,1.55031.74443,2.29234,1.1739a4.74955,4.74955,0,0,0,.75906.38877,5.64867,5.64867,0,0,1,1.64854.97354,4.98279,4.98279,0,0,1,1.06647,1.13126c.26712.38562.69983.698.99292,1.11167a12.29742,12.29742,0,0,1,1.67981,2.97c.18894.53284.55222.99633.70546,1.55924.06126.22507.03441.445.07939.66087.03886.18648.10092.36665.35329.15667a17.01693,17.01693,0,0,1,2.19385-1.37179c.95681-.57652,1.79463-1.31084,2.693-1.96414.448-.32577.88473-.66354,1.35007-.96776.61279-.4006,1.17976-.87063,1.78492-1.28375a11.70665,11.70665,0,0,0,1.79-1.3913c.53.08582.57772-.5013.93212-.668a10.524,10.524,0,0,0,1.15186-.90994,4.589,4.589,0,0,0,1.05821-.91087c.7077-.87138,1.70859-1.41139,2.44908-2.21866.4352-.47444,1.03324-.683,1.44035-1.14737a34.77126,34.77126,0,0,1,2.72266-2.33287c.56707-.52767,1.21992-.95775,1.73505-1.54171a11.50967,11.50967,0,0,1,1.28-.93257,30.44014,30.44014,0,0,0,3.77481-3.44337.29768.29768,0,0,1,.24408-.08953c-.04306.29429-.08315.58908-.13109.88258-.01363.08346-.09791.19155-.06894.24028.34674.5833-.05983.99057-.31769,1.43338a.59926.59926,0,0,1-.11106.13487l-.00047.00034c-.13215.09762-.15752.2726-.27558.38042a.41252.41252,0,0,1-.11539.03209,24.137,24.137,0,0,0-2.25045,1.815c-1.46654,1.39006-3.00822,2.69694-4.53444,4.0176-1.76244,1.52508-3.56285,3.00776-5.34209,4.51457a49.42541,49.42541,0,0,1-5.74062,4.34529c-.5737.35728-1.054.83481-1.61616,1.212-1.20687.80974-2.3816,1.65889-3.63715,2.40441a15.45468,15.45468,0,0,0-2.60812,1.88618.41017.41017,0,0,0-.16551.39569,3.64934,3.64934,0,0,1-.53182,1.50917,4.38588,4.38588,0,0,1-2.31,2.757,10.822,10.822,0,0,1-1.93641.537,3.95156,3.95156,0,0,1-3.14094-2.17211C73.19805,115.8492,76.48023,113.85694,76.617,113.347Z"/><path class="cls-2" d="M76.33815,118.35344c.26931-.3273.773-.14727,1.03965-.48024a3.27446,3.27446,0,0,0,2.4206-1.54886,11.69456,11.69456,0,0,0,.54573-1.11165,7.88436,7.88436,0,0,0,.59022-1.41206c.05744-.17526.24537-1.00039.539-1.13679a12.95408,12.95408,0,0,0,2.04-1.38724c.56475-.40725,1.23375-.66791,1.81886-1.06281.204-.13765.4-.28161.59776-.42688.607-.44587,1.22187-.88458,1.86164-1.281.31328-.19408.51738-.491.81542-.69573.69263-.47587,1.411-.91077,2.08751-1.41521.70922-.52883,1.40138-1.07951,2.10384-1.61621,1.12712-.86118,2.17972-1.81659,3.28442-2.704A18.36048,18.36048,0,0,1,98.62,99.90259a12.48187,12.48187,0,0,0,2.29266-1.90211,32.78276,32.78276,0,0,1,2.77754-2.39668,8.43245,8.43245,0,0,0,1.23506-1.19616c.43932-.48045,1.05345-.73889,1.48492-1.2245a.60394.60394,0,0,1,.60073-.22357,9.4772,9.4772,0,0,1-1.79008,2.62468c-.55054.75218-1.1631,1.45864-1.72789,2.2008a22.1342,22.1342,0,0,1-2.48219,2.84326c-.36249.33762-.60439.76985-.9606,1.11665-.89094.86741-1.75512,1.76317-2.60894,2.66749a12.6264,12.6264,0,0,1-1.42367,1.35664c-.564.43689-.92191,1.09546-1.50935,1.50436-.71135.49516-1.31223,1.11839-2.00275,1.6388-.75779.57111-1.4441,1.23606-2.17887,1.839-.63128.518-1.26725,1.03512-1.93993,1.496-.3511.24053-.63816.54728-.97706.7997-.7412.55207-4.59382,3.28322-5.09791,3.73067a6.02425,6.02425,0,0,1-2.85606,1.46833,4.43028,4.43028,0,0,1-2.53079.12573C76.74506,118.30246,76.52825,118.65958,76.33815,118.35344Z"/><path class="cls-3" d="M24.22374,103.76067a.60924.60924,0,0,1,.50359-.13374,5.45754,5.45754,0,0,1,1.8661.62125,1.62327,1.62327,0,0,1,.77107,1.98609c-.04849.20677-.10816.34213.21516.24623a1.84964,1.84964,0,0,1,.66855-.0182,9.28715,9.28715,0,0,0,3.48721-.72017c.86616-.25862,1.728-.53587,2.60461-.75338a4.03446,4.03446,0,0,1,1.22088-.31176,2.16948,2.16948,0,0,1,3.03128.37971.60833.60833,0,0,0,.56939.26222,9.62924,9.62924,0,0,1,1.20317.03345.90858.90858,0,0,1,.76525,1.37917c-.35715.26624-.54329.80533-1.12735.71388a.847.847,0,0,0-1.01342-.29761,9.592,9.592,0,0,0-1.69665.62891,31.11687,31.11687,0,0,1-4.68539,1.84085c-.10233.03209-.26494.02318-.26291.15339.002.12937.16236.13194.269.15045a2.82289,2.82289,0,0,0,1.45435-.128,36.717,36.717,0,0,0,4.92531-1.98371.8468.8468,0,0,1,.32484-.08362c.51236-.01254,1.01751-.1135,1.53439-.09134a.81779.81779,0,0,1,.73326.48786c.17477.31631-.03808.54358-.21867.70393a6.24687,6.24687,0,0,1-2.94114,1.71791c-.12086-.71488-.16367-.76235-.92661-.46749-.95926.3707-1.86948.85819-2.81461,1.26536a7.52656,7.52656,0,0,1-1.06724.40154c-.10406.02721-.25306.04772-.25007.18245.00365.16473.15995.19321.29312.21392a1.35549,1.35549,0,0,0,.77634-.15676c.83763-.37534,1.71486-.65216,2.55817-1.0141a1.68106,1.68106,0,0,1,.525-.10668,3.78883,3.78883,0,0,1,2.05079.02961c.73425.24214.82261.57163.32277,1.16418a1.12766,1.12766,0,0,1-.96672.50131,10.83989,10.83989,0,0,0-1.38812.7126,5.8588,5.8588,0,0,1-2.23072.73768,11.75884,11.75884,0,0,1-1.87753.13315c-.71182-.03356-1.39833-.02-1.85752-.749a1.02232,1.02232,0,0,0-.85483-.43866.80854.80854,0,0,1-.68723-.33729,2.85063,2.85063,0,0,1-.87749-1.263c-.04241-.20072-.17865-.299-.4297-.31352a2.21687,2.21687,0,0,1-1.95489-1.34142,1.04572,1.04572,0,0,0-.19376-.26506,1.06952,1.06952,0,0,1-.30372-1.10236,2.30016,2.30016,0,0,0,.00942-.66128c.00812-.65088-.549-.76227-.99509-.93058a2.4202,2.4202,0,0,1-1.17989-.78268,2.24305,2.24305,0,0,1-.41842-1.16415A1.58014,1.58014,0,0,1,24.22374,103.76067Z"/><path class="cls-6" d="M42.04468,63.48438a19.40327,19.40327,0,0,0-1.13351-1.90416,11.46185,11.46185,0,0,1-1.27857-2.737,10.42383,10.42383,0,0,0-.58213-1.47942,3.94678,3.94678,0,0,1-.2155-1.2048c-.03595-.481-.10125-.95283-.16083-1.42968-.04485-.359-.2911-.72573-.027-1.09781a.13972.13972,0,0,0-.00444-.12972c-.43973-.57294-.16241-1.26571-.30865-1.891a2.23146,2.23146,0,0,1,.06795-.97714c.313-1.321.22062-2.72154.78687-3.99142-.02832-.85742.47776-1.62448.42081-2.48685a.11492.11492,0,0,1,.00538-.06639c.6431-.89832.55678-2.06014,1.08488-2.99907a1.51254,1.51254,0,0,1,.22779-.32811,1.562,1.562,0,0,0,.43889-1.27367,9.36271,9.36271,0,0,1,1.73576-1.15259,2.90126,2.90126,0,0,0,.76381-.50682.74384.74384,0,0,1,.58508-.262c-.25368.58425-.61525,1.10566-.85991,1.7069a38.47254,38.47254,0,0,0-1.59163,4.40262,25.85963,25.85963,0,0,0-.40641,2.88212,13.96765,13.96765,0,0,0-.11919,2.94336,7.12714,7.12714,0,0,0,.5535,2.78744c.191.39289.23632.8466.392,1.2634a1.53429,1.53429,0,0,0,.2933.5801c.20345.21168.09964.43411.05263.6847-.05755.30674.46258.05.48749.40508.04668.66535.54268,1.16079.72787,1.7715.1821.60049.67412.97727.9643,1.49764a16.6075,16.6075,0,0,0,2.09524,2.72311c.612.70455,1.3668,1.24372,2.028,1.88848-.084.32569-.37152.28-.58057.26239a25.35385,25.35385,0,0,0-4.51727.09881,3.3033,3.3033,0,0,1-.51163-.08872l-.08247-.01583C42.9239,63.30813,42.50442,63.61158,42.04468,63.48438Z"/><path class="cls-8" d="M40.01167,107.38818c.46951-.00085.58513-.51455.95535-.6593a.77736.77736,0,0,1,.76533-.01754,13.98936,13.98936,0,0,0,3.41119.51519,22.06265,22.06265,0,0,0,3.43344.622,19.924,19.924,0,0,0,4.28826-.10756,63.47776,63.47776,0,0,0,7.21423-1.53505,2.04731,2.04731,0,0,1,.79458-.10482c.46912.42.481.62524.05868,1.01769a1.93854,1.93854,0,0,1-.5736.34839,16.71112,16.71112,0,0,1-4.16921,1.47471c-1.37223.19117-2.70993.55073-4.11588.61a8.4415,8.4415,0,0,0-4.74516,1.2291c-.77687.54642-1.215,1.37234-1.95637,1.91858a7.5559,7.5559,0,0,1-.70736.61936,3.43914,3.43914,0,0,1-1.7095-.03355,7.08581,7.08581,0,0,0-2.04228-.19786,3.25738,3.25738,0,0,1-1.98673-.52977,3.09281,3.09281,0,0,0,1.06394-.876c.25218-.24257.13246-.39387-.11876-.49695a3.04351,3.04351,0,0,0-2.02209-.18807,1.70262,1.70262,0,0,1-.39369.04456c.00127-.35129.32264-.34517.525-.47229a1.287,1.287,0,0,1,.322-.06943c.02691.00093.054.0024.08106.00386a11.977,11.977,0,0,0,2.70021-1.57065,2.30661,2.30661,0,0,0,.44942-.56518c.04861-.06577-.35442-.563-.46069-.55544a3.93256,3.93256,0,0,0-1.45091.11309.18778.18778,0,0,1-.27492-.09978A.7196.7196,0,0,1,40.01167,107.38818Z"/><path class="cls-6" d="M29.49708,60.64356a.565.565,0,0,0,.0319.39251c.968,1.41931,1.55059,3.05768,2.53831,4.46584a5.25356,5.25356,0,0,0,.51147.97091c-.20611.23549-.55427.12742-.77852.32309a2.48017,2.48017,0,0,1-.75547.50629,11.64712,11.64712,0,0,0-2.31,1.47466,35.331,35.331,0,0,0-3.79095,3.10693c-.1587.222-.45969.28089-.60327.52138a9.17128,9.17128,0,0,1,.03915-1.37867.64779.64779,0,0,0,.09688-.63163,3.66032,3.66032,0,0,1,.206-1.66771c.28492-.9923.26189-2.02581.57417-3.01a16.383,16.383,0,0,0,.31282-2.05127c.10465-.5821.25955-1.15554.40242-1.73026.08978-.36115.2256-.70607.29729-1.078a28.50131,28.50131,0,0,0,.88191-2.82395c.02617-.28535.24772-.471.30322-.73321.138-.03993.21366.04687.2604.14922a16.26185,16.26185,0,0,0,1.723,2.87376A.374.374,0,0,1,29.49708,60.64356Z"/><path class="cls-4" d="M29.49708,60.64356a20.8623,20.8623,0,0,1-1.31641-1.837c-.27463-.47772-.46578-1.012-.72619-1.5061l.01273-.42712a2.54894,2.54894,0,0,1,1.12456.02427,1.07573,1.07573,0,0,0,1.26312-.38091c.2965-.45016.03667-.92224-.24606-1.303a11.15948,11.15948,0,0,0-.76619-.93427.73592.73592,0,0,1,.06621-1.10568c.44335-.31472.69655-.0304.91442.32517a2.7,2.7,0,0,0,.44565.66843c.162.14363.36664.22556.54615.06483.17542-.15707.04186-.33647-.06093-.47892-.35377-.49032-.67851-1.01978-1.39282-1.03666a.41765.41765,0,0,1-.42434-.27348c.324-.70846.434-1.49194.79369-2.19222a3.48652,3.48652,0,0,1,.65368-1.14589.3828.3828,0,0,0,.1263-.23285c.03255-.57885.50021-.93895.70369-1.43a8.68205,8.68205,0,0,0,.59119,2.98445c.25319.65422.5395,1.27752.85435,1.89978a9.37163,9.37163,0,0,0,2.12863,2.95211c.32418.31909.57732.71314.90778,1.04109.24615.24427.1853.574-.15409.85633-.19594.163.05557.3366-.14331.52915-.685.66323-1.04233,1.58058-1.693,2.293a2.1338,2.1338,0,0,0-.75919,1.43243,1.01358,1.01358,0,0,1-.79151.83067,1.30514,1.30514,0,0,1-1.35576-.30054A13.09036,13.09036,0,0,0,29.49708,60.64356Z"/><path class="cls-6" d="M106.704,79.44272c-.26459.03256-.52783.01527-.798.06531a17.83705,17.83705,0,0,1-3.86049.46,12.41991,12.41991,0,0,0-2.93174.43909,3.0537,3.0537,0,0,1-2.51318-.2034c-.145-.10069-.34952-.17155-.23831-.40257a.32619.32619,0,0,1,.50562-.14952.74456.74456,0,0,0,.39287.065.70161.70161,0,0,0,.23359-.04807c-.42292-.111-.38545-.5237-.56255-.79392a9.51139,9.51139,0,0,1-.32128-1.35358c-.29855-1.15121-.32785-2.34586-.544-3.512a13.72443,13.72443,0,0,1-.32046-1.63089,11.42807,11.42807,0,0,0-.6765-2.7877.47363.47363,0,0,1,.25463-.6522,1.46949,1.46949,0,0,1,1.29022-.037A.92382.92382,0,0,1,97.276,69.9125c-.00534.06624-.0181.16634.01791.19634.67837.56517.60595,1.42557.73626,2.14925a20.60147,20.60147,0,0,1,.46,4.40882c-.00416.11226.002.22535-.009.33681-.01356.13643-.22307.29222.00449.40068.18125.0864.27385.29324.57969.22951.41073-.08559.84869.01126,1.2874-.06413a29.46261,29.46261,0,0,1,4.08682-.15785,11.17981,11.17981,0,0,1,1.79249.18337c.39471.05085.76883.31535,1.20723.19169l.00075.01534a.26965.26965,0,0,1-.02681.17684A10.28369,10.28369,0,0,1,106.704,79.44272Z"/><path class="cls-4" d="M101.06305,57.592a9.024,9.024,0,0,1-1.51728,1.28834c-.31148.23938-.6945.37586-.91449.74054a.69017.69017,0,0,1-.33472.212,5.14247,5.14247,0,0,0-1.19561.72149,15.954,15.954,0,0,1-3.37152,1.83546c-.11482.05-.29471.28825-.40679-.045-.07949-.23633-.20542-.45654.10588-.61655.05968-.03067.1128-.08706.1749-.09808a9.6942,9.6942,0,0,0,2.06467-.99924,7.351,7.351,0,0,0,1.57583-1.201.42237.42237,0,0,0,.138-.54417c-.10686-.17877-.33034-.116-.49759-.08166a2.23114,2.23114,0,0,0-1.007.61037,8.43653,8.43653,0,0,1-1.99015,1.1898,6.89247,6.89247,0,0,0-.64335.32705c-.34245.21443-.41927.17441-.5871-.2106a1.327,1.327,0,0,1-.10436-.31388c-.04058-.25488.17777-.5039-.12067-.78181-.2161-.20124-.19742-.65087-.35466-.90292-.44878-.7194-.43223-1.57714-.80175-2.304-.11409-.2244-.04391-.35955.12934-.4359.2212-.09749.42827-.23177.637-.33992.79909-.414,5.84945-3.72442,6.63271-4.41219.23146-.20324.30363-.47842.4987-.6827.12776.31692.64984,2.22481.66929,2.28494-.77054.61425-1.3771,1.40821-2.18161,1.986a1.46419,1.46419,0,0,1-1.17051.39715c-.38966-.07713-.42851.18683-.3678.44682.1833.785.44094,1.55009.61792,2.33912.09305.41484.48333.32833.78813.221a4.97919,4.97919,0,0,0,1.44223-.97373,13.18433,13.18433,0,0,1,1.71777-1.16774A5.33248,5.33248,0,0,1,101.06305,57.592Z"/><path class="cls-9" d="M76.617,113.347a.67018.67018,0,0,1-.082.83993c-.12131.12355-2.0246,1.64193-2.97391,1.72286a.55133.55133,0,0,0-.3639.27156,1.12641,1.12641,0,0,0-.51213.12794c-.92809.37864-1.84312.79829-2.79314,1.11127-.73818.24319-1.52556.33276-2.28283.52336-.92192.23206-1.895.08074-2.80371.39524-.06025.02085-1.38967-.05294-1.97718.00483-.503.04946-4.98064-.31159-5.55241-.42489-.94927-.1881-1.91758-.315-2.83972-.59382-.7095-.21453-1.44848-.32662-2.13821-.6116-.14375-.0594-.30074-.07769-.403-.21122-.02846-.35928-.39452-.31467-.58054-.48541a.116.116,0,0,1-.02826-.1692.13538.13538,0,0,1,.11587-.03818c.70244.21318,1.44437.17214,2.15558.35558.91984.23725,1.85639.40853,2.78055.63283a13.94052,13.94052,0,0,0,2.29952.3145,32.2662,32.2662,0,0,0,4.42653.13967c.98588-.06773,1.96506-.23346,2.947-.357a8.451,8.451,0,0,0,1.16265-.18927c.37336-.245.83019-.16127,1.24825-.32691a8.1899,8.1899,0,0,1,1.466-.55984,16.493,16.493,0,0,0,2.8425-1.22607,7.537,7.537,0,0,0,1.65-.95833C74.67247,113.421,76.02208,112.68818,76.617,113.347Z"/><path class="cls-4" d="M101.99936,61.21745a3.41216,3.41216,0,0,0-.949.80021,2.66162,2.66162,0,0,1-.83377.74537,12.87768,12.87768,0,0,0-2.029,1.23556c-.68329.48757-1.497.67187-2.15058,1.18788-.32591.25729-.8286.15549-1.23575.3288-.28005.11921-.336-.22352-.43411-.40838-.27007-.509-.25477-.48129.26748-.66a8.97239,8.97239,0,0,0,2.48574-1.04669c.362-.26143.80393-.42788,1.18329-.68478.036-.0244.0872-.02641.12329-.05075.23079-.15567.49376-.40761.40792-.62718-.06211-.15889-.41175.03612-.62483.12145a19.98342,19.98342,0,0,0-2.99576,1.53167,1.30127,1.30127,0,0,1-.71859.08854c-.18151.00567-.28358.29914-.4407.15842a2.47282,2.47282,0,0,1-.35211-.56227c-.10151-.16323-.03614-.24115.12634-.29031.06253-.01892.11306-.084.17535-.09634a12.06632,12.06632,0,0,0,3.99545-1.88644c1.14719-.71889,2.21276-1.5523,3.32354-2.322a1.91731,1.91731,0,0,1,.30242.91667A8.55906,8.55906,0,0,0,101.99936,61.21745Z"/><path class="cls-9" d="M40.91337,113.0875c.05735-.37554.29773-.25556.54784-.23705a14.27233,14.27233,0,0,0,3.28115.34232,28.803,28.803,0,0,1,3.08519.12676c1.5058-.00908,3.00363-.09667,4.49865-.24789.65-.06575,1.3031-.02531,1.95144-.10354.12832-.01549.27511.00416.31073.18052a.46654.46654,0,0,0,.12267.051c.24149.02563.54787-.01008.56294.332.0117.26577-.28885.32681-.465.42026a1.93077,1.93077,0,0,1-.76579.1956c-.42453.027-.85757.211-1.2329.19192-.60868-.03092-3.21639.25813-3.58074.20758a9.93248,9.93248,0,0,0-1.57441.04368c-1.30614-.28549-2.647-.35544-3.95395-.6597a9.21686,9.21686,0,0,0-1.374-.18824A1.58665,1.58665,0,0,1,40.91337,113.0875Z"/><path class="cls-2" d="M100.68841,56.08105a.53465.53465,0,0,1-.3776.43286A16.44689,16.44689,0,0,0,98.228,58.03923c-.42954.284-.85036.58521-1.40538.37768-.18488-.06914-.2388-.16172-.271-.41575A10.56944,10.56944,0,0,0,96.03,56.02553a1.72317,1.72317,0,0,1-.10442-.58314c.00794-.49968.09358-.54805.60325-.34523a.78246.78246,0,0,0,.73972-.20175,7.51811,7.51811,0,0,0,1.45552-1.2565,1.88283,1.88283,0,0,1,1.11819-.80655,2.13,2.13,0,0,1,.26009,1.21293,7.31989,7.31989,0,0,1-2.527,1.85151c-.55815.28922-.27688.54157-.1538.84208.1733.42311.40979.19659.6316.04253A8.11961,8.11961,0,0,1,100.38679,55.39,2.5938,2.5938,0,0,1,100.68841,56.08105Z"/><path class="cls-2" d="M28.937,52.44313c.05892.03205.12053.09612.17638.09144,1.04953-.088,1.4922.65885,1.93951,1.40021.06222.10312.26616.23428.1131.31807-.18141.09932-.30413.36892-.5629.283-.24093-.08-.52114-.09063-.62655-.41926-.0721-.2248-.2789-.40693-.34823-.63193a.433.433,0,0,0-.4371-.33278c-.23876.0121-.31377.28193-.44275.46049a.31108.31108,0,0,0,.08982.46878c.44517.21675.50954.75155.90426,1.00322.17238.10991.21427.3293.27943.51783.34591,1.00091-.20568,1.66334-1.27459,1.52655-.03355-.00429-.06065-.05907-.09075-.09031a1.289,1.289,0,0,1-.071-.61376c.19733-.5823-.12984-1.05875-.315-1.56365a2.723,2.723,0,0,1,.34581-1.5266C28.759,53.03857,28.67724,52.67549,28.937,52.44313Z"/><path class="cls-4" d="M100.38679,55.39c-.08882.09554-.1603.2408-.26919.27875a10.6387,10.6387,0,0,0-2.26008,1.47376c-.25137.16635-.44015.18063-.541-.1529a.6143.6143,0,0,1-.04063-.12549c-.0225-.32564-.425-.558-.346-.82734.07757-.26451.52936-.14945.75561-.3228a16.96739,16.96739,0,0,0,2.066-1.50231.47628.47628,0,0,1,.3509-.16641A3.19692,3.19692,0,0,1,100.38679,55.39Z"/><path class="cls-10" d="M49.81738,27.34756c.10121-.04692.2034-.09185.30348-.14108.80565-.39637,1.14755.15451,1.16137.86329.00355.182-.05513.39132-.0666.59076-.221.00188-.39841.15581-.63272.14969-.52659-.01376-.84458-.29552-.67853-.77609C50.00685,27.73757,49.85549,27.57192,49.81738,27.34756Z"/><path class="cls-10" d="M75.01011,28.5277c-.00949-.29022-.49152-.4017-.2303-.84508.159-.26986.26043-.39512.55359-.368.15272.01412.30725.00865.461.012.04207.124.09423.2457.12421.37261a1.12186,1.12186,0,0,1-.19736.81362C75.52807,28.85047,75.25089,28.52622,75.01011,28.5277Z"/><path class="cls-6" d="M28.67092,56.48c-.1157.18329.31373.38056-.01431.5584a2.674,2.674,0,0,1-1.1894-.165c.24037-.36053.25384-.82085.51546-1.172C28.30249,55.881,28.67289,56.016,28.67092,56.48Z"/><path class="cls-11" d="M28.67092,56.48c-.10848-.36646-.5823-.41-.68825-.77867a3.29473,3.29473,0,0,1,.28793-.84034A1.24552,1.24552,0,0,1,28.67092,56.48Z"/><path class="cls-2" d="M107.40239,92.54672a.14844.14844,0,0,1,.11106-.13487C107.52488,92.49671,107.47731,92.533,107.40239,92.54672Z"/><path class="cls-2" d="M107.41323,77.97917l.02681-.17684C107.57686,77.88338,107.50333,77.93253,107.41323,77.97917Z"/><path class="cls-12" d="M74.60687,20.14606a6.29533,6.29533,0,0,1-1.41149.05383A12.30076,12.30076,0,0,1,71.168,19.6578a12.10615,12.10615,0,0,1-1.11279-.5607c-1.23728-.82547-2.62572-1.39837-3.81874-2.29906a2.60311,2.60311,0,0,1-.70282-.69832c-.51193-.34211-.66291-.94642-1.01951-1.40218a.92642.92642,0,0,1,1.09521.10458,16.40639,16.40639,0,0,0,2.83336,1.32551,7.72885,7.72885,0,0,0,2.3221.5149,1.20454,1.20454,0,0,1,.57724.13647,3.26714,3.26714,0,0,0,1.93578.41384c.51818-.0256.48778.00494.6487.52424.19658.63438.4348,1.2551.5975,1.90164C74.56863,19.7958,74.56864,19.97236,74.60687,20.14606Z"/><path class="cls-12" d="M65.4062,16.12318c-.07372.48766-.5226.57543-.84978.62894a4.748,4.748,0,0,1-2.11129-.17736,11.368,11.368,0,0,1-2.74858-1.45818c-.89985-.5456-1.84842-1.004-2.72511-1.58215-.25152-.16589-.6551-.03151-.78278-.42319-.03031-.093-.11695-.02164-.16009.0177-.27206.248-.59957.10744-.90272.135a.43867.43867,0,0,1,.2889-.40767,3.34057,3.34057,0,0,1,1.78009-.31187c.51537.04154.99065.24068,1.519.24581a2.68352,2.68352,0,0,1,1.23266.43217c1.39482.80725,2.64607,1.84182,4.09611,2.56027a.95265.95265,0,0,0,.47091.126A3.76051,3.76051,0,0,1,65.4062,16.12318Z"/><path class="cls-13" d="M76.2095,23.534c.556.04282.59466.04817.52434.5563-.06038.43634-.01075.95221-.52869,1.20271-.22361.10813-.44836.23058-.67842.03807-.2689-.225.04614-.389.07755-.58348.0138-.08545.03382-.16989.051-.25478A6.81529,6.81529,0,0,1,76.2095,23.534Z"/><path class="cls-14" d="M45.184,107.39371a17.21358,17.21358,0,0,1-2.98347-.30133c-.39371-.02884-.78806-.34033-1.2335-.3635.061-.2002.41329-.35939.22948-.55982-.232-.253-.40015-.64361-.83088-.65119-.4909-.00865-.9828-.02053-1.47283.00128-.34318.01526-.56274-.03693-.50463-.45556.04406-.31739-.19818-.40489-.43818-.48532a3.95584,3.95584,0,0,0-2.38907.09872,2.8441,2.8441,0,0,0-.29457-1.35721c-.1447-.296-.14822-.48191.17188-.658.25266-.139.49553-.29813.75027-.43841a3.79492,3.79492,0,0,0,1.67792-1.58492c.17843-.35351.47569-.64523.67456-.99059a6.94744,6.94744,0,0,0,.703-2.51909c.11288-.74888.02475-1.484.0953-2.22076a4.72585,4.72585,0,0,0-.49478-2.258c-.17841-.43656-.362-.87132-.52354-1.3141a.23844.23844,0,0,0-.09319-.14655,7.96266,7.96266,0,0,1-1.17549-1.16769,8.76561,8.76561,0,0,0-2.34453-1.55384,4.189,4.189,0,0,0-1.73838-.37709c-.4723.00378-.94475.00676-1.417-.001-.50727-.00836-.6133-.08533-.72266-.5888-.14836-.683-.68541-3.01326-.42042-3.18489-.28306-.33776.25407-.78151-.14273-1.10458.25066-.29047.11613-.65332.18179-.97881a13.51833,13.51833,0,0,0,.24026-2.1136A.62327.62327,0,0,1,30.628,79.421a30.73584,30.73584,0,0,1,1.72217-3.88013,27.07924,27.07924,0,0,1,2.82445-3.4295c2.3775-2.88218,5.65568-4.55692,8.79231-6.37716A18.78977,18.78977,0,0,1,49.51676,63.695a5.42512,5.42512,0,0,0,1.03041-.30965l.25629.01138a.20709.20709,0,0,0,.29407-.00366,2.77975,2.77975,0,0,1,1.29567.21071c.44373.18127.98419.19976,1.396.37782.45247.19564.9299.35369,1.38028.56532.87987.41345,1.75944.83865,2.67194,1.16806.74479.26887,1.41194.70551,2.184.91494A14.03575,14.03575,0,0,1,63.09488,68.512,7.52015,7.52015,0,0,0,64.748,69.8471c.25672.16156,2.2034,2.08787,2.419,2.299.08865.08682.5282,1.07576.93819,1.08863a19.46086,19.46086,0,0,1,2.998,4.6,16.31336,16.31336,0,0,1,1.30578,4.08262c.04583.22567.1872.40772.24167.62628.15623,1.24894.66184,2.43015.73607,3.69228.04046.68773.38854,1.36842.041,2.082-.04092.084.19369.36417.23842.59653a15.76088,15.76088,0,0,1,.0734,3.292,14.03172,14.03172,0,0,1-.43561,3.53365,1.91931,1.91931,0,0,1-.248.61682q-.24774,1.11029-.49457,2.22078a3.70673,3.70673,0,0,1-.69836,1.41249,1.3988,1.3988,0,0,1-.22777.13287c-.79449.70169-1.79392,1.09285-2.62675,1.73818a30.70037,30.70037,0,0,1-4.67529,2.46525,2.24739,2.24739,0,0,1-.8522.16472c-1.76113.34237-3.45664.94382-5.21681,1.296-1.12456.225-2.26107.35983-3.38736.56333a45.43286,45.43286,0,0,1-6.22987.49479,19.59769,19.59769,0,0,0-2.48.17176A1.6403,1.6403,0,0,0,45.184,107.39371Z"/><path class="cls-6" d="M73.05591,96.35694c.0518-.82135.3385-1.606.40849-2.41823.05957-.69112.07936-1.39058.06956-2.09084-.0069-.49444.06127-1.00329.02722-1.5a3.12555,3.12555,0,0,0-.06829-1.17609,6.16086,6.16086,0,0,1-.0802-1.2683,22.147,22.147,0,0,0-.66392-3.9015c-.10471-.32318-.1212-.69515-.254-1.01453-.08174-.1965.05847-.28907.07326-.43194.34461-.74482,1.07715-1.10908,1.63075-1.647,1.00624-.97765,2.192-1.75006,3.18961-2.7409a.902.902,0,0,1,.35291-.18857,1.01308,1.01308,0,0,1,.20428-.047c2.1364.02186,4.24047-.372,6.36561-.48638.50344-.02709.57938-.2308.57471-.72288a14.01679,14.01679,0,0,1,.14684-2.876c.25333-.22513.30955.02162.34538.17252a4.664,4.664,0,0,1,.1348.99953,44.19674,44.19674,0,0,0,.53742,4.94223c.13271,1.02728.33307,2.04569.42356,3.07721A3.59544,3.59544,0,0,1,84.85049,86.423c-1.11068.83065-2.17067,1.7226-3.32913,2.49863a24.43068,24.43068,0,0,0-4.151,3.7169,1.83159,1.83159,0,0,1-.14137.13564.59424.59424,0,0,1-.16549.101A6.78184,6.78184,0,0,0,75.634,94.0115a12.20794,12.20794,0,0,0-1.97989,1.95956A.7817.7817,0,0,1,73.05591,96.35694Z"/><path class="cls-4" d="M63.4896,104.3094a1.66134,1.66134,0,0,0,1.17514-.37592,13.5816,13.5816,0,0,1,1.611-.7103c.48914-.28254,1.02887-.4505,1.50931-.77776,1.19-.81057,2.42939-1.54882,3.65215-2.311.04923-.03071.13128-.00879.198-.01139a.26394.26394,0,0,0,.09926.29515c.17655.12721.15946.3037.11937.4851-.40465,1.28171-1.34285,2.33262-1.59264,3.67877-.029.15626-.35422.20482-.1455.43072-.20137.46514-4.34376,2.54016-4.81537,2.831-.45669.28158-.95418.47519-1.42594.72293-.71377.37485-1.32173.91725-2.00251,1.3207-.70788.41955-2.48931,1.16157-1.76273,1.6874-.40518.2921-1.59191.85454-1.9893,1.17055a6.63807,6.63807,0,0,0-.93627.2091,4.17488,4.17488,0,0,1-1.65332.0643c-.34048-.0102-.62653.11293-.94189.12988-1.17227.06512-2.35013.07939-3.51543.20772a29.10049,29.10049,0,0,1-4.79747.09046,2.69358,2.69358,0,0,1-1.53311-.254c.119-.43208.53329-.61236.805-.91014.26438-.2897,1.08072-1.17952,1.26947-1.32178a9.57817,9.57817,0,0,1,1.577-.96819,3.701,3.701,0,0,1,1.93212-.439,7.05235,7.05235,0,0,0,1.45223-.2307,9.95078,9.95078,0,0,1,1.39493-.0292,31.73188,31.73188,0,0,0,5.26348-1.15092c.74195-.35741,1.51686-.63869,2.24449-1.01924.4444-.23243.483-.47181.25667-.952.08062-.36873.425-.351.67884-.43634a5.77852,5.77852,0,0,0,1.22688-.53391A1.2524,1.2524,0,0,0,63.4896,104.3094Z"/><path class="cls-4" d="M77.829,78.08483l-.13669.0318a23.93,23.93,0,0,1-5.13557.31683.55886.55886,0,0,1-.568-.48546,20.62884,20.62884,0,0,1-.30659-5.27488c.00334-.03959.04655-.07442.07541-.10906l.143-.13895A2.01637,2.01637,0,0,1,72.86,71.975a21.89024,21.89024,0,0,0,4.67639-2.12642,6.06675,6.06675,0,0,1,.69138-.239l.13464-.0411c.87652.04994,1.7533.0958,2.62949.15116a8.69161,8.69161,0,0,0,1.90653-.21916,11.7927,11.7927,0,0,1,1.41685-.06016c.19638.3366-.08044.54514-.23886.75413a7.15145,7.15145,0,0,0-.82742,1.42887,1.47839,1.47839,0,0,1-.08213.173,1.03971,1.03971,0,0,1-.17492.23675.80642.80642,0,0,1-.36363.17239,9.44505,9.44505,0,0,0-2.7014,1.00144,2.62372,2.62372,0,0,1-2.56749.04977,8.96968,8.96968,0,0,0-3.06861-.71006c-.68944-.02486-.89376.26858-.64154.9086a1.36494,1.36494,0,0,0,.61226.69372,3.94348,3.94348,0,0,0,1.92594.53275,30.05879,30.05879,0,0,1,3.76382.06655c.221.03248.45427-.00883.61242.20215.12782.343-.08518.55715-.29146.77444a.72549.72549,0,0,1-.3089.09612,22.05412,22.05412,0,0,0-3.81355.18565c-.12388.01179-.31509.006-.31524.16793-.00013.15626.19253.15815.31641.18762.54925.13066,1.12029.005,1.66961.13315a4.83583,4.83583,0,0,1,1.03111.2932c.24924.22626.08126.39942-.08388.5554A3.28626,3.28626,0,0,1,77.829,78.08483Z"/><path class="cls-9" d="M77.15686,92.682a18.74934,18.74934,0,0,1,2.38839-2.36375c.58887-.49993,1.14729-1.03172,1.78082-1.48261.27187-.1935.5418-.38245.82752-.55626a7.19155,7.19155,0,0,0,1.85806-1.45509,1.57944,1.57944,0,0,1,.46372-.37194A10.20714,10.20714,0,0,0,85.998,85.10589a.45912.45912,0,0,0,.15335-.28652,10.99081,10.99081,0,0,0,.15324-1.85568c-.04569-.44025-.36154-.85287-.00259-1.31685.1122-.145-.18769-.0718-.19213-.10395a3.76152,3.76152,0,0,1-.18072-.7748c.0286-.4488-.14282-.89441-.14482-1.31627-.00328-.69333-.23725-1.33542-.26758-2.01444-.03073-.68776-.17046-1.37263-.17191-2.059-.00087-.412-.10644-.80727-.09305-1.21534.005-.15116.04381-.31933-.10607-.4366-.04981-.04452-.12131-.08933-.11638-.1563a30.036,30.036,0,0,1,.16077-4.20478,11.7819,11.7819,0,0,1,.32255-1.52907,7.00638,7.00638,0,0,0,.41315-1.38364,1.00941,1.00941,0,0,1,1.61286-.597c.24846.17375-.02638.462.16741.66834a.85375.85375,0,0,1-.08058.50589,6.53454,6.53454,0,0,0-.48688,2.46293c-.02449.78167-.19227,1.55162-.15254,2.34206.01012.20145-.008.42086.02258.62675a12.33369,12.33369,0,0,1-.12821,1.53144c.02844,1.01356-.115,2.0228-.102,3.02814A5.97,5.97,0,0,0,87.11,78.9708a12.3612,12.3612,0,0,0,.533,1.95872,3.96449,3.96449,0,0,0,.16367,1.75453c.0277.219.06846.30238.25066.10493.04571-.04955.1203-.08893.1371-.14607.12676-.431.45691-.50154.84651-.56176.23447-.03623.50465-.13386.592.0968.09076.23981.31924.47237.14177.80643a6.874,6.874,0,0,1-.95121,1.19983,14.01843,14.01843,0,0,1-1.23561,1.46057c-.52361.46576-1.05628.92665-1.62274,1.33765-.82331.59737-1.6926,1.13109-2.52053,1.72238-1.66451,1.18872-3.36009,2.33646-4.94,3.63934-.38161.31468-.86935.43394-1.2548.74477-.13525.10909-.22977-.04424-.18629-.21371l-.02364-.0301A.33131.33131,0,0,1,77.15686,92.682Z"/><path class="cls-11" d="M85.41594,69.30119a1.48266,1.48266,0,0,0-.16366.77818c.00923.61669-.0024,1.23366.0036,1.85042a9.91973,9.91973,0,0,1-.11017,1.79669c-.00514.70546-.00718,1.41547-.05429,2.1144a11.12426,11.12426,0,0,0,.02124,1.49537c.012.182.0233.38879-.28423.26265a.80319.80319,0,0,0-.58169.0437,1.88624,1.88624,0,0,1-.82814.066,6.85048,6.85048,0,0,0-1.918.15959,20.80266,20.80266,0,0,1-3.67164.21669,4.16208,4.16208,0,0,1,.92172-.92021.316.316,0,0,0,.15625-.261.47229.47229,0,0,1,.29156-.25282,14.4624,14.4624,0,0,1,2.01357.04219,1.94093,1.94093,0,0,0,.98575-.15085c.15694-.07643.38625-.11917.37757-.33168-.00961-.2352-.25174-.21133-.41823-.25278a9.01115,9.01115,0,0,0-1.40417-.15881c-.17248-.01514-.367.01464-.49541-.15338-.03867-.26812.31535-.37071.2704-.64149a.33663.33663,0,0,1,.28889-.24515c.31354-.02161.62692-.05283.94074-.07879a2.97935,2.97935,0,0,0,2.62211-2.11718c.20425-.51336-.00044-.762-.57021-.735-.24.01138-.48818.135-.707-.0674a3.04353,3.04353,0,0,1,.72712-1.48684,1.954,1.954,0,0,0,.48562-.8333.39251.39251,0,0,0,.39241-.10616A.51035.51035,0,0,1,85.41594,69.30119Z"/><path class="cls-6" d="M85.41594,69.30119l-.7083.033c.01925-.127-.00812-.30646.06568-.37191.35157-.31189.43449-.79091.73933-1.126A7.685,7.685,0,0,1,85.41594,69.30119Z"/><path class="cls-15" d="M74.724,30.94827a18.45757,18.45757,0,0,1,2.25129,1.35632A8.07525,8.07525,0,0,1,78.751,33.83537a2.15187,2.15187,0,0,0,.74924.66363,1.103,1.103,0,0,1,.30192.26534c.40266.4408.80725.89287,1.16384,1.35855a4.64261,4.64261,0,0,1,.96416,1.96262,10.62318,10.62318,0,0,0,.68213,1.9402,6.88076,6.88076,0,0,1,.33782,1.86633c.047.46375.06705.927.13092,1.39242a4.76378,4.76378,0,0,1,.036,1.458,5.56467,5.56467,0,0,0-.02264,1.07678,5.84526,5.84526,0,0,1-.256,1.63961c-.21027.80447-.3228,1.6289-.61352,2.41973-.27252.74139-.59491,1.44946-.93738,2.16a15.524,15.524,0,0,1-1.79419,2.68649,16.15231,16.15231,0,0,1-2.06568,2.05222,29.47686,29.47686,0,0,1-2.374,1.7587,10.35815,10.35815,0,0,1-3.10376,1.62816,13.55085,13.55085,0,0,0-1.65646.65054,18.78667,18.78667,0,0,1-3.04188.7963,11.13161,11.13161,0,0,0-1.97595.25728c-.76143.30955-1.60154.02908-2.37506.28583-.94216-.29562-1.94825-.1-2.89579-.37825a2.59773,2.59773,0,0,0-.67177-.0194,1.34242,1.34242,0,0,1-.53037-.05761c-1.02822-.43412-2.11486-.71-3.16831-1.06442A19.4739,19.4739,0,0,1,51.7324,58.565a16.97728,16.97728,0,0,1-4.24827-3.82292c-.59716-.73328-1.02841-1.56516-1.565-2.32532a9.4778,9.4778,0,0,1-1.11727-2.68029,1.88493,1.88493,0,0,1-.056-.66277,4.59691,4.59691,0,0,0,.07888-1.33857,16.47483,16.47483,0,0,1,.88439-6.75456,27.13622,27.13622,0,0,1,2.603-5.22808,10.80433,10.80433,0,0,1,2.3671-2.55769,3.29982,3.29982,0,0,0,.55111-.48991c.06635-.37973.42186-.28805.65237-.40017a7.28578,7.28578,0,0,0,1.07018,2.60166c.31414.50968.68977.98247,1.051,1.46188.58529.77675,1.293,1.44481,1.94529,2.1621a1.12058,1.12058,0,0,1,.4077,1.10438c-.06687,1.28553-.05669,2.57414-.0149,3.86389a4.64456,4.64456,0,0,1-.24916,2.47387.65113.65113,0,0,0,.27318.64873,5.28121,5.28121,0,0,0,1.40472,1.16114,10.38,10.38,0,0,1,1.0903.75676,6.05611,6.05611,0,0,0,3.55176,1.05909,11.71408,11.71408,0,0,0,2.48379-.08726,9.72862,9.72862,0,0,0,2.74658-.72c.528-.30835,1.11135-.54055,1.65938-.83342A5.34109,5.34109,0,0,0,70.79464,46.372a.77362.77362,0,0,0,.1491-.50449c-.01474-.96014.05628-1.91645.11543-2.87475.0628-1.01743.03692-2.04238.00542-3.06267-.01478-.47888.20834-.93959.0333-1.4378-.07023-.19989.19541-.4359.32519-.60706a7.86606,7.86606,0,0,1,.71151-.88757,12.535,12.535,0,0,0,1.64384-2.31509C74.10626,34.16946,74.46881,31.31018,74.724,30.94827Z"/><path class="cls-13" d="M56.09274,45.97251c.141-.48506-.07995-.97905.06416-1.475.22285-.76691-.26216-1.55231.03162-2.34114.08472-.22747-.16807-.50117-.10433-.77654.15361-.66348-.09631-1.35406.13339-2.01079.12327-.35247-.18444-.55769-.26848-.83866.81809.44445,1.53447,1.04091,2.31035,1.54606a14.698,14.698,0,0,0,2.8844,1.74426,11.87241,11.87241,0,0,0,3.04906.33961,13.76888,13.76888,0,0,0,3.35725-.87419,3.45848,3.45848,0,0,1,.59574-.28211c.15467-.09011.23921.05477.34146.13451.13957.10883.11318.224.02793.34954a2.15492,2.15492,0,0,1-.31877.50584c-.69937.6053-1.35788,1.26345-2.09454,1.81836a9.96855,9.96855,0,0,1-2.14751,1.47565c-.06189.02515-1.431.54579-1.73263.62563a12.08881,12.08881,0,0,1-5.25931.3003C56.66925,46.16174,56.44069,45.85042,56.09274,45.97251Z"/><path class="cls-13" d="M59.94461,30.58313a2.25031,2.25031,0,0,0,1.76851.64271c.66983.04535,1.345.02131,2.01766.01207a3.2084,3.2084,0,0,0,1.529-.40809,2.01512,2.01512,0,0,1,.65342-.29933c.39289-.06839.51014-.387.35834-.77469-.073-.18657-.1734-.36264-.26472-.54177-.04291-.08417-.07807-.175.01883-.232.08578-.05043.16979.00143.2361.06665.12725.12517.29334.23168.3301.41513a6.8516,6.8516,0,0,0,.39644,1.33545c.15071.35666.02363.592-.34312.75a7.04615,7.04615,0,0,1-2.5626.64435c-.57417.02013-1.14636-.12343-1.691-.06888a4.4477,4.4477,0,0,1-2.01474-.4851C59.7559,31.41749,59.704,31.2657,59.94461,30.58313Z"/><path class="cls-12" d="M67.02475,35.28854c-.12213.66537-.7558.78956-1.20808,1.04126a4.83349,4.83349,0,0,1-2.07481.574,2.44029,2.44029,0,0,1-1.27993-.176,5.56364,5.56364,0,0,0-1.24955-.2307.53962.53962,0,0,1-.54149-.525,1.23132,1.23132,0,0,1,1.26465-.43944,24.818,24.818,0,0,0,4.393-.389A.77536.77536,0,0,1,67.02475,35.28854Z"/><path class="cls-13" d="M67.02475,35.28854a2.69854,2.69854,0,0,0-1.11126.1356c-.46127.14272-.94506-.09044-1.40285.12479a3.72128,3.72128,0,0,1-1.95875.1489c-.644-.05283-1.38444.49664-3.06.06053a.35246.35246,0,0,1-.27311-.47607c.092-.20837.29668-.14207.4703-.092a3.59323,3.59323,0,0,0,2.89759-.16671.31449.31449,0,0,1,.24395.07437,1.22153,1.22153,0,0,0,1.05417.11973c.47282-.17024.16525-.38372,1.23872-.15488a2.44622,2.44622,0,0,0,1.44018-.33564c.63328-.27407,1.126-.77219,1.74045-1.07616a.633.633,0,0,1,.30323-.1196c.10911.004.2306-.01437.28294.11849a.23663.23663,0,0,1-.03393.2545,3.48147,3.48147,0,0,1-.7912.71011A2.50078,2.50078,0,0,0,67.02475,35.28854Z"/><path class="cls-1" d="M58.486,21.51048a13.101,13.101,0,0,1-2.7595-.35362,1.20751,1.20751,0,0,0-1.2749.42229,1.0956,1.0956,0,0,1-.8972.47221c-.10525-.007-.23737.0214-.28879-.10987a.213.213,0,0,1,.10754-.28116,4.64911,4.64911,0,0,0,.792-.72332.9753.9753,0,0,1,.44625-.28454,3.67629,3.67629,0,0,0,.97544-.34266,2.48281,2.48281,0,0,1,1.55506.01392c.63412.0801,1.25524.25879,1.887.36449.17788.02976.251.14554.37222.22892a.35336.35336,0,0,1,.16416.45376c-.07078.19567-.26073.1306-.40709.137C58.93456,21.51772,58.71012,21.51048,58.486,21.51048Z"/><path class="cls-1" d="M69.19107,19.76082a8.40184,8.40184,0,0,1,2.82953.73477c.129.07442.33464.12407.25956.32772a.35187.35187,0,0,1-.42629.23067c-.48321-.19958-1.09768.08921-1.499-.43a.43291.43291,0,0,0-.50844-.05334c-.33538.18371-.7208.15953-1.06984.34547a2.57453,2.57453,0,0,1-1.4812.33077,2.01056,2.01056,0,0,0-.65942.09c-.36666.084-.49165-.07468-.404-.45365.06494-.28091.20833-.53836.513-.54725a8.0151,8.0151,0,0,0,2.3059-.56206A.40516.40516,0,0,1,69.19107,19.76082Z"/><path class="cls-1" d="M57.38346,26.2354c-.494.00793-.65034-.07453-.80663-.53586a2.34451,2.34451,0,0,1-.0567-1.54613.703.703,0,0,1,.64581-.49816,1.21349,1.21349,0,0,1,.92273.32257.68158.68158,0,0,1,.18131.89267c-.10015.25726-.04664.56083-.14013.84816A.65351.65351,0,0,1,57.38346,26.2354Z"/><path class="cls-13" d="M50.81983,25.10889c.07733.2279.20282.47731-.00028.729-.07019.087-.12831.23021-.22846.22061-.23822-.02282-.468-.10119-.71406-.10926-.16968-.00556-.23366-.17554-.30807-.31764q-.475-.90691-.96866-1.804c-.08245-.15054-.05226-.22493.098-.31194a.79238.79238,0,0,1,.8268-.05793c.45389.33609,1.04186.54336,1.25373,1.164C50.83383,24.78283,51.01168,24.898,50.81983,25.10889Z"/><path class="cls-1" d="M69.99378,24.50506c.09773.29849-.11272.60008-.16082.92544a.61417.61417,0,0,1-.64.48526c-.29509-.04081-.67908-.00143-.8887-.34244a2.58994,2.58994,0,0,1,.12411-1.96129.65073.65073,0,0,1,.47093-.21193C69.66723,23.37405,69.99771,23.69017,69.99378,24.50506Z"/><path class="cls-13" d="M61.48364,36.55743l.25946.02006a9.18817,9.18817,0,0,0,3.08323.13987,2.4502,2.4502,0,0,1,1.64035.1278c.04582.1505-.05934.24615-.14575.35148a1.10423,1.10423,0,0,1-.66174.28992,5.98975,5.98975,0,0,1-1.4307.26121c-1.18479.00266-3.01452-.54749-2.93148-1.10283C61.30274,36.60667,61.40967,36.57415,61.48364,36.55743Z"/><path class="cls-13" d="M57.99354,23.40789a2.24058,2.24058,0,0,0-1.02864-.00846,1.53,1.53,0,0,0-.99286.61259c-.04366.07434-.07016.18346-.181.15352-.1418-.03828-.121-.17212-.11153-.27743a1.32172,1.32172,0,0,1,.67324-1.00908c.1464-.094.353-.09871.49156-.19975a.97856.97856,0,0,1,1.33552.09235c.12239.103.3313.15415.24048.40606C58.34023,23.3997,58.1834,23.41771,57.99354,23.40789Z"/><path class="cls-13" d="M67.75151,23.744c-.20837-.41773.16053-.61062.35009-.84715a1.44434,1.44434,0,0,1,1.6506-.48521c.41206.18022.46976.38237.26884.789-.09818.19871-.17943.20733-.3513.08691A.9926.9926,0,0,0,68.161,23.406C68.03305,23.52551,67.941,23.69085,67.75151,23.744Z"/><path class="cls-13" d="M60.59039,29.09551a1.24635,1.24635,0,0,1,.25692.1567c.12067.116-.01073.16794-.07255.25526a2.32047,2.32047,0,0,0-.22644.46833c-.07689.18792-.22714.19185-.38569.16251-.18-.03329-.15953-.18857-.16437-.31618C59.98742,29.53659,60.33487,29.09371,60.59039,29.09551Z"/><path class="cls-5" d="M28.29479,99.29894a3.38532,3.38532,0,0,1-.92585-1.84965,7.42728,7.42728,0,0,1-.33688-2.29377,5.8397,5.8397,0,0,1,1.48327-3.94675,2.99243,2.99243,0,0,1,1.16678-.73662,5.68218,5.68218,0,0,1,2.60468-.46692,3.88022,3.88022,0,0,1,2.89165,2.81792c.08211.23814.17407.47-.02035.69733-.99086-.04176-1.001.00018-1.05286,1.02623-.07186,1.42279.09409,2.87644-.58446,4.22533-1.22808,2.44137-2.69712,2.55924-4.65668.99676A3.705,3.705,0,0,0,28.29479,99.29894Z"/><path class="cls-8" d="M50.54717,63.38534c-.01772.30012-.26719.35031-.47368.37813a16.07456,16.07456,0,0,0-3.93276,1.16606,18.13224,18.13224,0,0,0-4.36421,2.32873c-.74614.58-1.652.94963-2.44882,1.47081a16.73705,16.73705,0,0,0-2.18532,1.635,36.1014,36.1014,0,0,0-3.25313,3.50849,10.10568,10.10568,0,0,0-1.23634,1.49056,16.88589,16.88589,0,0,0-1.4358,3.13351,2.29384,2.29384,0,0,1-.30473.73711,1.40143,1.40143,0,0,0-.22377.88533.85992.85992,0,0,0-.44508.10976c-.37316.22385-.55325.13754-.62066-.28875a1.95861,1.95861,0,0,1,.29268-1.34788,4.18524,4.18524,0,0,0,.38813-.97732,53.81032,53.81032,0,0,1,2.63061-5.665,18.47848,18.47848,0,0,1,1.33852-1.52758,19.69826,19.69826,0,0,1,3.7897-3.71039c.9334-.69287,1.917-1.30649,2.88971-1.94a17.38331,17.38331,0,0,1,2.233-1.11767c.155-.07206.206-.14465.19139-.29438l.00151.0093a.47248.47248,0,0,1,.453-.00473,2.90233,2.90233,0,0,1,1.25354-.17493c.82251-.00761,3.50141.21889,3.98389-.08629.15184.07719.298.19533.4823.09829A.89678.89678,0,0,1,50.54717,63.38534Z"/><path class="cls-9" d="M28.29479,99.29894c.19586-.16469.37443-.14727.48487.08556.27275.57494.88725.67908,1.35509.977a2.53482,2.53482,0,0,0,.49331.18012A1.15893,1.15893,0,0,0,32.082,100.275a.6511.6511,0,0,1,.19423-.18542,2.83989,2.83989,0,0,0,1.26406-1.945,10.10813,10.10813,0,0,0,.31227-1.083,1.486,1.486,0,0,0,.00452-.91341.66339.66339,0,0,1-.02219-.46238,5.14634,5.14634,0,0,0,.0984-1.46821,2.559,2.559,0,0,1,.02647-.46748c.12707-.50041.34358-.60276.83276-.41824.12424.04685.24744.09645.37111.1448.56787.25758.63272.82484.679,1.31052a7.65455,7.65455,0,0,1-.63412,4.33744,3.22668,3.22668,0,0,1-2.3561,1.92552l-.2678.05393a.3279.3279,0,0,0-.14685.08219,4.61594,4.61594,0,0,1-2.35777-.031,1.54969,1.54969,0,0,1-1.41645-1.169C28.61064,99.72043,28.28156,99.60125,28.29479,99.29894Z"/><path class="cls-8" d="M32.85241,101.05018c.3138-.36272.83293-.3523,1.18247-.68474A5.32994,5.32994,0,0,0,35.56358,97.64a12.19045,12.19045,0,0,0,.1687-2.62491,2.38154,2.38154,0,0,0-.5687-1.53838,4.24816,4.24816,0,0,0-1.06067-2.21711,3.2186,3.2186,0,0,0-1.63225-1.06725c-.07194-.01683-.12308-.1226-.18387-.18711a3.261,3.261,0,0,1,2.60662,1.08035,18.35938,18.35938,0,0,1,1.79485,2.28232,3.46785,3.46785,0,0,1,.54851,1.48793,6.20868,6.20868,0,0,1-.04141,2.61938c-.04756.16789-.57133.12892-.20511.488.05948.05833-.15488.43733-.28777.63829a4.98727,4.98727,0,0,1-.45851.49046,5.45159,5.45159,0,0,0-.45637.56553c-.14508.21747-.42756.27006-.56334.4631-.54919.78079-1.44126.802-2.23273,1.04579C32.96007,101.17608,32.89944,101.09107,32.85241,101.05018Z"/><path class="cls-8" d="M32.43776,101.1863c.02983-.06156.06091-.12089.14685-.08219A.13616.13616,0,0,1,32.43776,101.1863Z"/><path class="cls-14" d="M51.23025,32.7049c.0522.19971-.0006.29112-.19056.44445a11.466,11.466,0,0,0-3.21528,3.75839c-.24918.49861-.55634.99313-.78743,1.49743-.24169.52743-.5264,1.04174-.72557,1.60007-.20122.56411-.48457,1.09934-.67142,1.68474a8.276,8.276,0,0,0-.43784,1.7494c-.084,1.01541-.2542,2.02483-.2494,3.06013a14.65057,14.65057,0,0,1,.04214,2.26372c-.02856.191-.0609.28927-.24907.31048-.24448.091-.46178.14441-.5488-.21085a12.15991,12.15991,0,0,1-.28057-1.22625,17.28385,17.28385,0,0,1,.18805-4.61512,1.53358,1.53358,0,0,0,.09426-.52434,5.887,5.887,0,0,1,.65053-2.33368,12.258,12.258,0,0,0,.62239-1.62271c.2193-.73508.68361-1.34054.9575-2.03944A3.02477,3.02477,0,0,1,47.014,35.695c.76537-.91562,1.55248-1.81669,2.38555-2.6704a8.2917,8.2917,0,0,1,1.28933-.91408c.19068-.13122.27977.01058.37123.14469C51.15323,32.39179,50.95955,32.63625,51.23025,32.7049Z"/><path class="cls-9" d="M83.66972,57.0693a8.19808,8.19808,0,0,1-.9145,2.04776,9.94309,9.94309,0,0,1-1.65756,1.84243,28.87952,28.87952,0,0,1-3.28448,2.76343c-.34183.29325-.81383.36393-1.1529.669a12.76383,12.76383,0,0,1-2.90791,1.61138,18.09456,18.09456,0,0,1-2.87477,1.2215c-.21478.06676-1.10208.261-1.39845.31883a6.28531,6.28531,0,0,0-1.44007.2482,1.82028,1.82028,0,0,1-.53375.0337.21734.21734,0,0,1-.16448-.08022c-.04916-.10472.04221-.14246.12139-.19254a5.2422,5.2422,0,0,1,.98641-.39523c1.11934-.42584,2.22266-.89577,3.35118-1.2949a19.2946,19.2946,0,0,0,2.60593-1.32043c.64407-.34374,1.26492-.73243,1.89459-1.10109a7.92668,7.92668,0,0,0,1.84312-1.543A4.90029,4.90029,0,0,1,79.095,61.101a13.71007,13.71007,0,0,0,2.02887-2.032,12.02265,12.02265,0,0,0,1.89085-2.38114.30293.30293,0,0,1,.32736-.1858c.22457.04758.09031.173.07167.29839C83.39139,56.951,83.55419,57.00555,83.66972,57.0693Z"/><path class="cls-2" d="M71.75754,72.56406a19.05835,19.05835,0,0,1,.10508,2.3867c.04859.97678.17342,1.93944.26984,2.90836.03629.36465.27532.47646.44786.42489a6.65382,6.65382,0,0,1,1.54983-.02017,25.03254,25.03254,0,0,1,3.56211-.1472c-.56126.38772-.92657,1.002-1.53973,1.33009a7.642,7.642,0,0,0-1.48606,1.26982,9.47133,9.47133,0,0,0-1.862,1.74382c-.0535.08537-.14785.08758-.23652.09511-.0967-.13611-.27551-.18286-.29948-.4091-.03791-.35771-.2022-.70216-.24406-1.05755a11.26773,11.26773,0,0,0-1.24073-3.48966,7.396,7.396,0,0,0-.77009-1.44116,22.47937,22.47937,0,0,0-1.82385-2.60939.38433.38433,0,0,1-.08465-.31388c.69725.08328,1.31624-.30709,1.99814-.3279C70.67264,72.88947,71.163,72.47273,71.75754,72.56406Z"/><path class="cls-11" d="M78.22772,69.60961a22.422,22.422,0,0,1-3.88182,2.01476,15.94021,15.94021,0,0,1-2.44535.80074c-.0786-.74542.03608-1.49007.009-2.23556-.00962-.26482.1788-.29163.39356-.3374a9.64411,9.64411,0,0,1,2.18754-.12512,7.49448,7.49448,0,0,0,2.09458-.25056.902.902,0,0,1,.58689.04723C77.50785,69.66117,77.87811,69.53986,78.22772,69.60961Z"/><path class="cls-9" d="M59.47736,112.2572a.55927.55927,0,0,0-.02826-.19273c-.30874-.54824-.28348-.59481.35124-.60873a8.36589,8.36589,0,0,0,2.77342.15154.99737.99737,0,0,1,.6003-.00133,3.65536,3.65536,0,0,0,1.76814-.08094c.89571-.1204,1.77332-.374,2.65977-.56564a2.07214,2.07214,0,0,1,1.34122.60154c.06856.11845.01479.17963-.08977.15835a11.02921,11.02921,0,0,0-1.93341.66515,12.16734,12.16734,0,0,1-2.98462.29427c-1.002-.00433-2.00423.0341-3.00611-.01859C60.46562,112.45258,59.868,112.72793,59.47736,112.2572Z"/><path class="cls-14" d="M59.47736,112.2572a4.41651,4.41651,0,0,0,1.10964.14977c.18094-.02636.2748.10513.34228.25312a2.79354,2.79354,0,0,1-1.52209.05174,4.023,4.023,0,0,0-1.28734.03352c.09834-.3273.38878-.292.63909-.36169A2.325,2.325,0,0,1,59.47736,112.2572Z"/><path class="cls-9" d="M40.01167,107.38818a1.23725,1.23725,0,0,1-.66442.43725c-.89871.52412-1.88636.85823-2.82224,1.30431-.68133.32477-1.46658.42687-2.16123.72979a3.30443,3.30443,0,0,1-1.85277.24828c-.10972-.01573-.22725.00512-.31995-.07225-.10187-.085-.24519-.15962-.24771-.30145-.00334-.18782.17672-.16735.29923-.19025a39.13429,39.13429,0,0,0,3.864-1.3681,3.74427,3.74427,0,0,0,1.072-.512,6.18682,6.18682,0,0,1,2.16727-.77707C39.71219,106.79327,39.91422,106.96948,40.01167,107.38818Z"/><path class="cls-9" d="M38.10815,110.6204a2.76833,2.76833,0,0,0-.65211.42085,2.68261,2.68261,0,0,0-.59753.17518,28.104,28.104,0,0,0-2.67763,1.09334,1.03149,1.03149,0,0,1-.73209.01492c-.18423-.06-.43449-.22939-.40877-.47183.01787-.1685.25148-.22209.42575-.25834a14.34389,14.34389,0,0,0,2.61951-1.07064,9.60366,9.60366,0,0,1,2.06772-.8075,1.7911,1.7911,0,0,1,.26807-.01482.31374.31374,0,0,1,.2904.13658c.086.1374-.05765.19127-.12059.26707-.09885.119-.23842.2127-.20674.39818l.00352-.0001C38.31434,110.58973,38.19656,110.57,38.10815,110.6204Z"/><path class="cls-9" d="M33.59056,106.73754c.26958-.05389.62414.01125.66894.19189.0653.26326-.23237.429-.48485.55934-.7112.36716-1.49565.53086-2.23161.82929a1.53905,1.53905,0,0,1-1.038-.13648.24647.24647,0,0,1-.18737-.25038.23915.23915,0,0,1,.212-.22788,2.77227,2.77227,0,0,0,.83006-.23235c.55249-.20745,1.08592-.4616,1.65653-.627A1.45666,1.45666,0,0,1,33.59056,106.73754Z"/><path class="cls-9" d="M63.4896,104.3094a.39159.39159,0,0,1-.00711.58956,3.42885,3.42885,0,0,1-1.53594.90073,2.69635,2.69635,0,0,0-1.00878.37189c-.89087.19453-1.7536.494-2.65036.6741-1.26515.25412-2.51061.60974-3.779.84284-.785.14427-1.591.20847-2.38761.29445-.82875.08945-1.65489.00688-2.47.11078a7.6856,7.6856,0,0,1-2.047-.19441c-.4491-.06123-.92059-.14628-1.36668-.19743-.39045-.04478-.64779-.42668-1.05308-.3082-.061-.12983-.18244-.245.07-.34014a6.08916,6.08916,0,0,1,2.24054-.31614c.67519.00656,1.34847-.06428,2.0192-.0907.355-.014.72039.01253,1.08022-.01432.748-.05582,1.49383-.1408,2.24224-.19409,1.11386-.07932,2.2153-.31884,3.32678-.44979,1.11186-.131,2.18417-.46189,3.29585-.60179.40355-.05079.79321-.3123,1.21546-.35766C61.64961,104.92433,62.49253,104.31654,63.4896,104.3094Z"/><path class="cls-3" d="M38.10815,110.6204a.24751.24751,0,0,1,.27951-.11711C38.34971,110.67415,38.22705,110.64278,38.10815,110.6204Z"/><path class="cls-2" d="M32.2683,56.22452a1.0655,1.0655,0,0,1,.96139,1.25376,6.39569,6.39569,0,0,1-1.19459,2.55388.96567.96567,0,0,1-1.03449.18446.39518.39518,0,0,1-.10594-.14634c.38958-.31495-.11871-.94732.43219-1.216.0924-.04507.1341-.22658.16753-.3534.07241-.27472.30075-.62889.09074-.80868-.12542-.10738-.48219.2-.6731.40585a2.5384,2.5384,0,0,1-1.20535.536.46383.46383,0,0,1-.59481-.18927c-.13286-.26573.07573-.44063.2652-.54347.69418-.37677,1.23343-.9584,1.88619-1.38912A1.92279,1.92279,0,0,1,32.2683,56.22452Z"/><path class="cls-2" d="M92.93859,57.57433c.22315-.06337.41024.10278.6262.13584a.19662.19662,0,0,1,.18531.22751c-.00827.14162-.12272.14647-.223.19432a1.04033,1.04033,0,0,1-.94949-.03675c-.12167-.05817-.26292-.11821-.24812-.27106.0174-.18005.14915-.25248.33214-.23684A2.0835,2.0835,0,0,0,92.93859,57.57433Z"/><path class="cls-2" d="M93.61685,59.04706a2.66784,2.66784,0,0,1,.47971.06314.33732.33732,0,0,1,.197.43862.3261.3261,0,0,1-.36977.3016c-.10556-.01177-.20458-.07384-.31019-.09535-.182-.03708-.495.00016-.44361-.23794C93.21122,59.32621,93.343,58.99207,93.61685,59.04706Z"/><path class="cls-2" d="M94.94969,57.4217c.29428.02548.57162-.05092.68148.25857.02806.07907.04459.19428-.04561.24348-.23014.12552-.46154.28006-.74181.11653a.54507.54507,0,0,0-.18548-.06313c-.16759-.02678-.3219-.09612-.30592-.28068.01866-.21552.196-.2698.39223-.26589C94.83293,57.43234,94.92149,57.42306,94.94969,57.4217Z"/><path class="cls-2" d="M94.24583,55.52794c.25246.04676.50615.04344.56774.31084.03724.16172-.34916.39254-.56574.3621a.10131.10131,0,0,1-.06025-.02781c-.14321-.17243-.54288.04068-.53318-.27714C93.66556,55.53043,94.088,55.70237,94.24583,55.52794Z"/><path class="cls-10" d="M62.01391,75.92908a6.00807,6.00807,0,0,1,2.73756.98216,11.41557,11.41557,0,0,1,1.51766,1.45922,7.12643,7.12643,0,0,1,.75346,1.22873,19.15731,19.15731,0,0,1,1.23259,2.71073c.07586.24854.237.42823-.16675.55-.17718.05345-.18335.26285.07937.36413a1.01057,1.01057,0,0,1,.47352,1.2124c-.05437.10736-.14893.221-.00826.24575.33833.05944.28452.295.278.509-.01307.42766.2118.80649.23068,1.22863a23.95477,23.95477,0,0,1-.11146,4.10427.82619.82619,0,0,0-.005.38026.33948.33948,0,0,1-.16707.45372.62816.62816,0,0,0-.3591.60074.3137.3137,0,0,1-.23667.29876,3.65431,3.65431,0,0,1-1.15809.2658,2.76138,2.76138,0,0,1-1.47262-.4982,3.0231,3.0231,0,0,1-.43441-1.08818c-.1607-1.1138-.27554-2.23592-.48329-3.34069-.17561-.93391-.22417-1.88273-.44923-2.81654-.14076-.584-.33569-1.15713-.447-1.73844a16.10851,16.10851,0,0,0-.44373-1.80278,12.99822,12.99822,0,0,0-.831-1.93856c-.34816-.69208-.98747-1.17689-1.22454-1.92575a.70047.70047,0,0,0-.38344-.35637c-.36514-.19411-.36283-.50358-.02177-.72614A5.18846,5.18846,0,0,1,62.01391,75.92908Z"/><path class="cls-2" d="M77.15686,92.682c.00539.08625-.00979.15773-.117.16314A.13948.13948,0,0,1,77.15686,92.682Z"/><path class="cls-2" d="M80.80208,74.83927,80.528,75.004c-.10189-.03516-.71251-.051-.85519-.08058a17.69062,17.69062,0,0,0-3.36843-.05049,4.655,4.655,0,0,1-2.22661-.60134,1.60794,1.60794,0,0,1-.70549-1.621.4083.4083,0,0,1,.437-.33771,6.79516,6.79516,0,0,1,1.86221.26057,2.07146,2.07146,0,0,0,.51263.13095,6.59434,6.59434,0,0,1,1.32432.40573,1.93486,1.93486,0,0,0,1.98539.07212,12.55782,12.55782,0,0,1,2.29728-.97429,4.79855,4.79855,0,0,1,.90449-.15905c.04428.05392.08457.13067.052.18281A11.02745,11.02745,0,0,1,80.80208,74.83927Z"/><path class="cls-6" d="M80.80208,74.83927a6.802,6.802,0,0,1,.68106-1.0079,18.7266,18.7266,0,0,0,1.21244-1.78249l.25981-.186a.93723.93723,0,0,0,.14871-.10783l-.00161.00542a2.56475,2.56475,0,0,0,.71694-.12986.6944.6944,0,0,1,.733.21534.6458.6458,0,0,1-.00405.80287c-.2202.324-.37636.68864-.59065,1.02443a2.73934,2.73934,0,0,1-2.27042,1.16324C81.40692,74.86248,81.09181,75.124,80.80208,74.83927Z"/><path class="cls-2" d="M79.17972,76.76778a14.09523,14.09523,0,0,1-3.35663-.28713c-.10915-.02148-.22641-.009-.30928-.1-.14261-.15664-.1825-.319.03992-.43021a.92453.92453,0,0,1,.44323-.13129c.63007.04763,1.2344-.22562,1.85881-.14582a6.16068,6.16068,0,0,0,1.11061-.06584,7.00406,7.00406,0,0,1,1.02221.07946A1.38636,1.38636,0,0,1,79.17972,76.76778Z"/><path class="cls-6" d="M79.17972,76.76778l.80887-1.08088.269-.04143a12.03092,12.03092,0,0,1,2.29163.17094c.17094.01577.36034.17135.34392.34593a.46925.46925,0,0,1-.28783.42362,3.27239,3.27239,0,0,1-1.53812.26314A9.69668,9.69668,0,0,0,79.17972,76.76778Z"/><path class="cls-11" d="M83.1041,71.75507a.12848.12848,0,0,1-.14871.10783A.15576.15576,0,0,1,83.1041,71.75507Z"/><path class="cls-10" d="M110.79542,9.76235a9.59749,9.59749,0,0,1,.84747,1.47915,3.36561,3.36561,0,0,0,2.26773,2.225c.12752.0409.22244.18343.33247.27883a1.14724,1.14724,0,0,1-.27124.23613c-1.76166.72938-2.20983,2.28718-2.50635,3.945a2.21682,2.21682,0,0,1-.11552.3346,1.60542,1.60542,0,0,1-.16436-.29995c-.50285-1.68072-.9775-3.37661-2.89308-4.0537-.14575-.05151-.25455-.21879-.02935-.33069a4.5742,4.5742,0,0,0,2.19671-3.24524A2.78389,2.78389,0,0,1,110.79542,9.76235Z"/><path class="cls-10" d="M7.40105,21.362a9.59731,9.59731,0,0,1,.84748,1.47916,3.36561,3.36561,0,0,0,2.26773,2.225c.12752.0409.22244.18343.33247.27883a1.14724,1.14724,0,0,1-.27124.23613c-1.76166.72938-2.20983,2.28718-2.50635,3.945a2.21725,2.21725,0,0,1-.11553.3346,1.60536,1.60536,0,0,1-.16435-.3c-.50285-1.68072-.9775-3.37661-2.89308-4.0537-.14575-.05151-.25456-.21879-.02935-.33069a4.57426,4.57426,0,0,0,2.19671-3.24524A2.78456,2.78456,0,0,1,7.40105,21.362Z"/><path class="cls-10" d="M98.45737,34.86842a2.82206,2.82206,0,0,1-.11919-.35871,4.20809,4.20809,0,0,0-2.21141-2.94378c-.39516-.246-.5552-.52272-.07061-.77539a4.263,4.263,0,0,0,2.01178-2.88648c.0632-.21727.07692-.42447.35716-.45326.26393-.0271.34892.16234.48581.33847.74742.96162.86317,2.48514,2.42264,2.73873.114.01854.36719.28921.09881.36492-1.81426.51179-2.28293,2.02441-2.73947,3.5622A2.54663,2.54663,0,0,1,98.45737,34.86842Z"/><path class="cls-10" d="M84.38617,9.58605a4.3267,4.3267,0,0,1,.48591-.39788,2.5083,2.5083,0,0,0,1.16968-1.69308c.04856-.22192.07505-.42117.36-.45311.281-.0315.27705.195.37124.35371.45185.76132.56081,1.80278,1.70246,2.006.24361.04336.06231.27467-.07118.295-1.36686.20843-1.58108,1.35048-1.94949,2.37133-.0399.11056-.09561.21542-.144.32292a2.04959,2.04959,0,0,1-.20072-.28884c-.40519-.86047-.4425-1.96978-1.58853-2.32807C84.47459,9.75937,84.449,9.67644,84.38617,9.58605Z"/><path class="cls-10" d="M27.73409,27.18205a4.32779,4.32779,0,0,1,.48592-.39787,2.50833,2.50833,0,0,0,1.16967-1.69309c.04856-.22192.07506-.42117.36-.45311.281-.03149.27705.195.37125.35372.45184.76131.56081,1.80278,1.70245,2.006.24361.04336.06231.27466-.07118.295-1.36686.20844-1.58108,1.35048-1.94949,2.37133-.03989.11056-.09561.21542-.144.32293a2.04994,2.04994,0,0,1-.20072-.28885c-.40518-.86047-.4425-1.96977-1.58852-2.32807C27.82251,27.35537,27.79692,27.27244,27.73409,27.18205Z"/><path class="cls-10" d="M21.13516,47.96017a6.16466,6.16466,0,0,0-.69216-.56675,3.573,3.573,0,0,1-1.66614-2.4117c-.06917-.31612-.10691-.59994-.51275-.64544-.40026-.04486-.39465.27776-.52883.50385-.64363,1.08445-.79884,2.568-2.42506,2.85741-.347.06177-.08875.39125.1014.42025,1.947.2969,2.25217,1.92369,2.77694,3.37784.05683.15749.1362.30686.20511.46a2.91971,2.91971,0,0,0,.28592-.41145c.57716-1.22569.63031-2.80584,2.26277-3.31621C21.00921,48.20706,21.04567,48.08893,21.13516,47.96017Z"/></svg>