<?xml version="1.0" encoding="utf-8"?>
<!-- Uploaded to SVGRepo https://www.svgrepo.com -->
<svg version="1.1" xmlns="http://www.w3.org/2000/svg" xmlns:xlink="http://www.w3.org/1999/xlink" x="0px" y="0px"
	 viewBox="0 0 200 200" style="enable-background:new 0 0 200 200;" xml:space="preserve">
<style type="text/css">
	.st0{fill:#288252;stroke:#1D2B36;stroke-width:4;stroke-linejoin:round;stroke-miterlimit:10;}
	.st1{fill:none;stroke:#1D2B36;stroke-width:4;stroke-linecap:round;stroke-linejoin:round;stroke-miterlimit:10;}
	.st2{fill:#4BC27D;stroke:#1D2B36;stroke-width:4;stroke-miterlimit:10;}
	.st3{fill:#C4F0CE;}
	.st4{fill:#359E64;}
	.st5{fill:#394956;stroke:#1D2B36;stroke-width:4;stroke-linecap:round;stroke-linejoin:round;stroke-miterlimit:10;}
	.st6{fill:#FFC646;stroke:#1D2B36;stroke-width:4;stroke-linecap:round;stroke-linejoin:round;stroke-miterlimit:10;}
	.st7{fill:#FFD56D;stroke:#1D2B36;stroke-width:4;stroke-linecap:round;stroke-linejoin:round;stroke-miterlimit:10;}
	.st8{fill:#F5B126;stroke:#1D2B36;stroke-width:4;stroke-linecap:round;stroke-linejoin:round;stroke-miterlimit:10;}
	.st9{fill:#4F5D6B;}
	.st10{fill:#FFFFFF;stroke:#1D2B36;stroke-width:4;stroke-miterlimit:10;}
	.st11{fill:#7F83E4;stroke:#1D2B36;stroke-width:4;stroke-miterlimit:10;}
	.st12{fill:none;stroke:#7F83E4;stroke-width:4;stroke-linecap:round;stroke-miterlimit:10;}
	.st13{fill:#D79400;}
	.st14{fill:#D79400;stroke:#1D2B36;stroke-width:4;stroke-linecap:round;stroke-linejoin:round;stroke-miterlimit:10;}
	.st15{fill:#FFE8B5;stroke:#1D2B36;stroke-width:4;stroke-linecap:round;stroke-linejoin:round;stroke-miterlimit:10;}
	.st16{fill:#FFE8B5;}
	.st17{fill:#B37100;}
	.st18{fill:#E3E8EB;stroke:#1D2B36;stroke-width:4;stroke-linecap:round;stroke-linejoin:round;stroke-miterlimit:10;}
	.st19{fill:#D6DDE3;}
	.st20{fill:#C1CBD4;}
	.st21{fill:#FFFFFF;}
	.st22{fill:#E3E8EB;}
	.st23{fill:#B37100;stroke:#1D2B36;stroke-width:4;stroke-linejoin:round;stroke-miterlimit:10;}
	.st24{fill:#4BC27D;stroke:#1D2B36;stroke-width:4;stroke-linecap:round;stroke-linejoin:round;stroke-miterlimit:10;}
	.st25{fill:#D6DDE3;stroke:#1D2B36;stroke-width:4;stroke-linecap:round;stroke-linejoin:round;stroke-miterlimit:10;}
	.st26{fill:#FFFFFF;stroke:#1D2B36;stroke-width:4;stroke-linecap:round;stroke-linejoin:round;stroke-miterlimit:10;}
	.st27{fill:#3197D6;stroke:#1D2B36;stroke-width:4;stroke-linecap:round;stroke-linejoin:round;stroke-miterlimit:10;}
	.st28{fill:#237AB3;}
	.st29{fill:#1F5E89;stroke:#1D2B36;stroke-width:4;stroke-miterlimit:10;}
	.st30{fill:#237AB3;stroke:#1D2B36;stroke-width:4;stroke-miterlimit:10;}
	.st31{fill:#1F5E89;}
	.st32{fill:#237AB3;stroke:#1D2B36;stroke-width:4;stroke-linecap:round;stroke-miterlimit:10;}
	.st33{fill:#E3E8EB;stroke:#1D2B36;stroke-width:4;stroke-miterlimit:10;}
	.st34{fill:#F1F3F5;stroke:#1D2B36;stroke-width:4;stroke-linecap:round;stroke-linejoin:round;stroke-miterlimit:10;}
	.st35{fill:#A5B2BD;}
	.st36{fill:#FFC646;stroke:#1D2B36;stroke-width:4;stroke-linecap:round;stroke-miterlimit:10;}
	.st37{fill:#F5B126;}
	.st38{fill:none;stroke:#A3A6F1;stroke-width:4;stroke-linecap:round;stroke-linejoin:round;stroke-miterlimit:10;}
	.st39{fill:none;stroke:#6A6DC7;stroke-width:4;stroke-linecap:round;stroke-linejoin:round;stroke-miterlimit:10;}
	.st40{fill:none;stroke:#F5B126;stroke-width:4;stroke-linecap:round;stroke-linejoin:round;stroke-miterlimit:10;}
	.st41{fill:none;stroke:#C4F0CE;stroke-width:4;stroke-linecap:round;stroke-linejoin:round;stroke-miterlimit:10;}
	.st42{fill:none;stroke:#4BC27D;stroke-width:4;stroke-linecap:round;stroke-linejoin:round;stroke-miterlimit:10;}
	.st43{fill:none;stroke:#FFFFFF;stroke-width:4;stroke-linecap:round;stroke-linejoin:round;stroke-miterlimit:10;}
	.st44{fill:none;stroke:#D6DDE3;stroke-width:4;stroke-linecap:round;stroke-linejoin:round;stroke-miterlimit:10;}
	.st45{fill:#E52F28;stroke:#1D2B36;stroke-width:4;stroke-linecap:round;stroke-linejoin:round;stroke-miterlimit:10;}
	.st46{fill:#FFA2A2;stroke:#1D2B36;stroke-width:4;stroke-linecap:round;stroke-linejoin:round;stroke-miterlimit:10;}
	.st47{fill:none;stroke:#FFE3E2;stroke-width:4;stroke-linecap:round;stroke-linejoin:round;stroke-miterlimit:10;}
	.st48{fill:none;stroke:#D21B14;stroke-width:4;stroke-linecap:round;stroke-linejoin:round;stroke-miterlimit:10;}
	.st49{fill:none;stroke:#BA1F19;stroke-width:4;stroke-linecap:round;stroke-linejoin:round;stroke-miterlimit:10;}
	.st50{fill:none;stroke:#FFC646;stroke-width:4;stroke-linecap:round;stroke-miterlimit:10;}
	.st51{fill:none;stroke:#3197D6;stroke-width:4;stroke-linecap:round;stroke-miterlimit:10;}
	.st52{fill:none;stroke:#E3E8EB;stroke-width:4;stroke-linecap:round;stroke-linejoin:round;stroke-miterlimit:10;}
	.st53{fill:none;stroke:#AEDFFF;stroke-width:4;stroke-linecap:round;stroke-miterlimit:10;}
	.st54{fill:none;stroke:#FFE8B5;stroke-width:4;stroke-linecap:round;stroke-miterlimit:10;}
	.st55{fill:none;stroke:#D79400;stroke-width:4;stroke-linecap:round;stroke-miterlimit:10;}
	.st56{fill:#B37100;stroke:#1D2B36;stroke-width:4;stroke-linecap:round;stroke-linejoin:round;stroke-miterlimit:10;}
	.st57{fill:#875200;}
	.st58{fill:none;stroke:#FFFDF6;stroke-width:4;stroke-linecap:round;stroke-miterlimit:10;}
	.st59{fill:#72808E;stroke:#1D2B36;stroke-width:4;stroke-linecap:round;stroke-linejoin:round;stroke-miterlimit:10;}
	.st60{fill:#D6DDE3;stroke:#1D2B36;stroke-width:4;stroke-linecap:round;stroke-miterlimit:10;}
	.st61{fill:none;stroke:#C1CBD4;stroke-width:4;stroke-linecap:round;stroke-miterlimit:10;}
	.st62{fill:#72808E;stroke:#1D2B36;stroke-width:4;stroke-linecap:round;stroke-miterlimit:10;}
	.st63{fill:#F9FAFA;stroke:#1D2B36;stroke-width:4;stroke-linecap:round;stroke-miterlimit:10;}
	.st64{fill:#E3E8EB;stroke:#1D2B36;stroke-width:4;stroke-linecap:round;stroke-miterlimit:10;}
	.st65{fill:#93A1AF;}
	.st66{fill:none;stroke:#FFFFFF;stroke-width:4;stroke-linecap:round;stroke-miterlimit:10;}
	.st67{fill:#4F5D6B;stroke:#1D2B36;stroke-width:4;stroke-miterlimit:10;}
	.st68{fill:#93A1AF;stroke:#1D2B36;stroke-width:4;stroke-miterlimit:10;}
	.st69{fill:#FFFFFF;stroke:#D79400;stroke-width:4;stroke-linecap:round;stroke-miterlimit:10;}
	.st70{fill:none;stroke:#F5B126;stroke-width:4;stroke-linecap:round;stroke-miterlimit:10;}
	.st71{fill:#EDDD38;stroke:#272822;stroke-width:4;stroke-linejoin:round;stroke-miterlimit:10;}
	.st72{fill:#F45B55;}
	.st73{fill:#FFE3E2;}
	.st74{fill:#F1F1F0;stroke:#272822;stroke-width:4;stroke-linecap:round;stroke-linejoin:round;stroke-miterlimit:10;}
	.st75{fill:#FFD56D;}
	.st76{fill:#D21B14;}
	.st77{fill:#FFFFFF;stroke:#1D2B36;stroke-width:4;stroke-linejoin:round;stroke-miterlimit:10;}
	.st78{fill:#4BC27D;stroke:#1D2B36;stroke-width:4;stroke-linejoin:round;stroke-miterlimit:10;}
	.st79{fill:none;stroke:#359E64;stroke-width:4;stroke-linejoin:round;stroke-miterlimit:10;}
	.st80{fill:none;stroke:#E3E8EB;stroke-width:4;stroke-linejoin:round;stroke-miterlimit:10;}
	.st81{fill:none;stroke:#FFC646;stroke-width:4;stroke-linecap:round;stroke-linejoin:round;stroke-miterlimit:10;}
	.st82{fill:#7F83E4;stroke:#253540;stroke-width:4;stroke-linecap:round;stroke-miterlimit:10;}
	.st83{fill:none;stroke:#253540;stroke-width:4;stroke-linecap:round;stroke-miterlimit:10;}
	.st84{fill:#B4C0CA;}
	.st85{fill:none;stroke:#AEDFFF;stroke-width:4;stroke-linecap:round;stroke-linejoin:round;stroke-miterlimit:10;}
	.st86{fill:none;stroke:#93A1AF;stroke-width:4;stroke-linecap:round;stroke-linejoin:round;stroke-miterlimit:10;}
	.st87{fill:none;stroke:#1D2B36;stroke-width:4;stroke-linecap:round;stroke-miterlimit:10;}
	.st88{fill:none;stroke:#FFE8B5;stroke-width:4;stroke-linecap:round;stroke-linejoin:round;stroke-miterlimit:10;}
	.st89{fill:none;stroke:#FFD56D;stroke-width:4;stroke-linecap:round;stroke-linejoin:round;stroke-miterlimit:10;}
	.st90{fill:#7F83E4;stroke:#1D2B36;stroke-width:4;stroke-linecap:round;stroke-miterlimit:10;}
	.st91{fill:#F1F3F5;}
	.st92{fill:#E52F28;}
	.st93{fill:#C1CBD4;stroke:#1D2B36;stroke-width:4;stroke-miterlimit:10;}
	.st94{fill:#875200;stroke:#1D2B36;stroke-width:4;stroke-miterlimit:10;}
	.st95{fill:#D79400;stroke:#1D2B36;stroke-width:4;stroke-linecap:round;stroke-miterlimit:10;}
	.st96{fill:#F7FCFE;stroke:#1D2B36;stroke-width:4;stroke-miterlimit:10;}
	.st97{fill:#F7FCFE;stroke:#1D2B36;stroke-width:4;stroke-linecap:round;stroke-miterlimit:10;}
	.st98{fill:#AEDFFF;stroke:#1D2B36;stroke-width:4;stroke-linecap:round;stroke-linejoin:round;stroke-miterlimit:10;}
	.st99{fill:none;stroke:#1F5E89;stroke-width:4;stroke-miterlimit:10;}
	.st100{fill:#DAF1FF;}
	.st101{fill:#AEDFFF;}
	.st102{fill:#71BFF1;}
	.st103{fill:none;stroke:#71BFF1;stroke-width:4;stroke-linecap:round;stroke-linejoin:round;stroke-miterlimit:10;}
	.st104{fill:#F1F3F5;stroke:#1D2B36;stroke-width:4;stroke-miterlimit:10;}
	.st105{fill:#394956;stroke:#1D2B36;stroke-width:4;stroke-miterlimit:10;}
	.st106{fill:none;stroke:#72808E;stroke-width:4;stroke-linecap:round;stroke-miterlimit:10;}
	.st107{fill:#2A3B47;}
	.st108{fill:#3CB170;stroke:#1D2B36;stroke-width:4;stroke-linecap:round;stroke-miterlimit:10;}
	.st109{fill:#4BC27D;stroke:#1D2B36;stroke-width:4;stroke-linecap:round;stroke-miterlimit:10;}
	.st110{fill:#3CB170;}
	.st111{fill:#FF9139;stroke:#1D2B36;stroke-width:4;stroke-linecap:round;stroke-miterlimit:10;}
	.st112{fill:none;stroke:#C1CBD4;stroke-width:4;stroke-linecap:round;stroke-linejoin:round;stroke-miterlimit:10;}
	.st113{fill:#E52F28;stroke:#FFE8B5;stroke-width:4;stroke-linecap:round;stroke-miterlimit:10;}
	.st114{fill:#394956;stroke:#1D2B36;stroke-width:4;stroke-linejoin:round;stroke-miterlimit:10;}
	.st115{fill:#E52F28;stroke:#1D2B36;stroke-width:4;stroke-linejoin:round;stroke-miterlimit:10;}
	.st116{fill:#FFC646;stroke:#1D2B36;stroke-width:4;stroke-miterlimit:10;}
	.st117{fill:#3197D6;stroke:#1D2B36;stroke-width:4;stroke-miterlimit:10;}
	.st118{fill:#4F5D6B;stroke:#1D2B36;stroke-width:4;stroke-linecap:round;stroke-miterlimit:10;}
	.st119{fill:#FFFFFF;stroke:#D6DDE3;stroke-width:4;stroke-linecap:round;stroke-miterlimit:10;}
	.st120{fill:#FFF6E2;stroke:#1D2B36;stroke-width:4;stroke-miterlimit:10;}
	.st121{fill:#B37100;stroke:#1D2B36;stroke-width:4;stroke-miterlimit:10;}
	.st122{fill:none;stroke:#875200;stroke-width:4;stroke-linecap:round;stroke-miterlimit:10;}
	.st123{fill:#E52F28;stroke:#1D2B36;stroke-width:4;stroke-linecap:round;stroke-miterlimit:10;}
	.st124{fill:#BA1F19;stroke:#1D2B36;stroke-width:4;stroke-linecap:round;stroke-miterlimit:10;}
	.st125{fill:#72808E;stroke:#1D2B36;stroke-width:4;stroke-miterlimit:10;}
	.st126{fill:#D6DDE3;stroke:#1D2B36;stroke-width:4;stroke-miterlimit:10;}
	.st127{fill:none;stroke:#1D2B36;stroke-width:4;stroke-miterlimit:10;}
	.st128{fill:#A3A6F1;stroke:#1D2B36;stroke-width:4;stroke-linecap:round;stroke-linejoin:round;stroke-miterlimit:10;}
	.st129{fill:#7F83E4;stroke:#1D2B36;stroke-width:4;stroke-linecap:round;stroke-linejoin:round;stroke-miterlimit:10;}
	.st130{fill:#585B9E;}
	.st131{fill:#7F83E4;stroke:#45477B;stroke-width:4;stroke-linecap:round;stroke-linejoin:round;stroke-miterlimit:10;}
	.st132{fill:#6A6DC7;stroke:#1D2B36;stroke-width:4;stroke-linecap:round;stroke-linejoin:round;stroke-miterlimit:10;}
	.st133{fill:#6A6DC7;stroke:#45477B;stroke-width:4;stroke-linecap:round;stroke-linejoin:round;stroke-miterlimit:10;}
	.st134{fill:#7F83E4;}
	.st135{fill:#A3A6F1;}
	.st136{fill:#D1D3F5;}
	.st137{fill:#FF9139;stroke:#1D2B36;stroke-width:4;stroke-linecap:round;stroke-linejoin:round;stroke-miterlimit:10;}
	.st138{fill:#E6781E;}
	.st139{fill:none;stroke:#FFD3B0;stroke-width:4;stroke-linecap:round;stroke-linejoin:round;stroke-miterlimit:10;}
	.st140{fill:#81DC9E;}
	.st141{fill:none;stroke:#D1D3F5;stroke-width:4;stroke-linecap:round;stroke-linejoin:round;stroke-miterlimit:10;}
	.st142{fill:#6A6DC7;}
	.st143{fill:#BA1F19;}
	.st144{fill:#D79400;stroke:#1D2B36;stroke-width:4;stroke-linejoin:round;stroke-miterlimit:10;}
	.st145{fill:#FFE8B5;stroke:#1D2B36;stroke-width:4;stroke-linejoin:round;stroke-miterlimit:10;}
	.st146{fill:none;stroke:#1D2B36;stroke-width:4;stroke-linejoin:round;stroke-miterlimit:10;}
	.st147{fill:#BA1F19;stroke:#1D2B36;stroke-width:4;stroke-linecap:round;stroke-linejoin:round;stroke-miterlimit:10;}
	.st148{fill:#9D1F1A;stroke:#1D2B36;stroke-width:4;stroke-linecap:round;stroke-linejoin:round;stroke-miterlimit:10;}
	.st149{fill:#9D1F1A;}
	.st150{fill:#FFF6E2;}
	.st151{fill:none;}
	.st152{fill:#FFC646;}
	.st153{fill:none;stroke:#D79400;stroke-width:4;stroke-linecap:round;stroke-linejoin:round;stroke-miterlimit:10;}
	.st154{fill:#72808E;}
	.st155{fill:#4BC27D;stroke:#272822;stroke-width:4;stroke-linecap:round;stroke-linejoin:round;stroke-miterlimit:10;}
	.st156{fill:#4BC27D;stroke:#FFFFFF;stroke-width:4;stroke-linecap:round;stroke-linejoin:round;stroke-miterlimit:10;}
	.st157{fill:none;stroke:#359E64;stroke-width:4;stroke-linecap:round;stroke-linejoin:round;stroke-miterlimit:10;}
	.st158{fill:#7F83E4;stroke:#585B9E;stroke-width:4;stroke-linecap:round;stroke-linejoin:round;stroke-miterlimit:10;}
	.st159{fill:#6A6DC7;stroke:#585B9E;stroke-width:4;stroke-linecap:round;stroke-linejoin:round;stroke-miterlimit:10;}
	.st160{fill:#45477B;}
	.st161{fill:#7F83E4;stroke:#6A6DC7;stroke-width:4;stroke-linecap:round;stroke-linejoin:round;stroke-miterlimit:10;}
	.st162{fill:none;stroke:#394956;stroke-width:4;stroke-linecap:round;stroke-linejoin:round;stroke-miterlimit:10;}
	.st163{fill:#4F5D6B;stroke:#1D2B36;stroke-width:4;stroke-linecap:round;stroke-linejoin:round;stroke-miterlimit:10;}
	.st164{fill:none;stroke:#EAEAFB;stroke-width:4;stroke-linecap:round;stroke-linejoin:round;stroke-miterlimit:10;}
	.st165{opacity:0.25;}
	.st166{fill:none;stroke:#875200;stroke-width:4;stroke-linecap:round;stroke-linejoin:round;stroke-miterlimit:10;}
	.st167{fill:#288252;}
	.st168{fill:#FFA2A2;}
	.st169{fill:#731814;}
	.st170{fill:#F45B55;stroke:#1D2B36;stroke-width:4;stroke-linecap:round;stroke-linejoin:round;stroke-miterlimit:10;}
	.st171{fill:none;stroke:#A5B2BD;stroke-width:4;stroke-linecap:round;stroke-linejoin:round;stroke-miterlimit:10;}
	.st172{fill:#1D2B36;}
	.st173{fill:#394956;}
	.st174{fill:none;stroke:#F1F3F5;stroke-width:4;stroke-linecap:round;stroke-linejoin:round;stroke-miterlimit:10;}
	.st175{fill:none;stroke:#E4FBE6;stroke-width:4;stroke-linecap:round;stroke-linejoin:round;stroke-miterlimit:10;}
	.st176{fill:#4BC27D;stroke:#359E64;stroke-width:4;stroke-linecap:round;stroke-linejoin:round;stroke-miterlimit:10;}
	.st177{fill:#4BC27D;stroke:#288252;stroke-width:4;stroke-linecap:round;stroke-linejoin:round;stroke-miterlimit:10;}
	.st178{fill:#2A3B47;stroke:#1D2B36;stroke-width:4;stroke-linecap:round;stroke-linejoin:round;stroke-miterlimit:10;}
	.st179{fill:#359E64;stroke:#1D2B36;stroke-width:4;stroke-miterlimit:10;}
	.st180{fill:#4BC27D;}
	.st181{fill:none;stroke:#288252;stroke-width:4;stroke-linecap:round;stroke-linejoin:round;stroke-miterlimit:10;}
</style>
<g id="Layer_1">
	<g>
		<g>
			<g>
				<path class="st24" d="M145.5,116.2c0.1-1.8,0.8-3.5,2-4.8c4-4.3,6.5-10,6.5-16.4c0-5.2-1.6-9.9-4.4-13.8c-1-1.5-1.5-3.2-1.4-5
					L150,50H50l1.8,26.1c0.1,1.8-0.3,3.6-1.4,5C47.6,85.1,46,89.8,46,95c0,6.3,2.5,12.1,6.5,16.4c1.2,1.3,1.9,3,2,4.8l4.7,69.8h81.6
					L145.5,116.2z"/>
				<path class="st175" d="M58.3,105.9c-2.8-3-4.3-6.8-4.3-10.9c0-1.6,0.2-3.2,0.7-4.8"/>
				<path class="st175" d="M58,84c0.1-0.1,0.1-0.3,0.2-0.4"/>
				<path class="st26" d="M140.5,190.5l0.3-4.5H59.2l0.3,4.5c0.3,4.2,3.8,7.5,8,7.5h65C136.7,198,140.2,194.7,140.5,190.5z"/>
			</g>
			<g>
				<path class="st167" d="M99.1,184h39.9l4.6-68c0.2-2.3,1.1-4.5,2.5-6c3.8-4.1,5.9-9.4,5.9-15c0-4.6-1.4-9-4-12.7
					c-1.3-1.8-1.9-4-1.7-6.3l1.2-17.6c0.1-1.7-0.5-3.3-1.6-4.5c-1.1-1.2-2.7-1.9-4.4-1.9H121C131.7,95.2,128.6,155.6,99.1,184z"/>
				<path class="st19" d="M94.5,188c-4.1,3.3-8.4,6-12.9,8h50.9c3.1,0,5.8-2.5,6-5.6l0.2-2.4H94.5z"/>
			</g>
			<g>
				<path class="st26" d="M141.9,23.4C140.6,11.4,130.4,2,118,2c-8.6,0-16.1,4.5-20.3,11.2C94.4,10,89.9,8,85,8
					c-9.2,0-16.7,6.9-17.8,15.8c-2.5-0.7-5.2-1-8-0.5c-8.5,1.3-14.9,8.7-15.2,17.2C43.7,50.6,51.9,59,62,59h2c1.1,0,2,0.9,2,2v4
					c0,4.4,3.6,8,8,8h0c4.4,0,8-3.6,8-8v-4c0-1.1,0.9-2,2-2h13c1.1,0,2,0.9,2,2v3c0,4.4,3.6,8,8,8h0c4.4,0,8,3.6,8,8v0
					c0,4.4,3.6,8,8,8h0c4.4,0,8-3.6,8-8V61c0-1.1,0.9-2,2-2l4.5,0c10,0,18.5-7.9,18.5-17.9C156,32.4,150,25.2,141.9,23.4z"/>
				<path class="st26" d="M75.1,24.7c0.6-5,4.9-8.7,9.9-8.7"/>
				<g>
					<path class="st19" d="M132.9,19.6l0.2,1.4l1.4,0.3c2,0.4,3.8,1.3,5.4,2.3l0-0.1C138.9,15,133.1,8,125.3,5.2
						C129.4,8.8,132.3,13.8,132.9,19.6z"/>
					<g>
						<path class="st19" d="M129,58v-7.8c-2.3,0.7-4,2.9-4,5.4V74c0,4.3-3.4,7.8-7.6,8c0.9,2.5,3.4,4.3,6.4,4
							c3.1-0.4,5.3-3.1,5.3-6.2V58z"/>
						<path class="st19" d="M142.1,25.6c3,3,4.9,7.1,4.9,11.5c0,8-6.1,14.6-14,15.7V57h4.5c9.1,0,16.5-7.2,16.5-15.9
							C154,33.8,149.1,27.4,142.1,25.6z"/>
					</g>
				</g>
				<path class="st1" d="M68.4,32.9C67.5,30.7,67,28.4,67,26c0-0.8,0-1.5,0.1-2.2"/>
				<path class="st1" d="M126.3,27.3c3.1-2.7,7.2-4.3,11.7-4.3c1.3,0,2.6,0.1,3.9,0.4"/>
				<path class="st1" d="M121.9,32.9c0.1-0.2,0.2-0.4,0.3-0.6c0.1-0.1,0.1-0.2,0.2-0.3"/>
				<path class="st1" d="M97.7,13.2c0.8,0.8,1.5,1.6,2.1,2.5"/>
				<line class="st26" x1="131" y1="61" x2="131" y2="51"/>
				<line class="st1" x1="82" y1="61" x2="82" y2="57"/>
			</g>
			<circle class="st176" cx="100" cy="103" r="4"/>
			<circle class="st176" cx="97" cy="139" r="4"/>
			<circle class="st177" cx="77" cy="121" r="6"/>
			<circle class="st177" cx="116" cy="155" r="6"/>
			<circle class="st176" cx="78" cy="166" r="4"/>
			<circle class="st176" cx="82" cy="88" r="4"/>
			<circle class="st177" cx="127" cy="112" r="8"/>
			<g>
				<line class="st1" x1="54" y1="198" x2="146" y2="198"/>
				<line class="st1" x1="154" y1="198" x2="158" y2="198"/>
				<line class="st1" x1="44" y1="198" x2="46" y2="198"/>
			</g>
		</g>
		<g>
			<line class="st42" x1="192" y1="108" x2="192" y2="120"/>
			<line class="st42" x1="186" y1="114" x2="198" y2="114"/>
		</g>
		<g>
			<line class="st41" x1="25" y1="103" x2="25" y2="115"/>
			<line class="st41" x1="19" y1="109" x2="31" y2="109"/>
		</g>
		<g>
			<line class="st174" x1="168" y1="63" x2="176" y2="71"/>
			<line class="st174" x1="168" y1="71" x2="176" y2="63"/>
		</g>
		<g>
			<line class="st42" x1="2" y1="69" x2="10" y2="77"/>
			<line class="st42" x1="2" y1="77" x2="10" y2="69"/>
		</g>
		<g>
			<line class="st41" x1="170" y1="148" x2="178" y2="156"/>
			<line class="st41" x1="170" y1="156" x2="178" y2="148"/>
		</g>
		<g>
			<line class="st52" x1="20" y1="21" x2="20" y2="33"/>
			<line class="st52" x1="14" y1="27" x2="26" y2="27"/>
		</g>
		<circle class="st42" cx="167" cy="10" r="4"/>
		<circle class="st174" cx="11" cy="153" r="4"/>
		<line class="st26" x1="99" y1="60" x2="99" y2="56"/>
	</g>
</g>
<g id="Layer_2">
</g>
</svg>
