<svg width="120px" height="120px" viewBox="0 0 120 120" xmlns="http://www.w3.org/2000/svg"><defs><style>.cls-1{fill:#0186e6;}.cls-2{fill:#ebaf87;}.cls-3{fill:#e69e78;}.cls-4{fill:#56c188;}.cls-5{fill:#f1e266;}.cls-6{fill:#f06666;}.cls-7{fill:#f0b266;}.cls-8{fill:#e4997d;}.cls-9{fill:#9c81eb;}.cls-10{fill:#8f75d9;}.cls-11{fill:#2c3c58;}.cls-12{fill:#b2c7f8;}.cls-13{fill:#332524;}.cls-14{fill:#fefefe;}</style></defs><title>hs-huzzah-45</title><g id="Layer_2" data-name="Layer 2"><path class="cls-1" d="M63.47954,15.57329c-.38681-1.53019-.75535-3.06536-1.17019-4.58792-.14824-.54407.0109-.65831.49851-.51009.55422.16847,1.11875.31186,1.65742.52116a11.14337,11.14337,0,0,0,7.64263.08822,42.8782,42.8782,0,0,0,7.94785-4.00625c2.41029-1.36118,4.70125-2.92153,7.42775-3.68179,1.53374-.42767,3.10784-.5119,4.64152-.86595a3.55,3.55,0,0,0,.59971-.09676l.91579-.05325a9.13338,9.13338,0,0,0,2.47528.25143,5.97151,5.97151,0,0,1,2.66361.64313c1.166.545,2.53317.54859,3.63316,1.30707a3.59476,3.59476,0,0,0,.86043.43214.45291.45291,0,0,1,.32575.54248,4.66573,4.66573,0,0,0,.44376,2.49085c.15854.472.25386.89669-.22711,1.236a2.5061,2.5061,0,0,1-1.44818-.20086,21.74125,21.74125,0,0,0-8.03659-1.41072,25.17933,25.17933,0,0,0-7.56909,1.78245A33.35106,33.35106,0,0,0,81.171,12.18394c-.87563.50127-1.66673,1.16725-2.51316,1.73792a18.18854,18.18854,0,0,1-6.257,2.55417c-2.85853.65909-5.49306-.167-8.211-.56688C63.91888,15.86929,63.72926,15.65782,63.47954,15.57329Z"/><path class="cls-2" d="M17.1317,106.6433a.76832.76832,0,0,1-.25056.71775,63.5333,63.5333,0,0,1-4.58257,4.50874c-.98949.80957-1.86632,1.719-2.82574,2.5468a5.64042,5.64042,0,0,1-4.57659,1.57356,9.57514,9.57514,0,0,0-1.78438-.00541A1.43794,1.43794,0,0,1,1.816,115.451c-.358-.42049-.99545-.73738-.06483-1.20363.06281-.03147.09483-.17721.09623-.27048.01981-1.32242,1.11754-1.98449,1.81225-2.86523,2.28664-2.899,4.75025-5.67563,6.10984-9.18242a32.89652,32.89652,0,0,1,1.16885-3.61056,10.33356,10.33356,0,0,0,.6863-1.59171c-.18521-.87143.41314-1.48883.7615-2.08977a5.76243,5.76243,0,0,1,2.5342-2.47064c.68829-.31354,1.02505-1.00563,1.54713-1.50019A21.71829,21.71829,0,0,0,19.856,87.36023a3.24721,3.24721,0,0,0,.541-3.5881,17.01855,17.01855,0,0,1-1.47778-7.59342,5.11284,5.11284,0,0,1,.8158-3.20048c.34648-.42839-.09279-.91614.03814-1.42486a16.52284,16.52284,0,0,1,1.70346-3.31211,14.55864,14.55864,0,0,1,1.44694-2.22246,1.56139,1.56139,0,0,0,1.09653-.81433c1.12557-.36937,1.12558-.36937.47188-1.32212a2.67,2.67,0,0,1,.4379-3.88734,6.71165,6.71165,0,0,0,2.24309-6.1163c-.09765-1.20376-.01864-2.42979-.05027-3.64709a9.94859,9.94859,0,0,0-.26953-2.24812c-.68654-2.64067.19433-5.07959.887-7.54725.03564-.127.158-.20773.25814-.29327a20.30445,20.30445,0,0,0,2.20286-2.65685A11.82479,11.82479,0,0,1,33.788,34.58437c1.42128-.76307,2.75648-1.67337,4.21746-2.37276a13.14169,13.14169,0,0,1,5.95-1.1971c.5275.16786,1.34977-.02735,1.45753.68542.08094.5354-.57658.89915-.99057,1.22056a41.19551,41.19551,0,0,0-5.26937,4.3823c-2.33152,2.53195-4.3494,5.28481-5.11425,8.7348a30.506,30.506,0,0,0-1.08491,7.11967,20.049,20.049,0,0,0,.79407,4.78774c.17262.66565.4572.84138,1.06147.59454a3.71748,3.71748,0,0,0,1.82615.16744,3.136,3.136,0,0,1,1.86124.35823,9.53412,9.53412,0,0,1,1.04576,4.38913,3.99242,3.99242,0,0,1-1.82908,3.026c-2.52357,2.05981-5.39033,3.70233-7.54446,6.2134a6.7359,6.7359,0,0,0-1.93724,3.79266.64164.64164,0,0,1-.07019.287,2.701,2.701,0,0,0-.07288,3.30266c.66229.92093,1.03972,2.10056,2.33418,2.41334.22129.05347.42926.21292.66337.1621.63635-.13815,1.18161-.3652,1.64459.48838.17589.3243,1.09716.25212,1.70083.18813,2.00295-.21231,3.99539-.51634,5.9823-.82607a12.47128,12.47128,0,0,0,5.49089-2.6091c2.10614-1.58521,4.14277-3.27145,6.25954-4.83958A18.6511,18.6511,0,0,1,57.367,72.69782a63.21428,63.21428,0,0,0,8.6033-3.234c.27791-.1427.5944-.35711.89228-.00335a2.77363,2.77363,0,0,0,1.47973,1.95679,7.87139,7.87139,0,0,1,.85154.66223,7.1859,7.1859,0,0,0,3.30632,1.88714,38.50723,38.50723,0,0,0,6.16823,1.79107c4.55331.56355,9.10021.99571,13.69918.181,2.319-.41083,4.4654-1.38429,6.78225-1.7397.38161-.05855.74229-.30532,1.13524-.05424a50.07683,50.07683,0,0,1-3.58744,4.7051c-1.181,1.2242-2.55813,2.20872-3.7518,3.40439a3.16278,3.16278,0,0,1-1.8.93491,3.87811,3.87811,0,0,0-1.94084.93667,66.32934,66.32934,0,0,0-5.9171,5.36238c-.89979.9604-1.96209,1.74664-2.88039,2.69636a71.84454,71.84454,0,0,0-4.98921,6.49818,13.64146,13.64146,0,0,0-1.27666,2.43768,66.21245,66.21245,0,0,0-3.26774,6.05272,7.04585,7.04585,0,0,0-.77065,3.51146c.04581,1.10828,1.08149,1.243,1.69916,1.74353a3.27861,3.27861,0,0,1,1.43744,3.06976c-.11883.47384-.52959.72463-.53769,1.07363-.00635.27353-.311.39717-.60314.38872a29.56907,29.56907,0,0,1-2.98642-.10922,14.30738,14.30738,0,0,0-4.0057.00639,1.55179,1.55179,0,0,1-1.84757-1.102,53.44655,53.44655,0,0,1-1.90388-5.31517,22.01585,22.01585,0,0,1-.73624-6.97294A43.8342,43.8342,0,0,1,70.5078,92.01378a28.17981,28.17981,0,0,0,3.82173-4.0058,4.93024,4.93024,0,0,0,.806-3.39614,4.42489,4.42489,0,0,1,.0074-1.18493,1.8241,1.8241,0,0,0-1.1245-2.26321,5.72542,5.72542,0,0,0-3.70451-.79745c-.72048.13247-1.43375-.039-2.16644.04833A16.2737,16.2737,0,0,0,61.535,83.1877a30.71056,30.71056,0,0,0-5.48346,4.36244,29.61272,29.61272,0,0,0-2.04143,2.79017c-.06071.07708-.12821.18621-.078.27373.11272.19661.28441.06567.436.04772.38384-.04542.87406-.299.87357.433a22.64972,22.64972,0,0,1-2.95855.32425c-1.423.27336-2.83-.06629-4.23032.23845-.77945.16964-1.655-.409-2.40351-.01659a1.74256,1.74256,0,0,1-1.48713.07226,9.02407,9.02407,0,0,1-3.10519-.40577,1.34051,1.34051,0,0,0-1.47592.3254c-1.68,1.69834-3.862,2.63769-5.833,3.8937a34.03993,34.03993,0,0,1-7.52818,3.466,25.11083,25.11083,0,0,1-3.90717,1.40584,2.46979,2.46979,0,0,0-1.35426.96574c-1.50554,1.76122-3.1498,3.38954-4.74152,5.06826-.17522.1848-.52107.444-.36562.63215.19719.23866.42775-.13985.64484-.24438C16.7,106.72191,16.87325,106.53766,17.1317,106.6433Z"/><path class="cls-3" d="M66.75956,69.543c-.81912-.17984-1.24259.58261-1.90737.80714C61.50693,71.48,58.17027,72.64058,54.867,73.887a13.72372,13.72372,0,0,0-3.77333,2.25715c-1.26932,1.032-2.52761,2.07319-3.88328,3.00582-1.07168.73728-2.07311,1.54932-3.21043,2.22424a13.34034,13.34034,0,0,1-5.47233,1.65871c-1.30167.1491-2.5993.34243-3.89221.55558a7.59523,7.59523,0,0,1-2.05452-.16274c-.31952-.03234-.07278-.22052-.11046-.32367-.12649-.34626-.39351-.57744-.75895-.38772-.35679.18521-.65575.43982-1.08724.1897-.78876-.45722-1.79449-.71333-2.20078-1.55845-.19394-.40342-.28621-.75-.70889-.956-.15044-.07335-.20874-.2604.04614-.34781.12988-.04453.25881-.12556.15439-.27313-.76071-1.075-.90785-1.14423-.412-2.143a9.96908,9.96908,0,0,0,.7376-2.2511c.34343-1.54,1.4373-2.44361,2.34929-3.4892a31.24127,31.24127,0,0,1,5.33579-4.32283A19.76906,19.76906,0,0,0,38.234,65.73321a3.73542,3.73542,0,0,0,.89847-3.92315c-.257-.8844-.50913-1.77023-.76345-2.65542a1.73582,1.73582,0,0,1,1.60042.06575c.67885.3414,1.51247.16312,2.15995.62315.42972.38791.99182.24037,1.4878.36342,1.3799.12414,2.59855.89251,4.05858.84769a3.9825,3.9825,0,0,1,2.61939.88288l.384.01293c1.80261.43619,3.66063.02237,5.46807.3554.24244.30182,1.71782.05335,2.15637.12014.30661.194,7.71078.40724,8.53536.41338,1.83961.01373,3.48859-.31043,5.32409-.35657.335-.00145,1.22333-.14455,1.55829-.146.06124.07563-.30879.1426-.29784.23958a2.8307,2.8307,0,0,1-.56708,1.25065c-1.432,1.97661-2.81889,4.00181-5.07833,5.16665a1.44652,1.44652,0,0,0-.50362.467C67.121,69.6014,66.959,69.69193,66.75956,69.543Z"/><path class="cls-2" d="M105.05745,45.11753a7.40343,7.40343,0,0,0,4.32732-1.651c.64748-.422,1.37477-.72881,2.00537-1.19177a.44179.44179,0,0,1,.46588.032,1.47716,1.47716,0,0,1,.18507,1.2516,3.148,3.148,0,0,0-1.3756,2.07968,11.195,11.195,0,0,0-.41588,4.38722,12.0217,12.0217,0,0,1-.00109,2.56555,6.77713,6.77713,0,0,0,.23765,2.73548,4.10145,4.10145,0,0,1,.06007,2.05684,27.21435,27.21435,0,0,1-1.12066,4.99983,48.63669,48.63669,0,0,0-5.04944,5.82672,21.493,21.493,0,0,0-1.10977,1.91679c-.03439.03378-.0688.06756-.10289.102a1.10084,1.10084,0,0,1-.41977.11976,3.852,3.852,0,0,1-.44826.02617,27.01073,27.01073,0,0,1-4.56322-1.23731,23.12488,23.12488,0,0,1-2.3337-.80049C92.71228,67.14,90.06,65.86841,87.41641,64.58027a12.22625,12.22625,0,0,1-4.64326-4.35976,3.71333,3.71333,0,0,1-.77914-1.22615c1.53872-1.21034,3.21529-2.2296,4.99522-3.37489,1.45319-1.15-2.296.41585-3.07087,1.00373a13.995,13.995,0,0,1-4.13116,1.87825,9.8934,9.8934,0,0,0-2.51226.78521c-.52494.35338-1.0571.2122-1.81526.2952a30.16019,30.16019,0,0,1-3.4697.21469,10.28254,10.28254,0,0,1-1.53117-.26435c-.2692-.06445-.69291-.23539-.68837-.60817a1.05207,1.05207,0,0,1,.5176-.90043A26.68,26.68,0,0,0,73.54,55.6542a13.327,13.327,0,0,0,1.30421-1.46562,28.93281,28.93281,0,0,1,7.4096-5.91656A11.967,11.967,0,0,1,86.973,47.0745a23.27878,23.27878,0,0,1,3.41137-.14045q.09846.08169.20282.15569l.0021-.02108a2.98216,2.98216,0,0,1,.447,1.794c.01478,1.1219.03536,2.24513-.00107,3.36572a10.98328,10.98328,0,0,0,1.018,4.59894,4.87826,4.87826,0,0,0,3.70416,2.83036,12.15578,12.15578,0,0,0,4.2332.23437,5.50918,5.50918,0,0,0,4.71582-3.43308,9.28567,9.28567,0,0,0,.65965-5.59707,51.22855,51.22855,0,0,1-.52149-5.11034A.73606.73606,0,0,1,105.05745,45.11753Z"/><path class="cls-4" d="M63.47954,15.57329c1.80306.27922,3.60491.56652,5.40965.83434a4.50317,4.50317,0,0,0,2.797-.16508,5.66987,5.66987,0,0,1,1.64231-.25128A12.53,12.53,0,0,0,78.518,13.62764,34.79113,34.79113,0,0,1,90.847,7.885a17.401,17.401,0,0,1,7.24222-.18736c1.97182.36007,3.81644,1.0806,5.75652,1.48162a.725.725,0,0,1,.37629.43768,36.93926,36.93926,0,0,1,1.07183,4.61114.89883.89883,0,0,1-.1437.66239c-.72.35725-1.336-.08283-1.97434-.27861a18.36438,18.36438,0,0,0-8.69173-.72585,29.6323,29.6323,0,0,0-9.99528,3.29081,66.675,66.675,0,0,1-6.12685,2.97311,16.0157,16.0157,0,0,1-8.59748,1.8115,12.27779,12.27779,0,0,1-5.00666-1.26087l.00633.00513a1.74828,1.74828,0,0,1-.16827-.20938C64.0963,18.88419,64.15742,17.145,63.47954,15.57329Z"/><path class="cls-5" d="M64.75778,20.70054c.8497.222,1.69094.48641,2.55063.6585a14.51026,14.51026,0,0,0,8.95771-.65622c1.30814-.57835,2.59086-1.2715,3.89045-1.78976,2.63152-1.04943,5.03644-2.53192,7.64082-3.61333a29.65311,29.65311,0,0,1,5.27979-1.46319,18.49013,18.49013,0,0,1,10.59727.68765c.455.17334.94023.26712,1.41146.39775.28944.00521.40414.22631.45655.44268a39.49561,39.49561,0,0,1,1.03075,4.29981.98591.98591,0,0,1-.28487.89937,1.19166,1.19166,0,0,1-1.04818-.04349,25.38692,25.38692,0,0,0-7.95452-1.348,18.74683,18.74683,0,0,0-6.61681,1.47764,36.37353,36.37353,0,0,0-3.62132,1.56825,21.01281,21.01281,0,0,0-2.3742,1.40957,22.87841,22.87841,0,0,1-6.7472,2.99775,22.64867,22.64867,0,0,1-9.65795.06707,4.02624,4.02624,0,0,1-2.28045-.82937c-.22887-1.57577-1.35918-2.96876-.94629-4.68333C65.0726,21.05036,64.85809,20.8617,64.75778,20.70054Z"/><path class="cls-6" d="M109.417,33.19381c-1.13952-1.07539-2.70723-1.32741-4.07843-1.73692a33.60978,33.60978,0,0,0-4.35187-1.11455,48.79868,48.79868,0,0,0-5.50895-.30659,9.615,9.615,0,0,0-6.46272,2.193,32.073,32.073,0,0,1-5.57084,3.58535A21.051,21.051,0,0,1,74.166,37.925a5.22524,5.22524,0,0,1-2.9762-.75668c-.14026-.09682-.26748-.22474-.431-.18407-1.45458.36181-1.84133-.64735-2.18144-1.69832a8.55293,8.55293,0,0,1-.83536-3.095,2.69021,2.69021,0,0,1,2.578-.19907,3.05652,3.05652,0,0,0,1.34006.31906,24.04543,24.04543,0,0,0,7.49616-.73954,13.98338,13.98338,0,0,0,4.044-2.06171,46.669,46.669,0,0,1,7.50623-4.38818,14.63261,14.63261,0,0,1,5.10629-1.084,23.11883,23.11883,0,0,1,6.48673.39777A29.97911,29.97911,0,0,1,107.9376,26.232a4.5832,4.5832,0,0,1,.68729,2.14175,23.29067,23.29067,0,0,0,.87519,3.33617C109.65666,32.2203,109.839,32.72085,109.417,33.19381Z"/><path class="cls-7" d="M107.81409,26.26019a18.91094,18.91094,0,0,1-3.28952-.93084,15.08056,15.08056,0,0,0-3.60945-.84728,18.475,18.475,0,0,0-4.56123-.19852,16.585,16.585,0,0,0-7.661,2.11183,48.78843,48.78843,0,0,0-4.43633,2.69979,31.35883,31.35883,0,0,1-4.14721,2.405,9.6807,9.6807,0,0,1-3.67367.86323,4.36082,4.36082,0,0,0-.47732.00488,11.42108,11.42108,0,0,1-5.35732-.02287,10.69806,10.69806,0,0,0-2.85894-.1542c-1.04128-1.983-1.28212-4.18758-1.75444-6.328a20.08477,20.08477,0,0,0,4.65216.92631,17.24514,17.24514,0,0,0,4.03557.14384,27.24479,27.24479,0,0,0,6.92425-1.90025c2.27224-1.04648,4.21857-2.60846,6.52032-3.62323a32.36793,32.36793,0,0,1,7.43781-2.40258,17.242,17.242,0,0,1,7.09547.5228c1.22906.3067,2.45487.62644,3.68216.94029a.555.555,0,0,1,.48969.42989,45.819,45.819,0,0,1,1.14191,4.91123A.48341.48341,0,0,1,107.81409,26.26019Z"/><path class="cls-3" d="M28.26,40.33833c-.11282.05772-.30794.09639-.32637.176a38.83218,38.83218,0,0,0-1.0997,5.26633,11.16119,11.16119,0,0,0,.36385,2.79419,36.65572,36.65572,0,0,1,.1999,7.503,5.13713,5.13713,0,0,1-1.90211,3.776c-1.38553,1.12838-2.22637,2.20025-.3073,4.34085.39954.44566.29924.73611-.194,1.00441a2.703,2.703,0,0,1-1.15926.17348c-.70246-.07018-1.07055-.643-1.446-1.09583a30.97988,30.97988,0,0,1-4.56651-7.00694,10.95709,10.95709,0,0,1-.94376-5.38305c.022-.25986.02727-.53358.29232-.6942a1.87776,1.87776,0,0,1,1.49617,1.17028c-.30061-1.24469.08476-2.46079-.12487-3.65865a1.26658,1.26658,0,0,0,.812-1.10245A19.89384,19.89384,0,0,1,23.699,38.40082a33.9844,33.9844,0,0,1,3.75173-3.80968c.23482-.21415.583-.37085.39053-.79437-.018-.63363.57372-.785.92436-.83048a11.694,11.694,0,0,0,3.48006-1.366c.37281-.17678.82649-.31738,1.0669.0012.24077.31905-.18341.63079-.35425.93717a7.20735,7.20735,0,0,0-1.09621,2.12c-.00977.04054-.01952.08107-.02807.12214a1.17325,1.17325,0,0,1-.27748.42964c-1.40713.79107-2.07593,2.24762-3.065,3.41361C28.06627,39.12536,28.48349,39.78465,28.26,40.33833Z"/><path class="cls-8" d="M43.53643,93.15124c.20134,1.31763-.51945,2.4144-.93371,3.5588a31.06454,31.06454,0,0,0-1.65747,8.21332,41.33487,41.33487,0,0,0,1.29823,6.98481c.67857.58582,1.053,1.47679,2.2145,1.54493a3.03812,3.03812,0,0,1,2.50026,1.81313,1.52935,1.52935,0,0,1-1.3183,2.08811c-2.82286.0093-5.64875.05343-8.46717-.06524-.96581-.04067-1.55294-.99641-2.1507-1.69743a26.22159,26.22159,0,0,1-3.96408-6.80215,18.33976,18.33976,0,0,1-1.46233-3.71425c.30335-.92128,1.23721-1.14939,1.91623-1.55589a34.41425,34.41425,0,0,0,6.4399-5.07757c1.55161-1.52689,2.93478-3.2232,4.52017-4.72312C42.77449,93.43246,43.01255,93.02311,43.53643,93.15124Z"/><path class="cls-3" d="M105.05745,45.11753c.28359,2.16281.41353,4.34007.71775,6.50449.43793,3.1158-.93491,7.51734-4.95367,8.43433a12.16076,12.16076,0,0,1-3.44389.11306,7.0848,7.0848,0,0,1-4.732-1.85808,4.335,4.335,0,0,1-.989-1.64922,11.82228,11.82228,0,0,1-.90858-4.96478,23.26089,23.26089,0,0,0-.36363-4.76328c.31513.07447,2.506.10305,2.82275.11163.93293.02527.385-.10829.96447-.43534a9.845,9.845,0,0,1,5.88719-2.30066,7.27957,7.27957,0,0,1,1.846.20964C102.96,44.69256,104.007,44.91546,105.05745,45.11753Z"/><path class="cls-9" d="M82.0051,59.027c.95277.37943,1.17682,1.40019,1.72034,2.10547A13.90364,13.90364,0,0,0,89.121,65.1383c2.08282.9759,4.149,1.98729,6.22248,2.98313.12346.34827-.11887.55984-.31251.76978a11.97216,11.97216,0,0,1-2.96553,2.57594A16.2758,16.2758,0,0,1,84.13616,73.43c-.40142-.52087.14681-.6456.38731-.873.23878-.22574.5459-.39232.40845-.79732-.07679-.22624-.2064-.43621-.46038-.45534a.77022.77022,0,0,0-.85662.51545c-.18241.595-.77273.77488-1.10474,1.209a1.6682,1.6682,0,0,1-1.89388-.0868c-.08742-.55375.36607-.73449.70248-.96719.92461-.63956,1.84366-1.28775,2.78262-1.90619.32259-.21248.64713-.42022.37827-.8599-.25534-.41757-.6591-.31143-.96257-.11355-.93936.61251-1.88909,1.20837-2.82985,1.81734a1.594,1.594,0,0,0-.53635,1.3256c-.01406.28.01469.53234-.31047.64469a31.91312,31.91312,0,0,1-4.87923-.68936,26.47367,26.47367,0,0,0-5.01758-.381,3.09461,3.09461,0,0,0-1.02535.33392c-.53773-.42051-1.04811-.884-1.62113-1.24909A1.19058,1.19058,0,0,1,66.7595,69.543c.151-.02618.30859-.03956.38823-.20244.77682-.64269,1.82173-.54936,2.67184-.96122A31.8028,31.8028,0,0,0,74.574,65.737a16.63508,16.63508,0,0,0,4.65777-5.44668c.199-.738.9503-.58855,1.42359-.887a.18257.18257,0,0,0,.042-.12074c.00567-.11046.04588-.13165.12631-.04886l.81614-.21126A.21208.21208,0,0,1,82.0051,59.027Z"/><path class="cls-8" d="M93.77875,83.42182c.77406.38942,1.02544,1.29441,1.72818,1.75343,1.32947.86837,2.6544,1.7439,3.99175,2.6,2.36533,1.51413,3.07582,3.03509,2.66658,6.12734-.24014,1.81441-.7718,3.67184-.2576,5.519a17.94965,17.94965,0,0,0,1.5122,4.09241,1.00577,1.00577,0,0,1-.51462,1.50125,5.54188,5.54188,0,0,1-4.68582-.543,5.79756,5.79756,0,0,1-2.46508-4.47361,24.1239,24.1239,0,0,0-.67768-3.549c-.17566-.977-1.10305-1.13395-1.86139-1.07937a15.32085,15.32085,0,0,1-3.15834-.40853c-1.35415-.177-2.69853-.42874-4.04711-.64828.6482-1.24447,1.3695-2.45482,2.12795-3.62574a37.2,37.2,0,0,1,2.65166-3.92788C91.75279,85.62228,92.39176,84.181,93.77875,83.42182Z"/><path class="cls-10" d="M68.91827,72.14638c-.01687-.45253.17912-.6434.65239-.6393a33.97306,33.97306,0,0,1,5.78829.47417,24.79489,24.79489,0,0,0,4.76308.67924c.2436-.11033.39577-.0161.48577.21717.608.03831,1.21218.35835,1.82533.02514.51762.13252,1.02883.29119,1.5569.381a18.06884,18.06884,0,0,0,8.107-2.14979,13.16235,13.16235,0,0,0,3.24639-3.01254c1.50515.24024,2.84988.99662,4.33163,1.33256a27.34158,27.34158,0,0,0,2.80638.71458,1.43832,1.43832,0,0,1-.89271,1.91691q-.65169,1.02928-1.30353,2.05886a53.328,53.328,0,0,1-5.91378,1.67621,27.4886,27.4886,0,0,1-9.87846.79106,46.05249,46.05249,0,0,1-6.6912-.72758,44.82736,44.82736,0,0,1-4.40733-1.32581,17.25692,17.25692,0,0,0-1.86115-.61945A5.24307,5.24307,0,0,1,68.91827,72.14638Z"/><path class="cls-11" d="M43.53643,93.15124a27.67274,27.67274,0,0,0-4.00912,3.93828,45.606,45.606,0,0,1-4.58482,4.30254c-1.67944,1.39054-3.63356,2.35667-5.34653,3.68315-.811-1.20416-.83067-2.6449-1.1102-3.98909-.34986-1.68242-.29369-1.755-1.87514-.96816-1.20662.60037-2.56011.70071-3.78553,1.30507a7.5728,7.5728,0,0,0-1.92737,1.72043c-1.15481,1.13292-2.3531,2.21034-3.57111,3.2702a2.48483,2.48483,0,0,1-.20455.24l.0096-.01028c-.36909.26371-.73156.53761-1.11061.78622-.15246.1-.32742.28193-.53061.11613-.248-.20239-.0865-.40464.0318-.6085a12.70755,12.70755,0,0,1,1.91612-2.10106c1.0645-1.14982,2.14583-2.28118,3.1609-3.47893a3.64922,3.64922,0,0,1,2.19047-1.35981c1.77633-.30192,3.31406-1.2923,4.99724-1.88216a29.88364,29.88364,0,0,0,6.85717-3.4407c1.09358-.73715,2.28582-1.35578,3.41536-2.06255.54614-.34172.9069-.85253,1.41315-1.21766a1.79969,1.79969,0,0,1,2.0085-.22457,5.07642,5.07642,0,0,0,2.26113.26654c.28315-.00267.32155.12265.41921.277-.50754.23634.01772.74008-.26684,1.03443a1.2593,1.2593,0,0,0-.36693.41063Z"/><path class="cls-12" d="M107.8141,26.26019c-.41089-1.83217-.81878-3.665-1.24-5.49481-.0255-.11078-.15729-.19709-.23915-.2949a21.41917,21.41917,0,0,0-1.24935-5.54852,36.71977,36.71977,0,0,0-1.23981-5.74275c.48209-.63338-.14-1.094-.28954-1.60833a11.72652,11.72652,0,0,1-.28322-2.55645c1.349-1.02567,1.92148-.80284,2.4246.82751.41677,1.3505.59834,2.77623,1.07071,4.0836.93256,2.58108,1.14674,5.31473,1.91379,7.93539a39.91727,39.91727,0,0,1,1.23353,5.44206,13.50223,13.50223,0,0,0,.79823,3.0667c.46146,1.14191.39431,2.41823.77448,3.61188.42777,1.34306.59339,2.76881.88772,4.15548.21491,1.01252.54033,1.98941.67019,3.03545a19.61841,19.61841,0,0,0,.93133,3.43756c.0901.28409.25986.52662.14312.8364a13.22653,13.22653,0,0,1-2.34592.87545q-.19212-.02309-.38444-.04663a17.57913,17.57913,0,0,0-.78647-4.13215c-.32629-1.66338-.78525-3.30074-1.18685-4.94934.172-1.00533-.4154-1.8429-.63273-2.76029A36.20447,36.20447,0,0,0,107.8141,26.26019Z"/><path class="cls-3" d="M109.42558,62.383a14.64959,14.64959,0,0,1,.6318-3.6918,8.888,8.888,0,0,0,.01375-3.92273c-.40849-1.51987.1623-3.12319-.07772-4.66176a10.66068,10.66068,0,0,1,.454-4.638c.2357-.82563.331-1.9087,1.59587-1.95488a.51583.51583,0,0,1,.52254.19747,2.59691,2.59691,0,0,0,3.12724.61393c.41755-.143.83379-.40971,1.31483-.22111.53333.19285.84278.52966.66081,1.12778-.10538.3464.05842.5.29033.7383a2.54651,2.54651,0,0,1,.88138,2.54443,13.10277,13.10277,0,0,1-2.815,3.10493A8.92569,8.92569,0,0,1,111.812,53.35c-.27618.02682-.81286-.04789-.75969.37821.04268.342.54875.23094.864.257.81759.06751,1.79254-.74636,2.61177-.66568.2742.19228.19739,1.12508.23141,1.43543.05227.652.33887,1.25259.42569,1.89483.04973.36782.27173.752-.03,1.11429a14.13565,14.13565,0,0,0-2.42546,1.88794A40.30443,40.30443,0,0,0,109.42558,62.383Z"/><path class="cls-11" d="M93.77875,83.42182a60.86056,60.86056,0,0,0-5.619,7.68191,16.377,16.377,0,0,1-2.15012,3.20974,2.3807,2.3807,0,0,1-1.7818-.5627c-.33791-.36563-.60528.11945-.95013-.03758-.57684-.26266-1.24292-.32841-1.82176-.58787a.71463.71463,0,0,0-.98485.30056c-1.13745,1.46791-2.23169,2.97128-3.41511,4.40094a15.51124,15.51124,0,0,1-2.91492,3.29339,4.09861,4.09861,0,0,1,.99174-2.44965,50.044,50.044,0,0,1,5.81628-7.40992c1.46367-1.41891,2.90419-2.88108,4.43035-4.21481,1.54094-1.34667,2.95148-2.93459,4.87917-3.79506.8706-.38862,1.79-.668,2.6872-.99677C92.73993,82.98832,93.59833,82.96325,93.77875,83.42182Z"/><path class="cls-11" d="M17.171,51.19252a12.90107,12.90107,0,0,0,2.47585,8.77419c.89705,1.21893,1.66984,2.53042,2.59453,3.7401.47674.62368,1.11535,1.06191,1.59359,1.66571.05291.19086.35285.33012.12782.57864-.32319.35694-.684.19406-1.03991.0674a5.93856,5.93856,0,0,1-2.81249-2.15008,17.93475,17.93475,0,0,1-3.08387-4.509c-1.22127-2.56876-1.998-5.26175-1.22088-8.15081.09967-.37053.26628-.81751.75446-.777A.70053.70053,0,0,1,17.171,51.19252Z"/><path class="cls-11" d="M27.84126,33.79677c.56239.08757.69372.2995.2008.69327a25.02083,25.02083,0,0,0-5.20585,5.44117,17.53771,17.53771,0,0,0-3.30789,8.24928c-.07566.85344-.52644.6021-.9863.52355-.42378-1.73067.36785-3.24462.90168-4.78645,1.40164-4.04833,4.28454-6.97526,7.4625-9.66233a2.582,2.582,0,0,1,.5183-.26811c.12291-.10224.31265-.05808.421-.19221Z"/><path class="cls-11" d="M28.26,40.33833a1.99181,1.99181,0,0,1,.44244-2.39607c.93649-1.02176,1.505-2.38717,2.89014-2.97692.15553-.0703.10586-.285.25385-.36064l.016.054a21.51941,21.51941,0,0,0,3.15511-1.82838,28.49409,28.49409,0,0,1,4.83937-1.89453A8.59774,8.59774,0,0,1,42.812,30.6153a1.42031,1.42031,0,0,1,1.14345.39915c-.81251.66806-1.78992.20217-2.67764.38622a17.82426,17.82426,0,0,0-5.913,2.57544c-1.10889.70115-2.31381,1.26178-3.37126,2.04476a12.60241,12.60241,0,0,0-2.51133,2.73678A7.12967,7.12967,0,0,0,28.26,40.33833Z"/><path class="cls-12" d="M114.59685,54.78746c-.089-.26349-.23613-.81643-.32517-1.07993.62122-.67194,1.12028-1.4564,1.99772-1.65637a3.59737,3.59737,0,0,1,.86338,2.36378c.3803,1.04721.373,2.1732.85326,3.23217a15.43921,15.43921,0,0,1,.52251,3.17612c.13349.64069.33767,1.26195.48229,1.897.11713.51434-.02089.73656-.47324.86477-.461-.039-.55733-.43061-.677-.75477C116.83923,60.11686,115.5336,57.52647,114.59685,54.78746Z"/><path class="cls-13" d="M116.55041,52.50245a7.7893,7.7893,0,0,1-2.38282,1.25188,8.24615,8.24615,0,0,1-2.87023.4245.65739.65739,0,0,1-.69024-.59157c-.03355-.46063.41219-.3097.65906-.33357a9.96311,9.96311,0,0,0,6.17769-3.09732,2.37813,2.37813,0,0,0,.50956-.828c.168-.4052.38577-.76733.88732-.81342a1.66947,1.66947,0,0,1,.05869,1.0041c-.30092.28625-.22306.67556-.26561,1.02583C118.46645,51.92305,117.9908,52.18257,116.55041,52.50245Z"/><path class="cls-11" d="M117.00787,44.10414c-1.09094.288-2.05646,1.006-3.32755.66066-.78114-.21223-1.07921-.858-1.63707-1.25092-.08948-.39731-.56361-.84175-.65311-1.23908.64059-.67141,1.93737-.56815,2.73091-.82859a5.59281,5.59281,0,0,1,2.37544,1.39284A1.16406,1.16406,0,0,1,117.00787,44.10414Z"/><path class="cls-9" d="M101.58876,72.08552a2.48188,2.48188,0,0,0,.89267-1.91724q.2146-.00874.42913-.01816a.24345.24345,0,0,0,.36555-.0319l-.00975.00828a7.92275,7.92275,0,0,1,2.788-.22035c.30771.04119.691-.07576.77882.39583a.9.9,0,0,1-.5026.97881,5.4313,5.4313,0,0,1-1.8384.61374c-.3594.07418-.40126.1525-.12336.38356.07538.06268.178.10526.22858.18286.2084.31976.57256.65035.38649,1.0389-.18617.38877-.68019.24706-.98354.17538a4.5567,4.5567,0,0,1-2.08362-.61459A.78493.78493,0,0,1,101.58876,72.08552Z"/><path class="cls-11" d="M114.59684,54.78746c.439.0337.29965.40635.41146.65248,1.14632,2.5232,2.24712,5.064,3.1735,7.67807a2.06315,2.06315,0,0,0,.33573.46691c-1.65779.675-1.925.52958-2.27327-1.10375-.33642-1.57761-.72387-3.14434-1.089-4.71649C115.17912,56.73243,114.4781,55.83683,114.59684,54.78746Z"/><path class="cls-8" d="M116.2694,52.77959a6.06582,6.06582,0,0,1,.54882-.4805c1.31689-.36933,1.3446-1.8491,1.54793-2.65015.08528-.336.27683-.40949.5748-.45265a7.33892,7.33892,0,0,1-1.80793,5.21882C116.73956,53.93476,116.66448,53.2591,116.2694,52.77959Z"/><path class="cls-3" d="M73.933,80.82672c-1.6333-1.00147-3.47595-.83454-5.23376-.73181a14.84266,14.84266,0,0,0-7.4729,3.0335,42.45519,42.45519,0,0,0-4.71051,3.70191c-1.16736,1.07513-1.77265,2.48108-2.85639,3.55023a.48821.48821,0,0,0-.12011.63409c.184.24067.40973.0625.62634-.00769.36493-.11828.76977-.55963,1.07605.08777a5.38038,5.38038,0,0,0,1.77655.02283,9.64747,9.64747,0,0,1,1.99347-.18146l-.00055-.00043.00055.00019.39056-.00037c.40619.0047.83814.17945,1.18952-.1795l-.00013-.00006h.00007l1.60058-.00843c.4101.45.81824-.00482,1.227-.00238l.00019-.00036.00018.00006a31.53574,31.53574,0,0,0-1.45465,3.90942c-.24408,1.12232-.65027,2.27222-.954,3.41754a10.77578,10.77578,0,0,0-.22351,1.40528,34.52638,34.52638,0,0,0-.1684,3.99017c.75665-.01239.54108-.79346.89716-1.15521a33.66915,33.66915,0,0,0,2.67846-3.43036,30.73105,30.73105,0,0,1,3.61908-4.20789A66.70518,66.70518,0,0,0,74.225,88.57489,4.95037,4.95037,0,0,0,75.35223,85.564a10.36365,10.36365,0,0,1,.0055-2.01868C75.74261,82.16833,75.47681,81.77331,73.933,80.82672Z"/><path class="cls-3" d="M27.8455,33.79494c-.0447.27331-.25959.1738-.42085.19214C27.5248,33.83537,27.62717,33.68816,27.8455,33.79494Z"/><path class="cls-5" d="M64.59584,20.49629l.16826.20938C64.62073,20.706,64.59246,20.61388,64.59584,20.49629Z"/><path class="cls-2" d="M17.12206,106.65361l.20438-.23973Z"/><path class="cls-2" d="M73.27763,62.43556a9.38607,9.38607,0,0,0,3.11246-1.08769,8.06617,8.06617,0,0,1,2.84164-1.05752,14.86823,14.86823,0,0,1-4.56752,5.68356,27.05065,27.05065,0,0,1-4.52776,2.52884,17.72707,17.72707,0,0,1-2.9887.83773c.2559-.78787,1.09288-.87946,1.64693-1.26518a19.45041,19.45041,0,0,0,3.51226-3.87213A4.71376,4.71376,0,0,0,73.27763,62.43556Z"/><path class="cls-14" d="M103.27611,70.11822c-.105.20665-.22475.24281-.36569.03173Q103.0934,70.13426,103.27611,70.11822Z"/><path class="cls-14" d="M31.84638,34.6047c.12829.26955-.03637.33346-.25353.36069C31.60435,34.79388,31.60662,34.6157,31.84638,34.6047Z"/><path class="cls-13" d="M99.39648,49.67562a4.61552,4.61552,0,0,1,1.60277.24221.93016.93016,0,0,1,.84433,1.0387c-.1299.55539-.74131.39445-1.19353.366-.09707-.0061-.2025-.06733-.28754-.04368-.35021.09739-.43923-.70407-.76255-.29481-.27688.35046.17408.68688.333,1.02618.17708.37821.66716.78834.20934,1.20419a1.71563,1.71563,0,0,1-2.019-.36873,3.4537,3.4537,0,0,1-.5144-2.34558C97.80537,49.65732,98.60932,49.6038,99.39648,49.67562Z"/><path class="cls-14" d="M80.6078,72.87766q-.24313-.10845-.486-.217c.03165-.39617-.8868-.6253.06054-1.2654.91235-.61646.73644-.87209,1.50311-1.31082a14.05691,14.05691,0,0,1,2.12505-1.38325c.564-.2047.82826-.00083.97149.44466.12562.39077.29164.70179-.35085,1.06028A19.15137,19.15137,0,0,0,80.6078,72.87766Z"/><path class="cls-14" d="M82.0338,67.8033c-.03682.71648-1.82707,2.36363-2.39171,2.30769-.78147-.07744-.67132-.6691-.46933-1.10058a4.96436,4.96436,0,0,1,2.118-1.92308C81.78021,66.78662,81.79518,67.62838,82.0338,67.8033Z"/><path class="cls-14" d="M83.99,73.2838a1.14364,1.14364,0,0,1-1.55691-.381c.58737-.5736.86-1.41705,1.6537-1.82626.539-.27791.78642-.07873.99608.38737.18478.41081.5357.798-.17153,1.10611A4.62765,4.62765,0,0,0,83.99,73.2838Z"/></g></svg>