<?xml version="1.0" ?><svg width="340px" height="340px" viewBox="0 0 340 340" id="icons" xmlns="http://www.w3.org/2000/svg"><title/><path d="M94.825,209.553s-34.263-6.244-64.642,25.366a25.332,25.332,0,0,0-6.5,22.775c2.859,13.6,9.538,35.309,24.608,51.345,0,0-13.8,2.858-17.207,16.806a3.169,3.169,0,0,0,3.057,3.943H71.065a12.424,12.424,0,0,0,6.314-1.637,7.863,7.863,0,0,0,4.28-6.922s.213-10.98-7.652-13.7a34.576,34.576,0,0,1,2.709-10.41,19.119,19.119,0,0,0,2.056-8.511c-.071-4.275-1.428-10.258-6.58-17.077l36.3-.3H170V243.4S125.075,253.416,94.825,209.553Z" style="fill:#ffc4b6"/><path d="M244.856,208.494s34.582-5.185,64.961,26.425a25.332,25.332,0,0,1,6.5,22.775c-2.859,13.6-9.538,35.309-24.608,51.345,0,0,14.5,3,17.441,17.867a2.4,2.4,0,0,1-2.348,2.882H268.935a12.424,12.424,0,0,1-6.314-1.637,7.863,7.863,0,0,1-4.28-6.922s-.213-10.98,7.652-13.7a34.576,34.576,0,0,0-2.709-10.41,19.119,19.119,0,0,1-2.056-8.511c.071-4.275,1.428-10.258,6.58-17.077l-36.3-.3H170V243.4S214.606,252.357,244.856,208.494Z" style="fill:#ffc4b6"/><path d="M289.177,218.541a83.862,83.862,0,0,0-34.908-11.332v0a52.178,52.178,0,0,0-9.149-.112c-20.483,29.7-47.664,35.822-63.085,36.679l-1.29,10.021,5.18,12.937,2.192,4.5H198.31l39.1-23.771c5.462-5.407,8.631-10.538,11.468-14.356a18.014,18.014,0,0,1,12.843-6.469h.135s11.974-.754,21.5,6.6,16.641,1.582,16.641,1.582Z" style="fill:#ea8b7f"/><path d="M94.88,207.094s-20.632-2.263-44.061,11.447L40,234.813s7.119,5.772,16.641-1.582,21.5-6.6,21.5-6.6a24.651,24.651,0,0,1,7.013.951,6.811,6.811,0,0,1,1.127.493,8.35,8.35,0,0,1,2.894,3.106c4.913,7.909,7.21,11.023,11.381,14.971,11.573,9.2,24.836,15.205,47.188,22.219L170,271.226V243.4S125.131,250.958,94.88,207.094Z" style="fill:#ea8b7f"/><path d="M227.852,236.223,170,246.182l-57.852-9.959L110.059,276.9S125.324,298.981,170,298.981,229.941,276.9,229.941,276.9Z" style="fill:#acb9d4"/><path d="M304.564,226.263c-2.475-10.655-11.584-18.378-11.584-18.378,8.092-24.816,8.014-48.9,7.125-61.833a25.1,25.1,0,0,0-7.3-16.035l-2.539-2.538c-2.818-2.819-5.488-5.789-8.026-8.862-10.414-12.605-20.818-15.209-23.221-15.659-.869-.163-2.278-.471-3.132-.7-6.889-1.841-14.634-5.515-19.76-8.178a85.669,85.669,0,0,1-8.749-5.349C203.8,72.638,170,75.561,170,75.561s-33.795-2.923-57.383,13.171a85.669,85.669,0,0,1-8.749,5.349c-5.126,2.663-12.87,6.337-19.76,8.178-.854.228-2.263.536-3.132.7-2.4.45-12.807,3.054-23.221,15.659-2.538,3.073-5.208,6.043-8.026,8.862l-2.539,2.538A25.1,25.1,0,0,0,39.9,146.052c-.889,12.933-.967,37.017,7.125,61.833,0,0-9.109,7.723-11.584,18.378a7.305,7.305,0,0,0,12.07,7.057c4.249-4.012,11.785-9.611,21.839-11.057a9.51,9.51,0,0,0,5.209-16.274c-.454-.434-.947-.883-1.481-1.339A16.5,16.5,0,0,1,67.3,190.742c.678-8.016,3.275-20.425,11.54-35.627a14.721,14.721,0,0,1,1.707.5,20.919,20.919,0,0,1,12.259,11.7c1.641,3.9,5.046,10.118,10.961,13.25a29.731,29.731,0,0,0-1.968,5.333,19.815,19.815,0,0,0,3.482,17.27c7.829,10.212,26.6,27.25,64.718,27.25s56.889-17.038,64.718-27.25a19.815,19.815,0,0,0,3.482-17.27,29.731,29.731,0,0,0-1.968-5.333c5.915-3.132,9.319-9.346,10.961-13.25a20.919,20.919,0,0,1,12.259-11.7,14.748,14.748,0,0,1,1.706-.5c8.266,15.2,10.863,27.611,11.541,35.627a16.5,16.5,0,0,1-5.772,13.908c-.534.456-1.027.905-1.481,1.339a9.51,9.51,0,0,0,5.209,16.274c10.054,1.446,17.59,7.045,21.839,11.057a7.305,7.305,0,0,0,12.07-7.057Z" style="fill:#ffc4b6"/><circle cx="170" cy="25.071" r="15.348" style="fill:#383a3d"/><path d="M210.36,52.785a10.67,10.67,0,0,0-7.968-4.37c-.119-.008-.236-.017-.351-.029a9.284,9.284,0,0,1-5.811-3L185.34,33.694c-5.386-5.907-24.728-5.907-30.114,0L144.335,45.385a9.284,9.284,0,0,1-5.811,3c-.115.012-.232.021-.35.029a10.676,10.676,0,0,0-8.307,16.446c2.588,3.961,7.346,7.934,15.976,7.578l24.44-18.685,24.439,18.685c8.631.356,13.388-3.617,15.976-7.578A10.647,10.647,0,0,0,210.36,52.785Z" style="fill:#383a3d"/><polygon points="162.208 258.48 154.09 269.893 148.354 281.372 161.407 290.259 151.969 304.621 163.808 312.38 158.167 320.637 173.414 330.277 188.298 307.849 174.669 299.527 184.615 285.142 170.781 276.684 172.924 272.943 177.02 262.383 162.208 258.48" style="fill:#e9ebfc"/><polygon points="108.997 233.176 100.555 246.152 91.728 262.921 104.824 271.744 95.456 286.152 106.329 295.34 99.387 305.375 114.681 314.94 130.28 291.51 118.132 280.947 128.918 265.181 122.071 260.514 114.47 255.743 121.856 242.47 108.997 233.176" style="fill:#e9ebfc"/><polygon points="229.297 286.479 241.272 273.735 228.851 263.313 239.577 249.764 237.41 247.455 225.983 237.813 221.693 232.42 210.687 245.098 216.196 252.093 207.533 264.778 209.421 267.801 217.562 275.342 206.091 288.139 216.645 297.573 209.837 304.9 223.48 316.7 241.536 296.737 229.297 286.479" style="fill:#e9ebfc"/><path d="M63.026,273.63c4.467,1.968,10.706,5.39,15.234,10.538a31.936,31.936,0,0,0-6.068-12.64H63.476A1.1,1.1,0,0,0,63.026,273.63Z" style="fill:#ea8b7f"/><path d="M276.521,271.528h-8.713a31.97,31.97,0,0,0-6.068,12.635c4.529-5.145,10.765-8.566,15.231-10.533A1.1,1.1,0,0,0,276.521,271.528Z" style="fill:#ea8b7f"/><path d="M100.555,246.152c3.076,3.381,11.224,9.884,21.516,14.362l-6.7-4.57,7.282-12.856-14.516-11.331Z" style="fill:#acb9d4"/><path d="M222.134,230l-12.252,14.08,5.578,7.765-9.483,12.77,3.444,3.19a75.13,75.13,0,0,0,27.989-20.346l-10.436-11.118Z" style="fill:#acb9d4"/><path d="M238.488,187.12h0v0c-.082-.4-.174-.793-.282-1.186h0l-.006-.027a29.731,29.731,0,0,0-1.968-5.333,64.143,64.143,0,0,1-10.988,3.609c-8.7,1.894-17.679.39-25.8-3.255a34.858,34.858,0,0,0-12.779-2.546,1.58,1.58,0,0,0-.489,3.1,50.481,50.481,0,0,1,7.557,2.681,40.717,40.717,0,0,1,3.63,1.936,45.922,45.922,0,0,0,16.363,5.562l-.018.006a8.182,8.182,0,0,1,4.28,3.552,9.327,9.327,0,0,1-2.381,12.19c-6.707,5.223-21.853,14.376-45.635,14.385-23.781-.009-38.927-9.162-45.635-14.385a9.327,9.327,0,0,1-2.38-12.19,8.182,8.182,0,0,1,4.279-3.552h0a45.922,45.922,0,0,0,16.405-5.568,40.734,40.734,0,0,1,3.631-1.936,50.481,50.481,0,0,1,7.557-2.681,1.58,1.58,0,0,0-.49-3.1,34.852,34.852,0,0,0-12.778,2.546c-8.125,3.645-17.107,5.172-25.8,3.255a49.289,49.289,0,0,1-10.987-3.609h0a29.779,29.779,0,0,0-1.968,5.333l-.006.027h0c-.108.393-.2.788-.282,1.184v0h0a19.868,19.868,0,0,0,3.771,16.054c7.829,10.212,26.6,27.25,64.718,27.25s56.889-17.038,64.718-27.25A19.862,19.862,0,0,0,238.488,187.12Z" style="fill:#ea8b7f"/><path d="M169.206,272.531c1.258.167,2.494.3,3.719.412l6.447-11.253-17.238-7.9-8.044,16.1C158.811,270.917,163.833,271.816,169.206,272.531Z" style="fill:#acb9d4"/><path d="M246.784,198.644a14.115,14.115,0,0,0-2.593-2.583c-3.555-2.712-9.246-2.4-11.467,1.478A58.6,58.6,0,0,1,223.6,209.56a21.441,21.441,0,0,1-6.365,5.634,70.639,70.639,0,0,1-19.569,10.528,18.849,18.849,0,0,1-7.7,2.294A85.227,85.227,0,0,1,170,230.425a11.932,11.932,0,0,1-7.967-.345,80.248,80.248,0,0,1-25.958-6.719,12.7,12.7,0,0,1-7.2-3.79,62.235,62.235,0,0,1-13.888-11.325,19.152,19.152,0,0,1-5.015-6.346q-1.432-2.1-2.691-4.361c-2.174-3.907-7.912-4.19-11.467-1.478a14.115,14.115,0,0,0-2.593,2.583,16.209,16.209,0,0,0-2.21,15.3,72.393,72.393,0,0,0,7.255,14.8l8.187,10.546a72.217,72.217,0,0,0,24,16.847l12.093,4.191A107.081,107.081,0,0,0,170,263.663h.285l10.059-.429a93.247,93.247,0,0,0,27.021-6.183l8.839-4.218a71.384,71.384,0,0,0,23.021-20.406,41.655,41.655,0,0,1,4.791-7.5,71.405,71.405,0,0,0,4.978-10.987A16.2,16.2,0,0,0,246.784,198.644Z" style="fill:#e9ebfc"/><path d="M98.268,228.737a72.657,72.657,0,0,0,8.188,10.543c-2.022-16.41,4.57-26.562,8.533-31.039a57.563,57.563,0,0,1-5.016-6.345A44.252,44.252,0,0,0,98.268,228.737Z" style="fill:#acb9d4"/><path d="M136.077,223.356a69.99,69.99,0,0,1-7.2-3.792c-1.984,6.222-5.49,21.521,1.582,36.558a83.1,83.1,0,0,0,12.09,4.2C131.254,246.688,134.055,230.429,136.077,223.356Z" style="fill:#acb9d4"/><path d="M151.36,114.44c13.684,5.385,26.818,5.576,39.363.219a2.066,2.066,0,0,1,2.773,2.529,36.733,36.733,0,0,1-7.438,12.633,1.181,1.181,0,0,0,1.506,1.794c1.408-.953,2.344-1.686,2.344-1.686,27.1-21.292,18.436-45.116,15.789-50.84A114.873,114.873,0,0,0,170,75.561,115.026,115.026,0,0,0,134.66,79c-2.6,7.2-8.29,30.585,17.608,50.934,0,0,.937.733,2.344,1.686a1.181,1.181,0,0,0,1.506-1.794,36.571,36.571,0,0,1-7.5-12.84A2.07,2.07,0,0,1,151.36,114.44Z" style="fill:#ea8b7f"/><path d="M180.344,263.229a42.576,42.576,0,0,1-7-9.759c-3.737-8.375-3.713-17.813-3.307-23.049-2.675.009-5.349-.108-8.008-.347-.462,6.178-.38,16.882,4.048,26.743.02.044.04.087.062.13a50.81,50.81,0,0,0,4.142,6.71Q175.535,263.645,180.344,263.229Z" style="fill:#acb9d4"/><path d="M197.661,225.718a79.7,79.7,0,0,1-7.7,2.291c1.735,7.207,6.4,21.259,17.394,29.021a76.772,76.772,0,0,0,8.839-4.211C204.16,247.792,199.274,232.513,197.661,225.718Z" style="fill:#acb9d4"/><path d="M217.227,215.188c3.354,7.1,10.234,15.112,21.989,17.232a73.669,73.669,0,0,0,4.794-7.493c-13.45-.66-18.685-10.628-20.421-15.374A62.244,62.244,0,0,1,217.227,215.188Z" style="fill:#acb9d4"/><path d="M200.93,77.93a17.016,17.016,0,0,0-5.237-9.53,134.256,134.256,0,0,0-13.431-10.843,20.8,20.8,0,0,0-11.979-3.8h0a20.807,20.807,0,0,0-11.981,3.8,134.46,134.46,0,0,0-13.476,10.886,16.9,16.9,0,0,0-5.189,9.48,92.816,92.816,0,0,0-1.415,13.6,16.224,16.224,0,0,0,6.408,13.424c4.838,3.651,12.9,7.386,25.653,7.386,12.653,0,20.692-3.678,25.541-7.3a16.292,16.292,0,0,0,6.521-13.447A92.809,92.809,0,0,0,200.93,77.93Z" style="fill:#ffc4b6"/><path d="M179.03,98.757a3.361,3.361,0,0,1-1.506-.357,14.939,14.939,0,0,0-13.086-.057,3.373,3.373,0,0,1-3.256-5.908,21.784,21.784,0,0,1,19.359-.069,3.374,3.374,0,0,1-1.511,6.391Z" style="fill:#ea8b7f"/><path d="M179.213,79.974a2.8,2.8,0,0,1-1.3-5.286,8.993,8.993,0,0,1,6.443-.888,2.8,2.8,0,1,1-1.448,5.413,3.447,3.447,0,0,0-2.4.443A2.789,2.789,0,0,1,179.213,79.974Z" style="fill:#ea8b7f"/><path d="M162.638,79.974a2.789,2.789,0,0,1-1.294-.318,3.447,3.447,0,0,0-2.4-.443,2.8,2.8,0,1,1-1.448-5.413,9,9,0,0,1,6.442.888,2.8,2.8,0,0,1-1.3,5.286Z" style="fill:#ea8b7f"/><path d="M65.594,156.464a35.106,35.106,0,0,1,9.949,5.209c.988-2.124,2.074-4.306,3.3-6.558a83.3,83.3,0,0,0-12.6-1.773A1.613,1.613,0,0,0,65.594,156.464Z" style="fill:#ea8b7f"/><path d="M274.4,156.464a1.613,1.613,0,0,0-.65-3.122,83.121,83.121,0,0,0-12.59,1.773c1.224,2.25,2.309,4.43,3.3,6.553A35.126,35.126,0,0,1,274.4,156.464Z" style="fill:#ea8b7f"/></svg>