<svg width="120px" height="120px" viewBox="0 0 120 120" xmlns="http://www.w3.org/2000/svg"><path d="m120.1 40.64a14.72 14.72 0 0 1 -.48 1.76c-.4 1-2.31 1.43-3.72.89a2.94 2.94 0 0 1 -1.14-4.71 3.43 3.43 0 0 1 4.09-1.07c.27.13.52.25.26.61a.36.36 0 0 0 0 .21c.69.25.65 1 1 1.48z" fill="#f8b4c3"/><path d="m21.59 44.39c.46-.63.31-1.68 1.34-2a.49.49 0 0 0 .14-.78c-.17-.21.14-.6.37-.85.59-.63.54-1.75 1.56-2.05-.3-.49.19-.65.37-1a15.92 15.92 0 0 1 1.69-2.45c.14-.16.26-.42.51-.11.11.14.3 0 .26-.08-.39-1 .63-1.17 1-1.73a4.5 4.5 0 0 1 1-1q1.82-1.58 3.66-3.12s.18 0 .28 0l.1.12a1 1 0 0 0 .24.26c0-.14-.17-.16-.24-.26a.38.38 0 0 0 -.11-.11 5.91 5.91 0 0 1 2.22-1.87 15.4 15.4 0 0 1 1.65-.75c.91-.22 1.55-1.27 2.67-.87.22.07.15-.1.13-.22a1.11 1.11 0 0 1 0-.26c.64.4 1.08-.77 1.78-.24.09.07.28-.34.68-.41a12.06 12.06 0 0 0 1.88-.34c.78-.28 1.58-.43 2.36-.63a18.86 18.86 0 0 1 4.29-.58c.27.5 0 1 0 1.52a3.79 3.79 0 0 0 .1 1.89.39.39 0 0 1 0 .3 2.49 2.49 0 0 0 .13 1.72 2.53 2.53 0 0 1 .08 1.25c-.22.1-.38 0-.52-.15a9.88 9.88 0 0 1 -2.56-2.9c-.07-.13-.09-.33-.29-.32s-.21.18-.28.3a1.42 1.42 0 0 0 -.08 1.73 10.26 10.26 0 0 0 1.94 2.74 5.27 5.27 0 0 0 4.61 1.2 6.68 6.68 0 0 0 2.56-1 8.32 8.32 0 0 0 1.55-1.53.21.21 0 0 0 0-.32c-.1-.09-.23-.17-.23-.33s.15-.21.3-.14c.38.32.65.18.81-.22.83-2.12 2.43-3.74 3.6-5.64a.77.77 0 0 1 1.26-.16c.29.28 0-.17.21-.14.68.15 1.48-.16 2 .53a2.6 2.6 0 0 0 .4.33c0-.14-.06-.29-.08-.44a1.09 1.09 0 0 1 0-.18l.32.3.23.3a1 1 0 0 0 .19-.28c.13-.55.41 0 .49 0a7.49 7.49 0 0 1 3.08.94c.52.38 1.09.16 1.51.43s.69.7 1.29.41a.68.68 0 0 1 .65.61c0 .06.06.14.11.19s.2 0 .2 0c0-.86.44.16.58-.13.36.25.78.43 1 .88.66-.31 1 .33 1.44.56a31.27 31.27 0 0 1 6.52 4.69 39.53 39.53 0 0 1 7.08 8.66 28.57 28.57 0 0 1 2.43 5.44c.46 1.21 1 2.41 1.36 3.65a38.15 38.15 0 0 1 1.59 5.8c.19 1.7.23 3.41.44 5.1.16 1.22.05 2.44.09 3.65-.12.16-.45.25-.11.55.17.15.11.48 0 .73 0 .68-.12 1.37-.17 2.06 0 .18-.06.24-.25.18s-.33.06-.21.13c.59.34 0 .79.14 1.18s-.09.52-.51.54a9.35 9.35 0 0 0 -1.62.33c-.28.06-.44 0-.44-.27a7.47 7.47 0 0 0 -1.22-3.87c-.09-.14-.3-.7-.79-.55-.94.65-2 1-3 1.66-.75.52-.75.52-.27 1.26a7.38 7.38 0 0 1 .56 1.17c.07.15.15.32 0 .49a.55.55 0 0 1 -.5 0c-.34-.11-.41.28-.64.34s-.15-.51-.52-.43-.63 0-.93 0-.58.08-.39.54c.1.27-.12.42-.4.3a.65.65 0 0 1 -.41-.56c0-.32-.19-.46-.47-.41a12.6 12.6 0 0 1 -2.12.22.26.26 0 0 0 -.15 0c-.62.53-1.42.29-2.12.52a2.42 2.42 0 0 0 -.68.25.68.68 0 0 1 -.33.13 5.57 5.57 0 0 0 -3.43 1.31 13.34 13.34 0 0 0 -2.68 2.46 18.5 18.5 0 0 0 -1.87 2.55c-.66 0-1 .39-1.2.93a14 14 0 0 0 -.55 1.4 1.6 1.6 0 0 1 -.53.92.75.75 0 0 1 -1.07-.15 2.84 2.84 0 0 0 -1.38-.55 7 7 0 0 1 -1.1-.34.71.71 0 0 0 -.55-.08c-.42.17-.7 0-1-.24a9.48 9.48 0 0 0 -2.71-1c-1.34-.25-2.63-.64-4-.87-.88-.14-1.76-.21-2.63-.39q-3.33-.64-6.69-1.08c-1.14-.14-2.25-.41-3.38-.57a.76.76 0 0 1 -.48-.19 5.17 5.17 0 0 1 -.45-1.43q-.44-1.56-.72-3.15a1.88 1.88 0 0 1 0-1c.2-.24.32-.13.4.09a6.77 6.77 0 0 1 .29 1.26c.06.29.15.54.45.64.12 0 .27.09.22.24a.6.6 0 0 0 .25.73 1.44 1.44 0 0 0 1 .25 4.77 4.77 0 0 0 1.58-.5c.19-.1.08-.09 0-.14s-.39-.23-.3-.47.33-.18.53-.14.25.12.33 0 0-.23-.07-.34c-.15-.29-.15-.65-.61-.75-.26-.06-.15-.34.06-.41.48-.15.43-.51.32-.84-.22-.69-.1-1.46-.51-2.1.31-.71-.06-1.4-.06-2.09a2.2 2.2 0 0 0 -.44-1.63.21.21 0 0 1 0-.24 3.89 3.89 0 0 0 -.14-2.77.6.6 0 0 1 0-.54 1.36 1.36 0 0 0 -.05-1.34c-.08-.15-.15-.26-.08-.43.14-.34 0-.51-.35-.53s-.93-.13-1.18.41c-.06.12-.18.14-.31.15-.59 0-.85.3-.84.9 0 .33 0 .59-.45.38a.67.67 0 0 1 -.09-.64 5.8 5.8 0 0 0 .11-1.61.65.65 0 0 0 -.56-.7c-.39-.07-.54.21-.59.52-.27 1.56-.89 3-1.08 4.61a21.57 21.57 0 0 0 -.1 2.54c0 .37 0 .73-.05 1.1a30.28 30.28 0 0 0 .25 4.36 38.41 38.41 0 0 0 .78 3.87 2.11 2.11 0 0 1 .05.83c-.12.3-.33.24-.56.16-1.22-.4-2.43-.82-3.61-1.33-.28-.12-.47-.36-.73-.5a3 3 0 0 0 -1-.48.72.72 0 0 1 -.41-.3 2.61 2.61 0 0 0 -1.51-1 .43.43 0 0 1 -.35-.32c-.21-.56-.52-1-1.22-1a.26.26 0 0 1 -.26-.39c.06-.16.06-.26-.09-.36a2 2 0 0 1 -.83-1.73c-.09-1-.13-2-.26-2.95a.67.67 0 0 0 -.22-.51.21.21 0 0 1 0-.36.79.79 0 0 0 .22-.72c0-.67.13-1.36.07-2a23.64 23.64 0 0 1 .3-4.13 37.92 37.92 0 0 1 1-5.27 18.05 18.05 0 0 1 1.1-3.2 20.29 20.29 0 0 1 1.64-3.3c.5-.77 1-1.56 1.51-2.3a17.32 17.32 0 0 1 2.1-2.57 12.88 12.88 0 0 1 2.29-1.88c.13-.08.33-.14.29-.32s-.24-.16-.39-.17a2.74 2.74 0 0 0 -1.57.25s-.11 0-.14.07c-.81.83-1.92 1.23-2.72 2.07a19.24 19.24 0 0 0 -3.08 3.92c-.35.62-.77 1.23-1.13 1.85a18.08 18.08 0 0 0 -1.27 2.43c-.38.9-.71 1.81-1 2.72a25.93 25.93 0 0 0 -.7 2.76 26.9 26.9 0 0 0 -.62 4.37 24 24 0 0 0 -.1 4.4c0 .39-.11.76 0 1.14 0 .07 0 .19-.09.17-.29-.17-.64 0-.9-.15s-.16-.4-.09-.62c.22-.7-.21-1.19-.54-1.71 0-.06-.1-.07-.18-.08-.48 0-.53-.06-.38-.51a.75.75 0 0 0 -.06-.64c-.5-.92-1-1.84-1.41-2.79 0-.06 0 0 0 0-.58-.3-.58-.8-.51-1.35a1.2 1.2 0 0 0 -.24-.68 5.25 5.25 0 0 1 -.67-1.33 1.64 1.64 0 0 0 -.36-.75 1 1 0 0 1 -.3-.69.49.49 0 0 0 -.1-.34c-.24-.25-.47-.48-.3-.86-.51-.42-.18-1-.35-1.53-.26-.79-.34-1.65-.66-2.4a8.56 8.56 0 0 1 -.34-2.39z" fill="#e99735"/><path d="m21.59 44.39c.4.45.15 1 .33 1.55a11.58 11.58 0 0 1 .54 2.18c.11.66.24 1.35.37 2a9.53 9.53 0 0 0 .93 2.38 10.32 10.32 0 0 1 1.24 3.03c.2 1.15 1.15 1.87 1.37 2.95.13.62 1.06 1.05.46 1.86 0 0 .06.24.11.25a1.38 1.38 0 0 1 1.06 1.88.58.58 0 0 0 .09.51c.2.15.15-.14.22-.22a.19.19 0 0 1 .13-.07c.35 0 .42-.33.39-.89 0-1 0-2 0-2.94a36.21 36.21 0 0 1 .56-5.08 30.34 30.34 0 0 1 1.88-6.13 32.53 32.53 0 0 1 2-3.74 17.21 17.21 0 0 1 5.55-6.17 3.53 3.53 0 0 1 2.75-.86c.19 0 .4 0 .45.26s-.14.3-.28.39a15.7 15.7 0 0 0 -4.49 4.47 28.72 28.72 0 0 0 -2.8 4.7 22.11 22.11 0 0 0 -1.2 3.12c-.46 1.7-.86 3.4-1.15 5.13a33.83 33.83 0 0 0 -.37 3.49c-.08 1.37-.08 2.75-.11 4.13a.52.52 0 0 1 -.23.45c-.13.11.22.36.23.69 0 1.14.21 2.27.3 3.41a1.66 1.66 0 0 0 .68 1.2c.12.1.88.16.15.55a.2.2 0 0 0 0 .17.25.25 0 0 0 .18.08c.86-.15 1.14.42 1.35 1.09.12.39.54.08.81.33a15 15 0 0 0 4.67 2.82c.78.29 1.6.46 2.4.68.17 0 .23.1.29.22.26 1.08.6 2.14.88 3.21a32.62 32.62 0 0 0 1.8 4.93c.46 1.07 1 2.11 1.49 3.16a24.75 24.75 0 0 0 2.38 3.92 14.27 14.27 0 0 0 2.32 2.52 3.07 3.07 0 0 1 .45.43 2.24 2.24 0 0 0 .92.59c.18.07.4.16.53 0s-.08-.35-.2-.47a25.81 25.81 0 0 1 -4.24-6c-.57-1.11-1-2.29-1.48-3.45-.66-1.58-1.3-3.18-1.82-4.82-.11-.36-.19-.74-.28-1.11a1.08 1.08 0 0 0 -.37-.72c-.1-.08-.19-.2-.14-.32.14-.39 0-.79 0-1.18l.05-.06c4.06.64 8.12 1.3 12.18 1.93a48.88 48.88 0 0 1 6.1 1.37c.63.18 1.28.63 1.88.83s1.48.2 2.18.47 1.46.18 1.91.92c.18.31.41-.35.69-.09.26.07.51.11.14.44s-.35.92-.49 1.39a11.22 11.22 0 0 0 -.33 2.75 22.6 22.6 0 0 0 .16 2.33s0 .09 0 .1c.66.26.17.73.23 1.11a8.65 8.65 0 0 0 .48 2.07 9.76 9.76 0 0 1 .46 1.28 7.3 7.3 0 0 0 1.21 2.29c.69.94 1.26 2 2 2.85.41.5.94.87 1.33 1.38.27.35.27.54-.13.66-1.73.53-3.4 1.21-5.15 1.68a1.38 1.38 0 0 1 -.92 0c-.09 0-.12 0-.21 0a2.77 2.77 0 0 1 -1.63.51c-.18-.27-.11.06-.17.08a5.33 5.33 0 0 1 -1.35.33c-.22 0-.34-.1-.47-.22a.4.4 0 0 1 -.34.34 3.74 3.74 0 0 1 -1.72.22c-.42-.08-.8.28-1.21.05a.74.74 0 0 0 -.58-.5s0 0 0 0 .46.17.32.49a1.14 1.14 0 0 1 -.59.16c-.83 0-1.65.15-2.47.22a1.36 1.36 0 0 1 -1.54-.67c-.09-.13-.18-.21-.32-.06a1 1 0 0 0 -.26.48c-.39.3-.82.17-1.24.12-.13 0-.2-.12-.17-.28a.57.57 0 0 0 .07-.29.55.55 0 0 0 -.07.28.31.31 0 0 1 -.4.3c-1-.16-2.06 0-3.06-.27a11 11 0 0 0 -2.13-.31s-.13 0-.15 0c-.28-.47-.86-.39-1.16-.35-1 .15-1.7-.5-2.59-.62a17.67 17.67 0 0 1 -3.65-1.12c-.93-.35-1.89-.6-2.82-.94a12.21 12.21 0 0 1 -3.53-1.82 13.49 13.49 0 0 0 -1.45-1 21.17 21.17 0 0 1 -2.61-1.78.41.41 0 0 1 -.19-.3l-.31-.3s0 0 0 0a36.3 36.3 0 0 1 -3.19-3.37 18.32 18.32 0 0 1 -2.1-2.66c-.65-1.06-1.13-2.22-1.69-3.33-.16-.3-.37-.58-.55-.86 0 0 0-.08 0-.1.24-.31-.12-.14-.17-.21-.42-1.29-1.3-2.42-1.28-3.89 0-.19-.54-.82-.65-1.24a9.56 9.56 0 0 1 -.51-2.2 10.17 10.17 0 0 0 -.53-1.84c-.16-.66-.32-1.31-.47-2a.4.4 0 0 1 .16-.5c.07 0 .08-.19.11-.3a1.9 1.9 0 0 1 -.19.21 1.66 1.66 0 0 1 -.14.13 1.62 1.62 0 0 1 0-.19c-.19-1.18-.43-2.34-.54-3.52-.39-4-.9-7.94-.25-11.94a40.39 40.39 0 0 1 .81-5.12c.16-.55.08-1.31.42-1.66.58-.59.19-1.42.81-2.05a4.51 4.51 0 0 0 .63-2c0-.13.15-.24.24-.37z" fill="#e2802f"/><path d="m61.56 102c.95-.1 1.91-.2 2.86-.33.19 0 .49-.06.24-.4 0 0 0-.15 0-.22s.22 0 .23 0c.35 1 1 .12 1.43.21a2.17 2.17 0 0 0 .36 0s0-.1.12-.11l1.51-.36c.25-.07.06-.21 0-.32a1.55 1.55 0 0 1 0-.23s.11 0 .14 0c.89.8 1.71 0 2.51-.17 1.26-.32 2.48-.81 3.71-1.23a2.17 2.17 0 0 0 .33-.19c-.09-.1-.17-.2-.26-.29a30.19 30.19 0 0 1 -3-3.72 14.14 14.14 0 0 1 -2.27-5.06c-.14-.55-.71-1.22 0-1.82 0 0 0-.16 0-.18-1-.68-.53-1.75-.6-2.61a11.23 11.23 0 0 1 .62-3.97c.06-.21-.06-.55.39-.45.11 0 .13 0-.17-.29.38-.89.8-1.76 1.12-2.66.23-.63.64-.66 1.17-.58.28 0 .3.17.3.37a1 1 0 0 1 -.15.54 9 9 0 0 0 -.86 2.33 13.15 13.15 0 0 0 -.39 3.75 7.72 7.72 0 0 0 .1 1.9c0 .42.22.84 0 1.29 0 .08.25.36.29.6.09.53.27 1 .41 1.56a19.24 19.24 0 0 0 2.55 5.33 16 16 0 0 0 2.35 2.91 12.62 12.62 0 0 0 4.4 2.76 32 32 0 0 0 5 1.16 9.73 9.73 0 0 0 1.08 0 24.36 24.36 0 0 0 3.31 0c1.33 0 2.66 0 4-.15s2.66-.34 4-.55a18.29 18.29 0 0 0 5.54-1.58 4.57 4.57 0 0 1 1.71-.69c.13 0 0-.08 0-.12.26-.25.5-.53.92-.43 2.23.82 4.6 1 6.87 1.62 1.39.37 2.89.47 4.14 1.3.48.32 1.1.68 1.06 1.27s-.7.93-1.38 1.16a40.63 40.63 0 0 1 -5.93 1.34 7.28 7.28 0 0 1 -2.14.49c-.52 0-1.27-.45-1.87.19a7.76 7.76 0 0 1 -1.51.08 27.77 27.77 0 0 0 -3.41.23c-.43.07-.8.62-1.3.14 0 0-.13-.06-.15 0-.51.52-1.14-.27-1.66.15-.22 0-.39.25-.62.09-.75.37-1.57-.16-2.31.21-.29.21-.64 0-.94.12-1.06.11-2.12.26-3.19.34s-2.22.13-3.32.16a1.57 1.57 0 0 0 -1 .22.48.48 0 0 1 -.38.11 2.85 2.85 0 0 0 -2.34 0c-.27.08-.78-.15-1.21-.12-1.18.07-2.36.12-3.55.17-.89 0-1.79.08-2.69.1-.26 0-.61.11-.63-.36 0 0-.12-.1-.2-.14s-.1.09-.1.14c0 .68-.53.5-.82.43-1-.2-1.93.19-2.89-.09-.14 0-.22 0-.29-.17a1.18 1.18 0 0 0 -.17-.22 2.09 2.09 0 0 1 0 .25c-.1.41-.34.06-.44 0-.41-.09-1 .52-1.24-.31 0 0-.12 0-.13 0-.46 1-1.29.32-1.93.39-1.47.14-3 .14-4.44.17-2.12 0-4.24 0-6.37-.09-1.75-.11-3.5 0-5.26 0s-3.66 0-5.5 0c-2.31 0-4.63-.18-6.94-.26a36.27 36.27 0 0 1 -4.43-.1c-.74-.11-1.48.2-2.11 0s-1.49.27-2.25 0c-1.19-.48-2.43.11-3.66-.09-.94-.15-1.93 0-2.86-.21-.38-.07-.73.31-1.06 0a.12.12 0 0 0 -.21 0c-2.37-.19-4.74-.36-7.11-.57-.73-.06-1.44-.24-2.16-.36-.06.09-.12.15-.24.11a20.11 20.11 0 0 0 -3.78-.6c-.63-.1-1.32-.47-1.86-.3-.7.22-1.27-.76-1.9 0-.26-.6-.84-.46-1.31-.56a13.23 13.23 0 0 1 -4-1.13 2.31 2.31 0 0 1 -.29-3.94 17.16 17.16 0 0 1 8-3.44c2.16-.44 4.33-.84 6.51-1.14 1.73-.24 3.48-.28 5.23-.42 1.46-.12 2.93-.3 4.4-.35 1.87-.06 3.75 0 5.62 0 1.29.94 2.55 1.91 3.88 2.79a22.33 22.33 0 0 0 6.43 2.79c.93.26 1.82.72 2.76 1 1.12.29 2.24.55 3.33.93a1.42 1.42 0 0 0 1.45-.18s.18 0 .18 0c.11.49.3.76 1 .58s.91.32 1.44.31a25.66 25.66 0 0 1 3 .26c.44 0 .18-.33.18-.49s-.11-.3.12-.36.21.26.21.29c-.23 1.15.66.34 1 .54 0 0 .19-.05.28-.08a.63.63 0 0 1 .55-.4c1.45 1.3 3.06.11 4.58.29a.16.16 0 0 1 .26-.28z" fill="#2b3c58"/><path d="m70.88 86a12.83 12.83 0 0 1 -.09-3.66 10.69 10.69 0 0 1 1.28-4.61c.11-.18.33-.51-.07-.7a4.61 4.61 0 0 1 1.07-1.65 16.24 16.24 0 0 1 3-3 8.74 8.74 0 0 1 3.85-1.7 13.78 13.78 0 0 0 3.17-.8 7.5 7.5 0 0 1 2.44-.31c.24 0 .63 0 .46.5-.09.25.11.43.33.52a.86.86 0 0 0 .23 0 2.72 2.72 0 0 0 -.13-.49c-.36-.85.59-.07.59-.47.41 0 1.1-.13 1.17 0 .29.65.55 0 .8 0s.44.08.66.12.21.16.25.28a18.84 18.84 0 0 1 .85 4.05 1.08 1.08 0 0 1 -.11.66c-.25.23-.49 0-.73 0a2.63 2.63 0 0 1 -2-1.15c-.21-.33-.59-.32-.94-.37-.07 0-.16 0-.14.11.1.37-.09.37-.36.32-.1 0-.22 0-.25.1s.09.13.17.16.36.06.25.41.3.46.59.56a23.36 23.36 0 0 0 3.07.77 8.18 8.18 0 0 0 4.88-.6 1.23 1.23 0 0 0 .33-.05c.17-.13.49-.21.38-.48s-.4-.15-.61-.14a1.78 1.78 0 0 0 -.77.3c-.25.13-.5.34-.8.11a8.34 8.34 0 0 0 .83-3.66c0-.47 0-.63.61-.63 1.29 0 2.57-.28 3.86-.36.39 0 1-.48 1.2.35h.09c1.21-.91 2.48-.22 3.66 0a12.29 12.29 0 0 1 5.76 2.68 15 15 0 0 1 3.42 4c.18.29-.42.43-.15.56 1.37.69 1 2.09 1.41 3.19-.06 0 0 0 0 0s0 0 0 0c.05 1.14.16 2.3.24 3.4a16.15 16.15 0 0 1 -1 5.7 2.49 2.49 0 0 1 -1.13 1.83c-.2.1.15.31 0 .58a9.2 9.2 0 0 1 -1.07 1.54.66.66 0 0 0 0 .15c-.07-.13-.15-.38-.2-.37a.2.2 0 0 0 -.13.36c.12.14.15.26 0 .39a7 7 0 0 1 -1.77 1.7c-.45-.22-.68-.67-1-1s-.55-.57-.82-.86c-.1-.11-.21-.27-.33-.24-.58.15-.8-.31-1-.64s-.88-.53-1.3-.82a14.38 14.38 0 0 0 -3.49-1.73 24.45 24.45 0 0 0 -5.67-1.24 29.44 29.44 0 0 0 -5.71.09 35.36 35.36 0 0 1 -4.92.5c-.27-.07-.23-.31-.25-.51 0-.68.06-1.35 0-2a4.54 4.54 0 0 1 .22-1.82c.23-.63-.1-1-.77-.9a1.17 1.17 0 0 0 -1.05 1.59c0 .12.14.24.05.35-.62.74-.33 1.62-.4 2.45a2.52 2.52 0 0 1 -.09 1 4 4 0 0 1 -2.42.17.73.73 0 0 0 -.58 0c-.39.15-.76-.07-1.12-.15-.51-.1-1-.2-1.54-.26-.21-.12-.22-.34-.26-.54-.08-.51-.15-1-.24-1.53 0-.17 0-.36-.18-.46 0 0-.11-.07-.08-.11.24-.34.07-.82.4-1.13a.35.35 0 0 1 .36.24.78.78 0 0 0 1 .53 4.17 4.17 0 0 1 1.25-.19.41.41 0 0 0 .43-.42 26.09 26.09 0 0 1 1.66-6.57 4.78 4.78 0 0 0 .15-1.46c0-.11-.07-.16-.16-.17-.49-.07-1-.26-1.44.14-.25.23-.44 0-.63-.1s.16-.37.3-.5a9.73 9.73 0 0 1 1.18-.91c.07 0 .18-.08.17-.17s-.13-.12-.21-.11a3 3 0 0 0 -1.51.28 12.85 12.85 0 0 0 -3.12 2.57c-.06.06-.16.12-.16.2-.08.91-1 1.42-1.14 2.27a8.9 8.9 0 0 0 -.44 2.52 7.31 7.31 0 0 1 -.1 1.42 16.67 16.67 0 0 0 0 1.87 1 1 0 0 1 -.12.6.5.5 0 0 1 -.66-.11c-.46-.4-1-.69-1.45-1.1a1.26 1.26 0 0 1 -.51-.69.32.32 0 0 0 -.29-.26.6.6 0 0 1 -.46-.29z" fill="#e87024"/><path d="m77.11 90c.73-.15 1.4.35 2.07.26.91-.13 1.77.51 2.68 0 .23-.12.59 0 .89 0s.14.35.16.53a12.72 12.72 0 0 0 1.26 4.65 9 9 0 0 0 2 2.75 2.1 2.1 0 0 0 .33.26c.14.07.31.19.43.09s0-.28-.09-.4a17.51 17.51 0 0 1 -2-7.53.49.49 0 0 1 .19-.55c1-.12 1.92-.25 2.88-.35a45.43 45.43 0 0 1 5.18-.44 24 24 0 0 1 7.05 1 24.85 24.85 0 0 1 5.18 2.32c.56.33 1.16 1.15 1.27 1.14 1.22-.13 1.41 1 2.08 1.53a4.07 4.07 0 0 1 .67.81l-2.83 1.81a18.43 18.43 0 0 1 -5 2.28 51.56 51.56 0 0 1 -6.88 1.2c-1.34.18-2.69 0-4 .23a18.68 18.68 0 0 0 -2.13.06c-.67.2-1.39-.52-2 .2a2.32 2.32 0 0 0 -1.24-.32c-3.84-.61-7.38-1.86-9.9-5a21.14 21.14 0 0 1 -2.83-4.36 15.59 15.59 0 0 1 -1.44-4.42c0-.14.08-.62-.4-.41 0 0-.06-.07-.09-.1.66-.31.13-.83.23-1.24 1.05 0 1 1.23 1.81 1.49.57.18.82.89 1.5.92.19 0 .2.11.21.22a11 11 0 0 0 .88 3.14 8.87 8.87 0 0 0 3.59 4.23 2.25 2.25 0 0 0 1 .34c.15 0 .34.06.44-.08s-.07-.28-.17-.4c-.41-.49-.76-1-1.17-1.52a9.18 9.18 0 0 1 -1.63-3.46c-.1-.31-.29-.57-.18-.88z" fill="#e55f25"/><path d="m58.68 29-.24.21c0 .37-.35.4-.61.49s-.21-.29-.28-.45 0-.6-.37-.77c.15-.52-.19-1-.21-1.43a16.29 16.29 0 0 0 -.29-2.21 8 8 0 0 0 -.28-1.52.8.8 0 0 1 0-.15 2.27 2.27 0 0 0 -.4-1.43.18.18 0 0 1 0-.2c.27-.5 0-1 .07-1.53s-.62-.57-.19-1.07c.28-.32 0-.81 0-1.22a1.63 1.63 0 0 0 -.23-.84c-.13-.22-.42-.46 0-.65 0 0 .06-.06 0-.09-.45-.53.16-.91.19-1.38.71-.59 1.4-1.21 2.14-1.76a2.35 2.35 0 0 1 2.64 0c1.47.83 3 1.51 4.49 2.31.46.25.92.53 1.36.83s.08.28-.1.48c-1.3 1.42-3 2.43-4.06 4.09a27.67 27.67 0 0 0 -2.88 4.7c-.34 1.18-1.06 2.3-.75 3.59z" fill="#784848"/><path d="m56.45 23.22a15.65 15.65 0 0 1 .63 3.85 9.46 9.46 0 0 0 .6 2.15c0 .15.09.31.13.47s-.07.32-.2.41a4.62 4.62 0 0 1 -3.37.89 4.23 4.23 0 0 1 -2.22-.6c-.17-.13-.42-.2-.37-.5a18.25 18.25 0 0 1 -.3-6.67 21.53 21.53 0 0 1 1.25-3.39c.11-.2.18-.29.37-.07s.21.34.34.13a.71.71 0 0 0 -.06-.56c-.55-.1-.14-.38-.07-.49a23.86 23.86 0 0 1 2.74-4.08c.32.07.1.29 0 .35-.28.37-.41.71 0 1.06-.12 0 .18.53-.26.24 0 0-.12 0-.17 0a.23.23 0 0 0 0 .14 2.31 2.31 0 0 1 .25 2.68c-.09.18.42-.07.34.32-.13.66.09 1.32 0 2 0 .41.34 1.05.3 1.64z" fill="#5d3535"/><path d="m90.57 74.86a15.31 15.31 0 0 0 -.92-5 6.81 6.81 0 0 0 -.75-1.56c-.68-.79-.29-1.14.42-1.46.14 0 .31 0 .37.14.28.55 1 .64 1.3 1.14s.78 1 1.12 1.56a18.21 18.21 0 0 1 1.27 2.07 6.29 6.29 0 0 1 -.52 3.25 2.11 2.11 0 0 1 -2.29-.14z" fill="#5d3535"/><path d="m101 39.82c0-1.72.54-2.21 2.4-2.2 1.37 0 2.3.6 2.29 1.46a2.23 2.23 0 0 1 -2.29 2.39c-1.66 0-2.4-.47-2.4-1.65z" fill="#f8b4c3"/><path d="m90.57 74.86a4.35 4.35 0 0 0 2.29.11c.12.69.4.12.59.06s.17-.19.25-.29c.7 0 1.19-.74 2-.58.21 0 .39.07.49.29s-.1.32-.25.41a8.09 8.09 0 0 1 -6.63.8 8.07 8.07 0 0 1 -2.49-.8 4.07 4.07 0 0 1 -.52-.41 1 1 0 0 1 -.1-.11c.54-.38-.46-.09-.17-.38 0 0 0-.17 0-.25.05-.47.91.18.77-.56.51 0 1 0 1.36.55.5.92 1.57.82 2.41 1.16z" fill="#2b3c58"/><path d="m109.26 50.91a1.73 1.73 0 0 1 1.74 1.76c-.05 1-.86 1.13-1.61 1.1-1.39-.05-2.25-.63-2.23-1.63s.72-1.3 2.1-1.23z" fill="#f8b4c3"/><path d="m93.38 71.74c-1-1.11-1.5-2.55-2.59-3.57-.23-.21-.36-1-.92-.3 0-.05-.13-.12-.12-.13.27-.51-.18-.66-.43-.91a14 14 0 0 1 3-1.56c-1 .87-.29 1.71.09 2.52a10.4 10.4 0 0 1 .97 3.95z" fill="#784848"/><path d="m97.45 65.58c0-.28.15-.61-.28-.76-.1 0-.12-.26-.18-.4l.56-.12c-.06.43.17.87-.1 1.28z" fill="#f6dab7"/><path d="m95.37 106.28a1.15 1.15 0 0 1 .94-.12c-.22.76-.57.53-.94.12z" fill="#b6bbc5"/><path d="m98.62 106c.22.09.36-.42.62-.09l-.29.57z" fill="#9da4b1"/><path d="m23 82.92c.19-.18.48-.26.59 0 .21.42-.38.07-.39.34z" fill="#f1c49c"/><path d="m14.28 105.67.24-.11c.05.11.25.18.12.34a.29.29 0 0 1 -.18.07c-.24.03-.07-.23-.18-.3z" fill="#737c8f"/><path d="m23.79 106.49.19-.32v.32z" fill="#858c9e"/><path d="m103.43 105.84c.08 0 .13-.09.18-.09s.06.08.09.12l-.17.08s-.05-.05-.1-.11z" fill="#687286"/><path d="m86.51 45.64c.49 1.13.99 2.25 1.49 3.36s.89 2.19 1.25 3.31a29.13 29.13 0 0 1 1.59 7.73 13 13 0 0 1 -.17 2.16c0 .21-.09.53-.45.54a.54.54 0 0 1 -.59-.41c-.67-2.21-1.41-4.4-2-6.64a22.26 22.26 0 0 1 -.89-2.52c0-.26-.38-.57.1-.77 0 0 0-.12 0-.13-1.22-.7-1-2.12-1.61-3.16-1-1.81-1.64-3.77-2.64-5.58a35.81 35.81 0 0 0 -5.9-7.85 23.56 23.56 0 0 0 -5.45-4.51 22.86 22.86 0 0 0 -5.33-1.89 1 1 0 0 1 -.76-.43 3.09 3.09 0 0 1 .94-.29 17 17 0 0 1 6.18 1.62 18.31 18.31 0 0 1 6.15 4.53c1 1.11 2.11 2.2 3.17 3.29.14-.05.23 0 .31.12a17 17 0 0 0 1.58 1.7c.07.06.06.16.06.25a.49.49 0 0 0 .11.39c.86.83 1.14 2 1.85 3a9.16 9.16 0 0 1 1 1.84.37.37 0 0 1 .01.34z" fill="#e07a2e"/><path d="m86.51 45.64c-.73-1.39-1.56-2.73-2.3-4.12-.21-.52-1.12-.77-.75-1.52-.92-.35-1.12-1.39-1.85-1.92-.16-.45-.69-.77-.5-1.35-1.08-.17-1.17-1.31-1.84-1.9a27.89 27.89 0 0 1 -2.27-2.5c-.18-.21-.39-.53.19-.57s-.17-.31.1-.55a1.81 1.81 0 0 1 2.46-.21 18.48 18.48 0 0 1 2.45 1.7 9.58 9.58 0 0 1 1.94 2.5c.17.4.45.51.58.72a45.54 45.54 0 0 1 2.79 4.28 45.5 45.5 0 0 1 2 4.93.7.7 0 0 1 -.29.91c-1.22.88-1.83.81-2.71-.4z" fill="#efb672"/><path d="m43.61 59.1c.32 0 .36-.08.24-.36s.15-.67.38-.93.32-.46.59-.1c0 0 .21 0 .23-.09.39-.88 1.09-.53 1.7-.39.09 0 .22.31.19.44-.2.73.12 1.45 0 2.21a14 14 0 0 0 .32 2.57c.13 1.18.39 2.36.43 3.54s.44 2.32.46 3.5a.41.41 0 0 0 0 .1c-1 .69.58.89.29 1.46a1.38 1.38 0 0 0 0 .5l-.43-.09c-.17 0-.35 0-.53-.06v.19a.56.56 0 0 0 .54.24h.26c0 .06-.1.16-.17.18-.84.31-1.63.89-2.6.62-.5-.14-1-.29-.81-1 .09-.34-.35 0-.48-.3a11.5 11.5 0 0 1 -.48-1.9c0-.06-.1-.11-.16-.16a1.13 1.13 0 0 1 -.25-.72c-.1-.73-.09-1.46-.25-2.18a.39.39 0 0 1 0-.15c.27-1.21-.25-2.38-.08-3.61a20.52 20.52 0 0 1 .33-3.12c.07-.2.06-.38.28-.39z" fill="#efb672"/><path d="m74.51 44.81c.56 1.12 1.21 2.2 1.68 3.36a26.56 26.56 0 0 1 1.3 4c.35 1.5.5 3 .73 4.57.08.53 0 1-.62 1.11-.88.12-2.15.5-2.42-.56-.4-1.5-1.15-3-1-4.62a7.08 7.08 0 0 0 -.5-2.25 30.3 30.3 0 0 0 -2.2-5.57 12.52 12.52 0 0 0 -4.63-4.73c-.3-.2-.1-.39-.11-.57s.22-.16.39-.16c1.51 0 2.48 1.08 3.64 1.77a23.58 23.58 0 0 1 2 1.47s.11-.07.14 0a4.45 4.45 0 0 1 1.6 2.18z" fill="#e07a2e"/><path d="m74.51 44.81a9.35 9.35 0 0 0 -1.77-2.19 14.77 14.77 0 0 0 -2-2.48c-.32-.36-.66-.69-1-1-.15-.18-.36-.41 0-.55a.12.12 0 0 0 .07-.11c-.17-.62.27-1.09 1.11-1.2 1.23-.17 3.71 1.24 4.37 2.31.53.85 1.35 1.51 1.9 2.35a14 14 0 0 1 1.82 3.43c.21.68-.79 1.08-1.43 1.37-1.6.71-2-.73-2.8-1.56z" fill="#efb672"/><path d="m43.61 59.1a13.2 13.2 0 0 0 -.34 2.83 19.92 19.92 0 0 0 0 2.89c.26 1.37-.1 2.8.41 4.14v.26c0 2 .75 3.76 1.14 5.65a.43.43 0 0 1 -.35 0 12.71 12.71 0 0 0 -1.62-.38.81.81 0 0 1 -.43-.28l-.2-.21c-.24-1.15-.53-2.29-.71-3.46a46.24 46.24 0 0 1 -.51-6.2 30.82 30.82 0 0 1 1.31-8c.14-.58.54-.41.85-.39a.57.57 0 0 1 .52.59c.02.88-.03 1.72-.07 2.56z" fill="#e07a2e"/><path d="m51.65 29.89a4.54 4.54 0 0 0 4 .88 3.38 3.38 0 0 0 2.18-1.08l.63-.44c.55.23.49.42.12.89a6.11 6.11 0 0 1 -10.94-2.43c-.16-.52.24-1 .57-1.36s.35 0 .45.21a8.34 8.34 0 0 0 2.99 3.33z" fill="#2b3c58"/><path d="m72.66 26.19c-.12-.21-.27-.35-.26-.48s.15-.27.24-.4a3.13 3.13 0 0 1 .23.54c.02.07-.1.15-.21.34z" fill="#fdf7f0"/><path d="m33.7 29.38s.08 0 .1 0c.23.14.54.19.59.52 0 0-.19.16-.22.14-.25-.15-.49-.32-.46-.67z" fill="#fcf2e7"/><path d="m63.51 23 .46.82s-.09.11-.11.1a.62.62 0 0 1 -.4-.6 1.45 1.45 0 0 1 .05-.32z" fill="#f9e7d0"/><path d="m96.07 65.46c-.12.09-.24.2-.27.19a.75.75 0 0 1 -.25-.28c0-.05.09-.15.14-.22z" fill="#f6d7b2"/><path d="m97.19 62.2c-.22.14-.33.26-.4.24s-.22-.15-.22-.23.14-.24.22-.24.21.12.4.23z" fill="#fbeddd"/><path d="m66.76 24-.06.11-.42-.4.15-.16z" fill="#fae9d6"/><path d="m39.23 26.81a1.62 1.62 0 0 1 -.3.07c-.21 0-.27-.17-.34-.32s.11-.06.14 0 .27.11.5.25z" fill="#fff"/><path d="m96.11 68 .37.55s0 0-.08.07c-.13-.14-.27-.29-.39-.44s.04-.12.1-.18z" fill="#f8e3ca"/><path d="m75.25 26.26-.3.25c0-.08-.13-.14-.13-.22s.1-.13.16-.13.15.05.27.1z" fill="#fff"/><path d="m96.23 66c-.16.06-.26.11-.37.14a.46.46 0 0 1 -.07-.16 1.77 1.77 0 0 1 .31-.15s.06.11.13.17z" fill="#f7dfc1"/><path d="m89.18 38.51c-.07-.12-.14-.18-.14-.24s.07-.11.11-.16.14.08.14.12a.86.86 0 0 1 -.11.28z" fill="#f8e0c3"/><path d="m73.81 26.26-.22.25c0-.05-.09-.11-.08-.13a2.46 2.46 0 0 1 .17-.27z" fill="#f7ddbd"/><path d="m76.3 27.23c0-.09-.1-.17-.09-.19a1.32 1.32 0 0 1 .22-.18s.09.1.08.12a2 2 0 0 1 -.21.25z" fill="#f8e2c9"/><path d="m37.57 26.77a.29.29 0 0 1 .19.4s-.11 0-.11 0 0-.29-.08-.43z" fill="#faebda"/><path d="m71.65 25.61-.22.28c-.05 0-.15-.12-.14-.13a.86.86 0 0 1 .18-.2s.09.03.18.05z" fill="#fbefe1"/><path d="m95.45 68.86-.15-.21s.1-.07.13-.06a.9.9 0 0 1 .2.14z" fill="#f8e6d0"/><path d="m95.53 56.53c-.12 0-.18.1-.22.08a.19.19 0 0 1 -.13-.13s.08-.11.1-.11a1.88 1.88 0 0 1 .25.16z" fill="#f7dfc2"/><path d="m97.48 61.93-.17.16-.15-.17s.09-.09.14-.09.1.06.18.1z" fill="#f7dcbc"/><path d="m31.7 31.48a2.9 2.9 0 0 1 .13.27s0 .06-.08.09a.93.93 0 0 1 -.16-.18s.05-.08.11-.18z" fill="#f9e7d0"/><path d="m36.93 27.69-.17-.24c.05 0 .12-.07.16-.05a.24.24 0 0 1 .11.13s-.03.08-.1.16z" fill="#fbeddd"/><path d="m28.88 64.19c0-.16 0-.48.11-.5.3-.06.22.28.33.42.62.8 1.2 1.63 1.85 2.4.33.39.31 1 .52 1.23a2.86 2.86 0 0 1 .57 1.52c.46 1.86.84 3.73 1.39 5.57a42.74 42.74 0 0 0 3.84 8.92c.28.5.67.94 1 1.43a.7.7 0 0 1 .11.56c-.12.23-.38.18-.59 0a10 10 0 0 1 -2.67-3.28 49.11 49.11 0 0 1 -2.4-4.61 40.42 40.42 0 0 1 -2.77-7.4c-.1-.41-.22-.8-.34-1.2 0-.15-.12-.3.11-.37s.32-.21.26-.39-.26-.12-.4 0a2 2 0 0 1 -.3-.56c-.24-1.23-.42-2.47-.62-3.74z" fill="#d86128"/><path d="m42.36 74.24 2.4.63a53.19 53.19 0 0 0 3.87 10.88 24.62 24.62 0 0 0 4.62 6.84c.15.16.41.33.22.56a.59.59 0 0 1 -.72.11 10.45 10.45 0 0 1 -3.22-2.84 17.41 17.41 0 0 1 -2.69-4c-.92-1.87-1.75-3.77-2.59-5.68a42.39 42.39 0 0 1 -1.74-5.54 8.64 8.64 0 0 1 -.15-.96z" fill="#d86128"/><path d="m56.76 101.7-.55.4c-.08 0-.27 0-.18-.1a4.66 4.66 0 0 1 .61-.65z" fill="#76564c"/><path d="m61.56 102h-.22l-.4-.51c.3.05.89-.23.62.51z" fill="#6c524e"/><path d="m55.66 102c0-.12-.06-.19 0-.22s.27-.32.42-.48c0 0 .07.11.06.12z" fill="#4f4852"/><path d="m33.88 95.1-.14.19c-.08-.14-.17-.27-.24-.41s.07-.11.11-.16z" fill="#63504f"/><path d="m24 82.41c-.13.11-.2.21-.29.23s-.14-.12-.21-.18a1.17 1.17 0 0 1 .28-.17s.06.05.22.12z" fill="#f6dbc3"/><path d="m66.79 101.16-.12.11c0-.15-.22-.32 0-.45a1.72 1.72 0 0 1 .24 0z" fill="#644f50"/><path d="m60.94 101.48c-.19 0-.27 0-.13-.22a.56.56 0 0 1 .24-.15c.14.17 0 .26-.11.37z" fill="#6c524e"/><path d="m21.89 48.84c.11-.08.16-.14.22-.14s.11 0 .17.07-.08.16-.13.18-.15-.06-.26-.11z" fill="#e99735"/><path d="m69 95.09c-.11.06-.19.13-.22.11a1 1 0 0 1 -.19-.21s.09-.07.11-.06a2.31 2.31 0 0 1 .3.16z" fill="#f5d9c0"/><path d="m69.63 99.86c.09.09.16.14.18.21s-.06.09-.1.13a.9.9 0 0 1 -.18-.16s.05-.04.1-.18z" fill="#494653"/><path d="m26.42 87.27a.91.91 0 0 1 -.23.08s-.1-.1-.09-.13.08-.12.12-.18z" fill="#f7e1ce"/><path d="m20 73.71h.33v.12l-.33-.13z" fill="#fff"/><path d="m22.92 80c-.12.06-.17.11-.22.1s-.09-.06-.14-.09.09-.11.14-.12.1.04.22.11z" fill="#f8e5d4"/><path d="m36.7 72.13a.58.58 0 0 1 -.2.11s-.07 0-.11-.06a.72.72 0 0 1 .15-.11s.08.03.16.06z" fill="#e99735"/><path d="m30.68 93.45.14-.21.12.14-.27.06z" fill="#fff"/><path d="m70.36 90.53c-.09.07-.15.15-.21.15s-.13-.08-.2-.12a2.08 2.08 0 0 1 .21-.21s.11.1.2.18z" fill="#bb7238"/><path d="m32.75 105.47-.16-.21c.07 0 .14-.1.21-.1s.11.09.17.14z" fill="#999fad"/><path d="m70.76 86.65-.27.24s-.1-.12-.09-.14a.49.49 0 0 1 .17-.18s.09.04.19.08z" fill="#a35330"/><path d="m89.75 106.32a1.88 1.88 0 0 1 -.29.16s-.11-.08-.11-.09a.65.65 0 0 1 .15-.18s.09.03.25.11z" fill="#a0a7b4"/><path d="m86.84 106.29c-.08.08-.12.14-.18.15s-.08 0-.12-.08.07-.12.12-.15.1.04.18.08z" fill="#848c9d"/><path d="m47.23 106.23-.22-.18s.09-.11.12-.1a1.06 1.06 0 0 1 .21.11z" fill="#bec2cb"/><path d="m18.59 105.15a1.84 1.84 0 0 1 .28-.18.23.23 0 0 1 .16 0c-.06.06-.11.13-.17.18s-.11.02-.27 0z" fill="#8790a0"/><path d="m78.93 106.45a1.4 1.4 0 0 1 .17.2s0 .06-.08.1l-.17-.17s.03-.07.08-.13z" fill="#b0b5c0"/><path d="m12.13 105-.18-.08a1 1 0 0 1 .24-.05.41.41 0 0 1 .18.05z" fill="#dddee2"/><path d="m64.33 107.28s-.06-.11 0-.13a.32.32 0 0 1 .13-.1s0 .09 0 .12a.44.44 0 0 1 -.13.11z" fill="#fff"/><path d="m77.11 90c.59 1.59 1 3.28 2.18 4.58.38.41.69.87 1 1.3.11.13.3.25.17.43a.56.56 0 0 1 -.41.15c-1.34 0-2.19-.91-3-1.73a11.32 11.32 0 0 1 -2.8-5.66c0-.22.19-.45 0-.63a23.09 23.09 0 0 1 0-2.76 12.48 12.48 0 0 1 1-4.63 10.51 10.51 0 0 1 4.39-4.37.54.54 0 0 1 .3-.08c.51.09 1.07-.27 1.54.17-.38.28-.76.55-1.13.85s-.58.53-.88.8c-.15.59-.68.93-.91 1.48a7.48 7.48 0 0 0 -.56 1.23.68.68 0 0 0 .2.75.23.23 0 0 1 -.15.42.68.68 0 0 0 -.53 1c.06.13.15.23.22.35a.29.29 0 0 1 0 .34c-.09.13-.2.11-.31 0-.31-.2-.3 0-.33.24-.08.56 0 1.14-.08 1.7 0 .15.09.37-.18.4-.19.33.07.81-.35 1.07.68.75.28 1.77.62 2.6z" fill="#e05126"/><path d="m76.81 86.35c0-.81.1-1.62.17-2.43 0-.12 0-.4.26-.25s.2.39.37.24-.12-.33-.21-.42c-.54-.55.26-1 .09-1.52 0 0 .15-.12.25 0s.2.35.44.19c-.11-.12-.2-.26-.32-.37-.39-.31 0-.66 0-.9a5.83 5.83 0 0 1 1.51-2.46c.64.14 1.14-.36 1.86-.24s.67.67.62.83c-.73 2.55-1.79 5-2 7.69 0 .58-.67.4-.81.37-.58-.12-1.08.35-1.68.11-.36-.19-.36-.57-.55-.84z" fill="#f19b53"/><path d="m85 90.11a15.88 15.88 0 0 0 .43 3.82 11.54 11.54 0 0 0 1.76 4.47c0 .09.09.28 0 .32a.47.47 0 0 1 -.36.09c-1.17-.33-1.71-1.35-2.31-2.25a11.69 11.69 0 0 1 -1.86-6.25c0-.86 0-1.73 0-2.58 0-.69.34-1.37.37-2 0-1.06.79-1 1.43-1s.89.63.65 1.21c-.48 1.14-.08 2.33-.27 3.48a2.78 2.78 0 0 0 .16.69z" fill="#de4d26"/><path d="m108.63 80.4c0-.64-.88-1.07-.39-1.81-.61.14-.59-.41-.74-.72a5.57 5.57 0 0 1 -.28-1 3.94 3.94 0 0 1 1.64-.15 5.11 5.11 0 0 1 2.76 2.74 6.77 6.77 0 0 1 .8 2.28 7.74 7.74 0 0 1 .22 3 1.07 1.07 0 0 1 -1 .68 2.77 2.77 0 0 1 -1.3-.48c-1.14-.44-.72-1.49-1.06-2.23a11.85 11.85 0 0 1 -.54-1.81.43.43 0 0 1 -.11-.5z" fill="#f19b53"/><path d="m108.63 80.4.11.51a8.48 8.48 0 0 1 -.46 4c-.09.3-.6.53-1.09.54s-.56-.52-.54-.59a12.57 12.57 0 0 0 0-2.81 5.26 5.26 0 0 0 -1.42-3.46c-.09-.11-.3-.22-.14-.38a.87.87 0 0 1 .84-.3c1.21.23 1.77 1.21 2.42 2.09.07.14.18.27.28.4z" fill="#e15326"/><path d="m111.91 75.79-.15.34a1.74 1.74 0 0 1 -.13-.36c0-.11 0-.28.14-.26s.09.18.14.28z" fill="#fcebdc"/><path d="m114.17 83.76-.17-.05.47-.37.09.06z" fill="#fff"/><path d="m99.1 70.65-.26.29s-.08-.11-.06-.14a2.84 2.84 0 0 1 .16-.35z" fill="#f8d0ae"/><path d="m84.89 69.76c.06.1.13.17.11.2a.4.4 0 0 1 -.15.17s-.1-.1-.1-.13a1.75 1.75 0 0 1 .14-.24z" fill="#e99735"/><path d="m89.71 71c.07.1.14.17.12.19a.64.64 0 0 1 -.15.13s-.08-.09-.08-.13a1.07 1.07 0 0 1 .11-.19z" fill="#5d3535"/><path d="m114.38 80.84-.25.11v-.12h.3z" fill="#fff"/><path d="m105 98.19a1.27 1.27 0 0 1 .27-.11s.08.09.07.11a.22.22 0 0 1 -.14.13s-.08-.06-.2-.13z" fill="#664643"/><path d="m108 96.91a1 1 0 0 1 -.24.08.65.65 0 0 1 -.13 0s.07-.12.11-.14.08 0 .26.06z" fill="#f4b68e"/><path d="m56.45 23.22c-.07.12-.13.24-.3.14a.16.16 0 0 1 0-.13c.1-.17.23-.06.34 0z" fill="#784848"/><path d="m44.08 65.39a.94.94 0 0 1 -.26.17s-.1-.09-.16-.14l.24-.23z" fill="#e07a2e"/><path d="m48.16 27.94c-.08.06-.13.12-.16.12a.72.72 0 0 1 -.19-.11s.09-.11.15-.12.1.05.2.11z" fill="#d48c38"/><path d="m76.28 79.9-.09.13s-.09 0-.09-.08 0-.08.05-.12z" fill="#e87024"/></svg>