<svg width="1080px" height="1080px" viewBox="-48.5 0 1080 1080" id="Capa_1" data-name="Capa 1" xmlns="http://www.w3.org/2000/svg"><defs><style>.cls-1{fill:#94b7bd;}.cls-2{fill:#fd6769;}</style></defs><title>fruitsandvegetables</title><path id="Trazado_434" data-name="Trazado 434" class="cls-1" d="M642.73,350.06c-48.44-41.87-104.43-60.68-147.87-59-54.05,17.95-70.17,90.72-84.11,193.59-21.69,94.72-34.87,198.09-53.65,304.16-5.46,31-11.43,62.12-18.18,93.38-2,9.28,27.66,15.43,36.25,11.39,49.05-61.51,52.73-71.38,109.15-172.44,43.22-61.92,79.08-136.56,109.91-202.59C639,446.66,648.3,385.92,642.73,350.06Z"/><path id="Trazado_435" data-name="Trazado 435" class="cls-2" d="M557.26,300.79l-3.54-52.72a12.71,12.71,0,0,1,2.64-8.65L571,220.57s23-29.78,34.57-32c2.59-.51,15.61-5.06,16.79-2.7,3.07,6.15-13,26.13-14.6,32.8-3.79,15.57-4.69,48.85-12.4,62.9a96.92,96.92,0,0,1-17.29,16l-.66,12.57Z"/></svg>