<svg width="1080px" height="1080px" viewBox="-48.5 0 1080 1080" id="Capa_1" data-name="Capa 1" xmlns="http://www.w3.org/2000/svg"><defs><style>.cls-1{fill:#f7ffde;}.cls-2{fill:#fdce51;}.cls-3{fill:#94b7bd;}.cls-4{fill:#fd6769;}.cls-5{fill:#fed9db;}.cls-6{fill:#100174;}</style></defs><title>fruitsandvegetables</title><path class="cls-1" d="M762.63,303.82,579.35,245,494.1,273,349.18,373.85s-125.75-25.21-157.71,0-63.94,193.26-63.94,193.26L245.76,661.4l254.73-21.46,176.06,29.95,151.71,18.55,50.21-286Z"/><path id="Trazado_404" data-name="Trazado 404" class="cls-2" d="M668.59,453.72c.35-4.41-1.45-9.45-5.25-11-1.33-.54-3.64.31-5.19.44A19.87,19.87,0,0,0,647,448c-11,9.06-27.1,28.1-41.41,35.45s-36.62,20-51.62,16.51a279.51,279.51,0,0,1-30.59-9.48l-.43-.19c-1.4-.69-10.29-4.88-16.07-3a12.18,12.18,0,0,0-5.59,2.79,6.15,6.15,0,0,0-1.79,5.36,38.5,38.5,0,0,0,15.39,21.21c14.1,9.37,34,23.83,44.41,26s31.33,2.47,44.37-4.48A141.77,141.77,0,0,0,645.45,504c11.89-14.91,12.15-21.54,18.39-33.64A43.85,43.85,0,0,0,668.59,453.72Z"/><path id="Trazado_405" data-name="Trazado 405" d="M662.79,445.09c-5.15,13.08-10.48,24.46-19.13,35.67-8.46,11-20,18.61-32.07,25a107.75,107.75,0,0,1-33.68,12.09c-12.5,1.93-24.83-.32-36.63-4.6-13.81-5-26.88-13.35-39.33-21a6.89,6.89,0,0,0-1,1.43c21.93,13.51,45.79,30.37,72.67,28.15a99.63,99.63,0,0,0,35.69-11c12.26-6.1,24.08-13.37,33.38-23.57,11.06-12.14,16.14-28,22.09-43.1a2.09,2.09,0,0,0-1.3-.2Z"/><path id="Trazado_406" data-name="Trazado 406" class="cls-2" d="M675.34,450.32c-2.94-4.65-8.49-8.33-13.44-7-1.73.46-3.39,3-4.83,4.3a24.8,24.8,0,0,0-7.57,13.13c-4.18,17.22-6,48.21-14.81,66.21s-21.53,47.28-39.11,55A347,347,0,0,1,558,595.25a5.07,5.07,0,0,1-.56.13c-1.92.36-13.9,2.82-18.28,9a15.13,15.13,0,0,0-3.49,6.95c-.09,3.09.57,5.49,2.21,6.69a48.09,48.09,0,0,0,31.16,9.65c21-1.19,51.64-1.62,63.68-7.19s33.06-20.91,40.87-37.56,15.42-41.54,16.15-65.26-4-30.52-6.78-47.23A54.43,54.43,0,0,0,675.34,450.32Z"/><path id="Trazado_407" data-name="Trazado 407" d="M662.89,456.13c5.72,26.3,4.88,56.71-3.88,82.18-9.34,27.12-28.74,51.65-55.45,63.7-14.65,6.61-52,9.23-67.72,12.14l.24,1.37c13.2,1.32,51.95-3.68,65.74-9.15a95.07,95.07,0,0,0,35.77-25c19.38-21.5,29-51.69,31.7-80.25,1.49-15.63-.8-30-1.76-45.69a46.29,46.29,0,0,0-3.33-12.55l-2.29.39Z"/><path id="Trazado_408" data-name="Trazado 408" d="M661.91,443.29l-6.53-10.72,7.46-4.8,11.31,4-9.94,11.12Z"/><path id="Trazado_434" data-name="Trazado 434" class="cls-3" d="M417.53,402.48c-24.69,3.4-44.58,14.94-55.25,28.08-8.65,20.42,8.49,43.83,35,74.35,22.12,30.68,49,61.11,75.15,93.86,7.65,9.55,15.23,19.31,22.64,29.32,2.19,3,11.62-4.12,12.65-7.68-5.38-30.15-7.32-33.76-22.38-76.23-7-28.56-19.61-58.23-31-84.22C444.83,428.38,429.45,410.07,417.53,402.48Z"/><path id="Trazado_435" data-name="Trazado 435" class="cls-4" d="M381.16,414.81l-16.33-12.52a4.94,4.94,0,0,1-1.85-3l-1.76-9.11s-2.79-14.39-.48-18.35c.51-.88,2.53-5.86,3.52-5.6,2.59.68,4.31,10.51,5.84,12.7,3.58,5.11,13.08,13.93,15.21,19.79a38.11,38.11,0,0,1,.24,9.18l3.5,3.42Z"/><path id="Trazado_427" data-name="Trazado 427" class="cls-5" d="M479.32,527.32c.3-29.21,9.94-46.58,55.31-60.16a46.46,46.46,0,0,1,30.1,1.5c44.68,20.16,74.7,40.43,70.35,73.75-2.42,18.54-15.46,41.32-29.73,52.65-15.54,12.32-33.25,14.2-55.67,12-4.72-.45-10.63-.34-15-1.5C498.79,596.15,479,563.45,479.32,527.32Z"/><path id="Trazado_428" data-name="Trazado 428" class="cls-3" d="M598.58,470.91s6,0,22.57-25.58c-9,7.52-38.37,11.29-38.37,11.29A194.71,194.71,0,0,1,588,422.76c-6.87,0-15,6-19,19.73l-2,10.36s-42.13-12-49.65-1.5c15,1.5,30.09,10.53,30.09,10.53-33,7.68-36.81,18.53-40.62,21.07,19.56-9,12-9,50.41-6.78,4.89,12.23,1.5,27.09-3.89,38.54a42.37,42.37,0,0,0,.88,11.12c14.3-9.78,28.59-43.64,28.59-43.64s13.54,4.52,37.61,33.11C624.91,498.75,598.58,470.91,598.58,470.91Z"/><path id="Trazado_436" data-name="Trazado 436" class="cls-2" d="M355.26,480.61c-6,32.14-40.08,84.79-6.75,128.37,16.12,21.07,73.16,27,73.16,27s19.87-2.25,31.54,4.76a30.2,30.2,0,0,0,6-3l-3.14-20.17s15.47-54-6.55-83.66c-10.4-20.79-66.72-45.35-73.27-48.15a1.74,1.74,0,0,1-.9-.87c-.67-1.45-2.41-5-3.58-5.74C368.32,477.16,358.4,478,355.26,480.61Z"/><path id="Trazado_437" data-name="Trazado 437" class="cls-4" d="M323.46,432.54c3,6,6.41,25.31,6.41,25.31l16.51,4.65s13.71,15.75,13.35,22.66c1.31.75,2.11-.28,6,0-2.05-5.73-.49-13.24,1-17.74,2.17-6.34,22.08-14.56,22.08-14.56l6.8-22.81s-18.6,1.24-22.9,5.23c-5,4.64-7,14.69-14,23.35a41.75,41.75,0,0,0-11.28-19.94C343.05,434.41,329.48,432.59,323.46,432.54Z"/><polygon class="cls-6" points="828.54 383.79 814.59 384.53 757.72 462.35 700.85 537.18 675.93 556.64 339.64 556.64 241.88 426.78 201.39 372.99 188.28 374.95 262.35 468.34 331.19 575.27 331.19 835 676.9 835 676.9 585.21 732.29 511.64 786.48 439.66 828.54 383.79"/><rect class="cls-3" x="397.66" y="640.45" width="221.49" height="95.78"/></svg>