<svg width="1080px" height="1080px" viewBox="-48.5 0 1080 1080" id="Capa_1" data-name="Capa 1" xmlns="http://www.w3.org/2000/svg"><defs><style>.cls-1{fill:#fd6769;}</style></defs><title>fruitsandvegetables</title><path id="Trazado_409" data-name="Trazado 409" class="cls-1" d="M198,757.18c0-22.9.73-63.39,10.38-82.52a141.19,141.19,0,0,1,126.32-77.75c38.91,0,64,17,89.56,42.42,25.75,25.61,37.71,18.85,42.42,89.56,1.68,25.28-13.65,59.74-23.93,83.83a38,38,0,0,1-13.72,16.55c-31.56,21.36-49.75,41-94.34,41-40.13,0-63.82-6.15-89.56-33C220.82,811.91,216.89,794.89,198,757.18Z"/><path id="Trazado_410" data-name="Trazado 410" class="cls-1" d="M671.84,773.74c-22.9,0-63.38-.73-82.51-10.39A141.21,141.21,0,0,1,511.57,637c0-38.92,17-64,42.42-89.57,25.61-25.75,18.85-37.71,89.56-42.42,25.29-1.68,59.74,13.66,83.83,23.93a38,38,0,0,1,16.55,13.72c21.37,31.55,41,49.75,41,94.34,0,40.13-6.14,63.81-33,89.56C726.57,751,709.55,754.88,671.84,773.74Z"/><path id="Trazado_411" data-name="Trazado 411" d="M596.64,520.72,591,511.57c-22.43-36-47.83-76.81-79-109.39-6.34-6.61-12.41-12.81-18.29-18.78a505.1,505.1,0,0,1-59.47-68.61c.74-1.28,1.58-2.67,2.49-4.16,8.72-14.37,23.31-38.42,9.47-67.42-12.37-25.91-30.7-37.89-49.05-32.06l-1.31.6a23,23,0,0,0-10.5,14.95c-3.85,16.76,6.6,40.75,19.51,63.35a338.26,338.26,0,0,0-61.37-31.12,32.66,32.66,0,0,0-16-.24l-.6.1a22.09,22.09,0,0,0-17.42,16.5,25.11,25.11,0,0,0,8,20,102.09,102.09,0,0,0,75.05,31.43,107.78,107.78,0,0,0,24.85-2.91c-12.82,30.74-25.76,65.6-38.54,103.93-26.43,79.3-52,162.94-50.91,239.1a5.91,5.91,0,0,0,6,5.77h.09c.89-.24.93-1.73.89-5-1.1-74.31,29-157.87,55.08-236.19C402.72,393,415.72,358,428.57,327.24a541.45,541.45,0,0,0,56.71,64.42c5.84,6,11.89,12.12,18.18,18.72,30.35,31.69,55.42,71.95,77.54,107.47l5.7,9.15c22,35.26,27.28,42.11,35.64,74.66.81,3.13,3.91,7.88,7,7.08h0c3.18-.79,3.2-3.9,2.38-7.08C623,567.64,619.17,556.76,596.64,520.72ZM396.74,229.31a11.23,11.23,0,0,1,4.61-7.16h0c17.24-4.76,29.57,16.6,34.12,26.11,10.94,22.92-.14,41.76-8.54,55.63v-.05C418.32,290.33,392.17,249.2,396.74,229.31Zm-70.75,58c-3.84-4.19-5.51-7.48-5.07-10a10.46,10.46,0,0,1,7.69-6.86l.61-.1a40.52,40.52,0,0,1,6.32-.74,16.35,16.35,0,0,1,4.66.71c16.41,4.57,67.39,33.51,71.94,39.76.68,1.14,1.15,1.94,1.47,2.52A92.58,92.58,0,0,1,326,287.28Z"/></svg>