<svg width="1080px" height="1080px" viewBox="-48.5 0 1080 1080" id="Capa_1" data-name="Capa 1" xmlns="http://www.w3.org/2000/svg"><defs><style>.cls-1{fill:#fed9db;}.cls-2{fill:#0a000e;}.cls-2,.cls-3{stroke:#676767;stroke-width:0.3px;}.cls-3{fill:none;stroke-miterlimit:10;}</style></defs><title>fruitsandvegetables</title><path id="Trazado_438" data-name="Trazado 438" class="cls-1" d="M425.39,270.13c-14.55-6-33.6-5.34-43,5.89-3.28,3.92-2.9,12.69-4.15,18a71,71,0,0,0,4.15,43.14c18.83,47.06,58.64,113.58,68.06,170.07s28.24,146.2,0,193.27c-26.21,43.68-53.28,95.85-58.08,101.91a16.12,16.12,0,0,1-1.1,1.25c-3.88,4-27.7,29.61-27.7,51.23a43.22,43.22,0,0,0,3.39,22c4.91,7.33,10.43,11.85,16.25,11.9,17.43.14,61.21,8.89,95.53-18.59,47.07-37.66,99-103.75,117.85-136.7s42.42-99.07,33-150.84-21.27-123.12-58.91-179.6-53-73.69-87.22-108C465.84,277.51,440.25,276.22,425.39,270.13Z"/><path id="Trazado_439" data-name="Trazado 439" class="cls-2" d="M365.62,266.87c4.72,0,15.08,12.5,15.08,12.5l17.92-7.79V252.72Z"/><path id="Trazado_440" data-name="Trazado 440" class="cls-2" d="M364.53,868.64l10.52,17-8.32,10.14-15.25-20.33Z"/><path id="Trazado_441" data-name="Trazado 441" class="cls-3" d="M389.5,311.85,398,327.06"/><path id="Trazado_442" data-name="Trazado 442" class="cls-3" d="M410.09,341.46l6.33,12.08"/><path id="Trazado_443" data-name="Trazado 443" class="cls-3" d="M424.91,367.55l5.1,10.91"/><path id="Trazado_444" data-name="Trazado 444" class="cls-3" d="M441.31,398.85l6,10.43"/><path id="Trazado_445" data-name="Trazado 445" class="cls-3" d="M455.69,425.39a17.5,17.5,0,0,1,2.95,11.18"/><path id="Trazado_446" data-name="Trazado 446" class="cls-3" d="M461.81,451l2.82,9.63"/><path id="Trazado_447" data-name="Trazado 447" class="cls-3" d="M471.1,475.88A86.11,86.11,0,0,0,473,491.14"/><path id="Trazado_448" data-name="Trazado 448" class="cls-3" d="M480.25,508a42.19,42.19,0,0,0,1.22,9.62"/><path id="Trazado_449" data-name="Trazado 449" class="cls-3" d="M482.67,530.84l1.5,8.44"/><path id="Trazado_450" data-name="Trazado 450" class="cls-3" d="M492.69,562.94a72.47,72.47,0,0,1,.81,12.83"/><path id="Trazado_451" data-name="Trazado 451" class="cls-3" d="M493.06,595l1.66,15.24"/><path id="Trazado_452" data-name="Trazado 452" class="cls-3" d="M495.54,632.34q-.06,7-.54,14"/><path id="Trazado_453" data-name="Trazado 453" class="cls-3" d="M491.16,669.29a34.68,34.68,0,0,0-4.73,15.61"/><path id="Trazado_454" data-name="Trazado 454" class="cls-3" d="M471.44,705.35a36.36,36.36,0,0,1-3,9.93"/><path id="Trazado_455" data-name="Trazado 455" class="cls-3" d="M456.29,738.7A100.26,100.26,0,0,1,448,755"/><path id="Trazado_456" data-name="Trazado 456" class="cls-3" d="M438.14,771.55a41,41,0,0,1-6.46,11.6"/><path id="Trazado_457" data-name="Trazado 457" class="cls-3" d="M418.11,802.87a114,114,0,0,1-9.75,13.93"/><path id="Trazado_458" data-name="Trazado 458" class="cls-3" d="M397.36,829.85l-10.45,12"/><path id="Trazado_459" data-name="Trazado 459" class="cls-3" d="M388.37,868.22l4.41-7.22"/><path id="Trazado_460" data-name="Trazado 460" class="cls-3" d="M413.22,851.76,423.46,840a9.47,9.47,0,0,0,2.65-4.64"/><path id="Trazado_461" data-name="Trazado 461" class="cls-3" d="M438.11,819.27A47.65,47.65,0,0,0,444.5,808"/><path id="Trazado_462" data-name="Trazado 462" class="cls-3" d="M458.47,791.85a13.45,13.45,0,0,0,6.73-9"/><path id="Trazado_463" data-name="Trazado 463" class="cls-3" d="M479.79,764.27a20.49,20.49,0,0,0,4.24-7.92"/><path id="Trazado_464" data-name="Trazado 464" class="cls-3" d="M502,716.22l-8.49,19.63"/><path id="Trazado_465" data-name="Trazado 465" class="cls-3" d="M519.15,684.88a56.78,56.78,0,0,1-4.7,10.09"/><path id="Trazado_466" data-name="Trazado 466" class="cls-3" d="M528.42,646.38a51.51,51.51,0,0,0-1.27,8.82"/><path id="Trazado_467" data-name="Trazado 467" class="cls-3" d="M526.75,609.09a37.46,37.46,0,0,1,1.71,10.82"/><path id="Trazado_468" data-name="Trazado 468" class="cls-3" d="M518.32,566.15l.71,8.43"/><path id="Trazado_469" data-name="Trazado 469" class="cls-3" d="M514,528.82l2,13.25"/><path id="Trazado_470" data-name="Trazado 470" class="cls-3" d="M507.51,488q.92,6,1.31,12"/><path id="Trazado_471" data-name="Trazado 471" class="cls-3" d="M494.5,447.13l5,15.2"/><path id="Trazado_472" data-name="Trazado 472" class="cls-3" d="M484.24,424.13a61.33,61.33,0,0,0-7.75-14.05"/><path id="Trazado_473" data-name="Trazado 473" class="cls-3" d="M457.84,376a32.93,32.93,0,0,0,5.07,9.7"/><path id="Trazado_474" data-name="Trazado 474" class="cls-3" d="M442.14,337.11a88.61,88.61,0,0,1,5.63,10.42"/><path id="Trazado_475" data-name="Trazado 475" class="cls-3" d="M421.71,314.2a28.55,28.55,0,0,0,1.9,7.27"/><path id="Trazado_476" data-name="Trazado 476" class="cls-3" d="M398.79,285.71l5.21,8.43"/><path id="Trazado_477" data-name="Trazado 477" class="cls-3" d="M426.09,284.52l9.29,8"/><path id="Trazado_478" data-name="Trazado 478" class="cls-3" d="M452.35,310.44A38.59,38.59,0,0,0,462.66,321"/><path id="Trazado_479" data-name="Trazado 479" class="cls-3" d="M477.1,342.28A131.43,131.43,0,0,0,486,354.47"/><path id="Trazado_480" data-name="Trazado 480" class="cls-3" d="M497.27,374.45a73.23,73.23,0,0,1,5.79,10.48"/><path id="Trazado_481" data-name="Trazado 481" class="cls-3" d="M513.49,405.51a111.85,111.85,0,0,1,8.57,15.15"/><path id="Trazado_482" data-name="Trazado 482" class="cls-3" d="M531,438.45a66,66,0,0,1,4.58,15.31"/><path id="Trazado_483" data-name="Trazado 483" class="cls-3" d="M539,471A27.62,27.62,0,0,1,541,483.39"/><path id="Trazado_484" data-name="Trazado 484" class="cls-3" d="M546.42,505.17a17.17,17.17,0,0,1,1.47,11.12"/><path id="Trazado_485" data-name="Trazado 485" class="cls-3" d="M553.4,540.26l2.42,16.94"/><path id="Trazado_486" data-name="Trazado 486" class="cls-3" d="M560.19,583.13a66.42,66.42,0,0,1-.2,16.37"/><path id="Trazado_487" data-name="Trazado 487" class="cls-3" d="M559.3,625.29a17,17,0,0,1,.26,12.73"/><path id="Trazado_488" data-name="Trazado 488" class="cls-3" d="M557.73,661.88a81.5,81.5,0,0,1-7.27,18"/><path id="Trazado_489" data-name="Trazado 489" class="cls-3" d="M542.55,703.37a130.81,130.81,0,0,1-10.22,15.81"/><path id="Trazado_490" data-name="Trazado 490" class="cls-3" d="M523.72,742a132.42,132.42,0,0,0-9.64,12"/><path id="Trazado_491" data-name="Trazado 491" class="cls-3" d="M495.23,792.15a34.35,34.35,0,0,0,11.23-13.94"/><path id="Trazado_492" data-name="Trazado 492" class="cls-3" d="M483.11,810.48a46.07,46.07,0,0,1-14,14.12"/><path id="Trazado_493" data-name="Trazado 493" class="cls-3" d="M454.51,840.89A88.93,88.93,0,0,1,439.36,855"/><path id="Trazado_494" data-name="Trazado 494" class="cls-3" d="M425.41,867.45l-10.83,9.23"/><path id="Trazado_495" data-name="Trazado 495" class="cls-3" d="M478.75,851.46a40.92,40.92,0,0,0,12-12.53"/><path id="Trazado_496" data-name="Trazado 496" class="cls-3" d="M515.31,816.11a27.69,27.69,0,0,0,6.63-8.27"/><path id="Trazado_497" data-name="Trazado 497" class="cls-3" d="M548.76,769.83,542,780.28"/><path id="Trazado_498" data-name="Trazado 498" class="cls-3" d="M567.62,736.83l-6.78,10.45"/><path id="Trazado_499" data-name="Trazado 499" class="cls-3" d="M584.11,698.52a98.19,98.19,0,0,1-5.3,15.75"/><path id="Trazado_500" data-name="Trazado 500" class="cls-3" d="M597.37,656.71q-2,7-3.46,14.12"/><path id="Trazado_501" data-name="Trazado 501" class="cls-3" d="M597,598.64q-.4,12.24.1,24.47"/><path id="Trazado_502" data-name="Trazado 502" class="cls-3" d="M594.19,554.51l.65,13.33"/><path id="Trazado_503" data-name="Trazado 503" class="cls-3" d="M583.57,511.3A60.31,60.31,0,0,1,588,522.1"/><path id="Trazado_504" data-name="Trazado 504" class="cls-3" d="M577,473.86l3.64,10"/><path id="Trazado_505" data-name="Trazado 505" class="cls-3" d="M558.84,427.89a114,114,0,0,0,6.29,14.38"/><path id="Trazado_506" data-name="Trazado 506" class="cls-3" d="M536.5,388.84a51,51,0,0,1,6.86,10.8"/><path id="Trazado_507" data-name="Trazado 507" class="cls-3" d="M512.85,356.73l5.62,6.42"/><path id="Trazado_508" data-name="Trazado 508" class="cls-3" d="M484.57,323.73l5.62,6.42"/></svg>