<svg width="1080px" height="1080px" viewBox="-48.5 0 1080 1080" id="Capa_1" data-name="Capa 1" xmlns="http://www.w3.org/2000/svg"><defs><style>.cls-1{fill:#fed9db;}.cls-2{fill:#94b7bd;}</style></defs><title>fruitsandvegetables</title><path id="Trazado_412" data-name="Trazado 412" class="cls-1" d="M574.71,538.66c-1.77-20.16.7-18.54,11.21-34.1,13.82-20.47,39.39-55.5,65.92-57.82,34.15-3,33.28,1.82,63.1,18.13,10.36,5.68,27.73,46.47,28.82,59,2,22.25-10.51,42.49-23.24,58.81-14,17.93-29.45,31-53.89,33.11a68.82,68.82,0,0,1-43.49-10.39C599.33,592.17,577.26,567.83,574.71,538.66Z"/><path id="Trazado_413" data-name="Trazado 413" class="cls-1" d="M400.3,576.37c-1.77-20.16.69-18.54,11.21-34.1,13.82-20.47,39.39-55.5,65.92-57.82,34.15-3,33.28,1.82,63.1,18.14,10.36,5.67,27.72,46.46,28.82,59,1.94,22.25-10.52,42.49-23.25,58.81-14,17.94-29.45,31-53.89,33.11a68.77,68.77,0,0,1-43.49-10.39C424.91,629.88,402.85,605.54,400.3,576.37Z"/><path id="Trazado_414" data-name="Trazado 414" class="cls-1" d="M459.29,855.55c-1.54-17.51.6-16.11,9.73-29.62,12-17.77,34.21-48.19,57.25-50.2,29.66-2.6,28.9,1.58,54.8,15.75,9,4.93,24.08,40.35,25,51.23,1.69,19.32-9.14,36.9-20.19,51.08-12.12,15.57-25.57,26.89-46.8,28.75a59.77,59.77,0,0,1-37.77-9C480.65,902,461.5,880.89,459.29,855.55Z"/><path id="Trazado_415" data-name="Trazado 415" class="cls-1" d="M374.37,536.93c15.5,13,12.62,13.62,16.19,32.05,4.7,24.24,11.39,67.1-5.73,87.5-22,26.25-24.84,22.25-57.45,31.79-11.33,3.32-52.45-13.25-62.09-21.34-17.11-14.35-22.61-37.48-25.15-58-2.8-22.57-1.08-42.72,14.69-61.51A68.78,68.78,0,0,1,292.93,524C319.13,516.52,351.94,518.15,374.37,536.93Z"/><path id="Trazado_416" data-name="Trazado 416" class="cls-1" d="M517.49,726.55c1.77,20.17-.69,18.55-11.21,34.11-13.82,20.47-39.39,55.5-65.92,57.81-34.15,3-33.28-1.82-63.1-18.13-10.36-5.67-27.72-46.46-28.82-59-1.94-22.25,10.51-42.5,23.25-58.82,14-17.93,29.44-31,53.88-33.1a68.86,68.86,0,0,1,43.5,10.38C492.88,673,514.94,697.37,517.49,726.55Z"/><path id="Trazado_417" data-name="Trazado 417" class="cls-1" d="M661.93,635.93c15.5,13,12.61,13.61,16.18,32,4.7,24.24,11.39,67.1-5.72,87.5-22,26.25-24.85,22.25-57.45,31.79-11.33,3.32-52.45-13.24-62.09-21.33-17.11-14.36-22.61-37.49-25.16-58-2.79-22.57-1.07-42.72,14.7-61.51A68.84,68.84,0,0,1,580.49,623C606.68,615.51,639.49,617.14,661.93,635.93Z"/><path id="Trazado_418" data-name="Trazado 418" class="cls-2" d="M489.53,465.26c-17.69-44.66-10.91-114.86,0-160.27,11.26-47,32.73-88.11,57.52-129.51-.95-16.63-12.57-24.91-20.35-11.89a571.74,571.74,0,0,0-59,146.37,451.65,451.65,0,0,0-6.53,56.92c-.26,7.21-.28,14.78,0,23a338.82,338.82,0,0,0,14.14,84.84,7.55,7.55,0,0,0,4.57,3.46c1.87.39,4.17-.76,9.58-3.46Z"/><path id="Trazado_419" data-name="Trazado 419" class="cls-2" d="M409.4,352.12l-14.14-18.85V305l9.43-47.15,18.86,23.57,18.85,28.28s4.72,4.72,4.72,18.86,4.71,18.85,4.71,18.85l9.24,25.45.19,17L423.55,371Z"/></svg>