<svg width="1080px" height="1080px" viewBox="-48.5 0 1080 1080" id="Capa_1" data-name="Capa 1" xmlns="http://www.w3.org/2000/svg"><defs><style>.cls-1{fill:#fed9db;}.cls-2{fill:#fd6769;}</style></defs><title>fruitsandvegetables</title><path id="Trazado_400" data-name="Trazado 400" class="cls-1" d="M613.58,343.49l-19.87-2.26-20.61,4.36-14,5.12L534,364.65l-15.8,12.57c4-7.83,9-16.62,14.23-25.39A160.64,160.64,0,0,1,563,304l34.35-42.16-20-3.54-9.81,10s-29.45,37.15-44.15,52.19a706,706,0,0,0-37.09,72.65l-2.81-22.05a10.79,10.79,0,0,1-.06-2.05l2.42-36.89s13.83-46.34,7.62-73.86a205.16,205.16,0,0,0-21.6-53l-21.6-53S438.15,184,421,236.05s-3.86,68.37-1.79,77.57,10.36,45.88,10.36,45.88l24.56,23.39L477,422.38l.37-.92.6,10.3L475.39,466a238.36,238.36,0,0,1,24.29-2.42c-.84-14.12-1.67-28.24-1.67-28.24a192.16,192.16,0,0,1,8.26-30.15l30.61-6.66a287.87,287.87,0,0,0,36.8.83,78.61,78.61,0,0,0,42-15.35l25.81-20.55L660,348.78ZM508.94,397.88,506.32,405C507.13,402.68,508,400.33,508.94,397.88Z"/><path id="Trazado_401" data-name="Trazado 401" class="cls-2" d="M724.84,694.38a232.72,232.72,0,0,1-72.46,169c-64.24,36-98.52,64.33-160.88,64.33a232.67,232.67,0,0,1-90.83-18.34c-15.25-9.92-142.51-118.32-142.51-215,0-46.71,28.22-79,51.86-115.49,41.57-64.15,99.33-117.82,181.46-117.82,107.08,0,120.2,47.14,200.33,136.7C701.27,616.63,724.84,672.62,724.84,694.38Z"/></svg>