<svg width="1080px" height="1080px" viewBox="-48.5 0 1080 1080" id="Capa_1" data-name="Capa 1" xmlns="http://www.w3.org/2000/svg"><defs><style>.cls-1{fill:#fdce51;}.cls-2{fill:#fd6769;}</style></defs><title>fruitsandvegetables</title><path id="Trazado_420" data-name="Trazado 420" class="cls-1" d="M389.07,371.72S337.2,376.9,332,439.15s0,124.49-15.57,166S264.58,714.08,280.14,745.2,337.2,916.38,441,921.55s160.81-31.12,186.74-62.25,88.18-114.12,77.81-166-5.19-93.38-46.66-124.5S539.53,491,513.59,459.88s-57.05-62.25-77.8-72.63A216.68,216.68,0,0,0,389.07,371.72Z"/><path id="Trazado_421" data-name="Trazado 421" class="cls-2" d="M469.36,237.16l-21.49,4.77L428,253.85l-12.73,10.34-21.1,23.45-11.94,18.74c1.35-9.58-.6-22.21,1.69-33.22a129.73,129.73,0,0,1,18.71-59L423.26,158l-22.12,3.49-6.61,13.94s-11.07,45.73-21,66.66a322.32,322.32,0,0,0-10.38,57.06L360,332.91l1.31,35.67,3.71,9,3.3,51.21a99,99,0,0,1,25.94-15.56A387.88,387.88,0,0,1,382,374.07a211.91,211.91,0,0,1-2.2-34.33l29.48-17.86a316.61,316.61,0,0,0,38.6-12.31,86.64,86.64,0,0,0,38.21-31l19.5-30.62,13.94-21.88Z"/></svg>