<svg width="1080px" height="1080px" viewBox="-48.5 0 1080 1080" id="Capa_1" data-name="Capa 1" xmlns="http://www.w3.org/2000/svg"><defs><style>.cls-1{fill:#fdce51;}.cls-2{fill:#fed9db;}.cls-3{fill:#100174;}.cls-4{fill:#fd6769;}.cls-5{fill:#94b7bd;}.cls-6{fill:#f7ffde;}</style></defs><title>fruitsandvegetables</title><path id="Trazado_640" data-name="Trazado 640" class="cls-1" d="M532.45,590.82l-41.06,51.33,20.53,26.69,20.53,47.23,82.13,12.31L684.38,753l88.29-36.95,39-57.49L824,627.78l-43.12-37L659.75,566.18l-45.17-16.42Z"/><path id="Trazado_641" data-name="Trazado 641" class="cls-2" d="M605.58,368.29,553,324.53l-28.53-17.65-20.72-15.82-41.07-16.43H413.37l-55.44,16.43-43.12,20.53-78,45.17-41.06,69.81-1.26,59.54,13.58,65.7,26.13,97.06,64.21,46.66,92.39,39,134.53-50.82,100.11-8.26,18.85-36,10.49-74.1-1.17-52.57-16.43-86.23Z"/><path id="Trazado_642" data-name="Trazado 642" class="cls-3" d="M608.72,731.73l-4,8.18-9.63,6L443.66,805.37,433,805.16l-7.66-5.81-3.53-9L296.23,470.64l-2-5.06,2.06-8.21,5.41-4.35,156.59-61.49,10.46-1.92,8.21,8.21,5.31,7.43,120.2,306.13,4.22,10.73Z"/><path id="Trazado_643" data-name="Trazado 643" class="cls-2" d="M588.16,697.35l-4,6.93-9.06,5.35L433.94,765.07l-9.79.26-6.77-4.5-2.86-7.28L312.6,494l-1.6-8.33,2.41-4.51,5-2,146-57.32,7.76-3,7,.82,6.62,12.6,97.57,248.5,3.42,8.71Z"/><path id="Path_410" data-name="Path 410" class="cls-4" d="M519.86,765.2a19.06,19.06,0,0,1-6.64,1.68,11.61,11.61,0,0,1-9.76-7.34,9.82,9.82,0,0,1,.56-8.14c1.18-2.75.31-3.46,5.59-6a17.79,17.79,0,0,1,7.14-.69,3.18,3.18,0,0,1,1.69.55c2.58,1.78,4.64,2.59,6,6a8.74,8.74,0,0,1,.17,7.86A21.86,21.86,0,0,1,519.86,765.2Z"/><path id="Trazado_644" data-name="Trazado 644" class="cls-4" d="M349.31,447.27,347.82,449l-1.12,2.65.38.95,2.24.22,2.24.23,1.87-.74,3.73-1.46,69.07-27.12,1.49-1.69-.38-1-.38-1-2.61-1.18-4.11.51Z"/><path id="Trazado_645" data-name="Trazado 645" d="M541.21,393.13c30.48-3.55,61.14-6.38,92.68-2.9,8.7,1,17.74-.63,26.47,0,3.18.23,2.67-2.19-.49-2.41a791,791,0,0,0-92.64-1.28c-8.74.4-17.29,3-26,3.69C538,390.48,538,393.38,541.21,393.13Z"/><path id="Trazado_646" data-name="Trazado 646" d="M650,440.35c30.48-3.55,61.14-6.38,92.67-2.9,8.7,1,17.75-.63,26.48,0,3.18.23,2.67-2.18-.49-2.41a788.83,788.83,0,0,0-92.64-1.27c-8.74.39-17.29,3-26,3.68C646.86,437.7,646.83,440.6,650,440.35Z"/><path id="Trazado_647" data-name="Trazado 647" d="M161.37,592.29c30.48-3.55,61.15-6.39,92.68-2.91,8.7,1,17.75-.63,26.49,0,3.18.23,2.67-2.18-.5-2.41a791,791,0,0,0-92.64-1.27c-8.74.4-17.28,3-26,3.68-3.17.25-3.2,3.16,0,2.91Z"/><path id="Path_409" data-name="Path 409" class="cls-5" d="M490.4,596.86c0-18.72.6-51.8,8.49-67.43a115.4,115.4,0,0,1,103.23-63.55c31.8,0,52.3,13.87,73.19,34.67,21.05,20.93,30.82,15.4,34.67,73.19,1.38,20.66-11.16,48.82-19.56,68.51a31.08,31.08,0,0,1-11.21,13.53c-25.79,17.45-40.65,33.53-77.1,33.53-32.8,0-52.15-5-73.19-27C509,641.59,505.81,627.68,490.4,596.86Z"/><path id="Trazado_648" data-name="Trazado 648" class="cls-5" d="M678.43,656.73l35.85,27.36L724.53,695l34.08,27.68,26.73,20,11.13-6.68-20-13.36-46.77-44.09L700.71,655.9l-22.28-15.6Z"/><path id="Path_409-2" data-name="Path 409-2" class="cls-6" d="M508.63,593.66c0-15.6.5-43.2,7.08-56.24a96.27,96.27,0,0,1,86.1-53c26.53,0,43.62,11.57,61.05,28.91s25.7,12.85,28.91,61c1.15,17.23-9.3,40.72-16.31,57.14a25.85,25.85,0,0,1-9.35,11.28c-21.51,14.57-33.91,28-64.3,28-27.36,0-43.5-4.19-61-22.49C524.16,631,521.48,619.36,508.63,593.66Z"/></svg>