<svg width="1080px" height="1080px" viewBox="-48.5 0 1080 1080" id="Capa_1" data-name="Capa 1" xmlns="http://www.w3.org/2000/svg"><defs><style>.cls-1{fill:#fd6769;}.cls-2{fill:#94b7bd;}.cls-3{fill:#fff;}</style></defs><title>fruitsandvegetables</title><path id="Trazado_422" data-name="Trazado 422" class="cls-1" d="M574.66,352.72S435.79,332.53,381,356.9s-93.21,95.75-93.21,95.75-13.26,67.9,3.12,114.93S378.1,727.06,421.27,775.3s45,68.7,70.17,65.21,28.43,5.91,70.12-56.07A1312.27,1312.27,0,0,0,667.62,589.31c22.88-55.43,43.48-109.85,26.31-151.55C659.74,354.72,574.66,352.72,574.66,352.72Z"/><path id="Trazado_423" data-name="Trazado 423" class="cls-2" d="M427.33,346.57s-104.24-80.24-71.55-107.46c42.54,1,79.16,30.44,79.16,30.44s28-25.58,54.81-24.36c31.7,15.32,38.25,34.13,38.25,34.13a154.6,154.6,0,0,1,51.51-33.77c28.43,5.92,33.33,20,33.33,20s-1.43,11.05-18.38,38.05A267,267,0,0,0,553,350Z"/><ellipse id="Elipse_363" data-name="Elipse 363" class="cls-3" cx="507.51" cy="549.71" rx="15.8" ry="7.9" transform="translate(-72.61 1022.17) rotate(-86.45)"/><ellipse id="Elipse_364" data-name="Elipse 364" class="cls-3" cx="532.57" cy="473.3" rx="15.8" ry="7.9" transform="translate(27.16 975.5) rotate(-86.45)"/><ellipse id="Elipse_365" data-name="Elipse 365" class="cls-3" cx="465.09" cy="450.9" rx="15.8" ry="7.9" transform="translate(-13.78 887.14) rotate(-86.45)"/><ellipse id="Elipse_366" data-name="Elipse 366" class="cls-3" cx="414.11" cy="516.81" rx="15.8" ry="7.9" transform="translate(-127.38 898.07) rotate(-86.45)"/><ellipse id="Elipse_367" data-name="Elipse 367" class="cls-3" cx="429.15" cy="605.43" rx="15.8" ry="7.9" transform="translate(-201.72 996.22) rotate(-86.45)"/><ellipse id="Elipse_368" data-name="Elipse 368" class="cls-3" cx="493.01" cy="694.54" rx="15.8" ry="7.9" transform="translate(-230.76 1143.54) rotate(-86.45)"/><ellipse id="Elipse_369" data-name="Elipse 369" class="cls-3" cx="580.96" cy="525.31" rx="15.8" ry="7.9" transform="translate(20.64 1072.58) rotate(-86.45)"/><ellipse id="Elipse_370" data-name="Elipse 370" class="cls-3" cx="558.36" cy="610.73" rx="15.8" ry="7.9" transform="translate(-85.81 1130.15) rotate(-86.45)"/></svg>