<svg width="1080px" height="1080px" viewBox="-48.5 0 1080 1080" id="Capa_1" data-name="Capa 1" xmlns="http://www.w3.org/2000/svg"><defs><style>.cls-1{fill:#94b7bd;}.cls-2{fill:#fed9db;}</style></defs><title>fruitsandvegetables</title><path id="Trazado_402" data-name="Trazado 402" class="cls-1" d="M180.38,497.05s-33-14.14-33,9.43,33,89.57,33,89.57,66,80.13,113.13,99S449.07,751.6,477.36,751.6,590.48,746.89,628.2,728s99-66,117.85-94.27,61.28-99,70.71-141.42,18.85-94.28,18.85-108.42V336.78s-33-18.86-33,0S218.1,511.19,218.1,511.19Z"/><path id="Trazado_403" data-name="Trazado 403" class="cls-2" d="M180.38,497.05s218.93-84.19,297-103.7C554.87,374,802.61,341.5,802.61,341.5s4.72-18.85,0,33-33,136.7-33,136.7-4.71,56.56-66,117.84-84.84,75.43-136.7,80.14-155.56,4.72-212.1-33-122.56-66-146.14-99S180.38,497.05,180.38,497.05Z"/><ellipse id="Elipse_358" data-name="Elipse 358" cx="551.89" cy="548.71" rx="9.44" ry="18.51" transform="translate(-150.48 213.54) rotate(-19.32)"/><ellipse id="Elipse_359" data-name="Elipse 359" cx="405.76" cy="539.28" rx="9.44" ry="18.51" transform="translate(-155.59 164.65) rotate(-19.32)"/><ellipse id="Elipse_360" data-name="Elipse 360" cx="500.04" cy="506.28" rx="9.44" ry="18.51" transform="translate(-139.36 193.99) rotate(-19.32)"/><ellipse id="Elipse_361" data-name="Elipse 361" cx="476.47" cy="562.85" rx="9.44" ry="18.51" transform="translate(-159.41 189.38) rotate(-19.32)"/><ellipse id="Elipse_362" data-name="Elipse 362" cx="575.46" cy="496.86" rx="9.44" ry="18.51" transform="translate(-132 218.42) rotate(-19.32)"/></svg>