<svg width="1080px" height="1080px" viewBox="-48.5 0 1080 1080" id="Capa_1" data-name="Capa 1" xmlns="http://www.w3.org/2000/svg"><defs><style>.cls-1{fill:#fd6769;}.cls-2{fill:none;stroke:#000;stroke-miterlimit:10;}</style></defs><title>fruitsandvegetables</title><path id="Trazado_424" data-name="Trazado 424" class="cls-1" d="M456.83,388.72s-91.41,0-118.3,21.5-80.67,75.29-69.91,129.08,69.91,193.59,145.19,225.86,139.82,43,177.46,16.13S683.63,741.17,704.19,663c26.89-102.17,0-220.48-10.75-247.37-8.93-22.33-48.39-69.91-75.28-75.28s-64.53-16.14-91.42,5.38A480.79,480.79,0,0,1,456.83,388.72Z"/><path id="Trazado_425" data-name="Trazado 425" d="M428.9,299.24a45.05,45.05,0,0,1,25.26,14,61.13,61.13,0,0,1,10.9,32c3.11,24.52-6.75,52-13.58,75.75-2.87,10,24,10,26.89,0,8.08-28.08,6.27-56,1.56-84.81a66.88,66.88,0,0,0-15-35,60.82,60.82,0,0,0-31.71-17.44c-10.11-2.31-14.42,13.24-4.29,15.55Z"/><path id="Trazado_426" data-name="Trazado 426" class="cls-2" d="M429.89,418.21a57.76,57.76,0,0,0,24.18,12.54,46.45,46.45,0,0,0,18.58-1.53,46,46,0,0,0,25.27-13.85"/></svg>