<?xml version="1.0" encoding="iso-8859-1"?>
<!-- Uploaded to SVGRepo https://www.svgrepo.com -->
<svg version="1.1" id="Capa_1" xmlns="http://www.w3.org/2000/svg" xmlns:xlink="http://www.w3.org/1999/xlink" x="0px" y="0px"
	 viewBox="0 0 512 512" style="enable-background:new 0 0 512 512;" xml:space="preserve">
<g>
	<g>
		<g>
			<g>
				<path style="fill:#FDD1A7;" d="M229.432,113.753V30.968c0-17.102-13.864-30.966-30.966-30.966h-16.098
					c-17.102,0-30.966,13.864-30.966,30.966v83.806H79.429c-17.091,0-30.966,13.86-30.966,30.966v106.464
					c0,14.797,2.951,29.273,8.49,42.686c5.567,13.413,13.749,25.749,24.238,36.21c38.896,38.84,59.736,92.24,59.736,147.22v18.196
					c0,8.551,6.932,15.483,15.483,15.483h251.544c8.551,0,15.483-6.932,15.483-15.483v-57.26c0-32.379,7.804-64.295,22.742-93.023
					l4.937-9.497c8.154-15.679,12.42-33.092,12.42-50.77V113.753H229.432z"/>
			</g>
			<path style="fill:#FFBC8A;" d="M463.535,168.621v117.345c0,17.679-4.266,35.092-12.42,50.77l-4.937,9.497
				c-14.937,28.728-22.742,60.645-22.742,93.023v57.26c0,8.546-6.923,15.483-15.483,15.483H307.728v-90.73
				c0-135.415-122.031-153.933-122.031-153.933v-98.716H463.535z"/>
			<path style="fill:#F5A871;" d="M463.535,168.621v117.345c0,17.679-4.266,35.092-12.42,50.77l-4.937,9.497
				c-14.937,28.728-22.742,60.645-22.742,93.023v57.26c0,8.546-6.923,15.483-15.483,15.483h-25.945
				c8.56,0,15.483-6.937,15.483-15.483v-57.26c0-32.378,7.818-64.295,22.756-93.023l4.923-9.497
				c8.154-15.679,12.42-33.092,12.42-50.77V168.621H463.535z"/>
			<path style="fill:#F5A871;" d="M463.535,168.621v45.875c-10.224,8.979-23.623,14.434-38.267,14.434h-0.517
				c-14.895,0-28.504-5.595-38.854-14.783c-10.266,9.189-23.819,14.783-38.658,14.783h-0.504c-14.895,0-28.504-5.595-38.854-14.783
				c-10.28,9.189-23.833,14.783-38.658,14.783h-0.518c-17.119,0-32.546-7.385-43.274-19.133c-6.07,4.839-12.839,8.797-20.154,11.721
				v30.462c13.371,4.014,33.078,11.665,52.728,25.553c30.214,21.35,65.987,61.639,69.086,133.57
				c0.239,5.549-4.235,10.168-9.788,10.168l0,0c-5.252,0-9.55-4.151-9.777-9.398c-5.494-126.882-121.83-144.535-121.83-144.535
				v-98.716H463.535z"/>
			<g>
				<g>
					<path style="fill:#FDD1A7;" d="M307.488,30.967v139.888c0,21.263-17.245,38.498-38.508,38.498h-0.505
						c-13.66,0-25.682-7.016-32.646-17.647c-4.028-6.13-6.367-13.475-6.367-21.366V30.967C229.463,13.866,243.329,0,260.43,0h16.091
						C293.622,0,307.488,13.866,307.488,30.967z"/>
					<path style="fill:#FFBC8A;" d="M307.492,30.968v139.877c0,21.273-17.245,38.504-38.504,38.504h-0.517
						c-4.601,0-9.035-0.797-13.133-2.266c14.853-5.343,25.469-19.539,25.469-36.239V30.968c0-15.301-11.091-28.001-25.665-30.504
						c1.72-0.308,3.483-0.462,5.287-0.462h16.084C293.617,0.002,307.492,13.863,307.492,30.968z"/>
					<path style="fill:#FDD1A7;" d="M307.486,30.968v139.377c0,21.544,17.465,39.008,39.008,39.008h0.513
						c21.264,0,38.502-17.238,38.502-38.502V30.968C385.509,13.865,371.644,0,354.541,0h-16.088
						C321.35,0,307.486,13.865,307.486,30.968z"/>
					<path style="fill:#FFBC8A;" d="M385.507,30.968v139.877c0,21.273-17.231,38.504-38.504,38.504h-0.504
						c-4.615,0-9.035-0.797-13.133-2.266c14.839-5.343,25.455-19.553,25.455-36.239V30.968c0-15.301-11.091-28.001-25.665-30.504
						c1.72-0.308,3.497-0.462,5.301-0.462h16.084C371.647,0.002,385.507,13.863,385.507,30.968z"/>
					<path style="fill:#FDD1A7;" d="M385.509,30.966v139.379c0,21.544,17.465,39.008,39.008,39.008h0.513
						c21.264,0,38.502-17.238,38.502-38.502V30.968C463.533,13.865,449.668,0,432.565,0h-16.09
						C399.373,0,385.509,13.864,385.509,30.966z"/>
					<path style="fill:#FFBC8A;" d="M463.537,30.968v139.877c0,21.273-17.245,38.504-38.504,38.504h-0.517
						c-4.601,0-9.035-0.797-13.133-2.266c14.853-5.343,25.469-19.553,25.469-36.239V30.968c0-15.301-11.077-28.001-25.665-30.504
						c1.72-0.308,3.483-0.462,5.287-0.462h16.098C449.663,0.002,463.537,13.863,463.537,30.968z"/>
				</g>
			</g>
			<path style="fill:#FFBC8A;" d="M151.402,95.194v29.033h78.06V30.968c0-17.106-13.875-30.966-30.98-30.966h-16.084
				c-1.804,0-3.566,0.154-5.287,0.462c14.574,2.504,25.665,15.203,25.665,30.504v64.225H151.402z"/>
			<path style="fill:#FFBC8A;" d="M250.468,129.865v17.472c0,16.596-5.439,31.956-14.639,44.37
				c-4.028-6.13-6.367-13.475-6.367-21.366v-68.734C241.608,105.264,250.468,116.544,250.468,129.865z"/>
			<path style="fill:#FDD1A7;" d="M143.592,114.775h77.362c8.332,0,15.087,6.755,15.087,15.087v17.471
				c0,33.291-26.988,60.278-60.278,60.278h-32.171V114.775z"/>
		</g>
	</g>
	<path style="fill:#FFBC8A;" d="M122.897,224.915h62.8v-18.123h-62.8c-5.005,0-9.062,4.057-9.062,9.062v0
		C113.835,220.858,117.892,224.915,122.897,224.915z"/>
</g>
<g>
</g>
<g>
</g>
<g>
</g>
<g>
</g>
<g>
</g>
<g>
</g>
<g>
</g>
<g>
</g>
<g>
</g>
<g>
</g>
<g>
</g>
<g>
</g>
<g>
</g>
<g>
</g>
<g>
</g>
</svg>
