<?xml version="1.0" encoding="iso-8859-1"?>
<!-- Uploaded to SVGRepo https://www.svgrepo.com -->
<svg version="1.1" id="Capa_1" xmlns="http://www.w3.org/2000/svg" xmlns:xlink="http://www.w3.org/1999/xlink" x="0px" y="0px"
	 viewBox="0 0 512 512" style="enable-background:new 0 0 512 512;" xml:space="preserve">
<g>
	<g>
		<path style="fill:#65BAFC;" d="M454.4,479.932H305.675V147.3c0-5.589,4.531-10.121,10.121-10.121H444.28
			c5.589,0,10.121,4.531,10.121,10.121V479.932z"/>
		<path style="fill:#2EA8FC;" d="M454.4,147.3v332.63h-24.18V147.3c0-5.59-4.53-10.12-10.12-10.12h24.18
			C449.87,137.18,454.4,141.71,454.4,147.3z"/>
		<path style="fill:#FFC26D;" d="M270.358,479.932H151.995V208.024c0-5.589,4.531-10.121,10.121-10.121h98.122
			c5.589,0,10.121,4.531,10.121,10.121V479.932z"/>
		<path style="fill:#FFA730;" d="M270.36,208.02v271.91h-24.18V208.02c0-5.59-4.53-10.12-10.12-10.12h24.18
			C265.83,197.9,270.36,202.43,270.36,208.02z"/>
		<path style="fill:#F37D7E;" d="M116.677,479.932H28.676v-150.46c0-5.589,4.531-10.121,10.121-10.121h67.76
			c5.589,0,10.121,4.531,10.121,10.121V479.932z"/>
		<path style="fill:#ED6264;" d="M116.68,329.47v150.46H92.5V329.47c0-5.59-4.53-10.12-10.12-10.12h24.18
			C112.15,319.35,116.68,323.88,116.68,329.47z"/>
		<g>
			<g>
				<path style="fill:#FFCE8B;" d="M450.51,59.064H309.566c-4.142,0-7.5-3.357-7.5-7.5s3.358-7.5,7.5-7.5H450.51
					c4.142,0,7.5,3.357,7.5,7.5S454.652,59.064,450.51,59.064z"/>
			</g>
			<g>
				<g>
					<path style="fill:#F37D7E;" d="M404.434,209.617l-24.396-16.173l-24.396,16.173c-6.727,4.46-15.713-0.364-15.713-8.435V37.683
						c0-5.589,4.531-10.121,10.121-10.121h59.976c5.589,0,10.121,4.531,10.121,10.121v163.498
						C420.146,209.253,411.161,214.076,404.434,209.617z"/>
				</g>
			</g>
		</g>
		<g>
			<g>
				<circle style="fill:#FFCE8B;" cx="282.315" cy="51.567" r="26.995"/>
				<path style="fill:#FFB54E;" d="M309.311,51.57c0,14.908-12.084,26.992-26.992,26.992c-3.208,0-6.285-0.557-9.129-1.589
					c10.414-3.745,17.853-13.703,17.853-25.403c0-11.699-7.439-21.668-17.853-25.413c2.844-1.032,5.921-1.589,9.129-1.589
					C297.227,24.568,309.311,36.662,309.311,51.57z"/>
			</g>
			<g>
				<circle style="fill:#FFCE8B;" cx="477.504" cy="51.567" r="26.995"/>
				<path style="fill:#FFB54E;" d="M504.5,51.57c0,14.908-12.084,26.992-26.992,26.992c-3.208,0-6.285-0.557-9.129-1.589
					c10.414-3.745,17.853-13.703,17.853-25.403c0-11.699-7.439-21.668-17.853-25.413c2.844-1.032,5.921-1.589,9.129-1.589
					C492.416,24.568,504.5,36.662,504.5,51.57z"/>
			</g>
		</g>
		<path style="fill:#FFB54E;" d="M391.2,108.294h-2.933V74.11c0-2.6-1.346-5.014-3.557-6.38c-2.211-1.366-4.973-1.491-7.297-0.328
			l-12.146,6.073c-3.705,1.853-5.207,6.357-3.354,10.063c1.852,3.704,6.356,5.205,10.062,3.354l1.292-0.646v22.048h-2.933
			c-4.142,0-7.5,3.357-7.5,7.5s3.358,7.5,7.5,7.5H391.2c4.142,0,7.5-3.357,7.5-7.5S395.342,108.294,391.2,108.294z"/>
	</g>
	<path style="fill:#CDBFBB;" d="M504.5,487.432H7.5c-4.142,0-7.5-3.357-7.5-7.5s3.358-7.5,7.5-7.5h497c4.142,0,7.5,3.357,7.5,7.5
		S508.642,487.432,504.5,487.432z"/>
</g>
<g>
</g>
<g>
</g>
<g>
</g>
<g>
</g>
<g>
</g>
<g>
</g>
<g>
</g>
<g>
</g>
<g>
</g>
<g>
</g>
<g>
</g>
<g>
</g>
<g>
</g>
<g>
</g>
<g>
</g>
</svg>
