<?xml version="1.0" encoding="iso-8859-1"?>
<!-- Uploaded to SVGRepo https://www.svgrepo.com -->
<svg version="1.1" id="Capa_1" xmlns="http://www.w3.org/2000/svg" xmlns:xlink="http://www.w3.org/1999/xlink" x="0px" y="0px"
	 viewBox="0 0 512 512" style="enable-background:new 0 0 512 512;" xml:space="preserve">
<g>
	<g>
		<path style="fill:#FFC26D;" d="M321.785,100.873c0,34.378-29.453,62.246-65.785,62.246s-65.785-27.868-65.785-62.246
			c0-50.27,44.06-52.128,51.192-93.328c1.039-5.999,7.57-9.309,13.009-6.573C276.622,12.144,321.785,42.092,321.785,100.873z"/>
		<path style="fill:#FFA730;" d="M321.786,100.875c0,34.374-29.456,62.241-65.786,62.241c-4.518,0-8.924-0.43-13.186-1.25
			c30.009-5.789,52.58-30.89,52.58-60.991c0-48.635-30.911-77.528-54.158-92.394c0.061-0.307,0.123-0.615,0.174-0.932
			c1.035-6.004,7.571-9.313,13.002-6.578C276.624,12.139,321.786,42.087,321.786,100.875z"/>
		<path style="fill:#65BAFC;" d="M296.846,124.47c0,21.345-18.288,38.649-40.847,38.649s-40.847-17.304-40.847-38.649
			c0-31.213,27.357-32.367,31.786-57.949c0.645-3.725,4.7-5.78,8.077-4.081C268.804,69.377,296.846,87.972,296.846,124.47z"/>
		<path style="fill:#2EA8FC;" d="M296.848,124.471c0,21.341-18.288,38.646-40.849,38.646c-3.606,0-7.1-0.441-10.42-1.27
			c17.51-4.365,30.419-19.446,30.419-37.376c0-27.561-15.993-44.916-29.763-54.742c0.277-1.025,0.512-2.09,0.707-3.207
			c0.645-3.729,4.692-5.778,8.073-4.078C268.806,69.381,296.848,87.976,296.848,124.471z"/>
		<path style="fill:#ED6264;" d="M255.999,151.902c-4.267,0-7.726-3.459-7.726-7.726v-18.555c0-4.268,3.459-7.726,7.726-7.726
			s7.726,3.459,7.726,7.726v18.555C263.726,148.444,260.267,151.902,255.999,151.902z"/>
	</g>
	<g>
		<path style="fill:#FFC26D;" d="M336.054,201.234c-10.594-34.163-42.408-58.99-80.054-58.99s-69.46,24.827-80.054,58.99H336.054z"
			/>
		<path style="fill:#FFA730;" d="M336.058,201.234h-23.319c-9.477-30.562-35.951-53.666-68.389-58.184
			c3.801-0.533,7.694-0.809,11.649-0.809C293.642,142.24,325.464,167.075,336.058,201.234z"/>
		<path style="fill:#FFDBAA;" d="M265.916,511.999h-19.834c-5.427,0-9.913-4.232-10.228-9.65l-14.726-252.962h69.741
			l-14.726,252.962C275.829,507.767,271.344,511.999,265.916,511.999z"/>
		<path style="fill:#FFC26D;" d="M290.875,249.387l-14.733,252.961c-0.318,5.42-4.795,9.651-10.225,9.651h-18.718
			c5.42,0,9.907-4.232,10.225-9.651l14.723-252.961H290.875z"/>
		<path style="fill:#FFA730;" d="M307.445,270.2H204.554c-5.658,0-10.245-4.587-10.245-10.246v-46.092h123.382v46.092
			C317.691,265.613,313.104,270.2,307.445,270.2z"/>
		<path style="fill:#FA8916;" d="M317.688,213.866v46.084c0,5.666-4.58,10.246-10.245,10.246h-17.038
			c5.666,0,10.245-4.58,10.245-10.246v-46.084H317.688z"/>
		<path style="fill:#B9ACAC;" d="M335.379,220.082H176.62c-8.121,0-14.704-6.583-14.704-14.704v0
			c0-8.121,6.583-14.704,14.704-14.704h158.759c8.121,0,14.704,6.583,14.704,14.704v0
			C350.083,213.498,343.5,220.082,335.379,220.082z"/>
		<path style="fill:#9E9797;" d="M350.084,205.373c0,4.057-1.65,7.746-4.313,10.399c-2.654,2.664-6.332,4.313-10.389,4.313h-18.954
			c4.057,0,7.735-1.649,10.389-4.313c2.664-2.653,4.313-6.342,4.313-10.399c0-8.114-6.588-14.702-14.702-14.702h18.954
			C343.496,190.67,350.084,197.258,350.084,205.373z"/>
		<path style="fill:#B9ACAC;" d="M292.448,300.957c0,4.265-3.461,7.726-7.726,7.726h-57.443c-4.265,0-7.726-3.462-7.726-7.726
			c0-4.265,3.461-7.726,7.726-7.726h57.443C288.986,293.231,292.448,296.692,292.448,300.957z"/>
		<path style="fill:#FFA730;" d="M292.448,329.297c0,4.275-3.461,7.726-7.726,7.726h-57.443c-4.265,0-7.726-3.451-7.726-7.726
			c0-4.265,3.461-7.726,7.726-7.726h57.443C288.986,321.571,292.448,325.032,292.448,329.297z"/>
		<path style="fill:#FA8916;" d="M292.448,329.297c0,4.275-3.461,7.726-7.726,7.726h-17.678l0.896-15.453h16.782
			C288.986,321.571,292.448,325.032,292.448,329.297z"/>
		<path style="fill:#9E9797;" d="M284.721,308.684h-16.03l0.896-15.453h15.133c4.265,0,7.726,3.461,7.726,7.726
			C292.448,305.222,288.986,308.684,284.721,308.684z"/>
	</g>
</g>
<g>
</g>
<g>
</g>
<g>
</g>
<g>
</g>
<g>
</g>
<g>
</g>
<g>
</g>
<g>
</g>
<g>
</g>
<g>
</g>
<g>
</g>
<g>
</g>
<g>
</g>
<g>
</g>
<g>
</g>
</svg>
