<?xml version="1.0" ?><!DOCTYPE svg  PUBLIC '-//W3C//DTD SVG 1.1//EN'  'http://www.w3.org/Graphics/SVG/1.1/DTD/svg11.dtd'><svg width="513px" height="513px" viewBox="0 -0.5 513 513" style="fill-rule:evenodd;clip-rule:evenodd;stroke-linejoin:round;stroke-miterlimit:2;" version="1.1" xml:space="preserve" xmlns="http://www.w3.org/2000/svg" xmlns:serif="http://www.serif.com/" xmlns:xlink="http://www.w3.org/1999/xlink"><g transform="matrix(1,0,0,1,-1167,0)"><g id="hat" transform="matrix(1.35364,0,0,0.670162,596.641,-501.943)"><rect height="763.994" style="fill:none;" width="378.238" x="421.762" y="748.988"/><g transform="matrix(1.18018,2.87896,-1.52721,2.55423,748.201,-636.912)"><path d="M282.003,264.175C279.743,265.634 281.744,269.605 282.055,271.723C282.964,277.93 282.191,284.431 284.026,290.409C284.488,291.916 286.535,296.758 284.48,298.199C278.267,302.558 273.997,300.57 267.442,300.059C266.367,299.975 260.469,299.309 259.756,300.726C258.768,302.688 264.506,305.203 265.75,305.855C272.196,309.232 276.301,311.755 279.482,317.865C280.704,320.213 282.576,323.137 279.397,325.684C270.416,332.878 262.671,330.842 252.913,329.619C252.011,329.506 242.021,327.961 241.232,329.53C240.632,330.721 244.795,333.248 245.614,333.69C251.354,336.789 258.102,339.015 261.781,343.992C263.717,346.613 267.915,351.277 266.083,354.917C265.386,356.301 263.275,357.211 261.799,357.864C261.045,358.197 258.705,359.023 259.459,358.689C265.181,356.157 277.022,358.902 279.25,363.182C279.571,363.799 281.663,366.386 281.297,367.113C281.021,367.662 279.048,368.319 278.459,368.579C274.204,370.462 269.02,369.634 264.887,369.116C263.299,368.917 259.944,369.199 259.944,369.199C259.944,369.199 263.7,370.114 265.463,370.754C269.607,372.257 275.038,373.703 277.562,376.967C278.191,377.781 280.161,378.745 280.017,380.087C279.929,380.914 278.492,381.424 277.896,381.866C274.339,384.51 271.93,387.324 267.748,389.511C267.402,389.692 260.965,392.444 261.082,392.67C261.489,393.452 266.723,390.805 267.428,390.493C273.142,387.965 280.309,384.678 286.425,383.351C300.518,380.291 298.752,381.817 312.249,377.187C315.883,375.941 324.709,371.41 328.246,372.213C329.239,372.439 344.137,374.423 344.666,373.373C345.407,371.9 348.105,362.363 348.292,360.611C349.115,352.918 356.091,351.569 363.412,347.618C372.9,342.498 377.784,338.727 387.769,334.31L403.305,327.437C398.303,329.65 383.731,328.959 383.603,323.115C383.561,321.211 385.446,318.261 386.871,316.622C387.608,315.774 389.613,314.971 389.175,314.13C389.175,314.13 386.353,315.379 386.248,315.425C384.754,316.086 383.012,316.333 381.436,316.292C376.343,316.161 370.597,312.24 370.877,307.715C371.174,302.913 374.992,297.991 376.387,293.29C376.571,292.671 378.143,289.746 377.979,289.431C377.959,289.391 372.288,293.948 371.664,294.328C366.3,297.595 360.812,300.601 354.95,303.195C353.527,303.824 350.645,305.515 349.141,304.858C343.512,302.397 347.507,295.485 348.721,291.23C349.05,290.074 348.993,288.923 349.412,287.769C349.462,287.632 350.461,286.048 350.141,285.975C348.168,285.527 344.213,289.558 343.333,290.459C339.264,294.627 331.201,301.731 325.959,296.462C321.187,291.666 324.999,285.549 326.988,279.814C327.07,279.578 329.964,273.249 329.403,273.278C328.498,273.326 325.432,276.862 324.664,277.478C320.654,280.689 314.889,285.706 309.384,286.972C303.216,288.39 298.169,284.135 294.902,280.971C289.108,275.358 284.73,269.945 281.155,263.079" style="fill:rgb(255,214,48);"/></g><g transform="matrix(0.738747,0,0,1.49218,-440.766,748.988)"><path d="M1382,374.558C1381.75,374.254 1381.51,373.957 1381.29,373.678C1373.85,364.348 1367.48,354.123 1361.73,343.802C1358.43,337.859 1351.59,334.753 1345.19,331.376C1327.47,322.039 1309.73,312.859 1294.09,299.701C1281.09,288.771 1267.96,278.141 1252.75,270.184C1242,264.565 1230.85,260.019 1219.73,254.517C1215.02,252.186 1209,248.407 1212.73,244.894C1214.74,243.013 1217.84,244.856 1220.56,246.051C1224.75,247.884 1228.8,249.971 1233.03,251.78C1233.51,251.974 1238.84,253.828 1243.65,254.765C1251.62,256.317 1259.62,256.316 1267.5,259.009C1267.67,259.068 1267.85,259.125 1268.03,259.18C1268.77,259.407 1269.61,261.033 1270.07,257.593C1270.84,251.775 1271.62,246.002 1270.69,240.511C1268.68,228.678 1263.82,217.362 1258.99,206.883L1258.43,205.566C1257.85,202.515 1261.54,200.282 1264.29,203.108C1274.54,213.631 1279.91,229.219 1292.62,235.878C1294.88,237.06 1296.72,238.06 1298.65,238.812C1298.65,238.812 1300.68,233.202 1301.95,229.706C1304.2,223.226 1301.38,215.664 1298.09,208.784C1294.86,202.043 1290.53,195.662 1284.65,191.216C1284.65,191.216 1279.8,189.319 1278.88,187.145C1278.39,185.989 1278.5,185.615 1278.59,185.085C1278.73,184.223 1279.58,183.169 1279.58,183.169C1280.1,182.718 1280.17,182.575 1281.27,182.247C1281.27,182.247 1282.6,181.937 1284.87,183.136C1286.18,183.827 1287.91,185.009 1287.91,185.009C1292.32,187.328 1297.26,190.185 1301.45,188.122C1307.66,185.062 1309.46,177.266 1311.2,170.955C1313.11,164.012 1314.7,157.049 1314.27,150.01C1313.59,138.975 1310.23,128.294 1308.31,117.323C1306.71,108.203 1306.23,95.167 1315.09,96.944C1319.86,97.9 1322.63,102.447 1325.32,106.017C1338.28,123.273 1345.22,145.675 1364.36,157.129C1370.41,160.755 1377.3,163.278 1384.26,163.868C1390.23,164.374 1393.76,156.505 1396.57,149.248C1401.41,136.778 1400.29,122.809 1397.89,109.063C1396.77,102.648 1396.69,96.18 1398.15,89.722C1398.98,86.085 1390.21,79.922 1404.13,83.272C1409.3,84.516 1412.59,89.07 1415.48,92.984C1419.71,98.711 1423.25,104.819 1426.99,110.886C1431.7,118.494 1438.61,124.725 1447.4,127.078C1447.6,127.133 1447.81,127.186 1448.01,127.237C1449.57,127.633 1448.3,127.322 1448.46,127.331C1450.49,127.443 1448.69,127.536 1449.82,126.972C1455.42,124.191 1458.23,117.061 1462.19,111.927C1471.9,99.355 1485.56,90.227 1496.13,79.058C1501.31,73.58 1504.94,65.438 1511.67,64.928C1511.67,64.928 1512.58,63.022 1512.58,63.022L1516.89,64.978C1516.7,65.412 1516.51,65.846 1516.33,66.281C1508.91,83.623 1504.72,102.517 1502.85,121.503C1501.53,134.891 1502.33,150.08 1514.4,157.531C1525.86,164.603 1540.11,166.008 1553.94,168.176C1554.4,168.247 1555.11,168.359 1555.19,168.373C1555.27,168.383 1555.28,168.384 1555.37,168.393C1560.06,168.815 1564.83,168.471 1569.53,169.389C1572.4,169.951 1575.98,171.943 1575.11,175.695C1574.18,179.688 1568.46,177.651 1563.13,179.481C1560.43,180.412 1549.17,184.731 1544.13,186.57C1535.73,189.658 1523.31,193.109 1519.82,201.232C1518.1,205.234 1518.23,213.689 1520.8,216.916C1524.76,221.873 1533.68,224.917 1540.22,226.166C1551.55,228.332 1561.88,226.799 1572.35,230.937C1576.54,232.59 1585.03,233.409 1582.72,238.689C1582.43,239.351 1582.02,239.953 1581.51,240.467C1579.66,242.348 1563.69,243.399 1559.78,245.069C1552.81,248.038 1545.91,251.708 1540.11,256.8C1538.16,258.512 1536.85,263.837 1537.42,266.471C1537.42,266.471 1544.3,272.6 1548.65,274.581C1561.7,280.488 1581.94,287.465 1595.6,291.787C1595.6,291.787 1615.49,292.612 1619,293.263C1623.1,294.022 1611.36,302.646 1606.62,304.222C1606.62,304.222 1600.66,306.592 1595.59,308.01C1586.44,310.565 1563.83,307.3 1558.8,321.121C1554.5,332.906 1566.12,353.289 1586.51,360.409C1588.56,361.123 1586.33,361.655 1585.56,362.766C1583.42,365.86 1578.86,365.621 1574.38,364.602C1572.33,364.147 1572.15,364.373 1571.49,364.403C1566.39,364.635 1560.58,364.736 1557.05,368.212C1555.18,370.044 1555.48,371.226 1555.48,372.661C1555.45,382.511 1562.93,391.847 1569.85,398.922C1572.43,401.561 1575.2,404.094 1578.47,405.739L1579.37,406.243C1581.96,408.451 1567.66,407.063 1564.61,405.229C1552.94,398.232 1530.87,388.943 1505.37,380.489C1487.2,374.489 1463.93,367.059 1446,361.106C1438.5,358.616 1429.95,358.653 1422.93,363.13C1412.51,369.772 1401.17,375.076 1389.52,378.559C1389.36,378.606 1389.2,378.643 1389.05,378.671C1376.57,404.832 1340.16,479.633 1329.83,482.139C1326.78,482.879 1321.59,479.896 1329.52,471.232C1347.41,451.69 1361.11,422.515 1371.76,398.254C1375.22,390.372 1378.63,382.473 1382,374.558ZM1562.23,352.925C1528.96,345.348 1497.47,336.763 1461.59,336.331C1451.88,336.214 1441.99,335.518 1432.23,335.997C1424.07,336.397 1416.71,336.103 1408.51,336.789C1404.6,345.283 1398.12,359.487 1394.14,367.949L1393.42,369.487C1396.76,368.048 1401.33,366.034 1405.5,364.052C1415.7,359.201 1424.65,351.992 1435.4,351.782C1435.69,351.779 1435.97,351.778 1436.26,351.781C1449.61,351.988 1461.93,359.899 1474.5,364.428C1496.2,372.247 1518.67,378.21 1539.57,387.817L1554.97,394.929C1554.78,394.657 1542.56,373.234 1548.65,363.872C1551.92,358.846 1558.31,356.747 1564.8,355.632C1564.8,355.632 1563.53,354.402 1562.23,352.925ZM1316.1,118.797C1317.23,125.313 1319.11,131.806 1320.27,138.416C1321.95,147.961 1322.3,157.783 1319.69,167.275C1316.52,178.997 1313.52,192.709 1301.54,195.588C1300.3,195.886 1298.42,195.89 1298.42,195.89C1298.6,196.145 1298.78,196.402 1298.96,196.66C1306.29,207.365 1312.27,221.21 1308.16,232.145C1306.21,237.329 1305.75,244.434 1300.57,245.587C1296.75,246.434 1293.29,243.507 1290.38,242.092C1283.32,238.561 1277.74,232.343 1273.25,225.863L1272.85,225.287C1275.85,234.017 1278.77,243.144 1276.65,252.217C1275.64,256.527 1277,261.73 1272.72,264.613C1269.82,266.561 1265.73,264.479 1262.33,263.801C1258.1,262.957 1253.79,262.417 1249.5,261.807C1249.5,261.807 1253.3,263.725 1256.26,265.282C1271.82,273.48 1285.57,284.63 1299.22,295.96C1299.6,296.275 1299.98,296.589 1300.36,296.903C1309.54,304.425 1319.78,310.6 1330.1,316.579C1341.03,322.866 1353.66,326.716 1363.16,335.106C1367.32,338.781 1369.56,344.05 1372.61,348.871C1376.59,355.168 1382.35,365.516 1386.99,371.243C1390.66,362.565 1397.76,345.227 1401.37,336.517C1404.78,338.048 1368.01,300.821 1352.01,284.215C1338.09,269.769 1322.42,256.598 1305.09,245.374L1304.61,245.061C1304.61,245.061 1306.11,243.233 1306.29,243.321C1324.22,252.532 1339.83,265.84 1355.16,279.205C1365.82,288.496 1375.12,299.55 1384.14,310.518C1389.39,316.901 1398.39,325.252 1403.29,332.456C1403.29,332.456 1415.17,304.925 1418.24,297.434C1417.94,296.88 1409.05,285.487 1405.58,280.563C1396.15,267.198 1386.02,261.677 1376.94,248.085C1363.24,227.558 1351.89,205.188 1341.87,182.768C1332.43,161.565 1324.51,140.179 1316.1,118.797ZM1599.82,300.526C1576.93,297.526 1543.97,293.195 1521,291.31C1502.98,289.83 1489.21,283.865 1471.03,287.902C1456.07,291.226 1441.05,292.766 1425.76,298.375C1422.11,306.637 1415.21,322.145 1411.51,330.375C1425.93,329.433 1440.53,329.498 1455.3,330.295C1487.95,332.056 1520.88,338.144 1552.88,347.427C1555.1,348.07 1557.32,348.738 1559.53,349.424C1550.98,336.537 1550.82,317.16 1564.55,308.224C1572.03,303.355 1591.08,302.923 1599.82,300.526ZM1562.79,237.175L1560.19,237.052C1535.31,235.774 1510.36,234.517 1485.56,232.999L1470.12,233.441L1450.98,232.808C1450.02,235.233 1449.06,237.659 1448.1,240.084L1447.65,241.195C1446.19,244.813 1426.21,290.995 1425.05,293.661C1439.42,288.956 1458,282.501 1472.99,280.535C1477.31,279.968 1481.64,279.593 1486.02,279.622C1500.06,279.787 1514.08,282.117 1527.86,284.245C1541.09,286.288 1554.27,288.606 1567.44,291.046L1568.51,291.246C1573.59,292.219 1578.66,293.209 1583.73,294.222C1582.75,293.902 1581.78,293.578 1580.84,293.263C1574.58,291.146 1568.37,288.879 1562.24,286.425C1555.72,283.819 1549.34,280.959 1542.88,278.101C1537.49,275.692 1532.36,272.521 1531.27,266.444C1530.41,261.633 1531.53,256.553 1534.64,252.56C1541.47,243.784 1554.11,241.921 1562.79,237.175ZM1402.88,89.435C1402.58,93.644 1404.68,102.063 1405.56,106.361C1405.6,106.568 1405.6,106.567 1405.64,106.774C1408.62,122.739 1410.09,139.096 1402.91,155.44C1398.9,164.436 1393.17,173.878 1381.09,171.687C1377.74,171.079 1374.41,170.247 1371.18,169.151C1362.13,166.085 1353.97,160.635 1347.56,153.51C1335.61,140.236 1328.84,123.142 1318.04,109.272C1316.79,107.675 1315.31,105.105 1315.22,106.564C1315.15,107.701 1315.14,108.834 1315.17,109.964C1335.99,154.199 1353.61,200.282 1383.5,241.871C1394.5,257.186 1409.28,275.87 1419.77,291.744C1422.33,290.458 1431.08,267.044 1430.69,266.818C1435.81,254.631 1437.75,240.284 1442.9,228.133C1442.18,225.602 1440.78,220.662 1439.64,216.655C1434.9,199.97 1430.86,182.89 1424.38,167.292C1423.7,165.651 1423.07,164.002 1422.46,162.341C1416.6,146.387 1412.48,129.636 1408.27,112.939L1408.03,111.988C1406.52,105.794 1404.3,95.651 1402.88,89.435ZM1497.37,114.944C1485.56,147.594 1469.06,185.667 1456.46,218.358L1455.93,219.742C1454.78,222.655 1453.63,225.567 1452.49,228.478L1471.44,228.988L1485.19,229.43C1497.91,231.037 1517.43,229.27 1530.17,230.979C1521.61,225.746 1507.87,217.222 1513.09,202.687C1514.66,198.305 1516.99,194.182 1520.47,191.005C1529.08,183.137 1549.23,179.338 1559.8,175.276C1559.8,175.276 1559.87,175.242 1560.33,175.1C1544.57,172.281 1522.17,170.263 1510.05,160.513C1498.5,151.232 1494.77,134.755 1496.62,120.303C1496.85,118.515 1497.1,116.728 1497.37,114.944ZM1503.11,88.172C1504.75,82.476 1506.67,76.856 1508.91,71.345C1508.91,71.345 1502.49,79.88 1498.84,83.776C1487.79,95.592 1473.92,104.789 1465.07,118.573C1460.14,126.331 1454.58,135.69 1445.96,133.608C1438.2,131.697 1430.99,127.679 1425.82,121.559C1418.76,113.2 1414.47,102.772 1407.06,94.599C1412.38,109.776 1417.84,124.899 1423.7,139.853C1427.01,148.299 1427.77,159.148 1431.74,167.211C1435.88,177.627 1444.73,218.155 1445.18,218.136L1445.65,219.749C1445.9,220.658 1446.14,221.568 1446.39,222.478L1446.72,221.711C1454.33,204.05 1468.07,174.468 1475.64,156.833L1476.36,155.176C1483.18,139.494 1487.52,124.324 1494.25,108.646L1494.86,107.223C1496.58,103.272 1498.29,99.32 1500,95.366C1501.04,92.968 1502.08,90.57 1503.11,88.172ZM1555.19,168.373L1555.18,168.371C1555.2,168.375 1555.21,168.375 1555.19,168.373Z" style="fill:rgb(80,0,0);"/></g></g></g></svg>