<?xml version="1.0" encoding="iso-8859-1"?>
<!-- Uploaded to SVGRepo https://www.svgrepo.com -->
<svg version="1.1" id="Capa_1" xmlns="http://www.w3.org/2000/svg" xmlns:xlink="http://www.w3.org/1999/xlink" x="0px" y="0px"
	 viewBox="0 0 512 512" style="enable-background:new 0 0 512 512;" xml:space="preserve">
<g>
	<g>
		<rect x="238.384" y="240.455" style="fill:#ED6264;" width="35.232" height="100"/>
		<path style="fill:#E84649;" d="M273.616,240.455v28.351c-5.821,0.649-11.693,0.979-17.616,0.979
			c-5.924,0-11.796-0.33-17.616-0.979v-28.351H273.616z"/>
		<g>
			<rect x="185.469" y="361.449" style="fill:#EFE2DD;" width="141.062" height="133.433"/>
			<rect x="304.458" y="361.449" style="fill:#CDBFBB;" width="22.073" height="133.433"/>
			<rect x="185.469" y="361.449" style="fill:#CDBFBB;" width="141.062" height="20.534"/>
			<g>
				<path style="fill:#FFF5F5;" d="M340.493,512H171.507c-5.641,0-10.214-4.573-10.214-10.214v-13.617
					c0-5.641,4.573-10.214,10.214-10.214h168.986c5.641,0,10.214,4.573,10.214,10.214v13.617
					C350.706,507.427,346.134,512,340.493,512z"/>
				<path style="fill:#EFE2DD;" d="M350.705,488.167v13.62c0,5.638-4.576,10.214-10.214,10.214h-22.552
					c5.638,0,10.214-4.576,10.214-10.214v-13.62c0-5.638-4.576-10.214-10.214-10.214h22.552
					C346.129,477.953,350.705,482.529,350.705,488.167z"/>
			</g>
			<g>
				<path style="fill:#FFF5F5;" d="M340.493,367.671H171.507c-5.641,0-10.214-4.573-10.214-10.214V343.84
					c0-5.641,4.573-10.214,10.214-10.214h168.986c5.641,0,10.214,4.573,10.214,10.214v13.617
					C350.706,363.098,346.134,367.671,340.493,367.671z"/>
				<path style="fill:#EFE2DD;" d="M350.705,343.838v13.62c0,5.638-4.576,10.214-10.214,10.214h-22.552
					c5.638,0,10.214-4.576,10.214-10.214v-13.62c0-5.638-4.576-10.214-10.214-10.214h22.552
					C346.129,333.624,350.705,338.2,350.705,343.838z"/>
			</g>
		</g>
		<g>
			<path style="fill:#F37D7E;" d="M400.287,121.685C394.652,196.456,332.202,255.361,256,255.361s-138.652-58.906-144.287-133.676
				c-0.453-5.944,4.234-11.033,10.199-11.033h268.177C396.053,110.652,400.74,115.741,400.287,121.685z"/>
			<path style="fill:#ED6264;" d="M381.074,110.652c0,68.971-56.104,125.085-125.074,125.085s-125.074-56.114-125.074-125.085
				H381.074z"/>
			<circle style="fill:#DAEDFF;" cx="256" cy="110.655" r="110.655"/>
			<path style="fill:#B6DCFF;" d="M366.659,110.66c0,61.113-49.547,110.649-110.659,110.649c-4.827,0-9.572-0.307-14.235-0.91
				c54.394-6.985,96.424-53.453,96.424-109.739c0-56.296-42.03-102.764-96.424-109.749c4.663-0.603,9.408-0.91,14.235-0.91
				C317.113,0.001,366.659,49.537,366.659,110.66z"/>
			<g>
				<g>
					<g>
						<path style="fill:#FFCE8B;" d="M308.522,99.608l-22.2,21.633l5.24,30.553c0.784,4.576-4.016,8.062-8.129,5.905L256,143.277
							l-27.433,14.422c-4.113,2.157-8.913-1.329-8.129-5.905l2.837-16.542l2.404-14.011l-22.2-21.633
							c-3.322-3.24-1.485-8.89,3.105-9.555l30.673-4.456l13.72-27.799c2.053-4.165,7.995-4.165,10.048,0l13.72,27.799l10.219,1.485
							l20.453,2.971C310.008,90.718,311.844,96.368,308.522,99.608z"/>
						<path style="fill:#FFB54E;" d="M308.522,99.608l-22.2,21.633l5.24,30.553c0.784,4.576-4.016,8.062-8.129,5.905L256,143.277
							l-27.433,14.422c-4.113,2.157-8.913-1.329-8.129-5.905l2.837-16.542c42.572-7.771,56.949-31.143,61.689-48.17l20.453,2.971
							C310.008,90.718,311.844,96.368,308.522,99.608z"/>
					</g>
				</g>
			</g>
		</g>
	</g>
	<path style="fill:#FFCE8B;" d="M284.616,445.038h-57.232c-5.69,0-10.302-4.612-10.302-10.302v-31.64
		c0-5.69,4.612-10.302,10.302-10.302h57.232c5.69,0,10.302,4.612,10.302,10.302v31.64
		C294.918,440.426,290.306,445.038,284.616,445.038z"/>
	<path style="fill:#FFB54E;" d="M294.92,403.1v31.637c0,5.687-4.615,10.302-10.302,10.302h-20.717
		c5.697,0,10.302-4.615,10.302-10.302V403.1c0-5.697-4.605-10.302-10.302-10.302h20.717
		C290.305,392.798,294.92,397.403,294.92,403.1z"/>
</g>
<g>
</g>
<g>
</g>
<g>
</g>
<g>
</g>
<g>
</g>
<g>
</g>
<g>
</g>
<g>
</g>
<g>
</g>
<g>
</g>
<g>
</g>
<g>
</g>
<g>
</g>
<g>
</g>
<g>
</g>
</svg>
