<?xml version="1.0" encoding="iso-8859-1"?>
<!-- Uploaded to SVGRepo https://www.svgrepo.com -->
<svg version="1.1" id="Capa_1" xmlns="http://www.w3.org/2000/svg" xmlns:xlink="http://www.w3.org/1999/xlink" x="0px" y="0px"
	 viewBox="0 0 512 512" style="enable-background:new 0 0 512 512;" xml:space="preserve">
<g>
	<g>
		<path style="fill:#FDD1A7;" d="M408.858,218.672v126.839c0,13.03-3.14,25.85-9.15,37.4l-3.63,6.99
			c-11,21.16-16.75,44.67-16.75,68.52v42.18c0,6.29-5.1,11.4-11.41,11.4H182.649c-6.31,0-11.41-5.11-11.41-11.4v-13.41
			c0-40.49-15.35-79.819-44-108.429c-7.72-7.71-13.75-16.79-17.85-26.67c-4.08-9.88-6.25-20.55-6.25-31.44v-78.419
			c0-12.6,10.22-22.81,22.81-22.81h53.01V29.394c0-15.79,12.46-29.12,28.26-29.39c8.12-0.13,15.49,3.12,20.8,8.42
			c5.2,5.2,8.41,12.37,8.41,20.32v189.929H408.858z"/>
	</g>
	<path style="fill:#FFBC8A;" d="M236.429,213.002v-84.159c-8.51,6.74-13.98,17.17-13.98,28.85v55.31H236.429z"/>
	<path style="fill:#FFBC8A;" d="M178.958,225.604V205h51.23c2.153,0,4.244,0.268,6.243,0.773v19.079L178.958,225.604z"/>
	<path style="fill:#FFBC8A;" d="M408.86,259.084v86.431c0,13.021-3.142,25.847-9.148,37.395l-3.636,6.995
		c-11.002,21.16-16.751,44.668-16.751,68.516v42.175c0,6.294-5.099,11.404-11.404,11.404H294.1v-66.827
		c0-99.74-89.882-113.38-89.882-113.38v-72.709H408.86z"/>
	<path style="fill:#F5A871;" d="M408.86,259.084v86.431c0,13.021-3.142,25.847-9.148,37.395l-3.636,6.995
		c-11.002,21.16-16.751,44.668-16.751,68.516v42.175c0,6.294-5.099,11.404-11.404,11.404h-19.11c6.305,0,11.404-5.11,11.404-11.404
		v-42.175c0-23.848,5.759-47.357,16.761-68.516l3.626-6.995c6.006-11.548,9.148-24.374,9.148-37.395v-86.431H408.86z"/>
	<path style="fill:#F5A871;" d="M408.86,259.084v33.789c-7.531,6.614-17.4,10.631-28.185,10.631h-0.381
		c-10.971,0-20.995-4.121-28.618-10.889c-7.561,6.768-17.544,10.889-28.474,10.889h-0.371c-10.971,0-20.995-4.121-28.618-10.889
		c-7.572,6.768-17.554,10.889-28.474,10.889h-0.381c-12.609,0-23.972-5.439-31.873-14.093c-4.471,3.564-9.457,6.48-14.845,8.633
		v22.437c9.848,2.957,24.363,8.592,38.837,18.821c22.248,15.721,48.589,45.385,50.883,98.34c0.178,4.102-3.104,7.53-7.21,7.53h0
		c-3.848,0-7.032-3.026-7.197-6.871c-4.017-93.501-89.736-106.509-89.736-106.509v-72.709H408.86z"/>
	<g>
		<g>
			<path style="fill:#FDD1A7;" d="M293.92,157.692V260.73c0,15.659-12.702,28.35-28.361,28.35h-0.381
				c-8.643,0-16.4-3.822-21.654-9.869c-4.419-5.038-7.077-11.641-7.077-18.863V157.692c0-12.599,10.209-22.808,22.808-22.808h11.857
				C283.7,134.884,293.92,145.093,293.92,157.692z"/>
			<path style="fill:#FFBC8A;" d="M293.921,157.695v103.027c0,15.669-12.702,28.361-28.361,28.361h-0.381
				c-3.389,0-6.655-0.587-9.673-1.669c10.94-3.935,18.759-14.391,18.759-26.692V157.695c0-11.27-8.169-20.624-18.904-22.468
				c1.267-0.227,2.565-0.34,3.894-0.34h11.847C283.701,134.887,293.921,145.096,293.921,157.695z"/>
			<path style="fill:#FDD1A7;" d="M293.916,157.695v102.658c0,15.868,12.864,28.732,28.732,28.732h0.378
				c15.662,0,28.359-12.697,28.359-28.359V157.695c0-12.597-10.212-22.809-22.809-22.809h-11.849
				C304.128,134.886,293.916,145.098,293.916,157.695z"/>
			<path style="fill:#FFBC8A;" d="M351.383,157.695v103.027c0,15.669-12.692,28.361-28.36,28.361h-0.371
				c-3.4,0-6.655-0.587-9.673-1.669c10.93-3.935,18.749-14.402,18.749-26.692V157.695c0-11.27-8.169-20.624-18.904-22.468
				c1.267-0.227,2.575-0.34,3.904-0.34h11.847C341.174,134.887,351.383,145.096,351.383,157.695z"/>
			<path style="fill:#FDD1A7;" d="M351.384,157.695v102.658c0,15.868,12.864,28.732,28.732,28.732h0.378
				c15.662,0,28.359-12.697,28.359-28.359V157.695c0-12.597-10.212-22.809-22.809-22.809h-11.849
				C361.596,134.886,351.384,145.098,351.384,157.695z"/>
			<path style="fill:#FFBC8A;" d="M408.856,157.695v103.027c0,15.669-12.702,28.361-28.36,28.361h-0.381
				c-3.389,0-6.655-0.587-9.673-1.669c10.94-3.935,18.759-14.402,18.759-26.692V157.695c0-11.27-8.159-20.624-18.904-22.468
				c1.267-0.227,2.565-0.34,3.894-0.34h11.857C398.637,134.887,408.856,145.096,408.856,157.695z"/>
		</g>
	</g>
	<path style="fill:#FFBC8A;" d="M255.721,230.536v12.867c0,13.464-4.543,25.888-12.197,35.809
		c-4.419-5.038-7.077-11.641-7.077-18.863v-54.579C247.51,208.573,255.721,218.617,255.721,230.536z"/>
	<path style="fill:#FDD1A7;" d="M173.205,219.423h56.981c6.137,0,11.113,4.975,11.113,11.113v12.869
		c0,24.52-19.878,44.398-44.398,44.398h-23.696V219.423z"/>
	<path style="fill:#FFBC8A;" d="M204.218,287.192h-44.995c-4.3,0-7.786,3.486-7.786,7.786v0c0,4.3,3.486,7.786,7.786,7.786h44.995
		V287.192z"/>
</g>
<g>
</g>
<g>
</g>
<g>
</g>
<g>
</g>
<g>
</g>
<g>
</g>
<g>
</g>
<g>
</g>
<g>
</g>
<g>
</g>
<g>
</g>
<g>
</g>
<g>
</g>
<g>
</g>
<g>
</g>
</svg>
