<?xml version="1.0" encoding="iso-8859-1"?>
<!-- Uploaded to SVGRepo https://www.svgrepo.com -->
<svg version="1.1" id="Capa_1" xmlns="http://www.w3.org/2000/svg" xmlns:xlink="http://www.w3.org/1999/xlink" x="0px" y="0px"
	 viewBox="0 0 512 512" style="enable-background:new 0 0 512 512;" xml:space="preserve">
<g>
	<g>
		<g>
			<path style="fill:#A4E540;" d="M315.018,113.039v81.602c0,7.572-6.136,13.698-13.698,13.698h-16.61v99.101H227.29v-99.101h-16.61
				c-7.562,0-13.698-6.126-13.698-13.698v-81.602c0-20.4,16.539-36.939,36.929-36.939h44.178
				C298.479,76.099,315.018,92.638,315.018,113.039z"/>
			<g>
				<path style="fill:#ED6264;" d="M244.108,116.754c-2.698,0-5.319-1.416-6.739-3.934l-16.812-29.831
					c-2.095-3.717-0.78-8.43,2.938-10.525c3.718-2.093,8.43-0.779,10.525,2.938l16.812,29.831c2.095,3.717,0.78,8.43-2.938,10.525
					C246.696,116.433,245.393,116.754,244.108,116.754z"/>
				<path style="fill:#ED6264;" d="M267.891,116.754c-1.285,0-2.588-0.321-3.787-0.996c-3.717-2.096-5.032-6.808-2.938-10.525
					l16.812-29.831c2.095-3.716,6.808-5.03,10.525-2.938c3.717,2.096,5.032,6.808,2.938,10.525L274.63,112.82
					C273.21,115.338,270.59,116.754,267.891,116.754z"/>
			</g>
			<path style="fill:#FFBC8A;" d="M227.288,178.365v29.979h-16.607c-7.562,0-13.702-6.13-13.702-13.702v-16.277H227.288z"/>
			<path style="fill:#FFBC8A;" d="M315.02,178.365v16.277c0,7.572-6.14,13.702-13.702,13.702h-16.607v-29.979H315.02z"/>
			<path style="fill:#8EC737;" d="M227.288,151.157v27.208h-15.453v-27.208c0-4.265,3.461-7.726,7.726-7.726
				C223.827,143.431,227.288,146.892,227.288,151.157z"/>
			<rect x="211.836" y="178.365" style="fill:#F5A871;" width="15.453" height="29.979"/>
			<path style="fill:#8EC737;" d="M300.165,151.157v27.208h-15.453v-27.208c0-4.265,3.461-7.726,7.726-7.726
				C296.703,143.431,300.165,146.892,300.165,151.157z"/>
			<rect x="284.712" y="178.365" style="fill:#F5A871;" width="15.453" height="29.979"/>
			<path style="fill:#8EC737;" d="M255.434,314.45c-4.268,0-7.726-3.459-7.726-7.726v-98.383c0-4.268,3.459-7.726,7.726-7.726
				s7.726,3.459,7.726,7.726v98.383C263.16,310.992,259.701,314.45,255.434,314.45z"/>
			<g>
				<circle style="fill:#FFBC8A;" cx="256" cy="48.85" r="29.627"/>
				<path style="fill:#F5A871;" d="M285.63,48.848c0,16.367-13.263,29.63-29.63,29.63c-3.387,0-6.632-0.566-9.654-1.618
					c11.616-3.993,19.966-15.032,19.966-28.013s-8.35-24.01-19.966-28.013c3.023-1.051,6.268-1.618,9.654-1.618
					C272.367,19.218,285.63,32.492,285.63,48.848z"/>
			</g>
			<g>
				<circle style="fill:#FFC26D;" cx="256" cy="118.238" r="15.639"/>
				<path style="fill:#FF9A1B;" d="M256,143.055c-13.685,0-24.817-11.132-24.817-24.817S242.315,93.422,256,93.422
					c13.685,0,24.817,11.132,24.817,24.817S269.684,143.055,256,143.055z M256,108.221c-5.524,0-10.017,4.494-10.017,10.017
					s4.494,10.017,10.017,10.017c5.524,0,10.017-4.494,10.017-10.017S261.524,108.221,256,108.221z"/>
			</g>
		</g>
		<g>
			<g>
				<path style="fill:#EFE2DD;" d="M120.12,184.626v81.602c0,7.572-6.136,13.698-13.698,13.698h-16.61v96.069H32.392v-96.069h-16.61
					c-7.562,0-13.698-6.126-13.698-13.698v-81.602c0-20.4,16.539-36.939,36.929-36.939h44.178
					C103.582,147.687,120.12,164.226,120.12,184.626z"/>
				<path style="fill:#FFBC8A;" d="M32.396,249.953v29.979H15.779c-7.562,0-13.691-6.13-13.691-13.702v-16.277H32.396z"/>
				<path style="fill:#FFBC8A;" d="M120.117,249.953v16.277c0,7.572-6.13,13.702-13.691,13.702H89.809v-29.979H120.117z"/>
				<path style="fill:#CDBFBB;" d="M32.386,222.745v27.207H16.933v-27.207c0-4.265,3.462-7.726,7.726-7.726
					C28.935,215.019,32.386,218.48,32.386,222.745z"/>
				<rect x="16.933" y="249.953" style="fill:#F5A871;" width="15.453" height="29.979"/>
				<path style="fill:#CDBFBB;" d="M105.272,222.745v27.207H89.819v-27.207c0-4.265,3.451-7.726,7.726-7.726
					C101.811,215.019,105.272,218.48,105.272,222.745z"/>
				<rect x="89.819" y="249.953" style="fill:#F5A871;" width="15.453" height="29.979"/>
				<path style="fill:#CDBFBB;" d="M60.537,383.006c-4.268,0-7.726-3.459-7.726-7.726V279.93c0-4.268,3.459-7.726,7.726-7.726
					s7.726,3.459,7.726,7.726v95.349C68.263,379.547,64.804,383.006,60.537,383.006z"/>
				<g>
					<circle style="fill:#FFBC8A;" cx="61.103" cy="120.438" r="29.627"/>
					<path style="fill:#F5A871;" d="M90.733,120.436c0,16.367-13.263,29.63-29.63,29.63c-3.387,0-6.632-0.566-9.654-1.618
						c11.616-3.993,19.966-15.032,19.966-28.013s-8.35-24.01-19.966-28.013c3.023-1.051,6.268-1.618,9.654-1.618
						C77.469,90.806,90.733,104.079,90.733,120.436z"/>
				</g>
				<g>
					<path style="fill:#ED6264;" d="M49.212,188.341c-2.698,0-5.319-1.416-6.739-3.934l-16.812-29.831
						c-2.095-3.717-0.78-8.43,2.938-10.525c3.717-2.093,8.43-0.78,10.525,2.938l16.812,29.831c2.095,3.717,0.78,8.43-2.938,10.525
						C51.799,188.02,50.496,188.341,49.212,188.341z"/>
					<path style="fill:#ED6264;" d="M72.994,188.341c-1.285,0-2.588-0.321-3.787-0.996c-3.717-2.096-5.032-6.808-2.938-10.525
						l16.812-29.831c2.096-3.717,6.807-5.03,10.525-2.938c3.717,2.096,5.032,6.808,2.938,10.525l-16.812,29.831
						C78.313,186.926,75.692,188.341,72.994,188.341z"/>
				</g>
				<g>
					<circle style="fill:#F5A871;" cx="61.103" cy="189.826" r="16.038"/>
				</g>
			</g>
			<g>
				<path style="fill:#6D80D6;" d="M509.915,184.626v81.602c0,7.572-6.136,13.698-13.698,13.698h-16.61v96.069h-57.421v-96.069
					h-16.61c-7.562,0-13.698-6.126-13.698-13.698v-81.602c0-20.4,16.539-36.939,36.929-36.939h44.178
					C493.377,147.687,509.915,164.226,509.915,184.626z"/>
				<path style="fill:#FFBC8A;" d="M422.191,249.953v29.979h-16.617c-7.561,0-13.691-6.13-13.691-13.702v-16.277H422.191z"/>
				<path style="fill:#FFBC8A;" d="M509.912,249.953v16.277c0,7.572-6.13,13.702-13.691,13.702h-16.617v-29.979H509.912z"/>
				<path style="fill:#5169CE;" d="M422.181,222.745v27.207h-15.453v-27.207c0-4.265,3.461-7.726,7.726-7.726
					C418.729,215.019,422.181,218.48,422.181,222.745z"/>
				<rect x="406.728" y="249.953" style="fill:#F5A871;" width="15.453" height="29.979"/>
				<path style="fill:#5169CE;" d="M495.067,222.745v27.207h-15.453v-27.207c0-4.265,3.451-7.726,7.726-7.726
					C491.605,215.019,495.067,218.48,495.067,222.745z"/>
				<rect x="479.614" y="249.953" style="fill:#F5A871;" width="15.453" height="29.979"/>
				<path style="fill:#5169CE;" d="M450.331,383.006c-4.268,0-7.726-3.459-7.726-7.726V279.93c0-4.268,3.459-7.726,7.726-7.726
					s7.726,3.459,7.726,7.726v95.349C458.058,379.547,454.599,383.006,450.331,383.006z"/>
				<g>
					<circle style="fill:#FFBC8A;" cx="450.897" cy="120.438" r="29.627"/>
					<path style="fill:#F5A871;" d="M480.528,120.436c0,16.367-13.263,29.63-29.63,29.63c-3.387,0-6.632-0.566-9.654-1.618
						c11.616-3.993,19.966-15.032,19.966-28.013s-8.35-24.01-19.966-28.013c3.023-1.051,6.268-1.618,9.654-1.618
						C467.264,90.806,480.528,104.079,480.528,120.436z"/>
				</g>
				<g>
					<path style="fill:#ED6264;" d="M439.006,188.341c-2.698,0-5.319-1.416-6.738-3.934l-16.812-29.831
						c-2.095-3.717-0.78-8.43,2.938-10.525c3.718-2.093,8.43-0.78,10.525,2.938l16.812,29.831c2.095,3.717,0.78,8.43-2.938,10.525
						C441.594,188.02,440.291,188.341,439.006,188.341z"/>
					<path style="fill:#ED6264;" d="M462.789,188.341c-1.285,0-2.588-0.321-3.786-0.996c-3.718-2.096-5.033-6.807-2.939-10.524
						l16.811-29.831c2.096-3.719,6.809-5.031,10.524-2.939c3.718,2.096,5.033,6.807,2.939,10.524l-16.811,29.831
						C468.108,186.926,465.488,188.341,462.789,188.341z"/>
				</g>
				<g>
					<circle style="fill:#EFE2DD;" cx="450.897" cy="189.826" r="16.038"/>
				</g>
			</g>
		</g>
	</g>
	<g>
		<g>
			<g>
				<path style="fill:#2EA8FC;" d="M155.261,398.272v94.506H31.114c-5.64,0-10.218-4.567-10.218-10.218v-84.288H155.261z"/>
				<rect x="132.506" y="398.272" style="fill:#0097FA;" width="22.755" height="94.506"/>
				<path style="fill:#2EA8FC;" d="M491.104,398.272v84.288c0,5.651-4.578,10.218-10.218,10.218H356.739v-94.506H491.104z"/>
				<rect x="356.739" y="398.272" style="fill:#0097FA;" width="22.755" height="94.506"/>
				<path style="fill:#0097FA;" d="M491.104,398.272v84.288c0,5.651-4.578,10.218-10.218,10.218h-20.896
					c5.64,0,10.218-4.567,10.218-10.218v-84.288H491.104z"/>
				<path style="fill:#F69798;" d="M155.088,371.96v34.118H10.218C4.567,406.078,0,401.501,0,395.86v-13.682
					c0-5.64,4.567-10.218,10.218-10.218H155.088z"/>
				<rect x="132.506" y="371.96" style="fill:#F37D7E;" width="22.582" height="34.118"/>
				<path style="fill:#FFCE8B;" d="M512,382.178v13.682c0,5.64-4.567,10.218-10.218,10.218h-144.87V371.96h144.87
					C507.433,371.96,512,376.538,512,382.178z"/>
				<path style="fill:#FFB54E;" d="M512,382.178v13.682c0,5.64-4.567,10.218-10.218,10.218h-20.896
					c5.651,0,10.218-4.578,10.218-10.218v-13.682c0-5.64-4.567-10.218-10.218-10.218h20.896C507.433,371.96,512,376.538,512,382.178
					z"/>
				<rect x="356.912" y="371.96" style="fill:#FFB54E;" width="22.581" height="34.118"/>
				<rect x="146.815" y="321.653" style="fill:#8ECBFD;" width="218.37" height="171.129"/>
				<rect x="344.14" y="321.653" style="fill:#65BAFC;" width="21.045" height="171.129"/>
				<g>
					<path style="fill:#FFC26D;" d="M380.179,340.245H131.821c-5.643,0-10.218-4.575-10.218-10.218v-16.738
						c0-5.643,4.575-10.218,10.218-10.218h248.358c5.643,0,10.218,4.575,10.218,10.218v16.738
						C390.397,335.67,385.822,340.245,380.179,340.245z"/>
				</g>
				<g>
					<path style="fill:#FFA730;" d="M390.396,313.289v16.737c0,5.64-4.578,10.218-10.218,10.218h-20.896
						c5.64,0,10.218-4.578,10.218-10.218v-16.737c0-5.64-4.578-10.218-10.218-10.218h20.896
						C385.819,303.071,390.396,307.649,390.396,313.289z"/>
				</g>
			</g>
			<g>
				<path style="fill:#F37D7E;" d="M286.321,441.957L256,421.857l-30.321,20.1c-4.075,2.702-9.518-0.221-9.518-5.11V303.071h79.678
					v133.776C295.839,441.736,290.396,444.658,286.321,441.957z"/>
				<path style="fill:#ED6264;" d="M295.84,303.074v133.773c0,4.884-5.446,7.806-9.523,5.109l-7.009-4.649
					c0.01-0.153,0.02-0.307,0.02-0.46V303.074H295.84z"/>
			</g>
		</g>
	</g>
</g>
<g>
</g>
<g>
</g>
<g>
</g>
<g>
</g>
<g>
</g>
<g>
</g>
<g>
</g>
<g>
</g>
<g>
</g>
<g>
</g>
<g>
</g>
<g>
</g>
<g>
</g>
<g>
</g>
<g>
</g>
</svg>
