<?xml version="1.0" encoding="iso-8859-1"?>
<!-- Uploaded to SVGRepo https://www.svgrepo.com -->
<svg version="1.1" id="Capa_1" xmlns="http://www.w3.org/2000/svg" xmlns:xlink="http://www.w3.org/1999/xlink" x="0px" y="0px"
	 viewBox="0 0 512 512" style="enable-background:new 0 0 512 512;" xml:space="preserve">
<g>
	<g>
		<g>
			<path style="fill:#8EC737;" d="M372.356,300.688l-16.8-25.725l133.163-87.306c4.806-3.151,11.256-1.803,14.398,3.008l5.436,8.324
				c3.134,4.799,1.791,11.229-3.003,14.372L372.356,300.688z"/>
		</g>
		<g>
			<path style="fill:#8EC737;" d="M139.644,300.688l16.8-25.725L23.281,187.657c-4.806-3.151-11.256-1.803-14.398,3.008
				l-5.436,8.324c-3.134,4.799-1.791,11.229,3.003,14.372L139.644,300.688z"/>
		</g>
	</g>
	<g>
		<path style="fill:#FFCE8B;" d="M316.489,51.744L290.928,76.66l6.026,35.187c0.903,5.264-4.619,9.29-9.355,6.8L256,102.027
			l-31.6,16.619c-4.735,2.49-10.258-1.536-9.355-6.8l2.839-16.593l3.187-18.593l-25.561-24.916
			c-3.819-3.729-1.716-10.232,3.574-11.006l35.328-5.135L250.219,3.59c2.361-4.787,9.2-4.787,11.561,0l15.806,32.012l14.877,2.168
			l20.451,2.968C318.206,41.512,320.309,48.015,316.489,51.744z"/>
		<path style="fill:#FFB54E;" d="M316.489,51.744L290.928,76.66l6.026,35.187c0.903,5.264-4.619,9.29-9.355,6.8L256,102.027
			l-31.6,16.619c-4.735,2.49-10.258-1.536-9.355-6.8l2.839-16.593c47.406-13.122,66.76-39.716,74.579-57.483l20.451,2.968
			C318.206,41.512,320.309,48.015,316.489,51.744z"/>
	</g>
	<path style="fill:#BDEB73;" d="M373.825,511.997h-235.65c-5.651,0-10.231-4.581-10.231-10.231v-235.65
		c0-5.651,4.581-10.231,10.231-10.231h235.65c5.651,0,10.231,4.581,10.231,10.231v235.65
		C384.056,507.416,379.476,511.997,373.825,511.997z"/>
	<path style="fill:#A4E540;" d="M384.054,266.114v235.655c0,5.648-4.573,10.231-10.231,10.231h-24.074
		c5.648,0,10.231-4.584,10.231-10.231V266.114c0-5.648-4.584-10.231-10.231-10.231h24.074
		C379.48,255.882,384.054,260.466,384.054,266.114z"/>
	<path style="fill:#E3F6C5;" d="M384.054,307.376v84.622c-7.489,7.581-15.613,15.817-24.074,24.371
		c-33.149,33.528-71.311,71.956-95.293,95.631h-85.267l180.56-180.55L384.054,307.376z"/>
	<path style="fill:#BDEB73;" d="M384.054,307.376v84.622c-7.489,7.581-15.613,15.817-24.074,24.371V331.45L384.054,307.376z"/>
	<path style="fill:#E3F6C5;" d="M335.895,255.882c-58.512,58.952-146.47,147.452-207.949,208.819v-85.379l123.439-123.439H335.895z"
		/>
	<g>
		<path style="fill:#8ECBFD;" d="M331.681,211.529c-0.283,0-0.567-0.015-0.855-0.046c-4.238-0.468-7.298-4.276-6.835-8.514
			c0.348-3.187,9.219-78.66,70.117-132.715c3.19-2.834,8.073-2.542,10.907,0.65c2.832,3.191,2.541,8.074-0.65,10.907
			c-56.315,49.986-64.933,122.119-65.013,122.842C338.913,208.603,335.567,211.529,331.681,211.529z"/>
		<path style="fill:#ED6264;" d="M168.084,212.336c-3.943,0-7.309-3.004-7.684-7.008l0,0C160.28,204.045,147.582,76.49,80.006,30.35
			c-3.524-2.406-4.431-7.214-2.024-10.738c2.406-3.523,7.214-4.429,10.737-2.024c31.111,21.243,55.23,59.169,71.685,112.725
			c12.097,39.369,15.253,72.2,15.382,73.579c0.396,4.25-2.727,8.014-6.976,8.41C168.567,212.323,168.324,212.336,168.084,212.336z"
			/>
	</g>
	<path style="fill:#FFCE8B;" d="M256,220.741c-4.267,0-7.726-3.459-7.726-7.726v-63.574c0-4.268,3.459-7.726,7.726-7.726
		c4.268,0,7.726,3.459,7.726,7.726v63.574C263.726,217.282,260.268,220.741,256,220.741z"/>
	<g>
		<g>
			<circle style="fill:#A4E540;" cx="66.189" cy="114.289" r="27.29"/>
			<path style="fill:#8EC737;" d="M92.785,120.397c-3.376,14.692-18.017,23.859-32.699,20.493c-0.399-0.092-0.788-0.194-1.187-0.297
				c9.331-2.599,16.984-10.098,19.306-20.196c3.284-14.293-5.31-28.535-19.306-32.412c4.225-1.176,8.809-1.351,13.393-0.297
				C86.984,91.065,96.161,105.705,92.785,120.397z"/>
		</g>
		<g>
			<circle style="fill:#8998DD;" cx="445.811" cy="38.137" r="27.29"/>
			<path style="fill:#6D80D6;" d="M472.407,44.245c-3.376,14.692-18.017,23.859-32.699,20.493c-0.399-0.092-0.788-0.194-1.187-0.297
				c9.331-2.599,16.984-10.098,19.306-20.196c3.284-14.293-5.31-28.535-19.306-32.412c4.225-1.176,8.809-1.351,13.393-0.297
				C466.606,14.912,475.783,29.553,472.407,44.245z"/>
		</g>
	</g>
</g>
<g>
</g>
<g>
</g>
<g>
</g>
<g>
</g>
<g>
</g>
<g>
</g>
<g>
</g>
<g>
</g>
<g>
</g>
<g>
</g>
<g>
</g>
<g>
</g>
<g>
</g>
<g>
</g>
<g>
</g>
</svg>
