<?xml version="1.0" ?><!DOCTYPE svg  PUBLIC '-//W3C//DTD SVG 1.1//EN'  'http://www.w3.org/Graphics/SVG/1.1/DTD/svg11.dtd'><svg width="512px" height="512px" viewBox="0 0 512 512" style="fill-rule:evenodd;clip-rule:evenodd;stroke-linejoin:round;stroke-miterlimit:2;" version="1.1" xml:space="preserve" xmlns="http://www.w3.org/2000/svg" xmlns:serif="http://www.serif.com/" xmlns:xlink="http://www.w3.org/1999/xlink"><g id="umbrella" transform="matrix(1.31535,0,0,0.940889,-1150.67,-13.98)"><rect height="544.166" style="fill:none;" width="389.25" x="874.799" y="14.858"/><g><g transform="matrix(1.54819,0,0,1.78382,695.77,-214.073)"><path d="M291.327,217.152C231.222,156.514 176.146,174.131 175.219,179.957C173.576,190.271 181.951,200.944 188.925,216.649C192.824,225.432 192.46,237.779 198.912,247.701C208.45,262.37 222.956,263.085 237.798,279.183C250.906,293.399 260.854,321.05 273.478,335.74C282.831,346.623 294.4,345.82 303.102,350.692C314.561,357.107 326.518,368.293 329.083,360.686C348.377,303.472 291.327,217.152 291.327,217.152Z" style="fill:rgb(204,120,79);"/></g><g transform="matrix(1.07404,0,0,1.56762,780.427,-126.343)"><path d="M173.552,150.064C163.214,158.664 193.829,168.034 208.487,226.593C214.876,234.272 237.424,243.976 270.872,268.475C300.89,290.464 310.421,349.507 332.538,333.383C489.568,218.903 223.421,108.575 173.552,150.064Z" style="fill:rgb(191,88,38);"/></g><g transform="matrix(1.73979,0,0,2.10672,609.081,-288.417)"><path d="M341.644,341.662C343.39,337.593 344.98,332.857 346.596,328.201C358.792,293.075 364.412,244.165 323.091,201.137C270.483,146.355 198.727,186.415 205.605,186.838C214.197,187.367 223.865,186.274 231.276,189.065C241.112,192.77 243.742,202.03 251.272,208.558C257.274,213.761 265.468,214.393 271.523,219.209C280.046,225.989 283.973,239.137 289.248,244.422C294.083,249.265 307.535,252.322 311.428,257.662C318.471,267.323 317.085,277.207 321.563,287.065C325.03,294.698 334.783,300.599 337.065,307.37C343.736,327.159 339.933,343.584 341.644,341.662Z" style="fill:rgb(207,68,0);"/></g><g transform="matrix(1.49332,-0.787875,0.351444,1.41904,585.924,168.74)"><path d="M351.001,169.258C351.001,169.258 367.189,162.696 360.731,171.53C353.565,181.332 353.431,176.981 353.431,176.981L351.001,169.258Z" style="fill:white;"/></g><g transform="matrix(1.49449,0,0,2.33011,749.139,-351.692)"><path d="M239.002,244.342L134.742,337.917L139.562,343.484C139.562,343.484 246.428,245.849 243.408,249.125C242.436,250.179 237.889,245.661 239.002,244.342Z" style="fill:white;"/></g><g transform="matrix(0.760254,0,0,1.06282,874.799,14.8583)"><path d="M301.916,193.432L287,206.869C287,206.869 306.639,210.639 303.456,214.535C300.273,218.43 313.265,202 313.265,202C313.265,202 307.721,192.154 301.916,193.432Z" style="fill:rgb(198,171,153);"/></g><g transform="matrix(-0.615907,-0.952012,0.444686,-0.61287,824.621,769.357)"><path d="M72.894,400.257C80.467,408.408 92.306,407.992 93.41,402.589C93.41,402.589 95.6,392.811 95.555,389.955C95.514,387.376 92.185,382.99 92.185,382.99C92.185,382.99 96.099,378.363 96.202,376.103C96.305,373.843 92.803,369.427 92.803,369.427C92.803,369.427 96.9,364.165 96.986,361.518C97.072,358.87 93.317,353.543 93.317,353.543C93.317,353.543 97.434,350.291 97.592,347.433C97.774,344.13 98.061,334.431 98.061,334.431C97.698,330.655 91.008,327.006 88.66,325.745C79.622,320.894 71.478,319.728 69.596,333.414L72.894,400.257Z" style="fill:rgb(180,103,103);"/></g><g transform="matrix(1.07404,0,0,1.56762,780.427,-126.343)"><path d="M188.381,138.63C187.179,138.97 218.348,129.558 253.149,127.651C277.218,126.332 309.682,134.644 318.422,138.444C342.007,148.7 359.922,159.803 377.126,178.135C395.956,198.2 408.969,222.885 413.684,250.564C415.977,264.027 414.335,278.153 412.48,291.529C409.994,309.455 406.545,327.553 399.317,343.96C397.337,348.453 393.134,349.143 394.444,346.419C400.469,333.897 403.089,320.003 405.356,306.181C407.946,290.39 409.772,274.346 408.579,258.419C407.704,246.734 403.951,235.173 399.352,224.395C382.053,183.85 344.521,152.727 302.871,136.566C260.717,120.209 230.274,126.786 188.381,138.63Z" style="fill:rgb(255,149,97);"/></g></g><g transform="matrix(0.760254,0,0,1.06282,874.799,14.8583)"><path d="M97.099,392.068C143.046,346.064 191.909,296.331 238.336,250.783C230.916,245.254 203.256,224.789 194.122,219.126C178.319,209.329 157.906,196.346 153.007,176.464C150.664,166.952 149.252,156.644 144.895,148.034C136.222,130.991 122.004,118.227 117.305,99.864C115.967,94.635 115.388,89.105 116.594,83.776L116.603,83.763C117.116,80.953 120.775,78.635 124.075,76.732C141.709,66.562 167.075,62.387 187.238,58.014C244.613,45.573 302.811,52.894 354.332,81.824C368.08,89.543 379.505,95.125 391.48,105.464C392.436,104.64 405.95,98.674 406.936,98.702C411.023,98.818 413.753,103.101 410.69,108.406C408.839,111.611 406.967,114.907 404.586,117.663C437.901,151.073 455.403,192.781 461.879,239.135C467.944,282.558 462.377,324.804 446.513,365.38C443.606,372.813 431.486,398.104 429.28,397.157C422.845,397.813 415.989,395.818 410.259,393.667C394.317,387.685 379.89,378.853 362.454,374.801C344.683,370.714 329.325,365.12 314.9,349.917C295.822,329.81 261.997,268.201 258.538,263.135C230.426,291.703 195.153,325.075 167.248,353.532C156.918,364.066 129.434,391.964 110.393,411.278C110.527,412 110.634,412.728 110.714,413.458C110.714,413.458 110.767,414.307 110.324,414.908C110.324,414.908 82.085,449.239 73.847,456.733C70.546,459.736 67.471,463.263 60.898,459.871C52.206,455.386 48.877,444.131 46.974,436.702C46.159,433.519 45.704,429.911 47.299,427.509C47.956,426.521 52.053,423.071 55.898,419.889C55.898,419.889 56.429,419.425 56.978,419.134C58.62,418.261 60.585,418.31 62.353,418.574C62.353,418.574 62.851,416.062 63.448,414.597C64.16,412.909 65.586,411.663 67.414,411.167C67.414,411.167 70.075,410.738 72.191,410.79C72.191,410.79 72.31,406.572 74.329,404.852C76.146,403.305 78.774,403.538 80.974,403.695C80.974,403.695 81.17,398.987 84.001,396.941C86.805,394.916 89.89,393.425 93.079,392.02C94.397,391.475 95.784,391.598 97.099,392.068ZM95.237,425.343L107.273,413.225C107.245,413.069 107.216,412.913 107.186,412.757C105.884,406.322 102.297,399.967 97.134,396.739C96.893,396.588 95.563,395.886 94.897,395.964C94.897,395.964 88.53,399.393 86.8,400.72C86.8,400.72 86.238,401.529 86.276,401.421C86.062,402.107 86.243,400.982 85.999,402.727C85.792,404.209 85.835,406.433 85.835,406.433C85.542,410.725 83.219,408.951 81.7,408.838C80.287,408.743 78.22,408.849 78.22,408.849C76.935,409.025 77.882,408.933 77.778,409.598C77.778,409.598 77.56,411.609 77.663,413.584C77.663,413.584 77.297,416.579 73.485,416.442C72.034,416.4 70.994,416.329 69.292,416.661C68.193,416.875 68.833,416.709 68.592,418.097C68.288,419.85 68.257,422.496 68.257,422.496C68.054,424.475 66.17,425.982 64.154,425.329C64.154,425.329 61.044,424.697 61.044,424.697C60.495,424.657 60.035,424.707 60.035,424.707C57.754,426.688 55.24,427.768 53.024,429.82C53.024,429.82 52.226,432.744 53.076,432.718C60.688,432.492 70.559,450.983 70.038,452.449L95.237,425.343ZM107.64,403.11C153.299,357.87 274.824,236.747 283.375,228.107C292.127,219.264 301.269,210.645 309.409,201.403C308.004,200.26 306.675,199.021 305.438,197.664C304.547,196.686 303.695,195.676 302.875,194.639C285.781,212.302 148.323,349.72 102.155,395.531C104.377,397.723 106.225,400.301 107.64,403.11ZM351.734,221.72C354.337,230.537 355.863,239.801 356.371,249.016C358.343,284.755 349.633,321.314 332.479,352.311C337.432,355.517 342.849,358.006 348.405,359.835C360.442,363.795 372.976,365.923 384.464,371.635C385.716,372.258 386.965,372.888 388.21,373.526C399.708,379.415 410.462,386.943 423.234,389.613C423.933,389.759 424.645,389.881 425.362,389.968C425.259,387.514 425.646,384.894 425.732,382.283C426.299,363.443 424.148,344.537 417.514,326.614C414.036,317.218 404.977,310.866 397.521,303.916C390.42,297.272 383.927,290.054 380.083,280.843C373.062,264.021 373.092,244.72 361.272,229.457C358.75,226.2 355.427,223.766 351.734,221.72ZM237.757,57.969C203.037,58.073 168.465,64.095 136.346,78.289C133.858,79.388 131.398,80.555 128.995,81.831L128.875,81.895C151.436,82.387 175.097,80.113 193.846,92.698C207.673,101.98 215.588,118.028 230.056,127.256C243.87,136.067 261.623,137.451 275.215,147.394C289.168,157.602 296.041,179.066 306.115,192.856C318.92,210.386 347.819,207.175 363.382,220.004C376.857,231.112 380.118,251.472 384.757,267.368C387.463,276.638 391.78,285.264 399.068,292.454C409.307,302.557 422.176,310.971 427.053,323.527C432.115,336.698 435.145,350.63 436.316,364.673L436.32,364.726C453.574,322.444 462.616,276.204 453.991,230.468C444.444,179.852 413.352,134.457 371.749,102.184C334.882,73.586 288.134,58.484 240.511,57.979C239.593,57.972 238.675,57.968 237.757,57.969ZM313.303,204.224C311.681,206.071 309.436,208.106 307.532,210.157C292.129,226.751 276.419,243.094 260.566,259.3C283.844,285.786 298.102,320.151 323.558,345.2C325.715,347.321 328.047,349.247 330.513,350.984C349.06,315.144 356.844,271.966 349.737,233.821C348.791,228.743 347.508,223.707 345.84,218.826C343.822,217.926 341.766,217.068 339.728,216.196C330.815,212.379 321.235,209.361 313.303,204.224ZM300.477,191.419C296.528,185.815 293.222,179.678 289.496,173.89C288.704,172.658 287.893,171.432 287.06,170.218C273.14,168.08 258.514,168.789 245.064,171.112C220.052,175.432 195.808,183.985 173.368,195.88C175.062,198.263 177.013,200.561 179.295,202.748C193.676,216.528 212.947,222.927 229.678,233.393C235.217,236.857 240.554,240.651 245.591,244.8C263.87,226.905 282.17,209.099 300.477,191.419ZM282.934,164.582C278.347,158.758 273.045,153.53 266.517,149.816C252.073,141.597 234.579,139.863 221.091,128.696C206.815,116.877 198.114,98.771 178.74,92.496C161.173,86.806 141.334,89.123 123.041,88.484C123.036,98.406 128.957,107.639 134.227,116.341C141.355,128.113 150.034,139.097 155.762,151.579C162.071,165.33 163.602,180.743 172.002,193.856C194.501,181.092 219.254,171.801 244.435,166.977C253.943,165.155 263.596,164.091 273.293,164.117C276.509,164.138 279.729,164.287 282.934,164.582ZM400.166,113.343C401.351,111.488 402.684,109.247 403.675,107.23C404.157,106.25 405.177,104.127 405.093,104.155C401.697,105.32 398.272,106.883 394.91,108.484C396.686,110.077 398.438,111.697 400.166,113.343Z" style="fill:rgb(80,0,0);fill-opacity:0.99;"/></g></g></svg>