<?xml version="1.0" encoding="iso-8859-1"?>
<!-- Uploaded to SVGRepo https://www.svgrepo.com -->
<svg version="1.1" id="Capa_1" xmlns="http://www.w3.org/2000/svg" xmlns:xlink="http://www.w3.org/1999/xlink" x="0px" y="0px"
	 viewBox="0 0 512 512" style="enable-background:new 0 0 512 512;" xml:space="preserve">
<g>
	<g>
		<g>
			<path style="fill:#FFA730;" d="M297.161,175.688h-82.651c-4.056-2.717-9.49-6.458-15.737-11.052
				C154.12,131.915,67.821,56.654,144.119,10.164c41.883-25.516,75.813,0.512,101.079,39.284
				C274.783,94.836,292.476,157.694,297.161,175.688z"/>
			<path style="fill:#FA8916;" d="M297.161,175.688h-29.545C260.568,148.65,224.105,20.231,162.101,2.131
				C242.087-20.497,289.076,144.594,297.161,175.688z"/>
			<g>
				<path style="fill:#FFA730;" d="M214.837,175.689c8.682-33.355,62.129-220.922,153.041-165.526
					c86.968,52.993-37.325,143.367-70.392,165.526H214.837z"/>
				<path style="fill:#FA8916;" d="M297.489,175.688h-28.627c33.076-22.156,157.361-112.537,70.392-165.525
					c-6.326-3.859-12.482-6.536-18.441-8.164c14.346-4.069,30.044-2.205,47.068,8.164
					C454.85,63.151,330.552,153.533,297.489,175.688z"/>
			</g>
		</g>
		<g>
			<g>
				<path style="fill:#BDEB73;" d="M406.119,511.996H105.881c-7.199,0-13.035-5.836-13.035-13.035V198.722
					c0-7.199,5.836-13.035,13.035-13.035h300.239c7.199,0,13.035,5.836,13.035,13.035V498.96
					C419.155,506.16,413.319,511.996,406.119,511.996z"/>
				<path style="fill:#A4E540;" d="M419.152,198.719v300.245c0,7.196-5.827,13.035-13.035,13.035h-30.672
					c7.196,0,13.035-5.84,13.035-13.035V198.719c0-7.196-5.84-13.035-13.035-13.035h30.672
					C413.325,185.684,419.152,191.524,419.152,198.719z"/>
				<path style="fill:#E3F6C5;" d="M419.152,251.291v107.816c-9.542,9.659-19.892,20.153-30.672,31.051
					C346.244,432.875,297.622,481.836,267.067,512H158.43l230.05-230.036L419.152,251.291z"/>
				<path style="fill:#BDEB73;" d="M419.152,251.291v107.816c-9.542,9.659-19.892,20.153-30.672,31.051V281.964L419.152,251.291z"/>
				<path style="fill:#E3F6C5;" d="M357.794,185.684c-74.55,75.11-186.616,187.867-264.946,266.053V342.956l157.273-157.273H357.794
					z"/>
			</g>
			<path style="fill:#8EC737;" d="M432.145,226.654H79.855c-7.249,0-13.125-5.876-13.125-13.125v-40.466
				c0-7.249,5.876-13.125,13.125-13.125h352.289c7.249,0,13.125,5.876,13.125,13.125v40.466
				C445.27,220.777,439.393,226.654,432.145,226.654z"/>
			<path style="fill:#83B832;" d="M445.269,173.062v40.466c0,7.245-5.88,13.125-13.125,13.125h-32.079
				c7.245,0,13.125-5.88,13.125-13.125v-40.466c0-7.245-5.88-13.125-13.125-13.125h32.079
				C439.389,159.936,445.269,165.817,445.269,173.062z"/>
		</g>
		<g>
			<g>
				<path style="fill:#FFC26D;" d="M218.023,381.05l-23.707-14.647L170.61,381.05c-4.372,2.701-10.012-0.444-10.012-5.583V159.73
					c0-7.249,5.876-13.125,13.125-13.125h41.187c7.249,0,13.125,5.876,13.125,13.125v215.738
					C228.036,380.606,222.396,383.751,218.023,381.05z"/>
				<path style="fill:#FFA730;" d="M228.037,159.725v215.742c0,5.14-5.642,8.285-10.014,5.582l-15.331-9.48V159.725
					c0-7.245-5.88-13.125-13.125-13.125h25.345C222.16,146.6,228.037,152.476,228.037,159.725z"/>
			</g>
			<g>
				<path style="fill:#FFC26D;" d="M341.389,381.05l-23.707-14.647l-23.707,14.647c-4.372,2.701-10.012-0.444-10.012-5.583V159.73
					c0-7.249,5.876-13.125,13.125-13.125h41.187c7.249,0,13.125,5.876,13.125,13.125v215.738
					C351.401,380.606,345.761,383.751,341.389,381.05z"/>
				<path style="fill:#FFA730;" d="M351.402,159.725v215.742c0,5.14-5.642,8.285-10.014,5.582l-15.331-9.48V159.725
					c0-7.245-5.88-13.125-13.125-13.125h25.345C345.526,146.6,351.402,152.476,351.402,159.725z"/>
			</g>
		</g>
		<path style="fill:#FA8916;" d="M230.759,132.554c-3.338,0-6.415-2.18-7.407-5.542c-0.139-0.466-10.868-35.597-42.505-66.191
			c-3.067-2.967-3.149-7.858-0.183-10.926c2.966-3.067,7.857-3.149,10.926-0.183c34.755,33.611,46.12,71.347,46.587,72.938
			c1.202,4.094-1.143,8.387-5.237,9.59C232.212,132.453,231.479,132.554,230.759,132.554z"/>
		<path style="fill:#FA8916;" d="M283.963,161.508c-4.267,0-7.726-3.459-7.726-7.726c0-2.379,0.663-58.802,58.305-104.566
			c3.343-2.653,8.202-2.096,10.856,1.247c2.653,3.342,2.095,8.201-1.247,10.855c-51.861,41.174-52.461,91.956-52.461,92.464
			C291.69,158.049,288.23,161.508,283.963,161.508z"/>
	</g>
	<g>
		<g>
			<g>
				<g>
					<g>
						<circle style="fill:#FFCE8B;" cx="256" cy="171.398" r="105.635"/>
						<circle style="fill:#FFB54E;" cx="256" cy="171.398" r="90.808"/>
						<circle style="fill:#8998DD;" cx="256" cy="171.398" r="75.769"/>
						<path style="fill:#6D80D6;" d="M331.766,171.398c0,41.85-33.915,75.766-75.766,75.766c-3.106,0-6.169-0.188-9.172-0.555
							c37.524-4.522,66.593-36.467,66.593-75.211s-29.069-70.689-66.593-75.211c3.003-0.367,6.066-0.555,9.172-0.555
							C297.85,95.633,331.766,129.548,331.766,171.398z"/>
					</g>
				</g>
			</g>
		</g>
		<path style="fill:#FFCE8B;" d="M268.618,184.599h-3.934v-34.127c0-2.678-1.386-5.165-3.664-6.572s-5.122-1.536-7.517-0.338
			l-13.575,6.788c-3.817,1.908-5.364,6.549-3.455,10.366c1.908,3.816,6.548,5.363,10.366,3.455l2.394-1.197v21.626h-3.933
			c-4.267,0-7.726,3.459-7.726,7.726s3.459,7.726,7.726,7.726h23.319c4.267,0,7.726-3.459,7.726-7.726
			S272.885,184.599,268.618,184.599z"/>
	</g>
</g>
<g>
</g>
<g>
</g>
<g>
</g>
<g>
</g>
<g>
</g>
<g>
</g>
<g>
</g>
<g>
</g>
<g>
</g>
<g>
</g>
<g>
</g>
<g>
</g>
<g>
</g>
<g>
</g>
<g>
</g>
</svg>
