<?xml version="1.0" encoding="iso-8859-1"?>
<!-- Uploaded to SVGRepo https://www.svgrepo.com -->
<svg version="1.1" id="Capa_1" xmlns="http://www.w3.org/2000/svg" xmlns:xlink="http://www.w3.org/1999/xlink" x="0px" y="0px"
	 viewBox="0 0 512 512" style="enable-background:new 0 0 512 512;" xml:space="preserve">
<g>
	<g>
		<g>
			<path style="fill:#B6DCFF;" d="M447.811,411.787c-2.67,0-5.268-1.386-6.698-3.865l-71.015-122.794
				c-2.134-3.696-0.867-8.421,2.828-10.554c3.693-2.133,8.422-0.868,10.554,2.828l71.015,122.794
				c2.134,3.696,0.867,8.421-2.828,10.554C450.451,411.453,449.122,411.787,447.811,411.787z"/>
			<path style="fill:#DAEDFF;" d="M419.552,138.944l-18.747,167.128c-0.773,6.895-8.004,11.07-14.362,8.292l-65.696-28.701
				l-46.739-20.418l-41.671-18.214c-7.819-3.41-8.427-14.268-1.04-18.533l39.126-22.592l124.096-71.639l9.498-5.491
				c6.171-3.564,13.526,0,15.236,6.212C419.593,136.214,419.706,137.543,419.552,138.944z"/>
			<path style="fill:#B6DCFF;" d="M300.287,238.893c-0.536,9.416-6.222,17.596-14.855,21.356l-11.425,4.996l-41.671-18.214
				c-7.819-3.41-8.427-14.268-1.04-18.533l39.126-22.592l17.492,10.106C296.074,220.72,300.813,229.487,300.287,238.893z"/>
			<path style="fill:#F37D7E;" d="M419.552,138.944l-18.747,167.128c-0.773,6.895-8.004,11.07-14.362,8.292l-65.696-28.701
				c4.007-12.98,11.989-28.342,29.597-37.88c48.164-26.089,39.064-88.925,32.368-104.018
				c-19.855-44.751-42.237-16.404-49.964-34.845c-12.315-29.392,82.243-44.152,86.504,26.068
				C419.332,136.301,419.49,137.616,419.552,138.944z"/>
			<path style="fill:#ED6264;" d="M419.552,138.944l-18.747,167.129c-0.773,6.895-8.003,11.069-14.361,8.292l-3.896-1.702
				l19.491-173.72c-0.062-1.329-0.216-2.648-0.299-3.956c-1.978-32.605-23.416-46.884-44.586-49.882
				c24.941-3.636,59.555,8.035,62.099,49.882C419.335,136.297,419.49,137.616,419.552,138.944z"/>
			<path style="fill:#DAEDFF;" d="M424.709,458.837c-8.006,4.622-17.658-2.722-15.27-11.653
				c3.96-14.813,18.035-31.387,38.365-43.125c20.33-11.738,41.721-15.64,56.53-11.663c8.928,2.398,10.462,14.428,2.457,19.051
				L424.709,458.837z"/>
		</g>
		<g>
			<path style="fill:#B6DCFF;" d="M64.189,411.787c-1.311,0-2.639-0.334-3.856-1.037c-3.696-2.133-4.962-6.859-2.828-10.554
				l67.409-116.998c2.133-3.696,6.858-4.962,10.554-2.828c3.696,2.133,4.962,6.859,2.828,10.554L70.887,407.923
				C69.456,410.401,66.859,411.787,64.189,411.787z"/>
			<path style="fill:#DAEDFF;" d="M279.663,247.031l-25.631,11.198l-128.475,56.134c-6.358,2.778-13.588-1.396-14.362-8.291
				l-9.671-86.186l-9.076-80.941c-0.948-8.478,8.149-14.433,15.535-10.168l172.72,99.721
				C288.09,232.763,287.482,243.621,279.663,247.031z"/>
			<path style="fill:#FFCE8B;" d="M254.032,258.229l-128.475,56.134c-6.358,2.778-13.588-1.396-14.362-8.291l-9.671-86.186
				c9.941,3.915,21.757,12.558,34.717,29.721C169.104,293.142,235.077,209.666,254.032,258.229z"/>
			<path style="fill:#DAEDFF;" d="M87.291,458.837c8.006,4.622,17.658-2.722,15.27-11.653c-3.96-14.813-18.035-31.387-38.365-43.125
				c-20.33-11.738-41.721-15.64-56.53-11.663c-8.928,2.398-10.462,14.428-2.457,19.051L87.291,458.837z"/>
		</g>
	</g>
	<g>
		<path style="fill:#DAEDFF;" d="M256,152.684c-4.267,0-7.726-3.459-7.726-7.726v-17.672c0-4.267,3.459-7.726,7.726-7.726
			c4.268,0,7.726,3.459,7.726,7.726v17.672C263.726,149.225,260.268,152.684,256,152.684z"/>
		<g>
			<path style="fill:#DAEDFF;" d="M284.423,158.866c-1.462,0-2.94-0.414-4.251-1.28c-3.56-2.351-4.541-7.144-2.19-10.705
				l9.737-14.747c2.352-3.56,7.146-4.541,10.705-2.19c3.56,2.351,4.541,7.144,2.19,10.705l-9.737,14.747
				C289.391,157.646,286.931,158.866,284.423,158.866z"/>
			<path style="fill:#DAEDFF;" d="M227.578,158.866c-2.509,0-4.969-1.22-6.455-3.47l-9.738-14.747
				c-2.351-3.561-1.371-8.354,2.19-10.705c3.559-2.35,8.353-1.371,10.705,2.19l9.738,14.747c2.351,3.561,1.371,8.354-2.19,10.705
				C230.518,158.452,229.039,158.866,227.578,158.866z"/>
		</g>
	</g>
	<path style="fill:#A4E540;" d="M211.682,85.371c-3.4,14.793-18.141,24.034-32.925,20.635c-9.962-2.287-17.4-9.725-20.171-18.852
		c-1.339-4.43-1.576-9.251-0.464-14.083c0.103-0.464,0.227-0.917,0.361-1.37c3.956-13.979,18.244-22.551,32.564-19.254
		C205.84,55.836,215.081,70.588,211.682,85.371z"/>
	<path style="fill:#8EC737;" d="M211.682,85.375c-3.4,14.794-18.141,24.024-32.925,20.635c-0.402-0.093-0.793-0.196-1.195-0.299
		c9.395-2.617,17.101-10.168,19.44-20.336c3.307-14.392-5.347-28.732-19.44-32.636c4.255-1.185,8.87-1.36,13.485-0.299
		C205.84,55.84,215.081,70.582,211.682,85.375z"/>
	<path style="fill:#ED6264;" d="M179.118,78.716c0.144,4.265-3.194,7.84-7.459,7.984l-13.073,0.453
		c-1.339-4.43-1.576-9.251-0.464-14.083c0.103-0.464,0.227-0.917,0.361-1.37l12.651-0.443
		C175.378,71.103,178.973,74.451,179.118,78.716z"/>
</g>
<g>
</g>
<g>
</g>
<g>
</g>
<g>
</g>
<g>
</g>
<g>
</g>
<g>
</g>
<g>
</g>
<g>
</g>
<g>
</g>
<g>
</g>
<g>
</g>
<g>
</g>
<g>
</g>
<g>
</g>
</svg>
