<?xml version="1.0" encoding="iso-8859-1"?>
<!-- Uploaded to SVGRepo https://www.svgrepo.com -->
<svg version="1.1" id="Capa_1" xmlns="http://www.w3.org/2000/svg" xmlns:xlink="http://www.w3.org/1999/xlink" x="0px" y="0px"
	 viewBox="0 0 512 512" style="enable-background:new 0 0 512 512;" xml:space="preserve">
<g>
	<path style="fill:#FFBC8A;" d="M404.049,334.024v167.674c0,5.69-4.612,10.302-10.302,10.302H152.095
		c-5.69,0-10.302-4.612-10.302-10.302V310.443c0-51.963,42.124-94.087,94.087-94.087h50.5
		C351.367,216.356,404.049,269.038,404.049,334.024z"/>
	<path style="fill:#F5A871;" d="M404.046,334.02v167.678c0,5.69-4.612,10.302-10.302,10.302h-8.429V334.03
		c0-64.985-52.69-117.675-117.676-117.675h18.742C351.365,216.355,404.046,269.035,404.046,334.02z"/>
	<path style="fill:#F5A871;" d="M404.046,416.922v84.777c0,5.69-4.612,10.302-10.302,10.302h-8.429v-95.078H404.046z"/>
	<g>
		<circle style="fill:#F5A871;" cx="133.371" cy="140.396" r="25.42"/>
	</g>
	<path style="fill:#ED6264;" d="M315.792,219.096v37.787c0,14.33-5.027,27.712-13.403,38.323
		c-11.157,14.145-28.258,23.375-47.337,23.396c-20.418,0.01-38.519-10.096-49.562-25.569c-6.562-9.2-10.621-20.295-11.198-32.297
		v-52.354h110.787C310.992,208.382,315.792,213.183,315.792,219.096z"/>
	<path style="fill:#E84649;" d="M302.39,295.207c-11.157,14.145-28.258,23.375-47.337,23.396
		c-20.418,0.01-38.519-10.096-49.562-25.569c9.879-16.05,27.619-26.775,47.811-26.775
		C274.389,266.258,292.798,277.961,302.39,295.207z"/>
	<path style="fill:#FFBC8A;" d="M140.831,70.565v86.508c0,44.305,35.88,80.226,80.167,80.3v20.443
		c0,18.783,15.226,34.009,34.009,34.009h0c18.783,0,34.009-15.226,34.009-34.009V70.565H140.831z"/>
	<g>
		<path style="fill:#756F6F;" d="M316.253,97.223v15.218c0,5.912-4.798,10.709-10.709,10.709H132.5
			c-5.912,0-10.709-4.798-10.709-10.709V98.444c0-53.611,42.881-98.045,96.492-98.441c37.226-0.278,69.644,20.359,86.222,50.859
			C312.001,64.634,316.253,80.431,316.253,97.223z"/>
		<path style="fill:#5B5555;" d="M316.253,97.223v15.218c0,5.912-4.798,10.709-10.709,10.709h-24.728
			c5.912,0,10.709-4.798,10.709-10.709V97.223c0-16.792-4.252-32.589-11.748-46.361C265.18,24.003,238.299,4.801,206.674,0.785
			c3.802-0.493,7.679-0.75,11.609-0.782c37.226-0.278,69.644,20.359,86.222,50.859C312.001,64.634,316.253,80.431,316.253,97.223z"
			/>
		<path style="fill:#FFF5F5;" d="M316.253,97.223v15.218c0,5.912-4.798,10.709-10.709,10.709H203.697l0.021-0.696
			c1.232-47.175,16.717-83.866,44.284-106.291c3.416-2.774,7.025-5.333,10.806-7.668c19.48,8.739,35.555,23.7,45.697,42.367
			C312.001,64.634,316.253,80.431,316.253,97.223z"/>
		<path style="fill:#EFE2DD;" d="M316.253,97.223v15.218c0,5.912-4.798,10.709-10.709,10.709h-24.728
			c5.912,0,10.709-4.798,10.709-10.709V97.223c0-16.792-4.252-32.589-11.748-46.361c-7.604-13.997-18.56-25.917-31.775-34.699
			c3.416-2.774,7.025-5.333,10.806-7.668c19.48,8.739,35.555,23.7,45.697,42.367C312.001,64.634,316.253,80.431,316.253,97.223z"/>
		<path style="fill:#BDEB73;" d="M316.253,97.223v15.218c0,5.912-4.798,10.709-10.709,10.709h-75.063
			c0.739-28.455,7.85-67.266,37.901-88.878c4.776-3.438,10.131-6.447,16.128-8.9c8,7.282,14.779,15.904,19.995,25.488
			C312.001,64.634,316.253,80.431,316.253,97.223z"/>
		<path style="fill:#8EC737;" d="M316.253,97.223v15.218c0,5.912-4.798,10.709-10.709,10.709h-24.728
			c5.912,0,10.709-4.798,10.709-10.709V97.223c0-16.792-4.252-32.589-11.748-46.361c-3.224-5.933-7.047-11.491-11.395-16.589
			c4.776-3.438,10.131-6.447,16.128-8.9c8,7.282,14.779,15.904,19.995,25.488C312.001,64.634,316.253,80.431,316.253,97.223z"/>
	</g>
	<g>
		<circle style="fill:#FFBC8A;" cx="298.342" cy="140.396" r="25.42"/>
	</g>
	<g>
		<circle style="fill:#DAEDFF;" cx="253.298" cy="322.375" r="41.693"/>
		<path style="fill:#B6DCFF;" d="M294.991,322.379c0,23.028-18.663,41.691-41.691,41.691c-4.402,0-8.642-0.677-12.63-1.944
			c16.844-5.356,29.061-21.121,29.061-39.747c0-18.625-12.216-34.391-29.061-39.759c3.988-1.267,8.228-1.944,12.63-1.944
			C276.327,280.676,294.991,299.352,294.991,322.379z"/>
	</g>
	<path style="fill:#F5A871;" d="M229.407,217.177c-0.581,0-0.916-0.02-0.946-0.023c-4.256-0.31-7.455-4.011-7.145-8.267
		c0.308-4.233,3.972-7.42,8.198-7.15c2.558,0.123,15.234-0.119,17.895-16.995c0.665-4.215,4.623-7.089,8.836-6.429
		c4.215,0.665,7.093,4.621,6.429,8.836C258.182,215.634,234.463,217.177,229.407,217.177z"/>
	<path style="fill:#2EA8FC;" d="M262.86,328.989h-0.188v-20.682c0-2.678-1.386-5.165-3.665-6.572
		c-2.277-1.407-5.121-1.536-7.517-0.339l-9.215,4.607c-3.816,1.908-5.364,6.549-3.456,10.366c1.589,3.179,5.07,4.783,8.399,4.128
		v8.492h-0.188c-4.267,0-7.726,3.459-7.726,7.726c0,4.267,3.459,7.726,7.726,7.726h15.829c4.267,0,7.726-3.459,7.726-7.726
		C270.586,332.449,267.127,328.989,262.86,328.989z"/>
	<g>
		<path style="fill:#F5A871;" d="M337.653,365.661c-4.265,0-7.726,3.451-7.726,7.726v23.904h-46.204
			c-4.371,0-7.928-3.556-7.928-7.928c0-4.267-3.459-7.726-7.726-7.726s-7.726,3.459-7.726,7.726c0,12.892,10.489,23.38,23.38,23.38
			h46.204V512h15.453V373.388C345.379,369.113,341.918,365.661,337.653,365.661z"/>
		<path style="fill:#F5A871;" d="M240.058,381.638c-4.267,0-7.726,3.459-7.726,7.726c0,4.371-3.556,7.928-7.928,7.928h-22.839
			v-23.904c0-4.275-3.451-7.726-7.726-7.726c-4.265,0-7.726,3.451-7.726,7.726V512h15.453v-99.255h22.839
			c12.892,0,23.38-10.489,23.38-23.38C247.785,385.097,244.325,381.638,240.058,381.638z"/>
		<path style="fill:#F5A871;" d="M255.65,430.059c-4.275,0-7.726,3.461-7.726,7.726V512h15.453v-74.215
			C263.376,433.52,259.915,430.059,255.65,430.059z"/>
		<path style="fill:#F5A871;" d="M294.396,445.922h-11.505c-4.267,0-7.726,3.459-7.726,7.726c0,4.267,3.459,7.726,7.726,7.726
			h11.505c4.267,0,7.726-3.459,7.726-7.726C302.123,449.381,298.663,445.922,294.396,445.922z"/>
		<path style="fill:#F5A871;" d="M294.396,474.109h-11.505c-4.267,0-7.726,3.459-7.726,7.726s3.459,7.726,7.726,7.726h11.505
			c4.267,0,7.726-3.459,7.726-7.726S298.663,474.109,294.396,474.109z"/>
		<path style="fill:#F5A871;" d="M231.211,445.922h-11.505c-4.267,0-7.726,3.459-7.726,7.726c0,4.267,3.459,7.726,7.726,7.726
			h11.505c4.267,0,7.726-3.459,7.726-7.726C238.937,449.381,235.478,445.922,231.211,445.922z"/>
		<path style="fill:#F5A871;" d="M231.211,474.109h-11.505c-4.267,0-7.726,3.459-7.726,7.726s3.459,7.726,7.726,7.726h11.505
			c4.267,0,7.726-3.459,7.726-7.726S235.478,474.109,231.211,474.109z"/>
	</g>
	<g>
		<path style="fill:#5169CE;" d="M184.866,155.174h-30.145c-11.857,0-21.469-9.612-21.469-21.469v-10.04
			c0-4.963,4.023-8.985,8.985-8.985h55.112c4.963,0,8.985,4.023,8.985,8.985v10.04C206.334,145.562,196.723,155.174,184.866,155.174
			z"/>
		<path style="fill:#3351C6;" d="M206.331,123.665v10.045c0,11.855-9.606,21.462-21.462,21.462h-18.067
			c11.855,0,21.462-9.606,21.462-21.462v-10.045c0-4.958-4.016-8.985-8.985-8.985h18.067
			C202.315,114.68,206.331,118.706,206.331,123.665z"/>
	</g>
	<g>
		<path style="fill:#5169CE;" d="M261.111,158.226h-31.69c-12.75,0-23.086-10.336-23.086-23.086v-10.797
			c0-5.336,4.326-9.663,9.663-9.663h58.538c5.336,0,9.663,4.326,9.663,9.663v10.797
			C284.198,147.889,273.861,158.226,261.111,158.226z"/>
		<path style="fill:#3351C6;" d="M284.2,124.339v10.795c0,12.755-10.335,23.09-23.09,23.09h-18.977
			c12.744,0,23.079-10.335,23.079-23.09v-10.795c0-5.333-4.327-9.66-9.66-9.66h18.988C279.873,114.68,284.2,119.006,284.2,124.339z"
			/>
	</g>
	<g>
		<path style="fill:#ED6264;" d="M216.002,173.115c0,13.71-6.981,16.927-15.593,16.927s-15.593-3.218-15.593-16.927
			c0-13.71,6.981-32.719,15.593-32.719S216.002,159.406,216.002,173.115z"/>
	</g>
</g>
<g>
</g>
<g>
</g>
<g>
</g>
<g>
</g>
<g>
</g>
<g>
</g>
<g>
</g>
<g>
</g>
<g>
</g>
<g>
</g>
<g>
</g>
<g>
</g>
<g>
</g>
<g>
</g>
<g>
</g>
</svg>
