<?xml version="1.0" encoding="iso-8859-1"?>
<!-- Uploaded to SVGRepo https://www.svgrepo.com -->
<svg version="1.1" id="Capa_1" xmlns="http://www.w3.org/2000/svg" xmlns:xlink="http://www.w3.org/1999/xlink" x="0px" y="0px"
	 viewBox="0 0 512 512" style="enable-background:new 0 0 512 512;" xml:space="preserve">
<g>
	<rect x="157.494" y="42.999" style="fill:#FFB54E;" width="197.012" height="54.672"/>
	<polygon style="fill:#FF9A1B;" points="213.114,97.671 157.494,97.671 157.494,42.999 188.647,42.999 	"/>
	<polygon style="fill:#FF9A1B;" points="354.506,42.999 354.506,97.671 298.886,97.671 323.353,42.999 	"/>
	<g>
		<g>
			<path style="fill:#FFCE8B;" d="M258.891,235.298L172.855,42.998h-42.342c-7.466,0-12.453,7.694-9.404,14.509l79.544,177.792
				H258.891z"/>
			<polygon style="fill:#FFB54E;" points="258.895,235.303 236.952,235.303 150.911,42.999 172.854,42.999 			"/>
		</g>
		<g>
			<path style="fill:#FFCE8B;" d="M253.109,235.298l86.036-192.301h42.342c7.466,0,12.453,7.694,9.404,14.509l-79.544,177.792
				H253.109z"/>
			<path style="fill:#FFB54E;" d="M390.892,57.504l-79.54,177.799h-22.087l79.54-177.799c3.049-6.81-1.937-14.505-9.406-14.505
				h22.087C388.955,42.999,393.941,50.695,390.892,57.504z"/>
		</g>
	</g>
	<g>
		<g>
			<path style="fill:#83B832;" d="M374.481,469.002c-2.911,0-5.699-1.653-7.009-4.467c-1.802-3.868-0.126-8.464,3.742-10.266
				c33.86-15.77,58.795-38.031,74.11-66.166c12.287-22.572,18.538-49.087,18.578-78.805c0.07-51.417-18.694-95.031-18.883-95.466
				c-1.706-3.909,0.078-8.463,3.987-10.171s8.46,0.071,10.17,3.979c0.823,1.878,20.137,46.626,20.179,101.188
				c0.04,51.132-17.557,120.3-101.618,159.449C376.683,468.769,375.572,469.002,374.481,469.002z"/>
			<g>
				<path style="fill:#BDEB73;" d="M452.432,150.892c8.582,24.851,10.865,60.983-0.37,64.863
					c-11.236,3.88-31.736-25.96-40.318-50.811c-8.582-24.851-1.997-35.303,9.239-39.183
					C432.218,121.88,443.849,126.041,452.432,150.892z"/>
			</g>
			<g>
				<path style="fill:#9AD63B;" d="M452.058,215.75c-2.614,0.906-5.738-0.021-9.102-2.291c3.583-13.039,0.687-37.805-5.707-56.322
					c-6.79-19.652-15.486-26.359-24.391-26.39c2.187-2.291,4.968-3.905,8.123-4.989c11.237-3.874,22.87,0.281,31.452,25.13
					C461.015,175.748,463.296,211.876,452.058,215.75z"/>
			</g>
			<g>
				<path style="fill:#8EC737;" d="M472.044,312.189c-5.186,3.833-15.945-0.989-27.192-9.571
					c-9.488-7.248-19.329-17.163-26.484-26.838c-15.632-21.152-12.477-33.087-2.916-40.158c9.29-6.863,21.214-6.592,36.232,12.851
					c0.437,0.552,0.864,1.125,1.302,1.719C468.607,271.332,481.604,305.117,472.044,312.189z"/>
				<path style="fill:#83B832;" d="M472.044,312.189c-5.186,3.833-15.945-0.989-27.192-9.571c-0.615-4.437-0.792-9.446-0.531-15.007
					c0.573-12.393,3.281-26.64,7.363-39.138c0.437,0.552,0.864,1.125,1.302,1.719C468.607,271.332,481.604,305.117,472.044,312.189z
					"/>
				<path style="fill:#BDEB73;" d="M467.238,248.204c-9.264,24.605-12.543,60.66-1.419,64.848s32.44-25.075,41.704-49.68
					c9.264-24.605,2.97-35.234-8.155-39.423C488.245,219.761,476.503,223.599,467.238,248.204z"/>
				<path style="fill:#9AD63B;" d="M507.526,263.376c-9.269,24.599-30.577,53.864-41.71,49.677c-2.593-0.968-4.395-3.676-5.53-7.561
					c11.102-7.644,24.787-28.671,31.723-47.084c7.301-19.402,4.936-30.108-1.843-35.826c3.072-0.323,6.165,0.219,9.206,1.364
					C510.494,228.143,516.785,238.766,507.526,263.376z"/>
			</g>
			<g>
				<path style="fill:#8EC737;" d="M445.216,418.156c-6.28,1.479-14.257-7.207-21.204-19.538
					c-5.863-10.394-10.987-23.401-13.747-35.107c-6.02-25.588,1.593-35.326,13.164-38.044c11.258-2.645,22.11,2.312,28.234,26.12
					c0.177,0.677,0.344,1.364,0.51,2.072C458.182,379.258,456.787,415.428,445.216,418.156z"/>
				<path style="fill:#83B832;" d="M445.216,418.156c-6.28,1.479-14.257-7.207-21.204-19.538c1.177-4.322,2.989-8.988,5.426-13.997
					c5.426-11.164,13.539-23.172,22.225-33.035c0.177,0.677,0.344,1.364,0.51,2.072
					C458.182,379.258,456.787,415.428,445.216,418.156z"/>
				<path style="fill:#BDEB73;" d="M466.051,357.466c-18.223,18.952-35.464,50.786-26.896,59.025
					c8.569,8.239,39.702-10.237,57.925-29.189c18.223-18.952,16.634-31.202,8.065-39.441
					C496.577,339.621,484.273,338.514,466.051,357.466z"/>
				<path style="fill:#9AD63B;" d="M497.08,387.298c-18.225,18.954-49.354,37.43-57.926,29.192
					c-1.323-1.271-2.031-3.114-2.208-5.384c13.226-3.885,32.139-16.83,44.814-30.004c17.746-18.454,16.705-30.556,8.727-38.794
					c5.853-0.583,10.664,1.708,14.653,5.551C513.712,356.096,515.306,368.354,497.08,387.298z"/>
			</g>
		</g>
		<g>
			<path style="fill:#83B832;" d="M137.519,469.002c-1.093,0-2.201-0.232-3.257-0.724C50.202,429.129,32.605,359.961,32.645,308.829
				c0.042-54.562,19.356-99.31,20.179-101.188c1.711-3.908,6.265-5.689,10.176-3.979c3.907,1.71,5.689,6.264,3.981,10.171l0,0
				c-0.189,0.435-18.954,44.049-18.883,95.466c0.04,29.718,6.292,56.232,18.578,78.805c15.315,28.135,40.249,50.396,74.11,66.166
				c3.868,1.802,5.544,6.397,3.742,10.266C143.218,467.348,140.431,469.002,137.519,469.002z"/>
			<g>
				<path style="fill:#BDEB73;" d="M59.568,150.892c-8.582,24.851-10.865,60.983,0.37,64.863s31.736-25.96,40.318-50.811
					s1.997-35.303-9.239-39.183S68.151,126.041,59.568,150.892z"/>
			</g>
			<g>
				<path style="fill:#9AD63B;" d="M100.256,164.948c-8.582,24.849-29.077,54.687-40.315,50.802c-2.76-0.948-4.707-3.843-5.936-8.05
					c10.935-7.821,24.172-29.39,30.64-48.115c6.478-18.767,4.312-29.327-1.979-35.024c2.77-0.229,5.572,0.24,8.352,1.198
					C102.256,129.643,108.837,140.089,100.256,164.948z"/>
			</g>
			<g>
				<path style="fill:#8EC737;" d="M39.956,312.189c5.186,3.833,15.945-0.989,27.192-9.571c9.488-7.248,19.329-17.163,26.484-26.838
					c15.632-21.152,12.477-33.087,2.916-40.158c-9.29-6.863-21.214-6.592-36.232,12.851c-0.437,0.552-0.864,1.125-1.302,1.719
					C43.393,271.332,30.396,305.117,39.956,312.189z"/>
				<path style="fill:#83B832;" d="M93.632,275.779c-7.155,9.675-16.996,19.59-26.484,26.838
					c-11.248,8.582-22.006,13.404-27.192,9.571c-1.406-1.041-2.333-2.676-2.822-4.749c4.353-1.896,9.259-4.968,14.257-8.779
					c9.488-7.249,19.329-17.163,26.484-26.838c15.382-20.808,12.57-32.702,3.374-39.804c5.738-1.354,10.831,0.302,15.299,3.604
					C106.109,242.692,109.264,254.628,93.632,275.779z"/>
				<path style="fill:#83B832;" d="M39.956,312.189c5.186,3.833,15.945-0.989,27.192-9.571c0.614-4.437,0.792-9.446,0.531-15.007
					c-0.573-12.393-3.281-26.64-7.363-39.138c-0.437,0.552-0.864,1.125-1.302,1.719C43.393,271.332,30.396,305.117,39.956,312.189z"
					/>
				<path style="fill:#BDEB73;" d="M44.762,248.204c9.264,24.605,12.543,60.66,1.419,64.848s-32.44-25.075-41.704-49.68
					c-9.264-24.605-2.97-35.234,8.155-39.423S35.497,223.599,44.762,248.204z"/>
				<path style="fill:#9AD63B;" d="M46.184,313.053c-2.802,1.052-6.249-0.01-9.987-2.593c4.062-12.56,0.479-38.732-6.749-57.925
					c-6.592-17.496-14.424-24.485-22.402-25.557c1.645-1.271,3.53-2.26,5.582-3.031c11.123-4.187,22.87-0.344,32.129,24.255
					C54.026,272.811,57.306,308.866,46.184,313.053z"/>
			</g>
			<g>
				<path style="fill:#8EC737;" d="M66.784,418.156c6.28,1.479,14.257-7.207,21.204-19.538
					c5.863-10.394,10.987-23.401,13.747-35.107c6.02-25.588-1.593-35.326-13.164-38.044c-11.258-2.645-22.11,2.312-28.234,26.12
					c-0.177,0.677-0.344,1.364-0.51,2.072C53.818,379.258,55.213,415.428,66.784,418.156z"/>
				<path style="fill:#83B832;" d="M101.735,363.511c-2.76,11.706-7.884,24.714-13.747,35.107
					c-6.946,12.331-14.924,21.017-21.204,19.538c-2.958-0.698-5.249-3.583-6.926-7.915c4.062-3.468,8.28-9.238,12.164-16.143
					c5.863-10.394,10.987-23.401,13.747-35.107c4.364-18.538,1.562-28.765-4.707-34.014c2.447-0.312,4.968-0.104,7.509,0.489
					C100.141,328.185,107.754,337.923,101.735,363.511z"/>
				<path style="fill:#83B832;" d="M66.784,418.156c6.28,1.479,14.257-7.207,21.204-19.538c-1.177-4.322-2.989-8.988-5.426-13.997
					c-5.426-11.164-13.539-23.172-22.225-33.035c-0.177,0.677-0.344,1.364-0.51,2.072C53.818,379.258,55.213,415.428,66.784,418.156
					z"/>
				<path style="fill:#BDEB73;" d="M45.949,357.466c18.223,18.952,35.464,50.786,26.896,59.025s-39.702-10.237-57.925-29.189
					C-3.303,368.35-1.714,356.099,6.855,347.86S27.727,338.514,45.949,357.466z"/>
				<path style="fill:#9AD63B;" d="M72.845,416.49c-2.739,2.635-7.79,2.541-13.987,0.562c2.302-11.821-12.935-38.367-28.921-54.989
					c-8.748-9.102-16.132-13.57-22.391-14.851c8.529-7.634,20.662-8.196,38.398,10.258C64.17,376.415,81.416,408.252,72.845,416.49z
					"/>
			</g>
		</g>
	</g>
	<g>
		<circle style="fill:#F37D7E;" cx="256" cy="341.677" r="123.199"/>
		<circle style="fill:#ED6264;" cx="256" cy="341.677" r="105.907"/>
		<circle style="fill:#65BAFC;" cx="256" cy="341.677" r="91.484"/>
		<path style="fill:#2EA8FC;" d="M347.48,341.677c0,50.53-40.95,91.48-91.48,91.48c-3.75,0-7.448-0.227-11.074-0.67
			c45.307-5.46,80.406-44.03,80.406-90.81s-35.098-85.35-80.406-90.81c3.626-0.443,7.325-0.67,11.074-0.67
			C306.53,250.197,347.48,291.146,347.48,341.677z"/>
		<g>
			<path style="fill:#FFCE8B;" d="M304.295,333.508l-20.408,19.893l4.811,28.093c0.721,4.203-3.688,7.417-7.469,5.429L256,373.654
				l-25.229,13.269c-3.781,1.988-8.19-1.226-7.469-5.429l2.266-13.248l2.545-14.845l-20.408-19.893
				c-3.049-2.977-1.37-8.169,2.854-8.787l28.206-4.1l12.62-25.559c1.885-3.822,7.345-3.822,9.23,0l12.62,25.559l11.878,1.731
				l16.328,2.369C305.665,325.339,307.344,330.531,304.295,333.508z"/>
			<path style="fill:#FFB54E;" d="M304.295,333.508l-20.408,19.893l4.811,28.093c0.721,4.203-3.688,7.417-7.469,5.429L256,373.654
				l-25.229,13.269c-3.781,1.988-8.19-1.226-7.469-5.429l2.266-13.248c37.849-10.477,53.302-31.709,59.544-45.895l16.328,2.369
				C305.665,325.339,307.344,330.531,304.295,333.508z"/>
		</g>
	</g>
</g>
<g>
</g>
<g>
</g>
<g>
</g>
<g>
</g>
<g>
</g>
<g>
</g>
<g>
</g>
<g>
</g>
<g>
</g>
<g>
</g>
<g>
</g>
<g>
</g>
<g>
</g>
<g>
</g>
<g>
</g>
</svg>
