<?xml version="1.0" encoding="iso-8859-1"?>
<!-- Uploaded to SVGRepo https://www.svgrepo.com -->
<svg version="1.1" id="Capa_1" xmlns="http://www.w3.org/2000/svg" xmlns:xlink="http://www.w3.org/1999/xlink" x="0px" y="0px"
	 viewBox="0 0 512 512" style="enable-background:new 0 0 512 512;" xml:space="preserve">
<g>
	<g>
		<g>
			<path style="fill:#B6DCFF;" d="M512,148.83c0,17.544-9.601,32.842-23.838,40.919c-6.84,3.894-14.752,6.109-23.189,6.109H335.231
				v-56.784h167.013c2.689,0,5.13,1.092,6.902,2.854C510.908,143.7,512,146.141,512,148.83z"/>
			<path style="fill:#8ECBFD;" d="M488.223,187.029c0,0.907-0.02,1.813-0.062,2.72c-6.84,3.894-14.752,6.109-23.189,6.109H335.231
				v-33.007h128.814C477.376,162.851,488.223,173.699,488.223,187.029z"/>
			<path style="fill:#DAEDFF;" d="M473.801,187.029c0,17.544-9.601,32.832-23.838,40.909c-6.84,3.894-14.752,6.109-23.189,6.109
				h-91.542v-56.773h128.814c2.689,0,5.13,1.092,6.902,2.854C472.709,181.899,473.801,184.341,473.801,187.029z"/>
			<path style="fill:#B6DCFF;" d="M450.024,225.229c0,0.907-0.021,1.813-0.062,2.709c-6.84,3.894-14.752,6.109-23.189,6.109h-91.542
				V201.05h90.615C439.177,201.05,450.024,211.898,450.024,225.229z"/>
			<path style="fill:#DAEDFF;" d="M425.845,215.47h-90.611v56.781h53.344c25.971,0,47.024-21.053,47.024-47.024v0
				C435.602,219.838,431.233,215.47,425.845,215.47z"/>
		</g>
		<g>
			<path style="fill:#B6DCFF;" d="M176.769,139.074v56.784H47.028c-8.437,0-16.349-2.215-23.189-6.109
				C9.601,181.672,0,166.374,0,148.83c0-2.689,1.092-5.13,2.854-6.902c1.772-1.762,4.213-2.854,6.902-2.854H176.769z"/>
			<path style="fill:#8ECBFD;" d="M176.769,162.851v33.007H47.028c-8.437,0-16.349-2.215-23.189-6.109
				c-0.041-0.907-0.062-1.813-0.062-2.72c0-13.331,10.848-24.178,24.178-24.178H176.769z"/>
			<path style="fill:#DAEDFF;" d="M176.769,177.274v56.773H85.227c-8.437,0-16.349-2.215-23.189-6.109
				c-14.237-8.077-23.838-23.365-23.838-40.909c0-2.689,1.092-5.13,2.853-6.902c1.772-1.762,4.213-2.854,6.902-2.854H176.769z"/>
			<path style="fill:#B6DCFF;" d="M176.769,201.05v32.997H85.227c-8.437,0-16.349-2.215-23.189-6.109
				c-0.041-0.896-0.062-1.803-0.062-2.709c0-13.331,10.848-24.178,24.178-24.178H176.769z"/>
			<path style="fill:#DAEDFF;" d="M86.155,215.47h90.611v56.781h-53.344c-25.971,0-47.024-21.053-47.024-47.024v0
				C76.398,219.838,80.767,215.47,86.155,215.47z"/>
		</g>
	</g>
	<g>
		<g>
			<g>
				<g>
					<circle style="fill:#FFB54E;" cx="256" cy="222.362" r="139.445"/>
					<circle style="fill:#FF9A1B;" cx="256.234" cy="222.362" r="118.835"/>
					<circle style="fill:#FFCE8B;" cx="256" cy="222.362" r="103.634"/>
					<path style="fill:#FFB54E;" d="M359.871,222.365c0,57.229-46.406,103.635-103.635,103.635c-3.182,0-6.332-0.145-9.442-0.426
						c52.81-4.765,94.193-49.162,94.193-103.209c0-54.055-41.383-98.444-94.193-103.209c3.11-0.281,6.26-0.426,9.442-0.426
						C313.466,118.73,359.871,165.127,359.871,222.365z"/>
				</g>
				<g>
					<path style="fill:#FFA730;" d="M273.224,249.134v-68.679c0-4.751-1.996-9.363-5.685-12.358
						c-5.395-4.379-12.845-4.605-18.417-0.876l-25.368,16.979c-3.554,2.379-4.507,7.188-2.128,10.743l8.615,12.871
						c2.379,3.554,7.188,4.507,10.743,2.128l1.266-0.847v40.039H231.06c-4.277,0-7.744,3.467-7.744,7.744v15.487
						c0,4.277,3.467,7.744,7.744,7.744h53.353c4.277,0,7.744-3.467,7.744-7.744v-15.487c0-4.277-3.467-7.744-7.744-7.744H273.224z"
						/>
				</g>
			</g>
		</g>
		<g>
			<g>
				<path style="fill:#E84649;" d="M491.189,391.953l17.314,19.788c5.915,6.761,1.114,17.341-7.869,17.341H380.626
					c-5.775,0-10.456-4.681-10.456-10.456v-66.135h131.354c8.836,0,13.688,10.28,8.072,17.102L491.189,391.953z"/>
				<path style="fill:#D73337;" d="M432.342,352.492v17.075c0,13.833-11.251,25.095-25.095,25.095H370.17v-42.169H432.342z"/>
				<path style="fill:#E84649;" d="M141.83,352.492v66.135c0,5.775-4.681,10.456-10.456,10.456H11.366
					c-8.983,0-13.785-10.581-7.869-17.341l17.314-19.788L2.404,369.594c-5.616-6.822-0.763-17.102,8.072-17.102H141.83z"/>
				<path style="fill:#D73337;" d="M79.658,352.492h62.172v42.169h-37.077c-13.844,0-25.095-11.261-25.095-25.095V352.492z"/>
			</g>
			<path style="fill:#ED6264;" d="M407.252,380.023H104.748c-5.775,0-10.456-4.681-10.456-10.456v-45.32
				c0-5.775,4.681-10.456,10.456-10.456h302.504c5.775,0,10.456,4.681,10.456,10.456v45.32
				C417.708,375.342,413.027,380.023,407.252,380.023z"/>
			<path style="fill:#E84649;" d="M417.703,324.25v45.317c0,5.772-4.674,10.456-10.456,10.456h-24.54
				c5.782,0,10.456-4.684,10.456-10.456V324.25c0-5.782-4.674-10.456-10.456-10.456h24.54
				C413.029,313.794,417.703,318.468,417.703,324.25z"/>
		</g>
	</g>
</g>
<g>
</g>
<g>
</g>
<g>
</g>
<g>
</g>
<g>
</g>
<g>
</g>
<g>
</g>
<g>
</g>
<g>
</g>
<g>
</g>
<g>
</g>
<g>
</g>
<g>
</g>
<g>
</g>
<g>
</g>
</svg>
