<?xml version="1.0" ?><!DOCTYPE svg  PUBLIC '-//W3C//DTD SVG 1.1//EN'  'http://www.w3.org/Graphics/SVG/1.1/DTD/svg11.dtd'><svg width="513px" height="513px" viewBox="0 -0.5 513 513" style="fill-rule:evenodd;clip-rule:evenodd;stroke-linejoin:round;stroke-miterlimit:2;" version="1.1" xml:space="preserve" xmlns="http://www.w3.org/2000/svg" xmlns:serif="http://www.serif.com/" xmlns:xlink="http://www.w3.org/1999/xlink"><g transform="matrix(1,0,0,1,-2335,0)"><g id="pumpkin-pie" transform="matrix(1.35364,0,0,0.670162,1764.2,-501.943)"><rect height="763.994" style="fill:none;" width="378.238" x="421.762" y="748.988"/><g transform="matrix(2.01376,0.484546,-0.145341,2.46439,-2340.88,-3476.13)"><path d="M1608.5,1439.36C1636.65,1443.54 1641.02,1463.7 1644.83,1490.41C1652.54,1544.39 1650.81,1567.51 1648.65,1570.28C1640.3,1624.38 1603.91,1630.21 1603.91,1630.21C1601.24,1642.86 1520.02,1669.7 1509.19,1658.52C1498.36,1646.48 1501.64,1630.44 1504.67,1615.88C1504.67,1615.88 1528.62,1552.93 1527.41,1550.2C1527.41,1550.2 1501.51,1511.76 1509.98,1480.79C1515.98,1458.83 1574.69,1434.34 1608.5,1439.36Z" style="fill:rgb(244,213,134);"/></g><g><g transform="matrix(0.878522,-0.340445,0.159879,1.71908,-1701.87,1593.84)"><path d="M2453.91,292.551C2567.45,329.484 2676.14,382.43 2681.27,383.273L2674.09,395.418L2447.18,302.477C2442.23,306.304 2438.88,209.631 2442,201.851C2445.32,193.565 2427.12,180.399 2423.14,175.045C2419.11,169.609 2429.5,147.398 2438.96,152.989C2445.29,156.733 2456.99,199.099 2456.89,199.911C2455.82,208.876 2453.91,292.551 2453.91,292.551Z" style="fill:rgb(255,183,117);"/></g><g transform="matrix(0.878522,-0.340445,0.159879,1.71908,-1701.87,1593.84)"><path d="M2441.55,152.757C2441.55,152.757 2439.32,154.641 2443.57,161.73C2444.7,163.625 2456.28,187.195 2453.9,200.233C2453.19,204.145 2487.95,177.686 2528.48,159.54C2549.55,150.109 2567,147.113 2565.73,144.094C2563.41,138.565 2567.93,132.025 2567.93,132.025C2566.51,127.694 2588.64,116.295 2597.1,115.749C2599.02,115.625 2598.36,109.483 2598.39,108.622C2598.41,108.068 2592.61,108.241 2586.25,106.037C2577.24,102.919 2566.2,95.031 2556.64,97.75C2554.29,98.419 2526.18,103.206 2523.38,103.925C2507.71,107.955 2509.35,113.806 2493.56,122.637C2482.35,128.908 2480.8,135.687 2471.51,140.354C2465.24,143.503 2461.08,138.128 2456.31,140.816C2445.84,146.706 2441.55,152.757 2441.55,152.757Z" style="fill:rgb(207,137,29);"/></g><g transform="matrix(0.878522,-0.340445,0.159879,1.71908,-1701.87,1593.84)"><path d="M2563.11,100.542C2559.48,100.778 2556.01,102.551 2552.37,103.771C2543.99,106.561 2535.38,108.676 2526.62,110.233C2512.72,112.782 2511.4,117.269 2500.69,126.317C2495.23,129.023 2485.1,132.012 2481.78,136.987C2478.03,142.61 2479.6,148.276 2473.08,149.906C2470.52,150.547 2463.9,150.758 2461.44,149.13C2457.75,146.758 2450.89,161.032 2448.69,164.016C2447.51,165.61 2446.15,161.376 2446.15,161.376C2445.16,161.449 2444.12,161.923 2443.17,161.594L2443.16,161.591C2441.85,160.804 2441.83,160.795 2440.91,159.551L2440.68,156.46C2442.02,152.244 2444.74,148.394 2447.63,145.351C2452.14,140.611 2459.37,137.847 2465.78,141.807C2466.35,142.174 2467.19,142.712 2467.19,142.712C2470.82,141.125 2473.42,137.091 2476.13,134.023C2480.07,129.591 2484.73,126.019 2488.68,122.346C2499.55,112.27 2512,104.248 2527.03,102.059C2536.57,100.641 2545.91,98.251 2555.27,95.611C2560.73,94.085 2566.36,92.984 2571.91,99.16C2573.81,101.283 2575.69,103.039 2578.75,104.253C2582.06,105.579 2596.93,106.135 2594.82,109.664C2593.14,112.483 2595.48,115.112 2595.12,114.9C2589.78,111.811 2580.67,110.604 2574.85,108.581C2570.69,107.076 2568.28,102.35 2564.35,100.75C2561.71,99.676 2564.44,100.468 2563.32,100.535C2563.32,100.535 2563.26,100.535 2563.11,100.542Z" style="fill:rgb(244,209,155);"/></g><g transform="matrix(0.878522,-0.340445,0.159879,1.71908,-1701.87,1593.84)"><path d="M2456.87,201.158L2482.69,212.929L2715.08,308.377C2715.08,308.377 2716.98,304.552 2710.66,296.216C2704.17,287.658 2576.91,139.31 2563.91,142.881C2548.6,147.089 2530.47,161.678 2518.57,166.378C2496.28,175.186 2458.05,200.51 2456.87,201.158Z" style="fill:rgb(241,145,0);"/></g><g transform="matrix(0.909015,-0.352262,0.179786,1.93312,-1793.26,1539.41)"><path d="M2463.1,223.639L2715.66,319.087L2682.36,386.296L2463.26,305.015L2463.1,223.639Z" style="fill:rgb(255,188,55);"/></g><g transform="matrix(0.738747,0,0,1.49218,-1303.29,748.988)"><path d="M2572.57,121.675C2574.14,121.939 2575.25,122.037 2577.32,123.991C2580.44,126.892 2583.56,129.79 2586.69,132.687L2588.87,134.711L2589.47,135.264C2597.02,142.385 2604.58,149.504 2612.16,156.62L2613.25,157.643C2626.51,170.416 2639.68,183.286 2652.74,196.34L2654.24,197.835C2674.19,218.593 2693.88,239.495 2713.79,260.606C2726.63,274.205 2738.84,288.67 2752.7,300.904C2753.48,301.598 2754.71,302.58 2754.71,302.58C2756.43,303.869 2755.78,303.368 2756.3,303.563C2756.3,303.563 2758.02,304.599 2755.03,303.157C2749.36,300.42 2744.3,296.197 2739.27,292.365C2721.35,278.702 2703.97,264.245 2686.76,249.702L2686.47,249.457C2679.22,243.191 2671.99,236.905 2664.78,230.605L2664.22,230.118C2657.07,223.684 2649.93,217.236 2642.8,210.779L2642.2,210.235C2635.46,203.861 2628.72,197.475 2621.99,191.085L2621.68,190.79C2615.56,184.708 2609.45,178.621 2603.35,172.529L2600.97,170.158C2593.93,162.932 2586.89,155.696 2579.86,148.454L2578.17,146.717C2575.67,144.097 2573.18,141.475 2570.68,138.852L2562.03,145.347L2561.74,144.967L2533.31,166.473L2532.52,165.421L2476.11,204.388L2431.24,235.076L2429.86,236.019L2431.31,234.818L2478.48,195.868C2508.05,171.654 2537.62,147.438 2567.36,123.35C2567.36,123.35 2568.28,122.669 2568.28,122.669L2569.23,122.185C2570.47,121.788 2569.61,121.656 2572.57,121.675Z" style="fill:rgb(232,186,116);"/></g><g transform="matrix(-0.421646,-0.0824853,-0.0494467,0.778802,1291.94,51.2057)"><path d="M1318.61,1431.76C1309.51,1407.7 1318.43,1395.07 1337.26,1378.6C1347.61,1369.55 1375.23,1360.1 1375.22,1356.92C1375.22,1356.48 1333.23,1323.73 1372.87,1314.47C1382.18,1312.3 1362.37,1288.19 1387,1277.95C1411.75,1267.66 1450.17,1250.61 1420.46,1229.38C1402.59,1216.6 1566.94,1268.66 1543.22,1336.67C1540.02,1345.86 1552.49,1349.23 1562.59,1360.79C1564.55,1363.03 1558.93,1380.79 1560.4,1383.91C1569.19,1402.58 1545.81,1418.25 1563.8,1432.74C1577.52,1443.78 1654.86,1519.55 1538.8,1525.87C1538.01,1525.91 1486.41,1515.03 1462.75,1515.78C1404.89,1517.61 1368.01,1541.79 1337.97,1540.53C1319.12,1539.73 1306.04,1525.07 1296.56,1513.05C1285.52,1499.05 1280.56,1496.47 1284.37,1475.48C1290.33,1442.65 1320.84,1437.63 1318.61,1431.76Z" style="fill:white;"/></g></g><g><g transform="matrix(0.738747,0,0,1.49218,-1303.29,748.988)"><path d="M2685.53,231.028C2689.83,233.876 2692.88,238.867 2696.78,242.371C2702.18,246.987 2707.46,251.483 2712.53,255.787C2724.6,264.966 2737.78,273.01 2748.5,284.184C2750.78,286.563 2759.66,294.871 2761.8,297.376C2766.49,301.194 2735.56,408.538 2735.56,408.538C2734.68,411.943 2734.16,411.946 2733.32,412.753C2731.48,414.518 2729.23,415.275 2726.09,414.629C2697.67,409.417 2427.98,366.488 2431.45,356.173C2428.15,355.475 2406.94,255.212 2400.47,242.682C2393.3,228.774 2387.03,235 2378.23,224.521C2361,204 2379.8,187.049 2383.07,184.054C2387.39,180.081 2393.63,178.573 2399.47,179.714C2403.71,172.741 2404.39,161.238 2413.26,160.535C2420,160 2425.76,165.328 2431.27,160.535C2435.43,156.91 2438.43,144.745 2441.43,142.536C2452.36,126.809 2463.02,120.876 2475.23,111.138C2482.05,105.756 2490.31,102.408 2498.62,100.498C2501.98,99.724 2520.88,92.351 2526.97,89.081C2534.14,85.23 2543.39,84.593 2550.11,88.997C2552.2,90.364 2554.31,91.786 2556.9,92.117C2562.08,92.776 2568.81,89.842 2572.4,92.38C2573.98,93.494 2577.44,93.267 2577.98,102.068C2590.35,96.289 2625.46,86.737 2625.94,89.081C2626.72,92.832 2620.55,98.011 2618.39,103.208C2616.57,107.585 2621.7,111.602 2625.94,113.771C2626.77,114.193 2627.61,114.595 2628.45,114.982C2636.37,118.611 2645.97,122.207 2645.49,131.975C2645.38,134.191 2644.6,136.31 2643.79,138.397C2643.79,138.397 2654.07,144.62 2651.67,153.596C2650.65,157.392 2647.95,160.492 2645.04,163.027C2645.04,163.027 2655.16,167.396 2659.07,170.901C2666.64,177.69 2672.77,186.867 2672.06,196.482C2671.82,199.735 2670.9,202.912 2669.57,205.895C2669.57,205.895 2680.8,213.83 2683.43,221.855C2684.39,224.812 2685.24,227.936 2685.53,231.028ZM2403.01,197.027C2392,183 2385.46,194.618 2383.31,197.027C2383.31,197.027 2375.8,206.682 2383.31,213.985C2384.56,216.582 2391.9,219.091 2395.97,221.798C2401.76,225.647 2407.29,230.355 2408.82,237.471C2410.2,243.893 2420.92,283.284 2423.01,297.376C2425.68,315.353 2429.28,333.366 2435.65,350.255L2435.7,350.384C2465.95,357.718 2496.24,364.496 2526.71,370.76C2540.48,373.592 2690.41,400.827 2720.8,404.682C2720.8,404.682 2721.86,401.979 2723.58,397.443L2697.43,392.303C2612.29,375.638 2439.21,345.723 2438.97,345L2418.7,241.114C2418.7,241.114 2418,233 2413.26,220C2410.81,216.076 2406.03,200.883 2403.01,197.027ZM2535.01,263.972C2529.15,262.718 2428.07,239.562 2428.07,239.562L2443.4,339.723C2522.12,355.4 2603.83,366.511 2682.32,381.46L2726.48,389.772C2729.93,380.542 2752.52,303.01 2751.8,301.376L2751.8,301.371C2748.3,301.294 2732.92,298.994 2732.92,298.994C2713.47,295.848 2612.09,278.733 2593.55,275.322L2592.54,275.136C2573.45,271.552 2554.39,267.872 2535.36,264.042L2535.01,263.972ZM2524.39,188.894C2524.39,188.894 2524.99,168.699 2526.71,163.596C2529.21,156.168 2502.19,180.398 2486.81,190.034C2466.24,203.009 2448.61,220.845 2429.97,236.305C2448.48,242.021 2468.15,244.489 2487.72,248.027C2547.34,258.804 2606.83,269.518 2668.18,281.315C2668.18,281.315 2727.22,292.755 2732.74,293.792C2732.74,293.792 2744.56,296.093 2748.11,297.041C2747.3,296.139 2746.49,295.247 2745.67,294.366C2741.17,290.001 2734.47,284.065 2726.28,277.056C2715.91,269.334 2705.02,262.201 2695.52,253.753C2691.31,250.027 2687.77,245.307 2683.29,241.994C2682.76,242.839 2682.12,243.657 2681.36,244.443C2673.97,252.115 2663.86,265.481 2651.67,265C2624.56,263.932 2594.54,245.545 2567.9,244.575C2548.52,243.869 2527.66,246.358 2509.45,239.138C2506.51,237.972 2491.08,234.201 2496.26,217.848C2498.43,211.028 2502.38,202.599 2524.39,188.894ZM2616.13,95.517C2599.09,98.448 2565.18,112.79 2550.11,130.705C2543.65,138.382 2543.64,139.26 2544.84,146.685C2545.59,151.334 2535.26,153.736 2532.73,158.516C2531.36,161.093 2530.27,172.81 2530.65,176.474C2530.85,178.311 2531.32,182.972 2531.36,183.467C2531.76,189.859 2530.13,196.083 2524.37,200.641C2522.22,202.364 2520.23,204.337 2518.02,205.92C2510.73,211.19 2502.44,217.84 2501.9,225.036C2501.52,230.123 2507.89,233.642 2513.36,235.433C2529.86,240.843 2548.02,239.721 2565.1,239.94C2565.1,239.94 2573.83,239.967 2580.28,240.272C2603.28,241.392 2631.33,260.071 2654,260.186C2661.64,260.225 2666.77,245.331 2674,242.682C2678.13,241.166 2678.44,235.295 2677.75,229.776C2677.08,224.407 2674.9,219.587 2670.72,215.612C2666.59,211.683 2659.7,208.142 2662.15,202.981C2662.15,202.981 2663.07,195.494 2662.51,192.01C2661.46,185.419 2656.57,180.281 2651.74,176.119C2647.33,172.413 2641.1,171.212 2636.1,168.378C2634.39,167.404 2632.88,165.706 2632.97,163.596C2632.97,163.596 2633.2,162.389 2633.22,162.337C2634.35,159.849 2635.25,160.055 2636.27,159.424C2640.76,156.599 2645.88,152.224 2643.77,148.603C2642.61,146.611 2640.45,145.297 2638.53,144.1C2638.53,144.1 2636.09,142.322 2636.03,139.677C2635.95,136.512 2638.66,133.712 2638.32,130.705C2637.57,124.152 2626.75,121.969 2620.89,118.429C2620.34,118.101 2619.8,117.761 2619.28,117.407C2615.02,114.543 2610.93,110.028 2611.78,104.288C2612.26,101.028 2614.11,98.064 2616.28,95.493C2616.23,95.501 2616.18,95.509 2616.13,95.517ZM2426.43,234.74C2444.34,219.682 2461.32,199.613 2481.23,187.019C2501.71,174.15 2517.7,154.274 2540.41,145.828C2539.36,141.873 2539.25,137.884 2540.45,133.958C2543.95,122.446 2554.66,114.95 2564.46,109.178C2566.27,108.109 2568.12,107.073 2569.98,106.073C2570.9,105.043 2568.52,101.072 2566.94,102.16C2560.17,103.468 2552.11,105.679 2546.2,100.357C2543.45,97.878 2541.49,96.402 2541.29,96.266C2541.27,96.262 2534.82,92.625 2524,100.626C2518.59,104.63 2491.14,110.659 2490,111.138C2481.53,114.694 2471.35,124.886 2464,130.705C2455.39,137.566 2456.95,143.255 2448.18,150.017C2441.18,155.419 2439.62,170.199 2430.55,170.378C2416.25,170.661 2406.8,172.682 2408.82,184.054C2409.31,186.793 2407,190.003 2406,192.01C2410.91,198.969 2425.22,230.957 2426.43,234.74Z" style="fill:rgb(80,0,0);"/></g><g transform="matrix(0.738747,0,0,1.49218,-1303.29,748.988)"><path d="M2590.6,132.214L2590.78,132.216L2590.96,132.219L2591.13,132.224L2591.31,132.229L2591.49,132.237L2591.67,132.246L2591.84,132.256L2592.02,132.268L2592.2,132.281L2592.38,132.296L2592.55,132.312L2592.73,132.33L2592.91,132.349L2593.08,132.37L2593.26,132.393L2593.43,132.417L2593.61,132.442L2593.78,132.469L2593.95,132.498L2594.13,132.529L2594.3,132.561L2594.47,132.595L2594.64,132.63L2594.81,132.667L2594.97,132.706L2595.14,132.747L2595.31,132.789L2595.47,132.833L2595.63,132.879L2595.8,132.927L2595.96,132.976L2596.12,133.028L2596.27,133.081L2596.43,133.137L2596.58,133.194L2596.74,133.253L2596.89,133.315L2597.03,133.378L2597.18,133.444L2597.25,133.477L2597.33,133.514L2597.39,133.54L2597.45,133.57L2597.5,133.6L2597.56,133.632L2597.61,133.665L2597.66,133.699L2597.72,133.734L2597.77,133.773L2597.86,133.841L2597.94,133.917L2598.03,133.993L2598.1,134.072L2598.18,134.151L2598.25,134.232L2598.31,134.314L2598.38,134.396L2598.44,134.479L2598.49,134.562L2598.55,134.646L2598.6,134.73L2598.65,134.815L2598.7,134.9L2598.75,134.985L2598.8,135.07L2598.84,135.155L2598.89,135.241L2598.93,135.326L2598.97,135.413L2599.05,135.58L2599.12,135.748L2599.2,135.913L2599.27,136.074L2599.4,136.384L2599.46,136.528L2599.52,136.666L2599.58,136.796L2599.61,136.855L2599.64,136.913L2599.66,136.968L2599.69,137.025L2599.68,137.013L2599.71,137.067L2599.74,137.119L2599.73,137.104L2599.76,137.16L2599.75,137.144L2599.78,137.197L2599.77,137.18L2599.8,137.23L2599.79,137.211L2599.82,137.259L2599.8,137.237L2599.84,137.282L2599.81,137.258L2599.85,137.3L2599.82,137.275L2599.86,137.314L2599.83,137.286L2599.86,137.321L2599.82,137.291L2599.86,137.324L2599.82,137.292L2599.85,137.321L2599.81,137.297L2599.83,137.31L2599.8,137.294L2599.82,137.306L2599.79,137.29L2599.81,137.301L2599.78,137.285L2599.8,137.296L2599.76,137.28L2599.78,137.29L2599.74,137.275L2599.76,137.284L2599.72,137.27L2599.74,137.278L2599.7,137.266L2599.72,137.273L2599.67,137.263L2599.69,137.268L2599.64,137.26L2599.66,137.264L2599.62,137.259L2599.63,137.262L2599.59,137.259L2599.6,137.262L2600.42,138.122L2600.42,138.122L2599.55,138.933L2599.51,138.933L2599.45,138.929L2599.38,138.921L2599.32,138.91L2599.26,138.896L2599.2,138.88L2599.14,138.861L2599.09,138.84L2599.03,138.817L2598.98,138.793L2598.94,138.768L2598.88,138.738L2598.82,138.699L2598.81,138.688L2598.73,138.631L2598.66,138.572L2598.59,138.513L2598.53,138.452L2598.47,138.391L2598.41,138.329L2598.35,138.266L2598.3,138.202L2598.25,138.137L2598.2,138.072L2598.15,138.006L2598.1,137.939L2598.05,137.871L2598,137.802L2597.95,137.732L2597.86,137.594L2597.76,137.452L2597.67,137.309L2597.49,137.023L2597.4,136.882L2597.3,136.743L2597.21,136.609L2597.12,136.477L2597.08,136.416L2597.03,136.355L2596.99,136.297L2596.95,136.24L2596.9,136.185L2596.86,136.133L2596.81,136.076L2596.82,136.09L2596.78,136.036L2596.73,135.984L2596.74,136.001L2596.7,135.952L2596.65,135.905L2596.67,135.924L2596.62,135.881L2596.58,135.839L2596.6,135.862L2596.55,135.812L2596.57,135.836L2596.51,135.789L2596.54,135.814L2596.48,135.77L2596.51,135.797L2596.46,135.755L2596.49,135.783L2596.43,135.744L2596.47,135.774L2596.42,135.737L2596.46,135.768L2596.4,135.735L2596.43,135.758L2596.41,135.743L2596.43,135.758L2596.4,135.744L2596.43,135.759L2596.4,135.746L2596.43,135.761L2596.4,135.748L2596.43,135.764L2596.4,135.752L2596.43,135.767L2596.4,135.756L2596.43,135.77L2596.4,135.76L2596.43,135.774L2596.41,135.765L2596.43,135.776L2596.37,135.757L2596.31,135.74L2596.2,135.709L2596.08,135.679L2595.96,135.651L2595.84,135.624L2595.72,135.599L2595.59,135.575L2595.46,135.553L2595.33,135.532L2595.2,135.512L2595.07,135.494L2594.93,135.478L2594.8,135.463L2594.66,135.449L2594.52,135.437L2594.38,135.427L2594.24,135.418L2594.1,135.41L2593.95,135.404L2593.81,135.399L2593.66,135.396L2593.51,135.394L2593.37,135.393L2593.22,135.394L2593.07,135.397L2592.92,135.4L2592.77,135.405L2592.62,135.412L2592.47,135.419L2592.32,135.429L2592.17,135.439L2592.02,135.451L2591.87,135.464L2591.72,135.478L2591.57,135.493L2591.42,135.51L2591.27,135.528L2591.12,135.547L2590.97,135.567L2590.82,135.588L2590.67,135.611L2590.53,135.634L2590.38,135.659L2590.23,135.685L2590.09,135.712L2589.95,135.739L2589.8,135.768L2589.66,135.798L2589.52,135.829L2589.39,135.86L2589.25,135.893L2589.12,135.926L2588.98,135.961L2588.85,135.996L2588.72,136.031L2588.59,136.068L2588.47,136.105L2588.34,136.143L2588.22,136.182L2588.1,136.221L2587.99,136.261L2587.87,136.301L2587.76,136.342L2587.65,136.383L2587.51,136.44L2587.36,136.498L2587.21,136.559L2587.07,136.62L2586.92,136.683L2586.78,136.748L2586.63,136.815L2586.49,136.883L2586.47,136.895L2586.35,136.951L2586.2,137.02L2586.06,137.09L2585.92,137.163L2585.78,137.236L2585.64,137.312L2585.5,137.388L2585.36,137.466L2585.22,137.546L2585.08,137.627L2584.94,137.709L2584.8,137.793L2584.67,137.878L2584.53,137.965L2584.4,138.053L2584.26,138.142L2584.13,138.233L2583.99,138.325L2583.86,138.418L2583.73,138.513L2583.6,138.608L2583.47,138.706L2583.34,138.804L2583.21,138.904L2583.08,139.004L2582.96,139.106L2582.83,139.21L2582.71,139.314L2582.58,139.42L2582.46,139.526L2582.34,139.634L2582.21,139.743L2582.09,139.854L2581.97,139.965L2581.85,140.077L2581.74,140.191L2581.62,140.305L2581.5,140.42L2581.41,140.514L2581.39,140.537L2581.27,140.653L2581.16,140.77L2581.04,140.888L2580.93,141.007L2580.82,141.127L2580.71,141.248L2580.6,141.37L2580.49,141.492L2580.38,141.616L2580.28,141.741L2580.17,141.866L2580.07,141.992L2579.97,142.119L2579.86,142.247L2579.76,142.376L2579.66,142.505L2579.57,142.636L2579.47,142.767L2579.37,142.899L2579.28,143.031L2579.18,143.164L2579.09,143.298L2579,143.433L2578.91,143.568L2578.82,143.704L2578.74,143.84L2578.65,143.977L2578.56,144.115L2578.48,144.253L2578.4,144.391L2578.32,144.531L2578.24,144.67L2578.16,144.811L2578.08,144.951L2578.01,145.092L2577.93,145.234L2577.86,145.376L2577.79,145.518L2577.72,145.661L2577.68,145.751L2577.65,145.804L2577.58,145.946L2577.52,146.089L2577.45,146.231L2577.39,146.375L2577.32,146.518L2577.26,146.662L2577.2,146.806L2577.14,146.951L2577.08,147.096L2577.03,147.24L2576.97,147.386L2576.92,147.531L2576.87,147.677L2576.82,147.822L2576.77,147.968L2576.72,148.114L2576.68,148.26L2576.63,148.406L2576.59,148.553L2576.55,148.699L2576.51,148.845L2576.47,148.992L2576.44,149.138L2576.4,149.285L2576.37,149.431L2576.34,149.577L2576.31,149.724L2576.28,149.87L2576.25,150.016L2576.23,150.162L2576.21,150.308L2576.18,150.454L2576.16,150.6L2576.15,150.745L2576.13,150.891L2576.12,151.036L2576.1,151.181L2576.09,151.326L2576.08,151.471L2576.08,151.546L2576.07,151.615L2576.06,151.759L2576.06,151.834L2576.05,151.911L2576.05,151.989L2576.05,152.07L2576.05,152.154L2576.05,152.239L2576.05,152.326L2576.05,152.415L2576.05,152.506L2576.06,152.599L2576.06,152.694L2576.07,152.791L2576.07,152.889L2576.08,152.989L2576.08,153.091L2576.09,153.189L2576.11,153.406L2576.13,153.623L2576.15,153.847L2576.17,154.075L2576.2,154.309L2576.2,154.35L2576.23,154.549L2576.25,154.793L2576.28,155.042L2576.31,155.295L2576.34,155.551L2576.41,156.08L2576.48,156.62L2576.55,157.172L2576.59,157.454L2576.59,157.522L2576.62,157.739L2576.64,158.027L2576.67,158.317L2576.7,158.61L2576.72,158.905L2576.75,159.203L2576.77,159.502L2576.79,159.804L2576.81,160.108L2576.82,160.414L2576.83,160.717L2576.84,160.876L2576.84,161.031L2576.84,161.186L2576.84,161.342L2576.84,161.499L2576.84,161.655L2576.84,161.813L2576.84,161.97L2576.83,162.128L2576.83,162.287L2576.82,162.445L2576.81,162.605L2576.8,162.764L2576.79,162.924L2576.78,163.085L2576.77,163.245L2576.75,163.407L2576.74,163.568L2576.72,163.73L2576.7,163.892L2576.68,164.054L2576.65,164.217L2576.62,164.38L2576.6,164.543L2576.57,164.707L2576.53,164.871L2576.5,165.035L2576.46,165.199L2576.44,165.307L2576.42,165.363L2576.38,165.527L2576.34,165.691L2576.29,165.855L2576.24,166.019L2576.18,166.183L2576.13,166.346L2576.07,166.51L2576.01,166.673L2575.94,166.836L2575.87,166.999L2575.8,167.161L2575.73,167.323L2575.65,167.484L2575.57,167.644L2575.49,167.804L2575.4,167.962L2575.31,168.12L2575.22,168.277L2575.12,168.433L2575.02,168.587L2574.92,168.74L2574.81,168.892L2574.7,169.042L2574.59,169.191L2574.47,169.338L2574.35,169.483L2574.23,169.621L2574.14,169.724L2574.05,169.82L2573.96,169.915L2573.87,170.008L2573.78,170.1L2573.68,170.191L2573.59,170.281L2573.5,170.369L2573.41,170.456L2573.31,170.541L2573.22,170.626L2573.12,170.709L2573.03,170.792L2572.93,170.873L2572.84,170.953L2572.74,171.032L2572.64,171.11L2572.55,171.187L2572.45,171.263L2572.35,171.342L2572.15,171.486L2571.95,171.63L2571.76,171.77L2571.56,171.907L2571.36,172.041L2571.16,172.171L2570.96,172.299L2570.76,172.423L2570.55,172.545L2570.36,172.664L2570.32,172.682L2570.16,172.778L2569.95,172.889L2569.76,172.997L2569.56,173.103L2569.36,173.206L2569.17,173.306L2568.97,173.404L2568.78,173.499L2568.59,173.591L2568.4,173.681L2568.22,173.768L2568.04,173.853L2567.66,174.025L2567.28,174.194L2566.9,174.362L2566.52,174.526L2566.13,174.689L2565.75,174.85L2565.37,175.009L2564.98,175.166L2564.6,175.322L2564.22,175.476L2563.83,175.629L2563.45,175.781L2562.9,175.995L2562.68,176.08L2561.91,176.372L2561.14,176.662L2560.37,176.952L2559.61,177.243L2559.23,177.388L2558.85,177.534L2558.47,177.68L2558.1,177.827L2557.72,177.975L2557.35,178.124L2556.97,178.274L2556.6,178.425L2556.23,178.578L2555.87,178.732L2555.72,178.793L2555.5,178.886L2555.14,179.04L2554.77,179.196L2554.41,179.354L2554.23,179.433L2554.05,179.513L2553.88,179.594L2553.7,179.675L2553.52,179.757L2553.34,179.839L2553.17,179.922L2552.99,180.006L2552.82,180.09L2552.64,180.175L2552.47,180.26L2552.3,180.347L2552.12,180.433L2551.95,180.521L2551.78,180.609L2551.61,180.698L2551.44,180.787L2551.28,180.878L2551.11,180.969L2550.94,181.061L2550.78,181.153L2550.61,181.247L2550.45,181.341L2550.28,181.436L2550.12,181.532L2549.96,181.629L2549.79,181.727L2549.63,181.825L2549.47,181.925L2549.32,182.025L2549.16,182.126L2549,182.229L2548.84,182.332L2548.69,182.436L2548.53,182.541L2548.38,182.647L2548.23,182.755L2548.08,182.863L2547.93,182.972L2547.78,183.082L2547.63,183.194L2547.48,183.306L2547.33,183.42L2547.18,183.535L2547.04,183.651L2546.89,183.768L2546.75,183.886L2546.61,184.005L2546.47,184.126L2546.33,184.248L2546.19,184.371L2546.05,184.496L2545.91,184.621L2545.78,184.748L2545.64,184.877L2545.51,185.006L2545.31,185.199L2545.12,185.395L2544.93,185.592L2544.73,185.791L2544.54,185.991L2544.36,186.194L2544.19,186.375L2544.17,186.399L2543.99,186.604L2543.8,186.811L2543.62,187.02L2543.44,187.231L2543.26,187.443L2543.08,187.658L2542.91,187.873L2542.73,188.091L2542.56,188.31L2542.39,188.531L2542.22,188.753L2542.05,188.977L2541.89,189.202L2541.73,189.429L2541.57,189.657L2541.41,189.887L2541.25,190.118L2541.1,190.35L2540.94,190.584L2540.79,190.819L2540.64,191.055L2540.5,191.293L2540.35,191.531L2540.21,191.771L2540.07,192.017L2540.09,191.98L2540.06,192.028L2540.08,191.992L2540.05,192.052L2540.01,192.125L2539.96,192.222L2539.91,192.337L2539.85,192.469L2539.78,192.615L2539.71,192.774L2539.64,192.943L2539.57,193.121L2539.49,193.306L2539.41,193.496L2539.33,193.689L2539.25,193.884L2539.17,194.079L2539.1,194.273L2539.03,194.463L2538.96,194.647L2538.89,194.824L2538.84,194.993L2538.81,195.071L2538.78,195.146L2538.76,195.219L2538.74,195.287L2538.72,195.357L2538.72,195.343L2538.71,195.409L2538.69,195.471L2538.69,195.452L2538.68,195.508L2538.67,195.559L2538.67,195.533L2538.66,195.592L2538.66,195.56L2538.66,195.615L2538.66,195.576L2538.65,195.626L2538.65,195.577L2538.65,195.579L2538.65,195.622L2538.65,195.56L2538.65,195.6L2538.64,195.541L2538.65,195.559L2538.64,195.512L2538.64,195.529L2538.63,195.473L2538.63,195.489L2538.62,195.424L2538.62,195.438L2538.6,195.363L2538.6,195.376L2538.58,195.319L2538.36,196.581L2538.33,196.61L2538.26,196.654L2538.18,196.698L2538.09,196.741L2537.97,196.78L2537.84,196.81L2537.68,196.825L2537.5,196.814L2537.31,196.769L2537.12,196.689L2536.97,196.581L2536.84,196.459L2536.74,196.336L2536.67,196.219L2536.62,196.113L2536.59,196.018L2536.57,195.933L2536.55,195.858L2536.54,195.789L2536.53,195.717L2536.52,195.616L2536.52,195.52L2536.52,195.515L2536.53,195.421L2536.53,195.331L2536.54,195.243L2536.55,195.155L2536.56,195.067L2536.57,194.978L2536.59,194.888L2536.61,194.796L2536.62,194.702L2536.64,194.607L2536.66,194.509L2536.68,194.409L2536.72,194.208L2536.77,194L2536.83,193.787L2536.88,193.572L2536.94,193.354L2536.99,193.136L2537.05,192.919L2537.12,192.705L2537.18,192.495L2537.23,192.29L2537.29,192.094L2537.35,191.906L2537.41,191.728L2537.46,191.562L2537.51,191.409L2537.55,191.27L2537.59,191.147L2537.63,191.037L2537.67,190.936L2537.71,190.849L2537.84,190.559L2537.96,190.283L2538.09,190.008L2538.21,189.734L2538.35,189.461L2538.48,189.189L2538.61,188.917L2538.75,188.647L2538.89,188.377L2539.04,188.109L2539.18,187.841L2539.33,187.574L2539.48,187.309L2539.63,187.045L2539.79,186.781L2539.95,186.519L2540.11,186.258L2540.27,185.999L2540.43,185.74L2540.6,185.483L2540.77,185.228L2540.94,184.973L2541.12,184.72L2541.29,184.469L2541.47,184.218L2541.49,184.19L2541.65,183.971L2541.84,183.725L2542.02,183.48L2542.21,183.238L2542.4,182.996L2542.6,182.757L2542.79,182.519L2542.93,182.35L2543.08,182.183L2543.22,182.018L2543.37,181.854L2543.51,181.691L2543.66,181.53L2543.81,181.37L2543.96,181.212L2544.12,181.055L2544.27,180.9L2544.42,180.746L2544.58,180.593L2544.73,180.442L2544.89,180.292L2545.05,180.144L2545.21,179.997L2545.37,179.851L2545.53,179.706L2545.69,179.563L2545.86,179.421L2546.02,179.28L2546.19,179.141L2546.35,179.003L2546.52,178.866L2546.69,178.73L2546.86,178.595L2547.03,178.462L2547.2,178.329L2547.37,178.198L2547.54,178.068L2547.71,177.939L2547.89,177.811L2548.06,177.685L2548.24,177.559L2548.41,177.434L2548.59,177.311L2548.76,177.188L2548.94,177.067L2549.12,176.946L2549.3,176.826L2549.48,176.708L2549.66,176.59L2549.84,176.473L2550.02,176.357L2550.2,176.242L2550.38,176.128L2550.56,176.015L2550.74,175.902L2550.93,175.791L2551.11,175.68L2551.3,175.57L2551.48,175.461L2551.66,175.352L2551.85,175.244L2552.03,175.137L2552.22,175.03L2552.59,174.821L2552.96,174.613L2553.34,174.407L2553.56,174.285L2553.71,174.206L2554.09,174.008L2554.46,173.813L2554.84,173.62L2555.22,173.428L2555.6,173.239L2555.97,173.051L2556.35,172.865L2556.72,172.68L2557.1,172.496L2557.48,172.314L2558.22,171.953L2558.97,171.595L2559.71,171.24L2560.44,170.887L2560.65,170.785L2561.17,170.539L2561.53,170.366L2561.89,170.193L2562.24,170.02L2562.6,169.846L2562.95,169.672L2563.3,169.498L2563.65,169.323L2563.99,169.147L2564.33,168.971L2564.66,168.794L2565,168.616L2565.33,168.436L2565.47,168.356L2565.62,168.274L2565.77,168.19L2565.91,168.105L2566.06,168.018L2566.21,167.929L2566.36,167.839L2566.51,167.747L2566.66,167.654L2566.8,167.56L2566.95,167.464L2567.07,167.383L2567.09,167.368L2567.24,167.272L2567.38,167.176L2567.52,167.079L2567.66,166.98L2567.79,166.882L2567.93,166.783L2568.06,166.684L2568.18,166.584L2568.31,166.485L2568.43,166.382L2568.49,166.336L2568.54,166.286L2568.6,166.237L2568.65,166.188L2568.71,166.139L2568.76,166.091L2568.81,166.042L2568.86,165.994L2568.91,165.946L2568.96,165.899L2569,165.852L2569.05,165.805L2569.09,165.759L2569.13,165.714L2569.17,165.669L2569.21,165.624L2569.25,165.58L2569.29,165.537L2569.32,165.495L2569.35,165.458L2569.39,165.406L2569.43,165.358L2569.46,165.31L2569.49,165.261L2569.52,165.212L2569.55,165.162L2569.58,165.111L2569.61,165.059L2569.64,165.007L2569.67,164.953L2569.69,164.898L2569.72,164.843L2569.74,164.786L2569.77,164.727L2569.79,164.668L2569.82,164.607L2569.84,164.545L2569.86,164.481L2569.88,164.416L2569.9,164.35L2569.92,164.282L2569.94,164.212L2569.96,164.141L2569.98,164.069L2570,163.994L2570.01,163.919L2570.03,163.841L2570.03,163.815L2570.05,163.763L2570.06,163.683L2570.08,163.601L2570.09,163.518L2570.11,163.433L2570.12,163.347L2570.13,163.259L2570.14,163.169L2570.16,163.078L2570.16,162.985L2570.17,162.891L2570.18,162.796L2570.19,162.699L2570.2,162.6L2570.2,162.5L2570.21,162.399L2570.21,162.297L2570.21,162.193L2570.22,162.088L2570.22,161.981L2570.22,161.874L2570.22,161.765L2570.22,161.655L2570.22,161.544L2570.21,161.431L2570.21,161.318L2570.21,161.204L2570.2,161.088L2570.2,160.976L2570.18,160.735L2570.17,160.496L2570.15,160.253L2570.13,160.007L2570.11,159.757L2570.09,159.505L2570.06,159.25L2570.03,158.992L2570,158.732L2569.97,158.47L2569.95,158.268L2569.94,158.205L2569.91,157.939L2569.86,157.398L2569.8,156.853L2569.74,156.305L2569.71,156.026L2569.68,155.748L2569.66,155.469L2569.63,155.189L2569.61,154.956L2569.61,154.908L2569.59,154.626L2569.57,154.343L2569.56,154.059L2569.55,153.775L2569.54,153.495L2569.54,153.347L2569.53,153.204L2569.53,153.061L2569.53,152.917L2569.53,152.773L2569.53,152.629L2569.54,152.485L2569.54,152.34L2569.55,152.195L2569.55,152.05L2569.56,151.905L2569.57,151.759L2569.58,151.613L2569.59,151.467L2569.61,151.32L2569.62,151.174L2569.65,150.958L2569.66,150.855L2569.68,150.743L2569.71,150.528L2569.74,150.315L2569.78,150.102L2569.82,149.889L2569.86,149.678L2569.91,149.467L2569.95,149.256L2570,149.047L2570.05,148.838L2570.11,148.63L2570.16,148.422L2570.22,148.216L2570.28,148.01L2570.34,147.805L2570.41,147.6L2570.47,147.397L2570.54,147.194L2570.61,146.993L2570.68,146.792L2570.75,146.592L2570.83,146.392L2570.91,146.194L2570.99,145.997L2571.07,145.8L2571.15,145.604L2571.24,145.41L2571.32,145.216L2571.41,145.023L2571.5,144.831L2571.59,144.64L2571.69,144.45L2571.78,144.261L2571.88,144.073L2571.98,143.886L2572.08,143.7L2572.18,143.515L2572.29,143.331L2572.39,143.148L2572.5,142.966L2572.54,142.899L2572.61,142.786L2572.73,142.607L2572.84,142.43L2572.96,142.254L2573.08,142.079L2573.19,141.905L2573.32,141.732L2573.44,141.56L2573.56,141.389L2573.68,141.22L2573.81,141.052L2573.94,140.885L2574.07,140.719L2574.2,140.554L2574.33,140.391L2574.47,140.229L2574.6,140.068L2574.74,139.908L2574.87,139.749L2575.01,139.592L2575.15,139.436L2575.29,139.281L2575.43,139.128L2575.58,138.976L2575.72,138.825L2575.87,138.676L2576.02,138.528L2576.16,138.381L2576.32,138.235L2576.47,138.091L2576.62,137.948L2576.77,137.807L2576.93,137.667L2577.08,137.529L2577.24,137.391L2577.39,137.256L2577.55,137.121L2577.71,136.989L2577.87,136.857L2578.03,136.727L2578.07,136.702L2578.2,136.6L2578.36,136.474L2578.53,136.35L2578.7,136.228L2578.86,136.107L2579.03,135.988L2579.2,135.87L2579.37,135.754L2579.54,135.639L2579.71,135.526L2579.89,135.415L2580.06,135.305L2580.24,135.197L2580.41,135.09L2580.59,134.986L2580.76,134.882L2580.94,134.781L2581.12,134.681L2581.3,134.583L2581.48,134.487L2581.66,134.392L2581.84,134.299L2582.02,134.208L2582.21,134.119L2582.39,134.031L2582.57,133.946L2582.76,133.862L2582.94,133.78L2583.13,133.7L2583.32,133.621L2583.5,133.545L2583.69,133.47L2583.88,133.397L2584.07,133.326L2584.26,133.258L2584.45,133.191L2584.64,133.126L2584.83,133.063L2584.99,133.012L2585.02,133.002L2585.21,132.944L2585.41,132.889L2585.6,132.836L2585.79,132.785L2585.99,132.736L2586.18,132.689L2586.38,132.644L2586.57,132.601L2586.73,132.568L2586.88,132.537L2587.04,132.507L2587.2,132.479L2587.36,132.453L2587.52,132.427L2587.69,132.403L2587.85,132.381L2588.02,132.36L2588.18,132.341L2588.35,132.322L2588.52,132.306L2588.69,132.29L2588.86,132.276L2589.03,132.264L2589.2,132.253L2589.38,132.243L2589.55,132.235L2589.72,132.228L2589.9,132.222L2590.07,132.218L2590.25,132.216L2590.43,132.214L2590.6,132.214ZM2537.23,194.828L2537.17,194.862L2537.19,194.854L2537.14,194.885L2537.16,194.875L2538.45,195.096L2538.36,194.996L2538.23,194.891L2538.07,194.804L2537.9,194.747L2537.73,194.722L2537.59,194.723L2537.46,194.742L2537.35,194.773L2537.36,194.769L2537.27,194.805L2537.29,194.799L2537.22,194.835L2537.23,194.828Z" style="fill:rgb(80,0,0);"/></g><g transform="matrix(0.738747,0,0,1.49218,-1303.29,748.988)"><path d="M2635.68,189.372L2636.44,190.293L2636.45,190.429L2636.45,190.48L2636.45,190.558L2636.46,190.687L2636.47,190.815L2636.48,190.942L2636.5,191.069L2636.51,191.194L2636.53,191.318L2636.54,191.442L2636.56,191.565L2636.58,191.686L2636.6,191.807L2636.62,191.928L2636.64,192.047L2636.67,192.166L2636.69,192.284L2636.72,192.401L2636.74,192.517L2636.77,192.633L2636.8,192.748L2636.83,192.862L2636.87,192.976L2636.9,193.089L2636.93,193.201L2636.95,193.255L2636.97,193.312L2637,193.424L2637.04,193.534L2637.08,193.644L2637.11,193.754L2637.15,193.863L2637.19,193.971L2637.23,194.079L2637.27,194.186L2637.32,194.293L2637.36,194.399L2637.41,194.505L2637.45,194.61L2637.5,194.715L2637.55,194.819L2637.59,194.923L2637.64,195.026L2637.69,195.129L2637.74,195.232L2637.8,195.334L2637.85,195.435L2637.9,195.537L2637.96,195.638L2638.01,195.738L2638.07,195.838L2638.13,195.938L2638.18,196.037L2638.24,196.137L2638.3,196.235L2638.36,196.334L2638.42,196.432L2638.48,196.53L2638.55,196.627L2638.61,196.724L2638.67,196.821L2638.74,196.918L2638.8,197.014L2638.87,197.11L2638.93,197.206L2639,197.301L2639.07,197.396L2639.14,197.489L2639.28,197.681L2639.42,197.869L2639.56,198.056L2639.71,198.243L2639.86,198.429L2640.01,198.614L2640.16,198.798L2640.32,198.982L2640.47,199.165L2640.63,199.348L2640.79,199.53L2640.8,199.54L2640.95,199.714L2641.11,199.897L2641.27,200.081L2641.43,200.264L2641.6,200.446L2641.76,200.629L2641.93,200.811L2642.1,200.992L2642.44,201.358L2642.78,201.723L2643.12,202.088L2643.46,202.454L2643.81,202.822L2644.15,203.191L2644.15,203.192L2644.49,203.567L2644.66,203.758L2644.83,203.948L2645,204.14L2645.16,204.332L2645.33,204.525L2645.49,204.72L2645.66,204.916L2645.82,205.113L2645.98,205.312L2646.14,205.512L2646.3,205.713L2646.46,205.917L2646.61,206.122L2646.77,206.329L2646.92,206.539L2647.07,206.75L2647.22,206.964L2647.36,207.18L2647.5,207.395L2647.57,207.51L2647.64,207.621L2647.71,207.732L2647.71,207.735L2647.78,207.846L2647.84,207.96L2647.91,208.075L2647.97,208.191L2648.04,208.307L2648.1,208.425L2648.16,208.543L2648.22,208.661L2648.28,208.781L2648.34,208.901L2648.39,209.023L2648.45,209.145L2648.51,209.267L2648.56,209.391L2648.61,209.516L2648.66,209.641L2648.72,209.768L2648.76,209.895L2648.81,210.023L2648.86,210.152L2648.91,210.283L2648.95,210.413L2648.99,210.545L2649.03,210.678L2649.08,210.812L2649.11,210.947L2649.15,211.082L2649.19,211.219L2649.22,211.356L2649.25,211.495L2649.28,211.634L2649.31,211.774L2649.34,211.915L2649.37,212.057L2649.39,212.2L2649.41,212.343L2649.43,212.487L2649.45,212.633L2649.46,212.779L2649.48,212.925L2649.49,213.073L2649.5,213.221L2649.51,213.369L2649.51,213.519L2649.51,213.669L2649.51,213.82L2649.51,213.971L2649.51,214.122L2649.51,214.274L2649.5,214.396L2649.5,214.427L2649.48,214.58L2649.47,214.733L2649.45,214.886L2649.43,215.04L2649.41,215.194L2649.39,215.348L2649.36,215.502L2649.33,215.656L2649.3,215.81L2649.27,215.965L2649.23,216.119L2649.19,216.274L2649.15,216.428L2649.11,216.582L2649.07,216.737L2649.02,216.891L2648.97,217.045L2648.92,217.199L2648.86,217.352L2648.8,217.506L2648.74,217.659L2648.69,217.79L2648.68,217.812L2648.62,217.964L2648.55,218.116L2648.48,218.268L2648.41,218.419L2648.33,218.57L2648.26,218.72L2648.18,218.87L2648.1,219.02L2648.01,219.17L2647.93,219.319L2647.84,219.465L2647.73,219.656L2647.61,219.843L2647.5,220.028L2647.38,220.212L2647.3,220.334L2647.26,220.395L2647.14,220.574L2647.02,220.753L2646.89,220.93L2646.77,221.106L2646.64,221.282L2646.51,221.456L2646.38,221.629L2646.25,221.801L2646.12,221.972L2645.99,222.142L2645.86,222.31L2645.72,222.478L2645.59,222.645L2645.45,222.811L2645.32,222.975L2645.18,223.139L2645.04,223.301L2644.9,223.463L2644.76,223.623L2644.62,223.783L2644.48,223.941L2644.34,224.099L2644.2,224.255L2644.05,224.41L2643.98,224.482L2643.9,224.563L2643.75,224.713L2643.61,224.863L2643.45,225.011L2643.3,225.158L2643.15,225.304L2643,225.449L2642.85,225.594L2642.69,225.737L2642.54,225.879L2642.38,226.02L2642.22,226.16L2642.07,226.299L2641.91,226.437L2641.75,226.574L2641.6,226.71L2641.44,226.845L2641.28,226.979L2641.12,227.112L2640.96,227.244L2640.8,227.375L2640.63,227.505L2640.47,227.634L2640.31,227.762L2640.14,227.889L2639.98,228.015L2639.82,228.14L2639.68,228.245L2639.65,228.264L2639.48,228.385L2639.32,228.505L2639.15,228.625L2638.98,228.743L2638.81,228.86L2638.64,228.976L2638.47,229.091L2638.3,229.206L2638.13,229.319L2637.96,229.432L2637.79,229.543L2637.62,229.654L2637.45,229.764L2637.28,229.872L2637.1,229.98L2636.93,230.087L2636.76,230.193L2636.59,230.298L2636.41,230.403L2636.24,230.506L2636.07,230.609L2635.89,230.71L2635.72,230.811L2635.54,230.911L2635.37,231.01L2635.19,231.108L2635.02,231.205L2634.84,231.301L2634.69,231.385L2634.67,231.397L2634.49,231.49L2634.31,231.582L2634.14,231.673L2633.96,231.764L2633.6,231.941L2633.25,232.116L2632.89,232.287L2632.54,232.455L2632.18,232.62L2631.83,232.782L2631.47,232.94L2631.12,233.095L2630.76,233.247L2630.41,233.396L2630.05,233.542L2629.7,233.684L2629.34,233.824L2629.34,233.825L2628.99,233.957L2628.63,234.087L2628.28,234.213L2627.92,234.337L2627.57,234.458L2627.22,234.576L2626.87,234.691L2626.52,234.804L2626.17,234.913L2625.82,235.02L2625.48,235.124L2625.13,235.225L2624.79,235.323L2624.45,235.419L2624.11,235.512L2623.77,235.602L2623.43,235.69L2623.09,235.775L2622.76,235.857L2622.43,235.937L2622.1,236.014L2621.77,236.089L2621.44,236.161L2621.12,236.231L2620.8,236.298L2620.48,236.363L2620.16,236.425L2619.85,236.485L2619.54,236.543L2619.23,236.598L2618.92,236.651L2618.7,236.687L2618.62,236.701L2618.31,236.746L2618.01,236.79L2617.72,236.831L2617.43,236.87L2617.14,236.907L2616.85,236.942L2616.57,236.974L2616.28,237.005L2616.01,237.033L2615.73,237.059L2615.46,237.083L2615.2,237.105L2614.93,237.125L2614.68,237.143L2614.42,237.158L2614.17,237.172L2613.92,237.184L2613.68,237.194L2613.44,237.202L2613.2,237.208L2612.97,237.212L2612.74,237.215L2612.52,237.215L2612.3,237.213L2612.08,237.21L2611.87,237.205L2611.67,237.198L2611.46,237.189L2611.27,237.178L2611.07,237.166L2610.89,237.152L2610.7,237.136L2610.52,237.118L2610.35,237.098L2610.18,237.076L2610.01,237.053L2609.97,237.047L2609.85,237.027L2609.7,237.001L2608.77,235.855L2609.92,234.922L2610.05,234.923L2610.14,234.922L2610.17,234.922L2610.31,234.919L2610.45,234.914L2610.59,234.907L2610.74,234.897L2610.9,234.886L2611.06,234.872L2611.23,234.855L2611.4,234.837L2611.58,234.816L2611.76,234.793L2611.95,234.767L2612.14,234.739L2612.33,234.709L2612.53,234.676L2612.73,234.641L2612.94,234.603L2613.15,234.563L2613.37,234.52L2613.59,234.475L2613.81,234.428L2614.04,234.378L2614.27,234.326L2614.5,234.271L2614.74,234.214L2614.98,234.154L2615.23,234.092L2615.47,234.027L2615.72,233.96L2615.98,233.89L2616.23,233.818L2616.49,233.743L2616.75,233.666L2617.02,233.586L2617.28,233.504L2617.55,233.419L2617.82,233.332L2617.9,233.306L2618.1,233.244L2618.37,233.154L2618.65,233.061L2618.93,232.967L2619.21,232.869L2619.5,232.769L2619.78,232.667L2620.07,232.562L2620.36,232.454L2620.65,232.344L2620.94,232.232L2621.24,232.117L2621.53,231.999L2621.83,231.879L2622.12,231.756L2622.42,231.631L2622.72,231.503L2623.02,231.372L2623.32,231.239L2623.62,231.104L2623.92,230.966L2624.23,230.825L2624.53,230.682L2624.83,230.536L2625.14,230.388L2625.44,230.237L2625.74,230.084L2626.05,229.928L2626.35,229.77L2626.65,229.609L2626.96,229.445L2627.26,229.28L2627.26,229.279L2627.56,229.114L2627.87,228.947L2628.17,228.777L2628.47,228.604L2628.77,228.429L2629.08,228.252L2629.38,228.072L2629.68,227.889L2629.97,227.704L2630.27,227.516L2630.57,227.326L2630.86,227.134L2631.16,226.937L2631.3,226.84L2631.45,226.741L2631.59,226.641L2631.74,226.541L2631.75,226.528L2631.88,226.441L2632.03,226.341L2632.17,226.241L2632.32,226.14L2632.46,226.038L2632.61,225.936L2632.75,225.833L2632.89,225.729L2633.03,225.625L2633.18,225.52L2633.32,225.415L2633.46,225.309L2633.6,225.202L2633.74,225.095L2633.88,224.987L2634.01,224.879L2634.15,224.769L2634.29,224.66L2634.43,224.549L2634.57,224.438L2634.7,224.327L2634.84,224.215L2634.97,224.102L2635.11,223.988L2635.24,223.874L2635.37,223.76L2635.5,223.645L2635.64,223.529L2635.77,223.412L2635.79,223.394L2635.9,223.297L2636.03,223.182L2636.16,223.066L2636.29,222.949L2636.42,222.832L2636.55,222.714L2636.68,222.596L2636.81,222.477L2636.93,222.357L2637.06,222.237L2637.18,222.116L2637.31,221.995L2637.43,221.873L2637.56,221.75L2637.68,221.627L2637.8,221.503L2637.92,221.378L2638.04,221.253L2638.16,221.128L2638.28,221.001L2638.4,220.874L2638.51,220.747L2638.63,220.619L2638.74,220.49L2638.86,220.361L2638.97,220.231L2639.08,220.101L2639.14,220.031L2639.2,219.971L2639.31,219.842L2639.43,219.713L2639.54,219.583L2639.65,219.452L2639.76,219.321L2639.87,219.189L2639.98,219.056L2640.09,218.923L2640.19,218.789L2640.3,218.654L2640.4,218.519L2640.51,218.384L2640.61,218.247L2640.72,218.11L2640.82,217.973L2640.92,217.834L2641.02,217.695L2641.12,217.556L2641.21,217.416L2641.31,217.275L2641.41,217.133L2641.5,216.991L2641.59,216.848L2641.69,216.705L2641.72,216.657L2641.78,216.563L2641.88,216.421L2641.97,216.278L2642.06,216.135L2642.16,215.994L2642.21,215.91L2642.26,215.831L2642.3,215.752L2642.35,215.675L2642.39,215.599L2642.43,215.523L2642.47,215.449L2642.51,215.375L2642.55,215.303L2642.58,215.231L2642.62,215.161L2642.62,215.15L2642.65,215.092L2642.68,215.024L2642.71,214.957L2642.74,214.89L2642.77,214.825L2642.8,214.76L2642.82,214.696L2642.85,214.633L2642.87,214.57L2642.89,214.508L2642.91,214.446L2642.93,214.385L2642.95,214.325L2642.97,214.265L2642.99,214.206L2643,214.147L2643.01,214.088L2643.03,214.03L2643.04,213.972L2643.05,213.914L2643.06,213.857L2643.07,213.8L2643.07,213.788L2643.08,213.743L2643.09,213.686L2643.1,213.629L2643.11,213.572L2643.12,213.515L2643.12,213.458L2643.13,213.4L2643.14,213.343L2643.14,213.285L2643.14,213.227L2643.15,213.169L2643.15,213.11L2643.15,213.051L2643.15,212.991L2643.15,212.932L2643.15,212.871L2643.14,212.81L2643.14,212.749L2643.14,212.687L2643.13,212.625L2643.12,212.562L2643.12,212.499L2643.11,212.435L2643.1,212.37L2643.09,212.305L2643.08,212.239L2643.07,212.172L2643.05,212.105L2643.04,212.038L2643.03,211.969L2643.01,211.9L2642.99,211.831L2642.97,211.76L2642.96,211.689L2642.94,211.618L2642.91,211.545L2642.89,211.473L2642.87,211.399L2642.85,211.325L2642.82,211.25L2642.8,211.175L2642.77,211.099L2642.74,211.022L2642.71,210.945L2642.68,210.867L2642.65,210.789L2642.62,210.71L2642.58,210.63L2642.55,210.55L2642.51,210.471L2642.51,210.469L2642.48,210.387L2642.45,210.304L2642.41,210.225L2642.33,210.052L2642.25,209.881L2642.17,209.708L2642.08,209.533L2641.99,209.356L2641.9,209.178L2641.8,208.997L2641.7,208.815L2641.6,208.631L2641.49,208.445L2641.38,208.257L2641.27,208.068L2641.15,207.877L2641.03,207.685L2640.91,207.491L2640.79,207.296L2640.67,207.099L2640.54,206.901L2640.41,206.703L2640.15,206.298L2640.14,206.297L2639.88,205.885L2639.61,205.466L2639.34,205.041L2639.06,204.612L2638.78,204.177L2638.5,203.737L2638.36,203.514L2638.22,203.29L2638.08,203.065L2637.94,202.838L2637.8,202.61L2637.67,202.381L2637.53,202.15L2637.4,201.93L2637.39,201.917L2637.26,201.681L2637.13,201.443L2637,201.205L2636.88,200.964L2636.75,200.722L2636.62,200.479L2636.5,200.234L2636.38,199.987L2636.27,199.739L2636.15,199.49L2636.04,199.241L2635.98,199.113L2635.93,198.986L2635.88,198.859L2635.82,198.732L2635.77,198.604L2635.72,198.476L2635.67,198.348L2635.62,198.219L2635.57,198.09L2635.52,197.96L2635.47,197.83L2635.43,197.7L2635.38,197.569L2635.34,197.438L2635.29,197.306L2635.25,197.174L2635.21,197.042L2635.17,196.909L2635.13,196.776L2635.09,196.642L2635.05,196.509L2635.01,196.374L2634.98,196.24L2634.94,196.105L2634.91,195.969L2634.88,195.833L2634.85,195.697L2634.82,195.561L2634.79,195.424L2634.76,195.287L2634.74,195.149L2634.71,195.011L2634.69,194.873L2634.67,194.734L2634.64,194.595L2634.62,194.456L2634.61,194.316L2634.59,194.176L2634.58,194.036L2634.56,193.895L2634.55,193.754L2634.54,193.682L2634.54,193.613L2634.53,193.471L2634.52,193.329L2634.52,193.187L2634.51,193.044L2634.51,192.901L2634.51,192.758L2634.51,192.615L2634.51,192.471L2634.52,192.327L2634.52,192.183L2634.53,192.039L2634.54,191.895L2634.55,191.75L2634.56,191.605L2634.58,191.46L2634.59,191.315L2634.61,191.169L2634.63,191.024L2634.65,190.878L2634.67,190.732L2634.69,190.586L2634.72,190.439L2634.74,190.351L2634.75,190.293L2634.78,190.151L2635.68,189.372Z" style="fill:rgb(80,0,0);"/></g><g transform="matrix(0.738747,0,0,1.49218,-1303.29,748.988)"><path d="M2622.35,303.531C2622.3,303.504 2620.78,302.393 2623,302.013C2623,302.013 2624.77,302.058 2624.77,302.058C2628.73,303.439 2626.94,303.38 2627.71,305.155C2627.98,305.615 2625.95,306.109 2625.71,305.695L2624.53,305.481C2621.89,304.673 2623.12,304.991 2622.35,303.531Z" style="fill:rgb(80,0,0);"/></g><g transform="matrix(0.738747,0,0,1.49218,-1302.73,764.076)"><path d="M2622.35,303.531C2622.3,303.504 2620.78,302.393 2623,302.013C2623,302.013 2624.77,302.058 2624.77,302.058C2628.73,303.439 2626.94,303.38 2627.71,305.155C2627.98,305.615 2625.95,306.109 2625.71,305.695L2624.53,305.481C2621.89,304.673 2623.12,304.991 2622.35,303.531Z" style="fill:rgb(80,0,0);"/></g><g transform="matrix(0.738747,0,0,1.49218,-1295.39,762.281)"><path d="M2622.35,303.531C2622.3,303.504 2620.78,302.393 2623,302.013C2623,302.013 2624.77,302.058 2624.77,302.058C2628.73,303.439 2626.94,303.38 2627.71,305.155C2627.98,305.615 2625.95,306.109 2625.71,305.695L2624.53,305.481C2621.89,304.673 2623.12,304.991 2622.35,303.531Z" style="fill:rgb(80,0,0);"/></g><g transform="matrix(0.738747,0,0,1.49218,-1417.26,764.745)"><path d="M2622.35,303.531C2622.3,303.504 2620.78,302.393 2623,302.013C2623,302.013 2624.77,302.058 2624.77,302.058C2628.73,303.439 2626.94,303.38 2627.71,305.155C2627.98,305.615 2625.95,306.109 2625.71,305.695L2624.53,305.481C2621.89,304.673 2623.12,304.991 2622.35,303.531Z" style="fill:rgb(80,0,0);"/></g><g transform="matrix(0.738747,0,0,1.49218,-1416.7,779.833)"><path d="M2622.35,303.531C2622.3,303.504 2620.78,302.393 2623,302.013C2623,302.013 2624.77,302.058 2624.77,302.058C2628.73,303.439 2626.94,303.38 2627.71,305.155C2627.98,305.615 2625.95,306.109 2625.71,305.695L2624.53,305.481C2621.89,304.673 2623.12,304.991 2622.35,303.531Z" style="fill:rgb(80,0,0);"/></g><g transform="matrix(0.738747,0,0,1.49218,-1409.36,778.038)"><path d="M2622.35,303.531C2622.3,303.504 2620.78,302.393 2623,302.013C2623,302.013 2624.77,302.058 2624.77,302.058C2628.73,303.439 2626.94,303.38 2627.71,305.155C2627.98,305.615 2625.95,306.109 2625.71,305.695L2624.53,305.481C2621.89,304.673 2623.12,304.991 2622.35,303.531Z" style="fill:rgb(80,0,0);"/></g><g transform="matrix(0.738747,0,0,1.49218,-1242.53,838.244)"><path d="M2622.35,303.531C2622.3,303.504 2620.78,302.393 2623,302.013C2623,302.013 2624.77,302.058 2624.77,302.058C2628.73,303.439 2626.94,303.38 2627.71,305.155C2627.98,305.615 2625.95,306.109 2625.71,305.695L2624.53,305.481C2621.89,304.673 2623.12,304.991 2622.35,303.531Z" style="fill:rgb(80,0,0);"/></g><g transform="matrix(0.738747,0,0,1.49218,-1241.97,853.332)"><path d="M2622.35,303.531C2622.3,303.504 2620.78,302.393 2623,302.013C2623,302.013 2624.77,302.058 2624.77,302.058C2628.73,303.439 2626.94,303.38 2627.71,305.155C2627.98,305.615 2625.95,306.109 2625.71,305.695L2624.53,305.481C2621.89,304.673 2623.12,304.991 2622.35,303.531Z" style="fill:rgb(80,0,0);"/></g><g transform="matrix(0.738747,0,0,1.49218,-1234.62,851.537)"><path d="M2622.35,303.531C2622.3,303.504 2620.78,302.393 2623,302.013C2623,302.013 2624.77,302.058 2624.77,302.058C2628.73,303.439 2626.94,303.38 2627.71,305.155C2627.98,305.615 2625.95,306.109 2625.71,305.695L2624.53,305.481C2621.89,304.673 2623.12,304.991 2622.35,303.531Z" style="fill:rgb(80,0,0);"/></g></g></g></g></svg>