<?xml version="1.0" ?><!DOCTYPE svg  PUBLIC '-//W3C//DTD SVG 1.1//EN'  'http://www.w3.org/Graphics/SVG/1.1/DTD/svg11.dtd'><svg width="512px" height="512px" viewBox="0 0 512 512" enable-background="new 0 0 512 512" id="Centaur" version="1.1" xml:space="preserve" xmlns="http://www.w3.org/2000/svg" xmlns:xlink="http://www.w3.org/1999/xlink"><path d="M140.26,80.403h-2.841c-5.848,0-10.589-4.741-10.589-10.589l0,0c0-5.848,4.741-10.589,10.589-10.589h2.841  V80.403z" fill="#E8897B"/><path d="M201.464,80.403h2.841c5.848,0,10.589-4.741,10.589-10.589l0,0c0-5.848-4.741-10.589-10.589-10.589h-2.841  V80.403z" fill="#E8897B"/><path d="M400.092,315.139c0,0,1.104-15.166,13.039-24.541c14.771-11.603,37.048-7.535,47.002,8.393  c5.063,8.1,8.369,20.303,5.986,38.619c-0.548,4.207-1.588,8.324-2.819,12.385c-2.041,6.73-4.826,19.463,1.412,24.311  c2.87,2.231,4.849,5.406,4.849,9.041v0.637c0,2.225-0.662,4.391-1.944,6.208c-2.868,4.069-8.942,10.585-18.417,10.585  c0,0-25.752,2.252-33.537-24.625L400.092,315.139z" fill="#F9C8B2"/><path d="M409.512,352.047l6.15,24.104c7.785,26.877,33.537,24.626,33.537,24.626c9.475,0,15.549-6.517,18.417-10.586  c1.282-1.818,1.944-3.983,1.944-6.208v-0.637c0-3.635-1.979-6.81-4.849-9.041c-6.238-4.849-3.453-17.58-1.412-24.311  c1.231-4.061,2.271-8.178,2.819-12.386c2.383-18.315-0.924-30.519-5.986-38.618c-4.582-7.332-11.784-12.114-19.654-14.048  C443.123,303.078,442.787,336.473,409.512,352.047z" fill="#CE957D"/><path d="M314.213,390.077c0,0,46.711,47.909,14.373,95.817c0,0-1.998,3.482-3.427,8.255  c-1.521,5.085,2.288,10.214,7.597,10.214h38.279c0,0,28.814-62.784-8.913-114.286H314.213z" fill="#56232B"/><path d="M331.865,480.505c-0.998,1.796-2.066,3.593-3.279,5.39c0,0-1.998,3.482-3.427,8.254  c-1.521,5.086,2.288,10.215,7.597,10.215h38.279c0,0,4.295-9.391,7.396-23.858H331.865z" fill="#333345"/><linearGradient gradientUnits="userSpaceOnUse" id="SVGID_1_" x1="120.5107" x2="423.7207" y1="371.4404" y2="371.4404"><stop offset="0" style="stop-color:#A06260"/><stop offset="1" style="stop-color:#82494C"/></linearGradient><path d="M176.016,245.422l-55.505,15.408v133.984c0,3.357,0.474,6.702,1.458,9.912  c3.948,12.876,13.831,51.68,2.787,88.157c-1.73,5.715,2.5,11.479,8.472,11.479h26.972c3.974,0,7.694-1.977,9.851-5.314  c3.573-5.531,8.702-15.271,11.392-28.718c0.378-1.892-1.566-34.848-3.828-57.216c-0.881-8.718,5.964-16.273,14.726-16.273h15.102  c7.746,0,14.17,5.945,14.76,13.669c1.588,20.796,3.023,60.479-6.284,84.376c-1.78,4.57,1.595,9.477,6.5,9.477h27.921  c4.791,0,9.189-2.628,11.422-6.867c3.287-6.244,7.803-15.882,9.931-25.208c0.37-1.624,0.476-3.292,0.419-4.957l-2.012-59.96  c-0.202-6.027,4.629-11.023,10.66-11.023h60.531c5.751,0,11.18,2.645,14.679,7.208c10.483,13.673,28.345,45.925,7.854,89.188  c-2.556,5.395,1.245,11.62,7.214,11.62h25.737c3.657,0,7.065-1.796,9.099-4.835c4.851-7.251,13.508-22.073,17.436-40.458  c0.988-4.627,0.178-9.473-2.135-13.601l-0.963-1.72c-1.648-2.945-2.516-6.264-2.516-9.64v-83.632l0,0  c0-22.619-13.83-42.938-34.871-51.233l-154.032-60.728L176.016,245.422z" fill="url(#SVGID_1_)"/><path d="M215.917,494.887c-1.78,4.57,1.595,9.477,6.499,9.477h27.921c4.791,0,9.189-2.628,11.422-6.867  c3.287-6.244,7.803-15.882,9.931-25.209c0.37-1.623,0.476-3.291,0.419-4.956l-1.453-43.298  c-6.581,18.326-21.722,49.102-51.28,59.186C218.431,487.373,217.307,491.32,215.917,494.887z" fill="#773E41"/><path d="M420.209,443.75c-1.648-2.945-2.516-6.265-2.516-9.64v-83.632c0-15.415-6.432-29.752-17.184-39.953  c-4.081,19.88-21.863,68.104-98.775,85.822h39.555c5.751,0,11.18,2.645,14.679,7.208c10.483,13.673,28.345,45.925,7.854,89.188  c-2.556,5.395,1.245,11.62,7.214,11.62h25.737c3.657,0,7.065-1.796,9.099-4.835c4.851-7.251,13.508-22.073,17.436-40.458  c0.988-4.628,0.178-9.473-2.135-13.602L420.209,443.75z" fill="#773E41"/><path d="M178.883,427.077c-4.609,15.357-17.41,42.59-52.052,57.736c-0.596,2.695-1.263,5.39-2.075,8.07  c-1.73,5.715,2.5,11.479,8.472,11.479h26.972c3.974,0,7.694-1.977,9.851-5.314c3.573-5.531,8.702-15.271,11.392-28.718  C181.746,468.808,180.543,447.139,178.883,427.077z" fill="#773E41"/><path d="M199.413,377.481c-13.063,0-23.694,10.772-23.254,23.829c0.22,6.527,1.455,11.804,1.455,11.804  c-0.881-8.717,5.964-16.272,14.726-16.272h15.102c7.746,0,14.17,5.945,14.76,13.669c0.391-3.868,0.529-7.285,0.47-10.302  C222.427,387.564,212.06,377.481,199.413,377.481z" fill="#773E41"/><path d="M349.964,286.291l-121.173-47.773l-8.795,1.15c-3.619,16.16-8.45,30.617-14.875,38.688  C205.12,278.355,301.326,316.215,349.964,286.291z" fill="#773E41"/><linearGradient gradientUnits="userSpaceOnUse" id="SVGID_2_" x1="172.0161" x2="172.0161" y1="115.1572" y2="338.2647"><stop offset="0.0051" style="stop-color:#FFC3B0"/><stop offset="1" style="stop-color:#E8897B"/></linearGradient><path d="M291.014,136.248c-9.404-15.611-27.328-32.264-61.007-32.264H115.862c0,0-0.308-0.006-0.831,0h-1.426  c0,0,0.002,0.036,0.002,0.038c-10.197,0.43-52.206,5.017-67.189,51.051c-6.563,20.165-5.341,43.87,6.179,61.674  c8.195,12.665,23.343,25.578,46.543,29.302c9.046,1.453,17.095-6.014,16.708-15.169l-0.017-0.389  c-0.249-5.9-4.045-10.983-9.544-13.134c-10.376-4.058-22.39-12.173-21.783-31.991c0.848-27.667,24.669-33.191,31.371-34.202  l4.635,109.666c0,0,29.232,20.523,54.681,31.72c5.761,2.534,12.456,1.438,17.206-2.692c11.375-9.888,32.205-28.994,39.583-42.344  l-1.973-96.673v-1.25c0,0,20.783,2.638,29.653,19.565c3.086,5.89,4.131,12.718,3.139,19.294c-1.12,7.429-5.029,17.235-17.217,22.278  c-5.952,2.462-9.967,8.112-9.967,14.553c0,10.018,9.324,17.604,19.062,15.251c18.577-4.489,41.063-17.171,46.078-52.942  C303.24,169.854,300.252,151.586,291.014,136.248z" fill="url(#SVGID_2_)"/><path d="M146.477,192.132h-8.746c-1.758,0-3.184-1.426-3.184-3.184l0,0c0-1.758,1.425-3.184,3.184-3.184h8.746  c1.758,0,3.184,1.425,3.184,3.184l0,0C149.661,190.707,148.235,192.132,146.477,192.132z" fill="#E8897B"/><path d="M208.651,192.132h-8.746c-1.759,0-3.184-1.426-3.184-3.184l0,0c0-1.758,1.425-3.184,3.184-3.184h8.746  c1.758,0,3.184,1.425,3.184,3.184l0,0C211.835,190.707,210.41,192.132,208.651,192.132z" fill="#E8897B"/><path d="M213.329,123.123v-19.139H165.32v47.778h19.369C200.506,151.762,213.329,138.939,213.329,123.123z" fill="#E8897B"/><path d="M231.98,247.513l-1.833-89.839c0,0-4.048,94.329-25.026,120.681l0,0  C215.468,268.6,226.906,256.695,231.98,247.513z" fill="#E8897B"/><linearGradient gradientUnits="userSpaceOnUse" id="SVGID_3_" x1="170.8618" x2="170.8618" y1="38.6304" y2="130.1488"><stop offset="0.0051" style="stop-color:#FFC3B0"/><stop offset="1" style="stop-color:#E8897B"/></linearGradient><path d="M170.862,153.17L170.862,153.17c-18.92,0-34.258-15.338-34.258-34.258V41.895  c0-18.92,15.338-34.258,34.258-34.258l0,0c18.92,0,34.258,15.338,34.258,34.258v77.018  C205.12,137.833,189.782,153.17,170.862,153.17z" fill="url(#SVGID_3_)"/><linearGradient gradientUnits="userSpaceOnUse" id="SVGID_4_" x1="136.604" x2="205.1201" y1="116.7866" y2="116.7866"><stop offset="0" style="stop-color:#A06260"/><stop offset="1" style="stop-color:#82494C"/></linearGradient><path d="M136.604,114.661v3.078c0,18.246,13.77,34.178,31.978,35.357  c19.953,1.292,36.539-14.509,36.539-34.184v-4.251c0-18.92-15.338-34.258-34.258-34.258h0  C151.942,80.403,136.604,95.741,136.604,114.661z" fill="url(#SVGID_4_)"/><circle cx="158.53" cy="59.226" fill="#333345" r="5.213"/><circle cx="183.194" cy="59.226" fill="#333345" r="5.214"/><path d="M133.228,504.363h26.972c3.974,0,7.694-1.977,9.851-5.314c2.594-4.017,6-10.281,8.707-18.544h-51.06  c-0.751,4.129-1.696,8.269-2.94,12.379C123.026,498.599,127.256,504.363,133.228,504.363z" fill="#4D4D5F"/><path d="M222.417,504.363h27.921c4.791,0,9.189-2.628,11.422-6.867c2.319-4.406,5.236-10.508,7.508-16.991h-49.288  c-1.045,5.173-2.372,10.042-4.062,14.382C214.138,499.457,217.512,504.363,222.417,504.363z" fill="#4D4D5F"/><path d="M368.725,480.505c-1.307,3.974-2.921,8.053-4.903,12.238c-2.556,5.395,1.245,11.62,7.214,11.62h25.737  c3.657,0,7.065-1.796,9.099-4.835c2.756-4.12,6.73-10.748,10.379-19.023H368.725z" fill="#4D4D5F"/></svg>