<?xml version="1.0" ?><!DOCTYPE svg  PUBLIC '-//W3C//DTD SVG 1.1//EN'  'http://www.w3.org/Graphics/SVG/1.1/DTD/svg11.dtd'><svg width="512px" height="512px" viewBox="0 0 512 512" enable-background="new 0 0 512 512" id="Food" version="1.1" xml:space="preserve" xmlns="http://www.w3.org/2000/svg" xmlns:xlink="http://www.w3.org/1999/xlink"><path d="M102.218,235.23l12.114-36.339l-44.29-5.3c0,0,2.577-4.94,4.058-11.55  c4.007-17.884-12.719-34.364-30.05-28.406c-5.384,1.851-10.6,5.889-14.132,13.838c0,0-4.058,12.171,4.057,21.047  c1.143,1.25,0.239,3.313-1.453,3.391c-7.517,0.346-20.273,3.038-24.677,16.765c-1.053,3.281-1.367,6.778-1.048,10.209  c0.744,7.984,5.046,21.143,25.307,21.315c2.628,0.022,5.247-0.307,7.799-0.931c6.723-1.646,19.436-8.371,24.462-18.423  L102.218,235.23z" fill="#E3EEFF"/><path d="M71.411,223.524l30.806,11.706l12.115-36.339l-14.615-1.749C95.584,205.584,87.027,218.282,71.411,223.524z" fill="#C7DAFF"/><path d="M59.594,227.467c-12.472,2.896-40.771,5.502-46.023-28.249c-2.397,2.35-4.43,5.415-5.726,9.457  c-1.053,3.281-1.367,6.779-1.048,10.21c0.744,7.984,5.046,21.143,25.307,21.315c2.628,0.022,5.246-0.307,7.799-0.931  C45.013,238.018,53.568,233.819,59.594,227.467z" fill="#C7DAFF"/><linearGradient gradientUnits="userSpaceOnUse" id="SVGID_1_" x1="186.2236" x2="309.5694" y1="152.9614" y2="408.9622"><stop offset="0.0051" style="stop-color:#FFC8A8"/><stop offset="1" style="stop-color:#FF8E73"/></linearGradient><path d="M340.144,162.854c0,0-44.229,4.541-69.566,10.663c-3.954,0.955-7.985,1.403-12.052,1.257  c-0.112-0.004-0.226-0.008-0.34-0.013c-11.577-0.462-22.506-5.492-30.616-13.767l-19.211-19.601  c-7.952-8.113-20.021-10.634-30.518-6.289c-18.267,7.562-46.272,23.644-65.946,55.682c-9.893,16.109-14.601,34.839-14.084,53.736  c0.542,19.831,3.666,47.195,15.438,65.437c3.544,5.492,9.757,8.641,16.278,8.217c18.733-1.217,62.097-2.865,85.475,5.756  c2.509,0.925,5.144,1.322,7.813,1.145c6.139-0.408,18.119,0.371,25.229,11.17c0.953,1.447,1.951,2.85,3.203,4.048  c7.336,7.019,35.095,30.571,82.405,36.251L340.144,162.854z" fill="url(#SVGID_1_)"/><path d="M123.555,242.279c-1.795,4.645-4.287,12.048-4.759,18.375c-0.3,4.021,1.537,7.886,4.915,10.086  c1.721,1.121,3.979,2.322,6.851,3.361c3.071,1.109,6.4-0.917,6.763-4.162c0.485-4.346,0.781-10.805-0.253-18.237  c-0.355-2.55-1.601-4.908-3.51-6.635l-4.532-4.1C127.249,239.356,124.42,240.039,123.555,242.279z" fill="#FA6B5A"/><path d="M191.71,180.328l8.683,12.747c2.176,3.195,6.059,4.769,9.845,3.992l3.594-0.737  c1.519-0.312,2.565-1.719,2.386-3.259c-0.303-2.604-1.002-6.744-2.604-10.941c-1.395-3.652-4.832-6.16-8.73-6.444  c-3.089-0.226-7.056-0.355-11.004-0.039C191.613,175.828,190.431,178.449,191.71,180.328z" fill="#FA6B5A"/><path d="M114.332,311.416c3.646,4.57,9.283,7.144,15.196,6.76c18.732-1.217,62.096-2.865,85.474,5.756  c2.509,0.925,5.144,1.322,7.812,1.145c6.14-0.408,18.12,0.371,25.229,11.17c0.953,1.447,1.951,2.85,3.203,4.048  c7.336,7.018,35.095,30.571,82.405,36.251l6.491-213.691c0,0-17.865,1.835-37.391,4.744  C300.605,203.267,280.085,307.361,114.332,311.416z" fill="#FF8E73"/><path d="M340.144,162.854c0,0-50.716,41.26-64.828,129.439c-1.77,11.055,0.498,22.383,6.486,31.841  c9.04,14.278,23.955,35.535,39.063,47.097c3.725,2.852,8.146,4.633,12.786,5.314l14.659,2.156c8.295,1.22,16.675-1.332,22.91-6.936  c19.067-17.135,56.562-58.518,51.701-115.611c-0.656-7.715-5.395-14.646-12.432-17.877c-8.48-3.894-19.227-12.092-19.964-28.745  c-0.206-4.647-2.227-9.005-5.286-12.509C377.109,187.713,360.527,171.007,340.144,162.854z" fill="#FA6B5A"/><path d="M353.393,285.65c0.008-0.39,0.02-0.781,0.036-1.176c0.647-15.521,16.466-25.766,30.929-20.098  c16.619,6.512,39.413,14.85,51.007,16.468c0,0,12.804-32.345,39.57-31.176c9.597,0.42,18.564,5.507,24.072,13.377  c3.591,5.132,6.678,12.231,6.28,21.241c-0.558,12.645-8.08,24.293-19.76,29.172c-1.176,0.49-2.414,0.928-3.712,1.289  c-4.385,1.223-7.029,5.635-6.135,10.098c0.625,3.119,1.109,6.849,1.089,10.865c-0.131,25.529-28.492,42.089-50.739,29.568  c-5.807-3.268-10.838-8.725-13.385-17.641c-0.909-3.181-1.363-19.084,5.452-26.809c0,0-25.345-8.543-46.501-13.005  C361.054,305.602,353.171,296.422,353.393,285.65z" fill="#E3EEFF"/><path d="M476.395,340.52c-4.199,3.603-9.134,5.395-13.577,6.18c-8.646,1.527-17.758-0.816-24.272-6.701  c-9.653-8.722-8.802-20.598-6.633-28.602c1.179-4.352-1.691-8.727-6.177-9.189c-24.512-2.531-57.269-15.222-71.859-21.234  c-0.226,1.137-0.396,2.297-0.447,3.502c-0.013,0.3-0.022,0.598-0.03,0.894c-0.273,10.849,7.385,20.187,18.005,22.416  c21.195,4.45,46.694,13.046,46.694,13.046c-6.815,7.725-6.361,23.628-5.453,26.809c2.548,8.916,7.579,14.373,13.386,17.641  C446.847,376.994,473.005,363.246,476.395,340.52z" fill="#C7DAFF"/></svg>