<?xml version="1.0" ?><!DOCTYPE svg  PUBLIC '-//W3C//DTD SVG 1.1//EN'  'http://www.w3.org/Graphics/SVG/1.1/DTD/svg11.dtd'><svg width="512px" height="512px" viewBox="0 0 512 512" enable-background="new 0 0 512 512" id="Helm" version="1.1" xml:space="preserve" xmlns="http://www.w3.org/2000/svg" xmlns:xlink="http://www.w3.org/1999/xlink"><circle cx="256" cy="51.255" fill="#C7DAFF" r="8.626"/><path d="M237.901,57.425c0,0-113.113,5.347-113.113,143.963h113.113V57.425z" fill="#FFFFFF"/><path d="M274.099,57.425c0,0,113.113,5.347,113.113,143.963H274.099V57.425z" fill="#C7DAFF"/><path d="M256,233.39H148.468v136.648c0,8.557,8.575,14.362,16.572,11.32c17.129-6.517,47.503-14.835,90.96-14.835  s73.831,8.318,90.96,14.835c7.997,3.042,16.572-2.764,16.572-11.32V233.39H256z" fill="#8C266B"/><path d="M140.446,201.388h97.455V66.648C229.48,134.018,203.799,178.27,140.446,201.388z" fill="#C7DAFF"/><path d="M271.014,51.255H256h-15.014c-3.066,0-5.553,2.486-5.553,5.553v141.701H256h20.566V56.808  C276.566,53.741,274.08,51.255,271.014,51.255z" fill="#FFFFFF"/><linearGradient gradientUnits="userSpaceOnUse" id="SVGID_1_" x1="140.4458" x2="140.4458" y1="449.0078" y2="277.4065"><stop offset="0" style="stop-color:#CC5697"/><stop offset="1" style="stop-color:#8E3979"/></linearGradient><path d="M131.423,245.289c-1.552,18.332-9.396,103.005-26.645,164.654c-1.132,4.045-0.538,8.384,1.803,11.872  c6.762,10.077,24.187,31.024,60.022,46.921c4.937,2.191,10.444-1.576,10.045-6.963c-1.963-26.494-6.161-95.002-3.053-162.698  c0,0-31.056-17.519-40.996-53.852C132.419,244.565,131.48,244.609,131.423,245.289z" fill="url(#SVGID_1_)"/><linearGradient gradientUnits="userSpaceOnUse" id="SVGID_2_" x1="371.5547" x2="371.5547" y1="444.3154" y2="284.2495"><stop offset="0" style="stop-color:#CC5697"/><stop offset="1" style="stop-color:#8E3979"/></linearGradient><path d="M380.577,245.289c1.552,18.332,9.396,103.005,26.645,164.654c1.132,4.045,0.538,8.384-1.803,11.872  c-6.763,10.077-24.187,31.024-60.022,46.921c-4.937,2.191-10.444-1.576-10.045-6.963c1.963-26.494,6.161-95.002,3.053-162.698  c0,0,31.055-17.519,40.997-53.852C379.581,244.565,380.52,244.609,380.577,245.289z" fill="url(#SVGID_2_)"/><path d="M158.828,238.666c0,0,5.611,54.24,86.889,50.188l-0.54,28.99c0,0-105.364,12.781-116.274-79.178H158.828z" fill="#FFFFFF"/><circle cx="256" cy="103.039" fill="#C7DAFF" r="8.626"/><circle cx="256" cy="158.58" fill="#C7DAFF" r="8.626"/><path d="M353.172,238.666c0,0-5.611,54.24-86.889,50.188l0.54,28.99c0,0,105.364,12.781,116.274-79.178H353.172z" fill="#FFFFFF"/><path d="M256,238.666h-13.941v82.299c0,4.818,3.906,8.725,8.726,8.725H256h5.216c4.819,0,8.726-3.906,8.726-8.725  v-82.299H256z" fill="#C7DAFF"/><path d="M274.099,201.388h113.113c0-4.414-0.12-8.687-0.343-12.835H274.099V201.388z" fill="#819FEA"/><path d="M347.06,255.698h32.618c1.512-5.245,2.691-10.888,3.42-17.033h-29.926  C353.172,238.666,352.375,246.34,347.06,255.698z" fill="#819FEA"/><path d="M158.828,238.666h-29.926c0.729,6.145,1.908,11.788,3.421,17.033h32.616  C159.626,246.34,158.828,238.666,158.828,238.666z" fill="#819FEA"/><polygon fill="#819FEA" points="242.059,238.666 242.059,255.697 269.941,255.697 269.941,238.666 256,238.666 "/><path d="M125.131,188.553c-0.223,4.148-0.343,8.421-0.343,12.835h113.113v-12.835H125.131z" fill="#819FEA"/><polygon fill="#C7DAFF" points="235.434,188.553 235.434,198.509 256,198.509 276.566,198.509 276.566,188.553 "/><path d="M388.857,198.509H256H123.143c-3.407,0-6.17,2.762-6.17,6.17v30.849c0,3.408,2.763,6.17,6.17,6.17H256  h132.857c3.407,0,6.17-2.762,6.17-6.17v-30.849C395.027,201.271,392.265,198.509,388.857,198.509z" fill="#FFFFFF"/><circle cx="142.626" cy="220.104" fill="#C7DAFF" r="8.625"/><circle cx="199.313" cy="220.104" fill="#C7DAFF" r="8.626"/><circle cx="256" cy="220.104" fill="#C7DAFF" r="8.626"/><circle cx="369.374" cy="220.104" fill="#C7DAFF" r="8.625"/><circle cx="312.687" cy="220.104" fill="#C7DAFF" r="8.626"/></svg>