<?xml version="1.0" ?><!DOCTYPE svg  PUBLIC '-//W3C//DTD SVG 1.1//EN'  'http://www.w3.org/Graphics/SVG/1.1/DTD/svg11.dtd'><svg width="512px" height="512px" viewBox="0 0 512 512" enable-background="new 0 0 512 512" id="Knight" version="1.1" xml:space="preserve" xmlns="http://www.w3.org/2000/svg" xmlns:xlink="http://www.w3.org/1999/xlink"><path d="M397.117,261.816c0,0-19.654-9.933-42.365,53.431l39.046,40.416  C393.798,355.663,421.435,294.255,397.117,261.816z" fill="#375DAB"/><linearGradient gradientUnits="userSpaceOnUse" id="SVGID_1_" x1="274.2451" x2="276.2507" y1="310.2207" y2="155.1373"><stop offset="0.0051" style="stop-color:#FFC3B0"/><stop offset="1" style="stop-color:#E8897B"/></linearGradient><path d="M240.722,187.892v42.194c0,9.713-2.941,19.173-8.46,27.165  c-10.207,14.782-27.984,39.321-43.904,55.241c0,0,60.152,43.199,127.96,65.62l43.748-65.073c0,0-35.745-12.578-33.458-47.576  L240.722,187.892z" fill="url(#SVGID_1_)"/><path d="M326.607,265.463l-85.886-77.571v42.194c0,0.564-0.044,1.125-0.064,1.688l102.158,106.924l17.25-25.658  C360.065,313.039,324.32,300.461,326.607,265.463z" fill="#E8897B"/><path d="M188.356,312.492c0,0,60.153,43.199,127.961,65.62l43.748-65.073c0,0-11.502-4.056-21.04-13.949  c-2.05,4.731-5.02,8.541-8.189,11.531c-6.975,6.579-16.266,10.082-25.824,10.828c-48.879,3.816-84.48-27.941-93.033-36.398  C204.396,294.826,196.156,304.693,188.356,312.492z" fill="#375DAB"/><path d="M138.629,355.443l65.258-60.271c0,0,51.396,45.813,102.731,64.678c3.251,1.194,6.909,0.193,9.182-2.42  c7.214-8.297,22.504-27.356,27.86-45.484l16.405,1.094c0,0,16.851,19.01,31.733,31.301c3.854,3.183,6.677,7.41,7.94,12.246  c6.146,23.523,16.231,94.301-63.159,150.207c-2.545,1.792-5.604,2.709-8.717,2.703c-17.378-0.025-76.74-4.477-125.479-60.294  c0,0-25.552-28.183-55.213-41.36c-10.503-4.667-17.611-14.697-18.647-26.144l0,0C127.633,371.852,131.367,362.15,138.629,355.443z" fill="#FFFFFF"/><path d="M391.799,344.34c-14.883-12.291-31.733-31.301-31.733-31.301l-16.377-1.092l-0.042,0.038  c-5.198,17.548-19.666,35.928-27.121,44.601c7.818,113.326-75.594,105.819-108.834,98.429  c47.655,50.302,103.42,54.456,120.172,54.481c3.113,0.006,6.172-0.911,8.717-2.703c79.391-55.906,69.305-126.684,63.159-150.207  C398.476,351.75,395.652,347.522,391.799,344.34z" fill="#CDE0FF"/><path d="M399.739,356.586c-1.264-4.836-4.087-9.063-7.94-12.246c-14.883-12.291-31.733-31.301-31.733-31.301  l-16.405-1.094c-5.356,18.128-20.646,37.188-27.86,45.484c-1.063,1.223-2.434,2.075-3.919,2.532  c21.161,63.453,19.606,129.354,18.518,149.317c2.213-0.361,4.335-1.186,6.182-2.486  C415.971,450.887,405.885,380.109,399.739,356.586z" fill="#AFC8FF"/><linearGradient gradientUnits="userSpaceOnUse" id="SVGID_2_" x1="204.3711" x2="153.7395" y1="308.0303" y2="228.2211"><stop offset="0" style="stop-color:#CC5697"/><stop offset="1" style="stop-color:#8E3979"/></linearGradient><path d="M178.944,289.678l20.131-11.424c5.185-2.941,11.729-1.834,15.594,2.704  c6.357,7.464,15.659,19.826,21.771,34.353c3.706,8.811,0.458,19.008-7.75,23.904l0,0c-6.95,4.146-15.745,3.44-21.967-1.735  c-8.288-6.895-20.131-17.256-30.653-28.359C170.491,303.234,171.893,293.681,178.944,289.678z" fill="url(#SVGID_2_)"/><linearGradient gradientUnits="userSpaceOnUse" id="SVGID_3_" x1="348.3584" x2="366.3793" y1="330.7305" y2="270.6605"><stop offset="0" style="stop-color:#CC5697"/><stop offset="1" style="stop-color:#8E3979"/></linearGradient><path d="M340.279,298.871l0.883,34.443c0.149,5.842,4.573,10.684,10.377,11.358l0,0  c5.25,0.61,10.278-2.342,12.237-7.25c2.038-5.106,4.351-12.01,5.351-19.023c0.475-3.322-0.779-6.652-3.244-8.931  c-3.943-3.643-10.814-9.377-19.633-14.281C343.533,293.676,340.2,295.763,340.279,298.871z" fill="url(#SVGID_3_)"/><path d="M127.982,245.622c21.512,11.911,67.045,45.725,68.608,119.115c0.062,2.874-0.614,5.716-1.893,8.29  c-6.011,12.104-27.357,45.396-82.178,50.643c-4.802,0.46-9.553-1.353-12.804-4.916c-7.421-8.133-23.035-23.4-42.696-32.256  c-5.587-2.518-8.901-8.398-8.186-14.484c2.318-19.721,12.435-60.721,56.096-80.281c5.21-2.334,9.121-6.793,10.609-12.305  c1.755-6.494,3.424-16.064,2.75-27.722C117.993,246.568,123.48,243.129,127.982,245.622z" fill="#EEF5FF"/><path d="M194.698,373.027c1.278-2.574,1.954-5.416,1.893-8.29c-1.527-71.716-45.027-105.628-67.085-118.253  c21.374,28.053,78.9,119.362-35.867,166c2.369,2.325,4.452,4.488,6.078,6.27c3.25,3.563,8.002,5.376,12.804,4.916  C167.342,418.423,188.688,385.132,194.698,373.027z" fill="#C7DAFF"/><path d="M85.634,326.094c1.886-4.138,5.352-8.881,11.721-12.338c0.276-0.15,0.569-0.287,0.865-0.396  c1.295-0.481,5.205-1.787,9.563-1.803c4.678-0.018,7.691,4.988,5.387,9.059c-2.978,5.26-8.988,11.859-20.81,13.891  C87.545,335.332,83.607,330.54,85.634,326.094z" fill="#FFFFFF"/><linearGradient gradientUnits="userSpaceOnUse" id="SVGID_4_" x1="217.3198" x2="217.3198" y1="119.6138" y2="411.5316"><stop offset="0" style="stop-color:#CC5697"/><stop offset="1" style="stop-color:#8E3979"/></linearGradient><path d="M281.39,47.353L281.39,47.353c0-24.77-20.079-44.849-44.849-44.849l0,0  c-46,0-83.29,37.29-83.29,83.29V220.34c0,9.799,7.943,17.743,17.742,17.743l0,0c9.799,0,17.742-7.944,17.742-17.743v-21.438  c0-4.491,3.641-8.132,8.132-8.132l0,0c4.491,0,8.132,3.641,8.132,8.132v7.64c0,5.987,4.854,10.842,10.843,10.842l0,0  c5.988,0,10.843-4.854,10.843-10.842V150.85C226.685,150.85,225.206,76.43,281.39,47.353z" fill="url(#SVGID_4_)"/><path d="M236.541,2.504L236.541,2.504c-12.177,0-23.73,2.634-34.156,7.33c20.04,4.269,50.212,18.157,39.928,63.346  l6.765,2.704c7.77-11.102,18.228-21.242,32.313-28.531C281.39,22.583,261.311,2.504,236.541,2.504z" fill="#A03774"/><path d="M229.514,179.146c0,0-17.557-7.937-19.373-38.586c-1.274-21.487,5.293-42.817,17.998-60.192  c5.124-7.008,11.768-14.413,20.228-21.042c32.111-25.162,77.159-26.15,110.59-2.77c14.69,10.273,27.934,26.128,32.029,50.513  c0.556,3.309,0.809,6.662,0.947,10.015c0.449,10.92,0.381,33.998-7.376,43.644L229.514,179.146z" fill="#EEF5FF"/><path d="M384.557,160.728c7.757-9.646,7.825-32.724,7.376-43.644c-0.138-3.353-0.392-6.706-0.947-10.015  c-4.096-24.385-17.339-40.239-32.029-50.513c-19.144-13.389-42.091-18.748-64.242-16.192c22.958,9.664,59.604,41.092-33.582,135.025  L384.557,160.728z" fill="#C7DAFF"/><path d="M224.586,119.971c1.164-7.08,5.232-24.78,17.937-36.706c3.222-3.025,8.124-3.415,11.784-0.938l0,0  c4.306,2.914,5.442,8.745,2.549,13.065c-5.39,8.045-14.388,20.531-23.619,29.182c-1.854,1.737-4.689,1.866-6.702,0.315l0,0  C225.026,123.727,224.277,121.85,224.586,119.971z" fill="#FFFFFF"/><linearGradient gradientUnits="userSpaceOnUse" id="SVGID_5_" x1="336.1582" x2="244.5789" y1="250.7617" y2="109.7161"><stop offset="0.0051" style="stop-color:#FFC3B0"/><stop offset="1" style="stop-color:#E8897B"/></linearGradient><path d="M240.722,187.892l7.761,32.224c1.406,5.843,4.803,11.023,9.647,14.579  c11.676,8.566,36.225,24.784,68.879,36.626c3.857,1.398,7.95,2.045,12.054,2.045h8.435c5.884,0,11.199-3.442,13.6-8.814  c4.793-10.723,12.286-30.813,15.907-57.974L250.98,179.146L240.722,187.892z" fill="url(#SVGID_5_)"/><path d="M265.688,182.347l-2.853,8.726c0,0,36.556,23.462,71.207,37.934c6.821,2.849,11.425,9.374,11.513,16.766  c0.078,6.656-0.201,15.9-1.467,27.594h3.409c5.884,0,11.199-3.442,13.601-8.814c4.792-10.723,12.285-30.814,15.906-57.975  L265.688,182.347z" fill="#E8897B"/><path d="M242.867,168.642c10.202-10.034,47.141-43.836,110.063-74.053c0,0,34.274,34.274,51.623,68.125v16.503  c0,0-16.342,26.915-48.923,47.649c0,0-54.445-10.532-111.532-46.917c-1.571-1.002-2.706-2.587-3.157-4.395l0,0  C240.318,173.064,241.037,170.441,242.867,168.642z" fill="#EEF5FF"/><path d="M296.107,207.307c34.199,14.647,59.523,19.56,59.523,19.56c32.581-20.734,48.923-47.649,48.923-47.649  v-16.503c-14.148-27.605-39.539-55.478-48.431-64.828C356.761,122.464,352.724,186.663,296.107,207.307z" fill="#C7DAFF"/><path d="M404.554,179.217v-16.503c-17.349-33.851-51.623-68.125-51.623-68.125s9.208,51.292,2.7,132.277  C388.212,206.132,404.554,179.217,404.554,179.217z" fill="#819FEA"/><path d="M324.305,139.148c0,0,5.738-5.025,15.42-11.111c0,0,3.372,40.663,0.613,67.334l-15.42-8.481L324.305,139.148  z" fill="#375DAB"/><path d="M301.893,154.366l1.796,21.047l-14.135-8.102C289.554,167.312,298.137,158.823,301.893,154.366z" fill="#375DAB"/><path d="M369.607,134.256c0,0,2.026,28.685,0.336,59.959l9.798-11.249l0.305-37.136L369.607,134.256z" fill="#375DAB"/><path d="M393.798,163.53c-1.344-1.563-2.977-3.399-4.443-4.866v16.238l4.443-5.031V163.53z" fill="#375DAB"/><circle cx="240.721" cy="175.413" fill="#C7DAFF" r="17.503"/><path d="M397.117,261.816c0,0,16.872,31.598-5.126,82.89c-2.442,5.692-1.662,12.251,2.263,17.045  c5.494,6.711,13.889,16.292,22.575,23.686c7.895,6.718,18.821,8.526,28.486,4.775c4.157-1.612,8.777-3.817,13.345-6.812  c4.308-2.822,5.818-8.428,3.557-13.055c-5.569-11.395-18.641-33.754-43.948-56.361c-1.425-1.273-2.311-3.046-2.397-4.954  C415.447,299.656,412.861,270.404,397.117,261.816z" fill="#819FEA"/><path d="M186.541,434.025c17.616-21.152,50.458-58.766,85.93-90.223c-7.133-3.998-14.021-8.217-20.498-12.438  c-10.954,24.433-34.844,57.382-86.932,86.346C173.188,423.01,180.549,428.825,186.541,434.025z" fill="#CDE0FF"/><path d="M291.942,353.762c-3.386-1.554-6.746-3.199-10.073-4.909c-17.385,20.25-57.174,66.259-84.475,95.216  c3.169,3.135,4.99,5.133,4.99,5.133c0.469,0.537,0.943,1.037,1.414,1.563C222.429,427.802,260.499,382.288,291.942,353.762z" fill="#CDE0FF"/></svg>