<?xml version="1.0" ?><!DOCTYPE svg  PUBLIC '-//W3C//DTD SVG 1.1//EN'  'http://www.w3.org/Graphics/SVG/1.1/DTD/svg11.dtd'><svg width="512px" height="512px" viewBox="0 0 512 512" enable-background="new 0 0 512 512" id="Poison_x5F_Spider" version="1.1" xml:space="preserve" xmlns="http://www.w3.org/2000/svg" xmlns:xlink="http://www.w3.org/1999/xlink"><path d="M342.863,224.917L342.863,224.917c-6.025-0.625-10.403-6.017-9.777-12.042L344.809,99.98  c0.626-6.024,6.017-10.401,12.041-9.776l0,0c6.025,0.625,10.403,6.017,9.777,12.042l-11.723,112.895  C354.278,221.165,348.888,225.542,342.863,224.917z" fill="#AD5A58"/><path d="M348.666,238.351L348.666,238.351c-6.178-0.36-10.84-5.729-10.299-11.895  c2.097-23.918,8.535-79.915,24.738-111.952c3.97-7.85,11.63-13.049,20.552-13.731c6.569-0.502,13.033,1.941,18.134,6.111  c36.877,30.145,70.035,48.785,91.396,51.834c5.02,0.716,8.852,4.81,9.296,9.861l0,0c0.612,6.976-5.393,12.846-12.324,11.845  c-34.782-5.023-78.339-36.941-102.947-57.126c-0.873-0.714-1.776-0.707-2.378-0.585c-0.543,0.114-1.544,0.485-2.152,1.692  c-14.389,28.45-20.438,81.385-22.441,103.948C359.715,234.27,354.596,238.697,348.666,238.351z" fill="#DD8378"/><path d="M486.587,267.809c-2.135,7.302-11.022,10.453-17.008,5.757c-7.709-6.049-14.753-15.346-21.047-27.805  c-6.595-13.035-11.28-27.642-14.331-44.644c-6.447-35.962-20.503-55.158-29.499-64.155c-1.207-1.207-2.872-1.802-4.572-1.651l0,0  c-1.603,0.142-3.104,0.91-4.062,2.202c-18.461,24.915-23.581,79.481-24.303,108.617c-0.146,5.888-4.886,10.605-10.774,10.7l0,0  c-6.219,0.101-11.287-4.973-11.132-11.191c0.668-26.655,4.984-92.765,30.844-124.073c4.47-5.413,11.025-8.79,17.987-9.269  c6.999-0.51,13.708,1.871,18.885,6.623c13.198,12.118,30.547,35.54,38.22,78.327c2.666,14.874,6.694,27.506,12.313,38.621  c4.736,9.371,9.829,16.314,14.795,20.284c3.479,2.779,4.944,7.345,3.695,11.618L486.587,267.809z" fill="#FFB7A5"/><path d="M348.906,249.921c3.551-30.668,14.247-189.711-139.634-227.66c-35.696-8.803-73.433-4.854-105.769,12.642  C80.76,47.211,56.421,66.909,40.332,98.225c-24.339,47.373-21.471,104.79,7.479,149.493c22.937,35.417,66.017,70.769,146.591,70.51  c0,0,60.812-1.598,98.341-1.772c13.378-0.062,25.659-7.354,32.121-19.067l21.063-38.179  C347.518,256.328,348.527,253.191,348.906,249.921z" fill="#A99FF1"/><path d="M209.272,22.262c2.954,0.729,5.833,1.514,8.661,2.334C215.1,23.78,212.227,22.99,209.272,22.262z" fill="#E0F2FF"/><path d="M194.065,19.329c2.024,0.288,4.043,0.631,6.061,1C198.109,19.958,196.09,19.62,194.065,19.329z" fill="#E0F2FF"/><path d="M177.63,17.864c2.523,0.089,5.048,0.248,7.57,0.459C182.678,18.109,180.153,17.953,177.63,17.864z" fill="#E0F2FF"/><path d="M185.992,18.394c2.218,0.197,4.433,0.452,6.646,0.746C190.425,18.842,188.21,18.594,185.992,18.394z" fill="#E0F2FF"/><path d="M201.821,20.63c2.491,0.485,4.977,1.021,7.451,1.631C206.798,21.652,204.313,21.118,201.821,20.63z" fill="#E0F2FF"/><path d="M305.69,100.131l-6.655-8.446c-3.646-4.63-5.579-10.362-5.439-16.253c0.061-2.603,0.037-5.646-0.116-8.848  c-18.462-17.638-42.736-32.37-74.537-41.69c2.761,0.816,5.478,1.664,8.133,2.556c0.903,12.835-5.267,24.351-15.829,27.66  c-12.849,4.025-27.307-5.614-32.293-21.531c-1.683-5.372-2.045-10.762-1.327-15.714c-25.653-0.905-51.24,4.659-74.122,17.04  C84.549,45.161,64.502,60.58,49.03,83.553c-1.2,22.985,4.786,59.501,49.69,77.701c0,0,48.161,15.361,81.568-4.256  c8.428-4.947,19.035-4.265,27.192,1.116l15.349,10.125c6.699,4.418,14.69,6.599,22.678,5.832c2.522-0.242,5.153-0.714,7.717-1.537  c4.64-1.488,6.059-7.374,2.604-10.809l-16.016-15.926c-4.017-3.994-2.967-10.744,2.072-13.33l2.498-1.281  c3.1-1.591,6.863-1.085,9.434,1.267l35.648,32.616c3.638,3.328,9.277,3.105,12.642-0.5c3.022-3.24,3.233-8.199,0.497-11.684  l-27.232-34.679c-2.445-3.115-2.354-7.488,0.188-10.524c0.044-0.052,0.087-0.104,0.131-0.156c3.166-3.8,8.964-3.959,12.386-0.388  l8.835,9.221c4.053,4.23,11.196,1.961,12.065-3.832C309.639,108.12,308.449,103.634,305.69,100.131z M136.829,113.209  c-19.011,0-34.423-12.44-34.423-27.786s15.412-27.787,34.423-27.787s34.422,12.44,34.422,27.787S155.84,113.209,136.829,113.209z   M225.979,91.404c-2.395,2.922-6.096,5.74-11.814,7.416c-6.2,1.816-12.681-2.035-13.793-8.399c-0.447-2.556-0.606-5.417-0.135-8.349  c0.857-5.328,5.665-9.133,11.057-8.906c2.753,0.115,5.957,0.475,9.055,1.345C227.646,76.561,230.783,85.541,225.979,91.404z" fill="#E0F2FF"/><path d="M217.934,24.596c0.339,0.098,0.672,0.199,1.009,0.298C218.606,24.794,218.271,24.694,217.934,24.596z" fill="#E0F2FF"/><path d="M185.2,18.324c0.265,0.022,0.527,0.045,0.792,0.07C185.729,18.37,185.465,18.346,185.2,18.324z" fill="#E0F2FF"/><path d="M192.638,19.14c0.476,0.064,0.952,0.121,1.428,0.189C193.59,19.262,193.113,19.203,192.638,19.14z" fill="#E0F2FF"/><polygon fill="#E0F2FF" points="177.626,17.864 177.626,17.864 177.63,17.864 "/><path d="M200.126,20.329c0.564,0.104,1.131,0.191,1.695,0.302C201.257,20.521,200.69,20.432,200.126,20.329z" fill="#E0F2FF"/><path d="M250.625,37.037c8.321,23.694,22.934,75.135,15.08,126.901c-5.578,36.774-26.627,69.32-57.016,90.767  c-25.32,17.871-63.359,37.528-110.846,40.689c23.922,13.758,55.319,22.967,96.559,22.834c0,0,60.812-1.598,98.341-1.772  c13.378-0.063,25.659-7.354,32.121-19.067l21.063-38.18c1.59-2.881,2.601-6.018,2.979-9.288  C352.103,222.318,361.061,90.736,250.625,37.037z" fill="#696AAF"/><path d="M267.615,145.079l21.85,19.992c3.638,3.328,9.277,3.105,12.642-0.5c3.022-3.24,3.233-8.199,0.497-11.684  l-27.232-34.679c-2.445-3.115-2.354-7.488,0.188-10.524c0.044-0.052,0.087-0.104,0.131-0.156c3.166-3.8,8.964-3.959,12.386-0.388  l8.835,9.221c4.053,4.23,11.196,1.961,12.065-3.832c0.662-4.409-0.527-8.895-3.286-12.397l-6.655-8.446  c-3.646-4.63-5.579-10.362-5.439-16.253c0.061-2.603,0.037-5.646-0.116-8.848c-11.772-11.247-25.918-21.308-42.854-29.547  C257.932,57.842,270.076,100.04,267.615,145.079z" fill="#BBC9FC"/><path d="M384.518,325.547c0,0,6.528,22.035,34.421,26.792c3.872,0.661,6.774-3.536,4.817-6.941l-13.106-22.808  L384.518,325.547z" fill="#C0DAFF"/><path d="M430.991,287.423c0,0,19.821,5.815,24.164,30.874c0.603,3.479-3.161,6.098-6.228,4.348l-20.532-11.727  L430.991,287.423z" fill="#C0DAFF"/><path d="M300.747,299.244c2.723-14.932,13.108-49.464,51.364-56.419c12.321-2.24,25.935-2.712,39.407,1.685  c15.104,4.929,35.29,15.775,44.925,37.964c4.731,10.897,0.033,26.117-8.35,34.536c-10.788,10.837-31.794,22.221-71.188,16.691  c0,0-34.664-4.801-52.126-21.696C301.383,308.718,299.899,303.895,300.747,299.244z" fill="#A99FF1"/><path d="M436.443,282.473c-9.635-22.188-29.82-33.034-44.925-37.963c-8.499-2.773-17.052-3.604-25.303-3.28  c14.08,11.646,27.09,85.931-43.95,82.208c16.607,7.736,34.641,10.264,34.641,10.264c39.394,5.529,60.399-5.854,71.188-16.691  C436.477,308.592,441.175,293.371,436.443,282.473z" fill="#696AAF"/><circle cx="389.461" cy="309.224" fill="#FFFFFF" r="12.365"/><circle cx="418.447" cy="290.309" fill="#FFFFFF" r="10.912"/><circle cx="356.072" cy="295.83" fill="#FFFFFF" r="6.212"/><circle cx="407.536" cy="265.635" fill="#FFFFFF" r="4.873"/><path d="M9.546,318.073L9.546,318.073c-0.666-5.814,3.348-11.108,9.127-12.032  c38.502-6.146,95.489-53.869,115.882-73.516c8.517-7.897,18.075-14.256,28.563-19.048c15.242-6.966,32.112-7.805,47.504-2.374  c48.883,17.273,69.198,74.244,75.873,99.054c1.672,6.216-2.315,12.515-8.647,13.669l0,0c-5.624,1.025-11.074-2.417-12.577-7.932  c-5.769-21.171-23.079-70.37-61.957-84.104c-9.851-3.481-21.183-2.881-31.078,1.639c-8.36,3.821-15.967,8.88-22.614,15.042  c-7.986,7.695-74.781,70.69-127.583,79.207C15.922,328.664,10.252,324.227,9.546,318.073z" fill="#AD5A58"/><path d="M73.862,417.182L73.862,417.182c-1.022-4.598,1.045-9.293,5.107-11.676  c30.661-17.98,73.415-105.273,94.733-160.416c3.999-10.907,8.98-20.683,14.739-28.877c12.885-18.345,37.576-23.25,56.204-11.179  c37.609,24.387,52.193,84.087,56.816,109.404c1.139,6.239-3.199,12.136-9.497,12.892l0,0c-5.763,0.691-11.056-3.199-12.107-8.906  c-4.116-22.349-17.549-74.017-47.88-93.681c-8.686-5.634-19.516-4.567-25.586,4.08c-4.663,6.634-8.754,14.706-12.161,24  c-6.036,15.614-55.773,141.278-104.213,171.309C83.73,428.03,75.467,424.404,73.862,417.182z" fill="#DD8378"/><path d="M192.607,490.936L192.607,490.936c-3.439-3.563-4.125-9.039-1.46-13.213  c19.24-30.135,29.056-116.15,31.649-184.943c0.296-7.884,0.943-14.981,1.978-21.69c3.378-21.902,9.973-38.662,19.622-49.884  c4.918-5.719,11.508-9.927,19.002-10.789c12.359-1.421,23.811,5.253,28.984,15.994c11.442,23.767,18.774,71.169,21.877,90.199  c0.998,6.114-3.232,11.845-9.373,12.666l0,0c-5.881,0.786-11.321-3.212-12.281-9.067c-2.935-17.918-9.817-63.156-19.988-84.279  c-1.358-2.824-3.851-3.513-4.859-3.681c-1.169-0.186-3.413-0.218-5.332,1.735c-5.27,5.377-12.317,16.759-15.973,40.448  c-0.902,5.866-1.471,12.14-1.734,19.173c-1.76,46.638-8.617,152.373-34.95,195.418C206.037,495.121,197.574,496.08,192.607,490.936z  " fill="#FFB7A5"/></svg>