<?xml version="1.0" ?><!DOCTYPE svg  PUBLIC '-//W3C//DTD SVG 1.1//EN'  'http://www.w3.org/Graphics/SVG/1.1/DTD/svg11.dtd'><svg width="512px" height="512px" viewBox="0 0 512 512" enable-background="new 0 0 512 512" id="Sorceress" version="1.1" xml:space="preserve" xmlns="http://www.w3.org/2000/svg" xmlns:xlink="http://www.w3.org/1999/xlink"><path d="M332.035,185.986l-1.857,83.622c0,0-3.209,69.505-67.393,55.611c0,0-18.094-50.678,3.561-149.647  L332.035,185.986z" fill="#AD3A4C"/><linearGradient gradientUnits="userSpaceOnUse" id="SVGID_1_" x1="235.8325" x2="235.8325" y1="403.4248" y2="217.3378"><stop offset="0.0051" style="stop-color:#FFC3B0"/><stop offset="1" style="stop-color:#E8897B"/></linearGradient><path d="M264.312,275.599c0,0-10.159,44.874,16.511,57.087c3.291,1.508,6.893,2.15,10.508,2.324  c11.192,0.541,46.888,5.813,39.775,51.416c0,0-16.579,30.182-93.637,37.604c0,0-67.163,0.494-97.838-46.509  c0,0,9.896-44.528,39.086-46.509c0,0,15.747-0.254,27.496-5.312c6.463-2.782,10.889-8.88,11.784-15.858l7.229-56.393  L264.312,275.599z" fill="url(#SVGID_1_)"/><path d="M225.225,253.449l-4.156,32.42l50.077,39.35l0,0c-14.157-17.23-6.834-49.62-6.834-49.62L225.225,253.449z" fill="#E8897B"/><path d="M331.105,386.426c6.946-44.54-26.93-50.604-38.94-51.367c9.979,6.878,28.206,24.971,25.696,64.297  C327.92,392.221,331.105,386.426,331.105,386.426z" fill="#E8897B"/><path d="M237.508,400.503c3.454,2.633,11.106,9.95,11.834,23.526h12.727c0,0-3.779-17.502,5.308-27.395  c0.37-0.402-0.052-1.019-0.555-0.806c-3.38,1.428-9.567,6.645-12.796,12.179c0,0-5.037-6.886-16.118-8.414  C237.392,399.523,237.094,400.188,237.508,400.503z" fill="#E8897B"/><path d="M244.032,348.23c-3.263,0-30.328-2.457-39.429-24.162c-0.755-1.801,0.2-3.878,2.068-4.444l0,0  c1.582-0.479,3.293,0.296,3.926,1.821c7.892,19.029,32.661,20.233,33.676,20.242c16.426-0.002,24.839-11.595,27.738-16.691  c0.769-1.352,2.398-1.938,3.865-1.428l0,0c1.92,0.667,2.779,2.906,1.765,4.668c-3.755,6.518-13.874,19.991-33.255,19.991  C244.375,348.228,244.252,348.23,244.032,348.23z" fill="#333345"/><path d="M186.552,157.085l-5.729,32.789c0,0-40.838-1.018-87.406,12.746c0,0-86.976,27.643-81.134-62.913  L186.552,157.085z" fill="#6D4D7A"/><linearGradient gradientUnits="userSpaceOnUse" id="SVGID_2_" x1="272.7012" x2="272.7012" y1="277.0254" y2="145.3401"><stop offset="0.0051" style="stop-color:#FFC3B0"/><stop offset="1" style="stop-color:#E8897B"/></linearGradient><path d="M317.518,184.886l-2.287,77.795c-0.023,0.753-0.082,1.482-0.188,2.228  c-0.465,3.247-2.137,11.562-7.544,17.551c-4.511,4.995-11.561,6.832-18.16,5.511c-13.328-2.67-46.808-11.121-61.453-30.8v-88.477  L317.518,184.886z" fill="url(#SVGID_2_)"/><path d="M307.498,282.46c5.407-5.989,7.079-14.304,7.544-17.552c0.106-0.744,0.165-1.474,0.188-2.227l2.287-77.795  l-89.632-16.192v24.666c14.144,3.983,53.734,16.077,72.623,31.486c2.625,2.142,4.049,5.42,4.049,8.807v33.835  c0,0,0.239,10.556-4.74,19.873C302.724,286.405,305.393,284.791,307.498,282.46z" fill="#E8897B"/><path d="M279.479,228.54h12.941c2.038,0,3.397,2.167,2.439,3.967c-1.506,2.832-4.225,6.142-8.708,6.142  c0,0-6.386-0.102-9.192-6.28C276.146,230.581,277.516,228.54,279.479,228.54z" fill="#E8897B"/><path d="M300.855,201.438L300.855,201.438c-2.045,0-3.703-1.658-3.703-3.702v-8.048c0-2.045,1.658-3.702,3.703-3.702  l0,0c2.045,0,3.701,1.657,3.701,3.702v8.048C304.557,199.781,302.9,201.438,300.855,201.438z" fill="#333345"/><path d="M281.569,178.325c0,0-4.685,35.486-44.101,52.333l-4.662,67.153c-1.855,26.728-23.141,48.64-49.911,49.73  c-1.059,0.043-2.139,0.061-3.241,0.051c-8.489-0.076-16.384-4.398-21.478-11.189l-0.025-0.033c-4.5-6.002-6.404-13.531-5.298-20.951  c1.937-12.983,6.377-34.913,16.196-57.871c3.045-7.12,4.327-14.844,4.008-22.582c-0.86-20.913-1.772-61.966,3.486-75.638  L281.569,178.325z" fill="#E25A6C"/><path d="M172.898,183.915c12.532,2.385,41.049,8.27,59.867,15.692c3.897,1.537,5.38,6.221,3.131,9.754  c-2.011,3.159-4.82,7.02-8.407,10.655c-3.488,3.534-5.361,8.347-5.12,13.307c1.224,25.126,1.184,99.261-40.439,114.233  c0.005,0.025-0.001-0.011,0.003,0.015c27.221-0.597,48.996-22.713,50.874-49.76l4.662-67.153  c39.416-16.847,44.101-52.333,44.101-52.333l-105.023-18.998C174.564,164.48,173.46,173.526,172.898,183.915z" fill="#AD3A4C"/><path d="M12.282,139.707c0,0,174.011,27.139,332.856,55.875c0,0,57.38,8.942,92.937,6.667  c2.728-0.174,5.387-0.785,7.947-1.739c13.582-5.06,54.637-24.006,53.971-67.986c0,0-67.086-16.054-174.863-6.753  c0,0,9.47-60.498-87.66-117.526c-4.065-2.387-8.854-3.279-13.466-2.307c-13.272,2.797-44.274,12.884-95.277,49.258  c0,0-6.133-5.111-14.097-9.686c-4.181-2.402-9.348-2.186-13.413,0.409c-7.478,4.772-19.974,14.18-31.09,29.336  c-2.784,3.796,1.052,8.924,5.458,7.267c6.013-2.261,13.036-4.662,18.909-6.013c4.221-0.971,8.629-0.071,12.233,2.332  c5.62,3.749,14.659,10.282,22.126,18.022c3.711,3.846,9.46,4.84,14.185,2.342c10.258-5.423,27.532-13.908,37.113-15.014  l14.771,19.55c0,0-11.489,15.463-19.148,31.329C175.775,135.07,104.278,143.797,12.282,139.707z" fill="#936FA0"/><path d="M153.073,94.126c9.37-4.539,20.197-9.142,27.079-9.936l-8.426-13.643c-1.262-2.043-4.29-1.861-5.27,0.332  C163.963,76.452,159.414,85.587,153.073,94.126z" fill="#6D4D7A"/><path d="M283.057,117.354c0.392,4.614-1.318,9.158-4.717,12.304c-2.109,1.953-4.664,4.243-7.283,6.418  c-2.529,2.1-1.135,6.201,2.152,6.266c20.108,0.397,64.033,1.716,84.746,5.859c0,0,24.668,5.432,32.748,22.515  c2.109,4.457,1.796,9.663-0.937,13.768c-2.988,4.49-8.44,10.469-17.772,14.606c19.664,2.211,46.259,4.429,66.081,3.16  c2.727-0.174,5.386-0.785,7.946-1.739c13.582-5.06,54.637-24.006,53.971-67.986c0,0-67.086-16.054-174.863-6.753  c0,0,9.47-60.498-87.66-117.526C237.469,8.244,277.012,46.041,283.057,117.354z" fill="#6D4D7A"/><path d="M266.346,352.891c0-10.183-8.255-18.438-18.438-18.438c-10.184,0-18.439,8.255-18.439,18.438  c0,8.19,5.345,15.125,12.732,17.528l0.755,7.493c0.218,2.163,2.148,3.74,4.312,3.521l7.535-0.758  c2.163-0.219,3.741-2.148,3.522-4.313l-0.783-7.773C262.817,365.346,266.346,359.537,266.346,352.891z" fill="#FFFFFF"/><circle cx="242.16" cy="354.202" fill="#333345" r="4.847"/><circle cx="256.217" cy="352.418" fill="#333345" r="4.848"/><path d="M131.625,374.967c1.907-3.83,6.914-4.783,10.069-1.895c15.827,14.494,61.072,50.188,114.446,41.061  c0,0,47.018-7.504,75.164-34.186c2.434-2.308,6.328-1.795,8.088,1.059c2.707,4.387,6.959,10.426,12.391,15.395  c2.32,2.121,3.355,5.303,2.572,8.346c-0.734,2.858-1.988,6.484-4.094,9.932c-2.146,3.514-3.244,7.547-2.766,11.636  c1.795,15.358,2.531,52.411-29.979,62.53c0,0-23.425,4.805-41.422-5.698c-2.433-1.419-5.239-2.064-8.045-1.831l0,0  c-4.133,0.346-7.854,2.538-10.215,5.947c-5.715,8.251-20.572,22.713-52.896,18.403c0,0-39.157-3.601-41.918-44.284  c-0.371-5.463-1.828-10.783-4.549-15.533c-4.855-8.475-14.186-20.828-30.239-28.846c-6.438-3.215-9.316-10.818-6.955-17.617  C123.499,392.996,126.82,384.619,131.625,374.967z" fill="#936FA0"/><path d="M244.528,441.429c-1.563-1.614-3.703-2.51-5.949-2.51c-3.847,0-7.154,2.667-8.066,6.403  c-11.14,45.638-39.812,48.133-55.107,45.908c12.4,12.848,29.534,14.435,29.534,14.435c32.325,4.31,47.182-10.152,52.896-18.403  C261.099,461.883,249.909,446.984,244.528,441.429z" fill="#6D4D7A"/><path d="M282.291,486.092c16.745,6.518,35.227,2.752,35.227,2.752c32.51-10.119,31.773-47.172,29.979-62.53  c-0.479-4.089,0.619-8.122,2.766-11.636c2.105-3.447,3.359-7.073,4.094-9.932c0.783-3.043-0.253-6.225-2.572-8.346  c-5.432-4.969-9.684-11.008-12.391-15.395c-1.76-2.854-5.654-3.366-8.088-1.059c-4.241,4.02-8.914,7.597-13.786,10.786l-0.001,0.006  C323.7,458.358,294.818,479.965,282.291,486.092z" fill="#6D4D7A"/></svg>