<?xml version="1.0" ?><!DOCTYPE svg  PUBLIC '-//W3C//DTD SVG 1.1//EN'  'http://www.w3.org/Graphics/SVG/1.1/DTD/svg11.dtd'><svg width="512px" height="512px" viewBox="0 0 512 512" enable-background="new 0 0 512 512" id="Unicorn" version="1.1" xml:space="preserve" xmlns="http://www.w3.org/2000/svg" xmlns:xlink="http://www.w3.org/1999/xlink"><path d="M365.231,332.566c0.049-2.468-0.124-4.938-0.709-7.334c-7.763-31.826-41.349-62.293-120.274-76.567  c-54.179-9.798-78.218-30.66-88.279-43.646c-4.374-5.646-6.631-12.633-6.632-19.776l0,0c0-11.622,6.127-22.423,16.181-28.253  c23.664-13.722,48.36-30.432,61.722-39.706c5.523-3.834,9.413-9.818,9.966-16.52c1.062-12.865-9.065-23.635-21.708-23.635h-83.574  l-8.638-23.254c-1.307-3.518-5.912-4.323-8.365-1.482C98.894,70.95,95.352,97.157,95.352,97.157S53.557,136.34,45.72,244.312  c-7.201,99.22,66.608,113.028,72.698,113.998c-1.181,23.978-1.886,100.035,32.634,145.225c1.403,1.837,3.624,2.869,5.936,2.869  h20.371c5.904,0,9.476-6.47,6.355-11.481c-7.667-12.313-17.979-34.484-19.553-66.322c-2.182-44.162,11.961-53.267,25.965-60.225  c31.146,5.039,59.347,10.029,59.347,10.029c15.681,3.66,37.011,7.005,51.556,9.094c9.517,1.367,16.906,9.002,17.897,18.565  c3.992,38.535,10.585,79.291,13.109,94.322c0.585,3.485,3.599,6.017,7.133,6.017h12.593c4.307,0,7.709-3.742,7.188-8.018  c-5.929-48.624,1.107-102.565,1.107-102.565C364.185,366.916,365.051,341.818,365.231,332.566z" fill="#E6F0FF"/><path d="M97.87,85.863c0,0-54.818,17.615-64.38,75.62c0,0-6.374,46.532,21.673,61.83l48.443-126.846L97.87,85.863z" fill="#FFD9BE"/><path d="M97.87,85.863c0,0-7.061,2.283-16.543,7.862c3.355,52.293-22.897,82.679-48.2,86.348  c1.028,14.747,5.665,34.31,22.036,43.24l48.443-126.846L97.87,85.863z" fill="#FFBF76"/><path d="M145.597,412.963c-4.599-28.574-10.412-55.432-17.131-66.629l-38.882-8.924c0,0,22.65,76.807,20.828,157.457  c-0.143,6.336,4.975,11.536,11.312,11.536h13.099c4.188,0,7.624-3.283,7.778-7.468C143.241,481.551,144.426,447.26,145.597,412.963z  " fill="#819FEA"/><path d="M259.774,375.655c0,0,22.176,52.887,19.452,124.021c-0.14,3.662,2.739,6.727,6.403,6.727h14.277  c3.524,0,6.384-2.826,6.413-6.35c0.157-19.631,1.521-79.922,12.097-111.648L259.774,375.655z" fill="#819FEA"/><path d="M326.703,287.055c0,0,20.398-21.673,48.444-21.673h0.08c25.747,0,47.052,20.029,48.64,45.728l3.386,54.784  c0.45,7.277,6.482,12.949,13.773,12.949h0.001c6.549,0,12.195-4.603,13.516-11.018l0.058-0.279  c1.214-5.896,6.688-9.921,12.677-9.321h0.001c5.306,0.53,9.584,4.547,10.433,9.812c3.295,20.445,5.405,68.812-48.383,68.812  c0,0-63.742,0.638-70.116-85.732L326.703,287.055z" fill="#FFD9BE"/><path d="M145.027,162.835c0.505-1.896,3.252-1.867,3.709,0.042c2.208,9.23,9.286,20.787,27.536,26.652  c36.493,11.73,72.028,20.397,71.391,66.929C247.663,256.458,121.594,250.674,145.027,162.835z" fill="#FFBF76"/><path d="M123.285,73.519l66.56-67.042c2.229-2.247,5.936,0.181,4.768,3.123l-29.176,73.48h-50.993L123.285,73.519z" fill="#C7DAFF"/><polygon fill="#819FEA" points="176.833,54.377 181.356,42.986 171.149,25.307 164.131,32.376 "/><polygon fill="#819FEA" points="156.303,83.08 165.437,83.08 166.237,81.062 147.69,48.937 140.672,56.006 "/><circle cx="152.051" cy="102.84" fill="#819FEA" r="7.012"/><path d="M212.794,372.111L212.794,372.111c20.941,3.509,36.679,6.293,36.679,6.293  c15.681,3.66,37.011,7.005,51.556,9.094c9.517,1.367,16.906,9.002,17.897,18.565c3.992,38.535,10.585,79.291,13.109,94.322  c0.586,3.485,3.599,6.017,7.133,6.017l12.593,0.001c4.307,0,7.709-3.744,7.188-8.019c-5.929-48.624,1.107-102.565,1.107-102.565  c4.129-28.904,4.995-54.001,5.176-63.253c0.049-2.468-0.124-4.938-0.709-7.334c-3.888-15.941-14.257-31.539-33.553-44.934  C332.339,315.76,318.186,368.957,212.794,372.111z" fill="#C7DAFF"/><path d="M190.126,368.375c0,0-30.737-6.561-38.075,29.172c0,0-9.614,60.03,19.037,95.763  c0,0,4.357,6.708,0.141,13.094h6.13c5.904,0,9.476-6.47,6.355-11.481c-7.667-12.313-17.979-34.484-19.553-66.322  C161.979,384.438,176.122,375.333,190.126,368.375z" fill="#C7DAFF"/><path d="M477.711,368.036c-1.143-7.084-8.496-11.909-16.206-9.02c-3.54,1.327-6.075,4.51-6.839,8.213l0,0  c-1.196,5.804-5.717,10.611-11.582,11.464c-8.181,1.188-15.34-4.848-15.831-12.8l-3.386-54.784  c-0.459-7.425-2.605-14.35-5.987-20.48c2.387,17.806,2.574,51.076-24.079,70.469c-6.199,4.51-10.127,11.593-9.851,19.254  c0.47,13.013,4.699,33.166,23.182,51.447c12.339,5.123,22.196,5.049,22.196,5.049C483.116,436.848,481.006,388.481,477.711,368.036z  " fill="#FFBF76"/><path d="M122.315,80.82l-3.481-12.185c-0.591-2.068-3.396-2.43-4.45-0.555c-2.684,4.775-6.335,13.013-7.167,23.557  L122.315,80.82z" fill="#819FEA"/></svg>