<?xml version="1.0" ?><!DOCTYPE svg  PUBLIC '-//W3C//DTD SVG 1.1//EN'  'http://www.w3.org/Graphics/SVG/1.1/DTD/svg11.dtd'><svg width="512px" height="512px" viewBox="0 0 512 512" enable-background="new 0 0 512 512" id="Villager" version="1.1" xml:space="preserve" xmlns="http://www.w3.org/2000/svg" xmlns:xlink="http://www.w3.org/1999/xlink"><linearGradient gradientUnits="userSpaceOnUse" id="SVGID_1_" x1="245.8013" x2="317.7444" y1="344.3135" y2="714.4563"><stop offset="0" style="stop-color:#F9C8B2"/><stop offset="1" style="stop-color:#DDA288"/></linearGradient><path d="M247.91,280.203h-33.708c0,0-33.052,37.774-78.653,62.305c-7.531,4.051-10.64,13.206-7.074,20.979  c6.578,14.339,12.987,34.326,19.289,62.811c0,0,16.432,87.021,133.855,77.492c0,0,91.366-2.988,89.304-139.417  c-0.115-7.674-4.882-14.499-11.984-17.405c-22.429-9.178-71.031-32.457-85.586-66.764H247.91z" fill="url(#SVGID_1_)"/><path d="M358.938,346.967c-22.429-9.178-71.031-32.457-85.586-66.764h-17.016l15.445,55.043  c66.106,63.365,59.195,121.89,44.214,157.426c25.668-14.711,56.128-48.869,54.927-128.3  C370.807,356.698,366.04,349.873,358.938,346.967z" fill="#DDA288"/><path d="M286.79,427.904l-8.645-7.959l7.96-8.646c2.257-2.452,2.1-6.269-0.353-8.526l0,0  c-2.452-2.258-6.27-2.1-8.526,0.352l-7.96,8.645l-8.645-7.959c-2.452-2.257-6.269-2.1-8.526,0.353l0,0  c-2.257,2.452-2.1,6.269,0.352,8.526l8.646,7.959l-7.96,8.645c-2.257,2.452-2.1,6.27,0.353,8.527l0,0  c2.452,2.257,6.269,2.1,8.526-0.352l7.96-8.646l8.645,7.96c2.451,2.257,6.269,2.1,8.526-0.353l0,0  C289.399,433.979,289.242,430.162,286.79,427.904z" fill="#D38D78"/><linearGradient gradientUnits="userSpaceOnUse" id="SVGID_2_" x1="247.9106" x2="247.9106" y1="346.5762" y2="115.8095"><stop offset="0.0051" style="stop-color:#FFC3B0"/><stop offset="1" style="stop-color:#E8897B"/></linearGradient><path d="M214.202,221.132v75.587c0,0,0,26.084,27.894,37.12c6.032,2.387,10.699,7.312,12.29,13.602  l7.744,30.627c0.645,2.548,4.363,2.22,4.552-0.401l2.415-33.657c0.286-3.987,1.667-7.859,4.183-10.966  c3.798-4.688,9.078-14.061,8.253-29.338v-45.098L214.202,221.132z" fill="url(#SVGID_2_)"/><path d="M276.094,328.936c0.184-0.311,0.359-0.649,0.539-0.98c0.298-0.545,0.589-1.104,0.876-1.704  c0.186-0.388,0.361-0.79,0.541-1.2c0.27-0.617,0.526-1.26,0.777-1.932c0.169-0.451,0.333-0.904,0.491-1.381  c0.238-0.717,0.453-1.473,0.663-2.244c0.135-0.496,0.272-0.979,0.394-1.499c0.205-0.881,0.37-1.817,0.529-2.767  c0.08-0.477,0.178-0.926,0.245-1.42c0.2-1.476,0.353-3.014,0.421-4.648l0,0c0.072-1.727,0.065-3.545-0.038-5.455v-45.098  l-67.33-37.476v6.689c3.637,4.322,8.801,10.3,14.417,16.739c14.054,16.114,25.167,34.46,32.932,54.187  c5.934,15.075-8.973,25.538-24.684,21.583c-12.4-3.121-17.154-14.256-22.6-22.356c0.412,5.305,3.569,26.274,27.843,35.871  c6.027,2.383,10.687,7.312,12.274,13.596l7.745,30.627c0.645,2.548,4.363,2.22,4.551-0.401l2.416-33.657  c0.223-3.095,1.124-6.11,2.685-8.763l0,0c0.449-0.764,0.936-1.508,1.498-2.203c0.444-0.549,0.91-1.174,1.383-1.852  c0.148-0.213,0.295-0.459,0.444-0.684C275.437,330.01,275.764,329.499,276.094,328.936z" fill="#E8897B"/><path d="M336.342,85.304v56.925c0,0,15.029-8.116,19.996-26.52c3.748-13.886-5.288-28.39-19.537-30.346  C336.648,85.343,336.495,85.323,336.342,85.304z" fill="#353547"/><path d="M336.342,170.496v43.859l0,0c9.276,0,16.797-8.517,16.797-19.022v-5.813  C353.139,179.014,345.618,170.496,336.342,170.496L336.342,170.496z" fill="#E8897B"/><linearGradient gradientUnits="userSpaceOnUse" id="SVGID_3_" x1="273.3516" x2="273.3516" y1="249.6021" y2="-6.4795"><stop offset="0.0051" style="stop-color:#FFC3B0"/><stop offset="1" style="stop-color:#E8897B"/></linearGradient><path d="M339.141,77.646l-2.799,166.105c0,0-0.393,32.933-30.287,33.391c-5.02,0.077-9.963-1.05-14.649-2.85  c-14.308-5.496-52.141-21.366-76.426-43.922c-4.689-4.355-7.416-10.418-7.416-16.818V77.646H339.141z" fill="url(#SVGID_3_)"/><path d="M269.619,125.704c0,0,14.289,5.358,26.613-5.18c4.83-4.13,11.502-5.681,17.277-3.028  c4.849,2.226,9.301,6.411,9.301,14.273v104.572c0,5.604-0.758,11.214-2.601,16.507c-3.732,10.718-12.686,24.125-33.889,19.432  c1.892,0.765,3.636,1.456,5.084,2.012c4.687,1.8,9.63,2.927,14.649,2.85c29.895-0.458,30.287-33.391,30.287-33.391l2.799-166.105  h-67.477L269.619,125.704z" fill="#E8897B"/><path d="M181.508,64.581c0,0-23.967,7.308-31.746,34.535c-2.517,8.811-2.533,18.091-0.738,27.067  c3.285,16.423,15.287,52.286,35.851,73.241l22.688-28.929c0,0,8.073-12.295,16.331-21.575c2.754-3.096,5.15-6.463,6.649-10.284  c2.441-6.221,4.677-15.657,1.944-25.997c0,0,16.829,15.972,45.382,16.649c9.272,0.221,15.337-9.912,10.101-17.339  c-0.057-0.082-0.115-0.163-0.174-0.244c0,0-4.8-5.752-8.126-13.897c-1.286-3.15,1.784-6.333,5.077-5.203  c18.853,6.465,67.944,19.366,87.356-13.316c2.428-4.088-0.336-9.312-5.146-9.999c-3.448-0.492-7.272-1.243-10.387-2.376  c0,0,25.77-7.197,28.408-41.387c0.398-5.16-5.124-8.782-9.934-6.546c-9.247,4.301-24.194,8.803-41.491,4.706  c-3.516-0.833-6.865-2.158-10.139-3.655c-11.574-5.292-51.75-20.92-96.7-6.776C226.716,13.256,187.279,25.387,181.508,64.581z" fill="#353547"/><path d="M200.859,214.355h6.704v-43.859h-6.704c-11.244,0-20.358,9.115-20.358,20.358v3.143  C180.5,205.241,189.615,214.355,200.859,214.355z" fill="#E8897B"/><path d="M306.047,214.355L306.047,214.355c-4.217,0-7.635-3.418-7.635-7.635v-10.782  c0-4.217,3.418-7.635,7.635-7.635l0,0c4.216,0,7.634,3.418,7.634,7.635v10.782C313.681,210.938,310.263,214.355,306.047,214.355z" fill="#E8897B"/><circle cx="276.939" cy="167.944" fill="#333345" r="7.32"/><circle cx="321.001" cy="167.944" fill="#333345" r="7.32"/></svg>