<?xml version="1.0" ?><!DOCTYPE svg  PUBLIC '-//W3C//DTD SVG 1.1//EN'  'http://www.w3.org/Graphics/SVG/1.1/DTD/svg11.dtd'><svg width="512px" height="512px" viewBox="0 0 512 512" enable-background="new 0 0 512 512" id="Destructive_x5F_Magic" version="1.1" xml:space="preserve" xmlns="http://www.w3.org/2000/svg" xmlns:xlink="http://www.w3.org/1999/xlink"><path d="M263.309,454.193c0,0,0.673,0.049,1.843,0.076c12.185,0.285,24.129-3.425,34.153-10.357l16.264-11.245  c6.631-4.585,16.039-2.358,19.379,4.979c0.049,0.106,0.097,0.214,0.145,0.323l-37.222,24.52l-23.216,3.564  C274.654,466.053,264.088,460.25,263.309,454.193z" fill="#A06260"/><path d="M307.154,475.534c0,0,22.242-15.151,39.766-24.509c9.105-4.863,5.165-18.961-5.126-18.138  c-0.152,0.013-0.307,0.026-0.462,0.042c-1.301,0.129-2.541,0.621-3.66,1.296l-31.819,19.183c-3.87,2.332-7.971,4.235-12.272,5.619  c-6.594,2.121-16.397,4.363-26.627,3.461C266.953,462.488,291.181,474.735,307.154,475.534z" fill="#BA8280"/><linearGradient gradientUnits="userSpaceOnUse" id="SVGID_1_" x1="236.272" x2="236.272" y1="378.9619" y2="-21.0057"><stop offset="0.0154" style="stop-color:#E54254"/><stop offset="1" style="stop-color:#FF94A6"/></linearGradient><path d="M234.971,403.179c-4.015,0.598-8.112-0.687-10.979-3.562c-8.273-8.297-28.464-25.216-57.628-27.833  c0,0-13.959-0.416-19.443-7.687c0,0-31.938-44.375-19.604-92.033c0.662-2.557,3.857-3.46,5.735-1.604  c2.007,1.982,4.597,4.222,7.339,5.753c3.01,1.681,6.687,1.531,9.573-0.354c3.594-2.348,9.323-6.406,14.302-11.344  c7.528-7.467,10.891-18.475,7.664-28.575c-2.004-6.273-6.501-12.556-16.106-15.33c-2.145-0.619-3.374-2.786-2.687-4.91  c2.493-7.704,8.679-24.69,17.678-35.161c1.406-1.636,3.396-2.639,5.553-2.718c9.439-0.342,38.737-3.31,55.638-26.404  c2.403-3.284,4.325-6.939,5.36-10.875c2.128-8.099,1.968-20.999-18.156-25.506c0,0-24.014-5.447-11.965-31.907  c0,0,6.066-15.166,20.844-24.336c2.317-1.438,5.205,0.835,4.316,3.413c-1.918,5.567-4.014,13.471-3.305,19.949  c0.572,5.227,4.496,9.46,9.629,10.598c10.313,2.286,39.395,11.786,38.67,46.165c-0.064,3.038-2.067,5.662-4.898,6.764  c-7.93,3.087-22.573,13.607-12.852,48.38c0,0,6.104,20.264,23.438,20.996c11.066,0.467,12.518-8.555,12.566-12.992  c0.014-1.226,1.127-2.127,2.314-1.82c10.018,2.593,47.709,14.878,50.068,53.387c0.221,3.597-1.055,7.163-3.471,9.837  c-8.768,9.706-28.27,36.122-7.389,60.622c3.018,3.54,3.631,8.533,1.811,12.813c-6.797,15.989-27.508,51.355-80.682,62.798  L234.971,403.179z" fill="url(#SVGID_1_)"/><path d="M303.576,176.95c0,5.395-3.225,9.769-8.619,9.769c-5.396,0-9.77-4.374-9.77-9.769s4.373-9.769,9.77-9.769  C300.352,167.181,303.576,171.555,303.576,176.95z" fill="#FF697B"/><path d="M257.586,12.486c-1.79-1.826-4.662-2.179-6.729-0.673c-2.655,1.935-5.849,6.328-6.288,16.295  c0,0,0.276,4.233-0.702,8.298c-0.583,2.418,1.625,4.542,4.007,3.823c0.347-0.105,0.702-0.22,1.062-0.346  c8.813-3.069,14.109-12.57,11.771-21.605C260.16,16.167,259.195,14.129,257.586,12.486z" fill="#FF94A6"/><path d="M228.887,218.66c-3.488,4.791-7.526,11.104-9.616,17.063c-0.644,1.835-0.331,3.872,0.834,5.43  c3.505,4.684,8.993,16.998-13.984,31.788c0,0-21.642,11.159-21.98,33.816c0,0,0.37,41.326,39.769,51.081  c6.043,1.497,12.307,1.846,18.524,1.522c5.823-0.304,13.667-1.106,20.454-3.163c2.926-0.887,5.437-2.744,7.326-5.148  c3.302-4.2,9.441-11.396,16.186-16.224c3.195-2.288,5.554-5.521,6.473-9.343c2.129-8.861,3.688-25.211-7.575-40.405  c-1.005-1.356-3.08-1.349-3.95,0.098c-2.135,3.543-6.619,8.734-14.24,7.767c-7.121-0.904-13.057-8.163-13.099-15.341  c-0.028-4.796,1.679-9.584,8.299-10.383c2.085-0.251,3.265-2.554,2.315-4.427c-2.395-4.716-7.922-12.129-20.094-16.619  c-6.014-2.219-10.78-7.121-12.016-13.41c-0.655-3.332-0.791-7.471,0.101-12.535C232.995,218.058,230.183,216.88,228.887,218.66z" fill="#FBB04D"/><path d="M225.334,195.891c0,3.575-4.305,7.739-7.88,7.739s-6.473-2.898-6.473-6.473s5.149-9.005,8.724-9.005  S225.334,192.316,225.334,195.891z" fill="#FBB04D"/><path d="M342.029,432.871c-0.152,0.01-0.383,0.029-0.57,0.047c-1.233,0.115-2.554,0.565-3.673,1.24l-31.752,19.25  c-3.87,2.332-7.971,4.235-12.272,5.619c-6.066,1.952-14.859,3.975-24.191,3.587l5.262,3.436c0.002,0.001,0.005,0.003,0.008,0.004  c0.044,0.011,14.446,3.616,34.828-8.184l29.317-18.842c3.038-1.952,6.478-3.285,10.075-3.604  C349.061,435.424,346.736,432.598,342.029,432.871z" fill="#DDAEA9"/><path d="M129.095,449.737c0,10.48,0,30.083,0,40.638c0,4.355,3.07,8.094,7.349,8.902  c12.418,2.346,32.791,4.867,64.936-8.834c0,0,29.715-14.66,67.714-3.688c0,0,25.5,7.594,47.98,8.898  c5.258,0.307,10.402-1.454,14.363-4.927c9.025-7.913,28.203-23.331,49.91-32.364c8.446-3.517,8.148-15.705-0.467-18.785  c-0.704-0.252-1.436-0.476-2.195-0.667c-1.852-0.466-3.785-0.419-5.601,0.169c-6.38,2.07-24.247,8.383-39.004,18.459  c-9.546,6.518-21.147,9.26-32.546,7.342c-14.113-2.376-32.765-7.367-47.639-17.845c-8.29-5.839-11.988-16.719-7.716-25.915  c0.81-1.741,1.865-3.37,3.237-4.742c0,0,27.164-25.566,42.453-40.354c3.648-3.527,1.955-9.654-2.973-10.868  c-6.752-1.663-15.916-2.034-24.285,3.944l-26.939,23.571c-2.742,2.399-6.267,3.674-9.909,3.555  c-12.952-0.425-46.76,2.56-70.525,41.408c-1.706,2.788-4.627,4.587-7.865,5.034c-3.532,0.486-8.423,0.933-13.623,0.712  C132.125,443.227,129.095,446.107,129.095,449.737z" fill="#FFD3CD"/><path d="M265.924,459.203c6.949-0.168,21.904-1.51,32.102-9.486l18.965-12.447c3.355-2.202,7.023-3.949,10.935-4.848  c0.601-0.138,1.291-0.289,1.915-0.389c-4.255-2.427-9.891-2.395-14.271,0.634l-16.271,11.251  c-10.022,6.931-21.966,10.637-34.147,10.352c-1.17-0.027-1.842-0.076-1.842-0.076C263.531,455.93,264.57,457.64,265.924,459.203z" fill="#BA8280"/><path d="M269.094,486.755c0,0,25.5,7.595,47.98,8.899c5.258,0.307,10.402-1.454,14.363-4.927  c9.025-7.913,28.203-23.331,49.909-32.364c8.447-3.516,8.149-15.705-0.466-18.785c-0.704-0.252-1.436-0.476-2.195-0.667  c-1.852-0.466-3.785-0.419-5.601,0.169c-6.38,2.07-24.247,8.383-39.004,18.459c-9.546,6.518-21.147,9.26-32.546,7.342  c-14.113-2.376-32.765-7.367-47.639-17.845c-8.29-5.839-11.988-16.719-7.716-25.915c0.81-1.741,1.865-3.37,3.237-4.742  c0,0,27.164-25.566,42.453-40.354c1.977-1.91,2.342-4.568,1.518-6.812c-2.583-0.196-5.074-0.119-7.379,0.157  c-7.377,0.883-14.232,4.243-19.686,9.289l-28.403,26.279c-2.7,2.498-6.156,4.058-9.82,4.385  c-35.401,3.161-53.286,25.592-61.157,39.786c-3.987,7.19-11.476,11.707-19.698,11.707h-18.151c0,10.094,0,22.087,0,29.558  c0,4.355,3.07,8.094,7.349,8.901c12.418,2.347,32.791,4.868,64.936-8.833C201.38,490.443,231.095,475.783,269.094,486.755z" fill="#DDAEA9"/><path d="M385.938,443.563c-1.107-1.745-2.792-3.175-5.057-3.984c-0.704-0.252-1.436-0.476-2.195-0.667  c-1.852-0.466-3.785-0.419-5.601,0.169c-6.38,2.07-24.247,8.383-39.004,18.459c-9.546,6.518-21.147,9.26-32.546,7.342  c-12.254-2.063-27.924-6.109-41.578-13.995c16.08,14.538,38.57,20.753,51.041,23.2c5.57,1.092,11.32-0.264,15.936-3.567  C354.172,451.025,377.25,445.177,385.938,443.563z" fill="#FFD3CD"/><path d="M252.629,339.908c-4.7,4.491-10.457,5.172-17.874,4.723c-7.732-0.468-18.152-5.784-20.933-17.254  c0,0-1.659-7.229,0.735-14.433c1.748-5.259,6.051-9.181,11.145-11.364c2.759-1.182,6.597-3.727,7.518-8.904  c0.313-1.757,2.379-2.617,3.915-1.709c2.826,1.672,6.501,4.478,8.259,8.472c0,0,2.102,6.286,6.785,10.137  c4.336,3.564,7.287,8.641,7.096,14.25C259.094,329.086,257.574,335.18,252.629,339.908z" fill="#FFFFFF"/><circle cx="220.354" cy="287.217" fill="#FFFFFF" r="3.414"/><circle cx="280.172" cy="258.792" fill="#FBB04D" r="3.85"/></svg>