<svg width="96px" height="96px" viewBox="0 -10.65 96 96" xmlns="http://www.w3.org/2000/svg"><g transform="translate(-31.481 -471.223)"><path d="M79.481,472.47a13.621,13.621,0,0,0-5.654-1.026c-6.219.471-16.044,3.843-19.641,8.686-3.078,4.144-6.947,17.828-10.271,27.394-2.594,7.465-.529,15.441.012,19.782,1.314,10.556,23.234,16.323,35.554,16.323Z" fill="#3f3941"/><path d="M61.456,535.425s0,12.983,18.025,10.072V525.455Z" fill="#c68032"/><path d="M79.481,510.861s-7.044-1.3-11.1,4.677c-2.777,4.1-4.454,7.907-6.9,7.53-6.875-1.057-11.412-6.686-11.472-1.981-.1,7.983,7.325,25.489,18.712,22.542,10.713-2.772,8.3-11.211,10.76-11.211Z" fill="#f7a747"/><path d="M71.336,519.535c-.112,2.968,8.145,5.92,8.145,5.92V509.788S71.6,512.431,71.336,519.535Z" fill="#262128"/><path d="M79.481,509.788a18.8,18.8,0,0,0-5.514,1.335c-1.879,1-3.571,6.81-2.631,8.412s3.178.6,3.939,0-1.325-5.208,0-5.007,2.452,6.81,1.136,7.21,3.07,3.717,3.07,3.717Z" fill="#3f3941"/><path d="M58.782,481.284c1.841-4.679,6.5-7.963,6.53-7.984-4.535,1.537-8.96,3.914-11.126,6.83-3.078,4.144-6.947,17.828-10.271,27.394a26.435,26.435,0,0,0-1.231,10.012C52.4,510.118,56.994,485.827,58.782,481.284Z" fill="#262128"/><path d="M68.721,472.3s-4.961-1.627-9.239-.881-16.843,6.025-24.964,8.364c-7.44,2.144,1.131,19.116,1.131,22.717s-1.971,11.6.74,12.719c5.352,2.217,9.995-7.387,15.189-20.892s4.917-16.759,9.9-17.891C65.315,475.566,68.721,472.3,68.721,472.3Z" fill="#3f3941"/><path d="M72.092,493.867c-.779,2.325-2.2,1.873-3.786.619s-4.734-2.929-3.108-3.87,3.245-.838,5.271-2.406S73.387,490.007,72.092,493.867Z" fill="#f7a747"/><path d="M60.26,507.536a3.715,3.715,0,0,1-3.279-4.548,3.834,3.834,0,0,1,4.63-3.126c1.948.343,3.056,1.97,3.859,4.74.093.322,1.476.764,1.074,1.173-.284.288-2.166,0-2.51.2-.578.332-1.775,1.916-3.774,1.563Z" fill="#262128"/><path d="M64.94,504.613c-.779-.885-.771-3.775-3.46-4.249a3.3,3.3,0,0,0-3.8,2.747,3.407,3.407,0,0,0,2.206,3.806c2.38.735,3.671-1.479,4.275-1.44S65.908,505.713,64.94,504.613Z" fill="#fff"/><ellipse cx="3.48" cy="3.374" rx="3.48" ry="3.374" transform="matrix(0.174, -0.985, 0.985, 0.174, 56.857, 506.516)" fill="#a05132"/><ellipse cx="2.101" cy="2.037" rx="2.101" ry="2.037" transform="matrix(0.174, -0.985, 0.985, 0.174, 58.413, 505.391)" fill="#3d2a2e"/><ellipse cx="0.648" cy="0.629" rx="0.648" ry="0.629" transform="matrix(0.174, -0.985, 0.985, 0.174, 58.679, 502.732)" fill="#fbfcfc"/><path d="M71.335,499.336c-.071-.431-1.389,1.915-2.614,2.219s-2.437.036-.446,1.3S72.316,505.3,71.335,499.336Z" fill="#262128"/><path d="M58.089,536.573c-.231-3.347,3.2-9.7,2.7-9.811s-4.428,7.156-4.428,10.388a7.853,7.853,0,0,0,.114,1.261,17.892,17.892,0,0,0,3.564,3.445A13.871,13.871,0,0,1,58.089,536.573Z" fill="#c68032"/><path d="M79.481,472.47a13.625,13.625,0,0,1,5.654-1.026c6.22.471,16.044,3.843,19.641,8.686,3.079,4.144,6.948,17.828,10.272,27.394,2.593,7.465.529,15.441-.012,19.782-1.315,10.556-23.234,16.323-35.555,16.323Z" fill="#3f3941"/><path d="M97.507,535.425s0,12.983-18.026,10.072V525.455Z" fill="#c68032"/><path d="M79.481,510.861s7.045-1.3,11.1,4.677c2.777,4.1,4.453,7.907,6.9,7.53,6.875-1.057,11.412-6.686,11.472-1.981.1,7.983-7.326,25.489-18.713,22.542-10.712-2.772-8.3-11.211-10.76-11.211Z" fill="#f7a747"/><path d="M87.627,519.535c.112,2.968-8.146,5.92-8.146,5.92V509.788S87.359,512.431,87.627,519.535Z" fill="#262128"/><path d="M79.481,509.788A18.8,18.8,0,0,1,85,511.123c1.88,1,3.572,6.81,2.632,8.412s-3.179.6-3.939,0,1.324-5.208,0-5.007-2.452,6.81-1.137,7.21-3.07,3.717-3.07,3.717Z" fill="#3f3941"/><path d="M100.181,481.284c-1.841-4.679-6.5-7.963-6.531-7.984,4.535,1.537,8.96,3.914,11.126,6.83,3.079,4.144,6.948,17.828,10.272,27.394a26.475,26.475,0,0,1,1.231,10.012C106.567,510.118,101.968,485.827,100.181,481.284Z" fill="#262128"/><path d="M90.241,472.3s4.961-1.627,9.24-.881,16.842,6.025,24.963,8.364c7.441,2.144-1.131,19.116-1.131,22.717s1.971,11.6-.739,12.719c-5.352,2.217-10-7.387-15.19-20.892s-4.917-16.759-9.9-17.891C93.648,475.566,90.241,472.3,90.241,472.3Z" fill="#3f3941"/><path d="M86.87,493.867c.78,2.325,2.2,1.873,3.786.619s4.734-2.929,3.108-3.87-3.244-.838-5.27-2.406S85.576,490.007,86.87,493.867Z" fill="#f7a747"/><path d="M98.7,507.536a3.715,3.715,0,0,0,3.279-4.548,3.834,3.834,0,0,0-4.63-3.126c-1.948.343-3.055,1.97-3.858,4.74-.094.322-1.476.764-1.074,1.173.283.288,2.166,0,2.51.2.578.332,1.774,1.916,3.773,1.563Z" fill="#262128"/><path d="M94.023,504.613c.779-.885.771-3.775,3.459-4.249a3.3,3.3,0,0,1,3.8,2.747,3.406,3.406,0,0,1-2.207,3.806c-2.38.735-3.671-1.479-4.275-1.44S93.055,505.713,94.023,504.613Z" fill="#fff"/><ellipse cx="3.374" cy="3.48" rx="3.374" ry="3.48" transform="matrix(0.985, -0.174, 0.174, 0.985, 94.251, 500.835)" fill="#a05132"/><ellipse cx="2.037" cy="2.101" rx="2.037" ry="2.101" transform="matrix(0.985, -0.174, 0.174, 0.985, 95.807, 501.96)" fill="#3d2a2e"/><ellipse cx="0.629" cy="0.648" rx="0.629" ry="0.648" transform="matrix(0.985, -0.174, 0.174, 0.985, 98.82, 501.673)" fill="#fbfcfc"/><path d="M87.628,499.336c.071-.431,1.388,1.915,2.613,2.219s2.437.036.446,1.3S86.646,505.3,87.628,499.336Z" fill="#262128"/><path d="M100.874,536.573c.23-3.347-3.2-9.7-2.7-9.811s4.427,7.156,4.427,10.388a7.963,7.963,0,0,1-.113,1.261,17.9,17.9,0,0,1-3.565,3.445A13.873,13.873,0,0,0,100.874,536.573Z" fill="#c68032"/></g></svg>
