<svg width="96.165px" height="96.165px" viewBox="0 -4.07 96.165 96.165" xmlns="http://www.w3.org/2000/svg"><g transform="translate(-288.374 -44.971)"><path d="M289.409,74.649c4.179-.643,20.572,6.174,20.572,6.174l6.731-29.078s-14.446,2.333-20.553,10.69S289.409,74.649,289.409,74.649Z" fill="#996d6d"/><path d="M321.15,114.843s1.27,12.029,3.461,14.793,11.845,3.356,11.845,3.356V117.368Z" fill="#e6e7e8"/><path d="M336.456,44.971c-13.536,0-22.3,6.535-25.19,15.214s-6.75,21.857-4.821,27.321,6.678,8.357,9.928,13.822,1.965,17.811,6.143,22.954,13.94,2.071,13.94,2.071Z" fill="#fff"/><path d="M328.149,72.8c1.562.191,2.617,9.452,2.3,11.917s-3.214.857-4.929,1.5-6.144,1.392-8.8.535-5.981-6.214-4.589-8.143,7.408-5.137,10.5-4.071C327.422,76.2,326.395,72.59,328.149,72.8Z" fill="#3f3941"/><path d="M319.97,49.236s-24.038,3.485-29.714,15.735,3.229,26.628,3.915,33.1-4.032,12.985,1.5,11.657,7.894-11.954,8.678-20.3-3.2-26.348,0-29.241,12.556-5.143,12.556-5.143Z" fill="#3f3941"/><path d="M326.457,79.356c-.84-1.309-2.492-4.105-5.434-2.837a19.368,19.368,0,0,0-4.33,2.444.2.2,0,0,0,.109.362,2.217,2.217,0,0,1,1.361.546,6.727,6.727,0,0,0,3.734,2.062c1.283.206,2.852-1,3.915-1.187a2.337,2.337,0,0,1,1.294.466.209.209,0,0,0,.285-.291C327.073,80.374,326.673,79.693,326.457,79.356Z" fill="#fff"/><ellipse cx="2.699" cy="2.783" rx="2.699" ry="2.783" transform="matrix(0.985, -0.174, 0.174, 0.985, 318.768, 76.883)" fill="#3f3941"/><ellipse cx="1.63" cy="1.68" rx="1.63" ry="1.68" transform="matrix(0.985, -0.174, 0.174, 0.985, 320.012, 77.783)" fill="#262128"/><ellipse cx="0.503" cy="0.519" rx="0.503" ry="0.519" transform="matrix(0.985, -0.174, 0.174, 0.985, 319.888, 78.001)" fill="#fbfcfc"/><path d="M336.456,111.52c-1.958,0-6.755-3.643-8.041,0s.571,8.965,8.041,8.965Z" fill="#3f3941"/><path d="M333.129,116.341c-.375-.8-3.7-2.136-3.589-1.148s1.875,2.6,2.143,3.077a8.026,8.026,0,0,1,.515,1.483,9.674,9.674,0,0,0,2.154.571C334.307,120.158,333.494,117.123,333.129,116.341Z" fill="#262128"/><path d="M331.944,50.113c-1.2-2.613-1.974,1.715-4.522,3.429s-4.933,3.857.652,5.143S334.3,55.256,331.944,50.113Z" fill="#3f3941"/><path d="M312.593,88.885c-2.569-1.2-4.045-.4-2.192,2.261a1.665,1.665,0,0,0,2.561.525C313.945,90.909,314.9,89.961,312.593,88.885Z" fill="#3f3941"/><path d="M318.3,93.935c-1.931,0-3.875,2.169-1.77,3.053s3.911,1.206,4.334-.884S320.536,93.935,318.3,93.935Z" fill="#3f3941"/><path d="M325.281,70.267c.382.318.234,2.3-.328,2.562s-4.037-.363-3.556-.887S324.653,69.743,325.281,70.267Z" fill="#3f3941"/><path d="M334.352,92.649c-1.647.322-4.488,2.879-5.59,5.779s-.165,3.65,2.8,3.971,2.416-2.6,2.795-4.727S335.828,92.36,334.352,92.649Z" fill="#3f3941"/><path d="M321.909,112.1c-2.022,1.068-1.928,6.971-.071,8.224s4.643-.246,3.571-2.175S322.817,111.621,321.909,112.1Z" fill="#3f3941"/><path d="M383.5,74.649c-4.179-.643-20.571,6.174-20.571,6.174L356.2,51.745s14.446,2.333,20.553,10.69S383.5,74.649,383.5,74.649Z" fill="#996d6d"/><path d="M351.763,114.843s-1.271,12.029-3.462,14.793-11.845,3.356-11.845,3.356V117.368Z" fill="#e6e7e8"/><path d="M336.456,44.971c13.536,0,22.3,6.535,25.19,15.214s6.75,21.857,4.821,27.321-6.678,8.357-9.928,13.822-1.965,17.811-6.143,22.954-13.94,2.071-13.94,2.071Z" fill="#fff"/><path d="M344.763,72.8c-1.562.191-2.617,9.452-2.3,11.917s3.215.857,4.929,1.5,6.144,1.392,8.8.535,5.982-6.214,4.589-8.143-7.408-5.137-10.5-4.071C345.49,76.2,346.517,72.59,344.763,72.8Z" fill="#3f3941"/><path d="M352.942,49.236s24.038,3.485,29.714,15.735-3.229,26.628-3.915,33.1,4.032,12.985-1.5,11.657-7.894-11.954-8.678-20.3,3.2-26.348,0-29.241-12.556-5.143-12.556-5.143Z" fill="#3f3941"/><path d="M346.455,79.356c.841-1.309,2.492-4.105,5.435-2.837a19.378,19.378,0,0,1,4.329,2.444.2.2,0,0,1-.108.362,2.218,2.218,0,0,0-1.362.546,6.723,6.723,0,0,1-3.734,2.062c-1.283.206-2.852-1-3.915-1.187a2.334,2.334,0,0,0-1.293.466.209.209,0,0,1-.285-.291C345.839,80.374,346.239,79.693,346.455,79.356Z" fill="#fff"/><ellipse cx="2.783" cy="2.699" rx="2.783" ry="2.699" transform="matrix(0.174, -0.985, 0.985, 0.174, 347.862, 81.428)" fill="#3f3941"/><ellipse cx="1.68" cy="1.63" rx="1.68" ry="1.63" transform="matrix(0.174, -0.985, 0.985, 0.174, 349.107, 80.527)" fill="#262128"/><ellipse cx="0.519" cy="0.503" rx="0.519" ry="0.503" transform="matrix(0.174, -0.985, 0.985, 0.174, 351.854, 78.848)" fill="#fbfcfc"/><path d="M336.456,111.52c1.959,0,6.756-3.643,8.041,0s-.571,8.965-8.041,8.965Z" fill="#3f3941"/><path d="M339.783,116.341c.375-.8,3.7-2.136,3.589-1.148s-1.875,2.6-2.143,3.077a8.105,8.105,0,0,0-.515,1.483,9.679,9.679,0,0,1-2.153.571C338.605,120.158,339.418,117.123,339.783,116.341Z" fill="#262128"/><path d="M348.692,57.58c2.569-1.2,4.045-.4,2.191,2.262a1.664,1.664,0,0,1-2.56.524C347.34,59.6,346.389,58.656,348.692,57.58Z" fill="#3f3941"/><path d="M360.536,86.474c1.931,0,3.875,2.169,1.77,3.053s-3.911,1.206-4.333-.884S358.3,86.474,360.536,86.474Z" fill="#3f3941"/><path d="M347.631,70.267c-.382.318-.234,2.3.328,2.562s4.038-.363,3.557-.887S348.259,69.743,347.631,70.267Z" fill="#3f3941"/><path d="M348.833,117.914c.271,1.035-.411,3.376-1.772,4.813s-2.052,1.106-3.057-.506.824-2.108,1.943-2.916S348.59,116.985,348.833,117.914Z" fill="#3f3941"/><path d="M351.781,101.012c-1.827-1.373-.8-7.188,1.23-8.132s4.545.977,3.182,2.712S352.6,101.629,351.781,101.012Z" fill="#3f3941"/></g></svg>
