<svg width="96px" height="96px" viewBox="0 -9.22 96 96" xmlns="http://www.w3.org/2000/svg"><g transform="translate(-416.523 -187.061)"><path d="M449.17,232.756s-7.454-.028-10.184-2.076-2.924-6.24-6.043-10.09-9.358-19.251-7.993-30.168,13.452,7.8,22.419,13.257,5.622,13.841,9.188,14.231S449.17,232.756,449.17,232.756Z" fill="#f37777"/><path d="M453.942,225.071s-9.926-9.11-12.928-13.594.139,11.112,1.882,14.816,7.586,4.506,7.586,4.506Z" fill="#d45757"/><path d="M429.5,214.243a29.62,29.62,0,0,0,3.443,6.347c2.387,2.947,3.065,6.091,4.474,8.324.091-1.92.381-4.16.01-5.74C436.892,220.9,432.784,217.523,429.5,214.243Z" fill="#f7a747"/><path d="M456.557,217.91c-3.566-.39-.22-8.773-9.188-14.231q-.418-.257-.848-.549a19.786,19.786,0,0,1,2.912,5.812c.861,4.484-.894,6.044-2.064,9.553s4.773,9.021,3.1,10.534c-1.112,1.008-4.544,2.338-7.577,3.107a37.71,37.71,0,0,0,6.274.62S460.122,218.3,456.557,217.91Z" fill="#f7a747"/><path d="M464.523,211.27c-4.419.183-11.716,2.23-14.452,6.75s-8.249,16.925-8.249,22.073,10.587,6.516,13.506,11.345,1.209,11.227,9.2,11.227Z" fill="#f7a747"/><path d="M464.523,245.871c-3.314,0-5.267,4.687-7.4,10.243s3.787,9.5,7.4,6.551Z" fill="#fcbd78"/><path d="M464.523,251.441s-5.758-.183-5.758,2.408,3.249,5.182,5.758,5.182Z" fill="#2b2527"/><path d="M461.883,256.813s-1.859-.893-1.5-2.48a.934.934,0,0,1,1.582-.524C462.993,254.766,463.576,257.52,461.883,256.813Z" fill="#1a1517"/><path d="M456.907,233.288c-.877-.7-1.347-3.413-3.947-3.413a3.142,3.142,0,0,0-3.107,3.205,3.244,3.244,0,0,0,2.7,3.2c2.354.3,3.2-1.994,3.771-2.058S458,234.16,456.907,233.288Z" fill="#fff"/><ellipse cx="3.213" cy="3.313" rx="3.213" ry="3.313" transform="translate(449.643 229.783)" fill="#2b2527"/><ellipse cx="1.94" cy="2" rx="1.94" ry="2" transform="translate(450.916 231.096)" fill="#1a1517"/><ellipse cx="0.599" cy="0.617" rx="0.599" ry="0.617" transform="translate(450.725 231.325)" fill="#fbfcfc"/><path d="M459.4,218.991c-1.6,0-5.548,4.336-4.734,5.07,3.944,3.549,4.011,5.069,5.79,5.069C461.578,229.13,461.8,218.991,459.4,218.991Z" fill="#fcbd78"/><path d="M451.048,216.711c-8.207-.934-10.23,2.422-10.23,2.422l4.059.76c-6.568.473-6.568,6.26-6.568,6.26,2.766-4.889,4.587-3.715,4.587-3.715s-4.765-2.131-7.25-.811-2.091,6.314-2.091,6.314.67-4.793,3.872-4.767a10,10,0,0,1,4.657.887,20.6,20.6,0,0,0-4.667,4.853,18.366,18.366,0,0,1-6.032,5.063c5.858-.178,9.629-6.214,9.629-6.214-2.088,2.663-2.883,9.587-3.4,11.642s-2.853,8.064-2.853,8.064l2.853-4.579c2.853-4.578,2.156-6.173,2.156-6.173a11.555,11.555,0,0,1-1.281,9.154,19.735,19.735,0,0,0-3.018,8.9c.888-5.48,6.354-8.9,6.354-8.9s-2.093,4.971-3.161,7.671,0,11.087,0,11.087-.178-6.627,2.35-11.087a80.432,80.432,0,0,1,4.928-7.671c-.177,4.793-3.046,14.024-3.046,14.024,2.28-3.55,5.058-12.249,5.058-12.249.592,5.326-1.1,13.137-1.1,13.137a57.483,57.483,0,0,0,2.3-8.655c1.2-5.873,0-16.294,0-16.294-.016,3.077,1.759,10.037,1.759,10.037l-.83-9.154c-.829-9.154,3.859-13.924,3.859-13.924a13.528,13.528,0,0,0-.77,8.006c.063-4.525,5.189-11.437,8.1-9.221s3.254,7.336,3.254,7.336V208.642a10.455,10.455,0,0,0-5.758-2.714c-3.414-.355-7.042-4.19-7.042-4.19a8.7,8.7,0,0,0,7.042,5.927s-3.439-3.411-9.374,0a15.33,15.33,0,0,1,7.879,1.227s-7.955,1.448-12.926,1.017a40.709,40.709,0,0,0,10.615,1.361,26.922,26.922,0,0,0-8.839,1.936,17.582,17.582,0,0,0-5.719,3.88s7.653-3.024,12.373-3.7c0,0-5.625.874-5.4,5.111Z" fill="#fff"/><path d="M427.3,187.062c-2.628-.076-13.137,3.5-10.3,12.424a10.354,10.354,0,0,1,7.456-10.778,12.862,12.862,0,0,0-3.551,8.7s1.713-5.822,5.5-7.45c0,0-3.017,4.255-1.656,13.174,0,0,1.656-13.174,3.964-9.89a21.267,21.267,0,0,0-1.938,13.292s1.978-13.564,6.771-12.321,8.267,9.8,13.814,9.468a83.2,83.2,0,0,1-8.712-7.508C434.174,191.726,431.74,187.192,427.3,187.062Z" fill="#fff"/><path d="M479.876,232.756s7.454-.028,10.183-2.076,2.925-6.24,6.044-10.09,9.358-19.251,7.993-30.168-13.452,7.8-22.42,13.257-5.621,13.841-9.187,14.231S479.876,232.756,479.876,232.756Z" fill="#f37777"/><path d="M475.1,225.071s9.926-9.11,12.928-13.594-.139,11.112-1.883,14.816-7.586,4.506-7.586,4.506Z" fill="#d45757"/><path d="M499.546,214.243a29.62,29.62,0,0,1-3.443,6.347c-2.388,2.947-3.065,6.091-4.474,8.324-.091-1.92-.382-4.16-.01-5.74C492.154,220.9,496.261,217.523,499.546,214.243Z" fill="#f7a747"/><path d="M472.489,217.91c3.566-.39.22-8.773,9.188-14.231q.418-.257.847-.549a19.8,19.8,0,0,0-2.911,5.812c-.861,4.484.894,6.044,2.064,9.553s-4.773,9.021-3.105,10.534c1.112,1.008,4.545,2.338,7.577,3.107a37.694,37.694,0,0,1-6.273.62S468.924,218.3,472.489,217.91Z" fill="#f7a747"/><path d="M464.523,211.27c4.419.183,11.715,2.23,14.452,6.75s8.249,16.925,8.249,22.073-10.587,6.516-13.506,11.345-1.209,11.227-9.195,11.227Z" fill="#f7a747"/><path d="M464.523,245.871c3.314,0,5.266,4.687,7.4,10.243s-3.787,9.5-7.4,6.551Z" fill="#fcbd78"/><path d="M464.523,251.441s5.758-.183,5.758,2.408-3.249,5.182-5.758,5.182Z" fill="#2b2527"/><path d="M467.163,256.813s1.859-.893,1.5-2.48a.934.934,0,0,0-1.582-.524C466.053,254.766,465.47,257.52,467.163,256.813Z" fill="#1a1517"/><path d="M472.138,233.288c.877-.7,1.348-3.413,3.947-3.413a3.142,3.142,0,0,1,3.108,3.205,3.244,3.244,0,0,1-2.7,3.2c-2.354.3-3.2-1.994-3.771-2.058S471.049,234.16,472.138,233.288Z" fill="#fff"/><ellipse cx="3.213" cy="3.313" rx="3.213" ry="3.313" transform="translate(472.977 229.783)" fill="#2b2527"/><ellipse cx="1.94" cy="2" rx="1.94" ry="2" transform="translate(474.25 231.096)" fill="#1a1517"/><ellipse cx="0.599" cy="0.617" rx="0.599" ry="0.617" transform="translate(477.123 231.325)" fill="#fbfcfc"/><path d="M469.642,218.991c1.6,0,5.548,4.336,4.733,5.07-3.944,3.549-4.01,5.069-5.789,5.069C467.467,229.13,467.245,218.991,469.642,218.991Z" fill="#fcbd78"/><path d="M478,216.711c8.208-.934,10.231,2.422,10.231,2.422l-4.059.76c6.568.473,6.568,6.26,6.568,6.26-2.766-4.889-4.588-3.715-4.588-3.715s4.766-2.131,7.251-.811,2.09,6.314,2.09,6.314-.67-4.793-3.871-4.767a10,10,0,0,0-4.657.887,20.6,20.6,0,0,1,4.667,4.853,18.366,18.366,0,0,0,6.032,5.063c-5.859-.178-9.629-6.214-9.629-6.214,2.088,2.663,2.883,9.587,3.4,11.642s2.853,8.064,2.853,8.064l-2.853-4.579c-2.853-4.578-2.156-6.173-2.156-6.173a11.55,11.55,0,0,0,1.281,9.154,19.735,19.735,0,0,1,3.018,8.9c-.888-5.48-6.354-8.9-6.354-8.9s2.093,4.971,3.161,7.671,0,11.087,0,11.087.178-6.627-2.35-11.087a80.435,80.435,0,0,0-4.928-7.671c.177,4.793,3.045,14.024,3.045,14.024-2.28-3.55-5.057-12.249-5.057-12.249-.592,5.326,1.1,13.137,1.1,13.137a57.587,57.587,0,0,1-2.3-8.655c-1.2-5.873,0-16.294,0-16.294.015,3.077-1.759,10.037-1.759,10.037l.829-9.154c.83-9.154-3.858-13.924-3.858-13.924a13.537,13.537,0,0,1,.77,8.006c-.063-4.525-5.189-11.437-8.1-9.221s-3.254,7.336-3.254,7.336V208.642a10.455,10.455,0,0,1,5.758-2.714c3.414-.355,7.042-4.19,7.042-4.19a8.7,8.7,0,0,1-7.042,5.927s3.439-3.411,9.373,0a15.33,15.33,0,0,0-7.879,1.227s7.956,1.448,12.926,1.017a40.7,40.7,0,0,1-10.614,1.361,26.921,26.921,0,0,1,8.839,1.936,17.582,17.582,0,0,1,5.719,3.88s-7.653-3.024-12.373-3.7c0,0,5.625.874,5.4,5.111Z" fill="#fff"/><path d="M501.744,187.062c2.628-.076,13.136,3.5,10.3,12.424a10.354,10.354,0,0,0-7.456-10.778,12.862,12.862,0,0,1,3.551,8.7s-1.713-5.822-5.5-7.45c0,0,3.018,4.255,1.657,13.174,0,0-1.657-13.174-3.964-9.89a21.267,21.267,0,0,1,1.938,13.292s-1.979-13.564-6.772-12.321-8.266,9.8-13.813,9.468a83.2,83.2,0,0,0,8.712-7.508C494.871,191.726,497.306,187.192,501.744,187.062Z" fill="#fff"/></g></svg>
