<svg width="96px" height="96px" viewBox="-7.13 0 96 96" xmlns="http://www.w3.org/2000/svg"><g transform="translate(-679.648 -177.845)"><path d="M720.519,186.22s-12.467-4.646-16.122-1.452c-4.617,4.035-8.364,6.842-10.95,15.47s-14.129,13.451-13.792,33.889c.277,16.835,14.507,22.233,21,30.307s9.829,9.411,19.864,9.411Z" fill="#f7a747"/><path d="M711.793,207.647c-5.36,0-1.822,6.11-2.144,8.824s-7.333,1.368-14.25,8.053-5.8,11.092-8.227,13.47c-1.786,1.748-4.985-4.851-7.447-7.512q-.1,1.737-.07,3.645c.277,16.835,14.507,22.233,21,30.307s9.829,9.411,19.864,9.411v-62.67C719.337,211.175,717.153,207.647,711.793,207.647Z" fill="#fff"/><path d="M720.519,231.317s-8-.857-8,2.744,4.516,7.2,8,7.2Z" fill="#38373c"/><path d="M716.517,238.349s-3.145-2.915-1.087-3.087S719.909,240.275,716.517,238.349Z" fill="#252428"/><path d="M720.519,240.094s0,4.831-7.441,3.589c-3.294-.55-10.76-6.494-11.3-5.6-1.122,1.859,7.522,5.194,9.371,11.341s3.615,8.577,9.371,8.577Z" fill="#252428"/><path d="M720.519,246.383s-6.094-.292-7.2,1.086,1.776,11.3,3.6,12.217a8.878,8.878,0,0,0,3.6.919Z" fill="#f37777"/><path d="M711.2,218.847c-.534-1.278-1.55-3.986-4.327-3.329a17.241,17.241,0,0,0-4.176,1.475.182.182,0,0,0,.039.334,1.965,1.965,0,0,1,1.11.689A5.994,5.994,0,0,0,706.8,220.4c1.094.379,2.657-.437,3.618-.436a2.076,2.076,0,0,1,1.062.609.186.186,0,0,0,.3-.211C711.586,219.835,711.341,219.176,711.2,218.847Z" fill="#3d2a2e"/><ellipse cx="2.404" cy="2.479" rx="2.404" ry="2.479" transform="translate(704.841 215.489)" fill="#4c383d"/><ellipse cx="1.451" cy="1.497" rx="1.451" ry="1.497" transform="translate(705.794 216.471)" fill="#3d2a2e"/><ellipse cx="0.448" cy="0.462" rx="0.448" ry="0.462" transform="translate(705.651 216.642)" fill="#fbfcfc"/><path d="M712.507,215.331s2.542,1.885,3.931,1.421.142-6.7-.606-6.574-.109,2.493-1.046,4.239S711.924,213.5,712.507,215.331Z" fill="#c6c5b3"/><path d="M705.984,183.961a4.113,4.113,0,0,0-1.587.807c-1.57,1.372-3.037,2.606-4.395,3.972l5.792,5.932c4.567-2.359,4.783-4.669,2.9-7.782A12.22,12.22,0,0,0,705.984,183.961Z" fill="#c68032"/><path d="M707.245,188.2c-3.447-3.791-7.162-6.048-18.06-9.689-6.575-2.2-8.861,1.037-7.781,9.625,1.38,10.971,1.906,17.479,4.407,24.086,0,0,8.878-8.693,14.844-13.647S711.074,192.412,707.245,188.2Z" fill="#f7a747"/><path d="M684.035,179.68c1.931-.635,13.064,8.721,16.048,12.173s-3.206,9.894-6.837,13.3-7.339,2.305-8.109-1.809-.165-8.587,0-11.493S679.717,181.1,684.035,179.68Z" fill="#fff"/><path d="M700.648,195.421c-2.189-1.072-7.221-3.335-8.24-2.008-.905,1.18,1.659,6.257,3.326,9.275C697.852,200.459,699.984,197.783,700.648,195.421Z" fill="#c6c5b3"/><path d="M720.519,186.22s12.466-4.646,16.121-1.452c4.618,4.035,8.364,6.842,10.95,15.47s14.129,13.451,13.793,33.889c-.277,16.835-14.508,22.233-21,30.307s-9.829,9.411-19.864,9.411Z" fill="#f7a747"/><path d="M729.244,207.647c5.36,0,1.822,6.11,2.144,8.824s7.334,1.368,14.251,8.053,5.8,11.092,8.226,13.47c1.786,1.748,4.985-4.851,7.447-7.512.066,1.158.092,2.371.071,3.645-.277,16.835-14.508,22.233-21,30.307s-9.828,9.411-19.863,9.411v-62.67C721.7,211.175,723.884,207.647,729.244,207.647Z" fill="#fff"/><path d="M720.519,231.317s8-.857,8,2.744-4.517,7.2-8,7.2Z" fill="#38373c"/><path d="M724.521,238.349s3.144-2.915,1.086-3.087S721.128,240.275,724.521,238.349Z" fill="#252428"/><path d="M720.519,240.094s0,4.831,7.44,3.589c3.294-.55,10.76-6.494,11.3-5.6,1.123,1.859-7.521,5.194-9.37,11.341s-3.616,8.577-9.371,8.577Z" fill="#252428"/><path d="M720.519,246.383s6.093-.292,7.2,1.086-1.776,11.3-3.6,12.217a8.879,8.879,0,0,1-3.6.919Z" fill="#f37777"/><path d="M729.834,218.847c.534-1.278,1.551-3.986,4.328-3.329a17.209,17.209,0,0,1,4.175,1.475.182.182,0,0,1-.039.334,1.968,1.968,0,0,0-1.11.689,5.99,5.99,0,0,1-2.956,2.387c-1.093.379-2.656-.437-3.618-.436a2.08,2.08,0,0,0-1.062.609.187.187,0,0,1-.295-.211C729.451,219.835,729.7,219.176,729.834,218.847Z" fill="#3d2a2e"/><ellipse cx="2.404" cy="2.479" rx="2.404" ry="2.479" transform="translate(731.388 215.489)" fill="#4c383d"/><ellipse cx="1.451" cy="1.497" rx="1.451" ry="1.497" transform="translate(732.341 216.471)" fill="#3d2a2e"/><ellipse cx="0.448" cy="0.462" rx="0.448" ry="0.462" transform="translate(734.49 216.642)" fill="#fbfcfc"/><path d="M728.531,215.331s-2.543,1.885-3.931,1.421-.143-6.7.605-6.574.109,2.493,1.047,4.239S729.114,213.5,728.531,215.331Z" fill="#c6c5b3"/><path d="M735.053,183.961a4.106,4.106,0,0,1,1.587.807c1.571,1.372,3.038,2.606,4.395,3.972l-5.791,5.932c-4.567-2.359-4.783-4.669-2.9-7.782A12.235,12.235,0,0,1,735.053,183.961Z" fill="#c68032"/><path d="M733.792,188.2c3.447-3.791,7.162-6.048,18.06-9.689,6.575-2.2,8.862,1.037,7.781,9.625-1.38,10.971-1.9,17.479-4.406,24.086,0,0-8.879-8.693-14.844-13.647S729.964,192.412,733.792,188.2Z" fill="#f7a747"/><path d="M757,179.68c-1.931-.635-13.063,8.721-16.048,12.173s3.206,9.894,6.838,13.3,7.339,2.305,8.109-1.809.165-8.587,0-11.493S761.32,181.1,757,179.68Z" fill="#fff"/><path d="M740.39,195.421c2.188-1.072,7.221-3.335,8.239-2.008.906,1.18-1.659,6.257-3.326,9.275C743.185,200.459,741.053,197.783,740.39,195.421Z" fill="#c6c5b3"/></g></svg>
