<svg width="108.714px" height="108.714px" viewBox="0 -7.91 108.714 108.714" xmlns="http://www.w3.org/2000/svg"><g transform="translate(-281.539 -607.414)"><path d="M318.953,608.578s-13.95,1.751-18.128,7.215-5.665,14.786-5.665,14.786l7.272,17.129Z" fill="#3f3941"/><path d="M335.9,607.712s-19.087-1.168-22.593,4.438c-3,4.8-13.157,8.926-16.4,20-2.528,8.642,2.4,27.8,2.924,32.822,1.281,12.221,24.057,27.178,36.066,27.178Z" fill="#a97c50"/><path d="M335.9,668.193s-3.857-.738-5.785,2.47-6.3,23.988-6.3,23.988,6.047,2.809,11.8,2.809Z" fill="#e6e7e8"/><path d="M330.111,676.222s-2.893,15.928,5.785,15.928V676.38Z" fill="#f37777"/><path d="M335.9,630.9s-3.6-9.964-12.082-9.964-17.838,16.332-18.457,22.872,6.718,14.414,6.718,16.664c0,1.4-8.357,7.648-6.429,26.357.653,6.331,3.571,9.881,14.918,13.321,8.876,2.69,15.332-29.727,15.332-29.727Z" fill="#3d302a"/><path d="M335.9,614.186c-5.178,0-1.936,19.486-4.051,28.113s-12.755,6.883-17.132,15.372-8.63,15.979-3.281,32.236c2.043,6.21,11.192,5.582,16.032,2.243s8.432-10.743,8.432-10.743Z" fill="#fff"/><path d="M327.465,659.131c-.112,2.264,8.431,4.516,8.431,4.516V651.7S327.733,653.713,327.465,659.131Z" fill="#262128"/><path d="M335.9,651.7a25.409,25.409,0,0,0-5.8,1.019c-1.88.763-3.572,5.194-2.632,6.416s3.179.458,3.939,0-1.324-3.972,0-3.819,2.452,5.194,1.136,5.5,3.356,2.836,3.356,2.836Z" fill="#3f3941"/><path d="M314.9,649.7c-.53,0-4.96.006-4.96-4.825a4.733,4.733,0,0,1,4.958-4.793c2.441,0,4.136,1.74,5.706,4.935.182.372,1.958.612,1.557,1.2-.283.411-2.633.466-3.009.779-.631.527-1.746,2.709-4.252,2.709Z" fill="#262128"/><path d="M319.965,645.142c-1.137-.909-1.746-4.424-5.116-4.424a4.073,4.073,0,0,0-4.028,4.154c0,.661.447,3.77,3.5,4.153s4.145-2.585,4.887-2.667S321.377,646.272,319.965,645.142Z" fill="#fff"/><ellipse cx="4.165" cy="4.295" rx="4.165" ry="4.295" transform="translate(310.549 640.598)" fill="#3f3941"/><ellipse cx="2.515" cy="2.593" rx="2.515" ry="2.593" transform="translate(312.199 642.3)" fill="#262128"/><ellipse cx="0.776" cy="0.8" rx="0.776" ry="0.8" transform="translate(311.952 642.597)" fill="#fbfcfc"/><path d="M318.953,608.578s-4.937-1.875-8.62-.866-10.451,5.51-15.272,6.474-11.886,2.571-13.372,11.25,8.552,25.458,8.552,30.889.539,8.239,4.82,5.185,11.887-32.86,12.778-38.646S310.9,611.4,316.2,612.15Z" fill="#3d302a"/><path d="M352.839,608.578s13.95,1.751,18.129,7.215,5.664,14.786,5.664,14.786l-7.271,17.129Z" fill="#3f3941"/><path d="M335.9,607.712s19.088-1.168,22.594,4.438c3,4.8,13.157,8.926,16.4,20,2.528,8.642-2.4,27.8-2.924,32.822-1.282,12.221-24.057,27.178-36.067,27.178Z" fill="#a97c50"/><path d="M335.9,668.193s3.857-.738,5.786,2.47,6.3,23.988,6.3,23.988-6.046,2.809-11.8,2.809Z" fill="#e6e7e8"/><path d="M341.682,676.222s2.893,15.928-5.786,15.928V676.38Z" fill="#f37777"/><path d="M335.9,630.9s3.6-9.964,12.082-9.964,17.839,16.332,18.457,22.872-6.717,14.414-6.717,16.664c0,1.4,8.357,7.648,6.428,26.357-.652,6.331-3.57,9.881-14.918,13.321-8.875,2.69-15.332-29.727-15.332-29.727Z" fill="#3d302a"/><path d="M335.9,614.186c5.179,0,1.937,19.486,4.052,28.113s12.755,6.883,17.131,15.372,8.63,15.979,3.282,32.236c-2.044,6.21-11.192,5.582-16.033,2.243s-8.432-10.743-8.432-10.743Z" fill="#fff"/><path d="M344.327,659.131c.112,2.264-8.431,4.516-8.431,4.516V651.7S344.06,653.713,344.327,659.131Z" fill="#262128"/><path d="M335.9,651.7a25.423,25.423,0,0,1,5.8,1.019c1.879.763,3.571,5.194,2.631,6.416s-3.178.458-3.938,0,1.324-3.972,0-3.819-2.453,5.194-1.137,5.5-3.356,2.836-3.356,2.836Z" fill="#3f3941"/><path d="M356.889,649.7c.531,0,4.961.006,4.961-4.825a4.733,4.733,0,0,0-4.958-4.793c-2.441,0-4.137,1.74-5.706,4.935-.183.372-1.958.612-1.557,1.2.283.411,2.633.466,3.008.779.632.527,1.746,2.709,4.252,2.709Z" fill="#262128"/><path d="M351.827,645.142c1.137-.909,1.747-4.424,5.116-4.424a4.072,4.072,0,0,1,4.028,4.154c0,.661-.446,3.77-3.5,4.153s-4.145-2.585-4.887-2.667S350.415,646.272,351.827,645.142Z" fill="#fff"/><ellipse cx="4.165" cy="4.295" rx="4.165" ry="4.295" transform="translate(352.915 640.598)" fill="#3f3941"/><ellipse cx="2.515" cy="2.593" rx="2.515" ry="2.593" transform="translate(354.565 642.3)" fill="#262128"/><ellipse cx="0.776" cy="0.8" rx="0.776" ry="0.8" transform="translate(358.289 642.597)" fill="#fbfcfc"/><path d="M352.839,608.578s4.938-1.875,8.62-.866,10.451,5.51,15.272,6.474,11.887,2.571,13.372,11.25-8.551,25.458-8.551,30.889-.539,8.239-4.821,5.185-11.886-32.86-12.778-38.646-3.058-11.464-8.364-10.714Z" fill="#3d302a"/></g></svg>
