<?xml version="1.0" ?><!DOCTYPE svg  PUBLIC '-//W3C//DTD SVG 1.1//EN'  'http://www.w3.org/Graphics/SVG/1.1/DTD/svg11.dtd'><svg width="512px" height="512px" viewBox="0 0 512 512" id="Layer_1" style="enable-background:new 0 0 512 512;" version="1.1" xml:space="preserve" xmlns="http://www.w3.org/2000/svg" xmlns:xlink="http://www.w3.org/1999/xlink"><style type="text/css">
	.st0{fill:#EEEDF2;}
	.st1{fill:none;stroke:#1E247E;stroke-width:6;stroke-linecap:round;stroke-miterlimit:10;}
	.st2{fill:#EFC12F;stroke:#1E247E;stroke-width:6;stroke-linecap:round;stroke-miterlimit:10;}
	.st3{fill:none;stroke:#1E247E;stroke-width:3;stroke-linecap:round;stroke-miterlimit:10;}
	.st4{fill:#FFFFFF;stroke:#1E247E;stroke-width:3;stroke-linecap:round;stroke-miterlimit:10;}
	.st5{fill:#FCF5F2;stroke:#1E247E;stroke-width:5;stroke-linecap:round;stroke-miterlimit:10;}
	.st6{fill:#FCF5F2;stroke:#1E247E;stroke-width:6;stroke-linecap:round;stroke-miterlimit:10;}
	.st7{fill:#1E247E;}
	.st8{fill:none;stroke:#1E247E;stroke-width:4;stroke-linecap:round;stroke-miterlimit:10;}
	.st9{fill:#EAB8B1;}
	.st10{fill:#DC9695;stroke:#1E247E;stroke-width:4;stroke-linecap:round;stroke-miterlimit:10;}
	.st11{fill:#EECED1;stroke:#1E247E;stroke-width:3;stroke-linecap:round;stroke-miterlimit:10;}
	.st12{fill:#CB7272;stroke:#1E247E;stroke-width:3;stroke-linecap:round;stroke-miterlimit:10;}
	.st13{fill:#D3D5E7;stroke:#1E247E;stroke-width:6;stroke-linecap:round;stroke-miterlimit:10;}
	.st14{fill:#D3D5E7;}
	.st15{fill:#FFFFFF;stroke:#1E247E;stroke-width:5;stroke-linecap:round;stroke-miterlimit:10;}
	.st16{fill:#FFFFFF;stroke:#1E247E;stroke-width:4;stroke-linecap:round;stroke-miterlimit:10;}
	.st17{fill:#ECECEE;}
	.st18{fill:#DA867D;stroke:#1E247E;stroke-width:4;stroke-linecap:round;stroke-miterlimit:10;}
	.st19{fill:#FCF5F2;stroke:#1E247E;stroke-width:4;stroke-linecap:round;stroke-miterlimit:10;}
	.st20{fill:#69AEF8;stroke:#1E247E;stroke-width:6;stroke-linecap:round;stroke-miterlimit:10;}
	.st21{opacity:0.4;fill:#FFFFFF;}
	.st22{opacity:0.7;fill:#FFFFFF;}
	.st23{fill:#69ADF7;stroke:#1E247E;stroke-width:2.5;stroke-linecap:round;stroke-miterlimit:10;}
	.st24{fill:none;stroke:#FFFFFF;stroke-width:7;stroke-linecap:round;stroke-miterlimit:10;}
	.st25{fill:none;stroke:#1E247E;stroke-width:2.5;stroke-linecap:round;stroke-miterlimit:10;}
	.st26{fill:#F0C330;stroke:#1E247E;stroke-width:6;stroke-linecap:round;stroke-miterlimit:10;}
	.st27{opacity:0.3;}
	.st28{fill:#FFFFFF;}
	.st29{fill:#79CAA1;stroke:#1E247E;stroke-width:6;stroke-linecap:round;stroke-miterlimit:10;}
	.st30{fill:#DA867D;stroke:#1E247E;stroke-width:6;stroke-linecap:round;stroke-miterlimit:10;}
	.st31{fill:#FFFFFF;stroke:#1E247E;stroke-width:6;stroke-linecap:round;stroke-miterlimit:10;}
	.st32{fill:#DBE7FE;stroke:#1E247E;stroke-width:5;stroke-linecap:round;stroke-miterlimit:10;}
	.st33{fill:#F2F3F3;}
	.st34{fill:none;stroke:#1E247E;stroke-width:6;stroke-linecap:round;stroke-linejoin:round;stroke-miterlimit:10;}
	.st35{fill:#DBE7FE;stroke:#1E247E;stroke-width:6;stroke-linecap:round;stroke-linejoin:round;stroke-miterlimit:10;}
	.st36{fill:#EFC230;stroke:#1E247E;stroke-width:6;stroke-linecap:round;stroke-linejoin:round;stroke-miterlimit:10;}
	.st37{fill:none;stroke:#1E247E;stroke-width:3;stroke-linecap:round;stroke-linejoin:round;stroke-miterlimit:10;}
	.st38{fill:#F0C330;stroke:#1E247E;stroke-width:6;stroke-linecap:round;stroke-linejoin:round;stroke-miterlimit:10;}
	.st39{fill:#79CAA1;stroke:#1E247E;stroke-width:6;stroke-linecap:round;stroke-linejoin:round;stroke-miterlimit:10;}
	.st40{fill:#FFFFFF;stroke:#1E247E;stroke-width:6;stroke-linecap:round;stroke-linejoin:round;stroke-miterlimit:10;}
	.st41{fill:#DA867D;stroke:#1E247E;stroke-width:6;stroke-linecap:round;stroke-linejoin:round;stroke-miterlimit:10;}
	.st42{fill:#DBE7FE;stroke:#1E247E;stroke-width:6;stroke-linejoin:round;stroke-miterlimit:10;}
	.st43{fill:none;stroke:#1E247E;stroke-width:6;stroke-linejoin:round;stroke-miterlimit:10;}
	.st44{opacity:0.7;}
	.st45{fill:#FFFFFF;stroke:#1E247E;stroke-width:6;stroke-linejoin:round;stroke-miterlimit:10;}
	.st46{fill:none;stroke:#FFFFFF;stroke-width:3;stroke-linecap:round;stroke-linejoin:round;stroke-miterlimit:10;}
	.st47{fill:none;stroke:#1E247E;stroke-width:5;stroke-linecap:round;stroke-miterlimit:10;}
	.st48{fill:#DBE7FE;stroke:#1E247E;stroke-width:6;stroke-linecap:round;stroke-miterlimit:10;}
	.st49{opacity:0.1;fill:#BDBDBD;}
	.st50{fill:#69AEF8;stroke:#1E247E;stroke-width:6;stroke-linecap:round;stroke-linejoin:round;stroke-miterlimit:10;}
	.st51{fill:#79CAA1;stroke:#1E247E;stroke-width:5;stroke-miterlimit:10;}
	.st52{fill:#D2D4E6;stroke:#1E247E;stroke-width:5;stroke-linecap:round;stroke-miterlimit:10;}
	.st53{fill:#69AEF8;stroke:#1E247E;stroke-width:5;stroke-miterlimit:10;}
	.st54{opacity:0.2;fill:none;stroke:#1E247E;stroke-width:5;stroke-linecap:round;stroke-miterlimit:10;}
	.st55{fill:none;stroke:#1E247E;stroke-width:2.5;stroke-linecap:round;stroke-linejoin:round;stroke-miterlimit:10;}
	.st56{fill:#69AEF8;stroke:#1E247E;stroke-width:6;stroke-miterlimit:10;}
	.st57{fill:#DBE7FE;}
	.st58{fill:#FFFFFF;stroke:#1E247E;stroke-width:6;stroke-miterlimit:10;}
	.st59{fill:#D9857D;stroke:#1E247E;stroke-width:5;stroke-miterlimit:10;}
	.st60{fill:none;stroke:#D3D5E7;stroke-width:4.7904;stroke-linecap:round;stroke-miterlimit:10;}
	.st61{fill:#D2D4E6;stroke:#D3D5E7;stroke-width:4.7904;stroke-linecap:round;stroke-miterlimit:10;}
	.st62{fill:#D2D4E6;stroke:#D3D5E7;stroke-width:5.5;stroke-linecap:round;stroke-miterlimit:10;}
	.st63{fill:none;stroke:#D3D5E7;stroke-width:5.5;stroke-linecap:round;stroke-miterlimit:10;}
	.st64{fill:#79CAA1;}
	.st65{fill:#F0C330;}
	.st66{fill:#79CAA1;stroke:#1E247E;stroke-width:6;stroke-miterlimit:10;}
	.st67{opacity:0.8;fill:#FFFFFF;}
	.st68{fill:#DA867D;stroke:#1E247E;stroke-width:6;stroke-miterlimit:10;}
	.st69{fill:#F0C330;stroke:#1E247E;stroke-width:5;stroke-miterlimit:10;}
	.st70{fill:#D2D4E6;}
	.st71{fill:#EEBDBC;stroke:#D3D5E7;stroke-width:5.5;stroke-linecap:round;stroke-miterlimit:10;}
	.st72{fill:#D3D5E7;stroke:#D3D5E7;stroke-width:5.5;stroke-linecap:round;stroke-miterlimit:10;}
</style><g><g id="Music"><circle class="st0" cx="256" cy="258.4" id="Background_22_" r="215.6"/><g id="Vinyl"><path class="st14" d="M328.4,136.9c-71-34.8-156.9-5.4-191.7,65.6c-34.8,71.1-5.4,156.9,65.6,191.7      s156.9,5.4,191.7-65.6C428.9,257.6,399.5,171.7,328.4,136.9z" id="Shadow"/><path class="st56" d="M312.6,129.5c-71.1-34.8-156.9-5.4-191.7,65.6c-34.8,71-5.4,156.9,65.6,191.7      s156.9,5.4,191.7-65.6C413.1,250.1,383.7,164.3,312.6,129.5z M241.1,254c2.3-4.7,8-6.7,12.7-4.4c4.7,2.3,6.7,8,4.4,12.7      c-2.3,4.7-8,6.7-12.7,4.4C240.7,264.4,238.7,258.7,241.1,254z" id="Shape_91_"/><g id="Light"><g id="RIght_5_"><path class="st57" d="M287.5,320.2l-2.3-3.1c33.8-30.2,32.6-66.5,32.6-66.5l4.5,0        C320,275,311.6,297.6,287.5,320.2z" id="_x36_th_3_"/><path class="st57" d="M296.7,332.2l-7.6-10c24.7-23.3,33.8-49.5,35.9-71.5l13.8,0.1        C336.4,272.3,327.6,305.8,296.7,332.2z" id="_x35_th_6_"/><path class="st57" d="M302.9,340.3l-5.2-6.8c31.8-26.8,40.6-61.2,42.7-82.7l8.7,0.1        C347.7,272.6,339.5,311.5,302.9,340.3z" id="_x34_th_12_"/><path class="st57" d="M307.3,345.8l-2.7-3.5c38-29.4,45.9-69.5,47.2-91.2l4.5,0        C355.5,272.5,348.1,315.3,307.3,345.8z" id="_x33_rd_26_"/><path class="st57" d="M375.3,251.1L362,251c-0.4,20.6-6.7,67.2-51.5,99.2l7.9,10.3        C374.2,324.7,376,266.7,375.3,251.1z" id="_x32_nd_27_"/><path class="st57" d="M323,366.7l-2.8-3.7c59.5-37.2,59.1-99.1,58.4-111.9l4.7,0        C383.2,251.1,391.8,325.3,323,366.7z" id="_x31_st_27_"/></g><g id="Left_58_"><path class="st57" d="M178.6,266.8l3.9,0c3.2-45.2,32.6-66.5,32.6-66.5l-2.8-3.5        C194.3,213.4,181.6,233.9,178.6,266.8z" id="_x36_th_2_"/><path class="st57" d="M163.4,266.9l12.6-0.1c3.3-33.9,18.4-57.1,34.5-72.1l-8.5-10.9        C186.5,198.8,165.4,226.4,163.4,266.9z" id="_x35_th_5_"/><path class="st57" d="M153.2,267l8.5-0.1c1.7-41.5,23.5-69.5,39.2-84.5l-5.4-6.9        C179.3,190.1,153.6,220.4,153.2,267z" id="_x34_th_11_"/><path class="st57" d="M146.2,266.9l4.4,0c0-48,26.8-78.9,43.1-93.2l-2.8-3.6        C174.6,183.9,145.3,215.9,146.2,266.9z" id="_x33_rd_25_"/><path class="st57" d="M127.8,267.2l13-0.1c-2.2-55,30.8-88.5,46.8-101.5l-8.3-10.5        C166.7,164.1,121.9,201,127.8,267.2z" id="_x32_nd_26_"/><path class="st57" d="M120.1,267.3l4.6,0c-7.1-69.8,42.1-107.5,52.7-114.7l-2.9-3.7        C174.5,148.8,110.6,187.5,120.1,267.3z" id="_x31_st_26_"/></g></g><g id="Inner_disk"><path class="st58" d="M274.5,207.4c-28-13.7-61.9-2.1-75.6,25.9c-13.7,28-2.1,61.9,25.9,75.6       c28,13.7,61.9,2.1,75.6-25.9C314.1,255,302.5,221.1,274.5,207.4z M258.1,262.4c-2.3,4.7-8,6.7-12.7,4.4       c-4.7-2.3-6.7-8-4.4-12.7c2.3-4.7,8-6.7,12.7-4.4C258.5,251.9,260.5,257.6,258.1,262.4z" id="Primary"/><path class="st59" d="M249.6,236.8c-11.8,0-21.4,9.6-21.4,21.4c0,11.8,9.6,21.4,21.4,21.4       c11.8,0,21.4-9.6,21.4-21.4C271,246.4,261.4,236.8,249.6,236.8z M258.1,262.4c-2.3,4.7-8,6.7-12.7,4.4c-4.7-2.3-6.7-8-4.4-12.7       c2.3-4.7,8-6.7,12.7-4.4C258.5,251.9,260.5,257.6,258.1,262.4z" id="Secondary"/></g><g id="Lines_39_"><g id="Bottom_78_"><line class="st25" id="Bottom_79_" x1="202.5" x2="210.5" y1="350.3" y2="356.5"/><line class="st25" id="Middle_63_" x1="202.5" x2="218.5" y1="342.7" y2="354.9"/><line class="st25" id="Top_81_" x1="214.1" x2="218.5" y1="343.7" y2="347.1"/></g><g id="Top_79_"><line class="st25" id="Bottom_77_" x1="281.1" x2="289.1" y1="170.8" y2="177"/><line class="st25" id="Middle_62_" x1="281.1" x2="297" y1="163.2" y2="175.4"/><line class="st25" id="Top_80_" x1="292.7" x2="297" y1="164.2" y2="167.6"/></g></g><g id="Sparkles_24_"><path class="st28" d="M253,156.4c-5.8-0.3-5.6-6.7-5.6-6.7c-0.2,7-5.9,6.7-5.9,6.7s5.9,0.6,5.9,6.5       C247.3,162.9,248.1,156.9,253,156.4" id="_x33_rd_24_"/><path class="st28" d="M241.3,145.6c-3.6-0.2-3.5-4.2-3.5-4.2c-0.1,4.4-3.7,4.2-3.7,4.2s3.7,0.4,3.7,4.1       C237.8,149.7,238.3,145.9,241.3,145.6" id="_x32_nd_25_"/><path class="st28" d="M239.1,158.6c-12.9-0.7-12.5-15-12.5-15c-0.3,15.7-13.2,15-13.2,15s13.2,1.3,13.2,14.6       C226.5,173.2,228.2,159.9,239.1,158.6" id="_x31_st_25_"/></g></g><g id="Musical_notes"><g id="Bottom_76_"><polyline class="st60" points="408.6,434.8 424.9,389.8 378.9,373.1 362.6,418.2      "/><ellipse class="st61" cx="354.7" cy="415.3" rx="5.6" ry="8.5" transform="matrix(0.3401 -0.9404 0.9404 0.3401 -156.4654 607.6634)"/><ellipse class="st61" cx="400.6" cy="431.9" rx="5.6" ry="8.5" transform="matrix(0.3401 -0.9404 0.9404 0.3401 -141.7748 661.8118)"/><path class="st61" d="M424.9,389.8l-46-16.6l1.3-3.5c0.3-0.9,1.4-1.4,2.3-1.1l42.7,15.4c0.9,0.3,1.4,1.4,1.1,2.3L424.9,389.8z"/></g><g id="Top_76_"><g id="Bottom_74_"><ellipse class="st62" cx="119.8" cy="146" id="Bottom_75_" rx="12.2" ry="8" transform="matrix(0.7071 -0.7071 0.7071 0.7071 -68.141 127.4291)"/><line class="st63" id="Top_78_" x1="128.4" x2="79.7" y1="137.3" y2="88.6"/></g><path class="st62" d="M87.6,96.6c5.1-11.2,9.7-2.5,22.7-8.6c7.7-3.6,8.6-11,7.6-14c-0.1-0.4-0.7-0.4-0.9-0.1       c-3.1,4.9-5,5.2-18.8,4.1c-13.5-1.1-18.9,7.9-19.7,9.3c-0.1,0.1,0,0.3,0.1,0.4L87.6,96.6z" id="Top_77_"/></g></g><g id="Sparkles_23_"><line class="st24" id="Left_57_" x1="327" x2="326.5" y1="110.8" y2="101.6"/><line class="st24" id="Middle_61_" x1="341.7" x2="336.8" y1="106.4" y2="114.8"/><line class="st24" id="Right_55_" x1="353.2" x2="345.6" y1="116.2" y2="120.4"/></g></g></g></svg>