<?xml version="1.0" ?><!DOCTYPE svg  PUBLIC '-//W3C//DTD SVG 1.1//EN'  'http://www.w3.org/Graphics/SVG/1.1/DTD/svg11.dtd'><svg width="512px" height="512px" viewBox="0 0 512 512" id="Layer_1" style="enable-background:new 0 0 512 512;" version="1.1" xml:space="preserve" xmlns="http://www.w3.org/2000/svg" xmlns:xlink="http://www.w3.org/1999/xlink"><style type="text/css">
	.st0{fill:#EEEDF2;}
	.st1{fill:none;stroke:#1E247E;stroke-width:6;stroke-linecap:round;stroke-miterlimit:10;}
	.st2{fill:#EFC12F;stroke:#1E247E;stroke-width:6;stroke-linecap:round;stroke-miterlimit:10;}
	.st3{fill:none;stroke:#1E247E;stroke-width:3;stroke-linecap:round;stroke-miterlimit:10;}
	.st4{fill:#FFFFFF;stroke:#1E247E;stroke-width:3;stroke-linecap:round;stroke-miterlimit:10;}
	.st5{fill:#FCF5F2;stroke:#1E247E;stroke-width:5;stroke-linecap:round;stroke-miterlimit:10;}
	.st6{fill:#FCF5F2;stroke:#1E247E;stroke-width:6;stroke-linecap:round;stroke-miterlimit:10;}
	.st7{fill:#1E247E;}
	.st8{fill:none;stroke:#1E247E;stroke-width:4;stroke-linecap:round;stroke-miterlimit:10;}
	.st9{fill:#EAB8B1;}
	.st10{fill:#DC9695;stroke:#1E247E;stroke-width:4;stroke-linecap:round;stroke-miterlimit:10;}
	.st11{fill:#EECED1;stroke:#1E247E;stroke-width:3;stroke-linecap:round;stroke-miterlimit:10;}
	.st12{fill:#CB7272;stroke:#1E247E;stroke-width:3;stroke-linecap:round;stroke-miterlimit:10;}
	.st13{fill:#D3D5E7;stroke:#1E247E;stroke-width:6;stroke-linecap:round;stroke-miterlimit:10;}
	.st14{fill:#D3D5E7;}
	.st15{fill:#FFFFFF;stroke:#1E247E;stroke-width:5;stroke-linecap:round;stroke-miterlimit:10;}
	.st16{fill:#FFFFFF;stroke:#1E247E;stroke-width:4;stroke-linecap:round;stroke-miterlimit:10;}
	.st17{fill:#ECECEE;}
	.st18{fill:#DA867D;stroke:#1E247E;stroke-width:4;stroke-linecap:round;stroke-miterlimit:10;}
	.st19{fill:#FCF5F2;stroke:#1E247E;stroke-width:4;stroke-linecap:round;stroke-miterlimit:10;}
	.st20{fill:#69AEF8;stroke:#1E247E;stroke-width:6;stroke-linecap:round;stroke-miterlimit:10;}
	.st21{opacity:0.4;fill:#FFFFFF;}
	.st22{opacity:0.7;fill:#FFFFFF;}
	.st23{fill:#69ADF7;stroke:#1E247E;stroke-width:2.5;stroke-linecap:round;stroke-miterlimit:10;}
	.st24{fill:none;stroke:#FFFFFF;stroke-width:7;stroke-linecap:round;stroke-miterlimit:10;}
	.st25{fill:none;stroke:#1E247E;stroke-width:2.5;stroke-linecap:round;stroke-miterlimit:10;}
	.st26{fill:#F0C330;stroke:#1E247E;stroke-width:6;stroke-linecap:round;stroke-miterlimit:10;}
	.st27{opacity:0.3;}
	.st28{fill:#FFFFFF;}
	.st29{fill:#79CAA1;stroke:#1E247E;stroke-width:6;stroke-linecap:round;stroke-miterlimit:10;}
	.st30{fill:#DA867D;stroke:#1E247E;stroke-width:6;stroke-linecap:round;stroke-miterlimit:10;}
	.st31{fill:#FFFFFF;stroke:#1E247E;stroke-width:6;stroke-linecap:round;stroke-miterlimit:10;}
	.st32{fill:#DBE7FE;stroke:#1E247E;stroke-width:5;stroke-linecap:round;stroke-miterlimit:10;}
	.st33{fill:#F2F3F3;}
	.st34{fill:none;stroke:#1E247E;stroke-width:6;stroke-linecap:round;stroke-linejoin:round;stroke-miterlimit:10;}
	.st35{fill:#DBE7FE;stroke:#1E247E;stroke-width:6;stroke-linecap:round;stroke-linejoin:round;stroke-miterlimit:10;}
	.st36{fill:#EFC230;stroke:#1E247E;stroke-width:6;stroke-linecap:round;stroke-linejoin:round;stroke-miterlimit:10;}
	.st37{fill:none;stroke:#1E247E;stroke-width:3;stroke-linecap:round;stroke-linejoin:round;stroke-miterlimit:10;}
	.st38{fill:#F0C330;stroke:#1E247E;stroke-width:6;stroke-linecap:round;stroke-linejoin:round;stroke-miterlimit:10;}
	.st39{fill:#79CAA1;stroke:#1E247E;stroke-width:6;stroke-linecap:round;stroke-linejoin:round;stroke-miterlimit:10;}
	.st40{fill:#FFFFFF;stroke:#1E247E;stroke-width:6;stroke-linecap:round;stroke-linejoin:round;stroke-miterlimit:10;}
	.st41{fill:#DA867D;stroke:#1E247E;stroke-width:6;stroke-linecap:round;stroke-linejoin:round;stroke-miterlimit:10;}
	.st42{fill:#DBE7FE;stroke:#1E247E;stroke-width:6;stroke-linejoin:round;stroke-miterlimit:10;}
	.st43{fill:none;stroke:#1E247E;stroke-width:6;stroke-linejoin:round;stroke-miterlimit:10;}
	.st44{opacity:0.7;}
	.st45{fill:#FFFFFF;stroke:#1E247E;stroke-width:6;stroke-linejoin:round;stroke-miterlimit:10;}
	.st46{fill:none;stroke:#FFFFFF;stroke-width:3;stroke-linecap:round;stroke-linejoin:round;stroke-miterlimit:10;}
	.st47{fill:none;stroke:#1E247E;stroke-width:5;stroke-linecap:round;stroke-miterlimit:10;}
	.st48{fill:#DBE7FE;stroke:#1E247E;stroke-width:6;stroke-linecap:round;stroke-miterlimit:10;}
	.st49{opacity:0.1;fill:#BDBDBD;}
	.st50{fill:#69AEF8;stroke:#1E247E;stroke-width:6;stroke-linecap:round;stroke-linejoin:round;stroke-miterlimit:10;}
	.st51{fill:#79CAA1;stroke:#1E247E;stroke-width:5;stroke-miterlimit:10;}
	.st52{fill:#D2D4E6;stroke:#1E247E;stroke-width:5;stroke-linecap:round;stroke-miterlimit:10;}
	.st53{fill:#69AEF8;stroke:#1E247E;stroke-width:5;stroke-miterlimit:10;}
	.st54{opacity:0.2;fill:none;stroke:#1E247E;stroke-width:5;stroke-linecap:round;stroke-miterlimit:10;}
	.st55{fill:none;stroke:#1E247E;stroke-width:2.5;stroke-linecap:round;stroke-linejoin:round;stroke-miterlimit:10;}
	.st56{fill:#69AEF8;stroke:#1E247E;stroke-width:6;stroke-miterlimit:10;}
	.st57{fill:#DBE7FE;}
	.st58{fill:#FFFFFF;stroke:#1E247E;stroke-width:6;stroke-miterlimit:10;}
	.st59{fill:#D9857D;stroke:#1E247E;stroke-width:5;stroke-miterlimit:10;}
	.st60{fill:none;stroke:#D3D5E7;stroke-width:4.7904;stroke-linecap:round;stroke-miterlimit:10;}
	.st61{fill:#D2D4E6;stroke:#D3D5E7;stroke-width:4.7904;stroke-linecap:round;stroke-miterlimit:10;}
	.st62{fill:#D2D4E6;stroke:#D3D5E7;stroke-width:5.5;stroke-linecap:round;stroke-miterlimit:10;}
	.st63{fill:none;stroke:#D3D5E7;stroke-width:5.5;stroke-linecap:round;stroke-miterlimit:10;}
	.st64{fill:#79CAA1;}
	.st65{fill:#F0C330;}
	.st66{fill:#79CAA1;stroke:#1E247E;stroke-width:6;stroke-miterlimit:10;}
	.st67{opacity:0.8;fill:#FFFFFF;}
	.st68{fill:#DA867D;stroke:#1E247E;stroke-width:6;stroke-miterlimit:10;}
	.st69{fill:#F0C330;stroke:#1E247E;stroke-width:5;stroke-miterlimit:10;}
	.st70{fill:#D2D4E6;}
	.st71{fill:#EEBDBC;stroke:#D3D5E7;stroke-width:5.5;stroke-linecap:round;stroke-miterlimit:10;}
	.st72{fill:#D3D5E7;stroke:#D3D5E7;stroke-width:5.5;stroke-linecap:round;stroke-miterlimit:10;}
</style><g><g id="Start_Up"><circle class="st0" cx="254.8" cy="255.7" id="Background_21_" r="215.6"/><g id="Clouds_4_"><g><g><g><path class="st14" d="M195.9,142.7c0,11.8-9.6,21.4-21.4,21.4H86.7c-9.4,0-17-7.6-17-17c0-0.6,0-1.1,0.1-1.7         c0-0.4,0.1-0.8,0.2-1.2c1.2-6.8,6.4-12.3,13.1-13.7c1.2-0.3,2.4-0.4,3.6-0.4c0.1,0,0.1,0,0.2,0c-0.1-0.9-0.2-1.9-0.2-2.9         c0-1.6,0.2-3.1,0.4-4.6c2.1-10.8,11.6-18.9,23-18.9c1.5,0,3,0.1,4.4,0.4c3.3-10,11-17.9,20.9-21.5c3.1-1.1,6.4-1.8,9.8-1.9         c0.6,0,1.1,0,1.7,0c0.1,0,0.2,0,0.2,0c18.6,0.1,33.7,15.3,33.7,34c0,2.5-0.3,4.9-0.8,7.2         C189.2,124.5,195.9,132.8,195.9,142.7z"/></g></g><path class="st15" d="M180.5,132.4c0,10.8-8.8,19.6-19.6,19.6H80.8c-8.6,0-15.5-6.9-15.5-15.5c0-0.5,0-1,0.1-1.6       c0-0.4,0.1-0.7,0.1-1.1c1.1-6.2,5.8-11.2,12-12.5c1.1-0.2,2.2-0.4,3.3-0.4c0.1,0,0.1,0,0.2,0c-0.1-0.9-0.2-1.7-0.2-2.6       c0-1.4,0.1-2.8,0.4-4.2c1.9-9.9,10.6-17.3,21-17.3c1.4,0,2.7,0.1,4,0.4c3-9.1,10.1-16.4,19.1-19.6c2.8-1,5.8-1.6,8.9-1.8       c0.5,0,1,0,1.5,0c0.1,0,0.1,0,0.2,0c17,0.1,30.8,14,30.8,31c0,2.3-0.2,4.5-0.7,6.6C174.4,115.7,180.5,123.3,180.5,132.4z"/><path class="st15" d="M166.7,106.4c0,8.9-3.7,16.9-9.7,22.6"/><path class="st47" d="M101.6,96.7c9.8,0,18.1,6.8,20.3,15.9"/></g><g><g><g><path class="st14" d="M473.3,255.9c0,11.8-9.6,21.4-21.4,21.4h-87.7c-9.4,0-17-7.6-17-17c0-0.6,0-1.1,0.1-1.7         c0-0.4,0.1-0.8,0.2-1.2c1.2-6.8,6.4-12.3,13.1-13.7c1.2-0.3,2.4-0.4,3.6-0.4c0.1,0,0.1,0,0.2,0c-0.1-0.9-0.2-1.9-0.2-2.9         c0-1.6,0.2-3.1,0.4-4.6c2.1-10.8,11.6-18.9,23-18.9c1.5,0,3,0.1,4.4,0.4c3.3-10,11-17.9,20.9-21.5c3.1-1.1,6.4-1.8,9.8-1.9         c0.6,0,1.1,0,1.7,0c0.1,0,0.2,0,0.2,0c18.6,0.1,33.7,15.3,33.7,34c0,2.5-0.3,4.9-0.8,7.2C466.6,237.7,473.3,246,473.3,255.9z         "/></g></g><path class="st15" d="M457.2,246.1c0,10.8-8.8,19.6-19.6,19.6h-80.1c-8.6,0-15.5-6.9-15.5-15.5c0-0.5,0-1,0.1-1.6       c0-0.4,0.1-0.7,0.1-1.1c1.1-6.2,5.8-11.2,12-12.5c1.1-0.2,2.2-0.4,3.3-0.4c0.1,0,0.1,0,0.2,0c-0.1-0.9-0.2-1.7-0.2-2.6       c0-1.4,0.1-2.8,0.4-4.2c1.9-9.9,10.6-17.3,21-17.3c1.4,0,2.7,0.1,4,0.4c3-9.1,10.1-16.4,19.1-19.6c2.8-1,5.8-1.6,8.9-1.8       c0.5,0,1,0,1.5,0c0.1,0,0.1,0,0.2,0c17,0.1,30.8,14,30.8,31c0,2.3-0.2,4.5-0.7,6.6C451.1,229.5,457.2,237.1,457.2,246.1z"/><path class="st15" d="M443.4,220.2c0,8.9-3.7,16.9-9.7,22.6"/><path class="st47" d="M378.3,210.5c9.8,0,18.1,6.8,20.3,15.9"/></g></g><g id="Rocket"><g id="Sound_2_"><path class="st47" d="M224.4,424.8l-11.5,13.6c-0.1,0.1,0,0.4,0.2,0.4l15.7,1.4c0.1,0,0.1,0.1,0,0.1l-11.5,10.8" id="Left_56_"/><path class="st54" d="M254.6,418.1l8.1,15.8c0.1,0.2-0.1,0.4-0.2,0.3l-15.6-2.2c-0.1,0-0.1,0.1-0.1,0.1       l8.7,13.1" id="Middle_60_"/><path class="st47" d="M282.1,438l8.1,15.8c0.1,0.2-0.1,0.4-0.2,0.3l-15.6-2.2c-0.1,0-0.1,0.1-0.1,0.1l8.7,13.1" id="Right_54_"/></g><path class="st14" d="M383.4,367.3h-50.9c0,0-3.8,12.5-17.7,11.5v14.6c0,5.7-4.6,10.3-10.3,10.3h-74.5      c-5.7,0-10.3-4.6-10.3-10.3v-14.6c-13.9,1-17.7-11.5-17.7-11.5h-50.9c-1.1,0-2-1-1.8-2.1l3.4-22.1c1.3-8.6,5-16.6,10.5-23.3      l34.1-40.5c3-3.6,4.7-8.1,4.7-12.8V211c0-23,6.1-45.6,17.7-65.4l24.3-41.7c10.4-17.8,36.1-17.8,46.5,0l24.3,41.7      c11.6,19.9,17.7,42.4,17.7,65.4v55.5c0,4.7,1.6,9.2,4.7,12.8l34.1,40.5c5.6,6.6,9.2,14.7,10.5,23.3l3.4,22.1      C385.4,366.3,384.5,367.3,383.4,367.3z" id="Shadow_62_"/><g id="Launch_tube"><path class="st41" d="M302.5,380v14.6c0,5.7-4.6,10.3-10.3,10.3h-74.5c-5.7,0-10.3-4.6-10.3-10.3V380H302.5z" id="Shape_90_"/><g id="Lines_38_"><line class="st55" id="Left_55_" x1="208.5" x2="221.9" y1="392.5" y2="392.5"/><line class="st55" id="Right_53_" x1="289.3" x2="302.8" y1="392.5" y2="392.5"/></g></g><g id="Body_13_"><path class="st40" d="M371.1,368.5h-50.9c0,0-3.8,12.5-17.7,11.5h-95.1c-13.9,1-17.7-11.5-17.7-11.5h-50.9       c-1.1,0-2-1-1.8-2.1l3.4-22.1c1.3-8.6,4.9-16.6,10.5-23.3l34.1-40.5c3-3.6,4.7-8.1,4.7-12.8v-55.5c0-23,6.1-45.6,17.7-65.4       l24.3-41.7c10.4-17.8,36.1-17.8,46.5,0l24.3,41.7c11.6,19.9,17.7,42.4,17.7,65.4v55.5c0,4.7,1.6,9.2,4.7,12.8L359,321       c5.6,6.6,9.2,14.7,10.5,23.3l3.4,22.1C373.1,367.5,372.2,368.5,371.1,368.5z" id="Shape_89_"/><g id="Windows_1_"><g id="Bottom_73_"><circle class="st50" cx="254.7" cy="281.6" id="Shape_88_" r="20.5"/></g><g id="Top_75_"><circle class="st50" cx="254.9" cy="215.8" id="Shape_87_" r="20.5"/></g></g><g id="Lines_37_"><line class="st25" x1="213.6" x2="232.1" y1="337.5" y2="351.7"/><line class="st25" x1="213.6" x2="222.8" y1="346.4" y2="353.4"/><line class="st25" x1="227" x2="232.1" y1="338.7" y2="342.6"/></g><g id="Vertical_line_6_"><line class="st55" id="Bottom_72_" x1="308.9" x2="308.9" y1="243.5" y2="248.9"/><line class="st55" id="Top_74_" x1="308.9" x2="308.9" y1="221.8" y2="239.1"/></g><path class="st55" d="M260.7,101.2c2.6,0.5,5.2,1.7,7.1,3.8" id="Top_line_6_"/><g id="Fins"><line class="st34" id="Left_54_" x1="189.7" x2="189.7" y1="368.5" y2="332"/><line class="st34" id="Right__x23_2" x1="319.7" x2="319.7" y1="368.5" y2="332"/><g id="Right__x23_1"><g><path class="st7" d="M319.7,321.5c3.9,0,3.9-6,0-6C315.8,315.5,315.8,321.5,319.7,321.5L319.7,321.5z"/></g></g></g></g><g id="Sparkles_22_"><line class="st24" id="_x33_rd_23_" x1="314.7" x2="306.3" y1="83.5" y2="86"/><line class="st24" id="_x32_nd_24_" x1="305.7" x2="299" y1="71.5" y2="78.6"/><line class="st24" id="_x31_st_24_" x1="290.4" x2="291.8" y1="72.5" y2="63.3"/></g></g></g></g></svg>