<?xml version="1.0" ?><!DOCTYPE svg  PUBLIC '-//W3C//DTD SVG 1.1//EN'  'http://www.w3.org/Graphics/SVG/1.1/DTD/svg11.dtd'><svg width="512px" height="512px" viewBox="0 0 512 512" id="Layer_1" style="enable-background:new 0 0 512 512;" version="1.1" xml:space="preserve" xmlns="http://www.w3.org/2000/svg" xmlns:xlink="http://www.w3.org/1999/xlink"><style type="text/css">
	.st0{fill:#EEEDF2;}
	.st1{fill:none;stroke:#1E247E;stroke-width:6;stroke-linecap:round;stroke-miterlimit:10;}
	.st2{fill:#EFC12F;stroke:#1E247E;stroke-width:6;stroke-linecap:round;stroke-miterlimit:10;}
	.st3{fill:none;stroke:#1E247E;stroke-width:3;stroke-linecap:round;stroke-miterlimit:10;}
	.st4{fill:#FFFFFF;stroke:#1E247E;stroke-width:3;stroke-linecap:round;stroke-miterlimit:10;}
	.st5{fill:#FCF5F2;stroke:#1E247E;stroke-width:5;stroke-linecap:round;stroke-miterlimit:10;}
	.st6{fill:#FCF5F2;stroke:#1E247E;stroke-width:6;stroke-linecap:round;stroke-miterlimit:10;}
	.st7{fill:#1E247E;}
	.st8{fill:none;stroke:#1E247E;stroke-width:4;stroke-linecap:round;stroke-miterlimit:10;}
	.st9{fill:#EAB8B1;}
	.st10{fill:#DC9695;stroke:#1E247E;stroke-width:4;stroke-linecap:round;stroke-miterlimit:10;}
	.st11{fill:#EECED1;stroke:#1E247E;stroke-width:3;stroke-linecap:round;stroke-miterlimit:10;}
	.st12{fill:#CB7272;stroke:#1E247E;stroke-width:3;stroke-linecap:round;stroke-miterlimit:10;}
	.st13{fill:#D3D5E7;stroke:#1E247E;stroke-width:6;stroke-linecap:round;stroke-miterlimit:10;}
	.st14{fill:#D3D5E7;}
	.st15{fill:#FFFFFF;stroke:#1E247E;stroke-width:5;stroke-linecap:round;stroke-miterlimit:10;}
	.st16{fill:#FFFFFF;stroke:#1E247E;stroke-width:4;stroke-linecap:round;stroke-miterlimit:10;}
	.st17{fill:#ECECEE;}
	.st18{fill:#DA867D;stroke:#1E247E;stroke-width:4;stroke-linecap:round;stroke-miterlimit:10;}
	.st19{fill:#FCF5F2;stroke:#1E247E;stroke-width:4;stroke-linecap:round;stroke-miterlimit:10;}
	.st20{fill:#69AEF8;stroke:#1E247E;stroke-width:6;stroke-linecap:round;stroke-miterlimit:10;}
	.st21{opacity:0.4;fill:#FFFFFF;}
	.st22{opacity:0.7;fill:#FFFFFF;}
	.st23{fill:#69ADF7;stroke:#1E247E;stroke-width:2.5;stroke-linecap:round;stroke-miterlimit:10;}
	.st24{fill:none;stroke:#FFFFFF;stroke-width:7;stroke-linecap:round;stroke-miterlimit:10;}
	.st25{fill:#FFFFFF;stroke:#1E247E;stroke-width:6;stroke-linecap:round;stroke-miterlimit:10;}
	.st26{fill:#DBE7FE;}
	.st27{fill:#D3D5E7;stroke:#1E247E;stroke-width:5;stroke-linecap:round;stroke-miterlimit:10;}
	.st28{fill:#DD9796;stroke:#1E247E;stroke-width:3;stroke-linecap:round;stroke-miterlimit:10;}
	.st29{fill:#EECED1;stroke:#1E247E;stroke-width:2.5;stroke-linecap:round;stroke-miterlimit:10;}
	.st30{fill:#CB7272;stroke:#1E247E;stroke-width:2.5;stroke-linecap:round;stroke-miterlimit:10;}
	.st31{fill:#DBE7FE;stroke:#1E247E;stroke-width:5;stroke-linecap:round;stroke-miterlimit:10;}
	.st32{fill:#69AEF8;stroke:#1E247E;stroke-width:5;stroke-linecap:round;stroke-miterlimit:10;}
	.st33{fill:#DAE6FD;stroke:#1E247E;stroke-width:6;stroke-miterlimit:10;}
	.st34{fill:#FFFFFF;stroke:#1E247E;stroke-width:6;stroke-miterlimit:10;}
	.st35{opacity:0.69;fill:#FFFFFF;}
	.st36{opacity:0.95;fill:#FFFFFF;}
	.st37{fill:#DA867D;stroke:#1E247E;stroke-width:6;stroke-linecap:round;stroke-miterlimit:10;}
	.st38{fill:#F0C330;stroke:#1E247E;stroke-width:6;stroke-linecap:round;stroke-miterlimit:10;}
	.st39{fill:#1E247E;stroke:#1E247E;stroke-width:3;stroke-linecap:round;stroke-miterlimit:10;}
	.st40{fill:#FFFFFF;}
	.st41{fill:#DBE7FE;stroke:#1E247E;stroke-width:6;stroke-linecap:round;stroke-miterlimit:10;}
	.st42{fill:#F1F6FF;}
	.st43{fill:#F0C330;stroke:#1E247E;stroke-width:5;stroke-linecap:round;stroke-miterlimit:10;}
	.st44{fill:none;stroke:#1E247E;stroke-width:5;stroke-linecap:round;stroke-miterlimit:10;}
	.st45{fill:#79CAA1;stroke:#1E247E;stroke-width:5;stroke-linecap:round;stroke-miterlimit:10;}
	.st46{fill:#E09287;stroke:#1E247E;stroke-width:5;stroke-linecap:round;stroke-miterlimit:10;}
	.st47{fill:#DA867D;stroke:#1E247E;stroke-width:5;stroke-linecap:round;stroke-miterlimit:10;}
	.st48{fill:#69AEF8;stroke:#1E247E;stroke-width:5;stroke-miterlimit:10;}
	.st49{fill:#D2D4E6;stroke:#1E247E;stroke-width:5;stroke-linecap:round;stroke-miterlimit:10;}
	.st50{fill:#79CAA1;stroke:#1E247E;stroke-width:5;stroke-miterlimit:10;}
	.st51{fill:#F0C330;stroke:#1E247E;stroke-width:6;stroke-miterlimit:10;}
	.st52{fill:#EEEDF2;stroke:#FFFFFF;stroke-miterlimit:10;}
	.st53{opacity:0.3;fill:#A2655F;}
	.st54{fill:#79CAA1;stroke:#1E247E;stroke-width:4;stroke-linecap:round;stroke-miterlimit:10;}
	.st55{fill:#F0C330;stroke:#1E247E;stroke-width:4.5;stroke-linecap:round;stroke-miterlimit:10;}
	.st56{fill:#D2D4E6;}
	.st57{fill:#FFFFFF;stroke:#1E247E;stroke-width:5.7826;stroke-linejoin:round;stroke-miterlimit:10;}
	.st58{fill:#DA867D;stroke:#1E247E;stroke-width:5.7826;stroke-linejoin:round;stroke-miterlimit:10;}
	.st59{fill:none;stroke:#1E247E;stroke-width:2.8913;stroke-linecap:round;stroke-linejoin:round;stroke-miterlimit:10;}
	.st60{fill:none;stroke:#1E247E;stroke-width:2.4094;stroke-linecap:round;stroke-miterlimit:10;}
	.st61{fill:#EBEBED;}
	.st62{fill:#FBF2ED;stroke:#1E247E;stroke-width:4.5;stroke-linecap:round;stroke-miterlimit:10;}
	.st63{fill:#D3D5E7;stroke:#1E247E;stroke-width:4.5;stroke-linecap:round;stroke-miterlimit:10;}
	.st64{fill:none;stroke:#1E247E;stroke-width:2.5;stroke-linecap:round;stroke-miterlimit:10;}
	.st65{fill:#DA867D;stroke:#1E247E;stroke-width:4.5;stroke-linecap:round;stroke-miterlimit:10;}
	.st66{fill:none;stroke:#FFFFFF;stroke-width:4;stroke-linecap:round;stroke-linejoin:round;stroke-miterlimit:10;}
	.st67{fill:none;stroke:#FFFFFF;stroke-width:3;stroke-linecap:round;stroke-miterlimit:10;}
	.st68{fill:#79CAA1;stroke:#1E247E;stroke-width:6;stroke-linecap:round;stroke-miterlimit:10;}
	.st69{opacity:0.3;fill:#FFFFFF;}
	.st70{fill:none;stroke:#FFFFFF;stroke-width:6;stroke-linecap:round;stroke-miterlimit:10;}
	.st71{fill:#DBE7FE;stroke:#1E247E;stroke-width:6;stroke-miterlimit:10;}
	.st72{fill:#DA867D;stroke:#1E247E;stroke-width:5;stroke-miterlimit:10;}
	.st73{fill:#F5F5F7;stroke:#1E247E;stroke-width:5;stroke-miterlimit:10;}
	.st74{fill:#D5D6DE;stroke:#1E247E;stroke-width:5;stroke-miterlimit:10;}
	.st75{fill:#D3D5E7;stroke:#1E247E;stroke-width:3;stroke-linecap:round;stroke-miterlimit:10;}
	.st76{fill:#79CAA1;}
	.st77{fill:none;stroke:#1E247E;stroke-width:2.7;stroke-linecap:round;stroke-miterlimit:10;}
	.st78{fill:#69AEF8;}
</style><g><g id="Devices"><circle class="st0" cx="256" cy="256.7" id="Background_9_" r="215.6"/><g id="Bottom_line_4_"><line class="st1" id="Bottom_line_7_" x1="445.6" x2="471.6" y1="472.3" y2="472.3"/><line class="st1" id="Bottom_line_6_" x1="67.2" x2="433.3" y1="472.3" y2="472.3"/><line class="st1" id="Bottom_line_5_" x1="40.4" x2="55.1" y1="472.3" y2="472.3"/></g><g id="Sparkles_4_"><line class="st24" id="Bottom_25_" x1="321.8" x2="313.5" y1="111.3" y2="113.7"/><line class="st24" id="Middle_23_" x1="312.9" x2="306.1" y1="99.2" y2="106.3"/><line class="st24" id="Top_26_" x1="297.5" x2="299" y1="100.3" y2="91.1"/></g><g id="Right_device"><path class="st14" d="M422.8,462h-76.6c-11.8,0-21.3-9.6-21.3-21.3V263.5c0-11.8,9.6-21.3,21.3-21.3h76.6      c11.8,0,21.3,9.6,21.3,21.3v177.2C444.1,452.5,434.6,462,422.8,462z" id="Shadow_29_"/><path class="st25" d="M409.5,472.3h-76.6c-11.8,0-21.3-9.6-21.3-21.3V273.8c0-11.8,9.6-21.3,21.3-21.3h76.6      c11.8,0,21.3,9.6,21.3,21.3V451C430.8,462.8,421.3,472.3,409.5,472.3z" id="Shape_42_"/><line class="st4" id="Speaker_2_" x1="367" x2="374.7" y1="264.1" y2="264.1"/><circle class="st75" cx="372.3" cy="457.2" id="Button_1_" r="5.5"/><g id="Screen_2_"><rect class="st76" height="173.9" id="Shape_41_" width="94.2" x="324.1" y="271.7"/><g id="Content_7_"><path class="st22" d="M379.1,354.6h-38.8c-0.8,0-1.5-0.7-1.5-1.5v-22.5c0-0.8,0.7-1.5,1.5-1.5h38.8        c0.8,0,1.5,0.7,1.5,1.5v22.5C380.5,353.9,379.9,354.6,379.1,354.6z" id="_x32_nd_8_"/><path class="st22" d="M379.1,322.7h-38.8c-0.8,0-1.5-0.7-1.5-1.5v-22.5c0-0.8,0.7-1.5,1.5-1.5h38.8        c0.8,0,1.5,0.7,1.5,1.5v22.5C380.5,322,379.9,322.7,379.1,322.7z" id="_x31_st_8_"/></g><g id="Lines_16_"><line class="st23" id="Bottom_24_" x1="348.3" x2="356.2" y1="404.7" y2="410.8"/><line class="st23" id="Middle_22_" x1="348.3" x2="364.2" y1="397.1" y2="409.3"/><line class="st23" id="Top_25_" x1="359.8" x2="364.2" y1="398.2" y2="401.5"/></g></g></g><g id="Left_device"><path class="st14" d="M274.2,460.7H115.3c-16.3,0-29.7-13.4-29.7-29.7V144.2c0-16.3,13.4-29.7,29.7-29.7h158.9      c16.3,0,29.7,13.4,29.7,29.7V431C303.9,447.4,290.5,460.7,274.2,460.7z" id="Shadow_27_"/><path class="st25" d="M259.2,472.3H100.3c-16.3,0-29.7-13.4-29.7-29.7V155.8c0-16.3,13.4-29.7,29.7-29.7h158.9      c16.3,0,29.7,13.4,29.7,29.7v286.8C288.9,459,275.5,472.3,259.2,472.3z" id="Shape_40_"/><line class="st3" id="Speaker_1_" x1="167" x2="192.5" y1="144.3" y2="144.3"/><circle class="st75" cx="179.7" cy="448.7" id="Button" r="10.2"/><path class="st77" d="M267.5,139.8c4.8,1,8.6,5.2,9,10.2" id="Line_11_"/><g id="Screen_1_"><rect class="st78" height="269" id="Shape_39_" width="178.8" x="90.4" y="157.9"/><g id="Content_6_"><path class="st22" d="M241.1,403.8h-79.3c-2.3,0-4.2-1.9-4.2-4.2V282.1c0-2.3,1.9-4.2,4.2-4.2h79.3        c2.3,0,4.2,1.9,4.2,4.2v117.6C245.3,402,243.4,403.8,241.1,403.8z" id="_x33_rd_7_"/><path class="st22" d="M148.7,403.8h-38.3c-1.6,0-2.9-1.3-2.9-2.9v-120c0-1.6,1.3-2.9,2.9-2.9h38.3        c1.6,0,2.9,1.3,2.9,2.9v120C151.7,402.5,150.4,403.8,148.7,403.8z" id="_x32_nd_7_"/><path class="st22" d="M198.6,261.6h-88.2c-1.6,0-2.9-1.3-2.9-2.9v-51.6c0-1.6,1.3-2.9,2.9-2.9h88.2        c1.6,0,2.9,1.3,2.9,2.9v51.6C201.5,260.3,200.2,261.6,198.6,261.6z" id="_x31_st_7_"/></g><g id="Lines_15_"><line class="st23" id="Bottom_23_" x1="137.1" x2="146" y1="233.8" y2="240.7"/><line class="st23" id="Middle_21_" x1="137.1" x2="155" y1="225.2" y2="238.9"/><line class="st23" id="Top_24_" x1="150" x2="155" y1="226.4" y2="230.2"/></g></g></g></g></g></svg>