<?xml version="1.0" ?><!DOCTYPE svg  PUBLIC '-//W3C//DTD SVG 1.1//EN'  'http://www.w3.org/Graphics/SVG/1.1/DTD/svg11.dtd'><svg width="512px" height="512px" viewBox="0 0 512 512" id="Layer_1" style="enable-background:new 0 0 512 512;" version="1.1" xml:space="preserve" xmlns="http://www.w3.org/2000/svg" xmlns:xlink="http://www.w3.org/1999/xlink"><style type="text/css">
	.st0{fill:#EEEDF2;}
	.st1{fill:#D3D5E7;}
	.st2{fill:#FFFFFF;stroke:#1E247E;stroke-width:6;stroke-linecap:round;stroke-miterlimit:10;}
	.st3{fill:#DA867D;stroke:#1E247E;stroke-width:6;stroke-linecap:round;stroke-miterlimit:10;}
	.st4{fill:none;stroke:#1E247E;stroke-width:3;stroke-linecap:round;stroke-miterlimit:10;}
	.st5{fill:none;stroke:#1E247E;stroke-width:2.5;stroke-linecap:round;stroke-miterlimit:10;}
	.st6{fill:#F0C330;stroke:#1E247E;stroke-width:6;stroke-linecap:round;stroke-miterlimit:10;}
	.st7{fill:none;stroke:#1E247E;stroke-width:2;stroke-linecap:round;stroke-miterlimit:10;}
	.st8{fill:#DBE7FE;stroke:#1E247E;stroke-width:6;stroke-linecap:round;stroke-miterlimit:10;}
	.st9{fill:none;stroke:#1E247E;stroke-width:6;stroke-linecap:round;stroke-miterlimit:10;}
	.st10{fill:#1E247E;stroke:#1E247E;stroke-width:4;stroke-linecap:round;stroke-miterlimit:10;}
	.st11{fill:none;stroke:#FFFFFF;stroke-width:7;stroke-linecap:round;stroke-miterlimit:10;}
	.st12{fill:#FFFFFF;stroke:#1E247E;stroke-width:6;stroke-linecap:round;stroke-linejoin:round;stroke-miterlimit:10;}
	.st13{fill:#69ADF7;stroke:#1E247E;stroke-width:2.5;stroke-linecap:round;stroke-miterlimit:10;}
	.st14{fill:none;stroke:#1E247E;stroke-width:3;stroke-linecap:round;stroke-linejoin:round;stroke-miterlimit:10;}
	.st15{fill:#FFFFFF;}
	.st16{fill:#F0C330;stroke:#1E247E;stroke-width:6;stroke-miterlimit:10;}
	.st17{fill:#DA867D;stroke:#1E247E;stroke-width:6;stroke-miterlimit:10;}
	.st18{fill:none;stroke:#1E247E;stroke-width:5;stroke-linecap:round;stroke-miterlimit:10;}
	.st19{fill:none;stroke:#D3D5E7;stroke-width:6;stroke-linecap:round;stroke-miterlimit:10;}
	.st20{fill:none;stroke:#D2D4E6;stroke-width:6;stroke-linecap:round;stroke-miterlimit:10;}
	.st21{fill:#EFC230;stroke:#D3D5E7;stroke-width:6;stroke-linecap:round;stroke-miterlimit:10;}
	.st22{fill:#FFFFFF;stroke:#1E247E;stroke-width:6;stroke-miterlimit:10;}
	.st23{fill:none;stroke:#1E247E;stroke-width:4;stroke-linecap:round;stroke-miterlimit:10;}
	.st24{fill:#EFC230;stroke:#1E247E;stroke-width:6;stroke-linecap:round;stroke-miterlimit:10;}
	.st25{fill:#69AEF8;stroke:#1E247E;stroke-width:6;stroke-miterlimit:10;}
	.st26{fill:#FFFFFF;stroke:#1E247E;stroke-width:5;stroke-linecap:round;stroke-miterlimit:10;}
	.st27{fill:#1E247E;}
	.st28{fill:#F0C330;}
	.st29{fill:#DA867D;stroke:#1E247E;stroke-width:5.5;stroke-linecap:round;stroke-miterlimit:10;}
	.st30{fill:#D3D5E7;stroke:#1E247E;stroke-width:5.5;stroke-linecap:round;stroke-miterlimit:10;}
	.st31{fill:#69AEF8;}
	.st32{fill:#D3D5E7;stroke:#1E247E;stroke-width:6;stroke-linejoin:round;stroke-miterlimit:10;}
	.st33{fill:#FCF5F2;stroke:#1E247E;stroke-width:6;stroke-linejoin:round;stroke-miterlimit:10;}
	.st34{fill:#DA867D;stroke:#1E247E;stroke-width:6;stroke-linejoin:round;stroke-miterlimit:10;}
	.st35{fill:#DA867D;}
	.st36{fill:#69AEF8;stroke:#1E247E;stroke-width:6;stroke-linecap:round;stroke-linejoin:round;stroke-miterlimit:10;}
	.st37{fill:#1E247E;stroke:#1E247E;stroke-width:6;stroke-linecap:round;stroke-linejoin:round;stroke-miterlimit:10;}
	.st38{fill:#DBE7FE;stroke:#1E247E;stroke-width:6;stroke-linejoin:round;stroke-miterlimit:10;}
	.st39{fill:#F0C330;stroke:#1E247E;stroke-width:6;stroke-linejoin:round;stroke-miterlimit:10;}
	.st40{fill:none;stroke:#FFFFFF;stroke-width:6;stroke-linecap:round;stroke-linejoin:round;stroke-miterlimit:10;}
	.st41{fill:none;stroke:#1E247E;stroke-width:6;stroke-linecap:round;stroke-linejoin:round;stroke-miterlimit:10;}
</style><g><g id="Heart_1_"><circle class="st0" cx="255.4" cy="258.2" id="Background_16_" r="215.6"/><g id="Box"><path class="st1" d="M441,170.3V372c0,14.9-12,26.9-26.9,26.9h-95.5c-2.2,0-4.4,0.9-5.9,2.6L275.5,442      c-1.7,1.8-4.6,1.8-6.3,0L232,401.5c-1.5-1.6-3.7-2.6-5.9-2.6h-95.5c-14.9,0-26.9-12-26.9-26.9V170.3c0-14.9,12-26.9,26.9-26.9      h283.6C429,143.4,441,155.4,441,170.3z" id="Shadow_47_"/><g id="Shape_62_"><path class="st22" d="M424.2,156.4v201.7c0,14.9-12,26.9-26.9,26.9h-95.5c-2.2,0-4.4,0.9-5.9,2.6l-37.2,40.5       c-1.7,1.8-4.6,1.8-6.3,0l-37.2-40.5c-1.5-1.6-3.7-2.6-5.9-2.6h-95.5c-14.9,0-26.9-12-26.9-26.9V156.4c0-14.9,12-26.9,26.9-26.9       h283.6C412.1,129.5,424.2,141.5,424.2,156.4z"/></g><g id="Lines_28_"><line class="st5" id="Bottom_45_" x1="121" x2="128.8" y1="169.3" y2="175.4"/><line class="st5" id="Middle_45_" x1="121" x2="136.7" y1="161.8" y2="173.9"/><line class="st5" id="Top_47_" x1="132.4" x2="136.7" y1="162.9" y2="166.2"/></g><g id="Vertical_line_2_"><line class="st4" id="Bottom_44_" x1="98.2" x2="98.2" y1="347.8" y2="323.9"/><line class="st4" id="Top_46_" x1="98.2" x2="98.2" y1="316.8" y2="307.5"/></g><line class="st4" id="Line:_middle" x1="277.5" x2="267.2" y1="391.5" y2="402.6"/><path class="st4" d="M410,362.3c0,6.1-5,11.1-11.1,11.1" id="Line:_bottom_right_1_"/><path class="st4" d="M401.2,143.4c6.1,0,11.1,5,11.1,11.1" id="Line:_top_right_1_"/></g><g id="Heart"><g id="Shape_61_"><path class="st35" d="M255.5,353.5c-0.5,0-0.9-0.1-1.3-0.4c-11.5-7.7-69.7-47.6-84.2-77.9c-14.6-30.6-6.1-52.3,3.5-65.2       c5.8-7.7,21.7-20.8,44.7-20.8c1.5,0,3.1,0.1,4.6,0.2c12.7,1,23.7,8,30.7,13.8c0.6,0.5,1.2,0.7,1.9,0.7c0.7,0,1.4-0.2,1.9-0.7       c7-5.8,18-12.8,30.7-13.8c1.5-0.1,3.1-0.2,4.6-0.2c23,0,38.9,13.1,44.7,20.8c9.7,12.9,18.1,34.6,3.5,65.2       c-14.4,30.3-72.6,70.2-84.1,77.9C256.4,353.3,256,353.5,255.5,353.5z"/><path class="st27" d="M292.7,192.2c21.8,0,36.9,12.3,42.3,19.6c13.1,17.5,14.2,39,3.2,62.1c-14,29.3-70.5,68.2-82.7,76.4       c-12.3-8.2-68.8-47.2-82.7-76.4c-11-23.1-9.9-44.6,3.2-62.1c7.1-9.4,23.3-19.6,42.3-19.6c1.4,0,2.9,0.1,4.4,0.2       c11.9,0.9,22.3,7.6,29,13.1c1.1,0.9,2.5,1.4,3.8,1.4c1.4,0,2.7-0.5,3.8-1.4c6.7-5.5,17.1-12.2,29-13.1       C289.8,192.2,291.3,192.2,292.7,192.2C292.7,192.2,292.7,192.2,292.7,192.2 M292.7,186.2c-1.6,0-3.2,0.1-4.8,0.2       c-13.2,1-24.5,8-32.4,14.5c-7.8-6.4-19.2-13.5-32.4-14.5c-1.6-0.1-3.2-0.2-4.8-0.2c-22.6,0-39.9,12.4-47.1,22       c-7.7,10.3-20.5,33.3-3.8,68.3c14.6,30.7,71.6,70,85.2,79.1c0.9,0.6,1.9,0.9,2.9,0.9c1,0,2.1-0.3,2.9-0.9       c13.6-9.1,70.6-48.4,85.2-79.1c16.7-35,3.8-58-3.8-68.3C332.6,198.6,315.3,186.2,292.7,186.2L292.7,186.2z"/></g><path class="st14" d="M308.4,202.6c8.1,1.7,14.2,6.4,17,10.2" id="Line_21_"/><g id="Lines_27_"><line class="st13" id="Bottom_43_" x1="231" x2="238.7" y1="283" y2="288.9"/><line class="st13" id="Middle_44_" x1="231" x2="246.4" y1="275.6" y2="287.5"/><line class="st13" id="Top_45_" x1="242.1" x2="246.4" y1="276.7" y2="279.9"/></g><g id="Sparkles_14_"><path class="st15" d="M222.2,246.9c-2.6-0.1-2.5-3-2.5-3c-0.1,3.2-2.7,3-2.7,3s2.7,0.3,2.7,3       C219.7,249.9,220,247.2,222.2,246.9" id="_x33_rd_11_"/><path class="st15" d="M224.3,230.8c-6.1-0.3-6-7.1-6-7.1c-0.2,7.5-6.3,7.1-6.3,7.1s6.3,0.6,6.3,6.9       C218.4,237.7,219.2,231.4,224.3,230.8" id="_x32_nd_12_"/><path class="st15" d="M212.1,242.8c-10.7-0.6-10.4-12.4-10.4-12.4c-0.3,13-11,12.4-11,12.4s11,1,11,12.1       C201.7,254.9,203.1,243.8,212.1,242.8" id="_x31_st_12_"/></g></g></g></g></svg>