<?xml version="1.0" ?><!DOCTYPE svg  PUBLIC '-//W3C//DTD SVG 1.1//EN'  'http://www.w3.org/Graphics/SVG/1.1/DTD/svg11.dtd'><svg width="512px" height="512px" viewBox="0 0 512 512" id="Layer_1" style="enable-background:new 0 0 512 512;" version="1.1" xml:space="preserve" xmlns="http://www.w3.org/2000/svg" xmlns:xlink="http://www.w3.org/1999/xlink"><style type="text/css">
	.st0{fill:#EEEDF2;}
	.st1{fill:#D3D5E7;}
	.st2{fill:#FFFFFF;stroke:#1E247E;stroke-width:6;stroke-linecap:round;stroke-miterlimit:10;}
	.st3{fill:#DA867D;stroke:#1E247E;stroke-width:6;stroke-linecap:round;stroke-miterlimit:10;}
	.st4{fill:none;stroke:#1E247E;stroke-width:3;stroke-linecap:round;stroke-miterlimit:10;}
	.st5{fill:none;stroke:#1E247E;stroke-width:2.5;stroke-linecap:round;stroke-miterlimit:10;}
	.st6{fill:#F0C330;stroke:#1E247E;stroke-width:6;stroke-linecap:round;stroke-miterlimit:10;}
	.st7{fill:none;stroke:#1E247E;stroke-width:2;stroke-linecap:round;stroke-miterlimit:10;}
	.st8{fill:#DBE7FE;stroke:#1E247E;stroke-width:6;stroke-linecap:round;stroke-miterlimit:10;}
	.st9{fill:none;stroke:#1E247E;stroke-width:6;stroke-linecap:round;stroke-miterlimit:10;}
	.st10{fill:#1E247E;stroke:#1E247E;stroke-width:4;stroke-linecap:round;stroke-miterlimit:10;}
	.st11{fill:none;stroke:#FFFFFF;stroke-width:7;stroke-linecap:round;stroke-miterlimit:10;}
	.st12{fill:#FFFFFF;stroke:#1E247E;stroke-width:6;stroke-linecap:round;stroke-linejoin:round;stroke-miterlimit:10;}
	.st13{fill:#69ADF7;stroke:#1E247E;stroke-width:2.5;stroke-linecap:round;stroke-miterlimit:10;}
	.st14{fill:none;stroke:#1E247E;stroke-width:3;stroke-linecap:round;stroke-linejoin:round;stroke-miterlimit:10;}
	.st15{fill:#FFFFFF;}
	.st16{fill:#F0C330;stroke:#1E247E;stroke-width:6;stroke-miterlimit:10;}
	.st17{fill:#DA867D;stroke:#1E247E;stroke-width:6;stroke-miterlimit:10;}
	.st18{fill:none;stroke:#1E247E;stroke-width:5;stroke-linecap:round;stroke-miterlimit:10;}
	.st19{fill:none;stroke:#D3D5E7;stroke-width:6;stroke-linecap:round;stroke-miterlimit:10;}
	.st20{fill:none;stroke:#D2D4E6;stroke-width:6;stroke-linecap:round;stroke-miterlimit:10;}
	.st21{fill:#EFC230;stroke:#D3D5E7;stroke-width:6;stroke-linecap:round;stroke-miterlimit:10;}
	.st22{fill:#FFFFFF;stroke:#1E247E;stroke-width:6;stroke-miterlimit:10;}
	.st23{fill:none;stroke:#1E247E;stroke-width:4;stroke-linecap:round;stroke-miterlimit:10;}
	.st24{fill:#EFC230;stroke:#1E247E;stroke-width:6;stroke-linecap:round;stroke-miterlimit:10;}
	.st25{fill:#69AEF8;stroke:#1E247E;stroke-width:6;stroke-miterlimit:10;}
	.st26{fill:#FFFFFF;stroke:#1E247E;stroke-width:5;stroke-linecap:round;stroke-miterlimit:10;}
	.st27{fill:#1E247E;}
	.st28{fill:#F0C330;}
	.st29{fill:#DA867D;stroke:#1E247E;stroke-width:5.5;stroke-linecap:round;stroke-miterlimit:10;}
	.st30{fill:#D3D5E7;stroke:#1E247E;stroke-width:5.5;stroke-linecap:round;stroke-miterlimit:10;}
	.st31{fill:#69AEF8;}
	.st32{fill:#D3D5E7;stroke:#1E247E;stroke-width:6;stroke-linejoin:round;stroke-miterlimit:10;}
	.st33{fill:#FCF5F2;stroke:#1E247E;stroke-width:6;stroke-linejoin:round;stroke-miterlimit:10;}
	.st34{fill:#DA867D;stroke:#1E247E;stroke-width:6;stroke-linejoin:round;stroke-miterlimit:10;}
	.st35{fill:#DA867D;}
	.st36{fill:#69AEF8;stroke:#1E247E;stroke-width:6;stroke-linecap:round;stroke-linejoin:round;stroke-miterlimit:10;}
	.st37{fill:#1E247E;stroke:#1E247E;stroke-width:6;stroke-linecap:round;stroke-linejoin:round;stroke-miterlimit:10;}
	.st38{fill:#DBE7FE;stroke:#1E247E;stroke-width:6;stroke-linejoin:round;stroke-miterlimit:10;}
	.st39{fill:#F0C330;stroke:#1E247E;stroke-width:6;stroke-linejoin:round;stroke-miterlimit:10;}
	.st40{fill:none;stroke:#FFFFFF;stroke-width:6;stroke-linecap:round;stroke-linejoin:round;stroke-miterlimit:10;}
	.st41{fill:none;stroke:#1E247E;stroke-width:6;stroke-linecap:round;stroke-linejoin:round;stroke-miterlimit:10;}
</style><g><g id="Face_ID"><circle class="st0" cx="256" cy="259.7" id="Backround" r="215.6"/><g id="Eye"><path class="st1" d="M417.3,259.1c0.2,0.3,0.2,0.8,0,1.1c-36.1,60.3-95,99.6-161.5,99.6c-66.2,0-124.5-38.3-160.7-98.2l0,0      c-0.7-1.2-0.7-2.8,0-3.9c36.2-59.5,94.7-98.2,160.7-98.2c66,0,123.8,37.2,160,96.7L417.3,259.1z"/><g id="Sparkles_15_"><line class="st11" id="Left_41_" x1="211.1" x2="203.8" y1="143.8" y2="137.9"/><line class="st11" id="Middle_47_" x1="217.7" x2="220.6" y1="129.9" y2="139.3"/><line class="st11" id="Right_40_" x1="232.6" x2="230.6" y1="128" y2="136.5"/></g><path class="st12" d="M397.2,259.3c0.2,0.2,0.2,0.6,0,0.8c-31.6,44.3-83.2,73.1-141.4,73.1      c-58,0-109-28.1-140.7-72l0,0c-0.6-0.9-0.6-2,0-2.9c31.7-43.7,82.9-72,140.7-72c57.8,0,108.4,27.3,140.1,70.9L397.2,259.3z" id="Shape_63_"/><path class="st14" d="M349,225.3c5,3,9.7,6.5,14,10.4" id="Line_22_"/><g id="Cornea"><circle class="st36" cx="256" cy="259.7" id="Iris" r="73.5"/><circle class="st37" cx="256" cy="259.7" id="Pupil" r="27"/><circle class="st15" cx="274.3" cy="232.7" id="Blink" r="18.3"/><g id="Vertical_line_3_"><path class="st14" d="M320,256.3c0.1,1,0.1,2,0.1,3.1c0,5.6-1.1,11-3.2,15.8" id="Bottom_51_"/><path class="st14" d="M317.7,245.7c0.6,1.7,1.1,3.4,1.5,5.2" id="Top_53_"/></g></g><g id="Lines_29_"><line class="st5" id="Bottom_50_" x1="149" x2="157" y1="260.3" y2="266.4"/><line class="st5" id="Middle_46_" x1="149" x2="165.1" y1="252.6" y2="264.9"/><line class="st5" id="Top_52_" x1="160.6" x2="165.1" y1="253.6" y2="257"/></g></g><g id="Corner_lines"><g id="Bottom_right"><path class="st9" d="M400,368.3c0,16.4-13.3,29.7-29.7,29.7" id="Bottom_49_"/><path class="st5" d="M389.1,373c0,7.4-6,13.4-13.4,13.4" id="Top_51_"/></g><g id="Top_right"><path class="st5" d="M388.8,145.9c0-7.4-6-13.4-13.4-13.4" id="Bottom_48_"/><path class="st9" d="M370.3,121.4c16.4,0,29.7,13.3,29.7,29.7" id="Top_50_"/></g><g id="Bottom_left"><path class="st9" d="M140.8,398c-16.4,0-29.7-13.3-29.7-29.7" id="Bottom_47_"/><path class="st5" d="M122.9,373c0,7.4,6,13.4,13.4,13.4" id="Top_49_"/></g><g id="Top_left"><path class="st5" d="M122.5,145.9c0-7.4,6-13.4,13.4-13.4" id="Bottom_46_"/><path class="st9" d="M111.1,151c0-16.4,13.3-29.7,29.7-29.7" id="Top_48_"/></g></g></g></g></svg>