<?xml version="1.0" ?><!DOCTYPE svg  PUBLIC '-//W3C//DTD SVG 1.1//EN'  'http://www.w3.org/Graphics/SVG/1.1/DTD/svg11.dtd'><svg width="512px" height="512px" viewBox="0 0 512 512" id="Layer_1" style="enable-background:new 0 0 512 512;" version="1.1" xml:space="preserve" xmlns="http://www.w3.org/2000/svg" xmlns:xlink="http://www.w3.org/1999/xlink"><style type="text/css">
	.st0{fill:#EEEDF2;}
	.st1{fill:#D3D5E7;}
	.st2{fill:#FFFFFF;stroke:#1E247E;stroke-width:6;stroke-linecap:round;stroke-miterlimit:10;}
	.st3{fill:#DA867D;stroke:#1E247E;stroke-width:6;stroke-linecap:round;stroke-miterlimit:10;}
	.st4{fill:none;stroke:#1E247E;stroke-width:3;stroke-linecap:round;stroke-miterlimit:10;}
	.st5{fill:none;stroke:#1E247E;stroke-width:2.5;stroke-linecap:round;stroke-miterlimit:10;}
	.st6{fill:#F0C330;stroke:#1E247E;stroke-width:6;stroke-linecap:round;stroke-miterlimit:10;}
	.st7{fill:none;stroke:#1E247E;stroke-width:2;stroke-linecap:round;stroke-miterlimit:10;}
	.st8{fill:#DBE7FE;stroke:#1E247E;stroke-width:6;stroke-linecap:round;stroke-miterlimit:10;}
	.st9{fill:none;stroke:#1E247E;stroke-width:6;stroke-linecap:round;stroke-miterlimit:10;}
	.st10{fill:#1E247E;stroke:#1E247E;stroke-width:4;stroke-linecap:round;stroke-miterlimit:10;}
	.st11{fill:none;stroke:#FFFFFF;stroke-width:7;stroke-linecap:round;stroke-miterlimit:10;}
	.st12{fill:#FFFFFF;stroke:#1E247E;stroke-width:6;stroke-linecap:round;stroke-linejoin:round;stroke-miterlimit:10;}
	.st13{fill:#69ADF7;stroke:#1E247E;stroke-width:2.5;stroke-linecap:round;stroke-miterlimit:10;}
	.st14{fill:none;stroke:#1E247E;stroke-width:3;stroke-linecap:round;stroke-linejoin:round;stroke-miterlimit:10;}
	.st15{fill:#FFFFFF;}
	.st16{fill:#F0C330;stroke:#1E247E;stroke-width:6;stroke-miterlimit:10;}
	.st17{fill:#DA867D;stroke:#1E247E;stroke-width:6;stroke-miterlimit:10;}
	.st18{fill:none;stroke:#1E247E;stroke-width:5;stroke-linecap:round;stroke-miterlimit:10;}
	.st19{fill:none;stroke:#D3D5E7;stroke-width:6;stroke-linecap:round;stroke-miterlimit:10;}
	.st20{fill:none;stroke:#D2D4E6;stroke-width:6;stroke-linecap:round;stroke-miterlimit:10;}
	.st21{fill:#EFC230;stroke:#D3D5E7;stroke-width:6;stroke-linecap:round;stroke-miterlimit:10;}
	.st22{fill:#FFFFFF;stroke:#1E247E;stroke-width:6;stroke-miterlimit:10;}
	.st23{fill:none;stroke:#1E247E;stroke-width:4;stroke-linecap:round;stroke-miterlimit:10;}
	.st24{fill:#EFC230;stroke:#1E247E;stroke-width:6;stroke-linecap:round;stroke-miterlimit:10;}
	.st25{fill:#69AEF8;stroke:#1E247E;stroke-width:6;stroke-miterlimit:10;}
	.st26{fill:#FFFFFF;stroke:#1E247E;stroke-width:5;stroke-linecap:round;stroke-miterlimit:10;}
	.st27{fill:#1E247E;}
	.st28{fill:#F0C330;}
	.st29{fill:#DA867D;stroke:#1E247E;stroke-width:5.5;stroke-linecap:round;stroke-miterlimit:10;}
	.st30{fill:#D3D5E7;stroke:#1E247E;stroke-width:5.5;stroke-linecap:round;stroke-miterlimit:10;}
	.st31{fill:#69AEF8;}
	.st32{fill:#D3D5E7;stroke:#1E247E;stroke-width:6;stroke-linejoin:round;stroke-miterlimit:10;}
	.st33{fill:#FCF5F2;stroke:#1E247E;stroke-width:6;stroke-linejoin:round;stroke-miterlimit:10;}
	.st34{fill:#DA867D;stroke:#1E247E;stroke-width:6;stroke-linejoin:round;stroke-miterlimit:10;}
	.st35{fill:#DA867D;}
	.st36{fill:#69AEF8;stroke:#1E247E;stroke-width:6;stroke-linecap:round;stroke-linejoin:round;stroke-miterlimit:10;}
	.st37{fill:#1E247E;stroke:#1E247E;stroke-width:6;stroke-linecap:round;stroke-linejoin:round;stroke-miterlimit:10;}
	.st38{fill:#DBE7FE;stroke:#1E247E;stroke-width:6;stroke-linejoin:round;stroke-miterlimit:10;}
	.st39{fill:#F0C330;stroke:#1E247E;stroke-width:6;stroke-linejoin:round;stroke-miterlimit:10;}
	.st40{fill:none;stroke:#FFFFFF;stroke-width:6;stroke-linecap:round;stroke-linejoin:round;stroke-miterlimit:10;}
	.st41{fill:none;stroke:#1E247E;stroke-width:6;stroke-linecap:round;stroke-linejoin:round;stroke-miterlimit:10;}
</style><g><g id="Graph"><circle class="st0" cx="253.4" cy="258.7" id="Background_17_" r="215.6"/><g id="Sparkles_16_"><path class="st15" d="M196.9,206.7c-13.3-0.7-12.9-15.4-12.9-15.4c-0.4,16.2-13.6,15.4-13.6,15.4      s13.6,1.3,13.6,15C183.9,221.8,185.6,208,196.9,206.7" id="_x33_rd_12_"/><path class="st15" d="M204.2,164.6c-7.3-0.4-7.1-8.5-7.1-8.5c-0.2,8.9-7.5,8.5-7.5,8.5s7.5,0.7,7.5,8.3      C197.1,172.9,198,165.3,204.2,164.6" id="_x32_nd_13_"/><path class="st15" d="M166.8,173.5c-21.2-1.1-20.7-24.7-20.7-24.7c-0.6,25.9-21.8,24.7-21.8,24.7      s21.8,2.1,21.8,24C146.2,197.6,148.9,175.6,166.8,173.5" id="_x31_st_13_"/></g><g id="Chart_1_"><g id="Arrows_4_"><g><path class="st1" d="M280.7,330.5h9.3v139.7h47.9V330.5h9.3L314.7,290c-0.4-0.4-1-0.4-1.4,0L280.7,330.5z"/><polygon class="st38" points="268.5,330.1 277.7,330.1 277.7,469.7 325.7,469.7 325.7,330.1 334.9,330.1 301.7,288.7               "/><g id="Lines_30_"><line class="st5" id="Bottom_54_" x1="293.7" x2="301.7" y1="400.9" y2="407.1"/><line class="st5" id="Middle_48_" x1="293.7" x2="309.7" y1="393.2" y2="405.5"/><line class="st5" id="Top_56_" x1="305.3" x2="309.7" y1="394.3" y2="397.7"/></g></g><g><path class="st1" d="M131,418.8h9.3v52.1h47.9v-52.1h9.3L165,378.2c-0.4-0.4-1-0.4-1.4,0L131,418.8z"/><polygon class="st39" points="118.8,418.3 128,418.3 128,470.4 176,470.4 176,418.3 185.2,418.3 152,376.9       "/><line class="st4" x1="158.3" x2="176.6" y1="457.7" y2="457.7"/></g><g><path class="st1" d="M356.7,290.2h9.2v180h47.9v-180h9.3l-32.5-40.5c-0.4-0.4-1-0.4-1.4,0L356.7,290.2z"/><polygon class="st34" points="344.4,289.8 353.7,289.8 353.7,469.7 401.6,469.7 401.6,289.8 410.9,289.8 377.7,248.4               "/><line class="st4" x1="383" x2="401.6" y1="457.7" y2="457.7"/><line class="st4" x1="374.7" x2="377.7" y1="457.7" y2="457.7"/></g><g><path class="st1" d="M205.5,370.1h9.3v100.8h47.9V370.1h9.3l-32.5-40.5c-0.4-0.4-1-0.4-1.4,0L205.5,370.1z"/><polygon class="st32" points="193.2,369.7 202.4,369.7 202.4,470.4 250.4,470.4 250.4,369.7 259.7,369.7 226.4,328.3               "/><line class="st4" x1="203.4" x2="215.3" y1="396" y2="396"/></g></g><g id="Arrow"><g id="Bottom_52_"><line class="st40" id="Bottom_53_" x1="141.7" x2="124.4" y1="344.1" y2="356"/><line class="st40" id="Top_55_" x1="373.9" x2="157.7" y1="184.4" y2="333.1"/></g><polyline class="st40" id="Top_54_" points="358.8,183.1 377.3,182 369.7,198.9      "/></g><g id="XY"><path class="st41" d="M444.7,470.8H85.3c-2.2,0-3.9-1.8-3.9-3.9V200.1"/><line class="st41" x1="468.1" x2="455.9" y1="470.8" y2="470.8"/><polyline class="st41" points="90.9,208 81.3,192.2 71.7,208      "/><g><line class="st41" x1="71.7" x2="90.9" y1="246.3" y2="246.3"/><line class="st41" x1="71.7" x2="90.9" y1="275.6" y2="275.6"/><line class="st41" x1="71.7" x2="90.9" y1="304.8" y2="304.8"/><line class="st41" x1="71.7" x2="90.9" y1="334.1" y2="334.1"/><line class="st41" x1="71.7" x2="90.9" y1="366.8" y2="366.8"/><line class="st41" x1="71.7" x2="90.9" y1="396" y2="396"/></g></g></g></g></g></svg>