<?xml version="1.0" ?><!DOCTYPE svg  PUBLIC '-//W3C//DTD SVG 1.1//EN'  'http://www.w3.org/Graphics/SVG/1.1/DTD/svg11.dtd'><svg width="512px" height="512px" viewBox="0 0 512 512" id="Layer_1" style="enable-background:new 0 0 512 512;" version="1.1" xml:space="preserve" xmlns="http://www.w3.org/2000/svg" xmlns:xlink="http://www.w3.org/1999/xlink"><style type="text/css">
	.st0{fill:#EEEDF2;}
	.st1{fill:none;stroke:#1E247E;stroke-width:6;stroke-linecap:round;stroke-miterlimit:10;}
	.st2{fill:#EFC12F;stroke:#1E247E;stroke-width:6;stroke-linecap:round;stroke-miterlimit:10;}
	.st3{fill:none;stroke:#1E247E;stroke-width:3;stroke-linecap:round;stroke-miterlimit:10;}
	.st4{fill:#FFFFFF;stroke:#1E247E;stroke-width:3;stroke-linecap:round;stroke-miterlimit:10;}
	.st5{fill:#FCF5F2;stroke:#1E247E;stroke-width:5;stroke-linecap:round;stroke-miterlimit:10;}
	.st6{fill:#FCF5F2;stroke:#1E247E;stroke-width:6;stroke-linecap:round;stroke-miterlimit:10;}
	.st7{fill:#1E247E;}
	.st8{fill:none;stroke:#1E247E;stroke-width:4;stroke-linecap:round;stroke-miterlimit:10;}
	.st9{fill:#EAB8B1;}
	.st10{fill:#DC9695;stroke:#1E247E;stroke-width:4;stroke-linecap:round;stroke-miterlimit:10;}
	.st11{fill:#EECED1;stroke:#1E247E;stroke-width:3;stroke-linecap:round;stroke-miterlimit:10;}
	.st12{fill:#CB7272;stroke:#1E247E;stroke-width:3;stroke-linecap:round;stroke-miterlimit:10;}
	.st13{fill:#D3D5E7;stroke:#1E247E;stroke-width:6;stroke-linecap:round;stroke-miterlimit:10;}
	.st14{fill:#D3D5E7;}
	.st15{fill:#FFFFFF;stroke:#1E247E;stroke-width:5;stroke-linecap:round;stroke-miterlimit:10;}
	.st16{fill:#FFFFFF;stroke:#1E247E;stroke-width:4;stroke-linecap:round;stroke-miterlimit:10;}
	.st17{fill:#ECECEE;}
	.st18{fill:#DA867D;stroke:#1E247E;stroke-width:4;stroke-linecap:round;stroke-miterlimit:10;}
	.st19{fill:#FCF5F2;stroke:#1E247E;stroke-width:4;stroke-linecap:round;stroke-miterlimit:10;}
	.st20{fill:#69AEF8;stroke:#1E247E;stroke-width:6;stroke-linecap:round;stroke-miterlimit:10;}
	.st21{opacity:0.4;fill:#FFFFFF;}
	.st22{opacity:0.7;fill:#FFFFFF;}
	.st23{fill:#69ADF7;stroke:#1E247E;stroke-width:2.5;stroke-linecap:round;stroke-miterlimit:10;}
	.st24{fill:none;stroke:#FFFFFF;stroke-width:7;stroke-linecap:round;stroke-miterlimit:10;}
	.st25{fill:#FFFFFF;stroke:#1E247E;stroke-width:6;stroke-linecap:round;stroke-miterlimit:10;}
	.st26{fill:#DBE7FE;}
	.st27{fill:#D3D5E7;stroke:#1E247E;stroke-width:5;stroke-linecap:round;stroke-miterlimit:10;}
	.st28{fill:#DD9796;stroke:#1E247E;stroke-width:3;stroke-linecap:round;stroke-miterlimit:10;}
	.st29{fill:#EECED1;stroke:#1E247E;stroke-width:2.5;stroke-linecap:round;stroke-miterlimit:10;}
	.st30{fill:#CB7272;stroke:#1E247E;stroke-width:2.5;stroke-linecap:round;stroke-miterlimit:10;}
	.st31{fill:#DBE7FE;stroke:#1E247E;stroke-width:5;stroke-linecap:round;stroke-miterlimit:10;}
	.st32{fill:#69AEF8;stroke:#1E247E;stroke-width:5;stroke-linecap:round;stroke-miterlimit:10;}
	.st33{fill:#DAE6FD;stroke:#1E247E;stroke-width:6;stroke-miterlimit:10;}
	.st34{fill:#FFFFFF;stroke:#1E247E;stroke-width:6;stroke-miterlimit:10;}
	.st35{opacity:0.69;fill:#FFFFFF;}
	.st36{opacity:0.95;fill:#FFFFFF;}
	.st37{fill:#DA867D;stroke:#1E247E;stroke-width:6;stroke-linecap:round;stroke-miterlimit:10;}
	.st38{fill:#F0C330;stroke:#1E247E;stroke-width:6;stroke-linecap:round;stroke-miterlimit:10;}
	.st39{fill:#1E247E;stroke:#1E247E;stroke-width:3;stroke-linecap:round;stroke-miterlimit:10;}
	.st40{fill:#FFFFFF;}
	.st41{fill:#DBE7FE;stroke:#1E247E;stroke-width:6;stroke-linecap:round;stroke-miterlimit:10;}
	.st42{fill:#F1F6FF;}
	.st43{fill:#F0C330;stroke:#1E247E;stroke-width:5;stroke-linecap:round;stroke-miterlimit:10;}
	.st44{fill:none;stroke:#1E247E;stroke-width:5;stroke-linecap:round;stroke-miterlimit:10;}
	.st45{fill:#79CAA1;stroke:#1E247E;stroke-width:5;stroke-linecap:round;stroke-miterlimit:10;}
	.st46{fill:#E09287;stroke:#1E247E;stroke-width:5;stroke-linecap:round;stroke-miterlimit:10;}
	.st47{fill:#DA867D;stroke:#1E247E;stroke-width:5;stroke-linecap:round;stroke-miterlimit:10;}
	.st48{fill:#69AEF8;stroke:#1E247E;stroke-width:5;stroke-miterlimit:10;}
	.st49{fill:#D2D4E6;stroke:#1E247E;stroke-width:5;stroke-linecap:round;stroke-miterlimit:10;}
	.st50{fill:#79CAA1;stroke:#1E247E;stroke-width:5;stroke-miterlimit:10;}
	.st51{fill:#F0C330;stroke:#1E247E;stroke-width:6;stroke-miterlimit:10;}
	.st52{fill:#EEEDF2;stroke:#FFFFFF;stroke-miterlimit:10;}
	.st53{opacity:0.3;fill:#A2655F;}
	.st54{fill:#79CAA1;stroke:#1E247E;stroke-width:4;stroke-linecap:round;stroke-miterlimit:10;}
	.st55{fill:#F0C330;stroke:#1E247E;stroke-width:4.5;stroke-linecap:round;stroke-miterlimit:10;}
	.st56{fill:#D2D4E6;}
	.st57{fill:#FFFFFF;stroke:#1E247E;stroke-width:5.7826;stroke-linejoin:round;stroke-miterlimit:10;}
	.st58{fill:#DA867D;stroke:#1E247E;stroke-width:5.7826;stroke-linejoin:round;stroke-miterlimit:10;}
	.st59{fill:none;stroke:#1E247E;stroke-width:2.8913;stroke-linecap:round;stroke-linejoin:round;stroke-miterlimit:10;}
	.st60{fill:none;stroke:#1E247E;stroke-width:2.4094;stroke-linecap:round;stroke-miterlimit:10;}
	.st61{fill:#EBEBED;}
	.st62{fill:#FBF2ED;stroke:#1E247E;stroke-width:4.5;stroke-linecap:round;stroke-miterlimit:10;}
	.st63{fill:#D3D5E7;stroke:#1E247E;stroke-width:4.5;stroke-linecap:round;stroke-miterlimit:10;}
	.st64{fill:none;stroke:#1E247E;stroke-width:2.5;stroke-linecap:round;stroke-miterlimit:10;}
	.st65{fill:#DA867D;stroke:#1E247E;stroke-width:4.5;stroke-linecap:round;stroke-miterlimit:10;}
	.st66{fill:none;stroke:#FFFFFF;stroke-width:4;stroke-linecap:round;stroke-linejoin:round;stroke-miterlimit:10;}
	.st67{fill:none;stroke:#FFFFFF;stroke-width:3;stroke-linecap:round;stroke-miterlimit:10;}
	.st68{fill:#79CAA1;stroke:#1E247E;stroke-width:6;stroke-linecap:round;stroke-miterlimit:10;}
	.st69{opacity:0.3;fill:#FFFFFF;}
	.st70{fill:none;stroke:#FFFFFF;stroke-width:6;stroke-linecap:round;stroke-miterlimit:10;}
	.st71{fill:#DBE7FE;stroke:#1E247E;stroke-width:6;stroke-miterlimit:10;}
	.st72{fill:#DA867D;stroke:#1E247E;stroke-width:5;stroke-miterlimit:10;}
	.st73{fill:#F5F5F7;stroke:#1E247E;stroke-width:5;stroke-miterlimit:10;}
	.st74{fill:#D5D6DE;stroke:#1E247E;stroke-width:5;stroke-miterlimit:10;}
	.st75{fill:#D3D5E7;stroke:#1E247E;stroke-width:3;stroke-linecap:round;stroke-miterlimit:10;}
	.st76{fill:#79CAA1;}
	.st77{fill:none;stroke:#1E247E;stroke-width:2.7;stroke-linecap:round;stroke-miterlimit:10;}
	.st78{fill:#69AEF8;}
</style><g><g id="Search"><circle class="st0" cx="256" cy="253.1" id="Background_2_" r="215.6"/><g id="Globe_1_"><path class="st14" d="M445.1,250.8c0,27.5-6.3,53.5-17.5,76.5c-11.9,24.6-29.4,45.8-50.8,62.1      c-8.1,6.1-16.7,11.5-25.7,16.1c-15,7.6-31.2,12.9-48.2,15.7c0,0,0,0-0.1,0c-3.3,0.5-6.7,1-10,1.3c-1.2,0.1-2.4,0.2-3.5,0.3      c-2.4,0.2-4.8,0.3-7.2,0.4c-0.9,0-1.7,0.1-2.6,0.1c-1.1,0-2.2,0-3.2,0c-13.1,0-25.9-1.5-38.2-4.4c-2.7-0.6-5.4-1.3-8-2.1      c-7.5-2.2-14.8-4.8-21.8-8c-59.4-26.7-100.9-87.4-100.9-158c0-37.5,11.7-72.1,31.5-100.4c0.9-1.3,1.8-2.6,2.8-3.9      c2-2.7,4-5.3,6.1-7.8c1.4-1.7,2.9-3.4,4.4-5c0.1-0.1,0.2-0.2,0.3-0.3c0.5-0.5,1-1.1,1.5-1.6c0.4-0.4,0.7-0.8,1.1-1.2      c0.3-0.4,0.7-0.7,1-1.1c0.5-0.5,0.9-1,1.4-1.4c0.5-0.5,0.9-0.9,1.4-1.4c0.4-0.4,0.8-0.8,1.2-1.1c0.4-0.4,0.7-0.7,1.1-1      c0.6-0.6,1.1-1.1,1.7-1.6c0.4-0.3,0.7-0.7,1.1-1c0.4-0.3,0.7-0.7,1-1c0.6-0.5,1.2-1,1.8-1.6c0.1-0.1,0.3-0.2,0.4-0.3      c0.7-0.6,1.4-1.3,2.2-1.9c0.7-0.6,1.4-1.2,2.2-1.8c0.2-0.2,0.4-0.4,0.7-0.5c0.8-0.6,1.6-1.2,2.4-1.9c0.9-0.7,1.8-1.3,2.7-2      c0.9-0.7,1.8-1.3,2.7-2c0.9-0.6,1.8-1.3,2.7-1.9c0,0,0.1-0.1,0.1-0.1c0.8-0.5,1.6-1.1,2.4-1.6c0.1-0.1,0.3-0.2,0.4-0.3      c0.8-0.5,1.7-1.1,2.5-1.6c1.1-0.7,2.3-1.4,3.4-2.1c0.8-0.5,1.7-1,2.5-1.5c24.4-13.9,52.4-21.8,82.3-21.8      c12.2,0,24.2,1.3,35.6,3.9c3.9,0.8,7.8,1.8,11.6,3c0.4,0.1,0.7,0.2,1.1,0.3c47.3,14.4,85.9,49.4,105.9,94.8      c1.6,3.7,3.2,7.5,4.5,11.4c0,0,0,0,0,0C441.5,210.1,445.1,230,445.1,250.8z" id="Shadow_10_"/><g id="Globe"><path class="st33" d="M425.3,250.8c0,27.5-6.4,53.5-17.8,76.5c-12.2,24.6-30,45.8-51.9,62.1       c-8.2,6.1-17,11.5-26.3,16.1c-15.3,7.6-31.8,12.9-49.3,15.7c0,0-0.1,0-0.1,0c-3.4,0.5-6.8,1-10.3,1.3c-1.2,0.1-2.4,0.2-3.6,0.3       c-2.4,0.2-4.9,0.3-7.4,0.4c-0.9,0-1.7,0.1-2.6,0.1c-1.1,0-2.2,0-3.3,0c-13.4,0-26.5-1.5-39-4.4c-2.8-0.6-5.5-1.3-8.2-2.1       c-7.7-2.2-15.1-4.8-22.3-8c-60.7-26.7-103.1-87.4-103.1-158c0-37.5,11.9-72.1,32.2-100.4c0.9-1.3,1.9-2.6,2.8-3.9       c2-2.7,4.1-5.3,6.3-7.8c1.5-1.7,2.9-3.4,4.5-5c0.1-0.1,0.2-0.2,0.3-0.3c0.5-0.5,1-1.1,1.5-1.6c0.4-0.4,0.8-0.8,1.1-1.2       c0.4-0.4,0.7-0.7,1.1-1.1c0.5-0.5,0.9-1,1.4-1.4c0.5-0.5,0.9-0.9,1.4-1.4c0.4-0.4,0.8-0.8,1.2-1.1c0.4-0.4,0.7-0.7,1.1-1       c0.6-0.6,1.2-1.1,1.8-1.6c0.4-0.3,0.7-0.7,1.1-1c0.4-0.3,0.7-0.7,1.1-1c0.6-0.5,1.2-1,1.8-1.6c0.1-0.1,0.3-0.2,0.4-0.3       c0.7-0.6,1.5-1.3,2.2-1.9c0.7-0.6,1.5-1.2,2.2-1.8c0.2-0.2,0.4-0.4,0.7-0.5c0.8-0.6,1.6-1.2,2.4-1.9c0.9-0.7,1.8-1.3,2.7-2       c0.9-0.7,1.8-1.3,2.8-2c0.9-0.6,1.8-1.3,2.8-1.9c0,0,0.1-0.1,0.1-0.1c0.8-0.5,1.6-1.1,2.5-1.6c0.1-0.1,0.3-0.2,0.4-0.3       c0.8-0.5,1.7-1.1,2.5-1.6c1.1-0.7,2.3-1.4,3.5-2.1c0.4-0.3,0.8-0.5,1.3-0.7c0.4-0.3,0.9-0.5,1.3-0.7       c24.9-13.9,53.6-21.8,84.1-21.8c12.5,0,24.7,1.3,36.4,3.9c4,0.8,8,1.8,11.8,3c0.4,0.1,0.7,0.2,1.1,0.3       c48.3,14.4,87.8,49.4,108.2,94.8c1.7,3.7,3.2,7.5,4.6,11.4c0,0,0,0,0,0C421.6,210.1,425.3,230,425.3,250.8z" id="Shape_9_"/><g id="Continents"><path class="st34" d="M286.7,386.3c-3.6,1.6-12.1,19-17.1,36.3c-1.2,0.1-2.4,0.2-3.6,0.3c-2.4,0.2-4.9,0.3-7.4,0.4        c-0.9,0-1.7,0.1-2.6,0.1c-1.1,0-2.2,0-3.3,0c-13.4,0-26.5-1.5-39-4.4c-2.8-0.6-5.5-1.3-8.2-2.1c-7.8-10.2-13.3-22.8-10.6-30.5        c3.2-9.3,4-15.4-2.5-20.3c-6.5-4.9-17.7-8.4-16.2-23.2c1.5-14.8-10.1-13.7-12.7-17.9c-1.3-2.1-4.4-8-8.6-10.3        c-4.8-2.7-8.9-2.9-12.4-7.1c-1.2-1.4-2.7-2.6-4.7-3c-5.9-1.1-5.5-6.1-10.1-12.9c-4.6-6.8-4.6-12.9-4.6-12.9        c-2-8.3-15.4-15.3-15.4-15.3c-1.3-1.1-3.2-1.4-4.8-0.5c-1.8,0.9-4,1.2-6-1.1c-4.7-5.4-3.4-7.6-1.8-10.9        c1.1-2.3,2.3-4.5,3.7-6.7c2.1-3.5,4.3-9.6,0-16.1c-6.6-10.1,9.2-27.5,9.2-27.5c13.6-12,16.7-17.3,7.9-26.1        c-8.8-8.8,8.6-27.3,8.6-27.3c0.3-1.1,0.2-2.3-0.3-3.6c-1.2-3.4-0.6-7.1,1.7-9.8c0.1-0.1,0.2-0.2,0.3-0.3        c0.5-0.5,1-1.1,1.5-1.6c0.4-0.4,0.8-0.8,1.1-1.2c0.4-0.4,0.7-0.7,1.1-1.1c0.5-0.5,0.9-1,1.4-1.4c0.5-0.5,0.9-0.9,1.4-1.4        c0.4-0.4,0.8-0.8,1.2-1.1c0.4-0.4,0.7-0.7,1.1-1c0.6-0.6,1.2-1.1,1.8-1.6c0.4-0.3,0.7-0.7,1.1-1c0.4-0.3,0.7-0.7,1.1-1        c0.6-0.5,1.2-1,1.8-1.6c0.1-0.1,0.3-0.2,0.4-0.3c0.7-0.6,1.5-1.3,2.2-1.9c0.7-0.6,1.5-1.2,2.2-1.8c0.2-0.2,0.4-0.4,0.7-0.5        c0.8-0.6,1.6-1.2,2.4-1.9c0.9-0.7,1.8-1.3,2.7-2c0.9-0.7,1.8-1.3,2.8-2c0.9-0.6,1.8-1.3,2.8-1.9c0,0,0.1-0.1,0.1-0.1        c0.8-0.5,1.6-1.1,2.5-1.6c0.1-0.1,0.3-0.2,0.4-0.3c0.8-0.5,1.7-1.1,2.5-1.6c1.1-0.7,2.3-1.4,3.5-2.1c0.4-0.3,0.8-0.5,1.3-0.7        c0.1,1.4,0.5,2.7,1.6,3.6c3,2.3,2.4,8.4,2.8,10.5c0.4,2.1,2.3-0.2,2.8-2.6c0.5-2.3,2.1-7,8.2-7.5c6.1-0.5,7-4.9,9.6-2.3        c2.6,2.6,8.4,1.4,10.5,1.6c2.1,0.2,4.7-0.3,6.1,3c1.4,3.3,5.1,2.6,3.5,6.6c-1.6,4-2.5,4.2,0.4,5.6c2.9,1.4,2.1,3.4,4,5.8        c4.9,6.3,1.5,11-3.1,8.8c-4.5-2.2-2-2.5-9.4,0.2c-5.1,1.8-7.5-2.9-8.5-5.8c-0.8-2.4-4.4-1.9-4.5,0.6c-0.1,2.5-0.4,3.2-1.8,4.5        c-1.9,1.8-4.4,5.6-8.7,2c-1.5-1.2-3.7-1-4.7,0.7c-0.8,1.3-1.4,3.1-1.4,5.4c0,5.6-5.1,3.5-7.9,7.7c-2.8,4.2-5.9,10.8-1.1,12.4        c4.8,1.6,10.2,3.3,11.8,7.7c1.2,3.3,7.3,7.4,11.4,8.3c4.4,1,8.3,3.6,11.1,7.1c1.6,1.9,3.4,4.3,5.6,7.3        c10.5,14.6-1.5,14.4-1.5,14.4s-13.7,1.1-13.1,12.8c0.6,11.7,3.2,17.6-5.9,26.6c-9.1,9.1-16.7-4.9-17.3,5        c-0.3,6-2.7,9.1-4.9,10.8c-1.6,1.3-3.1,2.7-4.5,4.3c-2.5,2.8-8.5,4.3-13.3,4.5c0,0-11.4,10.4-7.8,18.8        c3.6,8.4,0.2,9.1,5.5,8.9c5.3-0.2,13,0.4,23.2,11.8c10.2,11.4,28.2-11.1,47,0c18.9,11.1,17.4,9,22.8,14.4        c5.3,5.4,20.4-5.4,29.9,3c0.3,0.3,0.6,0.5,0.9,0.8c8.6,7.6,28.9,7.8,27.4,19.2c-0.6,5-5.5,17.5-0.7,20.6        C297.2,370.3,294.3,382.8,286.7,386.3z"/><path class="st34" d="M249.9,135.2c0.2,6.1,1.1,8.3,4.1,10.7c3,2.5,4.3,3.5,6.3,4.7c0,0,4.6,2.6,4.6,2.6        c1.9,1.1,7.2-5,7.1-7.2c-0.3-6.1-2.4-9.4-2-11.4c0.5-2.3,4.9,0,3.7-3.3c-1.2-3.3,1.6-4.9,3.5-8.9s0.1-5.8-3.7-7.7        c-10.1-5.1-3.2-8.9-3.2-8.9c4.2-0.2,1.5-7.8-1.3-10s-10.2,2.7-17.4-1c-7.2-3.7-6.6,2.6-5.7,4c0,0,2.5,9.1-5.7,10.3        c-8.2,1.2-17.3,1.2-13.5,9.1S249.8,127.7,249.9,135.2z"/><path class="st34" d="M296.5,131.1c-2.1-0.9-1.8-4,0.5-4.5c0.5-0.1,1.1-0.2,1.7-0.1c2.8,0.2,4-6.8,9.8,0        c5.8,6.8,1.9,11.7-3.3,10.5c-5.1-1.2-3.5-4.9-7-5.4C297.5,131.5,297,131.3,296.5,131.1z"/><path class="st34" d="M334.7,123.3c2.1,0.3,4.2,0.8,6.1,1.7c6,2.8,16.9,10,17.6,25.2c0.5,11,2.7,17,4.7,20.1        c1.1,1.7,1,3.8,0,5.5c-1.8,2.8,0,7.6,1.9,11.2c2.5,4.9,0.2,3.8,4.4,5.4c4.2,1.6,11.3,1.5,9.9-3.4c-1.4-4.9,6.9-0.4,7.5-1.6        c6.8-13.4-6.5-8.2-4.1-14.9c0,0-4-10.7,0.9-8.4c4.9,2.3,10.3,5.8,12.2,10.5c1.9,4.7,4.2,1.4,4-1.9c-0.2-3.3,7,0.5,7.5,6.3        c0.1,1.9,1.4,2,3.1,1.1c-20.4-45.4-59.8-80.4-108.2-94.9c-0.3,0.1-0.7,0-1.1-0.3c-3.9-1.1-7.8-2.1-11.8-3        c-0.4,2.4-0.6,4.8-0.9,5.7c0,0-4.2,6.8,1.3,10.6s16.7-5.3,23.8,9.9C319,120.2,330,122.7,334.7,123.3z"/><path class="st34" d="M382.4,296.4c7.6,4.4,4,10.7,6.5,13.3c2.6,2.6,3.5,10,7.9,7.7c4.4-2.3,4.7-12.6,8.6-11.9        c4,0.7,7.7-4.3,7.5,2.8c-0.2,7.1-7.4,9.4-5.6,19c11.4-23.1,17.9-49,17.9-76.5c0-20.8-3.7-40.7-10.4-59.1c0,0,0,0,0,0        c-0.1-0.2-3-5.4-4.6,1.4c0,0-2.7,13-20.1,7.4c-4.2-1.3-7.9,2.7-8.2,9.4c-0.2,6.8-4,6.3-2.3,10.7c0,0,11.1,13.4-0.4,28        C367.7,263.4,365.2,286.4,382.4,296.4z"/></g></g><g id="Lines"><line class="st23" id="Bottom_6_" x1="225.6" x2="233.3" y1="367.3" y2="373.2"/><line class="st23" id="Middle_6_" x1="225.6" x2="240.9" y1="360" y2="371.7"/><line class="st23" id="Top_6_" x1="236.7" x2="240.9" y1="361" y2="364.2"/></g></g><g id="Magnifying_glass"><g id="Magnifying_glass_1_"><path class="st35" d="M327.3,297.5c-30.1,31-79.6,31.8-110.7,1.7c-0.3-0.3-0.5-0.5-0.8-0.8c-1-1-1.9-1.9-2.8-2.9       c-3.2-3.6-6.1-7.4-8.5-11.4c-3.6-5.9-6.4-12.2-8.4-18.6c-7.9-26.3-1.7-55.9,18.8-77c19.2-19.8,46.2-27.3,71.4-22.3       c6.1,1.2,12.2,3.2,17.9,5.8c4.5,2.1,8.8,4.7,13,7.7c1.1,0.8,2.2,1.6,3.3,2.5c1.8,1.4,3.5,2.9,5.1,4.6       C356.6,216.9,357.4,266.4,327.3,297.5z" id="Glass_1_"/><path class="st36" d="M329.7,191.7c-3.4-2.3-7-4.3-10.6-6.1c-5.8-2.7-11.8-4.6-17.9-5.8       c-25.1-5-52.2,2.5-71.4,22.3c-20.4,21.1-26.6,50.7-18.8,77c1.9,6.5,4.7,12.8,8.4,18.6c2.3,3.7,4.9,7.2,7.8,10.6       c-3.8-2.5-7.4-5.5-10.8-8.7c-0.3-0.3-0.5-0.5-0.8-0.8c-1-1-1.9-1.9-2.8-2.9c-3.2-3.6-6.1-7.4-8.5-11.4       c-3.6-5.9-6.4-12.2-8.4-18.6c-7.9-26.3-1.7-55.9,18.8-77c19.2-19.8,46.2-27.3,71.4-22.3c6.1,1.2,12.2,3.2,17.9,5.8       c4.5,2.1,8.8,4.7,13,7.7c1.1,0.8,2.2,1.6,3.3,2.5c1.8,1.4,3.5,2.9,5.1,4.6C326.9,188.7,328.3,190.2,329.7,191.7z" id="Glass_shadow"/><path class="st37" d="M345.5,302l83.5,80.9c5,4.8,5.1,12.8,0.3,17.8c-4.8,5-12.8,5.1-17.8,0.3l-84.1-81.5       c4.2-3.1,8.2-6.6,11.9-10.4C341.5,306.8,343.6,304.4,345.5,302z" id="Hand"/><path class="st38" d="M202.9,176.8c-36.5,37.7-35.6,97.8,2.1,134.3c33.8,32.8,85.7,35.4,122.4,8.3       c4.2-3.1,8.2-6.6,11.9-10.4c2.2-2.3,4.3-4.7,6.3-7.1c30-37.8,27.1-92.9-8.3-127.2C299.6,138.3,239.4,139.2,202.9,176.8z        M327.3,297.5c-30.1,31-79.6,31.8-110.7,1.7s-31.8-79.6-1.7-110.7s79.6-31.8,110.7-1.7C356.6,216.9,357.4,266.4,327.3,297.5z" id="Lens"/></g><g id="Information_sign"><path class="st39" d="M282.1,263.8l1.5,1.1c0,0,0,0.1,0,0.1c-0.4,0.6-4.3,7.1-8.1,11.2       c-4.1,4.3-11.8,7.5-17.4,4.3c-5.6-3.2-3.1-11.2-3.1-11.2s6.5-23.3,8.7-30.2c2.2-6.8,1.7-9.5,0-10.9c-1.5-1.2-4.6-0.9-5.2-0.9       c0,0-0.1,0-0.1-0.1l0.8-2.2c0,0,0,0,0.1,0l21.7-3.6c0.1,0,0.1,0,0.2,0h3.4c0,0,0.1,0,0.1,0.1l-12.8,44.4c0,0,0,0,0,0       c0,0.1-2.3,6,0,7.2C271.9,273,274.9,275.8,282.1,263.8C282.1,263.8,282.1,263.8,282.1,263.8z" id="Bottom_5_"/><circle class="st39" cx="278.7" cy="205.5" id="Top_5_" r="9.1"/></g><path class="st3" d="M325,277.3c-5.2,8.6-12.6,15.7-21.5,20.5" id="Line_7_"/></g><g id="Sparkles"><path class="st40" d="M239.7,236.8c-6.8-0.4-6.7-7.9-6.7-7.9c-0.2,8.3-7,7.9-7,7.9s7,0.7,7,7.7      C233.1,244.6,234,237.5,239.7,236.8" id="Middle_5_"/><g id="Left_13_"><path class="st40" d="M90.4,155.8c-4.4-0.2-4.3-5.1-4.3-5.1c-0.1,5.4-4.5,5.1-4.5,5.1s4.5,0.4,4.5,5       C86.1,160.8,86.6,156.2,90.4,155.8" id="Bottom_4_"/><path class="st40" d="M103.9,139.5c-9.1-0.5-8.9-10.6-8.9-10.6c-0.2,11.2-9.4,10.6-9.4,10.6s9.4,0.9,9.4,10.4       C95,149.8,96.2,140.4,103.9,139.5" id="Top_4_"/></g><g id="Right_14_"><path class="st40" d="M458.1,269.4c-4.4-0.2-4.3-5.1-4.3-5.1c-0.1,5.4-4.5,5.1-4.5,5.1s4.5,0.4,4.5,5       C453.8,274.4,454.3,269.8,458.1,269.4" id="Bottom_3_"/><path class="st40" d="M467.2,253.3c-9.1-0.5-8.9-10.6-8.9-10.6c-0.2,11.2-9.4,10.6-9.4,10.6s9.4,0.9,9.4,10.4       C458.3,263.6,459.5,254.2,467.2,253.3" id="Top_3_"/></g></g></g></g></svg>