<?xml version="1.0" ?><!DOCTYPE svg  PUBLIC '-//W3C//DTD SVG 1.1//EN'  'http://www.w3.org/Graphics/SVG/1.1/DTD/svg11.dtd'><svg width="512px" height="512px" viewBox="0 0 512 512" id="Layer_1" style="enable-background:new 0 0 512 512;" version="1.1" xml:space="preserve" xmlns="http://www.w3.org/2000/svg" xmlns:xlink="http://www.w3.org/1999/xlink"><style type="text/css">
	.st0{fill:#EEEDF2;}
	.st1{fill:none;stroke:#1E247E;stroke-width:6;stroke-linecap:round;stroke-miterlimit:10;}
	.st2{fill:#EFC12F;stroke:#1E247E;stroke-width:6;stroke-linecap:round;stroke-miterlimit:10;}
	.st3{fill:none;stroke:#1E247E;stroke-width:3;stroke-linecap:round;stroke-miterlimit:10;}
	.st4{fill:#FFFFFF;stroke:#1E247E;stroke-width:3;stroke-linecap:round;stroke-miterlimit:10;}
	.st5{fill:#FCF5F2;stroke:#1E247E;stroke-width:5;stroke-linecap:round;stroke-miterlimit:10;}
	.st6{fill:#FCF5F2;stroke:#1E247E;stroke-width:6;stroke-linecap:round;stroke-miterlimit:10;}
	.st7{fill:#1E247E;}
	.st8{fill:none;stroke:#1E247E;stroke-width:4;stroke-linecap:round;stroke-miterlimit:10;}
	.st9{fill:#EAB8B1;}
	.st10{fill:#DC9695;stroke:#1E247E;stroke-width:4;stroke-linecap:round;stroke-miterlimit:10;}
	.st11{fill:#EECED1;stroke:#1E247E;stroke-width:3;stroke-linecap:round;stroke-miterlimit:10;}
	.st12{fill:#CB7272;stroke:#1E247E;stroke-width:3;stroke-linecap:round;stroke-miterlimit:10;}
	.st13{fill:#D3D5E7;stroke:#1E247E;stroke-width:6;stroke-linecap:round;stroke-miterlimit:10;}
	.st14{fill:#D3D5E7;}
	.st15{fill:#FFFFFF;stroke:#1E247E;stroke-width:5;stroke-linecap:round;stroke-miterlimit:10;}
	.st16{fill:#FFFFFF;stroke:#1E247E;stroke-width:4;stroke-linecap:round;stroke-miterlimit:10;}
	.st17{fill:#ECECEE;}
	.st18{fill:#DA867D;stroke:#1E247E;stroke-width:4;stroke-linecap:round;stroke-miterlimit:10;}
	.st19{fill:#FCF5F2;stroke:#1E247E;stroke-width:4;stroke-linecap:round;stroke-miterlimit:10;}
	.st20{fill:#69AEF8;stroke:#1E247E;stroke-width:6;stroke-linecap:round;stroke-miterlimit:10;}
	.st21{opacity:0.4;fill:#FFFFFF;}
	.st22{opacity:0.7;fill:#FFFFFF;}
	.st23{fill:#69ADF7;stroke:#1E247E;stroke-width:2.5;stroke-linecap:round;stroke-miterlimit:10;}
	.st24{fill:none;stroke:#FFFFFF;stroke-width:7;stroke-linecap:round;stroke-miterlimit:10;}
	.st25{fill:#FFFFFF;stroke:#1E247E;stroke-width:6;stroke-linecap:round;stroke-miterlimit:10;}
	.st26{fill:#DBE7FE;}
	.st27{fill:#D3D5E7;stroke:#1E247E;stroke-width:5;stroke-linecap:round;stroke-miterlimit:10;}
	.st28{fill:#DD9796;stroke:#1E247E;stroke-width:3;stroke-linecap:round;stroke-miterlimit:10;}
	.st29{fill:#EECED1;stroke:#1E247E;stroke-width:2.5;stroke-linecap:round;stroke-miterlimit:10;}
	.st30{fill:#CB7272;stroke:#1E247E;stroke-width:2.5;stroke-linecap:round;stroke-miterlimit:10;}
	.st31{fill:#DBE7FE;stroke:#1E247E;stroke-width:5;stroke-linecap:round;stroke-miterlimit:10;}
	.st32{fill:#69AEF8;stroke:#1E247E;stroke-width:5;stroke-linecap:round;stroke-miterlimit:10;}
	.st33{fill:#DAE6FD;stroke:#1E247E;stroke-width:6;stroke-miterlimit:10;}
	.st34{fill:#FFFFFF;stroke:#1E247E;stroke-width:6;stroke-miterlimit:10;}
	.st35{opacity:0.69;fill:#FFFFFF;}
	.st36{opacity:0.95;fill:#FFFFFF;}
	.st37{fill:#DA867D;stroke:#1E247E;stroke-width:6;stroke-linecap:round;stroke-miterlimit:10;}
	.st38{fill:#F0C330;stroke:#1E247E;stroke-width:6;stroke-linecap:round;stroke-miterlimit:10;}
	.st39{fill:#1E247E;stroke:#1E247E;stroke-width:3;stroke-linecap:round;stroke-miterlimit:10;}
	.st40{fill:#FFFFFF;}
	.st41{fill:#DBE7FE;stroke:#1E247E;stroke-width:6;stroke-linecap:round;stroke-miterlimit:10;}
	.st42{fill:#F1F6FF;}
	.st43{fill:#F0C330;stroke:#1E247E;stroke-width:5;stroke-linecap:round;stroke-miterlimit:10;}
	.st44{fill:none;stroke:#1E247E;stroke-width:5;stroke-linecap:round;stroke-miterlimit:10;}
	.st45{fill:#79CAA1;stroke:#1E247E;stroke-width:5;stroke-linecap:round;stroke-miterlimit:10;}
	.st46{fill:#E09287;stroke:#1E247E;stroke-width:5;stroke-linecap:round;stroke-miterlimit:10;}
	.st47{fill:#DA867D;stroke:#1E247E;stroke-width:5;stroke-linecap:round;stroke-miterlimit:10;}
	.st48{fill:#69AEF8;stroke:#1E247E;stroke-width:5;stroke-miterlimit:10;}
	.st49{fill:#D2D4E6;stroke:#1E247E;stroke-width:5;stroke-linecap:round;stroke-miterlimit:10;}
	.st50{fill:#79CAA1;stroke:#1E247E;stroke-width:5;stroke-miterlimit:10;}
	.st51{fill:#F0C330;stroke:#1E247E;stroke-width:6;stroke-miterlimit:10;}
	.st52{fill:#EEEDF2;stroke:#FFFFFF;stroke-miterlimit:10;}
	.st53{opacity:0.3;fill:#A2655F;}
	.st54{fill:#79CAA1;stroke:#1E247E;stroke-width:4;stroke-linecap:round;stroke-miterlimit:10;}
	.st55{fill:#F0C330;stroke:#1E247E;stroke-width:4.5;stroke-linecap:round;stroke-miterlimit:10;}
	.st56{fill:#D2D4E6;}
	.st57{fill:#FFFFFF;stroke:#1E247E;stroke-width:5.7826;stroke-linejoin:round;stroke-miterlimit:10;}
	.st58{fill:#DA867D;stroke:#1E247E;stroke-width:5.7826;stroke-linejoin:round;stroke-miterlimit:10;}
	.st59{fill:none;stroke:#1E247E;stroke-width:2.8913;stroke-linecap:round;stroke-linejoin:round;stroke-miterlimit:10;}
	.st60{fill:none;stroke:#1E247E;stroke-width:2.4094;stroke-linecap:round;stroke-miterlimit:10;}
	.st61{fill:#EBEBED;}
	.st62{fill:#FBF2ED;stroke:#1E247E;stroke-width:4.5;stroke-linecap:round;stroke-miterlimit:10;}
	.st63{fill:#D3D5E7;stroke:#1E247E;stroke-width:4.5;stroke-linecap:round;stroke-miterlimit:10;}
	.st64{fill:none;stroke:#1E247E;stroke-width:2.5;stroke-linecap:round;stroke-miterlimit:10;}
	.st65{fill:#DA867D;stroke:#1E247E;stroke-width:4.5;stroke-linecap:round;stroke-miterlimit:10;}
	.st66{fill:none;stroke:#FFFFFF;stroke-width:4;stroke-linecap:round;stroke-linejoin:round;stroke-miterlimit:10;}
	.st67{fill:none;stroke:#FFFFFF;stroke-width:3;stroke-linecap:round;stroke-miterlimit:10;}
	.st68{fill:#79CAA1;stroke:#1E247E;stroke-width:6;stroke-linecap:round;stroke-miterlimit:10;}
	.st69{opacity:0.3;fill:#FFFFFF;}
	.st70{fill:none;stroke:#FFFFFF;stroke-width:6;stroke-linecap:round;stroke-miterlimit:10;}
	.st71{fill:#DBE7FE;stroke:#1E247E;stroke-width:6;stroke-miterlimit:10;}
	.st72{fill:#DA867D;stroke:#1E247E;stroke-width:5;stroke-miterlimit:10;}
	.st73{fill:#F5F5F7;stroke:#1E247E;stroke-width:5;stroke-miterlimit:10;}
	.st74{fill:#D5D6DE;stroke:#1E247E;stroke-width:5;stroke-miterlimit:10;}
	.st75{fill:#D3D5E7;stroke:#1E247E;stroke-width:3;stroke-linecap:round;stroke-miterlimit:10;}
	.st76{fill:#79CAA1;}
	.st77{fill:none;stroke:#1E247E;stroke-width:2.7;stroke-linecap:round;stroke-miterlimit:10;}
	.st78{fill:#69AEF8;}
</style><g><g id="Home"><circle class="st0" cx="255.7" cy="243.8" id="Background_4_" r="215.6"/><path class="st14" d="M388.7,231.4h-7.3v228.1H153.3V231.4h-7.3c-1,0-1.8-1-1.5-2l34-103.5     c1-2.9,3.7-4.9,6.8-4.9h164c3.1,0,5.8,2,6.8,4.9l34.1,103.5C390.5,230.4,389.8,231.4,388.7,231.4z" id="House_shadow"/><g id="Bottom_line"><line class="st1" id="Right_20_" x1="399" x2="471.4" y1="459.4" y2="459.4"/><line class="st1" id="Middle_11_" x1="115.1" x2="386.5" y1="459.4" y2="459.4"/><line class="st1" id="Left_22_" x1="40.1" x2="101.1" y1="459.4" y2="459.4"/></g><g id="Landscape"><g id="Clouds"><g id="Left_21_"><g><path class="st15" d="M190.2,192.8c0,10.8-8.8,19.6-19.6,19.6H90.5c-8.6,0-15.5-6.9-15.5-15.5c0-0.5,0-1,0.1-1.6         c0-0.4,0.1-0.7,0.1-1.1c1.1-6.2,5.8-11.2,12-12.5c1.1-0.2,2.2-0.4,3.3-0.4c0.1,0,0.1,0,0.2,0c-0.1-0.9-0.2-1.7-0.2-2.6         c0-1.4,0.1-2.8,0.4-4.2c1.9-9.9,10.6-17.3,21-17.3c1.4,0,2.7,0.1,4,0.4c3-9.1,10.1-16.4,19.1-19.6c2.8-1,5.8-1.6,8.9-1.8         c0.5,0,1,0,1.5,0c0.1,0,0.1,0,0.2,0c17,0.1,30.8,14,30.8,31c0,2.3-0.2,4.5-0.7,6.6C184.1,176.2,190.2,183.8,190.2,192.8z"/></g><path class="st15" d="M176.4,166.9c0,8.9-3.7,16.9-9.7,22.6"/><path class="st44" d="M111.3,157.2c9.8,0,18.1,6.8,20.3,15.9"/></g><g id="Right_19_"><g><path class="st15" d="M440.8,272.6c0,10.8-8.8,19.6-19.6,19.6h-80.1c-8.6,0-15.5-6.9-15.5-15.5c0-0.5,0-1,0.1-1.6         c0-0.4,0.1-0.7,0.1-1.1c1.1-6.2,5.8-11.2,12-12.5c1.1-0.2,2.2-0.4,3.3-0.4c0.1,0,0.1,0,0.2,0c-0.1-0.9-0.2-1.7-0.2-2.6         c0-1.4,0.1-2.8,0.4-4.2c1.9-9.9,10.6-17.3,21-17.3c1.4,0,2.7,0.1,4,0.4c3-9.1,10.1-16.4,19.1-19.6c2.8-1,5.8-1.6,8.9-1.8         c0.5,0,1,0,1.5,0c0.1,0,0.1,0,0.2,0c17,0.1,30.8,14,30.8,31c0,2.3-0.2,4.5-0.7,6.6C434.7,256,440.8,263.6,440.8,272.6z"/></g><path class="st15" d="M427,246.7c0,8.9-3.7,16.9-9.7,22.6"/><path class="st44" d="M361.9,237c9.8,0,18.1,6.8,20.3,15.9"/></g></g><g id="Trees"><g id="RIght"><path class="st48" d="M436.5,353.8c1,1.1,1.9,2.2,2.8,3.4c1.8,2.5,3.3,4.9,4.9,7.3c6.5,9.7,13.8,21.4,16.6,33.5        c0.8,3.3,1.2,6.7,1.3,9.9c-0.5,17-14.4,30.6-31.5,30.6c-17.1,0-31-13.6-31.5-30.6c0-3.2,0.5-6.6,1.3-9.9        c2.8-12.1,9.9-23.8,16.3-33.5c1.7-2.5,3.6-5,5.5-7.6c0.8-1.2,1.7-2.3,2.7-3.3l1.1-1.2c2.5-2.8,6.8-2.7,9.3,0L436.5,353.8z"/><line class="st49" x1="430.5" x2="430.5" y1="388.8" y2="459.8"/><line class="st49" x1="430.5" x2="414.9" y1="424.6" y2="406.4"/><line class="st49" x1="430.5" x2="440.6" y1="406.9" y2="395.3"/></g><g id="Left_20_"><path class="st50" d="M94.9,353.8c1,1.1,1.9,2.2,2.8,3.4c1.8,2.5,3.3,4.9,4.9,7.3c6.5,9.7,13.8,21.4,16.6,33.5        c0.8,3.3,1.2,6.7,1.3,9.9c-0.5,17-14.4,30.6-31.5,30.6c-17.1,0-31-13.6-31.5-30.6c0-3.2,0.5-6.6,1.3-9.9        c2.8-12.1,9.9-23.8,16.3-33.5c1.7-2.5,3.6-5,5.5-7.6c0.8-1.2,1.7-2.3,2.7-3.3l1.1-1.2c2.5-2.8,6.8-2.7,9.3,0L94.9,353.8z"/><line class="st49" x1="88.9" x2="88.9" y1="388.8" y2="459.8"/><line class="st49" x1="88.9" x2="73.3" y1="424.6" y2="406.4"/><line class="st49" x1="88.9" x2="99" y1="406.9" y2="395.3"/></g></g></g><g id="House"><g id="Body_7_"><rect class="st25" height="228.1" id="Shape_26_" width="228.1" x="140" y="231"/><g id="Widnows"><g id="Window__x23_5"><path class="st31" d="M335.4,429.8h-31.2c-1.8,0-3.3-1.5-3.3-3.3v-60.3c0-1.8,1.5-3.3,3.3-3.3h31.2         c1.8,0,3.3,1.5,3.3,3.3v60.3C338.7,428.3,337.2,429.8,335.4,429.8z" id="Shape_25_"/><line class="st44" id="Seperator_5_" x1="300.9" x2="338.7" y1="386.5" y2="386.5"/><line class="st44" id="Windowsill_5_" x1="294.3" x2="345.3" y1="429.8" y2="429.8"/><g id="Glass_lines_5_"><polygon class="st40" points="303.5,403 303.5,406.2 324,389.1 320.5,389.1         "/><polygon class="st40" points="303.5,408.6 303.5,414.5 334.5,389.1 328.6,389.1         "/><polygon class="st40" points="330.2,383.9 336.1,379.1 336.1,376.1 326.5,383.9         "/></g></g><g id="Window__x23_4"><path class="st31" d="M268.2,429.8H237c-1.8,0-3.3-1.5-3.3-3.3v-60.3c0-1.8,1.5-3.3,3.3-3.3h31.2         c1.8,0,3.3,1.5,3.3,3.3v60.3C271.5,428.3,270,429.8,268.2,429.8z" id="Shape_24_"/><line class="st44" id="Seperator_4_" x1="233.7" x2="271.5" y1="386.5" y2="386.5"/><line class="st44" id="Windowsill_4_" x1="227.1" x2="278.1" y1="429.8" y2="429.8"/><g id="Glass_lines_4_"><polygon class="st40" points="236.3,403 236.3,406.2 256.9,389.2 253.4,389.2         "/><polygon class="st40" points="236.3,408.6 236.3,414.5 267.3,389.2 261.5,389.2         "/><polygon class="st40" points="263.1,383.9 268.9,379.1 269,376.1 259.4,384         "/></g></g><g id="Window__x23_3"><path class="st31" d="M336.9,321.4h-31.2c-1.8,0-3.3-1.5-3.3-3.3v-60.3c0-1.8,1.5-3.3,3.3-3.3h31.2         c1.8,0,3.3,1.5,3.3,3.3v60.3C340.2,319.9,338.7,321.4,336.9,321.4z" id="Shape_23_"/><line class="st44" id="Seperator_3_" x1="302.4" x2="340.2" y1="279.1" y2="279.1"/><line class="st44" id="Windowsill_3_" x1="295.7" x2="346.8" y1="321.4" y2="321.4"/><g id="Glass_lines_3_"><polygon class="st40" points="305,295.6 305,298.8 325.5,281.7 322,281.7         "/><polygon class="st40" points="305,301.2 305,307.1 336,281.7 330.2,281.7         "/><polygon class="st40" points="331.7,276.5 337.5,271.7 337.5,268.8 328,276.5         "/></g></g><g id="Window__x23_2"><path class="st31" d="M269.7,321.4h-31.2c-1.8,0-3.3-1.5-3.3-3.3v-60.3c0-1.8,1.5-3.3,3.3-3.3h31.2         c1.8,0,3.3,1.5,3.3,3.3v60.3C273,319.9,271.5,321.4,269.7,321.4z" id="Shape_22_"/><line class="st44" id="Seperator_2_" x1="235.2" x2="273" y1="279.9" y2="279.9"/><line class="st44" id="Windowsill_2_" x1="228.5" x2="279.6" y1="321.4" y2="321.4"/><g id="Glass_lines_2_"><polygon class="st40" points="237.8,296.3 237.8,299.5 258.3,282.5 254.8,282.5         "/><polygon class="st40" points="237.8,301.9 237.8,307.8 268.8,282.5 263,282.5         "/><polygon class="st40" points="264.6,277.3 270.4,272.4 270.5,269.5 260.8,277.3         "/></g></g><g id="Window__x23_1"><path class="st31" d="M202.5,321.4h-31.2c-1.8,0-3.3-1.5-3.3-3.3v-60.3c0-1.8,1.5-3.3,3.3-3.3h31.2         c1.8,0,3.3,1.5,3.3,3.3v60.3C205.8,319.9,204.3,321.4,202.5,321.4z" id="Shape_21_"/><line class="st44" id="Seperator_1_" x1="168" x2="205.8" y1="279.9" y2="279.9"/><line class="st44" id="Windowsill_1_" x1="161.3" x2="212.4" y1="321.4" y2="321.4"/><g id="Glass_lines_1_"><polygon class="st40" points="170.6,296.3 170.6,299.5 191.1,282.5 187.6,282.5         "/><polygon class="st40" points="170.6,301.9 170.6,307.8 201.6,282.5 195.8,282.5         "/><polygon class="st40" points="197.4,277.3 203.2,272.4 203.3,269.5 193.6,277.3         "/></g></g></g><g id="Base_1_"><polygon class="st51" id="Shape_20_" points="368.1,443 212.4,443 161.3,443 140,443 140,459.2 368.1,459.2       "/></g><g id="Lines_6_"><line class="st3" id="RIght_2_" x1="334.9" x2="368.6" y1="345.5" y2="345.5"/><line class="st3" id="Left_19_" x1="319" x2="326.5" y1="345.5" y2="345.5"/></g><g id="Door"><path class="st15" d="M208.5,459.4h-43.2c-1.3,0-2.4-1.1-2.4-2.4v-91.6c0-1.3,1.1-2.4,2.4-2.4h43.2        c1.3,0,2.4,1.1,2.4,2.4V457C210.9,458.4,209.8,459.4,208.5,459.4z" id="Shape_19_"/><g id="Lock"><g><path class="st7" d="M198.1,411c2.9,0,2.9-4.5,0-4.5C195.2,406.5,195.2,411,198.1,411L198.1,411z"/></g></g><g id="Lines_5_"><line class="st3" id="RIght_1_" x1="198.1" x2="201.9" y1="451.1" y2="451.1"/><line class="st3" id="Left_18_" x1="179.8" x2="193.1" y1="451.1" y2="451.1"/></g></g></g><g id="Roof"><path class="st37" d="M375.5,231H132.7c-1,0-1.8-1-1.5-2l34.1-103.5c1-2.9,3.7-4.9,6.8-4.9h164       c3.1,0,5.8,2,6.8,4.9L376.9,229C377.2,230,376.5,231,375.5,231z" id="Shape_18_"/><g id="Window"><path class="st31" d="M266.7,203.2h-25.2c-1.9,0-3.4-1.5-3.4-3.4V161c0-1.9,1.5-3.4,3.4-3.4h25.2        c1.9,0,3.4,1.5,3.4,3.4v38.8C270.1,201.6,268.5,203.2,266.7,203.2z" id="Shape_17_"/><line class="st44" id="Seperator" x1="238.1" x2="270.1" y1="174" y2="174"/><line class="st44" id="Windowsill" x1="231.4" x2="276.8" y1="203.2" y2="203.2"/><g id="Glass_lines"><polygon class="st40" id="_x33_rd" points="240.7,190.6 240.7,196.5 265.2,176.6 258.6,176.6        "/><polygon class="st40" id="_x32_nd" points="240.7,184.9 240.7,188.2 255.1,176.6 251.4,176.6        "/><polygon class="st40" id="_x31_st" points="261.1,171.3 267.3,166.4 267.3,163 256.8,171.3        "/></g></g><path class="st3" d="M328,130.3h2.6c1.5,0,2.9,1,3.4,2.5l0.6,1.9" id="Right_line"/><path class="st3" d="M179,128.1h-2.6c-1.5,0-2.9,1-3.4,2.5l-0.6,1.9" id="Left_line"/><g id="Lines_4_"><line class="st23" id="Bottom_9_" x1="184.3" x2="190.9" y1="176.4" y2="181.5"/><line class="st23" id="Middle_10_" x1="184.3" x2="197.4" y1="170.2" y2="180.2"/><line class="st23" id="Top_9_" x1="193.8" x2="197.4" y1="171" y2="173.8"/></g></g></g></g></g></svg>