<?xml version="1.0" ?><!DOCTYPE svg  PUBLIC '-//W3C//DTD SVG 1.1//EN'  'http://www.w3.org/Graphics/SVG/1.1/DTD/svg11.dtd'><svg width="512px" height="512px" viewBox="0 0 512 512" id="Layer_1" style="enable-background:new 0 0 512 512;" version="1.1" xml:space="preserve" xmlns="http://www.w3.org/2000/svg" xmlns:xlink="http://www.w3.org/1999/xlink"><style type="text/css">
	.st0{fill:#EEEDF2;}
	.st1{fill:#D3D5E7;}
	.st2{fill:#FFFFFF;stroke:#1E247E;stroke-width:6;stroke-linecap:round;stroke-miterlimit:10;}
	.st3{fill:#DA867D;stroke:#1E247E;stroke-width:6;stroke-linecap:round;stroke-miterlimit:10;}
	.st4{fill:none;stroke:#1E247E;stroke-width:3;stroke-linecap:round;stroke-miterlimit:10;}
	.st5{fill:none;stroke:#1E247E;stroke-width:2.5;stroke-linecap:round;stroke-miterlimit:10;}
	.st6{fill:#F0C330;stroke:#1E247E;stroke-width:6;stroke-linecap:round;stroke-miterlimit:10;}
	.st7{fill:none;stroke:#1E247E;stroke-width:2;stroke-linecap:round;stroke-miterlimit:10;}
	.st8{fill:#DBE7FE;stroke:#1E247E;stroke-width:6;stroke-linecap:round;stroke-miterlimit:10;}
	.st9{fill:none;stroke:#1E247E;stroke-width:6;stroke-linecap:round;stroke-miterlimit:10;}
	.st10{fill:#1E247E;stroke:#1E247E;stroke-width:4;stroke-linecap:round;stroke-miterlimit:10;}
	.st11{fill:none;stroke:#FFFFFF;stroke-width:7;stroke-linecap:round;stroke-miterlimit:10;}
	.st12{fill:#FFFFFF;stroke:#1E247E;stroke-width:6;stroke-linecap:round;stroke-linejoin:round;stroke-miterlimit:10;}
	.st13{fill:#69ADF7;stroke:#1E247E;stroke-width:2.5;stroke-linecap:round;stroke-miterlimit:10;}
	.st14{fill:none;stroke:#1E247E;stroke-width:3;stroke-linecap:round;stroke-linejoin:round;stroke-miterlimit:10;}
	.st15{fill:#FFFFFF;}
	.st16{fill:#F0C330;stroke:#1E247E;stroke-width:6;stroke-miterlimit:10;}
	.st17{fill:#DA867D;stroke:#1E247E;stroke-width:6;stroke-miterlimit:10;}
	.st18{fill:none;stroke:#1E247E;stroke-width:5;stroke-linecap:round;stroke-miterlimit:10;}
	.st19{fill:none;stroke:#D3D5E7;stroke-width:6;stroke-linecap:round;stroke-miterlimit:10;}
	.st20{fill:none;stroke:#D2D4E6;stroke-width:6;stroke-linecap:round;stroke-miterlimit:10;}
	.st21{fill:#EFC230;stroke:#D3D5E7;stroke-width:6;stroke-linecap:round;stroke-miterlimit:10;}
	.st22{fill:#FFFFFF;stroke:#1E247E;stroke-width:6;stroke-miterlimit:10;}
	.st23{fill:none;stroke:#1E247E;stroke-width:4;stroke-linecap:round;stroke-miterlimit:10;}
	.st24{fill:#EFC230;stroke:#1E247E;stroke-width:6;stroke-linecap:round;stroke-miterlimit:10;}
	.st25{fill:#69AEF8;stroke:#1E247E;stroke-width:6;stroke-miterlimit:10;}
	.st26{fill:#FFFFFF;stroke:#1E247E;stroke-width:5;stroke-linecap:round;stroke-miterlimit:10;}
	.st27{fill:#1E247E;}
	.st28{fill:#F0C330;}
	.st29{fill:#DA867D;stroke:#1E247E;stroke-width:5.5;stroke-linecap:round;stroke-miterlimit:10;}
	.st30{fill:#D3D5E7;stroke:#1E247E;stroke-width:5.5;stroke-linecap:round;stroke-miterlimit:10;}
	.st31{fill:#69AEF8;}
	.st32{fill:#D3D5E7;stroke:#1E247E;stroke-width:6;stroke-linejoin:round;stroke-miterlimit:10;}
	.st33{fill:#FCF5F2;stroke:#1E247E;stroke-width:6;stroke-linejoin:round;stroke-miterlimit:10;}
	.st34{fill:#DA867D;stroke:#1E247E;stroke-width:6;stroke-linejoin:round;stroke-miterlimit:10;}
	.st35{fill:#DA867D;}
	.st36{fill:#69AEF8;stroke:#1E247E;stroke-width:6;stroke-linecap:round;stroke-linejoin:round;stroke-miterlimit:10;}
	.st37{fill:#1E247E;stroke:#1E247E;stroke-width:6;stroke-linecap:round;stroke-linejoin:round;stroke-miterlimit:10;}
	.st38{fill:#DBE7FE;stroke:#1E247E;stroke-width:6;stroke-linejoin:round;stroke-miterlimit:10;}
	.st39{fill:#F0C330;stroke:#1E247E;stroke-width:6;stroke-linejoin:round;stroke-miterlimit:10;}
	.st40{fill:none;stroke:#FFFFFF;stroke-width:6;stroke-linecap:round;stroke-linejoin:round;stroke-miterlimit:10;}
	.st41{fill:none;stroke:#1E247E;stroke-width:6;stroke-linecap:round;stroke-linejoin:round;stroke-miterlimit:10;}
</style><g><g id="Settings"><circle class="st0" cx="256" cy="250.8" id="Background_12_" r="215.6"/><g id="Small_gear"><path class="st1" d="M427.3,127.7c-0.2-2.2-1.8-4.1-3.9-4.6l-13.5-3.4c-0.5-0.1-0.9-0.5-1-1c-0.3-1.4-0.7-2.8-1.1-4.1      c-0.1-0.5,0-1,0.4-1.4l10-9.7c1.6-1.5,2-3.9,1.1-6c-2-4.3-4.4-8.4-7.1-12.3c-1.3-1.8-3.6-2.6-5.7-2l-13.8,3.9      c-0.2,0.1-0.5,0-0.7-0.2c-1.1-1.2-2.4-2.4-3.6-3.6c-0.2-0.2-0.3-0.4-0.2-0.7l4-13.8c0.6-2.1-0.2-4.4-2-5.7      c-3.9-2.7-8-5.1-12.3-7.1c-2-1-4.4-0.5-6,1.1l-9.7,10c-0.4,0.4-0.9,0.5-1.4,0.4c-1.4-0.4-2.7-0.8-4.1-1.1c-0.5-0.1-0.9-0.5-1-1      l-3.4-13.5c-0.5-2.2-2.4-3.7-4.6-3.9c-2.3-0.2-4.7-0.3-7.1-0.3s-4.8,0.1-7.1,0.3c-2.2,0.2-4.1,1.8-4.6,3.9l-3.4,13.5      c-0.1,0.5-0.5,0.9-1,1c-1.4,0.3-2.8,0.7-4.1,1.1c-0.5,0.1-1,0-1.4-0.4l-9.7-10c-1.6-1.6-3.9-2-6-1.1c-4.3,2-8.4,4.4-12.3,7.1      c-1.8,1.3-2.6,3.6-2,5.7l3.8,13.4c0.1,0.5,0,1-0.4,1.4c-1,1-2,2-3,3c-0.3,0.4-0.9,0.5-1.4,0.4l-13.4-3.8c-2.1-0.6-4.4,0.2-5.7,2      c-2.7,3.9-5.1,8-7.1,12.3c-1,2-0.5,4.4,1.1,6l10,9.7c0.4,0.4,0.5,0.9,0.4,1.4c-0.4,1.4-0.8,2.7-1.1,4.1c-0.1,0.5-0.5,0.9-1,1      l-13.5,3.4c-2.2,0.5-3.7,2.4-3.9,4.6c-0.2,2.3-0.3,4.7-0.3,7.1c0,2.4,0.1,4.8,0.3,7.1c0.2,2.2,1.8,4.1,3.9,4.6l13.5,3.4      c0.5,0.1,0.9,0.5,1,1c0.3,1.4,0.7,2.8,1.1,4.1c0.1,0.5,0,1-0.4,1.4l-10,9.7c-1.6,1.5-2,3.9-1.1,6c2,4.3,4.4,8.4,7.1,12.3      c1.3,1.8,3.6,2.6,5.7,2l13.4-3.8c0.5-0.1,1,0,1.4,0.4c1,1,2,2,3,3c0.4,0.3,0.5,0.9,0.4,1.4l-3.8,13.4c-0.6,2.1,0.2,4.4,2,5.7      c3.9,2.7,8,5.1,12.3,7.1c2,1,4.4,0.5,6-1.1l9.7-10c0.4-0.4,0.9-0.5,1.4-0.4c1.4,0.4,2.7,0.8,4.1,1.1c0.5,0.1,0.9,0.5,1,1      l3.4,13.5c0.5,2.2,2.4,3.7,4.6,3.9c2.3,0.2,4.7,0.3,7.1,0.3s4.8-0.1,7.1-0.3c2.2-0.2,4.1-1.8,4.6-3.9l3.4-13.5      c0.1-0.5,0.5-0.9,1-1c1.4-0.3,2.8-0.7,4.1-1.1c0.5-0.1,1,0,1.4,0.4l9.7,10c1.6,1.6,3.9,2,6,1.1c4.3-2,8.4-4.4,12.3-7.1      c1.8-1.3,2.6-3.6,2-5.7l-3.8-13.4c-0.1-0.5,0-1,0.4-1.4c1-1,2-2,3-3c0.4-0.4,0.9-0.5,1.4-0.4l13.4,3.8c2.1,0.6,4.4-0.2,5.7-2      c2.7-3.9,5.1-8,7.1-12.3c1-2,0.5-4.4-1.1-6l-10-9.7c-0.4-0.4-0.5-0.9-0.3-1.4c0.4-1.4,0.8-2.7,1.1-4.1c0.1-0.5,0.5-0.9,1-1      l13.5-3.4c2.2-0.5,3.7-2.4,3.9-4.6c0.2-2.3,0.3-4.7,0.3-7.1C427.6,132.4,427.5,130,427.3,127.7z M340.4,177.2      c-23.4,0-42.4-19-42.4-42.4c0-23.4,19-42.4,42.4-42.4s42.4,19,42.4,42.4C382.9,158.2,363.9,177.2,340.4,177.2z"/><path class="st16" d="M411.5,119.5c-0.2-2.2-1.8-4.1-3.9-4.6l-13.5-3.4c-0.5-0.1-0.9-0.5-1-1      c-0.3-1.4-0.7-2.8-1.1-4.1c-0.1-0.5,0-1,0.4-1.4l10-9.7c1.6-1.5,2-3.9,1.1-6c-2-4.3-4.4-8.4-7.1-12.3c-1.3-1.8-3.6-2.6-5.7-2      L376.8,79c-0.2,0.1-0.5,0-0.7-0.2c-1.1-1.2-2.4-2.4-3.6-3.6c-0.2-0.2-0.3-0.4-0.2-0.7l4-13.8c0.6-2.1-0.2-4.4-2-5.7      c-3.9-2.7-8-5.1-12.3-7.1c-2-1-4.4-0.5-6,1.1l-9.7,10c-0.4,0.4-0.9,0.5-1.4,0.4c-1.4-0.4-2.7-0.8-4.1-1.1c-0.5-0.1-0.9-0.5-1-1      l-3.4-13.5c-0.5-2.2-2.4-3.7-4.6-3.9c-2.3-0.2-4.7-0.3-7.1-0.3s-4.8,0.1-7.1,0.3c-2.2,0.2-4.1,1.8-4.6,3.9l-3.4,13.5      c-0.1,0.5-0.5,0.9-1,1c-1.4,0.3-2.8,0.7-4.1,1.1c-0.5,0.1-1,0-1.4-0.4l-9.7-10c-1.6-1.6-3.9-2-6-1.1c-4.3,2-8.4,4.4-12.3,7.1      c-1.8,1.3-2.6,3.6-2,5.7l3.8,13.4c0.1,0.5,0,1-0.4,1.4c-1,1-2,2-3,3c-0.3,0.4-0.9,0.5-1.4,0.4L258.7,75c-2.1-0.6-4.4,0.2-5.7,2      c-2.7,3.9-5.1,8-7.1,12.3c-1,2-0.5,4.4,1.1,6l10,9.7c0.4,0.4,0.5,0.9,0.4,1.4c-0.4,1.4-0.8,2.7-1.1,4.1c-0.1,0.5-0.5,0.9-1,1      l-13.5,3.4c-2.2,0.5-3.7,2.4-3.9,4.6c-0.2,2.3-0.3,4.7-0.3,7.1c0,2.4,0.1,4.8,0.3,7.1c0.2,2.2,1.8,4.1,3.9,4.6l13.5,3.4      c0.5,0.1,0.9,0.5,1,1c0.3,1.4,0.7,2.8,1.1,4.1c0.1,0.5,0,1-0.4,1.4l-10,9.7c-1.6,1.5-2,3.9-1.1,6c2,4.3,4.4,8.4,7.1,12.3      c1.3,1.8,3.6,2.6,5.7,2l13.4-3.8c0.5-0.1,1,0,1.4,0.4c1,1,2,2,3,3c0.4,0.3,0.5,0.9,0.4,1.4l-3.8,13.4c-0.6,2.1,0.2,4.4,2,5.7      c3.9,2.7,8,5.1,12.3,7.1c2,1,4.4,0.5,6-1.1l9.7-10c0.4-0.4,0.9-0.5,1.4-0.4c1.4,0.4,2.7,0.8,4.1,1.1c0.5,0.1,0.9,0.5,1,1      l3.4,13.5c0.5,2.2,2.4,3.7,4.6,3.9c2.3,0.2,4.7,0.3,7.1,0.3s4.8-0.1,7.1-0.3c2.2-0.2,4.1-1.8,4.6-3.9l3.4-13.5      c0.1-0.5,0.5-0.9,1-1c1.4-0.3,2.8-0.7,4.1-1.1c0.5-0.1,1,0,1.4,0.4l9.7,10c1.6,1.6,3.9,2,6,1.1c4.3-2,8.4-4.4,12.3-7.1      c1.8-1.3,2.6-3.6,2-5.7l-3.8-13.4c-0.1-0.5,0-1,0.4-1.4c1-1,2-2,3-3c0.4-0.4,0.9-0.5,1.4-0.4l13.4,3.8c2.1,0.6,4.4-0.2,5.7-2      c2.7-3.9,5.1-8,7.1-12.3c1-2,0.5-4.4-1.1-6l-10-9.7c-0.4-0.4-0.5-0.9-0.3-1.4c0.4-1.4,0.8-2.7,1.1-4.1c0.1-0.5,0.5-0.9,1-1      l13.5-3.4c2.2-0.5,3.7-2.4,3.9-4.6c0.2-2.3,0.3-4.7,0.3-7.1C411.8,124.3,411.7,121.9,411.5,119.5z M324.6,169.1      c-23.4,0-42.4-19-42.4-42.4c0-23.4,19-42.4,42.4-42.4c23.4,0,42.4,19,42.4,42.4C367.1,150.1,348.1,169.1,324.6,169.1z" id="Shape_48_"/><path class="st4" d="M299.2,82.1c4.6-3.7,10.5-5.8,16.9-5.8" id="Line_13_"/><g id="Sparkles_8_"><line class="st11" x1="227.7" x2="218.4" y1="81.9" y2="82.2"/><line class="st11" x1="233.7" x2="237.7" y1="55.9" y2="63.6"/><line class="st11" x1="223.6" x2="232" y1="67.1" y2="72.3"/></g></g><g id="Large_gear"><path class="st1" d="M356.5,329c-0.3-3.5-2.7-6.4-6.1-7.2l-21.2-5.3c-0.8-0.2-1.4-0.8-1.6-1.6c-0.5-2.2-1.1-4.3-1.7-6.5      c-0.2-0.8,0-1.6,0.6-2.2l15.7-15.2c2.5-2.4,3.2-6.2,1.7-9.3c-3.2-6.8-6.9-13.2-11.2-19.3c-2-2.9-5.6-4.1-8.9-3.2l-21.7,6.2      c-0.4,0.1-0.8,0-1.1-0.3c-1.8-1.9-3.7-3.8-5.6-5.6c-0.3-0.3-0.4-0.7-0.3-1.1l6.2-21.7c1-3.3-0.3-6.9-3.2-8.9      c-6.1-4.2-12.5-7.9-19.3-11.2c-3.2-1.5-6.9-0.8-9.3,1.7l-15.2,15.7c-0.6,0.6-1.4,0.8-2.1,0.6c-2.1-0.6-4.3-1.2-6.5-1.7      c-0.8-0.2-1.4-0.8-1.6-1.6l-5.3-21.2c-0.8-3.4-3.8-5.9-7.2-6.1c-3.7-0.3-7.4-0.5-11.1-0.5s-7.5,0.2-11.1,0.5      c-3.5,0.3-6.4,2.8-7.2,6.1l-5.3,21.2c-0.2,0.8-0.8,1.4-1.6,1.6c-2.2,0.5-4.3,1.1-6.5,1.7c-0.8,0.2-1.6,0-2.1-0.6l-15.2-15.7      c-2.4-2.5-6.2-3.2-9.4-1.7c-6.7,3.2-13.2,6.9-19.3,11.2c-2.9,2-4.2,5.6-3.2,8.9l6,21.1c0.2,0.8,0,1.6-0.6,2.1      c-1.6,1.5-3.2,3.1-4.7,4.7c-0.5,0.6-1.4,0.8-2.1,0.6l-21.1-6c-3.4-1-6.9,0.3-8.9,3.2c-4.2,6.1-8,12.5-11.2,19.3      c-1.5,3.2-0.8,6.9,1.7,9.3l15.7,15.2c0.6,0.6,0.8,1.4,0.6,2.2c-0.6,2.1-1.2,4.3-1.7,6.5c-0.2,0.8-0.8,1.4-1.6,1.6l-21.2,5.3      c-3.4,0.9-5.9,3.8-6.1,7.2c-0.3,3.7-0.5,7.4-0.5,11.1c0,3.8,0.2,7.5,0.5,11.1c0.3,3.5,2.7,6.4,6.1,7.2l21.2,5.3      c0.8,0.2,1.4,0.8,1.6,1.6c0.5,2.2,1.1,4.3,1.7,6.5c0.2,0.8,0,1.6-0.6,2.2l-15.7,15.2c-2.5,2.4-3.2,6.2-1.7,9.3      c3.2,6.8,6.9,13.2,11.2,19.3c2,2.9,5.6,4.2,8.9,3.2l21.1-6c0.8-0.2,1.6,0,2.1,0.6c1.5,1.6,3.1,3.2,4.7,4.7      c0.6,0.5,0.8,1.4,0.6,2.1l-6,21.1c-1,3.4,0.3,6.9,3.2,8.9c6.1,4.2,12.5,8,19.3,11.2c3.2,1.5,6.9,0.8,9.4-1.7l15.2-15.7      c0.6-0.6,1.4-0.8,2.1-0.6c2.1,0.6,4.3,1.2,6.5,1.7c0.8,0.2,1.4,0.8,1.6,1.6l5.3,21.2c0.8,3.4,3.8,5.9,7.2,6.1      c3.7,0.3,7.4,0.5,11.1,0.5s7.5-0.2,11.1-0.5c3.5-0.3,6.4-2.8,7.2-6.1L244,449c0.2-0.8,0.8-1.4,1.6-1.6c2.2-0.5,4.3-1.1,6.5-1.7      c0.8-0.2,1.6,0,2.1,0.6l15.2,15.7c2.4,2.5,6.2,3.2,9.4,1.7c6.7-3.2,13.2-6.9,19.3-11.2c2.9-2,4.1-5.6,3.2-8.9l-6-21.1      c-0.2-0.8,0-1.6,0.6-2.1c1.6-1.5,3.2-3.1,4.7-4.7c0.6-0.6,1.4-0.8,2.1-0.6l21.1,6c3.3,1,6.9-0.3,8.9-3.2      c4.2-6.1,8-12.5,11.2-19.3c1.5-3.2,0.8-6.9-1.7-9.3l-15.7-15.2c-0.6-0.6-0.8-1.4-0.5-2.1c0.6-2.1,1.2-4.3,1.7-6.5      c0.2-0.8,0.8-1.4,1.6-1.6l21.2-5.3c3.4-0.9,5.9-3.8,6.1-7.2c0.3-3.7,0.5-7.4,0.5-11.1C356.9,336.4,356.8,332.7,356.5,329z       M220.3,406.7c-36.8,0-66.6-29.8-66.6-66.6c0-36.8,29.8-66.6,66.6-66.6s66.6,29.8,66.6,66.6C286.8,376.9,257,406.7,220.3,406.7z      "/><g id="Sparkles_7_"><line class="st11" x1="372.5" x2="380.3" y1="329.2" y2="324.2"/><line class="st11" x1="380.3" x2="373" y1="354.7" y2="350"/><line class="st11" x1="383.4" x2="373.6" y1="340" y2="339.6"/></g><path class="st17" d="M340.7,320.9c-0.3-3.5-2.7-6.4-6.1-7.2l-21.2-5.3c-0.8-0.2-1.4-0.8-1.6-1.6      c-0.5-2.2-1.1-4.3-1.7-6.5c-0.2-0.8,0-1.6,0.6-2.2l15.7-15.2c2.5-2.4,3.2-6.2,1.7-9.3c-3.2-6.8-6.9-13.2-11.2-19.3      c-2-2.9-5.6-4.1-8.9-3.2l-21.7,6.2c-0.4,0.1-0.8,0-1.1-0.3c-1.8-1.9-3.7-3.8-5.6-5.6c-0.3-0.3-0.4-0.7-0.3-1.1l6.2-21.7      c1-3.3-0.3-6.9-3.2-8.9c-6.1-4.2-12.5-7.9-19.3-11.2c-3.2-1.5-6.9-0.8-9.3,1.7l-15.2,15.7c-0.6,0.6-1.4,0.8-2.1,0.6      c-2.1-0.6-4.3-1.2-6.5-1.7c-0.8-0.2-1.4-0.8-1.6-1.6l-5.3-21.2c-0.8-3.4-3.8-5.9-7.2-6.1c-3.7-0.3-7.4-0.5-11.1-0.5      c-3.7,0-7.5,0.2-11.1,0.5c-3.5,0.3-6.4,2.8-7.2,6.1l-5.3,21.2c-0.2,0.8-0.8,1.4-1.6,1.6c-2.2,0.5-4.3,1.1-6.5,1.7      c-0.8,0.2-1.6,0-2.1-0.6l-15.2-15.7c-2.4-2.5-6.2-3.2-9.4-1.7c-6.7,3.2-13.2,6.9-19.3,11.2c-2.9,2-4.2,5.6-3.2,8.9l6,21.1      c0.2,0.8,0,1.6-0.6,2.1c-1.6,1.5-3.2,3.1-4.7,4.7c-0.5,0.6-1.4,0.8-2.1,0.6l-21.1-6c-3.4-1-6.9,0.3-8.9,3.2      c-4.2,6.1-8,12.5-11.2,19.3c-1.5,3.2-0.8,6.9,1.7,9.3l15.7,15.2c0.6,0.6,0.8,1.4,0.6,2.2c-0.6,2.1-1.2,4.3-1.7,6.5      c-0.2,0.8-0.8,1.4-1.6,1.6l-21.2,5.3c-3.4,0.9-5.9,3.8-6.1,7.2c-0.3,3.7-0.5,7.4-0.5,11.1c0,3.8,0.2,7.5,0.5,11.1      c0.3,3.5,2.7,6.4,6.1,7.2l21.2,5.3c0.8,0.2,1.4,0.8,1.6,1.6c0.5,2.2,1.1,4.3,1.7,6.5c0.2,0.8,0,1.6-0.6,2.2l-15.7,15.2      c-2.5,2.4-3.2,6.2-1.7,9.3c3.2,6.8,6.9,13.2,11.2,19.3c2,2.9,5.6,4.2,8.9,3.2l21.1-6c0.8-0.2,1.6,0,2.1,0.6      c1.5,1.6,3.1,3.2,4.7,4.7c0.6,0.5,0.8,1.4,0.6,2.1l-6,21.1c-1,3.4,0.3,6.9,3.2,8.9c6.1,4.2,12.5,8,19.3,11.2      c3.2,1.5,6.9,0.8,9.4-1.7l15.2-15.7c0.6-0.6,1.4-0.8,2.1-0.6c2.1,0.6,4.3,1.2,6.5,1.7c0.8,0.2,1.4,0.8,1.6,1.6l5.3,21.2      c0.8,3.4,3.8,5.9,7.2,6.1c3.7,0.3,7.4,0.5,11.1,0.5c3.7,0,7.5-0.2,11.1-0.5c3.5-0.3,6.4-2.8,7.2-6.1l5.3-21.2      c0.2-0.8,0.8-1.4,1.6-1.6c2.2-0.5,4.3-1.1,6.5-1.7c0.8-0.2,1.6,0,2.1,0.6l15.2,15.7c2.4,2.5,6.2,3.2,9.4,1.7      c6.7-3.2,13.2-6.9,19.3-11.2c2.9-2,4.1-5.6,3.2-8.9l-6-21.1c-0.2-0.8,0-1.6,0.6-2.1c1.6-1.5,3.2-3.1,4.7-4.7      c0.6-0.6,1.4-0.8,2.1-0.6l21.1,6c3.3,1,6.9-0.3,8.9-3.2c4.2-6.1,8-12.5,11.2-19.3c1.5-3.2,0.8-6.9-1.7-9.3L310.6,366      c-0.6-0.6-0.8-1.4-0.5-2.1c0.6-2.1,1.2-4.3,1.7-6.5c0.2-0.8,0.8-1.4,1.6-1.6l21.2-5.3c3.4-0.9,5.9-3.8,6.1-7.2      c0.3-3.7,0.5-7.4,0.5-11.1C341.1,328.3,341,324.6,340.7,320.9z M204.5,398.6c-36.8,0-66.6-29.8-66.6-66.6      c0-36.8,29.8-66.6,66.6-66.6S271,295.3,271,332C271,368.8,241.2,398.6,204.5,398.6z" id="Shape_47_"/><path class="st4" d="M164.7,262.2c7.3-5.7,16.5-9.2,26.5-9.2" id="Line_12_"/><g id="Lines_21_"><line class="st13" id="Bottom_32_" x1="107.9" x2="116" y1="382.4" y2="388.5"/><line class="st13" id="Middle_31_" x1="107.9" x2="124" y1="374.7" y2="387"/><line class="st13" id="Top_33_" x1="119.6" x2="124" y1="375.7" y2="379.1"/></g></g><g id="Sound"><path class="st18" d="M406.7,267.2l-15.1-9.4c-0.2-0.1-0.4,0-0.4,0.2l0.9,15.8c0,0.1-0.1,0.1-0.1,0.1l-12.4-9.8" id="Right_29_"/><path class="st18" d="M174.7,133.5l13.9,9.1c0.1,0.1,0.1,0.3,0,0.4l-13.8,5.4c-0.1,0-0.1,0.1,0,0.1l13.2,6.7" id="Left_30_"/></g></g></g></svg>