<?xml version="1.0" ?><!DOCTYPE svg  PUBLIC '-//W3C//DTD SVG 1.1//EN'  'http://www.w3.org/Graphics/SVG/1.1/DTD/svg11.dtd'><svg width="512px" height="512px" viewBox="0 0 512 512" id="Layer_1" style="enable-background:new 0 0 512 512;" version="1.1" xml:space="preserve" xmlns="http://www.w3.org/2000/svg" xmlns:xlink="http://www.w3.org/1999/xlink"><style type="text/css">
	.st0{fill:#EEEDF2;}
	.st1{fill:none;stroke:#1E247E;stroke-width:6;stroke-linecap:round;stroke-miterlimit:10;}
	.st2{fill:#EFC12F;stroke:#1E247E;stroke-width:6;stroke-linecap:round;stroke-miterlimit:10;}
	.st3{fill:none;stroke:#1E247E;stroke-width:3;stroke-linecap:round;stroke-miterlimit:10;}
	.st4{fill:#FFFFFF;stroke:#1E247E;stroke-width:3;stroke-linecap:round;stroke-miterlimit:10;}
	.st5{fill:#FCF5F2;stroke:#1E247E;stroke-width:5;stroke-linecap:round;stroke-miterlimit:10;}
	.st6{fill:#FCF5F2;stroke:#1E247E;stroke-width:6;stroke-linecap:round;stroke-miterlimit:10;}
	.st7{fill:#1E247E;}
	.st8{fill:none;stroke:#1E247E;stroke-width:4;stroke-linecap:round;stroke-miterlimit:10;}
	.st9{fill:#EAB8B1;}
	.st10{fill:#DC9695;stroke:#1E247E;stroke-width:4;stroke-linecap:round;stroke-miterlimit:10;}
	.st11{fill:#EECED1;stroke:#1E247E;stroke-width:3;stroke-linecap:round;stroke-miterlimit:10;}
	.st12{fill:#CB7272;stroke:#1E247E;stroke-width:3;stroke-linecap:round;stroke-miterlimit:10;}
	.st13{fill:#D3D5E7;stroke:#1E247E;stroke-width:6;stroke-linecap:round;stroke-miterlimit:10;}
	.st14{fill:#D3D5E7;}
	.st15{fill:#FFFFFF;stroke:#1E247E;stroke-width:5;stroke-linecap:round;stroke-miterlimit:10;}
	.st16{fill:#FFFFFF;stroke:#1E247E;stroke-width:4;stroke-linecap:round;stroke-miterlimit:10;}
	.st17{fill:#ECECEE;}
	.st18{fill:#DA867D;stroke:#1E247E;stroke-width:4;stroke-linecap:round;stroke-miterlimit:10;}
	.st19{fill:#FCF5F2;stroke:#1E247E;stroke-width:4;stroke-linecap:round;stroke-miterlimit:10;}
	.st20{fill:#69AEF8;stroke:#1E247E;stroke-width:6;stroke-linecap:round;stroke-miterlimit:10;}
	.st21{opacity:0.4;fill:#FFFFFF;}
	.st22{opacity:0.7;fill:#FFFFFF;}
	.st23{fill:#69ADF7;stroke:#1E247E;stroke-width:2.5;stroke-linecap:round;stroke-miterlimit:10;}
	.st24{fill:none;stroke:#FFFFFF;stroke-width:7;stroke-linecap:round;stroke-miterlimit:10;}
	.st25{fill:none;stroke:#1E247E;stroke-width:2.5;stroke-linecap:round;stroke-miterlimit:10;}
	.st26{fill:#F0C330;stroke:#1E247E;stroke-width:6;stroke-linecap:round;stroke-miterlimit:10;}
	.st27{opacity:0.3;}
	.st28{fill:#FFFFFF;}
	.st29{fill:#79CAA1;stroke:#1E247E;stroke-width:6;stroke-linecap:round;stroke-miterlimit:10;}
	.st30{fill:#DA867D;stroke:#1E247E;stroke-width:6;stroke-linecap:round;stroke-miterlimit:10;}
	.st31{fill:#FFFFFF;stroke:#1E247E;stroke-width:6;stroke-linecap:round;stroke-miterlimit:10;}
	.st32{fill:#DBE7FE;stroke:#1E247E;stroke-width:5;stroke-linecap:round;stroke-miterlimit:10;}
	.st33{fill:#F2F3F3;}
	.st34{fill:none;stroke:#1E247E;stroke-width:6;stroke-linecap:round;stroke-linejoin:round;stroke-miterlimit:10;}
	.st35{fill:#DBE7FE;stroke:#1E247E;stroke-width:6;stroke-linecap:round;stroke-linejoin:round;stroke-miterlimit:10;}
	.st36{fill:#EFC230;stroke:#1E247E;stroke-width:6;stroke-linecap:round;stroke-linejoin:round;stroke-miterlimit:10;}
	.st37{fill:none;stroke:#1E247E;stroke-width:3;stroke-linecap:round;stroke-linejoin:round;stroke-miterlimit:10;}
	.st38{fill:#F0C330;stroke:#1E247E;stroke-width:6;stroke-linecap:round;stroke-linejoin:round;stroke-miterlimit:10;}
	.st39{fill:#79CAA1;stroke:#1E247E;stroke-width:6;stroke-linecap:round;stroke-linejoin:round;stroke-miterlimit:10;}
	.st40{fill:#FFFFFF;stroke:#1E247E;stroke-width:6;stroke-linecap:round;stroke-linejoin:round;stroke-miterlimit:10;}
	.st41{fill:#DA867D;stroke:#1E247E;stroke-width:6;stroke-linecap:round;stroke-linejoin:round;stroke-miterlimit:10;}
	.st42{fill:#DBE7FE;stroke:#1E247E;stroke-width:6;stroke-linejoin:round;stroke-miterlimit:10;}
	.st43{fill:none;stroke:#1E247E;stroke-width:6;stroke-linejoin:round;stroke-miterlimit:10;}
	.st44{opacity:0.7;}
	.st45{fill:#FFFFFF;stroke:#1E247E;stroke-width:6;stroke-linejoin:round;stroke-miterlimit:10;}
	.st46{fill:none;stroke:#FFFFFF;stroke-width:3;stroke-linecap:round;stroke-linejoin:round;stroke-miterlimit:10;}
	.st47{fill:none;stroke:#1E247E;stroke-width:5;stroke-linecap:round;stroke-miterlimit:10;}
	.st48{fill:#DBE7FE;stroke:#1E247E;stroke-width:6;stroke-linecap:round;stroke-miterlimit:10;}
	.st49{opacity:0.1;fill:#BDBDBD;}
	.st50{fill:#69AEF8;stroke:#1E247E;stroke-width:6;stroke-linecap:round;stroke-linejoin:round;stroke-miterlimit:10;}
	.st51{fill:#79CAA1;stroke:#1E247E;stroke-width:5;stroke-miterlimit:10;}
	.st52{fill:#D2D4E6;stroke:#1E247E;stroke-width:5;stroke-linecap:round;stroke-miterlimit:10;}
	.st53{fill:#69AEF8;stroke:#1E247E;stroke-width:5;stroke-miterlimit:10;}
	.st54{opacity:0.2;fill:none;stroke:#1E247E;stroke-width:5;stroke-linecap:round;stroke-miterlimit:10;}
	.st55{fill:none;stroke:#1E247E;stroke-width:2.5;stroke-linecap:round;stroke-linejoin:round;stroke-miterlimit:10;}
	.st56{fill:#69AEF8;stroke:#1E247E;stroke-width:6;stroke-miterlimit:10;}
	.st57{fill:#DBE7FE;}
	.st58{fill:#FFFFFF;stroke:#1E247E;stroke-width:6;stroke-miterlimit:10;}
	.st59{fill:#D9857D;stroke:#1E247E;stroke-width:5;stroke-miterlimit:10;}
	.st60{fill:none;stroke:#D3D5E7;stroke-width:4.7904;stroke-linecap:round;stroke-miterlimit:10;}
	.st61{fill:#D2D4E6;stroke:#D3D5E7;stroke-width:4.7904;stroke-linecap:round;stroke-miterlimit:10;}
	.st62{fill:#D2D4E6;stroke:#D3D5E7;stroke-width:5.5;stroke-linecap:round;stroke-miterlimit:10;}
	.st63{fill:none;stroke:#D3D5E7;stroke-width:5.5;stroke-linecap:round;stroke-miterlimit:10;}
	.st64{fill:#79CAA1;}
	.st65{fill:#F0C330;}
	.st66{fill:#79CAA1;stroke:#1E247E;stroke-width:6;stroke-miterlimit:10;}
	.st67{opacity:0.8;fill:#FFFFFF;}
	.st68{fill:#DA867D;stroke:#1E247E;stroke-width:6;stroke-miterlimit:10;}
	.st69{fill:#F0C330;stroke:#1E247E;stroke-width:5;stroke-miterlimit:10;}
	.st70{fill:#D2D4E6;}
	.st71{fill:#EEBDBC;stroke:#D3D5E7;stroke-width:5.5;stroke-linecap:round;stroke-miterlimit:10;}
	.st72{fill:#D3D5E7;stroke:#D3D5E7;stroke-width:5.5;stroke-linecap:round;stroke-miterlimit:10;}
</style><g><g id="Support"><circle class="st0" cx="256" cy="256" id="Background" r="215.9"/><g id="Table_line"><line class="st1" id="Right" x1="443.5" x2="471.1" y1="471.2" y2="471.2"/><line class="st1" id="Middle_1_" x1="72.2" x2="431.5" y1="471.2" y2="471.2"/><line class="st1" id="Left" x1="40.4" x2="58.4" y1="471.2" y2="471.2"/></g><g id="Person_with_headphones"><g id="Woman"><g id="Head_1_"><g id="Hair"><g id="Main_area"><path class="st2" d="M289.5,316.3l-56.1,0c-42.6,0-76.3-36-73.8-78.5c1.8-30.6,6.5-58.5,10.2-68.4          c8.7-23.1,43.2-78.2,119.9-51.4c0,0,50.5-11.1,64.9,53.5c4.4,19.7,7.5,43.2,8.9,66.6C366.1,280.6,332,316.3,289.5,316.3z" id="Hair_1_"/></g><path class="st3" d="M240.3,177.1c8.1-1.5,17.2-4.2,27-8.9" id="Line:_middle_top"/><path class="st3" d="M226.9,178.7c2.2-0.1,4.6-0.3,7-0.6" id="Line:_left_top"/><path class="st4" d="M312.2,174.6c2.1,4.3,5.9,8.7,10.2,12c2.3,1.8,4.1,4,5.4,6.6" id="Line:_right_top"/><path class="st3" d="M180,274.6c-4.7-6.4-7.9-14-9-22.2" id="Line:_left_bottom"/></g><g id="Face"><path class="st5" d="M209.1,241.9L209.1,241.9c-2.9,2.7-7.5,2.4-10.2-0.5l-6.8-7.5c-2.7-2.9-2.4-7.5,0.5-10.2         l0,0c2.9-2.7,7.5-2.4,10.2,0.5l6.8,7.5C212.3,234.7,212.1,239.3,209.1,241.9z" id="Left_ear"/><path class="st6" d="M311.3,186c6.6,5.1,10.6,13,10.6,21.3v6.5c0,17.4-4.9,34.5-14.6,48.9         c-5.9,8.7-13.7,17.2-23.9,22.6c-6.4,3.4-13.8,5.5-22.2,5.7l-0.7,0c-8.8-0.1-16.5-2.3-23.3-5.9c-8.3-4.4-15-10.8-20.4-17.6         c-12-15.3-18.1-34.5-18.1-53.9v-3.9c0-10.7,8.7-20.5,19.3-22c14.6-2,45.8,1.2,71.4-20.6c2.3-2,5.8-1.2,7.1,1.5         C299.6,174.8,305,181.2,311.3,186z" id="Face_shape"/><g id="Eyes"><g id="Left_1_"><g><path class="st7" d="M235.1,226.8c5.8,0,5.8-9,0-9C229.3,217.8,229.3,226.8,235.1,226.8L235.1,226.8z"/></g></g><g id="Right_1_"><g><path class="st7" d="M285.4,226.8c5.8,0,5.8-9,0-9C279.6,217.8,279.6,226.8,285.4,226.8L285.4,226.8z"/></g></g></g><path class="st3" d="M267.2,234.1c-1.1,2-3.8,3.5-7,3.5c-3.1,0-5.7-1.4-6.9-3.3" id="Nose"/><g id="Eyebrow"><path class="st8" d="M225,208.9c0,0,9.2-4.3,17.8,0" id="Left_2_"/><path class="st8" d="M295.4,208.9c0,0-9.2-4.3-17.8,0" id="Right_2_"/></g><g id="Cheeks"><ellipse class="st9" cx="225.4" cy="237.5" rx="9.7" ry="6.5"/><ellipse class="st9" cx="295.1" cy="237.5" id="Right_3_" rx="9.7" ry="6.5"/></g><g id="Mouth"><path class="st10" d="M273.4,253.2l-2,5l-0.2,0.5c-0.4,1-1,2-1.9,3.4c-0.3,0.4-0.6,0.8-0.9,1.2          c-0.8,0.9-1.9,1.8-3.1,2.5c-0.1,0.1-0.2,0.1-0.4,0.2c-0.5,0.3-1,0.5-1.5,0.7c-0.5,0.2-1.1,0.4-1.7,0.6          c-0.5,0.2-1,0.2-1.5,0.2c-0.5,0-1-0.1-1.5-0.2h0c-0.6-0.2-1.2-0.4-1.7-0.6c-0.5-0.2-1-0.5-1.5-0.7c-0.1-0.1-0.2-0.1-0.4-0.2          c-1.2-0.7-2.3-1.6-3.1-2.5c-0.4-0.4-0.7-0.8-1-1.3c-0.8-1.1-1.4-2.3-1.8-3.3l-2.2-5.5c-0.4-1,0.3-2.1,1.4-2.1H272          C273.1,251.1,273.8,252.2,273.4,253.2z" id="Mouth_1_"/></g><g id="Tongue"><path class="st11" d="M268.3,263.4c-0.2,0.3-0.7,0.8-1.1,1.1c-0.8,0.7-1.7,1.2-2.7,1.8          c-0.1,0.1-0.3,0.2-0.4,0.2c-0.4,0.2-0.8,0.3-1.2,0.5c-0.4,0.2-0.9,0.3-1.4,0.5c-0.4,0.1-0.8,0.2-1.2,0.2          c-0.4,0-0.8-0.1-1.2-0.2h0c-0.5-0.1-1-0.3-1.4-0.5c-0.4-0.2-0.8-0.3-1.2-0.5c-0.1-0.1-0.3-0.1-0.4-0.2          c-1-0.6-2.1-1.2-2.8-1.9c-0.3-0.3-0.7-0.5-0.9-0.9c0.6-2,3-3.9,5.2-3.9c1.3,0,2.6,0.5,3.4,1.4c0.1,0.1,0.1,0.1,0.2,0          c0.7-0.5,1.5-0.8,2.5-0.8C265.5,260.2,267.7,261.7,268.3,263.4z" id="Tongue_1_"/><path class="st12" d="M260.9,260.9c0,0,1,0.8,1.5,2.4" id="Line"/></g></g></g><g id="Body"><path class="st13" d="M324,469.8H196.5c-14,0-25.5-11.5-25.5-25.5v-79.9c0-36.8,29.9-66.7,66.7-66.7h45.2        c36.8,0,66.7,29.9,66.7,66.7v79.9C349.5,458.3,338.1,469.8,324,469.8z"/></g><g id="Neck"><path class="st6" d="M283.4,285.3v18c0,0.6-0.3,1.2-0.7,1.5c-20.4,16.6-40.5,3.1-44.6,0c-0.5-0.4-0.8-1-0.8-1.6        v-18.1c6.7,3.5,14.4,5.8,23.3,5.9l0.7,0C269.6,290.8,276.9,288.6,283.4,285.3z" id="Neck_1_"/></g></g><g id="Headphones"><path class="st13" d="M348.3,227.5v8c0,11.3-9.2,20.5-20.5,20.5h-15.3v-2.4c6.2-12.3,9.3-25.9,9.3-39.8V207h6       C339.1,207,348.3,216.2,348.3,227.5z" id="Speaker"/><g id="Mic"><g><path class="st1" d="M276.1,269.7h38.5c5.1,0,9.2-4.1,9.2-9.2v-0.6V256"/><path class="st13" d="M278.7,274.1h-4.4c-2.4,0-4.4-2-4.4-4.4l0,0c0-2.4,2-4.4,4.4-4.4h4.4c2.4,0,4.4,2,4.4,4.4l0,0         C283.1,272.1,281.1,274.1,278.7,274.1z"/></g></g></g></g><g id="Speech_balloon"><path class="st14" d="M185.8,65.1v60.8c0,9-7.3,16.2-16.2,16.2h0v21.6c0,1.2-1.3,1.9-2.3,1.3l-36.1-22.9H58.8      c-9,0-16.2-7.3-16.2-16.2V65.1c0-9,7.3-16.2,16.2-16.2h110.8C178.6,48.9,185.8,56.1,185.8,65.1z" id="Shadow_2_"/><g id="Speech_balloon_1_"><path class="st15" d="M178.3,56.9v58.6c0,8.6-7,15.6-15.6,15.6h0v20.8c0,1.1-1.3,1.8-2.2,1.2l-34.8-22H56       c-8.6,0-15.6-7-15.6-15.6V56.9c0-8.6,7-15.6,15.6-15.6h106.7C171.3,41.3,178.3,48.3,178.3,56.9z" id="Shape"/><g id="Text"><line class="st16" id="_x34_th_line" x1="55.2" x2="79.6" y1="98.1" y2="98.1"/><line class="st16" id="_x33_rd_line" x1="55.2" x2="104" y1="88.8" y2="88.8"/><line class="st16" id="_x32_nd_line" x1="55.2" x2="104" y1="79.5" y2="79.5"/><line class="st16" id="_x31_st_line" x1="55.2" x2="104" y1="70.2" y2="70.2"/></g><path class="st17" d="M156.2,115.6h-27.8c-4.3,0-7.8-3.5-7.8-7.8V67.3c0-4.3,3.5-7.8,7.8-7.8h27.8       c4.3,0,7.8,3.5,7.8,7.8v40.5C164.1,112.1,160.6,115.6,156.2,115.6z" id="Body_background"/><g id="Person"><path class="st18" d="M152.5,107.1h-19.3c-0.7,0-1.2-0.5-1.2-1.2v-8c0-5.7,4.6-10.3,10.3-10.3h1.2        c5.7,0,10.3,4.6,10.3,10.3v8C153.7,106.5,153.1,107.1,152.5,107.1z" id="Body_1_"/><circle class="st19" cx="142.8" cy="74.8" id="Head" r="5.8"/></g><path class="st3" d="M47.4,55.4c0.9-2.6,2.7-4.7,5-6" id="Line:_top_left"/></g></g><g id="Laptop"><path class="st13" d="M381.8,471h-243c-11.4,0-20.7-9.3-20.7-20.7v-7.2c0-0.5,0.4-0.9,0.9-0.9h282.6      c0.5,0,0.9,0.4,0.9,0.9v7.2C402.5,461.7,393.2,471,381.8,471z" id="Laptop_bottom"/><path class="st20" d="M360.5,471H160.9c-10.4,0-18.9-8.5-18.9-18.9V332.2c0-8.5,6.9-15.4,15.4-15.4H364      c8.5,0,15.4,6.9,15.4,15.4v119.9C379.4,462.5,370.9,471,360.5,471z" id="Latop_top"/><g><path class="st21" d="M277.7,396c0,7-4.2,13-10.2,15.5c0.4-0.9,0.6-1.9,0.6-2.9c0-4.3-3.5-7.8-7.8-7.8c-4.3,0-7.8,3.5-7.8,7.8       c0,0.8,0.1,1.6,0.4,2.3c-5.4-2.8-9-8.5-9-15c0-9.4,7.6-16.9,16.9-16.9C270.1,379,277.7,386.6,277.7,396z"/><path class="st22" d="M268,408.6c0,1-0.2,2-0.6,2.9c-2.1,0.9-4.3,1.4-6.7,1.4c-2.9,0-5.5-0.7-7.9-2c-0.2-0.7-0.4-1.5-0.4-2.3       c0-4.3,3.5-7.8,7.8-7.8C264.6,400.9,268,404.3,268,408.6z"/></g><path class="st3" d="M360.1,323.6c5.7,0,10.4,4.7,10.4,10.4" id="Line:_right_top_1_"/><line class="st3" id="Line:_right_middle" x1="370.6" x2="370.6" y1="386.2" y2="404.3"/><g id="Lines:_left"><line class="st23" id="Bottom_1_" x1="183" x2="189.6" y1="378.1" y2="383.2"/><line class="st23" id="Middle_2_" x1="183" x2="196.1" y1="371.9" y2="381.9"/><line class="st23" id="Top_1_" x1="192.5" x2="196.1" y1="372.7" y2="375.5"/></g><g id="Laptop_sparkle"><line class="st24" id="Bottom" x1="404" x2="395.6" y1="314.6" y2="317"/><line class="st24" id="Middle" x1="395" x2="388.3" y1="302.5" y2="309.6"/><line class="st24" id="Top" x1="379.7" x2="381.2" y1="303.5" y2="294.4"/></g></g></g></g></svg>