<?xml version="1.0" ?><!DOCTYPE svg  PUBLIC '-//W3C//DTD SVG 1.1//EN'  'http://www.w3.org/Graphics/SVG/1.1/DTD/svg11.dtd'><svg width="512px" height="512px" viewBox="0 0 512 512" id="Layer_1" style="enable-background:new 0 0 512 512;" version="1.1" xml:space="preserve" xmlns="http://www.w3.org/2000/svg" xmlns:xlink="http://www.w3.org/1999/xlink"><style type="text/css">
	.st0{fill:#EEEDF2;}
	.st1{fill:none;stroke:#1E247E;stroke-width:6;stroke-linecap:round;stroke-miterlimit:10;}
	.st2{fill:#EFC12F;stroke:#1E247E;stroke-width:6;stroke-linecap:round;stroke-miterlimit:10;}
	.st3{fill:none;stroke:#1E247E;stroke-width:3;stroke-linecap:round;stroke-miterlimit:10;}
	.st4{fill:#FFFFFF;stroke:#1E247E;stroke-width:3;stroke-linecap:round;stroke-miterlimit:10;}
	.st5{fill:#FCF5F2;stroke:#1E247E;stroke-width:5;stroke-linecap:round;stroke-miterlimit:10;}
	.st6{fill:#FCF5F2;stroke:#1E247E;stroke-width:6;stroke-linecap:round;stroke-miterlimit:10;}
	.st7{fill:#1E247E;}
	.st8{fill:none;stroke:#1E247E;stroke-width:4;stroke-linecap:round;stroke-miterlimit:10;}
	.st9{fill:#EAB8B1;}
	.st10{fill:#DC9695;stroke:#1E247E;stroke-width:4;stroke-linecap:round;stroke-miterlimit:10;}
	.st11{fill:#EECED1;stroke:#1E247E;stroke-width:3;stroke-linecap:round;stroke-miterlimit:10;}
	.st12{fill:#CB7272;stroke:#1E247E;stroke-width:3;stroke-linecap:round;stroke-miterlimit:10;}
	.st13{fill:#D3D5E7;stroke:#1E247E;stroke-width:6;stroke-linecap:round;stroke-miterlimit:10;}
	.st14{fill:#D3D5E7;}
	.st15{fill:#FFFFFF;stroke:#1E247E;stroke-width:5;stroke-linecap:round;stroke-miterlimit:10;}
	.st16{fill:#FFFFFF;stroke:#1E247E;stroke-width:4;stroke-linecap:round;stroke-miterlimit:10;}
	.st17{fill:#ECECEE;}
	.st18{fill:#DA867D;stroke:#1E247E;stroke-width:4;stroke-linecap:round;stroke-miterlimit:10;}
	.st19{fill:#FCF5F2;stroke:#1E247E;stroke-width:4;stroke-linecap:round;stroke-miterlimit:10;}
	.st20{fill:#69AEF8;stroke:#1E247E;stroke-width:6;stroke-linecap:round;stroke-miterlimit:10;}
	.st21{opacity:0.4;fill:#FFFFFF;}
	.st22{opacity:0.7;fill:#FFFFFF;}
	.st23{fill:#69ADF7;stroke:#1E247E;stroke-width:2.5;stroke-linecap:round;stroke-miterlimit:10;}
	.st24{fill:none;stroke:#FFFFFF;stroke-width:7;stroke-linecap:round;stroke-miterlimit:10;}
	.st25{fill:#FFFFFF;stroke:#1E247E;stroke-width:6;stroke-linecap:round;stroke-miterlimit:10;}
	.st26{fill:#DBE7FE;}
	.st27{fill:#D3D5E7;stroke:#1E247E;stroke-width:5;stroke-linecap:round;stroke-miterlimit:10;}
	.st28{fill:#DD9796;stroke:#1E247E;stroke-width:3;stroke-linecap:round;stroke-miterlimit:10;}
	.st29{fill:#EECED1;stroke:#1E247E;stroke-width:2.5;stroke-linecap:round;stroke-miterlimit:10;}
	.st30{fill:#CB7272;stroke:#1E247E;stroke-width:2.5;stroke-linecap:round;stroke-miterlimit:10;}
	.st31{fill:#DBE7FE;stroke:#1E247E;stroke-width:5;stroke-linecap:round;stroke-miterlimit:10;}
	.st32{fill:#69AEF8;stroke:#1E247E;stroke-width:5;stroke-linecap:round;stroke-miterlimit:10;}
	.st33{fill:#DAE6FD;stroke:#1E247E;stroke-width:6;stroke-miterlimit:10;}
	.st34{fill:#FFFFFF;stroke:#1E247E;stroke-width:6;stroke-miterlimit:10;}
	.st35{opacity:0.69;fill:#FFFFFF;}
	.st36{opacity:0.95;fill:#FFFFFF;}
	.st37{fill:#DA867D;stroke:#1E247E;stroke-width:6;stroke-linecap:round;stroke-miterlimit:10;}
	.st38{fill:#F0C330;stroke:#1E247E;stroke-width:6;stroke-linecap:round;stroke-miterlimit:10;}
	.st39{fill:#1E247E;stroke:#1E247E;stroke-width:3;stroke-linecap:round;stroke-miterlimit:10;}
	.st40{fill:#FFFFFF;}
	.st41{fill:#DBE7FE;stroke:#1E247E;stroke-width:6;stroke-linecap:round;stroke-miterlimit:10;}
	.st42{fill:#F1F6FF;}
	.st43{fill:#F0C330;stroke:#1E247E;stroke-width:5;stroke-linecap:round;stroke-miterlimit:10;}
	.st44{fill:none;stroke:#1E247E;stroke-width:5;stroke-linecap:round;stroke-miterlimit:10;}
	.st45{fill:#79CAA1;stroke:#1E247E;stroke-width:5;stroke-linecap:round;stroke-miterlimit:10;}
	.st46{fill:#E09287;stroke:#1E247E;stroke-width:5;stroke-linecap:round;stroke-miterlimit:10;}
	.st47{fill:#DA867D;stroke:#1E247E;stroke-width:5;stroke-linecap:round;stroke-miterlimit:10;}
	.st48{fill:#69AEF8;stroke:#1E247E;stroke-width:5;stroke-miterlimit:10;}
	.st49{fill:#D2D4E6;stroke:#1E247E;stroke-width:5;stroke-linecap:round;stroke-miterlimit:10;}
	.st50{fill:#79CAA1;stroke:#1E247E;stroke-width:5;stroke-miterlimit:10;}
	.st51{fill:#F0C330;stroke:#1E247E;stroke-width:6;stroke-miterlimit:10;}
	.st52{fill:#EEEDF2;stroke:#FFFFFF;stroke-miterlimit:10;}
	.st53{opacity:0.3;fill:#A2655F;}
	.st54{fill:#79CAA1;stroke:#1E247E;stroke-width:4;stroke-linecap:round;stroke-miterlimit:10;}
	.st55{fill:#F0C330;stroke:#1E247E;stroke-width:4.5;stroke-linecap:round;stroke-miterlimit:10;}
	.st56{fill:#D2D4E6;}
	.st57{fill:#FFFFFF;stroke:#1E247E;stroke-width:5.7826;stroke-linejoin:round;stroke-miterlimit:10;}
	.st58{fill:#DA867D;stroke:#1E247E;stroke-width:5.7826;stroke-linejoin:round;stroke-miterlimit:10;}
	.st59{fill:none;stroke:#1E247E;stroke-width:2.8913;stroke-linecap:round;stroke-linejoin:round;stroke-miterlimit:10;}
	.st60{fill:none;stroke:#1E247E;stroke-width:2.4094;stroke-linecap:round;stroke-miterlimit:10;}
	.st61{fill:#EBEBED;}
	.st62{fill:#FBF2ED;stroke:#1E247E;stroke-width:4.5;stroke-linecap:round;stroke-miterlimit:10;}
	.st63{fill:#D3D5E7;stroke:#1E247E;stroke-width:4.5;stroke-linecap:round;stroke-miterlimit:10;}
	.st64{fill:none;stroke:#1E247E;stroke-width:2.5;stroke-linecap:round;stroke-miterlimit:10;}
	.st65{fill:#DA867D;stroke:#1E247E;stroke-width:4.5;stroke-linecap:round;stroke-miterlimit:10;}
	.st66{fill:none;stroke:#FFFFFF;stroke-width:4;stroke-linecap:round;stroke-linejoin:round;stroke-miterlimit:10;}
	.st67{fill:none;stroke:#FFFFFF;stroke-width:3;stroke-linecap:round;stroke-miterlimit:10;}
	.st68{fill:#79CAA1;stroke:#1E247E;stroke-width:6;stroke-linecap:round;stroke-miterlimit:10;}
	.st69{opacity:0.3;fill:#FFFFFF;}
	.st70{fill:none;stroke:#FFFFFF;stroke-width:6;stroke-linecap:round;stroke-miterlimit:10;}
	.st71{fill:#DBE7FE;stroke:#1E247E;stroke-width:6;stroke-miterlimit:10;}
	.st72{fill:#DA867D;stroke:#1E247E;stroke-width:5;stroke-miterlimit:10;}
	.st73{fill:#F5F5F7;stroke:#1E247E;stroke-width:5;stroke-miterlimit:10;}
	.st74{fill:#D5D6DE;stroke:#1E247E;stroke-width:5;stroke-miterlimit:10;}
	.st75{fill:#D3D5E7;stroke:#1E247E;stroke-width:3;stroke-linecap:round;stroke-miterlimit:10;}
	.st76{fill:#79CAA1;}
	.st77{fill:none;stroke:#1E247E;stroke-width:2.7;stroke-linecap:round;stroke-miterlimit:10;}
	.st78{fill:#69AEF8;}
</style><g><g id="Shield_1_"><circle class="st0" cx="257.2" cy="257.9" id="Background_8_" r="215.6"/><g id="Shield"><path class="st56" d="M312,130.7c13,13.3,30.3,21.7,48.8,23.7c8.2,0.9,16.3,1.3,23.7,1.3c2,0,3.9,0.2,5.6,0.4      c18.8,3,19.2,20,18.6,29.3c-0.5,8.1-5.3,84.4-7.1,114.1c-0.9,14.6-4.3,29-10.2,42.4c-4.6,10.5-11.3,21.5-20.6,29.2      c-18.2,15.1-66,49.2-86.8,64c-6,4.2-13.9,4.2-19.9,0c-4.5-3.2-10.2-7.3-16.7-11.9c-23.4-16.7-55.9-40.3-70.1-52.1      c-9.3-7.8-16-18.8-20.6-29.2c-5.9-13.4-9.3-27.8-10.2-42.4c-1.8-29.6-6.6-106-7.1-114.1c-0.7-10.1-0.5-27.1,23.8-27.3      c7.4-0.1,15.9-2.9,24.1-3.8c18.5-2,35.7-10.4,48.8-23.7l15.1-17c12.2-13.7,33.5-13.7,45.7,0L312,130.7z" id="Outer_shadow"/><path class="st71" d="M295.1,135.8c13,13.3,30.3,21.7,48.8,23.7c8.2,0.9,16.3,1.3,23.7,1.3c2,0,3.9,0.2,5.6,0.4      c18.8,3,19.2,20,18.6,29.3c-0.5,8.1-5.3,84.4-7.1,114.1c-0.9,14.6-4.3,29-10.2,42.4c-4.6,10.5-11.3,21.5-20.6,29.2      c-18.2,15.1-66,49.2-86.8,64c-6,4.2-13.9,4.2-19.9,0c-4.5-3.2-10.2-7.3-16.7-11.9c-23.4-16.7-55.9-40.3-70.1-52.1      c-9.3-7.8-16-18.8-20.6-29.2c-5.9-13.4-9.3-27.8-10.2-42.4c-1.8-29.6-6.6-106-7.1-114.1c-0.7-10.1-0.1-29.5,24.2-29.7      c7.4-0.1,15.5-0.4,23.7-1.3c18.5-2,35.7-10.4,48.8-23.7l15.1-17c12.2-13.7,33.5-13.7,45.7,0L295.1,135.8z" id="Shape_38_"/><g id="Lines_14_"><path class="st3" d="M329.7,379c-6.4,4.8-13.2,9.7-19.8,14.5" id="_x34_th_4_"/><path class="st3" d="M343,369.1c-2.3,1.8-4.8,3.6-7.3,5.5" id="_x33_rd_6_"/><path class="st3" d="M365.3,175.2c1,0,1.9,0.1,2.8,0.2c6.5,1,8.6,5.5,9.2,9.7" id="_x32_nd_6_"/><path class="st3" d="M268,125.8c1.6,1,3,2.3,4.3,3.7l10.7,12c2.2,2.2,4.6,4.3,7.1,6.1" id="_x31_st_6_"/></g><path class="st1" d="M238.1,232.4l18.5,24c0.3,0.4,0.8,0.4,1.1,0l31.4-43.2" id="Check_mark"/><g id="Stripe"><path class="st72" d="M417.7,296.7c0.1,0,0-0.3,0-0.4l0-46.1c0-3.2-1.6-6.3-4.4-7.9c-5.3-3-14.2-3.8-24.5-3.2       c-0.9,0-1.9,0.1-2.9,0.2c-0.3,0-0.6,0-0.9,0.1c-0.9,0.1-1.9,0.2-2.8,0.3c-5.1,0.5-10.5,1.2-15.8,2c-23.5,3.7-65,16.9-80.8,22.5       c-6,2.1-16.7,6.2-28.4,10.8c-0.7,0.3-1.4,0.5-2.1,0.8c-20.2,7.9-42.9,17-50.4,19.9c-9.2,3.6-35.1,11.2-56.9,16.9       c-6.1,1.6-11.9,3-16.8,4.2c-0.1,0-0.3,0.1-0.4,0.1c-0.5,0.1-0.9,0.2-1.3,0.3c-9.5,2.1-15.9,2.5-20.1,2.1c-0.3,0-0.6,0-0.8-0.1       c-0.2,0-0.5-0.1-0.7-0.1c-0.2,0-0.4-0.1-0.5-0.1c0,0-0.1,0-0.1,0c-0.3,0-0.5-0.1-0.8-0.1c-2.5-0.5-3.7-1.2-4.2-1.5       c-0.1-0.1-0.2,0-0.2,0.1v46.1c0,3.2,1.9,6.2,4.9,7.4c6.6,2.8,20.7,5.9,47.1,0.4c0.5-0.1,0.9-0.2,1.4-0.3c0,0,0,0,0.1,0       c39.5-8.3,68.6-18.8,68.6-18.8l31.3-13l2.1-0.9l21.7-9c0,0,38.6-16.8,55-22c0,0,22.5-7.8,44.7-11.8c0,0,12.3-2,22.4-1.6       C410.8,294.6,416.2,295.7,417.7,296.7z" id="Shape_37_"/><path class="st73" d="M397,307.9l0.7,10.9c0,0.2-0.1,0.3-0.2,0.3c-1.7,0.4-9.5,2-14.9,2.1       c0.9-4.1,1.2-6.6,1.6-10.9c2.2-0.6,4.7-1.1,7.7-1.6C393,308.7,396,308.1,397,307.9z" id="Right_bottom_part"/><path class="st74" d="M417.7,296.7c0,0,3.9,6.8-22.6,11.6c-1,0.2-2.1,0.4-3.2,0.6c-3,0.5-5.5,1-7.7,1.6       c0.2-1.9,0.4-3.8,0.5-5.7c0.2-2.8,0.4-6,0.6-9.5C385.3,295.2,407.2,292.2,417.7,296.7z" id="Right_top_part"/><path class="st74" d="M131.3,316.3c-0.5,0.1-0.9,0.2-1.4,0.3c-9.8,2-16.3,2.4-20.6,2       c-0.3,0-0.6,0-0.9-0.1c-0.3,0-0.5-0.1-0.7-0.1c-0.2,0-0.4-0.1-0.5-0.1c0,0-0.1,0-0.1,0c-0.3,0-0.5-0.1-0.8-0.1       c-2.6-0.5-3.8-1.2-4.3-1.5c-0.2-0.1-0.2-0.2-0.2-0.2s-2.2-5.3,11.6-9.6c0,0,0,0,0,0c0.4-0.1,0.9-0.3,1.3-0.4       c6-1.9,11-3.3,15-4.4c0.1,0.9,0.1,1.7,0.2,2.4c0,0.1,0,0.2,0,0.4C130.2,308.8,130.6,312.5,131.3,316.3z" id="Left_bottom_part"/><path class="st73" d="M129.8,301.8c-0.2-3.3-0.4-6.6-0.7-10.5c-5,0.8-11.6,2.1-14.7,3.1       c-0.2,0.1-0.3,0.3-0.3,0.5v11.9c5.9-1.9,10.7-3.5,14.6-4.6L129.8,301.8z" id="Left_top_part"/><g id="Lines_13_"><line class="st3" x1="110.9" x2="110.9" y1="356.2" y2="344.5"/><path class="st3" d="M194.6,310.8c1.2-0.4,2.2-0.8,3.1-1.1"/><path class="st3" d="M166.4,319.5c6.9-2,13.4-3.9,18.9-5.7"/></g><g id="Lines_12_"><line class="st23" id="Bottom_22_" x1="283.6" x2="290.1" y1="294.9" y2="299.9"/><line class="st23" id="Middle_20_" x1="283.6" x2="296.7" y1="288.6" y2="298.6"/><line class="st23" id="Top_23_" x1="293.1" x2="296.7" y1="289.5" y2="292.2"/></g></g><g id="Inner_sparkles"><path class="st40" d="M230.5,241.7c-16.4-0.8-16-19.1-16-19.1c-0.4,20-16.9,19.1-16.9,19.1s16.9,1.6,16.9,18.6       C214.5,260.3,216.6,243.3,230.5,241.7" id="Bottom_21_"/><path class="st40" d="M211.7,219.9c-7.7-0.4-7.5-9-7.5-9c-0.2,9.4-7.9,9-7.9,9s7.9,0.8,7.9,8.8       C204.2,228.6,205.2,220.6,211.7,219.9" id="Top_22_"/></g></g><g id="Outer_sparkles"><line class="st24" id="Bottom_20_" x1="311.1" x2="302.7" y1="93.8" y2="96.3"/><line class="st24" id="Middle_19_" x1="302.1" x2="295.3" y1="81.7" y2="88.9"/><line class="st24" id="Top_21_" x1="286.7" x2="288.2" y1="82.8" y2="73.6"/></g><g id="Clouds_1_"><g id="Right_25_"><path class="st15" d="M186.8,226.7c0,13.7-11.1,24.8-24.7,24.8H60.8c-10.8,0-19.6-8.8-19.6-19.6       c0-0.7,0-1.3,0.1-2c0-0.4,0.1-0.9,0.2-1.3c1.3-7.9,7.4-14.2,15.1-15.8c1.3-0.3,2.7-0.5,4.2-0.5c0.1,0,0.1,0,0.2,0       c-0.1-1.1-0.2-2.2-0.2-3.3c0-1.8,0.2-3.6,0.5-5.3c2.4-12.4,13.4-21.8,26.6-21.8c1.7,0,3.4,0.2,5.1,0.5       c3.8-11.5,12.7-20.7,24.1-24.8c3.5-1.3,7.3-2,11.3-2.2c0.6,0,1.3-0.1,1.9-0.1c0.1,0,0.2,0,0.3,0c21.5,0.1,38.9,17.6,38.9,39.2       c0,2.9-0.3,5.7-0.9,8.3C179.1,205.7,186.8,215.3,186.8,226.7z" id="Shape_36_"/><path class="st15" d="M169.4,193.9c0,11.2-4.8,21.3-12.3,28.5" id="Line__x23_3_2_"/><path class="st8" d="M143.9,168.8c4.6,2.2,8.4,5.6,11.1,9.9" id="Line__x23_2_2_"/><path class="st44" d="M87.1,181.9c12.4,0,22.8,8.4,25.6,19.9" id="Line__x23_1_2_"/></g><g id="Right_24_"><path class="st15" d="M424.1,405.7c0,13.7-11.1,24.8-24.7,24.8H298.1c-10.8,0-19.6-8.8-19.6-19.6       c0-0.7,0-1.3,0.1-2c0-0.4,0.1-0.9,0.2-1.3c1.3-7.9,7.4-14.2,15.1-15.8c1.3-0.3,2.7-0.5,4.2-0.5c0.1,0,0.1,0,0.2,0       c-0.1-1.1-0.2-2.2-0.2-3.3c0-1.8,0.2-3.6,0.5-5.3c2.4-12.4,13.4-21.8,26.6-21.8c1.7,0,3.4,0.2,5.1,0.5       c3.8-11.5,12.7-20.7,24.1-24.8c3.5-1.3,7.3-2,11.3-2.2c0.6,0,1.3-0.1,1.9-0.1c0.1,0,0.2,0,0.3,0c21.5,0.1,38.9,17.6,38.9,39.2       c0,2.9-0.3,5.7-0.9,8.3C416.4,384.7,424.1,394.3,424.1,405.7z" id="Shape_35_"/><path class="st15" d="M406.8,372.9c0,11.2-4.8,21.3-12.3,28.5" id="Line__x23_3_1_"/><path class="st8" d="M381.3,347.8c4.6,2.2,8.4,5.6,11.1,9.9" id="Line__x23_2_1_"/><path class="st44" d="M324.5,360.9c12.4,0,22.8,8.4,25.6,19.9" id="Line__x23_1_1_"/></g></g></g></g></svg>