<?xml version="1.0" ?><svg width="500px" height="500px" viewBox="0 0 500 500" xmlns="http://www.w3.org/2000/svg"><g style="isolation:isolate"><path d="M287.837,106.759a46.714,46.714,0,0,1-38.657,12.225,46.809,46.809,0,0,1,53.267-50.043A46.715,46.715,0,0,1,287.837,106.759Z" fill="#59a532"/><path d="M302.592,72.96a46.8,46.8,0,0,0-49.41,46.418q-2.007-.111-4-.394A46.809,46.809,0,0,1,302.447,68.94Q302.606,70.947,302.592,72.96Z" fill="#fff" opacity="0.4"/><path d="M287.836,106.76a46.717,46.717,0,0,1-38.656,12.224,47.049,47.049,0,0,1,.126-8.737q.033.8.1,1.6a46.8,46.8,0,0,0,53.141-41.306A46.681,46.681,0,0,1,287.836,106.76Z" fill="#59a532" opacity="0.5" style="mix-blend-mode:multiply"/><path d="M287.837,106.759a46.714,46.714,0,0,1-38.657,12.225,46.809,46.809,0,0,1,53.267-50.043A46.715,46.715,0,0,1,287.837,106.759Z" fill="none" stroke="#262a5d" stroke-miterlimit="10" stroke-width="7.119"/><path d="M247.65,115.93a206.175,206.175,0,0,1,40.423-33.349,202.582,202.582,0,0,0-34.918,37.863Z" fill="#262a5d"/><path d="M245.372,155.109q.144-2.648.086-5.285c-.007-.439-.015-.878-.038-1.316l-.059-1.314c-.064-.875-.108-1.748-.2-2.617-.15-1.741-.407-3.467-.68-5.18l-.24-1.28c-.082-.426-.152-.853-.253-1.274l-.281-1.267c-.048-.21-.09-.422-.143-.631l-.162-.628a66.183,66.183,0,0,0-3.276-9.743l-.5-1.175-.543-1.155-.27-.577-.135-.288-.146-.283-.579-1.133-.29-.564-.309-.556-.615-1.108c-.2-.369-.432-.727-.646-1.09s-.427-.727-.656-1.081a66.695,66.695,0,0,0-13.08-15.135q-1.9-1.621-3.9-3.114t-4.091-2.825q-2.088-1.338-4.248-2.522c-1.441-.788-2.891-1.512-4.371-2.186l8.4-15.306c1.731,1.09,3.428,2.248,5.062,3.453s3.221,2.466,4.759,3.775,3.028,2.664,4.466,4.071,2.823,2.865,4.16,4.362,2.606,3.054,3.834,4.637c.6.8,1.21,1.6,1.781,2.42.286.411.583.813.86,1.23l.833,1.248c.282.412.539.842.807,1.264s.537.842.788,1.274c.5.863,1.022,1.714,1.491,2.6.238.438.481.873.714,1.313l.677,1.332.337.666.319.675.632,1.35c.21.449.4.911.6,1.365s.4.909.579,1.37l.541,1.384.269.692.249.7.493,1.4.122.349.112.353.223.706.442,1.41.393,1.424a75.4,75.4,0,0,1,2.221,11.518l.086.724c.028.242.044.485.066.727l.123,1.451c.047.483.062.969.09,1.452l.074,1.451c.049,1.936.072,3.866-.018,5.79-.026.961-.1,1.921-.163,2.878l-.127,1.434c-.039.477-.095.953-.151,1.429q-.324,2.853-.855,5.664Z" fill="#e07e0a"/><path d="M251.565,152.669q-.229,1.578-.526,3.142l-5.666-.7q.142-2.648.085-5.285c-.008-.439-.014-.878-.037-1.317l-.059-1.314c-.064-.874-.11-1.747-.2-2.616-.15-1.741-.406-3.467-.68-5.181l-.24-1.28c-.082-.425-.152-.851-.253-1.273l-.281-1.266c-.048-.212-.09-.423-.144-.632l-.161-.627a66.156,66.156,0,0,0-3.276-9.744l-.5-1.175-.543-1.155-.27-.577-.135-.288-.146-.283-.58-1.133-.289-.565-.308-.555-.616-1.109c-.2-.369-.432-.726-.647-1.089s-.425-.728-.654-1.082a66.673,66.673,0,0,0-13.082-15.134q-1.9-1.621-3.894-3.115t-4.091-2.823q-2.088-1.34-4.248-2.523c-1.441-.788-2.89-1.513-4.372-2.186l8.406-15.306c.117.073.235.149.353.225L208.9,84.911c1.531.7,3.03,1.446,4.519,2.261s2.954,1.684,4.393,2.607,2.852,1.9,4.229,2.921,2.718,2.1,4.028,3.22A68.962,68.962,0,0,1,239.6,111.569c.237.366.449.745.677,1.118s.457.745.668,1.126l.637,1.146.319.574.3.585.6,1.171.151.293.139.3.28.6.561,1.194.516,1.215a68.244,68.244,0,0,1,3.387,10.074l.168.648c.055.217.1.436.148.653l.29,1.31c.1.436.177.878.262,1.318l.249,1.322c.281,1.773.547,3.557.7,5.357.1.9.144,1.8.21,2.7l.062,1.359c.024.453.031.908.039,1.362q.055,2.724-.089,5.465Z" fill="#f39a25" opacity="0.5" style="mix-blend-mode:multiply"/><path d="M245.372,155.109q.144-2.648.086-5.285c-.007-.439-.015-.878-.038-1.316l-.059-1.314c-.064-.875-.108-1.748-.2-2.617-.15-1.741-.407-3.467-.68-5.18l-.24-1.28c-.082-.426-.152-.853-.253-1.274l-.281-1.267c-.048-.21-.09-.422-.143-.631l-.162-.628a66.183,66.183,0,0,0-3.276-9.743l-.5-1.175-.543-1.155-.27-.577-.135-.288-.146-.283-.579-1.133-.29-.564-.309-.556-.615-1.108c-.2-.369-.432-.727-.646-1.09s-.427-.727-.656-1.081a66.695,66.695,0,0,0-13.08-15.135q-1.9-1.621-3.9-3.114t-4.091-2.825q-2.088-1.338-4.248-2.522c-1.441-.788-2.891-1.512-4.371-2.186l8.4-15.306c1.731,1.09,3.428,2.248,5.062,3.453s3.221,2.466,4.759,3.775,3.028,2.664,4.466,4.071,2.823,2.865,4.16,4.362,2.606,3.054,3.834,4.637c.6.8,1.21,1.6,1.781,2.42.286.411.583.813.86,1.23l.833,1.248c.282.412.539.842.807,1.264s.537.842.788,1.274c.5.863,1.022,1.714,1.491,2.6.238.438.481.873.714,1.313l.677,1.332.337.666.319.675.632,1.35c.21.449.4.911.6,1.365s.4.909.579,1.37l.541,1.384.269.692.249.7.493,1.4.122.349.112.353.223.706.442,1.41.393,1.424a75.4,75.4,0,0,1,2.221,11.518l.086.724c.028.242.044.485.066.727l.123,1.451c.047.483.062.969.09,1.452l.074,1.451c.049,1.936.072,3.866-.018,5.79-.026.961-.1,1.921-.163,2.878l-.127,1.434c-.039.477-.095.953-.151,1.429q-.324,2.853-.855,5.664Z" fill="none" stroke="#262a5d" stroke-miterlimit="10" stroke-width="7.119"/><path d="M351.676,321.056c0,61.008-45.516,110.471-101.676,110.471S148.324,382.064,148.324,321.056A116.059,116.059,0,0,1,170.6,252.045,70.505,70.505,0,0,0,183.086,223.4c9.374-49.146,35.791-84.558,66.914-84.558s57.549,35.42,66.923,84.567a70.486,70.486,0,0,0,12.482,28.643A116.057,116.057,0,0,1,351.676,321.056Z" fill="#59a532"/><g opacity="0.25"><path d="M224.321,210.16c-4.49,10.669-10.292,18.5-14.374,17.528-4.042-.979-6.028-10.679-3.01-21.885,2.982-11.216,11.041-19.267,16.558-17.74C229.047,189.589,228.772,199.509,224.321,210.16Z" fill="#fff"/></g><g opacity="0.75"><ellipse cx="200.208" cy="285.185" fill="#417444" rx="3.102" ry="5.79"/><ellipse cx="295.218" cy="317.93" fill="#417444" rx="3.102" ry="5.79"/><ellipse cx="189.86" cy="354.372" fill="#417444" rx="2.499" ry="4.664"/><ellipse cx="196.976" cy="362.446" fill="#417444" rx="1.827" ry="3.41"/><ellipse cx="193.323" cy="373.118" fill="#417444" rx="1.827" ry="3.41"/><ellipse cx="286.246" cy="359.036" fill="#417444" rx="1.827" ry="3.41"/><ellipse cx="252.229" cy="219.29" fill="#417444" rx="1.827" ry="3.41"/><ellipse cx="258.863" cy="231.116" fill="#417444" rx="1.827" ry="3.41"/><ellipse cx="250.403" cy="198.492" fill="#417444" rx="4.136" ry="7.031"/></g><path d="M277.423,148.554a42.181,42.181,0,0,0-20.573-5.539c-30.588,0-56.549,35.415-65.761,84.56a71.079,71.079,0,0,1-12.274,28.647,117.449,117.449,0,0,0-21.9,69.007c0,41.657,20.858,77.925,51.663,96.75-35.507-17.235-60.255-55.938-60.255-100.925A116.065,116.065,0,0,1,170.6,252.047,70.532,70.532,0,0,0,183.082,223.4c9.379-49.144,35.792-84.56,66.916-84.56C259.719,138.84,268.99,142.295,277.423,148.554Z" fill="#fff" opacity="0.3"/><path d="M338.049,267.779c-5.256-10.851-11.312-21.351-15.964-32.48-10.134-24.244-6.567-27.17-16.481-48.062a141.309,141.309,0,0,0-34.04-44.913,79.142,79.142,0,0,1,9.907,13.4,101.279,101.279,0,0,1,4.881,9.287c5.759,12.047,8.639,18.07,10.213,22.2,1.278,3.351,2.572,7.234,8.735,38.556,3.076,15.629,2.661,14.192,3.023,15.555,5.566,20.958,15.473,28.8,21.375,41.976,7.776,17.358,4.368,34.517,1.77,47.6-5.519,27.787-25.355,56.238-53.315,72.148a104.047,104.047,0,0,1-90.271,5.428c2.863,1.2,5.779,4.62,8.411,6.4a97.712,97.712,0,0,0,29.957,13.6,87.121,87.121,0,0,0,39.425,1.391,105.984,105.984,0,0,0,65.411-41.807q.579-.808,1.141-1.628c20.92-30.523,24.63-71.59,11.329-106.121C341.914,276.044,340.039,271.887,338.049,267.779Z" fill="#417444" opacity="0.5"/><path d="M351.676,321.056c0,61.008-45.516,110.471-101.676,110.471S148.324,382.064,148.324,321.056A116.059,116.059,0,0,1,170.6,252.045,70.505,70.505,0,0,0,183.086,223.4c9.374-49.146,35.791-84.558,66.914-84.558s57.549,35.42,66.923,84.567a70.486,70.486,0,0,0,12.482,28.643A116.057,116.057,0,0,1,351.676,321.056Z" fill="none" stroke="#262a5d" stroke-linecap="round" stroke-linejoin="round" stroke-width="7.119"/><g opacity="0.25"><path d="M200.7,321.079c-.143,23.87-1.616,44.752-9.944,47.088-8.136,2.41-21.137-18.427-21.091-47.088-.044-28.661,12.955-49.5,21.091-47.087C199.086,276.327,200.559,297.208,200.7,321.079Z" fill="#fff"/></g></g></svg>