<?xml version="1.0" ?><svg width="500px" height="500px" viewBox="0 0 500 500" xmlns="http://www.w3.org/2000/svg"><g style="isolation:isolate"><path d="M305.584,73.042a58.253,58.253,0,0,1-48.2,15.244,58.369,58.369,0,0,1,66.422-62.4A58.251,58.251,0,0,1,305.584,73.042Z" fill="#7bb82f"/><path d="M323.983,30.9A58.362,58.362,0,0,0,262.37,88.778q-2.5-.14-4.99-.493a58.37,58.37,0,0,1,66.423-62.4Q324,28.385,323.983,30.9Z" fill="#fff" opacity="0.4"/><path d="M305.583,73.043a58.248,58.248,0,0,1-48.2,15.242,58.565,58.565,0,0,1,.157-10.894q.041,1,.121,2a58.365,58.365,0,0,0,66.266-51.507A58.214,58.214,0,0,1,305.583,73.043Z" fill="#4ead34"/><path d="M305.584,73.042a58.253,58.253,0,0,1-48.2,15.244,58.369,58.369,0,0,1,66.422-62.4A58.251,58.251,0,0,1,305.584,73.042Z" fill="none" stroke="#262a5d" stroke-miterlimit="10" stroke-width="7.119"/><path d="M256.151,85.036a256.884,256.884,0,0,1,49.727-42.144,253.284,253.284,0,0,0-44.221,46.657Z" fill="#262a5d"/><path d="M252.632,133.333q.178-3.3.106-6.59c-.009-.548-.018-1.095-.047-1.642l-.073-1.638c-.08-1.091-.136-2.179-.254-3.263-.187-2.171-.507-4.323-.847-6.46l-.3-1.6c-.1-.53-.189-1.063-.315-1.589l-.351-1.579c-.06-.262-.112-.526-.178-.787l-.2-.782a82.348,82.348,0,0,0-4.085-12.15l-.623-1.465-.676-1.441-.337-.719-.169-.359-.181-.354-.723-1.412-.362-.7-.385-.692-.767-1.383c-.255-.46-.539-.906-.805-1.359s-.532-.906-.818-1.348a83.111,83.111,0,0,0-16.311-18.872q-2.37-2.022-4.857-3.884t-5.1-3.522q-2.6-1.669-5.3-3.146c-1.8-.981-3.6-1.885-5.45-2.725L213.7,32.785c2.158,1.36,4.274,2.8,6.312,4.307s4.016,3.075,5.934,4.706,3.776,3.323,5.57,5.077,3.52,3.573,5.187,5.439,3.25,3.809,4.781,5.782c.747,1,1.509,1.991,2.22,3.019.358.512.728,1.013,1.073,1.533l1.038,1.557c.352.513.673,1.05,1.007,1.575s.669,1.05.983,1.589c.628,1.077,1.274,2.138,1.859,3.238.3.546.6,1.088.89,1.637l.844,1.661.421.83.4.842.788,1.683c.262.561.5,1.136.743,1.7s.5,1.132.722,1.708l.675,1.726.336.862.311.872.614,1.743.152.436.14.44.277.88.552,1.758.49,1.776a94.239,94.239,0,0,1,2.77,14.363l.107.9c.035.3.054.6.082.906l.153,1.81c.059.6.078,1.207.113,1.811l.092,1.808c.061,2.414.09,4.821-.023,7.22-.031,1.2-.128,2.4-.2,3.589l-.159,1.788c-.049.595-.118,1.189-.188,1.782q-.4,3.558-1.066,7.063Z" fill="#f39a25"/><path d="M260.354,130.29q-.286,1.968-.657,3.918l-7.064-.875q.177-3.3.1-6.591c-.009-.547-.017-1.093-.046-1.641l-.074-1.639c-.08-1.09-.137-2.178-.254-3.263-.187-2.171-.506-4.323-.847-6.459l-.3-1.6c-.1-.53-.189-1.062-.315-1.588l-.351-1.579c-.06-.264-.112-.527-.179-.788l-.2-.782a82.465,82.465,0,0,0-4.085-12.15l-.623-1.466-.677-1.44-.337-.719-.168-.36-.182-.352-.723-1.414-.361-.7-.384-.692-.767-1.382c-.257-.461-.54-.906-.807-1.359s-.531-.907-.816-1.349a83.187,83.187,0,0,0-16.313-18.872q-2.367-2.02-4.856-3.884t-5.1-3.521q-2.6-1.669-5.3-3.146c-1.8-.981-3.6-1.885-5.451-2.725L213.7,32.785q.219.138.44.281L207.152,45.8c1.908.868,3.777,1.8,5.635,2.819s3.682,2.1,5.477,3.251,3.557,2.365,5.274,3.642,3.389,2.622,5.023,4.015A86.032,86.032,0,0,1,245.427,79.04c.3.456.56.929.845,1.394s.569.929.832,1.4l.794,1.43.4.715.375.73.746,1.46.188.365.174.371.349.744.7,1.489.644,1.516a84.882,84.882,0,0,1,4.223,12.562l.21.808c.068.271.122.543.185.814l.362,1.634c.131.543.221,1.094.326,1.643l.31,1.649c.352,2.21.683,4.436.876,6.68.122,1.12.18,2.246.262,3.373l.077,1.694c.031.566.04,1.132.049,1.7.046,2.264.013,4.537-.112,6.814Z" fill="#f39a25" opacity="0.5" style="mix-blend-mode:multiply"/><path d="M252.632,133.333q.178-3.3.106-6.59c-.009-.548-.018-1.095-.047-1.642l-.073-1.638c-.08-1.091-.136-2.179-.254-3.263-.187-2.171-.507-4.323-.847-6.46l-.3-1.6c-.1-.53-.189-1.063-.315-1.589l-.351-1.579c-.06-.262-.112-.526-.178-.787l-.2-.782a82.348,82.348,0,0,0-4.085-12.15l-.623-1.465-.676-1.441-.337-.719-.169-.359-.181-.354-.723-1.412-.362-.7-.385-.692-.767-1.383c-.255-.46-.539-.906-.805-1.359s-.532-.906-.818-1.348a83.111,83.111,0,0,0-16.311-18.872q-2.37-2.022-4.857-3.884t-5.1-3.522q-2.6-1.669-5.3-3.146c-1.8-.981-3.6-1.885-5.45-2.725L213.7,32.785c2.158,1.36,4.274,2.8,6.312,4.307s4.016,3.075,5.934,4.706,3.776,3.323,5.57,5.077,3.52,3.573,5.187,5.439,3.25,3.809,4.781,5.782c.747,1,1.509,1.991,2.22,3.019.358.512.728,1.013,1.073,1.533l1.038,1.557c.352.513.673,1.05,1.007,1.575s.669,1.05.983,1.589c.628,1.077,1.274,2.138,1.859,3.238.3.546.6,1.088.89,1.637l.844,1.661.421.83.4.842.788,1.683c.262.561.5,1.136.743,1.7s.5,1.132.722,1.708l.675,1.726.336.862.311.872.614,1.743.152.436.14.44.277.88.552,1.758.49,1.776a94.239,94.239,0,0,1,2.77,14.363l.107.9c.035.3.054.6.082.906l.153,1.81c.059.6.078,1.207.113,1.811l.092,1.808c.061,2.414.09,4.821-.023,7.22-.031,1.2-.128,2.4-.2,3.589l-.159,1.788c-.049.595-.118,1.189-.188,1.782q-.4,3.558-1.066,7.063Z" fill="none" stroke="#262a5d" stroke-miterlimit="10" stroke-width="7.119"/><path d="M383.415,345.383a133.48,133.48,0,1,1-229.043-97.29,42.844,42.844,0,0,0,12.059-28.958q.009-.392.021-.784a87.337,87.337,0,0,1,174.589,5.442q-.012.381-.027.76a42.888,42.888,0,0,0,10.231,29.681A132.986,132.986,0,0,1,383.415,345.383Z" fill="#b7c631"/><path d="M383.415,345.383a133.48,133.48,0,1,1-229.043-97.29,42.844,42.844,0,0,0,12.059-28.958q.009-.392.021-.784a87.337,87.337,0,0,1,174.589,5.442q-.012.381-.027.76a42.888,42.888,0,0,0,10.231,29.681A132.986,132.986,0,0,1,383.415,345.383Z" fill="#b7c631"/><g opacity="0.3"><path d="M177.553,220.092c-.008.261-.014.523-.021.784a42.841,42.841,0,0,1-12.059,28.958,133.5,133.5,0,0,0,69.243,224,133.487,133.487,0,0,1-80.344-225.736,42.839,42.839,0,0,0,12.059-28.957c.006-.262.013-.523.021-.785a87.411,87.411,0,0,1,106.458-82.5q-2.8-.258-5.645-.338A87.163,87.163,0,0,0,177.553,220.092Z" fill="#fff"/></g><path d="M383.415,345.382A133.49,133.49,0,0,1,165.065,444.2a133.5,133.5,0,0,0,161-206.379,42.9,42.9,0,0,1-10.231-29.682c.01-.252.019-.507.027-.759a87.119,87.119,0,0,0-27.767-66.631,87.358,87.358,0,0,1,52.949,83.045q-.012.381-.027.759a42.883,42.883,0,0,0,10.231,29.682A132.987,132.987,0,0,1,383.415,345.382Z" fill="#9cb92b"/><path d="M383.415,345.383a133.48,133.48,0,1,1-229.043-97.29,42.844,42.844,0,0,0,12.059-28.958q.009-.392.021-.784a87.337,87.337,0,0,1,174.589,5.442q-.012.381-.027.76a42.888,42.888,0,0,0,10.231,29.681A132.986,132.986,0,0,1,383.415,345.383Z" fill="none" stroke="#262a5d" stroke-miterlimit="10" stroke-width="7.119"/><ellipse cx="256.536" cy="163.185" fill="#9cb92b" rx="6.265" ry="4.449" transform="translate(85.431 414.508) rotate(-88.213)"/><ellipse cx="311.788" cy="279.639" fill="#9cb92b" rx="6.265" ry="4.449" transform="translate(22.562 582.556) rotate(-88.213)"/><ellipse cx="200.82" cy="247.76" fill="#9cb92b" rx="6.265" ry="4.449" transform="translate(-53.083 440.756) rotate(-88.213)"/><ellipse cx="314.179" cy="345.687" fill="#9cb92b" rx="6.265" ry="4.449" transform="translate(-41.137 648.934) rotate(-88.213)"/><ellipse cx="253.327" cy="266.061" fill="#9cb92b" rx="6.265" ry="4.449" transform="translate(-20.504 510.968) rotate(-88.213)"/><ellipse cx="291.578" cy="215.898" fill="#9cb92b" rx="6.265" ry="4.449" transform="translate(66.693 500.602) rotate(-88.213)"/><ellipse cx="246.652" cy="337.313" fill="#9cb92b" rx="6.265" ry="4.449" transform="translate(-98.188 573.327) rotate(-88.213)"/><ellipse cx="200.225" cy="409.493" fill="#9cb92b" rx="6.265" ry="4.449" transform="translate(-215.313 596.852) rotate(-88.213)"/><ellipse cx="279.599" cy="409.15" fill="#9cb92b" rx="6.265" ry="4.449" transform="translate(-138.072 675.855) rotate(-88.213)"/><ellipse cx="148.763" cy="359.264" fill="#9cb92b" rx="6.265" ry="4.449" transform="translate(-214.966 496.752) rotate(-88.213)"/><g opacity="0.3"><path d="M219.944,197.007c-5.09,12.123-12.66,20.667-18.4,19.262-5.695-1.419-8.85-12.609-5.556-25.376,3.255-12.774,13.2-21.812,20.7-19.739C224.217,173.222,224.994,184.907,219.944,197.007Z" fill="#fff"/></g><g opacity="0.3"><path d="M191.343,333.589c-4.131,33.287-9.061,63.035-20.686,64.494-11.419,1.643-25.889-30.771-20.977-70.387,4.778-39.66,25.669-65.144,36.121-60.424C196.579,271.969,195.087,300.23,191.343,333.589Z" fill="#fff"/></g></g></svg>