<?xml version="1.0" ?><svg width="500px" height="500px" viewBox="0 0 500 500" xmlns="http://www.w3.org/2000/svg"><g style="isolation:isolate"><path d="M383.482,255.044c0,64.269-35.93,119.108-86.43,140.5-3.705,25.457-23.36,44.885-47.056,44.885s-43.339-19.428-47.045-44.885c-50.5-21.4-86.429-76.236-86.429-140.5,0-60.767,32.112-113.1,78.3-136.713C196.374,85.582,220.481,59.566,250,59.566s53.62,26,55.174,58.754C351.357,141.931,383.482,194.265,383.482,255.044Z" fill="#f9e934"/><ellipse cx="246.58" cy="98.069" fill="#e4de04" rx="5.742" ry="4.078" transform="translate(140.87 341.471) rotate(-88.213)"/><ellipse cx="328.497" cy="238.661" fill="#e4de04" rx="5.742" ry="4.078" transform="translate(79.708 559.556) rotate(-88.213)"/><ellipse cx="198.698" cy="220.769" fill="#e4de04" rx="5.742" ry="4.078" transform="translate(-28.159 412.487) rotate(-88.213)"/><ellipse cx="149.922" cy="208.759" fill="#e4de04" rx="5.742" ry="4.078" transform="translate(-63.41 352.099) rotate(-88.213)"/><ellipse cx="210.724" cy="160.446" fill="#e4de04" rx="5.742" ry="4.078" transform="translate(43.786 366.065) rotate(-88.213)"/><ellipse cx="290.381" cy="280.038" fill="#e4de04" rx="5.742" ry="4.078" transform="translate(1.424 561.545) rotate(-88.213)"/><ellipse cx="335.873" cy="314.879" fill="#e4de04" rx="5.742" ry="4.078" transform="translate(10.674 640.769) rotate(-88.213)"/><ellipse cx="263.19" cy="220.769" fill="#e4de04" rx="5.742" ry="4.078" transform="translate(34.321 476.947) rotate(-88.213)"/><ellipse cx="311.947" cy="176.411" fill="#e4de04" rx="5.742" ry="4.078" transform="translate(125.895 482.706) rotate(-88.213)"/><ellipse cx="271.554" cy="139.319" fill="#e4de04" rx="5.742" ry="4.078" transform="translate(123.835 406.397) rotate(-88.213)"/><ellipse cx="224.468" cy="298.228" fill="#e4de04" rx="5.742" ry="4.078" transform="translate(-80.615 513.287) rotate(-88.213)"/><ellipse cx="207.5" cy="364.387" fill="#e4de04" rx="5.742" ry="4.078" transform="translate(-163.18 560.424) rotate(-88.213)"/><ellipse cx="271.558" cy="342.669" fill="#e4de04" rx="5.742" ry="4.078" transform="translate(-79.413 603.41) rotate(-88.213)"/><ellipse cx="160.332" cy="318.349" fill="#e4de04" rx="5.742" ry="4.078" transform="translate(-162.862 468.675) rotate(-88.213)"/><g opacity="0.3"><path d="M186.385,188.792c-4.666,11.112-11.6,18.942-16.862,17.654-5.221-1.3-8.112-11.556-5.093-23.258,2.983-11.709,12.1-19.992,18.97-18.093C190.3,166.992,191.014,177.7,186.385,188.792Z" fill="#fff"/></g><g opacity="0.3"><path d="M186.628,274c1.493,26.723.407,50.044-9.686,53.718-9.85,3.722-26.671-18.207-28.731-50.822-2.15-32.6,11.935-57.722,22.259-55.516C180.983,223.469,184.8,247.311,186.628,274Z" fill="#fff"/></g><path d="M250,59.566a50.83,50.83,0,0,1,30.88,10.6,49.828,49.828,0,0,0-21.916-5.078c-29.513,0-53.619,26.012-55.177,58.761-46.187,23.611-78.294,75.948-78.294,136.716,0,54.757,26.085,102.666,65.031,128.88-43.867-24.592-74-75.535-74-134.4,0-60.769,32.117-113.105,78.3-136.716C196.37,85.578,220.485,59.566,250,59.566Z" fill="#fff" opacity="0.3"/><path d="M183.327,382.649q.207,1.389.468,2.75a127.694,127.694,0,0,1-10.623-7.617Q178.135,380.449,183.327,382.649Z" fill="#f9e934" style="mix-blend-mode:multiply"/><path d="M285.553,105.413c-.807-16.9-7.617-32.016-18.075-42.676,20.907,7.828,36.25,29.313,37.653,55.041A129.377,129.377,0,0,0,285.553,105.413Z" fill="#f9e934" style="mix-blend-mode:multiply"/><path d="M383.48,255.044c0,64.27-35.93,119.109-86.424,140.5C293.344,421.008,273.693,440.43,250,440.43c-12.878,0-24.573-5.747-33.152-15.087a42.64,42.64,0,0,0,13.528,2.191c23.694,0,43.354-19.431,47.057-44.885,50.5-21.4,86.424-76.241,86.424-140.51,0-50.733-22.383-95.581-56.644-122.748C352.3,143.487,383.48,195.164,383.48,255.044Z" fill="#e4de04" opacity="0.75"/><path d="M383.482,255.044c0,64.269-35.93,119.108-86.43,140.5-3.705,25.457-23.36,44.885-47.056,44.885s-43.339-19.428-47.045-44.885c-50.5-21.4-86.429-76.236-86.429-140.5,0-60.767,32.112-113.1,78.3-136.713C196.374,85.582,220.481,59.566,250,59.566s53.62,26,55.174,58.754C351.357,141.931,383.482,194.265,383.482,255.044Z" fill="none" stroke="#262a5d" stroke-miterlimit="10" stroke-width="7.119"/></g></svg>