<?xml version="1.0" ?><svg width="500px" height="500px" viewBox="0 0 500 500" xmlns="http://www.w3.org/2000/svg"><g style="isolation:isolate"><ellipse cx="245.729" cy="279.269" fill="#f08733" rx="129.209" ry="123.652"/><g opacity="0.3"><path d="M192.044,210.009c-5.581,9.083-11.748,15.418-15.337,13.957-3.549-1.451-3.844-10.5.917-20.156,4.723-9.674,13.384-15.767,17.744-13.722C199.77,192.131,197.579,200.934,192.044,210.009Z" fill="#fff"/></g><g opacity="0.3"><path d="M169.854,278.343c-4.928,21.627-10.118,41.287-18.083,41.146-7.868.023-15.435-23.1-9.418-48.711,5.926-25.666,21.374-40.11,28.006-36.131C177.238,238.659,174.542,256.626,169.854,278.343Z" fill="#fff"/></g><path d="M124.568,284.552c0,41.15,21.08,77.6,53.5,100.08-36.93-21.76-61.55-60.81-61.55-105.36,0-68.29,57.85-123.659,129.21-123.659a132.657,132.657,0,0,1,72.929,21.57,134.014,134.014,0,0,0-64.379-16.28C182.638,160.9,124.568,216.263,124.568,284.552Z" fill="#fff" opacity="0.3"/><path d="M374.937,279.272c0,68.29-57.85,123.65-129.209,123.65a132.09,132.09,0,0,1-84.55-30.15,152.924,152.924,0,0,0,59.01,11.65c74.81,0,135.449-52.36,135.449-116.94,0-51.279-38.23-94.839-91.419-110.609C326.817,165.453,374.937,216.993,374.937,279.272Z" fill="#f08733" opacity="0.5" style="mix-blend-mode:multiply"/><ellipse cx="245.729" cy="279.269" fill="none" rx="129.209" ry="123.652" stroke="#262a5d" stroke-miterlimit="10" stroke-width="7.119"/><path d="M383.477,121.193c-3.51,3.59-35.72,35.36-80.31,28.35-25.259-3.97-41.8-18.38-48.349-24.82,16.51-22.15,50.179-26.47,56.449-27.15C349.147,93.493,377.1,115.823,383.477,121.193Z" fill="#7bb82f"/><path d="M383.477,121.193c-.28.29-.76.77-1.41,1.4-12.11-8.34-37.02-21.96-68.52-18.7-6.17.64-37.779,4.53-55.729,23.65-1.16-1.04-2.16-2-3-2.82,16.51-22.15,50.179-26.47,56.449-27.15C349.147,93.493,377.1,115.823,383.477,121.193Z" fill="#fff" opacity="0.3"/><path d="M383.477,121.193c-3.51,3.59-35.72,35.36-80.31,28.35-25.259-3.97-41.8-18.38-48.349-24.82a47.553,47.553,0,0,1,3.46-4.13,92.6,92.6,0,0,0,42.03,19.12c34.759,5.84,62.619-11.39,77.1-23.24C380.187,118.473,382.237,120.153,383.477,121.193Z" fill="#4ead34"/><path d="M257.312,122.185a88.456,88.456,0,0,0,28.6,18.873A80.359,80.359,0,0,0,319.5,146.9a84.4,84.4,0,0,0,16.967-2.574,93.147,93.147,0,0,0,16.2-5.928,104.268,104.268,0,0,0,14.988-8.7,98,98,0,0,0,13.291-11h0l.248,5.215a104.217,104.217,0,0,0-8.352-6.493c-1.482-.964-2.928-1.986-4.455-2.88l-2.267-1.382-2.32-1.286a95.354,95.354,0,0,0-19.519-8.157,86.928,86.928,0,0,0-20.794-3.365l-5.271-.045-5.258.37a85.562,85.562,0,0,0-10.485,1.549,103.765,103.765,0,0,0-20.211,6.318,65.63,65.63,0,0,0-17.588,10.945,43.51,43.51,0,0,0-11.691,16.223,30.4,30.4,0,0,0-2.235,9.7,27.684,27.684,0,0,0,1.093,9.9l-12.074.6c.643-4.07,1.276-8.041,2.252-11.923a69.928,69.928,0,0,1,3.793-11.3,51.038,51.038,0,0,1,14.1-18.683,75.628,75.628,0,0,1,19.669-11.734A110.441,110.441,0,0,1,301.2,95.864a91.9,91.9,0,0,1,11.172-1.583l5.667-.361,5.677.079a96.468,96.468,0,0,1,22.327,3.589,112.32,112.32,0,0,1,39.737,20.886l3.008,2.429-2.76,2.786h0a104.821,104.821,0,0,1-14.308,11.858,111.549,111.549,0,0,1-16.008,9.29,100.27,100.27,0,0,1-17.45,6.383,91.564,91.564,0,0,1-18.444,2.8,87.468,87.468,0,0,1-36.57-6.36,95.533,95.533,0,0,1-30.918-20.392Z" fill="#262a5d"/><path d="M254.8,124.7l.02.02c-.02.02-.04.04-.04.06Z" fill="#7bb82f"/><path d="M258.407,121.468a337.871,337.871,0,0,1,85.459,4.88,334.263,334.263,0,0,0-84.672,2.2Z" fill="#262a5d"/><g opacity="0.5" style="mix-blend-mode:multiply"><ellipse cx="189.224" cy="260.026" fill="#f08733" rx="3.102" ry="5.79"/><ellipse cx="198.34" cy="335.002" fill="#f08733" rx="2.499" ry="4.664"/><ellipse cx="205.456" cy="343.076" fill="#f08733" rx="1.827" ry="3.41"/><ellipse cx="201.803" cy="353.748" fill="#f08733" rx="1.827" ry="3.41"/><ellipse cx="298.38" cy="234.914" fill="#f08733" rx="1.827" ry="3.41"/><ellipse cx="305.014" cy="246.74" fill="#f08733" rx="1.827" ry="3.41"/><ellipse cx="296.553" cy="214.116" fill="#f08733" rx="4.136" ry="7.031"/></g></g></svg>