<svg t="1650441512015" class="icon" viewBox="0 0 1024 1024" version="1.1" xmlns="http://www.w3.org/2000/svg" p-id="3704" width="18" height="18"><path d="M313.6 198.4h398.933333c8.533333 0 14.933333 2.133333 19.2 8.533333 6.4 6.4 8.533333 12.8 8.533334 19.2v57.6c0 8.533333-2.133333 14.933333-8.533334 19.2-6.4 6.4-12.8 8.533333-19.2 8.533334h-398.933333c-8.533333 0-14.933333-2.133333-19.2-8.533334-6.4-6.4-8.533333-12.8-8.533333-19.2v-57.6c0-8.533333 2.133333-14.933333 8.533333-19.2 4.266667-4.266667 10.666667-8.533333 19.2-8.533333z m-115.2 170.666667h625.066667c8.533333 0 14.933333 2.133333 19.2 8.533333 6.4 6.4 8.533333 12.8 8.533333 19.2v57.6c0 8.533333-2.133333 14.933333-8.533333 19.2-6.4 6.4-12.8 8.533333-19.2 8.533333h-625.066667c-8.533333 0-14.933333-2.133333-19.2-8.533333-6.4-6.4-8.533333-12.8-8.533333-19.2v-57.6c0-8.533333 2.133333-14.933333 8.533333-19.2 4.266667-4.266667 12.8-8.533333 19.2-8.533333z m115.2 170.666666h398.933333c8.533333 0 14.933333 2.133333 19.2 8.533334 6.4 6.4 8.533333 12.8 8.533334 19.2v57.6c0 8.533333-2.133333 14.933333-8.533334 19.2-6.4 6.4-12.8 8.533333-19.2 8.533333h-398.933333c-8.533333 0-14.933333-2.133333-19.2-8.533333-6.4-6.4-8.533333-12.8-8.533333-19.2v-57.6c0-8.533333 2.133333-14.933333 8.533333-19.2 4.266667-4.266667 10.666667-8.533333 19.2-8.533334z m-115.2 170.666667h625.066667c8.533333 0 14.933333 2.133333 19.2 8.533333 6.4 6.4 8.533333 12.8 8.533333 19.2v57.6c0 8.533333-2.133333 14.933333-8.533333 19.2-6.4 6.4-12.8 8.533333-19.2 8.533334h-625.066667c-8.533333 0-14.933333-2.133333-19.2-8.533334-6.4-6.4-8.533333-12.8-8.533333-19.2v-57.6c0-8.533333 2.133333-14.933333 8.533333-19.2 4.266667-4.266667 12.8-8.533333 19.2-8.533333z" p-id="3705"></path></svg>