<svg t="1650855307397"  viewBox="0 0 1024 1024" version="1.1" xmlns="http://www.w3.org/2000/svg" p-id="2503" width="16" height="16"><path d="M839.036 130.458h-654.072c-30.102 0-54.506 24.404-54.506 54.506v654.072c0 30.102 24.404 54.506 54.506 54.506h654.072c30.102 0 54.506-24.404 54.506-54.506v-654.072c0-30.102-24.404-54.506-54.506-54.506zM839.036 811.786c0 15.050-12.196 27.249-27.249 27.249h-598.721c-15.050 0-27.249-12.196-27.249-27.249v-598.721c0-15.050 12.196-27.249 27.249-27.249h598.721c15.049 0 27.249 12.196 27.249 27.249v598.721zM730.028 421.639h-127.324v-126.817c0-30.091-24.402-54.499-54.501-54.499h-252.755c-30.098 0-54.501 24.401-54.501 54.499v253.89c0 30.091 24.402 54.499 54.501 54.499h127.324v126.817c0 30.091 24.402 54.499 54.501 54.499h252.755c30.098 0 54.501-24.401 54.501-54.499v-253.89c0-30.091-24.402-54.499-54.501-54.499zM323.36 548.137c-15.050 0-27.251-12.207-27.251-27.26v-197.694c0-15.055 12.201-27.26 27.251-27.26h196.928c15.051 0 27.251 12.207 27.251 27.26v98.458h-70.267c-30.098 0-54.501 24.401-54.501 54.499v71.998h-99.411zM547.539 477.24v43.638c0 15.055-12.202 27.26-27.251 27.26h-42.353v-43.638c0-15.055 12.202-27.26 27.251-27.26h42.353zM729.365 702.193c0 15.055-12.201 27.26-27.251 27.26h-196.928c-15.050 0-27.251-12.207-27.251-27.26v-98.981h70.267c30.098 0 54.501-24.401 54.501-54.499v-71.474h99.411c15.050 0 27.251 12.207 27.251 27.26v197.693z" p-id="2504" ></path></svg>