<svg t="1650855321307" class="icon" viewBox="0 0 1024 1024" version="1.1" xmlns="http://www.w3.org/2000/svg" p-id="2701" width="16" height="16"><path d="M813.752 223.168H209.584a25.168 25.168 0 0 0-25.168 25.176v528.648a25.16 25.16 0 0 0 25.168 25.168h604.168a25.152 25.152 0 0 0 25.168-25.168V248.344a25.168 25.168 0 0 0-25.168-25.176z m-8.08 544.168H217.664V258h588.008v509.336z" p-id="2702"></path><path d="M406.752 454.168a44.24 44.24 0 1 0-0.008-88.48 44.24 44.24 0 0 0 0.008 88.48zM474.72 611.368l-67.968-94.376-110.584 158.336h442.328L605.8 426.52z" p-id="2703"></path></svg>