<svg t="1650854954008" class="icon" viewBox="0 0 1024 1024" version="1.1" xmlns="http://www.w3.org/2000/svg" p-id="14038" width="16" height="16"><path d="M720.832 692.352h-12.64L530.208 260.448a19.968 19.968 0 0 0-36.416 0L316.608 692.352h-13.44c-7.904 0-15.04 3.968-17.408 11.072a19.872 19.872 0 0 0 18.208 27.68h56.96c9.504 0 18.208-6.336 19.776-15.808a18.752 18.752 0 0 0-15.808-21.344l36.384-87.808h159.776l34.816 87.808a18.88 18.88 0 0 0-15.808 21.344c1.568 9.504 10.272 15.808 19.776 15.808h121.024c7.904 0 15.04-3.968 17.408-11.072a19.2 19.2 0 0 0-17.408-27.68z m-306.112-125.76l64.864-158.208 64.864 158.208H414.72z m-246.816-80.704c0 6.336 5.536 11.872 11.872 11.872s11.872-5.536 11.872-11.872v-23.744c0-6.336-5.536-11.872-11.872-11.872s-11.872 5.536-11.872 11.872v23.744z m0-75.936c0 6.336 5.536 11.872 11.872 11.872s11.872-5.536 11.872-11.872v-23.744c0-6.336-5.536-11.872-11.872-11.872s-11.872 5.536-11.872 11.872v23.744z m0 151.872c0 6.336 5.536 11.872 11.872 11.872s11.872-5.536 11.872-11.872v-23.744c0-6.336-5.536-11.872-11.872-11.872s-11.872 5.536-11.872 11.872v23.744z m11.872-216.736a12.16 12.16 0 0 0 11.872-11.872v-23.744c-0.8-6.336-5.536-11.072-11.872-11.072s-11.872 5.536-11.872 11.872v23.744c0 6.336 4.736 11.072 11.872 11.072z m-11.872 292.672c0 6.336 5.536 11.872 11.872 11.872s11.872-5.536 11.872-11.872v-23.744c0-6.336-5.536-11.872-11.872-11.872s-11.872 5.536-11.872 11.872v23.744z m0 75.936c0 7.104 4.736 11.872 11.872 11.872a12.16 12.16 0 0 0 11.872-11.872v-23.744c0-6.336-5.536-11.872-11.872-11.872s-11.872 5.536-11.872 11.872v23.744z m665.248-227.808c0 6.336 5.536 11.872 11.872 11.872s11.872-5.536 11.872-11.872v-23.744c0-6.336-5.536-11.872-11.872-11.872s-11.872 5.536-11.872 11.872v23.744z m0-75.936c0 6.336 5.536 11.872 11.872 11.872s11.872-5.536 11.872-11.872v-23.744c0-6.336-5.536-11.872-11.872-11.872s-11.872 5.536-11.872 11.872v23.744z m0 151.872c0 6.336 5.536 11.872 11.872 11.872s11.872-5.536 11.872-11.872v-23.744c0-6.336-5.536-11.872-11.872-11.872s-11.872 5.536-11.872 11.872v23.744z m11.072-216.736a12.16 12.16 0 0 0 11.872-11.872v-23.744c0-6.336-5.536-11.872-11.872-11.872s-11.872 5.536-11.872 11.872v23.744c0.8 7.104 5.536 11.872 11.872 11.872z m-11.072 292.672c0 6.336 5.536 11.872 11.872 11.872s11.872-5.536 11.872-11.872v-23.744c0-6.336-5.536-11.872-11.872-11.872s-11.872 5.536-11.872 11.872v23.744z m0 75.936c0 6.336 5.536 11.872 11.872 11.872s11.872-5.536 11.872-11.872v-23.744c0-6.336-5.536-11.872-11.872-11.872s-11.872 5.536-11.872 11.872v23.744z m-347.264 119.456h-23.744c-6.336 0-11.872 5.536-11.872 11.872s5.536 11.872 11.872 11.872h23.744c6.336 0 11.872-5.536 11.872-11.872s-5.536-11.872-11.872-11.872z m-75.936 0h-23.744c-6.336 0-11.872 5.536-11.872 11.872s5.536 11.872 11.872 11.872h23.744c6.336 0 11.872-5.536 11.872-11.872s-5.536-11.872-11.872-11.872z m151.872 0h-23.744c-6.336 0-11.872 5.536-11.872 11.872s5.536 11.872 11.872 11.872h23.744c6.336 0 11.872-5.536 11.872-11.872s-5.536-11.872-11.872-11.872z m-228.608 0h-23.744c-6.336 0-11.872 5.536-11.872 11.872s5.536 11.872 11.872 11.872h23.744c6.336 0 11.872-5.536 11.872-11.872s-4.736-11.872-11.872-11.872z m-75.136-7.904H222.496v-11.072a12.48 12.48 0 0 0-12.672-12.64h-18.976v-37.984c0-7.104-5.536-12.64-11.872-12.64s-11.872 5.536-11.872 12.64v37.984h-10.272a12.512 12.512 0 0 0-12.672 12.64v52.992a12.48 12.48 0 0 0 12.672 12.64h52.992a12.512 12.512 0 0 0 12.672-12.64v-11.072h35.584c7.104-1.568 12.672-7.904 12.672-14.24 0-7.104-12.672-16.608-12.672-16.608z m379.68 7.904h-23.744c-6.336 0-11.872 5.536-11.872 11.872s5.536 11.872 11.872 11.872h23.744c6.336 0 11.872-5.536 11.872-11.872s-5.536-11.872-11.872-11.872z m75.936 0h-23.744c-6.336 0-11.872 5.536-11.872 11.872s5.536 11.872 11.872 11.872h23.744c6.336 0 11.872-5.536 11.872-11.872s-4.736-11.872-11.872-11.872z m-251.52-642.304h23.744c6.336 0 11.872-5.536 11.872-11.872s-5.536-11.872-11.872-11.872h-23.744c-6.336 0-11.872 5.536-11.872 11.872s5.536 11.872 11.872 11.872z m-75.936 0h23.744c6.336 0 11.872-5.536 11.872-11.872s-5.536-11.872-11.872-11.872h-23.744c-6.336 0-11.872 5.536-11.872 11.872s5.536 11.872 11.872 11.872z m151.872 0h23.744c6.336 0 11.872-5.536 11.872-11.872s-5.536-11.872-11.872-11.872h-23.744c-6.336 0-11.872 5.536-11.872 11.872s5.536 11.872 11.872 11.872z m-227.808 0h23.744c6.336 0 11.872-5.536 11.872-11.872s-5.536-11.872-11.872-11.872h-23.744c-7.104 0.8-11.872 5.536-11.872 12.672s4.736 11.072 11.872 11.072zM257.28 167.904H221.696v-11.072a12.512 12.512 0 0 0-12.672-12.672H156.832a12.512 12.512 0 0 0-12.672 12.672v52.992c0 7.104 5.536 12.672 12.672 12.672h11.072v35.584c1.568 7.104 7.904 12.672 14.24 12.672s16.608-12.672 16.608-12.672V222.496h11.072a12.512 12.512 0 0 0 12.672-12.672v-18.976h35.584a12.16 12.16 0 0 0 11.872-11.872 12.224 12.224 0 0 0-12.672-11.072z m356.768 22.944h23.744c6.336 0 11.872-5.536 11.872-11.872s-5.536-11.872-11.872-11.872h-23.744c-6.336 0-11.872 5.536-11.872 11.872s5.536 11.872 11.872 11.872z m76.736 0h23.744c6.336 0 11.072-4.736 11.072-11.072s-5.536-11.872-11.872-11.872h-23.744c-6.336 0-11.872 5.536-11.872 11.872s5.536 11.072 12.64 11.072z m176.384-46.656h-52.992a12.48 12.48 0 0 0-12.64 12.672v11.072h-35.584c-7.104 1.568-12.64 7.904-12.64 14.24s12.64 16.608 12.64 16.608h35.584v11.072c0 7.104 5.536 12.672 12.64 12.672h18.976v37.984c0 7.104 5.536 12.672 11.872 12.672s11.872-5.536 11.872-12.672V222.528h11.072a12.48 12.48 0 0 0 12.64-12.672V156.864a13.76 13.76 0 0 0-13.44-12.672z m0 657.312h-11.072v-35.584c-1.568-7.104-7.904-12.64-14.24-12.64-7.104 0-16.608 12.64-16.608 12.64v35.584h-11.072a12.48 12.48 0 0 0-12.64 12.64v18.976h-35.584c-6.336 0-11.872 5.536-11.872 11.872s5.536 11.872 11.872 11.872h35.584v11.072a12.48 12.48 0 0 0 12.64 12.64h52.992a12.48 12.48 0 0 0 12.64-12.64v-52.992c0-7.904-5.536-13.44-12.64-13.44z" p-id="14039"></path></svg>