<svg t="1650441458823"  viewBox="0 0 1024 1024" version="1.1" xmlns="http://www.w3.org/2000/svg" p-id="3554" width="18" height="18"><path d="M198.4 198.4h341.333333c8.533333 0 14.933333 2.133333 19.2 8.533333 6.4 6.4 8.533333 12.8 8.533334 19.2v57.6c0 8.533333-2.133333 14.933333-8.533334 19.2-6.4 6.4-12.8 8.533333-19.2 8.533334h-341.333333c-8.533333 0-14.933333-2.133333-19.2-8.533334-6.4-6.4-8.533333-12.8-8.533333-19.2v-57.6c0-8.533333 2.133333-14.933333 8.533333-19.2 4.266667-4.266667 12.8-8.533333 19.2-8.533333z m0 170.666667h569.6c8.533333 0 14.933333 2.133333 19.2 8.533333 6.4 6.4 8.533333 12.8 8.533333 19.2v57.6c0 8.533333-2.133333 14.933333-8.533333 19.2-6.4 6.4-12.8 8.533333-19.2 8.533333h-569.6c-8.533333 0-14.933333-2.133333-19.2-8.533333-6.4-6.4-8.533333-12.8-8.533333-19.2v-57.6c0-8.533333 2.133333-14.933333 8.533333-19.2 4.266667-4.266667 12.8-8.533333 19.2-8.533333z m0 170.666666h454.4c8.533333 0 14.933333 2.133333 19.2 8.533334 6.4 6.4 8.533333 12.8 8.533333 19.2v57.6c0 8.533333-2.133333 14.933333-8.533333 19.2-6.4 6.4-12.8 8.533333-19.2 8.533333h-454.4c-8.533333 0-14.933333-2.133333-19.2-8.533333-6.4-6.4-8.533333-12.8-8.533333-19.2v-57.6c0-8.533333 2.133333-14.933333 8.533333-19.2 4.266667-4.266667 12.8-8.533333 19.2-8.533334z m0 170.666667h625.066667c8.533333 0 14.933333 2.133333 19.2 8.533333 6.4 6.4 8.533333 12.8 8.533333 19.2v57.6c0 8.533333-2.133333 14.933333-8.533333 19.2-6.4 6.4-12.8 8.533333-19.2 8.533334h-625.066667c-8.533333 0-14.933333-2.133333-19.2-8.533334-6.4-6.4-8.533333-12.8-8.533333-19.2v-57.6c0-8.533333 2.133333-14.933333 8.533333-19.2 4.266667-4.266667 12.8-8.533333 19.2-8.533333z" p-id="3555"></path></svg>