 <svg t="1650442784286"  viewBox="0 0 1170 1024" version="1.1" xmlns="http://www.w3.org/2000/svg"
          p-id="1712" >
          <path
            d="M1170.285714 36.571429a36.571429 36.571429 0 0 1-36.571428 36.571428H36.571429a36.571429 36.571429 0 0 1 0-73.142857h1097.142857a36.571429 36.571429 0 0 1 36.571428 36.571429z m0 950.857142a36.571429 36.571429 0 0 1-36.571428 36.571429H36.571429a36.571429 36.571429 0 0 1 0-73.142857h1097.142857a36.571429 36.571429 0 0 1 36.571428 36.571428zM256 365.714286h658.285714a36.571429 36.571429 0 0 1 36.571429 36.571428v219.428572a36.571429 36.571429 0 0 1-36.571429 36.571428h-658.285714a36.571429 36.571429 0 0 1-36.571429-36.571428v-219.428572a36.571429 36.571429 0 0 1 36.571429-36.571428z"
            fill="#515151" p-id="1713"></path>
        </svg>