 <svg t="1650442674784" viewBox="0 0 1170 1024" version="1.1" xmlns="http://www.w3.org/2000/svg"
          p-id="920" >
          <path
            d="M1170.285714 987.428571a36.571429 36.571429 0 0 0-36.571428-36.571428H36.571429a36.571429 36.571429 0 0 0 0 73.142857h1097.142857a36.571429 36.571429 0 0 0 36.571428-36.571429z m-219.428571-146.285714v-512a36.571429 36.571429 0 0 0-36.571429-36.571428h-219.428571a36.571429 36.571429 0 0 0-36.571429 36.571428v512a36.571429 36.571429 0 0 0 36.571429 36.571429h219.428571a36.571429 36.571429 0 0 0 36.571429-36.571429z m-438.857143 0V36.571429a36.571429 36.571429 0 0 0-36.571429-36.571429h-219.428571a36.571429 36.571429 0 0 0-36.571429 36.571429v804.571428a36.571429 36.571429 0 0 0 36.571429 36.571429h219.428571a36.571429 36.571429 0 0 0 36.571429-36.571429z"
            fill="#666666" p-id="921"></path>
        </svg>