 <svg
          t="1650442754876"
          viewBox="0 0 1024 1024"
          version="1.1"
          xmlns="http://www.w3.org/2000/svg"
          p-id="1514"
          
        >
          <path
            d="M477.312 576V448H266.688a32 32 0 0 1-32-32v-192a32 32 0 0 1 32-32h210.624V34.688a34.688 34.688 0 0 1 69.376 0V192h210.624a32 32 0 0 1 32 32v192a32 32 0 0 1-32 32H546.688v128H896a32 32 0 0 1 32 32v192a32 32 0 0 1-32 32H546.688v157.312a34.688 34.688 0 1 1-69.376 0V832H128a32 32 0 0 1-32-32v-192A32 32 0 0 1 128 576h349.312z"
            fill="#666666"
            p-id="1515"
          ></path>
        </svg>