 <svg t="1650442732396"  viewBox="0 0 1243 1024" version="1.1" xmlns="http://www.w3.org/2000/svg"
          p-id="1316" >
          <path
            d="M548.571429 472.356571h146.285714V231.643429a36.571429 36.571429 0 0 1 36.571428-36.571429h219.428572a36.571429 36.571429 0 0 1 36.571428 36.571429v240.713142h179.785143a39.643429 39.643429 0 0 1 0 79.286858H987.428571v240.713142a36.571429 36.571429 0 0 1-36.571428 36.571429h-219.428572a36.571429 36.571429 0 0 1-36.571428-36.571429V551.643429h-146.285714V950.857143a36.571429 36.571429 0 0 1-36.571429 36.571428H292.571429a36.571429 36.571429 0 0 1-36.571429-36.571428V551.643429H76.214857a39.643429 39.643429 0 1 1 0-79.286858H256V73.142857A36.571429 36.571429 0 0 1 292.571429 36.571429h219.428571a36.571429 36.571429 0 0 1 36.571429 36.571428v399.213714z"
            fill="#666666" p-id="1317"></path>
</svg>