<?xml version="1.0" standalone="no"?><!DOCTYPE svg PUBLIC "-//W3C//DTD SVG 1.1//EN" "http://www.w3.org/Graphics/SVG/1.1/DTD/svg11.dtd"><svg t="1721113358706" class="icon" viewBox="0 0 1024 1024" version="1.1" xmlns="http://www.w3.org/2000/svg" p-id="5436" xmlns:xlink="http://www.w3.org/1999/xlink" width="200" height="200"><path d="M874.666667 810.666667a21.333333 21.333333 0 0 0-21.333334-21.333334H213.333333a21.333333 21.333333 0 1 0 0 42.666667h640a21.333333 21.333333 0 0 0 21.333334-21.333333z m-384-576a42.666667 42.666667 0 0 0-42.666667-42.666667h-85.333333a42.666667 42.666667 0 0 0-42.666667 42.666667v426.666666a42.666667 42.666667 0 0 0 42.666667 42.666667h85.333333a42.666667 42.666667 0 0 0 42.666667-42.666667v-426.666666z m256 213.333333a42.666667 42.666667 0 0 0-42.666667-42.666667h-85.333333a42.666667 42.666667 0 0 0-42.666667 42.666667v213.333333a42.666667 42.666667 0 0 0 42.666667 42.666667h85.333333a42.666667 42.666667 0 0 0 42.666667-42.666667v-213.333333z" fill="#666666" p-id="5437"></path></svg>