<?xml version="1.0" standalone="no"?><!DOCTYPE svg PUBLIC "-//W3C//DTD SVG 1.1//EN" "http://www.w3.org/Graphics/SVG/1.1/DTD/svg11.dtd"><svg t="1721113328975" class="icon" viewBox="0 0 1024 1024" version="1.1" xmlns="http://www.w3.org/2000/svg" p-id="5260" xmlns:xlink="http://www.w3.org/1999/xlink" width="200" height="200"><path d="M512 170.666667a21.333333 21.333333 0 0 1 21.333333 21.333333V298.666667h85.333334a42.666667 42.666667 0 0 1 42.666666 42.666666v85.333334a42.666667 42.666667 0 0 1-42.666666 42.666666h-85.333334v85.333334H725.333333a42.666667 42.666667 0 0 1 42.666667 42.666666v85.333334a42.666667 42.666667 0 0 1-42.666667 42.666666h-192v106.666667a21.333333 21.333333 0 1 1-42.666666 0V725.333333H298.666667a42.666667 42.666667 0 0 1-42.666667-42.666666v-85.333334a42.666667 42.666667 0 0 1 42.666667-42.666666h192v-85.333334h-85.333334a42.666667 42.666667 0 0 1-42.666666-42.666666V341.333333a42.666667 42.666667 0 0 1 42.666666-42.666666h85.333334V192A21.333333 21.333333 0 0 1 512 170.666667z" fill="#666666" p-id="5261"></path></svg>