<?xml version="1.0" standalone="no"?><!DOCTYPE svg PUBLIC "-//W3C//DTD SVG 1.1//EN" "http://www.w3.org/Graphics/SVG/1.1/DTD/svg11.dtd"><svg t="1721113281502" class="icon" viewBox="0 0 1024 1024" version="1.1" xmlns="http://www.w3.org/2000/svg" p-id="4028" xmlns:xlink="http://www.w3.org/1999/xlink" width="200" height="200"><path d="M234.666667 170.666667a21.333333 21.333333 0 0 1 21.333333 21.333333v640a21.333333 21.333333 0 1 1-42.666667 0v-640a21.333333 21.333333 0 0 1 21.333334-21.333333zM810.666667 554.666667a42.666667 42.666667 0 0 1 42.666666 42.666666v85.333334a42.666667 42.666667 0 0 1-42.666666 42.666666H384a42.666667 42.666667 0 0 1-42.666667-42.666666v-85.333334a42.666667 42.666667 0 0 1 42.666667-42.666666h426.666667z m-213.333334-256a42.666667 42.666667 0 0 1 42.666667 42.666666v85.333334a42.666667 42.666667 0 0 1-42.666667 42.666666H384a42.666667 42.666667 0 0 1-42.666667-42.666666V341.333333a42.666667 42.666667 0 0 1 42.666667-42.666666h213.333333z" fill="#666666" p-id="4029"></path></svg>