<?xml version="1.0" standalone="no"?><!DOCTYPE svg PUBLIC "-//W3C//DTD SVG 1.1//EN" "http://www.w3.org/Graphics/SVG/1.1/DTD/svg11.dtd"><svg t="1721113301433" class="icon" viewBox="0 0 1024 1024" version="1.1" xmlns="http://www.w3.org/2000/svg" p-id="4204" xmlns:xlink="http://www.w3.org/1999/xlink" width="200" height="200"><path d="M832 170.666667a21.333333 21.333333 0 0 0-21.333333 21.333333v640a21.333333 21.333333 0 1 0 42.666666 0v-640a21.333333 21.333333 0 0 0-21.333333-21.333333zM256 554.666667a42.666667 42.666667 0 0 0-42.666667 42.666666v85.333334a42.666667 42.666667 0 0 0 42.666667 42.666666h426.666667a42.666667 42.666667 0 0 0 42.666666-42.666666v-85.333334a42.666667 42.666667 0 0 0-42.666666-42.666666H256z m213.333333-256a42.666667 42.666667 0 0 0-42.666666 42.666666v85.333334a42.666667 42.666667 0 0 0 42.666666 42.666666h213.333334a42.666667 42.666667 0 0 0 42.666666-42.666666V341.333333a42.666667 42.666667 0 0 0-42.666666-42.666666h-213.333334z" fill="#666666" p-id="4205"></path></svg>