<?xml version="1.0" standalone="no"?><!DOCTYPE svg PUBLIC "-//W3C//DTD SVG 1.1//EN" "http://www.w3.org/Graphics/SVG/1.1/DTD/svg11.dtd"><svg t="1721113318915" class="icon" viewBox="0 0 1024 1024" version="1.1" xmlns="http://www.w3.org/2000/svg" p-id="4908" xmlns:xlink="http://www.w3.org/1999/xlink" width="200" height="200"><path d="M320 170.666667a21.333333 21.333333 0 0 1 21.333333 21.333333v640a21.333333 21.333333 0 1 1-42.666666 0v-640a21.333333 21.333333 0 0 1 21.333333-21.333333z m384 0a21.333333 21.333333 0 0 1 21.333333 21.333333v640a21.333333 21.333333 0 1 1-42.666666 0v-640a21.333333 21.333333 0 0 1 21.333333-21.333333zM554.666667 256a42.666667 42.666667 0 0 1 42.666666 42.666667v426.666666a42.666667 42.666667 0 0 1-42.666666 42.666667h-85.333334a42.666667 42.666667 0 0 1-42.666666-42.666667V298.666667a42.666667 42.666667 0 0 1 42.666666-42.666667h85.333334z" fill="#666666" p-id="4909"></path></svg>