<?xml version="1.0" standalone="no"?><!DOCTYPE svg PUBLIC "-//W3C//DTD SVG 1.1//EN" "http://www.w3.org/Graphics/SVG/1.1/DTD/svg11.dtd"><svg t="1721113367636" class="icon" viewBox="0 0 1024 1024" version="1.1" xmlns="http://www.w3.org/2000/svg" p-id="5612" xmlns:xlink="http://www.w3.org/1999/xlink" width="200" height="200"><path d="M853.333333 320a21.333333 21.333333 0 0 1-21.333333 21.333333h-640a21.333333 21.333333 0 0 1 0-42.666666h640a21.333333 21.333333 0 0 1 21.333333 21.333333z m0 384a21.333333 21.333333 0 0 1-21.333333 21.333333h-640a21.333333 21.333333 0 1 1 0-42.666666h640a21.333333 21.333333 0 0 1 21.333333 21.333333zM768 554.666667a42.666667 42.666667 0 0 1-42.666667 42.666666H298.666667a42.666667 42.666667 0 0 1-42.666667-42.666666v-85.333334a42.666667 42.666667 0 0 1 42.666667-42.666666h426.666666a42.666667 42.666667 0 0 1 42.666667 42.666666v85.333334z" fill="#666666" p-id="5613"></path></svg>