<svg width="18.000000" height="18.000000" viewBox="0 0 18 18" xmlns="http://www.w3.org/2000/svg" xmlns:xlink="http://www.w3.org/1999/xlink"><path id="path" d="M3.48 3.48L14.48 3.48C14.63 3.48 14.75 3.52 14.82 3.63C14.93 3.75 14.97 3.86 14.97 3.97L14.97 4.98C14.97 5.13 14.93 5.25 14.82 5.32C14.71 5.43 14.6 5.47 14.48 5.47L3.48 5.47C3.33 5.47 3.22 5.43 3.15 5.32C3.03 5.21 3 5.1 3 4.98L3 3.97C3 3.82 3.03 3.71 3.15 3.63C3.22 3.56 3.37 3.48 3.48 3.48ZM3.48 6.48L14.5 6.48C14.65 6.48 14.76 6.52 14.83 6.63C14.95 6.75 14.98 6.86 14.98 6.97L14.98 7.98C14.98 8.13 14.95 8.25 14.83 8.32C14.72 8.43 14.61 8.47 14.5 8.47L3.48 8.47C3.33 8.47 3.22 8.43 3.15 8.32C3.03 8.21 3 8.1 3 7.98L3 6.97C3 6.82 3.03 6.71 3.15 6.63C3.22 6.56 3.37 6.48 3.48 6.48ZM3.48 9.48L14.47 9.48C14.62 9.48 14.73 9.52 14.81 9.63C14.92 9.75 14.96 9.86 14.96 9.97L14.96 10.98C14.96 11.13 14.92 11.25 14.81 11.32C14.7 11.43 14.58 11.47 14.47 11.47L3.48 11.47C3.33 11.47 3.22 11.43 3.15 11.32C3.03 11.21 3 11.1 3 10.98L3 9.97C3 9.82 3.03 9.71 3.15 9.63C3.22 9.56 3.37 9.48 3.48 9.48ZM3.48 12.48L14.47 12.48C14.62 12.48 14.73 12.52 14.81 12.63C14.92 12.75 14.96 12.86 14.96 12.97L14.96 13.98C14.96 14.13 14.92 14.25 14.81 14.32C14.7 14.43 14.58 14.47 14.47 14.47L3.48 14.47C3.33 14.47 3.22 14.43 3.15 14.32C3.03 14.21 3 14.1 3 13.98L3 12.97C3 12.82 3.03 12.71 3.15 12.63C3.22 12.56 3.37 12.48 3.48 12.48Z" fill-rule="nonzero"/></svg>