<svg t="1650441519862" class="icon" viewBox="0 0 1024 1024" version="1.1" xmlns="http://www.w3.org/2000/svg" p-id="3854" width="18" height="18"><path d="M454.4 283.733333v-57.6c0-8.533333 2.133333-14.933333 8.533333-19.2 6.4-6.4 12.8-8.533333 19.2-8.533333h341.333334c8.533333 0 14.933333 2.133333 19.2 8.533333 6.4 6.4 8.533333 12.8 8.533333 19.2v57.6c0 8.533333-2.133333 14.933333-8.533333 19.2-6.4 6.4-12.8 8.533333-19.2 8.533334h-341.333334c-8.533333 0-14.933333-2.133333-19.2-8.533334-4.266667-4.266667-8.533333-10.666667-8.533333-19.2z m-226.133333 170.666667v-57.6c0-8.533333 2.133333-14.933333 8.533333-19.2 6.4-6.4 12.8-8.533333 19.2-8.533333h569.6c8.533333 0 14.933333 2.133333 19.2 8.533333 6.4 6.4 8.533333 12.8 8.533333 19.2v57.6c0 8.533333-2.133333 14.933333-8.533333 19.2-6.4 6.4-12.8 8.533333-19.2 8.533333H256c-8.533333 0-14.933333-2.133333-19.2-8.533333-6.4-4.266667-8.533333-10.666667-8.533333-19.2z m113.066666 170.666667v-57.6c0-8.533333 2.133333-14.933333 8.533334-19.2 6.4-6.4 12.8-8.533333 19.2-8.533334h454.4c8.533333 0 14.933333 2.133333 19.2 8.533334 6.4 6.4 8.533333 12.8 8.533333 19.2v57.6c0 8.533333-2.133333 14.933333-8.533333 19.2-6.4 6.4-12.8 8.533333-19.2 8.533333h-454.4c-8.533333 0-14.933333-2.133333-19.2-8.533333-6.4-4.266667-8.533333-10.666667-8.533334-19.2z m-170.666666 170.666666v-57.6c0-8.533333 2.133333-14.933333 8.533333-19.2 6.4-6.4 12.8-8.533333 19.2-8.533333h625.066667c8.533333 0 14.933333 2.133333 19.2 8.533333 6.4 6.4 8.533333 12.8 8.533333 19.2v57.6c0 8.533333-2.133333 14.933333-8.533333 19.2-6.4 6.4-12.8 8.533333-19.2 8.533334h-625.066667c-8.533333 0-14.933333-2.133333-19.2-8.533334-6.4-4.266667-8.533333-10.666667-8.533333-19.2z" p-id="3855"></path></svg>