<?xml version="1.0" standalone="no"?><!DOCTYPE svg PUBLIC "-//W3C//DTD SVG 1.1//EN" "http://www.w3.org/Graphics/SVG/1.1/DTD/svg11.dtd"><svg t="1721113325398" class="icon" viewBox="0 0 1024 1024" version="1.1" xmlns="http://www.w3.org/2000/svg" p-id="5084" xmlns:xlink="http://www.w3.org/1999/xlink" width="200" height="200"><path d="M853.333333 234.666667a21.333333 21.333333 0 0 1-21.333333 21.333333h-640a21.333333 21.333333 0 0 1 0-42.666667h640a21.333333 21.333333 0 0 1 21.333333 21.333334zM469.333333 810.666667a42.666667 42.666667 0 0 1-42.666666 42.666666H341.333333a42.666667 42.666667 0 0 1-42.666666-42.666666V384a42.666667 42.666667 0 0 1 42.666666-42.666667h85.333334a42.666667 42.666667 0 0 1 42.666666 42.666667v426.666667z m256-213.333334a42.666667 42.666667 0 0 1-42.666666 42.666667h-85.333334a42.666667 42.666667 0 0 1-42.666666-42.666667V384a42.666667 42.666667 0 0 1 42.666666-42.666667h85.333334a42.666667 42.666667 0 0 1 42.666666 42.666667v213.333333z" fill="#666666" p-id="5085"></path></svg>