<?xml version="1.0" encoding="UTF-8" standalone="no" ?>
<!DOCTYPE svg PUBLIC "-//W3C//DTD SVG 1.1//EN" "http://www.w3.org/Graphics/SVG/1.1/DTD/svg11.dtd">
<svg xmlns="http://www.w3.org/2000/svg" xmlns:xlink="http://www.w3.org/1999/xlink" version="1.1" width="450" height="600" viewBox="0 0 450 600" xml:space="preserve">
<desc>Created with Fabric.js 5.2.1</desc>
<defs>
</defs>
<rect x="0" y="0" width="100%" height="100%" fill="#154A6B"></rect>
<g transform="matrix(0.53 0 0 0.53 225 539.24)" style="" id="846118d2-6def-4446-8cb9-d537d3e5f97b"  >
		<text xml:space="preserve" font-family="2-2" font-size="40" font-style="normal" font-weight="normal" style="stroke: none; stroke-width: 1; stroke-dasharray: none; stroke-linecap: butt; stroke-dashoffset: 0; stroke-linejoin: miter; stroke-miterlimit: 4; fill: rgb(236,255,255); fill-rule: nonzero; opacity: 1; white-space: pre;" ><tspan x="-80" y="12.57" >个性签名</tspan></text>
</g>
<g transform="matrix(1 0 0 1 225 250.55)" style="" id="48547364-cdc9-4000-b4c6-18ef261171e2"  >
		<text xml:space="preserve" font-family="2-2" font-size="32" font-style="normal" font-weight="normal" style="stroke: none; stroke-width: 1; stroke-dasharray: none; stroke-linecap: butt; stroke-dashoffset: 0; stroke-linejoin: miter; stroke-miterlimit: 4; fill: rgb(237,255,255); fill-rule: nonzero; opacity: 1; white-space: pre;" ><tspan x="-192" y="-10.92" >我想当一个好孩子，可性格</tspan><tspan x="-160" y="31.03" >渐渐有坏孩子的趋势。</tspan></text>
</g>
<g transform="matrix(-0.07 -0.04 0.04 -0.07 225.06 87.93)" id="b7aa3cdd-06d9-4c8b-a80f-1b9d6db2b2a9"  >
<g style=""   >
		<g transform="matrix(1 0 0 1 182.44 -46.87)" id="Layer_1"  >
<polygon style="stroke: none; stroke-width: 1; stroke-dasharray: none; stroke-linecap: butt; stroke-dashoffset: 0; stroke-linejoin: miter; stroke-miterlimit: 4; fill: rgb(255,222,85); fill-rule: nonzero; opacity: 1;"  points="4.53,27.19 48.92,-21.97 -15.89,-35.65 -48.92,-93.06 -48.92,66.03 11.55,93.06 " />
</g>
		<g transform="matrix(1 0 0 1 84.6 -46.87)" id="Layer_1"  >
<polygon style="stroke: none; stroke-width: 1; stroke-dasharray: none; stroke-linecap: butt; stroke-dashoffset: 0; stroke-linejoin: miter; stroke-miterlimit: 4; fill: rgb(255,235,153); fill-rule: nonzero; opacity: 1;"  points="15.89,-35.65 -48.92,-21.97 -4.53,27.19 -11.55,93.06 48.92,66.03 48.92,-93.06 " />
</g>
		<g transform="matrix(1 0 0 1 -57.1 0)" id="Layer_1"  >
<path style="stroke: none; stroke-width: 1; stroke-dasharray: none; stroke-linecap: butt; stroke-dashoffset: 0; stroke-linejoin: miter; stroke-miterlimit: 4; fill: rgb(255,235,153); fill-rule: nonzero; opacity: 1;"  transform=" translate(-190.4, -247.5)" d="M 288.544 458.73 C 197.85399999999998 436.1 128.534 350.02000000000004 128.534 247.50000000000003 C 128.534 144.98000000000002 197.85399999999998 58.900000000000034 288.544 36.27000000000004 C 318.734 28.73000000000004 348.43399999999997 28.09000000000004 376.024 33.19000000000004 C 339.614 12.12 297.374 0 252.284 0 C 115.584 0 4.783999999999992 110.81 4.783999999999992 247.5 C 4.783999999999992 384.19 115.58399999999999 495 252.284 495 C 297.374 495 339.614 482.88 376.024 461.81 C 348.434 466.91 318.734 466.27 288.544 458.73 z" stroke-linecap="round" />
</g>
		<g transform="matrix(1 0 0 1 4.78 0)" id="Layer_1"  >
<path style="stroke: none; stroke-width: 1; stroke-dasharray: none; stroke-linecap: butt; stroke-dashoffset: 0; stroke-linejoin: miter; stroke-miterlimit: 4; fill: rgb(255,222,85); fill-rule: nonzero; opacity: 1;"  transform=" translate(-252.28, -247.5)" d="M 252.284 247.5 C 252.284 155.91 302.074 75.99000000000001 376.024 33.19 C 348.434 28.089999999999996 318.734 28.729999999999997 288.544 36.269999999999996 C 197.85399999999998 58.89999999999999 128.534 144.98 128.534 247.5 C 128.534 350.02 197.85399999999998 436.1 288.544 458.73 C 318.734 466.27000000000004 348.43399999999997 466.91 376.024 461.81 C 302.074 419.01 252.284 339.09 252.284 247.5 z" stroke-linecap="round" />
</g>
		<g transform="matrix(1 0 0 1 218.39 106)" id="Layer_1"  >
<polygon style="stroke: none; stroke-width: 1; stroke-dasharray: none; stroke-linecap: butt; stroke-dashoffset: 0; stroke-linejoin: miter; stroke-miterlimit: 4; fill: rgb(255,222,85); fill-rule: nonzero; opacity: 1;"  points="24.33,-10.92 -7.9,-17.72 -24.33,-46.27 -24.32,32.83 5.75,46.27 2.25,13.52 " />
</g>
		<g transform="matrix(1 0 0 1 169.74 106)" id="Layer_1"  >
<polygon style="stroke: none; stroke-width: 1; stroke-dasharray: none; stroke-linecap: butt; stroke-dashoffset: 0; stroke-linejoin: miter; stroke-miterlimit: 4; fill: rgb(255,235,153); fill-rule: nonzero; opacity: 1;"  points="7.9,-17.72 -24.33,-10.92 -2.25,13.52 -5.74,46.27 24.33,32.83 24.32,-46.27 " />
</g>
</g>
</g>
<g transform="matrix(1 0 0 1 225 300)" id="8ec56dfb-3495-4361-9614-85c013b9c61e"  >
<g style=""   >
</g>
</g>
<g transform="matrix(1 0 0 1 225 490.38)"  >
<g style=""   >
		<g transform="matrix(0.26 0 0 0.26 -33.62 0)" id="af001743-1298-4c59-823d-932de6dc2ea0"  >
<circle style="stroke: none; stroke-width: 1; stroke-dasharray: none; stroke-linecap: butt; stroke-dashoffset: 0; stroke-linejoin: miter; stroke-miterlimit: 4; fill: rgb(64,131,169); fill-rule: nonzero; opacity: 1;"  cx="0" cy="0" r="50" />
</g>
		<g transform="matrix(0.26 0 0 0.26 -11.2 0)" id="d0c60733-ebbf-47c3-a211-6c0171c602d4"  >
<circle style="stroke: none; stroke-width: 1; stroke-dasharray: none; stroke-linecap: butt; stroke-dashoffset: 0; stroke-linejoin: miter; stroke-miterlimit: 4; fill: rgb(64,131,169); fill-rule: nonzero; opacity: 0.9;"  cx="0" cy="0" r="50" />
</g>
		<g transform="matrix(0.26 0 0 0.26 11.22 0)" id="fa6e88a3-58da-4881-b3f7-8f9d81326560"  >
<circle style="stroke: none; stroke-width: 1; stroke-dasharray: none; stroke-linecap: butt; stroke-dashoffset: 0; stroke-linejoin: miter; stroke-miterlimit: 4; fill: rgb(64,131,169); fill-rule: nonzero; opacity: 0.8;"  cx="0" cy="0" r="50" />
</g>
		<g transform="matrix(0.26 0 0 0.26 33.62 0)" id="3e27815f-aa57-4f64-a48f-18aca0a54b92"  >
<circle style="stroke: none; stroke-width: 1; stroke-dasharray: none; stroke-linecap: butt; stroke-dashoffset: 0; stroke-linejoin: miter; stroke-miterlimit: 4; fill: rgb(64,131,169); fill-rule: nonzero; opacity: 0.7;"  cx="0" cy="0" r="50" />
</g>
</g>
</g>
</svg>