<?xml version="1.0" encoding="UTF-8" standalone="no" ?>
<!DOCTYPE svg PUBLIC "-//W3C//DTD SVG 1.1//EN" "http://www.w3.org/Graphics/SVG/1.1/DTD/svg11.dtd">
<svg xmlns="http://www.w3.org/2000/svg" xmlns:xlink="http://www.w3.org/1999/xlink" version="1.1" width="450" height="600" viewBox="0 0 450 600" xml:space="preserve">
<desc>Created with Fabric.js 5.2.1</desc>
<defs>
</defs>
<rect x="0" y="0" width="100%" height="100%" fill="#4D5B69"></rect>
<g transform="matrix(1.16 0 0 1.1 222 113.19)" style="" id="c9ca9533-a6cb-45db-aeea-3852ae3da292"  >
		<text xml:space="preserve" font-family="3-3" font-size="30" font-style="normal" font-weight="bold" style="stroke: none; stroke-width: 1; stroke-dasharray: none; stroke-linecap: butt; stroke-dashoffset: 0; stroke-linejoin: miter; stroke-miterlimit: 4; fill: rgb(255,255,255); fill-rule: nonzero; opacity: 1; white-space: pre;" ><tspan x="-30" y="9.42" >征怨</tspan></text>
</g>
<g transform="matrix(1 0 0 1 224.04 172.54)" style="" id="e6c096dc-de20-4e08-8b19-0a39c676437a"  >
		<text xml:space="preserve" font-family="3-3" font-size="16" font-style="normal" font-weight="normal" style="stroke: none; stroke-width: 1; stroke-dasharray: none; stroke-linecap: butt; stroke-dashoffset: 0; stroke-linejoin: miter; stroke-miterlimit: 4; fill: rgb(19,23,20); fill-rule: nonzero; opacity: 1; white-space: pre;" ><tspan x="-24" y="5.03" >柳中庸</tspan></text>
</g>
<g transform="matrix(1.25 0 0 1.24 225.61 246.35)" style="filter: url(#SVGID_1);" id="efd7e1ab-4f84-4e74-88db-bf9f0a7ce62e"  >
<filter id="SVGID_1" y="-20%" height="140%" x="-20%" width="140%" >
	<feGaussianBlur in="SourceAlpha" stdDeviation="0"></feGaussianBlur>
	<feOffset dx="0" dy="0" result="oBlur" ></feOffset>
	<feFlood flood-color="rgb(0,0,0)" flood-opacity="1"/>
	<feComposite in2="oBlur" operator="in" />
	<feMerge>
		<feMergeNode></feMergeNode>
		<feMergeNode in="SourceGraphic"></feMergeNode>
	</feMerge>
</filter>
		<text xml:space="preserve" font-family="3-3" font-size="17" font-style="normal" font-weight="normal" style="stroke: none; stroke-width: 1; stroke-dasharray: none; stroke-linecap: butt; stroke-dashoffset: 0; stroke-linejoin: miter; stroke-miterlimit: 4; fill: rgb(254,253,253); fill-rule: nonzero; opacity: 1; white-space: pre;" ><tspan x="-123.68" y="-13.87" >岁岁金河复玉关，朝朝马策与刀环。</tspan><tspan x="-122.95" y="24.55" >三春白雪归青冢，万里黄河绕黑山。</tspan></text>
</g>
<g transform="matrix(1.03 0 0 1 256.06 485.06)" style="" id="034db904-cb27-459c-ba1e-73ead0976d97"  >
		<text xml:space="preserve" font-family="1-1" font-size="24" font-style="normal" font-weight="normal" style="stroke: none; stroke-width: 1; stroke-dasharray: none; stroke-linecap: butt; stroke-dashoffset: 0; stroke-linejoin: miter; stroke-miterlimit: 4; fill: rgb(254,251,251); fill-rule: nonzero; opacity: 1; white-space: pre;" ><tspan x="-12" y="7.54" >白</tspan></text>
</g>
<g transform="matrix(0.22 0 0 0.22 209.24 477.24)" id="13c0a318-d942-4923-a2b9-9c0e5d945d44"  >
<g style=""   >
		<g transform="matrix(1 0 0 1 19.53 -118.83)" id="icons"  >
<path style="stroke: none; stroke-width: 1; stroke-dasharray: none; stroke-linecap: butt; stroke-dashoffset: 0; stroke-linejoin: miter; stroke-miterlimit: 4; fill: rgb(115,137,55); fill-rule: nonzero; opacity: 1;"  transform=" translate(-189.53, -51.18)" d="M 165.6 33.563 C 165.6 33.563 200.90699999999998 47.293000000000006 213.46099999999998 68.08500000000001 C 213.456 68.085 180.5 76.716 165.6 33.563 Z" stroke-linecap="round" />
</g>
		<g transform="matrix(1 0 0 1 9.81 -82.89)" id="icons"  >
<path style="stroke: none; stroke-width: 1; stroke-dasharray: none; stroke-linecap: butt; stroke-dashoffset: 0; stroke-linejoin: miter; stroke-miterlimit: 4; fill: rgb(169,196,105); fill-rule: nonzero; opacity: 1;"  transform=" translate(-179.81, -87.11)" d="M 165.6 33.563 C 165.6 33.563 191.492 68.87 196.2 140.663 C 196.194 140.661 153.433 114.769 165.6 33.563 Z" stroke-linecap="round" />
</g>
		<g transform="matrix(1 0 0 1 -11.57 -80.73)" id="icons"  >
<path style="stroke: none; stroke-width: 1; stroke-dasharray: none; stroke-linecap: butt; stroke-dashoffset: 0; stroke-linejoin: miter; stroke-miterlimit: 4; fill: rgb(115,137,55); fill-rule: nonzero; opacity: 1;"  transform=" translate(-158.44, -89.27)" d="M 165.6 33.563 C 165.6 33.563 138.139 82.993 151.869 144.976 C 151.864 144.976 177.756 113.2 165.6 33.563 Z" stroke-linecap="round" />
</g>
		<g transform="matrix(1 0 0 1 -36.84 -96.95)" id="icons"  >
<path style="stroke: none; stroke-width: 1; stroke-dasharray: none; stroke-linecap: butt; stroke-dashoffset: 0; stroke-linejoin: miter; stroke-miterlimit: 4; fill: rgb(74,104,60); fill-rule: nonzero; opacity: 1;"  transform=" translate(-133.16, -73.05)" d="M 100.771 116.5 C 99.43658782550528 116.50029235620048 98.18990713727612 115.83513708469488 97.447116081401 114.72657162238613 C 96.7043250255259 113.6180061600774 96.56325612339268 112.21203893483131 97.071 110.978 C 114.297 69.08699999999999 161.137 31.977999999999994 163.123 30.420999999999992 C 164.86177042749026 29.08987891166666 167.34766318727424 29.404309447765673 168.7002398235395 31.126442542026894 C 170.05281645980475 32.84857563628812 169.76923102671157 35.33817574018339 168.064 36.71199999999999 C 167.594 37.08099999999999 120.886 74.09899999999999 104.469 114.02099999999999 C 103.85256777453313 115.52035114499354 102.3921237329473 116.49937785648389 100.771 116.5 Z" stroke-linecap="round" />
</g>
		<g transform="matrix(1 0 0 1 114.46 -50.26)" id="icons"  >
<path style="stroke: none; stroke-width: 1; stroke-dasharray: none; stroke-linecap: butt; stroke-dashoffset: 0; stroke-linejoin: miter; stroke-miterlimit: 4; fill: rgb(115,137,55); fill-rule: nonzero; opacity: 1;"  transform=" translate(-284.46, -119.75)" d="M 288.756 64.271 C 288.756 64.271 310.015 117.088 277.462 175.219 C 277.462 175.219 262.846 115.427 288.756 64.271 Z" stroke-linecap="round" />
</g>
		<g transform="matrix(1 0 0 1 131.51 -51.09)" id="icons"  >
<path style="stroke: none; stroke-width: 1; stroke-dasharray: none; stroke-linecap: butt; stroke-dashoffset: 0; stroke-linejoin: miter; stroke-miterlimit: 4; fill: rgb(169,196,105); fill-rule: nonzero; opacity: 1;"  transform=" translate(-301.52, -118.91)" d="M 288.756 64.271 C 288.756 64.271 327.95599999999996 102.471 312.673 173.558 C 312.673 173.558 278.458 142.333 288.756 64.271 Z" stroke-linecap="round" />
</g>
		<g transform="matrix(1 0 0 1 98.07 -72.32)" id="icons"  >
<path style="stroke: none; stroke-width: 1; stroke-dasharray: none; stroke-linecap: butt; stroke-dashoffset: 0; stroke-linejoin: miter; stroke-miterlimit: 4; fill: rgb(74,104,60); fill-rule: nonzero; opacity: 1;"  transform=" translate(-268.07, -97.68)" d="M 247.406 135.067 C 246.0907396157264 135.06636090178162 244.8598438782028 134.4191785538956 244.1137619180788 133.33600174669203 C 243.36767995795483 132.25282493948848 243.20176709264962 130.8720924421541 243.67000000000002 129.643 C 255.858 97.649 265.331 82.357 285.906 61.465 C 287.4598079874431 59.91256106158048 289.97475174698377 59.90344513556713 291.5397730201659 61.444579241948055 C 293.104794293348 62.98571334832897 293.13435834022226 65.50049985634354 291.606 67.078 C 271.945 87.043 262.87 101.715 251.14499999999998 132.49 C 250.55431660238597 134.04176837106127 249.0663890733963 135.0672803374176 247.406 135.067 Z" stroke-linecap="round" />
</g>
		<g transform="matrix(1 0 0 1 127.16 107.03)" id="icons"  >
<path style="stroke: none; stroke-width: 1; stroke-dasharray: none; stroke-linecap: butt; stroke-dashoffset: 0; stroke-linejoin: miter; stroke-miterlimit: 4; fill: rgb(169,196,105); fill-rule: nonzero; opacity: 1;"  transform=" translate(-297.16, -277.03)" d="M 286.824 236.673 C 286.824 236.673 279.78700000000003 280.52 303.04 317.392 C 303.04 317.392 322.923 275.538 286.824 236.673 Z" stroke-linecap="round" />
</g>
		<g transform="matrix(1 0 0 1 21.87 68.17)" id="icons"  >
<path style="stroke: none; stroke-width: 1; stroke-dasharray: none; stroke-linecap: butt; stroke-dashoffset: 0; stroke-linejoin: miter; stroke-miterlimit: 4; fill: rgb(115,137,55); fill-rule: nonzero; opacity: 1;"  transform=" translate(-191.87, -238.17)" d="M 191.759 183.192 C 191.759 183.192 211.02599999999998 227.03900000000002 197.73899999999998 293.14300000000003 C 197.739 293.143 165.185 249.628 191.759 183.192 Z" stroke-linecap="round" />
</g>
		<g transform="matrix(1 0 0 1 7.66 61.85)" id="icons"  >
<path style="stroke: none; stroke-width: 1; stroke-dasharray: none; stroke-linecap: butt; stroke-dashoffset: 0; stroke-linejoin: miter; stroke-miterlimit: 4; fill: rgb(169,196,105); fill-rule: nonzero; opacity: 1;"  transform=" translate(-177.66, -231.86)" d="M 191.759 183.192 C 191.759 183.192 199.887 227.372 165.59499999999997 280.52 C 165.6 280.52 149.905 221.392 191.759 183.192 Z" stroke-linecap="round" />
</g>
		<g transform="matrix(1 0 0 1 42.26 44.34)" id="icons"  >
<path style="stroke: none; stroke-width: 1; stroke-dasharray: none; stroke-linecap: butt; stroke-dashoffset: 0; stroke-linejoin: miter; stroke-miterlimit: 4; fill: rgb(74,104,60); fill-rule: nonzero; opacity: 1;"  transform=" translate(-212.26, -214.34)" d="M 232.77 249.485 C 231.2054247222309 249.4857491264808 229.78403664240864 248.57423225176245 229.132 247.15200000000002 C 218.299 223.544 203.632 201.24400000000003 188.882 185.97000000000003 C 187.34747682259515 184.3808006323619 187.3918006323619 181.8485231774049 188.981 180.31400000000002 C 190.5701993676381 178.77947682259517 193.10247682259515 178.82380063236192 194.637 180.41300000000004 C 209.985 196.31300000000005 225.208 219.42000000000004 236.403 243.81300000000005 C 236.9714202156346 245.05104764596547 236.87066066169533 246.49327257672968 236.13561280157268 247.64025477299592 C 235.40056494145003 248.78723696926215 234.13230061685485 249.48126207081611 232.76999999999998 249.48200000000006 Z" stroke-linecap="round" />
</g>
		<g transform="matrix(1 0 0 1 95.75 105.87)" id="icons"  >
<path style="stroke: none; stroke-width: 1; stroke-dasharray: none; stroke-linecap: butt; stroke-dashoffset: 0; stroke-linejoin: miter; stroke-miterlimit: 4; fill: rgb(74,104,60); fill-rule: nonzero; opacity: 1;"  transform=" translate(-265.75, -275.87)" d="M 244.685 319.068 C 244.48414319979847 319.06837423453 244.28355397938685 319.0533300429991 244.085 319.02299999999997 C 243.03576205847529 318.86554811077843 242.09206275055985 318.2976914837148 241.4615487014978 317.444378300124 C 240.8310346524358 316.59106511653323 240.56536633266813 315.5222106472381 240.723 314.47299999999996 C 247.83 267.17299999999994 282.653 235.05699999999996 284.132 233.71299999999997 C 285.7667628594991 232.2270778805802 288.29657788058023 232.3477371405008 289.7825 233.98249999999993 C 291.26842211941977 235.61726285949908 291.14776285949915 238.14707788058018 289.51300000000003 239.63299999999995 C 289.095 240.01499999999996 255.30000000000004 271.29599999999994 248.63400000000004 315.6619999999999 C 248.34038538963293 317.6172989542491 246.6622184333519 319.06471264204174 244.685 319.068 Z" stroke-linecap="round" />
</g>
		<g transform="matrix(1 0 0 1 -117.71 51.56)" id="icons"  >
<path style="stroke: none; stroke-width: 1; stroke-dasharray: none; stroke-linecap: butt; stroke-dashoffset: 0; stroke-linejoin: miter; stroke-miterlimit: 4; fill: rgb(115,137,55); fill-rule: nonzero; opacity: 1;"  transform=" translate(-52.29, -221.56)" d="M 56.23 162.6 C 56.23 162.6 74.16799999999999 235.68 47.92999999999999 280.524 C 47.925 280.52 30.984 225.711 56.23 162.6 Z" stroke-linecap="round" />
</g>
		<g transform="matrix(1 0 0 1 -129.7 40.27)" id="icons"  >
<path style="stroke: none; stroke-width: 1; stroke-dasharray: none; stroke-linecap: butt; stroke-dashoffset: 0; stroke-linejoin: miter; stroke-miterlimit: 4; fill: rgb(169,196,105); fill-rule: nonzero; opacity: 1;"  transform=" translate(-40.3, -210.27)" d="M 56.23 162.6 C 56.23 162.6 63.793 224.386 24.467999999999996 257.936 C 24.468 257.932 16.368 211.759 56.23 162.6 Z" stroke-linecap="round" />
</g>
		<g transform="matrix(1 0 0 1 -97.89 20.63)" id="icons"  >
<path style="stroke: none; stroke-width: 1; stroke-dasharray: none; stroke-linecap: butt; stroke-dashoffset: 0; stroke-linejoin: miter; stroke-miterlimit: 4; fill: rgb(74,104,60); fill-rule: nonzero; opacity: 1;"  transform=" translate(-72.11, -190.63)" d="M 89.055 222.672 C 87.21098350574239 222.67015012366744 85.60718718374665 221.40792978886986 85.17200000000001 219.61599999999999 C 76.525 184.066 53 165.972 52.76 165.793 C 50.99268880054146 164.4675166004061 50.63451660040609 161.96031119945854 51.959999999999994 160.193 C 53.2854833995939 158.42568880054145 55.792688800541455 158.0675166004061 57.559999999999995 159.393 C 58.617999999999995 160.185 83.585 179.25900000000001 92.941 217.723 C 93.23141928822463 218.91615031130777 92.95769814439495 220.1765808681544 92.19855625082025 221.14180344029333 C 91.43941435724554 222.10702601243227 90.278986111746 222.67006663286648 89.051 222.669 Z" stroke-linecap="round" />
</g>
		<g transform="matrix(1 0 0 1 -76.75 0)" id="icons"  >
<path style="stroke: none; stroke-width: 1; stroke-dasharray: none; stroke-linecap: butt; stroke-dashoffset: 0; stroke-linejoin: miter; stroke-miterlimit: 4; fill: rgb(110,145,96); fill-rule: nonzero; opacity: 1;"  transform=" translate(-93.25, -170)" d="M 83.474 10 L 83.474 83.843 C 83.47444374632813 85.20038779417624 83.24659949046104 86.54818460150872 82.8 87.83 C 81.87890010688534 90.51083574301822 80.69304565366325 93.09325155654619 79.25999999999999 95.539 C 76.75157172042279 99.69396523823791 76.93037054632761 104.93755449004757 79.716 108.912 C 81.737 111.765 83.475 115.072 83.475 118.012 L 83.475 179.012 C 83.4755697228031 182.31605941551803 82.91423388060717 185.59615439702435 81.81499999999998 188.712 L 81.715 188.993 C 79.63934183681802 194.8854424802812 79.5075587065763 201.28813988255632 81.33899999999998 207.26099999999997 L 82.19 210.034 C 83.04194358840553 212.80882945518462 83.4747166273029 215.6953312504471 83.474 218.59799999999998 L 83.474 330 L 101.14 330 L 101.14 217.465 C 101.07638019890234 212.09807297318474 102.61306607909032 206.83386200936002 105.554 202.344 Q 105.999 201.683 106.505 201.028 C 109.39780702869633 197.262453878512 109.81533956902445 192.15110426111193 107.57199999999999 187.96599999999998 L 105 183.222 C 103.82994961561278 181.26287561711345 103.19317317194367 179.0315723450904 103.153 176.75 L 103.153 120.283 C 103.1495275192368 119.02591985853299 103.28909172129573 117.77252596696528 103.569 116.547 C 104.30505578278459 113.37354877368308 105.43938363179925 110.30589081707652 106.945 107.41700000000002 C 109.61585020353024 102.38695960551468 109.60122111492143 96.3560240503244 106.906 91.339 L 105.879 89.462 C 104.52879636469075 86.9838208042032 103.82285414184693 84.20612899897557 103.82600000000001 81.384 L 103.82600000000001 10 Z" stroke-linecap="round" />
</g>
		<g transform="matrix(1 0 0 1 69.33 0)" id="icons"  >
<path style="stroke: none; stroke-width: 1; stroke-dasharray: none; stroke-linecap: butt; stroke-dashoffset: 0; stroke-linejoin: miter; stroke-miterlimit: 4; fill: rgb(110,145,96); fill-rule: nonzero; opacity: 1;"  transform=" translate(-239.33, -170)" d="M 231.942 10 L 231.942 105.723 C 231.94628939582822 107.75252325886773 231.2687189559174 109.72466175341059 230.018 111.323 L 226.296 116.04499999999999 C 223.5347673596278 119.58434510680004 223.767016761847 124.60848985352726 226.843 127.87799999999999 L 226.843 127.87799999999999 C 228.4364728319061 129.56041045925758 229.32099148761563 131.79176096279042 229.313 134.10899999999998 L 229.313 218.05499999999998 C 229.31361275243242 219.277438705696 229.12159108852376 220.49233851249954 228.744 221.65499999999997 L 224.817 233.71999999999997 C 223.63977781487037 237.32594186997147 224.30324023630217 241.27981927336913 226.59300000000002 244.30399999999997 L 226.59300000000002 244.30399999999997 C 228.11937948406185 246.3118603377033 228.94334483604695 248.7658364648947 228.93800000000002 251.28799999999998 L 228.93800000000002 330 L 249.21400000000003 330 L 249.21400000000003 252.271 C 249.21093882923094 249.85146958087194 249.88839609776082 247.47984935283185 251.16900000000004 245.427 L 252.09700000000004 243.947 C 254.68370010319347 239.78845613027372 254.7057514589204 234.52708002700868 252.15400000000002 230.347 L 251.48800000000003 229.26600000000002 C 250.2430125978541 227.23373309192576 249.58535937405608 224.89629508123744 249.58800000000002 222.51300000000003 L 249.58800000000002 138.788 C 249.5853025899065 136.16826964005622 250.23191101286992 133.58870745110323 251.47000000000003 131.28 L 252.53200000000004 129.308 C 254.91840472645652 124.84773365502568 255.04275815383517 119.51872528652473 252.86700000000005 114.952 L 252.63700000000006 114.472 C 251.61699915622836 112.33294305250307 251.08842601541735 109.99280249567393 251.09000000000006 107.623 L 251.09000000000006 10 Z" stroke-linecap="round" />
</g>
		<g transform="matrix(1 0 0 1 -70.87 0)" id="icons"  >
<path style="stroke: none; stroke-width: 1; stroke-dasharray: none; stroke-linecap: butt; stroke-dashoffset: 0; stroke-linejoin: miter; stroke-miterlimit: 4; fill: rgb(74,104,60); fill-rule: nonzero; opacity: 1;"  transform=" translate(-99.13, -170)" d="M 102.194 330 L 102.194 217.465 C 102.13560319624524 212.07001862368645 103.74571387779649 206.78878573524037 106.804 202.344 Q 107.269 201.683 107.797 201.028 C 110.8147307277913 197.31568473995335 111.25687289528015 192.136078469335 108.91199999999999 187.96599999999998 L 106.22999999999999 183.22199999999998 C 105.01210415123012 181.27946203946908 104.3453187928972 179.042326301195 104.30099999999999 176.74999999999997 L 104.30099999999999 120.283 C 104.29728334960811 119.0249366024988 104.44262967377261 117.7708630064744 104.734 116.547 C 105.50676300793376 113.36281915402041 106.69282974433013 110.29343443086316 108.262 107.41700000000002 C 111.05123777982068 102.41675351485183 111.03570327951125 96.324956052045 108.221 91.339 L 107.14800000000001 89.462 C 105.7411682800617 87.00216442894622 105.000763748357 84.21771945356885 105 81.384 L 105 10 L 94.645 10 L 94.645 83.02 C 94.64287582529998 84.51522039298209 94.9139952704059 85.99824375771152 95.445 87.396 C 97.005 91.496 100.02699999999999 101.36 96.657 109.37700000000001 C 95.80392052590183 111.38575305834354 93.83038365720783 112.68791703339517 91.648 112.68200000000002 L 89.775 112.68200000000002 C 88.214 112.68200000000002 87.537 114.16100000000002 88.358 115.11700000000002 L 91.647 118.94200000000002 C 93.58277390889452 121.1920574515877 94.64723297859423 124.0618391034981 94.647 127.03000000000002 L 94.647 177.44600000000003 C 94.64514189104749 178.5261996320653 94.89075697285641 179.59247011952826 95.36500000000001 180.56300000000002 C 96.82300000000001 183.54200000000003 99.84200000000001 190.81300000000002 97.944 196.739 C 96.98499809831804 199.6669988234567 94.24702002441015 201.64231791189127 91.166 201.629 L 89.7 201.629 C 89.02045333108329 201.6284819517209 88.39556956824613 202.00135411055018 88.07333421262936 202.59964193359218 C 87.7510988570126 203.1979297566342 87.7836232244681 203.9248792248981 88.158 204.492 L 91.149 209.03 C 93.43183468887804 212.49289165171191 94.64873915271633 216.54935576016945 94.649 220.697 L 94.649 330 Z" stroke-linecap="round" />
</g>
		<g transform="matrix(1 0 0 1 75.71 0)" id="icons"  >
<path style="stroke: none; stroke-width: 1; stroke-dasharray: none; stroke-linecap: butt; stroke-dashoffset: 0; stroke-linejoin: miter; stroke-miterlimit: 4; fill: rgb(74,104,60); fill-rule: nonzero; opacity: 1;"  transform=" translate(-245.71, -170)" d="M 252.691 131.28 L 253.8 129.308 C 256.2928557609943 124.87755194028773 256.42399331681384 119.49866407930219 254.15 114.952 L 253.91 114.472 C 252.8471234537847 112.34534324210976 252.29385858069222 110.00047250212812 252.29399999999998 107.62299999999999 L 252.29399999999998 10 L 242.46699999999998 10 L 242.46699999999998 103.051 C 242.47159615099648 104.812672354223 242.82082258505346 106.55642652349776 243.49499999999998 108.184 C 245.25599999999997 112.47 248.33399999999997 121.751 244.771 127.402 C 243.82353286499404 128.82892721328471 242.21355997184708 129.67388020006277 240.50099999999998 129.643 L 237.301 129.643 C 235.73399999999998 129.643 235.196 131.059 236.053 131.821 L 240.673 135.921 C 241.81755335587175 136.935469010021 242.47279974410714 138.3915720949885 242.473 139.921 L 242.473 220.966 C 242.46860685563368 221.99898955754588 242.75521336596358 223.01233591329515 243.3 223.89000000000001 C 244.92200000000003 226.48200000000003 248.13400000000001 232.74300000000002 245.389 238.18300000000002 C 244.20954500945658 240.40414205176765 241.88558979323895 241.77773937713923 239.371 241.74 L 239.26000000000002 241.74 C 238.30981566244617 241.7341271516859 237.4497614222237 242.3015186894272 237.08125384909576 243.17735368200704 C 236.7127462759678 244.05318867458686 236.90844074867275 245.06478648329238 237.57700000000003 245.74 L 239.31000000000003 247.48600000000002 C 241.335627118696 249.5272419443804 242.4725213200879 252.28626815047718 242.47300000000004 255.162 L 242.47300000000004 330 L 250.33800000000005 330 L 250.33800000000005 252.271 C 250.33810277983983 249.83955470502642 251.04777973587701 247.46099001985573 252.38000000000005 245.427 L 253.35000000000005 243.947 C 256.0527013410622 239.8228100036039 256.0758168719926 234.4944842298204 253.40900000000005 230.347 L 252.71400000000006 229.26600000000002 C 251.4187735727087 227.2518292630782 250.73007359982324 224.90768061544944 250.73000000000005 222.51300000000003 L 250.73000000000005 138.788 C 250.7284178335552 136.15850277278847 251.40375407167608 133.57287070965143 252.691 131.28 Z" stroke-linecap="round" />
</g>
</g>
</g>
</svg>