<?xml version="1.0" encoding="UTF-8" standalone="no" ?>
<!DOCTYPE svg PUBLIC "-//W3C//DTD SVG 1.1//EN" "http://www.w3.org/Graphics/SVG/1.1/DTD/svg11.dtd">
<svg xmlns="http://www.w3.org/2000/svg" xmlns:xlink="http://www.w3.org/1999/xlink" version="1.1" width="450" height="600" viewBox="0 0 450 600" xml:space="preserve">
<desc>Created with Fabric.js 5.2.1</desc>
<defs>
</defs>
<rect x="0" y="0" width="100%" height="100%" fill="#5B7157"></rect>
<g transform="matrix(1 0 0 1 225 105.06)" style="" id="c9ca9533-a6cb-45db-aeea-3852ae3da292"  >
		<text xml:space="preserve" font-family="2-2" font-size="24" font-style="normal" font-weight="normal" style="stroke: none; stroke-width: 1; stroke-dasharray: none; stroke-linecap: butt; stroke-dashoffset: 0; stroke-linejoin: miter; stroke-miterlimit: 4; fill: rgb(249,249,249); fill-rule: nonzero; opacity: 1; white-space: pre;" ><tspan x="-48" y="7.54" >访羊尊师</tspan></text>
</g>
<g transform="matrix(1 0 0 1 225 150.54)" style="" id="e6c096dc-de20-4e08-8b19-0a39c676437a"  >
		<text xml:space="preserve" font-family="Microsoft YaHei" font-size="16" font-style="normal" font-weight="normal" style="stroke: none; stroke-width: 1; stroke-dasharray: none; stroke-linecap: butt; stroke-dashoffset: 0; stroke-linejoin: miter; stroke-miterlimit: 4; fill: rgb(214,237,211); fill-rule: nonzero; opacity: 1; white-space: pre;" ><tspan x="-16" y="5.03" >孙革</tspan></text>
</g>
<g transform="matrix(1 0 0 1 225.99 245.4)" style="" id="efd7e1ab-4f84-4e74-88db-bf9f0a7ce62e"  >
		<text xml:space="preserve" font-family="2-2" font-size="20" font-style="normal" font-weight="normal" style="stroke: none; stroke-width: 1; stroke-dasharray: none; stroke-linecap: butt; stroke-dashoffset: 0; stroke-linejoin: miter; stroke-miterlimit: 4; fill: rgb(255,254,254); fill-rule: nonzero; opacity: 1; white-space: pre;" ><tspan x="-120" y="-16.32" >松下问童子，言师采药去。</tspan><tspan x="-120" y="28.88" >只在此山中，云深不知处。</tspan></text>
</g>
<g transform="matrix(1 0 0 1 91 559)" id="83f88aea-3856-4e7a-add9-6be88eca6788"  >
<g style=""   >
		<g transform="matrix(1 0 0 1 30.96 13.23)" id="Layer_1"  >
<path style="stroke: none; stroke-width: 1; stroke-dasharray: none; stroke-linecap: butt; stroke-dashoffset: 0; stroke-linejoin: miter; stroke-miterlimit: 4; fill: rgb(200,218,82); fill-rule: nonzero; opacity: 1;"  transform=" translate(-80.96, -63.23)" d="M 96.27 66.52 C 96.27 77.24 89.41 82.64999999999999 80.96 82.64999999999999 C 72.50999999999999 82.64999999999999 65.65 77.24 65.65 66.52 C 65.65 55.8 81 43.82 81 43.82 C 81 43.82 96.27 55.8 96.27 66.52 Z" stroke-linecap="round" />
</g>
		<g transform="matrix(1 0 0 1 -13.69 -8.12)" id="Layer_1"  >
<path style="stroke: none; stroke-width: 1; stroke-dasharray: none; stroke-linecap: butt; stroke-dashoffset: 0; stroke-linejoin: miter; stroke-miterlimit: 4; fill: rgb(200,218,82); fill-rule: nonzero; opacity: 1;"  transform=" translate(-36.31, -41.88)" d="M 65.4 48.12 C 65.4 68.49 52.400000000000006 78.77 36.31 78.77 C 20.22 78.77 7.22 68.49 7.22 48.12 C 7.22 27.75 36.31 5 36.31 5 C 36.31 5 65.4 27.75 65.4 48.12 Z" stroke-linecap="round" />
</g>
		<g transform="matrix(1 0 0 1 30.99 28.28)" id="Layer_1"  >
<path style="stroke: none; stroke-width: 1; stroke-dasharray: none; stroke-linecap: butt; stroke-dashoffset: 0; stroke-linejoin: miter; stroke-miterlimit: 4; fill: rgb(153,95,91); fill-rule: nonzero; opacity: 1;"  transform=" translate(-80.99, -78.28)" d="M 88.55 68.91 C 88.36223340009444 68.7206873491769 88.10663753637056 68.61420167565832 87.84 68.61420167565832 C 87.57336246362944 68.61420167565832 87.31776659990555 68.7206873491769 87.13 68.91 L 82 74.09 L 82 63.24 C 82 62.687715250169205 81.55228474983079 62.24 81 62.24 C 80.44771525016921 62.24 80 62.687715250169205 80 63.24 L 80 74.09 L 74.82 68.91 C 74.42996254568907 68.5222764052892 73.80003745431092 68.5222764052892 73.41 68.91 C 73.2206873491769 69.09776659990555 73.11420167565832 69.35336246362944 73.11420167565832 69.62 C 73.11420167565832 69.88663753637056 73.2206873491769 70.14223340009444 73.41 70.33 L 80 76.92 L 80 93.32 C 80 93.87228474983078 80.44771525016921 94.32 81 94.32 C 81.55228474983079 94.32 82 93.87228474983078 82 93.32 L 82 76.92 L 88.59 70.33 C 88.7741233903074 70.13695046427138 88.87347683444519 69.8783333881406 88.86596499134237 69.61166295799035 C 88.85845314823953 69.34499252784009 88.74469882757685 69.09237848733751 88.55 68.91 Z" stroke-linecap="round" />
</g>
		<g transform="matrix(1 0 0 1 -13.7 12.26)" id="Layer_1"  >
<path style="stroke: none; stroke-width: 1; stroke-dasharray: none; stroke-linecap: butt; stroke-dashoffset: 0; stroke-linejoin: miter; stroke-miterlimit: 4; fill: rgb(153,95,91); fill-rule: nonzero; opacity: 1;"  transform=" translate(-36.31, -62.26)" d="M 53.07 53.79 L 37.31 69.56 L 37.31 53.94 L 50.6 40.65 C 50.992122172379865 40.26063925136929 50.99436074863071 39.62712217237986 50.605000000000004 39.235 C 50.215639251369296 38.842877827620136 49.58212217237987 38.84063925136929 49.190000000000005 39.23 L 37.31 51.12 L 37.31 31.21 C 37.31 30.657715250169208 36.8622847498308 30.21 36.31 30.21 C 35.757715250169205 30.21 35.31 30.657715250169208 35.31 31.21 L 35.31 51.12 L 23.43 39.23 C 23.037877827620136 38.83511640387098 22.399883596129015 38.83287782762013 22.005 39.224999999999994 C 21.610116403870983 39.617122172379865 21.607877827620136 40.25511640387098 22 40.65 L 35.3 53.94 L 35.3 69.56 L 19.54 53.79 C 19.149962545689075 53.4022764052892 18.520037454310923 53.4022764052892 18.13 53.79 C 17.9406873491769 53.97776659990556 17.834201675658328 54.23336246362944 17.834201675658328 54.5 C 17.834201675658328 54.76663753637056 17.9406873491769 55.02223340009444 18.13 55.21 L 35.31 72.39 L 35.31 93.32 C 35.31 93.87228474983078 35.757715250169205 94.32 36.31 94.32 C 36.8622847498308 94.32 37.31 93.87228474983078 37.31 93.32 L 37.31 72.39 L 54.49 55.21 C 54.882122172379866 54.81787782762014 54.882122172379866 54.18212217237986 54.49 53.79 C 54.09787782762014 53.397877827620135 53.462122172379864 53.397877827620135 53.07 53.79 Z" stroke-linecap="round" />
</g>
</g>
</g>
</svg>