<?xml version="1.0" ?><svg width="340px" height="340px" viewBox="0 0 340 340" id="icons" xmlns="http://www.w3.org/2000/svg"><title/><rect height="81.217" style="fill:#677ba2" width="114.68" x="112.66" y="245.799"/><rect height="81.217" style="fill:#324b74" width="42.512" x="112.66" y="245.799"/><rect height="81.217" style="fill:#e9ebfc" width="20.779" x="143.088" y="245.799"/><path d="M227.34,245.8H180.879c.211,6.833.573,13.57,1.165,19.438.968,9.6,3.878,16.2,7.029,20.683A21.078,21.078,0,0,0,206.88,294.8a95.015,95.015,0,0,0,20.46-2.829Z" style="fill:#324b74"/><polygon points="170 89.82 155.172 89.82 155.172 135.325 170 135.325 184.828 135.325 184.828 89.82 170 89.82" style="fill:#ffc4b6"/><path d="M143.088,245.8v46.814a20.811,20.811,0,0,0,7.839-6.693c3.151-4.478,6.061-11.086,7.029-20.683.592-5.868.954-12.605,1.165-19.438Z" style="fill:#acb9d4"/><polygon points="184.828 124.191 184.828 89.82 170 89.82 155.172 89.82 155.172 103.915 184.828 124.191" style="fill:#ea8b7f"/><rect height="76.856" style="fill:#618dce" width="55.541" x="142.23" y="183.222"/><rect height="9.015" style="fill:#3c699e" width="55.541" x="142.23" y="251.063"/><path d="M280.151,216.294c-14.122-32.706-33.588-62.587-33.588-62.587-17.334-28.834-45.668-27.334-45.668-27.334l-16.067-15.5-14.828,22-14.828-22-16.067,15.5s-28.334-1.5-45.668,27.334c0,0-19.466,29.881-33.588,62.587a30,30,0,0,0,4.913,31.6c9.007,10.291,23.716,22.762,45.024,28.191,6.936,1.984,15.506,3.19,23.781,4.012a15.44,15.44,0,0,0,6.532-.758l10.213-92.363L170,166.869l19.688,20.112L199.9,279.344a15.44,15.44,0,0,0,6.532.758c8.275-.822,16.845-2.028,23.781-4.012,21.308-5.429,36.017-17.9,45.024-28.191A30,30,0,0,0,280.151,216.294Z" style="fill:#677ba2"/><path d="M142.23,215.735l23.2-14.889a8.4,8.4,0,0,1,9.123.029l23.218,15.11V183.222H142.23Z" style="fill:#3c699e"/><path d="M167.339,165.889a4,4,0,0,0,3.342-6.193l-25.61-39.078-5.966,5.755L163.99,164.08A4,4,0,0,0,167.339,165.889Z" style="fill:#324b74"/><path d="M143.748,190.557l-3.253,11.89c-3.552,42.3-1.374,68.384-.4,76.889h0a15.041,15.041,0,0,0,7.544-5.7,32.531,32.531,0,0,0,5.307-14.214,562.98,562.98,0,0,0,2.3-74.635Z" style="fill:#324b74"/><path d="M200.9,126.373l-5.782-5.578h0l-10.285-9.922-6.145,9.117,9.365,6.4a2.867,2.867,0,0,1,.775,3.944l-16.069,24.377a4,4,0,1,0,6.691,4.385l6.7-10.227A23.712,23.712,0,0,1,212.4,139.15a47.339,47.339,0,0,0,23.053.919A51.924,51.924,0,0,0,200.9,126.373Z" style="fill:#324b74"/><path d="M232.349,147.636a277.416,277.416,0,0,0-7.042,35.971l-8.688-3.2Z" style="fill:#324b74"/><path d="M196.252,190.557l3.253,11.89c3.552,42.3,1.374,68.384.4,76.889h0a15.041,15.041,0,0,1-7.544-5.7,32.531,32.531,0,0,1-5.307-14.214,562.98,562.98,0,0,1-2.3-74.635Z" style="fill:#324b74"/><path d="M197.693,173.447l20.782,10.161c4.332-13.331,10.263-29.368,17.4-43.162a53.205,53.205,0,0,0-18.543-11.18A309.693,309.693,0,0,0,197.693,173.447Z" style="fill:#618dce"/><path d="M257.733,195.484a64.9,64.9,0,0,0-15.4-6.648c-.136-.2-.273-.4-.405-.593a12.516,12.516,0,0,0-9.49-5.395l-4.419-.288a26.9,26.9,0,0,1-3.162-.484,14.59,14.59,0,0,1-4.717-1.855L189.831,161.75V152.8a16.531,16.531,0,0,0-16.53-16.531h-3.176v24.634l29.38,13.754L221.632,185.1a11.922,11.922,0,0,0,5.082,1.138,12.643,12.643,0,0,1,8.713,3.788c4.593,4.417,10.488,13.162,14.637,19.743a1.382,1.382,0,0,0,2.468-1.2,84.9,84.9,0,0,0-6.376-13.616,62.018,62.018,0,0,1,10.925,2.125A.864.864,0,0,0,257.733,195.484Z" style="fill:#324b74"/><path d="M212.217,139.1a47.048,47.048,0,0,0,23.266,1,53.251,53.251,0,0,0-18.15-10.837C215.97,131.747,214.214,135.063,212.217,139.1Z" style="fill:#3c699e"/><path d="M141.025,51.692l-2.577.589a12.718,12.718,0,0,0-9.884,12.4v.793a12.576,12.576,0,0,0,3.677,8.946c2.777,2.749,6.963,6.087,11.989,7.537Z" style="fill:#ea8b7f"/><path d="M198.975,51.692l2.577.589a12.718,12.718,0,0,1,9.884,12.4v.793a12.573,12.573,0,0,1-3.678,8.946c-2.776,2.749-6.962,6.087-11.988,7.537Z" style="fill:#ea8b7f"/><path d="M198.555,31.351c-.1-.215-.2-.429-.3-.639-11.4-23.637-45.1-23.637-56.508,0q-.153.317-.3.64a34.979,34.979,0,0,0-2.992,15.614l.692,23.3a31.6,31.6,0,0,0,6,17.623,53.088,53.088,0,0,0,11.225,11.559,14.415,14.415,0,0,0,8.546,2.807h10.172a14.064,14.064,0,0,0,8.254-2.594,52.8,52.8,0,0,0,11.524-11.782,31.591,31.591,0,0,0,5.991-17.613l.692-23.295A34.979,34.979,0,0,0,198.555,31.351Z" style="fill:#ffc4b6"/><path d="M161.733,67.485a2.828,2.828,0,0,1-1.442-.4,12.507,12.507,0,0,0-2.894-1.22,2.835,2.835,0,1,1,1.53-5.459,18.027,18.027,0,0,1,4.254,1.8,2.835,2.835,0,0,1-1.448,5.274Z" style="fill:#ea8b7f"/><path d="M178.267,67.485a2.835,2.835,0,0,1-1.448-5.274,18.019,18.019,0,0,1,4.254-1.8,2.835,2.835,0,1,1,1.53,5.459,12.525,12.525,0,0,0-2.894,1.22A2.828,2.828,0,0,1,178.267,67.485Z" style="fill:#ea8b7f"/><path d="M166.824,136.272A16.531,16.531,0,0,0,150.293,152.8v8.947l-32.381,19.736a26.432,26.432,0,0,1-5.928,1.074l-4.419.288a12.518,12.518,0,0,0-9.49,5.394c-.132.191-.269.393-.405.594a64.922,64.922,0,0,0-15.4,6.648.864.864,0,0,0,.652,1.586,62.018,62.018,0,0,1,10.925-2.125,84.878,84.878,0,0,0-6.376,13.614,1.382,1.382,0,0,0,2.468,1.206c4.15-6.581,10.044-15.326,14.637-19.742a12.643,12.643,0,0,1,8.713-3.788,11.922,11.922,0,0,0,5.082-1.138L140.5,174.66,170,160.906V136.272Z" style="fill:#324b74"/><path d="M219.686,179.945l-19.917-12.138c-.694,1.839-1.388,3.71-2.076,5.64,3.025,2.462,12.063,6.349,20.778,10.159h0C218.864,182.41,219.271,181.183,219.686,179.945Z" style="fill:#3c699e"/><path d="M170,136.277s-13.4-.685-14.828,14.165v14.394L140.5,174.66v27.787L170,183.484Z" style="fill:#ffc4b6"/><path d="M170,136.277s13.4-.685,14.828,14.165v14.394l14.677,9.824v27.787L170,183.484Z" style="fill:#ffc4b6"/><path d="M162.124,25.126a3,3,0,0,1-1.435-5.819l.387-.111a3,3,0,0,1,1.606,5.781l-.283.081A2.827,2.827,0,0,1,162.124,25.126Z" style="fill:#ffe1dc"/><path d="M149.355,36.182a3,3,0,0,1-3.316-4.176,19.088,19.088,0,0,1,5.09-6.3,3,3,0,0,1,3.821,4.627,13.709,13.709,0,0,0-3.441,4.143A2.994,2.994,0,0,1,149.355,36.182Z" style="fill:#ffe1dc"/><path d="M167.355,185.185l2.645-1.7,2.645,1.7v-48.7a17.249,17.249,0,0,0-5.29,0Z" style="fill:#ea8b7f"/></svg>