<?xml version="1.0" encoding="UTF-8"?>
<!DOCTYPE svg PUBLIC "-//W3C//DTD SVG 1.1//EN" "http://www.w3.org/Graphics/SVG/1.1/DTD/svg11.dtd">

<svg xmlns="http://www.w3.org/2000/svg" xml:space="preserve" width="2048px" height="2048px" style="shape-rendering:geometricPrecision; text-rendering:geometricPrecision; image-rendering:optimizeQuality; fill-rule:evenodd; clip-rule:evenodd"
viewBox="0 0 2048 2048"
 xmlns:xlink="http://www.w3.org/1999/xlink">
 <defs>
  <style type="text/css">
   <![CDATA[
    .fil6 {fill:none}
    .fil5 {fill:#B71C1C}
    .fil3 {fill:#D24816}
    .fil4 {fill:#D32F2F}
    .fil0 {fill:#E65100}
    .fil1 {fill:#B71C1C;fill-rule:nonzero}
    .fil2 {fill:#BA480B;fill-rule:nonzero}
   ]]>
  </style>
 </defs>
 <g id="Layer_x0020_1">
  <metadata id="CorelCorpID_0Corel-Layer"/>
  <path class="fil0" d="M860 586c224,70 269,204 315,341 0,1 0,1 0,2 30,91 61,183 156,250 16,11 39,23 67,34 33,13 72,25 114,36 12,3 20,12 23,23l39 135 180 -45c17,-4 34,6 39,23 4,17 -6,34 -23,39l-2 1c-73,23 -161,45 -254,60 -81,13 -166,21 -250,21 -260,0 -354,-119 -455,-246 -84,-107 -174,-219 -386,-257 -58,-10 -97,-28 -124,-53 -28,-27 -40,-60 -43,-97 -1,-10 -1,-20 0,-30 1,-10 2,-20 3,-30 3,-17 19,-29 36,-27l1 0c80,13 145,24 213,45 57,18 116,42 188,79l0 -64c-98,-54 -179,-71 -279,-92 -33,-7 -67,-14 -101,-22 -17,-4 -28,-21 -24,-39 0,-2 1,-4 2,-6 7,-19 14,-37 21,-54 7,-17 13,-33 18,-46 6,-17 24,-25 41,-19 1,0 2,1 2,1 77,31 155,49 232,55 78,6 156,1 233,-17 6,-1 11,-1 17,1zm46 392l57 -43c12,63 22,106 41,145 18,38 45,74 90,121l-15 85c-49,-52 -111,-133 -133,-179 -22,-45 -27,-61 -40,-129z"/>
  <path class="fil1" d="M990 637c44,26 76,58 101,96 25,38 44,80 62,125 4,10 9,23 14,39 27,77 76,216 147,261l-11 17c-77,-48 -128,-191 -156,-271 -6,-16 -10,-29 -14,-38 -18,-44 -36,-85 -60,-121 -24,-36 -53,-75 -94,-99l9 -9z"/>
  <path class="fil2" d="M535 964c17,5 45,43 41,60 -87,108 -131,259 -145,443 -3,14 -15,25 -29,26 -18,1 -33,-12 -34,-30l-32 -487c-1,-18 12,-33 30,-34 20,-1 150,17 170,22z"/>
  <path class="fil3" d="M1574 1405c-60,18 -231,45 -381,26 -284,-37 -334,-329 -594,-443 -77,-34 -178,-56 -323,-68 3,5 6,10 10,14 4,5 8,9 12,13 26,25 66,43 124,53 212,37 301,150 386,257 100,127 195,246 455,246 84,0 169,-8 250,-21 94,-15 181,-37 254,-60l2 -1c17,-4 27,-22 23,-39 -4,-17 -22,-28 -39,-23l-180 45 0 0z"/>
  <ellipse class="fil4" transform="matrix(0.586339 -0.196803 0.196803 0.586339 1176.76 888.459)" rx="36" ry="57"/>
  <path class="fil5" d="M805 728l50 -12 -12 72c35,-62 81,-132 155,-142 -63,-15 -150,40 -192,82z"/>
  <ellipse class="fil4" transform="matrix(0.449929 -0.424368 0.424368 0.449929 1310.09 1153.04)" rx="36" ry="57"/>
  <ellipse class="fil4" transform="matrix(0.533307 -0.313223 0.313223 0.533307 1258.01 1083.25)" rx="36" ry="57"/>
  <ellipse class="fil4" transform="matrix(0.586339 -0.196803 0.196803 0.586339 1214.26 993.667)" rx="36" ry="57"/>
  <ellipse class="fil4" transform="matrix(0.547203 -0.288259 0.288259 0.547203 1131.96 781.168)" rx="36" ry="57"/>
  <ellipse class="fil4" transform="matrix(0.457245 -0.416475 0.416475 0.457245 1074.67 691.583)" rx="36" ry="57"/>
  <ellipse class="fil4" transform="matrix(0.364601 -0.49959 0.49959 0.364601 995.507 628.041)" rx="36" ry="57"/>
  <path class="fil3" d="M1152 1337c18,11 40,17 64,18 19,-70 47,-138 117,-175 -65,9 -150,103 -181,157z"/>
  <path class="fil3" d="M1275 1351c19,9 40,10 61,9 -6,-62 -8,-122 40,-158 -52,11 -91,99 -100,149z"/>
  <rect class="fil6" width="2048" height="2048"/>
 </g>
</svg>
