<?xml version="1.0" encoding="UTF-8"?>
<!DOCTYPE svg PUBLIC "-//W3C//DTD SVG 1.1//EN" "http://www.w3.org/Graphics/SVG/1.1/DTD/svg11.dtd">

<svg xmlns="http://www.w3.org/2000/svg" xml:space="preserve" width="2048px" height="2048px" style="shape-rendering:geometricPrecision; text-rendering:geometricPrecision; image-rendering:optimizeQuality; fill-rule:evenodd; clip-rule:evenodd"
viewBox="0 0 2048 2048"
 xmlns:xlink="http://www.w3.org/1999/xlink">
 <defs>
  <style type="text/css">
   <![CDATA[
    .fil7 {fill:none}
    .fil6 {fill:#01579B}
    .fil5 {fill:#0277BD}
    .fil4 {fill:#29B6F6}
    .fil1 {fill:#8BC34A}
    .fil3 {fill:#01579B;fill-rule:nonzero}
    .fil0 {fill:#558B2F;fill-rule:nonzero}
    .fil2 {fill:#689F38;fill-rule:nonzero}
   ]]>
  </style>
 </defs>
 <g id="Layer_x0020_1">
  <metadata id="CorelCorpID_0Corel-Layer"/>
  <path class="fil0" d="M617 288c0,-18 14,-32 32,-32 18,0 32,14 32,32l0 320c0,18 -14,32 -32,32 -18,0 -32,-14 -32,-32l0 -320z"/>
  <path class="fil0" d="M1385 288c0,-18 14,-32 32,-32 18,0 32,14 32,32l0 320c0,18 -14,32 -32,32 -18,0 -32,-14 -32,-32l0 -320z"/>
  <path class="fil1" d="M616 576l138 0 32 0 0 32 0 6c0,68 28,130 73,174 45,45 107,73 174,73 68,0 130,-28 174,-73 45,-45 73,-107 73,-174l0 -6 0 -32 32 0 138 0c64,0 122,26 164,68 42,42 68,100 68,164l0 367c0,179 -73,341 -191,458 -118,118 -280,191 -458,191 -179,0 -341,-73 -458,-191 -118,-118 -191,-280 -191,-458l0 -367c0,-64 26,-122 68,-164 42,-42 100,-68 164,-68z"/>
  <path class="fil2" d="M1356 655c-4,33 -14,66 -28,96 -16,34 -38,66 -65,94 -31,31 -67,55 -106,71 -39,16 -81,25 -124,25 -43,0 -85,-9 -124,-25 -39,-16 -75,-40 -106,-71 -27,-27 -49,-59 -65,-94 -14,-30 -23,-63 -28,-96l-94 0c-20,0 -40,4 -58,12 -18,8 -35,19 -50,33 -14,14 -26,31 -33,50 -8,18 -12,38 -12,58l0 367c0,76 15,149 43,218 28,68 70,131 124,185 54,54 117,96 185,124 68,28 142,43 218,43 76,0 149,-15 218,-43 68,-28 131,-70 185,-124 54,-54 96,-117 124,-185 28,-68 43,-142 43,-218l0 -367c0,-20 -4,-40 -12,-58 -8,-18 -19,-35 -33,-50 -14,-14 -31,-26 -50,-33 -18,-8 -38,-12 -58,-12l-94 0zm-55 84c15,-31 24,-65 26,-100l1 -14 14 0 107 0c24,0 48,5 70,14 22,9 42,23 59,40 17,17 31,37 40,59 9,22 14,46 14,70l0 367c0,80 -16,157 -46,229 -30,72 -74,138 -131,195 -56,56 -123,101 -195,131 -72,30 -149,46 -229,46 -80,0 -157,-16 -229,-46 -72,-30 -138,-74 -195,-131 -56,-56 -101,-123 -131,-195 -30,-72 -46,-149 -46,-229l0 -367c0,-24 5,-48 14,-70 9,-22 23,-42 40,-59 17,-17 37,-31 59,-40 22,-9 46,-14 70,-14l107 0 14 0 1 14c3,35 12,69 26,100 14,31 35,60 59,85 28,28 61,50 96,64 35,15 74,23 113,23 39,0 78,-8 113,-23 36,-15 68,-37 96,-64 25,-25 45,-54 59,-85z"/>
  <path class="fil2" d="M1367 669l0 0 0 0 0 0c0,0 0,1 -1,2l0 1 0 1 0 1 0 1 0 1 0 1 0 1 0 1 0 1 0 1 0 1 0 1 0 1 0 1 0 1 0 1 0 1 0 1 0 1 0 1 0 1 0 1 0 1 0 1 0 0c-1,6 7,9 9,3 0,0 0,-1 0,-1l0 0 0 -1 0 -1 0 -1 0 -1 0 -1 0 -1 0 -1 0 -1 0 -1 0 -1 0 -1 0 -1 0 -1 0 -1 0 -1 0 -1 0 -1 0 -1 0 -1 12 0c6,0 7,-8 1,-10 0,0 -1,0 -1,0l-16 0c-2,0 -4,1 -4,3zm51 -3c-6,0 -7,8 -1,10 0,0 1,0 1,0l20 0c6,0 7,-8 1,-10 0,0 -1,0 -1,0l-20 0zm51 1c-6,-1 -8,8 -2,10 0,0 1,0 1,0l0 0 0 0 0 0 0 0 0 0 0 0 0 0 0 0 0 0 0 0 0 0 0 0 0 0 0 0 0 0 0 0 0 0 0 0 0 0 0 0 0 0 0 0 0 0 0 0 0 0 0 0 0 0 0 0 0 0 0 0 0 0 0 0 0 0 0 0 0 0 0 0 0 0 0 0 0 0 0 0 0 0 0 0 0 0 0 0 0 0 0 0 0 0 0 0 0 0c4,1 8,-3 6,-7 -1,-1 -2,-2 -3,-2l0 0 0 0 0 0 0 0 0 0 0 0 0 0 0 0 0 0 0 0 0 0 0 0 0 0 0 0 0 0 0 0 0 0 0 0 0 0 0 0 0 0 0 0 0 0 0 0 0 0 0 0 0 0 0 0 0 0 0 0 0 0 0 0 0 0 0 0 0 0 0 0 0 0 0 0 0 0 0 0 0 0 0 0 0 0 0 0 0 0 0 0 0 0 0 0 0 0zm49 16c-5,-3 -10,4 -6,8 0,0 0,0 1,0l0 0 0 0 0 0 0 0 0 0 0 0 0 0 0 0 0 0 0 0 0 0 0 0 0 0 0 0 0 0 0 0 0 0 0 0 0 0 0 0 0 0 0 0 0 0 0 0 0 0 0 0 0 0 0 0 0 0 0 0 0 0 0 0 0 0 0 0 0 0 0 0 0 0 0 0 0 0 0 0 0 0 0 0 0 0 0 0 0 0 0 0 0 0 0 0 0 0c5,3 10,-2 7,-7 0,0 -1,-1 -1,-1l0 0 0 0 0 0 0 0 0 0 0 0 0 0 0 0 0 0 0 0 0 0 0 0 0 0 0 0 0 0 0 0 0 0 0 0 0 0 0 0 0 0 0 0 0 0 0 0 0 0 0 0 0 0 0 0 0 0 0 0 0 0 0 0 0 0 0 0 0 0 0 0 0 0 0 0 0 0 0 0 0 0 0 0 0 0 0 0 0 0 0 0 0 0 0 0 0 0zm40 32c-1,-2 -4,-2 -6,-1 -3,1 -4,5 -2,8l0 0 0 0 0 0 0 0 0 0 0 0 0 0 0 0 0 0 0 0 0 0 0 0 0 0 0 0 0 0 0 0 0 0 0 0 0 0 0 0 0 0 0 0 0 0 0 0 0 0 0 0 0 0 0 0 0 0 0 0 0 0 0 0 0 0 0 0 0 0 0 0 0 0 0 0 0 0 0 0 0 0 0 0 0 0 0 0 0 0 0 0 0 0 0 0 0 0c3,5 11,2 9,-4 0,0 0,-1 -1,-1l0 0 0 0 0 0 0 0 0 0 0 0 0 0 0 0 0 0 0 0 0 0 0 0 0 0 0 0 0 0 0 0 0 0 0 0 0 0 0 0 0 0 0 0 0 0 0 0 0 0 0 0 0 0 0 0 0 0 0 0 0 0 0 0 0 0 0 0 0 0 0 0 0 0 0 0 0 0 0 0 0 0 0 0 0 0 0 0 0 0 0 0 0 0 0 0 0 0zm26 45c-1,-4 -7,-4 -9,-1 -1,1 -1,3 0,4l0 0 0 0 0 0 0 0 0 0 0 0 0 0 0 0 0 0 0 0 0 0 0 0 0 0 0 0 0 0 0 0 0 0 0 0 0 0 0 0 0 0 0 0 0 0 0 0 0 0 0 0 0 0 0 0 0 0 0 0 0 0 0 0 0 0 0 0 0 0 0 0 0 0 0 0 0 0 0 0 0 0 0 0 0 0 0 0 0 0 0 0 0 0 0 0 0 0c1,5 9,5 10,0 0,-1 0,-1 0,-2l0 0 0 0 0 0 0 0 0 0 0 0 0 0 0 0 0 0 0 0 0 0 0 0 0 0 0 0 0 0 0 0 0 0 0 0 0 0 0 0 0 0 0 0 0 0 0 0 0 0 0 0 0 0 0 0 0 0 0 0 0 0 0 0 0 0 0 0 0 0 0 0 0 0 0 0 0 0 0 0 0 0 0 0 0 0 0 0 0 0 0 0 0 0 0 0 0 0zm8 51c0,-6 -8,-7 -10,-1 0,0 0,1 0,1l0 20c0,6 8,7 10,1 0,0 0,-1 0,-1l0 -20zm0 50c0,-6 -8,-7 -10,-1 0,0 0,1 0,1l0 20c0,6 8,7 10,1 0,0 0,-1 0,-1l0 -20zm0 50c0,-6 -8,-7 -10,-1 0,0 0,1 0,1l0 20c0,6 8,7 10,1 0,0 0,-1 0,-1l0 -20zm0 50c0,-6 -8,-7 -10,-1 0,0 0,1 0,1l0 20c0,6 8,7 10,1 0,0 0,-1 0,-1l0 -20zm0 50c0,-6 -8,-7 -10,-1 0,0 0,1 0,1l0 20c0,6 8,7 10,1 0,0 0,-1 0,-1l0 -20zm0 50c0,-6 -8,-7 -10,-1 0,0 0,1 0,1l0 20c0,6 8,7 10,1 0,0 0,-1 0,-1l0 -20zm0 50c0,-6 -8,-7 -10,-1 0,0 0,1 0,1l0 20c0,6 8,7 10,1 0,0 0,-1 0,-1l0 -20zm0 50c0,-6 -8,-7 -10,-1 0,0 0,1 0,1l0 13 0 0 0 0 0 0 0 2 0 2 0 2 0 2 0 0c0,5 6,7 9,3 1,-1 1,-2 1,-3l0 0 0 -2 0 -2 0 -2 0 -2 0 -13zm-1 50c0,-2 -1,-4 -3,-5 -3,-1 -6,1 -7,4l0 1 0 2 0 2 0 2 0 2 0 2 0 2 0 2 0 2 0 2 0 2 0 2 0 0c-1,5 7,8 9,3 0,-1 0,-1 0,-2l0 0 0 -2 0 -2 0 -2 0 -2 0 -2 0 -2 0 -2 0 -2 0 -2 0 -2 0 -2 0 -1zm-6 50c1,-6 -7,-8 -9,-3 0,0 0,1 0,1l0 0 0 2 0 2 0 2 0 2 0 2 0 2 0 2 0 2 0 2 0 2 0 2 0 1c-1,6 6,8 9,3 0,0 0,-1 1,-1l0 -1 0 -2 0 -2 0 -2 0 -2 0 -2 0 -2 0 -2 0 -2 0 -2 0 -2 0 -2 0 0zm-10 49c0,-1 0,-2 0,-3 -2,-4 -8,-4 -9,1l0 1 0 2 0 2 0 2 0 2 0 2 0 2 0 2 0 2 0 2 0 2 0 2 0 1c-2,5 5,9 9,5 0,-1 1,-1 1,-2l0 -1 0 -2 0 -2 0 -2 0 -2 0 -2 0 -2 0 -2 0 -2 0 -2 0 -2 0 -2 0 -1zm-15 48c0,-1 0,-3 0,-4 -2,-4 -8,-3 -9,1l0 1 -1 2 -1 2 -1 2 -1 2 -1 2 -1 2 -1 2 -1 2 -1 2 -1 2 -1 2 0 0c0,1 0,2 0,3 1,4 8,5 9,0l0 0 1 -2 1 -2 1 -2 1 -2 1 -2 1 -2 1 -2 1 -2 1 -2 1 -2 1 -2 0 -1zm-19 47c3,-6 -5,-10 -9,-5 0,0 0,0 0,1l0 0 -1 2 -1 2 -1 2 -1 2 -1 2 -1 2 -1 2 -1 1 -1 1 -1 1 -1 1 -1 1c-1,2 -1,5 1,6 2,2 6,1 8,-2l1 -1 1 -2 1 -2 1 -2 1 -2 1 -2 1 -2 1 -2 1 -2 1 -2 1 -2 1 -2 0 0zm-23 45c1,-2 1,-5 -1,-6 -2,-2 -6,-2 -8,1l0 1 -1 1 -1 1 -1 1 -1 1 -1 1 -1 1 -1 1 -1 1 -1 1 -1 1 -1 1 0 1c-3,5 3,10 8,6 0,0 1,-1 1,-1l0 -1 1 -1 1 -1 1 -1 1 -1 1 -1 1 -1 1 -1 1 -1 1 -1 1 -1 1 -1 0 -1zm-27 43c3,-4 -2,-10 -7,-7 -1,0 -1,1 -1,1l-1 1 -1 1 -1 1 -1 1 -1 1 -1 1 -1 1 -1 1 -1 1 -1 1 -1 1 -1 1c-4,5 3,11 7,7 0,0 0,0 1,-1l1 -1 1 -1 1 -1 1 -1 1 -1 1 -1 1 -1 1 -1 1 -1 1 -1 1 -1 1 -1zm-31 40c4,-4 -1,-10 -6,-8 -1,0 -1,1 -1,1l-1 1 -1 1 -1 1 -1 1 -1 1 -1 1 -1 1 -1 1 -1 1 -1 1 -1 1 -1 1 0 0c-3,3 -1,9 4,8 1,0 3,-1 3,-2l0 0 1 -1 1 -1 1 -1 1 -1 1 -1 1 -1 1 -1 1 -1 1 -1 1 -1 1 -1 1 -1zm-34 37c4,-4 0,-10 -5,-8 -1,0 -1,1 -2,1l0 0 -1 1 -1 1 -1 1 -1 1 -1 1 -1 1 -1 1 -1 1 -1 1 -1 1 -1 1 0 0c-3,3 -2,7 2,8 2,1 4,0 5,-1l0 0 1 -1 1 -1 1 -1 1 -1 1 -1 1 -1 1 -1 1 -1 1 -1 1 -1 1 -1 0 0zm-37 34c1,-1 2,-3 2,-5 -1,-4 -5,-5 -8,-3l0 0 -1 1 -1 1 -1 1 -1 1 -1 1 -1 1 -1 1 -1 1 -1 1 -1 1 -1 1 -1 1c-1,1 -2,3 -2,5 0,4 5,6 8,3l1 -1 1 -1 1 -1 1 -1 1 -1 1 -1 1 -1 1 -1 1 -1 1 -1 1 -1 1 -1 0 0zm-40 30c4,-3 2,-8 -2,-9 -1,0 -3,0 -4,1l-1 1 -1 1 -1 1 -1 1 -1 1 -1 1 -1 1 -1 1 -1 1 -1 1 -1 1 -1 1 0 0c-5,3 -1,11 4,9 0,0 1,0 1,-1l0 0 1 -1 1 -1 1 -1 1 -1 1 -1 1 -1 1 -1 1 -1 1 -1 1 -1 1 -1 1 -1zm-43 27c5,-2 3,-10 -3,-9 -1,0 -1,0 -2,1l0 0 -1 1 -1 1 -1 1 -1 1 -1 1 -1 1 -1 1 -1 1 -1 1 -1 1 -1 1 -1 1c-5,3 -2,10 3,9 0,0 1,0 1,0l1 -1 2 -1 2 -1 2 -1 2 -1 2 -1 1 -1 1 -1 1 -1 1 -1 1 -1 1 -1 0 0zm-45 23c5,-2 3,-10 -2,-10 -1,0 -1,0 -2,0l-1 0 -2 1 -2 1 -2 1 -2 1 -2 1 -2 1 -2 1 -2 1 -2 1 -2 1 -2 1 -1 0c-5,2 -4,10 2,10 1,0 1,0 2,0l1 0 2 -1 2 -1 2 -1 2 -1 2 -1 2 -1 2 -1 2 -1 2 -1 2 -1 2 -1 1 0zm-47 18c5,-2 4,-10 -2,-10 0,0 -1,0 -1,0l-1 0 -2 1 -2 1 -2 1 -2 1 -2 1 -2 1 -2 1 -2 1 -2 0 -2 0 -2 0 0 0c-5,2 -4,10 1,10 1,0 1,0 2,0l0 0 2 0 2 0 2 -1 2 -1 2 -1 2 -1 2 -1 2 -1 2 -1 2 -1 2 -1 1 0zm-48 14c6,-1 5,-9 -1,-10 -1,0 -1,0 -2,0l0 0 -2 0 -2 0 -2 0 -2 0 -2 0 -2 0 -2 0 -2 0 -2 0 -2 0 -2 0 -1 0c-6,1 -5,10 1,10 0,0 1,0 1,0l1 0 2 0 2 0 2 0 2 0 2 0 2 0 2 0 2 0 2 0 2 0 2 0 0 0zm-50 10c5,-1 6,-9 0,-10 -1,0 -1,0 -2,0l-1 0 -2 0 -2 0 -2 0 -2 0 -2 0 -2 0 -2 0 -2 0 -2 0 -2 0 -2 0 0 0c-5,1 -6,8 -1,10 1,0 1,0 2,0l1 0 2 0 2 0 2 0 2 0 2 0 2 0 2 0 2 0 2 0 2 0 2 0 1 0zm-50 5c6,0 6,-8 1,-10 -1,0 -1,0 -2,0l0 0 -2 0 -2 0 -2 0 -2 0 -2 0 -2 0 -2 0 -2 0 -2 0 -2 0 -2 0 -1 0c-6,0 -7,9 -1,10 0,0 0,0 1,0l1 0 2 0 2 0 2 0 2 0 2 0 2 0 2 0 2 0 2 0 2 0 2 0 0 0zm-50 1c2,0 4,-1 5,-3 2,-3 -1,-7 -4,-7l0 0 -2 0 -2 0 -2 0 -2 0 -2 0 -2 0 -2 0 -2 0 -2 0 -2 0 -2 0 -1 0c-2,0 -4,1 -5,2 -2,3 0,7 4,8l1 0 2 0 2 0 2 0 2 0 2 0 2 0 2 0 2 0 2 0 2 0 2 0 0 0zm-50 -4c2,0 4,-1 5,-3 2,-3 0,-7 -4,-7l-1 0 -2 0 -2 0 -2 0 -2 0 -2 0 -2 0 -2 0 -2 0 -2 0 -2 0 -2 0 0 0c-6,-1 -8,7 -3,10 0,0 1,0 1,0l0 0 2 0 2 0 2 0 2 0 2 0 2 0 2 0 2 0 2 0 2 0 2 0 1 0zm-20 -3l2 -10m-31 4c5,1 9,-6 4,-9 0,0 -1,0 -2,-1l0 0 -2 0 -2 0 -2 0 -2 0 -2 0 -2 0 -2 0 -2 0 -2 0 -2 0 -2 0 -1 0c-5,-1 -9,6 -4,9 0,0 1,0 1,1l1 0 2 0 2 0 2 0 2 0 2 0 2 0 2 0 2 0 2 0 2 0 2 0 0 0zm-49 -13c6,2 9,-6 4,-9 0,0 -1,0 -1,0l-1 0 -2 -1 -2 -1 -2 -1 -2 -1 -2 -1 -2 -1 -2 -1 -2 -1 -2 -1 -2 -1 -2 -1 0 0c-2,-1 -5,0 -6,2 -2,3 0,6 3,7l0 0 2 1 2 1 2 1 2 1 2 1 2 1 2 1 2 1 2 1 2 1 2 1 1 0zm-47 -17c5,2 9,-4 6,-8 -1,-1 -1,-1 -2,-1l-1 -1 -2 -1 -2 -1 -2 -1 -2 -1 -2 -1 -2 -1 -2 -1 -2 -1 -2 -1 -2 -1 -1 -1c-5,-2 -10,4 -5,8 0,0 1,1 1,1l1 1 2 1 2 1 2 1 2 1 2 1 2 1 2 1 2 1 2 1 2 1 1 1zm-46 -22c1,0 2,1 2,1 5,0 7,-7 2,-9l0 0 -1 -1 -1 -1 -1 -1 -1 -1 -1 -1 -1 -1 -1 -1 -1 -1 -1 -1 -1 -1 -1 -1 -1 -1c-5,-3 -10,3 -6,8 0,0 1,1 1,1l1 1 1 1 1 1 1 1 1 1 1 1 1 1 1 1 1 1 1 1 1 1 2 1 0 0zm-43 -26c5,3 10,-3 6,-8 0,0 -1,-1 -1,-1l-1 -1 -1 -1 -1 -1 -1 -1 -1 -1 -1 -1 -1 -1 -1 -1 -1 -1 -1 -1 -1 -1 -1 -1 0 0c-4,-3 -10,2 -7,7 0,1 1,1 1,1l0 0 1 1 1 1 1 1 1 1 1 1 1 1 1 1 1 1 1 1 1 1 1 1 1 1zm-41 -29c4,3 10,-1 8,-6 0,-1 -1,-1 -1,-2l0 0 -1 -1 -1 -1 -1 -1 -1 -1 -1 -1 -1 -1 -1 -1 -1 -1 -1 -1 -1 -1 -1 -1 -1 -1c-4,-3 -10,1 -8,6 0,1 1,1 1,2l1 1 1 1 1 1 1 1 1 1 1 1 1 1 1 1 1 1 1 1 1 1 1 1 0 0zm-38 -33c4,4 11,-1 8,-6 0,0 -1,-1 -1,-1l-1 -1 -1 -1 -1 -1 -1 -1 -1 -1 -1 -1 -1 -1 -1 -1 -1 -1 -1 -1 -1 -1 -1 -1c-1,-1 -2,-1 -3,-1 -5,0 -7,5 -4,8l1 1 1 1 1 1 1 1 1 1 1 1 1 1 1 1 1 1 1 1 1 1 1 1zm-35 -36c4,4 10,0 8,-5 0,-1 -1,-1 -1,-2l-1 -1 -1 -1 -1 -1 -1 -1 -1 -1 -1 -1 -1 -1 -1 -1 -1 -1 -1 -1 -1 -1 -1 -1c-3,-4 -10,-1 -9,5 0,1 0,1 1,2l1 1 1 1 1 1 1 1 1 1 1 1 1 1 1 1 1 1 1 1 1 1 1 1zm-32 -39c3,4 10,1 9,-4 0,-1 0,-1 -1,-2l0 -1 -1 -1 -1 -1 -1 -1 -1 -1 -1 -1 -1 -1 -1 -1 -1 -1 -1 -1 -1 -1 -1 -1 0 -1c0,0 -1,-1 -1,-1 -5,-3 -10,2 -7,7l0 1 1 1 1 1 1 1 1 1 1 1 1 1 1 1 1 1 1 1 1 1 1 1 0 1zm-28 -42c3,4 9,3 9,-3 0,-1 0,-2 -1,-2l-1 -1 -1 -1 -1 -1 -1 -1 -1 -1 -1 -1 -1 -1 -1 -1 -1 -1 -1 -1 -1 -1 -1 -1 0 0c-1,-1 -2,-2 -3,-2 -4,-1 -7,4 -5,7l0 0 1 1 1 1 1 1 1 1 1 1 1 1 1 1 1 1 1 1 1 1 1 1 1 1zm-10 -17l9 -5m-23 -22c2,5 10,3 9,-3 0,-1 0,-1 0,-2l0 0 -1 -2 -1 -2 -1 -2 -1 -2 -1 -2 -1 -2 -1 -2 -1 -2 -1 -2 -1 -2 -1 -2 0 -1c-1,-2 -3,-3 -5,-3 -4,0 -6,4 -4,7l0 1 1 2 1 2 1 2 1 2 1 2 1 2 1 2 1 2 1 2 1 2 1 2 0 0zm-20 -46c2,5 10,4 10,-2 0,0 0,-1 0,-1l0 -1 -1 -2 -1 -2 -1 -2 -1 -2 -1 -2 -1 -2 -1 -2 -1 -2 -1 -2 -1 -2 -1 -2 0 -1c-2,-5 -10,-4 -10,2 0,0 0,1 0,1l0 1 1 2 1 2 1 2 1 2 1 2 1 2 1 2 1 2 1 2 1 2 1 2 0 1zm-16 -48c1,5 9,5 10,-1 0,-1 0,-1 0,-2l0 -1 0 -2 0 -2 0 -2 0 -2 0 -2 0 -2 0 -2 0 -2 0 -2 0 -2 0 -2 0 0c-1,-5 -8,-5 -10,0 0,1 0,1 0,2l0 0 0 2 0 2 0 2 0 2 0 2 0 2 0 2 0 2 0 2 0 2 0 2 0 1zm-11 -49c1,5 9,6 10,0 0,-1 0,-1 0,-2l0 0 0 -2 0 -2 0 -2 0 -2 0 -2 0 -2 0 -2 0 -2 0 -2 0 -2 0 -2 0 -1c-1,-6 -9,-6 -10,0 0,1 0,1 0,2l0 1 0 2 0 2 0 2 0 2 0 2 0 2 0 2 0 2 0 2 0 2 0 2 0 0zm-7 -50c0,5 8,6 10,1 0,-1 0,-1 0,-2l0 -1 0 -2 0 -2 0 -2 0 -2 0 -2 0 -2 0 -2 0 -2 0 -2 0 -2 0 -2c0,-5 -7,-7 -10,-2 0,1 0,1 0,2l0 2 0 2 0 2 0 2 0 2 0 2 0 2 0 2 0 2 0 2 0 2 0 1zm-2 -50c0,6 8,7 10,1 0,0 0,-1 0,-1l0 -20c0,-6 -8,-7 -10,-1 0,0 0,1 0,1l0 20zm0 -50c0,6 8,7 10,1 0,0 0,-1 0,-1l0 -20c0,-6 -8,-7 -10,-1 0,0 0,1 0,1l0 20zm0 -50c0,6 8,7 10,1 0,0 0,-1 0,-1l0 -20c0,-6 -8,-7 -10,-1 0,0 0,1 0,1l0 20zm0 -50c0,6 8,7 10,1 0,0 0,-1 0,-1l0 -20c0,-6 -8,-7 -10,-1 0,0 0,1 0,1l0 20zm0 -50c0,6 8,7 10,1 0,0 0,-1 0,-1l0 -20c0,-6 -8,-7 -10,-1 0,0 0,1 0,1l0 20zm0 -50c0,6 8,7 10,1 0,0 0,-1 0,-1l0 -20c0,-6 -8,-7 -10,-1 0,0 0,1 0,1l0 20zm0 -50c0,6 8,7 10,1 0,0 0,-1 0,-1l0 -20c0,-6 -8,-7 -10,-1 0,0 0,1 0,1l0 20zm0 -50c0,6 8,7 10,1 0,0 0,-1 0,-1l0 -16 0 0 0 0 0 0 0 0 0 0 0 0 0 0 0 0 0 0 0 0 0 0 0 0c0,-5 -7,-7 -10,-2 0,1 0,1 0,2l0 0 0 0 0 0 0 0 0 0 0 0 0 0 0 0 0 0 0 16zm4 -51c-1,2 1,5 3,6 3,1 6,0 7,-3l0 0 0 0 0 0 0 0 0 0 0 0 0 0 0 0 0 0 0 0 0 0 0 0 0 0 0 0 0 0 0 0 0 0 0 0 0 0 0 0 0 0 0 0 0 0 0 0 0 0 0 0 0 0 0 0 0 0 0 0 0 0 0 0 0 0 0 0 0 0 0 0 0 0 0 0 0 0 0 0 0 0 0 0 0 0 0 0 0 0 0 0 0 0 0 0 0 0c2,-5 -4,-9 -8,-6 -1,1 -1,1 -1,2l0 0 0 0 0 0 0 0 0 0 0 0 0 0 0 0 0 0 0 0 0 0 0 0 0 0 0 0 0 0 0 0 0 0 0 0 0 0 0 0 0 0 0 0 0 0 0 0 0 0 0 0 0 0 0 0 0 0 0 0 0 0 0 0 0 0 0 0 0 0 0 0 0 0 0 0 0 0 0 0 0 0 0 0 0 0 0 0 0 0 0 0 0 0 0 0 0 0zm22 -47c-3,4 2,10 7,7 1,0 1,-1 2,-1l0 0 0 0 0 0 0 0 0 0 0 0 0 0 0 0 0 0 0 0 0 0 0 0 0 0 0 0 0 0 0 0 0 0 0 0 0 0 0 0 0 0 0 0 0 0 0 0 0 0 0 0 0 0 0 0 0 0 0 0 0 0 0 0 0 0 0 0 0 0 0 0 0 0 0 0 0 0 0 0 0 0 0 0 0 0 0 0 0 0 0 0 0 0 0 0c1,-1 1,-2 1,-3 0,-5 -5,-7 -9,-4l0 0 0 0 0 0 0 0 0 0 0 0 0 0 0 0 0 0 0 0 0 0 0 0 0 0 0 0 0 0 0 0 0 0 0 0 0 0 0 0 0 0 0 0 0 0 0 0 0 0 0 0 0 0 0 0 0 0 0 0 0 0 0 0 0 0 0 0 0 0 0 0 0 0 0 0 0 0 0 0 0 0 0 0 0 0 0 0 0 0 0 0 0 0 0 0zm37 -36c-4,3 -2,10 4,9 1,0 1,0 2,-1l0 0 0 0 0 0 0 0 0 0 0 0 0 0 0 0 0 0 0 0 0 0 0 0 0 0 0 0 0 0 0 0 0 0 0 0 0 0 0 0 0 0 0 0 0 0 0 0 0 0 0 0 0 0 0 0 0 0 0 0 0 0 0 0 0 0 0 0 0 0 0 0 0 0 0 0 0 0 0 0 0 0 0 0 0 0 0 0 0 0 0 0 0 0 0 0 0 0c5,-2 3,-10 -3,-9 -1,0 -1,0 -1,0l0 0 0 0 0 0 0 0 0 0 0 0 0 0 0 0 0 0 0 0 0 0 0 0 0 0 0 0 0 0 0 0 0 0 0 0 0 0 0 0 0 0 0 0 0 0 0 0 0 0 0 0 0 0 0 0 0 0 0 0 0 0 0 0 0 0 0 0 0 0 0 0 0 0 0 0 0 0 0 0 0 0 0 0 0 0 0 0 0 0 0 0 0 0 0 0 0 0zm47 -20c-5,1 -5,9 1,10 1,0 1,0 2,0l0 0 0 0 0 0 0 0 0 0 0 0 0 0 0 0 0 0 0 0 0 0 0 0 0 0 0 0 0 0 0 0 0 0 0 0 0 0 0 0 0 0 0 0 0 0 0 0 0 0 0 0 0 0 0 0 0 0 0 0 0 0 0 0 0 0 0 0 0 0 0 0 0 0 0 0 0 0 0 0 0 0 0 0 0 0 0 0 0 0 0 0 0 0 0 0c5,0 6,-8 1,-10 -1,0 -1,0 -2,0l0 0 0 0 0 0 0 0 0 0 0 0 0 0 0 0 0 0 0 0 0 0 0 0 0 0 0 0 0 0 0 0 0 0 0 0 0 0 0 0 0 0 0 0 0 0 0 0 0 0 0 0 0 0 0 0 0 0 0 0 0 0 0 0 0 0 0 0 0 0 0 0 0 0 0 0 0 0 0 0 0 0 0 0 0 0 0 0 0 0 0 0 0 0 0 0zm51 -3c-6,0 -7,8 -1,10 0,0 1,0 1,0l20 0c6,0 7,-8 1,-10 0,0 -1,0 -1,0l-20 0zm50 0c-6,0 -7,8 -1,10 0,0 1,0 1,0l4 0 0 1 0 1 0 1 0 1 0 1 0 1 0 1 0 1 0 1c1,6 9,5 10,-1 0,0 0,-1 0,-1l0 -1 0 -1 0 -1 0 -1 0 -1 0 -1 0 -1 0 -1 0 -1 0 -1 0 -1 0 -1 0 -1 0 -1c-1,-3 -3,-4 -5,-4l0 0 -9 0zm23 44c-2,-5 -9,-4 -10,1 0,1 0,1 0,2l0 1 0 1 0 1 0 1 0 1 0 1 0 1 0 1 0 1 0 1 0 1 0 1 0 1 0 1 0 1 0 1 0 1 0 1 0 1 0 1 0 1 0 1 0 1 0 1 0 0c0,1 1,1 1,2 4,3 10,-1 8,-5l0 0 0 -1 0 -1 0 -1 0 -1 0 -1 0 -1 0 -1 0 -1 0 -1 0 -1 0 -1 0 -1 0 -1 0 -1 0 -1 0 -1 0 -1 0 -1 0 -1 0 -1 0 -1 0 -1 0 -1 0 -1zm18 46c-2,-5 -10,-3 -9,3 0,0 0,1 0,1l0 0 0 1 0 1 0 1 0 1 0 1 0 1 0 1 0 1 0 1 0 1 0 1 0 1 0 1 0 1 0 1 0 1 0 1 0 1 0 1 0 1 0 1 0 1 0 1 0 1 0 0c3,5 10,3 9,-3 0,-1 0,-1 -1,-2l0 0 0 -1 0 -1 0 -1 0 -1 0 -1 0 -1 0 -1 0 -1 0 -1 0 -1 0 -1 0 -1 0 -1 0 -1 0 -1 0 -1 0 -1 0 -1 0 -1 0 -1 0 -1 0 -1 0 -1 0 -1 0 0zm24 43c-3,-4 -10,-2 -9,4 0,1 0,1 1,2l0 0 0 1 0 1 0 1 0 1 0 1 0 1 0 1 0 1 0 1 0 1 0 1 0 1 0 1 0 1 0 1 0 1 0 1 0 1 0 1 0 1 0 1 0 1 0 1 0 1c1,1 2,2 3,2 5,1 8,-4 5,-8l0 -1 0 -1 0 -1 0 -1 0 -1 0 -1 0 -1 0 -1 0 -1 0 -1 0 -1 0 -1 0 -1 0 -1 0 -1 0 -1 0 -1 0 -1 0 -1 0 -1 0 -1 0 -1 0 -1 0 -1 0 0zm30 39c-4,-4 -10,0 -8,5 0,1 1,1 1,1l0 0 1 1 1 1 1 1 1 1 1 1 1 1 1 1 1 1 1 1 1 1 1 1 1 1 1 1 1 1 1 1 1 1 1 1 1 1 1 1 1 1 1 1 1 1 1 1 1 1c1,1 3,2 5,1 4,-1 5,-6 2,-8l-1 -1 -1 -1 -1 -1 -1 -1 -1 -1 -1 -1 -1 -1 -1 -1 -1 -1 -1 -1 -1 -1 -1 -1 -1 -1 -1 -1 -1 -1 -1 -1 -1 -1 -1 -1 -1 -1 -1 -1 -1 -1 -1 -1 -1 -1 -1 -1 0 0zm35 34c-5,-4 -11,3 -7,7l0 0 1 1 1 1 1 1 1 1 1 1 1 1 1 1 1 1 1 1 1 1 1 1 1 1 1 1 1 1 1 1 1 1 1 1 1 1 1 1 0 0c5,4 11,-3 7,-8 0,0 0,0 -1,0l0 0 -1 -1 -1 -1 -1 -1 -1 -1 -1 -1 -1 -1 -1 -1 -1 -1 -1 -1 -1 -1 -1 -1 -1 -1 -1 -1 -1 -1 -1 -1 -1 -1 -1 -1 -1 -1 -1 -1zm40 29c-5,-3 -10,3 -6,8 0,0 1,1 1,1l0 0 1 1 1 1 1 1 1 1 1 1 1 1 1 1 1 1 1 1 1 1 1 1 1 1 1 1 1 1 1 1 1 1 1 1 1 1 1 0c5,3 10,-3 6,-8 0,0 -1,-1 -1,-1l-1 0 -1 0 -1 0 -1 0 -1 -1 -1 -1 -1 -1 -1 -1 -1 -1 -1 -1 -1 -1 -1 -1 -1 -1 -1 -1 -1 -1 -1 -1 -1 -1 -1 -1 -1 -1 0 0zm44 23c-2,-1 -5,0 -6,2 -2,3 -1,6 2,8l0 0 1 0 1 0 1 0 1 0 1 0 1 0 1 0 1 0 1 0 1 0 1 0 1 0 1 0 1 0 1 0 1 0 1 0 1 0 1 0c6,2 9,-6 4,-9 0,0 -1,0 -1,0l-1 0 -1 0 -1 0 -1 0 -1 0 -1 0 -1 0 -1 0 -1 0 -1 0 -1 0 -1 0 -1 0 -1 0 -1 0 -1 0 -1 0 -1 0 -1 0 0 0zm46 16c-5,-1 -9,6 -4,9 1,0 1,1 2,1l1 0 1 0 1 0 1 0 1 0 1 0 1 0 1 0 1 0 1 0 1 0 1 0 1 0 1 0 1 0 1 0 1 0 1 0 1 0 0 0c5,1 8,-6 4,-9 -1,0 -1,-1 -2,-1l0 0 -1 0 -1 0 -1 0 -1 0 -1 0 -1 0 -1 0 -1 0 -1 0 -1 0 -1 0 -1 0 -1 0 -1 0 -1 0 -1 0 -1 0 -1 0 -1 0zm48 9c-6,-1 -8,7 -2,10 0,0 1,0 1,0l0 0 1 0 1 0 1 0 1 0 1 0 1 0 1 0 1 0 1 0 1 0 1 0 1 0 1 0 1 0 1 0 1 0 1 0 1 0 1 0c6,0 7,-8 1,-10 0,0 -1,0 -1,0l-1 0 -1 0 -1 0 -1 0 -1 0 -1 0 -1 0 -1 0 -1 0 -1 0 -1 0 -1 0 -1 0 -1 0 -1 0 -1 0 -1 0 -1 0 -1 0 0 0zm49 2c-2,0 -4,1 -4,3 -2,3 1,7 5,7l1 0 1 0 1 0 1 0 1 0 1 0 1 0 1 0 1 0 1 0 1 0 1 0 1 0 1 0 1 0 1 0 1 0 1 0 1 0c6,-1 6,-9 0,-10 0,0 -1,0 -1,0l-1 0 -1 0 -1 0 -1 0 -1 0 -1 0 -1 0 -1 0 -1 0 -1 0 -1 0 -1 0 -1 0 -1 0 -1 0 -1 0 -1 0 -1 0 -1 0zm49 -5c-5,1 -6,9 0,10 1,0 1,0 2,0l1 0 1 0 1 0 1 0 1 0 1 0 1 0 1 0 1 0 1 0 1 0 1 0 1 0 1 0 1 0 1 0 1 0 1 0 1 0 0 0c5,-1 5,-9 -1,-10 -1,0 -1,0 -2,0l0 0 -1 0 -1 0 -1 0 -1 0 -1 0 -1 0 -1 0 -1 0 -1 0 -1 0 -1 0 -1 0 -1 0 -1 0 -1 0 -1 0 -1 0 -1 0 -1 0zm48 -12c-5,2 -4,10 1,10 1,0 1,0 2,0l1 0 1 0 1 0 1 0 1 0 1 0 1 0 1 0 1 0 1 0 1 0 1 0 1 0 1 0 1 0 1 0 1 0 1 0 1 0 0 0c5,-2 4,-9 -2,-10 -1,0 -1,0 -2,0l0 0 -1 0 -1 0 -1 0 -1 0 -1 0 -1 0 -1 0 -1 0 -1 0 -1 0 -1 0 -1 0 -1 0 -1 0 -1 0 -1 0 -1 0 -1 0 -1 0zm45 -19c-5,2 -3,10 3,9 1,0 1,0 2,-1l0 0 1 0 1 0 1 0 1 0 1 0 1 0 1 -1 1 -1 1 -1 1 -1 1 -1 1 -1 1 -1 1 -1 1 -1 1 -1 1 -1 1 -1 1 -1 0 0c5,-3 2,-10 -3,-9 -1,0 -1,0 -2,1l0 0 -1 1 -1 1 -1 1 -1 1 -1 1 -1 1 -1 1 -1 0 -1 0 -1 0 -1 0 -1 0 -1 0 -1 0 -1 0 -1 0 -1 0 -1 0 -1 0 0 0zm42 -25c-1,1 -2,2 -2,3 -1,4 4,8 8,5l0 0 1 -1 1 -1 1 -1 1 -1 1 -1 1 -1 1 -1 1 -1 1 -1 1 -1 1 -1 1 -1 1 -1 1 -1 1 -1 1 -1 1 -1 1 -1 1 0c4,-4 0,-11 -5,-8 0,0 -1,0 -1,1l-1 0 -1 1 -1 1 -1 1 -1 1 -1 1 -1 1 -1 1 -1 1 -1 1 -1 1 -1 1 -1 1 -1 1 -1 1 -1 1 -1 1 -1 1 -1 1 0 0zm38 -31c-2,2 -2,4 -1,6 2,3 5,3 8,1l0 0 1 -1 1 -1 1 -1 1 -1 1 -1 1 -1 1 -1 1 -1 1 -1 1 -1 1 -1 1 -1 1 -1 1 -1 1 -1 1 -1 1 -1 1 -1 1 -1 1 -1 1 -1 0 0c4,-4 -1,-10 -6,-8 -1,0 -1,1 -2,1l0 0 -1 1 -1 1 -1 1 -1 1 -1 1 -1 1 -1 1 -1 1 -1 1 -1 1 -1 1 -1 1 -1 1 -1 1 -1 1 -1 1 -1 1 -1 1 -1 1 -1 1 -1 1 0 0zm33 -36c-1,2 -1,4 0,6 2,2 6,2 8,0l0 0 1 -1 1 -1 1 -1 1 -1 1 -1 1 -1 1 -1 1 -1 1 -1 1 -1 0 -1 0 -1 0 -1 0 -1 0 -1 0 -1 0 -1 0 -1 0 -1 0 -1 0 -1 0 -1 0 -1 0 -1c3,-5 -3,-10 -7,-7 0,0 -1,1 -1,1l0 1 0 1 0 1 0 1 0 1 0 1 0 1 0 1 0 1 0 1 0 1 0 1 0 1 0 1 0 1 0 1 0 1 0 1 0 1 0 1 0 1 0 1 0 1 -1 1 0 0zm28 -41c-3,5 3,10 8,6 0,0 1,-1 1,-1l0 0 0 -1 0 -1 0 -1 0 -1 0 -1 0 -1 0 -1 0 -1 0 -1 0 -1 0 -1 0 -1 0 -1 0 -1 0 -1 0 -1 0 -1 0 -1 0 -1 0 -1 0 -1 0 -1 0 -1 0 -1c1,-2 1,-4 -1,-5 -2,-3 -7,-2 -8,1l0 0 0 1 0 1 0 1 0 1 0 1 0 1 0 1 0 1 0 1 0 1 0 1 0 1 0 1 0 1 0 1 0 1 0 1 0 1 0 1 0 1 0 1 0 1 0 1 0 0zm21 -44c-2,4 3,8 7,6 1,-1 2,-1 3,-3l0 -1 0 -1 0 -1 0 -1 0 -1 0 -1 0 -1 0 -1 0 -1 0 -1 0 -1 0 -1 0 -1 0 -1 0 -1 0 -1 0 -1 0 -1 0 -1 0 -1 0 -1 0 -1 0 -1 0 -1 0 0c2,-6 -6,-9 -9,-4 0,0 0,1 0,1l0 0 0 1 0 1 0 1 0 1 0 1 0 1 0 1 0 1 0 1 0 1 0 1 0 1 0 1 0 1 0 1 0 1 0 1 0 1 0 1 0 1 0 1 0 1 0 1 0 1z"/>
  <g id="_241127448">
   <path class="fil3" d="M1048 1304c0,1 22,249 -55,358l-16 -11c73,-103 51,-344 51,-345l20 -2z"/>
   <g>
    <ellipse class="fil4" cx="1033" cy="1259" rx="73" ry="202"/>
    <circle class="fil4" transform="matrix(0.748478 1.1858 -3.26871 2.06322 1033.01 1258.56)" r="52"/>
    <circle class="fil4" transform="matrix(-0.695731 1.21749 -3.35608 -1.91782 1033.01 1258.56)" r="52"/>
    <circle class="fil5" cx="1033" cy="1259" r="126"/>
    <circle class="fil6" cx="1033" cy="1259" r="79"/>
   </g>
  </g>
  <rect class="fil7" width="2048" height="2048"/>
 </g>
</svg>
