<?xml version="1.0" encoding="UTF-8"?>
<!DOCTYPE svg PUBLIC "-//W3C//DTD SVG 1.1//EN" "http://www.w3.org/Graphics/SVG/1.1/DTD/svg11.dtd">

<svg xmlns="http://www.w3.org/2000/svg" xml:space="preserve" width="2048px" height="2048px" style="shape-rendering:geometricPrecision; text-rendering:geometricPrecision; image-rendering:optimizeQuality; fill-rule:evenodd; clip-rule:evenodd"
viewBox="0 0 2048 2048"
 xmlns:xlink="http://www.w3.org/1999/xlink">
 <defs>
  <style type="text/css">
   <![CDATA[
    .fil12 {fill:none}
    .fil1 {fill:#0E191F}
    .fil0 {fill:#162329}
    .fil8 {fill:#212121}
    .fil2 {fill:#263238}
    .fil3 {fill:#78909C}
    .fil10 {fill:#B0BEC5}
    .fil9 {fill:#CFD8DC}
    .fil5 {fill:#FFAB40}
    .fil11 {fill:#FFCC80}
    .fil7 {fill:black;fill-rule:nonzero}
    .fil4 {fill:#263238;fill-rule:nonzero}
    .fil6 {fill:#D32F2F;fill-rule:nonzero}
   ]]>
  </style>
 </defs>
 <g id="Layer_x0020_1">
  <metadata id="CorelCorpID_0Corel-Layer"/>
  <g id="_241133664">
   <polygon class="fil0" points="1510,992 1584,992 1584,1056 1510,1056 "/>
   <polygon class="fil1" points="1556,966 1603,966 1603,1082 1556,1082 "/>
   <rect class="fil0" x="575" y="1395" width="819" height="64"/>
   <rect class="fil0" x="575" y="595" width="819" height="64"/>
   <path class="fil2" d="M527 672l924 0c23,0 43,9 58,24 15,15 24,35 24,58l0 540c0,23 -9,43 -24,58 -15,15 -35,24 -58,24l-924 0c-23,0 -43,-9 -58,-24 -15,-15 -24,-35 -24,-58l0 -540c0,-23 9,-43 24,-58 15,-15 35,-24 58,-24z"/>
   <path class="fil0" d="M527 722c-9,0 -17,3 -23,9 -6,6 -9,14 -9,23l0 540c0,9 3,17 9,23 6,6 14,9 23,9l924 0c9,0 17,-3 23,-9 6,-6 9,-14 9,-23l0 -540c0,-9 -3,-17 -9,-23 -6,-6 -14,-9 -23,-9l-924 0z"/>
   <path class="fil3" d="M527 732c-6,0 -11,2 -16,6 -4,4 -6,10 -6,16l0 540c0,6 2,11 6,16 4,4 10,6 16,6l924 0c6,0 11,-2 16,-6 4,-4 6,-10 6,-16l0 -540c0,-6 -2,-11 -6,-16 -4,-4 -10,-6 -16,-6l-924 0z"/>
   <g>
    <g>
     <rect class="fil0" x="645" y="270" width="686" height="406"/>
     <path class="fil4" d="M652 255l673 0 32 0 0 32 0 30 -737 0 0 -30 0 -32 32 0zm705 94l0 64 -737 0 0 -64 232 0 0 23 272 0 0 -23 232 0zm0 96l0 64 -737 0 0 -64 232 0 0 23 272 0 0 -23 232 0zm0 96l0 55 0 32 -32 0 -673 0 -32 0 0 -32 0 -55 232 0 0 23 272 0 0 -23 232 0z"/>
    </g>
    <g>
     <rect class="fil0" x="645" y="1372" width="686" height="406"/>
     <path class="fil4" d="M652 1793l673 0 32 0 0 -32 0 -30 -737 0 0 30 0 32 32 0zm705 -94l0 -64 -737 0 0 64 232 0 0 -23 272 0 0 23 232 0zm0 -96l0 -64 -737 0 0 64 232 0 0 -23 272 0 0 23 232 0zm0 -96l0 -55 0 -32 -32 0 -673 0 -32 0 0 32 0 55 232 0 0 -23 272 0 0 23 232 0z"/>
    </g>
   </g>
   <polygon class="fil4" points="589,1366 589,1472 525,1472 525,1366 "/>
   <polygon class="fil4" points="1453,1366 1453,1472 1389,1472 1389,1366 "/>
   <polygon class="fil4" points="589,574 589,680 525,680 525,574 "/>
   <polygon class="fil4" points="1453,574 1453,680 1389,680 1389,574 "/>
   <g>
    <rect class="fil5" x="524" y="1001" width="46" height="46"/>
    <rect class="fil5" x="1408" y="1001" width="46" height="46"/>
   </g>
   <g>
    <rect class="fil5" transform="matrix(2.64845E-014 -1 1 2.64845E-014 965.744 1307.85)" width="46" height="46"/>
    <rect class="fil5" transform="matrix(2.64845E-014 -1 1 2.64845E-014 965.744 783.894)" width="46" height="46"/>
   </g>
   <path class="fil6" d="M668 968c-1,0 -2,-2 -2,-3 0,-1 2,-2 3,-2l363 70c1,0 2,2 2,3 0,1 -2,2 -3,2l-363 -70z"/>
   <path class="fil7" d="M981 779c0,-4 3,-8 8,-8 4,0 8,3 8,8l0 290c0,4 -3,8 -8,8 -4,0 -8,-3 -8,-8l0 -290z"/>
   <path class="fil7" d="M851 1134c-3,2 -8,2 -10,-2 -2,-3 -2,-8 2,-10l175 -129c3,-2 8,-2 10,2 2,3 2,8 -2,10l-175 129z"/>
   <circle class="fil8" cx="989" cy="1024" r="26"/>
   <circle class="fil5" cx="989" cy="1024" r="22"/>
   <path class="fil9" d="M1373 928l0 192c-75,0 -149,0 -224,0l0 -192c75,0 149,0 224,0z"/>
   <path class="fil10" d="M1368 933c-71,0 -143,0 -214,0l0 182c71,0 143,0 214,0l0 -182z"/>
   <path class="fil2" d="M1253 1047l0 11c0,7 1,13 4,18 2,5 6,9 11,12 5,3 11,4 17,4 7,0 13,-1 17,-4 5,-3 8,-7 11,-12 2,-5 4,-11 4,-18l0 -30c0,-10 -2,-18 -6,-23 -4,-5 -10,-8 -18,-8 -4,0 -8,1 -11,3 -3,2 -6,4 -8,7l2 -32 37 0 0 -19 -56 0 -4 78 20 0 0 -4c0,-5 1,-8 3,-10 2,-2 5,-3 8,-3 3,0 6,1 8,3 2,2 3,5 3,10l0 30c0,3 0,6 -1,8 -1,2 -2,3 -4,4 -2,1 -4,1 -6,1 -2,0 -4,0 -6,-1 -2,-1 -3,-2 -4,-4 -1,-2 -1,-4 -1,-8l0 -13 -20 0z"/>
   <path class="fil2" d="M1191 988l16 0 0 103 21 0 0 -135 -14 0c-1,2 -2,4 -3,6 -1,2 -2,4 -4,5 -2,2 -4,3 -6,4 -3,1 -6,1 -10,1l0 15z"/>
   <rect class="fil11" transform="matrix(0.64732 -0.62511 0.62511 0.64732 706.889 760.764)" width="21" height="71"/>
   <rect class="fil11" transform="matrix(-0.64732 -0.62511 -0.62511 0.64732 1295.95 760.764)" width="21" height="71"/>
   <rect class="fil11" transform="matrix(0.314338 -0.843195 0.843195 0.314338 561.291 891.617)" width="21" height="71"/>
   <rect class="fil11" transform="matrix(-0.314338 -0.843195 -0.843195 0.314338 1441.55 891.617)" width="21" height="71"/>
   <rect class="fil11" transform="matrix(0.64732 -0.62511 0.62511 0.64732 1211.62 1252.84)" width="21" height="71"/>
   <rect class="fil11" transform="matrix(-0.64732 -0.62511 -0.62511 0.64732 791.215 1252.84)" width="21" height="71"/>
   <rect class="fil11" transform="matrix(0.314338 -0.843195 0.843195 0.314338 1375.27 1163.14)" width="21" height="71"/>
   <rect class="fil11" transform="matrix(-0.314338 -0.843195 -0.843195 0.314338 627.565 1163.14)" width="21" height="71"/>
  </g>
  <rect class="fil12" width="2048" height="2048"/>
 </g>
</svg>
