<?xml version="1.0" encoding="UTF-8"?>
<!DOCTYPE svg PUBLIC "-//W3C//DTD SVG 1.1//EN" "http://www.w3.org/Graphics/SVG/1.1/DTD/svg11.dtd">

<svg xmlns="http://www.w3.org/2000/svg" xml:space="preserve" width="2048px" height="2048px" style="shape-rendering:geometricPrecision; text-rendering:geometricPrecision; image-rendering:optimizeQuality; fill-rule:evenodd; clip-rule:evenodd"
viewBox="0 0 2048 2048"
 xmlns:xlink="http://www.w3.org/1999/xlink">
 <defs>
  <style type="text/css">
   <![CDATA[
    .fil13 {fill:none}
    .fil11 {fill:#212121}
    .fil1 {fill:#B71C1C}
    .fil8 {fill:#BDBDBD}
    .fil12 {fill:#C62828}
    .fil2 {fill:#D32F2F}
    .fil6 {fill:#EC5252}
    .fil7 {fill:#FF6666}
    .fil10 {fill:#01579B;fill-rule:nonzero}
    .fil9 {fill:#373435;fill-rule:nonzero}
    .fil0 {fill:#D32F2F;fill-rule:nonzero}
    .fil5 {fill:#DE4444;fill-rule:nonzero}
    .fil4 {fill:#EC5252;fill-rule:nonzero}
    .fil3 {fill:#FF6666;fill-rule:nonzero}
   ]]>
  </style>
 </defs>
 <g id="Layer_x0020_1">
  <metadata id="CorelCorpID_0Corel-Layer"/>
  <g id="_241128984">
   <path class="fil0" d="M758 1578l62 0 0 -17 380 0 0 17 62 0 0 -114c-80,25 -165,38 -253,38 -87,0 -173,-13 -253,-38l0 114z"/>
   <path class="fil0" d="M758 453l62 0 0 17 380 0 0 -17 62 0 0 114c-80,-25 -165,-38 -253,-38 -87,0 -173,13 -253,38l0 -114z"/>
   <rect class="fil1" x="1537" y="990" width="32" height="54"/>
   <rect class="fil2" x="1559" y="961" width="48" height="112" rx="13" ry="13"/>
   <path class="fil3" d="M727 1433c0,-19 15,-34 34,-34 19,0 34,15 34,34l0 136c0,19 -15,34 -34,34 -19,0 -34,-15 -34,-34l0 -136z"/>
   <path class="fil3" d="M1249 1433c0,-19 15,-34 34,-34 19,0 34,15 34,34l0 136c0,19 -15,34 -34,34 -19,0 -34,-15 -34,-34l0 -136z"/>
   <path class="fil3" d="M727 465c0,-19 15,-34 34,-34 19,0 34,15 34,34l0 136c0,19 -15,34 -34,34 -19,0 -34,-15 -34,-34l0 -136z"/>
   <path class="fil3" d="M1249 465c0,-19 15,-34 34,-34 19,0 34,15 34,34l0 136c0,19 -15,34 -34,34 -19,0 -34,-15 -34,-34l0 -136z"/>
   <polygon class="fil4" points="1226,1710 1226,1633 1176,1633 1176,1616 868,1617 868,1633 818,1633 818,1710 868,1710 868,1692 1176,1692 1176,1710 "/>
   <path class="fil5" d="M1226 1785l0 -76 -50 0 0 -18 -307 0 0 18 -51 0 0 76c136,0 272,0 408,0z"/>
   <path class="fil3" d="M818 1634l50 0 0 -17 307 0 0 17 50 0 0 -115c-64,25 -133,39 -204,39 -71,0 -140,-13 -204,-39l0 115z"/>
   <polygon class="fil4" points="1226,325 1226,402 1176,402 1176,419 868,418 868,401 818,402 818,325 868,325 868,343 1176,343 1176,325 "/>
   <path class="fil5" d="M1226 249l0 76 -50 0 0 18 -307 0 0 -18 -51 0 0 -76c136,0 272,0 408,0z"/>
   <path class="fil3" d="M818 401l50 0 0 17 307 0 0 -17 50 0 0 115c-64,-25 -133,-39 -204,-39 -71,0 -140,13 -204,39l0 -115z"/>
   <path class="fil6" d="M1022 503c143,0 273,58 367,151 94,93 152,222 152,364 0,142 -58,270 -152,364 -94,93 -224,151 -367,151 -143,0 -273,-58 -367,-151 -94,-93 -152,-222 -152,-364 0,-142 58,-270 152,-364 94,-93 224,-151 367,-151z"/>
   <path class="fil7" d="M1022 515c140,0 266,56 358,147 92,91 148,216 148,355 0,139 -57,264 -148,355 -92,91 -218,147 -358,147 -140,0 -266,-56 -358,-147 -92,-91 -148,-216 -148,-355 0,-139 57,-264 148,-355 92,-91 218,-147 358,-147z"/>
   <path class="fil8" d="M1022 571c-120,0 -234,46 -319,131 -84,84 -132,196 -132,315 0,119 47,231 132,315 85,84 199,131 319,131 120,0 234,-46 319,-131 84,-84 132,-196 132,-315 0,-119 -47,-231 -132,-315 -85,-84 -199,-131 -319,-131z"/>
   <path class="fil8" d="M1022 598c-113,0 -220,44 -300,123 -79,79 -124,184 -124,296 0,112 44,217 124,296 80,79 187,123 300,123 113,0 220,-44 300,-123 79,-79 124,-184 124,-296 0,-112 -44,-217 -124,-296 -80,-79 -187,-123 -300,-123z"/>
   <path class="fil9" d="M1017 600l1 0 1 0 1 0 1 0 0 -5 -1 0 -1 0 -1 0 -1 0 0 5zm8 0l0 0 1 0 1 0 1 0 1 0 0 -5 -1 0 -1 0 -1 0 -1 0 0 0 0 5zm20 1l1 0 1 0 1 0 1 0 0 0 0 -5 0 0 -1 0 -1 0 -1 0 -1 0 0 5zm20 1l1 0 1 0 1 0 1 0 0 0 1 -5 0 0 -1 0 -1 0 -1 0 -1 0 -1 5zm20 2l0 0 1 0 1 0 1 0 1 0 1 -5 -1 0 -1 0 -1 0 -1 0 0 0 -1 5zm20 3l1 0 1 0 1 0 1 0 0 0 1 -5 0 0 -1 0 -1 0 -1 0 -1 0 -1 5zm19 4l0 0 1 0 1 0 1 0 1 0 1 -5 -1 0 -1 0 -1 0 -1 0 0 0 -1 5zm19 5l1 0 1 0 1 0 1 0 0 0 1 -5 0 0 -1 0 -1 0 -1 0 -1 0 -1 5zm19 6l0 0 1 0 1 0 1 0 1 0 2 -5 -1 0 -1 0 -1 0 -1 0 0 0 -2 5zm19 7l1 0 1 0 1 0 1 0 0 0 2 -5 0 0 -1 0 -1 0 -1 0 -1 0 -2 5zm18 8l0 0 1 1 1 1 1 1 1 0 2 -5 -1 0 -1 -1 -1 -1 -1 -1 0 0 -2 5zm18 9l1 0 1 1 1 1 1 1 0 0 2 -4 0 0 -1 -1 -1 -1 -1 -1 -1 0 -2 4zm17 10l0 0 1 1 1 1 1 1 1 0 3 -4 -1 0 -1 -1 -1 -1 -1 -1 0 0 -2 4zm17 10l1 1 1 1 1 1 1 1 0 0 3 -4 0 0 -1 -1 -1 -1 -1 -1 -1 -1 -3 4zm16 11l0 0 1 1 1 1 1 1 1 0 3 -4 -1 0 -1 -1 -1 -1 -1 -1 0 0 -3 4zm16 12l1 1 1 1 1 1 1 1 3 -4 -1 -1 -1 -1 -1 -1 -1 -1 -3 4zm15 13l1 1 1 1 1 1 1 1 0 0 3 -4 0 0 -1 -1 -1 -1 -1 -1 -1 -1 -3 4zm15 13l0 0 1 1 1 1 1 1 0 0 3 -4 0 0 -1 -1 -1 -1 -1 -1 0 0 -3 4zm14 14l0 0 1 1 1 1 1 1 1 1 4 -3 -1 -1 -1 -1 -1 -1 -1 -1 0 0 -4 3zm13 15l1 1 1 1 1 1 1 1 0 0 4 -3 0 0 -1 -1 -1 -1 -1 -1 -1 -1 -4 3zm13 15l0 0 1 1 1 1 1 1 0 1 4 -3 0 -1 -1 -1 -1 -1 -1 -1 0 0 -4 3zm12 16l1 1 1 1 1 1 1 1 0 0 4 -3 0 0 -1 -1 -1 -1 -1 -1 -1 -1 -4 3zm11 16l0 0 1 1 1 1 1 1 0 1 4 -3 0 -1 -1 -1 -1 -1 -1 -1 0 0 -4 3zm10 17l0 1 1 1 1 1 1 1 0 0 4 -2 0 0 -1 -1 -1 -1 -1 -1 0 -1 -4 3zm10 17l0 0 1 1 1 1 1 1 1 1 4 -2 -1 -1 -1 -1 -1 -1 -1 -1 0 0 -4 2zm9 18l0 0 1 1 1 1 1 1 0 1 5 -2 0 -1 -1 -1 -1 -1 -1 -1 0 0 -5 2zm8 18l0 1 0 1 0 1 0 1 0 0 5 -2 0 0 0 -1 0 -1 0 -1 0 -1 -5 2zm7 19l0 0 0 1 0 1 0 1 0 1 5 -2 0 -1 0 -1 0 -1 0 -1 0 0 -5 2zm6 19l0 0 0 1 0 1 0 1 0 1 5 -1 0 -1 0 -1 0 -1 0 -1 0 0 -5 1zm5 19l0 1 0 1 0 1 0 1 0 0 5 -1 0 0 0 -1 0 -1 0 -1 0 -1 -5 1zm4 19l0 0 0 1 0 1 0 1 0 1 5 -1 0 -1 0 -1 0 -1 0 -1 0 0 -5 1zm3 20l0 1 0 1 0 1 0 1 0 0 5 -1 0 0 0 -1 0 -1 0 -1 0 -1 -5 1zm2 20l0 0 0 1 0 1 0 1 0 1 5 0 0 -1 0 -1 0 -1 0 -1 0 0 -5 0zm1 20l0 1 0 1 0 1 0 1 0 0 5 0 0 0 0 -1 0 -1 0 -1 0 -1 -5 0zm0 20l0 1 0 1 0 1 0 1 0 0 5 0 0 0 0 -1 0 -1 0 -1 0 -1 -5 0zm-1 20l0 0 0 1 0 1 0 1 0 1 5 0 0 -1 0 -1 0 -1 0 -1 0 0 -5 0zm-1 20l0 1 0 1 0 1 0 1 0 0 5 1 0 0 0 -1 0 -1 0 -1 0 -1 -5 0zm-2 20l0 0 0 1 0 1 0 1 0 1 5 1 0 -1 0 -1 0 -1 0 -1 0 0 -5 -1zm-3 20l0 1 0 1 0 1 0 1 0 0 5 1 0 0 0 -1 0 -1 0 -1 0 -1 -5 -1zm-4 19l0 0 0 1 0 1 0 1 0 1 5 1 0 -1 0 -1 0 -1 0 -1 0 0 -5 -1zm-5 19l0 1 0 1 0 1 0 1 0 0 5 1 0 -1 0 -1 0 -1 0 -1 0 -1 -5 -1zm-6 19l0 1 0 1 0 1 0 1 0 0 5 2 0 0 0 -1 0 -1 0 -1 0 -1 -5 -2zm-7 19l0 0 0 1 0 1 0 1 0 1 5 2 0 -1 0 -1 0 -1 0 -1 0 0 -5 -2zm-8 18l0 1 -1 1 -1 1 -1 1 0 0 5 2 0 0 1 -1 1 -1 1 -1 0 -1 -5 -2zm-9 18l-1 1 -1 1 -1 1 -1 1 0 0 4 2 0 0 1 -1 1 -1 1 -1 1 -1 -4 -2zm-10 17l0 0 -1 1 -1 1 -1 1 0 1 4 3 0 -1 1 -1 1 -1 1 -1 0 0 -4 -3zm-10 17l0 1 -1 1 -1 1 -1 1 0 0 4 3 0 0 1 -1 1 -1 1 -1 0 -1 -4 -3zm-11 16l0 0 -1 1 -1 1 -1 1 -1 1 4 3 1 -1 1 -1 1 -1 1 -1 0 0 -4 -3zm-12 16l0 1 -1 1 -1 1 -1 1 0 0 4 3 0 0 1 -1 1 -1 1 -1 0 -1 -4 -3zm-13 15l0 0 -1 1 -1 1 -1 1 -1 1 4 3 1 -1 1 -1 1 -1 1 -1 0 0 -4 -3zm-13 15l-1 1 -1 1 -1 1 -1 1 0 0 4 4 0 0 1 -1 1 -1 1 -1 1 -1 -4 -3zm-14 14l0 0 -1 1 -1 1 -1 1 0 0 3 4 0 0 1 -1 1 -1 1 -1 0 0 -3 -4zm-15 13l0 0 -1 1 -1 1 -1 1 -1 0 3 4 1 0 1 -1 1 -1 1 -1 0 0 -3 -4zm-15 13l-1 1 -1 1 -1 1 -1 1 3 4 1 -1 1 -1 1 -1 1 -1 -3 -4zm-16 12l-1 0 -1 1 -1 1 -1 1 0 0 3 4 0 0 1 -1 1 -1 1 -1 1 0 -3 -4zm-17 11l0 0 -1 1 -1 1 -1 1 -1 1 3 4 1 -1 1 -1 1 -1 1 -1 0 0 -3 -4zm-17 10l-1 0 -1 1 -1 1 -1 1 0 0 2 4 0 0 1 -1 1 -1 1 -1 1 0 -2 -4zm-17 9l0 0 -1 1 -1 1 -1 1 -1 0 2 4 1 0 1 -1 1 -1 1 -1 0 0 -2 -4zm-18 9l-1 0 -1 1 -1 1 -1 1 0 0 2 5 0 0 1 -1 1 -1 1 -1 1 0 -2 -5zm-18 8l0 0 -1 0 -1 0 -1 0 -1 0 2 5 1 0 1 0 1 0 1 0 0 0 -2 -5zm-19 7l-1 0 -1 0 -1 0 -1 0 0 0 2 5 0 0 1 0 1 0 1 0 1 0 -2 -5zm-19 6l0 0 -1 0 -1 0 -1 0 -1 0 1 5 1 0 1 0 1 0 1 0 0 0 -1 -5zm-19 5l-1 0 -1 0 -1 0 -1 0 0 0 1 5 0 0 1 0 1 0 1 0 1 0 -1 -5zm-19 4l0 0 -1 0 -1 0 -1 0 -1 0 1 5 1 0 1 0 1 0 1 0 0 0 -1 -5zm-20 3l-1 0 -1 0 -1 0 -1 0 0 0 1 5 0 0 1 0 1 0 1 0 1 0 -1 -5zm-20 2l-1 0 -1 0 -1 0 -1 0 -1 0 0 5 1 0 1 0 1 0 1 0 1 0 0 -5zm-20 1l0 0 -1 0 -1 0 -1 0 -1 0 0 5 1 0 1 0 1 0 1 0 0 0 0 -5zm-20 1l0 5 -1 0 -1 0 -1 0 -1 0 0 -5 1 0 1 0 1 0 1 0zm-20 0l-1 0 -1 0 -1 0 -1 0 0 0 0 5 0 0 1 0 1 0 1 0 1 0 0 -5zm-20 -1l-1 0 -1 0 -1 0 -1 0 -1 0 -1 5 1 0 1 0 1 0 1 0 1 0 0 -5zm-20 -2l0 0 -1 0 -1 0 -1 0 -1 0 -1 5 1 0 1 0 1 0 1 0 0 0 1 -5zm-20 -3l-1 0 -1 0 -1 0 -1 0 0 0 -1 5 0 0 1 0 1 0 1 0 1 0 1 -5zm-19 -4l0 0 -1 0 -1 0 -1 0 -1 0 -1 5 1 0 1 0 1 0 1 0 0 0 1 -5zm-19 -5l-1 0 -1 0 -1 0 -1 0 0 0 -1 5 0 0 1 0 1 0 1 0 1 0 1 -5zm-19 -6l0 0 -1 0 -1 0 -1 0 -1 0 -2 5 1 0 1 0 1 0 1 0 0 0 2 -5zm-19 -7l-1 0 -1 0 -1 0 -1 0 0 0 -2 5 0 0 1 0 1 0 1 0 1 0 2 -5zm-18 -8l0 0 -1 -1 -1 -1 -1 -1 -1 0 -2 5 1 0 1 1 1 1 1 1 0 0 2 -5zm-18 -9l-1 0 -1 -1 -1 -1 -1 -1 0 0 -2 4 0 0 1 1 1 1 1 1 1 0 2 -4zm-18 -9l0 0 -1 -1 -1 -1 -1 -1 -1 0 -3 4 1 0 1 1 1 1 1 1 0 0 2 -4zm-17 -10l-1 0 -1 -1 -1 -1 -1 -1 0 0 -3 4 0 0 1 1 1 1 1 1 1 0 3 -4zm-17 -11l0 0 -1 -1 -1 -1 -1 -1 -1 0 -3 4 1 0 1 1 1 1 1 1 0 0 3 -4zm-16 -12l-1 -1 -1 -1 -1 -1 -1 -1 -3 4 1 1 1 1 1 1 1 1 3 -4zm-15 -12l-1 0 -1 -1 -1 -1 -1 -1 0 0 -3 4 0 0 1 1 1 1 1 1 1 0 3 -4zm-15 -13l0 0 -1 -1 -1 -1 -1 -1 0 0 -3 4 0 0 1 1 1 1 1 1 0 0 3 -4zm-14 -14l0 0 -1 -1 -1 -1 -1 -1 -1 -1 -4 3 1 1 1 1 1 1 1 1 0 0 4 -3zm-14 -15l-1 -1 -1 -1 -1 -1 -1 -1 0 0 -4 3 0 0 1 1 1 1 1 1 1 1 4 -3zm-13 -15l0 0 -1 -1 -1 -1 -1 -1 0 -1 -4 3 0 1 1 1 1 1 1 1 0 0 4 -3zm-12 -16l-1 -1 -1 -1 -1 -1 -1 -1 0 0 -4 3 0 0 1 1 1 1 1 1 1 1 4 -3zm-11 -16l0 0 -1 -1 -1 -1 -1 -1 0 -1 -4 3 0 1 1 1 1 1 1 1 0 0 4 -3zm-11 -17l0 -1 -1 -1 -1 -1 -1 -1 0 0 -4 2 0 0 1 1 1 1 1 1 0 1 4 -3zm-10 -17l0 0 -1 -1 -1 -1 -1 -1 -1 -1 -4 2 1 1 1 1 1 1 1 1 0 0 4 -2zm-9 -18l0 0 -1 -1 -1 -1 -1 -1 0 -1 -5 2 0 1 1 1 1 1 1 1 0 0 5 -2zm-8 -18l0 -1 0 -1 0 -1 0 -1 0 0 -5 2 0 0 0 1 0 1 0 1 0 1 5 -2zm-7 -19l0 0 0 -1 0 -1 0 -1 0 -1 -5 2 0 1 0 1 0 1 0 1 0 0 5 -2zm-6 -19l0 0 0 -1 0 -1 0 -1 0 -1 -5 1 0 1 0 1 0 1 0 1 0 0 5 -1zm-5 -19l0 -1 0 -1 0 -1 0 -1 0 0 -5 1 0 0 0 1 0 1 0 1 0 1 5 -1zm-4 -19l0 0 0 -1 0 -1 0 -1 0 -1 -5 1 0 1 0 1 0 1 0 1 0 0 5 -1zm-3 -20l0 -1 0 -1 0 -1 0 -1 0 0 -5 1 0 0 0 1 0 1 0 1 0 1 5 -1zm-3 -20l0 0 0 -1 0 -1 0 -1 0 -1 -5 0 0 1 0 1 0 1 0 1 0 0 5 -1zm-2 -20l0 -1 0 -1 0 -1 0 -1 0 0 -5 0 0 0 0 1 0 1 0 1 0 1 5 0zm-1 -20l0 0 0 -1 0 -1 0 -1 0 -1 -5 0 0 1 0 1 0 1 0 1 0 0 5 0zm0 -20l0 0 0 -1 0 -1 0 -1 0 -1 -5 0 0 1 0 1 0 1 0 1 0 0 5 0zm1 -20l0 -1 0 -1 0 -1 0 -1 0 0 -5 -1 0 0 0 1 0 1 0 1 0 1 5 0zm2 -20l0 0 0 -1 0 -1 0 -1 0 -1 -5 -1 0 1 0 1 0 1 0 1 0 0 5 1zm3 -20l0 -1 0 -1 0 -1 0 -1 0 0 -5 -1 0 0 0 1 0 1 0 1 0 1 5 1zm4 -19l0 0 0 -1 0 -1 0 -1 0 -1 -5 -1 0 1 0 1 0 1 0 1 0 0 5 1zm5 -19l0 -1 0 -1 0 -1 0 -1 0 -1 -5 -1 0 1 0 1 0 1 0 1 0 1 5 1zm6 -19l0 -1 0 -1 0 -1 0 -1 0 0 -5 -2 0 0 0 1 0 1 0 1 0 1 5 2zm7 -19l0 0 0 -1 0 -1 0 -1 0 -1 -5 -2 0 1 0 1 0 1 0 1 0 0 5 2zm8 -18l0 -1 1 -1 1 -1 1 -1 0 0 -5 -2 0 0 -1 1 -1 1 -1 1 0 1 5 2zm9 -18l0 -1 1 -1 1 -1 1 -1 0 0 -4 -2 0 0 -1 1 -1 1 -1 1 0 1 4 2zm10 -17l0 0 1 -1 1 -1 1 -1 0 -1 -4 -3 0 1 -1 1 -1 1 -1 1 0 0 4 2zm10 -17l0 -1 1 -1 1 -1 1 -1 0 0 -4 -3 0 0 -1 1 -1 1 -1 1 0 1 4 3zm11 -16l0 0 1 -1 1 -1 1 -1 1 -1 -4 -3 -1 1 -1 1 -1 1 -1 1 0 0 4 3zm12 -16l0 -1 1 -1 1 -1 1 -1 0 0 -4 -3 0 0 -1 1 -1 1 -1 1 0 1 4 3zm13 -15l0 0 1 -1 1 -1 1 -1 1 -1 -4 -3 -1 1 -1 1 -1 1 -1 1 0 0 4 3zm13 -15l1 -1 1 -1 1 -1 1 -1 0 0 -4 -3 0 0 -1 1 -1 1 -1 1 -1 1 4 3zm14 -14l0 0 1 -1 1 -1 1 -1 0 0 -3 -4 0 0 -1 1 -1 1 -1 1 0 0 3 4zm15 -13l0 0 1 -1 1 -1 1 -1 1 -1 -3 -4 -1 1 -1 1 -1 1 -1 1 0 0 3 4zm15 -13l1 -1 1 -1 1 -1 1 -1 -3 -4 -1 1 -1 1 -1 1 -1 1 3 4zm16 -12l1 0 1 -1 1 -1 1 -1 0 0 -3 -4 0 0 -1 1 -1 1 -1 1 -1 0 3 4zm16 -11l0 0 1 -1 1 -1 1 -1 1 -1 -3 -4 -1 1 -1 1 -1 1 -1 1 0 0 3 4zm17 -10l1 0 1 -1 1 -1 1 -1 0 0 -2 -4 0 0 -1 1 -1 1 -1 1 -1 0 3 4zm17 -10l0 0 1 -1 1 -1 1 -1 1 0 -2 -4 -1 0 -1 1 -1 1 -1 1 0 0 2 4zm18 -9l1 0 1 -1 1 -1 1 -1 0 0 -2 -5 0 0 -1 1 -1 1 -1 1 -1 0 2 5zm18 -8l0 0 1 0 1 0 1 0 1 0 -2 -5 -1 0 -1 0 -1 0 -1 0 0 0 2 5zm19 -7l1 0 1 0 1 0 1 0 0 0 -2 -5 0 0 -1 0 -1 0 -1 0 -1 0 2 5zm19 -6l0 0 1 0 1 0 1 0 1 0 -1 -5 -1 0 -1 0 -1 0 -1 0 0 0 1 5zm19 -5l1 0 1 0 1 0 1 0 0 0 -1 -5 0 0 -1 0 -1 0 -1 0 -1 0 1 5zm19 -4l0 0 1 0 1 0 1 0 1 0 -1 -5 -1 0 -1 0 -1 0 -1 0 0 0 1 5zm20 -3l1 0 1 0 1 0 1 0 0 0 -1 -5 0 0 -1 0 -1 0 -1 0 -1 0 1 5zm20 -3l0 0 1 0 1 0 1 0 1 0 0 -5 -1 0 -1 0 -1 0 -1 0 0 0 1 5zm20 -2l0 0 1 0 1 0 1 0 1 0 0 -5 -1 0 -1 0 -1 0 -1 0 0 0 0 5z"/>
   <path class="fil10" d="M1014 657c0,-4 3,-8 8,-8 4,0 8,3 8,8l0 435c0,4 -3,8 -8,8 -4,0 -8,-3 -8,-8l0 -435z"/>
   <path class="fil10" d="M1270 1181c3,2 4,7 2,10 -2,3 -7,4 -10,2l-308 -214c-3,-2 -4,-7 -2,-10 2,-3 7,-4 10,-2l308 214z"/>
   <path class="fil0" d="M622 1096c-1,0 -3,-1 -3,-2 0,-1 1,-3 2,-3l476 -92c1,0 3,1 3,2 0,1 -1,3 -2,3l-476 92z"/>
   <circle class="fil11" cx="1022" cy="1017" r="34"/>
   <rect class="fil12" x="1017" y="577" width="9" height="45"/>
   <rect class="fil12" transform="matrix(0.942699 -0.501969 0.501969 0.9427 812.372 630.663)" width="9" height="42"/>
   <rect class="fil12" transform="matrix(-0.942699 -0.501969 -0.501969 0.9427 1231.46 630.663)" width="9" height="42"/>
   <rect class="fil12" transform="matrix(0.582025 -0.89549 0.89549 0.582025 652.824 780.005)" width="9" height="42"/>
   <rect class="fil12" transform="matrix(-0.582025 -0.89549 -0.89549 0.582025 1391.01 780.005)" width="9" height="42"/>
   <rect class="fil12" transform="matrix(2.82859E-014 -1.06801 1.06801 2.82859E-014 584.697 1021.48)" width="9" height="42"/>
   <rect class="fil12" x="1017" y="1407" width="9" height="45"/>
   <rect class="fil12" transform="matrix(0.942699 -0.501969 0.501969 0.9427 1202.18 1362.73)" width="9" height="42"/>
   <rect class="fil12" transform="matrix(-0.942699 -0.501969 -0.501969 0.9427 841.65 1362.73)" width="9" height="42"/>
   <rect class="fil12" transform="matrix(0.582025 -0.89549 0.89549 0.582025 1348.23 1231.98)" width="9" height="42"/>
   <rect class="fil12" transform="matrix(-0.582025 -0.89549 -0.89549 0.582025 695.604 1231.98)" width="9" height="42"/>
   <rect class="fil12" transform="matrix(2.82859E-014 -1.06801 1.06801 2.82859E-014 1414.08 1021.48)" width="9" height="42"/>
  </g>
  <rect class="fil13" width="2048" height="2048"/>
 </g>
</svg>
