<?xml version="1.0" encoding="UTF-8"?>
<!DOCTYPE svg PUBLIC "-//W3C//DTD SVG 1.1//EN" "http://www.w3.org/Graphics/SVG/1.1/DTD/svg11.dtd">

<svg xmlns="http://www.w3.org/2000/svg" xml:space="preserve" width="2048px" height="2048px" style="shape-rendering:geometricPrecision; text-rendering:geometricPrecision; image-rendering:optimizeQuality; fill-rule:evenodd; clip-rule:evenodd"
viewBox="0 0 2048 2048"
 xmlns:xlink="http://www.w3.org/1999/xlink">
 <defs>
  <style type="text/css">
   <![CDATA[
    .fil4 {fill:none}
    .fil0 {fill:#B3E5FC}
    .fil2 {fill:#E1F5FE}
    .fil1 {fill:#080E40;fill-rule:nonzero}
    .fil3 {fill:#0C1357;fill-rule:nonzero}
   ]]>
  </style>
 </defs>
 <g id="Layer_x0020_1">
  <metadata id="CorelCorpID_0Corel-Layer"/>
  <path class="fil0" d="M1129 935c0,-51 42,-84 83,-104 16,-8 33,-15 51,-21l22 -7c13,-4 27,-7 41,-10l34 -6c48,-8 97,-11 140,-11 64,0 125,26 171,73 45,47 71,109 71,176 0,66 -25,129 -71,176 -45,47 -106,73 -171,73 -39,0 -83,-17 -118,-35 -45,-24 -89,-55 -126,-90 -52,-48 -126,-135 -126,-212z"/>
  <path class="fil1" d="M931 895c12,-15 27,-26 43,-34 17,-8 35,-12 54,-12 19,0 37,4 53,12 16,8 31,19 43,34l-49 41c-6,-7 -13,-12 -21,-16 -8,-4 -17,-6 -26,-6 -9,0 -18,2 -26,6 -8,4 -15,10 -21,17l-50 -40z"/>
  <g id="_439261600">
   <path class="fil0" d="M931 935c0,-51 -42,-84 -83,-104 -16,-8 -33,-15 -51,-21l-116 214 94 -221c-13,-4 -27,-7 -41,-10l-137 317 103 -323c-48,-8 -97,-11 -140,-11 -64,0 -125,26 -171,73 -45,47 -71,109 -71,176 0,66 25,129 71,176 45,47 106,73 171,73 39,0 83,-17 118,-35 45,-24 89,-55 126,-90 52,-48 126,-135 126,-212z"/>
   <path class="fil2" d="M597 1110l133 -308c-11,-2 -22,-4 -33,-6l-100 315z"/>
   <path class="fil2" d="M681 1024l112 -206c-7,-2 -14,-5 -21,-7l-91 212z"/>
  </g>
  <path class="fil2" d="M1373 1093l137 -308c-5,0 -10,0 -15,0 -7,0 -14,0 -21,0l-101 309z"/>
  <path class="fil2" d="M1457 1010l118 -212c-7,-3 -15,-5 -22,-7l-96 219z"/>
  <path class="fil3" d="M560 720c91,0 214,15 302,58 71,35 122,88 122,166 0,83 -62,177 -144,250 -86,77 -195,134 -280,134 -84,0 -160,-34 -215,-89 -42,-42 -72,-97 -84,-159l-16 0c-4,0 -8,-3 -8,-8l0 -118c0,-4 3,-8 8,-8l21 0c0,0 0,0 0,0 14,-53 42,-100 79,-138 55,-55 131,-89 215,-89zm274 116c-79,-38 -191,-52 -274,-52 -66,0 -126,27 -170,70 -43,43 -70,103 -70,170 0,66 27,126 70,170 43,43 103,70 170,70 69,0 162,-50 237,-117 70,-63 123,-140 123,-203 0,-49 -35,-84 -86,-108z"/>
  <path class="fil3" d="M1495 720c-91,0 -214,15 -302,58 -71,35 -122,88 -122,166 0,83 62,177 144,250 86,77 195,134 280,134 84,0 160,-34 215,-89 42,-42 72,-97 84,-159l16 0c4,0 8,-3 8,-8l0 -118c0,-4 -3,-8 -8,-8l-21 0c0,0 0,0 0,0 -14,-53 -42,-100 -79,-138 -55,-55 -131,-89 -215,-89zm-274 116c79,-38 191,-52 274,-52 66,0 126,27 170,70 43,43 70,103 70,170 0,66 -27,126 -70,170 -43,43 -103,70 -170,70 -69,0 -162,-50 -237,-117 -70,-63 -123,-140 -123,-203 0,-49 35,-84 86,-108z"/>
  <rect class="fil4" width="2048" height="2048"/>
 </g>
</svg>
