<?xml version="1.0" ?><svg width="24px" height="24px" viewBox="0 0 24 24" xmlns="http://www.w3.org/2000/svg"><g fill="none" fill-rule="evenodd"><g transform="rotate(-10 21.93 -6.645)"><path d="M0,1 C2,0.333333333 3.66666667,0 5,0 C6.33333333,0 7.66666667,0.333333333 9,1 C10.3333333,1.66666667 11.6666667,2 13,2 C14.3333333,2 16,1.66666667 18,1 L18,8 C16,8.66666667 14.3333333,9 13,9 C11.6666667,9 10.3333333,8.66666667 9,8 C7.66666667,7.33333333 6.33333333,7 5,7 C3.66666667,7 2,7.33333333 0,8 L0,1 Z" fill="#FFF"/><path d="M0,7 C2,6.33333333 3.66666667,6 5,6 C6.33333333,6 7.66666667,6.33333333 9,7 C10.3333333,7.66666667 11.6666667,8 13,8 C14.3333333,8 16,7.66666667 18,7 L18,10 C16,10.6666667 14.3333333,11 13,11 C11.6666667,11 10.3333333,10.6666667 9,10 C7.66666667,9.33333333 6.33333333,9 5,9 C3.66666667,9 2,9.33333333 0,10 L0,7 Z" fill="#AB56FF"/><path d="M0,9 C2,8.33333333 3.66666667,8 5,8 C6.33333333,8 7.66666667,8.33333333 9,9 C10.3333333,9.66666667 11.6666667,10 13,10 C14.3333333,10 16,9.66666667 18,9 L18,15 C16,15.6666667 14.3333333,16 13,16 C11.6666667,16 10.3333333,15.6666667 9,15 C7.66666667,14.3333333 6.33333333,14 5,14 C3.66666667,14 2,14.3333333 0,15 L0,9 Z" fill="#9FA3B6"/><path d="M5.68434189e-14,1 C1.7721836,1.93989918 3.10551693,2.77323251 4,3.5 C4.89448307,4.22676749 6.2278164,5.56010082 8,7.5 C6.28012966,8.61237844 4.94679633,9.61237844 4,10.5 C3.05320367,11.3876216 1.71987034,12.8876216 5.68434189e-14,15 L5.68434189e-14,1 Z" fill="#4D505F"/></g><path d="M5.77458164,22.2450743 C5.87119042,22.7888438 5.5086951,23.3079729 4.96492567,23.4045816 C4.42115625,23.5011904 3.90202714,23.1386951 3.80541836,22.5949257 L3.10541836,18.6549257 L3.1072833,18.6545943 L3.10698745,18.6529244 L0.802687133,5.58458794 C0.649974993,4.71843889 1.0810201,3.85417025 1.86476731,3.45507487 C3.51961878,2.61240064 4.97329859,2.07701762 6.23746312,1.8541113 C7.70809667,1.59479893 9.23551211,1.70257718 10.8090943,2.17063744 C12.093197,2.55259238 13.307701,2.63829082 14.4632215,2.43454139 C15.3882295,2.27143753 16.4936553,1.88496788 17.7708886,1.27093118 C18.7664061,0.792229721 19.9614716,1.21127271 20.4400872,2.20682182 C20.5192437,2.37147221 20.5754681,2.54619162 20.6071918,2.72610581 L22.6763579,14.4609297 C22.8291099,15.3270964 22.3980599,16.1913938 21.6142935,16.5904992 C19.9594398,17.433175 18.5057582,17.9685589 17.2415923,18.1914654 C15.7709588,18.4507778 14.2435434,18.3429996 12.6699612,17.8749393 C11.3858584,17.4929844 10.1713544,17.4072859 9.01583397,17.6110354 C7.96858501,17.7956936 6.69383831,18.2656275 5.20250121,19.0250788 L5.77458164,22.2450743 Z M8.66853761,15.6414198 C10.1391712,15.3821075 11.6665866,15.4898857 13.2401687,15.957946 C14.5242715,16.3399009 15.7387755,16.4255994 16.894296,16.2218499 C17.9401148,16.0374439 19.214819,15.5679764 20.7067522,14.8082621 L18.6375763,3.07338538 C17.2073756,3.76096514 15.9345497,4.20595975 14.8105179,4.40415689 C13.3398843,4.66346927 11.8124689,4.55569101 10.2388867,4.08763076 C8.95478395,3.70567582 7.74027994,3.61997738 6.58475948,3.82372681 C5.53894186,4.00813267 4.26423932,4.47759926 2.77230523,5.2373121 L4.84147651,16.9721598 C6.27296255,16.2839248 7.54606906,15.8393413 8.66853761,15.6414198 Z" fill="#000" fill-rule="nonzero"/></g></svg>