<?xml version="1.0" ?><svg width="340px" height="340px" viewBox="0 0 340 340" id="icons" xmlns="http://www.w3.org/2000/svg"><title/><path d="M188.325,131.58l71.593,4.2c15.638,2.882,31.729,7.449,45.871,14.608A35.778,35.778,0,0,1,320.731,164.2c.507.876.991,1.8,1.436,2.772,5.685,12.4-3.036,26.829-16.672,27.171-.377.009-.762.013-1.155.01H185.351Z" style="fill:#d35363"/><path d="M210.777,168.643c20.044.506,35.579,1.357,56.481,3.006,0,0,49.891,3.153,63.07,43.944,0,0,4.576,11.924-7.7,19.828A26.967,26.967,0,0,1,308,239.554H177.894v-67.9Z" style="fill:#acb9d4"/><path d="M181.77,239.554h67.208c-.372-15.567-1.152-55.522.164-72.642a66.367,66.367,0,0,1,10.775-31.135c-37.066-6.83-71.592-4.2-71.592-4.2l-1.867,39.286-4.688.428Z" style="fill:#373d4c"/><path d="M217.751,158.245c-1.724-7.017-6.822-21.2-21.321-33.731a52.158,52.158,0,0,0-5.15-3.783,100.741,100.741,0,0,0-25.794-12.074q-7.146-2.206-14.291-3.829l-61.529-2.744a171.491,171.491,0,0,0-28.183,6.5,102.979,102.979,0,0,0-23.626,10.963,62.005,62.005,0,0,0-6.989,4.968C16.475,136.951,11.346,151.021,9.586,158.09a22.739,22.739,0,0,0-.237,10.553C12.857,183.96,29.7,184.115,29.7,184.115l83.954-21.454L197.6,184.115s16.837-.155,20.345-15.472A22.545,22.545,0,0,0,217.751,158.245Z" style="fill:#ff7b94"/><path d="M208.454,202.879a30.721,30.721,0,0,0-3.354-9.632s-5.283-5.359-8.342-7.93c-40.108-33.7-126.219-33.7-166.328,0-2.524,2.121-7.179,6.148-7.179,6.148a30.882,30.882,0,0,0-4.407,11.414,46.353,46.353,0,0,0-.361,13.411,26.727,26.727,0,0,0,26.589,23.264H182.227a26.725,26.725,0,0,0,26.588-23.264A46.283,46.283,0,0,0,208.454,202.879Z" style="fill:#e9ebfc"/><path d="M50.66,159.3a4,4,0,1,0-7.265,3.35,52.5,52.5,0,0,0,10.839,15.193l9.237-2.36A47.031,47.031,0,0,1,50.66,159.3Z" style="fill:#d35363"/><path d="M218.306,161.383a215.117,215.117,0,0,0-40.255-18.677,173.288,173.288,0,0,1,7.173-25.652c-2.376-1.326-4.812-2.54-7.289-3.666a179.227,179.227,0,0,0-7.65,26.783,236.394,236.394,0,0,0-25.934-6.366c3.28-18.32,6.818-28.9,6.842-28.97a175.345,175.345,0,0,0-29.4-4.141l-15.5,26.047-.521,3.467a163.872,163.872,0,0,0-58.68,11.48c.291-11.875,5.308-23.489,9.718-31.48a103.586,103.586,0,0,0-11.434,5.046c-3.706,8.574-6.732,19.021-6.256,29.728A206.175,206.175,0,0,0,9,161.39a21.593,21.593,0,0,0,.353,7.253c.153.664.338,1.29.538,1.9,18.2-12.451,53.137-31.841,94.692-32.338L100.4,166.048l13.254-3.387,26.273,6.32c.763-10.076,1.871-19.18,3.1-27.164a233.451,233.451,0,0,1,25.885,6.418,117.743,117.743,0,0,0-.789,28.345l8.323,2.127a106.294,106.294,0,0,1,.28-27.893A204.376,204.376,0,0,1,217.5,170.276c.165-.527.318-1.066.448-1.633A21.558,21.558,0,0,0,218.306,161.383Z" style="fill:#d35363"/><path d="M150.65,173.518c26.12,4.976,44.768,14.1,54.444,19.733a32.023,32.023,0,0,0-7.49-9.136c-14.6-12.268-35.506-20.065-58.125-23.4h0q-4.6-.678-9.293-1.11l-.221-.021q-4.6-.418-9.252-.6l-.261-.011q-2.279-.086-4.562-.114l-.338,0q-4.536-.047-9.066.132l-.6.025c-29.288,1.255-57.763,9.619-76.191,25.1a32.09,32.09,0,0,0-6.442,7.352c9.244-5.716,34.6-18.758,76.494-21.1l-1.253,8.341,1.561,55,.966,5.847h33.555c.009-1.537.011-3.1,0-4.717a502.686,502.686,0,0,1,2.185-50.925A11.721,11.721,0,0,1,150.65,173.518Z" style="fill:#acb9d4"/><path d="M44,200.734a4.114,4.114,0,0,1-.78-.07,4.99,4.99,0,0,1-.75-.23,4.579,4.579,0,0,1-.69-.37,4.1,4.1,0,0,1-.609-.5,3.6,3.6,0,0,1-.491-.61,3.519,3.519,0,0,1-.37-.69,4.032,4.032,0,0,1-.23-.74,3.891,3.891,0,0,1,0-1.57,4.387,4.387,0,0,1,.23-.75,3.828,3.828,0,0,1,.37-.69,3.522,3.522,0,0,1,.491-.6,3.56,3.56,0,0,1,.609-.5,3.828,3.828,0,0,1,.69-.37,3.976,3.976,0,0,1,4.36.87,3.62,3.62,0,0,1,.5.6,4.579,4.579,0,0,1,.37.69,4.344,4.344,0,0,1,.221.75,3.5,3.5,0,0,1,.079.78,3.59,3.59,0,0,1-.079.79,4,4,0,0,1-.221.74,4.143,4.143,0,0,1-.37.69,3.694,3.694,0,0,1-.5.61A3.987,3.987,0,0,1,44,200.734Z" style="fill:#acb9d4"/><path d="M52.781,215.724a4.15,4.15,0,0,1-.79-.08,4.3,4.3,0,0,1-.75-.23,3.828,3.828,0,0,1-.69-.37,4.065,4.065,0,0,1-.6-.49,3.605,3.605,0,0,1-.5-.61,3.828,3.828,0,0,1-.37-.69,4.021,4.021,0,0,1-.31-1.53,4.047,4.047,0,0,1,.08-.78,3.9,3.9,0,0,1,.23-.75,3.519,3.519,0,0,1,.37-.69,3.251,3.251,0,0,1,.5-.61,4.894,4.894,0,0,1,.6-.5,4.579,4.579,0,0,1,.69-.37,4.252,4.252,0,0,1,.75-.22,3.776,3.776,0,0,1,1.57,0,3.922,3.922,0,0,1,.74.22,3.782,3.782,0,0,1,.69.37,4.224,4.224,0,0,1,.61.5,3.694,3.694,0,0,1,.5.61,4.143,4.143,0,0,1,.37.69,3.766,3.766,0,0,1,.23.75,4.047,4.047,0,0,1,.08.78,4.129,4.129,0,0,1-.08.78,3.978,3.978,0,0,1-.23.75,4.579,4.579,0,0,1-.37.69,4.161,4.161,0,0,1-.5.61,3.6,3.6,0,0,1-.61.49,3.256,3.256,0,0,1-.69.37,3.956,3.956,0,0,1-.74.23A4.129,4.129,0,0,1,52.781,215.724Z" style="fill:#acb9d4"/><path d="M35.781,217.544a4.114,4.114,0,0,1-.78-.07,3.832,3.832,0,0,1-.75-.23,4.579,4.579,0,0,1-.69-.37,4.161,4.161,0,0,1-.61-.5,4.023,4.023,0,0,1-1.17-2.82,4.15,4.15,0,0,1,.08-.79,3.956,3.956,0,0,1,.23-.74,3.75,3.75,0,0,1,.36-.69,4.279,4.279,0,0,1,.5-.61,4.161,4.161,0,0,1,.61-.5,4.579,4.579,0,0,1,.69-.37,3.832,3.832,0,0,1,.75-.23,4,4,0,1,1,.78,7.92Z" style="fill:#acb9d4"/><path d="M146.488,103.828a167.829,167.829,0,0,0-55.691-1.9l-1.13.163c-7.559,25.333-12.454,104.083-9.357,137.463h55.015c-3.441-19.664-3.384-40.866-1.254-73.281C135.827,139.547,140.934,116.281,146.488,103.828Z" style="fill:#667387"/><path d="M80.31,239.554h55.015c-3.441-19.664-3.384-40.866-1.254-73.281,1.756-26.726,6.863-49.992,12.417-62.445-1.394-.278-2.788-.534-4.182-.778l-14.243,1.676a8.568,8.568,0,0,0-7.379,6.689c-3.888,17.86-7.071,46.252-7.548,86.677a22.251,22.251,0,0,1-16.83,21.3,74.045,74.045,0,0,1-16.873,2.115C79.553,228.34,79.838,234.475,80.31,239.554Z" style="fill:#373d4c"/></svg>