<?xml version="1.0" ?><svg width="100px" height="100px" viewBox="0 0 100 100" data-name="Layer 1" id="Layer_1" xmlns="http://www.w3.org/2000/svg"><defs><style>.cls-1{fill:none;stroke:#995f5b;stroke-linecap:round;stroke-miterlimit:10;stroke-width:2px;}.cls-2{fill:#c8da52;}.cls-3{fill:#995f5b;}</style></defs><title/><line class="cls-1" x1="32.43" x2="42.62" y1="41.18" y2="30.99"/><line class="cls-1" x1="32.43" x2="21.75" y1="41.18" y2="30.99"/><path class="cls-2" d="M48,11.09H47.9a7.73,7.73,0,0,0-7.71,7.71V11a7.73,7.73,0,0,0-7.7-7.7h-.12A7.73,7.73,0,0,0,24.66,11V18.8A7.73,7.73,0,0,0,17,11.09h-.12A7.73,7.73,0,0,0,9.13,18.8V58.71a7.73,7.73,0,0,0,7.71,7.71H17a7.73,7.73,0,0,0,7.7-7.71v7.77a7.72,7.72,0,0,0,7.71,7.7h.12a7.72,7.72,0,0,0,7.7-7.7V58.71a7.73,7.73,0,0,0,7.71,7.71H48a7.73,7.73,0,0,0,7.7-7.71V18.8A7.73,7.73,0,0,0,48,11.09Z"/><path class="cls-2" d="M85.87,49.92h-.12A7.73,7.73,0,0,0,78,57.62V47a7.72,7.72,0,0,0-7.7-7.71h-.12A7.72,7.72,0,0,0,62.52,47V65.51a7.72,7.72,0,0,0,7.7,7.7h.12a7.72,7.72,0,0,0,7.7-7.7,7.73,7.73,0,0,0,7.71,7.7h.12a7.72,7.72,0,0,0,7.7-7.7V57.62A7.72,7.72,0,0,0,85.87,49.92Z"/><path class="cls-3" d="M41.91,46.78l-8.48,8.49V41.18a1,1,0,0,0-2,0V55.35l-9-8.58a1,1,0,1,0-1.38,1.44l10.37,9.9V91.65a1,1,0,0,0,2,0V58.1l9.9-9.9a1,1,0,0,0-1.42-1.42Z"/><path class="cls-3" d="M85.55,58a1,1,0,0,0-1.42,0L78,64,72,58a1,1,0,0,0-1.42,0,1,1,0,0,0,0,1.41l6.5,6.5V91.65a1,1,0,0,0,2,0V65.86l6.51-6.5A1,1,0,0,0,85.55,58Z"/></svg>