<?xml version="1.0" ?><svg width="100px" height="100px" viewBox="0 0 100 100" data-name="Layer 1" id="Layer_1" xmlns="http://www.w3.org/2000/svg"><defs><style>.cls-1{fill:#c8da52;}.cls-2{fill:#995f5b;}</style></defs><title/><rect class="cls-1" height="14.56" rx="7.22" ry="7.22" width="31.06" x="5.34" y="43.09"/><rect class="cls-1" height="14.56" rx="7.22" ry="7.22" width="31.06" x="5.34" y="23.68"/><rect class="cls-1" height="14.56" rx="7.22" ry="7.22" width="31.06" x="42.23" y="43.09"/><rect class="cls-1" height="14.56" rx="7.22" ry="7.22" width="31.06" x="42.23" y="23.68"/><rect class="cls-1" height="14.56" rx="7.22" ry="7.22" width="31.06" x="23.79" y="4.27"/><rect class="cls-1" height="14.56" rx="7.22" ry="7.22" width="31.06" x="63.58" y="62.5"/><path class="cls-2" d="M48.05,31.47a1,1,0,0,0,0-2,8.81,8.81,0,0,0-7.74,3.94V12a1,1,0,0,0-2,0V33.41a8.78,8.78,0,0,0-7.73-3.94,1,1,0,0,0,0,2c7.62,0,7.73,8.35,7.73,8.71V52.82a8.78,8.78,0,0,0-7.73-3.94,1,1,0,0,0,0,2c7.62,0,7.73,8.36,7.73,8.71v33a1,1,0,0,0,2,0v-33c0-.36.09-8.71,7.74-8.71a1,1,0,0,0,0-2,8.81,8.81,0,0,0-7.74,3.94V40.18C40.31,39.82,40.4,31.47,48.05,31.47Z"/><path class="cls-2" d="M87.84,70.24a8.91,8.91,0,0,0-8.73,5.82,8.91,8.91,0,0,0-8.74-5.82,1,1,0,0,0,0,2c7.62,0,7.74,8.35,7.74,8.71V92.59a1,1,0,0,0,2,0V81c0-.36.12-8.71,7.73-8.71a1,1,0,0,0,0-2Z"/></svg>