<?xml version="1.0" ?><svg width="100px" height="100px" viewBox="0 0 100 100" data-name="Layer 1" id="Layer_1" xmlns="http://www.w3.org/2000/svg"><defs><style>.cls-1{fill:#995f5b;}.cls-2{fill:#c8da52;}</style></defs><title/><path class="cls-1" d="M49.53,25.37a1,1,0,0,0-1.16.81L40.61,70l0,.17a1.86,1.86,0,0,1-1.91,1.8H34.83v-32a1,1,0,0,0-2,0v32H29a1.86,1.86,0,0,1-1.91-1.8L18.31,20.36a1,1,0,1,0-2,.34l8.72,49.54A3.86,3.86,0,0,0,29,73.94h3.86V93.32a1,1,0,0,0,2,0V73.94h3.85a3.86,3.86,0,0,0,3.91-3.7l7.75-43.71A1,1,0,0,0,49.53,25.37Z"/><path class="cls-1" d="M86.64,52.46a1,1,0,0,0-1.16.81L80.86,79.35l0,.17a.71.71,0,0,1-.73.67H74.33a.71.71,0,0,1-.73-.67L68.38,49.8a1,1,0,0,0-2,.35L71.6,79.62a2.71,2.71,0,0,0,2.73,2.57h1.89V93.32a1,1,0,0,0,2,0V82.19h1.89a2.71,2.71,0,0,0,2.73-2.57l4.61-26A1,1,0,0,0,86.64,52.46Z"/><path class="cls-2" d="M32.75,6.29h0c-.15-.06-.3-.15-.47-.21-7.15-2.66-15.77,2.73-21,16.78s.62,33.56,2.06,34.1c.78.28,6.13-2.77,11.72-7.84,3.68,6.72,7.85,11.44,8.68,11.42s4.65-4.86,7.94-11.66C47.6,53.73,53.23,56.55,54,56.21c1.41-.61,6.17-20.42.18-34.16C48.3,8.62,39.67,3.65,32.75,6.29Z"/><path class="cls-2" d="M89.33,50.88c-3.49-8-8.63-11-12.75-9.38h0l-.28-.13C72,39.79,66.9,43,63.79,51.36s.37,20,1.23,20.31c.46.17,3.65-1.66,7-4.68,2.2,4,4.68,6.82,5.18,6.81s2.76-2.89,4.72-6.94c3.53,2.89,6.88,4.57,7.34,4.37C90.07,70.86,92.9,59.06,89.33,50.88Z"/></svg>