<?xml version="1.0" ?><svg width="100px" height="100px" viewBox="0 0 100 100" data-name="Layer 1" id="Layer_1" xmlns="http://www.w3.org/2000/svg"><defs><style>.cls-1{fill:#c8da52;}.cls-2{fill:#995f5b;}</style></defs><title/><path class="cls-1" d="M31.55,3.33c-13.4,0-24.27,23.54-24.27,41S18.15,66.42,31.55,66.42s24.26-4.71,24.26-22.13S45,3.33,31.55,3.33Z"/><path class="cls-1" d="M73.39,38.27c-8.1,0-14.66,14.23-14.66,24.76S65.29,76.4,73.39,76.4,88.06,73.56,88.06,63,81.49,38.27,73.39,38.27Z"/><path class="cls-2" d="M40.29,33.45a1,1,0,0,0,0-2,8.91,8.91,0,0,0-8.74,5.82,8.91,8.91,0,0,0-8.74-5.82,1,1,0,0,0,0,2c7.62,0,7.74,8.35,7.74,8.7V55.77a8.79,8.79,0,0,0-7.74-3.94,1,1,0,0,0,0,2c7.62,0,7.74,8.35,7.74,8.71V91.65a1,1,0,1,0,2,0V62.54c0-.36.12-8.71,7.74-8.71a1,1,0,1,0,0-2,8.79,8.79,0,0,0-7.74,3.94V42.15C32.55,41.8,32.64,33.45,40.29,33.45Z"/><path class="cls-2" d="M78.67,67.19A5.7,5.7,0,0,0,74.29,69v-6.8a1.08,1.08,0,0,0,.1-.43c0-.2,0-4.87,4.28-4.87a1,1,0,0,0,0-2,5.69,5.69,0,0,0-5.28,3,5.68,5.68,0,0,0-5.28-3,1,1,0,0,0,0,2c3,0,3.92,2.35,4.18,3.8v8.07a5.8,5.8,0,0,0-4.18-1.55,1,1,0,0,0,0,2c3,0,3.92,2.35,4.18,3.8V91.65a1,1,0,0,0,2,0V74.49a1.09,1.09,0,0,0,.1-.44c0-.19,0-4.86,4.28-4.86a1,1,0,1,0,0-2Z"/></svg>