<?xml version="1.0" ?><svg width="100px" height="100px" viewBox="0 0 100 100" data-name="Layer 1" id="Layer_1" xmlns="http://www.w3.org/2000/svg"><defs><style>.cls-1{fill:#c8da52;}.cls-2{fill:#995f5b;}</style></defs><title/><ellipse class="cls-1" cx="51.51" cy="31.67" rx="13.59" ry="8.74"/><ellipse class="cls-1" cx="82.57" cy="31.67" rx="13.59" ry="8.74"/><ellipse class="cls-1" cx="65.21" cy="72.92" rx="9.81" ry="6.31"/><ellipse class="cls-1" cx="86.67" cy="72.92" rx="9.81" ry="6.31"/><ellipse class="cls-1" cx="20.45" cy="31.67" rx="13.59" ry="8.74"/><ellipse class="cls-1" cx="67.04" cy="14.19" rx="13.59" ry="8.74"/><ellipse class="cls-1" cx="35.98" cy="14.19" rx="13.59" ry="8.74"/><path class="cls-2" d="M84.1,33.46a1,1,0,0,0,.27-1.38A1,1,0,0,0,83,31.81L47.85,55.55C38.17,39,20.08,32.75,19.8,32.66a1,1,0,1,0-.63,1.9A57.51,57.51,0,0,1,39.09,47.35C51.17,59.46,54.7,75,49.58,93.52a1,1,0,0,0,.69,1.23,1.24,1.24,0,0,0,.27,0,1,1,0,0,0,1-.73c4.31-15.57,2.12-27.61-2.68-36.74Z"/><path class="cls-2" d="M88.25,73.81a1,1,0,0,0-1.39-.27L75.73,81.07a20.13,20.13,0,0,0-9.34-7.32,1,1,0,1,0-.64,1.89c.56.19,13.61,4.76,9.71,18.85a1,1,0,0,0,.7,1.23l.26,0a1,1,0,0,0,1-.73c1.41-5.1.8-9.11-.68-12.2L88,75.2A1,1,0,0,0,88.25,73.81Z"/></svg>