<?xml version="1.0" ?><svg width="100px" height="100px" viewBox="0 0 100 100" data-name="Layer 1" id="Layer_1" xmlns="http://www.w3.org/2000/svg"><defs><style>.cls-1{fill:#c8da52;}.cls-2{fill:#995f5b;}</style></defs><title/><rect class="cls-1" height="10.68" rx="1.77" ry="1.77" width="10.68" x="84.85" y="70.89"/><rect class="cls-1" height="10.68" rx="1.77" ry="1.77" width="10.68" x="56.7" y="68.95"/><rect class="cls-1" height="19.41" rx="3.23" ry="3.23" width="19.41" x="6.23" y="33.04"/><rect class="cls-1" height="19.41" rx="3.23" ry="3.23" width="19.41" x="47" y="37.89"/><rect class="cls-1" height="17.47" rx="2.9" ry="2.9" width="17.47" x="68.35" y="52.45"/><rect class="cls-1" height="31.06" rx="5.16" ry="5.16" width="31.06" x="24.68" y="1.98"/><path class="cls-2" d="M55.54,48.91a1,1,0,0,0-1.4-.15L41.21,59.1V25.27a1,1,0,0,0-2,0v39.4L18.57,44.93a1,1,0,0,0-1.38,1.45l22,21.06V90.3a1,1,0,0,0,2,0V61.67L55.39,50.32A1,1,0,0,0,55.54,48.91Z"/><path class="cls-2" d="M90.59,78.18a1,1,0,0,0-1.36-.4l-11.14,6V66a1,1,0,1,0-2,0V81.2L63,74.84a1,1,0,0,0-.87,1.81l14,6.78V90.3a1,1,0,0,0,2,0V86.05l12.09-6.51A1,1,0,0,0,90.59,78.18Z"/></svg>