<?xml version="1.0" ?><svg width="100px" height="100px" viewBox="0 0 100 100" data-name="Layer 1" id="Layer_1" xmlns="http://www.w3.org/2000/svg"><defs><style>.cls-1{fill:#c8da52;}.cls-2{fill:#995f5b;}</style></defs><title/><path class="cls-1" d="M44.06,81c11,0,8.79-17.59,8.79-17.59s-2.2,7.69-7.69,7.69c-4.4,0-7.7-3.29-7.7-8.79S49.55,52.41,49.55,37,32.15,6.25,32.15,6.25h0S14.56,21.64,14.56,37,26.65,56.81,26.65,62.3,23.36,71.09,19,71.09c-5.5,0-7.69-7.69-7.69-7.69S9.07,81,20.06,81Z"/><path class="cls-1" d="M82.76,83.9c5.14,0,4.11-8.22,4.11-8.22s-1,3.59-3.6,3.59c-2,0-3.6-1.54-3.6-4.11s5.66-4.62,5.66-11.82S77.19,49,77.19,49h0S69,56.15,69,63.34s5.65,9.25,5.65,11.82-1.54,4.11-3.6,4.11c-2.57,0-3.59-3.59-3.59-3.59s-1,8.22,4.11,8.22Z"/><path class="cls-2" d="M80.16,79.34a3.7,3.7,0,0,0-1.91.48V67.72a1,1,0,0,0-2,0v12.1a3.76,3.76,0,0,0-1.92-.48,1,1,0,0,0,0,2c1.8,0,1.91,1.86,1.92,2.24v11a1,1,0,0,0,2,0v-11c0-.37.11-2.24,1.91-2.24a1,1,0,0,0,0-2Z"/><path class="cls-2" d="M42.3,73.19c-5.19,0-8.07,1.5-9.67,3.16V29.87a1,1,0,0,0-2,0V76.33c-2-2.07-5.26-3.14-9.68-3.14a1,1,0,0,0,0,2c9.44,0,9.67,5.24,9.68,5.48v13.9a1,1,0,1,0,2,0V80.67c0-.22.21-5.48,9.67-5.48a1,1,0,0,0,0-2Z"/></svg>