<?xml version="1.0" ?><svg width="100px" height="100px" viewBox="0 0 100 100" data-name="Layer 1" id="Layer_1" xmlns="http://www.w3.org/2000/svg"><defs><style>.cls-1{fill:none;stroke:#995f5b;stroke-linecap:round;stroke-miterlimit:10;stroke-width:2.26px;}.cls-2{fill:#c8da52;}.cls-3{fill:#995f5b;}</style></defs><title/><line class="cls-1" x1="69.5" x2="76.83" y1="60.37" y2="67.7"/><polygon class="cls-2" points="33.83 60.47 25.11 72.27 5.84 45.44 35.28 5.76 62.65 43.94 41.81 72.03 33.83 60.47"/><polygon class="cls-2" points="76.29 73.32 70.67 80.94 58.09 62.55 77.02 37.79 94.94 62.69 81.52 80.85 76.29 73.32"/><path class="cls-3" d="M50.59,41.46,34.83,57.22V52.28L46.18,40.93a1,1,0,0,0,0-1.42,1,1,0,0,0-1.41,0l-9.94,9.94V37.31a1,1,0,0,0-2,0V49.45l-9.94-9.94a1,1,0,0,0-1.42,1.42L32.83,52.28v4.94L17.06,41.46a1,1,0,0,0-1.41,0,1,1,0,0,0,0,1.41L32.83,60.05V94.57a1,1,0,0,0,2,0V60.05L52,42.87a1,1,0,0,0,0-1.41A1,1,0,0,0,50.59,41.46Z"/><path class="cls-3" d="M85,59.58a1.12,1.12,0,0,0-1.6,0l-5.7,5.7V58.66a1.13,1.13,0,0,0-2.26,0V94.57a1.13,1.13,0,0,0,2.26,0V68.47l7.3-7.3A1.12,1.12,0,0,0,85,59.58Z"/></svg>