<?xml version="1.0" ?><svg width="100px" height="100px" viewBox="0 0 100 100" data-name="Layer 1" id="Layer_1" xmlns="http://www.w3.org/2000/svg"><defs><style>.cls-1{fill:#995f5b;}.cls-2{fill:#c8da52;}</style></defs><title/><path class="cls-1" d="M44.07,94.78a1,1,0,0,1-1-1V62.72a1,1,0,0,1,2,0V93.78A1,1,0,0,1,44.07,94.78Z"/><path class="cls-1" d="M82.9,94.78a1,1,0,0,1-1-1V75.34a1,1,0,0,1,2,0V93.78A1,1,0,0,1,82.9,94.78Z"/><rect class="cls-2" height="24.42" rx="4.72" ry="4.72" transform="translate(29.67 -24.22) rotate(45)" width="24.42" x="31.86" y="11.49"/><rect class="cls-2" height="24.42" rx="4.72" ry="4.72" transform="translate(57.24 -12.8) rotate(45)" width="24.42" x="31.86" y="50.48"/><rect class="cls-2" height="24.42" rx="4.72" ry="4.72" transform="translate(49.16 -32.3) rotate(45)" width="24.42" x="51.36" y="30.98"/><rect class="cls-2" height="20.59" rx="3.38" ry="3.38" transform="translate(75.49 -37.4) rotate(45)" width="20.59" x="72.6" y="62.13"/><rect class="cls-2" height="24.42" rx="4.72" ry="4.72" transform="translate(37.74 -4.73) rotate(45)" width="24.42" x="12.37" y="30.98"/></svg>