<?xml version="1.0" ?><svg width="100px" height="100px" viewBox="0 0 100 100" data-name="Layer 1" id="Layer_1" xmlns="http://www.w3.org/2000/svg"><defs><style>.cls-1{fill:#c8da52;}.cls-2{fill:#995f5b;}</style></defs><title/><circle class="cls-1" cx="19.48" cy="46.04" r="11.65"/><circle class="cls-1" cx="60.25" cy="51.87" r="11.65"/><circle class="cls-1" cx="42.78" cy="23.72" r="17.47"/><circle class="cls-1" cx="78.69" cy="67.4" r="8.74"/><circle class="cls-1" cx="89.85" cy="81.47" r="6.31"/><circle class="cls-1" cx="65.59" cy="78.56" r="6.31"/><path class="cls-2" d="M58.69,53,42.81,64.47V29.54a1,1,0,1,0-2,0V58.78L21,46.17a1,1,0,1,0-1.07,1.69L40.81,61.15V94.57a1,1,0,0,0,2,0V66.94l17-12.32A1,1,0,1,0,58.69,53Z"/><path class="cls-2" d="M89.29,82.48A1,1,0,0,0,88,82l-8.26,4.13V70.31a1,1,0,0,0-2,0V83.54l-11.18-5.4A1,1,0,1,0,65.64,80l12,5.81v8.81a1,1,0,0,0,2,0V88.4l9.15-4.58A1,1,0,0,0,89.29,82.48Z"/></svg>