<?xml version="1.0" ?><svg width="100px" height="100px" viewBox="0 0 100 100" data-name="Layer 1" id="Layer_1" xmlns="http://www.w3.org/2000/svg"><defs><style>.cls-1{fill:#c8da52;}.cls-2{fill:#995f5b;}</style></defs><title/><rect class="cls-1" height="59.21" rx="9.15" ry="9.15" width="18.44" x="20.24" y="21.77"/><rect class="cls-1" height="37.85" rx="9.15" ry="9.15" width="18.44" x="64.88" y="43.12"/><rect class="cls-1" height="77.65" rx="9.15" ry="9.15" width="18.44" x="42.56" y="3.33"/><path class="cls-2" d="M52.27,92.65a1,1,0,0,1-1-1V30.51a1,1,0,1,1,2,0V91.65A1,1,0,0,1,52.27,92.65Z"/><path class="cls-2" d="M29.94,92.65a1,1,0,0,1-1-1V46a1,1,0,0,1,2,0V91.65A1,1,0,0,1,29.94,92.65Z"/><path class="cls-2" d="M73.62,92.65a1,1,0,0,1-1-1V60.59a1,1,0,0,1,2,0V91.65A1,1,0,0,1,73.62,92.65Z"/></svg>