<?xml version="1.0" ?><svg width="100px" height="100px" viewBox="0 0 100 100" data-name="Layer 1" id="Layer_1" xmlns="http://www.w3.org/2000/svg"><defs><style>.cls-1{fill:#995f5b;}.cls-2{fill:#c8da52;}</style></defs><title/><path class="cls-1" d="M33.57,92.65a1,1,0,0,1-1-1V16.92a1,1,0,1,1,2,0V91.65A1,1,0,0,1,33.57,92.65Z"/><path class="cls-2" d="M62.69,43.42c0-.18-9,6-16.5,6s-10.68-2.69-10.68-6,3.17-6,10.68-6S62.69,43.61,62.69,43.42Z"/><path class="cls-2" d="M62.69,56.77c0-.18-9,6-16.5,6s-10.68-2.69-10.68-6,3.17-6,10.68-6S62.69,57,62.69,56.77Z"/><path class="cls-2" d="M62.69,70.12c0-.19-9,6-16.5,6s-10.68-2.69-10.68-6,3.17-6,10.68-6S62.69,70.3,62.69,70.12Z"/><path class="cls-2" d="M62.69,30.08c0-.18-9,6-16.5,6s-10.68-2.69-10.68-6,3.17-6,10.68-6S62.69,30.26,62.69,30.08Z"/><path class="cls-2" d="M62.69,16.73c0-.18-9,6-16.5,6s-10.68-2.69-10.68-6,3.17-6,10.68-6S62.69,16.92,62.69,16.73Z"/><path class="cls-2" d="M4.45,43.42c0-.18,9,6,16.5,6s10.68-2.69,10.68-6-3.17-6-10.68-6S4.45,43.61,4.45,43.42Z"/><path class="cls-2" d="M4.45,56.77c0-.18,9,6,16.5,6s10.68-2.69,10.68-6-3.17-6-10.68-6S4.45,57,4.45,56.77Z"/><path class="cls-2" d="M4.45,70.12c0-.19,9,6,16.5,6s10.68-2.69,10.68-6-3.17-6-10.68-6S4.45,70.3,4.45,70.12Z"/><path class="cls-2" d="M4.45,30.08c0-.18,9,6,16.5,6s10.68-2.69,10.68-6-3.17-6-10.68-6S4.45,30.26,4.45,30.08Z"/><path class="cls-2" d="M4.45,16.73c0-.18,9,6,16.5,6s10.68-2.69,10.68-6-3.17-6-10.68-6S4.45,16.92,4.45,16.73Z"/><path class="cls-1" d="M77.25,92.65a1,1,0,0,1-1-1V66.42a1,1,0,0,1,2,0V91.65A1,1,0,0,1,77.25,92.65Z"/><path class="cls-2" d="M93.75,73.92c0-.1-5.1,3.4-9.35,3.4s-6.05-1.52-6.05-3.4,1.79-3.4,6.05-3.4S93.75,74,93.75,73.92Z"/><path class="cls-2" d="M93.75,66.36c0-.11-5.1,3.4-9.35,3.4s-6.05-1.52-6.05-3.4S80.14,63,84.4,63,93.75,66.46,93.75,66.36Z"/><path class="cls-2" d="M59.77,73.92c0-.1,5.1,3.4,9.35,3.4s6-1.52,6-3.4-1.79-3.4-6-3.4S59.77,74,59.77,73.92Z"/><path class="cls-2" d="M59.77,66.36c0-.11,5.1,3.4,9.35,3.4s6-1.52,6-3.4S73.38,63,69.12,63,59.77,66.46,59.77,66.36Z"/></svg>