<?xml version="1.0" ?><svg width="100px" height="100px" viewBox="0 0 100 100" data-name="Layer 1" id="Layer_1" xmlns="http://www.w3.org/2000/svg"><defs><style>.cls-1{fill:#995f5b;}.cls-2{fill:#c8da52;}</style></defs><title/><path class="cls-1" d="M30.94,58.25a1,1,0,0,0-1,1V90.3a1,1,0,0,0,2,0v-31A1,1,0,0,0,30.94,58.25Z"/><path class="cls-1" d="M74.61,73.77a1,1,0,0,0-1,1V90.3a1,1,0,0,0,2,0V74.77A1,1,0,0,0,74.61,73.77Z"/><rect class="cls-2" height="11.65" rx="5.78" ry="5.78" transform="translate(61.87 15.61) rotate(-180)" width="29.12" x="16.38" y="1.98"/><rect class="cls-2" height="11.65" rx="5.78" ry="5.78" transform="translate(61.87 42.78) rotate(-180)" width="38.82" x="11.53" y="15.57"/><rect class="cls-2" height="11.65" rx="5.78" ry="5.78" transform="translate(61.87 124.31) rotate(180)" width="29.12" x="16.38" y="56.33"/><rect class="cls-2" height="11.65" rx="5.78" ry="5.78" transform="translate(61.87 97.14) rotate(180)" width="38.82" x="11.53" y="42.74"/><rect class="cls-2" height="11.65" rx="5.78" ry="5.78" transform="translate(61.87 69.96) rotate(180)" width="52.41" x="4.73" y="29.16"/><rect class="cls-2" height="6.85" rx="3.4" ry="3.4" transform="translate(149.46 84.58) rotate(180)" width="17.13" x="66.16" y="38.86"/><rect class="cls-2" height="6.85" rx="3.4" ry="3.4" transform="translate(149.46 100.56) rotate(180)" width="22.84" x="63.31" y="46.86"/><rect class="cls-2" height="6.85" rx="3.4" ry="3.4" transform="translate(149.46 148.52) rotate(180)" width="17.13" x="66.16" y="70.83"/><rect class="cls-2" height="6.85" rx="3.4" ry="3.4" transform="translate(149.46 132.53) rotate(180)" width="22.84" x="63.31" y="62.84"/><rect class="cls-2" height="6.85" rx="3.4" ry="3.4" transform="translate(149.46 116.55) rotate(180)" width="30.83" x="59.31" y="54.85"/></svg>