<?xml version="1.0" ?><svg width="47.5px" height="47.5px" viewBox="0 0 47.5 47.5" id="svg2" style="enable-background:new 0 0 47.5 47.5;" version="1.1" xml:space="preserve" xmlns="http://www.w3.org/2000/svg" xmlns:cc="http://creativecommons.org/ns#" xmlns:dc="http://purl.org/dc/elements/1.1/" xmlns:rdf="http://www.w3.org/1999/02/22-rdf-syntax-ns#" xmlns:svg="http://www.w3.org/2000/svg"><defs id="defs6"><clipPath clipPathUnits="userSpaceOnUse" id="clipPath16"><path d="M 0,38 38,38 38,0 0,0 0,38 Z" id="path18"/></clipPath></defs><g id="g10" transform="matrix(1.25,0,0,-1.25,0,47.5)"><g id="g12"><g clip-path="url(#clipPath16)" id="g14"><g id="g20" transform="translate(32,15)"><path d="m 0,0 c -3,-11 -5.019,-14 -13,-14 -8,0 -10,3 -13,14 -2.035,7.46 2,14 13,14 C -2,14 2.034,7.46 0,0" id="path22" style="fill:#f4900c;fill-opacity:1;fill-rule:nonzero;stroke:none"/></g><g id="g24" transform="translate(30,26)"><path d="m 0,0 c 2,-4 -3,-8 -11,-8 -8,0 -13,4 -11,8 1.482,2.964 4.373,6 11,6 6.627,0 9.519,-3.036 11,-6" id="path26" style="fill:#be1931;fill-opacity:1;fill-rule:nonzero;stroke:none"/></g><g id="g28" transform="translate(31,26)"><path d="m 0,0 c 0,-4 -5.373,-6 -12,-6 -6.627,0 -12,2 -12,6 0,3.313 5.373,6 12,6 C -5.373,6 0,3.313 0,0" id="path30" style="fill:#ffac33;fill-opacity:1;fill-rule:nonzero;stroke:none"/></g><g id="g32" transform="translate(28,27)"><path d="m 0,0 c 1,-1 2,-2 2,-3 0,-1 -1,-3 -2,-2 0,0 2.948,-1.154 2,-4 -1,-3 -4,-2 -4,0 0,2 -1.553,3.342 -2,2 -1,-3 -3,-3 -4,-2 -1,1 -1,2 -1,2 0,0 -3,0 -2,2 1,2 0,2 0,2 0,0 0,1 1,1 1,0 7,1 8,2 1,1 2,0 2,0" id="path34" style="fill:#ffe8b6;fill-opacity:1;fill-rule:nonzero;stroke:none"/></g><g id="g36" transform="translate(29,27.7222)"><path d="m 0,0 c 0,-2.608 -4.477,-4.722 -10,-4.722 -5.523,0 -10,2.114 -10,4.722 0,2.608 4.477,4.278 10,4.278 5.523,0 10,-1.67 10,-4.278" id="path38" style="fill:#662113;fill-opacity:1;fill-rule:nonzero;stroke:none"/></g><g id="g40" transform="translate(19,23)"><path d="M 0,0 C 4.548,0 8.379,1.435 9.593,3.396 9.4,3.598 9.201,3.799 9,4 9,4 7,6 6,5 5,4 0,4 -1,4 -2,4 -3,3 -3,3 -3,3 -1.413,0.989 -1.603,0.066 -1.08,0.026 -0.547,0 0,0" id="path42" style="fill:#f4900c;fill-opacity:1;fill-rule:nonzero;stroke:none"/></g><g id="g44" transform="translate(27,28.5)"><path d="m 0,0 c 0,-1.933 -3.582,-3.5 -8,-3.5 -4.418,0 -8,1.567 -8,3.5 0,1.933 3.582,5.5 8,5.5 4.418,0 8,-3.567 8,-5.5" id="path46" style="fill:#ffcc4d;fill-opacity:1;fill-rule:nonzero;stroke:none"/></g><g id="g48" transform="translate(21,34.5)"><path d="m 0,0 c 0,-0.828 -0.896,-1.5 -2,-1.5 -1.104,0 -2,0.672 -2,1.5 0,0.828 0.896,1.5 2,1.5 1.104,0 2,-0.672 2,-1.5" id="path50" style="fill:#f4900c;fill-opacity:1;fill-rule:nonzero;stroke:none"/></g><g id="g52" transform="translate(6.6851,12.5898)"><path d="m 0,0 c 0.725,-2.457 1.425,-4.436 2.204,-6.013 3.111,-2.577 8.111,-2.577 10.111,-2.577 2,0 7,0 10.106,2.576 0.781,1.577 1.483,3.556 2.208,6.014 C 21.924,-1.562 17.427,-2.59 12.315,-2.59 7.203,-2.59 2.705,-1.562 0,0" id="path54" style="fill:#ffcc4d;fill-opacity:1;fill-rule:nonzero;stroke:none"/></g></g></g></g></svg>