<?xml version="1.0" ?><!DOCTYPE svg  PUBLIC '-//W3C//DTD SVG 1.0//EN'  'http://www.w3.org/TR/2001/REC-SVG-20010904/DTD/svg10.dtd'><svg width="256px" height="256px" viewBox="0 0 256 256" enable-background="new 0 0 256 256" id="Layer_1" version="1.0" xml:space="preserve" xmlns="http://www.w3.org/2000/svg" xmlns:xlink="http://www.w3.org/1999/xlink"><g><path d="M173.818,213.984c-0.703-5.561-3.043-5.014-9.205-5.523c-6.158-0.51-9.992-0.51-14.361-3.084   c-5.986-2.484-9.205-11.525-9.631-14.244c-0.658-4.191-3.424-23.369-9.693-35.096c-6.271-11.727-9.375-23.799-7.652-62.428   c0.967-21.619,3.246-37.223,5.066-46.777c-15.68-2.424-40.861-5.889-44.389-3.744c-5.176,3.145,7.748,78.602,8.092,108.314h-0.344   c-2.262,4.266-14.16,24.27-3.125,41.014c0.287,0.494,0.545,1.316,0.775,2.389c0.564-9.148,1.549-17.924,3.27-21.09   c5.061-9.313,4.529,8.625,7.129,19.199c0.195,0.801,0.449,1.76,0.742,2.828c3.357,10.166,5.977,18.957,13.686,24.336   c7.344,3.701,17.586,3.131,29.836,3.131c13.439,0,23.582-3.664,29.197-7.18C172.971,216.012,173.85,214.229,173.818,213.984z" fill="#34AEDB"/><path d="M144.014,223.209c19.287,0,31.789-7.545,33.842-11.367c-0.486,0.195-0.967,0.387-1.463,0.604   c-41.766,18.379-55.672-10.16-55.672-10.16s-6.086-11.936-10.406-28.863c-3.25-12.734-19.463-15.027-27.154-15.963   c-2.434,8.051-3.373,18.338,2.752,27.627c1.389,2.381-0.824,32.641-0.824,32.641s3.473,1.367,3.48,3.277l0.023,0.02   c0,0-0.086-39.73,4.029-47.309c3.92-7.217,4.398,1.768,5.75,11.336c1.352,9.57,7.934,33.48,17.057,35.609   C122.666,223.721,132.447,223.209,144.014,223.209z" fill="#34DBAE"/><path d="   M178.16,210.965c0.303-3.381-3.783-7.709-15.67-8.311c-14.725-0.744-21.211-7.328-21.869-11.521   c-0.658-4.191-3.424-23.369-9.693-35.096c-6.271-11.727-9.375-23.799-7.652-62.428c1.725-38.631,7.652-58.066,7.652-58.066   s-51.795-8.93-56.971-5.785s7.748,78.604,8.09,108.316" fill="none" stroke="#14346E" stroke-linecap="round" stroke-linejoin="round" stroke-miterlimit="10" stroke-width="6"/><g><g><path d="M88.592,221.023     c0,0-0.003-1.51,0.022-3.997" fill="none" stroke="#14346E" stroke-linecap="round" stroke-linejoin="round" stroke-width="6"/><path d="     M89.063,200.218c0.493-10.882,1.5-22.713,3.558-26.503c5.061-9.313,4.529,8.625,7.129,19.199     c1.475,5.998,5.951,20.855,11.15,25.064c7.418,6,18.922,5.23,33.113,5.23c6.141,0,17.438-1.253,25.356-4.33" fill="none" stroke="#14346E" stroke-dasharray="8.0721,16.8168" stroke-linecap="round" stroke-linejoin="round" stroke-width="6"/><path d="M176.487,214.522     c0.961-1.07,1.556-2.254,1.673-3.558" fill="none" stroke="#14346E" stroke-linecap="round" stroke-linejoin="round" stroke-width="6"/></g></g><path d="   M108.143,166.471c-2.16-10.396-15.818-21.367-23.975-24.762c-2.93-1.221-3.912-5.537,0.809-5.877" fill="none" stroke="#14346E" stroke-linecap="round" stroke-linejoin="round" stroke-miterlimit="10" stroke-width="6"/><path d="   M81.238,215.635c0,0-0.016-32.021-2.658-36.547c-11.039-16.746,0.861-36.748,3.125-41.014" fill="none" stroke="#14346E" stroke-linecap="round" stroke-linejoin="round" stroke-miterlimit="10" stroke-width="6"/><path d="   M111.391,205.234c2.889,5.02,6.74,9.188,11.652,9.68c15.641,1.568,32.424,0,32.424,0" fill="none" stroke="#14346E" stroke-linecap="round" stroke-linejoin="round" stroke-miterlimit="10" stroke-width="6"/><g><g><path d="M78.094,46.832     c0,0-0.906-1.39,2.879-2.007" fill="none" stroke="#14346E" stroke-linecap="round" stroke-linejoin="round" stroke-width="6"/><path d="     M95.322,45.14c0.541,0.056,1.098,0.116,1.672,0.181c5.158,0.581,9.194,1.004,12.35,1.311" fill="none" stroke="#14346E" stroke-dasharray="6.9041,14.3835" stroke-linecap="round" stroke-linejoin="round" stroke-width="6"/><path d="M116.511,47.252     c3.448,0.246,3.991,0.16,3.991,0.16" fill="none" stroke="#14346E" stroke-linecap="round" stroke-linejoin="round" stroke-width="6"/></g></g><path d="   M124.096,80.088c0,0,13.814,10.734,9.332,18.742c-6.561,11.727-31.553,7.998-22.037,45.131" fill="none" stroke="#14346E" stroke-dasharray="7.9976,16.6616" stroke-linecap="round" stroke-linejoin="round" stroke-miterlimit="10" stroke-width="6"/></g></svg>