<?xml version="1.0" ?><!DOCTYPE svg  PUBLIC '-//W3C//DTD SVG 1.0//EN'  'http://www.w3.org/TR/2001/REC-SVG-20010904/DTD/svg10.dtd'><svg width="256px" height="256px" viewBox="0 0 256 256" enable-background="new 0 0 256 256" id="Layer_1" version="1.0" xml:space="preserve" xmlns="http://www.w3.org/2000/svg" xmlns:xlink="http://www.w3.org/1999/xlink"><g><path d="M146.885,200.641c-1.889,0.277-3.654,0.699-5.314,1.223c-1.496,9.346-2.807,17.01-3.129,22.316   c4.514-0.764,10.932-4.01,17.85-3.484c8.307,0.631,12.496,1.627,14.309-1.734c0.596-5.219,1.088-10.301,1.467-15.203   C166.107,201.057,157.719,199.043,146.885,200.641z" fill="#FFDE58"/><path d="M179.398,58.883c0,0-1.021-2.068-5.76-1.875v-0.666c0,0,1.574-7.498,0.711-12.662   c-0.162-0.979-0.367-1.896-0.625-2.773c-0.436-0.355-0.889-0.711-1.381-1.068c-8.035-5.838-19.959,10.598-30.865,16.566   l-1.197,0.203c-3.256,0.27-11.723,0.012-23.307-3.699c-4.926-1.576-10.383-6.15-11.693-9.752c-0.443-1.219-1.025-2.289-1.715-3.211   c-0.803-0.688-1.537-1.406-2.172-2.137c-2.273-1.588-5.186-2.025-8.428-0.979c-5.658,1.828-15.686,23.855-16.027,33.211   c-0.008,0.223,0.01,0.443,0.018,0.662c2.072,1.422,11.609,5.438,16.092,6.74c-0.701,2.131-6.635,13.473-7.889,18.672   c-1.184,4.918-8.623,28.855-7.033,70.133c10.303,0.354,22.184,2.783,28.453,4.924c4.818,1.645,8.436,0.063,11.117-1.348   c-1.563-7.938-3.098-16.674-4.076-25.709c-1.869-17.348-2.457-32.824-2.465-41.361c-0.01-9.688,1.219-17.158,2.123-22.254   c9.502,1.854,29.176-0.166,30.459-0.328c1.119,2.848,1.482,4.77,2.041,9.051c1.988,15.381,2.076,23.219,2.645,36.902   c0.461,11.055,0.047,17.619-3.021,47.637c-0.576,5.662-1.277,11.07-2.004,16.156c1.711-0.547,3.531-0.986,5.486-1.273   c10.834-1.6,19.223,0.416,25.182,3.119c4.088-52.936-3.625-87.023-5.178-94.531c-2.383-11.529-5.156-19.145-6.369-21.611   c8.785-2.572,15.535-6.188,17.199-11.027c0.09-0.471,0.242-1.324,0.396-2.406C180.107,61.137,179.881,60.037,179.398,58.883z" fill="#FF9D00"/><path d="M108.578,184.502c-6.27-2.141-18.148-4.57-28.451-4.926c0.293,7.617,0.902,15.836,1.906,24.623   c2.832,0.254,6.842-0.215,12.404-0.57c12.266-0.783,23.688,6.797,27.799,2.1c0.818-0.936,1.09-2.762,0.988-5.305   c-1.008-5.064-2.275-10.908-3.527-17.268C117.016,184.564,113.396,186.146,108.578,184.502z" fill="#FFDE58"/><path d="   M80.254,84.277c0,0-14.383,48.025-3.68,114.586c1.137,7.088,5.871,5.742,18.141,4.959c12.268-0.783,23.688,6.799,27.799,2.102   c4.111-4.699-5.369-31.549-8.613-61.611c-1.871-17.35-2.465-41.365-2.465-41.365" fill="none" stroke="#14346E" stroke-linecap="round" stroke-linejoin="round" stroke-miterlimit="10" stroke-width="6"/><path d="   M142.703,117.658c0,0,0.047,17.617-3.021,47.635c-3.066,30.016-9.504,52.998-6.053,57.697c3.449,4.697,12.645-2.885,22.939-2.098   c10.297,0.781,14.27,2.127,15.227-4.961c8.984-66.561-2.629-118.504-2.629-118.504" fill="none" stroke="#14346E" stroke-linecap="round" stroke-linejoin="round" stroke-miterlimit="10" stroke-width="6"/><path d="   M111.254,44.439c-6.088-2.254-10.383-6.152-11.693-9.752c-1.996-5.482-6.658-8.152-12.313-6.324   c-5.658,1.824-15.686,23.854-16.029,33.209c-0.445,12.236,27.604,19.434,50.893,19.434c23.293,0,64.219-6.006,57.564-21.928   c0,0,1.107-5.744-17.221-0.078" fill="none" stroke="#14346E" stroke-linecap="round" stroke-linejoin="round" stroke-miterlimit="10" stroke-width="6"/><path d="   M174.627,43.875c-1.535-5.363-2.848-8.762-8.004-12.506c-8.807-6.4-22.291,13.969-33.986,17.969   c-10.26,3.508-20.055,3.555-27.164,3.332" fill="none" stroke="#14346E" stroke-linecap="round" stroke-linejoin="round" stroke-miterlimit="10" stroke-width="6"/><path d="   M167.25,189.393c0,0-12.777-3.164-22.023,0" fill="none" stroke="#14346E" stroke-linecap="round" stroke-linejoin="round" stroke-miterlimit="10" stroke-width="6"/><path d="   M82.408,166.5c9.154,0.758,18.756,2.824,24.172,4.672" fill="none" stroke="#14346E" stroke-linecap="round" stroke-linejoin="round" stroke-miterlimit="10" stroke-width="6"/></g></svg>