<?xml version="1.0" ?><!DOCTYPE svg  PUBLIC '-//W3C//DTD SVG 1.0//EN'  'http://www.w3.org/TR/2001/REC-SVG-20010904/DTD/svg10.dtd'><svg width="256px" height="256px" viewBox="0 0 256 256" enable-background="new 0 0 256 256" id="Layer_1" version="1.0" xml:space="preserve" xmlns="http://www.w3.org/2000/svg" xmlns:xlink="http://www.w3.org/1999/xlink"><g><path d="M221.061,144.317c-7.764-1.895-21.254-0.908-21.254-0.908c-3.779,0.178-5.775,1.34-6.236,1.646   c0.988,4.1,1.895,8.146,1.967,9.473c0.168,3-8.414,6.104-8.414,6.104s-3.367,1.746-43.086,5.797   c-39.723,4.055-72.957,13.945-72.957,13.945s-2.307,0.764-5.234,1.672c8.969,2.408,21.102,4.605,39.297,4.605   c34.777,0,51.719-8.674,83.496-14.186C219.361,167.136,220.986,151.503,221.061,144.317z" fill="#00CFDB"/><path d="M115.682,139.878c18.355-2.082,65.15-8.994,67.924-9.918c-4.346-9.963-9.494-21.389-13.773-29.803   c-1.908-3.748-3.951-7.393-6.041-10.828c-6.047-8.223-11.773-13.691-15.18-13.691c-5.838,0-8.115,6.955-13.111,11.467   c-8.775,7.926-15.205,8.078-21.898,4.555c-3.654-1.924-17.451-7.461-25.787-6.795c-10.389,0.83-21.402,11.998-23.67,21.887   c-2.27,9.889-2.484,41.168-2.756,47.666c-0.004,0.104-0.008,0.201-0.014,0.305C69.871,152.921,86.707,143.165,115.682,139.878z" fill="#00CFDB"/><g><polygon fill="#00CFDB" points="49.553,177.048 49.549,177.048 49.549,177.048   "/><path d="M49.699,165.382c-2.646,0.396-7.195,1.324-11.143,3.383c-3.068,1.596-4.332,3.01-4.357,4.27    c3.514,1.404,8.447,2.508,12.824,3.404c0.826,0.168,1.668,0.377,2.525,0.609c0.355-2.947,0.15-5.393,0.15-5.393v-6V165.382z" fill="#00CFDB"/></g><path d="M121.682,146.542c-32.711,3.711-49.957,15.674-57.191,15.121c-1.412-0.107-2.754-0.283-3.947-0.475   c0.027,1.605,0.084,3.389,0.178,5.502c-1.039-0.094-3.258,0.262-5.004,0.592l-0.021,5.039v5.996c0,0,0.016,0.184,0.031,0.498   c4.734-1.352,10.021-3.107,10.021-3.107s33.234-9.891,72.955-13.943s43.088-5.799,43.088-5.799s8.582-3.104,8.414-6.104   c-0.094-1.664-2.115-7.609-3.896-12.572C174.846,139.31,137.584,144.737,121.682,146.542z" fill="#FF9D00"/><path d="   M194.932,138.761c0,0,26.586-1.945,26.586,4.863c0,6.811-0.648,23.346-32.424,28.859c-31.775,5.512-48.717,14.186-83.496,14.186   c-34.773,0-47.42-8.025-58.117-10.215c-10.703-2.189-24.75-5.621-13.135-11.674c5.998-3.121,13.375-3.645,13.375-3.645" fill="none" stroke="#14346E" stroke-linecap="round" stroke-linejoin="round" stroke-miterlimit="10" stroke-width="6"/><path d="   M193.309,151.731c0,0-13.617-33.072-23.02-51.555c-9.408-18.482-22.049-34.518-27.889-34.518c-5.834,0-7.711,8.254-15.109,10.133" fill="none" stroke="#14346E" stroke-linecap="round" stroke-linejoin="round" stroke-miterlimit="10" stroke-width="6"/><path d="   M132.115,85.78c0,0-9.654,1.658-16.871-0.928c-9.854-3.533-22.525-10.854-33.639-9.967c-10.389,0.828-21.396,11.996-23.672,21.885   c-2.268,9.889-2.268,41.18-2.756,47.666" fill="none" stroke="#14346E" stroke-linecap="round" stroke-linejoin="round" stroke-miterlimit="10" stroke-width="6"/><path d="   M172.598,132.194c0,0-38.104,5.619-56.459,7.701c-32.709,3.711-49.934,15.119-57.191,15.119" fill="none" stroke="#14346E" stroke-dasharray="7.9976,16.6616" stroke-linecap="round" stroke-linejoin="round" stroke-miterlimit="10" stroke-width="6"/><line fill="none" stroke="#14346E" stroke-linecap="round" stroke-linejoin="round" stroke-miterlimit="10" stroke-width="6" x1="50.154" x2="50.154" y1="165.673" y2="171.671"/><path d="   M66.205,175.726c0,0,33.234-9.891,72.955-13.943s43.086-5.799,43.086-5.799" fill="none" stroke="#14346E" stroke-dasharray="7.9976,16.6616" stroke-linecap="round" stroke-linejoin="round" stroke-miterlimit="10" stroke-width="6"/></g></svg>