<?xml version="1.0" ?><!DOCTYPE svg  PUBLIC '-//W3C//DTD SVG 1.0//EN'  'http://www.w3.org/TR/2001/REC-SVG-20010904/DTD/svg10.dtd'><svg width="256px" height="256px" viewBox="0 0 256 256" enable-background="new 0 0 256 256" id="Layer_1" version="1.0" xml:space="preserve" xmlns="http://www.w3.org/2000/svg" xmlns:xlink="http://www.w3.org/1999/xlink"><g><polygon fill="#FFCF59" points="119.896,195.576 130.295,202.863 165.135,180.521 162.756,168.707  "/><path d="M106.887,167.492c-1.941,9.813-3.299,16.659-3.299,16.659l2.977,2.086l53.029-33.247l-3.311-16.466   L106.887,167.492z" fill="#FFCF59"/><path d="M139.75,92.956c-4.846,0-10.457,0-12.4,0c-3.676,0-6.047,1.631-6.842,5.706   c-0.102,0.531-0.627,3.19-1.434,7.253L139.75,92.956z" fill="#FFCF59"/><path d="M115.08,126.119c-1.336,6.743-2.785,14.064-4.191,21.169l24.514-15.369h-1.32v-10.36h17.846l1.25-0.783   l-3.229-16.518L115.08,126.119z" fill="#FFCF59"/><polygon fill="#FF9D00" points="119.896,195.576 162.756,168.707 159.594,152.99 106.564,186.237  "/><g><path d="M106.887,167.492l49.396-30.968l-0.928-4.605h-19.953l-24.514,15.369    C109.453,154.543,108.063,161.558,106.887,167.492z" fill="#FF9D00"/><polygon fill="#FF9D00" points="153.332,121.559 153.178,120.775 151.928,121.559   "/></g><path d="M139.75,92.956l-20.676,12.959c-0.99,5.023-2.41,12.201-3.994,20.204l34.869-21.861l-2.211-11.302   C147.738,92.956,144.047,92.956,139.75,92.956z" fill="#FF9D00"/><path d="M152.137,55.115c-0.518-0.071-1.051-0.116-1.598-0.116h-25.834c-4.932,0-8.928,3.131-8.928,6.996v19.823   c0.518,0.074,1.049,0.117,1.596,0.117h25.838c4.928,0,8.926-3.133,8.926-6.999V55.115z" fill="#34AEDB"/><path d="   M108.445,51.998c0-3.865,3.996-6.996,8.928-6.996" fill="none" stroke="#14346E" stroke-linecap="round" stroke-linejoin="round" stroke-miterlimit="10" stroke-width="6"/><path d="   M143.211,45.002c4.928,0,8.926,3.131,8.926,6.996V75.03c0,3.863-3.998,6.995-8.926,6.995h-25.838c-4.932,0-8.928-3.132-8.928-6.995   " fill="none" stroke="#14346E" stroke-linecap="round" stroke-linejoin="round" stroke-miterlimit="10" stroke-width="6"/><polyline fill="none" points="   152.137,197.265 165.813,185.421 155.477,132.706  " stroke="#14346E" stroke-linecap="round" stroke-linejoin="round" stroke-miterlimit="10" stroke-width="6"/><polyline fill="none" points="   99.273,189.32 130.291,216.192 138.521,209.063  " stroke="#14346E" stroke-linecap="round" stroke-linejoin="round" stroke-miterlimit="10" stroke-width="6"/><polyline fill="none" points="   116.172,185.034 130.291,197.265 138.521,190.137  " stroke="#14346E" stroke-dasharray="7.9976,16.6616" stroke-linecap="round" stroke-linejoin="round" stroke-miterlimit="10" stroke-width="6"/><line fill="none" stroke="#14346E" stroke-linecap="round" stroke-linejoin="round" stroke-miterlimit="10" stroke-width="6" x1="151.611" x2="147.357" y1="112.992" y2="91.288"/><g><g><line fill="none" stroke="#14346E" stroke-linecap="round" stroke-linejoin="round" stroke-width="6" x1="113.225" x2="112.456" y1="91.288" y2="95.212"/><line fill="none" stroke="#14346E" stroke-dasharray="6.9641,14.5086" stroke-linecap="round" stroke-linejoin="round" stroke-width="6" x1="109.665" x2="98.668" y1="109.449" y2="165.546"/><line fill="none" stroke="#14346E" stroke-linecap="round" stroke-linejoin="round" stroke-width="6" x1="97.273" x2="96.504" y1="172.665" y2="176.589"/></g></g><line fill="none" stroke="#14346E" stroke-linecap="round" stroke-linejoin="round" stroke-miterlimit="10" stroke-width="6" x1="162.092" x2="130.291" y1="123.802" y2="123.802"/></g></svg>