<?xml version="1.0" ?><!DOCTYPE svg  PUBLIC '-//W3C//DTD SVG 1.0//EN'  'http://www.w3.org/TR/2001/REC-SVG-20010904/DTD/svg10.dtd'><svg width="256px" height="256px" viewBox="0 0 256 256" enable-background="new 0 0 256 256" id="Layer_1" version="1.0" xml:space="preserve" xmlns="http://www.w3.org/2000/svg" xmlns:xlink="http://www.w3.org/1999/xlink"><g><path d="M213.637,163.259c2.553-2.027-6.566-10.047-16.588-18.461c-5.639,1.553-14.881,2.313-26.332,6.277   c-42.906,14.846-74.105,16.137-81.066,14.451c4.057,2.799,17.709,12.104,30.783,19.691c1.881,0.678,3.535,1.129,4.889,1.285   c14.75,1.699,31.672-16.428,55.807-23.613C199.234,157.499,209.982,166.163,213.637,163.259z" fill="#00CFDB"/><path d="M162.381,82.149c-10.641-4.635-22.908-7.057-35.979-7.057c-40.641,0-73.588,23.4-73.588,64.047   c0,4.994,2.176,9.443,6.094,13.299c3.643,1.42,7.658,2.662,11.99,3.713c6.947,1.684,38.15,0.4,81.066-14.451   c19.361-6.701,32.412-4.246,32.412-11.936C184.377,109.222,175.955,93.089,162.381,82.149z" fill="#FFCF59"/><path d="   M184.377,129.765c0,7.689-13.051,5.234-32.412,11.936c-42.916,14.852-74.119,16.135-81.066,14.451   c-20.283-4.924-33.709-13.973-33.709-26.387c0-40.645,32.947-64.051,73.592-64.051C151.428,65.714,184.377,89.12,184.377,129.765z" fill="none" stroke="#14346E" stroke-linecap="round" stroke-linejoin="round" stroke-miterlimit="10" stroke-width="6"/><g><g><path d="M92.801,76.485     c-0.393,0.157-1.692,0.711-3.561,1.806" fill="none" stroke="#14346E" stroke-linecap="round" stroke-linejoin="round" stroke-width="6"/><path d="     M77.409,88.184c-6.264,7.08-12.66,17.98-15.425,34.293" fill="none" stroke="#14346E" stroke-dasharray="7.4317,15.4828" stroke-linecap="round" stroke-linejoin="round" stroke-width="6"/><path d="M61,130.164     c-0.116,1.301-0.209,2.631-0.279,3.991" fill="none" stroke="#14346E" stroke-linecap="round" stroke-linejoin="round" stroke-width="6"/></g></g><path d="   M125.299,76.485c0,0,35.834,6.873,39.166,42.08" fill="none" stroke="#14346E" stroke-linecap="round" stroke-linejoin="round" stroke-miterlimit="10" stroke-width="6"/><g><g><path d="M100.688,100.54     c0,0-0.383,1.394-0.889,3.896" fill="none" stroke="#14346E" stroke-linecap="round" stroke-linejoin="round" stroke-width="6"/><path d="     M98.094,115.719c-0.349,3.321-0.616,7.08-0.7,11.164" fill="none" stroke="#14346E" stroke-dasharray="5.4795,11.4156" stroke-linecap="round" stroke-linejoin="round" stroke-width="6"/><path d="M97.402,132.594     c0.031,1.309,0.083,2.643,0.158,3.997" fill="none" stroke="#14346E" stroke-linecap="round" stroke-linejoin="round" stroke-width="6"/></g></g><path d="   M184.469,134.155l-1.846-0.643c-4.164,3.309-15.465,2.932-30.658,8.188c-42.902,14.846-74.102,16.135-81.063,14.453   c6.988,4.82,42.477,28.973,54.42,30.35c14.75,1.699,31.672-16.428,55.807-23.613c18.105-5.391,28.854,3.273,32.508,0.369   C217.289,160.354,197.045,145.19,184.469,134.155z" fill="none" stroke="#14346E" stroke-linecap="round" stroke-linejoin="round" stroke-miterlimit="10" stroke-width="6"/></g></svg>