<?xml version="1.0" ?><!DOCTYPE svg  PUBLIC '-//W3C//DTD SVG 1.0//EN'  'http://www.w3.org/TR/2001/REC-SVG-20010904/DTD/svg10.dtd'><svg width="256px" height="256px" viewBox="0 0 256 256" enable-background="new 0 0 256 256" id="Layer_1" version="1.0" xml:space="preserve" xmlns="http://www.w3.org/2000/svg" xmlns:xlink="http://www.w3.org/1999/xlink"><g><path d="M199.262,171.586c-2.492-15.555-6.529-42.352-7.35-52.389c-0.99-12.135-3.219-31.203-6.436-39.871   c-0.443-1.186-0.93-2.305-1.436-3.363c-3.881-2.561-8.154-7.418-8.154-7.418c-0.098-1.654-0.33-3.08-0.666-4.318   c-3.408-2.643-6.664-6.346-6.664-6.346c-0.025-0.424-0.061-0.83-0.104-1.223c-0.07-0.029-0.143-0.051-0.213-0.078   c0.586,4.111,0.223,9.867-1.672,17.996c-4.209,18.078-15.52,32.822-25.26,31.945c8.018-9.564-0.768-20.547-0.768-20.547   c8.568-6.076,12.766-17.822,11.133-28.877c-0.203,0.066-0.316,0.109-0.316,0.109s1.098,4.486-0.635,9.525   c0,0-3.156,7.586-9.635,7.586s-9.133-7.586-9.133-7.586c-0.537-1.01-0.914-2.33-1.178-3.666c-4.322-1.779-6.152-6.998-6.152-6.998   c-0.037-0.068-0.07-0.148-0.105-0.223c-2.371-0.332-5.215-0.42-7.949,0.281c3.041,21.129,14.084,30.893,17.777,35.33   c2.555,3.063,2.535,8.588-0.867,12.061c-1.545,1.58-3.789,2.736-6.809,3.045c-3.619,0.371-7.488-1.486-11.127-4.906   c0,0-3.496-3.502-6.186-7.674c-3.863-5.996-5.975-10.893-7.947-19.367c-0.152-0.658-0.293-1.295-0.424-1.92   c-3.094,1.395-15.746,8.318-18.135,28.934c-2.725,23.525-1.486,36.404-5.697,55.225c-1.008,4.512-2.471,9.424-3.998,14.414   c4.115,0.305,7.914,0.684,11.242,1.105c-0.344,2.963-0.715,5.613-1.131,7.84c-1.738,9.332-1.846,16.021,0.785,20.137   c0.164-0.156,0.258-0.256,0.258-0.256c4.988,6.475,13.359,9.848,22.725,9.348c8.506-0.457,15.77-8.152,24.879-8.152   s18.59,5.77,25.727,5.326c6.797-0.422,12.418-3.004,16.105-5.25c0,0,0.637,0.895,1.635,2c0.391-0.641,0.865-1.268,1.447-1.877   c8.578-8.965,3.711-25.389,1.732-30.656C182.684,173.037,192.854,172.322,199.262,171.586z" fill="#FFDE58"/><path d="M83.396,179.504c-2.908-0.342-6.129-0.648-9.572-0.904c-2.768,9.033-5.758,18.318-6.707,25.951   c4.91,2.045,9.029,0,9.029,0c2.91-0.543,5.248-2.02,6.662-3.127c-0.125-1.273-0.152-2.658-0.092-4.156   c-1.16-4.098-0.807-9.766,0.553-17.055C83.313,179.984,83.357,179.742,83.396,179.504z" fill="#FF9D00"/><path d="M194.412,207.906c9.389-2.275,8.174-16.84,6.193-28.479c-0.037-0.225-0.08-0.473-0.121-0.715   c-5.896,0.447-10.012,2.494-13.209,0.783c1.965,5.225,4.043,19.42-4.25,28.434C185.377,208.551,189.391,209.125,194.412,207.906z" fill="#FF9D00"/><path d="M116.52,55.795c0,0-0.4-2.242,1.506-4.795c-2.57,0.031-5.316,0.527-7.738,1.955   c-4.518,2.666-8.42,8.914-4.209,26.992c1.973,8.473,4.082,13.371,7.945,19.367c0.605,0.936,1.25,1.836,1.885,2.672   c3.533,3.207,7.262,4.934,10.764,4.576c3.02-0.309,5.264-1.465,6.809-3.045c3.344-3.414,3.414-8.805,0.99-11.898   c-0.168-0.197-0.336-0.406-0.508-0.615C129.92,86.346,119.393,76.463,116.52,55.795z" fill="#FF9D00"/><path d="M166.568,74.576c2.566-11.018,2.326-17.68,0.711-21.785c-6.184-3.279-14.082-1.559-17.271-0.637   c0.322,0.498,0.613,1.035,0.855,1.623c1.945,1.232,4.539,3.527,5.266,7.309c2.195,11.434-3.748,23.889-12.666,30.213   c0,0,2.859,7.055-1.885,14.893C155.037,104.852,163.484,87.824,166.568,74.576z" fill="#FF9D00"/><path d="   M84.385,200.85c-2.975-4.064-2.924-10.922-1.115-20.637c3.137-16.84,3.881-57.996,7.1-74.021" fill="none" stroke="#14346E" stroke-linecap="round" stroke-linejoin="round" stroke-miterlimit="10" stroke-width="6"/><path d="   M171.924,107.531c0,0,2.973,21.391,1.238,37.09c-1.73,15.699,8.668,29.799,8.668,37.492c0,4.475,1.287,11.475-3.258,16.553" fill="none" stroke="#14346E" stroke-linecap="round" stroke-linejoin="round" stroke-miterlimit="10" stroke-width="6"/><path d="   M176.83,66.09c0,0,5.496,5.326,8.715,13.994c3.221,8.668,5.449,27.736,6.439,39.871s6.688,48.783,8.668,60.424   c1.98,11.639,3.195,26.203-6.191,28.479c-8.172,1.98-13.686-0.775-13.686-0.775" fill="none" stroke="#14346E" stroke-linecap="round" stroke-linejoin="round" stroke-miterlimit="10" stroke-width="6"/><path d="   M94.414,62.502c0,0-16.094,5.695-18.82,29.221c-2.725,23.525-1.484,36.404-5.695,55.225s-16.279,44.609-8.42,53.986   c6.936,8.273,14.74,4.373,14.74,4.373" fill="none" stroke="#14346E" stroke-linecap="round" stroke-linejoin="round" stroke-miterlimit="10" stroke-width="6"/><path d="   M115.73,101.676c3.639,3.422,7.504,5.277,11.125,4.906c9.658-0.99,11.391-10.648,7.678-15.105   c-3.715-4.459-14.861-14.299-17.832-35.66" fill="none" stroke="#14346E" stroke-linecap="round" stroke-linejoin="round" stroke-miterlimit="10" stroke-width="6"/><path d="   M122.889,47.326c0,0-9.949-3.893-17.082,0.318c-4.52,2.666-8.42,8.914-4.209,26.992c1.971,8.475,3.736,13.607,7.943,19.365" fill="none" stroke="#14346E" stroke-linecap="round" stroke-linejoin="round" stroke-miterlimit="10" stroke-width="6"/><path d="   M140.723,85.996c8.918-6.324,12.229-17.014,10.924-30.221" fill="none" stroke="#14346E" stroke-linecap="round" stroke-linejoin="round" stroke-miterlimit="10" stroke-width="6"/><path d="   M144.098,47.301c0,0,10.98-4.113,18.939,0.303c4.586,2.545,7.926,8.914,3.717,26.992s-15.602,32.936-25.262,31.947" fill="none" stroke="#14346E" stroke-linecap="round" stroke-linejoin="round" stroke-miterlimit="10" stroke-width="6"/><path d="   M97.5,124.416c0,0-0.592,3.734,0.154,5.455" fill="none" stroke="#14346E" stroke-linecap="round" stroke-linejoin="round" stroke-miterlimit="10" stroke-width="6"/><path d="   M115.658,126.895c0,0-0.592,3.732,0.15,5.453" fill="none" stroke="#14346E" stroke-linecap="round" stroke-linejoin="round" stroke-miterlimit="10" stroke-width="6"/><path d="   M163.393,129.871c0,0,0.59-3.73-0.152-5.455" fill="none" stroke="#14346E" stroke-linecap="round" stroke-linejoin="round" stroke-miterlimit="10" stroke-width="6"/><path d="   M148.566,132.348c0,0,0.592-3.732-0.152-5.453" fill="none" stroke="#14346E" stroke-linecap="round" stroke-linejoin="round" stroke-miterlimit="10" stroke-width="6"/><path d="   M95.502,167.984c0,0-0.592,2.607,0.152,3.809" fill="none" stroke="#14346E" stroke-linecap="round" stroke-linejoin="round" stroke-miterlimit="10" stroke-width="6"/><path d="   M113.658,167.984c0,0-0.592,2.607,0.152,3.809" fill="none" stroke="#14346E" stroke-linecap="round" stroke-linejoin="round" stroke-miterlimit="10" stroke-width="6"/><path d="   M168.057,171.793c0,0,0.592-2.605-0.152-3.809" fill="none" stroke="#14346E" stroke-linecap="round" stroke-linejoin="round" stroke-miterlimit="10" stroke-width="6"/><path d="   M149.9,171.793c0,0,0.592-2.605-0.152-3.809" fill="none" stroke="#14346E" stroke-linecap="round" stroke-linejoin="round" stroke-miterlimit="10" stroke-width="6"/><path d="   M92.57,193.789c0,0-0.682,6.646,0.176,9.713" fill="none" stroke="#14346E" stroke-linecap="round" stroke-linejoin="round" stroke-miterlimit="10" stroke-width="6"/><path d="   M106.955,193.789c0,0-0.682,6.646,0.178,9.713" fill="none" stroke="#14346E" stroke-linecap="round" stroke-linejoin="round" stroke-miterlimit="10" stroke-width="6"/><path d="   M121.34,190.602c0,0-0.682,6.646,0.178,9.711" fill="none" stroke="#14346E" stroke-linecap="round" stroke-linejoin="round" stroke-miterlimit="10" stroke-width="6"/><path d="   M170.318,203.502c0,0,0.684-6.646-0.174-9.713" fill="none" stroke="#14346E" stroke-linecap="round" stroke-linejoin="round" stroke-miterlimit="10" stroke-width="6"/><path d="   M156.6,203.502c0,0,0.684-6.646-0.176-9.713" fill="none" stroke="#14346E" stroke-linecap="round" stroke-linejoin="round" stroke-miterlimit="10" stroke-width="6"/><path d="   M142.881,200.313c0,0,0.684-6.645-0.174-9.711" fill="none" stroke="#14346E" stroke-linecap="round" stroke-linejoin="round" stroke-miterlimit="10" stroke-width="6"/><path d="   M95.502,209.076c0,0-0.592,3.012,0.152,4.4" fill="none" stroke="#14346E" stroke-linecap="round" stroke-linejoin="round" stroke-miterlimit="10" stroke-width="6"/><path d="   M104.58,211.236c0,0-0.592,3.012,0.15,4.398" fill="none" stroke="#14346E" stroke-linecap="round" stroke-linejoin="round" stroke-miterlimit="10" stroke-width="6"/><path d="   M113.658,210.563c0,0-0.592,3.012,0.152,4.398" fill="none" stroke="#14346E" stroke-linecap="round" stroke-linejoin="round" stroke-miterlimit="10" stroke-width="6"/><path d="   M122.736,209.117c0,0-0.59,3.01,0.152,4.4" fill="none" stroke="#14346E" stroke-linecap="round" stroke-linejoin="round" stroke-miterlimit="10" stroke-width="6"/><path d="   M168.057,213.477c0,0,0.592-3.012-0.152-4.4" fill="none" stroke="#14346E" stroke-linecap="round" stroke-linejoin="round" stroke-miterlimit="10" stroke-width="6"/><path d="   M158.979,215.635c0,0,0.592-3.01-0.152-4.398" fill="none" stroke="#14346E" stroke-linecap="round" stroke-linejoin="round" stroke-miterlimit="10" stroke-width="6"/><path d="   M149.9,214.961c0,0,0.592-3.01-0.152-4.398" fill="none" stroke="#14346E" stroke-linecap="round" stroke-linejoin="round" stroke-miterlimit="10" stroke-width="6"/><path d="   M140.82,213.518c0,0,0.59-3.01-0.152-4.4" fill="none" stroke="#14346E" stroke-linecap="round" stroke-linejoin="round" stroke-miterlimit="10" stroke-width="6"/><path d="   M131.479,114.781c0,0,5.855,16.055,2.391,30.48c-9.428,39.256,0.164,58.24,0.164,58.24" fill="none" stroke="#14346E" stroke-linecap="round" stroke-linejoin="round" stroke-miterlimit="10" stroke-width="6"/><path d="   M143.463,56.826c0,0-3.154,7.586-9.635,7.586c-6.477,0-9.133-7.586-9.133-7.586" fill="none" stroke="#14346E" stroke-linecap="round" stroke-linejoin="round" stroke-miterlimit="10" stroke-width="6"/><path d="   M70.709,169.146c0,0,0.662,3.324-0.66,5.293" fill="none" stroke="#14346E" stroke-linecap="round" stroke-linejoin="round" stroke-miterlimit="10" stroke-width="6"/><path d="   M77.645,169.146c0,0,0.66,3.324-0.66,5.293" fill="none" stroke="#14346E" stroke-linecap="round" stroke-linejoin="round" stroke-miterlimit="10" stroke-width="6"/><path d="   M192.551,169.146c0,0-0.664,3.322,0.658,5.293" fill="none" stroke="#14346E" stroke-linecap="round" stroke-linejoin="round" stroke-miterlimit="10" stroke-width="6"/><path d="   M185.615,169.146c0,0-0.66,3.322,0.662,5.293" fill="none" stroke="#14346E" stroke-linecap="round" stroke-linejoin="round" stroke-miterlimit="10" stroke-width="6"/></g></svg>