<?xml version="1.0" ?><!DOCTYPE svg  PUBLIC '-//W3C//DTD SVG 1.0//EN'  'http://www.w3.org/TR/2001/REC-SVG-20010904/DTD/svg10.dtd'><svg width="256px" height="256px" viewBox="0 0 256 256" enable-background="new 0 0 256 256" id="Layer_1" version="1.0" xml:space="preserve" xmlns="http://www.w3.org/2000/svg" xmlns:xlink="http://www.w3.org/1999/xlink"><g><path d="M164.313,167.328c5.67-6.658,16.4-9.514,17.334-9.963c-2.039-1.818-9.27-7.313-11.805-9.485   c-4.938-4.133-9.482-7.882-11.994-9.948c-1.543-1.27-2.934-2.377-4.164-3.603c-1.553-1.282-2.885-2.382-3.889-3.206   c-5.67-4.667-9.301-7.13-10.549-21.441c-1.252-14.309-0.045-36.03-1.082-41.024c-0.605-2.911-1.244-9.297-1.693-14.333   c-9.539,0.814-24.996,2.77-26.27,3.229c-1.85,0.663-0.4,4.063-0.141,8.777c0.215,3.836,4.885,36.143,5.482,52.664   c3.666,2.087,8.797,7.53,11.813,16.23c3.014,8.699,2.439,16.102-2.033,22.154c3.293,2.092,9.018,6.815,14.777,11.839   c5.557,4.507,12.488,10.661,17.822,15.574C158.137,183.129,158.639,173.988,164.313,167.328z" fill="#34AEDB"/><path d="M175.699,163.425c0,0-10.443,9.085-12.746,18.195c-0.416,1.638-0.801,3.944-1.082,5.83   c7.723,3.332,18.879,1.631,23.645-4.414c2.777-3.524,3.721-7.853,3.133-12.163c-1.182-3.271-3.227-6.377-6.006-8.938   c-0.602-0.554-1.256-1.147-1.959-1.774C180.684,160.16,178.553,160.67,175.699,163.425z" fill="#34DBAE"/><path d="   M171.635,189.503c5.955-0.306,11.781-2.603,14.916-6.683c6.113-7.952,3.641-19.549-4.463-26.832s-25.428-21.229-31.555-26.148   c-6.127-4.92-10.041-7.506-11.566-22.804c-1.525-15.296-0.514-38.554-1.689-43.883s-2.588-21.596-2.742-22.767   c-0.059-0.455-1.51-0.449-7.898,0.253" fill="none" stroke="#14346E" stroke-linecap="round" stroke-linejoin="round" stroke-miterlimit="10" stroke-width="6"/><g><g><path d="M120.496,121.542     c0.713,0.993,1.467,2.105,2.225,3.321" fill="none" stroke="#14346E" stroke-linecap="round" stroke-linejoin="round" stroke-width="6"/><path d="M128.324,137.064     c0.372,1.266,0.686,2.566,0.926,3.895" fill="none" stroke="#14346E" stroke-linecap="round" stroke-linejoin="round" stroke-width="6"/></g></g><path d="   M129.979,59.725c0,0-15.658,3.5-22.533,2.354" fill="none" stroke="#14346E" stroke-dasharray="7.9976,16.6616" stroke-linecap="round" stroke-linejoin="round" stroke-miterlimit="10" stroke-width="6"/><path d="M126.779,203.316c4.545-11.867,20.016-22.406,20.016-22.406c2.438-1.85,4.434-2.757,5.707-3.194   c-2.346-2.654-5.115-5.702-8.053-8.882c-5.725-6.078-11.008-11.6-13.926-14.646c-1.791-1.868-3.412-3.506-4.814-5.272   c-1.799-1.887-3.35-3.505-4.516-4.724c-6.59-6.874-10.885-10.598-10.313-29.217c0.572-18.617,5.443-46.404,4.871-52.991   c-0.334-3.842-0.182-12.161,0.002-18.716c-12.402-0.407-32.607-0.248-34.316,0.146c-2.484,0.573-1.135,5.174-1.518,11.283   c-0.311,4.975,0.77,47.287-0.979,68.652c4.4,3.246,10.178,11.037,12.732,22.701c2.555,11.661,0.682,21.106-6,28.218   c3.922,3.195,10.572,10.15,17.219,17.499c6.471,6.652,14.457,15.635,20.576,22.775   C123.998,212.435,125.475,206.729,126.779,203.316z" fill="#34AEDB"/><path d="M146.494,186.761c0,0-14.834,10.105-19.191,21.482c-0.785,2.049-1.633,4.957-2.281,7.345   c9.434,5.466,24.059,4.981,31.117-2.077c4.115-4.115,5.99-9.543,5.893-15.184c-1.023-4.392-3.182-8.704-6.371-12.426   c-0.689-0.805-1.445-1.67-2.252-2.585C153.408,183.316,150.584,183.649,146.494,186.761z" fill="#34DBAE"/><path d="   M145.828,181.429c0,0-14.834,10.104-19.191,21.483" fill="none" stroke="#14346E" stroke-dasharray="7.9976,16.6616" stroke-linecap="round" stroke-linejoin="round" stroke-miterlimit="10" stroke-width="6"/><path d="   M67.914,124.032c-4.01,10.706-11.744,26.747-4.01,35.913c7.736,9.167,14.037,8.021,21.77,14.323   c7.736,6.302,26.068,27.212,34.086,36.951c8.021,9.737,27.795,10.875,36.379,2.291c8.594-8.594,7.447-22.915-1.145-32.94   c-8.594-10.026-27.213-29.504-33.801-36.379c-6.59-6.874-10.885-10.598-10.313-29.217c0.572-18.617,5.443-46.404,4.871-52.991   c-0.572-6.588,0.283-26.353,0.283-27.784c0-1.433-41.445-1.354-43.928-0.781c-2.484,0.572-1.137,5.172-1.518,11.283   S71.926,113.324,67.914,124.032z" fill="none" stroke="#14346E" stroke-linecap="round" stroke-linejoin="round" stroke-miterlimit="10" stroke-width="6"/><path d="   M108.861,59.979c0,0-19.748,1.146-26.625,0" fill="none" stroke="#14346E" stroke-dasharray="7.9976,16.6616" stroke-linecap="round" stroke-linejoin="round" stroke-miterlimit="10" stroke-width="6"/><g><g><path d="M171.314,162.004     c0,0-1.472,0.7-3.378,2.125" fill="none" stroke="#14346E" stroke-linecap="round" stroke-linejoin="round" stroke-width="6"/><path d="M161.401,171.59     c-0.592,1.14-1.085,2.383-1.426,3.731" fill="none" stroke="#14346E" stroke-linecap="round" stroke-linejoin="round" stroke-width="6"/></g></g><path d="   M80.328,124.141c0,0,17.211,21.91,11.84,43.818" fill="none" stroke="#14346E" stroke-dasharray="7.9976,16.6616" stroke-linecap="round" stroke-linejoin="round" stroke-miterlimit="10" stroke-width="6"/></g></svg>