<?xml version="1.0" ?><svg width="64px" height="64px" viewBox="0 0 64 64" xmlns="http://www.w3.org/2000/svg"><g id="Flat"><g id="Color"><path d="M55,13,36.64,44.5l-8.76-5.12L48.62,3Z" fill="#dd051d"/><path d="M36.64,44.5l7-12a17.36,17.36,0,0,0-9.38-4.31L27.88,39.38Z" fill="#a60416"/><path d="M36.12,39.38,27.36,44.5,9,13,15.38,3Z" fill="#dd051d"/><path d="M29.73,28.17a17.36,17.36,0,0,0-9.38,4.31l7,12,8.76-5.12Z" fill="#a60416"/><polygon fill="#a60416" points="21.08 13 42.92 13 48.62 3 15.38 3 21.08 13"/><polygon fill="#111315" points="45.77 8 42.92 13 21.08 13 18.23 8 45.77 8"/><path d="M31.8,41.9l-4.44,2.6L9,13l3.11-4.87Z" fill="#212529"/><polygon fill="#212529" points="55 13 36.64 44.5 32.21 41.91 51.89 8.13 55 13"/><path d="M27.36,44.5l4.44-2.6L24.65,29.64a17.44,17.44,0,0,0-4.3,2.84Z" fill="#111315"/><path d="M39.36,29.64,32.21,41.91l4.43,2.59,7-12A17.67,17.67,0,0,0,39.36,29.64Z" fill="#111315"/><circle cx="32" cy="45.5" fill="#fccd1d" r="15.5"/><circle cx="32" cy="45.5" fill="#f9a215" r="11.39"/><path d="M33.1,39.43l1.21,2.11a1.26,1.26,0,0,0,.85.6l2.43.48a1.22,1.22,0,0,1,.67,2l-1.67,1.78a1.22,1.22,0,0,0-.33,1l.29,2.4a1.26,1.26,0,0,1-1.78,1.27l-2.24-1a1.3,1.3,0,0,0-1.06,0l-2.24,1a1.26,1.26,0,0,1-1.78-1.27l.29-2.4a1.22,1.22,0,0,0-.33-1l-1.67-1.78a1.22,1.22,0,0,1,.67-2l2.43-.48a1.26,1.26,0,0,0,.85-.6l1.21-2.11A1.28,1.28,0,0,1,33.1,39.43Z" fill="#fccd1d"/></g></g></svg>