<?xml version="1.0" ?><svg width="64px" height="64px" viewBox="0 0 64 64" xmlns="http://www.w3.org/2000/svg"><g id="Flat"><g id="Color"><polygon fill="#a60416" points="45 28 27 28 27 56 36 50 45 56 45 28"/><polygon fill="#a60416" points="19 28 37 28 37 56 28 50 19 56 19 28"/><polygon fill="#212529" points="41 33 23 33 23 61 32 55 41 61 41 33"/><path d="M23,42a21.44,21.44,0,0,0,18,0V33H23Z" fill="#111315"/><polygon fill="#dd051d" points="37 33 37 58.33 32 55 27 58.33 27 33 37 33"/><path d="M27,43.39a21.13,21.13,0,0,0,10,0V33H27Z" fill="#a60416"/><circle cx="32" cy="22.5" fill="#fccd1d" r="19.5"/><circle cx="32" cy="22.5" fill="#f9a215" r="14.5"/><path d="M33.37,15l1.52,2.63a1.54,1.54,0,0,0,1.06.76L39,19a1.53,1.53,0,0,1,.85,2.56l-2.1,2.22a1.5,1.5,0,0,0-.4,1.22l.36,3a1.57,1.57,0,0,1-2.22,1.58l-2.81-1.27a1.6,1.6,0,0,0-1.32,0l-2.81,1.27A1.57,1.57,0,0,1,26.31,28l.36-3a1.5,1.5,0,0,0-.4-1.22l-2.1-2.22A1.53,1.53,0,0,1,25,19l3-.59a1.54,1.54,0,0,0,1.06-.76L30.63,15A1.59,1.59,0,0,1,33.37,15Z" fill="#fccd1d"/></g></g></svg>