<?xml version="1.0" ?><svg width="64px" height="64px" viewBox="0 0 64 64" xmlns="http://www.w3.org/2000/svg"><g id="Flat"><g id="Color"><polygon fill="#212529" points="22.94 30.38 35.06 37.38 21.06 61.62 18 52.93 8.94 54.62 22.94 30.38"/><path d="M18.06,38.83A21.31,21.31,0,0,0,31.26,44l3.8-6.58-12.12-7Z" fill="#111315"/><polygon fill="#212529" points="41.06 30.38 28.94 37.38 42.94 61.62 46 52.93 55.06 54.62 41.06 30.38"/><path d="M32.74,44a21.31,21.31,0,0,0,13.2-5.13l-4.88-8.45-12.12,7Z" fill="#111315"/><polygon fill="#dd051d" points="31.58 35.37 19.31 56.65 18 52.93 14.11 53.66 26.4 32.38 31.58 35.37"/><polygon fill="#dd051d" points="49.9 53.66 46 52.93 44.69 56.66 32.42 35.37 37.6 32.38 49.9 53.66"/><path d="M21.34,41.14A21.17,21.17,0,0,0,27,43.38l4.62-8-5.18-3Z" fill="#a60416"/><path d="M37.6,32.38l-5.18,3,4.62,8a21,21,0,0,0,5.62-2.24Z" fill="#a60416"/><circle cx="32" cy="22.5" fill="#fccd1d" r="19.5"/><circle cx="32" cy="22.5" fill="#f9a215" r="14.5"/><path d="M33.37,15l1.52,2.63a1.54,1.54,0,0,0,1.06.76L39,19a1.53,1.53,0,0,1,.85,2.56l-2.1,2.22a1.5,1.5,0,0,0-.4,1.22l.36,3a1.57,1.57,0,0,1-2.22,1.58l-2.81-1.27a1.6,1.6,0,0,0-1.32,0l-2.81,1.27A1.57,1.57,0,0,1,26.31,28l.36-3a1.5,1.5,0,0,0-.4-1.22l-2.1-2.22A1.53,1.53,0,0,1,25,19l3-.59a1.54,1.54,0,0,0,1.06-.76L30.63,15A1.59,1.59,0,0,1,33.37,15Z" fill="#fccd1d"/></g></g></svg>