<?xml version="1.0" ?><svg width="64px" height="64px" viewBox="0 0 64 64" xmlns="http://www.w3.org/2000/svg"><g id="Flat"><g id="Color"><polygon fill="#111315" points="20 20 32 32 39 3 24 3 20 20"/><polygon fill="#a60416" points="34.89 3 28.68 28.68 23.33 23.33 28.11 3 34.89 3"/><polygon fill="#212529" points="44 20 32 32 25 3 40 3 44 20"/><polygon fill="#dd051d" points="40.67 23.33 35.32 28.68 29.11 3 35.89 3 40.67 23.33"/><path d="M34,39.6l2.22,3.87a2.33,2.33,0,0,0,1.56,1.11l4.45.87A2.25,2.25,0,0,1,43.5,49.2l-3.08,3.26a2.24,2.24,0,0,0-.6,1.8l.53,4.41A2.3,2.3,0,0,1,37.09,61L33,59.13a2.42,2.42,0,0,0-1.94,0L26.91,61a2.3,2.3,0,0,1-3.26-2.32l.53-4.41a2.24,2.24,0,0,0-.6-1.8L20.5,49.2a2.25,2.25,0,0,1,1.25-3.75l4.45-.87a2.33,2.33,0,0,0,1.56-1.11L30,39.6A2.34,2.34,0,0,1,34,39.6Z" fill="#fccd1d"/><path d="M32,31a4,4,0,1,0,4,4A4,4,0,0,0,32,31Zm0,6a2,2,0,1,1,2-2A2,2,0,0,1,32,37Z" fill="#f9a215"/></g></g></svg>