<?xml version="1.0" ?><svg width="64px" height="64px" viewBox="0 0 64 64" xmlns="http://www.w3.org/2000/svg"><g id="Flat"><g id="Color"><circle cx="32" cy="45.5" fill="#fccd1d" r="15.5"/><polygon fill="#212529" points="41 23.71 32 29 23 23.71 23 3 41 3 41 23.71"/><polygon fill="#dd051d" points="37 3 37 26.06 32 29 27 26.06 27 3 37 3"/><circle cx="32" cy="45.5" fill="#f9a215" r="11.39"/><path d="M33.1,39.43l1.21,2.11a1.26,1.26,0,0,0,.85.6l2.43.48a1.22,1.22,0,0,1,.67,2l-1.67,1.78a1.22,1.22,0,0,0-.33,1l.29,2.4a1.26,1.26,0,0,1-1.78,1.27l-2.24-1a1.3,1.3,0,0,0-1.06,0l-2.24,1a1.26,1.26,0,0,1-1.78-1.27l.29-2.4a1.22,1.22,0,0,0-.33-1l-1.67-1.78a1.22,1.22,0,0,1,.67-2l2.43-.48a1.26,1.26,0,0,0,.85-.6l1.21-2.11A1.28,1.28,0,0,1,33.1,39.43Z" fill="#fccd1d"/></g></g></svg>