<?xml version="1.0" ?><svg width="1333.3333px" height="1333.3333px" viewBox="0 0 1333.3333 1333.3333" id="svg2" version="1.1" xml:space="preserve" xmlns="http://www.w3.org/2000/svg" xmlns:inkscape="http://www.inkscape.org/namespaces/inkscape" xmlns:sodipodi="http://sodipodi.sourceforge.net/DTD/sodipodi-0.dtd" xmlns:svg="http://www.w3.org/2000/svg"><defs id="defs6"/><g id="g8" transform="matrix(1.3333333,0,0,-1.3333333,0,1333.3333)"><g id="g10" transform="scale(0.1)"><path d="M 9196.04,1123.98 H 751.453 V 998.02 H 9196.04 v 125.96" id="path12" style="fill:#e3edf5;fill-opacity:1;fill-rule:nonzero;stroke:none"/><path d="m 1268.46,1748.51 c 0,0 233.33,599.28 993.34,881.63 597.1,221.82 1457.29,-326.57 1457.29,-326.57 0,0 -749.46,-357.68 -1193.45,-361.59 -657.77,-5.79 -1257.18,-193.47 -1257.18,-193.47" id="path14" style="fill:#bdffd8;fill-opacity:1;fill-rule:nonzero;stroke:none"/><path d="m 2047.34,4560.01 c 0,0 365.2,-658.27 1040.4,-1345.99 759.33,-773.4 459.06,-1350.83 459.06,-1350.83 0,0 -1208.38,115.82 -1583.98,959.36 -298.82,671.11 84.52,1737.46 84.52,1737.46" id="path16" style="fill:#dcf5f9;fill-opacity:1;fill-rule:nonzero;stroke:none"/><path d="m 8027.59,5880.44 c -2.46,12.66 -14.71,20.92 -27.37,18.46 -12.67,-2.48 -20.91,-14.73 -18.45,-27.37 0.65,-3.35 65.04,-340.37 63.68,-868.18 -1.25,-487.5 -60.54,-1241.22 -335.88,-2063.53 C 7463.52,2205 7095.38,1722.51 6735.26,1427.36 h 249.07 c 315,293.57 607.02,708.57 852.5,1441.66 277.32,828.23 292.83,1669.17 294.1,2160.11 1.37,532.32 -102.68,847.93 -103.34,851.31" id="path18" style="fill:#bcf7e2;fill-opacity:1;fill-rule:nonzero;stroke:none"/><path d="m 8074.17,4353.54 c -33.2,271.95 103.22,772.34 396.56,986.48 250.32,182.74 372.14,379.54 372.14,379.54 0,0 54.53,-221.47 30.22,-491.41 -16.36,-181.5 -160.69,-410.61 -334.4,-491.81 -308.9,-144.39 -464.52,-382.8 -464.52,-382.8" id="path20" style="fill:#bcf7e2;fill-opacity:1;fill-rule:nonzero;stroke:none"/><path d="m 8045.75,5554.19 c -139.72,333.98 -312.05,532.21 -267.49,875.7 33.73,259.96 -9.95,582.18 -9.95,582.18 0,0 216.75,-147.43 356.62,-346.99 126.32,-180.24 155.34,-410.93 93.11,-598.12 -44.83,-134.91 -172.29,-512.77 -172.29,-512.77" id="path22" style="fill:#bcf7e2;fill-opacity:1;fill-rule:nonzero;stroke:none"/><path d="m 7784.63,2809.69 c 137.36,419.98 284.66,1164.33 600.18,1451.77 360.06,328 573.84,325.06 751.86,553.53 0,0 12.2,-218.4 -28.97,-582.55 -37.18,-328.9 -248.11,-924.63 -587.05,-1033.02 -422.67,-135.17 -736.02,-389.73 -736.02,-389.73" id="path24" style="fill:#bcf7e2;fill-opacity:1;fill-rule:nonzero;stroke:none"/><path d="m 7373.77,6194.26 c 222.03,-427.02 797.67,-826.12 679.78,-1670.54 0,0 -209.45,289.07 -386.5,393.87 -258.94,153.27 -357.38,448.65 -361.7,745.02 -3.11,213.57 68.42,531.65 68.42,531.65" id="path26" style="fill:#bcf7e2;fill-opacity:1;fill-rule:nonzero;stroke:none"/><path d="m 9259.33,2660.69 c -573.33,-401.5 -540,-644.87 -1416.21,-822.57 -596.2,-120.92 -777.35,-377.4 -777.35,-377.4 0,0 291.52,540.84 525.22,829.27 151.55,187.05 385.97,410.22 870.51,477.37 314.48,43.58 797.83,-106.67 797.83,-106.67" id="path28" style="fill:#bcf7e2;fill-opacity:1;fill-rule:nonzero;stroke:none"/><path d="m 7199.5,1792.75 c -252.04,507.04 -403.91,972.15 -440.77,1267.42 -55.53,444.75 68.44,811.12 68.44,811.12 0,0 0.81,-79.94 333.71,-286.83 300.67,-186.86 436.72,-403.95 458.06,-752 24.4,-397.86 -419.44,-1039.71 -419.44,-1039.71" id="path30" style="fill:#bcf7e2;fill-opacity:1;fill-rule:nonzero;stroke:none"/><path d="m 7853.33,3175.29 c -228.05,427.88 -581.2,564.14 -618.12,1039.24 -29.74,382.64 -276.83,600.46 -276.83,600.46 0,0 395.83,-34.7 685.79,-203.7 261.9,-152.64 296.47,-328.97 349.71,-622.77 72.64,-400.86 -140.55,-813.23 -140.55,-813.23" id="path32" style="fill:#bcf7e2;fill-opacity:1;fill-rule:nonzero;stroke:none"/><path d="m 4564.86,1127.32 2493.68,-20.3 c 68.04,-0.58 123.66,54.12 124.23,122.16 l 44.58,5302.43 c 0.57,68.04 -54.12,123.66 -122.17,124.24 l -2493.67,20.3 c -68.04,0.57 -123.66,-54.12 -124.23,-122.16 L 4442.7,1251.55 c -0.57,-68.04 54.12,-123.66 122.16,-124.23" id="path34" style="fill:#4acfd3;fill-opacity:1;fill-rule:nonzero;stroke:none"/><path d="m 4403.29,1128.4 2493.67,-20.3 c 68.04,-0.58 123.67,54.12 124.24,122.16 l 44.57,5302.43 c 0.58,68.05 -54.12,123.67 -122.16,124.24 l -2493.68,20.3 c -68.03,0.57 -123.66,-54.12 -124.23,-122.16 l -44.57,-5302.43 c -0.58,-68.05 54.12,-123.67 122.16,-124.24" id="path36" style="fill:#8ceae7;fill-opacity:1;fill-rule:nonzero;stroke:none"/><path d="m 4285.12,1726.83 -820.15,6.67 1.18,140.5 c 51.18,-7.98 80.65,-10.81 80.65,-10.81 0,0 75.49,145.14 55.05,387.4 73.13,31.93 117.24,52.98 117.24,52.98 0,0 -51,32.51 -136.76,78.5 -19.72,93.19 -53.9,196.66 -109.34,308.56 l 44.51,5311.29 3389.37,-27.57 -11.04,-1316.8 -230.7,1.88 1.31,219.89 v 1.45 c 0.01,39.29 -9.65,76.85 -26.94,110.74 -25.95,50.88 -68.85,93.58 -122.25,123.69 -53.43,30.11 -117.49,47.7 -186.32,48.11 l -1274.26,7.58 -2.45,0.01 c -91.51,-0.02 -174.79,-30.42 -235.88,-80.57 -30.54,-25.09 -55.53,-55.17 -72.99,-88.93 -17.47,-33.74 -27.33,-71.2 -27.55,-110.47 l -1.25,-208.83 -5.9,-6.76 -99.14,0.81 c -0.35,0 -0.7,0 -1.06,0 -2.2,0 -4.39,-0.06 -6.57,-0.17 l -153.95,1.25 c -0.34,0.01 -0.7,0.01 -1.05,0.01 -67.56,0 -122.61,-54.48 -123.18,-122.17 l -2.73,-324.49 -23.12,-26.53 22.89,-1.13 -18.91,-2249.18 -245.93,1.47 h 0.1 v 0 c -0.93,0 -1.78,0 -2.56,0 -91.65,-0.02 -175.06,-30.47 -236.25,-80.7 -30.58,-25.12 -55.61,-55.25 -73.1,-89.06 -17.49,-33.79 -27.37,-71.3 -27.59,-110.64 l -4.6,-771.6 0.01,0.11 -0.01,-1.54 c -0.01,-39.35 9.66,-76.96 26.98,-110.91 25.99,-50.96 68.96,-93.73 122.45,-123.89 53.51,-30.15 117.67,-47.77 186.62,-48.19 l 242.65,-1.44 -7.48,-890.52 m 2340.02,4932.93 -1868.63,15.21 1.28,215.72 c 0.21,32.74 8.34,63.8 23.09,92.34 22.09,42.76 59.27,79.78 106.64,106.07 47.34,26.3 104.73,41.8 166.67,41.8 0.02,0 0.02,0 0.03,0 l 2.2,-0.01 1274.27,-7.58 c 82.87,-0.47 157.39,-28.66 210.64,-73 26.63,-22.16 47.93,-48.3 62.54,-76.96 14.6,-28.68 22.57,-59.84 22.57,-92.58 v -1.22 l -1.3,-219.79" id="path38" style="fill:#eaf9fc;fill-opacity:1;fill-rule:nonzero;stroke:none"/><path d="m 3601.85,2250.59 c -3.47,41.1 -9.69,85.01 -19.52,131.48 85.76,-45.99 136.76,-78.5 136.76,-78.5 0,0 -44.11,-21.05 -117.24,-52.98" id="path40" style="fill:#d0f9ec;fill-opacity:1;fill-rule:nonzero;stroke:none"/><path d="m 3546.8,1863.19 c 0,0 -29.47,2.83 -80.65,10.81 l 6.84,816.63 c 55.44,-111.9 89.62,-215.37 109.34,-308.56 9.83,-46.47 16.05,-90.38 19.52,-131.48 20.44,-242.26 -55.05,-387.4 -55.05,-387.4" id="path42" style="fill:#dcf5f9;fill-opacity:1;fill-rule:nonzero;stroke:none"/><path d="m 6895.83,6657.32 -230.7,1.88 v 0.23 l 230.7,-1.88 v -0.23 m -270.7,2.21 -1868.62,15.21 v 0.23 l 1868.63,-15.21 -0.01,-0.23 m -1914.67,15.58 -106.58,0.87 c 2.18,0.11 4.37,0.17 6.57,0.17 0.36,0 0.71,0 1.06,0 l 99.14,-0.81 -0.19,-0.23" id="path44" style="fill:#a2e6ea;fill-opacity:1;fill-rule:nonzero;stroke:none"/><path d="m 4292.94,2657.34 -242.76,1.45 c -83.01,0.47 -157.67,28.72 -211.01,73.14 -26.68,22.2 -48.02,48.39 -62.65,77.1 -14.63,28.73 -22.61,59.95 -22.62,92.75 v 1.09 0.23 l 4.6,771.47 c 0.2,32.8 8.35,63.92 23.12,92.51 22.14,42.84 59.38,79.92 106.83,106.26 47.42,26.34 104.91,41.87 166.96,41.87 0.01,0 0.02,0 0.03,0 h 2.12 0.1 l 245.84,-1.47 -5.09,-604.91 -70.71,0.42 -0.24,-40 70.62,-0.42 -5.14,-611.49 m -177.75,652.58 -0.24,-40 23.88,-0.14 0.23,40 -23.87,0.14" id="path46" style="fill:#eaf9fc;fill-opacity:1;fill-rule:nonzero;stroke:none"/><path d="m 6854.34,1705.93 -2569.22,20.9 7.48,890.52 1033.71,-6.15 h 0.06 l 2.4,-0.01 c 91.65,0.02 175.06,30.48 236.24,80.7 30.59,25.13 55.62,55.25 73.11,89.06 17.49,33.79 27.37,71.31 27.59,110.65 l 0.37,62.01 419.02,-9.55 -27.45,33.63 -15.49,-12.65 0.46,20 -0.46,-20 15.49,12.65 -388.59,476.1 1.25,209.4 v 0.12 1.31 c 0.01,39.36 -9.66,76.97 -26.98,110.92 -25.99,50.96 -68.96,93.72 -122.45,123.88 -53.51,30.16 -117.67,47.78 -186.61,48.19 l -1030.44,6.13 18.91,2249.18 18.3,-0.9 372.54,-18.36 -0.37,-63.07 v 0.05 l -0.01,-1.48 c -0.01,-39.3 9.65,-76.85 26.94,-110.75 25.96,-50.87 68.86,-93.57 122.26,-123.68 53.43,-30.11 117.49,-47.7 186.33,-48.11 l 1274.26,-7.59 h 2.45 c 91.51,0.02 174.78,30.42 235.87,80.57 30.54,25.09 55.54,55.17 73,88.93 17.46,33.73 27.33,71.19 27.55,110.47 l 3.27,550.2 230.7,-1.88 -41.49,-4951.39 M 4875.59,5340.17 c -78.39,0 -142.29,-63.23 -142.95,-141.77 l -5.28,-628.91 c -0.66,-78.96 62.81,-143.51 141.77,-144.17 l 1624.82,-13.66 c 0.41,0 0.81,0 1.23,0 78.39,0 142.28,63.22 142.94,141.77 l 5.29,628.9 c 0.66,78.96 -62.81,143.51 -141.77,144.17 l -1624.82,13.67 c -0.42,0 -0.82,0 -1.23,0 M 5328.8,2651.19 c -0.01,0 -0.02,0 -0.03,0 l -2.27,0.01 h 0.05 l -1033.61,6.14 5.14,611.49 18.02,-0.11 0.24,40 -17.93,0.11 5.09,604.91 1030.53,-6.13 c 83.01,-0.47 157.67,-28.71 211.01,-73.13 26.68,-22.2 48.02,-48.39 62.65,-77.1 14.63,-28.73 22.61,-59.95 22.62,-92.76 v -1.31 0.12 l -1.33,-223.79 370.24,-453.61 -372.9,8.49 -0.61,-102.69 c -0.2,-32.8 -8.35,-63.92 -23.12,-92.5 -22.14,-42.84 -59.38,-79.92 -106.83,-106.27 -47.42,-26.33 -104.91,-41.87 -166.96,-41.87 m -214.69,652.78 -0.24,-39.99 88.64,-0.53 0.24,40 -88.64,0.52 m -177.28,1.06 -0.24,-40 88.64,-0.53 0.24,40 -88.64,0.53 m -177.29,1.05 -0.23,-40 88.64,-0.52 0.24,40 -88.65,0.52 m -177.28,1.06 -0.23,-40 88.64,-0.53 0.24,40 -88.65,0.53 m -177.28,1.05 -0.24,-40 88.65,-0.52 0.23,40 -88.64,0.52 m 1920.49,2560.84 c -0.01,0 -0.01,0 -0.03,0 h -2.24 l -1274.23,7.59 c -82.88,0.47 -157.4,28.66 -210.65,73 -26.63,22.16 -47.93,48.3 -62.54,76.96 -14.6,28.68 -22.57,59.83 -22.58,92.58 l 0.01,1.15 v 0.04 l 0.6,101.38 -369.61,18.21 372.26,427.08 0.05,7.72 1868.62,-15.21 -3.27,-550.29 c -0.2,-32.74 -8.34,-63.81 -23.08,-92.34 -22.1,-42.76 -59.28,-79.78 -106.64,-106.07 -47.34,-26.29 -104.73,-41.8 -166.67,-41.8 m -449.08,421.72 -0.24,-40 88.64,-0.52 0.24,40 -88.64,0.52 m -177.28,1.06 -0.24,-40 88.64,-0.53 0.24,40 -88.64,0.53 m -177.28,1.05 -0.24,-40 88.64,-0.52 0.24,39.99 -88.64,0.53 m -177.28,1.06 -0.24,-40 88.64,-0.53 0.24,40 -88.64,0.53 m -177.28,1.05 -0.24,-40 88.64,-0.53 0.24,40 -88.64,0.53 m 896.72,312.03 -0.23,-40 88.64,-0.52 0.23,40 -88.64,0.52 m -177.28,1.06 -0.23,-40 88.64,-0.53 0.24,40 -88.65,0.53 m -177.28,1.05 -0.23,-40 88.64,-0.52 0.23,40 -88.64,0.52 m -177.28,1.06 -0.24,-40 88.64,-0.53 0.24,40 -88.64,0.53 m -177.28,1.05 -0.24,-40 88.64,-0.52 0.24,39.99 -88.64,0.53 m -177.28,1.06 -0.24,-40 88.64,-0.53 0.24,40 -88.64,0.53 m -854.62,-381.7 2.73,324.49 c 0.57,67.69 55.62,122.17 123.18,122.17 0.35,0 0.71,0 1.05,-0.01 l 153.95,-1.25 106.58,-0.87 -387.49,-444.53" id="path48" style="fill:#bcf1f2;fill-opacity:1;fill-rule:nonzero;stroke:none"/><path d="m 4292.6,2617.35 -242.65,1.44 c -68.95,0.42 -133.11,18.04 -186.62,48.19 -53.49,30.16 -96.46,72.93 -122.45,123.89 -17.32,33.95 -26.99,71.56 -26.98,110.91 l 0.01,1.54 -0.01,-0.11 4.6,771.6 c 0.22,39.34 10.1,76.85 27.59,110.64 17.49,33.81 42.52,63.94 73.1,89.06 61.19,50.23 144.6,80.68 236.25,80.7 0.78,0 1.63,0 2.56,0 h -0.1 l 245.93,-1.47 -0.33,-40 -245.84,1.47 h -0.1 -2.12 c -0.01,0 -0.02,0 -0.03,0 -62.05,0 -119.54,-15.53 -166.96,-41.87 -47.45,-26.34 -84.69,-63.42 -106.83,-106.26 -14.77,-28.59 -22.92,-59.71 -23.12,-92.51 l -4.6,-771.47 v -0.23 -1.09 c 0.01,-32.8 7.99,-64.02 22.62,-92.75 14.63,-28.71 35.97,-54.9 62.65,-77.1 53.34,-44.42 128,-72.67 211.01,-73.14 l 242.76,-1.45 -0.34,-39.99" id="path50" style="fill:#f7fdfe;fill-opacity:1;fill-rule:nonzero;stroke:none"/><path d="m 5328.77,2611.19 -2.4,0.01 h -0.06 l -1033.71,6.15 0.34,39.99 1033.61,-6.14 h -0.05 l 2.27,-0.01 c 0.01,0 0.02,0 0.03,0 62.05,0 119.54,15.54 166.96,41.87 47.45,26.35 84.69,63.43 106.83,106.27 14.77,28.58 22.92,59.7 23.12,92.5 l 0.61,102.69 372.9,-8.49 -370.24,453.61 1.33,223.79 v -0.12 1.31 c -0.01,32.81 -7.99,64.03 -22.62,92.76 -14.63,28.71 -35.97,54.9 -62.65,77.1 -53.34,44.42 -128,72.66 -211.01,73.13 l -1030.53,6.13 0.33,40 1030.44,-6.13 c 68.94,-0.41 133.1,-18.03 186.61,-48.19 53.49,-30.16 96.46,-72.92 122.45,-123.88 17.32,-33.95 26.99,-71.56 26.98,-110.92 v -1.31 -0.12 l -1.25,-209.4 388.59,-476.1 -15.49,-12.65 0.46,20 -0.46,-20 15.49,12.65 27.45,-33.63 -419.02,9.55 -0.37,-62.01 c -0.22,-39.34 -10.1,-76.86 -27.59,-110.65 -17.49,-33.81 -42.52,-63.93 -73.11,-89.06 -61.18,-50.22 -144.59,-80.68 -236.24,-80.7" id="path52" style="fill:#e4f9fa;fill-opacity:1;fill-rule:nonzero;stroke:none"/><path d="m 5202.51,3263.45 -88.64,0.53 0.24,39.99 88.64,-0.52 -0.24,-40 m -177.28,1.05 -88.64,0.53 0.24,40 88.64,-0.53 -0.24,-40 m -177.28,1.06 -88.64,0.52 0.23,40 88.65,-0.52 -0.24,-40 m -177.28,1.05 -88.64,0.53 0.23,40 88.65,-0.53 -0.24,-40 m -177.28,1.06 -88.65,0.52 0.24,40 88.64,-0.52 -0.23,-40" id="path54" style="fill:#e4f9fa;fill-opacity:1;fill-rule:nonzero;stroke:none"/><path d="m 4298.08,3268.83 -70.62,0.42 0.24,40 70.71,-0.42 -0.33,-40" id="path56" style="fill:#f7fdfe;fill-opacity:1;fill-rule:nonzero;stroke:none"/><path d="m 4316.1,3268.72 -18.02,0.11 0.33,40 17.93,-0.11 -0.24,-40" id="path58" style="fill:#e4f9fa;fill-opacity:1;fill-rule:nonzero;stroke:none"/><path d="m 4138.83,3269.78 -23.88,0.14 0.24,40 23.87,-0.14 -0.23,-40" id="path60" style="fill:#f7fdfe;fill-opacity:1;fill-rule:nonzero;stroke:none"/><path d="m 4322.74,6202.92 -22.89,1.13 23.12,26.53 -0.23,-27.66 m 2342.39,456.51 -39.99,0.33 1.3,219.79 v 1.22 c 0,32.74 -7.97,63.9 -22.57,92.58 -14.61,28.66 -35.91,54.8 -62.54,76.96 -53.25,44.34 -127.77,72.53 -210.64,73 l -1274.27,7.58 -2.2,0.01 c -0.01,0 -0.01,0 -0.03,0 -61.94,0 -119.33,-15.5 -166.67,-41.8 -47.37,-26.29 -84.55,-63.31 -106.64,-106.07 -14.75,-28.54 -22.88,-59.6 -23.09,-92.34 l -1.28,-215.72 -45.86,0.37 5.9,6.76 1.25,208.83 c 0.22,39.27 10.08,76.73 27.55,110.47 17.46,33.76 42.45,63.84 72.99,88.93 61.09,50.15 144.37,80.55 235.88,80.57 l 2.45,-0.01 1274.26,-7.58 c 68.83,-0.41 132.89,-18 186.32,-48.11 53.4,-30.11 96.3,-72.81 122.25,-123.69 17.29,-33.89 26.95,-71.45 26.94,-110.74 v -1.45 l -1.31,-219.89" id="path62" style="fill:#f7fdfe;fill-opacity:1;fill-rule:nonzero;stroke:none"/><path d="m 6665.13,6659.2 -40,0.33 0.01,0.23 39.99,-0.33 v -0.23 m -1908.62,15.54 -46.05,0.37 0.19,0.23 45.86,-0.37 v -0.23" id="path64" style="fill:#daf5f7;fill-opacity:1;fill-rule:nonzero;stroke:none"/><path d="m 6325.44,5829.03 h -2.45 l -1274.26,7.59 c -68.84,0.41 -132.9,18 -186.33,48.11 -53.4,30.11 -96.3,72.81 -122.26,123.68 -17.29,33.9 -26.95,71.45 -26.94,110.75 l 0.01,1.48 v -0.05 l 0.37,63.07 -372.54,18.36 -18.3,0.9 0.23,27.66 387.49,444.53 46.05,-0.37 -0.05,-7.72 -372.26,-427.08 369.61,-18.21 -0.6,-101.38 v -0.04 l -0.01,-1.15 c 0.01,-32.75 7.98,-63.9 22.58,-92.58 14.61,-28.66 35.91,-54.8 62.54,-76.96 53.25,-44.34 127.77,-72.53 210.65,-73 l 1274.23,-7.59 h 2.24 c 0.02,0 0.02,0 0.03,0 61.94,0 119.33,15.51 166.67,41.8 47.36,26.29 84.54,63.31 106.64,106.07 14.74,28.53 22.88,59.6 23.08,92.34 l 3.27,550.29 40,-0.33 -3.27,-550.2 c -0.22,-39.28 -10.09,-76.74 -27.55,-110.47 -17.46,-33.76 -42.46,-63.84 -73,-88.93 -61.09,-50.15 -144.36,-80.55 -235.87,-80.57" id="path66" style="fill:#e4f9fa;fill-opacity:1;fill-rule:nonzero;stroke:none"/><path d="m 6152.4,6566.48 -88.64,0.52 0.23,40 88.64,-0.52 -0.23,-40 m -177.28,1.05 -88.64,0.53 0.23,40 88.65,-0.53 -0.24,-40 m -177.28,1.06 -88.64,0.52 0.23,40 88.64,-0.52 -0.23,-40 m -177.29,1.05 -88.64,0.53 0.24,40 88.64,-0.53 -0.24,-40 m -177.28,1.06 -88.64,0.52 0.24,40 88.64,-0.53 -0.24,-39.99 m -177.28,1.05 -88.64,0.53 0.24,40 88.64,-0.53 -0.24,-40" id="path68" style="fill:#e4f9fa;fill-opacity:1;fill-rule:nonzero;stroke:none"/><path d="m 5964.79,6250.23 -88.64,0.52 0.24,40 88.64,-0.52 -0.24,-40 m -177.28,1.05 -88.64,0.53 0.24,40 88.64,-0.53 -0.24,-40 m -177.28,1.06 -88.64,0.52 0.24,40 88.64,-0.53 -0.24,-39.99 m -177.28,1.05 -88.64,0.53 0.24,40 88.64,-0.53 -0.24,-40 m -177.28,1.05 -88.64,0.53 0.24,40 88.64,-0.53 -0.24,-40" id="path70" style="fill:#e4f9fa;fill-opacity:1;fill-rule:nonzero;stroke:none"/><path d="m 6495.18,4411.66 c -0.42,0 -0.82,0 -1.23,0 l -1624.82,13.66 c -78.96,0.66 -142.43,65.21 -141.77,144.17 l 5.28,628.91 c 0.66,78.54 64.56,141.77 142.95,141.77 0.41,0 0.81,0 1.23,0 l 1624.82,-13.67 c 78.96,-0.66 142.43,-65.21 141.77,-144.17 l -5.29,-628.9 c -0.66,-78.55 -64.55,-141.77 -142.94,-141.77" id="path72" style="fill:#cff3f6;fill-opacity:1;fill-rule:nonzero;stroke:none"/><path d="m 5818.22,1298.32 -324.33,2.18 c -28.16,0.19 -50.85,23.17 -50.66,51.34 l 0.22,32.16 c 0.19,28.16 23.17,50.84 51.34,50.65 l 324.33,-2.17 c 28.16,-0.19 50.84,-23.18 50.65,-51.34 l -0.21,-32.16 c -0.19,-28.16 -23.18,-50.85 -51.34,-50.66" id="path74" style="fill:#92ffdd;fill-opacity:1;fill-rule:nonzero;stroke:none"/><path d="m 3327.31,2283.03 -995.43,-122.16 c 0,0 1347.53,-869.57 1625.26,-869.57 306.93,0 1314.3,488.04 1314.3,488.04 l -806.68,520.82 -1137.45,-17.13" id="path76" style="fill:#004381;fill-opacity:1;fill-rule:nonzero;stroke:none"/><path d="m 4414.17,3065.33 462.85,-668.28 c 0,0 -95.02,-159.84 -100.32,-198.94 -37.03,-273.19 127.16,-310.9 212.51,-275.82 148.43,61.02 376.84,436.6 351.78,502.49 -164.13,431.71 -325.19,842.3 -515.19,1251.15 -29.08,62.58 -83.17,215.71 -123.18,175.32 -97,-97.93 -289.02,-944.06 -288.45,-785.92" id="path78" style="fill:#00d0bc;fill-opacity:1;fill-rule:nonzero;stroke:none"/><path d="m 3562.94,3084.58 -526.89,-532.35 c 0,0 100.54,-139.15 56,-294.29 -10.19,-35.5 -95.4,-145.93 -193.89,-153.48 -165.11,-12.66 -403.17,275.34 -360.08,483.41 93.39,450.97 420.44,748.93 602.33,1161.21 40.78,92.43 130.25,211.45 165.63,178.44 100.93,-94.16 257.47,-1001.07 256.9,-842.94" id="path80" style="fill:#00d0bc;fill-opacity:1;fill-rule:nonzero;stroke:none"/><path d="m 2077.31,1863.19 -17.81,-274.03 c 0,0 516.08,-358.78 766.31,-459.11 97.43,-39.06 919.12,-148.359 919.12,-148.359 l 80.02,326.699 -1747.64,554.8" id="path82" style="fill:#004381;fill-opacity:1;fill-rule:nonzero;stroke:none"/><path d="m 3874.96,1396.87 906.98,-259.29 -3.53,-300.049 c 0,0 -422.04,17.559 -549.57,29.5 -81.1,7.59 -462.52,65.91 -462.52,65.91 l 108.64,463.929" id="path84" style="fill:#ffd0ce;fill-opacity:1;fill-rule:nonzero;stroke:none"/><path d="m 3901.15,1378.12 -721.42,-269.38 30.39,-272.838 c 0,0 345.14,31.559 448.82,47.129 65.94,9.899 373.97,77.051 373.97,77.051 l -131.76,418.038" id="path86" style="fill:#ffd0ce;fill-opacity:1;fill-rule:nonzero;stroke:none"/><path d="m 4529.69,1157.71 c 0,0 200.03,-13.51 296.04,11.39 51.1,13.25 151.43,74.35 198.15,71.87 120.15,-6.39 202.52,-214.13 214.19,-285.599 8.65,-52.992 -85.92,-139.789 -141.44,-138.199 -259.86,7.41 -564.83,26.707 -564.83,26.707 l 21.59,69.43 c 12.68,40.812 14.19,84.093 4.37,125.631 l -28.07,118.77" id="path88" style="fill:#003977;fill-opacity:1;fill-rule:nonzero;stroke:none"/><path d="m 2892.59,794.449 c 23.92,-10.367 91.31,-11.117 116.9,-5.597 87.85,18.968 330.88,57.269 330.88,57.269 -74.55,47.809 -110.78,135.129 -91.03,219.439 l 16.73,71.42 -165.44,65.06 c 0,0 -137.59,-45.36 -194.17,-134 -116.5,-182.509 -67.37,-250.388 -13.87,-273.591" id="path90" style="fill:#003977;fill-opacity:1;fill-rule:nonzero;stroke:none"/><path d="m 4147.05,4579.15 -320.84,-128.51 c -9.51,0.08 -33.25,-183.47 -33.34,-192.65 l -13.29,-315.19 c -0.93,-101.86 94.2,-182.99 199.66,-183.89 105.46,-0.91 206.51,78.82 207.45,180.67 l -22.58,622.8 c 0.09,9.18 -7.55,16.69 -17.06,16.77" id="path92" style="fill:#ffc7c4;fill-opacity:1;fill-rule:nonzero;stroke:none"/><path d="m 3237.12,3866.81 c 51.96,88.43 501.63,206.87 501.63,206.87 l 242.7,-254.17 348.21,245.99 c 0,0 343.42,-131.51 415.5,-257.43 62.71,-109.54 4.91,-612.83 -51.69,-972.94 -63.26,-402.54 -55.21,-676.35 -69.81,-698.26 -39.76,-59.68 -147.92,-79.04 -217.52,-93.57 -199.93,-41.77 -1107.22,-65.4 -1145.87,155.94 -29.2,167.17 10.27,549.26 -11.83,885.2 -9.99,151.92 -60.13,699.31 -11.32,782.37" id="path94" style="fill:#34eabe;fill-opacity:1;fill-rule:nonzero;stroke:none"/><path d="m 3979.57,3821.04 95.68,-181.68 c 137.9,120.01 435.92,378.66 435.92,378.66 l -206.32,132.77 -325.28,-329.75" id="path96" style="fill:#00d0bc;fill-opacity:1;fill-rule:nonzero;stroke:none"/><path d="M 3982.38,3821.86 3880.7,3640.18 c -137.89,120.01 -303.92,394.2 -303.92,394.2 l 168.07,101.41 237.53,-313.93" id="path98" style="fill:#00d0bc;fill-opacity:1;fill-rule:nonzero;stroke:none"/><path d="m 4376.22,4134.14 c 168.5,-560.31 -110.8,-995.58 -110.8,-995.58 l -264.57,-23.04 c 0,0 219.65,479.88 183,927.24 -1.25,15.14 -4.37,79.15 -1.18,93.23 24.2,106.67 63.49,201.14 118.12,138.91 13.04,-14.86 66.04,-109.54 75.43,-140.76" id="path100" style="fill:#00649f;fill-opacity:1;fill-rule:nonzero;stroke:none"/><path d="m 4364.22,5032.29 c 138.8,-142.15 175.38,-466.38 42.94,-607.2 -114.55,-121.8 -551.65,-135.52 -587.6,-130.33 -381.19,55.03 -336.68,438.23 -252.45,592.9 141.61,260.05 538.12,409.85 797.11,144.63" id="path102" style="fill:#00649f;fill-opacity:1;fill-rule:nonzero;stroke:none"/><path d="m 4288.89,4434.89 c -2.15,46.95 35.13,86.68 83.26,88.74 48.14,2.06 88.91,-34.32 91.06,-81.27 2.16,-46.95 -35.12,-86.68 -83.25,-88.74 -48.14,-2.06 -88.91,34.32 -91.07,81.27" id="path104" style="fill:#ffc7c4;fill-opacity:1;fill-rule:nonzero;stroke:none"/><path d="m 3678.85,4438.63 c 0,-47 -39.06,-85.09 -87.25,-85.09 -48.18,0 -87.24,38.09 -87.24,85.09 0,46.99 39.06,85.09 87.24,85.09 48.19,0 87.25,-38.1 87.25,-85.09" id="path106" style="fill:#ffc7c4;fill-opacity:1;fill-rule:nonzero;stroke:none"/><path d="m 4367.35,4434.88 c 0,-280.5 -201.45,-492.84 -376.71,-492.84 -185.04,0 -374.37,212.34 -374.37,492.84 0,280.49 168.13,507.87 375.54,507.87 207.4,0 375.54,-227.38 375.54,-507.87" id="path108" style="fill:#ffd0ce;fill-opacity:1;fill-rule:nonzero;stroke:none"/><path d="m 4186.69,4927.04 c 248.66,-100.2 262.81,-369.95 248.47,-433.12 -13.1,-57.68 -53.59,-97.7 -69.02,-96.46 -175.11,14.04 -602.43,257.33 -602.43,257.33 0,0 -238.77,-173.37 -69.09,-814.96 0,0 -140.43,237.31 -147.61,563.64 -9.09,412.97 278.82,668.99 639.68,523.57" id="path110" style="fill:#00649f;fill-opacity:1;fill-rule:nonzero;stroke:none"/><path d="m 4343.44,2205.05 c 2.97,1.94 69.01,53.79 116.88,54.13 95.74,0.69 194.09,-70.39 292.7,-43.97 32.95,8.83 88.55,3.29 119.47,-10.82 l 64.08,-29.23 c 49.64,-22.65 65.9,-84.12 32.18,-125.96 -34.73,-43.1 -83.68,-86.32 -140.54,-86.83 -57.8,-0.52 -137.7,38.13 -195.49,38.78 -33.83,0.39 -88.29,-49.17 -120.21,-59.95 -10.72,-3.63 -33.66,-11.69 -44.54,-8.56 -4.52,1.3 -14.06,12.11 -14.06,12.11 0,0 -35.19,-23.99 -49.01,-25.64 -12.96,-1.55 -50.61,12.51 -50.61,12.51 l 140.97,159.27 -99.25,-47.08 c 0,0 -53.4,-47.94 -75.96,-54 -25.97,-6.97 -40.49,13.66 -40.49,13.66 l 149.83,174.2 c 0,0 -116.38,-55.17 -153.23,-47.71 -16.36,3.31 -39.26,21.67 -39.26,21.67 l 106.54,53.42" id="path112" style="fill:#ffd0ce;fill-opacity:1;fill-rule:nonzero;stroke:none"/><path d="m 3356.71,2548.4 c -3.57,0.24 -87.61,13.25 -129.25,-9.58 -83.25,-45.65 -131.61,-154.7 -230.69,-179.45 -33.11,-8.27 -78.38,-39.91 -97.86,-67.07 l -40.35,-56.27 c -31.25,-43.58 -13.5,-104.67 37.36,-124.61 52.39,-20.55 117.16,-34.34 166.67,-7.31 50.31,27.46 99.5,99.52 149.2,128 29.09,16.67 101.91,0.06 135.15,6.14 11.15,2.04 35.19,6.14 42.99,14.1 3.24,3.3 5.91,17.28 5.91,17.28 0,0 42.89,-3.79 55.72,1.47 12.03,4.92 37.35,35.27 37.35,35.27 l -204.55,69.85 110.32,7.16 c 0,0 71.07,-15.72 93.75,-10.07 26.09,6.5 27.99,31.38 27.99,31.38 l -219.96,78.48 c 0,0 129.35,8.44 157.4,32.7 12.46,10.77 22.78,37.73 22.78,37.73 l -119.93,-5.2" id="path114" style="fill:#ffd0ce;fill-opacity:1;fill-rule:nonzero;stroke:none"/><path d="m 3143.02,2737.04 1664.69,-45.08 c 31.88,-0.87 55.63,-25.77 50.58,-53.03 l -175.08,-944.52 -1595.47,63.9 0.72,932.98 c 0.02,25.85 24.73,46.56 54.56,45.75" id="path116" style="fill:#71eaec;fill-opacity:1;fill-rule:nonzero;stroke:none"/><path d="m 1958.56,1924.62 c -31.65,-86.97 22.41,-292.15 88.43,-358.74 161.42,-162.79 841.94,-389.48 841.94,-389.48 L 4059.85,834.031 4267.33,1189.44 2754.5,2051.03 c 0,0 -329.31,147.03 -445.73,136.66 -110.45,-9.84 -313.43,-162.01 -350.21,-263.07" id="path118" style="fill:#00649f;fill-opacity:1;fill-rule:nonzero;stroke:none"/><path d="m 3825.49,1259.74 c 0,0 972.45,531.98 1440.76,833.68 108.67,70.02 432.71,-20.75 506.25,-125.03 67.42,-95.6 15.18,-368.68 -59.54,-459.08 -250.19,-302.68 -1642.88,-479.22 -1642.88,-479.22 l -244.59,229.65" id="path120" style="fill:#00649f;fill-opacity:1;fill-rule:nonzero;stroke:none"/><path d="m 4020.14,2394.48 c 0,-29.25 -27.38,-42.69 -61.17,-42.69 -33.78,0 -61.17,13.44 -61.17,42.69 0,29.24 27.39,43.77 61.17,43.77 33.79,0 61.17,-14.53 61.17,-43.77" id="path122" style="fill:#bdffd8;fill-opacity:1;fill-rule:nonzero;stroke:none"/><path d="m 3125.09,8823.81 c 1.75,1.88 4.13,2.84 6.52,2.84 2.18,0 4.35,-0.79 6.06,-2.38 3.6,-3.35 3.8,-9 0.46,-12.6 -3.34,-3.58 -8.99,-3.79 -12.59,-0.45 -3.59,3.35 -3.79,8.99 -0.45,12.59 z m 15.9,-82.27 c -16.79,-24.83 -16.47,-57.15 0.49,-81.54 l -15.68,-16.86 -167.91,156.13 15.62,16.79 c 26.19,-17.34 60.12,-15.94 84.61,3.32 l 33.86,26.63 c -14.04,-19.69 -11.85,-47.19 6.33,-64.09 9.4,-8.74 21.36,-13.06 33.28,-13.06 13.12,0 26.22,5.24 35.83,15.58 18.36,19.75 17.24,50.75 -2.51,69.12 -14.24,13.24 -34.29,16.18 -51.27,9.48 l 29.5,23.2 c 3.98,3.13 8.07,6.11 12.23,8.97 l 54.58,-50.75 c -2.57,-4.39 -5.28,-8.72 -8.14,-12.98 z m 99.49,190.34 c -2.7,-13.77 -7.57,-33.06 -12.42,-49.6 l -36.27,33.7 c 16.41,6.11 35.2,12.26 48.69,15.9 z m 34.37,36.89 c -7.59,7.05 -16.49,14.65 -97.33,-15.38 l -1.33,-0.55 c -20.52,-9.35 -39.95,-21.17 -57.76,-35.14 l -85.04,-66.88 c -10.91,-8.58 -26.02,-9.2 -37.61,-1.53 l -3.24,2.15 c -14.61,9.67 -33.89,7.38 -45.83,-5.46 l -31.73,-34.12 c -7.52,-8.09 -7.06,-20.74 1.03,-28.27 l 48.6,-45.19 c -3.47,-0.94 -6.74,-2.78 -9.37,-5.61 l -49.19,-52.9 c -7.52,-8.09 -7.06,-20.74 1.02,-28.27 3.86,-3.58 8.74,-5.35 13.62,-5.35 5.36,0 10.71,2.14 14.65,6.38 l 49.19,52.9 c 2.63,2.83 4.23,6.23 4.92,9.76 l 12.44,-11.57 c -3.47,-0.95 -6.74,-2.79 -9.37,-5.62 l -94.28,-101.38 c -7.51,-8.09 -7.06,-20.74 1.03,-28.27 3.85,-3.58 8.74,-5.35 13.62,-5.35 5.36,0 10.71,2.14 14.65,6.38 l 94.27,101.39 c 2.63,2.83 4.22,6.22 4.92,9.75 l 13.04,-12.13 c -3.47,-0.95 -6.74,-2.78 -9.37,-5.61 l -49.19,-52.9 c -7.52,-8.09 -7.06,-20.74 1.03,-28.27 3.85,-3.58 8.73,-5.35 13.61,-5.35 5.36,0 10.71,2.15 14.65,6.38 l 49.19,52.9 c 2.63,2.83 4.23,6.23 4.92,9.76 l 48.61,-45.2 c 3.7,-3.44 8.57,-5.35 13.61,-5.35 l 0.73,0.02 c 5.3,0.19 10.31,2.48 13.92,6.36 l 31.73,34.13 c 11.93,12.84 12.82,32.23 2.1,46.11 -8.5,11 -8.97,26.13 -1.19,37.65 l 60.85,89.98 c 12.74,18.93 23.12,39.08 30.83,59.89 l 0.43,1.3 c 24.63,83.57 16.12,91.49 8.62,98.46" id="path124" style="fill:#dcf5f9;fill-opacity:1;fill-rule:nonzero;stroke:none"/><path d="m 1761.83,6311.27 c -3.62,0 -7.3,0.99 -10.59,3.05 l -95.17,59.56 c -9.36,5.86 -12.2,18.2 -6.34,27.57 5.86,9.36 18.2,12.2 27.56,6.34 l 95.17,-59.56 c 9.36,-5.86 12.2,-18.21 6.34,-27.57 -3.79,-6.06 -10.31,-9.39 -16.97,-9.39" id="path126" style="fill:#dcf5f9;fill-opacity:1;fill-rule:nonzero;stroke:none"/><path d="m 1395.52,6311.27 c -6.78,0 -13.38,3.45 -17.14,9.67 -5.71,9.46 -2.67,21.75 6.79,27.46 l 98.69,59.56 c 9.46,5.7 21.75,2.66 27.46,-6.79 5.7,-9.46 2.66,-21.75 -6.79,-27.46 l -98.69,-59.56 c -3.24,-1.95 -6.8,-2.88 -10.32,-2.88" id="path128" style="fill:#dcf5f9;fill-opacity:1;fill-rule:nonzero;stroke:none"/><path d="m 1579.89,6419.65 c -7.29,0 -14.58,2.3 -20.81,6.89 l -175.46,129.65 c -8.89,6.56 -10.77,19.09 -4.2,27.97 6.56,8.89 19.08,10.76 27.97,4.2 l 172.5,-127.46 172.5,127.46 c 8.88,6.57 21.41,4.69 27.97,-4.2 6.57,-8.88 4.69,-21.41 -4.2,-27.97 L 1600.7,6426.55 c -6.23,-4.6 -13.52,-6.9 -20.81,-6.9" id="path130" style="fill:#dcf5f9;fill-opacity:1;fill-rule:nonzero;stroke:none"/><path d="m 1415.5,6342.56 h 328.77 v 209.72 H 1415.5 Z m 348.77,-40 H 1395.5 c -11.04,0 -20,8.96 -20,20 v 249.72 c 0,11.04 8.96,20 20,20 h 368.77 c 11.05,0 20,-8.96 20,-20 v -249.72 c 0,-11.04 -8.95,-20 -20,-20" id="path132" style="fill:#dcf5f9;fill-opacity:1;fill-rule:nonzero;stroke:none"/><path d="m 8011.69,8056.25 c -5.45,-3.44 -8.9,-9.3 -9.28,-15.74 -0.43,-7.31 -1.69,-14.6 -3.76,-21.67 -1.83,-6.2 -0.54,-12.9 3.45,-17.98 l 14.88,-18.95 -6.57,-10.39 -23.48,5.3 c -6.3,1.43 -12.89,-0.28 -17.71,-4.57 -5.5,-4.89 -11.55,-9.16 -18.01,-12.71 -5.63,-3.1 -9.44,-8.72 -10.22,-15.12 l -2.9,-23.91 -11.98,-2.7 -12.85,20.34 c -3.44,5.46 -9.31,8.92 -15.75,9.29 -7.32,0.42 -14.61,1.68 -21.67,3.75 -1.85,0.54 -3.74,0.81 -5.62,0.81 -4.43,0 -8.79,-1.47 -12.35,-4.27 l -18.95,-14.86 -10.39,6.57 5.3,23.47 c 1.42,6.29 -0.28,12.88 -4.57,17.7 -4.88,5.48 -9.16,11.54 -12.74,18.04 -3.11,5.63 -8.73,9.43 -15.12,10.19 l -23.88,2.89 -2.71,12 20.34,12.85 c 5.43,3.43 8.89,9.27 9.28,15.69 0.45,7.37 1.72,14.7 3.79,21.78 1.8,6.18 0.5,12.85 -3.47,17.93 l -14.86,18.94 6.57,10.4 23.49,-5.3 c 6.29,-1.41 12.87,0.27 17.69,4.56 5.55,4.93 11.6,9.2 17.99,12.7 5.67,3.1 9.49,8.75 10.26,15.16 l 2.87,23.89 11.99,2.69 12.87,-20.35 c 3.44,-5.45 9.31,-8.9 15.74,-9.27 7.28,-0.43 14.59,-1.69 21.72,-3.76 6.18,-1.8 12.86,-0.52 17.93,3.47 l 18.94,14.87 10.38,-6.57 -5.31,-23.48 c -1.42,-6.3 0.28,-12.9 4.58,-17.72 4.88,-5.48 9.16,-11.54 12.71,-18.01 3.11,-5.65 8.75,-9.45 15.14,-10.22 l 23.89,-2.87 2.7,-12 z m 53.57,47.43 c -1.87,8.26 -8.72,14.45 -17.13,15.46 l -28.2,3.39 c -1.81,2.77 -3.73,5.48 -5.73,8.11 l 6.26,27.71 c 1.88,8.26 -1.66,16.8 -8.81,21.32 l -34.25,21.66 c -7.15,4.52 -16.38,4.06 -23.03,-1.17 L 7932,8182.61 c -3.25,0.68 -6.51,1.25 -9.79,1.7 l -15.19,24.02 c -4.52,7.14 -13.04,10.65 -21.3,8.82 l -39.52,-8.9 c -8.26,-1.86 -14.45,-8.72 -15.47,-17.13 l -3.38,-28.2 c -2.78,-1.81 -5.49,-3.72 -8.13,-5.73 l -27.72,6.25 c -8.25,1.83 -16.79,-1.67 -21.31,-8.82 l -21.65,-34.25 c -4.52,-7.15 -4.05,-16.37 1.17,-23.03 l 17.53,-22.36 c -0.68,-3.24 -1.24,-6.51 -1.7,-9.79 l -24.02,-15.18 c -7.16,-4.52 -10.7,-13.05 -8.83,-21.31 l 8.91,-39.53 c 1.86,-8.26 8.71,-14.45 17.11,-15.46 l 28.21,-3.41 c 1.82,-2.78 3.73,-5.49 5.73,-8.12 l -6.25,-27.7 c -1.86,-8.25 1.67,-16.78 8.82,-21.31 l 34.25,-21.66 c 7.15,-4.51 16.38,-4.04 23.03,1.17 l 22.36,17.54 c 3.25,-0.68 6.52,-1.25 9.8,-1.69 l 15.16,-24.01 c 3.72,-5.89 10.15,-9.32 16.91,-9.32 1.46,0 2.94,0.16 4.4,0.48 l 39.52,8.91 c 8.25,1.86 14.43,8.71 15.46,17.1 l 3.41,28.22 c 2.78,1.82 5.49,3.73 8.13,5.74 l 27.72,-6.26 c 8.26,-1.87 16.79,1.67 21.31,8.83 l 21.65,34.27 c 4.51,7.15 4.05,16.37 -1.18,23.02 l -17.54,22.34 c 0.7,3.25 1.26,6.52 1.71,9.81 l 24.02,15.17 c 7.15,4.52 10.69,13.05 8.83,21.31 l -8.91,39.54" id="path134" style="fill:#dcf5f9;fill-opacity:1;fill-rule:nonzero;stroke:none"/><path d="m 7922.79,8034.17 c -3.27,-5.17 -8.35,-8.76 -14.32,-10.1 -5.98,-1.36 -12.12,-0.29 -17.29,2.97 -5.17,3.27 -8.76,8.36 -10.1,14.33 -1.35,5.98 -0.29,12.12 2.98,17.3 3.27,5.17 8.36,8.76 14.34,10.1 1.69,0.38 3.39,0.57 5.08,0.57 4.28,0 8.49,-1.21 12.19,-3.55 5.17,-3.27 8.76,-8.36 10.11,-14.33 1.34,-5.97 0.28,-12.11 -2.99,-17.29 z m 14.26,65.43 c -14.21,8.98 -31.06,11.89 -47.44,8.19 -16.4,-3.69 -30.38,-13.55 -39.36,-27.76 -8.97,-14.2 -11.88,-31.05 -8.19,-47.45 3.69,-16.39 13.55,-30.36 27.75,-39.34 10.18,-6.44 21.72,-9.76 33.48,-9.76 4.65,0 9.33,0.52 13.98,1.57 16.39,3.69 30.36,13.54 39.33,27.75 8.99,14.21 11.89,31.06 8.2,47.45 -3.69,16.4 -13.55,30.37 -27.75,39.35" id="path136" style="fill:#dcf5f9;fill-opacity:1;fill-rule:nonzero;stroke:none"/><path d="m 8164.82,8207.78 -6.03,31.53 c -1.58,8.32 -8.23,14.73 -16.6,16.02 l -20.35,3.13 c -0.75,1.21 -1.53,2.39 -2.35,3.57 l 5.21,19.92 c 2.14,8.19 -1.1,16.84 -8.11,21.6 l -26.55,18.04 c -7,4.76 -16.23,4.59 -23.06,-0.41 L 8050.36,8309 c -1.39,0.32 -2.79,0.61 -4.19,0.87 l -10.43,17.77 c -4.27,7.3 -12.68,11.11 -20.99,9.52 l -31.52,-6.01 c -8.33,-1.58 -14.74,-8.23 -16.03,-16.6 l -3.14,-20.35 c -1.2,-0.76 -2.39,-1.54 -3.57,-2.34 l -19.93,5.19 c -8.18,2.12 -16.83,-1.12 -21.58,-8.11 l -18.04,-26.56 c -4.76,-7 -4.59,-16.23 0.4,-23.06 l 17.87,-24.4 c 6.53,-8.92 19.04,-10.85 27.96,-4.32 8.91,6.52 10.84,19.04 4.32,27.95 l -9.53,13.02 2.17,3.21 15.63,-4.07 c 6.23,-1.61 12.87,-0.15 17.83,3.97 4.28,3.57 8.92,6.61 13.78,9.07 5.77,2.91 9.78,8.43 10.76,14.81 l 2.45,15.95 3.81,0.72 8.17,-13.92 c 3.27,-5.56 9.01,-9.21 15.42,-9.8 5.45,-0.49 10.89,-1.62 16.19,-3.36 6.13,-2 12.84,-0.93 18.03,2.88 l 13.03,9.54 3.2,-2.17 -4.08,-15.62 c -1.63,-6.24 -0.14,-12.89 3.99,-17.85 3.52,-4.23 6.58,-8.88 9.08,-13.81 2.92,-5.75 8.43,-9.74 14.79,-10.72 l 15.94,-2.46 0.73,-3.81 -13.92,-8.16 c -5.56,-3.26 -9.21,-9.01 -9.8,-15.43 -0.5,-5.47 -1.63,-10.89 -3.36,-16.13 -2.02,-6.14 -0.95,-12.88 2.86,-18.1 l 7.43,-10.12 -21.04,5.84 c -10.64,2.92 -21.67,-3.28 -24.62,-13.92 -2.96,-10.64 3.27,-21.66 13.92,-24.62 l 35.56,-9.88 c 1.77,-0.49 3.58,-0.73 5.36,-0.73 5.84,0 11.49,2.56 15.35,7.18 l 17.42,20.86 c 5.89,7.05 6.21,17.22 0.77,24.64 l -12.16,16.59 c 0.32,1.39 0.61,2.8 0.87,4.2 l 17.78,10.42 c 7.29,4.28 11.11,12.69 9.52,21.01" id="path138" style="fill:#dcf5f9;fill-opacity:1;fill-rule:nonzero;stroke:none"/><path d="m 2572.05,5301.77 c -15.63,0 -31.25,-5.95 -43.15,-17.84 -23.8,-23.8 -23.8,-62.52 0,-86.32 l 148.15,-148.15 148.15,148.15 c 23.8,23.8 23.8,62.52 0,86.32 -23.79,23.78 -62.51,23.78 -86.31,0 l -47.7,-47.7 c -7.81,-7.82 -20.47,-7.82 -28.28,0 l -47.7,47.7 c -11.9,11.89 -27.53,17.84 -43.16,17.84 z m 105.41,-300.18 c -1.23,0.45 -2.82,0.15 -4.2,0.45 -3.97,0.61 -7.76,2.4 -10.77,5.41 l -161.88,161.88 c -39.39,39.39 -39.39,103.49 0,142.88 39.4,39.39 103.49,39.4 142.88,0 l 33.56,-33.56 33.56,33.56 c 39.39,39.39 103.48,39.4 142.87,0 39.4,-39.39 39.4,-103.49 0.01,-142.88 l -161.88,-161.88 c -3.75,-3.75 -8.84,-5.86 -14.15,-5.86" id="path140" style="fill:#dcf5f9;fill-opacity:1;fill-rule:nonzero;stroke:none"/><path d="m 1477.68,8493.65 -32.59,23.2 82.41,115.74 121.18,-81.67 -22.35,-33.16 -88.86,59.87 -59.79,-83.98" id="path142" style="fill:#dcf5f9;fill-opacity:1;fill-rule:nonzero;stroke:none"/><path d="m 2831.64,7116.19 85.77,-12.28 11.69,81.72 -85.76,12.28 z m 119.7,-57.55 -164.96,23.62 23.03,160.9 164.96,-23.6 -23.03,-160.92" id="path144" style="fill:#dcf5f9;fill-opacity:1;fill-rule:nonzero;stroke:none"/><path d="m 8793.13,6784.09 -6.4,39.49 58.84,9.54 6.4,-39.5 -58.84,-9.53" id="path146" style="fill:#dcf5f9;fill-opacity:1;fill-rule:nonzero;stroke:none"/><path d="m 8851.92,6848.2 -9.35,57.75 39.48,6.38 9.35,-57.74 -39.48,-6.39" id="path148" style="fill:#dcf5f9;fill-opacity:1;fill-rule:nonzero;stroke:none"/><path d="m 8916.28,6804.02 -6.39,39.5 55.65,9.01 6.4,-39.49 -55.66,-9.02" id="path150" style="fill:#dcf5f9;fill-opacity:1;fill-rule:nonzero;stroke:none"/><path d="m 8872.35,6721.99 -9.88,61.04 39.49,6.38 9.87,-61.03 -39.48,-6.39" id="path152" style="fill:#dcf5f9;fill-opacity:1;fill-rule:nonzero;stroke:none"/><path d="m 5567.07,8742.94 c -9.06,0 -17.96,-2.52 -25.84,-7.43 -11.13,-6.92 -18.9,-17.77 -21.88,-30.54 -6.13,-26.36 10.33,-52.81 36.69,-58.94 26.39,-6.12 52.81,10.33 58.94,36.68 6.13,26.36 -10.33,52.8 -36.69,58.94 -3.73,0.86 -7.49,1.29 -11.22,1.29 z m 0.09,-138.2 c -6.66,0 -13.42,0.75 -20.18,2.33 -47.85,11.14 -77.71,59.12 -66.58,106.96 5.39,23.18 19.49,42.87 39.69,55.45 20.21,12.56 44.09,16.53 67.27,11.13 47.84,-11.14 77.71,-59.12 66.57,-106.96 -9.56,-41.08 -46.29,-68.91 -86.77,-68.91" id="path154" style="fill:#dcf5f9;fill-opacity:1;fill-rule:nonzero;stroke:none"/><path d="m 1219.73,2849.9 85.77,-12.28 11.69,81.72 -85.76,12.28 z m 119.7,-57.55 -164.96,23.62 23.03,160.9 164.96,-23.6 -23.03,-160.92" id="path156" style="fill:#dcf5f9;fill-opacity:1;fill-rule:nonzero;stroke:none"/></g></g></svg>