<?xml version="1.0" ?><svg width="1133.6667px" height="1133.6667px" viewBox="0 -29.3 1133.6667 1133.6667" id="svg2" version="1.1" xml:space="preserve" xmlns="http://www.w3.org/2000/svg" xmlns:inkscape="http://www.inkscape.org/namespaces/inkscape" xmlns:sodipodi="http://sodipodi.sourceforge.net/DTD/sodipodi-0.dtd" xmlns:svg="http://www.w3.org/2000/svg"><defs id="defs6"/><g id="g8" transform="matrix(1.3333333,0,0,-1.3333333,0,1075.0667)"><g id="g10" transform="scale(0.1)"><path d="m 7086.39,7192.96 c -36.31,210.56 -192.81,340.51 -503.83,285.75 -364.66,339.06 -901.57,96.29 -914.07,-278.89 -442.46,48.05 -584.83,-138.51 -584.83,-316.73 288.45,0 2185.94,0 2469.72,0 -15.25,214.09 -237.47,328.81 -466.99,309.87" id="path12" style="fill:#dcf5f9;fill-opacity:1;fill-rule:nonzero;stroke:none"/><path d="m 3298.62,7665.35 c -36.43,185.5 -193.44,300 -505.45,251.75 -326.45,295.68 -859.29,105.54 -917.01,-245.71 -443.88,42.33 -586.7,-122.03 -586.7,-279.05 289.37,0 2192.95,0 2477.65,0 -15.3,188.62 -238.24,289.7 -468.49,273.01" id="path14" style="fill:#dcf5f9;fill-opacity:1;fill-rule:nonzero;stroke:none"/><path d="m 5374.67,2233.95 h -2576.1 v 403.4 H 5445.9 v -403.4 h -71.23" id="path16" style="fill:#bdffd8;fill-opacity:1;fill-rule:nonzero;stroke:none"/><path d="m 4976.18,1830.55 h -2576.1 v 403.4 h 2647.33 v -403.4 h -71.23" id="path18" style="fill:#92f2b8;fill-opacity:1;fill-rule:nonzero;stroke:none"/><path d="m 2895.36,1427.14 h 2647.33 v 403.41 H 2895.36 Z" id="path20" style="fill:#bdffd8;fill-opacity:1;fill-rule:nonzero;stroke:none"/><path d="m 5166.33,1023.73 h -2576.1 v 403.41 h 2647.33 v -403.41 h -71.23" id="path22" style="fill:#92f2b8;fill-opacity:1;fill-rule:nonzero;stroke:none"/><path d="M 5537.71,620.332 H 2961.6 V 1023.73 H 5608.94 V 620.332 h -71.23" id="path24" style="fill:#bdffd8;fill-opacity:1;fill-rule:nonzero;stroke:none"/><path d="M 5301.15,216.922 H 2725.06 v 403.41 h 2647.33 v -403.41 h -71.24" id="path26" style="fill:#92f2b8;fill-opacity:1;fill-rule:nonzero;stroke:none"/><path d="M 3419.8,1427.14 H 772.473 v 403.41 H 2895.36 v -403.41 h 524.44" id="path28" style="fill:#deffec;fill-opacity:1;fill-rule:nonzero;stroke:none"/><path d="m 2895.36,1427.14 h 524.441 v 403.41 H 2895.36 Z" id="path30" style="fill:#bdffd8;fill-opacity:1;fill-rule:nonzero;stroke:none"/><path d="M 3221.08,1023.73 H 573.75 v 403.41 h 2016.48 v -403.41 h 71.23 559.62" id="path32" style="fill:#cdffe1;fill-opacity:1;fill-rule:nonzero;stroke:none"/><path d="m 3221.08,1023.73 h -630.85 v 403.41 h 630.85 v -403.41" id="path34" style="fill:#97f9be;fill-opacity:1;fill-rule:nonzero;stroke:none"/><path d="M 3221.08,1023.73 H 2961.6 3221.08" id="path36" style="fill:#acffcd;fill-opacity:1;fill-rule:nonzero;stroke:none"/><path d="M 3087.03,620.332 H 439.703 V 1023.73 H 2961.6 V 620.332 h 71.23 54.2" id="path38" style="fill:#deffec;fill-opacity:1;fill-rule:nonzero;stroke:none"/><path d="M 3087.03,620.332 H 2961.6 v 403.398 h 125.43 V 620.332" id="path40" style="fill:#bdffd8;fill-opacity:1;fill-rule:nonzero;stroke:none"/><path d="m 3087.03,620.332 h -361.97 361.97" id="path42" style="fill:#a8f9c8;fill-opacity:1;fill-rule:nonzero;stroke:none"/><path d="M 3382.5,216.922 H 735.176 v 403.41 H 2725.06 v -403.41 h 71.22 586.22" id="path44" style="fill:#cdffe1;fill-opacity:1;fill-rule:nonzero;stroke:none"/><path d="m 3382.5,216.922 h -657.44 v 403.41 h 657.44 v -403.41" id="path46" style="fill:#97f9be;fill-opacity:1;fill-rule:nonzero;stroke:none"/><path d="m 7877.94,1023.73 h -2647.33 6.95 v 403.41 h 2640.38 v -403.41" id="path48" style="fill:#cdffe1;fill-opacity:1;fill-rule:nonzero;stroke:none"/><path d="m 5230.61,1023.73 h 6.9492 v 403.41 h -6.9492 z" id="path50" style="fill:#97f9be;fill-opacity:1;fill-rule:nonzero;stroke:none"/><path d="m 7877.94,1427.14 v 0 h -2647.33 312.08 v 403.41 h 2335.25 v -403.41" id="path52" style="fill:#deffec;fill-opacity:1;fill-rule:nonzero;stroke:none"/><path d="m 5230.61,1427.14 h 312.082 v 403.41 H 5230.61 Z" id="path54" style="fill:#bdffd8;fill-opacity:1;fill-rule:nonzero;stroke:none"/><path d="M 8100.65,620.332 H 5453.32 5608.94 V 1023.73 H 8100.65 V 620.332" id="path56" style="fill:#deffec;fill-opacity:1;fill-rule:nonzero;stroke:none"/><path d="m 5608.94,620.332 h -155.62 v 403.398 h 155.62 V 620.332" id="path58" style="fill:#bdffd8;fill-opacity:1;fill-rule:nonzero;stroke:none"/><path d="m 7539.17,216.922 h -2647.32 480.54 v 403.41 h 2166.78 v -403.41" id="path60" style="fill:#cdffe1;fill-opacity:1;fill-rule:nonzero;stroke:none"/><path d="m 5372.39,216.922 h -480.54 v 403.41 h 480.54 v -403.41" id="path62" style="fill:#97f9be;fill-opacity:1;fill-rule:nonzero;stroke:none"/><path d="m 262.355,4910.21 c 0,0 1083.785,346.89 1604.285,159.77 398.48,-143.25 752.49,-631.13 752.49,-631.13 0,0 -642.02,-707.66 -1452.4,-403.82 -638.48,239.37 -904.375,875.18 -904.375,875.18" id="path64" style="fill:#dcf5f9;fill-opacity:1;fill-rule:nonzero;stroke:none"/><path d="m 1018.81,7268.78 c 0,0 813.15,-710.39 1311.69,-1682.53 307.86,-600.32 254.06,-1623.55 254.06,-1623.55 0,0 -1422.08,487.87 -1713.451,1353.66 -209.718,623.17 147.701,1952.42 147.701,1952.42" id="path66" style="fill:#bdffd8;fill-opacity:1;fill-rule:nonzero;stroke:none"/><path d="m 6559.02,5143.18 c 0,-1413.38 -1145.77,-2559.14 -2559.14,-2559.14 -1413.37,0 -2559.14,1145.76 -2559.14,2559.14 0,1413.37 1145.77,2559.13 2559.14,2559.13 1413.37,0 2559.14,-1145.76 2559.14,-2559.13" id="path68" style="fill:#ffffff;fill-opacity:1;fill-rule:nonzero;stroke:none"/><path d="m 6559.02,5143.18 h -25 C 6534,4443.32 6250.41,3809.94 5791.79,3351.27 5333.12,2892.65 4699.74,2609.06 3999.88,2609.04 c -699.86,0.02 -1333.24,283.61 -1791.9,742.23 -458.63,458.67 -742.22,1092.04 -742.24,1791.91 0.02,699.86 283.61,1333.23 742.24,1791.9 458.66,458.63 1092.04,742.22 1791.9,742.24 699.86,-0.02 1333.24,-283.61 1791.91,-742.24 458.62,-458.67 742.21,-1092.04 742.23,-1791.9 h 25 25 C 6584,6570.36 5427.07,7727.3 3999.88,7727.32 2572.69,7727.3 1415.76,6570.36 1415.74,5143.18 1415.76,3715.99 2572.69,2559.06 3999.88,2559.04 5427.07,2559.06 6584,3715.99 6584.02,5143.18 h -25" id="path70" style="fill:#4acfd3;fill-opacity:1;fill-rule:nonzero;stroke:none"/><path d="m 6303.11,5143.18 c 0,-1272.04 -1031.19,-2303.23 -2303.23,-2303.23 -1272.04,0 -2303.22,1031.19 -2303.22,2303.23 0,1272.03 1031.18,2303.22 2303.22,2303.22 1272.04,0 2303.23,-1031.19 2303.23,-2303.22" id="path72" style="fill:#b4f1f4;fill-opacity:1;fill-rule:nonzero;stroke:none"/><path d="m 6303.11,5143.18 h -25 c -0.02,-629.2 -254.96,-1198.59 -667.28,-1610.95 -412.36,-412.32 -981.75,-667.27 -1610.95,-667.28 -629.19,0.01 -1198.59,254.96 -1610.95,667.28 -412.31,412.36 -667.26,981.75 -667.27,1610.95 0.01,629.19 254.96,1198.59 667.27,1610.94 412.36,412.32 981.75,667.27 1610.95,667.28 629.19,-0.01 1198.59,-254.96 1610.95,-667.28 412.32,-412.35 667.26,-981.75 667.28,-1610.94 h 25 25 C 6328.09,6429.03 5285.73,7471.39 3999.88,7471.4 2714.03,7471.38 1671.67,6429.03 1671.66,5143.18 c 0.01,-1285.86 1042.37,-2328.21 2328.22,-2328.23 1285.85,0.02 2328.21,1042.37 2328.23,2328.23 h -25" id="path74" style="fill:#ffffff;fill-opacity:1;fill-rule:nonzero;stroke:none"/><path d="m 5791.27,5143.18 c 0,-989.36 -802.03,-1791.39 -1791.39,-1791.39 -989.36,0 -1791.4,802.03 -1791.4,1791.39 0,989.36 802.04,1791.39 1791.4,1791.39 989.36,0 1791.39,-802.03 1791.39,-1791.39" id="path76" style="fill:#ffffff;fill-opacity:1;fill-rule:nonzero;stroke:none"/><path d="m 5791.27,5143.18 h -25 c -0.01,-487.86 -197.67,-929.3 -517.36,-1249.03 -319.73,-319.69 -761.17,-517.35 -1249.03,-517.36 -487.86,0.01 -929.3,197.67 -1249.03,517.36 -319.69,319.73 -517.35,761.17 -517.37,1249.03 0.02,487.85 197.68,929.29 517.37,1249.03 319.73,319.69 761.17,517.35 1249.03,517.36 487.86,-0.01 929.3,-197.67 1249.03,-517.36 319.69,-319.74 517.35,-761.17 517.36,-1249.03 h 25 25 C 5816.26,6146.35 5003.06,6959.56 3999.88,6959.57 2996.7,6959.56 2183.5,6146.36 2183.48,5143.18 2183.5,4140 2996.7,3326.8 3999.88,3326.79 5003.06,3326.8 5816.25,4140 5816.27,5143.18 h -25" id="path78" style="fill:#4acfd3;fill-opacity:1;fill-rule:nonzero;stroke:none"/><path d="m 5531.53,5143.18 c 0,-845.91 -685.75,-1531.65 -1531.65,-1531.65 -845.9,0 -1531.64,685.74 -1531.64,1531.65 0,845.9 685.74,1531.64 1531.64,1531.64 845.9,0 1531.65,-685.74 1531.65,-1531.64" id="path80" style="fill:#b4f1f4;fill-opacity:1;fill-rule:nonzero;stroke:none"/><path d="m 5531.53,5143.18 h -25 c -0.02,-416.13 -168.6,-792.63 -441.29,-1065.36 -272.73,-272.69 -649.23,-441.27 -1065.36,-441.29 -416.13,0.02 -792.63,168.6 -1065.36,441.29 -272.69,272.73 -441.27,649.23 -441.28,1065.36 0.01,416.13 168.59,792.63 441.28,1065.35 272.73,272.69 649.23,441.28 1065.36,441.29 416.13,-0.01 792.63,-168.6 1065.36,-441.29 272.69,-272.72 441.27,-649.22 441.29,-1065.35 h 25 25 C 5556.51,6002.9 4859.6,6699.8 3999.88,6699.82 3140.16,6699.8 2443.25,6002.9 2443.24,5143.18 c 0.01,-859.72 696.92,-1556.63 1556.64,-1556.65 859.72,0.02 1556.63,696.93 1556.65,1556.65 h -25" id="path82" style="fill:#ffffff;fill-opacity:1;fill-rule:nonzero;stroke:none"/><path d="m 5012.46,5143.18 c 0,-559.24 -453.35,-1012.59 -1012.58,-1012.59 -559.23,0 -1012.59,453.35 -1012.59,1012.59 0,559.23 453.36,1012.59 1012.59,1012.59 559.23,0 1012.58,-453.36 1012.58,-1012.59" id="path84" style="fill:#ffffff;fill-opacity:1;fill-rule:nonzero;stroke:none"/><path d="m 5012.46,5143.18 h -25 c -0.01,-272.8 -110.5,-519.54 -289.25,-698.33 -178.8,-178.76 -425.54,-289.25 -698.33,-289.26 -272.79,0.01 -519.53,110.5 -698.33,289.26 -178.76,178.79 -289.25,425.53 -289.26,698.33 0.01,272.79 110.5,519.53 289.26,698.33 178.8,178.75 425.54,289.24 698.33,289.26 272.79,-0.02 519.53,-110.51 698.33,-289.26 178.75,-178.8 289.24,-425.54 289.25,-698.33 h 25 25 c -0.01,573.05 -464.53,1037.57 -1037.58,1037.59 -573.05,-0.02 -1037.57,-464.54 -1037.59,-1037.59 0.02,-573.06 464.54,-1037.57 1037.59,-1037.59 573.05,0.02 1037.57,464.53 1037.58,1037.59 h -25" id="path86" style="fill:#4acfd3;fill-opacity:1;fill-rule:nonzero;stroke:none"/><path d="m 4754.79,5143.18 c 0,-416.93 -337.98,-754.91 -754.91,-754.91 -416.92,0 -754.91,337.98 -754.91,754.91 0,416.92 337.99,754.9 754.91,754.9 416.93,0 754.91,-337.98 754.91,-754.9" id="path88" style="fill:#b4f1f4;fill-opacity:1;fill-rule:nonzero;stroke:none"/><path d="m 4754.79,5143.18 h -25 c -0.01,-201.64 -81.66,-383.96 -213.79,-516.12 -132.16,-132.13 -314.48,-213.78 -516.12,-213.79 -201.64,0.01 -383.96,81.66 -516.12,213.79 -132.13,132.16 -213.77,314.48 -213.79,516.12 0.02,201.64 81.66,383.95 213.79,516.12 132.16,132.13 314.48,213.77 516.12,213.78 201.64,-0.01 383.96,-81.65 516.12,-213.78 132.13,-132.17 213.77,-314.48 213.79,-516.12 h 25 25 c -0.02,430.74 -349.16,779.89 -779.91,779.9 -430.74,-0.01 -779.89,-349.16 -779.91,-779.9 0.02,-430.74 349.17,-779.89 779.91,-779.91 430.75,0.02 779.89,349.17 779.91,779.91 h -25" id="path90" style="fill:#ffffff;fill-opacity:1;fill-rule:nonzero;stroke:none"/><path d="m 8407.51,6473.58 12.83,-45 -910.94,-283.6 -1896.53,-676.41 6.43,-21.73 c -118.89,-38.96 -224.2,-72.95 -309.89,-99.87 -99.17,-31.15 -204.3,28.02 -233.5,127.78 -29.19,99.77 27.52,206.08 127.78,233.5 84.07,22.97 196.87,53.24 313.5,83.75 l 5.46,-18.47 1965.81,442.24 919.05,257.81" id="path92" style="fill:#1282c6;fill-opacity:1;fill-rule:nonzero;stroke:none"/><path d="m 5217.84,5553.72 19.87,-69.24 -757.38,-212.8 -475.38,-124.8 -5.07,17.24 465.34,154.29 752.62,235.31" id="path94" style="fill:#1282c6;fill-opacity:1;fill-rule:nonzero;stroke:none"/><path d="m 8313.16,6408.98 c 283.99,-181.61 253.32,-524.81 -124.02,-554.04 -495.92,-38.43 -924.64,245.08 -924.64,245.08 l 1048.66,308.96" id="path96" style="fill:#1282c6;fill-opacity:1;fill-rule:nonzero;stroke:none"/><path d="m 8306.33,6430.83 c 139.46,306.88 -73,578.16 -405.5,397.39 -437,-237.59 -642.46,-708.72 -642.46,-708.72 l 1047.96,311.33" id="path98" style="fill:#1282c6;fill-opacity:1;fill-rule:nonzero;stroke:none"/><path d="M 8216.2,218.27 H -0.00390625 V 106.582 H 8216.2 V 218.27" id="path100" style="fill:#e3edf5;fill-opacity:1;fill-rule:nonzero;stroke:none"/><path d="m 3020.12,4194.22 c 0,0 -6.98,464.95 5.19,476.84 19.03,18.63 68.88,-21.56 91.81,-47.52 63,-71.3 364.24,-723.21 297.72,-970.89 -10.16,-37.83 -121.25,-79.45 -121.25,-79.45 0,0 -162.26,161.25 -168.43,175.49 -41.31,95.44 -92.6,404.48 -92.6,404.48 -8.18,12.21 -12.49,26.45 -12.44,41.05" id="path102" style="fill:#00c18d;fill-opacity:1;fill-rule:nonzero;stroke:none"/><path d="m 2521.1,4596.74 c 82.18,-3.4 229.6,132.25 260.47,183.38 0,0 -32.86,36.88 -66.93,48.3 -202.58,67.91 -187.8,84.26 -352.8,14.16 -19.53,-8.3 -82.55,-32.32 -82.55,-32.32 1.4,-6.8 169.52,-210.53 241.81,-213.52" id="path104" style="fill:#c2866e;fill-opacity:1;fill-rule:nonzero;stroke:none"/><path d="m 2509.16,4662.72 c -92.07,10.84 -156.11,96.83 -140.1,188.15 l 34.51,196.84 298.79,-31 -13.29,-204.19 c -6.01,-92.25 -88.11,-160.61 -179.91,-149.8" id="path106" style="fill:#b97860;fill-opacity:1;fill-rule:nonzero;stroke:none"/><path d="m 2125.58,851.211 42.21,-471.41 141.03,-5.969 17.06,223.508 -52.01,149.82 -148.29,104.051" id="path108" style="fill:#00d89e;fill-opacity:1;fill-rule:nonzero;stroke:none"/><path d="m 3038.56,3197.06 48.97,-330.92 7.27,-327.61 H 1992.47 l 30.61,263.98 87.11,425.01 928.37,-30.46" id="path110" style="fill:#00649f;fill-opacity:1;fill-rule:nonzero;stroke:none"/><path d="m 3053.84,4679.11 c -32.11,44.7 -343,167.17 -343,167.17 0,0 -4.11,-56.9 -25.6,-90.67 -45.31,-71.21 -222.72,-91.18 -276.35,-25.71 -26.78,32.69 -74.46,109.71 -74.46,109.71 0,0 -188.58,-48.95 -270.52,-100.78 -52.45,-33.19 -94.4,-365.85 -71.44,-691.42 29.72,-421.5 61.18,-911.39 61.18,-911.39 l 1016.88,27.79 -17.68,972.8 c 0,0 31.14,500.52 0.99,542.5" id="path112" style="fill:#00d3a7;fill-opacity:1;fill-rule:nonzero;stroke:none"/><path d="m 2137.62,500.152 c 0,0 -88.73,123.227 -104.31,804.928 -1.48,64.43 80.26,425.2 186.04,459.26 56.44,18.17 158.24,-27.85 192.23,-75.69 113.85,-160.2 -65.95,-1188.498 -65.95,-1188.498 h -208.01" id="path114" style="fill:#00649f;fill-opacity:1;fill-rule:nonzero;stroke:none"/><path d="m 2657.66,747.879 16.3,-373.289 172.22,35.652 2.31,289.41 -190.83,48.227" id="path116" style="fill:#00d89e;fill-opacity:1;fill-rule:nonzero;stroke:none"/><path d="m 2942.06,1705.59 c 31.86,-131.99 18.21,-485.47 18.21,-485.47 L 2864.2,529.742 2629.12,518 l -52.69,903.18 c 0,0 33.34,250.61 65.27,299.6 30.29,46.47 273.22,97.24 300.36,-15.19" id="path118" style="fill:#00649f;fill-opacity:1;fill-rule:nonzero;stroke:none"/><path d="m 2894.81,474.332 c 240.15,-139.301 250.84,-61.621 322.08,-116.652 11.16,-8.621 18.05,-24.711 21.77,-38.328 3.5,-12.821 -15.03,-54.692 -15.03,-54.692 l -589.84,11.711 c -11.06,18.442 -12.85,71.121 -10.64,86.539 3.74,26.121 30.49,123.422 30.49,123.422 l 8.5,-0.191 c 7.61,-0.161 14.85,-3.489 19.95,-9.141 46.08,-51.008 124.08,-19.168 154.49,4.641 11.75,9.211 -6.88,29.89 25.58,25.55 9.62,-1.281 24.68,-28.242 32.65,-32.859" id="path120" style="fill:#004381;fill-opacity:1;fill-rule:nonzero;stroke:none"/><path d="m 3231.99,285.262 c 0,0 -11.87,-14.922 -61.81,-14.922 -419.14,0 -536.39,6.031 -536.39,6.031 l 12.92,-53.68 565.34,1.778 19.94,60.793" id="path122" style="fill:#dcf5f9;fill-opacity:1;fill-rule:nonzero;stroke:none"/><path d="m 2875.58,439.211 c 7.57,8.531 17.97,15.758 26.44,20.73 4.23,2.489 7.98,4.438 10.65,5.75 1.34,0.649 2.4,1.149 3.13,1.481 l 1.07,0.48 c 2.54,1.078 3.72,4.008 2.64,6.559 -1.08,2.539 -4.02,3.719 -6.56,2.629 -0.29,-0.18 -27.44,-11.551 -44.84,-30.988 -1.83,-2.063 -1.65,-5.223 0.42,-7.063 2.06,-1.828 5.22,-1.648 7.06,0.422" id="path124" style="fill:#8ceae7;fill-opacity:1;fill-rule:nonzero;stroke:none"/><path d="m 2904.91,405.852 c 12.23,6.668 22.65,17.808 30.26,27.277 7.58,9.48 12.24,17.332 12.32,17.461 1.41,2.371 0.63,5.441 -1.75,6.851 -2.37,1.411 -5.44,0.629 -6.85,-1.742 l -0.76,-1.238 c -3.53,-5.781 -20.04,-30.231 -37.99,-39.82 -2.43,-1.321 -3.33,-4.36 -2.01,-6.782 1.32,-2.429 4.36,-3.328 6.78,-2.007" id="path126" style="fill:#8ceae7;fill-opacity:1;fill-rule:nonzero;stroke:none"/><path d="m 2955.62,386.922 c 9.08,7.891 14.7,19.398 18.36,28.957 3.62,9.562 5.13,17.23 5.17,17.41 0.54,2.711 -1.23,5.34 -3.93,5.871 -2.71,0.539 -5.34,-1.219 -5.88,-3.93 l -0.25,-1.171 c -0.63,-2.75 -2.48,-10.059 -5.8,-17.989 -3.29,-7.929 -8.15,-16.41 -14.19,-21.57 -2.1,-1.801 -2.34,-4.961 -0.53,-7.051 1.8,-2.09 4.95,-2.328 7.05,-0.527" id="path128" style="fill:#8ceae7;fill-opacity:1;fill-rule:nonzero;stroke:none"/><path d="M 2326.56,455.563 2356.44,350.5 c 6.36,-22.359 17.1,-43.391 31.67,-61.988 8.8,-11.231 12.15,-25.473 9.21,-39.192 l -17.72,-45.629 -273.77,-5.359 -16.95,35.598 c -5.82,12.23 -6.13,26.191 -0.85,38.64 l 10.46,24.7 c 6.12,14.449 22.6,38.46 24.8,53.871 3.75,26.121 15.6,104.422 15.6,104.422 l 17.7,-3.704 c 7.6,-1.589 15.45,0.36 21.4,5.11 11.66,9.32 35.02,23.121 67.47,18.773 9.63,-1.281 32.67,-13.871 44.97,-20.91 5.29,-3.012 11.56,-4.023 17.61,-2.852 l 18.52,3.583" id="path130" style="fill:#004381;fill-opacity:1;fill-rule:nonzero;stroke:none"/><path d="m 2398.36,257.371 c 0,0 -17.64,-25.441 -31.68,-25.73 -47.31,-0.981 -62.45,15.461 -125.36,15.461 -48.87,0 -102.84,-18.102 -129.46,-19.082 -5.95,-0.219 -24.96,10.742 -24.96,10.742 0,0 18.51,-48.422 23.81,-52.762 5.28,-4.32 12.32,-8.719 26.36,-8.719 25.17,0 80.87,0.321 106.03,0 24.44,-0.289 61.34,-2.82 105.56,0 15.59,1.008 27.24,11.879 30.54,19.371 19.77,44.727 19.16,60.719 19.16,60.719" id="path132" style="fill:#dcf5f9;fill-opacity:1;fill-rule:nonzero;stroke:none"/><path d="m 2170.51,325.742 c 23.27,15.059 46.93,19.758 67.69,19.77 17.47,0.008 32.82,-3.371 43.77,-6.75 5.47,-1.692 9.83,-3.371 12.81,-4.633 1.48,-0.617 2.62,-1.137 3.37,-1.488 l 0.84,-0.411 0.24,-0.109 c 2.45,-1.269 5.47,-0.301 6.73,2.149 1.27,2.46 0.3,5.472 -2.15,6.742 -0.41,0.179 -28.1,14.468 -65.61,14.5 -22.25,0.008 -48.03,-5.11 -73.13,-21.371 -2.31,-1.5 -2.98,-4.602 -1.48,-6.922 1.5,-2.321 4.6,-2.977 6.92,-1.477" id="path134" style="fill:#8ceae7;fill-opacity:1;fill-rule:nonzero;stroke:none"/><path d="m 2156.37,361.371 c 22.76,16.418 48.32,21.781 72.21,21.789 21.94,0.012 42.34,-4.57 57.2,-9.168 7.44,-2.301 13.48,-4.601 17.65,-6.312 2.08,-0.86 3.69,-1.571 4.77,-2.059 l 1.22,-0.562 0.37,-0.18 c 2.48,-1.219 5.47,-0.199 6.69,2.281 1.22,2.469 0.21,5.469 -2.27,6.692 -0.37,0.148 -39,19.269 -85.63,19.308 -25.34,0.012 -53.2,-5.738 -78.06,-23.68 -2.24,-1.609 -2.75,-4.738 -1.13,-6.98 1.61,-2.238 4.74,-2.738 6.98,-1.129" id="path136" style="fill:#8ceae7;fill-opacity:1;fill-rule:nonzero;stroke:none"/><path d="m 2170.46,400.109 c 23.71,14.961 45.15,19.731 63.21,19.743 17.16,0 31.3,-4.36 41.15,-8.711 4.92,-2.18 8.75,-4.352 11.33,-5.961 1.28,-0.801 2.25,-1.461 2.89,-1.91 l 0.7,-0.5 0.17,-0.129 c 2.17,-1.711 5.32,-1.332 7.02,0.851 1.7,2.168 1.32,5.309 -0.85,7.02 -0.47,0.34 -24.65,19.289 -62.41,19.34 -19.84,0.007 -43.35,-5.352 -68.55,-21.289 -2.34,-1.473 -3.03,-4.563 -1.56,-6.903 1.48,-2.328 4.57,-3.031 6.9,-1.551" id="path138" style="fill:#8ceae7;fill-opacity:1;fill-rule:nonzero;stroke:none"/><path d="m 2090.76,1560.02 -98.29,978.51 30.61,263.98 545.48,-263.98 -97.7,-801.03 19.98,-111.52 -84.2,-204.8 -315.88,138.84" id="path140" style="fill:#00649f;fill-opacity:1;fill-rule:nonzero;stroke:none"/><path d="m 2617.09,1620.54 -48.53,917.99 h 526.24 l -114.81,-816.25 19.98,-111.51 -84.2,-204.8 -298.68,214.57" id="path142" style="fill:#00649f;fill-opacity:1;fill-rule:nonzero;stroke:none"/><path d="m 2800.19,5219.32 c 2.64,25.45 -8.55,46.98 -34.66,49.69 -26.12,2.71 -49.43,-15.73 -52.08,-41.18 -2.64,-25.46 2.15,-45.86 28.26,-48.57 26.12,-2.71 55.84,14.6 58.48,40.06" id="path144" style="fill:#c2866e;fill-opacity:1;fill-rule:nonzero;stroke:none"/><path d="m 2530.95,4912.86 c 61.45,-7.32 187.95,49.9 204.12,140.04 l 43.66,257.23 c 17.89,99.72 -86.82,192.62 -160.58,204.64 l -33.59,3.48 c -104.66,10.86 -196.21,-66.04 -199.17,-167.31 l -10.07,-260.72 c -2.69,-91.53 97.05,-170.38 155.63,-177.36" id="path146" style="fill:#c2866e;fill-opacity:1;fill-rule:nonzero;stroke:none"/><path d="m 2336.81,5261.79 c -3.56,-25.37 19.32,-53.92 45.52,-55.48 13.36,-0.79 9.22,90.07 5.05,91.49 -24.97,8.47 -47.02,-10.65 -50.57,-36.01" id="path148" style="fill:#c2866e;fill-opacity:1;fill-rule:nonzero;stroke:none"/><path d="m 2379.24,5431.94 c 8.39,26.67 23.79,78.26 77.32,76.55 21.94,13.24 31.15,14.64 55.37,18.65 42.78,7.06 129.43,1.25 172.41,-12.8 66.02,-21.57 66.82,-71.48 66.82,-71.48 0,0 30.25,-10.45 35.3,-49.37 4.87,-37.48 -8.39,-145.96 -8.39,-145.96 l -15.21,-40.97 -6.17,134.58 c -33.5,-22.01 -143.39,-36.95 -188.9,-33.88 -52.81,3.57 -138.9,36.9 -168.86,61.09 l -18.44,-144.23 c 0,0 -15.45,38.57 -17.7,52.16 -6.35,38.52 3.98,116.05 16.45,155.66" id="path150" style="fill:#2e1709;fill-opacity:1;fill-rule:nonzero;stroke:none"/><path d="m 2131.04,4191.34 c 0,0 -53.34,536.99 -67.13,547.49 -21.59,16.43 -119.69,-91.74 -142.94,-135.06 -64.04,-119.36 -127.68,-399.15 -147.05,-521.47 -23.32,-147.27 -60.89,-420.67 -15.81,-548.96 11.12,-31.64 78.06,-109.09 78.06,-109.09 l 215.07,373.52 79.8,393.57" id="path152" style="fill:#00c18d;fill-opacity:1;fill-rule:nonzero;stroke:none"/><path d="m 2336.44,3430.29 h 665.72 l 149.62,943.42 h -665.72 l -149.62,-943.42" id="path154" style="fill:#bdffd8;fill-opacity:1;fill-rule:nonzero;stroke:none"/><path d="m 3145.95,3736.51 -123.33,70.36 c 0,0 -83.09,36.71 -100.88,50.01 -13.55,10.13 -118.9,81.85 -122.34,119.8 -0.43,4.72 6.45,23.58 6.45,23.58 0,0 -8.03,21.71 -12.51,27.56 -4.56,5.97 15.72,19.8 39.81,17.4 1.43,-0.14 20.22,-3.85 42.26,-8.25 33.07,-6.59 90.28,-0.92 90.28,-0.92 0,0 -37.42,21.78 -69.97,27.5 -17.2,3.02 -56.81,3.91 -68.37,19.55 -3.18,4.31 -0.06,25.24 28.35,30.76 24.91,4.84 157.44,-12.7 239.38,-30.93 10.14,-2.25 19.46,57.67 19.46,57.67 25.2,0 64.73,-41.48 76.85,-59.14 27.09,-39.45 56.17,-202.98 56.17,-202.98 l -101.61,-141.97" id="path156" style="fill:#c2866e;fill-opacity:1;fill-rule:nonzero;stroke:none"/><path d="m 3039.72,3774.24 213.73,147.45 c 0,0 177.71,-152.48 178.16,-224.03 0.2,-31.45 -45.5,-95.88 -76.98,-115.96 -21.04,-13.43 -76.08,-24.24 -98.87,-18.35 -80.45,20.8 -216.04,210.89 -216.04,210.89" id="path158" style="fill:#00c18d;fill-opacity:1;fill-rule:nonzero;stroke:none"/><path d="m 2314.84,3699.34 204.6,20.1 c 0,0 68.5,10.33 86.29,23.64 13.55,10.12 118.9,81.84 122.34,119.79 0.43,4.72 -6.45,23.58 -6.45,23.58 0,0 8.03,21.71 12.51,27.56 4.56,5.97 -15.72,19.8 -39.81,17.4 -1.43,-0.14 -20.22,-3.85 -42.26,-8.25 -33.07,-6.59 -90.28,-0.91 -90.28,-0.91 0,0 38.31,16.54 70.86,22.26 17.2,3.02 56.81,3.91 68.37,19.55 3.18,4.31 0.06,25.24 -28.35,30.75 -24.91,4.85 -160.19,-0.5 -240.27,-25.69 -5.92,-1.86 -11.54,3.43 -10.16,9.47 l 7.54,33.15 c -46.03,-2.55 -56.03,-31.71 -69.18,-48.18 -29.87,-37.41 -147.36,-122.26 -147.36,-122.26 l 101.61,-141.96" id="path160" style="fill:#c2866e;fill-opacity:1;fill-rule:nonzero;stroke:none"/><path d="m 2393.73,3672.48 -180.5,207.13 -175.26,-88.55 -201.8,-214.34 c 0,0 -16.03,-137.81 0,-152.47 18.65,-17.08 118.96,-23.28 156.3,-11.42 113.87,36.19 401.26,259.65 401.26,259.65" id="path162" style="fill:#00c18d;fill-opacity:1;fill-rule:nonzero;stroke:none"/><path d="m 6317.77,2266.85 c -9.42,52.91 -54.51,46.83 -114.78,49.82 -59.18,2.93 -162.59,14.62 -218.09,-6.12 -27.76,-10.39 -72.33,-82.34 -73.63,-84.14 l -18.25,-41.23 c 0,0 18.59,-13.71 23.77,-3.37 19.47,38.9 48.97,56.97 48.97,56.97 l -66.94,-71.25 c 0,0 10.37,-11.42 27.01,-10.3 14.21,0.95 28.52,16.78 37.48,24.57 16.62,14.44 48.28,44.13 48.28,44.13 l -50.13,-98.79 c -1.56,-3.2 0.83,-6.93 4.39,-6.78 8.07,0.32 19.28,2.12 25.08,5.82 7.28,4.65 45.9,44.66 55.93,68.29 2.63,6.19 34.53,19.8 48.64,21.47 11.5,1.35 39.16,-21.74 -2.32,-25.02 -12.26,-0.98 -32.74,3.71 -44.54,-7.56 -2.31,-2.21 -9.27,-10.67 -3.04,-14.98 6.08,-4.23 23.84,-12.33 37.98,-13.62 22.35,-2.03 42.17,-1.3 50.32,-2.24 56.68,-6.57 75.57,17.13 95.81,25.09 72.97,28.7 93.21,60.26 88.06,89.24" id="path164" style="fill:#ffd0ce;fill-opacity:1;fill-rule:nonzero;stroke:none"/><path d="m 6721.99,3062.08 c -30.16,-90.78 -96.56,-496.94 -96.56,-496.94 0,0 -6.79,-59.06 -316.24,-138.13 -17.76,-4.54 -23.81,-32.44 -30.72,-50.81 -1.06,-2.8 -35.62,-17.52 -43.84,-24.81 -17.88,-15.86 51.66,-168.42 51.66,-168.42 l 40.33,10.11 c 0,0 14.35,-14.12 33.17,-17.43 133.19,-23.43 433.85,178.87 522.86,230.66 15.2,8.84 0.25,17.12 8.58,51.05 54.63,222.33 0.45,450.95 38.41,670.78 5.81,33.66 -56.71,91.61 -80,87.48 -66.43,-11.75 -93.97,-52.25 -127.65,-153.54" id="path166" style="fill:#00d0bc;fill-opacity:1;fill-rule:nonzero;stroke:none"/><path d="m 6823.06,3971.55 c 82.02,-52.27 135.34,-172.11 90.76,-255.66 -38.54,-72.27 -270.95,-133.02 -287.9,-137.24 -159.16,-39.61 -177.22,144.73 -156.81,229.29 34.33,142.18 200.9,261.14 353.95,163.61" id="path168" style="fill:#0050b2;fill-opacity:1;fill-rule:nonzero;stroke:none"/><path d="m 7078.42,3151.09 c -71.73,-33.23 -223.61,-1.79 -268.53,28.78 0,0 27.74,128.66 44.01,142.31 106.53,89.32 104.46,74.54 274.86,78.05 20.18,0.42 53.61,-80.59 53.61,-80.59 1.1,-6.11 -40.85,-139.31 -103.95,-168.55" id="path170" style="fill:#ffc6c3;fill-opacity:1;fill-rule:nonzero;stroke:none"/><path d="m 6889.94,3670.15 -102.87,-196.58 c -4.32,-1.47 -6.65,-6.17 -5.17,-10.49 l 79.63,-179.78 c 16.28,-48.02 38.85,-41.53 86.86,-25.24 48.02,16.28 85.83,72.53 69.54,120.55 l -117.49,286.36 c -1.47,4.33 -6.17,6.65 -10.5,5.18" id="path172" style="fill:#ffc6c3;fill-opacity:1;fill-rule:nonzero;stroke:none"/><path d="m 6904.06,3654.97 17.34,108.24 c 0,0 76.07,-107.99 117.81,-191.01 68.12,-135.52 79.69,-249.6 18.01,-362.57 -56.71,-103.88 -25.28,-70.67 -27.83,-71 0,0 -77.84,16.39 -71.23,84.43 17.15,176.24 10.8,204.61 6.28,260.25 -6.35,78.22 -60.38,171.66 -60.38,171.66" id="path174" style="fill:#0050b2;fill-opacity:1;fill-rule:nonzero;stroke:none"/><path d="m 6930.42,3700.88 c 3.47,-23.14 -12.3,-44.67 -35.21,-48.1 -22.91,-3.43 -44.29,12.55 -47.75,35.69 -3.46,23.13 12.31,44.66 35.22,48.09 22.91,3.43 44.29,-12.55 47.74,-35.68" id="path176" style="fill:#ffc6c3;fill-opacity:1;fill-rule:nonzero;stroke:none"/><path d="m 6540.41,3573.26 c 38.96,-139.05 163.94,-207.19 216.15,-181.68 108.98,53.24 161.44,156.5 122.49,295.55 -38.96,139.06 -142.16,212.71 -237.15,186.1 -95,-26.61 -140.43,-160.92 -101.49,-299.97" id="path178" style="fill:#ffd0ce;fill-opacity:1;fill-rule:nonzero;stroke:none"/><path d="m 6730.9,3940.46 c 128.13,-19.1 153.63,-195.98 151.78,-203.9 -2.95,-12.57 -19.57,-24.8 -26.99,-24.29 -131.35,9.05 -303.64,67.84 -303.64,67.84 0,0 -87.43,-128.23 69.85,-417.92 0,0 -94.38,98 -137.48,254.66 -54.56,198.26 60.54,351.32 246.48,323.61" id="path180" style="fill:#0050b2;fill-opacity:1;fill-rule:nonzero;stroke:none"/><path d="m 5993.5,937.57 1.71,-512.109 85.49,-43.582 76.15,25.941 c 0,0 1.5,127.403 13.93,212.52 12.75,87.269 46.46,296.89 46.46,296.89 l -223.74,20.34" id="path182" style="fill:#ffd0ce;fill-opacity:1;fill-rule:nonzero;stroke:none"/><path d="m 6382.26,873.211 24.82,-631.941 145.73,-44.7 c 0,0 38.37,277.91 46.76,362.93 5.33,54.063 19.46,311.891 19.46,311.891 l -236.77,1.82" id="path184" style="fill:#ffd0ce;fill-opacity:1;fill-rule:nonzero;stroke:none"/><path d="m 6844.37,2526.24 621.39,-63.31 c 0,0 47.76,-320.01 56.05,-502.48 5.34,-117.25 -119.63,-258.33 -646.59,-384.84 -75.05,-18.01 -134.15,-69.47 -134.05,-108.38 1.12,-430.31 -97.79,-882.332 -97.79,-882.332 l -198.83,-38.738 -77.52,40.879 c 0,0 -3.4,556.871 -35.4,736.421 -42.51,238.55 -21.42,102.58 -36.82,-30.05 -16.02,-137.85 -48.2,-492.371 -48.2,-492.371 l -218.83,-11.379 -49.87,25 c 0,0 -30.38,656.91 -33.97,885.41 -4.54,288.95 804.66,561.41 804.66,561.41 46.39,139.3 95.77,264.76 95.77,264.76" id="path186" style="fill:#004381;fill-opacity:1;fill-rule:nonzero;stroke:none"/><path d="m 6770.76,3142.92 c 9.66,40.73 61.02,145.72 61.02,145.72 l 29.61,-23.01 192.95,145.22 c 0,0 193.47,-40.53 250.94,-78.85 140.62,-93.77 138.68,-250 157.81,-370.13 7.65,-48.05 47.33,-235.86 34.31,-427.42 -3.65,-53.59 1.6,-156.43 -41.11,-176.8 -141.31,-67.42 -600.56,-13.81 -644.47,83.37 -23.3,51.56 44,242.46 15,317.6 -14.89,38.57 -53.53,100.16 -70.96,137.64 -36.63,78.77 4.33,202.03 14.9,246.66" id="path188" style="fill:#34eabe;fill-opacity:1;fill-rule:nonzero;stroke:none"/><path d="m 6210.23,10.1523 147.93,-9.980425 c 19.88,-1.332035 39.53,4.968755 54.92,17.628925 l 88.02,72.3984 62.92,23.7308 -0.14,19.949 c 7.5,35.242 -1.25,99.031 -1.25,99.031 0,0 -37.53,-29.18 -88.1,10.551 -27.97,21.969 -56.05,16.949 -86.59,-1.289 L 6363.86,198.039 6222.18,64.9922 c -7.41,-6.9531 -11.65,-16.6524 -11.73,-26.8203 l -0.22,-28.0196" id="path190" style="fill:#004381;fill-opacity:1;fill-rule:nonzero;stroke:none"/><path d="m 6785.14,3240.88 47.45,65.31 32.08,-37.98 -47.21,-88.35 -32.32,61.02" id="path192" style="fill:#00d0bc;fill-opacity:1;fill-rule:nonzero;stroke:none"/><path d="m 6861.39,3265.63 45.79,-97.37 c 74.67,48.89 275.82,230.23 275.82,230.23 l -115.53,36.74 -206.08,-169.6" id="path194" style="fill:#00d0bc;fill-opacity:1;fill-rule:nonzero;stroke:none"/><path d="M 6173.57,381.473 6161.94,432.801 6126.98,420 c -30.88,-11.309 -65.45,-5.211 -90.6,15.98 l -46.57,39.262 -125.95,-117.39 c -7.42,-6.911 -16,-12.493 -25.34,-16.45 l -90.78,-38.57 c -19.56,-8.312 -34.24,-24.84 -40.32,-44.883 -1.37,-4.539 2.09,-9.148 6.84,-9.187 l 192.92,-1.5 c 7.71,-0.051 15.35,1.449 22.47,4.418 l 105.67,43.73 5.11,-23.289 119.32,-0.922 c 0,0 3.69,14.512 6.09,25.09 1.37,6.063 10.48,25.832 10.48,25.832 2.64,20.192 1.74,39.488 -2.75,59.352" id="path196" style="fill:#004381;fill-opacity:1;fill-rule:nonzero;stroke:none"/><path d="m 6995.33,3640.23 c 172.98,-233.33 100.87,-556.68 100.87,-556.68 l -185.08,-10.77 c 0,0 91,201.43 43.25,473.44 -13.58,77.28 -14.38,168.66 40.96,94.01" id="path198" style="fill:#0050b2;fill-opacity:1;fill-rule:nonzero;stroke:none"/><path d="m 6284.55,1763.14 -241.34,550.79 -550.48,126.88 267.23,-501.12 524.59,-176.55" id="path200" style="fill:#ea659d;fill-opacity:1;fill-rule:nonzero;stroke:none"/><path d="m 6284.55,1763.14 485.81,266.75 -562.96,175.65 -92.59,-55.02" id="path202" style="fill:#ea659d;fill-opacity:1;fill-rule:nonzero;stroke:none"/><path d="m 6279.6,1774.42 439.94,239.35 -0.99,14.76 -508.78,164.44 -90.71,-52.12" id="path204" style="fill:#dcf5f9;fill-opacity:1;fill-rule:nonzero;stroke:none"/><path d="m 6506.02,2156.72 c 1.06,1.94 29.87,54.16 56.12,67.9 52.5,27.48 170.06,41.61 229.15,46.04 60.17,4.51 162.15,46.56 178.06,-4.77 8.72,-28.13 -78.33,-122.84 -101.54,-134.96 -31.7,-16.56 -98.99,-18.27 -130.99,-34.24 -18.73,-9.36 -46.02,-27.34 -60.43,-42.51 -4.83,-5.1 -15.11,-16.18 -22.01,-17.48 -2.86,-0.54 -11.29,2.92 -11.29,2.92 0,0 -12.34,-23.64 -19.46,-28.49 -6.68,-4.55 -31.52,-7.19 -31.52,-7.19 l 30.92,130.67 -40.83,-54.91 c 0,0 -15.35,-42.44 -26,-52.28 -12.24,-11.32 -26.28,-3.67 -26.28,-3.67 l 31.43,141.68 c 0,0 -47.89,-64.38 -70.36,-70.55 -9.98,-2.74 -27.96,1.24 -27.96,1.24 l 42.99,60.6" id="path206" style="fill:#ffd0ce;fill-opacity:1;fill-rule:nonzero;stroke:none"/><path d="m 7184.41,3090.83 c -14.6,-135.66 60.89,-477.67 60.89,-477.67 0,0 -108.35,-128.03 -365.45,-232.74 -16.99,-6.92 -22.9,-25.33 -30.39,-43.48 -1.15,-2.76 -39.48,-22.51 -42.23,-35.16 -9.29,-42.7 61.91,-163.21 105.17,-169.33 7.3,-1.04 31.96,14.79 31.96,14.79 0,0 25.01,-8.86 42.56,-1.33 240.24,103.05 455.57,203.74 535.78,351.23 4.78,8.79 4.57,29.81 4.12,39.81 -6.33,142.22 -35.57,392.71 -61.02,549.67 -9.46,58.35 -56.71,226.27 -140.05,226.36 -97.28,0.1 -129.92,-116.02 -141.34,-222.15" id="path208" style="fill:#00d0bc;fill-opacity:1;fill-rule:nonzero;stroke:none"/></g></g></svg>