<?xml version="1.0" ?><svg width="1333.3333px" height="1333.3333px" viewBox="0 0 1333.3333 1333.3333" id="svg2" version="1.1" xml:space="preserve" xmlns="http://www.w3.org/2000/svg" xmlns:inkscape="http://www.inkscape.org/namespaces/inkscape" xmlns:sodipodi="http://sodipodi.sourceforge.net/DTD/sodipodi-0.dtd" xmlns:svg="http://www.w3.org/2000/svg"><defs id="defs6"/><g id="g8" transform="matrix(1.3333333,0,0,-1.3333333,0,1333.3333)"><g id="g10" transform="scale(0.1)"><path d="M 9231.77,865.371 H 787.176 V 739.41 H 9231.77 v 125.961" id="path12" style="fill:#e3edf5;fill-opacity:1;fill-rule:nonzero;stroke:none"/><path d="m 3112.24,5240.26 h -217.7 c -36.54,0 -66.26,29.73 -66.26,66.26 v 244.5 c 0,11.04 8.94,20 20,20 h 237.19 c 11.04,0 20,-8.96 20,-20 v -206.59 c 0,-11.04 -8.96,-20 -20,-20 -11.05,0 -20,8.96 -20,20 v 186.59 h -197.19 v -224.5 c 0,-14.48 11.78,-26.26 26.26,-26.26 h 217.7 c 11.05,0 20,-8.95 20,-20 0,-11.04 -8.95,-20 -20,-20" id="path14" style="fill:#dcf5f9;fill-opacity:1;fill-rule:nonzero;stroke:none"/><path d="m 2939.39,5280.26 h 176.33 c 14.48,0 26.26,11.78 26.26,26.26 v 17.91 h -197.19 v -17.91 c 0,-9.29 -1.91,-18.17 -5.4,-26.26 z m 176.33,-40 h -221.18 c -3.7,0 -7.44,0.34 -11.44,1.04 -9.58,1.67 -16.57,9.98 -16.57,19.7 0,9.72 6.98,18.03 16.56,19.7 12.57,2.2 21.7,13.06 21.7,25.82 v 37.91 c 0,11.04 8.95,20 20,20 h 237.19 c 11.04,0 20,-8.96 20,-20 v -37.91 c 0,-36.53 -29.73,-66.26 -66.26,-66.26" id="path16" style="fill:#dcf5f9;fill-opacity:1;fill-rule:nonzero;stroke:none"/><path d="m 3026.36,5462.15 h -120.7 c -11.04,0 -20,8.96 -20,20 0,11.05 8.96,20 20,20 h 120.7 c 11.05,0 20,-8.95 20,-20 0,-11.04 -8.95,-20 -20,-20" id="path18" style="fill:#dcf5f9;fill-opacity:1;fill-rule:nonzero;stroke:none"/><path d="m 3026.36,5393.29 h -120.7 c -11.04,0 -20,8.96 -20,20 0,11.05 8.96,20 20,20 h 120.7 c 11.05,0 20,-8.95 20,-20 0,-11.04 -8.95,-20 -20,-20" id="path20" style="fill:#dcf5f9;fill-opacity:1;fill-rule:nonzero;stroke:none"/><path d="m 2784.84,5290 c -11.05,0 -20,8.95 -20,20 v 302.22 c 0,11.05 8.95,20 20,20 h 300.63 c 11.04,0 20,-8.95 20,-20 0,-11.04 -8.96,-20 -20,-20 H 2804.84 V 5310 c 0,-11.05 -8.95,-20 -20,-20" id="path22" style="fill:#dcf5f9;fill-opacity:1;fill-rule:nonzero;stroke:none"/><path d="m 6484.14,6222.45 v -152.99 l 253.86,0.08 c 3.33,0 6.13,2.81 6.13,6.14 0,3.32 -2.8,6.13 -6.13,6.13 -11.05,0 -20,8.95 -20,20 0,11.04 8.95,20 20,20 h 14.95 c 5.48,0 10.1,4.63 10.1,10.11 0,5.47 -4.62,10.1 -10.1,10.1 -11.05,0 -20,8.96 -20,20 0,11.05 8.95,20 20,20 h 4.4 c 6.18,0 11.4,5.22 11.4,11.4 0,6.19 -5.22,11.41 -11.4,11.41 h -4.4 c -11.05,0 -20,8.95 -20,20 0,11.04 8.95,20 20,20 5.48,0 10.1,4.62 10.1,10.1 0,5.48 -4.62,10.11 -10.1,10.11 l -109.02,-0.02 c -7.11,0 -13.69,3.78 -17.27,9.92 -3.59,6.14 -3.64,13.72 -0.14,19.92 0.5,0.96 15.23,29.69 1.11,80.71 -1.84,6.66 -4.59,10.98 -8.16,12.84 0.56,-14.26 -0.74,-33.07 -8.29,-50.92 -8.08,-19.12 -24.97,-37.11 -38.1,-47.57 -29.03,-23.16 -33.73,-49.13 -33.91,-50.23 -1.62,-9.53 -9.89,-16.78 -19.56,-16.88 z m -20,-192.99 c -5.3,0 -10.39,2.1 -14.14,5.85 -3.76,3.75 -5.86,8.84 -5.86,14.15 v 192.79 c 0,10.96 8.83,19.89 19.79,20 l 40.52,0.41 c 5.79,15.19 18.13,38.13 43.7,58.53 9.55,7.61 21.35,20.42 26.18,31.87 9.45,22.35 3.38,49.46 3.32,49.73 -2.23,9.73 3.02,19.69 12.35,23.25 2.55,0.97 25.54,9.18 47.43,-1.88 9.69,-4.91 22.54,-15.46 28.76,-37.92 9.54,-34.51 8.41,-62.14 4.84,-81.21 l 81.91,0.01 c 27.63,0 50.11,-22.48 50.11,-50.11 0,-9.86 -2.86,-19.06 -7.8,-26.82 8.38,-9.15 13.5,-21.33 13.5,-34.69 0,-13.35 -5.12,-25.53 -13.5,-34.68 4.94,-7.76 7.8,-16.97 7.8,-26.82 0,-17 -8.5,-32.04 -21.47,-41.1 1.65,-4.75 2.55,-9.84 2.55,-15.14 0,-25.44 -20.69,-46.14 -46.13,-46.14 l -273.86,-0.08" id="path24" style="fill:#dcf5f9;fill-opacity:1;fill-rule:nonzero;stroke:none"/><path d="m 2007.28,8534.26 c 3.2,0 6.38,-0.76 9.29,-2.28 l 62.65,-32.83 -11.95,69.42 c -1.12,6.49 1.05,13.13 5.77,17.73 l 50.55,49.1 -69.92,10.12 c -6.5,0.95 -12.13,5.03 -15.05,10.92 l -31.34,63.27 -31.32,-63.27 c -2.92,-5.89 -8.55,-9.97 -15.05,-10.92 l -69.92,-10.12 50.54,-49.1 c 4.74,-4.6 6.9,-11.24 5.77,-17.74 l -11.94,-69.41 62.65,32.83 c 2.9,1.52 6.09,2.28 9.27,2.28 z m -98.49,-91.61 c -4.16,0 -8.29,1.29 -11.78,3.83 -6.15,4.48 -9.23,12.06 -7.94,19.56 l 17.02,98.92 -72.12,70.07 c -5.47,5.31 -7.44,13.26 -5.09,20.51 2.36,7.25 8.62,12.53 16.17,13.63 l 99.72,14.43 44.59,90.05 c 3.37,6.82 10.33,11.13 17.92,11.13 7.61,0 14.55,-4.31 17.93,-11.13 l 44.59,-90.05 99.74,-14.43 c 7.54,-1.1 13.8,-6.38 16.15,-13.63 2.35,-7.25 0.38,-15.2 -5.09,-20.51 l -72.12,-70.07 17.02,-98.92 c 1.28,-7.5 -1.79,-15.08 -7.94,-19.56 -6.16,-4.48 -14.31,-5.08 -21.06,-1.55 l -89.22,46.76 -89.22,-46.76 c -2.92,-1.53 -6.1,-2.28 -9.27,-2.28" id="path26" style="fill:#dcf5f9;fill-opacity:1;fill-rule:nonzero;stroke:none"/><path d="m 8505.02,7758.61 c 0,-30.7 -21.24,-55.67 -47.34,-55.67 h -157.31 c -26.11,0 -47.35,24.97 -47.35,55.67 v 132.01 c 0,30.69 21.24,55.67 47.35,55.67 h 157.31 c 26.1,0 47.34,-24.98 47.34,-55.67 z m -47.34,227.68 h -157.31 c -48.16,0 -87.35,-42.92 -87.35,-95.67 v -132.01 c 0,-52.75 39.19,-95.67 87.35,-95.67 h 157.31 c 48.16,0 87.34,42.92 87.34,95.67 v 132.01 c 0,52.75 -39.18,95.67 -87.34,95.67" id="path28" style="fill:#dcf5f9;fill-opacity:1;fill-rule:nonzero;stroke:none"/><path d="m 8333.24,7768.87 c -1.98,-1.98 -5.2,-2 -7.17,-0.04 -0.93,0.94 -1.47,2.24 -1.47,3.56 0,1.35 0.55,2.67 1.5,3.64 0.96,0.95 2.28,1.5 3.63,1.5 1.32,0 2.62,-0.54 3.56,-1.47 1.96,-1.97 1.94,-5.19 -0.05,-7.19 z m -28.28,28.29 c -13.6,-13.6 -13.58,-35.76 0.04,-49.39 6.59,-6.59 15.35,-10.23 24.67,-10.24 9.37,0 18.13,3.62 24.71,10.21 6.61,6.6 10.23,15.38 10.22,24.72 -0.02,9.31 -3.66,18.07 -10.24,24.66 -13.63,13.62 -35.79,13.64 -49.4,0.04" id="path30" style="fill:#dcf5f9;fill-opacity:1;fill-rule:nonzero;stroke:none"/><path d="m 8325.05,7910.53 c -11.06,0 -20.01,-8.93 -20.03,-19.97 -0.01,-11.05 8.94,-20.01 19.98,-20.03 27.51,-0.03 53.35,-10.74 72.77,-30.15 19.41,-19.39 30.07,-45.14 30.03,-72.52 -0.01,-11.05 8.93,-20.01 19.97,-20.03 11.07,0 20.02,8.94 20.03,19.97 0.05,38.09 -14.77,73.92 -41.76,100.87 -26.95,26.95 -62.82,41.81 -100.99,41.86" id="path32" style="fill:#dcf5f9;fill-opacity:1;fill-rule:nonzero;stroke:none"/><path d="m 8320.49,7861.87 c -11.06,0 -20.01,-8.94 -20.02,-19.97 -0.02,-11.05 8.92,-20.02 19.97,-20.03 15.71,-0.02 30.47,-6.14 41.55,-17.22 11.07,-11.06 17.15,-25.74 17.13,-41.35 -0.01,-11.05 8.93,-20.02 19.97,-20.03 11.07,0 20.02,8.93 20.03,19.97 0.04,26.32 -10.21,51.08 -28.86,69.71 -18.62,18.61 -43.39,28.88 -69.77,28.92" id="path34" style="fill:#dcf5f9;fill-opacity:1;fill-rule:nonzero;stroke:none"/><path d="m 1319.94,6816.53 c -9.06,0 -17.96,-2.52 -25.84,-7.43 -11.13,-6.92 -18.91,-17.77 -21.88,-30.54 -6.13,-26.36 10.33,-52.81 36.69,-58.94 26.39,-6.12 52.81,10.33 58.94,36.68 6.13,26.36 -10.33,52.8 -36.69,58.94 -3.73,0.86 -7.49,1.29 -11.22,1.29 z m 0.09,-138.2 c -6.66,0 -13.42,0.75 -20.19,2.33 -47.84,11.14 -77.7,59.12 -66.57,106.96 5.39,23.18 19.49,42.87 39.69,55.45 20.2,12.56 44.09,16.53 67.27,11.13 47.84,-11.14 77.71,-59.12 66.57,-106.96 -9.56,-41.08 -46.29,-68.91 -86.77,-68.91" id="path36" style="fill:#dcf5f9;fill-opacity:1;fill-rule:nonzero;stroke:none"/><path d="m 8424.29,1609.66 85.76,-12.27 11.7,81.72 -85.77,12.27 z m 119.68,-57.54 -164.95,23.62 23.03,160.9 164.96,-23.61 -23.04,-160.91" id="path38" style="fill:#dcf5f9;fill-opacity:1;fill-rule:nonzero;stroke:none"/><path d="m 1172.25,3378.11 -6.38,39.49 58.83,9.52 6.39,-39.49 -58.84,-9.52" id="path40" style="fill:#dcf5f9;fill-opacity:1;fill-rule:nonzero;stroke:none"/><path d="m 1231.04,3442.21 -9.34,57.74 39.48,6.39 9.34,-57.75 -39.48,-6.38" id="path42" style="fill:#dcf5f9;fill-opacity:1;fill-rule:nonzero;stroke:none"/><path d="m 1295.41,3398.04 -6.39,39.49 55.65,9 6.38,-39.49 -55.64,-9" id="path44" style="fill:#dcf5f9;fill-opacity:1;fill-rule:nonzero;stroke:none"/><path d="m 1251.48,3316 -9.88,61.03 39.48,6.39 9.88,-61.04 -39.48,-6.38" id="path46" style="fill:#dcf5f9;fill-opacity:1;fill-rule:nonzero;stroke:none"/><path d="m 7982.58,5725.09 -6.39,39.49 58.84,9.52 6.39,-39.49 -58.84,-9.52" id="path48" style="fill:#dcf5f9;fill-opacity:1;fill-rule:nonzero;stroke:none"/><path d="m 8041.37,5789.19 -9.35,57.74 39.48,6.39 9.35,-57.74 -39.48,-6.39" id="path50" style="fill:#dcf5f9;fill-opacity:1;fill-rule:nonzero;stroke:none"/><path d="m 8105.73,5745.02 -6.38,39.49 55.64,9.01 6.39,-39.5 -55.65,-9" id="path52" style="fill:#dcf5f9;fill-opacity:1;fill-rule:nonzero;stroke:none"/><path d="m 8061.81,5662.98 -9.89,61.03 39.49,6.39 9.88,-61.03 -39.48,-6.39" id="path54" style="fill:#dcf5f9;fill-opacity:1;fill-rule:nonzero;stroke:none"/><path d="m 2385.94,2117.49 -32.58,23.2 82.41,115.75 121.18,-81.67 -22.35,-33.17 -88.86,59.88 -59.8,-83.99" id="path56" style="fill:#dcf5f9;fill-opacity:1;fill-rule:nonzero;stroke:none"/><path d="m 6729.63,867.59 c 712.5,776.79 754.58,1155.36 862.45,1773.34 75.9,434.88 41.99,795.4 42.11,798.61 0.44,11.97 -8.53,22.06 -20.05,22.53 -11.52,0.45 -21.21,-8.88 -21.66,-20.85 -0.11,-3.17 -18.68,-349.93 -114.14,-869.06 C 7200.05,1058.63 6174.93,872.75 6172.22,868.242 l 557.41,-0.652" id="path58" style="fill:#bdffd8;fill-opacity:1;fill-rule:nonzero;stroke:none"/><path d="m 7408.85,1955.38 c -31.58,252.67 86.87,719.01 347.61,920.29 222.51,171.76 330.05,355.66 330.05,355.66 0,0 50.31,-205.56 30.45,-456.77 -13.35,-168.91 -140.78,-383.03 -295.5,-459.8 -275.16,-136.53 -412.61,-359.38 -412.61,-359.38" id="path60" style="fill:#bdffd8;fill-opacity:1;fill-rule:nonzero;stroke:none"/><path d="m 7612.42,3079.17 c -130.51,224.96 -280.23,335.65 -262.29,615.07 13.58,211.48 -38.69,451.78 -38.69,451.78 0,0 182.95,-59.72 306.51,-179.73 111.59,-108.41 147.18,-281.03 106.74,-442.99 -29.14,-116.72 -112.27,-444.13 -112.27,-444.13" id="path62" style="fill:#bdffd8;fill-opacity:1;fill-rule:nonzero;stroke:none"/><path d="m 6729.63,867.59 c 17.05,215.59 477.24,868.87 717.71,998.31 280,150.73 447.85,153.38 621.45,315.91 0,0 -25.88,-182.57 -116.25,-477.8 -81.63,-266.64 -265.24,-567.65 -543.08,-606.81 -346.45,-48.82 -679.83,-229.61 -679.83,-229.61" id="path64" style="fill:#bdffd8;fill-opacity:1;fill-rule:nonzero;stroke:none"/><path d="m 7092.71,3595.5 c 105.82,-433.86 642.58,-737.05 249.62,-1657.1 0,0 -123.1,306.31 -255.73,438.88 -193.98,193.89 -219.18,482.26 -162.27,751.48 41.02,194.01 168.38,466.74 168.38,466.74" id="path66" style="fill:#bdffd8;fill-opacity:1;fill-rule:nonzero;stroke:none"/><path d="m 6622.13,901.43 c -54.03,447.4 -249.45,700.95 -128.78,1125.98 97.18,342.31 -39.73,613.52 -39.73,613.52 0,0 319.53,-161.45 507.83,-404.47 170.07,-219.5 142.72,-384.16 93.49,-657.09 C 6987.78,1207 6622.13,901.43 6622.13,901.43" id="path68" style="fill:#bdffd8;fill-opacity:1;fill-rule:nonzero;stroke:none"/><path d="m 5300.01,971.781 h 46.91 V 3402.15 h -46.91 V 971.781" id="path70" style="fill:#00bac8;fill-opacity:1;fill-rule:nonzero;stroke:none"/><path d="m 4153.68,2210.43 v -46.92 h 2339.56 v 46.92 H 4153.68" id="path72" style="fill:#00bac8;fill-opacity:1;fill-rule:nonzero;stroke:none"/><path d="m 4427.68,1324.36 33.18,-33.18 1758.39,1758.39 -33.18,33.18 -1758.39,-1758.39" id="path74" style="fill:#00bac8;fill-opacity:1;fill-rule:nonzero;stroke:none"/><path d="m 6234.44,1309.17 -33.18,-33.18 -1725.9,1725.91 33.17,33.17 1725.91,-1725.9" id="path76" style="fill:#00bac8;fill-opacity:1;fill-rule:nonzero;stroke:none"/><path d="m 4178.01,2186.97 c 0,673.43 512.84,1219.35 1145.45,1219.35 632.62,0 1145.45,-545.92 1145.45,-1219.35 0,-673.43 -512.83,-1219.361 -1145.45,-1219.361 -632.61,0 -1145.45,545.931 -1145.45,1219.361 z m -93.96,0 c 0,-728.67 554.91,-1319.38 1239.41,-1319.38 684.51,0 1239.41,590.71 1239.41,1319.38 0,728.67 -554.9,1319.37 -1239.41,1319.37 -684.5,0 -1239.41,-590.7 -1239.41,-1319.37" id="path78" style="fill:#00bac8;fill-opacity:1;fill-rule:nonzero;stroke:none"/><path d="m 4241.58,2186.97 c 0,673.43 512.83,1219.35 1145.45,1219.35 632.63,0 1145.46,-545.92 1145.46,-1219.35 0,-673.43 -512.83,-1219.361 -1145.46,-1219.361 -632.62,0 -1145.45,545.931 -1145.45,1219.361 z m -93.96,0 c 0,-728.67 554.91,-1319.38 1239.41,-1319.38 684.51,0 1239.41,590.71 1239.41,1319.38 0,728.67 -554.9,1319.37 -1239.41,1319.37 -684.5,0 -1239.41,-590.7 -1239.41,-1319.37" id="path80" style="fill:#00bac8;fill-opacity:1;fill-rule:nonzero;stroke:none"/><path d="m 5121.28,2186.97 c 0,-118.87 90.51,-215.24 202.18,-215.24 111.67,0 202.19,96.37 202.19,215.24 0,118.87 -90.52,215.23 -202.19,215.23 -111.67,0 -202.18,-96.36 -202.18,-215.23" id="path82" style="fill:#00bac8;fill-opacity:1;fill-rule:nonzero;stroke:none"/><path d="m 5184.84,2186.97 c 0,-118.87 90.53,-215.24 202.19,-215.24 111.67,0 202.2,96.37 202.2,215.24 0,118.87 -90.53,215.23 -202.2,215.23 -111.66,0 -202.19,-96.36 -202.19,-215.23" id="path84" style="fill:#00bac8;fill-opacity:1;fill-rule:nonzero;stroke:none"/><path d="m 5296.26,2186.97 c 0,-53.38 40.64,-96.64 90.77,-96.64 50.14,0 90.78,43.26 90.78,96.64 0,53.37 -40.64,96.63 -90.78,96.63 -50.13,0 -90.77,-43.26 -90.77,-96.63" id="path86" style="fill:#00bac8;fill-opacity:1;fill-rule:nonzero;stroke:none"/><path d="m 3351.61,1146.61 c 0,-154.09 117.35,-279.02 262.1,-279.02 144.75,0 262.11,124.93 262.11,279.02 0,154.09 -117.36,279.01 -262.11,279.01 -144.75,0 -262.1,-124.92 -262.1,-279.01" id="path88" style="fill:#00bac8;fill-opacity:1;fill-rule:nonzero;stroke:none"/><path d="m 3434.02,1146.61 c 0,-154.09 117.34,-279.02 262.1,-279.02 144.76,0 262.1,124.93 262.1,279.02 0,154.09 -117.34,279.01 -262.1,279.01 -144.76,0 -262.1,-124.92 -262.1,-279.01" id="path90" style="fill:#00bac8;fill-opacity:1;fill-rule:nonzero;stroke:none"/><path d="m 3578.44,1146.61 c 0,-69.19 52.69,-125.27 117.68,-125.27 64.99,0 117.68,56.08 117.68,125.27 0,69.18 -52.69,125.27 -117.68,125.27 -64.99,0 -117.68,-56.09 -117.68,-125.27" id="path92" style="fill:#00bac8;fill-opacity:1;fill-rule:nonzero;stroke:none"/><path d="m 5300.01,2834.41 v 155.27 c 0,0 -1140.3,0 -1517.37,0 -85.75,0 -167.74,-69.52 -167.74,-155.27 h 1685.11" id="path94" style="fill:#00bac8;fill-opacity:1;fill-rule:nonzero;stroke:none"/><path d="m 5323.46,2130.89 c 30.09,0 54.5,24.39 54.5,54.49 v 2489.95 c 0,176.82 143.84,320.67 320.66,320.67 h 342.24 c 30.09,0 54.49,24.4 54.49,54.49 0,30.09 -24.4,54.49 -54.49,54.49 h -342.24 c -236.9,0 -429.65,-192.74 -429.65,-429.65 V 2185.38 c 0,-30.1 24.4,-54.49 54.49,-54.49" id="path96" style="fill:#00bac8;fill-opacity:1;fill-rule:nonzero;stroke:none"/><path d="m 3654.92,1090.94 c 30.09,0 54.48,24.4 54.48,54.49 v 2183.98 c 0,214.5 174.51,389.01 389.03,389.01 h 1225.03 c 30.09,0 54.5,24.4 54.5,54.49 0,30.09 -24.41,54.48 -54.5,54.48 H 4098.43 c -274.6,0 -498,-223.39 -498,-497.98 V 1145.43 c 0,-30.09 24.39,-54.49 54.49,-54.49" id="path98" style="fill:#00bac8;fill-opacity:1;fill-rule:nonzero;stroke:none"/><path d="m 3155.04,1090.94 c 25.17,0 47.79,17.55 53.24,43.16 l 152.27,716.37 c 29.37,138.12 153.17,238.36 294.37,238.36 30.09,0 54.48,24.4 54.48,54.49 0,30.09 -24.39,54.49 -54.48,54.49 -192.34,0 -360.97,-136.55 -400.96,-324.68 l -152.28,-716.36 c -6.25,-29.44 12.54,-58.37 41.97,-64.63 3.82,-0.81 7.63,-1.2 11.39,-1.2" id="path100" style="fill:#00bac8;fill-opacity:1;fill-rule:nonzero;stroke:none"/><path d="m 3561.71,2733.4 h 1761.75 c 30.09,0 54.5,24.4 54.5,54.49 0,30.09 -24.41,54.49 -54.5,54.49 H 3561.71 c -30.1,0 -54.5,-24.4 -54.5,-54.49 0,-30.09 24.4,-54.49 54.5,-54.49" id="path102" style="fill:#00bac8;fill-opacity:1;fill-rule:nonzero;stroke:none"/><path d="m 2791.84,1090.95 h 363.14 c 30.1,0 54.49,24.4 54.49,54.49 0,30.09 -24.39,54.49 -54.49,54.49 h -363.14 c -30.09,0 -54.49,-24.4 -54.49,-54.49 0,-30.09 24.4,-54.49 54.49,-54.49" id="path104" style="fill:#00bac8;fill-opacity:1;fill-rule:nonzero;stroke:none"/><path d="m 5980.16,4953.76 h 495.36 c 25.46,0 46.11,20.64 46.11,46.1 v 101.26 c 0,25.46 -20.65,46.1 -46.11,46.1 h -495.36 c -25.47,0 -46.1,-20.64 -46.1,-46.1 v -101.26 c 0,-25.46 20.63,-46.1 46.1,-46.1" id="path106" style="fill:#00bac8;fill-opacity:1;fill-rule:nonzero;stroke:none"/><path d="m 5586.87,3773.49 h 424.65 c 44.99,0 81.47,36.48 81.47,81.47 v 743.1 c 0,44.99 -36.48,81.47 -81.47,81.47 h -424.65 c -44.99,0 -81.45,-36.48 -81.45,-81.47 v -743.1 c 0,-44.99 36.46,-81.47 81.45,-81.47" id="path108" style="fill:#00bac8;fill-opacity:1;fill-rule:nonzero;stroke:none"/><path d="m 3403.54,1271.76 5.34,145.87 -15.48,87.97 -299.63,32.14 -25.88,-66.02 c 0,0 -127.94,-131.13 -196.24,-155.21 -36.3,-12.79 -116.7,-28.79 -152.4,-43.15 -40.46,-16.27 -12.5,-69.76 -12.5,-69.76 l 378.28,-6.77 124.98,47.54 -3.63,-50.62 172.81,-4.39 24.35,82.4" id="path110" style="fill:#004381;fill-opacity:1;fill-rule:nonzero;stroke:none"/><path d="m 5184.44,4249.61 116.5,-943.64 -141.61,-333.01 -1493.24,-50.47 17.09,-282.07 -247.13,-1165.06 -266.32,7.28 -108.13,15.56 81.81,1625.66 -26.44,156.47 131.27,212.31 1222.59,536.48 109.95,419.08 603.66,-198.59" id="path112" style="fill:#0096c6;fill-opacity:1;fill-rule:nonzero;stroke:none"/><path d="m 3849.48,1247.34 5.33,145.88 -7.21,88.14 -296.03,12.41 c 0,0 -25.96,-73.79 -29.34,-74.82 -7.33,-2.26 -128.07,-102.6 -196.37,-126.68 -36.29,-12.79 -118.1,-25.71 -152.41,-43.16 -58.37,-29.68 -9.2,-66.99 -9.2,-66.99 l 374.99,-9.53 124.98,47.54 -3.62,-50.62 172.81,-4.39 16.07,82.22" id="path114" style="fill:#00649f;fill-opacity:1;fill-rule:nonzero;stroke:none"/><path d="m 5830.28,4245.35 c 0,0 -4.66,-782.25 -64.88,-1009.4 -13.33,-50.31 -48.79,-122.89 -84.53,-188.72 -53.4,-98.38 -155.26,-160.75 -267.13,-164.25 l -1233.68,-38.54 1.21,-295.65 -265.73,-1134.23 -280.78,9.96 -120.99,22.86 63,1679.59 -11.68,142.87 149.77,160.21 1120.85,434.09 254.22,410.8 740.35,-29.59" id="path116" style="fill:#00add6;fill-opacity:1;fill-rule:nonzero;stroke:none"/><path d="m 3924.5,3423.08 637.06,129.3 c 6.13,1.24 6.27,8.73 0.19,10.63 l -709.9,221.97 -701.93,-122.01 774.58,-239.89" id="path118" style="fill:#00649f;fill-opacity:1;fill-rule:nonzero;stroke:none"/><path d="m 3889.12,3433.89 610.43,122.31 -1.11,6.18 c -0.63,3.48 -3.44,6.45 -7.29,7.67 l -636.05,203.44 -677.66,-119.21 711.68,-220.39" id="path120" style="fill:#dcf5f9;fill-opacity:1;fill-rule:nonzero;stroke:none"/><path d="m 3423.36,3942.72 c 34.05,48.16 32.6,84.68 42.8,92.04 27.34,19.71 183.01,62.59 183.01,62.59 l 177.1,-18.14 677.21,460.63 464.93,-233.68 -972.24,-452.04 c 0,0 -99.27,-82.64 -172.73,-96.62 -49.11,-9.35 -93.93,46.39 -147.67,53.3 -32.41,4.17 -109.03,11.53 -117.84,-12.66 -4.14,-11.4 31.58,-18.95 31.58,-18.95 34.61,27.9 56.43,32.97 67.46,22.61 8.68,-8.15 12.23,-18.51 -2.13,-37.15 -18.2,-23.64 -28.81,-35 -46.22,-42.81 -22.17,-9.95 -95.13,11.34 -103.7,14.02 -12.81,4.01 -69.11,47.64 -70.36,55.1 -7.43,44.26 -4.63,60.58 -11.73,79.34 -5.11,13.49 -20.12,43.22 0.53,72.42" id="path122" style="fill:#ffc6c3;fill-opacity:1;fill-rule:nonzero;stroke:none"/><path d="m 4710.3,4517.96 -80.61,-213.23 -205.28,239.24 c 0,0 -42.3,838.43 85.99,959.31 131.58,123.98 453.9,-32.53 453.9,-32.53 l -254,-952.79" id="path124" style="fill:#93e7f3;fill-opacity:1;fill-rule:nonzero;stroke:none"/><path d="m 4766.82,5365.92 511.82,322.87 -177.62,546.52 -439.76,-88 117.56,-421.72 -12,-359.67" id="path126" style="fill:#ffc6c3;fill-opacity:1;fill-rule:nonzero;stroke:none"/><path d="m 5240.72,5700.54 c -316.46,-303.51 -480.88,-28.37 -480.88,-28.37 l -100.77,-489.14 493.34,84.33 88.31,433.18" id="path128" style="fill:#93e7f3;fill-opacity:1;fill-rule:nonzero;stroke:none"/><path d="m 5798.71,5582.29 c -91.18,113.62 -556.93,233.2 -556.93,233.2 0,0 -79.58,-176.7 -151.26,-311.71 -52.3,-98.53 -281.98,-353.8 -281.98,-353.8 l -29.72,575.61 c 0,0 -245.72,-128.09 -285.33,-220.04 -85.15,-197.66 79.22,-989.87 79.22,-989.87 l -111.75,-562.8 118.67,-107.15 1264.48,-91.13 c 0,0 42.23,416.69 65.84,617.86 14.43,123 -4.57,478.01 -4.58,601.99 -0.01,154.28 -10.1,487.51 -106.66,607.84" id="path130" style="fill:#00d0bc;fill-opacity:1;fill-rule:nonzero;stroke:none"/><path d="m 5015.13,6228.13 -38.61,-338.89 -271.41,-112.78 -28.45,29.22 -4.65,47.19 -80.24,144.52 -94.29,-0.73 28.01,193.75 -39.32,237.39 267.82,57.88 115,24.94 59.42,-18.86 86.72,-263.63" id="path132" style="fill:#ffd0ce;fill-opacity:1;fill-rule:nonzero;stroke:none"/><path d="m 4513.16,6387.75 c 108.76,-24.33 459.8,81.01 459.8,81.01 0,0 -20.15,245.94 -169.62,205.97 -186.08,-49.75 -247.24,-80.38 -303.9,-86.9 -21.43,-2.47 -125.48,8.29 -108.94,-24.45 42.1,-83.43 25.51,-153.91 122.66,-175.63" id="path134" style="fill:#86605f;fill-opacity:1;fill-rule:nonzero;stroke:none"/><path d="m 5018.38,6209.82 99.26,-25.65 c 0,0 39.3,96.7 45.93,178.2 12.31,151.2 -43.52,301.82 -273.71,299.26 l 5.02,-214.78 c 10.18,-53.57 61.92,-204.95 123.5,-237.03" id="path136" style="fill:#86605f;fill-opacity:1;fill-rule:nonzero;stroke:none"/><path d="m 5044.96,6267.77 c -17.65,22.8 -50.26,27.11 -72.83,9.63 -22.57,-17.47 -26.57,-50.12 -8.92,-72.92 17.65,-22.8 50.25,-27.11 72.83,-9.63 22.58,17.48 26.57,50.13 8.92,72.92" id="path138" style="fill:#ffc6c3;fill-opacity:1;fill-rule:nonzero;stroke:none"/><path d="m 4460.96,3702.13 1037.69,245.51 -398.41,424.82 -753.05,-414.91 113.77,-255.42" id="path140" style="fill:#ffd0ce;fill-opacity:1;fill-rule:nonzero;stroke:none"/><path d="m 5524.98,3893.44 c 0,0 456.33,788.15 418.83,1457.46 -10.45,186.47 -153.91,285.06 -310.88,228.12 -113.09,-41.02 -266.28,-258.41 -321.87,-367.07 -117.05,-228.81 -267.63,-848.39 -267.63,-848.39 l 481.55,-470.12" id="path142" style="fill:#93e7f3;fill-opacity:1;fill-rule:nonzero;stroke:none"/><path d="m 4347.19,3957.55 -195.73,4.41 c 0,0 -129.17,-18.34 -164.5,-51.34 -7.67,-7.15 -24.01,-22.53 -30.65,-30.65 -4.29,-5.24 -33.25,-25.35 -37.46,-30.65 -22.61,-28.36 -52.22,-103.3 -52.22,-103.3 0,0 -26.64,-146.99 -8.56,-179.2 4.85,-8.63 26.68,-17.52 36.39,-15.59 54.48,10.84 126.05,94.98 181.04,102.84 63.22,9.04 194.06,-43.77 243.35,-35.42 73.72,12.5 174.64,93.12 174.64,93.12 l -146.3,245.78" id="path144" style="fill:#ffd0ce;fill-opacity:1;fill-rule:nonzero;stroke:none"/><path d="m 3924.5,3423.08 -461.21,414.06 c -2.82,2.54 -6.73,4.56 -11.04,5.68 l -724.21,190.16 c -19.17,5.03 -28.61,-8.33 -13.6,-19.1 l 435.48,-350.91 774.58,-239.89" id="path146" style="fill:#004381;fill-opacity:1;fill-rule:nonzero;stroke:none"/><path d="m 2863.66,1090.95 h 1037.38 c 30.09,0 54.48,24.4 54.48,54.49 0,30.09 -24.39,54.49 -54.48,54.49 H 2863.66 c -30.09,0 -54.48,-24.4 -54.48,-54.49 0,-30.09 24.39,-54.49 54.48,-54.49" id="path148" style="fill:#00bac8;fill-opacity:1;fill-rule:nonzero;stroke:none"/><path d="m 6046.06,2834.41 v 155.27 c 0,0 -1140.28,0 -1517.35,0 -85.76,0 -167.75,-69.52 -167.75,-155.27 h 1685.1" id="path150" style="fill:#0096c6;fill-opacity:1;fill-rule:nonzero;stroke:none"/><path d="m 6069.52,2194.46 c 30.1,0 54.49,24.4 54.49,54.49 v 2426.38 c 0,176.82 143.86,320.67 320.68,320.67 h 342.23 c 30.09,0 54.48,24.4 54.48,54.49 0,30.09 -24.39,54.49 -54.48,54.49 h -342.23 c -236.92,0 -429.65,-192.74 -429.65,-429.65 V 2248.95 c 0,-30.09 24.39,-54.49 54.48,-54.49" id="path152" style="fill:#4acfd3;fill-opacity:1;fill-rule:nonzero;stroke:none"/><path d="m 4400.97,1225.65 c 30.1,0 54.5,24.4 54.5,54.48 v 2049.28 c 0,214.5 174.51,389.01 389.01,389.01 h 1225.04 c 30.1,0 54.49,24.4 54.49,54.49 0,30.09 -24.39,54.48 -54.49,54.48 H 4844.48 c -274.59,0 -498,-223.39 -498,-497.98 V 1280.13 c 0,-30.08 24.41,-54.48 54.49,-54.48" id="path154" style="fill:#4acfd3;fill-opacity:1;fill-rule:nonzero;stroke:none"/><path d="m 3901.09,1090.94 c 25.19,0 47.8,17.55 53.24,43.16 l 152.29,716.37 c 29.35,138.12 153.15,238.36 294.35,238.36 30.1,0 54.5,24.4 54.5,54.49 0,30.09 -24.4,54.49 -54.5,54.49 -192.33,0 -360.95,-136.55 -400.95,-324.68 l -152.28,-716.36 c -6.26,-29.44 12.53,-58.37 41.96,-64.63 3.82,-0.81 7.64,-1.2 11.39,-1.2" id="path156" style="fill:#4acfd3;fill-opacity:1;fill-rule:nonzero;stroke:none"/><path d="m 4307.76,2733.4 h 1761.76 c 30.1,0 54.49,24.4 54.49,54.49 0,30.09 -24.39,54.49 -54.49,54.49 H 4307.76 c -30.1,0 -54.49,-24.4 -54.49,-54.49 0,-30.09 24.39,-54.49 54.49,-54.49" id="path158" style="fill:#4acfd3;fill-opacity:1;fill-rule:nonzero;stroke:none"/><path d="m 3537.9,1090.95 h 363.14 c 30.09,0 54.48,24.4 54.48,54.49 0,30.09 -24.39,54.49 -54.48,54.49 H 3537.9 c -30.09,0 -54.49,-24.4 -54.49,-54.49 0,-30.09 24.4,-54.49 54.49,-54.49" id="path160" style="fill:#4acfd3;fill-opacity:1;fill-rule:nonzero;stroke:none"/><path d="m 6726.22,4953.76 h 495.36 c 25.47,0 46.11,20.64 46.11,46.1 v 101.26 c 0,25.46 -20.64,46.1 -46.11,46.1 h -495.36 c -25.46,0 -46.11,-20.64 -46.11,-46.1 v -101.26 c 0,-25.46 20.65,-46.1 46.11,-46.1" id="path162" style="fill:#00bac8;fill-opacity:1;fill-rule:nonzero;stroke:none"/><path d="m 6046.06,971.781 h 46.93 V 3402.15 h -46.93 V 971.781" id="path164" style="fill:#4acfd3;fill-opacity:1;fill-rule:nonzero;stroke:none"/><path d="m 4899.74,2210.43 v -46.92 h 2339.57 v 46.92 H 4899.74" id="path166" style="fill:#4acfd3;fill-opacity:1;fill-rule:nonzero;stroke:none"/><path d="m 5173.74,1324.36 33.17,-33.18 1758.4,1758.39 -33.18,33.18 -1758.39,-1758.39" id="path168" style="fill:#4acfd3;fill-opacity:1;fill-rule:nonzero;stroke:none"/><path d="m 6949.16,1340.51 -33.19,-33.17 -1694.56,1694.56 33.19,33.17 1694.56,-1694.56" id="path170" style="fill:#4acfd3;fill-opacity:1;fill-rule:nonzero;stroke:none"/><path d="m 4924.07,2186.97 c 0,673.43 512.83,1219.35 1145.45,1219.35 632.63,0 1145.46,-545.92 1145.46,-1219.35 0,-673.43 -512.83,-1219.361 -1145.46,-1219.361 -632.62,0 -1145.45,545.931 -1145.45,1219.361 z m -93.96,0 c 0,-728.67 554.91,-1319.38 1239.41,-1319.38 684.51,0 1239.42,590.71 1239.42,1319.38 0,728.67 -554.91,1319.37 -1239.42,1319.37 -684.5,0 -1239.41,-590.7 -1239.41,-1319.37" id="path172" style="fill:#4acfd3;fill-opacity:1;fill-rule:nonzero;stroke:none"/><path d="m 4987.63,2186.97 c 0,673.43 512.85,1219.35 1145.46,1219.35 632.62,0 1145.45,-545.92 1145.45,-1219.35 0,-673.43 -512.83,-1219.361 -1145.45,-1219.361 -632.61,0 -1145.46,545.931 -1145.46,1219.361 z m -93.95,0 c 0,-728.67 554.91,-1319.38 1239.41,-1319.38 684.51,0 1239.41,590.71 1239.41,1319.38 0,728.67 -554.9,1319.37 -1239.41,1319.37 -684.5,0 -1239.41,-590.7 -1239.41,-1319.37" id="path174" style="fill:#8ceae7;fill-opacity:1;fill-rule:nonzero;stroke:none"/><path d="m 5867.33,2186.97 c 0,-118.87 90.53,-215.24 202.19,-215.24 111.67,0 202.2,96.37 202.2,215.24 0,118.87 -90.53,215.23 -202.2,215.23 -111.66,0 -202.19,-96.36 -202.19,-215.23" id="path176" style="fill:#4acfd3;fill-opacity:1;fill-rule:nonzero;stroke:none"/><path d="m 5930.91,2186.97 c 0,-118.87 90.51,-215.24 202.18,-215.24 111.67,0 202.19,96.37 202.19,215.24 0,118.87 -90.52,215.23 -202.19,215.23 -111.67,0 -202.18,-96.36 -202.18,-215.23" id="path178" style="fill:#8ceae7;fill-opacity:1;fill-rule:nonzero;stroke:none"/><path d="m 6042.31,2186.97 c 0,-53.38 40.65,-96.64 90.78,-96.64 50.14,0 90.78,43.26 90.78,96.64 0,53.37 -40.64,96.63 -90.78,96.63 -50.13,0 -90.78,-43.26 -90.78,-96.63" id="path180" style="fill:#4acfd3;fill-opacity:1;fill-rule:nonzero;stroke:none"/><path d="m 4097.67,1146.61 c 0,-154.09 117.35,-279.02 262.1,-279.02 144.76,0 262.1,124.93 262.1,279.02 0,154.09 -117.34,279.01 -262.1,279.01 -144.75,0 -262.1,-124.92 -262.1,-279.01" id="path182" style="fill:#4acfd3;fill-opacity:1;fill-rule:nonzero;stroke:none"/><path d="m 4180.08,1146.61 c 0,-154.09 117.34,-279.02 262.1,-279.02 144.75,0 262.1,124.93 262.1,279.02 0,154.09 -117.35,279.01 -262.1,279.01 -144.76,0 -262.1,-124.92 -262.1,-279.01" id="path184" style="fill:#8ceae7;fill-opacity:1;fill-rule:nonzero;stroke:none"/><path d="m 4324.5,1146.61 c 0,-69.19 52.69,-125.27 117.68,-125.27 64.99,0 117.67,56.08 117.67,125.27 0,69.18 -52.68,125.27 -117.67,125.27 -64.99,0 -117.68,-56.09 -117.68,-125.27" id="path186" style="fill:#4acfd3;fill-opacity:1;fill-rule:nonzero;stroke:none"/><path d="M 6607.21,9090.36 H 4190.79 c -137.75,0 -249.4,-111.66 -249.4,-249.39 V 7796.34 c 0,-137.73 111.66,-249.39 249.4,-249.39 h 219.91 2196.51 c 137.74,0 249.4,111.66 249.4,249.39 v 1044.63 c 0,137.73 -111.66,249.39 -249.4,249.39" id="path188" style="fill:#d3f2f7;fill-opacity:1;fill-rule:nonzero;stroke:none"/><path d="M 5979.53,8659.77 H 3226.96 c -156.89,0 -284.08,-127.19 -284.08,-284.09 V 7185.75 c 0,-156.9 127.19,-284.08 284.08,-284.08 h 250.52 v -393.88 l 393.87,393.88 h 2108.18 c 156.89,0 284.08,127.18 284.08,284.08 v 1189.93 c 0,156.9 -127.19,284.09 -284.08,284.09" id="path190" style="fill:#dcf5f9;fill-opacity:1;fill-rule:nonzero;stroke:none"/><path d="M 3941.39,7909.76 H 3462.9 v 468.19 h 478.49 v -468.19" id="path192" style="fill:#f2fbfd;fill-opacity:1;fill-rule:nonzero;stroke:none"/><path d="m 5691.63,7909.76 -1516.92,1.16 c -28.71,0 -51.97,23.25 -51.97,51.97 0,28.71 23.26,51.96 51.97,51.96 l 1516.92,-1.16 c 28.71,0 51.96,-23.25 51.96,-51.97 0,-28.71 -23.25,-51.96 -51.96,-51.96" id="path194" style="fill:#f2fbfd;fill-opacity:1;fill-rule:nonzero;stroke:none"/><path d="m 5691.63,8272.85 -1516.92,1.16 c -28.71,0 -51.97,23.26 -51.97,51.97 0,28.71 23.26,51.97 51.97,51.97 l 1516.92,-1.16 c 28.71,0 51.96,-23.26 51.96,-51.97 0,-28.72 -23.25,-51.97 -51.96,-51.97" id="path196" style="fill:#f2fbfd;fill-opacity:1;fill-rule:nonzero;stroke:none"/><path d="M 5040.1,7184.15 H 3514.86 c -28.71,0 -51.96,23.26 -51.96,51.97 0,28.72 23.25,51.97 51.96,51.97 H 5040.1 c 28.71,0 51.97,-23.25 51.97,-51.97 0,-28.71 -23.26,-51.97 -51.97,-51.97" id="path198" style="fill:#f2fbfd;fill-opacity:1;fill-rule:nonzero;stroke:none"/><path d="m 5691.63,7184.15 h -390.47 c -28.7,0 -51.96,23.26 -51.96,51.97 0,28.72 23.26,51.97 51.96,51.97 h 390.47 c 28.71,0 51.96,-23.25 51.96,-51.97 0,-28.71 -23.25,-51.97 -51.96,-51.97" id="path200" style="fill:#f2fbfd;fill-opacity:1;fill-rule:nonzero;stroke:none"/><path d="m 5691.63,7546.95 -2176.77,0.59 c -28.71,0 -51.96,23.25 -51.96,51.96 0,28.71 23.25,51.97 51.96,51.97 l 2176.77,-0.58 c 28.71,0 51.96,-23.25 51.96,-51.97 0,-28.71 -23.25,-51.97 -51.96,-51.97" id="path202" style="fill:#f2fbfd;fill-opacity:1;fill-rule:nonzero;stroke:none"/></g></g></svg>