<?xml version="1.0" ?><svg width="1333.3333px" height="1333.3333px" viewBox="0 0 1333.3333 1333.3333" id="svg2" version="1.1" xml:space="preserve" xmlns="http://www.w3.org/2000/svg" xmlns:inkscape="http://www.inkscape.org/namespaces/inkscape" xmlns:sodipodi="http://sodipodi.sourceforge.net/DTD/sodipodi-0.dtd" xmlns:svg="http://www.w3.org/2000/svg"><defs id="defs6"/><g id="g8" transform="matrix(1.3333333,0,0,-1.3333333,0,1333.3333)"><g id="g10" transform="scale(0.1)"><path d="m 5000,953.422 c -2205.83,0 -3994,1788.178 -3994,3994.008 0,2205.83 1788.17,3994.01 3994,3994.01 2205.83,0 3994.01,-1788.18 3994.01,-3994.01 C 8994.01,2741.6 7205.83,953.422 5000,953.422 m 0,7043.218 c -1684.03,0 -3049.21,-1365.18 -3049.21,-3049.21 0,-1684.03 1365.18,-3049.21 3049.21,-3049.21 1684.03,0 3049.21,1365.18 3049.21,3049.21 0,1684.03 -1365.18,3049.21 -3049.21,3049.21" id="path12" style="fill:#eefafc;fill-opacity:1;fill-rule:nonzero;stroke:none"/><path d="m 5000,1898.22 c -1684.03,0 -3049.21,1365.18 -3049.21,3049.21 0,1684.03 1365.18,3049.21 3049.21,3049.21 1684.03,0 3049.21,-1365.18 3049.21,-3049.21 C 8049.21,3263.4 6684.03,1898.22 5000,1898.22" id="path14" style="fill:#e3f7fa;fill-opacity:1;fill-rule:nonzero;stroke:none"/><path d="m 5889.75,6935 c 144.19,-888.38 -958.82,-1971.24 -958.82,-1971.24 0,0 -187.49,-30.43 -263.09,-42.7 -833.41,-135.27 -1637.58,547.09 -1796.15,1524.09 -158.57,977 388.5,1878.67 1221.9,2013.94 81.29,13.19 263.09,42.7 263.09,42.7 0,0 1389.96,-685.08 1533.07,-1566.79" id="path16" style="fill:#4acfd3;fill-opacity:1;fill-rule:nonzero;stroke:none"/><path d="m 3138.54,6488.46 c 158.57,-977 962.74,-1659.36 1796.15,-1524.09 833.42,135.27 1380.48,1036.94 1221.9,2013.94 -158.57,977 -962.73,1659.36 -1796.15,1524.09 C 3527.03,8367.13 2979.96,7465.46 3138.54,6488.46" id="path18" style="fill:#bdffd8;fill-opacity:1;fill-rule:nonzero;stroke:none"/><path d="m 5940.66,6943.27 19.75,3.2 c -62.86,387.18 -242.75,721.23 -489.14,958.78 -246.34,237.51 -559.6,378.66 -888.44,378.67 -61.11,0 -122.74,-4.88 -184.51,-14.91 -321.16,-52.09 -593.43,-234.84 -784.8,-495.02 -191.44,-260.23 -302.49,-597.96 -302.5,-961.73 0,-95.83 7.7,-193.46 23.7,-291.96 62.85,-387.17 242.74,-721.23 489.13,-958.77 246.34,-237.51 559.59,-378.67 888.44,-378.68 61.09,0 122.71,4.88 184.52,14.91 321.14,52.1 593.41,234.84 784.79,495.03 191.43,260.22 302.48,597.94 302.49,961.71 0.01,95.83 -7.71,193.47 -23.68,291.97 l -19.75,-3.2 -19.74,-3.21 c 15.63,-96.38 23.17,-191.87 23.18,-285.56 0.01,-355.63 -108.68,-685.18 -294.72,-938.01 -186.12,-252.86 -449.1,-428.92 -758.98,-479.25 -59.68,-9.68 -119.14,-14.39 -178.11,-14.39 -317.21,0 -620.7,136.16 -860.68,367.48 -239.93,231.28 -415.93,557.55 -477.41,936.38 -15.65,96.38 -23.18,191.87 -23.18,285.55 -0.02,355.63 108.67,685.19 294.72,938.02 186.12,252.86 449.09,428.92 758.99,479.25 59.65,9.68 119.11,14.39 178.1,14.39 317.2,0 620.69,-136.16 860.68,-367.47 239.93,-231.28 415.93,-557.55 477.41,-936.39 l 19.74,3.21" id="path20" style="fill:#92f2b8;fill-opacity:1;fill-rule:nonzero;stroke:none"/><path d="m 4806.71,5644.26 c 51.66,2.68 91,53.98 87.85,114.56 l -0.56,10.7 c -2.69,51.71 25.85,98.22 68.64,110.47 194.48,55.52 350.77,222.22 337.31,481.09 -19.72,379.1 -309.29,420.2 -579.65,445.04 -155.48,13.5 -301.94,31.78 -309.34,173.99 -7.83,150.78 129.14,209.75 281.61,217.68 100.23,5.21 208.49,-33.72 275.44,-94.77 30.77,-28.02 70.98,-36.08 105.04,-15.25 l 36.22,22.19 c 52.6,32.19 68.46,116.6 26.79,167.59 -71.81,87.92 -161.1,131.61 -257.28,153.43 -42.33,9.61 -73.83,51.92 -76.5,102.21 -1.2,23.01 -7.72,66.52 -24.47,84.2 -33.21,35.08 -158.09,11.28 -158.09,11.28 -30.82,-1.61 -54.89,-30.85 -54.88,-67.02 -0.01,-42.94 -2.96,-93.35 -16.3,-103.08 -67.26,-48.94 -389.32,-105.69 -378.26,-490.98 10.3,-357.87 278.67,-398.12 543.18,-418.9 172.16,-14.76 327.33,-58.54 334.73,-200.71 8.73,-168.03 -140.29,-242.67 -305.76,-251.28 -124.77,-6.49 -260.05,45.74 -336.18,139.1 -29.63,36.31 -73.71,49.7 -111.76,28.26 l -46.01,-25.91 c -52.92,-29.8 -70.72,-111.48 -32.87,-165.37 91.59,-130.47 223.44,-199.92 365.53,-223.12 44.06,-7.16 77.41,-51.06 80.11,-102.97 3.15,-60.59 47.61,-107.53 99.26,-104.84 l 46.2,2.41" id="path22" style="fill:#4acfd3;fill-opacity:1;fill-rule:nonzero;stroke:none"/><path d="m 4881.22,5658.17 c 51.66,2.68 91,53.98 87.85,114.57 l -0.55,10.7 c -2.7,51.7 25.85,98.22 68.63,110.46 194.48,55.52 350.77,222.22 337.31,481.09 -19.71,379.1 -309.28,420.2 -579.65,445.04 -155.47,13.5 -301.94,31.79 -309.33,173.99 -7.84,150.78 129.13,209.75 281.6,217.68 100.23,5.21 208.5,-33.72 275.44,-94.77 30.77,-28.01 70.99,-36.07 105.04,-15.25 l 36.22,22.2 c 52.6,32.18 68.47,116.59 26.8,167.59 -71.82,87.91 -161.11,131.61 -257.29,153.42 -42.33,9.61 -73.83,51.92 -76.5,102.21 -1.19,23.01 -7.72,66.53 -24.47,84.21 -33.21,35.07 -158.09,11.27 -158.09,11.27 -30.82,-1.6 -54.88,-30.85 -54.87,-67.01 -0.01,-42.94 -2.97,-93.36 -16.31,-103.09 -67.26,-48.94 -389.32,-105.69 -378.26,-490.98 10.3,-357.86 278.67,-398.12 543.18,-418.9 172.16,-14.76 327.33,-58.54 334.74,-200.7 8.73,-168.04 -140.3,-242.68 -305.77,-251.29 -124.76,-6.48 -260.05,45.75 -336.18,139.1 -29.63,36.31 -73.71,49.7 -111.76,28.26 l -46.01,-25.91 c -52.92,-29.8 -70.71,-111.48 -32.87,-165.37 91.59,-130.47 223.44,-199.91 365.53,-223.12 44.06,-7.15 77.42,-51.06 80.11,-102.97 3.16,-60.59 47.61,-107.52 99.26,-104.83 l 46.2,2.4" id="path24" style="fill:#ffffff;fill-opacity:1;fill-rule:nonzero;stroke:none"/><path d="m 6038.23,5640.29 c -12.23,-102.23 54.65,-433.22 47.46,-535.93 -1.12,-16.07 48.22,-83.61 48.22,-83.61 l -213.93,-85.74 c 0,0 -87.55,197.32 -92.54,197.82 -5,0.5 -76.19,83.49 -79.84,177.56 -2.41,62.11 15.63,62.28 24.2,123.84 5.02,36.03 -85.16,110.57 -83.28,160.06 0.19,5.06 16.45,10.38 -0.77,59.45 -4.64,13.25 13.29,56.4 13.29,56.4 l 147.46,-82.1 -24.03,99.23 c 0,0 -67.45,30.36 -71.08,55.28 -4.17,28.67 7.25,41.5 7.25,41.5 l 99.32,-43.27 107.84,-107.94 c 0,0 -45.14,131.92 -31.9,170.18 5.88,16.99 29.27,38.84 29.27,38.84 0,0 79.19,-190.44 73.06,-241.57" id="path26" style="fill:#ffd0ce;fill-opacity:1;fill-rule:nonzero;stroke:none"/><path d="m 5575.75,4327.84 c 61.65,183.79 -61.39,360.59 -213.88,407.06 -145.83,44.43 -352.45,-105.13 -367.33,-298.42 -8.51,-110.67 98.47,-223.17 220.73,-261.61 137.75,-43.29 283.58,-76.25 360.48,152.97" id="path28" style="fill:#00649f;fill-opacity:1;fill-rule:nonzero;stroke:none"/><path d="m 4861.01,4189.37 c -92.54,-137.44 -102,-357.73 -6.97,-481.39 24.64,-32.06 482.63,-83.96 513.29,-84.14 287.82,-1.66 277.87,386.95 232.39,496.02 -111.29,266.84 -541.04,363.09 -738.71,69.51" id="path30" style="fill:#00649f;fill-opacity:1;fill-rule:nonzero;stroke:none"/><path d="m 5146.08,2615.89 c 148.68,-0.93 442.08,328.8 495.1,416.16 0,0 -103.52,-15.27 -142,-4.62 -252,69.78 -357.56,94.59 -651.92,-32.31 -34.86,-15.02 -129.6,-79.05 -129.6,-79.05 2.88,-11.3 297.64,-299.37 428.42,-300.18" id="path32" style="fill:#ffc7c4;fill-opacity:1;fill-rule:nonzero;stroke:none"/><path d="m 5002.8,3359.23 357.33,-4.08 c 3.21,-0.03 5.79,-2.67 5.75,-5.88 l -4.76,-416.25 c -0.41,-35.65 -29.64,-64.22 -65.28,-63.81 l -239.87,2.74 c -35.65,0.4 -64.22,29.64 -63.81,65.29 l 4.75,416.24 c 0.04,3.21 2.68,5.79 5.89,5.75" id="path34" style="fill:#ffc7c4;fill-opacity:1;fill-rule:nonzero;stroke:none"/><path d="m 5505.84,3736.55 c 21.08,38.61 69.18,52.98 107.41,32.1 38.24,-20.89 52.14,-69.12 31.05,-107.73 -21.09,-38.62 -69.18,-52.99 -107.42,-32.1 -38.24,20.89 -52.13,69.12 -31.04,107.73" id="path36" style="fill:#ffc7c4;fill-opacity:1;fill-rule:nonzero;stroke:none"/><path d="m 4887.28,3760.55 c -3.38,-43.87 -41.34,-76.72 -84.78,-73.37 -43.44,3.34 -75.92,41.61 -72.54,85.48 3.38,43.86 41.33,76.71 84.78,73.37 43.43,-3.35 75.9,-41.62 72.54,-85.48" id="path38" style="fill:#ffc7c4;fill-opacity:1;fill-rule:nonzero;stroke:none"/><path d="m 5557.65,3704.71 c -13.55,-267.34 -168.39,-405.44 -340.81,-417.57 -10.35,-0.73 -25.42,15.44 -42.65,16.77 -21.27,1.63 -37.16,-13.73 -49.93,-11.48 -165.31,29.06 -327.3,214.88 -292.18,468.14 37.69,271.72 200.56,482.74 400.92,467.32 200.35,-15.43 338.52,-249.21 324.65,-523.18" id="path40" style="fill:#ffd0ce;fill-opacity:1;fill-rule:nonzero;stroke:none"/><path d="m 5471.86,4242.65 c -80.1,71.48 -294.47,141.77 -504.1,-9.79 -214.53,-155.1 -169.2,-447.37 -126.94,-438.37 13.14,2.8 78.89,52.81 105.06,115.31 6.38,15.23 27.14,73.93 27.14,73.93 l -41.55,-143.6 c 0,0 51.95,29.47 81.23,94.36 17.71,39.26 37.96,131.85 37.96,131.85 0,0 334.97,-347.69 508.86,-323.39 16.78,2.35 15.69,19.62 35.58,94.04 51.18,191.5 -57.72,347.18 -123.24,405.66" id="path42" style="fill:#00649f;fill-opacity:1;fill-rule:nonzero;stroke:none"/><path d="m 5034.74,4345.6 c -17.78,49.46 -37.13,101.61 -30.79,155 10.88,91.86 85.25,107.02 147.21,154.12 9.39,7.13 3.68,23.15 -8.81,19.59 -128.19,-36.47 -229.25,-227.55 -118.02,-335.1 4.39,-4.25 12.58,0.34 10.41,6.39" id="path44" style="fill:#00649f;fill-opacity:1;fill-rule:nonzero;stroke:none"/><path d="m 5039.42,4320.98 c -32.54,47.4 -66.36,102.71 -68.92,162.19 -4.68,109 91.2,148.28 175.46,183.03 6.06,2.5 3.55,11.18 -2.95,9.8 -88.82,-18.94 -171.3,-76.57 -184.85,-171.6 -8.5,-59.62 16.27,-161.74 74.44,-190.58 4.32,-2.15 9.87,2.72 6.82,7.16" id="path46" style="fill:#00649f;fill-opacity:1;fill-rule:nonzero;stroke:none"/><path d="m 5046.25,4088.06 c 25.58,-186.89 255.26,-312.8 428.01,-333.7 10.25,-1.24 18.19,12.82 7.22,18.32 -169.97,85.19 -353.57,116.46 -428.45,316.46 -1.27,3.4 -7.34,3.03 -6.78,-1.08" id="path48" style="fill:#00649f;fill-opacity:1;fill-rule:nonzero;stroke:none"/><path d="m 4995.35,2998.5 200.23,-99.28 258.95,117.85 171.13,-1456.76 -686.27,-103.77 55.96,1541.96" id="path50" style="fill:#dcf5f9;fill-opacity:1;fill-rule:nonzero;stroke:none"/><path d="m 5376.06,1536.12 401.39,38.9 c 0,0 29.68,296.52 69.37,368.83 59.49,108.39 93.37,240.53 86.63,447.93 -4.4,135.25 -0.47,559.28 -91.62,595.44 -173.23,68.72 -169.5,90.95 -334.38,44.58 l -150.06,-176.85 c 0,0 242.65,-519.56 135.09,-857.44 -49.31,-154.9 -116.42,-461.39 -116.42,-461.39" id="path52" style="fill:#00add6;fill-opacity:1;fill-rule:nonzero;stroke:none"/><path d="m 5195.58,2899.22 220,172.87 c 0,0 137.76,-16.98 113.25,-83.9 -25,-68.23 -164.25,-262.11 -232.46,-242.33 -46.35,13.45 -25.74,51.05 -100.79,153.36" id="path54" style="fill:#dcf5f9;fill-opacity:1;fill-rule:nonzero;stroke:none"/><path d="m 6443.08,598.422 c -260,613.508 -647.59,955.158 -647.59,955.158 l -1077.82,-58.26 c 0,0 -229.4,-180.63 -374.56,-589.789 -8.71,-24.539 -81.68,-282.652 -90.03,-307.109 h 2190" id="path56" style="fill:#0096c6;fill-opacity:1;fill-rule:nonzero;stroke:none"/><path d="m 5239.13,1526.51 -515.88,-0.01 c 13.56,0.2 -42.1,279.39 -100.77,352.82 -213.15,266.7 -80.12,959.33 18.18,1043.92 62.21,53.54 261.3,115.21 261.3,115.21 l 205.44,-231.91 c 0,0 -59.97,-665.66 13.83,-854.08 61.48,-157 117.9,-425.95 117.9,-425.95" id="path58" style="fill:#00add6;fill-opacity:1;fill-rule:nonzero;stroke:none"/><path d="m 5195.58,2899.21 -283.88,171.23 c 0,0 -102.74,-40.84 -77.82,-102.33 25.41,-62.7 217.44,-238.1 277.84,-216.64 41.03,14.57 20.91,48.84 83.86,147.74" id="path60" style="fill:#dcf5f9;fill-opacity:1;fill-rule:nonzero;stroke:none"/><path d="m 4697.46,1477.72 c 0,0 396.59,-18.23 541.67,-21.18 398.95,-8.12 575.18,79.58 575.18,79.58 l -31.4,75.16 c 0,0 -378.5,-30.42 -561.78,-43.04 -151.04,-10.41 -498.99,-1.42 -498.99,-1.42 l -24.68,-89.1" id="path62" style="fill:#ea659d;fill-opacity:1;fill-rule:nonzero;stroke:none"/><path d="m 3758.35,5338.85 c -37.13,2.49 -78.49,-3.17 -121.69,-18.11 -87.75,-30.36 -128.13,-68.8 -129.39,-111.01 -5.89,-197.27 94.48,-262.86 119.45,-362.75 14.25,-56.99 55.48,-248.41 55.48,-248.41 0,0 205.34,84.8 210.35,84.96 5.02,0.15 19.36,151.41 17.05,196.85 -3.16,62.07 -70.55,108.85 -74.82,170.86 -2.51,36.29 49.48,-54.26 72.26,-59.89 8.8,-2.18 30.26,13.7 26.12,25.18 -1.71,4.77 -7.61,25.64 -7.61,25.64 0,0 17.8,27.99 18.79,42.95 0.91,14.01 -65.92,89.41 -65.92,89.41 l -121,57.34 39.5,5.88 16.62,-32.48 64.88,-30.74 c 0,0 -1.72,100.41 -31.97,122.84 -18.6,13.79 -51.05,39 -88.1,41.48" id="path64" style="fill:#ffd0ce;fill-opacity:1;fill-rule:nonzero;stroke:none"/><path d="m 5904.52,4879.23 -48.49,139.46 291.8,101.44 30.18,-126.76 -273.49,-114.14" id="path66" style="fill:#aeddf1;fill-opacity:1;fill-rule:nonzero;stroke:none"/><path d="m 5590.61,3041.91 424.24,753.24 -153.63,1175.51 327.76,103.92 c 0,0 35.83,-31.86 81.87,-114.15 202.57,-362.07 182.13,-1019.86 230.24,-1187.08 24.88,-86.43 -53.79,-511.07 -249.82,-872.08 -40.1,-73.85 -293.34,-395.59 -335.49,-435.83 -133.1,-127.08 -325.17,576.47 -325.17,576.47" id="path68" style="fill:#00add6;fill-opacity:1;fill-rule:nonzero;stroke:none"/><path d="m 3903.06,4586.17 12.51,147.12 -307.83,26.14 2.1,-130.28 293.22,-42.98" id="path70" style="fill:#aeddf1;fill-opacity:1;fill-rule:nonzero;stroke:none"/><path d="m 4661.49,2883.5 -597.3,624.96 -141.78,1177.01 -343.28,19.66 c 0,0 -26.84,-39.74 -51.1,-130.85 -106.77,-400.92 75.68,-1033.23 70.4,-1207.16 -2.73,-89.89 178.47,-481.9 457.68,-783.23 57.11,-61.65 382.04,-310.79 432.83,-339.36 160.4,-90.22 172.55,638.97 172.55,638.97" id="path72" style="fill:#00add6;fill-opacity:1;fill-rule:nonzero;stroke:none"/><path d="m 2283.87,3995.23 v 334.29 c 0,7.9 -3.2,15.63 -8.78,21.21 -5.59,5.59 -13.32,8.79 -21.21,8.79 h -383.82 c -7.9,0 -15.63,-3.2 -21.22,-8.79 -5.58,-5.58 -8.78,-13.31 -8.78,-21.21 v -99.05 -235.24 -61.33 c -0.02,-28.86 11.78,-55.27 30.71,-74.15 18.88,-18.92 45.28,-30.72 74.14,-30.71 h 352.3 c 16.56,0 29.99,13.43 29.99,30 0,16.57 -13.43,30 -29.99,30 h -352.3 c -12.48,0.02 -23.5,4.98 -31.72,13.14 -8.16,8.21 -13.12,19.24 -13.14,31.72 v 61.33 235.24 69.05 h 323.82 l 0.01,-304.29 c 0,-16.56 13.42,-30 30,-30 16.56,0 30,13.44 30,30" id="path74" style="fill:#b4f1f4;fill-opacity:1;fill-rule:nonzero;stroke:none"/><path d="m 1993.87,3995.23 h -30 v -61.33 c -0.02,-11.16 -3.97,-21.06 -10.63,-28.94 -6.67,-7.85 -15.95,-13.34 -26.44,-15.17 -14.37,-2.51 -24.84,-14.97 -24.84,-29.55 0,-14.58 10.47,-27.04 24.84,-29.55 5.54,-0.97 11.61,-1.65 18.11,-1.65 h 357.92 c 28.86,-0.01 55.26,11.79 74.14,30.71 18.93,18.88 30.73,45.29 30.71,74.15 v 61.33 c 0,7.9 -3.2,15.63 -8.78,21.21 -5.59,5.59 -13.32,8.79 -21.21,8.79 h -383.82 c -7.9,0 -15.63,-3.2 -21.22,-8.78 -5.58,-5.59 -8.78,-13.32 -8.78,-21.22 h 30 v -30 h 353.82 v -31.33 c -0.02,-12.48 -4.98,-23.51 -13.14,-31.72 -8.22,-8.16 -19.24,-13.12 -31.72,-13.14 h -357.92 c -2.35,0 -4.9,0.25 -7.79,0.75 l -5.16,-29.55 5.16,-29.55 c 24.67,4.31 46.35,17.19 61.84,35.4 15.5,18.19 24.92,42.05 24.9,67.81 v 61.33 h -29.99 v -30 30" id="path76" style="fill:#b4f1f4;fill-opacity:1;fill-rule:nonzero;stroke:none"/><path d="m 1962.92,4188.1 h 195.32 c 16.57,0 30,13.43 30,30 0,16.56 -13.43,30 -30,30 h -195.32 c -16.57,0 -30,-13.44 -30,-30 0,-16.57 13.43,-30 30,-30" id="path78" style="fill:#b4f1f4;fill-opacity:1;fill-rule:nonzero;stroke:none"/><path d="m 1962.92,4076.66 h 195.32 c 16.57,0 30,13.44 30,30 0,16.57 -13.43,30 -30,30 h -195.32 c -16.57,0 -30,-13.43 -30,-30 0,-16.56 13.43,-30 30,-30" id="path80" style="fill:#b4f1f4;fill-opacity:1;fill-rule:nonzero;stroke:none"/><path d="m 2253.88,4458.57 h -486.47 c -7.9,0 -15.63,-3.2 -21.21,-8.79 -5.59,-5.58 -8.79,-13.31 -8.79,-21.21 v -489.05 c 0,-16.57 13.43,-30 30,-30 16.57,0 30,13.43 30,30 v 459.05 h 456.47 c 16.56,0 29.99,13.43 29.99,30 0,16.57 -13.43,30 -29.99,30" id="path82" style="fill:#b4f1f4;fill-opacity:1;fill-rule:nonzero;stroke:none"/><path d="m 7058.57,2357.09 h -331.52 v 415.99 h 412.21 l 0.26,-237.37 c 0.02,-16.56 13.46,-29.98 30.03,-29.96 16.57,0.01 29.99,13.46 29.97,30.03 l -0.3,267.33 c -0.02,16.57 -13.42,29.97 -29.99,29.97 h -472.17 c -7.9,0 -15.63,-3.2 -21.22,-8.79 -5.58,-5.58 -8.78,-13.31 -8.78,-21.21 v -475.99 c 0,-7.9 3.2,-15.62 8.78,-21.21 5.59,-5.59 13.32,-8.79 21.22,-8.79 h 361.51 c 16.57,0 30,13.44 30,30 0,16.57 -13.43,30 -30,30" id="path84" style="fill:#b4f1f4;fill-opacity:1;fill-rule:nonzero;stroke:none"/><path d="m 6765.2,2850.47 v -77.75 c 0,-16.57 13.42,-30 30,-30 16.56,0 30,13.43 30,30 v 77.75 c 0,16.57 -13.44,30 -30,30 -16.58,0 -30,-13.43 -30,-30" id="path86" style="fill:#b4f1f4;fill-opacity:1;fill-rule:nonzero;stroke:none"/><path d="m 7039.44,2850.47 v -77.75 c 0,-16.57 13.43,-30 30,-30 16.57,0 30,13.43 30,30 v 77.75 c 0,16.57 -13.43,30 -30,30 -16.57,0 -30,-13.43 -30,-30" id="path88" style="fill:#b4f1f4;fill-opacity:1;fill-rule:nonzero;stroke:none"/><path d="m 6697.06,2659.13 h 472.17 c 16.57,0 30,13.44 30,30 0,16.57 -13.43,30 -30,30 h -472.17 c -16.57,0 -30,-13.43 -30,-30 0,-16.56 13.43,-30 30,-30" id="path90" style="fill:#b4f1f4;fill-opacity:1;fill-rule:nonzero;stroke:none"/><path d="m 7303.34,2401.93 h -30 c -0.02,-28.76 -11.58,-54.52 -30.41,-73.41 -18.88,-18.83 -44.64,-30.39 -73.41,-30.4 -28.77,0.01 -54.52,11.57 -73.41,30.4 -18.83,18.88 -30.38,44.65 -30.4,73.41 0.02,28.77 11.57,54.53 30.4,73.41 18.89,18.83 44.65,30.39 73.41,30.41 28.76,-0.02 54.53,-11.58 73.41,-30.41 18.83,-18.88 30.39,-44.65 30.41,-73.41 h 30 29.99 c 0.02,45.14 -18.37,86.29 -47.97,115.84 -29.55,29.59 -70.7,47.99 -115.84,47.98 -45.14,0.01 -86.29,-18.39 -115.83,-47.99 -29.6,-29.55 -48,-70.69 -47.98,-115.83 -0.02,-45.14 18.38,-86.28 47.98,-115.83 29.54,-29.6 70.69,-48 115.83,-47.98 45.14,-0.02 86.29,18.38 115.84,47.98 29.6,29.55 47.99,70.69 47.97,115.83 h -29.99" id="path92" style="fill:#b4f1f4;fill-opacity:1;fill-rule:nonzero;stroke:none"/><path d="m 7139.52,2460.49 v -58.56 c 0,-7.9 3.19,-15.62 8.79,-21.21 l 32.63,-32.64 c 11.72,-11.71 30.71,-11.72 42.43,0 11.72,11.72 11.72,30.71 0,42.43 l -23.85,23.85 v 46.13 c 0,16.56 -13.44,29.99 -30,29.99 -16.57,0 -29.99,-13.43 -29.99,-29.99" id="path94" style="fill:#b4f1f4;fill-opacity:1;fill-rule:nonzero;stroke:none"/><path d="m 6914.32,2473.53 v 30 h -85.87 v 55.86 h 55.87 v -85.86 h 30 v 30 -30 h 29.99 v 115.86 c 0,7.9 -3.2,15.63 -8.78,21.21 -5.59,5.59 -13.32,8.79 -21.21,8.79 h -115.86 c -7.9,0 -15.63,-3.2 -21.22,-8.78 -5.58,-5.59 -8.78,-13.32 -8.78,-21.22 v -115.86 c 0,-7.9 3.2,-15.62 8.78,-21.21 5.59,-5.59 13.32,-8.79 21.22,-8.79 h 115.86 c 7.89,0 15.62,3.21 21.21,8.79 5.58,5.59 8.78,13.32 8.78,21.21 h -29.99" id="path96" style="fill:#b4f1f4;fill-opacity:1;fill-rule:nonzero;stroke:none"/><path d="m 7179.51,7416.1 v 30 h -136.38 c -70.4,0 -135.06,-28.04 -182.08,-73.68 -47.05,-45.58 -76.77,-109.34 -76.74,-179.99 -0.01,-61.25 23.28,-116.78 58.99,-159.73 35.77,-43 83.99,-74.14 136.46,-87.27 l 7.25,29.11 h -30 v -124.58 c 0,-11.76 6.87,-22.43 17.57,-27.3 10.7,-4.87 23.26,-3.04 32.13,4.68 l 118.55,103.25 h 54.25 c 70.77,-0.01 134.95,29.42 181.07,76.18 46.16,46.73 74.8,111.2 74.8,181.58 0,70.37 -28.64,134.84 -74.8,181.57 -46.12,46.76 -110.3,76.19 -181.07,76.18 v -30 -30 c 53.99,-0.01 102.74,-22.3 138.37,-58.33 35.58,-36.07 57.5,-85.48 57.5,-139.42 0,-53.95 -21.92,-103.36 -57.5,-139.43 -35.63,-36.03 -84.38,-58.32 -138.37,-58.33 h -65.48 c -7.18,0 -14.29,-2.66 -19.7,-7.38 l -77.33,-67.34 0.01,58.67 c 0,13.77 -9.39,25.79 -22.75,29.11 -38.94,9.63 -77.08,33.89 -104.8,67.37 -27.79,33.52 -45.15,75.56 -45.16,121.41 0.03,53.68 22.35,101.75 58.53,136.93 36.2,35.11 85.96,56.75 140.3,56.74 h 136.38 v 30" id="path98" style="fill:#b4f1f4;fill-opacity:1;fill-rule:nonzero;stroke:none"/><path d="m 7248.19,7178.92 h -30 15.72 l -11.1,11.14 c -2.79,-2.73 -4.64,-6.86 -4.62,-11.14 h 15.72 l -11.1,11.14 11.02,-11.06 0.01,15.62 c -4.2,0.02 -8.28,-1.77 -11.03,-4.56 l 11.02,-11.06 0.01,15.62 v -15.63 l 11.03,11.07 c -2.74,2.78 -6.82,4.58 -11.03,4.56 v -15.63 l 11.03,11.07 -11.1,-11.14 h 15.72 c 0.02,4.28 -1.83,8.41 -4.62,11.14 l -11.1,-11.14 h 15.72 -15.73 l 11.11,-11.14 c 2.79,2.74 4.64,6.87 4.62,11.14 h -15.73 l 11.11,-11.14 -11.03,11.07 v -15.63 c 4.2,-0.01 8.28,1.78 11.03,4.56 l -11.03,11.07 v -15.63 15.62 l -11.02,-11.06 c 2.75,-2.79 6.83,-4.57 11.02,-4.56 v 15.62 l -11.02,-11.06 11.1,11.14 h -15.73 c -0.02,-4.27 1.83,-8.41 4.63,-11.14 l 11.1,11.14 h -15.73 30 30 c 0.02,12.18 -5.04,23.46 -13.03,31.37 -7.95,7.96 -19.21,12.95 -31.32,12.93 -12.13,0.02 -23.38,-4.98 -31.33,-12.94 -7.98,-7.9 -13.04,-19.18 -13.02,-31.36 -0.02,-12.17 5.04,-23.44 13.02,-31.35 7.94,-7.96 19.19,-12.96 31.33,-12.95 12.12,-0.01 23.38,4.98 31.32,12.94 7.99,7.91 13.05,19.19 13.03,31.36 h -30" id="path100" style="fill:#b4f1f4;fill-opacity:1;fill-rule:nonzero;stroke:none"/><path d="m 7124.2,7178.92 h -30 15.72 l -11.1,11.14 c -2.79,-2.73 -4.64,-6.86 -4.62,-11.14 h 15.72 l -11.1,11.14 11.02,-11.06 v 15.62 c -4.2,0.02 -8.28,-1.77 -11.02,-4.56 l 11.02,-11.06 v 15.62 -15.63 l 11.04,11.07 c -2.75,2.78 -6.83,4.58 -11.04,4.56 v -15.63 l 11.04,11.07 -11.1,-11.14 h 15.71 c 0.02,4.28 -1.82,8.41 -4.61,11.14 l -11.1,-11.14 h 15.71 -15.72 l 11.1,-11.14 c 2.8,2.74 4.64,6.87 4.62,11.14 h -15.72 l 11.1,-11.14 -11.03,11.07 v -15.63 c 4.2,-0.01 8.29,1.78 11.03,4.56 l -11.03,11.07 v -15.63 15.62 l -11.02,-11.06 c 2.75,-2.79 6.83,-4.57 11.02,-4.56 v 15.62 l -11.02,-11.06 11.1,11.14 h -15.72 c -0.02,-4.27 1.83,-8.41 4.62,-11.14 l 11.1,11.14 h -15.72 30 29.99 c 0.02,12.18 -5.03,23.46 -13.03,31.37 -7.94,7.96 -19.2,12.95 -31.32,12.93 -12.12,0.02 -23.38,-4.98 -31.32,-12.94 -7.98,-7.9 -13.04,-19.18 -13.02,-31.36 -0.02,-12.17 5.04,-23.44 13.02,-31.35 7.94,-7.96 19.19,-12.96 31.32,-12.95 12.13,-0.01 23.39,4.98 31.33,12.94 7.99,7.91 13.04,19.19 13.02,31.36 h -29.99" id="path102" style="fill:#b4f1f4;fill-opacity:1;fill-rule:nonzero;stroke:none"/><path d="m 7000.2,7178.92 h -30 15.71 l -11.1,11.13 c -2.8,-2.74 -4.63,-6.86 -4.61,-11.13 h 15.71 l -11.1,11.13 11.03,-11.06 0.01,15.63 c -4.2,0.02 -8.29,-1.78 -11.04,-4.57 l 11.03,-11.06 0.01,15.63 v -15.63 l 11.03,11.07 c -2.74,2.78 -6.82,4.58 -11.03,4.56 v -15.63 l 11.03,11.07 -11.1,-11.14 h 15.72 c 0.02,4.28 -1.83,8.41 -4.62,11.14 l -11.1,-11.14 h 15.72 -15.72 l 11.1,-11.14 c 2.79,2.74 4.64,6.87 4.62,11.14 h -15.72 l 11.1,-11.14 -11.04,11.07 0.01,-15.63 c 4.2,-0.01 8.28,1.78 11.03,4.56 l -11.04,11.07 0.01,-15.63 v 15.64 l -11.04,-11.07 c 2.75,-2.79 6.85,-4.58 11.04,-4.57 v 15.64 l -11.04,-11.07 11.1,11.13 h -15.71 c -0.02,-4.26 1.82,-8.39 4.61,-11.13 l 11.1,11.13 h -15.71 30 29.99 c 0.02,12.16 -5.03,23.45 -13.02,31.36 -7.94,7.96 -19.21,12.96 -31.32,12.94 -12.12,0.02 -23.38,-4.98 -31.32,-12.94 -7.99,-7.9 -13.05,-19.18 -13.03,-31.36 -0.02,-12.17 5.04,-23.44 13.02,-31.35 7.94,-7.96 19.2,-12.96 31.33,-12.95 12.12,-0.01 23.39,4.99 31.33,12.95 7.99,7.92 13.03,19.2 13.01,31.35 h -29.99" id="path104" style="fill:#b4f1f4;fill-opacity:1;fill-rule:nonzero;stroke:none"/><path d="m 3645.63,2205.75 v 30 h -425.42 c -2.27,0.02 -4.05,0.84 -5.57,2.31 -1.47,1.51 -2.28,3.29 -2.3,5.56 v 287.4 c 0.02,2.27 0.83,4.05 2.3,5.57 1.52,1.47 3.3,2.29 5.57,2.3 h 425.42 c 2.28,-0.01 4.05,-0.83 5.57,-2.3 1.47,-1.52 2.29,-3.3 2.31,-5.57 v -287.4 c -0.02,-2.27 -0.84,-4.05 -2.31,-5.56 -1.52,-1.47 -3.29,-2.29 -5.57,-2.31 v -30 -30 c 18.65,-0.01 35.81,7.64 47.99,19.88 12.24,12.18 19.9,29.34 19.88,47.99 v 287.4 c 0.02,18.65 -7.64,35.81 -19.88,47.99 -12.18,12.24 -29.34,19.9 -47.99,19.88 h -425.42 c -18.64,0.02 -35.8,-7.64 -47.99,-19.88 -12.23,-12.18 -19.9,-29.34 -19.88,-47.99 v -287.4 c -0.02,-18.65 7.65,-35.81 19.88,-47.99 12.19,-12.24 29.35,-19.89 47.99,-19.88 h 425.42 v 30" id="path106" style="fill:#b4f1f4;fill-opacity:1;fill-rule:nonzero;stroke:none"/><path d="m 3182.34,2447.31 h 385.84 c 16.57,0 30,13.44 30,30 0,16.57 -13.43,30 -30,30 h -385.84 c -16.57,0 -30,-13.43 -30,-30 0,-16.56 13.43,-30 30,-30" id="path108" style="fill:#b4f1f4;fill-opacity:1;fill-rule:nonzero;stroke:none"/><path d="m 3182.34,2361.99 h 385.84 c 16.57,0 30,13.43 30,30 0,16.57 -13.43,30 -30,30 h -385.84 c -16.57,0 -30,-13.43 -30,-30 0,-16.57 13.43,-30 30,-30" id="path110" style="fill:#b4f1f4;fill-opacity:1;fill-rule:nonzero;stroke:none"/><path d="m 3683.51,2342.23 h -115.33 c -7.9,0 -15.63,-3.2 -21.21,-8.79 -5.59,-5.59 -8.79,-13.31 -8.79,-21.21 V 2211.2 c 0,-16.57 13.43,-30 30,-30 16.57,0 30,13.43 30,30 v 71.03 h 85.33 c 16.56,0 29.99,13.43 29.99,30 0,16.56 -13.43,29.99 -29.99,29.99" id="path112" style="fill:#b4f1f4;fill-opacity:1;fill-rule:nonzero;stroke:none"/><path d="m 3734.77,2298.67 42.52,-123.72 c 1.17,-3.42 1.7,-6.8 1.71,-10.17 0,-6.42 -2.04,-12.76 -5.72,-18 -3.7,-5.24 -8.84,-9.3 -15.41,-11.58 l -358.06,-123.04 c -3.43,-1.17 -6.82,-1.7 -10.17,-1.71 -6.43,0 -12.77,2.04 -18.01,5.72 -5.24,3.7 -9.29,8.83 -11.56,15.4 l -32.68,95.1 c -5.38,15.67 -22.45,24.01 -38.12,18.62 -15.67,-5.38 -24,-22.45 -18.62,-38.12 l 32.68,-95.09 c 6.44,-18.82 18.64,-34.39 33.83,-45.02 15.19,-10.66 33.46,-16.6 52.48,-16.61 9.85,0 19.9,1.62 29.66,4.97 l 358.07,123.04 c 18.84,6.47 34.39,18.66 45.02,33.85 10.66,15.19 16.6,33.46 16.6,52.47 0.01,9.84 -1.6,19.89 -4.96,29.67 l -42.52,123.72 c -5.38,15.67 -22.45,24 -38.12,18.62 -15.67,-5.39 -24,-22.46 -18.61,-38.12" id="path114" style="fill:#b4f1f4;fill-opacity:1;fill-rule:nonzero;stroke:none"/><path d="m 8294.12,4768.23 h -30 c -0.02,-72.17 -29.17,-137.24 -76.45,-184.57 -47.33,-47.28 -112.4,-76.44 -184.57,-76.45 -72.18,0.01 -137.25,29.17 -184.58,76.45 -47.28,47.33 -76.44,112.4 -76.45,184.57 0.01,72.18 29.17,137.25 76.45,184.58 47.33,47.28 112.4,76.43 184.58,76.45 72.17,-0.02 137.24,-29.17 184.57,-76.45 47.28,-47.33 76.43,-112.4 76.45,-184.58 h 30 30 c 0.02,88.56 -35.98,169 -94.03,227 -58,58.05 -138.44,94.04 -226.99,94.03 -88.56,0.01 -169.01,-35.98 -227.01,-94.03 -58.04,-58 -94.04,-138.44 -94.02,-227 -0.02,-88.55 35.98,-169 94.02,-227 58,-58.04 138.45,-94.04 227.01,-94.02 88.55,-0.02 168.99,35.98 226.99,94.02 58.05,58 94.05,138.45 94.03,227 h -30" id="path116" style="fill:#b4f1f4;fill-opacity:1;fill-rule:nonzero;stroke:none"/><path d="m 8194.73,4768.23 h -30 c -0.02,-44.72 -18.05,-84.94 -47.35,-114.28 -29.34,-29.3 -69.56,-47.33 -114.28,-47.34 -44.73,0.01 -84.95,18.04 -114.3,47.34 -29.29,29.34 -47.32,69.56 -47.34,114.28 0.02,44.73 18.05,84.95 47.34,114.29 29.35,29.3 69.57,47.33 114.3,47.34 44.72,-0.01 84.94,-18.04 114.28,-47.34 29.3,-29.34 47.33,-69.56 47.35,-114.29 h 30 29.99 c 0.02,61.11 -24.85,116.71 -64.91,156.72 -40.02,40.06 -95.61,64.93 -156.71,64.91 -61.11,0.02 -116.71,-24.85 -156.72,-64.91 -40.06,-40.01 -64.93,-95.61 -64.92,-156.72 -0.01,-61.1 24.86,-116.7 64.92,-156.71 40.01,-40.06 95.61,-64.93 156.72,-64.91 61.1,-0.02 116.69,24.85 156.71,64.91 40.06,40.01 64.93,95.61 64.91,156.71 h -29.99" id="path118" style="fill:#b4f1f4;fill-opacity:1;fill-rule:nonzero;stroke:none"/><path d="m 8053.53,5194.99 v -135.73 c 0,-16.57 13.42,-30 30,-30 16.56,0 30,13.43 30,30 v 135.73 c 0,16.57 -13.44,30 -30,30 -16.58,0 -30,-13.43 -30,-30" id="path120" style="fill:#b4f1f4;fill-opacity:1;fill-rule:nonzero;stroke:none"/><path d="m 7952.67,5059.26 v 135.73 c 0,16.57 -13.44,30 -30,30 -16.58,0 -30,-13.43 -30,-30 v -135.73 c 0,-16.57 13.42,-30 30,-30 16.56,0 30,13.43 30,30" id="path122" style="fill:#b4f1f4;fill-opacity:1;fill-rule:nonzero;stroke:none"/><path d="m 7850.41,5164.99 h 305.38 c 16.57,0 30,13.44 30,30 0,16.57 -13.43,30 -30,30 h -305.38 c -16.57,0 -30,-13.43 -30,-30 0,-16.56 13.43,-30 30,-30" id="path124" style="fill:#b4f1f4;fill-opacity:1;fill-rule:nonzero;stroke:none"/><path d="m 8236.85,5012.56 45.59,-49.63 c 11.2,-12.2 30.18,-13.01 42.38,-1.8 12.21,11.21 13.01,30.18 1.8,42.39 l -45.58,49.63 c -11.21,12.2 -30.19,13 -42.39,1.8 -12.2,-11.21 -13.01,-30.19 -1.8,-42.39" id="path126" style="fill:#b4f1f4;fill-opacity:1;fill-rule:nonzero;stroke:none"/><path d="m 8022.66,4745.49 80.43,69.22 c 12.56,10.8 13.98,29.75 3.17,42.3 -10.81,12.56 -29.75,13.98 -42.3,3.17 l -80.43,-69.21 c -12.56,-10.81 -13.98,-29.75 -3.18,-42.31 10.81,-12.56 29.75,-13.97 42.31,-3.17" id="path128" style="fill:#b4f1f4;fill-opacity:1;fill-rule:nonzero;stroke:none"/><path d="m 2234.86,6574.11 c -4.83,-2.24 -10.3,-1.05 -14.33,2.42 -8.77,7.57 -23.38,12.8 -37.2,12.8 -21.02,0 -40.26,-6.08 -40.26,-23.82 0,-16.72 20,-19.75 41.28,-22.29 37,-4.56 76.51,-11.15 76.51,-55.73 0,-30.44 -22.69,-49.03 -49.82,-54.36 -5.96,-1.17 -10.22,-6.46 -10.22,-12.54 v -1.25 c 0,-7.13 -5.77,-12.91 -12.9,-12.91 h -6.37 c -7.12,0 -12.9,5.78 -12.9,12.91 0,6.1 -4.27,11.45 -10.27,12.56 -19.37,3.59 -37,12.54 -48.66,28.39 -4.82,6.56 -1.79,16.03 5.7,19.2 l 6.51,2.76 c 5.38,2.28 11.35,0.44 15.16,-4 9.8,-11.41 28.03,-18.36 45.23,-18.36 22.81,0 43.83,7.84 43.83,27.6 0,16.72 -21.02,22.8 -44.58,25.58 -36.22,4.05 -72.83,10.41 -71.69,52.44 1.24,45.26 45.92,49.95 55.52,55.28 1.9,1.06 2.67,6.95 2.98,11.99 0.25,4.24 3.77,7.52 8.02,7.52 0,0 17.34,2.03 21.66,-2.28 2.17,-2.18 2.76,-7.32 2.76,-10.03 0,-5.91 4.03,-11.07 9.79,-12.45 13.06,-3.15 25.02,-8.81 34.27,-19.56 5.36,-6.24 2.58,-16.04 -4.88,-19.5 l -5.14,-2.37" id="path130" style="fill:#b4f1f4;fill-opacity:1;fill-rule:nonzero;stroke:none"/><path d="m 2234.86,6574.11 -2.09,4.54 c -1.02,-0.47 -2.04,-0.68 -3.08,-0.68 -1.97,-0.01 -4.1,0.79 -5.89,2.34 -10.01,8.54 -25.4,13.95 -40.47,14.02 -10.99,-0.03 -21.68,-1.52 -30.26,-5.79 -4.28,-2.15 -8.06,-5.07 -10.78,-8.97 -2.72,-3.89 -4.24,-8.72 -4.22,-14.06 -0.04,-5.17 1.65,-9.84 4.6,-13.36 4.43,-5.3 10.88,-8.06 17.96,-10 7.12,-1.91 15.1,-2.93 23.12,-3.89 18.4,-2.24 37.05,-5.1 50.36,-12.3 6.67,-3.59 11.99,-8.14 15.74,-14.21 3.73,-6.08 5.99,-13.84 6.01,-24.26 -0.03,-13.96 -5.09,-24.78 -13.28,-33.07 -8.2,-8.27 -19.74,-13.88 -32.5,-16.38 -8.36,-1.65 -14.26,-9.02 -14.26,-17.45 v -1.25 c -0.01,-4.37 -3.53,-7.9 -7.9,-7.91 h -6.37 c -4.35,0.01 -7.89,3.55 -7.9,7.91 0,8.43 -5.89,15.89 -14.36,17.48 -18.47,3.43 -34.81,11.84 -45.55,26.44 -0.93,1.28 -1.35,2.67 -1.36,4.15 -0.01,3.03 1.9,6.2 4.99,7.48 l 6.51,2.76 c 0.96,0.4 1.9,0.58 2.84,0.58 2.28,0.01 4.73,-1.1 6.58,-3.24 11.22,-12.89 30.5,-20.02 49.02,-20.1 11.97,0.02 23.63,1.99 32.87,7 4.6,2.52 8.62,5.87 11.48,10.19 2.88,4.32 4.49,9.59 4.48,15.41 0.03,5.24 -1.74,10.02 -4.73,13.76 -4.5,5.64 -11.2,9.12 -18.83,11.66 -7.66,2.53 -16.41,4.06 -25.44,5.13 h -0.03 c -17.73,1.95 -35.18,4.58 -47.46,11.1 -6.15,3.25 -10.99,7.34 -14.38,12.77 -3.37,5.44 -5.42,12.35 -5.43,21.7 l 0.02,1.67 0.01,0.1 c 0.3,10.49 3.04,18.25 7.03,24.37 5.98,9.14 15.13,14.75 24,18.54 4.42,1.9 8.73,3.32 12.46,4.55 3.77,1.25 6.83,2.16 9.46,3.58 2.07,1.23 2.77,2.72 3.37,3.96 0.82,1.92 1.21,3.85 1.54,5.91 0.32,2.06 0.5,4.19 0.63,6.18 v 0.01 c 0.09,1.59 1.4,2.82 3.03,2.82 h 0.29 l 0.29,0.04 0.61,0.06 c 1.26,0.13 4.3,0.38 7.57,0.38 2.31,0 4.74,-0.13 6.6,-0.47 0.93,-0.16 1.71,-0.38 2.21,-0.58 l 0.52,-0.24 0.08,-0.05 0.24,0.32 -0.28,-0.28 0.04,-0.04 0.24,0.32 -0.28,-0.28 0.05,0.07 -0.07,-0.06 0.01,-0.01 0.06,0.07 -0.07,-0.06 c 0.12,-0.09 0.67,-1.27 0.92,-2.64 0.28,-1.36 0.39,-2.92 0.39,-3.86 0,-8.21 5.6,-15.38 13.61,-17.31 12.45,-3.02 23.26,-8.21 31.66,-17.96 1.09,-1.29 1.56,-2.71 1.58,-4.31 0.02,-2.89 -1.83,-6.06 -4.78,-7.39 l -5.13,-2.38 2.1,-4.53 2.1,-4.54 5.14,2.38 c 6.64,3.12 10.54,9.66 10.56,16.46 0.02,3.75 -1.26,7.67 -3.99,10.83 -10.09,11.75 -23.21,17.88 -36.9,21.16 -3.49,0.84 -5.95,3.98 -5.95,7.59 0,1.71 -0.17,3.92 -0.68,6.29 -0.57,2.35 -1.29,4.9 -3.55,7.27 -2.55,2.41 -5.31,3.05 -8.07,3.61 -2.79,0.49 -5.68,0.62 -8.36,0.62 -5.02,0 -9.23,-0.5 -9.35,-0.51 l 0.59,-4.97 v 5 c -6.87,0.01 -12.6,-5.33 -13.02,-12.22 v 0.01 c -0.14,-2.38 -0.41,-4.95 -0.79,-6.77 -0.18,-0.91 -0.41,-1.62 -0.54,-1.9 l -0.06,-0.11 2.12,-1.19 -1.14,2.04 -0.98,-0.85 2.12,-1.19 -1.14,2.04 c -0.63,-0.36 -2.22,-1 -4.27,-1.68 -7.27,-2.5 -20.26,-6.01 -31.77,-14.37 -11.56,-8.3 -21.56,-22.18 -22.05,-43.46 l 5,-0.14 -4.99,0.23 -0.04,-2.13 c -0.01,-10.81 2.45,-19.79 6.95,-26.99 6.76,-10.84 17.68,-17.19 29.84,-21.19 12.2,-4 25.92,-5.81 39.38,-7.33 l -0.03,0.01 c 11.51,-1.34 22.26,-3.57 29.53,-7.1 3.64,-1.75 6.35,-3.79 8.05,-5.95 1.69,-2.19 2.55,-4.44 2.58,-7.57 -0.01,-4.05 -1.03,-7.17 -2.81,-9.88 -2.66,-4.04 -7.39,-7.28 -13.76,-9.47 -6.33,-2.19 -14.14,-3.26 -22.26,-3.25 -15.89,-0.08 -33.05,6.69 -41.44,16.62 -3.58,4.15 -8.68,6.71 -14.16,6.72 -2.25,0 -4.55,-0.45 -6.74,-1.38 l -6.51,-2.75 c -6.96,-2.98 -11.07,-9.7 -11.08,-16.69 -0.01,-3.46 1.05,-7.03 3.29,-10.08 12.59,-17.11 31.53,-26.61 51.79,-30.34 3.54,-0.64 6.18,-3.88 6.18,-7.65 0.01,-9.89 8.02,-17.9 17.9,-17.9 h 6.37 c 9.89,0 17.9,8.01 17.9,17.9 v 1.25 c 0,3.73 2.61,6.94 6.19,7.63 14.37,2.83 27.74,9.18 37.66,19.15 9.93,9.94 16.22,23.65 16.18,40.12 0.02,11.87 -2.66,21.66 -7.49,29.5 -7.26,11.79 -18.98,18.72 -31.95,23.09 -13.01,4.38 -27.52,6.38 -41.45,8.1 -10.6,1.24 -20.64,2.69 -27.33,5.49 -3.35,1.38 -5.77,3.03 -7.25,4.84 -1.47,1.84 -2.28,3.81 -2.32,7 0.02,3.54 0.9,6.11 2.44,8.35 2.29,3.33 6.52,6.03 12.33,7.83 5.79,1.8 12.98,2.64 20.5,2.64 12.56,0.06 26.39,-4.98 33.93,-11.58 3.44,-2.98 7.81,-4.78 12.43,-4.78 2.43,0 4.92,0.51 7.26,1.6 l -2.09,4.54" id="path132" style="fill:#b4f1f4;fill-opacity:1;fill-rule:nonzero;stroke:none"/><path d="m 2376.2,6293.25 h 87.17 c 7.16,-0.02 13.37,-2.82 18.1,-7.5 4.68,-4.73 7.49,-10.94 7.5,-18.11 -0.01,-7.16 -2.82,-13.37 -7.5,-18.1 -4.72,-4.68 -10.93,-7.48 -18.1,-7.5 h -211.98 c -7.18,0.02 -13.39,2.82 -18.11,7.5 -4.68,4.73 -7.48,10.94 -7.5,18.1 v 63.19 c 0,16.57 -13.44,30 -30,30 -16.57,0 -29.99,-13.43 -29.99,-30 l -0.01,-63.19 c -0.02,-23.54 9.63,-45.13 25.07,-60.53 15.4,-15.44 36.99,-25.08 60.54,-25.07 h 211.98 c 23.54,-0.01 45.13,9.63 60.53,25.07 15.45,15.4 25.09,36.99 25.07,60.53 0.02,23.54 -9.62,45.13 -25.07,60.53 -15.39,15.45 -36.99,25.09 -60.53,25.08 h -87.17 c -16.57,0 -30,-13.43 -30,-30 0,-16.57 13.43,-30 30,-30" id="path134" style="fill:#b4f1f4;fill-opacity:1;fill-rule:nonzero;stroke:none"/><path d="m 2376.14,6293.25 h 87.23 c 23.54,-0.02 45.13,9.62 60.53,25.07 15.45,15.39 25.09,36.98 25.07,60.53 0.02,23.54 -9.62,45.13 -25.07,60.53 -15.4,15.45 -36.99,25.09 -60.53,25.07 h -105.64 c -16.57,0 -30,-13.43 -30,-30 0,-16.57 13.43,-30 30,-30 h 105.64 c 7.17,-0.01 13.38,-2.82 18.1,-7.5 4.68,-4.72 7.49,-10.93 7.5,-18.1 -0.01,-7.17 -2.82,-13.38 -7.5,-18.1 -4.72,-4.68 -10.93,-7.49 -18.1,-7.5 h -87.23 c -16.57,0 -30,-13.43 -30,-30 0,-16.57 13.43,-30 30,-30" id="path136" style="fill:#b4f1f4;fill-opacity:1;fill-rule:nonzero;stroke:none"/><path d="m 2357.73,6404.45 h 105.64 c 23.54,-0.01 45.13,9.63 60.53,25.07 15.45,15.4 25.09,36.99 25.07,60.54 0.02,23.54 -9.62,45.13 -25.07,60.53 -15.4,15.44 -36.99,25.08 -60.53,25.07 h -77.68 c -16.57,0 -30,-13.43 -30,-30 0,-16.57 13.43,-30 30,-30 h 77.68 c 7.17,-0.02 13.38,-2.82 18.1,-7.5 4.68,-4.73 7.49,-10.94 7.5,-18.1 -0.01,-7.17 -2.82,-13.38 -7.5,-18.11 -4.72,-4.68 -10.93,-7.48 -18.1,-7.5 h -105.64 c -16.57,0 -30,-13.43 -30,-30 0,-16.57 13.43,-30 30,-30" id="path138" style="fill:#b4f1f4;fill-opacity:1;fill-rule:nonzero;stroke:none"/><path d="m 2374.12,6522.96 h -30 c -0.02,-45.02 -18.16,-85.5 -47.65,-115.03 -29.54,-29.49 -70.01,-47.63 -115.02,-47.65 -45.02,0.02 -85.5,18.16 -115.04,47.65 -29.48,29.53 -47.63,70.01 -47.65,115.03 0.02,45.02 18.17,85.49 47.65,115.03 29.54,29.48 70.02,47.63 115.04,47.64 45.01,-0.01 85.48,-18.16 115.02,-47.64 29.49,-29.54 47.63,-70.02 47.65,-115.03 h 30 30 c 0.02,61.39 -24.97,117.25 -65.22,157.45 -40.2,40.25 -96.06,65.24 -157.45,65.22 -61.41,0.02 -117.27,-24.97 -157.47,-65.22 -40.24,-40.2 -65.23,-96.06 -65.21,-157.45 -0.02,-61.4 24.97,-117.25 65.21,-157.46 40.2,-40.25 96.06,-65.23 157.47,-65.22 61.39,-0.01 117.25,24.97 157.45,65.22 40.25,40.2 65.24,96.06 65.22,157.46 h -30" id="path140" style="fill:#b4f1f4;fill-opacity:1;fill-rule:nonzero;stroke:none"/><path d="m 2876.92,9097.05 -32.58,23.21 82.41,115.74 121.18,-81.67 -22.35,-33.16 -88.86,59.87 -59.8,-83.99" id="path142" style="fill:#dcf5f9;fill-opacity:1;fill-rule:nonzero;stroke:none"/><path d="m 1549.08,1390.24 -6.39,39.49 58.84,9.53 6.4,-39.49 -58.85,-9.53" id="path144" style="fill:#dcf5f9;fill-opacity:1;fill-rule:nonzero;stroke:none"/><path d="m 1607.88,1454.35 -9.34,57.74 39.48,6.39 9.34,-57.74 -39.48,-6.39" id="path146" style="fill:#dcf5f9;fill-opacity:1;fill-rule:nonzero;stroke:none"/><path d="m 1672.25,1410.17 -6.4,39.49 55.64,9.02 6.4,-39.5 -55.64,-9.01" id="path148" style="fill:#dcf5f9;fill-opacity:1;fill-rule:nonzero;stroke:none"/><path d="m 1628.31,1328.14 -9.88,61.03 39.48,6.39 9.88,-61.03 -39.48,-6.39" id="path150" style="fill:#dcf5f9;fill-opacity:1;fill-rule:nonzero;stroke:none"/><path d="m 8544.54,8717.38 85.77,-12.27 11.69,81.72 -85.76,12.27 z m 119.7,-57.55 -164.96,23.63 23.03,160.89 164.96,-23.6 -23.03,-160.92" id="path152" style="fill:#dcf5f9;fill-opacity:1;fill-rule:nonzero;stroke:none"/><path d="m 7410.98,8623.85 -6.4,39.49 58.84,9.54 6.39,-39.5 -58.83,-9.53" id="path154" style="fill:#dcf5f9;fill-opacity:1;fill-rule:nonzero;stroke:none"/><path d="m 7469.77,8687.96 -9.35,57.75 39.48,6.38 9.35,-57.74 -39.48,-6.39" id="path156" style="fill:#dcf5f9;fill-opacity:1;fill-rule:nonzero;stroke:none"/><path d="m 7534.13,8643.78 -6.4,39.5 55.66,9.01 6.4,-39.49 -55.66,-9.02" id="path158" style="fill:#dcf5f9;fill-opacity:1;fill-rule:nonzero;stroke:none"/><path d="m 7490.2,8561.75 -9.88,61.04 39.48,6.38 9.88,-61.03 -39.48,-6.39" id="path160" style="fill:#dcf5f9;fill-opacity:1;fill-rule:nonzero;stroke:none"/><path d="m 8593.17,1715.97 c -9.05,0 -17.96,-2.52 -25.84,-7.43 -11.13,-6.93 -18.89,-17.77 -21.87,-30.55 -6.13,-26.36 10.33,-52.8 36.69,-58.93 26.39,-6.13 52.8,10.33 58.93,36.68 6.14,26.35 -10.32,52.8 -36.69,58.93 -3.72,0.87 -7.48,1.3 -11.22,1.3 z m 0.1,-138.2 c -6.66,0 -13.43,0.75 -20.18,2.32 -47.86,11.14 -77.72,59.12 -66.59,106.96 5.4,23.19 19.5,42.88 39.7,55.45 20.21,12.56 44.08,16.54 67.27,11.14 47.84,-11.15 77.7,-59.12 66.57,-106.97 -9.56,-41.07 -46.29,-68.9 -86.77,-68.9" id="path162" style="fill:#dcf5f9;fill-opacity:1;fill-rule:nonzero;stroke:none"/><path d="m 1005.9,7685.65 c -9.064,0 -17.962,-2.52 -25.841,-7.43 -11.133,-6.93 -18.907,-17.78 -21.875,-30.55 -6.133,-26.36 10.324,-52.8 36.687,-58.94 26.389,-6.12 52.809,10.34 58.939,36.68 6.13,26.36 -10.33,52.81 -36.69,58.94 -3.73,0.87 -7.49,1.3 -11.22,1.3 z m 0.09,-138.2 c -6.666,0 -13.424,0.75 -20.189,2.32 -47.84,11.14 -77.703,59.12 -66.571,106.96 5.387,23.19 19.493,42.87 39.688,55.45 20.203,12.56 44.092,16.53 67.272,11.13 47.84,-11.14 77.71,-59.12 66.57,-106.96 -9.56,-41.07 -46.3,-68.9 -86.77,-68.9" id="path164" style="fill:#dcf5f9;fill-opacity:1;fill-rule:nonzero;stroke:none"/><path d="m 8994.01,6958.07 85.77,-12.28 11.68,81.72 -85.76,12.28 z m 119.69,-57.55 -164.95,23.62 23.03,160.9 164.95,-23.6 -23.03,-160.92" id="path166" style="fill:#dcf5f9;fill-opacity:1;fill-rule:nonzero;stroke:none"/></g></g></svg>