<svg width="577.518px" height="577.518px" viewBox="-16.78 0 577.518 577.518" xmlns="http://www.w3.org/2000/svg">
  <g id="Group_7" data-name="Group 7" transform="translate(-1851.075 1621.057)">
    <path id="path182" d="M2017.715-1069.211q24.02,8.96,39.28-12.347l74.173-118.64q30.62-53.22,39.027-109.88,12.28-68.48,46.36-114.52l-5.307-3.373-28.68-18.213q-26.48,50.84-82.48,91.573-47.08,32.08-81.507,82.88l-74.16,118.64q-12.5,23.08,5.893,41.053l67.4,42.827" fill="#32a940" fill-rule="evenodd"/>
    <path id="path184" d="M2045.422-1257.677l61.6,39.133a7.653,7.653,0,0,1,2.36,10.48l-58.906,94.213a7.517,7.517,0,0,1-10.387,2.373l-61.6-39.133a7.656,7.656,0,0,1-2.36-10.48l58.907-94.213a7.5,7.5,0,0,1,10.387-2.373" fill="#f9b317" fill-rule="evenodd"/>
    <path id="path186" d="M2100.781-1355.117q18.28,48.86,69.387,45.187a.563.563,0,0,1,.027-.147q12.28-68.48,46.36-114.52l-5.307-3.373-28.68-18.213q-26.32,50.52-81.787,91.067" fill="#f9b317" fill-rule="evenodd"/>
    <path id="path188" d="M2138.515-1337.677a21.617,21.617,0,0,1,6.68,29.68,21.248,21.248,0,0,1-29.44,6.733,21.617,21.617,0,0,1-6.68-29.68,21.236,21.236,0,0,1,29.44-6.733" fill="#f0393c" fill-rule="evenodd"/>
    <path id="path190" d="M2239.861-1470.9q44.16-71.02,76.347-59.387a10.694,10.694,0,0,1,2.88,1.533q36.22,26.52-11.933,89.906c-.147.2-.293.373-.467.573q-32.52,37.6,22.987,43.813a10.324,10.324,0,0,1,1.533.28q27.28,6.88,20.693-39.747c-.013-.107-.027-.2-.04-.32q-5.42-31.92,10.587-49.547c.12-.133.227-.253.36-.413q36.8-44.58,2.773-76.84a14.28,14.28,0,0,0-1.093-.92,58.472,58.472,0,0,0-41.12-11.613,11.2,11.2,0,0,1-9.56-3.76q-16.4-18.16-39.16-13.093a11.391,11.391,0,0,0-1.587.48q-28.92,10.98-48.72,70.306a10.613,10.613,0,0,0-.453,1.813q-3.56,21.62-8.68,33.32a11.638,11.638,0,0,0,4.413,14.547l4.307,2.733a11.052,11.052,0,0,0,8.72,1.493,11.152,11.152,0,0,0,7.213-5.16" fill="#f9b317" fill-rule="evenodd"/>
    <path id="path192" d="M2210.875-1486.93l29.933,19.027a6.111,6.111,0,0,1,1.88,8.373l-22.693,36.293a6,6,0,0,1-8.307,1.907l-29.933-19.027a6.115,6.115,0,0,1-1.894-8.373l22.693-36.293a6.022,6.022,0,0,1,8.32-1.907" fill="#db8e19" fill-rule="evenodd"/>
    <path id="path194" d="M2390.314-1448.61a10.23,10.23,0,0,1,3.16,14.04,10.053,10.053,0,0,1-13.933,3.187,10.239,10.239,0,0,1-3.16-14.04,10.055,10.055,0,0,1,13.933-3.187" fill="#f9b317" fill-rule="evenodd"/>
    <path id="path196" d="M2272.741-1459.69a8.755,8.755,0,0,1,2.707,12.04,8.613,8.613,0,0,1-11.933,2.72,8.755,8.755,0,0,1-2.707-12.027,8.605,8.605,0,0,1,11.933-2.733" fill="#f9b317" fill-rule="evenodd"/>
    <path id="path198" d="M2355.141-1367.8a4.4,4.4,0,0,1,1.36,6.027,4.326,4.326,0,0,1-5.973,1.36,4.382,4.382,0,0,1-1.36-6.013,4.318,4.318,0,0,1,5.973-1.373" fill="#f9b317" fill-rule="evenodd"/>
    <path id="path200" d="M2348.074-1618.956a13.7,13.7,0,0,1,4.227,18.8,13.461,13.461,0,0,1-18.653,4.267,13.714,13.714,0,0,1-4.227-18.8,13.461,13.461,0,0,1,18.653-4.267" fill="#f9b317" fill-rule="evenodd"/>
    <path id="path202" d="M1920.969-1286.184a17.976,17.976,0,0,0,17.867-18.013,17.976,17.976,0,0,0-17.867-18.013A17.976,17.976,0,0,0,1903.1-1304.2a17.976,17.976,0,0,0,17.867,18.013" fill="#f9b317" fill-rule="evenodd"/>
    <path id="path204" d="M2244.9-1305.237a11.21,11.21,0,0,0,11.147-11.227,11.21,11.21,0,0,0-11.147-11.227,11.2,11.2,0,0,0-11.133,11.227,11.2,11.2,0,0,0,11.133,11.227" fill="#6759b2" fill-rule="evenodd"/>
    <path id="path206" d="M2089.781-1437.343a12.476,12.476,0,0,0,12.4-12.507,12.474,12.474,0,0,0-12.4-12.493,12.474,12.474,0,0,0-12.4,12.493,12.477,12.477,0,0,0,12.4,12.507" fill="#32a940" fill-rule="evenodd"/>
    <path id="path208" d="M2217.461-1147.557a50.589,50.589,0,0,1,27.493-29.36,3.681,3.681,0,0,0,2.24-3.547,3.651,3.651,0,0,0-2.44-3.4,50.509,50.509,0,0,1-29.12-27.707,3.655,3.655,0,0,0-3.52-2.267,3.674,3.674,0,0,0-3.373,2.467,50.567,50.567,0,0,1-27.48,29.36,3.681,3.681,0,0,0-2.253,3.533,3.686,3.686,0,0,0,2.454,3.413,50.469,50.469,0,0,1,29.12,27.707,3.65,3.65,0,0,0,3.507,2.267,3.647,3.647,0,0,0,3.373-2.467" fill="#5b7fc9" fill-rule="evenodd"/>
    <path id="path210" d="M2227.341-1194.677q-1.82,25.84-28.467,30.413a50.633,50.633,0,0,1,11.707,16.907,3.65,3.65,0,0,0,3.507,2.267,3.647,3.647,0,0,0,3.373-2.467,50.589,50.589,0,0,1,27.493-29.36,3.681,3.681,0,0,0,2.24-3.547,3.651,3.651,0,0,0-2.44-3.4,49.934,49.934,0,0,1-17.413-10.813" fill="#4267ba" fill-rule="evenodd"/>
    <path id="path212" d="M2119.155-1082.4l12.893,19.747a3.976,3.976,0,0,1-1.12,5.467l-19.587,13a3.913,3.913,0,0,1-5.413-1.12l-12.907-19.76a3.97,3.97,0,0,1,1.12-5.453l19.6-13a3.891,3.891,0,0,1,5.413,1.12" fill="#f0393c" fill-rule="evenodd"/>
    <path id="path214" d="M2125.595-1072.517q-6.2,16.36-26.12,17.333l6.453,9.88a3.9,3.9,0,0,0,5.413,1.12l19.587-13a3.976,3.976,0,0,0,1.12-5.467l-6.453-9.867" fill="#cb3325" fill-rule="evenodd"/>
    <path id="path216" d="M1877.582-1198.77a4.168,4.168,0,0,1,4.147-4.187,4.16,4.16,0,0,1,4.147,4.187v18.36a4.157,4.157,0,0,1-4.147,4.173,4.165,4.165,0,0,1-4.147-4.173v-18.36" fill="#5b7fc9" fill-rule="evenodd"/>
    <path id="path218" d="M1877.582-1163.69a4.177,4.177,0,0,1,4.147-4.187,4.168,4.168,0,0,1,4.147,4.187v18.36a4.168,4.168,0,0,1-4.147,4.187,4.177,4.177,0,0,1-4.147-4.187v-18.36" fill="#5b7fc9" fill-rule="evenodd"/>
    <path id="path220" d="M1855.222-1167.877a4.157,4.157,0,0,1-4.147-4.173,4.168,4.168,0,0,1,4.147-4.187h18.227a4.166,4.166,0,0,1,4.133,4.187,4.154,4.154,0,0,1-4.133,4.173h-18.227" fill="#5b7fc9" fill-rule="evenodd"/>
    <path id="path222" d="M1890.022-1167.877a4.165,4.165,0,0,1-4.147-4.173,4.177,4.177,0,0,1,4.147-4.187h18.227a4.177,4.177,0,0,1,4.147,4.187,4.165,4.165,0,0,1-4.147,4.173h-18.227" fill="#5b7fc9" fill-rule="evenodd"/>
    <path id="path224" d="M2021.182-1391.583a3.082,3.082,0,0,1,3.067-3.094,3.082,3.082,0,0,1,3.067,3.094v13.6a3.082,3.082,0,0,1-3.067,3.093,3.082,3.082,0,0,1-3.067-3.093v-13.6" fill="#f0393c" fill-rule="evenodd"/>
    <path id="path226" d="M2021.182-1365.6a3.084,3.084,0,0,1,3.067-3.107,3.084,3.084,0,0,1,3.067,3.107v13.6a3.082,3.082,0,0,1-3.067,3.093,3.082,3.082,0,0,1-3.067-3.093v-13.6" fill="#f0393c" fill-rule="evenodd"/>
    <path id="path228" d="M2004.622-1368.7a3.084,3.084,0,0,1-3.08-3.093,3.084,3.084,0,0,1,3.08-3.093h13.493a3.081,3.081,0,0,1,3.067,3.093,3.081,3.081,0,0,1-3.067,3.093h-13.493" fill="#f0393c" fill-rule="evenodd"/>
    <path id="path230" d="M2030.4-1368.7a3.093,3.093,0,0,1-3.08-3.093,3.093,3.093,0,0,1,3.08-3.093h13.493a3.082,3.082,0,0,1,3.067,3.093,3.082,3.082,0,0,1-3.067,3.093H2030.4" fill="#f0393c" fill-rule="evenodd"/>
  </g>
</svg>
