<svg width="537.296px" height="537.296px" viewBox="0 -3.57 537.296 537.296" xmlns="http://www.w3.org/2000/svg">
  <g id="Group_10" data-name="Group 10" transform="translate(-1056.208 1535.36)">
    <path id="path232" d="M1067.7-1116.731a8.07,8.07,0,0,1-10.751-3.987,8.194,8.194,0,0,1,3.965-10.84q142.406-66.26,234.63-165.839,92.092-99.44,134.341-232.293a8.075,8.075,0,0,1,10.173-5.28,8.191,8.191,0,0,1,5.24,10.267q-43.36,136.36-137.89,238.439Q1213-1184.324,1067.7-1116.731" fill="#465da9" fill-rule="evenodd"/>
    <path id="path234" d="M1367.5-1168.97l2.027-36.693a12.961,12.961,0,0,1,11.093-12.227l36.066-5.32a12.766,12.766,0,0,0,10.547-9.12,12.925,12.925,0,0,0-3.654-13.507l-93.665-86.32a12.95,12.95,0,0,0-18.357.827l-60.276,66.467a13.2,13.2,0,0,0,.823,18.507l93.662,86.32a12.669,12.669,0,0,0,13.667,2.467,12.84,12.84,0,0,0,8.067-11.4" fill="#f0393c" fill-rule="evenodd"/>
    <path id="path236" d="M1486.2-1324.437l-5.307-36.346a13,13,0,0,1,8.44-14.227l34.267-12.507a12.815,12.815,0,0,0,8.52-11.053,12.884,12.884,0,0,0-6.267-12.506l-108.933-65.64a12.965,12.965,0,0,0-17.813,4.52l-45.84,77.293a13.179,13.179,0,0,0,4.493,17.96l108.92,65.653a12.672,12.672,0,0,0,13.88-.347,12.882,12.882,0,0,0,5.64-12.8" fill="#f9b317" fill-rule="evenodd"/>
    <path id="path238" d="M1214.952-1049.931,1225-1085.237a12.893,12.893,0,0,1,13.507-9.453l36.336,2.88a12.72,12.72,0,0,0,12.284-6.533,12.919,12.919,0,0,0-.592-13.987l-72.341-105.12a12.964,12.964,0,0,0-18.083-3.293l-73.394,51.333a13.193,13.193,0,0,0-3.269,18.227l72.343,105.12a12.7,12.7,0,0,0,12.792,5.453,12.766,12.766,0,0,0,10.372-9.32" fill="#43bb4e" fill-rule="evenodd"/>
    <path id="path240" d="M1132.248-1005.211a17.976,17.976,0,0,0,17.867-18.013,17.976,17.976,0,0,0-17.867-18.013,17.977,17.977,0,0,0-17.868,18.013,17.977,17.977,0,0,0,17.868,18.013" fill="#f9b317" fill-rule="evenodd"/>
    <path id="path242" d="M1346.637-1465.236a11.506,11.506,0,0,0,11.44-11.52,11.518,11.518,0,0,0-11.44-11.533,11.506,11.506,0,0,0-11.427,11.533,11.5,11.5,0,0,0,11.427,11.52" fill="#43bb4e" fill-rule="evenodd"/>
    <path id="path244" d="M1368.8-1100.571a4.47,4.47,0,0,1,3.6-5.16,4.419,4.419,0,0,1,5.12,3.627l3.333,19.333a4.45,4.45,0,0,1-3.6,5.16,4.439,4.439,0,0,1-5.12-3.64l-3.333-19.32" fill="#5b7fc9" fill-rule="evenodd"/>
    <path id="path246" d="M1375.17-1063.651a4.456,4.456,0,0,1,3.6-5.173,4.453,4.453,0,0,1,5.12,3.64l3.333,19.32a4.463,4.463,0,0,1-3.6,5.16,4.419,4.419,0,0,1-5.12-3.627l-3.333-19.32" fill="#5b7fc9" fill-rule="evenodd"/>
    <path id="path248" d="M1350.877-1063.931a4.42,4.42,0,0,1-5.12-3.627,4.443,4.443,0,0,1,3.6-5.16l19.173-3.36a4.433,4.433,0,0,1,5.12,3.627,4.469,4.469,0,0,1-3.613,5.16l-19.16,3.36" fill="#5b7fc9" fill-rule="evenodd"/>
    <path id="path250" d="M1387.49-1070.344a4.438,4.438,0,0,1-5.12-3.64,4.47,4.47,0,0,1,3.6-5.16l19.173-3.36a4.426,4.426,0,0,1,5.12,3.627,4.476,4.476,0,0,1-3.6,5.173l-19.173,3.36" fill="#5b7fc9" fill-rule="evenodd"/>
    <path id="path252" d="M1228.576-1375.517a50.6,50.6,0,0,1,27.487-29.36,3.669,3.669,0,0,0,2.247-3.533,3.649,3.649,0,0,0-2.447-3.4,50.559,50.559,0,0,1-29.125-27.707,3.609,3.609,0,0,0-3.511-2.267,3.626,3.626,0,0,0-3.373,2.467,50.6,50.6,0,0,1-27.488,29.36,3.665,3.665,0,0,0-2.244,3.533,3.671,3.671,0,0,0,2.445,3.4,50.5,50.5,0,0,1,29.125,27.706,3.646,3.646,0,0,0,3.511,2.267,3.626,3.626,0,0,0,3.373-2.467" fill="#5b7fc9" fill-rule="evenodd"/>
    <path id="path254" d="M1238.449-1422.623q-1.824,25.84-28.471,30.413a50.582,50.582,0,0,1,11.713,16.893,3.646,3.646,0,0,0,3.511,2.267,3.626,3.626,0,0,0,3.373-2.467,50.6,50.6,0,0,1,27.487-29.36,3.669,3.669,0,0,0,2.247-3.533,3.649,3.649,0,0,0-2.447-3.4,50.248,50.248,0,0,1-17.413-10.813" fill="#4267ba" fill-rule="evenodd"/>
    <path id="path256" d="M1563.769-1449.77a50.566,50.566,0,0,1,27.48-29.36,3.681,3.681,0,0,0,2.253-3.533,3.685,3.685,0,0,0-2.453-3.413,50.468,50.468,0,0,1-29.12-27.707,3.674,3.674,0,0,0-3.52-2.267,3.674,3.674,0,0,0-3.373,2.467,50.549,50.549,0,0,1-27.48,29.373,3.681,3.681,0,0,0-2.253,3.533,3.682,3.682,0,0,0,2.453,3.4,50.51,50.51,0,0,1,29.12,27.706,3.636,3.636,0,0,0,3.52,2.267,3.637,3.637,0,0,0,3.373-2.467" fill="#6759b2" fill-rule="evenodd"/>
    <path id="path258" d="M1573.636-1496.876q-1.82,25.84-28.467,30.413a50.392,50.392,0,0,1,11.707,16.893,3.636,3.636,0,0,0,3.52,2.267,3.637,3.637,0,0,0,3.373-2.467,50.566,50.566,0,0,1,27.48-29.36,3.681,3.681,0,0,0,2.253-3.533,3.685,3.685,0,0,0-2.453-3.413,50.141,50.141,0,0,1-17.413-10.8" fill="#5748a7" fill-rule="evenodd"/>
    <path id="path260" d="M1126.5-1278.943l-4.051,29.8a4.987,4.987,0,0,1-5.6,4.28l-29.56-4.08a5.023,5.023,0,0,1-4.249-5.653l4.049-29.787a5,5,0,0,1,5.6-4.293l29.56,4.093a5.011,5.011,0,0,1,4.249,5.64" fill="#f0393c" fill-rule="evenodd"/>
    <path id="path262" d="M1124.473-1264.05q-19.546,10.44-39.4-5.44l-2.028,14.893a5.022,5.022,0,0,0,4.249,5.653l29.559,4.08a4.984,4.984,0,0,0,5.6-4.28l2.025-14.907" fill="#cb3325" fill-rule="evenodd"/>
    <path id="path264" d="M1534.183-1257.1l21.093,21.267a5.046,5.046,0,0,1,0,7.08l-21.093,21.266a4.957,4.957,0,0,1-7.027,0l-21.107-21.266a5.046,5.046,0,0,1,0-7.08l21.107-21.267a4.934,4.934,0,0,1,7.027,0" fill="#43bb4e" fill-rule="evenodd"/>
    <path id="path266" d="M1544.73-1246.477q-3.58,22-28.12,28.36l10.547,10.627a4.957,4.957,0,0,0,7.027,0l21.093-21.267a5.046,5.046,0,0,0,0-7.08l-10.547-10.64" fill="#32a940" fill-rule="evenodd"/>
  </g>
</svg>
