<svg width="638px" height="638px" viewBox="-60.89 0 638 638" xmlns="http://www.w3.org/2000/svg">
  <g id="Group_6" data-name="Group 6" transform="translate(-1906.141 2473.464)">
    <path id="path316" d="M2214.595-1982.208a51.038,51.038,0,0,1,28.6-28.84,3.718,3.718,0,0,0,2.373-3.52,3.713,3.713,0,0,0-2.373-3.506,51.055,51.055,0,0,1-28.6-28.827,3.683,3.683,0,0,0-3.48-2.4,3.67,3.67,0,0,0-3.48,2.4,51.1,51.1,0,0,1-28.613,28.84,3.694,3.694,0,0,0-2.36,3.507,3.712,3.712,0,0,0,2.374,3.507,51.039,51.039,0,0,1,28.6,28.84,3.689,3.689,0,0,0,3.48,2.387,3.677,3.677,0,0,0,3.48-2.387" fill="#f9b317" fill-rule="evenodd"/>
    <path id="path318" d="M2225.928-2029.488q-2.58,26.02-29.627,29.866a50.963,50.963,0,0,1,11.333,17.413,3.689,3.689,0,0,0,3.48,2.387,3.677,3.677,0,0,0,3.48-2.387,51.039,51.039,0,0,1,28.6-28.84,3.717,3.717,0,0,0,2.373-3.52,3.712,3.712,0,0,0-2.373-3.507,50.626,50.626,0,0,1-17.267-11.413" fill="#db8e19" fill-rule="evenodd"/>
    <path id="path320" d="M1945-1963.889a51.093,51.093,0,0,1,27.76-29.667,3.683,3.683,0,0,0,2.267-3.573,3.678,3.678,0,0,0-2.467-3.427,51.1,51.1,0,0,1-29.427-28,3.651,3.651,0,0,0-3.547-2.28,3.67,3.67,0,0,0-3.4,2.48,51.118,51.118,0,0,1-27.773,29.667,3.714,3.714,0,0,0-2.267,3.573,3.719,3.719,0,0,0,2.467,3.44,50.961,50.961,0,0,1,29.427,27.987,3.694,3.694,0,0,0,3.547,2.293,3.7,3.7,0,0,0,3.413-2.493" fill="#6759b2" fill-rule="evenodd"/>
    <path id="path322" d="M1954.969-2011.475q-1.84,26.1-28.76,30.72a51.282,51.282,0,0,1,11.827,17.067,3.694,3.694,0,0,0,3.547,2.293,3.7,3.7,0,0,0,3.413-2.493,51.093,51.093,0,0,1,27.76-29.667,3.683,3.683,0,0,0,2.267-3.573,3.678,3.678,0,0,0-2.467-3.427,50.722,50.722,0,0,1-17.587-10.92" fill="#5748a7" fill-rule="evenodd"/>
    <path id="path324" d="M2375.434-2184.381l21.32,21.493a5.1,5.1,0,0,1,0,7.146l-21.32,21.493a4.99,4.99,0,0,1-7.093,0l-21.32-21.493a5.1,5.1,0,0,1,0-7.146l21.32-21.493a4.989,4.989,0,0,1,7.093,0" fill="#43bb4e" fill-rule="evenodd"/>
    <path id="path326" d="M2386.1-2173.635q-3.62,22.22-28.413,28.64l10.653,10.747a4.99,4.99,0,0,0,7.093,0l21.32-21.493a5.1,5.1,0,0,0,0-7.146l-10.654-10.747" fill="#32a940" fill-rule="evenodd"/>
    <path id="path328" d="M2048.275-2319.728a36.807,36.807,0,0,1,19.987-21.36,2.667,2.667,0,0,0,1.64-2.573,2.674,2.674,0,0,0-1.787-2.467,36.722,36.722,0,0,1-21.173-20.16,2.654,2.654,0,0,0-2.56-1.64,2.638,2.638,0,0,0-2.453,1.787,36.808,36.808,0,0,1-19.987,21.36,2.691,2.691,0,0,0-1.64,2.573,2.691,2.691,0,0,0,1.787,2.48,36.659,36.659,0,0,1,21.173,20.146,2.665,2.665,0,0,0,2.56,1.653,2.683,2.683,0,0,0,2.453-1.8" fill="#5b7fc9" fill-rule="evenodd"/>
    <path id="path330" d="M2055.462-2353.994q-1.34,18.8-20.707,22.12a36.652,36.652,0,0,1,8.507,12.293,2.665,2.665,0,0,0,2.56,1.653,2.683,2.683,0,0,0,2.453-1.8,36.808,36.808,0,0,1,19.987-21.36,2.666,2.666,0,0,0,1.64-2.573,2.673,2.673,0,0,0-1.787-2.467,36.2,36.2,0,0,1-12.653-7.867" fill="#4267ba" fill-rule="evenodd"/>
    <path id="path332" d="M2136.888-2461.594a9.441,9.441,0,0,1,6.613-11.547,9.353,9.353,0,0,1,11.453,6.667l15.32,57.68a9.433,9.433,0,0,1-6.6,11.546,9.346,9.346,0,0,1-11.453-6.667l-15.333-57.68" fill="#f0393c" fill-rule="evenodd"/>
    <path id="path334" d="M2159.515-2376.528a9.416,9.416,0,0,1,6.573-11.533,9.3,9.3,0,0,1,11.427,6.613l5.813,21.853a9.408,9.408,0,0,1-6.56,11.533,9.318,9.318,0,0,1-11.44-6.613l-5.813-21.854" fill="#f0393c" fill-rule="evenodd"/>
    <path id="path336" d="M2410.581-2302.061a9.347,9.347,0,0,1,11.453,6.667,9.442,9.442,0,0,1-6.613,11.547l-34.386,9.28a9.359,9.359,0,0,1-11.454-6.667,9.442,9.442,0,0,1,6.613-11.547l34.387-9.28" fill="#f0393c" fill-rule="evenodd"/>
    <path id="path338" d="M2349.261-2285.5a9.346,9.346,0,0,1,11.453,6.667,9.441,9.441,0,0,1-6.613,11.547l-44.72,12.08a9.346,9.346,0,0,1-11.453-6.667,9.442,9.442,0,0,1,6.613-11.547l44.72-12.08" fill="#f0393c" fill-rule="evenodd"/>
    <path id="path340" d="M2297.514-2077.982a9.442,9.442,0,0,1-6.613,11.547,9.347,9.347,0,0,1-11.453-6.667l-1.16-4.374a9.441,9.441,0,0,1,6.613-11.546,9.346,9.346,0,0,1,11.453,6.667l1.16,4.373" fill="#f0393c" fill-rule="evenodd"/>
    <path id="path342" d="M2290.154-2105.675a9.434,9.434,0,0,1-6.6,11.547,9.36,9.36,0,0,1-11.467-6.667l-21.053-79.213a9.441,9.441,0,0,1,6.613-11.546,9.347,9.347,0,0,1,11.454,6.667l21.053,79.213" fill="#f0393c" fill-rule="evenodd"/>
    <path id="path344" d="M2007.208-2231.554a9.347,9.347,0,0,1-11.453-6.667,9.442,9.442,0,0,1,6.613-11.547l16.48-4.453a9.353,9.353,0,0,1,11.453,6.667,9.442,9.442,0,0,1-6.613,11.547l-16.48,4.453" fill="#f0393c" fill-rule="evenodd"/>
    <path id="path346" d="M2060.235-2245.875a9.346,9.346,0,0,1-11.453-6.667,9.431,9.431,0,0,1,6.613-11.546l53.013-14.32a9.346,9.346,0,0,1,11.453,6.667,9.442,9.442,0,0,1-6.613,11.547l-53.013,14.32" fill="#f0393c" fill-rule="evenodd"/>
    <path id="path348" d="M2138.448-1926.115a4.5,4.5,0,0,1,4.467-4.52,4.507,4.507,0,0,1,4.48,4.52v19.8a4.507,4.507,0,0,1-4.48,4.52,4.5,4.5,0,0,1-4.467-4.52v-19.8" fill="#5b7fc9" fill-rule="evenodd"/>
    <path id="path350" d="M2138.448-1888.275a4.484,4.484,0,0,1,4.467-4.507,4.5,4.5,0,0,1,4.48,4.507v19.813a4.5,4.5,0,0,1-4.48,4.506,4.484,4.484,0,0,1-4.467-4.506v-19.813" fill="#5b7fc9" fill-rule="evenodd"/>
    <path id="path352" d="M2114.315-1892.782a4.484,4.484,0,0,1-4.467-4.507,4.484,4.484,0,0,1,4.467-4.506h19.653a4.5,4.5,0,0,1,4.48,4.506,4.5,4.5,0,0,1-4.48,4.507h-19.653" fill="#5b7fc9" fill-rule="evenodd"/>
    <path id="path354" d="M2151.861-1892.782a4.484,4.484,0,0,1-4.467-4.507,4.484,4.484,0,0,1,4.467-4.506h19.653a4.5,4.5,0,0,1,4.48,4.506,4.5,4.5,0,0,1-4.48,4.507h-19.653" fill="#5b7fc9" fill-rule="evenodd"/>
    <path id="path356" d="M1998.528-2156.328a4.484,4.484,0,0,1,4.467-4.507,4.487,4.487,0,0,1,4.48,4.507v19.813a4.487,4.487,0,0,1-4.48,4.506,4.484,4.484,0,0,1-4.467-4.506v-19.813" fill="#43bb4e" fill-rule="evenodd"/>
    <path id="path358" d="M1998.528-2118.475a4.484,4.484,0,0,1,4.467-4.507,4.487,4.487,0,0,1,4.48,4.507v19.813a4.5,4.5,0,0,1-4.48,4.507,4.493,4.493,0,0,1-4.467-4.507v-19.813" fill="#43bb4e" fill-rule="evenodd"/>
    <path id="path360" d="M1974.4-2122.981a4.5,4.5,0,0,1-4.467-4.52,4.493,4.493,0,0,1,4.467-4.507h19.653a4.5,4.5,0,0,1,4.48,4.507,4.5,4.5,0,0,1-4.48,4.52H1974.4" fill="#43bb4e" fill-rule="evenodd"/>
    <path id="path362" d="M2011.942-2122.981a4.5,4.5,0,0,1-4.467-4.52,4.493,4.493,0,0,1,4.467-4.507H2031.6a4.5,4.5,0,0,1,4.48,4.507,4.507,4.507,0,0,1-4.48,4.52h-19.653" fill="#43bb4e" fill-rule="evenodd"/>
    <path id="path364" d="M2080.835-2037.808h0a11.213,11.213,0,0,1,4.053,15.213l-104,181.573a11.041,11.041,0,0,1-15.094,4.08h0a11.229,11.229,0,0,1-4.04-15.227l103.986-181.573a11.025,11.025,0,0,1,15.093-4.067" fill="#465da9" fill-rule="evenodd"/>
    <path id="path366" d="M2226.715-2294.768h0a33.254,33.254,0,0,1,11.987,45.08l-133.747,233.533a32.7,32.7,0,0,1-44.72,12.08h0a33.254,33.254,0,0,1-11.987-45.08l133.76-233.533a32.682,32.682,0,0,1,44.707-12.08" fill="#5b7fc9" fill-rule="evenodd"/>
    <path id="path368" d="M2207.968-2229.941l-125.866,212.2-.053.093q-10.44,13.66-29.653,7.2a32.712,32.712,0,0,0,7.84,6.373,32.387,32.387,0,0,0,11.707,4.067,32.783,32.783,0,0,0,33.013-16.147l131.733-230.04a.391.391,0,0,1-.053.107,32.758,32.758,0,0,1-28.667,16.146" fill="#4267ba" fill-rule="evenodd"/>
    <path id="path370" d="M2226.715-2294.768h0a33.254,33.254,0,0,1,11.987,45.08l-1.88,3.267a32.671,32.671,0,0,1-44.707,12.08h0a33.243,33.243,0,0,1-11.987-45.08l1.867-3.267a32.7,32.7,0,0,1,44.72-12.08" fill="#f0393c" fill-rule="evenodd"/>
    <path id="path372" d="M2207.968-2229.941a32.758,32.758,0,0,0,28.667-16.146l2.067-3.6a33.242,33.242,0,0,0-11.987-45.08q7.5,22.96-18.747,64.826" fill="#cb3325" fill-rule="evenodd"/>
  </g>
</svg>
