<?xml version="1.0" ?><svg width="64px" height="64px" viewBox="0 0 64 64" data-name="Layer 1" id="Layer_1" xmlns="http://www.w3.org/2000/svg"><defs><style>.cls-1{fill:#6d4d42;}.cls-2{fill:#5e4137;}.cls-3{fill:#c0ca33;}.cls-4{fill:#afb436;}.cls-5{fill:#4e342e;}.cls-6{fill:#3e2723;}</style></defs><circle class="cls-1" cx="46" cy="38" r="14"/><path class="cls-2" d="M60,38A14.0025,14.0025,0,0,1,46,52V24A14.0025,14.0025,0,0,1,60,38Z"/><circle class="cls-3" cx="46" cy="38" r="10"/><path class="cls-4" d="M56,38A10.0036,10.0036,0,0,1,46,48V28A10.0036,10.0036,0,0,1,56,38Z"/><path class="cls-1" d="M32,38a14.0081,14.0081,0,0,0,1.47,6.23A14.9128,14.9128,0,0,1,20,52C10,52,4,43.94,4,34s6-18,16-18c8.2,0,13.7,5.42,15.42,12.85A13.9,13.9,0,0,0,32,38Z"/><path class="cls-2" d="M32,38a14.0081,14.0081,0,0,0,1.47,6.23A14.9128,14.9128,0,0,1,20,52V16c8.2,0,13.7,5.42,15.42,12.85A13.9,13.9,0,0,0,32,38Z"/><path class="cls-5" d="M22,14v2.12A18.526,18.526,0,0,0,20,16a18.526,18.526,0,0,0-2,.12V14a2,2,0,0,1,4,0Z"/><path class="cls-6" d="M22,14v2.12A18.526,18.526,0,0,0,20,16V12A2.0059,2.0059,0,0,1,22,14Z"/><circle class="cls-1" cx="46" cy="32" r="1"/><circle class="cls-1" cx="46" cy="44" r="1"/><circle class="cls-1" cx="52" cy="38" r="1"/><circle class="cls-1" cx="40" cy="38" r="1"/><circle class="cls-1" cx="50.2426" cy="33.7574" r="1"/><circle class="cls-1" cx="41.7574" cy="42.2426" r="1"/><circle class="cls-1" cx="50.2426" cy="42.2426" r="1"/><circle class="cls-1" cx="41.7574" cy="33.7574" r="1"/></svg>