<?xml version="1.0" ?><svg width="64px" height="64px" viewBox="0 0 64 64" data-name="Layer 1" id="Layer_1" xmlns="http://www.w3.org/2000/svg"><defs><style>.cls-1{fill:#6d4d42;}.cls-2{fill:#378e43;}.cls-3{fill:#42a047;}.cls-4{fill:#e57373;}.cls-5{fill:#ef5451;}.cls-6{fill:#edeff0;}.cls-7{fill:#cfd8dc;}</style></defs><path class="cls-1" d="M20,21a1,1,0,0,1-1-1,9.01,9.01,0,0,1,9-9,1,1,0,0,1,0,2,7.0081,7.0081,0,0,0-7,7A1,1,0,0,1,20,21Z"/><path class="cls-2" d="M30,20s-1,3-5,3-5-3-5-3,1-3,5-3S30,20,30,20Z"/><path class="cls-3" d="M20,20s-1,3-5,3-5-3-5-3,1-3,5-3S20,20,20,20Z"/><path class="cls-4" d="M59.96,39.56c-.26,1.14-1.84,1.82-2.34,2.85-.52,1.04-.09,2.67-.82,3.57-.74.9-2.46.85-3.38,1.57-.92.71-1.25,2.37-2.32,2.87-1.05.49-2.57-.28-3.74-.02C46.24,50.65,45.2,52,44,52s-2.24-1.35-3.36-1.6c-1.17-.26-2.69.51-3.74.02-1.07-.5-1.4-2.16-2.32-2.87-.92-.72-2.64-.67-3.38-1.57-.73-.9-.3-2.53-.82-3.57-.5-1.03-2.08-1.71-2.34-2.85-.26-1.1.85-2.38.85-3.56H59.11C59.11,37.18,60.22,38.46,59.96,39.56Z"/><path class="cls-5" d="M59.96,39.56c-.26,1.14-1.84,1.82-2.34,2.85-.52,1.04-.09,2.67-.82,3.57-.74.9-2.46.85-3.38,1.57-.92.71-1.25,2.37-2.32,2.87-1.05.49-2.57-.28-3.74-.02C46.24,50.65,45.2,52,44,52V36H59.11C59.11,37.18,60.22,38.46,59.96,39.56Z"/><path class="cls-6" d="M56,36H32a12,12,0,0,1,24,0Z"/><path class="cls-7" d="M56,36H44V24A11.9967,11.9967,0,0,1,56,36Z"/><path class="cls-4" d="M28.89,36c0,1.18-1.11,2.46-.85,3.56.26,1.14,1.84,1.82,2.34,2.85.52,1.04.09,2.67.82,3.57a2.135,2.135,0,0,0,.8.56,12.3742,12.3742,0,0,0-2.58,1.01c-.92.71-1.25,2.37-2.32,2.87-1.05.49-2.57-.28-3.74-.02C22.24,50.65,21.2,52,20,52s-2.24-1.35-3.36-1.6c-1.17-.26-2.69.51-3.74.02-1.07-.5-1.4-2.16-2.32-2.87-.92-.72-2.64-.67-3.38-1.57-.73-.9-.3-2.53-.82-3.57-.5-1.03-2.08-1.71-2.34-2.85-.26-1.1.85-2.38.85-3.56s-1.11-2.46-.85-3.56c.26-1.14,1.84-1.82,2.34-2.85.52-1.04.09-2.67.82-3.57.74-.9,2.46-.85,3.38-1.57a10.58,10.58,0,0,0,1.51-2.14A5.89,5.89,0,0,0,15,23c4,0,5-3,5-3s1,3,5,3a5.89,5.89,0,0,0,2.91-.69,10.2,10.2,0,0,0,1.51,2.14c.92.72,2.64.67,3.38,1.57.73.9.3,2.53.82,3.57a1.3241,1.3241,0,0,0,.12.2A11.9348,11.9348,0,0,0,32,36Z"/><path class="cls-5" d="M28.89,36c0,1.18-1.11,2.46-.85,3.56.26,1.14,1.84,1.82,2.34,2.85.52,1.04.09,2.67.82,3.57a2.135,2.135,0,0,0,.8.56,12.3742,12.3742,0,0,0-2.58,1.01c-.92.71-1.25,2.37-2.32,2.87-1.05.49-2.57-.28-3.74-.02C22.24,50.65,21.2,52,20,52V20s1,3,5,3a5.89,5.89,0,0,0,2.91-.69,10.2,10.2,0,0,0,1.51,2.14c.92.72,2.64.67,3.38,1.57.73.9.3,2.53.82,3.57a1.3241,1.3241,0,0,0,.12.2A11.9348,11.9348,0,0,0,32,36Z"/><path class="cls-2" d="M10,20H20s-1,3-5,3S10,20,10,20Z"/><path class="cls-3" d="M30,20s-1,3-5,3-5-3-5-3Z"/></svg>