<?xml version="1.0" ?><svg width="64px" height="64px" viewBox="0 0 64 64" data-name="Layer 1" id="Layer_1" xmlns="http://www.w3.org/2000/svg"><defs><style>.cls-1{fill:#ae1f59;}.cls-2{fill:#881a51;}.cls-3{fill:#42a047;}.cls-4{fill:#378e43;}.cls-5{fill:#b6e2eb;}.cls-6{fill:#89d3e2;}</style></defs><path class="cls-1" d="M32,38a13.847,13.847,0,0,0,1.58,6.44,15.9942,15.9942,0,1,1-22.5-21.72,2.652,2.652,0,0,0,.1,1.99c.76,1.42,3.18,1.69,5.19,1.34C17.01,27.99,18.39,30,20,30s2.99-2.01,3.63-3.95c2.01.35,4.43.08,5.19-1.34a2.652,2.652,0,0,0,.1-1.99,16.0269,16.0269,0,0,1,5.8,7.01A13.9372,13.9372,0,0,0,32,38Z"/><path class="cls-2" d="M32,38a13.847,13.847,0,0,0,1.58,6.44A15.9894,15.9894,0,0,1,20,52V30c1.61,0,2.99-2.01,3.63-3.95,2.01.35,4.43.08,5.19-1.34a2.652,2.652,0,0,0,.1-1.99,16.0269,16.0269,0,0,1,5.8,7.01A13.9372,13.9372,0,0,0,32,38Z"/><path class="cls-3" d="M28.82,24.71c-.76,1.42-3.18,1.69-5.19,1.34A7.1287,7.1287,0,0,0,24,24a4.0015,4.0015,0,0,0-4-4,3.9944,3.9944,0,0,1,5.41-1.64C27.36,19.4,29.86,22.76,28.82,24.71Z"/><path class="cls-4" d="M28.82,24.71l-5.5-2.94A3.9951,3.9951,0,0,0,20,20a3.9944,3.9944,0,0,1,5.41-1.64C27.36,19.4,29.86,22.76,28.82,24.71Z"/><path class="cls-4" d="M16,24a4,4,0,0,1,4-4,4,4,0,0,0-5.413-1.6431c-1.9485,1.041-4.4481,4.407-3.4071,6.3554.7576,1.418,3.18,1.6913,5.1944,1.3356A6.8538,6.8538,0,0,1,16,24Z"/><circle class="cls-1" cx="46" cy="38" r="14"/><path class="cls-2" d="M60,38A14.0025,14.0025,0,0,1,46,52V24A14.0025,14.0025,0,0,1,60,38Z"/><path class="cls-5" d="M46,30.6954V38l-5.1668-5.1668a2.3166,2.3166,0,0,1,.494-3.6753,9.9339,9.9339,0,0,1,1.6928-.7058A2.3242,2.3242,0,0,1,46,30.6954Z"/><path class="cls-6" d="M51.1668,32.8332,46,38V30.6954a2.3242,2.3242,0,0,1,2.98-2.2433,9.9339,9.9339,0,0,1,1.6928.7058A2.3166,2.3166,0,0,1,51.1668,32.8332Z"/><path class="cls-5" d="M53.3046,38H46l5.1668-5.1668a2.3166,2.3166,0,0,1,3.6753.494,9.9339,9.9339,0,0,1,.7058,1.6928A2.3242,2.3242,0,0,1,53.3046,38Z"/><path class="cls-6" d="M55.5479,40.98a9.9339,9.9339,0,0,1-.7058,1.6928,2.3166,2.3166,0,0,1-3.6753.494L46,38h7.3046A2.3242,2.3242,0,0,1,55.5479,40.98Z"/><path class="cls-5" d="M50.6728,46.8421a9.9339,9.9339,0,0,1-1.6928.7058A2.3242,2.3242,0,0,1,46,45.3046V38l5.1668,5.1668A2.3166,2.3166,0,0,1,50.6728,46.8421Z"/><path class="cls-6" d="M46,38v7.3046a2.3242,2.3242,0,0,1-2.98,2.2433,9.9339,9.9339,0,0,1-1.6928-.7058,2.3166,2.3166,0,0,1-.494-3.6753Z"/><path class="cls-5" d="M46,38l-5.1668,5.1668a2.3166,2.3166,0,0,1-3.6753-.494,9.9339,9.9339,0,0,1-.7058-1.6928A2.3242,2.3242,0,0,1,38.6954,38Z"/><path class="cls-6" d="M46,38H38.6954a2.3242,2.3242,0,0,1-2.2433-2.98,9.9339,9.9339,0,0,1,.7058-1.6928,2.3166,2.3166,0,0,1,3.6753-.494Z"/><path class="cls-3" d="M24,24a7.1287,7.1287,0,0,1-.37,2.05C22.99,27.99,21.61,30,20,30s-2.99-2.01-3.63-3.95A7.1287,7.1287,0,0,1,16,24a4,4,0,0,1,8,0Z"/><path class="cls-4" d="M24,24a7.1287,7.1287,0,0,1-.37,2.05C22.99,27.99,21.61,30,20,30V20A3.9989,3.9989,0,0,1,24,24Z"/><path class="cls-3" d="M11.18,24.71l5.5-2.94A3.9951,3.9951,0,0,1,20,20a3.9944,3.9944,0,0,0-5.41-1.64C12.64,19.4,10.14,22.76,11.18,24.71Z"/></svg>