<?xml version="1.0" ?><svg width="64px" height="64px" viewBox="0 0 64 64" data-name="Layer 1" id="Layer_1" xmlns="http://www.w3.org/2000/svg"><defs><style>.cls-1{fill:#6d4d42;}.cls-2{fill:#378e43;}.cls-3{fill:#42a047;}.cls-4{fill:#f78c1e;}.cls-5{fill:#f47c20;}.cls-6{fill:#d32e2e;}.cls-7{fill:#e53a35;}</style></defs><path class="cls-1" d="M22,21a1,1,0,0,1-1-1,9.01,9.01,0,0,1,9-9,1,1,0,0,1,0,2,7.0081,7.0081,0,0,0-7,7A1,1,0,0,1,22,21Z"/><path class="cls-2" d="M22,18.06V20H20.06A6.056,6.056,0,0,1,14,13.94V12h1.94A6.056,6.056,0,0,1,22,18.06Z"/><path class="cls-3" d="M22,20H20.06A6.056,6.056,0,0,1,14,13.94V12Z"/><path class="cls-4" d="M34.31,35.26A2.2324,2.2324,0,0,0,36.48,38H32a13.9254,13.9254,0,0,0,3.18,8.88A19.0572,19.0572,0,0,1,22,52C12.06,52,4,44.84,4,36s8.06-16,18-16c7.5,0,13.92,4.08,16.62,9.87a2.2031,2.2031,0,0,0,.51,1.22,1.0375,1.0375,0,0,0,.04.1,2.2193,2.2193,0,0,0-3.36.46A11.9911,11.9911,0,0,0,34.31,35.26Z"/><path class="cls-5" d="M34.31,35.26A2.2324,2.2324,0,0,0,36.48,38H32a13.9254,13.9254,0,0,0,3.18,8.88A19.0572,19.0572,0,0,1,22,52V20c7.5,0,13.92,4.08,16.62,9.87a2.2031,2.2031,0,0,0,.51,1.22,1.0375,1.0375,0,0,0,.04.1,2.2193,2.2193,0,0,0-3.36.46A11.9911,11.9911,0,0,0,34.31,35.26Z"/><path class="cls-4" d="M60,38a14,14,0,0,1-28,0Z"/><path class="cls-5" d="M60,38A14.0025,14.0025,0,0,1,46,52V38Z"/><path class="cls-6" d="M55.5218,38H46l6.7352-6.7352a2.2231,2.2231,0,0,1,3.4548.3843,11.9251,11.9251,0,0,1,1.4976,3.6121A2.23,2.23,0,0,1,55.5218,38Z"/><path class="cls-7" d="M52.7352,31.2648,46,38V28.4782a2.23,2.23,0,0,1,2.7388-2.1658A11.9274,11.9274,0,0,1,52.3509,27.81,2.2232,2.2232,0,0,1,52.7352,31.2648Z"/><path class="cls-6" d="M46,28.4782V38l-6.7352-6.7352a2.2232,2.2232,0,0,1,.3843-3.4549,11.9274,11.9274,0,0,1,3.6121-1.4975A2.23,2.23,0,0,1,46,28.4782Z"/><path class="cls-7" d="M46,38H36.4782a2.23,2.23,0,0,1-2.1658-2.7388A11.9251,11.9251,0,0,1,35.81,31.6491a2.2231,2.2231,0,0,1,3.4548-.3843Z"/></svg>