<?xml version="1.0" ?><svg width="64px" height="64px" viewBox="0 0 64 64" data-name="Layer 1" id="Layer_1" xmlns="http://www.w3.org/2000/svg"><defs><style>.cls-1{fill:#c52928;}.cls-2{fill:#b72025;}.cls-3{fill:#fbcbbd;}.cls-4{fill:#f9aa92;}</style></defs><path class="cls-1" d="M60,35A16.9985,16.9985,0,0,1,43,52a18.503,18.503,0,0,1-1.95-.11A16.9837,16.9837,0,0,1,32.31,21.8a12.5877,12.5877,0,0,0,3.45-4.37A12.4549,12.4549,0,0,0,37,12l3,3,3-3,3,3,3-3a12.38,12.38,0,0,0,4.58,9.71A16.9481,16.9481,0,0,1,60,35Z"/><path class="cls-2" d="M60,35A16.9985,16.9985,0,0,1,43,52V12l3,3,3-3a12.38,12.38,0,0,0,4.58,9.71A16.9481,16.9481,0,0,1,60,35Z"/><path class="cls-3" d="M41,24.9183a2.11,2.11,0,0,0-2.9279-1.9351,12.9807,12.9807,0,0,0,0,24.0336A2.11,2.11,0,0,0,41,45.0817Z"/><path class="cls-4" d="M45,24.9183V45.0817a2.11,2.11,0,0,0,2.9279,1.9351,12.9807,12.9807,0,0,0,0-24.0336A2.11,2.11,0,0,0,45,24.9183Z"/><path class="cls-1" d="M31.99,47.94A16.884,16.884,0,0,1,21,52a18.503,18.503,0,0,1-1.95-.11A16.9837,16.9837,0,0,1,10.31,21.8a12.5877,12.5877,0,0,0,3.45-4.37A12.4549,12.4549,0,0,0,15,12l3,3,3-3,3,3,3-3a12.38,12.38,0,0,0,4.58,9.71c.15.12.28.24.42.36a16.9369,16.9369,0,0,0-.01,25.87Z"/><path class="cls-2" d="M31.99,47.94A16.884,16.884,0,0,1,21,52V12l3,3,3-3a12.38,12.38,0,0,0,4.58,9.71c.15.12.28.24.42.36a16.9369,16.9369,0,0,0-.01,25.87Z"/><circle class="cls-2" cx="49" cy="29" r="1"/><circle class="cls-2" cx="49" cy="33" r="1"/><circle class="cls-2" cx="49" cy="37" r="1"/><circle class="cls-2" cx="52" cy="35" r="1"/><circle class="cls-2" cx="52" cy="39" r="1"/><circle class="cls-2" cx="52" cy="31" r="1"/><circle class="cls-2" cx="49" cy="41" r="1"/><circle class="cls-1" cx="37" cy="29" r="1"/><circle class="cls-1" cx="37" cy="33" r="1"/><circle class="cls-1" cx="37" cy="37" r="1"/><circle class="cls-1" cx="34" cy="35" r="1"/><circle class="cls-1" cx="34" cy="39" r="1"/><circle class="cls-1" cx="34" cy="31" r="1"/><circle class="cls-1" cx="37" cy="41" r="1"/></svg>