<?xml version="1.0" ?><svg width="64px" height="64px" viewBox="0 0 64 64" data-name="Layer 1" id="Layer_1" xmlns="http://www.w3.org/2000/svg"><defs><style>.cls-1{fill:#e53a35;}.cls-2{fill:#d32e2e;}.cls-3{fill:#e57373;}.cls-4{fill:#6d4d42;}.cls-5{fill:#42a047;}.cls-6{fill:#378e43;}</style></defs><circle class="cls-1" cx="50" cy="42" r="10"/><path class="cls-2" d="M42.9289,49.0711a10.0038,10.0038,0,0,0,14.1422,0L42.9289,34.9289A10.0038,10.0038,0,0,0,42.9289,49.0711Z"/><path class="cls-3" d="M46,43a4,4,0,0,0,2.8281-6.8281,1,1,0,0,0-1.414,1.414,1.9995,1.9995,0,0,1,0,2.8282,2.0473,2.0473,0,0,1-2.8282,0,1,1,0,0,0-1.414,1.414A3.9714,3.9714,0,0,0,46,43Z"/><circle class="cls-1" cx="14" cy="42" r="10"/><path class="cls-2" d="M21.0711,49.0711a10.0038,10.0038,0,0,1-14.1422,0L21.0711,34.9289A10.0038,10.0038,0,0,1,21.0711,49.0711Z"/><path class="cls-4" d="M45.68,37.2666l-2.6441-2.4507L41.9888,33.769A30.5855,30.5855,0,0,1,32.9722,12a1,1,0,0,0-2,0,30.5749,30.5749,0,0,1-9.0034,21.7554l-3.6622,3.5239a1,1,0,0,0,1.3868,1.4414l3.6757-3.5376a32.5826,32.5826,0,0,0,8.603-15.1,32.5887,32.5887,0,0,0,8.6026,15.1009l1.0742,1.0727L44.32,38.7334a1,1,0,1,0,1.36-1.4668Z"/><path class="cls-3" d="M18,43a4,4,0,0,1-2.8281-6.8281,1,1,0,0,1,1.414,1.414,1.9995,1.9995,0,0,0,0,2.8282,2.0473,2.0473,0,0,0,2.8282,0,1,1,0,0,1,1.414,1.414A3.9714,3.9714,0,0,1,18,43Z"/><path class="cls-5" d="M32,12A11.9967,11.9967,0,0,1,20,24,11.9839,11.9839,0,0,1,32,12Z"/><path class="cls-6" d="M32,12A11.9967,11.9967,0,0,1,20,24Z"/></svg>