<svg width="64px" height="64px" viewBox="0 0 64 64" xmlns="http://www.w3.org/2000/svg"><title>crocodile</title><g id="crocodile"><circle cx="33.5" cy="29.5" r="22.5" style="fill:#ffded5"/><line x1="22" y1="6" x2="22" y2="8" style="fill:none;stroke:#4c241d;stroke-linecap:round;stroke-linejoin:round;stroke-width:2px"/><line x1="22" y1="12" x2="22" y2="14" style="fill:none;stroke:#4c241d;stroke-linecap:round;stroke-linejoin:round;stroke-width:2px"/><line x1="18" y1="10" x2="20" y2="10" style="fill:none;stroke:#4c241d;stroke-linecap:round;stroke-linejoin:round;stroke-width:2px"/><line x1="24" y1="10" x2="26" y2="10" style="fill:none;stroke:#4c241d;stroke-linecap:round;stroke-linejoin:round;stroke-width:2px"/><circle cx="39.74" cy="7.987" r="1.069" style="fill:#4c241d"/><circle cx="48.5" cy="14.5" r="2.5" style="fill:none;stroke:#4c241d;stroke-linecap:round;stroke-linejoin:round;stroke-width:2px"/><path d="M44,37.861v7.365A4.773,4.773,0,0,1,39.226,50H20a9,9,0,0,0-9,9H55a7,7,0,0,0,7-7V27a3,3,0,0,0-6,0,3,3,0,0,0-6,0,3,3,0,0,0-6,0l-8,.509V27a3,3,0,0,0-6,0v.945L12,29.254v-.611a2.6,2.6,0,0,0-2.242-2.63A2.5,2.5,0,0,0,7,28.5V29h-2.2A2.805,2.805,0,0,0,2,31.805v5.52a5.132,5.132,0,0,0,4.835,5.123L37,44.191,44,50" style="fill:#a9ba5a"/><path d="M44,37.861v7.365A4.773,4.773,0,0,1,39.226,50H20a9,9,0,0,0-9,9H55a7,7,0,0,0,7-7V27a3,3,0,0,0-6,0,3,3,0,0,0-6,0,3,3,0,0,0-6,0l-8,.509V27a3,3,0,0,0-6,0v.945L12,29.254v-.611a2.6,2.6,0,0,0-2.242-2.63A2.5,2.5,0,0,0,7,28.5V29h-2.2A2.805,2.805,0,0,0,2,31.805v5.52a5.132,5.132,0,0,0,4.835,5.123L37,44.191,39,46" style="fill:none;stroke:#4c241d;stroke-linecap:round;stroke-linejoin:round;stroke-width:2px"/><circle cx="33" cy="27" r="1" style="fill:#4c241d"/><line x1="3" y1="35" x2="27" y2="35" style="fill:none;stroke:#4c241d;stroke-linecap:round;stroke-linejoin:round;stroke-width:2px"/><polygon points="8 39 5 35 10 35 8 39" style="fill:#fff;stroke:#4c241d;stroke-linecap:round;stroke-linejoin:round;stroke-width:2px"/><polygon points="13 39 9 35 14 35 13 39" style="fill:#fff;stroke:#4c241d;stroke-linecap:round;stroke-linejoin:round;stroke-width:2px"/><polygon points="19 39 17 35 22 35 19 39" style="fill:#fff;stroke:#4c241d;stroke-linecap:round;stroke-linejoin:round;stroke-width:2px"/><line x1="36" y1="29" x2="36" y2="28" style="fill:none;stroke:#4c241d;stroke-linecap:round;stroke-linejoin:round;stroke-width:2px"/><path d="M55,33a2,2,0,0,0-4,0" style="fill:#a9ba5a;stroke:#4c241d;stroke-linecap:round;stroke-linejoin:round;stroke-width:2px"/><path d="M55,38a2,2,0,0,0-4,0" style="fill:#a9ba5a;stroke:#4c241d;stroke-linecap:round;stroke-linejoin:round;stroke-width:2px"/><path d="M55,43a2,2,0,0,0-4,0" style="fill:#a9ba5a;stroke:#4c241d;stroke-linecap:round;stroke-linejoin:round;stroke-width:2px"/><path d="M55,48a2,2,0,0,0-4,0" style="fill:#a9ba5a;stroke:#4c241d;stroke-linecap:round;stroke-linejoin:round;stroke-width:2px"/></g></svg>