<svg width="64px" height="64px" viewBox="0 0 64 64" xmlns="http://www.w3.org/2000/svg"><title>fish</title><g id="fish"><circle cx="28.5" cy="24.5" r="22.5" style="fill:#ffded5"/><circle cx="60.74" cy="20.987" r="1.069" style="fill:#4c241d"/><circle cx="55.74" cy="14.987" r="1.069" style="fill:#4c241d"/><circle cx="57.74" cy="11.987" r="1.069" style="fill:#4c241d"/><circle cx="58.74" cy="5.987" r="1.069" style="fill:#4c241d"/><path d="M17,37S7,35,6,26C6,26-5,39,6,53c0,0,2.615-9.634,9.308-10.317S17,37,17,37Z" style="fill:#9dc1e4;stroke:#4c241d;stroke-linecap:round;stroke-linejoin:round;stroke-width:2px"/><path d="M41.91,26.7a7.032,7.032,0,0,0-2.992-12.113C35.74,13.864,31.531,13.771,26,15c-18,4-5,9-4,20C22.68,42.475,34.441,33.326,41.91,26.7Z" style="fill:#9dc1e4;stroke:#4c241d;stroke-linecap:round;stroke-linejoin:round;stroke-width:2px"/><path d="M63,39.235A24.866,24.866,0,0,1,52.574,27.94C49.1,20.12,29.984,16.645,21.3,26.2S10,36.628,10,39.235s5.213,5.213,5.213,7.819v7.82c0,5.213,6.951,6.951,12.164,6.082S55.18,55.743,63,42.71Z" style="fill:#fc8c29;stroke:#4c241d;stroke-linecap:round;stroke-linejoin:round;stroke-width:2px"/><path d="M61.708,38.47a24.953,24.953,0,0,1-9.134-10.53,7.872,7.872,0,0,0-1.118-1.769c-2.872,1.142-6.653,3.653-4.964,8.72,2.606,7.819-5.213,8.688-2.607,13.032,1.252,2.086,3.9,4.17,6.325,5.775a42.793,42.793,0,0,0,6.03-3.749,21.265,21.265,0,0,0-1.06-2.895C53.441,43.141,57.359,40.316,61.708,38.47Z" style="fill:#bd53b5;stroke:#4c241d;stroke-linecap:round;stroke-linejoin:round;stroke-width:2px"/><path d="M25,34s-6,0-5,6,5,13,11,6,8,0,8,0-1-11-8-12S25,34,25,34Z" style="fill:#bd53b5"/><circle cx="52.405" cy="36.322" r="1.405" style="fill:#4c241d"/><path d="M25,34s-6,0-5,6,5,13,11,6,8,0,8,0" style="fill:none;stroke:#4c241d;stroke-linecap:round;stroke-linejoin:round;stroke-width:2px"/><path d="M23,54s2.326,5.328,10.663,5.664" style="fill:none;stroke:#4c241d;stroke-linecap:round;stroke-linejoin:round;stroke-width:2px"/><path d="M17,19s7,0,8,4" style="fill:none;stroke:#4c241d;stroke-linecap:round;stroke-linejoin:round;stroke-width:2px"/><path d="M27.242,14.97c1.246.914,3.715,3.055,3.535,5.551" style="fill:#9dc1e4;stroke:#4c241d;stroke-linecap:round;stroke-linejoin:round;stroke-width:2px"/><path d="M36.958,14.427c.366,1.027,1.213,4.055-.691,5.984" style="fill:#9dc1e4;stroke:#4c241d;stroke-linecap:round;stroke-linejoin:round;stroke-width:2px"/></g></svg>