<svg width="64px" height="64px" viewBox="0 0 64 64" xmlns="http://www.w3.org/2000/svg"><title>dolphin</title><g id="dolphin"><circle cx="34.5" cy="34.5" r="22.5" style="fill:#ffded5"/><circle cx="54.5" cy="11.5" r="2.5" style="fill:none;stroke:#4c241d;stroke-linecap:round;stroke-linejoin:round;stroke-width:2px"/><circle cx="59.251" cy="19.232" r="1.069" style="fill:#4c241d"/><path d="M31.356,8s5.07-8.018,15.761-1.258c0,0-8.246.024-6.041,7.778" style="fill:#eaeaea;stroke:#4c241d;stroke-linecap:round;stroke-linejoin:round;stroke-width:2px"/><path d="M57,48.143A4.875,4.875,0,0,1,53.023,46H50.977a4.762,4.762,0,0,1-7.954,0H40.977a4.762,4.762,0,0,1-7.954,0H30.977a4.762,4.762,0,0,1-7.954,0H20.977a4.762,4.762,0,0,1-7.954,0H10.977A4.875,4.875,0,0,1,7,48.143,4.875,4.875,0,0,1,3.023,46H3V60H61V46h-.023A4.875,4.875,0,0,1,57,48.143Z" style="fill:#02eae6"/><path d="M62,43a5,5,0,0,1-10,0,5,5,0,0,1-10,0,5,5,0,0,1-10,0,5,5,0,0,1-10,0,5,5,0,0,1-10,0A5,5,0,0,1,2,43" style="fill:none;stroke:#4c241d;stroke-linecap:round;stroke-linejoin:round;stroke-width:2px"/><path d="M13.581,21.943s-.95,11.736,11.448,9.233c0,0-7.695-2.963-2.87-9.421" style="fill:#eaeaea;stroke:#4c241d;stroke-linecap:round;stroke-linejoin:round;stroke-width:2px"/><path d="M6.185,26.507S-4.746,20.718,5.9,10.986s32.961-8.341,40.284,7.889.8,25.949.8,25.949,5.837,5.561,2.948,13.088c0,0-5.974-11.261-18.332-7.1,0,0,.228-5.094,9.925-6.82,0,0,4.819-11.17-9.024-17.679S9.966,34.137,7.785,34.628s-2.433-2.661-1.954-4.6A12.194,12.194,0,0,0,6.185,26.507Z" style="fill:#b5a19c;stroke:#4c241d;stroke-linecap:round;stroke-linejoin:round;stroke-width:2px"/><circle cx="10.902" cy="22.007" r="1.5" style="fill:#4c241d"/><path d="M28.237,20.8S22.223,30.924,34.46,34.127c0,0-5.609-6.045,1.565-9.724" style="fill:#b5a19c;stroke:#4c241d;stroke-linecap:round;stroke-linejoin:round;stroke-width:2px"/><path d="M13.173,10.723A20.2,20.2,0,0,1,24.081,8.266" style="fill:none;stroke:#fff;stroke-linecap:round;stroke-linejoin:round;stroke-width:2px"/></g></svg>