<svg width="64px" height="64px" viewBox="0 0 64 64" xmlns="http://www.w3.org/2000/svg"><title>fire-run</title><g id="fire-run"><circle cx="39.5" cy="32.5" r="22.5" style="fill:#ffded5"/><path d="M56.125,52.353C52.643,49.486,57.858,46,57.858,46H55.529a6.4,6.4,0,0,0-5.971,8.78,4.95,4.95,0,0,0,.214.461c-2.031-1.269-3.391-1.2-4.279-.722a30.618,30.618,0,0,0-2.368-2.166C39.643,49.486,44.858,46,44.858,46H42.529a6.4,6.4,0,0,0-5.971,8.78,4.95,4.95,0,0,0,.214.461c-2.55-1.594-4.041-1.075-4.868-.291a30.065,30.065,0,0,0-2.779-2.6C25.643,49.486,30.858,46,30.858,46H28.529a6.4,6.4,0,0,0-5.971,8.78,4.95,4.95,0,0,0,.214.461C18.151,52.353,17,56.4,17,56.4a3.375,3.375,0,0,1,2.035,3.41c0,.067-.025.129-.032.194H62.548A24.54,24.54,0,0,0,56.125,52.353Z" style="fill:#e66353;stroke:#4c241d;stroke-linecap:round;stroke-linejoin:round;stroke-width:2px"/><circle cx="20.251" cy="3.232" r="1.069" style="fill:#4c241d"/><line x1="7" y1="10" x2="7" y2="12" style="fill:none;stroke:#4c241d;stroke-linecap:round;stroke-linejoin:round;stroke-width:2px"/><line x1="7" y1="16" x2="7" y2="18" style="fill:none;stroke:#4c241d;stroke-linecap:round;stroke-linejoin:round;stroke-width:2px"/><line x1="3" y1="14" x2="5" y2="14" style="fill:none;stroke:#4c241d;stroke-linecap:round;stroke-linejoin:round;stroke-width:2px"/><line x1="9" y1="14" x2="11" y2="14" style="fill:none;stroke:#4c241d;stroke-linecap:round;stroke-linejoin:round;stroke-width:2px"/><path d="M59.923,17.427c0,3.208-3.187,5.809-7.119,5.809s-7.12-2.6-7.12-5.809A5.163,5.163,0,0,1,47.243,13.8a2.91,2.91,0,0,0,.885-1.842,2.191,2.191,0,0,0-1.32-2.213S47.557,7.122,50.555,9a3.183,3.183,0,0,1-.139-.3A4.155,4.155,0,0,1,54.29,3H55.8s-3.383,2.262-1.124,4.122C61.048,12.368,59.923,17.427,59.923,17.427Z" style="fill:#ffce56;stroke:#4c241d;stroke-linecap:round;stroke-linejoin:round;stroke-width:2px"/><path d="M48.721,19.339a3.64,3.64,0,0,0-.026.8c.172,1.733,1.946,3.1,4.109,3.1a4.056,4.056,0,0,0,4.122-3.373c.374-1.874-.375-5.621-4.122-8.244,0,0,1.406,3.292-1.5,4.122C49.327,16.306,48.84,18.361,48.721,19.339Z" style="fill:#fc8c29;stroke:#4c241d;stroke-linecap:round;stroke-linejoin:round;stroke-width:2px"/><path d="M12.649,29.339,15,32l3.494-3h9.392l3.92,3.606A3.519,3.519,0,0,1,32.943,35.2v5.332A1.472,1.472,0,0,1,31.471,42h0A1.472,1.472,0,0,1,30,40.529V37.173A3.3,3.3,0,0,0,28.13,34.2L27,33.652V43.667a9.578,9.578,0,0,0,1.7,5.448l.938,1.354A9.8,9.8,0,0,0,34.6,54.193l.537.178A4.188,4.188,0,0,1,38,58.344v1.317l-7.88-2.815a7.163,7.163,0,0,1-3.551-2.772l-4.463-6.695-6.764,4.3a3.771,3.771,0,0,0-1.586,2.1L13,56.432A4.908,4.908,0,0,1,8.283,60H7.891L9.57,53.265a11.779,11.779,0,0,1,3.96-6.144L18,43.489V33.375l-1.549,1.569a2.769,2.769,0,0,1-4.21-.317L9.962,31.494a1.724,1.724,0,0,1,1.057-2.7h0A1.722,1.722,0,0,1,12.649,29.339Z" style="fill:#fff;stroke:#4c241d;stroke-linecap:round;stroke-linejoin:round;stroke-width:2px"/><circle cx="21.271" cy="24.5" r="4.5" style="fill:#fff;stroke:#4c241d;stroke-linecap:round;stroke-linejoin:round;stroke-width:2px"/><line x1="3" y1="60" x2="19" y2="60" style="fill:none;stroke:#4c241d;stroke-linecap:round;stroke-linejoin:round;stroke-width:2px"/><line x1="34" y1="29" x2="41" y2="29" style="fill:none;stroke:#4c241d;stroke-linecap:round;stroke-linejoin:round;stroke-width:2px"/><line x1="30" y1="25" x2="33" y2="25" style="fill:none;stroke:#4c241d;stroke-linecap:round;stroke-linejoin:round;stroke-width:2px"/></g></svg>