<svg width="64px" height="64px" viewBox="0 0 64 64" xmlns="http://www.w3.org/2000/svg"><title>kangaroo-glass</title><g id="kangaroo-glass"><circle cx="38.5" cy="29.5" r="22.5" style="fill:#ffded5"/><circle cx="9.74" cy="25.987" r="1.069" style="fill:#4c241d"/><circle cx="57.74" cy="38.987" r="1.069" style="fill:#4c241d"/><circle cx="7.5" cy="48.5" r="2.5" style="fill:none;stroke:#4c241d;stroke-linecap:round;stroke-linejoin:round;stroke-width:2px"/><line x1="55" y1="17" x2="55" y2="19" style="fill:none;stroke:#4c241d;stroke-linecap:round;stroke-linejoin:round;stroke-width:2px"/><line x1="55" y1="23" x2="55" y2="25" style="fill:none;stroke:#4c241d;stroke-linecap:round;stroke-linejoin:round;stroke-width:2px"/><line x1="51" y1="21" x2="53" y2="21" style="fill:none;stroke:#4c241d;stroke-linecap:round;stroke-linejoin:round;stroke-width:2px"/><line x1="57" y1="21" x2="59" y2="21" style="fill:none;stroke:#4c241d;stroke-linecap:round;stroke-linejoin:round;stroke-width:2px"/><path d="M23.9,18.653S22.9,6,8.9,3c0,0-3.644,12.473,9.678,22.237" style="fill:#bf7e68;stroke:#4c241d;stroke-linecap:round;stroke-linejoin:round;stroke-width:2px"/><path d="M50,63l-1-2h0c-3.866,0-7-4.134-7-8V47H18v6c0,3.866-3.134,8-7,8h0l-1,2" style="fill:#bf7e68;stroke:#4c241d;stroke-linecap:round;stroke-linejoin:round;stroke-width:2px"/><path d="M51,3c-.044.009-.084.021-.127.031h0C37,6.081,36,18.569,36,18.569l.739.925A10.812,10.812,0,0,0,30,17c-7.732,0-14,8.954-14,20,0,6.588,2.24,12.414,5.68,16.058C23.7,57.3,26.673,60,30,60s6.3-2.7,8.32-6.942C41.76,49.414,44,43.588,44,37a25.962,25.962,0,0,0-2.73-11.829l.052.066C54.644,15.473,51,3,51,3Z" style="fill:#bf7e68;stroke:#4c241d;stroke-linecap:round;stroke-linejoin:round;stroke-width:2px"/><path d="M50.958,3c-.044.009-.084.021-.127.031-.426,2.846-2.169,10.941-8.531,15.833" style="fill:none;stroke:#4c241d;stroke-linecap:round;stroke-linejoin:round;stroke-width:2px"/><path d="M9.3,3c.044.009.084.021.127.031.426,2.846,2.169,10.941,8.531,15.833" style="fill:none;stroke:#4c241d;stroke-linecap:round;stroke-linejoin:round;stroke-width:2px"/><line x1="30" y1="60" x2="30" y2="54" style="fill:none;stroke:#4c241d;stroke-linecap:round;stroke-linejoin:round;stroke-width:2px"/><path d="M33,51v1a2,2,0,0,1-2,2H29a2,2,0,0,1-2-2V51" style="fill:none;stroke:#4c241d;stroke-linecap:round;stroke-linejoin:round;stroke-width:2px"/><path d="M17.393,30h9.218A1.389,1.389,0,0,1,28,31.389v6.218A4.393,4.393,0,0,1,23.607,42H14.389A1.389,1.389,0,0,1,13,40.611V34.393A4.393,4.393,0,0,1,17.393,30Z" style="fill:#e66353;stroke:#4c241d;stroke-linecap:round;stroke-linejoin:round;stroke-width:2px"/><line x1="14" y1="33" x2="28" y2="33" style="fill:none;stroke:#4c241d;stroke-linecap:round;stroke-linejoin:round;stroke-width:2px"/><line x1="28" y1="36" x2="14" y2="36" style="fill:none;stroke:#4c241d;stroke-linecap:round;stroke-linejoin:round;stroke-width:2px"/><line x1="26.923" y1="39" x2="14" y2="39" style="fill:none;stroke:#4c241d;stroke-linecap:round;stroke-linejoin:round;stroke-width:2px"/><path d="M33.389,30h9.218A4.393,4.393,0,0,1,47,34.393v6.218A1.389,1.389,0,0,1,45.611,42H36.393A4.393,4.393,0,0,1,32,37.607V31.389A1.389,1.389,0,0,1,33.389,30Z" transform="translate(79 72) rotate(180)" style="fill:#e66353;stroke:#4c241d;stroke-linecap:round;stroke-linejoin:round;stroke-width:2px"/><line x1="46" y1="33" x2="32" y2="33" style="fill:none;stroke:#4c241d;stroke-linecap:round;stroke-linejoin:round;stroke-width:2px"/><line x1="32" y1="36" x2="46" y2="36" style="fill:none;stroke:#4c241d;stroke-linecap:round;stroke-linejoin:round;stroke-width:2px"/><line x1="33.077" y1="39" x2="46" y2="39" style="fill:none;stroke:#4c241d;stroke-linecap:round;stroke-linejoin:round;stroke-width:2px"/><line x1="26" y1="30" x2="33" y2="30" style="fill:none;stroke:#4c241d;stroke-linecap:round;stroke-linejoin:round;stroke-width:2px"/></g></svg>