<svg width="64px" height="64px" viewBox="0 0 64 64" xmlns="http://www.w3.org/2000/svg"><title>parrot</title><g id="parrot"><circle cx="40.5" cy="29.5" r="22.5" style="fill:#ffded5"/><line x1="9" y1="25" x2="9" y2="27" style="fill:none;stroke:#4c241d;stroke-linecap:round;stroke-linejoin:round;stroke-width:2px"/><line x1="9" y1="31" x2="9" y2="33" style="fill:none;stroke:#4c241d;stroke-linecap:round;stroke-linejoin:round;stroke-width:2px"/><line x1="5" y1="29" x2="7" y2="29" style="fill:none;stroke:#4c241d;stroke-linecap:round;stroke-linejoin:round;stroke-width:2px"/><line x1="11" y1="29" x2="13" y2="29" style="fill:none;stroke:#4c241d;stroke-linecap:round;stroke-linejoin:round;stroke-width:2px"/><circle cx="15.74" cy="34.987" r="1.069" style="fill:#4c241d"/><circle cx="54.74" cy="21.987" r="1.069" style="fill:#4c241d"/><circle cx="57.5" cy="14.5" r="2.5" style="fill:none;stroke:#4c241d;stroke-linecap:round;stroke-linejoin:round;stroke-width:2px"/><path d="M18,11h8a0,0,0,0,1,0,0v6a0,0,0,0,1,0,0H12a0,0,0,0,1,0,0v0A6,6,0,0,1,18,11Z" style="fill:#fff;stroke:#4c241d;stroke-linecap:round;stroke-linejoin:round;stroke-width:2px"/><rect x="1" y="47" width="62" height="4" style="fill:#bf7e68"/><path d="M46,11h0a0,0,0,0,1,0,0v6a0,0,0,0,1,0,0H42a0,0,0,0,1,0,0V15A4,4,0,0,1,46,11Z" transform="translate(39.5 -31.954) rotate(66.757)" style="fill:#bd53b5;stroke:#4c241d;stroke-linecap:round;stroke-linejoin:round;stroke-width:2px"/><path d="M17,17h9a0,0,0,0,1,0,0v4a0,0,0,0,1,0,0H21a4,4,0,0,1-4-4v0A0,0,0,0,1,17,17Z" style="fill:#fff;stroke:#4c241d;stroke-linecap:round;stroke-linejoin:round;stroke-width:2px"/><line x1="63" y1="51" x2="1" y2="51" style="fill:none;stroke:#4c241d;stroke-linecap:round;stroke-linejoin:round;stroke-width:2px"/><line x1="1" y1="47" x2="63" y2="47" style="fill:none;stroke:#4c241d;stroke-linecap:round;stroke-linejoin:round;stroke-width:2px"/><path d="M40.17,3.139h.459a0,0,0,0,1,0,0V20.674a0,0,0,0,1,0,0H36.17a0,0,0,0,1,0,0V7.139A4,4,0,0,1,40.17,3.139Z" transform="translate(18.366 -22.949) rotate(42.884)" style="fill:#fc8c29;stroke:#4c241d;stroke-linecap:round;stroke-linejoin:round;stroke-width:2px"/><path d="M26,11H36.1A7.9,7.9,0,0,1,44,18.9V47a0,0,0,0,1,0,0H36.882A10.882,10.882,0,0,1,26,36.118V11A0,0,0,0,1,26,11Z" style="fill:#a9ba5a;stroke:#4c241d;stroke-linecap:round;stroke-linejoin:round;stroke-width:2px"/><path d="M27.963,29H38a0,0,0,0,1,0,0V47a0,0,0,0,1,0,0H35A11,11,0,0,1,24,36V32.963A3.963,3.963,0,0,1,27.963,29Z" style="fill:#9dc1e4;stroke:#4c241d;stroke-linecap:round;stroke-linejoin:round;stroke-width:2px"/><path d="M26,19.463A5.993,5.993,0,0,0,34.463,11H26Z" style="fill:#e66353;stroke:#4c241d;stroke-linecap:round;stroke-linejoin:round;stroke-width:2px"/><path d="M34,23h2A11,11,0,0,1,47,34V48a0,0,0,0,1,0,0H45A11,11,0,0,1,34,37V23A0,0,0,0,1,34,23Z" style="fill:#fc8c29;stroke:#4c241d;stroke-linecap:round;stroke-linejoin:round;stroke-width:2px"/><path d="M34,27.615h2a11,11,0,0,1,11,11V44a0,0,0,0,1,0,0H45A11,11,0,0,1,34,33V27.615A0,0,0,0,1,34,27.615Z" style="fill:#ffce56;stroke:#4c241d;stroke-linecap:round;stroke-linejoin:round;stroke-width:2px"/><circle cx="30.74" cy="14.987" r="1.069" style="fill:#4c241d"/><path d="M34,31s2,9,13,9" style="fill:#ffce56;stroke:#4c241d;stroke-linecap:round;stroke-linejoin:round;stroke-width:2px"/><path d="M32,1h0a0,0,0,0,1,0,0V11a0,0,0,0,1,0,0H28a0,0,0,0,1,0,0V5A4,4,0,0,1,32,1Z" style="fill:#fc8c29;stroke:#4c241d;stroke-linecap:round;stroke-linejoin:round;stroke-width:2px"/><path d="M36,5h0a0,0,0,0,1,0,0v6a0,0,0,0,1,0,0H32a0,0,0,0,1,0,0V9A4,4,0,0,1,36,5Z" style="fill:#bd53b5;stroke:#4c241d;stroke-linecap:round;stroke-linejoin:round;stroke-width:2px"/><path d="M39,51h8a0,0,0,0,1,0,0V63a0,0,0,0,1,0,0h0a8,8,0,0,1-8-8V51A0,0,0,0,1,39,51Z" style="fill:#9dc1e4;stroke:#4c241d;stroke-linecap:round;stroke-linejoin:round;stroke-width:2px"/></g></svg>