<svg width="64px" height="64px" viewBox="0 0 64 64" xmlns="http://www.w3.org/2000/svg"><title>uluru</title><g id="uluru"><circle cx="24.5" cy="25.5" r="22.5" style="fill:#ffded5"/><line x1="54" y1="4" x2="54" y2="6" style="fill:none;stroke:#4c241d;stroke-linecap:round;stroke-linejoin:round;stroke-width:2px"/><line x1="54" y1="10" x2="54" y2="12" style="fill:none;stroke:#4c241d;stroke-linecap:round;stroke-linejoin:round;stroke-width:2px"/><line x1="50" y1="8" x2="52" y2="8" style="fill:none;stroke:#4c241d;stroke-linecap:round;stroke-linejoin:round;stroke-width:2px"/><line x1="56" y1="8" x2="58" y2="8" style="fill:none;stroke:#4c241d;stroke-linecap:round;stroke-linejoin:round;stroke-width:2px"/><circle cx="23.5" cy="20.5" r="9.5" style="fill:#fc8c29;stroke:#4c241d;stroke-linecap:round;stroke-linejoin:round;stroke-width:2px"/><path d="M57,44H5l5-13.826A4.174,4.174,0,0,1,14.174,26H47.938A8.061,8.061,0,0,1,56,34.062Z" style="fill:#bf7e68;stroke:#4c241d;stroke-linecap:round;stroke-linejoin:round;stroke-width:2px"/><rect x="2" y="44" width="60" height="12" style="fill:#ffec95"/><polyline points="17 36 21 30 25 28 26 24 41 24 45 28 45 29" style="fill:#bf7e68;stroke:#4c241d;stroke-linecap:round;stroke-linejoin:round;stroke-width:2px"/><polyline points="30 33 26 35 25 37 22 38 22 44" style="fill:#bf7e68;stroke:#4c241d;stroke-linecap:round;stroke-linejoin:round;stroke-width:2px"/><polyline points="54.894 30 51 33 51 37" style="fill:#bf7e68;stroke:#4c241d;stroke-linecap:round;stroke-linejoin:round;stroke-width:2px"/><line x1="2" y1="44" x2="62" y2="44" style="fill:none;stroke:#4c241d;stroke-linecap:round;stroke-linejoin:round;stroke-width:2px"/><polyline points="45 32 45 37 48 40" style="fill:#bf7e68;stroke:#4c241d;stroke-linecap:round;stroke-linejoin:round;stroke-width:2px"/><path d="M12,59a4,4,0,0,0-8,0" style="fill:#a9ba5a;stroke:#4c241d;stroke-linecap:round;stroke-linejoin:round;stroke-width:2px"/><path d="M20,59a4,4,0,0,0-8,0" style="fill:#a9ba5a;stroke:#4c241d;stroke-linecap:round;stroke-linejoin:round;stroke-width:2px"/><path d="M28,59a4,4,0,0,0-8,0" style="fill:#a9ba5a;stroke:#4c241d;stroke-linecap:round;stroke-linejoin:round;stroke-width:2px"/><path d="M36,59a4,4,0,0,0-8,0" style="fill:#a9ba5a;stroke:#4c241d;stroke-linecap:round;stroke-linejoin:round;stroke-width:2px"/><path d="M44,59a4,4,0,0,0-8,0" style="fill:#a9ba5a;stroke:#4c241d;stroke-linecap:round;stroke-linejoin:round;stroke-width:2px"/><path d="M52,59a4,4,0,0,0-8,0" style="fill:#a9ba5a;stroke:#4c241d;stroke-linecap:round;stroke-linejoin:round;stroke-width:2px"/><path d="M60,59a4,4,0,0,0-8,0" style="fill:#a9ba5a;stroke:#4c241d;stroke-linecap:round;stroke-linejoin:round;stroke-width:2px"/><circle cx="10.251" cy="50.232" r="1.069" style="fill:#4c241d"/><circle cx="19.251" cy="49.232" r="1.069" style="fill:#4c241d"/><circle cx="27.251" cy="51.232" r="1.069" style="fill:#4c241d"/><circle cx="31.251" cy="48.232" r="1.069" style="fill:#4c241d"/><circle cx="40.251" cy="51.232" r="1.069" style="fill:#4c241d"/><circle cx="55.251" cy="48.232" r="1.069" style="fill:#4c241d"/><circle cx="45.251" cy="48.232" r="1.069" style="fill:#4c241d"/></g></svg>