<svg width="64px" height="64px" viewBox="0 0 64 64" xmlns="http://www.w3.org/2000/svg"><title>aborigen-male</title><g id="aborigen-male"><circle cx="36.5" cy="30.5" r="22.5" style="fill:#ffded5"/><circle cx="7.5" cy="9.5" r="2.5" style="fill:none;stroke:#4c241d;stroke-linecap:round;stroke-linejoin:round;stroke-width:2px"/><circle cx="59.5" cy="17.5" r="1.132" style="fill:#4c241d"/><path d="M44.556,45.207,36,41.318V37H28v4.318l-8.556,3.889A9.387,9.387,0,0,0,14,53.775V62H50V53.775A9.387,9.387,0,0,0,44.556,45.207Z" style="fill:#bf7e68;stroke:#4c241d;stroke-linecap:round;stroke-linejoin:round;stroke-width:2px"/><circle cx="15.5" cy="3.5" r="1.132" style="fill:#4c241d"/><circle cx="13.5" cy="17.5" r="1.132" style="fill:#4c241d"/><line x1="21" y1="62" x2="21" y2="57" style="fill:none;stroke:#4c241d;stroke-linecap:round;stroke-linejoin:round;stroke-width:2px"/><line x1="43" y1="62" x2="43" y2="57" style="fill:none;stroke:#4c241d;stroke-linecap:round;stroke-linejoin:round;stroke-width:2px"/><line x1="54.837" y1="4.663" x2="51.163" y2="8.337" style="fill:none;stroke:#4c241d;stroke-linecap:round;stroke-linejoin:round;stroke-width:2px"/><line x1="51.163" y1="4.663" x2="54.837" y2="8.337" style="fill:none;stroke:#4c241d;stroke-linecap:round;stroke-linejoin:round;stroke-width:2px"/><path d="M44,24a2.99,2.99,0,0,0-2-2.816V19H22v2.184a2.982,2.982,0,0,0,0,5.632V32.5A4.5,4.5,0,0,0,26.5,37h11A4.5,4.5,0,0,0,42,32.5V26.816A2.99,2.99,0,0,0,44,24Z" style="fill:#bf7e68;stroke:#4c241d;stroke-linecap:round;stroke-linejoin:round;stroke-width:2px"/><circle cx="27" cy="24" r="1" style="fill:#4c241d"/><circle cx="37" cy="24" r="1" style="fill:#4c241d"/><rect x="22" y="15" width="20" height="4" style="fill:#e66353;stroke:#4c241d;stroke-linecap:round;stroke-linejoin:round;stroke-width:2px"/><line x1="30" y1="46" x2="34" y2="46" style="fill:none;stroke:#ffce56;stroke-linecap:round;stroke-linejoin:round;stroke-width:2px"/><line x1="30" y1="49" x2="34" y2="49" style="fill:none;stroke:#ffce56;stroke-linecap:round;stroke-linejoin:round;stroke-width:2px"/><line x1="30" y1="52" x2="34" y2="52" style="fill:none;stroke:#ffce56;stroke-linecap:round;stroke-linejoin:round;stroke-width:2px"/><path d="M22,47v3a2,2,0,0,0,2,2h0a2,2,0,0,1,2,2v5" style="fill:none;stroke:#ffce56;stroke-linecap:round;stroke-linejoin:round;stroke-width:2px"/><path d="M42,47v3a2,2,0,0,1-2,2h0a2,2,0,0,0-2,2v5" style="fill:none;stroke:#ffce56;stroke-linecap:round;stroke-linejoin:round;stroke-width:2px"/><path d="M41,8H34a3,3,0,0,0-6,0H23a3,3,0,0,0-3,3v1a3,3,0,0,0,3,3H41a3,3,0,0,0,3-3V11A3,3,0,0,0,41,8Z" style="fill:#6b4f5b;stroke:#4c241d;stroke-linecap:round;stroke-linejoin:round;stroke-width:2px"/><path d="M28.829,9a3,3,0,1,0-4.95,3.122" style="fill:#6b4f5b;stroke:#4c241d;stroke-linecap:round;stroke-linejoin:round;stroke-width:2px"/><path d="M34.889,11.974a2.721,2.721,0,0,0-4.516,2.214" style="fill:none;stroke:#4c241d;stroke-linecap:round;stroke-linejoin:round;stroke-width:2px"/><path d="M41.687,9.533a2.415,2.415,0,1,0-4.64.812" style="fill:#6b4f5b;stroke:#4c241d;stroke-linecap:round;stroke-linejoin:round;stroke-width:2px"/></g></svg>