<svg width="64px" height="64px" viewBox="0 0 64 64" xmlns="http://www.w3.org/2000/svg"><title>coins</title><g id="coins"><line x1="8" y1="4" x2="8" y2="7" style="fill:none;stroke:#4c241d;stroke-linecap:round;stroke-linejoin:round;stroke-width:2px"/><line x1="8" y1="11" x2="8" y2="14" style="fill:none;stroke:#4c241d;stroke-linecap:round;stroke-linejoin:round;stroke-width:2px"/><line x1="6" y1="9" x2="3" y2="9" style="fill:none;stroke:#4c241d;stroke-linecap:round;stroke-linejoin:round;stroke-width:2px"/><line x1="13" y1="9" x2="10" y2="9" style="fill:none;stroke:#4c241d;stroke-linecap:round;stroke-linejoin:round;stroke-width:2px"/><circle cx="40.5" cy="25.5" r="21.5" style="fill:#ffe5d2"/><circle cx="47.5" cy="4.5" r="2.5" style="fill:none;stroke:#4c241d;stroke-linecap:round;stroke-linejoin:round;stroke-width:2px"/><circle cx="56.5" cy="44.5" r="1.132" style="fill:#4c241d"/><circle cx="59.5" cy="54.5" r="1.132" style="fill:#4c241d"/><circle cx="49.5" cy="55.5" r="1.132" style="fill:#4c241d"/><line x1="58.837" y1="12.663" x2="55.163" y2="16.337" style="fill:none;stroke:#4c241d;stroke-linecap:round;stroke-linejoin:round;stroke-width:2px"/><line x1="55.163" y1="12.663" x2="58.837" y2="16.337" style="fill:none;stroke:#4c241d;stroke-linecap:round;stroke-linejoin:round;stroke-width:2px"/><circle cx="32" cy="33" r="23" style="fill:#ffce56;stroke:#4c241d;stroke-linecap:round;stroke-linejoin:round;stroke-width:2px"/><path d="M19.551,20a18,18,0,1,0,24.9,0" style="fill:none;stroke:#fc8c29;stroke-linecap:round;stroke-linejoin:round;stroke-width:2px"/><line x1="35" y1="17" x2="35" y2="22" style="fill:none;stroke:#4c241d;stroke-linecap:round;stroke-linejoin:round;stroke-width:2px"/><polyline points="24 17 28 17 24 21 32 21" style="fill:none;stroke:#4c241d;stroke-linecap:round;stroke-linejoin:round;stroke-width:2px"/><polyline points="32 23 32 16 38 16 38 22" style="fill:none;stroke:#4c241d;stroke-linecap:round;stroke-linejoin:round;stroke-width:2px"/><line x1="40" y1="19" x2="32" y2="19" style="fill:none;stroke:#4c241d;stroke-linecap:round;stroke-linejoin:round;stroke-width:2px"/><line x1="26" y1="14" x2="26" y2="16" style="fill:none;stroke:#4c241d;stroke-linecap:round;stroke-linejoin:round;stroke-width:2px"/><line x1="28" y1="21" x2="28" y2="23" style="fill:none;stroke:#4c241d;stroke-linecap:round;stroke-linejoin:round;stroke-width:2px"/><path d="M26.613,26.076l4.982,1.78a1.211,1.211,0,0,0,.81,0l4.982-1.78a1.2,1.2,0,0,1,1.537,1.537L37.144,32.6a1.211,1.211,0,0,0,0,.81l1.78,4.982a1.2,1.2,0,0,1-1.537,1.537l-4.982-1.78a1.211,1.211,0,0,0-.81,0l-4.982,1.78a1.2,1.2,0,0,1-1.537-1.537l1.78-4.982a1.211,1.211,0,0,0,0-.81l-1.78-4.982A1.2,1.2,0,0,1,26.613,26.076Z" style="fill:#fff;stroke:#4c241d;stroke-linecap:round;stroke-linejoin:round;stroke-width:2px"/><circle cx="14" cy="50" r="12" style="fill:#ffce56;stroke:#4c241d;stroke-linecap:round;stroke-linejoin:round;stroke-width:2px"/><circle cx="14" cy="50" r="9" style="fill:none;stroke:#fc8c29;stroke-linecap:round;stroke-linejoin:round;stroke-width:2px"/></g></svg>