<svg width="64px" height="64px" viewBox="0 0 64 64" xmlns="http://www.w3.org/2000/svg"><title>firecracker</title><g id="firecracker"><circle cx="41.5" cy="34.5" r="21.5" style="fill:#ffe5d2"/><circle cx="48.5" cy="28.5" r="2.5" style="fill:none;stroke:#4c241d;stroke-linecap:round;stroke-linejoin:round;stroke-width:2px"/><circle cx="58.5" cy="44.5" r="1.132" style="fill:#4c241d"/><circle cx="54.5" cy="51.5" r="1.132" style="fill:#4c241d"/><circle cx="51.5" cy="44.5" r="1.132" style="fill:#4c241d"/><line x1="54.837" y1="14.663" x2="51.163" y2="18.337" style="fill:none;stroke:#4c241d;stroke-linecap:round;stroke-linejoin:round;stroke-width:2px"/><line x1="51.163" y1="14.663" x2="54.837" y2="18.337" style="fill:none;stroke:#4c241d;stroke-linecap:round;stroke-linejoin:round;stroke-width:2px"/><line x1="9.837" y1="43.663" x2="6.163" y2="47.337" style="fill:none;stroke:#4c241d;stroke-linecap:round;stroke-linejoin:round;stroke-width:2px"/><line x1="6.163" y1="43.663" x2="9.837" y2="47.337" style="fill:none;stroke:#4c241d;stroke-linecap:round;stroke-linejoin:round;stroke-width:2px"/><path d="M21,22V59c0,2.209,4.477,4,10,4s10-1.791,10-4V22Z" style="fill:#e66353;stroke:#4c241d;stroke-linecap:round;stroke-linejoin:round;stroke-width:2px"/><path d="M31,49c-5.523,0-10-1.791-10-4v6c0,2.209,4.477,4,10,4s10-1.791,10-4V45C41,47.209,36.523,49,31,49Z" style="fill:#bd53b5;stroke:#4c241d;stroke-linecap:round;stroke-linejoin:round;stroke-width:2px"/><ellipse cx="31" cy="22" rx="10" ry="4" style="fill:#ffce56;stroke:#4c241d;stroke-linecap:round;stroke-linejoin:round;stroke-width:2px"/><path d="M31,14s4,1,0,7" style="fill:none;stroke:#4c241d;stroke-linecap:round;stroke-linejoin:round;stroke-width:2px"/><line x1="31" y1="6" x2="31" y2="2" style="fill:none;stroke:#4c241d;stroke-linecap:round;stroke-linejoin:round;stroke-width:2px"/><line x1="34" y1="7" x2="37" y2="4" style="fill:none;stroke:#4c241d;stroke-linecap:round;stroke-linejoin:round;stroke-width:2px"/><line x1="35" y1="10" x2="40" y2="10" style="fill:none;stroke:#4c241d;stroke-linecap:round;stroke-linejoin:round;stroke-width:2px"/><line x1="28" y1="7" x2="25" y2="4" style="fill:none;stroke:#4c241d;stroke-linecap:round;stroke-linejoin:round;stroke-width:2px"/><line x1="27" y1="10" x2="22" y2="10" style="fill:none;stroke:#4c241d;stroke-linecap:round;stroke-linejoin:round;stroke-width:2px"/><line x1="24" y1="29" x2="24" y2="37" style="fill:none;stroke:#4c241d;stroke-linecap:round;stroke-linejoin:round;stroke-width:2px"/><line x1="12.519" y1="10.019" x2="13.734" y2="11.234" style="fill:none;stroke:#4c241d;stroke-linecap:round;stroke-linejoin:round;stroke-width:2px"/><line x1="8.266" y1="5.766" x2="9.481" y2="6.981" style="fill:none;stroke:#4c241d;stroke-linecap:round;stroke-linejoin:round;stroke-width:2px"/><line x1="12.519" y1="6.981" x2="13.734" y2="5.766" style="fill:none;stroke:#4c241d;stroke-linecap:round;stroke-linejoin:round;stroke-width:2px"/><line x1="8.266" y1="11.234" x2="9.481" y2="10.019" style="fill:none;stroke:#4c241d;stroke-linecap:round;stroke-linejoin:round;stroke-width:2px"/></g></svg>