<svg width="64px" height="64px" viewBox="0 0 64 64" xmlns="http://www.w3.org/2000/svg"><title>fireworks</title><g id="fireworks"><circle cx="32.5" cy="32.5" r="21.5" style="fill:#ffe5d2"/><path d="M35,4a3,3,0,0,0-6,0c0,1.657,3,18,3,18S35,5.657,35,4Z" style="fill:#77a052;stroke:#4c241d;stroke-linecap:round;stroke-linejoin:round;stroke-width:2px"/><line x1="32" y1="25" x2="32" y2="27" style="fill:none;stroke:#4c241d;stroke-linecap:round;stroke-linejoin:round;stroke-width:2px"/><path d="M35,60a3,3,0,0,1-6,0c0-1.657,3-18,3-18S35,58.343,35,60Z" style="fill:#bf7e68;stroke:#4c241d;stroke-linecap:round;stroke-linejoin:round;stroke-width:2px"/><path d="M4,29a3,3,0,0,0,0,6c1.657,0,18-3,18-3S5.657,29,4,29Z" style="fill:#fc8c29;stroke:#4c241d;stroke-linecap:round;stroke-linejoin:round;stroke-width:2px"/><path d="M60,29a3,3,0,0,1,0,6c-1.657,0-18-3-18-3S58.343,29,60,29Z" style="fill:#e66353;stroke:#4c241d;stroke-linecap:round;stroke-linejoin:round;stroke-width:2px"/><path d="M17.508,13.266A2.848,2.848,0,0,0,13.5,13.5a2.848,2.848,0,0,0-.234,4.008c1.042,1.043,13.444,9.2,13.444,9.2S18.551,14.308,17.508,13.266Z" style="fill:#bd53b5;stroke:#4c241d;stroke-linecap:round;stroke-linejoin:round;stroke-width:2px"/><path d="M50.734,46.492a3.02,3.02,0,0,1-4.242,4.242c-1.043-1.042-9.2-13.444-9.2-13.444S49.692,45.449,50.734,46.492Z" style="fill:#f4aeab;stroke:#4c241d;stroke-linecap:round;stroke-linejoin:round;stroke-width:2px"/><path d="M13.266,46.492A2.848,2.848,0,0,0,13.5,50.5a2.848,2.848,0,0,0,4.008.234c1.043-1.042,9.2-13.444,9.2-13.444S14.308,45.449,13.266,46.492Z" style="fill:#9dc1e4;stroke:#4c241d;stroke-linecap:round;stroke-linejoin:round;stroke-width:2px"/><path d="M46.492,13.266A2.848,2.848,0,0,1,50.5,13.5a2.848,2.848,0,0,1,.234,4.008c-1.042,1.043-13.444,9.2-13.444,9.2S45.449,14.308,46.492,13.266Z" style="fill:#ffce56;stroke:#4c241d;stroke-linecap:round;stroke-linejoin:round;stroke-width:2px"/><line x1="32" y1="39" x2="32" y2="37" style="fill:none;stroke:#4c241d;stroke-linecap:round;stroke-linejoin:round;stroke-width:2px"/><line x1="25" y1="32" x2="27" y2="32" style="fill:none;stroke:#4c241d;stroke-linecap:round;stroke-linejoin:round;stroke-width:2px"/><line x1="39" y1="32" x2="37" y2="32" style="fill:none;stroke:#4c241d;stroke-linecap:round;stroke-linejoin:round;stroke-width:2px"/><circle cx="32" cy="32" r="2" style="fill:none;stroke:#4c241d;stroke-linecap:round;stroke-linejoin:round;stroke-width:2px"/><circle cx="56" cy="8" r="1" style="fill:#4c241d"/><circle cx="8" cy="56" r="1" style="fill:#4c241d"/><circle cx="8" cy="8" r="1" style="fill:#4c241d"/><circle cx="56" cy="56" r="1" style="fill:#4c241d"/></g></svg>