<svg width="64px" height="64px" viewBox="0 0 64 64" xmlns="http://www.w3.org/2000/svg"><title>light</title><g id="light"><circle cx="12" cy="5" r="1.025" style="fill:#4c241d"/><path d="M32,52h0a5,5,0,0,1,5,5v6a0,0,0,0,1,0,0H27a0,0,0,0,1,0,0V57A5,5,0,0,1,32,52Z" style="fill:#ffce56;stroke:#4c241d;stroke-linecap:round;stroke-linejoin:round;stroke-width:2px"/><circle cx="40.5" cy="25.5" r="21.5" style="fill:#ffe5d2"/><line x1="30" y1="57" x2="30" y2="62" style="fill:none;stroke:#4c241d;stroke-linecap:round;stroke-linejoin:round;stroke-width:2px"/><path d="M30.452,1h3.1A2.452,2.452,0,0,1,36,3.452V9a0,0,0,0,1,0,0H28a0,0,0,0,1,0,0V3.452A2.452,2.452,0,0,1,30.452,1Z" style="fill:#ffce56;stroke:#4c241d;stroke-linecap:round;stroke-linejoin:round;stroke-width:2px"/><line x1="34" y1="60" x2="34" y2="63" style="fill:none;stroke:#4c241d;stroke-linecap:round;stroke-linejoin:round;stroke-width:2px"/><circle cx="32" cy="50" r="2" style="fill:#b5a19c;stroke:#4c241d;stroke-linecap:round;stroke-linejoin:round;stroke-width:2px"/><line x1="55" y1="25" x2="58" y2="25" style="fill:none;stroke:#4c241d;stroke-linecap:round;stroke-linejoin:round;stroke-width:2px"/><line x1="55" y1="22" x2="56" y2="21" style="fill:none;stroke:#4c241d;stroke-linecap:round;stroke-linejoin:round;stroke-width:2px"/><line x1="55" y1="28" x2="56" y2="29" style="fill:none;stroke:#4c241d;stroke-linecap:round;stroke-linejoin:round;stroke-width:2px"/><rect x="15" y="5" width="34" height="40" rx="8.276" ry="8.276" style="fill:#fff;stroke:#4c241d;stroke-linecap:round;stroke-linejoin:round;stroke-width:2px"/><line x1="9" y1="25" x2="6" y2="25" style="fill:none;stroke:#4c241d;stroke-linecap:round;stroke-linejoin:round;stroke-width:2px"/><line x1="9" y1="22" x2="8" y2="21" style="fill:none;stroke:#4c241d;stroke-linecap:round;stroke-linejoin:round;stroke-width:2px"/><line x1="9" y1="28" x2="8" y2="29" style="fill:none;stroke:#4c241d;stroke-linecap:round;stroke-linejoin:round;stroke-width:2px"/><path d="M32,5.1c-5.615,1-10,9.529-10,19.9s4.385,18.9,10,19.9Z" style="fill:#bd53b5;stroke:#4c241d;stroke-linecap:round;stroke-linejoin:round;stroke-width:2px"/><path d="M32,5.1c5.615,1,10,9.529,10,19.9S37.615,43.9,32,44.9Z" style="fill:#e86436;stroke:#4c241d;stroke-linecap:round;stroke-linejoin:round;stroke-width:2px"/><line x1="32" y1="48" x2="32" y2="46" style="fill:none;stroke:#4c241d;stroke-linecap:round;stroke-linejoin:round;stroke-width:2px"/><circle cx="51.5" cy="47.5" r="2.5" style="fill:none;stroke:#4c241d;stroke-linecap:round;stroke-linejoin:round;stroke-width:2px"/><circle cx="6.5" cy="9.5" r="2.5" style="fill:none;stroke:#4c241d;stroke-linecap:round;stroke-linejoin:round;stroke-width:2px"/></g></svg>