<svg width="64px" height="64px" viewBox="0 0 64 64" xmlns="http://www.w3.org/2000/svg"><title>old-man</title><g id="old-man"><circle cx="39.5" cy="28.5" r="21.5" style="fill:#ffe5d2"/><circle cx="8.5" cy="8.5" r="2.5" style="fill:none;stroke:#4c241d;stroke-linecap:round;stroke-linejoin:round;stroke-width:2px"/><circle cx="56.5" cy="39.5" r="1.132" style="fill:#4c241d"/><circle cx="16.5" cy="2.5" r="1.132" style="fill:#4c241d"/><circle cx="14.5" cy="16.5" r="1.132" style="fill:#4c241d"/><path d="M53,62H13V52.409a9.784,9.784,0,0,1,6.049-8.948L33,37.5l13.951,5.961A9.784,9.784,0,0,1,53,52.409Z" style="fill:#bd53b5;stroke:#4c241d;stroke-linecap:round;stroke-linejoin:round;stroke-width:2px"/><line x1="22" y1="58" x2="22" y2="53" style="fill:none;stroke:#4c241d;stroke-linecap:round;stroke-linejoin:round;stroke-width:2px"/><polygon points="38 46 33 50 28 46 28 34 38 34 38 46" style="fill:#bd53b5;stroke:#4c241d;stroke-linecap:round;stroke-linejoin:round;stroke-width:2px"/><line x1="44" y1="58" x2="44" y2="53" style="fill:none;stroke:#4c241d;stroke-linecap:round;stroke-linejoin:round;stroke-width:2px"/><line x1="51.837" y1="2.663" x2="48.163" y2="6.337" style="fill:none;stroke:#4c241d;stroke-linecap:round;stroke-linejoin:round;stroke-width:2px"/><path d="M46.539,20.891V18.318C46.539,11.515,41.617,6,35.546,6H30.954c-6.071,0-10.993,5.515-10.993,12.318v2.573A2.634,2.634,0,0,0,17.5,23.749a2.9,2.9,0,0,0,1.165,2.173,2,2,0,0,0,2.075.329,14.856,14.856,0,0,0,9.21,11.524,13.062,13.062,0,0,0,6.187-.05l.437-.158a14.839,14.839,0,0,0,9.148-11.328,2.042,2.042,0,0,0,2.06-.262A2.833,2.833,0,0,0,48.981,24,2.665,2.665,0,0,0,46.539,20.891Z" style="fill:#edebdc;stroke:#4c241d;stroke-linecap:round;stroke-linejoin:round;stroke-width:2px"/><line x1="48.163" y1="2.663" x2="51.837" y2="6.337" style="fill:none;stroke:#4c241d;stroke-linecap:round;stroke-linejoin:round;stroke-width:2px"/><line x1="30" y1="53" x2="36" y2="53" style="fill:none;stroke:#ffce56;stroke-linecap:round;stroke-linejoin:round;stroke-width:2px"/><rect x="22" y="57" width="22" height="5" style="fill:#ffce56;stroke:#4c241d;stroke-linecap:round;stroke-linejoin:round;stroke-width:2px"/><path d="M39,34.769a6,6,0,0,0-12,0C27,37.955,33,44,33,44S39,37.955,39,34.769Z" style="fill:#fff;stroke:#4c241d;stroke-linecap:round;stroke-linejoin:round;stroke-width:2px"/><line x1="38" y1="23" x2="28" y2="23" style="fill:none;stroke:#4c241d;stroke-linecap:round;stroke-linejoin:round;stroke-width:2px"/><circle cx="37.5" cy="24.5" r="3.5" style="fill:#9dc1e4"/><circle cx="28.5" cy="24.5" r="3.5" style="fill:#9dc1e4"/><line x1="29" y1="14" x2="37" y2="14" style="fill:none;stroke:#b5a19c;stroke-linecap:round;stroke-linejoin:round;stroke-width:2px"/><line x1="29" y1="17" x2="37" y2="17" style="fill:none;stroke:#b5a19c;stroke-linecap:round;stroke-linejoin:round;stroke-width:2px"/><path d="M30,35a3,3,0,0,0,3-3" style="fill:none;stroke:#4c241d;stroke-linecap:round;stroke-linejoin:round;stroke-width:2px"/><path d="M33,32a3,3,0,0,0,3,3" style="fill:none;stroke:#4c241d;stroke-linecap:round;stroke-linejoin:round;stroke-width:2px"/></g></svg>