<svg width="64px" height="64px" viewBox="0 0 64 64" id="scroll" xmlns="http://www.w3.org/2000/svg"><title>scroll</title><circle cx="25.5" cy="26.5" r="21.5" style="fill:#ffe5d2"/><path d="M57,54h2.566a1.5,1.5,0,0,1,1.5,1.5v0a1.5,1.5,0,0,1-1.5,1.5H57a0,0,0,0,1,0,0V54A0,0,0,0,1,57,54Z" style="fill:#bf7e68;stroke:#4c241d;stroke-linecap:round;stroke-linejoin:round;stroke-width:2px"/><path d="M14.5,54h2.566a0,0,0,0,1,0,0v3a0,0,0,0,1,0,0H14.5A1.5,1.5,0,0,1,13,55.5v0A1.5,1.5,0,0,1,14.5,54Z" style="fill:#bf7e68;stroke:#4c241d;stroke-linecap:round;stroke-linejoin:round;stroke-width:2px"/><path d="M14.5,6H17a0,0,0,0,1,0,0V9a0,0,0,0,1,0,0H14.5A1.5,1.5,0,0,1,13,7.5v0A1.5,1.5,0,0,1,14.5,6Z" style="fill:#bf7e68;stroke:#4c241d;stroke-linecap:round;stroke-linejoin:round;stroke-width:2px"/><path d="M57,6h2.5A1.5,1.5,0,0,1,61,7.5v0A1.5,1.5,0,0,1,59.5,9H57a0,0,0,0,1,0,0V6A0,0,0,0,1,57,6Z" style="fill:#bf7e68;stroke:#4c241d;stroke-linecap:round;stroke-linejoin:round;stroke-width:2px"/><rect x="17" y="4" width="40" height="8" rx="1.874" ry="1.874" style="fill:#fc8c29;stroke:#4c241d;stroke-linecap:round;stroke-linejoin:round;stroke-width:2px"/><polyline points="55 21.5 55 51 19 51 19 12 55 12 55 16.5" style="fill:#ffce56;stroke:#4c241d;stroke-linecap:round;stroke-linejoin:round;stroke-width:2px"/><rect x="17" y="51" width="40" height="9" rx="1.874" ry="1.874" style="fill:#fc8c29;stroke:#4c241d;stroke-linecap:round;stroke-linejoin:round;stroke-width:2px"/><rect x="37" y="32.939" width="11" height="8.061" style="fill:none;stroke:#4c241d;stroke-linecap:round;stroke-linejoin:round;stroke-width:2px"/><line x1="37.309" y1="36.929" x2="48" y2="37" style="fill:#fc8c29;stroke:#4c241d;stroke-linecap:round;stroke-linejoin:round;stroke-width:2px"/><rect x="38" y="25" width="9" height="5" style="fill:none;stroke:#4c241d;stroke-linecap:round;stroke-linejoin:round;stroke-width:2px"/><line x1="38.414" y1="21.084" x2="46.701" y2="21.084" style="fill:#fc8c29;stroke:#4c241d;stroke-linecap:round;stroke-linejoin:round;stroke-width:2px"/><polyline points="25.155 25 33.994 25 24.05 34.597" style="fill:none;stroke:#4c241d;stroke-linecap:round;stroke-linejoin:round;stroke-width:2px"/><polyline points="33.994 34.597 29 30 29.022 41.779" style="fill:none;stroke:#4c241d;stroke-linecap:round;stroke-linejoin:round;stroke-width:2px"/><line x1="30.679" y1="22.442" x2="27.917" y2="19.679" style="fill:#fc8c29;stroke:#4c241d;stroke-linecap:round;stroke-linejoin:round;stroke-width:2px"/><circle cx="11" cy="44" r="1" style="fill:#4c241d"/><circle cx="59" cy="26" r="1" style="fill:#4c241d"/><line x1="9.919" y1="16.586" x2="6.223" y2="20.281" style="fill:none;stroke:#4c241d;stroke-linecap:round;stroke-linejoin:round;stroke-width:2px"/><line x1="6.223" y1="16.586" x2="9.919" y2="20.281" style="fill:none;stroke:#4c241d;stroke-linecap:round;stroke-linejoin:round;stroke-width:2px"/></svg>