<svg width="64px" height="64px" viewBox="0 0 64 64" xmlns="http://www.w3.org/2000/svg"><title>ship</title><g id="ship"><circle cx="37.5" cy="25.5" r="21.5" style="fill:#ffe5d2"/><circle cx="50.5" cy="13.5" r="2.5" style="fill:#f53e28"/><circle cx="28" cy="4" r="1" style="fill:#4c241d"/><circle cx="58" cy="6" r="1" style="fill:#4c241d"/><circle cx="9" cy="4" r="1" style="fill:#4c241d"/><circle cx="17" cy="11" r="1" style="fill:#4c241d"/><line x1="38.37" y1="9.335" x2="32" y2="43" style="fill:#6b4f5b;stroke:#4c241d;stroke-linecap:round;stroke-linejoin:round;stroke-width:2px"/><line x1="58" y1="19" x2="54" y2="40" style="fill:#6b4f5b;stroke:#4c241d;stroke-linecap:round;stroke-linejoin:round;stroke-width:2px"/><line x1="12" y1="19" x2="7" y2="35" style="fill:#6b4f5b;stroke:#4c241d;stroke-linecap:round;stroke-linejoin:round;stroke-width:2px"/><path d="M38.872,15.619l3.142,3.25L44.89,34.5,18.712,33.157a10.124,10.124,0,0,0,0-5.753s2.4-3.74,2.781-6.329c0,0,3.548-4.027,4.028-5.658,0,0,7.287-3.548,8.246-5.082l5.1,5.284" style="fill:#fc8c29;stroke:#4c241d;stroke-linecap:round;stroke-linejoin:round;stroke-width:2px"/><path d="M48.137,33.5s-.192-3.548-.384-4.411L49,24.294l3.932-3.74,4.7,4.891,4.028,8.438Z" style="fill:#e66353;stroke:#4c241d;stroke-linecap:round;stroke-linejoin:round;stroke-width:2px"/><polygon points="13.507 30.445 12.356 24.404 8.041 18.554 4.205 21.719 3.055 25.171 2 29.102 13.507 30.445" style="fill:#e66353;stroke:#4c241d;stroke-linecap:round;stroke-linejoin:round;stroke-width:2px"/><line x1="18.712" y1="27.5" x2="44.087" y2="30.133" style="fill:#6b4f5b;stroke:#4c241d;stroke-linecap:round;stroke-linejoin:round;stroke-width:2px"/><line x1="25.521" y1="15.417" x2="42.667" y2="22.417" style="fill:#6b4f5b;stroke:#4c241d;stroke-linecap:round;stroke-linejoin:round;stroke-width:2px"/><line x1="21.493" y1="21.075" x2="43.409" y2="26.451" style="fill:#6b4f5b;stroke:#4c241d;stroke-linecap:round;stroke-linejoin:round;stroke-width:2px"/><line x1="49" y1="24.294" x2="59.176" y2="28.683" style="fill:#6b4f5b;stroke:#4c241d;stroke-linecap:round;stroke-linejoin:round;stroke-width:2px"/><line x1="47.753" y1="29.089" x2="60.224" y2="30.88" style="fill:#6b4f5b;stroke:#4c241d;stroke-linecap:round;stroke-linejoin:round;stroke-width:2px"/><line x1="4.205" y1="21.719" x2="12.79" y2="26.683" style="fill:#6b4f5b;stroke:#4c241d;stroke-linecap:round;stroke-linejoin:round;stroke-width:2px"/><line x1="3.055" y1="25.171" x2="13.123" y2="28.431" style="fill:#6b4f5b;stroke:#4c241d;stroke-linecap:round;stroke-linejoin:round;stroke-width:2px"/><path d="M56.4,52,63,37,42,43s-11,0-16.643-.365C21.983,42.417,22,38,22,38L1,33.883v3.9L15.091,52Z" style="fill:#bf7e68;stroke:#4c241d;stroke-linecap:round;stroke-linejoin:round;stroke-width:2px"/><path d="M58,52.143A4.875,4.875,0,0,1,54.023,50H51.977a4.762,4.762,0,0,1-7.954,0H41.977a4.762,4.762,0,0,1-7.954,0H31.977a4.762,4.762,0,0,1-7.954,0H21.977a4.762,4.762,0,0,1-7.954,0H11.977A4.875,4.875,0,0,1,8,52.143,4.875,4.875,0,0,1,4.023,50H4V62H62V50h-.023A4.875,4.875,0,0,1,58,52.143Z" style="fill:#02eae6"/><path d="M63,47a5,5,0,0,1-10,0,5,5,0,0,1-10,0,5,5,0,0,1-10,0,5,5,0,0,1-10,0,5,5,0,0,1-10,0A5,5,0,0,1,3,47" style="fill:none;stroke:#4c241d;stroke-linecap:round;stroke-linejoin:round;stroke-width:2px"/></g></svg>