<svg width="64px" height="64px" viewBox="0 0 64 64" xmlns="http://www.w3.org/2000/svg"><title>symbol</title><g id="symbol"><circle cx="23.5" cy="23.5" r="21.5" style="fill:#ffe5d2"/><circle cx="33" cy="32" r="28" style="fill:#ffce56"/><path d="M11.177,22a24.01,24.01,0,0,1,43.647,0Z" style="fill:none;stroke:#4c241d;stroke-linecap:round;stroke-linejoin:round;stroke-width:2px"/><line x1="10" y1="27" x2="56" y2="27" style="fill:none;stroke:#4c241d;stroke-linecap:round;stroke-linejoin:round;stroke-width:2px"/><path d="M10,37H60.555A28,28,0,1,0,5,32a28.207,28.207,0,0,0,.459,5.077" style="fill:none;stroke:#4c241d;stroke-linecap:round;stroke-linejoin:round;stroke-width:2px"/><path d="M54,42H6.839a28.011,28.011,0,0,0,52.322,0" style="fill:none;stroke:#4c241d;stroke-linecap:round;stroke-linejoin:round;stroke-width:2px"/><line x1="33" y1="56" x2="33" y2="42" style="fill:none;stroke:#4c241d;stroke-linecap:round;stroke-linejoin:round;stroke-width:2px"/><path d="M23.261,50a11.251,11.251,0,0,1-5-4H28v9.444l-.007.033A24.011,24.011,0,0,1,13.505,46" style="fill:none;stroke:#4c241d;stroke-linecap:round;stroke-linejoin:round;stroke-width:2px"/><path d="M42.739,50a11.251,11.251,0,0,0,5-4H38v9.444l.007.033A24.011,24.011,0,0,0,52.5,46" style="fill:none;stroke:#4c241d;stroke-linecap:round;stroke-linejoin:round;stroke-width:2px"/><path d="M36,9v9H46a11.661,11.661,0,0,0-5.134-4.236" style="fill:none;stroke:#4c241d;stroke-linecap:round;stroke-linejoin:round;stroke-width:2px"/><path d="M30,9v9H20a11.661,11.661,0,0,1,5.134-4.236" style="fill:none;stroke:#4c241d;stroke-linecap:round;stroke-linejoin:round;stroke-width:2px"/><line x1="33" y1="27" x2="33" y2="22" style="fill:none;stroke:#4c241d;stroke-linecap:round;stroke-linejoin:round;stroke-width:2px"/><line x1="41" y1="27" x2="41" y2="22" style="fill:none;stroke:#4c241d;stroke-linecap:round;stroke-linejoin:round;stroke-width:2px"/><line x1="25" y1="27" x2="25" y2="22" style="fill:none;stroke:#4c241d;stroke-linecap:round;stroke-linejoin:round;stroke-width:2px"/><path d="M56,32h0Z" style="fill:none;stroke:#4c241d;stroke-linecap:round;stroke-linejoin:round;stroke-width:2px"/></g></svg>