<svg width="64px" height="64px" viewBox="0 0 64 64" xmlns="http://www.w3.org/2000/svg"><title>sticks</title><g id="sticks"><circle cx="37.5" cy="25.5" r="21.5" style="fill:#ffe5d2"/><line x1="56" y1="16" x2="56" y2="18" style="fill:none;stroke:#4c241d;stroke-linecap:round;stroke-linejoin:round;stroke-width:2px"/><line x1="56" y1="22" x2="56" y2="24" style="fill:none;stroke:#4c241d;stroke-linecap:round;stroke-linejoin:round;stroke-width:2px"/><line x1="52" y1="20" x2="54" y2="20" style="fill:none;stroke:#4c241d;stroke-linecap:round;stroke-linejoin:round;stroke-width:2px"/><line x1="58" y1="20" x2="60" y2="20" style="fill:none;stroke:#4c241d;stroke-linecap:round;stroke-linejoin:round;stroke-width:2px"/><circle cx="5.239" cy="28.082" r="1.069" style="fill:#4c241d"/><circle cx="12.239" cy="19.082" r="1.069" style="fill:#4c241d"/><path d="M10.241,36a2.126,2.126,0,0,0-2.132,2.3,24,24,0,0,0,47.782,0A2.126,2.126,0,0,0,53.759,36Z" style="fill:#fff;stroke:#4c241d;stroke-linecap:round;stroke-linejoin:round;stroke-width:2px"/><path d="M13,45s2,5,9,10" style="fill:#fff;stroke:#4c241d;stroke-linecap:round;stroke-linejoin:round;stroke-width:2px"/><line x1="20" y1="27" x2="20" y2="36" style="fill:none;stroke:#4c241d;stroke-linejoin:round;stroke-width:2px"/><rect x="17" y="9" width="6" height="18" rx="3" ry="3" style="fill:#e66353;stroke:#4c241d;stroke-linecap:round;stroke-linejoin:round;stroke-width:2px"/><line x1="32" y1="27" x2="32" y2="36" style="fill:none;stroke:#4c241d;stroke-linejoin:round;stroke-width:2px"/><rect x="29" y="9" width="6" height="18" rx="3" ry="3" style="fill:#e66353;stroke:#4c241d;stroke-linecap:round;stroke-linejoin:round;stroke-width:2px"/><line x1="44" y1="27" x2="44" y2="36" style="fill:none;stroke:#4c241d;stroke-linejoin:round;stroke-width:2px"/><rect x="41" y="9" width="6" height="18" rx="3" ry="3" style="fill:#e66353;stroke:#4c241d;stroke-linecap:round;stroke-linejoin:round;stroke-width:2px"/><line x1="32" y1="5" x2="32" y2="2" style="fill:none;stroke:#4c241d;stroke-linecap:round;stroke-linejoin:round;stroke-width:2px"/><line x1="29" y1="5" x2="28" y2="4" style="fill:none;stroke:#4c241d;stroke-linecap:round;stroke-linejoin:round;stroke-width:2px"/><line x1="17" y1="14" x2="23" y2="14" style="fill:none;stroke:#4c241d;stroke-linejoin:round;stroke-width:2px"/><line x1="29" y1="14" x2="35" y2="14" style="fill:none;stroke:#4c241d;stroke-linejoin:round;stroke-width:2px"/><line x1="41" y1="14" x2="47" y2="14" style="fill:none;stroke:#4c241d;stroke-linejoin:round;stroke-width:2px"/><line x1="35" y1="5" x2="36" y2="4" style="fill:none;stroke:#4c241d;stroke-linecap:round;stroke-linejoin:round;stroke-width:2px"/><line x1="11" y1="60" x2="53" y2="60" style="fill:none;stroke:#4c241d;stroke-linecap:round;stroke-linejoin:round;stroke-width:2px"/></g></svg>