<svg width="64px" height="64px" viewBox="0 0 64 64" xmlns="http://www.w3.org/2000/svg"><title>temple</title><g id="temple"><circle cx="24.5" cy="26.5" r="21.5" style="fill:#ffe5d2"/><circle cx="56" cy="12" r="1" style="fill:#4c241d"/><circle cx="7" cy="29" r="1" style="fill:#4c241d"/><path d="M6,62H6a4,4,0,0,1,4-4H57a4,4,0,0,1,4,4h0" style="fill:#b5a19c;stroke:#4c241d;stroke-linecap:round;stroke-linejoin:round;stroke-width:2px"/><rect x="16" y="48.083" width="35" height="9.917" style="fill:#bf7e68;stroke:#4c241d;stroke-linecap:round;stroke-linejoin:round;stroke-width:2px"/><polyline points="51 38.465 51 48 16 48 16 37.84" style="fill:#f4aeab;stroke:#4c241d;stroke-linecap:round;stroke-linejoin:round;stroke-width:2px"/><polyline points="20 38.309 20 48 28 48 28 39" style="fill:#02eae6;stroke:#4c241d;stroke-linecap:round;stroke-linejoin:round;stroke-width:2px"/><polyline points="47 38.309 47 48 39 48 39 39" style="fill:#02eae6;stroke:#4c241d;stroke-linecap:round;stroke-linejoin:round;stroke-width:2px"/><line x1="9.667" y1="48.083" x2="57.944" y2="48.083" style="fill:#e66353;stroke:#4c241d;stroke-linecap:round;stroke-linejoin:round;stroke-width:2px"/><path d="M51.222,30H16.389C15.252,33.451,11.14,35.1,6,36.136a133.447,133.447,0,0,0,55,0C55.157,34.872,51.493,32.949,51.222,30Z" style="fill:#e66353;stroke:#4c241d;stroke-linecap:round;stroke-linejoin:round;stroke-width:2px"/><rect x="17" y="27" width="34" height="3" style="fill:#6b4f5b;stroke:#4c241d;stroke-linecap:round;stroke-linejoin:round;stroke-width:2px"/><rect x="20" y="21" width="27" height="6" style="fill:#f4aeab;stroke:#4c241d;stroke-linecap:round;stroke-linejoin:round;stroke-width:2px"/><path d="M37.167,12.056H29.833s-5.5,7.87-16.5,5.621c0,0,1.869,4.281,14.337,3.125a63.077,63.077,0,0,1,11.66,0c12.468,1.156,14.337-3.125,14.337-3.125C42.667,19.926,37.167,12.056,37.167,12.056Z" style="fill:#e66353;stroke:#4c241d;stroke-linecap:round;stroke-linejoin:round;stroke-width:2px"/><rect x="29" y="9" width="9" height="3.056" style="fill:#6b4f5b;stroke:#4c241d;stroke-linecap:round;stroke-linejoin:round;stroke-width:2px"/><line x1="41" y1="48.083" x2="41" y2="58" style="fill:#e66353;stroke:#4c241d;stroke-linecap:round;stroke-linejoin:round;stroke-width:2px"/><line x1="45" y1="48.083" x2="45" y2="58" style="fill:#e66353;stroke:#4c241d;stroke-linecap:round;stroke-linejoin:round;stroke-width:2px"/><line x1="16" y1="53.042" x2="51" y2="53.042" style="fill:#e66353;stroke:#4c241d;stroke-linecap:round;stroke-linejoin:round;stroke-width:2px"/><rect x="31" y="4" width="5" height="5" style="fill:#e66353;stroke:#4c241d;stroke-linecap:round;stroke-linejoin:round;stroke-width:2px"/><line x1="14.919" y1="5.586" x2="11.223" y2="9.281" style="fill:none;stroke:#4c241d;stroke-linecap:round;stroke-linejoin:round;stroke-width:2px"/><line x1="11.223" y1="5.586" x2="14.919" y2="9.281" style="fill:none;stroke:#4c241d;stroke-linecap:round;stroke-linejoin:round;stroke-width:2px"/><rect x="30" y="21" width="7" height="6" style="fill:#02eae6;stroke:#4c241d;stroke-linecap:round;stroke-linejoin:round;stroke-width:2px"/></g></svg>