<?xml version="1.0" ?><svg width="340px" height="340px" viewBox="0 0 340 340" id="icons" xmlns="http://www.w3.org/2000/svg"><title/><path d="M97.175,280.365,79.124,267.1,93.5,256.22a3.628,3.628,0,0,0,2.027-4.523,3.5,3.5,0,0,0-4.692-1.953L71.449,262.85H41.131a521.458,521.458,0,0,0,7.729-71.194l.269-11.379h6.646a8.859,8.859,0,0,1,4.246,1.084l31.513,17.2a3.5,3.5,0,0,0,4.98-1.911,3.587,3.587,0,0,0-1.741-4.3L72.648,180.277H94.466a3.557,3.557,0,0,0,3.518-2.77,3.5,3.5,0,0,0-3.426-4.23H74.917c.352-.242.7-.486,1.065-.74l16.753-11.051a3.558,3.558,0,0,0,1.411-4.252,3.5,3.5,0,0,0-5.189-1.642L72.082,166.724c-.03.02-.061.04-.091.062-6.963,4.914-10.9,6.491-16.216,6.491h-6.54A546.657,546.657,0,0,0,38.28,64.6H52.442c3.357,0,5.923,1.172,9.22,3.193.784.48,1.548,1,2.27,1.545l21.6,16.288a3.5,3.5,0,1,0,4.215-5.59L69.276,64.6H88.3a3.556,3.556,0,0,0,3.518-2.77,3.5,3.5,0,0,0-3.426-4.23H63.874l23.693-16a3.5,3.5,0,0,0-3.918-5.8l-28.578,19.3a14.613,14.613,0,0,1-8.18,2.5H36.821C31.354,32.2,25.448,19.768,25.336,19.44a3.5,3.5,0,0,0-6.622,2.27c.238.7,24.3,58.091,23.5,154.974v.011l-.348,14.751c-1.321,36.093-7.906,88.135-22.427,125.95a3.5,3.5,0,1,0,6.535,2.509c5.8-15.1,10.353-32.4,13.835-50.055H71.044L93.161,286.1a3.5,3.5,0,0,0,5.12-1.1A3.611,3.611,0,0,0,97.175,280.365Z" style="fill:#373d4c"/><path d="M18.44,10h.17a8.44,8.44,0,0,1,8.44,8.44V326.78a3.22,3.22,0,0,1-3.22,3.22H13.22A3.22,3.22,0,0,1,10,326.78V18.44A8.44,8.44,0,0,1,18.44,10Z" style="fill:#ff9483"/><path d="M82.992,33.173V81.321a10.1,10.1,0,0,0,6.682,9.446c17.006,6.276,66.156,20.025,143.726,6.171,0,0,49.308-8.935,93.643-2.031,0,0,7.872-14.621-2.072-34.522,0,0,8.287-18.277.829-36.147,0,0-22.375,13.809-87.842,4.873,0,0-53.5-15.248-102.766-1.97a134.446,134.446,0,0,1-18.68,3.632A294.379,294.379,0,0,1,82.992,33.173Z" style="fill:#e9ebfc"/><path d="M262.78,74.134c13.508,2.955,24.48,5.024,33.976,6.015,0,0,17.185-.256,27.275-3.372-.356-5.02-.367-9.046-3.587-15.489a38.937,38.937,0,0,0,1.305-32.773l-25.391,2.818c-13.67,1.289-32.72,1.283-58.4-2.222,0,0-53.5-15.248-102.766-1.97a134.446,134.446,0,0,1-18.68,3.632c-3.708.453-8.037.931-12.624,1.34V60.9a16.3,16.3,0,0,0,9.032,14.644c7.468,3.683,21.014,6.1,45.478,1.718,0,0,22.326,17.621,42.333,5.4A19.03,19.03,0,0,0,191.3,71.576S227.7,66.461,262.78,74.134Z" style="fill:#f96990"/><path d="M327.085,65.228,296.756,80.145s-.959,8.166-10.23,12.165a249.04,249.04,0,0,1,40.517,2.6S333.651,82.611,327.085,65.228Z" style="fill:#acb9d4"/><path d="M329.892,77.732a45.878,45.878,0,0,0-4.921-17.347s8.287-18.277.829-36.147c0,0-8.266,5.1-29.442,7.095.7,5.19,1.1,14.993-4.364,21.381,0,0,7.825,11.019,4.762,27.431C309.636,81.487,319.8,80.848,329.892,77.732Z" style="fill:#c12140"/><ellipse cx="131.163" cy="47.255" rx="6.633" ry="6.502" style="fill:#c12140"/><path d="M188.078,41.955a4.8,4.8,0,0,0-.778,3.252c.227,1.146,1.175,1.845,1.963,2.708,2.109,2.309,6.27,7.589,2.04,23.661,0,0,3.712-.245,8.532-.668,2.874-7.85,4.332-15.6-1.343-24.473a4.153,4.153,0,0,1-.537-3.369c1.776-6.237,1.162-16.663-.925-20.669-2.725-.21-5.538-.379-8.422-.5C190.075,26.886,191.423,35.924,188.078,41.955Z" style="fill:#c12140"/><path d="M222.6,69.913a29.954,29.954,0,0,0,.2-19.623,6.957,6.957,0,0,1,.524-5.482c3.29-6.113,2.834-13,1.111-18.753-2.726-.52-5.8-1.058-9.175-1.57,2.166,4.6,4.944,13.333-1.2,19.486a4,4,0,0,0-.535,4.991,22.273,22.273,0,0,1,.321,21.063C216.56,69.938,219.488,69.892,222.6,69.913Z" style="fill:#c12140"/><path d="M165.366,81.607c2.581-3.993,2.02-9.789,1.56-13.464a5.862,5.862,0,0,1,.919-3.859c4.724-7.461,2.916-16.252,1.223-21.214a5.778,5.778,0,0,1,.059-3.929,27.722,27.722,0,0,0,1.125-17.218h0q-2,.092-4.015.226l-.094.006q-2.026.138-4.068.319c1.191,3.336,2.137,9.281-1.717,16.684a4,4,0,0,0,0,3.69c.062.119,6.1,11.993-.759,19.034a4,4,0,0,0-1.06,3.57,28.883,28.883,0,0,1-.137,11.809A48.685,48.685,0,0,0,165.366,81.607Z" style="fill:#c12140"/><path d="M240.75,45.079a4.015,4.015,0,0,0-.319,4.291c.066.123,6.358,12.138.76,21.46,2.765.259,5.584.578,8.448.975,3.359-8.1,1.565-16.515-.188-21.572a6.773,6.773,0,0,1,0-4.612c1.843-4.876,1.826-10.545,1.351-14.986q-3.976-.4-8.2-.922C243.286,34.562,243.5,41.4,240.75,45.079Z" style="fill:#c12140"/><path d="M272.1,76.107a34.28,34.28,0,0,0,1.983-22.954,7.221,7.221,0,0,1,.205-4.3c2.027-5.8,1.467-12.1.482-16.766q-3.961-.064-8.286-.273c1.167,4.35,2.334,11.633-.9,16.838a4,4,0,0,0-.147,3.97c.049.1,4.8,9.467-1.36,21.789Q268.237,75.319,272.1,76.107Z" style="fill:#c12140"/><path d="M87.57,153.466v40.739a8.548,8.548,0,0,0,5.653,7.993c14.39,5.311,55.977,16.944,121.612,5.222,0,0,41.721-7.561,79.234-1.718,0,0,6.662-12.372-1.753-29.211,0,0,7.012-15.465.7-30.586,0,0-18.933,11.685-74.326,4.124,0,0-45.268-12.9-86.955-1.667a113.68,113.68,0,0,1-15.8,3.073A248.942,248.942,0,0,1,87.57,153.466Z" style="fill:#e9ebfc"/><path d="M239.694,188.125a269.815,269.815,0,0,0,28.748,5.089s12.63-.3,21.168-2.933c-.3-4.247-3.822-8.459-6.546-13.911,0,0,9.772-7.909,3.462-23.03l-18.42-1.43C256.539,153,240.421,153,218.692,150.029c0,0-45.268-12.9-86.955-1.667a113.68,113.68,0,0,1-15.8,3.073c-3.138.384-6.8.788-10.682,1.134v24.357a13.8,13.8,0,0,0,7.642,12.391c6.32,3.116,17.781,5.163,38.481,1.453,0,0,18.891,14.91,35.819,4.569a16.1,16.1,0,0,0-7.977-9.378S210.009,181.632,239.694,188.125Z" style="fill:#90abe2"/><path d="M294.106,180.589l-25.663,12.622s-.812,6.909-8.656,10.293a210.621,210.621,0,0,1,34.282,2.2S299.661,195.3,294.106,180.589Z" style="fill:#acb9d4"/><path d="M296.481,191.169a38.83,38.83,0,0,0-4.165-14.678s7.012-15.465.7-30.586c0,0-6.994,4.315-24.912,6,.591,4.392.928,12.686-3.692,18.091,0,0,6.621,9.324,4.029,23.211C279.341,194.347,287.944,193.805,296.481,191.169Z" style="fill:#4b64aa"/><ellipse cx="125.043" cy="163.861" rx="5.149" ry="5.047" style="fill:#4b64aa"/><path d="M176.486,160.9a4.061,4.061,0,0,0-.658,2.752c.192.969.994,1.561,1.661,2.29,1.785,1.954,5.305,6.422,1.726,20.022,0,0,3.141-.208,7.219-.566,2.432-6.642,3.666-13.2-1.136-20.708a3.517,3.517,0,0,1-.455-2.85c1.5-5.278.984-14.1-.782-17.489-2.306-.178-4.686-.321-7.126-.421C178.176,148.146,179.317,155.793,176.486,160.9Z" style="fill:#4b64aa"/><path d="M205.7,184.553a25.343,25.343,0,0,0,.172-16.6,5.88,5.88,0,0,1,.444-4.638c2.784-5.172,2.4-11,.94-15.868-2.307-.44-4.908-.9-7.763-1.328,1.832,3.9,4.182,11.282-1.019,16.488a3.386,3.386,0,0,0-.452,4.223,18.845,18.845,0,0,1,.271,17.822C200.586,184.574,203.063,184.536,205.7,184.553Z" style="fill:#4b64aa"/><path d="M157.269,194.448c2.184-3.378,1.709-8.283,1.32-11.392a4.955,4.955,0,0,1,.778-3.265c4-6.314,2.467-13.752,1.034-17.951a4.886,4.886,0,0,1,.05-3.324,23.449,23.449,0,0,0,.952-14.569h0q-1.689.076-3.4.191l-.08.006q-1.713.115-3.441.269c1.007,2.823,1.808,7.854-1.453,14.117a3.385,3.385,0,0,0,0,3.122c.053.1,5.165,10.148-.642,16.106a3.384,3.384,0,0,0-.9,3.021,24.44,24.44,0,0,1-.116,9.991A41.093,41.093,0,0,0,157.269,194.448Z" style="fill:#4b64aa"/><path d="M221.054,163.54a3.4,3.4,0,0,0-.27,3.631c.056.1,5.38,10.27.643,18.158,2.34.219,4.725.489,7.148.825,2.842-6.85,1.324-13.974-.159-18.253a5.73,5.73,0,0,1,0-3.9c1.559-4.126,1.544-8.923,1.143-12.68q-3.366-.339-6.942-.781C223.2,154.642,223.379,160.43,221.054,163.54Z" style="fill:#4b64aa"/><path d="M247.576,189.794a29.009,29.009,0,0,0,1.678-19.422,6.1,6.1,0,0,1,.174-3.637c1.715-4.9,1.24-10.235.407-14.186q-3.353-.054-7.011-.231c.987,3.68,1.975,9.843-.765,14.247a3.381,3.381,0,0,0-.125,3.359c.042.081,4.065,8.011-1.151,18.437Q244.313,189.128,247.576,189.794Z" style="fill:#4b64aa"/><path d="M90.3,247.927v33.939a7.12,7.12,0,0,0,4.709,6.658c11.988,4.425,46.633,14.115,101.31,4.35,0,0,34.756-6.3,66.007-1.431,0,0,5.549-10.307-1.46-24.335,0,0,5.841-12.882.584-25.479,0,0-15.772,9.734-61.918,3.435,0,0-37.71-10.748-72.438-1.388a94.917,94.917,0,0,1-13.167,2.56A207.485,207.485,0,0,1,90.3,247.927Z" style="fill:#e9ebfc"/><path d="M217.032,276.8a224.619,224.619,0,0,0,23.948,4.24s12.472-.653,19.584-2.849c-.251-3.538-4.808-6.461-7.078-11,0,0,7.174-7.62,1.917-20.217l-14.7-.34c-9.635.908-23.063.9-41.165-1.567,0,0-37.71-10.748-72.438-1.388a94.917,94.917,0,0,1-13.167,2.56c-2.614.319-5.665.656-8.9.944v20.291a11.492,11.492,0,0,0,6.367,10.322c5.264,2.6,14.812,4.3,32.057,1.211,0,0,15.737,12.421,29.839,3.806A13.411,13.411,0,0,0,166.649,275S192.3,271.391,217.032,276.8Z" style="fill:#afd182"/><path d="M262.359,270.522l-21.378,10.515a11.6,11.6,0,0,1-7.211,8.575,175.4,175.4,0,0,1,28.559,1.831S266.987,282.776,262.359,270.522Z" style="fill:#acb9d4"/><path d="M264.338,279.336a32.357,32.357,0,0,0-3.469-12.228s5.841-12.882.584-25.479c0,0-5.826,3.594-20.753,5,.493,3.659.773,10.569-3.076,15.071a26.8,26.8,0,0,1,3.357,19.336C250.059,281.983,257.226,281.533,264.338,279.336Z" style="fill:#76933e"/><ellipse cx="122.743" cy="256.932" rx="4.184" ry="4.101" style="fill:#76933e"/><path d="M164.376,254.118a3.376,3.376,0,0,0-.549,2.292c.16.808.828,1.3,1.384,1.909,1.487,1.627,4.42,5.349,1.438,16.678,0,0,2.617-.173,6.014-.471,2.025-5.533,3.054-11-.947-17.251a2.931,2.931,0,0,1-.379-2.374c1.253-4.4.82-11.746-.651-14.569-1.921-.148-3.9-.268-5.937-.351C165.783,243.5,166.734,249.866,164.376,254.118Z" style="fill:#76933e"/><path d="M188.709,273.825a21.116,21.116,0,0,0,.144-13.832,4.9,4.9,0,0,1,.369-3.864c2.319-4.309,2-9.167.783-13.219-1.921-.367-4.088-.745-6.467-1.107,1.527,3.246,3.484,9.4-.848,13.736a2.82,2.82,0,0,0-.377,3.518,15.7,15.7,0,0,1,.226,14.847C184.452,273.842,186.516,273.81,188.709,273.825Z" style="fill:#76933e"/><path d="M148.366,282.068c1.82-2.815,1.424-6.9,1.1-9.491a4.135,4.135,0,0,1,.648-2.72c3.33-5.259,2.055-11.456.862-14.953a4.069,4.069,0,0,1,.041-2.77A19.538,19.538,0,0,0,151.81,240h0q-1.408.064-2.83.16l-.067,0q-1.427.1-2.867.225c.839,2.352,1.506,6.542-1.21,11.76a2.821,2.821,0,0,0,0,2.6c.043.084,4.3,8.454-.536,13.417a2.821,2.821,0,0,0-.747,2.516,20.358,20.358,0,0,1-.1,8.324A34.281,34.281,0,0,0,148.366,282.068Z" style="fill:#76933e"/><path d="M201.5,256.319a2.832,2.832,0,0,0-.225,3.025c.047.087,4.482,8.556.536,15.127,1.949.183,3.936.407,5.955.687,2.367-5.706,1.1-11.64-.133-15.205a4.778,4.778,0,0,1,0-3.251,23.713,23.713,0,0,0,.952-10.563q-2.8-.282-5.783-.651C203.291,248.907,203.44,253.729,201.5,256.319Z" style="fill:#76933e"/><path d="M223.6,278.191a24.157,24.157,0,0,0,1.4-16.18,5.092,5.092,0,0,1,.145-3.03,22.514,22.514,0,0,0,.339-11.818q-2.792-.045-5.84-.192c.822,3.066,1.645,8.2-.638,11.869a2.819,2.819,0,0,0-.1,2.8c.035.068,3.387,6.673-.958,15.359Q220.879,277.635,223.6,278.191Z" style="fill:#76933e"/></svg>