<svg width="120px" height="120px" viewBox="0 0 120 120" id="Layer_1" data-name="Layer 1" xmlns="http://www.w3.org/2000/svg"><defs><style>.cls-1{fill:#f7b2c3;}.cls-2{fill:#d7ebf9;}.cls-3{fill:#bfe2f7;}.cls-4{fill:#bee1f7;}.cls-5{fill:#f7b3c3;}.cls-6{fill:#2e3f5b;}.cls-7{fill:#2e3e5b;}.cls-8{fill:#2d3e5a;}.cls-9{fill:#fff3d8;}.cls-10{fill:#ffebcb;}.cls-11{fill:#d3e8f6;}.cls-12{fill:#fff;}.cls-13{fill:#fdd890;}.cls-14{fill:#fdd88f;}</style></defs><title>hs-huzzah-22</title><path class="cls-1" d="M26.16153,2.55635c.0474.04238.08849.10947.14314.12343a1.25554,1.25554,0,0,1,.864,1.66672,1.76083,1.76083,0,0,1-1.69033,1.16092,1.96822,1.96822,0,0,1-1.55317-.19482,1.09708,1.09708,0,0,1-.4583-1.03515,1.70031,1.70031,0,0,1,1.6738-1.58314c.12953-.00774.27676.02615.34405-.138Z"/><path class="cls-1" d="M114.27691,58.335c-.15683.05952-.32543.16557-.23271.33545a.604.604,0,0,1-.05309.746,1.48019,1.48019,0,0,1-.893.539,3.82887,3.82887,0,0,1-1.64411-.19283c-.20439-.06856-.41271-.16422-.43006-.45227a.46141.46141,0,0,1,.30236-.52522c.07826-.03179.1978-.09322.204-.15116.07015-.658.63164-.58036,1.04635-.70073a2.62188,2.62188,0,0,1,1.70027-.00448Z"/><path class="cls-2" d="M27.91858,58.06454c-.06626-.02881-.134-.10811-.09733-.14681.30325-.31991.247-.69735.26336-1.09509a5.1614,5.1614,0,0,1,.37868-1.53163c.01473-.04025.06963-.06809.07854-.10782.23327-1.03911.66717-2.01845.88485-3.06579a10.3792,10.3792,0,0,1,.59851-1.62654c.03877-.09871.21658-.1917.1616-.274-.2703-.40468.09781-.67837.202-.983.43805-1.2804.84636-2.56926,1.24509-3.86231.471-1.52742.98828-3.04017,1.46325-4.567.39738-1.2774.88821-2.526,1.20179-3.83273.0759-.31628.32033-.56011.4108-.90145A25.68354,25.68354,0,0,1,35.99,32.29583a.3646.3646,0,0,0,.04654-.19241,1.86083,1.86083,0,0,1,.27659-1.07543c.16735-.41018.22734-.85279.37966-1.27454.36935-1.0227.69381-2.0633,1.02307-3.09984q.56605-1.782,1.15345-3.55627c.25953-.77944.44223-1.5799.76508-2.3449a10.09373,10.09373,0,0,0,.325-1.0767,3.01683,3.01683,0,0,1,.386-1.03361.96652.96652,0,0,0,.16759-.57125c-.01656-.6726.51326-1.16981.60468-1.81311a.28853.28853,0,0,1,.17963-.19076c.75156-.17333,1.29787-.84173,2.15647-.81.47441.01754.95434-.20223,1.44169.01186a.50629.50629,0,0,0,.3888-.06758,1.20632,1.20632,0,0,1,.73238-.039c1.31274.26973,2.61511.59282,3.9321.83824a25.26033,25.26033,0,0,1,3.50951,1.03532c.29724.10133.53122.383.87387.33169.37559-.0562.63414.202.90985.35441a11.18573,11.18573,0,0,0,1.1983.49,5.77147,5.77147,0,0,1,1.18244.59377c.6115.44545,1.38207.57562,1.94632,1.13634a6.554,6.554,0,0,0,1.08935.56107c.571.34929,1.09666.772,1.6554,1.14269.22632.15016.32445.30352.18312.553a.90688.90688,0,0,0-.06366.39487c-.03145.345-.23221.49091-.5692.54653a15.80083,15.80083,0,0,1-2.843.32629,8.4147,8.4147,0,0,1-1.86047-.103c-.3941-.09819-.79331-.07937-1.18658-.17464a10.33629,10.33629,0,0,1-1.2167-.32609c-.41131-.15457-.84964-.22233-1.25729-.36169a13.03205,13.03205,0,0,1-1.7672-.73922,18.78949,18.78949,0,0,0-1.762-.76039,4.67222,4.67222,0,0,1-.88367-.43178,7.39193,7.39193,0,0,0-1.53739-.63933,4.10885,4.10885,0,0,0-.78783-.327,3.22372,3.22372,0,0,0-.51647-.12888c-.3982.0006-.558.27573-.66258.57261-.11011.31258.17324.41833.38337.52649a4.80316,4.80316,0,0,0,.61857.25125,8.79911,8.79911,0,0,1,1.5593.81777,24.82366,24.82366,0,0,0,2.46674,1.19318,28.0105,28.0105,0,0,1,2.95838,1.20746c.07844.04666.23775.11066.26592-.05292.02762-.16031.12881-.22778.16367-.07644.08307.36058.33816.26195.56611.31175.65033.14209,1.29351.31686,1.94019.47594a1.78345,1.78345,0,0,0,.32836.05578c.90125.0477,1.804.143,2.70386.12156a5.23783,5.23783,0,0,0,2.84348-.84372,1.6542,1.6542,0,0,0,.62628-.69275c.115-.26276.30425-.09507.45867-.06438.27616.05489.11971.21471.0776.355a5.46612,5.46612,0,0,0-.34748.91611,4.48334,4.48334,0,0,1-.37026,1.35541,18.51354,18.51354,0,0,1-.62048,2.03778,3.70933,3.70933,0,0,0-.44674,1.71653c.00043.11956-.07932.20421-.12215.30528a30.408,30.408,0,0,0-.95741,2.89431,4.52468,4.52468,0,0,0-.44284,1.31183c-.00317.72646-.54055,1.31963-.51386,2.05387-.64161.8199-.51426,1.90642-.9828,2.81125a4.95892,4.95892,0,0,0-.53888,1.7351,4.29048,4.29048,0,0,1-.59476,1.73832c-.06919.11407-.1753.20364-.17533.35368a7.50938,7.50938,0,0,1-.56083,2.0252,8.84767,8.84767,0,0,0-.5067,1.71617c-.01787.25167-.18311.33429-.28531.49161-.31716.43568-.8469.7114-1.13447,1.07828-.45933.586-1.23236.65771-1.62,1.28932a.73539.73539,0,0,1-1.06784.22771.32185.32185,0,0,1-.02086-.3241,11.47243,11.47243,0,0,0,.939-2.78952c.28914-1.00228.70746-1.956.98849-2.96265a30.63827,30.63827,0,0,1,1.288-3.90046c.41715-.97074.62775-2.05827.95458-3.08676a3.84336,3.84336,0,0,1,.2591-.69658.52027.52027,0,0,0-.12354-.76583c-.30136-.23714-.3016-.47691.14752-.49027.51975-.01545.60274-.37442.69751-.76065.26832-1.09368.272-1.08539-.85463-1.071a15.89185,15.89185,0,0,0-5.30016.91147,13.60371,13.60371,0,0,0-3.45753,2.07092,45.68168,45.68168,0,0,1-4.154,2.89412,10.96277,10.96277,0,0,1-7.10854,1.80322c-.41079-.05175-.60243.126-.76936.55251a3.64306,3.64306,0,0,0-.2477,1.946c.04161.26961-.23072.30974-.39074.39647-.31412.17026-.47666.35134-.362.74925a2.5096,2.5096,0,0,1-.26776,1.43648c-.549,1.8097-1.09795,3.62221-1.70481,5.41043-.52792,1.55564-.965,3.14613-1.598,4.66357-.22886.54869-.22169,1.152-.49875,1.679-.11378.21641-.14106.47946-.35545.64148A5.05674,5.05674,0,0,1,27.91858,58.06454Z"/><path class="cls-2" d="M69.61083,79.997c-.06629-.28916-.30561-.479-.45366-.71547a11.38206,11.38206,0,0,1-.81241-1.792,9.21807,9.21807,0,0,1-.4794-1.09,1.83355,1.83355,0,0,1-.15423-.64581c.01082-.12672.0362-.30548-.13831-.33532-.61021-.10435-.4762-.68117-.47107-.97425a10.048,10.048,0,0,0-.39074-2.53351,2.03708,2.03708,0,0,1-.07866-.45856,17.78685,17.78685,0,0,0-.40472-3.10759,21.043,21.043,0,0,1-.31022-2.20932c-.01122-.1414-.0198-.20349.127-.22039.1294-.01491.15094-.1072.079-.18187-.47931-.49714-.3893-1.16086-.53026-1.75717a16.76679,16.76679,0,0,1-.30771-2.38135,1.18117,1.18117,0,0,0-.1566-.708c-.22489-.261.03171-.51856-.04258-.76176-.313-1.02447-.34464-2.10035-.57206-3.14322-.1109-.50859-.03676-1.12086-.12578-1.629a19.73308,19.73308,0,0,0-.35607-2.09845,5.67935,5.67935,0,0,1-.24383-1.64591c.00381-.30886.06219-.63007-.20239-.89058-.0646-.0636-.05995-.21064-.06428-.32022-.0242-.61177-.00284-1.22851-.07646-1.83389a8.14644,8.14644,0,0,0-.22756-.97729,14.173,14.173,0,0,1-.241-2.07956c-.10917-1.07591-.385-2.13191-.40011-3.218-.00373-.26882-.4147-.32319-.33523-.39094.21742-.18534.18737-.38879.19332-.60629a.934.934,0,0,0-.01144-.26943,16.61323,16.61323,0,0,1-.5277-3.96189,1.70724,1.70724,0,0,0-.09655-.45468,6.06221,6.06221,0,0,1-.23087-1.221,13.20693,13.20693,0,0,0-.32772-2.34522c-.03874-.13913-.09145-.3586.119-.398.34976-.06553.341-.24986.27387-.52561a.50214.50214,0,0,1,.16338-.55242,13.42724,13.42724,0,0,1,1.70208-1.135,14.47355,14.47355,0,0,1,2.5567-.91038,6.98824,6.98824,0,0,1,2.1727-.47253,2.37967,2.37967,0,0,0,.86108-.26673c.91591-.39619,1.9501-.28943,2.836-.72691.25016-.12353.3744.23239.54625.06407.18073-.177.38313-.10446.5705-.10023a5.95109,5.95109,0,0,0,1.919-.23944.86991.86991,0,0,1,.26468-.03548c1.00722.0123,2.00259-.20025,2.99908-.21486a27.06,27.06,0,0,1,3.0881-.04825c.72161.07209,1.43591.2269,2.149.36742.15955.03145.25386.10628.06747.31827a5.84107,5.84107,0,0,1-2.1167,1.46441,14.78668,14.78668,0,0,1-2.09015.47954,22.74263,22.74263,0,0,1-3.03565.64694c-.72584.10022-1.44786.24275-2.1576.39639a23.0294,23.0294,0,0,1-2.42725.26638c-.70567.07708-1.40147.22836-2.11785.25973-.49023.02147-.95311.26-1.45643.28154-.13663.00586-.14144.1609-.04615.25649a.78509.78509,0,0,0,.60679.23273c.93506-.17036,1.88571-.02575,2.82513-.20262a6.5218,6.5218,0,0,1,1.52668-.17962,15.89214,15.89214,0,0,0,3.57092-.45106,1.74468,1.74468,0,0,1,.2544-.07728,29.67437,29.67437,0,0,0,4.187-.62405,7.87023,7.87023,0,0,0,2.258-.69211c.37423-.17973.819-.195,1.13019-.53793.11268-.12416.31855-.04584.32066.17481.01317,1.37642.50969,2.68427.55715,4.05839.03648,1.05631.38371,2.07386.488,3.119.07759.77767.17155,1.54752.31319,2.31521.20949,1.13546.298,2.28865.50523,3.42724a6.9539,6.9539,0,0,1,.17637,1.59406,8.1365,8.1365,0,0,0,.204,1.24817c.06062.59868.22243,1.18043.30647,1.76895.063.44087.03208.91061.07144,1.36745.00737.08549-.01821.175.0351.25175.49156.70793.29768,1.553.44322,2.32829a28.46565,28.46565,0,0,1,.4402,3.35139,6.88289,6.88289,0,0,0,.28847,1.50277,2.88853,2.88853,0,0,1,.1038.792,1.11117,1.11117,0,0,1-.91542.441c-.38369-.0313-.53256.32318-.695.62687-.20256.37872-.1807.88511-.62732,1.12745a3.5895,3.5895,0,0,1-.37825-2.54829c.05677-.19224.18091-.35331-.05054-.53448a1.26717,1.26717,0,0,1-.41935-1.23006,9.079,9.079,0,0,0-.32635-2.67186.58151.58151,0,0,0-.44357-.53233,4.51078,4.51078,0,0,0-.4505-.14472,8.26065,8.26065,0,0,1-4.57562-3.0465c-.78595-.86988-1.52007-1.7839-2.30046-2.65716a12.11072,12.11072,0,0,0-5.11734-3.15065,31.03276,31.03276,0,0,0-4.38395-1.07959,13.44056,13.44056,0,0,0-2.29253-.0168c-.15491-.00528-.3463.0311-.376.22111a8.02077,8.02077,0,0,0,.1176,1.13721.70357.70357,0,0,0,.64563.7981c.34491.0636.31192.25895.06453.454-.17982.14175-.50861.19308-.38625.53889.11449.32358.41924.28555.68268.32656.21508.03349.50383.02742.47473.34866-.02514.2776-.26729.3564-.50833.32064-.49986-.07419-.43209.23107-.39274.53974.27291,2.14091.68084,4.26107.96081,6.40169.32233,2.46449.75864,4.91338,1.15021,7.36681.24993,1.566.49489,3.14952.666,4.73686.11859,1.09987.32535,2.199.51943,3.29452.20769,1.17237.3936,2.35055.52772,3.53485a15.3917,15.3917,0,0,0,1.69416,6.32319.42912.42912,0,0,1,.01264.29761c-.49633.50486-1.01428.98936-1.46582,1.53838C69.98266,79.89218,69.85661,80.07178,69.61083,79.997Z"/><path class="cls-3" d="M27.91858,58.06454a14.98775,14.98775,0,0,1,2.43322-.13289c.0159.03093.03179.06185.0483.09258a16.38163,16.38163,0,0,1-.28967,2.13616c-.02552,1.09787-.18347,2.19456-.10675,3.29213a10.51309,10.51309,0,0,0,.59576,2.62434c.01441.04259.0273.1047.06005.11835.79107.32981.71085,1.03783.88455,1.72093.36126,1.42081,2.56134,2.92634,4.05073,3.04794a19.47457,19.47457,0,0,0,3.42425.24364,7.59179,7.59179,0,0,0,3.4021-1.04223,12.27214,12.27214,0,0,0,5.03066-6.09261c.35474-.89923.53642-1.89868.867-2.82412.52737-1.47641.931-2.99171,1.52541-4.45131.34825-.85517.55074-1.79728.82131-2.7.33627-1.122.76063-2.21567,1.05345-3.35092.198-.35456.217-.80689.58126-1.07114a1.30313,1.30313,0,0,0,.93653-.26983c.23954-.19312-.00581-.50521.24024-.65113.2-.11859.40837.22369.62357-.014.10162-.11222.356-.17.36483-.26822.04427-.49333.49857-.48505.77527-.68012a1.11428,1.11428,0,0,0,.42261-.41517.41505.41505,0,0,1,.41428-.28141,2.54491,2.54491,0,0,1-.127.85735c-.47589,1.38633-.98962,2.76364-1.40488,4.16551a30.74054,30.74054,0,0,0-.94244,3.123,1.16155,1.16155,0,0,1-.60427.993c-.18694.08175-.25265.26911.05487.34756.22927.05849.04928.15438.00833.23007a6.4549,6.4549,0,0,0-.50658,1.62572,2.46366,2.46366,0,0,1-.15515.57828,14.77264,14.77264,0,0,0-.77507,2.2532c-.31725.94334-.6044,1.89561-1.00255,2.80964-.32967.0015-.48991.20034-.67633.4586a40.45265,40.45265,0,0,1-2.65743,3.905,19.65846,19.65846,0,0,1-2.7006,2.41258A11.62721,11.62721,0,0,1,41.6906,72.5382a15.35938,15.35938,0,0,1-4.68152.88911,5.28753,5.28753,0,0,0-1.6348.23348,1.64353,1.64353,0,0,1-1.68894-.40252,1.78618,1.78618,0,0,1-.90919-.48166,13.584,13.584,0,0,0-1.6161-1.17271,2.2,2.2,0,0,1-.84868-.91569,1.50532,1.50532,0,0,0-.39033-.542,7.53329,7.53329,0,0,1-.96072-1.36674,7.71844,7.71844,0,0,1-1.229-2.84123,9.8508,9.8508,0,0,1-.09188-1.89868c.0648-.28469-.13245-.51411-.1276-.78859.01967-1.11259-.06233-2.23515.06371-3.33447A8.77421,8.77421,0,0,1,27.91858,58.06454Z"/><path class="cls-3" d="M69.61083,79.997c.5321-.39643.84261-1.00357,1.35195-1.422.1656-.136.2746-.36038.53919-.33758a.97376.97376,0,0,1,.56611.45821,15.15261,15.15261,0,0,0,1.91418,2.17413,7.42694,7.42694,0,0,0,4.854,2.04485c.80308.08263,1.61826.00143,2.42714.12782a2.85449,2.85449,0,0,0,1.97039-.59314,9.38818,9.38818,0,0,0,1.69876-1.33276,1.408,1.408,0,0,0,.516-1.05954.60282.60282,0,0,1,.40169-.64677c.58173-.16637.78626-.64177,1.00263-1.11053a12.922,12.922,0,0,0,.96421-3.63948,23.151,23.151,0,0,0-.02072-5.19008c-.08612-1.06471-.42585-2.11525-.559-3.18968-.26867-2.16712-.68334-4.31425-.891-6.4905a.81676.81676,0,0,1,.18041-.63964,6.765,6.765,0,0,1,.522-1.417.70635.70635,0,0,1,.95044-.43213.18379.18379,0,0,0,.25519-.11957c.08247-.22954.264-.199.43971-.19982.13945.64964.22237,1.31061.33828,1.96359.135.76061.23054,1.537.31447,2.30643.082.75159.211,1.49724.33054,2.23814.14447.89532.21653,1.80008.38051,2.6893a26.66555,26.66555,0,0,0,.45763,3.02374.9553.9553,0,0,1-.04817.91626.5044.5044,0,0,0-.37967.50388,17.496,17.496,0,0,0-.12255,2.34854,10.2898,10.2898,0,0,1-1.18292,5.79108c-.08258.09913-.17347.19136-.25788.28916a1.69362,1.69362,0,0,1-.12749.13975c-.7832,1.19953-1.789,2.23754-2.51568,3.4773a1.19258,1.19258,0,0,1-.07368.16982,1.01525,1.01525,0,0,1-.10257.15127c-.01922.023-.04.04516-.059.06817a1.6203,1.6203,0,0,1-.12448.12541,1.9071,1.9071,0,0,1-.40932.30215.60762.60762,0,0,0-.23048.20619.54279.54279,0,0,1-.16648.166,1.41739,1.41739,0,0,0-.27285.15809c-.03675.042-.07439.08181-.11108.12421a1.3894,1.3894,0,0,1-.11723.13306,5.5713,5.5713,0,0,1-1.9815.93857,18.33633,18.33633,0,0,0-1.8641.7455c-.086.02588-.18162.07674-.19254.16953-.06119.52042-.35594.38723-.658.2445-.33037-.25938-.7382-.102-1.10281-.20683a27.96034,27.96034,0,0,1-3.10933-1.04931,14.58464,14.58464,0,0,1-2.51941-1.41547,2.92968,2.92968,0,0,1-1.07281-1.04137c-.1383-.2739-.4915-.41177-.72464-.65763A11.462,11.462,0,0,1,69.61083,79.997Z"/><path class="cls-2" d="M82.86458,90.14711c.13213.54547.44812,1.07831.11309,1.65593-.02117.03648-.059.08032-.05229.11324.04755.23343.57232.33284.192.68717-.34428.32077.25913.403.16409.66016a1.9398,1.9398,0,0,0,.14,1.08882l-.00033.25958a44.00673,44.00673,0,0,0,.38673,5.16345,1.72833,1.72833,0,0,0,.18463.6439,36.84963,36.84963,0,0,0,.30459,4.63707,31.326,31.326,0,0,1,.34476,3.47854,5.06177,5.06177,0,0,1-.32519,2.04993,8.0791,8.0791,0,0,1-3.57085,4.2551,24.02132,24.02132,0,0,1-2.74038,1.57,18.24879,18.24879,0,0,1-3.83449-.2596,4.77423,4.77423,0,0,1-1.31459-.51352c-.53672-.28471-.54118-.76148-.10526-1.21727a3.48563,3.48563,0,0,1,1.11846-.70741,16.55484,16.55484,0,0,1,3.56973-1.22146,4.65337,4.65337,0,0,0,.82336-.26793,2.78547,2.78547,0,0,1,.68851-.25422c1.06637-.12379,1.5635-.89755,2.02809-1.71824.03229-.057.02791-.14795.07228-.183a3.1279,3.1279,0,0,0,.84608-1.62181,5.2404,5.2404,0,0,0,.24084-2.35939,24.17017,24.17017,0,0,1-.36667-2.50772,8.34129,8.34129,0,0,0-.32914-2.03119c-.10774-.38915.2066-.79805-.1168-1.1517-.03156-.03453.071-.07974.13479-.09613.17606-.04523.25443-.17829.05471-.24059-.22915-.07151-.2419-.19464-.27193-.38678-.1474-.943-.24308-1.89795-.43241-2.82836a3.7997,3.7997,0,0,1-.13054-1.9305c-.277-.40356-.16785-.91141-.36159-1.33862a1.14964,1.14964,0,0,1-.154-.50936,22.723,22.723,0,0,0-.2894-2.65353c-.03953-.40732-.08932-.8135-.10756-1.22277a.65442.65442,0,0,1,.64-.05895C81.19876,89.53928,82.08555,89.71288,82.86458,90.14711Z"/><path class="cls-2" d="M34.68877,80.13455c-.25285.48473-.2175,1.06053-.58843,1.53337a2.452,2.452,0,0,0-.32093,1.11389,8.90408,8.90408,0,0,1-.63826,2.095,11.98733,11.98733,0,0,0-.47416,1.59173c-.08136.34147-.34376.61072-.31424,1.00255.02255.29941-.42546.07239-.46174.27634-.03055.17178.33739.31391.19442.52334-.27156.39778-.14081.9038-.4137,1.29774a3.38754,3.38754,0,0,0-.39765,1.31817,6.83476,6.83476,0,0,0-.40518,1.44892c.00251.12851-.15931.26022-.24559.39047a3.96435,3.96435,0,0,0-.61726,1.40887c-.32946.86419-.87648,1.61972-1.17351,2.494-.09175.27008-.37832.29908-.559.46144A6.7098,6.7098,0,0,1,23.957,98.8865a29.778,29.778,0,0,1-3.90253.04621c-.395-.033-.81762.003-.66945.61113.05819.15932.13841.31821.01735.48348a.87236.87236,0,0,1-.33068-.02773c-.97662-.52667-2.022-.91231-2.98346-1.47148a2.56471,2.56471,0,0,1-.89341-.79443A.81416.81416,0,0,1,15.64,96.38494a8.40006,8.40006,0,0,1,3.45929-.18832c.82684.06319,1.61991.3165,2.4485.31926a6.09381,6.09381,0,0,1,1.36381.30149.77337.77337,0,0,0,.62753-.04866,6.42893,6.42893,0,0,1,1.35861-.66931c.58407-.24011.92969-.76754,1.43326-1.09855a.22615.22615,0,0,0,.08918-.097c.29109-.79821.9179-1.43571,1.16232-2.23509.24606-.80472.49693-1.61021.73952-2.417.25749-.85629.41492-1.7574.74542-2.57061.39377-.96885.51084-2.01709.9925-2.95537a10.18031,10.18031,0,0,0,.42334-1.46682,23.45615,23.45615,0,0,0,.74313-2.26582c.04845-.21866.06738-.49928.36126-.60629.13593-.04949.10275-.175.04219-.28244-.05861-.104-.09228-.2426-.01036-.3169.31889-.28925.26449-.69423.35567-1.05248a4.93814,4.93814,0,0,0,.2987-1.16235c.003-.2124.28931-.34444.273-.59613a2.1636,2.1636,0,0,1,.85322.98484C33.83286,78.683,34.32262,79.37311,34.68877,80.13455Z"/><path class="cls-4" d="M78.00545,116.41a.2553.2553,0,0,1,.21309-.29638c.66414-.12589,1.08547-.66535,1.64556-.9727a9.53239,9.53239,0,0,0,1.90744-1.21764,7.78281,7.78281,0,0,0,2.59773-4.29545c.07732-.39269.24231-.77584.01521-1.169.26633-.50734-.06955-1.02509.02206-1.56073a2.48156,2.48156,0,0,0-.19293-1.15417,4.46041,4.46041,0,0,1-.13075-.78623c-.1779-.92408-.07283-1.866-.22733-2.79592a2.88118,2.88118,0,0,1,.10249-1.72222l.06758-.0636a.27757.27757,0,0,1,.33744.06435c.01037.74971.43285,1.46368.19368,2.235a8.48588,8.48588,0,0,1,.43509,2.26989c.13922.54535.1316,1.14282.3152,1.69956.158.47922.30277.98652.49783,1.42486a3.41691,3.41691,0,0,0,1.0645,1.27317,8.20353,8.20353,0,0,1,1.27712.95357,1.13218,1.13218,0,0,0,.86554.30478c.77486-.02311,1.55114.00466,2.32636-.01119.88849-.01816,1.77592.00838,2.66375.02418.02249.26645-.31991.252-.36117.4694.2239.02346.44982.01557.67345.04315.44654.05505.89626.093,1.3382.17324.26353.04787.554.14749.62587.4448a.6997.6997,0,0,1-.34517.68812,9.146,9.146,0,0,1-2.002.95571,33.79276,33.79276,0,0,1-5.21043,1.608,5.81034,5.81034,0,0,1-1.3315.215c-2.44693.12747-4.87223.46253-7.30234.753-.485.058.2702.24531-.04008.30752A7.27825,7.27825,0,0,1,78.00545,116.41Z"/><path class="cls-4" d="M19.22936,99.62966c-.20095-.68968-.071-.87625.6397-.86272.81273.01548,1.623.07769,2.43842.0562a15.81619,15.81619,0,0,0,3.05576-.30247,3.40787,3.40787,0,0,0,1.95375-.94452c.20756-.24158.535-.21408.73553-.44322.151-.17252.12107-.64924.57482-.38691.00325.00188.10594-.11239.09323-.14731-.15433-.424.20508-.62852.36645-.924.22275-.40781.40447-.83868.59278-1.26453.19852-.449.37636-.90716.57967-1.35384.069-.1516.11683-.3603.36384-.33031a10.51474,10.51474,0,0,0-.42718,2.6876,4.93323,4.93323,0,0,0,.43205,1.84525,6.52285,6.52285,0,0,0,.53446,1.35758,3.3742,3.3742,0,0,0,1.70874,1.39345c.45993.15146.77826.63458,1.331.56631.58254.53627,1.4246.65354,1.983,1.22877a2.54213,2.54213,0,0,0,1.04776.82014c.233.14277.504.27906.46341.59963-.04347.343-.34446.444-.6332.52447a9.18044,9.18044,0,0,1-3.944.17637,34.596,34.596,0,0,1-5.4888-1.38011c-2.34689-.77839-4.71248-1.49818-7.02394-2.38255A7.31344,7.31344,0,0,0,19.22936,99.62966Z"/><path class="cls-1" d="M23.333,20.43414c.05058-1.33442.88617-2.25259,1.49763-3.27289a1.01211,1.01211,0,0,1,1.01332-.51986,1.08938,1.08938,0,0,1,.85916.74727,2.05082,2.05082,0,0,1,.10709,1.38647c-.16077.61747-.10571,1.24216-.20987,1.86026q-.27153,1.6113-.65722,3.19312a3.49724,3.49724,0,0,1-.16019.78341c-.10577.21794-.12529.472-.3823.59277-.05457.02564-.088.09626-.13119.14616.3944.33648.03487.47651-.18016.61877a1.07153,1.07153,0,0,1-.96241.03373,1.5322,1.5322,0,0,1-.80568-.556c-.26766-.416-.69987-.54045-1.04447-.78138a10.93978,10.93978,0,0,1-1.952-1.69485,6.40457,6.40457,0,0,1-1.25621-2.243,1.74618,1.74618,0,0,1,.35-1.76038,1.29579,1.29579,0,0,1,1.20435-.42452,2.659,2.659,0,0,1,1.63894.78885A5.15663,5.15663,0,0,0,23.333,20.43414Z"/><path class="cls-5" d="M73.52934,6.71548c.13353.5823-.2901,1.077-.34668,1.65522a14.47489,14.47489,0,0,1-.91436,2.9247,5.94709,5.94709,0,0,1-.75436,1.8462c-.02377.03193-.01008.08932-.02358.13175-.06536.20546-.24856.23633-.42247.27988.05776.13676.20824.22942.08241.43513-.08531.13946-.08815.31387-.30281.33867-.01551.00179-.00413.16871-.01877.2566A1.378,1.378,0,0,1,69.429,15.80721a6.39789,6.39789,0,0,0-.77482.10288c-.62293.06053-.89865-.47184-1.36556-.65438a.173.173,0,0,1-.10018-.22332,14.32237,14.32237,0,0,1,.398-1.999,9.58062,9.58062,0,0,0,.67837-1.94585c.04776-.18619.34171-.31536.29989-.35049-.23641-.19857-.03167-.24312.07742-.33076.03319-.02667.09328-.07437.0872-.08751-.22076-.4773.2585-.79372.279-1.18539.03864-.73653.53581-1.26345.73691-1.9165.05885-.19113.14825-.31873.36356-.33394.1267-.00894.15587-.09943.06322-.17284-.23718-.18791-.09849-.38783.00718-.53329a3.97249,3.97249,0,0,1,1.85154-1.47209c.36961-.13633.63286.04448.94435.14173.25923.08093-.0575.37651.18958.4093a.40258.40258,0,0,1,.35907.26174c.05153.13757.17859.2559.0757.43773C73.47143,6.18149,73.559,6.44206,73.52934,6.71548Z"/><path class="cls-6" d="M34.68877,80.13455a1.1416,1.1416,0,0,1-.43607-.42367,12.09054,12.09054,0,0,0-1.35143-2.1276,3.08022,3.08022,0,0,1-.35435-.60679c.2583-1.27653.79211-2.46866,1.13842-3.71822a4.084,4.084,0,0,0,1.21489.25093c.22127-.01684.60058.36148.6389-.22182.00168-.02546.16288-.06811.24306-.05646a16.40957,16.40957,0,0,0,2.67117-.04211,6.20678,6.20678,0,0,0,1.22175-.2199,16.00555,16.00555,0,0,0,3.56581-1.29123,6.58981,6.58981,0,0,0,.9697-.76c.34182-.258.91-.315.99572-.8905.01115-.07491.21811-.155.34225-.17082a.64421.64421,0,0,0,.45539-.25195c.49874-.74825,1.26893-1.24769,1.78522-1.97367.44748-.62922.80629-1.31607,1.22522-1.96519.22767-.35277.50739-.66971.70636-1.04118.06266-.117.1692-.21207.22319-.33182.22628-.502.22176-.504.67884-.21361a.9776.9776,0,0,0-.23565.46471,2.32756,2.32756,0,0,1-.41222,1.09678c-.281.43543-.36468.97711-.66871,1.41606a12.0489,12.0489,0,0,1-1.59045,2.15387.57507.57507,0,0,0-.131.15315,7.09108,7.09108,0,0,1-2.66684,2.6649,16.73352,16.73352,0,0,1-1.8019,1.07282,13.05982,13.05982,0,0,1-1.91271.6957c-1.06715.3264-2.184.32715-3.25347.61744a2.64332,2.64332,0,0,1-.99839.02733c-.53858-.07038-.73527.08438-.70114.60847a2.59639,2.59639,0,0,1-.28455,1.15039C35.44589,77.48436,35.15984,78.83883,34.68877,80.13455Z"/><path class="cls-1" d="M95.46529,46.54039a3.33179,3.33179,0,0,1,.11548-.85762.975.975,0,0,1,.90141-.86291c.62983-.07328,1.29821-.12772,1.70972.58788.18146.31557.60206.45551.72117.85451.03094.10363.13042.147.22595-.01691.32257-.55347.70351-1.07064,1.05439-1.60548a1.771,1.771,0,0,1,2.67336-.22c.06094.06365.15516.15055.14719.21611a3.5637,3.5637,0,0,1-.21213,1.23227c-.49507.91552-.9804,1.84231-1.43532,2.77208a15.52845,15.52845,0,0,1-1.64318,2.4825.94563.94563,0,0,1-.789.29905,3.25557,3.25557,0,0,1-.75107.008c-.90161-.18956-1.10731-.96552-1.43809-1.57082a15.888,15.888,0,0,1-1.20359-2.59078A3.17417,3.17417,0,0,1,95.46529,46.54039Z"/><path class="cls-7" d="M82.86458,90.14711c-.56117.09368-.96637-.37479-1.49505-.41765a.99666.99666,0,0,1-.42245-.14827,2.04617,2.04617,0,0,0-1.17919-.39232,5.95337,5.95337,0,0,1-.25007-2.81739c.13482-.0017.27.00221.40432-.00733.07194-.00513.1777.03774.19211-.08274.0016-.01332-.11443-.03663-.1728-.06237-.0567-.025-.14457-.049-.15676-.09129-.02884-.10011.03886-.15094.141-.17734.91325-.236,1.69619-.791,2.64544-.99067a2.93212,2.93212,0,0,0,1.65834-.9064c.05234-.03963.09128-.10181.16823-.1l-.008.01436c.03967-.14273.18995-.10417.27707-.16911.07387-.0105.10049-.06127.10879-.12767a1.08729,1.08729,0,0,1,.29265-.28035l.37977-.29363a1.76034,1.76034,0,0,0,.13871-.12l-.00261.00378a.859.859,0,0,0,.10839-.13612.06143.06143,0,0,0,.044-.077c.643-.8762,1.4127-1.64906,2.03562-2.54609.2605-.37514.30882-.85728.66661-1.16444l-.006.00516c.06646-.08372.04923-.20639.13153-.28274a4.04927,4.04927,0,0,0,.67593-1.544,18.75274,18.75274,0,0,0,.56173-2.43288,8.90753,8.90753,0,0,0-.05325-2.30722,1.23016,1.23016,0,0,1,.03806-.56007c.18246-.56556-.03128-1.17379.23764-1.73451.14556-.30348.26037-.24471.443-.0816a1.169,1.169,0,0,0,.14839.76795,3.00172,3.00172,0,0,1,.15708,1.413c-.08369.56133.164,1.06919.09974,1.62018-.09024.7735-.10065,1.5562-.1521,2.33452a.98644.98644,0,0,1-.08675.24732,7.56369,7.56369,0,0,0-.37764,1.82213A4.70978,4.70978,0,0,1,89.84486,79.44a11.14235,11.14235,0,0,1-4.62509,5.42,8.42484,8.42484,0,0,1-2.15973.96407c-.18632.05555-.3495.18683-.535.24761-.164.05373-.2484.17278-.179.2928.14856.25675.02047.53735.09249.77036a6.44877,6.44877,0,0,1,.27076,1.96232C82.70733,89.45586,82.9202,89.7814,82.86458,90.14711Z"/><path class="cls-8" d="M80.047,116.272c-.06976-.11211-.22318-.278-.19261-.3256a.43079.43079,0,0,1,.37987-.20227,18.8767,18.8767,0,0,0,2.7124-.3144,15.85424,15.85424,0,0,0,2.95232-.32769,10.13467,10.13467,0,0,1,1.16975-.03354,7.73646,7.73646,0,0,0,2.30076-.489,4.21076,4.21076,0,0,1,1.292-.27515,15.17348,15.17348,0,0,0,2.66572-.86833c.62339-.16872,1.16235-.54768,1.79662-.70253a1.93145,1.93145,0,0,0,1.02134-.73836c.15757-.198.08311-.27486-.11711-.37762a2.29887,2.29887,0,0,0-.81968-.22218A18.351,18.351,0,0,0,93.248,111.246c-.06717-.00057-.14582-.036-.12934-.11515.01081-.05192.07464-.09674.12169-.13647.22284-.18814.55354-.16137.76173-.3802a1.19661,1.19661,0,0,1,.8532.03836,1.26762,1.26762,0,0,0,.52365.07573,2.75741,2.75741,0,0,1,2.1462,1.32471.59683.59683,0,0,1-.09375.83979,3.348,3.348,0,0,1-.88639.69545c-.64137.2905-1.22815.72192-1.88818.94547-.74338.25178-1.45008.59461-2.21.80751-1.12331.31473-2.26925.52322-3.40531.77105-.5276.1151-1.09473.08946-1.64171.165a16.70354,16.70354,0,0,1-2.20254.24982c-.8564.00314-1.71269.05841-2.5706.02313a9.05446,9.05446,0,0,0-1.39243-.041A1.61008,1.61008,0,0,1,80.047,116.272Z"/><path class="cls-8" d="M19.22936,99.62966c.05075-.071-.0286-.29572.13615-.2109.6475.33333,1.34366.53924,2.00851.8191,1.054.44365,2.13832.78643,3.21967,1.14264a8.8129,8.8129,0,0,1,1.67894.5954,1.26349,1.26349,0,0,0,.30789.12061,15.27218,15.27218,0,0,1,1.77132.50645,21.16549,21.16549,0,0,0,2.91416.79186,10.6952,10.6952,0,0,0,2.80954.423,10.27207,10.27207,0,0,0,1.29307.071c.66786-.09984,1.32449-.24063,1.98107-.38457.09854-.0216.3032-.09893.27637-.24552s-.0362-.35081-.28092-.38516c-.30963-.04342-.50667-.31834-.80155-.42488a.52334.52334,0,0,1-.35814-.64371,5.27232,5.27232,0,0,1,2.443,1.48722.80541.80541,0,0,1-.13424,1.25754,2.99343,2.99343,0,0,1-1.58189.61877,11.41239,11.41239,0,0,1-3.48523-.18439,11.22831,11.22831,0,0,1-2.28476-.54944c-.44554-.19585-.98365-.13708-1.46222-.33414-.95145-.39176-1.95535-.63873-2.92587-.97279-1.31268-.45182-2.65744-.81774-3.9384-1.35092-.64644-.26906-1.29423-.53409-1.9407-.80245a5.19086,5.19086,0,0,1-1.02939-.69757.49556.49556,0,0,0-.30118-.11489.62227.62227,0,0,1-.14618-.13784l.00395.0032C19.42957,99.85782,19.306,99.754,19.22936,99.62966Z"/><path class="cls-5" d="M64.866,15.42343a2.39873,2.39873,0,0,1-2.20453.18883,1.02976,1.02976,0,0,1-.85438-.87224.89407.89407,0,0,1,.09989-.5648c.173-.4081.15172-.5774-.2443-.7499-.2268-.09879-.26075-.21568-.33226-.41721a11.54075,11.54075,0,0,1-.49081-2.8116c-.11457-1.21367.68914-1.712,1.86932-1.53019.53174.46822,1.17818.85075,1.33953,1.61211a1.5564,1.5564,0,0,0,.16368.571,9.25459,9.25459,0,0,1,1.03758,3.039.22575.22575,0,0,1-.15613.30989c-.34305.13974-.34122.19285-.06485.39945.40555.30317.35493.58446-.146.811a.14087.14087,0,0,1-.06284-.10519c.00121.00544-.01941-.04368-.01941-.04368l.0098.05489A.33048.33048,0,0,0,64.866,15.42343Z"/><path class="cls-1" d="M71.89082,19.74524a3.653,3.653,0,0,1-1.28345-.15328c-.509-.066-.62275-.49728-.32078-.92658a4.56964,4.56964,0,0,1,1.3971-1.12608c.78866-.50988,1.62785-.92178,2.42047-1.41325a8.605,8.605,0,0,1,2.14-.69459,3.88722,3.88722,0,0,1,1.32548-.15883,1.825,1.825,0,0,1,.64427.1616.43081.43081,0,0,1,.171.74086,9.60581,9.60581,0,0,1-2.53863,1.81919,3.90415,3.90415,0,0,0-.86475.50421,12.38167,12.38167,0,0,1-1.867,1.09766A2.06936,2.06936,0,0,1,71.89082,19.74524Z"/><path class="cls-1" d="M11.92026,26.25642a2.45769,2.45769,0,0,1,.40374.00414.34458.34458,0,0,1,.2992.38308c.002.20083-.09613.26772-.28569.28719a2.26174,2.26174,0,0,0-.44587.12743c-.09109.02932-.24275-.06721-.26511.094-.01312.09457.10849.12318.17908.17536.612.45244.71014.78529.35042,1.52087-.10392.21251.2514.2443.05017.50079a1.92706,1.92706,0,0,1-1.752.7442,2.242,2.242,0,0,0-.59988-.05179,1.16166,1.16166,0,0,1-1.15372-.74661,2.03407,2.03407,0,0,1,1.1938-2.69681A8.7608,8.7608,0,0,1,11.92026,26.25642Z"/><path class="cls-5" d="M18.97453,39.79186a1.41553,1.41553,0,0,1,1.20779.35949c.36459.37047.40454.6945-.05725.95818-.138.07882-.44058.0317-.06514.23908.329.18174.20417.3677-.00728.5647a1.06891,1.06891,0,0,1-.46061.26569,4.57445,4.57445,0,0,1-2.22977.01675.93239.93239,0,0,1-.6-.49945c-.08095-.17169-.16788-.32717.10533-.42283.10616-.03717.10338-.10688.027-.1266-.269-.06948-.2175-.221-.14491-.40884a1.01535,1.01535,0,0,1,.65464-.62938A3.24728,3.24728,0,0,1,18.97453,39.79186Z"/><path class="cls-1" d="M109.4805,27.04813c-.41291.10852-.83194-.12891-1.27933-.15331-.31834-.01737-.40225-.38961-.42168-.68395a2.04689,2.04689,0,0,1,.39762-1.17656c.205-.34788.47386.12763.63171-.0924.11974-.16692-.00364-.49578.28626-.55082a2.23892,2.23892,0,0,1,1.50188.16762.29443.29443,0,0,1,.04652.51034c-.15359.15392-.16075.265-.01547.45187a.92189.92189,0,0,1-.632,1.52406A3.98783,3.98783,0,0,1,109.4805,27.04813Z"/><path class="cls-1" d="M37.40377,12.19872a1.39009,1.39009,0,0,1-.68919,1.36826,1.69975,1.69975,0,0,1-1.87236.13164c-.21556-.13886-.21865-.20328-.22526-.41985a3.28737,3.28737,0,0,1,.36579-1.51223,2.00357,2.00357,0,0,1,2.18752-.27673A.83569.83569,0,0,1,37.40377,12.19872Z"/><path class="cls-1" d="M101.32243,66.66119a.39583.39583,0,0,1-.04352.547c-.22588.21712-.42.49514-.741.55965a3.96736,3.96736,0,0,1-2.08178-.11044c-.25-.08474-.3602-.54812-.23633-.89016a1.8753,1.8753,0,0,1,1.06357-.95543,1.71552,1.71552,0,0,1,.84063-.17333.78914.78914,0,0,1,.66061.24787c.08173.10389.1865.23835.2996.25977C101.43229,66.212,101.48051,66.37888,101.32243,66.66119Z"/><path class="cls-1" d="M92.762,20.02039a2.35173,2.35173,0,0,1-.73977-.12059c-.35823-.06165-.642-.1226-.62888-.58986.01572-.56156.09882-.74305.61346-.868a2.43019,2.43019,0,0,0,.72278-.29755,1.72494,1.72494,0,0,1,1.86081.25.4073.4073,0,0,1,.07858.5248A1.78058,1.78058,0,0,1,92.762,20.02039Z"/><path class="cls-3" d="M83.958,100.43954c-.47335-.10267-.37164-.56-.36819-.80866a17.32236,17.32236,0,0,0-.26252-2.24409,14.01688,14.01688,0,0,1-.00381-2.69014c.00237-.03056.06377-.05652.09766-.08464a4.71122,4.71122,0,0,1,.38076,1.85572,14.24077,14.24077,0,0,0,.35749,1.95947,6.4907,6.4907,0,0,1,.06446,1.606.91134.91134,0,0,1-.26653.407Z"/><path class="cls-3" d="M83.42149,94.35243c-.08466-.01476-.21431-.00606-.22622-.09651-.044-.3343-.17134-.68246.08623-.99231.079.24883.15972.49715.23642.7467C83.55867,94.14293,83.57259,94.272,83.42149,94.35243Z"/><path class="cls-2" d="M83.95734,100.44019c.00362-.1915-.04278-.41577.26653-.407.19926.0834.12376.26079.13917.40707Z"/><path class="cls-2" d="M19.39842,100.02412a.17181.17181,0,0,1,.14618.13784A.15105.15105,0,0,1,19.39842,100.02412Z"/><path class="cls-9" d="M52.30019,49.67538a4.43455,4.43455,0,0,1-.422,1.07911c-.07.057-.136.13759-.22089.15277a5.68757,5.68757,0,0,0-2.14476,1.26791,31.14394,31.14394,0,0,1-6.45411,3.34352,42.40449,42.40449,0,0,1-11.19075,2.44936c-.49347.05062-1.0136.33221-1.50307-.04014l-.01286.00374a2.47135,2.47135,0,0,1,.22516-.83577,2.1906,2.1906,0,0,0,.13845-.30618c.25136-1.49344,1.02626-2.82821,1.30286-4.316a2.87223,2.87223,0,0,1,.38466-.84782,1.59532,1.59532,0,0,0,.23849-.68723,9.616,9.616,0,0,1,.52584-1.8395c.19515-.79414.60237-1.52418.72718-2.35044a9.66354,9.66354,0,0,1,.38472-1.13732c.15712-.5506.56678-1.06957.1912-1.70214-.058-.09762-.11791-.52692.29943-.46727.273.039.24335-.43677.58814-.30889.11869.044.062-.13773-.00437-.158-.27977-.08538-.1741-.27373-.11294-.42522a1.00737,1.00737,0,0,0,.006-.90247c-.0432-.08323-.145-.40017.21289-.18145.09695.05925.17363-.20685.17889-.3685.02172-.66691.16233-.866.77983-.75a20.27119,20.27119,0,0,0,2.55369-.01773,3.08763,3.08763,0,0,0,.58642-.11064,14.01046,14.01046,0,0,0,2.365-.74489c.31439-.09463.44554-.616.69838-.58923a1.25176,1.25176,0,0,0,.85956-.26294c.954-.60773,1.92912-1.19449,2.81722-1.89014a21.78668,21.78668,0,0,1,2.559-1.82181c.23457-.13442.2673-.45376.59578-.49584a1.78418,1.78418,0,0,0,.79052-.34258c1.0058-.76424,2.2411-.81391,3.37784-1.15666.43951-.13252.93033-.00893,1.39356-.15844a10.296,10.296,0,0,1,2.02725-.14251,1.236,1.236,0,0,1,.33753.00623c.58706.09525.65491.18713.35058.706-.183.312-.13338.65154-.25583.96665-.22165.57036-.24268.60569-.84437.50436-.0615-.01036-.16357-.01133-.18627.02319-.06581.10005.03616.14917.104.1932a1.03658,1.03658,0,0,0,.239.12328c.30967.09988.35435.25955.199.55159a11.30413,11.30413,0,0,0-.926,2.7024c-.05161.21408-.25219.4102-.253.61513a3.33788,3.33788,0,0,1-.523,1.46437,7.66281,7.66281,0,0,0-.42934,1.53766c-.12047.49337-.41151.92133-.49363,1.43681-.04724.29648-.27377.54614-.088.88911.08117.14985-.0642.34881-.22112.44841a.99481.99481,0,0,0-.42112.862,2.85385,2.85385,0,0,1-.37964,1.27034c-.09321.15276-.15149.32641-.23779.48391-.18921.34527.1579.75248-.24166,1.13981A2.28221,2.28221,0,0,0,52.30019,49.67538Z"/><path class="cls-9" d="M86.52679,59.15033l-.01013.67755c-.55193.90593-.97184,1.88014-1.44469,2.82629a19.3043,19.3043,0,0,1-1.85083,2.82029,3.19182,3.19182,0,0,0-.76762,1.33352c-.05414.32009-.361.37006-.6102.46782-1.14632.17984-1.52665,1.00427-1.69016,2.011a43.06255,43.06255,0,0,1-2.94391,3.23439c-1.47157,1.54571-2.98517,3.05574-4.52226,4.53842-.352.33951-.60755.84419-1.18258.90667-.48113-.24887-.46277-.782-.67783-1.18309-.421-.78512-.48338-1.69459-.87983-2.4859a.428.428,0,0,1-.04533-.388,1.30034,1.30034,0,0,0-.02758-1.10449c-.19282-.6141-.10225-1.26811-.26995-1.87629-.27956-1.01382-.16771-2.08666-.50581-3.09a1.92128,1.92128,0,0,1-.02733-.60448c.00141-.24365-.03542-.44453-.328-.50364-.26787-.05412-.1244-.18141-.00958-.236a.4074.4074,0,0,0,.172-.58138,5.69429,5.69429,0,0,1-.3166-1.59107c-.13819-1.07268-.35044-2.13964-.53793-3.207a8.06851,8.06851,0,0,0-.10176-1.47179,14.9958,14.9958,0,0,0-.52952-1.98577c-.09949-.1892.10569-.48286.04844-.78206a6.74831,6.74831,0,0,1-.29615-2.31465c.00336-.02186.00779-.05642-.00385-.06587-.61005-.49593-.14988-1.20145-.34432-1.79448a6.62075,6.62075,0,0,1-.26216-1.84312,4.69169,4.69169,0,0,0-.42225-1.91057.4239.4239,0,0,1-.04138-.25991,6.93742,6.93742,0,0,0-.20778-2.2606c-.00785-.10956-.06647-.21746-.06421-.32534.00467-.22245-.1049-.50608.05259-.6484.11089-.1002.36878.03472.549.12141a.29343.29343,0,0,0,.31838-.03181c.06947-.054.13784-.11852.1141-.223a.14337.14337,0,0,0-.14868-.10776c-.20269-.00841-.40591-.00371-.60863-.01148a.74869.74869,0,0,1-.62294-.84357c.03194-.10567.13711-.08469.2126-.11858.20038-.09.395-.19283.58383-.28658-.03391-.12136-.10416-.10075-.16053-.10168-.72073-.012-.8188-.0828-.82791-.79079a7.21017,7.21017,0,0,0-.21886-1.38382c-.02741-.13173-.028-.22738.11506-.24936a1.906,1.906,0,0,1,.84588-.0827c.44651.16629.86981-.02456,1.303.0091a4.91286,4.91286,0,0,1,.76052.0612c1.0675.25228,2.16876.34889,3.21806.67809.51984.1631,1.02112.38529,1.53118.57975a2.59606,2.59606,0,0,0,.313.10976,8.82334,8.82334,0,0,1,2.65316,1.33182,10.566,10.566,0,0,1,2.403,2.26364,16.884,16.884,0,0,0,1.54493,1.74485c.32662.30011.537.71665.88444,1.00888.61667.5187,1.21826,1.05627,1.85022,1.55548a2.79215,2.79215,0,0,0,1.124.421c.52363.12352,1.01274.35615,1.5386.45063.23707.04259.30129.14583.29422.355a2.59145,2.59145,0,0,0,.2734,1.27c.09208.1825-.269.28137-.039.49607.25989.24259.26182.48707.09188.87231a1.689,1.689,0,0,0,.17813,1.26361c.028.05945.064.15184.10966.16077.60059.11758.36176.41338.162.711-.23115.34442.00589.73041-.09,1.09633-.07355.28069.27214.44874.2988.691C86.45776,58.69982,86.29512,58.9474,86.52679,59.15033Z"/><path class="cls-10" d="M71.50441,77.96625a35.69843,35.69843,0,0,0,3.01065-3.03389,7.48041,7.48041,0,0,1,.65147-.56509c.49764-.474.92585-1.01485,1.45567-1.46066.70427-.59261,1.18916-1.39779,1.87308-2.01017.56055-.5019.9527-1.16115,1.55539-1.61937.22157-.10909.31413.074.45055.18561a2.27674,2.27674,0,0,0,2.62884.24625,1.32894,1.32894,0,0,0,.65836-1.61174c-.15047-.54234-.53924-.75267-1.34321-.75639-.23167-.00107-.54493.20338-.65854-.20253a.72989.72989,0,0,0,.5877-.72866c.02782-.32314.364-.638.60412-.92139a18.324,18.324,0,0,0,2.50187-4.04986c.18953-.39835.35813-.8117.57051-1.20138.1061-.19465.17188-.43039.46579-.4091.19253,1.109.28344,2.23174.44827,3.34523.12669.85584.31149,1.70245.39014,2.56838a12.84787,12.84787,0,0,0,.44034,2.83128,7.3215,7.3215,0,0,1,.22224,1.76635,16.20718,16.20718,0,0,1,.12116,1.76337,13.8436,13.8436,0,0,1-.12518,2.17384c-.12279.67974-.20216,1.38648-.26286,2.085a1.53275,1.53275,0,0,1-.12661.51586,17.68746,17.68746,0,0,1-1.10555,2.46017c-.08947.13673-.14886.22879-.35907.21269-.451-.03454-.6598.16568-.54653.5605a.7351.7351,0,0,1-.22052.75884,11.84259,11.84259,0,0,1-1.48827,1.32345,6.33327,6.33327,0,0,1-1.554.901,1.85616,1.85616,0,0,1-1.25342.133,9.23765,9.23765,0,0,0-2.01024-.11378,7.22681,7.22681,0,0,1-2.5862-.525c-.44785-.18112-.96149-.21421-1.28415-.64177-.69612.1113-.92243-.50153-1.275-.87226a9.76815,9.76815,0,0,1-1.94536-2.22552c-.11277-.22618-.40507-.3433-.4939-.61107Z"/><path class="cls-10" d="M30.36466,57.92791c.7608.016,1.50248-.19381,2.25151-.22346.83123-.03291,1.6262-.24823,2.44529-.33073a16.254,16.254,0,0,0,2.68411-.457c.81334-.22412,1.65528-.31793,2.45622-.59649.2323-.0808.44795-.201.68112-.26569,1.30287-.36148,2.52993-.93317,3.80866-1.36065a1.26819,1.26819,0,0,0,.37329-.13821c.63683-.49005,1.46217-.64886,2.07016-1.17666a1.61184,1.61184,0,0,1,.664-.29648,5.49206,5.49206,0,0,0,1.28154-.831,6.91146,6.91146,0,0,1,.88981-.55663c.233-.09722.5105-.23964.32557-.60494-.04394-.0868.02845-.21311.12342-.1621.42519.2284.76321.00144,1.12425-.16454a.8857.8857,0,0,1,.33463-.00886c-.28282,1.25888-.78447,2.449-1.15245,3.68075a12.71029,12.71029,0,0,1-.56706,1.66127.62846.62846,0,0,0-.03783.26343c.00462.28477.25872.66253-.29182.73209-.04015.00507-.088.10488-.0984.16638a13.72505,13.72505,0,0,1-.84684,2.80054c-.41257,1.02928-.55836,2.14215-1.0586,3.13653-.04033.08017-.126.181-.10463.24214.27385.78224-.42653,1.24384-.64064,1.85692a8.52419,8.52419,0,0,1-1.10976,1.87187,9.55733,9.55733,0,0,1-2.20417,2.268,5.51283,5.51283,0,0,1-1.42824.95417c-.06072.0208-.15719.05067-.16618.09183-.10961.50186-.40857.52765-.80622.34182a.13749.13749,0,0,0-.125.02018c-.44868.46943-1.08962.35456-1.63492.50729a4.59526,4.59526,0,0,1-1.54992.08965c-.91917-.0682-1.8305-.21185-2.75346-.27839a3.19272,3.19272,0,0,1-2.40664-1.24652c-.32211-.42674-.77306-.7308-1.08975-1.17468-.16786-.23527-.32572-.47349-.47081-.72167a.61975.61975,0,0,1-.03649-.75014c.244-.32983.04046-.5404-.25124-.58248-.5372-.07748-.57681-.44514-.71663-.86324A10.7756,10.7756,0,0,1,29.8093,61.941c.01543-.40305.06759-.80809.0646-1.21551a3.99148,3.99148,0,0,1,.14647-1.3139,6.28,6.28,0,0,0,.25494-1.30352A.61146.61146,0,0,1,30.36466,57.92791Z"/><path class="cls-11" d="M88.43872,79.05708a1.25774,1.25774,0,0,1-.37019.98648,10.11,10.11,0,0,1-2.332,2.72405.74848.74848,0,0,1,.20985-.61629,32.60643,32.60643,0,0,0,2.14252-2.84982C88.17355,79.16642,88.23734,79.01776,88.43872,79.05708Z"/><path class="cls-11" d="M85.0682,83.39057a.24975.24975,0,0,1-.29265.28035C84.75652,83.45571,84.8571,83.36543,85.0682,83.39057Z"/><path class="cls-11" d="M84.66676,83.79859a.29544.29544,0,0,1-.27707.16911C84.39439,83.76766,84.53742,83.79434,84.66676,83.79859Z"/><path class="cls-11" d="M88.56429,78.7795c-.01122.10943.02131.23922-.13153.28274C88.42454,78.94376,88.4158,78.825,88.56429,78.7795Z"/><path class="cls-11" d="M85.69246,82.84462c.00514.07825-.04846.1097-.10839.13612A.15017.15017,0,0,1,85.69246,82.84462Z"/><path class="cls-11" d="M85.58668,82.977c-.0108.081-.04834.131-.13871.12A.1483.1483,0,0,1,85.58668,82.977Z"/><path class="cls-11" d="M84.39772,83.95334c-.02617.08366-.10189.08393-.16823.1A.13544.13544,0,0,1,84.39772,83.95334Z"/><path class="cls-12" d="M64.74137,15.1425c.13045.04448.14487.1506.14138.26623l-.01676.0147c-.129-.04885-.1404-.1558-.134-.27152Z"/><path class="cls-12" d="M64.732,15.15191l-.09228-.06116c.08774-.08861.07779.01479.10165.05175Z"/><path class="cls-13" d="M46.17754,51.56758c-1.1601-.0047-1.50652-.27465-1.6721-.91464a.64852.64852,0,0,1,.13068-.55323c.18283-.30034.46689-.542.49094-.92943a.202.202,0,0,1,.112-.14861,3.43523,3.43523,0,0,1,2.11777-.25954,1.22109,1.22109,0,0,1,.62536,1.75429A2.08042,2.08042,0,0,1,46.17754,51.56758Z"/><path class="cls-13" d="M43.28681,43.04084c.343-.05092.64514.15441.98851.15053a.42771.42771,0,0,1,.40533.39088.88884.88884,0,0,1-.40672.78989,2.04675,2.04675,0,0,1-1.66009.09789.59853.59853,0,0,1-.26777-1.01551A1.00716,1.00716,0,0,1,43.28681,43.04084Z"/><path class="cls-13" d="M49.54919,38.19409a2.9575,2.9575,0,0,0,.83152.12354c.06531-.00046.13135.10431.08673.13836-.37358.28511.03879.42848.111.6258.042.11492.08478.21142-.04156.28347a1.95054,1.95054,0,0,1-2.06882.20015c-.08757-.05834-.23331-.08668-.19691-.22751.02331-.09018.14678-.07411.227-.1047.22683-.08648.5173-.16272.14823-.45277-.09626-.07565-.15694-.19759-.01415-.26242C48.88842,38.4017,49.066,38.10937,49.54919,38.19409Z"/><path class="cls-14" d="M76.82257,55.62656c-.5247-.226-1.084-.18519-1.56581-.4265a1.57817,1.57817,0,0,1-.683-1.784,2.60321,2.60321,0,0,1,1.91742-1.774,2.34672,2.34672,0,0,1,2.3949,1.08159,2.56146,2.56146,0,0,1-.01813,1.69192,1.87345,1.87345,0,0,1-1.42413,1.06273C77.23084,55.53156,76.9891,55.44588,76.82257,55.62656Z"/><path class="cls-14" d="M81.78667,67.13827c.04636.08473.12959.16662.21148.12077.41642-.23317.82012-.03049,1.23223-.00127a.81954.81954,0,0,1,.6424.43028,1.53987,1.53987,0,0,1-.27739,1.89086,1.94154,1.94154,0,0,1-2.28359.437.21683.21683,0,0,0-.12761-.0308.73833.73833,0,0,1-.90615-.58781c-.03106-.09308-.14174-.09747-.22737-.12022A1.95174,1.95174,0,0,1,81.78667,67.13827Z"/><path class="cls-13" d="M74.619,65.91876a1.35923,1.35923,0,0,1-1.27548,1.49971A1.81787,1.81787,0,0,1,72.309,67.432c-.6251-.21169-.83047-.494-.64109-1.13432a8.35034,8.35034,0,0,1,.32287-.80372c.017-.04114.03625-.10414.06727-.11323a9.52378,9.52378,0,0,1,1.291-.50046,1.29188,1.29188,0,0,1,1.12266.42A.90368.90368,0,0,1,74.619,65.91876Z"/><path class="cls-13" d="M70.082,47.77238c-.30282.07713-.57557-.14751-.89007-.15774-.12659-.00412-.16584-.12424-.19175-.285-.10932-.67838.50844-1.42247,1.16588-1.27019.34087.07894.76766-.01152,1.02973.376a.8048.8048,0,0,1,.17177.55162c-.004.04365-.00115.10728-.02727.12637-.15795.11542-.46188-.04944-.48262.37619C70.8468,47.71325,70.41049,47.80014,70.082,47.77238Z"/><path class="cls-14" d="M76.84545,74.73712a3.06658,3.06658,0,0,1,2.07178.75757.78415.78415,0,0,1,.31023.6077c.03646.45841.25489.90884-.00285,1.37118a2.33412,2.33412,0,0,1-1.93583,1.42678,6.898,6.898,0,0,1-1.09672.07706,2.58839,2.58839,0,0,1-1.77818-1.17551,1.06736,1.06736,0,0,1-.20881-.55646,2.162,2.162,0,0,1,1.83648-2.41C76.34465,74.81269,76.63565,74.62493,76.84545,74.73712Z"/><path class="cls-14" d="M38.453,69.4086a2.98368,2.98368,0,0,1-1.6764-.65611A1.23626,1.23626,0,0,1,36.51,67.44121a2.163,2.163,0,0,1,2.05009-1.53345c.34228-.02229.6297.31349.87768.2153s.48481-.3312.76138-.32532a4.26808,4.26808,0,0,1,1.10791.19069,1.007,1.007,0,0,1,.53217,1.17,2.64971,2.64971,0,0,1-1.4047,1.7701A3.52722,3.52722,0,0,1,38.453,69.4086Z"/><path class="cls-14" d="M34.55907,62.1103a1.16915,1.16915,0,0,1-1.09951-.60545,1.62862,1.62862,0,0,1-.10664-.16906,1.91538,1.91538,0,0,1,1.433-2.05082,4.46854,4.46854,0,0,0,1.05724-.1207,2.07809,2.07809,0,0,1,1.56366.41119c.28707.14777.26626.67928.03066,1.07955A3.472,3.472,0,0,1,34.55907,62.1103Z"/><path class="cls-9" d="M76.3827,53.83537c-.09351-.35983.14481-.65346.29287-.97068.08369-.17932.20361-.22629.33917-.03112a1.366,1.366,0,0,1-.09178,1.49386c-.0852.0953-.17206.23491-.32566.18206a.32759.32759,0,0,1-.21356-.31106C76.37849,54.08727,76.3827,53.97566,76.3827,53.83537Z"/><path class="cls-10" d="M77.58679,76.81125a1.3469,1.3469,0,0,1-.78662,1.34211c-.18272.09776-.32533.135-.435-.0937a9.38186,9.38186,0,0,1-.499-1.01912,1.19764,1.19764,0,0,1,.97461-1.376c.352.01787.63162.3163.74256.81235A1.56676,1.56676,0,0,1,77.58679,76.81125Z"/><path class="cls-10" d="M39.47377,66.324c.58819.00595.78792.21411.76453.73676a1.8333,1.8333,0,0,1-1.31806,1.67785c-.70184.19028-1.0703-.30946-1.10669-.87924a1.10949,1.10949,0,0,1,.55571-1.101C38.73442,66.54634,39.06817,66.266,39.47377,66.324Z"/><path class="cls-10" d="M35.13925,61.42018c-.10424.00074-.138-.06063-.17978-.15217a1.2723,1.2723,0,0,1,.76443-1.55527c.21308-.0365.57686.40641.52742.64217A2.0834,2.0834,0,0,1,35.13925,61.42018Z"/></svg>