<svg width="120px" height="120px" viewBox="0 0 120 120" xmlns="http://www.w3.org/2000/svg"><defs><style>.cls-1{fill:#2b3c58;}.cls-2{fill:#784848;}.cls-3{fill:#fff;}.cls-4{fill:#cbe6f8;}.cls-5{fill:#f05e7e;}.cls-6{fill:#aad8f4;}.cls-7{fill:#015da5;}.cls-8{fill:#273980;}.cls-9{fill:#2b3c59;}.cls-10{fill:#a9d8f4;}.cls-11{fill:#b0c8e1;}.cls-12{fill:#fffefe;}.cls-13{fill:#bba2a1;}</style></defs><title>hs-huzzah-12</title><g id="Layer_2" data-name="Layer 2"><path class="cls-1" d="M88,104c2.51.2,5.06,0,7.5.79a2.82,2.82,0,0,1,2.12,1.83c.11.47-.39,1.16-.94,1.53a21.46,21.46,0,0,1-6.21,2.59c-2.33.65-4.62,1.48-7,2-4.87,1-9.78,1.76-14.67,2.64-1.53.28-3,.71-4.59.9-3.89.46-7.73,1.23-11.65,1.59-3.59.33-7.17.85-10.76,1.17-2.59.23-5.2.16-7.8.25-.21,0-.49-.16-.66.12h-.13a1.41,1.41,0,0,0-.95,0h-.13c-1.59-.13-3.17-.33-4.76-.39a33.05,33.05,0,0,1-12.22-2.41,20.78,20.78,0,0,1-4.67-2.75c-1.43-1.13-.57-3.32,1.39-4.21a35.27,35.27,0,0,1,8.93-2.36c3.87-.67,7.78-1.14,11.68-1.63,1.78-.22,3.58-.28,5.37-.43a3.92,3.92,0,0,0,.81-.23c-.19-.07-.44-.08-.55-.22-.78-.91-1.9-1.47-2.56-2.51a19,19,0,0,1-2.82-5.47c-.17-.69-.08-.9.38-.88a.83.83,0,0,1,.49.43A24.51,24.51,0,0,0,37.93,102c.61.55,1.27,1.06,1.92,1.55,1.22.92,2.4,1.89,3.71,2.69a26,26,0,0,0,3.31,1.93,27.29,27.29,0,0,0,8.81,2.33c2.12.15,4.25.3,6.37.49a40.64,40.64,0,0,0,5-.16,48.36,48.36,0,0,1,5-.3,1.22,1.22,0,0,0,.33,0,42.26,42.26,0,0,0,6.17-1.67c.51-.2,1-.26,1.56-.44a52.73,52.73,0,0,0,5.08-2.45,12.28,12.28,0,0,0,2.1-1.58C87.51,104.17,87.69,104,88,104Z"/><path class="cls-2" d="M110.67,43.67a23.19,23.19,0,0,1-6.15.65c-1.9.09-3.84-.2-5.71,0-1.06.14-2,1.05-3,1.59-1.2.64-2.41,1.25-3.63,1.86a51.9,51.9,0,0,0-5.64,3.26c-.2.36-.59.47-.92.65A23.51,23.51,0,0,1,83.21,53a3.05,3.05,0,0,1-1.84.14c-.36-.07-.66-.21-.72-.6s.24-.5.5-.63c.67-.32,1.27-.76,1.91-1.14a5.7,5.7,0,0,1,.76-.43c.37-.16.83-.12,1.05-.59.06-.13.27-.12.43,0,3.83-2.11,7.69-4.16,11.46-6.38.86-.51.67-1.87,1.06-2.81.73-1.74,1.3-3.55,2.05-5.28a1.32,1.32,0,0,1,1.94-.52c.66.33.07.82-.08,1.22-.64,1.73-1.3,3.46-1.94,5.19a1.64,1.64,0,0,0,0,.45l.37-.24c1.79-1.16,3.57-2.33,5.38-3.46a2.4,2.4,0,0,1,2.21-.1c.2.08,0,.65-.34.86l-6.21,4-.53.37c.21,0,.42.08.62.08a49.89,49.89,0,0,0,7.73-.3c.76-.11,1,1,1.69.57Z"/><path class="cls-3" d="M32.27,119.37a.72.72,0,0,1,.95,0Z"/><path class="cls-4" d="M88,104a23.9,23.9,0,0,1-5.48,3.48,34.61,34.61,0,0,1-9.35,3c-2.29.41-4.66.4-7,.58a59.05,59.05,0,0,1-13.86-.85,20,20,0,0,1-6.5-2.26,54.82,54.82,0,0,1-7.47-5.36,27.56,27.56,0,0,1-4.17-4.88,15.77,15.77,0,0,1-1.06-1.78,17,17,0,0,1-.08-10s.11-.06.16-.09a2.24,2.24,0,0,1,.59-.64,25,25,0,0,1,6.82-3.74,26.5,26.5,0,0,1,4.68-.9c3.26-.37,6.52-.71,9.77-1.08,2-.23,4.07-.29,6.11-.44A41.61,41.61,0,0,0,70,77.17a54.17,54.17,0,0,0,5.34-1.83,35.71,35.71,0,0,0,5.94-2.87,24.05,24.05,0,0,0,3.41-2.27c.31-.29.56-.64.9-.9,1.53.8,3.38,1.39,4.2,2.88.36.67,1.86.51,1.25,1.72l.41.17c.2.08.45.11.42.42s-.3.17-.47.22l-.33.13c.07,0,.13.13.2.13,1.64,0,1.71,1.54,2.34,2.48,2,3,2.43,6.44,2.65,9.88a15.92,15.92,0,0,1-.9,6.26,24.49,24.49,0,0,1-4.71,8A32.53,32.53,0,0,1,88,104Z"/><path class="cls-4" d="M85.3,49.72l-4.36,2.5c-.17.09-.18.21-.12.39s.38.32.63.37c1.55.33,2.64-.71,3.88-1.32l1.17-.58c.69,1.61,1.8,3,2,4.84.06.53.29,1-.49,1.22a1.06,1.06,0,0,0-.19.06s.09.11.14.11c1.25,0,.69,1.17.6,1.46-.72,2.56-1.55,5.11-3.59,7-.68.63-1.11,1.49-1.94,2-.45.27.36.21.21.47a2.35,2.35,0,0,1-1.52.76c-1.4.33-2.72.91-4.1,1.3-2,.57-4,1.15-6,1.76s-4.3.64-6.39,1.27a.54.54,0,0,1-.62-.14c-.12-.16.14-.5-.32-.51A28.62,28.62,0,0,1,58.12,72c-2.42-.6-5-.79-7.21-2A41.41,41.41,0,0,1,45,66c-.83-.68-1.56-1.48-2.42-2.12a1.8,1.8,0,0,1-.82-1.47,10.94,10.94,0,0,1-.54-4.88,19.44,19.44,0,0,1,3.28-2.1,37.09,37.09,0,0,1,7.09-2.91,24.39,24.39,0,0,1,3.61-.45c1.36-.19,2.73-.07,4.09-.21a13.24,13.24,0,0,0,1.54-.2c1.22,0,2.4.39,3.62.44.37,0,.52.23.35.6a1.88,1.88,0,0,0,0,1.38,3.49,3.49,0,0,1,.06,1.07,1.61,1.61,0,0,0,.12.92,2.22,2.22,0,0,1,.29,1.5,4.21,4.21,0,0,0,.61,2.64,15,15,0,0,0,1.71,2.56,4,4,0,0,0,3.36,1.51,3.75,3.75,0,0,0,1.73-.08c.11,0,.25,0,.27-.17s-.15-.12-.23-.16a6.64,6.64,0,0,1-3-3.06c-.21-.43,0-.73.37-.94s.61,0,.78.36A8.1,8.1,0,0,0,73.12,63a3.05,3.05,0,0,0,2.61.58c.13,0,.28-.05.31-.21s-.14-.2-.26-.27a8.63,8.63,0,0,1-3.31-3.44c-.14-.26-.25-.49.07-.69s.61-.24.83.1a16.13,16.13,0,0,0,.94,1.39,4.65,4.65,0,0,0,4,1.65c.19,0,.46,0,.47-.29s-.25-.23-.42-.27c-1.1-.3-1.68-1.24-2.39-2-.34-.36-.6-.78-.92-1.16s-.52-.55-.17-.88.66,0,.89.24a7,7,0,0,0,2.18,2,4.23,4.23,0,0,0,1.94.46,1,1,0,0,0,.62-.22c.19-.15.26-.29,0-.37-1.39-.41-2.09-1.57-2.91-2.6-.44-.56-.84-1.16-1.28-1.72a10,10,0,0,1-.7-1.43c-.29-.55-.61-1.1-.85-1.68s-.12-.68.47-.74a5.69,5.69,0,0,0,2.52-1.21,9.83,9.83,0,0,0,3.17-3.43c.1-.17.19-.37.46-.32A18.64,18.64,0,0,1,85.3,49.72Z"/><path class="cls-5" d="M64.37,52.32l-3.5-.5c-.41,0-.85.08-1.21-.23-.3-.64-.92-.78-1.52-1a21.52,21.52,0,0,1-6.79-3.43c-.64-.52-1.4-.88-2.07-1.36a4.5,4.5,0,0,1-1.65-1.73c0-.08,0,0,0-.06s.06-.11.07,0c-.24-1.08-.6-2.12.75-2.88.32-.17.15-1.15.29-1.74.41-1.68,1.64-1.88,3.36-1.76.75.45,1.33,1.1,2.08,1.56a16.07,16.07,0,0,0,4.57,2.11,31.9,31.9,0,0,0,4.26.61,1.16,1.16,0,0,0,.7-.21,7,7,0,0,1,4.23-.83,2.75,2.75,0,0,1,2.4,1.36c.08.16.25.26.37.39a6.26,6.26,0,0,1,1.11,1.82c.7,1.62,1.07,3.34,1.81,4.93a1.54,1.54,0,0,0,.58.85,1.75,1.75,0,0,0-.2-1,15.7,15.7,0,0,1-.77-2.65,2.29,2.29,0,0,0-.43-1.06,1.07,1.07,0,0,1-.2-.62,3.16,3.16,0,0,0-1.42-2.49c-.14-.09-.36-.16-.3-.38s.25-.25.42-.29a12.33,12.33,0,0,1,1.33-.23,34.3,34.3,0,0,0,3.71-1,3,3,0,0,0,.84-.41,1.36,1.36,0,0,1,1.91.36,5.75,5.75,0,0,1,2.76,3.39,5.49,5.49,0,0,1-.48,2.56,11.49,11.49,0,0,1-5.51,5c-1.1.49-1.1.64,0,2.49a25.26,25.26,0,0,0,2.85,4.08,3.19,3.19,0,0,0,1.61,1.25,1.31,1.31,0,0,1,.92.56,3.45,3.45,0,0,1-1.06.48c-2.09.18-3.44-1-4.59-2.56-.16-.22-.31-.4-.58-.23s0,.46.11.55C76.28,59.38,77,61.2,79,61.52c.09,0,.17.17.25.26-.19.16-.35.41-.57.48-1.74.52-4.35-.85-5.2-2.69-.14-.31-.17-.84-.73-.52s0,.51.12.76A6.4,6.4,0,0,0,76.15,63c.16.07.25.33.37.49a1.88,1.88,0,0,1-.5.27c-2,.52-3.51-.64-4.89-2.57-.29-.41-.67-1.19-.87-1.15-1.29.29-.33,1.08-.09,1.42A4.63,4.63,0,0,0,73,63.71c.1,0,.27.16.26.24s-.12.33-.21.35c-.74.12-1.47.52-2.24.13A3.59,3.59,0,0,1,69,63.28a11.47,11.47,0,0,1-2.81-5.78,64,64,0,0,1-.62-7,44.54,44.54,0,0,1-.25-4.9,5.77,5.77,0,0,0-.63-2.11.67.67,0,0,0-.27-.31,1,1,0,0,0-.54-.22c.09.15.25.23.34.37a1.3,1.3,0,0,1,.25.62,19.28,19.28,0,0,1,.13,3.87,24.05,24.05,0,0,0,0,3.5C64.56,51.65,64.69,52,64.37,52.32Z"/><path class="cls-4" d="M79.1,40.55c-1.26-1-2.25.19-3.33.44a27.12,27.12,0,0,1-4.27.94,2.19,2.19,0,0,0-.55.17,2.84,2.84,0,0,1,.46.24,4.05,4.05,0,0,1,1.46,2.49c.37,1.38.78,2.74,1.19,4.1.15.49.37,1,.53,1.45,0,.08-.06.27-.13.29-.29.08-.45-.11-.58-.34a38.2,38.2,0,0,1-1.82-4.69c-.49-1.18-.77-2.44-2-3.25-2.63-1.69-3.4-1.74-6.54-.29-.61.27-1.52-.13-2.29-.18a15,15,0,0,1-8.5-3.57,5.78,5.78,0,0,1-.61-.69c-.41-.73-.87-1.43-1.22-2.19a9.26,9.26,0,0,1-.3-7.93c.14-.32.68-.27.58-.73.22-.21.47-.12.69,0a16.53,16.53,0,0,0,3.7.48,1.19,1.19,0,0,0,1-.24.32.32,0,0,1,.42-.05c.23.86.37.91,1.13.41a1.14,1.14,0,0,1,.49-.19c.87-.09,1.75-.05,2.62-.08.26.08.27.32.31.53s.14.53.48.54a.63.63,0,0,0,.71-.46,1.22,1.22,0,0,1,.21-.48A2,2,0,0,1,64,26.79c2-.41,4.08-.19,6.06-.72a18.71,18.71,0,0,1,3.85-.49,17.91,17.91,0,0,1,3.35.15,1.48,1.48,0,0,0,.47,0,14.43,14.43,0,0,1,3.06,1.07.28.28,0,0,1,.18.26c.43.87.85,1.74,1.29,2.6.12.23.09.34-.13.48s-.23.28-.2.37.39.06.41.07A1.74,1.74,0,0,1,83,32.14a10.69,10.69,0,0,1-1.41,5.48A9.89,9.89,0,0,1,79.1,40.55Z"/><path class="cls-6" d="M64.64,73.08c1.19-.18,2.39-.34,3.58-.54A86.17,86.17,0,0,0,80.83,69c.81-.27,1.63-.54,2.45-.77l2.3,1.08c-.63,1.47-2.07,2-3.27,2.82a42.05,42.05,0,0,1-9.75,4.5,38.1,38.1,0,0,1-8.14,2.12c-4.77.51-9.57.81-14.33,1.4-3.29.41-6.64.5-9.83,1.58a27.5,27.5,0,0,0-6.44,3.65c-.2.14-.41.27-.62.4a24.37,24.37,0,0,1,2.74-6.68,23.42,23.42,0,0,1,4.7-5.79,19.44,19.44,0,0,1,5.47-3.86,1.81,1.81,0,0,0,.34-.28c.19-.12.35,0,.51.06,1.2.75,2.5,1.29,3.76,1.92a1.72,1.72,0,0,0,1.29.25.69.69,0,0,1,.73.25,1.35,1.35,0,0,0,1,.44c1.58.2,3.12.66,4.7.83a16.71,16.71,0,0,0,5.42.09C64.13,72.94,64.41,72.85,64.64,73.08Z"/><path class="cls-7" d="M70.63,5.08a8.78,8.78,0,0,1,.83-1.93c.48-.64,1.39-.54,2.08-.55a16.72,16.72,0,0,1,7,1.08C83.44,5,86.26,6.34,88.25,9c.37.48.86.9,1.24,1.4,1.31,1.69.24,2.77-.82,4a40.41,40.41,0,0,0-5.12,7.32c-.34.26-.65,0-1-.07a17.76,17.76,0,0,1-2.16-1.24,13.49,13.49,0,0,1-5.6-6,24.4,24.4,0,0,1-1.32-3.74A17.05,17.05,0,0,0,72,6.47c-.22-.35-.4-.71-.87-.77S70.72,5.37,70.63,5.08Z"/><path class="cls-7" d="M81,27.05l-3.25-1.17A13.38,13.38,0,0,1,74,24.64c-2-.8-4-1.64-6-2.6a44.71,44.71,0,0,1-4.27-2.26.9.9,0,0,1-.44-.4c-1.24-.8-2.51-1.55-3.72-2.4A4.36,4.36,0,0,1,58,14.87a.53.53,0,0,1,.39-.7A4.07,4.07,0,0,1,59.71,14c2.07,0,3.72,1.47,5.73,1.72a2.24,2.24,0,0,1,1.3.24c1.23.39,2.32,1.1,3.51,1.57,1.64.63,3.16,1.51,4.76,2.22.18.08.39.13.49.33.58,1.39,2,1.48,3.13,2,2.79,1.24,5.79,2,8.2,4.07a5.35,5.35,0,0,1,1.37,1.78c.3.64,0,.94-.77.95C85.09,28.89,83.11,27.74,81,27.05Z"/><path class="cls-6" d="M63.31,19.38c2,1,3.89,2.13,5.9,3,2.67,1.18,5.41,2.2,8.11,3.29l.42.18c-1.49,0-3,0-4.48,0-2.16,0-4.21.82-6.36.82a12.46,12.46,0,0,0-4,.65c-.32-.07-.33-.34-.35-.58a1.82,1.82,0,0,0-2.46-1.64,3.77,3.77,0,0,0-2.28,1.41c-.2.27-.44.58-.86.54-2,.8-3.9.18-5.82-.27a7.23,7.23,0,0,1,2.51-3.37A20.24,20.24,0,0,1,63.31,19.38Z"/><path class="cls-8" d="M75.5,20.08c-2.21-1-4.41-2-6.63-2.94-1.13-.49-2.28-.95-3.43-1.42a68.16,68.16,0,0,1,3.08-6.38c.84-1.38,1.27-2.91,2.11-4.26,1.78.77,2.21,2.42,2.66,4.06.77,2.81,1.54,5.65,3.47,7.92a15.43,15.43,0,0,0,6.79,4.62c-.27.63-1.27.59-2.38,0A27.61,27.61,0,0,0,76,19.87C75.66,19.75,75.73,20.19,75.5,20.08Z"/><path class="cls-2" d="M44.44,49.57c-2.65-2.8-5.29-5.62-8-8.39q-2.44-2.55-5-5c-.25-.23-.88,0-1.32-.11-2.38-.47-4.43-1.8-6.7-2.57a2.8,2.8,0,0,0-.89-.17.47.47,0,0,1-.52-.31c-.1-.32.24-.29.39-.43,2.2-2.08,4,.08,5.89.62a6.73,6.73,0,0,0,1.55.52c-.25-.38-.47-.78-.74-1.15a51.58,51.58,0,0,0-3.46-4.95c-.1-.11-.31-.2-.14-.49a1.79,1.79,0,0,1,1.35-1c.27,0,.3.41.41.5a8.92,8.92,0,0,1,1.63,2c.57.93,1.19,1.83,1.8,2.74a3.25,3.25,0,0,0,.5.48,3,3,0,0,0,0-.6c-.09-1.21-.23-2.41-.29-3.61A19.58,19.58,0,0,1,31,25.16,1.2,1.2,0,0,1,32.2,24c.73,0,.3.78.32,1,.19,3.24.92,6.46.66,9.73a1.15,1.15,0,0,0,.44,1c3.08,2.89,5.84,6.08,8.7,9.18,1,1.11,2.16,2.13,3.24,3.19a.44.44,0,0,1,.06.59,6,6,0,0,1-.65.91C44.79,49.85,44.57,49.94,44.44,49.57Z"/><path class="cls-6" d="M44.44,49.57a1.49,1.49,0,0,0,1.12-1.43l3-2.18c.27-.16.42.06.57.2A20.67,20.67,0,0,0,54.68,50,22.11,22.11,0,0,0,57,51.06a5.21,5.21,0,0,0,2.67.42l1.21.34a17.39,17.39,0,0,1-4.38.39,23,23,0,0,0-7.85,1.56,47.37,47.37,0,0,0-6.09,3c-.44.27-.78.75-1.38.76A10.79,10.79,0,0,1,44.44,49.57Z"/><path class="cls-9" d="M64.64,73.08c-3.52.76-6.92-.12-10.35-.7-.8-.14-4.09-1.38-5-1.7a17.33,17.33,0,0,1-2.8-1.52c-.47-.27-2.07-1.58-2.52-1.94-1.45-1.17-1.93-2.93-2.68-4.52,0-.09,0-.23.06-.35l.4.1a20.26,20.26,0,0,0,6,5.25,18.41,18.41,0,0,0,6.75,3.23,25.55,25.55,0,0,1,2.63.55,28.73,28.73,0,0,0,7.55,1,.92.92,0,0,1,.36.15Z"/><path class="cls-9" d="M59.66,51.48c-.77.63-1.51.15-2.23-.11A21.48,21.48,0,0,1,48.8,46s-.12,0-.19,0a4.62,4.62,0,0,1-1.2-1.7c0-.11.05-.27.07-.41l.22.18c1.55,1.94,3.79,3,5.76,4.35,1.75,1.22,3.86,1.7,5.82,2.45A.5.5,0,0,1,59.66,51.48Z"/><path class="cls-9" d="M51.57,89.18a1.47,1.47,0,0,1-1.48-1.58.92.92,0,0,1,.49-.9c1.35-.83,2.4-.78,2.56,1C53.23,88.69,52.35,89,51.57,89.18Z"/><path class="cls-9" d="M64.37,52.32c-.06-2.16-.05-4.31,0-6.47,0-.75.28-1.92-.56-2.63a3.64,3.64,0,0,0-.71-.36c.13,0,.27-.1.41-.13a1,1,0,0,1,1.2.5,8.06,8.06,0,0,1,.75,3.16c.08,2.85.35,5.69.52,8.54a13,13,0,0,0,2.29,7.3,9.37,9.37,0,0,0,2.5,2.2c-1.85.15-3.4-1-4.55-3a8.86,8.86,0,0,1-1.35-4,36.43,36.43,0,0,0-.55-4.16C64.3,52.94,65.05,52.63,64.37,52.32Z"/><path class="cls-9" d="M50.22,63.12c0-.8.22-1.34,1.22-1.23a1.18,1.18,0,0,1,1.18,1.32c0,.58.17,1.48-1,1.38C50.77,64.51,50.13,64.22,50.22,63.12Z"/><path class="cls-9" d="M53.87,55.76c0,.58-.16,1.34-1,1.3-.57,0-1.49,0-1.41-1,.06-.86.43-1.58,1.35-1.66S53.88,54.9,53.87,55.76Z"/><path class="cls-5" d="M54.67,29.47c2.25.28,4.7.6,7.15.89A4.52,4.52,0,0,0,63,30.31a1.79,1.79,0,0,1,2.23,1.85c.09,1-1.41,2.42-2.39,2.47-2.13.11-3.89-1-5.76-1.75a20.51,20.51,0,0,1-3.18-1.67c-.38-.22-1.07-.19-1.06-.82C52.85,29.23,53.79,29.58,54.67,29.47Z"/><path class="cls-9" d="M57,27.08c1-.75,1.6-1.93,3-2.17,1.71-.28,2.59.29,2.78,2a2.41,2.41,0,0,0,.16.42c0,.7-.37,1.11-1.1,1.06s-.43-.78-.59-1.19a2,2,0,0,1-.38-.85c-.17-.76-.46-.84-1-.31s-.77,1-1.37,1.27a7.35,7.35,0,0,1-.91.58.64.64,0,0,1-.78-.21C56.53,27.41,56.92,27.3,57,27.08Z"/><path class="cls-9" d="M73.44,29c0,.61.19.92,0,1.29a.53.53,0,0,1-.69.31c-.23-.07-.6-.05-.55-.51a5.67,5.67,0,0,0-.11-.9c0-.5-.14-1.1-.58-1.21s-.74.49-1.11.78-.63,1.23-1.53,1.08c-.49-.08-.78-.21-.3-.64,1-.91,1.82-2.17,3.48-1.81A1.88,1.88,0,0,1,73.44,29Z"/><path class="cls-9" d="M64.06,38.71c-.52-.15-1.11-.31-1.68-.51-.09,0-.4-.12-.21-.3s.51-.31.68-.24c1.62.69,2.69,0,3.58-1.31a1.74,1.74,0,0,1,.52-.49c.38-.23.91-.32,1.16,0s-.12.66-.31,1C67,38.24,65.54,38.42,64.06,38.71Z"/><path class="cls-10" d="M58.44,27.33a14.38,14.38,0,0,1,1-1.18c.32-.3.95-.82,1.06-.73a2.41,2.41,0,0,1,.72,1.8Z"/><path class="cls-9" d="M50,76.49c1,0,1.89.19,1.95,1.12,0,.59,0,1.61-1,1.55-.75,0-2.08.5-1.9-1.17A1.65,1.65,0,0,1,50,76.49Z"/><path class="cls-11" d="M74,3.73c.13-.1.2-.2.28-.21s.13.08.19.13a1,1,0,0,1-.21.2S74.15,3.8,74,3.73Z"/><path class="cls-12" d="M71.82,4l-.12.1c0-.1-.11-.19-.15-.29s0-.07.08-.11Z"/><path class="cls-13" d="M32.93,33.08l-.18-.21s.1-.11.13-.1a.24.24,0,0,1,.13.13S33,33,32.93,33.08Z"/></g></svg>