<svg width="120px" height="120px" viewBox="0 0 120 120" id="Layer_1" data-name="Layer 1" xmlns="http://www.w3.org/2000/svg"><defs><style>.cls-1{fill:#faccd7;}.cls-2{fill:#f38088;}.cls-3{fill:#f16175;}.cls-4{fill:#5bbe88;}.cls-5{fill:#f16075;}.cls-6{fill:#5dbf89;}.cls-7{fill:#5cbf88;}.cls-8{fill:#2b3d59;}.cls-9{fill:#f16176;}.cls-10{fill:#2e3f5a;}.cls-11{fill:#f16578;}.cls-12{fill:#fffdfd;}.cls-13{fill:#fff;}</style></defs><title>hs-huzzah-19</title><path class="cls-1" d="M106.45892,13.58491c-.05926.04381-.15562.07685-.172.13314-.14148.48753-.53191.59233-.95914.73329a2.7503,2.7503,0,0,1-1.7847-.12408.93544.93544,0,0,1-.4299-1.32326c.16174-.31141.32772-.59836.70289-.63642.32475-.03294.62366-.23724.98294-.08072.33676.14671.72479.03114,1.092.19493.32479.14486.50832.27625.45742.64083a.207.207,0,0,0,.11042.23587Z"/><path class="cls-2" d="M38.889,46.17726c.51737-.31787,1.089-.52781,1.624-.80516,1.2679-.65737,2.68206-.94576,3.94286-1.61615.23691-.126.53411-.09813.79627-.21931a4.73462,4.73462,0,0,1,1.07941-.51677c.45294-.08542.89887-.192,1.362-.23831.63345-.0634,1.25892-.205,1.88878-.307a3.77381,3.77381,0,0,1,.76286-.14488c.26463.00939.4744-.11211.43052-.44167-.01366-.37643.31612-.36821.538-.46128.23309-.09777.46478-.15821.43188-.49262-.01887-.19176.11508-.25152.29486-.24838a2.51915,2.51915,0,0,0,2.24373-1.94461,2.725,2.725,0,0,1,.28823-.90508.90932.90932,0,0,0-.0194-.867.39258.39258,0,0,0-.54368-.24779,21.41394,21.41394,0,0,1-4.82466.78145,16.59679,16.59679,0,0,1-4.64484-.48951c-1.12453-.23155-2.21707-.594-3.31867-.91059a36.59812,36.59812,0,0,1-5.34222-2.26953c-.59588-.27937-1.20745-.52685-1.77786-.85965-.19183-.11192-.426-.18173-.41069-.47179.073-.22558.36856-.03133.451-.23914l-.00494.00432a2.82223,2.82223,0,0,0,1.50442-.34362,7.63179,7.63179,0,0,1,1.6626-.6012,9.20622,9.20622,0,0,0,1.27246-.5375c.77356-.29617,1.54432-.59968,2.31626-.90012.16132-.37286.552-.16237.8154-.31585a2.80414,2.80414,0,0,1,.99645-.327c.33838-.04859.62629-.23938.96582-.26755a1.07047,1.07047,0,0,0,.36854-.12642,5.04161,5.04161,0,0,1,2.1747-.43564c.35191-.0082.70906-.04473,1.0544-.06086a2.43969,2.43969,0,0,1,1.08528.15817,1.2286,1.2286,0,0,0,.426.11968c.13013.00558.33435.10443.38378-.09866a.4052.4052,0,0,0-.12884-.4822,3.89657,3.89657,0,0,0-.95216-.44556c-.59685-.17487-1.2177-.15641-1.80741-.32058-.27861-.07756-.55181.07095-.82227-.02476-.10431-.30337.14627-.29414.31143-.33732a4.06436,4.06436,0,0,0,1.56343-.61529c.174-.136.40107-.04565.602-.10515A8.698,8.698,0,0,0,50.668,24.936c.32337-.23635.76231-.317,1.12348-.57807.921-.66566,1.69611-1.49234,2.57072-2.207a4.09658,4.09658,0,0,0,1.15456-1.78784,1.10939,1.10939,0,0,0-.23985-1.11177c-.23241-.29044-.54224-.12255-.83905-.07243a15.14176,15.14176,0,0,0-2.63052,1.01451,8.95944,8.95944,0,0,1-4.32759.43672c-.37729-.04974-.75239.04657-1.12772-.02578a26.2119,26.2119,0,0,1-4.44266-1.27887c-1.49445-.57374-2.929-1.2985-4.4369-1.82773a22.78764,22.78764,0,0,0-8.036-1.64753,1.06838,1.06838,0,0,1-.74159-.22506c-.13993-.08891-.10056-.18456.00035-.26651a2.15457,2.15457,0,0,1,.91107-.40122c.887-.19634,1.7291-.54166,2.61023-.75694.3777-.09229.74483-.22649,1.13222-.28512.10162-.01539.202-.11366.25631.0637.02036.06647.12016.06851.13381.0229.12059-.40308.51033-.26328.76729-.366a4.01376,4.01376,0,0,1,.92995-.16127,5.90662,5.90662,0,0,1,1.31829-.045c.39994.0327.84624-.06477,1.275-.07123.79889-.012,1.58412.13884,2.375.19906,1.46322.1114,2.86681.53573,4.31471.72413a17.07781,17.07781,0,0,0,2.26622.15635,5.39772,5.39772,0,0,0,1.4859-.14049,9.366,9.366,0,0,1,1.33438-.12281,13.44377,13.44377,0,0,0,4.41685-1.35546c.56013-.28983,1.14311-.53517,1.70988-.81264.22507-.11018.477-.205.52562-.511.00879-.05531.09327-.1638.15237-.08816.20881.26723.31089.02505.435-.07774.25654-.21254.50621-.43342.75694-.65289a.69359.69359,0,0,0,.20939-.26c.13426-.33457.07421-.44815-.2853-.45175a6.18029,6.18029,0,0,0-2.297.43363c-1.1557.44294-2.29607.9291-3.48035,1.29581-.07069.02189-.14071.07573-.20859.07185-.31266-.01787-.5157.07846-.52109.43019a.13245.13245,0,0,1-.14938.13224c-.16264-.00291-.104-.10525-.08025-.19057.06173-.222-.07655-.2967-.241-.24325a23.0736,23.0736,0,0,1-2.62858.29893,2.6,2.6,0,0,1-.79687-.03974,7.10952,7.10952,0,0,1-1.41949-.0751c-.088-.32945.19583-.35566.37862-.44429a13.13229,13.13229,0,0,0,3.33175-2.28157,19.94444,19.94444,0,0,0,2.07976-2.14962A15.21293,15.21293,0,0,0,53.40246,4.7682,3.757,3.757,0,0,0,53.8559,1.701c-.08047-.21508-.22349-.45429-.02079-.68933a1.942,1.942,0,0,1,.85981.20553c.25616.10629-.11426.18351.02345.23907.12329.04975.31426-.05869.36018.17471a2.62385,2.62385,0,0,0,.13875.363,15.8581,15.8581,0,0,0,1.31208,2.56207,2.9391,2.9391,0,0,0,1.19838.96032c.25534.14681.46139.34646.71108.49273a9.74118,9.74118,0,0,0,1.68585.64529,23.64537,23.64537,0,0,1,2.84541,1.0619,5.90737,5.90737,0,0,0,1.38119.54193.77785.77785,0,0,1,.36538.132c.40121.40109.96522.35472,1.44389.53454.24429.09177.46709.22555.71274.312.16884.05942.29544.61022.19764.75309-.06712.098-.13591.01988-.16935-.03328a4.21566,4.21566,0,0,0-.23727-.38429c.00379.41039-.36064.73736-.22505,1.16269-.391.2768-.23941.7431-.36527,1.11167-.13027.38148-.25818.77038-.367,1.16075-.26923.96615-.56183,1.92532-.90637,2.86566a9.82428,9.82428,0,0,1-.61129,1.64137c-.3435.57459-.49139,1.21651-.82754,1.7853-.32529.55039-.51439,1.18-.82247,1.74232-.24914.45473-.54647.89586-.77785,1.35157-.3871.76239-.90347,1.44946-1.24357,2.23152-.111.25525-.29857.4563-.42339.7027a.88025.88025,0,0,0-.03672.70438c.16654.27345-.07559.41264-.20105.57983-.55337.73741-1.10249,1.478-1.73088,2.27532a44.10345,44.10345,0,0,0,3.92116-3.14524c1.30527-1.22173,2.56761-2.48422,3.74706-3.8326.82939-.94819,1.70838-1.85119,2.49064-2.84332a19.47757,19.47757,0,0,0,2.45709-4.62035,35.02537,35.02537,0,0,0,1.09127-3.95243A2.84146,2.84146,0,0,0,71.92735,9.208c-.119-.7014.19087-1.41024-.01413-2.11275-.12386-.42444.30123-.88749.02241-1.23789A3.32911,3.32911,0,0,1,71.522,4.64738a5.14764,5.14764,0,0,0-1.0106-2.06016.21741.21741,0,0,1-.04675-.30282c.03638-.00883.0858-.00545.10717-.02831.31322-.335.31706-.35162.7655-.2167a1.95107,1.95107,0,0,1,1.39464,1.08947A5.96615,5.96615,0,0,1,73.41524,5.097l-.00747-.00682c.36189.09337.419.45019.55.70654.4445.87.82383,1.77315,1.25821,2.64866.26564.53541.47509,1.101.73194,1.62566.38927.79508.67419,1.62751,1.03906,2.42811.06327.13882.22347.40621.118.446-.52182.197-.06347.32848.01875.45669a.81421.81421,0,0,1,.14147.35617,1.3392,1.3392,0,0,0,.89029,1.05661,1.58207,1.58207,0,0,1,.83636.76588c.04337.09076.15346.10292.22.1589A7.03173,7.03173,0,0,1,80.621,17.355c.25566.40161.51267.79907.74316,1.22036a9.97544,9.97544,0,0,1,.98629,2.80383,12.48986,12.48986,0,0,1,.124,1.728c.04613.6718.09055,1.34176.18547,2.01177A9.86257,9.86257,0,0,1,82.7,26.49462a.27273.27273,0,0,1-.12774.23419c-.08788.06245-.11672.14358.00583.21523.045.02632.12024.08343.11348.10341a1.04572,1.04572,0,0,0,.08253.73214,4.24,4.24,0,0,1,.07472.92048,2.28056,2.28056,0,0,1,.0095.87051,6.124,6.124,0,0,1-.13371.87863,1.47226,1.47226,0,0,0-.02408.72381,1.0457,1.0457,0,0,1-.09578.60506c-.035.06968-.05609.12771-.14431.14605-.36235.07536-.36163.07769-.11744.39707a.16938.16938,0,0,1,.017.05362c-.09668,1.08015-.51974,2.10207-.56889,3.1907-.04981.24311.03338.59238-.43146.48946-.07628-.01689-.1438.11469-.00732.1852.26089.13478.2599.336.15408.57125-.1973.43858-.28791.91992-.48047,1.35339a8.3266,8.3266,0,0,1-.924,2.04841c-.12378.15307-.03677.48879-.20579.722a8.31906,8.31906,0,0,0-.88951,1.74154c-.145.3505-.50966.56255-.641.94414-.02462.07155-.15468.32154-.37118.264-.08714-.02315-.18274-.11518-.24863-.01252-.072.11214.06336.13989.12546.1972.10384.09584.0127.17656-.04365.23875a3.6904,3.6904,0,0,0-.66569,1.01828.83017.83017,0,0,1-.09142.14c-.12565.17867-.52766.053-.473.43215.03422.2373-.396.23229-.27731.5214.007.01716-.035.0641-.06322.08471-.94619.69011-1.5636,1.71672-2.48325,2.43176-.516.40118-.90856.94883-1.44513,1.305-.50755.33689-.98355.7183-1.504,1.03714-.584.35772-1.17379.70389-1.76657,1.04625-.12607.0728-.21389-.03189-.31331.01733-.09514.28093-.1961.55276-.58511.37357-.06843-.31748.121-.58174.18512-.87159A40.708,40.708,0,0,0,69.514,44.66a3.05071,3.05071,0,0,0-.18235-1.5535c-.0337-.067-.075-.1628-.0296-.21582.28962-.33845.08753-.71381.11153-1.07414.0547-.82122.00707-1.65.07326-2.458a21.17575,21.17575,0,0,1,.30134-2.45418.673.673,0,0,0-.02123-.49779c-.16889-.27894-.211-.52.11954-.71414a.31647.31647,0,0,0,.12693-.24355,16.889,16.889,0,0,1,1.72184-5.15416A11.05164,11.05164,0,0,0,73.07236,26.955a3.95083,3.95083,0,0,1,.93491-1.19176,21.21922,21.21922,0,0,0,2.71724-3.23988,4.40367,4.40367,0,0,0,.59051-2.33247,5.9547,5.9547,0,0,0,.04384-1.96329c-.04155-.14777.01517-.38256-.2229-.40235-.19408-.01614-.2775.16413-.37721.301a6.02209,6.02209,0,0,0-.626,1.13551,20.20474,20.20474,0,0,1-3.23284,5.01376c-2.04032,2.37516-4.38972,4.44527-6.545,6.70594-.9608,1.00777-1.8902,2.04827-2.74843,3.14455a31.15354,31.15354,0,0,0-3.63423,5.74933,12.58252,12.58252,0,0,0-1.274,4.94063,17.6249,17.6249,0,0,0,.20654,4.54885,2.82183,2.82183,0,0,0,.54545,1.34329,4.38984,4.38984,0,0,1,.44529,1.32673c.011.14382.06.26194.22825.26932.271.01188.51643.05654.41922.41943-.08563.31963-.20766.63674-.62748.59591-.54248-.05276-1.08645-.05747-1.62981-.13487a20.80123,20.80123,0,0,1-4.83547-1.77127c-1.58557-.645-3.03788-1.55626-4.58317-2.27821a21.80435,21.80435,0,0,0-5.44786-1.98727c-1.421-.2446-2.78653-.85452-4.27276-.70965C38.98405,46.45406,38.84265,46.39441,38.889,46.17726Z"/><path class="cls-3" d="M38.889,46.17726c.03048.094.11494.22313.17875.185.41585-.24836.81405-.01836,1.21929.01083.57654.04154,1.13732.18566,1.70679.25431.34321.04138.538.53842.824.36115.39113-.24245.6261.07362.93181.0901a9.76777,9.76777,0,0,1,2.221.65095c.60721.17961,1.19686.49259,1.798.73466.79157.31874,1.51677.77389,2.31876,1.07379.39584.148.70508.48045,1.10381.658a4.32938,4.32938,0,0,0,.91377.38844.44916.44916,0,0,1,.365.22715.39269.39269,0,0,0,.3641.22684c.44945-.04731.71138.427,1.14854.382.36275.40163.90162.44732,1.35715.65809.48325.22359.995.387,1.49939.56226a.42508.42508,0,0,1,.26131.19278c.04922.09205.11369.16917.21664.13362.56829-.19629,1.0812.15811,1.63423.15946a3.95694,3.95694,0,0,1,1.07849.075c.30611.08517.24111-.26731.34638-.4166.05633-.07987.16548-.19948.08447-.30238a.25231.25231,0,0,0-.35923-.0231c-.359.31969-.34019-.1517-.33523-.20469.05218-.55754-.34158-.99459-.38471-1.52013a.90538.90538,0,0,0,.46479-.92626c-.01643-.65685-.01916-1.31686-.0078-1.97512a17.12951,17.12951,0,0,1,1.821-7.84492,19.917,19.917,0,0,1,1.24629-1.94916,40.99475,40.99475,0,0,1,3.26232-4.2525c1.16028-1.28879,2.33495-2.54977,3.6097-3.73065.9489-.879,1.77968-1.88973,2.74325-2.76326.19227-.1743.35338-.40229.66179-.36409a1.1398,1.1398,0,0,1-.1235.70914c-.23924.5265-.19974,1.17563-.68927,1.59092.04411.37815-.24455.52888-.48614.7118.22962.25689-.052.42525-.12024.62268a7.23683,7.23683,0,0,1-.31734.65921,3.08235,3.08235,0,0,0-.45372,1.32829c.00038.03123-.03664.06361-.05789.09432-.48125.69526-.40762,1.58-.78649,2.31189-.04863.09393-.00309.21771.01419.33064.04187.27355.07822.56014-.32841.60834-.16547.01962-.17423.14743-.06922.23516.27875.23292.17859.49311.17469.80146-.00744.58878-.343,1.14457-.15218,1.74191a.10452.10452,0,0,1,0,.05617c-.07181.26334-.2504.554-.1907.78245a4.29245,4.29245,0,0,1,.03531.79921,3.74582,3.74582,0,0,1-.069,1.26157c-.08263.33319.11469.64974.10827.98031-.00262.13539.09979.38155-.23.30505-.10247-.02377-.11155.09438-.04614.14277.33945.25115.26784.6247.27511.95829a26.30583,26.30583,0,0,1-.193,2.71075c-.11354,1.39192-.518,2.72363-.72592,4.09454a8.09626,8.09626,0,0,1-.54486,1.96962c-.0527.23992-.26759.301-.44725.38919-.60422.29645-1.22441.55946-1.82523.8634a3.2129,3.2129,0,0,0-.74823.58981,18.177,18.177,0,0,1-2.77417,2.27694c-.67346.437-1.38391.79437-2.07344,1.19451-.15124.08778-.29667.21442-.5215.13274-.1453-.05281-.19556.02906-.06477.16766.05644.05979-.0569.13146-.11343.14332-.38444.08065-.69455.36461-1.10532.38111a1.6592,1.6592,0,0,0-.89084.38787c-.24868.18941-.49643.11323-.72738.20592-.02986.012-.06672.03374-.09193.02543-.11824-.039-.00833-.31778-.21972-.2381-.15295.05765.113.24442-.055.33424a.95637.95637,0,0,1-.19847.09331,7.39084,7.39084,0,0,1-1.239.301c-.53728.04394-1.0395.23387-1.57406.28683a10.55273,10.55273,0,0,1-1.19.11762c-.22354-.00313-.42452.09719-.66129.10909-.80833.04066-1.6161.06608-2.42532.06891a21.88312,21.88312,0,0,1-2.74539-.21731c-.09437-.01158-.1938-.018-.23118-.12429-.08823-.2508-.15866-.386-.33836-.03765-.05408.10481-.23523-.03928-.35874-.06716-.50716-.11449-1.02989-.10745-1.54092-.22261-.50963-.11485-.98481-.32855-1.48586-.449-.73049-.17564-1.39936-.516-2.11957-.72723a22.9612,22.9612,0,0,1-2.27462-.83926c-.48968-.20218-.94463-.47473-1.45494-.64877a2.4489,2.4489,0,0,1-1.10844-.67605,1.723,1.723,0,0,0-.6078-.28234c-.12027-.04786-.24474-.08778-.35928-.14688-.25276-.13041-.32321-.46029-.70217-.50346a1.07884,1.07884,0,0,1-.74219-.53892c-.08428-.1431-.37262-.0709-.54064-.23584-.16644-.16337-.44-.22-.4651-.51356-.0082-.09588-.08766-.10152-.15773-.12567a5.19045,5.19045,0,0,1-2.32135-1.86377,1.37878,1.37878,0,0,0-.21785-.16777c-.24553-.21657-.514-.42142-.46562-.81621.014-.11456-.04133-.26245-.178-.0799-.12542.16749-.2115.09272-.30813-.01671-.24323-.27549-.48713-.5504-.729-.82709-.05851-.06693-.15077-.14652-.00672-.21355.39093-.18188.06152-.21212-.05593-.20986-.292.00562-.43237-.18566-.61276-.36275-.23971-.23534.18828-.32.08642-.46567-.13486-.19288-.35255.1599-.41657.03281a5.522,5.522,0,0,0-.76923-.96774c.7983.18844,1.51442.176,2.2213.31294a2.30527,2.30527,0,0,0,1.1282.02221,2.47987,2.47987,0,0,1,.84343-.0187,12.51076,12.51076,0,0,0,1.796-.18049,14.28822,14.28822,0,0,0,3.26614-.851,13.13548,13.13548,0,0,0,2.07621-.73362A5.13138,5.13138,0,0,1,38.889,46.17726Z"/><path class="cls-4" d="M88.46123,75.52644c.55169-.42163,1.15154-.78056,1.70586-1.18633a7.19034,7.19034,0,0,0,1.53078-1.176,4.78,4.78,0,0,1,1.00781-.75118,17.263,17.263,0,0,0,1.57344-1.2895,5.025,5.025,0,0,0,1.48128-1.752c.04514-.11375.1464-.27315.24056-.28748.36149-.055.51122-.36309.75048-.56075a.63482.63482,0,0,1,.98788.34042,1.68572,1.68572,0,0,1,.00567.2822,3.6807,3.6807,0,0,0,.1061,1.11251,12.67888,12.67888,0,0,1,.3287,2.07748c.0083.05431.05608.10709.05219.158a3.11435,3.11435,0,0,0-.07187,1.18768,3.74919,3.74919,0,0,1,.1462,1.14741.52964.52964,0,0,0,.175.44438c.20791.17.19319.36319.0164.58677a.799.799,0,0,0-.18415.68723,7.94456,7.94456,0,0,1-.116,2.14086.36.36,0,0,1-.14546.2888.25363.25363,0,0,0-.09345.25221,5.81752,5.81752,0,0,1-.15671,2.28628c-.093.58429-.29956,1.1387-.38708,1.72017a1.04948,1.04948,0,0,1-.13183.41956,4.83681,4.83681,0,0,0-.17484.70267c.11783.2956-.14062.50988-.18252.77943a9.56176,9.56176,0,0,1-.45775,1.427c-.1634.50359-.41137.97464-.54362,1.49213-.05782.22625-.2744.39307-.35121.62739-.023.0701-.088.05087-.13866.02817-.13972-.06263-.25225-.03685-.14965.123.17774.277.03954.46181-.12727.65112a5.59728,5.59728,0,0,0-.5957.99846,32.48458,32.48458,0,0,1-2.06528,3.01847,15.508,15.508,0,0,0-1.36246,1.79215c-.1486.28151-.45535.41936-.66336.66062a19.17933,19.17933,0,0,1-2.1906,2.03052c-.69617.5907-1.48736,1.0321-2.222,1.55966a14.71773,14.71773,0,0,1-1.7465.96076,12.50527,12.50527,0,0,1-1.32971.6658,6.30315,6.30315,0,0,1-1.66226.56408c-.27-.17638-.57812-.21455-.3496-.75766a4.16669,4.16669,0,0,0-.01984-1.50255,15.99189,15.99189,0,0,1,.71854-5.06831c.25246-.84406.61771-1.6778.81585-2.51465a6.16718,6.16718,0,0,1,.76039-1.44423c.64693-1.2987,1.31319-2.58644,1.98613-3.87174a43.83352,43.83352,0,0,0,2.09-4.63191,19.30107,19.30107,0,0,0,.87391-4.137,9.04821,9.04821,0,0,0,.12264-1.74613A.811.811,0,0,1,88.46123,75.52644Z"/><path class="cls-5" d="M33.69034,32.50167c.21409.35984.63772.44344.95665.6.86109.4226,1.72842.84449,2.61278,1.218.90237.38113,1.78748.80431,2.69252,1.18034,1.00627.41807,2.0768.55865,3.0718.958.58582.23509,1.22375.24746,1.80578.50889a3.56945,3.56945,0,0,0,1.04115.1623c.19851.02258.41811-.04782.55381.17913a.16017.16017,0,0,0,.15208.03178c.4261-.22392.84236-.00577,1.26269.01487a.53825.53825,0,0,1,.41274.1365.17386.17386,0,0,0,.25013.03653,2.22735,2.22735,0,0,1,1.45389-.23724,10.35984,10.35984,0,0,0,2.24427-.28758,10.995,10.995,0,0,0,2.04338-.52748.23818.23818,0,0,1,.33305.13011c.17363.47723.49129.94614.04742,1.46028a.79.79,0,0,0-.15051.66487c.04326.31188-.2464.60334-.39775.88974a1.19141,1.19141,0,0,1-.701.68658c-.22437.05959-.32936.46106-.47745.40038-.3357-.13757-.32233.16677-.46479.26053-.085.05593-.14353.11652-.20673-.02477a.41484.41484,0,0,0-.15379-.15652.17556.17556,0,0,0-.20995.0083c-.08.06277-.04549.13854.0055.19363.24616.26593.09963.34607-.16329.46258-.31162.13809-.725.07246-.92908.43667-.07532-.003-.16671.0209-.22344-.0131a3.01024,3.01024,0,0,0-1.55081-.1984c-.81637-.03-1.63041.09877-2.44808.12939a11.64968,11.64968,0,0,0-1.87639.22715c-1.08756.22165-2.19625.3451-3.27624.59542-.39008.09041-.779.20891-1.17758.27877-.03685.00646-.07418.01069-.11058.019-.23292.05325-.29606.44979-.54112.36247-.28685-.10221-.45711.09354-.68239.1328a4.44381,4.44381,0,0,0-.75462.16786,6.32734,6.32734,0,0,0-1.57647.56714c-.26189.18162-.6012.1007-.9017.21112a27.91781,27.91781,0,0,1-3.15013.96018,10.43112,10.43112,0,0,0-1.376.35088c-.33711.13047-.73591.09183-1.08958.19132-.56753.15966-1.15685.17137-1.72749.30519a1.878,1.878,0,0,1-.76155-.12226,4.85793,4.85793,0,0,1-1.48383-.43966,1.03159,1.03159,0,0,0-.39968-.19358c-.51587-.01386-.71027-.47581-.95783-.76646a5.81556,5.81556,0,0,1-.44166-.87612,10.08308,10.08308,0,0,1-.49463-1.75772c-.00417-.01216-.03283-.01592-.05006-.0236l.00811.00962a17.18551,17.18551,0,0,1,.32655-3.42743,3.956,3.956,0,0,1,.24976-.55168c.15548-.44992.05931-.91962.19126-1.37414a2.428,2.428,0,0,0,.19337-1.05505c-.015-.09855.07159-.21274-.07361-.27267-.15067-.06219-.1483-.20325-.05925-.26192.26749-.17624.15221-.37978.08572-.58912a20.75189,20.75189,0,0,0-.65079-2.44714,3.76559,3.76559,0,0,1,.084-2.92807,3.93726,3.93726,0,0,1,1.89426.453,4.1729,4.1729,0,0,0,1.47648,2.25287,3.8687,3.8687,0,0,0,2.38648.91061c.53836.03468,1.07507.01511,1.618.084a3.73383,3.73383,0,0,0,1.40872-.21829A2.4126,2.4126,0,0,1,33.69034,32.50167Z"/><path class="cls-6" d="M71.61172,84.6966c.16607.12565.05769.32057.11957.47017a1.83268,1.83268,0,0,0,.16051.26072c.04619-.1194.15792-.26.12738-.35459a6.80115,6.80115,0,0,1-.06583-1.33119A6.56742,6.56742,0,0,1,72.06,82.52025c.02046-.40287-.12714-.78732-.09005-1.187.015-.16152.06419-.29945.27214-.21692.08158.03238.15378.04031.16528-.05619.008-.06743-.01637-.18919-.05708-.20444-.64682-.24235-.31888-.8079-.33927-1.19753-.03194-.6101-.00115-1.226-.02584-1.84371a6.64665,6.64665,0,0,1-.09234-2.15657,1.22323,1.22323,0,0,0-.11763-.72314,1.91276,1.91276,0,0,1-.0563-.611c-.001-.03953-.01733-.09062.07408-.11068.28446-.06242.32013-.143.09115-.34392a.68466.68466,0,0,1-.23526-.66823,5.1475,5.1475,0,0,0-.18462-1.36147c-.128-.588-.05078-1.18177-.18815-1.76918-.22849-.977-.29806-1.98463-.483-2.97528-.19942-1.0683-.43506-2.1307-.68285-3.18418-.18441-.784-.336-1.58279-.58947-2.35726a4.30032,4.30032,0,0,1-.3001-1.09882c-.00948-.20338-.36237-.27429-.15867-.516a11.457,11.457,0,0,1,.0945-1.84974,3.30561,3.30561,0,0,0-.01732-1.04645c-.08768-.38274.154-.78978.13824-1.20461-.00631-.16649.03187-.33618.03167-.50581-.00022-.17956.01229-.35874-.26951-.25527a.23037.23037,0,0,1-.32153-.14426.28783.28783,0,0,1,.1725-.37319.52714.52714,0,0,0,.34049-.75889.35843.35843,0,0,1,.21812-.49148,18.76906,18.76906,0,0,1,2.0527,3.50687c.45676,1.11081.95182,2.20324,1.38633,3.32649a38.05393,38.05393,0,0,1,1.49171,4.91168c.22584.946.38443,1.92047.53048,2.89088.06241.41466.151.85223.22759,1.2691.08612.46853.10733.9652.19681,1.44219a4.8532,4.8532,0,0,0,.22229,1.37188.36167.36167,0,0,1,.00477.16788c-.053.9071.19608,1.79981.12856,2.70752.23431.31109-.09432.72021.18368,1.03424.06375.072.0267.21663-.02888.32247a.78159.78159,0,0,0,.00227.58874,1.32366,1.32366,0,0,1-.03.76107,2.77894,2.77894,0,0,0,.13229,1.138,8.36167,8.36167,0,0,1,.05814,1.77205c-.04947.60046.03741,1.2-.0332,1.80261a14.34027,14.34027,0,0,1-.06868,1.95555.85265.85265,0,0,1-.11123.366c-.12971.16491-.22357.30738.1325.28688.125-.00719.08792.18615.0596.2864-.24528.8682-.31466,1.77384-.59629,2.6381a3.15171,3.15171,0,0,0-.1616,1.32435,1.40883,1.40883,0,0,1-.08538.76274,2.81077,2.81077,0,0,0-.09588.90235,8.34409,8.34409,0,0,0-.16224,2.19666.1416.1416,0,0,0,.09452.12391.572.572,0,0,1,.11492.62977,77.21732,77.21732,0,0,1-2.14722,8.66223c-.10338.2859-.088.598-.21448.87679-.10628.23433.092.33669.20885.47389a1.28457,1.28457,0,0,1-.35671.90193.422.422,0,0,0-.1356.35047c.12064.40421-.14191.70071-.24227,1.04172q-.47368,1.60937-.9451,3.2194c-.19638.67354-.38593,1.34759-.63964,2.00452-.21813.56477-.29483,1.1734-.46985,1.75638-.29021.96668-.68584,1.8955-.96265,2.86686a5.56178,5.56178,0,0,0-.45861,1.24689c-.30418.11522-.15433.55112-.49852.67367-.18025.06417.1529.106.08366.18906-.22781.27339-.24466.65471-.49785.91655a3.8905,3.8905,0,0,1-1.46.70723c-.39181-.30876-.9969-.27948-1.25487-.80537a.49739.49739,0,0,1,.25189-.7332.85583.85583,0,0,0,.1612-.15441c.01133-.05417-.01166-.07374-.0641-.06364a1.09245,1.09245,0,0,0-.21682.06035c-.13692.06986-.20779.05112-.2036-.11662a2.043,2.043,0,0,1,.01393-.50677c.32926-1.12229.44582-2.29751.8547-3.40019a5.57067,5.57067,0,0,0,.17788-.759c.11-.50632.28575-.99886.44372-1.4941.3431-1.07574.71728-2.14243,1.02679-3.22764a9.9647,9.9647,0,0,1,.39271-1.38467,8.20157,8.20157,0,0,0,.405-1.55666,1.66136,1.66136,0,0,1,.31915-.81668c.20258-.21647.085-.49868.12837-.74622a13.12555,13.12555,0,0,1,.45962-1.651,12.31347,12.31347,0,0,0,.43146-2.07934.18.18,0,0,1,.035-.10456c.43943-.3857.22093-.95265.38644-1.41863a5.61876,5.61876,0,0,0,.33347-1.51026,6.54771,6.54771,0,0,0,.138-1.49808c-.0432-.25853.101-.46946.12818-.71176a20.69846,20.69846,0,0,0,.18552-2.09322,3.55151,3.55151,0,0,1,.27766-.94221c.03894-.88054.15428-1.75431.237-2.63091a1.058,1.058,0,0,0,.0301-.44652,3.60747,3.60747,0,0,1,.08327-1.81774c.07057-.5683-.13514-1.12178-.07107-1.68822C71.47635,85.14907,71.39843,84.88895,71.61172,84.6966Z"/><path class="cls-3" d="M28.69493,15.62513c1.20138.14216,2.424.04673,3.61374.29126.71354.14666,1.43446.26635,2.13489.47856a7.78315,7.78315,0,0,1,1.38662.388c.69554.36752,1.47063.47436,2.1868.78511a16.88971,16.88971,0,0,0,2.23468.8974,1.54862,1.54862,0,0,1,.30647.13974,15.958,15.958,0,0,0,2.57752,1.03037c.59182.19172,1.21266.33778,1.81282.52322a4.78287,4.78287,0,0,0,1.45994.3c.745-.01668,1.46925.215,2.20315.13616a9.39094,9.39094,0,0,0,2.69683-.36258,9.32625,9.32625,0,0,0,1.68737-.71545,5.04379,5.04379,0,0,1,1.30626-.47331c.0717-.02256.14521.00043.23892-.04481.47893-.23119.8269-.04345,1.03929.44375a1.37232,1.37232,0,0,1-.062,1.32968,5.90153,5.90153,0,0,1-1.39849,1.79348,13.44662,13.44662,0,0,0-1.36844,1.2406c-.39569.42383-.97614.6828-1.40153,1.10426-.2159.2139-.61735-.07-.62484.09475-.01555.34167-.26039.34586-.426.40755a4.88986,4.88986,0,0,0-1.01291.47787c-.4782.31835-1.08219.2681-1.55505.58238a.17032.17032,0,0,1-.20589-.04516c-.04192-.04087-.04991-.14357-.14175-.03332-.41629.49974-1.04365.5015-1.60322.65622-.14.03871-.3144-.01861-.32823.20641l-.44693-.00259a.81981.81981,0,0,1-.12528-.07881,3.79174,3.79174,0,0,1-1.37557.16079c-.71088.08353-1.41211.21635-2.10995.34881-1.70183.323-3.34227.88743-5.0052,1.36354a41.10535,41.10535,0,0,1-4.19453,1.03,8.5425,8.5425,0,0,1-2.11833-.0142c-.36594-.02857-.707-.19324-1.0821-.19507-.19657-.001-.20526-.02824-.24855-.35517-.01574-.11883-.09788-.05852-.14463-.08521a1.98251,1.98251,0,0,1-.84042-.66445,1.36563,1.36563,0,0,1-.19621-.5713A3.10644,3.10644,0,0,0,27.4696,27.148a1.24745,1.24745,0,0,1,.09143-.87069c.20835-.494.16564-1.05578.35225-1.56227a.39327.39327,0,0,0,.02753-.16547c-.02357-.25526.36572-.32846.23286-.69023-.093-.25314.08644-.60637.14422-.91489.05435-.29013.11676-.5841.1887-.86425.16294-.63454.23556-1.28257.37945-1.91754a2.37531,2.37531,0,0,0,.04669-.444,8.21562,8.21562,0,0,0-.205-2.97146.1661.1661,0,0,1-.00963-.10948,2.23311,2.23311,0,0,1,.30286-.55455C29.10448,15.98956,28.5852,15.94984,28.69493,15.62513Z"/><path class="cls-7" d="M64.93639,90.03927a4.97846,4.97846,0,0,1-1.34605-.14578,2.60914,2.60914,0,0,0-1.08218-.22122c-.45513.01426-.88456-.27559-1.3593-.282-.036-.00049-.07742-.03933-.10682-.03008-.51469.16178-.93918-.16009-1.39468-.2799a7.23151,7.23151,0,0,0-1.07766-.3868,13.005,13.005,0,0,1-2.41891-.7498c-.53968-.16805-1.06345-.37791-1.58029-.58978-.55984-.22951-1.10024-.51721-1.65951-.75765-.17167-.0738-.2904-.31089-.53988-.129-.07915.0577-.19-.07321-.19249-.15417a.47634.47634,0,0,0-.27673-.39417c-.47918-.27769-.71293-.78606-1.1162-1.13385a5.29451,5.29451,0,0,1-.89751-1.24289A17.21922,17.21922,0,0,1,48.75566,81.569a10.20583,10.20583,0,0,1-.62928-1.9212c-.16591-.67477-.25226-1.36014-.39838-2.03579-.03551-.16421.00727-.31358-.2585-.3274-.14144-.00734-.13438-.25-.01336-.31244.3355-.17318.30123-.464.245-.73051a4.892,4.892,0,0,1-.03862-1.6763,8.52339,8.52339,0,0,0-.03712-.93337,2.192,2.192,0,0,1,.0877-.98025c.015-.031-.00636-.07894.00727-.11141.10924-.26017-.45582-.48755-.17808-.5767.38525-.12364.14942-.38195.25235-.54715a1.838,1.838,0,0,0,.128-.76631c.02272-.24392.13022-.46744.17162-.69733.09587-.53246.284-1.03584.40653-1.55718a4.931,4.931,0,0,1,.31214-.77252.46391.46391,0,0,1,.7994-.149,7.96583,7.96583,0,0,1,1.09241.86765c.246.304.58852.50361.778.88527.13788.27771.34465.62978.77689.61531.13965-.00467.17814.0999.21449.21645a1.507,1.507,0,0,0,.51091.61313,14.6355,14.6355,0,0,1,1.27223,1.11229.80406.80406,0,0,0,.2808.18549,6.156,6.156,0,0,1,1.11019.83365c.51063.2.51043.72809.72369,1.12066a22.96711,22.96711,0,0,0,2.03516,3.05042,34.449,34.449,0,0,1,3.68172,5.6692A41.51294,41.51294,0,0,1,64.787,89.15233,2.41743,2.41743,0,0,1,64.93639,90.03927Z"/><path class="cls-8" d="M72.94212,103.80826a.69528.69528,0,0,1-.42971-.09619c-.16013-.08484-.18164-.27589-.07847-.306.39525-.11535.18695-.44465.2717-.66144.14761-.37759.23954-.77661.3786-1.158a28.34325,28.34325,0,0,0,.77626-2.8317c.12236-.48693.12563-1.0024.25534-1.47749.15617-.57209.32139-1.14481.46892-1.71987a2.91539,2.91539,0,0,0,.16608-1.0372.55825.55825,0,0,1,.06277-.32809,1.85932,1.85932,0,0,0,.16644-1.02671,5.1449,5.1449,0,0,0,.762-1.38885A19.93563,19.93563,0,0,1,76.84293,89.35c.04668-.09942.13725-.18934.15058-.29112.03449-.26362.12908-.40815.42535-.33877.03578.00838.09645-.08958.14558-.13825-.05205-.01458-.10349-.03193-.15627-.043-.06776-.01426-.14939-.00378-.09118-.122.06517-.13236.11416-.27276.16877-.41023.06152-.15486.06983-.335.30031-.09.13959.14843.50449-.1118.50955-.34275.0045-.20509-.15182-.17521-.27947-.17714-.1541-.00234-.17374-.03567-.11228-.1963a20.27517,20.27517,0,0,1,1.15835-2.3062c.29013-.54056.73-1.0048,1.06924-1.53148a4.70893,4.70893,0,0,1,.73265-1.15834c.068-.05936.08451-.26768.20664-.29286.11175-.023.10417-.29483.28334-.12684.00959.009.03353.00267.05078.00348.0098-.6403.66838-.7257.98535-1.10734a16.21556,16.21556,0,0,1,2.00477-1.955c.392-.33287.76521-.68785,1.1485-1.03106a2.656,2.656,0,0,0,.47441-.54853c.09726-.15161.13667-.56985.48329-.20363.0203.02144.18779-.04666.23739-.11113.26852-.349.68409-.51958.98228-.83955a3.32167,3.32167,0,0,1,.74037-.46551,22.94539,22.94539,0,0,1-.42748,4.333,13.01294,13.01294,0,0,1-.64195,2.3009,22.93042,22.93042,0,0,1-1.06223,2.54257c-.33887.70424-.66836,1.41835-1.07432,2.09333a9.00432,9.00432,0,0,0-.57208,1.07733c-.377.88245-.93722,1.67456-1.23625,2.5943-.07815.24039-.3261.40615-.41485.65878-.03885.11061-.09474.08636-.14929.01481-.0896-.11752-.18548-.12807-.26449-.00085a.13837.13837,0,0,0,.07921.22443c.20158.03048.16462.12309.12065.26291-.08439.2684-.243.50127-.3461.75656-.21045.52089-.29131,1.09752-.50361,1.60415-.29061.69347-.3649,1.42651-.58961,2.12519a7.74287,7.74287,0,0,0-.10489.93868,11.02552,11.02552,0,0,0-.20155,1.95547c-.00657.49495.04781.99262.01019,1.49025a.91087.91087,0,0,0,.09507.43276c.08.18669.12385.36819-.20194.30094-.04234-.00874-.09956.06909-.07519.12466.038.08662.11985.19011.20765.158.272-.09937.21638.078.21156.22209-.05142-.01753-.127-.06639-.15072-.04805a5.35545,5.35545,0,0,1-2.31646.75778,10.60317,10.60317,0,0,1-1.01919.30316,8.60025,8.60025,0,0,0-1.76507.3508,4.91415,4.91415,0,0,1-1.2168.06333,2.93869,2.93869,0,0,1-1.3269-.12855c-.32761-.13234-.45929-.01549-.46132.35422C73.06236,103.55375,72.93452,103.65673,72.94212,103.80826Z"/><path class="cls-8" d="M64.93639,90.03927c-.22791-.65529-.44461-1.31476-.68723-1.96454-.197-.52749-.38145-1.06208-.57249-1.58941-.22113-.61038-.58947-1.14819-.77026-1.76674-.12035-.4118-.38185-.75-.5403-1.14415a17.68655,17.68655,0,0,0-1.02363-1.99824c-.28713-.514-.60162-1.01248-.89572-1.52128-.546-.94454-1.27444-1.77025-1.896-2.66889-.43786-.633-.92967-1.23192-1.35957-1.87412a12.80264,12.80264,0,0,1-1.10644-1.85331c-.04445-.0991-.15969-.18407-.08931-.30331.08774-.14864.10832-.22041-.11139-.23268-.17163-.0096-.25333-.14124-.23578-.31926a11.85353,11.85353,0,0,1,1.75786,1.13055,6.73962,6.73962,0,0,0,1.50884.81318c.49387.20131.89779.55545,1.40787.7237,1.01631.33521,1.90077.958,2.89595,1.35206a20.06856,20.06856,0,0,1,1.93464,1.014,7.59488,7.59488,0,0,1,1.53771.93155c.65122.57031,1.30169,1.14291,1.96176,1.70344.62765.533.98684,1.30613,1.64938,1.80347.26.71419.87779,1.23121,1.08535,1.97741.0432.15532.21378.262.22409.44387a8.50478,8.50478,0,0,0,.09926,1.88729c.10846.43908-.1687.90752-.12213,1.37851-.34826.13931-.14388.26392-.04583.48148a1.33935,1.33935,0,0,1-.00026,1.03748.70987.70987,0,0,0-.06921.35587,5.53576,5.53576,0,0,1-.30327,2.13183.31615.31615,0,0,1-.14941-.385c.07785-.39123-.11416-.49875-.461-.58964a7.68376,7.68376,0,0,0-2.11191-.32807,6.22364,6.22364,0,0,1-1.09835-.15365c-.15729-.02566-.3211-.15038-.44213.06812-.035.06313-.09645.0381-.13831.00016-.48122-.43625-1.11789-.32086-1.678-.47625A1.2554,1.2554,0,0,1,64.93639,90.03927Z"/><path class="cls-9" d="M70.4646,2.2844c-.01574.2007.18768.21088.27877.319a3.74751,3.74751,0,0,1,.70368,1.3231A6.36506,6.36506,0,0,1,71.81372,5.312c.01742.24308.0631.40777.35287.48684.2742.07482.26417.18732.00219.3339a.22085.22085,0,0,0-.1149.22911,6.19762,6.19762,0,0,1-.015,1.07151c-.05175.29173.40716.17034.26295.33638-.098.11285-.27357.14088-.25035.35444.0524.48189-.02293.963.06748,1.45528a2.88954,2.88954,0,0,1-.18525,1.12657c-.15567.6286-.33775,1.25067-.50927,1.87533-.00486.01773-.02651.045-.02232.04906.37079.35492-.06346.58159-.1638.83051-.32055.79522-.56613,1.61748-.93294,2.39755a18.03209,18.03209,0,0,1-2.15981,3.63665c-.54527.684-1.12347,1.35058-1.72,1.97145-.89676.93333-1.71869,1.938-2.67485,2.82235-.71148.658-1.37729,1.37828-2.11355,2.009-.57634.49372-1.15537.99159-1.77013,1.4476a9.25959,9.25959,0,0,0-1.8,1.47158.726.726,0,0,1,.21284-.7762c.63582-.68393,1.0735-1.52284,1.72172-2.19735.04417-.046.03864-.13972.05623-.21125a2.65688,2.65688,0,0,0,1.1956-.74958,16.05154,16.05154,0,0,0,2.135-2.62837c.15428-.21627.53749-.327.32985-.73881-.05387-.10685.19869-.1903.302-.29363a5.138,5.138,0,0,0,.88058-1.34014c.43541-.85182.8913-1.69545,1.296-2.5659.31-.66675.64281-1.33227.92-2.01027a9.15672,9.15672,0,0,0,.888-2.64694,6.13273,6.13273,0,0,1,.50365-1.59538,1.84855,1.84855,0,0,0,.09638-.49868c.08042-.71694.23384-1.42534.33225-2.14075a2.63652,2.63652,0,0,0,.05529-1.22724c-.25676-.63534-.13673-1.37365-.60108-1.94872-.15017-.186-.13065-.50062-.22817-.74037-.07145-.17569-.13035-.4287-.41445-.36671-.24192.05279-.20382.25829-.22983.44864-.08579.62768-.21076,1.24993-.30055,1.87716-.03625.25328-.16933.31791-.38008.255a11.29991,11.29991,0,0,1-1.78415-.58424c-.2903-.14323-.50933-.45676-.85164-.58613-.12179-.046-.10654-.30074-.02933-.35165.27756-.183.21366-.51333.37206-.738a5.59292,5.59292,0,0,1,3.22357-2.50541,6.28925,6.28925,0,0,1,.90588-.24934A4.3127,4.3127,0,0,1,70.4646,2.2844Z"/><path class="cls-9" d="M53.83511,1.01166a5.82749,5.82749,0,0,0,.28453,1.1332,3.7468,3.7468,0,0,1,.01677,1.00195c-.01881.22539-.34559.27826-.22647.60113.07234.19608-.13388.48571-.1826.73953a.84423.84423,0,0,1-.14451.35484c-.48656.67976-.93827,1.38615-1.45224,2.04409-.41035.5253-.87154,1.00923-1.27632,1.54384a1.02775,1.02775,0,0,1-.7423.46473c-.15952.00278-.11.102-.12947.18071-.06912.27921-.1385.5597-.51607.55493a.13832.13832,0,0,0-.10018.04032,9.99717,9.99717,0,0,1-2.07572,1.56539,4.04526,4.04526,0,0,1-.969.53154c-.16755.07052-.37595.0757-.41773.31123a1.08752,1.08752,0,0,1-.65076-.07689,18.34616,18.34616,0,0,1-2.24749-.47807c-.3041-.11-.63869-.0823-.94481-.19863a8.83014,8.83014,0,0,1-.966-.29438c-.07766-.04-.13936.01913-.20926.03566-.10858.02569-.04025.25237-.19512.17015-.02686-.01426.00827-.21525.06208-.29992a15.27559,15.27559,0,0,1,.8688-1.297c.52892-.66947,1.06987-1.33343,1.65433-1.95392.62823-.667,1.30239-1.292,1.97461-1.91577a32.79273,32.79273,0,0,1,3.13708-2.47985c.30008-.217.60009-.434.90829-.64086a6.30256,6.30256,0,0,1,1.25615-.72031c.65524-.24864,1.18816-.71908,1.8613-.96361A1.88969,1.88969,0,0,1,53.83511,1.01166Z"/><path class="cls-10" d="M69.44919,53.30905c-.08576.14027.01028.33583-.13885.45683.25737.10361.107.32107.13243.48752.02825.18523.00342.34442-.24962.314-.14267-.01715-.24017.09195-.35935.13829a.1624.1624,0,0,0-.06531.23978.18367.18367,0,0,0,.2515.041.73487.73487,0,0,0,.15677-.15507c.05047-.05368.09874-.12836.18077-.10548.11947.03333.07957.1472.09268.23249.08238.53592-.13019,1.06337-.04747,1.601a.23265.23265,0,0,1-.08493.19736c-.23339.1121-.1471.25162-.05206.39439a.62425.62425,0,0,1,.07992.6792,2.09729,2.09729,0,0,0-.10215.9538,9.24358,9.24358,0,0,1-.18149,1.15463,19.92477,19.92477,0,0,1-.84-1.86995,19.269,19.269,0,0,0-1.16858-2.34451c-.3049-.47186-.55853-.98356-.86685-1.46118-.07509-.11631-.199-.15852-.25272-.27515a2.07573,2.07573,0,0,1,1.044-.65511c.422-.17743.82578-.38443,1.22847-.59748a.76681.76681,0,0,0,.53839-.393C68.92116,52.70718,69.30124,52.92349,69.44919,53.30905Z"/><path class="cls-1" d="M91.65065,8.37519a3.31283,3.31283,0,0,1-1.12584-.13726c-.4883-.06219-.94675-.94317-.80273-1.56257.25482-1.0959.53733-1.34334,1.68349-1.67583a1.36638,1.36638,0,0,1,.65855.06462,4.83645,4.83645,0,0,1,1.09623.40642,1.08239,1.08239,0,0,1,.57744,1.16127A1.94688,1.94688,0,0,1,91.65065,8.37519Z"/><path class="cls-1" d="M24.06906,82.11193a1.228,1.228,0,0,1,.96109-1.30887,4.37646,4.37646,0,0,1,2.42267-.06773.76447.76447,0,0,1,.50436.41184,4.26856,4.26856,0,0,1,.19618.40419c.14377.40169.42.91912.14,1.21329a1.77752,1.77752,0,0,1-1.28857.56943c-.49294-.006-.98286.09308-1.48608.086a3.943,3.943,0,0,1-.87068-.12121.775.775,0,0,1-.57651-.73561C24.05688,82.41413,24.06906,82.26243,24.06906,82.11193Z"/><path class="cls-1" d="M41.152,90.23762c.41855-.15919.81287.14831,1.24513.237.3122.064.40274.5361.27544.91256a1.66644,1.66644,0,0,1-1.67643.729,2.33881,2.33881,0,0,0-.54987-.07984.92964.92964,0,0,1-.76224-.60366.903.903,0,0,1,.38462-1.00029A1.61045,1.61045,0,0,1,41.152,90.23762Z"/><path class="cls-1" d="M95.36052,38.71234a1.00742,1.00742,0,0,1-1.03848-1.317c.08309-.28022.29615-.47372.38734-.7399A.18929.18929,0,0,1,94.837,36.558a2.50949,2.50949,0,0,1,1.45918-.11069.82005.82005,0,0,1,.43893,1.04475,2.09772,2.09772,0,0,1-.19829.46207A1.25329,1.25329,0,0,1,95.36052,38.71234Z"/><path class="cls-1" d="M34.42684,67.09291c1.08453.07978,1.49221.74134,1.17627,1.799a.27025.27025,0,0,1-.07778.13946c-.53507.38137-1.61266.53286-2.04517-.14305a1.44691,1.44691,0,0,1-.17215-1.32447c.09874-.25918.25716-.47165.57671-.42767C34.07274,67.16209,34.24056,67.02615,34.42684,67.09291Z"/><path class="cls-2" d="M25.97309,29.55125a5.11024,5.11024,0,0,1-.52368-.1653c-.1279-.05487-.19847-.045-.26739.081-.05005.09152-.12376.21627-.2523.14393-.11878-.06684.00664-.158.01708-.23981.01191-.0934-.033-.12923-.128-.085-.29658.13791-.50436-.08112-.73993-.18782.17182-.69093.76843-1.03029,1.22724-1.4837.42921.09934.55423.46114.69669.80789A2.82127,2.82127,0,0,0,25.97309,29.55125Z"/><path class="cls-11" d="M26.00276,28.4224c-.32136-.19239-.39889-.59517-.69669-.80789a1.3923,1.3923,0,0,1,1.73059-.26031C26.35236,27.43019,26.233,27.9753,26.00276,28.4224Z"/><path class="cls-11" d="M81.7911,35.56552a2.06422,2.06422,0,0,1,.0567-1.35722,4.137,4.137,0,0,0,.28142-1.59346c-.02817-.16608.07083-.23967.23077-.24a2.26173,2.26173,0,0,1-.04372,1.23706c-.15157.62548-.31329,1.24932-.447,1.87992C81.86321,35.52061,81.81806,35.54113,81.7911,35.56552Z"/><path class="cls-2" d="M34.14135,32.26253a.10085.10085,0,0,1-.09119-.10741c.0003-.0133.03682-.02578.05667-.03863l.02958.15036Z"/><path class="cls-2" d="M44.87967,27.17583a.1208.1208,0,0,1,.12528.07881C44.93422,27.27444,44.90387,27.23,44.87967,27.17583Z"/><path class="cls-5" d="M23.72375,41.99581l-.04192.07815-.02907-.05494.0791-.01359Z"/><path class="cls-12" d="M73.18282,26.92888a21.07083,21.07083,0,0,0-1.98634,1.87363,42.26251,42.26251,0,0,1-3.14615,3.03042A14.67062,14.67062,0,0,0,66.982,33.02806c-.47044.51255-.86016,1.10055-1.34162,1.60123-.42908.4462-.81544.92746-1.21017,1.3985-.31814.37966-.50523.85817-.81783,1.262-.57472.74253-1.02357,1.57808-1.54827,2.355-.36434.53945-.54448,1.146-.86265,1.69562a6.87657,6.87657,0,0,0-.64239,1.76183,10.97461,10.97461,0,0,0-.421,2.50084,5.00359,5.00359,0,0,1-.11875,1.17654,4.046,4.046,0,0,0-.05318,1.31369c.048.55062-.01112,1.0964.01818,1.64356.00487.09085-.04015.18456-.03427.27513.04136.63708.02375.66238-.56858.72284-.13531-.02007-.28358-.05883-.31687-.19867a19.3985,19.3985,0,0,1-.48693-2.15187,14.29009,14.29009,0,0,1-.09246-2.44254,23.39269,23.39269,0,0,1,.22151-2.662A11.60044,11.60044,0,0,1,59.6249,40.346c.36458-.79636.811-1.54914,1.19612-2.329.40756-.8253,1.0577-1.48973,1.4026-2.341.44038-.21009.38573-.89856.95269-.98749.01192-.00187.02617-.02072.03051-.03445.29453-.93,1.09237-1.47143,1.661-2.19181a20.02942,20.02942,0,0,1,2.02382-2.24605,32.228,32.228,0,0,1,2.74-2.6224,2.12565,2.12565,0,0,0,.29126-.32965c.64234-.70843,1.326-1.3755,1.996-2.05628.31164-.31666.56495-.68222.86537-1.01164a19.70842,19.70842,0,0,0,2.93923-4.3716,8.49025,8.49025,0,0,0,.50222-1.12124c.11648-.34371.44124-.542.5335-.9071.05841-.23111.36266-.12087.55036-.16741.06794-.01684.1004.18311.12649.31292a10.73848,10.73848,0,0,1-.14321,3.42663,4.54146,4.54146,0,0,1-1.19828,2.28931A16.68468,16.68468,0,0,1,74.477,25.54224,11.145,11.145,0,0,0,73.18282,26.92888Z"/><path class="cls-13" d="M73.40777,5.09015l-.03165.08635c-.08136-.073.01638-.05779.03912-.07953Z"/><path class="cls-13" d="M96.79137,84.36379l.042.03718c-.01453.01181-.02928.03309-.04353.03276s-.028-.02222-.042-.03466Z"/><path class="cls-13" d="M65.45313,117.92632c.029-.04186.07369-.08.11351-.03737.04449.04761-.00969.07768-.04941.101Z"/><polygon class="cls-2" points="71.887 9.995 71.899 10.03 71.867 10.026 71.887 9.995"/><path class="cls-2" d="M47.33225,10.92745a.54068.54068,0,0,1-.09355.0338c-.0089.00167-.02315-.02521-.03494-.039a.55683.55683,0,0,1,.09369-.03384C47.30624,10.88675,47.32047,10.9136,47.33225,10.92745Z"/></svg>