<svg width="120px" height="120px" viewBox="0 0 120 120" xmlns="http://www.w3.org/2000/svg"><defs><style>.cls-1{fill:#fdb94c;}.cls-2{fill:#fec657;}.cls-3{fill:#fffffe;}.cls-4{fill:#fff6e9;}.cls-5{fill:#fff8ef;}.cls-6{fill:#fec557;}.cls-7{fill:#819dd1;}.cls-8{fill:#577abd;}.cls-9{fill:#faa540;}.cls-10{fill:#2b3c58;}.cls-11{fill:#2b3c59;}.cls-12{fill:#f8c769;}.cls-13{fill:#f7c25c;}.cls-14{fill:#fbad53;}.cls-15{fill:#fff;}.cls-16{fill:#577bbd;}.cls-17{fill:#587bbd;}.cls-18{fill:#0e1c3d;}</style></defs><title>hs-huzzah-13</title><g id="Layer_2" data-name="Layer 2"><path class="cls-1" d="M7.2,74.85c.13-2,.26-4.07.37-6.11A88.93,88.93,0,0,1,9.52,56.46,24.1,24.1,0,0,1,14,46.41c.77-1,1.33-2.19,2.59-2.71.33-.14.65-.48,1-.16s.05.67-.06,1A38.29,38.29,0,0,1,15.86,48a17.08,17.08,0,0,0-1.47,5.47c-.08,1-.34,1.93-.46,2.91a22.23,22.23,0,0,0,.24,5.22,63.63,63.63,0,0,0,1.35,8.44A24.41,24.41,0,0,0,17.7,75a28.48,28.48,0,0,0,4.08,5.66A28.69,28.69,0,0,0,25.84,84a78.7,78.7,0,0,0,7,4.74,3.79,3.79,0,0,1,1.34,1.24.67.67,0,0,0,.39.37A3.89,3.89,0,0,1,37.15,93a1.06,1.06,0,0,0,.43.46,6.49,6.49,0,0,1,2.22,3.39.73.73,0,0,1,0,.54,12.12,12.12,0,0,1-5.48,3.33,39.34,39.34,0,0,1-7,.9,7.13,7.13,0,0,1-2-.08c-1.71-.36-3.43-.69-5.14-1a7.6,7.6,0,0,1-2.19-.94,3.09,3.09,0,0,0-1.38-.45,8.94,8.94,0,0,1-3-2.3,23.31,23.31,0,0,1-4.87-6,2.35,2.35,0,0,1-.29-.67A4.22,4.22,0,0,0,8,88c-.25-.51.16-1,0-1.44A30.82,30.82,0,0,1,7.3,79a.37.37,0,0,0-.1-.25v-1.1a1.91,1.91,0,0,0,0-1.29Z"/><path class="cls-2" d="M8.47,90.14a29.33,29.33,0,0,0,8,8.83,3.13,3.13,0,0,0,1.48,1.18,32.36,32.36,0,0,0,4.94,1.4,20.81,20.81,0,0,0,9,.16c2.46-.38,5.08-.67,7.11-2.49a2.11,2.11,0,0,1,1.39-.64c.32.25.26.6.22.93a7,7,0,0,0,0,2.19c.1.53-.39.81-.5,1.24a9,9,0,0,1-2.22,3.63,6.37,6.37,0,0,0-1.77,3.54,6.62,6.62,0,0,1-3.58.89,41.28,41.28,0,0,1-4.84-.24c-2.35-.15-4.62-.78-7-.87-4.2-1.34-8-3.31-10.52-7.1-.22-.34-.66-.43-.73-.85.09-.08-.05,0,.05,0s0,0,0,.07A8.21,8.21,0,0,1,7.2,97v-.18a2.15,2.15,0,0,0,0-1.48v-.74a15.18,15.18,0,0,0,.31-2.13A2.7,2.7,0,0,1,8.47,90.14Z"/><path class="cls-3" d="M8.47,90.14C7.56,91.48,8,93.21,7.2,94.57V78.72c.26,2.18.46,4.36.79,6.52A26.08,26.08,0,0,1,8.47,90.14Z"/><path class="cls-4" d="M7.2,95.31a1.16,1.16,0,0,1,0,1.48Z"/><path class="cls-5" d="M7.2,76.33a1,1,0,0,1,0,1.29Z"/><path class="cls-6" d="M39.64,97.31c-.53-1.43-.86-2.93-2.55-3.64-.51-.21-.29-1.29-1-1.89a47.49,47.49,0,0,0-6.63-4.93c-5.11-3.26-9.67-7-12.54-12.59-2.15-4.2-2.47-8.68-3.13-13.16A27.77,27.77,0,0,1,15,49.39a34.47,34.47,0,0,1,2.23-4.88c.12-.27.22-.54.33-.82h-1a15.87,15.87,0,0,1,4.84-3.28c2.94-1.21,5.81-2.58,8.72-3.84a25.47,25.47,0,0,1,2.47-.81,3.21,3.21,0,0,1,1.89-.11,28.64,28.64,0,0,0,14.07-1.31,6,6,0,0,0,3.24-2.86,3.07,3.07,0,0,0,.24-2.33c-.41-1.41-.53-2.88-1-4.28a16.93,16.93,0,0,0-.93-2.19c-.08-.17-.14-.38-.35-.39-.56,0-.79-.26-.64-.82a.25.25,0,0,0-.21-.33c-.36-.09-.32-.33-.2-.57.45-.86,0-1.47-.55-2-.35-.38-.82-.66-1-1.19,1-2.54,3-4,5.22-5.32a50.52,50.52,0,0,0,7.74-6.34c2.58-2.35,5.47-4.39,9.1-4.83C70,.76,71.1.63,71,2.13a21.36,21.36,0,0,0,0,4.23,4.88,4.88,0,0,1-.37,2c-.7,2.21.69,2.81,2.15,3.5a2,2,0,0,1,.4.36c-.31.37-.86.33-1.13.94s-.53,1.25,0,1.88c.14.16.06.35,0,.53s-.2.42-.1.52c.68.72.3,1.24-.24,1.79a.46.46,0,0,0,0,.61.86.86,0,0,1,0,1.3c-.57.72-.26,1.55-.4,2.32-.07.35.26.32.49.39.42.12.51.39.1.62-.85.49-.38,1.25-.41,1.89,0,.37.27.21.46.13s.37-.16.51,0a.35.35,0,0,1,0,.51c-1.12.87-.4,1.68-.07,2.64A9.45,9.45,0,0,0,75,32.12c.84.8,1.31,1.92,2.32,2.6.5.34,1.18.34,1.58.86-.75,2.44-3,2.86-5,3.5a12.28,12.28,0,0,0-3.69,1.7,7.42,7.42,0,0,1-3.53.18,24.45,24.45,0,0,1-5.22-1.35c-1.11-.36-1.79-1.36-2.81-1.85a6.25,6.25,0,0,0-.89-.46,4.51,4.51,0,0,0-1.39-.44c-1.5,0-2,.54-2.14,2.32A4.87,4.87,0,0,0,54.52,41c.39,1.32.88,2.61,1.3,3.91a7.81,7.81,0,0,0,1.25,2.35c2.16,2.83,4.62,5.33,8.22,6.32.3.08.61.15.76.47a11.64,11.64,0,0,1-1.41,3.31c-1.29,2.19-3.21.69-4.59.57a34.66,34.66,0,0,1-7.84-1.27,8.31,8.31,0,0,1-4.43-3.51,49.23,49.23,0,0,0-4.6-5.22A.79.79,0,0,0,42,48a1.87,1.87,0,0,0,.07,1.51A58.29,58.29,0,0,0,47,55.73c2,2,4.71,2.52,7.42,2.6,3.25.1,6.49.88,9.73.38A22.59,22.59,0,0,1,74.48,60a6.6,6.6,0,0,1-2.07,2.7,73.49,73.49,0,0,1-8,6.42c-.48.33-.46.73-.56,1.15a1.1,1.1,0,0,1-.57.45C59.58,72.18,56,74.06,52,74.77a36.51,36.51,0,0,1-4.57.51c-.15,0-.4,0-.42.09s.22.25.37.3A5.75,5.75,0,0,0,48.9,76a29.23,29.23,0,0,0,5,.3,3.68,3.68,0,0,1,2.47.41L52.54,87a.44.44,0,0,1-.5-.12,2.9,2.9,0,0,0-2.94-.54,2.59,2.59,0,0,0-3,1.94c-.59,1.71-1.72,3.18-2.19,5a2.13,2.13,0,0,1-.83,1.29,5.24,5.24,0,0,0-2.18,1.86C40.61,96.8,40.36,97.4,39.64,97.31Z"/><path class="cls-7" d="M76.33,109.13a7.57,7.57,0,0,1-3-3.36,15,15,0,0,1-1.62-5.83,20.58,20.58,0,0,1,.57-6,56.1,56.1,0,0,1,3.83-8.88,19.05,19.05,0,0,0,1-2.5c.35-1.17.77-1,1.62-.37,2.29,1.8,4.66,3.49,7,5.21.34.25.89.54,1.17.21s-.27-.63-.52-.87q-3.46-3.23-6.95-6.42l-.28-.22c.09,0,.19-.12.28-.12,2.8.18,5.62.27,8.4.61.73.08,0,.83-.12,1.24-.13.57-.94,1.31-.36,1.63s1.21-.44,1.58-1.13c1.21-2.28,2.36-4.59,3.76-6.75a3.46,3.46,0,0,1,5-.62,9.39,9.39,0,0,0,.95.71c1.7.92,1.32,2,.19,3-.31-.78-.87-.89-1.58-.59a1.14,1.14,0,0,0-.82.35c-.9.91-1.9,1.72-2.81,2.62a37.31,37.31,0,0,1-3.86,3.36c-.64.48-.64.68,0,1.12a5.06,5.06,0,0,0,3.41.76c1.22.14,1.71-.81,2.36-1.55.21-.23.27-.71.77-.54l6.18,5.13a9.1,9.1,0,0,1-3.41,0l-5.48-.27a11.41,11.41,0,0,0-3.32.58c-.9.09-1.27.75-1.57,1.48-.93,2.3-1.8,4.64-2.9,6.85-1.46,2.92-2.67,6-5,8.45A7.87,7.87,0,0,1,76.33,109.13Z"/><path class="cls-8" d="M76.33,109.13c4.38-1.58,6.29-5.3,8.22-9.14,1.56-3.11,2.69-6.39,4.21-9.51a1.31,1.31,0,0,1,1.22-.9,14.88,14.88,0,0,0,5.34.61c2.35.08,4.7.38,7.06.3a.64.64,0,0,1,.5.18,46.68,46.68,0,0,1-3.34,8.23,46,46,0,0,1-4.7,8.16c-1,1.34-2.73,1.63-4.11,2.44-.16.68-.79.43-1.21.61a5,5,0,0,0-2.07.6,11.34,11.34,0,0,1-6.57.43A9,9,0,0,1,77,109.9c-.23-.18-.57-.24-.63-.6A.25.25,0,0,0,76.33,109.13Z"/><path class="cls-9" d="M78.89,35.58A3.89,3.89,0,0,1,76,33.8c-1-1.56-2.68-2.59-3.37-4.4-.32-.82-.67-1.63-1-2.45-.18-.46-.33-.9.4-1.08.2-.05.31-.42.46-.65a6,6,0,0,0-.57.28c-1,.59-.6-.13-.57-.57,0-.74-.76-1.73.64-2.07,0,0,0-.21,0-.23a2.36,2.36,0,0,1-.71-2.54c.27-.49,1-.87.13-1.54a1,1,0,0,1,.44-1.37c.6-.25.82-.37,0-.55-.09,0-.21-.42-.14-.55.33-.68-.17-1.24-.22-1.86-.1-1.25.33-2,1.7-2.05,1,.73,2.24,1.26,2.87,2.21,1.72,2.57,4,2.61,6.56,2,1.85-.46,3.6.16,5.3.75,1.06.37.7,1.09.13,1.64A37.73,37.73,0,0,0,82.68,26c-1.39,2.19-2,4.93-2.8,7.46A7.31,7.31,0,0,1,78.89,35.58Z"/><path class="cls-9" d="M47.2,17.34c.86,1,2.78,1.51,1.66,3.5-.12.2.17,0,.27,0s.43,0,.44,0c.82,2.41,2.13,4.6,2.55,7.22.34,2.12.18,3.68-1.36,5.2s-3.44,1.71-5.29,2.2a31.74,31.74,0,0,1-12.84.28c1.65-1.07,3.62-1.49,5.22-2.74a17.3,17.3,0,0,0,4.36-5.47c1.27-2.33,2.37-4.75,3.53-7.13C46.24,19.4,46.72,18.37,47.2,17.34Z"/><path class="cls-10" d="M49,86.1a3,3,0,0,1,3.5.9C54,88.59,53.81,90.59,54,92.5a3.16,3.16,0,0,0,0,1h0a9.28,9.28,0,0,1-.89,4.59,32,32,0,0,1-4.55,7.17c-.1.11-.29.2-.24.36s.26.14.41.14c2.56,0,5.13.28,7.67-.3a6.79,6.79,0,0,1,1.19-.07,2.88,2.88,0,0,0,2.1-.76.79.79,0,0,1,1.16-.09c1.92.4,3.92.58,5.62,1.73.33.22.84.31.76.88s-.66.39-1,.53c-2.24,1-4.59.27-6.89.38-2.81.14-5.62.38-8.42.27-1.82-.08-3.71.24-5.5-.53-.33-.14-1,.25-1.38.52-3.43,2.21-7.28,2.94-11.27,3.23a2.18,2.18,0,0,0-1.29,0h0c-.61.19-1.18-.19-1.79-.14a46.69,46.69,0,0,1-7.73-.79,6.05,6.05,0,0,1-1.36-.7c1.88-.62,3.62.38,5.45.49,3.3.19,6.6.88,9.85-.35a.75.75,0,0,1,.53-.33,16.12,16.12,0,0,0,7.3-4.06,21.74,21.74,0,0,0,4.47-5.32c.49-.81,1.17-1.49,1.68-2.3a4.59,4.59,0,0,0,.68-1.69,28.75,28.75,0,0,0,.54-6.14c-.06-1.48-.42-2.86-1.95-3.58C49,86.52,48.87,86.35,49,86.1Z"/><path class="cls-9" d="M63.79,70.08c-.15-.42-.25-.73.26-1.09,3.77-2.67,7.49-5.41,10.43-9,3.33.8,5.27,3.24,7.14,5.86a23,23,0,0,1,2.45,5,1.69,1.69,0,0,1-.6,2.24c-1.61,1.18-4.75,1.47-5.86.53.43-.31.9,0,1.34-.09s.63,0,.35-.54a9,9,0,0,0-3.09-3.64,2.66,2.66,0,0,1-.71-.58A2.55,2.55,0,0,0,73.35,68a19.56,19.56,0,0,0-7,1.54c-.51.2-1,.36-1.56.54C64.44,70.14,64.12,70.32,63.79,70.08Z"/><path class="cls-1" d="M66.05,54c-4.91-1.15-8.2-4.4-10.32-8.7-1-2-2-4.16-1.7-6.53.23-2.18,1.53-2.79,3.68-1.79a2.34,2.34,0,0,0,.3,2.43,18.13,18.13,0,0,0,9.22,6.73c.34.12.73.16,1,.48A34.49,34.49,0,0,1,66.05,54Z"/><path class="cls-10" d="M76.36,109.3a14.18,14.18,0,0,0,11,1.22c.68-.5,1.56-.28,2.27-.65l1.08-.37,9.88,1.66s.07,0,.09,0c.81.47,2.5.22,2.39,1.24-.13,1.24-1.76.81-2.71.91a73.91,73.91,0,0,1-12.71-.17c-3.51-.22-7-.79-10.48-1.27a12,12,0,0,1-2.5-.75c-.39-.14-.81-.41-.75-.92.08-.69.74-.72,1.21-.86A4.87,4.87,0,0,1,76.36,109.3Z"/><path class="cls-10" d="M63.79,70.08c2.62-.78,5.11-2,7.88-2.32,2.09-.27,5.1.81,6.25,2.53.62.94,1.35,1.8,2,2.72.29.43.06.73-.41.72-.63,0-1.26-.11-1.89-.17h0c-.24-.16-.59-.17-.75-.46a16.66,16.66,0,0,0-3.87-4c-.8-.53-1.77.08-2.51.32-2.93.94-5.79,2.12-8.66,3.25-1.54.6-3.32.79-4.28,2.44-.33.57-.75,1.08-1.14,1.63a65.77,65.77,0,0,1-8.87-.61,5.37,5.37,0,0,1-1.44-.82c.32-.51.82-.23,1.23-.24C53.27,74.9,58.54,72.53,63.79,70.08Z"/><path class="cls-2" d="M60.88,104.5a12.4,12.4,0,0,1-4.68,1.31,65.14,65.14,0,0,1-8.26.19.78.78,0,0,1-.3-.13,2.3,2.3,0,0,1,.33-.52c2.32-2.13,3.59-5,5.1-7.63.74-1.29.71-2.82,1-4.26.52,1.88-.29,3.56-.87,5.26-.18.52-.18.71.45.8,2.12.33,4.27.46,6.2,1.66A2.33,2.33,0,0,1,60.88,104.5Z"/><path class="cls-10" d="M68.2,46.66c-3.81-.79-6.79-3-9.43-5.71a8.29,8.29,0,0,1-1.5-2.08c-.3-.62-.57-1.44.44-1.85,1.42.21,2.16,1.52,3.36,2.06a19.8,19.8,0,0,0,9.18,1.7c-1.39,1.5-1.51,3.42-1.77,5.29A2,2,0,0,1,68.2,46.66Z"/><path class="cls-11" d="M109.52,91.42c0,1.42-.1,2.67-2.07,2.25-.35-.07-.67-.14-.83-.45s0-.66.28-1a.77.77,0,0,0,.13-.72c-1-1.55-.45-3.63-1.77-5.06-.05-.06,0-.33,0-.34a2.1,2.1,0,0,1,2.14.16A7,7,0,0,1,109.52,91.42Z"/><path class="cls-11" d="M102.88,90.67c-3.94-.11-7.87-.21-11.8-.38-.38,0-.73-.46-1.1-.71,2.93-1.32,6-.44,9-.45a34.79,34.79,0,0,1,3.52.29c.26.39,1-.13,1.05.46C103.53,90.13,103.1,90.41,102.88,90.67Z"/><path class="cls-11" d="M96.28,84.29c-1,.87-1.36,2.58-3.16,2.34a1,1,0,0,1-.18-1.38c1.4-2.33,2.53-4.8,4-7.07a.49.49,0,0,1,.2-.18c.82-.35,1.69-.82,1.59.75A24,24,0,0,0,96.28,84.29Z"/><path class="cls-11" d="M108.24,83.55c1.19-.55,1.87.32,2.51,1a17.7,17.7,0,0,1,1.86,2.59c.23.38.58,1,.19,1.32a2.11,2.11,0,0,1-1.94.55,1.35,1.35,0,0,1-1.06-1.27c-.07-1.18-1-2-1.48-3a2.85,2.85,0,0,1-.12-.72C108.21,83.9,108.12,83.72,108.24,83.55Z"/><path class="cls-12" d="M29.75,111.38l1.79.14C30.91,111.93,30.35,111.47,29.75,111.38Z"/><path class="cls-2" d="M54,93.47a.67.67,0,0,1,0-1C54.14,92.82,54.4,93.14,54,93.47Z"/><path class="cls-13" d="M31.52,111.53a1.1,1.1,0,0,1,1.29,0Z"/><path class="cls-14" d="M76.87,73.11l.75.46C77.28,73.57,77,73.53,76.87,73.11Z"/><path class="cls-15" d="M39.64,97.31c.81-.83,1.59-1.67,2.42-2.47a3.23,3.23,0,0,1,.85-.43c.34.2.29.53.2.81a5.4,5.4,0,0,1-2.73,3.43c-4.67,3.63-10.18,4-15.69,3.54a18.47,18.47,0,0,1-7.52-2.08c-.43-.24-1-.45-.75-1.14.87-.47,1.36.34,2,.59a25.64,25.64,0,0,0,15.13,1.07A15.25,15.25,0,0,0,39.64,97.31Z"/><path class="cls-9" d="M40.38,98.65c1-1.31,2.7-2.22,2.53-4.24.88-1.84,1.79-3.68,2.65-5.53.7-1.52,1.28-3.15,3.48-2.78,4.39,3.18,2.24,7.47,1.49,11.21-.41,2.09-2.37,4-3.85,5.75a22,22,0,0,1-7.44,6A9.75,9.75,0,0,1,36,110c-.24-1.74.91-2.84,1.92-3.92C39.87,104,40.39,101.42,40.38,98.65Z"/><path class="cls-10" d="M32.34,62.75c3.52.33,5.69,2.28,7.25,5a29,29,0,0,1,3.58,11.89,40.8,40.8,0,0,1,.17,6.9c-.07.83-.07,1.78-1.1,1.92-1.2.15-1.42-.87-1.43-1.74A46.48,46.48,0,0,0,39.67,76.4a25.47,25.47,0,0,0-5.81-11.46c-1.45-1.58-3.27-.73-5-.09-2.77,1-4.92,3.11-7.55,4.37a2,2,0,0,1-2.2-.06c-.42-.43.51-1,.94-1.32,3.57-2.47,7.24-4.72,11.75-5A2.11,2.11,0,0,0,32.34,62.75Z"/><path class="cls-10" d="M69.43,5.09a39,39,0,0,1,.35,4c0,1-.34,1.92-1.82,1.45-1.74-.55-3.57-.81-5.29-1.39-.8-.27-.83-1.08-.28-1.78a12.2,12.2,0,0,1,6.38-4C70.18,3,69.05,4.74,69.43,5.09Z"/><path class="cls-10" d="M60.88,33.44c.81-.15.58.84.9,1.26,1.42,1.87,3.41,1.52,5.33,1.54a5,5,0,0,1,3,.66c.23.17.8.2.56.64a.92.92,0,0,1-.89.23c-2.25-1.32-4.74,0-7-.71-1.45-.43-2.6-1.14-2.79-2.86C59.93,33.57,60.21,33.48,60.88,33.44Z"/><path class="cls-10" d="M68.4,30.52c1.47.59,3,1.1,4.4,1.8.47.24.12.94-.24,1.18a3.36,3.36,0,0,1-3.32.51,3.28,3.28,0,0,1-1.57-2.89C67.6,30.52,67.91,30.55,68.4,30.52Z"/><path class="cls-10" d="M67.3,22.1a3.07,3.07,0,0,1-3,2.57,1.05,1.05,0,0,1-1-1.25,2.82,2.82,0,0,1,2.91-2.29C66.74,21.17,67.29,21.32,67.3,22.1Z"/><path class="cls-16" d="M83.78,94.05c-.54,2.24-2,4-3.23,5.86a1.75,1.75,0,0,1-2.49.22c-.82-.74.24-1.35.52-1.95.63-1.34,1.44-2.59,2.17-3.89.32-.59.12-1-.48-1.24s-.5.35-.68.64c-.75,1.19-1.15,2.6-2.25,3.57a1.23,1.23,0,0,1-1.41.36c-.71-.35-1.22-.87-.48-1.67,1.19-1.27,1.42-3.68,4-3.27.53.08.15-.3,0-.51s-.33-.52-.26-.69a.77.77,0,0,1,.64-.38,7.82,7.82,0,0,1,3.78,2.42C83.75,93.62,83.73,93.84,83.78,94.05Z"/><path class="cls-17" d="M97.17,78a44,44,0,0,0-2.8,5.35c-.4,1.1-1.89,1.81-1.25,3.28-.7,0-1.52.15-2.06-.16-.76-.44-2.56-.24-1.89-1.83.3-.73,1.42-1.15,2.1-1.82,1.53-1.52,3.17-2.93,4.78-4.37C96.36,78.17,96.61,77.69,97.17,78Z"/><path class="cls-18" d="M85.59,18.22l1.3.09a3.89,3.89,0,0,1-.62,1c-1.35,1.18-2,2.84-3.1,4.24-.28.37-.41.78-.69-.06a5.38,5.38,0,0,0-1.12-2.14c-1.84-1.93.45-2,1.29-2.42A11.42,11.42,0,0,1,85.59,18.22Z"/><path class="cls-10" d="M76.24,31.07c-.17,0-.59-.2-.47-1a2.49,2.49,0,0,1,2.61-2.2c.51,0,1.28-.07,1.2.6C79.4,30,78.42,30.9,76.24,31.07Z"/></g></svg>