<?xml version="1.0" encoding="utf-8"?>
<!-- Uploaded to SVGRepo https://www.svgrepo.com -->
<svg version="1.1" xmlns="http://www.w3.org/2000/svg" xmlns:xlink="http://www.w3.org/1999/xlink" x="0px" y="0px"
	 viewBox="0 0 200 200" style="enable-background:new 0 0 200 200;" xml:space="preserve">
<style type="text/css">
	.st0{fill:#288252;stroke:#1D2B36;stroke-width:4;stroke-linejoin:round;stroke-miterlimit:10;}
	.st1{fill:none;stroke:#1D2B36;stroke-width:4;stroke-linecap:round;stroke-linejoin:round;stroke-miterlimit:10;}
	.st2{fill:#4BC27D;stroke:#1D2B36;stroke-width:4;stroke-miterlimit:10;}
	.st3{fill:#C4F0CE;}
	.st4{fill:#359E64;}
	.st5{fill:#394956;stroke:#1D2B36;stroke-width:4;stroke-linecap:round;stroke-linejoin:round;stroke-miterlimit:10;}
	.st6{fill:#FFC646;stroke:#1D2B36;stroke-width:4;stroke-linecap:round;stroke-linejoin:round;stroke-miterlimit:10;}
	.st7{fill:#FFD56D;stroke:#1D2B36;stroke-width:4;stroke-linecap:round;stroke-linejoin:round;stroke-miterlimit:10;}
	.st8{fill:#F5B126;stroke:#1D2B36;stroke-width:4;stroke-linecap:round;stroke-linejoin:round;stroke-miterlimit:10;}
	.st9{fill:#4F5D6B;}
	.st10{fill:#FFFFFF;stroke:#1D2B36;stroke-width:4;stroke-miterlimit:10;}
	.st11{fill:#7F83E4;stroke:#1D2B36;stroke-width:4;stroke-miterlimit:10;}
	.st12{fill:none;stroke:#7F83E4;stroke-width:4;stroke-linecap:round;stroke-miterlimit:10;}
	.st13{fill:#D79400;}
	.st14{fill:#D79400;stroke:#1D2B36;stroke-width:4;stroke-linecap:round;stroke-linejoin:round;stroke-miterlimit:10;}
	.st15{fill:#FFE8B5;stroke:#1D2B36;stroke-width:4;stroke-linecap:round;stroke-linejoin:round;stroke-miterlimit:10;}
	.st16{fill:#FFE8B5;}
	.st17{fill:#B37100;}
	.st18{fill:#E3E8EB;stroke:#1D2B36;stroke-width:4;stroke-linecap:round;stroke-linejoin:round;stroke-miterlimit:10;}
	.st19{fill:#D6DDE3;}
	.st20{fill:#C1CBD4;}
	.st21{fill:#FFFFFF;}
	.st22{fill:#E3E8EB;}
	.st23{fill:#B37100;stroke:#1D2B36;stroke-width:4;stroke-linejoin:round;stroke-miterlimit:10;}
	.st24{fill:#4BC27D;stroke:#1D2B36;stroke-width:4;stroke-linecap:round;stroke-linejoin:round;stroke-miterlimit:10;}
	.st25{fill:#D6DDE3;stroke:#1D2B36;stroke-width:4;stroke-linecap:round;stroke-linejoin:round;stroke-miterlimit:10;}
	.st26{fill:#FFFFFF;stroke:#1D2B36;stroke-width:4;stroke-linecap:round;stroke-linejoin:round;stroke-miterlimit:10;}
	.st27{fill:#3197D6;stroke:#1D2B36;stroke-width:4;stroke-linecap:round;stroke-linejoin:round;stroke-miterlimit:10;}
	.st28{fill:#237AB3;}
	.st29{fill:#1F5E89;stroke:#1D2B36;stroke-width:4;stroke-miterlimit:10;}
	.st30{fill:#237AB3;stroke:#1D2B36;stroke-width:4;stroke-miterlimit:10;}
	.st31{fill:#1F5E89;}
	.st32{fill:#237AB3;stroke:#1D2B36;stroke-width:4;stroke-linecap:round;stroke-miterlimit:10;}
	.st33{fill:#E3E8EB;stroke:#1D2B36;stroke-width:4;stroke-miterlimit:10;}
	.st34{fill:#F1F3F5;stroke:#1D2B36;stroke-width:4;stroke-linecap:round;stroke-linejoin:round;stroke-miterlimit:10;}
	.st35{fill:#A5B2BD;}
	.st36{fill:#FFC646;stroke:#1D2B36;stroke-width:4;stroke-linecap:round;stroke-miterlimit:10;}
	.st37{fill:#F5B126;}
	.st38{fill:none;stroke:#A3A6F1;stroke-width:4;stroke-linecap:round;stroke-linejoin:round;stroke-miterlimit:10;}
	.st39{fill:none;stroke:#6A6DC7;stroke-width:4;stroke-linecap:round;stroke-linejoin:round;stroke-miterlimit:10;}
	.st40{fill:none;stroke:#F5B126;stroke-width:4;stroke-linecap:round;stroke-linejoin:round;stroke-miterlimit:10;}
	.st41{fill:none;stroke:#C4F0CE;stroke-width:4;stroke-linecap:round;stroke-linejoin:round;stroke-miterlimit:10;}
	.st42{fill:none;stroke:#4BC27D;stroke-width:4;stroke-linecap:round;stroke-linejoin:round;stroke-miterlimit:10;}
	.st43{fill:none;stroke:#FFFFFF;stroke-width:4;stroke-linecap:round;stroke-linejoin:round;stroke-miterlimit:10;}
	.st44{fill:none;stroke:#D6DDE3;stroke-width:4;stroke-linecap:round;stroke-linejoin:round;stroke-miterlimit:10;}
	.st45{fill:#E52F28;stroke:#1D2B36;stroke-width:4;stroke-linecap:round;stroke-linejoin:round;stroke-miterlimit:10;}
	.st46{fill:#FFA2A2;stroke:#1D2B36;stroke-width:4;stroke-linecap:round;stroke-linejoin:round;stroke-miterlimit:10;}
	.st47{fill:none;stroke:#FFE3E2;stroke-width:4;stroke-linecap:round;stroke-linejoin:round;stroke-miterlimit:10;}
	.st48{fill:none;stroke:#D21B14;stroke-width:4;stroke-linecap:round;stroke-linejoin:round;stroke-miterlimit:10;}
	.st49{fill:none;stroke:#BA1F19;stroke-width:4;stroke-linecap:round;stroke-linejoin:round;stroke-miterlimit:10;}
	.st50{fill:none;stroke:#FFC646;stroke-width:4;stroke-linecap:round;stroke-miterlimit:10;}
	.st51{fill:none;stroke:#3197D6;stroke-width:4;stroke-linecap:round;stroke-miterlimit:10;}
	.st52{fill:none;stroke:#E3E8EB;stroke-width:4;stroke-linecap:round;stroke-linejoin:round;stroke-miterlimit:10;}
	.st53{fill:none;stroke:#AEDFFF;stroke-width:4;stroke-linecap:round;stroke-miterlimit:10;}
	.st54{fill:none;stroke:#FFE8B5;stroke-width:4;stroke-linecap:round;stroke-miterlimit:10;}
	.st55{fill:none;stroke:#D79400;stroke-width:4;stroke-linecap:round;stroke-miterlimit:10;}
	.st56{fill:#B37100;stroke:#1D2B36;stroke-width:4;stroke-linecap:round;stroke-linejoin:round;stroke-miterlimit:10;}
	.st57{fill:#875200;}
	.st58{fill:none;stroke:#FFFDF6;stroke-width:4;stroke-linecap:round;stroke-miterlimit:10;}
	.st59{fill:#72808E;stroke:#1D2B36;stroke-width:4;stroke-linecap:round;stroke-linejoin:round;stroke-miterlimit:10;}
	.st60{fill:#D6DDE3;stroke:#1D2B36;stroke-width:4;stroke-linecap:round;stroke-miterlimit:10;}
	.st61{fill:none;stroke:#C1CBD4;stroke-width:4;stroke-linecap:round;stroke-miterlimit:10;}
	.st62{fill:#72808E;stroke:#1D2B36;stroke-width:4;stroke-linecap:round;stroke-miterlimit:10;}
	.st63{fill:#F9FAFA;stroke:#1D2B36;stroke-width:4;stroke-linecap:round;stroke-miterlimit:10;}
	.st64{fill:#E3E8EB;stroke:#1D2B36;stroke-width:4;stroke-linecap:round;stroke-miterlimit:10;}
	.st65{fill:#93A1AF;}
	.st66{fill:none;stroke:#FFFFFF;stroke-width:4;stroke-linecap:round;stroke-miterlimit:10;}
	.st67{fill:#4F5D6B;stroke:#1D2B36;stroke-width:4;stroke-miterlimit:10;}
	.st68{fill:#93A1AF;stroke:#1D2B36;stroke-width:4;stroke-miterlimit:10;}
	.st69{fill:#FFFFFF;stroke:#D79400;stroke-width:4;stroke-linecap:round;stroke-miterlimit:10;}
	.st70{fill:none;stroke:#F5B126;stroke-width:4;stroke-linecap:round;stroke-miterlimit:10;}
	.st71{fill:#EDDD38;stroke:#272822;stroke-width:4;stroke-linejoin:round;stroke-miterlimit:10;}
	.st72{fill:#F45B55;}
	.st73{fill:#FFE3E2;}
	.st74{fill:#F1F1F0;stroke:#272822;stroke-width:4;stroke-linecap:round;stroke-linejoin:round;stroke-miterlimit:10;}
	.st75{fill:#FFD56D;}
	.st76{fill:#D21B14;}
	.st77{fill:#FFFFFF;stroke:#1D2B36;stroke-width:4;stroke-linejoin:round;stroke-miterlimit:10;}
	.st78{fill:#4BC27D;stroke:#1D2B36;stroke-width:4;stroke-linejoin:round;stroke-miterlimit:10;}
	.st79{fill:none;stroke:#359E64;stroke-width:4;stroke-linejoin:round;stroke-miterlimit:10;}
	.st80{fill:none;stroke:#E3E8EB;stroke-width:4;stroke-linejoin:round;stroke-miterlimit:10;}
	.st81{fill:none;stroke:#FFC646;stroke-width:4;stroke-linecap:round;stroke-linejoin:round;stroke-miterlimit:10;}
	.st82{fill:#7F83E4;stroke:#253540;stroke-width:4;stroke-linecap:round;stroke-miterlimit:10;}
	.st83{fill:none;stroke:#253540;stroke-width:4;stroke-linecap:round;stroke-miterlimit:10;}
	.st84{fill:#B4C0CA;}
	.st85{fill:none;stroke:#AEDFFF;stroke-width:4;stroke-linecap:round;stroke-linejoin:round;stroke-miterlimit:10;}
	.st86{fill:none;stroke:#93A1AF;stroke-width:4;stroke-linecap:round;stroke-linejoin:round;stroke-miterlimit:10;}
	.st87{fill:none;stroke:#1D2B36;stroke-width:4;stroke-linecap:round;stroke-miterlimit:10;}
	.st88{fill:none;stroke:#FFE8B5;stroke-width:4;stroke-linecap:round;stroke-linejoin:round;stroke-miterlimit:10;}
	.st89{fill:none;stroke:#FFD56D;stroke-width:4;stroke-linecap:round;stroke-linejoin:round;stroke-miterlimit:10;}
	.st90{fill:#7F83E4;stroke:#1D2B36;stroke-width:4;stroke-linecap:round;stroke-miterlimit:10;}
	.st91{fill:#F1F3F5;}
	.st92{fill:#E52F28;}
	.st93{fill:#C1CBD4;stroke:#1D2B36;stroke-width:4;stroke-miterlimit:10;}
	.st94{fill:#875200;stroke:#1D2B36;stroke-width:4;stroke-miterlimit:10;}
	.st95{fill:#D79400;stroke:#1D2B36;stroke-width:4;stroke-linecap:round;stroke-miterlimit:10;}
	.st96{fill:#F7FCFE;stroke:#1D2B36;stroke-width:4;stroke-miterlimit:10;}
	.st97{fill:#F7FCFE;stroke:#1D2B36;stroke-width:4;stroke-linecap:round;stroke-miterlimit:10;}
	.st98{fill:#AEDFFF;stroke:#1D2B36;stroke-width:4;stroke-linecap:round;stroke-linejoin:round;stroke-miterlimit:10;}
	.st99{fill:none;stroke:#1F5E89;stroke-width:4;stroke-miterlimit:10;}
	.st100{fill:#DAF1FF;}
	.st101{fill:#AEDFFF;}
	.st102{fill:#71BFF1;}
	.st103{fill:none;stroke:#71BFF1;stroke-width:4;stroke-linecap:round;stroke-linejoin:round;stroke-miterlimit:10;}
	.st104{fill:#F1F3F5;stroke:#1D2B36;stroke-width:4;stroke-miterlimit:10;}
	.st105{fill:#394956;stroke:#1D2B36;stroke-width:4;stroke-miterlimit:10;}
	.st106{fill:none;stroke:#72808E;stroke-width:4;stroke-linecap:round;stroke-miterlimit:10;}
	.st107{fill:#2A3B47;}
	.st108{fill:#3CB170;stroke:#1D2B36;stroke-width:4;stroke-linecap:round;stroke-miterlimit:10;}
	.st109{fill:#4BC27D;stroke:#1D2B36;stroke-width:4;stroke-linecap:round;stroke-miterlimit:10;}
	.st110{fill:#3CB170;}
	.st111{fill:#FF9139;stroke:#1D2B36;stroke-width:4;stroke-linecap:round;stroke-miterlimit:10;}
	.st112{fill:none;stroke:#C1CBD4;stroke-width:4;stroke-linecap:round;stroke-linejoin:round;stroke-miterlimit:10;}
	.st113{fill:#E52F28;stroke:#FFE8B5;stroke-width:4;stroke-linecap:round;stroke-miterlimit:10;}
	.st114{fill:#394956;stroke:#1D2B36;stroke-width:4;stroke-linejoin:round;stroke-miterlimit:10;}
	.st115{fill:#E52F28;stroke:#1D2B36;stroke-width:4;stroke-linejoin:round;stroke-miterlimit:10;}
	.st116{fill:#FFC646;stroke:#1D2B36;stroke-width:4;stroke-miterlimit:10;}
	.st117{fill:#3197D6;stroke:#1D2B36;stroke-width:4;stroke-miterlimit:10;}
	.st118{fill:#4F5D6B;stroke:#1D2B36;stroke-width:4;stroke-linecap:round;stroke-miterlimit:10;}
	.st119{fill:#FFFFFF;stroke:#D6DDE3;stroke-width:4;stroke-linecap:round;stroke-miterlimit:10;}
	.st120{fill:#FFF6E2;stroke:#1D2B36;stroke-width:4;stroke-miterlimit:10;}
	.st121{fill:#B37100;stroke:#1D2B36;stroke-width:4;stroke-miterlimit:10;}
	.st122{fill:none;stroke:#875200;stroke-width:4;stroke-linecap:round;stroke-miterlimit:10;}
	.st123{fill:#E52F28;stroke:#1D2B36;stroke-width:4;stroke-linecap:round;stroke-miterlimit:10;}
	.st124{fill:#BA1F19;stroke:#1D2B36;stroke-width:4;stroke-linecap:round;stroke-miterlimit:10;}
	.st125{fill:#72808E;stroke:#1D2B36;stroke-width:4;stroke-miterlimit:10;}
	.st126{fill:#D6DDE3;stroke:#1D2B36;stroke-width:4;stroke-miterlimit:10;}
	.st127{fill:none;stroke:#1D2B36;stroke-width:4;stroke-miterlimit:10;}
	.st128{fill:#A3A6F1;stroke:#1D2B36;stroke-width:4;stroke-linecap:round;stroke-linejoin:round;stroke-miterlimit:10;}
	.st129{fill:#7F83E4;stroke:#1D2B36;stroke-width:4;stroke-linecap:round;stroke-linejoin:round;stroke-miterlimit:10;}
	.st130{fill:#585B9E;}
	.st131{fill:#7F83E4;stroke:#45477B;stroke-width:4;stroke-linecap:round;stroke-linejoin:round;stroke-miterlimit:10;}
	.st132{fill:#6A6DC7;stroke:#1D2B36;stroke-width:4;stroke-linecap:round;stroke-linejoin:round;stroke-miterlimit:10;}
	.st133{fill:#6A6DC7;stroke:#45477B;stroke-width:4;stroke-linecap:round;stroke-linejoin:round;stroke-miterlimit:10;}
	.st134{fill:#7F83E4;}
	.st135{fill:#A3A6F1;}
	.st136{fill:#D1D3F5;}
	.st137{fill:#FF9139;stroke:#1D2B36;stroke-width:4;stroke-linecap:round;stroke-linejoin:round;stroke-miterlimit:10;}
	.st138{fill:#E6781E;}
	.st139{fill:none;stroke:#FFD3B0;stroke-width:4;stroke-linecap:round;stroke-linejoin:round;stroke-miterlimit:10;}
	.st140{fill:#81DC9E;}
	.st141{fill:none;stroke:#D1D3F5;stroke-width:4;stroke-linecap:round;stroke-linejoin:round;stroke-miterlimit:10;}
	.st142{fill:#6A6DC7;}
	.st143{fill:#BA1F19;}
	.st144{fill:#D79400;stroke:#1D2B36;stroke-width:4;stroke-linejoin:round;stroke-miterlimit:10;}
	.st145{fill:#FFE8B5;stroke:#1D2B36;stroke-width:4;stroke-linejoin:round;stroke-miterlimit:10;}
	.st146{fill:none;stroke:#1D2B36;stroke-width:4;stroke-linejoin:round;stroke-miterlimit:10;}
	.st147{fill:#BA1F19;stroke:#1D2B36;stroke-width:4;stroke-linecap:round;stroke-linejoin:round;stroke-miterlimit:10;}
	.st148{fill:#9D1F1A;stroke:#1D2B36;stroke-width:4;stroke-linecap:round;stroke-linejoin:round;stroke-miterlimit:10;}
	.st149{fill:#9D1F1A;}
	.st150{fill:#FFF6E2;}
	.st151{fill:none;}
	.st152{fill:#FFC646;}
	.st153{fill:none;stroke:#D79400;stroke-width:4;stroke-linecap:round;stroke-linejoin:round;stroke-miterlimit:10;}
	.st154{fill:#72808E;}
	.st155{fill:#4BC27D;stroke:#272822;stroke-width:4;stroke-linecap:round;stroke-linejoin:round;stroke-miterlimit:10;}
	.st156{fill:#4BC27D;stroke:#FFFFFF;stroke-width:4;stroke-linecap:round;stroke-linejoin:round;stroke-miterlimit:10;}
	.st157{fill:none;stroke:#359E64;stroke-width:4;stroke-linecap:round;stroke-linejoin:round;stroke-miterlimit:10;}
	.st158{fill:#7F83E4;stroke:#585B9E;stroke-width:4;stroke-linecap:round;stroke-linejoin:round;stroke-miterlimit:10;}
	.st159{fill:#6A6DC7;stroke:#585B9E;stroke-width:4;stroke-linecap:round;stroke-linejoin:round;stroke-miterlimit:10;}
	.st160{fill:#45477B;}
	.st161{fill:#7F83E4;stroke:#6A6DC7;stroke-width:4;stroke-linecap:round;stroke-linejoin:round;stroke-miterlimit:10;}
	.st162{fill:none;stroke:#394956;stroke-width:4;stroke-linecap:round;stroke-linejoin:round;stroke-miterlimit:10;}
	.st163{fill:#4F5D6B;stroke:#1D2B36;stroke-width:4;stroke-linecap:round;stroke-linejoin:round;stroke-miterlimit:10;}
	.st164{fill:none;stroke:#EAEAFB;stroke-width:4;stroke-linecap:round;stroke-linejoin:round;stroke-miterlimit:10;}
	.st165{opacity:0.25;}
	.st166{fill:none;stroke:#875200;stroke-width:4;stroke-linecap:round;stroke-linejoin:round;stroke-miterlimit:10;}
	.st167{fill:#288252;}
	.st168{fill:#FFA2A2;}
	.st169{fill:#731814;}
	.st170{fill:#F45B55;stroke:#1D2B36;stroke-width:4;stroke-linecap:round;stroke-linejoin:round;stroke-miterlimit:10;}
	.st171{fill:none;stroke:#A5B2BD;stroke-width:4;stroke-linecap:round;stroke-linejoin:round;stroke-miterlimit:10;}
	.st172{fill:#1D2B36;}
	.st173{fill:#394956;}
	.st174{fill:none;stroke:#F1F3F5;stroke-width:4;stroke-linecap:round;stroke-linejoin:round;stroke-miterlimit:10;}
	.st175{fill:none;stroke:#E4FBE6;stroke-width:4;stroke-linecap:round;stroke-linejoin:round;stroke-miterlimit:10;}
	.st176{fill:#4BC27D;stroke:#359E64;stroke-width:4;stroke-linecap:round;stroke-linejoin:round;stroke-miterlimit:10;}
	.st177{fill:#4BC27D;stroke:#288252;stroke-width:4;stroke-linecap:round;stroke-linejoin:round;stroke-miterlimit:10;}
	.st178{fill:#2A3B47;stroke:#1D2B36;stroke-width:4;stroke-linecap:round;stroke-linejoin:round;stroke-miterlimit:10;}
	.st179{fill:#359E64;stroke:#1D2B36;stroke-width:4;stroke-miterlimit:10;}
	.st180{fill:#4BC27D;}
	.st181{fill:none;stroke:#288252;stroke-width:4;stroke-linecap:round;stroke-linejoin:round;stroke-miterlimit:10;}
</style>
<g id="Layer_1">
	<path class="st0" d="M102,107.8c0,0,0.3,5.7,0.8,14.3c0.1,2.2,0.2,4.5,0.3,7c0.1,2.5,0.2,5.1,0.3,7.8c0.1,2.7,0.1,5.5,0.1,8.4
		c0,2.9,0,5.8-0.1,8.7c0,1.5-0.1,2.9-0.2,4.4c-0.1,1.5-0.1,2.9-0.3,4.4c-0.1,1.5-0.3,2.9-0.4,4.3c-0.2,1.4-0.4,2.9-0.5,4.3
		c-0.2,1.4-0.4,2.8-0.7,4.1c-0.2,1.4-0.5,2.7-0.8,4c-0.3,1.3-0.6,2.5-0.9,3.8c-0.4,1.2-0.7,2.4-1.1,3.5c-0.3,1.1-0.8,2.2-1.1,3.2
		c-0.1,0.4-0.9,2.1-1.9,4c-1.8,3.9-6.7,5.2-10.2,2.8l0,0c-3.1-2.1-4-6.3-2-9.5c0.8-1.3,1.5-2.4,1.7-2.7c0.4-0.8,0.9-1.6,1.2-2.5
		c0.4-0.9,0.8-1.8,1.2-2.8c0.4-1,0.8-2,1.2-3.1c0.4-1.1,0.7-2.2,1.1-3.4c0.4-1.2,0.7-2.3,1-3.6c0.3-1.2,0.6-2.5,0.9-3.8
		c0.3-1.3,0.6-2.6,0.8-4c0.3-1.3,0.5-2.7,0.7-4.1c0.3-1.4,0.5-2.7,0.7-4.1c0.4-2.8,0.8-5.6,1.1-8.3c0.3-2.8,0.6-5.5,0.8-8.2
		c0.2-2.7,0.4-5.2,0.6-7.7c0.2-2.4,0.3-4.8,0.5-6.9c0.5-8.6,0.9-14.3,0.9-14.3L102,107.8z"/>
	<g>
		<line class="st1" x1="72" y1="198" x2="112" y2="198"/>
		<line class="st1" x1="120" y1="198" x2="124" y2="198"/>
		<line class="st1" x1="62" y1="198" x2="64" y2="198"/>
	</g>
	<g>
		<line class="st52" x1="189" y1="96" x2="197" y2="104"/>
		<line class="st52" x1="189" y1="104" x2="197" y2="96"/>
	</g>
	<g>
		<line class="st52" x1="3" y1="71" x2="11" y2="79"/>
		<line class="st52" x1="3" y1="79" x2="11" y2="71"/>
	</g>
	<g>
		<line class="st52" x1="91" y1="8" x2="103" y2="8"/>
		<line class="st52" x1="97" y1="14" x2="97" y2="2"/>
	</g>
	<g>
		<line class="st42" x1="8" y1="8" x2="16" y2="16"/>
		<line class="st42" x1="8" y1="16" x2="16" y2="8"/>
	</g>
	<g>
		<line class="st42" x1="17" y1="160" x2="17" y2="172"/>
		<line class="st42" x1="11" y1="166" x2="23" y2="166"/>
	</g>
	<g>
		<line class="st42" x1="182" y1="11" x2="182" y2="23"/>
		<line class="st42" x1="176" y1="17" x2="188" y2="17"/>
	</g>
	<g>
		<line class="st42" x1="179" y1="171" x2="179" y2="183"/>
		<line class="st42" x1="173" y1="177" x2="185" y2="177"/>
	</g>
	<path class="st78" d="M157.4,103.6L110.8,97l46.6-6.6c4.9-0.9,9.5-3.3,13.1-7.4c7.3-8.3,7.3-20.9,0.2-29.2
		c-4.5-5.3-10.9-7.9-17.2-7.9c-1.3,0-2.4-1.1-2.4-2.4c0.1-6.3-2.6-12.7-7.9-17.2c-8.4-7.2-20.9-7.1-29.2,0.2
		c-4.1,3.6-6.5,8.2-7.4,13.1L100,86.2l-6.6-46.7c-0.9-4.9-3.3-9.5-7.4-13.1c-8.3-7.3-20.9-7.3-29.2-0.2c-5.3,4.5-7.9,10.9-7.9,17.2
		c0,1.3-1.1,2.4-2.4,2.4c-6.3-0.1-12.7,2.6-17.2,7.9c-7.2,8.4-7.1,20.9,0.2,29.2c3.6,4.1,8.2,6.5,13.1,7.4L89.2,97l-46.6,6.6
		c-4.9,0.9-9.5,3.3-13.1,7.4c-7.3,8.3-7.3,20.9-0.2,29.2c4.5,5.3,10.9,7.9,17.2,7.9c1.3,0,2.4,1.1,2.4,2.4
		c-0.1,6.3,2.6,12.7,7.9,17.2c8.4,7.2,20.9,7.1,29.2-0.2c4.1-3.6,6.5-8.2,7.4-13.1l6.6-46.7l6.6,46.7c0.9,4.9,3.3,9.5,7.4,13.1
		c8.3,7.3,20.9,7.3,29.2,0.2c5.3-4.5,7.9-10.9,7.9-17.2c0-1.3,1.1-2.4,2.4-2.4c6.3,0.1,12.7-2.6,17.2-7.9c7.2-8.4,7.1-20.9-0.2-29.2
		C166.9,106.9,162.3,104.5,157.4,103.6z"/>
	<g>
		<path class="st140" d="M102,86.5c2.9-5.3,4.8-11.1,5.7-17.1l3.9-27.6c0.8-4.6,3.1-8.7,6.7-11.8c3.7-3.2,8.5-5,13.4-5
			c3.4,0,6.8,0.9,9.7,2.5c-3.6-2.9-8.1-4.5-12.7-4.5c-5,0-9.7,1.8-13.4,5c-3.6,3.1-5.9,7.3-6.7,11.8L102,86.5L102,86.5z"/>
		<path class="st140" d="M36.7,86.3c-1-0.8-1.9-1.6-2.7-2.6c-6.6-7.6-6.7-19-0.2-26.6c3.9-4.5,9.5-7.2,15.5-7.2l0.2,0
			c1.2,0,2.3-0.5,3.1-1.3s1.3-1.9,1.3-3.1c-0.1-6,2.6-11.8,7.2-15.7c3.6-3.1,8.3-4.8,13.2-4.8c3.5,0,6.8,0.9,9.8,2.5
			c-3.6-2.9-8.1-4.5-12.8-4.5c-4.9,0-9.5,1.7-13.2,4.8c-4.6,3.9-7.2,9.7-7.2,15.7c0,1.2-0.4,2.3-1.3,3.1s-1.9,1.3-3.1,1.3l-0.2,0
			c-6,0-11.6,2.6-15.5,7.2c-6.5,7.6-6.4,19,0.2,26.6C32.7,83.6,34.6,85.1,36.7,86.3z"/>
		<path class="st140" d="M33.8,140.9c-6.5-7.6-6.4-19,0.2-26.6c3.1-3.6,7.3-5.9,11.9-6.8l30.5-4.3c4.6-0.6,9-2.1,13.1-4.3h0
			l-46.6,6.6c-4.7,0.8-8.8,3.2-11.9,6.8c-6.6,7.6-6.7,19-0.2,26.6c1.6,1.9,3.6,3.5,5.8,4.7C35.6,142.8,34.7,141.9,33.8,140.9z"/>
	</g>
	<g>
		<path class="st4" d="M110.5,95l46.6-6.6c4.7-0.8,8.8-3.2,11.9-6.8c6.6-7.6,6.7-19,0.2-26.6c-2.3-2.7-5.3-4.7-8.5-5.9
			C171.7,69.1,153.6,88.1,110.5,95z"/>
		<path class="st4" d="M115.3,166c3.7,3.2,8.5,5,13.4,5c4.9,0,9.5-1.7,13.2-4.8c4.6-3.9,7.2-9.7,7.2-15.7c0-1.2,0.4-2.3,1.3-3.1
			s1.9-1.3,3.1-1.3l0.2,0c6,0,11.6-2.6,15.5-7.2c6.5-7.6,6.4-19-0.2-26.6c-3.1-3.6-7.3-5.9-11.8-6.7l-22.7-3.2
			c22.6,4.3,21.9,26.8,7.1,32.5c0.3,10-13,29.6-33.4,15.9l0.5,3.4C109.4,158.7,111.7,162.9,115.3,166z"/>
		<g>
			<g>
				<path class="st4" d="M51,152.6c0.5,5.2,3,10.1,7.1,13.6c3.6,3.1,8.3,4.8,13.2,4.8c5,0,9.7-1.8,13.4-5c3.6-3.1,5.9-7.3,6.7-11.8
					l6.6-46.7C89.2,143.7,77.2,166.4,51,152.6z"/>
			</g>
		</g>
	</g>
	<line class="st1" x1="54.6" y1="142.4" x2="48.8" y2="148.2"/>
	<polyline class="st1" points="131.6,65.4 115.8,81.2 66.6,130.4 	"/>
	<line class="st1" x1="151.5" y1="45.5" x2="142.7" y2="54.3"/>
	<line class="st1" x1="59.4" y1="56.4" x2="49.2" y2="46.2"/>
	<line class="st1" x1="120" y1="117" x2="78.1" y2="75.1"/>
	<line class="st1" x1="151.2" y1="148.2" x2="135.9" y2="132.9"/>
	<path class="st157" d="M138,32.4c3.3,2.8,5.1,6.8,5.1,11.1"/>
	<path class="st157" d="M59.4,84.7l-15.6-2.2c-3.2-0.6-6.1-2.2-8.3-4.8"/>
	<path class="st157" d="M46.6,140.1l-0.2,0c-4.3,0-8.2-1.8-10.9-5.1"/>
	<path class="st181" d="M85.5,153.2c-0.6,3.2-2.2,6.1-4.8,8.3c-2.6,2.3-6,3.5-9.5,3.5c-3.4,0-6.7-1.2-9.3-3.4"/>
	<path class="st181" d="M143.1,150.5c0,4.3-1.8,8.3-5.1,11.1c-2.6,2.2-5.9,3.4-9.3,3.4"/>
	<path class="st181" d="M164.5,116.3c4.7,5.3,4.7,13.4,0.1,18.8"/>
	<path class="st181" d="M168,67.6c0.2,3.6-1,7.2-3.5,10.1c-0.8,0.9-1.7,1.7-2.7,2.4"/>
</g>
<g id="Layer_2">
</g>
</svg>
