<svg width="120px" height="120px" viewBox="0 0 120 120" id="Layer_1" data-name="Layer 1" xmlns="http://www.w3.org/2000/svg"><defs><style>.cls-1{fill:#2b3b58;}.cls-2{fill:#905e57;}.cls-3{fill:#7a4f4f;}.cls-4{fill:#fe819a;}.cls-5{fill:#feb3c3;}.cls-6{fill:#fdb3c3;}.cls-7{fill:#f9b348;}.cls-8{fill:#fcd78e;}.cls-9{fill:#fce4b5;}.cls-10{fill:#fdc557;}.cls-11{fill:#fdfdfd;}.cls-12{fill:#7b5050;}.cls-13{fill:#fdfcfc;}.cls-14{fill:#fb8098;}.cls-15{fill:#fefefe;}</style></defs><title>hs-huzzah-32</title><path class="cls-1" d="M104.49237,105.33626c-.506.038-.597.599-1.06913.78158a25.032,25.032,0,0,1-3.79471,1.16762,30.25655,30.25655,0,0,0-3.89544,1.12445c-.39206.141-.838.00849-1.23457.19977-.08819.04254-1.22.11273-1.57286.22488-.49989.15886-1.03883.24394-1.56123.364-.4055.09321-1.88158.26515-2.21805.33323-1.63258.33037-3.28428.603-4.87969,1.06659a17.24791,17.24791,0,0,1-2.84194.74215c-.85011.096-1.69484.24824-2.54552.34026a11.633,11.633,0,0,0-2.08037.165c-.57865.16485-1.27021.03422-1.90883.202-.97443.25592-1.99209.16224-2.99313.35943a20.92581,20.92581,0,0,1-2.627.14455c-1.25952.0789-2.53016.14892-3.79209.29785-.79673.094-1.758.4818-2.4784-.34027a1.65094,1.65094,0,0,1,1.56537-.82148c.05557.003.09927.004.12924.03766.02647-.0592-.03529-.02816-.04881-.04761-.36581-.5264-.32216-.79532.19469-1.14625a2.81146,2.81146,0,0,1,.74026-.34816c1.00746-.31482,1.88789-1.04042,3.0243-.94177a.32781.32781,0,0,0,.27087-.10171c.83186-.8861,2.03751-1.08972,3.02293-1.67533.87968-.52277,1.83846-.86228,2.704-1.39147a38.654,38.654,0,0,0,8.69076-7.2998c.78689-.88066,1.60721-1.7499,2.40254-2.6243a17.416,17.416,0,0,0,2.44855-3.902,76.43487,76.43487,0,0,0,3.37737-6.88659c.26482-.68032.22145-1.38644.522-2.02365.04142-.08785.035-.19719.0725-.28842.17561-.42773.2386-1.02458.77384-1.09074a1.29876,1.29876,0,0,1,1.28863.83659,19.25289,19.25289,0,0,1-.11992,2.76214,2.8431,2.8431,0,0,1-.15931.97031,18.02111,18.02111,0,0,1-1.52158,4.13232,5.41214,5.41214,0,0,0-.56259,1.25869,29.77816,29.77816,0,0,1-1.77549,3.99038,5.91623,5.91623,0,0,1-1.23939,1.87733c-.38579.34991-.44151.86889-.7031,1.28208-.15711.24815.05221.30671.23948.2887a37.49407,37.49407,0,0,1,4.0249.18938,13.70646,13.70646,0,0,1,2.5679.44637c1.29155.269,2.579.55263,3.84633.9086a11.00106,11.00106,0,0,1,3.69,1.58591,5.53123,5.53123,0,0,1,2.02666,2.40162Z"/><path class="cls-2" d="M59.87148,112.668a16.65557,16.65557,0,0,1-2.57583-.03266,9.96111,9.96111,0,0,1-2.75605-.12193c-.79863-.26081-1.64-.15617-2.46583-.38047-.7702-.20917-1.63531-.2273-2.45478-.366a7.814,7.814,0,0,1-1.73448-.28021c-.63839-.27193-1.2884-.53963-1.90713-.8553-1.05939-.54052-2.16169-.98541-3.22075-1.52966-1.08625-.5582-2.25555-.95741-3.32724-1.55549a3.96715,3.96715,0,0,0-1.49219-.75494c-.06173-.00631-.1694-.08168-.167-.11943.03621-.57553-.48559-.64968-.80974-.82216a13.9589,13.9589,0,0,1-2.26613-1.6967c-.42558-.35131-.77533-.289-.71142-.44035.07-.16584-.08642-.29144-.21591-.333a10.11891,10.11891,0,0,1-1.20051-1.18115c-.64127-.46232-1.02932-1.195-1.62834-1.64853a12.92124,12.92124,0,0,1-2.33382-2.97049c-.61446-.82849-1.19514-1.72927-1.75748-2.61936a6.83534,6.83534,0,0,1-.44793-.99963c-.1793-.416-.97822-1.97017-1.17065-2.2883-.3364-.55617-.29311-1.25583-.73865-1.78149A6.08978,6.08978,0,0,1,24.107,88.662c-.24727-.93879-.54-1.87132-.70246-2.8255-.28513-1.67425-.93086-3.27579-1.09435-4.95766a22.26243,22.26243,0,0,1-.20815-3.88588c.03816-.48833-.02812-2.47137-.0434-2.86991-.0352-.918.268-1.80894.17162-2.7298a1.50843,1.50843,0,0,1,.15166-.56394.21684.21684,0,0,1,.401-.07177,10.22531,10.22531,0,0,0,1.63689,1.65524,5.21428,5.21428,0,0,0,1.59947.72318c.411.08939.74059.42445,1.21476.42826.21363.00172,1.09729.34788,1.28318.37864a22.552,22.552,0,0,0,6.3966.20263c1.61227-.19233,3.19655-.524,4.789-.80566a17.66293,17.66293,0,0,0,2.32778-.58818c1.84822-.59658,3.71921-1.11982,5.54428-1.79316,2.37387-.87583,4.599-2.09182,6.96486-2.9825a21.008,21.008,0,0,0,4.82078-2.87261c.09661-.06991.22937-.16086.17746-.29862-.07819-.20745-.24326-.086-.36917-.05a20.30974,20.30974,0,0,0-4.06123,1.48,4.80287,4.80287,0,0,1-1.20567.29223c-1.70373.41053-3.30861,1.131-5.023,1.52058-.697.15839-1.41278.44455-2.1104.60915-1.51765.358-3.00547.8417-4.53974,1.123-1.48538.27238-2.99219.44278-4.46192.779a16.01069,16.01069,0,0,1-2.035.31453c-.61384.06038-1.22656.07325-1.8392.10995a2.13454,2.13454,0,0,0-.94393.1302c-.332.17832-.61942-.12479-.91407-.11111a16.75914,16.75914,0,0,1-2.98959-.31859,4.29293,4.29293,0,0,1-.64125-.14856c-1.03141-.2986-4.65615-1.96659-5.02693-2.89679-.036-.09034-.09543-.16152-.01225-.26045.85107-1.01223,1.22358-2.3331,2.13051-3.30978a.40019.40019,0,0,1,.484.05376,25.0846,25.0846,0,0,1,2.64338,2.03419.68611.68611,0,0,1,.25063.51918.96822.96822,0,0,0,.7744,1.13387,10.532,10.532,0,0,0,4.18638.53271,43.53646,43.53646,0,0,0,9.47474-1.94979,39.61766,39.61766,0,0,0,6.33-2.40971c1.24385-.64989,2.63721-1.01765,3.90124-1.66783,2.076-1.06783,4.21215-2.04117,6.194-3.263a51.04126,51.04126,0,0,0,7.28414-5.29879,31.987,31.987,0,0,0,3.85151-3.83706A6.79971,6.79971,0,0,0,71.93591,47.722a1.67074,1.67074,0,0,0-1.24678-1.91951,11.45592,11.45592,0,0,0-5.64586-.61765,1.219,1.219,0,0,1-.68184-.133c-.18023-.20509-.07316-.45124-.09846-.67884.0027-.79524-.26816-1.61707.22492-2.36552A17.63476,17.63476,0,0,0,66.98,41.70967a1.15217,1.15217,0,0,1,.51851-.00324c1.22339.26973,2.47415-.03359,3.69013.16082a22.54387,22.54387,0,0,1,3.23951.55915A23.52592,23.52592,0,0,1,79.84247,44.989c.36933.23.70807.50912,1.0609.76561a15.31432,15.31432,0,0,1,1.84828,3.05174,8.71546,8.71546,0,0,1,.62146,2.95826,21.3188,21.3188,0,0,1-.16575,4.00592,39.43182,39.43182,0,0,1-1.51791,8.02643,40.90489,40.90489,0,0,1-4.523,8.7048c-2.39172,3.80306-4.92951,7.51419-7.21115,11.38613-1.122,1.904-2.10827,3.88622-3.25146,5.77942a1.40512,1.40512,0,0,1-.52454.614c-.35367.06344-.47494-.20853-.60448-.44165-.19293-.34721-.39323-.6899-.6047-1.02541a1.61508,1.61508,0,0,0-2.003-.87915c-.4415.07594-.4853.2805-.23648.60835.81755,1.07724,1.36238,2.3704,2.51666,3.18226a.32447.32447,0,0,1,.08912.20107A15.076,15.076,0,0,1,63.629,95.5489c-.367.22914-.99682-.08046-1.1652.37753-.13237.36007.28953.74271.42467,1.13174a.74924.74924,0,0,1,.04215.3589,45.68884,45.68884,0,0,0-2.43867,9.26923,31.74218,31.74218,0,0,0-.49868,5.17692A1.73422,1.73422,0,0,1,59.87148,112.668Z"/><path class="cls-3" d="M66.11356,90.26481c.73008-1.10686,1.35086-2.27485,1.97028-3.44613a37.46613,37.46613,0,0,1,1.91141-3.3253c.68851-1.03038,1.25731-2.12894,1.94254-3.16212.7452-1.1236,1.33509-2.36068,2.14951-3.43672.84781-1.12015,1.54-2.33781,2.32992-3.49231,1.15287-1.68489,2.16458-3.47,3.17865-5.2455a27.44845,27.44845,0,0,0,2.60174-6.701c.36142-1.37556.40356-2.81893.66344-4.21663a24.86171,24.86171,0,0,0,.36941-3.85655c.05215-1.91113-.0008-3.88078-1.191-5.58158-.3224-.46069-.57418-.9812-.91184-1.43923a.81175.81175,0,0,1-.22422-.60715c.916.69362,2.04579,1.08658,2.78777,2.03586a3.79267,3.79267,0,0,1,.47675.60975,1.92083,1.92083,0,0,0,.28687.39262c.17635.22005.68657.87039.8578,1.104.72217.98517,1.40014,2.00281,2.09306,3.0094A19.71952,19.71952,0,0,1,89.17,55.97352a3.6133,3.6133,0,0,0,.928,1.41321c.229.18548.29176.59046.40165.90587a8.85011,8.85011,0,0,0,.608,1.33982,16.89564,16.89564,0,0,1,.69624,1.73845,14.70871,14.70871,0,0,0,.711,2.07422,4.70987,4.70987,0,0,1,.519,1.72568c.17175,1.28066.7498,2.454.841,3.7501a40.61674,40.61674,0,0,0,.45813,4.24c.3582,2.01972.11873,4.0648.37263,6.09031a5.04352,5.04352,0,0,1-.27682,1.9604c-.16118.52991.05834,1.09622-.25046,1.5827-.14015-.10224-.27749-.20861-.42091-.30607-.91221-.6198-1.22941-.50246-1.47863.609a3.60076,3.60076,0,0,1-.26017.92075,1.96759,1.96759,0,0,0-.05831.28775c-.11049.33506-.08252.49-.17253.74139-.15833.44211-.34906.87261-.50678,1.31492a21.30588,21.30588,0,0,1-1.45082,3.087c-.902,1.6422-1.68738,3.34687-2.69719,4.93233a10.30689,10.30689,0,0,1-2.04845,2.68706,1.55049,1.55049,0,0,0-.63872.88031c-.07252.32254-.53978.35342-.76342.63227a36.025,36.025,0,0,1-2.72293,2.83311,29.332,29.332,0,0,1-3.64439,3.08265c-.86055.61876-1.76655,1.17388-2.64246,1.77179a8.63683,8.63683,0,0,1-1.4189.6407,1.94174,1.94174,0,0,0-.90622.601.55308.55308,0,0,1-.37436.21671,5.54825,5.54825,0,0,0-2.57194,1.19567,2.5148,2.5148,0,0,1-1.34045.5104,19.01987,19.01987,0,0,0-3.14682,1.25917c-.30776.144-.71266.49542-.219.90358.23461.194.01984.16675-.05716.1718a4.30162,4.30162,0,0,0-1.6384.74174c-.78585-.07764-1.541.24066-2.33527.16939a5.80283,5.80283,0,0,0-.7927-.01076,14.52008,14.52008,0,0,1,.0448-3.00067c.17274-1.11519.27353-2.24132.42477-3.3601q.14614-1.08114.39687-2.14562a53.70617,53.70617,0,0,1,1.76874-6.10478c.09332-.25545.12819-.53381.40474-.674a5.32742,5.32742,0,0,1,1.08814.86963,5.0317,5.0317,0,0,0,.59093.44559.68556.68556,0,0,0,.76819.04785c.24321-.168.22119-.42737.1719-.67472a3.04805,3.04805,0,0,0-1.9452-2.619c.35431-.34172.37866-.84031.58761-1.25321.38365-.7581.70748-1.54649,1.05625-2.32225a.58887.58887,0,0,1,.31741-.16428c.47753-.1256.72545-.37812.52088-.90278A.468.468,0,0,1,66.11356,90.26481Z"/><path class="cls-4" d="M54.929,31.39969a10.12082,10.12082,0,0,1-3.08289-.67549,3.72455,3.72455,0,0,0-.82986-.22313c-.39878-.03036-.4016-.26141-.32434-.55426a.82957.82957,0,0,1,.08432-.845,39.816,39.816,0,0,1,2.96717-4.646c.36622-.51163.60348-1.08575.92884-1.61434,1.62827-2.64538,3.09512-5.38461,4.77975-8.00071,1.15241-1.78958,2.15388-3.68779,3.1277-5.59a3.58194,3.58194,0,0,1,.21013-.39509c.12183-.17861.21612-.5147.43936-.43846.31282.10684.25046.46645.16314.7175-.67173,1.93128-.98375,3.95356-1.51058,5.92162A62.32818,62.32818,0,0,0,60.45454,21.379a25.76653,25.76653,0,0,0-.77428,4.47066c.002.12216-.04273.24483-.04478.36969-.00464.28108.02848.67073.23264.74541.29405.10757.39107-.29951.53632-.50463a9.71589,9.71589,0,0,0,1.09485-2.361c.80683-2.21944,1.55274-4.46053,2.27339-6.7086.68994-2.15223,1.1781-4.36182,1.72754-6.55365a16.76381,16.76381,0,0,0,.76265-3.30209,1.11743,1.11743,0,0,1,.30855-.81829,12.26127,12.26127,0,0,1,2.42182,1.60268,10.89738,10.89738,0,0,0,1.50574.92852c1.19295.65828,2.221,1.55221,3.34578,2.30536.96007.64284,1.93392,1.2651,2.87847,1.93177a25.57384,25.57384,0,0,1,2.21992,1.56884c.54043.47569,1.24.6323,1.76812,1.166a12.07067,12.07067,0,0,0,2.42155,1.75978c1.12982.67555,2.04883,1.62443,3.23,2.2528a4.12964,4.12964,0,0,1,2.262,3.00576.23537.23537,0,0,1-.11944.24766c-.93167-.68094-1.61056-.22951-2.29949.4528A10.62556,10.62556,0,0,1,83.841,25.48488a53.7231,53.7231,0,0,1-6.02761,2.734,70.06279,70.06279,0,0,1-12.33084,3.41879c-1.62431.34331-3.2697.5817-4.91358.81883a2.53554,2.53554,0,0,1-.88924-.02681c-1.40842-.39366-2.89993-.3091-4.30272-.74844-.19484-.061-.38262-.07127-.459-.29239a.90317.90317,0,0,1,.222-.15483A.583.583,0,0,0,54.929,31.39969Z"/><path class="cls-5" d="M66.57142,6.71647a3.76837,3.76837,0,0,1-.22234,1.30937c-.12564.44028.12863.88348.00216,1.22028a7.37088,7.37088,0,0,0-.53869,1.0859c-.22049,1.00288-.4136,2.02039-.70133,2.99832-.50642,1.72124-.91177,3.46927-1.50082,5.17278-.66781,1.9313-1.31712,3.872-1.98013,5.80631a7.46651,7.46651,0,0,1-1.50976,2.853c-.192.20165-.23724.39786-.4792-.07961a3.95158,3.95158,0,0,1,.00237-2.7443c.33518-1.658.68769-3.32456,1.01076-4.98373.25452-1.30714.61823-2.58788.89143-3.88768.29226-1.39046.72638-2.761,1.01922-4.158a24.02442,24.02442,0,0,1,.69538-2.3342,1.38145,1.38145,0,0,0-.00884-.43907c-.19571.02015-.1596.21409-.20545.319-.49189,1.12569-1.27617,2.08845-1.73963,3.23852-.25206.62549-.75,1.1511-1.06892,1.77019-1.12886,2.19117-2.69631,4.12055-3.78237,6.3417-.65905,1.34785-1.50329,2.5974-2.26,3.891-.66544,1.13755-1.49458,2.19259-2.20818,3.31052a7.95806,7.95806,0,0,0-1.29517,2.54006c-1.06028.33278-1.88609-.37835-2.79182-.674a7.342,7.342,0,0,1-1.6576-.78257,24.55593,24.55593,0,0,1-3.20517-1.92989c-.12038-.1064-.83011-.53493-.96556-.64441A15.553,15.553,0,0,1,39.631,23.479a3.65389,3.65389,0,0,1-.98456-2.20568,1.09564,1.09564,0,0,1,.35517-.91784,21.14093,21.14093,0,0,1,3.01768-2.39892c1.45061-.96624,2.96171-1.84344,4.46544-2.7272.74746-.4393,1.39642-1.026,2.1388-1.44884.78818-.44893,1.62367-.82657,2.40784-1.28932,1.0201-.602,2.045-1.20213,3.07366-1.7824,1.606-.90591,3.13556-1.94277,4.79649-2.75687a33.81081,33.81081,0,0,0,3.694-2.13928c.21387-.14077.51375-.23008.54279-.56239a5.04112,5.04112,0,0,1,1.97231-.15355c.01968.62354.02435.61492.64162.95C66.06419,6.21605,66.42539,6.33847,66.57142,6.71647Z"/><path class="cls-6" d="M50.91348,45.94843c-.15155.30549-.4237.571-.31873.96157a15.16985,15.16985,0,0,1-2.431,3.74757c-.29952.3016-.44.72787-.73828,1.01739-.97518.94644-.7612,1.98245-.32429,3.07706A2.051,2.051,0,0,0,49.38,56.32244a.56941.56941,0,0,1,.34988.10915.42494.42494,0,0,1,.17755.31562,14.64228,14.64228,0,0,1-.33026,3.23,3.389,3.389,0,0,1-3.50619.47158,1.38515,1.38515,0,0,1-.45488-.24194c-.20014-.191-.73152-.85342-.90285-1.06233a2.46718,2.46718,0,0,1-.4498-.85107,7.83653,7.83653,0,0,1-.323-.91109,8.252,8.252,0,0,1,.34849-4.72709c.86032-1.28534,1.44649-2.769,2.70585-3.76844a3.9449,3.9449,0,0,0,1.47177-1.91706,1.71545,1.71545,0,0,1,.34337-.561,1.393,1.393,0,0,0,.09089-1.56731c-.72931-1.396-2.05186-1.20775-3.22706-1.14236a5.1749,5.1749,0,0,0-3.04755,1.376c-.778.664-1.44574,1.45436-2.245,2.06653a7.80662,7.80662,0,0,1-2.936,1.89829c-.15959.02193-.61614.2336-.8928.26665a3.27028,3.27028,0,0,1-2.28292-1.60626,9.45653,9.45653,0,0,1-.95764-1.89742,7.47435,7.47435,0,0,1,.34837-4.37258c.189-.55106.38282-1.11295.612-1.65811a21.583,21.583,0,0,1,1.67238-2.51934,4.16287,4.16287,0,0,1,1.09276-1.17644,2.466,2.466,0,0,0,.83193-1.764,2.784,2.784,0,0,0-.0695-1.15,1.70357,1.70357,0,0,0-1.735-1.32379,4.54266,4.54266,0,0,0-2.88442.98932,23.64339,23.64339,0,0,1-2.90859,1.901c-.30528.17013-.67084.43924-1.08511.0583-.21076-.19379-.52859.07336-.84151-.0061a3.99633,3.99633,0,0,1-1.9291-1.56152A10.82746,10.82746,0,0,1,24.84766,31.369c-.04578-.08453-.9348-1.17685-1.09442-1.36965-1.07579-1.29946-2.124-2.62173-3.1858-3.93283a1.53928,1.53928,0,0,1-.03825-2.10746c.17168-.282.26413-.68555.66685-.8376.217-.08192,1.00878-1.18009,1.19389-1.25391a.36514.36514,0,0,1,.45256.15567c.33035.42527.71138.81751.99582,1.27088a40.45334,40.45334,0,0,0,2.71478,3.34755c.637.81072,1.38115,1.53394,1.95077,2.39447a6.71223,6.71223,0,0,0,1.44946,1.465,2.077,2.077,0,0,0,2.66872-.33783,10.62384,10.62384,0,0,1,4.00681-2.26764,3.29567,3.29567,0,0,1,2.95446.37157,3.65733,3.65733,0,0,1,1.01576,1.642,10.24973,10.24973,0,0,1-.51324,4.1021,10.766,10.766,0,0,1-2.317,4.078c-.5755.60386-1.08331,1.28177-1.64263,1.91038a2.05241,2.05241,0,0,0-.324,1.19271,4.906,4.906,0,0,0,1.05833,3.24594,2.0098,2.0098,0,0,0,2.85552.27556c.77863-.73318,1.69391-1.33183,2.3858-2.12855a15.96275,15.96275,0,0,1,1.79733-1.5184,7.62756,7.62756,0,0,1,2.013-1.05986,5.58618,5.58618,0,0,1,3.64224-.1049,2.46056,2.46056,0,0,1,2.08783,2.46665,12.57352,12.57352,0,0,1-.6003,3.255l-.04333.15949A.94024.94024,0,0,1,50.91348,45.94843Z"/><path class="cls-7" d="M21.299,61.30962c-.48258-.12075-.79492-.57184-1.30851-.65493-.21067-.03408-.12984-.22387-.01486-.33795a9.3109,9.3109,0,0,1,2.90544-2.43492,1.52982,1.52982,0,0,0,.73958-.57937c.22845-.43143.63315-.50765.9679-.71895a7.84738,7.84738,0,0,1,1.14869-.58554,12.07572,12.07572,0,0,1,1.69751-.45008,12.59737,12.59737,0,0,1,2.24409-.42286c.4592-.0295.75294.3781,1.0564.3594.35419-.02183.663-.38013,1.1378-.34541a14.94941,14.94941,0,0,1,2.5893.43992A7.67075,7.67075,0,0,1,37.498,56.62109c.92646.61457,1.886,1.1716,2.77171,1.86a11.66683,11.66683,0,0,1,1.91858,1.93671c.26168.32352,1.10784,1.80728,1.42218,2.18561a2.6058,2.6058,0,0,1,.66984,1.4378.44953.44953,0,0,1-.1473.45557c-1.07063.39253-2.1554.74409-3.21916,1.15428a1.57785,1.57785,0,0,1-.87339.10656,1.04092,1.04092,0,0,1-.57322-.32613c-2.06289-2.37641-4.83556-3.48392-7.71882-4.46961-1.38419-.4732-2.74606.04992-4.0968-.24053-.28534-.06136-.59443.00738-.89034-.03584a13.559,13.559,0,0,0-1.43118.0627C23.96353,60.79936,22.66544,61.301,21.299,61.30962Z"/><path class="cls-1" d="M59.67969,32.42971c.26784-.26986.61127-.09351.91569-.15253,1.82529-.35386,3.66657-.60454,5.48751-1.00544,1.82617-.40206,3.67677-.70889,5.47442-1.22829A49.71954,49.71954,0,0,0,77.627,28.09158c1.21766-.52753,2.47131-1.01612,3.69856-1.531a21.4484,21.4484,0,0,0,2.9673-1.58138,22.36956,22.36956,0,0,0,2.66048-1.91711c.57066-.4818,1.07015-.20018,1.552.42349a1.92282,1.92282,0,0,1-.95355,2.16533c-.546.34706-.89252.859-1.40157,1.22084-.58168.4135-1.2306.72259-1.778,1.19581a18.52044,18.52044,0,0,1-1.92778.94826c-.65139.25846-1.25843.65047-1.92532.84359-1.351.3912-2.55832,1.17545-3.941,1.44162-.83788.16129-1.62559.48093-2.45709.6463-.39336.07823-1.62507.29587-1.89277.36711-1.20945.32185-2.45725.36569-3.68144.57152-.88768.14925-1.79075.21995-2.6683.4113-.4813.105-.94594-.16932-1.40582.038a4.50664,4.50664,0,0,1-3.55893-.26979C60.47626,32.90446,59.94551,32.92446,59.67969,32.42971Z"/><path class="cls-8" d="M21.299,61.30962a5.88514,5.88514,0,0,1,1.76457-.40023c.48337-.0092.93906-.27155,1.44405-.2769a1.24669,1.24669,0,0,1,.49547.00026,16.18826,16.18826,0,0,0,1.87451-.104,13.92291,13.92291,0,0,1,2.92732.14306c.468.09414.80908-.78956,1.416-.05823.30347.36568,1.06485.27976,1.58607.51627.53682.24359,1.10857.39472,1.6572.61427a30.99451,30.99451,0,0,1,3.14186,1.69271c.54893.29635,1.012.8359,1.61067,1.13126.17305.08537.17131.22992.17468.37335.00959.40748.39234.467.614.67634.00293.23153-.18606.27034-.343.32816a22.40188,22.40188,0,0,1-3.87377.99584c-.24356.043-.53163.07545-.68382-.15763-.14723-.22549.05539-.43925.19655-.58843.50187-.53035.139-1.19.27948-1.77713.06243-.261-.28086-.163-.44911-.09587a3.54091,3.54091,0,0,0-2.04658,2.03344c-.38494.94754-.404.9416-1.35777.67993a4.92236,4.92236,0,0,0-2.41218-.26207.46214.46214,0,0,1-.47964-.1226,15.45923,15.45923,0,0,0-3.34054-2.58332q-1.88778-1.18638-3.77481-2.37395C21.55841,61.592,21.346,61.54,21.299,61.30962Z"/><path class="cls-9" d="M64.37794,44.38833a.92026.92026,0,0,1-.02929.60185,1.49492,1.49492,0,0,1,.18941,1.14774,20.30076,20.30076,0,0,1-.16576,2.07671,29.0166,29.0166,0,0,0-.28736,4.67942,1.33579,1.33579,0,0,1-1.01473,1.141c-.34312-.06862-.50829-.36145-.72378-.58753-.63506-.66626-1.13942-1.48281-2.09118-1.78026a.29881.29881,0,0,1-.1809-.29542,1.70075,1.70075,0,0,0,.1255-1.09345,8.69575,8.69575,0,0,1,.03138-2.3533,8.10516,8.10516,0,0,0,.0393-2.20736c.21259-.89543.09158-1.83048.32337-2.72335A4.781,4.781,0,0,0,60.75,41.25108a9.53145,9.53145,0,0,1,.065-1.83508c.382-.08249.52683.19762.66671.4565.16506.30548.39286.5726.55477.87307.63349,1.17564,1.521,2.17646,2.22663,3.30108A.52083.52083,0,0,1,64.37794,44.38833Z"/><path class="cls-10" d="M64.37794,44.38833a33.37956,33.37956,0,0,1-2.217-3.09156A5.80937,5.80937,0,0,0,60.815,39.416c-.08343-1.17177-.02331-2.34022.00517-3.51245.023-.94511.13827-1.89052.09363-2.838a16.607,16.607,0,0,0,3.55893.26979,14.34225,14.34225,0,0,1,.03266,3.177c.00351,1.25215.01724,2.50488-.01572,3.75624a15.34647,15.34647,0,0,0-.00179,1.73888Z"/><path class="cls-2" d="M60.5939,42.99439a6.51315,6.51315,0,0,1-.14945,2.74044,1.37053,1.37053,0,0,1-.73605.32855,39.69317,39.69317,0,0,0-7.52546,2.61343A10.3106,10.3106,0,0,1,49.72657,49.875c-.06661-.01746-.12473-.10485-.16862-.09667-.11178.0208.0849.08705-.00372.13349-.45616.25555-.7792.824-1.43418.60992.50679-.72041,1.0399-1.42412,1.511-2.16716.31049-.48968.37856-1.1369.96367-1.44454a27.66644,27.66644,0,0,0,2.96006-1.35414,21.499,21.499,0,0,1,4.21266-1.694A12.36347,12.36347,0,0,0,60.5939,42.99439Z"/><path class="cls-2" d="M37.46123,56.78533c-.95278-.51869-2.01067-.77581-2.99885-1.2064a1.1777,1.1777,0,0,1,.5889-.59976,6.97656,6.97656,0,0,0,1.00125-.61,4.10509,4.10509,0,0,1,1.98114-.88192,4.38479,4.38479,0,0,0,1.44673-.79661c.66991-.4,1.37167-.69918,2.064-1.03567.92106-.44767,1.75631-1.0562,2.70521-1.455a16.17367,16.17367,0,0,1,2.74516-1.31305.65984.65984,0,0,1-.26377.51221,14.81312,14.81312,0,0,0-2.18188,3.22057,22.75335,22.75335,0,0,0-3.607,2.19423A15.896,15.896,0,0,1,37.46123,56.78533Z"/><path class="cls-4" d="M65.11059,5.09675a3.25874,3.25874,0,0,1-1.97232.15355A19.31716,19.31716,0,0,1,63.405,2.93521a2.40475,2.40475,0,0,1,.7048-1.40492.43824.43824,0,0,1,.70156.01891,1.23451,1.23451,0,0,1,.40977.98293A9.20424,9.20424,0,0,1,65.105,4.80224.89478.89478,0,0,0,65.11059,5.09675Z"/><path class="cls-10" d="M50.91348,45.94843l.08516-.16513C50.99046,45.84877,51.001,45.92389,50.91348,45.94843Z"/><path class="cls-11" d="M63.00433,53.95664a2.35007,2.35007,0,0,0,.87522-.81824A13.79739,13.79739,0,0,1,66.018,51.20873,14.70663,14.70663,0,0,0,68.72662,47.788c.31074-.56381.17522-.88535-.3958-1.22411a5.72174,5.72174,0,0,0-2.2773-.63309,1.822,1.822,0,0,1-.7888-.19279c-.29431-.18994-.52748-.41941-.11466-.73365a10.85532,10.85532,0,0,1,2.813-.10294,12.41326,12.41326,0,0,1,3.34355.93645,1.92155,1.92155,0,0,1,.64114,2.60137,12.2414,12.2414,0,0,1-1.55108,2.35c-.70632.8198-1.512,1.53043-2.28695,2.27066a29.581,29.581,0,0,1-2.87386,2.42267c-.939.6919-1.91139,1.34674-2.859,2.02711a29.18051,29.18051,0,0,1-3.66555,2.31686c-2.00838,1.031-3.97762,2.13487-6.02135,3.10174-1.7155.81158-3.5333,1.37012-5.2077,2.30658a10.06206,10.06206,0,0,1-2.70156.85122c-.798.17418-1.56555.51612-2.35877.75491a46.04763,46.04763,0,0,1-5.60819,1.31414c-1.04254.17629-2.09286.28614-3.13832.40167a10.10537,10.10537,0,0,1-3.44259-.37152,3.87321,3.87321,0,0,0-.77916-.20423c-.51734-.01907-.73959-1.15515-.618-1.3296a5.2205,5.2205,0,0,1,3.37982.37364c.3265.13592.43636-.0029.52-.29674a4.35014,4.35014,0,0,1,1.16212-1.90165c.40523-.4065.95886-.49141,1.39264-.81594a.4249.4249,0,0,1,.54994.07016.322.322,0,0,1,.03845.46934c-.18045.2072-.20656.276-.02552.58056.16757.28194-.11479.82832-.3871,1.19242-.09977.13342-.36746.22475-.28157.39159.0955.18549.36819.105.54075.06742a26.644,26.644,0,0,0,4.28026-1.16444,7.34423,7.34423,0,0,0,2.02017-.59041,10.13873,10.13873,0,0,1,2.15077-.6442,10.82376,10.82376,0,0,1,3.22612-1.63433A24.22418,24.22418,0,0,0,51.56936,61.01c1.21708-.69719,2.46166-1.35938,3.68978-2.03672,1.65188-.91106,3.18061-2.00292,4.76821-3.00685C61.1035,55.42133,61.88088,54.43208,63.00433,53.95664Z"/><path class="cls-12" d="M65.15006,45.00441c-.10934.3116-.14484.5021.30671.62367.50229.13522,1.018.139,1.51985.24262a9.57661,9.57661,0,0,1,1.47608.50895.95888.95888,0,0,1,.46187,1.54384,21.36,21.36,0,0,1-1.99549,2.626,18.37716,18.37716,0,0,1-3.03953,2.58891,39.59338,39.59338,0,0,1,.26792-5.21015,16.72252,16.72252,0,0,0,.20118-2.93807Z"/><path class="cls-13" d="M31.77694,91.36748c-.10069-.341.12684-.50531.481-.61221a1.56333,1.56333,0,0,1,1.99858,1.07035,10.63771,10.63771,0,0,0,1.58566,2.8929c.28179.36147.13662.63206-.32308.73971a1.78111,1.78111,0,0,1-1.13386-.14492A2.93073,2.93073,0,0,1,32.65649,93.948,6.88852,6.88852,0,0,1,31.77694,91.36748Z"/><path class="cls-13" d="M27.7556,80.96879c.1059-.2588-.238-.73617.34585-.92522a2.31991,2.31991,0,0,1,1.62236.20334c.10561.10048.07969.22417.10813.33926a33.16636,33.16636,0,0,0,.87092,3.78136.94047.94047,0,0,1-.22481,1.02177c-.27205.21267-.65161.07307-1.00387-.16509a3.74866,3.74866,0,0,1-1.327-2.02865A5.2325,5.2325,0,0,1,27.7556,80.96879Z"/><path class="cls-13" d="M58.657,91.59482c.481.17239.60673.662.8527,1.02325a3.44855,3.44855,0,0,1,.32429,1.03656.25441.25441,0,0,1-.02574.21095c-.14445.12427-.49889-.19689-.49014.18186.00275.1189.38157.19355.49822.354.16253.22353-.146.56939-.52934.62658-1.00069.14928-1.49516-.15191-2.023-1.13225-.42266-.78494-.79945-1.5902-1.18733-2.39133-.15564-.32143-.16613-.60073.19887-.71565a2.71115,2.71115,0,0,1,2.05807.25232.58517.58517,0,0,1,.31809.54655Z"/><path class="cls-13" d="M56.63211,81.35659c.11783.00523.241-.11534.35121-.0096a10.77786,10.77786,0,0,1,2.10752,2.66073.56144.56144,0,0,1-.09466.78318.70987.70987,0,0,1-.88128.13769,4.38777,4.38777,0,0,1-1.67621-1.24173c-.47826-.70063-1.03111-1.364-1.50505-2.07851-.35057-.52852-.19559-.86859.43388-.91571a2.51944,2.51944,0,0,1,1.19762.29736c.22331.09815-.03707.18339-.01843.27865C56.5251,81.34665,56.55588,81.37371,56.63211,81.35659Z"/><path class="cls-13" d="M66.11356,90.26481a1.49541,1.49541,0,0,0,.04051.36612c.3505.94286.109,1.272-.92486,1.24569a5.22029,5.22029,0,0,1-1.70811-1.82409A9.48131,9.48131,0,0,0,62.44879,88.498c-.09621-.0935-.2961-.24669-.15631-.44378.12817-.18071.29264-.41034.53414-.3274a1.75823,1.75823,0,0,0,.77994-.01582,1.49761,1.49761,0,0,1,1.46049.90224,6.27648,6.27648,0,0,1,.70432,1.27951A.59545.59545,0,0,0,66.11356,90.26481Z"/><path class="cls-13" d="M63.58536,95.45208c1.15681-.20742,1.32613.80254,1.79233,1.45069a4.97325,4.97325,0,0,1,.42436,1.38717.6453.6453,0,0,1-.32747.69487.7959.7959,0,0,1-.90393-.05841,7.25029,7.25029,0,0,1-1.65925-1.54363c-.1832-.31364-.37042-.625-.54872-.94141-.32438-.57561-.16536-.898.47831-.96024C63.08774,95.45724,63.33716,95.46094,63.58536,95.45208Z"/><path class="cls-13" d="M33.72,82.82565a1.28794,1.28794,0,0,1,1.33454,1.11045,1.18674,1.18674,0,0,0,.274.48429,4.55428,4.55428,0,0,1,.76465,1.99966c.01149.09518-.041.24443.00539.28128.24.19051.26852.40151.05461.59718-.238.2177-.49518.11275-.74774-.02675a3.21234,3.21234,0,0,1-1.28913-1.73645,9.54072,9.54072,0,0,1-.89347-2.0654C33.15093,83.02338,33.2323,82.83326,33.72,82.82565Z"/><path class="cls-13" d="M60.44734,81.43582A2.899,2.899,0,0,1,63.105,83.36035a.62725.62725,0,0,1-.81139.739A3.31778,3.31778,0,0,1,60.211,82.723c-.08962-.14721-.17325-.35223-.30892-.40589-.27474-.10868-.44817-.25157-.34969-.54387.08806-.2614.35008-.30983.59685-.33523C60.24761,81.42789,60.34791,81.43634,60.44734,81.43582Z"/><path class="cls-5" d="M69.82412,24.97149a.81361.81361,0,0,1-.97948-.53115c-.28492-.85613-.85156-3.58823-.904-3.96379-.2987-2.13735-.52288-4.28516-.76786-6.42994a4.73112,4.73112,0,0,1-.0061-.52211c-.0023-.89748.32439-1.19259,1.21187-1.09526a1.299,1.299,0,0,1,1.309,1.37779,14.33438,14.33438,0,0,0,.24589,2.2897c.322,1.451.30225,2.931.60979,4.37861.21762,1.02438.35645,2.08429.47426,3.1356A1.225,1.225,0,0,1,69.82412,24.97149Z"/><path class="cls-5" d="M73.144,14.36506a3.0836,3.0836,0,0,1,1.80533,1.12672c1.01768,1.06,1.93115,2.22024,2.95044,3.27856A9.48573,9.48573,0,0,1,79.517,20.73975c.14341.26358.54963.5712.19476.912-.31935.30664-.74305.10265-1.03338-.06726A10.72587,10.72587,0,0,1,74.92584,18.375c-.10239-.15515-2.11778-2.06452-2.38667-3.0729-.06186-.23195-.43123-.40755-.23363-.64953C72.50751,14.40524,72.8897,14.45791,73.144,14.36506Z"/><path class="cls-12" d="M60.16052,56.05116c-.15481.35489-.52758.401-.81156.57244a19.81756,19.81756,0,0,0-1.86581,1.28975,2.59258,2.59258,0,0,1-1.28765.66438c-.43582.04186-.65153.415-.9735.6028-.99168.57844-2.0564,1.01256-3.03252,1.61243-.04209.02588-.1041.03953-.125.07675-.33539.59836-1.0418.41707-1.50514.72105a7.675,7.675,0,0,1-1.69869.807,21.82337,21.82337,0,0,0-3.815,1.64113,5.9763,5.9763,0,0,1-.86929.34432,1.40474,1.40474,0,0,1-.00523-.29771c.092-.47625-.70638-1.215-.83273-1.48475-.14557-.31081-.36541-.58717-.5071-.89935a3.24775,3.24775,0,0,0-.4532-.67235,10.91117,10.91117,0,0,0-2.32493-2.488c-.84341-.62472-1.77275-1.10729-2.592-1.75572a1.66971,1.66971,0,0,1,.87634-.62237,7.93324,7.93324,0,0,0,1.24-.64418c.507-.27883.93036-.65089,1.39892-.9692.483-.32811.96285-.66316,1.46735-.96525a17.3206,17.3206,0,0,0,1.60179-.89834.7471.7471,0,0,1,.50352-.06635,5.64308,5.64308,0,0,0-.56152,2.69489,5.93019,5.93019,0,0,0,.44706,2.88962,7.01831,7.01831,0,0,0,.57947,1.02736c.07206.09851.60119,1.01409,1.14516,1.043.352.01873.63959.2264,1.01891.2613a4.36746,4.36746,0,0,0,2.34716-.70383,19.01415,19.01415,0,0,1,2.31011-1.85653c.6366-.42279,1.1164-1.05118,1.73271-1.51172a6.1437,6.1437,0,0,1,4.165-1.51607,5.76907,5.76907,0,0,1,1.99406.55258A.61466.61466,0,0,1,60.16052,56.05116Z"/><path class="cls-12" d="M48.12005,50.5217c.56321-.0864.93067-.54382,1.42837-.75437l-.00042.00046a.98311.98311,0,0,0,.60913-.20968,28.37489,28.37489,0,0,1,6.24154-2.77854,21.95892,21.95892,0,0,1,4.04578-1.04474c.24949,1.36226-.19092,2.70411-.10938,4.05686a8.63543,8.63543,0,0,1-.20784,1.60637c-.24995.2642-.51818.05532-.76537.009-.52805-.099-1.05734.51561-1.30407.359-.54129-.3436-.91009-.09692-1.3103.08013A15.27012,15.27012,0,0,0,52.888,54.59572c-.76661.68075-1.663,1.16834-2.48539,1.76488a.74025.74025,0,0,1-.70234.13957,3.60182,3.60182,0,0,1-1.80648-.22669c-.749-.44682-.78492-1.31-1.16877-1.96823a1.86962,1.86962,0,0,1-.1338-.48855,1.816,1.816,0,0,1,.36006-1.83073C47.39468,51.5415,47.60214,50.90743,48.12005,50.5217Z"/><path class="cls-14" d="M49.70027,56.50017a16.255,16.255,0,0,0,3.00467-1.99106,14.16235,14.16235,0,0,1,4.61269-3.08556c.11671-.03756.22547-.10031.34261-.1359a5.31594,5.31594,0,0,1,.97989-.06446,3.57316,3.57316,0,0,1,1.4871.17487c1.31971.44689,2.02589,1.58435,2.8771,2.55858a14.1588,14.1588,0,0,1-2.84381,2.09452,4.06335,4.06335,0,0,0-2.3673-.91545,4.92513,4.92513,0,0,0-3.44346,1.02139c-.71537.50791-1.36362,1.12507-2.03954,1.67755A12.86422,12.86422,0,0,1,49.52534,59.832C49.45943,58.71487,49.833,57.62082,49.70027,56.50017Z"/><path class="cls-15" d="M39.91255,29.22723c.00326-.01809.0004-.04338.01121-.0526C39.94036,29.16047,39.94017,29.20366,39.91255,29.22723Z"/><path class="cls-11" d="M28.34638,63.83706a1.46152,1.46152,0,0,1,1.07635-1.36894,6.738,6.738,0,0,1,2.51845-.0436c.8679.03527.85517.08044.666.97127a2.47967,2.47967,0,0,1-.08782.495c-.24843.55818-.43971,1.13774-1.27387,1.08283a5.64288,5.64288,0,0,1-2.2908-.23663C28.47774,64.50827,28.30707,64.26823,28.34638,63.83706Z"/><path class="cls-12" d="M49.54842,49.76733l-.06543-.06538c.01381.00368.03279.003.04026.012a.21559.21559,0,0,1,.02475.05383Z"/><path class="cls-2" d="M58.657,91.59482c-.00925.11706-.07736.14322-.17758.11054-.01784-.00582-.04388-.04412-.04053-.04871.05338-.073.116-.1267.21275-.069Z"/><path class="cls-2" d="M56.63211,81.35659c-.05488.04951-.13581.08939-.17932.02783-.05892-.08339.0415-.092.09392-.11577A1.2241,1.2241,0,0,1,56.63211,81.35659Z"/></svg>