<svg width="120px" height="120px" viewBox="0 0 120 120" id="Layer_1" data-name="Layer 1" xmlns="http://www.w3.org/2000/svg"><defs><style>.cls-1{fill:#c5cbfe;}.cls-2{fill:#a4aefe;}.cls-3{fill:#d0d5fe;}.cls-4{fill:#c3cafe;}.cls-5{fill:#2b3c59;}.cls-6{fill:#fedc9d;}.cls-7{fill:#2c3d5a;}.cls-8{fill:#fedda0;}.cls-9{fill:#fbfbfe;}.cls-10{fill:#2d3e5c;}.cls-11{fill:#2c3d5b;}</style></defs><title>hs-huzzah-33</title><path class="cls-1" d="M93.98985,52.43454c-.13165.34642,1.31666,1.424,1.65366,1.81354a10.99092,10.99092,0,0,0,1.71435,1.23644c1.18938.92042,2.4325,1.77477,3.68395,2.61078a24.018,24.018,0,0,0,4.31744,2.34827c1.20846.48889,2.48641.76637,3.705,1.21077a12.77415,12.77415,0,0,1,6.46,4.41627,20.554,20.554,0,0,1,2.73984,5.43519,4.33665,4.33665,0,0,1,.08958.97456c.03155.28628-.00892,1.519.00106,1.775a6.44334,6.44334,0,0,1-.74381,3.19575c-.18994.37549.10891.83582-.2626,1.15082-.08737.09384-.24192.06181-.321.17124l.01721-.01337c-2.43594.74955-4.86253,1.35528-7.2131-.27616a2.19175,2.19175,0,0,0-1.06653-.39889c-.30729-.02408-.67811-.194-.86579.22286a.84694.84694,0,0,0,.24791,1.103,8.74182,8.74182,0,0,0,1.82971,1.078,11.02233,11.02233,0,0,0,5.30631.64839c.265-.01446.54256-.13918.77368.10084a7.70181,7.70181,0,0,1-1.50469,2.37867,10.9127,10.9127,0,0,1-2.1578,1.97773,8.8067,8.8067,0,0,1-2.28273,1.8191c-2.21269.93434-4.41082,1.31339-6.52487-.27457a3.579,3.579,0,0,0-.57695-.29935c-.53822-.26619-1.324.01006-1.638-.74773-1.064-.03374-1.57944-1.03-2.44642-1.39449a6.125,6.125,0,0,0-2.435-.67628c-2.00983.01845-4.03025-.11826-6.02646.04751-1.41591.11759-2.79929-.058-4.19721-.04281a2.78961,2.78961,0,0,1-.96829-.12441c-1.07837-.37291-2.23466-.41534-3.32376-.73041a36.32412,36.32412,0,0,1-3.67093-1.548c-1.10566-.45611-2.22155-1.09485-3.41964-.21315-.85718.07454-1.363-.58538-2.00553-.95935a22.00361,22.00361,0,0,1-4.328-3.98932,5.82347,5.82347,0,0,1-1.60693-4.02675c-.0124-.3152.07216-.68093-.35586-.82732-.55479-.18974-.95468.13348-.9025.78707a30.80091,30.80091,0,0,0,1.09216,6.27642c.64236,2.18239,1.43382,4.31287,2.1991,6.45286a1.51242,1.51242,0,0,1,.16388,1.03293,5.32048,5.32048,0,0,1-1.33021,1.53021c-.86051.8534-1.67577,1.75327-2.57365,2.57809a23.92989,23.92989,0,0,0-2.55674,2.94791c-.64283.82461-1.60491,1.32031-2.11149,2.25307-.55666,1.025-1.61578,1.62346-2.206,2.67284a8.40219,8.40219,0,0,1-1.35982,1.36622,12.35838,12.35838,0,0,0-1.65972,1.99478c-.25421.38676-1.24692,1.46193-1.34672,1.612a4.902,4.902,0,0,1-3.58662,2.15989c-1.78748.25942-3.58394.37685-5.38235.51856-1.37159.10806-2.74487.15586-4.11572.22226a18.27813,18.27813,0,0,1-3.338-.15146c-.42953-.05856-.797.083-1.19388.05235l.00261.00256a10.43767,10.43767,0,0,0-2.66653-.41711c-.65843-.0514-1.26538-.426-1.94425-.49881-.35194-.03776-1.39778-.35909-1.7409-.41535a15.82082,15.82082,0,0,1-1.5821-.36436c-.24371-.06622-1.25807-.4891-1.48091-.53083a11.31606,11.31606,0,0,1-3.44516-1.60577c-.22872-.3544.03872-.55737.24469-.769a2.51792,2.51792,0,0,1,.67564-.46431,15.227,15.227,0,0,0,5.06121-4.4836,23.05633,23.05633,0,0,0,3.1116-5.14362,9.66143,9.66143,0,0,1,.71613-1.28645c.35394-.58547.76727.09723,1.20914.06006A5.99122,5.99122,0,0,0,38.40467,88.711a.54877.54877,0,0,1,.27989-.1624c2.24584-.351,3.62823-2.02308,5.18231-3.4169a12.08495,12.08495,0,0,0,1.29086-1.48928c.25637-.32029.60263-.563.23845-1.043-.14567-.192.08646-.31567.23842-.48557.47493-.531,1.3745-.56895,1.58282-1.387.02608-.10241.15031-.202.13479-.2939-.16124-.95454.48223-1.55063.91927-2.27012.46415-.7641.51954-1.70859.94663-2.52648a21.58056,21.58056,0,0,0,.64-2.45661c.19948-.53222.36216-.99754,1.09235-1.14149.65045-.12823,1.13032-.74872,1.65248-1.18079,1.75164-1.44939,3.60809-2.7633,5.36844-4.202a18.00018,18.00018,0,0,0,1.62342-1.3543c.07549-.07807.22729-.12174.2477-.20805.28971-1.22526,1.56039-1.38969,2.29376-2.13322a27.32934,27.32934,0,0,0,3.01346-3.76829,34.07874,34.07874,0,0,0,2.51106-4.79092c.24576-.51621.94886-2.84085,1.09545-3.27183a8.29263,8.29263,0,0,1,.73966-2.07127.74522.74522,0,0,1,.88667.2564,16.24639,16.24639,0,0,0,5.559,3.98287,13.56381,13.56381,0,0,0,5.97125,1.30755,22.41281,22.41281,0,0,1,3.02534-.0317,14.40558,14.40558,0,0,0,4.92547-1.08891,19.48044,19.48044,0,0,0,3.36852-1.25892C93.49077,52.07539,93.85792,51.93586,93.98985,52.43454Z"/><path class="cls-2" d="M93.98985,52.43454c-.19179-.25681-.427-.19982-.65234-.07118a26.30617,26.30617,0,0,1-4.2254,1.58161,25.297,25.297,0,0,1-3.7671.90751c-.17644.03509-.32319.02925-.42558-.13873.02638-.28627.22439-.25762.4219-.22988-.16153-.08982-.35354-.09347-.51613-.16615-.588-.26285-1.19912.012-1.789-.09453a20.79061,20.79061,0,0,1-10.47645-4.76767,19.11011,19.11011,0,0,1-5.15381-7.68325A4.73483,4.73483,0,0,1,67.301,39.8978a3.10514,3.10514,0,0,0-.02533-1.05741,4.43593,4.43593,0,0,0-.51687,4.29229,14.327,14.327,0,0,0,2.64925,5.15415.60871.60871,0,0,1,.08406.8228,12.56187,12.56187,0,0,1-.70559,2.51173c-.10653.34386-.58241,1.87341-.72437,2.28806-.40627,1.18675-1.062,2.25965-1.56765,3.39984A26.417,26.417,0,0,1,63.234,62.13715a3.00453,3.00453,0,0,1-1.62117,1.36525c-.23485.05481-.16417.23506-.22639.36963a5.63875,5.63875,0,0,1-1.02932,1.0381,16.3822,16.3822,0,0,1-1.53566,1.44093c-2.10385,1.48755-4.09637,3.1124-6.11014,4.713a5.3868,5.3868,0,0,1-1.65309,1.13813c-.92889.26038-1.04.95451-1.16887,1.63964a29.67731,29.67731,0,0,1-1.63815,4.84541,27.34839,27.34839,0,0,1-1.1838,2.61661,11.56554,11.56554,0,0,1-.80228,1.121c-.15346.16765-.395.70781-.59958.96694a20.607,20.607,0,0,1-3.77986,3.81071c-.92435.69007-1.82775,1.58366-3.1554,1.49631-.059-.00388-.13247.07059-.18444.12317a4.80865,4.80865,0,0,1-3.97437,1.2854c-.19223-.01256-.20276.13707-.32122.164-.129.02927-.27907.12847-.37978.09056-.38024-.14316-.72329-.0048-.89679.509a13.62314,13.62314,0,0,1-1.94009,3.57065,12.19643,12.19643,0,0,1-1.40921,2.17161A14.13352,14.13352,0,0,0,27.76681,98.553c-.93255,1.24711-2.34391,1.74652-3.50144,2.628-.32622.24842-.70535.42718-.74316.90222-.70848,1.0163-.99666,2.24686-1.73022,3.26505a16.77439,16.77439,0,0,1-2.087,2.59962,11.17929,11.17929,0,0,1-2.36453,1.83337c-.4852.24891-.8361.72806-1.38144.80845-.20037.02951-2.45967.91347-3.31959,1.22918a18.20439,18.20439,0,0,1-4.73045.72719,8.18043,8.18043,0,0,1-3.65015-.55688c-.57449-.213-1.22265-.408-1.49264-1.13619-.47765-1.28822-.522-1.2933.57647-2.11275a6.11639,6.11639,0,0,0,1.53975-2.29121,6.417,6.417,0,0,0,.86948-2.3554,11.94916,11.94916,0,0,1,.6038-3.20313.28688.28688,0,0,0,.0283-.30646,3.27805,3.27805,0,0,1-.07167-2.842c.24068-.88326.06547-1.75869.26314-2.63011.43737-1.92807.59724-3.93657,1.51984-5.72057.44316-.85695.84384-1.73448,1.36844-2.56622A16.69969,16.69969,0,0,1,14.663,81.90868a8.30846,8.30846,0,0,1,2.286-1.20082c.2318-.06475.45828-.30594.41614.29805-.0692.99175-.28617,1.96365-.31719,2.95511-.04265,1.36337-.119,2.725-.07414,4.09141a27.70511,27.70511,0,0,0,1.07388,7.28425c.23737.77348.1995,1.61025.48343,2.38945.13833.37962.23328.33225.4337.09474a2.09024,2.09024,0,0,0,.54611-1.7681,41.621,41.621,0,0,1-.56932-5.34071,13.64435,13.64435,0,0,0-.30023-2.67,2.32108,2.32108,0,0,1,.0112-.97768,1.77975,1.77975,0,0,0,.10635-.474c-.20943-3.87487.87253-7.5054,2.04694-11.12852.423-1.305,1.12817-2.46941,1.63858-3.72679a3.19473,3.19473,0,0,1,.92611-.99069A27.22608,27.22608,0,0,1,27.481,68.4419c.72519-.26641,1.43978-.62363,2.15522-.94677.70906-.32025.90349-.14119.79515.62989a25.31592,25.31592,0,0,0-.42975,5.03027,60.51488,60.51488,0,0,0,.41321,6.67862c.13242.76509.14421,1.56878.272,2.34541.03421.20793.04855.59865.34547.58309.31936-.01672.19618-.378.25019-.60265a16.26975,16.26975,0,0,0-.00541-3.17071c.07077-1.573-.09325-3.16043.03628-4.72569.0871-1.05243.20747-2.128.19857-3.16234-.00973-1.13278.4193-2.19468.29846-3.32186-.05936-.55367.3803-1.01522.44753-1.55409A15.563,15.563,0,0,1,33.722,61.18962,16.39823,16.39823,0,0,1,36.3157,56.83a12.51828,12.51828,0,0,1,1.30662-1.04286c.92622-.21581,1.21217-1.19733,1.99087-1.627.76525-.42225,1.5807-.71729,2.34533-1.12626a3.91515,3.91515,0,0,0,1.16111-.4861,5.63727,5.63727,0,0,1,2.31065-.55985c.3387.18022-.01375,2.50288-.11278,3.33013a28.32843,28.32843,0,0,0,.24132,7.17093c.17787,1.31585.3769,2.63049.52863,3.95038a1.83129,1.83129,0,0,0,.13927.55107c.09307.20913.1888.42991.45395.39451.33291-.04446.2057-.33163.21413-.52811a30.72041,30.72041,0,0,0-.27065-3.40912,10.85411,10.85411,0,0,1-.05958-3.4974c.116-.45317-.1806-.85419-.14305-1.29158.1823-2.1244.24986-4.25861.64448-6.36414.224-1.19493.36553-2.40341.6591-3.58826a22.15627,22.15627,0,0,1,1.57076-4.9285,17.80066,17.80066,0,0,1,2.45529-3.98638A10.73029,10.73029,0,0,1,55.039,37.65531a14.25369,14.25369,0,0,1,1.76519-.61264,3.84665,3.84665,0,0,0,.98776-.40012,6.51517,6.51517,0,0,1,4.25363-.5909.42169.42169,0,0,0,.31613-.00234,5.94958,5.94958,0,0,1,3.4553-.15058,7.44706,7.44706,0,0,0,1.46348.10262c.79149-.0505,1.31584.59516,1.93414.95191a.97063.97063,0,0,0,1.1846.05835,23.48174,23.48174,0,0,1,4.00353-1.86834,19.28894,19.28894,0,0,0,2.63516-.31739,12.14947,12.14947,0,0,1,6.62517,1.39492c.44626.25611.896.52507,1.35129.74292a5.96164,5.96164,0,0,1,2.59647,2.3981A31.30928,31.30928,0,0,0,89.666,42.37147a20.8536,20.8536,0,0,1,2.30725,4.158c.3388.743.61847,1.50794.88765,2.28089a8.15369,8.15369,0,0,0,1.4465,2.85774C94.81678,52.23845,94.5985,52.38751,93.98985,52.43454Z"/><path class="cls-3" d="M74.40279,35.14327a.88533.88533,0,0,1-.527.48707,16.83907,16.83907,0,0,0-3.826,1.81459c-.16791.10438-.42774.27347-.50253.10225-.3243-.7425-1.2904-.55846-1.65625-1.20935a.34392.34392,0,0,0-.34869-.18014c-1.44542.26643-2.84655-.4125-4.29193-.19358-.32012.04848-.66573-.0489-.75915.41378-.02615.12948-.20085.24957-.31524.10052-.68091-.88725-1.48474-.23825-2.24448-.21315-.73572.0243-1.40075.40242-2.13957.37729a4.37059,4.37059,0,0,1,.01209-2.00078c.0557-.61293.298-2.74007.29652-3.166a20.43812,20.43812,0,0,1,.18207-3.40613,19.6062,19.6062,0,0,1,3.10372-.65533,24.54577,24.54577,0,0,0,5.2341-1.55465,12.14142,12.14142,0,0,0,2.75362-1.43533c.20419-.15747.451-.34216.74356-.13544.61313.48369.56427,1.25762.82546,1.89485a19.3603,19.3603,0,0,1,1.14215,2.71594,31.00546,31.00546,0,0,1-4.3245,3.96417c-.1396.10474-.39341.19258-.27329.42519.08727.169.2953.06192.45015.041,1.43409-.19322,2.827-.5766,4.23173-.90774.40531-.09555.8151-.37563,1.24879-.07126.56268.68154.47217,1.66554,1.077,2.33663C74.55689,34.75625,74.43792,34.98754,74.40279,35.14327Z"/><path class="cls-4" d="M70.11766,24.28894c-.784.20647-1.26588.92026-2.01949,1.18852a38.67881,38.67881,0,0,1-4.72268,1.69325,29.73568,29.73568,0,0,1-5.09283.899c-.82764-.59414.01346-1.18941.04622-1.77185a3.89553,3.89553,0,0,0-.04582-1.34819,6.02445,6.02445,0,0,1,1.82861-1.2127,18.37455,18.37455,0,0,0,4.00921-3.0633c.85168-.75821,1.74784-1.47525,2.5287-2.31526.173-.18613.35-.44163.68347-.33129.61233,1.31162,1.36788,2.54768,1.8563,3.92959C69.46527,22.73736,69.84662,23.49494,70.11766,24.28894Z"/><path class="cls-3" d="M67.33305,18.0271c-.92364.84071-1.84156,1.68782-2.77221,2.52069a19.65766,19.65766,0,0,1-5.15848,3.77352c-.38988.16812-.64373.59815-1.1193.62834.2048-.80777-.02926-1.64949.16332-2.45018.25277-1.05091.03111-2.12125.19626-3.168a15.19,15.19,0,0,0,.134-2.28849,1.14374,1.14374,0,0,1,.78124-.406c.55123-.07785.88411-.66844,1.29083-.734a7.24105,7.24105,0,0,0,1.46508-.14274,10.3824,10.3824,0,0,0,2.674-1.2102.65527.65527,0,0,1,.68833-.13538c.43481.90347.96206,1.76,1.32489,2.70168C67.11737,17.41819,67.24652,17.71438,67.33305,18.0271Z"/><path class="cls-5" d="M69.14044,86.15615c-.55134-1.56874-1.0273-3.16938-1.67414-4.69771A30.911,30.911,0,0,1,65.948,76.18777a6.60354,6.60354,0,0,1-.29872-2.98724c.101-.43562-.24514-.84027-.13912-1.36607.17191-.85261.73475-.38043,1.11229-.46744.48667-.11216.53384.28884.5143.6149a5.7596,5.7596,0,0,0,.16908,1.653A6.01361,6.01361,0,0,0,68.959,76.588c.64455.65972,1.28169,1.347,1.92884,2.0036a14.53986,14.53986,0,0,0,3.99624,2.818A20.40939,20.40939,0,0,1,72.4364,83.056,34.08166,34.08166,0,0,0,69.14044,86.15615Z"/><path class="cls-4" d="M65.67616,14.41465a13.0684,13.0684,0,0,1-3.742,1.69127c-.29319.08183-.66964.54208-.92925-.07807a.10571.10571,0,0,0-.19361.00341c-.36718.96941-1.34257.70482-2.03459,1.01169a27.24878,27.24878,0,0,1,.32926-5.42307,19.04958,19.04958,0,0,0,2.76386-2.63045c.21524-.24736.41884-.59865.85613-.51C63.69443,10.46524,64.81175,12.37711,65.67616,14.41465Z"/><path class="cls-6" d="M106.04661,41.69788c-.28994-.03811-.28349-.27329-.38649-.46084-.734-1.33648-1.12538-2.9126-2.61843-3.73052a8.12237,8.12237,0,0,0-.89515-.37608c-.18356-.07423-.37029-.13577-.41158-.35132-.04934-.25754.17777-.31109.34041-.39107.36955-.18171.67582-.46285,1.02106-.66779a3.80258,3.80258,0,0,0,1.72136-2.84447c.10088-.58349.51026-1.09414.38587-1.722a.21741.21741,0,0,1,.11905-.17667c.14643-.03569.17091.10016.19212.19984.14166.666.4351,1.28346.62637,1.92934a4.904,4.904,0,0,0,2.97385,3.37611c.229.09233.55431.32083.11423.47176-1.04761.3593-1.37614,1.32931-1.977,2.0795a4.69144,4.69144,0,0,0-.63989,1.71386A1.45784,1.45784,0,0,1,106.04661,41.69788Z"/><path class="cls-6" d="M96.10287,23.83921c-.10732.19768-.17948.39861-.40017.50752-1.469.72489-2.01159,2.11729-2.5038,3.53343-.09606.27641-.03353.61914-.448.67679-.43483.0605-.54416-.27406-.706-.558-.38872-.68191-.79533-1.35382-1.1748-2.04076a1.998,1.998,0,0,0-1.54768-1.187c-.26709-.03049-.51993-.17995-.53631-.43082-.02126-.32572.3292-.182.50693-.26235a4.91624,4.91624,0,0,0,2.70807-3.189c.13981-.44193.26742-.88779.4131-1.32772.04078-.1231.08741-.29167.23935-.30093.19078-.01163.17054.16733.18834.29682a5.40511,5.40511,0,0,0,2.72621,3.71567C95.79266,23.42566,96.0542,23.532,96.10287,23.83921Z"/><path class="cls-7" d="M116.05682,81.23781a16.67776,16.67776,0,0,1-2.73494.15994,8.59256,8.59256,0,0,1-5.2775-1.79738,1.07491,1.07491,0,0,1-.21483-1.707c.42346-.44606.94885-.07227,1.34436.06265.79985.27282,1.51448.76526,2.30379,1.101a5.13139,5.13139,0,0,0,3.13567.06875,10.601,10.601,0,0,1,2.43126-.36593,10.65244,10.65244,0,0,1-.48268,1.63537A1.98164,1.98164,0,0,1,116.05682,81.23781Z"/><path class="cls-3" d="M62.72592,8.47943a11.33418,11.33418,0,0,0-1.54359,1.55335,4.29937,4.29937,0,0,1-2.0764,1.5871,4.8742,4.8742,0,0,0-.10435-1.5882,3.89557,3.89557,0,0,1,.14718-2.31224c.1313-.82968-.29469-1.57406-.07849-2.39287.19586-.74176.81441-.74025,1.30693-.895.466-.14646.61039.29692.74014.6784A23.64351,23.64351,0,0,0,62.72592,8.47943Z"/><path class="cls-8" d="M42.01984,33.37207c.23464-.00971.23227.16791.27572.32756a9.15777,9.15777,0,0,0,.59263,1.68844,2.12111,2.12111,0,0,0,1.12956,1.21813c.574.21282.36706.55042.02491.73775a3.43876,3.43876,0,0,0-1.7799,2.59433.50479.50479,0,0,1-.567.46957c-.37075-.01816-.2825-.30115-.37482-.51345-.463-1.06481-.63208-2.37114-2.10612-2.64841a.17711.17711,0,0,1-.01275-.34952c1.80231-.37489,2.18306-1.85662,2.61368-3.30473C41.84748,33.485,41.88481,33.38305,42.01984,33.37207Z"/><path class="cls-4" d="M73.41815,32.35114c-1.20628.29913-2.41391.593-3.61834.89935a9.24394,9.24394,0,0,0-2.27168.47672c-.21082.11229-.30639-.25155-.43046-.40822-.14514-.1833.04249-.27483.175-.37148.43838-.31979.86835-.651,1.29718-.9831.87476-.67756,1.58107-1.53947,2.4669-2.19214.36988-.27252.35664-1.00318,1.04856-.87254a18.44992,18.44992,0,0,0,1.30351,3.053C73.454,32.04729,73.411,32.21656,73.41815,32.35114Z"/><path class="cls-1" d="M36.37945,105.9129l-.07364.07835c.00371-.0164.002-.03935.01231-.04775a.24551.24551,0,0,1,.06394-.028Z"/><path class="cls-9" d="M69.49213,49.10963c.14091-.66638-.46065-.96306-.75584-1.37185A15.23539,15.23539,0,0,1,66.711,43.66289a7.08282,7.08282,0,0,1-.36077-3.48582,9.68574,9.68574,0,0,1,.62151-1.40569.45274.45274,0,0,1,.55916-.23547c.17941.073.02515.28876.04292.42871a5.94138,5.94138,0,0,1-.09741,1.19108,7.09885,7.09885,0,0,0,1.30126,4.09683c.32679.5564.568,1.15289.94059,1.69689a19.16151,19.16151,0,0,0,4.64124,4.70033,21.58491,21.58491,0,0,0,8.73845,3.39319.72192.72192,0,0,0,.32539.01787,2.60444,2.60444,0,0,1,2.20328.43593c-.21719.14674-.53506-.00923-.70714.217a23.23747,23.23747,0,0,1-4.10577.07621,16.25241,16.25241,0,0,1-5.52928-1.5594c-1.09067-.55616-2.04778-1.30314-3.08677-1.92106a5.068,5.068,0,0,1-1.72235-1.56816A1.10551,1.10551,0,0,0,69.49213,49.10963Z"/><path class="cls-10" d="M86.29526,62.73413c-1.47641-.19356-2.18257.82135-2.70658,1.99759-.24425.54827-.57892.87125-1.1428.80628a1.16135,1.16135,0,0,1-.99976-1.04,2.284,2.284,0,0,1,.75694-2.36982,8.17444,8.17444,0,0,0,1.37443-1.30979,2.0905,2.0905,0,0,1,1.04924-.60908,5.03781,5.03781,0,0,1,5.66492,1.30631,5.82246,5.82246,0,0,1,1.69527,4.45589c-.02488.63435-.34615.85271-.89366.93287a4.08369,4.08369,0,0,1-1.28906-.20258c-.28569-.04755-.38307-.2545-.30749-.55309a3.58643,3.58643,0,0,0-.33541-2.10113c-.32728-.92178-1.22155-1.13167-2.07472-1.30619A4.28843,4.28843,0,0,0,86.29526,62.73413Z"/><path class="cls-11" d="M114.569,72.30712a1.462,1.462,0,0,1-1.73416,1.18,3.35056,3.35056,0,0,1-2.66571-2.23642.8094.8094,0,0,1,.45513-1.09636c.43908-.1884.67593.24055.79615.58133a5.21336,5.21336,0,0,0,1.1361,1.65673c.08346.09549.1974.25756.31973.17143.07332-.05165.06363-.25683.05066-.389-.051-.51989-.47372-.88142-.58177-1.40577-.07268-.35265.024-.46292.26436-.53119a.91164.91164,0,0,1,.99291.1777A4.59647,4.59647,0,0,1,114.569,72.30712Z"/></svg>