<svg width="120px" height="120px" viewBox="0 0 120 120" xmlns="http://www.w3.org/2000/svg"><path d="m90.75 88.65c.14-.8.94-1.11 1.32-1.77a8.09 8.09 0 0 0 1-2.23c.1-.48.53-.73.56-1.22s.12-.84-.26-1-.9-.42-1.43.18a25.48 25.48 0 0 0 -2 3.2 36.34 36.34 0 0 1 -2.94 3.52 16.23 16.23 0 0 1 -1.29 1.67c-1 .92-2.12 1.74-3.18 2.61l-.73.39c-.67-.11-1-.66-1.41-1.1-.2-.22-.48-.46-.36-.83a3.1 3.1 0 0 1 .64-.71 11.81 11.81 0 0 0 2.34-3 2.41 2.41 0 0 0 .32-1.68c-.09-.34-.11-.69-.18-1s0-.5-.39-.26c-.25.14-.24-.17-.24-.34s.12-.31.11-.48l-.4.37c-.47.43-.78 1-1.22 1.46-.83.88-1.65 1.75-2.46 2.65a3.25 3.25 0 0 1 -1 .75.34.34 0 0 1 -.14 0 2.67 2.67 0 0 1 -.54-1.06.71.71 0 0 0 -.76-.51 5.64 5.64 0 0 0 -1.74.2c-2.13.62-3.71-.4-4.56-2.3a8.13 8.13 0 0 0 -.56-1.28c-.09-.12 0-.26 0-.39a5.69 5.69 0 0 0 -.25-1.76 3.44 3.44 0 0 0 .12-1.86.89.89 0 0 0 -.58-.67 13.06 13.06 0 0 0 -2.13-.55 5.56 5.56 0 0 1 -1-.33 7.78 7.78 0 0 1 -2.46-2.18 4 4 0 0 1 -.52-2.66 29.64 29.64 0 0 1 .8-3.25 2 2 0 0 1 .66-1.16c.07-.06.19-.22.15-.23-.41-.18-.22-.68-.57-.91a8.72 8.72 0 0 1 -2.78-3.19 5.17 5.17 0 0 1 -.38-2.91c.06-.82.17-1.63.27-2.44a4.58 4.58 0 0 1 1.68-3.31 4.77 4.77 0 0 1 1.74-.69 5 5 0 0 0 1.21-.39 12.5 12.5 0 0 0 2.16-1c.26-.16.5-.31.31-.71-.1-.22.09-.52-.09-.77a.64.64 0 0 0 -.61-.35c-.91 0-1.77.35-2.67.43a.29.29 0 0 0 -.22.12c-.24.37-.5.23-.76 0-.6-1-1.69-1.19-2.65-1.59a7.24 7.24 0 0 1 -2.79-1.55.74.74 0 0 0 -.44-.24 6.26 6.26 0 0 1 -2.39-1.23c-2.14-1.41-4.22-2.92-6.41-4.26a15.25 15.25 0 0 0 -2.56-1.27c-.3-.12-.48.11-.71.09s-.12-.47-.44-.55a5.56 5.56 0 0 1 -1.15-.5.35.35 0 0 0 -.48.1c-.25.28-.41.24-.44-.1s-.15-.41-.44-.39-.28-.13-.43-.23a5.2 5.2 0 0 0 -1.44-.43.94.94 0 0 1 -.65-.23c-.1-.3.12-.46.3-.63a21.7 21.7 0 0 1 3.26-2.63c.47-.33 1-.56 1.46-.94.09-.07.26-.08.25-.21s-.19-.1-.29-.15a.29.29 0 0 1 -.16-.11c0-.15.1-.21.21-.25a14.37 14.37 0 0 1 3.93-1.33 41.55 41.55 0 0 1 4.31-.38c.58 0 1.16-.16 1.74-.18a32.28 32.28 0 0 1 6.06.19 29.43 29.43 0 0 0 4 .49 7 7 0 0 1 1.21 0c.5.1 1 .17 1.14.74.09.28.29.3.5.11a1 1 0 0 1 1.1-.06 17.66 17.66 0 0 1 2.43.79c.35.2.83.13 1.25.3.77.32 1.63.44 2.37.81a15 15 0 0 1 2.54 1.06c.48.33 1.17.45 1.72.78s1.3.59 2 .91l.18.08a.5.5 0 0 1 .32.53c.17-.34.38-.11.55 0s.45.23.66.37.41.23.59.38a2.85 2.85 0 0 0 .6.37 22.61 22.61 0 0 1 2.27 1.35 31.7 31.7 0 0 1 2.82 1.91 5.36 5.36 0 0 0 1.18.64 6.2 6.2 0 0 1 1.64.93c.22.18.55.1.8.25a1.92 1.92 0 0 1 .42.28c.7.87 1.36 1.78 2 2.69.45.64.91 1.27 1.42 1.88s.89 1.29 1.4 1.9a8.86 8.86 0 0 1 1.11 1.47.58.58 0 0 0 .37.33c.08 0 .18 0 .21.12a5.73 5.73 0 0 0 1.65 2.16c.84.91 1.57 1.91 2.44 2.79s1.6 1.71 2.47 2.5 1.77 1.72 2.72 2.52a7.31 7.31 0 0 0 1.71 1 1.67 1.67 0 0 0 2.23-.8c.11-.22.27-.42.39-.64s.34-.36 0-.62 0-.38.19-.43c.47-.14.57-.51.68-.91s.18-.61.25-.92 0-.38.28-.42a.84.84 0 0 1 .32.61c.28 1.55.86 3 1 4.61a25.36 25.36 0 0 1 .22 4.85.33.33 0 0 0 .11.22v.1c-.07 1-.19 2-.19 2.94a28.46 28.46 0 0 1 -1.54 7.7 18.66 18.66 0 0 1 -2.19 5 7.67 7.67 0 0 1 -1.26 1.35c-.18.2-.52.2-.77.33a14.46 14.46 0 0 1 -3.66 1.22 1.12 1.12 0 0 1 -.88-.06s-.06-.08-.12 0a4.38 4.38 0 0 1 -2.6.27 18.89 18.89 0 0 1 -3.83-.91.67.67 0 0 1 -.58-.61c0-.14 0-.29-.22-.1s-.39.09-.65 0a13 13 0 0 1 -2.79-1.65 15.73 15.73 0 0 1 -1.56-1.33.5.5 0 0 0 -.8.07c-.5.54-1.07 1-1.62 1.5-.11.11-.18.27-.43.18z" fill="#855050"/><path d="m54.11 3.78a26.11 26.11 0 0 1 5.38 1.71c.91.36 1.79.8 2.72 1.12.61.21.5 1.18 1.3 1.12 0 0 0 .13-.09.14-.47.11-.42.22-.26.76a7 7 0 0 0 .23 1.08 34 34 0 0 1 1.17 3.44c-.41.12-.59-.25-.83-.44a5.35 5.35 0 0 0 -1.41-.85c-.65-.27-1.22-.7-1.9-.92-.05 0-.12 0-.13-.06 0-.57-.44-.23-.68-.3-.47-.13-.89-.38-1.37-.49-1-.23-2-.58-3-.77-.43-.09-.81-.31-1.23-.42a15.19 15.19 0 0 0 -1.89-.15 9.74 9.74 0 0 0 -2.75.14c-1 .14-1.92.48-2.88.61a12.36 12.36 0 0 0 -1.59.54 14.17 14.17 0 0 0 -1.61.69 26.21 26.21 0 0 0 -2.95 1.48c-.12.06-.24.14-.37 0a17.66 17.66 0 0 1 -2.41-2.21 5.44 5.44 0 0 1 -.49-.47c-1-1 .25-1.24.63-1.55a25.62 25.62 0 0 1 3.42-2.31 8.78 8.78 0 0 1 3.08-1.19c.56-.07 1-.64 1.67-.3.53-.52 1.24-.33 1.86-.46a14.68 14.68 0 0 0 2.63-.34c.25-.11.56.29.75-.11h1l1.83.48c.06.1 0 .33.1.31s-.04-.18.07-.28z" fill="#fdcc7c"/><path d="m40 12.24a35.83 35.83 0 0 1 4.82-2.36 20.08 20.08 0 0 1 6.18-1.32c2.25-.2 4.34.65 6.48 1.17.94.22 1.81 1 2.88.6.07 0 .21 0 .22.06.13.45.1.51.78.83a13.7 13.7 0 0 1 3.2 1.93 7.41 7.41 0 0 0 1.86 2.75c.4.41 1 .07 1.52 0s.17-.49.13-.73a13.88 13.88 0 0 0 -.34-1.38.62.62 0 0 1 .48-.22 10.3 10.3 0 0 1 4.24.32 4.23 4.23 0 0 0 2 .29.26.26 0 0 1 .15 0 33.38 33.38 0 0 0 3.17 1.15 16.89 16.89 0 0 1 2.6 1.27c.08 0 .11.12.16.19.44.34.53.67.3 1.09v.17c1.32.21 1.27 1.46 1.55 2.29.54 1.55 1.88 1.69 3.07 2.2a7.78 7.78 0 0 1 1.62.9c.28.21.24.58 0 .9a8 8 0 0 0 -1.42 4.31 11.08 11.08 0 0 0 1.2 5.64c.11.2.17.42.26.63a4.55 4.55 0 0 0 .53 1.24c.5.94.91 1.92 1.48 2.84s1.17 2.1 1.73 3.16a16.21 16.21 0 0 1 1.45 3.62 1 1 0 0 0 .65.72 2.82 2.82 0 0 1 .37.92c0 .14.1.34-.16.39-1.19-.63-2.4-1.22-3.57-1.9s-2.52-1.58-3.78-2.36a26.58 26.58 0 0 0 -3.81-2.27c-.31-.12-.32-.42-.66-.51-1.12-.28-2.06-1.06-3.14-1.43-.64-.23-1.11-.77-1.81-.84a16.12 16.12 0 0 1 -2.68-1c-1.68-.47-3.34-1-5-1.54a.62.62 0 0 0 -.69.19c-.41.49-.73.38-.82-.22s-.6-.28-.78-.57c-.26.42-1-.62-1.09.33 0 0-.09.07-.13.1-.27-1.11-1.16-.37-1.72-.51a25.79 25.79 0 0 0 -7-.71c-2.14.06-4.27.46-6.42.53a14.35 14.35 0 0 0 -5.23 1.56c-.09.2-.28.24-.45.29a18.53 18.53 0 0 0 -4.83 2.42 46.1 46.1 0 0 0 -4.63 4.08.71.71 0 0 0 -.24.31c-.09.35-.23.62-.62.69 0 0-.06 0-.08.06-.34.76-1.25 1.1-1.5 1.92a3.18 3.18 0 0 1 -.73 1.35c-.21.24-.47.64 0 1 .19.14 0 .32-.16.36a.57.57 0 0 0 -.46.47 17.39 17.39 0 0 0 -.62 3.43 5.6 5.6 0 0 0 .22 1.18.67.67 0 0 1 -.38.83c-.23.12-.44.25-.49.53a.19.19 0 0 1 -.17.17c-.64.09-.91.63-1.25 1.08-.19.24-.33.5-.64.61a.31.31 0 0 0 -.22.44c.1.26 0 .43-.27.44-.15 0-.26 0-.2.24a.18.18 0 0 1 -.14.23c-.43.11-.55.48-.67.82a10.43 10.43 0 0 0 -.8 4.39c0 .35-.07.73.29 1 .14.11 0 .29-.07.41-.12.38-.07.62.33.74a1 1 0 0 1 .41.29c.18.19.27.39 0 .59s-.18.33-.06.53c.39.63.58 1.36 1 2a.48.48 0 0 1 .12.42 78.11 78.11 0 0 1 -10.23.94 17 17 0 0 1 -5.07-.33.88.88 0 0 0 -.41-.17c-.17 0-.34-.06-.31-.3 0-.07 0-.15-.08-.17-.63-.22-.6-.9-.94-1.3s-.4-1-.72-1.51c-.17-.24-.27-.51-.65-.52-.21 0-.31-.2-.15-.4a.68.68 0 0 0 0-.88 3 3 0 0 1 -.15-1.37 11.32 11.32 0 0 1 .49-4 21.49 21.49 0 0 1 .93-2.21 10.46 10.46 0 0 0 .94-2c0-.18.18-.23.34-.26 1.93-.09 3.87-.15 5.8-.27 1.45-.08 3 .08 4.26-.74.21-.14.74-.25.65-.53s-.5.07-.78 0a1 1 0 0 0 -.34 0 1.75 1.75 0 0 1 .18-.29 3.08 3.08 0 0 1 .27-.24h-.4l-9 .45s-.08-.05-.12-.08-.25-.09-.26-.21c0-.48-.34-.59-.72-.68-.16 0-.36-.09-.37-.29s.18-.22.32-.27l.11-.05c-.55-.33.31-.59 0-1a3.39 3.39 0 0 1 -.32-1 14.43 14.43 0 0 1 -.47-1.94.15.15 0 0 0 0-.1c-.45-.5-.23-1.1-.25-1.66a1.4 1.4 0 0 0 -.07-.6c-.18-.34 0-.7 0-1.05a1.64 1.64 0 0 0 0-.95c-.1-.25.14-.45.12-.67-.07-.73.36-1.41.33-2.08a5.16 5.16 0 0 1 .47-1.66 3.06 3.06 0 0 0 .21-1.27.3.3 0 0 1 .14-.31 1.73 1.73 0 0 0 .59-1 2 2 0 0 1 .75-1c1.28-.91 2.44-2 3.81-2.78.46-.27 1-.49 1.19-1.14 0-.1.15-.12.25 0 1.36.51 2.71 1.07 4.1 1.52a2.29 2.29 0 0 0 2.49-.81s0-.11 0-.17a1.2 1.2 0 0 0 -.33 0c-.13.05-.31.12-.34 0s.16-.09.25-.12h.17l-.17-.08-4.37-2.29a1.86 1.86 0 0 1 .19-1.14 2.66 2.66 0 0 0 .3-1.31 3.33 3.33 0 0 1 .38-1.34 20.1 20.1 0 0 1 2.7-4.46 9.45 9.45 0 0 0 .93-1.23c.11-.22.41-.16.56-.31.67-.68 1.42-1.27 2.12-1.92.29-.27.69-.36 1-.66.12-.14.2-.19.18-.39-.05-.37.19-.53.47-.31a.42.42 0 0 0 .58 0 8 8 0 0 1 2-.93.77.77 0 0 0 .42-.41c.05-.09.13-.26.25-.14.38.37.79.13 1.19.1a7.07 7.07 0 0 0 1.65-.38 2 2 0 0 1 .87-.18c.27 0 .46-.18.47-.49 0-.15 0-.3 0-.45 0-.39.17-.45.48-.23a.87.87 0 0 1 .15.13s-.07-.07-.1-.11c-.15-.19-.46-.4-.26-.63s.45.06.68.14.38.47.7.16c.53.83 1.49 1.13 2.17 1.79.49.48 2.59-.15 2.65-.82s-.62-.73-1-1.07-.93-.87-1.39-1.31z" fill="#e98f45"/><path d="m90.75 88.65a8.52 8.52 0 0 0 1.66-1.49c.78-1.18 1.34-.36 1.88.11a20.52 20.52 0 0 0 3.23 2.25.44.44 0 0 0 .5 0c.25-.13-.15.59.31.31a3.85 3.85 0 0 0 .5-.49s0 0 0 0c.15 1.67 1.73 1.18 2.63 1.57a5.29 5.29 0 0 0 4 .2c.61-.25.86.32 1.35 0a8.55 8.55 0 0 1 2-.62 6.47 6.47 0 0 0 3.52-2.08.72.72 0 0 1 .21-.12c-.67 1-1.31 2.11-2 3.12a12.47 12.47 0 0 1 -1.58 1.89c-1.62 1.55-3.11 3.26-5.19 4.26a.79.79 0 0 0 -.14-.17c0 .06.1.1.15.16a22.13 22.13 0 0 1 -4.9 2.45c-.53.18-1 .45-1.59.58-1.82.42-3.67.69-5.46 1.21a25.15 25.15 0 0 1 -6.08.93s-.11.06-.16.1a13.39 13.39 0 0 1 -2.83 0 .39.39 0 0 1 -.22-.11c-.28-.25-.54-.39-.88 0-.21.21-.43.07-.59-.14-.28-.39 0 .26-.19.09a8.12 8.12 0 0 0 -2.93-.56c-.43-.06-.85 0-1.17-.4a.12.12 0 0 1 -.13 0c-.1-.15 0-.5-.28-.43s0 .35 0 .55 0 .36-.27.36a3.43 3.43 0 0 0 -.46-.11 16.61 16.61 0 0 0 -2.51-.58c-.19 0-.4 0-.5-.26s.3-.25.45-.31a58.77 58.77 0 0 0 8.44-4.21 1.25 1.25 0 0 0 .48-.71c.17-.34.7-.16 1-.43 1.24-1 2.62-1.81 3.79-2.88 1.47-1.23 2.68-2.69 3.96-4.04z" fill="#6d4349"/><path d="m37.51 13.66c-.43.74-.6-.21-.94-.14a1.09 1.09 0 0 1 -.41-.11c.08.12.14.25.23.37s.21.21.31.33.29.21.1.36-.21-.08-.3-.15l-.45-.38a3.68 3.68 0 0 0 0 .58c0 .72-.29.77-1 .78a8 8 0 0 0 -1.4.38l-1.65.43a8.52 8.52 0 0 0 -3 1.17c-.28.17-.57.3-.85.49-1.12.75-2.06 1.7-3.1 2.52a18.4 18.4 0 0 0 -3.74 4.87 12.51 12.51 0 0 0 -1.31 3.84c-.08.35-.21.69-.32 1l-5.25-2c-.3-.11-.49-.27-.37-.57s-.15-.84.42-1c0 0 .11-.07.1-.09-.29-1.15.51-2 .84-3 .06-.16.09-.67.53-.26.1.1.23-.06.12-.23-.71-1.09.61-1.56.77-2.4 0-.14.16.16.27.22l.51.23c-.06-.19-.07-.53-.18-.56-.42-.12-.4-.23-.12-.52s.34-1.12 1.15-.85c0 0 .09-.08.09-.09-.63-.87.51-1 .67-1.55.09-.32.18.69.45.11.1-.22-.09-.58.19-.76s.36-.48.78-.48.28-.56.61-.81a19.93 19.93 0 0 1 3.74-2.21c.94-.44 1.9-.88 2.81-1.41a14.72 14.72 0 0 1 3.85-1.14 4.1 4.1 0 0 0 1-.25c1.25-.76 1.86 0 2.45.93a4.16 4.16 0 0 0 .61.65c.06 0 .06.12.09.18z" fill="#fdcc7c"/><path d="m17.88 32.07c-1.44 1.76-3.58 2.62-5.24 4.11-.48.43-.52 1.07-.91 1.51-.57.65-.3 1.56-.72 2.2s-.29 1.59-.6 2.35-.09 1.91-.35 2.87a4.54 4.54 0 0 0 .19 2.08c.33 1.44.71 2.86 1.1 4.28.06.23 0 .34-.14.45a1.34 1.34 0 0 0 -.2.21 1.24 1.24 0 0 1 .27 0 .88.88 0 0 1 .27.1l-.35.21-.42.19c.14.07.29.19.44.18.72 0 .61.62.82 1-1.04.1-2.04.19-3.04.32s-1-.73-1.41-1.24a6 6 0 0 1 -.59-1.32c-.09-.23-.38-.61.25-.42 0 0 .11-.09.16-.14s-.11-.1-.15-.1c-.8.12-.7-.32-.58-.85 0-.12-.33-.3-.37-.48a17.92 17.92 0 0 1 -.5-5.52 31.93 31.93 0 0 1 .31-3.78 32.75 32.75 0 0 1 1-3.33 15.34 15.34 0 0 1 2.61-4.41 7.17 7.17 0 0 1 2.64-2.54c.61-.23 1.21.3 1.77.51a17.5 17.5 0 0 1 3.74 1.56z" fill="#fdcc7c"/><path d="m80.88 102.62c-.12-.56 0-.81.2-.54.1.11-.1.42.24.37.05.51.29 0 .41.07.23-.73.51-.15.76 0 .82.44 1.71.15 2.56.28l.54.07c.08.15.17.31-.09.38a.23.23 0 0 0 .06.21.28.28 0 0 1 -.07-.22 1.71 1.71 0 0 1 1.06 1.39c0 .22.39.38.59.57 1.17 1.58 2.33 3.18 3.52 4.76.57.75 1.17 1.48 1.78 2.2.11.13.28.18 0 .28l-.23.11c.11.08.24.24.32.22.65-.17.81.4 1 .74.63.9 1.63.65 2.46.82a31 31 0 0 0 4.07.51c1.29.08 2.6-.11 3.87 0 1.57.21 3.18-.21 4.73.34.19.07.45 0 .64 0a4 4 0 0 1 .72.47c-.21.22-.48.07-.72.11h-.26l.21.11c.29.18.69-.16 1 .19a3.18 3.18 0 0 1 -1.5.46c-1.1 0-2.2.09-3.29.07a69.47 69.47 0 0 1 -7.35-.29c-1.42-.17-2.87 0-4.31-.11-2.68-.14-5.32.41-8 .49a14.84 14.84 0 0 1 -2.71-.37c-.07 0-.22-.07 0-.17s.25-.12.38-.18a3.55 3.55 0 0 1 -.47.04c-.11 0-.28.11-.33-.1s.1-.24.24-.3a15.23 15.23 0 0 1 4.23-.65c.9-.12 1.82-.17 2.72-.24.24 0 .08-.09 0-.15-1-1.13-2.08-2.23-3-3.41-.48-.58-.66-1.44-1.2-1.93a19.28 19.28 0 0 1 -2.29-3c-.18-.23-.64-.38-.31-.82-.16-.1-.48.09-.5-.26l.06-.06a.18.18 0 0 0 0 .07c-.57-.87-1.47-1.5-1.74-2.53z" fill="#2b3c58"/><path d="m72.64 101.15 3.15.76c0 .17.22 0 .28.11.23 0 .27-.06.17-.3a.78.78 0 0 1 0-.77.21.21 0 0 1 .21 0 1 1 0 0 1 .34.76c-.12.31-.2.67-.68.61-.09 0-.2.09-.3.13a2.5 2.5 0 0 1 .29 0c.28.08 0 .21 0 .29-.19.4-.88.36-.81 1.08 0 .3-.49.64-.72 1-1.11 1.66-2.19 3.33-3.29 5a6.13 6.13 0 0 1 -.57.77c-.13.14 0-.08-.1-.11a.58.58 0 0 1 -.14-.13s0 0 0 .07c0 1.31-1.05 2.13-1.55 3.21-.26.57-.1.61.34.64 2 .16 4.11.27 6.16.5a12 12 0 0 1 3.52.48c.2.09.26.41.56.32 0 0-.08.06-.12.06h-.75c0 .15-.07.29.09.39s.31-.16.19.14a.11.11 0 0 0 0 0c.13.09.47.14.36.23a1.59 1.59 0 0 1 -.79.19c-1.69.24-3.33-.3-5-.34s-3.36-.38-5.06-.37c-.18 0-.62.19-.4-.36.08-.19-.12-.08-.17 0a2.24 2.24 0 0 1 -2.14.25c-1.29-.26-2.4.3-3.59.46a9.34 9.34 0 0 1 -3 .09c-.09 0-.25-.11-.25-.15 0-.25 0-.24-.36-.27-.18 0-.39.06-.45-.2l.44-.07h.2l.84-.14-.77-.27c-.08 0-.16-.09-.24-.13.13 0 .27-.17.39-.15 1.15.17 2.14-.58 3.27-.55a11.16 11.16 0 0 1 1.14-.09c1.54.21 1.63-1 2-2a12 12 0 0 1 2-3.28c.18-.21.18-.64.48-.84a14 14 0 0 1 2.28-3.38 11.61 11.61 0 0 0 .89-1.38c.53-.73 1.1-1.49 1.66-2.26z" fill="#2b3c58"/><path d="m27.54 69.91c-.47-.85-.94-1.71-1.42-2.55-.11-.19 0-.27.12-.35.7-.5 0-.66-.25-.78-.51-.24-.69-.77-.3-1.15a.09.09 0 0 0 0-.1c-.81-1.31-.24-2.63 0-3.94a5.34 5.34 0 0 1 .61-1.83c.14-.23.14-.62.58-.45-.29-.69.29-.52.6-.61-.75-1 .82-.68.82-1.37 0-.32.49-.68.81-1a7.28 7.28 0 0 1 1.25-.89c.5-.26.2-.71.14-.91a5.75 5.75 0 0 1 .25-3.48c.11-.33.11-.69.22-1 .05-.17 0-.46.34-.44.14 0 .32.06.34-.1s-.18-.17-.31-.19c-.37-.06-.1-.3-.07-.36a17.87 17.87 0 0 1 1.24-2.38c.24-.34.28-1.08 1-.88-.28-.38.09-.52.27-.72a31 31 0 0 1 7.29-6.26 16.83 16.83 0 0 1 3.65-1.48c.28 0 .56 0 .77.22l-.49.39a22.5 22.5 0 0 0 -5.08 4 7.37 7.37 0 0 1 -.92 1.12 31.89 31.89 0 0 0 -3.86 4.73 6.58 6.58 0 0 0 -.75 1.85 1.68 1.68 0 0 1 -.12.38 8.57 8.57 0 0 0 -.86 3.36c0 .41-.29.79-.07 1.21.06.12-.07.24-.21.3s0 .15 0 .22c.13.23 0 .39-.15.52a12.42 12.42 0 0 0 -2.59 3c-.24.34-.51.66-.75 1a.93.93 0 0 1 -1 .38s-.09 0-.13 0 .11 0 .14 0a.35.35 0 0 1 0 .42 3.69 3.69 0 0 0 -.25.92 9.52 9.52 0 0 0 -.51 2.95 12 12 0 0 0 .64 4.28 8.34 8.34 0 0 1 .47 2.21.78.78 0 0 1 -.08.39.59.59 0 0 1 -.24.23c-.31.11-.62.2-.82-.19-.04-.25.14-.58-.32-.67z" fill="#2b3c58"/><path d="m58.93 102.12a13.8 13.8 0 0 1 -2 .13c-.61 0-1.29.12-2 .12a23.86 23.86 0 0 1 -7-.93c-1.12-.35-2.29-.56-3.41-.93s-2.35-.91-3.52-1.37c.16-.21.39-.15.6-.16s.6 0 .9 0c.1 0 .23 0 .21-.16a.2.2 0 0 0 -.2-.13c-1.36.09-2.43-.76-3.64-1.16a.67.67 0 0 1 -.35-.27c0-.09 0-.2-.18-.16a1.39 1.39 0 0 1 -.67-.42 12 12 0 0 1 -1.93-2.15c-.25-.37-.45-.76-.67-1.15a.58.58 0 0 1 -.07-.61 3.9 3.9 0 0 1 1.31.64 5.83 5.83 0 0 1 1.23.85 2.41 2.41 0 0 0 1.29.63c.35.11.68.29 1 .38a.42.42 0 0 1 .19.06c.82.74 1.9.5 2.86.73s2.11.32 3.16.51a.78.78 0 0 0 .4 0 .49.49 0 0 1 .29-.05 1.91 1.91 0 0 0 1.14.05 2.85 2.85 0 0 1 1.29.06c.16 0 .34 0 .44.19s0 .23 0 .34a2.91 2.91 0 0 1 .05-.4.28.28 0 0 1 .16-.18 2 2 0 0 1 1.49.15c.61.52 1.06 1.2 1.64 1.75a7.27 7.27 0 0 0 1 .87 33.67 33.67 0 0 0 2.95 1.9c.47.23 1 .35 1.45.56.23.03.47.08.59.31z" fill="#f17328"/><path d="m28.84 70.52v-.39c.39-.1.58.18.79.41s.11.26.27.27a9.62 9.62 0 0 1 2.37.86c.28.08.53.22.77-.07.11-.13.24-.09.31.07a1.38 1.38 0 0 0 .32.44 4.21 4.21 0 0 1 -.43 1.52 14.22 14.22 0 0 0 -.56 3 9.76 9.76 0 0 0 .15 2.86 9.48 9.48 0 0 0 .7 2.28c.07.17.21.37 0 .53a1 1 0 0 1 -.49-.08 1 1 0 0 1 -.24-.08c-.29-.2-.61.45-.83 0a1.89 1.89 0 0 0 -.67-.62 7.9 7.9 0 0 0 -1.92-1.07 1.93 1.93 0 0 1 -1-.74 4.68 4.68 0 0 0 -1.39-1 2.89 2.89 0 0 1 -.78-.7 1 1 0 0 1 -.16-.62 9 9 0 0 1 .71-3.76 9.92 9.92 0 0 1 1.16-2.21c.32-.37-.26-.23-.32-.41s.15-.31.3-.42a.77.77 0 0 0 .8.07c.06.02.1-.05.14-.14z" fill="#f2852c"/><path d="m11.54 55.5c-.51 1-1 2-1.51 3a11.16 11.16 0 0 0 -1 4.43 8.26 8.26 0 0 0 .31 2.89c.09.23 0 .27-.14.33s-.11.11-.17.17.14.16.18.15c.72-.24.82.55.86.78.11.66.8 1 .74 1.71.51-.06.12.86.74.68-.06.55.64.46.74.88a3.47 3.47 0 0 1 -1.93-.37c-1.21-.45-2.62-.54-3.56-1.56-.57-.61-1.21-1.22-1-2.19 0-.14 0-.18-.13-.17-.45.06-.36-.18-.23-.43-.27-.37 0-.81-.23-1.29a3.08 3.08 0 0 1 -.06-2.46.63.63 0 0 0 0-.5c-.07-.33-.35-.82.38-.79.22 0 .16-.14.07-.21s-.33-.12-.2-.39.29 0 .43-.1a2.45 2.45 0 0 1 .26-.06c-.1-.07-.22-.21-.31-.2-.45.1-.32-.15-.19-.33a7.75 7.75 0 0 0 1.09-2.57c.45-2 1.91-.88 2.85-1.22a7.81 7.81 0 0 1 2.01-.18z" fill="#fdcc7c"/><path d="m49.79 96.59v.2c0 .27 0 .55-.07.82-.24-.2-.16-.48-.21-.75s-.5-.21-.62-.15c-.44.21-1.18-.68-1.35.38 0 0-.08 0-.12 0-.27-1.07-1.16-.36-1.71-.51a35.52 35.52 0 0 0 -4.14-.56 13.68 13.68 0 0 1 -2.83-1.02c-.22-.07-.41-.23-.63 0s-.28.16-.34 0c-.51-1.27-1.89-1.43-2.79-2.19a.18.18 0 0 1 -.23-.14c-.15-.54-.55-1-.71-1.47a1.93 1.93 0 0 0 -.48-.8c-.11-.31-.24 0-.35 0s-.47.16-.7 0l-.13-1a.22.22 0 0 1 .15-.11c.28-.1.69.07.77-.42 0-.1.23-.12.36-.13a4.14 4.14 0 0 1 1.5.4 3.48 3.48 0 0 0 2.06.18.85.85 0 0 1 .61 0 1.92 1.92 0 0 0 1 .19 7.89 7.89 0 0 1 2.36.35 1 1 0 0 1 .37.46 10.42 10.42 0 0 0 4.2 4.75 9.48 9.48 0 0 0 3.33 1.18c.28.07.58.02.7.34z" fill="#f2852c"/><path d="m33.67 88.85c-.12.06-.52-.09-.19.31.08.11-.23.17-.36.19a6.15 6.15 0 0 1 -.74 0 17.25 17.25 0 0 1 -2.54-.86 11.25 11.25 0 0 0 -1.22-.72c-.93-.09-1.23-.86-1.81-1.29a8.74 8.74 0 0 0 -1-1.58c-.49-.68-.59-1.48-1-2.14-.25-.37-.18-1-.53-1.33.55-.39.07-.51-.09-.87a5.66 5.66 0 0 1 -.24-2.41 10.16 10.16 0 0 1 2-5.77 4.18 4.18 0 0 1 1.6-1.38c.24-.06.55-.14.66.13s-.16.38-.37.54a1.88 1.88 0 0 0 -.45.7 10.89 10.89 0 0 0 -1.28 5.21 1.28 1.28 0 0 0 .14.4c.22.4.06.82.08 1.23a1.21 1.21 0 0 0 0 .5 27.52 27.52 0 0 0 1.3 3.63 1.85 1.85 0 0 0 .12.33 8.14 8.14 0 0 0 1.16 2 7.63 7.63 0 0 0 3.82 2.43 3.38 3.38 0 0 1 .74.3c.16.12.35.22.2.45z" fill="#2b3c58"/><path d="m69.84 100.22a15.57 15.57 0 0 1 -6 1.4 6.72 6.72 0 0 1 -2.8-1.12 21.11 21.11 0 0 1 -3.48-2.44 5.74 5.74 0 0 1 -1.56-1.67.26.26 0 0 1 .06-.13 6 6 0 0 1 1.55-.26c1.32-.18 2.6-.55 3.92-.74a.38.38 0 0 1 .15 0 3.88 3.88 0 0 1 .91.85 9.47 9.47 0 0 0 4.87 2.89c.5.13 1 .35 1.46.51s.78.27.92.71z" fill="#f17328"/><path d="m56 96.4a21.62 21.62 0 0 0 7.85 5.22l-5 .5a15.06 15.06 0 0 1 -5.75-3.34 5.8 5.8 0 0 1 -1.71-2c.44-.37 1-.27 1.49-.32a10.39 10.39 0 0 0 2.12-.16c.13 0 .32 0 .38.06.24.34.44.13.62.04z" fill="#6d4349"/><path d="m32.51 90.35.8-.1c.11-.06.21-.08.3 0a10.15 10.15 0 0 1 1.39 2.53 9 9 0 0 0 3.4 4.22c.06 0 .09 0 .09.11a22.28 22.28 0 0 0 3.14 1.34c.37.14.65-.07 1 .05s.25.29.41.41a1.4 1.4 0 0 1 -.46.19c-.52 0-1 0-1.56 0a10.3 10.3 0 0 1 -6.87-3.53 13.84 13.84 0 0 1 -1.65-2.77c0-.12.06-.32.09-.48s0-.15 0-.23-.2.08-.2.07c-.15-.24-.38-.49-.38-.74s-.19-.8.46-.67a.2.2 0 0 0 -.05-.27c-.09-.09.02-.11.09-.13z" fill="#2b3c58"/><path d="m69.84 100.22-1-.58c.07-.24.28-.32.47-.42 1.33-.68 2.62-1.43 3.92-2.16a5.58 5.58 0 0 0 1.79-1.27c.18-.23.55-.2.8-.38a.32.32 0 0 1 .14 0 13.7 13.7 0 0 0 2.85.34c.12 0 .24 0 .26.17a45.85 45.85 0 0 1 -9.23 4.3z" fill="#855050"/><path d="m79.12 95.89a11.17 11.17 0 0 1 -3.12-.41.24.24 0 0 1 .12-.3c.51-.32.9-.78 1.42-1.08a19.79 19.79 0 0 1 2 .16 2.66 2.66 0 0 0 .69 0s.07 0 .1 0 0 0 0 0h-.1a3.66 3.66 0 0 1 -2-.38c-.14-.2 0-.31.12-.43s.3-.26.46-.38a1.71 1.71 0 0 0 .75-1.15.4.4 0 0 1 .54.18 4.27 4.27 0 0 0 1.7 1.9z" fill="#f2852c"/><path d="m78.68 116c-.11.13-.22.06-.26 0a.25.25 0 0 1 .17-.34s0 0 0 0l.83.22z" fill="#838497"/><path d="m35.79 12.14-.09-.14c.07-.13.07-.34.3-.32 0 0 .1 0 .16.07z" fill="#fdd085"/><path d="m41.85 14.33-.19.27a1.06 1.06 0 0 1 -.16-.21c-.06-.16.07-.14.16-.14s.11.05.19.08z" fill="#ec9e60"/><path d="m92.81 83.84a1.12 1.12 0 0 1 0-.3c0-.05.14-.11.17-.09s.13.15.11.18-.16.12-.28.21z" fill="#885353"/><path d="m87.87 89.05a1 1 0 0 1 .07.24s-.13.14-.16.12a.86.86 0 0 1 -.2-.18z" fill="#865050"/><path d="m32.47 90.48.28.17-.23.1a2.56 2.56 0 0 1 -.05-.27z" fill="#f3903f"/><path d="m82.53 93.58.17.18-.11.09-.1-.23s.01-.04.04-.04z" fill="#986b6a"/><path d="m93.18 47.79c.24-.49-.39-.83-.21-1.31.61 0 .64-.19.54-.78a52.12 52.12 0 0 0 -1.51-5.09 30.71 30.71 0 0 0 -1.69-3.76c-.87-2-2-3.88-2.11-6.15a9.84 9.84 0 0 1 .54-4.7 11.24 11.24 0 0 1 3.83-4.19 6.1 6.1 0 0 1 3.51-1.52 13.59 13.59 0 0 1 6.68 1.71c.31.17.75.2.76.82 0 .33.72.14 1.06.47 1.82 1.76 3.43 3.63 3.48 6.34a7.4 7.4 0 0 1 -.16 1.23c-.22.16-.44 0-.66 0s-.69 0-.8.45c-.09.19-.28.16-.43.21a3.16 3.16 0 0 0 -2 1.31 1.18 1.18 0 0 1 -.37.4 5 5 0 0 0 -1.38 1.68c-.09.14-.11.24 0 .34.51.37.75 1 1.4 1.25a.35.35 0 0 1 .17.51 11.43 11.43 0 0 0 1.37 5.92 39.89 39.89 0 0 0 2.24 4.3 58.57 58.57 0 0 1 4.4 8.28 21.06 21.06 0 0 0 .81 2 19.47 19.47 0 0 1 2.06 4.9c-.15.59-.27 1.19-.46 1.77-.07.23-.07.65-.55.52-.07 0-.29.17-.29.28 0 .27.17.07.27.08.39 0 .08.3.06.33a10.12 10.12 0 0 1 -.87 1.45 1.8 1.8 0 0 1 -2.27.38c-1.92-.78-3.17-2.43-4.66-3.76-1.77-1.59-3.21-3.47-4.81-5.21-.5-.54-1-1.08-1.42-1.66-1.52-1.95-3-3.9-4.52-5.87-.68-.99-1.33-1.97-2.01-2.93z" fill="#ffd082"/><path d="m33.06 54.52-.37-.46a2 2 0 0 0 .41.09.25.25 0 0 0 .15-.19c-.21-1.68.47-3.15.89-4.72.8-3 3-4.86 4.87-7a12.32 12.32 0 0 1 .9-.87 10.94 10.94 0 0 1 2.85.83 1.88 1.88 0 0 0 1 .33 4.93 4.93 0 0 1 1.47.59c.13.06.3.1.12.31s0 .3.11.22c1-.59 1.69.32 2.39.69 3 1.56 5.56 3.79 8.49 5.44a32.66 32.66 0 0 0 6.17 3 1.6 1.6 0 0 1 .9.94 1.27 1.27 0 0 1 -.85.37 27.24 27.24 0 0 0 -3.5.61c-.54.17-1 0-1.54 0a3.07 3.07 0 0 0 -1.08.19.26.26 0 0 1 -.19 0 14.32 14.32 0 0 0 -2.93.1 3.53 3.53 0 0 1 -.46 0 25 25 0 0 0 -3.35 0c-.22 0-.41 0-.4.32s-.06.3-.25.32-.36-.07-.38-.26c0-.36-.24-.35-.52-.36-1.34 0-2.67-.09-4-.18-.1 0-.2 0-.3 0a10.28 10.28 0 0 1 -3.12-.3c-1.27-.17-2.55-.36-3.84-.41a.93.93 0 0 1 -.24 0 .51.51 0 0 0 -.73.31.32.32 0 0 1 -.23.05 6.42 6.42 0 0 0 -2.27.06.22.22 0 0 1 -.17-.02z" fill="#6d4349"/><path d="m62.31 57.12c-2.18 2-2 4.73-1.83 7.31.12 2.1 1.69 3.4 3.26 4.59l.35.26h-.33a.23.23 0 0 0 -.1.07 2.25 2.25 0 0 1 .21.12l.39.27a2.72 2.72 0 0 1 -.32.35 1.93 1.93 0 0 0 -.62 1 14.67 14.67 0 0 0 -.93 4.43 3.55 3.55 0 0 0 1.48 2.56c.49.39 1 .73 1.52 1.1.09.28-.07.36-.27.26a1 1 0 0 0 -.82.08 6.34 6.34 0 0 0 -.94.47 10.06 10.06 0 0 1 -1.86.59c-.29.08-.58.14-.7.48a.24.24 0 0 1 -.38.12.74.74 0 0 0 -.76 0 9.37 9.37 0 0 1 -1.4.4 2.43 2.43 0 0 1 -1.48-.77 10.08 10.08 0 0 1 -3.15-4 2 2 0 0 1 -.17-1.5s0-.07 0-.12c-.39-.46-.06-.9.1-1.3a4.69 4.69 0 0 0 .28-1c.37-.46.63-1 1-1.42a10.41 10.41 0 0 1 .82-.94c.45-.4.47-.71.07-1.15s-.8-1.21-1.31-1.75c-.28-.29-.27-.78-.51-1.13a5.34 5.34 0 0 1 -.43-1.67c0-.2 0-.45.22-.56s0-.1 0-.13a1.26 1.26 0 0 1 -.13-.68 11.48 11.48 0 0 1 1.82-5.09 3.51 3.51 0 0 1 .9-.86 4.7 4.7 0 0 1 1.54-.16 16.18 16.18 0 0 0 4.09-.55c.25-.02.38.05.39.32z" fill="#f2852c"/><path d="m62.31 57.12c-.11-.21-.21-.17-.44-.1a16.26 16.26 0 0 1 -3.93.54l-1.7.1a3.49 3.49 0 0 1 -2 .23 5.9 5.9 0 0 0 -.59-.06c-1.34.11-2.67 0-4-.07a13.77 13.77 0 0 1 -2.63-.3c-.33-.1-.71 0-1-.11-.58-.31-1.19-.12-1.78-.2a15.51 15.51 0 0 0 -1.78-.34c-1.39-.4-2.78-.81-4.2-1.07a5.47 5.47 0 0 1 -.58-.15 6.75 6.75 0 0 1 -1.33-.38c-.34-.12-.65-.32-.63-.77-.09-.87.41-.41.8-.41a28.48 28.48 0 0 1 4.42.5 7.86 7.86 0 0 0 1.9.32c1.3-.14 2.56.09 3.84.06h1.8c.41 0 .16.23.12.35s0 .3.18.33a.43.43 0 0 0 .23-.08c-.29-1.36.82-.55 1.12-.59 1.83-.28 3.7 0 5.57-.27a12.33 12.33 0 0 1 2.52-.15 21.23 21.23 0 0 0 3.44-.47c.59-.06 1.16-.23 1.75-.35.7.15 1.26-.37 1.93-.42a5.26 5.26 0 0 1 2.12-.13c.22.07.37.52.44.82.29 1.4-1 1.4-1.71 1.74-1.28.57-2.6.97-3.88 1.43z" fill="#fff"/><path d="m69 82.71a2.05 2.05 0 0 1 .35 1.74c-.16 1.8 2.34 4.26 4.09 4a9.41 9.41 0 0 1 3-.33c.67.1.38.76.73 1.05.15.13.18.42.26.63s-.15.24-.27.3c-1 .54-2.11 1.09-3.19 1.56a5.25 5.25 0 0 1 -1.35.65 4.49 4.49 0 0 1 -.64.1l-.15-.06a3.48 3.48 0 0 0 -2.28-.77 12.21 12.21 0 0 1 -4.68-.68 4.14 4.14 0 0 1 -2.61-2.25 8.23 8.23 0 0 1 -.75-1.48c0-.31-.26-.62.06-.91h.09c.42.51.83.31 1.24 0s.78-.25.92-.71a.21.21 0 0 1 .22-.09 2.5 2.5 0 0 0 1.79-.62c.53-.38 1.19-.63 1.5-1.28.67-.17.99-.87 1.67-.85z" fill="#f2852c"/><path d="m69 82.71a24.23 24.23 0 0 0 -2.79 2c-.67.42-1.28 1-2.18.75-.11.71-.85.62-1.23 1s-.87.34-1.15-.24a3.07 3.07 0 0 1 -.25-1 2.56 2.56 0 0 0 0-.27 1.09 1.09 0 0 1 0-.36 1.69 1.69 0 0 0 -.81-1.89c-.64-.28-1.32-.47-2-.79-.15-.07-.33-.09-.41-.27a.17.17 0 0 1 0-.14 14.77 14.77 0 0 1 1.89-.6 18.47 18.47 0 0 0 4.4-1.63c.36-.18.64.37.87-.07 1 .26 2 .48 3 .81a1.79 1.79 0 0 1 .66 2.7z" fill="#f17328"/><path d="m72.05 92.27a43.79 43.79 0 0 0 5.43-2.52h.09c.71.68 1.15 1.6 1.92 2.23.37.64-.28.76-.55 1.07a7.36 7.36 0 0 1 -.77.7.74.74 0 0 1 -.78-.17c-.31-.22-.7-.21-1-.38a5.2 5.2 0 0 0 .79.61c.14.08.32.13.31.35l-1.49 1.32h-.11a4.45 4.45 0 0 1 -1.71-.58 4.57 4.57 0 0 1 -1.18-.81 4.08 4.08 0 0 1 -1-1.58c0-.08 0-.16.05-.24z" fill="#f17228"/><path d="m79.49 92a5.46 5.46 0 0 1 -1.92-2.23c1.17-1.23 2.36-2.44 3.52-3.68.52-.56 1-1.18 1.48-1.76a1 1 0 0 1 .24-.16v.46s-.11.45-.16.68c.27 0 .32-.23.48-.34s.21 0 .2.11c0 1 .42 2.12 0 3.14a7.2 7.2 0 0 1 -1.21 1.78c-.63.74-1.36 1.4-2.05 2.1z" fill="#6d4349"/><path d="m66.79 36c0 .19-.06.3-.22.25a1.16 1.16 0 0 1 -.34-.22c.1-.1.18-.26.3-.29s.22.18.26.26z" fill="#e17b3e"/><path d="m79.5 40.47c0 .26 0 .44-.15.48 0 0-.15-.21-.15-.32a2.56 2.56 0 0 1 .13-.53z" fill="#e08946"/><path d="m75.46 38.74c.09-.05.14-.09.2-.09s.08.07.08.08a.28.28 0 0 1 -.12.14s-.08-.07-.16-.13z" fill="#e98f45"/><path d="m106.37 31.27c-.05-.75.51-.56.91-.58a2.1 2.1 0 0 1 .62.16c3.35 2.53 4.41 6.13 4.71 10.08a44.57 44.57 0 0 1 .4 4.49 3.35 3.35 0 0 0 .06 1.69c0 .06-.21.35-.36.41a1 1 0 0 1 -1-.29.27.27 0 0 1 .12-.09c.63-.21.71-.26.41-.85a22.42 22.42 0 0 1 -.92-2.92 10.9 10.9 0 0 0 -1.79-3.1c-.34-.44-.69-.87-1-1.33a7.23 7.23 0 0 0 -2.07-2.09c-.57-.39-1.1-.82-1.65-1.24a1 1 0 0 1 -.39-1.19 4.1 4.1 0 0 1 1.91-2.66c.22-.14.17-.3.04-.49z" fill="#d88870"/><path d="m80.49 16.77a27.13 27.13 0 0 0 -5.77-2.23 29 29 0 0 0 -5.37-1 9 9 0 0 0 -1.62.22c-.46-1.28-.92-2.56-1.37-3.85a.6.6 0 0 1 0-.23.76.76 0 0 1 .16.11c.51.52 1.14.38 1.76.45.23 0 .79-.32 1.11.3.11.23 1.08.24 1.66.34a16 16 0 0 1 5.75 2.12 8.6 8.6 0 0 1 2.2 1.91c.52.61 1.31 1.01 1.49 1.86z" fill="#fdcc7b"/><path d="m106.37 31.27c.13.08.34.13.38.24s-.15.26-.3.34a3.87 3.87 0 0 0 -2 2.84c-.15.7.5.94.91 1.19 2.23 1.35 3.6 3.43 5 5.5 1.18 1.67 1.37 3.67 2 5.51.19.5-.51.24-.8.34-.7-.38-.68-1.16-.94-1.76a20 20 0 0 0 -3.91-5.83 21.17 21.17 0 0 0 -3-2.65c-.55-.54-1.09-1.1-1.68-1.62-.16-.14-.37-.28-.19-.44.53-.49.72-1.22 1.33-1.68.82-.62 1.34-1.63 2.46-1.85z" fill="#2b3c58"/><path d="m90.87 42.14a44.22 44.22 0 0 1 -3.75-6.81c-.06-.11 0-.28 0-.43 1.2 2.1 2.42 4.19 3.6 6.3a3.14 3.14 0 0 1 .15.94z" fill="#ffcf82"/><path d="m54.11 3.78c.12.17.3.34.17.58a.25.25 0 0 1 -.24 0 .43.43 0 0 1 -.11-.62z" fill="#fff9f1"/><path d="m88.88 37.82c0-.15 0-.23 0-.3s.06-.08.09-.13a.86.86 0 0 1 .07.21c-.04.06-.04.11-.16.22z" fill="#ffcf82"/><path d="m42.44 5.25c.07.1.13.15.13.2s-.09.08-.14.1a.19.19 0 0 1 -.07-.11c0-.05.03-.09.08-.19z" fill="#fefefe"/><path d="m45.86 4.19.13.28h-.08v-.32z" fill="#fefefe"/><path d="m20.53 68.24-.39-.08a1.86 1.86 0 0 1 .33 0 2.47 2.47 0 0 1 .38 0z" fill="#fef6ef"/><path d="m91.19 97.22c.07.17 0 .21-.14.16a4.76 4.76 0 0 1 -.47-.31c.08-.09.18-.25.23-.23a.42.42 0 0 1 .38.38z" fill="#ebe6e5"/><path d="m103.75 97.61c-.21 0-.47 0-.54-.31a.5.5 0 0 1 .23-.1c.32 0 .34.18.3.42z" fill="#e3dbdb"/><path d="m89 96.54c0 .16.08.35-.14.35-.06 0-.18-.16-.17-.24a1.55 1.55 0 0 1 .17-.4z" fill="#fbfafa"/><path d="m88.64 97a2.32 2.32 0 0 1 .32.41s-.1.12-.16.18a2 2 0 0 1 -.28-.3s.05-.12.12-.29z" fill="#bba6a6"/><path d="m78.39 101.7c.08-.2 0-.41.25-.43a.29.29 0 0 1 .11.22 3.48 3.48 0 0 1 -.22.43z" fill="#ddd4d3"/><path d="m102.25 97.65c.16 0 .32.07.29.25s-.06.2-.11.2-.3 0-.29-.23.07-.15.11-.22z" fill="#fdfcfc"/><path d="m99.33 98.92h-.19c-.06-.23.13-.33.27-.39s.1.09.11.17-.03.3-.19.22z" fill="#d8cccc"/><path d="m99.33 98.92.19-.19c.09.11.31.23.13.38s-.26-.04-.32-.19z" fill="#f8f6f5"/><path d="m76.07 102-.6.08.32-.19c.13-.04.29-.16.28.11z" fill="#e2e1e5"/><path d="m90.41 96.62c-.08.07-.15.14-.17.13a.46.46 0 0 1 -.15-.16s.06-.08.08-.07z" fill="#c5b3b3"/><path d="m89.7 97.61-.21.15s0-.1 0-.12a.52.52 0 0 1 .17-.12z" fill="#cebfbf"/><path d="m78.13 101.18-.22.13c0-.06 0-.13 0-.18s.09-.08.14-.12z" fill="#f8f5f5"/><path d="m93.14 100.84c-.1 0-.16.08-.21.07a.12.12 0 0 1 -.06-.11s.08-.11.1-.1.08.07.17.14z" fill="#dfd5d5"/><path d="m87.29 97.75-.16-.11c.05 0 .09-.11.13-.11s.1.06.15.1z" fill="#efeae9"/><path d="m100.75 97.15s.08.09.07.1a.75.75 0 0 1 -.15.16l-.09-.06z" fill="#cfc0c0"/><path d="m89.93 100.39c0 .06.09.1.1.15s-.08.09-.09.08a.74.74 0 0 1 -.13-.12z" fill="#d9cecd"/><path d="m20.45 17.38a3 3 0 0 1 -.44.38c-.18.07-.24-.07-.22-.22s-.1-.34.18-.28z" fill="#fffaf2"/><path d="m9.4 50.9c-.08 0-.28 0-.23-.14a.46.46 0 0 1 .48-.35c.08 0 .23.15.22.2a.39.39 0 0 1 -.47.29z" fill="#ea9148"/><path d="m85.49 103.22.41.43a1.34 1.34 0 0 1 -.2 0c-.16-.09-.4-.15-.2-.41z" fill="#cfcfd6"/><path d="m90.65 114.05a2.22 2.22 0 0 1 -.51.06s-.14-.11-.14-.11a1.37 1.37 0 0 1 .29 0 2.15 2.15 0 0 1 .36.05z" fill="#f0f0f2"/><path d="m82.53 105.18c0-.35.16-.19.3-.15a.75.75 0 0 1 .15.09h-.46z" fill="#d6d5db"/><path d="m90.31 113.23.22.24s-.1 0-.15 0a.36.36 0 0 1 -.17-.07z" fill="#fff"/><path d="m83.76 106-.17.13s-.08-.1-.07-.14.07-.08.11-.12z" fill="#c2c1cb"/><path d="m87.13 105.17-.28.18v-.12h.31z" fill="#e3e2e6"/><path d="m87.12 105.72c-.09.06-.14.12-.17.11a.53.53 0 0 1 -.15-.11s.09-.09.15-.1.05.05.17.1z" fill="#c5c4cd"/><path d="m73.37 105.91-.21-.17a.59.59 0 0 1 .25-.07 1.07 1.07 0 0 1 .22.1z" fill="#e8e7ea"/><path d="m65.44 112.9a1.21 1.21 0 0 1 .25-.13s.08.09.07.11a.23.23 0 0 1 -.13.11s-.09.01-.19-.09z" fill="#8a8b9d"/><path d="m65.89 111.51.21.25-.1.07c-.06-.07-.12-.13-.18-.21z" fill="#cac9d2"/><path d="m67.79 108.22.4-.1v.13h-.39z" fill="#ededef"/><path d="m33.66 72.14a2.64 2.64 0 0 0 -1-.27c-.72-.06-1.39-.71-2.11-.77s-1.1-.72-1.7-1c0-1.49-.73-2.83-1-4.28a14.7 14.7 0 0 1 0-3.63 3.27 3.27 0 0 1 .45-1.57c.33 0 .43.24.34.53s0 .35.26.33.4.16.58.27a11.61 11.61 0 0 0 2.67 1.25 15.05 15.05 0 0 1 1.43.62.91.91 0 0 1 .18.21.93.93 0 0 1 .18.45c0 .16.08.23.2.3a.88.88 0 0 1 .24.43 7.8 7.8 0 0 0 1.19 1.87 2.3 2.3 0 0 1 .1 2.1 2.2 2.2 0 0 0 -.44.74 17.11 17.11 0 0 1 -1.37 2.37.28.28 0 0 1 -.2.05z" fill="#f17228"/><path d="m33.56 63.69a20.1 20.1 0 0 1 -4.44-2 .54.54 0 0 0 -.31-.05c-.14 0-.3.21-.4 0a.53.53 0 0 1 .1-.42c.19-.29 0-.45-.17-.62a1.23 1.23 0 0 1 .18-.81c.06-.09.14-.24.1-.32-.22-.53.28-.25.38-.28.73-.23.91-1 1.34-1.46.78-.91 1.49-1.89 2.28-2.79.13-.15.58 0 .44-.47a4.23 4.23 0 0 1 2.63-.08c.41.87 1.33.72 2 1 .2.29 0 .42-.21.56a16.13 16.13 0 0 0 -2.91 2.87 5.26 5.26 0 0 0 -1 3.38 4.14 4.14 0 0 0 .08 1 .3.3 0 0 1 -.09.49z" fill="#f2852c"/><path d="m26.27 62.64a1.18 1.18 0 0 1 -.17-.29s.1-.09.15-.14a1.7 1.7 0 0 1 .17.23s-.08.1-.15.2z" fill="#cf8144"/><path d="m28.84 70.52v.27l-.23-.14z" fill="#f17228"/><path d="m25.73 62.06c.06 0 .09-.08.12-.08a1.15 1.15 0 0 1 .15.02s-.06.12-.09.12-.09-.01-.18-.06z" fill="#d88746"/><path d="m56 96.4c-.26.44-.24.42-.55.13s-.84.13-1.31.09a16.42 16.42 0 0 0 -2.7.19 4.35 4.35 0 0 0 -1.68-.22 27 27 0 0 1 -3.13-.87 10.47 10.47 0 0 1 -3.38-2.51 12.58 12.58 0 0 1 -1.63-2.1c-.19-.32-.2-.8-.44-1.15v-.06a4.72 4.72 0 0 0 1.1-.3c.24-.12.44.1.62.25s.28.2.39-.09.31-.38.5-.05a.58.58 0 0 0 .51.26 6.84 6.84 0 0 0 1.75 0 2.35 2.35 0 0 1 .65 0l.14.06a7.8 7.8 0 0 0 4.29 1.9c.65.07 1.3.09 1.95.1.36 0 .59.13.62.55s.41.83.61 1.24a6.39 6.39 0 0 0 1.28 1.79.82.82 0 0 1 .34.69.29.29 0 0 0 .07.1z" fill="#855050"/><path d="m43.08 98.62a1.54 1.54 0 0 1 .3-.2c.09 0 .22 0 .16.15a.48.48 0 0 1 -.19.23s-.14-.1-.27-.18z" fill="#feecdf"/><path d="m36.68 94.24c-.08.08-.15.18-.19.17s-.12-.11-.18-.16.11-.13.16-.13.12.06.21.12z" fill="#f2852c"/><path d="m49.81 101.67c-.05-.12-.11-.2-.1-.26s.09-.1.15-.15.1.13.09.2-.07.11-.14.21z" fill="#feeee2"/><path d="m38.49 97.12-.09-.12.27-.11z" fill="#f2852c"/><path d="m33.66 72.14.11-.11a6.49 6.49 0 0 1 1.52.29.49.49 0 0 0 .63-.16c.18-.21.37-.26.48.06s.23.19.37.2a11.83 11.83 0 0 0 1.78.2.58.58 0 0 1 .51.17c.22.31-.05.57-.07.86s-.19.7.4.57a.18.18 0 0 1 .22.16c0 .1 0 .16-.12.19-.69.33-.56.87-.44 1.46a11 11 0 0 0 .9 2.5 5.37 5.37 0 0 0 1.95 2.17c.62.4 1.17.89 1.8 1.27a.39.39 0 0 1 .16.57 2 2 0 0 0 -.1 1.59v.23a.38.38 0 0 1 -.27.09 9.9 9.9 0 0 1 -1.49-.11.41.41 0 0 0 -.37.09.27.27 0 0 1 -.46-.06c-.17-.22-.34-.13-.47.09s-.13.34-.34.29-.18-.23-.16-.38-.1-.37-.3-.37c-.79 0-1.52-.4-2.31-.44-.29 0-.49 0-.62.25a.78.78 0 0 1 -.16.2c-.15.15-.32.33-.56.23a.49.49 0 0 1 -.32-.53c.08-.49-.23-.63-.59-.69a12 12 0 0 0 -1.55-.37h-.09c-.21.09-.43.07-.51-.13s.15-.29.3-.37c-.32-.87-.2-1.9-1-2.61-.25-.22.27-.17.18-.54a11.14 11.14 0 0 1 .2-4.94 5.67 5.67 0 0 1 .79-1.92z" fill="#855050"/><path d="m33.49 82.23c.3.24-.56.12-.13.39.14.09.34.13.32-.16a1 1 0 0 1 .49.47 6.53 6.53 0 0 0 1.74 1.92 4.73 4.73 0 0 0 2.48 1 1.4 1.4 0 0 1 .83.32 1 1 0 0 0 .56.19 1.23 1.23 0 0 1 1.11 1.34 3.32 3.32 0 0 0 .37 1.88.3.3 0 0 1 0 .38c-1.07-.13-2.13-.27-3.2-.38-.73-.08-1.46-.13-2.18-.19-.41 0-.84.09-1.12-.41s-.72.26-1-.13c0-.42-.42-.39-.68-.49a9.39 9.39 0 0 1 -3.6-1.93 6.7 6.7 0 0 1 -1.73-2.71c.09-.15 0-.22-.11-.31-.77-1.17-.88-2.59-1.43-3.86a3.88 3.88 0 0 1 .04-1.55l2.21 1.56c.18.13.46.2.22.52 0 0 .06.17.08.17 1.3-.12 2.23.79 3.07 1.46.6.47 1.31-.15 1.66.52z" fill="#f17228"/><path d="m8.61 64.62a4 4 0 0 1 -.53.26c-.18.05-.36 0-.36-.23s0-.34.23-.32a3.48 3.48 0 0 1 .66.29z" fill="#ea9349"/><path d="m6.36 65.29c-.05-.15-.09-.22-.08-.26a1.24 1.24 0 0 1 .18-.22s.14.12.13.15a3 3 0 0 1 -.23.33z" fill="#fffbf4"/><path d="m5.66 65.14c-.07-.08-.13-.13-.12-.15a1 1 0 0 1 .16-.25s.09 0 .14.06z" fill="#fefefe"/><path d="m5.38 65.8.38-.12s0 .08 0 .09-.23.22-.36 0z" fill="#fefefe"/><path d="m33.61 90.28h-.3c.12-.13.17-.35.42-.25z" fill="#fde0c6"/><path d="m33 89.81a1 1 0 0 1 -.24.2s-.11-.08-.16-.13.1-.15.16-.17.1.05.24.1z" fill="#fefefe"/><path d="m27.55 83.41.35.11-.24.2z" fill="#f2852c"/><path d="m26.81 86.51.32-.22v.19h-.35z" fill="#eae9ec"/><path d="m25.27 82.84c-.08 0-.12.07-.14.06a1.21 1.21 0 0 1 -.2-.09s.06-.1.08-.09a1.73 1.73 0 0 1 .26.12z" fill="#b2b2be"/><path d="m72.05 92.27a4.66 4.66 0 0 0 1.21 1.92c.26.21.39.77 1 .37.34-.23-.19.43.28.47a5.32 5.32 0 0 1 1.33.48 59.68 59.68 0 0 1 -7 4.13c-2.84-.74-5.41-1.9-7.23-4.34.11-.31.41-.32.65-.39 1.3-.37 2.62-.7 3.94-1 .31-.07.53 0 .53.36 0 .16 0 .36.15.44s.17-.08.24-.16.07-.28 0-.43c-.24-.31-.2-.41.23-.53 1-.3 2.08-.64 3.13-.91a5 5 0 0 1 1.49-.43z" fill="#6d4349"/><path d="m72 92.25a31.59 31.59 0 0 1 -4.56 1.5l-.32.11.23.23c.1.09.33.14.21.32a1.75 1.75 0 0 1 -.62.62c-.19.08-.26-.27-.25-.41.08-.73-.19-.51-.71-.43-1.32.19-2.56.66-3.86.93a2.44 2.44 0 0 0 -.41.18h-.09a5.61 5.61 0 0 1 -1.9-1.66 5.34 5.34 0 0 0 -.35-.48 3.78 3.78 0 0 1 -.91-2.07c-.14-.67-.19-1.36-.39-2a1 1 0 0 0 -.22-.44c-.19-.27-.17-.54.19-.51a3.58 3.58 0 0 0 1.8-.47 5.74 5.74 0 0 0 1.46-.67.3.3 0 0 1 .38 0c.69 1.52 1.4 3 3.14 3.62a12.54 12.54 0 0 0 4.42.72 3.29 3.29 0 0 1 2.76.91z" fill="#855050"/><path d="m57.83 88.54c.53.14.44.7.47 1a6.69 6.69 0 0 0 1.5 4c.56.6 1.18 1.15 1.77 1.72a31.65 31.65 0 0 1 -5.56 1 9.08 9.08 0 0 1 -2.1-3.09c-.48-1.72-1.82-.93-2.76-1.11a9.61 9.61 0 0 1 -4.15-1.74c-.07 0-.09-.16-.14-.25.14-.15.34-.24.35-.51s.26-.34.52-.23a1.09 1.09 0 0 1 .27.21c.42.36.42.36.71-.08a.41.41 0 0 1 .69-.06 1.45 1.45 0 0 0 1.44.3c.56-.09 1.13-.11 1.69-.17.34 0 .68 0 .94-.27a.27.27 0 0 1 .28-.06c.76.34 1.44-.12 2.15-.23a4.71 4.71 0 0 0 1.54-.57c.16-.07.26.07.39.14z" fill="#f2852c"/><path d="m58.44 96.66a1.45 1.45 0 0 1 -.28.16s-.11-.11-.1-.15a.26.26 0 0 1 .15-.14c.06 0 .12.07.23.13z" fill="#f2852c"/><path d="m57 97.09c0-.09 0-.09 0-.09s.06-.06.09-.09.06.07.06.11-.08-.02-.15.07z" fill="#f2852c"/><path d="m60.93 96.12c0-.23 0-.27 0-.29s.06-.06.1-.09.06.06.06.07a2.29 2.29 0 0 1 -.16.31z" fill="#f2852c"/><path d="m36.74 96 .18.14c-.06 0-.12.09-.18.08s-.13-.07-.19-.11z" fill="#ed7229"/><path d="m77.48 94.18a4.69 4.69 0 0 1 -.67-.42c-.17-.15-.59-.25-.43-.5s.52-.06.77 0 .69.31 1 .47a7.86 7.86 0 0 0 2.3.43.54.54 0 0 1 .21 0l-.21.07a9.38 9.38 0 0 1 -2.97-.05z" fill="#e2806b"/><path d="m98.69 29.1c.87.12.87.92 1.16 1.47a2.3 2.3 0 0 1 -.42 2.55 1.38 1.38 0 0 1 -2.23-.67 2.5 2.5 0 0 1 .8-3.17c.21-.21.48-.02.69-.18z" fill="#2b3c58"/><path d="m47 57.34c1.67.13 3.35.3 5 .39.63 0 1.36-.34 1.89-.13.82.34 1.55 0 2.31.06a9 9 0 0 0 -2.37 4.91c-.09.5-.69 1.24.24 1.66a.21.21 0 0 1 0 .12c-.85.47-.39 1-.09 1.53 0 .08-.05.41 0 .62a8.39 8.39 0 0 1 -2.12.16h-1.61c-.16 0-.35 0-.36.24 0 .44-.32.34-.44.15-.38-.59-.91-.51-1.47-.44a.67.67 0 0 1 -.36-.12 6.59 6.59 0 0 1 -2.06-2.49 4.49 4.49 0 0 1 -.43-2.49 7.26 7.26 0 0 1 1.63-4 .36.36 0 0 1 .24-.17z" fill="#855050"/><path d="m58.23 81.51a.31.31 0 0 1 0 .1 2.72 2.72 0 0 1 -1.05.45 1.84 1.84 0 0 0 -1.09.46c-.08.08-.2.17-.31.08-.27-.26-.53-.09-.79 0-.49.2-1.07.14-1.5.51-.62-.2-1.11.45-1.73.27a.12.12 0 0 0 -.1 0c-.71.48-1.53.12-2.29.28a.31.31 0 0 1 -.13-.06 4.57 4.57 0 0 1 .17-3 1.62 1.62 0 0 0 -.73-2.14 3.68 3.68 0 0 1 -1.27-1.46 12.2 12.2 0 0 1 -.59-1.14 6.48 6.48 0 0 1 -.31-2c0-.25.1-.48.43-.31.05 0 .1 0 .11.1s0-.08-.09-.09c-.2-.11-.47-.16-.37-.49a.2.2 0 0 1 .09-.11h2.74c1.24.07 2.46-.07 3.7-.09.27 0 .56-.1.81.1.18.49-.32.82-.32 1.25 0 .26-.66.75.2.79a.21.21 0 0 1 0 .16c-.79 1 0 1.74.41 2.49a10.13 10.13 0 0 0 3.72 3.83c.06.04.2.01.29.02z" fill="#865050"/><path d="m53.93 73a34.29 34.29 0 0 1 -5.55.08c-.56-.06-1.14.23-1.69-.09a1.32 1.32 0 0 1 .06-1.1c.15-.28.33-.49.69-.43-.23-.27-.14-.51.05-.77a5.3 5.3 0 0 1 1.65-1.44c.62-.35.65-.7.19-1.25a6.09 6.09 0 0 0 -1-.87c-.19-.15-.44-.27-.4-.58.56-.09 1.18-.39 1.5.41 0 .08.24.19.28.16s0-.17-.09-.26-.12-.28.15-.28h4.22a14.56 14.56 0 0 0 2.16 3.17.54.54 0 0 1 -.13.69c-.81.68-1.33 1.7-2.09 2.56z" fill="#6d4349"/><path d="m60.41 62.67a3.6 3.6 0 0 1 -.33.17s-.1-.1-.09-.13a.55.55 0 0 1 .15-.19s.09.05.27.15z" fill="#855050"/><path d="m47 57.34a18.48 18.48 0 0 0 -1.48 2.66 5 5 0 0 0 -.07 3.15 6.62 6.62 0 0 0 2.23 3.23c0 .3-.27.18-.42.16-.86-.14-1.74-.09-2.6-.2-.41 0-.85-.25-1.22.16 0 .06-.17 0-.22-.06-.38-.51-1-.47-1.51-.54s-1.16-.3-1.76-.32a.68.68 0 0 1 -.28-.25 11.08 11.08 0 0 1 -.8-3.14c0-.2-.11-.43.12-.6a.12.12 0 0 0 0-.18c-.33-.52 0-.89.25-1.31.07-.14 0-.36.1-.54a3.66 3.66 0 0 1 1.22-1.48 14.26 14.26 0 0 1 1.9-1.36c.72-.2 1.34.35 2 .29.29 0 .6.13.8-.21 0 0 .09 0 .13-.05.34.88 1.16.25 1.61.59z" fill="#f2852c"/><path d="m42.49 56.73c-.63.51-1.27 1-1.87 1.53a3.72 3.72 0 0 0 -1.23 1.54c-.06.21.07.21.15.29a.71.71 0 0 1 .14.29c-.07 0-.17-.14-.22-.13-.35.11-.32.48-.47.72s.34.42.08 1c-.34.7.12 1.71.45 2.52a3.23 3.23 0 0 1 .21.84c-.2.21-.43.12-.66.06a4.32 4.32 0 0 0 -1.39-.13c-.08 0-.18 0-.24 0-.71-.56-1.63-.48-2.41-.8a11.11 11.11 0 0 1 -1.35-.53l-.12-.19a7.13 7.13 0 0 1 .25-3.61c.72-1.85 2.22-3 3.69-4.23a.41.41 0 0 0 .21-.38l4.5 1.07a1.07 1.07 0 0 1 .28.14z" fill="#855050"/><path d="m59.87 57.12c-.16.1-.24.19-.32.19s-.14-.12-.17-.2.06-.16.07-.16a3.27 3.27 0 0 1 .42.17z" fill="#f38f3d"/><path d="m53.64 57.34-.17.18c0-.07-.12-.13-.12-.2s.08-.11.13-.17z" fill="#ac8887"/><path d="m55.29 55.06.16-.11.14.28s-.05.07-.07.11z" fill="#977b7e"/><path d="m60.1 54.84c0-.06 0-.11 0-.14a3.11 3.11 0 0 1 .23-.28s.06.1 0 .11a3.29 3.29 0 0 1 -.23.31z" fill="#9f8487"/><path d="m66.49 55c.09-.06.16-.14.19-.13a.35.35 0 0 1 .13.16s-.08.11-.11.11a1 1 0 0 1 -.21-.14z" fill="#8a5757"/><path d="m49.36 83.65a8.43 8.43 0 0 1 1.64-.12 4 4 0 0 0 1.38-.31 12.77 12.77 0 0 1 3.13-.89 15.39 15.39 0 0 1 2.7-.72c1 .4 1.93.79 2.88 1.21.6.26.39.84.44 1.31-.1.14 0 .32-.06.47v.4c-.09 0-.08.07.06.23l.11 1c-.2.28.05.55 0 .82-1 .4-2.08.79-3.11 1.21a.47.47 0 0 1 -.52 0c-.32-.19-.3.06-.22.29l-.39-.08a12.19 12.19 0 0 1 -4.93-1.18 6.54 6.54 0 0 1 -3.08-3.29c-.05-.1-.11-.22-.03-.35z" fill="#6d4349"/><g fill="#f2852c"><path d="m62.29 82.78.09-.12a.9.9 0 0 1 .1.09.57.57 0 0 1 0 .13z"/><path d="m61.55 85.26-.22-.17.16-.06z"/><path d="m61.5 84.6.06-.47z"/><path d="m66.56 80.89-.15.07s0-.07 0-.1 0 0 .07 0 .02-.01.08.03z"/><path d="m73.61 93.09c.09.12.19.19.18.24a.29.29 0 0 1 -.16.2c-.13.06-.12 0-.1-.13z"/></g><path d="m80.59 87.26c-.07 0-.12 0-.15 0s0-.07-.06-.1.06 0 .08 0a.76.76 0 0 1 .13.1z" fill="#855050"/><path d="m106 33.41c.16.27.31.48.43.72s0 .13-.13.08-.51-.15-.48-.48c0-.1.11-.19.18-.32z" fill="#fddba9"/><path d="m33.68 63.88c.69.19 1.38.36 2.06.57a19.41 19.41 0 0 0 4 .84l.21.21c.25.21.4.53.74.65.12 0 .14.18.11.3s.16.14.24.2a.36.36 0 0 1 .23.33c-.14.31.08.38.3.46a.52.52 0 0 1 .16.14c.64.65.68.75-.06 1.22a5.27 5.27 0 0 0 -2.27 3.28c0 .19-.13.38-.19.56a.36.36 0 0 1 -.2.2 12.33 12.33 0 0 1 -2.53-.31c-.87-.29-1.8.08-2.61-.38 0 0-.06-.08-.09-.12.47-.81.94-1.62 1.42-2.43.07-.12 0-.19-.09-.29a1.46 1.46 0 0 1 -.17-.33 1.46 1.46 0 0 1 .3.07c.13.06.23.08.3 0a1.82 1.82 0 0 0 .2-1.34c-.07-.28 0-.83-.61-.81-.24 0 .31-.62-.29-.57 0-.54-.18-.56-.55-.25 0 0 0-.09 0-.11.58-.52-.19-.88-.17-1.33s0 0 0 0a.06.06 0 0 1 -.07 0 .16.16 0 0 1 -.11-.22z" fill="#6d4349"/><path d="m33.74 64.51-.16.25a.86.86 0 0 1 -.11-.24c0-.06.06-.13.09-.2z" fill="#855050"/><path d="m33.87 64.28.21.21v.1h-.28z" fill="#855050"/><path d="m49.36 83.65c1.35 3.17 4 4.26 7.2 4.57.3 0 .64 0 .88.24a5.7 5.7 0 0 1 -2.35.85c-.5.14-1.24-.07-1.41 0-.83.56-1.72.25-2.56.42-.6.12-1.28.46-1.81-.28-.13-.19-.5-.32-.53.18 0 .15 0 .32-.22.32s-.37.09-.51-.17-.34-.49-.61-.44 0 .33-.08.5-.34.13-.52.18h-.07a.89.89 0 0 1 -.74-.42 8.14 8.14 0 0 1 -1.48-1.92 1.49 1.49 0 0 0 -.23-.43 5.53 5.53 0 0 1 -.83-2.25c0-.21-.25-.4 0-.62h.27c.05 0 .09-.12.16-.12 1.47 0 2.89-.5 4.36-.61a1.9 1.9 0 0 1 1 0z" fill="#f17228"/><path d="m43.46 84.33a7.73 7.73 0 0 0 1 2.9c-.06.2.15.27.21.41a7.35 7.35 0 0 0 2.12 2.42c-.87 0-1.73.1-2.6.06-.32 0-.65-.67-1 0 0 0-.09 0-.1 0-.54-.89-1.27.08-1.87-.18a5 5 0 0 1 -.49-2.74c0-.3-.42-.56-.76-.67q-1.3-.44-2.64-.81a6.29 6.29 0 0 1 -3.27-2.63c-.15-.21-.27-.44-.41-.66.78.22 1.57.43 2.34.67.3.09.06.31 0 .46a.59.59 0 0 0 .21.57c.15.14.32 0 .37-.13.43-1.06 1.25-.46 1.9-.44a9 9 0 0 1 1.35.28c.31.07.78 0 .46.58 0 0 0 .14.07.21a2.43 2.43 0 0 0 .2-.25c.07-.11-.09-.4.22-.32s.55-.19.54.26c0 0 .09.07.11.06.7-.44 1.38.02 2.04-.05z" fill="#6d4349"/><path d="m49.28 83.62c-1.87.08-3.66.75-5.55.7a1.8 1.8 0 0 1 0-1.81c.13-.24.12-.3-.27-.55a10.05 10.05 0 0 1 -3.41-3 9.14 9.14 0 0 1 -1.24-3.52.88.88 0 0 1 .58-1l.15-.08c-.06 0-.12 0-.17 0-.91.36-.51-.35-.52-.66a3.53 3.53 0 0 1 .15-.84l.1-.2c.11-.1.24-.06.38 0 .66.08 1.33.18 2 .21.4 0 .81 0 .81-.59a.37.37 0 0 1 .48-.32.47.47 0 0 1 .4.55c-.14.51.14.48.46.46s.94-.07 1.38-.08a5.22 5.22 0 0 1 1.65.23c0 .47.52.38.74.62l.14.19c-.06 0-.14.06-.16 0-.81-.83-.8 0-.75.43a6.06 6.06 0 0 0 .57 2 6.27 6.27 0 0 0 1.38 1.91 8.52 8.52 0 0 1 .71.65c.43.48.76 1 .32 1.66-.61.9-.3 1.99-.33 3.04z" fill="#f2852c"/><path d="m27.54 82.5.11.08a1.25 1.25 0 0 1 -.12.08.27.27 0 0 1 -.12 0z" fill="#f2852c"/><path d="m46.66 73.05c-.54.07-1.15-.19-1.55-.11-.62.13-1.22 0-1.83.1-.23 0-.68.11-.26-.38.16-.21 0-.41-.13-.59s-.27-.08-.39 0-.16.33 0 .49a2.73 2.73 0 0 1 -.54.37 1.18 1.18 0 0 1 -.5 0 9.94 9.94 0 0 1 -2.37-.31 5.82 5.82 0 0 1 2.65-4.09c.49-.28.5-.53-.06-.72-.18-.06-.06-.14 0-.23s0-.14-.13-.15-.18.25-.32.09a3.45 3.45 0 0 1 -.32-.49h.32c.25-.27 0-.28-.17-.33s-.4.17-.48.11c-.24-.17.11-.23.13-.35.08-.42-.44-.07-.49-.37a2.37 2.37 0 0 0 -.26-.56 16 16 0 0 1 2.88.48c1.12.41 2.26 0 3.36.32a7.47 7.47 0 0 0 1.5.09l.29.12c.48.46 1 .92 1.46 1.4s.67 1-.12 1.35a5.07 5.07 0 0 0 -1.74 1.52c-.21.28-.26.43.07.61.07 0 .09.14.14.22s-.19.09-.27.07-.26-.35-.48-.05-.46.82-.25 1.07-.34.12-.09.25z" fill="#f17228"/><path d="m51.91 66.78c-.08 0-.13.11-.17.1a.15.15 0 0 1 -.11-.12s.07-.11.1-.11.1.07.18.13z" fill="#855050"/><path d="m41 66.67c.17-.13.39-.25.5 0s-.1.33-.33.33z" fill="#f2852c"/><path d="m36.8 72a1.31 1.31 0 0 1 .16.31s-.08.08-.12.12a1.41 1.41 0 0 1 -.13-.24s.04-.14.09-.19z" fill="#855050"/><path d="m35.48 64.86-.22.12a1 1 0 0 1 -.07-.12.82.82 0 0 1 .2-.12s.05.06.09.12z" fill="#855050"/><path d="m34.08 64.49.18-.27-.22.24z" fill="#855050"/><path d="m41.53 67.45c.06-.16.14 0 .22 0l-.09.17z" fill="#f2852c"/><path d="m45.93 87.9c-.12 0-.19.1-.21.08a.93.93 0 0 1 -.16-.18s.08 0 .11 0a1.8 1.8 0 0 1 .26.1z" fill="#f2852c"/><path d="m44.65 87.64c-.1-.12-.39-.15-.21-.41z" fill="#f2852c"/><path d="m41.89 84.72-.11-.1a.49.49 0 0 1 .11-.14s.1 0 .1.06-.06.1-.1.18z" fill="#855050"/></svg>