<svg width="120px" height="120px" viewBox="0 0 120 120" id="Layer_1" data-name="Layer 1" xmlns="http://www.w3.org/2000/svg"><defs><style>.cls-1{fill:#0e65a8;}.cls-2{fill:#804949;}.cls-3{fill:#93a1b0;}.cls-4{fill:#412127;}.cls-5{fill:#818d98;}.cls-6{fill:#593a40;}.cls-7{fill:#99bad5;}.cls-8{fill:#202d37;}.cls-9{fill:#d5eaf8;}.cls-10{fill:#5e3940;}.cls-11{fill:#a1464d;}.cls-12{fill:#b95f5b;}.cls-13{fill:#2c3e57;}.cls-14{fill:#fefeff;}</style></defs><title>Huzzahs_Black-History</title><path class="cls-1" d="M101.11076,65.42514a4.115,4.115,0,0,1,.48032.18169c.57834.10165.49925.57392.50006.956.00567,2.6835.08115,5.369.00554,8.05-.08577,3.04065.05853,6.07724.0188,9.11557-.00994.76108-.13577,6.70815.13523,8.802a14.77842,14.77842,0,0,1-.12191,1.96,28.30759,28.30759,0,0,0,.07927,3.1969c.03666.36887.13774.77658-.31043,1.00383a2.63221,2.63221,0,0,0-1.263.7327c-.41868.32807-2.43483,1.56961-2.866,1.839-1.1643.72727-2.42005,1.31095-3.56657,2.06284-.65945.43247-2.32572,1.43973-2.44309,1.50142-1.31634.692-2.63856,1.37138-3.99772,1.97666-.23049.10263-1.64566,1.027-2.13036,1.1857-.83766.2742-4.55494,2.035-5.553,2.44777a32.22745,32.22745,0,0,1-3.50353,1.28139c-.96875.274-1.8349.74679-2.77274,1.06255-.43341.14593-.88242.20485-1.3124.34755-1.336.44339-2.68776.83531-4.05617,1.16276-1.40143.33536-2.82335.59022-4.21419.96283a26.92787,26.92787,0,0,1-2.846.63825c-1.29415.19966-2.53756.63318-3.86378.71415-.57242.035-4.76154.67452-5.28851.69651-.81752.03412-4.02612.45387-4.2814.46208-1.25465.04043-2.50777.09085-3.7617.19291-.79906.065-1.65156-.0711-2.45907.01144a32.77909,32.77909,0,0,1-5.52169-.10432,12.96416,12.96416,0,0,0-1.4072.057c-.78206-.06075-1.56365-.13283-2.34253-.22789-.77418-.09449-3.99206-.59766-4.52686-.56845-.53335.02915-3.2592-.44146-4.12955-.56838a31.77446,31.77446,0,0,1-4.11958-.757,16.00657,16.00657,0,0,1-1.93519-.53882c-.598-.25973-1.22884-.26776-1.80421-.52252a10.77533,10.77533,0,0,0-1.85563-.50684,21.8141,21.8141,0,0,1-2.817-1.21788c-1.188-.47256-2.20954-1.24192-3.35435-1.79684-.71353-.34586-2.82555-1.67248-3.18514-1.87186a8.138,8.138,0,0,1-1.96138-1.22592,2.67526,2.67526,0,0,1-.69832-1.58684,9.53277,9.53277,0,0,1,.21464-2.25593,18.56865,18.56865,0,0,1,.4572-2.888c.37707-1.39387.44331-2.8382.80768-4.23167.18978-.72581.1828-1.49477.37374-2.228.3366-1.29263.73574-2.57514.96959-3.88669.253-1.41882.81465-2.74647,1.07208-4.16324a28.5638,28.5638,0,0,1,.8251-2.82049c.54221-1.8613,1.12908-3.70882,1.63729-5.58117.27035-.996.61909-1.9764.91918-2.968a3.67749,3.67749,0,0,0,.11584-.43638c.18675-1.08481.61446-1.40059,1.70588-1.58267a14.56671,14.56671,0,0,1,3.47654.04691,6.1832,6.1832,0,0,1,1.48241.20027c.296.09641.47158-.07016.657-.21608.16039-.12625.16887-.40986.07133-.48172-.25777-.18991-.412-.52893-.75274-.59083a13.24,13.24,0,0,0-2.61537-.4648c-.65286.01045-1.2624.20577-1.93784.26226a2.56174,2.56174,0,0,1,1.27687-.73724c.68454-.28325,1.22653-.76161,1.86461-1.09735.64294-.33829,1.22555-.78922,1.85393-1.15783.56586-.33194,2.46371-1.60309,2.8514-1.74042a2.809,2.809,0,0,0,1.14337-.71614,1.11314,1.11314,0,0,1,.433-.30219,8.719,8.719,0,0,0,1.62972-.91367c.68351-.40787,1.39762-.76575,2.11885-1.11181,1.35091-.64819,2.64879-1.40672,3.99864-2.05729,1.13939-.54915,7.105-4.56623,7.6049-4.80591a5.82,5.82,0,0,0,1.06245-.699c.9202-.72611,2.03954-1.15635,2.89657-1.97709a2.33339,2.33339,0,0,0,.72182-1.03982,2.09571,2.09571,0,0,1,.6061-.83683.79712.79712,0,0,1,.91272-.21084,6.34114,6.34114,0,0,1,1.96988,1.031c.63435.43706,1.26726.88473,1.87405,1.351a16.69356,16.69356,0,0,1,2.19137,1.792,4.025,4.025,0,0,0,.55479.38683,6.5056,6.5056,0,0,1,1.61434,1.39256c.56164.9014,1.65993,1.34343,1.9606,2.42815.84608.5226,1.18976,1.48725,1.91276,2.15274A12.42329,12.42329,0,0,1,56.49947,65.789a1.92716,1.92716,0,0,0,.66451.553,1.116,1.116,0,0,1,.82148.59291,36.31954,36.31954,0,0,1,2.36674,4.41723c1.0874,2.45733,2.38439,4.81721,3.3632,7.3227a2.39974,2.39974,0,0,0,.52538.73818c.1447,1.1385.94643,1.98522,1.34329,3.0127C68.3762,88.57534,70.227,95.07525,72.71815,101.3c.75169-3.20959,1.25085-6.54967,1.95982-9.84711.15612-1.51381.56655-2.986.73209-4.49706.23149-2.113.48853-4.22222.67291-6.34183.149-1.71273.217-3.43978.52062-5.1389a5.85175,5.85175,0,0,0,.04588-.9114c.17847-1.82959.37521-3.65724.52147-5.49.01906-.23889-.13114-.72908.45136-.57623a2.21947,2.21947,0,0,1-.05326.8104c.28581.09.298-.15826.31452-.24424a8.12742,8.12742,0,0,0,.18937-1.40782c.01-.69524.0157-2.82389.00674-3.18886-.01927-.78451-.43684-7.3291-.43595-7.70494.00176-.741-.37582-1.3979-.40219-2.13436-.00852-.23773-.65258-3.32758-.79907-3.88549a18.54114,18.54114,0,0,1,2.25824,2.32247A13.19051,13.19051,0,0,0,80.96531,55.64a31.807,31.807,0,0,0,3.12941,2.52646c.73481.46663,1.528.87877,2.28166,1.32444a51.597,51.597,0,0,0,5.66444,2.73879c.60782.11138,1.16.44008,1.76437.60633a8.08608,8.08608,0,0,1,1.37834.54587A13.94892,13.94892,0,0,0,98.45166,64.521a8.03256,8.03256,0,0,0,1.12516.317A13.06056,13.06056,0,0,0,101.11076,65.42514Z"/><path class="cls-2" d="M42.38421,37.63635a.44655.44655,0,0,0-.18309-.39934c-.54822-.344-.96267-.84465-1.4848-1.229a3.89187,3.89187,0,0,1-1.72292-2.781,10.88473,10.88473,0,0,0-.19243-1.18665,2.10882,2.10882,0,0,1,.97412-2.38408c.33262-.19344.71591-.395,1.121-.08369a.69894.69894,0,0,0,.50762.12147,6.2742,6.2742,0,0,1,3.07378.60017c.44629.22774.91832.41336,1.383.59765a2.6612,2.6612,0,0,0,1.96885-.10875c.28133-.1078.53957-.25848.83421-.34988.61177-.18978.714-.49069.464-1.10919a39.32625,39.32625,0,0,1-1.674-5.70345,33.76928,33.76928,0,0,0-.849-3.32108A8.93045,8.93045,0,0,0,44.327,16.6347a12.5008,12.5008,0,0,0-1.6419-1.265c-.3637-.23976-.57858-.74069-1.13634-.67878-.106.01176-.26411-.14383-.2181-.26438.099-.25929-.0549-.24277-.22033-.33008-.33334-.176-.35609-.40327-.09346-.66677.87918-.88208,1.77276-1.74978,2.65536-2.62849a7.53891,7.53891,0,0,0,1.02592-1.09665,2.62015,2.62015,0,0,1,.70856-.65484q.99831-.73356,2.02724-1.4252a13.7029,13.7029,0,0,1,1.355-.77564c.46571-.24185.9253-.50265,1.37715-.76546a3.793,3.793,0,0,1,1.66439-.652c.07447-.00468.172-.0008.21807-.04418.54444-.51269,1.2684-.4076,1.91441-.56771a1.524,1.524,0,0,0,.2903-.07443,19.205,19.205,0,0,1,5.34681-1.28475,3.66593,3.66593,0,0,1,1.11265-.17625c.21466-.03366.38272.1002.5729.15591a9.135,9.135,0,0,0,1.76764.41172c.32464.02834.61339.26417.90369.30552a20.37316,20.37316,0,0,1,2.31351.80064c1.04125.27277,3.877,2.803,4.217,3.05038.31009.22558.11018.63729.28269.92253a7.95951,7.95951,0,0,1-1.72595.51206,2.25636,2.25636,0,0,0-.643.22438,1.41913,1.41913,0,0,0-.60431,1.23783c-.00869.31211.33528.42089.63.42856.50168.01306,1.08642.30477,1.39712-.38883a4.50069,4.50069,0,0,1,.57173-.9861c.20746-.259.44235-.52249.82294-.24636A17.51264,17.51264,0,0,1,74.13229,12.748c-.32166.47034-.91592.29229-1.346.57266A3.95149,3.95149,0,0,0,71.54389,14.395c-.11508.17428-.43037.31766-.25662.55413.125.17015,1.30884-.83416,1.47569-.93745.81693-.50573.76388.3479,1.65483.91955.28774.18462.51891-.23179.78372-.35677.49337.36562.71072.95371,1.12251,1.38876.43494.45952,3.30934,3.78685,3.82457,5.30235.09039.26584.21945.5076.32732.76088.113.26542.87422,2.90994,1.04934,3.57226a10.20758,10.20758,0,0,1,.36506,2.12686c-.56211-.03243-.89-.468-1.2462-.79646a4.01507,4.01507,0,0,0-3.2864-1.32715,7.2655,7.2655,0,0,0-3.6953,1.27068A19.10751,19.10751,0,0,0,71.36086,29.705c-.499.64-.98729,1.29278-1.44165,1.96686-.17717.26285-.51532.54827-.34226.87053.17158.31949.56664-.02766.84951.086a.38888.38888,0,0,1,.29737.41307.63836.63836,0,0,1-.05359.19676c-.098.162-.2172.32853.08751.40854a1.99413,1.99413,0,0,0,1.40423-.23422,37.14753,37.14753,0,0,1,4.52245-1.96587,7.97578,7.97578,0,0,1,2.88756-.57424,2.36517,2.36517,0,0,0,1.18963-.189,2.03925,2.03925,0,0,0,1.2879-.6624c.32551.42182.12465.926.17,1.38168.05377.54024.06264,1.10114.06267,1.64769.00006,1.20086-.14891,2.39826-.12059,3.60622a12.875,12.875,0,0,1-.08723,1.71528c-.73,4.13575-2.95033,5.55833-3.45057,5.75786-1.23256.49162-2.46027.99751-3.72487,1.3998-.64467.20507-1.31122.34552-1.97381.48755a.38614.38614,0,0,0-.35738.32479,5.25211,5.25211,0,0,1-2.38429.2786c-1.59283.01041-3.18975.01649-4.78628-.05826a34.34391,34.34391,0,0,1-5.75623-1.0873c-1.03019-.22623-1.19676-.12479-.96995.92494a4.87813,4.87813,0,0,0,1.85334,2.72224,17.12731,17.12731,0,0,0,6.59779,3.542c.27607.0701.54472.29368.72793-.18487a.71935.71935,0,0,1,.7865-.35729c.35447.04437.26807.37238.27725.61277.01329.34845.19154.29857.39759.17267.35-.2139,1.14833.388,1.34018.40344a4.17057,4.17057,0,0,1,1.43185.121c.18376.70919-.37285,1.15517-.67637,1.64151a6.17243,6.17243,0,0,1-1.70226,1.88087,2.39973,2.39973,0,0,1-1.59275.62719c-1.14768.0373-2.28515.49-3.44428.10147-3.40825-1.083-6.73519-2.394-10.08434-3.64184-1.82929-.68158-3.74944-1.09844-5.53837-1.87811-1.33079-.58-2.79554-.73837-4.09309-1.39584a8.35469,8.35469,0,0,1-1.347-.61876,7.62892,7.62892,0,0,0-1.51237-2.74068c.13938-.14452.287-.26565.23338-.51837a5.60214,5.60214,0,0,1,1.138-4.35947c.25168-.38141.56093-.72362.808-1.10834a1.718,1.718,0,0,0-.48009-2.51562A9.592,9.592,0,0,1,42.38421,37.63635Z"/><path class="cls-3" d="M96.13313,58.52075a6.89058,6.89058,0,0,1-3.7898-.005,5.48987,5.48987,0,0,1-1.69116-.79308,18.92,18.92,0,0,1-2.85452-2.06139A13.46942,13.46942,0,0,1,85.602,52.7869a2.83214,2.83214,0,0,1-.25932-1.31852,6.52955,6.52955,0,0,1,.14161-3.14336c.18665-.455.16892-.96.32053-1.44334A17.4409,17.4409,0,0,1,86.5779,45.088a12.75893,12.75893,0,0,1,3.47421-3.73187,15.22991,15.22991,0,0,1,2.83694-1.14682,1.80587,1.80587,0,0,1,.795-.05821c.50227.08753,2.79-.09317,3.32811.17836a18.91658,18.91658,0,0,1,4.17918,2.28323,11.78117,11.78117,0,0,1,1.15928,1.2194,8.41525,8.41525,0,0,1,1.50868,3.87007c.0729.31244.127.70089-.33045.84456-.02226.007-.06721.00636-.06731.01018-.02058.782-.669.57379-1.09719.676A2.70526,2.70526,0,0,0,100.86812,50.26c-.23472.29581-.136.45758.21783.49972a.79389.79389,0,0,0,.45132-.00993,12.85069,12.85069,0,0,1,2.141-.6475c.28248-.114.3612-.10348.55659.20123a4.42239,4.42239,0,0,0,1.16161,1.05514c.33141.24256,2.61378,2.5508,3.06558,2.95072.469.41514,4.66141,4.82858,4.76762,4.8832.19777.10171.39428.232.40533.49239a.33718.33718,0,0,1-.3647.03281,2.655,2.655,0,0,0-2.25556.45485c-.02166.01176-.03609.0466-.05664.04924-.88084.11312-1.28112.87025-1.86093,1.38627-.215.17461-.43756.0779-.64752.00184a5.2488,5.2488,0,0,1-3.41582-3.4025,14.82188,14.82188,0,0,0-2.81451-5.12242,3.642,3.642,0,0,0-1.87267-1.09442c-.52112-.1448-.77386.26954-1.10052.52891a3.98892,3.98892,0,0,0-2.6765,2.953c-.11593.33841-.30532.63953-.42958.973a1.81206,1.81206,0,0,0,.03254,1.1827A1.30657,1.30657,0,0,1,96.13313,58.52075Z"/><path class="cls-3" d="M101.89209,80.76568c-.06545-1.493.04859-2.98817-.11514-4.48185-.05564-.50756.18911-1.03426.1226-1.5671-.14333-1.14833.03591-2.29781-.01926-3.44965-.04266-.89071.02253-1.79007.01792-2.68575a1.84971,1.84971,0,0,0-.09824-.82042c-.109-.23445.00482-.48325.04479-.73249a14.78023,14.78023,0,0,0,.04619-2.071c-.07434-.772.0387-1.53794.0322-2.3067a.56116.56116,0,0,1,.63226.09083A5.12706,5.12706,0,0,1,104.649,64.504a46.552,46.552,0,0,0,.00239,5.02808,1.66541,1.66541,0,0,1,.20778.95179c-.07277,3.02046-.09011,6.04408-.09734,9.06278-.0129,5.383-.1262,10.76671-.0347,16.15a5.45453,5.45453,0,0,0-.00488,1.13425,1.20062,1.20062,0,0,0-.23675.885c.044.90168-.02273,1.80293-.005,2.70643.04315,2.19576.03218,4.39314.009,6.58951-.0217,2.05188.00057,4.1034.015,6.15482a17.40959,17.40959,0,0,0-.167,2.0313.56217.56217,0,0,1-.18492.40434.38077.38077,0,0,0-.06323.41819c.272.66828-.02946,1.12688-.739,1.14343-.92464.02156-1.27088-.29816-1.293-1.2358-.01736-.73589.01609-1.47342-.01731-2.20822-.01025-.22568.24778-.41589.18117-.47659a1.01293,1.01293,0,0,1-.22548-.45869,1.63733,1.63733,0,0,1-.0452-1.04653,4.39349,4.39349,0,0,0,.01846-1.64674,12.39383,12.39383,0,0,1-.05882-1.69689,12.77362,12.77362,0,0,1,.11115-2.49149,6.84433,6.84433,0,0,0-.11338-1.38664c-.00424-1.02933.07575-2.0597.09574-3.08536.01135-.58229-.1119-1.196-.09438-1.79719a17.0572,17.0572,0,0,0,.129-1.7388,16.3911,16.3911,0,0,1-.11943-3.36331,10.85666,10.85666,0,0,0-.03116-1.11065c-.03747-.36231.00942-1.49586.02515-1.7978.05991-1.14907-.04469-2.29567-.01658-3.44359.00736-.30063-.01667-1.25909.0066-1.54258C101.91653,86.47205,101.97118,82.56974,101.89209,80.76568Z"/><path class="cls-1" d="M104.495,97.20106c.00071-.83888,0-2.34241-.00019-3.18129q-.00026-1.12719-.00051-2.25437c-.00008-1.52543.01747-3.05112-.00611-4.57619-.01624-1.05042-.00554-2.10055.02025-3.14946a17.50112,17.50112,0,0,0,.10369-2.596,14.139,14.139,0,0,1-.11049-2.26772c.05925-1.66923.19529-3.33642.13967-5.00833-.02277-.68438-.11824-1.36782-.11381-2.05126.00559-.86169.07952-1.72294.124-2.58438a5.215,5.215,0,0,1,1.309,2.20073,25.70122,25.70122,0,0,1,.76363,2.75161,3.20729,3.20729,0,0,0,.46824,1.56528c.18835.25124.014.63623.11412.96454.30953,1.0147.54855,2.05176.88265,3.05764a4.12049,4.12049,0,0,1,.19745,1.02164,13.5572,13.5572,0,0,0,.41253,2.51222c.24669.97152.23056,1.97012.49184,2.94472.20114.75024.238,1.57464.40146,2.35554.2225,1.06277.21859,2.15179.41289,3.21651.14594.79977.04171.97048-.90821,1.55639a2.25428,2.25428,0,0,0-.57567.356,10.88711,10.88711,0,0,1-2.12959,1.54733C105.89674,95.98913,104.49483,97.3599,104.495,97.20106Z"/><path class="cls-4" d="M72.14744,53.52194c-.63574-.00305-1.27159-.0002-1.9072-.011a5.66129,5.66129,0,0,1-1.47216-.1854c-.24142-.11633-1.07574-.23419-1.2403-.29636A28.73481,28.73481,0,0,1,63.40614,51.42a21.76394,21.76394,0,0,1-1.85765-1.28528A9.82368,9.82368,0,0,1,59.13385,47.934a3.96409,3.96409,0,0,1-.69646-2.96235c1.912.569,3.83929.84545,5.71971,1.33047a2.86368,2.86368,0,0,0,.60541.03562,17.104,17.104,0,0,1,2.82511.14564c.29688.06009.61183-.11371.88711-.09647,1.36761.08566,2.72891-.07221,4.093-.045a22.15849,22.15849,0,0,0,1.123,2.74239,4.652,4.652,0,0,1-.05343,1.946c-.28789.68785-.67137,1.32832-1.00635,1.993C72.52871,53.22632,72.47082,53.51545,72.14744,53.52194Z"/><path class="cls-5" d="M99.1466,52.46736a.99868.99868,0,0,1,.10962-.19639c.62755-.698.91408-.7259,1.7883-.21454a5.09129,5.09129,0,0,1,.67834.31628c.357.29269.77241.52454.93081,1.032a3.45228,3.45228,0,0,0,.88014,1.12591,3.27706,3.27706,0,0,1,.96282,2.02043c.00391.07482-.00591.18226.03743.2183.5738.47727.55335,1.22043.8308,1.82873a5.18494,5.18494,0,0,0,3.22913,2.85827c.16593.05519.31361.17454.5032.15181a18.90131,18.90131,0,0,0-.71944,1.803.58405.58405,0,0,0,.10084.60978,1.98367,1.98367,0,0,1,.23917,1.28781c-.25975.332-.494.07511-.71777-.04641-.87022-.47259-1.67442-1.05152-2.51209-1.57648a28.74478,28.74478,0,0,0-3.67834-1.97337c-.38866-.171-.62147-.62826-1.11471-.58154a.705.705,0,0,1-.49485-.16218c-.75489-.56553-1.52357-1.117-2.23482-1.73413-.261-.22646-.68346-.25334-.803-.64571a3.09682,3.09682,0,0,1,.10137-2.15267A22.68051,22.68051,0,0,1,99.1466,52.46736Z"/><path class="cls-6" d="M42.38421,37.63635c.62536.00181.7644.6845,1.246.89369.10976.04768.17446.21808.28269.24715.62609.16816.78176.68541.88375,1.2083a2.01363,2.01363,0,0,1-.45457,1.7049,9.38314,9.38314,0,0,0-1.47414,2.28008,6.94431,6.94431,0,0,0-.49459,2.26753.884.884,0,0,0,.08016.51465c.32437.58532.316.58995-.36089.655a4.375,4.375,0,0,0-1.90074-2.06683c-.49957-.261-5.89756-4.68105-6.3667-4.90956a9.23876,9.23876,0,0,1-2.10038-2.47361,7.92191,7.92191,0,0,1-.8368-1.833A7.27033,7.27033,0,0,0,32.85741,37.457a6.46544,6.46544,0,0,0,2.91958.69838c1.21426.04362,2.41465-.11962,3.62083-.05577a9.67614,9.67614,0,0,1,1.57982.09641A1.68044,1.68044,0,0,0,42.38421,37.63635Z"/><path class="cls-7" d="M62.80424,62.21892a15.22412,15.22412,0,0,0-1.48866,2.93878,1.55031,1.55031,0,0,1-1.41672,1.12284c-.43745.029-.60828-.172-.59873-.63621a5.37656,5.37656,0,0,1,.32367-1.2318c.04589-.18057-.24968-.37115.22058-.66a3.31572,3.31572,0,0,0,.44981-.74777c.49931-.85952.97285-1.735,1.49817-2.5782A15.57361,15.57361,0,0,1,64.6608,57.476a1.199,1.199,0,0,0,.94248.15c.86863-.09914,1.74225-.12944,2.61111-.2574a3.60506,3.60506,0,0,0,1.49015-.61033c.86863-.22666,1.68475.245,2.54571.1927.30522-.01855.39214.35944.6029.533.68083.56079,1.30455,1.18639,1.95486,1.7823A6.84934,6.84934,0,0,0,75.98042,60.753a3.06612,3.06612,0,0,1,.73684,1.30764,1.62591,1.62591,0,0,1,.17964.83725,5.61157,5.61157,0,0,0,.26828,1.90121c-.46822.43293-.94565.20858-1.40049-.00681a2.95162,2.95162,0,0,1-1.48989-1.82572,24.20091,24.20091,0,0,0-2.72953-3.59223A2.93761,2.93761,0,0,0,68.56689,57.971a1.59273,1.59273,0,0,1-.7558-.02691c-1.036-.3438-1.66.28568-2.31313.91327a23.38757,23.38757,0,0,0-2.33638,2.98C63.05607,61.97779,62.98139,62.146,62.80424,62.21892Z"/><path class="cls-8" d="M70.449,32.74224a2.3484,2.3484,0,0,0-.657.14909c-.16462.02909-.39353.092-.49234-.08261a.57039.57039,0,0,1,.03533-.63579c.42006-.58334.82516-1.17763,1.25258-1.75546.64168-.86751,1.33317-1.70058,1.93419-2.59487.38674-.57546.95836-.95173,1.38171-1.481a.88846.88846,0,0,1,.75165-.30119,2.8967,2.8967,0,0,0,2.07223-.67961.37372.37372,0,0,1,.28093-.07776,9.72182,9.72182,0,0,1,2.457.59186,21.66815,21.66815,0,0,1,2.425,1.85068l.0022.00242c.16778.17493.0341.40628.11194.598.06213.256.17993.51049.01995.7722a.84775.84775,0,0,1-.50285.25384,3.11638,3.11638,0,0,1-1.56652-.53087,4.3872,4.3872,0,0,0-5.56886,1.0396A9.07809,9.07809,0,0,1,70.449,32.74224Z"/><path class="cls-9" d="M74.41793,62.818a3.25472,3.25472,0,0,0,1.21942,1.70141,2.03235,2.03235,0,0,0,1.52783.27963,23.07614,23.07614,0,0,0,.13928,3.07061c.04162.28049.227.41357.31784.62781-.09785-.00605-.27008-.03735-.26428.06284.06055,1.04584-.17045,2.07069-.20949,3.11036-.03647.97115-.219,1.93682-.33723,2.90491-.43687-.11364-.50406-.54851-.69013-.8532-.67005-1.09719-1.4065-2.14895-2.01472-3.29178C73.444,69.1859,73.15158,67.80215,72.47,66.578a.44644.44644,0,0,1-.01376-.43835c.56767-1.07448,1.06476-2.18628,1.69981-3.22492A.2165.2165,0,0,1,74.41793,62.818Z"/><path class="cls-3" d="M108.60365,65.43925c.02167-.47836-.25953-.93-.12506-1.41831.3925.1023.57723-.091.75772-.4284a4.7076,4.7076,0,0,1,1.79685-2.18015,7.55182,7.55182,0,0,1,2.22035-.86793c.42279-.07131.94547.48157,1.01237,1.03971a3.95621,3.95621,0,0,1-.94992,3.0675,4.449,4.449,0,0,1-2.50843,1.6514,9.0202,9.0202,0,0,1-2.19348-.11993A.52532.52532,0,0,1,108.60365,65.43925Z"/><path class="cls-9" d="M99.48251,16.817c.21847.11427.32712-.06307.44419-.18324a.70969.70969,0,0,1,.54407-.21687c.52106-.00415.71712.251.59427.76441a3.67628,3.67628,0,0,1-1.0063,1.57333,13.93009,13.93009,0,0,1-1.67968,1.85491c-.68853.52172-1.24706,1.16922-1.874,1.74912a2.47586,2.47586,0,0,0-.39446.45892c-.12624.194-.23712.41937-.484.43932-.33479.02707-.63188.263-1.02034.0446a3.89646,3.89646,0,0,1-1.24287-.84089c-.06253-.07719-.12787-.14122-.06082-.26028.0916-.16266.3355-.04216.40053-.23412-.19832-.0629-.41028-.11229-.12587-.35629a1.49249,1.49249,0,0,0,.351-.39708,1.229,1.229,0,0,1,.3214-.41785c.78144-.58681,1.354-1.39656,2.13223-1.986a13.70943,13.70943,0,0,1,2.63561-1.88964C99.17377,16.85061,99.28325,16.66817,99.48251,16.817Z"/><path class="cls-10" d="M70.449,32.74224a.90865.90865,0,0,1,.636-.49723c.98175-.29027,1.539-1.10519,2.2804-1.69369.67764-.53788,1.21781-1.21524,1.88968-1.75115a4.43022,4.43022,0,0,1,4.55783-.29138,5.79594,5.79594,0,0,0,1.77437.73174c.41737-.10767.32375.28371.44979.46056l.01243.32c-.29915.74225-.29915.74225-1.20714.75265-2.87391-.76841-5.46484.01637-7.928,1.4613-.549.32206-1.12207.59509-1.67845.90116-.19512.10734-.39959.24913-.63206.06939C70.59261,33.03765,70.66777,32.84084,70.449,32.74224Z"/><path class="cls-9" d="M89.84149,18.10036a10.26534,10.26534,0,0,1,1.85859-3.81385c.32666-.3972.60912-.9101,1.17822-1.08407a.71971.71971,0,0,1,.97918.69416,5.18955,5.18955,0,0,1-.8466,2.74033,16.92615,16.92615,0,0,0-1.29006,2.26133,1.29971,1.29971,0,0,1-.71147.749,1.00383,1.00383,0,0,1-1.32446-.8436c.005-.231.09747-.31235.30223-.43463.2899-.17313.03438-.2421-.14606-.26921Z"/><path class="cls-9" d="M95.26043,25.75506c.38252-.0282.82187.05717.96954-.45486.01482-.0514.14323-.06012.19111-.11357.26122-.29169.50993.55572.6978.03526.13913-.38546.39008-.26777.63359-.32929.28954-.07314.6223-.37754.82771-.29871.44443.17055.69441-.14383,1.03375-.21419.35254-.07309.7385-.04954,1.07642-.12752a2.6416,2.6416,0,0,1,2.01406.43337c.33523.1963.31007.32109.05149.63965a1.89357,1.89357,0,0,1-.88054.53338,32.18038,32.18038,0,0,1-4.14145,1.05567A2.13521,2.13521,0,0,1,95.26043,25.75506Z"/><path class="cls-8" d="M108.60365,65.43925l.0104.74389a1.45217,1.45217,0,0,1-1.48191-.12439,7.618,7.618,0,0,1-1.14379-.75931A8.66,8.66,0,0,0,104.649,64.504c-.097-.334-.449-.37162-.67141-.55828a7.11983,7.11983,0,0,1-.95544-.77623c-.24141-.28045-.72349-.35374-1.099-.51873a.83077.83077,0,0,0-.60121-.81743.82808.82808,0,0,1-.62709-.70237c.2681-.1373.46034-.31766.70329.13985.18951.35684.75855.35708,1.13828.59279.5832.362,1.31521.47535,1.8006,1.027,1.31675.38212,2.20191,1.5142,3.4669,1.99538C108.09877,64.9981,108.26951,65.34842,108.60365,65.43925Z"/><path class="cls-8" d="M99.1466,52.46737a.85613.85613,0,0,1-.15324.715c-.27653.2789-.282.718-.49041.95787a10.24262,10.24262,0,0,0-1.007,2.22516,2.25047,2.25047,0,0,0-.208,1.80653c.056.17051-.124.266-.12572.417-.34381-.011-.70736.276-1.02909-.06818-.0461-.25233-.31165-.481-.07293-.76736a.21048.21048,0,0,0-.00254-.20261c-.58643-.43066-.206-.975-.02359-1.33256.38095-.74682.61308-1.55231,1.04648-2.2857A2.83078,2.83078,0,0,1,99.1466,52.46737Z"/><path class="cls-8" d="M75.20151,14.57449c-.28088.66-.32418.67841-.99148.5271-.32343-.07333-.7076-.00995-.79051-.49531-.02547-.14908-.188-.12184-.29535-.01529-.10771.10687-.21628.21289-.32434.3194-.54486.537-1.18868.36524-1.81821.23929-.10485-.021-.23517-.13812-.10267-.28479.3673-.4066.64284-.98892,1.0532-1.2331.57008-.33922,1.11145-.97251,1.93385-.7535.07208.01919.17675-.08395.26629-.13027.23732-.03714.38752.203.63.1904.10463-.00546.29161.15636.25323.23294C74.75481,13.69159,75.21621,14.0999,75.20151,14.57449Z"/><path class="cls-8" d="M71.2186,9.71237a.6144.6144,0,0,0-.73287.40167c-.15371.36525-.47848.63358-.515,1.07408-.02291.27614-.55475.53884-.83226.437a2.414,2.414,0,0,0-.74438-.0858c-.60159-.03241-.71558-.13642-.88808-.70911-.0622-.20648-.10707-.33443.16329-.36847.06518-.0082.137-.02253.11535-.14134-.12761-.701.45467-.90983.8898-.984.70215-.11968,1.34833-.54482,2.09574-.40553.32285.08167.687-.12537.98546.16227.169.16288.25764.3183-.00478.42491C71.57841,9.58807,71.43687,9.76594,71.2186,9.71237Z"/><path class="cls-8" d="M59.21735,2.52612a3.61627,3.61627,0,0,0-2.20557-.61292c-.1507.00879-.36523.10431-.44617-.14563H53.20752a4.92292,4.92292,0,0,1-1.76068.44135A36.07175,36.07175,0,0,0,47.20135,3c-.31341.08837-.73388.02777-.938.21649-.27228.25158-.57868.14831-.84028.27856a3.794,3.794,0,0,0-1.03381.35388c-.23181.09919-.56836-.00036-.68213.33722a.134.134,0,0,0-.11767.05146c-.34833-.14875-.50147.19543-.75061.29711a.3609.3609,0,0,0-.31354.04578c-.56482.119-.91474.61365-1.43042.81848a.0891.0891,0,0,0-.10712.01752c-.42657.20258-.92865.29187-1.16607.77789-.03852.3888-.34412.04053-.50464.18836-.691.63653-1.57849,1.01257-2.25373,1.67767a10.49738,10.49738,0,0,1-1.37652,1.25726,5.61689,5.61689,0,0,0-.973,1.00788,5.32072,5.32072,0,0,1-.3332.42706,13.36617,13.36617,0,0,0-3.01666,4.23572c-.29791.66076-.53625,1.35443-.89276,1.98138C29.90131,17.972,29.40845,19.00335,28.926,20.05a14.72713,14.72713,0,0,0-.85791,3.01191,10.32482,10.32482,0,0,0-.202,2.21911,14.49033,14.49033,0,0,0,.2088,2.22467,24.85282,24.85282,0,0,0,1.46954,5.736A10.87556,10.87556,0,0,0,30.888,36.12463a5.38708,5.38708,0,0,0,3.69525,2.14673c2.16028.381,4.36035-.11951,6.54315.10058a1.31192,1.31192,0,0,0,1.2948-.66223.45558.45558,0,0,0-.02313-.44024,4.01273,4.01273,0,0,0-1.26153-1.19629c-1.65857-1.02277-2.047-2.63745-2.18134-4.37451a1.64139,1.64139,0,0,1,2.12347-1.87525,2.36811,2.36811,0,0,0,.37928.02136,6.242,6.242,0,0,1,3.00732.65,3.9848,3.9848,0,0,0,4.05481.21045c.88-.47486,1.05792-.64844.72113-1.59235-.96588-2.70734-1.4732-5.537-2.262-8.28833a8.501,8.501,0,0,0-3.15808-4.81317c-.70325-.4975-1.34833-1.07184-2.06635-1.55744-.65729-.44451-.70172-.77679-.13653-1.32153A43.78552,43.78552,0,0,1,46.04547,8.866a24.25321,24.25321,0,0,1,5.94562-3.32354c.77313-.27991,1.59711-.3332,2.33636-.65052A23.54152,23.54152,0,0,1,58.072,3.89019c.87763-.217,1.84162-.06121,2.64069-.60608A16.46988,16.46988,0,0,1,59.21735,2.52612Z"/><path class="cls-2" d="M82.03709,29.70109c-.19136-.11307-.18773-.41655-.44979-.46056.09344-.208.27422-.14764.4371-.14227A1.22514,1.22514,0,0,1,82.03709,29.70109Z"/><path class="cls-2" d="M82.00445,28.32606c-.21477-.16613-.08992-.39583-.11194-.598C82.14693,27.88673,82.02386,28.1161,82.00445,28.32606Z"/><path class="cls-9" d="M89.84106,18.09982l-.05886.10217c-.09-.09789.02835-.07427.05929-.10163Z"/><path class="cls-11" d="M74.86351,91.51694a28.52305,28.52305,0,0,1-.56813,2.84162c-.28168,1.0704-.40247,2.17329-.60238,3.25923-.22781,1.23748-.55167,2.453-.76164,3.69254-.03762.22215-.07289.4447-.11424.69761-.26539-.07342-.30021-.28466-.34248-.466-.31647-1.35769-.95994-2.6044-1.34529-3.93323a29.5947,29.5947,0,0,1-1.07948-3.04757c-.12486-.70341-.5875-1.31764-.78875-2.02108-.171-.59762-.45578-1.16962-.61525-1.76142-.19-.70523-.49816-1.35715-.73017-2.04029-.50637-1.49095-1.04293-2.97411-1.63883-4.43112a11.832,11.832,0,0,1-.86632-1.91154,6.4282,6.4282,0,0,1-.06969-2.77422,13.196,13.196,0,0,1,.36137-3.97375c.20071-.60389.03735-1.38777.25184-2.07a4.23393,4.23393,0,0,1,.62121-1.45375c.14529-.09538.33649-.107.41559.023.36187.595.97063.982,1.21465,1.70262a10.58271,10.58271,0,0,0,1.20911,2.10246c.43312.69115.74076,1.45531,1.17555,2.12341.80734,1.24051,1.25879,2.65974,2.09315,3.87534a8.54258,8.54258,0,0,1,.61182,1.92457,26.88959,26.88959,0,0,1,1.45149,5.83084C74.83658,90.31127,74.73971,90.91963,74.86351,91.51694Z"/><path class="cls-12" d="M74.86351,91.51694c-.30023-.38542-.18245-.87441-.24521-1.296a34.35006,34.35006,0,0,0-.83623-4.26154,14.58984,14.58984,0,0,0-.92417-2.68229c-.10286-.20318-.443-.47679-.08343-.78889.15-.1302-.04913-.21912-.12191-.289A5.21106,5.21106,0,0,1,71.649,80.39536a4.70962,4.70962,0,0,0-.93759-1.58729,1.12793,1.12793,0,0,1-.26447-.4527,10.811,10.811,0,0,0-1.33624-2.49012c-.36515-.56123-.724-1.13965-1.04854-1.72217-.22882-.41069-.28784-.86194-.7385-1.18655-.24245-.17462-.25385-.67611-.65379-.81991-.15592-.24851-.04513-.43437.14149-.60241a18.49471,18.49471,0,0,0,.67932-1.788,4.28992,4.28992,0,0,1,.71825-1.43423c.29673-.36916.78223-.44532,1.13457-.74663a2.84556,2.84556,0,0,0,1.03185-1.8052c.27835-1.93444.66506-3.85065.9596-5.78223a.872.872,0,0,1,.36821-.71513c.773.927,1.56313,1.8406,2.30617,2.791.16849.21553.23673.52651.40862.76418a25.28328,25.28328,0,0,0-1.21852,2.27134c-.03714.06382-.05666.13769-.09149.2031-.19906.37383-.59161.77239-.54565,1.11213a6.11446,6.11446,0,0,0,.49839,1.05722c.18446.4618.37976.91927.5703,1.37864.00967.0233.0117.05772.02893.06875.33358.21339.28771.81821.38931.95229a1.85994,1.85994,0,0,1,.354.65376c.24728,1.04517,1.12446,1.72084,1.543,2.68145.20156.4626.60644.89606.8651,1.37889a2.70521,2.70521,0,0,1-.05622,1.19577,16.50186,16.50186,0,0,0-.1782,2.14741,19.65455,19.65455,0,0,1-.25522,2.205,1.02626,1.02626,0,0,0-.04244.299c.0915,1.9321-.44288,3.80752-.52511,5.72871-.03072.71752-.29538,1.47158-.35621,2.19C75.30624,89.424,74.86236,90.43182,74.86351,91.51694Z"/><path class="cls-13" d="M65.209,102.32549a13.28326,13.28326,0,0,1-1.18875-1.68857c-.09464-.21424-.23306-.058-.36029-.06465a1.24559,1.24559,0,0,1-.93824-.39129,37.56118,37.56118,0,0,1-2.49732-3.09717c-.64787-.99878-1.41415-1.9091-2.09252-2.88411-.29912-.42994-.68141-.78645-1.01562-1.17941a8.95644,8.95644,0,0,1-1.61758-1.949c-.04105-.09034-.089-.21831-.16431-.24608-.837-.30877-1.20429-1.09773-1.68571-1.73-.623-.81822-1.37789-1.50568-2.02744-2.29233-.90821-1.09988-1.95993-2.06872-2.907-3.13126-.56728-.63643-1.26135-1.11905-1.85142-1.72742-.6689-.68966-1.48225-1.23681-2.19351-1.88879-.3704-.33953-.81135-.57074-1.19947-.88285-.71033-.57122-1.24741-1.31373-1.98247-1.85038-.27611-.20158-.23365-.76489.12518-1.12114.25335-.25153.52339-.42713.3068-.83574a.33245.33245,0,0,1,.056-.28558,12.75778,12.75778,0,0,0,1.54251-3.09962,11.31093,11.31093,0,0,0,.637-1.27308c.13562-.48254-.00911-.66691-.50245-.58729a7.78882,7.78882,0,0,0-1.73362.3,2.581,2.581,0,0,1-1.07772.1431c-.63655-.035-1.26172.21831-1.92393.19754a9.98914,9.98914,0,0,1-1.10209-.1981c-.26283-.03665-.35682-.401-.32592-.69223a42.52753,42.52753,0,0,1,.42212-4.504c.1405-.65545.03972-1.353.15984-2.03455.08264-.46891.19146-.93149.27008-1.39154.10944-.64039.25572-1.2763.34655-1.91758a9.03792,9.03792,0,0,1,.46213-1.58061c.13624-.41175.53254-.52549.83065-.73977.19555-.14057.84041.42222.79139.6845-.16489.88228-.11434,1.7803-.294,2.675a11.80018,11.80018,0,0,0-.09438,2.41555,18.21654,18.21654,0,0,0-.132,2.60507,31.79891,31.79891,0,0,1,.14906,3.40152c.02264.4447.31613.65448.73438.49192a15.42647,15.42647,0,0,1,2.21786-.40688c.69513-.16137,1.39087.18394,2.10359.15875.23222-.0082.33114.26144.24478.468-.1751.41874-.20807.87575-.413,1.28844-.45741.921-.879,1.85972-1.317,2.7904a4.23661,4.23661,0,0,0-.234.47479c-.0843.26081-.50956.3431-.39322.67726.08151.23415.35152.34558.52895.51806.6025.58565,1.25979,1.11452,1.87441,1.68836.16937.15815.63183.16672.39355.60767a.32705.32705,0,0,0,.17216.12449c.81309.00354,1.19112.70637,1.75124,1.1029.73334.51918,1.41562,1.11117,2.11313,1.6801a10.94821,10.94821,0,0,1,1.96694,1.69452c.37846.50624.95458.75439,1.2788,1.30467a11.0495,11.0495,0,0,0,1.23042,1.29178,28.91017,28.91017,0,0,1,2.97207,3.95431,6.317,6.317,0,0,0,.58422.76592c.68838.85817,1.18078,1.84926,1.83281,2.718a13.30652,13.30652,0,0,0,1.46941,2.003,4.555,4.555,0,0,1,.80764,1.2547c.41753.7901,1.06327,1.42005,1.49175,2.20179a7.286,7.286,0,0,1,1.30224,3.33417C65.1173,101.87582,65.32858,102.02789,65.209,102.32549Z"/><path class="cls-13" d="M86.698,68.06727c.30151.52014.70722.92956.9569,1.46123.16718.356.62489.48858.96064.71065.13518.0894.45733.13212.13515.40148-.11953.09993.0461.07719.08167.11246.352.34908.71942.68483,1.04666,1.05594a.99476.99476,0,0,1,.26571.7678c-.03468.32465-.1655.54907-.53961.43175-.38595-.121-.52754.03342-.71737.383-.45637.8405-.80139,1.72353-1.18819,2.59236-.47023,1.05624-.93047,2.11456-1.30249,3.20816-.24859.73072-.49454,1.46465-.72664,2.20015a15.9821,15.9821,0,0,1-.94343,2.67639,5.34992,5.34992,0,0,0-.26637.85372,27.448,27.448,0,0,0-1.154,3.55056,5.89937,5.89937,0,0,1-.36648.97,9.4546,9.4546,0,0,1-1.607,3.36361c-.20979.235-.38932.58315-.76063.38861-.35025-.18355-.20974-.51439-.08886-.798.36755-.86208.32543-1.82495.66-2.69337.31826-.82608.22643-1.73179.583-2.56668.34051-.79736.43344-1.69675.7895-2.4983a11.61471,11.61471,0,0,0,.63754-1.98857c.24509-1.01687.57529-2.00173.9075-2.98283a8.067,8.067,0,0,1,.61817-1.68965c.25245-.41669.14173-.96977.40483-1.42806a4.23683,4.23683,0,0,0,.57907-1.45758c.06511-.46665.64631-.27847.66817-.71334.01556-.30964-.22253-.60021.01253-.93383.36138-.51289.64426-1.08077.99974-1.59831.14265-.20769.16221-.30849-.01743-.499-.132-.13993-.18372-.36588-.36009-.47628A8.048,8.048,0,0,1,84.973,68.546c-.3381-.45686-.2425-.69283.33655-.82155.25932-.05764-.09792-.39027.25187-.34953.19923.0232.41539-.15638.63233-.21163.2176-.05542.44873-.0566.66791-.10749a.88784.88784,0,0,1,.35184-.04873c.77688.10019.93877-.11074.69136-.88016-.36925-1.14832-.7352-2.2981-1.13359-3.43638a.44.44,0,0,1,.16614-.60614.4782.4782,0,0,1,.67192.0128,1.88755,1.88755,0,0,1,.47181.5854,18.31332,18.31332,0,0,1,1.2854,3.7348,2.4534,2.4534,0,0,1,.01012.68332c-.00108.17766-.09205.25392-.268.30332a7.04761,7.04761,0,0,1-1.937.47016A1.39936,1.39936,0,0,0,86.698,68.06727Z"/><path class="cls-13" d="M32.6882,106.58251c-.29065-.33112-.10548-.75732-.21558-1.13141-.25929-.881-.42624-1.78406-.70066-2.67066a50.40867,50.40867,0,0,1-1.4927-5.34418c-.14519-.7534.013-1.594-.49473-2.27134.34265-.30139-.04624-.5268-.12279-.74261a12.33808,12.33808,0,0,1-.539-2.02578,8.23637,8.23637,0,0,0-.32331-1.07348c-.46181-1.47987-.86753-2.98015-1.39884-4.43458a23.04988,23.04988,0,0,0-1.771-4.09433,27.71492,27.71492,0,0,0-1.37772-2.49144c-.81359-1.08319-1.65144-2.1397-2.54868-3.1567a8.71432,8.71432,0,0,0-2.1687-1.67222c-.50485-.30159-.81874-.88014-1.43141-1.05053-.07531-.02095-.12579-.08331-.06979-.16376.02588-.03718.08406-.08093.121-.07565.09536.01363.217.10635.2755.07357.50064-.28043.88934.0166,1.3021.22036a9.96425,9.96425,0,0,1,2.82577,1.73547c.98077.99354,2.084,1.846,2.99922,2.92953a16.66452,16.66452,0,0,1,2.03468,2.96289,16.79924,16.79924,0,0,1,1.83457,4.26442c.10915.51561.40343,1.016.54194,1.54551.14069.5378.48255,1.03472.356,1.63218-.00983.04639-.007.12637.02085.14531.61524.4183.535,1.14312.70126,1.73026a9.06809,9.06809,0,0,1,.54881,1.87075,17.22141,17.22141,0,0,0,.245,1.722c.20712,1.22881.37286,2.46221.48656,3.70353a12.02669,12.02669,0,0,1,.23075,2.36625,13.69076,13.69076,0,0,0,.05349,2.08079,16.561,16.561,0,0,0,.26294,2.94A.40252.40252,0,0,1,32.6882,106.58251Z"/><path class="cls-9" d="M67.43707,66.78289c-.74811-.85107-1.70355-1.51251-2.36419-2.43084a21.95742,21.95742,0,0,0-2.259-2.18525,3.42385,3.42385,0,0,0-1.10211,1.66474,15.11606,15.11606,0,0,1-.87842,1.77075.91843.91843,0,0,1-1.13556.39069c-.4508-.19263-.13214-.62012-.08355-.944.12353-.82288.76751-1.389,1.07531-2.152a10.04335,10.04335,0,0,1,2.90625-4.21161c.40619-.32672.93506-.61157,1.06507-1.20941-.18805-.28925-.51856-.08179-.76709-.22864a9.94781,9.94781,0,0,0-1.73395-.65106c-1.07617-.38941-2.17963-.70844-3.24554-1.13178-.67926-.26977-1.34015-.61236-2.0221-.84185-1.01849-.34278-2.03284-.6836-3.01593-1.118a2.15637,2.15637,0,0,0-.42743-.1405,23.15207,23.15207,0,0,1-3.7392-1.20434,11.48383,11.48383,0,0,0-1.53356-.58258,32.56,32.56,0,0,1-3.19416-.97309,2.69306,2.69306,0,0,0-1.37689-.45581,5.6723,5.6723,0,0,0-1.233.2934c-.14887.04748-.28473.07025-.30548.26831a1.20418,1.20418,0,0,0,.56854.97436,12.0004,12.0004,0,0,0,1.27557.43616,7.93077,7.93077,0,0,1,2.36988,1.23889c.5971.49622,1.25634.91773,1.88867,1.37152a25.29244,25.29244,0,0,1,2.58331,2.16956c1.05725.93213,1.69635,2.23248,2.65424,3.2605.43634.46826.68017,1.06085,1.06787,1.55462a17.13555,17.13555,0,0,1,1.77276,2.807c.056.10968.056.23151.20807.27869.43708.13562.51557.59344.74158.90741.08563.11895.25482.43963-.033.63324.192.22686.47052.34893.63568.62445.70923,1.1828,1.35572,2.3985,1.95545,3.63873.18652.3858.54467.70276.585,1.13281a2.74886,2.74886,0,0,0,.4292,1.02936q.76446,1.47144,1.42657,2.99139c.49439,1.14038,1.0351,2.26069,1.54627,3.39392.07757.17188.37494.91926.52081,1.17054.30664.528.59692,1.06616.87537,1.60968.08246.16095.01361.405.27221.46283a15.57572,15.57572,0,0,0,.1493-2.08033c-.05091-.92572.08892-1.8457.009-2.766-.03851-.44354.18976-.85779.09857-1.312-.02179-.1087.28461-1.51434.34351-1.95947a14.57959,14.57959,0,0,1,.65887-2.14124c.092-.18133.46686-.89026.56085-1.10412.38459-.87488.69226-1.7815,1.08307-2.65406C68.59589,67.53021,67.84747,67.24975,67.43707,66.78289Z"/><path class="cls-8" d="M61.57572,10.76381a3.94416,3.94416,0,0,1,2.2995,2.12148c.02081.09767.0428.22791-.06936.27011a2.32445,2.32445,0,0,1-.64594.17529c-.25978.017-.28152-.21293-.34632-.41332-.10019-.30979-.27471-.35444-.437-.0298-.07314.14632-.16538.1369-.30607.11264a22.569,22.569,0,0,0-3.41714-.08254,3.86143,3.86143,0,0,0-1.52831.60155,3.15673,3.15673,0,0,0-1.26656.94176.65676.65676,0,0,1-.28855.24172c-.84394.23173-1.01323,1.002-1.26748,1.65693-.12771.329-.20706.61486-.57987.498a.59536.59536,0,0,1-.325-.748c.36729-.87261.38852-1.86711,1.26626-2.57037a6.30311,6.30311,0,0,0,1.52122-1.73254c.51792-.91142,1.42552-1.04362,2.28475-1.29991A18.44473,18.44473,0,0,1,61.57572,10.76381Z"/><path class="cls-4" d="M45.69959,36.71859a5.21448,5.21448,0,0,1-3.5723-1.61524,8.19041,8.19041,0,0,1-1.4554-1.97346.71753.71753,0,0,1,.21837-1.01435,2.175,2.175,0,0,1,2.64143-.20306c.07579.03385.07335.19588.21639.14453.6128-.22.79451.191,1.06216.62875a5.899,5.899,0,0,0,1.39055,1.75268c.43966.32877.56043.85907.86566,1.27252.21509.29135-.26975.94826-.68322,1.00239A5.30671,5.30671,0,0,1,45.69959,36.71859Z"/><path class="cls-9" d="M76.41132,59.28387a18.21643,18.21643,0,0,0-.43256-2.1803c-.21722-1.01111-.39337-2.03888-.566-3.06213a8.4867,8.4867,0,0,0-.78455-3.19037.35717.35717,0,0,1-.04577-.21881c.07831-.55475-.27716-1.01276-.33771-1.54126-.03656-.31915-.23737-.31329-.554-.00665a17.66034,17.66034,0,0,1-1.54327,4.43756,5.155,5.155,0,0,0-.42029.61023,8.69986,8.69986,0,0,1-2.02264,2.626c.49383.18665,1.03058.11921,1.53381.26209.2522.07159,1.18976.40289,1.28827.46271.82855.50262,1.33649,1.38519,2.19678,1.84875a.77683.77683,0,0,0,.25232.58978,6.43575,6.43575,0,0,1,1.4621,1.8982.427.427,0,0,0,.27948.2409.21146.21146,0,0,0,.13818-.242A14.95889,14.95889,0,0,1,76.41132,59.28387Z"/><path class="cls-4" d="M77.62947,21c-.00888-.1279-.01606-.25852-.17658-.29325-.4885-.10569-.97295-.24383-1.46695-.30769a10.37049,10.37049,0,0,1-3.32119-1.27118,1.165,1.165,0,0,1-.49507-.65369.2461.2461,0,0,1,.36212-.32309c.62448.53079,1.40857.42882,2.13.60163a10.64887,10.64887,0,0,1,2.75617.53236,4.6766,4.6766,0,0,1,1.6952,1.3769,2.46607,2.46607,0,0,1,.55033,1.47492,2.50023,2.50023,0,0,1-1.04332,1.917,5.68653,5.68653,0,0,1-2.54795,1.03584c-.26106.07411-.56892-.172-.87908-.12689-.30734-.66365.29014-.7147.63482-.85726a4.18683,4.18683,0,0,0,1.33882-.68676,1.61486,1.61486,0,0,0,.56366-1.898A1.27288,1.27288,0,0,1,77.62947,21Z"/><path class="cls-10" d="M77.62947,21a1.58736,1.58736,0,0,1,.16906,2.02518,2.83719,2.83719,0,0,1-1.82519,1.21808c-.32243.0314-.84839.12982-.78022.71957l-2.13668.46483a2.03764,2.03764,0,0,1-2.1905-.27117c-.19747-.21372-.45528-.43779-.25757-.79308a10.88176,10.88176,0,0,1,2.04689-.61119,4.93855,4.93855,0,0,0,2.81731-1.592c.06121-.07775.15573-.16778.15386-.25027a.82465.82465,0,0,1,.64082-.83289C76.70885,20.91719,77.15656,20.68079,77.62947,21Z"/><path class="cls-8" d="M63.89244,18.15848c.00333.69947.00216.67791-.60471.71074a1.93838,1.93838,0,0,1-1.65537-.86641c-.28131-.34382-.411-.36668-.59966.03609a8.30828,8.30828,0,0,1-.664,1.00515,1.549,1.549,0,0,1-1.46378.57582c-.42312-.10268-.54374-.40943-.28645-.74577a1.06405,1.06405,0,0,0,.23967-.37629,3.90791,3.90791,0,0,1,1.93311-2.1253,2.69821,2.69821,0,0,1,2.31761-.24181c.09061.02357.22506.0914.23994.16018C63.48984,16.94287,63.95579,17.50314,63.89244,18.15848Z"/><path class="cls-10" d="M79.92661,33.66492c.38259.05271.804-.11385,1.173.17289a9.96841,9.96841,0,0,1-.76271.76153,4.83448,4.83448,0,0,1-4.76681,1.18036,14.51,14.51,0,0,1-2.256-.51457,1.54556,1.54556,0,0,1,1.19043-.3788c.27673.023.55692.00411.83556.00406a.41347.41347,0,0,1,.34091-.1416A6.41207,6.41207,0,0,0,79.92661,33.66492Z"/><path class="cls-4" d="M70.60837,24.36337A1.41342,1.41342,0,0,0,72.084,25.42312c.323.02015.64825.00412.97248.0045-.03264.19143.08737.45328-.12036.55873a1.35194,1.35194,0,0,1-.71789.15816c-.56621-.064-1.12322-.20514-1.68692-.29693-.50991-.083-.79075-.50787-1.186-.76093-.15311-.098-.09978-.26913-.11263-.41443a2.05678,2.05678,0,0,0-.11353-.88768.4354.4354,0,0,1,.17314-.59653.91849.91849,0,0,1,.85628-.1706c.243.107.22314.42253.29915.65231C70.52212,23.8947,70.33122,24.18264,70.60837,24.36337Z"/><path class="cls-4" d="M79.92661,33.66492a1.46815,1.46815,0,0,1-1.0455.77785c-.49052.14806-.95872.365-1.46988.46933a2.4455,2.4455,0,0,1-1.46955.00433,1.84808,1.84808,0,0,0-.60157-.026c.00139-.16614.06181-.24826.24117-.31578q1.35549-.51029,2.69077-1.0738A1.89125,1.89125,0,0,1,79.92661,33.66492Z"/><path class="cls-4" d="M79.72168,30.31921c-.83356-.02289-1.66827-.01019-2.50244-.006a1.34313,1.34313,0,0,0-.44519.05249,20.67436,20.67436,0,0,0-4.37226,1.92914,17.42575,17.42575,0,0,1-1.79791.9107l-.00122.00159c-.37262.16144-.39093.23932-.144.61273a2.4375,2.4375,0,0,0,1.44836-.087,2.50154,2.50154,0,0,0,.84833-.429c.40491-.36,1.0116-.31818,1.44629-.60767,1.10431-.73529,2.4433-.86688,3.60053-1.45587.04156-.02118.10284.00037.15039-.01342a7.81507,7.81507,0,0,1,2.18292-.15046c.28186-.00146.571.0318.70691-.30279C80.58484,30.33831,80.13916,30.33068,79.72168,30.31921Z"/><path class="cls-8" d="M59.0066,10.62177l-.10827-.06712C58.99877,10.467,59.0066,10.62177,59.0066,10.62177Z"/><path class="cls-14" d="M97.28525,44.05674a.40236.40236,0,0,1-.23866.27646c-.42088.20818-.8371.42975-1.27234.60289-.16757.06665-.4242.117-.547-.093-.12919-.22085.05091-.3856.21112-.50359a2.50075,2.50075,0,0,1,1.41584-.59451C97.07837,43.739,97.2443,43.81551,97.28525,44.05674Z"/><path class="cls-14" d="M95.82172,42.15634c.56171-.21961,1.009-.60814,1.62209-.55381.25385.02248.54276-.0187.61721.30012.08754.37491-.23433.46758-.4871.56127-.39419.1461-.80585.345-1.14226-.13189C96.29939,42.1445,96.04708,42.26147,95.82172,42.15634Z"/><path class="cls-14" d="M92.80545,43.57678c-.3002.00957-.50442.03617-.52759-.21262a.32976.32976,0,0,1,.2584-.39338c.35481-.1141.68241-.31084,1.03458-.43586a.34944.34944,0,0,1,.46036.16231c.07364.17518-.11854.25557-.21716.34863A2.02446,2.02446,0,0,1,92.80545,43.57678Z"/><path class="cls-14" d="M92.57125,46.33715c-.14072-.01608-.317.04953-.39578-.12939-.08633-.196.0549-.31592.15934-.46227a.94514.94514,0,0,1,1.017-.30629.34694.34694,0,0,1,.2929.30406c.034.18688-.07682.25937-.229.32785A1.50466,1.50466,0,0,1,92.57125,46.33715Z"/><path class="cls-14" d="M98.60655,45.45333c.05547.01833.36267-.14751.37849.22878.01424.33857-.13465.51589-.492.50647a1.07654,1.07654,0,0,0-.5904.07433c-.20536.11487-.24447-.081-.327-.1948-.11412-.15729-.07468-.2446.088-.35567A.98732.98732,0,0,1,98.60655,45.45333Z"/><path class="cls-14" d="M90.74589,44.58974c-.35826.8194-.61844,1.03853-1.11831.98326-.13281-.01469-.26518-.04138-.31863-.168-.06115-.14487.08165-.22359.16066-.30747C89.80265,44.744,90.0796,44.24572,90.74589,44.58974Z"/><path class="cls-14" d="M101.65239,46.79658c.29472.0071.64-.06424.696.37044.02946.22871-.32623.5115-.63444.53058-.28854.01785-.69324-.246-.70188-.45752C101.002,46.9931,101.28084,46.8,101.65239,46.79658Z"/><path class="cls-14" d="M100.34851,44.96189c-.10105,0-.20211.00025-.30316,0-.17593-.00053-.29122-.07533-.29477-.263-.00391-.20748.089-.33747.31175-.34043.20208-.00268.40424.00126.60627-.00281.21568-.00434.32454.0851.32173.31281-.0029.23541-.13248.3024-.33865.29545-.10095-.0034-.2021-.00058-.30317-.00058Z"/><path class="cls-11" d="M71.70315,59.26283c-.16117.85585-.347,1.708-.4772,2.5685-.16019,1.05847-.30539,2.119-.56057,3.15949a3.05066,3.05066,0,0,0-.0573.52174,2.45182,2.45182,0,0,1-1.238,2.22259c-.20538.55794-.76461.40364-1.16113.57687.129-.78835-.58384-1.02624-.97308-1.4726-.07486-.08584-3.26469-3.50575-3.31887-3.51737-.61028-.13079-.79156-.68655-1.11272-1.10313a.8.8,0,0,1,.08179-.28379,23.43252,23.43252,0,0,1,2.10143-2.80239c.41663-.38682.78313-.82538,1.241-1.1796a1.22452,1.22452,0,0,1,1.1182-.30539,6.49438,6.49438,0,0,0,2.10353.11935,1.39324,1.39324,0,0,1,.83037.20384A4.96114,4.96114,0,0,1,71.70315,59.26283Z"/></svg>