<svg width="120px" height="120px" viewBox="0 0 120 120" id="Layer_1" data-name="Layer 1" xmlns="http://www.w3.org/2000/svg"><defs><style>.cls-1{fill:#2a3b58;}.cls-2{fill:#e4e8eb;}.cls-3{fill:#d1dbe3;}.cls-4{fill:#fc9aad;}.cls-5{fill:#25344e;}.cls-6{fill:#87daad;}.cls-7{fill:#87daae;}.cls-8{fill:#feccd7;}.cls-9{fill:#86d8ad;}.cls-10{fill:#fecdd7;}.cls-11{fill:#85d7ac;}.cls-12{fill:#fefefe;}</style></defs><title>hs-huzzah-29</title><path class="cls-1" d="M46.95166,102.94673c1.14311.39879,2.28986.79831,3.42073,1.218a27.441,27.441,0,0,1,2.90162,1.31874c.11637.05947.21779.22531.38174.08482a1.72851,1.72851,0,0,1-.429-.98464,15.10928,15.10928,0,0,0-.43515-3.59664,3.92218,3.92218,0,0,1,.052-1.84453c.06358-.28158.15114-.59924.54971-.601.44718.84269,1.29734,1.3577,1.76693,2.18559.45357.79961,1.259,1.31482,1.72089,2.11912.33012.57479.75745,1.09293,1.10881,1.65667a3.07532,3.07532,0,0,0,.64157.70242,2.52623,2.52623,0,0,1,.67543,1.97453,1.68851,1.68851,0,0,0,.20281,1.1487,6.70725,6.70725,0,0,1,.031,2.08284,3.7041,3.7041,0,0,0,.05178,1.48138c.17408.56386.4534.90583,1.10264.89429A1.20733,1.20733,0,0,0,62,111.89821a2.86106,2.86106,0,0,1,.83605-1.70426c.28017-.21349.51338-.37736.86863-.23716a1.69332,1.69332,0,0,0,.58488.11486c1.2834.0288,1.77753.09316,1.72853-1.3255a3.88756,3.88756,0,0,1,.2748-1.16085c.07048-.24242.15419-.55272.38853-.6104.73382-.18058.86334-.81028,1.13443-1.356.76468-1.5393,1.67334-2.99737,2.557-4.46923a3.62793,3.62793,0,0,1,.63844-.72909c.15715-.13776.29661-.2955.457-.431.03124-.01439.063-.02807.09467-.04176a5.80161,5.80161,0,0,0,1.194-.81988,21.23468,21.23468,0,0,0,2.12635-1.52164A12.92214,12.92214,0,0,1,76.1,96.67458a2.72723,2.72723,0,0,1,.99545-.6073c.44211-.11573.7365-.55088,1.20614-.64307.19344.48019-.04556.93455-.09524,1.39756-.12033,1.12158-.505,2.18962-.71031,3.29545a1.41885,1.41885,0,0,1-.39762.71206,17.7358,17.7358,0,0,1-1.68176,1.55205c-.87124.93492-2.03588,1.59249-2.58449,2.839-.1687.38332-.66636.54011-.881.95494a1.31944,1.31944,0,0,1-1.02988.80626c-.09114.00961-.21639.01227-.21336.14716a.29324.29324,0,0,0,.19472.2871,4.76784,4.76784,0,0,0,1.49.32009c.27545.01133.59214-.14318.82621.13808-.34256.59333-1.04434.83556-1.39153,1.42656-.11349.19321-.4848.43358.11842.42377a.20153.20153,0,0,1,.20733.17932.32652.32652,0,0,1-.25947.32615c-.53962.15643-.45907.3528-.04872.58224a2.88336,2.88336,0,0,0,3.57294-1.13266,3.81315,3.81315,0,0,1,1.092-1.35742,1.97513,1.97513,0,0,1,1.03722.17863c-.15685.41233-.08159.89308-.4833,1.24014-.29761.25711-.02533.4248.22837.51833a1.96608,1.96608,0,0,0,1.8636-.57584c.2928-.32681.3481-.9169.954-.92051a8.77719,8.77719,0,0,0,1.90163.44192,13.93134,13.93134,0,0,0,2.434.495c.46208.43483,1.12637.5629,1.56594,1.03311.07256.07761.1176.13842.053.25223a3.29448,3.29448,0,0,1-1.60147,1.45125,17.59246,17.59246,0,0,1-3.42528.72728c-.92142.18183-1.8936-.11294-2.76566.35576a4.57419,4.57419,0,0,0-1.775.09188,8.68844,8.68844,0,0,0-1.05447.09874,1.77114,1.77114,0,0,1-.64331.05907,16.71964,16.71964,0,0,0-2.813.15534,8.7027,8.7027,0,0,0-1.99285.17478c-1.00672.24955-2.01874.12521-3.00988.27776-.75926.11685-1.5261.17768-2.28093.219a14.01908,14.01908,0,0,1-2.9745.04778,10.7981,10.7981,0,0,0-1.33662.127,22.25594,22.25594,0,0,0-3.321.12411,23.11253,23.11253,0,0,1-3.21722.1859,38.34677,38.34677,0,0,0-3.84642.18817c-2.61582.20257-5.22685.075-7.83882.09986-1.74292.01658-3.48454-.16339-5.23134-.14112-1.74911.02228-3.50431.08713-5.24565-.03132-.81609-.05552-1.64333-.05346-2.464-.17168-.8776-.12645-3.477-.22669-3.64483-.24078a10.624,10.624,0,0,1-2.11021-.1496,15.257,15.257,0,0,0-1.9-.1569c-.82328-.13318-3.04479-.03522-3.32671-.27127-.33394.29015-.66258.03251-.97536-.03686a22.45994,22.45994,0,0,0-2.6008-.286,8.0915,8.0915,0,0,1-2.03317-.27188c-.41565-.09943-.8277.05233-1.27033-.13743a3.62815,3.62815,0,0,1-1.27614-.611,1.96034,1.96034,0,0,1-.21837-.68887,1.0861,1.0861,0,0,1,.89451-.96212,23.46349,23.46349,0,0,0,2.61906-.89016,5.3931,5.3931,0,0,1,1.50376-.31513c1.28255-.16851,2.527-.526,3.793-.71963,1.87712-.28707,3.68552-.91176,5.57133-1.085a18.57239,18.57239,0,0,1,2.79751-.19576,7.72352,7.72352,0,0,0,2.47871-.30016c.57895.06265,1.11366.13134,1.19621.91.03187.30057.40379.48836.65687.67977.37445.2832.80738.481,1.18931.75888a.85062.85062,0,0,0,.85269.05684c.32166-.1252.46627-.26122.27717-.66567-.28706-.614-.59235-1.222-.848-1.85137,1.66048.07916,3.28423-.34837,4.93826-.35819a.4301.4301,0,0,1,.47252.11148c.15392.123.30087.255.45854.37282a1.28906,1.28906,0,0,0,1.45232.17453c.53131-.29223-.08835-.69875.02767-1.05075.90865-.10992,1.80247.15483,2.71493.0971a7.98761,7.98761,0,0,0,1.4066-.08934,5.11474,5.11474,0,0,1,2.54476.00161c.34242.08985.408.0418.25674-.29255-.07085-.15661-.07177-.37125-.2538-.42678-.421-.12846-.56434-.52056-.82376-.80212-.00095-.07407-.0193-.1713.026-.216a2.74688,2.74688,0,0,0,.74922-1.9955C46.825,103.04954,46.89516,102.99517,46.95166,102.94673Z"/><path class="cls-2" d="M27.13969,24.73149c.496-.74134.9964-1.47985,1.48446-2.2264.09756-.14922.52459-.74051.58784-.82016.38526-.48512.76268-.9766,1.1542-1.45659a40.82465,40.82465,0,0,1,2.82874-2.9848,25.90769,25.90769,0,0,1,3.15-2.59687c.96257-.69965,1.98006-1.31224,2.96936-1.96618,1.13625-.75109,2.30855-1.43816,3.45645-2.16671a20.897,20.897,0,0,1,4.38879-2.1386c.95685-.33,1.89062-.71938,2.87995-.96635,1.57813-.394,3.15444-.76691,4.76729-1.00913a30.712,30.712,0,0,1,5.69957-.41888c.63847.02352,2.62248.10086,2.77911.1547a16.61526,16.61526,0,0,0,3.39007.586,42.93183,42.93183,0,0,1,5.51462,1.32928c.19917.06571,2.71881.90822,3.26055,1.00571.26889.04839,1.72785.90349,2.17248.958.31164.0382.58932.31665.94394.37489a8.67166,8.67166,0,0,1,1.27124.62548c.70742.379,1.45.70336,2.11944,1.14011A36.04723,36.04723,0,0,1,86.4782,15.5393a22.43415,22.43415,0,0,1,2.73368,2.7429.8055.8055,0,0,0,.24633.15974,3.97246,3.97246,0,0,1,.81281.78219c.39372.68964,1.12038,1.10991,1.434,1.88587.1415.35007.56745.58235.82541.92168.34808.45787.61664.95916.9421,1.426.17633.25292.5169.66635.7186,1.01669a46.03734,46.03734,0,0,1,2.632,4.99047c.59907,1.41645,1.14921,2.84442,1.61948,4.30833a40.98917,40.98917,0,0,1,1.16044,4.81111c.25658,1.333.35911,2.69019.49677,4.04258.15,1.47349.0646,2.93727.11105,4.40424a14.31426,14.31426,0,0,1-.27827,2.80069c-.17741,1.06629-.28044,2.14558-.4768,3.20794a35.993,35.993,0,0,1-.98357,4.02049c-.127.41384-.39658,1.39135-.60061,1.85486-.60859,1.38256-1.1427,2.79749-1.80478,4.1603a7.62227,7.62227,0,0,1-.61063,1.19429,4.68374,4.68374,0,0,0-.37221.64266c-.13141.23495-.753,1.09753-.90336,1.38541a25.65057,25.65057,0,0,1-2.55576,3.72464c-.36426.47248-.90838.83218-1.19694,1.29a16.45088,16.45088,0,0,1-1.41131,1.61208.57316.57316,0,0,1-.49753.28594c-.36671.03261-.35654-.2933-.443-.49622a21.29471,21.29471,0,0,0-3.01377-5.3144,23.56991,23.56991,0,0,0-2.94071-3.07634,12.00806,12.00806,0,0,0-2.30234-2.00631c-.2508-.12189-.73181-.64282-.9886-.81957-1.06749-.73475-2.08208-1.54853-3.20781-2.19588A24.82681,24.82681,0,0,0,72.72776,57.789a22.57212,22.57212,0,0,0-5.04134-1.54688c-1.67811-.25464-3.29259-.84223-4.984-.92779-1.05442-.05335-2.04686-.42619-3.10117-.436a11.79758,11.79758,0,0,1-2.22232-.31222c-1.699-.41318-3.41693-.74091-5.122-1.126-.64989-.14678-2.52237-.75147-2.88378-.86952a20.90617,20.90617,0,0,1-4.23935-2.038,1.78918,1.78918,0,0,1-.23073-.18855c-.25425-.2166-.02906-.52574-.1566-.76429-.22739.354-.44173.08551-.69248.01553a6.69369,6.69369,0,0,1-2.307-1.63105,27.19167,27.19167,0,0,1-4.14293-4.08739A47.49684,47.49684,0,0,1,34.67075,39.924a51.22012,51.22012,0,0,1-2.83068-4.61017,59.75459,59.75459,0,0,1-2.86576-5.91039A38.8345,38.8345,0,0,1,27.13969,24.73149Z"/><path class="cls-3" d="M27.13969,24.73149c.48382.34069.46428.94939.70506,1.417.131.25444.203.58454.351.866a1.55912,1.55912,0,0,1,.29443.75607,6.82753,6.82753,0,0,0,.51827,1.44148A12.994,12.994,0,0,1,30.208,31.81983a2.55487,2.55487,0,0,0,.53163.90217c.36352.37141.25272,1.0265.83581,1.25628.18071.07121-.0722.327-.00495.475a5.60066,5.60066,0,0,0,.50941.94485,22.92089,22.92089,0,0,1,1.37283,2.47137c.16808.30506.5312.45683.60337.87008.048.27456.398.48235.51325.73021.16254.34941.46966.58208.63853.95156a3.98286,3.98286,0,0,0,.6796.98692c.35927.38061.50662.92465.95266,1.20772a3.88667,3.88667,0,0,1,1.03674,1.28957c.297.45.87591.64828.99391,1.22646.06056.29668.64883.02945.60607.50049.676.53671,1.20894,1.2215,1.87946,1.773a13.36666,13.36666,0,0,1,1.57823,1.2859,1.52136,1.52136,0,0,0,1.19714.65656c.14085-.00675.21668.06922.26185.2095.08034.24954.1375.12353.14625-.02522.01168-.19865.35032.56432.76729.88508a14.96045,14.96045,0,0,0,1.76133.97428,9.91362,9.91362,0,0,0,2.65506,1.08509c.245.05808,1.32868.29781,1.43467.498.08766.16552.25153.3445.40642.25617.606-.34559,1.08.15415,1.61062.23159,1.27756.18646,2.51571.59723,3.80245.76916.25979.03471.48336.2248.77791.22486.37575.00007,1.47072.27412,1.54738.25587,1.09513-.26072,2.085.347,3.1631.39518a7.34646,7.34646,0,0,1,3.13837.6378c.6374-.10124,1.203.436,1.85807.20843a.37117.37117,0,0,1,.29321.00892c.455.34461,1.0302.30109,1.53263.4938a7.5125,7.5125,0,0,0,1.88394.55925,1.749,1.749,0,0,1,.7447.32231c.24054.16317,2.4354,1.16583,3.35672,1.50749a3.719,3.719,0,0,1,1.31383.84778.96569.96569,0,0,0,.27647.24731,13.79324,13.79324,0,0,1,2.21581,1.53088c.24645.15812.58955.49284,1.06972.82594.43107.299.97025.49073,1.21754,1.06112a1.6913,1.6913,0,0,0,.73424.68985c.45654.253.66829.76349,1.18587.98124.20971.08821.34013.57407.61505.78462a11.21432,11.21432,0,0,1,1.95516,2.25167,10.2524,10.2524,0,0,1,1.14625,1.87689,29.53073,29.53073,0,0,1,1.369,3.11249c.02019.06117.09646.10381.14664.15508.01881.26352-.18337.39377-.33495.554a23.50072,23.50072,0,0,1-2.88966,2.57706,5.84121,5.84121,0,0,1-1.94583.89462c-.69224.19874-1.27517.65124-1.98129.78251-1.04094.19353-1.961.76043-3.02391.911a20.60624,20.60624,0,0,1-2.56786.30667c-.41579.00673-.80869.27765-1.25987.33051a7.11006,7.11006,0,0,1-.952.09054,14.94593,14.94593,0,0,0-2.0509.24575c-.45174.05383-.909.00883-1.366.04969-.99784.08923-2.00142.22545-2.99462.22238a10.58331,10.58331,0,0,1-2.13522-.11436,6.13854,6.13854,0,0,0-2.64186.2333c-.35459.07939-.264.429-.27008.69588a.50169.50169,0,0,1-.59828.3363c-.7736-.06061-1.55074.02719-2.31935-.03557a48.68971,48.68971,0,0,1-9.05114-1.53683,42.00738,42.00738,0,0,1-6.27809-2.1152,39.04292,39.04292,0,0,1-7.26265-4.23487,52.68884,52.68884,0,0,1-5.62652-4.92583,23.77394,23.77394,0,0,1-2.22279-2.80929,39.36961,39.36961,0,0,1-4.22269-7.2942,36.57438,36.57438,0,0,1-1.15623-3.47641c-.52545-1.589-.94384-3.20752-1.43023-4.80648a7.92381,7.92381,0,0,0-.639-2.22226c.04471-.054-.02856-.50784.00225-.58274.20109-.489-.12533-.96624-.01886-1.45186a.86351.86351,0,0,0,.00053-.37239,3.25179,3.25179,0,0,1,.00222-1.08478c.01392-.12319-.00726-.25013.00385-.3739.08373-.93309.151-1.86662.2657-2.79827a16.77241,16.77241,0,0,1,.31152-2.34367,19.70421,19.70421,0,0,1,.60794-2.81748c.0711-.16526.37137-1.68279.52287-2.13291.505-1.50035,1.03481-2.98889,1.65937-4.447.1518-.35439.48038-1.035.61633-1.30081.08375-.16376.58742-1.201.71838-1.435C26.36526,26.05816,26.75547,25.3965,27.13969,24.73149Z"/><path class="cls-4" d="M59.38188,108.36653c-.43844-.27233-.3071-.71893-.2647-1.08326a2.08493,2.08493,0,0,0-.30806-1.4491.94522.94522,0,0,1-.17757-.62882.28423.28423,0,0,0,.15878-.37629c-.25462-.6231-.13832-1.31663-.33673-1.92716-.31361-.965-.48586-1.9694-.84627-2.91523-.17075-.44807-.03039-.95933-.29551-1.36187-.50522-.76707-.59192-1.69849-1.0301-2.49969-.1893-.34613-.46057-.62272-.63119-.97546a16.06685,16.06685,0,0,0-1.93216-2.96185,4.63091,4.63091,0,0,0-1.11828-1.15658c-.24994-.15542-1.0647-1.19169-1.14665-1.22425a1.93711,1.93711,0,0,1-.86292-.77349c-.33627-.53117-.82193-.55424-1.31366-.67163-.34817-.08311-.8295.01314-.76881-.63182.02315-.246-.45252-.16533-.50209-.45811a.25715.25715,0,0,1,.26693-.29,34.72,34.72,0,0,0,5.922-1.18792c1.36764-.2816,2.75416-.46267,4.11208-.79272a3.5032,3.5032,0,0,0,1.46772-.51744.578.578,0,0,1,.34973-.1116,27.99969,27.99969,0,0,0,6.192-1.24743A35.60889,35.60889,0,0,1,73.039,81.779a15.17913,15.17913,0,0,1,2.18774-.16867,3.48591,3.48591,0,0,0,.59936-.00469c.5649-.059.72858.023.6633.56247a18.53914,18.53914,0,0,1-.101,2.74625c-.07768.28705.22444.61112-.02027.92152-.04988.06327.00535.21367-.141.20292-.88024-.06472-1.747.12731-2.63077.1157-.8864-.01164-1.78384.081-2.67142.15825-.33609.02928-.6821.08413-1.02641.1021-1.23514.06447-2.46893.12705-3.69889.2818a12.56677,12.56677,0,0,1-1.87269.01422,2.08747,2.08747,0,0,0-1.0613.27379c-.16466.08937-.292.22265-.059.45879a1.44707,1.44707,0,0,0,1.00725.338,28.22287,28.22287,0,0,0,4.07185.27928c1.27412-.03516,2.55524-.03111,3.81826-.17559.7945-.09089,1.57676-.10418,2.37473-.11614-.02584.26226-.20973.34907-.38341.4451a15.1534,15.1534,0,0,0-2.30337,1.45866,1.34588,1.34588,0,0,1-.32867.17274c-.39456.1678-.37709.18041-.65469.67368a1.50227,1.50227,0,0,1-.40116.52575,9.90554,9.90554,0,0,0-1.9256,2.21382c-.57838.76746-.96681,1.64215-1.51592,2.42744a4.55192,4.55192,0,0,0-.81369,1.95133c-.01014.07373.01027.16353-.02488.2202-.94575,1.52555-.87661,3.371-1.56817,4.97883a2.00915,2.00915,0,0,0-.0569,1.15244,4.65088,4.65088,0,0,1-.17346,1.61811.91684.91684,0,0,1-1.188.62257c-.53177-.14486-.40872-.5434-.35757-.91155.27882-2.00644.221-4.0342.38008-6.04848.034-.42989-.03042-.90615-.556-1.01554-.5414-.11266-.80076.26737-.99156.7156-.41371.97194-.42433,2.04014-.76158,3.03991-.26107.77392-.50025,1.56521-.73775,2.352a22.94569,22.94569,0,0,0-.51,3.3197C59.57023,107.924,59.61061,108.1883,59.38188,108.36653Z"/><path class="cls-5" d="M73.039,81.779c-.63067.146-1.25493.33823-1.89356.42683-.89891.12472-1.7655.378-2.64728.56914-1.48.32084-2.90256.88371-4.38313,1.165a25.88094,25.88094,0,0,0-3.27134.77327c-.10464.03437-2.0508.40292-2.5297.49644-1.33888.26148-2.68558.48583-4.01846.77444-1.85459.40159-3.70129.84049-5.54593,1.286-.21841.05274-.31316-.04262-.45748-.13526-.136-.08732-.21232.04361-.28615.13706-.568-.13558-1.134-.281-1.70524-.40113-.18783-.0395-.94163-.55494-.93411-.80158a3.86051,3.86051,0,0,0-.16121-1.12213,3.99685,3.99685,0,0,1-.02845-1.52841c.05641-.42945-.1553-.88383.03005-1.25533.16937-.33947.17926-.30314-.19664-.43981a16.78969,16.78969,0,0,1-3.82284-1.677c-.82712-.56515-1.73632-.98574-2.53579-1.62549-.775-.62019-1.64809-1.15943-2.46408-1.75484-.03748-.02735-.10938-.01677-.136-.04844a19.289,19.289,0,0,0-2.0733-1.57369c-.03321-.03037-.1249-.02407-.13259-.051-.16931-.59393-.80543-.74776-1.12958-1.20977-.321-.45753-.78045-.81537-1.13157-1.255-.36572-.45788-.71715-.93634-1.08582-1.38489a12.89572,12.89572,0,0,1-1.32412-1.69246c-.4011-.701-.981-1.26381-1.36086-1.99089a6.85648,6.85648,0,0,0-.9476-1.36517c-.299-.33347-.24067-.92934-.48909-1.07158a2.09422,2.09422,0,0,1-.75326-.94941,19.06965,19.06965,0,0,1-1.13977-2.04545c-.257-.60174-.61181-1.1547-.8137-1.78677-.165-.51652-.45848-.98707-.61615-1.519-.38753-1.30751-.82308-2.60071-1.23155-3.90211a27.35918,27.35918,0,0,1-.85-3.23861c-.03-.163-.26175-1.16228-.27181-1.41822-.01567-.39875-.00567-.79847-.01783-1.19743a1.129,1.129,0,0,1,.61512-1.09707.284.284,0,0,1,.36225.174,2.2914,2.2914,0,0,1,.16309.5637,31.68612,31.68612,0,0,0,.83417,3.37147c.15759.79561.55106,1.5427.73174,2.33594.26833,1.178.85525,2.2502,1.0745,3.44388a2.26984,2.26984,0,0,0,.299.7384,16.31452,16.31452,0,0,1,.73653,1.50671,13.47158,13.47158,0,0,0,1.58638,2.8069c.51938.63378.74175,1.403,1.27639,2.02973.67362.78969,1.25242,1.67348,1.94828,2.457.1683.18951.95569,1.209,1.04042,1.279a35.2664,35.2664,0,0,0,2.878,2.66216,12.926,12.926,0,0,1,1.15869,1.0372c.57841.4915,1.24444.84923,1.82014,1.35308a11.78064,11.78064,0,0,0,2.19837,1.52342c.864.46082,1.72995.918,2.58823,1.38926.14568.08,1.283.60612,1.3426.64275.7211.44306,1.63526.45749,2.29761,1.04457.10913.09674.33087.06507.50005.09561.40968.074.69056.49437,1.22473.3335.21194-.06382.59716.23983.92742.32885a32.21206,32.21206,0,0,0,4.304,1.147c1.39167.17538,6.482.93749,7.261.93538a3.3158,3.3158,0,0,1,1.33637.05727.84079.84079,0,0,0,.917-.13624c.353.057.68745.24307,1.068.04633.28968-.14976.57437.07383.85607.13389a15.17157,15.17157,0,0,0,3.08858.29808,1.22273,1.22273,0,0,1,.43581.01859c1.39116.57655,2.841.17247,4.26038.25031A8.78346,8.78346,0,0,0,73.039,81.779Z"/><path class="cls-6" d="M59.38188,108.36653c.03173-.61644.12526-1.23711.14382-1.842.02391-.77992.32553-1.49188.35045-2.25689.01315-.40347.32513-.69885.44289-1.07854a9.3918,9.3918,0,0,1,.60515-2.10491,1.50772,1.50772,0,0,0,.126-.79685,6.10816,6.10816,0,0,1,.52943-1.83275c.12427-.36776.88245-.60108,1.24405-.47713a1.31148,1.31148,0,0,1,.59372,1.1671c-.16407.94969-.11583,1.91325-.213,2.86775a8.23459,8.23459,0,0,0-.06641,1.51792,5.66428,5.66428,0,0,1-.22639,2.12663c-.11271.37265.03487.42262.35008.43264.73583.02335.98025-.16683.94571-.89452a2.50868,2.50868,0,0,1,.29484-1.20607c.80633-1.17021,1.71372-2.26742,2.59813-3.37373a24.12989,24.12989,0,0,1,2.86955-2.88571A6.427,6.427,0,0,1,72.25636,96.426c.47905-.15538.603-.06839.649.4371a2.31229,2.31229,0,0,1-.52505,1.724,3.16056,3.16056,0,0,0-.81731,1.36073l.00409-.01558a.75815.75815,0,0,0-.29974.465c-.65165.483-.83789,1.32927-1.44273,1.84877-.5012,1.43-1.54436,2.57451-2.0982,3.97779a.77677.77677,0,0,0-.07142.35933c.02575.28133-.07888.38361-.37614.40347-.63045.04207-.70325.11236-.82306.718a6.6307,6.6307,0,0,0-.314,1.89046.6075.6075,0,0,1-.64172.66283,3.8958,3.8958,0,0,1-1.97973-.166.4455.4455,0,0,0-.19951-.07506c-.11165.00321-.16979.10667-.20442.19417-.14211.35916-.67134.38113-.69132.87811a2.83462,2.83462,0,0,1-.38806,1.251,1.07694,1.07694,0,0,1-1.069.64367c-.24855-.0192-.50485.0261-.74837-.014a.86724.86724,0,0,1-.70413-.61947c-.44066-.992-.09179-1.96-.11974-2.9343C59.38577,109.06629,59.38621,108.71634,59.38188,108.36653Z"/><path class="cls-7" d="M77.09837,100.82928c.277-1.15814.56534-2.31374.82663-3.47543a11.69107,11.69107,0,0,1,.37654-1.92964,4.19844,4.19844,0,0,1,1.529-.97808A18.15639,18.15639,0,0,1,83.7814,92.681a9.1382,9.1382,0,0,1,3.10488-.60135c.53922.03241.98116.32685,1.505.35944a.32054.32054,0,0,1,.25357.40008,2.55286,2.55286,0,0,1-.69122.89907c-1.27145.77745-2.53512,1.56871-3.80769,2.343-.57234.34824-1.16488.70432-1.73365,1.07486-.55125.35913-1.14551.6619-1.70514,1.0226-.913.58848-1.706,1.32447-2.55976,1.985A2.76916,2.76916,0,0,1,77.09837,100.82928Z"/><path class="cls-7" d="M53.39335,98.54155c-.37875.21707-.36005.61431-.445.9681a4.67908,4.67908,0,0,0,.218,2.16833,3.5784,3.5784,0,0,1,.10173,1.218c-.03574.2984.56243,1.52647-.04132,1.68774l.00383.08823c-.03791-.05423-.06721-.18615-.11558-.23135a38.9462,38.9462,0,0,1-2.52991-3.64266,18.16278,18.16278,0,0,0-1.68355-2.29446,2.822,2.822,0,0,1-.32789-.40134,4.12485,4.12485,0,0,0-1.06594-1.2793c-.38067-.26283-.43468-.70642-.66571-1.04909-.184-.27294.17733-.75952.5369-.81018a2.71506,2.71506,0,0,1,1.56732.38209A26.17966,26.17966,0,0,1,51.26311,96.637c.35676.21843.52565.56478.84166.80209A6.4262,6.4262,0,0,1,53.39335,98.54155Z"/><path class="cls-8" d="M109.93444,19.61885c-.01248.154-.15892.19324-.26159.21878a2.00338,2.00338,0,0,0-1.146.98736,5.71282,5.71282,0,0,0-1.15636,2.335,2.29421,2.29421,0,0,1-.2042.55479c-.07762.17777-.13785.41688-.39224.37319-.18865-.03241-.26447-.2113-.25575-.40508a.74331.74331,0,0,0-.21117-.54492,4.66763,4.66763,0,0,1-.80025-1.42507,3.69326,3.69326,0,0,0-1.86186-1.66093c-.24741-.12625-.67015-.05362-.70725-.44186-.03868-.40478.40029-.36932.62287-.52964a5.54,5.54,0,0,0,1.69113-1.53108,2.4497,2.4497,0,0,0,.24932-.68167,12.74654,12.74654,0,0,0,.57411-2.40961c.00551-.08153.0372-.15351.109-.17131.1373-.034.16523.07808.17613.17594a12.89029,12.89029,0,0,0,.82045,2.57629,3.399,3.399,0,0,0,.92432,1.29074,4.1733,4.1733,0,0,0,1.59716,1.01732A.31343.31343,0,0,1,109.93444,19.61885Z"/><path class="cls-8" d="M92.38023,2.105c.16965.04015.15059.151.18568.23846A7.57167,7.57167,0,0,0,92.888,3.541a6.40171,6.40171,0,0,0,2.14408,2.24755c.68526.43183.6765.66079-.02888,1.06272a4.24623,4.24623,0,0,0-1.68168,1.97961,4.53688,4.53688,0,0,0-.45088,1.30951c-.03615.24879-.09888.43561-.3741.47437-.29378.04137-.439-.114-.57327-.3638-.37224-.69253-.781-1.36531-1.16855-2.04972a1.76207,1.76207,0,0,0-1.35523-1.02869.607.607,0,0,1-.3927-.185c-.08579-.08811-.2013-.17546-.14547-.31432.04038-.10044.16309-.08195.256-.109A3.69174,3.69174,0,0,0,91.28,4.78743a10.464,10.464,0,0,0,.85155-2.2846A.71009.71009,0,0,1,92.38023,2.105Z"/><path class="cls-9" d="M76.50977,108.32192c-.17885.34111-.25895.76061-.706.88874a.17812.17812,0,0,0-.13871.12671,2.28925,2.28925,0,0,1-1.85852,1.73494,2.70845,2.70845,0,0,1-2.11068-.12967.813.813,0,0,1-.44387-.37088c-.17087-.34919.1036-.70969.1323-.851.12277-.60434.6492-.91873,1.02422-1.30645a1.81085,1.81085,0,0,1,.81033-.54038c.2912.03029.3-.28976.49279-.39476a3.18084,3.18084,0,0,1,2.60961-.29241.44227.44227,0,0,1,.33872.49586A1.46442,1.46442,0,0,1,76.50977,108.32192Z"/><path class="cls-6" d="M32.853,107.59431c.364.42731.84944.78742.75543,1.45859-.0236.16852.14433.22644.25954.32094.381.31252.36117.51238-.04518.76922a1.14814,1.14814,0,0,1-1.55318-.06c-.5204-.39482-1.08679-.68357-1.58823-1.145-.77271-.711-.88606-1.13295-1.15264-1.23223-.1126-.41294-.13886-.85463-.57293-1.12378a1.38425,1.38425,0,0,1-.1221-1.12382.88208.88208,0,0,1,.79765-.28576,2.00742,2.00742,0,0,1,1.51084.63586,2.91432,2.91432,0,0,0,.56962.46223A4.46778,4.46778,0,0,1,32.853,107.59431Z"/><path class="cls-10" d="M18.18827,8.83508c.16148.00161.209.09536.24123.23139a8.0936,8.0936,0,0,0,.3926,1.41925,2.26658,2.26658,0,0,0,1.141,1.29489c.51178.22676.51844.29828.08238.60378a3.60638,3.60638,0,0,0-1.66295,2.5118.39362.39362,0,0,1-.392.37752c-.27325.00727-.33805-.18478-.40453-.36206-.17262-.4603-.38467-.90182-.582-1.35029a1.70462,1.70462,0,0,0-1.32438-1.14542c-.0975-.01619-.20813-.02818-.20481-.16252a.24124.24124,0,0,1,.16779-.2235,3.04949,3.04949,0,0,1,.36171-.06891,1.95109,1.95109,0,0,0,1.32024-1.07376A6.5598,6.5598,0,0,0,17.983,9.08468C18.01186,8.95108,18.04213,8.84668,18.18827,8.83508Z"/><path class="cls-7" d="M46.95166,102.94673c-.00473.19722-.02386.39536-.01147.59149.03583.56757.08414,1.13062-.58569,1.40685-.16353.06744-.12151.32231-.30674.38705-.02354-.00823-.05348-.00989-.06971-.02564a11.60082,11.60082,0,0,0-2.71068-1.68529,1.30852,1.30852,0,0,0-.82215-.2383,7.33652,7.33652,0,0,1-1.31659-.1803.44137.44137,0,0,1-.47933-.37826.53912.53912,0,0,1,.42948-.62c.90427-.07181,1.79187-.66558,2.72149-.12166a2.27389,2.27389,0,0,1,1.35944.09483C45.77271,102.39575,46.48335,102.39078,46.95166,102.94673Z"/><path class="cls-9" d="M80.10963,108.76267c-.44706.225-.55116.721-.83065,1.078a1.48652,1.48652,0,0,1-1.16064.62385,1.98685,1.98685,0,0,1-1.25334-.17207.38631.38631,0,0,1-.06817-.65662c.15495-.11861.37443-.16135.50781-.29513.04735-.04747-.18841-.24082-.04932-.41469.10712-.13389.19515-.283.29167-.42543a8.82321,8.82321,0,0,1,1.27224-1.42435,3.84124,3.84124,0,0,1,1.76081-.94558.59478.59478,0,0,1,.66506.18654c.14826.15473.05977.37514-.05129.55273-.33655.53819-.67024,1.07821-1.01246,1.61276A.44906.44906,0,0,0,80.10963,108.76267Z"/><path class="cls-7" d="M40.20229,106.8442c.057.08084.11066.16419.17136.24212.44467.57085.33451.9691-.3769,1.08821a1.4356,1.4356,0,0,1-1.3618-.27261,2.96354,2.96354,0,0,0-.84371-.6658c.00624-.08512.16071-.18643.03934-.24433-.41913-.2-.4302-.68436-.71965-.987-.25531-.267-.04405-.60528.35183-.6783a2.09327,2.09327,0,0,1,2.1804.87759C39.81612,106.4342,40.19355,106.48,40.20229,106.8442Z"/><path class="cls-11" d="M37.94581,111.63206a2.9317,2.9317,0,0,1-2.51925-1.52c-.1536-.2879-.59733-.39863-.49658-.84.04092-.17924.13521-.83258.42428-.9065a1.97054,1.97054,0,0,1,.99993-.10057,2.39634,2.39634,0,0,1,1.45839.79946c.28058.41286.81732.6022,1.04742,1.08927.11207.23723.46122.50337.24007.70806-.27453.25409-.4347.67988-.87769.73736C38.12369,111.61189,38.02474,111.62269,37.94581,111.63206Z"/><path class="cls-12" d="M78.04187,30.43232a3.925,3.925,0,0,1,2.41917.80126,1.106,1.106,0,0,1,.55512,1.25691,4.38113,4.38113,0,0,0-.04981.59127c-.15077.90413-.84621,1.25921-1.576,1.51661a3.77962,3.77962,0,0,1-2.35933.04511,1.83556,1.83556,0,0,1-1.3353-2.19077,2.38131,2.38131,0,0,1,1.39948-1.87292A1.84636,1.84636,0,0,1,78.04187,30.43232Z"/><path class="cls-12" d="M61.57884,24.12877a3.1956,3.1956,0,0,1-1.327-.202,1.67014,1.67014,0,0,1-1.0585-2.39547,3.10687,3.10687,0,0,1,4.188-1.39845A2.24628,2.24628,0,0,1,64.339,22.477a2.17979,2.17979,0,0,1-2.32733,1.6507C61.88741,24.13581,61.7622,24.12877,61.57884,24.12877Z"/><path class="cls-12" d="M85.0547,37.9332a2.27629,2.27629,0,0,1,1.588.5045c.51254.28865.61426.79453.53964,1.46041-.19412,1.73222-1.66441,2.26161-3.04572,2.10361-.09856-.01126-.199-.00556-.29832-.01089a1.76859,1.76859,0,0,1-1.73985-1.41964.68268.68268,0,0,1,.01617-.35891,3.15744,3.15744,0,0,1,1.16373-1.90495A2.90309,2.90309,0,0,1,85.0547,37.9332Z"/><path class="cls-12" d="M82.37152,22.73817c-.18948.63938-.20323,1.51793-1.16627,1.89311a3.68192,3.68192,0,0,1-2.446.00907,2.12972,2.12972,0,0,1-1.31265-1.85726,1.03619,1.03619,0,0,1,.22159-.61207,14.18309,14.18309,0,0,1,1.216-1.402A1.76461,1.76461,0,0,1,80.12,20.37861c.13126.00274.29491.02684.32354.14.1207.4772.46785.43131.84635.47866a1.05621,1.05621,0,0,1,.96266.77857A4.19,4.19,0,0,1,82.37152,22.73817Z"/><path class="cls-12" d="M71.01971,19.189a3.22019,3.22019,0,0,1-2.3464-1.02956,1.1953,1.1953,0,0,1-.16478-1.18356,2.29991,2.29991,0,0,1,1.937-1.88363,8.2438,8.2438,0,0,1,1.65858.12648,1.49927,1.49927,0,0,1,1.25875.89013c.03818.06346.12514.14032.11073.18628a6.52717,6.52717,0,0,1-.62107,2.1038C72.39126,19.03214,71.64406,18.99531,71.01971,19.189Z"/><path class="cls-12" d="M87.90766,27.88263c.2742,0,.54865-.00748.82255.00151a1.78824,1.78824,0,0,1,1.41025.83954c.34176.46015.06174.9385-.01973,1.35231a1.94239,1.94239,0,0,1-1.40112,1.73824,2.97208,2.97208,0,0,1-2.35519-.18619,2.08632,2.08632,0,0,1-.38665-2.939C86.66136,27.88546,86.6546,27.87971,87.90766,27.88263Z"/><path class="cls-12" d="M70.51552,27.42942a1.90834,1.90834,0,0,1-1.95669-1.01674,2.30213,2.30213,0,0,1,.63066-2.55127c.10255-.06949.18872-.18138.32152-.17356.64953.03824,1.2673-.22679,1.92487-.16844.78832.06994,1.13922.63144,1.45065,1.2198A1.21135,1.21135,0,0,1,72.5648,26.35c-.13218.114-.2508.24422-.37215.37035A1.97591,1.97591,0,0,1,70.51552,27.42942Z"/><path class="cls-2" d="M44.68213,62.101a4.067,4.067,0,0,1-2.48315-.82272,1.30431,1.30431,0,0,1-.519-1.1671,2.04532,2.04532,0,0,1,1.62719-2.19134,4.14946,4.14946,0,0,1,2.43058-.01576,1.88986,1.88986,0,0,1,1.3494,1.65986A2.36737,2.36737,0,0,1,44.68213,62.101Z"/><path class="cls-2" d="M37.67952,54.58665a2.23384,2.23384,0,0,1-1.64711-.51117,1.22766,1.22766,0,0,1-.54524-1.33362c.25349-1.90286,1.64969-2.35418,3.12475-2.20524.14842.015.29944.00206.449.00814a1.40239,1.40239,0,0,1,1.15487.69909,1.50344,1.50344,0,0,1,.31955,1.29827A2.92272,2.92272,0,0,1,39.28,54.32017,2.519,2.519,0,0,1,37.67952,54.58665Z"/><path class="cls-2" d="M42.80091,72.15708c-.2354-.00265-.49723.03768-.53265-.13656-.11923-.58653-.56765-.39621-.92734-.47768a1.1461,1.1461,0,0,1-.96319-.99136,3.59042,3.59042,0,0,1,.468-2.23654c.14289-.25306.44177-.31693.68837-.421a3.70559,3.70559,0,0,1,2.38193-.00686,2.03267,2.03267,0,0,1,1.31674,1.98781,4.23628,4.23628,0,0,1-2.19515,2.26832A1.33159,1.33159,0,0,1,42.80091,72.15708Z"/><path class="cls-2" d="M34.76613,64.63777a3.80461,3.80461,0,0,1-1.31389-.107,1.24963,1.24963,0,0,1-.91518-1.265,3.56087,3.56087,0,0,1,.26225-1.442,1.83149,1.83149,0,0,1,1.76513-1.21258,2.65231,2.65231,0,0,1,1.85094.3326,2.14858,2.14858,0,0,1,.48615,2.59069C36.38427,64.3198,35.80638,64.88854,34.76613,64.63777Z"/><path class="cls-2" d="M51.65269,69.00533a2.06066,2.06066,0,0,1-2.00487-1.76688,1.12,1.12,0,0,1,.32445-.88215,6.64378,6.64378,0,0,1,1.2393-1.06767,2.81493,2.81493,0,0,1,2.42989.16992,1.934,1.934,0,0,1,.53564,2.16226,1.66165,1.66165,0,0,1-.96469,1.22553.2937.2937,0,0,1-.14857.00727C52.55915,68.7702,52.0981,69.10612,51.65269,69.00533Z"/><polygon class="cls-2" points="50.467 52.748 50.454 52.708 50.491 52.713 50.467 52.748"/></svg>