<svg width="120px" height="120px" viewBox="0 0 120 120" xmlns="http://www.w3.org/2000/svg"><defs><style>.cls-1{fill:#f37676;}.cls-2{fill:#bae2fe;}.cls-3{fill:#f3ba76;}.cls-4{fill:#d5ecfe;}.cls-5{fill:#f3e576;}.cls-6{fill:#7bc078;}.cls-7{fill:#7694cb;}.cls-8{fill:#d58de3;}.cls-9{fill:#2b3c59;}.cls-10{fill:#fefcfc;}.cls-11{fill:#fcfdfc;}.cls-12{fill:#fefefe;}.cls-13{fill:#fdfefd;}</style></defs><title>hs-huzzah-48</title><g id="Layer_2" data-name="Layer 2"><path class="cls-1" d="M69.88892,22.52839a41.01894,41.01894,0,0,1,4.241.63591c.81961.19033,1.63911.41107,2.46513.58852.12314.02645,1.11851.4568,1.39295.501.85028.137,1.55751.65353,2.38487.784.335.05282,1.325.7307,1.69529.68381.12123-.01536,2.285.97748,3.04318,1.34729a13.791,13.791,0,0,1,2.12681,1.21285c.66514.48629,1.287,1.0365,1.97375,1.48122a18.79019,18.79019,0,0,1,2.50307,2.005A37.97788,37.97788,0,0,1,96.957,37.4234c.61929.86215,1.25377,1.71445,1.912,2.547a9.20583,9.20583,0,0,1,1.32114,1.993,6.52723,6.52723,0,0,0,.85077,1.59457,8.83809,8.83809,0,0,1,.90941,1.51358c.40481,1.20588,1.12653,2.26,1.547,3.46949a17.08616,17.08616,0,0,0,.81809,1.79961,12.45056,12.45056,0,0,1,.70712,2.05219c.53378,1.87706,1.126,3.73779,1.63968,5.62009a11.20727,11.20727,0,0,0,.18067,1.35979,6.72151,6.72151,0,0,1,.40421,1.37324,6.51763,6.51763,0,0,1,.2865,3.1776.36419.36419,0,0,1-.2934.24735c-.56782.15175-1.10711.39434-1.67982.528-.46648.10887-.5941.02387-.7-.45029a3.8551,3.8551,0,0,1-.1554-.8389.41717.41717,0,0,0-.28545-.42756c-.28759-.11174-.34253-.29726-.14785-.54654.0613-.07849.15582-.24041.09924-.2573-.68683-.205-.06329-.91636-.511-1.25023a8.8088,8.8088,0,0,1-1.05155-1.07511.7764.7764,0,0,1-.11828-.26435c-.22938-1.14792-.55193-2.274-.80929-3.41562a13.384,13.384,0,0,0-.65887-2.207.75693.75693,0,0,1-.03578-.44683.54769.54769,0,0,0-.27591-.68005.49667.49667,0,0,1-.23943-.36828,10.68285,10.68285,0,0,0-1.04912-2.5912,20.93179,20.93179,0,0,0-1.6884-3.207,7.67222,7.67222,0,0,1-1.08931-2.04911.52547.52547,0,0,1,.19979-.4438c.45092-.35019.81133-.80247,1.28529-1.12577.10592-.07225.28566-.09987.27559-.2586-.01128-.17761-.19354-.21711-.33088-.26663a3.52507,3.52507,0,0,1-1.97662-1.69524c-.121-.22431-.17935-.46951-.28056-.69912-.06654-.15094-.11778-.3489-.31268-.358-.214-.01-.23022.20645-.29954.35235-.17564.36966-.255.80674-.69387.99337-.10677-.00851-.23655-.05554-.25211-.13961-.06646-.35921-.37015-.51413-.58643-.74719a5.85215,5.85215,0,0,1-.61094-.92174,1.48612,1.48612,0,0,0-.47846-.50985c-.20052-.11977-.39262-.38072-.65738-.04837-.10241.12854-.28855.046-.40214-.07028a.35207.35207,0,0,1-.02447-.46509c.15981-.24319-1.05862-1.73095-1.25168-1.98449A15.51885,15.51885,0,0,0,88.153,34.31138a1.42274,1.42274,0,0,0-.74667-.395c-.11879-.0168-.24649-.04851-.28928-.172-.24129-.69662-.9034-.92078-1.46738-1.12992-.804-.29812-1.53654-.72447-2.30129-1.08658a12.97874,12.97874,0,0,0-2.20583-.95486,22.49078,22.49078,0,0,0-4.07291-1.063,8.20462,8.20462,0,0,1-1.02159-.26535,30.31278,30.31278,0,0,0-7.34927-.56559c-1.54007.07811-3.08194.13093-4.62049.24381a18.84994,18.84994,0,0,0-2.1914.32172c-1.43327.27684-2.89184.4319-4.30964.75956a17.80821,17.80821,0,0,0-3.87741,1.351c-.36727.18116-2.71951,1.36607-3.4367,1.82651-.42947.27572-.97442.38369-1.24326.88541-.04357.08131-.13245.08954-.21241.11653a4.57212,4.57212,0,0,0-1.61959.95272c-.56137.50578-1.249.85043-1.81992,1.34621a10.95484,10.95484,0,0,0-1.80193,1.5125,3.57887,3.57887,0,0,1-1.23762,1.04973c-.07471.03933-.16563.07744-.19417.15375a4.19236,4.19236,0,0,1-1.33366,1.548,21.20245,21.20245,0,0,0-2.53683,2.85174A28.44074,28.44074,0,0,0,36.3125,46.341c-.50746.84661-1.11748,1.62906-1.64338,2.46856a38.26,38.26,0,0,0-2.11472,3.76367c-.9508,1.9824-1.61887,4.07623-2.5408,6.06665a12.142,12.142,0,0,0-.77865,1.65242c-.13964.47886-.22.97427-.40559,1.44123-.05544.13947-.05052.31189-.13931.4288-.6595.86827-.63341,1.97244-1.02332,2.93517-.5647,1.39433-.88491,2.871-1.35705,4.29474-.25814.77842-.19521,1.59809-.491,2.35319-.041.10474-.01565.2353-.12361.31525a15.66762,15.66762,0,0,0-4.19126,1.7283,22.24875,22.24875,0,0,0-3.88473,2.8492.85554.85554,0,0,1-.21712.10309.73637.73637,0,0,1-.05121-.273c.15775-.70355.33509-1.40273.49012-2.10685.04016-.18242.19062-.86943.20927-.96.09733-.47276.48843-2.03965.545-2.36806a9.07921,9.07921,0,0,1,.68245-2.73665c.48885-.91112.34851-1.90257.71607-2.8099.39829-.9832.5599-2.06407.97648-3.03747.4784-1.11785.71235-2.30973,1.198-3.42265.4998-1.14537.81113-2.38053,1.38067-3.486.71209-1.38209,1.23645-2.84692,2.00616-4.20556.51628-.91131.90456-1.90439,1.39407-2.8403a36.70132,36.70132,0,0,1,2.69247-4.81189c1.1203-1.53146,2.09031-3.18912,3.33274-4.61121a53.89311,53.89311,0,0,1,6.39081-6.38732,47.2206,47.2206,0,0,1,5.26661-4.02516,32.30633,32.30633,0,0,1,4.18149-2.34271,50.66772,50.66772,0,0,1,7.09235-2.506,50.27934,50.27934,0,0,1,9.37423-1.34113C65.76194,22.44023,69.17081,22.43872,69.88892,22.52839Z"/><path class="cls-2" d="M37.0014,97.04674a12.42081,12.42081,0,0,1-2.66071.18936c-1.81718.06792-3.63935.08086-5.45706.03012-1.29726-.03622-2.5916-.03124-3.88826-.02614-1.88633.0074-3.7729-.07085-5.65942-.07348-1.43408-.002-6.54186-.23648-7.35127-.03165-.71159.18008-1.5184-.17258-2.19665.32884-.16871-.2175-.03566-.41466.04615-.61139A14.70133,14.70133,0,0,1,12.13631,93.037a26.36781,26.36781,0,0,1,2.38289-2.78171,14.20043,14.20043,0,0,1,4.137-2.51724,24.53755,24.53755,0,0,1,3.77919-1.187,21.28,21.28,0,0,1,2.47781-.40273c.89539-.10641,1.79363-.197,2.68578-.32045,1.09605-.15166,2.20106-.20357,3.29583-.35754.19893-.028.39663-.06154.59518-.08959.21247-.03.44966-.08137.52821.22159-.03182.2561-.25763.32812-.4312.45-.23728.16669-.24116.34176.04419.41848a3.29815,3.29815,0,0,1,2.13832,2.09543c.04647.104.09254.23559.23173.23457.12427-.0009.14538-.12541.16487-.21878a3.79777,3.79777,0,0,1,1.70875-2.20328c.4376-.329.43115-.346-.069-.59431-.2288-.11361-.58456-.144-.50623-.55253a10.51836,10.51836,0,0,1,1.7849-.2221c1.307-.19342,2.62855-.308,3.91345-.62123a19.86182,19.86182,0,0,0,4.59824-1.71984c.79838-.42162,1.57574-.87,2.34518-1.34011.68926-.42109,1.30357-.94153,1.96568-1.39156a10.4743,10.4743,0,0,0,2.50762-2.42248,24.91541,24.91541,0,0,0,3.02968-5.13091c.40183-.93832.71592-1.90739,1.12872-2.83416.29378-.65957.49534-1.34562.7644-2.0102.23967-.04487.31572.14651.41075.29531.19767.30956.35538.64189.52968.96542.29182.833.58476,1.66442.90035,2.48934a9.49807,9.49807,0,0,1,.39056,2.359,12.48828,12.48828,0,0,1,.0989,2.69256,1.51951,1.51951,0,0,1-.092.43787,3.80213,3.80213,0,0,0-.502,2.26914A3.42206,3.42206,0,0,0,59.25059,80.38a3.2977,3.2977,0,0,0,2.18957,1.70214,11.44236,11.44236,0,0,0,8.1474-.52663c.32837-.13023.61367-.34961.95019-.46086.16792-.05552.33222-.18717.52194-.05623.19533.3067.40534.60539.579.92388.07332.13447.60534,1.32608.69565,1.6237.28693.94559.5064,1.9121.7358,2.87437.07487.314.2476,1.83.37,2.11345a15.42745,15.42745,0,0,1,.552,2.20284A7.43337,7.43337,0,0,0,75.469,94.50353a3.33727,3.33727,0,0,0,1.22256.94446,11.557,11.557,0,0,1,1.67935.78392,1.0288,1.0288,0,0,0,.38064.19006.30877.30877,0,0,1,.1999.19117c.02958.14831-.84385.53037-.9678.54134-1.142.101-2.28312.248-3.42715.277a19.70893,19.70893,0,0,1-2.33938-.01914,9.82134,9.82134,0,0,0-2.82991.01609c-.423.08638-.71153.19038-1.0585-.06686.11766-.3584.452-.17536.676-.26821.146-.06054.40817-.01227.40946-.1985.00118-.16917-.25524-.194-.40956-.22365-.628-.12057-1.27146-.03513-1.90338-.12113-1.09789-.14943-2.20648-.04161-3.30626-.13747-.52207-.04551-1.03464.08466-1.556.05768-1.55573-.08048-3.11305.07457-4.66739-.0013-2.177-.10627-4.35376-.005-6.52968-.00614-1.61948-.00086-3.24143-.03592-4.86449.016-1.65387.05288-3.31536.04179-4.97292.051a15.584,15.584,0,0,0-3.34709.16661C37.55052,96.765,37.32845,97.03257,37.0014,97.04674Z"/><path class="cls-3" d="M96.91851,44.56414A23.63023,23.63023,0,0,0,98.795,47.77988c.1079.18142,1.24589,2.64875,1.65027,3.38273a2.0059,2.0059,0,0,1,.129.31329,34.95379,34.95379,0,0,1,1.38849,4.48508,22.32913,22.32913,0,0,0,.84382,3.21962,1.38146,1.38146,0,0,1-.03061.43916.5911.5911,0,0,1-.4852-.05151,6.38072,6.38072,0,0,0-2.49706-.66754c-.34689-.041-.67821-.16241-1.02626-.19707-.40425.08468-.718-.26467-1.11159-.23137a2.15039,2.15039,0,0,1-.377-1.0792,24.52032,24.52032,0,0,0-1.15012-3.68977,24.15324,24.15324,0,0,0-1.83034-3.66807A21.27764,21.27764,0,0,0,92.143,46.909a23.18552,23.18552,0,0,1-1.62265-2.42439,15.11131,15.11131,0,0,0-2.13736-2.58954,21.26,21.26,0,0,0-2.61023-2.64641,43.475,43.475,0,0,0-4.65492-3.07484A14.45393,14.45393,0,0,0,77.34159,34.738c-.89742-.20288-1.80489-.35869-2.6989-.57868a21.23012,21.23012,0,0,0-2.14231-.27342A20.95593,20.95593,0,0,0,68.796,33.752a24.763,24.763,0,0,0-6.16621,1.12453,26.00586,26.00586,0,0,0-2.7298.82859,37.53452,37.53452,0,0,0-3.521,1.69171,19.42454,19.42454,0,0,0-2.79123,1.65873c-1.17007.93086-2.54615,1.55809-3.65094,2.57235a.68186.68186,0,0,1-.3945.20485c-.04749-.00187-.09355-.04668-.1291-.04141-.0692.01026.03267.06093-.00581.09174A6.41894,6.41894,0,0,1,47.40374,43.639a.12825.12825,0,0,1-.09094-.055c-.02723.05855.0293.10963.015.16892a1.09854,1.09854,0,0,1-.40075.56953c-.88692.64169-1.479,1.57617-2.30016,2.289a7.09317,7.09317,0,0,0-.85588,1.1002,56.45182,56.45182,0,0,0-4.74168,7.39258,28.24345,28.24345,0,0,1-1.88293,3.37014,1.05831,1.05831,0,0,0-.15556.258c-.48585,1.37645-1.22852,2.638-1.75912,3.99872-.714,1.8309-1.18184,3.73591-1.82079,5.58814a14.94011,14.94011,0,0,0-.61579,2.64055,2.56127,2.56127,0,0,1-.34118,1.03232c-.56734.14053-1.03943-.21172-1.54763-.33539a11.40769,11.40769,0,0,0-5.21113.404c-.19106-.48051.17535-.88728.19769-1.34919.01016-.21.22035-1.04371.239-1.14488a34.77238,34.77238,0,0,1,.91176-3.39286,15.31608,15.31608,0,0,1,.885-2.34888c.01436-.02961.05861-.05692.05553-.081-.13239-1.03544.82858-1.68616.92562-2.63556.02387-.23356,1.16979-3.18258,1.61034-4.092.558-1.15179.84558-2.42748,1.37939-3.56459A35.04653,35.04653,0,0,1,34.94832,48.1c1.19041-1.68508,2.28808-3.42966,3.58545-5.047.94425-1.17714,2.04747-2.174,3.05691-3.27148.3663-.39827.70048-.81306,1.10277-1.19388,1.36408-1.29127,2.88539-2.377,4.32789-3.56237a11.129,11.129,0,0,1,1.10955-.73144c1.258-.80805,2.586-1.50751,3.89149-2.24093.14534-.08166.99155-.50012,1.24033-.62732a16.20842,16.20842,0,0,1,3.74532-1.377,61.70073,61.70073,0,0,1,7.52325-1.28034,57.44087,57.44087,0,0,1,6.61565-.25649,26.69027,26.69027,0,0,1,5.67549.78862c1.14679.26424,2.27075.59626,3.41028.8703A21.84595,21.84595,0,0,1,84.47512,31.935a6.67773,6.67773,0,0,1,2.51921,1.34226,12.273,12.273,0,0,0,2.4,1.78443c.61436.44647.9622,1.10867,1.60011,1.508.25222.15789,1.076,1.44521,1.56854,1.89406a7.48179,7.48179,0,0,1,1.18543,1.39349c.28829.427.648.80576.97605,1.2059.078.24647-.12616.35632-.25041.49788a7.33277,7.33277,0,0,1-1.60176,1.10613c-.0691.0461-.15145.07182-.22049.11874-.12343.0839-.279.16144-.25784.33751.019.15811.18345.17658.30416.22224a5.89151,5.89151,0,0,1,1.14435.49616,4.69039,4.69039,0,0,1,1.55736,1.979c.05291.10344.07416.22189.12421.32776.05033.10646.10287.2271.24406.21676.11837-.00866.14275-.12564.17664-.21765.09813-.26646.18158-.53889.28351-.803C96.359,45.00576,96.48926,44.64748,96.91851,44.56414Z"/><path class="cls-4" d="M31.96149,85.6769c-.05727-.27952-.26505-.2111-.43782-.17355-1.07047.23262-2.17194.20839-3.24573.386-1.01968.1686-2.0506.24494-3.07217.39692-.99564.14812-1.99294.26041-2.98064.48161a20.9715,20.9715,0,0,0-5.21357,1.90866c-2.743,1.44221-4.42662,3.8718-6.06834,6.35389a8.48178,8.48178,0,0,0-1.15514,2.43334c-.12055-.01936-2.92309-.38132-3.50665-.40445a19.80709,19.80709,0,0,1-3.20276-.155c-.44624-.09023-.92368.23891-1.418.05924-.27129-.09861,2.37549-3.111,3.73881-4.53681a2.25569,2.25569,0,0,1,.26278-.20566l-.00192.0019a1.888,1.888,0,0,1,.245-.48178c1.71518-1.79859,3.21025-3.7848,4.81887-5.67363.414-.48612.77877-1.032,1.20029-1.52236A24.75446,24.75446,0,0,1,15.527,80.64366c1.88733-1.41944,3.6114-3.046,5.63017-4.30288a50.22239,50.22239,0,0,1,5.98968-3.14871c4.26179-1.13139,6.46559,1.029,6.90934.90912a2.01559,2.01559,0,0,0,1.20813-.6645,19.51024,19.51024,0,0,1,1.963-1.83368,55.959,55.959,0,0,1,6.4448-5.14069,19.60262,19.60262,0,0,1,5.68257-2.76347,3.872,3.872,0,0,1,2.85168.27457,22.40812,22.40812,0,0,1,2.31115,1.35307,2.47176,2.47176,0,0,0,1.71981.40966c.57345.36874.73243,1.05112,1.15677,1.53384a.20483.20483,0,0,1-.03835.2734A2.34882,2.34882,0,0,1,57.0174,68.925c-.41011.85025-.62192,1.7713-1.0189,2.61509a27.8634,27.8634,0,0,1-2.89626,5.27105,15.40165,15.40165,0,0,1-2.40482,2.72066,31.72164,31.72164,0,0,1-3.65618,2.52052,23.27294,23.27294,0,0,1-5.25746,2.29942,11.71585,11.71585,0,0,1-2.78324.57481,27.84844,27.84844,0,0,1-3.72287.3468c-.26191.08495-.40729-.0932-.54513-.25736a2.98987,2.98987,0,0,1-.48643-.87126c-.06355-.1663-.086-.40626-.29818-.425-.2377-.021-.25095.23293-.31226.39265a2.8459,2.8459,0,0,1-1.21887,1.418C32.27944,85.61521,32.15048,85.74457,31.96149,85.6769Z"/><path class="cls-5" d="M49.39023,41.77042c.75673-.52134,1.50894-1.0494,2.27149-1.56208.74029-.49771,1.52427-.93667,2.22936-1.479.96057-.73878,2.09006-1.17387,3.08885-1.83.5488-.36055,1.1815-.49836,1.736-.82857a10.29094,10.29094,0,0,1,2.96936-1.12427,39.293,39.293,0,0,1,6.24018-1.27729,31.59321,31.59321,0,0,1,6.70372.35538,27.93233,27.93233,0,0,1,3.63915.84265,19.1764,19.1764,0,0,1,5.231,2.64171,19.15194,19.15194,0,0,1,3.27721,2.442c1.04717,1.07157,2.05874,2.18656,3.0222,3.345,1.20388,1.44751,2.01249,3.16418,3.27961,4.565A16.8989,16.8989,0,0,1,95.70277,52.227a17.336,17.336,0,0,1,1.65868,4.93093c.05834.44337.19418.87655.29441,1.31439a17.44974,17.44974,0,0,0-2.78454.61576.86864.86864,0,0,1-.41688-.59318,15.71375,15.71375,0,0,0-1.06763-2.67882,1.84758,1.84758,0,0,1-.17471-.66955,1.32684,1.32684,0,0,1,.64937-.79242c.20136-.14888.18417-.27534-.03226-.36027a2.5358,2.5358,0,0,1-1.47856-1.5519c-.154-.40639-.353-.10885-.53943-.05212a.46133.46133,0,0,1-.41057-.24485,12.79919,12.79919,0,0,1-1.11046-1.7537,2.965,2.965,0,0,0-1.30571-1.46514,4.247,4.247,0,0,1-.934-.95616,11.9766,11.9766,0,0,0-1.55323-1.85416.49976.49976,0,0,1-.17438-.29807c-.00226-.25411.17839-.38565.358-.50744.22242-.15084.22814-.287-.02281-.3871a2.58571,2.58571,0,0,1-1.4704-1.55589c-.03622-.09186-.07932-.2087-.19415-.20411-.11342.00453-.13452.12961-.18006.2164-.14227.27117-.20132.6228-.61091.64159a9.49944,9.49944,0,0,1-1.66425-1.02931,17.04889,17.04889,0,0,0-4.2295-1.83689,34.49737,34.49737,0,0,0-3.48954-.95946,22.17282,22.17282,0,0,0-6.40032-.35808,22.93106,22.93106,0,0,0-5.71148,1.32641,30.91477,30.91477,0,0,0-6.20507,2.961,28.74577,28.74577,0,0,0-5.52986,4.805A26.29406,26.29406,0,0,0,48.28141,52.115,33.419,33.419,0,0,0,45.14,57.65485c-.8136,2.00117-1.81268,3.92626-2.46806,5.993-.09315.29375-.055.64861-.34007.87013-.76453.66694-1.68147,1.11748-2.45971,1.77476-1.22946,1.03837-2.44681,2.08429-3.60071,3.20863a17.67807,17.67807,0,0,0-2.57135,2.8112.41531.41531,0,0,1-.73959.04791c-.148-.17809-.349-.23254-.50641-.36837a28.98973,28.98973,0,0,1,1.37653-5.45169c.34007-.94752.52538-1.93915.90569-2.87749.42828-1.05672.87083-2.10679,1.30669-3.15866.54378-1.31232,1.267-2.52265,1.90946-3.77482.90334-1.76053,1.92855-3.4607,2.947-5.15951.98942-1.65033,2.21062-3.13967,3.34586-4.68917.44984-.614,1.16335-.95148,1.50182-1.61831.36074-.71071,1.30279-.86595,1.52786-1.68018l-.00052.0005a8.92575,8.92575,0,0,0,2.11672-1.81334Z"/><path class="cls-6" d="M93.283,55.04341c.25929.96477.84916,1.79695,1.13007,2.74309a10.53037,10.53037,0,0,1,.4581,1.30168,28.159,28.159,0,0,0-3.16823,1.3241c-.43873-.173-.46651-.62312-.61027-.97a16.63126,16.63126,0,0,0-1.85726-3.38213c-.37867-.52588-.63813-1.13295-1.01236-1.66972a6.48669,6.48669,0,0,0-1.01775-1.36432c-.59627-.49218-1.10026-1.0837-1.7206-1.538a11.28667,11.28667,0,0,1-.89214-.94681,26.62373,26.62373,0,0,0-3.0426-2.2219,11.84452,11.84452,0,0,0-3.75227-1.36212,19.063,19.063,0,0,0-4.92338-.56768,16.12182,16.12182,0,0,0-2.79816.246,31.88685,31.88685,0,0,0-3.51283.85785c-.69176.20187-1.31479.57027-1.998.7998-1.50165.50447-2.64995,1.61941-4.00563,2.37941-.05842.03275.02032.0124-.0411.02689a3.14231,3.14231,0,0,0-1.25335.86807,23.42,23.42,0,0,0-2.36974,2.37782,13.60241,13.60241,0,0,1-1.43953,1.87308,4.25114,4.25114,0,0,0-.434.73144,14.676,14.676,0,0,0-2.22359,3.82977c-.091.33013-.68742,1.33388-.69848,1.5606-.01451.29736-.09825.47932-.38421.5583-.72495.18113-1.378-.28895-2.11364-.19759a18.979,18.979,0,0,0-5.0876,1.21841c-.737.31028-1.45552.66437-2.18251.99855a28.43486,28.43486,0,0,1,1.95136-5.19973,37.46492,37.46492,0,0,1,2.50455-5.1199,27.089,27.089,0,0,1,3.63286-4.8771,38.033,38.033,0,0,1,4.77789-4.45314A23.65886,23.65886,0,0,1,59.425,42.39028a33.07461,33.07461,0,0,1,5.64224-2.13054,25.892,25.892,0,0,1,5.10619-.66741,18.72538,18.72538,0,0,1,5.32189.60946,31.33313,31.33313,0,0,1,4.88639,1.54875,21.95243,21.95243,0,0,1,3.91114,2.24814c-.04744.35951-.33844.51824-.59217.70023-.18976.13612-.40072.24226-.59689.37014-.25322.16508-.24364.28992.05334.3927a2.79033,2.79033,0,0,1,1.63774,1.53141c.061.12833.075.3465.25223.3308.16141-.01429.17788-.22648.224-.36281a2.8204,2.8204,0,0,1,.6156-.96606.517.517,0,0,1,.4685-.23794,17.99145,17.99145,0,0,1,1.50655,1.8339,9.69635,9.69635,0,0,0,1.93777,1.86029,6.4374,6.4374,0,0,1,.95222,1.57657,5.96337,5.96337,0,0,0,1.0641,1.35506c.17416.26585-.03541.442-.16377.61947a4.32678,4.32678,0,0,1-1.30513,1.075c-.10958.068-.27222.12128-.25575.27521.01734.16207.19711.15205.31587.19989a2.984,2.984,0,0,1,1.56016,1.548c.056.11314.07.29868.22962.28931.15489-.00909.16328-.194.20757-.31222a2.33311,2.33311,0,0,1,.5395-.89128C93.03775,55.09551,93.12128,54.97543,93.283,55.04341Z"/><path class="cls-2" d="M102.90765,59.79243c.3942.42115.805.82843,1.17421,1.27047.142.17008.43909,1.02208.53567,1.1438a2.9112,2.9112,0,0,1,.23612,1.22117c-.03594.36523.213.64739.17573,1.00584-.02475.23764.22156.20619.38.15793.71-.21636,1.41646-.44426,2.12419-.668a7.80386,7.80386,0,0,1,2.74166.04235,4.78833,4.78833,0,0,1,3.09092,2.63584,8.0732,8.0732,0,0,1,.80172,1.76186,26.87766,26.87766,0,0,0,1.23988,3.35123,7.64847,7.64847,0,0,0,2.48609,3.34093c.23256.17835.51.39646.45873.70649-.05009.30265-.4031.25445-.637.29135a31.88966,31.88966,0,0,1-3.7477.04732c.12864-.35232.48549-.2171.72264-.33768.12174-.06189.3535-.03157.32441-.22072-.01958-.12731-.22951-.10254-.35852-.10331-1.10539-.00658-2.20964-.05844-3.31485-.07611-2.38-.03806-4.75405-.29153-7.13793-.20392-2.59187.09527-5.18768-.00674-7.77854.16125a12.97748,12.97748,0,0,0-1.65523-.00092c-.64729.12344-.66027.12387-.43638.688q-6.09687.0537-12.19374.10736c-.2785-.01708-.199-.22825-.17541-.36927a10.72378,10.72378,0,0,1,.659-2.7809,8.59,8.59,0,0,1,2.09552-2.79059A13.52433,13.52433,0,0,1,86.86331,68.599,12.888,12.888,0,0,1,93.126,66.8096a2.00177,2.00177,0,0,0,.93411-.303A11.38676,11.38676,0,0,0,96.92724,63.596a15.6905,15.6905,0,0,1,2.711-2.74816,11.4,11.4,0,0,1,2.88733-1.13444A.44036.44036,0,0,1,102.90765,59.79243Z"/><path class="cls-7" d="M51.71566,62.49864a15.88126,15.88126,0,0,0,.98868-2.27755,11.04688,11.04688,0,0,1,1.15757-2.32419c.99-1.387,2.01474-2.74935,3.00835-4.13389.12982-.18089,1.93165-1.92446,2.52677-2.53681.57068-.58719,1.32174-.64725,1.89891-1.10637a10.27307,10.27307,0,0,1,2.08789-1.45108A25.35152,25.35152,0,0,1,69.718,46.56441a36.43662,36.43662,0,0,1,3.672-.35936,17.33744,17.33744,0,0,1,2.498.23887A22.42392,22.42392,0,0,1,80.11172,47.449a12.1882,12.1882,0,0,1,3.00659,1.77684c1.31861.85092,2.236,2.1361,3.45527,3.06869a12.52041,12.52041,0,0,1,2.52075,3.19783,29.75121,29.75121,0,0,1,2.6087,4.9198,8.70165,8.70165,0,0,0-3.016,2.82467,4.4196,4.4196,0,0,1-.83177-1.56212,10.05377,10.05377,0,0,0-1.1657-2.33294,9.96547,9.96547,0,0,0-1.5115-2.18215,35.57249,35.57249,0,0,0-3.01443-3.03552c-.24991-.18052-.4808-.4425-.85292-.25407-.154.078-.25316-.04308-.32434-.16118a1.161,1.161,0,0,0-.772-.5252,16.75917,16.75917,0,0,0-2.66814-.71691c-.03343-.00182-.07853.00079-.09719-.01975-.37512-.41268-.85-.18182-1.28166-.19183a16.81048,16.81048,0,0,0-6.358.75349,12.46233,12.46233,0,0,0-5.4042,3.5288c-.82035.97334-1.64835,1.93191-2.39849,2.96262a11.55784,11.55784,0,0,0-1.34188,2.62722c-.58367,1.48123-1.212,2.94561-1.6951,4.46545-.16757.52725-.30451,1.06393-.49095,1.585-.0773.216-.09509.46658-.319.60684-.34394-.36459-.41047-.90871-.80405-1.24118-.32461-.50472-.64336-1.01338-.979-1.51067-.06478-.096-.15437-.16776-.13936-.29658.17812-.00445.28285-.09323.14443-.24209a9.54571,9.54571,0,0,0-2.12591-1.73478c-.38292-.22592-.61915-.5921-1.0444-.79529A7.50676,7.50676,0,0,0,51.71566,62.49864Z"/><path class="cls-8" d="M58.15976,68.78458c.35348-1.12721.653-2.275,1.07329-3.37674a48.15755,48.15755,0,0,1,1.93583-4.70936,15.65969,15.65969,0,0,1,2.97228-4.03525c.5315-.52859,1.04823-1.0724,1.57945-1.60255a12.04941,12.04941,0,0,1,3.15633-1.805,12.512,12.512,0,0,1,4.96485-1.13012c.83011-.07221,1.69555.119,2.50152-.03555a2.39658,2.39658,0,0,1,1.1645.1982,21.68979,21.68979,0,0,1,3.352,1.03939c.143.05654.64183.23944.7331.29055a9.49352,9.49352,0,0,1,2.6568,2.36748,16.09315,16.09315,0,0,1,1.672,1.87465,16.41653,16.41653,0,0,1,2.14143,4.10749,6.72961,6.72961,0,0,0,.62394,1.26906,8.73615,8.73615,0,0,1-.86115,1.26581c-.401.41871-.971.14327-1.43211.0849a7.25344,7.25344,0,0,0-1.3758-.00634c-.89724.05573-1.077-.07746-1.27735-.96511a10.12206,10.12206,0,0,0-2.0796-4.00865,7.7043,7.7043,0,0,0-2.90383-2.42991,6.21906,6.21906,0,0,0-3.63864-.41067c-.43772.07568-.85443.22223-1.27958.29114a5.63161,5.63161,0,0,0-3.28232,2.0113,23.43225,23.43225,0,0,0-3.62529,5.59593,17.31834,17.31834,0,0,0-.84951,2.44971A26.62,26.62,0,0,0,65.01881,71.019c-.0319.21936-.43286,2.39718-.51293,3.2069a18.8109,18.8109,0,0,0-.30743,2.2924c-.046.261-.25474.16815-.39969.16657a7.77185,7.77185,0,0,0-3.86024.745.38506.38506,0,0,1-.4724-.00657c-.19282-.18659-.10287-.40066-.011-.6045a21.0983,21.0983,0,0,0-.20659-4.35248C59.121,71.143,58.30115,70.07294,58.15976,68.78458Z"/><path class="cls-4" d="M102.90765,59.79243c-.42337-.041-.7647.22106-1.15187.31886a7.10849,7.10849,0,0,0-3.6516,2.35719c-.77772.88349-1.4519,1.857-2.30323,2.68111-.33939.32852-.594.72141-.98421,1.03545a4.26336,4.26336,0,0,1-2.54043.84082,11.97449,11.97449,0,0,0-5.77992,1.97038,9.59066,9.59066,0,0,0-3.72284,4.01919,7.12924,7.12924,0,0,0-.63387,3.09942c-1.17071-.01708-2.34647.02417-3.51-.076a3.778,3.778,0,0,1-1.755-.25159c-.12211-.07361-.34092-.0348-.35639-.22581-.01534-.18939.14318-.27954.3048-.35338a2.66247,2.66247,0,0,0,1.33807-1.21729c.30283-.5593.367-1.177.68581-1.72183a27.42367,27.42367,0,0,1,1.72895-3.26184c.42558-.54992.76768-1.191,1.26022-1.71571a6.31645,6.31645,0,0,1,5.12782-1.30308,4.3018,4.3018,0,0,0,1.93818.11864c.46182-.03853.66553-.24767.78662-.81993a5.95891,5.95891,0,0,1,1.13008-1.92065,9.86855,9.86855,0,0,1,5.47584-3.78573c.79345-.24,1.63112-.33221,2.44526-.50744.13053-.0281.33525-.01472.35335-.2.00444-.04551-.21132-.11249-.32582-.16957a7.67968,7.67968,0,0,1,4.00858.91607Z"/><path class="cls-4" d="M59.45512,76.81883c-.03882.57826.07376.66482.64882.3677a6.95841,6.95841,0,0,1,3.91908-.61685.51349.51349,0,0,0,.17544-.05138,10.67832,10.67832,0,0,1,2.9936,1.08024,9.91916,9.91916,0,0,1,3.01676,2.38323c.25684.35887.66849.61886.85082,1.0567a14.78346,14.78346,0,0,1-6.50652,1.72542,9.39875,9.39875,0,0,1-4.104-.94065c-1.40789-.635-1.66793-1.90764-1.50547-3.50507A2.2327,2.2327,0,0,1,59.45512,76.81883Z"/><path class="cls-9" d="M37.0014,97.04674a2.00538,2.00538,0,0,1,.95572-.54243,21.86541,21.86541,0,0,1,3.10508-.13154c1.86707-.07863,3.74658.07517,5.608-.05383,1.42706-.09891,2.84165.07861,4.26851-.03963,1.32493-.10979,2.66969.03321,4.00584.04012a27.76237,27.76237,0,0,1,2.91018-.02244c1.16947.13059,2.32379-.13533,3.493.02922a18.6051,18.6051,0,0,0,2.107-.0612c1.79729.04167,3.59412.11257,5.39.19589a3.02076,3.02076,0,0,1,.83947.23944c.07753.02781.12519.13884.18655.2117-.08641.07107-.16337.184-.26086.206-.42376.09563-.8535.16477-1.28112.24357q-2.88087.04884-5.76162.09778c-1.68331.029-3.36956.13375-5.04908.0674-1.64707-.06508-3.29026.02383-4.93478-.02393-2.35965-.06854-4.72065-.00344-7.08178-.09815-.78043-.03131-1.57982.04689-2.371.01059-1.4878-.06827-2.97887.00825-4.46637-.14166C38.10526,97.2173,37.52234,97.38081,37.0014,97.04674Z"/><path class="cls-9" d="M94.33344,76.00754c-.11169-.20522-.57542-.13029-.45886-.46962.09544-.27784.38654-.33906.70617-.34172,1.73838-.01442,3.47642-.06611,5.21475-.09454,2.16588-.03542,4.33258-.10673,6.4977-.07623,1.8463.026,3.692.25988,5.53577.23536,1.0684-.01421,2.13108.0657,3.19653.043.19022-.004.41415.03742.4577.21223.05684.2282-.22563.21581-.35137.26157-.37727.1373-.77456.21962-1.164.32338-2.08575.13435-4.172.01388-6.25785.00431-1.68806-.00775-3.37625-.092-5.06382-.07735-2.06423.01787-4.12763.12327-6.19191.14884C95.74811,76.18557,95.04041,76.06761,94.33344,76.00754Z"/><path class="cls-10" d="M96.91851,44.56414c-.56534.40743-.61174,1.08622-.86214,1.65742-.05935.13539.05283.36769-.21642.3746-.23884.00614-.34192-.14688-.4275-.352-.14676-.35179-.31075-.69807-.49176-1.03359a3.45763,3.45763,0,0,0-2.164-1.72319c-.22848-.067-.60639-.051-.60506-.341.0012-.26247.31371-.40641.56623-.5509a5.18552,5.18552,0,0,0,2.00663-1.53237,2.76272,2.76272,0,0,0,.59634-1.1344c.04348-.17848.10342-.357.33791-.37233.23545-.01542.32218.14379.3808.32643a3.834,3.834,0,0,0,1.864,2.36617c.26092.13808.548.17819.80954.34526.39135.25.19515.31875-.04291.446A5.86582,5.86582,0,0,0,96.91851,44.56414Z"/><path class="cls-11" d="M31.96149,85.6769A2.96655,2.96655,0,0,0,33.59783,83.76a.327.327,0,0,1,.319-.27739c.21393.0049.30049.172.3663.35686a2.11344,2.11344,0,0,0,.9946,1.43391c.21378.37142.65236.36775.96687.57382.26269.17214.28586.27276.00229.4558a3.6004,3.6004,0,0,0-1.98839,2.55284c-.01271.10527-.06449.20411-.18378.20317-.21988-.00172-.31261-.16752-.38819-.3411a3.43386,3.43386,0,0,0-1.323-1.77325c-.22779-.13169-.485-.21179-.725-.32336-.17026-.07913-.46227-.04538-.45449-.30819.00676-.22833.21945-.35121.43333-.43576A2.52418,2.52418,0,0,0,31.96149,85.6769Z"/><path class="cls-11" d="M46.17192,95.21862c-.20024-.04509-.24762-.24214-.31247-.40574a3.12054,3.12054,0,0,0-2.27651-2.106c-.338-.0757-.356-.28956-.07772-.47679.318-.21391.67275-.37354.989-.58974a2.89989,2.89989,0,0,0,1.28562-1.6095c.04784-.17367.09859-.3849.32359-.40014.23693-.01605.29931.20682.35061.37022a2.91124,2.91124,0,0,0,1.9526,1.99375.39114.39114,0,0,1,.23.22778c.032.13513-.12689.17043-.22258.23219a3.73915,3.73915,0,0,0-1.96373,2.52417C46.41908,95.17172,46.32388,95.23333,46.17192,95.21862Z"/><path class="cls-12" d="M15.03013,97.25869l-.04066-.02446.04409.02105Z"/><path class="cls-5" d="M49.3912,41.76945l-.03908-.02164.03812.0226Z"/><path class="cls-5" d="M47.275,43.58229,47.23435,43.56l.04014.02284Z"/><path class="cls-13" d="M46.03952,75.558a2.44127,2.44127,0,0,1-.26687.19087,9.02722,9.02722,0,0,0-2.6602,2.37471,4.50109,4.50109,0,0,0-.57124,1.58175c-.05154.15882.06182.38762-.22207.42792a.45985.45985,0,0,1-.54909-.32361A8.57511,8.57511,0,0,0,40.7691,77.92a4.06335,4.06335,0,0,0-2.42593-1.60377c-.26747-.06683-.61942-.14083-.5939-.42806.0224-.25214.29735-.44776.58018-.59809,1.44752-.76939,2.878-1.57116,3.27588-3.37382.03258-.14764.102-.378.34446-.36892a.49916.49916,0,0,1,.47824.293,7.23634,7.23634,0,0,0,1.32878,2.25125,11.61192,11.61192,0,0,0,2.05035,1.20308C45.90722,75.358,46.02014,75.38679,46.03952,75.558Z"/><path class="cls-12" d="M5.66031,92.22292l.0393.02127L5.66223,92.221Z"/><path class="cls-11" d="M93.283,55.04341a2.31546,2.31546,0,0,0-.86242,1.35645c-.03931.1167.00712.29119-.20161.28107-.167-.00808-.215-.14446-.261-.26844a2.68916,2.68916,0,0,0-1.93657-1.84978c-.08338-.02021-.216-.11724-.21157-.16875.01535-.17791.16562-.26463.31686-.34606a3.49412,3.49412,0,0,0,1.6327-1.4265,1.05193,1.05193,0,0,0,.05648-.23878c.13577-.12405.08373-.4449.3677-.39984.21106.03349.2401.26513.299.42878a2.24434,2.24434,0,0,0,1.44855,1.47186c.13381.04477.3119.14278.34717.25473.0592.18784-.18406.18632-.28822.27751C93.75289,54.62325,93.51849,54.834,93.283,55.04341Z"/><path class="cls-11" d="M86.35517,45.75715A2.71616,2.71616,0,0,0,85.267,47.3297c-.03439.11727.01258.29311-.19634.28808-.1682-.00405-.2189-.13932-.26471-.26448a2.68456,2.68456,0,0,0-1.94137-1.85491c-.08264-.02009-.14746-.11336-.22056-.17262a1.4052,1.4052,0,0,1,.2904-.31906,3.94666,3.94666,0,0,0,1.35829-1.008c.143-.24163.29785-.47722.424-.72728.073-.14471.07027-.36136.28535-.35729.205.00387.24415.21332.29614.36288a2.306,2.306,0,0,0,1.505,1.55537.52717.52717,0,0,1,.32375.27169c.04008.14678-.17509.16022-.27388.23915C86.68445,45.47789,86.52085,45.61883,86.35517,45.75715Z"/><path class="cls-12" d="M79.03942,72.63943c-.02834.014-.054.03709-.07857.03593-.024-.00113-.04678-.027-.07009-.042.02493-.01286.05012-.03618.07472-.03559C78.98947,72.59836,79.01288,72.62339,79.03942,72.63943Z"/></g></svg>