<svg width="120px" height="120px" viewBox="0 0 120 120" id="Layer_1" data-name="Layer 1" xmlns="http://www.w3.org/2000/svg"><defs><style>.cls-1{fill:#7aa2f7;}.cls-2{fill:#fec455;}.cls-3{fill:#fee6b6;}.cls-4{fill:#2c3d57;}.cls-5{fill:#2d3e5b;}.cls-6{fill:#dfe7fe;}.cls-7{fill:#2e3e57;}.cls-8{fill:#dfe6fe;}.cls-9{fill:#fefefe;}</style></defs><title>hs-huzzah-34</title><path class="cls-1" d="M29.70653,1.32607c.12375.13885.34232.204.32229.45353-.01279.15924.07442.15935.20368.10978.08225-.03154.11353.05171.12487.12889a18.30959,18.30959,0,0,0,.629,1.75377c.16734.66625.50811,1.27286.72905,1.926a6.44537,6.44537,0,0,0,.5266,1.31433c.2467.4083.2789.94068.49093,1.37692.29818.61349.31439,1.29611.607,1.92417a13.18143,13.18143,0,0,1,.819,2.70134.40051.40051,0,0,1-.01809.31737c-.05448.08692-.07433.18978.05307.20559.2078.02578.16281.17822.21368.308.22482.5736.25068,1.20359.5232,1.76423.08279.17033.27327.384-.00311.57-.04338.0292-.05391.05712-.02026.07133.478.20182.40647.72171.55817,1.081a13.98423,13.98423,0,0,1,.717,2.4021,15.77,15.77,0,0,0,.68744,2.09719c.08459.22525-.03869.467-.0257.67724.0079.12788.374.23409.384.49286.02211.5719.42573,1.04687.39225,1.64507a1.9525,1.9525,0,0,0,.2038.53313.51818.51818,0,0,1,.04372.41384c-.02689.06468-.07856.128-.02619.19842a8.02291,8.02291,0,0,1,.82521,2.31132c.28459.80209.48428,1.62906.7773,2.42669a5.04048,5.04048,0,0,0,.35979,1.06221c.06269.09772.00482.165-.05472.2388a.23577.23577,0,0,0-.038.13052c.49714.2435.3566.79578.5285,1.18548a14.07519,14.07519,0,0,1,.43286,1.49925c.03931.12708-.20427.295.08363.40168.20106.07449.00253.35558.17059.48029a.24223.24223,0,0,1,.03606.04076c.233.27583-.06016.67379.12207.87866a1.20784,1.20784,0,0,1,.27918.88525c-.02072.04987-.008.06571.04309.04233.07.004.19211.00587.17276.07709-.09866.36305.20261.61826.2304.93979a1.25666,1.25666,0,0,0,.29692.86991c-.04647.6593.5184,1.21319.32658,1.896a.08777.08777,0,0,0,.05866.12066c.4609.212.42012.69714.49568,1.063a13.17671,13.17671,0,0,0,.4583,1.57753c.07939.23372.08123.49359.15875.7282a8.69329,8.69329,0,0,0,.40821,1.16212A7.91746,7.91746,0,0,1,44.26436,46.85c.35846,1.07524.71628,2.1514.99193,3.2535.08957.35811.23493.72528.30495,1.07052a8.36611,8.36611,0,0,0,.35345,1.0432c.23526.69838.32714,1.44559.58118,2.14678a.34431.34431,0,0,1,.00229.26626c-.2244.3189-.045.49183.21093.63647.21111.11932.16757.35562.209.52329a3.36075,3.36075,0,0,0,.33153.95408c.16039.27071.06338.61031.12409.914-.22213.06584-.326-.08846-.44446-.23-.33907-.40516-.58416-.87839-.91823-1.28461-1.1212-1.36333-2.071-2.85424-3.09637-4.28448a49.61826,49.61826,0,0,1-2.78179-4.21953c-.39187-.68437-.86243-1.33123-1.32118-1.97767a7.52587,7.52587,0,0,0-.59946-1.0241c-.30254-.349-.25435-.84614-.511-1.21807-.03744-.05426-.00614-.18111.03191-.25431.02975-.05724.09777-.02446.03626-.15945a4.3678,4.3678,0,0,1-.53091-1.72875l-.007.00568c.18112-.00261.27615-.09482.23989-.27355-.03589-.17684-.144-.15445-.28769-.09669-.1479.05948-.32556.06923-.2041-.18653.10741-.22615-.16375-.26255-.19946-.44961-.24644-1.291-.75144-2.517-1.0043-3.80756-.13081-.66764-.49361-1.2489-.63936-1.91049s-.33-1.3156-.5241-1.96494a5.69765,5.69765,0,0,0-.28206-.86651,1.08942,1.08942,0,0,1-.14647-.6214.70371.70371,0,0,0-.20446-.68869c-.13973-.12515.02663-.41737-.20384-.54221.17555-.52553-.48476-.88791-.27677-1.42338.04322-.11128-.067-.14318-.14215-.19075a.21415.21415,0,0,1-.09511-.31556.46756.46756,0,0,0-.12338-.53854c-.28729-.32272-.21611-.7782-.36528-1.16013-.12205-.31246-.35513-.62575-.17638-.999-.3915-.27784-.2599-.75949-.43-1.12872a2.12142,2.12142,0,0,1-.27359-1.08668.23694.23694,0,0,0-.03669-.15463c-.36818-.47473-.32107-1.08207-.52238-1.607a1.71123,1.71123,0,0,1-.20975-.91964c-.362-.25354-.15195-.70062-.35754-1.03753a4.88242,4.88242,0,0,1-.381-1.1533c-.25771-.87282-.421-1.77417-.69276-2.642a8.58867,8.58867,0,0,0-.49314-1.57091c-.136-.25336.03377-.57892-.15072-.8342a.842.842,0,0,0,.10271-.10886q-.04648.05877-.09595.11505a1.72075,1.72075,0,0,1-.34218-.9908c.00855-.39468-.31022-.718-.32456-1.12058a6.53743,6.53743,0,0,0-.33152-1.18927c-.063-.28066.00845-.58428-.18392-.84749-.09876-.13512.04493-.20547.167-.2675.08674-.04407.22879-.14048.17456-.22894a.27011.27011,0,0,0-.32244-.13244c-.14725.06866-.24736.08169-.24791-.12007a14.37324,14.37324,0,0,0-.48032-2.5775c-.14438-.77773-.36126-1.54-.46615-2.3291-.03379-.25415-.20348-.49839-.1424-.77793.043-.19687.16359-.22368.328-.07764.06542.0581.10183.17061.20391.15642a.52519.52519,0,0,0,.24007-.10913c.10637-.0841-.002-.1715-.04023-.22781-.12243-.18027-.08758-.37588.10352-.36554.39538.02139.62033-.30029.96252-.38428A7.4141,7.4141,0,0,1,29.483,1.42351c.04076-.00373.07637-.0636.11437-.09744Z"/><path class="cls-2" d="M55.43886,73.90132c-.19068.25536-.37938.51223-.57306.76528-.07283.09517-.40388.29549-.46554.39357a20.44406,20.44406,0,0,1-1.57845,1.96c-.18571.22776-.15742.5019-.31409.71424A6.27151,6.27151,0,0,1,49.842,79.35006a12.25511,12.25511,0,0,1-2.72324.50558c-.47019.0617-.556.17611-.34475.60385,1.10028,2.22757,2.04552,4.555,3.7415,6.4262a13.04413,13.04413,0,0,0,5.19069,3.7705A13.32467,13.32467,0,0,0,59.115,91.328a29.01036,29.01036,0,0,0,3.47989.1271c.97316-.03672,1.94784-.1346,2.9193-.0944a22.615,22.615,0,0,1,7.14224.93034c.66089.24671,1.34933.42772,2.00945.6846.18179.07075.39265.10145.5072.29287a13.18482,13.18482,0,0,1-.54676,2.22576c-.1647.72279-.33966,1.44153-.56953,2.136a.18776.18776,0,0,1-.05785-.04009c-.06917-.078-.11777-.20972-.24945-.15508-.08742.03627-.09984.1509-.09138.2385.00974.10089.01714.19931.16278.24027.19149.05387.205.1517.09109.2692-.10553.10881-.23919.08045-.35887.08546-.1663.007-.3274-.018-.406.18277-.06111.15615-.108.10664-.11711-.02184-.00955-.13417-.05747-.136-.16586-.08283-.12588.06178-.126.04016-.36365-.06818a.59691.59691,0,0,0-.32269-.0275,9.12188,9.12188,0,0,1-1.887-.12328,4.50766,4.50766,0,0,1-1.33065-.38335A2.38338,2.38338,0,0,0,68.055,97.523c-.45921.01145-.839-.31856-1.30992-.26607a2.09606,2.09606,0,0,0-1.67473.92516.25906.25906,0,0,0,.04907.40516,5.0815,5.0815,0,0,0,1.72345.97279,10.23428,10.23428,0,0,1,1.10164.39213,1.55972,1.55972,0,0,0,.82977.11615,5.62916,5.62916,0,0,1,.9169.11763,8.31713,8.31713,0,0,0,1.00709.031,14.259,14.259,0,0,0,2.16556-.20426,1.1459,1.1459,0,0,1,.272-.004c.1545.00187.22682.02967.1631.22559a18.131,18.131,0,0,0-.62716,1.99713c-.04435.21944-.1951.30255-.43874.29384-.59928-.02143-1.20046-.02286-1.7996.00039-.2582.01-.46311-.175-.75044-.10078a1.714,1.714,0,0,1-.861-.04208c-.26063-.07467-.529-.07719-.78986-.15544a4.94131,4.94131,0,0,0-.83178-.19882,12.8177,12.8177,0,0,1-1.60675-.42558,14.45444,14.45444,0,0,1-1.34688-.53716c-.3571-.12941-.67749-.39012-1.09547-.30545a.13083.13083,0,0,1-.098-.03416c-.77378-.72944-1.84363-.89788-2.71528-1.43829a4.79905,4.79905,0,0,0-.96935-.44734,1.67319,1.67319,0,0,0-1.77873.54446.43733.43733,0,0,0-.05715.53771,1.74357,1.74357,0,0,0,.62956.73587c.46334.2691.86889.61662,1.32589.89552.56519.34493,1.16477.61179,1.75249.89838a13.69884,13.69884,0,0,0,2.71164,1.074,5.28131,5.28131,0,0,0,1.87285.414.42837.42837,0,0,1,.29251.12759.89834.89834,0,0,0,.50173.18317,19.04486,19.04486,0,0,1,2.19006.24577,26.18576,26.18576,0,0,0,2.7102.09427c.207.00376.33809-.0174.218.29421-.32816.8512-.58315,1.73037-.89934,2.58656a2.8691,2.8691,0,0,1-.98178,1.60569,9.05457,9.05457,0,0,0-3.18358.00266,27.86864,27.86864,0,0,0-2.81549.22242c-.16334.04046-.31047-.08641-.4628-.14011-.35426-.12487-.3457.42547-.66178.34895-.26637-.06449-.07262-.49928-.44837-.52323a26.45741,26.45741,0,0,1-4.44458-1.01955,19.17681,19.17681,0,0,1-6.247-3.07448,14.36238,14.36238,0,0,1-3.52674-3.2057c-.81777-1.08851-1.6829-2.1423-2.42864-3.284-.17557-.26879-.36307-.50437-.73118-.46056-.29225-.46318-.37737-1.017-.67612-1.48421a12.6841,12.6841,0,0,1-.50179-1.44186,15.53057,15.53057,0,0,1-.868-2.88566c-.25648-.998-.45095-2.01309-.609-3.0365-.08893-.57578-.0607-1.16183-.203-1.72991a.62331.62331,0,0,1,.02594-.42763.99693.99693,0,0,0,.07484-.47865c-.03142-1.26306.11947-2.51623.19225-3.77357.01982-.34244.13882-.66716.155-1.01423a1.36494,1.36494,0,0,0,.01419-.51159.58744.58744,0,0,1,.219-.58438.54426.54426,0,0,0,.1645-.492,4.79465,4.79465,0,0,1,.47875-2.35991c.13-.26843.16782-.46845-.01028-.66759a4.574,4.574,0,0,1-.75507-1.68817,3.552,3.552,0,0,1-.12439-1.658c.197-.19138.39774-.09.60528-.01646a16.80048,16.80048,0,0,0,1.86908.5612,13.79816,13.79816,0,0,0,6.45641-.2138,4.23729,4.23729,0,0,0,2.53954-1.66942c.28942-.41261.6197-.4256.92965-.04463a3.05915,3.05915,0,0,1,.585.91248C55.54405,73.46163,55.64112,73.6895,55.43886,73.90132Z"/><path class="cls-3" d="M75.17307,93.26853a4.84978,4.84978,0,0,1-1.22782-.39835,21.03983,21.03983,0,0,0-2.97747-.90526,16.37743,16.37743,0,0,0-1.91494-.28408c-.76875-.05689-1.5383-.02542-2.30127-.1007a9.73282,9.73282,0,0,0-1.1289-.0874c-.22287.00393-.45593-.03794-.63727.14637-.17149-.24931-.43586-.16172-.6475-.13549a24.62281,24.62281,0,0,1-3.47039.09065c-.67963-.01185-1.35789-.1015-2.03681-.15555a13.52733,13.52733,0,0,1-2.9884-.58449,9.21406,9.21406,0,0,1-3.23713-1.82682c-.40721-.3485-.85756-.653-1.22962-1.03466a13.08012,13.08012,0,0,1-1.623-1.82946c-.22892-.344-.48838-.686-.74039-1.02265-.24352-.32531-.38609-.72417-.59862-1.0752-.65719-1.08546-1.0997-2.2801-1.72955-3.37916a2.00692,2.00692,0,0,1-.13029-.34921c-.17662-.51324-.12916-.59891.43394-.63018a11.90628,11.90628,0,0,0,1.84422-.23715,8.55091,8.55091,0,0,0,1.57214-.49647,8.70284,8.70284,0,0,0,1.94574-1.209c.0374-.02938.1046-.02078.15794-.02984a.45667.45667,0,0,1,.00463.10864c-.02328.11925-.0522.23741-.079.356a3.34631,3.34631,0,0,0,.50127.0714,3.487,3.487,0,0,0,2.192-1.02093,7.94827,7.94827,0,0,0,1.06917-1.02639c.08274-.09772.954-1.09874,1.16227-1.4126a6.61538,6.61538,0,0,0,.965-1.903c.0792-.29049.23388-.294.4625-.08187.47276.43861.95467.86761,1.41984,1.31409a6.44493,6.44493,0,0,0,1.84929,1.06674c.26633.12414.424.3886.69929.44825a.98.98,0,0,1,.69229.46845.19679.19679,0,0,0,.18641.086,6.18558,6.18558,0,0,1,1.78188.58879,4.99753,4.99753,0,0,1,.74307.18812,1.40542,1.40542,0,0,0,.7731.214.66274.66274,0,0,1,.25479.0764,5.9737,5.9737,0,0,0,1.53331.2637c.74922.06363,1.50356.06,2.25226.17289.3574.05391.73922-.10872,1.12228-.087A13.06753,13.06753,0,0,0,74.979,77.2945a14.284,14.284,0,0,1,2.41023-.38219c.08782.00041.16989-.02861.25189.02422.141.09088.38172-.0449.45568.2-.29294.15341.12194.5779-.31858.73545a6.17947,6.17947,0,0,0-.89177.46033.18124.18124,0,0,0,.22224.03938c.16183-.08261.2742-.10508.2811.13487.00656.22815.1096.24786.272.11054.06594-.05576.14541-.15714.22326-.05762.07081.09053.20379.20134.12132.33124-.09713.153-.2039.26522.08331.30459.0588.00806.038.085.03195.14018-.0486.44485-.0274.88941-.09727,1.34074a10.63179,10.63179,0,0,0-.33541,1.82532,3.93287,3.93287,0,0,1-.2744,1.35628A9.30691,9.30691,0,0,0,77.08,85.37609c-.05316.28039-.1013.56587-.17119.84194-.21953.86712-.22793.88378-1.14523.9033a22.17661,22.17661,0,0,1-3.082-.02387,14.7289,14.7289,0,0,1-2.47283-.46149,13.2945,13.2945,0,0,0-2.35706-.71257c-.0347-.00367-.09409-.01123-.0986-.02839-.13234-.50328-.68041-.36482-.96973-.63151a6.49767,6.49767,0,0,0-1.05257-.63993,1.66432,1.66432,0,0,0-2.09562.4796c-.07508.1293-.10593.20522.00259.32717.31577.35485.50267.85139,1.05713.93754.03373.00524.09429.03426.09268.04247-.11008.562.44983.54844.70331.71374a8.75629,8.75629,0,0,0,1.02625.65966,10.91054,10.91054,0,0,0,3.57419,1.21712,6.8715,6.8715,0,0,1,1.12537.20449,9.23394,9.23394,0,0,0,1.65536.17744,5.00011,5.00011,0,0,0,1.10739.04074,7.87729,7.87729,0,0,1,1.07-.12559c.27344.00048.60633.181.83968-.19125.08035-.12816.30759.04462.28184.23811-.07835.58889-.30938,1.13953-.42976,1.71809-.03978.19114-.37195.3377-.31362.40225a.48742.48742,0,0,1,.08032.50229C75.41011,92.40424,75.28644,92.83523,75.17307,93.26853Z"/><path class="cls-4" d="M39.78041,112.55549a3.29,3.29,0,0,1,.8114-.11547c.56435-.0906,1.16064-.06417,1.68995-.2017.68825-.17882,1.41988.06958,2.07181-.30119.13987-.07956.3564-.022.5374-.03179a8.31567,8.31567,0,0,0,2.1477-.37765,4.52152,4.52152,0,0,1,1.34575-.14726c.48974-.00381.95679-.17207,1.4461-.15018a4.4764,4.4764,0,0,0,.77066.00668,11.42437,11.42437,0,0,1,2.8908-.06293,5.43149,5.43149,0,0,1,2.30768.34165c.28558.16935.66255.04828.99138.045a8.26007,8.26007,0,0,0,1.09843.01461,5.91322,5.91322,0,0,1,1.5709.28215,5.132,5.132,0,0,1,2.54318,1.36681.97537.97537,0,0,1-.10459,1.66787,12.07947,12.07947,0,0,1-2.91533,1.27071c-1.20714.31953-2.44725.45934-3.67.68234-.48254.088-1.01468.10879-1.49259.21859-.70421.16176-1.41972.13281-2.11791.27423a8.31711,8.31711,0,0,1-.95773.11087c-.80207.06689-1.60088.18253-2.39741.273a14.55533,14.55533,0,0,0-2.03111.17431,7.71476,7.71476,0,0,1-1.34426.12185,16.48639,16.48639,0,0,0-2.49536.31457,3.28246,3.28246,0,0,1-.77408-.00639c-.92226-.0092-1.83127.18309-2.755.13488-.59293-.03093-1.1896.01434-1.78323-.00923-.52562-.02086-1.04877-.11916-1.57407-.12946a17.76827,17.76827,0,0,1-1.76564-.22148,6.894,6.894,0,0,1-3.00139-.81441,2.54368,2.54368,0,0,1-.75351-.75825c-.3005-.4543-.04553-1.05752.58583-1.32258.59165-.24837,1.11623-.62181,1.7102-.8503.41214-.15854.85135-.24639,1.278-.36756,1.18993-.338,2.40867-.56,3.59487-.91814.72515-.21891,1.47746-.34774,2.21738-.51784C39.55458,112.52935,39.64438,112.42013,39.78041,112.55549Z"/><path class="cls-5" d="M38.21218,44.63773c.23378.08716.44345.21161.41405.498-.02153.2098.15626.27668.24158.40008.15223.22014.47.34376.35942.69874.36549.18882.40379.6378.69611.8797a1.17547,1.17547,0,0,1,.33727.48349,8.00972,8.00972,0,0,0,.75915,1.19645,12.468,12.468,0,0,0,.9026,1.37967c.38923.473.61411,1.05892.98807,1.52571.53548.66841,1.01639,1.37653,1.5492,2.04644.365.459.63734.99481,1.02306,1.44639a.314.314,0,0,1,.04972.25876c-.01879.15942.0193.20215.20336.202.09157-.00006.22213.16692.31145.308.33965.53628.7206,1.0467,1.09559,1.55986.04857.06645.15255.09237.23086.13707q.35415.97854.70905,1.95678c.01209.03322.05879.076.04985.09142-.16405.28265.05289.498.14061.72489a2.98393,2.98393,0,0,1,.24144.73445c.04683.71725.59428,1.29554.50742,2.03129.27374.47943.28787,1.05072.55537,1.5388.11035.20133.40005,1.80566.52659,1.9421a.715.715,0,0,1,.09268.24683.3898.3898,0,0,1-.29437.21476,10.27985,10.27985,0,0,0-3.78605,1.64676c-.04493.03164.22217,1.26655.04941,1.25793-.50042-.025-.96394-1.51859-1.07659-1.97977-.08375-.34283-.21228-.67449-.31192-1.01375-.05311-.18083-.237-.32924-.09465-.56215.08608-.14079-.17106-.13814-.18285-.29695a17.92641,17.92641,0,0,0-.50561-1.804,5.71305,5.71305,0,0,0-.45681-1.3704c-.103-.22389-.10993-.49051-.20173-.72132-.25219-.634-.32155-1.32352-.60493-1.94663.17524-.19982.02079-.36027-.06963-.52141a2.10245,2.10245,0,0,1-.14534-.68422,5.74732,5.74732,0,0,0-.345-.89058c-.20139-.54717-.31017-1.12153-.51784-1.65936-.15158-.39254-.0211-.86868-.3713-1.19187.14557-.55853-.31164-.96857-.38-1.49478a4.69175,4.69175,0,0,0-.42416-1.2483c-.12232-.26875-.175-.51063.16366-.67955.18928-.09441.02805-.19715-.04975-.21268-.42-.08381-.45277-.3866-.53989-.74a9.45693,9.45693,0,0,0-.57964-1.78475.84469.84469,0,0,1-.10494-.44884,1.87646,1.87646,0,0,0-.25945-.95572c-.27785-.52609-.27128-1.11453-.51178-1.63826-.19626-.42738-.13672-.94839-.47144-1.33578C38.06936,44.79976,38.11637,44.688,38.21218,44.63773Z"/><path class="cls-3" d="M45.96029,68.79379a6.6183,6.6183,0,0,1,2.3645-1.31823,8.01748,8.01748,0,0,1,1.87189-.55089c.3271.00248.65421.00586.98131.00707.15733.00058.34549.04985.3189.21173-.05008.30478.12549.23125.274.20767a8.73763,8.73763,0,0,1,1.73357-.32493,4.65,4.65,0,0,1,1.94242.227c.2831.13688.58745.23246.8624.38291a2.84835,2.84835,0,0,1,1.10517,1.13013,1.63788,1.63788,0,0,1-.01464,1.36815c-.23549.67538-.51251,1.33835-.79556,1.99166a4.6919,4.6919,0,0,1-1.16535,1.77527,1.44022,1.44022,0,0,0-.30126-1.00671c-.12805-.19493-.27564-.37761-.422-.55975-.19365-.241-.441-.2396-.595.01355a4,4,0,0,1-1.95866,1.581,14.8536,14.8536,0,0,1-2.16584.55694,6.74645,6.74645,0,0,1-1.4642.15444,10.25288,10.25288,0,0,1-2.1034-.01033c-.57062-.092-1.14922-.17157-1.72344-.2682a1.054,1.054,0,0,1-.50031-.1601.78293.78293,0,0,0-.45063-.15672,1.32808,1.32808,0,0,1-.79991-.26057.67513.67513,0,0,0-.47107-.0746,1.72258,1.72258,0,0,1,.27164-.9677,13.42417,13.42417,0,0,1,1.30407-1.88543c.30558-.37458.61084-.7495.91015-1.12909a5.77075,5.77075,0,0,1,.8923-.83527.82635.82635,0,0,0,.10714-.11293Z"/><path class="cls-6" d="M34.5,82.43254c.18168,0,.36354-.00533.545.001a.53867.53867,0,0,1,.566.73611,13.06292,13.06292,0,0,0-.104,1.52441,5.11927,5.11927,0,0,0-.13694.96018,4.77446,4.77446,0,0,1,.12252.7992,5.88945,5.88945,0,0,0,.1308,2.33956,11.78478,11.78478,0,0,0,.561,2.6039,1.61963,1.61963,0,0,1,.11166.82142,2.31717,2.31717,0,0,0,.406,1.07523,2.38661,2.38661,0,0,1,.21886.65453,6.8944,6.8944,0,0,0,.358,1.12069c.17322.45373.39669.88919.55427,1.34772.18725.5449.05276.70326-.508.88868a2.66573,2.66573,0,0,1-.91124.076A1.89331,1.89331,0,0,1,35.31,96.52159c-.07245-.16011-.25544-.24263-.37339-.38372a8.73754,8.73754,0,0,1-1.17516-2.52794,24.94915,24.94915,0,0,1-.77018-2.67047c-.062-.22285-.21065-.459.03284-.67689.08943-.08.02089-.1578-.034-.2336a1.244,1.244,0,0,1-.2351-1.10281.35969.35969,0,0,0-.00142-.21576,6.9811,6.9811,0,0,1-.09812-2.12845c-.01178-.11643-.04826-.27723.12674-.314.16783-.03524.176-.1022.06232-.20106a.57684.57684,0,0,1-.13874-.69079c.11787-.36059.04116-.74684.15428-1.118.13993-.45911.26514-.92518.36676-1.39777a.56366.56366,0,0,1,.61929-.42985c.21685.0159.43582.003.65384.003Z"/><path class="cls-7" d="M44.90642,97.94415c.25994-.28072.36416-.28671.60446.03494.36267.48545.69267.99532,1.05495,1.48108.57681.77347,1.174,1.53175,1.75268,2.30381a20.69385,20.69385,0,0,0,1.56666,1.68961,6.06168,6.06168,0,0,0,1.07295.813c.87581.59688,1.75828,1.184,2.63221,1.78359.34581.23726.77239.33647,1.10262.54265.64386.402,1.39418.5381,2.02138.94794a1.41781,1.41781,0,0,0,.70174.22213,2.10905,2.10905,0,0,1,.58281.10784c.75445.27489,1.54731.4073,2.3155.63348a7.2973,7.2973,0,0,0,2.10094.35778c.13576-.00084.48639-.07942.28014.30048-.04772.08788-.13295.18749-.02648.29136a.10325.10325,0,0,0,.09591.014c.10623-.06133.2777-.12586.21539-.26627-.17143-.38631.13776-.23928.25465-.224a4.85022,4.85022,0,0,1,.61225.22076c.13794.03622.37708-.13812.60308-.1355a9.26226,9.26226,0,0,1,1.53418-.00788,1.18409,1.18409,0,0,0,.51209-.09506c.49139-.15508,1.00859-.03037,1.49251-.18745.04844-.01573.13931-.02842.15212-.00722.23947.39628.43215.093.68509.00022a1.00908,1.00908,0,0,1,1.03029.31223c.09017.15292.32687.38254.26165.43391-.222.17491.01811.34355-.03334.43572a1.31831,1.31831,0,0,1-.59142.43675,2.74833,2.74833,0,0,1-1.08014.279c-.88634.07231-1.74142.3761-2.63424.37327a25.35836,25.35836,0,0,1-2.74124-.05606c-.96518-.10691-1.83518-.52383-2.7796-.65847a15.55888,15.55888,0,0,0-1.75914-.4001c-.49315-.01469-.85479-.42177-1.32323-.53724-.05959-.42844-.54992.01976-.65262-.32094a8.94158,8.94158,0,0,1-1.33715-.61623,27.13946,27.13946,0,0,1-2.5186-1.56612,3.72168,3.72168,0,0,1-.98985-.77032.69515.69515,0,0,0-.27505-.15864,5.31575,5.31575,0,0,1-1.4789-1.15274,4.55179,4.55179,0,0,0-.99959-.913.43166.43166,0,0,1-.15517-.15128c-.45193-.77163-1.12284-1.383-1.56373-2.166a10.17873,10.17873,0,0,0-.91759-1.17678c-.28416-.36588-.418-.83392-.73342-1.18914a1.52586,1.52586,0,0,1-.45088-.96317C45.09837,98.08784,44.92793,98.07077,44.90642,97.94415Z"/><path class="cls-8" d="M27.35117,89.10456c-.03243-.40387-.15332-.79354-.21-1.196a2.58347,2.58347,0,0,1-.06221-.786,2.03783,2.03783,0,0,0-.092-.85349,6.31493,6.31493,0,0,1-.0064-1.48869c-.01086-.3086.00344-.618-.00383-.9268a8.51375,8.51375,0,0,1,.37123-2.148,5.25181,5.25181,0,0,1,.74078-1.58936,1.15362,1.15362,0,0,1,1.17135-.62774c.2811.03857.523-.13043.79886-.11516.35043.01939.396.05729.29316.43366-.03484.12747.03254.09868.0838.11839.15444.05939.14905.1301.02006.21645-.35752.23932-.41577.62712-.54643,1.00077a17.2813,17.2813,0,0,0-.4071,2.16129.48228.48228,0,0,0-.01.21633,4.99412,4.99412,0,0,1-.00866,1.24179c.00941.436-.03875.87756.01415,1.30734.09892.80377.00415,1.62275.13085,2.40868a11.451,11.451,0,0,1,.0501,1.74675,6.51433,6.51433,0,0,1-.5436,2.61656.27222.27222,0,0,1-.14854.14641c-.119.0319-.10937-.106-.16316-.156-.55026-.51072-.65555-1.28026-1.09555-1.85492-.27664-.3613-.1911-.83024-.29747-1.24419A3.17429,3.17429,0,0,1,27.35117,89.10456Z"/><path class="cls-1" d="M37.23844,41.27715c-.05134-.01868-.09066-.05179-.08553-.1092.00374-.04177.0437-.05684.05387-.03095a.6706.6706,0,0,1,.02469.14583Z"/><path class="cls-9" d="M29.05571,13.119c-.01414-.10023-.06382-.22691.04785-.27751.0495-.02243.2165.06894.21578.10647-.00316.16542-.15288.15032-.27039.16485Z"/><path class="cls-9" d="M41.40752,37.3754c-.028.04592-.058.09026-.10682.02321-.003-.00416.04139-.04289.06373-.06554Q41.38651,37.3537,41.40752,37.3754Z"/><path class="cls-6" d="M90.05672,78.339c-.29-.03811-.2835-.27329-.3865-.46085-.734-1.33647-1.12538-2.91259-2.61843-3.73052a8.12327,8.12327,0,0,0-.89514-.37607c-.18356-.07423-.3703-.13577-.41159-.35132-.04933-.25754.17778-.3111.34041-.39107.36955-.18171.67582-.46285,1.02106-.66779a3.80259,3.80259,0,0,0,1.72137-2.84448c.10088-.58348.51025-1.09413.38586-1.722a.21744.21744,0,0,1,.11906-.17668c.14643-.03569.17091.10017.19212.19985.14165.66595.4351,1.28346.62636,1.92933a4.90406,4.90406,0,0,0,2.97386,3.37612c.229.09233.5543.32083.11423.47176-1.04761.3593-1.37615,1.32931-1.977,2.0795a4.69144,4.69144,0,0,0-.63988,1.71385A1.45788,1.45788,0,0,1,90.05672,78.339Z"/><path class="cls-6" d="M75.32568,62.88825c-.10732.19768-.17948.39861-.40017.50751-1.469.72489-2.0116,2.1173-2.50381,3.53343-.09606.27642-.03353.61914-.448.67679-.43483.0605-.54416-.27406-.706-.558-.38871-.6819-.79532-1.35381-1.1748-2.04075a1.998,1.998,0,0,0-1.54768-1.187c-.26708-.03049-.51993-.18-.5363-.43082-.02127-.32572.32919-.182.50692-.26236a4.91622,4.91622,0,0,0,2.70807-3.18895c.13981-.44193.26743-.8878.4131-1.32772.04078-.12311.08741-.29167.23935-.30093.19078-.01163.17054.16732.18834.29682A5.40508,5.40508,0,0,0,74.79092,62.322C75.01546,62.47469,75.277,62.58108,75.32568,62.88825Z"/><path class="cls-6" d="M83.94146,51.54027c.23465-.00971.23228.16792.27573.32757a9.15694,9.15694,0,0,0,.59263,1.68843,2.12108,2.12108,0,0,0,1.12956,1.21813c.574.21282.36705.55042.02491.73775a3.43879,3.43879,0,0,0-1.7799,2.59434.5048.5048,0,0,1-.567.46957c-.37075-.01817-.28249-.30115-.37481-.51346-.463-1.06481-.63209-2.37113-2.10612-2.64841a.17711.17711,0,0,1-.01275-.34952c1.8023-.37488,2.18306-1.85662,2.61368-3.30472C83.76911,51.65318,83.80643,51.55126,83.94146,51.54027Z"/></svg>