<svg width="120px" height="120px" viewBox="0 0 120 120" xmlns="http://www.w3.org/2000/svg"><defs><style>.cls-1{fill:#eb7652;}.cls-2{fill:#fdd88e;}.cls-3{fill:#e45644;}.cls-4{fill:#2b3c58;}.cls-5{fill:#fdd88f;}.cls-6{fill:#819dd1;}.cls-7{fill:#fef9f7;}.cls-8{fill:#4f4e69;}.cls-9{fill:#fffffe;}.cls-10{fill:#fffefe;}.cls-11{fill:#fffdfc;}.cls-12{fill:#fffdfd;}.cls-13{fill:#faded3;}.cls-14{fill:#f5c1b0;}.cls-15{fill:#fbb447;}.cls-16{fill:#b46554;}.cls-17{fill:#e07352;}.cls-18{fill:#d87052;}.cls-19{fill:#d77053;}.cls-20{fill:#da7153;}</style></defs><title>hs-huzzah-18</title><g id="Layer_2" data-name="Layer 2"><path class="cls-1" d="M117.91,107.76c-.31-.62-.88-.22-1.26-.23-3.08-.06-6.16,0-9.25,0-2.31,0-4.62-.11-6.93-.12s-4.74,0-7.11.06c-1.2,0-2.4.14-3.59.07-2.88-.19-5.76,0-8.64,0-2.67,0-5.34,0-8,0-1,0-2,0-3,0h-7.9c-1.86,0-3.72,0-5.57,0l-5.72,0c-2.4,0-4.79.05-7.18.06-2.87,0-5.74,0-8.61,0a1.5,1.5,0,0,1-.35-.09s0,0,0,0c-1.1,0-2.2.1-3.3.11-1.74,0-3.48,0-5.21,0-2.62.08-5.24,0-7.85,0-1,0-2,.08-3,.09-1.83,0-3.66,0-5.48.07-2,.13-4.07,0-6.1-.1-1.23,0-1.4.2-1.34-1.87.15-.2.37-.18.57-.18,2.81,0,5.62-.21,8.43-.26,3.21,0,6.4-.28,9.6-.54,2-.16,3.93-.13,5.9-.12a1.56,1.56,0,0,0,1-.16.34.34,0,0,1,.35,0,2.57,2.57,0,0,0,1.31.18c2.12-.07,4.24,0,6.36-.14,1.15-.06,2.31-.1,3.46-.1,1.76,0,3.52-.12,5.28,0s3.79,0,5.68,0c1.19,0,2.38-.09,3.57-.11s2.34-.08,3.51-.1,2.54-.1,3.82-.1,2.37-.09,3.56,0a14.86,14.86,0,0,0,1.76-.06c.09,0,.23,0,.23-.15s-.12-.11-.2-.14a5.75,5.75,0,0,0-1.8-.18c-1.84-.08-3.68-.16-5.52-.15-1.24,0-2.49,0-3.73,0-3.1.11-6.2.13-9.3.08-1.69,0-3.38,0-5.06,0-1.83,0-3.66,0-5.48,0a14.66,14.66,0,0,1-2.48,0c-.29-.16-.14-.35,0-.51,1.15-1.48,2.4-2.89,3.66-4.28a16.73,16.73,0,0,0,1.79-2.15,23.59,23.59,0,0,1,2-2.6c.78-.9,1.37-1.94,2.19-2.81.1-.1.16-.23.29-.29a.9.9,0,0,1,.45-.1c1.49,0,3,0,4.47,0,.63,0,1.27.09,1.9.07,1.73,0,3.45-.07,5.18,0,.91,0,1.85,0,2.78,0,1.81,0,3.62,0,5.43,0,2.24,0,4.48.07,6.73,0a22.62,22.62,0,0,1,2.47,0,21.59,21.59,0,0,0,2.9,0,27.18,27.18,0,0,0,3.61,0,2.11,2.11,0,0,1,.61.06,2.56,2.56,0,0,0,1.7-.21c.45.45.84.94,1.26,1.41.72.81,1.42,1.64,2.11,2.48s1.64,1.8,2.5,2.68c1.41,1.44,2.76,2.93,4.13,4.41.45.48.87,1,1.34,1.44a1.43,1.43,0,0,0,1,.43c.59,0,1.18-.09,1.76-.06,1.91.1,3.82,0,5.73,0a4.35,4.35,0,0,0,1.39-.09.71.71,0,0,1,.2,0c1.61.2,3.23.25,4.84.36a43.61,43.61,0,0,0,5.83.1,28.4,28.4,0,0,1,4.22-.2c.5.59,1.49.84,1.23,2-.18.78.18,1.63-.2,2.41Z"/><path class="cls-2" d="M62,12.45c.56.08,1.13.14,1.69.25.13,0,.23.18.34.28-.12,0,.13.47.13.77,0,1.23,0,2.46-.1,3.69,0,.28,0,1.23,0,1.6a11,11,0,0,1-.4,2.93c-.17.52-.3,1.36-1.35,1.3s-1.66-.46-1.75-1.57a24.47,24.47,0,0,1-.2-5,12.31,12.31,0,0,0,.21-2.21,1.65,1.65,0,0,1,1.34-2.06Z"/><path class="cls-1" d="M100.92,78.9c0,2-.08,3.94-.1,5.91,0,1.1.05,2.19,0,3.29a2.48,2.48,0,0,0,0,.86c.21.8-.56.71-1,.72-2.15,0-4.31-.09-6.46,0-1.67,0-3.33.26-5,.4a3.48,3.48,0,0,1-1.47.13c-1.48,0-3,0-4.43,0-.39,0-.78,0-1.18,0s-.26-.24-.27-.43c-.06-1,0-2.07,0-3.1,0-1.19.06-2.38,0-3.57a7.12,7.12,0,0,0-.2-2.2c-.09-.23.11-.49.13-.75.09-1.71-.1-3.41,0-5.11,0-1.3,0-2.59-.05-3.88l-.09-1.86a1.15,1.15,0,0,0-.35-.88c-.35-.31.22-.5.12-.87A33.51,33.51,0,0,0,78.87,62a25.35,25.35,0,0,0-1.3-3c-.36-.6-.87-1.1-1.24-1.7-.1-.18-.28-.31-.31-.53,0-.06,0-.12-.08-.1a.8.8,0,0,1-.39-.31,13.44,13.44,0,0,0-2.14-2,3.89,3.89,0,0,1-1-.85.42.42,0,0,0-.28-.21c-.54-.07-.79-.49-1.09-.86L71,52.41c-.66-.21-1.19-.67-1.85-.9a3.4,3.4,0,0,0-1.32-.35c-.36,0-.74-.3-1.14-.39l-.14,0a14.2,14.2,0,0,0-2.35-.37c-.21,0-.38,0-.48.24s-.36.21-.5,0c-.31-.36-.7-.32-1.12-.38a9.81,9.81,0,0,0-2.76.19c-.57.07-1.11.29-1.68.4A2.67,2.67,0,0,1,57,51a1.07,1.07,0,0,0-.84.33c-.08.09-.15.2-.29.18a3.75,3.75,0,0,0-2.19.62,14.91,14.91,0,0,0-3.24,2.08,25.4,25.4,0,0,0-3.09,3,22.66,22.66,0,0,0-3.48,5.59,9.42,9.42,0,0,0-.68,2.48,31.57,31.57,0,0,0-.59,4,19.9,19.9,0,0,0,0,3,1.05,1.05,0,0,1-.34,1c-2.29.11-4.58.32-6.87.41-1.42.07-2.85.1-4.28.15-.21,0-.63,0-.6.15.06.27.4.17.62.17a25,25,0,0,0,2.74.06c.37,0,.56.17.5.54-.15.93-.25,1.88-.35,2.82a.54.54,0,0,1-.57.54c-1.29.06-2.57.21-3.87.17a16.45,16.45,0,0,0-3.77.18c-.16,0-.42,0-.42.21s.26.14.42.18a5.06,5.06,0,0,0,1.23,0l3.72,0a58.69,58.69,0,0,0,6.36-.24c.32,0,.65,0,1-.08.06,0,.16,0,.16-.1s-.09-.09-.16-.1a9.28,9.28,0,0,0-1.9-.19c-.66,0-.8-.1-.83-.76,0-.81-.1-1.62-.1-2.43,0-.61.13-.72.73-.73,1.86,0,3.72-.21,5.57-.38a1,1,0,0,1,.79.15,2.1,2.1,0,0,1,.16,1.26,25.6,25.6,0,0,0,.12,3.5c.12,1.42,0,2.85.07,4.28s0,2.58,0,3.86a3.24,3.24,0,0,0,.22,1.71.23.23,0,0,1,0,.25,1.74,1.74,0,0,0,0,1.63c.06.2.2.39-.12.5a28.38,28.38,0,0,1-3.45-.07c-1.43,0-2.86-.09-4.29,0-1,0-1.89,0-2.84,0-2.55,0-5.1.11-7.64.38A2.63,2.63,0,0,1,22.93,91l.33-.48a2.82,2.82,0,0,0,.18-.29c-.1,0-.26,0-.3,0A.94.94,0,0,1,23,89.11h0A14.08,14.08,0,0,1,23,86.53c.13-.87-.17-1.7-.06-2.55,0-.27-.09-.53.29-.62.05,0,.1-.19.08-.2-.73-.56-.09-1.22-.17-1.8a15.65,15.65,0,0,1-.2-1.81s-.05-.08,0-.08c.79-.8-.19-1.59,0-2.48a14.93,14.93,0,0,0,0-3.41c0-.51.54-1.07,0-1.58a.29.29,0,0,1,.3-.41c.09,0,.3.09.27-.1s-.22-.39-.27-.38c-.48.14-.31-.22-.32-.4,0-.45.28-.12.41-.14,2.17-.19,4.36,0,6.51-.44.24,0,.44-.35.66-.53a3.67,3.67,0,0,0-.62-.19,28.88,28.88,0,0,0-4.16,0c-.74,0-1.49,0-2.23,0-.19,0-.54.22-.56-.18s-.09-2.44,0-2.71a5.57,5.57,0,0,0,0-1.91c0-.24,0-.47.29-.56.05,0,.25,0,.1-.13-.76-.68-.27-1.54-.24-2.28,0-1-.14-2-.08-3a4,4,0,0,1,.36-2.32c-.26-.08-.18-.24-.19-.46a7,7,0,0,1,.17-2.76c.13-.41-.22-1.13-.15-1.73a.22.22,0,0,1,.26-.12,12.15,12.15,0,0,0,3.24.18c2.28,0,4.55-.18,6.82-.2,1.35,0,2.68-.15,4-.23a.9.9,0,0,1,.6.12.61.61,0,0,1,.14.53c0,.55-.06,1.1-.09,1.65s-.17.66-.69.72a21.49,21.49,0,0,1-2.89.11c-1.21,0-2.42.06-3.62.12-.1,0-.26,0-.28.09s.15.1.24.13a6.93,6.93,0,0,0,2.36.09c.55,0,1.1-.05,1.65-.05,2.85,0,5.69-.13,8.52-.41a.52.52,0,0,0,.24-.05.28.28,0,0,0-.24-.07,17.33,17.33,0,0,0-2.79,0c-1.25.09-1.39.11-1.39-1.1,0-.49,0-1-.08-1.5a.39.39,0,0,1,.14-.41c.78-.05,1.57-.15,2.36-.17s1.57-.18,2.36-.25c1.34-.11,2.68-.2,4-.4,2.17-.32,4.35-.53,6.51-.85,1.47-.21,2.92-.51,4.39-.71,3.83-.5,7.61-1.33,11.47-1.59,1.46-.1,2.93-.2,4.38-.32s2.62-.23,3.91-.46c.72-.12,1.44-.1,2.16-.16a85.25,85.25,0,0,1,9-.46c3.26.06,6.51,0,9.77-.12.24,0,.49,0,.66.2.17,2.74.32,5.47.25,8.21,0,1.75.13,3.51.17,5.26s0,3.63,0,5.45c0,.92.07,1.83,0,2.76a34.73,34.73,0,0,0,.13,3.94c0,.42-.12.52-.51.52q-5.1,0-10.2,0c-.15,0-.35-.13-.46.12-.23.51.15.5.44.51,1.49.06,3,.18,4.45.13.78,0,1,.22,1,.93,0,1,0,2.09,0,3.13,0,.39-.28.28-.47.28l-7.35-.16a1.84,1.84,0,0,0-.47,0c-.26.08-.51.2-.76.3a4.25,4.25,0,0,0,.85.22c1.77.06,3.55,0,5.31.14,2.06.17,4.12-.05,6.17,0,.2,0,.5.07.52-.2s-.32-.21-.51-.28c-.57-.22-1.43.43-1.73-.29a6.19,6.19,0,0,1-.11-2.12,2.59,2.59,0,0,0,0-.74c-.46-1.29.33-1.23,1.19-1.17a5.23,5.23,0,0,0,1.63,0c1-.26,1,.31.91,1a9.52,9.52,0,0,0-.1,2.23,14.29,14.29,0,0,0,.09,2.36C100.46,78.45,101,78.63,100.92,78.9Z"/><path class="cls-1" d="M19.81,42.17a25.41,25.41,0,0,1-.23-2.59,31.56,31.56,0,0,1,.13-5.41,6.62,6.62,0,0,1,.5-2.45,2,2,0,0,1,2.35-1.2,14.07,14.07,0,0,0,2.81-.21c1.25-.09,2.5-.11,3.74-.13s2.71,0,4.07,0c3.76.07,7.52.17,11.29.24,2.15,0,4.3,0,6.45.08s4.49.13,6.74.17c1.84,0,3.67,0,5.51,0h8.91c.22,0,.51-.09.4.34,0,.05.09.14.14.21a.83.83,0,0,0,0-.22c-.07-.43.29-.3.45-.31q4.44-.07,8.88-.12c3.78,0,7.56,0,11.33-.1,2.18-.06,4.36-.09,6.54,0a15.13,15.13,0,0,1,4.08.35c.79.25.81,1.08.89,1.65a30.25,30.25,0,0,1,.16,6.38,19.26,19.26,0,0,0,.12,2.51c0,.4.11.74-.6.68-1.61-.14-3.24,0-4.86-.15-3.88-.25-7.76-.2-11.64-.18a39.51,39.51,0,0,0-6.88.2,2.45,2.45,0,0,0-.51.2,1,1,0,0,1-.78.18c-2.58,0-5.15,0-7.73-.11-.26,0-.51,0-.77,0a1.5,1.5,0,0,1-1-.2c0-.29.29-.25.49-.26.38,0,.76,0,1.13,0,.13,0,.34,0,.35-.12s-.2-.23-.34-.23a12.54,12.54,0,0,0-1.5,0,25,25,0,0,1-3.77.06c-1.62,0-3.24,0-4.86,0q-.83,0-1.65-.06c-1.91-.09-3.81.17-5.73.12-1.73,0-3.47.07-5.2-.08a10.37,10.37,0,0,0-1.24,0c-2.2.08-4.41,0-6.61,0a1.79,1.79,0,0,0-.76.12.55.55,0,0,1-.31,0,28.17,28.17,0,0,0-3.68-.17,6.62,6.62,0,0,0-1.18.07c-1.31.11-2.62,0-3.92.12a13.48,13.48,0,0,0-2.77.15c-.28.08-.58-.07-.88-.06-1.47.06-2.95.17-4.42.31a25.51,25.51,0,0,0-2.87.34A.82.82,0,0,1,19.81,42.17Z"/><path class="cls-3" d="M70.33,42l10.28.13c1.28,1.06,2.84.59,4.26.68,3,.2,6,.18,8.95.24a44,44,0,0,0,5.13.07c1.55-.15,1.16.9,1.31,1.66a5.22,5.22,0,0,1,0,1l-3.82,0c-3.58,0-7.17,0-10.74.1-2.62.1-5.22.44-7.83.69-2.16.2-4.31.49-6.47.61a84.72,84.72,0,0,0-8.54,1c-3.16.5-6.32,1-9.48,1.44q-3.94.57-7.91,1c-1.93.22-3.87.36-5.8.52-.14,0-.28-.11-.42-.17l-.06,0a4.6,4.6,0,0,1-.13-.5c-.07-.31.07-.78-.46-.74s-.25.49-.33.76.15.59-.25.73c-3.48.16-7,.35-10.45.48-1.29,0-2.58-.06-3.87-.06-.26,0-.32-.41-.62-.22,0-.68-.08-1.35-.08-2,0-.28.11-2.21.15-2.58.12-1.1,0-2.22.06-3.34.2-.21.46-.09.69-.09,1.21,0,2.4-.18,3.61-.23,1.37-.06,2.75,0,4.12-.09h.16c.85-.34,1.76,0,2.6-.15,1-.21,2,0,3-.11s2,0,3-.07c1.53-.06,3.06-.18,4.59-.22,1.75,0,3.51-.11,5.27-.17,1.46-.06,2.93-.12,4.39-.11,1.73,0,3.44-.25,5.15-.32,1.31-.06,2.62.06,3.93,0,1.48,0,3-.06,4.45-.07.57,0,1.13,0,1.7,0C70.07,41.8,70.24,41.78,70.33,42Z"/><path class="cls-3" d="M22.93,91c3.31-.11,6.6-.43,9.91-.44s6.73,0,10.1.14a.1.1,0,0,1,.07.07l-2.67,3.5c-1,1.3-2,2.64-3,3.89-1.42,1.68-3,3.26-4.25,5-.14.18-.34.16-.52.16-1,0-2,0-3,0-.1,0-.23-.06-.31,0-.7.49-1.41,0-2.12,0l-3.87,0c-3.05,0-6.09.26-9.13.46-1.59.1-3.19.12-4.79.14-1.93,0-3.85.17-5.77.37-.27,0-.55.09-.78-.14a59.11,59.11,0,0,1,7.44-5c.09-.1.27.16.33-.09a3.39,3.39,0,0,1,1.43-1.2c1.78-1,3.62-2,5.41-3,1.09-.62,2.14-1.34,3.21-2a17,17,0,0,1,2-1.07A.6.6,0,0,0,22.93,91Z"/><path class="cls-3" d="M81.19,90.06A9,9,0,0,1,83.78,90c1.53-.12,3.07,0,4.61.06a.19.19,0,0,1,0,.1c-.17.5,0,.59.79.62,1,0,2,.13,2.94.2a7.5,7.5,0,0,0,1.83.14c.6.06,1.21.09,1.8.2a7.92,7.92,0,0,0,3.62-.23c.41-.11.83,0,1.23-.12L108.7,97c2.16,1.62,4.31,3.26,6.5,4.86.76.56,1.6,1,2.4,1.52,0,.23-.17.2-.34.18-1.67-.17-3.31.25-5,.23-2.43,0-4.84-.15-7.26-.35-1.94-.16-3.9-.06-5.85-.07s-4,.1-6-.06c-.83-.07-1.26-1.08-1.84-1.68-1.92-2-3.83-4-5.68-6-1.52-1.67-2.94-3.43-4.41-5.15C81,90.33,81.08,90.19,81.19,90.06Z"/><path class="cls-4" d="M2.73,104.12c2.46-.16,4.92-.46,7.37-.43,1.93,0,3.82-.21,5.74-.22,1.39,0,2.78-.22,4.17-.28,1.57-.06,3.14-.07,4.71-.07.87,0,1.74.07,2.61.07,1.91,0,3.82,0,5.74,0,1.7-.05,3.4,0,5.11-.05,2-.1,4.06.06,6.1.06,2.35,0,4.7-.06,7-.08,2.13,0,4.25,0,6.38,0,2.75,0,5.49.07,8.24.11a.42.42,0,0,1,.15,0l1.12.41c-.33.43-.81.36-1.27.37l-7.55.1c-1.27,0-2.55.08-3.83.12-1.86.06-3.73.13-5.59.16-1.25,0-2.49,0-3.73,0-1,0-2-.06-3-.06s-1.93.06-2.9.09c-1.8,0-3.6.12-5.41.15s-3.7,0-5.55,0c-2.61,0-5.22,0-7.83.21-1.54.12-3.08.25-4.63.31-3.52.13-7,.22-10.57.32l-3,.12-.29-.07c-.24-.1-.57,0-.7-.31.22,0,.46,0,.68-.08a1.55,1.55,0,0,0,.36-.13L2,104.85l-1-.3c.32-.11.64-.23,1-.32S2.49,104.16,2.73,104.12Z"/><path class="cls-4" d="M70.33,42c-2.69,0-5.38.16-8.07.1-2.09,0-4.15.22-6.23.32s-4.28.06-6.42.13c-2.47.08-4.93.21-7.4.3-2.3.09-4.6.15-6.9.22l-2.1.09-9.42.41a2.68,2.68,0,0,1-.56-.07c-1.15-.08-2.34.14-3.41-.53a.72.72,0,0,1-.31-.47c-.06-.19.16-.23.3-.28,1.89-.17,3.79-.38,5.69-.47,1.05-.05,2.12-.06,3.17-.11,1.48-.09,3-.12,4.44-.13a36.53,36.53,0,0,1,4.44-.13,21.49,21.49,0,0,0,2.26-.07c1.72,0,3.45-.06,5.17,0,2.05.08,4.1,0,6.14,0,2.56,0,5.13,0,7.7-.16,2.17-.15,4.36.1,6.54.11s4.22-.07,6.33-.09a1.78,1.78,0,0,1,.77.21c.12,0,.17.23.26.35a1.8,1.8,0,0,1-.4.15Z"/><path class="cls-5" d="M54.32,26.67a8.84,8.84,0,0,1-4.57-2.21,26.68,26.68,0,0,1-4-3.41c-.33-.42-1.13-.5-.92-1.29-.28,0-.63,0-.63-.31s-.2-.38-.39-.53,0-.24.15-.33c1.36-.75,2.34.14,3.31.82,2.27,1.57,4.5,3.2,6.72,4.83a12.81,12.81,0,0,1,1.62,1.18c.29.39-.13.38-.31.5s-.09.13-.08.15C56.11,27,54.48,26.64,54.32,26.67Z"/><path class="cls-5" d="M80.93,17.53c.2.33-1,1.12-1.18,1.24a84.56,84.56,0,0,0-7,5.32,2.92,2.92,0,0,1-2.44,1c-.27,0-.54-.15-.6-.38s.45-1.15.51-1.22a28.15,28.15,0,0,1,4.37-4,30.92,30.92,0,0,1,3.24-2.16,4.75,4.75,0,0,1,1.31-.4A3.32,3.32,0,0,1,80.93,17.53Z"/><path class="cls-5" d="M66.66,23.13c-.3-.22-1.18-.05-1-.48s0-1,.35-1.38c.73-.83.93-2,1.73-2.77a2.42,2.42,0,0,1,1.85-.92c.4,0,1,0,1.11.37a1.38,1.38,0,0,1-.57,1.52,2.11,2.11,0,0,0-.68,1.19C69,22.06,67.76,23.16,66.66,23.13Z"/><path class="cls-5" d="M53.38,19.25c-.07-.27.14-.5-.16-.84s0-.77.59-.87a1.56,1.56,0,0,1,1.38.28A2.85,2.85,0,0,1,56,19.09a9.1,9.1,0,0,0,.9,1.47c.29.55.29.52-.13.63-.2,0-.41.26-.22.47.57.59-.08.39-.28.43C55.12,22.32,53.45,19.55,53.38,19.25Z"/><path class="cls-1" d="M100.61,91a12,12,0,0,1-5.49.44,23.71,23.71,0,0,0-3.05-.33s-.22.09-.09-.08.1,0,.15,0Z"/><path class="cls-4" d="M81.19,90.06l0,.38c-.49.63-1.13.3-1.73.29-1.33,0-2.67,0-4,0a3.73,3.73,0,0,1-.53-2.14,15.3,15.3,0,0,0,0-2.79,3.66,3.66,0,0,0-.1-.56c-.22-.76-.75-1.09-1.44-.73a9.48,9.48,0,0,1-2,.57,4.63,4.63,0,0,0-1.55.64,7.47,7.47,0,0,1-1.84.67c-1.14.41-2.32.66-3.47,1a22.36,22.36,0,0,1-2.6.42,40.35,40.35,0,0,1-6,.57,2.57,2.57,0,0,1-.87-.11c-.19-.06-.36-.16-.36-.38s.19-.32.38-.36c.74-.15,1.5-.21,2.25-.33A11.22,11.22,0,0,0,59,86.93,45.7,45.7,0,0,0,63.59,86c.62-.16,1.23-.35,1.84-.54,1.13-.3,2.26-.62,3.4-.89a.76.76,0,0,0,.53-.39A4.12,4.12,0,0,0,70,81.76a8.32,8.32,0,0,0-.64-2.48A18.15,18.15,0,0,1,68,76.42a6.19,6.19,0,0,1-.24-3.36,5,5,0,0,1,.83-1.7,5,5,0,0,0,.39-.55c.15-.3,0-.47-.28-.49a1.09,1.09,0,0,0-1,.5A7.92,7.92,0,0,0,66.12,74,9.87,9.87,0,0,1,66,75.53c-.08.25-.07.53-.43.54s-.49-.24-.52-.53a6.25,6.25,0,0,1,.81-4.08,11.16,11.16,0,0,1,.79-1.15,1.6,1.6,0,0,0,.41-1.39c-.06-.34-.23-.4-.5-.2a1.78,1.78,0,0,0-.45.57A10.14,10.14,0,0,1,65,70.76c-.11.13-.25.29-.43.2s-.16-.29-.15-.46a3.31,3.31,0,0,1,.12-.45,5.22,5.22,0,0,0-.13-3.69c0-.11-.08-.26-.21-.28s-.17.14-.21.24a8.49,8.49,0,0,1-2.38,2.84,11.39,11.39,0,0,0-2.44,2.51,16,16,0,0,0-1.69,3.69,11.54,11.54,0,0,0-.33,5.22c0,.24.07.53-.18.65s-.45-.12-.61-.3a3.17,3.17,0,0,1-.65-2,11.68,11.68,0,0,1,.37-4.41,12.55,12.55,0,0,1,1.36-2.84c.07-.12.16-.23.22-.35l.1-.17c-.06,0-.09.1-.14.14-.54.54-1,1.15-1.52,1.69a17.86,17.86,0,0,0-1.64,2,8.3,8.3,0,0,0-1.34,2.61,2.64,2.64,0,0,0,.18,2.14c0,.06.08.11.07.18a3.5,3.5,0,0,0,.67,2.07c.11.23.29.43.19.72-.36.18-.65,0-1-.17a4.46,4.46,0,0,0-3.24-.5,1.3,1.3,0,0,0-.93.87c0,.08-.09.18-.06.25.2.51-.09,1-.13,1.46,0,.31-.16.6.26.78.18.07.08.24,0,.32-.39.22-.15.38.06.51a7.42,7.42,0,0,0,1.19.61c.76.27,1.48.64,2.26.87.2.06.53.12.5.36s-.36.26-.59.3c-.45.09-.9,0-1.34.1-1.05.16-1.1.23-1.07,1.35a.92.92,0,0,1-.29.86c-1.48,0-3,0-4.43,0-.8,0-1.61,0-2.41,0l-.07-.07a2.06,2.06,0,0,1-.18-2.13c.12-.2-.09-.85-.14-1.29-.13-1.09.05-2.18,0-3.23-.2-2.12,0-4.23-.2-6.34-.13-1.26,0-2.54-.06-3.82.09-.25.35-.17.52-.27s.18-.07.17-.16-.11-.12-.19-.12a.53.53,0,0,1-.48-.26,35.44,35.44,0,0,1,.43-6.17,31.25,31.25,0,0,1,.66-3.31,19,19,0,0,1,2.46-4.83,21.82,21.82,0,0,1,6.55-6.18,15,15,0,0,1,3-1.33,16.5,16.5,0,0,1,2.68-.7,13.76,13.76,0,0,1,4.43-.4.63.63,0,0,1,.5.23c.12.14.36.36.45.32s0-.27,0-.42.1-.11.14-.1a13.42,13.42,0,0,1,3,.5h0c.35.16.87-.07,1.05.47.19-.09.35-.25.6-.12.93.45,1.87.88,2.81,1.31l0,0,0,0c1.49,1.39,3.3,2.4,4.6,4a3.22,3.22,0,0,0,.38.35h0a13.42,13.42,0,0,1,2,2.8c.43,1.18,1,2.29,1.37,3.5.44,1.54.87,3.08,1.3,4.62,0,.09.09.21.06.29-.24.78.28,1.47.24,2.24-.05,1,.09,1.93.1,2.9,0,2.45,0,4.9,0,7.35,0,2,.07,3.94.08,5.9C81.23,87.54,81.2,88.8,81.19,90.06Z"/><path class="cls-6" d="M59,87.05l-3.35.5c-.3,0-.81,0-.81.29s.52.34.84.33a40.88,40.88,0,0,0,9.85-1.28,15.86,15.86,0,0,0,4.23-1.35c1.25-.76,2.63-.71,3.88-1.27,1-.46,1.42.45,1.47,1.25a16,16,0,0,1,0,3.72c-.08.54.7.83.44,1.44a13.82,13.82,0,0,1-2.23,0c-1.88,0-3.76,0-5.64,0H58.21l-8.36,0A6.66,6.66,0,0,1,50,89.07c.34-1,1.3-.57,2-.74.07,0,.17.06.24,0l.88-.23-.8-.33a11.85,11.85,0,0,1-3.59-1.7c-.06-.06-.13-.1-.19-.15.91-.58-.32-1.65.51-2.25-.28-.22-.23-.49-.11-.78a2.25,2.25,0,0,1,2.81-1,21.79,21.79,0,0,1,2.53,1c.33.33.8.55,1,1.06a.27.27,0,0,0,.09.12,12.94,12.94,0,0,0,3,2.49C58.58,86.66,58.87,86.75,59,87.05Z"/><path class="cls-7" d="M15.35,107.37l-.16-.19a2.47,2.47,0,0,1,.36-.19s.13.07.19.12Z"/><path class="cls-8" d="M54,91.54c-.08-.08-.14-.12-.16-.17s.07-.12.1-.12a.22.22,0,0,1,.14.11S54,91.45,54,91.54Z"/><path class="cls-9" d="M42.33,73.06c.3.21,1-.15.94.39s-.65.23-1,.42L38.78,74a16,16,0,0,1-2.48.14c-.86-.09-1,.23-1,1A9.63,9.63,0,0,1,35.45,77c-.12,1.06.62.89,1.16.82s1.07.24,1.63.18c.13,0,.44,0,.4.29s-.34.24-.53.26c-.74.08-1.49.16-2.24.17-1.9,0-3.79.22-5.7.09-1.25-.08-2.52.1-3.78.13a8.2,8.2,0,0,1-1.21-.08c-.11,0-.19-.18-.29-.27.1-.08.18-.22.29-.25A7.52,7.52,0,0,1,26.73,78c2.25,0,4.51,0,6.75-.24.67-.07.31-.72.4-1.09a18.06,18.06,0,0,0,.3-2.21c.06-.53-.39-.29-.52-.27a21.23,21.23,0,0,1-3.09-.08c-.2,0-.59,0-.57-.31s.38-.29.62-.3c1,0,2.05,0,3.07-.08,2-.09,4-.21,6-.31Z"/><path class="cls-10" d="M38,51.2c0-.25.08-.5.1-.75,0-.4-.22-.94.52-.94s.42.61.53,1c.09.16,0,.35.08.52h0a13.38,13.38,0,0,0,.15,2.62c.13.58.8.17,1.21.19a18.4,18.4,0,0,1,3,0,2.58,2.58,0,0,1,.46.18c-.16.1-.33.27-.5.28-1.9.12-3.8.23-5.7.31s-4.08.14-6.13.17a7.45,7.45,0,0,1-1.46-.21c-.08,0-.21-.12-.21-.18,0-.25.29-.24.45-.25,1.43-.08,2.86-.14,4.3-.18.93,0,1.87,0,2.8-.06.23,0,.3-.11.31-.32Z"/><path class="cls-10" d="M86,57.45c-1.5,0-1.46,0-1.22,1.5.1.62.44,1.5-.74,1.59a.65.65,0,0,1-.75-.59A14,14,0,0,1,83,58.39c-.06-.91,0-.82-1.34-.82a20.35,20.35,0,0,1-4.13-.15c-.15,0-.39,0-.37-.23s.19-.24.38-.27a21.07,21.07,0,0,1,3.64,0c2,0,4,0,6.07,0a1.85,1.85,0,0,1,.54.16c-.09.29-.32.3-.57.31C86.8,57.4,86.38,57.43,86,57.45Z"/><path class="cls-10" d="M86.51,61.87h7.26a.75.75,0,0,1,.56.3,4.77,4.77,0,0,1-.51.13c-2.22.34-4.47.16-6.7.28-1.25.07-2.51,0-3.77-.07-.18,0-.42,0-.44-.25s.25-.2.39-.21l3.21-.24Z"/><path class="cls-11" d="M34.14,83.21a39.79,39.79,0,0,1,4.76,0c.18,0,.44,0,.45.21s-.24.29-.42.3c-1.12.07-2.25.13-3.38.15a6.71,6.71,0,0,1-2.19,0c-.25-.08-.59-.06-.56-.37s.37-.26.62-.27Z"/><path class="cls-12" d="M90.4,81.24H90c-.41,0-1.12.12-1.14-.23s.68-.21,1.07-.31.13-.62.27-.93a1.89,1.89,0,0,0,0-.89c0-.39.06-.73.51-.7a.71.71,0,0,1,.69.75,8.89,8.89,0,0,0,.06,1C91.64,81,91.4,81.56,90.4,81.24Z"/><path class="cls-13" d="M23.41,77c.05.11.12.19.1.22a1.5,1.5,0,0,1-.2.24s-.12-.09-.11-.11S23.3,77.22,23.41,77Z"/><path class="cls-14" d="M100.48,67.93s-.09.11-.09.1l-.34-.27s.07-.07.09-.06A2.92,2.92,0,0,1,100.48,67.93Z"/><path class="cls-4" d="M76.06,56.69l.3-.09,0,.11-.33,0Z"/><path class="cls-11" d="M29.78,48.39c3.3,0,6.59,0,9.89,0a25.3,25.3,0,0,1,4.92.18,2.75,2.75,0,0,1,.36.15,1.06,1.06,0,0,0-.3.1,4.5,4.5,0,0,1-2.38.24c-4,.13-8.06.18-12.09.25a2.09,2.09,0,0,1-.56-.06c-.35-.07-1,.14-1-.24s.73-.2,1.13-.3Z"/><path class="cls-1" d="M39.27,51l-.08-.52Z"/><path class="cls-15" d="M59,87.05a12,12,0,0,1-4.67-4.16,14.14,14.14,0,0,1-1.13-2.55,4.94,4.94,0,0,1,.11-3.53,13.09,13.09,0,0,1,2.42-3.48c.76-.74,1.41-1.58,2.11-2.38a2.31,2.31,0,0,1,.29-.24c.14.18-.05.26-.12.37a11.86,11.86,0,0,0-2.13,7.47A3.41,3.41,0,0,0,56.6,81a1.85,1.85,0,0,0,.33.21,1,1,0,0,0,.11-.4A13,13,0,0,1,58.3,73c.93-2,2.57-3.21,4-4.67A5.17,5.17,0,0,0,64,65.82a.22.22,0,0,1,.09-.1c.1.07.24.13.3.23a4.81,4.81,0,0,1,.44,3.66s0,0,0,0c-.08.43-.16.85-.25,1.28.33-.34.68-.67,1-1s.53-.76.79-1.14a.6.6,0,0,1,.68-.34c.33.08.27.39.29.6.09.94-.62,1.52-1.07,2.2a6.19,6.19,0,0,0-1,4.41c0,.29.16.34.39.33s.24-.27.24-.42a5.61,5.61,0,0,1,.67-3.27c.51-.74.7-1.82,1.78-2.07.31-.07.63-.18.89.16s-.1.5-.24.67c-2,2.49-1.22,4.94.07,7.38.93,1.77,1.52,3.54.6,5.53a1.61,1.61,0,0,1-1.38.91c-.94.19-1.86.47-2.79.71a.68.68,0,0,1,.14-.6,4.28,4.28,0,0,0,1.08-2.14,9,9,0,0,0,.46-2.68,6,6,0,0,0-.56-2.08c-.16-.39-.54-.38-.84-.52A5.69,5.69,0,0,0,61.64,76a2.66,2.66,0,0,0-2.16,1.34,5.79,5.79,0,0,0-1,4.59,5.33,5.33,0,0,0,1.25,2.83,3,3,0,0,0,1.86,1,10.72,10.72,0,0,0,1.39.13.75.75,0,0,1,.7.26A23.28,23.28,0,0,1,59,87.05Z"/><path class="cls-2" d="M63.63,86.12a25.45,25.45,0,0,1-2.74-.39,4.56,4.56,0,0,1-2.56-3.49,8,8,0,0,1,0-2.68c.45-1.73,1.2-3.2,3.06-3.74.91-.27,4.11.61,4.48,1.71a1.12,1.12,0,0,0,0,.93A6.84,6.84,0,0,1,66,82.75a9.86,9.86,0,0,1-.49,1.51.75.75,0,0,0,.09.83l-.12.48Z"/><path class="cls-16" d="M55.24,51.88,55,52.1C55,52.05,55,52,55,52a1.42,1.42,0,0,1,.14-.23Z"/><path class="cls-17" d="M71.08,52.33l-.21.37s-.09-.05-.08-.07c0-.17,0-.35.3-.29Z"/><path class="cls-1" d="M42.69,81.11a.8.8,0,0,1,.13.19s0,.07-.08.11a.65.65,0,0,1-.13-.16S42.65,81.18,42.69,81.11Z"/><path class="cls-18" d="M66.63,50.68l.29.32s-.06,0-.08,0-.25-.18-.2-.37Z"/><path class="cls-19" d="M67.06,51.5l.08.11a.93.93,0,0,1-.16.18s-.07,0-.1-.07Z"/><path class="cls-20" d="M66.74,51.13a1.16,1.16,0,0,1-.2.12s-.1-.09-.09-.11.07-.13.12-.14S66.67,51.08,66.74,51.13Z"/><path class="cls-4" d="M65.61,85.09c-.78-.14-.3-.68-.2-.91a8.22,8.22,0,0,0,.39-5.59c-.11-.36-.67-.73,0-1.06,1.44,0,1.33,1.32,1.43,2.08A8.5,8.5,0,0,1,66,84.78C66,84.93,65.84,85.12,65.61,85.09Z"/></g></svg>