<svg width="1080px" height="1080px" viewBox="-48.5 0 1080 1080" id="Capa_1" data-name="Capa 1" xmlns="http://www.w3.org/2000/svg"><defs><style>.cls-1{fill:#fd6769;}</style></defs><title>fruitsandvegetables</title><path id="Illustration_Fruits_Beetroot" data-name="Illustration Fruits Beetroot" class="cls-1" d="M705.67,701.13a192,192,0,0,0,31-104.57c0-69.63-28.55-139.12-84.84-174.41-32.12-20.13-51.86-37.72-117.85-28.29-60.84,8.69-66-28.25-66-28.28-18.86-61.28-23.57-249.84-23.57-249.84S392.52,177,434.94,356.15c-42.42-33-108.42-169.68-108.42-169.68s33,122.56,56.56,202.7c-56.56-51.85-136.7-94.28-136.7-94.28S364.22,403.31,387.8,455.16l.25.06C373.66,511.73,321.8,550.63,321.8,606c0,80.3,51.86,113.14,122.56,160.27,19.39,12.92,70.71,28.29,70.71,28.29s123.46,44.59,141.42,66c17.49,20.84,33,103.71,33,103.71l14.14-4.72s-32.43-102.84-33-132C669.9,790.42,705.67,701.13,705.67,701.13Z"/></svg>