<svg width="1080px" height="1080px" viewBox="-48.5 0 1080 1080" id="Capa_1" data-name="Capa 1" xmlns="http://www.w3.org/2000/svg"><defs><style>.cls-1{fill:#fed9db;}.cls-2{fill:#fd6769;}.cls-3{fill:#100174;}.cls-4{fill:#fdce51;}.cls-5{fill:#94b7bd;}</style></defs><title>fruitsandvegetables</title><polygon class="cls-1" points="509.16 145.5 368.83 198.51 277.75 305.43 186.68 383.18 186.68 553.71 267.53 632.35 436.67 708.34 600.23 719.83 698.74 617.33 796.32 488.33 718.26 308.08 585.36 171.12 509.16 145.5"/><polygon class="cls-2" points="325.89 662.48 311.51 666.29 302.32 680.14 301.84 696.75 307.77 708.21 319.44 716.71 334.67 721.54 352.07 727.07 367.3 731.91 381.73 731.7 393.19 725.76 402.38 711.92 402.87 695.31 393.32 683.9 379.13 675.8 369.34 672.69 351.94 667.16 342.15 664.05 325.89 662.48"/><polygon class="cls-2" points="317.53 592.78 303.14 596.59 293.96 610.44 293.47 627.05 299.41 638.51 311.08 647.01 326.3 651.84 343.71 657.37 358.93 662.21 373.36 662 384.83 656.07 394.01 642.22 394.5 625.61 384.96 614.2 370.77 606.1 360.98 602.99 343.58 597.46 333.79 594.36 317.53 592.78"/><polygon class="cls-2" points="314.69 522.73 298.98 526.12 289.31 539.81 289.31 556.57 296.21 568.34 309.34 577.3 326.26 582.67 345.59 588.82 362.51 594.19 378.4 594.45 390.83 588.82 400.5 575.13 400.5 558.37 389.63 546.53 373.74 537.89 362.87 534.44 343.53 528.3 332.65 524.84 314.69 522.73"/><polygon class="cls-2" points="313.32 453.03 297.24 456.33 287.43 470.02 287.54 486.87 294.69 498.75 308.2 507.85 325.57 513.36 345.42 519.67 362.8 525.19 379.07 525.55 391.77 519.98 401.58 506.29 401.47 489.44 390.25 477.47 373.92 468.68 362.75 465.13 342.9 458.82 331.73 455.27 313.32 453.03"/><polygon class="cls-2" points="677.37 934.5 677.37 724.47 677.37 638.04 635.55 526.52 533.32 526.52 533.32 549.76 550.05 570.2 583.5 577.64 599.3 619.46 605.81 653.84 565.85 672.43 543.54 700.31 520.31 742.13 375.5 729.24 373.64 775.71 389.27 823.91 404.14 841.57 428.31 861.08 469.2 875.95 482.21 881.53 479.42 934.5 677.37 934.5"/><path id="Trazado_642" data-name="Trazado 642" class="cls-3" d="M625.56,788.06l-8.9,8.21L601.81,799l-216.7.14L372,793.71l-6.68-10.93V769.94L365,312.46l0-7.22,6.54-9.19,8.83-2.75,224-.15,13.9,2.7L624.5,310l3,11.79.29,438v15.35Z"/><path id="Trazado_643" data-name="Trazado 643" class="cls-4" d="M616.77,735.44l-8.29,6.67-13.84,2.22-202,.13L380.37,740l-6.22-8.87V720.74l-.24-371.36,2.06-11.1,5.18-4.43h7.11l208.87-.13h11.1l8.3,4.43L618.61,357l.24,355.55V725Z"/><path id="Path_410" data-name="Path 410" class="cls-2" d="M499.11,786.38a25.22,25.22,0,0,1-9.05-1.14,15.49,15.49,0,0,1-8.54-13.85,13.09,13.09,0,0,1,4.65-9.82c2.8-2.83,2.06-4.14,9.82-4.67a23.74,23.74,0,0,1,9.2,2.62A4.16,4.16,0,0,1,507,761c2.34,3.46,4.5,5.46,4.5,10.35a11.63,11.63,0,0,1-3.61,9.82A28.71,28.71,0,0,1,499.11,786.38Z"/><path id="Trazado_644" data-name="Trazado 644" class="cls-2" d="M442.12,309.28l-2.67,1.37-2.67,2.74v1.36l2.67,1.37,2.68,1.36h8l98.82-.07,2.67-1.37v-2.73L549,310.58l-5.34-1.37Z"/><path id="Trazado_402" data-name="Trazado 402" class="cls-5" d="M412.28,528.56s-8.95-3.83-8.95,2.56,8.95,24.29,8.95,24.29,17.9,21.74,30.69,26.85,42.19,15.34,49.86,15.34,30.68-1.27,40.91-6.39,26.85-17.9,32-25.57,16.62-26.85,19.17-38.35S590,501.72,590,497.88V485.09s-9-5.11-9,0S422.51,532.4,422.51,532.4Z"/><path id="Trazado_403" data-name="Trazado 403" class="cls-1" d="M412.28,528.56s59.38-22.83,80.55-28.12,88.22-14.07,88.22-14.07,1.28-5.11,0,8.95-8.95,37.08-8.95,37.08-1.28,15.34-17.9,32-23,20.46-37.08,21.74-42.19,1.28-57.53-9S426.35,559.25,420,550.3,412.28,528.56,412.28,528.56Z"/><ellipse id="Elipse_358" data-name="Elipse 358" cx="513.05" cy="542.57" rx="2.56" ry="5.02" transform="translate(-150.64 200.34) rotate(-19.32)"/><ellipse id="Elipse_359" data-name="Elipse 359" cx="473.41" cy="540.02" rx="2.56" ry="5.02" transform="translate(-152.03 187.08) rotate(-19.32)"/><ellipse id="Elipse_360" data-name="Elipse 360" cx="498.98" cy="531.07" rx="2.56" ry="5.02" transform="translate(-147.62 195.04) rotate(-19.32)"/><ellipse id="Elipse_361" data-name="Elipse 361" cx="492.59" cy="546.41" rx="2.56" ry="5.02" transform="translate(-153.06 193.79) rotate(-19.32)"/><ellipse id="Elipse_362" data-name="Elipse 362" cx="519.44" cy="528.51" rx="2.56" ry="5.02" transform="translate(-145.63 201.66) rotate(-19.32)"/><polygon class="cls-2" points="677.37 934.5 677.37 724.47 677.37 638.04 635.55 526.52 557.48 521.88 533.32 526.52 525.88 544.18 531.46 560.91 548.19 570.2 583.5 577.64 599.3 619.46 605.81 653.84 565.85 672.43 543.54 700.31 520.31 742.13 479.42 934.5 677.37 934.5"/></svg>