<svg width="1080px" height="1080px" viewBox="-48.5 0 1080 1080" id="Capa_1" data-name="Capa 1" xmlns="http://www.w3.org/2000/svg"><defs><style>.cls-1{fill:#fdce51;}</style></defs><title>fruitsandvegetables</title><path id="Trazado_404" data-name="Trazado 404" class="cls-1" d="M542.48,270.36c-6.5-10.84-19-19.62-30.48-16.92-4,.95-8,6.77-11.36,9.62a57,57,0,0,0-18.11,29.74C472,332.13,466,403.23,444.84,444.09s-52.12,107.43-92.93,124.1a796,796,0,0,1-87,28.62c-.45.12-.85.2-1.31.28-4.43.72-32.07,5.7-42.49,19.61a34.6,34.6,0,0,0-8.4,15.75,17.65,17.65,0,0,0,4.72,15.49,110.31,110.31,0,0,0,71,23.9c48.4-1.55,118.74-.85,146.71-13s77.1-46.2,96-84a405.93,405.93,0,0,0,40.73-149c3-54.46-7.4-70.36-12.94-108.9A125.26,125.26,0,0,0,542.48,270.36Z"/><path id="Trazado_405" data-name="Trazado 405" d="M514.64,259.86c9.7,39,16.15,74.38,14.58,114.86-1.54,39.58-15.63,76.49-33.22,111.5a309,309,0,0,1-58.43,84c-25.94,25.23-58.42,40.44-93,50-40.5,11.23-84.78,13.48-126.51,16.26a18.57,18.57,0,0,0,0,5.05c73.51-4.9,157.08-5.17,216-54.93a284.7,284.7,0,0,0,64.9-84.9c18.46-34.54,33.94-71.09,38.7-110.29,5.65-46.62-8.84-92-20-137.06a5.93,5.93,0,0,0-3.37,1.68Z"/><path id="Trazado_406" data-name="Trazado 406" class="cls-1" d="M552.57,251.24c-14.55-6-33.6-5.34-43,5.89-3.28,3.93-2.9,12.69-4.15,18a70.94,70.94,0,0,0,4.15,43.14c18.83,47.07,65.89,122.37,75.3,178.86s28.24,145.9,0,193a992.86,992.86,0,0,1-65.33,93.42,14.56,14.56,0,0,1-1.09,1.25c-3.88,4-27.71,29.61-27.71,51.24a43.2,43.2,0,0,0,3.39,22c4.91,7.33,10.43,11.85,16.25,11.91A137.39,137.39,0,0,0,599,840.76c47.06-37.66,117.66-89.43,136.49-122.37s42.36-103.55,33-155.32-33-122.37-70.59-178.86S638,319.64,603.72,285.38A156.23,156.23,0,0,0,552.57,251.24Z"/><path id="Trazado_407" data-name="Trazado 407" d="M533.19,285.42c57,51.81,105.44,124.09,127.26,198,23.23,78.68,18.69,168-23.57,240.41C613.71,763.51,531,831.57,499.2,864.41l2.81,2.81c33-18.82,115-94.76,138-130.36A272.07,272.07,0,0,0,682,619.3c9.51-82.25-18.18-168.55-59.22-239.61C600.28,340.8,571.1,311,542.87,276.12a132.78,132.78,0,0,0-28.58-23.72l-4.71,4.71Z"/><path id="Trazado_408" data-name="Trazado 408" d="M509.61,257.14l-33-14.14,9.43-23.57L519,210l-4.72,42.42Z"/></svg>