<?xml version="1.0" ?><!DOCTYPE svg  PUBLIC '-//W3C//DTD SVG 1.1//EN'  'http://www.w3.org/Graphics/SVG/1.1/DTD/svg11.dtd'><svg width="513px" height="513px" viewBox="0 0 513 513" style="fill-rule:evenodd;clip-rule:evenodd;stroke-linejoin:round;stroke-miterlimit:2;" version="1.1" xml:space="preserve" xmlns="http://www.w3.org/2000/svg" xmlns:serif="http://www.serif.com/" xmlns:xlink="http://www.w3.org/1999/xlink"><g transform="matrix(1,0,0,1,-1171,-614)"><g id="pumpkin-spice-latte" transform="matrix(1.35364,0,0,0.670162,600.09,112.116)"><rect height="763.994" style="fill:none;" width="378.238" x="421.762" y="748.988"/><g transform="matrix(2.15328,-0.0102036,0.00285847,2.4611,-2802.14,-2651.51)"><path d="M1533.11,1503.34C1535.74,1441.81 1623.58,1438.1 1634.71,1439.33C1670.47,1443.29 1656.38,1477.4 1655.44,1484.5C1651.83,1511.72 1601.57,1573.56 1620.71,1568.3C1710.71,1543.57 1536.09,1683.2 1522.32,1654.31C1508.97,1626.29 1553.79,1531.91 1572.47,1541.71L1572.51,1541.68C1586.96,1534.13 1532.16,1525.58 1533.11,1503.34Z" style="fill:rgb(255,237,169);"/></g><g id="shadow" transform="matrix(0.711028,0,0,1.35506,26.0522,-2428.43)"><path d="M767.196,2849.35C776.744,2847.3 823.711,2845.32 836.555,2844.39C875.005,2841.6 909.759,2851.74 925.621,2854.4C940.19,2856.85 962.447,2864.53 938.665,2869.92C921.963,2873.71 888.358,2880.77 861.277,2884.04C849.607,2885.44 823.426,2885.3 811.379,2882.89C789.097,2878.45 737.193,2864.53 737.193,2864.53C722.345,2858.82 741.774,2854 767.196,2849.35Z" style="fill:rgb(80,0,0);"/></g><g><g transform="matrix(0.644514,0,0,1.35506,71.6487,-2433.39)"><path d="M718.988,2585.64L761.239,2856.69C800.566,2881.72 880.779,2887.53 948.108,2861.72L974.532,2588.18C974.532,2588.18 868.044,2524.65 718.988,2585.64Z" style="fill:rgb(202,59,59);"/></g><g transform="matrix(0.602184,0,0,1.19214,106.268,-2026.6)"><path d="M707.883,2617.6C707.883,2617.6 704.102,2589.79 706.207,2580.87C708.312,2571.94 730.712,2569.14 730.712,2569.14L750.197,2510.43C750.197,2510.43 884.784,2483.97 952.891,2510.79C963.233,2514.86 974.726,2572.56 974.726,2572.56L993.624,2575.55C993.624,2575.55 990.103,2612.42 989.586,2618.11C989.068,2623.81 862.859,2683.28 707.883,2617.6Z" style="fill:white;"/></g><g transform="matrix(0.837367,0,0,1.69138,-86.151,-3412.4)"><path d="M751.562,2666.83C751.674,2666.83 815.166,2683.75 865.224,2684.09C880.657,2684.19 935.018,2672.78 935.018,2672.78C939.003,2672.26 932.607,2707.35 930.035,2708.01C914.676,2711.98 797.622,2695.71 751.786,2681.89C747.971,2680.74 743.444,2666.61 751.562,2666.83Z" style="fill:rgb(139,50,50);"/></g><g transform="matrix(0.738747,0,0,1.49218,-443.314,-167.296)"><path d="M1405.57,1037.31C1401.76,1037.92 1381.24,1038.56 1372.43,1036.32C1345.62,1029.49 1358.46,1032.8 1357.83,1031.29C1356.28,1027.56 1343.48,993.031 1349.1,993.732C1374.69,996.93 1386.22,1001.34 1407.83,1013.09C1408.49,1013.45 1405.15,1010.02 1404.36,1009.41C1401.31,1007.03 1398.45,1004.55 1395.33,1002.24C1386.17,995.448 1377.84,987.575 1371.01,979.102C1366.55,973.576 1363.74,966.485 1360.46,960.484C1350.49,942.264 1360.82,901.387 1366.47,905.628C1383.88,918.698 1395.89,927.497 1405.12,945.514C1411.27,957.534 1414.4,968.977 1417.57,981.595C1418.72,986.17 1418.63,990.821 1418.95,995.442C1418.97,995.734 1420.02,1001.57 1420.57,1000.4C1424.44,992.265 1424.67,983.001 1428.34,974.63C1434.76,959.961 1444.37,945.331 1453.7,931.714C1458.89,924.135 1464.05,916.991 1473.88,913.309C1475.29,912.781 1478.75,910.971 1480.36,911.173C1481.25,911.283 1481.96,915.113 1482.02,915.535C1482.79,920.533 1482.27,925.582 1483.33,930.581C1487.47,950.124 1487.16,970.643 1475.21,989.023C1469.62,997.636 1444.43,1018.04 1444.62,1018.37C1445.53,1020.04 1465.47,1013.26 1470.14,1011.73C1486.46,1006.4 1493.93,1004.65 1509.45,1005.03C1511.7,1005.08 1507.77,1028.87 1501.29,1031.29C1482.36,1038.38 1486.1,1036.09 1465.64,1034.82C1459.64,1034.44 1452.83,1035.05 1456.5,1035.13C1469.35,1035.42 1480.68,1038.67 1492.18,1043.35C1496.46,1045.09 1504.42,1047.83 1502.67,1053.19C1501.88,1055.64 1493.96,1057.17 1491.75,1057.87C1479.06,1061.92 1461.72,1056.98 1451.04,1051.43C1448.22,1049.96 1446.21,1049.16 1444.15,1048.06L1462.83,1085.65L1449.14,1088.59L1438.87,1049.38C1437.81,1056.49 1436.07,1071.11 1430.68,1078.46C1427.33,1083.04 1421.22,1094.59 1416.6,1093.06C1407,1089.87 1408.27,1077.69 1408.03,1074.96C1407.83,1072.73 1408.74,1066.82 1410.12,1063.24C1410.29,1062.8 1411.7,1057.21 1412.1,1055.94C1412.16,1055.83 1412.2,1055.76 1412.2,1055.72C1412.21,1055.62 1412.17,1055.71 1412.1,1055.94C1411.15,1057.5 1403.89,1065.79 1401.2,1068.92C1392.26,1079.34 1372.9,1087.85 1372.97,1087.47C1373.85,1082.53 1356.75,1074.37 1358.83,1069.72C1361.23,1064.38 1367.99,1056.91 1372.97,1052.96C1383.77,1044.38 1402.03,1038.34 1405.57,1037.31C1405.81,1037.27 1405.98,1037.24 1406.08,1037.2C1406.31,1037.11 1406.11,1037.15 1405.57,1037.31Z" style="fill:rgb(241,91,48);"/></g></g><g><g transform="matrix(0.579684,0,0,1.35506,119.569,-2434.88)"><path d="M764.513,2518.17C764.672,2518.2 836.889,2525.61 849.232,2526.67C873.191,2528.74 890.564,2528.08 909.319,2525.21C924.405,2522.9 939.547,2520.15 953.595,2515.09C956.787,2513.94 956.604,2515.77 955.476,2516.34C936.3,2525.89 904.845,2531.21 887.901,2533.07C843.892,2537.89 800.647,2526.58 764.437,2520.09C762.515,2519.79 762.368,2517.84 764.513,2518.17Z" style="fill:rgb(80,0,0);"/></g><g transform="matrix(0.592704,0,0,1.35506,114.795,-2433.39)"><path d="M949.224,2553.7C931.792,2570.72 885.542,2579.52 808.983,2572.36C784.996,2570.12 748.292,2563.47 736.234,2561.33C735.635,2561.23 735.137,2559.47 736.637,2559.55C773.221,2561.57 809.484,2567.82 846.009,2568.74C872.563,2569.41 899.593,2570.19 925.274,2563.29C933.566,2561.07 941.668,2557.81 947.96,2552.6C949.407,2551.72 950.864,2552.32 949.224,2553.7Z" style="fill:rgb(80,0,0);"/></g><g transform="matrix(0.568912,0,0,1.36085,152.487,-2561.05)"><path d="M807.002,2466.22C809.953,2464.52 810.832,2467.24 809.344,2468.12C796.723,2476.64 786.945,2490.25 789.995,2500.94C789.995,2500.94 798.91,2503.32 805.475,2504.89C818.135,2507.94 831.444,2511.06 841.032,2520.15C852.71,2531.23 848.563,2551.41 845.379,2565.61C843.432,2574.3 840.998,2583.3 834.016,2590.32C830.458,2593.9 824.519,2596.23 818.943,2594.35C816.695,2593.59 817.494,2592.08 819.606,2592.09C826.331,2592.1 831.424,2587.41 833.551,2582.3C838.002,2571.61 838.469,2559.9 838.129,2548.65C837.829,2538.72 838.309,2528.54 827.001,2521.96C826.202,2521.49 825.388,2521.05 824.561,2520.62C813.221,2514.7 799.625,2512.49 787.618,2507.75C785.351,2506.85 783.326,2506.05 782.64,2503.49C780.118,2493.6 786.775,2483.42 794.049,2476.2C797.85,2472.42 802.133,2468.97 807.002,2466.22Z" style="fill:rgb(80,0,0);"/></g><g transform="matrix(0.479169,0.503229,-0.228707,1.24604,809.279,-2669.14)"><path d="M786.066,2489.37C801.305,2483.29 818.61,2480.12 833.424,2483.69C846.203,2486.77 854.289,2496.22 858.226,2507.57C858.806,2509.22 863.768,2523.84 864.569,2526.12L864.642,2526.33C868.991,2541.2 877.945,2555.86 863.509,2569.57C863.509,2569.57 860.963,2573.03 859.443,2572.17C859.055,2571.95 859.119,2571.05 859.271,2570.47C867.005,2541.09 856.599,2535.14 850.312,2520.29C847.116,2512.75 846.553,2504.14 839.27,2497.25C828.972,2487.49 808.805,2488.08 793.349,2491.48C788.346,2492.59 782.884,2493.41 778.868,2496.18C775.75,2498.34 774.103,2496.17 775.808,2494.88C778.236,2492.34 782.322,2490.88 786.066,2489.37Z" style="fill:rgb(80,0,0);"/></g><g transform="matrix(0.837367,0,0,1.13032,-89.1106,-1954.19)"><path d="M799.693,2587.44C801.79,2587.24 803.097,2587.58 804.315,2587.9C806.593,2588.49 809.688,2593.2 804.687,2594.73C803.583,2595.07 800.756,2595.21 799.537,2595.05C793.803,2594.27 792.903,2591.24 793.366,2590.47C794.031,2589.35 794.678,2587.92 799.693,2587.44Z" style="fill:rgb(80,0,0);"/></g><g transform="matrix(0.560157,0.237821,-0.0814649,1.09789,332.211,-2059.03)"><path d="M859.439,2484.22C859.564,2484.2 867.375,2483.01 878.86,2493.78C885.701,2500.2 891.377,2507.64 891.618,2518.36C891.63,2518.92 891.63,2519.47 891.619,2520.03C891.497,2526.51 889.69,2532.87 887.186,2538.91C882.317,2550.52 874.452,2560.84 865.914,2569.84C864.321,2572.08 862.857,2570.71 864.263,2568.73C873.181,2555.46 881.047,2541.29 883.231,2525.57C884.639,2515.43 881.732,2505.91 873.338,2497.2C869.186,2492.89 865.551,2488.7 861.898,2487.45C859.979,2486.8 858.732,2487.04 857.744,2490.01C857.284,2491.39 855.542,2495.82 854.952,2493.93C854.37,2490.26 855.104,2485.35 859.439,2484.22Z" style="fill:rgb(80,0,0);"/></g><g transform="matrix(0.738747,0,0,1.49218,-443.314,-167.296)"><path d="M1325.07,851.406C1322.21,850.256 1316.25,851.484 1316.83,842.882C1316.97,840.895 1317.37,817.921 1317.37,817.45C1317.51,808.576 1320.83,807.936 1325.66,805.88C1329.48,804.259 1334.25,801.384 1335.93,801.085C1335.93,801.085 1347.89,759.671 1354.11,754.456C1358.4,750.852 1393.63,743.38 1463.45,744.147C1478.44,744.312 1514.5,749.856 1525.31,753.427C1530.4,755.108 1541.19,792.934 1541.56,802.53C1541.56,802.53 1553.88,808.553 1553.88,808.553C1557.32,810.538 1556.81,810.655 1557.12,813.429C1558.56,826.407 1557.99,835.68 1558.23,847.325C1558.31,850.765 1551.86,851.949 1550.97,852.124C1546.69,879.472 1536.61,1019.67 1524.25,1080.11C1524.25,1080.11 1502.05,1091.84 1492.85,1093.2C1460.96,1097.89 1428.36,1104.51 1397.02,1096.52C1383.62,1093.1 1370.86,1087.23 1359.21,1079.46C1359.21,1079.46 1335.33,925.58 1325.07,851.406ZM1335.62,852.696L1335.62,852.695L1365.24,1072.92C1380.36,1082.39 1397.42,1088.27 1415.07,1089.94C1441.2,1092.43 1490.53,1082.34 1515.23,1072.75L1542.68,854.986C1507.98,866.051 1477.34,872.27 1426.92,869.465C1398.36,867.877 1362.29,861.682 1335.62,852.696ZM1549.19,815.478C1549.52,829.984 1446.68,841.401 1403.7,835.42C1373.12,831.163 1348.52,827.087 1325.14,816.55C1323.77,821.606 1323.99,833.558 1324.35,841.836C1324.35,841.836 1398.3,870.406 1483.1,861.256C1504,859 1548.74,846.184 1550.59,845.638L1549.19,815.478ZM1548.86,814.869C1546.06,813.417 1536.25,809.025 1535.77,807.287C1535.49,806.275 1524.11,763.171 1519.35,761.658C1500.96,755.823 1470.54,753.993 1451.25,753.777C1419.95,753.427 1361.5,759.476 1359.6,762.425C1350.53,776.464 1341.33,810.432 1340.04,810.587C1339.1,810.699 1330.2,811.118 1326.22,814.38C1326.11,814.468 1326.01,814.58 1325.91,814.715C1347.52,821.942 1370.28,827.429 1400,831C1495.94,842.53 1544.16,814.536 1549.15,815.017L1548.86,814.869Z" style="fill:rgb(80,0,0);"/></g></g></g></g></svg>