<?xml version="1.0" encoding="iso-8859-1"?>
<!-- Uploaded to SVGRepo https://www.svgrepo.com -->
<svg version="1.1" id="Capa_1" xmlns="http://www.w3.org/2000/svg" xmlns:xlink="http://www.w3.org/1999/xlink" x="0px" y="0px"
	 viewBox="0 0 512 512" style="enable-background:new 0 0 512 512;" xml:space="preserve">
<g>
	<path style="fill:#B6DCFF;" d="M205.484,0l35.695,420.825h-36.835c-4.933,0-9.172-3.482-10.136-8.312l-3.244-16.386l-69.68-351.539
		c-0.84-4.239,1.057-8.551,4.747-10.82l52.661-32.244c0.788-0.487,1.648-0.86,2.539-1.109c0.922-0.28,1.876-0.415,2.85-0.415
		H205.484z"/>
	<path style="fill:#B6DCFF;" d="M382.508,44.588l-69.68,351.539l-3.244,16.386c-0.954,4.83-5.203,8.312-10.136,8.312h-36.835
		L298.318,0h21.392c0.974,0,1.938,0.135,2.871,0.415c0.881,0.249,1.731,0.622,2.529,1.109l52.661,32.244
		C381.45,36.037,383.347,40.348,382.508,44.588z"/>
	<path style="fill:#8ECBFD;" d="M312.833,396.123l-3.245,16.388c-0.961,4.836-5.208,8.318-10.137,8.318h-95.107
		c-4.929,0-9.176-3.482-10.137-8.318l-3.245-16.388c0.754-0.031,1.509-0.052,2.273-0.052h117.323
		C311.324,396.071,312.078,396.092,312.833,396.123z"/>
	<path style="fill:#8ECBFD;" d="M382.509,44.588l-72.921,367.923c-0.961,4.836-5.208,8.318-10.137,8.318H278.64
		c5.094,0,9.476-3.596,10.468-8.597l75.339-380.117c0.496-2.501,0.072-5.022-1.085-7.171l14.405,8.825
		C381.455,36.032,383.346,40.351,382.509,44.588z"/>
	<g>
		<g>
			<path style="fill:#DAEDFF;" d="M322.577,0.413l-50.271,395.658l-1.695,13.361h-37.427l-1.695-13.361L181.229,0.413
				C182.149,0.134,183.11,0,184.081,0h135.633C320.686,0,321.647,0.134,322.577,0.413z"/>
		</g>
	</g>
	<polygon style="fill:#B6DCFF;" points="272.306,396.071 270.611,409.432 233.184,409.432 231.49,396.071 	"/>
	<g>
		<path style="fill:#DAEDFF;" d="M338.865,468.007H164.93v-32.273c0-15.633,12.673-28.306,28.306-28.306h117.323
			c15.633,0,28.306,12.673,28.306,28.306V468.007z"/>
		<path style="fill:#B6DCFF;" d="M338.862,435.731v32.281h-21.813v-32.281c0-15.634-12.669-28.303-28.303-28.303h21.813
			C326.193,407.428,338.862,420.097,338.862,435.731z"/>
	</g>
	<path style="fill:#FFF5F5;" d="M389.63,512H122.37c-5.707,0-10.333-4.626-10.333-10.333v-26.192
		c0-5.707,4.626-10.333,10.333-10.333H389.63c5.707,0,10.333,4.626,10.333,10.333v26.192C399.964,507.374,395.337,512,389.63,512z"
		/>
	<path style="fill:#EFE2DD;" d="M399.962,475.472v26.195c0,5.704-4.629,10.333-10.333,10.333h-22.816
		c5.704,0,10.333-4.629,10.333-10.333v-26.195c0-5.704-4.629-10.333-10.333-10.333h22.816
		C395.333,465.139,399.962,469.768,399.962,475.472z"/>
	<path style="fill:#FFB54E;" d="M272.81,445.844H239.19c-4.293,0-7.773-3.48-7.773-7.773s3.48-7.773,7.773-7.773h33.619
		c4.294,0,7.773,3.48,7.773,7.773S277.103,445.844,272.81,445.844z"/>
</g>
<g>
</g>
<g>
</g>
<g>
</g>
<g>
</g>
<g>
</g>
<g>
</g>
<g>
</g>
<g>
</g>
<g>
</g>
<g>
</g>
<g>
</g>
<g>
</g>
<g>
</g>
<g>
</g>
<g>
</g>
</svg>
