<?xml version="1.0" encoding="iso-8859-1"?>
<!-- Uploaded to SVGRepo https://www.svgrepo.com -->
<svg version="1.1" id="Capa_1" xmlns="http://www.w3.org/2000/svg" xmlns:xlink="http://www.w3.org/1999/xlink" x="0px" y="0px"
	 viewBox="0 0 512 512" style="enable-background:new 0 0 512 512;" xml:space="preserve">
<g>
	<g>
		<path style="fill:#8998DD;" d="M512,144.596v222.808c0,5.759-4.677,10.436-10.436,10.436H298.732V134.16h202.832
			C507.323,134.16,512,138.838,512,144.596z"/>
		<path style="fill:#6D80D6;" d="M512,144.596v222.808c0,5.759-4.677,10.436-10.436,10.436h-24.663
			c5.769,0,10.446-4.677,10.446-10.436V144.596c0-5.759-4.677-10.436-10.446-10.436h24.663C507.323,134.16,512,138.838,512,144.596z
			"/>
		<path style="fill:#65BAFC;" d="M321.118,134.16V377.84H10.436C4.677,377.84,0,373.162,0,367.404V321.2
			c0-5.151,3.77-9.498,8.87-10.312c26.486-4.244,46.719-27.207,46.719-54.888S35.356,205.356,8.87,201.112
			C3.77,200.298,0,195.951,0,190.8v-46.204c0-5.759,4.677-10.436,10.436-10.436H321.118z"/>
		<rect x="298.732" y="134.16" style="fill:#2EA8FC;" width="22.386" height="243.679"/>
		<g>
			<g>
				<g>
					<path style="fill:#FFCE8B;" d="M472.134,242.285l-22.364,21.793l5.279,30.779c0.79,4.61-4.046,8.121-8.189,5.948
						l-27.636-14.528l-27.636,14.528c-4.143,2.173-8.979-1.339-8.189-5.948l2.857-16.664l2.421-14.115l-22.364-21.793
						c-3.346-3.264-1.496-8.956,3.128-9.625l30.899-4.489l13.822-28.004c2.068-4.196,8.054-4.196,10.122,0l13.822,28.004
						l10.295,1.496l20.604,2.993C473.631,233.329,475.481,239.022,472.134,242.285z"/>
					<path style="fill:#FFB54E;" d="M472.134,242.285l-22.364,21.793l5.279,30.779c0.79,4.61-4.046,8.121-8.189,5.948
						l-27.636-14.528l-27.636,14.528c-4.143,2.173-8.979-1.339-8.189-5.948l2.857-16.664c42.886-7.828,57.369-31.373,62.144-48.526
						l20.604,2.993C473.631,233.329,475.481,239.022,472.134,242.285z"/>
				</g>
			</g>
		</g>
		<g>
			<path style="fill:#DAEDFF;" d="M328.844,134.16v26.331c0,4.265-3.451,7.726-7.726,7.726c-4.265,0-7.726-3.462-7.726-7.726V134.16
				H328.844z"/>
			<path style="fill:#DAEDFF;" d="M321.121,221.196c-4.268,0-7.726-3.459-7.726-7.726v-20.894c0-4.267,3.459-7.726,7.726-7.726
				s7.726,3.459,7.726,7.726v20.894C328.847,217.737,325.388,221.196,321.121,221.196z"/>
			<path style="fill:#DAEDFF;" d="M321.121,274.174c-4.268,0-7.726-3.459-7.726-7.726v-20.894c0-4.267,3.459-7.726,7.726-7.726
				s7.726,3.459,7.726,7.726v20.894C328.847,270.714,325.388,274.174,321.121,274.174z"/>
			<path style="fill:#DAEDFF;" d="M321.121,327.15c-4.268,0-7.726-3.459-7.726-7.726V298.53c0-4.267,3.459-7.726,7.726-7.726
				s7.726,3.459,7.726,7.726v20.894C328.847,323.691,325.388,327.15,321.121,327.15z"/>
			<path style="fill:#DAEDFF;" d="M328.844,351.508v26.331h-15.453v-26.331c0-4.265,3.462-7.726,7.726-7.726
				C325.393,343.782,328.844,347.243,328.844,351.508z"/>
		</g>
	</g>
	<g>
		<g>
			<g>
				<path style="fill:#DAEDFF;" d="M146.298,281.228l0-64.707c0-4.476-1.88-8.822-5.356-11.643
					c-5.083-4.126-12.102-4.338-17.352-0.825l-23.9,15.997c-3.349,2.241-4.246,6.773-2.005,10.121l8.116,12.126
					c2.241,3.349,6.773,4.246,10.121,2.005l1.193-0.798v37.723h-10.542c-4.029,0-7.296,3.266-7.296,7.296v14.592
					c0,4.029,3.266,7.296,7.296,7.296h50.267c4.029,0,7.296-3.266,7.296-7.296v-14.592c0-4.029-3.266-7.296-7.296-7.296H146.298z"/>
			</g>
		</g>
		<g>
			<path style="fill:#0097FA;" d="M220.944,216.529h-19.928c-4.268,0-7.726-3.459-7.726-7.726c0-4.267,3.459-7.726,7.726-7.726
				h19.928c4.268,0,7.726,3.459,7.726,7.726C228.67,213.07,225.211,216.529,220.944,216.529z"/>
			<path style="fill:#0097FA;" d="M254.94,256.97h-53.924c-4.268,0-7.726-3.459-7.726-7.726c0-4.267,3.459-7.726,7.726-7.726h53.924
				c4.268,0,7.726,3.459,7.726,7.726C262.666,253.511,259.207,256.97,254.94,256.97z"/>
			<path style="fill:#0097FA;" d="M276.573,282.499h-75.557c-4.268,0-7.726-3.459-7.726-7.726c0-4.267,3.459-7.726,7.726-7.726
				h75.557c4.268,0,7.726,3.459,7.726,7.726C284.3,279.04,280.841,282.499,276.573,282.499z"/>
			<path style="fill:#0097FA;" d="M276.573,308.027h-75.557c-4.268,0-7.726-3.459-7.726-7.726c0-4.267,3.459-7.726,7.726-7.726
				h75.557c4.268,0,7.726,3.459,7.726,7.726C284.3,304.568,280.841,308.027,276.573,308.027z"/>
		</g>
	</g>
	<g>
		<path style="fill:#FFCE8B;" d="M57.559,177.7H35.92c-4.268,0-7.726-3.459-7.726-7.726s3.459-7.726,7.726-7.726h21.64
			c4.268,0,7.726,3.459,7.726,7.726S61.827,177.7,57.559,177.7z"/>
		<path style="fill:#FFCE8B;" d="M476.08,177.7h-21.64c-4.268,0-7.726-3.459-7.726-7.726s3.459-7.726,7.726-7.726h21.64
			c4.268,0,7.726,3.459,7.726,7.726S480.348,177.7,476.08,177.7z"/>
	</g>
</g>
<g>
</g>
<g>
</g>
<g>
</g>
<g>
</g>
<g>
</g>
<g>
</g>
<g>
</g>
<g>
</g>
<g>
</g>
<g>
</g>
<g>
</g>
<g>
</g>
<g>
</g>
<g>
</g>
<g>
</g>
</svg>
