<?xml version="1.0" encoding="iso-8859-1"?>
<!-- Uploaded to SVGRepo https://www.svgrepo.com -->
<svg version="1.1" id="Capa_1" xmlns="http://www.w3.org/2000/svg" xmlns:xlink="http://www.w3.org/1999/xlink" x="0px" y="0px"
	 viewBox="0 0 512 512" style="enable-background:new 0 0 512 512;" xml:space="preserve">
<g>
	<g>
		<g>
			<path style="fill:#FFF5F5;" d="M512,88.603v334.793c0,5.692-4.62,10.312-10.312,10.312H10.312C4.62,433.708,0,429.089,0,423.397
				V88.603c0-5.692,4.62-10.312,10.312-10.312h491.376C507.38,78.292,512,82.911,512,88.603z"/>
			<path style="fill:#EFE2DD;" d="M512,88.603v334.793c0,5.692-4.62,10.312-10.312,10.312h-23.408
				c5.692,0,10.312-4.62,10.312-10.312V88.603c0-5.692-4.62-10.312-10.312-10.312h23.408C507.38,78.292,512,82.911,512,88.603z"/>
		</g>
		<g>
			<g>
				<path style="fill:#FFC26D;" d="M58.976,160.633c-16.48,0-29.887-13.407-29.887-29.887c0-4.268,3.459-7.726,7.726-7.726
					s7.726,3.459,7.726,7.726c0,7.96,6.475,14.435,14.435,14.435s14.435-6.475,14.435-14.435s-6.475-14.436-14.435-14.436
					c-4.268,0-7.726-3.459-7.726-7.726c0-4.268,3.459-7.726,7.726-7.726h82.368c4.268,0,7.726,3.459,7.726,7.726
					c0,4.268-3.459,7.726-7.726,7.726H85.141c2.371,4.282,3.722,9.204,3.722,14.436C88.863,147.225,75.456,160.633,58.976,160.633z"
					/>
				<path style="fill:#FFC26D;" d="M141.344,411.143H58.976c-4.268,0-7.726-3.459-7.726-7.726s3.459-7.726,7.726-7.726
					c7.96,0,14.435-6.476,14.435-14.436c0-7.96-6.475-14.435-14.435-14.435s-14.435,6.475-14.435,14.435
					c0,4.268-3.459,7.726-7.726,7.726s-7.726-3.459-7.726-7.726c0-16.48,13.407-29.887,29.887-29.887s29.887,13.407,29.887,29.887
					c0,5.231-1.351,10.154-3.722,14.436h56.203c4.268,0,7.726,3.459,7.726,7.726S145.612,411.143,141.344,411.143z"/>
			</g>
			<g>
				<path style="fill:#FFC26D;" d="M453.024,160.633c-16.48,0-29.887-13.407-29.887-29.887c0-5.231,1.351-10.154,3.722-14.436
					h-56.203c-4.268,0-7.726-3.459-7.726-7.726c0-4.268,3.459-7.726,7.726-7.726h82.368c4.268,0,7.726,3.459,7.726,7.726
					c0,4.268-3.459,7.726-7.726,7.726c-7.96,0-14.435,6.476-14.435,14.436s6.475,14.435,14.435,14.435
					c7.96,0,14.435-6.475,14.435-14.435c0-4.268,3.459-7.726,7.726-7.726s7.726,3.459,7.726,7.726
					C482.911,147.225,469.504,160.633,453.024,160.633z"/>
				<path style="fill:#FFC26D;" d="M453.024,411.143h-82.368c-4.268,0-7.726-3.459-7.726-7.726s3.459-7.726,7.726-7.726h56.203
					c-2.371-4.282-3.722-9.204-3.722-14.436c0-16.48,13.407-29.887,29.887-29.887s29.887,13.407,29.887,29.887
					c0,4.268-3.459,7.726-7.726,7.726s-7.726-3.459-7.726-7.726c0-7.96-6.475-14.435-14.435-14.435
					c-7.96,0-14.435,6.475-14.435,14.435c0,7.96,6.475,14.436,14.435,14.436c4.268,0,7.726,3.459,7.726,7.726
					S457.292,411.143,453.024,411.143z"/>
			</g>
		</g>
	</g>
	<g>
		<g>
			<g>
				<g>
					<g>
						<path style="fill:#F37D7E;" d="M196.035,244.079v94.529c0,8.324-9.272,13.3-16.215,8.705l-25.167-16.689l-25.167,16.689
							c-6.943,4.595-16.215-0.381-16.215-8.705v-94.529c0-5.759,4.677-10.436,10.436-10.436h61.883
							C191.358,233.643,196.035,238.32,196.035,244.079z"/>
						<path style="fill:#ED6264;" d="M196.035,244.079v33.378c-11.662,8.375-25.961,13.31-41.382,13.31s-29.721-4.934-41.382-13.31
							v-33.378c0-5.759,4.677-10.436,10.436-10.436h61.883C191.358,233.643,196.035,238.32,196.035,244.079z"/>
					</g>
				</g>
			</g>
			<g>
				<g>
					<circle style="fill:#FFC26D;" cx="154.652" cy="219.641" r="56.707"/>
					<path style="fill:#FFA730;" d="M211.359,219.645c0,31.315-25.392,56.707-56.707,56.707c-3.632,0-7.191-0.34-10.638-1.001
						c26.238-4.973,46.079-28.023,46.079-55.706c0-27.693-19.841-50.733-46.079-55.706c3.446-0.66,7.006-1.001,10.638-1.001
						C185.966,162.938,211.359,188.32,211.359,219.645z"/>
				</g>
				<path style="fill:#FFA730;" d="M167.657,231.421h-3.038v-30.912c0-2.678-1.386-5.165-3.664-6.572
					c-2.28-1.407-5.123-1.535-7.518-0.338l-12.533,6.267c-3.816,1.908-5.363,6.549-3.455,10.366
					c1.907,3.817,6.548,5.362,10.366,3.455l1.351-0.676v18.411h-3.038c-4.268,0-7.726,3.459-7.726,7.726s3.459,7.726,7.726,7.726
					h21.529c4.268,0,7.726-3.459,7.726-7.726S171.925,231.421,167.657,231.421z"/>
			</g>
		</g>
		<path style="fill:#65BAFC;" d="M403.754,233.641H267.389c-5.69,0-10.302-4.612-10.302-10.302v-20.125
			c0-5.69,4.612-10.302,10.302-10.302h136.365c5.69,0,10.302,4.612,10.302,10.302v20.125
			C414.056,229.028,409.443,233.641,403.754,233.641z"/>
		<path style="fill:#2EA8FC;" d="M414.061,203.214v20.13c0,5.687-4.615,10.302-10.302,10.302h-17.915
			c5.687,0,10.302-4.615,10.302-10.302v-20.13c0-5.687-4.615-10.302-10.302-10.302h17.915
			C409.445,192.912,414.061,197.527,414.061,203.214z"/>
		<path style="fill:#E0D3CE;" d="M414.055,272.998H257.088c-4.268,0-7.726-3.459-7.726-7.726s3.459-7.726,7.726-7.726h156.968
			c4.268,0,7.726,3.459,7.726,7.726S418.323,272.998,414.055,272.998z"/>
		<path style="fill:#E0D3CE;" d="M414.055,305.395H257.088c-4.268,0-7.726-3.459-7.726-7.726s3.459-7.726,7.726-7.726h156.968
			c4.268,0,7.726,3.459,7.726,7.726S418.323,305.395,414.055,305.395z"/>
		<path style="fill:#E0D3CE;" d="M323.237,337.793h-66.15c-4.268,0-7.726-3.459-7.726-7.726s3.459-7.726,7.726-7.726h66.15
			c4.268,0,7.726,3.459,7.726,7.726S327.505,337.793,323.237,337.793z"/>
	</g>
</g>
<g>
</g>
<g>
</g>
<g>
</g>
<g>
</g>
<g>
</g>
<g>
</g>
<g>
</g>
<g>
</g>
<g>
</g>
<g>
</g>
<g>
</g>
<g>
</g>
<g>
</g>
<g>
</g>
<g>
</g>
</svg>
