<?xml version="1.0" encoding="iso-8859-1"?>
<!-- Uploaded to SVGRepo https://www.svgrepo.com -->
<svg version="1.1" id="Capa_1" xmlns="http://www.w3.org/2000/svg" xmlns:xlink="http://www.w3.org/1999/xlink" x="0px" y="0px"
	 viewBox="0 0 512 512" style="enable-background:new 0 0 512 512;" xml:space="preserve">
<g>
	<path style="fill:#FFF5F5;" d="M512,81.406v303.888c0,5.692-4.62,10.312-10.312,10.312H10.312C4.62,395.605,0,390.985,0,385.293
		V81.406c0-5.692,4.62-10.312,10.312-10.312h491.376C507.38,71.094,512,75.713,512,81.406z"/>
	<path style="fill:#EFE2DD;" d="M325.677,314.039l-19.758,19.252l4.661,27.192c1.041,6.063-0.629,12.219-4.568,16.901
		c-3.733,4.424-9.085,7.084-14.808,7.394v10.827h-70.409v-10.827c-5.723-0.309-11.065-2.97-14.808-7.394
		c-3.939-4.681-5.61-10.838-4.568-16.901l4.661-27.192l-19.758-19.252c-5.713-5.568-7.724-13.735-5.259-21.314
		c2.475-7.59,8.899-13.003,16.787-14.148l27.295-3.97l12.209-24.738c3.516-7.146,10.662-11.59,18.644-11.59
		s15.127,4.444,18.654,11.601l12.199,24.728l27.296,3.97c7.888,1.145,14.313,6.558,16.787,14.148
		C333.4,300.304,331.389,308.471,325.677,314.039z"/>
	<path style="fill:#EFE2DD;" d="M512,81.406v303.888c0,5.692-4.62,10.312-10.312,10.312h-23.408c5.692,0,10.312-4.62,10.312-10.312
		V81.406c0-5.692-4.62-10.312-10.312-10.312h23.408C507.38,71.094,512,75.713,512,81.406z"/>
	<path style="fill:#EFE2DD;" d="M105.225,362.35c-11.05,0-20.831-7.371-23.788-17.925c-3.925-14.01-15.074-25.125-29.094-29.006
		c-10.601-2.934-18.004-12.725-18.004-23.809v-116.52c0-11.084,7.404-20.875,18.004-23.809
		c14.021-3.881,25.169-14.995,29.096-29.007c2.956-10.553,12.737-17.924,23.787-17.924h301.551c11.05,0,20.831,7.371,23.788,17.925
		c3.925,14.011,15.074,25.125,29.094,29.006c10.601,2.934,18.004,12.725,18.004,23.809v116.52c0,11.085-7.404,20.875-18.004,23.809
		c-14.021,3.88-25.169,14.995-29.095,29.007c-2.956,10.553-12.737,17.924-23.787,17.924H105.225z"/>
	<path style="fill:#8ECBFD;" d="M463.225,175.088v116.523c0,4.578-3.001,8.672-7.414,9.899
		c-18.933,5.228-33.854,20.118-39.154,39.02c-1.227,4.403-5.311,7.383-9.879,7.383H105.221c-4.568,0-8.652-2.98-9.879-7.383
		c-5.3-18.901-20.221-33.792-39.154-39.02c-4.413-1.227-7.414-5.321-7.414-9.899V175.088c0-4.578,3.001-8.672,7.414-9.899
		c18.933-5.228,33.854-20.118,39.154-39.02c1.227-4.403,5.311-7.383,9.879-7.383h301.557c4.568,0,8.651,2.98,9.879,7.383
		c5.3,18.901,20.221,33.792,39.154,39.02C460.225,166.416,463.225,170.51,463.225,175.088z"/>
	<path style="fill:#65BAFC;" d="M325.677,314.039l-19.758,19.252l2.506,14.622h-104.85l2.506-14.622l-19.758-19.252
		c-5.713-5.568-7.724-13.735-5.259-21.314c2.475-7.59,8.899-13.003,16.787-14.148l27.295-3.97l12.209-24.738
		c3.516-7.146,10.662-11.59,18.644-11.59s15.127,4.444,18.654,11.601l12.199,24.728l27.296,3.97
		c7.888,1.145,14.313,6.558,16.787,14.148C333.4,300.304,331.389,308.471,325.677,314.039z"/>
	<g>
		<path style="fill:#F37D7E;" d="M267.167,439.866L256,432.463l-11.167,7.403c-4.113,2.726-9.606-0.223-9.606-5.157v-88.156h41.544
			v88.156C276.772,439.643,271.279,442.592,267.167,439.866z"/>
		<g>
			<g>
				<path style="fill:#FFCE8B;" d="M315.6,303.705l-25.192,24.548l5.946,34.671c0.889,5.193-4.557,9.148-9.225,6.7L256,353.259
					l-31.13,16.365c-4.667,2.448-10.114-1.508-9.225-6.7l3.219-18.771l2.728-15.9L196.4,303.705
					c-3.77-3.676-1.686-10.089,3.524-10.843l34.806-5.057l15.569-31.545c2.329-4.727,9.072-4.727,11.402,0l15.569,31.545
					l11.596,1.686l23.21,3.371C317.286,293.617,319.37,300.029,315.6,303.705z"/>
				<path style="fill:#FFB54E;" d="M315.6,303.705l-25.192,24.548l5.946,34.671c0.889,5.193-4.557,9.148-9.225,6.7L256,353.259
					l-31.13,16.365c-4.667,2.448-10.114-1.508-9.225-6.7l3.219-18.771c48.309-8.818,64.623-35.34,70.002-54.662l23.21,3.371
					C317.286,293.617,319.37,300.029,315.6,303.705z"/>
			</g>
		</g>
	</g>
	<g>
		<path style="fill:#FFCE8B;" d="M362.631,206.187H149.369c-5.695,0-10.312-4.617-10.312-10.312v-18.323
			c0-5.695,4.617-10.312,10.312-10.312h213.263c5.695,0,10.312,4.617,10.312,10.312v18.323
			C372.943,201.57,368.326,206.187,362.631,206.187z"/>
	</g>
	<g>
		<g>
			<path style="fill:#2EA8FC;" d="M369.227,259.647H328.44c-4.268,0-7.726-3.459-7.726-7.726c0-4.267,3.459-7.726,7.726-7.726
				h40.788c4.268,0,7.726,3.459,7.726,7.726C376.954,256.188,373.495,259.647,369.227,259.647z"/>
			<path style="fill:#2EA8FC;" d="M369.227,287.613h-22.153c-4.268,0-7.726-3.459-7.726-7.726c0-4.267,3.459-7.726,7.726-7.726
				h22.153c4.268,0,7.726,3.459,7.726,7.726C376.954,284.153,373.495,287.613,369.227,287.613z"/>
		</g>
		<g>
			<path style="fill:#2EA8FC;" d="M183.56,259.647h-40.788c-4.268,0-7.726-3.459-7.726-7.726c0-4.267,3.459-7.726,7.726-7.726
				h40.788c4.268,0,7.726,3.459,7.726,7.726C191.287,256.188,187.828,259.647,183.56,259.647z"/>
			<path style="fill:#2EA8FC;" d="M164.926,287.613h-22.153c-4.268,0-7.726-3.459-7.726-7.726c0-4.267,3.459-7.726,7.726-7.726
				h22.153c4.268,0,7.726,3.459,7.726,7.726C172.652,284.153,169.193,287.613,164.926,287.613z"/>
		</g>
	</g>
</g>
<g>
</g>
<g>
</g>
<g>
</g>
<g>
</g>
<g>
</g>
<g>
</g>
<g>
</g>
<g>
</g>
<g>
</g>
<g>
</g>
<g>
</g>
<g>
</g>
<g>
</g>
<g>
</g>
<g>
</g>
</svg>
