<?xml version="1.0" encoding="iso-8859-1"?>
<!-- Uploaded to SVGRepo https://www.svgrepo.com -->
<svg version="1.1" id="Capa_1" xmlns="http://www.w3.org/2000/svg" xmlns:xlink="http://www.w3.org/1999/xlink" x="0px" y="0px"
	 viewBox="0 0 512 512" style="enable-background:new 0 0 512 512;" xml:space="preserve">
<g>
	<g>
		<path style="fill:#E0D3CE;" d="M163.851,329.221v147.678h-99.6c-0.668,0-1.336-0.01-1.994-0.041
			c-4.173-0.154-8.212-0.791-12.066-1.86c-22.21-6.146-38.51-26.506-38.51-50.668v-84.831c0-5.684,4.594-10.278,10.278-10.278
			H163.851z"/>
		<path style="fill:#CDBFBB;" d="M163.851,329.221v147.658l-101.594-0.021c-4.173-0.154-8.212-0.791-12.066-1.86
			c21.943-6.043,38.068-26.136,38.078-49.99l0.031-95.787H163.851z"/>
		<path style="fill:#E0D3CE;" d="M500.318,52.59v84.831c0,5.683-4.594,10.278-10.278,10.278H348.149V0.021h99.6
			c0.668,0,1.336,0.01,1.994,0.041c4.173,0.154,8.222,0.791,12.086,1.871C484.028,8.088,500.318,28.438,500.318,52.59z"/>
		<path style="fill:#CDBFBB;" d="M461.829,1.932c-21.932,6.043-38.037,26.136-38.048,49.98l-0.031,95.787h-75.602V0.041
			l101.594,0.021C453.915,0.216,457.964,0.853,461.829,1.932z"/>
	</g>
	<path style="fill:#FFF5F5;" d="M447.327,0.072c-28.633,0-51.85,23.217-51.861,51.84l-0.103,372.449
		c0,29.034-23.546,52.57-52.58,52.559l-51.676-0.01l-70.216-0.021l-156.219-0.041c28.633,0,51.85-23.217,51.861-51.84l0.103-372.449
		c0-29.034,23.546-52.57,52.58-52.559L447.327,0.072z"/>
	<path style="fill:#EFE2DD;" d="M325.507,385.419l-19.723,19.219l4.656,27.133c1.038,6.043-0.627,12.179-4.563,16.845
		c-3.72,4.419-9.055,7.071-14.769,7.369v20.925l-70.216-0.021v-20.905c-5.714-0.298-11.048-2.95-14.769-7.369
		c-3.936-4.666-5.601-10.802-4.563-16.845l4.656-27.133l-19.712-19.209c-5.704-5.56-7.708-13.7-5.242-21.264
		c2.456-7.564,8.87-12.96,16.732-14.101l27.236-3.957l12.179-24.687c3.515-7.122,10.637-11.552,18.592-11.552
		c7.955,0,15.077,4.43,18.592,11.562l12.179,24.676l27.246,3.957c7.852,1.141,14.265,6.537,16.722,14.101
		C333.205,371.729,331.201,379.869,325.507,385.419z"/>
	<path style="fill:#EFE2DD;" d="M447.327,0.072c-28.633,0-51.85,23.217-51.861,51.84l-0.103,372.449
		c0,29.034-23.546,52.57-52.58,52.559l-24.738-0.01c28.829-0.216,52.138-23.669,52.138-52.549l0.103-372.449
		c0.01-28.623,23.227-51.84,51.861-51.84L168.774,0.01C168.918,0,169.072,0,169.216,0L447.327,0.072z"/>
	<g>
		<path style="fill:#F37D7E;" d="M267.14,510.962L256,503.577l-11.14,7.385c-4.103,2.72-9.583-0.222-9.583-5.145v-87.948h41.447
			v87.948C276.723,510.74,271.243,513.682,267.14,510.962z"/>
		<g>
			<g>
				<path style="fill:#FFCE8B;" d="M315.46,375.122l-25.133,24.49l5.932,34.589c0.887,5.18-4.547,9.127-9.203,6.685L256,424.559
					l-31.057,16.327c-4.656,2.442-10.09-1.504-9.203-6.685l3.211-18.727l2.721-15.862l-25.133-24.49
					c-3.761-3.668-1.682-10.065,3.516-10.817l34.724-5.045l15.533-31.471c2.324-4.716,9.051-4.716,11.375,0l15.533,31.471
					l11.569,1.682l23.155,3.363C317.141,365.057,319.22,371.455,315.46,375.122z"/>
				<path style="fill:#FFB54E;" d="M315.46,375.122l-25.133,24.49l5.932,34.589c0.887,5.18-4.547,9.127-9.203,6.685L256,424.559
					l-31.057,16.327c-4.656,2.442-10.09-1.504-9.203-6.685l3.211-18.727c48.195-8.797,64.471-35.257,69.837-54.533l23.155,3.363
					C317.141,365.057,319.22,371.455,315.46,375.122z"/>
			</g>
		</g>
	</g>
	<g>
		<path style="fill:#FFB54E;" d="M248.221,74.562l0.905-0.452v21.25h-2.654c-4.267,0-7.726,3.459-7.726,7.726
			s3.459,7.726,7.726,7.726h20.762c4.267,0,7.726-3.459,7.726-7.726s-3.459-7.726-7.726-7.726h-2.655V61.608
			c0-2.678-1.386-5.165-3.665-6.572c-2.278-1.408-5.122-1.536-7.517-0.338l-12.087,6.043c-3.817,1.908-5.364,6.549-3.455,10.366
			C239.764,74.923,244.404,76.472,248.221,74.562z"/>
		<path style="fill:#CDBFBB;" d="M219.799,154.106h72.402c4.267,0,7.726-3.459,7.726-7.726s-3.459-7.726-7.726-7.726h-72.402
			c-4.267,0-7.726,3.459-7.726,7.726S215.532,154.106,219.799,154.106z"/>
		<path style="fill:#CDBFBB;" d="M172.748,205.59h166.503c4.267,0,7.726-3.459,7.726-7.726c0-4.267-3.459-7.726-7.726-7.726H172.748
			c-4.267,0-7.726,3.459-7.726,7.726C165.022,202.131,168.481,205.59,172.748,205.59z"/>
		<path style="fill:#CDBFBB;" d="M339.252,221.278H172.748c-4.267,0-7.726,3.459-7.726,7.726c0,4.267,3.459,7.726,7.726,7.726
			h166.503c4.267,0,7.726-3.459,7.726-7.726C346.978,224.738,343.519,221.278,339.252,221.278z"/>
		<path style="fill:#CDBFBB;" d="M339.252,252.419H172.748c-4.267,0-7.726,3.459-7.726,7.726s3.459,7.726,7.726,7.726h166.503
			c4.267,0,7.726-3.459,7.726-7.726S343.519,252.419,339.252,252.419z"/>
	</g>
</g>
<g>
</g>
<g>
</g>
<g>
</g>
<g>
</g>
<g>
</g>
<g>
</g>
<g>
</g>
<g>
</g>
<g>
</g>
<g>
</g>
<g>
</g>
<g>
</g>
<g>
</g>
<g>
</g>
<g>
</g>
</svg>
