<?xml version="1.0" encoding="iso-8859-1"?>
<!-- Uploaded to SVGRepo https://www.svgrepo.com -->
<svg version="1.1" id="Capa_1" xmlns="http://www.w3.org/2000/svg" xmlns:xlink="http://www.w3.org/1999/xlink" x="0px" y="0px"
	 viewBox="0 0 512 512" style="enable-background:new 0 0 512 512;" xml:space="preserve">
<g>
	<path style="fill:#FFCE8B;" d="M86.229,65.087v436.632c0,5.676-4.615,10.281-10.291,10.281H63.359
		c-5.687,0-10.281-4.605-10.281-10.281V65.087c0-5.687,4.595-10.291,10.281-10.291h12.579C81.614,54.795,86.229,59.4,86.229,65.087z
		"/>
	<rect x="53.078" y="91.099" style="fill:#FFB54E;" width="33.151" height="275.388"/>
	<path style="fill:#E84649;" d="M457.433,296.549l19.559-66.026c1.956-6.602-2.992-13.228-9.878-13.228H209.785v79.254H457.433z"/>
	<path style="fill:#E84649;" d="M209.785,395.544v57.989c0,5.69,4.612,10.302,10.302,10.302h180.097
		c4.563,0,8.582-3.001,9.878-7.376l18.045-60.915H209.785z"/>
	<path style="fill:#D73337;" d="M434.389,288.904l-2.265,7.645h25.312l2.265-7.645l17.286-58.38
		c1.957-6.604-2.988-13.228-9.869-13.228h-25.312c6.892,0,11.837,6.624,9.879,13.228L434.389,288.904z"/>
	<path style="fill:#D73337;" d="M402.797,395.544l-1.302,4.393l-16.74,56.526c-1.298,4.368-5.316,7.376-9.879,7.376h25.312
		c4.564,0,8.581-3.008,9.879-7.376l16.74-56.526l1.302-4.393H402.797z"/>
	<polygon style="fill:#FFA730;" points="459.701,288.904 426.807,399.937 209.789,399.937 209.789,288.904 	"/>
	<polygon style="fill:#FA8916;" points="459.701,288.904 426.807,399.937 401.495,399.937 434.389,288.904 	"/>
	<path style="fill:#D73337;" d="M312.56,322.272v25.775c0,2.586-0.968,5.069-2.72,6.974l-97.156,105.666
		c-1.792-1.854-2.895-4.368-2.895-7.149V322.272H312.56z"/>
	<path style="fill:#ED6264;" d="M312.562,179.554v-63.73c0-5.69-4.612-10.302-10.302-10.302H51.738
		c-5.69,0-10.302,4.612-10.302,10.302v63.73H312.562z"/>
	<path style="fill:#ED6264;" d="M41.437,278.549v63.211c0,5.69,4.612,10.302,10.302,10.302H302.26
		c5.69,0,10.302-4.612,10.302-10.302v-63.211H41.437z"/>
	<path style="fill:#E84649;" d="M288.526,115.823v63.731h24.034v-63.731c0-5.687-4.615-10.302-10.302-10.302h-24.034
		C283.91,105.521,288.526,110.136,288.526,115.823z"/>
	<path style="fill:#E84649;" d="M288.526,278.549v63.213c0,5.687-4.615,10.302-10.302,10.302h24.034
		c5.687,0,10.302-4.615,10.302-10.302v-63.213H288.526z"/>
	<rect x="41.437" y="173.276" style="fill:#FFB54E;" width="271.123" height="111.033"/>
	<rect x="288.526" y="173.276" style="fill:#FFA730;" width="24.034" height="111.033"/>
	<circle style="fill:#FFB54E;" cx="69.649" cy="35.076" r="35.072"/>
	<path style="fill:#FF9A1B;" d="M104.724,35.074c0,19.368-15.706,35.075-35.075,35.075c-3.713,0-7.282-0.576-10.636-1.636
		c14.174-4.505,24.449-17.774,24.449-33.439c0-15.665-10.276-28.934-24.449-33.439C62.367,0.576,65.936,0,69.649,0
		C89.017,0,104.724,15.706,104.724,35.074z"/>
	<g>
		<path style="fill:#65BAFC;" d="M201.747,266.53l0-103.649c0-5.46-2.293-10.76-6.533-14.201c-6.2-5.032-14.762-5.292-21.165-1.006
			l-29.152,19.512c-4.084,2.734-5.179,8.261-2.445,12.345l9.9,14.791c2.734,4.084,8.261,5.179,12.345,2.445l1.455-0.974v70.736
			h-12.858c-4.915,0-8.899,3.984-8.899,8.899v17.798c0,4.915,3.984,8.899,8.899,8.899h61.312c4.915,0,8.899-3.984,8.899-8.899
			v-17.798c0-4.915-3.984-8.899-8.899-8.899H201.747z"/>
	</g>
</g>
<g>
</g>
<g>
</g>
<g>
</g>
<g>
</g>
<g>
</g>
<g>
</g>
<g>
</g>
<g>
</g>
<g>
</g>
<g>
</g>
<g>
</g>
<g>
</g>
<g>
</g>
<g>
</g>
<g>
</g>
</svg>
