<?xml version="1.0" encoding="iso-8859-1"?>
<!-- Uploaded to SVGRepo https://www.svgrepo.com -->
<svg version="1.1" id="Capa_1" xmlns="http://www.w3.org/2000/svg" xmlns:xlink="http://www.w3.org/1999/xlink" x="0px" y="0px"
	 viewBox="0 0 512 512" style="enable-background:new 0 0 512 512;" xml:space="preserve">
<g>
	<g>
		<g>
			<path style="fill:#FFBC8A;" d="M447.561,197.464l-35.273,21.819l-159.245,98.516c-10.055,6.212-21.459,9.931-33.254,10.817
				l-7.139,0.525c-21.592,1.628-42.484,8.406-60.904,19.81l-16.421,10.158l-16.153,9.993c-4.862,3.008-11.239,1.504-14.257-3.369
				L16.401,222.662c-3.008-4.873-1.504-11.25,3.358-14.258l12.012-7.438c15.401-9.529,28.598-21.912,38.971-36.334
				c10.374-14.402,17.946-30.833,22.097-48.46c4.533-19.254,16.524-35.902,33.347-46.317L230.781,5.161
				C236.426,1.669,242.679,0,248.86,0c11.528,0,22.787,5.79,29.298,16.318c5.604,9.066,6.5,19.697,3.358,29.061
				c-2.472,7.355-7.417,13.918-14.526,18.316l23.56-14.577l70.845-43.824c4.275-2.647,9.024-3.904,13.712-3.904
				c8.746,0,17.276,4.389,22.21,12.362c1.988,3.214,3.194,6.696,3.667,10.219c1.288,9.529-2.771,19.357-11.147,25.064
				c-0.319,0.216-0.649,0.433-0.979,0.639l21.067-13.032c4.275-2.648,9.004-3.904,13.701-3.904c8.736,0,17.266,4.389,22.211,12.372
				c1.978,3.204,3.183,6.665,3.668,10.168c0.742,5.429-0.258,10.961-2.802,15.772v0.01c-1.875,3.533-4.564,6.665-8.015,9.086
				c-0.134,0.103-0.258,0.185-0.392,0.278l-0.062,0.041c-0.278,0.196-0.566,0.371-0.855,0.556l-21.067,13.032
				c12.105-7.489,27.959-3.873,35.644,8.035c2.153,3.327,3.41,6.995,3.853,10.704c1.164,9.684-3.204,19.728-11.744,25.435
				l-0.041,0.031c-0.247,0.165-0.494,0.33-0.752,0.484l-22.674,14.021c12.105-7.479,27.959-3.873,35.644,8.035
				C464.178,173.101,459.995,189.769,447.561,197.464z"/>
			<path style="fill:#F5A871;" d="M412.287,219.285L253.046,317.8c-10.055,6.214-21.457,9.931-33.253,10.812l-7.146,0.528
				c-21.592,1.626-42.48,8.409-60.903,19.811l-16.424,10.159l-33.449-103.144c-8.316-25.662,5.789-53.301,31.44-61.628
				c4.909-1.584,9.983-2.392,15.099-2.392c1.74,0,3.459,0.093,5.157,0.269l-20.453-63.088c-3.345-10.314-2.475-21.312,2.454-30.964
				c4.929-9.662,13.317-16.818,23.632-20.163c4.07-1.326,8.285-1.988,12.531-1.988c0.466,0,0.932,0,1.388,0.021
				c0.135-6.027,1.626-12.002,4.453-17.532c4.919-9.662,13.318-16.818,23.632-20.163c4.06-1.326,8.274-1.988,12.531-1.988
				c12.996,0,24.833,6.12,32.341,16.052c3.428-2.692,7.353-4.867,11.671-6.358c4.184-1.439,8.554-2.175,12.966-2.175
				c3.697,0,7.322,0.518,10.801,1.512c-2.465,7.352-7.415,13.918-14.519,18.319l23.56-14.581c5.54,3.107,10.377,7.477,14.022,12.758
				c3.314-2.537,7.083-4.588,11.215-6.017c4.194-1.439,8.554-2.175,12.976-2.175c17.553,0,33.626,11.754,39.083,28.582
				L412.287,219.285z"/>
			<path style="fill:#F5A871;" d="M389.84,49.036l-124.239,76.861c-1.267,0.783-2.668,1.164-4.059,1.164
				c-2.586,0-5.11-1.308-6.573-3.667c-2.246-3.626-1.123-8.386,2.503-10.631l143.514-88.791
				C402.274,33.501,398.215,43.329,389.84,49.036z"/>
			<path style="fill:#F5A871;" d="M446.706,71.051v0.01c-1.875,3.533-4.564,6.665-8.015,9.086l-145.626,90.13
				c-1.267,0.793-2.679,1.164-4.059,1.164c-2.586,0-5.12-1.298-6.583-3.667c-2.246-3.626-1.123-8.386,2.504-10.631L449.508,55.279
				C450.25,60.708,449.25,66.24,446.706,71.051z"/>
			<path style="fill:#F5A871;" d="M444.069,138.229l-0.041,0.031l-123.508,76.398c-1.267,0.793-2.668,1.164-4.059,1.164
				c-2.586,0-5.12-1.298-6.583-3.667c-2.236-3.626-1.123-8.386,2.514-10.631l143.421-88.729
				C456.977,122.478,452.609,132.522,444.069,138.229z"/>
		</g>
		<g>
			<path style="fill:#FDD1A7;" d="M435.91,459.583l-160.038,51.91c-5.439,1.762-11.28-1.216-13.052-6.655l-4.358-13.444
				c-5.584-17.225-14.474-32.986-26.002-46.502c-11.528-13.505-25.693-24.765-41.815-32.996
				c-17.616-8.983-30.936-24.601-37.045-43.412l-37.941-116.997c-1.144-3.523-1.689-7.098-1.689-10.621
				c0-14.515,9.261-28.011,23.818-32.739c6.542-2.122,13.269-2.174,19.46-0.525c9.642,2.575,17.987,9.282,22.375,18.77
				c0.587,1.246,1.092,2.545,1.525,3.884l-34.243-105.593c-0.865-2.679-1.277-5.388-1.277-8.066
				c0-11.002,7.015-21.232,18.049-24.807c3.575-1.164,7.222-1.504,10.724-1.133c9.066,0.927,17.245,6.603,21.119,15.247
				c0.391,0.855,0.731,1.741,1.03,2.658L188.904,85c-0.865-2.679-1.277-5.388-1.277-8.066c0-11.002,7.015-21.232,18.049-24.807
				c3.709-1.205,7.489-1.535,11.116-1.092c9.807,1.164,18.512,7.86,21.757,17.863l7.644,23.56c-0.113-0.34-0.206-0.67-0.299-1.01
				l-0.021-0.082c-3.688-13.227,3.564-27.114,16.607-31.616c3.77-1.308,7.654-1.659,11.384-1.195
				c9.941,1.236,18.862,8.252,22.149,18.358l8.221,25.363c-0.196-0.587-0.361-1.185-0.505-1.782
				c-3.235-13.022,3.987-26.506,16.802-30.926c13.825-4.78,29.02,3.255,33.532,17.173l70.557,217.563
				c3.647,11.25,4.533,23.21,2.586,34.871l-1.185,7.067c-3.575,21.356-1.947,43.267,4.728,63.861l11.816,36.437
				C444.336,451.98,441.349,457.821,435.91,459.583z"/>
			<path style="fill:#FFBC8A;" d="M354.049,86.703l70.569,217.599c3.647,11.245,4.537,23.211,2.582,34.874l-1.177,7.061
				c-3.574,21.361-1.953,43.268,4.727,63.868l11.818,36.44c1.764,5.44-1.216,11.281-6.656,13.045l-14.546,4.717l-15.012-46.29
				c-6.681-20.6-8.301-42.506-4.727-63.868l1.177-7.061c1.955-11.663,1.065-23.629-2.582-34.874l-70.74-218.125
				c-3.007-9.273-10.709-15.705-19.628-17.516c3.098-3.386,7.135-5.997,11.874-7.387C335.364,65.183,349.664,73.184,354.049,86.703z
				"/>
			<path style="fill:#FFBC8A;" d="M243.72,278.694c-0.793,0.258-1.597,0.371-2.38,0.371c-3.266,0-6.294-2.071-7.355-5.336
				L174.399,90.656c9.066,0.927,17.245,6.603,21.119,15.247l53.167,163.056C250.004,273.018,247.779,277.375,243.72,278.694z"/>
			<path style="fill:#FFBC8A;" d="M293.364,262.592c-0.793,0.258-1.597,0.381-2.39,0.381c-3.255,0-6.284-2.081-7.345-5.347
				L216.791,51.035c9.807,1.164,18.512,7.86,21.757,17.863l59.781,183.959C299.648,256.916,297.423,261.273,293.364,262.592z"/>
			<path style="fill:#FFBC8A;" d="M343.008,246.49c-0.793,0.258-1.597,0.381-2.39,0.381c-3.256,0-6.284-2.081-7.345-5.347
				l-59.41-182.97c9.941,1.236,18.862,8.252,22.149,18.358l51.962,159.842C349.292,240.814,347.067,245.172,343.008,246.49z"/>
			<path style="fill:#FFBC8A;" d="M201.699,319.025c-0.793,0.258-1.597,0.381-2.39,0.381c-3.255,0-6.284-2.071-7.345-5.347
				l-34.717-106.458c9.642,2.575,17.987,9.282,22.375,18.77l27.042,82.929C207.983,313.359,205.758,317.717,201.699,319.025z"/>
		</g>
	</g>
	<g>
		<path style="fill:#65BAFC;" d="M84.155,54.051c-1.977,0-3.955-0.755-5.464-2.263L66.13,39.227c-3.017-3.018-3.017-7.909,0-10.928
			c3.018-3.016,7.909-3.016,10.928,0l12.561,12.561c3.017,3.018,3.017,7.909,0,10.928C88.11,53.297,86.132,54.051,84.155,54.051z"/>
		<g>
			<path style="fill:#65BAFC;" d="M108.748,38.239c-3.594,0-6.813-2.521-7.561-6.18l-3.56-17.404
				c-0.855-4.18,1.84-8.263,6.021-9.118c4.176-0.855,8.263,1.839,9.118,6.021l3.56,17.404c0.855,4.18-1.84,8.263-6.021,9.118
				C109.783,38.187,109.262,38.239,108.748,38.239z"/>
			<path style="fill:#65BAFC;" d="M68.349,78.655c-0.513,0-1.034-0.052-1.556-0.159l-17.404-3.56
				c-4.181-0.855-6.876-4.938-6.021-9.118c0.855-4.18,4.942-6.872,9.118-6.021l17.404,3.56c4.181,0.855,6.876,4.938,6.021,9.118
				C75.162,76.132,71.943,78.655,68.349,78.655z"/>
		</g>
	</g>
	<g>
		<path style="fill:#65BAFC;" d="M477.959,265.034c-1.324,0-2.666-0.34-3.891-1.056l-15.338-8.964
			c-3.684-2.153-4.926-6.885-2.773-10.569c2.153-3.684,6.886-4.927,10.569-2.773l15.338,8.964c3.684,2.153,4.926,6.885,2.773,10.569
			C483.201,263.664,480.615,265.034,477.959,265.034z"/>
		<g>
			<path style="fill:#65BAFC;" d="M450.71,293.541c-2.849,0-5.59-1.582-6.935-4.31l-7.86-15.932
				c-1.888-3.827-0.317-8.46,3.51-10.347c3.826-1.887,8.46-0.317,10.347,3.51l7.86,15.932c1.888,3.827,0.317,8.46-3.51,10.347
				C453.024,293.284,451.858,293.541,450.71,293.541z"/>
			<path style="fill:#65BAFC;" d="M471.677,228.261c-4.073,0-7.482-3.187-7.708-7.304c-0.233-4.261,3.032-7.903,7.293-8.137
				l17.738-0.973c4.236-0.207,7.904,3.031,8.138,7.293c0.233,4.261-3.032,7.903-7.293,8.137l-17.738,0.973
				C471.962,228.257,471.819,228.261,471.677,228.261z"/>
		</g>
	</g>
</g>
<g>
</g>
<g>
</g>
<g>
</g>
<g>
</g>
<g>
</g>
<g>
</g>
<g>
</g>
<g>
</g>
<g>
</g>
<g>
</g>
<g>
</g>
<g>
</g>
<g>
</g>
<g>
</g>
<g>
</g>
</svg>
