<?xml version="1.0" encoding="iso-8859-1"?>
<!-- Uploaded to SVGRepo https://www.svgrepo.com -->
<svg version="1.1" id="Capa_1" xmlns="http://www.w3.org/2000/svg" xmlns:xlink="http://www.w3.org/1999/xlink" x="0px" y="0px"
	 viewBox="0 0 512 512" style="enable-background:new 0 0 512 512;" xml:space="preserve">
<g>
	<g>
		<g>
			<path style="fill:#FFBC8A;" d="M469.624,157.937h-22.582c10.199,0,18.904,6.428,22.283,15.453
				c0.927,2.462,1.452,5.11,1.504,7.881c0.247,13.197-10.755,24.034-23.91,24.251c-0.134,0.01-0.278,0.01-0.412,0.01l-24.312-0.01
				c10.199,0.01,18.904,6.428,22.283,15.453c0.927,2.462,1.453,5.11,1.504,7.881c0.258,13.341-10.982,24.261-24.322,24.261h-208.55
				c-10.776-0.01-21.407-2.596-30.978-7.572l-5.79-3.018c-17.523-9.096-36.973-13.856-56.732-13.856H28.036
				c-5.213,0-9.436-4.224-9.447-9.447L18.6,65.818c0-5.223,4.224-9.447,9.436-9.447h69.537c16.514,0,32.688-3.276,47.646-9.478
				c14.958-6.191,28.711-15.309,40.383-26.981C198.356,7.16,215.643,0,233.681,0h112.135c6.058,0.01,11.703,1.71,16.493,4.677
				c8.942,5.532,14.897,15.422,14.897,26.713c-0.01,9.715-4.409,18.389-11.342,24.137c-5.439,4.523-12.424,7.242-20.047,7.242
				h101.226c4.574,0,8.86,1.298,12.496,3.554c4.45,2.751,7.922,6.933,9.787,11.899c0.979,2.596,1.514,5.408,1.514,8.345
				c-0.01,13.011-10.436,23.57-23.385,23.787c-0.134,0.01-0.278,0.01-0.412,0.01l22.592-0.01c4.574,0.01,8.849,1.298,12.496,3.544
				c4.45,2.751,7.922,6.943,9.787,11.909c0.968,2.596,1.494,5.408,1.494,8.344C493.41,147.285,482.758,157.937,469.624,157.937z"/>
			<path style="fill:#F5A871;" d="M458.952,65.966l-85.955,187.15h-82.461l87.418-190.351h69.081
				C451.379,62.774,455.439,63.936,458.952,65.966z"/>
			<path style="fill:#F5A871;" d="M222.324,253.115h-9.216c-10.783-0.009-21.406-2.597-30.971-7.573l-5.798-3.022
				c-14.796-7.686-30.981-12.275-47.562-13.503L53.823,65.805c-1.379-3.022-2.068-6.232-2.077-9.433h45.834
				c11.038,0,21.935-1.464,32.416-4.306L222.324,253.115z"/>
			<g>
				<path style="fill:#F5A871;" d="M491.917,125.806H286.231c-4.265,0-7.726-3.461-7.726-7.726c0-4.275,3.461-7.726,7.726-7.726
					h183.403c4.574,0.01,8.849,1.298,12.496,3.544C486.58,116.647,490.052,120.84,491.917,125.806z"/>
				<path style="fill:#F5A871;" d="M469.325,173.39H286.231c-4.265,0-7.726-3.462-7.726-7.726c0-4.275,3.461-7.726,7.726-7.726
					h160.811C457.241,157.937,465.946,164.365,469.325,173.39z"/>
				<path style="fill:#F5A871;" d="M286.231,205.521h135.963c10.199,0.01,18.904,6.428,22.283,15.453H286.231
					c-4.265,0-7.726-3.461-7.726-7.726C278.504,208.972,281.966,205.521,286.231,205.521z"/>
				<path style="fill:#F5A871;" d="M469.325,78.222H268.707c-2.122,8.138-7.005,22.705-17.328,37.323
					c-14.134,20.006-41.454,43.855-91.305,43.855c-4.265,0-7.726-3.451-7.726-7.726c0-4.265,3.461-7.726,7.726-7.726
					c34.47,0,60.822-12.393,78.335-36.829c13.32-18.585,16.421-37.612,16.442-37.808c0.598-3.76,3.832-6.542,7.644-6.542h184.547
					c4.574,0,8.86,1.298,12.496,3.554C463.988,69.074,467.46,73.256,469.325,78.222z"/>
			</g>
		</g>
		<g>
			<g>
				<g>
					<path style="fill:#ED6264;" d="M273.348,322.209L397.259,52.407c1.54-3.353,4.891-5.502,8.581-5.502h32.598
						c6.883,0,11.454,7.128,8.581,13.383L326.728,322.209H273.348z"/>
					<g>
						<g>
							<path style="fill:#E84649;" d="M447.017,60.291L326.729,322.206h-21.331L425.696,60.291c2.871-6.26-1.7-13.389-8.583-13.389
								h21.321C445.317,46.901,449.887,54.03,447.017,60.291z"/>
						</g>
					</g>
				</g>
				<g>
					<g>
						<g>
							<path style="fill:#ED6264;" d="M239.51,322.209L115.599,52.407c-1.54-3.353-4.891-5.502-8.581-5.502H74.42
								c-6.883,0-11.454,7.128-8.581,13.383l120.291,261.921H239.51z"/>
						</g>
					</g>
					<g>
						<g>
							<path style="fill:#E84649;" d="M239.509,322.206h-21.331L94.274,52.406c-1.539-3.352-4.891-5.505-8.583-5.505h21.331
								c3.682,0,7.035,2.153,8.574,5.505L239.509,322.206z"/>
						</g>
					</g>
				</g>
			</g>
		</g>
	</g>
	<g>
		<g>
			<g>
				<circle style="fill:#FFB54E;" cx="252.946" cy="395.749" r="116.251"/>
				<circle style="fill:#FF9A1B;" cx="253.141" cy="395.749" r="99.069"/>
				<circle style="fill:#FFCE8B;" cx="252.946" cy="395.749" r="86.397"/>
				<path style="fill:#FFB54E;" d="M339.54,395.752c0,47.711-38.687,86.397-86.397,86.397c-2.653,0-5.279-0.121-7.871-0.355
					c44.026-3.972,78.526-40.985,78.526-86.042c0-45.064-34.5-82.07-78.526-86.042c2.593-0.235,5.219-0.355,7.871-0.355
					C300.854,309.354,339.54,348.035,339.54,395.752z"/>
			</g>
			<g>
				<path style="fill:#FFA730;" d="M267.305,418.068l0-57.256c0-3.961-1.664-7.806-4.739-10.302
					c-4.497-3.651-10.709-3.839-15.354-0.73l-21.148,14.155c-2.963,1.983-3.757,5.993-1.774,8.956l7.182,10.73
					c1.983,2.963,5.993,3.757,8.956,1.774l1.055-0.706v33.379h-9.328c-3.565,0-6.456,2.89-6.456,6.456v12.911
					c0,3.565,2.89,6.456,6.456,6.456h44.479c3.565,0,6.456-2.89,6.456-6.456v-12.911c0-3.565-2.89-6.456-6.456-6.456H267.305z"/>
			</g>
		</g>
	</g>
</g>
<g>
</g>
<g>
</g>
<g>
</g>
<g>
</g>
<g>
</g>
<g>
</g>
<g>
</g>
<g>
</g>
<g>
</g>
<g>
</g>
<g>
</g>
<g>
</g>
<g>
</g>
<g>
</g>
<g>
</g>
</svg>
