<?xml version="1.0" encoding="iso-8859-1"?>
<!-- Uploaded to SVGRepo https://www.svgrepo.com -->
<svg version="1.1" id="Capa_1" xmlns="http://www.w3.org/2000/svg" xmlns:xlink="http://www.w3.org/1999/xlink" x="0px" y="0px"
	 viewBox="0 0 512 512" style="enable-background:new 0 0 512 512;" xml:space="preserve">
<g>
	<g>
		<g>
			<path style="fill:#ED6264;" d="M362.84,417.816l76.516,91.188c2.974,3.545,8.259,4.013,11.81,1.033l32.609-27.362
				c3.545-2.974,4.008-8.265,1.033-11.81l-81.904-97.61l-39.031,32.751c-1.901,1.595-2.914,3.857-2.99,6.153
				C360.822,414.147,361.46,416.172,362.84,417.816z"/>
			<path style="fill:#E84649;" d="M360.883,412.159l46.46,10.336c5.089,1.136,10.422-0.165,14.416-3.517l11.45-9.608l-30.304-36.116
				l-39.031,32.751C361.972,407.601,360.959,409.863,360.883,412.159z"/>
			<path style="fill:#F37D7E;" d="M454.454,391.541l-32.616,27.372c-3.544,2.967-8.829,2.503-11.806-1.04l-67.786-80.777
				l-22.005-26.228l45.452-38.137l24.261,28.907l65.53,78.098C458.462,383.279,457.998,388.574,454.454,391.541z"/>
			<path style="fill:#ED6264;" d="M389.954,301.637c-5.512,6.397-13.568,10.281-21.984,10.281c-3.863,0-7.654-0.804-11.219-2.349
				c0.639,6.84-1.144,13.578-5.202,19.192c-2.503,3.441-5.687,6.274-9.303,8.334l-22.005-26.228l45.452-38.137L389.954,301.637z"/>
		</g>
		<g>
			<path style="fill:#ED6264;" d="M149.16,417.816l-76.516,91.188c-2.974,3.545-8.259,4.013-11.81,1.033l-32.609-27.362
				c-3.545-2.974-4.008-8.265-1.033-11.81l81.904-97.61l39.031,32.751c1.901,1.595,2.914,3.857,2.99,6.153
				C151.178,414.147,150.54,416.172,149.16,417.816z"/>
			<path style="fill:#E84649;" d="M151.117,412.159l-46.46,10.336c-5.089,1.136-10.422-0.165-14.416-3.517l-11.45-9.608
				l30.304-36.116l39.031,32.751C150.028,407.601,151.041,409.863,151.117,412.159z"/>
			<path style="fill:#F37D7E;" d="M191.758,310.867l-22.005,26.228l-67.786,80.777c-2.977,3.544-8.262,4.007-11.806,1.04
				l-32.616-27.372c-3.544-2.967-4.007-8.262-1.03-11.806l65.53-78.098l24.261-28.907L191.758,310.867z"/>
			<path style="fill:#ED6264;" d="M146.306,272.73l45.452,38.137l-22.005,26.228c-3.616-2.06-6.799-4.893-9.292-8.334
				c-4.069-5.615-5.851-12.352-5.213-19.192c-3.564,1.545-7.356,2.349-11.208,2.349h-0.01c-8.427,0-16.483-3.884-21.984-10.281
				L146.306,272.73z"/>
		</g>
	</g>
	<g>
		<g>
			<path style="fill:#65BAFC;" d="M266.964,10.083L266.964,10.083c5.062-15.781,28.365-12.09,28.303,4.483v0
				c-0.042,11.198,14.306,15.86,20.854,6.776l0,0c9.691-13.444,30.713-2.733,25.532,13.009l0,0
				c-3.5,10.637,8.705,19.505,17.74,12.889l0,0c13.371-9.792,30.054,6.892,20.263,20.263l0,0c-6.616,9.035,2.252,21.24,12.889,17.74
				l0,0c15.742-5.181,26.454,15.842,13.009,25.532l0,0c-9.084,6.548-4.422,20.897,6.776,20.854h0
				c16.573-0.062,20.264,23.241,4.483,28.303l0,0c-10.663,3.42-10.663,18.507,0,21.928l0,0c15.781,5.062,12.09,28.365-4.483,28.303
				h0c-11.198-0.042-15.86,14.306-6.776,20.854l0,0c13.444,9.691,2.733,30.713-13.009,25.532l0,0
				c-10.637-3.5-19.505,8.705-12.889,17.74l0,0c9.792,13.371-6.892,30.054-20.263,20.263l0,0c-9.035-6.616-21.24,2.252-17.74,12.889
				l0,0c5.181,15.742-15.842,26.454-25.532,13.009l0,0c-6.548-9.084-20.897-4.422-20.854,6.776v0
				c0.062,16.573-23.241,20.264-28.303,4.483l0,0c-3.42-10.663-18.507-10.663-21.928,0l0,0c-5.062,15.781-28.365,12.09-28.303-4.483
				v0c0.042-11.198-14.306-15.86-20.854-6.776l0,0c-9.691,13.444-30.713,2.733-25.532-13.009l0,0
				c3.5-10.637-8.705-19.505-17.74-12.889l0,0c-13.371,9.792-30.054-6.892-20.263-20.263l0,0c6.616-9.035-2.252-21.24-12.889-17.74
				l0,0c-15.742,5.181-26.454-15.842-13.009-25.532l0,0c9.084-6.548,4.422-20.897-6.776-20.854h0
				c-16.573,0.062-20.264-23.241-4.483-28.303l0,0c10.663-3.42,10.663-18.507,0-21.928l0,0c-15.781-5.062-12.09-28.365,4.483-28.303
				h0c11.198,0.042,15.86-14.306,6.776-20.854l0,0c-13.444-9.691-2.733-30.713,13.009-25.532l0,0
				c10.637,3.5,19.505-8.705,12.889-17.74l0,0c-9.792-13.371,6.892-30.054,20.263-20.263l0,0c9.035,6.616,21.24-2.252,17.74-12.889
				l0,0c-5.181-15.742,15.842-26.454,25.532-13.009l0,0c6.548,9.084,20.897,4.422,20.854-6.776v0
				c-0.062-16.573,23.241-20.264,28.303-4.483l0,0C248.456,20.746,263.543,20.746,266.964,10.083z"/>
			<circle style="fill:#2EA8FC;" cx="255.997" cy="170.902" r="136.52"/>
			<circle style="fill:#FFCE8B;" cx="255.723" cy="170.902" r="121.309"/>
			<path style="fill:#FFB54E;" d="M377.309,170.906c0,66.99-54.32,121.309-121.309,121.309c-3.725,0-7.412-0.169-11.052-0.499
				c61.816-5.578,110.257-57.546,110.257-120.811c0-63.274-48.441-115.233-110.257-120.811c3.64-0.329,7.327-0.499,11.052-0.499
				C322.99,49.597,377.309,103.907,377.309,170.906z"/>
		</g>
		<g>
			<path style="fill:#FFA730;" d="M275.884,202.24l0-80.392c0-5.562-2.336-10.96-6.654-14.465
				c-6.315-5.126-15.036-5.39-21.558-1.025l-29.694,19.875c-4.16,2.785-5.275,8.414-2.491,12.575l10.084,15.066
				c2.785,4.16,8.414,5.275,12.575,2.491l1.482-0.992v46.867H226.53c-5.006,0-9.064,4.058-9.064,9.064v18.129
				c0,5.006,4.058,9.064,9.064,9.064h62.452c5.006,0,9.064-4.058,9.064-9.064v-18.129c0-5.006-4.058-9.064-9.064-9.064H275.884z"/>
		</g>
	</g>
</g>
<g>
</g>
<g>
</g>
<g>
</g>
<g>
</g>
<g>
</g>
<g>
</g>
<g>
</g>
<g>
</g>
<g>
</g>
<g>
</g>
<g>
</g>
<g>
</g>
<g>
</g>
<g>
</g>
<g>
</g>
</svg>
