<?xml version="1.0" encoding="iso-8859-1"?>
<!-- Uploaded to SVGRepo https://www.svgrepo.com -->
<svg version="1.1" id="Capa_1" xmlns="http://www.w3.org/2000/svg" xmlns:xlink="http://www.w3.org/1999/xlink" x="0px" y="0px"
	 viewBox="0 0 512 512" style="enable-background:new 0 0 512 512;" xml:space="preserve">
<g>
	<g>
		<path style="fill:#F37D7E;" d="M286.471,32.13l-30.473,20.201L225.525,32.13c-4.096-2.715-9.566,0.222-9.566,5.136v232.006
			c0,5.672,4.598,10.269,10.269,10.269h59.54c5.672,0,10.269-4.598,10.269-10.269V37.266
			C296.037,32.352,290.567,29.415,286.471,32.13z"/>
		<path style="fill:#ED6264;" d="M296.034,269.274V37.271c0-4.919-5.463-7.856-9.561-5.145l-10.567,7.004v230.145
			c0,5.669-4.601,10.269-10.269,10.269h20.128C291.444,279.543,296.034,274.943,296.034,269.274z"/>
	</g>
	<g>
		<g>
			<path style="fill:#A4E540;" d="M175.955,20.429v130.204c0,20.779-4.224,41.341-12.383,60.43l-0.01,0.021
				c-8.169,19.1-12.372,39.662-12.372,60.431l-0.021,70.639l-5.275,132.306l-1.061,26.682C144.576,507.21,139.59,512,133.522,512
				H64.314c-6.068,0-11.054-4.79-11.301-10.858l-1.061-26.682l-5.285-132.306v-70.196c0-10.446-1.061-20.841-3.163-31.019
				c-2.091-10.178-5.233-20.14-9.354-29.731c-8.272-19.192-12.527-39.868-12.527-60.76V19.275c0-5.316,2.163-10.137,5.645-13.629
				C30.761,2.163,35.582,0,40.898,0C51.54,0,60.173,8.633,60.173,19.275v89.306c0,10.662,4.317,20.315,11.311,27.3
				c6.985,6.995,16.648,11.311,27.3,11.311c21.335,0,38.621-17.276,38.621-38.611V20.429c0-10.642,8.633-19.275,19.275-19.275
				C167.322,1.154,175.955,9.787,175.955,20.429z"/>
			<path style="fill:#8EC737;" d="M153.25,130.194c0,29.947-24.374,54.321-54.332,54.321c-29.958,0-54.321-24.374-54.321-54.321
				c0-14.804,5.944-28.227,15.576-38.045v16.431c0,10.662,4.317,20.315,11.311,27.3c6.985,6.995,16.648,11.311,27.3,11.311
				c21.335,0,38.621-17.276,38.621-38.611v-16.71C147.182,101.71,153.25,115.257,153.25,130.194z"/>
			<path style="fill:#8EC737;" d="M175.953,20.429v130.204c0,20.779-4.214,41.341-12.383,60.43l-0.01,0.021
				c-8.169,19.1-12.372,39.662-12.372,60.431l-0.01,70.639l-5.285,132.306l-1.061,26.682C144.584,507.21,139.588,512,133.52,512
				h-20.944c6.068,0,11.064-4.79,11.311-10.858l1.061-26.682l5.285-132.306l0.01-70.639c0-20.769,4.203-41.331,12.372-60.431
				l0.01-0.021c8.169-19.089,12.383-39.651,12.383-60.43V20.429c0-6.779-3.503-12.743-8.798-16.174
				c3.008-1.968,6.604-3.101,10.467-3.101C167.32,1.154,175.953,9.787,175.953,20.429z"/>
			<path style="fill:#9E9797;" d="M145.894,474.46l-1.061,26.682C144.586,507.21,139.59,512,133.522,512H64.314
				c-6.068,0-11.054-4.79-11.301-10.858l-1.061-26.682H145.894z"/>
			<path style="fill:#756F6F;" d="M124.949,474.46h20.944l-1.061,26.682C144.584,507.21,139.588,512,133.52,512h-20.944
				c6.068,0,11.064-4.79,11.311-10.858L124.949,474.46z"/>
			<path style="fill:#FFBC8A;" d="M175.953,20.429v17.678h-38.539V20.429c0-6.779,3.503-12.754,8.798-16.174
				c3.008-1.968,6.604-3.101,10.467-3.101C167.32,1.154,175.953,9.787,175.953,20.429z"/>
			<path style="fill:#F5A871;" d="M175.953,20.429v17.678H155.01V20.429c0-6.779-3.503-12.743-8.798-16.174
				c3.008-1.968,6.604-3.101,10.467-3.101C167.32,1.154,175.953,9.787,175.953,20.429z"/>
			<path style="fill:#FFBC8A;" d="M60.173,19.276v18.831H21.628V19.276c0-5.316,2.16-10.134,5.644-13.629
				c3.495-3.483,8.313-5.644,13.629-5.644C51.543,0.004,60.173,8.633,60.173,19.276z"/>
			<path style="fill:#8EC737;" d="M105.882,332.852V474.46H90.429V332.852c0-4.265,3.461-7.726,7.726-7.726
				C102.421,325.125,105.882,328.587,105.882,332.852z"/>
			<rect x="90.429" y="474.46" style="fill:#756F6F;" width="15.453" height="37.54"/>
			<g>
				<path style="fill:#2EA8FC;" d="M84.598,211.383c-0.577,0.134-1.143,0.196-1.71,0.196c-3.533,0-6.717-2.441-7.531-6.026
					l-6.851-30.37l-2.215-9.807c-0.948-4.162,1.669-8.303,5.831-9.241c4.162-0.948,8.303,1.669,9.241,5.831l4.739,21.026
					l4.327,19.161C91.377,206.314,88.76,210.445,84.598,211.383z"/>
				<path style="fill:#2EA8FC;" d="M131.554,165.375l-2.215,9.807l-6.861,30.37c-0.804,3.585-3.997,6.026-7.52,6.026
					c-0.567,0-1.144-0.062-1.71-0.196c-4.162-0.937-6.779-5.068-5.841-9.23l4.327-19.161l4.749-21.026
					c0.937-4.162,5.068-6.768,9.241-5.831C129.885,157.072,132.492,161.213,131.554,165.375z"/>
				<path style="fill:#0097FA;" d="M81.364,161.965l4.739,21.026c-6.377-1.545-12.321-4.224-17.596-7.809l-2.215-9.807
					c-0.948-4.162,1.669-8.303,5.831-9.241C76.285,155.187,80.426,157.803,81.364,161.965z"/>
				<path style="fill:#0097FA;" d="M131.554,165.375l-2.215,9.807c-5.285,3.585-11.229,6.263-17.606,7.809l4.749-21.026
					c0.937-4.162,5.068-6.768,9.241-5.831C129.885,157.072,132.492,161.213,131.554,165.375z"/>
				<circle style="fill:#FFBC8A;" cx="98.921" cy="130.19" r="39.903"/>
				<path style="fill:#F5A871;" d="M138.828,130.188c0,22.044-17.864,39.907-39.907,39.907c-4.561,0-8.932-0.763-13.003-2.179
					c15.644-5.378,26.891-20.246,26.891-37.729s-11.247-32.337-26.891-37.729c4.071-1.416,8.442-2.179,13.003-2.179
					C120.965,90.281,138.828,108.158,138.828,130.188z"/>
			</g>
			<g>
				<circle style="fill:#FFC26D;" cx="98.921" cy="220.42" r="17.734"/>
				<path style="fill:#FF9A1B;" d="M98.921,245.88c-14.038,0-25.46-11.422-25.46-25.461c0-14.039,11.422-25.461,25.46-25.461
					c14.039,0,25.461,11.422,25.461,25.461C124.381,234.459,112.96,245.88,98.921,245.88z M98.921,210.411
					c-5.518,0-10.007,4.49-10.007,10.008c0,5.518,4.489,10.008,10.007,10.008c5.518,0,10.008-4.49,10.008-10.008
					C108.929,214.901,104.439,210.411,98.921,210.411z"/>
			</g>
		</g>
		<g>
			<path style="fill:#ED6264;" d="M490.376,20.429v130.204c0,20.779-4.224,41.341-12.393,60.43l-0.01,0.021
				c-8.159,19.1-12.372,39.662-12.372,60.431l-0.01,70.639l-5.285,132.306l-1.061,26.682C458.997,507.21,454.011,512,447.933,512
				h-69.208c-6.057,0-11.044-4.79-11.291-10.858l-1.071-26.682l-5.275-132.306v-70.196c0-10.446-1.061-20.841-3.173-31.019
				c-2.091-10.178-5.223-20.14-9.354-29.731c-8.262-19.192-12.517-39.868-12.517-60.76V19.275c0-5.316,2.163-10.137,5.645-13.629
				C345.183,2.163,350.004,0,355.32,0c10.642,0,19.275,8.633,19.275,19.275v89.306c0,10.662,4.317,20.315,11.301,27.3
				c6.995,6.995,16.658,11.311,27.31,11.311c21.325,0,38.622-17.276,38.622-38.611V20.429c0-10.642,8.633-19.275,19.275-19.275
				C481.744,1.154,490.376,9.787,490.376,20.429z"/>
			<path style="fill:#E84649;" d="M467.661,130.194c0,29.947-24.364,54.321-54.321,54.321c-29.958,0-54.332-24.374-54.332-54.321
				c0-14.804,5.944-28.227,15.587-38.045v16.431c0,10.662,4.317,20.315,11.301,27.3c6.995,6.995,16.658,11.311,27.31,11.311
				c21.325,0,38.622-17.276,38.622-38.611V91.882C461.614,101.72,467.661,115.257,467.661,130.194z"/>
			<path style="fill:#E84649;" d="M490.375,20.429v130.204c0,20.779-4.224,41.341-12.393,60.43l-0.01,0.021
				c-8.159,19.1-12.372,39.662-12.372,60.431l-0.01,70.639l-5.274,132.306l-1.071,26.682C458.996,507.21,454.009,512,447.931,512
				h-20.933c6.068,0,11.054-4.79,11.301-10.858l1.071-26.682l5.275-132.306l0.01-70.639c0-20.769,4.213-41.331,12.372-60.431
				l0.02-0.021c8.159-19.089,12.383-39.651,12.383-60.43V20.429c0-6.779-3.503-12.743-8.798-16.174
				c3.018-1.968,6.614-3.101,10.467-3.101C481.742,1.154,490.375,9.787,490.375,20.429z"/>
			<path style="fill:#9E9797;" d="M460.316,474.46l-1.071,26.682C458.997,507.21,454.011,512,447.933,512h-69.197
				c-6.068,0-11.054-4.79-11.301-10.858l-1.061-26.682H460.316z"/>
			<path style="fill:#756F6F;" d="M439.371,474.46h20.944l-1.071,26.682C458.996,507.21,454.009,512,447.931,512h-20.933
				c6.068,0,11.054-4.79,11.301-10.858L439.371,474.46z"/>
			<path style="fill:#FFBC8A;" d="M490.375,20.429v17.678h-38.549V20.429c0-6.779,3.503-12.754,8.808-16.174
				c3.018-1.968,6.614-3.101,10.467-3.101C481.742,1.154,490.375,9.787,490.375,20.429z"/>
			<path style="fill:#F5A871;" d="M490.375,20.429v17.678h-20.944V20.429c0-6.779-3.503-12.743-8.798-16.174
				c3.018-1.968,6.614-3.101,10.467-3.101C481.742,1.154,490.375,9.787,490.375,20.429z"/>
			<path style="fill:#FFBC8A;" d="M374.59,19.276v18.831h-38.545V19.276c0-5.316,2.16-10.134,5.644-13.629
				c3.495-3.483,8.313-5.644,13.629-5.644C365.96,0.004,374.59,8.633,374.59,19.276z"/>
			<path style="fill:#E84649;" d="M420.304,332.852V474.46h-15.453V332.852c0-4.265,3.461-7.726,7.726-7.726
				S420.304,328.587,420.304,332.852z"/>
			<rect x="404.851" y="474.46" style="fill:#756F6F;" width="15.453" height="37.54"/>
			<g>
				<path style="fill:#2EA8FC;" d="M399.01,211.383c-0.567,0.134-1.144,0.196-1.7,0.196c-3.533,0-6.727-2.441-7.531-6.026
					l-6.861-30.37l-2.215-9.807c-0.938-4.162,1.679-8.303,5.841-9.241c4.162-0.948,8.293,1.669,9.23,5.831l4.749,21.026
					l4.327,19.161C405.788,206.314,403.182,210.445,399.01,211.383z"/>
				<path style="fill:#2EA8FC;" d="M445.976,165.375l-2.215,9.797l-6.861,30.38c-0.814,3.585-3.997,6.026-7.531,6.026
					c-0.556,0-1.133-0.062-1.71-0.196c-4.162-0.937-6.768-5.068-5.831-9.23l4.327-19.161l4.739-21.026
					c0.948-4.162,5.079-6.768,9.241-5.831C444.297,157.072,446.913,161.213,445.976,165.375z"/>
				<path style="fill:#0097FA;" d="M395.775,161.965l4.749,21.026c-6.377-1.545-12.321-4.224-17.606-7.809l-2.215-9.807
					c-0.938-4.162,1.679-8.303,5.841-9.241C390.706,155.187,394.838,157.803,395.775,161.965z"/>
				<path style="fill:#0097FA;" d="M445.976,165.375l-2.215,9.797c-5.285,3.595-11.229,6.274-17.606,7.819l4.739-21.026
					c0.948-4.162,5.079-6.768,9.241-5.831C444.297,157.072,446.913,161.213,445.976,165.375z"/>
				<circle style="fill:#FFBC8A;" cx="413.338" cy="130.19" r="39.903"/>
				<path style="fill:#F5A871;" d="M453.246,130.188c0,22.044-17.864,39.907-39.907,39.907c-4.561,0-8.932-0.763-13.003-2.179
					c15.644-5.378,26.891-20.246,26.891-37.729s-11.246-32.337-26.891-37.729c4.071-1.416,8.442-2.179,13.003-2.179
					C435.382,90.281,453.246,108.158,453.246,130.188z"/>
			</g>
			<g>
				<circle style="fill:#FFC26D;" cx="413.338" cy="220.42" r="17.734"/>
				<path style="fill:#FF9A1B;" d="M413.338,245.88c-14.038,0-25.46-11.422-25.46-25.461c0-14.039,11.422-25.461,25.46-25.461
					c14.039,0,25.461,11.422,25.461,25.461C438.799,234.459,427.377,245.88,413.338,245.88z M413.338,210.411
					c-5.518,0-10.007,4.49-10.007,10.008c0,5.518,4.489,10.008,10.007,10.008c5.518,0,10.008-4.49,10.008-10.008
					C423.346,214.901,418.856,210.411,413.338,210.411z"/>
			</g>
		</g>
	</g>
	<g>
		<g>
			<g>
				<circle style="fill:#FFB54E;" cx="255.998" cy="361.053" r="126.831"/>
				<circle style="fill:#FF9A1B;" cx="256.211" cy="361.053" r="108.085"/>
				<circle style="fill:#FFCE8B;" cx="255.998" cy="361.053" r="94.26"/>
				<path style="fill:#FFB54E;" d="M350.474,361.056c0,52.053-42.208,94.26-94.26,94.26c-2.894,0-5.759-0.132-8.588-0.387
					c48.033-4.334,85.673-44.715,85.673-93.873c0-49.166-37.64-89.539-85.673-93.873c2.828-0.256,5.693-0.387,8.588-0.387
					C308.266,266.796,350.474,308.996,350.474,361.056z"/>
			</g>
			<g>
				<path style="fill:#FFA730;" d="M271.664,385.404v-62.466c0-4.322-1.815-8.516-5.17-11.24
					c-4.907-3.983-11.683-4.188-16.751-0.797l-23.073,15.443c-3.233,2.164-4.099,6.538-1.936,9.771l7.835,11.706
					c2.164,3.233,6.538,4.099,9.771,1.936l1.151-0.771v36.417h-10.177c-3.89,0-7.043,3.153-7.043,7.043v14.087
					c0,3.89,3.153,7.043,7.043,7.043h48.527c3.89,0,7.043-3.153,7.043-7.043v-14.087c0-3.89-3.153-7.043-7.043-7.043H271.664z"/>
			</g>
		</g>
	</g>
</g>
<g>
</g>
<g>
</g>
<g>
</g>
<g>
</g>
<g>
</g>
<g>
</g>
<g>
</g>
<g>
</g>
<g>
</g>
<g>
</g>
<g>
</g>
<g>
</g>
<g>
</g>
<g>
</g>
<g>
</g>
</svg>
