<?xml version="1.0" encoding="iso-8859-1"?>
<!-- Uploaded to SVGRepo https://www.svgrepo.com -->
<svg version="1.1" id="Capa_1" xmlns="http://www.w3.org/2000/svg" xmlns:xlink="http://www.w3.org/1999/xlink" x="0px" y="0px"
	 viewBox="0 0 512 512" style="enable-background:new 0 0 512 512;" xml:space="preserve">
<g>
	<path style="fill:#FF9A1B;" d="M256,380.141c-4.268,0-7.726-3.459-7.726-7.726v-51.23c0-4.267,3.459-7.726,7.726-7.726
		c4.268,0,7.726,3.459,7.726,7.726v51.23C263.726,376.681,260.268,380.141,256,380.141z"/>
	<g>
		<g>
			<path style="fill:#FFCE8B;" d="M329.909,429.334l-31.24,30.442l7.374,42.994c1.103,6.439-5.651,11.345-11.439,8.309L256,490.784
				l-38.604,20.294c-5.788,3.036-12.542-1.87-11.439-8.309l3.992-23.278l3.383-19.717l-31.24-30.442
				c-4.675-4.559-2.09-12.511,4.37-13.446l43.162-6.271l19.307-39.118c2.889-5.861,11.25-5.861,14.139,0l19.307,39.118l14.381,2.09
				l28.782,4.181C331.999,416.823,334.583,424.775,329.909,429.334z"/>
			<path style="fill:#FFB54E;" d="M329.909,429.334l-31.24,30.442l7.374,42.994c1.103,6.439-5.651,11.345-11.439,8.309L256,490.784
				l-38.604,20.294c-5.788,3.036-12.542-1.87-11.439-8.309l3.992-23.278c59.906-10.935,80.138-43.824,86.808-67.785l28.782,4.181
				C331.999,416.823,334.583,424.775,329.909,429.334z"/>
		</g>
	</g>
	<path style="fill:#F37D7E;" d="M189.038,0h-51.107c-5.801,0-10.504,4.703-10.504,10.504v217.882c0,3.341,1.59,6.483,4.282,8.463
		l57.33,42.154V0z"/>
	<path style="fill:#F37D7E;" d="M374.069,0h-51.107v279.003l57.33-42.154c2.692-1.979,4.282-5.121,4.282-8.463V10.504
		C384.573,4.703,379.87,0,374.069,0z"/>
	<path style="fill:#ED6264;" d="M358.228,253.06c2.7-1.985,4.286-5.126,4.286-8.466V10.504C362.514,4.706,357.808,0,352.01,0h22.059
		c5.798,0,10.504,4.706,10.504,10.504v217.881c0,3.34-1.586,6.481-4.286,8.467L358.228,253.06z"/>
	<polygon style="fill:#FFF5F5;" points="234.366,0 178.782,0 178.782,271.464 234.366,312.333 	"/>
	<polygon style="fill:#FFF5F5;" points="278.664,0 278.664,311.576 333.218,271.464 333.218,0 	"/>
	<path style="fill:#65BAFC;" d="M286.053,0v306.139l-23.95,17.613c-3.631,2.67-8.576,2.67-12.207,0l-23.95-17.613V0H286.053z"/>
</g>
<g>
</g>
<g>
</g>
<g>
</g>
<g>
</g>
<g>
</g>
<g>
</g>
<g>
</g>
<g>
</g>
<g>
</g>
<g>
</g>
<g>
</g>
<g>
</g>
<g>
</g>
<g>
</g>
<g>
</g>
</svg>
