<?xml version="1.0" encoding="iso-8859-1"?>
<!-- Uploaded to SVGRepo https://www.svgrepo.com -->
<svg version="1.1" id="Capa_1" xmlns="http://www.w3.org/2000/svg" xmlns:xlink="http://www.w3.org/1999/xlink" x="0px" y="0px"
	 viewBox="0 0 512 512" style="enable-background:new 0 0 512 512;" xml:space="preserve">
<g>
	<polygon style="fill:#FFCE8B;" points="443.575,376.315 480.539,145.072 343.955,262.222 256,65.797 168.045,262.222 
		31.461,145.072 68.425,376.315 107.139,388.677 386.389,388.677 	"/>
	<path style="fill:#FFB54E;" d="M440.495,426.917H71.505c-13.66,0-22.386-14.567-15.937-26.609l12.857-23.993h375.151l12.857,23.993
		C462.881,412.35,454.155,426.917,440.495,426.917z"/>
	<rect x="185.268" y="376.315" style="fill:#FF9A1B;" width="141.464" height="50.602"/>
	<path style="fill:#FF9A1B;" d="M440.498,426.911h-24.844c13.654,0,22.379-14.566,15.93-26.605l-12.857-23.994h24.844l12.857,23.994
		C462.878,412.345,454.152,426.911,440.498,426.911z"/>
	<polygon style="fill:#FFB54E;" points="480.538,145.072 443.571,376.311 418.727,376.311 455.725,166.361 	"/>
	<circle style="fill:#BDEB73;" cx="256" cy="65.797" r="31.461"/>
	<path style="fill:#9AD63B;" d="M287.461,65.801c0,17.377-14.084,31.461-31.461,31.461c-3.765,0-7.362-0.661-10.707-1.877
		c12.113-4.373,20.754-15.972,20.754-29.584c0-13.612-8.641-25.211-20.754-29.584c3.345-1.217,6.942-1.877,10.707-1.877
		C273.377,34.34,287.461,48.424,287.461,65.801z"/>
	<g>
		<circle style="fill:#BDEB73;" cx="31.461" cy="144.976" r="31.461"/>
		<path style="fill:#9AD63B;" d="M62.923,144.978c0,17.377-14.084,31.461-31.461,31.461c-3.765,0-7.362-0.661-10.707-1.867
			c12.102-4.384,20.754-15.972,20.754-29.594s-8.652-25.211-20.754-29.594c3.345-1.206,6.942-1.867,10.707-1.867
			C48.839,113.517,62.923,127.601,62.923,144.978z"/>
		<circle style="fill:#BDEB73;" cx="480.539" cy="144.976" r="31.461"/>
		<path style="fill:#9AD63B;" d="M511.999,144.978c0,17.377-14.084,31.461-31.461,31.461c-3.765,0-7.362-0.661-10.707-1.867
			c12.102-4.384,20.754-15.972,20.754-29.594s-8.652-25.211-20.754-29.594c3.345-1.206,6.942-1.867,10.707-1.867
			C497.915,113.517,511.999,127.601,511.999,144.978z"/>
	</g>
	<g>
		<path style="fill:#BDEB73;" d="M312.31,350.498v94.519c0,1.36-0.268,2.699-0.783,3.946c-0.515,1.236-1.267,2.38-2.235,3.338
			l-22.345,22.345c-0.968,0.968-2.102,1.72-3.338,2.235c-1.236,0.515-2.575,0.783-3.946,0.783h-47.327
			c-1.37,0-2.709-0.268-3.946-0.783c-1.236-0.515-2.369-1.267-3.338-2.235l-22.345-22.345c-0.968-0.958-1.72-2.102-2.235-3.338
			c-0.515-1.247-0.783-2.586-0.783-3.946v-94.519c0-1.37,0.268-2.709,0.783-3.946c0.515-1.236,1.267-2.369,2.235-3.338
			l22.345-22.345c0.968-0.958,2.102-1.72,3.338-2.235c1.236-0.515,2.575-0.783,3.946-0.783h47.327c1.37,0,2.709,0.268,3.946,0.783
			c1.236,0.515,2.369,1.277,3.338,2.235l22.345,22.345c0.968,0.968,1.72,2.102,2.235,3.338
			C312.042,347.789,312.31,349.128,312.31,350.498z"/>
		<path style="fill:#9AD63B;" d="M241.104,446.202l-12.712,30.679c-1.236-0.515-2.369-1.267-3.338-2.235l-22.345-22.345
			c-0.968-0.958-1.72-2.102-2.235-3.338l30.679-12.713L241.104,446.202z"/>
		<path style="fill:#9AD63B;" d="M311.527,448.963c-0.515,1.236-1.267,2.38-2.235,3.338l-22.345,22.345
			c-0.968,0.968-2.102,1.72-3.338,2.235l-12.712-30.679l9.952-9.952L311.527,448.963z"/>
		<path style="fill:#9AD63B;" d="M311.527,346.553l-30.679,12.712l-9.952-9.951l12.712-30.679c1.236,0.515,2.369,1.277,3.338,2.235
			l22.345,22.345C310.26,344.183,311.012,345.316,311.527,346.553z"/>
		<path style="fill:#9AD63B;" d="M241.104,349.314l-9.952,9.951l-30.679-12.712c0.515-1.236,1.267-2.369,2.235-3.338l22.345-22.345
			c0.968-0.958,2.102-1.72,3.338-2.235L241.104,349.314z"/>
		<polygon style="fill:#E3F6C5;" points="241.101,446.202 231.152,436.254 231.152,359.263 241.101,349.314 270.899,349.314 
			280.848,359.263 280.848,436.254 270.899,446.202 		"/>
	</g>
	<g>
		<g>
			<path style="fill:#ED6264;" d="M141.524,319.233l-8.498,8.498c-4.095,4.095-10.735,4.095-14.831,0l-8.498-8.498
				c-4.095-4.095-4.095-10.735,0-14.831l8.498-8.498c4.095-4.095,10.735-4.095,14.831,0l8.498,8.498
				C145.62,308.498,145.62,315.138,141.524,319.233z"/>
			<path style="fill:#FFB54E;" d="M125.611,338.52c-4.664,0-9.328-1.775-12.879-5.326l-8.497-8.497
				c-7.102-7.101-7.102-18.656,0-25.758l8.497-8.497c7.102-7.102,18.656-7.102,25.758,0l8.497,8.497
				c7.102,7.101,7.102,18.656,0,25.758l-8.497,8.497C134.939,336.745,130.275,338.52,125.611,338.52z M125.611,300.561
				c-0.707,0-1.414,0.269-1.952,0.807l-8.497,8.497c-1.076,1.076-1.076,2.828,0,3.904l8.497,8.497c1.076,1.076,2.828,1.076,3.904,0
				l8.497-8.497c1.076-1.076,1.076-2.828,0-3.904l-8.497-8.497C127.025,300.83,126.318,300.561,125.611,300.561z"/>
		</g>
		<g>
			<path style="fill:#ED6264;" d="M402.302,319.233l-8.498,8.498c-4.095,4.095-10.735,4.095-14.831,0l-8.498-8.498
				c-4.095-4.095-4.095-10.735,0-14.831l8.498-8.498c4.095-4.095,10.735-4.095,14.831,0l8.498,8.498
				C406.397,308.498,406.397,315.138,402.302,319.233z"/>
			<path style="fill:#FFB54E;" d="M386.389,338.52c-4.664,0-9.328-1.775-12.879-5.326l-8.497-8.497
				c-7.102-7.101-7.102-18.656,0-25.758l8.497-8.497c7.102-7.102,18.656-7.102,25.758,0l8.497,8.497
				c7.102,7.101,7.102,18.656,0,25.758l-8.497,8.497C395.717,336.745,391.053,338.52,386.389,338.52z M386.389,300.561
				c-0.707,0-1.414,0.269-1.952,0.807l-8.497,8.497c-1.076,1.076-1.076,2.828,0,3.904l8.497,8.497c1.076,1.076,2.828,1.076,3.904,0
				l8.497-8.497c1.076-1.076,1.076-2.828,0-3.904l-8.497-8.497C387.803,300.83,387.096,300.561,386.389,300.561z"/>
		</g>
	</g>
	<g>
		<path style="fill:#ED6264;" d="M271.913,228.211l-8.498,8.498c-4.095,4.095-10.735,4.095-14.831,0l-8.498-8.498
			c-4.095-4.095-4.095-10.735,0-14.831l8.498-8.498c4.095-4.095,10.735-4.095,14.831,0l8.498,8.498
			C276.008,217.475,276.008,224.115,271.913,228.211z"/>
		<path style="fill:#FFB54E;" d="M256,247.497c-4.664,0-9.328-1.775-12.878-5.325l-8.498-8.498c-7.102-7.101-7.102-18.656,0-25.758
			l8.497-8.497c7.102-7.102,18.656-7.102,25.758,0l8.497,8.497c7.102,7.101,7.102,18.656,0,25.758l-8.497,8.497
			C265.328,245.722,260.664,247.497,256,247.497z M256,209.538c-0.707,0-1.414,0.269-1.952,0.807l-8.497,8.497
			c-1.076,1.076-1.076,2.828,0,3.904l8.497,8.497c1.076,1.075,2.828,1.076,3.904-0.001l8.497-8.497c1.076-1.076,1.076-2.828,0-3.904
			l-8.497-8.497C257.414,209.807,256.707,209.538,256,209.538z"/>
	</g>
	<g>
		<path style="fill:#ED6264;" d="M256,287.592c-4.267,0-7.726-3.459-7.726-7.726c0-4.267,3.459-7.742,7.726-7.742
			c4.267,0,7.726,3.443,7.726,7.71v0.033C263.726,284.133,260.267,287.592,256,287.592z"/>
	</g>
	<g>
		<path style="fill:#ED6264;" d="M256,169.068c-4.267,0-7.726-3.459-7.726-7.726s3.459-7.743,7.726-7.743
			c4.267,0,7.726,3.443,7.726,7.71v0.033C263.726,165.609,260.267,169.068,256,169.068z"/>
	</g>
	<g>
		<g>
			<path style="fill:#ED6264;" d="M416.191,261.424c-4.267,0-7.726-3.459-7.726-7.726c0-4.267,3.459-7.743,7.726-7.743
				c4.267,0,7.726,3.443,7.726,7.71v0.033C423.918,257.964,420.458,261.424,416.191,261.424z"/>
		</g>
		<g>
			<path style="fill:#ED6264;" d="M95.809,261.424c-4.267,0-7.726-3.459-7.726-7.726c0-4.267,3.459-7.743,7.726-7.743
				s7.726,3.443,7.726,7.71v0.033C103.535,257.964,100.076,261.424,95.809,261.424z"/>
		</g>
	</g>
	<g>
		<path style="fill:#ED6264;" d="M189.932,303.754c-4.267,0-7.726-3.459-7.726-7.726c0-4.267,3.459-7.743,7.726-7.743
			c4.267,0,7.726,3.443,7.726,7.71v0.033C197.658,300.295,194.199,303.754,189.932,303.754z"/>
		<path style="fill:#ED6264;" d="M322.068,303.754c-4.267,0-7.726-3.459-7.726-7.726c0-4.267,3.459-7.743,7.726-7.743
			c4.267,0,7.726,3.443,7.726,7.71v0.033C329.795,300.295,326.336,303.754,322.068,303.754z"/>
	</g>
</g>
<g>
</g>
<g>
</g>
<g>
</g>
<g>
</g>
<g>
</g>
<g>
</g>
<g>
</g>
<g>
</g>
<g>
</g>
<g>
</g>
<g>
</g>
<g>
</g>
<g>
</g>
<g>
</g>
<g>
</g>
</svg>
