<?xml version="1.0" encoding="iso-8859-1"?>
<!-- Uploaded to SVGRepo https://www.svgrepo.com -->
<svg version="1.1" id="Capa_1" xmlns="http://www.w3.org/2000/svg" xmlns:xlink="http://www.w3.org/1999/xlink" x="0px" y="0px"
	 viewBox="0 0 512 512" style="enable-background:new 0 0 512 512;" xml:space="preserve">
<g>
	<circle style="fill:#8ECBFD;" cx="256" cy="256" r="256"/>
	<circle style="fill:#2EA8FC;" cx="256" cy="256" r="198.862"/>
	<circle style="fill:#ED6264;" cx="256" cy="256" r="184.44"/>
	<g>
		
			<ellipse transform="matrix(0.7071 -0.7071 0.7071 0.7071 -106.0394 255.9983)" style="fill:#E84649;" cx="255.998" cy="256" rx="136.508" ry="136.508"/>
		<circle style="fill:#DAEDFF;" cx="255.997" cy="256" r="122.086"/>
		<path style="fill:#B6DCFF;" d="M378.088,256.006c0,67.426-54.665,122.079-122.091,122.079c-5.325,0-10.561-0.338-15.706-1.004
			c60.013-7.706,106.385-58.975,106.385-121.075c0-62.112-46.372-113.38-106.385-121.087c5.145-0.666,10.38-1.004,15.706-1.004
			C323.423,133.915,378.088,188.569,378.088,256.006z"/>
		<g>
			<g>
				<g>
					<path style="fill:#FFCE8B;" d="M313.946,243.812l-24.494,23.868l5.782,33.71c0.865,5.049-4.431,8.895-8.969,6.515
						l-30.267-15.912l-30.267,15.912c-4.538,2.38-9.834-1.466-8.969-6.515l3.13-18.251l2.652-15.459l-24.494-23.868
						c-3.665-3.574-1.639-9.809,3.426-10.542l33.841-4.917l15.138-30.671c2.265-4.596,8.821-4.596,11.086,0l15.138,30.671
						l11.275,1.639l22.566,3.278C315.584,234.003,317.611,240.238,313.946,243.812z"/>
					<path style="fill:#FFB54E;" d="M313.946,243.812l-24.494,23.868l5.782,33.71c0.865,5.049-4.431,8.895-8.969,6.515
						l-30.267-15.912l-30.267,15.912c-4.538,2.38-9.834-1.466-8.969-6.515l3.13-18.251c46.97-8.574,62.832-34.36,68.062-53.147
						l22.566,3.278C315.584,234.003,317.611,240.238,313.946,243.812z"/>
				</g>
			</g>
		</g>
	</g>
	<g>
		<path style="fill:#FFB54E;" d="M444.154,256h-72.278c-4.897,0-7.748,5.531-4.908,9.52l23.388,32.847
			c2.133,2.995,5.582,4.773,9.259,4.773h56.059c9.237,0,14.617-10.434,9.259-17.959L444.154,256z"/>
		<path style="fill:#FF9A1B;" d="M455.67,303.141H431.12c9.241,0,14.618-10.436,9.261-17.956L419.603,256h24.549l20.779,29.185
			C470.288,292.705,464.91,303.141,455.67,303.141z"/>
	</g>
	<path style="fill:#9E9797;" d="M476.501,263.726H256c-4.268,0-7.726-3.459-7.726-7.726s3.459-7.726,7.726-7.726h220.501
		c4.268,0,7.726,3.459,7.726,7.726S480.769,263.726,476.501,263.726z"/>
	<g>
		<path style="fill:#FFDBAA;" d="M444.154,256h-72.278c-4.897,0-7.748-5.531-4.908-9.52l23.388-32.847
			c2.133-2.995,5.582-4.773,9.259-4.773h56.059c9.237,0,14.617,10.434,9.259,17.959L444.154,256z"/>
		<path style="fill:#FFC26D;" d="M464.931,226.815L444.152,256h-24.549l20.779-29.185c5.357-7.52-0.021-17.956-9.261-17.956h24.549
			C464.91,208.859,470.288,219.295,464.931,226.815z"/>
	</g>
	<g>
		<g>
			<path style="fill:#DAEDFF;" d="M267.471,40.106h-22.942c-4.268,0-7.726-3.459-7.726-7.726s3.459-7.726,7.726-7.726h22.942
				c4.268,0,7.726,3.459,7.726,7.726S271.738,40.106,267.471,40.106z"/>
			<path style="fill:#DAEDFF;" d="M267.471,107.153h-22.942c-4.268,0-7.726-3.459-7.726-7.726s3.459-7.726,7.726-7.726h22.942
				c4.268,0,7.726,3.459,7.726,7.726S271.738,107.153,267.471,107.153z"/>
		</g>
		<g>
			<path style="fill:#DAEDFF;" d="M267.471,420.3h-22.942c-4.268,0-7.726-3.459-7.726-7.726c0-4.268,3.459-7.726,7.726-7.726h22.942
				c4.268,0,7.726,3.459,7.726,7.726C275.197,416.841,271.738,420.3,267.471,420.3z"/>
			<path style="fill:#DAEDFF;" d="M267.471,487.347h-22.942c-4.268,0-7.726-3.459-7.726-7.726s3.459-7.726,7.726-7.726h22.942
				c4.268,0,7.726,3.459,7.726,7.726S271.738,487.347,267.471,487.347z"/>
		</g>
	</g>
</g>
<g>
</g>
<g>
</g>
<g>
</g>
<g>
</g>
<g>
</g>
<g>
</g>
<g>
</g>
<g>
</g>
<g>
</g>
<g>
</g>
<g>
</g>
<g>
</g>
<g>
</g>
<g>
</g>
<g>
</g>
</svg>
