<?xml version="1.0" encoding="iso-8859-1"?>
<!-- Uploaded to SVGRepo https://www.svgrepo.com -->
<svg version="1.1" id="Capa_1" xmlns="http://www.w3.org/2000/svg" xmlns:xlink="http://www.w3.org/1999/xlink" x="0px" y="0px"
	 viewBox="0 0 512 512" style="enable-background:new 0 0 512 512;" xml:space="preserve">
<g>
	<g>
		<g>
			<path style="fill:#E84649;" d="M498.841,395.681v76.341c0,12.115-9.813,21.928-21.928,21.928h-220.91v-98.269H498.841z"/>
			<path style="fill:#D73337;" d="M498.841,395.681v76.341c0,12.115-9.813,21.928-21.928,21.928h-23.386
				c12.115,0,21.928-9.813,21.928-21.928v-76.341H498.841z"/>
			<path style="fill:#D73337;" d="M498.841,395.681v24.274c-62.987,1.458-118.749,13.475-165.806,35.709
				c-29.547,13.957-48.778,28.857-59.237,38.286h-17.794v-98.269H498.841z"/>
			<path style="fill:#CDBFBB;" d="M256,334.288V489.79c16.619-17.233,89.568-82.362,245.267-85.246
				c5.963-0.11,10.733-4.995,10.733-10.959v-59.298H256z"/>
			<path style="fill:#B9ACAC;" d="M511.997,334.284v59.303c0,5.964-4.769,10.843-10.734,10.953
				c-6.436,0.121-12.729,0.34-18.88,0.669c3.684-1.765,6.227-5.537,6.227-9.889v-61.036H511.997z"/>
			<path style="fill:#EFE2DD;" d="M512,155.167v188.461c0,5.965-4.77,10.848-10.734,10.961
				C345.564,357.474,272.617,422.602,256,439.837V229.443c13.887-14.392,67.055-62.202,174.925-79.242
				c21.15-3.338,44.401-5.501,69.867-5.996C506.942,144.082,512,149.017,512,155.167z"/>
			<path style="fill:#E0D3CE;" d="M433.644,181.272c0,97.96-79.684,177.655-177.644,177.655V229.443
				c13.887-14.392,67.055-62.202,174.925-79.242C432.707,160.287,433.644,170.671,433.644,181.272z"/>
			<path style="fill:#E0D3CE;" d="M511.997,155.168v188.468c0,5.953-4.769,10.843-10.734,10.953
				c-6.951,0.132-13.738,0.384-20.36,0.746c4.473-1.381,7.708-5.57,7.708-10.481V155.168c0-4.703-2.949-8.694-7.094-10.262
				c6.271-0.34,12.696-0.57,19.274-0.702C506.943,144.084,511.997,149.018,511.997,155.168z"/>
		</g>
		<g>
			<path style="fill:#ED6264;" d="M13.159,395.681v76.341c0,12.115,9.813,21.928,21.928,21.928h220.91v-98.269H13.159z"/>
			<path style="fill:#E84649;" d="M13.159,395.681v24.274c62.987,1.458,118.749,13.475,165.806,35.709
				c29.547,13.957,48.778,28.857,59.237,38.286h17.794v-98.269H13.159z"/>
			<path style="fill:#E0D3CE;" d="M256,334.288V489.79c-16.619-17.233-89.568-82.362-245.267-85.246
				C4.77,404.433,0,399.549,0,393.585l0-59.298H256z"/>
			<path style="fill:#FFF5F5;" d="M256,229.443v210.394c-16.617-17.235-89.564-82.363-245.266-85.247
				C4.77,354.476,0,349.593,0,343.628V155.167c0-6.15,5.058-11.085,11.208-10.961c25.466,0.494,48.717,2.658,69.867,5.996
				C188.945,167.241,242.113,215.051,256,229.443z"/>
			<path style="fill:#EFE2DD;" d="M256,229.443v129.483c-97.96,0-177.644-79.695-177.644-177.655c0-10.601,0.937-20.985,2.72-31.07
				C188.945,167.241,242.113,215.051,256,229.443z"/>
		</g>
	</g>
	<g>
		<g>
			<g>
				<circle style="fill:#FFB54E;" cx="256" cy="181.276" r="163.226"/>
				<circle style="fill:#FF9A1B;" cx="256.274" cy="181.276" r="136.52"/>
				<circle style="fill:#FFCE8B;" cx="256" cy="181.276" r="121.309"/>
				<path style="fill:#FFB54E;" d="M377.586,181.28c0,66.99-54.32,121.309-121.309,121.309c-3.725,0-7.412-0.169-11.052-0.499
					c61.816-5.578,110.257-57.546,110.257-120.811c0-63.274-48.441-115.233-110.257-120.811c3.64-0.329,7.327-0.499,11.052-0.499
					C323.266,59.97,377.586,114.281,377.586,181.28z"/>
			</g>
			<g>
				<path style="fill:#FFA730;" d="M276.161,212.614l0-80.392c0-5.562-2.336-10.96-6.654-14.465
					c-6.315-5.126-15.036-5.39-21.558-1.025l-29.694,19.875c-4.16,2.785-5.275,8.414-2.491,12.575l10.084,15.066
					c2.785,4.16,8.414,5.275,12.575,2.491l1.482-0.992v46.867h-13.097c-5.006,0-9.064,4.058-9.064,9.064v18.129
					c0,5.006,4.058,9.064,9.064,9.064h62.452c5.006,0,9.064-4.058,9.064-9.064v-18.129c0-5.006-4.058-9.064-9.064-9.064H276.161z"/>
			</g>
		</g>
	</g>
</g>
<g>
</g>
<g>
</g>
<g>
</g>
<g>
</g>
<g>
</g>
<g>
</g>
<g>
</g>
<g>
</g>
<g>
</g>
<g>
</g>
<g>
</g>
<g>
</g>
<g>
</g>
<g>
</g>
<g>
</g>
</svg>
