<?xml version="1.0" encoding="iso-8859-1"?>
<!-- Uploaded to SVGRepo https://www.svgrepo.com -->
<svg version="1.1" id="Capa_1" xmlns="http://www.w3.org/2000/svg" xmlns:xlink="http://www.w3.org/1999/xlink" x="0px" y="0px"
	 viewBox="0 0 512 512" style="enable-background:new 0 0 512 512;" xml:space="preserve">
<g>
	<path style="fill:#8EC737;" d="M353.111,193.839V512H150.787V193.839c0-55.868,45.293-101.162,101.162-101.162
		c27.939,0,53.23,11.326,71.538,29.634C341.795,140.62,353.111,165.91,353.111,193.839z"/>
	<path style="fill:#83B832;" d="M234.333,294.085c-4.204,0-7.611-3.408-7.611-7.612v-111.57c0-4.204,3.407-7.611,7.611-7.611
		s7.611,3.408,7.611,7.611v111.57C241.945,290.678,238.537,294.085,234.333,294.085z"/>
	<path style="fill:#83B832;" d="M353.111,222.347V512H150.787V310.031c4.973-1.066,10.139-1.624,15.426-1.624
		c19.841,0,38.494,7.723,52.499,21.749c14.026,14.005,21.749,32.658,21.749,52.499v11.803c6.698-2.354,13.802-3.836,21.18-4.303
		v-89.562c0-43.67,35.52-79.19,79.19-79.19C344.982,221.403,349.082,221.718,353.111,222.347z"/>
	<path style="fill:#83B832;" d="M191.924,333.274c-4.204,0-7.611-3.408-7.611-7.611V276.57c0-4.204,3.407-7.612,7.611-7.612
		s7.611,3.408,7.611,7.612v49.092C199.535,329.866,196.128,333.274,191.924,333.274z"/>
	<path style="fill:#83B832;" d="M353.116,193.837V512h-21.957V193.837c0-27.934-11.32-53.221-29.63-71.531
		c-15.878-15.877-36.996-26.493-60.547-29.037c3.607-0.388,7.265-0.593,10.973-0.593c27.934,0,53.221,11.321,71.53,29.63
		C341.796,140.615,353.116,165.903,353.116,193.837z"/>
	<path style="fill:#9E9797;" d="M347.558,160.692c-5.538,2.534-12.118,4.823-19.934,6.6c-10.217,2.329-22.56,3.791-37.425,3.791
		c-73.564,0-76.282,17.042-93.998,42.922c-13.007,19.014-20.138,32.511-45.415,38.335v-58.504
		c0-52.159,39.479-95.102,90.197-100.568h0.01c3.596-0.398,7.254-0.593,10.963-0.593c27.934,0,53.221,11.321,71.53,29.63
		C334.184,133.004,342.5,146.092,347.558,160.692z"/>
	<ellipse style="fill:#756F6F;" cx="251.949" cy="115.989" rx="24.564" ry="9.936"/>
	<path style="fill:#756F6F;" d="M347.558,160.692c-5.538,2.534-12.118,4.823-19.934,6.6c-4.669-17.267-13.803-32.695-26.095-44.986
		c-15.878-15.877-36.986-26.493-60.537-29.037c3.596-0.398,7.254-0.593,10.963-0.593c27.934,0,53.221,11.321,71.53,29.63
		C334.184,133.004,342.5,146.092,347.558,160.692z"/>
	<g>
		<path style="fill:#BDEB73;" d="M226.252,382.655V512h-109.92c-5.605,0-10.149-4.544-10.149-10.149V383.538
			c0-33.196,26.567-60.778,59.763-60.922c16.678-0.072,31.801,6.66,42.718,17.587C219.534,351.063,226.252,366.083,226.252,382.655z
			"/>
		<path style="fill:#9AD63B;" d="M226.252,382.655V512h-19.039V382.655c0-16.573-6.718-31.593-17.588-42.452
			c-8.738-8.748-20.165-14.807-32.932-16.837c3.105-0.497,6.282-0.751,9.519-0.751c16.573,0,31.593,6.718,42.452,17.588
			C219.534,351.063,226.252,366.083,226.252,382.655z"/>
		<path style="fill:#9AD63B;" d="M226.252,401.085V512h-38.788v-42.827C187.464,440.249,203.043,414.908,226.252,401.085z"/>
	</g>
	<g>
		<path style="fill:#BDEB73;" d="M405.813,300.593v201.258c0,5.605-4.544,10.149-10.149,10.149H275.849V301.557
			c0-35.951,28.787-65.813,64.738-65.945c18.04-0.066,34.382,7.213,46.187,19.028C398.536,266.402,405.813,282.64,405.813,300.593z"
			/>
		<path style="fill:#9E9797;" d="M307.628,377.869c-4.204,0-7.612-3.408-7.612-7.612v-47.132c0-4.204,3.407-7.611,7.612-7.611
			s7.611,3.408,7.611,7.611v47.132C315.239,374.461,311.832,377.869,307.628,377.869z"/>
		<path style="fill:#9AD63B;" d="M345.844,469.173V512h-69.995V390.521C315.195,395.087,345.844,428.619,345.844,469.173z"/>
		<path style="fill:#9AD63B;" d="M405.816,300.586v201.265c0,5.605-4.544,10.149-10.149,10.149h-10.582V300.586
			c0-17.941-7.275-34.187-19.034-45.947c-9.451-9.451-21.793-16-35.587-18.207c3.372-0.541,6.835-0.828,10.371-0.828
			c17.941,0,34.187,7.275,45.946,19.035C398.542,266.399,405.816,282.645,405.816,300.586z"/>
		<path style="fill:#B9ACAC;" d="M405.816,300.586v125.283c-7.98-0.664-14.835-2.299-20.731-4.69
			c-59.117-24-21.987-124.844-62.866-99.893c-22.1,13.497-36.915,8.909-46.365,0.419v-21.119c0-32.358,23.653-59.198,54.611-64.154
			c3.372-0.541,6.835-0.828,10.371-0.828c17.941,0,34.187,7.275,45.946,19.035C398.542,266.399,405.816,282.645,405.816,300.586z"/>
		<path style="fill:#9E9797;" d="M405.816,300.586v125.283c-7.98-0.664-14.835-2.299-20.731-4.69V300.586
			c0-17.941-7.275-34.187-19.034-45.947c-9.451-9.451-21.793-16-35.587-18.207c3.372-0.541,6.835-0.828,10.371-0.828
			c17.941,0,34.187,7.275,45.946,19.035C398.542,266.399,405.816,282.645,405.816,300.586z"/>
	</g>
	<g>
		<path style="fill:#E3F6C5;" d="M331.631,512H201.67v-42.828c0-35.888,29.093-64.98,64.98-64.98h0
			c35.888,0,64.98,29.093,64.98,64.98V512z"/>
		<path style="fill:#BDEB73;" d="M331.626,469.173V512h-20.297v-42.827c0-17.943-7.276-34.191-19.039-45.953
			c-9.489-9.489-21.911-16.055-35.784-18.237c3.308-0.518,6.698-0.792,10.149-0.792c17.943,0,34.181,7.277,45.943,19.029
			C324.359,434.982,331.626,451.23,331.626,469.173z"/>
	</g>
	<path style="fill:#ED6264;" d="M312.68,59.452h-64.5V15.104h64.5c5.643,0,10.217,4.574,10.217,10.217v23.914
		C322.897,54.878,318.323,59.452,312.68,59.452z"/>
	<path style="fill:#E84649;" d="M322.898,25.321v23.91c0,5.643-4.577,10.22-10.22,10.22h-18.877c5.643,0,10.22-4.577,10.22-10.22
		v-23.91c0-5.643-4.577-10.22-10.22-10.22h18.877C318.321,15.101,322.898,19.678,322.898,25.321z"/>
	<path style="fill:#E3F6C5;" d="M158.399,417.313V512h-15.223v-94.687c0-4.212,3.41-7.611,7.611-7.611
		C154.989,409.702,158.399,413.101,158.399,417.313z"/>
	<path style="fill:#FFC26D;" d="M248.18,118.904c-4.204,0-7.611-3.408-7.611-7.611V7.611c0-4.204,3.407-7.611,7.611-7.611
		s7.611,3.408,7.611,7.611v103.681C255.791,115.497,252.384,118.904,248.18,118.904z"/>
</g>
<g>
</g>
<g>
</g>
<g>
</g>
<g>
</g>
<g>
</g>
<g>
</g>
<g>
</g>
<g>
</g>
<g>
</g>
<g>
</g>
<g>
</g>
<g>
</g>
<g>
</g>
<g>
</g>
<g>
</g>
</svg>
