<?xml version="1.0" encoding="iso-8859-1"?>
<!-- Uploaded to SVGRepo https://www.svgrepo.com -->
<svg version="1.1" id="Capa_1" xmlns="http://www.w3.org/2000/svg" xmlns:xlink="http://www.w3.org/1999/xlink" x="0px" y="0px"
	 viewBox="0 0 512 512" style="enable-background:new 0 0 512 512;" xml:space="preserve">
<g>
	<g>
		<path style="fill:#65BAFC;" d="M82.167,293.087v-56.902l60.76-60.77h226.145l60.76,60.77v56.902H512v-73.921
			c0-10.899-4.327-21.345-12.032-29.051l-84.836-84.835c-7.706-7.706-18.152-12.033-29.051-12.033H125.919
			c-10.899,0-21.345,4.327-29.051,12.033l-84.836,84.835C4.327,197.82,0,208.267,0,219.166v73.921H82.167z"/>
	</g>
	<path style="fill:#2EA8FC;" d="M312.464,166.318v9.097H203.038v-9.097c0-12.506,9.828-22.767,22.169-23.457v-16.895
		c-4.687-1.669-8.777-4.811-11.62-9.066l-10.086-15.061c-1.772-2.648-2.967-5.563-3.554-8.592h90.357v49.613
		C302.647,143.551,312.464,153.811,312.464,166.318z"/>
	<g>
		<g>
			<path style="fill:#2EA8FC;" d="M476.273,190.115c7.706,7.706,12.032,18.152,12.032,29.051v73.921H512v-73.921
				c0-10.899-4.327-21.345-12.032-29.051l-84.836-84.835c-7.706-7.706-18.152-12.033-29.051-12.033h-23.694
				c10.899,0,21.345,4.327,29.051,12.033L476.273,190.115z"/>
		</g>
	</g>
	<path style="fill:#D3F1A3;" d="M0,337.616h82.167v105.779c0,5.687-4.615,10.302-10.302,10.302H10.302
		C4.615,453.697,0,449.082,0,443.395V337.616z"/>
	<path style="fill:#D3F1A3;" d="M512,337.616v105.779c0,5.687-4.615,10.302-10.302,10.302h-61.564
		c-5.687,0-10.302-4.615-10.302-10.302V337.616H512z"/>
	<g>
		<path style="fill:#A4E540;" d="M512,337.616v105.779c0,5.687-4.615,10.302-10.302,10.302h-23.694
			c5.687,0,10.302-4.615,10.302-10.302V337.616H512z"/>
	</g>
	<g>
		<g>
			<rect x="0" y="275.992" style="fill:#FFF5F5;" width="47.262" height="47.262"/>
			
				<rect x="34.9" y="310.892" transform="matrix(-1 -3.900670e-11 3.900670e-11 -1 117.0622 669.0454)" style="fill:#FFF5F5;" width="47.262" height="47.262"/>
			<rect x="41.081" y="275.992" style="fill:#9E9797;" width="41.081" height="41.081"/>
		</g>
		<g>
			
				<rect x="0" y="317.073" transform="matrix(-1 -4.489798e-11 4.489798e-11 -1 41.0811 675.2265)" style="fill:#9E9797;" width="41.081" height="41.081"/>
		</g>
	</g>
	<g>
		<g>
			<rect x="429.838" y="275.992" style="fill:#FFF5F5;" width="47.262" height="47.262"/>
			
				<rect x="464.738" y="310.892" transform="matrix(-1 -3.900670e-11 3.900670e-11 -1 976.7378 669.0454)" style="fill:#FFF5F5;" width="47.262" height="47.262"/>
			<rect x="470.919" y="275.992" style="fill:#9E9797;" width="41.081" height="41.081"/>
			<rect x="488.306" y="275.991" style="fill:#756F6F;" width="23.694" height="41.084"/>
		</g>
		<g>
			
				<rect x="429.838" y="317.073" transform="matrix(-1 -4.489798e-11 4.489798e-11 -1 900.7567 675.2265)" style="fill:#9E9797;" width="41.081" height="41.081"/>
			<rect x="488.306" y="317.074" style="fill:#EFE2DD;" width="23.694" height="41.084"/>
		</g>
	</g>
	<g>
		<path style="fill:#FFA730;" d="M275.884,157.248l0-80.392c0-5.562-2.336-10.96-6.654-14.465
			c-6.315-5.126-15.036-5.39-21.558-1.025l-29.694,19.875c-4.16,2.785-5.275,8.414-2.491,12.575l10.084,15.066
			c2.785,4.16,8.414,5.275,12.575,2.491l1.482-0.992v46.867H226.53c-5.006,0-9.064,4.058-9.064,9.064v18.129
			c0,5.006,4.058,9.064,9.064,9.064h62.452c5.006,0,9.064-4.058,9.064-9.064v-18.129c0-5.006-4.058-9.064-9.064-9.064H275.884z"/>
	</g>
</g>
<g>
</g>
<g>
</g>
<g>
</g>
<g>
</g>
<g>
</g>
<g>
</g>
<g>
</g>
<g>
</g>
<g>
</g>
<g>
</g>
<g>
</g>
<g>
</g>
<g>
</g>
<g>
</g>
<g>
</g>
</svg>
