<?xml version="1.0" encoding="iso-8859-1"?>
<!-- Uploaded to SVGRepo https://www.svgrepo.com -->
<svg version="1.1" id="Capa_1" xmlns="http://www.w3.org/2000/svg" xmlns:xlink="http://www.w3.org/1999/xlink" x="0px" y="0px"
	 viewBox="0 0 512 512" style="enable-background:new 0 0 512 512;" xml:space="preserve">
<g>
	<path style="fill:#756F6F;" d="M270.448,222.835c0-30.789,20.888-55.749,46.655-55.749c25.767,0,46.655,24.96,46.655,55.749
		s-20.888,38.437-46.655,38.437C291.336,261.272,270.448,253.624,270.448,222.835z"/>
	<path style="fill:#5B5555;" d="M363.762,222.837c0,30.79-20.889,38.437-46.659,38.437c-4.02,0-7.924-0.191-11.657-0.617
		c20.123-2.34,34.991-11.838,34.991-37.821s-14.869-47.807-34.991-53.997c3.733-1.149,7.636-1.755,11.657-1.755
		C342.874,167.084,363.762,192.046,363.762,222.837z"/>
	<path style="fill:#756F6F;" d="M396.765,335.256v166.442c0,5.69-4.612,10.302-10.302,10.302H146.619
		c-5.69,0-10.302-4.612-10.302-10.302V311.825c0-0.33,0-0.649,0.011-0.978c0.521-51.147,42.149-92.456,93.424-92.456h50.158
		c53.87,0,99.22,36.449,112.738,86.032C395.329,314.24,396.765,324.588,396.765,335.256z"/>
	<path style="fill:#5B5555;" d="M194.58,366.487V512h-15.453V366.487c0-4.265,3.461-7.726,7.726-7.726
		C191.119,358.761,194.58,362.222,194.58,366.487z"/>
	<path style="fill:#5B5555;" d="M330.828,366.487V512h-15.453V366.487c0-4.265,3.461-7.726,7.726-7.726
		S330.828,362.222,330.828,366.487z"/>
	<path style="fill:#65BAFC;" d="M330.823,424.836V512H193.789v-85.711c20.429,5.275,42.608,8.159,65.818,8.159
		c19.45,0,38.189-2.029,55.764-5.8C320.625,427.535,325.786,426.258,330.823,424.836z"/>
	<path style="fill:#2EA8FC;" d="M330.823,424.836V512h-15.453v-83.352C320.625,427.535,325.786,426.258,330.823,424.836z"/>
	<path style="fill:#5B5555;" d="M396.763,335.245v166.453c0,5.69-4.612,10.302-10.302,10.302h-8.3V335.256
		c0-64.537-52.328-116.865-116.865-116.865h18.612C344.445,218.391,396.763,270.708,396.763,335.245z"/>
	<path style="fill:#FFC26D;" d="M392.645,304.419c-5.11,3.626-10.559,7.057-16.297,10.24c-31.657,17.575-72.35,28.145-116.74,28.145
		c-47.522,0-90.8-12.094-123.282-31.956c0.237-23.231,8.963-44.442,23.22-60.667c17.122-19.491,42.227-31.791,70.207-31.791h50.16
		C333.78,218.388,379.129,254.836,392.645,304.419z"/>
	<path style="fill:#FFA730;" d="M274.102,218.388l-53.971,29.35c-2.359,1.339-15.803,8.458-33.625,8.458
		c-9.478,0-18.554-2.04-26.96-6.016c17.122-19.491,42.227-31.791,70.207-31.791H274.102z"/>
	<path style="fill:#FFA730;" d="M392.649,304.423c-5.116,3.627-10.561,7.051-16.305,10.232
		c-9.721-54.71-57.539-96.264-115.046-96.264h18.612C333.78,218.391,379.131,254.839,392.649,304.423z"/>
	<g>
		<path style="fill:#FFC26D;" d="M330.828,512V374.339h0c18.555,0,33.597,15.042,33.597,33.597V512H330.828z"/>
	</g>
	<g>
		<path style="fill:#FFC26D;" d="M194.582,374.337V512h-29.144V403.481c0-8.046,3.266-15.329,8.53-20.604
			c1.556-1.556,3.286-2.936,5.161-4.11C183.611,375.965,188.906,374.337,194.582,374.337z"/>
	</g>
	<path style="fill:#FFA730;" d="M194.582,374.337V512h-15.453V378.767C183.611,375.965,188.906,374.337,194.582,374.337z"/>
	<g>
		<path style="fill:#ED6264;" d="M318.688,221.118v37.529c0,18.914-8.829,36.17-22.561,47.522
			c-10.353,8.561-23.488,13.753-37.756,13.763c-27.887,0.021-51.437-18.976-58.349-44.72c-1.102-4.09-1.782-8.355-1.999-12.743
			v-41.351c0-5.872,4.77-10.642,10.642-10.642h99.392C313.918,210.476,318.688,215.246,318.688,221.118z"/>
		<path style="fill:#E84649;" d="M274.102,218.388l-53.971,29.35c-1.813,1.03-10.209,5.491-22.108,7.479V223.92
			c9.91-3.575,20.593-5.532,31.73-5.532H274.102z"/>
		<path style="fill:#E84649;" d="M296.13,306.167c-10.359,8.562-23.494,13.752-37.757,13.763
			c-27.887,0.021-51.434-18.974-58.347-44.712c10.242-10.561,24.568-17.134,40.405-17.134
			C268.689,258.083,292.152,279.004,296.13,306.167z"/>
		<path style="fill:#756F6F;" d="M292.099,164.973v94.591c0,9.333-3.781,17.771-9.89,23.89c-6.119,6.109-14.567,9.89-23.89,9.89
			c-18.646,0-33.769-15.123-33.769-33.78v-94.591H292.099z"/>
		<path style="fill:#5B5555;" d="M292.099,164.968v94.594c0,9.327-3.776,17.772-9.891,23.888c-6.116,6.116-14.56,9.891-23.888,9.891
			c-3.829,0-7.498-0.638-10.934-1.808c4.924-1.691,9.338-4.478,12.944-8.083c6.105-6.116,9.891-14.56,9.891-23.888v-94.594H292.099z
			"/>
	</g>
	<g>
		<g>
			<circle style="fill:#DAEDFF;" cx="240.436" cy="314.375" r="41.406"/>
			<path style="fill:#B6DCFF;" d="M281.841,314.38c0,22.869-18.535,41.404-41.404,41.404c-4.372,0-8.582-0.673-12.543-1.931
				c16.728-5.319,28.861-20.976,28.861-39.473c0-18.497-12.132-34.154-28.861-39.486c3.961-1.258,8.171-1.931,12.543-1.931
				C263.306,272.963,281.841,291.51,281.841,314.38z"/>
		</g>
		<path style="fill:#2EA8FC;" d="M249.931,320.891h-0.133v-20.487c0-2.678-1.386-5.164-3.664-6.572
			c-2.276-1.407-5.122-1.535-7.517-0.339l-9.151,4.575c-3.817,1.908-5.364,6.549-3.456,10.366c1.579,3.158,5.031,4.767,8.336,4.14
			v8.316h-0.134c-4.267,0-7.726,3.459-7.726,7.726c0,4.267,3.459,7.726,7.726,7.726h15.72c4.267,0,7.726-3.459,7.726-7.726
			C257.658,324.35,254.199,320.891,249.931,320.891z"/>
	</g>
	<path style="fill:#FFF5F5;" d="M284.303,395.82H226.87c-4.267,0-7.726-3.459-7.726-7.726c0-4.267,3.459-7.726,7.726-7.726h57.433
		c4.267,0,7.726,3.459,7.726,7.726C292.029,392.361,288.57,395.82,284.303,395.82z"/>
	<path style="fill:#ED6264;" d="M226.87,481.97h-9.572c-4.267,0-7.726-3.459-7.726-7.726c0-4.267,3.459-7.726,7.726-7.726h9.572
		c4.267,0,7.726,3.459,7.726,7.726C234.596,478.511,231.137,481.97,226.87,481.97z"/>
	<path style="fill:#ED6264;" d="M293.875,481.97h-9.572c-4.267,0-7.726-3.459-7.726-7.726c0-4.267,3.459-7.726,7.726-7.726h9.572
		c4.267,0,7.726,3.459,7.726,7.726C301.601,478.511,298.142,481.97,293.875,481.97z"/>
	<polygon style="fill:#5B5555;" points="292.099,164.973 292.099,208.601 224.55,245.338 224.55,164.973 	"/>
	<path style="fill:#FFC26D;" d="M316.844,178.726l-103.729,56.413c0,0-33.914,19.728-62.635-8.829
		c-3.946-3.904-7.788-8.736-11.425-14.649c-3.575-5.79-6.954-12.63-10.044-20.665C98.991,112.949,124.396,67.848,145.03,44.37
		C187.721-4.203,313.3-22.293,329.051,64.211C344.793,150.715,316.844,178.726,316.844,178.726z"/>
	<path style="fill:#FFA730;" d="M316.837,178.73l-17.602,9.572c6.913-10.061,24.037-43.883,10.38-118.907
		c-8.019-44.032-42.67-62.687-81.693-64.537c45.585-5.903,91.956,9.008,101.124,59.358
		C344.799,150.716,316.837,178.73,316.837,178.73z"/>
	<path style="fill:#FFF5F5;" d="M316.837,178.73l-17.602,9.572l-53.742,29.227c-1.755-25.515,1.659-86.958,67.834-122.385
		c5.828-3.127,12.146-6.041,18.985-8.721C339.938,155.587,316.837,178.73,316.837,178.73z"/>
	<path style="fill:#EFE2DD;" d="M316.837,178.73l-17.602,9.572c6.062-8.828,19.995-35.949,14.092-93.158
		c5.828-3.127,12.146-6.041,18.985-8.721C339.938,155.587,316.837,178.73,316.837,178.73z"/>
	<path style="fill:#65BAFC;" d="M259.229,66.69c-58.728,39.814-117.722,34.828-141.216,30.592
		c-5.158,23.962-3.999,54.721,10.997,93.711c0.255,0.659,0.51,1.319,0.776,1.968c66.388-2.148,102.06-19.304,139.392-45.585
		c22.757-16.024,23.487-45.501,19.897-67.92c-1.134-7.081-6.18-12.895-13.001-15.107c-0.066-0.021-0.132-0.043-0.198-0.064
		C270.257,62.46,264.119,63.375,259.229,66.69z"/>
	<path style="fill:#8ECBFD;" d="M247.62,74.001l-56.018,110.941c-9.753,2.478-20.272,4.435-31.843,5.818l52.859-100.826
		C223.998,86.083,235.772,80.892,247.62,74.001z"/>
	<path style="fill:#FFF5F5;" d="M261.968,103.273c-4.267,0-7.726-3.459-7.726-7.726c0-4.267,3.459-7.742,7.726-7.742
		c4.267,0,7.726,3.443,7.726,7.71v0.033C269.694,99.813,266.235,103.273,261.968,103.273z"/>
	<path style="fill:#756F6F;" d="M142.55,52.268l28.832,0c5.093,0,9.992-1.928,13.711-5.408c8.834-8.266,27.63-24.17,51.242-34.523
		C242.728,9.534,240.681,0.006,233.7,0c-26.671-0.023-65.261,7.308-95.419,43.041C135.205,46.686,137.781,52.268,142.55,52.268z"/>
	<path style="fill:#5B5555;" d="M171.527,224.961l-21.047,1.35c-3.946-3.904-7.788-8.736-11.425-14.649
		c0.381-0.093,0.783-0.144,1.185-0.175l30.298-1.947c4.255-0.278,7.932,2.946,8.211,7.211
		C179.016,221.005,175.791,224.682,171.527,224.961z"/>
</g>
<g>
</g>
<g>
</g>
<g>
</g>
<g>
</g>
<g>
</g>
<g>
</g>
<g>
</g>
<g>
</g>
<g>
</g>
<g>
</g>
<g>
</g>
<g>
</g>
<g>
</g>
<g>
</g>
<g>
</g>
</svg>
