<?xml version="1.0" encoding="iso-8859-1"?>
<!-- Uploaded to SVGRepo https://www.svgrepo.com -->
<svg version="1.1" id="Capa_1" xmlns="http://www.w3.org/2000/svg" xmlns:xlink="http://www.w3.org/1999/xlink" x="0px" y="0px"
	 viewBox="0 0 512 512" style="enable-background:new 0 0 512 512;" xml:space="preserve">
<g>
	<g>
		<path style="fill:#DAEDFF;" d="M353.251,192.903c0,62.282-7.139,133.827-19.208,196.909c-1.924,10.093-3.974,19.976-6.15,29.564
			H184.108c-2.176-9.588-4.226-19.471-6.15-29.564c-12.07-63.081-19.208-134.626-19.208-196.909C158.749,39.1,202.286,0,256,0
			S353.251,39.1,353.251,192.903z"/>
		<path style="fill:#B6DCFF;" d="M334.042,389.812c-1.924,10.093-3.974,19.976-6.15,29.564H184.108
			c-2.176-9.588-4.226-19.471-6.15-29.564H334.042z"/>
		<path style="fill:#B6DCFF;" d="M353.251,192.899c0,72.252-9.609,156.959-25.359,226.477h-24.297
			c15.76-69.517,25.369-154.224,25.369-226.477c0-142.03-37.134-186.242-85.107-192.176C247.831,0.226,251.889,0,256,0
			C309.714,0,353.251,39.093,353.251,192.899z"/>
	</g>
	<g>
		<g>
			<g>
				<path style="fill:#83B832;" d="M338.605,450.692c-3.063,0-5.963-1.834-7.173-4.851c-1.589-3.961,0.333-8.459,4.293-10.048
					c30.184-12.111,53.802-30.992,70.199-56.12c13.198-20.225,21.853-44.602,25.724-72.452c6.661-47.911-3.238-89.576-3.339-89.992
					c-1.006-4.147,1.54-8.324,5.687-9.33c4.15-1.009,8.324,1.539,9.33,5.686c0.44,1.812,10.689,44.969,3.628,95.764
					c-9.484,68.222-45.957,116.905-105.475,140.786C340.537,450.513,339.563,450.692,338.605,450.692z"/>
				<g>
					<g>
						<path style="fill:#BDEB73;" d="M446.641,155.967c4.176,26.211,0.112,62.532-11.739,64.42s-27-31.372-31.176-57.583
							c-4.176-26.211,4.203-35.447,16.054-37.335C431.631,123.581,442.466,129.756,446.641,155.967z"/>
					</g>
					<g>
						<path style="fill:#9AD63B;" d="M434.901,220.382c-2.758,0.443-5.701-1.027-8.648-3.873c5.847-12.335,7.31-37.464,4.199-56.994
							c-3.306-20.728-10.775-28.92-19.622-30.512c2.576-1.895,5.623-3.012,8.95-3.536c11.851-1.882,22.688,4.289,26.863,30.497
							C450.817,182.183,446.752,218.5,434.901,220.382z"/>
					</g>
					<g>
						<path style="fill:#8EC737;" d="M437.864,319.762c-5.828,2.901-15.678-3.779-25.356-14.282
							c-8.162-8.869-16.208-20.452-21.625-31.324c-11.833-23.769-6.604-35.081,4.141-40.436
							c10.439-5.195,22.246-2.835,33.768,19.128c0.338,0.625,0.662,1.27,0.993,1.937
							C441.609,278.541,448.608,314.408,437.864,319.762z"/>
						<path style="fill:#83B832;" d="M437.864,319.762c-5.828,2.901-15.678-3.779-25.356-14.282
							c0.167-4.518,0.869-9.53,2.103-15.013c2.742-12.221,7.931-25.91,14.181-37.619c0.338,0.625,0.662,1.27,0.993,1.937
							C441.609,278.541,448.608,314.408,437.864,319.762z"/>
						<path style="fill:#BDEB73;" d="M444.303,255.308c-13.524,22.838-23.104,58.108-12.778,64.222
							c10.325,6.114,36.646-19.242,50.17-42.08c13.524-22.838,9.129-34.508-1.196-40.623
							C470.173,230.713,457.827,232.471,444.303,255.308z"/>
						<path style="fill:#9AD63B;" d="M481.697,277.453c-13.527,22.831-39.841,48.19-50.176,42.076
							c-2.408-1.417-3.725-4.425-4.172-8.486c12.377-5.653,29.668-24.159,39.792-41.249c10.659-18.009,10.186-29.068,4.448-35.94
							c3.111,0.218,6.091,1.298,8.914,2.97C490.824,242.947,495.215,254.61,481.697,277.453z"/>
					</g>
					<g>
						<path style="fill:#8EC737;" d="M392.616,420.409c-6.503,0.369-12.911-9.664-17.655-23.141
							c-4.007-11.361-6.821-25.191-7.513-37.313c-1.499-26.495,7.777-34.841,19.756-35.515c11.656-0.656,21.576,6.175,23.491,30.917
							c0.057,0.704,0.103,1.417,0.144,2.15C412.326,384.011,404.598,419.725,392.616,420.409z"/>
						<path style="fill:#83B832;" d="M392.616,420.409c-6.503,0.369-12.911-9.664-17.655-23.141
							c1.928-4.091,4.547-8.411,7.848-12.964c7.351-10.148,17.522-20.664,27.886-28.946c0.057,0.704,0.103,1.417,0.144,2.15
							C412.326,384.011,404.598,419.725,392.616,420.409z"/>
						<path style="fill:#BDEB73;" d="M423.969,363.725c-21.439,15.647-44.16,44.273-37.086,53.966
							c7.074,9.693,41.266-3.218,62.705-18.865c21.439-15.647,22.007-28.105,14.932-37.798S445.408,348.078,423.969,363.725z"/>
						<path style="fill:#9AD63B;" d="M449.588,398.823c-21.442,15.649-55.628,28.56-62.705,18.868
							c-1.092-1.495-1.473-3.452-1.251-5.74c13.83-1.543,34.902-11.098,49.812-21.974c20.878-15.236,21.964-27.45,15.477-37.038
							c5.921,0.446,10.303,3.567,13.595,8.087C471.593,370.718,471.028,383.184,449.588,398.823z"/>
					</g>
				</g>
			</g>
			<g>
				<path style="fill:#83B832;" d="M173.395,450.692c-0.958,0-1.931-0.179-2.875-0.557c-59.518-23.88-95.99-72.563-105.475-140.786
					c-7.061-50.795,3.188-93.952,3.628-95.764c1.006-4.147,5.182-6.696,9.33-5.686c4.145,1.005,6.691,5.18,5.688,9.325l0,0
					c-0.101,0.42-10.041,42.493-3.278,90.443c3.915,27.761,12.596,52.057,25.799,72.215c16.39,25.023,39.962,43.834,70.062,55.91
					c3.96,1.59,5.882,6.088,4.293,10.048C179.358,448.858,176.458,450.692,173.395,450.692z"/>
				<g>
					<path style="fill:#BDEB73;" d="M65.359,155.967c-4.176,26.211-0.112,62.532,11.739,64.42s27-31.372,31.176-57.583
						s-4.203-35.447-16.054-37.335C80.369,123.581,69.534,129.756,65.359,155.967z"/>
				</g>
				<g>
					<path style="fill:#9AD63B;" d="M108.273,162.809c-4.176,26.209-19.321,59.465-31.174,57.573
						c-2.91-0.458-5.354-2.995-7.313-6.963c9.5-9.693,18.879-33.456,22.027-53.206c3.15-19.793-0.855-29.912-8.107-34.473
						c2.714-0.713,5.581-0.739,8.514-0.273C104.072,127.359,112.447,136.59,108.273,162.809z"/>
				</g>
				<g>
					<path style="fill:#8EC737;" d="M74.136,319.762c5.828,2.901,15.678-3.779,25.356-14.282
						c8.162-8.869,16.208-20.452,21.625-31.324c11.833-23.769,6.604-35.081-4.141-40.436c-10.439-5.195-22.246-2.835-33.768,19.128
						c-0.338,0.625-0.662,1.27-0.993,1.937C70.391,278.541,63.391,314.408,74.136,319.762z"/>
					<path style="fill:#83B832;" d="M121.117,274.156c-5.417,10.873-13.463,22.455-21.625,31.324
						c-9.678,10.503-19.528,17.183-25.356,14.282c-1.58-0.789-2.788-2.252-3.638-4.227c3.996-2.648,8.334-6.562,12.635-11.228
						c8.162-8.87,16.208-20.452,21.625-31.325c11.645-23.383,6.764-34.715-3.623-40.164c5.468-2.352,10.821-1.599,15.841,0.901
						C127.721,239.074,132.95,250.387,121.117,274.156z"/>
					<path style="fill:#83B832;" d="M74.136,319.762c5.828,2.901,15.678-3.779,25.356-14.282c-0.167-4.518-0.869-9.53-2.103-15.013
						c-2.742-12.221-7.931-25.91-14.181-37.619c-0.338,0.625-0.662,1.27-0.993,1.937C70.391,278.541,63.391,314.408,74.136,319.762z
						"/>
					<path style="fill:#BDEB73;" d="M67.697,255.308c13.524,22.838,23.104,58.108,12.778,64.222
						c-10.325,6.114-36.646-19.242-50.17-42.08s-9.129-34.508,1.196-40.623C41.827,230.713,54.173,232.471,67.697,255.308z"/>
					<path style="fill:#9AD63B;" d="M80.479,319.53c-2.601,1.537-6.214,1.085-10.384-0.827c1.836-13.199-6.313-38.59-16.864-56.405
						c-9.621-16.239-18.632-21.813-26.751-21.481c1.413-1.552,3.114-2.866,5.018-3.992c10.324-6.112,22.677-4.351,36.194,18.482
						C81.221,278.148,90.803,313.417,80.479,319.53z"/>
				</g>
				<g>
					<path style="fill:#8EC737;" d="M119.384,420.409c6.503,0.369,12.911-9.664,17.655-23.141
						c4.007-11.361,6.821-25.191,7.513-37.313c1.499-26.495-7.777-34.841-19.756-35.515c-11.656-0.656-21.576,6.175-23.491,30.917
						c-0.057,0.704-0.103,1.417-0.144,2.15C99.674,384.011,107.402,419.725,119.384,420.409z"/>
					<path style="fill:#83B832;" d="M144.552,359.956c-0.692,12.122-3.506,25.952-7.513,37.313
						c-4.744,13.477-11.153,23.51-17.655,23.141c-3.063-0.175-5.846-2.642-8.273-6.655c3.43-4.16,6.612-10.635,9.264-18.181
						c4.007-11.361,6.821-25.191,7.513-37.313c1.089-19.195-3.489-28.871-10.643-32.99c2.378-0.74,4.92-0.974,7.551-0.83
						C136.775,325.115,146.05,333.461,144.552,359.956z"/>
					<path style="fill:#83B832;" d="M119.384,420.409c6.503,0.369,12.911-9.664,17.655-23.141
						c-1.928-4.091-4.547-8.411-7.848-12.964c-7.351-10.148-17.522-20.664-27.886-28.946c-0.057,0.704-0.103,1.417-0.144,2.15
						C99.674,384.011,107.402,419.725,119.384,420.409z"/>
					<path style="fill:#BDEB73;" d="M88.031,363.725c21.439,15.647,44.16,44.273,37.086,53.966
						c-7.074,9.693-41.266-3.218-62.705-18.865s-22.007-28.105-14.932-37.798S66.592,348.078,88.031,363.725z"/>
					<path style="fill:#9AD63B;" d="M125.117,417.69c-2.261,3.1-7.299,3.892-13.807,3.011c0.216-12.155-19.585-35.876-38.392-49.598
						c-10.293-7.516-18.417-10.663-24.864-10.839c7.142-9.085,19.105-11.771,39.973,3.467
						C109.467,379.37,132.194,407.998,125.117,417.69z"/>
				</g>
			</g>
		</g>
		<g>
			<path style="fill:#EFE2DD;" d="M349.014,415.034v66.751H162.986v-66.751c0-5.803,4.7-10.503,10.493-10.503h165.042
				C344.314,404.531,349.014,409.23,349.014,415.034z"/>
			<path style="fill:#CDBFBB;" d="M349.016,415.032v66.758h-24.151v-66.758c0-5.796-4.704-10.5-10.5-10.5h24.151
				C344.311,404.532,349.016,409.236,349.016,415.032z"/>
			<g>
				<path style="fill:#FFF5F5;" d="M391.754,512H120.246c-5.799,0-10.5-4.701-10.5-10.5v-26.616c0-5.799,4.701-10.5,10.5-10.5
					h271.508c5.799,0,10.5,4.701,10.5,10.5V501.5C402.255,507.299,397.553,512,391.754,512z"/>
				<path style="fill:#EFE2DD;" d="M402.253,474.881V501.5c0,5.796-4.704,10.5-10.5,10.5h-23.185c5.796,0,10.5-4.704,10.5-10.5
					v-26.619c0-5.796-4.704-10.5-10.5-10.5h23.185C397.549,464.381,402.253,469.085,402.253,474.881z"/>
			</g>
		</g>
	</g>
	<path style="fill:#FFB54E;" d="M267.491,120.245h-2.893V85.542c0-2.678-1.386-5.165-3.664-6.572
		c-2.278-1.406-5.122-1.535-7.517-0.338l-12.364,6.182c-3.817,1.908-5.364,6.549-3.455,10.366c1.908,3.816,6.55,5.363,10.366,3.455
		l1.182-0.591v22.201h-2.893c-4.267,0-7.726,3.459-7.726,7.726s3.459,7.726,7.726,7.726h21.238c4.267,0,7.726-3.459,7.726-7.726
		S271.759,120.245,267.491,120.245z"/>
	<path style="fill:#8ECBFD;" d="M281.988,176.354h-51.977c-4.267,0-7.726-3.459-7.726-7.726c0-4.268,3.459-7.726,7.726-7.726h51.977
		c4.267,0,7.726,3.459,7.726,7.726C289.715,172.895,286.256,176.354,281.988,176.354z"/>
	<path style="fill:#8ECBFD;" d="M304.012,220.568h-96.024c-4.267,0-7.726-3.459-7.726-7.726s3.459-7.726,7.726-7.726h96.024
		c4.267,0,7.726,3.459,7.726,7.726S308.279,220.568,304.012,220.568z"/>
	<path style="fill:#8ECBFD;" d="M304.012,252.166h-96.024c-4.267,0-7.726-3.459-7.726-7.726s3.459-7.726,7.726-7.726h96.024
		c4.267,0,7.726,3.459,7.726,7.726S308.279,252.166,304.012,252.166z"/>
	<g>
		<g>
			<g>
				<path style="fill:#FFCE8B;" d="M291.793,318.979l-15.129,14.742l3.571,20.821c0.534,3.118-2.737,5.494-5.54,4.024L256,348.738
					l-18.695,9.828c-2.803,1.47-6.074-0.906-5.54-4.024l1.933-11.273l1.638-9.548l-15.129-14.742
					c-2.264-2.208-1.012-6.059,2.116-6.511l20.903-3.037l9.35-18.944c1.399-2.839,5.448-2.839,6.847,0l9.35,18.944l6.964,1.012
					l13.939,2.025C292.805,312.92,294.056,316.771,291.793,318.979z"/>
				<path style="fill:#FFB54E;" d="M291.793,318.979l-15.129,14.742l3.571,20.821c0.534,3.118-2.737,5.494-5.54,4.024L256,348.738
					l-18.695,9.828c-2.803,1.47-6.074-0.906-5.54-4.024l1.933-11.273c29.012-5.296,38.809-21.223,42.04-32.827l13.939,2.025
					C292.805,312.92,294.056,316.771,291.793,318.979z"/>
			</g>
		</g>
	</g>
</g>
<g>
</g>
<g>
</g>
<g>
</g>
<g>
</g>
<g>
</g>
<g>
</g>
<g>
</g>
<g>
</g>
<g>
</g>
<g>
</g>
<g>
</g>
<g>
</g>
<g>
</g>
<g>
</g>
<g>
</g>
</svg>
