<?xml version="1.0" ?><!DOCTYPE svg  PUBLIC '-//W3C//DTD SVG 1.1//EN'  'http://www.w3.org/Graphics/SVG/1.1/DTD/svg11.dtd'><svg width="512px" height="512px" viewBox="0 0 512 512" enable-background="new 0 0 512 512" id="Elf" version="1.1" xml:space="preserve" xmlns="http://www.w3.org/2000/svg" xmlns:xlink="http://www.w3.org/1999/xlink"><path d="M430.847,368.385c0,0,0.435,45.119-9.979,84.6l-40.478-90.674  C380.391,362.311,415.662,358.84,430.847,368.385z" fill="#E8897B"/><linearGradient gradientUnits="userSpaceOnUse" id="SVGID_1_" x1="311.5713" x2="345.333" y1="409.2168" y2="516.4917"><stop offset="0.0051" style="stop-color:#FFC3B0"/><stop offset="1" style="stop-color:#E8897B"/></linearGradient><path d="M226.504,469.471c0,0,9.466,26.766,41.139,33.865c11.453,2.566,23.517,1.599,34.027-3.629  c6.703-3.334,13.931-8.713,19.065-17.361c1.368-2.304,4.662-2.29,6.128-0.047c3.338,5.109,9.595,12.443,20.099,17.391  c15.135,7.129,32.739,5.976,47.389-2.105c11.136-6.144,23.337-17.162,28.02-36.715c2.317-9.675,2.08-19.761,0.024-29.493  c-3.588-16.981-25.569-50.735-42.004-69.065C380.391,362.311,295.92,381.834,226.504,469.471z" fill="url(#SVGID_1_)"/><path d="M422.395,431.375c-0.145-0.683-0.313-1.435-0.473-2.17c-16.443-0.561-57.639-6.938-63.23-55.978  c-34.713,13.467-88.924,41.622-132.188,96.243c0,0,9.466,26.766,41.139,33.865c11.453,2.566,23.517,1.599,34.027-3.629  c6.703-3.334,13.931-8.713,19.065-17.361c1.368-2.304,4.662-2.29,6.128-0.047c3.338,5.109,9.595,12.443,20.099,17.391  c15.136,7.129,32.739,5.975,47.388-2.105c11.137-6.144,23.338-17.162,28.021-36.715C424.688,451.194,424.45,441.108,422.395,431.375  z" fill="#B56D95"/><path d="M422.395,431.375c-0.145-0.683-0.313-1.435-0.473-2.17c-8.816-0.301-24.747-2.283-38.492-11.609  c2.748,18.002,5.816,69.195-46.67,75.672c2.838,2.316,6.21,4.542,10.202,6.422c15.136,7.129,32.739,5.975,47.388-2.105  c11.137-6.144,23.338-17.162,28.021-36.715C424.688,451.194,424.45,441.108,422.395,431.375z" fill="#934A74"/><path d="M321.385,435.826c-2.025-3.885-5.594-9.275-11.389-13.852c-1.248-0.986-0.371-2.969,1.188-2.645  l11.107,2.311c0,0,3.608-2.768,9.539-6.1c1.394-0.783,2.883,0.889,1.931,2.174c-3.286,4.438-7.48,11.031-9.265,17.75  C324.1,436.961,322.102,437.199,321.385,435.826z" fill="#934A74"/><path d="M311.592,439.38c-2.164-2.676-6.408-1.409-6.969,1.986c-6.715,40.685-40.844,53.976-50.426,57.228  c3.971,1.943,8.397,3.61,13.446,4.742c11.453,2.566,23.517,1.599,34.027-3.629c5.94-2.955,12.285-7.527,17.229-14.546  c2.039-5.19,2.988-10.839,2.813-16.542C321.271,454.284,316,444.83,311.592,439.38z" fill="#934A74"/><path d="M260.129,37.179c0,0-15.436-34.49-57.135-29.359c-16.76,2.063-32.361,9.947-44.393,21.795  c-13.569,13.362-28.887,36.135-27.494,70.168c0.135,3.3,0.541,6.565,1.012,9.834c1.518,10.535,5.246,34.716,9.257,48.014  c1.213,4.023,1.973,8.144,2.241,12.338l0.046,0.719c1.446,22.653-11.192,44.322-32.197,52.931  c-7.658,3.139-16.976,5.148-28.274,5.126c-8.545-0.017-13.556,9.452-8.902,16.62c6.114,9.416,18.015,20.2,41.178,25.992  c15.427,3.856,31.786,3.43,46.5-2.6c8.384-3.436,16.973-8.734,22.314-16.854c0,0,1.802,13.695,16.064,15.034  c6.605,0.62,13.068-1.904,18.195-6.116c7.274-5.976,17.776-17.241,19.155-33.253C237.695,227.569,194.964,132.256,260.129,37.179z" fill="#FFE19F"/><path d="M186.888,258.784c2.216,3.632,6.236,7.476,13.457,8.154c6.605,0.62,13.068-1.905,18.195-6.116  c7.274-5.976,17.776-17.241,19.155-33.253c0,0-3.754-8.426-7.341-22.69C225.299,227.369,213.403,250.339,186.888,258.784z" fill="#D8A648"/><path d="M232.854,474.801C256,450.123,342.968,363.136,413.615,369.116c5.275,0.446,10.422,2.226,14.594,5.485  c0.281,0.221,0.562,0.447,0.838,0.682c2.541,2.154,6.401,1.156,7.664-1.926c4.877-11.903,8.588-35.635-36.914-39.275  c0,0,5.23-25.271-43.648-20.788c0,0-5.265-38.122-68.853-39.442c0,0-78.534-1.727-67.393,41.888c0,0-79.829,16.626-84.49,74.063  c-0.165,2.036-0.017,4.071,0.322,6.085c2.361,14.01,15.515,65.923,82.235,83.283C223.347,480.568,229.054,478.854,232.854,474.801z" fill="#CFC46E"/><path d="M399.797,334.082c0,0,5.23-25.272-43.648-20.788c0,0-0.006-0.036-0.018-0.105  c-0.002-0.016-0.008-0.046-0.012-0.065c-0.011-0.066-0.023-0.138-0.043-0.243c-0.011-0.054-0.027-0.13-0.04-0.192  c-0.02-0.096-0.037-0.183-0.063-0.299c-0.021-0.096-0.05-0.213-0.075-0.32c-0.027-0.117-0.052-0.224-0.085-0.355  c-0.032-0.125-0.073-0.269-0.11-0.407c-0.038-0.141-0.073-0.274-0.118-0.429c-0.045-0.159-0.102-0.336-0.154-0.509  c-0.048-0.156-0.092-0.306-0.146-0.472c-0.062-0.189-0.134-0.395-0.204-0.598c-0.061-0.176-0.118-0.346-0.186-0.531  c-0.077-0.213-0.166-0.437-0.253-0.66c-0.074-0.193-0.146-0.383-0.229-0.584c-0.097-0.239-0.205-0.488-0.313-0.737  c-0.089-0.205-0.176-0.407-0.271-0.62c-0.119-0.264-0.25-0.535-0.381-0.809c-0.104-0.214-0.205-0.426-0.314-0.645  c-0.143-0.284-0.297-0.574-0.452-0.866c-0.12-0.225-0.239-0.448-0.366-0.677c-0.168-0.3-0.346-0.605-0.527-0.912  c-0.137-0.232-0.275-0.464-0.421-0.7c-0.194-0.316-0.401-0.636-0.612-0.958c-0.154-0.237-0.313-0.475-0.477-0.716  c-0.222-0.325-0.455-0.653-0.693-0.983c-0.179-0.246-0.359-0.493-0.547-0.742c-0.251-0.331-0.512-0.664-0.779-0.999  c-0.201-0.251-0.406-0.503-0.618-0.756c-0.283-0.339-0.576-0.679-0.878-1.019c-0.222-0.25-0.448-0.499-0.68-0.75  c-0.32-0.346-0.649-0.692-0.99-1.039c-0.242-0.246-0.492-0.492-0.746-0.739c-0.357-0.349-0.722-0.696-1.102-1.044  c-0.268-0.246-0.545-0.49-0.824-0.734c-0.395-0.347-0.795-0.691-1.213-1.035c-0.295-0.242-0.602-0.484-0.908-0.726  c-0.434-0.341-0.873-0.681-1.33-1.019c-0.32-0.236-0.654-0.471-0.986-0.704c-0.479-0.339-0.963-0.675-1.467-1.007  c-0.345-0.227-0.705-0.448-1.061-0.672c-0.526-0.33-1.055-0.66-1.607-0.982c-0.371-0.217-0.76-0.428-1.143-0.641  c-0.575-0.319-1.15-0.639-1.753-0.949c-0.399-0.206-0.82-0.404-1.232-0.606c-0.624-0.306-1.245-0.61-1.898-0.905  c-0.429-0.193-0.882-0.379-1.323-0.566c-0.676-0.289-1.35-0.578-2.057-0.855c-0.451-0.177-0.93-0.343-1.395-0.515  c-0.738-0.272-1.473-0.546-2.244-0.806c-0.466-0.156-0.96-0.299-1.438-0.449c-0.812-0.256-1.616-0.514-2.464-0.753  c-0.471-0.134-0.972-0.251-1.454-0.378c-0.896-0.237-1.785-0.477-2.721-0.694c-0.456-0.106-0.94-0.196-1.405-0.297  c-1.004-0.218-2.002-0.438-3.051-0.633c-0.365-0.067-0.757-0.12-1.127-0.185c-4.182-0.73-8.7-1.279-13.621-1.586  c-0.082-0.004-0.156-0.014-0.238-0.019l0,0c-1.938-0.116-3.93-0.202-5.987-0.244c0,0-8.351-0.175-19.203,1.087  c-0.169,0.255-0.337,0.509-0.501,0.762c-15.586,24.063,0.995,56.514,29.645,57.589c12.379,0.464,24.829-3.069,35.091-7.284  c2.898,2.801,6.636,4.602,10.712,4.935c10.641,0.868,28.379,4.169,26.09,16.575c-0.665,3.604-2.964,6.693-5.956,8.811  c-8.8,6.225-33.491,24.895-52.429,50.387c32.427-22.494,69.75-40.601,103.344-37.555c4.949,0.447,9.754,2.146,13.723,5.138  c0.416,0.313,0.83,0.642,1.236,0.987c2.541,2.155,6.401,1.156,7.664-1.926C441.588,361.453,445.299,337.723,399.797,334.082z" fill="#A19145"/><path d="M274.037,435.35c-51.703,21.818-104.111,2.836-126.889-7.918c10.885,19.372,31.584,41.529,70.822,51.738  c5.376,1.398,11.083-0.316,14.884-4.369C240.529,466.617,255.249,451.574,274.037,435.35z" fill="#A19145"/><linearGradient gradientUnits="userSpaceOnUse" id="SVGID_2_" x1="295.459" x2="295.459" y1="288.1797" y2="188.929"><stop offset="0.0051" style="stop-color:#FFC3B0"/><stop offset="1" style="stop-color:#E8897B"/></linearGradient><path d="M295.459,323.076L295.459,323.076c-18.24,0-33.027-14.786-33.027-33.027v-56.647h66.054v56.647  C328.485,308.29,313.699,323.076,295.459,323.076z" fill="url(#SVGID_2_)"/><path d="M263.977,233.401c9.798,14.028,36.355,50.427,56.595,78.065c4.925-5.768,7.914-13.238,7.914-21.418v-56.647  H263.977z" fill="#E8897B"/><linearGradient gradientUnits="userSpaceOnUse" id="SVGID_3_" x1="328.4854" x2="328.4854" y1="275.1396" y2="32.4424"><stop offset="0.0051" style="stop-color:#FFC3B0"/><stop offset="1" style="stop-color:#E8897B"/></linearGradient><path d="M266.359,233.614c0,0,27.863,42.187,75.746,60.264c4.684,1.769,9.968,0.008,12.709-4.181  c9.154-13.99,28.83-48.287,35.592-93.483c0.588-3.928-0.108-7.949-1.844-11.522L339.774,84.25l-24.894,1.464l-45.396,48.323  L266.359,233.614z" fill="url(#SVGID_3_)"/><path d="M325.559,200.446L325.559,200.446c-2.975,0-5.387-2.412-5.387-5.387v-11.307  c0-2.976,2.412-5.387,5.387-5.387l0,0c2.977,0,5.388,2.412,5.388,5.387v11.307C330.946,198.034,328.535,200.446,325.559,200.446z" fill="#333345"/><path d="M346.562,215.564h14.462c2.279,0,3.799,2.422,2.729,4.434c-1.684,3.165-4.723,6.864-9.732,6.864  c0,0-7.139-0.114-10.274-7.02C342.838,217.846,344.367,215.564,346.562,215.564z" fill="#E8897B"/><path d="M339.774,84.25l-8.674,0.51l-2.615,14.65c-1.935,1.177-14.225,57.654,31.756,91.865  c4.124,3.068,6.733,7.76,6.965,12.895c0.774,17.198-1.032,56.753-29.493,87.959c1.484,0.621,2.989,1.221,4.516,1.795  c4.643,1.748,9.861-0.063,12.577-4.214c9.151-13.981,28.837-48.287,35.601-93.496c0.588-3.929-0.108-7.949-1.844-11.522  L339.774,84.25z" fill="#E8897B"/><path d="M300.231,119.64l23.783-20.303c0,0-2.29,64.879,63.353,96.937c0,0-1.527,20.608-4.58,31.294  c0,0,33.584,0.763,32.059-47.323c0,0,47.323-83.961-50.377-138.154c0,0-58.773-65.643-122.125,6.106l-9.708,14.432  c-14.468,21.506-22.602,46.644-23.392,72.552c-1.245,40.859,6.083,96.697,52.792,109.945c5.836,1.655,11.603-2.926,11.603-8.991  v-41.387c0,0,33.608-18.821,21.979-60.246C294.098,129.093,295.959,123.288,300.231,119.64z" fill="#FFE19F"/><path d="M373.508,47.449c14.416,18.108,43.833,64.29,19.336,115.967c-3.353,7.072-10.084,11.922-17.884,12.576  c-4.974,0.417-11.315,0.176-18.812-1.575c8.167,8.052,18.378,15.586,31.219,21.857c0,0-1.527,20.609-4.58,31.295  c0,0,33.584,0.763,32.059-47.324C414.846,180.245,459.145,101.638,373.508,47.449z" fill="#EDC063"/><path d="M230.731,43.783L230.731,43.783c4.58-4.193,11.647-3.833,15.842,0.745  c8.573,9.354,25.905,23.283,55.81,28.036c2.071,0.329,3.514,2.238,3.18,4.309l0,0c-0.285,1.773-1.77,3.091-3.564,3.161  c-10.313,0.401-44.398,0.115-70.264-18.904C226.02,56.927,225.5,48.573,230.731,43.783z" fill="#A19145"/><path d="M398.238,50.335L398.238,50.335c-3.297-2.511-7.744-1.752-9.975,1.658  c-4.557,6.969-14.236,17.678-32.75,23.078c-1.282,0.374-2.018,1.773-1.611,3.154l0,0c0.348,1.182,1.412,1.968,2.557,1.885  c6.576-0.478,28.16-3.152,42.772-17.936C402.46,58.909,402.004,53.205,398.238,50.335z" fill="#A19145"/><linearGradient gradientUnits="userSpaceOnUse" id="SVGID_4_" x1="242.0645" x2="177.5889" y1="213.8809" y2="122.6008"><stop offset="0.0051" style="stop-color:#FFC3B0"/><stop offset="1" style="stop-color:#E8897B"/></linearGradient><path d="M194.677,129.693c-2.676-1.789-6.156,0.766-5.267,3.86c3.727,12.977,10.695,37.713,14.675,54.86  c0,0,5.832,29.162,32.166,35.836c6.233,1.58,12.54-2.487,13.592-8.831c0.815-4.912,1.135-11.359-0.284-18.796  c-1.13-5.918-3.593-11.472-6.792-16.578C235.722,168.794,219.653,146.39,194.677,129.693z" fill="url(#SVGID_4_)"/><path d="M226.401,180.767c4.184,4.906,8.963,12.616,9.764,22.815c0.161,2.053-2.148,3.433-3.871,2.306  c-3.619-2.368-8.318-6.9-7.693-14.248c0,0,0.113-4.269-1.259-9.277C222.848,180.558,225.187,179.342,226.401,180.767z" fill="#E8897B"/><path d="M237.317,336.871c5.812,8.581,17.817,20.152,41.415,23.967c3.829,0.619,3.899,6.042,0.077,6.697  c-7.3,1.25-16.774,1.368-27.632-2.02c-8.104-2.527-14.928-8.273-17.925-16.216c-1.119-2.966-1.958-6.446-2.162-10.428  C230.915,335.438,235.39,334.023,237.317,336.871z" fill="#A19145"/></svg>