<?xml version="1.0" ?><!DOCTYPE svg  PUBLIC '-//W3C//DTD SVG 1.1//EN'  'http://www.w3.org/Graphics/SVG/1.1/DTD/svg11.dtd'><svg width="512px" height="512px" viewBox="0 0 512 512" enable-background="new 0 0 512 512" id="Adventure_x5F_Map" version="1.1" xml:space="preserve" xmlns="http://www.w3.org/2000/svg" xmlns:xlink="http://www.w3.org/1999/xlink"><circle cx="72.542" cy="63.845" fill="#FFBF76" r="21.845"/><path d="M67.61,42.58c-9.686,2.238-16.914,10.899-16.914,21.265c0,10.366,7.228,19.026,16.913,21.265  c5.729-5.294,9.337-12.849,9.337-21.265S73.338,47.875,67.61,42.58z" fill="#FFD9BE"/><linearGradient gradientUnits="userSpaceOnUse" id="SVGID_1_" x1="218.9883" x2="332.9009" y1="185.4399" y2="529.0007"><stop offset="0.0103" style="stop-color:#A84A78"/><stop offset="1" style="stop-color:#C36C9A"/></linearGradient><path d="M8.963,317.887C48.476,291.35,179.168,203.231,215.1,174.655c4.479-3.562,10.441-4.596,15.853-2.734  c25.923,8.92,101.317,34.708,135.479,44.713c4.355,1.276,6.545,6.113,4.659,10.242l-15.641,34.246l40.942-27.861  c2.646-1.801,5.971-2.272,9.009-1.265c14.693,4.872,60.127,19.768,94.329,29.163c6.722,1.846,9.011,10.193,4.152,15.191  c-23.237,23.902-77.256,79.354-99.357,101.067c-1.247,1.225-2.875,1.968-4.617,2.11l-29.851,2.438l8.77,7.972  c3.169,2.881,3.272,7.827,0.216,10.827c-13.654,13.409-48.672,47.802-65.389,64.268c-5.209,5.133-13.076,6.426-19.657,3.238  l-126.162-61.087c-3.18-1.54-4.842-5.1-3.981-8.526l3.693-14.7l-29.756,15.281c-2.376,1.22-5.203,1.087-7.444-0.366  c-13.158-8.533-61.13-38.897-120.383-67.474C4.525,328.773,3.95,321.254,8.963,317.887z" fill="url(#SVGID_1_)"/><path d="M435.011,289.653c4.71-4.418,3.083-12.237-3.001-14.401c-15.798-5.621-38.645-13.965-63.401-23.084  l-13.158,8.954l5.396-11.815c-50.595-18.666-106.828-39.678-126.805-47.151c-4.681-1.751-9.903-0.994-13.885,2.027  c-30.374,23.037-117.562,87.625-146.712,109.202c-3.983,2.949-3.176,9.13,1.445,10.922c26.648,10.333,69.443,33.023,69.443,33.023  c38.745,20.909,114.45,51.946,139.998,62.263c5.277,2.131,11.272,0.998,15.414-2.906  C329.742,388.406,406.973,315.951,435.011,289.653z" fill="#FFE7D0"/><path d="M313.844,352.27l-11.662-10.465c-0.823-0.738-1.956-1.027-3.033-0.772l-19.018,4.504l-9.876-10.673  c-0.809-0.873-2.016-1.256-3.179-1.01l-15.138,3.212c-2.488,0.527-3.521,3.511-1.893,5.464l7.053,8.462l-20.123,4.766  c-2.599,0.615-3.488,3.86-1.566,5.716l10.987,10.602c0.827,0.798,2.003,1.121,3.122,0.855l21.608-5.109l11.178,13.411  c0.868,1.042,2.274,1.462,3.572,1.069l16.928-5.122c2.387-0.723,3.193-3.694,1.499-5.525l-8.866-9.581l16.93-4.004  C315.019,357.441,315.873,354.09,313.844,352.27z" fill="#C14C82"/><ellipse cx="231.374" cy="233.066" fill="#C14C82" rx="10.692" ry="9.737" transform="matrix(0.9645 0.2639 -0.2639 0.9645 69.714 -52.8006)"/><path clip-rule="evenodd" d="M310.201,301.695l-10.238,0.115  c0.04,6.678-0.657,13.466-2.095,20.193l10.029,2.063C309.451,316.771,310.251,309.257,310.201,301.695z" fill="#C14C82" fill-rule="evenodd"/><path clip-rule="evenodd" d="M298.315,262.896l-8.312,5.979  c3.688,5.231,6.505,11.084,8.043,17.41l9.919-2.54C306.146,276.293,302.773,269.186,298.315,262.896z" fill="#C14C82" fill-rule="evenodd"/><path clip-rule="evenodd" d="M265.768,238.878l-3.554,9.602  c6.178,2.325,12.101,5.465,17.21,9.495l6.286-8.083C279.678,245.152,272.88,241.553,265.768,238.878z" fill="#C14C82" fill-rule="evenodd"/><path d="M73.542,93.448c4.081-4.909,12.269-11.751,26.009-11.311c2.882,0.092,5.521,1.679,7.101,4.091l43.702,66.754  l-40.028,23.814c0,0-23.957-41.924-38.043-73.935C70.901,99.726,71.351,96.084,73.542,93.448z" fill="#B75798"/><path d="M71.857,102.551c4.146-5.862,14.205-16.875,31.621-17.626c2.262-0.098,3.547-2.607,2.206-4.431l-1.205-1.639  c-3.149-4.283-8.559-6.316-13.717-5.03c-5.939,1.48-13.967,4.725-21.546,11.822c-4.655,4.358-5.476,11.472-2.003,16.821l0.013,0.021  C68.306,104.154,70.71,104.172,71.857,102.551z" fill="#FFD9BE"/><path d="M113.882,174.682l36.472-21.698l-43.702-66.754c-1.58-2.413-4.219-3.999-7.101-4.091  c-2.83-0.091-5.368,0.186-7.739,0.633C106.99,100.186,134.428,139.13,113.882,174.682z" fill="#7F2467"/><path d="M89.876,87.922c3.914-1.632,8.425-2.774,13.601-2.997c2.262-0.098,3.547-2.607,2.206-4.431l-1.205-1.639  c-3.149-4.283-8.559-6.316-13.717-5.03c-1.687,0.42-3.554,1.005-5.52,1.758C87.703,78.124,90.149,82.149,89.876,87.922z" fill="#FFBF76"/><linearGradient gradientUnits="userSpaceOnUse" id="SVGID_2_" x1="183.4746" x2="129.2596" y1="256.2935" y2="166.6726"><stop offset="0" style="stop-color:#FFFFFF"/><stop offset="1" style="stop-color:#C7DAFF"/></linearGradient><path d="M106.229,191.664c0,0,37.804,65.307,57.192,88.266h55.103c0,0-38.314-93.878-56.147-121.94  L106.229,191.664z" fill="url(#SVGID_2_)"/><linearGradient gradientUnits="userSpaceOnUse" id="SVGID_3_" x1="106.2285" x2="218.5234" y1="218.9595" y2="218.9595"><stop offset="0" style="stop-color:#819FEA"/><stop offset="1" style="stop-color:#A7C1FC"/></linearGradient><path d="M218.523,279.93c0,0-38.314-93.878-56.147-121.94l-56.147,33.674c0,0,0.684,1.179,1.885,3.231  c14.962,4.643,42.24,13.606,42.24,13.606l40.406,71.429H218.523z" fill="url(#SVGID_3_)"/><path d="M61.608,198.513l128.116-71.255c3.678-2.046,8.089-2.519,12.027-1.035c3.902,1.47,8.382,4.226,10.667,9.368  c0,0,0.076,0.159,0.197,0.455c5.552,13.566-8.891,27.15-22.021,20.633c-1.241-0.616-2.434-1.364-3.508-2.274  c-2.021-1.711-4.872-2.014-7.157-0.676l-9.544,5.587c-1.087,0.636-1.954,1.589-2.485,2.732l-14.96,32.203  c-1.562,3.361-5.012,5.433-8.713,5.232l-41.098-2.235c-1.099-0.06-2.193,0.174-3.171,0.679l-10.602,5.468  c-2.282,1.177-3.611,3.625-3.308,6.174c0.29,2.436,0.392,5.809-0.325,9.673c-1.353,7.297-8.325,12.188-15.646,10.969  c-0.151-0.025-0.303-0.051-0.455-0.078c-11.988-2.141-19.315-15.157-13.641-25.931c0.282-0.536,0.593-1.063,0.936-1.578  C58.083,200.873,59.771,199.535,61.608,198.513z" fill="#FFD9BE"/><path d="M152.939,194.25l14.961-32.203c0.531-1.143,1.397-2.096,2.485-2.732l9.544-5.586  c2.285-1.338,5.137-1.035,7.157,0.677c1.074,0.909,2.267,1.657,3.508,2.273c13.13,6.517,27.573-7.067,22.021-20.633  c-0.121-0.295-0.197-0.455-0.197-0.455c-2.285-5.142-6.766-7.898-10.667-9.368c-3.938-1.484-8.349-1.011-12.027,1.035  l-60.711,33.767c5.314,6.163,14.505,19.278,17.27,38.31C149.16,198.827,151.674,196.975,152.939,194.25z" fill="#FFBF76"/><linearGradient gradientUnits="userSpaceOnUse" id="SVGID_4_" x1="147.1084" x2="236.5098" y1="279.709" y2="279.709"><stop offset="0.0103" style="stop-color:#A84A78"/><stop offset="1" style="stop-color:#C36C9A"/></linearGradient><path d="M148.047,280.744c-1.222-0.104-1.265-1.882-0.048-2.033c8.67-1.077,23.229-2.506,40.548-2.693  c0,0,25.725-0.773,47.108,2.572c1.186,0.186,1.117,1.924-0.078,2.032c-10.809,0.978-31.43,2.667-46.784,2.856  c-0.024,0-0.023,0.001-0.048,0C188.156,283.447,165.795,282.267,148.047,280.744z" fill="url(#SVGID_4_)"/></svg>