<?xml version="1.0" ?><!DOCTYPE svg  PUBLIC '-//W3C//DTD SVG 1.1//EN'  'http://www.w3.org/Graphics/SVG/1.1/DTD/svg11.dtd'><svg width="512px" height="512px" viewBox="0 0 512 512" enable-background="new 0 0 512 512" id="Fairy" version="1.1" xml:space="preserve" xmlns="http://www.w3.org/2000/svg" xmlns:xlink="http://www.w3.org/1999/xlink"><path d="M235.414,323.476c0,0,19.359,103.913,0.008,175.792c-0.536,1.989,2.087,3.194,3.23,1.479  c13.221-19.847,42.383-71.695,42.03-142.486L235.414,323.476z" fill="#C76266"/><path d="M276.557,241.679c0,0,22.963,26.351,59.473,36.856c1.864,0.536,3.106-1.882,1.539-3.024  c-15.072-10.993-48.736-37.766-59.258-64.538L276.557,241.679z" fill="#C76266"/><path d="M291.15,137.484c0,0,17.017,64.247-13.61,81.969c0,0-27.446-13.259-25.772-50.369  c0.903-20.013,19.115-36.594,38.568-31.808C290.605,137.343,290.877,137.413,291.15,137.484z" fill="#5D90C1"/><path d="M281.42,132.906v35.798c0,2.822-0.431,5.653-1.514,8.258c-2.077,5.002-6.983,11.255-18.526,11.255  c0,0-16.834-9.619-12.559-35.271C248.821,152.946,253.898,129.966,281.42,132.906z" fill="#FFC3B0"/><linearGradient gradientUnits="userSpaceOnUse" id="SVGID_1_" x1="245.084" x2="256.9238" y1="234.7036" y2="647.1258"><stop offset="0.0051" style="stop-color:#FFC3B0"/><stop offset="1" style="stop-color:#E8897B"/></linearGradient><path d="M242.061,192.635c-4.748-3.763-11.556-3.597-16.05,0.465c-2.609,2.358-5.284,5.948-7.5,11.41  c0,0-21.303,61.912-62.222,79.275c-1.942,0.824-1.571,4.005,0.534,3.858c16.622-1.155,44.927-2.436,70.569-46.405  c0,0,6.911,23.533,8.856,38.489c0.41,3.151-0.572,6.296-2.577,8.763c-6.396,7.873-18.615,28.403,7.705,47.563l50.424,36.962  c2.18,1.599,2.456,4.729,0.605,6.699c-7.753,8.25-29.203,27.293-65.182,31.508c-3.209,0.376-3.44,4.902-0.277,5.564  c24.849,5.196,72.055,8.414,108.719-28.639c6.593-6.662,6.641-17.402,0.271-24.279l-63.335-68.385  C272.603,295.483,295.461,234.964,242.061,192.635z" fill="url(#SVGID_1_)"/><path d="M335.938,363.868l-63.335-68.385c0,0,20.138-53.339-21.583-94.892c4.186,8.468,12.539,24.854,13.907,46.774  l5.526,1.81c0,0,2.023,3.787-2.613,7.271c-0.964,0.068-1.882,0.069-2.769,0.027l-0.008-0.026c-0.001,0.009-0.002,0.018-0.002,0.026  c-6.684-0.314-11.225-3.504-13.909-6.215c-0.79-0.798-2.119,0.053-1.7,1.094c3.618,8.99,12.323,11.758,15.099,12.428  c-0.944,9.084-3.197,18.844-7.39,29.189c-1.095,2.7-0.513,5.771,1.617,7.762c10.827,10.111,44.014,41.313,64.056,62.402  c2.566,2.701,4.191,6.104,4.83,9.775c0.475,2.728,0.811,5.646-0.344,9.658c0,0-4.146,13.503-23.952,27.951  c11.11-4.898,22.114-12.077,32.302-22.375C342.261,381.482,342.305,370.743,335.938,363.868z" fill="#E8897B"/><path d="M290.998,135.885c2.025,5.641-2.008,11.711-7.995,11.981c-6.737,0.304-14.88,2.381-20.665,11.082  c-7.449,11.2-5.994,23.711,3.053,33.667c13.139,14.458,32.917,44.481,16.848,82.5l-1.952,5.205  c-1.508,4.021-7.398,3.247-7.802-1.029c-0.876-9.291-3.186-20.063-8.564-29.474c-3.713-6.498-6.15-10.158-13.113-17.854  c-5.654-6.25-15.56-12.408-22.132-27.377c-5.159-11.75-6.263-24.844-4.161-37.503c3.18-19.158,10.949-41.421,29.961-48.581  c7.395-2.785,15.699-2.264,22.896,0.995C282.607,121.867,287.873,127.185,290.998,135.885z" fill="#F0FFFF"/><path d="M273,149.994c3.386-1.419,6.848-1.985,10.003-2.128c5.987-0.27,10.021-6.34,7.995-11.981  c-3.125-8.701-8.391-14.019-13.627-16.39c-4.662-2.112-9.789-3.052-14.832-2.71C270.366,121.755,277.561,131.428,273,149.994z" fill="#A3CBFA"/><path d="M272.484,279.29c0.403,4.276,6.294,5.051,7.802,1.029l1.952-5.205c12.294-29.086,3.604-53.482-7.041-69.819  c6.223,14.159,10.683,48.874-8.064,51.184C270.64,265.854,271.697,270.94,272.484,279.29z" fill="#A3CBFA"/><linearGradient gradientUnits="userSpaceOnUse" id="SVGID_2_" x1="66.7656" x2="189.6577" y1="32.1465" y2="170.2643"><stop offset="0" style="stop-color:#DCEFFF"/><stop offset="1" style="stop-color:#B8E0F1"/></linearGradient><path d="M104.325,105.427c49.657,13.948,75.671,52.393,87.957,78.222c2.274,4.782,9.761,3.084,9.445-2.202  c-0.003-0.045-0.006-0.09-0.009-0.135c-0.977-13.92-4.606-45.311-17.921-66.351c-1.336-2.111-2.886-4.051-4.503-5.955  c-12.029-14.159-65.134-74.844-109.771-96.82c0,0-1.072-0.536-2.912-1.133l-0.146-0.046c-7.315-2.351-14.917,2.787-15.394,10.456  C49.301,49.885,55.625,91.747,104.325,105.427z" fill="url(#SVGID_2_)"/><linearGradient gradientUnits="userSpaceOnUse" id="SVGID_3_" x1="447.334" x2="309.2153" y1="72.3789" y2="176.7834"><stop offset="0" style="stop-color:#DCEFFF"/><stop offset="1" style="stop-color:#B8E0F1"/></linearGradient><path d="M445.976,52.805c-1.655,0.402-2.629,0.791-2.629,0.791c-29.741,11.674-64.438,40.231-85.247,58.957  c-21.648,19.481-35.555,45.222-39.23,73.046c-0.016,0.122-0.031,0.243-0.047,0.362c-0.463,3.564,1.041,7.106,4.006,9.45  c0.752-0.187,0.959-0.238,1.712-0.425c8.979-28.512,28.701-55.069,75.829-66.894c37.69-9.457,53.704-40.35,60.287-60.722  c2.699-8.349-5.362-16.755-14.492-14.61C446.102,52.774,446.039,52.79,445.976,52.805z" fill="url(#SVGID_3_)"/><linearGradient gradientUnits="userSpaceOnUse" id="SVGID_4_" x1="160.0342" x2="187.2229" y1="364.2471" y2="313.1324"><stop offset="0" style="stop-color:#DCEFFF"/><stop offset="1" style="stop-color:#B8E0F1"/></linearGradient><path d="M198.179,298.771L198.179,298.771c-4.457,1.274-8.747,3.139-12.629,5.672  c-17.993,11.74-25.548,23.333-31.64,32.246c-4.916,7.193-7.426,15.896-6.335,24.541c0.089,0.704,0.197,1.39,0.324,2.057  c2.13,11.187,10.891,17.824,20.487,19.14c2.97,0.407,5.313-2.429,4.611-5.343c-7.654-31.735,14.401-60.553,27.591-74.373  C202.271,300.946,200.524,298.101,198.179,298.771z" fill="url(#SVGID_4_)"/><linearGradient gradientUnits="userSpaceOnUse" id="SVGID_5_" x1="352.5166" x2="324.2403" y1="328.293" y2="311.9797"><stop offset="0" style="stop-color:#DCEFFF"/><stop offset="1" style="stop-color:#B8E0F1"/></linearGradient><path d="M361.76,318.423c-15.988,2.608-35.898-8.23-49.629-17.647c-1.611-1.104-3.571,0.777-2.52,2.423  c4.811,7.531,12.465,18.762,17.382,23.863c0,0,4.599,4.954,10.839,8.758c12.059,7.35,26.835-1.496,27.537-14.066  C365.482,319.735,363.753,318.099,361.76,318.423z" fill="url(#SVGID_5_)"/></svg>