<?xml version="1.0" ?><!DOCTYPE svg  PUBLIC '-//W3C//DTD SVG 1.1//EN'  'http://www.w3.org/Graphics/SVG/1.1/DTD/svg11.dtd'><svg width="512px" height="512px" viewBox="0 0 512 512" enable-background="new 0 0 512 512" id="Grim_x5F_Reaper" version="1.1" xml:space="preserve" xmlns="http://www.w3.org/2000/svg" xmlns:xlink="http://www.w3.org/1999/xlink"><linearGradient gradientUnits="userSpaceOnUse" id="SVGID_1_" x1="256" x2="256" y1="94.186" y2="719.8057"><stop offset="0.0103" style="stop-color:#B7858F"/><stop offset="1" style="stop-color:#8E545C"/></linearGradient><path d="M140.682,238.054c0,0,1.906-95.292,4.765-124.832c2.858-29.54,25.729-103.867,124.832-101.962  c0,0,96.03,2.771,102.667,121.019c0.212,3.77,0.21,7.537,0.142,11.312c-0.337,18.585-1.305,78.797-0.29,108.824  c0.155,4.615,0.983,9.178,2.645,13.487c1.47,3.815,3.169,9.509,3.452,15.96c0.415,9.47,2.31,18.796,6.422,27.336  c6.047,12.559,15.538,29.74,27.402,42.877c7.521,8.326,11.207,19.658,8.915,30.641c-1.308,6.268-4.275,12.631-10.323,17.334  c0,0,31.446,37.164-7.623,74.328c0,0-15.246,15.245-36.866,23.559c-5.873,2.258-12.173,3.155-18.453,2.743  c-36.916-2.422-182.918-20.288-253.227-151.872c-4.962-9.287-7.369-19.866-6.063-30.314c1.574-12.596,8.247-26.871,29.688-29.934  c0,0-5.993-20.257,9.921-29.484C136.105,254.771,140.463,246.628,140.682,238.054L140.682,238.054z" fill="url(#SVGID_1_)"/><path d="M403.687,474.377c39.069-37.164,7.623-74.328,7.623-74.328c6.05-4.705,9.017-11.069,10.324-17.338  c2.288-10.969-1.37-22.291-8.885-30.604c-11.988-13.26-21.556-30.657-27.6-43.254c-4.036-8.414-5.856-17.619-6.254-26.941  c-0.274-6.422-1.954-12.098-3.42-15.922c-1.692-4.416-2.53-9.096-2.688-13.822c-1.001-30.107-0.037-90.043,0.299-108.578  c0.068-3.775,0.07-7.542-0.142-11.312C366.309,14.03,270.278,11.26,270.278,11.26c-4.109-0.079-8.041,0.019-11.892,0.193  c9.824,5.32,22.23,14.754,27.866,30.157c2.907,7.943-0.884,16.93-8.601,20.392c-20.749,9.307-61.363,40.356-54.3,139.831  c0,0-11.532,84.332,64.87,139.71c8.239,5.972,13.885,14.955,15.813,24.946c1.562,8.094,2.425,18.178,0.634,28.623  c-1.771,10.322-12.778,16.402-22.378,12.213c-4.459-1.947-9.302-4.439-13.809-7.543c-2.165-1.49-5.057-1.816-7.252-0.371  c-3.317,2.182-3.799,6.651-1.256,9.439c5.041,5.527,14.41,15.099,25.378,22.932c0,0-23.136,35.329-86.833,23.457  c62.536,36.506,127.028,43.941,149.847,45.438c6.28,0.412,12.58-0.485,18.453-2.743C388.44,489.622,403.687,474.377,403.687,474.377  z" fill="#8E545C"/><path d="M306.662,82.986c15.482,7.376,29.516,21.443,33.566,47.798c0.445,2.895,0.64,5.823,0.788,8.749  l5.891,116.339c0.786,15.532,3.756,30.824,7.976,45.793c3.354,11.897,4.043,26.934-11.16,32.049  c-1.426,0.48-2.932,0.686-4.435,0.731c-13.874,0.425-83.462-2.767-131.959-104.181c-3.713-7.764-6.297-16.021-7.771-24.5  c-3.625-20.871-7.173-60.763,10.25-92.058C228.784,79.623,271.447,66.207,306.662,82.986z" fill="#602E3A"/><linearGradient gradientUnits="userSpaceOnUse" id="SVGID_2_" x1="260.7676" x2="260.7676" y1="213.2178" y2="-35.5389"><stop offset="0.0051" style="stop-color:#FFE1FF"/><stop offset="1" style="stop-color:#E5B4F7"/></linearGradient><path d="M293.045,78.065c-31.983-8.14-66.654,5.856-83.236,35.64c-16.132,28.975-14.283,65.291-11.043,87.085  c9.336,8.037,20.426,9.407,27.803,9.192c4.758-0.138,8.85,3.307,9.597,8.007l1.984,12.474c0.543,3.413,3.485,5.924,6.941,5.924  h8.128c3.63,0,6.662-2.764,6.999-6.377l1.345-14.459c0.313-3.354,3.126-5.918,6.494-5.918c3.34,0,6.141,2.524,6.486,5.847  l1.521,14.607c0.373,3.581,3.391,6.301,6.991,6.301h6.872c3.882,0,7.029-3.147,7.029-7.029v-12.244c0-3.489,2.745-6.36,6.23-6.516  l0.897-0.04c3.713-0.166,6.813,2.799,6.813,6.516v9.795c0,3.882,3.146,7.029,7.028,7.029s7.028-3.147,7.028-7.029v-90.655  C324.954,106.253,307.04,87.868,293.045,78.065z" fill="url(#SVGID_2_)"/><path d="M263.313,131.162c-8.324-0.061-24.607,1.906-31.325,17.268c-2.392,5.467-2.954,11.668-1.221,17.378  c0.04,0.131,0.081,0.263,0.123,0.396c3.774,11.81,18.328,16.115,28.172,8.576c0.396-0.303,0.799-0.617,1.206-0.938  c10.226-8.086,15.297-21.49,11.974-34.097c-0.284-1.078-0.628-2.144-1.041-3.184C269.916,133.33,266.788,131.187,263.313,131.162z" fill="#602E3A"/><path d="M299.643,135.715c5.952,1.202,16.58,5.126,17.249,17.848c0.133,2.528-0.563,5.036-1.74,7.276l-0.122,0.232  c-3.698,6.912-13.241,7.924-18.5,2.109c-0.136-0.151-0.273-0.304-0.412-0.46c-5.59-6.304-7.354-15.46-3.676-23.04  c0.147-0.304,0.303-0.604,0.468-0.9C294.238,136.391,296.963,135.174,299.643,135.715z" fill="#602E3A"/><path d="M289.792,173.509c1.421,2.217,2.922,4.826,4.123,7.543c1.187,2.685-0.855,5.7-3.791,5.7h-5.948  c-2.73,0-4.699-2.602-3.949-5.227c0.572-2.003,1.307-4.448,2.178-7.092C283.496,171.12,287.909,170.573,289.792,173.509z" fill="#602E3A"/><path d="M168.611,316.805c12.878,11.869,32.53,28.943,48.895,38.721c4.314,2.578,5.058,8.502,1.414,11.964l0,0  c-2.843,2.7-7.269,2.782-10.188,0.165c-9.426-8.451-29.651-27.514-43.893-47.533C163.09,317.662,166.392,314.76,168.611,316.805z" fill="#8E545C"/><path d="M322.023,116.188c-5.646-18.444-18.422-30.73-28.979-38.124c-27.79-7.072-57.594,2.583-75.813,24.771  C238.556,93.726,284.377,80.862,322.023,116.188z" fill="#E5B4F7"/></svg>