<?xml version="1.0" ?><!DOCTYPE svg  PUBLIC '-//W3C//DTD SVG 1.1//EN'  'http://www.w3.org/Graphics/SVG/1.1/DTD/svg11.dtd'><svg width="512px" height="512px" viewBox="0 0 512 512" enable-background="new 0 0 512 512" id="King" version="1.1" xml:space="preserve" xmlns="http://www.w3.org/2000/svg" xmlns:xlink="http://www.w3.org/1999/xlink"><path d="M131.68,315.735c0,0-19.466,8.9-18.922,26.089c0.166,5.262,2.463,10.215,5.93,14.176  c4.223,4.824,11.837,13.579,19.059,22.166c8.895,10.575,15.999,22.572,20.691,35.57c10.645,29.482,44.367,92.189,138.654,92.204  c7.163,0.001,14.254-1.507,20.803-4.409c26.957-11.952,92.664-52.674,80.02-162.261c0,0-26.652-1.646-51.02,58.319  c-4.585,11.282-14.89,19.344-27.023,20.391c-25.932,2.237-71.488-5.51-113.209-71.324c-9.015-14.219-22.092-25.586-37.93-31.299  C156.746,311.035,143.01,309.131,131.68,315.735z" fill="#59E1FF"/><path d="M397.914,339.271c0,0-26.654-1.646-51.021,58.323c-4.584,11.28-14.886,19.338-27.016,20.386  c-20.094,1.735-51.976-2.546-84.724-35.177l-7.675,3.958c0,0,34.052,52.335,78.828,70.462c2.733,1.106,5.752,1.281,8.627,0.62  c6.629-1.524,19.313-5.481,31.652-15.09c4.805-3.742,11.719,0.725,10.41,6.673c-2.21,10.046-5.816,22.762-11.621,35.721  C374.226,463.07,407.201,419.76,397.914,339.271z" fill="#30A7EA"/><linearGradient gradientUnits="userSpaceOnUse" id="SVGID_1_" x1="252.1738" x2="321.2128" y1="357.127" y2="-179.7838"><stop offset="0" style="stop-color:#CC5697"/><stop offset="1" style="stop-color:#8E3979"/></linearGradient><path d="M232.896,261.559c0,0-35.019-20.627-60.442,20.627c0,0-47.333-9.553-63.085,31.662  c-1.438,3.761,0.312,8.006,3.878,9.874l0,0c2.419,1.267,5.297,1.235,7.682-0.096c7.553-4.214,22.743-15.056,38.573-2.584  c0,0,26.388,17.874,47.433,45.228c8.271,10.752,17.05,21.098,26.913,30.41c17.892,16.893,45.473,38.896,73.429,45.559  c2.135,0.508,4.353,0.332,6.415-0.416c10.115-3.673,40.057-18.558,56.831-69.81c2.446-7.473,6.566-14.39,12.324-19.745  c4.053-3.77,9.171-7.115,15.129-8.086c3.545-0.577,5.905-3.988,4.941-7.449c-1.875-6.729-6.591-16.088-18.435-19.049  c0,0-1.344-24.465-24.178-33.578L232.896,261.559z" fill="url(#SVGID_1_)"/><path d="M370.875,370.926c1.4-4.371,3.364-8.559,6.154-12.203c4.348-5.68,11.617-13.021,20.946-14.541  c3.546-0.578,5.905-3.988,4.941-7.449c-1.875-6.729-6.59-16.088-18.435-19.049c0,0-1.345-24.465-24.178-33.578l-20.932-3.705  l-19.65,38.243c17.71,3.269,21.353,15.708,21.791,23.749c0.23,4.258,2.438,8.084,5.943,10.512  c19.677,13.633,11.664,41.882,7.953,52.029C361.099,395.862,366.463,384.697,370.875,370.926z" fill="#A03774"/><path d="M269.562,315.735c0,0,30.501,20.185,31.904,50.648h8.777c0,0-2.982-29.01,18.38-46.797v-3.852H269.562z" fill="#A03774"/><path d="M206.729,118.542c0,0-24.221,8.996-24.221,35.929v49.066c0,0-0.836,12.946-10.44,13.781  c0,0-4.543,0.649-8.369-1.896c-3.883-2.582-9.031-0.081-9.476,4.561c-0.44,4.598,0.02,10.122,2.523,16.172  c2.229,5.388,5.883,10.093,10.355,13.835c10.708,8.961,35.126,22.408,73.815,5.33V118.542H206.729z" fill="#E6E6F8"/><path d="M360.997,214.43h-4.62v-38.138h4.62c10.531,0,19.069,8.538,19.069,19.069l0,0  C380.066,205.892,371.528,214.43,360.997,214.43z" fill="#C66760"/><linearGradient gradientUnits="userSpaceOnUse" id="SVGID_2_" x1="298.4941" x2="298.4941" y1="239.8081" y2="19.364"><stop offset="0.0051" style="stop-color:#FFC3B0"/><stop offset="1" style="stop-color:#E8897B"/></linearGradient><rect fill="url(#SVGID_2_)" height="153.753" width="123.62" x="236.685" y="118.542"/><path d="M260.182,135.467h59.927c8.419,0,15.242,6.825,15.242,15.243v121.585h24.954V118.542H260.182V135.467z" fill="#E8897B"/><circle cx="295.865" cy="160.072" fill="#333345" r="5.601"/><circle cx="344.193" cy="160.072" fill="#333345" r="5.601"/><path d="M219.257,204.372c1.67,55.934-49.827,47.431-49.874,47.423c11.688,8.784,35.373,19.486,71.534,3.524v-50.947  H219.257z" fill="#B3B3C5"/><path d="M265.179,118.542c0,0,6.138,34.32-19.727,47.131v61.437c0,8.727,3.691,17.232,10.58,22.589  c4.056,3.154,9.434,5.889,16.394,6.868c3.018,0.425,5.816-1.618,6.589-4.565c2.509-9.578,11.169-30.12,39.763-34.839  c9.562-1.578,19.463-0.939,28.467,2.643c11.334,4.509,24.678,14.601,25.235,37.145l0,0c0,36.801-29.832,66.633-66.632,66.633  h-11.736c-36.8,0-66.632-29.832-66.632-66.633V118.542H265.179z" fill="#E6E6F8"/><path d="M222.859,214.43h4.62v-38.138h-4.62c-10.531,0-19.069,8.538-19.069,19.069l0,0  C203.79,205.892,212.328,214.43,222.859,214.43z" fill="#E8897B"/><path d="M337.632,200.333h-11.237c-3.686,0-6.672-2.988-6.672-6.672l0,0c0-3.685,2.986-6.672,6.672-6.672h11.237  c3.685,0,6.672,2.987,6.672,6.672l0,0C344.304,197.346,341.316,200.333,337.632,200.333z" fill="#E8897B"/><path d="M372.479,256.951c-0.558-22.545-13.901-32.636-25.235-37.145c-3.83-1.524-7.827-2.485-11.888-3  c0.126,0.26,27.808,57.958,1.849,98.929C358.191,304.518,372.479,282.41,372.479,256.951z" fill="#B3B3C5"/><path d="M249.594,74.932c-9.917-4.8-13.797-16.914-9.615-27.107c0.988-2.409,2.149-4.372,3.168-5.842  c1.368-1.976,1.405-4.571,0.006-6.525c-3.97-5.544-7.604-11.885-10.091-16.513c-1.44-2.68-5.284-2.68-6.724,0  c-2.488,4.628-6.121,10.969-10.092,16.513c-1.399,1.954-1.361,4.549,0.007,6.525c1.019,1.47,2.18,3.433,3.168,5.842  c4.181,10.193,0.302,22.307-9.615,27.107c-3.572,1.729-10.981,3.244-16.983,3.244l2.776,20.863h34.101h34.102l3.274-22.358  C261.072,76.681,253.166,76.66,249.594,74.932z" fill="#AD6D2A"/><path d="M187.421,135.467h53.496v-16.925h-34.188C206.729,118.542,194.496,123.139,187.421,135.467z" fill="#B3B3C5"/><path d="M265.258,135.467c1.237-9.345-0.079-16.925-0.079-16.925h-37.7v16.925H265.258z" fill="#B3B3C5"/><path d="M347.27,74.932c-9.918-4.8-13.797-16.914-9.615-27.107c0.987-2.409,2.148-4.372,3.167-5.842  c1.368-1.976,1.406-4.571,0.007-6.525c-3.971-5.544-7.604-11.885-10.092-16.513c-1.439-2.68-5.283-2.68-6.724,0  c-2.487,4.628-6.121,10.969-10.092,16.513c-1.399,1.954-1.36,4.549,0.008,6.525c1.019,1.47,2.179,3.433,3.167,5.842  c4.182,10.193,0.302,22.307-9.615,27.107c-3.572,1.729-10.98,3.244-16.982,3.244l2.775,20.863h34.102h34.101l3.275-22.358  C358.748,76.681,350.841,76.66,347.27,74.932z" fill="#AD6D2A"/><path d="M357.27,34.356c-2.023,2.83-2.057,6.575-0.074,9.434c1.52,2.193,3.265,5.156,4.719,8.81  c5.706,14.337-0.33,31.994-14.295,38.56c-5.067,2.383-11.594,3.959-19.995,3.959c-8.597,0-15.231-1.651-20.347-4.127  c-14.202-6.875-19.758-24.223-13.77-38.822c1.414-3.449,3.078-6.261,4.536-8.367c1.98-2.861,1.972-6.599-0.052-9.429  c-6.479-9.063-12.326-19.592-15.822-26.261c-1.437-2.739-5.33-2.739-6.767,0c-3.493,6.662-9.333,17.178-15.805,26.235  c-2.027,2.837-2.053,6.591-0.067,9.458c1.513,2.186,3.248,5.133,4.696,8.764c5.818,14.589,0.171,31.622-13.978,38.443  c-5.109,2.464-11.73,4.105-20.301,4.105c-8.332,0-14.819-1.551-19.869-3.9c-14.052-6.539-20.152-24.221-14.421-38.621  c1.454-3.653,3.198-6.615,4.719-8.808c1.981-2.859,1.949-6.604-0.073-9.434c-4.516-6.317-8.723-13.344-12.04-19.278  c-1.92-3.435-7.153-2.043-7.153,1.891v98.831c0,5.367,4.351,9.718,9.718,9.718h39.12h48.837h48.838h39.12  c5.367,0,9.717-4.351,9.717-9.718V16.97c0-3.935-5.232-5.326-7.153-1.892C365.99,21.013,361.783,28.04,357.27,34.356z" fill="#FFCA95"/><path d="M366.744,125.519c5.367,0,9.717-4.351,9.717-9.718V16.97c0-3.935-5.233-5.325-7.153-1.891  c-3.317,5.935-7.524,12.961-12.038,19.278c-2.023,2.83-2.057,6.575-0.074,9.434c1.52,2.193,3.265,5.156,4.719,8.81  c5.706,14.337-0.33,31.994-14.295,38.56c-5.067,2.383-11.594,3.959-19.995,3.959c-8.597,0-15.231-1.651-20.347-4.127  c-14.202-6.875-19.758-24.223-13.77-38.822c1.414-3.449,3.078-6.261,4.536-8.367c1.98-2.861,1.972-6.599-0.052-9.43  c-6.479-9.063-12.326-19.592-15.823-26.26c-0.718-1.37-2.05-2.055-3.383-2.055v105.007c0,0-0.498,14.452,16.446,14.452h32.392  H366.744z" fill="#FBB04D"/><ellipse cx="305.332" cy="384.771" fill="#FBB04D" rx="21.107" ry="23.913"/><ellipse cx="298.495" cy="381.308" fill="#FFCA95" rx="6.696" ry="7.589" transform="matrix(0.985 0.1728 -0.1728 0.985 70.3602 -45.8331)"/></svg>