<?xml version="1.0" ?><!DOCTYPE svg  PUBLIC '-//W3C//DTD SVG 1.1//EN'  'http://www.w3.org/Graphics/SVG/1.1/DTD/svg11.dtd'><svg width="512px" height="512px" viewBox="0 0 512 512" enable-background="new 0 0 512 512" id="Medusa" version="1.1" xml:space="preserve" xmlns="http://www.w3.org/2000/svg" xmlns:xlink="http://www.w3.org/1999/xlink"><path d="M233.365,222.639c0,0-48.469-22.538-87.665-5.494c-11.2,4.87-20.711,13.28-25.523,24.505  c-3.043,7.097-4.84,16.301-2.514,27.373c3.385,16.119,14.317,29.983,29.976,35.088c3.147,1.025,6.633,1.789,10.457,2.131  c6.398,0.572,12.23-3.746,13.877-9.955l0,0c1.641-6.189-1.346-12.606-7.064-15.484c-9.35-4.704-21.262-13.447-17.255-26.313  c0,0,8.16-24.168,47.482-14.173c5.495,1.397,10.813,3.412,15.952,5.809c6.236,2.908,14.461,7.328,19.857,12.481L233.365,222.639z" fill="#5B5A3C"/><linearGradient gradientUnits="userSpaceOnUse" id="SVGID_1_" x1="252.7007" x2="252.7007" y1="331.6396" y2="646.2571"><stop offset="0.0051" style="stop-color:#FFC3B0"/><stop offset="1" style="stop-color:#E8897B"/></linearGradient><path d="M225.41,258.533c0,0,5.153,38.072,2.379,62.648c0,0-1.075,28.668-26.053,34.556  c-2.293,0.54-4.681,0.668-7.027,0.45l-14.534-1.351c-6.681-0.62-13.293,1.686-18.125,6.341  c-6.092,5.868-12.825,15.795-13.464,31.285c-0.134,3.255,0.733,6.473,2.37,9.289c5.488,9.434,19.208,32.795,26.437,43.105  c0,0-4.165,44.613,32.749,57.36c10.925,3.772,22.859,3.906,33.966,0.708c11.3-3.255,25.131-10.599,28.078-27.148  c0,0,9.138,27.119,36.566,28.992c9.613,0.657,19.253-2.047,27.238-7.439c13.012-8.785,29.521-28.539,15.475-69.121  c0,0,2.59-20.029,3.052-34.924c0.495-15.994-10.746-30.048-26.504-32.826c-4.922-0.868-10.754-1.151-17.662-0.568  c-7.649,0.646-15.452-1.371-21.417-6.204c-7.829-6.343-14.767-18.63-11.199-42.414L225.41,258.533z" fill="url(#SVGID_1_)"/><path d="M277.734,311.272l-52.324-52.739c0,0,2.849,21.063,3.168,41.97c13.378,10.546,35.549,27.638,50.794,39.356  C276.884,332.922,275.875,323.67,277.734,311.272z" fill="#E8897B"/><path d="M248.378,343.851l4.155,4.708c1.748,1.98,4.787,2.123,6.712,0.314l1.89-1.775  c1.002-0.94,2.625-0.07,2.396,1.284l-2.278,13.546c-0.469,2.785-3.956,3.712-5.793,1.567c-3.269-3.815-7.399-9.953-9.565-18.349  C245.521,343.7,247.39,342.73,248.378,343.851z" fill="#E8897B"/><path d="M234.704,371.518c1.486-1.12,3.527-1.113,5.006,0.018c5.58,4.27,18.927,13.922,18.927,13.922l0,0  c-2.518,1.617-5.699,1.793-8.379,0.465l-14.901-7.389C232.598,377.166,232.244,373.371,234.704,371.518L234.704,371.518z" fill="#E8897B"/><path d="M286.912,367.916c-1.492-0.633-3.216-0.195-4.227,1.072c-3.814,4.785-13.055,15.762-13.055,15.762l0,0  c2.469,0.834,5.194,0.312,7.179-1.377l11.033-9.391C289.886,372.244,289.383,368.963,286.912,367.916L286.912,367.916z" fill="#E8897B"/><path d="M261.24,420.834c3.413,1.709,7.403,4.396,9.98,8.377c0,0,3.051-5.898,8.209-9.833  c1.414-1.079,3.351,0.419,2.588,2.026c-2.586,5.455-6.411,14.818-9.06,25.908c-0.308,1.289-2.11,1.333-2.472,0.059  c-1.706-6.025-5.221-16.039-11.359-24.029C258.032,421.916,259.633,420.028,261.24,420.834z" fill="#E8897B"/><path d="M178.166,415.34l-10.299,14.755c3.553,5.761,6.952,11.093,9.524,14.763l4.352-28.082  C182.064,414.703,179.366,413.621,178.166,415.34z" fill="#E8897B"/><path d="M266.39,464.324c-26.847,36.02-70.179,30.119-71.258,29.395c4.911,4.206,11.13,7.66,19.078,9.725  c9.583,2.488,19.728,2.304,29.269-0.34c11.41-3.162,25.705-10.468,28.707-27.326c0.14-3.536-0.118-7.096-0.473-10.07  C271.393,463.022,268.005,462.156,266.39,464.324z" fill="#E8897B"/><path d="M354.517,393.285c0.495-15.994-10.746-30.048-26.504-32.826c-4.922-0.868-10.754-1.151-17.662-0.568  c-1.984,0.168-3.977,0.147-5.947-0.046c9.327,6.165,24.555,18.872,25.75,36.726c0.173,2.579-2.27,4.572-4.801,4.049l-3.872-0.8  c-0.776-0.161-1.293,0.784-0.721,1.332c6.148,5.892,22.877,24.828,14.996,50.22c-5.01,16.139-18.583,28.266-34.975,32.375  c-6.109,1.531-13.609,2.689-22.716,3.02c5.458,7.753,15.122,16.941,30.687,18.004c9.613,0.657,19.253-2.047,27.238-7.439  c13.012-8.785,29.521-28.539,15.475-69.121C351.465,428.209,354.056,408.18,354.517,393.285z" fill="#E8897B"/><path d="M265.935,191.609c0,0-12.084-40.266,28.244-56.596c14.216-5.757,25.305-17.772,28.794-32.707  c1.859-7.956,2.285-17.586-0.164-28.954c-2.434-11.292-7.344-21.979-14.595-30.97c-0.706-0.875-1.441-1.744-2.201-2.589  c-5.018-5.58-5.228-13.979-0.53-19.831l0,0c5.412-6.742,15.335-7.735,21.9-2.111c11.637,9.967,26.323,32.772,27.405,59.437  l-13.067,75.984l-55.571,27.669L265.935,191.609z" fill="#5B5A3C"/><circle cx="327.249" cy="37.077" fill="#FFFFFF" r="4.642"/><path d="M282.341,179.58c0,0,13.468-31.706,46.983-35.365c31.523-3.441,61.454,16.994,69.375,47.698  c1.809,7.009,2.746,15.056,2.284,24.231c-0.735,14.57-6.521,28.657-17.483,38.285c-2.542,2.233-5.439,4.342-8.719,6.139  c-8.559,4.694-19.256,0.131-21.648-9.334l-0.194-0.768c-1.524-6.033,1.101-12.228,6.29-15.664  c7.555-5.002,16.662-14.616,13.98-31.116c-1.799-11.076-8.357-20.965-17.729-27.137c-11.724-7.721-30.672-12.915-50.941,10.968  L282.341,179.58z" fill="#7A7A51"/><circle cx="373.022" cy="237.699" fill="#FFFFFF" r="4.642"/><path d="M172.059,184.578c0,0,19.75,33.785,58.724,48.717l6.397-26.386l-49.386-41.397L172.059,184.578z" fill="#7A7A51"/><path d="M106.78,114.806c4.529-0.581,9.753-1.122,15.025-1.396c16.101-0.835,32.018,5.131,43.071,16.867  c3.402,3.612,6.721,7.91,9.519,12.946l-16.948,20.785c0,0-2.268-3.887-6.027-8.278c-6.131-7.16-15.125-11.238-24.547-11.502  l-18.621-0.522c-4.664-0.131-8.988-2.471-11.62-6.324c-0.142-0.207-0.281-0.417-0.421-0.634  C90.543,127.93,96.383,116.14,106.78,114.806z" fill="#7A7A51"/><circle cx="131.046" cy="126.296" fill="#FFFFFF" r="5.333"/><circle cx="143.96" cy="281.542" fill="#FFFFFF" r="4.642"/><path d="M237.18,206.908l11.614-20.702c0,0-5.148-2.059-11.935-5.833c-19.642-10.922-31.958-31.513-32.842-53.97  l-1.105-28.077c-1.104-28.03-20.963-52.284-48.507-57.596c-0.432-0.083-0.866-0.164-1.305-0.242  c-5.914-1.05-11.76,2.285-13.961,7.874l0,0c-2.207,5.603-0.192,11.983,4.854,15.267c5.541,3.604,12.742,8.66,18.616,14.034  c6.022,5.51,9.801,13.014,10.675,21.128c0.83,7.704,1.905,19.735,2.496,34.594c0.888,22.333,11.871,43.091,30.152,55.95  C214.56,195.403,225.001,201.613,237.18,206.908z" fill="#9D9E70"/><circle cx="170.953" cy="61.221" fill="#FFFFFF" r="5.334"/><path d="M204.018,126.404c-29.604,2.518-65.731,28.777-61.249,84.675c1.017,12.683,6.161,24.892,15.247,33.799  c3.972,3.893,8.969,7.511,15.198,10.093c6.606,2.738,14.238,0.306,18.019-5.764l0,0c3.753-6.028,2.541-13.788-2.682-18.599  c-8.791-8.097-19.313-23.016-12.264-44.659c0,0,0.942-2.587,3.148-6.239c16.952-28.057,57.848-27.904,75.545-0.311l2.311,3.605  l22.691-2.814c0,0,0.357-1.068,0.134-2.897C275.508,139.65,241.796,123.191,204.018,126.404z" fill="#828252"/><circle cx="172.059" cy="230.048" fill="#FFFFFF" r="5.334"/><path d="M311.609,199.403v39.936c0,0,3.082-9.927,19.602-17.86c3.827-1.838,7.639-3.707,11.321-5.818l18.369-10.533  c13.878-7.958,21.581-23.38,19.911-39.291c-0.613-5.846-0.949-11.843-0.64-16.963c0.437-7.199,6.53-12.967,13.735-12.632  c0.109,0.005,0.221,0.011,0.332,0.018h10.086c8.268,0,14.645-7.283,13.552-15.479l0,0c-0.855-6.415-6.091-11.351-12.545-11.828  l-17.902-1.323c-16.349-1.208-30.881,10.864-32.176,27.205c-0.021,0.256-0.038,0.514-0.055,0.774  C355.2,135.608,357.162,193.901,311.609,199.403z" fill="#9D9E70"/><path d="M242.773,191.328l26.605-15.253c0,0-5.741-2.077-11.563-6.454c-19.959-15.009-25.229-43.125-10.351-63.182  c2.289-3.086,5.021-6.37,8.277-9.786c0,0,26.803-23.344,21.615-51.876c0,0-7.846-45.204-61.044-36.981  c-7.246,1.12-12.385,7.696-11.644,14.989l0,0c0.707,6.945,6.508,12.337,13.488,12.335c9.377-0.002,21.581,1.906,26.63,10.984  c1.334,2.4,1.872,5.178,1.794,7.923c-0.192,6.695-1.431,20.287-20.69,35.73c-5.83,4.675-10.981,10.214-14.974,16.531  c-6.459,10.222-12.062,25.183-5.755,41.808C205.164,148.098,215.539,176.629,242.773,191.328z" fill="#C2C79A"/><circle cx="230.385" cy="20.837" fill="#FFFFFF" r="5.333"/><path d="M295.946,180.618l16.328,23.702c0,0,43.19-5.793,44.771-44.244l2.947-56.908  c0.244-4.712,1.822-9.334,4.873-12.933c2.9-3.421,7.428-6.531,14.302-6.531h8.247c6.208,0,11.24-5.033,11.24-11.242l0,0  c0-6.208-5.032-11.241-11.24-11.241h-15.053c-20.646,0-37.807,16.269-38.469,36.904c-0.01,0.31-0.018,0.623-0.023,0.938v42.052  C333.869,141.115,334.98,181.636,295.946,180.618z" fill="#C2C79A"/><circle cx="369.133" cy="72.646" fill="#FFFFFF" r="4.642"/><linearGradient gradientUnits="userSpaceOnUse" id="SVGID_2_" x1="269.6152" x2="269.6152" y1="303.5928" y2="131.2185"><stop offset="0.0051" style="stop-color:#FFC3B0"/><stop offset="1" style="stop-color:#E8897B"/></linearGradient><path d="M220.62,235.956v0.937c0,22.611,9.367,44.313,26.177,59.436c6.214,5.59,13.749,11.141,22.824,16.078  c9.759,5.309,21.844,5.314,31.031-0.929c6.375-4.331,12.062-11.891,13.502-25.04l4.391-78.582c0.193-3.465-0.031-6.939-0.775-10.329  c-1.811-8.241-6.959-21.257-21.496-23.422l-19.91-1.549c-17.613-1.37-34.675,6.931-44.151,21.84  c-0.215,0.337-0.428,0.678-0.64,1.022C224.113,207.552,220.62,221.712,220.62,235.956z" fill="url(#SVGID_2_)"/><circle cx="264.238" cy="230.048" fill="#FFFFFF" r="11.27"/><circle cx="299.207" cy="230.048" fill="#FFFFFF" r="11.27"/><circle cx="387.322" cy="118.947" fill="#FFFFFF" r="4.642"/></svg>