<?xml version="1.0" ?><!DOCTYPE svg  PUBLIC '-//W3C//DTD SVG 1.1//EN'  'http://www.w3.org/Graphics/SVG/1.1/DTD/svg11.dtd'><svg width="512px" height="512px" viewBox="0 0 512 512" enable-background="new 0 0 512 512" id="Monster" version="1.1" xml:space="preserve" xmlns="http://www.w3.org/2000/svg" xmlns:xlink="http://www.w3.org/1999/xlink"><linearGradient gradientUnits="userSpaceOnUse" id="SVGID_1_" x1="321.3506" x2="370.0845" y1="251.2461" y2="325.5072"><stop offset="0" style="stop-color:#C5C391"/><stop offset="1" style="stop-color:#DEE0B1"/></linearGradient><path d="M324.544,210.734c0,0,29.704,11.401,49.443,28.459c2.853,2.466,3.648,6.681,1.763,9.947  c-3.202,5.546-5.714,14.987,6.078,23.667c0,0,26.646,18.179,39.916,38.533c2.387,3.66,1.078,8.42-2.512,10.908  c-3.383,2.346-6.451,6.857-5.188,15.519c2.526,17.323,6.662,77.23-32.217,98.522c0,0,36.908-107.184-55.479-167.452L324.544,210.734  z" fill="url(#SVGID_1_)"/><linearGradient gradientUnits="userSpaceOnUse" id="SVGID_2_" x1="135.9863" x2="98.8556" y1="195.165" y2="120.1301"><stop offset="0" style="stop-color:#C5C391"/><stop offset="1" style="stop-color:#DEE0B1"/></linearGradient><path d="M17.997,30.581c33.351,3.539,97.708,18.406,132.653,79.434c2.511,4.385,3.077,9.625,1.579,14.451  c-5.216,16.806-15.774,59.729,2.387,86.268l-9.188,8.299c0,0-16.678-15.325-40.05-20.018c-4.446-0.893-7.293-5.23-6.186-9.628  c3.449-13.685,2.939-40.677-47.081-54.773c-3.652-1.029-6.089-4.5-5.728-8.277c1.56-16.302,1.937-59.257-32.356-86.173  C9.813,36.855,12.667,30.015,17.997,30.581z" fill="url(#SVGID_2_)"/><linearGradient gradientUnits="userSpaceOnUse" id="SVGID_3_" x1="228.1729" x2="231.267" y1="161.1421" y2="65.9947"><stop offset="0" style="stop-color:#C5C391"/><stop offset="1" style="stop-color:#DEE0B1"/></linearGradient><path d="M252.324,6.935c-21.641,14.923-60.39,49.255-61.604,104.362c-0.087,3.959,1.485,7.779,4.323,10.542  c9.884,9.62,33.224,35.224,30.655,60.297l9.434,2.275c0,0,5.746-16.797,20.083-28.779c2.728-2.279,3.063-6.332,0.654-8.945  c-7.498-8.132-17.253-26.909,11.912-55.343c2.13-2.076,2.509-5.378,0.846-7.844c-7.178-10.641-23.519-40.079-9.982-71.451  C260.309,8.192,255.782,4.55,252.324,6.935z" fill="url(#SVGID_3_)"/><linearGradient gradientUnits="userSpaceOnUse" id="SVGID_4_" x1="269.6641" x2="269.664" y1="98.0879" y2="726.07"><stop offset="0" style="stop-color:#FF88C5"/><stop offset="1" style="stop-color:#D569A2"/></linearGradient><path d="M464.86,149.042c-6.526-40.015-31.68-60.583-55.81-71.115c-34.781-15.182-75.063-12.724-107.831,6.42  c-44.976,26.276-60.184,73.542-63.927,88.143c-0.67,2.613-3.019,4.417-5.716,4.417h0c-87.281,0-158.036,70.755-158.036,158.035v3.71  c0,61.465,49.828,111.293,111.293,111.293h47.238c57.23,0,103.626-46.395,103.626-103.626v-172.98  c0-15.786,12.797-28.583,28.583-28.583h1.936c8.551,0,15.482,6.932,15.482,15.482v3.809v26.283c0,3.156,1.509,6.089,4.033,7.983  c7.103,5.33,21.259,19.51,22.995,48.74c0.201,3.373,2.974,6.027,6.353,6.027l8.663,0l8.663,0c3.378,0,6.151-2.655,6.352-6.027  c1.737-29.232,15.896-43.413,22.998-48.741c2.523-1.894,4.031-4.827,4.031-7.982v-35.681  C465.786,152.685,465.406,150.827,464.86,149.042z" fill="url(#SVGID_4_)"/><path d="M335.697,173.339c0-4.265,0.959-8.296,2.633-11.931l-55.389,13.872c0,0-41.686,132.058-129.006,133.222  c0,0-55.135,5.197-52.15-63.683c-17.787,25.567-28.245,56.616-28.245,90.123v3.71c0,61.465,49.828,111.293,111.293,111.293h47.238  c57.23,0,103.626-46.395,103.626-103.626V173.339z" fill="#CE629D"/><path d="M342.55,128.411c0,0-59.58,0-61.76,63.633v137.469c0,14.449-3.767,28.668-11.164,41.08  c-16.566,27.795-54.735,69.229-134.523,67.619c14.97,7.492,31.851,11.732,49.73,11.732h47.238  c57.23,0,103.626-46.395,103.626-103.626v-172.98c0-15.786,12.797-28.583,28.583-28.583h1.936c8.551,0,15.482,6.932,15.482,15.482  v3.809C381.698,164.047,386.18,128.411,342.55,128.411z" fill="#EACFE8"/><path d="M364.28,144.756h1.936c8.551,0,15.482,6.932,15.482,15.482v3.809c0,0,4.481-35.636-39.148-35.636  c0,0-59.58,0-61.76,63.633v16.364c10.688-29.113,27.994-29.14,27.994-29.14c15.941-0.726,23.488,8.735,26.913,15.96v-21.89  C335.697,157.553,348.494,144.756,364.28,144.756z" fill="#BF9DBA"/><path d="M335.697,346.319v-38.042c-1.689,7.002-4.338,15.501-8.401,23.024c-9.336,17.287-32.988,20.388-45.635,5.352  c-0.368-0.438-0.718-0.946-1.079-1.415c-0.863,12.459-4.538,24.588-10.956,35.355c-16.566,27.795-54.735,69.229-134.523,67.619  c14.97,7.492,31.851,11.732,49.73,11.732h47.238C289.302,449.945,335.697,403.551,335.697,346.319z" fill="#BF9DBA"/><path d="M465.786,179.862c0,0,13.728,3.02,23.731-10.332c2.334-3.115,3.612-6.892,4.057-10.76  c0.532-4.626,1.966-11.904,5.83-17.524c1.61-2.343-0.256-5.423-3.067-4.999c-8.353,1.26-21.148,5.534-30.551,19.31V179.862z" fill="#CE629D"/><path d="M381.828,179.862c0,0-13.728,3.02-23.73-10.332c-2.335-3.115-3.613-6.892-4.058-10.76  c-0.532-4.626-1.966-11.904-5.83-17.524c-1.61-2.343,0.256-5.423,3.067-4.999c8.353,1.26,21.148,5.534,30.551,19.31V179.862z" fill="#CE629D"/><path d="M382.644,158.182L382.644,158.182c-6.455,0-11.688-5.232-11.688-11.688V131.83  c0-3.863-0.788-7.679-2.402-11.189c-1.673-3.637-4.502-8.313-9.275-13.5c-1.385-1.505-2.319-3.345-2.595-5.372  c-0.969-7.133-2.163-24.674,6.707-38.091c1.927-2.913,6.495-1.453,6.505,2.04c0.005,1.565,0.038,3.268,0.115,5.066  c0.595,13.896,5.961,27.027,14.307,38.154c5.032,6.71,10.925,18.852,9.989,38.334C394.012,153.417,388.796,158.182,382.644,158.182z  " fill="#E3F3FF"/><linearGradient gradientUnits="userSpaceOnUse" id="SVGID_5_" x1="115.9692" x2="566.6211" y1="420.6172" y2="334.5839"><stop offset="0" style="stop-color:#FF88C5"/><stop offset="1" style="stop-color:#D569A2"/></linearGradient><path d="M335.697,262.334v82.894c0,13.085-2.414,26.126-7.707,38.093  c-8.613,19.471-26.718,41.756-64.584,43.47c0,0-35.289,1.534-61.732-7.134c-14.933-4.896-30.351-8.338-46.061-8.725  c-25.805-0.637-59.537,5.247-85.8,33.322c-5.523,5.904-0.778,15.45,7.24,14.416c19.425-2.505,48.45-3.425,70.609,8.054  c2.138,1.108,4.133,2.46,6.11,3.835c12.23,8.511,65.512,42.418,127.018,33.908c0,0,87.146-2.676,113.917-82.992  c9.279-27.84,8.76-58.181-0.853-85.907C385.389,311.15,368.646,280.91,335.697,262.334z" fill="url(#SVGID_5_)"/><path d="M393.854,335.567c-8.465-24.417-25.208-54.657-58.157-73.233v82.894c0,13.085-2.414,26.126-7.707,38.093  c-0.269,0.607-0.576,1.224-0.863,1.837c-8.742,87.216-70.617,109.384-110.51,114.514c19.063,5.194,41.034,7.997,64.173,4.796  c0,0,87.146-2.676,113.917-82.992C403.986,393.635,403.467,363.294,393.854,335.567z" fill="#CE629D"/><path d="M464.86,149.042c-0.323-1.979-0.726-3.874-1.138-5.759c-2.917,19.858-14.296,23.931-21.566,30.437  c-5.527,4.947-10.619,11.914-10.615,19.483l0,0c0.484,3.616,1.759,7.049,3.603,10.197c3.056,5.217,6.028,14.727,5.164,31.681  c4.268-21.317,15.494-32.325,21.526-36.827c2.504-1.87,3.952-4.797,3.952-7.923v-35.681  C465.786,152.685,465.406,150.827,464.86,149.042z" fill="#CE629D"/><path d="M398.829,175.032c0.135,3.036,0.695,7.08,2.458,10.687c1.725,3.527,5.069,5.991,8.823,7.14l2.44,0.747  c2.513,0.77,4.696-1.858,3.487-4.191c-2.337-4.512-6.479-10.815-13.274-16.285C401.161,171.84,398.738,172.978,398.829,175.032z" fill="#FFFFFF"/><path d="M450.932,175.032c-0.135,3.036-0.696,7.08-2.459,10.687c-1.724,3.527-5.068,5.991-8.822,7.14l-2.44,0.747  c-2.513,0.77-4.696-1.858-3.487-4.191c2.337-4.512,6.479-10.815,13.274-16.285C448.6,171.84,451.022,172.978,450.932,175.032z" fill="#FFFFFF"/><path d="M464.728,158.182L464.728,158.182c6.454,0,11.687-5.232,11.687-11.688V131.83  c0-3.863,0.788-7.679,2.403-11.189c1.673-3.637,4.501-8.313,9.274-13.5c1.385-1.505,2.32-3.345,2.595-5.372  c0.969-7.133,2.164-24.674-6.707-38.091c-1.926-2.913-6.494-1.453-6.505,2.04c-0.004,1.565-0.037,3.268-0.114,5.066  c-0.595,13.896-5.962,27.027-14.307,38.154c-5.032,6.71-10.925,18.852-9.989,38.334  C453.359,153.417,458.574,158.182,464.728,158.182z" fill="#E3F3FF"/></svg>