<?xml version="1.0" ?><!DOCTYPE svg  PUBLIC '-//W3C//DTD SVG 1.1//EN'  'http://www.w3.org/Graphics/SVG/1.1/DTD/svg11.dtd'><svg width="512px" height="512px" viewBox="0 0 512 512" enable-background="new 0 0 512 512" id="Orc" version="1.1" xml:space="preserve" xmlns="http://www.w3.org/2000/svg" xmlns:xlink="http://www.w3.org/1999/xlink"><path d="M210.189,128.823h-67.598c-6.844,0-10.403,8.673-5.77,14.058c4.778,5.553,9.7,12.77,13.274,21.682  c2.659,6.628,6.81,12.542,12.556,16.32c8.537,5.613,22.949,11.048,45.2,8.049L210.189,128.823z" fill="#BFC29F"/><path d="M209.598,144.039h-26.885c-3.206,0-5.016,4.182-3.07,7.094c4.607,6.896,13.678,16.564,28.971,18.212  L209.598,144.039z" fill="#9B9B6E"/><linearGradient gradientUnits="userSpaceOnUse" id="SVGID_1_" x1="232.8301" x2="259.681" y1="254.7651" y2="624.4148"><stop offset="0" style="stop-color:#BFC29F"/><stop offset="1" style="stop-color:#9B9B6E"/></linearGradient><path d="M205.592,213.492c0,0,3.921,46.448-51.901,71.304c0,0-39.176,17.523-54.032,50.894  c-2.321,5.215-0.803,11.399,3.633,14.991c12.162,9.846,36.579,33.507,45.976,70.804c1.61,6.393,4.723,12.301,9.136,17.197  c14.639,16.245,51.85,45.688,121.832,32.35c21.285-4.057,41.101-14.125,56.65-29.216c18.053-17.52,38.701-45.765,43.474-85.937  c0.673-5.663-1.233-11.322-5.075-15.537c-12.225-13.411-41.75-43.832-70.979-59.03L205.592,213.492z" fill="url(#SVGID_1_)"/><path d="M187.798,261.938l-3.615,13.483c60.492,46.4,85.95,152.344,94.126,195.946  c0.646-0.117,1.274-0.211,1.927-0.336c9.68-1.845,19.027-4.994,27.837-9.232C286.432,316.693,187.798,261.938,187.798,261.938z" fill="#9B9B6E"/><path d="M354.545,331.107l22.309,11.215c-0.484-0.687-0.998-1.354-1.568-1.98  c-4.506-4.943-11.375-12.205-19.701-20.156l0,0c-0.002-0.002-0.004-0.004-0.007-0.006c-3.435-3.279-7.127-6.672-10.999-10.074l0,0  l0,0c-12.208-10.729-26.264-21.51-40.271-28.794l-98.715-67.82c0,0-0.001,0.003-0.003,0.008  c-4.589,12.435,2.374,31.789,12.775,48.438c7.366,11.79,23.901,25.086,36.909,29.99l85.336,32.174l-14.568,51.379l10.867,66.313  c8.868-8.608,18.352-19.819,26.279-33.745c-3.868-17.496-16.855-35.744-16.855-35.744  C350.839,357.192,353.25,342.329,354.545,331.107z" fill="#9B9B6E"/><linearGradient gradientUnits="userSpaceOnUse" id="SVGID_2_" x1="275.873" x2="317.9404" y1="51.2466" y2="753.8522"><stop offset="0" style="stop-color:#BFC29F"/><stop offset="1" style="stop-color:#9B9B6E"/></linearGradient><path d="M365.252,208.862c0.225-2.5,0.357-5.025,0.357-7.584V108.95c0-46.126-37.392-83.518-83.518-83.518  l0,0c-46.125,0-83.518,37.392-83.518,83.518v92.328c0,46.126,37.393,83.518,83.518,83.518l0,0h30.131  c33.154,0,60.029-26.876,60.029-60.029v-5.171C372.252,214.799,369.371,210.689,365.252,208.862z" fill="url(#SVGID_2_)"/><path d="M247.789,136.346h29.514c2.764,0,4.792,2.628,4.035,5.286c-1.309,4.596-4.35,10.953-11.357,13.816  c-4.998,2.042-10.766,1.62-15.549-0.882c-3.775-1.975-8.162-5.545-10.915-11.964C242.245,139.637,244.562,136.346,247.789,136.346z" fill="#FCFAFF"/><circle cx="295.606" cy="171.71" fill="#9B9B6E" r="5.088"/><circle cx="312.906" cy="171.71" fill="#9B9B6E" r="5.088"/><path d="M269.856,127.188h-22.134c-1.967,0-3.562-1.595-3.562-3.562V71.086c0-2.599,2.106-4.705,4.705-4.705l0,0  c2.002,0,3.779,1.248,4.435,3.141c2.018,5.828,7.163,18.382,16.069,25.65c2.467,2.013,4.049,4.906,4.049,8.09v20.363  C273.418,125.593,271.824,127.188,269.856,127.188z" fill="#C9519C"/><path d="M250.012,165.604h14.161c2.718,0,4.921,2.203,4.921,4.92l0,0c0,1.509-0.68,2.919-1.864,3.853  c-3.352,2.642-10.343,8.782-13.53,16.248c-0.646,1.511-2.165,2.456-3.808,2.456l0,0c-2.322,0-4.205-1.882-4.205-4.205V169.93  C245.687,167.541,247.624,165.604,250.012,165.604z" fill="#C9519C"/><path d="M291.24,120.866l7.004,6.957c1.355,1.347,3.549,1.332,4.887-0.033l6.831-6.975  c1.117-1.141,0.096-3.042-1.472-2.739l-4.977,1.708c-1.894,0.65-3.949,0.654-5.845,0.012l-4.973-1.684  C291.117,117.807,290.1,119.733,291.24,120.866z" fill="#9B9B6E"/><path d="M360.247,135.029h47.633c4.823,0,7.331,6.907,4.065,11.195c-3.366,4.423-6.834,10.17-9.354,17.268  c-1.873,5.279-4.798,9.989-8.848,12.998c-6.016,4.47-16.17,8.799-31.85,6.411L360.247,135.029z" fill="#7F7D56"/><path d="M305.848,284.796h6.375c33.154,0,60.029-26.876,60.029-60.029v-5.171c0-3.203-1.303-6.081-3.384-8.196  h-27.63C342.313,227.779,340.992,267.496,305.848,284.796z" fill="#9B9B6E"/><path d="M368.868,211.399c-1.035-1.053-2.248-1.931-3.616-2.538c0.225-2.5,0.357-5.025,0.357-7.584V108.95  c0-35.277-21.883-65.424-52.805-77.664c9.89,13.553,23.883,44.689,23.872,112.356h-18.682c0.794,14.91,11.206,18.953,18.292,19.984  c-0.541,14.452-1.658,30.311-3.508,47.772H368.868z" fill="#9B9B6E"/><path d="M347.321,136.346h-29.515c-2.764,0-4.791,2.628-4.035,5.286c1.31,4.596,4.35,10.953,11.358,13.816  c4.997,2.042,10.765,1.62,15.549-0.882c3.774-1.975,8.161-5.545,10.914-11.964C352.865,139.637,350.549,136.346,347.321,136.346z" fill="#FCFAFF"/><path d="M265.277,211.399c0,0,0.939-12.41,7.992-24.136c1.752-2.914,5.953-3.002,7.725-0.1  c3.446,5.649,8.039,14.893,8.197,24.235H265.277z" fill="#FCFAFF"/><path d="M328.032,211.399c0,0,0.94-12.41,7.993-24.136c1.752-2.914,5.953-3.002,7.725-0.1  c3.445,5.649,8.039,14.893,8.197,24.235H328.032z" fill="#FCFAFF"/><path d="M163.858,278.674c16.51,13.607,59.9,53.616,75.678,109.641l22.794-20.08c0,0-12.267-55.184-74.532-106.297  c-4.037-3.314-9.815-3.508-14.024-0.415l-9.646,7.087C160.772,271.075,160.645,276.025,163.858,278.674z" fill="#B77D85"/><path d="M330.4,296.537c-0.863,12.465-4.172,41.649-16.788,70.264l19.167,13.386c0,0,19.189-37.259,18.018-69.233  c-0.139-3.789-2.017-7.303-5.064-9.558l-9.926-7.345C333.648,292.453,330.586,293.859,330.4,296.537z" fill="#B77D85"/><path d="M239.536,388.313l22.794-20.079c0,0-1.631-7.278-6.655-18.964c-9.333,5.91-17.264,13.386-22.965,19.524  C235.317,375.062,237.636,381.564,239.536,388.313z" fill="#9D5D65"/><path d="M320.428,348.689c-1.904,5.956-4.14,12.042-6.816,18.111l19.168,13.386c0,0,3.66-7.105,7.685-17.772  C334.105,355.243,326.081,350.982,320.428,348.689z" fill="#9D5D65"/><path d="M229.414,485.653c31.736,2.787,99.15,2.238,127.41-47.386c2.086-3.662,2.889-7.91,2.314-12.087  c-1.24-9.042-4.963-26.271-16.064-43.256c-21.407-32.755-68.045-35.776-95.54-7.933c-16.683,16.894-34.397,45.529-35.521,91.415  C211.77,476.383,219.475,484.781,229.414,485.653z" fill="#C4D5FF"/><path d="M329.039,406.401l-8.361,6.213c-1.045,0.776-2.516-0.041-2.41-1.337l1.455-17.731  c0.121-1.462-0.59-2.912-1.881-3.608c-11.955-6.458-27.061-5.941-38.988,1.877c-32.591,21.363-31.572,77.613-30.45,94.738  c30.091,0.231,72.063-5.353,97.929-33.857c-1.527-20.593-6.064-35.012-11.725-45.111  C333.488,405.588,330.877,405.037,329.039,406.401z" fill="#7E9AEF"/><path d="M248.824,213.492c0,2.557,2.073,4.63,4.631,4.63h118.688c-0.523-4.151-3.203-7.624-6.891-9.26H253.455  C250.897,208.862,248.824,210.935,248.824,213.492z" fill="#9B9B6E"/></svg>