<?xml version="1.0" ?><!DOCTYPE svg  PUBLIC '-//W3C//DTD SVG 1.1//EN'  'http://www.w3.org/Graphics/SVG/1.1/DTD/svg11.dtd'><svg width="512px" height="512px" viewBox="0 0 512 512" enable-background="new 0 0 512 512" id="Viking" version="1.1" xml:space="preserve" xmlns="http://www.w3.org/2000/svg" xmlns:xlink="http://www.w3.org/1999/xlink"><circle cx="289.06" cy="17.909" fill="#C7DAFF" r="6.454"/><path d="M353.036,125.158c0,0,12.077,3.016,16.499,17.623c3.09,10.208,1.03,21.57-6.75,28.866  c-3.421,3.209-8.139,5.863-14.556,6.435L353.036,125.158z" fill="#A06260"/><path d="M202.549,270.612c0,0-57.87,11.671-105.44,70.462c-4.968,6.141-3.905,15.23,2.475,19.887  c12.189,8.895,31.725,28.734,50.624,71.688c0,0,24.088,61.664,112.146,68.486c15.557,1.205,31.28-1.234,45.438-7.797  c27.531-12.764,69.115-43.502,74.579-113.742c1.179-15.167-1.207-30.482-7.755-44.215  C359.703,304.105,318.168,261.219,202.549,270.612z" fill="#F9C8B2"/><path d="M382.37,379.596c1.18-15.167-1.207-30.482-7.755-44.215c-13.178-27.639-47.188-64.318-134.701-65.999  l-7.499,18.492l-9.475,42.653c0,0,15.383,54.836,83.118,59.657c0,0,40.465,4.29,17.373,94.568  C348.896,468.461,377.873,437.421,382.37,379.596z" fill="#DDA288"/><circle cx="287.107" cy="441.148" fill="#D39671" r="10.795"/><path d="M207.998,116.686c0,0-49.216,32.746-68.917,77.209c-6.782,15.306-7.277,32.933,0.07,47.976  c7.366,15.082,23.216,31.363,57.15,36.162L207.998,116.686z" fill="#773E41"/><path d="M343.145,216.487h5.893c10.605,0,19.202-8.597,19.202-19.203l0,0c0-10.605-8.597-19.203-19.202-19.203  h-5.893V216.487z" fill="#C66760"/><path d="M211.513,103.824V63.746c-48.958-0.813-64.346-33.911-69.047-51.186c-0.729-2.679-4.517-2.644-5.233,0.039  C130.114,39.257,120.375,108.14,211.513,103.824z" fill="#EEF6FF"/><path d="M348.229,99.19V63.613c43.46-0.722,57.12-30.103,61.294-45.438c0.646-2.378,4.009-2.347,4.645,0.034  C420.487,41.875,429.133,103.021,348.229,99.19z" fill="#819FEA"/><path d="M211.513,103.824V63.746c-7.791-0.129-14.644-1.148-20.827-2.718c-3.739,11.056-13.493,25.004-38.733,28.476  C163.866,99.182,182.601,105.193,211.513,103.824z" fill="#C7DAFF"/><linearGradient gradientUnits="userSpaceOnUse" id="SVGID_1_" x1="273.376" x2="273.376" y1="145.1763" y2="326.9932"><stop offset="0.0051" style="stop-color:#FFC3B0"/><stop offset="1" style="stop-color:#E8897B"/></linearGradient><polygon fill="url(#SVGID_1_)" points="355.691,125.158 353.036,265.008 191.06,265.008 193.781,126.47 "/><path d="M118.665,320.984c11.916,1.119,28.161,4.472,42.945,13.711c19.776,12.357,41.814,20.579,65.045,22.613  c41.914,3.67,103.271,2.407,147.884-26.887c5.031-3.305,6.285-10.151,2.851-15.096c-12.515-18.015-51.096-55.957-154.238-56.393  c0,0-63.169,3.239-109.33,47.92C108.747,311.765,111.634,320.324,118.665,320.984z" fill="#BC7D5C"/><path d="M192.018,216.487h-5.891c-10.605,0-19.203-8.597-19.203-19.203l0,0c0-10.605,8.597-19.203,19.203-19.203  h5.891V216.487z" fill="#E8897B"/><linearGradient gradientUnits="userSpaceOnUse" id="SVGID_2_" x1="271.9404" x2="271.9404" y1="342.1611" y2="138.9499"><stop offset="0" style="stop-color:#A06260"/><stop offset="1" style="stop-color:#82494C"/></linearGradient><path d="M192.558,125.158l-1.707,159.302c-0.629,58.676,46.763,106.578,105.442,106.578l0,0  c31.338,0,56.742-25.404,56.742-56.742V233.884l-92.583,0.475L234.583,248.7c0,0-34.902-13.392-34.902-67.518v-56.025H192.558z" fill="url(#SVGID_2_)"/><path d="M322.111,157.217v107.791h30.925l2.655-139.85l-78.545,0.637c7.067,0.828,18.379,2.643,27.92,6.411  C315.343,136.263,322.111,146.168,322.111,157.217z" fill="#E8897B"/><path d="M321.92,278.033v49.309c0,13.898-2.73,27.743-8.674,40.307c-3.8,8.031-9.242,16.411-16.884,23.387  c31.306-0.037,56.674-25.424,56.674-56.739V233.884l-14.55,0.075l-47.299,6.119C291.188,240.078,320.355,240.894,321.92,278.033z" fill="#773E41"/><path d="M192.018,189.624c0,0,6.586-24.162,29.779-31.28c13.558-4.161,24.319-15.881,22.938-31.864h-52.176  L192.018,189.624z" fill="#773E41"/><circle cx="278.113" cy="163.127" fill="#333345" r="7.924"/><circle cx="337.904" cy="163.127" fill="#333345" r="7.924"/><path d="M373.109,238.767c-6.16-1.846-13.489-5.871-18.357-14.575c-5.877-10.51-16.086-17.499-27.408-19.837  c-6.424-1.327-36.146-1.327-42.569,0c-11.322,2.339-21.532,9.328-27.409,19.837c-4.868,8.704-12.197,12.729-18.356,14.575  c-5.479,1.642-6.766,9.325-2.211,12.942c9.265,7.358,20.87,7.831,29.244,6.839c5.698-0.675,10.997-3.694,14.431-8.556  c9.82-13.9,41.353-13.9,51.172,0c3.435,4.862,8.732,7.881,14.432,8.556c8.374,0.991,19.979,0.519,29.244-6.839  C379.875,248.091,378.588,240.408,373.109,238.767z" fill="#BC8285"/><path d="M270.293,100.681c0-0.943,0-73.867,0-73.867s-68.524-1.551-75.753,71.048L270.293,100.681z" fill="#EEF6FF"/><path d="M310.29,26.811c0,0,59.959,12.261,54.93,69.783h-54.93V26.811z" fill="#C7DAFF"/><path d="M207.998,98.362l62.295,2.318c0-0.62,0-32.352,0-54.019C265.529,65.72,250.871,90.555,207.998,98.362z" fill="#C7DAFF"/><path d="M310.29,97.862h-42.46v-72.82c0-3.939,3.193-7.132,7.133-7.132h28.195c3.939,0,7.132,3.193,7.132,7.132  V97.862z" fill="#EEF6FF"/><path d="M365.076,130.202H196.411c-5.209,0-9.433-4.223-9.433-9.433v-17.518c0-5.209,4.224-9.433,9.433-9.433  h168.665c5.209,0,9.433,4.223,9.433,9.433v17.518C374.509,125.979,370.285,130.202,365.076,130.202z" fill="#C7DAFF"/><path d="M374.509,103.252c0-5.209-4.224-9.433-9.433-9.433h-39.191c-1.293,9.151-9.465,33.752-44.131,36.383h83.322  c5.209,0,9.433-4.223,9.433-9.433V103.252z" fill="#819FEA"/><path d="M373.109,238.767c-6.16-1.846-13.489-5.871-18.357-14.575c-3.545-6.339-8.683-11.37-14.674-14.899  c0.341,19.169-12.017,27.699-23.955,31.457c6.513,1.54,12.239,4.596,15.521,9.242c3.436,4.862,8.732,7.881,14.432,8.556  c8.374,0.991,19.979,0.519,29.244-6.839C379.875,248.091,378.588,240.408,373.109,238.767z" fill="#9E6369"/><circle cx="308.578" cy="193.454" fill="#E8897B" r="3.83"/><circle cx="289.06" cy="73.671" fill="#C7DAFF" r="6.454"/><circle cx="289.06" cy="44.125" fill="#C7DAFF" r="6.454"/></svg>