<?xml version="1.0" ?><!DOCTYPE svg  PUBLIC '-//W3C//DTD SVG 1.1//EN'  'http://www.w3.org/Graphics/SVG/1.1/DTD/svg11.dtd'><svg width="512px" height="512px" viewBox="0 0 512 512" enable-background="new 0 0 512 512" id="Sword" version="1.1" xml:space="preserve" xmlns="http://www.w3.org/2000/svg" xmlns:xlink="http://www.w3.org/1999/xlink"><polygon fill="#B75798" points="165.316,346.685 151.996,333.365 64.291,421.07 77.61,434.391 90.929,447.71 178.635,360.004 "/><path d="M98.834,442.717l-6.384-23.168l-23.167-6.383c-2.672-0.736-5.533,0.02-7.493,1.979l-13.201,13.202  c-2.592,2.591-2.592,6.794,0,9.386l12.839,12.84l12.839,12.839c2.592,2.592,6.794,2.592,9.386,0l13.201-13.201  C98.815,448.25,99.57,445.389,98.834,442.717z" fill="#FFD9BE"/><polygon fill="#7F2467" points="151.996,333.365 137.104,348.258 163.743,374.896 178.635,360.004 165.316,346.685 "/><rect fill="#7F2467" height="9.767" transform="matrix(-0.7071 -0.7071 0.7071 -0.7071 -47.9208 743.9301)" width="37.673" x="111.274" y="377.006"/><rect fill="#7F2467" height="9.767" transform="matrix(-0.7071 -0.7071 0.7071 -0.7071 -105.2994 767.6941)" width="37.673" x="87.509" y="400.772"/><path d="M53.969,443.112l7.459,7.46l12.839,12.839c2.592,2.592,6.794,2.592,9.386,0l13.201-13.201  c1.96-1.96,2.715-4.821,1.979-7.493l-6.384-23.168l-16.447,16.448C76.003,435.997,67.381,445.73,53.969,443.112z" fill="#FFBF76"/><linearGradient gradientTransform="matrix(0.7071 0.7071 -0.7071 0.7071 -1549.0148 -556.7651)" gradientUnits="userSpaceOnUse" id="SVGID_1_" x1="1851.0674" x2="1851.0674" y1="-972.1616" y2="-502.2602"><stop offset="0" style="stop-color:#FFFFFF"/><stop offset="1" style="stop-color:#C7DAFF"/></linearGradient><path d="M457.373,46.666l-26.05,1.916c-5.269,0.388-10.222,2.655-13.957,6.391l-266.519,266.52l19.831,19.83  l19.83,19.83l266.52-266.519c3.734-3.735,6.004-8.688,6.391-13.957l1.916-26.05C465.668,50.099,461.9,46.333,457.373,46.666z" fill="url(#SVGID_1_)"/><path d="M223.397,248.941l-72.55,72.551l19.831,19.83l113.163-113.163  C259.305,241.872,237.547,247.05,223.397,248.941z" fill="#C7DAFF"/><path d="M375.885,137.868c0.574-1.126,1.147-2.282,1.714-3.467l-93.758,93.758  c15.681-8.764,32.487-20.991,49.184-38.139l16.856-16.856C360.272,162.772,369.199,150.957,375.885,137.868z" fill="#C7DAFF"/><path d="M457.373,46.666l-26.05,1.916c-5.269,0.388-10.222,2.655-13.957,6.391l-27.133,27.133  c-0.014,20.159-5.896,38.207-12.635,52.295l85.578-85.578C461.711,47.357,459.637,46.499,457.373,46.666z" fill="#C7DAFF"/><linearGradient gradientTransform="matrix(0.7071 0.7071 -0.7071 0.7071 -1549.0148 -556.7651)" gradientUnits="userSpaceOnUse" id="SVGID_2_" x1="1865.0898" x2="1865.0898" y1="-603.3032" y2="-970.095"><stop offset="0" style="stop-color:#819FEA"/><stop offset="1" style="stop-color:#A7C1FC"/></linearGradient><path d="M457.027,94.634c2.416-2.416,4.139-5.37,5.215-8.56c-4.43,0.065-10.313,0.653-17.621,2.421  c-18.714,4.527-35.653,14.538-49.268,28.153L170.678,341.322l19.83,19.83L457.027,94.634z" fill="url(#SVGID_2_)"/><path d="M251.494,419.528c1.663-4.069,4.682-13.362,3.523-25.045c-0.302-3.04-3.5-4.808-6.221-3.417  c-5.36,2.74-13.884,5.289-20.431-1.258l-39.741-39.196l-2.318-24.918l-24.918-2.317l-39.196-39.742  c-6.547-6.547-3.999-15.07-1.258-20.43c1.391-2.721-0.376-5.92-3.417-6.222c-11.683-1.159-20.976,1.86-25.045,3.522  c-1.418,0.58-2.614,1.614-3.342,2.963c-6.205,11.494-6.861,23.543-6.396,31.338c0.178,2.974,3.711,4.448,5.974,2.51  c7.566-6.485,15.789-2.867,15.789-2.867l56.527,56.527l56.527,56.527c0,0,3.618,8.223-2.867,15.789  c-1.938,2.262-0.464,5.795,2.51,5.973c7.794,0.467,19.844-0.19,31.337-6.395C249.88,422.143,250.914,420.946,251.494,419.528z" fill="#FFD9BE"/><path d="M217.551,407.504c0,0,3.618,8.223-2.867,15.789c-1.938,2.262-0.464,5.795,2.51,5.973  c7.794,0.467,19.844-0.19,31.337-6.395c1.349-0.729,2.383-1.925,2.962-3.343c1.663-4.069,4.682-13.362,3.523-25.045  c-0.302-3.04-3.5-4.808-6.221-3.417c-5.36,2.74-13.884,5.289-20.431-1.258l-39.741-39.196l-2.318-24.918l-25.283,25.282  L217.551,407.504z" fill="#FFBF76"/><polygon fill="#FFFCFF" points="127.111,317.064 141.193,331.146 155.243,317.096 141.245,302.931 "/><polygon fill="#FFFCFF" points="109.495,299.447 117.654,307.607 131.836,293.425 123.733,285.209 "/></svg>