<?xml version="1.0" ?><!DOCTYPE svg  PUBLIC '-//W3C//DTD SVG 1.1//EN'  'http://www.w3.org/Graphics/SVG/1.1/DTD/svg11.dtd'><svg width="512px" height="512px" viewBox="0 0 512 512" enable-background="new 0 0 512 512" id="Spell_x5F_Scroll" version="1.1" xml:space="preserve" xmlns="http://www.w3.org/2000/svg" xmlns:xlink="http://www.w3.org/1999/xlink"><linearGradient gradientUnits="userSpaceOnUse" id="SVGID_1_" x1="65.3345" x2="367.3861" y1="188.0972" y2="393.308"><stop offset="0.0103" style="stop-color:#FFDDCD"/><stop offset="1" style="stop-color:#F79A80"/></linearGradient><path d="M56.727,159.284c3.669,8.513,9.077,23.904,9.053,40.645c-0.003,2.011,1.292,3.834,3.258,4.256  c4.574,0.979,12.198,4.247,12.198,15.139c0,0,0,9.762-8.884,13.65c-1.684,0.736-2.75,2.422-2.567,4.25  c1.805,18.046,10.158,106.854,7.208,176.821c0,0,8.652,5.768,16.974,10.964c2.614,1.632,6.063,0.344,6.936-2.611  c1.631-5.515,4.064-14.063,5.793-21.555c0,0,5.652,16.554,6.122,33.596c0.067,2.421,2.012,4.35,4.432,4.465  c11.832,0.563,44.852-0.203,67.712-23.444c0,0,45.973-36.775,90.408-20.745c0,0,57.906-106.02,8.031-276.491  c0,0-16.832-0.229-33.528,3.832c-2.428,0.591-4.262,2.57-4.603,5.045c-0.921,6.686-3.036,20.308-5.986,28.737  c-0.559,1.599-2.856,1.497-3.31-0.134c-1.31-4.705-3.392-12.349-5.303-20.092c-0.825-3.34-4.181-5.364-7.5-4.457  c-8.589,2.348-26.073,8.633-51.411,24.99c0,0-36.283,23.009-75.414,7.301c-2.973-1.193-5.908-2.412-8.949-3.419  c-6.126-2.027-16.693-5.262-26.005-6.807C57.998,152.656,55.364,156.125,56.727,159.284z" fill="url(#SVGID_1_)"/><path d="M275.369,394.714c0,0,57.906-106.02,8.031-276.491c0,0-8.926-0.113-20.213,1.386  c5.65,32.104,25.88,167.167-12.577,271.068C258.711,390.569,267.066,391.718,275.369,394.714z" fill="#F79A80"/><path d="M122.715,215.244L122.715,215.244c-2.714,0.44-4.709,2.784-4.709,5.534v26.482  c0,3.097,2.51,5.606,5.606,5.606h1.991c3.262,0,5.835-2.773,5.59-6.026l-1.991-26.482  C128.956,217.082,125.958,214.719,122.715,215.244z" fill="#E2526F"/><path d="M147.029,221.712v19.769c0,2.857,3.204,4.544,5.559,2.927l9.335-6.409c2.674-1.836,3.752-5.258,2.613-8.294  l0,0c-0.441-1.177-1.188-2.214-2.165-3.005l-9.558-7.745C150.493,217.073,147.029,218.725,147.029,221.712z" fill="#E2526F"/><path d="M170.247,214.061v1.385c0,2.474,1.85,4.556,4.306,4.848l0,0c2.904,0.346,5.458-1.923,5.458-4.848v-1.385  c0-2.261-1.553-4.227-3.752-4.749l0,0C173.191,208.582,170.247,210.907,170.247,214.061z" fill="#E2526F"/><path d="M206.976,200.54L206.976,200.54c-1.661,0.747-2.668,2.461-2.515,4.274l1.601,18.892  c0.508,5.995,7.2,9.377,12.28,6.154c1.259-0.799,2.495-1.635,3.631-2.482c3.637-2.714,4.265-7.916,1.43-11.46l-11.317-14.146  C210.864,200.243,208.761,199.736,206.976,200.54z" fill="#E2526F"/><path d="M225.903,197.861l6.105,8.546c1.474,2.063,4.665,1.583,5.467-0.822l1.566-4.696  c0.353-1.06,0.109-2.227-0.637-3.057l-4.928-5.475c-0.989-1.099-2.615-1.348-3.887-0.594l-2.743,1.626  C225.283,194.315,224.847,196.382,225.903,197.861z" fill="#E2526F"/><path d="M272.655,176.88l-11.89,1.877c-2.386,0.377-3.996,2.621-3.562,4.997c0.825,4.511,2.267,11.906,4.032,18.969  c1.004,4.01,6.533,4.436,8.137,0.626l8.651-20.558c1.192-2.832-0.888-5.964-3.961-5.964h-0.737  C273.102,176.827,272.877,176.845,272.655,176.88z" fill="#E2526F"/><path d="M124.167,327.984l-0.396,3.459c-0.322,2.811,1.212,5.506,3.794,6.663l0,0  c2.458,1.102,5.34,0.571,7.245-1.334l2.961-2.961c1.904-1.904,2.435-4.787,1.333-7.245l-0.224-0.498  c-1.046-2.334-3.366-3.836-5.923-3.836h-2.341C127.317,322.232,124.543,324.707,124.167,327.984z" fill="#E2526F"/><path d="M127.459,360.823l1.369-7.87c0.288-1.652,1.722-2.859,3.4-2.859h17.234c3.761,0,4.809,5.163,1.344,6.629  l-18.603,7.869C129.687,365.656,126.991,363.515,127.459,360.823z" fill="#E2526F"/><path d="M180.376,311.003l3.39,30.448c0.226,2.033,2.152,3.423,4.153,2.993c3.006-0.646,7.14-1.706,9.716-3.076  c1.203-0.64,1.888-1.94,1.787-3.299l-1.197-16.049c-0.073-0.974,0.271-1.933,0.945-2.64l4.081-4.275  c0.613-0.642,0.955-1.495,0.955-2.383v-4.745c0-2.117-1.89-3.735-3.982-3.409l-16.948,2.644  C181.449,307.496,180.171,309.167,180.376,311.003z" fill="#E2526F"/><path d="M216.361,304.4l0.723,4.427c0.446,2.735,3.772,3.854,5.782,1.945l0,0c0.686-0.651,1.074-1.556,1.074-2.502  v-4.555c0-2.148-1.942-3.775-4.057-3.397l-0.723,0.129C217.304,300.779,216.057,302.539,216.361,304.4z" fill="#E2526F"/><path d="M238.313,298.295l-7.583,29.685c-0.608,2.379,1.394,4.614,3.826,4.271l5.842-0.826  c1.38-0.194,2.495-1.188,2.849-2.536c0.919-3.493,3.604-10.075,10.961-11.591c1.372-0.283,2.421-1.406,2.646-2.789l0.827-5.048  c0.204-1.25-0.293-2.513-1.296-3.287l-12.62-9.754C241.802,294.901,238.927,295.891,238.313,298.295z" fill="#E2526F"/><path d="M290.221,284.347l-10.5,5.016c-1.499,0.716-2.275,2.397-1.848,4.002l6.226,23.361  c0.925,3.472,5.88,3.41,6.693-0.089c2.087-8.973,4.392-20.804,4.378-29.232C295.165,284.884,292.495,283.26,290.221,284.347z" fill="#C7304D"/><path d="M280.299,198.448l-2.621,7.16c-0.436,1.189,0.588,2.4,1.833,2.171l5.358-0.992  c1.039-0.192,1.626-1.305,1.197-2.271l-2.736-6.169C282.733,197.003,280.805,197.067,280.299,198.448z" fill="#C7304D"/><path d="M275.369,106.938c0,0,13.207-17.457,43.699-31.779c22.404-10.522,47.383-14.84,72.006-12.31  c11.794,1.212,23.377,3.977,29.225,9.825c0,0-3.987,32.563-17.943,79.082C402.355,151.756,305.883,161.137,275.369,106.938z" fill="#A34F46"/><path d="M338.829,107.26l4.513,41.156c30.76,6.067,59.014,3.339,59.014,3.339  c13.956-46.519,17.943-79.081,17.943-79.081S400.032,110.223,338.829,107.26z" fill="#F79A80"/><path d="M455.64,126.531c0,0-17.12-17.622-53.018-19.271l-8.394,45.116  C394.229,152.376,443.186,151.305,455.64,126.531z" fill="#A34F46"/><path d="M391.76,97.485c-2.861,14.526-9.439,35.787-25.377,54.075c20.498,1.678,35.973,0.194,35.973,0.194  c13.956-46.519,17.943-79.081,17.943-79.081S412.441,87.215,391.76,97.485z" fill="#CE735F"/><linearGradient gradientUnits="userSpaceOnUse" id="SVGID_2_" x1="286.2246" x2="562.9127" y1="204.0674" y2="468.4579"><stop offset="0.0103" style="stop-color:#FFDDCD"/><stop offset="1" style="stop-color:#F79A80"/></linearGradient><path d="M275.369,106.938c0,0,61.723,58.783,180.271,19.594c0,0-21.554,216.52-58.784,293.918  c0,0-21.566,23.226-43.328,29.226c-3.007,0.829-6.047-1.267-6.544-4.346l-4.013-24.88c0,0-4.845,13.729-12.336,26.521  c-1.318,2.251-4.04,3.252-6.483,2.337c-10.654-3.988-39.778-15.392-61.392-28.563c-4.424-2.695-6.023-8.305-3.65-12.908  C273.513,379.903,316.763,276.647,275.369,106.938z" fill="url(#SVGID_2_)"/><path d="M382.049,139.908c7.991,7.34,21.196,23.707,19.499,50.862c0,0-1.614,99.778-19.575,198.355  c-2.859,15.694-9.221,30.677-19.434,42.932c-1.609,1.931-3.349,3.854-5.227,5.734c-1.593,1.596-4.26,1.264-5.334-0.719  l-9.008-16.624l4.013,24.879c0.497,3.079,3.537,5.175,6.544,4.347c21.762-6,43.328-29.226,43.328-29.226  c37.23-77.397,58.784-293.918,58.784-293.918C427.98,135.675,403.458,139.44,382.049,139.908z" fill="#F79A80"/><path d="M274.063,176.827h-0.737c-0.225,0-0.449,0.018-0.671,0.053l-2.014,0.317  c0.556,6.218,1.058,12.776,1.488,19.6l5.895-14.006C279.217,179.959,277.137,176.827,274.063,176.827z" fill="#9C304D"/></svg>