<?xml version="1.0" ?><!DOCTYPE svg  PUBLIC '-//W3C//DTD SVG 1.1//EN'  'http://www.w3.org/Graphics/SVG/1.1/DTD/svg11.dtd'><svg width="513px" height="513px" viewBox="-0.5 0 513 513" style="fill-rule:evenodd;clip-rule:evenodd;stroke-linejoin:round;stroke-miterlimit:2;" version="1.1" xml:space="preserve" xmlns="http://www.w3.org/2000/svg" xmlns:serif="http://www.serif.com/" xmlns:xlink="http://www.w3.org/1999/xlink"><g transform="matrix(1,0,0,1,-1754,-614)"><g id="jack-o-lanterns" transform="matrix(1.058,0,0,1,-612.792,614.059)"><rect height="512" style="fill:none;" width="483.932" x="2237.05" y="0"/><g transform="matrix(2.59351,0.326871,-0.183092,1.62612,-1329.85,-2783.2)"><path d="M1608.5,1439.36C1636.65,1443.54 1635.19,1467.57 1644.83,1490.41C1658.98,1523.94 1646.04,1539.87 1643.89,1542.63C1635.24,1571.79 1668.29,1622.5 1667.88,1626.6C1668.22,1641.44 1603.91,1630.21 1603.91,1630.21C1601.24,1642.86 1520.02,1669.7 1509.19,1658.52C1498.36,1646.48 1501.64,1630.44 1504.67,1615.88C1504.67,1615.88 1528.62,1552.93 1527.41,1550.2C1527.41,1550.2 1501.51,1511.76 1509.98,1480.79C1515.98,1458.83 1574.69,1434.34 1608.5,1439.36Z" style="fill:rgb(244,213,134);"/></g><g id="shadow" transform="matrix(0.94518,0,0,1,2236.25,-2450.39)"><path d="M48.357,2837.62C75.745,2836.37 160.528,2826.22 166.699,2826.96C166.699,2826.96 213.59,2836.43 221.88,2837.22L221.983,2837.23C225.303,2837.44 289.474,2830.38 289.474,2830.38C338.634,2832.06 390.511,2844.2 439.697,2842.52C450.264,2842.16 448.761,2849.08 459.167,2847.71C461.731,2847.37 475.576,2848.65 475.576,2848.65C482.578,2849.64 478.084,2854.89 474.671,2854.98C423.797,2859.72 371.025,2854.55 319.424,2851.54C311.164,2851.06 139.003,2849.79 130.734,2849.7C130.734,2849.7 127.365,2849.64 124.984,2849.6C116.107,2849.44 107.214,2849.33 98.324,2849.26C98.324,2849.26 94.157,2849.21 91.081,2849.18C34.147,2848.52 39.043,2844.48 39.287,2842.7C39.728,2839.48 46.053,2837.72 48.357,2837.62Z" style="fill:rgb(80,0,0);"/></g><g id="orange" transform="matrix(0.512078,0,0,0.535528,2030.82,-511.422)"><g><g transform="matrix(1,0,0,1,164.745,8.20406)"><path d="M891.045,1668.36C997.463,1637.66 1022.98,1441.05 955.64,1297.45C911.253,1202.79 803.568,1219.46 779.756,1224.42C748.4,1230.96 728.843,1218.73 697.43,1227.54C669.764,1235.3 639.176,1230.26 591.145,1256.12C516.333,1296.4 517.754,1354.83 512.768,1429.61C510.905,1457.56 461.811,1708.02 672.535,1676.83C735.01,1667.59 744.444,1686.3 767.387,1681.41C775.631,1679.66 825.42,1684.13 859.721,1680.72C875.312,1679.16 885.675,1669.91 891.045,1668.36Z" style="fill:rgb(238,115,50);"/></g><g transform="matrix(1,0,0,1,235.441,28.7639)"><path d="M603.49,1240.27C585.206,1240.27 639.063,1214.6 634.324,1186.16C632.008,1172.27 616.009,1143.73 616.164,1143.11C617.367,1138.34 635.047,1128.14 644.764,1129.38C648.97,1129.92 698.25,1202.03 701.964,1209.46C702.632,1210.8 725.23,1229.27 724.396,1229.61C712.711,1234.44 686.631,1230.02 655.84,1233.83C630.321,1236.98 603.49,1240.27 603.49,1240.27Z" style="fill:rgb(150,0,0);"/></g><g id="shadiong" transform="matrix(1.84577,0,0,1.86731,-2834.76,-191.655)"><path d="M1988.45,780.792L1988.79,781.773C1988.29,782.232 2008.47,780.728 2007.97,781.225C1987.22,801.788 1969.59,807.118 1962.67,824.28C1907.11,962.055 1991.09,1003.84 1977.53,1006.44C1947.22,1012.24 1926.2,992.823 1915.83,982.075C1895.35,960.854 1900.68,928.689 1902.08,875.025C1904.3,790.236 1925.19,781.894 1978.8,769.24C1985.51,767.656 1993.78,766.212 2002.59,764.946L1988.45,780.792ZM2041.64,760.66C2050.72,759.936 2058.66,759.497 2064.13,759.396C2128.32,758.206 2146.56,803.1 2129.77,789.114C2106.41,769.648 2080.03,765.682 2061.42,775.846C2059.44,776.928 2056.86,776.646 2054.66,776.931C2054.86,776.221 2043.85,766.384 2041.64,760.66Z" style="fill:rgb(178,85,36);"/></g><g transform="matrix(1.5415,0,0,1.5415,-419.041,1040.36)"><path d="M869.428,150.723C879.532,162.26 881.588,179.886 883.996,196.053C886.402,212.197 887.598,228.475 888.367,244.747C888.921,254.794 890.741,264.736 892.271,274.719L892.484,276.105C893.004,279.989 893.529,283.872 894.037,287.757C896.669,307.928 896.982,327.738 894.2,349.657C889.424,387.274 874.418,413.639 874.418,413.639C871.754,415.352 864.597,421.029 865.105,415.577C865.38,412.628 869.236,406.688 870.468,403.679C880.563,379.021 882.957,351.472 883.352,324.652C883.574,309.579 880.816,294.589 878.901,279.413L878.715,277.934C877.246,264.112 876.216,250.154 876.747,235.468C877.572,211.522 878.774,186.633 873.352,163.849C872.323,159.525 871.021,155.209 868.634,151.528C868.634,151.528 867.869,150.507 869.428,150.723Z" style="fill:rgb(249,165,120);"/></g><g transform="matrix(1.5415,0,0,1.5415,-420.344,1041.65)"><path d="M987.833,160.984C987.833,160.984 1013.25,194.403 1022.53,253.766C1023.89,262.47 1023.02,271.341 1022.55,280.103L1022.54,280.365C1020.17,312.92 1016.75,342.765 1001.93,374.825C1000.26,378.447 985.551,395.684 985.551,395.684C993.768,373.195 1004.86,342.116 1008.6,317.927C1009.59,311.525 1010.39,305.038 1010.99,298.454C1013.48,271.219 1013.43,244.185 1007.58,216.089C1003.79,197.865 995.73,178.349 987.833,160.984Z" style="fill:rgb(249,165,120);"/></g><g transform="matrix(1.5415,0,0,1.5415,-419.041,1040.36)"><path d="M900.785,141.305C924.92,143.27 947.115,156.561 961.65,178.105C976.537,200.17 984.968,227.464 984.699,251.922C984.281,290.037 975.944,327.027 968.537,349.873C964.693,361.73 948.189,398.784 940.681,414.722C937.4,421.686 936.778,416.555 936.857,416.349C954.107,371.288 979.506,295.935 977.625,252.787C976.843,222.616 966.304,205.379 948.447,179.498C937.285,163.322 927.426,148.235 907.638,145.224C903.587,144.412 896.918,140.645 900.785,141.305Z" style="fill:rgb(249,165,120);"/></g></g><g id="strokes"><g transform="matrix(1.84577,0,0,1.86731,-665.911,918.591)"><path d="M828.146,166.148C828.286,165.826 828.418,165.499 828.542,165.169C830.777,159.184 826.786,152.156 823.622,145.926C822.122,142.973 820.326,140.16 819.012,137.123C818.275,135.421 819.928,131.814 823.645,129.317C827.638,126.635 832.374,124.636 836.955,124.727C841.729,124.898 844.709,130.83 848.05,135.621C854.807,145.31 861.23,155.145 867.326,165.283C868.255,165.18 869.18,165.051 870.102,164.89C878.863,163.358 887.595,162.079 896.67,162.08C925.621,162.184 955.469,174.45 970.339,203.043C996.48,253.309 1002.08,317.886 979.637,367.672C970.925,386.995 956.249,404.726 934.335,411.202C934.335,411.202 924.322,417.144 915.399,417.777C899.747,418.888 884.013,416.796 868.163,417.025C866.739,417.046 866.43,417.145 865.975,417.224C856.821,418.741 847.992,414.138 838.037,413.179C823.905,411.817 809.758,415.436 795.447,415.261C772.972,414.988 750.481,406.618 737.243,386.9C724.151,367.4 721.288,342.988 721.409,320.231C721.488,305.443 723.963,290.627 724.915,275.989C726.489,251.312 726.877,225.207 741.13,205.356C754.955,186.102 778.755,174.805 801.765,170.663C810.572,169.078 819.547,168.235 828.146,166.148ZM928.265,401.878C929.286,401.318 930.258,400.904 930.258,400.904C932.128,400.159 932.986,400.131 934.274,399.684C955.21,392.409 968.758,370.651 975.371,350.622C985.581,319.697 985.376,285.819 978.691,253.691C975.346,237.617 970.387,221.746 963.05,207.132C954.4,189.902 938.071,177.143 919.095,172.391C911.265,170.43 903.271,169.621 895.098,169.634C887.348,169.671 879.659,171.183 872.032,172.131C874.667,174.953 877.738,176.999 880.695,179.717C881.485,180.452 882.905,180.906 882.081,182.659C882.081,182.659 881.441,183.32 880.46,183.624C874.36,185.516 867.56,184.645 861.072,184.66C845.742,184.726 830.559,187.221 815.417,189.088C813.559,189.153 812.709,189.14 812.253,188.637C777.028,203.433 760.372,247.101 756.78,279.238C751.937,322.556 759.476,368.452 783.174,407.572C793.648,408.928 804.741,408.296 815.48,406.685C826.348,405.083 837.508,404.605 848.285,406.741C851.108,407.3 853.439,407.761 856.241,408.273L857.087,407.244C871.609,389.712 879.834,367.219 881.069,343.007C881.538,333.812 880.762,324.626 879.334,315.669C877.461,303.924 874.207,292.679 871.339,281.215C871.339,281.215 869.819,275.077 869.375,271.067C868.113,259.648 870.835,246.865 869.227,231.401C867.687,216.587 864.807,201.971 857.967,188.236C857.054,187.274 858.109,185.985 859.578,187.195C869.762,203.216 874.589,222.651 876.394,242.126C877.166,250.462 876.952,258.726 876.254,267.198C875.897,271.996 877.071,276.728 877.837,281.573C880.025,295.244 882.238,309.229 883.041,322.642C883.193,325.183 883.348,327.719 883.453,330.258C884.566,357.286 880.191,384.767 863.853,408.91C864.214,408.856 878.039,408.384 887.44,408.445C897.002,408.494 906.705,408.79 916.07,407.246C917.369,407.031 918.626,406.664 919.854,406.197C920.552,404.205 922.299,399.275 923.696,395.79C935.272,366.734 944.932,336.374 949.491,310.469C954.698,280.891 954.914,249.57 939.395,221.037C937.707,217.932 935.843,214.923 933.807,212.034C925.79,200.658 915.249,190.505 902.334,185.623C897.14,183.66 891.436,183.34 885.741,182.837C884.14,182.87 883.918,181.138 885.855,181.121C893.695,181.496 901.464,182.187 908.499,185.565C929.981,195.878 945.39,217.356 952.718,240.035C963.184,272.426 958.855,309.465 950.197,339.472C948.16,346.534 945.651,353.5 943.004,360.399C943.004,360.399 939.502,368.927 937.701,373.017C937.701,373.017 928.739,391.581 923.841,400.444C923.841,400.444 921.907,404.201 920.933,405.869C923.523,404.776 925.792,403.258 928.265,401.878ZM822.237,174.671C813.312,176.287 804.227,176.756 795.407,178.939C772.536,184.598 750.217,197.803 740.412,219.222C732.073,237.436 732.311,258.637 730.87,278.47C730.852,278.692 730.833,278.913 730.812,279.135C728.144,306.302 724.432,333.586 732.457,361.479C736.447,375.349 743.79,388.749 755.692,397.357C762.252,402.102 769.756,405.047 777.74,406.673C754.959,367.73 746.2,320.475 750.253,277.521C751.888,260.187 755.511,243.075 765.984,224.728C766.736,223.425 769.332,219.353 770.325,217.93C780.31,203.616 794.637,192.369 811.709,186.997C811.373,184.26 814.221,182.671 816.149,180.776C818.184,178.776 820.299,176.775 822.237,174.671ZM841.876,137.999C839.112,140.946 833.364,142.649 829.077,142.098C829.456,142.917 829.827,143.735 830.159,144.489C833.047,151.043 836.394,157.854 834.243,164.858C831.323,174.365 821.479,180.025 815.418,186.205L815.4,186.223C831.895,184.265 848.31,181.894 864.893,181.927C869.274,181.936 873.74,182.118 877.987,181.278C877.987,181.278 868.536,174.546 866.932,171.838C859.72,159.943 850.301,147.902 841.876,137.999ZM840.16,157.25C840.16,157.25 842.781,167.231 842.466,170.412C842.11,174.019 840.268,177.452 837.492,179.813C835.978,181.399 834.081,179.935 835.797,178.137C840.848,172.921 840.07,164.394 839.612,158.415C839.555,157.542 840.223,156.956 840.16,157.25ZM840.252,147.594C841.494,150.264 848.825,158.651 852.974,164.141C854.661,166.372 856.203,168.723 857.972,170.867C858.639,171.675 858.525,172.531 857.91,171.937C857.91,171.937 852.949,167.649 850.376,164.645C850.376,164.645 841.612,153.619 839.907,147.807C839.907,147.807 839.737,147.348 840.252,147.594ZM839.492,135.222C838.814,134.439 838.145,133.673 837.486,132.923C837.06,132.439 836.413,131.754 836.413,131.754C832.773,131.992 829.206,133.799 826.372,135.997C827.389,137.207 827.476,136.934 830.527,137.397C833.186,137.8 835.973,137.494 838.382,136.34C838.382,136.34 839,135.726 839.492,135.222Z" style="fill:rgb(80,0,0);"/></g><g transform="matrix(1.60187,0,0,0.933657,464.071,-1113.24)"><path d="M212.941,2706.35C206.126,2696.19 228.063,2672.11 245.676,2660.6C253.432,2655.53 262.544,2667.36 262.544,2667.36C263.614,2668.67 277.03,2688.95 279.268,2693.42C279.268,2693.42 280.65,2695.79 281.465,2699.18C281.503,2699.33 281.538,2699.49 281.564,2699.65C283.326,2710.43 278.64,2704.14 278.64,2704.14C278.316,2704.62 278.135,2704.89 278.135,2704.89C282.795,2709.31 261.672,2733.63 251.473,2734.99C229.727,2737.9 212.941,2706.35 212.941,2706.35Z" style="fill:rgb(80,0,0);"/></g><g transform="matrix(1.60187,0,0,0.933657,625.054,-1119.14)"><path d="M212.941,2706.35C206.126,2696.19 228.063,2672.11 245.676,2660.6C253.432,2655.53 262.544,2667.36 262.544,2667.36C263.614,2668.67 277.03,2688.95 279.268,2693.42C279.268,2693.42 280.65,2695.79 281.465,2699.18C281.503,2699.33 281.538,2699.49 281.564,2699.65C283.326,2710.43 278.64,2704.14 278.64,2704.14C278.316,2704.62 278.135,2704.89 278.135,2704.89C282.795,2709.31 261.672,2733.63 251.473,2734.99C229.727,2737.9 212.941,2706.35 212.941,2706.35Z" style="fill:rgb(80,0,0);"/></g><g transform="matrix(1.84577,0,0,1.86731,388.402,-3629.33)"><path d="M354.952,2751.24C354.952,2751.24 351.688,2756.94 351.688,2756.94C351.537,2757.28 351.387,2757.63 351.24,2757.97C349.617,2761.77 347.89,2765.53 346.125,2769.34C346.125,2769.34 343.542,2775.02 340.594,2778.98C338.247,2782.13 335.76,2785.19 333.082,2788.07C333.082,2788.07 329.414,2791.43 327.411,2792.76C323.995,2795.02 320.303,2796.87 316.357,2798.33L316.239,2798.38C313.937,2799.11 311.597,2799.72 309.231,2800.19C308.383,2800.36 306.064,2800.64 305.366,2800.7C300.766,2801.08 296.143,2800.88 291.569,2800.24L291.398,2800.22C286.603,2799.28 281.924,2797.81 277.388,2795.98L277.179,2795.89C274.36,2794.61 271.611,2793.17 268.929,2791.62C268.087,2791.13 267.252,2790.64 266.423,2790.13C263.149,2788.12 260.107,2785.68 257.111,2783.24C257.111,2783.24 251.778,2778.8 247.358,2774.55L247.174,2774.38C244.349,2771.44 241.621,2768.42 238.994,2765.31C237.617,2763.67 236.285,2762.01 234.941,2760.35C234.941,2760.35 233.593,2758.5 232.962,2757.12C232.071,2755.18 231.483,2752.65 231.812,2750.48C231.98,2749.38 232.789,2747.87 232.789,2747.87C233.417,2747.39 233.959,2746.77 234.673,2746.42C238.137,2744.76 241.353,2745.62 245.242,2745.72C250.416,2746.8 255.574,2748.13 260.83,2748.97C260.83,2748.97 268.306,2750.36 273.262,2750.83C278.178,2751.3 283.138,2751.64 288.02,2751.29C288.02,2751.29 292.011,2751.26 294.841,2750.43C294.841,2750.43 303.28,2747.28 307.029,2746.65C308.619,2746.37 310.814,2745.83 310.814,2745.83C317.787,2743.96 324.683,2742.16 331.662,2740.72C333.275,2740.38 334.887,2740.06 336.507,2739.77C336.507,2739.77 339.214,2739.44 341.061,2739.3C342.201,2739.21 343.344,2739.15 344.488,2739.13C346.799,2739.08 349.115,2739.18 351.381,2739.6C353.506,2739.99 360.337,2741.95 362.263,2747.99C362.441,2748.55 362.876,2749.27 362.166,2749.13C361.459,2748.99 361.951,2749.07 361.253,2748.99C360.996,2748.95 361.441,2748.99 360.884,2748.95C349.428,2748.08 354.905,2751.24 354.905,2751.24C354.921,2751.24 354.936,2751.24 354.952,2751.24Z" style="fill:rgb(80,0,0);"/></g></g></g><g id="yellow" transform="matrix(0.278161,0,0,0.203063,2369.24,59.1398)"><g><g transform="matrix(1,0,0,1,164.745,8.20406)"><path d="M891.045,1668.36C997.463,1637.66 1022.98,1441.05 955.64,1297.45C911.253,1202.79 803.568,1219.46 779.756,1224.42C748.4,1230.96 728.843,1218.73 697.43,1227.54C669.764,1235.3 639.176,1230.26 591.145,1256.12C516.333,1296.4 517.754,1354.83 512.768,1429.61C510.905,1457.56 461.811,1708.02 672.535,1676.83C735.01,1667.59 744.444,1686.3 767.387,1681.41C775.631,1679.66 825.42,1684.13 859.721,1680.72C875.312,1679.16 885.675,1669.91 891.045,1668.36Z" style="fill:rgb(238,184,50);"/></g><g transform="matrix(1,0,0,1,235.441,28.7639)"><path d="M603.49,1240.27C585.206,1240.27 639.063,1214.6 634.324,1186.16C632.008,1172.27 616.009,1143.73 616.164,1143.11C617.367,1138.34 635.047,1128.14 644.764,1129.38C648.97,1129.92 698.25,1202.03 701.964,1209.46C702.632,1210.8 725.23,1229.27 724.396,1229.61C712.711,1234.44 686.631,1230.02 655.84,1233.83C630.321,1236.98 603.49,1240.27 603.49,1240.27Z" style="fill:rgb(150,0,0);"/></g><g id="shading" transform="matrix(3.39796,0,0,4.92458,-6533.75,-3417.19)"><path d="M2177.58,944.421L2168.5,952.127C2157.69,957.383 2155.7,959.294 2152.11,965.502C2121.93,1017.74 2188.61,1034.25 2182.39,1035.67C2178.74,1036.51 2170.53,1034.97 2162.67,1037.23C2152.17,1040.25 2137.7,1035.67 2130.05,1028.28C2112.58,1011.4 2123.48,1001.99 2121.8,986.782C2120.28,973.011 2128.57,962.804 2131.64,958.293C2135.71,952.299 2139.47,951.681 2156.86,947.042C2165.31,944.788 2170.42,945.596 2177.58,944.421ZM2197.34,943.794C2241.72,941.467 2252.04,959.209 2243.02,953.276C2234.01,947.354 2222.11,947.788 2210.42,949.72C2210.21,949.753 2204.94,949.569 2204.75,949.631L2197.34,943.794Z" style="fill:rgb(87,62,1);fill-opacity:0.32;"/></g><g transform="matrix(3.39796,0,0,4.92458,-6533.75,-3417.19)"><path d="M2194.33,1034.78C2194.2,1034.9 2223.45,1034.96 2227.73,1028.2C2235.42,1016.06 2241.04,1001.19 2241.77,992.818C2242.76,981.39 2240.31,971.463 2231.49,961.593C2226.11,955.564 2208.47,949.741 2208.47,949.741C2208.47,949.741 2207.83,949.693 2208.96,949.741C2217.93,950.121 2230.08,955.638 2236.58,961.881C2244.21,969.212 2245.39,976.45 2245.43,987.19L2245.43,987.401C2245.07,1003.7 2238.15,1019.82 2228.1,1032.93C2241.36,1024.74 2255.94,1012.76 2258.1,999.131C2260.31,985.208 2258.7,968.161 2247.81,957.12C2247.81,957.12 2247.72,955.546 2247.72,955.546C2247.72,955.546 2249.16,955.368 2249.3,955.493C2261.84,966.309 2265.45,985.966 2263.2,998.059C2261.28,1008.38 2256.32,1018.04 2250.14,1026.56L2221.94,1036.53C2214.74,1037.27 2203,1035.41 2194.42,1035.45C2188.36,1038.92 2174.66,1036.45 2175.26,1035.32C2176.19,1033.59 2188.31,1035.2 2195.03,1029.55C2200.93,1024.59 2201.62,1012.69 2201.24,1006.37C2201.02,1002.8 2200.11,999.309 2199.42,995.791L2199.38,995.62C2198.58,991.074 2197.13,985.924 2197.16,981.451C2197.3,973.026 2197.5,962.607 2194.66,954.668C2194,952.826 2193.78,951.717 2193.92,951.829C2198.84,955.803 2199.97,964.042 2200.88,969.95C2201.87,976.347 2201.64,986.401 2202.75,992.62C2203.76,998.227 2206.12,999.989 2206.61,1005.87C2207.16,1012.37 2198.01,1031.19 2194.33,1034.78Z" style="fill:rgb(255,219,128);"/></g></g><g><g transform="matrix(3.39796,0,0,4.92458,-2442.55,-387.22)"><path d="M973.046,327.921C973.217,327.599 973.362,327.258 973.478,326.897C974.363,324.15 970.631,321.04 968.218,317.597C967.447,316.454 967.913,316.03 968.215,315.585C970.012,312.93 974.629,312.092 977.473,312.124C981.627,312.216 984.71,317.608 987.834,320.917C989.894,323.098 991.976,325.171 993.895,327.454C995.011,327.366 996.14,327.246 997.284,327.086C1001.71,326.491 1006.13,326.221 1010.59,326.241C1025.15,326.382 1040.54,329.313 1049.72,341.909C1063.5,360.799 1067.14,388.261 1052.97,407.239C1047.47,414.608 1039.17,419.714 1030.08,421.609C1030.08,421.609 1023.53,423.86 1020,424.024C1010.96,424.391 1001.64,422.754 992.905,423.706C988.283,424.164 983.786,422.579 979.092,422.165C967.155,421.11 955.361,424.134 942.839,421.754C932.099,419.714 921.167,414.263 917.06,403.661C912.344,391.486 914.969,375.875 916.19,363.628C917.039,355.305 919.016,346.5 925.51,340.91C936.119,331.78 944.303,328.506 960.883,329.145C962.253,329.006 970.15,327.755 972.535,328.545M1024.94,418.041C1026.68,417.392 1028.51,416.645 1028.51,416.645C1029.3,416.404 1029.34,416.485 1029.72,416.406C1039.47,414.327 1048.03,407.713 1052.57,398.834C1061.15,382.064 1057.59,359.919 1046.44,344.279C1046.06,343.739 1043.71,340.996 1042.88,340.217C1033.79,331.726 1020.53,329.855 1008.86,329.864C1006.12,329.879 1003.38,330.004 1000.66,330.256C999.507,330.362 998.357,330.427 997.206,330.462C998.557,331.305 1000.39,332.485 1001.66,333.441C1001.66,333.441 1002.6,334.622 1001.33,334.933C995.01,336.4 988.176,335.077 981.179,335.653L979.117,335.828C976.299,336.074 973.481,336.319 970.662,336.565L965.77,336.989C965.243,337.007 964.414,336.942 963.978,336.641C960.748,337.935 953.901,340.834 950.072,343.586C948.769,344.524 947.523,345.542 946.35,346.637C927.29,364.432 930.402,398.772 948.208,419.52C954.82,420.077 961.548,419.527 967.589,418.971C974.172,418.389 988.004,419.927 988.004,419.927C990.836,417.567 996.621,410.276 998.986,404.769C1004.02,393.039 998.561,379.993 995.732,369.652C993.449,361.308 996.981,352.511 991.58,341.179C990.831,339.606 990.007,338.065 989.004,336.642C989.004,336.642 988.435,335.916 989.673,336.039C997.2,344.258 999.701,356.782 998.559,366.62C997.958,373.056 1001.75,379.449 1002.45,387.643C1003.43,398.977 1000.03,410.792 991.016,419.947C993.221,419.92 995.437,419.66 997.755,419.66C1006.1,419.661 1014.79,420.978 1022.78,418.739C1024.06,416.469 1027.72,409.873 1029.95,405.482C1037.53,390.524 1044.32,374.21 1038.23,358.039C1033.62,345.795 1021.31,336.332 1008.73,334.979C1006.76,334.768 1003.94,334.565 1003.94,334.565L1003.55,334.144C1003.55,334.144 1003.84,333.757 1004.22,333.766C1021.17,334.229 1038.06,344.618 1042.38,362.157C1047.2,381.681 1034.8,403.517 1027.18,413.72C1025.95,415.364 1024.99,416.913 1023.69,418.498C1024.21,418.34 1024.42,418.232 1024.94,418.041M969.081,331.766C963.992,332.392 958.81,332.571 953.721,333.52C941.404,335.816 928.272,339.977 923.068,351.645C919.82,358.927 920.265,367.236 918.948,374.884C916.52,389.226 917.998,404.437 931.258,412.927C935.731,415.791 939.935,418.437 945.102,419.171C930.858,401.689 924.7,376.898 934.461,357.079C939.993,345.848 951.472,338.455 963.717,335.956C963.801,335.652 964.085,335.265 964.664,334.771C965.969,333.659 967.578,332.755 969.081,331.766M980.049,317.519C979.464,317.945 978.724,318.211 978.307,318.372C976.828,318.944 975.094,319.48 973.504,319.414C975.111,321.935 976.985,325.822 975.435,328.497C973.513,331.816 969.522,333.54 966.161,335.589L966.11,335.621C976.858,334.736 987.548,334.672 998.347,333.881C998.659,333.858 998.97,333.824 999.28,333.787C992.013,329.702 985.767,322.414 980.049,317.519M979.558,324.701C980.308,325.639 981.986,329.662 980.377,331.965C979.638,333.023 977.949,334.033 977.949,334.033C975.527,334.594 974.982,334 976.647,332.045C978.759,330.206 978.791,327.443 978.715,325.226C978.709,324.682 979.352,324.442 979.558,324.701M979.053,321.378C977.747,319.143 981.053,321.906 982.77,323.861C984.549,325.887 984.831,325.421 987.023,327.065C989.042,328.579 989.279,330.376 989.279,330.376C989.279,330.376 988.978,331.116 986.908,329.801C986.908,329.801 985.128,328.683 985.04,328.62C982.415,326.76 980.022,323.896 979.053,321.378M978.834,316.511C978.383,316.149 977.4,315.448 977.318,315.449C975.537,315.481 973.769,316.004 972.149,316.706C972.629,316.812 974.357,317.09 974.6,317.106C976.027,317.205 977.648,317.293 978.834,316.511" style="fill:rgb(80,0,0);"/></g><g transform="matrix(3.39796,0,0,4.92458,-518.114,-12337.4)"><path d="M410.913,2781.87C399.151,2780.47 395.625,2791.27 396.809,2795.93C397.711,2799.47 408.234,2802.23 412.718,2799.1C412.718,2799.1 428.231,2787.48 422.411,2783.18C419.836,2782.22 413.62,2782.19 410.913,2781.87Z" style="fill:rgb(80,0,0);"/></g><g transform="matrix(-3.39796,0,0,4.92458,2412.57,-12337.4)"><path d="M410.913,2781.87C399.151,2780.47 395.625,2791.27 396.809,2795.93C397.711,2799.47 408.234,2802.23 412.718,2799.1C412.718,2799.1 428.231,2787.48 422.411,2783.18C419.836,2782.22 413.62,2782.19 410.913,2781.87Z" style="fill:rgb(80,0,0);"/></g><g transform="matrix(3.39796,0,0,4.92458,-494.734,-12355.3)"><path d="M426.552,2804.23C426.992,2804.31 433.479,2807.88 436.068,2810.13C439.631,2813.22 441.845,2815.73 444.972,2819.46C444.972,2819.46 439.469,2830.44 434.022,2833.8C431.625,2835.28 429.658,2837.17 427.377,2837.28C423.228,2837.5 419.284,2835.66 416.601,2834.3C411.177,2831.55 410.325,2830.89 405.438,2827.84C405.384,2827.81 405.308,2827.76 405.308,2827.76C402.096,2825.38 401.893,2825.57 399.328,2822.51L399.327,2822.49C401.478,2819.12 401.704,2819.29 404.584,2816.51C404.624,2816.48 404.663,2816.45 404.703,2816.41C409.025,2812.88 413.245,2809.31 417.978,2806.77C420.893,2805.2 422.19,2804.25 426.552,2804.23Z" style="fill:rgb(80,0,0);"/></g></g></g><g id="pink" transform="matrix(0.278161,0,0,0.379129,2089.23,-245.677)"><g><g transform="matrix(1,0,0,1,164.745,8.20406)"><path d="M891.045,1668.36C997.463,1637.66 1022.98,1441.05 955.64,1297.45C911.253,1202.79 803.568,1219.46 779.756,1224.42C748.4,1230.96 728.843,1218.73 697.43,1227.54C669.764,1235.3 639.176,1230.26 591.145,1256.12C516.333,1296.4 517.754,1354.83 512.768,1429.61C510.905,1457.56 461.811,1708.02 672.535,1676.83C735.01,1667.59 744.444,1686.3 767.387,1681.41C775.631,1679.66 825.42,1684.13 859.721,1680.72C875.312,1679.16 885.675,1669.91 891.045,1668.36Z" style="fill:rgb(235,153,110);"/></g><g transform="matrix(-1,0,0,1,1559.55,28.7639)"><path d="M592.36,1229.62C574.076,1229.62 639.063,1214.6 634.324,1186.16C632.008,1172.27 616.009,1143.73 616.164,1143.11C617.367,1138.34 635.047,1128.14 644.764,1129.38C648.97,1129.92 698.25,1202.03 701.964,1209.46C702.632,1210.8 725.23,1229.27 724.396,1229.61C712.711,1234.44 686.631,1230.02 655.84,1233.83C630.321,1236.98 592.36,1229.62 592.36,1229.62Z" style="fill:rgb(150,0,0);"/></g><g id="shading1" transform="matrix(3.39796,0,0,2.63762,-5428.64,-971.654)"><path d="M1850.31,837.656L1849.36,839.415L1844.02,844.614C1844.61,846.523 1846.05,846.813 1847.93,846.368C1847.3,846.84 1845.53,848.457 1844.89,849.017C1826.1,865.442 1825.05,877.711 1822.13,890.09C1800.24,982.883 1870.59,1004.12 1863.41,1007.84C1857.17,1011.08 1831.46,1009.25 1824.96,1007.73C1810.54,1004.36 1793.23,991.137 1795.77,951.48C1798.68,905.941 1790.65,873.399 1815.25,851.188C1825.78,841.683 1839.83,838.761 1850.31,837.656ZM1872.17,836.34C1885.83,835.499 1897.89,834.998 1897.89,834.998C1901.79,836.769 1916.38,833.335 1924.62,854.51C1928.92,865.584 1918.08,851.355 1904.84,844.614C1897.21,840.726 1888.55,842.011 1884.86,844.643C1884.64,844.796 1884.43,844.937 1884.21,845.067C1883.19,844.422 1881.94,843.655 1881.36,843.373C1880.68,843.048 1874.78,839.497 1872.17,836.34Z" style="fill:rgb(176,109,74);"/></g><g transform="matrix(1.5415,0,9.43124e-17,1.5415,-419.041,1040.36)"><path d="M871.952,159.206C870.973,156.034 869.361,150.589 869.941,151.28C880.71,164.485 882.277,181.924 884.663,197.206C887.756,217.009 884.844,237.265 886.555,257.629C887.132,264.495 891.789,271.165 892.604,278.113C895.998,306.588 900.848,326.823 893.294,357.946C888.864,376.202 883.127,401.804 867.95,414.304C867.95,414.304 867.018,404.296 876.1,388.456C900.565,345.786 875.911,294.934 875.438,255.481C875.047,222.823 881.435,189.924 871.952,159.206Z" style="fill:rgb(255,198,168);"/></g><g transform="matrix(1.5415,0,9.43124e-17,1.5415,-420.344,1041.65)"><path d="M993.413,161.174C1013.8,186.33 1020.85,218.465 1023.09,246.431C1023.49,251.532 1023.7,256.64 1023.78,261.751L1023.78,262.404C1023.77,265.742 1023.69,269.079 1023.54,272.414C1023.32,277.42 1022.84,282.411 1022.22,287.391C1018.21,319.663 1006.72,351.322 991.484,381.333L990.449,382.42C990.449,382.42 995.016,368.178 998.286,356.686C1005.78,330.359 1010.27,304.191 1011.32,276.916C1011.51,273.764 1011.62,270.613 1011.67,267.459C1012.27,232.587 1008.67,196.755 988.903,165.426C988.476,164.749 987.803,163.757 987.803,163.757L987.505,161.834C987.505,161.834 988.975,160.293 988.975,160.293L991.395,160.044C992.068,160.421 992.741,160.798 993.413,161.174Z" style="fill:rgb(255,198,168);"/></g><g transform="matrix(1.5415,0,9.43124e-17,1.5415,-419.041,1040.36)"><path d="M905.01,140.021C941.864,144.661 970.274,181.778 977.438,207.679C983.013,227.834 982.957,245.747 983.46,266.257C984.649,314.653 971.085,353.144 946.448,402.037C944.023,406.847 939.936,413.837 941.153,410.302C966.053,337.979 986.905,257.755 967.822,204.54C950.299,155.67 901.666,140.41 901.666,140.41C902.78,140.278 903.912,139.821 905.01,140.021Z" style="fill:rgb(255,198,168);"/></g></g><g id="strokes1"><g transform="matrix(-1,0,0,1,1841.48,-55.2365)"><path d="M930.516,1247.06C932.82,1258.21 940.19,1268.59 947.753,1278.02C947.753,1278.02 958.204,1288.98 962.392,1292.28C964.115,1294.14 966.562,1291.95 965.139,1290.31C961.687,1285.52 958.823,1280.41 955.262,1275.6C955.262,1275.6 943.472,1261.69 938.173,1255.39C934.306,1250.79 931.784,1245.13 930.516,1247.06Z" style="fill:rgb(93,24,24);"/></g><g transform="matrix(-1,0,0,1,1841.48,-55.2365)"><path d="M928.773,1267.49C928.983,1275.25 930.082,1280.17 928.038,1288.61C927.472,1290.94 926.383,1298.24 921.759,1303.33C917.729,1306.27 923.858,1310.37 927.888,1307.44C933.362,1302.91 936.886,1297.05 937.739,1290.74C938.838,1282.61 931.393,1264.49 931.393,1264.49C931.097,1263.6 929.005,1262.97 928.773,1267.49Z" style="fill:rgb(93,24,24);"/></g><g transform="matrix(3.39796,0,0,2.63762,-1435.91,596.595)"><path d="M674.449,241.206C675.857,238.15 684.795,217.069 688.045,212.515C691.256,208.016 704.107,213.934 702.207,219.088C700.017,225.029 695.217,231.141 696.753,237.511C696.903,238.133 697.112,238.721 697.37,239.281C698.493,239.185 699.609,239.013 700.718,238.73C704.956,237.671 709.34,237.152 713.684,237.159C725.309,237.229 736.899,241.869 744.702,250.637C751.003,257.717 754.578,266.779 757.413,275.836C768.376,310.859 770.744,350.205 758.793,383.256C758.171,384.973 753.93,394.147 753.374,395.113C749.043,402.64 742.863,409.497 734.535,412.689C734.535,412.689 729.108,416.951 723.983,417.456C715.65,418.276 707.278,417.134 698.899,417.057C697.223,417.041 697.029,417.225 697.029,417.225C691.357,418.34 686.16,416.569 679.776,416.213C670.898,415.718 662.312,416.796 653.197,415.485C645.325,414.353 636.63,412.303 631.248,406.187C621.96,395.633 618.65,382.171 617.37,368.101C616.035,353.421 616.157,337.1 617.514,322.435C615.403,314.154 617.664,276.911 630.91,260.483C638.787,250.715 652.84,244.865 664.835,242.588C668.266,241.936 671.08,242.257 674.449,241.206ZM652.736,410.881C660.21,411.773 668.136,409.995 674.997,409.364C680.709,408.839 686.358,410.011 692.033,411.568C693.739,412.026 696.308,411.672 696.308,411.672C700.519,410.688 705.078,411.506 709.697,411.551C715.962,411.597 722.904,412.509 728.032,408.855C728.917,408.224 729.474,407.711 730.608,406.942L731.983,406.233C742.764,402.267 749.186,390.806 753.087,380.041C763.271,351.933 762.179,320.153 755.981,291.283C754.977,286.602 753.791,281.959 752.408,277.375C748.691,265.057 743.025,252.609 731.608,246.318C725.923,243.186 719.386,241.815 712.831,241.837C708.728,241.868 704.657,242.472 700.661,243.466C700.661,243.466 708.368,249.384 708.402,249.417C725.05,250.908 737.498,268.508 743.033,286.649C749.921,309.225 748.664,333.665 743.92,357.332C742.617,363.833 738.893,376.889 738.8,377.183C737.115,382.502 733.135,393.379 733.135,393.379C732.094,396.013 731.021,398.634 729.921,401.244C728.834,403.825 727.699,406.392 726.533,408.939C726.278,409.718 725.734,409.582 725.959,408.895C739.804,362.82 752.459,313.775 736.341,276.404C732.416,267.304 726.742,258.509 718.458,253.337C715.694,251.612 712.359,251.006 709.046,250.603C709.112,251.1 708.89,251.573 708.088,251.76C708.088,251.76 693.437,253.638 693.63,253.698C702.213,271.194 704.246,291.638 702.88,310.246C702.258,320.411 705.196,330.77 705.917,341.694C707.114,359.829 707.46,377.919 701.199,396.049C699.598,400.685 697.359,405.634 695.014,409.944C691.92,414.061 690.661,409.678 693.247,405.355C700.891,392.573 704.242,378.256 704.98,363.017C705.313,356.133 704.87,349.239 703.941,342.318C702.893,334.509 701.009,326.67 699.452,318.754C699.401,318.492 699.402,318.493 699.355,318.23C697.401,307.099 699.936,294.152 697.702,276.888C696.712,269.237 695.348,261.657 692.616,254.415C692.405,253.973 692.421,253.643 692.814,253.498C690.776,253.486 688.75,253.362 686.751,253.115C680.281,252.345 672.935,254.541 667.889,251.667C667.456,251.42 667.202,251.266 667.458,250.951C667.458,250.951 669.537,248.525 671.698,245.791C667.614,246.605 663.409,247.051 659.377,248.301C645.009,252.76 632.993,264.409 628.48,278.924C623.71,294.267 624.642,310.934 623.201,326.66C621.469,345.89 620.683,365.558 626.326,384.139C629.548,394.744 635.614,405.168 646.427,409.356C647.458,409.755 648.509,410.075 649.574,410.327C640.935,391.553 636.621,370.391 634.595,351.382C631.486,322.219 632.544,291.679 649.479,268.287C654.338,261.575 660.958,256.009 668.712,253.056C669.371,252.766 669.88,253.639 669.079,253.925C646.889,264.223 640.953,296.14 639.123,308.827C634.878,338.265 637.25,368.756 647.427,397.85C648.976,402.28 650.73,406.638 652.736,410.881ZM689.596,219.667C684.507,227.27 679.883,235.319 676.023,243.532C675.77,244.082 676.095,243.665 675.269,244.586C673.476,246.582 671.564,248.484 669.788,250.506C675.706,252.138 682.222,250.714 689.011,251.704C694.566,252.464 700.338,251.514 705.946,250.282C705.946,250.282 693.014,244.213 693.037,235.248C693.051,230.055 695.269,224.934 697.22,219.882C696.905,220.073 696.578,220.245 696.241,220.395C694.077,221.362 691.201,221.388 689.596,219.667ZM696.895,217.515C696.012,216.669 694.522,215.498 692.732,215.12C692.706,215.156 692.68,215.192 692.654,215.228C692.161,215.924 691.671,216.625 691.185,217.329C692.561,218.78 695.16,218.498 696.895,217.515Z" style="fill:rgb(80,0,0);"/></g><g transform="matrix(3.39796,0,0,2.63762,529.203,-5809.9)"><path d="M87.189,2727.67C92.748,2722.16 100.239,2718.65 108.29,2722.3C108.29,2722.3 111.937,2723.87 113.436,2729.43C114.024,2731.61 113.157,2738.14 107.744,2735.34C105.08,2733.96 104.348,2731.52 96.484,2735.45C91.983,2737.73 87.63,2740.41 83.711,2743.25C81.016,2745.21 76.916,2744.26 77.748,2741.39C78.953,2737.23 82.994,2731.82 87.189,2727.67Z" style="fill:rgb(80,0,0);"/></g><g transform="matrix(-3.39796,0,0,2.63762,1350.14,-5814.24)"><path d="M87.189,2727.67C92.748,2722.16 100.239,2718.65 108.29,2722.3C108.29,2722.3 111.937,2723.87 113.436,2729.43C114.024,2731.61 113.157,2738.14 107.744,2735.34C105.08,2733.96 104.348,2731.52 96.484,2735.45C91.983,2737.73 87.63,2740.41 83.711,2743.25C81.016,2745.21 76.916,2744.26 77.748,2741.39C78.953,2737.23 82.994,2731.82 87.189,2727.67Z" style="fill:rgb(80,0,0);"/></g><g transform="matrix(6.99196,0,0,9.32007,259.393,-23937)"><path d="M98.839,2735.7C98.839,2735.7 97.725,2735.83 97.725,2735.83C96.659,2735.88 97.211,2735.83 96.888,2735.87C96.888,2735.87 96.319,2735.88 96.319,2735.88C96.025,2735.92 96.023,2735.91 96.023,2735.91C96.023,2735.91 95.654,2735.93 95.654,2735.93C95.251,2736 95.489,2735.95 95.489,2735.95C95.489,2735.95 92.701,2736.33 90.917,2736.84C89.814,2737.16 88.788,2737.56 87.788,2737.97C87.788,2737.97 86.715,2738.43 85.7,2738.94C85.7,2738.94 82.908,2740.6 80.235,2740.64C79.624,2740.64 78.736,2740.47 78.736,2740.47C78.284,2740.26 77.751,2740.1 77.38,2739.84C76.583,2739.29 76.162,2738.51 76.137,2737.8C76.038,2734.95 78.787,2732.12 81.618,2730.02C83.646,2728.52 86.057,2727.19 89.011,2726.25C89.793,2726 90.979,2725.69 90.979,2725.69C93.152,2725.2 95.45,2724.91 97.946,2724.89C99.321,2724.88 100.692,2725.03 102.052,2725.2L102.085,2725.2C104.382,2725.58 106.583,2726.14 108.63,2726.85L108.743,2726.89C110.75,2727.67 112.628,2728.58 114.192,2729.66L114.195,2729.66C114.666,2730.07 115.221,2730.46 115.608,2730.9C116.254,2731.64 116.752,2732.62 116.623,2733.47C116.559,2733.89 116.094,2734.48 116.094,2734.48C115.67,2734.7 115.315,2734.97 114.824,2735.13C112.901,2735.76 110.304,2735.7 107.809,2735.55C107.809,2735.55 104.866,2735.32 102.779,2735.31C101.992,2735.31 101.206,2735.35 100.444,2735.46C100.444,2735.46 98.969,2735.68 98.969,2735.68C98.926,2735.69 98.883,2735.7 98.839,2735.7ZM97.854,2735.83C97.788,2735.83 97.898,2735.82 97.854,2735.83Z" style="fill:rgb(80,0,0);"/></g></g></g></g></g></svg>