<svg width="96px" height="96px" viewBox="0 -8.5 96 96" xmlns="http://www.w3.org/2000/svg"><g transform="translate(-288.456 -326.205)"><path d="M336.456,328.776s-20.119-4.173-23.267,5.968a87.839,87.839,0,0,0-4.049,25.5c0,6.295,7.383,27.627,13.658,27.627h13.658Z" fill="#f7a747"/><path d="M324.931,363.787c-6.291,7.908-9.682,7.37-8.725,13.089,1.217,7.265,7.965,12.406,9.891,19.4s3.754,8.937,10.359,8.937V359.222S329,358.671,324.931,363.787Z" fill="#fcbd78"/><path d="M328.364,351.583c-.732-1.75-2.124-5.46-5.927-4.559a23.56,23.56,0,0,0-5.719,2.019.249.249,0,0,0,.054.457,2.712,2.712,0,0,1,1.52.944,8.2,8.2,0,0,0,4.048,3.269c1.5.519,3.638-.6,4.955-.6a2.852,2.852,0,0,1,1.455.834.255.255,0,0,0,.4-.289C328.888,352.936,328.552,352.034,328.364,351.583Z" fill="#c68032"/><ellipse cx="3.292" cy="3.395" rx="3.292" ry="3.395" transform="translate(319.651 346.984)" fill="#4c383d"/><ellipse cx="1.988" cy="2.05" rx="1.988" ry="2.05" transform="translate(320.955 348.329)" fill="#3d2a2e"/><ellipse cx="0.613" cy="0.633" rx="0.613" ry="0.633" transform="translate(320.76 348.563)" fill="#fbfcfc"/><path d="M336.456,364.937s-8.387-.9-8.387,2.876,4.733,7.548,8.387,7.548Z" fill="#4c383d"/><path d="M332.262,372.306s-3.295-3.056-1.138-3.235S335.818,374.324,332.262,372.306Z" fill="#3d2a2e"/><path d="M336.456,381.728s-4.876,3.056-7.62,3.056-10.293-8.266-10.293-7.1,3.415,6.919,6.65,11.053,3.655,12.94,11.263,12.94Z" fill="#3d2a2e"/><path d="M331.708,346.591c.321.281.337,6.313-.809,4.74s-1.213-2.771-.539-2.34S331.169,346.119,331.708,346.591Z" fill="#c68032"/><path d="M336.456,387.533s-5.961,1.385-7.039,2.732,1.737,11.054,3.519,11.953a8.7,8.7,0,0,0,3.52.9Z" fill="#f37777"/><path d="M331.394,339.312c-.7-.937-1.708.9-4.4,2.157s-1.341,3.145,1.846,3.055S332.472,340.75,331.394,339.312Z" fill="#fcbd78"/><path d="M326.251,327.875s-8.1-3.562-12.495-.282c-9.4,7.01-23.8,7.01-25.219,19.292-.936,8.114,6.518,27.388,7.084,37.872s4.388,7.619,10.768.85c9.657-10.246,2.95-33.19,7.65-46.552C316.266,332.726,326.251,327.875,326.251,327.875Z" fill="#fcbd78"/><path d="M336.456,328.776s20.119-4.173,23.267,5.968a87.839,87.839,0,0,1,4.049,25.5c0,6.295-7.382,27.627-13.658,27.627H336.456Z" fill="#f7a747"/><path d="M347.981,363.787c6.291,7.908,9.682,7.37,8.725,13.089-1.217,7.265-7.964,12.406-9.891,19.4s-3.753,8.937-10.359,8.937V359.222S343.912,358.671,347.981,363.787Z" fill="#fcbd78"/><path d="M344.549,351.583c.731-1.75,2.124-5.46,5.927-4.559a23.564,23.564,0,0,1,5.718,2.019.249.249,0,0,1-.054.457,2.715,2.715,0,0,0-1.52.944,8.2,8.2,0,0,1-4.048,3.269c-1.5.519-3.638-.6-4.955-.6a2.852,2.852,0,0,0-1.455.834.255.255,0,0,1-.4-.289C344.024,352.936,344.36,352.034,344.549,351.583Z" fill="#c68032"/><ellipse cx="3.292" cy="3.395" rx="3.292" ry="3.395" transform="translate(346.677 346.984)" fill="#4c383d"/><ellipse cx="1.988" cy="2.05" rx="1.988" ry="2.05" transform="translate(347.982 348.329)" fill="#3d2a2e"/><ellipse cx="0.613" cy="0.633" rx="0.613" ry="0.633" transform="translate(350.925 348.563)" fill="#fbfcfc"/><path d="M336.456,364.937s8.388-.9,8.388,2.876-4.733,7.548-8.388,7.548Z" fill="#4c383d"/><path d="M340.65,372.306s3.3-3.056,1.138-3.235S337.1,374.324,340.65,372.306Z" fill="#3d2a2e"/><path d="M336.456,381.728s4.876,3.056,7.62,3.056,10.293-8.266,10.293-7.1-3.415,6.919-6.65,11.053-3.654,12.94-11.263,12.94Z" fill="#3d2a2e"/><path d="M341.2,346.591c-.321.281-.337,6.313.809,4.74s1.213-2.771.539-2.34S341.743,346.119,341.2,346.591Z" fill="#c68032"/><path d="M336.456,387.533s5.961,1.385,7.04,2.732-1.738,11.054-3.52,11.953a8.693,8.693,0,0,1-3.52.9Z" fill="#f37777"/><path d="M341.519,339.312c.7-.937,1.707.9,4.4,2.157s1.341,3.145-1.846,3.055S340.44,340.75,341.519,339.312Z" fill="#fcbd78"/><path d="M346.661,327.875s8.1-3.562,12.495-.282c9.4,7.01,23.8,7.01,25.219,19.292.936,8.114-6.517,27.388-7.084,37.872s-4.388,7.619-10.768.85c-9.657-10.246-2.95-33.19-7.65-46.552C356.647,332.726,346.661,327.875,346.661,327.875Z" fill="#fcbd78"/></g></svg>
