<svg width="96px" height="96px" viewBox="-11.46 0 96 96" xmlns="http://www.w3.org/2000/svg"><g transform="translate(-427.984 -40.981)"><path d="M434.048,55s4.455-.364,5.881,2.669,4.6,10.519,4.6,10.519L456.1,53.613s-3.8-11.265-6.412-11.622S434.048,55,434.048,55Z" fill="#f37777"/><path d="M464.523,52.164c-1.584-.014-7.762-4.543-12.04.692s-10.138,12.125-10.138,21.63,3.722,10.218,5.386,14.5,3.238,20.625,5.2,25.177c3.307,7.674,11.593,0,11.593,0Z" fill="#f7a747"/><path d="M455.657,75.877c-.778-1.213-2.308-3.8-5.034-2.628a17.894,17.894,0,0,0-4.01,2.264.189.189,0,0,0,.1.335,2.049,2.049,0,0,1,1.261.5,6.233,6.233,0,0,0,3.458,1.911c1.188.19,2.642-.928,3.627-1.1a2.165,2.165,0,0,1,1.2.432.194.194,0,0,0,.264-.27C456.227,76.819,455.857,76.189,455.657,75.877Z" fill="#c68032"/><ellipse cx="2.5" cy="2.578" rx="2.5" ry="2.578" transform="matrix(0.985, -0.174, 0.174, 0.985, 448.535, 73.586)" fill="#4c383d"/><ellipse cx="1.509" cy="1.557" rx="1.509" ry="1.557" transform="matrix(0.985, -0.174, 0.174, 0.985, 449.687, 74.42)" fill="#3d2a2e"/><ellipse cx="0.466" cy="0.48" rx="0.466" ry="0.48" transform="matrix(0.985, -0.174, 0.174, 0.985, 449.573, 74.621)" fill="#fbfcfc"/><path d="M464.523,98.664s-3.994-4.1-7.433-4.1-10.24,4.634-12.562,8.377,1.817,1.448,1.817,1.448-4.139,5.68-4.139,12.274,3.069.722,3.069.722,3.12,6.922,4.412,9.615,2.4-2.673,2.4-2.673,2,6.792,4.816,10.515.918-3.743.918-3.743,3.5,5.881,6.705,5.881Z" fill="#f5f1db"/><path d="M459.58,71.014c1.539-2.037,2.288-5.984-2.162-3.741-2.1,1.058-5.3-.648-6.558-.56-2.491.174.34,1.931.34,1.931a6,6,0,0,0-3.944.96c-2.158,1.31.272,1.545.272,1.545a22.347,22.347,0,0,0-2.911,4.211c-.863,1.877,4.788-3.348,6.783-3.7S457.959,73.162,459.58,71.014Z" fill="#f5f1db"/><path d="M464.523,100.705s-7.485-.8-7.485,2.566,4.224,6.736,7.485,6.736Z" fill="#4c383d"/><path d="M460.781,107.281s-2.941-2.727-1.016-2.887S463.953,109.082,460.781,107.281Z" fill="#3d2a2e"/><path d="M457.09,53.041s-3.617-12.06-6.825-12.06-7.841,2.674-12.475,6.03-9.98,5.495-9.8,9.594,3.565,11.839,5.525,16.345,5.723-2.8,8.832-7.79,5.515-22.1,7.342-22.1,3.389,12.3,3.389,12.3Z" fill="#f7a747"/><path d="M495,55s-4.455-.364-5.881,2.669-4.6,10.519-4.6,10.519L472.947,53.613s3.8-11.265,6.412-11.622S495,55,495,55Z" fill="#f37777"/><path d="M464.523,52.164c1.584-.014,7.762-4.543,12.039.692S486.7,64.981,486.7,74.486s-3.723,10.218-5.386,14.5-3.238,20.625-5.2,25.177c-3.308,7.674-11.593,0-11.593,0Z" fill="#f7a747"/><path d="M473.389,75.877c.778-1.213,2.308-3.8,5.034-2.628a17.9,17.9,0,0,1,4.01,2.264.19.19,0,0,1-.1.335,2.047,2.047,0,0,0-1.261.5,6.233,6.233,0,0,1-3.458,1.911c-1.189.19-2.642-.928-3.627-1.1a2.165,2.165,0,0,0-1.2.432.194.194,0,0,1-.264-.27C472.818,76.819,473.189,76.189,473.389,75.877Z" fill="#c68032"/><ellipse cx="2.578" cy="2.5" rx="2.578" ry="2.5" transform="matrix(0.174, -0.985, 0.985, 0.174, 474.692, 77.795)" fill="#4c383d"/><ellipse cx="1.557" cy="1.509" rx="1.557" ry="1.509" transform="matrix(0.174, -0.985, 0.985, 0.174, 475.845, 76.961)" fill="#3d2a2e"/><ellipse cx="0.48" cy="0.466" rx="0.48" ry="0.466" transform="matrix(0.174, -0.985, 0.985, 0.174, 478.389, 75.405)" fill="#fbfcfc"/><path d="M464.523,98.664s3.993-4.1,7.432-4.1,10.241,4.634,12.563,8.377-1.817,1.448-1.817,1.448,4.139,5.68,4.139,12.274-3.07.722-3.07.722-3.119,6.922-4.411,9.615-2.4-2.673-2.4-2.673-2,6.792-4.815,10.515-.918-3.743-.918-3.743-3.5,5.881-6.7,5.881Z" fill="#f5f1db"/><path d="M469.465,71.014c-1.538-2.037-2.287-5.984,2.163-3.741,2.1,1.058,5.3-.648,6.558-.56,2.491.174-.34,1.931-.34,1.931a6,6,0,0,1,3.944.96c2.158,1.31-.272,1.545-.272,1.545a22.346,22.346,0,0,1,2.911,4.211c.863,1.877-4.789-3.348-6.784-3.7S471.087,73.162,469.465,71.014Z" fill="#f5f1db"/><path d="M464.523,100.705s7.484-.8,7.484,2.566-4.223,6.736-7.484,6.736Z" fill="#4c383d"/><path d="M468.265,107.281s2.94-2.727,1.016-2.887S465.093,109.082,468.265,107.281Z" fill="#3d2a2e"/><path d="M471.955,53.041s3.617-12.06,6.825-12.06,7.842,2.674,12.476,6.03,9.98,5.495,9.8,9.594-3.565,11.839-5.525,16.345-5.723-2.8-8.832-7.79-5.516-22.1-7.342-22.1-3.389,12.3-3.389,12.3Z" fill="#f7a747"/></g></svg>
