<?xml version="1.0" ?><!DOCTYPE svg  PUBLIC '-//W3C//DTD SVG 1.1//EN'  'http://www.w3.org/Graphics/SVG/1.1/DTD/svg11.dtd'><svg width="512px" height="512px" viewBox="0 0 512 512" id="Layer_1" style="enable-background:new 0 0 512 512;" version="1.1" xml:space="preserve" xmlns="http://www.w3.org/2000/svg" xmlns:xlink="http://www.w3.org/1999/xlink"><style type="text/css">
	.st0{fill:#EEEDF2;}
	.st1{fill:none;stroke:#1E247E;stroke-width:6;stroke-linecap:round;stroke-miterlimit:10;}
	.st2{fill:#EFC12F;stroke:#1E247E;stroke-width:6;stroke-linecap:round;stroke-miterlimit:10;}
	.st3{fill:none;stroke:#1E247E;stroke-width:3;stroke-linecap:round;stroke-miterlimit:10;}
	.st4{fill:#FFFFFF;stroke:#1E247E;stroke-width:3;stroke-linecap:round;stroke-miterlimit:10;}
	.st5{fill:#FCF5F2;stroke:#1E247E;stroke-width:5;stroke-linecap:round;stroke-miterlimit:10;}
	.st6{fill:#FCF5F2;stroke:#1E247E;stroke-width:6;stroke-linecap:round;stroke-miterlimit:10;}
	.st7{fill:#1E247E;}
	.st8{fill:none;stroke:#1E247E;stroke-width:4;stroke-linecap:round;stroke-miterlimit:10;}
	.st9{fill:#EAB8B1;}
	.st10{fill:#DC9695;stroke:#1E247E;stroke-width:4;stroke-linecap:round;stroke-miterlimit:10;}
	.st11{fill:#EECED1;stroke:#1E247E;stroke-width:3;stroke-linecap:round;stroke-miterlimit:10;}
	.st12{fill:#CB7272;stroke:#1E247E;stroke-width:3;stroke-linecap:round;stroke-miterlimit:10;}
	.st13{fill:#D3D5E7;stroke:#1E247E;stroke-width:6;stroke-linecap:round;stroke-miterlimit:10;}
	.st14{fill:#D3D5E7;}
	.st15{fill:#FFFFFF;stroke:#1E247E;stroke-width:5;stroke-linecap:round;stroke-miterlimit:10;}
	.st16{fill:#FFFFFF;stroke:#1E247E;stroke-width:4;stroke-linecap:round;stroke-miterlimit:10;}
	.st17{fill:#ECECEE;}
	.st18{fill:#DA867D;stroke:#1E247E;stroke-width:4;stroke-linecap:round;stroke-miterlimit:10;}
	.st19{fill:#FCF5F2;stroke:#1E247E;stroke-width:4;stroke-linecap:round;stroke-miterlimit:10;}
	.st20{fill:#69AEF8;stroke:#1E247E;stroke-width:6;stroke-linecap:round;stroke-miterlimit:10;}
	.st21{opacity:0.4;fill:#FFFFFF;}
	.st22{opacity:0.7;fill:#FFFFFF;}
	.st23{fill:#69ADF7;stroke:#1E247E;stroke-width:2.5;stroke-linecap:round;stroke-miterlimit:10;}
	.st24{fill:none;stroke:#FFFFFF;stroke-width:7;stroke-linecap:round;stroke-miterlimit:10;}
	.st25{fill:#FFFFFF;stroke:#1E247E;stroke-width:6;stroke-linecap:round;stroke-miterlimit:10;}
	.st26{fill:#DBE7FE;}
	.st27{fill:#D3D5E7;stroke:#1E247E;stroke-width:5;stroke-linecap:round;stroke-miterlimit:10;}
	.st28{fill:#DD9796;stroke:#1E247E;stroke-width:3;stroke-linecap:round;stroke-miterlimit:10;}
	.st29{fill:#EECED1;stroke:#1E247E;stroke-width:2.5;stroke-linecap:round;stroke-miterlimit:10;}
	.st30{fill:#CB7272;stroke:#1E247E;stroke-width:2.5;stroke-linecap:round;stroke-miterlimit:10;}
	.st31{fill:#DBE7FE;stroke:#1E247E;stroke-width:5;stroke-linecap:round;stroke-miterlimit:10;}
	.st32{fill:#69AEF8;stroke:#1E247E;stroke-width:5;stroke-linecap:round;stroke-miterlimit:10;}
	.st33{fill:#DAE6FD;stroke:#1E247E;stroke-width:6;stroke-miterlimit:10;}
	.st34{fill:#FFFFFF;stroke:#1E247E;stroke-width:6;stroke-miterlimit:10;}
	.st35{opacity:0.69;fill:#FFFFFF;}
	.st36{opacity:0.95;fill:#FFFFFF;}
	.st37{fill:#DA867D;stroke:#1E247E;stroke-width:6;stroke-linecap:round;stroke-miterlimit:10;}
	.st38{fill:#F0C330;stroke:#1E247E;stroke-width:6;stroke-linecap:round;stroke-miterlimit:10;}
	.st39{fill:#1E247E;stroke:#1E247E;stroke-width:3;stroke-linecap:round;stroke-miterlimit:10;}
	.st40{fill:#FFFFFF;}
	.st41{fill:#DBE7FE;stroke:#1E247E;stroke-width:6;stroke-linecap:round;stroke-miterlimit:10;}
	.st42{fill:#F1F6FF;}
	.st43{fill:#F0C330;stroke:#1E247E;stroke-width:5;stroke-linecap:round;stroke-miterlimit:10;}
	.st44{fill:none;stroke:#1E247E;stroke-width:5;stroke-linecap:round;stroke-miterlimit:10;}
	.st45{fill:#79CAA1;stroke:#1E247E;stroke-width:5;stroke-linecap:round;stroke-miterlimit:10;}
	.st46{fill:#E09287;stroke:#1E247E;stroke-width:5;stroke-linecap:round;stroke-miterlimit:10;}
	.st47{fill:#DA867D;stroke:#1E247E;stroke-width:5;stroke-linecap:round;stroke-miterlimit:10;}
	.st48{fill:#69AEF8;stroke:#1E247E;stroke-width:5;stroke-miterlimit:10;}
	.st49{fill:#D2D4E6;stroke:#1E247E;stroke-width:5;stroke-linecap:round;stroke-miterlimit:10;}
	.st50{fill:#79CAA1;stroke:#1E247E;stroke-width:5;stroke-miterlimit:10;}
	.st51{fill:#F0C330;stroke:#1E247E;stroke-width:6;stroke-miterlimit:10;}
	.st52{fill:#EEEDF2;stroke:#FFFFFF;stroke-miterlimit:10;}
	.st53{opacity:0.3;fill:#A2655F;}
	.st54{fill:#79CAA1;stroke:#1E247E;stroke-width:4;stroke-linecap:round;stroke-miterlimit:10;}
	.st55{fill:#F0C330;stroke:#1E247E;stroke-width:4.5;stroke-linecap:round;stroke-miterlimit:10;}
	.st56{fill:#D2D4E6;}
	.st57{fill:#FFFFFF;stroke:#1E247E;stroke-width:5.7826;stroke-linejoin:round;stroke-miterlimit:10;}
	.st58{fill:#DA867D;stroke:#1E247E;stroke-width:5.7826;stroke-linejoin:round;stroke-miterlimit:10;}
	.st59{fill:none;stroke:#1E247E;stroke-width:2.8913;stroke-linecap:round;stroke-linejoin:round;stroke-miterlimit:10;}
	.st60{fill:none;stroke:#1E247E;stroke-width:2.4094;stroke-linecap:round;stroke-miterlimit:10;}
	.st61{fill:#EBEBED;}
	.st62{fill:#FBF2ED;stroke:#1E247E;stroke-width:4.5;stroke-linecap:round;stroke-miterlimit:10;}
	.st63{fill:#D3D5E7;stroke:#1E247E;stroke-width:4.5;stroke-linecap:round;stroke-miterlimit:10;}
	.st64{fill:none;stroke:#1E247E;stroke-width:2.5;stroke-linecap:round;stroke-miterlimit:10;}
	.st65{fill:#DA867D;stroke:#1E247E;stroke-width:4.5;stroke-linecap:round;stroke-miterlimit:10;}
	.st66{fill:none;stroke:#FFFFFF;stroke-width:4;stroke-linecap:round;stroke-linejoin:round;stroke-miterlimit:10;}
	.st67{fill:none;stroke:#FFFFFF;stroke-width:3;stroke-linecap:round;stroke-miterlimit:10;}
	.st68{fill:#79CAA1;stroke:#1E247E;stroke-width:6;stroke-linecap:round;stroke-miterlimit:10;}
	.st69{opacity:0.3;fill:#FFFFFF;}
	.st70{fill:none;stroke:#FFFFFF;stroke-width:6;stroke-linecap:round;stroke-miterlimit:10;}
	.st71{fill:#DBE7FE;stroke:#1E247E;stroke-width:6;stroke-miterlimit:10;}
	.st72{fill:#DA867D;stroke:#1E247E;stroke-width:5;stroke-miterlimit:10;}
	.st73{fill:#F5F5F7;stroke:#1E247E;stroke-width:5;stroke-miterlimit:10;}
	.st74{fill:#D5D6DE;stroke:#1E247E;stroke-width:5;stroke-miterlimit:10;}
	.st75{fill:#D3D5E7;stroke:#1E247E;stroke-width:3;stroke-linecap:round;stroke-miterlimit:10;}
	.st76{fill:#79CAA1;}
	.st77{fill:none;stroke:#1E247E;stroke-width:2.7;stroke-linecap:round;stroke-miterlimit:10;}
	.st78{fill:#69AEF8;}
</style><g><g id="Save"><circle class="st0" cx="256" cy="256" id="Background_7_" r="216"/><path class="st14" d="M420.4,271.8v183.4c0,8.6-7,15.6-15.6,15.6H133.7c-9.7,0-17.5-7.8-17.5-17.5V187.7     c0-11.6,9.4-21.1,21.1-21.1h186.8c6.7,0,13.1,2.6,17.9,7.2l62.5,60.4C414.7,244.1,420.4,257.7,420.4,271.8z" id="Shadow_24_"/><g id="Bottom_line_2_"><line class="st1" id="Right_23_" x1="444.5" x2="471.4" y1="471.3" y2="471.3"/><line class="st1" id="Middle_18_" x1="84.2" x2="431.1" y1="471.3" y2="471.3"/><line class="st1" id="Left_25_" x1="40.9" x2="69.2" y1="471.3" y2="471.3"/></g><g id="Floppy_disk"><path class="st25" d="M408.1,272.3v183.4c0,8.6-7,15.6-15.6,15.6H121.4c-9.7,0-17.5-7.8-17.5-17.5V188.2      c0-11.6,9.4-21.1,21.1-21.1h186.8c6.7,0,13.1,2.6,17.9,7.2l62.5,60.4C402.4,244.6,408.1,258.2,408.1,272.3z" id="Shape_34_"/><g id="Bottom_19_"><path class="st68" d="M351.9,471.3H160.1V333.6c0-4.9,4-8.8,8.8-8.8h174.1c4.9,0,8.8,4,8.8,8.8V471.3z" id="Shape_33_"/><path class="st69" d="M274.9,468.2h-37.7v-15.6c0-1.9,1.5-3.4,3.4-3.4h30.8c1.9,0,3.4,1.5,3.4,3.4V468.2z" id="Sticker"/><g id="Content_5_"><line class="st44" id="_x36_th" x1="193.8" x2="306.1" y1="435.4" y2="435.4"/><line class="st44" id="_x35_th" x1="230.6" x2="306" y1="410.9" y2="410.9"/><line class="st44" id="_x34_th_3_" x1="193.7" x2="212.7" y1="410.9" y2="410.9"/><line class="st44" id="_x33_rd_5_" x1="193.8" x2="306.1" y1="386.4" y2="386.4"/><line class="st44" id="_x32_nd_5_" x1="289.3" x2="306" y1="361.9" y2="361.9"/><line class="st44" id="_x31_st_5_" x1="193.7" x2="258.5" y1="361.9" y2="361.9"/></g></g><g id="Top_20_"><path class="st37" d="M298.5,248.9H170.3c-6.5,0-11.8-5.3-11.8-11.8v-70h151.8v70       C310.3,243.6,305,248.9,298.5,248.9z" id="Shape_32_"/><path class="st25" d="M282.4,234.4H266c-1.4,0-2.6-1.1-2.6-2.6v-48.2c0-1.4,1.1-2.6,2.6-2.6h16.4       c1.4,0,2.6,1.1,2.6,2.6v48.2C284.9,233.2,283.8,234.4,282.4,234.4z" id="Shutter_hole"/></g><g id="Verical_line"><line class="st4" id="Bottom_18_" x1="391.2" x2="391.2" y1="321.2" y2="327.2"/><line class="st4" id="Top_19_" x1="391.2" x2="391.2" y1="286.9" y2="315.4"/></g><g id="Lines_11_"><line class="st23" id="Bottom_17_" x1="177.2" x2="185.2" y1="282.3" y2="288.5"/><line class="st23" id="Middle_17_" x1="177.2" x2="193.2" y1="274.6" y2="286.9"/><line class="st23" id="Top_18_" x1="188.8" x2="193.2" y1="275.7" y2="279.1"/></g></g><g id="Arrows_1_"><path class="st41" d="M439.3,385.6h-14.6c-1.2,0-2.2-1-2.2-2.2v-24.1c0-1.2-1-2.2-2.2-2.2H396      c-1.2,0-2.2,1-2.2,2.2v24.1c0,1.2-1,2.2-2.2,2.2h-14.6c-1.8,0-2.8,2-1.9,3.5l22.2,34.4c5.1,7.9,16.7,7.9,21.8,0l22.2-34.4      C442.1,387.5,441.1,385.6,439.3,385.6z" id="Bottom_16_"/><path class="st14" d="M337.2,101.2h-14.6c-1.2,0-2.2-1-2.2-2.2V74.8c0-1.2-1-2.2-2.2-2.2H294c-1.2,0-2.2,1-2.2,2.2      V99c0,1.2-1,2.2-2.2,2.2h-14.6c-1.8,0-2.8,2-1.9,3.5l22.2,35.4c5.1,7.9,16.7,6.9,21.8-1l22.2-34.4      C340.1,103.2,339,101.2,337.2,101.2z" id="Top_17_"/><path class="st38" d="M135.1,159.5h-14.6c-1.2,0-2.2-1-2.2-2.2v-24.1c0-1.2-1-2.2-2.2-2.2H91.8      c-1.2,0-2.2,1-2.2,2.2v24.1c0,1.2-1,2.2-2.2,2.2H72.7c-1.8,0-2.8,2-1.9,3.5L93,197.4c5.1,7.9,16.7,7.9,21.8,0L137,163      C137.9,161.5,136.9,159.5,135.1,159.5z" id="Left_24_"/></g><g id="Loading"><line class="st70" x1="390.8" x2="390.8" y1="178.4" y2="188.1"/><line class="st70" x1="390.8" x2="390.8" y1="145.2" y2="154.7"/><line class="st70" x1="402.5" x2="413.2" y1="166.3" y2="166.3"/><line class="st70" x1="369.3" x2="379.2" y1="166.3" y2="166.3"/><line class="st70" x1="375.3" x2="383.1" y1="150.8" y2="157.6"/><line class="st70" x1="406.4" x2="398.5" y1="150.8" y2="157.6"/><line class="st70" x1="375.3" x2="382.9" y1="181.6" y2="174.9"/><line class="st70" x1="406.4" x2="399" y1="181.6" y2="175.2"/></g></g></g></svg>