<svg width="96px" height="96px" viewBox="-26.2 0 96 96" xmlns="http://www.w3.org/2000/svg"><g transform="translate(-570.791 -177.845)"><path d="M587.529,216.932s-.648-13.682,0-21.292,3.459-17.679,2.162-17.794-11.1,13.259-14.269,22.944,0,25.827,0,25.827Z" fill="#38373c"/><path d="M587.529,195.64c.106-1.242.27-2.551.464-3.87-1.881,1.247-5.242,6.92-7.256,10.814-2.351,4.544-.168,17.233-.168,17.233l1.878,1.18,5.082-4.065S586.881,203.25,587.529,195.64Z" fill="#ce783f"/><path d="M578.665,203.557c.865-7.148,10.02-25.007,10.02-25.007h0c-2.907,2.857-10.536,13.91-13.263,22.24-3.171,9.685,0,25.827,0,25.827l3.243-2.594S577.8,210.706,578.665,203.557Z" fill="#252428"/><path d="M580.737,264.55s1.7,8.014,3.864,8.878,7.989.116,7.989.116V260.919Z" fill="#a05132"/><path d="M592.59,207.517s-9.378-2.29-12.376-1.665-7.206,10.273-9.147,18.315c-1.475,6.113,3.382,11.725,4.535,14.778s3.459,24.351,4.382,26.224,7.077,3.538,8.611,3.122a21.988,21.988,0,0,0,4-1.873Z" fill="#38373c"/><path d="M583.644,265.069s3.6,4.151,5.041,4.324a27.156,27.156,0,0,0,3.905,0V263.34Z" fill="#252428"/><path d="M585.772,229.731c-.5-1.2-1.453-3.736-4.055-3.12a16.1,16.1,0,0,0-3.913,1.382.171.171,0,0,0,.036.313,1.843,1.843,0,0,1,1.04.646,5.62,5.62,0,0,0,2.771,2.236c1.024.356,2.489-.409,3.39-.408a1.95,1.95,0,0,1,1,.571.175.175,0,0,0,.276-.2C586.131,230.657,585.9,230.039,585.772,229.731Z" fill="#464549"/><ellipse cx="2.253" cy="2.323" rx="2.253" ry="2.323" transform="translate(579.81 226.584)" fill="#38373c"/><ellipse cx="1.36" cy="1.403" rx="1.36" ry="1.403" transform="translate(580.703 227.504)" fill="#252428"/><ellipse cx="0.42" cy="0.433" rx="0.42" ry="0.433" transform="translate(580.569 227.665)" fill="#fbfcfc"/><path d="M585.113,251.134c1.205-5.439,2.694-15.879,1.55-12.7-2.3,6.4-5.029,13.634-6.67,17.947a17.069,17.069,0,0,0-1.854,6.208c0,3.459,6.6,6.354,9.224,5.765a25.062,25.062,0,0,0,5.227-1.937v-16.28S588.236,250.536,585.113,251.134Z" fill="#ce783f"/><path d="M587.882,256.191a7.448,7.448,0,0,0,2.432,1.1l1.6-1.618-1.211-5.015-5.015.288v1.5Z" fill="#38373c"/><path d="M592.59,248.322s-6.957.481-7.821,2.594,3.113,5.275,3.113,5.275-2.306-3.931-1.384-4.064c4.208-.6,3.816,5.163,3.816,5.163a4.895,4.895,0,0,0,2.276.544Z" fill="#252428"/><path d="M582.063,223.735c.151.835,3.311,1.325,4.262,2.781s2.51-1.83,2.293-2.954-.909.692-1.428.778S581.945,223.081,582.063,223.735Z" fill="#ce783f"/><path d="M597.65,216.932s.649-13.682,0-21.292-3.459-17.679-2.162-17.794,11.1,13.259,14.269,22.944,0,25.827,0,25.827Z" fill="#38373c"/><path d="M597.65,195.64c-.106-1.242-.27-2.551-.464-3.87,1.881,1.247,5.242,6.92,7.256,10.814,2.352,4.544.168,17.233.168,17.233L602.732,221l-5.082-4.065S598.3,203.25,597.65,195.64Z" fill="#ce783f"/><path d="M606.514,203.557c-.864-7.148-10.02-25.007-10.02-25.007h0c2.907,2.857,10.536,13.91,13.263,22.24,3.171,9.685,0,25.827,0,25.827l-3.243-2.594S607.379,210.706,606.514,203.557Z" fill="#252428"/><path d="M604.442,264.55s-1.7,8.014-3.864,8.878-7.988.116-7.988.116V260.919Z" fill="#a05132"/><path d="M592.59,207.517s9.377-2.29,12.375-1.665,7.206,10.273,9.147,18.315c1.475,6.113-3.382,11.725-4.535,14.778s-3.459,24.351-4.381,26.224-7.078,3.538-8.612,3.122a21.966,21.966,0,0,1-3.994-1.873Z" fill="#38373c"/><path d="M601.535,265.069s-3.595,4.151-5.041,4.324a27.141,27.141,0,0,1-3.9,0V263.34Z" fill="#252428"/><path d="M599.407,229.731c.5-1.2,1.453-3.736,4.056-3.12a16.114,16.114,0,0,1,3.913,1.382.17.17,0,0,1-.037.313,1.846,1.846,0,0,0-1.04.646,5.616,5.616,0,0,1-2.77,2.236c-1.025.356-2.49-.409-3.391-.408a1.943,1.943,0,0,0-.995.571.175.175,0,0,1-.277-.2C599.048,230.657,599.278,230.039,599.407,229.731Z" fill="#464549"/><ellipse cx="2.253" cy="2.323" rx="2.253" ry="2.323" transform="translate(600.864 226.584)" fill="#38373c"/><ellipse cx="1.36" cy="1.403" rx="1.36" ry="1.403" transform="translate(601.756 227.504)" fill="#252428"/><ellipse cx="0.42" cy="0.433" rx="0.42" ry="0.433" transform="translate(603.77 227.665)" fill="#fbfcfc"/><path d="M600.066,251.134c-1.2-5.439-2.694-15.879-1.55-12.7,2.3,6.4,5.029,13.634,6.67,17.947a17.068,17.068,0,0,1,1.854,6.208c0,3.459-6.595,6.354-9.224,5.765a25.067,25.067,0,0,1-5.226-1.937v-16.28S596.943,250.536,600.066,251.134Z" fill="#ce783f"/><path d="M597.3,256.191a7.448,7.448,0,0,1-2.433,1.1l-1.6-1.618,1.211-5.015,5.015.288v1.5Z" fill="#38373c"/><path d="M592.59,248.322s6.956.481,7.821,2.594-3.113,5.275-3.113,5.275,2.305-3.931,1.383-4.064c-4.208-.6-3.816,5.163-3.816,5.163a4.888,4.888,0,0,1-2.275.544Z" fill="#252428"/><path d="M603.116,223.735c-.15.835-3.311,1.325-4.262,2.781s-2.509-1.83-2.292-2.954.909.692,1.427.778S603.234,223.081,603.116,223.735Z" fill="#ce783f"/></g></svg>
