<svg width="96px" height="96px" viewBox="0 -7.49 96 96" xmlns="http://www.w3.org/2000/svg"><g transform="translate(-416.104 -468.063)"><path d="M446.68,475.492s-5.354-3.79-10.159,3.231-18.168,10.3-20.2,19.93,11.028,24.064,10.511,29.91-4.574,12.344,0,12.057,12.828-11.822,12.442-18.992-3.5-20.79-1.944-25.046,9.352-10.838,9.352-10.838Z" fill="#232931"/><path d="M464.1,469.952s-16.955-5.9-20.581,3.154c-3.258,8.134-3.324,18.222-6.345,22.557s3.642,14.005,4.389,19.443-1.165,14.113,1.285,18.086,3.995,6.911,9.736,9.5S464.1,542.3,464.1,542.3Z" fill="#393e46"/><path d="M455.16,534.519c-1.374-3.763,4.528-19,2.4-20.017-3.79-1.813-9.2,14.2-11.318,13.9-1.422-.2-3.014-2.676-4.685-2.752-.027,2.985.076,5.818,1.294,7.542,7.464,10.561,3.995,12.241,9.736,14.833s11.516-.393,11.516-.393v-7.449S456.534,538.282,455.16,534.519Z" fill="#f7a747"/><path d="M464.1,531.452s-8.944-.958-8.944,3.067,5.047,8.049,8.944,8.049Z" fill="#232931"/><path d="M459.632,539.31s-3.514-3.258-1.214-3.45S463.423,541.463,459.632,539.31Z" fill="#393e46"/><path d="M453.264,505.368c-.656-1.569-1.9-4.9-5.314-4.088a21.158,21.158,0,0,0-5.128,1.811.224.224,0,0,0,.048.41,2.423,2.423,0,0,1,1.363.846,7.354,7.354,0,0,0,3.63,2.931c1.343.466,3.262-.537,4.443-.535a2.55,2.55,0,0,1,1.3.748.229.229,0,0,0,.363-.259C453.734,506.582,453.433,505.772,453.264,505.368Z" fill="#fff"/><ellipse cx="2.952" cy="3.044" rx="2.952" ry="3.044" transform="translate(445.452 501.244)" fill="#393e46"/><ellipse cx="1.782" cy="1.838" rx="1.782" ry="1.838" transform="translate(446.621 502.45)" fill="#232931"/><ellipse cx="0.55" cy="0.567" rx="0.55" ry="0.567" transform="translate(446.446 502.661)" fill="#fbfcfc"/><path d="M456.3,490.727c-2.184-1.808-5.606,2.7-4.793,3.9s3.679,1.431,4.793,4.1,2.932,4,2.58.31S457.453,491.678,456.3,490.727Z" fill="#f7a747"/><path d="M481.528,475.492s5.353-3.79,10.158,3.231,18.168,10.3,20.2,19.93-11.028,24.064-10.511,29.91,4.575,12.344,0,12.057S488.55,528.8,488.935,521.628s3.5-20.79,1.945-25.046-9.352-10.838-9.352-10.838Z" fill="#232931"/><path d="M464.1,469.952s16.954-5.9,20.58,3.154c3.258,8.134,3.324,18.222,6.346,22.557s-3.642,14.005-4.39,19.443,1.166,14.113-1.285,18.086-3.994,6.911-9.736,9.5S464.1,542.3,464.1,542.3Z" fill="#393e46"/><path d="M473.048,534.519c1.374-3.763-4.528-19-2.4-20.017,3.79-1.813,9.2,14.2,11.319,13.9,1.421-.2,3.013-2.676,4.685-2.752.027,2.985-.077,5.818-1.295,7.542-7.463,10.561-3.994,12.241-9.736,14.833s-11.515-.393-11.515-.393v-7.449S471.674,538.282,473.048,534.519Z" fill="#f7a747"/><path d="M464.1,531.452s8.944-.958,8.944,3.067-5.047,8.049-8.944,8.049Z" fill="#232931"/><path d="M468.576,539.31s3.514-3.258,1.214-3.45S464.785,541.463,468.576,539.31Z" fill="#393e46"/><path d="M474.943,505.368c.657-1.569,1.9-4.9,5.315-4.088a21.162,21.162,0,0,1,5.127,1.811.223.223,0,0,1-.048.41,2.426,2.426,0,0,0-1.363.846,7.349,7.349,0,0,1-3.63,2.931c-1.342.466-3.262-.537-4.442-.535a2.552,2.552,0,0,0-1.305.748.229.229,0,0,1-.362-.259C474.473,506.582,474.775,505.772,474.943,505.368Z" fill="#fff"/><ellipse cx="2.952" cy="3.044" rx="2.952" ry="3.044" transform="translate(476.852 501.244)" fill="#393e46"/><ellipse cx="1.782" cy="1.838" rx="1.782" ry="1.838" transform="translate(478.022 502.45)" fill="#232931"/><ellipse cx="0.55" cy="0.567" rx="0.55" ry="0.567" transform="translate(480.661 502.661)" fill="#fbfcfc"/><path d="M471.9,490.727c2.183-1.808,5.6,2.7,4.792,3.9s-3.678,1.431-4.792,4.1-2.932,4-2.581.31S470.755,491.678,471.9,490.727Z" fill="#f7a747"/></g></svg>
