<svg width="96px" height="96px" viewBox="0 -16.98 96 96" xmlns="http://www.w3.org/2000/svg"><g transform="translate(-672.519 -334.688)"><path d="M720.519,334.688s-19.206.9-23.283,4.466-11.211,21.934-9.988,30.281,21.086,12,33.271,12Z" fill="#38373c"/><path d="M703.815,368.455a4.929,4.929,0,0,1-.632-.041,5.61,5.61,0,0,1-4.663-4.952c0-1.01,1.764-4.961,5.287-4.961,3.62,0,5.86,3.65,6.656,5.219a1.551,1.551,0,0,1,.088,1.5,1.417,1.417,0,0,1-1.267.571s-.576-.012-.6-.011c-.12.1-.357.333-.48.454A6.284,6.284,0,0,1,703.815,368.455Z" fill="#252428"/><path d="M709.694,364.114c-.294-.578-2.4-4.749-5.887-4.749-2.917,0-3.9,3.444-3.9,4.1s.429,3.719,3.389,4.1,4.481-2.55,5.2-2.631S710.254,365.218,709.694,364.114Z" fill="#fff"/><ellipse cx="3.972" cy="4.096" rx="3.972" ry="4.096" transform="translate(699.899 359.365)" fill="#38373c"/><ellipse cx="2.398" cy="2.473" rx="2.398" ry="2.473" transform="translate(701.473 360.988)" fill="#252428"/><ellipse cx="0.74" cy="0.763" rx="0.74" ry="0.763" transform="translate(701.237 361.271)" fill="#fbfcfc"/><path d="M715.022,362.608s-6.575,1.586-9.021,5.463-1.807,10.85,3.057,13.365c2.992,1.546,11.461,2.545,11.461,2.545V362.608Z" fill="#f5f1db"/><path d="M720.519,366.55s.056,8.174-1.88,9.794-4.607.926-6.074,0-4.73-2.661-4.73-1.967,4.836,3.124,6.342,4.282,3.227,2.777,6.342,2.777Z" fill="#38373c"/><path d="M712.116,346.028c3.465,6.711,4.668,18,4.668,18h3.735V334.688a125.148,125.148,0,0,0-16.325,1.9A32.583,32.583,0,0,1,712.116,346.028Z" fill="#f5f1db"/><path d="M720.519,359.605s-3.293.52-4.515,1.676-1.528,2.37-.51,2.833,2.546.347,3.208,1.619.832,1.618,1.817,1.618Z" fill="#38373c"/><path d="M718.855,363.478c-.2-.694-1.884-1.792-2.444-1.33s1.064,1.564,1.166,1.911c.036.123.119.439.209.793a2.013,2.013,0,0,1,.916.881c.174.334.313.6.443.817A22.026,22.026,0,0,0,718.855,363.478Z" fill="#252428"/><path d="M687.248,369.435c.383,2.614,2.594,4.767,5.824,6.493.325-3.548,1.937-9.051,1.514-11.224-.51-2.614-.815-6.642-.815-6.642a29.759,29.759,0,0,1,1.381,4.736,30.252,30.252,0,0,0-.126-7.838c.643,3.263,1.089,3.68,1.089,3.68s-.6-7.47.713-12.034,2.854-6.034,2.854-6.034l-2.252-1.567c-.064.05-.136.1-.194.149C693.159,342.723,686.025,361.087,687.248,369.435Z" fill="#252428"/><path d="M720.519,377.82s-3.566-.219-3.264,1.564c.22,1.3.235,3.928,3.264,3.928Z" fill="#f37777"/><path d="M691.969,341.143c-.687.529-1.443,1.118-2.231,1.749v0a4.361,4.361,0,0,1-4.2.657,2.5,2.5,0,0,0,1.514,1.6l-.168.149a7.572,7.572,0,0,0-4.429,2.073,2.893,2.893,0,0,1,2.448-.221s-2.068,1.682-3.829.612a2.3,2.3,0,0,0,1.534,1.864c-.089.105-.175.212-.262.318a5.822,5.822,0,0,0-3.221,2.172c-1.743,2.332-3.54,2.435-3.271,5.484,0-.306.116-1.424,1.748-1.915a6.585,6.585,0,0,0,1.49-.672l-.009.018a10.368,10.368,0,0,0-2.033,2.511,12.214,12.214,0,0,0-1.446,4.283,5.9,5.9,0,0,1,.816-1.093,13.577,13.577,0,0,0-1.068,4.553,11.835,11.835,0,0,0,.643,5.262c-.027.165-.047.328-.077.492-.88,4.849-3.4,6.42-3.4,6.42a9.94,9.94,0,0,0,5.131-4.716,16.816,16.816,0,0,0-.6,9.856,16.748,16.748,0,0,1,2.094-6.154c.026.193.051.391.078.586a32.544,32.544,0,0,0-.915,6.71c0,3.569-1.41,5.854-.7,9.566,0,0,1.328-4.345,1.963-5.854.041-.1.077-.212.115-.318a10.693,10.693,0,0,0,.891,4.03c2.012,4.712,1.383,5.568,1.383,5.568a5.455,5.455,0,0,0,1.132-4.252,5.5,5.5,0,0,1,1.069-3.967c.135-.087.275-.207.413-.313-.019.752-.129,3.454-.727,4.28,0,0,2.675-1.826,3.349-7.21a3.3,3.3,0,0,0,1.454,2.467,26.606,26.606,0,0,1,.824-6.467c0-.018-.007-.035-.011-.053.052-.111.1-.22.155-.333l-.038.1c-.038.091-.072.191-.106.289a45.086,45.086,0,0,1,.409,7.789c2.515-4.533.847-10.959.847-10.959l0,.008c.022-.065.045-.126.067-.193a19.641,19.641,0,0,0,1.816,5.968,19.291,19.291,0,0,1-.085-5.426,16.193,16.193,0,0,0,.041-2.763,1.288,1.288,0,0,0,.66.336c-1.185-1.642,0-8.862,0-8.862h0c1.8-10.421,2.986-22.686,3.45-23.739.67-1.523,3.018-2.856,3.018-2.856v-2.58S696.664,337.526,691.969,341.143Zm-15.992,25.081a3.983,3.983,0,0,1,.7-1.52c-.156,1.567-.3,3.209-.538,4.887A9.1,9.1,0,0,1,675.977,366.224Z" fill="#38373c"/><path d="M675.851,357.681c0-.031,0-.053,0-.084C675.849,357.648,675.851,357.681,675.851,357.681Z" fill="#38373c"/><path d="M682.451,347.368a1.732,1.732,0,0,0-.312.248C682.247,347.519,682.345,347.456,682.451,347.368Z" fill="#38373c"/><path d="M693.618,341.8a6.179,6.179,0,0,0-1.585,1.366,15.87,15.87,0,0,0-1.333,1.679c-.851,1.163-1.5,2.473-2.441,3.665a10.462,10.462,0,0,1-3.348,2.713,10.065,10.065,0,0,1-3.931,1.165,14.97,14.97,0,0,0,3.712-1.66,12.329,12.329,0,0,0,3.1-2.708c.872-1.062,1.581-2.432,2.539-3.536A8.19,8.19,0,0,1,693.618,341.8Z" fill="#4d4c51"/><path d="M691.853,345.369a9.543,9.543,0,0,0-1.837,1.929,19.574,19.574,0,0,0-1.5,2.27c-.452.794-.884,1.6-1.286,2.434-.386.826-.768,1.708-1.242,2.529a15.942,15.942,0,0,1-3.575,4.168,14.416,14.416,0,0,1-4.544,2.572,20.318,20.318,0,0,0,4.247-3.012,17.007,17.007,0,0,0,3.345-4.126c.895-1.532,1.606-3.363,2.657-4.881A11.623,11.623,0,0,1,691.853,345.369Z" fill="#252428"/><path d="M691.172,368.646a10.547,10.547,0,0,0-1.242,2.466,21.19,21.19,0,0,0-.829,2.675c-.222.912-.42,1.832-.584,2.76s-.282,1.89-.516,2.836a17.707,17.707,0,0,1-2.31,5.193,16.082,16.082,0,0,1-3.654,4,22.777,22.777,0,0,0,3.255-4.32,18.785,18.785,0,0,0,2.1-5.074c.449-1.767.644-3.756,1.246-5.562A12.908,12.908,0,0,1,691.172,368.646Z" fill="#252428"/><path d="M693.091,351.246a9.515,9.515,0,0,0-1.837,1.929,19.7,19.7,0,0,0-1.5,2.27c-.452.794-.884,1.6-1.286,2.433-.385.826-.768,1.708-1.241,2.53a15.976,15.976,0,0,1-3.576,4.167,14.4,14.4,0,0,1-4.543,2.573,20.374,20.374,0,0,0,4.247-3.013,17.023,17.023,0,0,0,3.344-4.125c.9-1.532,1.606-3.363,2.658-4.882A11.616,11.616,0,0,1,693.091,351.246Z" fill="#252428"/><path d="M695.56,340.641A15,15,0,0,0,693,345.188c-.316.828-.613,1.666-.879,2.518-.25.845-.49,1.745-.825,2.6a16.125,16.125,0,0,1-2.807,4.556,14.466,14.466,0,0,1-3.94,3.213,20.909,20.909,0,0,0,3.585-3.593,17.208,17.208,0,0,0,2.585-4.471c.635-1.6,1.057-3.451,1.844-5.065A11.714,11.714,0,0,1,695.56,340.641Z" fill="#4d4c51"/><path d="M694.218,351.862a16.061,16.061,0,0,0-1.5,5.121c-.128.891-.235,1.786-.309,2.686s-.1,1.828-.239,2.753a17.32,17.32,0,0,1-1.74,5.2,15.849,15.849,0,0,1-3.127,4.209,22.824,22.824,0,0,0,2.7-4.479,18.414,18.414,0,0,0,1.543-5.054c.271-1.725.281-3.639.7-5.423A12.647,12.647,0,0,1,694.218,351.862Z" fill="#252428"/><path d="M684.853,352.392a6.457,6.457,0,0,0-2.1,1.451,15.627,15.627,0,0,0-1.692,2.014,14.168,14.168,0,0,1-1.773,2.092,5.358,5.358,0,0,1-2.229,1.416,9.3,9.3,0,0,0,1.895-1.819c.565-.687,1.091-1.4,1.616-2.144a9.53,9.53,0,0,1,1.89-2A4.272,4.272,0,0,1,684.853,352.392Z" fill="#252428"/><path d="M685.712,375.519a7.31,7.31,0,0,0-1.549,2.17,17.578,17.578,0,0,0-1,2.544,15.855,15.855,0,0,1-1.048,2.648,6.078,6.078,0,0,1-1.679,2.185,10.494,10.494,0,0,0,1.245-2.437c.329-.863.611-1.736.885-2.637a10.718,10.718,0,0,1,1.187-2.6A4.786,4.786,0,0,1,685.712,375.519Z" fill="#252428"/><path d="M685.565,367.593a7.4,7.4,0,0,0-1.482,2.229,17.692,17.692,0,0,0-.918,2.582,16.1,16.1,0,0,1-.968,2.687,6.146,6.146,0,0,1-1.611,2.249,10.574,10.574,0,0,0,1.169-2.484c.3-.875.559-1.759.8-2.67a10.851,10.851,0,0,1,1.107-2.648A4.847,4.847,0,0,1,685.565,367.593Z" fill="#252428"/><path d="M687.91,356.326a11.156,11.156,0,0,1-1.648,3.264,11.951,11.951,0,0,1-2.453,2.59,34.016,34.016,0,0,1-2.873,1.849,14.925,14.925,0,0,0-2.695,2.066,8.669,8.669,0,0,1,2.4-2.608c.928-.725,1.949-1.207,2.824-1.885A15.412,15.412,0,0,0,687.91,356.326Z" fill="#4d4c51"/><path d="M686.1,358.078a30.055,30.055,0,0,0-3.83,2.661,17.559,17.559,0,0,0-1.693,1.62,17.124,17.124,0,0,0-1.467,1.935,8.525,8.525,0,0,1,2.783-4.134,10.543,10.543,0,0,1,2.007-1.313A8.126,8.126,0,0,1,686.1,358.078Z" fill="#252428"/><path d="M687.84,372.985a30.384,30.384,0,0,0-3.77,2.772,17.625,17.625,0,0,0-1.655,1.669,17.15,17.15,0,0,0-1.424,1.977,8.6,8.6,0,0,1,2.69-4.214,10.575,10.575,0,0,1,1.977-1.37A8.166,8.166,0,0,1,687.84,372.985Z" fill="#252428"/><path d="M686.1,364.7a35.732,35.732,0,0,0-5.162,3.14,22.257,22.257,0,0,0-2.3,2,18.089,18.089,0,0,0-1.961,2.465,10.256,10.256,0,0,1,1.616-2.856,13.341,13.341,0,0,1,2.294-2.211,15.174,15.174,0,0,1,2.654-1.579A12.149,12.149,0,0,1,686.1,364.7Z" fill="#252428"/><path d="M684.816,371.829a42.529,42.529,0,0,0-3.344,5.458,26.17,26.17,0,0,0-1.249,2.969,20.718,20.718,0,0,0-.761,3.207,11.289,11.289,0,0,1,.3-3.378,15.662,15.662,0,0,1,1.161-3.152,18.036,18.036,0,0,1,1.734-2.775A14.238,14.238,0,0,1,684.816,371.829Z" fill="#4d4c51"/><path d="M693.849,346.5a17.165,17.165,0,0,1-.066,3.384,20.008,20.008,0,0,1-.646,3.322,15.42,15.42,0,0,1-1.277,3.093,9.7,9.7,0,0,1-2,2.52,19.142,19.142,0,0,0,1.581-2.8,26.492,26.492,0,0,0,1.1-3.044A46.874,46.874,0,0,0,693.849,346.5Z" fill="#4d4c51"/><path d="M691.472,364.7a17.062,17.062,0,0,1,.369,3.358,20.316,20.316,0,0,1-.212,3.394,15.965,15.965,0,0,1-.865,3.272,10.176,10.176,0,0,1-1.659,2.824,19.886,19.886,0,0,0,1.205-3.026,27.509,27.509,0,0,0,.7-3.194A47.527,47.527,0,0,0,691.472,364.7Z" fill="#4d4c51"/><path d="M689.1,357.871a17.091,17.091,0,0,1-.066,3.384,20.008,20.008,0,0,1-.646,3.322,15.423,15.423,0,0,1-1.277,3.093,9.678,9.678,0,0,1-2,2.52,19.14,19.14,0,0,0,1.581-2.8,26.492,26.492,0,0,0,1.1-3.044A46.693,46.693,0,0,0,689.1,357.871Z" fill="#252428"/><path d="M685.978,376.953a16.913,16.913,0,0,1-.58,3.32,19.266,19.266,0,0,1-1.141,3.146,14.673,14.673,0,0,1-1.727,2.8,9.057,9.057,0,0,1-2.357,2.089,17.943,17.943,0,0,0,1.982-2.443,25.482,25.482,0,0,0,1.544-2.783A45.255,45.255,0,0,0,685.978,376.953Z" fill="#4d4c51"/><path d="M683.617,370.241a10.528,10.528,0,0,1,.869-4.222,6.452,6.452,0,0,1,2.612-3.159,15.4,15.4,0,0,0-1.146,1.668c-.321.592-.633,1.183-.9,1.809C684.511,367.584,684.075,368.887,683.617,370.241Z" fill="#252428"/><path d="M678.241,376.985a10.533,10.533,0,0,1,.869-4.222,6.456,6.456,0,0,1,2.612-3.159,15.519,15.519,0,0,0-1.146,1.669c-.321.592-.633,1.182-.9,1.808C679.135,374.328,678.7,375.632,678.241,376.985Z" fill="#4d4c51"/><path d="M689.592,349.846a7.73,7.73,0,0,1-.892,2.362,12.115,12.115,0,0,1-1.41,2.021,13.009,13.009,0,0,1-1.723,1.666,11.292,11.292,0,0,1-1.95,1.283c1.1-1.167,2.2-2.259,3.219-3.451.513-.589,1-1.207,1.469-1.841A17.154,17.154,0,0,0,689.592,349.846Z" fill="#252428"/><path d="M690.207,361.675a8.031,8.031,0,0,1-.467,2.514,12.886,12.886,0,0,1-1.034,2.3,14.06,14.06,0,0,1-1.4,2.017,12.29,12.29,0,0,1-1.691,1.692c.877-1.389,1.769-2.7,2.56-4.1.4-.691.77-1.4,1.123-2.131A18.244,18.244,0,0,0,690.207,361.675Z" fill="#4d4c51"/><path d="M720.519,334.688s19.206.9,23.283,4.466,11.211,21.934,9.988,30.281-21.086,12-33.271,12Z" fill="#38373c"/><path d="M737.223,368.455a4.939,4.939,0,0,0,.632-.041,5.609,5.609,0,0,0,4.662-4.952c0-1.01-1.763-4.961-5.287-4.961-3.619,0-5.86,3.65-6.655,5.219a1.548,1.548,0,0,0-.088,1.5,1.415,1.415,0,0,0,1.266.571s.576-.012.6-.011c.12.1.358.333.481.454A6.282,6.282,0,0,0,737.223,368.455Z" fill="#252428"/><path d="M731.344,364.114c.293-.578,2.4-4.749,5.886-4.749,2.918,0,3.9,3.444,3.9,4.1s-.428,3.719-3.389,4.1-4.481-2.55-5.2-2.631S730.784,365.218,731.344,364.114Z" fill="#fff"/><ellipse cx="3.972" cy="4.096" rx="3.972" ry="4.096" transform="translate(733.195 359.365)" fill="#38373c"/><ellipse cx="2.398" cy="2.473" rx="2.398" ry="2.473" transform="translate(734.768 360.988)" fill="#252428"/><ellipse cx="0.74" cy="0.763" rx="0.74" ry="0.763" transform="translate(738.32 361.271)" fill="#fbfcfc"/><path d="M726.015,362.608s6.576,1.586,9.022,5.463,1.807,10.85-3.058,13.365c-2.991,1.546-11.46,2.545-11.46,2.545V362.608Z" fill="#f5f1db"/><path d="M720.519,366.55s-.057,8.174,1.88,9.794,4.606.926,6.074,0,4.729-2.661,4.729-1.967-4.836,3.124-6.342,4.282-3.227,2.777-6.341,2.777Z" fill="#38373c"/><path d="M728.922,346.028c-3.466,6.711-4.668,18-4.668,18h-3.735V334.688a125.166,125.166,0,0,1,16.325,1.9A32.551,32.551,0,0,0,728.922,346.028Z" fill="#f5f1db"/><path d="M720.519,359.605s3.293.52,4.515,1.676,1.528,2.37.509,2.833-2.546.347-3.208,1.619-.832,1.618-1.816,1.618Z" fill="#38373c"/><path d="M722.182,363.478c.2-.694,1.884-1.792,2.445-1.33s-1.065,1.564-1.167,1.911c-.036.123-.118.439-.209.793a2.017,2.017,0,0,0-.916.881c-.174.334-.313.6-.443.817A22.167,22.167,0,0,1,722.182,363.478Z" fill="#252428"/><path d="M753.79,369.435c-.383,2.614-2.594,4.767-5.824,6.493-.325-3.548-1.938-9.051-1.515-11.224.51-2.614.816-6.642.816-6.642a29.686,29.686,0,0,0-1.382,4.736,30.221,30.221,0,0,1,.127-7.838c-.644,3.263-1.089,3.68-1.089,3.68s.6-7.47-.714-12.034-2.853-6.034-2.853-6.034l2.251-1.567c.065.05.136.1.2.149C747.878,342.723,755.013,361.087,753.79,369.435Z" fill="#252428"/><path d="M720.519,377.82s3.565-.219,3.263,1.564c-.219,1.3-.235,3.928-3.263,3.928Z" fill="#f37777"/><path d="M741.356,337.992v2.58s2.347,1.333,3.018,2.856c.464,1.053,1.651,13.318,3.449,23.739h0s1.186,7.22,0,8.862a1.292,1.292,0,0,0,.661-.336,16.1,16.1,0,0,0,.041,2.763,19.34,19.34,0,0,1-.085,5.426,19.641,19.641,0,0,0,1.816-5.968c.022.067.044.128.066.193l0-.008s-1.669,6.426.846,10.959a45.141,45.141,0,0,1,.41-7.789c-.035-.1-.069-.2-.106-.289l-.039-.1c.051.113.1.222.155.333,0,.018-.007.035-.01.053a26.587,26.587,0,0,1,.823,6.467,3.294,3.294,0,0,0,1.454-2.467c.675,5.384,3.35,7.21,3.35,7.21-.6-.826-.708-3.528-.727-4.28.138.106.277.226.413.313a5.5,5.5,0,0,1,1.068,3.967,5.455,5.455,0,0,0,1.132,4.252s-.629-.856,1.383-5.568a10.674,10.674,0,0,0,.891-4.03c.039.106.075.222.115.318.635,1.509,1.963,5.854,1.963,5.854.7-3.712-.705-6-.705-9.566a32.621,32.621,0,0,0-.914-6.71c.026-.2.051-.393.078-.586a16.756,16.756,0,0,1,2.093,6.154,16.8,16.8,0,0,0-.6-9.856,9.94,9.94,0,0,0,5.132,4.716s-2.515-1.571-3.4-6.42c-.03-.164-.049-.327-.077-.492a11.837,11.837,0,0,0,.643-5.262,13.578,13.578,0,0,0-1.068-4.553,5.936,5.936,0,0,1,.817,1.093,12.229,12.229,0,0,0-1.447-4.283,10.345,10.345,0,0,0-2.033-2.511l-.009-.018a6.605,6.605,0,0,0,1.49.672c1.633.491,1.748,1.609,1.749,1.915.269-3.049-1.529-3.152-3.271-5.484a5.823,5.823,0,0,0-3.222-2.172c-.087-.106-.173-.213-.262-.318a2.3,2.3,0,0,0,1.534-1.864c-1.76,1.07-3.829-.612-3.829-.612a2.9,2.9,0,0,1,2.449.221,7.577,7.577,0,0,0-4.43-2.073l-.168-.149a2.494,2.494,0,0,0,1.514-1.6,4.362,4.362,0,0,1-4.2-.657v0c-.787-.631-1.543-1.22-2.23-1.749C744.374,337.526,741.356,337.992,741.356,337.992Zm23.542,31.6c-.239-1.678-.383-3.32-.539-4.887a3.967,3.967,0,0,1,.7,1.52A9.1,9.1,0,0,1,764.9,369.591Z" fill="#38373c"/><path d="M765.186,357.681c0-.031,0-.053,0-.084C765.188,357.648,765.186,357.681,765.186,357.681Z" fill="#38373c"/><path d="M758.587,347.368a1.7,1.7,0,0,1,.311.248C758.79,347.519,758.693,347.456,758.587,347.368Z" fill="#38373c"/><path d="M747.42,341.8a6.212,6.212,0,0,1,1.585,1.366,15.861,15.861,0,0,1,1.332,1.679c.852,1.163,1.5,2.473,2.442,3.665a10.451,10.451,0,0,0,3.348,2.713,10.06,10.06,0,0,0,3.931,1.165,14.954,14.954,0,0,1-3.712-1.66,12.351,12.351,0,0,1-3.1-2.708c-.872-1.062-1.581-2.432-2.539-3.536A8.186,8.186,0,0,0,747.42,341.8Z" fill="#4d4c51"/><path d="M749.185,345.369a9.542,9.542,0,0,1,1.837,1.929,19.559,19.559,0,0,1,1.5,2.27q.68,1.191,1.287,2.434c.385.826.768,1.708,1.241,2.529a15.964,15.964,0,0,0,3.576,4.168,14.4,14.4,0,0,0,4.543,2.572,20.343,20.343,0,0,1-4.247-3.012,17.028,17.028,0,0,1-3.344-4.126c-.9-1.532-1.606-3.363-2.658-4.881A11.62,11.62,0,0,0,749.185,345.369Z" fill="#252428"/><path d="M749.866,368.646a10.626,10.626,0,0,1,1.242,2.466,21.524,21.524,0,0,1,.829,2.675c.222.912.419,1.832.584,2.76.149.919.281,1.89.516,2.836a17.683,17.683,0,0,0,2.31,5.193,16.084,16.084,0,0,0,3.654,4,22.826,22.826,0,0,1-3.256-4.32,18.847,18.847,0,0,1-2.1-5.074c-.449-1.767-.643-3.756-1.245-5.562A12.937,12.937,0,0,0,749.866,368.646Z" fill="#252428"/><path d="M747.946,351.246a9.515,9.515,0,0,1,1.837,1.929,19.574,19.574,0,0,1,1.5,2.27c.452.794.884,1.6,1.286,2.433.386.826.768,1.708,1.242,2.53a15.973,15.973,0,0,0,3.575,4.167,14.42,14.42,0,0,0,4.544,2.573,20.349,20.349,0,0,1-4.247-3.013,17,17,0,0,1-3.345-4.125c-.9-1.532-1.606-3.363-2.657-4.882A11.62,11.62,0,0,0,747.946,351.246Z" fill="#252428"/><path d="M745.478,340.641a15.017,15.017,0,0,1,2.561,4.547c.317.828.613,1.666.879,2.518.25.845.491,1.745.825,2.6a16.127,16.127,0,0,0,2.808,4.556,14.461,14.461,0,0,0,3.939,3.213,20.866,20.866,0,0,1-3.584-3.593,17.241,17.241,0,0,1-2.586-4.471c-.635-1.6-1.056-3.451-1.843-5.065A11.714,11.714,0,0,0,745.478,340.641Z" fill="#4d4c51"/><path d="M746.82,351.862a16.059,16.059,0,0,1,1.5,5.121c.128.891.235,1.786.309,2.686s.1,1.828.239,2.753a17.318,17.318,0,0,0,1.74,5.2,15.85,15.85,0,0,0,3.128,4.209,22.829,22.829,0,0,1-2.7-4.479,18.445,18.445,0,0,1-1.542-5.054c-.272-1.725-.281-3.639-.7-5.423A12.678,12.678,0,0,0,746.82,351.862Z" fill="#252428"/><path d="M756.185,352.392a6.443,6.443,0,0,1,2.1,1.451,15.713,15.713,0,0,1,1.693,2.014,14.116,14.116,0,0,0,1.773,2.092,5.362,5.362,0,0,0,2.228,1.416,9.292,9.292,0,0,1-1.894-1.819c-.566-.687-1.091-1.4-1.616-2.144a9.557,9.557,0,0,0-1.89-2A4.275,4.275,0,0,0,756.185,352.392Z" fill="#252428"/><path d="M755.326,375.519a7.328,7.328,0,0,1,1.549,2.17,17.574,17.574,0,0,1,1,2.544,15.865,15.865,0,0,0,1.049,2.648,6.076,6.076,0,0,0,1.678,2.185,10.488,10.488,0,0,1-1.244-2.437c-.329-.863-.612-1.736-.886-2.637a10.715,10.715,0,0,0-1.186-2.6A4.791,4.791,0,0,0,755.326,375.519Z" fill="#252428"/><path d="M755.472,367.593a7.4,7.4,0,0,1,1.482,2.229,17.688,17.688,0,0,1,.919,2.582,16,16,0,0,0,.967,2.687,6.148,6.148,0,0,0,1.612,2.249,10.616,10.616,0,0,1-1.17-2.484c-.3-.875-.559-1.759-.8-2.67a10.772,10.772,0,0,0-1.107-2.648A4.847,4.847,0,0,0,755.472,367.593Z" fill="#252428"/><path d="M753.127,356.326a11.184,11.184,0,0,0,1.649,3.264,11.945,11.945,0,0,0,2.452,2.59c.933.742,1.945,1.245,2.874,1.849a14.96,14.96,0,0,1,2.7,2.066,8.686,8.686,0,0,0-2.4-2.608c-.928-.725-1.948-1.207-2.823-1.885A15.4,15.4,0,0,1,753.127,356.326Z" fill="#4d4c51"/><path d="M754.937,358.078a30.062,30.062,0,0,1,3.831,2.661,17.557,17.557,0,0,1,1.692,1.62,17.137,17.137,0,0,1,1.468,1.935,8.534,8.534,0,0,0-2.784-4.134,10.512,10.512,0,0,0-2.007-1.313A8.1,8.1,0,0,0,754.937,358.078Z" fill="#252428"/><path d="M753.2,372.985a30.3,30.3,0,0,1,3.769,2.772,17.635,17.635,0,0,1,1.656,1.669,17.27,17.27,0,0,1,1.423,1.977,8.6,8.6,0,0,0-2.689-4.214,10.611,10.611,0,0,0-1.977-1.37A8.166,8.166,0,0,0,753.2,372.985Z" fill="#252428"/><path d="M754.937,364.7a35.736,35.736,0,0,1,5.163,3.14,22.353,22.353,0,0,1,2.3,2,18.154,18.154,0,0,1,1.96,2.465,10.277,10.277,0,0,0-1.615-2.856,13.311,13.311,0,0,0-2.3-2.211,15.136,15.136,0,0,0-2.654-1.579A12.149,12.149,0,0,0,754.937,364.7Z" fill="#252428"/><path d="M756.221,371.829a42.529,42.529,0,0,1,3.345,5.458,26.165,26.165,0,0,1,1.248,2.969,20.6,20.6,0,0,1,.762,3.207,11.322,11.322,0,0,0-.3-3.378,15.6,15.6,0,0,0-1.161-3.152,18.026,18.026,0,0,0-1.733-2.775A14.2,14.2,0,0,0,756.221,371.829Z" fill="#4d4c51"/><path d="M747.188,346.5a17.17,17.17,0,0,0,.067,3.384,20,20,0,0,0,.646,3.322,15.477,15.477,0,0,0,1.276,3.093,9.719,9.719,0,0,0,2,2.52,19.13,19.13,0,0,1-1.58-2.8,26.493,26.493,0,0,1-1.1-3.044A46.732,46.732,0,0,1,747.188,346.5Z" fill="#4d4c51"/><path d="M749.566,364.7a17.141,17.141,0,0,0-.37,3.358,20.309,20.309,0,0,0,.212,3.394,15.967,15.967,0,0,0,.866,3.272,10.174,10.174,0,0,0,1.658,2.824,19.982,19.982,0,0,1-1.2-3.026,27.3,27.3,0,0,1-.7-3.194A47.37,47.37,0,0,1,749.566,364.7Z" fill="#4d4c51"/><path d="M751.932,357.871a17.166,17.166,0,0,0,.067,3.384,20,20,0,0,0,.646,3.322,15.412,15.412,0,0,0,1.276,3.093,9.719,9.719,0,0,0,2,2.52,19.14,19.14,0,0,1-1.58-2.8,26.694,26.694,0,0,1-1.1-3.044A46.854,46.854,0,0,1,751.932,357.871Z" fill="#252428"/><path d="M755.06,376.953a16.988,16.988,0,0,0,.579,3.32,19.444,19.444,0,0,0,1.141,3.146,14.667,14.667,0,0,0,1.727,2.8,9.088,9.088,0,0,0,2.357,2.089,17.931,17.931,0,0,1-1.981-2.443,25.15,25.15,0,0,1-1.544-2.783A45.124,45.124,0,0,1,755.06,376.953Z" fill="#4d4c51"/><path d="M757.421,370.241a10.563,10.563,0,0,0-.869-4.222,6.459,6.459,0,0,0-2.613-3.159,15.571,15.571,0,0,1,1.147,1.668c.32.592.632,1.183.9,1.809C756.527,367.584,756.962,368.887,757.421,370.241Z" fill="#252428"/><path d="M762.8,376.985a10.566,10.566,0,0,0-.869-4.222,6.463,6.463,0,0,0-2.613-3.159,15.663,15.663,0,0,1,1.147,1.669c.32.592.632,1.182.9,1.808C761.9,374.328,762.338,375.632,762.8,376.985Z" fill="#4d4c51"/><path d="M751.446,349.846a7.73,7.73,0,0,0,.892,2.362,12,12,0,0,0,1.41,2.021,13.069,13.069,0,0,0,1.722,1.666,11.3,11.3,0,0,0,1.951,1.283c-1.1-1.167-2.2-2.259-3.219-3.451-.513-.589-1-1.207-1.47-1.841A17.156,17.156,0,0,1,751.446,349.846Z" fill="#252428"/><path d="M750.83,361.675a8.061,8.061,0,0,0,.468,2.514,12.886,12.886,0,0,0,1.033,2.3,13.988,13.988,0,0,0,1.4,2.017,12.183,12.183,0,0,0,1.691,1.692c-.878-1.389-1.77-2.7-2.561-4.1-.4-.691-.769-1.4-1.123-2.131A18.244,18.244,0,0,1,750.83,361.675Z" fill="#4d4c51"/></g></svg>
