<svg width="95.999px" height="95.999px" viewBox="-10.73 0 95.999 95.999" xmlns="http://www.w3.org/2000/svg"><g transform="translate(-555.043 -605.862)"><path d="M577.433,611.51s-5.6-2.644-8.041,0-10.221,10.861-10.221,10.861l9.131,11.17Z" fill="#252428"/><path d="M592.311,605.862c-5.036,0-6.814,1.777-14.369,5.332s-10.144,3.556-12.849,13.777-.928,28.885-4.928,41.552-.222,20.666,8.667,22.221,8.517,8.784,23.479,6.392Z" fill="#fcbd78"/><path d="M566.3,658.3c1.666,1.333-2.889,12.555,0,15.888s4.888,3.777,4.888,3.777l-1.333,1.778a11.361,11.361,0,0,1-5.555-5.777c-1.778-4.222.667-9.333,1.111-11.555S565.564,657.713,566.3,658.3Z" fill="#f7a747"/><path d="M592.311,665.413s-8.482,3.275-12.58,6.97-8.543,13.769-6.987,19.25,4.974,10.444,11.153,10.221,8.414-6.718,8.414-6.718Z" fill="#915c4b"/><path d="M592.311,640.468s-10.2.418-14.536,7.376-2.143,17.235-8.809,26.235-5.545,15.558,4.667,21.057,18.678-8.392,18.678-17.724Z" fill="#a96852"/><path d="M588.518,648.971a5.7,5.7,0,0,1,3.036,4.669c.22,3.822-.585,25.945.757,25.945V648.8Z" fill="#4c383d"/><path d="M592.311,642.379c-3.535,0-7.3.513-7.3,3.25a5.39,5.39,0,0,0,2.907,5.131,37.612,37.612,0,0,0,4.39,1.081Z" fill="#252428"/><path d="M591.188,650.643s-.4-2.8-1.552-3.2-2.5.3-2.353,1.051S591.037,651.894,591.188,650.643Z" fill="#38373c"/><path d="M579.731,610.335s-6.344-1.676-9.011-1.7-7.777,6.426-12.665,9.536-2.667,6.667-1.334,12.444,2.445,6.638,8,4.208,7.61-21.625,8.037-23.122c.875-3.066,3.124.391,3.124.391Z" fill="#915c4b"/><ellipse cx="2.409" cy="2.336" rx="2.409" ry="2.336" transform="matrix(0.174, -0.985, 0.985, 0.174, 578.839, 639.022)" fill="#38373c"/><ellipse cx="1.454" cy="1.41" rx="1.454" ry="1.41" transform="matrix(0.174, -0.985, 0.985, 0.174, 579.917, 638.242)" fill="#252428"/><ellipse cx="0.449" cy="0.435" rx="0.449" ry="0.435" transform="matrix(0.174, -0.985, 0.985, 0.174, 580.101, 636.402)" fill="#fbfcfc"/><path d="M585.014,623.416c.1,1.146,4.913,3.888,4.216,7.11s-6.3,1.007-10.01,3.667-5.884,4.631-7.958,4.315-.3,1.018,1.593,1.129,7.222-4.644,11.555-4.989,6.334-1.677,6.778-4.677-2.277-3.555-3.916-5S584.84,621.416,585.014,623.416Z" fill="#f7a747"/><path d="M592.311,619.555c-3.4,0-3.93-3.75-5.846-4.083s-4.183,1.028-4.907.5c-.343-.25,4.1-2.167,5.714-1.667s2.026,2.583,2.943,3a5.885,5.885,0,0,0,2.1.417Z" fill="#f7a747"/><path d="M585.014,627.554c.826,1.082,2.231,1.75-1.117,2.583s-4.783.5-2.357-.416,1.372-3.333,2.357-3.75S584.271,626.583,585.014,627.554Z" fill="#f7a747"/><path d="M607.189,611.51s5.6-2.644,8.041,0,10.222,10.861,10.222,10.861l-9.132,11.17Z" fill="#252428"/><path d="M592.311,605.862c5.037,0,6.815,1.777,14.37,5.332s10.143,3.556,12.848,13.777.928,28.885,4.928,41.552.222,20.666-8.666,22.221-8.518,8.784-23.48,6.392Z" fill="#fcbd78"/><path d="M618.323,658.3c-1.667,1.333,2.888,12.555,0,15.888s-4.889,3.777-4.889,3.777l1.333,1.778a11.361,11.361,0,0,0,5.556-5.777c1.777-4.222-.667-9.333-1.111-11.555S619.059,657.713,618.323,658.3Z" fill="#f7a747"/><path d="M592.311,665.413s8.483,3.275,12.581,6.97,8.542,13.769,6.987,19.25-4.974,10.444-11.153,10.221-8.415-6.718-8.415-6.718Z" fill="#915c4b"/><path d="M592.311,640.468s10.2.418,14.536,7.376,2.143,17.235,8.809,26.235,5.546,15.558-4.666,21.057-18.679-8.392-18.679-17.724Z" fill="#a96852"/><path d="M596.1,648.971a5.7,5.7,0,0,0-3.035,4.669c-.22,3.822.584,25.945-.758,25.945V648.8Z" fill="#4c383d"/><path d="M592.311,642.379c3.535,0,7.3.513,7.3,3.25a5.389,5.389,0,0,1-2.908,5.131,37.564,37.564,0,0,1-4.39,1.081Z" fill="#252428"/><path d="M593.435,650.643s.4-2.8,1.552-3.2,2.5.3,2.352,1.051S593.585,651.894,593.435,650.643Z" fill="#38373c"/><path d="M604.892,610.335s6.344-1.676,9.01-1.7,7.777,6.426,12.666,9.536,2.666,6.667,1.333,12.444-2.444,6.638-8,4.208-7.61-21.625-8.037-23.122c-.875-3.066-3.125.391-3.125.391Z" fill="#915c4b"/><ellipse cx="2.336" cy="2.409" rx="2.336" ry="2.409" transform="matrix(0.985, -0.174, 0.174, 0.985, 600.345, 635.088)" fill="#38373c"/><ellipse cx="1.41" cy="1.454" rx="1.41" ry="1.454" transform="matrix(0.985, -0.174, 0.174, 0.985, 601.423, 635.868)" fill="#252428"/><ellipse cx="0.435" cy="0.449" rx="0.435" ry="0.449" transform="matrix(0.985, -0.174, 0.174, 0.985, 603.508, 635.669)" fill="#fbfcfc"/><path d="M599.609,623.416c-.1,1.146-4.914,3.888-4.216,7.11s6.3,1.007,10.009,3.667,5.884,4.631,7.958,4.315.3,1.018-1.592,1.129-7.222-4.644-11.555-4.989-6.335-1.677-6.778-4.677,2.276-3.555,3.916-5S599.782,621.416,599.609,623.416Z" fill="#f7a747"/><path d="M592.311,619.555c3.4,0,3.93-3.75,5.847-4.083s4.182,1.028,4.906.5c.343-.25-4.1-2.167-5.713-1.667s-2.027,2.583-2.943,3a5.892,5.892,0,0,1-2.1.417Z" fill="#f7a747"/><path d="M599.609,627.554c-.826,1.082-2.231,1.75,1.117,2.583s4.782.5,2.357-.416-1.372-3.333-2.357-3.75S600.351,626.583,599.609,627.554Z" fill="#f7a747"/></g></svg>
