<?xml version="1.0" ?><!DOCTYPE svg  PUBLIC '-//W3C//DTD SVG 1.1//EN'  'http://www.w3.org/Graphics/SVG/1.1/DTD/svg11.dtd'><svg width="512px" height="512px" viewBox="0 0 512 512" id="Layer_1" style="enable-background:new 0 0 512 512;" version="1.1" xml:space="preserve" xmlns="http://www.w3.org/2000/svg" xmlns:xlink="http://www.w3.org/1999/xlink"><style type="text/css">
	.st0{fill:#EEEDF2;}
	.st1{fill:none;stroke:#1E247E;stroke-width:6;stroke-linecap:round;stroke-miterlimit:10;}
	.st2{fill:#EFC12F;stroke:#1E247E;stroke-width:6;stroke-linecap:round;stroke-miterlimit:10;}
	.st3{fill:none;stroke:#1E247E;stroke-width:3;stroke-linecap:round;stroke-miterlimit:10;}
	.st4{fill:#FFFFFF;stroke:#1E247E;stroke-width:3;stroke-linecap:round;stroke-miterlimit:10;}
	.st5{fill:#FCF5F2;stroke:#1E247E;stroke-width:5;stroke-linecap:round;stroke-miterlimit:10;}
	.st6{fill:#FCF5F2;stroke:#1E247E;stroke-width:6;stroke-linecap:round;stroke-miterlimit:10;}
	.st7{fill:#1E247E;}
	.st8{fill:none;stroke:#1E247E;stroke-width:4;stroke-linecap:round;stroke-miterlimit:10;}
	.st9{fill:#EAB8B1;}
	.st10{fill:#DC9695;stroke:#1E247E;stroke-width:4;stroke-linecap:round;stroke-miterlimit:10;}
	.st11{fill:#EECED1;stroke:#1E247E;stroke-width:3;stroke-linecap:round;stroke-miterlimit:10;}
	.st12{fill:#CB7272;stroke:#1E247E;stroke-width:3;stroke-linecap:round;stroke-miterlimit:10;}
	.st13{fill:#D3D5E7;stroke:#1E247E;stroke-width:6;stroke-linecap:round;stroke-miterlimit:10;}
	.st14{fill:#D3D5E7;}
	.st15{fill:#FFFFFF;stroke:#1E247E;stroke-width:5;stroke-linecap:round;stroke-miterlimit:10;}
	.st16{fill:#FFFFFF;stroke:#1E247E;stroke-width:4;stroke-linecap:round;stroke-miterlimit:10;}
	.st17{fill:#ECECEE;}
	.st18{fill:#DA867D;stroke:#1E247E;stroke-width:4;stroke-linecap:round;stroke-miterlimit:10;}
	.st19{fill:#FCF5F2;stroke:#1E247E;stroke-width:4;stroke-linecap:round;stroke-miterlimit:10;}
	.st20{fill:#69AEF8;stroke:#1E247E;stroke-width:6;stroke-linecap:round;stroke-miterlimit:10;}
	.st21{opacity:0.4;fill:#FFFFFF;}
	.st22{opacity:0.7;fill:#FFFFFF;}
	.st23{fill:#69ADF7;stroke:#1E247E;stroke-width:2.5;stroke-linecap:round;stroke-miterlimit:10;}
	.st24{fill:none;stroke:#FFFFFF;stroke-width:7;stroke-linecap:round;stroke-miterlimit:10;}
	.st25{fill:#FFFFFF;stroke:#1E247E;stroke-width:6;stroke-linecap:round;stroke-miterlimit:10;}
	.st26{fill:#DBE7FE;}
	.st27{fill:#D3D5E7;stroke:#1E247E;stroke-width:5;stroke-linecap:round;stroke-miterlimit:10;}
	.st28{fill:#DD9796;stroke:#1E247E;stroke-width:3;stroke-linecap:round;stroke-miterlimit:10;}
	.st29{fill:#EECED1;stroke:#1E247E;stroke-width:2.5;stroke-linecap:round;stroke-miterlimit:10;}
	.st30{fill:#CB7272;stroke:#1E247E;stroke-width:2.5;stroke-linecap:round;stroke-miterlimit:10;}
	.st31{fill:#DBE7FE;stroke:#1E247E;stroke-width:5;stroke-linecap:round;stroke-miterlimit:10;}
	.st32{fill:#69AEF8;stroke:#1E247E;stroke-width:5;stroke-linecap:round;stroke-miterlimit:10;}
	.st33{fill:#DAE6FD;stroke:#1E247E;stroke-width:6;stroke-miterlimit:10;}
	.st34{fill:#FFFFFF;stroke:#1E247E;stroke-width:6;stroke-miterlimit:10;}
	.st35{opacity:0.69;fill:#FFFFFF;}
	.st36{opacity:0.95;fill:#FFFFFF;}
	.st37{fill:#DA867D;stroke:#1E247E;stroke-width:6;stroke-linecap:round;stroke-miterlimit:10;}
	.st38{fill:#F0C330;stroke:#1E247E;stroke-width:6;stroke-linecap:round;stroke-miterlimit:10;}
	.st39{fill:#1E247E;stroke:#1E247E;stroke-width:3;stroke-linecap:round;stroke-miterlimit:10;}
	.st40{fill:#FFFFFF;}
	.st41{fill:#DBE7FE;stroke:#1E247E;stroke-width:6;stroke-linecap:round;stroke-miterlimit:10;}
	.st42{fill:#F1F6FF;}
	.st43{fill:#F0C330;stroke:#1E247E;stroke-width:5;stroke-linecap:round;stroke-miterlimit:10;}
	.st44{fill:none;stroke:#1E247E;stroke-width:5;stroke-linecap:round;stroke-miterlimit:10;}
	.st45{fill:#79CAA1;stroke:#1E247E;stroke-width:5;stroke-linecap:round;stroke-miterlimit:10;}
	.st46{fill:#E09287;stroke:#1E247E;stroke-width:5;stroke-linecap:round;stroke-miterlimit:10;}
	.st47{fill:#DA867D;stroke:#1E247E;stroke-width:5;stroke-linecap:round;stroke-miterlimit:10;}
	.st48{fill:#69AEF8;stroke:#1E247E;stroke-width:5;stroke-miterlimit:10;}
	.st49{fill:#D2D4E6;stroke:#1E247E;stroke-width:5;stroke-linecap:round;stroke-miterlimit:10;}
	.st50{fill:#79CAA1;stroke:#1E247E;stroke-width:5;stroke-miterlimit:10;}
	.st51{fill:#F0C330;stroke:#1E247E;stroke-width:6;stroke-miterlimit:10;}
	.st52{fill:#EEEDF2;stroke:#FFFFFF;stroke-miterlimit:10;}
	.st53{opacity:0.3;fill:#A2655F;}
	.st54{fill:#79CAA1;stroke:#1E247E;stroke-width:4;stroke-linecap:round;stroke-miterlimit:10;}
	.st55{fill:#F0C330;stroke:#1E247E;stroke-width:4.5;stroke-linecap:round;stroke-miterlimit:10;}
	.st56{fill:#D2D4E6;}
	.st57{fill:#FFFFFF;stroke:#1E247E;stroke-width:5.7826;stroke-linejoin:round;stroke-miterlimit:10;}
	.st58{fill:#DA867D;stroke:#1E247E;stroke-width:5.7826;stroke-linejoin:round;stroke-miterlimit:10;}
	.st59{fill:none;stroke:#1E247E;stroke-width:2.8913;stroke-linecap:round;stroke-linejoin:round;stroke-miterlimit:10;}
	.st60{fill:none;stroke:#1E247E;stroke-width:2.4094;stroke-linecap:round;stroke-miterlimit:10;}
	.st61{fill:#EBEBED;}
	.st62{fill:#FBF2ED;stroke:#1E247E;stroke-width:4.5;stroke-linecap:round;stroke-miterlimit:10;}
	.st63{fill:#D3D5E7;stroke:#1E247E;stroke-width:4.5;stroke-linecap:round;stroke-miterlimit:10;}
	.st64{fill:none;stroke:#1E247E;stroke-width:2.5;stroke-linecap:round;stroke-miterlimit:10;}
	.st65{fill:#DA867D;stroke:#1E247E;stroke-width:4.5;stroke-linecap:round;stroke-miterlimit:10;}
	.st66{fill:none;stroke:#FFFFFF;stroke-width:4;stroke-linecap:round;stroke-linejoin:round;stroke-miterlimit:10;}
	.st67{fill:none;stroke:#FFFFFF;stroke-width:3;stroke-linecap:round;stroke-miterlimit:10;}
	.st68{fill:#79CAA1;stroke:#1E247E;stroke-width:6;stroke-linecap:round;stroke-miterlimit:10;}
	.st69{opacity:0.3;fill:#FFFFFF;}
	.st70{fill:none;stroke:#FFFFFF;stroke-width:6;stroke-linecap:round;stroke-miterlimit:10;}
	.st71{fill:#DBE7FE;stroke:#1E247E;stroke-width:6;stroke-miterlimit:10;}
	.st72{fill:#DA867D;stroke:#1E247E;stroke-width:5;stroke-miterlimit:10;}
	.st73{fill:#F5F5F7;stroke:#1E247E;stroke-width:5;stroke-miterlimit:10;}
	.st74{fill:#D5D6DE;stroke:#1E247E;stroke-width:5;stroke-miterlimit:10;}
	.st75{fill:#D3D5E7;stroke:#1E247E;stroke-width:3;stroke-linecap:round;stroke-miterlimit:10;}
	.st76{fill:#79CAA1;}
	.st77{fill:none;stroke:#1E247E;stroke-width:2.7;stroke-linecap:round;stroke-miterlimit:10;}
	.st78{fill:#69AEF8;}
</style><g><g><g id="_x32_4h_support"><circle class="st0" cx="254.8" cy="257.9" id="Background_6_" r="215.8"/><g id="Pin"><path class="st56" d="M334.2,367.9c-0.8,0.5-1.7,1-2.5,1.6c-19.4,11.7-41.9,17.4-64.6,17l-20.9-0.4L95.7,372.8       c-1.9-0.2-3.1-2.1-2.5-3.9l51.7-141.9l8.5-19.2c9.2-20.7,23.9-38.7,42.7-51.3c0.8-0.5,1.6-1.1,2.4-1.6       c58.4-37.2,135.8-20.3,173.6,37.5C410.5,251.1,393.4,330.3,334.2,367.9z" id="Shadow_21_"/><path class="st57" d="M329.2,344.2c-0.8,0.6-1.6,1.2-2.4,1.7c-18.5,13.1-40.6,20.3-63.2,21.5l-20.9,1.1       l-151-2.6c-1.9,0-3.3-1.9-2.8-3.7l41.5-145.2l7.2-19.7c7.7-21.3,21.1-40.3,39-54.2c0.8-0.6,1.5-1.2,2.3-1.7       c55.7-41.2,134.1-29.9,175.8,25.2C397,222.3,385.5,302.5,329.2,344.2z" id="Shape_31_"/><ellipse class="st58" cx="256.4" cy="241" id="Dot" rx="73.6" ry="73.6" transform="matrix(0.8036 -0.5952 0.5952 0.8036 -93.0757 199.9511)"/><g id="Vertical_line"><path class="st59" d="M177.5,284.4c-4.5-7.5-7.7-15.6-9.6-24" id="Bottom_15_"/><path class="st59" d="M166.5,251.6c-0.2-2.3-0.4-4.7-0.4-7" id="Top_16_"/></g><path class="st59" d="M292.8,137c7.5,2.4,14.8,5.8,21.6,10.3" id="Top_line_1_"/><g id="Lines_10_"><line class="st60" id="Bottom_14_" x1="174.2" x2="181" y1="322.3" y2="326.5"/><line class="st60" id="Middle_16_" x1="173.7" x2="187.1" y1="316.2" y2="324.8"/><line class="st60" id="Top_15_" x1="182.9" x2="186.6" y1="316.3" y2="318.6"/></g></g><g id="Speech_balloons"><g id="Top_13_"><g id="Speech_balloon_3_"><path class="st25" d="M247.8,62.7V136c0,10.8-8.7,19.5-19.5,19.5h0v26c0,1.4-1.6,2.3-2.8,1.5l-43.5-27.5H94.9         c-10.8,0-19.5-8.7-19.5-19.5V62.7c0-10.8,8.7-19.5,19.5-19.5h133.4C239.1,43.2,247.8,52,247.8,62.7z" id="Shape_30_"/><g id="Content_4_"><line class="st25" id="_x33_rd_4_" x1="93.9" x2="154.9" y1="102.5" y2="102.5"/><line class="st25" id="_x34_th_2_" x1="93.9" x2="124.4" y1="114.2" y2="114.2"/><line class="st25" id="_x32_nd_4_" x1="93.9" x2="154.9" y1="91" y2="91"/><line class="st25" id="_x31_st_4_" x1="93.9" x2="154.9" y1="79.4" y2="79.4"/></g><path class="st61" d="M220.3,136.1h-34.7c-5.4,0-9.8-4.4-9.8-9.8V75.7c0-5.4,4.4-9.8,9.8-9.8h34.7         c5.4,0,9.8,4.4,9.8,9.8v50.6C230,131.7,225.7,136.1,220.3,136.1z" id="Body_background_2_"/><g id="Person_2_"><circle class="st62" cx="203.5" cy="85.1" id="Head_3_" r="7.3"/><path class="st63" d="M215.5,121.1h-24.1c-0.8,0-1.5-0.7-1.5-1.5v-10c0-7.1,5.8-12.9,12.9-12.9h1.4          c7.1,0,12.9,5.8,12.9,12.9v10C217,120.4,216.4,121.1,215.5,121.1z" id="Body_9_"/></g><path class="st3" d="M84.2,60.8c1.1-3.2,3.4-5.9,6.3-7.5"/></g><g id="Lines_9_"><line class="st64" id="Bottom_13_" x1="139.1" x2="146" y1="127.3" y2="131.8"/><line class="st64" id="Middle_15_" x1="138.5" x2="152.4" y1="121.1" y2="129.9"/><line class="st64" id="Top_14_" x1="148" x2="151.9" y1="121.1" y2="123.5"/></g></g><g id="Bottom_11_"><path class="st25" d="M297.5,306.6v73.2c0,10.8,8.7,19.5,19.5,19.5l0,0v26c0,1.4,1.6,2.3,2.8,1.5l43.5-27.5        h87.2c10.8,0,19.5-8.7,19.5-19.5v-73.2c0-10.8-8.7-19.5-19.5-19.5H317C306.2,287.1,297.5,295.9,297.5,306.6z" id="Shape_29_"/><g id="Content_3_"><line class="st25" id="_x34_th_1_" x1="451.4" x2="421" y1="358.1" y2="358.1"/><line class="st25" id="_x33_rd_3_" x1="451.4" x2="390.5" y1="346.4" y2="346.4"/><line class="st25" id="_x32_nd_3_" x1="451.4" x2="390.5" y1="334.9" y2="334.9"/><line class="st25" id="_x31_st_3_" x1="451.4" x2="390.5" y1="323.3" y2="323.3"/></g><path class="st61" d="M325.1,380h34.7c5.4,0,9.8-4.4,9.8-9.8v-50.6c0-5.4-4.4-9.8-9.8-9.8h-34.7        c-5.4,0-9.8,4.4-9.8,9.8v50.6C315.3,375.6,319.7,380,325.1,380z" id="Body_background_1_"/><g id="Person_1_"><circle class="st62" cx="341.9" cy="329" id="Head_2_" r="7.3"/><path class="st65" d="M329.8,365h24.1c0.8,0,1.5-0.7,1.5-1.5v-10c0-7.1-5.8-12.9-12.9-12.9h-1.4         c-7.1,0-12.9,5.8-12.9,12.9v10C328.3,364.3,329,365,329.8,365z" id="Body_8_"/></g><g id="Lines_8_"><line class="st23" id="Bottom_12_" x1="382.9" x2="389.9" y1="373.2" y2="377.6"/><line class="st23" id="Middle_14_" x1="382.4" x2="396.3" y1="366.9" y2="375.7"/><line class="st23" id="Top_12_" x1="391.9" x2="395.7" y1="366.9" y2="369.4"/></g><path class="st3" d="M306.6,303.5c1.1-3.2,3.4-5.9,6.3-7.5" id="Top_line"/></g></g><g id="Sparkles_3_"><path class="st40" d="M417.6,182.1c-8.6-0.4-8.4-10-8.4-10c-0.2,10.5-8.8,10-8.8,10s8.8,0.8,8.8,9.7       C409.2,191.9,410.3,183,417.6,182.1" id="_x33_rd_2_"/><path class="st40" d="M400.7,165.1c-14.9-0.8-14.5-17.3-14.5-17.3c-0.4,18.2-15.3,17.3-15.3,17.3       s15.3,1.5,15.3,16.9C386.2,182,388.2,166.6,400.7,165.1" id="_x32_nd_2_"/><path class="st40" d="M417.3,144.2c-8.3-0.4-8.1-9.6-8.1-9.6c-0.2,10.1-8.5,9.6-8.5,9.6s8.5,0.8,8.5,9.4       C409.2,153.5,410.3,145,417.3,144.2" id="_x31_st_2_"/></g></g><g><path class="st66" d="M219.6,222.3c0,0,12.4-8.4,17.2,2.4c5.4,12.2-19.8,28.7-19.8,28.7h21.7"/><polyline class="st66" points="273,243.7 245.1,243.7 265,218.8 265,253.5     "/><g><polyline class="st67" points="278.8,227.5 278.8,239.3 278.8,241.7 278.8,254.3      "/><path class="st67" d="M292.6,254.3v-8.9c0-3.8-3.1-6.9-6.9-6.9h0c-3.8,0-6.9,3.1-6.9,6.9v3.9"/></g></g></g></g></svg>