<svg width="96px" height="96px" viewBox="0 -15.42 96 96" xmlns="http://www.w3.org/2000/svg"><g transform="translate(-672.519 -475.991)"><path d="M720.519,475.991s-19.206.9-23.283,4.466-11.211,21.934-9.988,30.282,21.086,12,33.271,12Z" fill="#f7a747"/><path d="M697.236,480.457c-3.585,3.138-12.993,34.454-11.258,39.264,1.934,5.363,2.706,8.059,2.706,8.059a10.293,10.293,0,0,0,.559-2.145,5.566,5.566,0,0,0,.613,1.094,14.987,14.987,0,0,1,2.663,5.212s.134-3.333,0-6.329c0-.079-.008-.134-.012-.2a7.458,7.458,0,0,0,1.711,3.746,9.794,9.794,0,0,1,2.265,5.786,14.288,14.288,0,0,0,1.111-2.544,5.818,5.818,0,0,0,.5,2.115,9.052,9.052,0,0,0,3.215,3.521,5.577,5.577,0,0,1,.422-3.2,23.6,23.6,0,0,1,1.549-2.44,6.327,6.327,0,0,0,2.4,3.19c4.52,3.428,4.3,5.571,4.3,5.571s1.141-.241,2.086-2.559a6.51,6.51,0,0,0,1.228,2.559,16.533,16.533,0,0,1,3.349-5.908,20.064,20.064,0,0,1-.973,5.372,14.02,14.02,0,0,0,2.992-3.964c.964-2.143-.358,1.714,1.857,4.5V475.991S701.313,476.889,697.236,480.457Z" fill="#f7a747"/><path d="M705.163,506.69a4.218,4.218,0,0,1-.529-.034,4.69,4.69,0,0,1-3.9-4.141c0-.845,1.474-4.148,4.42-4.148,3.027,0,4.9,3.052,5.565,4.364a1.293,1.293,0,0,1,.074,1.253,1.185,1.185,0,0,1-1.059.477l-.5-.009c-.1.083-.3.278-.4.38A5.25,5.25,0,0,1,705.163,506.69Z" fill="#252428"/><path d="M710.078,503.06c-.245-.483-2.007-3.971-4.921-3.971-2.44,0-3.265,2.88-3.265,3.425s.359,3.11,2.834,3.426,3.747-2.132,4.349-2.2S710.547,503.984,710.078,503.06Z" fill="#252428"/><ellipse cx="3.321" cy="3.425" rx="3.321" ry="3.425" transform="translate(701.888 499.089)" fill="#38373c"/><ellipse cx="2.005" cy="2.068" rx="2.005" ry="2.068" transform="translate(703.204 500.446)" fill="#252428"/><ellipse cx="0.619" cy="0.638" rx="0.619" ry="0.638" transform="translate(703.008 500.683)" fill="#fbfcfc"/><path d="M716.6,501.747s-8.157,1.586-10.6,5.462-1.807,10.85,3.057,13.365c2.992,1.547,11.461,2.546,11.461,2.546V501.747Z" fill="#a05132"/><path d="M687.248,510.739c.383,2.613,2.594,4.767,5.824,6.492.325-3.548,1.938-9.051,1.514-11.224-.51-2.614-.815-6.642-.815-6.642a29.76,29.76,0,0,1,1.381,4.736,30.2,30.2,0,0,0-.126-7.838c.643,3.263,1.089,3.68,1.089,3.68s-.6-7.47.713-12.034,2.854-6.034,2.854-6.034l-2.252-1.567c-.064.05-.136.1-.194.149C693.159,484.026,686.025,502.391,687.248,510.739Z" fill="#252428"/><path d="M691.969,482.446c-.687.53-1.443,1.118-2.23,1.749v0a4.363,4.363,0,0,1-4.205.657,2.5,2.5,0,0,0,1.514,1.6l-.168.149a7.573,7.573,0,0,0-4.429,2.073,2.891,2.891,0,0,1,2.448-.22s-2.068,1.681-3.829.611a2.3,2.3,0,0,0,1.534,1.864c-.088.105-.174.212-.262.318a5.822,5.822,0,0,0-3.221,2.172c-1.743,2.332-3.54,2.435-3.271,5.484,0-.306.116-1.424,1.748-1.914a6.631,6.631,0,0,0,1.49-.673l-.008.018a10.369,10.369,0,0,0-2.034,2.511,12.214,12.214,0,0,0-1.446,4.283,5.9,5.9,0,0,1,.816-1.093,13.6,13.6,0,0,0-1.068,4.553,11.835,11.835,0,0,0,.643,5.262c-.027.165-.047.328-.077.492-.88,4.849-3.4,6.42-3.4,6.42a9.94,9.94,0,0,0,5.131-4.716,16.816,16.816,0,0,0-.6,9.856,16.773,16.773,0,0,1,2.094-6.154c.026.193.051.391.078.586a32.559,32.559,0,0,0-.914,6.71c0,3.569-1.411,5.854-.706,9.566,0,0,1.328-4.345,1.963-5.854.041-.1.077-.212.115-.318a10.693,10.693,0,0,0,.891,4.03c2.012,4.712,1.383,5.568,1.383,5.568a5.45,5.45,0,0,0,1.132-4.252,5.5,5.5,0,0,1,1.069-3.967c.135-.087.275-.207.413-.313-.019.752-.129,3.454-.727,4.28,0,0,2.675-1.826,3.349-7.21a3.3,3.3,0,0,0,1.454,2.468,26.613,26.613,0,0,1,.824-6.468c0-.018-.007-.035-.01-.053.051-.111.1-.22.154-.332l-.038.1c-.038.091-.072.191-.106.289a45.087,45.087,0,0,1,.409,7.789c2.515-4.532.847-10.959.847-10.959l0,.008c.022-.065.045-.126.067-.193a19.641,19.641,0,0,0,1.816,5.968,19.291,19.291,0,0,1-.085-5.426,16.193,16.193,0,0,0,.041-2.763,1.288,1.288,0,0,0,.66.336c-1.185-1.642,0-8.862,0-8.862h0c1.8-10.421,2.986-22.685,3.45-23.739.671-1.523,3.018-2.856,3.018-2.856V479.3S696.664,478.829,691.969,482.446Zm-15.992,25.081a3.99,3.99,0,0,1,.7-1.52c-.155,1.567-.3,3.209-.538,4.888A9.131,9.131,0,0,1,675.977,507.527Z" fill="#ce783f"/><path d="M675.851,498.984c0-.031,0-.053,0-.084C675.849,498.951,675.851,498.984,675.851,498.984Z" fill="#38373c"/><path d="M682.451,488.671a1.732,1.732,0,0,0-.312.248C682.247,488.822,682.345,488.759,682.451,488.671Z" fill="#38373c"/><path d="M693.618,483.107a6.2,6.2,0,0,0-1.585,1.366,15.741,15.741,0,0,0-1.332,1.679c-.852,1.163-1.5,2.473-2.442,3.665a10.461,10.461,0,0,1-3.348,2.713,10.066,10.066,0,0,1-3.931,1.165,14.97,14.97,0,0,0,3.712-1.66,12.329,12.329,0,0,0,3.1-2.708c.872-1.062,1.581-2.432,2.54-3.536A8.189,8.189,0,0,1,693.618,483.107Z" fill="#f7a747"/><path d="M691.853,486.672a9.521,9.521,0,0,0-1.837,1.93,19.689,19.689,0,0,0-1.5,2.269c-.452.795-.884,1.605-1.286,2.434-.386.826-.768,1.708-1.242,2.529A15.943,15.943,0,0,1,682.415,500a14.416,14.416,0,0,1-4.544,2.572,20.318,20.318,0,0,0,4.247-3.012,16.989,16.989,0,0,0,3.345-4.126c.895-1.531,1.606-3.363,2.657-4.881A11.624,11.624,0,0,1,691.853,486.672Z" fill="#a05132"/><path d="M691.172,509.949a10.547,10.547,0,0,0-1.242,2.466,21.414,21.414,0,0,0-.829,2.675c-.222.912-.42,1.832-.584,2.76s-.282,1.89-.516,2.836a17.68,17.68,0,0,1-2.31,5.193,16.086,16.086,0,0,1-3.654,4,22.816,22.816,0,0,0,3.255-4.321,18.759,18.759,0,0,0,2.1-5.074c.449-1.766.644-3.756,1.246-5.562A12.923,12.923,0,0,1,691.172,509.949Z" fill="#a05132"/><path d="M693.091,492.549a9.542,9.542,0,0,0-1.837,1.929,19.7,19.7,0,0,0-1.5,2.27c-.452.794-.883,1.6-1.286,2.434-.385.825-.768,1.707-1.241,2.529a15.975,15.975,0,0,1-3.576,4.167,14.4,14.4,0,0,1-4.543,2.573,20.372,20.372,0,0,0,4.247-3.013,17.022,17.022,0,0,0,3.344-4.125c.9-1.532,1.606-3.363,2.658-4.882A11.616,11.616,0,0,1,693.091,492.549Z" fill="#a05132"/><path d="M695.56,481.944A15.011,15.011,0,0,0,693,486.491c-.316.828-.613,1.666-.879,2.519-.25.845-.49,1.744-.825,2.6a16.125,16.125,0,0,1-2.807,4.556,14.467,14.467,0,0,1-3.94,3.213,20.9,20.9,0,0,0,3.585-3.592,17.231,17.231,0,0,0,2.585-4.472c.635-1.6,1.057-3.451,1.844-5.065A11.714,11.714,0,0,1,695.56,481.944Z" fill="#f7a747"/><path d="M694.218,493.166a16.048,16.048,0,0,0-1.5,5.12c-.128.891-.235,1.786-.309,2.686s-.1,1.828-.238,2.753a17.349,17.349,0,0,1-1.741,5.2,15.85,15.85,0,0,1-3.127,4.209,22.825,22.825,0,0,0,2.7-4.479,18.414,18.414,0,0,0,1.543-5.054c.272-1.725.281-3.639.7-5.423A12.637,12.637,0,0,1,694.218,493.166Z" fill="#a05132"/><path d="M684.853,493.7a6.443,6.443,0,0,0-2.1,1.451,15.5,15.5,0,0,0-1.693,2.015,14.212,14.212,0,0,1-1.773,2.091,5.359,5.359,0,0,1-2.229,1.416,9.271,9.271,0,0,0,1.895-1.819c.565-.687,1.091-1.4,1.616-2.144a9.5,9.5,0,0,1,1.89-2A4.266,4.266,0,0,1,684.853,493.7Z" fill="#a05132"/><path d="M685.712,516.822a7.3,7.3,0,0,0-1.549,2.171,17.406,17.406,0,0,0-1,2.543,15.854,15.854,0,0,1-1.049,2.648,6.079,6.079,0,0,1-1.679,2.185,10.5,10.5,0,0,0,1.245-2.437c.329-.863.612-1.736.885-2.637a10.718,10.718,0,0,1,1.187-2.6A4.786,4.786,0,0,1,685.712,516.822Z" fill="#a05132"/><path d="M685.565,508.9a7.407,7.407,0,0,0-1.482,2.23,17.638,17.638,0,0,0-.918,2.581,16.063,16.063,0,0,1-.968,2.687,6.147,6.147,0,0,1-1.611,2.249,10.616,10.616,0,0,0,1.17-2.484c.3-.875.558-1.759.8-2.669a10.8,10.8,0,0,1,1.106-2.649A4.86,4.86,0,0,1,685.565,508.9Z" fill="#a05132"/><path d="M687.91,497.629a11.156,11.156,0,0,1-1.648,3.264,11.972,11.972,0,0,1-2.452,2.59,33.935,33.935,0,0,1-2.874,1.849,14.924,14.924,0,0,0-2.695,2.066,8.669,8.669,0,0,1,2.4-2.608c.928-.725,1.949-1.207,2.824-1.885A15.4,15.4,0,0,0,687.91,497.629Z" fill="#f7a747"/><path d="M686.1,499.381a30.228,30.228,0,0,0-3.83,2.661,17.563,17.563,0,0,0-1.693,1.62,17.129,17.129,0,0,0-1.467,1.935,8.53,8.53,0,0,1,2.783-4.134,10.548,10.548,0,0,1,2.008-1.313A8.108,8.108,0,0,1,686.1,499.381Z" fill="#a05132"/><path d="M687.84,514.288a30.384,30.384,0,0,0-3.77,2.772,17.625,17.625,0,0,0-1.655,1.669,17.155,17.155,0,0,0-1.424,1.977,8.6,8.6,0,0,1,2.69-4.213,10.533,10.533,0,0,1,1.977-1.371A8.163,8.163,0,0,1,687.84,514.288Z" fill="#a05132"/><path d="M686.1,506.007a35.788,35.788,0,0,0-5.162,3.14,22.257,22.257,0,0,0-2.3,2,18.088,18.088,0,0,0-1.961,2.465,10.255,10.255,0,0,1,1.616-2.856,13.341,13.341,0,0,1,2.294-2.211,15.239,15.239,0,0,1,2.654-1.579A12.182,12.182,0,0,1,686.1,506.007Z" fill="#a05132"/><path d="M684.817,513.132a42.362,42.362,0,0,0-3.345,5.459,26.15,26.15,0,0,0-1.249,2.968,20.745,20.745,0,0,0-.761,3.207,11.321,11.321,0,0,1,.3-3.378,15.661,15.661,0,0,1,1.161-3.152,18.159,18.159,0,0,1,1.734-2.775A14.2,14.2,0,0,1,684.817,513.132Z" fill="#f7a747"/><path d="M693.849,487.8a17.166,17.166,0,0,1-.066,3.384,20.008,20.008,0,0,1-.646,3.322,15.419,15.419,0,0,1-1.277,3.093,9.7,9.7,0,0,1-2,2.52,19.14,19.14,0,0,0,1.581-2.795,26.492,26.492,0,0,0,1.1-3.044A46.7,46.7,0,0,0,693.849,487.8Z" fill="#f7a747"/><path d="M691.472,506.007a17.062,17.062,0,0,1,.369,3.358,20.309,20.309,0,0,1-.212,3.394,15.965,15.965,0,0,1-.865,3.272,10.2,10.2,0,0,1-1.659,2.825,19.94,19.94,0,0,0,1.205-3.027,27.463,27.463,0,0,0,.7-3.194A47.527,47.527,0,0,0,691.472,506.007Z" fill="#f7a747"/><path d="M689.1,499.174a17.091,17.091,0,0,1-.066,3.384,20.008,20.008,0,0,1-.646,3.322,15.422,15.422,0,0,1-1.277,3.093,9.678,9.678,0,0,1-2,2.52,19.142,19.142,0,0,0,1.581-2.8,26.493,26.493,0,0,0,1.1-3.044A46.551,46.551,0,0,0,689.1,499.174Z" fill="#a05132"/><path d="M685.978,518.256a16.912,16.912,0,0,1-.58,3.32,19.263,19.263,0,0,1-1.141,3.146,14.623,14.623,0,0,1-1.727,2.8,9.056,9.056,0,0,1-2.357,2.089,17.882,17.882,0,0,0,1.982-2.443,25.3,25.3,0,0,0,1.544-2.783A45.256,45.256,0,0,0,685.978,518.256Z" fill="#f7a747"/><path d="M683.617,511.544a10.528,10.528,0,0,1,.869-4.222,6.452,6.452,0,0,1,2.612-3.159,15.4,15.4,0,0,0-1.146,1.668c-.32.592-.633,1.183-.9,1.809C684.511,508.887,684.075,510.191,683.617,511.544Z" fill="#a05132"/><path d="M678.241,518.289a10.551,10.551,0,0,1,.869-4.223,6.456,6.456,0,0,1,2.612-3.159,15.521,15.521,0,0,0-1.146,1.669c-.32.592-.633,1.182-.9,1.809C679.135,515.631,678.7,516.935,678.241,518.289Z" fill="#f7a747"/><path d="M689.592,491.149a7.73,7.73,0,0,1-.892,2.362,12.115,12.115,0,0,1-1.41,2.021,13.011,13.011,0,0,1-1.723,1.666,11.293,11.293,0,0,1-1.95,1.283c1.1-1.167,2.2-2.259,3.219-3.451.513-.589,1-1.207,1.469-1.84A17.251,17.251,0,0,0,689.592,491.149Z" fill="#a05132"/><path d="M690.207,502.978a8.031,8.031,0,0,1-.467,2.514,12.887,12.887,0,0,1-1.034,2.3,14.058,14.058,0,0,1-1.4,2.017,12.3,12.3,0,0,1-1.691,1.693c.878-1.39,1.769-2.706,2.56-4.1.4-.692.77-1.406,1.123-2.132A18.244,18.244,0,0,0,690.207,502.978Z" fill="#f7a747"/><path d="M716.6,501.321s-8.157,1.609-10.6,5.541c-.108.174-4.631,6.413-3.283,10.693,1.479,4.7,0,5.678,0,5.678a2.8,2.8,0,0,0,2.16-1.6s-1.89,3.609,0,5.758a4.117,4.117,0,0,1,1.391-2.634s-.82,1.681,0,2.634a25.3,25.3,0,0,1,2.242-2.142,3.92,3.92,0,0,0-.135,2.142,12.255,12.255,0,0,0,1.477,3.887,10.33,10.33,0,0,1,.864-3.887,6.258,6.258,0,0,0,.569-1.277,18.317,18.317,0,0,1,.376,2.853l.035,2.094s2.143-2.232,2.358-3.67a5.409,5.409,0,0,1,1.262-2.523c-.207.267-.658,1.112-.405,3.252a14.443,14.443,0,0,1,2.6-3.363c1.474-1.3,3.01-5.784,3.01-8.489V501.321Z" fill="#ce783f"/><path d="M720.519,500.857a7.44,7.44,0,0,0-3.459.422c-1.289.665-2.171,3.986-1.289,4.59s2.781,1.136,3.6,1.806.407.713,1.153.713Z" fill="#4c383d"/><path d="M718.867,503.318c-.912-1.044-.871-.4-.42.534.474.978.382,1.234-1.043.932a2.044,2.044,0,0,1-1.508-1.864.533.533,0,0,0-.055-.025,6.052,6.052,0,0,0-.352,1.209c.006.032.01.059.016.092.339,1.707,2.51,1.675,3.362,1.373S719.778,504.361,718.867,503.318Z" fill="#3d2a2e"/><path d="M703.2,520.813a6.189,6.189,0,0,0,1.114-1.771,15.717,15.717,0,0,0,.782-2c.472-1.362.7-2.8,1.259-4.22a10.458,10.458,0,0,1,2.4-3.576,10.044,10.044,0,0,1,3.416-2.267,14.954,14.954,0,0,0-3.061,2.676,12.34,12.34,0,0,0-2.172,3.5c-.522,1.271-.8,2.788-1.39,4.125A8.185,8.185,0,0,1,703.2,520.813Z" fill="#f7a747"/><path d="M715.336,502.567a5.86,5.86,0,0,0-2.024,1.15,14.208,14.208,0,0,0-1.7,1.693,12.933,12.933,0,0,1-1.776,1.757,4.882,4.882,0,0,1-2.136,1.107,8.465,8.465,0,0,0,1.865-1.5c.568-.578,1.1-1.184,1.638-1.817a8.679,8.679,0,0,1,1.875-1.662A3.893,3.893,0,0,1,715.336,502.567Z" fill="#a05132"/><path d="M719.83,517.341a7.3,7.3,0,0,0-1.981,1.785,17.533,17.533,0,0,0-1.522,2.268,15.854,15.854,0,0,1-1.6,2.359,6.07,6.07,0,0,1-2.111,1.771,10.466,10.466,0,0,0,1.741-2.111c.508-.771.972-1.563,1.434-2.383a10.69,10.69,0,0,1,1.721-2.286A4.788,4.788,0,0,1,719.83,517.341Z" fill="#a05132"/><path d="M712.587,506.445a11.161,11.161,0,0,1,.185,3.652,11.929,11.929,0,0,1-.847,3.464,33.6,33.6,0,0,1-1.58,3.03,14.983,14.983,0,0,0-1.318,3.13,8.671,8.671,0,0,1,.8-3.455c.447-1.089,1.094-2.014,1.519-3.036A15.408,15.408,0,0,0,712.587,506.445Z" fill="#f7a747"/><path d="M711.4,511.531a30.077,30.077,0,0,0-2.823,3.713,17.651,17.651,0,0,0-1.111,2.063,17.244,17.244,0,0,0-.8,2.294,8.528,8.528,0,0,1,1.373-4.791,10.476,10.476,0,0,1,1.5-1.868A8.085,8.085,0,0,1,711.4,511.531Z" fill="#a05132"/><path d="M713.636,519.2a30.191,30.191,0,0,0-3.77,2.772,17.731,17.731,0,0,0-1.655,1.668,17.222,17.222,0,0,0-1.423,1.977,8.6,8.6,0,0,1,2.689-4.213,10.569,10.569,0,0,1,1.977-1.371A8.128,8.128,0,0,1,713.636,519.2Z" fill="#a05132"/><path d="M707.792,506.7a35.765,35.765,0,0,0-2.668,5.421,22.372,22.372,0,0,0-.864,2.924,18.123,18.123,0,0,0-.33,3.132,10.286,10.286,0,0,1-.171-3.277,13.322,13.322,0,0,1,.748-3.1,15.255,15.255,0,0,1,1.39-2.758A12.161,12.161,0,0,1,707.792,506.7Z" fill="#a05132"/><path d="M715.263,506.71a17.156,17.156,0,0,1-.067,3.383,20,20,0,0,1-.646,3.322,15.479,15.479,0,0,1-1.276,3.094,9.713,9.713,0,0,1-2,2.519,19.133,19.133,0,0,0,1.58-2.8,26.529,26.529,0,0,0,1.1-3.043A46.763,46.763,0,0,0,715.263,506.71Z" fill="#f7a747"/><path d="M708.312,516.634a7.177,7.177,0,0,1,.085,2.176,8.375,8.375,0,0,1-.494,2.123,7.5,7.5,0,0,1-1.132,1.96,6.688,6.688,0,0,1-1.881,1.572,10.651,10.651,0,0,0,1.448-1.76,12.385,12.385,0,0,0,.956-1.932A19.648,19.648,0,0,0,708.312,516.634Z" fill="#f7a747"/><path d="M718.969,518.717a3.747,3.747,0,0,1,.168,1.549,4.249,4.249,0,0,1-.41,1.489,4.593,4.593,0,0,1-1.051,1.348,5.889,5.889,0,0,1-1.812,1.045,7.668,7.668,0,0,0,1.373-1.2,7.065,7.065,0,0,0,.878-1.336A9.971,9.971,0,0,0,718.969,518.717Z" fill="#f7a747"/><path d="M715.093,514.6a17.158,17.158,0,0,1-.379,3.363,19.923,19.923,0,0,1-.949,3.248,15.393,15.393,0,0,1-1.557,2.963,9.715,9.715,0,0,1-2.228,2.324,19.175,19.175,0,0,0,1.832-2.637,26.44,26.44,0,0,0,1.374-2.93A46.844,46.844,0,0,0,715.093,514.6Z" fill="#a05132"/><path d="M715.916,517.425a10.571,10.571,0,0,1,1.228-4.132,6.453,6.453,0,0,1,2.874-2.923,15.479,15.479,0,0,0-1.285,1.564c-.37.562-.732,1.124-1.05,1.725C717.035,514.855,716.489,516.116,715.916,517.425Z" fill="#a05132"/><path d="M711.492,507.487a8.166,8.166,0,0,1-1.057,3.382,5.4,5.4,0,0,1-2.507,2.384,12.889,12.889,0,0,0,1.12-1.277,16.771,16.771,0,0,0,.912-1.409C710.523,509.59,711,508.558,711.492,507.487Z" fill="#a05132"/><path d="M717.821,507.215a10.578,10.578,0,0,1-.711,4.252,6.456,6.456,0,0,1-2.493,3.254,15.488,15.488,0,0,0,1.083-1.71c.3-.6.588-1.2.83-1.841C717.026,509.9,717.413,508.584,717.821,507.215Z" fill="#f7a747"/><path d="M714.419,504.759a7.739,7.739,0,0,1,.155,2.52,12.069,12.069,0,0,1-.455,2.421,13.088,13.088,0,0,1-.887,2.227,11.412,11.412,0,0,1-1.252,1.971c.524-1.517,1.081-2.964,1.518-4.469.227-.748.414-1.51.585-2.281A17.349,17.349,0,0,0,714.419,504.759Z" fill="#a05132"/><path d="M720.264,510.806a8.043,8.043,0,0,1-.468,2.515,12.879,12.879,0,0,1-1.033,2.3,14,14,0,0,1-1.4,2.018,12.178,12.178,0,0,1-1.691,1.692c.878-1.39,1.77-2.705,2.561-4.1.4-.692.769-1.4,1.123-2.132A18.248,18.248,0,0,0,720.264,510.806Z" fill="#f7a747"/><path d="M710.212,495.734a11.844,11.844,0,0,1,.957,3.037,9.539,9.539,0,0,1,.16,1.594,4.706,4.706,0,0,1-.2,1.6,14.737,14.737,0,0,0-.186-1.562l-.269-1.539C710.5,497.828,710.308,496.8,710.212,495.734Z" fill="#a05132"/><path d="M708.1,494.989a8.255,8.255,0,0,1,1.577,2.538,6.548,6.548,0,0,1,.52,2.946c-.16-.479-.295-.944-.462-1.4s-.333-.91-.521-1.358C708.853,496.81,708.457,495.924,708.1,494.989Z" fill="#a05132"/><path d="M707.215,495.351a7.257,7.257,0,0,1,1.839,2.108,6.163,6.163,0,0,1,.9,2.652c-.231-.414-.424-.824-.65-1.22s-.438-.793-.677-1.178C708.169,496.928,707.68,496.168,707.215,495.351Z" fill="#ce783f"/><path d="M709.309,495.29a7.274,7.274,0,0,1,1.17,2.541,6.165,6.165,0,0,1,.114,2.8c-.105-.462-.175-.91-.28-1.353s-.2-.884-.318-1.321C709.779,497.072,709.524,496.2,709.309,495.29Z" fill="#ce783f"/><path d="M708.916,499.267a22.5,22.5,0,0,1-1.674-1.921l-1.565-1.995a4.625,4.625,0,0,1,1.069.74,7.812,7.812,0,0,1,.886.943A8.16,8.16,0,0,1,708.916,499.267Z" fill="#a05132"/><path d="M707.608,498.367a14.6,14.6,0,0,1-1.852-1.325c-.58-.481-1.131-.963-1.714-1.477a3.682,3.682,0,0,1,1.08.435,6.526,6.526,0,0,1,.951.656A7.13,7.13,0,0,1,707.608,498.367Z" fill="#a05132"/><path d="M706.993,497.873a12.633,12.633,0,0,1-1.95-.8c-.621-.316-1.221-.632-1.839-1.012a3.715,3.715,0,0,1,1.066.172,6.4,6.4,0,0,1,2.723,1.642Z" fill="#ce783f"/><path d="M706.087,497.661a14.574,14.574,0,0,1-2.206-.378c-.721-.171-1.408-.373-2.154-.529a2.978,2.978,0,0,1,1.143-.123A5.963,5.963,0,0,1,704,496.8,6.823,6.823,0,0,1,706.087,497.661Z" fill="#a05132"/><path d="M705.107,497.7a13.222,13.222,0,0,1-2.517.174c-.837-.011-1.659-.086-2.506-.174a4.644,4.644,0,0,1,1.25-.27,11.032,11.032,0,0,1,3.773.27Z" fill="#ce783f"/><path d="M703.907,497.977a8.621,8.621,0,0,1-1.964.531,17.976,17.976,0,0,1-2.015.185,3.094,3.094,0,0,1,.941-.443,7.2,7.2,0,0,1,3.038-.273Z" fill="#a05132"/><path d="M720.519,475.991s19.206.9,23.283,4.466,11.211,21.934,9.988,30.282-21.086,12-33.271,12Z" fill="#f7a747"/><path d="M743.8,480.457c3.585,3.138,12.993,34.454,11.258,39.264-1.934,5.363-2.706,8.059-2.706,8.059a10.3,10.3,0,0,1-.559-2.145,5.575,5.575,0,0,1-.614,1.094,14.972,14.972,0,0,0-2.662,5.212s-.135-3.333,0-6.329c0-.079.007-.134.011-.2a7.457,7.457,0,0,1-1.71,3.746,9.8,9.8,0,0,0-2.266,5.786,14.377,14.377,0,0,1-1.111-2.544,5.777,5.777,0,0,1-.5,2.115,9.046,9.046,0,0,1-3.214,3.521,5.582,5.582,0,0,0-.423-3.2,23.569,23.569,0,0,0-1.548-2.44,6.324,6.324,0,0,1-2.4,3.19c-4.52,3.428-4.3,5.571-4.3,5.571s-1.14-.241-2.086-2.559a6.481,6.481,0,0,1-1.228,2.559,16.515,16.515,0,0,0-3.349-5.908,20.1,20.1,0,0,0,.973,5.372,14.007,14.007,0,0,1-2.991-3.964c-.964-2.143.357,1.714-1.857,4.5V475.991S739.725,476.889,743.8,480.457Z" fill="#f7a747"/><path d="M735.875,506.69a4.19,4.19,0,0,0,.528-.034,4.691,4.691,0,0,0,3.9-4.141c0-.845-1.475-4.148-4.421-4.148-3.026,0-4.9,3.052-5.565,4.364a1.294,1.294,0,0,0-.073,1.253,1.182,1.182,0,0,0,1.058.477l.5-.009c.1.083.3.278.4.38A5.252,5.252,0,0,0,735.875,506.69Z" fill="#252428"/><path d="M730.959,503.06c.245-.483,2.007-3.971,4.922-3.971,2.439,0,3.264,2.88,3.264,3.425s-.358,3.11-2.834,3.426-3.746-2.132-4.348-2.2S730.491,503.984,730.959,503.06Z" fill="#252428"/><ellipse cx="3.321" cy="3.425" rx="3.321" ry="3.425" transform="translate(732.507 499.089)" fill="#38373c"/><ellipse cx="2.005" cy="2.068" rx="2.005" ry="2.068" transform="translate(733.823 500.446)" fill="#252428"/><ellipse cx="0.619" cy="0.638" rx="0.619" ry="0.638" transform="translate(736.792 500.683)" fill="#fbfcfc"/><path d="M724.433,501.747s8.157,1.586,10.6,5.462,1.807,10.85-3.058,13.365c-2.991,1.547-11.46,2.546-11.46,2.546V501.747Z" fill="#a05132"/><path d="M753.79,510.739c-.383,2.613-2.594,4.767-5.824,6.492-.325-3.548-1.938-9.051-1.515-11.224.51-2.614.816-6.642.816-6.642a29.687,29.687,0,0,0-1.382,4.736,30.221,30.221,0,0,1,.127-7.838c-.644,3.263-1.089,3.68-1.089,3.68s.6-7.47-.714-12.034-2.854-6.034-2.854-6.034l2.252-1.567c.065.05.136.1.194.149C747.878,484.026,755.013,502.391,753.79,510.739Z" fill="#252428"/><path d="M741.355,479.3v2.58s2.348,1.333,3.019,2.856c.464,1.054,1.651,13.318,3.449,23.739h0s1.185,7.22,0,8.862a1.292,1.292,0,0,0,.661-.336,15.994,15.994,0,0,0,.041,2.763,19.308,19.308,0,0,1-.086,5.426,19.659,19.659,0,0,0,1.817-5.968c.022.067.044.128.066.193l0-.008s-1.669,6.427.846,10.959a45.141,45.141,0,0,1,.41-7.789c-.035-.1-.069-.2-.106-.289l-.039-.1c.051.112.1.221.155.332,0,.018-.007.035-.01.053a26.593,26.593,0,0,1,.823,6.468,3.3,3.3,0,0,0,1.454-2.468c.675,5.384,3.35,7.21,3.35,7.21-.6-.826-.708-3.528-.727-4.28.138.106.277.226.413.313a5.5,5.5,0,0,1,1.068,3.967,5.455,5.455,0,0,0,1.132,4.252s-.629-.856,1.383-5.568a10.674,10.674,0,0,0,.891-4.03c.039.106.075.222.115.318.635,1.509,1.963,5.854,1.963,5.854.7-3.712-.705-6-.705-9.566a32.631,32.631,0,0,0-.914-6.71c.026-.2.051-.393.078-.586a16.756,16.756,0,0,1,2.093,6.154,16.8,16.8,0,0,0-.6-9.856,9.94,9.94,0,0,0,5.132,4.716s-2.516-1.571-3.4-6.42c-.03-.164-.049-.327-.077-.492a11.836,11.836,0,0,0,.643-5.262,13.578,13.578,0,0,0-1.068-4.553,5.936,5.936,0,0,1,.817,1.093,12.229,12.229,0,0,0-1.447-4.283,10.368,10.368,0,0,0-2.033-2.511l-.009-.018a6.632,6.632,0,0,0,1.49.673c1.632.49,1.748,1.608,1.749,1.914.269-3.049-1.529-3.152-3.272-5.484a5.819,5.819,0,0,0-3.221-2.172c-.087-.106-.173-.213-.262-.318a2.3,2.3,0,0,0,1.534-1.864c-1.76,1.07-3.829-.611-3.829-.611a2.894,2.894,0,0,1,2.449.22,7.577,7.577,0,0,0-4.43-2.073l-.168-.149a2.494,2.494,0,0,0,1.514-1.6,4.361,4.361,0,0,1-4.2-.657v0c-.788-.631-1.543-1.219-2.231-1.749C744.374,478.829,741.355,479.3,741.355,479.3Zm23.542,31.6c-.238-1.679-.382-3.321-.538-4.888a3.989,3.989,0,0,1,.7,1.52A9.09,9.09,0,0,1,764.9,510.895Z" fill="#ce783f"/><path d="M765.186,498.984c0-.031,0-.053,0-.084C765.188,498.951,765.186,498.984,765.186,498.984Z" fill="#38373c"/><path d="M758.587,488.671a1.744,1.744,0,0,1,.311.248C758.79,488.822,758.693,488.759,758.587,488.671Z" fill="#38373c"/><path d="M747.42,483.107a6.231,6.231,0,0,1,1.585,1.366,15.864,15.864,0,0,1,1.332,1.679c.851,1.163,1.5,2.473,2.442,3.665a10.451,10.451,0,0,0,3.348,2.713,10.056,10.056,0,0,0,3.931,1.165,14.962,14.962,0,0,1-3.713-1.66,12.364,12.364,0,0,1-3.1-2.708c-.872-1.062-1.581-2.432-2.539-3.536A8.194,8.194,0,0,0,747.42,483.107Z" fill="#f7a747"/><path d="M749.185,486.672a9.521,9.521,0,0,1,1.837,1.93,19.674,19.674,0,0,1,1.5,2.269q.68,1.192,1.287,2.434c.385.826.768,1.708,1.241,2.529A15.946,15.946,0,0,0,758.623,500a14.4,14.4,0,0,0,4.543,2.572,20.343,20.343,0,0,1-4.247-3.012,17.009,17.009,0,0,1-3.344-4.126c-.9-1.531-1.606-3.363-2.658-4.881A11.62,11.62,0,0,0,749.185,486.672Z" fill="#a05132"/><path d="M749.865,509.949a10.588,10.588,0,0,1,1.243,2.466,21.578,21.578,0,0,1,.829,2.675c.222.912.419,1.832.584,2.76.149.919.281,1.89.516,2.836a17.707,17.707,0,0,0,2.309,5.193,16.111,16.111,0,0,0,3.655,4,22.823,22.823,0,0,1-3.256-4.321,18.821,18.821,0,0,1-2.1-5.074c-.449-1.766-.643-3.756-1.245-5.562A12.925,12.925,0,0,0,749.865,509.949Z" fill="#a05132"/><path d="M747.946,492.549a9.542,9.542,0,0,1,1.837,1.929,19.574,19.574,0,0,1,1.5,2.27c.452.794.884,1.6,1.286,2.434.386.825.768,1.707,1.242,2.529a15.955,15.955,0,0,0,3.575,4.167,14.42,14.42,0,0,0,4.544,2.573,20.321,20.321,0,0,1-4.247-3.013,17,17,0,0,1-3.345-4.125c-.9-1.532-1.606-3.363-2.657-4.882A11.62,11.62,0,0,0,747.946,492.549Z" fill="#a05132"/><path d="M745.478,481.944a15.029,15.029,0,0,1,2.561,4.547c.317.828.613,1.666.879,2.519.25.845.491,1.744.825,2.6a16.128,16.128,0,0,0,2.808,4.556,14.462,14.462,0,0,0,3.939,3.213,20.861,20.861,0,0,1-3.584-3.592,17.263,17.263,0,0,1-2.586-4.472c-.635-1.6-1.056-3.451-1.843-5.065A11.726,11.726,0,0,0,745.478,481.944Z" fill="#f7a747"/><path d="M746.82,493.166a16.071,16.071,0,0,1,1.5,5.12c.128.891.235,1.786.309,2.686s.1,1.828.239,2.753a17.318,17.318,0,0,0,1.74,5.2,15.85,15.85,0,0,0,3.128,4.209,22.83,22.83,0,0,1-2.7-4.479,18.481,18.481,0,0,1-1.543-5.054c-.271-1.725-.28-3.639-.7-5.423A12.668,12.668,0,0,0,746.82,493.166Z" fill="#a05132"/><path d="M756.185,493.7a6.442,6.442,0,0,1,2.1,1.451,15.654,15.654,0,0,1,1.693,2.015,14.16,14.16,0,0,0,1.773,2.091,5.356,5.356,0,0,0,2.228,1.416,9.266,9.266,0,0,1-1.894-1.819c-.566-.687-1.092-1.4-1.616-2.144a9.553,9.553,0,0,0-1.89-2A4.269,4.269,0,0,0,756.185,493.7Z" fill="#a05132"/><path d="M755.326,516.822a7.319,7.319,0,0,1,1.549,2.171,17.629,17.629,0,0,1,1,2.543,15.945,15.945,0,0,0,1.048,2.648,6.09,6.09,0,0,0,1.679,2.185,10.49,10.49,0,0,1-1.244-2.437c-.329-.863-.612-1.736-.886-2.637a10.681,10.681,0,0,0-1.187-2.6A4.783,4.783,0,0,0,755.326,516.822Z" fill="#a05132"/><path d="M755.472,508.9a7.388,7.388,0,0,1,1.482,2.23,17.635,17.635,0,0,1,.919,2.581,15.968,15.968,0,0,0,.967,2.687,6.158,6.158,0,0,0,1.611,2.249,10.576,10.576,0,0,1-1.169-2.484c-.3-.875-.559-1.759-.8-2.669a10.8,10.8,0,0,0-1.107-2.649A4.853,4.853,0,0,0,755.472,508.9Z" fill="#a05132"/><path d="M753.127,497.629a11.134,11.134,0,0,0,1.649,3.264,11.923,11.923,0,0,0,2.452,2.59,34.078,34.078,0,0,0,2.873,1.849,14.93,14.93,0,0,1,2.7,2.066,8.686,8.686,0,0,0-2.4-2.608c-.928-.725-1.948-1.207-2.824-1.885A15.4,15.4,0,0,1,753.127,497.629Z" fill="#f7a747"/><path d="M754.937,499.381a30.165,30.165,0,0,1,3.831,2.661,17.56,17.56,0,0,1,1.692,1.62,17.142,17.142,0,0,1,1.468,1.935,8.538,8.538,0,0,0-2.784-4.134,10.51,10.51,0,0,0-2.007-1.313A8.1,8.1,0,0,0,754.937,499.381Z" fill="#a05132"/><path d="M753.2,514.288a30.373,30.373,0,0,1,3.769,2.772,17.752,17.752,0,0,1,1.656,1.669,17.275,17.275,0,0,1,1.423,1.977,8.6,8.6,0,0,0-2.689-4.213,10.569,10.569,0,0,0-1.977-1.371A8.189,8.189,0,0,0,753.2,514.288Z" fill="#a05132"/><path d="M754.937,506.007a35.8,35.8,0,0,1,5.163,3.14,22.24,22.24,0,0,1,2.3,2,18.083,18.083,0,0,1,1.961,2.465,10.254,10.254,0,0,0-1.616-2.856,13.268,13.268,0,0,0-2.294-2.211,15.239,15.239,0,0,0-2.654-1.579A12.151,12.151,0,0,0,754.937,506.007Z" fill="#a05132"/><path d="M756.221,513.132a42.471,42.471,0,0,1,3.345,5.459,26.145,26.145,0,0,1,1.248,2.968,20.628,20.628,0,0,1,.762,3.207,11.322,11.322,0,0,0-.3-3.378,15.6,15.6,0,0,0-1.161-3.152,18.073,18.073,0,0,0-1.733-2.775A14.2,14.2,0,0,0,756.221,513.132Z" fill="#f7a747"/><path d="M747.188,487.8a17.171,17.171,0,0,0,.067,3.384,20,20,0,0,0,.646,3.322,15.477,15.477,0,0,0,1.276,3.093,9.719,9.719,0,0,0,2,2.52,19.129,19.129,0,0,1-1.58-2.795,26.683,26.683,0,0,1-1.1-3.044A46.845,46.845,0,0,1,747.188,487.8Z" fill="#f7a747"/><path d="M749.566,506.007a17.067,17.067,0,0,0-.37,3.358,20.3,20.3,0,0,0,.212,3.394,16.028,16.028,0,0,0,.865,3.272,10.22,10.22,0,0,0,1.659,2.825,19.929,19.929,0,0,1-1.2-3.027,27.25,27.25,0,0,1-.7-3.194A47.37,47.37,0,0,1,749.566,506.007Z" fill="#f7a747"/><path d="M751.932,499.174a17.246,17.246,0,0,0,.066,3.384,20.1,20.1,0,0,0,.647,3.322,15.412,15.412,0,0,0,1.276,3.093,9.719,9.719,0,0,0,2,2.52,19.142,19.142,0,0,1-1.58-2.8,26.509,26.509,0,0,1-1.1-3.044A46.854,46.854,0,0,1,751.932,499.174Z" fill="#a05132"/><path d="M755.06,518.256a16.987,16.987,0,0,0,.579,3.32,19.44,19.44,0,0,0,1.141,3.146,14.666,14.666,0,0,0,1.727,2.8,9.087,9.087,0,0,0,2.357,2.089,17.87,17.87,0,0,1-1.981-2.443,24.971,24.971,0,0,1-1.544-2.783A44.987,44.987,0,0,1,755.06,518.256Z" fill="#f7a747"/><path d="M757.421,511.544a10.564,10.564,0,0,0-.869-4.222,6.459,6.459,0,0,0-2.613-3.159,15.571,15.571,0,0,1,1.147,1.668c.32.592.632,1.183.9,1.809C756.527,508.887,756.962,510.191,757.421,511.544Z" fill="#a05132"/><path d="M762.8,518.289a10.567,10.567,0,0,0-.869-4.223,6.463,6.463,0,0,0-2.613-3.159,15.666,15.666,0,0,1,1.147,1.669c.32.592.632,1.182.9,1.809C761.9,515.631,762.338,516.935,762.8,518.289Z" fill="#f7a747"/><path d="M751.445,491.149a7.757,7.757,0,0,0,.893,2.362,12,12,0,0,0,1.41,2.021,13.071,13.071,0,0,0,1.722,1.666,11.3,11.3,0,0,0,1.951,1.283c-1.1-1.167-2.2-2.259-3.219-3.451-.514-.589-1-1.207-1.47-1.84A17.251,17.251,0,0,1,751.445,491.149Z" fill="#a05132"/><path d="M750.83,502.978a8.033,8.033,0,0,0,.468,2.514,12.887,12.887,0,0,0,1.033,2.3,13.986,13.986,0,0,0,1.4,2.017,12.243,12.243,0,0,0,1.691,1.693c-.878-1.39-1.77-2.706-2.561-4.1-.4-.692-.769-1.406-1.123-2.132A18.244,18.244,0,0,1,750.83,502.978Z" fill="#f7a747"/><path d="M724.433,501.321s8.157,1.609,10.6,5.541c.108.174,4.63,6.413,3.283,10.693-1.48,4.7,0,5.678,0,5.678a2.8,2.8,0,0,1-2.161-1.6s1.891,3.609,0,5.758a4.116,4.116,0,0,0-1.391-2.634s.821,1.681,0,2.634a25.132,25.132,0,0,0-2.242-2.142,3.919,3.919,0,0,1,.136,2.142,12.241,12.241,0,0,1-1.478,3.887,10.322,10.322,0,0,0-.863-3.887,6.206,6.206,0,0,1-.57-1.277,18.569,18.569,0,0,0-.376,2.853l-.035,2.094s-2.143-2.232-2.357-3.67a5.428,5.428,0,0,0-1.262-2.523c.206.267.657,1.112.4,3.252a14.474,14.474,0,0,0-2.6-3.363c-1.475-1.3-3.01-5.784-3.01-8.489V501.321Z" fill="#ce783f"/><path d="M720.519,500.857a7.441,7.441,0,0,1,3.459.422c1.289.665,2.17,3.986,1.289,4.59s-2.781,1.136-3.6,1.806-.407.713-1.153.713Z" fill="#4c383d"/><path d="M722.171,503.318c.911-1.044.87-.4.419.534-.473.978-.381,1.234,1.043.932a2.046,2.046,0,0,0,1.509-1.864.575.575,0,0,1,.054-.025,5.988,5.988,0,0,1,.352,1.209c-.006.032-.009.059-.016.092-.339,1.707-2.509,1.675-3.361,1.373S721.259,504.361,722.171,503.318Z" fill="#3d2a2e"/><path d="M737.833,520.813a6.213,6.213,0,0,1-1.114-1.771,15.87,15.87,0,0,1-.781-2c-.473-1.362-.705-2.8-1.259-4.22a10.447,10.447,0,0,0-2.405-3.576,10.044,10.044,0,0,0-3.416-2.267,14.932,14.932,0,0,1,3.062,2.676,12.336,12.336,0,0,1,2.171,3.5c.522,1.271.8,2.788,1.39,4.125A8.193,8.193,0,0,0,737.833,520.813Z" fill="#f7a747"/><path d="M725.7,502.567a5.874,5.874,0,0,1,2.025,1.15,14.124,14.124,0,0,1,1.7,1.693,12.937,12.937,0,0,0,1.777,1.757,4.876,4.876,0,0,0,2.136,1.107,8.417,8.417,0,0,1-1.865-1.5c-.569-.578-1.1-1.184-1.639-1.817a8.654,8.654,0,0,0-1.875-1.662A3.893,3.893,0,0,0,725.7,502.567Z" fill="#a05132"/><path d="M721.207,517.341a7.3,7.3,0,0,1,1.981,1.785,17.539,17.539,0,0,1,1.522,2.268,15.85,15.85,0,0,0,1.6,2.359,6.067,6.067,0,0,0,2.11,1.771,10.466,10.466,0,0,1-1.741-2.111c-.507-.771-.972-1.563-1.434-2.383a10.69,10.69,0,0,0-1.721-2.286A4.789,4.789,0,0,0,721.207,517.341Z" fill="#a05132"/><path d="M728.45,506.445a11.161,11.161,0,0,0-.185,3.652,11.96,11.96,0,0,0,.847,3.464,33.865,33.865,0,0,0,1.58,3.03,14.873,14.873,0,0,1,1.318,3.13,8.687,8.687,0,0,0-.794-3.455c-.447-1.089-1.1-2.014-1.519-3.036A15.409,15.409,0,0,1,728.45,506.445Z" fill="#f7a747"/><path d="M729.643,511.531a30.077,30.077,0,0,1,2.823,3.713,17.5,17.5,0,0,1,1.11,2.063,16.954,16.954,0,0,1,.8,2.294A8.52,8.52,0,0,0,733,514.81a10.476,10.476,0,0,0-1.5-1.868A8.079,8.079,0,0,0,729.643,511.531Z" fill="#a05132"/><path d="M727.4,519.2a30.181,30.181,0,0,1,3.769,2.772,17.737,17.737,0,0,1,1.655,1.668,17.228,17.228,0,0,1,1.424,1.977,8.6,8.6,0,0,0-2.69-4.213,10.537,10.537,0,0,0-1.977-1.371A8.134,8.134,0,0,0,727.4,519.2Z" fill="#a05132"/><path d="M733.245,506.7a35.674,35.674,0,0,1,2.668,5.421,22.075,22.075,0,0,1,.864,2.924,18.021,18.021,0,0,1,.33,3.132,10.256,10.256,0,0,0,.172-3.277,13.371,13.371,0,0,0-.748-3.1,15.263,15.263,0,0,0-1.391-2.758A12.122,12.122,0,0,0,733.245,506.7Z" fill="#a05132"/><path d="M725.775,506.71a17.081,17.081,0,0,0,.066,3.383,20,20,0,0,0,.646,3.322,15.429,15.429,0,0,0,1.277,3.094,9.673,9.673,0,0,0,2,2.519,19.139,19.139,0,0,1-1.581-2.8,26.541,26.541,0,0,1-1.1-3.043A46.752,46.752,0,0,1,725.775,506.71Z" fill="#f7a747"/><path d="M732.725,516.634a7.177,7.177,0,0,0-.085,2.176,8.416,8.416,0,0,0,.495,2.123,7.522,7.522,0,0,0,1.131,1.96,6.7,6.7,0,0,0,1.881,1.572,10.693,10.693,0,0,1-1.447-1.76,12.3,12.3,0,0,1-.957-1.932A19.648,19.648,0,0,1,732.725,516.634Z" fill="#f7a747"/><path d="M722.068,518.717a3.746,3.746,0,0,0-.168,1.549,4.271,4.271,0,0,0,.411,1.489,4.577,4.577,0,0,0,1.051,1.348,5.9,5.9,0,0,0,1.811,1.045,7.7,7.7,0,0,1-1.373-1.2,7.113,7.113,0,0,1-.877-1.336A9.973,9.973,0,0,1,722.068,518.717Z" fill="#f7a747"/><path d="M725.945,514.6a17.152,17.152,0,0,0,.378,3.363,19.92,19.92,0,0,0,.95,3.248,15.444,15.444,0,0,0,1.556,2.963,9.717,9.717,0,0,0,2.228,2.324,19.175,19.175,0,0,1-1.832-2.637,26.82,26.82,0,0,1-1.374-2.93A46.7,46.7,0,0,1,725.945,514.6Z" fill="#a05132"/><path d="M725.121,517.425a10.554,10.554,0,0,0-1.228-4.132,6.456,6.456,0,0,0-2.873-2.923,15.6,15.6,0,0,1,1.285,1.564c.37.562.732,1.124,1.049,1.725C724,514.855,724.548,516.116,725.121,517.425Z" fill="#a05132"/><path d="M729.546,507.487a8.136,8.136,0,0,0,1.057,3.382,5.394,5.394,0,0,0,2.506,2.384,12.9,12.9,0,0,1-1.12-1.277c-.321-.459-.636-.918-.912-1.409C730.515,509.59,730.042,508.558,729.546,507.487Z" fill="#a05132"/><path d="M723.217,507.215a10.545,10.545,0,0,0,.711,4.252,6.455,6.455,0,0,0,2.492,3.254,15.8,15.8,0,0,1-1.083-1.71c-.3-.6-.588-1.2-.829-1.841C724.011,509.9,723.625,508.584,723.217,507.215Z" fill="#f7a747"/><path d="M726.619,504.759a7.713,7.713,0,0,0-.156,2.52,12.07,12.07,0,0,0,.456,2.421,13,13,0,0,0,.887,2.227,11.292,11.292,0,0,0,1.252,1.971c-.525-1.517-1.082-2.964-1.519-4.469-.226-.748-.414-1.51-.584-2.281A17.046,17.046,0,0,1,726.619,504.759Z" fill="#a05132"/><path d="M720.774,510.806a8.044,8.044,0,0,0,.467,2.515,12.805,12.805,0,0,0,1.034,2.3,13.9,13.9,0,0,0,1.4,2.018,12.175,12.175,0,0,0,1.691,1.692c-.878-1.39-1.77-2.705-2.561-4.1-.4-.692-.769-1.4-1.123-2.132A18.244,18.244,0,0,1,720.774,510.806Z" fill="#f7a747"/><path d="M730.826,495.734a11.811,11.811,0,0,0-.958,3.037,9.643,9.643,0,0,0-.16,1.594,4.707,4.707,0,0,0,.2,1.6,14.737,14.737,0,0,1,.185-1.562l.269-1.539C730.533,497.828,730.73,496.8,730.826,495.734Z" fill="#a05132"/><path d="M732.942,494.989a8.258,8.258,0,0,0-1.578,2.538,6.548,6.548,0,0,0-.519,2.946c.159-.479.3-.944.462-1.4s.333-.91.521-1.358C732.185,496.81,732.58,495.924,732.942,494.989Z" fill="#a05132"/><path d="M733.822,495.351a7.257,7.257,0,0,0-1.839,2.108,6.177,6.177,0,0,0-.9,2.652c.231-.414.424-.824.649-1.22s.439-.793.677-1.178C732.869,496.928,733.358,496.168,733.822,495.351Z" fill="#ce783f"/><path d="M731.729,495.29a7.276,7.276,0,0,0-1.171,2.541,6.179,6.179,0,0,0-.114,2.8c.106-.462.175-.91.28-1.353s.2-.884.318-1.321C731.258,497.072,731.513,496.2,731.729,495.29Z" fill="#ce783f"/><path d="M732.122,499.267a22.7,22.7,0,0,0,1.674-1.921l1.564-1.995a4.648,4.648,0,0,0-1.069.74,7.806,7.806,0,0,0-.886.943A8.155,8.155,0,0,0,732.122,499.267Z" fill="#a05132"/><path d="M733.429,498.367a14.607,14.607,0,0,0,1.853-1.325c.58-.481,1.13-.963,1.714-1.477a3.677,3.677,0,0,0-1.081.435,6.516,6.516,0,0,0-.95.656A7.113,7.113,0,0,0,733.429,498.367Z" fill="#a05132"/><path d="M734.044,497.873a12.594,12.594,0,0,0,1.95-.8c.621-.316,1.221-.632,1.839-1.012a3.72,3.72,0,0,0-1.066.172,6.4,6.4,0,0,0-2.723,1.642Z" fill="#ce783f"/><path d="M734.95,497.661a14.587,14.587,0,0,0,2.207-.378c.72-.171,1.407-.373,2.153-.529a2.976,2.976,0,0,0-1.143-.123,5.975,5.975,0,0,0-1.126.165A6.824,6.824,0,0,0,734.95,497.661Z" fill="#a05132"/><path d="M735.931,497.7a13.205,13.205,0,0,0,2.516.174c.837-.011,1.66-.086,2.507-.174a4.658,4.658,0,0,0-1.251-.27,11.027,11.027,0,0,0-3.772.27Z" fill="#ce783f"/><path d="M737.13,497.977a8.63,8.63,0,0,0,1.965.531,17.96,17.96,0,0,0,2.014.185,3.1,3.1,0,0,0-.94-.443,7.206,7.206,0,0,0-3.039-.273Z" fill="#a05132"/></g></svg>
