<svg width="96px" height="96px" viewBox="-6.85 0 96 96" xmlns="http://www.w3.org/2000/svg"><g transform="translate(-679.373 -40.981)"><path d="M707.979,59.744s-14.722-12.093-20.505-16.562-9.464-2.1-7.624,6.835,3.265,27.98,12.674,34.89Z" fill="#f7a747"/><path d="M681.669,52.406s-2.125-6.858,0-8.172,12.377,7.1,15.006,14.721,4.071,18.928,4.071,18.928v3.96s-9.908-4.09-13.535-8.429S682.483,59.216,681.669,52.406Z" fill="#fff"/><path d="M699.567,75.848s-12.093-22.413-12.882-18.207,2.752,17.876,11.366,19.98Z" fill="#c6c5b3"/><path d="M720.51,57.641s-11.288-4.206-14.6-1.314c-4.181,3.653-7.573,6.195-9.915,14.007s-9.678,15.7-12.488,30.685,14.591,19.29,20.47,26.6,7.444,9.361,16.53,9.361Z" fill="#f7a747"/><path d="M703.98,127.62c5.879,7.31,7.444,9.361,16.53,9.361V96.244c-11.9,0-10.585,2.67-14.323.729s-8.019-12.053-11.905-10.6-10.028,11.117-10.772,14.649C680.7,116,698.1,120.309,703.98,127.62Z" fill="#f5f1db"/><path d="M720.51,98.857s-8.439-.9-8.439,2.894,4.762,7.6,8.439,7.6Z" fill="#38373c"/><path d="M716.291,106.272s-3.316-3.075-1.146-3.255S719.868,108.3,716.291,106.272Z" fill="#252428"/><path d="M720.51,108.111s0,5.094-7.845,3.784c-3.473-.58-11.345-6.847-11.915-5.9-1.183,1.96,7.93,5.477,9.88,11.957S714.442,127,720.51,127Z" fill="#252428"/><path d="M720.51,114.742s-6.425-.308-7.587,1.145,1.873,11.913,3.794,12.882a9.367,9.367,0,0,0,3.793.968Z" fill="#f37777"/><path d="M710.688,85.71c-.563-1.348-1.635-4.2-4.563-3.51a18.165,18.165,0,0,0-4.4,1.554.192.192,0,0,0,.041.352,2.084,2.084,0,0,1,1.171.727,6.316,6.316,0,0,0,3.116,2.517c1.153.4,2.8-.461,3.815-.46a2.2,2.2,0,0,1,1.12.642.2.2,0,0,0,.311-.223C711.092,86.751,710.833,86.056,710.688,85.71Z" fill="#3d2a2e"/><ellipse cx="2.535" cy="2.614" rx="2.535" ry="2.614" transform="translate(703.981 82.169)" fill="#4c383d"/><ellipse cx="1.53" cy="1.578" rx="1.53" ry="1.578" transform="translate(704.985 83.204)" fill="#3d2a2e"/><ellipse cx="0.472" cy="0.487" rx="0.472" ry="0.487" transform="translate(704.835 83.385)" fill="#fbfcfc"/><path d="M712.1,82s2.68,1.988,4.145,1.5.15-7.062-.639-6.931-.115,2.629-1.1,4.469S711.482,80.074,712.1,82Z" fill="#c68032"/><path d="M733.058,59.744s14.722-12.093,20.506-16.562,9.464-2.1,7.623,6.835S757.922,78,748.513,84.907Z" fill="#f7a747"/><path d="M759.369,52.406s2.124-6.858,0-8.172-12.378,7.1-15.006,14.721-4.072,18.928-4.072,18.928v3.96s9.908-4.09,13.536-8.429S758.554,59.216,759.369,52.406Z" fill="#fff"/><path d="M741.471,75.848s12.093-22.413,12.881-18.207-2.752,17.876-11.366,19.98Z" fill="#c6c5b3"/><path d="M720.527,57.641s11.288-4.206,14.6-1.314c4.182,3.653,7.574,6.195,9.915,14.007s9.678,15.7,12.489,30.685-14.592,19.29-20.471,26.6-7.444,9.361-16.53,9.361Z" fill="#f7a747"/><path d="M737.057,127.62c-5.879,7.31-7.444,9.361-16.53,9.361V96.244c11.9,0,10.585,2.67,14.324.729s8.018-12.053,11.9-10.6,10.029,11.117,10.773,14.649C760.338,116,742.936,120.309,737.057,127.62Z" fill="#f5f1db"/><path d="M720.527,98.857s8.439-.9,8.439,2.894-4.762,7.6-8.439,7.6Z" fill="#38373c"/><path d="M724.747,106.272s3.315-3.075,1.145-3.255S721.17,108.3,724.747,106.272Z" fill="#252428"/><path d="M720.527,108.111s0,5.094,7.845,3.784c3.473-.58,11.345-6.847,11.916-5.9,1.183,1.96-7.931,5.477-9.88,11.957S726.6,127,720.527,127Z" fill="#252428"/><path d="M720.527,114.742s6.425-.308,7.587,1.145-1.872,11.913-3.793,12.882a9.37,9.37,0,0,1-3.794.968Z" fill="#f37777"/><path d="M730.349,85.71c.563-1.348,1.635-4.2,4.563-3.51a18.18,18.18,0,0,1,4.4,1.554.192.192,0,0,1-.042.352,2.084,2.084,0,0,0-1.17.727,6.319,6.319,0,0,1-3.117,2.517c-1.153.4-2.8-.461-3.814-.46a2.192,2.192,0,0,0-1.12.642.2.2,0,0,1-.311-.223C729.945,86.751,730.2,86.056,730.349,85.71Z" fill="#3d2a2e"/><ellipse cx="2.535" cy="2.614" rx="2.535" ry="2.614" transform="translate(731.988 82.169)" fill="#4c383d"/><ellipse cx="1.53" cy="1.578" rx="1.53" ry="1.578" transform="translate(732.992 83.204)" fill="#3d2a2e"/><ellipse cx="0.472" cy="0.487" rx="0.472" ry="0.487" transform="translate(735.258 83.385)" fill="#fbfcfc"/><path d="M728.941,82s-2.681,1.988-4.145,1.5-.15-7.062.639-6.931.115,2.629,1.1,4.469S729.555,80.074,728.941,82Z" fill="#c68032"/></g></svg>
