<svg width="96px" height="96px" viewBox="-7.35 0 96 96" xmlns="http://www.w3.org/2000/svg"><g transform="translate(-423.457 -605.862)"><path d="M464.1,610.1s-18.4,1.136-19.669,7.553-3.316,18.95-2.78,23.684,3.453,12.646,5.921,21.708,5.483,31.143,7.341,34.7,9.187,4.116,9.187,4.116Z" fill="#393e46"/><path d="M427.792,617.574c2.481.125,12.4,19.972,12.4,19.972l7.13-27.538a51.673,51.673,0,0,0-8.922-1.984C435.224,607.832,427.792,617.574,427.792,617.574Z" fill="#664544"/><path d="M464.1,606.1s-22.413,1.136-23.962,7.553-4.039,18.95-3.386,23.683,4.206,12.646,7.213,21.709,6.679,31.143,8.943,34.7S464.1,697.86,464.1,697.86Z" fill="#606470"/><path d="M464.1,682.4s-9.956-1.067-9.956,3.413,5.618,8.961,9.956,8.961Z" fill="#393e46"/><path d="M459.126,691.147s-3.911-3.627-1.351-3.84S463.346,693.543,459.126,691.147Z" fill="#232931"/><path d="M453.719,641.083c-.755-1.807-2.192-5.635-6.118-4.706a24.33,24.33,0,0,0-5.9,2.084.257.257,0,0,0,.056.472,2.793,2.793,0,0,1,1.569.974,8.456,8.456,0,0,0,4.178,3.374c1.546.536,3.755-.617,5.114-.616a2.948,2.948,0,0,1,1.5.861.264.264,0,0,0,.417-.3C454.26,642.479,453.913,641.548,453.719,641.083Z" fill="#393e46"/><ellipse cx="3.398" cy="3.504" rx="3.398" ry="3.504" transform="translate(444.726 636.336)" fill="#f7a747"/><ellipse cx="2.052" cy="2.116" rx="2.052" ry="2.116" transform="translate(446.072 637.724)" fill="#3d2a2e"/><ellipse cx="0.633" cy="0.653" rx="0.633" ry="0.653" transform="translate(445.871 637.966)" fill="#fbfcfc"/><path d="M447.327,610.008s-3.865-5.187-7.642-3.958-11.216,11.8-14.828,13.339.637,10.88,2.975,13.774,10.034-20.674,11.6-23.155,5.608,2.254,5.608,2.254Z" fill="#606470"/><path d="M457.457,627.486c-.842,0-.186,4-.93,5.489s-3.535.093-3.442.931,3.256,3,4.93,2.429S458.2,627.486,457.457,627.486Z" fill="#393e46"/><path d="M464.1,610.1s18.4,1.136,19.668,7.553,3.316,18.95,2.78,23.684-3.453,12.646-5.921,21.708-5.483,31.143-7.34,34.7-9.187,4.116-9.187,4.116Z" fill="#393e46"/><path d="M500.415,617.574c-2.481.125-12.4,19.972-12.4,19.972l-7.13-27.538a51.673,51.673,0,0,1,8.922-1.984C492.983,607.832,500.415,617.574,500.415,617.574Z" fill="#664544"/><path d="M464.1,606.1s22.412,1.136,23.961,7.553,4.04,18.95,3.387,23.683-4.207,12.646-7.214,21.709-6.679,31.143-8.942,34.7S464.1,697.86,464.1,697.86Z" fill="#606470"/><path d="M464.1,682.4s9.955-1.067,9.955,3.413-5.617,8.961-9.955,8.961Z" fill="#393e46"/><path d="M469.082,691.147s3.911-3.627,1.351-3.84S464.862,693.543,469.082,691.147Z" fill="#232931"/><path d="M474.489,641.083c.755-1.807,2.192-5.635,6.117-4.706a24.313,24.313,0,0,1,5.9,2.084.257.257,0,0,1-.055.472,2.793,2.793,0,0,0-1.569.974,8.464,8.464,0,0,1-4.179,3.374c-1.545.536-3.754-.617-5.113-.616a2.944,2.944,0,0,0-1.5.861.263.263,0,0,1-.417-.3C473.947,642.479,474.294,641.548,474.489,641.083Z" fill="#393e46"/><ellipse cx="3.398" cy="3.504" rx="3.398" ry="3.504" transform="translate(476.686 636.336)" fill="#f7a747"/><ellipse cx="2.052" cy="2.116" rx="2.052" ry="2.116" transform="translate(478.032 637.724)" fill="#3d2a2e"/><ellipse cx="0.633" cy="0.653" rx="0.633" ry="0.653" transform="translate(481.07 637.966)" fill="#fbfcfc"/><path d="M480.881,610.008s3.864-5.187,7.642-3.958,11.215,11.8,14.828,13.339-.638,10.88-2.975,13.774-10.034-20.674-11.605-23.155-5.608,2.254-5.608,2.254Z" fill="#606470"/><path d="M470.75,627.486c.843,0,.186,4,.931,5.489s3.535.093,3.442.931-3.256,3-4.931,2.429S470.006,627.486,470.75,627.486Z" fill="#393e46"/></g></svg>
