<?xml version="1.0" ?><!DOCTYPE svg  PUBLIC '-//W3C//DTD SVG 1.1//EN'  'http://www.w3.org/Graphics/SVG/1.1/DTD/svg11.dtd'><svg width="512px" height="512px" viewBox="0 0 512 512" id="Layer_1" style="enable-background:new 0 0 512 512;" version="1.1" xml:space="preserve" xmlns="http://www.w3.org/2000/svg" xmlns:xlink="http://www.w3.org/1999/xlink"><style type="text/css">
	.st0{fill:#EEEDF2;}
	.st1{fill:none;stroke:#1E247E;stroke-width:6;stroke-linecap:round;stroke-miterlimit:10;}
	.st2{fill:#EFC12F;stroke:#1E247E;stroke-width:6;stroke-linecap:round;stroke-miterlimit:10;}
	.st3{fill:none;stroke:#1E247E;stroke-width:3;stroke-linecap:round;stroke-miterlimit:10;}
	.st4{fill:#FFFFFF;stroke:#1E247E;stroke-width:3;stroke-linecap:round;stroke-miterlimit:10;}
	.st5{fill:#FCF5F2;stroke:#1E247E;stroke-width:5;stroke-linecap:round;stroke-miterlimit:10;}
	.st6{fill:#FCF5F2;stroke:#1E247E;stroke-width:6;stroke-linecap:round;stroke-miterlimit:10;}
	.st7{fill:#1E247E;}
	.st8{fill:none;stroke:#1E247E;stroke-width:4;stroke-linecap:round;stroke-miterlimit:10;}
	.st9{fill:#EAB8B1;}
	.st10{fill:#DC9695;stroke:#1E247E;stroke-width:4;stroke-linecap:round;stroke-miterlimit:10;}
	.st11{fill:#EECED1;stroke:#1E247E;stroke-width:3;stroke-linecap:round;stroke-miterlimit:10;}
	.st12{fill:#CB7272;stroke:#1E247E;stroke-width:3;stroke-linecap:round;stroke-miterlimit:10;}
	.st13{fill:#D3D5E7;stroke:#1E247E;stroke-width:6;stroke-linecap:round;stroke-miterlimit:10;}
	.st14{fill:#D3D5E7;}
	.st15{fill:#FFFFFF;stroke:#1E247E;stroke-width:5;stroke-linecap:round;stroke-miterlimit:10;}
	.st16{fill:#FFFFFF;stroke:#1E247E;stroke-width:4;stroke-linecap:round;stroke-miterlimit:10;}
	.st17{fill:#ECECEE;}
	.st18{fill:#DA867D;stroke:#1E247E;stroke-width:4;stroke-linecap:round;stroke-miterlimit:10;}
	.st19{fill:#FCF5F2;stroke:#1E247E;stroke-width:4;stroke-linecap:round;stroke-miterlimit:10;}
	.st20{fill:#69AEF8;stroke:#1E247E;stroke-width:6;stroke-linecap:round;stroke-miterlimit:10;}
	.st21{opacity:0.4;fill:#FFFFFF;}
	.st22{opacity:0.7;fill:#FFFFFF;}
	.st23{fill:#69ADF7;stroke:#1E247E;stroke-width:2.5;stroke-linecap:round;stroke-miterlimit:10;}
	.st24{fill:none;stroke:#FFFFFF;stroke-width:7;stroke-linecap:round;stroke-miterlimit:10;}
	.st25{fill:none;stroke:#1E247E;stroke-width:2.5;stroke-linecap:round;stroke-miterlimit:10;}
	.st26{fill:#F0C330;stroke:#1E247E;stroke-width:6;stroke-linecap:round;stroke-miterlimit:10;}
	.st27{opacity:0.3;}
	.st28{fill:#FFFFFF;}
	.st29{fill:#79CAA1;stroke:#1E247E;stroke-width:6;stroke-linecap:round;stroke-miterlimit:10;}
	.st30{fill:#DA867D;stroke:#1E247E;stroke-width:6;stroke-linecap:round;stroke-miterlimit:10;}
	.st31{fill:#FFFFFF;stroke:#1E247E;stroke-width:6;stroke-linecap:round;stroke-miterlimit:10;}
	.st32{fill:#DBE7FE;stroke:#1E247E;stroke-width:5;stroke-linecap:round;stroke-miterlimit:10;}
	.st33{fill:#F2F3F3;}
	.st34{fill:none;stroke:#1E247E;stroke-width:6;stroke-linecap:round;stroke-linejoin:round;stroke-miterlimit:10;}
	.st35{fill:#DBE7FE;stroke:#1E247E;stroke-width:6;stroke-linecap:round;stroke-linejoin:round;stroke-miterlimit:10;}
	.st36{fill:#EFC230;stroke:#1E247E;stroke-width:6;stroke-linecap:round;stroke-linejoin:round;stroke-miterlimit:10;}
	.st37{fill:none;stroke:#1E247E;stroke-width:3;stroke-linecap:round;stroke-linejoin:round;stroke-miterlimit:10;}
	.st38{fill:#F0C330;stroke:#1E247E;stroke-width:6;stroke-linecap:round;stroke-linejoin:round;stroke-miterlimit:10;}
	.st39{fill:#79CAA1;stroke:#1E247E;stroke-width:6;stroke-linecap:round;stroke-linejoin:round;stroke-miterlimit:10;}
	.st40{fill:#FFFFFF;stroke:#1E247E;stroke-width:6;stroke-linecap:round;stroke-linejoin:round;stroke-miterlimit:10;}
	.st41{fill:#DA867D;stroke:#1E247E;stroke-width:6;stroke-linecap:round;stroke-linejoin:round;stroke-miterlimit:10;}
	.st42{fill:#DBE7FE;stroke:#1E247E;stroke-width:6;stroke-linejoin:round;stroke-miterlimit:10;}
	.st43{fill:none;stroke:#1E247E;stroke-width:6;stroke-linejoin:round;stroke-miterlimit:10;}
	.st44{opacity:0.7;}
	.st45{fill:#FFFFFF;stroke:#1E247E;stroke-width:6;stroke-linejoin:round;stroke-miterlimit:10;}
	.st46{fill:none;stroke:#FFFFFF;stroke-width:3;stroke-linecap:round;stroke-linejoin:round;stroke-miterlimit:10;}
	.st47{fill:none;stroke:#1E247E;stroke-width:5;stroke-linecap:round;stroke-miterlimit:10;}
	.st48{fill:#DBE7FE;stroke:#1E247E;stroke-width:6;stroke-linecap:round;stroke-miterlimit:10;}
	.st49{opacity:0.1;fill:#BDBDBD;}
	.st50{fill:#69AEF8;stroke:#1E247E;stroke-width:6;stroke-linecap:round;stroke-linejoin:round;stroke-miterlimit:10;}
	.st51{fill:#79CAA1;stroke:#1E247E;stroke-width:5;stroke-miterlimit:10;}
	.st52{fill:#D2D4E6;stroke:#1E247E;stroke-width:5;stroke-linecap:round;stroke-miterlimit:10;}
	.st53{fill:#69AEF8;stroke:#1E247E;stroke-width:5;stroke-miterlimit:10;}
	.st54{opacity:0.2;fill:none;stroke:#1E247E;stroke-width:5;stroke-linecap:round;stroke-miterlimit:10;}
	.st55{fill:none;stroke:#1E247E;stroke-width:2.5;stroke-linecap:round;stroke-linejoin:round;stroke-miterlimit:10;}
	.st56{fill:#69AEF8;stroke:#1E247E;stroke-width:6;stroke-miterlimit:10;}
	.st57{fill:#DBE7FE;}
	.st58{fill:#FFFFFF;stroke:#1E247E;stroke-width:6;stroke-miterlimit:10;}
	.st59{fill:#D9857D;stroke:#1E247E;stroke-width:5;stroke-miterlimit:10;}
	.st60{fill:none;stroke:#D3D5E7;stroke-width:4.7904;stroke-linecap:round;stroke-miterlimit:10;}
	.st61{fill:#D2D4E6;stroke:#D3D5E7;stroke-width:4.7904;stroke-linecap:round;stroke-miterlimit:10;}
	.st62{fill:#D2D4E6;stroke:#D3D5E7;stroke-width:5.5;stroke-linecap:round;stroke-miterlimit:10;}
	.st63{fill:none;stroke:#D3D5E7;stroke-width:5.5;stroke-linecap:round;stroke-miterlimit:10;}
	.st64{fill:#79CAA1;}
	.st65{fill:#F0C330;}
	.st66{fill:#79CAA1;stroke:#1E247E;stroke-width:6;stroke-miterlimit:10;}
	.st67{opacity:0.8;fill:#FFFFFF;}
	.st68{fill:#DA867D;stroke:#1E247E;stroke-width:6;stroke-miterlimit:10;}
	.st69{fill:#F0C330;stroke:#1E247E;stroke-width:5;stroke-miterlimit:10;}
	.st70{fill:#D2D4E6;}
	.st71{fill:#EEBDBC;stroke:#D3D5E7;stroke-width:5.5;stroke-linecap:round;stroke-miterlimit:10;}
	.st72{fill:#D3D5E7;stroke:#D3D5E7;stroke-width:5.5;stroke-linecap:round;stroke-miterlimit:10;}
</style><g><g id="Present"><circle class="st0" cx="255.3" cy="255.6" id="Background_24_" r="215.6"/><g id="Boxes"><g id="Big"><g id="Bottom_84_"><rect class="st70" height="152.8" id="Shadow_6_" width="242.8" x="115.2" y="319.8"/><rect class="st48" height="152.8" id="Shape_99_" width="242.8" x="105.7" y="318.5"/><polyline class="st30" id="Stripe_6_" points="255.2,318.4 255.2,471.2 198.3,471.2 198.3,318.4       "/></g><g id="Top_85_"><g id="Ribbon_bow_1_"><path class="st1" d="M174.9,208.8c9-2.3,19.9-0.9,29.8,7.1c15.2,12.4,22.7,33.6,22,46.3         c-0.3,5.3-30.3,2.7-48.3-6.4c-18-9.1-26.7-25.4-19.5-36.4" id="Left_63_"/><path class="st1" d="M249.4,216c-15.2,12.4-22.7,33.6-22,46.3c0.3,5.3,30.3,2.7,48.3-6.4         c18-9.1,26.7-25.4,19.5-36.4C287.9,208.4,266.9,201.7,249.4,216z" id="Right_61_"/></g><path class="st70" d="M104.4,319.8c-6.6,0-12-5.4-12-12V272c0-6.6,5.4-12,12-12h264.3c6.6,0,12,5.4,12,12v35.9        c0,6.6-5.4,12-12,12" id="Shadow_8_"/><path class="st48" d="M371.2,270.6v35.9c0,6.6-5.4,12-12,12H94.9c-6.6,0-12-5.4-12-12v-35.9        c0-6.6,5.4-12,12-12h264.3C365.8,258.7,371.2,264,371.2,270.6z" id="Shape_98_"/><rect class="st30" height="59" id="Stripe_5_" width="67.3" x="193.4" y="259.1"/><path class="st3" d="M91.1,274.6c0-3.3,2.7-6,6-6" id="Line:_top_left_1_"/><g id="Lines_42_"><line class="st25" id="Bottom_83_" x1="130.3" x2="138.3" y1="289.3" y2="295.5"/><line class="st25" id="Middle_66_" x1="130.3" x2="146.2" y1="281.7" y2="293.9"/><line class="st25" id="Top_86_" x1="141.8" x2="146.2" y1="282.7" y2="286.1"/></g></g><g id="Sparkles_29_"><line class="st24" id="_x33_rd_32_" x1="149.7" x2="154.7" y1="184.2" y2="192.6"/><line class="st24" id="_x32_nd_33_" x1="163.9" x2="163.8" y1="178.9" y2="187.6"/><line class="st24" id="_x31_st_33_" x1="146.5" x2="138.1" y1="199.2" y2="195.2"/></g></g><g id="Small_2_"><g id="Bottom_81_"><rect class="st70" height="87.1" id="Shadow_3_" width="138.4" x="288.7" y="385.5"/><rect class="st30" height="87.1" id="Shape_97_" width="138.4" x="279.2" y="384.1"/><polyline class="st26" id="Stripe_4_" points="364.5,384.1 364.5,471.2 332.1,471.2 332.1,384.1       "/><g id="Lines_41_"><line class="st25" id="Bottom_82_" x1="301.6" x2="309.6" y1="426.8" y2="433"/><line class="st25" id="Middle_65_" x1="301.6" x2="317.6" y1="419.2" y2="431.4"/><line class="st25" id="Top_84_" x1="313.2" x2="317.6" y1="420.2" y2="423.6"/></g></g><g id="Top_83_"><path class="st70" d="M440.1,358.7v19.5c0,4-3.3,7.3-7.3,7.3H283c-4,0-7.3-3.3-7.3-7.3v-19.5        c0-4,3.3-7.3,7.3-7.3h149.8C436.8,351.4,440.1,354.6,440.1,358.7z" id="Shadow_1_"/><g id="Ribbon_bow"><path class="st1" d="M335.5,325.7c8.7,7.1,13,19.2,12.5,26.4c-0.2,3-17.3,1.5-27.5-3.7         c-10.3-5.2-15.2-14.5-11.1-20.8C313.6,321.4,325.6,317.6,335.5,325.7z" id="Left_62_"/><path class="st1" d="M361.1,325.7c-8.7,7.1-13,19.2-12.5,26.4c0.2,3,17.3,1.5,27.5-3.7         c10.3-5.2,15.2-14.5,11.1-20.8C383,321.4,371,317.6,361.1,325.7z" id="Right_60_"/></g><path class="st30" d="M430.6,357.3v19.5c0,4-3.3,7.3-7.3,7.3H273.5c-4,0-7.3-3.3-7.3-7.3v-19.5        c0-4,3.3-7.3,7.3-7.3h149.8C427.3,350,430.6,353.3,430.6,357.3z" id="Shape_96_"/><rect class="st26" height="33.6" id="Stripe_3_" width="38.4" x="329.1" y="350"/></g><g id="Sparkles_28_"><line class="st24" id="_x33_rd_31_" x1="422.6" x2="414.1" y1="315.4" y2="317.6"/><line class="st24" id="_x32_nd_32_" x1="413.9" x2="407" y1="303.1" y2="310.1"/><line class="st24" id="_x31_st_32_" x1="398.5" x2="400.2" y1="303.8" y2="294.6"/></g></g></g><g id="Bottom_line_18_"><line class="st1" x1="451" x2="472.4" y1="471.3" y2="471.3"/><line class="st1" x1="79" x2="436" y1="471.3" y2="471.3"/><line class="st1" x1="43" x2="64.4" y1="471.4" y2="471.4"/></g><g id="Ribbon"><g id="Wire_1_"><path class="st63" d="M231.2,130.3c-5.7-0.5-11.3-1.1-16.8-2"/><path class="st63" d="M297.8,128.1c-6,0.9-12,1.7-18.2,2.2"/><path class="st63" d="M391.2,91.8c-13.4,9.8-29.3,18.1-47,24.5"/><path class="st63" d="M168.4,117c-18.5-6.5-35-15.1-48.8-25.2"/><path class="st71" d="M297.8,128.1c16.5-2.6,32.1-6.6,46.5-11.8"/></g><g id="Elements"><path class="st72" d="M344.3,116.3l-11,39.6c-0.2,0.8-1.2,1.1-1.8,0.5l-33.7-28.4" id="_x33_rd_30_"/><path class="st72" d="M231.2,130.3c7.9,0.7,16,1,24.2,1c8.2,0,16.3-0.4,24.2-1l-23.3,36.2       c-0.4,0.7-1.4,0.7-1.8,0L231.2,130.3" id="_x32_nd_31_"/><path class="st72" d="M214.4,128.4L181,156.5c-0.6,0.5-1.5,0.2-1.8-0.5l-10.8-39       C182.7,122.1,198.2,125.9,214.4,128.4z" id="_x31_st_31_"/></g></g></g></g></svg>