<?xml version="1.0" ?><!DOCTYPE svg  PUBLIC '-//W3C//DTD SVG 1.1//EN'  'http://www.w3.org/Graphics/SVG/1.1/DTD/svg11.dtd'><svg width="512px" height="512px" viewBox="0 0 512 512" id="Layer_1" style="enable-background:new 0 0 512 512;" version="1.1" xml:space="preserve" xmlns="http://www.w3.org/2000/svg" xmlns:xlink="http://www.w3.org/1999/xlink"><style type="text/css">
	.st0{fill:#EEEDF2;}
	.st1{fill:#D3D5E7;}
	.st2{fill:#FFFFFF;stroke:#1E247E;stroke-width:6;stroke-linecap:round;stroke-miterlimit:10;}
	.st3{fill:#DA867D;stroke:#1E247E;stroke-width:6;stroke-linecap:round;stroke-miterlimit:10;}
	.st4{fill:none;stroke:#1E247E;stroke-width:3;stroke-linecap:round;stroke-miterlimit:10;}
	.st5{fill:none;stroke:#1E247E;stroke-width:2.5;stroke-linecap:round;stroke-miterlimit:10;}
	.st6{fill:#F0C330;stroke:#1E247E;stroke-width:6;stroke-linecap:round;stroke-miterlimit:10;}
	.st7{fill:none;stroke:#1E247E;stroke-width:2;stroke-linecap:round;stroke-miterlimit:10;}
	.st8{fill:#DBE7FE;stroke:#1E247E;stroke-width:6;stroke-linecap:round;stroke-miterlimit:10;}
	.st9{fill:none;stroke:#1E247E;stroke-width:6;stroke-linecap:round;stroke-miterlimit:10;}
	.st10{fill:#1E247E;stroke:#1E247E;stroke-width:4;stroke-linecap:round;stroke-miterlimit:10;}
	.st11{fill:none;stroke:#FFFFFF;stroke-width:7;stroke-linecap:round;stroke-miterlimit:10;}
	.st12{fill:#FFFFFF;stroke:#1E247E;stroke-width:6;stroke-linecap:round;stroke-linejoin:round;stroke-miterlimit:10;}
	.st13{fill:#69ADF7;stroke:#1E247E;stroke-width:2.5;stroke-linecap:round;stroke-miterlimit:10;}
	.st14{fill:none;stroke:#1E247E;stroke-width:3;stroke-linecap:round;stroke-linejoin:round;stroke-miterlimit:10;}
	.st15{fill:#FFFFFF;}
	.st16{fill:#F0C330;stroke:#1E247E;stroke-width:6;stroke-miterlimit:10;}
	.st17{fill:#DA867D;stroke:#1E247E;stroke-width:6;stroke-miterlimit:10;}
	.st18{fill:none;stroke:#1E247E;stroke-width:5;stroke-linecap:round;stroke-miterlimit:10;}
	.st19{fill:none;stroke:#D3D5E7;stroke-width:6;stroke-linecap:round;stroke-miterlimit:10;}
	.st20{fill:none;stroke:#D2D4E6;stroke-width:6;stroke-linecap:round;stroke-miterlimit:10;}
	.st21{fill:#EFC230;stroke:#D3D5E7;stroke-width:6;stroke-linecap:round;stroke-miterlimit:10;}
	.st22{fill:#FFFFFF;stroke:#1E247E;stroke-width:6;stroke-miterlimit:10;}
	.st23{fill:none;stroke:#1E247E;stroke-width:4;stroke-linecap:round;stroke-miterlimit:10;}
	.st24{fill:#EFC230;stroke:#1E247E;stroke-width:6;stroke-linecap:round;stroke-miterlimit:10;}
	.st25{fill:#69AEF8;stroke:#1E247E;stroke-width:6;stroke-miterlimit:10;}
	.st26{fill:#FFFFFF;stroke:#1E247E;stroke-width:5;stroke-linecap:round;stroke-miterlimit:10;}
	.st27{fill:#1E247E;}
	.st28{fill:#F0C330;}
	.st29{fill:#DA867D;stroke:#1E247E;stroke-width:5.5;stroke-linecap:round;stroke-miterlimit:10;}
	.st30{fill:#D3D5E7;stroke:#1E247E;stroke-width:5.5;stroke-linecap:round;stroke-miterlimit:10;}
	.st31{fill:#69AEF8;}
	.st32{fill:#D3D5E7;stroke:#1E247E;stroke-width:6;stroke-linejoin:round;stroke-miterlimit:10;}
	.st33{fill:#FCF5F2;stroke:#1E247E;stroke-width:6;stroke-linejoin:round;stroke-miterlimit:10;}
	.st34{fill:#DA867D;stroke:#1E247E;stroke-width:6;stroke-linejoin:round;stroke-miterlimit:10;}
	.st35{fill:#DA867D;}
	.st36{fill:#69AEF8;stroke:#1E247E;stroke-width:6;stroke-linecap:round;stroke-linejoin:round;stroke-miterlimit:10;}
	.st37{fill:#1E247E;stroke:#1E247E;stroke-width:6;stroke-linecap:round;stroke-linejoin:round;stroke-miterlimit:10;}
	.st38{fill:#DBE7FE;stroke:#1E247E;stroke-width:6;stroke-linejoin:round;stroke-miterlimit:10;}
	.st39{fill:#F0C330;stroke:#1E247E;stroke-width:6;stroke-linejoin:round;stroke-miterlimit:10;}
	.st40{fill:none;stroke:#FFFFFF;stroke-width:6;stroke-linecap:round;stroke-linejoin:round;stroke-miterlimit:10;}
	.st41{fill:none;stroke:#1E247E;stroke-width:6;stroke-linecap:round;stroke-linejoin:round;stroke-miterlimit:10;}
</style><g><g id="Discover"><circle class="st0" cx="256" cy="258.7" id="Background_14_" r="215.6"/><g id="Hot_air_balloon"><g id="Shadows_1_"><path class="st1" d="M285.5,408.9v30.5c0,5.8-4.7,10.5-10.5,10.5h-29.1c-5.8,0-10.5-4.7-10.5-10.5v-30.5       H285.5z" id="Basket_shadow"/><path class="st1" d="M393.4,248.8c0,53.4-31.4,99.4-76.8,120.6h0c-11.9,5.6-24.7,9.4-38.2,11.2       c-5.7,0.8-11.5,1.2-17.3,1.2c-0.2,0-0.4,0-0.6,0c-0.2,0-0.4,0-0.6,0c-5.9,0-11.7-0.4-17.4-1.2c-13.5-1.8-26.3-5.6-38.2-11.2       c-45.4-21.2-76.8-67.2-76.8-120.6c0-51.9,29.7-96.9,73.1-118.8c12.9-6.5,27-11,41.8-13c5.7-0.8,11.5-1.2,17.5-1.2       c0.2,0,0.4,0,0.6,0c0.2,0,0.4,0,0.6,0c5.9,0,11.7,0.4,17.4,1.2c14.9,2,29,6.5,41.9,13h0C363.7,152,393.4,196.9,393.4,248.8z" id="Balloon_shadow"/><g id="Rigging_shadow"><line class="st19" id="Left_34_" x1="239.9" x2="198.8" y1="414.9" y2="360.9"/><line class="st21" id="Middle_36_" x1="260.4" x2="260.4" y1="380.4" y2="408.9"/><line class="st19" id="Right_33_" x1="280.9" x2="322" y1="414.9" y2="360.9"/></g></g><g id="Basket"><path class="st22" d="M270.6,444.8h-29.1c-5.8,0-10.5-4.7-10.5-10.5v-30.5h50.1v30.5       C281.1,440.1,276.4,444.8,270.6,444.8z" id="Shape_54_"/><path class="st23" d="M246,435.7c-3.5,0-6.4-2.9-6.4-6.4" id="Line_16_"/></g><g id="Rigging"><line class="st9" id="Left_33_" x1="230.9" x2="199.8" y1="403.8" y2="362.9"/><line class="st24" id="Middle_35_" x1="256" x2="256" y1="375.3" y2="403.8"/><line class="st9" id="RIght_4_" x1="281.1" x2="312.2" y1="403.8" y2="362.9"/></g><g id="Balloon"><path class="st17" d="M256,375.3c-6.1,0-12.1-0.4-17.9-1.2c-13.5-1.8-26.3-5.7-38.2-11.2       c-45.4-21.2-76.8-67.2-76.8-120.6c0-51.9,29.7-96.9,73.1-118.8c12.9-6.5,27-11,41.8-13c5.9-0.8,11.9-1.2,18.1-1.2       c-25.6,0-46.3,59.6-46.3,133S230.4,375.3,256,375.3z" id="Left_part"/><ellipse class="st25" cx="256" cy="242.3" id="Middle_part_1_" rx="46.3" ry="133"/><path class="st16" d="M389,242.3c0,53.4-31.4,99.4-76.8,120.6h0c-11.9,5.6-24.7,9.4-38.2,11.2       c-5.9,0.8-11.9,1.2-17.9,1.2c25.6,0,46.3-59.6,46.3-133s-20.7-133-46.3-133c6.1,0,12.1,0.4,18.1,1.2c14.9,2,29,6.5,41.8,13h0       C359.3,145.5,389,190.4,389,242.3z" id="Right_part"/><g id="Vertical_line_1_"><path class="st23" d="M374,235.9c0.2,2.1,0.3,4.2,0.4,6.3" id="Bottom_36_"/><path class="st23" d="M365.6,201.4c3.2,7.8,5.7,16.1,7.2,24.6" id="Top_38_"/></g><g id="Lines_24_"><line class="st5" id="Buttom" x1="153.5" x2="162.5" y1="229.8" y2="236.7"/><line class="st5" id="Middle_34_" x1="153.5" x2="171.4" y1="221.2" y2="235"/><line class="st5" id="Top_37_" x1="166.5" x2="171.4" y1="222.4" y2="226.2"/></g></g></g><g id="Sparkles_10_"><line class="st11" id="Bottom_35_" x1="348.4" x2="340.5" y1="103" y2="106.6"/><line class="st11" id="Middle_33_" x1="337.8" x2="332.2" y1="92.3" y2="100.3"/><line class="st11" id="Top_36_" x1="322.8" x2="323" y1="95.6" y2="86.3"/></g><g id="Clouds_2_"><g id="Cloud"><g id="Cloud_1_"><path class="st26" d="M202.8,318.9c0,13.2-10.7,23.9-23.9,23.9H81.3c-10.4,0-18.9-8.5-18.9-18.9        c0-0.6,0-1.3,0.1-1.9c0-0.4,0.1-0.9,0.2-1.3c1.3-7.6,7.1-13.7,14.6-15.3c1.3-0.3,2.7-0.4,4-0.4c0.1,0,0.1,0,0.2,0        c-0.1-1-0.2-2.1-0.2-3.2c0-1.7,0.2-3.4,0.5-5.1c2.4-12,12.9-21.1,25.6-21.1c1.7,0,3.3,0.2,4.9,0.5c3.6-11.1,12.3-20,23.2-23.9        c3.4-1.2,7.1-2,10.9-2.2c0.6,0,1.2,0,1.9,0c0.1,0,0.2,0,0.3,0c20.8,0.1,37.6,17,37.6,37.8c0,2.8-0.3,5.5-0.9,8.1        C195.4,298.7,202.8,307.9,202.8,318.9z" id="Shape_53_"/><path class="st26" d="M186,287.3c0,10.8-4.5,20.6-11.8,27.5" id="Line__x23_2_5_"/><path class="st18" d="M106.7,275.5c12,0,22,8.3,24.8,19.4" id="Line__x23_1_5_"/></g><g id="Lines_23_"><path class="st23" d="M160.8,262.2c4.6,2.2,8.4,5.6,11.1,9.9" id="Right_32_"/><path class="st4" d="M76.2,330.7c-1.1-1.9-1.8-4.1-1.8-6.5c0-0.4,0-0.8,0.1-1.3c0-0.3,0.1-0.6,0.1-0.9        c0.2-1.4,0.7-2.6,1.3-3.8" id="Left_32_"/></g></g><g id="Cloud_3_"><g id="Cloud_2_"><path class="st26" d="M224.5,175.4c0,13.2-10.7,23.9-23.9,23.9H103c-10.4,0-18.9-8.5-18.9-18.9        c0-0.6,0-1.3,0.1-1.9c0-0.4,0.1-0.9,0.2-1.3c1.3-7.6,7.1-13.7,14.6-15.3c1.3-0.3,2.7-0.4,4-0.4c0.1,0,0.1,0,0.2,0        c-0.1-1-0.2-2.1-0.2-3.2c0-1.7,0.2-3.4,0.5-5.1c2.4-12,12.9-21.1,25.6-21.1c1.7,0,3.3,0.2,4.9,0.5c3.6-11.1,12.3-20,23.2-23.9        c3.4-1.2,7.1-2,10.9-2.2c0.6,0,1.2,0,1.9,0c0.1,0,0.2,0,0.3,0c20.8,0.1,37.6,17,37.6,37.8c0,2.8-0.3,5.5-0.9,8.1        C217.1,155.2,224.5,164.4,224.5,175.4z" id="Shape_52_"/><path class="st26" d="M207.7,143.8c0,10.8-4.5,20.6-11.8,27.5" id="Line__x23_2_4_"/><path class="st18" d="M128.3,132.1c12,0,22,8.3,24.8,19.4" id="Line__x23_1_4_"/></g><path class="st4" d="M182.5,118.7c4.6,2.2,8.4,5.6,11.1,9.9" id="Line_15_"/></g><g id="Cloud_5_"><g id="Cloud_4_"><path class="st26" d="M456.8,302c0,13.2-10.7,23.9-23.9,23.9h-97.6c-10.4,0-18.9-8.5-18.9-18.9        c0-0.6,0-1.3,0.1-1.9c0-0.4,0.1-0.9,0.2-1.3c1.3-7.6,7.1-13.7,14.6-15.3c1.3-0.3,2.7-0.4,4-0.4c0.1,0,0.1,0,0.2,0        c-0.1-1-0.2-2.1-0.2-3.2c0-1.7,0.2-3.4,0.5-5.1c2.4-12,12.9-21.1,25.6-21.1c1.7,0,3.3,0.2,4.9,0.5c3.6-11.1,12.3-20,23.2-23.9        c3.4-1.2,7.1-2,10.9-2.2c0.6,0,1.2,0,1.9,0c0.1,0,0.2,0,0.3,0c20.8,0.1,37.6,17,37.6,37.8c0,2.8-0.3,5.5-0.9,8.1        C449.3,281.8,456.8,291,456.8,302z" id="Shape_51_"/><path class="st26" d="M440,270.4c0,10.8-4.5,20.6-11.8,27.5" id="Line__x23_2_3_"/><path class="st18" d="M360.6,258.7c12,0,22,8.3,24.8,19.4" id="Line__x23_1_3_"/></g><path class="st4" d="M414.7,245.3c4.6,2.2,8.4,5.6,11.1,9.9" id="Line_14_"/></g></g></g></g></svg>