<?xml version="1.0" ?><!DOCTYPE svg  PUBLIC '-//W3C//DTD SVG 1.1//EN'  'http://www.w3.org/Graphics/SVG/1.1/DTD/svg11.dtd'><svg width="512px" height="512px" viewBox="0 0 512 512" id="Layer_1" style="enable-background:new 0 0 512 512;" version="1.1" xml:space="preserve" xmlns="http://www.w3.org/2000/svg" xmlns:xlink="http://www.w3.org/1999/xlink"><style type="text/css">
	.st0{fill:#EEEDF2;}
	.st1{fill:#D3D5E7;}
	.st2{fill:#FFFFFF;stroke:#1E247E;stroke-width:6;stroke-linecap:round;stroke-miterlimit:10;}
	.st3{fill:#DA867D;stroke:#1E247E;stroke-width:6;stroke-linecap:round;stroke-miterlimit:10;}
	.st4{fill:none;stroke:#1E247E;stroke-width:3;stroke-linecap:round;stroke-miterlimit:10;}
	.st5{fill:none;stroke:#1E247E;stroke-width:2.5;stroke-linecap:round;stroke-miterlimit:10;}
	.st6{fill:#F0C330;stroke:#1E247E;stroke-width:6;stroke-linecap:round;stroke-miterlimit:10;}
	.st7{fill:none;stroke:#1E247E;stroke-width:2;stroke-linecap:round;stroke-miterlimit:10;}
	.st8{fill:#DBE7FE;stroke:#1E247E;stroke-width:6;stroke-linecap:round;stroke-miterlimit:10;}
	.st9{fill:none;stroke:#1E247E;stroke-width:6;stroke-linecap:round;stroke-miterlimit:10;}
	.st10{fill:#1E247E;stroke:#1E247E;stroke-width:4;stroke-linecap:round;stroke-miterlimit:10;}
	.st11{fill:none;stroke:#FFFFFF;stroke-width:7;stroke-linecap:round;stroke-miterlimit:10;}
	.st12{fill:#FFFFFF;stroke:#1E247E;stroke-width:6;stroke-linecap:round;stroke-linejoin:round;stroke-miterlimit:10;}
	.st13{fill:#69ADF7;stroke:#1E247E;stroke-width:2.5;stroke-linecap:round;stroke-miterlimit:10;}
	.st14{fill:none;stroke:#1E247E;stroke-width:3;stroke-linecap:round;stroke-linejoin:round;stroke-miterlimit:10;}
	.st15{fill:#FFFFFF;}
	.st16{fill:#F0C330;stroke:#1E247E;stroke-width:6;stroke-miterlimit:10;}
	.st17{fill:#DA867D;stroke:#1E247E;stroke-width:6;stroke-miterlimit:10;}
	.st18{fill:none;stroke:#1E247E;stroke-width:5;stroke-linecap:round;stroke-miterlimit:10;}
	.st19{fill:none;stroke:#D3D5E7;stroke-width:6;stroke-linecap:round;stroke-miterlimit:10;}
	.st20{fill:none;stroke:#D2D4E6;stroke-width:6;stroke-linecap:round;stroke-miterlimit:10;}
	.st21{fill:#EFC230;stroke:#D3D5E7;stroke-width:6;stroke-linecap:round;stroke-miterlimit:10;}
	.st22{fill:#FFFFFF;stroke:#1E247E;stroke-width:6;stroke-miterlimit:10;}
	.st23{fill:none;stroke:#1E247E;stroke-width:4;stroke-linecap:round;stroke-miterlimit:10;}
	.st24{fill:#EFC230;stroke:#1E247E;stroke-width:6;stroke-linecap:round;stroke-miterlimit:10;}
	.st25{fill:#69AEF8;stroke:#1E247E;stroke-width:6;stroke-miterlimit:10;}
	.st26{fill:#FFFFFF;stroke:#1E247E;stroke-width:5;stroke-linecap:round;stroke-miterlimit:10;}
	.st27{fill:#1E247E;}
	.st28{fill:#F0C330;}
	.st29{fill:#DA867D;stroke:#1E247E;stroke-width:5.5;stroke-linecap:round;stroke-miterlimit:10;}
	.st30{fill:#D3D5E7;stroke:#1E247E;stroke-width:5.5;stroke-linecap:round;stroke-miterlimit:10;}
	.st31{fill:#69AEF8;}
	.st32{fill:#D3D5E7;stroke:#1E247E;stroke-width:6;stroke-linejoin:round;stroke-miterlimit:10;}
	.st33{fill:#FCF5F2;stroke:#1E247E;stroke-width:6;stroke-linejoin:round;stroke-miterlimit:10;}
	.st34{fill:#DA867D;stroke:#1E247E;stroke-width:6;stroke-linejoin:round;stroke-miterlimit:10;}
	.st35{fill:#DA867D;}
	.st36{fill:#69AEF8;stroke:#1E247E;stroke-width:6;stroke-linecap:round;stroke-linejoin:round;stroke-miterlimit:10;}
	.st37{fill:#1E247E;stroke:#1E247E;stroke-width:6;stroke-linecap:round;stroke-linejoin:round;stroke-miterlimit:10;}
	.st38{fill:#DBE7FE;stroke:#1E247E;stroke-width:6;stroke-linejoin:round;stroke-miterlimit:10;}
	.st39{fill:#F0C330;stroke:#1E247E;stroke-width:6;stroke-linejoin:round;stroke-miterlimit:10;}
	.st40{fill:none;stroke:#FFFFFF;stroke-width:6;stroke-linecap:round;stroke-linejoin:round;stroke-miterlimit:10;}
	.st41{fill:none;stroke:#1E247E;stroke-width:6;stroke-linecap:round;stroke-linejoin:round;stroke-miterlimit:10;}
</style><g><g id="Lock_1_"><circle class="st0" cx="256.8" cy="255.7" id="Background_13_" r="215.6"/><g id="Finger_print"><path class="st19" d="M190.6,218.8c1.6-4.5-7.9,17,12.3,27.1"/><path class="st19" d="M142,144c15.4-16,48.4-25.1,72.8-0.3"/><path class="st19" d="M134.3,174.1c3.1-2.8,6.7-6.8,9.5-11.8c6.3-11.4,24.8-28.4,50.7-17.7c25.9,10.7,20.4,37.8,20.4,37.8      s-2.5,13.5-1.2,20.1s7.7,13,11.1,16.2"/><path class="st19" d="M134.3,193.4c2.6-1.9,5.3-4.2,7.4-6.6c5.5-6.3,7.4-9,10.8-15.6c3.4-6.6,11.9-18.8,26.1-17.6      s24.3,8.5,24.4,25.1c0.1,16.6-8.3,30.3,3.2,43.4c3.8,4.3,8,6.7,12,8"/><path class="st19" d="M136.6,209.5c4.8-2.9,10.1-6.3,13.1-9.1c6.5-6.1,8.7-10,11.4-15.9c2.6-5.9,12.2-21.5,22.7-17.6      c10.5,3.9,9.6,12.5,7.6,18.9c-1.9,6-9.3,18.9-15.9,24.9c-4.5,4.2-17.3,14.9-24.9,21.3"/><path class="st20" d="M134.3,210.8c0.7-0.4,1.5-0.9,2.3-1.3"/><path class="st19" d="M140.2,222.6c11.4-6.6,28.7-19.7,38.5-42.6"/><path class="st19" d="M160.3,238.8c0,0,13.9-20,21.8,0.8"/></g><g id="Lock_3_"><path class="st1" d="M353.4,282.5h-3.8c-1.5,0-2.8-1.2-2.8-2.6v-24.6c0-21.3-9.2-40.7-24-54.8      c-14.8-14.1-35.2-22.8-57.6-22.8c-44.9,0-81.6,34.9-81.6,77.5v27.2h-17.3c-14.2,0-25.7,10.6-25.7,23.6v137.1      c0,13,11.5,23.6,25.7,23.6h195.8c14.2,0,25.7-10.6,25.7-23.6V314.2C387.9,296.7,372.4,282.5,353.4,282.5z M217.2,282.5v-27.2      c0-30,24.5-54.5,54.4-54.5c15,0,28.6,6.1,38.4,16c9.9,9.9,16,23.5,16,38.5v27.2H217.2z" id="Shadow_37_"/><g id="Bottom_34_"><path class="st2" d="M340.2,471.9H171.6c-17.6,0-31.9-14.3-31.9-31.9V315c0-17.6,14.3-31.9,31.9-31.9h168.6       c17.6,0,31.9,14.3,31.9,31.9v125C372.1,457.7,357.8,471.9,340.2,471.9z" id="Shape_50_"/><path class="st17" d="M262.8,378.6l6,31.9c0.2,1.2-0.7,2.4-2,2.4h-22c-1.3,0-2.2-1.1-2-2.4l6.1-32       c0.3-1.6-0.5-3.2-1.9-4.1c-5.6-3.3-9.1-9.7-8.4-16.8c0.8-8,7.3-14.6,15.3-15.5c10.5-1.2,19.4,7,19.4,17.3c0,6.4-3.5,12-8.6,15       C263.2,375.4,262.5,377,262.8,378.6z" id="Keyhole"/><path class="st5" d="M260,350c2.6,1.3,4.5,3.7,5.4,6.5" id="Keyhole_line"/><path class="st5" d="M358.2,443.9c-0.9,7.9-7.2,14.2-15.1,15.1" id="Bottom_line_10_"/><g id="Bottom_lines"><line class="st5" x1="179.5" x2="196.7" y1="324.8" y2="338"/><line class="st5" x1="179.5" x2="188.1" y1="333.1" y2="339.7"/><line class="st5" x1="192" x2="196.7" y1="326" y2="329.6"/></g><g id="Top_lines"><line class="st5" x1="318.6" x2="335.8" y1="423.1" y2="436.3"/><line class="st5" x1="318.6" x2="327.2" y1="431.4" y2="438"/><line class="st5" x1="331.1" x2="335.8" y1="424.3" y2="427.9"/></g></g><g id="Top_35_"><path class="st6" d="M310.9,199.2c-13.9-14.4-33.1-23.3-54.1-23.3c-42.2,0-76.7,35.7-76.7,79.4v27.8h22.7v-27.8       c0-30.7,24.3-55.9,54-55.9c14.8,0,28.3,6.3,38.1,16.4c9.8,10.1,15.8,24.1,15.8,39.5v27.8h22.7v-27.8       C333.5,233.4,324.8,213.6,310.9,199.2z" id="Shape_49_"/><g id="Lines_22_"><line class="st5" id="Right_31_" x1="321.5" x2="332.9" y1="241.8" y2="241.8"/><line class="st5" id="Left_bottom_1_" x1="178.2" x2="189.5" y1="270.8" y2="270.8"/><line class="st5" id="Left_top_1_" x1="202" x2="213.3" y1="201.2" y2="201.2"/></g></g></g><g id="Bottom_line_9_"><line class="st2" x1="407" x2="470.7" y1="471.9" y2="471.9"/><line class="st2" x1="73.7" x2="391.5" y1="471.9" y2="471.9"/><line class="st2" x1="39.5" x2="59.7" y1="471.9" y2="471.9"/></g><g id="Sparkles_9_"><line class="st11" id="Bottom_33_" x1="340.7" x2="332.9" y1="154.9" y2="158.7"/><line class="st11" id="Middle_32_" x1="329.8" x2="324.4" y1="144.6" y2="152.8"/><line class="st11" id="Top_34_" x1="314.9" x2="314.7" y1="148.3" y2="139"/></g><g id="Sound_1_"><path class="st18" d="M404.8,231.1l-16.3,7.1c-0.2,0.1-0.2,0.3,0,0.4l13.5,8.2c0.1,0,0,0.1,0,0.1l-15.1,4.7" id="Right_30_"/><path class="st18" d="M107,231.1l16.3,7.1c0.2,0.1,0.2,0.3,0,0.4l-13.5,8.2c-0.1,0,0,0.1,0,0.1l15.1,4.7" id="Left_31_"/></g></g></g></svg>