<?xml version="1.0" ?><!DOCTYPE svg  PUBLIC '-//W3C//DTD SVG 1.1//EN'  'http://www.w3.org/Graphics/SVG/1.1/DTD/svg11.dtd'><svg width="512px" height="512px" viewBox="0 0 512 512" id="Layer_1" style="enable-background:new 0 0 512 512;" version="1.1" xml:space="preserve" xmlns="http://www.w3.org/2000/svg" xmlns:xlink="http://www.w3.org/1999/xlink"><style type="text/css">
	.st0{fill:#EEEDF2;}
	.st1{fill:none;stroke:#1E247E;stroke-width:6;stroke-linecap:round;stroke-miterlimit:10;}
	.st2{fill:#EFC12F;stroke:#1E247E;stroke-width:6;stroke-linecap:round;stroke-miterlimit:10;}
	.st3{fill:none;stroke:#1E247E;stroke-width:3;stroke-linecap:round;stroke-miterlimit:10;}
	.st4{fill:#FFFFFF;stroke:#1E247E;stroke-width:3;stroke-linecap:round;stroke-miterlimit:10;}
	.st5{fill:#FCF5F2;stroke:#1E247E;stroke-width:5;stroke-linecap:round;stroke-miterlimit:10;}
	.st6{fill:#FCF5F2;stroke:#1E247E;stroke-width:6;stroke-linecap:round;stroke-miterlimit:10;}
	.st7{fill:#1E247E;}
	.st8{fill:none;stroke:#1E247E;stroke-width:4;stroke-linecap:round;stroke-miterlimit:10;}
	.st9{fill:#EAB8B1;}
	.st10{fill:#DC9695;stroke:#1E247E;stroke-width:4;stroke-linecap:round;stroke-miterlimit:10;}
	.st11{fill:#EECED1;stroke:#1E247E;stroke-width:3;stroke-linecap:round;stroke-miterlimit:10;}
	.st12{fill:#CB7272;stroke:#1E247E;stroke-width:3;stroke-linecap:round;stroke-miterlimit:10;}
	.st13{fill:#D3D5E7;stroke:#1E247E;stroke-width:6;stroke-linecap:round;stroke-miterlimit:10;}
	.st14{fill:#D3D5E7;}
	.st15{fill:#FFFFFF;stroke:#1E247E;stroke-width:5;stroke-linecap:round;stroke-miterlimit:10;}
	.st16{fill:#FFFFFF;stroke:#1E247E;stroke-width:4;stroke-linecap:round;stroke-miterlimit:10;}
	.st17{fill:#ECECEE;}
	.st18{fill:#DA867D;stroke:#1E247E;stroke-width:4;stroke-linecap:round;stroke-miterlimit:10;}
	.st19{fill:#FCF5F2;stroke:#1E247E;stroke-width:4;stroke-linecap:round;stroke-miterlimit:10;}
	.st20{fill:#69AEF8;stroke:#1E247E;stroke-width:6;stroke-linecap:round;stroke-miterlimit:10;}
	.st21{opacity:0.4;fill:#FFFFFF;}
	.st22{opacity:0.7;fill:#FFFFFF;}
	.st23{fill:#69ADF7;stroke:#1E247E;stroke-width:2.5;stroke-linecap:round;stroke-miterlimit:10;}
	.st24{fill:none;stroke:#FFFFFF;stroke-width:7;stroke-linecap:round;stroke-miterlimit:10;}
	.st25{fill:#FFFFFF;stroke:#1E247E;stroke-width:6;stroke-linecap:round;stroke-miterlimit:10;}
	.st26{fill:#DBE7FE;}
	.st27{fill:#D3D5E7;stroke:#1E247E;stroke-width:5;stroke-linecap:round;stroke-miterlimit:10;}
	.st28{fill:#DD9796;stroke:#1E247E;stroke-width:3;stroke-linecap:round;stroke-miterlimit:10;}
	.st29{fill:#EECED1;stroke:#1E247E;stroke-width:2.5;stroke-linecap:round;stroke-miterlimit:10;}
	.st30{fill:#CB7272;stroke:#1E247E;stroke-width:2.5;stroke-linecap:round;stroke-miterlimit:10;}
	.st31{fill:#DBE7FE;stroke:#1E247E;stroke-width:5;stroke-linecap:round;stroke-miterlimit:10;}
	.st32{fill:#69AEF8;stroke:#1E247E;stroke-width:5;stroke-linecap:round;stroke-miterlimit:10;}
	.st33{fill:#DAE6FD;stroke:#1E247E;stroke-width:6;stroke-miterlimit:10;}
	.st34{fill:#FFFFFF;stroke:#1E247E;stroke-width:6;stroke-miterlimit:10;}
	.st35{opacity:0.69;fill:#FFFFFF;}
	.st36{opacity:0.95;fill:#FFFFFF;}
	.st37{fill:#DA867D;stroke:#1E247E;stroke-width:6;stroke-linecap:round;stroke-miterlimit:10;}
	.st38{fill:#F0C330;stroke:#1E247E;stroke-width:6;stroke-linecap:round;stroke-miterlimit:10;}
	.st39{fill:#1E247E;stroke:#1E247E;stroke-width:3;stroke-linecap:round;stroke-miterlimit:10;}
	.st40{fill:#FFFFFF;}
	.st41{fill:#DBE7FE;stroke:#1E247E;stroke-width:6;stroke-linecap:round;stroke-miterlimit:10;}
	.st42{fill:#F1F6FF;}
	.st43{fill:#F0C330;stroke:#1E247E;stroke-width:5;stroke-linecap:round;stroke-miterlimit:10;}
	.st44{fill:none;stroke:#1E247E;stroke-width:5;stroke-linecap:round;stroke-miterlimit:10;}
	.st45{fill:#79CAA1;stroke:#1E247E;stroke-width:5;stroke-linecap:round;stroke-miterlimit:10;}
	.st46{fill:#E09287;stroke:#1E247E;stroke-width:5;stroke-linecap:round;stroke-miterlimit:10;}
	.st47{fill:#DA867D;stroke:#1E247E;stroke-width:5;stroke-linecap:round;stroke-miterlimit:10;}
	.st48{fill:#69AEF8;stroke:#1E247E;stroke-width:5;stroke-miterlimit:10;}
	.st49{fill:#D2D4E6;stroke:#1E247E;stroke-width:5;stroke-linecap:round;stroke-miterlimit:10;}
	.st50{fill:#79CAA1;stroke:#1E247E;stroke-width:5;stroke-miterlimit:10;}
	.st51{fill:#F0C330;stroke:#1E247E;stroke-width:6;stroke-miterlimit:10;}
	.st52{fill:#EEEDF2;stroke:#FFFFFF;stroke-miterlimit:10;}
	.st53{opacity:0.3;fill:#A2655F;}
	.st54{fill:#79CAA1;stroke:#1E247E;stroke-width:4;stroke-linecap:round;stroke-miterlimit:10;}
	.st55{fill:#F0C330;stroke:#1E247E;stroke-width:4.5;stroke-linecap:round;stroke-miterlimit:10;}
	.st56{fill:#D2D4E6;}
	.st57{fill:#FFFFFF;stroke:#1E247E;stroke-width:5.7826;stroke-linejoin:round;stroke-miterlimit:10;}
	.st58{fill:#DA867D;stroke:#1E247E;stroke-width:5.7826;stroke-linejoin:round;stroke-miterlimit:10;}
	.st59{fill:none;stroke:#1E247E;stroke-width:2.8913;stroke-linecap:round;stroke-linejoin:round;stroke-miterlimit:10;}
	.st60{fill:none;stroke:#1E247E;stroke-width:2.4094;stroke-linecap:round;stroke-miterlimit:10;}
	.st61{fill:#EBEBED;}
	.st62{fill:#FBF2ED;stroke:#1E247E;stroke-width:4.5;stroke-linecap:round;stroke-miterlimit:10;}
	.st63{fill:#D3D5E7;stroke:#1E247E;stroke-width:4.5;stroke-linecap:round;stroke-miterlimit:10;}
	.st64{fill:none;stroke:#1E247E;stroke-width:2.5;stroke-linecap:round;stroke-miterlimit:10;}
	.st65{fill:#DA867D;stroke:#1E247E;stroke-width:4.5;stroke-linecap:round;stroke-miterlimit:10;}
	.st66{fill:none;stroke:#FFFFFF;stroke-width:4;stroke-linecap:round;stroke-linejoin:round;stroke-miterlimit:10;}
	.st67{fill:none;stroke:#FFFFFF;stroke-width:3;stroke-linecap:round;stroke-miterlimit:10;}
	.st68{fill:#79CAA1;stroke:#1E247E;stroke-width:6;stroke-linecap:round;stroke-miterlimit:10;}
	.st69{opacity:0.3;fill:#FFFFFF;}
	.st70{fill:none;stroke:#FFFFFF;stroke-width:6;stroke-linecap:round;stroke-miterlimit:10;}
	.st71{fill:#DBE7FE;stroke:#1E247E;stroke-width:6;stroke-miterlimit:10;}
	.st72{fill:#DA867D;stroke:#1E247E;stroke-width:5;stroke-miterlimit:10;}
	.st73{fill:#F5F5F7;stroke:#1E247E;stroke-width:5;stroke-miterlimit:10;}
	.st74{fill:#D5D6DE;stroke:#1E247E;stroke-width:5;stroke-miterlimit:10;}
	.st75{fill:#D3D5E7;stroke:#1E247E;stroke-width:3;stroke-linecap:round;stroke-miterlimit:10;}
	.st76{fill:#79CAA1;}
	.st77{fill:none;stroke:#1E247E;stroke-width:2.7;stroke-linecap:round;stroke-miterlimit:10;}
	.st78{fill:#69AEF8;}
</style><g><g id="Documents_x2C__pencil_x2C__ruler"><circle class="st0" cx="250.6" cy="257.9" id="Background_3_" r="215.6"/><g id="Sparkles_1_"><line class="st24" id="Left_17_" x1="266.1" x2="264.3" y1="69.9" y2="60.8"/><line class="st24" id="Middle_9_" x1="280.1" x2="276.2" y1="63.7" y2="72.7"/><line class="st24" id="Right_18_" x1="292.7" x2="285.6" y1="72.1" y2="77.2"/></g><g id="Bottom_document"><g id="Document_1_"><path class="st14" d="M331.2,359l-196.3,53.2c-5.7,1.5-11.5-1.8-13.1-7.5L54,154.1c-1.5-5.7,1.8-11.5,7.5-13.1       l196.3-53.2c5.7-1.5,11.5,1.8,13.1,7.5L338.7,346C340.2,351.6,336.9,357.5,331.2,359z" id="Shadow_16_"/><path class="st41" d="M325.5,370.4l-196.3,53.2c-5.7,1.5-11.5-1.8-13.1-7.5L48.2,165.5       c-1.5-5.7,1.8-11.5,7.5-13.1l196.3-53.2c5.7-1.5,11.5,1.8,13.1,7.5L333,357.4C334.5,363,331.2,368.9,325.5,370.4z" id="Shape_16_"/><path class="st3" d="M129.9,412.5c-3.2,0.9-6.5-1-7.3-4.2" id="Line_10_"/><g id="Lines_3_"><line class="st23" id="Bottom_8_" x1="65.5" x2="73.5" y1="175.2" y2="181.4"/><line class="st23" id="Middle_8_" x1="65.5" x2="81.6" y1="167.5" y2="179.8"/><line class="st23" id="Top_8_" x1="77.2" x2="81.6" y1="168.6" y2="171.9"/></g></g><g id="Content_1_"><path class="st42" d="M230.9,289.3c0.9,3.5-1.1,7-4.6,7.9l-93,25.2c-3.4,0.9-7-1.1-7.9-4.5l-2.5-9.4       c-1.1-4.2,1.3-8.5,5.6-9.7l91.7-24.8c3.5-0.9,7.1,1.1,8,4.6L230.9,289.3z" id="_x34_th_line_3_"/><path class="st42" d="M219,249c0.9,3.5-1.1,7-4.6,7.9l-93,25.2c-3.4,0.9-7-1.1-7.9-4.5l-2.5-9.4       c-1.1-4.2,1.3-8.5,5.6-9.7l91.7-24.8c3.5-0.9,7.1,1.1,8,4.6L219,249z" id="_x33_rd_line_3_"/><path class="st42" d="M207.6,209.3c0.9,3.5-1.1,7-4.6,7.9l-93,25.2c-3.4,0.9-7-1.1-7.9-4.5l-2.5-9.4       c-1.1-4.2,1.3-8.5,5.6-9.7l91.7-24.8c3.5-0.9,7.1,1.1,8,4.6L207.6,209.3z" id="_x32_nd_line_3_"/><path class="st42" d="M196.6,169c0.9,3.5-1.1,7-4.6,7.9l-93,25.2c-3.4,0.9-7-1.1-7.9-4.5l-2.5-9.4       c-1.1-4.2,1.3-8.5,5.6-9.7l91.7-24.8c3.5-0.9,7.1,1.1,8,4.6L196.6,169z" id="_x31_st_line_3_"/></g></g><g id="Top_document"><g id="Document"><path class="st14" d="M336.5,441.3l-177.1-100c-5.1-2.9-6.9-9.4-4-14.5l127.7-226c2.9-5.1,9.4-6.9,14.5-4       l177.1,100c5.1,2.9,6.9,9.4,4,14.5L351,437.2C348.1,442.4,341.6,444.2,336.5,441.3z" id="Shadow_15_"/><path class="st20" d="M322.5,444.9l-177.1-100c-5.1-2.9-6.9-9.4-4-14.5l127.7-226c2.9-5.1,9.4-6.9,14.5-4       l177.1,100c5.1,2.9,6.9,9.4,4,14.5L337,440.9C334.1,446,327.6,447.8,322.5,444.9z" id="Shape_15_"/><path class="st3" d="M274.7,111.6c1.5-2.7,4.9-3.6,7.6-2.1" id="Line_9_"/><g id="Lines_2_"><line class="st23" id="Bottom_7_" x1="343.3" x2="351.4" y1="208.8" y2="215"/><line class="st23" id="Middle_7_" x1="343.3" x2="359.4" y1="201.1" y2="213.5"/><line class="st23" id="Top_7_" x1="355" x2="359.4" y1="202.2" y2="205.6"/></g></g><g id="Pencil"><g id="Ereser"><path class="st15" d="M153.8,210.4l13.4,10.7l-28.3,35.3l-13.4-10.7c-9.7-7.8-11.3-22-3.5-31.8        c3.9-4.9,9.4-7.7,15.2-8.3C142.9,204.9,148.9,206.5,153.8,210.4z" id="Shape_14_"/><path class="st3" d="M126.9,225.4c-0.5-2.3,0-4.8,1.6-6.8c1.4-1.7,3.4-2.8,5.4-3" id="Line_8_"/></g><g id="Body_6_"><path class="st43" d="M167.4,221.3l149.7,120c0.1,0.1,0.2,0.3,0.1,0.5l-27.9,34.8c-0.1,0.1-0.3,0.2-0.5,0        l-149.7-120c-0.1-0.1-0.2-0.3-0.1-0.5l27.9-34.8C167.1,221.2,167.3,221.2,167.4,221.3z" id="Shape_13_"/><g id="Lines_1_"><line class="st44" id="Left_16_" x1="156.3" x2="298.6" y1="250" y2="364.1"/><line class="st44" id="Right_17_" x1="165.9" x2="308" y1="238.2" y2="352.1"/></g></g><rect class="st45" height="14" id="Ferrule" transform="matrix(0.6254 -0.7803 0.7803 0.6254 -129.4137 210.8338)" width="45.2" x="132.3" y="233.2"/><g id="Wood"><path class="st15" d="M317.5,341.8l11.3,23.3l-14.1,17.6l-25.2-5.9c-0.2,0-0.2-0.2-0.1-0.3l27.8-34.7        C317.3,341.6,317.5,341.7,317.5,341.8z" id="Shape_12_"/></g><g id="Lead_1_"><path class="st46" d="M328.8,365.1l10,20.8c0.6,1.2-0.5,2.4-1.7,2.2l-22.5-5.3L328.8,365.1z" id="Shape_11_"/></g></g><g id="Ruler"><g id="Ruler_1_"><path class="st47" d="M386.4,287.8l-30,38.8c-0.4,0.6-1.2,0.7-1.8,0.2L170,184.2c-0.6-0.4-0.7-1.2-0.2-1.8        l30-38.8c0.4-0.6,1.2-0.7,1.8-0.2L386.2,286C386.7,286.4,386.8,287.2,386.4,287.8z" id="Shape_10_"/><g id="Measurement_units"><line class="st44" id="Line__x23_14" x1="184.6" x2="196.6" y1="195.5" y2="179.9"/><line class="st44" id="Line__x23_13" x1="196.3" x2="202.3" y1="204.5" y2="196.8"/><line class="st44" id="Line__x23_12" x1="208.4" x2="220.4" y1="213.8" y2="198.3"/><line class="st44" id="Line__x23_11" x1="220.4" x2="226.5" y1="223.2" y2="215.4"/><line class="st44" id="Line__x23_10" x1="232.5" x2="244.5" y1="232.4" y2="216.9"/><line class="st44" id="Line__x23_9" x1="244.6" x2="250.6" y1="241.8" y2="234"/><line class="st44" id="Line__x23_8" x1="256.3" x2="268.3" y1="250.8" y2="235.2"/><line class="st44" id="Line__x23_7" x1="268.3" x2="274.3" y1="260.1" y2="252.3"/><line class="st44" id="Line__x23_6" x1="280.1" x2="292.1" y1="269.2" y2="253.7"/><line class="st44" id="Line__x23_5" x1="292.2" x2="298.2" y1="278.6" y2="270.8"/><line class="st44" id="Line__x23_4" x1="304" x2="316" y1="287.7" y2="272.1"/><line class="st44" id="Line__x23_3" x1="316.1" x2="322.1" y1="297" y2="289.2"/><line class="st44" id="Line__x23_2" x1="328" x2="340" y1="306.2" y2="290.6"/><line class="st44" id="Line__x23_1" x1="340" x2="346.1" y1="315.5" y2="307.7"/></g></g></g></g></g></g></svg>