<?xml version="1.0" encoding="UTF-8"?>
<!DOCTYPE svg PUBLIC "-//W3C//DTD SVG 1.1//EN" "http://www.w3.org/Graphics/SVG/1.1/DTD/svg11.dtd">

<svg xmlns="http://www.w3.org/2000/svg" xml:space="preserve" width="2048px" height="2048px" style="shape-rendering:geometricPrecision; text-rendering:geometricPrecision; image-rendering:optimizeQuality; fill-rule:evenodd; clip-rule:evenodd"
viewBox="0 0 2048 2048"
 xmlns:xlink="http://www.w3.org/1999/xlink">
 <defs>
  <style type="text/css">
   <![CDATA[
    .fil11 {fill:none}
    .fil0 {fill:#0E6499}
    .fil1 {fill:#53802C}
    .fil10 {fill:#7CB342}
    .fil2 {fill:#91144D}
    .fil6 {fill:#D81B60}
    .fil9 {fill:#0086DB;fill-rule:nonzero}
    .fil8 {fill:#0091EA;fill-rule:nonzero}
    .fil7 {fill:#689F38;fill-rule:nonzero}
    .fil5 {fill:#C51162;fill-rule:nonzero}
    .fil3 {fill:#EF6C00;fill-rule:nonzero}
    .fil4 {fill:#F57C00;fill-rule:nonzero}
   ]]>
  </style>
 </defs>
 <g id="Layer_x0020_1">
  <metadata id="CorelCorpID_0Corel-Layer"/>
  <path class="fil0" d="M1488 893l37 0c2,0 29,28 26,46l-49 -4 -13 -42z"/>
  <path class="fil1" d="M1062 893l37 0c2,0 29,28 26,46l-49 -4 -13 -42z"/>
  <path class="fil2" d="M637 893l37 0c2,0 29,28 26,46l-49 -4 -13 -42z"/>
  <g id="_373095360">
   <polygon class="fil3" points="376,928 1673,928 1673,993 376,993 "/>
   <path class="fil4" d="M383 1024c-8,16 -28,22 -44,14 -16,-8 -22,-28 -14,-44 69,-133 170,-233 286,-302 128,-76 274,-114 413,-114 150,0 291,41 410,112 123,73 224,179 289,304 8,16 2,36 -14,44 -16,8 -36,2 -44,-14 -60,-115 -152,-211 -264,-278 -109,-65 -238,-102 -377,-102 -128,0 -262,34 -380,104 -106,63 -199,155 -261,276z"/>
   <path class="fil3" d="M967 366c-6,17 -25,25 -42,19 -17,-6 -25,-25 -19,-42 10,-26 27,-47 49,-62 22,-15 48,-24 75,-24 37,0 70,15 94,39 24,24 39,57 39,94 0,37 -15,70 -39,94 -24,24 -57,39 -94,39 -18,0 -33,-15 -33,-33 0,-18 15,-33 33,-33 18,0 35,-7 47,-20 12,-12 20,-29 20,-47 0,-18 -7,-35 -20,-47 -12,-12 -29,-20 -47,-20 -14,0 -27,4 -38,12 -11,8 -20,18 -25,31z"/>
   <path class="fil4" d="M997 489c0,-18 15,-33 33,-33 18,0 33,15 33,33l0 116c0,18 -15,33 -33,33 -18,0 -33,-15 -33,-33l0 -116z"/>
   <path class="fil5" d="M401 1549l12 -61 377 0 12 61 3 17 -11 13 -168 187 -24 27 -24 -27 -168 -187 -11 -13 3 -17zm22 -113l8 -43 341 0 8 43 -357 0zm18 -94l8 -43 304 0 8 43 -321 0zm18 -96l63 -325 5 -27 27 0 95 0 27 0 5 27 63 325 -284 0z"/>
   <polygon class="fil6" points="423,1432 413,1493 790,1493 780,1432 "/>
   <polygon class="fil7" points="824,1549 945,921 950,893 977,893 1072,893 1098,893 1104,921 1224,1549 1228,1566 1216,1579 1048,1766 1024,1793 1000,1766 832,1579 821,1566 "/>
   <polygon class="fil8" points="1250,1549 1370,921 1376,893 1402,893 1497,893 1524,893 1529,921 1650,1549 1653,1566 1642,1579 1474,1766 1450,1793 1426,1766 1258,1579 1246,1566 "/>
   <polygon class="fil9" points="1449,893 1497,893 1524,893 1529,921 1650,1549 1653,1566 1642,1579 1474,1766 1450,1793 1449,1793 "/>
   <polygon class="fil10" points="1152,1172 832,1505 824,1549 821,1566 832,1579 843,1591 1167,1252 1179,1315 886,1639 931,1689 1195,1397 1224,1549 1228,1566 1216,1579 1048,1766 1024,1793 1024,1793 1048,1766 1216,1579 1228,1566 1224,1549 1117,993 1117,993 "/>
   <polygon class="fil6" points="441,1337 431,1398 772,1398 762,1337 "/>
   <polygon class="fil6" points="460,1241 449,1304 754,1304 744,1241 "/>
  </g>
  <rect class="fil11" width="2048" height="2048"/>
 </g>
</svg>
