<?xml version="1.0" encoding="UTF-8"?>
<!DOCTYPE svg PUBLIC "-//W3C//DTD SVG 1.1//EN" "http://www.w3.org/Graphics/SVG/1.1/DTD/svg11.dtd">

<svg xmlns="http://www.w3.org/2000/svg" xml:space="preserve" width="2048px" height="2048px" style="shape-rendering:geometricPrecision; text-rendering:geometricPrecision; image-rendering:optimizeQuality; fill-rule:evenodd; clip-rule:evenodd"
viewBox="0 0 2048 2048"
 xmlns:xlink="http://www.w3.org/1999/xlink">
 <defs>
  <style type="text/css">
   <![CDATA[
    .fil8 {fill:none}
    .fil3 {fill:#616161}
    .fil0 {fill:#BA7964}
    .fil5 {fill:#E65100}
    .fil4 {fill:#FF7043}
    .fil6 {fill:#FF8A65}
    .fil7 {fill:#FFEBEE}
    .fil2 {fill:#FFA589;fill-rule:nonzero}
    .fil1 {fill:#FFAB91;fill-rule:nonzero}
   ]]>
  </style>
 </defs>
 <g id="Layer_x0020_1">
  <metadata id="CorelCorpID_0Corel-Layer"/>
  <g id="_245848936">
   <path class="fil0" d="M1107 319l0 231 -170 0 0 -231c19,20 50,33 85,33 35,0 66,-13 85,-33z"/>
   <g>
    <path class="fil1" d="M1024 1792c23,0 47,-5 71,-16 35,-15 65,-40 87,-70 58,46 133,71 207,68 57,-2 83,-17 128,-43 -3,-109 -11,-211 -30,-319 -18,-100 -42,-197 -71,-286 -27,-84 -59,-161 -92,-227 -22,-44 -54,-92 -85,-129l-227 -1 12 1024z"/>
    <path class="fil1" d="M1306 875l0 0 0 0c-1,0 0,0 2,1l-2 -1z"/>
    <path class="fil1" d="M1024 542c0,0 1,0 1,0 13,-1 14,-30 27,-30l46 0c0,-85 0,-170 0,-256 97,27 159,51 248,101 -38,130 -59,261 -98,391l-246 0 -1 0 22 -206z"/>
    <path class="fil2" d="M807 748c-38,-130 -67,-261 -105,-391 89,-51 150,-73 248,-101 0,85 0,170 0,256 15,0 32,-6 46,0 13,6 14,31 28,31l0 206 -217 0z"/>
    <path class="fil2" d="M1024 1792c-23,0 -47,-5 -71,-16 -35,-15 -65,-40 -87,-70 -58,46 -133,71 -207,68 -57,-2 -83,-17 -128,-43 3,-109 11,-211 30,-319 18,-100 42,-197 71,-286 27,-84 59,-161 92,-227 22,-44 63,-92 95,-130l206 0 0 1024z"/>
    <polygon class="fil3" points="803,735 1252,735 1252,786 803,786 "/>
    <path class="fil4" d="M1028 721c22,0 39,18 39,39 0,22 -18,39 -39,39 -22,0 -39,-18 -39,-39 0,-22 18,-39 39,-39z"/>
    <path class="fil5" d="M1028 735c14,0 26,12 26,26 0,14 -12,26 -26,26 -14,0 -26,-12 -26,-26 0,-14 12,-26 26,-26z"/>
    <path class="fil6" d="M1098 256c15,5 26,22 31,41l0 245 -64 0c-8,17 -20,31 -41,31 -6,0 -13,-1 -18,-4 -13,-7 -18,-17 -25,-29 0,0 -56,2 -61,2l0 -146 0 -99c2,-18 11,-35 31,-41l0 256c15,0 32,-6 46,0 13,6 14,31 28,31 14,0 14,-31 28,-31l46 0 0 -256z"/>
   </g>
   <g>
    <path class="fil7" d="M754 1612c-11,15 -27,24 -42,10 -13,-12 -11,-33 -6,-46 7,-17 20,-31 39,-33 26,-3 44,13 54,36 17,40 -5,77 -42,94 -46,21 -95,-2 -119,-44 -44,-75 12,-154 56,-214 22,-30 46,-61 58,-97 5,-14 7,-29 3,-44 -6,-23 -28,-50 -53,-37 -9,5 -16,-8 -8,-14 27,-19 59,-2 76,23 12,18 14,40 11,61 -7,48 -43,90 -70,128 -28,39 -62,85 -62,135 0,49 40,91 90,86 19,-2 39,-14 47,-33 4,-9 4,-19 2,-28 -3,-10 -11,-25 -21,-28 -8,-2 -17,-3 -24,3 -2,2 -4,5 -5,8 0,1 -1,3 -1,4 -3,8 1,-5 0,5 0,3 0,7 0,10 0,-3 3,8 1,5 2,3 -2,-2 0,1 -2,-2 -4,-4 2,0 -3,0 -5,-1 -8,-1 1,0 2,0 1,0 2,-1 3,-2 5,-4 10,-9 28,3 20,15l0 0z"/>
    <path class="fil7" d="M700 1227c20,-11 42,-11 60,4 17,15 24,39 26,60 2,25 -5,47 -16,69 -15,29 -35,55 -54,82 -20,29 -41,59 -51,93 -5,15 -6,30 -2,45 3,9 7,17 14,23 4,3 8,5 13,6 5,1 7,-1 8,-7 1,-5 8,-3 7,1 -1,3 -2,6 -3,9 0,2 -3,4 -5,3 -2,-1 -7,-1 -9,-2 -3,-1 -6,-2 -8,-4 -6,-4 -11,-9 -14,-15 -7,-12 -9,-26 -8,-39 3,-29 19,-57 34,-81 18,-29 39,-56 58,-84 15,-23 31,-48 34,-76 3,-24 -2,-51 -16,-71 -7,-9 -16,-17 -27,-20 -13,-4 -27,0 -39,5 0,0 -1,0 0,-1l0 0z"/>
    <path class="fil7" d="M757 1233c11,8 20,16 25,29 6,13 8,27 8,41 0,30 -12,58 -27,84 -18,33 -41,63 -60,95 -9,15 -17,31 -22,47 -2,7 -2,15 -1,23 1,4 3,9 5,13 1,1 10,12 11,10 1,-1 1,-2 3,-2 1,0 1,-1 2,-1 3,-2 6,2 4,5 -1,1 -2,2 -4,2 -1,0 -2,0 -2,0 -1,1 -2,1 -3,0 -5,-5 -10,-8 -14,-15 -3,-6 -5,-12 -5,-18 -2,-14 5,-28 11,-41 16,-34 39,-65 59,-97 18,-28 36,-57 41,-90 4,-30 -2,-68 -29,-85 0,0 0,0 0,0l0 0z"/>
    <path class="fil7" d="M801 1355c2,1 2,2 5,3 0,29 -37,56 -53,78 -19,25 -37,49 -50,76 5,-13 10,-25 15,-38 17,-28 37,-54 53,-83 15,-26 28,-54 28,-86 0,0 0,-1 0,-1 0,-14 -2,-29 -8,-43 -4,-8 -8,-15 -14,-20 -3,-4 -7,-9 -11,-12 -5,-5 -11,-8 -17,-10 -7,-4 -15,-7 -23,-8 12,-6 26,-9 39,-5 17,5 36,33 55,26 -15,9 -7,24 -13,37 42,3 40,51 31,80 1,-4 0,-9 0,-13 -10,-2 -23,-9 -25,-15 2,13 12,38 -11,36z"/>
    <path class="fil7" d="M708 1294c32,8 28,-31 10,-50 4,2 9,5 12,9 6,7 11,16 13,25 1,5 2,10 2,15 0,9 -2,17 -5,26 -12,34 -36,65 -57,95 0,0 0,0 0,1 -16,11 -37,20 -33,39 -18,-34 5,-71 32,-93 25,-20 65,-37 26,-67z"/>
    <path class="fil7" d="M784 1476c1,-2 5,-2 5,1 6,20 11,35 31,46 18,10 43,9 61,1 47,-22 20,-79 -14,-97 0,0 0,-1 0,-1 43,19 64,78 21,109 -23,16 -52,16 -77,4 -22,-11 -39,-40 -27,-63z"/>
    <path class="fil7" d="M876 1440c0,0 0,-1 0,-1 32,13 33,49 8,70 -13,11 -33,13 -47,4 -17,-11 -22,-31 -15,-49 5,-15 21,-26 37,-19 7,3 24,13 15,22 -5,6 -16,8 -24,7 -9,-2 -3,-10 2,-13 1,-1 3,1 2,2 -1,1 -5,5 -3,6 2,1 5,0 7,0 3,-1 13,-4 11,-8 -4,-9 -22,-11 -28,-4 -7,7 -7,21 -3,29 16,35 90,-16 38,-46z"/>
    <path class="fil7" d="M831 1426c-6,6 -12,12 -17,19 -8,11 -7,23 -8,35 0,1 -1,1 -1,0 -13,-21 5,-45 17,-60 6,-8 14,-15 20,-23 3,-4 6,-8 8,-13 6,-11 -9,-20 -6,0 1,4 -4,5 -6,2 -6,-9 -7,-17 -1,-26 2,-3 4,-3 7,-3 25,4 25,25 11,42 -8,9 -17,17 -25,26z"/>
   </g>
  </g>
  <rect class="fil8" width="2048" height="2048"/>
 </g>
</svg>
