<?xml version="1.0" encoding="UTF-8"?>
<!DOCTYPE svg PUBLIC "-//W3C//DTD SVG 1.1//EN" "http://www.w3.org/Graphics/SVG/1.1/DTD/svg11.dtd">

<svg xmlns="http://www.w3.org/2000/svg" xml:space="preserve" width="2048px" height="2048px" style="shape-rendering:geometricPrecision; text-rendering:geometricPrecision; image-rendering:optimizeQuality; fill-rule:evenodd; clip-rule:evenodd"
viewBox="0 0 2048 2048"
 xmlns:xlink="http://www.w3.org/1999/xlink">
 <defs>
  <style type="text/css">
   <![CDATA[
    .fil6 {fill:none}
    .fil4 {fill:#AD1457}
    .fil3 {fill:#C2185B}
    .fil5 {fill:#EC407A}
    .fil0 {fill:#FF8600}
    .fil2 {fill:#78909C;fill-rule:nonzero}
    .fil1 {fill:#FF9100;fill-rule:nonzero}
   ]]>
  </style>
 </defs>
 <g id="Layer_x0020_1">
  <metadata id="CorelCorpID_0Corel-Layer"/>
  <path class="fil0" d="M1278 451c133,51 247,142 328,259 80,117 123,255 123,398 0,187 -74,366 -206,498 -133,133 -311,206 -498,206 -187,0 -366,-74 -498,-206 -133,-133 -206,-311 -206,-498 0,-142 43,-280 123,-398 80,-117 195,-208 328,-259l56 -22 14 58c10,42 33,79 67,105 34,27 75,41 118,41 43,0 84,-14 118,-41 33,-27 57,-64 67,-105l14 -58 56 22zm-37 139c-46,76 -111,113 -179,124 -110,17 -208,-45 -265,-122 -200,104 -366,283 -373,517 -2,80 14,160 45,233 31,71 76,136 131,191 113,113 265,176 425,176 160,0 312,-63 425,-176 113,-113 178,-264 176,-424 -2,-127 -47,-246 -129,-343 -60,-71 -164,-146 -254,-175z"/>
  <path class="fil1" d="M1271 469c130,50 241,139 318,252 75,110 120,243 120,386 0,189 -77,360 -200,484 -124,124 -295,200 -484,200 -189,0 -360,-77 -484,-200 -124,-124 -200,-295 -200,-484 0,-143 44,-276 120,-386 78,-113 188,-202 318,-252l34 -13 8 36c11,47 37,88 74,117 36,28 81,45 130,45 49,0 94,-17 130,-45 36,-29 63,-70 74,-117l8 -36 34 13zm-23 107c-57,180 -359,139 -464,-2 -251,125 -368,322 -380,534 0,171 69,326 182,439 112,112 267,182 439,182 171,0 326,-69 439,-182 112,-112 182,-267 182,-439 -8,-288 -222,-483 -396,-532z"/>
  <path class="fil2" d="M1024 256c71,0 136,6 185,32 54,28 88,76 88,156 0,75 -31,144 -80,193 -49,49 -118,80 -193,80 -75,0 -144,-31 -193,-80 -49,-49 -80,-118 -80,-193 0,-81 34,-129 88,-156 49,-25 114,-32 185,-32zm153 87c-38,-18 -92,-23 -153,-23 -61,0 -115,5 -153,23 -25,12 -44,32 -52,62l206 30 204 -30c-8,-30 -26,-50 -52,-62z"/>
  <path class="fil3" d="M843 285c53,-27 122,-29 181,-29 59,0 128,3 181,29 64,32 83,66 89,109 3,20 3,43 4,68l-273 83 -273 -83c-3,-69 5,-133 92,-177z"/>
  <path class="fil4" d="M776 470l41 13 205 62 -79 -121 -57 -87 -35 -55 0 0c-3,1 -6,3 -8,4 -72,36 -90,86 -92,141 -1,12 0,24 0,36l25 8z"/>
  <path class="fil4" d="M1108 423l-78 121 201 -61 42 -13 24 -7 1 0c0,-3 0,-6 0,-8 -1,-16 -1,-31 -2,-44 0,-5 -1,-10 -2,-15 -6,-44 -24,-77 -89,-109 -2,-1 -4,-2 -6,-3l0 0 -35 54 -56 86z"/>
  <path class="fil5" d="M849 279c135,167 76,78 176,268 -135,-167 -76,-78 -176,-268z"/>
  <path class="fil5" d="M1201 279c-135,167 -76,78 -176,268 135,-167 76,-78 176,-268z"/>
  <rect class="fil6" width="2048" height="2048"/>
 </g>
</svg>
