<?xml version="1.0" ?><svg width="340px" height="340px" viewBox="0 0 340 340" id="icons" xmlns="http://www.w3.org/2000/svg"><title/><path d="M300.629,180.687s-1.107,52,2.05,119.932a34.97,34.97,0,0,0,3.041,12.966,25.752,25.752,0,0,1,1.063,2.725c2.017,6.167-2.988,12.388-9.746,12.275l-30.933-.514c-9.778-.163-17.709-7.638-18.013-16.978L245.9,243.856Z" style="fill:#af543f"/><path d="M209.144,50.734s-52,4.824-96.824,56.9a2.45,2.45,0,0,0,.117,3.315,13.291,13.291,0,0,0,5.9,3.631s-60.574,22.006-86.782,96.08c0,0-31.528,86.416,29.2,114.811a30.024,30.024,0,0,0,12.72,2.773h80.194a29.333,29.333,0,0,0,13.088-2.949,23.434,23.434,0,0,0,10.776-10.5s4.959,13.446,17.666,13.446H219.21a13.639,13.639,0,0,0,9.8-4.011c5.675-5.831,2.837-13.129,2.09-20.27a121.124,121.124,0,0,1-.819-18.028v-5.249a22.99,22.99,0,0,1,6.55-16.338,22.128,22.128,0,0,1,8.72-5.338s35.818-11.32,53.43-62.01a127.316,127.316,0,0,0,6.867-41.8V143.4a26.285,26.285,0,0,1,4.248,4.032,1.79,1.79,0,0,0,3.058-.613c2.517-7.832,7.664-29.392-2.967-51.149Z" style="fill:#e8947e"/><path d="M310.183,95.674,209.144,50.734s-.706-1.174-12.074,2.356c-24.026,20.107-22.237,46.274-22.231,47.329a8,8,0,0,0,8,7.957,8.155,8.155,0,0,0,.935-.054l2.787-.328c1.647,13.156,7.027,20.71,7.754,21.679a8,8,0,0,0,6.378,3.2h.022a8,8,0,0,0,6.336-3.116c14.677,21.376,34.452,25.367,35.411,25.548a8,8,0,0,0,7.224-2.283l.2-.2.142.166a8,8,0,0,0,8.162,2.537c.944-.253,19.947-5.574,32.615-25.261a8,8,0,0,0,5.912,2.611h.022a8,8,0,0,0,6.378-3.2c.727-.969,6.107-8.523,7.754-21.679l2.787.328a8.155,8.155,0,0,0,.935.054c.057,0,.114-.006.171-.007A62.458,62.458,0,0,0,310.183,95.674Z" style="fill:#af543f"/><path d="M296.562,54.88c2.213-13.274.7-23.45-1.882-30.857C289.823,10.1,271.534,6.87,262.55,18.567a48.509,48.509,0,0,0-6.933,13.038c-2.22-.525-11.587-.525-13.807,0a48.509,48.509,0,0,0-6.933-13.038c-8.984-11.7-27.273-8.47-32.13,5.456-2.583,7.407-4.1,17.583-1.882,30.857-18.16,20.534-18.027,45.5-18.027,45.5l11.256-1.324c-.332,16.552,6.62,25.821,6.62,25.821l7.283-9.6c12.91,27.806,35.953,32.172,35.953,32.172l6.321-6.5,5.841,6.851s23.332-6.263,33.318-32.523l7.283,9.6s6.952-9.269,6.621-25.821l11.255,1.324S314.722,75.414,296.562,54.88Z" style="fill:#e8947e"/><path d="M214.767,44.205c3.427-2.216,9.607-6.13,14.444-8.74a3.282,3.282,0,0,0,1.545-3.987c-.368-1.038-.846-2.3-1.43-3.648-3.589-8.3-15.931-6.884-17.424,2.032a45.367,45.367,0,0,0-.178,12.889A1.983,1.983,0,0,0,214.767,44.205Z" style="fill:#af543f"/><path d="M283.874,43.33c-3.427-2.215-9.607-6.13-14.444-8.74a3.281,3.281,0,0,1-1.545-3.986c.368-1.039.846-2.3,1.43-3.648,3.589-8.3,15.931-6.885,17.424,2.031a45.367,45.367,0,0,1,.178,12.889A1.983,1.983,0,0,1,283.874,43.33Z" style="fill:#af543f"/><path d="M264.8,198.65l-2.981-5.728c-3.86,3.94-10.563,7.527-15.053,9.667a8.43,8.43,0,0,1-8.439-.7,203.145,203.145,0,0,0-22.9-13.773,116.839,116.839,0,0,0-25.836-9.313,143.4,143.4,0,0,1,21.329,17.724c21.668,20.136,38.779,26.3,46.473,28.162a9.747,9.747,0,0,0,7.79-1.448c18.4-12.6,30.009-26.5,37.084-37.463a130.066,130.066,0,0,0,3.576-30.582V143.4c-11.713,38.5-29.866,52.4-36.811,56.48A3.042,3.042,0,0,1,264.8,198.65Z" style="fill:#af543f"/><path d="M233.912,81.658a3.983,3.983,0,0,1-2.4-.8,23.906,23.906,0,0,0-7-3.363,4,4,0,0,1,2.061-7.731,31.982,31.982,0,0,1,9.738,4.695,4,4,0,0,1-2.4,7.2Z" style="fill:#373d4c"/><path d="M263.515,81.658a4,4,0,0,1-2.4-7.2,31.994,31.994,0,0,1,9.738-4.694,4,4,0,0,1,2.069,7.728,23.9,23.9,0,0,0-7.006,3.367A3.991,3.991,0,0,1,263.515,81.658Z" style="fill:#373d4c"/><path d="M159.891,223.757a12.225,12.225,0,0,0-4-5.661l-.061-.048a2.685,2.685,0,0,0-4.195,3.018,130.137,130.137,0,0,1,7.336,32.526s2.3,38.438,11.954,69.114a22.486,22.486,0,0,0,6.605-7.908c-9.349-20.4-11.416-62.107-11.416-62.107A140.754,140.754,0,0,0,159.891,223.757Z" style="fill:#af543f"/><path d="M233.838,239.04a1.811,1.811,0,0,0-3.561.544c1.564,10.218.585,31,.164,38.4a22.642,22.642,0,0,1,6.386-13.639,22,22,0,0,1,3.026-2.508Z" style="fill:#af543f"/><path d="M140.365,267.545h-.058a4,4,0,0,1-3.425-2.031c-3.337-5.905-11.131-11.873-11.21-11.932l-.14-.113A34.679,34.679,0,0,0,99,245.567a4.01,4.01,0,0,1-4.631-4.74,24.356,24.356,0,0,0,.371-5.225,61.874,61.874,0,0,0-14.235,9,4,4,0,0,1-5.347-5.95,67.438,67.438,0,0,1,21.893-12.519,4,4,0,0,1,5.19,3.193,50.582,50.582,0,0,1,.491,7.971h.2a43.2,43.2,0,0,1,27.657,9.967,66.938,66.938,0,0,1,10,9.631c3.847-3.977,10.657-8.929,20.071-7.844a4,4,0,1,1-.919,7.947c-9.934-1.151-15.892,8.514-15.951,8.612A4,4,0,0,1,140.365,267.545Z" style="fill:#af543f"/><path d="M219.284,203.818l-14.629-20.431c-27.069-10.39-32.195-17.109-42.433-40.205-.857-1.934-1.858-3.767-3.974-3.778a4.012,4.012,0,0,0-4.011,3.738,20.736,20.736,0,0,1-2.192,8.077s-9.436-9.795-7.149-37.19a1.763,1.763,0,0,0-3.386-.818l-.019.048c-.415,1.051-9.957,25.977,7.435,47.382a4,4,0,0,0,5.846.39,22.135,22.135,0,0,0,3.313-4.281,54.869,54.869,0,0,0,7.156,11.178,69.47,69.47,0,0,0,23.91,18.6A205.3,205.3,0,0,1,219.284,203.818Z" style="fill:#af543f"/><path d="M248.714,87.534a24.177,24.177,0,0,0-8.135,1.394c-4.5,1.605-6.32,6.523-3.887,10.308a27.407,27.407,0,0,0,10.671,9.39,3.029,3.029,0,0,0,2.7,0,27.413,27.413,0,0,0,10.67-9.39c2.433-3.785.618-8.7-3.887-10.308A24.175,24.175,0,0,0,248.714,87.534Z" style="fill:#373d4c"/><path d="M174.807,316.915l-12.319-32.164s1.671,16.971-14.213,25.143a31.109,31.109,0,0,1-14.25,3.287H72.163a49.322,49.322,0,0,1-30.317-10.289A77.988,77.988,0,0,1,27.763,288.44c4.987,14.949,14.889,28.568,32.991,37.031a30.017,30.017,0,0,0,12.719,2.773h80.194a29.333,29.333,0,0,0,13.088-2.949,24.144,24.144,0,0,0,8.81-7.3Z" style="fill:#af543f"/></svg>