<?xml version="1.0" encoding="UTF-8"?>
<!DOCTYPE svg PUBLIC "-//W3C//DTD SVG 1.1//EN" "http://www.w3.org/Graphics/SVG/1.1/DTD/svg11.dtd">

<svg xmlns="http://www.w3.org/2000/svg" xml:space="preserve" width="2048px" height="2048px" style="shape-rendering:geometricPrecision; text-rendering:geometricPrecision; image-rendering:optimizeQuality; fill-rule:evenodd; clip-rule:evenodd"
viewBox="0 0 2048 2048"
 xmlns:xlink="http://www.w3.org/1999/xlink">
 <defs>
  <style type="text/css">
   <![CDATA[
    .fil8 {fill:none}
    .fil1 {fill:#EC407A}
    .fil7 {fill:#AD1457;fill-rule:nonzero}
    .fil4 {fill:#BA235D;fill-rule:nonzero}
    .fil0 {fill:#C2185B;fill-rule:nonzero}
    .fil3 {fill:#CF195E;fill-rule:nonzero}
    .fil2 {fill:#D81B60;fill-rule:nonzero}
    .fil5 {fill:#EC407A;fill-rule:nonzero}
    .fil6 {fill:#F06292;fill-rule:nonzero}
   ]]>
  </style>
 </defs>
 <g id="Layer_x0020_1">
  <metadata id="CorelCorpID_0Corel-Layer"/>
  <g id="_439268536">
   <path class="fil0" d="M1024 399l0 0c106,0 203,43 273,114 70,70 114,167 114,273l0 61 0 32 -32 0 -709 0 -32 0 0 -32 0 -61c0,-106 43,-203 114,-273 70,-70 167,-114 273,-114zm0 64l0 0c-89,0 -169,36 -228,95 -58,58 -95,139 -95,228l0 29 645 0 0 -29c0,-89 -36,-169 -95,-228 -58,-58 -139,-95 -228,-95z"/>
   <path class="fil1" d="M652 864l743 0 0 -78c0,-99 -39,-193 -109,-262 -70,-70 -164,-109 -262,-109 -99,0 -193,39 -262,109 -70,70 -109,164 -109,262l0 78zm372 -416c90,0 175,36 238,99 63,63 99,149 99,238l0 44 -675 0 0 -44c0,-90 36,-175 99,-238 63,-63 149,-99 238,-99z"/>
   <path class="fil2" d="M1625 1051l181 506c2,7 4,13 4,20 0,17 -7,32 -18,44 -10,10 -22,18 -36,23 -9,3 -20,5 -29,5l-1404 0c-10,0 -20,-2 -29,-5 -13,-5 -26,-13 -36,-23 -11,-12 -18,-27 -18,-44 0,-7 1,-13 4,-20l183 -504c466,189 788,151 1201,-1z"/>
   <path class="fil3" d="M1807 1560c2,6 2,11 2,16 0,17 -7,32 -18,44 -10,10 -22,18 -36,23 -9,3 -20,5 -29,5l-1404 0c-10,0 -20,-2 -29,-5 -13,-5 -26,-13 -36,-23 -11,-12 -18,-27 -18,-44 0,-5 1,-11 2,-16l1567 0z"/>
   <path class="fil4" d="M562 815l924 0c24,0 42,11 56,27 11,13 18,30 24,46l61 178c-16,8 -35,17 -44,21 -68,35 -145,59 -219,75 -63,14 -136,24 -209,29 -97,7 -196,8 -292,-1 -66,-6 -131,-16 -195,-31 -66,-16 -133,-37 -195,-67 -10,-5 -20,-11 -30,-16 -4,-2 -9,-5 -13,-8l-10 -6 60 -175c6,-17 13,-33 24,-46 14,-17 32,-27 56,-27z"/>
   <path class="fil5" d="M562 815l924 0c24,0 42,10 56,27 11,13 18,29 24,45l61 172c-16,7 -35,17 -44,21 -68,34 -145,57 -219,73 -63,14 -136,23 -209,28 -97,7 -196,8 -292,-1 -66,-6 -131,-16 -195,-30 -66,-15 -133,-36 -195,-65 -10,-5 -20,-10 -30,-16 -4,-2 -9,-5 -13,-7l-10 -6 60 -169c6,-16 13,-32 24,-45 14,-16 32,-27 56,-27z"/>
   <path class="fil6" d="M562 815l4 0 63 324c-8,-2 -17,-5 -25,-7l-61 -315c6,-2 12,-2 19,-2zm27 0l24 0 65 336c-3,-1 -7,-1 -10,-2 -5,-1 -10,-2 -15,-4l-64 -330zm47 0l24 0 67 345c-8,-2 -17,-3 -25,-5l-66 -341zm47 0l24 0 69 353c-8,-1 -16,-2 -25,-4l-68 -349zm47 0l24 0 70 360c-8,-1 -16,-2 -24,-3l-69 -357zm47 0l24 0 71 364c-3,0 -5,0 -8,-1 -6,-1 -11,-1 -17,-2l-70 -362zm47 0l24 0 71 368c-8,0 -16,-1 -24,-2l-71 -366zm47 0l24 0 72 370c-8,0 -16,0 -24,-1l-72 -369zm47 0l24 0 72 370c-8,0 -16,0 -24,0l-72 -370zm47 0l24 0 72 370c-8,0 -16,0 -24,0l-72 -370zm47 0l24 0 72 368c-8,0 -16,1 -24,1l-72 -369zm47 0l24 0 71 365c-8,1 -16,1 -24,2l-71 -367zm47 0l24 0 70 361c-8,1 -16,1 -23,2l-71 -363zm47 0l24 0 69 356c-8,1 -16,2 -23,3l-70 -359zm47 0l24 0 68 350c-8,1 -15,2 -23,3l-69 -353zm47 0l24 0 67 342c-8,1 -15,3 -23,4l-67 -346zm47 0l24 0 65 333c-5,1 -11,2 -16,4 -2,1 -5,1 -7,2l-66 -338zm47 0l24 0 63 322c-8,2 -15,4 -23,6l-64 -328zm47 0l24 0 60 309c-7,2 -15,5 -23,7l-61 -316zm47 0l24 0 57 294c-7,3 -15,5 -22,8l-59 -302zm47 0l6 0c7,0 13,1 18,2l53 274c-7,3 -15,6 -22,9l-55 -285zm50 15c4,3 9,7 12,12 9,11 16,24 21,37l37 192c-7,3 -13,6 -17,8 -2,1 -4,2 -5,3l-49 -251zm-950 295c-9,-3 -17,-5 -26,-8l-52 -269c1,-2 3,-3 4,-5 5,-6 10,-11 16,-15l58 298zm-50 -17c-9,-3 -17,-7 -26,-10l-34 -176 12 -35c1,-3 2,-6 3,-8l45 229zm-50 -21c-2,-1 -4,-2 -6,-3 -7,-3 -14,-7 -21,-11l-13 -69 15 -43 24 125z"/>
   <path class="fil7" d="M971 1068l107 0 27 0 0 27 0 133c0,22 -9,42 -23,57 -14,14 -34,23 -57,23l0 0c-22,0 -42,-9 -57,-23 -14,-14 -23,-34 -23,-57l0 -133 0 -27 27 0z"/>
   <circle class="fil1" cx="1024" cy="1231" r="36"/>
  </g>
  <rect class="fil8" width="2048" height="2048"/>
 </g>
</svg>
