<?xml version="1.0" encoding="UTF-8"?>
<!DOCTYPE svg PUBLIC "-//W3C//DTD SVG 1.1//EN" "http://www.w3.org/Graphics/SVG/1.1/DTD/svg11.dtd">

<svg xmlns="http://www.w3.org/2000/svg" xml:space="preserve" width="2048px" height="2048px" style="shape-rendering:geometricPrecision; text-rendering:geometricPrecision; image-rendering:optimizeQuality; fill-rule:evenodd; clip-rule:evenodd"
viewBox="0 0 2048 2048"
 xmlns:xlink="http://www.w3.org/1999/xlink">
 <defs>
  <style type="text/css">
   <![CDATA[
    .fil3 {fill:none}
    .fil2 {fill:#3CBA90}
    .fil0 {fill:#33CC99;fill-rule:nonzero}
    .fil1 {fill:#3CBA90;fill-rule:nonzero}
   ]]>
  </style>
 </defs>
 <g id="Layer_x0020_1">
  <metadata id="CorelCorpID_0Corel-Layer"/>
  <path class="fil0" d="M1314 532c1,27 38,60 68,86 9,8 18,15 26,24l2 2c38,46 55,102 61,156 10,96 -17,190 -22,204 -42,115 -59,238 -54,361 5,131 35,262 85,383l18 43 -47 0 -860 0 -42 0 12 -40c53,-174 80,-284 84,-389 4,-105 -15,-208 -53,-368 -15,-61 -25,-123 -22,-181 3,-61 21,-119 63,-169l2 -2c7,-7 16,-15 26,-24 30,-27 67,-60 68,-87l1 -31 0 0 0 -245 63 0 0 245 0 0 1 31c1,39 26,75 61,103 41,33 96,53 144,53l46 0c48,0 103,-21 145,-54 32,-25 56,-57 61,-91l0 -288 63 0 0 276 1 0z"/>
  <path class="fil1" d="M1314 418c0,3 1,6 1,9 0,6 0,11 0,17 0,242 -132,438 -294,438 -162,0 -294,-196 -294,-438 0,-7 0,-13 0,-20 0,-2 1,-4 1,-6l0 -17 0 -13 0 0 0 -132 63 0 0 27 0 105 0 0 0 1c-1,15 -2,31 -2,47 0,186 103,336 231,336 128,0 231,-150 231,-336 0,-17 -1,-33 -2,-49l0 -104 0 -26 63 0 0 131 0 31 1 0z"/>
  <path class="fil1" d="M1441 1028c-3,8 -5,16 -8,24 -112,70 -216,88 -401,49 189,23 288,13 408,-73zm-25 92c-7,33 -12,66 -16,99 -76,12 -161,0 -278,-50 -11,-7 -22,-13 -32,-19 -2,-1 -5,-3 -7,-4 0,0 5,2 13,4 36,10 144,34 260,-5 20,-7 40,-15 60,-25zm-778 98c-4,-32 -10,-66 -18,-104 24,13 47,24 71,31 116,38 223,15 260,5 9,-2 13,-4 13,-4 -2,1 -5,3 -7,4 -10,6 -20,12 -32,19 -121,51 -208,63 -287,48zm-32 -166c-2,-7 -3,-15 -5,-22 119,85 218,94 406,72 -185,38 -289,21 -401,-50z"/>
  <path class="fil2" d="M551 1761l946 0c9,0 16,7 16,16l0 0c0,9 -7,16 -16,16l-946 0c-9,0 -16,-7 -16,-16l0 0c0,-9 7,-16 16,-16z"/>
  <rect class="fil3" width="2048" height="2048"/>
 </g>
</svg>
