<?xml version="1.0" ?><svg width="340px" height="340px" viewBox="0 0 340 340" id="icons" xmlns="http://www.w3.org/2000/svg"><title/><path d="M78.425,167.767H99.988s7.464,36.906,47.272,35.662,42.492-2.074,42.492-2.074l-13.05,25.3S95.841,244.066,78.425,167.767Z" style="fill:#473b37"/><path d="M23.784,176.89h52.84a51.708,51.708,0,0,1,14.457,2.139c6.149,1.792,17.22,3.612,32.543.582,12.237-2.421,19.489-8.578,23.685-14.139a21.321,21.321,0,0,0,2.226-22.2c-4.39-9.057-14.963-20.982-40.425-26.506a50.518,50.518,0,0,0-15.98.817,24.3,24.3,0,0,1-12.573-.412C70.6,114.118,50,111.049,26.2,126.024a13.482,13.482,0,0,0,1.534,23.682c.169.077.34.154.515.23,0,0-20.3,1.6-18.661,15.729A12.269,12.269,0,0,0,16,174.93,15.631,15.631,0,0,0,23.784,176.89Z" style="fill:#9fc2ab"/><path d="M147.309,165.472a21.321,21.321,0,0,0,2.226-22.2c-4.269-8.808-14.391-20.327-38.364-26.035a28.6,28.6,0,0,1,6.677,15.271c1.221,12.508-7.43,23.776-19.62,26.832-6.081,1.524-14.556,2.536-26.233,2.028H49.853a8.424,8.424,0,0,1-7.485-12.34c.061-.112.123-.226.187-.341a3.157,3.157,0,0,0-1.815-4.549c-5.483-1.741-14.872-5.943-18.108-14.877a13.489,13.489,0,0,0,5.1,20.448c.169.077.34.154.515.23,0,0-20.3,1.6-18.661,15.729A12.269,12.269,0,0,0,16,174.93a15.63,15.63,0,0,0,7.781,1.96H76.624a51.708,51.708,0,0,1,14.457,2.139c6.149,1.792,17.22,3.612,32.543.582C135.861,177.19,143.113,171.033,147.309,165.472Z" style="fill:#698779"/><path d="M76.293,251H273.381a0,0,0,0,1,0,0v3.765A14.837,14.837,0,0,1,258.544,269.6H91.13a14.837,14.837,0,0,1-14.837-14.837V251a0,0,0,0,1,0,0Z" style="fill:#e8756d"/><path d="M174.837,269.6H91.13s8.636,18.6,10.851,35.875a31.573,31.573,0,0,0,1.05,5.029,21.42,21.42,0,0,0,20.575,15.158H226.068a21.42,21.42,0,0,0,20.575-15.158,31.573,31.573,0,0,0,1.05-5.029c2.215-17.273,10.851-35.875,10.851-35.875Z" style="fill:#e8756d"/><path d="M91.13,269.6s1.966,4.237,4.261,10.539H254.283c2.3-6.3,4.261-10.539,4.261-10.539H91.13Z" style="fill:#bc4242"/><path d="M213.607,174.4s39.809,12.44,41.882-22.392h17.892s4.086,19.074-18.307,33.173-25.294,30.123-25.294,30.123Z" style="fill:#9b7b76"/><path d="M134.089,87.886h16.9s.338,26.389,30.233,26.389l-33.136,27.368a23.52,23.52,0,0,0,2.151-9.876,21.574,21.574,0,0,0-6.012-14.652C140.295,112.9,132.607,102.62,134.089,87.886Z" style="fill:#473b37"/><path d="M177.453,179.611s13.594,7.209-2.616,30.041S126.584,251,126.584,251H214.3S239.137,190.826,177.453,179.611Z" style="fill:#473b37"/><path d="M193.475,87.886s2.8,18.024-21.63,30.441c0,0-15.909,7.392-26.047,19.632a27.077,27.077,0,0,0,5.469,39.38c5.965,4.218,14.412,8.606,26.186,11.885,0,0,33.646,9.212,34.447,34.046a37.122,37.122,0,0,1-5.3,16.074s-2.468,8.405-8.028,11.657h23.338s27.622-20.563,14.322-54.92a55.884,55.884,0,0,0-21.545-26.346,149.7,149.7,0,0,0-28.973-14.8,11.013,11.013,0,0,1-4.169-17.7,125.674,125.674,0,0,1,13.128-12.5C210.7,111.518,207.9,87.886,207.9,87.886Z" style="fill:#9b7b76"/><path d="M255.489,152.01c-.444,7.456-2.62,12.741-5.762,16.451l19.809,2.259c5.7-10,3.845-18.71,3.845-18.71Z" style="fill:#473b37"/><path d="M232.682,156.986h65.1s29.992,2.359,32.56-15.4a14.185,14.185,0,0,0-4.764-13.045q-.309-.255-.645-.5a13.871,13.871,0,0,1-4.8-6.14c-2.232-5.811-10.188-15.912-38.538-15.912H260.68a40.572,40.572,0,0,0-21.463,5.945,32.77,32.77,0,0,0-6.733,5.472,47.881,47.881,0,0,1-10.358,8.559c-.12.073-.241.146-.362.222-12.942,8.017-9.162,28.1,5.881,30.435A32.766,32.766,0,0,0,232.682,156.986Z" style="fill:#9fc2ab"/><path d="M193.475,87.886s1.338,8.651-5.959,18.1h18.751A52.849,52.849,0,0,0,207.9,87.886Z" style="fill:#473b37"/><path d="M95.26,94.538c2.919-.1,5.848-.118,8.767-.044l109.58,2.779s4.481.5,10.164-2.942A24.317,24.317,0,0,1,237.525,90.9c14.59.69,44.011-.019,57.888-15.238,4.684-5.137,3.113-13.5-3.3-16.177-.2-.084-.41-.167-.624-.247a9.888,9.888,0,0,1-4.9-4.02C282.654,48.892,270.994,34.706,244,30.985A59.257,59.257,0,0,1,223.4,23.991c-12.273-6.8-37.229-15.466-74.484-4.261,0,0-57.225-20.734-87.5,24.051,0,0-18.568,3.961-24.9,18.387a19.357,19.357,0,0,0,9.355,25C54.468,91.463,69.465,95.431,95.26,94.538Z" style="fill:#9fc2ab"/><path d="M330.345,141.581a14.18,14.18,0,0,0-4.763-13.045q-.309-.255-.645-.5a13.886,13.886,0,0,1-4.8-6.14c-1.285-3.349-4.483-8.12-12.379-11.564,2.743,9.8-10.02,13.219-17.783,14.38a5.19,5.19,0,0,0-4.38,5.639c.986,10.969-11.923,11.295-11.923,11.295H243.64c-20.715,0-23.892-8.307-23.472-14.334-10.98,8.623-6.906,27.071,7.477,29.305a32.766,32.766,0,0,0,5.037.372h65.1S327.778,159.345,330.345,141.581Z" style="fill:#698779"/><path d="M295.413,75.662c4.684-5.137,3.113-13.5-3.3-16.177-.2-.084-.41-.167-.624-.247a9.884,9.884,0,0,1-4.9-4.02,42.781,42.781,0,0,0-6.105-7.593c-16.645,14.923-69.454,13-69.454,13h-41.3a80.759,80.759,0,0,0-23.8,3.585l-16.626,5.125a80.759,80.759,0,0,1-23.8,3.585H80.582c-28.917,0-35.478-11.378-35.772-21.172a27.541,27.541,0,0,0-8.292,10.421,19.357,19.357,0,0,0,9.355,25c8.6,4.3,23.592,8.266,49.388,7.373,2.918-.1,5.847-.118,8.766-.044l109.58,2.779s4.481.5,10.164-2.943a24.325,24.325,0,0,1,13.754-3.43C252.115,91.59,281.536,90.881,295.413,75.662Z" style="fill:#698779"/><path d="M214.691,169.735a149.7,149.7,0,0,0-28.973-14.8,11.013,11.013,0,0,1-4.169-17.7s-10.9,8.119-5.959,19.427a11.061,11.061,0,0,0,6.356,5.932c6.03,2.209,18.488,7.043,25.436,11.657a11.725,11.725,0,0,0,6.483,1.955l8.981.008A58.225,58.225,0,0,0,214.691,169.735Z" style="fill:#473b37"/><path d="M206.6,239.342A33.655,33.655,0,0,1,194.735,251h27.179a48.633,48.633,0,0,0,10.392-11.659Z" style="fill:#473b37"/></svg>