<?xml version="1.0" ?><svg width="24px" height="24px" viewBox="0 0 24 24" xmlns="http://www.w3.org/2000/svg"><g fill="none" fill-rule="evenodd"><g transform="rotate(-10 21.93 -6.645)"><path d="M0,1 C2,0.333333333 3.66666667,0 5,0 C6.33333333,0 7.66666667,0.333333333 9,1 C10.3333333,1.66666667 11.6666667,2 13,2 C14.3333333,2 16,1.66666667 18,1 L18,4.71428571 C16,5.38095238 14.3333333,5.71428571 13,5.71428571 C11.6666667,5.71428571 10.3333333,5.38095238 9,4.71428571 C7.66666667,4.04761905 6.33333333,3.71428571 5,3.71428571 C3.66666667,3.71428571 2,4.04761905 0,4.71428571 L0,1 Z" fill="#4D505F"/><path d="M1.42108547e-14,3.71428571 C2,3.04761905 3.66666667,2.71428571 5,2.71428571 C6.33333333,2.71428571 7.66666667,3.04761905 9,3.71428571 C10.3333333,4.38095238 11.6666667,4.71428571 13,4.71428571 C14.3333333,4.71428571 16,4.38095238 18,3.71428571 L18,6.42857143 C16,7.09523809 14.3333333,7.42857143 13,7.42857143 C11.6666667,7.42857143 10.3333333,7.09523809 9,6.42857143 C7.66666667,5.76190476 6.33333333,5.42857143 5,5.42857143 C3.66666667,5.42857143 2,5.76190476 1.42108547e-14,6.42857143 L1.42108547e-14,3.71428571 Z" fill="#9FA3B6"/><path d="M1.42108547e-14,5.42857143 C2,4.76190476 3.66666667,4.42857143 5,4.42857143 C6.33333333,4.42857143 7.66666667,4.76190476 9,5.42857143 C10.3333333,6.09523809 11.6666667,6.42857143 13,6.42857143 C14.3333333,6.42857143 16,6.09523809 18,5.42857143 L18,8.14285714 C16,8.80952381 14.3333333,9.14285714 13,9.14285714 C11.6666667,9.14285714 10.3333333,8.80952381 9,8.14285714 C7.66666667,7.47619048 6.33333333,7.14285714 5,7.14285714 C3.66666667,7.14285714 2,7.47619048 1.42108547e-14,8.14285714 L1.42108547e-14,5.42857143 Z" fill="#FFF"/><path d="M1.42108547e-14,7.14285714 C2,6.47619048 3.66666667,6.14285714 5,6.14285714 C6.33333333,6.14285714 7.66666667,6.47619048 9,7.14285714 C10.3333333,7.80952381 11.6666667,8.14285714 13,8.14285714 C14.3333333,8.14285714 16,7.80952381 18,7.14285714 L18,9.85714286 C16,10.5238095 14.3333333,10.8571429 13,10.8571429 C11.6666667,10.8571429 10.3333333,10.5238095 9,9.85714286 C7.66666667,9.19047619 6.33333333,8.85714286 5,8.85714286 C3.66666667,8.85714286 2,9.19047619 1.42108547e-14,9.85714286 L1.42108547e-14,7.14285714 Z" fill="#31D362"/><path d="M1.42108547e-14,8.85714286 C2,8.19047619 3.66666667,7.85714286 5,7.85714286 C6.33333333,7.85714286 7.66666667,8.19047619 9,8.85714286 C10.3333333,9.52380952 11.6666667,9.85714286 13,9.85714286 C14.3333333,9.85714286 16,9.52380952 18,8.85714286 L18,11.5714286 C16,12.2380952 14.3333333,12.5714286 13,12.5714286 C11.6666667,12.5714286 10.3333333,12.2380952 9,11.5714286 C7.66666667,10.9047619 6.33333333,10.5714286 5,10.5714286 C3.66666667,10.5714286 2,10.9047619 1.42108547e-14,11.5714286 L1.42108547e-14,8.85714286 Z" fill="#FFF"/><path d="M1.42108547e-14,10.5714286 C2,9.9047619 3.66666667,9.57142857 5,9.57142857 C6.33333333,9.57142857 7.66666667,9.9047619 9,10.5714286 C10.3333333,11.2380952 11.6666667,11.5714286 13,11.5714286 C14.3333333,11.5714286 16,11.2380952 18,10.5714286 L18,13.2857143 C16,13.952381 14.3333333,14.2857143 13,14.2857143 C11.6666667,14.2857143 10.3333333,13.952381 9,13.2857143 C7.66666667,12.6190476 6.33333333,12.2857143 5,12.2857143 C3.66666667,12.2857143 2,12.6190476 1.42108547e-14,13.2857143 L1.42108547e-14,10.5714286 Z" fill="#9FA3B6"/><path d="M1.42108547e-14,12.2857143 C2,11.6190476 3.66666667,11.2857143 5,11.2857143 C6.33333333,11.2857143 7.66666667,11.6190476 9,12.2857143 C10.3333333,12.952381 11.6666667,13.2857143 13,13.2857143 C14.3333333,13.2857143 16,12.952381 18,12.2857143 L18,15 C16,15.6666667 14.3333333,16 13,16 C11.6666667,16 10.3333333,15.6666667 9,15 C7.66666667,14.3333333 6.33333333,14 5,14 C3.66666667,14 2,14.3333333 1.42108547e-14,15 L1.42108547e-14,12.2857143 Z" fill="#4D505F"/></g><path d="M5.77458164,22.2450743 C5.87119042,22.7888438 5.5086951,23.3079729 4.96492567,23.4045816 C4.42115625,23.5011904 3.90202714,23.1386951 3.80541836,22.5949257 L3.10541836,18.6549257 L3.1072833,18.6545943 L3.10698745,18.6529244 L0.802687133,5.58458794 C0.649974993,4.71843889 1.0810201,3.85417025 1.86476731,3.45507487 C3.51961878,2.61240064 4.97329859,2.07701762 6.23746312,1.8541113 C7.70809667,1.59479893 9.23551211,1.70257718 10.8090943,2.17063744 C12.093197,2.55259238 13.307701,2.63829082 14.4632215,2.43454139 C15.3882295,2.27143753 16.4936553,1.88496788 17.7708886,1.27093118 C18.7664061,0.792229721 19.9614716,1.21127271 20.4400872,2.20682182 C20.5192437,2.37147221 20.5754681,2.54619162 20.6071918,2.72610581 L22.6763579,14.4609297 C22.8291099,15.3270964 22.3980599,16.1913938 21.6142935,16.5904992 C19.9594398,17.433175 18.5057582,17.9685589 17.2415923,18.1914654 C15.7709588,18.4507778 14.2435434,18.3429996 12.6699612,17.8749393 C11.3858584,17.4929844 10.1713544,17.4072859 9.01583397,17.6110354 C7.96858501,17.7956936 6.69383831,18.2656275 5.20250121,19.0250788 L5.77458164,22.2450743 Z M8.66853761,15.6414198 C10.1391712,15.3821075 11.6665866,15.4898857 13.2401687,15.957946 C14.5242715,16.3399009 15.7387755,16.4255994 16.894296,16.2218499 C17.9401148,16.0374439 19.214819,15.5679764 20.7067522,14.8082621 L18.6375763,3.07338538 C17.2073756,3.76096514 15.9345497,4.20595975 14.8105179,4.40415689 C13.3398843,4.66346927 11.8124689,4.55569101 10.2388867,4.08763076 C8.95478395,3.70567582 7.74027994,3.61997738 6.58475948,3.82372681 C5.53894186,4.00813267 4.26423932,4.47759926 2.77230523,5.2373121 L4.84147651,16.9721598 C6.27296255,16.2839248 7.54606906,15.8393413 8.66853761,15.6414198 Z" fill="#000" fill-rule="nonzero"/></g></svg>