<?xml version="1.0" ?><svg width="100px" height="100px" viewBox="0 0 100 100" data-name="Layer 1" id="Layer_1" xmlns="http://www.w3.org/2000/svg"><defs><style>.cls-1{fill:#c8da52;}.cls-2{fill:#995f5b;}</style></defs><title/><path class="cls-1" d="M23.85,38.78c9.63-2,15,2.07,16.22,8.17S38,58.88,28.4,60.86,5.33,54.71,5.21,54.13,14.23,40.76,23.85,38.78Z"/><path class="cls-1" d="M45.72,18.87C51.31,27,49.66,33.45,44.54,37s-11.78,2.78-17.36-5.3S23.83,8,24.31,7.7,40.14,10.78,45.72,18.87Z"/><path class="cls-1" d="M72.6,31.21c-5.26,8.3-11.88,9.33-17.14,6s-7.16-9.75-1.9-18.05,20.45-12.32,21-12S77.86,22.91,72.6,31.21Z"/><path class="cls-1" d="M71.73,60.78c-9.69-1.6-13.22-7.3-12.21-13.44s6.19-10.4,15.88-8.8,19.33,14,19.24,14.59S81.43,62.38,71.73,60.78Z"/><path class="cls-2" d="M57.46,43.08a1,1,0,0,0-1.41-1.41l-6.22,6.21-6.21-6.21a1,1,0,0,0-1.41,1.41l6.62,6.63v5.08l-5.21-5.21A1,1,0,1,0,42.21,51l6.62,6.63V93.78a1,1,0,0,0,2,0V57.62L57.46,51a1,1,0,0,0-1.41-1.41l-5.22,5.21V49.71Z"/><path class="cls-2" d="M75.86,78.39a1,1,0,0,0-1,1V93.78a1,1,0,0,0,2,0V79.39A1,1,0,0,0,75.86,78.39Z"/><path class="cls-1" d="M65.37,77.4c3.88-.8,6,.83,6.53,3.28s-.83,4.8-4.7,5.6-9.28-2.48-9.32-2.71S61.5,78.2,65.37,77.4Z"/><path class="cls-1" d="M74.17,69.39c2.25,3.25,1.58,5.86-.48,7.29s-4.73,1.11-7-2.14S65.36,65,65.56,64.9,71.92,66.14,74.17,69.39Z"/><path class="cls-1" d="M85,74.35c-2.11,3.34-4.78,3.75-6.89,2.41s-2.88-3.92-.77-7.26,8.23-5,8.43-4.83S87.1,71,85,74.35Z"/><path class="cls-1" d="M84.63,86.25c-3.9-.65-5.32-2.94-4.91-5.41s2.49-4.18,6.39-3.54,7.78,5.64,7.74,5.87S88.53,86.89,84.63,86.25Z"/></svg>