<?xml version="1.0" ?><svg width="100px" height="100px" viewBox="0 0 100 100" data-name="Layer 1" id="Layer_1" xmlns="http://www.w3.org/2000/svg"><defs><style>.cls-1{fill:#c8da52;}.cls-2{fill:#995f5b;}</style></defs><title/><path class="cls-1" d="M81,23.38s1.29,22.19-6.78,33.27a16.71,16.71,0,0,1-22.32,4.87c-5.44-3.49-10-17,1.19-24.58C65.29,28.67,73.49,36.23,81,23.38Z"/><path class="cls-1" d="M5.65,6.46S30.57,9.08,41.41,20.09A18.84,18.84,0,0,1,42.73,45.8C37.85,51.21,22,53.79,15.62,40,8.65,24.87,18.57,17.14,5.65,6.46Z"/><path class="cls-1" d="M94.53,71s.44,7.4-2.26,11.1a5.56,5.56,0,0,1-7.44,1.62,5.07,5.07,0,0,1,.4-8.2C89.3,72.75,92,75.28,94.53,71Z"/><path class="cls-1" d="M67.52,63.56s9.43,1,13.53,5.16a7.11,7.11,0,0,1,.5,9.72,6.48,6.48,0,0,1-10.25-2.2C68.66,70.52,72.41,67.6,67.52,63.56Z"/><path class="cls-2" d="M59.83,49.13c-.16,0-13.14,2.78-18.21,13.77v-5c0-13.84-10.52-24.52-11-25a1,1,0,0,0-1.41,1.41c.1.11,10.38,10.54,10.38,23.56V93.78a1,1,0,0,0,2,0V72.43a19.8,19.8,0,0,1,9.21-17.21,28.89,28.89,0,0,1,9.4-4.13,1,1,0,0,0-.4-2Z"/><path class="cls-2" d="M89.11,78.85a1,1,0,0,0-1.3-.55,14.54,14.54,0,0,0-5.43,4.08v-.3c0-4.79-3.61-8.47-3.77-8.62a1,1,0,1,0-1.41,1.41s3.18,3.23,3.18,7.21v11.7a1,1,0,0,0,2,0V88c0-5.25,6.11-7.78,6.17-7.81A1,1,0,0,0,89.11,78.85Z"/></svg>