<?xml version="1.0" ?><svg width="100px" height="100px" viewBox="0 0 100 100" data-name="Layer 1" id="Layer_1" xmlns="http://www.w3.org/2000/svg"><defs><style>.cls-1{fill:#c8da52;}.cls-2{fill:#995f5b;}</style></defs><title/><path class="cls-1" d="M53,31.69A9.21,9.21,0,0,0,46.7,23,9.22,9.22,0,0,0,44.25,5V5H14.16V5l-.49,0a9.22,9.22,0,0,0-2.93,18,9.21,9.21,0,0,0,2.93,17.95l.49,0v0c-.17,0-.32,0-.49,0a9.22,9.22,0,0,0-2.93,18,9.21,9.21,0,0,0,2.93,17.95l.49,0v0H44.25v0A9.21,9.21,0,0,0,46.7,58.87a9.21,9.21,0,0,0-2.45-17.93v0A9.22,9.22,0,0,0,53,31.69Z"/><path class="cls-1" d="M87,69.06a6.8,6.8,0,1,0,0-13.59H64.63a6.8,6.8,0,1,0,0,13.59,6.8,6.8,0,1,0,0,13.59H87a6.8,6.8,0,1,0,0-13.59Z"/><path class="cls-2" d="M84,69a1,1,0,0,0-1,1v13.7a1.86,1.86,0,0,1-1.91,1.8H77.27V72.94a1,1,0,0,0-2,0V85.53H71.42a1.86,1.86,0,0,1-1.91-1.8V65.18a1,1,0,0,0-2,0V83.73a3.86,3.86,0,0,0,3.91,3.8h3.85v5.79a1,1,0,0,0,2,0V87.53h3.86A3.86,3.86,0,0,0,85,83.73V70A1,1,0,0,0,84,69Z"/><path class="cls-2" d="M36.48,34.09a1,1,0,0,0-1,1V78.88a1.86,1.86,0,0,1-1.91,1.8H29.72V39.94a1,1,0,0,0-2,0V80.68H23.86A1.86,1.86,0,0,1,22,78.88V29.27a1,1,0,0,0-2,0V78.88a3.87,3.87,0,0,0,3.91,3.8h3.86V93.32a1,1,0,0,0,2,0V82.68h3.85a3.86,3.86,0,0,0,3.91-3.8V35.09A1,1,0,0,0,36.48,34.09Z"/></svg>