<?xml version="1.0" ?><svg width="340px" height="340px" viewBox="0 0 340 340" id="icons" xmlns="http://www.w3.org/2000/svg"><title/><path d="M139.5,40.551h-7.757l1.963-29.9a1.92,1.92,0,0,1,3.832,0Z" style="fill:#c12140"/><path d="M167.418,203.022H103.825S90.6,285.2,48.728,329.372h43.8s7.67-48.113,43.092-48.113,43.091,48.113,43.091,48.113h43.8C180.641,285.2,167.418,203.022,167.418,203.022Z" style="fill:#f74f73"/><path d="M150.692,82.835H120.551c-.973,60.319-11.4,101.882-11.4,101.882H162.1S151.665,143.154,150.692,82.835Z" style="fill:#f74f73"/><path d="M110.27,179.775l25.352-16.347,25.351,16.347c-.51-2.381-1.164-5.594-1.894-9.55l-17.224-11.107,13.867-9.887q-.562-4.087-1.106-8.579L141.7,131.733l11.142-8q-.369-4.136-.692-8.492L141.406,108.1l9.811-8.429q-.2-4.386-.341-8.936l-15.254,13.107L120.367,90.731q-.137,4.549-.341,8.936l9.811,8.428-10.745,7.148q-.321,4.355-.692,8.492l11.142,8-12.915,8.918q-.54,4.485-1.1,8.581l13.867,9.886-17.225,11.107C111.434,174.181,110.78,177.393,110.27,179.775Zm14.632-59.99,10.72-7.131,10.719,7.131-10.719,7.694Zm-2.763,25.568,13.483-9.311,13.483,9.311-13.483,9.613Z" style="fill:#c12140"/><path d="M120.205,95.435h30.834q-.238-6.15-.347-12.6H120.551Q120.447,89.284,120.205,95.435Z" style="fill:#c12140"/><path d="M144.782,41.814a6.473,6.473,0,0,0-6.45-5.849h-5.421a6.471,6.471,0,0,0-6.449,5.849c-.617,6.4-1.98,16.783-4.769,24.517H149.55C146.761,58.6,145.4,48.215,144.782,41.814Z" style="fill:#f74f73"/><rect height="16.504" rx="2.083" style="fill:#e3e7fc" width="43.204" x="114.019" y="66.331"/><path d="M145.788,54.089H125.455a4,4,0,1,1,0-8h20.333a4,4,0,0,1,0,8Z" style="fill:#e3e7fc"/><path d="M222.515,329.372c-1.41-1.487-2.782-3.023-4.127-4.593q-1.022-1.192-2.018-2.416-.53-.649-1.054-1.306a174.521,174.521,0,0,1-16.939-26.01c-2.6-4.831-5.017-9.743-7.243-14.66l-8.579-6.5,4.41-3.214q-1.579-3.879-3.014-7.7l-8.057,5.872L162.1,258.4l16.579-10.588c-1.78-5.534-3.32-10.795-4.641-15.64l-10.1-6.989,7.125-4.665c-.746-3.137-1.37-5.945-1.875-8.335l-12.351,8.087-17.21-11.908v-5.336h-8v5.336l-17.211,11.908-12.35-8.087c-.506,2.391-1.13,5.2-1.876,8.335l7.126,4.665-10.1,6.989c-1.321,4.845-2.861,10.106-4.641,15.64l15.69,11.261-12.91,9.777-8.057-5.872q-1.434,3.819-3.014,7.7l4.411,3.214-8.58,6.5c-2.221,4.907-4.63,9.807-7.225,14.628a174.567,174.567,0,0,1-16.958,26.044q-.52.652-1.047,1.3-1,1.227-2.027,2.427c-1.344,1.569-2.715,3.1-4.124,4.59h7.426l6.534-4.178H93.409c.469-1.948,1.157-4.475,2.1-7.318.11-.331.221-.666.338-1.006.105-.305.215-.615.326-.927.123-.346.25-.694.38-1.047.116-.314.237-.631.359-.951.139-.363.283-.73.43-1.1q.193-.484.395-.974.23-.553.472-1.114a67.238,67.238,0,0,1,7.642-13.5c.179-.24.358-.48.541-.718.318-.413.647-.82.979-1.224a40.4,40.4,0,0,1,11.114-9.614l-1.946-1.418L102.1,273.767l14.157-10.721,15.363,9.413v9.02a36.474,36.474,0,0,1,8,0v-9.02l15.56-9.264,13.96,10.572-14.435,10.519-1.946,1.418a40.4,40.4,0,0,1,11.112,9.612c.333.406.663.814.982,1.229.182.235.359.473.536.711a67.806,67.806,0,0,1,7.9,14.08q.459,1.087.87,2.148c.079.2.15.4.226.6.192.5.381,1,.558,1.491.092.255.176.5.264.754.149.424.3.847.435,1.259.087.259.168.511.251.765.127.392.252.78.369,1.158.676,2.175,1.195,4.119,1.573,5.684h30.72l6.534,4.178ZM107.094,287.3l-8.844,5.655a12.044,12.044,0,0,1-6.491,1.9H88.642a12.051,12.051,0,0,1-8.631-3.642l-.4-.413,15.832-11.99Zm28.528-71.985L149.608,225l-13.986,9.157L121.635,225ZM115.487,253.6,97.716,241.546l16.818-11.637,17.285,11.317Zm20.135,11.936-12.613-7.6,12.613-9.552,12.233,9.265Zm3.8-24.305,17.285-11.317,16.818,11.637L155.182,253.16ZM175.8,278.811,191.763,290.9h0a12.045,12.045,0,0,1-8.928,3.958h-3.35a12.044,12.044,0,0,1-6.491-1.9L164.15,287.3Z" style="fill:#c12140"/><rect height="21.116" rx="2.704" style="fill:#e3e7fc" width="58.64" x="47.527" y="310.025"/><rect height="21.116" rx="2.704" style="fill:#e3e7fc" width="58.64" x="164.964" y="310.025"/><rect height="6.608" style="fill:#4c5768" width="6.608" x="124.127" y="71.279"/><rect height="6.608" style="fill:#4c5768" width="6.608" x="140.508" y="71.279"/><path d="M171.022,220.362c-2.521-10.62-3.6-17.34-3.6-17.34H103.825s-1.083,6.72-3.6,17.34Z" style="fill:#c12140"/><path d="M83.263,183.572l4.756,19.287a3.832,3.832,0,0,0,3.72,2.914H179.5a3.833,3.833,0,0,0,3.721-2.914l4.755-19.287a1.924,1.924,0,0,0-1.869-2.386H85.133A1.926,1.926,0,0,0,83.263,183.572Z" style="fill:#e3e7fc"/><path d="M93.352,316.38v3.127a5.687,5.687,0,0,1-5.687,5.687H47.527v3.244a2.7,2.7,0,0,0,2.7,2.7h53.232a2.7,2.7,0,0,0,2.7-2.7V312.729a2.7,2.7,0,0,0-2.7-2.7H91.927A11.987,11.987,0,0,1,93.352,316.38Z" style="fill:#afb9d3"/><path d="M212.2,316.38V319.9a5.3,5.3,0,0,1-5.3,5.3H164.964v3.244a2.7,2.7,0,0,0,2.7,2.7H220.9a2.7,2.7,0,0,0,2.7-2.7V312.729a2.7,2.7,0,0,0-2.7-2.7H210.774A11.987,11.987,0,0,1,212.2,316.38Z" style="fill:#afb9d3"/><path d="M85.706,193.48l2.313,9.379a3.832,3.832,0,0,0,3.72,2.914H179.5a3.833,3.833,0,0,0,3.721-2.914l2.312-9.379Z" style="fill:#afb9d3"/><rect height="8" style="fill:#4c5768" width="8" x="131.721" y="189.48"/><rect height="8" style="fill:#4c5768" width="8" x="108.259" y="189.48"/><rect height="8" style="fill:#4c5768" width="8" x="155.182" y="189.48"/><circle cx="257.494" cy="54.089" r="34.979" style="fill:#f74f73"/></svg>