<?xml version="1.0" ?><svg width="100px" height="100px" viewBox="0 0 100 100" data-name="Layer 1" id="Layer_1" xmlns="http://www.w3.org/2000/svg"><defs><style>.cls-1{fill:#c8da52;}.cls-2{fill:#995f5b;}</style></defs><title/><path class="cls-1" d="M84.89,58.61A10.21,10.21,0,0,0,85,57a10.43,10.43,0,1,0-20.13,3.83,10.42,10.42,0,1,0,10.4,16.25,10.33,10.33,0,0,0,5,1.3,10.42,10.42,0,0,0,4.56-19.8Z"/><path class="cls-1" d="M65.52,41.75A19.39,19.39,0,0,0,54.6,24.31a20.36,20.36,0,0,0,.24-2.95,19.41,19.41,0,1,0-37.45,7.13A19.4,19.4,0,1,0,36.73,58.74a19.41,19.41,0,0,0,28.79-17Z"/><path class="cls-2" d="M48.25,37.85a1,1,0,0,0-1.18.79c-1.43,7.14-7.39,11.57-9.94,13.17a56.88,56.88,0,0,0-7.64-22.23,1,1,0,0,0-1.37-.33,1,1,0,0,0-.34,1.37c16,26.42,3,58.95,2.84,59.28a1,1,0,0,0,.55,1.3,1,1,0,0,0,1.3-.54c.1-.24,6.88-17.13,4.92-36.66,2.14-1.21,9.87-6.12,11.64-15A1,1,0,0,0,48.25,37.85Z"/><path class="cls-2" d="M85,68.09a1,1,0,0,0-2-.28c-.69,4.88-4.68,7-6.33,7.66A69,69,0,0,0,75.21,60.8a1,1,0,1,0-1.95.41,75.17,75.17,0,0,1-.11,28.93,1,1,0,0,0,.8,1.17.58.58,0,0,0,.19,0,1,1,0,0,0,1-.81,86.4,86.4,0,0,0,1.46-12.9C77.46,77.34,84,75.09,85,68.09Z"/></svg>