<?xml version="1.0" ?><svg width="100px" height="100px" viewBox="0 0 100 100" data-name="Layer 1" id="Layer_1" xmlns="http://www.w3.org/2000/svg"><defs><style>.cls-1{fill:#c8da52;}.cls-2{fill:#995f5b;}</style></defs><title/><path class="cls-1" d="M62.18,53c0,19.34-29,13-29,13s-29,6.33-29-13,28-51,29-51S62.18,33.67,62.18,53Z"/><path class="cls-1" d="M93.44,73.29c0,10.84-16.27,7.29-16.27,7.29s-16.26,3.55-16.26-7.29,15.7-28.6,16.26-28.6S93.44,62.45,93.44,73.29Z"/><path class="cls-2" d="M42.85,30.82a1,1,0,1,0-.12-2,4.67,4.67,0,0,0-4.38,4.93A5.6,5.6,0,0,0,43.92,39h.33a6.71,6.71,0,0,0,4.63-2.25,6.63,6.63,0,0,0,1.69-4.86A8.16,8.16,0,0,0,42,24.22a10.55,10.55,0,0,0-8.71,6,10.9,10.9,0,0,0-8.86-6,8.16,8.16,0,0,0-8.62,7.67A6.73,6.73,0,0,0,22.08,39h.33A5.6,5.6,0,0,0,28,33.75a4.67,4.67,0,0,0-4.39-4.93,1,1,0,0,0-1.05.94,1,1,0,0,0,.94,1.06A2.67,2.67,0,0,1,26,33.63,3.6,3.6,0,0,1,22.19,37a4.65,4.65,0,0,1-3.25-1.58A4.71,4.71,0,0,1,17.75,32a6.16,6.16,0,0,1,6.51-5.78A8.61,8.61,0,0,1,30,29a8.22,8.22,0,0,1,2.25,5.05c0,.16,0,.32,0,.48V48a10.09,10.09,0,0,0-.78-.95,10.72,10.72,0,0,0-7.1-3.46,8.15,8.15,0,0,0-8.62,7.67,6.73,6.73,0,0,0,6.32,7.11h.33A5.6,5.6,0,0,0,28,53.16a4.67,4.67,0,0,0-4.39-4.93,1,1,0,0,0-1.05.94,1,1,0,0,0,.94,1.06,2.63,2.63,0,0,1,1.83.89A2.67,2.67,0,0,1,26,53.05a3.59,3.59,0,0,1-3.79,3.36,4.73,4.73,0,0,1-4.44-5,6.18,6.18,0,0,1,6.51-5.79A8.61,8.61,0,0,1,30,48.45a8.22,8.22,0,0,1,2.25,5c0,.16,0,.32,0,.48V90.3a1,1,0,0,0,2,0V53.89c0-.14,0-.27,0-.41a8.55,8.55,0,0,1,7.8-7.85,6.17,6.17,0,0,1,6.52,5.79,4.73,4.73,0,0,1-4.45,5,3.59,3.59,0,0,1-3.78-3.36,2.67,2.67,0,0,1,2.5-2.82,1,1,0,0,0-.12-2,4.68,4.68,0,0,0-4.38,4.93,5.59,5.59,0,0,0,5.57,5.26h.33a6.74,6.74,0,0,0,6.32-7.11A8.16,8.16,0,0,0,42,43.63,10.45,10.45,0,0,0,34.26,48V34.48c0-.14,0-.27,0-.41a8.55,8.55,0,0,1,7.8-7.85A6.16,6.16,0,0,1,48.58,32a4.74,4.74,0,0,1-4.45,5,3.6,3.6,0,0,1-3.78-3.37,2.67,2.67,0,0,1,2.5-2.81Z"/><path class="cls-2" d="M85.7,65a5,5,0,0,0-3.63-1.26,6.22,6.22,0,0,0-4.23,2.09,7.25,7.25,0,0,0-.63.83,6.44,6.44,0,0,0-4.93-2.92A5,5,0,0,0,67,68.42a4.23,4.23,0,0,0,4,4.45h.21a3.56,3.56,0,0,0,3.56-3.36,1,1,0,0,0-2-.11,1.56,1.56,0,0,1-1.66,1.47A2.21,2.21,0,0,1,69,68.54a3,3,0,0,1,3.18-2.83,4.41,4.41,0,0,1,4.07,4.37V90.3a1,1,0,0,0,2,0V70.08a4.18,4.18,0,0,1,1.1-3,4.24,4.24,0,0,1,2.86-1.42,3,3,0,0,1,3.19,2.83,2.22,2.22,0,0,1-.56,1.59,2.17,2.17,0,0,1-1.52.74,1.59,1.59,0,0,1-1.13-.39,1.56,1.56,0,0,1-.53-1.08,1,1,0,0,0-1.06-.94,1,1,0,0,0-.93,1.05A3.47,3.47,0,0,0,80.84,72a3.51,3.51,0,0,0,2.36.9h.22a4.21,4.21,0,0,0,4-4.45A5,5,0,0,0,85.7,65Z"/></svg>