<?xml version="1.0" ?><svg width="340px" height="340px" viewBox="0 0 340 340" id="icons" xmlns="http://www.w3.org/2000/svg"><title/><path d="M308.887,176.329a225.634,225.634,0,0,0-39.147-57.875,30.247,30.247,0,0,0-44.2,0A225.609,225.609,0,0,0,186.4,176.329a413.92,413.92,0,0,0-19.728,49.887c-5.93,18.578,8.193,37,27.694,37l53.286-.36,53.468.27c19.5,0,30.578-16.638,27.071-36.514-.345-1.953-1.493-6.249-1.493-6.249A420.578,420.578,0,0,0,308.887,176.329Z" style="fill:#e9ebfc"/><path d="M233.29,146.278a3.474,3.474,0,0,1-.79-.08,3.922,3.922,0,0,1-.74-.22,4.241,4.241,0,0,1-.7-.37,4.82,4.82,0,0,1-.6-.5,3.989,3.989,0,0,1,.6-6.15,3.6,3.6,0,0,1,.7-.37,3.956,3.956,0,0,1,.74-.23,4.14,4.14,0,0,1,1.569,0,4.3,4.3,0,0,1,.75.23,3.8,3.8,0,0,1,.691.37,3.956,3.956,0,0,1,.6.49,3.475,3.475,0,0,1,.5.61,3.771,3.771,0,0,1,.371.69,4.053,4.053,0,0,1,.23.75,4.129,4.129,0,0,1,.08.78,4,4,0,0,1-1.181,2.83,4.739,4.739,0,0,1-.6.5,4.542,4.542,0,0,1-.691.37,4.252,4.252,0,0,1-.75.22A3.43,3.43,0,0,1,233.29,146.278Z" style="fill:#acb9d4"/><path d="M236.359,163.628a3.442,3.442,0,0,1-.779-.08,3.769,3.769,0,0,1-.75-.22,4.621,4.621,0,0,1-.69-.37,5.011,5.011,0,0,1-.61-.5,4.233,4.233,0,0,1-.5-.611,4.091,4.091,0,0,1-.36-.689,3.835,3.835,0,0,1-.231-.75,4.136,4.136,0,0,1-.08-.78,4.224,4.224,0,0,1,.08-.781,4.08,4.08,0,0,1,.231-.75,4.56,4.56,0,0,1,.36-.689,4.919,4.919,0,0,1,.5-.61,4.035,4.035,0,0,1,3.61-1.09,4.033,4.033,0,0,1,1.44.6,3.974,3.974,0,0,1,.609.49,4,4,0,0,1-2.83,6.83Z" style="fill:#acb9d4"/><path d="M217.25,163.628a3.445,3.445,0,0,1-.78-.08,4.019,4.019,0,0,1-.75-.22,4.671,4.671,0,0,1-.69-.37,4.936,4.936,0,0,1-.61-.5,3.558,3.558,0,0,1-.49-.611,3.511,3.511,0,0,1-.37-.689,3.832,3.832,0,0,1-.23-.75,4.055,4.055,0,0,1-.08-.78,4.14,4.14,0,0,1,.08-.781,4.076,4.076,0,0,1,.23-.75,3.854,3.854,0,0,1,.37-.689,4.007,4.007,0,0,1,7.25,3,4.659,4.659,0,0,1-.23.75,4.133,4.133,0,0,1-.37.689,3.661,3.661,0,0,1-.5.611,4.466,4.466,0,0,1-.61.5,4.218,4.218,0,0,1-.69.37,3.809,3.809,0,0,1-.75.22A3.387,3.387,0,0,1,217.25,163.628Z" style="fill:#acb9d4"/><path d="M328.615,226.216c-.6-1.888-1.246-3.843-1.924-5.85-1.9,12.971-18.749,12.182-18.749,12.182H246.233c-22.31,0-28.972-17.282-28.972-17.282a507.359,507.359,0,0,0-21.846-56.148c-3.121,5.382-6.156,11.111-9.02,17.211a413.92,413.92,0,0,0-19.728,49.887,29.528,29.528,0,0,0-.794,3.076h0c-.107.523-.2,1.046-.273,1.568,0,.034-.011.068-.016.1-.072.5-.129,1-.174,1.5,0,.054-.011.107-.016.161-.041.485-.068.968-.084,1.451,0,.066,0,.133-.007.2-.012.473-.012.943,0,1.413,0,.074,0,.148,0,.222q.023.7.077,1.384c.007.077.013.155.02.232q.06.684.153,1.362l.033.229c.066.452.141.9.228,1.346.014.073.03.146.045.22.091.448.191.892.3,1.334.016.065.035.13.052.2.117.447.242.892.38,1.331.016.053.034.1.051.156.145.452.3.9.464,1.344.01.027.021.053.031.08a29.065,29.065,0,0,0,4.494,7.868c.033.042.064.085.1.127.244.3.5.593.755.884.1.11.19.224.289.333.23.255.471.5.71.748.134.137.264.276.4.411.226.223.46.439.694.656.16.148.318.3.481.442.226.2.457.391.689.584.182.151.363.3.549.449.227.179.458.352.69.524.2.149.4.3.606.44.23.161.462.317.7.472.218.143.437.284.659.422s.466.284.7.421.47.268.708.4.471.253.71.374.5.247.752.366.477.223.718.328c.263.115.529.224.8.331.24.1.481.193.725.284.276.1.556.2.837.29.243.081.485.164.731.239.291.089.587.168.883.248.242.065.483.133.728.193.309.075.624.138.938.2.238.049.474.1.715.146.334.06.674.107,1.013.155.226.033.451.072.68.1.379.045.763.074,1.147.1.195.015.386.039.582.05q.873.053,1.763.054H301.2A28.786,28.786,0,0,0,328.615,226.216Z" style="fill:#acb9d4"/><path d="M183.852,157.912a273.125,273.125,0,0,0-47.393-70.064,36.616,36.616,0,0,0-53.506,0,273.1,273.1,0,0,0-47.392,70.064,501.1,501.1,0,0,0-23.884,60.395,34.848,34.848,0,0,0,33.19,45.461H174.545a34.848,34.848,0,0,0,33.19-45.461A501.235,501.235,0,0,0,183.852,157.912Z" style="fill:#e9ebfc"/><path d="M126.183,182.627H93.229A12.083,12.083,0,0,0,81.146,194.71v69.058h57.12V194.71A12.083,12.083,0,0,0,126.183,182.627Z" style="fill:#636b77"/><path d="M93.69,119.058a4,4,0,0,1-2.82-6.83,4,4,0,1,1,2.82,6.83Z" style="fill:#acb9d4"/><path d="M97.42,140.068a4.129,4.129,0,0,1-.78-.08,3.832,3.832,0,0,1-.75-.23,3.771,3.771,0,0,1-.69-.371,3.584,3.584,0,0,1-.61-.489,4.919,4.919,0,0,1-.5-.61,4.524,4.524,0,0,1-.36-.69,4.3,4.3,0,0,1-.23-.75,4.129,4.129,0,0,1-.08-.78,4.029,4.029,0,0,1,1.17-2.83,3.644,3.644,0,0,1,.61-.5,4.677,4.677,0,0,1,.69-.371,4.869,4.869,0,0,1,.75-.23,4.055,4.055,0,0,1,3.61,1.1,3.639,3.639,0,0,1,.49.61,3.519,3.519,0,0,1,.37.69,3.832,3.832,0,0,1,.23.75,4.047,4.047,0,0,1,.08.78,4.129,4.129,0,0,1-.08.78,4.3,4.3,0,0,1-.23.75,3.828,3.828,0,0,1-.37.69,4.093,4.093,0,0,1-.49.61,4.024,4.024,0,0,1-.61.489,3.771,3.771,0,0,1-.69.371,3.832,3.832,0,0,1-.75.23A4.129,4.129,0,0,1,97.42,140.068Z" style="fill:#acb9d4"/><path d="M74.29,140.068a4.031,4.031,0,1,1,2.82-1.181A4,4,0,0,1,74.29,140.068Z" style="fill:#acb9d4"/><path d="M261.251,196.744h-27.22a9.98,9.98,0,0,0-9.981,9.981v55.863h47.182V206.725A9.981,9.981,0,0,0,261.251,196.744Z" style="fill:#636b77"/><path d="M246.233,232.548c-10.618,0-17.685-3.914-22.183-8.017v39.237h47.182v-31.22Z" style="fill:#373d4c"/></svg>