<?xml version="1.0" ?><svg width="100px" height="100px" viewBox="0 0 100 100" data-name="Layer 1" id="Layer_1" xmlns="http://www.w3.org/2000/svg"><defs><style>.cls-1{fill:#c8da52;}.cls-2{fill:#995f5b;}</style></defs><title/><path class="cls-1" d="M54.44,33.55a15.85,15.85,0,0,0-4.65.69,16.08,16.08,0,1,0-25.26-4.65c.14.35.29.7.46,1a1.81,1.81,0,0,0,.45.57,16.32,16.32,0,0,0,3.21,3.62A16,16,0,0,0,8,56.74c.14.36.29.72.46,1.06a2.14,2.14,0,0,0,.46.57,16,16,0,0,0,29.48-7.59,16,16,0,0,0,1.63,6c.14.36.29.72.46,1.06a2.14,2.14,0,0,0,.46.57A16.07,16.07,0,1,0,54.44,33.55ZM28.16,27.93c-1.92-4.87-.86-11.7,4-14.51A9,9,0,0,1,44.4,16.68a7.45,7.45,0,0,1,.76,5.67A7.57,7.57,0,0,1,43.83,25a7.51,7.51,0,0,0,1.07-2.31,7.2,7.2,0,0,0-.74-5.52,8.1,8.1,0,0,0-11.08-3,9.08,9.08,0,0,0-3.31,12.4,10.2,10.2,0,0,0,13.92,3.71,11.49,11.49,0,0,0,4.18-15.67c-.19-.32-.39-.62-.6-.92A12.06,12.06,0,1,1,28.16,27.93ZM22.41,61.7a12.09,12.09,0,0,1-10.75-6.6c-1.92-4.86-.86-11.69,4-14.5A9,9,0,0,1,27.9,43.86a7.45,7.45,0,0,1,.76,5.67,7.66,7.66,0,0,1-1.33,2.68A7.51,7.51,0,0,0,28.4,49.9a7.2,7.2,0,0,0-.74-5.52,8.11,8.11,0,0,0-11.08-3,9.06,9.06,0,0,0-3.31,12.4,10.2,10.2,0,0,0,13.92,3.71,11.48,11.48,0,0,0,4.18-15.67c-.19-.33-.4-.63-.61-.93A12.06,12.06,0,0,1,22.41,61.7Zm16-13.24a16,16,0,0,0-5.76-11.2,16.05,16.05,0,0,0,10.89.57A16,16,0,0,0,38.42,48.46Zm16,13.24a12.09,12.09,0,0,1-10.75-6.6c-1.92-4.86-.86-11.69,4-14.5a9,9,0,0,1,12.24,3.26,7.45,7.45,0,0,1,.76,5.67,7.66,7.66,0,0,1-1.33,2.68,7.51,7.51,0,0,0,1.07-2.31,7.2,7.2,0,0,0-.74-5.52,8.12,8.12,0,0,0-11.09-3,9.09,9.09,0,0,0-3.3,12.4,10.2,10.2,0,0,0,13.92,3.71A11.48,11.48,0,0,0,63.4,41.86c-.19-.33-.4-.63-.61-.93A12.06,12.06,0,0,1,54.44,61.7Z"/><path class="cls-1" d="M79.19,59.13a13.27,13.27,0,0,0-11.91,19.2c.12.29.25.59.39.87a1.54,1.54,0,0,0,.37.47A13.3,13.3,0,1,0,79.19,59.13Zm0,23.29A10,10,0,0,1,70.29,77c-1.58-4-.7-9.67,3.32-12a7.42,7.42,0,0,1,10.13,2.7,6.22,6.22,0,0,1-.44,6.86,6.14,6.14,0,0,0,.84-1.86,6,6,0,0,0-.6-4.57,6.74,6.74,0,0,0-9.18-2.45A7.53,7.53,0,0,0,71.62,75.9,8.45,8.45,0,0,0,83.14,79,9.52,9.52,0,0,0,86.6,66a9,9,0,0,0-.5-.76,10,10,0,0,1-6.91,17.18Z"/><path class="cls-2" d="M38.42,39.4a1,1,0,0,0-1,1V93.78a1,1,0,0,0,2,0V40.4A1,1,0,0,0,38.42,39.4Z"/><path class="cls-2" d="M79.19,81.14a1,1,0,0,0-1,1V93.78a1,1,0,0,0,2,0V82.14A1,1,0,0,0,79.19,81.14Z"/></svg>