<?xml version="1.0" ?><svg width="100px" height="100px" viewBox="0 0 100 100" data-name="Layer 1" id="Layer_1" xmlns="http://www.w3.org/2000/svg"><defs><style>.cls-1{fill:#c8da52;}.cls-2{fill:#995f5b;}</style></defs><title/><path class="cls-1" d="M85.48,45.77A10.67,10.67,0,0,0,76,61.28a10.72,10.72,0,1,0,.58,1,10.67,10.67,0,1,0,8.93-16.51Z"/><path class="cls-1" d="M56.64,36.54A10.67,10.67,0,1,0,46.45,18.31a11.7,11.7,0,0,0,.21-2.15,11.16,11.16,0,1,0-22.32,0,10.89,10.89,0,0,0,.21,2.15,10.67,10.67,0,1,0-10.2,18.23,10.68,10.68,0,1,0,10.2,18.24,10.89,10.89,0,0,0-.21,2.15,11.16,11.16,0,1,0,22.32,0,11.7,11.7,0,0,0-.21-2.15A10.67,10.67,0,1,0,56.64,36.54ZM24.55,38.69a10.68,10.68,0,0,0-3.82-2.15,10.51,10.51,0,0,0,3.82-2.14,11.06,11.06,0,0,0,0,4.29ZM43,24.45a10,10,0,0,0-.18,1.9A10.05,10.05,0,0,0,43,28.26,11.32,11.32,0,0,0,40,26.35,11.29,11.29,0,0,0,43,24.45Zm0,24.19A11.26,11.26,0,0,0,40,46.73,11.23,11.23,0,0,0,43,44.83a10.17,10.17,0,0,0,0,3.81ZM28,24.45A11,11,0,0,0,31,26.35,11,11,0,0,0,28,28.26a10.94,10.94,0,0,0,.18-1.91A10.83,10.83,0,0,0,28,24.45ZM31,46.73A11.21,11.21,0,0,0,28,48.64a10.17,10.17,0,0,0,0-3.81A11,11,0,0,0,31,46.73Zm15.48-8a11.06,11.06,0,0,0,0-4.29,10.55,10.55,0,0,0,3.81,2.14A10.72,10.72,0,0,0,46.45,38.69Z"/><path class="cls-2" d="M53.45,46.71a1,1,0,0,0-1,1V71H37V58.38a1,1,0,0,0-2,0V71H19.51V47.71a1,1,0,0,0-2,0V72a1,1,0,0,0,1,1H35V93.32a1,1,0,0,0,2,0V73H53.45a1,1,0,0,0,1-1V47.71A1,1,0,0,0,53.45,46.71Z"/><path class="cls-2" d="M84.51,57.38a1,1,0,0,0-1,1V81.65H68V69.06a1,1,0,0,0-2,0V82.65a1,1,0,0,0,1,1h7.74v9.67a1,1,0,0,0,2,0V83.65h7.73a1,1,0,0,0,1-1V58.38A1,1,0,0,0,84.51,57.38Z"/></svg>