<?xml version="1.0" ?><svg width="47.5px" height="47.5px" viewBox="0 0 47.5 47.5" id="svg2" style="enable-background:new 0 0 47.5 47.5;" version="1.1" xml:space="preserve" xmlns="http://www.w3.org/2000/svg" xmlns:cc="http://creativecommons.org/ns#" xmlns:dc="http://purl.org/dc/elements/1.1/" xmlns:rdf="http://www.w3.org/1999/02/22-rdf-syntax-ns#" xmlns:svg="http://www.w3.org/2000/svg"><defs id="defs6"><clipPath clipPathUnits="userSpaceOnUse" id="clipPath16"><path d="M 0,38 38,38 38,0 0,0 0,38 Z" id="path18"/></clipPath></defs><g id="g10" transform="matrix(1.25,0,0,-1.25,0,47.5)"><g id="g12"><g clip-path="url(#clipPath16)" id="g14"><g id="g20" transform="translate(36,19)"><path d="m 0,0 c 0,-9.389 -7.611,-17 -17,-17 -9.389,0 -17,7.611 -17,17 0,9.389 7.611,17 17,17 C -7.611,17 0,9.389 0,0" id="path22" style="fill:#d99e82;fill-opacity:1;fill-rule:nonzero;stroke:none"/></g><g id="g24" transform="translate(23.6377,20.0532)"><path d="M 0,0 C 1.177,0.385 2.444,-0.261 2.827,-1.44 3.211,-2.62 2.567,-3.887 1.386,-4.271 0.205,-4.655 -2.485,-4.472 -2.869,-3.293 -3.252,-2.112 -1.182,-0.382 0,0" id="path26" style="fill:#8a4b38;fill-opacity:1;fill-rule:nonzero;stroke:none"/></g><g id="g28" transform="translate(32.208,20.7246)"><path d="M 0,0 C -0.38,-0.452 -1.055,-0.512 -1.507,-0.131 -1.959,0.25 -2.018,0.924 -1.638,1.377 -1.257,1.828 -0.124,2.434 0.328,2.054 0.781,1.674 0.381,0.453 0,0" id="path30" style="fill:#8a4b38;fill-opacity:1;fill-rule:nonzero;stroke:none"/></g><g id="g32" transform="translate(10.208,27.7246)"><path d="M 0,0 C -0.38,-0.452 -1.055,-0.512 -1.507,-0.131 -1.959,0.25 -2.018,0.924 -1.638,1.377 -1.257,1.828 -0.124,2.434 0.328,2.054 0.781,1.674 0.381,0.453 0,0" id="path34" style="fill:#8a4b38;fill-opacity:1;fill-rule:nonzero;stroke:none"/></g><g id="g36" transform="translate(22.3008,29.6187)"><path d="M 0,0 C -0.748,0.478 -0.969,1.472 -0.49,2.22 -0.012,2.969 0.982,3.188 1.731,2.71 2.48,2.231 3.604,0.66 3.125,-0.088 2.646,-0.837 0.749,-0.479 0,0" id="path38" style="fill:#8a4b38;fill-opacity:1;fill-rule:nonzero;stroke:none"/></g><g id="g40" transform="translate(14.3745,23.4019)"><path d="M 0,0 C -0.515,1.066 -0.064,2.351 1.005,2.864 2.075,3.376 3.356,2.925 3.869,1.856 4.382,0.786 4.551,-1.787 3.482,-2.298 2.412,-2.812 0.512,-1.071 0,0" id="path42" style="fill:#8a4b38;fill-opacity:1;fill-rule:nonzero;stroke:none"/></g><g id="g44" transform="translate(15.3994,9.3027)"><path d="M 0,0 C 0.602,0.874 1.8,1.096 2.672,0.492 3.546,-0.113 3.766,-1.309 3.162,-2.183 2.559,-3.057 0.634,-4.33 -0.238,-3.727 -1.113,-3.123 -0.604,-0.873 0,0" id="path46" style="fill:#8a4b38;fill-opacity:1;fill-rule:nonzero;stroke:none"/></g><g id="g48" transform="translate(25.4121,9.709)"><path d="M 0,0 C -0.687,0.436 -0.889,1.348 -0.449,2.034 -0.011,2.72 0.899,2.92 1.586,2.481 2.271,2.043 3.301,0.604 2.862,-0.081 2.424,-0.769 0.686,-0.44 0,0" id="path50" style="fill:#8a4b38;fill-opacity:1;fill-rule:nonzero;stroke:none"/></g><g id="g52" transform="translate(6.5356,18.5796)"><path d="M 0,0 C 0.762,0.853 2.071,0.926 2.923,0.163 3.774,-0.601 3.847,-1.909 3.083,-2.759 2.321,-3.614 0.091,-4.714 -0.759,-3.951 -1.612,-3.187 -0.764,-0.851 0,0" id="path54" style="fill:#8a4b38;fill-opacity:1;fill-rule:nonzero;stroke:none"/></g></g></g></g></svg>