<?xml version="1.0" ?><svg width="47.5px" height="47.5px" viewBox="0 0 47.5 47.5" id="svg2" style="enable-background:new 0 0 47.5 47.5;" version="1.1" xml:space="preserve" xmlns="http://www.w3.org/2000/svg" xmlns:cc="http://creativecommons.org/ns#" xmlns:dc="http://purl.org/dc/elements/1.1/" xmlns:rdf="http://www.w3.org/1999/02/22-rdf-syntax-ns#" xmlns:svg="http://www.w3.org/2000/svg"><defs id="defs6"><clipPath clipPathUnits="userSpaceOnUse" id="clipPath16"><path d="M 0,38 38,38 38,0 0,0 0,38 Z" id="path18"/></clipPath><clipPath clipPathUnits="userSpaceOnUse" id="clipPath40"><path d="M 0,38 38,38 38,0 0,0 0,38 Z" id="path42"/></clipPath></defs><g id="g10" transform="matrix(1.25,0,0,-1.25,0,47.5)"><g id="g12"><g clip-path="url(#clipPath16)" id="g14"><g id="g20" transform="translate(37,11)"><path d="m 0,0 c 0,-5.522 -8.059,-10 -18,-10 -9.941,0 -18,4.478 -18,10 0,5.522 8.059,10 18,10 C -8.059,10 0,5.522 0,0" id="path22" style="fill:#99aab5;fill-opacity:1;fill-rule:nonzero;stroke:none"/></g><g id="g24" transform="translate(37,13)"><path d="m 0,0 c 0,-5.522 -8.059,-10 -18,-10 -9.941,0 -18,4.478 -18,10 0,5.522 8.059,10 18,10 C -8.059,10 0,5.522 0,0" id="path26" style="fill:#ccd6dd;fill-opacity:1;fill-rule:nonzero;stroke:none"/></g><g id="g28" transform="translate(19,6)"><path d="m 0,0 c -14.958,0 -17,15 -17,19 l 34,0 C 17,17 15.042,0 0,0" id="path30" style="fill:#f5f8fa;fill-opacity:1;fill-rule:nonzero;stroke:none"/></g><g id="g32" transform="translate(32.8818,30.0483)"><path d="M 0,0 C -1.357,0.938 -3.103,1.694 -5.121,2.25 -3.246,2.826 -0.57,2.559 0,0 M 2.503,-2.692 C 4.945,7.43 -7.278,5.014 -9.701,3.106 c -1.34,0.149 -2.736,0.234 -4.181,0.234 -9.389,0 -17,-3.228 -17,-8.444 0,-5.216 7.611,-9.444 17,-9.444 9.389,0 17,4.228 17,9.444 0,0.862 -0.225,1.664 -0.615,2.412" id="path34" style="fill:#ccd6dd;fill-opacity:1;fill-rule:nonzero;stroke:none"/></g></g></g><g id="g36"><g clip-path="url(#clipPath40)" id="g38"><g id="g44" transform="translate(34,24)"><path d="m 0,0 c 0,-3.866 -6.716,-7 -15,-7 -8.284,0 -15,3.134 -15,7 0,3.866 6.716,7 15,7 C -6.716,7 0,3.866 0,0" id="path46" style="fill:#8a4b38;fill-opacity:1;fill-rule:nonzero;stroke:none"/></g><g id="g48" transform="translate(21,20)"><path d="m 0,0 c -0.256,0 -0.512,0.098 -0.707,0.293 -2.337,2.337 -2.376,4.885 -0.125,8.262 0.739,1.109 0.9,2.245 0.478,3.377 -0.461,1.235 -1.438,1.996 -1.731,2.076 -0.553,0 -0.958,0.444 -0.958,0.996 C -3.043,15.557 -2.552,16 -2,16 -1.003,16 0.395,14.847 1.183,13.375 2.217,11.442 2.093,9.336 0.832,7.445 -1.129,4.503 -0.699,3.113 0.707,1.707 1.098,1.316 1.098,0.684 0.707,0.293 0.512,0.098 0.256,0 0,0" id="path50" style="fill:#d99e82;fill-opacity:1;fill-rule:nonzero;stroke:none"/></g><g id="g52" transform="translate(15,22)"><path d="m 0,0 c -0.256,0 -0.512,0.098 -0.707,0.293 -2.337,2.337 -2.376,4.885 -0.125,8.262 0.727,1.091 0.894,2.082 0.494,2.947 -0.444,0.961 -1.431,1.469 -1.684,1.499 -0.552,0 -0.989,0.447 -0.989,0.999 0,0.553 0.459,1 1.011,1 0.997,0 2.584,-0.974 3.36,-2.423 C 1.841,11.678 2.413,9.816 0.832,7.445 -1.129,4.503 -0.699,3.113 0.707,1.707 1.098,1.316 1.098,0.684 0.707,0.293 0.512,0.098 0.256,0 0,0" id="path54" style="fill:#d99e82;fill-opacity:1;fill-rule:nonzero;stroke:none"/></g></g></g></g></svg>