<?xml version="1.0" ?><svg width="340px" height="340px" viewBox="0 0 340 340" id="icons" xmlns="http://www.w3.org/2000/svg"><title/><path d="M262.134,224.988l-1.284,31.906q-11.594,12.169-23.185,4.156a148.1,148.1,0,0,0-4.454-23.705l7.607-9.66S263.494,212.208,262.134,224.988Z" style="fill:#d15124"/><path d="M178.673,226.763s-19.468,11.571-25.223,34.326c-.373,1.475-.681,2.837-.935,4.106-6.955,5.67-14.962,6.814-24.193,2.691.684-6.8,1.534-13.872,1.731-19.03l24.624-32.318Z" style="fill:#d15124"/><path d="M152.122,285.334c-.384-6.634-1.442-10.937.395-20.139-4.889,2.9-12.633,5.192-24.233,3.081-.63,6.311-1.106,12.356-.768,16.381C128.367,294.81,153.038,301.163,152.122,285.334Z" style="fill:#a3b8bf"/><path d="M257.709,296.049c2.828-.778,2.859-4.519,2.522-9.722a102.932,102.932,0,0,1-.058-12.629l.677-16.8a23.13,23.13,0,0,1-23.187,4.156c1.238,10.659,1.648,20.636,1.783,26.224a9.282,9.282,0,0,0,5.562,8.414A19.612,19.612,0,0,0,257.709,296.049Z" style="fill:#a3b8bf"/><path d="M215.034,131.577s-5.686,15.433-32.085,16.652c0,0-34.607-.849-58.89-7.717,0,0-32.037-9.682-58.889,13.4,0,0-44.675,21.119-44.269,71.073,1.189,17.094,33.439,36.473,48.246,9.832,1.3-5.48,1.391-11.8,1.688-19.142,0,0,1.357-22.653,23.983-30.9a49.825,49.825,0,0,0,4.2,37.236,30.522,30.522,0,0,1,3.5,19.057,164.733,164.733,0,0,0-1.608,16.464c7.48,10.848,17.165,13.611,29.1,8.107,3.316-11.044,10.457-22.783,24.51-32.94a108.414,108.414,0,0,0,34.521,1.218s-.587,10.531-.809,24.1q12.144,15.012,27.78,7.262c2.82-9.371,8.768-19.616,20.748-27.789C246.7,190.561,248.169,149.354,215.034,131.577Z" style="fill:#ff8752"/><path d="M219.1,110.052s-10.138,4.13-17.056,16.722a1.86,1.86,0,0,0,.71,2.539,21.353,21.353,0,0,0,12.284,2.264s-11.474,34.129,9.365,50.679a4.6,4.6,0,0,1,1.354,5.55c-4.363,9.336-13.985,35.821,7.983,51.9l0,0c1.025-.8,2.088-1.583,3.218-2.346a20.573,20.573,0,0,1,10.435-3.465c7.491-.391,21.933-2.643,28.969-13.783,0,0,21.525-2.843,28.429-24.368,0,0,17.464-17.058,12.591-42.239,0,0,2.75,2.151,9.538,2.075a1.855,1.855,0,0,0,1.773-1.362c1.187-4.391,3.81-19.416-8.062-40.108l9.163.812C310.885,94.66,247.363,88.413,219.1,110.052Z" style="fill:#e7eef2"/><path d="M312.512,80.315s11.779-12.453,8.418-36.057a11.4,11.4,0,0,0-16-8.74A51.165,51.165,0,0,0,279.61,60.909H265.8s-8.019-16.552-30.7-24.789c-4.826-1.753-10.607,1.6-12.054,6.523-3.255,11.079-.877,27.728,9.29,40.643,0,0-.238,7.366-20.857,17.591a1.589,1.589,0,0,0-.722,2.135,14.005,14.005,0,0,0,8.335,7.04s19.048-4.872,35.1,8.078c0,0,5.927,5.156,17.7,5.156,0,0,9.341-.34,20.406-8.312,0,0,16.8-10.026,28.333-.861a16.739,16.739,0,0,0,7.694,1.086,1.577,1.577,0,0,0,1.359-1.73C329.184,108.509,326.5,91.936,312.512,80.315Z" style="fill:#ff8752"/><path d="M253.208,63.4a55.144,55.144,0,0,0-11.265,9.455,2.21,2.21,0,0,1-3.39-.076c-2.648-3.315-7.358-10.773-7.935-22.421a3.94,3.94,0,0,1,5.05-4,31.475,31.475,0,0,1,18.209,14.053A2.214,2.214,0,0,1,253.208,63.4Z" style="fill:#d15124"/><path d="M291.077,64.73A55.159,55.159,0,0,1,303.1,73.2a2.209,2.209,0,0,0,3.371-.362c2.359-3.527,6.421-11.357,6.01-23.012a3.941,3.941,0,0,0-5.37-3.558,31.477,31.477,0,0,0-16.955,15.543A2.216,2.216,0,0,0,291.077,64.73Z" style="fill:#d15124"/><path d="M109.679,303.924c3.861,2.393,9.288,1.573,14,.827a6.356,6.356,0,0,0,5.284-7.61,64.349,64.349,0,0,1,1.043-31.5c-15.393,3.231-24.593-3.268-29.1-8.107-.544,11.569.041,25.56,3.707,39.444A11.647,11.647,0,0,0,109.679,303.924Z" style="fill:#e7eef2"/><path d="M214.962,294.446l-.334-2.851a55.931,55.931,0,0,1,1.393-26.308c-12.048,4.592-23.078-3.16-27.788-7.264-.2,12.274-.1,27.031,1,38.732a8.874,8.874,0,0,0,8.824,8.037C210.683,304.781,215.421,302.545,214.962,294.446Z" style="fill:#e7eef2"/><path d="M271.891,140.647a3.019,3.019,0,0,1-3.018-3.019v-7.965a3.019,3.019,0,1,1,6.037,0v7.965A3.019,3.019,0,0,1,271.891,140.647Z" style="fill:#373d4c"/><path d="M260.326,100.43a2.994,2.994,0,0,1-1.647-.5,14.284,14.284,0,0,0-4.661-1.991,3,3,0,0,1,1.322-5.853,20.371,20.371,0,0,1,6.639,2.833,3,3,0,0,1-1.653,5.506Z" style="fill:#373d4c"/><path d="M280.941,100.727a3,3,0,0,1-1.86-5.355,20.253,20.253,0,0,1,6.613-3.465,3,3,0,0,1,1.736,5.744,14.394,14.394,0,0,0-4.633,2.432A2.985,2.985,0,0,1,280.941,100.727Z" style="fill:#373d4c"/><path d="M255.386,120.9a3.148,3.148,0,0,1-2.12-.818c-6.648-6.023-15.544-6.092-15.633-6.092a3.16,3.16,0,0,1,0-6.319c.464,0,11.441.088,19.875,7.728a3.159,3.159,0,0,1-2.122,5.5Z" style="fill:#373d4c"/><path d="M254.619,132.213a3.156,3.156,0,0,1-1.506-.385c-9.675-5.261-17.057-.938-17.367-.752a3.159,3.159,0,0,1-3.325-5.372c.431-.27,10.7-6.5,23.71.573a3.16,3.16,0,0,1-1.512,5.936Z" style="fill:#373d4c"/><path d="M288.824,120.9a3.159,3.159,0,0,1-2.121-5.5c8.434-7.64,19.411-7.728,19.874-7.728a3.16,3.16,0,0,1,.009,6.319c-.134,0-9.072.141-15.642,6.092A3.144,3.144,0,0,1,288.824,120.9Z" style="fill:#373d4c"/><path d="M289.156,132.048a3.16,3.16,0,0,1-1.512-5.936c13.014-7.075,23.279-.843,23.71-.573a3.159,3.159,0,0,1-3.329,5.37c-.359-.215-7.723-4.486-17.363.754A3.151,3.151,0,0,1,289.156,132.048Z" style="fill:#373d4c"/><path d="M276.976,116.6H266.807a4.594,4.594,0,0,0-4.047,6.764,20.35,20.35,0,0,0,9.131,8.578,20.35,20.35,0,0,0,9.132-8.578A4.594,4.594,0,0,0,276.976,116.6Z" style="fill:#373d4c"/><path d="M99.871,175.37a1.328,1.328,0,0,0-1.212-2.194l-.078.013a40.6,40.6,0,0,0-33.217,36.674c-.855,9.9-3.18,25.3-9.476,36.937,4.989-1.721,9.644-5.476,13.259-11.98a100.167,100.167,0,0,0,2.521-19.173,37.909,37.909,0,0,1,23.15-30.866A22.513,22.513,0,0,1,99.871,175.37Z" style="fill:#d15124"/><path d="M13.106,265.2c5.839,4.206,16.08,9.173,35.284,0,0,0,14.908-5.845,20.751-30.377-31.361,18.3-48.24-9.83-48.24-9.83s-.4,12.74-4.257,23.9c0,0-1.8,8.232-4.164,11.153C10.959,261.921,11.146,263.784,13.106,265.2Z" style="fill:#e7eef2"/><path d="M69.141,234.818a49.226,49.226,0,0,1-9.875,4.469c-4.161,11.137-10.942,20.859-22.014,23.044-13.492,2.663-18.791-4.779-20.614-13.442a35.493,35.493,0,0,1-5.458,10.538,4.264,4.264,0,0,0,.765,6.155c5.838,4.206,18.585,10,37.791.832C49.736,266.414,63.3,259.35,69.141,234.818Z" style="fill:#a3b8bf"/><path d="M293.148,167.335c-2.456,4.665-6.954,10.4-14.762,12.6a1.215,1.215,0,0,1-1.479-1.536,60.418,60.418,0,0,0,1.938-7.678,1.21,1.21,0,0,0-2.085-1.037A32.884,32.884,0,0,1,259.613,180a1.215,1.215,0,0,1-1.367-1.66c.661-1.558,1.555-3.8,2.241-6.038a1.21,1.21,0,0,0-1.742-1.423,34.388,34.388,0,0,1-14.963,4.29,1.213,1.213,0,0,1-.572-2.318c5.974-2.627,15.652-7.629,20.927-14.346a1.205,1.205,0,0,1,2.143.568,33.8,33.8,0,0,1-.343,11.043,1.211,1.211,0,0,0,1.928,1.2c3.541-2.746,9.684-8.119,12.87-14.473a1.209,1.209,0,0,1,2.187.089,21.3,21.3,0,0,1,1.631,10.763,1.213,1.213,0,0,0,1.682,1.276,22.412,22.412,0,0,0,5.073-3.129A1.211,1.211,0,0,1,293.148,167.335Z" style="fill:#a3b8bf"/></svg>