<?xml version="1.0" ?><!DOCTYPE svg  PUBLIC '-//W3C//DTD SVG 1.0//EN'  'http://www.w3.org/TR/2001/REC-SVG-20010904/DTD/svg10.dtd'><svg width="256px" height="256px" viewBox="0 0 256 256" enable-background="new 0 0 256 256" id="Layer_1" version="1.0" xml:space="preserve" xmlns="http://www.w3.org/2000/svg" xmlns:xlink="http://www.w3.org/1999/xlink"><g><polygon fill="#34AEDB" points="201.246,185.263 197.613,186.235 197.64,186.206 166.611,62.952 166.611,62.913 146.728,62.913    146.728,58.112 132.843,58.112 132.843,62.913 104.214,62.913 104.214,74.04 73.189,197.292 73.251,197.366 69.455,196.349    66.904,205.177 100.789,214.255 105.705,197.241 102.796,196.464 102.902,196.435 127.968,115.856 134.396,115.856    137.845,126.944 142.855,126.944 167.923,207.522 167.964,207.534 164.998,208.329 166.33,212.948 206.16,202.278  "/><polygon fill="#34DBAE" points="100.583,214.171 104.203,201.642 70.123,192.507 66.501,205.038  "/><polygon fill="#34DBAE" points="203.675,194.302 165.664,204.489 167.943,212.378 205.957,202.192  "/><polygon fill="#34DBAE" points="105.548,65.384 131.119,71.821 166.691,62.868 166.691,61.069 148.06,61.069 148.06,56.269    134.175,56.269 134.175,61.069 105.548,61.069  "/><polyline fill="none" points="   64.525,186.12 102.699,196.353 127.767,115.772  " stroke="#14346E" stroke-linecap="round" stroke-linejoin="round" stroke-miterlimit="10" stroke-width="6"/><polyline fill="none" points="   159.259,196.353 197.433,186.12 166.41,62.868 130.978,71.821 95.552,62.868  " stroke="#14346E" stroke-linecap="round" stroke-linejoin="round" stroke-miterlimit="10" stroke-width="6"/><line fill="none" stroke="#14346E" stroke-dasharray="7.9976,16.6616" stroke-linecap="round" stroke-linejoin="round" stroke-miterlimit="10" stroke-width="6" x1="95.552" x2="64.525" y1="62.868" y2="186.12"/><polygon fill="none" points="   55.876,202.192 100.583,214.171 105.5,197.157 60.791,185.177  " stroke="#14346E" stroke-linecap="round" stroke-linejoin="round" stroke-miterlimit="10" stroke-width="6"/><polygon fill="none" points="   205.957,202.192 161.248,214.171 156.333,197.157 201.042,185.177  " stroke="#14346E" stroke-linecap="round" stroke-linejoin="round" stroke-miterlimit="10" stroke-width="6"/><line fill="none" stroke="#14346E" stroke-linecap="round" stroke-linejoin="round" stroke-miterlimit="10" stroke-width="6" x1="127.697" x2="127.697" y1="93.587" y2="115.772"/><polygon fill="none" points="   138.062,51.739 138.062,57.753 124.177,57.753 124.177,51.739 95.552,51.739 95.552,62.868 131.119,71.821 166.691,62.868    166.691,51.739  " stroke="#14346E" stroke-linecap="round" stroke-linejoin="round" stroke-miterlimit="10" stroke-width="6"/><rect fill="none" height="10.814" stroke="#14346E" stroke-linecap="round" stroke-linejoin="round" stroke-miterlimit="10" stroke-width="6" width="13.885" x="124.177" y="46.938"/><g><g><polyline fill="none" points="     127.767,115.772 134.191,115.772 135.379,119.591    " stroke="#14346E" stroke-linecap="round" stroke-linejoin="round" stroke-width="6"/><line fill="none" stroke="#14346E" stroke-dasharray="9.2596,19.2909" stroke-linecap="round" stroke-linejoin="round" stroke-width="6" x1="141.109" x2="155.206" y1="138.011" y2="183.324"/><line fill="none" stroke="#14346E" stroke-linecap="round" stroke-linejoin="round" stroke-width="6" x1="158.071" x2="159.259" y1="192.534" y2="196.353"/></g></g><path d="   M153.894,79.718c0,0,3.553,21.801,15.107,20.115" fill="none" stroke="#14346E" stroke-linecap="round" stroke-linejoin="round" stroke-miterlimit="10" stroke-width="6"/><path d="   M110.433,79.718c0,0-3.551,21.801-15.105,20.115" fill="none" stroke="#14346E" stroke-linecap="round" stroke-linejoin="round" stroke-miterlimit="10" stroke-width="6"/></g></svg>