<?xml version="1.0" ?><!DOCTYPE svg  PUBLIC '-//W3C//DTD SVG 1.0//EN'  'http://www.w3.org/TR/2001/REC-SVG-20010904/DTD/svg10.dtd'><svg width="256px" height="256px" viewBox="0 0 256 256" enable-background="new 0 0 256 256" id="Layer_1" version="1.0" xml:space="preserve" xmlns="http://www.w3.org/2000/svg" xmlns:xlink="http://www.w3.org/1999/xlink"><g><path d="M138.713,62.347c0,0,2.732-3.758,6.854-4.146c1.566-0.15,3.521,3.191,5.326,3.008   c2.59-0.266,5.063-1.734,7.783-1.445c1.23,0.131,0.744,3.111,1.992,3.311c2.742,0.432,5.594-0.344,8.141,0.721   c1.488,0.621-0.205,3.115,1.219,3.957c1.98,1.172,5.098,1.486,6.775,3.205c1.117,1.15-0.904,3.168,0.068,4.584   c1.824,2.658,3.203,2.506,3.84,4.953c0.438,1.674-0.832,2.873-0.336,4.322c0.576,1.686,2.762,2.17,3.539,3.791   c0.781,1.621-0.309,3.092-0.193,4.389c0.137,1.555,2.066,2.09,1.811,3.482c-0.293,1.572-1.727,0.959-2.703,2.477   c-1.377,2.139-2.432,6.301-3.227,7.57c0,0-1.412,2.373-5.305-0.34c-3.9-2.711-1.527-10.203-0.975-12.998   c0.559-2.793,1.508-4.072-1.783-4.871c-3.289-0.799,0.826-3.555-0.518-5.4c-1.336-1.844-3.674-0.887-5.445-1.311   c-1.771-0.428-1.482-3.684-2.682-5.398c-1.199-1.719-3.152-1.068-4.965-1.783c-1.813-0.717-1.648-2.668-2.816-4.236   c-1.166-1.57-4.9-0.479-5.951-1.787c-1.057-1.305-1.754-3.754-3.918-4.482C143.076,63.19,140.211,65.37,138.713,62.347z" fill="#34AEDB"/><path d="M173.193,136.446c0.063-0.17,0.127-0.34,0.182-0.512c0.098-4.865-2.008-11.285-6.559-21.957   c-0.375-0.877-0.758-1.729-1.148-2.555c-4.889-7.785-9.791-11.883-11.609-12.582c-1.852-0.713-2.426-5.58-4.512-7.432   c-0.412-0.07-0.875-0.051-1.393,0.1c-4.57,1.336-8.758-0.189-16.566-3.998c-7.805-3.807-7.043,2.096-13.139,2.096   c-6.09,0-14.471-0.191-24.375,7.426c-6.252,4.813-10.381,7.348-15.451,13.994c1.633-0.033,3.398,0.068,5.301,0.352   c18.852,2.797,39.795,16.314,53.697,29.072c13.896,12.758,13.707,19.037,19.418,25.322c2.916,3.205,4.998,6.381,5.904,7.711   c0,0,0.137,0.18,0.357,0.49c0.004-0.025,0.012-0.047,0.02-0.072c-0.016-0.021-0.025-0.037-0.025-0.037s-0.193-5.617,5.33-12.293   c1.949-2.355,3.105-4.18,3.756-5.701c-0.104-0.881-0.35-1.709-0.615-2.592c-0.797-2.65-1.188-5.996-0.063-10.264   C171.822,141.071,172.266,138.896,173.193,136.446z" fill="#00CFDB"/><path d="M164.994,186.005c2.801-3.203,0.67-8.063-0.857-10.686c-0.725-0.922-1.541-1.9-2.434-2.883   c-1.855-2.043-3.088-4.088-4.385-6.354c-0.094-0.102-0.182-0.207-0.279-0.311c-2.801-3.08-4.186-6.164-6.504-10.012   c-2.049-2.529-4.686-5.373-8.25-8.646c-13.898-12.756-34.844-26.275-53.693-29.072c-18.85-2.799-24.182,11.408-24.182,11.408   l-0.084,0.83c-0.574,1.613-1.035,3.158-1.406,4.639c0.645-0.723,1.385-1.404,2.26-2.012c8.191-5.713,23.252-4.344,44.602,8.27   c22.127,13.076,28.713,26.047,40.975,34.309c6.23,4.193,8.486,7.646,9.139,10.125c1.051,0.955,1.893,1.857,2.557,2.705   C163.326,187.669,164.234,186.872,164.994,186.005z" fill="#FFCF59"/><path d="M129.217,196.503c23.039,5.912,30.475-1.145,31.123-6.488c-3.963-3.738-9.719-8.266-14.986-13.793   c-10.389-10.906-11.846-14.633-33.975-28.188c-21.346-13.08-36.766-11.35-41.668-7.682c-6.854,5.135-7.996,15.08-6.473,18.916   c0.092,0.236,0.186,0.48,0.283,0.734c2.424,2.813,6.158,6.086,12.189,9.852C89.609,178.538,112.354,192.177,129.217,196.503z" fill="#066ACF"/><path d="   M159.709,190.288c1.01-0.051,3.77-1.775,5.631-3.904c3.998-4.572-2.045-12.52-2.045-12.52s-0.193-5.617,5.33-12.293   c5.523-6.672,4.76-9.129,3.807-12.291c-0.951-3.162-1.332-7.313,0.762-12.834s0.383-12.186-5.711-26.467   c-6.096-14.281-14.283-21.518-16.756-22.469c-2.477-0.951-2.668-9.33-7.236-7.998c-4.57,1.334-8.758-0.189-16.566-3.996   c-7.807-3.809-7.047,2.094-13.141,2.094c-6.09,0-14.467-0.191-24.373,7.426c-9.9,7.615-14.469,9.52-25.895,31.059   c-11.424,21.539-3.428,34.412-3.428,34.412" fill="none" stroke="#14346E" stroke-linecap="round" stroke-linejoin="round" stroke-miterlimit="10" stroke-width="6"/><path d="   M163.295,173.864c-0.908-1.332-2.992-4.508-5.906-7.713c-5.713-6.283-5.523-12.568-19.42-25.324   c-13.902-12.758-34.846-26.277-53.699-29.076c-18.85-2.797-24.182,11.412-24.182,11.412" fill="none" stroke="#14346E" stroke-dasharray="7.9976,16.6616" stroke-linecap="round" stroke-linejoin="round" stroke-miterlimit="10" stroke-width="6"/><g><g><path d="M121.213,67.423     c1.507,0,2.831,0.038,4.002,0.112" fill="none" stroke="#14346E" stroke-linecap="round" stroke-linejoin="round" stroke-width="6"/><path d="M139.966,74.957     c0.967,0.615,2.115,1.248,3.524,1.89" fill="none" stroke="#14346E" stroke-linecap="round" stroke-linejoin="round" stroke-width="6"/></g></g><g><g><path d="M145.326,73.399     c-1-1.226-1.771-2.286-2.38-3.215" fill="none" stroke="#14346E" stroke-linecap="round" stroke-linejoin="round" stroke-width="6"/><path d="M134.967,61.025     c-1.006-0.459-2.217-0.965-3.691-1.544" fill="none" stroke="#14346E" stroke-linecap="round" stroke-linejoin="round" stroke-width="6"/></g></g><g><g><path d="M146.469,78.671     c0.348-1.22,0.76-2.497,1.202-3.804" fill="none" stroke="#14346E" stroke-linecap="round" stroke-linejoin="round" stroke-width="6"/><path d="     M150.853,65.56c1.186-3.823,1.91-7.251,1.237-9.449" fill="none" stroke="#14346E" stroke-dasharray="4.7213,9.836" stroke-linecap="round" stroke-linejoin="round" stroke-width="6"/><path d="M148.295,53.586     c-1.062-0.023-2.364,0.166-3.947,0.603" fill="none" stroke="#14346E" stroke-linecap="round" stroke-linejoin="round" stroke-width="6"/></g></g><g><g><path d="M148.752,78.671     c0.777-0.968,1.621-2.017,2.489-3.115" fill="none" stroke="#14346E" stroke-linecap="round" stroke-linejoin="round" stroke-width="6"/><path d="     M156.661,68.178c1.886-2.873,3.384-5.689,3.889-8.045" fill="none" stroke="#14346E" stroke-dasharray="4.3947,9.1555" stroke-linecap="round" stroke-linejoin="round" stroke-width="6"/><path d="M159.763,55.795     c-0.725-0.789-1.886-1.347-3.583-1.606" fill="none" stroke="#14346E" stroke-linecap="round" stroke-linejoin="round" stroke-width="6"/></g></g><g><g><path d="M149.896,80.384     c1.205,0,2.53-0.271,3.91-0.755" fill="none" stroke="#14346E" stroke-linecap="round" stroke-linejoin="round" stroke-width="6"/><path d="     M163.838,73.168c3.229-3.047,5.762-6.592,6.473-9.666" fill="none" stroke="#14346E" stroke-dasharray="5.7638,12.0079" stroke-linecap="round" stroke-linejoin="round" stroke-width="6"/><path d="M168.735,58.066     c-0.858-0.694-2.054-1.24-3.636-1.593" fill="none" stroke="#14346E" stroke-linecap="round" stroke-linejoin="round" stroke-width="6"/></g></g><g><g><path d="M151.609,83.812     c1.223,0.509,2.533,0.769,3.895,0.818" fill="none" stroke="#14346E" stroke-linecap="round" stroke-linejoin="round" stroke-width="6"/><path d="     M168.365,80.234c4.063-2.738,7.488-6.377,9.148-9.785" fill="none" stroke="#14346E" stroke-dasharray="6.625,13.8021" stroke-linecap="round" stroke-linejoin="round" stroke-width="6"/><path d="M177.916,63.836     c-0.596-0.996-1.605-1.823-3.102-2.411" fill="none" stroke="#14346E" stroke-linecap="round" stroke-linejoin="round" stroke-width="6"/></g></g><g><g><path d="M156.18,87.81     c1.205,0.501,2.512,0.796,3.882,0.913" fill="none" stroke="#14346E" stroke-linecap="round" stroke-linejoin="round" stroke-width="6"/><path d="     M172.854,85.964c4.243-1.956,8.088-4.686,10.56-7.396" fill="none" stroke="#14346E" stroke-dasharray="6.3477,13.2243" stroke-linecap="round" stroke-linejoin="round" stroke-width="6"/><path d="M186.236,72.766     c-0.101-1.22-0.84-2.252-2.379-2.964" fill="none" stroke="#14346E" stroke-linecap="round" stroke-linejoin="round" stroke-width="6"/></g></g><g><g><path d="M157.973,91.704     c1.18,0.49,2.472,0.855,3.84,1.108" fill="none" stroke="#14346E" stroke-linecap="round" stroke-linejoin="round" stroke-width="6"/><path d="     M175.047,92.5c4.71-0.878,9.157-2.432,12.283-4.234" fill="none" stroke="#14346E" stroke-dasharray="6.3862,13.3045" stroke-linecap="round" stroke-linejoin="round" stroke-width="6"/><path d="M191.768,83.577     c0.15-1.127-0.449-2.22-2.008-3.193" fill="none" stroke="#14346E" stroke-linecap="round" stroke-linejoin="round" stroke-width="6"/></g></g><g><g><path d="M158.916,93.489     c1.04,0.692,2.24,1.298,3.557,1.823" fill="none" stroke="#14346E" stroke-linecap="round" stroke-linejoin="round" stroke-width="6"/><path d="     M174.762,97.883c4.432,0.331,8.839,0.145,12.315-0.471" fill="none" stroke="#14346E" stroke-dasharray="6.0478,12.5997" stroke-linecap="round" stroke-linejoin="round" stroke-width="6"/><path d="M192.973,95.325     c1.209-0.941,1.44-2.101,0.27-3.436" fill="none" stroke="#14346E" stroke-linecap="round" stroke-linejoin="round" stroke-width="6"/></g></g><g><g><path d="M159.867,97.353     c1.229,0.487,2.484,0.948,3.752,1.389" fill="none" stroke="#14346E" stroke-linecap="round" stroke-linejoin="round" stroke-width="6"/><path d="     M174.818,102.298c4.309,1.359,8.119,2.702,10.648,4.337" fill="none" stroke="#14346E" stroke-dasharray="5.6396,11.7491" stroke-linecap="round" stroke-linejoin="round" stroke-width="6"/><path d="M188.672,111.245     c-0.001,1.096-0.436,2.313-1.387,3.688" fill="none" stroke="#14346E" stroke-linecap="round" stroke-linejoin="round" stroke-width="6"/></g></g><g><g><path d="M159.867,97.353     c1.127,0.845,2.167,1.676,3.133,2.493" fill="none" stroke="#14346E" stroke-linecap="round" stroke-linejoin="round" stroke-width="6"/><path d="M176.316,115.365     c0.829,1.1,1.666,2.115,2.59,3.04" fill="none" stroke="#14346E" stroke-linecap="round" stroke-linejoin="round" stroke-width="6"/></g></g><path d="   M60.088,150.507c1.525,3.697,3.246,11.803,15.805,17.93c3.992,1.982,7.598-2.873,7.598-2.873" fill="none" stroke="#14346E" stroke-linecap="round" stroke-linejoin="round" stroke-miterlimit="10" stroke-width="6"/><path d="   M90.246,176.913c2.744,1.508,4.301,2.039,6.396,2.988c1.207,0.553,2.668-2.285,3.539-4.834c2.406-7.076,5.635-8.324,5.635-8.324" fill="none" stroke="#14346E" stroke-linecap="round" stroke-linejoin="round" stroke-miterlimit="10" stroke-width="6"/><path d="   M159.867,184.526c2.777,4.285-1.621,16.756-30.467,9.615c-6.229-1.543-13.348-4.016-20.977-7.99   c-1.465-0.766-1.836-2.451-0.619-3.807" fill="none" stroke="#14346E" stroke-linecap="round" stroke-linejoin="round" stroke-miterlimit="10" stroke-width="6"/><path d="   M154.334,178.813c2.463,2.143,4.449,4.035,5.533,5.713" fill="none" stroke="#14346E" stroke-linecap="round" stroke-linejoin="round" stroke-miterlimit="10" stroke-width="6"/><path d="   M148.504,173.864c-2.49-2.127-5.115-4.455-7.633-7.002c-2.982-3.02-5.711-6.297-6.926-7.281c-1.219-0.984-0.176-3.527,0.969-6.678" fill="none" stroke="#14346E" stroke-linecap="round" stroke-linejoin="round" stroke-miterlimit="10" stroke-width="6"/><path d="   M101.342,136.634c1.803,0.902,8.414,4.82,10.283,5.994c8.188,5.117,11.537,7.484,14.908,10.275" fill="none" stroke="#14346E" stroke-linecap="round" stroke-linejoin="round" stroke-miterlimit="10" stroke-width="6"/><path d="   M83.49,130.417c3.113,0.563,5.479,1.1,9.186,2.49" fill="none" stroke="#14346E" stroke-linecap="round" stroke-linejoin="round" stroke-miterlimit="10" stroke-width="6"/><path d="   M60.088,150.507c-1.523-3.697-1.713-13.293,5.145-18.244c1.584-1.145,4.268-2.096,7.898-2.43" fill="none" stroke="#14346E" stroke-linecap="round" stroke-linejoin="round" stroke-miterlimit="10" stroke-width="6"/></g></svg>