<?xml version="1.0" ?><!DOCTYPE svg  PUBLIC '-//W3C//DTD SVG 1.0//EN'  'http://www.w3.org/TR/2001/REC-SVG-20010904/DTD/svg10.dtd'><svg width="256px" height="256px" viewBox="0 0 256 256" enable-background="new 0 0 256 256" id="Layer_1" version="1.0" xml:space="preserve" xmlns="http://www.w3.org/2000/svg" xmlns:xlink="http://www.w3.org/1999/xlink"><g><g><path d="M118.967,132.271c0.131,0.1,0.27,0.201,0.406,0.307l0.008-0.027    C119.242,132.457,119.102,132.363,118.967,132.271z" fill="#FFDE58"/><path d="M131.291,85.477c0,0,2.023-13.563,4.691-24.48c-2.188-0.365-8.236-3.605-8.236-3.605    s-2.295-2.793-4.09,4.498c-1.791,7.293,0.043,24.109-2.199,26.129c-2.244,2.016,2.242,11.434,0,15.246    c-2.244,3.813-6.057,17.938-7.85,19.059c0,0,0.959,4.553,0.037,7.717c0.453-0.027,1.59,0.014,2.078,0.131    C126.188,111.311,131.291,85.477,131.291,85.477z" fill="#FFDE58"/></g><path d="M169.518,54.246c-0.535-1.301-4.797-4.051-14.514-7.191c-9.717-3.139-12.936-0.656-14.518,1.047   c-4.58,4.93-9.418,37.371-9.418,37.371s-3.803,24.197-14.902,44.693l-0.006,0.021c0.777,0.199,1.607,0.578,2.527,1.168   c2.73,1.746,6.148,4.133,8.811,7.207l0.068-0.025c0,0,15.006-14.74,25.045-34.828c5.658-11.32,2.689-35.877,7.398-39.465   c2.016-1.535,5.67-2.125,9.195-2.299C169.205,61.945,170.715,57.135,169.518,54.246z" fill="#FF9D00"/><path d="M184.775,65.52c4.926,1.225,13.602-1.805,14.201,4.779c0.596,6.584,0.393,11.555,0.08,13.525   c-0.518,3.291-4.291,6.143-4.291,6.143s-8.82-1.506-12.105-1.656c-3.289-0.148-3.031-19.434-3.031-19.434   S179.398,64.182,184.775,65.52z" fill="#34AEDB"/><path d="M203.248,168.828l-11.383,3.26c-8.967,2.916-22.266,6.951-29.215,15.188   c-0.502,0.596-1.402,1.645-1.402,1.645l19.385,2.846c0,0,18.102-3.592,21.563-6.613c1.797-1.57,1.053-15.648,1.053-15.648" fill="#066ACF"/><path d="M200.732,158.285c-5.412,4.766-17.01,5.229-40.652,17c-12.213,6.08-9.867,12.33-39.463,14.125   c-29.598,1.793-54.086-7.846-58.643-9.285c-4.553-1.438-10.119-3.195-10.119-3.195s-3.227-3.957-4.111,8.645v4.957   c0,0,28.924,14.576,56.504,15.92c27.582,1.344,41.932-1.57,46.863-6.953c4.934-5.381,6.49-6.736,10.83-11.883   c6.949-8.238,20.248-12.273,29.217-15.189l11.383-3.26L200.732,158.285z" fill="#34AEDB"/><path d="M52.549,176.93c0,0-1.422-12.855,6.201-17.117c7.625-4.26,13.678-2.914,21.752-6.502   c8.07-3.588,17.266-5.605,23.545-13.455c6.275-7.846,8.676-11.816,14.283-8.229c2.721,1.742,8.787,7.182,8.787,7.182   s15.617-17.289,25.135-34.828c6.037-11.123,2.691-35.877,7.4-39.465c4.711-3.588,18.387-2.016,18.387-2.016s1.223,3.768,1.232,6.65   c0,0-0.262,19.285,3.027,19.434s12.109,1.656,12.109,1.656s0.748,9.813,0.748,16.58c0,6.766,3.543,13.979,3.639,21.826   c0,0,0.096,7.846,1.664,13.9c1.572,6.053,3.883,10.582,0.969,15.738c0,0-2.232,1.674-12.396,5.496c0,0-15.926,5.674-28.258,11.504   c-12.334,5.828-9.863,12.33-39.465,14.125c-29.596,1.793-58.639-9.285-58.639-9.285S58.602,178.734,52.549,176.93z" fill="#FFDE58"/><path d="   M188.936,125.84c0.637-0.936,1.184-1.885,1.627-2.848c2.689-5.83,0-6.279,0-6.279" fill="none" stroke="#14346E" stroke-linecap="round" stroke-linejoin="round" stroke-miterlimit="10" stroke-width="6"/><path d="   M52.457,176.93c0,0-1.422-12.855,6.201-17.117c7.623-4.26,13.678-2.914,21.752-6.502c8.07-3.588,17.264-5.605,23.545-13.455   c6.275-7.846,8.676-11.816,14.281-8.229s14.125,9.865,13.004,19.283c-1.121,9.416,5.449,5.09,20.473-1.188   c5.471-2.287,11.43-4.975,17.039-8.008" fill="none" stroke="#14346E" stroke-linecap="round" stroke-linejoin="round" stroke-miterlimit="10" stroke-width="6"/><path d="   M198.703,128.646c0,0,0.096,7.846,1.664,13.9c1.57,6.053,3.883,10.582,0.967,15.738" fill="none" stroke="#14346E" stroke-linecap="round" stroke-linejoin="round" stroke-miterlimit="10" stroke-width="6"/><path d="   M62.576,180.125c0,0,29.045,11.078,58.641,9.285c29.598-1.795,27.133-8.297,39.465-14.125c12.332-5.83,28.254-11.504,28.254-11.504   " fill="none" stroke="#14346E" stroke-linecap="round" stroke-linejoin="round" stroke-miterlimit="10" stroke-width="6"/><path d="   M48.344,185.574v4.957c0,0,28.926,14.576,56.506,15.92s41.93-1.57,46.863-6.953c4.93-5.381,6.488-6.736,10.83-11.883   c6.949-8.238,20.246-12.273,29.215-15.189" fill="none" stroke="#14346E" stroke-linecap="round" stroke-linejoin="round" stroke-miterlimit="10" stroke-width="6"/><path d="   M179.18,187.57l1.344,3.855c0,0,18.104-3.592,21.563-6.611c1.799-1.572,1.055-15.648,1.055-15.648" fill="none" stroke="#14346E" stroke-linecap="round" stroke-linejoin="round" stroke-miterlimit="10" stroke-width="6"/><line fill="none" stroke="#14346E" stroke-linecap="round" stroke-linejoin="round" stroke-miterlimit="10" stroke-width="6" x1="172.32" x2="170.967" y1="190.98" y2="190.771"/><path d="   M177.947,62.5c0,0-13.678-1.572-18.389,2.016c-4.705,3.588-1.119,28.479-7.398,39.465c-6.279,10.988-19.059,27.354-19.059,27.354" fill="none" stroke="#14346E" stroke-linecap="round" stroke-linejoin="round" stroke-miterlimit="10" stroke-width="6"/><path d="   M128.406,57.658c0,0-2.297-2.793-4.09,4.498c-1.793,7.293,0.043,24.111-2.201,26.127c-2.242,2.018,2.244,11.438,0,15.25   c-2.242,3.811-6.055,17.938-7.848,19.059" fill="none" stroke="#14346E" stroke-linecap="round" stroke-linejoin="round" stroke-miterlimit="10" stroke-width="6"/><path d="   M179.18,69.15c0,0-0.262,19.285,3.029,19.434c3.285,0.148,12.105,1.656,12.105,1.656s0.896,14.637,0.75,16.58" fill="none" stroke="#14346E" stroke-linecap="round" stroke-linejoin="round" stroke-miterlimit="10" stroke-width="6"/><path d="   M130.617,85.744c0,0,4.836-32.439,9.418-37.371c1.584-1.701,4.801-4.186,14.518-1.045c9.717,3.137,13.77,5.996,14.516,7.191" fill="none" stroke="#14346E" stroke-linecap="round" stroke-linejoin="round" stroke-miterlimit="10" stroke-width="6"/><line fill="none" stroke="#14346E" stroke-linecap="round" stroke-linejoin="round" stroke-miterlimit="10" stroke-width="6" x1="162.699" x2="162.699" y1="102.412" y2="105.998"/><line fill="none" stroke="#14346E" stroke-linecap="round" stroke-linejoin="round" stroke-miterlimit="10" stroke-width="6" x1="157.094" x2="157.094" y1="116.014" y2="119.602"/><line fill="none" stroke="#14346E" stroke-linecap="round" stroke-linejoin="round" stroke-miterlimit="10" stroke-width="6" x1="149.844" x2="149.844" y1="128.646" y2="132.232"/><line fill="none" stroke="#14346E" stroke-linecap="round" stroke-linejoin="round" stroke-miterlimit="10" stroke-width="6" x1="140.949" x2="140.949" y1="138.809" y2="142.398"/><line fill="none" stroke="#14346E" stroke-linecap="round" stroke-linejoin="round" stroke-miterlimit="10" stroke-width="6" x1="166.736" x2="166.736" y1="70.57" y2="74.158"/><path d="   M184.324,65.791c4.932,1.199,13.604-1.805,14.199,4.779c0.598,6.584,0.969,11.736,0.084,13.527" fill="none" stroke="#14346E" stroke-linecap="round" stroke-linejoin="round" stroke-miterlimit="10" stroke-width="6"/><path d="   M135.793,135.059c0,0-6.273-14.678-10.652-17.25" fill="none" stroke="#14346E" stroke-linecap="round" stroke-linejoin="round" stroke-miterlimit="10" stroke-width="6"/><path d="   M143.75,122.471c0,0-6.271-14.678-10.648-17.25" fill="none" stroke="#14346E" stroke-linecap="round" stroke-linejoin="round" stroke-miterlimit="10" stroke-width="6"/><path d="   M151.668,110.189c0,0-8.863-17.377-13.242-19.949" fill="none" stroke="#14346E" stroke-linecap="round" stroke-linejoin="round" stroke-miterlimit="10" stroke-width="6"/><path d="   M153.816,92.723c0,0-8.49-14.68-12.867-17.252" fill="none" stroke="#14346E" stroke-linecap="round" stroke-linejoin="round" stroke-miterlimit="10" stroke-width="6"/><path d="   M155.508,78.516c0,0-8.488-14.682-12.865-17.252" fill="none" stroke="#14346E" stroke-linecap="round" stroke-linejoin="round" stroke-miterlimit="10" stroke-width="6"/><line fill="none" stroke="#14346E" stroke-linecap="round" stroke-linejoin="round" stroke-miterlimit="10" stroke-width="6" x1="145.787" x2="140.949" y1="81.785" y2="84.523"/><line fill="none" stroke="#14346E" stroke-linecap="round" stroke-linejoin="round" stroke-miterlimit="10" stroke-width="6" x1="142.121" x2="137.283" y1="94.639" y2="97.379"/><line fill="none" stroke="#14346E" stroke-linecap="round" stroke-linejoin="round" stroke-miterlimit="10" stroke-width="6" x1="135.453" x2="130.617" y1="109.449" y2="112.188"/><line fill="none" stroke="#14346E" stroke-linecap="round" stroke-linejoin="round" stroke-miterlimit="10" stroke-width="6" x1="128.299" x2="123.463" y1="121.33" y2="124.068"/><path d="   M171.273,78.516c0,0,2.578,13.834,6.674,26.705c3.693,11.605,6.377,52.838-15.248,59.301" fill="none" stroke="#14346E" stroke-dasharray="7.9976,16.6616" stroke-linecap="round" stroke-linejoin="round" stroke-miterlimit="10" stroke-width="6"/><g><g><path d="M116.5,77.107     c0,0-0.836,1.179-2.089,3.405" fill="none" stroke="#14346E" stroke-linecap="round" stroke-linejoin="round" stroke-width="6"/><path d="     M107.09,98.111c-0.723,2.44-1.393,5.068-1.967,7.871c-0.898,4.386-2.27,7.547-3.83,9.818" fill="none" stroke="#14346E" stroke-dasharray="9.1656,19.0951" stroke-linecap="round" stroke-linejoin="round" stroke-width="6"/><path d="M93.705,121.216     c-2.291,0.503-3.973,0.114-3.973,0.114" fill="none" stroke="#14346E" stroke-linecap="round" stroke-linejoin="round" stroke-width="6"/></g></g></g></svg>