<?xml version="1.0" ?><!DOCTYPE svg  PUBLIC '-//W3C//DTD SVG 1.0//EN'  'http://www.w3.org/TR/2001/REC-SVG-20010904/DTD/svg10.dtd'><svg width="256px" height="256px" viewBox="0 0 256 256" enable-background="new 0 0 256 256" id="Layer_1" version="1.0" xml:space="preserve" xmlns="http://www.w3.org/2000/svg" xmlns:xlink="http://www.w3.org/1999/xlink"><g><path d="M145.661,175.707c-0.014-0.002-0.029-0.004-0.045-0.006c-1.707-0.242-4.85-3.611-3.512-6.426   c1.338-2.818,4.152-5.572,7.16-5.076c1.779,0.291,8.271,2.898,10.379-7.951C162.975,139.092,178,144.801,178,144.801   s3.596,0.279,7.023,0.07c-2.484-1.492-5.18-3.223-8.162-5.332c-11.775-8.344-34.453-39.465-39.25-44.402   c-4.797-4.939-12.631-6.623-12.631-6.623l-7.947,7.264c-11.92,9.879-31.926,10.574-46.752,2.488   C57.747,91.43,51.499,84.008,50.015,78.986c-0.326-0.416-0.629-0.826-0.906-1.23c-1.279,2.969-4.361,10.654-5.076,17.297   c-0.955,8.912-1.766,15.623-0.283,22.047c0.059,0.246,0.125,0.479,0.189,0.715c0.834,0.912,1.471,1.379,1.471,1.379   c10.301,7.484,32.894,19.633,48.939,34.621c9.523,8.893,25.104,18.502,51.313,22.055V175.707z" fill="#FFCF59"/><path d="M202.709,155.051c-3.945-2.787-8.174-4.801-13.414-7.715c-1.92,0.506-2.914,0.17-6.135-0.15   c-4.238-0.42-18.07-4.1-20.297,13.238c-1.529,11.91-9.475,8.707-11.254,8.414c-3.006-0.496-3.859,1.748-3.605,6.336   c-0.125,0.268-0.203,0.539-0.254,0.813c-0.076-0.01-0.15-0.021-0.225-0.029v0.16c9.207,1.123,19.689,1.512,31.641,0.879   c26.492-1.4,32.016-9.551,32.01-14.598C209.467,160.572,206.608,157.805,202.709,155.051z" fill="#FF9D00"/><path d="M113.756,89.742l0.525-0.482c-7.258-0.432-16.369-1.303-23.07-3.055   c-13.002-3.404-25.516-11.123-29.56-12.84c-4.049-1.719-10.426-0.482-10.672,4.303c-0.043,0.844,0.115,1.816,0.475,2.895   c3.344,3.713,8.432,7.783,15.55,11.666C81.827,100.314,101.836,99.621,113.756,89.742z" fill="#FF9D00"/><g><path d="M181.024,182.291c-47.436,2.51-71.789-11.014-84.818-23.184c-16.043-14.988-44.55-31.525-48.939-34.619    c-4.389-3.096-8.461-2.545-8.461-2.545s-0.986,14.27-1.096,18.01c1.08,1.098,2.713,2.266,5.199,3.582    c6.256,3.313,20.791,9.383,20.791,9.383s-0.537-11.521,3.479-9.857c2.766,1.148,13.881,11.193,16.756,13.885    c7.557,7.074,17.295,17.693,43.381,24.518c29.721,7.775,55.818,6.41,77.344,1.008c11.074-2.777,10.295-6.666,10.416-8.68    c0.102-1.668-0.127-3.355-0.529-4.967c-0.688-1.402-1.391-2.586-1.939-3.443C214.329,169.682,212.157,180.645,181.024,182.291z" fill="#34DBAE"/><path d="M211.596,163.9c0,0,0.414,0.547,1.01,1.48C212.333,164.699,211.961,164.184,211.596,163.9z" fill="#34DBAE"/></g><path d="   M121.702,82.475c0,0-22.078-0.078-35.08-3.48C73.62,75.59,61.11,67.869,57.062,66.154c-4.047-1.719-10.426-0.482-10.672,4.303   c-0.244,4.783,5.791,13.688,20.615,21.773c14.822,8.084,34.832,7.391,46.752-2.488" fill="none" stroke="#14346E" stroke-linecap="round" stroke-linejoin="round" stroke-miterlimit="10" stroke-width="6"/><g><g><path d="M45.409,119.057     c0.987,0.717,2.087,1.478,3.284,2.278" fill="none" stroke="#14346E" stroke-linecap="round" stroke-linejoin="round" stroke-width="6"/><path d="     M62.36,130.094c10.295,6.566,22.328,14.562,31.988,23.586c13.029,12.17,37.381,25.691,84.818,23.182     c16.013-0.847,24.364-4.159,28.464-7.762" fill="none" stroke="#14346E" stroke-dasharray="7.7923,16.234" stroke-linecap="round" stroke-linejoin="round" stroke-width="6"/><path d="M211.172,162.084     c-0.046-1.737-0.746-3.082-1.438-3.613" fill="none" stroke="#14346E" stroke-linecap="round" stroke-linejoin="round" stroke-width="6"/></g></g><path d="   M40.757,87.051c-2.465,6.072-2.861,17.943-0.285,24.014" fill="none" stroke="#14346E" stroke-linecap="round" stroke-linejoin="round" stroke-miterlimit="10" stroke-width="6"/><path d="   M134.334,89.1c0,0,27.473,36.061,39.25,44.402c11.773,8.34,19.25,10.539,25.846,15.512" fill="none" stroke="#14346E" stroke-linecap="round" stroke-linejoin="round" stroke-miterlimit="10" stroke-width="6"/><path d="   M36.948,116.514c0,0-1.109,15.98-1.109,18.555c0,2.576,0.922,4.969,7.178,8.281c6.258,3.313,20.791,9.383,20.791,9.383" fill="none" stroke="#14346E" stroke-linecap="round" stroke-linejoin="round" stroke-miterlimit="10" stroke-width="6"/><path d="   M63.807,152.732c0,0-0.535-11.521,3.477-9.857c2.768,1.148,13.883,11.193,16.76,13.885c7.557,7.074,17.293,17.693,43.381,24.516   c29.721,7.777,55.818,6.412,77.338,1.01c11.08-2.777,10.42-8.68,10.42-8.68" fill="none" stroke="#14346E" stroke-linecap="round" stroke-linejoin="round" stroke-miterlimit="10" stroke-width="6"/><path d="   M125.258,86.158c0,0-9.566,9.32-6.871,43.664" fill="none" stroke="#14346E" stroke-linecap="round" stroke-linejoin="round" stroke-miterlimit="10" stroke-width="6"/><path d="   M137.217,89.1c0,0-2.023,15.271-5.52,21.158" fill="none" stroke="#14346E" stroke-linecap="round" stroke-linejoin="round" stroke-miterlimit="10" stroke-width="6"/><path d="   M144.209,126.244c0,0,6.623-4.762,5.334-21.137" fill="none" stroke="#14346E" stroke-linecap="round" stroke-linejoin="round" stroke-miterlimit="10" stroke-width="6"/><path d="   M134.334,115.041c0,0,10.611,4.969,22.568-1.104" fill="none" stroke="#14346E" stroke-dasharray="7.9976,16.6616" stroke-linecap="round" stroke-linejoin="round" stroke-miterlimit="10" stroke-width="6"/><path d="   M123.604,101.428c0,0,14.451,2.6,19.594-2.449" fill="none" stroke="#14346E" stroke-dasharray="7.9976,16.6616" stroke-linecap="round" stroke-linejoin="round" stroke-miterlimit="10" stroke-width="6"/><path d="   M129.825,83.211c0,0,24.279,24.482,27.078,10.961c2.801-13.52-19.686-15.939-19.686-15.939" fill="none" stroke="#14346E" stroke-linecap="round" stroke-linejoin="round" stroke-miterlimit="10" stroke-width="6"/><line fill="none" stroke="#14346E" stroke-linecap="round" stroke-linejoin="round" stroke-miterlimit="10" stroke-width="6" x1="70.737" x2="70.737" y1="151.785" y2="151.629"/><g><g><path d="M177.137,144.717     c0,0-1.619-0.643-3.896-0.849" fill="none" stroke="#14346E" stroke-linecap="round" stroke-linejoin="round" stroke-width="6"/><path d="     M162.092,149.062c-1.136,1.761-2.068,4.076-2.656,7.104c-0.393,2.023-1.023,3.567-1.789,4.742" fill="none" stroke="#14346E" stroke-dasharray="6.2328,12.985" stroke-linecap="round" stroke-linejoin="round" stroke-width="6"/><path d="M152.362,164.361     c-2.169,0.334-3.963-0.248-3.963-0.248" fill="none" stroke="#14346E" stroke-linecap="round" stroke-linejoin="round" stroke-width="6"/></g></g><g><g><path d="M50.479,95.738     c0,0-0.308,1.611-0.208,3.986" fill="none" stroke="#14346E" stroke-linecap="round" stroke-linejoin="round" stroke-width="6"/><path d="M54.257,110.961     c0.788,0.983,1.726,1.93,2.84,2.807" fill="none" stroke="#14346E" stroke-linecap="round" stroke-linejoin="round" stroke-width="6"/></g></g></g></svg>