<?xml version="1.0" ?><!DOCTYPE svg  PUBLIC '-//W3C//DTD SVG 1.0//EN'  'http://www.w3.org/TR/2001/REC-SVG-20010904/DTD/svg10.dtd'><svg width="256px" height="256px" viewBox="0 0 256 256" enable-background="new 0 0 256 256" id="Layer_1" version="1.0" xml:space="preserve" xmlns="http://www.w3.org/2000/svg" xmlns:xlink="http://www.w3.org/1999/xlink"><g><path d="M139.963,61.211c-8.428,0-15.604,2.417-19.6,4.112l8.855,3.776l-1.156,2.565l6.486,2.767l-3.98,8.834   l1.703,1.386l10.217-8.65l-3.109-6.901l15.197-6.309C148.527,61.256,139.963,61.211,139.963,61.211z" fill="#00CFDB"/><path d="M249.143,164.996l-4.896,4.138L186.859,86.54l-10.852-5.336l-0.006-0.139h-4.271l-5.012,0.889l2.629-5.916   l-3.297,0.585l2.469-5.555h-2.121l-5.012,0.89l2.176-4.898c-0.508-0.227-1.045-0.443-1.602-0.654l-1.24,0.221l0.254-0.576   c-0.539-0.187-1.092-0.369-1.67-0.542c0.484,0.39,0.707,0.636,0.707,0.636l-18.504,7.681l0.98,2.177l-1.256,1.064l1.924,4.267   l-10.221,8.65l-7.359-5.991l1.578-3.504l-2.246-1.828l2.408-5.336l-11.854-5.117c-1.766,1.041-3.07,2.199-3.801,3.437l2.213,4.98   l-1.834-0.293l2.5,5.624l-5.572-0.889h-3.715l-0.006,0.141l-9.24,4.543l-68.395,82.257l-3.563-3.01l-8.133,9.624l18.42,15.562   l13.414-6.655l-0.104-4.084l-4.258-3.598c0.635-0.723,1.449-1.651,2.404-2.734l-3.07-2.597c8.959-10.224,52.824-59.899,52.5-52.052   c-0.047,1.16-0.109,2.701-0.182,4.529c0.572-0.111,0.877,0.13,0.85,0.803c-0.064,1.547-0.152,3.771-0.258,6.449   c3.1-2.532,4.992-3.433,4.922-1.784c-0.049,1.157-0.109,2.701-0.182,4.523c0.576-0.115,0.875,0.133,0.85,0.808   c-0.363,8.74-1.48,38.958-2.277,51.463c-0.395,6.195-0.699,14.886-0.904,22.087c5.764,1.847,14.75,4.338,23.902,5.348   l12.324-15.876l4.443,5.998l3.775,5.998l6.443,4.367c17.449-0.318,31.434-8.366,31.434-8.366s-1.201-24.599-1.748-33.989   s-4.203-41.612-4.582-52.359c-0.334-9.486,34.893,41.144,43.152,53.139l-1.02,0.862c2.705,3.854,4.928,7.068,6.352,9.136   l-1.906,1.609c1.018,1.465,1.889,2.729,2.572,3.721l-1.066,0.901l4.742,2.354l25.418-21.476L249.143,164.996z M126.939,135.746   l-9.998,6.665l-11.305-7.108L104.5,113.31c0,0,13.107,1.776,22.439-0.445C126.273,121.75,126.939,135.746,126.939,135.746z" fill="#FFCF59"/><path d="M126.939,135.746c0,0-0.523-8.988-0.178-17.674c-8.938,1.346-17.596,1.234-17.596,1.234l0.436,18.489   l7.34,4.615L126.939,135.746z" fill="#FF9D00"/><line fill="none" stroke="#14346E" stroke-dasharray="7.9976,16.6616" stroke-linecap="round" stroke-linejoin="round" stroke-miterlimit="10" stroke-width="6" x1="105.637" x2="105.068" y1="135.303" y2="124.305"/><path d="   M108.545,66.765c0-6.014,11.68-10.887,26.086-10.887c14.408,0,26.09,4.873,26.09,10.887l3.553-7.998   c0-6.012-13.271-10.886-29.643-10.886c-16.369,0-29.643,4.874-29.643,10.886L108.545,66.765z" fill="none" stroke="#14346E" stroke-linecap="round" stroke-linejoin="round" stroke-miterlimit="10" stroke-width="6"/><polyline fill="none" points="   238.295,153.903 180.863,71.349 170.01,66.015 170.004,65.876 165.732,65.876  " stroke="#14346E" stroke-linecap="round" stroke-linejoin="round" stroke-miterlimit="10" stroke-width="6"/><path d="   M148.932,213.313c17.449-0.317,31.434-8.367,31.434-8.367s-1.201-24.598-1.748-33.989c-0.547-9.39-4.203-41.611-4.582-52.358   c-0.379-10.746,43.186,53.111,43.186,53.111" fill="none" stroke="#14346E" stroke-linecap="round" stroke-linejoin="round" stroke-miterlimit="10" stroke-width="6"/><polyline fill="none" points="   102.971,65.876 99.256,65.876 99.252,66.015 90.008,70.559 21.857,152.958  " stroke="#14346E" stroke-linecap="round" stroke-linejoin="round" stroke-miterlimit="10" stroke-width="6"/><polygon fill="none" points="   139.379,69.1 146.486,84.873 160.721,66.765 164.273,58.767  " stroke="#14346E" stroke-linecap="round" stroke-linejoin="round" stroke-miterlimit="10" stroke-width="6"/><polygon fill="none" points="   129.219,69.1 122.107,84.873 108.545,66.765 104.988,58.767  " stroke="#14346E" stroke-linecap="round" stroke-linejoin="round" stroke-miterlimit="10" stroke-width="6"/><polyline fill="none" points="   136.768,80.531 132.271,84.651 134.27,101.534  " stroke="#14346E" stroke-linecap="round" stroke-linejoin="round" stroke-miterlimit="10" stroke-width="6"/><path d="   M134.27,110.963v85.986l-12.324,15.876c-15.328-1.689-30.219-7.545-30.219-7.545s0.422-22.714,1.223-35.219   c0.799-12.504,1.914-42.724,2.275-51.463c0.361-8.738-52.334,52.195-52.334,52.195" fill="none" stroke="#14346E" stroke-linecap="round" stroke-linejoin="round" stroke-miterlimit="10" stroke-width="6"/><path d="   M138.891,140.646c0.898,0.8,2.068,1.301,3.363,1.301c2.805,0,5.076-2.273,5.076-5.078s-2.271-5.077-5.076-5.077   c-1.295,0-2.465,0.5-3.363,1.3" fill="#FFFFFF" stroke="#14346E" stroke-linecap="round" stroke-linejoin="round" stroke-miterlimit="10" stroke-width="6"/><path d="   M138.891,191.796c0.898,0.801,2.068,1.303,3.363,1.303c2.805,0,5.076-2.275,5.076-5.081c0-2.802-2.271-5.075-5.076-5.075   c-1.295,0-2.465,0.5-3.363,1.299" fill="#FFFFFF" stroke="#14346E" stroke-linecap="round" stroke-linejoin="round" stroke-miterlimit="10" stroke-width="6"/><path d="   M138.891,100.506c0.898,0.798,2.068,1.299,3.363,1.299c2.805,0,5.076-2.272,5.076-5.076c0-2.806-2.271-5.077-5.076-5.077   c-1.295,0-2.465,0.499-3.363,1.298" fill="#FFFFFF" stroke="#14346E" stroke-linecap="round" stroke-linejoin="round" stroke-miterlimit="10" stroke-width="6"/><polygon fill="none" points="   47.527,174.708 47.752,183.664 34.338,190.32 4.861,165.417 18.053,149.806  " stroke="#14346E" stroke-linecap="round" stroke-linejoin="round" stroke-miterlimit="10" stroke-width="6"/><polygon fill="none" points="   213.672,174.708 213.445,183.664 226.861,190.32 256.334,165.417 243.145,149.806  " stroke="#14346E" stroke-linecap="round" stroke-linejoin="round" stroke-miterlimit="10" stroke-width="6"/><line fill="none" stroke="#14346E" stroke-linecap="round" stroke-linejoin="round" stroke-miterlimit="10" stroke-width="6" x1="142.488" x2="138.713" y1="208.944" y2="202.948"/><line fill="none" stroke="#14346E" stroke-dasharray="7.9976,16.6616" stroke-linecap="round" stroke-linejoin="round" stroke-miterlimit="10" stroke-width="6" x1="116.941" x2="125.545" y1="142.411" y2="136.676"/><path d="   M109.602,113.785c0,0,8.252,0.311,11.139,0" fill="none" stroke="#14346E" stroke-dasharray="7.9976,16.6616" stroke-linecap="round" stroke-linejoin="round" stroke-miterlimit="10" stroke-width="6"/></g></svg>