<?xml version="1.0" ?><!DOCTYPE svg  PUBLIC '-//W3C//DTD SVG 1.0//EN'  'http://www.w3.org/TR/2001/REC-SVG-20010904/DTD/svg10.dtd'><svg width="256px" height="256px" viewBox="0 0 256 256" enable-background="new 0 0 256 256" id="Layer_1" version="1.0" xml:space="preserve" xmlns="http://www.w3.org/2000/svg" xmlns:xlink="http://www.w3.org/1999/xlink"><g><g><path d="M177.313,157.391c-1.586-2.633-3.709-5.412-6.299-8.469c-8.08-9.535-33.793-24.951-41.91-29.545    c-8.119-4.594-26.566-19.688-33.543-24.852c-6.977-5.162-12.215-1.496-17.008,2.238l-0.668,0.996    c-4.797,3.736-14.889,17.191-20.787,16.549c-5.898-0.639-9.266-4.926-11.283-11.098c-2.014-6.174-3.012-9.332-5.096-11.316    c-1.742-1.658-2.072-3.613-1.383-5.057l-5.631,8.592c0,0-3.418,9.203-3.516,16.391c-0.094,7.186-0.248,6.566-0.521,8.918    c-0.063,0.549-0.035,1.344,0.039,2.24c2.836,2.895,7.748,5.393,12.537,7.438c6.742,2.879,26.791,8.871,39.588,13.91    c12.801,5.041,25.936,11.736,55.521,16.854c12.404,2.145,26.643,1.701,39.768,0.141    C177.359,160.432,177.369,158.818,177.313,157.391z" fill="#066ACF"/><path d="M39.336,86.838l0.514-0.783C39.641,86.293,39.473,86.557,39.336,86.838z" fill="#066ACF"/><path d="M177.342,161.295c-0.074,0.01-0.15,0.018-0.221,0.025v0.002L177.342,161.295z" fill="#066ACF"/></g><path d="M187.852,136.482c0.379-0.295,0.795-0.59,1.229-0.879c-5.041-1.541-11.605-3.896-17.84-7.191   c-12.59-6.658-28.422-13.684-35.156-19.408c-6.74-5.725-17.865-18.75-21.729-20.867c-3.865-2.115-10.27-2.387-13.051-2.83   l-7.889-3.209c0,0-4.271-4.58-7.549-3.717c-2.885,0.76-2.885,0.76-4.873,3.537c-0.211,0.293-0.418,0.643-0.623,1.029   c3.449-1.74,7.275-2.154,11.855,1.232c6.979,5.164,25.424,20.258,33.543,24.852s33.828,20.01,41.912,29.545   c5.27,6.217,8.607,11.301,9.439,16.297c0.088,0.533,0.713-5.438,3.268-9.924C182.941,140.465,184.924,138.752,187.852,136.482z" fill="#34AEDB"/><path d="M67.508,94.275c-3.547-2.664-10.965-8.119-14.008-9.467c-4.07-1.803-7.293-2.318-10.318-2.531   c0,0-0.014,0.014-0.035,0.043c-1.244,1.451-1.16,3.832,0.906,5.795c2.08,1.982,3.08,5.143,5.094,11.316   c0.434,1.318,0.928,2.543,1.494,3.672c0.955,0.379,1.992,0.639,3.123,0.762C57.475,104.27,62.84,99.1,67.508,94.275z" fill="#FFCF59"/><path d="   M24.256,130.857c0.096,4.414,2.172,8.951,11.457,13.434c9.287,4.48,27.541,8.594,40.533,13.666s21.863,12.119,52.762,19.242   c33.764,7.785,78.049-1.57,88.313-5.736c9.184-3.725,9.219-9.537,9.219-9.537s-0.127-3.875-0.109-6.799" fill="none" stroke="#14346E" stroke-linecap="round" stroke-linejoin="round" stroke-miterlimit="10" stroke-width="6"/><path d="   M222.961,144.137c0,0,1.76,5.637-5.588,8.709c-10.395,4.35-50.432,13.963-80.02,8.846c-29.586-5.117-42.721-11.813-55.521-16.854   c-12.797-5.041-32.846-11.033-39.588-13.91c-6.74-2.879-13.74-6.645-14.82-11.168" fill="none" stroke="#14346E" stroke-linecap="round" stroke-linejoin="round" stroke-miterlimit="10" stroke-width="6"/><path d="   M36.518,75.904c-1.281,1.447-1.215,3.855,0.869,5.838s3.082,5.143,5.096,11.316c2.018,6.172,5.385,10.459,11.281,11.098   c5.9,0.643,16.658-14.145,21.455-17.881c4.795-3.736,10.031-7.402,17.008-2.238c6.979,5.164,25.424,20.256,33.543,24.852   c8.119,4.594,35.408,19.973,42.578,30.211c4.104,5.857,4.502,7.012,4.502,7.012" fill="none" stroke="#14346E" stroke-dasharray="7.9976,16.6616" stroke-linecap="round" stroke-linejoin="round" stroke-miterlimit="10" stroke-width="6"/><path d="   M195.783,131.752c0,0-13.951-2.824-26.539-9.482c-12.592-6.658-28.424-13.684-35.16-19.406   c-6.74-5.727-17.865-18.752-21.727-20.867c-3.865-2.117-10.271-2.389-13.053-2.832" fill="none" stroke="#14346E" stroke-linecap="round" stroke-linejoin="round" stroke-miterlimit="10" stroke-width="6"/><path d="   M91.416,75.957c0,0-4.27-4.582-7.549-3.719c-2.885,0.762-4.873,3.537-4.873,3.537" fill="none" stroke="#14346E" stroke-linecap="round" stroke-linejoin="round" stroke-miterlimit="10" stroke-width="6"/><path d="   M62.791,88.943c0,0-10.115-8.063-15.955-10.943" fill="none" stroke="#14346E" stroke-linecap="round" stroke-linejoin="round" stroke-miterlimit="10" stroke-width="6"/><path d="   M216.391,138.938c0,0-5.377-2.957-10.531-4.529" fill="none" stroke="#14346E" stroke-linecap="round" stroke-linejoin="round" stroke-miterlimit="10" stroke-width="6"/><path d="   M187.852,136.338c0,0-4.91,3.982-7.463,8.469c-2.555,4.486-3.334,9.387-3.268,9.924" fill="none" stroke="#14346E" stroke-linecap="round" stroke-linejoin="round" stroke-miterlimit="10" stroke-width="6"/><path d="   M30.371,85.275c0,0-3.416,9.207-3.514,16.393c-0.094,7.186-0.521,8.918-0.521,8.918" fill="none" stroke="#14346E" stroke-linecap="round" stroke-linejoin="round" stroke-miterlimit="10" stroke-width="6"/><line fill="none" stroke="#14346E" stroke-linecap="round" stroke-linejoin="round" stroke-miterlimit="10" stroke-width="6" x1="157.291" x2="168.031" y1="138.266" y2="118.576"/><line fill="none" stroke="#14346E" stroke-linecap="round" stroke-linejoin="round" stroke-miterlimit="10" stroke-width="6" x1="145.459" x2="156.146" y1="130.932" y2="126.633"/><path d="   M132.539,124.145c0,0,17.9-5.639,26.695-5.604" fill="none" stroke="#14346E" stroke-linecap="round" stroke-linejoin="round" stroke-miterlimit="10" stroke-width="6"/><path d="   M119.455,117.129c0,0,10.084-5.326,19.105-6.689" fill="none" stroke="#14346E" stroke-linecap="round" stroke-linejoin="round" stroke-miterlimit="10" stroke-width="6"/><path d="   M107.367,108.904c0,0,9.756-5.809,15.832-5.527" fill="none" stroke="#14346E" stroke-linecap="round" stroke-linejoin="round" stroke-miterlimit="10" stroke-width="6"/><path d="   M96.768,102.613c0,0,12.684-14.631,27.184-13.67" fill="none" stroke="#14346E" stroke-linecap="round" stroke-linejoin="round" stroke-miterlimit="10" stroke-width="6"/><line fill="none" stroke="#14346E" stroke-linecap="round" stroke-linejoin="round" stroke-miterlimit="10" stroke-width="6" x1="170.037" x2="168.414" y1="127.646" y2="129.338"/><line fill="none" stroke="#14346E" stroke-linecap="round" stroke-linejoin="round" stroke-miterlimit="10" stroke-width="6" x1="84.199" x2="83.748" y1="92.357" y2="95.193"/><polyline fill="none" points="   118.385,130.857 101.242,139.275 96.768,130.932  " stroke="#FFFFFF" stroke-linecap="round" stroke-linejoin="round" stroke-miterlimit="10" stroke-width="6"/></g></svg>