<?xml version="1.0" ?><svg width="340px" height="340px" viewBox="0 0 340 340" id="icons" xmlns="http://www.w3.org/2000/svg"><title/><path d="M258.291,152.448H299.03a20.546,20.546,0,0,1,20.546,20.546V259.3a5.638,5.638,0,0,1-5.638,5.638H243.383a5.638,5.638,0,0,1-5.638-5.638V172.995A20.546,20.546,0,0,1,258.291,152.448Z" style="fill:#636b77" transform="translate(557.32 417.391) rotate(180)"/><path d="M248.732,135.216a4,4,0,0,1-3.732-5.44l3.042-7.893a13.726,13.726,0,0,0-2.11-13.5A21.781,21.781,0,0,1,243.3,85.331l3.879-8.015a4,4,0,1,1,7.2,3.485L250.5,88.816a13.748,13.748,0,0,0,1.659,14.546,21.746,21.746,0,0,1,3.344,21.4l-3.042,7.893A4,4,0,0,1,248.732,135.216Z" style="fill:#dce8c4"/><path d="M276.685,135.216a4,4,0,0,1-3.731-5.44L276,121.883a13.726,13.726,0,0,0-2.111-13.5,21.783,21.783,0,0,1-2.629-23.048l3.866-7.986a4,4,0,0,1,7.2,3.486l-3.866,7.986a13.748,13.748,0,0,0,1.659,14.545,21.746,21.746,0,0,1,3.344,21.4l-3.042,7.893A4,4,0,0,1,276.685,135.216Z" style="fill:#dce8c4"/><path d="M304.638,135.216a4,4,0,0,1-3.731-5.44l3.042-7.893a13.726,13.726,0,0,0-2.111-13.5,21.783,21.783,0,0,1-2.629-23.048l3.879-8.015a4,4,0,0,1,7.2,3.485l-3.879,8.015a13.747,13.747,0,0,0,1.658,14.546,21.748,21.748,0,0,1,3.345,21.4l-3.042,7.893A4,4,0,0,1,304.638,135.216Z" style="fill:#dce8c4"/><path d="M313.938,152.448H300.089v87.321a26.3,26.3,0,0,1-2.427,11.26c-3.024,6.393-9.789,13.913-24.882,13.913h26.25A20.546,20.546,0,0,0,319.576,244.4V158.087A5.639,5.639,0,0,0,313.938,152.448Z" style="fill:#373d4c"/><path d="M75.891,264.942H275.2a1.532,1.532,0,0,0,.7-2.895c-8.67-4.4-24.47-14.824-41.45-37.887-18.211-24.734-32.929-43.066-43.879-51.535a19.377,19.377,0,0,0-21.128-1.773c-7.312,4-13.821,7.61-27.15,31.221,0,0-22.783,45.929-66.779,60.428A1.25,1.25,0,0,0,75.891,264.942Z" style="fill:#afd182"/><path d="M23.455,176.479a64.888,64.888,0,0,0-2.241,29.533,37.146,37.146,0,0,0,25.433,29.55A64.7,64.7,0,0,0,66.6,238.289s-.34-38.173-40.279-62.839A1.93,1.93,0,0,0,23.455,176.479Z" style="fill:#a7dd68"/><path d="M84.47,212.094s-19.051-11.281-9.447-37.457a115.55,115.55,0,0,1,26.084-40.684,1.926,1.926,0,0,1,2.909.223c3.259,4.437,10.977,17.744,7.858,41.126a48.457,48.457,0,0,1-15.115,29.61A30.188,30.188,0,0,1,84.47,212.094Z" style="fill:#a7dd68"/><path d="M161.355,214.4a3.994,3.994,0,0,1-2.829-6.82,3.6,3.6,0,0,1,.609-.5,4.047,4.047,0,0,1,1.441-.6,4.088,4.088,0,0,1,1.559,0,4.047,4.047,0,0,1,1.441.6,3.56,3.56,0,0,1,.609.5,4,4,0,0,1,0,5.65,4.1,4.1,0,0,1-.609.5,4.589,4.589,0,0,1-.691.37,3.809,3.809,0,0,1-.75.22A3.433,3.433,0,0,1,161.355,214.4Z" style="fill:#76933e"/><path d="M169.586,232.2a4.065,4.065,0,0,1-2.83-1.17,4.164,4.164,0,0,1-.491-.61,3.958,3.958,0,0,1-.37-.69,4.3,4.3,0,0,1-.229-.75,4.129,4.129,0,0,1-.08-.78,4,4,0,1,1,8,0,3.445,3.445,0,0,1-.08.78,4.339,4.339,0,0,1-.22.75,4.767,4.767,0,0,1-.37.69,5.106,5.106,0,0,1-.5.61A4.032,4.032,0,0,1,169.586,232.2Z" style="fill:#76933e"/><path d="M148.876,232.2a4.057,4.057,0,0,1-.781-.08,3.875,3.875,0,0,1-.75-.23,3.82,3.82,0,0,1-.689-.37,3.188,3.188,0,0,1-.61-.5,4.188,4.188,0,0,1-.5-.6,3.846,3.846,0,0,1-.361-.69,3.465,3.465,0,0,1-.229-.75,3.388,3.388,0,0,1-.08-.78,4.025,4.025,0,0,1,1.17-2.83,3.613,3.613,0,0,1,.61-.5,4.569,4.569,0,0,1,.689-.37,3.849,3.849,0,0,1,.75-.22,3.733,3.733,0,0,1,1.561,0,3.809,3.809,0,0,1,.75.22,4.569,4.569,0,0,1,.689.37,4.169,4.169,0,0,1,.611.5,4.029,4.029,0,0,1,1.17,2.83,4.213,4.213,0,0,1-.08.78,4.053,4.053,0,0,1-.23.75,3.958,3.958,0,0,1-.37.69,3.665,3.665,0,0,1-.49.6,3.612,3.612,0,0,1-.611.5,4.018,4.018,0,0,1-1.439.6A4.146,4.146,0,0,1,148.876,232.2Z" style="fill:#76933e"/><path d="M194.211,250.59c-8.563,5.739-22.989,12.4-45.335,14.352H275.2a1.532,1.532,0,0,0,.7-2.895c-8.67-4.4-24.47-14.824-41.45-37.887-18.211-24.734-32.929-43.066-43.879-51.535a19.636,19.636,0,0,0-5.833-3.1c9.156,9.188,26.946,31.057,23.036,59.219A31.381,31.381,0,0,1,194.211,250.59Z" style="fill:#76933e"/><path d="M87.132,247.222a.456.456,0,0,1-.064,0c-31.366-3.8-45.884-24.8-52.277-38.662a1.862,1.862,0,0,1,3.144-1.94c9.223,11.47,25.548,28.707,42.459,31.908-2.964-7.834-5.748-21.752,1.252-39.192,2.605-6.488,7.34-15.989,11.2-23.451a1.792,1.792,0,0,1,3.338,1.225c-1.968,8.62-4.57,18.877-7.111,25.206-9.122,22.728.933,38.009,1.364,38.649a4.008,4.008,0,0,1-3.3,6.257Z" style="fill:#70933a"/></svg>