<?xml version="1.0" ?><svg width="64px" height="64px" viewBox="0 0 64 64" xmlns="http://www.w3.org/2000/svg"><g id="Flat"><g id="Color"><polygon fill="#212529" points="45 17 32 25 19 17 19 3 45 3 45 17"/><polygon fill="#dd051d" points="40 3 40 20.08 32 25 24 20.08 24 3 40 3"/><path d="M32,25l6.49-4a21.36,21.36,0,0,0-13,0Z" fill="#a60416"/><circle cx="32" cy="41.5" fill="#fccd1d" r="19.5"/><circle cx="32" cy="41.5" fill="#f9a215" r="14.5"/><path d="M33.37,34l1.52,2.63a1.54,1.54,0,0,0,1.06.76L39,38a1.53,1.53,0,0,1,.85,2.56l-2.1,2.22a1.5,1.5,0,0,0-.4,1.22l.36,3a1.57,1.57,0,0,1-2.22,1.58l-2.81-1.27a1.6,1.6,0,0,0-1.32,0l-2.81,1.27A1.57,1.57,0,0,1,26.31,47l.36-3a1.5,1.5,0,0,0-.4-1.22l-2.1-2.22A1.53,1.53,0,0,1,25,38l3-.59a1.54,1.54,0,0,0,1.06-.76L30.63,34A1.59,1.59,0,0,1,33.37,34Z" fill="#fccd1d"/></g></g></svg>