<?xml version="1.0" ?><svg width="340px" height="340px" viewBox="0 0 340 340" id="icons" xmlns="http://www.w3.org/2000/svg"><title/><path d="M9.772,103.7a23.571,23.571,0,0,0,2.145,7.347,6.431,6.431,0,0,0,8.136,3.14c10.15-4.018,35.961-13.646,62.285-18.746L76.922,74.5S47.959,78.908,13.177,97.132A6.467,6.467,0,0,0,9.772,103.7Z" style="fill:#7b9ddb"/><path d="M28.966,196.684a21.139,21.139,0,0,0,1.923,6.587,5.765,5.765,0,0,0,7.294,2.815c9.1-3.6,32.242-12.235,55.844-16.808L89.171,170.5S63.2,174.455,32.019,190.794A5.8,5.8,0,0,0,28.966,196.684Z" style="fill:#f9648b"/><path d="M76.922,74.5a153.827,153.827,0,0,0-16.18,3.729L61.8,83.6a6.008,6.008,0,0,1-3.835,6.813c-7.667,2.794-23.229,8.622-37.711,15a16.164,16.164,0,0,1-10.142.284,22.5,22.5,0,0,0,1.8,5.347,6.431,6.431,0,0,0,8.136,3.14c10.15-4.018,35.961-13.646,62.285-18.746Z" style="fill:#4966ad"/><path d="M89.171,170.5a137.7,137.7,0,0,0-14.358,3.3l.719,4.876a6.014,6.014,0,0,1-3.959,6.555,303.9,303.9,0,0,0-33.627,14.107,19.659,19.659,0,0,1-8.348.5,19.4,19.4,0,0,0,1.291,3.427,5.765,5.765,0,0,0,7.294,2.815c9.1-3.6,32.242-12.235,55.844-16.808Z" style="fill:#d8325d"/><path d="M79.97,72.937S208.125,44.679,322.317,86.273a12.1,12.1,0,0,1,7.5,14.666l-.027.094a8.643,8.643,0,0,1-10.97,5.863c-27.862-8.972-120.814-32.924-232-11Z" style="fill:#7380a6"/><path d="M318.838,106.9a8.634,8.634,0,0,0,10.957-5.867l.027-.094a12.042,12.042,0,0,0-.341-7.6c-3.054,7.07-11.179,3.44-11.179,3.44C217.909,62.673,127.427,74.233,104.035,78.144a6.311,6.311,0,0,1-7.193-4.824l-.753-3.287c-10.276,1.618-16.119,2.9-16.119,2.9L86.829,95.9C198.027,73.969,290.99,97.932,318.838,106.9Z" style="fill:#434861"/><path d="M128.049,79.256l-3.584.386a9.3,9.3,0,0,0-8.305,9.247V194.713h19.523V86.112A6.9,6.9,0,0,0,128.049,79.256Z" style="fill:#ed8d83"/><path d="M222.564,79.256l3.584.386a9.3,9.3,0,0,1,8.3,9.247V194.713H214.929V86.112A6.9,6.9,0,0,1,222.564,79.256Z" style="fill:#ed8d83"/><path d="M116.16,147.969v46.744h19.523V144.219A177.948,177.948,0,0,0,116.16,147.969Z" style="fill:#a8433b"/><path d="M234.452,148.153q-10.127-1.933-19.523-3.195v49.755h19.523Z" style="fill:#a8433b"/><path d="M92.624,168.55S199.31,144.833,295.578,179.9c5.022,1.829,8.108,6.935,6.649,12.077h0c-1.127,3.97-8.585,6.781-12.513,5.516-23.489-7.563-98.339-27.479-192.069-8.994Z" style="fill:#7380a6"/><path d="M290.721,197.818a9.022,9.022,0,0,0,11.516-5.88,9.365,9.365,0,0,0,.288-3.57,9.455,9.455,0,0,1-8.9,1.444c-77.958-28.618-157.208-19.123-179.374-15.6a6.313,6.313,0,0,1-7.2-5.122l-.55-3.048c-8.851,1.39-13.881,2.508-13.881,2.508L97.645,188.5C192.76,169.739,268.433,190.525,290.721,197.818Z" style="fill:#434861"/><path d="M202.009,231.977H148.6c-12.62,0-15.324-15.324-15.324-15.324v51.682h84.053V216.653S214.629,231.977,202.009,231.977Z" style="fill:#a8433b"/><path d="M264.675,280.507a13.9,13.9,0,0,0-10.013-10.444q-.423-.111-.858-.231a25.245,25.245,0,0,1-18.41-23.9l-1.1-59.8a8.322,8.322,0,0,0-7.43-8.121l-5.213-.561a6.344,6.344,0,0,0-7.023,6.308v56.487a19.981,19.981,0,0,1-19.982,19.981H155.966a19.981,19.981,0,0,1-19.982-19.981V183.754a6.345,6.345,0,0,0-7.024-6.308l-5.213.561a8.322,8.322,0,0,0-7.429,8.121l-1.1,59.8a25.244,25.244,0,0,1-18.411,23.9q-.435.12-.857.231a13.9,13.9,0,0,0-10.014,10.444L84,289.221h182.61Z" style="fill:#ed8d83"/><path d="M66.836,53.03l5.6-1.924a5.975,5.975,0,0,1,7.753,4.259l12.248,51.1a6.866,6.866,0,0,1-4.635,8.155l-3.221,1a6.86,6.86,0,0,1-8.65-4.693c-2.871-10.222-8.411-30.557-12.982-50.938A5.98,5.98,0,0,1,66.836,53.03Z" style="fill:#ffb655"/><path d="M80.958,151.841l4.718-1.622a5.038,5.038,0,0,1,6.537,3.59l10.325,43.08a5.788,5.788,0,0,1-3.907,6.875l-2.716.846a5.783,5.783,0,0,1-7.292-3.956c-2.42-8.618-7.091-25.761-10.944-42.943A5.041,5.041,0,0,1,80.958,151.841Z" style="fill:#ffb655"/><path d="M84.578,115.624l3.221-1a6.866,6.866,0,0,0,4.635-8.155L85.516,77.6V89.471a6.16,6.16,0,0,1-5.009,6.052h0a6.16,6.16,0,0,1-6.447-2.9l-5.5-9.26c2.9,11.417,5.628,21.362,7.372,27.572A6.86,6.86,0,0,0,84.578,115.624Z" style="fill:#e87b31"/><path d="M85.075,181.96l-2.736-4.826c2.469,9.739,4.8,18.235,6.284,23.52a5.783,5.783,0,0,0,7.292,3.956l2.716-.846a5.788,5.788,0,0,0,3.907-6.875l-5.281-22.033-.937,5.189a6.05,6.05,0,0,1-4.486,4.794l-.028.007A6.051,6.051,0,0,1,85.075,181.96Z" style="fill:#e87b31"/></svg>