<?xml version="1.0" ?><svg width="64px" height="64px" viewBox="0 0 64 64" xmlns="http://www.w3.org/2000/svg"><g id="Flat"><g id="Color"><polygon fill="#212529" points="45 17 32 25 19 17 19 3 45 3 45 17"/><polygon fill="#dd051d" points="40 3 40 20.08 32 25 24 20.08 24 3 40 3"/><path d="M32,25l6.49-4a21.36,21.36,0,0,0-13,0Z" fill="#a60416"/><circle cx="32" cy="41.5" fill="#fccd1d" r="19.5"/><circle cx="32" cy="41.5" fill="#f9a215" r="14.5"/><path d="M34.13,43.63V33H29.88a3.19,3.19,0,0,1-3.19,3.19H25.63v4.25h4.25v3.19a2.13,2.13,0,0,1-2.13,2.12H25.63V50H38.38V45.75H36.25A2.12,2.12,0,0,1,34.13,43.63Z" fill="#fccd1d"/></g></g></svg>