<?xml version="1.0" ?><svg width="64px" height="64px" viewBox="0 0 64 64" xmlns="http://www.w3.org/2000/svg"><g id="Flat"><g id="Color"><polygon fill="#111315" points="20 20 32 32 39 3 24 3 20 20"/><polygon fill="#a60416" points="34.89 3 28.68 28.68 23.33 23.33 28.11 3 34.89 3"/><polygon fill="#212529" points="44 20 32 32 25 3 40 3 44 20"/><polygon fill="#dd051d" points="40.67 23.33 35.32 28.68 29.11 3 35.89 3 40.67 23.33"/><path d="M47.2,44c0-1.73,1.29-3.64.78-5.19s-2.7-2.4-3.68-3.74-1.07-3.67-2.42-4.66-3.57-.35-5.18-.87-3-2.34-4.7-2.34S28.86,29,27.3,29.54s-3.83-.11-5.18.87-1.43,3.3-2.42,4.66S16.54,37.19,16,38.81s.78,3.46.78,5.19-1.29,3.64-.78,5.19,2.7,2.4,3.68,3.74,1.07,3.67,2.42,4.66,3.57.35,5.18.87,3,2.34,4.7,2.34,3.14-1.83,4.7-2.34,3.83.11,5.18-.87,1.43-3.3,2.42-4.66,3.16-2.12,3.68-3.74S47.2,45.73,47.2,44Z" fill="#fccd1d"/><circle cx="32" cy="44.09" fill="#f9a215" r="11.45"/><path d="M33.1,38l1.21,2.11a1.26,1.26,0,0,0,.85.6l2.43.48a1.22,1.22,0,0,1,.67,2L36.59,45a1.22,1.22,0,0,0-.33,1l.29,2.4a1.26,1.26,0,0,1-1.78,1.27l-2.24-1a1.3,1.3,0,0,0-1.06,0l-2.24,1a1.26,1.26,0,0,1-1.78-1.27l.29-2.4a1.22,1.22,0,0,0-.33-1l-1.67-1.78a1.22,1.22,0,0,1,.67-2l2.43-.48a1.26,1.26,0,0,0,.85-.6L30.9,38A1.28,1.28,0,0,1,33.1,38Z" fill="#fccd1d"/></g></g></svg>