<?xml version="1.0" ?><svg width="64px" height="64px" viewBox="0 0 64 64" xmlns="http://www.w3.org/2000/svg"><g id="Flat"><g id="Color"><polygon fill="#212529" points="39 33 25 33 25 61 32 55 39 61 39 33"/><path d="M39,33H25v9.92a5,5,0,0,1,2.41,1.17A8.12,8.12,0,0,0,32,46a8.12,8.12,0,0,0,4.59-1.91A4.91,4.91,0,0,1,39,42.92Z" fill="#111315"/><polygon fill="#dd051d" points="35 33 35 57.57 32 55 29 57.57 29 33 35 33"/><path d="M29,45.12a5.73,5.73,0,0,0,6,0V33H29Z" fill="#a60416"/><path d="M50.55,23.5c0-2.11,1.57-4.44,1-6.34S48.2,14.24,47,12.6s-1.3-4.48-3-5.69-4.35-.42-6.32-1S34.11,3,32,3s-3.83,2.24-5.73,2.86-4.68-.14-6.32,1-1.75,4-3,5.69-3.85,2.59-4.49,4.56.95,4.23.95,6.34-1.57,4.44-.95,6.34S15.8,32.76,17,34.4s1.3,4.48,3,5.69,4.35.42,6.32,1S29.89,44,32,44s3.83-2.24,5.73-2.86,4.68.14,6.32-1,1.75-4,3-5.69,3.85-2.59,4.49-4.56S50.55,25.61,50.55,23.5Z" fill="#fccd1d"/><circle cx="32" cy="23.5" fill="#f9a215" r="14.5"/><path d="M33.37,16l1.52,2.63a1.54,1.54,0,0,0,1.06.76L39,20a1.53,1.53,0,0,1,.85,2.56l-2.1,2.22a1.5,1.5,0,0,0-.4,1.22l.36,3a1.57,1.57,0,0,1-2.22,1.58l-2.81-1.27a1.6,1.6,0,0,0-1.32,0l-2.81,1.27A1.57,1.57,0,0,1,26.31,29l.36-3a1.5,1.5,0,0,0-.4-1.22l-2.1-2.22A1.53,1.53,0,0,1,25,20l3-.59a1.54,1.54,0,0,0,1.06-.76L30.63,16A1.59,1.59,0,0,1,33.37,16Z" fill="#fccd1d"/></g></g></svg>