<?xml version="1.0" ?><svg width="64px" height="64px" viewBox="0 0 64 64" xmlns="http://www.w3.org/2000/svg"><g id="Flat"><g id="Color"><polygon fill="#212529" points="41 27.69 32 34 23 27.69 23 3 41 3 41 27.69"/><polygon fill="#dd051d" points="37 3 37 30.49 32 34 27 30.49 27 3 37 3"/><path d="M33.88,41.08,36,44.68a2.13,2.13,0,0,0,1.45,1l4.15.81A2.09,2.09,0,0,1,42.71,50l-2.87,3a2.08,2.08,0,0,0-.55,1.68l.49,4.1a2.14,2.14,0,0,1-3,2.16L32.9,59.27a2.25,2.25,0,0,0-1.8,0L27.26,61a2.14,2.14,0,0,1-3-2.16l.49-4.1a2.08,2.08,0,0,0-.55-1.68l-2.87-3a2.09,2.09,0,0,1,1.16-3.49l4.15-.81a2.13,2.13,0,0,0,1.45-1l2.07-3.6A2.18,2.18,0,0,1,33.88,41.08Z" fill="#fccd1d"/><path d="M32,33a4,4,0,1,0,4,4A4,4,0,0,0,32,33Zm0,6a2,2,0,1,1,2-2A2,2,0,0,1,32,39Z" fill="#f9a215"/></g></g></svg>