<?xml version="1.0" ?><svg width="1333.3333px" height="1333.3333px" viewBox="0 0 1333.3333 1333.3333" id="svg2" version="1.1" xml:space="preserve" xmlns="http://www.w3.org/2000/svg" xmlns:inkscape="http://www.inkscape.org/namespaces/inkscape" xmlns:sodipodi="http://sodipodi.sourceforge.net/DTD/sodipodi-0.dtd" xmlns:svg="http://www.w3.org/2000/svg"><defs id="defs6"><clipPath clipPathUnits="userSpaceOnUse" id="clipPath58"><path d="m 2822.01,6791.28 c -0.89,0 -1.8,0.06 -2.71,0.18 l -634.65,85.98 c -10.94,1.49 -18.61,11.56 -17.13,22.51 1.36,10.03 9.94,17.32 19.8,17.32 0.89,0 1.8,-0.06 2.71,-0.19 l 634.64,-85.98 c 10.95,-1.48 18.62,-11.56 17.13,-22.5 -1.36,-10.04 -9.94,-17.32 -19.79,-17.32" id="path56"/></clipPath></defs><g id="g8" transform="matrix(1.3333333,0,0,-1.3333333,0,1333.3333)"><g id="g10" transform="scale(0.1)"><path d="M 9176.02,1535.07 H 731.422 V 1409.11 H 9176.02 v 125.96" id="path12" style="fill:#e3edf5;fill-opacity:1;fill-rule:nonzero;stroke:none"/><path d="m 8802.69,7178.08 85.76,-12.28 11.7,81.72 -85.76,12.28 z m 119.69,-57.55 -164.96,23.62 23.04,160.9 164.95,-23.6 -23.03,-160.92" id="path14" style="fill:#dcf5f9;fill-opacity:1;fill-rule:nonzero;stroke:none"/><path d="m 1164.53,9009.34 85.77,-12.27 11.69,81.72 -85.77,12.27 z m 119.69,-57.55 -164.95,23.63 23.03,160.9 164.95,-23.61 -23.03,-160.92" id="path16" style="fill:#dcf5f9;fill-opacity:1;fill-rule:nonzero;stroke:none"/><path d="m 8825.2,3895.45 -6.39,39.49 58.84,9.52 6.39,-39.49 -58.84,-9.52" id="path18" style="fill:#dcf5f9;fill-opacity:1;fill-rule:nonzero;stroke:none"/><path d="m 8883.99,3959.55 -9.35,57.75 39.48,6.38 9.35,-57.74 -39.48,-6.39" id="path20" style="fill:#dcf5f9;fill-opacity:1;fill-rule:nonzero;stroke:none"/><path d="m 8948.35,3915.38 -6.38,39.49 55.64,9.01 6.39,-39.49 -55.65,-9.01" id="path22" style="fill:#dcf5f9;fill-opacity:1;fill-rule:nonzero;stroke:none"/><path d="m 8904.43,3833.34 -9.89,61.04 39.49,6.38 9.88,-61.03 -39.48,-6.39" id="path24" style="fill:#dcf5f9;fill-opacity:1;fill-rule:nonzero;stroke:none"/><path d="m 1197.12,2455.99 -32.59,23.2 82.41,115.74 121.18,-81.67 -22.36,-33.16 -88.85,59.87 -59.79,-83.98" id="path26" style="fill:#dcf5f9;fill-opacity:1;fill-rule:nonzero;stroke:none"/><path d="m 5483.21,8707.82 c 17.07,308.71 352.13,502.05 712.53,371.73 362.12,523.65 1352.93,270.32 1375.41,-375.32 524.19,78.97 760.39,-137.52 758.59,-409.92 -434.92,2.86 -3115.89,-2.82 -3543.76,0 25.15,327.07 351.36,444.74 697.23,413.51" id="path28" style="fill:#dcf5f9;fill-opacity:1;fill-rule:nonzero;stroke:none"/><path d="m 5276.43,5356.53 c 263.97,158.34 894.85,632.05 1584.48,623.62 437.65,-5.35 806.61,-315.96 806.61,-315.96 0,0 -798.66,-440.44 -1241.14,-515.86 -543.92,-92.71 -1149.95,208.2 -1149.95,208.2" id="path30" style="fill:#92f2b8;fill-opacity:1;fill-rule:nonzero;stroke:none"/><path d="m 6271.05,5615.45 c -193.93,-80.62 -900.45,-482.2 -900.45,-482.2 168.86,359.88 256.81,1244.81 797.96,1695.87 358.13,298.51 1229.09,697.93 1229.09,697.93 0,0 -49.64,-654.07 -391.32,-1278.58 -170.27,-311.22 -103.31,-370.28 -735.28,-633.02" id="path32" style="fill:#bdffd8;fill-opacity:1;fill-rule:nonzero;stroke:none"/><path d="m 3741.01,2506.69 c -10.89,-199.69 -31.2,-636.71 -34.2,-761.73 -1.47,-60.96 -25.71,-149.28 -30.38,-185.45 -4.15,-32.19 138.9,-39.71 168.94,-23.11 38.11,21.08 33.43,78.44 30.76,102.28 -7.59,67.54 -17.28,67.36 -12.19,147.48 11.34,178.65 240.45,804.92 235.51,1037.35 -0.9,42.36 -23.1,181.24 -23.1,181.24 l -357.16,-31.5 c 0,0 28.18,-349.97 21.82,-466.56" id="path34" style="fill:#ffc6c3;fill-opacity:1;fill-rule:nonzero;stroke:none"/><path d="m 3681.41,1600.76 c 19.18,-44.79 51.99,-7.77 94.27,-10.57 38.26,-2.54 82.46,-43.5 102.16,23.52 11.27,-44.18 16.9,-64.74 -25.3,-95.65 -30.14,-22.09 -62.63,-33.68 -91.39,-32.86 -23.91,0.67 -53.15,14.79 -77.89,50.85 -24.92,36.32 -1.8,62.66 -1.85,64.71" id="path36" style="fill:#003977;fill-opacity:1;fill-rule:nonzero;stroke:none"/><path d="m 3894.27,3050.32 c 0,0 -165.44,-248.11 -246.13,-299.17 -227.86,-144.2 -594.87,-371.1 -773.92,-534.7 -47.88,-43.75 -131.32,-144.09 -180.69,-186.14 -24.28,-20.68 -44.28,-20.02 -74.76,-10.65 -50.93,15.63 -84.94,79.53 -69.65,130.56 15.12,50.45 92.99,90.92 131.96,126.33 22.63,20.55 36.01,42.79 62.91,57.29 14.84,8 77.06,30.71 91.65,39.15 131.13,75.85 346.85,512.41 511.53,620.06 67.41,44.07 266.35,194.86 266.35,194.86 l 280.75,-137.59" id="path38" style="fill:#ffd0ce;fill-opacity:1;fill-rule:nonzero;stroke:none"/><path d="m 4521.59,4152.37 -1419.9,-94.75 c -31.34,-166.29 -50.97,-349.37 -59.56,-567.22 -6.68,-169.41 -41.38,-381.77 -41.38,-381.77 0,0 150.21,-28.72 458.88,-187.11 100.68,-51.67 266.59,-42.77 451.8,-1.09 92.46,20.81 145.88,-6.62 204.86,5.79 114.24,24.04 185.03,104 226.25,118.49 49.27,17.33 107.56,6.86 128.12,15.02 150.32,59.64 225.68,135.05 216.46,161.3 -68.06,193.82 -104.51,638.34 -165.53,931.34" id="path40" style="fill:#0096c6;fill-opacity:1;fill-rule:nonzero;stroke:none"/><path d="m 2720.94,2057.28 c -44.09,-20.75 -44.04,28.71 -77.5,54.69 -30.29,23.53 -90.54,22.26 -60.76,85.45 -37.77,-25.55 -55.62,-37.18 -44.61,-88.31 7.87,-36.53 24.46,-66.78 46.5,-85.27 18.32,-15.38 49.56,-24.24 92,-13.71 42.76,10.6 42.96,45.65 44.37,47.15" id="path42" style="fill:#003977;fill-opacity:1;fill-rule:nonzero;stroke:none"/><path d="M 2920.5,5995.09 1889.69,6136.12 2063.26,7404.81 3094.07,7263.78 2920.5,5995.09" id="path44" style="fill:#dcf5f9;fill-opacity:1;fill-rule:nonzero;stroke:none"/><path d="m 2666.08,6353.85 122.49,147.53 -191.15,-15.23 41.37,-34.16 -150.41,-78.05 c -5.94,3.55 -12.68,6 -19.98,7 -5.24,0.72 -10.34,0.4 -15.31,-0.38 l -48.82,74.55 c 0.75,2.54 1.5,5.09 1.88,7.8 3.96,28.98 -16.3,55.73 -45.32,59.7 -27.11,3.72 -51.94,-13.87 -58.38,-39.79 l -184.25,-92.46 c -12.42,-6.24 -17.43,-21.36 -11.2,-33.78 6.26,-12.44 21.39,-17.4 33.77,-11.2 l 175.07,87.86 c 7.95,-8.17 18.43,-14 30.62,-15.67 7.36,-1.01 14.57,-0.42 21.31,1.45 l 45.24,-69.12 c -2,-4.48 -3.62,-9.19 -4.32,-14.3 -3.97,-28.98 16.3,-55.73 45.34,-59.7 29.02,-3.98 55.73,16.35 59.69,45.33 0.43,3.16 0.46,6.27 0.34,9.35 l 147.9,76.75 4.12,-53.48" id="path46" style="fill:#ea659d;fill-opacity:1;fill-rule:nonzero;stroke:none"/><path d="m 3075.54,7120.93 -1031.81,141.16 19.53,142.72 1031.8,-141.16 -19.52,-142.72" id="path48" style="fill:#dcf5f9;fill-opacity:1;fill-rule:nonzero;stroke:none"/><path d="m 2213.38,7060.32 87.84,-11.91 c 10.94,-1.48 21.02,6.19 22.5,17.14 1.48,10.94 -6.19,21.02 -17.13,22.5 l -87.84,11.9 c -10.95,1.49 -21.02,-6.19 -22.51,-17.13 -1.48,-10.95 6.19,-21.02 17.14,-22.5 z m 175.68,-23.81 87.83,-11.9 c 10.95,-1.48 21.03,6.19 22.51,17.14 1.48,10.94 -6.19,21.02 -17.14,22.5 l -87.83,11.9 c -10.95,1.49 -21.03,-6.19 -22.51,-17.13 -1.48,-10.95 6.19,-21.02 17.14,-22.51 z m 175.67,-23.8 87.84,-11.9 c 10.95,-1.48 21.02,6.19 22.51,17.14 1.48,10.94 -6.19,21.02 -17.14,22.5 l -87.84,11.9 c -10.94,1.48 -21.02,-6.19 -22.5,-17.13 -1.48,-10.95 6.19,-21.02 17.13,-22.51 z m 175.68,-23.8 87.84,-11.9 c 10.95,-1.48 21.02,6.19 22.51,17.14 1.48,10.94 -6.19,21.02 -17.14,22.5 l -87.84,11.9 c -10.94,1.48 -21.02,-6.19 -22.5,-17.13 -1.48,-10.95 6.19,-21.02 17.13,-22.51" id="path50" style="fill:#6df3c7;fill-opacity:1;fill-rule:nonzero;stroke:none"/><g id="g52"><g clip-path="url(#clipPath58)" id="g54"><path d="m 2166.04,6791.28 h 677.25 v 125.988 h -677.25 z" id="path60" style="fill:#8ff4d6;fill-opacity:1;fill-rule:nonzero;stroke:none"/></g></g><path d="m 2796,6607.93 c -0.9,0 -1.8,0.06 -2.71,0.19 l -632.07,85.63 c -10.95,1.49 -18.62,11.56 -17.14,22.51 1.36,10.03 9.94,17.31 19.8,17.31 0.89,0 1.8,-0.06 2.71,-0.18 l 632.07,-85.63 c 10.95,-1.49 18.62,-11.56 17.13,-22.51 -1.36,-10.03 -9.94,-17.32 -19.79,-17.32" id="path62" style="fill:#8ff4d6;fill-opacity:1;fill-rule:nonzero;stroke:none"/><path d="m 4670.46,8103.88 c -2.44,-86.59 78.93,-358.78 80.77,-445.4 0.29,-13.55 46.78,-66.36 46.78,-66.36 l -172.66,-88.2 c 0,0 -88.46,158.62 -92.68,158.66 -4.22,0.04 -70.23,64.13 -80.48,142.66 -6.78,51.85 8.33,53.38 10.8,105.61 1.44,30.57 -79.81,86.13 -82.03,127.74 -0.23,4.25 13,9.95 -5.19,49.75 -4.9,10.74 6.83,48.26 6.83,48.26 l 129.82,-57.5 -27.72,81.3 c 0,0 -58.84,20.28 -63.78,40.88 -5.7,23.71 2.9,35.32 2.9,35.32 l 86.52,-28.65 98.61,-82.19 c 0,0 -47.92,107.08 -39.75,140.15 3.63,14.69 21.56,34.79 21.56,34.79 0,0 80.91,-153.51 79.7,-196.82" id="path64" style="fill:#ffd0ce;fill-opacity:1;fill-rule:nonzero;stroke:none"/><path d="m 4084.55,7671.73 c 51.87,154.62 -51.65,303.38 -179.95,342.47 -122.69,37.38 -296.52,-88.45 -309.04,-251.07 -7.17,-93.11 82.84,-187.76 185.71,-220.1 115.89,-36.43 238.58,-64.15 303.28,128.7" id="path66" style="fill:#00649f;fill-opacity:1;fill-rule:nonzero;stroke:none"/><path d="m 3483.21,7555.23 c -77.86,-115.63 -85.81,-300.97 -5.86,-405.01 20.73,-26.98 406.05,-70.64 431.85,-70.79 242.15,-1.4 233.78,325.55 195.51,417.32 -93.62,224.5 -455.19,305.48 -621.5,58.48" id="path68" style="fill:#00649f;fill-opacity:1;fill-rule:nonzero;stroke:none"/><path d="m 3723.05,6231.4 c 125.09,-0.77 404.96,202.11 449.57,275.61 0,0 -120.12,61.68 -152.49,70.64 -212.02,58.7 -300.83,79.58 -548.49,-27.18 -29.32,-12.65 -109.03,-66.51 -109.03,-66.51 2.42,-9.51 250.41,-251.87 360.44,-252.56" id="path70" style="fill:#ffc6c3;fill-opacity:1;fill-rule:nonzero;stroke:none"/><path d="m 3605.43,6856.77 294.78,-3.36 c 4.32,-0.05 7.79,-3.59 7.73,-7.91 l -3.59,-314.83 c -0.55,-47.92 -39.84,-86.32 -87.75,-85.77 l -136.91,1.57 c -47.92,0.54 -86.31,39.83 -85.77,87.74 l 3.6,314.83 c 0.05,4.32 3.59,7.78 7.91,7.73" id="path72" style="fill:#ffc6c3;fill-opacity:1;fill-rule:nonzero;stroke:none"/><path d="m 4025.73,7174.26 c 17.74,32.48 58.21,44.57 90.38,27 32.16,-17.57 43.86,-58.15 26.11,-90.64 -17.74,-32.48 -58.2,-44.57 -90.37,-27 -32.17,17.57 -43.86,58.15 -26.12,90.64" id="path74" style="fill:#ffc6c3;fill-opacity:1;fill-rule:nonzero;stroke:none"/><path d="m 3505.31,7194.45 c -2.84,-36.91 -34.78,-64.55 -71.32,-61.73 -36.55,2.81 -63.87,35.01 -61.03,71.92 2.84,36.9 34.77,64.54 71.32,61.72 36.55,-2.81 63.87,-35.01 61.03,-71.91" id="path76" style="fill:#ffc6c3;fill-opacity:1;fill-rule:nonzero;stroke:none"/><path d="m 4069.31,7147.46 c -11.39,-224.91 -141.66,-341.11 -286.73,-351.31 -8.7,-0.61 -21.38,12.99 -35.88,14.11 -17.89,1.37 -31.25,-11.55 -42,-9.66 -139.09,24.46 -275.37,180.79 -245.82,393.87 31.7,228.61 168.73,406.14 337.3,393.16 168.56,-12.97 284.81,-209.66 273.13,-440.17" id="path78" style="fill:#ffd0ce;fill-opacity:1;fill-rule:nonzero;stroke:none"/><path d="m 3997.14,7600.05 c -67.39,60.14 -247.74,119.28 -424.11,-8.23 -180.49,-130.49 -142.36,-376.39 -106.8,-368.82 11.06,2.35 66.37,44.43 88.39,97.02 5.36,12.81 22.83,62.2 22.83,62.2 L 3542.5,7261.4 c 0,0 43.7,24.8 68.33,79.39 14.91,33.03 31.94,110.93 31.94,110.93 0,0 281.82,-292.53 428.12,-272.08 14.12,1.97 13.2,16.5 29.94,79.12 43.06,161.11 -48.56,292.1 -103.69,341.29" id="path80" style="fill:#00649f;fill-opacity:1;fill-rule:nonzero;stroke:none"/><path d="m 3629.38,7686.67 c -14.96,41.61 -31.24,85.49 -25.91,130.41 9.16,77.28 71.73,90.04 123.86,129.67 7.89,5.99 3.09,19.47 -7.41,16.48 -107.86,-30.69 -192.89,-191.46 -99.3,-281.94 3.69,-3.57 10.59,0.29 8.76,5.38" id="path82" style="fill:#00649f;fill-opacity:1;fill-rule:nonzero;stroke:none"/><path d="m 3633.32,7665.96 c -27.38,39.88 -55.83,86.41 -57.99,136.45 -3.94,91.71 76.73,124.76 147.62,153.99 5.1,2.1 2.99,9.41 -2.48,8.25 -74.73,-15.93 -144.12,-64.42 -155.52,-144.37 -7.15,-50.17 13.7,-136.08 62.63,-160.35 3.64,-1.8 8.31,2.29 5.74,6.03" id="path84" style="fill:#00649f;fill-opacity:1;fill-rule:nonzero;stroke:none"/><path d="m 3639.06,7470 c 21.52,-157.24 214.77,-263.17 360.11,-280.76 8.62,-1.04 15.3,10.79 6.07,15.42 -143,71.67 -297.47,97.98 -360.48,266.25 -1.07,2.85 -6.16,2.54 -5.7,-0.91" id="path86" style="fill:#00649f;fill-opacity:1;fill-rule:nonzero;stroke:none"/><path d="m 3596.24,6553.31 168.46,-83.53 217.87,99.15 143.98,-1225.62 -577.39,-87.31 47.08,1297.31" id="path88" style="fill:#dcf5f9;fill-opacity:1;fill-rule:nonzero;stroke:none"/><path d="m 3916.55,5322.96 337.7,32.73 c 0,0 24.97,249.46 58.35,310.3 50.06,91.19 78.56,202.38 72.89,376.86 -3.7,113.79 -82.45,593.74 -82.45,593.74 l -275.95,-55.26 -126.25,-148.8 c 0,0 204.14,-437.11 113.65,-721.39 -41.48,-130.32 -97.94,-388.18 -97.94,-388.18" id="path90" style="fill:#00add6;fill-opacity:1;fill-rule:nonzero;stroke:none"/><path d="m 3764.7,6469.78 185.09,145.45 c 0,0 115.91,-14.3 95.28,-70.59 -21.03,-57.41 -138.19,-220.53 -195.58,-203.88 -38.98,11.31 -21.66,42.94 -84.79,129.02" id="path92" style="fill:#dcf5f9;fill-opacity:1;fill-rule:nonzero;stroke:none"/><path d="m 4775.19,4501.57 c 76.87,66.77 -105.22,361.71 -152.16,428.95 -124.37,178.15 -390.62,430.01 -390.62,430.01 l -865.72,-72.86 c 0,0 -238.38,-150.73 -360.52,-494.97 -13.75,-38.76 -88.14,-223.58 -100.84,-262.19 0,0 1026.13,-761.73 1869.86,-28.94" id="path94" style="fill:#0096c6;fill-opacity:1;fill-rule:nonzero;stroke:none"/><path d="m 3801.34,5314.88 -434.03,-0.02 c 11.4,0.17 -35.41,235.07 -84.78,296.84 -179.33,224.39 -67.4,807.12 15.3,878.29 52.34,45.05 219.84,96.93 219.84,96.93 l 172.85,-195.12 c 0,0 -50.46,-560.04 11.63,-718.56 51.73,-132.09 99.19,-358.36 99.19,-358.36" id="path96" style="fill:#00add6;fill-opacity:1;fill-rule:nonzero;stroke:none"/><path d="m 3764.7,6469.77 -238.84,144.07 c 0,0 -86.44,-34.37 -65.48,-86.1 21.39,-52.75 182.95,-200.32 233.77,-182.27 34.52,12.27 17.59,41.09 70.55,124.3" id="path98" style="fill:#dcf5f9;fill-opacity:1;fill-rule:nonzero;stroke:none"/><path d="m 3348.02,5274.58 c 0,0 265.88,-7.55 387.95,-8.61 194.6,-1.68 547.22,45.32 547.22,45.32 L 4261,5414.92 c 0,0 -255.35,-49.09 -432.95,-49.09 -127.38,0 -467.05,14.26 -467.05,14.26 l -12.98,-105.51" id="path100" style="fill:#ea659d;fill-opacity:1;fill-rule:nonzero;stroke:none"/><path d="m 2347.07,6252.63 c -30.12,-8.57 -61.27,-24.79 -91.24,-48.89 -60.88,-48.96 -81.95,-90.87 -70.96,-124.66 51.34,-157.9 149.45,-181.35 197.59,-253.37 27.47,-41.09 114.47,-180.99 114.47,-180.99 0,0 138.55,125.46 142.48,127.01 3.93,1.55 -27.66,125.42 -42.39,160.74 -20.13,48.26 -86.78,66.18 -107.77,114.08 -12.29,28.03 54.6,-28.92 74.23,-26.92 7.6,0.78 20.09,19.44 13.54,27.36 -2.71,3.29 -13.31,18.14 -13.31,18.14 0,0 6.16,27.23 2.69,39.35 -3.25,11.36 -77.58,52.1 -77.58,52.1 l -112.11,11.06 29.61,15.87 22.38,-21 60.12,-5.93 c 0,0 -29.88,79.03 -60.21,88.21 -18.64,5.64 -51.5,16.39 -81.54,7.84" id="path102" style="fill:#ffd0ce;fill-opacity:1;fill-rule:nonzero;stroke:none"/><path d="m 2450.76,5661.3 -57.81,79.56 228.9,132.33 56.86,-66.55 -227.95,-145.34" id="path104" style="fill:#aeddf1;fill-opacity:1;fill-rule:nonzero;stroke:none"/><path d="m 4664.96,6880.69 -129.06,738.58 245.5,85.35 25.39,-106.64 -141.83,-717.29" id="path106" style="fill:#aeddf1;fill-opacity:1;fill-rule:nonzero;stroke:none"/><path d="m 3055.15,6311.34 c -111.62,-154.82 -208.04,-623 -208.04,-623 l -189.46,181.53 -246.28,-192.9 c 0,0 161.64,-272.38 278.76,-352.93 221.14,-152.09 335,-113.27 383.47,-96.8 40.48,13.75 57.55,180.36 178.97,429.93 30.93,63.58 61.69,844.4 61.69,844.4 0,0 -171.95,-69.35 -259.11,-190.23" id="path108" style="fill:#00add6;fill-opacity:1;fill-rule:nonzero;stroke:none"/><path d="m 4159.06,6607.76 448.98,308.83 -67.77,662.28 275.75,87.43 c 0,0 56.93,-139.55 78.27,-215.96 136.88,-490.12 105,-579.62 65,-705 -21.49,-67.36 -575.54,-674.62 -575.54,-674.62 l -224.69,537.04" id="path110" style="fill:#00add6;fill-opacity:1;fill-rule:nonzero;stroke:none"/><path d="m 8587.54,1764.55 c -122.62,-128.2 -305.91,-151.88 -409.4,-52.89 l -2599.92,2470.25 444,464.24 2599.92,-2470.25 c 103.5,-98.98 88.01,-283.15 -34.6,-411.35" id="path112" style="fill:#58dbdb;fill-opacity:1;fill-rule:nonzero;stroke:none"/><path d="m 5925.71,4634.79 -348.36,-364.23 -709.2,678.29 348.35,364.22 709.21,-678.28" id="path114" style="fill:#dcf5f9;fill-opacity:1;fill-rule:nonzero;stroke:none"/><path d="m 5420.2,4220.5 552,577.17 c 58.03,60.66 154.25,62.81 214.91,4.78 60.67,-58.02 62.81,-154.23 4.79,-214.9 l -552,-577.17 c -58.03,-60.67 -154.24,-62.81 -214.91,-4.79 -60.67,58.03 -62.81,154.24 -4.79,214.91" id="path116" style="fill:#ea659d;fill-opacity:1;fill-rule:nonzero;stroke:none"/><path d="M 6296.6,4018.08 8289.18,2124.11 c 16.01,-15.22 41.33,-14.58 56.55,1.43 15.22,16.01 14.58,41.33 -1.43,56.55 L 6351.72,4076.07 c -16.01,15.21 -41.33,14.57 -56.55,-1.44 -15.22,-16.01 -14.58,-41.33 1.43,-56.55" id="path118" style="fill:#b4f1f4;fill-opacity:1;fill-rule:nonzero;stroke:none"/><path d="m 4979.66,5119.69 c -707.68,-707.91 -1855.25,-708.1 -2563.16,-0.41 -707.91,707.68 -708.1,1855.25 -0.43,2563.15 707.7,707.94 1855.25,708.11 2563.16,0.42 707.92,-707.68 708.13,-1855.23 0.43,-2563.16 m 472.31,3036.07 c -969.08,968.76 -2540.02,968.52 -3508.79,-0.58 -968.77,-969.08 -968.508,-2540.03 0.57,-3508.8 969.09,-968.77 2540.04,-968.51 3508.81,0.57 968.77,969.09 968.5,2540.04 -0.59,3508.81" id="path120" style="fill:#8ceae7;fill-opacity:1;fill-rule:nonzero;stroke:none"/><path d="m 3697.87,4415.74 c -507.96,0.02 -1015.99,193.77 -1403.62,581.26 -775.43,775.2 -775.64,2032.23 -0.46,2807.66 387.7,387.83 895.87,581.73 1404.08,581.73 507.97,0 1015.97,-193.75 1403.6,-581.25 775.44,-775.19 775.66,-2032.23 0.46,-2807.69 -387.69,-387.81 -895.84,-581.72 -1404.06,-581.71 M 1885.44,6400.77 c 0.08,-463.84 177.1,-927.65 531.06,-1281.49 353.91,-353.8 817.59,-530.64 1281.37,-530.64 463.9,0 927.91,177.05 1281.79,531.05 353.85,353.97 530.72,817.84 530.64,1281.68 -0.08,463.84 -177.11,927.64 -531.07,1281.48 -86.15,86.13 -178.83,161.79 -276.42,226.95 -103.13,68.85 -211.71,125.98 -323.97,171.42 -217.9,88.2 -449.4,132.28 -680.98,132.28 -463.89,0 -927.9,-177.06 -1281.79,-531.07 -91.09,-91.12 -170.44,-189.5 -238.07,-293.32 -28.61,-43.9 -55.14,-88.81 -79.55,-134.51 -29.22,-54.72 -55.44,-110.62 -78.65,-167.47 -89.61,-219.44 -134.4,-452.91 -134.36,-686.36" id="path122" style="fill:#64dadb;fill-opacity:1;fill-rule:nonzero;stroke:none"/><path d="m 5663.45,1260.34 c -5.43,36.18 -9.03,535.82 -31.95,802.82 -24.57,286.14 80.53,917.09 25.97,1148.5 -54.09,229.5 -327.21,572.1 -200.24,685.09 106.64,94.91 339.1,23.31 438.76,-78.9 312.01,-319.96 382.86,-956.26 322.06,-1279.5 -60.68,-322.63 -554.6,-1278.01 -554.6,-1278.01" id="path124" style="fill:#ffd0ce;fill-opacity:1;fill-rule:nonzero;stroke:none"/><path d="m 5323.47,427.012 c 0,0 121.18,326.218 290.4,904.218 69.79,238.4 534.41,1974.71 534.41,1974.71 0,0 207.9,563.86 339.27,717.02 174.58,203.54 510.88,312.8 646.7,138.91 79.15,-101.35 130.79,-300.25 130.79,-300.25 0,0 359.03,134.84 468.46,-47.46 34.2,-56.98 108.59,-242.6 108.59,-242.6 0,0 96.98,-10.76 129.47,-11.98 105.56,-4 206.13,-62.87 234.77,-164.56 18.81,-66.75 59.91,-270.85 59.91,-270.85 0,0 274,-28.97 257.89,-421.15 -7.11,-173.08 -43.98,-376.45 -56.92,-445.37 C 8413.27,1970.45 8011.54,1309.6 7583.52,786.359 7414.87,580.191 7313.45,289.422 7313.45,289.422 l -1989.98,137.59" id="path126" style="fill:#ffd0ce;fill-opacity:1;fill-rule:nonzero;stroke:none"/><path d="m 5216.79,614.242 186.66,679.428 2132.73,-698.678 -80.02,-305.57 -2239.37,324.82" id="path128" style="fill:#93e7f3;fill-opacity:1;fill-rule:nonzero;stroke:none"/><path d="m 4860.12,223.641 279.99,781.189 2515.58,-590.49 0.72,-190.699 H 4860.12" id="path130" style="fill:#0096c6;fill-opacity:1;fill-rule:nonzero;stroke:none"/><path d="m 1777.98,3738.63 h 33.73 c 2.53,16.94 9.17,40.92 26.46,59.09 l 0.78,0.8 c 6.31,6.33 26.66,29.26 23.22,58.6 -4.49,38.32 -32.71,64.06 -70.23,64.06 -37.69,0 -68.36,-30.08 -68.36,-67.07 0,-19.65 7.98,-38.98 20.85,-50.44 21.14,-18.83 29.92,-46.53 33.55,-65.04 z m 52.21,-40 h -69.69 c -10.66,0 -19.44,8.36 -19.98,19 -0.59,10.49 -5.83,41.14 -22.7,56.17 -21.45,19.12 -34.24,49.14 -34.24,80.31 0,59.04 48.61,107.07 108.36,107.07 57.88,0 103.1,-40.88 109.96,-99.4 5.51,-47.09 -25,-81.84 -34.59,-91.46 -14.4,-15.13 -17.23,-42.2 -17.12,-51.37 0.07,-5.34 -2.01,-10.53 -5.77,-14.33 -3.76,-3.81 -8.88,-5.99 -14.23,-5.99" id="path132" style="fill:#dcf5f9;fill-opacity:1;fill-rule:nonzero;stroke:none"/><path d="m 1808.59,3647.02 h -26.49 c -11.04,0 -20,8.96 -20,20 0,11.05 8.96,20 20,20 h 26.49 c 11.04,0 20,-8.95 20,-20 0,-11.04 -8.96,-20 -20,-20" id="path134" style="fill:#dcf5f9;fill-opacity:1;fill-rule:nonzero;stroke:none"/><path d="m 1795.93,3760.36 c -11.05,0 -20,8.95 -20,20 v 38.33 c 0,11.04 8.95,20 20,20 11.05,0 20,-8.96 20,-20 v -38.33 c 0,-11.05 -8.95,-20 -20,-20" id="path136" style="fill:#dcf5f9;fill-opacity:1;fill-rule:nonzero;stroke:none"/><path d="m 1794.83,3884.56 c -4.83,0 -8.76,-4.01 -8.76,-8.93 0,-4.93 3.93,-8.93 8.76,-8.93 4.84,0 8.77,4 8.77,8.93 0,4.92 -3.93,8.93 -8.77,8.93 z m 0,-40 c -17.23,0 -31.23,13.93 -31.23,31.07 0,17.13 14,31.07 31.23,31.07 17.22,0 31.24,-13.94 31.24,-31.07 0,-17.14 -14.02,-31.07 -31.24,-31.07" id="path138" style="fill:#dcf5f9;fill-opacity:1;fill-rule:nonzero;stroke:none"/><path d="m 1700.13,3944.35 c -5.07,0 -10.14,1.91 -14.04,5.75 l -27.65,27.25 c -7.86,7.75 -7.95,20.42 -0.2,28.28 7.75,7.87 20.41,7.97 28.29,0.21 l 27.64,-27.25 c 7.87,-7.75 7.96,-20.41 0.2,-28.28 -3.91,-3.97 -9.07,-5.96 -14.24,-5.96" id="path140" style="fill:#dcf5f9;fill-opacity:1;fill-rule:nonzero;stroke:none"/><path d="m 1890.82,3936.08 c -5.17,0 -10.33,1.99 -14.25,5.96 -7.75,7.86 -7.66,20.53 0.2,28.28 l 27.65,27.25 c 7.87,7.75 20.53,7.66 28.28,-0.21 7.76,-7.87 7.66,-20.53 -0.2,-28.28 l -27.64,-27.25 c -3.9,-3.84 -8.97,-5.75 -14.04,-5.75" id="path142" style="fill:#dcf5f9;fill-opacity:1;fill-rule:nonzero;stroke:none"/><path d="m 1936.47,3871.11 c -10.13,0 -18.82,7.67 -19.87,17.96 -1.12,11 6.88,20.81 17.87,21.93 l 38.61,3.94 c 10.97,1.08 20.8,-6.88 21.93,-17.86 1.12,-10.99 -6.88,-20.81 -17.87,-21.93 l -38.61,-3.94 -2.06,-0.1" id="path144" style="fill:#dcf5f9;fill-opacity:1;fill-rule:nonzero;stroke:none"/><path d="m 1652.63,3871.11 -2.05,0.1 -38.61,3.94 c -10.99,1.12 -18.99,10.94 -17.87,21.93 1.12,10.98 10.94,18.94 21.93,17.86 l 38.61,-3.94 c 10.99,-1.12 18.99,-10.93 17.87,-21.93 -1.05,-10.29 -9.74,-17.96 -19.88,-17.96" id="path146" style="fill:#dcf5f9;fill-opacity:1;fill-rule:nonzero;stroke:none"/><path d="m 1795.93,3976.39 c -11.05,0 -20,8.95 -20,20 v 40.15 c 0,11.05 8.95,20 20,20 11.05,0 20,-8.95 20,-20 v -40.15 c 0,-11.05 -8.95,-20 -20,-20" id="path148" style="fill:#dcf5f9;fill-opacity:1;fill-rule:nonzero;stroke:none"/><path d="m 7235.83,4764.66 v -152.99 l 253.86,0.08 c 3.33,0 6.14,2.81 6.14,6.13 0,3.33 -2.81,6.14 -6.14,6.14 -11.04,0 -20,8.95 -20,20 0,11.04 8.96,20 20,20 h 14.95 c 5.48,0 10.11,4.63 10.11,10.1 0,5.48 -4.63,10.11 -10.11,10.11 -11.04,0 -20,8.96 -20,20 0,11.05 8.96,20 20,20 h 4.41 c 6.18,0 11.4,5.22 11.4,11.4 0,6.18 -5.22,11.4 -11.4,11.4 h -4.41 c -11.04,0 -20,8.96 -20,20 0,11.05 8.96,20 20,20 5.48,0 10.11,4.63 10.11,10.11 0,5.48 -4.63,10.11 -10.11,10.11 l -109.01,-0.02 c -7.11,0 -13.69,3.77 -17.27,9.92 -3.59,6.14 -3.64,13.72 -0.14,19.92 0.5,0.96 15.22,29.69 1.11,80.71 -1.84,6.66 -4.59,10.98 -8.17,12.84 0.57,-14.26 -0.74,-33.07 -8.28,-50.92 -8.08,-19.13 -24.98,-37.11 -38.1,-47.57 -29.04,-23.16 -33.73,-49.13 -33.92,-50.23 -1.62,-9.53 -9.88,-16.79 -19.55,-16.88 z m -20,-192.99 c -5.3,0 -10.39,2.1 -14.14,5.85 -3.75,3.75 -5.86,8.84 -5.86,14.15 v 192.79 c 0,10.96 8.83,19.88 19.8,20 l 40.52,0.41 c 5.79,15.19 18.12,38.13 43.7,58.53 9.55,7.61 21.34,20.42 26.18,31.87 9.45,22.34 3.38,49.45 3.32,49.73 -2.24,9.72 3.02,19.69 12.35,23.24 2.55,0.98 25.54,9.19 47.42,-1.88 9.69,-4.9 22.55,-15.45 28.77,-37.92 9.54,-34.5 8.41,-62.13 4.84,-81.21 l 81.91,0.02 c 27.63,0 50.11,-22.48 50.11,-50.11 0,-9.86 -2.86,-19.06 -7.8,-26.82 8.38,-9.15 13.5,-21.33 13.5,-34.69 0,-13.35 -5.12,-25.53 -13.5,-34.69 4.94,-7.75 7.8,-16.96 7.8,-26.82 0,-16.99 -8.5,-32.03 -21.47,-41.1 1.65,-4.74 2.55,-9.83 2.55,-15.14 0,-25.44 -20.7,-46.13 -46.14,-46.13 l -273.85,-0.08 h -0.01" id="path150" style="fill:#dcf5f9;fill-opacity:1;fill-rule:nonzero;stroke:none"/></g></g></svg>