<?xml version="1.0" ?><svg width="1333.3333px" height="1333.3333px" viewBox="0 0 1333.3333 1333.3333" id="svg2" version="1.1" xml:space="preserve" xmlns="http://www.w3.org/2000/svg" xmlns:inkscape="http://www.inkscape.org/namespaces/inkscape" xmlns:sodipodi="http://sodipodi.sourceforge.net/DTD/sodipodi-0.dtd" xmlns:svg="http://www.w3.org/2000/svg"><defs id="defs6"><clipPath clipPathUnits="userSpaceOnUse" id="clipPath24"><path d="m 6046.57,705.332 c 9.69,57.77 9.34,90.438 7.03,120.738 -32.13,421.15 -189.22,1482.96 -189.22,1482.96 l -1971.3,245.22 c 0,0 -399.31,-965.77 -496.18,-1317.22 -38.95,-141.27 -85.47,-253.331 -79.59,-531.698 z" id="path22"/></clipPath></defs><g id="g8" transform="matrix(1.3333333,0,0,-1.3333333,0,1333.3333)"><g id="g10" transform="scale(0.1)"><path d="M 4980,875.992 C 2774.18,875.992 985.992,2664.17 985.992,4870 985.992,7075.83 2774.18,8864.01 4980,8864.01 7185.83,8864.01 8974.01,7075.83 8974.01,4870 8974.01,2664.17 7185.83,875.992 4980,875.992 m 0,7043.218 c -1684.03,0 -3049.2,-1365.18 -3049.2,-3049.21 0,-1684.03 1365.17,-3049.21 3049.2,-3049.21 1684.03,0 3049.2,1365.18 3049.2,3049.21 0,1684.03 -1365.17,3049.21 -3049.2,3049.21" id="path12" style="fill:#eefafc;fill-opacity:1;fill-rule:nonzero;stroke:none"/><path d="m 4980,1820.79 c -1684.03,0 -3049.2,1365.18 -3049.2,3049.21 0,1684.03 1365.17,3049.21 3049.2,3049.21 1684.03,0 3049.2,-1365.18 3049.2,-3049.21 0,-1684.03 -1365.17,-3049.21 -3049.2,-3049.21" id="path14" style="fill:#e3f7fa;fill-opacity:1;fill-rule:nonzero;stroke:none"/><path d="m 4298.09,2445.43 1132.01,-275.91 27.38,2619.07 H 4298.09 V 2445.43" id="path16" style="fill:#00d89e;fill-opacity:1;fill-rule:nonzero;stroke:none"/><g id="g18"><g clip-path="url(#clipPath24)" id="g20"><path d="m 6054.96,705.332 h 1.3008 v 1848.92 h -1.3008 z" id="path26" style="fill:#00add6;fill-opacity:1;fill-rule:nonzero;stroke:none"/><path d="m 6044.27,705.332 h 10.6953 v 1848.92 H 6044.27 Z" id="path28" style="fill:#00add6;fill-opacity:1;fill-rule:nonzero;stroke:none"/><path d="m 6033.57,705.332 h 10.6953 v 1848.92 H 6033.57 Z" id="path30" style="fill:#00add6;fill-opacity:1;fill-rule:nonzero;stroke:none"/><path d="m 6022.87,705.332 h 10.6992 v 1848.92 H 6022.87 Z" id="path32" style="fill:#00add6;fill-opacity:1;fill-rule:nonzero;stroke:none"/><path d="m 6012.18,705.332 h 10.6953 v 1848.92 H 6012.18 Z" id="path34" style="fill:#00add6;fill-opacity:1;fill-rule:nonzero;stroke:none"/><path d="m 6001.48,705.332 h 10.6953 v 1848.92 H 6001.48 Z" id="path36" style="fill:#00add6;fill-opacity:1;fill-rule:nonzero;stroke:none"/><path d="m 5990.79,705.332 h 10.6953 v 1848.92 H 5990.79 Z" id="path38" style="fill:#00add6;fill-opacity:1;fill-rule:nonzero;stroke:none"/><path d="m 5980.09,705.332 h 10.6953 v 1848.92 H 5980.09 Z" id="path40" style="fill:#00add6;fill-opacity:1;fill-rule:nonzero;stroke:none"/><path d="m 5969.39,705.332 h 10.6953 v 1848.92 H 5969.39 Z" id="path42" style="fill:#00add6;fill-opacity:1;fill-rule:nonzero;stroke:none"/><path d="m 5958.7,705.332 h 10.6992 v 1848.92 H 5958.7 Z" id="path44" style="fill:#00add6;fill-opacity:1;fill-rule:nonzero;stroke:none"/><path d="m 5948,705.332 h 10.6953 v 1848.92 H 5948 Z" id="path46" style="fill:#00add6;fill-opacity:1;fill-rule:nonzero;stroke:none"/><path d="m 5937.3,705.332 h 10.6953 v 1848.92 H 5937.3 Z" id="path48" style="fill:#00add6;fill-opacity:1;fill-rule:nonzero;stroke:none"/><path d="m 5926.61,705.332 h 10.6953 v 1848.92 H 5926.61 Z" id="path50" style="fill:#00add6;fill-opacity:1;fill-rule:nonzero;stroke:none"/><path d="m 5915.91,705.332 h 10.6953 v 1848.92 H 5915.91 Z" id="path52" style="fill:#00add6;fill-opacity:1;fill-rule:nonzero;stroke:none"/><path d="m 5905.22,705.332 h 10.6953 v 1848.92 H 5905.22 Z" id="path54" style="fill:#00add6;fill-opacity:1;fill-rule:nonzero;stroke:none"/><path d="m 5894.52,705.332 h 10.6953 v 1848.92 H 5894.52 Z" id="path56" style="fill:#00add6;fill-opacity:1;fill-rule:nonzero;stroke:none"/><path d="m 5883.82,705.332 h 10.6992 v 1848.92 H 5883.82 Z" id="path58" style="fill:#00add6;fill-opacity:1;fill-rule:nonzero;stroke:none"/><path d="m 5873.13,705.332 h 10.6953 v 1848.92 H 5873.13 Z" id="path60" style="fill:#00add6;fill-opacity:1;fill-rule:nonzero;stroke:none"/><path d="m 5862.43,705.332 h 10.6953 v 1848.92 H 5862.43 Z" id="path62" style="fill:#00add6;fill-opacity:1;fill-rule:nonzero;stroke:none"/><path d="m 5851.74,705.332 h 10.6953 v 1848.92 H 5851.74 Z" id="path64" style="fill:#00add6;fill-opacity:1;fill-rule:nonzero;stroke:none"/><path d="m 5841.04,705.332 h 10.6953 v 1848.92 H 5841.04 Z" id="path66" style="fill:#00add6;fill-opacity:1;fill-rule:nonzero;stroke:none"/><path d="m 5830.35,705.332 h 10.6953 v 1848.92 H 5830.35 Z" id="path68" style="fill:#00add6;fill-opacity:1;fill-rule:nonzero;stroke:none"/><path d="m 5819.65,705.332 h 10.6953 v 1848.92 H 5819.65 Z" id="path70" style="fill:#00add6;fill-opacity:1;fill-rule:nonzero;stroke:none"/><path d="m 5808.95,705.332 h 10.6992 v 1848.92 H 5808.95 Z" id="path72" style="fill:#00add6;fill-opacity:1;fill-rule:nonzero;stroke:none"/><path d="m 5798.26,705.332 h 10.6953 v 1848.92 H 5798.26 Z" id="path74" style="fill:#00add6;fill-opacity:1;fill-rule:nonzero;stroke:none"/><path d="m 5787.56,705.332 h 10.6953 v 1848.92 H 5787.56 Z" id="path76" style="fill:#00add6;fill-opacity:1;fill-rule:nonzero;stroke:none"/><path d="m 5776.87,705.332 h 10.6953 v 1848.92 H 5776.87 Z" id="path78" style="fill:#00add6;fill-opacity:1;fill-rule:nonzero;stroke:none"/><path d="m 5766.17,705.332 h 10.6953 v 1848.92 H 5766.17 Z" id="path80" style="fill:#00add6;fill-opacity:1;fill-rule:nonzero;stroke:none"/><path d="m 5755.48,705.332 h 10.6953 v 1848.92 H 5755.48 Z" id="path82" style="fill:#00add6;fill-opacity:1;fill-rule:nonzero;stroke:none"/><path d="m 5744.78,705.332 h 10.6992 v 1848.92 H 5744.78 Z" id="path84" style="fill:#00add6;fill-opacity:1;fill-rule:nonzero;stroke:none"/><path d="m 5734.08,705.332 h 10.6953 v 1848.92 H 5734.08 Z" id="path86" style="fill:#00add6;fill-opacity:1;fill-rule:nonzero;stroke:none"/><path d="m 5723.39,705.332 h 10.6953 v 1848.92 H 5723.39 Z" id="path88" style="fill:#00add6;fill-opacity:1;fill-rule:nonzero;stroke:none"/><path d="m 5712.69,705.332 h 10.6953 v 1848.92 H 5712.69 Z" id="path90" style="fill:#00add6;fill-opacity:1;fill-rule:nonzero;stroke:none"/><path d="m 5702,705.332 h 10.6953 v 1848.92 H 5702 Z" id="path92" style="fill:#00add6;fill-opacity:1;fill-rule:nonzero;stroke:none"/><path d="m 5691.3,705.332 h 10.6953 v 1848.92 H 5691.3 Z" id="path94" style="fill:#00add6;fill-opacity:1;fill-rule:nonzero;stroke:none"/><path d="m 5680.61,705.332 h 10.6953 v 1848.92 H 5680.61 Z" id="path96" style="fill:#00add6;fill-opacity:1;fill-rule:nonzero;stroke:none"/><path d="m 5669.91,705.332 h 10.6992 v 1848.92 H 5669.91 Z" id="path98" style="fill:#00add6;fill-opacity:1;fill-rule:nonzero;stroke:none"/><path d="m 5659.21,705.332 h 10.6953 v 1848.92 H 5659.21 Z" id="path100" style="fill:#00add6;fill-opacity:1;fill-rule:nonzero;stroke:none"/><path d="m 5648.52,705.332 h 10.6953 v 1848.92 H 5648.52 Z" id="path102" style="fill:#00add6;fill-opacity:1;fill-rule:nonzero;stroke:none"/><path d="m 5637.82,705.332 h 10.6953 v 1848.92 H 5637.82 Z" id="path104" style="fill:#00add6;fill-opacity:1;fill-rule:nonzero;stroke:none"/><path d="m 5627.13,705.332 h 10.6953 v 1848.92 H 5627.13 Z" id="path106" style="fill:#00add6;fill-opacity:1;fill-rule:nonzero;stroke:none"/><path d="m 5616.43,705.332 h 10.6953 v 1848.92 H 5616.43 Z" id="path108" style="fill:#00add6;fill-opacity:1;fill-rule:nonzero;stroke:none"/><path d="m 5605.73,705.332 h 10.6953 v 1848.92 H 5605.73 Z" id="path110" style="fill:#00add6;fill-opacity:1;fill-rule:nonzero;stroke:none"/><path d="m 5595.04,705.332 h 10.6992 v 1848.92 H 5595.04 Z" id="path112" style="fill:#00add6;fill-opacity:1;fill-rule:nonzero;stroke:none"/><path d="m 5584.34,705.332 h 10.6953 v 1848.92 H 5584.34 Z" id="path114" style="fill:#00add6;fill-opacity:1;fill-rule:nonzero;stroke:none"/><path d="m 5573.64,705.332 h 10.6953 v 1848.92 H 5573.64 Z" id="path116" style="fill:#00add6;fill-opacity:1;fill-rule:nonzero;stroke:none"/><path d="m 5562.95,705.332 h 10.6953 v 1848.92 H 5562.95 Z" id="path118" style="fill:#00add6;fill-opacity:1;fill-rule:nonzero;stroke:none"/><path d="m 5552.25,705.332 h 10.6953 v 1848.92 H 5552.25 Z" id="path120" style="fill:#00add6;fill-opacity:1;fill-rule:nonzero;stroke:none"/><path d="m 5541.56,705.332 h 10.6953 v 1848.92 H 5541.56 Z" id="path122" style="fill:#00add6;fill-opacity:1;fill-rule:nonzero;stroke:none"/><path d="m 5530.86,705.332 h 10.6992 v 1848.92 H 5530.86 Z" id="path124" style="fill:#00add6;fill-opacity:1;fill-rule:nonzero;stroke:none"/><path d="m 5520.16,705.332 h 10.6953 v 1848.92 H 5520.16 Z" id="path126" style="fill:#00add6;fill-opacity:1;fill-rule:nonzero;stroke:none"/><path d="m 5509.47,705.332 h 10.6953 v 1848.92 H 5509.47 Z" id="path128" style="fill:#00add6;fill-opacity:1;fill-rule:nonzero;stroke:none"/><path d="m 5498.77,705.332 h 10.6953 v 1848.92 H 5498.77 Z" id="path130" style="fill:#00add6;fill-opacity:1;fill-rule:nonzero;stroke:none"/><path d="m 5488.08,705.332 h 10.6953 v 1848.92 H 5488.08 Z" id="path132" style="fill:#00add6;fill-opacity:1;fill-rule:nonzero;stroke:none"/><path d="m 5477.38,705.332 h 10.6953 v 1848.92 H 5477.38 Z" id="path134" style="fill:#00add6;fill-opacity:1;fill-rule:nonzero;stroke:none"/><path d="m 5466.69,705.332 h 10.6953 v 1848.92 H 5466.69 Z" id="path136" style="fill:#00add6;fill-opacity:1;fill-rule:nonzero;stroke:none"/><path d="m 5455.99,705.332 h 10.6992 v 1848.92 H 5455.99 Z" id="path138" style="fill:#00add6;fill-opacity:1;fill-rule:nonzero;stroke:none"/><path d="m 5445.29,705.332 h 10.6953 v 1848.92 H 5445.29 Z" id="path140" style="fill:#00add6;fill-opacity:1;fill-rule:nonzero;stroke:none"/><path d="m 5434.6,705.332 h 10.6953 v 1848.92 H 5434.6 Z" id="path142" style="fill:#00add6;fill-opacity:1;fill-rule:nonzero;stroke:none"/><path d="m 5423.9,705.332 h 10.6953 v 1848.92 H 5423.9 Z" id="path144" style="fill:#00add6;fill-opacity:1;fill-rule:nonzero;stroke:none"/><path d="m 5413.21,705.332 h 10.6953 v 1848.92 H 5413.21 Z" id="path146" style="fill:#00add6;fill-opacity:1;fill-rule:nonzero;stroke:none"/><path d="m 5402.51,705.332 h 10.6953 v 1848.92 H 5402.51 Z" id="path148" style="fill:#00add6;fill-opacity:1;fill-rule:nonzero;stroke:none"/><path d="m 5391.82,705.332 h 10.6953 v 1848.92 H 5391.82 Z" id="path150" style="fill:#00add6;fill-opacity:1;fill-rule:nonzero;stroke:none"/><path d="m 5381.12,705.332 h 10.6992 v 1848.92 H 5381.12 Z" id="path152" style="fill:#00add6;fill-opacity:1;fill-rule:nonzero;stroke:none"/><path d="m 5370.42,705.332 h 10.6953 v 1848.92 H 5370.42 Z" id="path154" style="fill:#00add6;fill-opacity:1;fill-rule:nonzero;stroke:none"/><path d="m 5359.73,705.332 h 10.6953 v 1848.92 H 5359.73 Z" id="path156" style="fill:#00add6;fill-opacity:1;fill-rule:nonzero;stroke:none"/><path d="m 5349.03,705.332 h 10.6953 v 1848.92 H 5349.03 Z" id="path158" style="fill:#00add6;fill-opacity:1;fill-rule:nonzero;stroke:none"/><path d="m 5338.34,705.332 h 10.6953 v 1848.92 H 5338.34 Z" id="path160" style="fill:#00add6;fill-opacity:1;fill-rule:nonzero;stroke:none"/><path d="m 5327.64,705.332 h 10.6953 v 1848.92 H 5327.64 Z" id="path162" style="fill:#00add6;fill-opacity:1;fill-rule:nonzero;stroke:none"/><path d="m 5316.94,705.332 h 10.6992 v 1848.92 H 5316.94 Z" id="path164" style="fill:#00add6;fill-opacity:1;fill-rule:nonzero;stroke:none"/><path d="m 5306.25,705.332 h 10.6953 v 1848.92 H 5306.25 Z" id="path166" style="fill:#00add6;fill-opacity:1;fill-rule:nonzero;stroke:none"/><path d="m 5295.55,705.332 h 10.6953 v 1848.92 H 5295.55 Z" id="path168" style="fill:#00add6;fill-opacity:1;fill-rule:nonzero;stroke:none"/><path d="m 5284.86,705.332 h 10.6953 v 1848.92 H 5284.86 Z" id="path170" style="fill:#00add6;fill-opacity:1;fill-rule:nonzero;stroke:none"/><path d="m 5274.16,705.332 h 10.6953 v 1848.92 H 5274.16 Z" id="path172" style="fill:#00add6;fill-opacity:1;fill-rule:nonzero;stroke:none"/><path d="m 5263.46,705.332 h 10.6953 v 1848.92 H 5263.46 Z" id="path174" style="fill:#00add6;fill-opacity:1;fill-rule:nonzero;stroke:none"/><path d="m 5252.77,705.332 h 10.6953 v 1848.92 H 5252.77 Z" id="path176" style="fill:#00add6;fill-opacity:1;fill-rule:nonzero;stroke:none"/><path d="m 5242.07,705.332 h 10.6992 v 1848.92 H 5242.07 Z" id="path178" style="fill:#00add6;fill-opacity:1;fill-rule:nonzero;stroke:none"/><path d="m 5231.38,705.332 h 10.6953 v 1848.92 H 5231.38 Z" id="path180" style="fill:#00add6;fill-opacity:1;fill-rule:nonzero;stroke:none"/><path d="m 5220.68,705.332 h 10.6953 v 1848.92 H 5220.68 Z" id="path182" style="fill:#00add6;fill-opacity:1;fill-rule:nonzero;stroke:none"/><path d="m 5209.98,705.332 h 10.6953 v 1848.92 H 5209.98 Z" id="path184" style="fill:#00add6;fill-opacity:1;fill-rule:nonzero;stroke:none"/><path d="m 5199.29,705.332 h 10.6953 v 1848.92 H 5199.29 Z" id="path186" style="fill:#00add6;fill-opacity:1;fill-rule:nonzero;stroke:none"/><path d="m 5188.59,705.332 h 10.6953 v 1848.92 H 5188.59 Z" id="path188" style="fill:#00add6;fill-opacity:1;fill-rule:nonzero;stroke:none"/><path d="m 5177.9,705.332 h 10.6953 v 1848.92 H 5177.9 Z" id="path190" style="fill:#00add6;fill-opacity:1;fill-rule:nonzero;stroke:none"/><path d="m 5167.2,705.332 h 10.6992 v 1848.92 H 5167.2 Z" id="path192" style="fill:#00add6;fill-opacity:1;fill-rule:nonzero;stroke:none"/><path d="m 5156.5,705.332 h 10.6953 v 1848.92 H 5156.5 Z" id="path194" style="fill:#00add6;fill-opacity:1;fill-rule:nonzero;stroke:none"/><path d="m 5145.81,705.332 h 10.6953 v 1848.92 H 5145.81 Z" id="path196" style="fill:#00add6;fill-opacity:1;fill-rule:nonzero;stroke:none"/><path d="m 5135.11,705.332 h 10.6953 v 1848.92 H 5135.11 Z" id="path198" style="fill:#00add6;fill-opacity:1;fill-rule:nonzero;stroke:none"/><path d="m 5124.42,705.332 h 10.6953 v 1848.92 H 5124.42 Z" id="path200" style="fill:#00add6;fill-opacity:1;fill-rule:nonzero;stroke:none"/><path d="m 5113.72,705.332 h 10.6953 v 1848.92 H 5113.72 Z" id="path202" style="fill:#00add6;fill-opacity:1;fill-rule:nonzero;stroke:none"/><path d="m 5103.02,705.332 h 10.6992 v 1848.92 H 5103.02 Z" id="path204" style="fill:#00add6;fill-opacity:1;fill-rule:nonzero;stroke:none"/><path d="m 5092.33,705.332 h 10.6953 v 1848.92 H 5092.33 Z" id="path206" style="fill:#00add6;fill-opacity:1;fill-rule:nonzero;stroke:none"/><path d="m 5081.63,705.332 h 10.6953 v 1848.92 H 5081.63 Z" id="path208" style="fill:#00add6;fill-opacity:1;fill-rule:nonzero;stroke:none"/><path d="m 5070.94,705.332 h 10.6953 v 1848.92 H 5070.94 Z" id="path210" style="fill:#00add6;fill-opacity:1;fill-rule:nonzero;stroke:none"/><path d="m 5060.24,705.332 h 10.6953 v 1848.92 H 5060.24 Z" id="path212" style="fill:#00add6;fill-opacity:1;fill-rule:nonzero;stroke:none"/><path d="m 5049.55,705.332 h 10.6953 v 1848.92 H 5049.55 Z" id="path214" style="fill:#00add6;fill-opacity:1;fill-rule:nonzero;stroke:none"/><path d="m 5038.85,705.332 h 10.6953 v 1848.92 H 5038.85 Z" id="path216" style="fill:#00add6;fill-opacity:1;fill-rule:nonzero;stroke:none"/><path d="m 5028.15,705.332 h 10.6992 v 1848.92 H 5028.15 Z" id="path218" style="fill:#00add6;fill-opacity:1;fill-rule:nonzero;stroke:none"/><path d="m 5017.46,705.332 h 10.6953 v 1848.92 H 5017.46 Z" id="path220" style="fill:#00add6;fill-opacity:1;fill-rule:nonzero;stroke:none"/><path d="m 5006.76,705.332 h 10.6953 v 1848.92 H 5006.76 Z" id="path222" style="fill:#00add6;fill-opacity:1;fill-rule:nonzero;stroke:none"/><path d="m 4996.07,705.332 h 10.6953 v 1848.92 H 4996.07 Z" id="path224" style="fill:#00add6;fill-opacity:1;fill-rule:nonzero;stroke:none"/><path d="m 4985.37,705.332 h 10.6953 v 1848.92 H 4985.37 Z" id="path226" style="fill:#00add6;fill-opacity:1;fill-rule:nonzero;stroke:none"/><path d="m 4974.68,705.332 h 10.6953 v 1848.92 H 4974.68 Z" id="path228" style="fill:#00add6;fill-opacity:1;fill-rule:nonzero;stroke:none"/><path d="m 4963.98,705.332 h 10.6953 v 1848.92 H 4963.98 Z" id="path230" style="fill:#00add6;fill-opacity:1;fill-rule:nonzero;stroke:none"/><path d="m 4953.28,705.332 h 10.6992 v 1848.92 H 4953.28 Z" id="path232" style="fill:#00add6;fill-opacity:1;fill-rule:nonzero;stroke:none"/><path d="m 4942.59,705.332 h 10.6953 v 1848.92 H 4942.59 Z" id="path234" style="fill:#00add6;fill-opacity:1;fill-rule:nonzero;stroke:none"/><path d="m 4931.89,705.332 h 10.6953 v 1848.92 H 4931.89 Z" id="path236" style="fill:#00add6;fill-opacity:1;fill-rule:nonzero;stroke:none"/><path d="m 4921.2,705.332 h 10.6953 v 1848.92 H 4921.2 Z" id="path238" style="fill:#00add6;fill-opacity:1;fill-rule:nonzero;stroke:none"/><path d="m 4910.5,705.332 h 10.6953 v 1848.92 H 4910.5 Z" id="path240" style="fill:#00add6;fill-opacity:1;fill-rule:nonzero;stroke:none"/><path d="m 4899.8,705.332 h 10.6953 v 1848.92 H 4899.8 Z" id="path242" style="fill:#00add6;fill-opacity:1;fill-rule:nonzero;stroke:none"/><path d="m 4889.11,705.332 h 10.6992 v 1848.92 H 4889.11 Z" id="path244" style="fill:#00add6;fill-opacity:1;fill-rule:nonzero;stroke:none"/><path d="m 4878.41,705.332 h 10.6953 v 1848.92 H 4878.41 Z" id="path246" style="fill:#00add6;fill-opacity:1;fill-rule:nonzero;stroke:none"/><path d="m 4867.71,705.332 h 10.6953 v 1848.92 H 4867.71 Z" id="path248" style="fill:#00add6;fill-opacity:1;fill-rule:nonzero;stroke:none"/><path d="m 4857.02,705.332 h 10.6953 v 1848.92 H 4857.02 Z" id="path250" style="fill:#00add6;fill-opacity:1;fill-rule:nonzero;stroke:none"/><path d="m 4846.32,705.332 h 10.6953 v 1848.92 H 4846.32 Z" id="path252" style="fill:#00add6;fill-opacity:1;fill-rule:nonzero;stroke:none"/><path d="m 4835.63,705.332 h 10.6953 v 1848.92 H 4835.63 Z" id="path254" style="fill:#00add6;fill-opacity:1;fill-rule:nonzero;stroke:none"/><path d="m 4824.93,705.332 h 10.6953 v 1848.92 H 4824.93 Z" id="path256" style="fill:#00add6;fill-opacity:1;fill-rule:nonzero;stroke:none"/><path d="m 4814.23,705.332 h 10.6992 v 1848.92 H 4814.23 Z" id="path258" style="fill:#00add6;fill-opacity:1;fill-rule:nonzero;stroke:none"/><path d="m 4803.54,705.332 h 10.6953 v 1848.92 H 4803.54 Z" id="path260" style="fill:#00add6;fill-opacity:1;fill-rule:nonzero;stroke:none"/><path d="m 4792.84,705.332 h 10.6953 v 1848.92 H 4792.84 Z" id="path262" style="fill:#00add6;fill-opacity:1;fill-rule:nonzero;stroke:none"/><path d="m 4782.15,705.332 h 10.6953 v 1848.92 H 4782.15 Z" id="path264" style="fill:#00add6;fill-opacity:1;fill-rule:nonzero;stroke:none"/><path d="m 4771.45,705.332 h 10.6953 v 1848.92 H 4771.45 Z" id="path266" style="fill:#00add6;fill-opacity:1;fill-rule:nonzero;stroke:none"/><path d="m 4760.76,705.332 h 10.6953 v 1848.92 H 4760.76 Z" id="path268" style="fill:#00add6;fill-opacity:1;fill-rule:nonzero;stroke:none"/><path d="m 4750.06,705.332 h 10.6953 v 1848.92 H 4750.06 Z" id="path270" style="fill:#00add6;fill-opacity:1;fill-rule:nonzero;stroke:none"/><path d="m 4739.36,705.332 h 10.6992 v 1848.92 H 4739.36 Z" id="path272" style="fill:#00add6;fill-opacity:1;fill-rule:nonzero;stroke:none"/><path d="m 4728.67,705.332 h 10.6953 v 1848.92 H 4728.67 Z" id="path274" style="fill:#00add6;fill-opacity:1;fill-rule:nonzero;stroke:none"/><path d="m 4717.97,705.332 h 10.6953 v 1848.92 H 4717.97 Z" id="path276" style="fill:#00add6;fill-opacity:1;fill-rule:nonzero;stroke:none"/><path d="m 4707.28,705.332 h 10.6953 v 1848.92 H 4707.28 Z" id="path278" style="fill:#00add6;fill-opacity:1;fill-rule:nonzero;stroke:none"/><path d="m 4696.58,705.332 h 10.6953 v 1848.92 H 4696.58 Z" id="path280" style="fill:#00add6;fill-opacity:1;fill-rule:nonzero;stroke:none"/><path d="m 4685.89,705.332 h 10.6953 v 1848.92 H 4685.89 Z" id="path282" style="fill:#00add6;fill-opacity:1;fill-rule:nonzero;stroke:none"/><path d="m 4675.19,705.332 h 10.6992 v 1848.92 H 4675.19 Z" id="path284" style="fill:#00add6;fill-opacity:1;fill-rule:nonzero;stroke:none"/><path d="m 4664.49,705.332 h 10.6953 v 1848.92 H 4664.49 Z" id="path286" style="fill:#00add6;fill-opacity:1;fill-rule:nonzero;stroke:none"/><path d="m 4653.8,705.332 h 10.6953 v 1848.92 H 4653.8 Z" id="path288" style="fill:#00add6;fill-opacity:1;fill-rule:nonzero;stroke:none"/><path d="m 4643.1,705.332 h 10.6953 v 1848.92 H 4643.1 Z" id="path290" style="fill:#00add6;fill-opacity:1;fill-rule:nonzero;stroke:none"/><path d="m 4632.41,705.332 h 10.6953 v 1848.92 H 4632.41 Z" id="path292" style="fill:#00add6;fill-opacity:1;fill-rule:nonzero;stroke:none"/><path d="m 4621.71,705.332 h 10.6953 v 1848.92 H 4621.71 Z" id="path294" style="fill:#00add6;fill-opacity:1;fill-rule:nonzero;stroke:none"/><path d="m 4611.02,705.332 h 10.6953 v 1848.92 H 4611.02 Z" id="path296" style="fill:#00add6;fill-opacity:1;fill-rule:nonzero;stroke:none"/><path d="m 4600.32,705.332 h 10.6992 v 1848.92 H 4600.32 Z" id="path298" style="fill:#00add6;fill-opacity:1;fill-rule:nonzero;stroke:none"/><path d="m 4589.62,705.332 h 10.6953 v 1848.92 H 4589.62 Z" id="path300" style="fill:#00add6;fill-opacity:1;fill-rule:nonzero;stroke:none"/><path d="m 4578.93,705.332 h 10.6953 v 1848.92 H 4578.93 Z" id="path302" style="fill:#00add6;fill-opacity:1;fill-rule:nonzero;stroke:none"/><path d="m 4568.23,705.332 h 10.6953 v 1848.92 H 4568.23 Z" id="path304" style="fill:#00add6;fill-opacity:1;fill-rule:nonzero;stroke:none"/><path d="m 4557.54,705.332 h 10.6953 v 1848.92 H 4557.54 Z" id="path306" style="fill:#00add6;fill-opacity:1;fill-rule:nonzero;stroke:none"/><path d="m 4546.84,705.332 h 10.6953 v 1848.92 H 4546.84 Z" id="path308" style="fill:#00add6;fill-opacity:1;fill-rule:nonzero;stroke:none"/><path d="m 4536.14,705.332 h 10.6953 v 1848.92 H 4536.14 Z" id="path310" style="fill:#00add6;fill-opacity:1;fill-rule:nonzero;stroke:none"/><path d="m 4525.45,705.332 h 10.6992 v 1848.92 H 4525.45 Z" id="path312" style="fill:#00add6;fill-opacity:1;fill-rule:nonzero;stroke:none"/><path d="m 4514.75,705.332 h 10.6953 v 1848.92 H 4514.75 Z" id="path314" style="fill:#00add6;fill-opacity:1;fill-rule:nonzero;stroke:none"/><path d="m 4504.05,705.332 h 10.6953 v 1848.92 H 4504.05 Z" id="path316" style="fill:#00add6;fill-opacity:1;fill-rule:nonzero;stroke:none"/><path d="m 4493.36,705.332 h 10.6953 v 1848.92 H 4493.36 Z" id="path318" style="fill:#00add6;fill-opacity:1;fill-rule:nonzero;stroke:none"/><path d="m 4482.66,705.332 h 10.6953 v 1848.92 H 4482.66 Z" id="path320" style="fill:#00add6;fill-opacity:1;fill-rule:nonzero;stroke:none"/><path d="m 4471.97,705.332 h 10.6953 v 1848.92 H 4471.97 Z" id="path322" style="fill:#00add6;fill-opacity:1;fill-rule:nonzero;stroke:none"/><path d="m 4461.27,705.332 h 10.6992 v 1848.92 H 4461.27 Z" id="path324" style="fill:#00add6;fill-opacity:1;fill-rule:nonzero;stroke:none"/><path d="m 4450.57,705.332 h 10.6953 v 1848.92 H 4450.57 Z" id="path326" style="fill:#00add6;fill-opacity:1;fill-rule:nonzero;stroke:none"/><path d="m 4439.88,705.332 h 10.6953 v 1848.92 H 4439.88 Z" id="path328" style="fill:#00add6;fill-opacity:1;fill-rule:nonzero;stroke:none"/><path d="m 4429.18,705.332 h 10.6953 v 1848.92 H 4429.18 Z" id="path330" style="fill:#00add6;fill-opacity:1;fill-rule:nonzero;stroke:none"/><path d="m 4418.49,705.332 h 10.6953 v 1848.92 H 4418.49 Z" id="path332" style="fill:#00add6;fill-opacity:1;fill-rule:nonzero;stroke:none"/><path d="m 4407.79,705.332 h 10.6953 v 1848.92 H 4407.79 Z" id="path334" style="fill:#00add6;fill-opacity:1;fill-rule:nonzero;stroke:none"/><path d="m 4397.1,705.332 h 10.6953 v 1848.92 H 4397.1 Z" id="path336" style="fill:#00add6;fill-opacity:1;fill-rule:nonzero;stroke:none"/><path d="m 4386.4,705.332 h 10.6992 v 1848.92 H 4386.4 Z" id="path338" style="fill:#00add6;fill-opacity:1;fill-rule:nonzero;stroke:none"/><path d="m 4375.7,705.332 h 10.6953 v 1848.92 H 4375.7 Z" id="path340" style="fill:#00add6;fill-opacity:1;fill-rule:nonzero;stroke:none"/><path d="m 4365.01,705.332 h 10.6953 v 1848.92 H 4365.01 Z" id="path342" style="fill:#00add6;fill-opacity:1;fill-rule:nonzero;stroke:none"/><path d="m 4354.31,705.332 h 10.6953 v 1848.92 H 4354.31 Z" id="path344" style="fill:#00add6;fill-opacity:1;fill-rule:nonzero;stroke:none"/><path d="m 4343.62,705.332 h 10.6953 v 1848.92 H 4343.62 Z" id="path346" style="fill:#00add6;fill-opacity:1;fill-rule:nonzero;stroke:none"/><path d="m 4332.92,705.332 h 10.6953 v 1848.92 H 4332.92 Z" id="path348" style="fill:#00add6;fill-opacity:1;fill-rule:nonzero;stroke:none"/><path d="m 4322.23,705.332 h 10.6953 v 1848.92 H 4322.23 Z" id="path350" style="fill:#00add6;fill-opacity:1;fill-rule:nonzero;stroke:none"/><path d="m 4311.53,705.332 h 10.6992 v 1848.92 H 4311.53 Z" id="path352" style="fill:#00add6;fill-opacity:1;fill-rule:nonzero;stroke:none"/><path d="m 4300.83,705.332 h 10.6953 v 1848.92 H 4300.83 Z" id="path354" style="fill:#00add6;fill-opacity:1;fill-rule:nonzero;stroke:none"/><path d="m 4290.14,705.332 h 10.6953 v 1848.92 H 4290.14 Z" id="path356" style="fill:#00add6;fill-opacity:1;fill-rule:nonzero;stroke:none"/><path d="m 4279.44,705.332 h 10.6953 v 1848.92 H 4279.44 Z" id="path358" style="fill:#00add6;fill-opacity:1;fill-rule:nonzero;stroke:none"/><path d="m 4268.75,705.332 h 10.6953 v 1848.92 H 4268.75 Z" id="path360" style="fill:#00add6;fill-opacity:1;fill-rule:nonzero;stroke:none"/><path d="m 4258.05,705.332 h 10.6953 v 1848.92 H 4258.05 Z" id="path362" style="fill:#00add6;fill-opacity:1;fill-rule:nonzero;stroke:none"/><path d="m 4247.35,705.332 h 10.6992 v 1848.92 H 4247.35 Z" id="path364" style="fill:#00add6;fill-opacity:1;fill-rule:nonzero;stroke:none"/><path d="m 4236.66,705.332 h 10.6953 v 1848.92 H 4236.66 Z" id="path366" style="fill:#00add6;fill-opacity:1;fill-rule:nonzero;stroke:none"/><path d="m 4225.96,705.332 h 10.6953 v 1848.92 H 4225.96 Z" id="path368" style="fill:#00add6;fill-opacity:1;fill-rule:nonzero;stroke:none"/><path d="m 4215.27,705.332 h 10.6953 v 1848.92 H 4215.27 Z" id="path370" style="fill:#00add6;fill-opacity:1;fill-rule:nonzero;stroke:none"/><path d="m 4204.57,705.332 h 10.6953 v 1848.92 H 4204.57 Z" id="path372" style="fill:#00add6;fill-opacity:1;fill-rule:nonzero;stroke:none"/><path d="m 4193.88,705.332 h 10.6953 v 1848.92 H 4193.88 Z" id="path374" style="fill:#00add6;fill-opacity:1;fill-rule:nonzero;stroke:none"/><path d="m 4183.18,705.332 h 10.6953 v 1848.92 H 4183.18 Z" id="path376" style="fill:#00add6;fill-opacity:1;fill-rule:nonzero;stroke:none"/><path d="m 4172.48,705.332 h 10.6992 v 1848.92 H 4172.48 Z" id="path378" style="fill:#00add6;fill-opacity:1;fill-rule:nonzero;stroke:none"/><path d="m 4161.79,705.332 h 10.6953 v 1848.92 H 4161.79 Z" id="path380" style="fill:#00add6;fill-opacity:1;fill-rule:nonzero;stroke:none"/><path d="m 4151.09,705.332 h 10.6953 v 1848.92 H 4151.09 Z" id="path382" style="fill:#00add6;fill-opacity:1;fill-rule:nonzero;stroke:none"/><path d="m 4140.39,705.332 h 10.6953 v 1848.92 H 4140.39 Z" id="path384" style="fill:#00add6;fill-opacity:1;fill-rule:nonzero;stroke:none"/><path d="m 4129.7,705.332 h 10.6953 v 1848.92 H 4129.7 Z" id="path386" style="fill:#00add6;fill-opacity:1;fill-rule:nonzero;stroke:none"/><path d="m 4119,705.332 h 10.6953 v 1848.92 H 4119 Z" id="path388" style="fill:#00add6;fill-opacity:1;fill-rule:nonzero;stroke:none"/><path d="m 4108.31,705.332 h 10.6953 v 1848.92 H 4108.31 Z" id="path390" style="fill:#00add6;fill-opacity:1;fill-rule:nonzero;stroke:none"/><path d="m 4097.61,705.332 h 10.6992 v 1848.92 H 4097.61 Z" id="path392" style="fill:#00add6;fill-opacity:1;fill-rule:nonzero;stroke:none"/><path d="m 4086.91,705.332 h 10.6953 v 1848.92 H 4086.91 Z" id="path394" style="fill:#00add6;fill-opacity:1;fill-rule:nonzero;stroke:none"/><path d="m 4076.22,705.332 h 10.6953 v 1848.92 H 4076.22 Z" id="path396" style="fill:#00add6;fill-opacity:1;fill-rule:nonzero;stroke:none"/><path d="m 4065.52,705.332 h 10.6953 v 1848.92 H 4065.52 Z" id="path398" style="fill:#00add6;fill-opacity:1;fill-rule:nonzero;stroke:none"/><path d="m 4054.83,705.332 h 10.6953 v 1848.92 H 4054.83 Z" id="path400" style="fill:#00add6;fill-opacity:1;fill-rule:nonzero;stroke:none"/><path d="m 4044.13,705.332 h 10.6953 v 1848.92 H 4044.13 Z" id="path402" style="fill:#00add6;fill-opacity:1;fill-rule:nonzero;stroke:none"/><path d="m 4033.43,705.332 h 10.6992 v 1848.92 H 4033.43 Z" id="path404" style="fill:#00add6;fill-opacity:1;fill-rule:nonzero;stroke:none"/><path d="m 4022.74,705.332 h 10.6953 v 1848.92 H 4022.74 Z" id="path406" style="fill:#00add6;fill-opacity:1;fill-rule:nonzero;stroke:none"/><path d="m 4012.04,705.332 h 10.6953 v 1848.92 H 4012.04 Z" id="path408" style="fill:#00add6;fill-opacity:1;fill-rule:nonzero;stroke:none"/><path d="m 4001.35,705.332 h 10.6953 v 1848.92 H 4001.35 Z" id="path410" style="fill:#00add6;fill-opacity:1;fill-rule:nonzero;stroke:none"/><path d="m 3990.65,705.332 h 10.6953 v 1848.92 H 3990.65 Z" id="path412" style="fill:#00add6;fill-opacity:1;fill-rule:nonzero;stroke:none"/><path d="m 3979.96,705.332 h 10.6953 v 1848.92 H 3979.96 Z" id="path414" style="fill:#00add6;fill-opacity:1;fill-rule:nonzero;stroke:none"/><path d="m 3969.26,705.332 h 10.6953 v 1848.92 H 3969.26 Z" id="path416" style="fill:#00add6;fill-opacity:1;fill-rule:nonzero;stroke:none"/><path d="m 3958.56,705.332 h 10.6992 v 1848.92 H 3958.56 Z" id="path418" style="fill:#00add6;fill-opacity:1;fill-rule:nonzero;stroke:none"/><path d="m 3947.87,705.332 h 10.6953 v 1848.92 H 3947.87 Z" id="path420" style="fill:#00add6;fill-opacity:1;fill-rule:nonzero;stroke:none"/><path d="m 3937.17,705.332 h 10.6953 v 1848.92 H 3937.17 Z" id="path422" style="fill:#00add6;fill-opacity:1;fill-rule:nonzero;stroke:none"/><path d="m 3926.48,705.332 h 10.6953 v 1848.92 H 3926.48 Z" id="path424" style="fill:#00add6;fill-opacity:1;fill-rule:nonzero;stroke:none"/><path d="m 3915.78,705.332 h 10.6953 v 1848.92 H 3915.78 Z" id="path426" style="fill:#00add6;fill-opacity:1;fill-rule:nonzero;stroke:none"/><path d="m 3905.09,705.332 h 10.6953 v 1848.92 H 3905.09 Z" id="path428" style="fill:#00add6;fill-opacity:1;fill-rule:nonzero;stroke:none"/><path d="m 3894.39,705.332 h 10.6953 v 1848.92 H 3894.39 Z" id="path430" style="fill:#00add6;fill-opacity:1;fill-rule:nonzero;stroke:none"/><path d="m 3883.69,705.332 h 10.6992 v 1848.92 H 3883.69 Z" id="path432" style="fill:#00add6;fill-opacity:1;fill-rule:nonzero;stroke:none"/><path d="m 3873,705.332 h 10.6953 v 1848.92 H 3873 Z" id="path434" style="fill:#00add6;fill-opacity:1;fill-rule:nonzero;stroke:none"/><path d="m 3862.3,705.332 h 10.6953 v 1848.92 H 3862.3 Z" id="path436" style="fill:#00add6;fill-opacity:1;fill-rule:nonzero;stroke:none"/><path d="m 3851.61,705.332 h 10.6953 v 1848.92 H 3851.61 Z" id="path438" style="fill:#00add6;fill-opacity:1;fill-rule:nonzero;stroke:none"/><path d="m 3840.91,705.332 h 10.6953 v 1848.92 H 3840.91 Z" id="path440" style="fill:#00add6;fill-opacity:1;fill-rule:nonzero;stroke:none"/><path d="m 3830.21,705.332 h 10.6953 v 1848.92 H 3830.21 Z" id="path442" style="fill:#00add6;fill-opacity:1;fill-rule:nonzero;stroke:none"/><path d="m 3819.52,705.332 h 10.6992 v 1848.92 H 3819.52 Z" id="path444" style="fill:#00add6;fill-opacity:1;fill-rule:nonzero;stroke:none"/><path d="m 3808.82,705.332 h 10.6953 v 1848.92 H 3808.82 Z" id="path446" style="fill:#00add6;fill-opacity:1;fill-rule:nonzero;stroke:none"/><path d="m 3798.13,705.332 h 10.6953 v 1848.92 H 3798.13 Z" id="path448" style="fill:#00add6;fill-opacity:1;fill-rule:nonzero;stroke:none"/><path d="m 3787.43,705.332 h 10.6953 v 1848.92 H 3787.43 Z" id="path450" style="fill:#00add6;fill-opacity:1;fill-rule:nonzero;stroke:none"/><path d="m 3776.73,705.332 h 10.6953 v 1848.92 H 3776.73 Z" id="path452" style="fill:#00add6;fill-opacity:1;fill-rule:nonzero;stroke:none"/><path d="m 3766.04,705.332 h 10.6953 v 1848.92 H 3766.04 Z" id="path454" style="fill:#00add6;fill-opacity:1;fill-rule:nonzero;stroke:none"/><path d="m 3755.34,705.332 h 10.6953 v 1848.92 H 3755.34 Z" id="path456" style="fill:#00add6;fill-opacity:1;fill-rule:nonzero;stroke:none"/><path d="m 3744.64,705.332 h 10.6992 v 1848.92 H 3744.64 Z" id="path458" style="fill:#00add6;fill-opacity:1;fill-rule:nonzero;stroke:none"/><path d="m 3733.95,705.332 h 10.6953 v 1848.92 H 3733.95 Z" id="path460" style="fill:#00add6;fill-opacity:1;fill-rule:nonzero;stroke:none"/><path d="m 3723.25,705.332 h 10.6953 v 1848.92 H 3723.25 Z" id="path462" style="fill:#00add6;fill-opacity:1;fill-rule:nonzero;stroke:none"/><path d="m 3712.56,705.332 h 10.6953 v 1848.92 H 3712.56 Z" id="path464" style="fill:#00add6;fill-opacity:1;fill-rule:nonzero;stroke:none"/><path d="m 3701.86,705.332 h 10.6953 v 1848.92 H 3701.86 Z" id="path466" style="fill:#00add6;fill-opacity:1;fill-rule:nonzero;stroke:none"/><path d="m 3691.17,705.332 h 10.6953 v 1848.92 H 3691.17 Z" id="path468" style="fill:#00add6;fill-opacity:1;fill-rule:nonzero;stroke:none"/><path d="m 3680.47,705.332 h 10.6953 v 1848.92 H 3680.47 Z" id="path470" style="fill:#00add6;fill-opacity:1;fill-rule:nonzero;stroke:none"/><path d="m 3669.77,705.332 h 10.6992 v 1848.92 H 3669.77 Z" id="path472" style="fill:#00add6;fill-opacity:1;fill-rule:nonzero;stroke:none"/><path d="m 3659.08,705.332 h 10.6953 v 1848.92 H 3659.08 Z" id="path474" style="fill:#00add6;fill-opacity:1;fill-rule:nonzero;stroke:none"/><path d="m 3648.38,705.332 h 10.6953 v 1848.92 H 3648.38 Z" id="path476" style="fill:#00add6;fill-opacity:1;fill-rule:nonzero;stroke:none"/><path d="m 3637.69,705.332 h 10.6953 v 1848.92 H 3637.69 Z" id="path478" style="fill:#00add6;fill-opacity:1;fill-rule:nonzero;stroke:none"/><path d="m 3626.99,705.332 h 10.6953 v 1848.92 H 3626.99 Z" id="path480" style="fill:#00add6;fill-opacity:1;fill-rule:nonzero;stroke:none"/><path d="m 3616.3,705.332 h 10.6953 v 1848.92 H 3616.3 Z" id="path482" style="fill:#00add6;fill-opacity:1;fill-rule:nonzero;stroke:none"/><path d="m 3605.6,705.332 h 10.6992 v 1848.92 H 3605.6 Z" id="path484" style="fill:#00add6;fill-opacity:1;fill-rule:nonzero;stroke:none"/><path d="m 3594.9,705.332 h 10.6953 v 1848.92 H 3594.9 Z" id="path486" style="fill:#00add6;fill-opacity:1;fill-rule:nonzero;stroke:none"/><path d="m 3584.21,705.332 h 10.6953 v 1848.92 H 3584.21 Z" id="path488" style="fill:#00add6;fill-opacity:1;fill-rule:nonzero;stroke:none"/><path d="m 3573.51,705.332 h 10.6953 v 1848.92 H 3573.51 Z" id="path490" style="fill:#00add6;fill-opacity:1;fill-rule:nonzero;stroke:none"/><path d="m 3562.82,705.332 h 10.6953 v 1848.92 H 3562.82 Z" id="path492" style="fill:#00add6;fill-opacity:1;fill-rule:nonzero;stroke:none"/><path d="m 3552.12,705.332 h 10.6953 v 1848.92 H 3552.12 Z" id="path494" style="fill:#00add6;fill-opacity:1;fill-rule:nonzero;stroke:none"/><path d="m 3541.43,705.332 h 10.6953 v 1848.92 H 3541.43 Z" id="path496" style="fill:#00add6;fill-opacity:1;fill-rule:nonzero;stroke:none"/><path d="m 3530.73,705.332 h 10.6992 v 1848.92 H 3530.73 Z" id="path498" style="fill:#00add6;fill-opacity:1;fill-rule:nonzero;stroke:none"/><path d="m 3520.03,705.332 h 10.6953 v 1848.92 H 3520.03 Z" id="path500" style="fill:#00add6;fill-opacity:1;fill-rule:nonzero;stroke:none"/><path d="m 3509.34,705.332 h 10.6953 v 1848.92 H 3509.34 Z" id="path502" style="fill:#00add6;fill-opacity:1;fill-rule:nonzero;stroke:none"/><path d="m 3498.64,705.332 h 10.6953 v 1848.92 H 3498.64 Z" id="path504" style="fill:#00add6;fill-opacity:1;fill-rule:nonzero;stroke:none"/><path d="m 3487.95,705.332 h 10.6953 v 1848.92 H 3487.95 Z" id="path506" style="fill:#00add6;fill-opacity:1;fill-rule:nonzero;stroke:none"/><path d="m 3477.25,705.332 h 10.6953 v 1848.92 H 3477.25 Z" id="path508" style="fill:#00add6;fill-opacity:1;fill-rule:nonzero;stroke:none"/><path d="m 3466.55,705.332 h 10.6953 v 1848.92 H 3466.55 Z" id="path510" style="fill:#00add6;fill-opacity:1;fill-rule:nonzero;stroke:none"/><path d="m 3455.86,705.332 h 10.6992 v 1848.92 H 3455.86 Z" id="path512" style="fill:#00add6;fill-opacity:1;fill-rule:nonzero;stroke:none"/><path d="m 3445.16,705.332 h 10.6953 v 1848.92 H 3445.16 Z" id="path514" style="fill:#00add6;fill-opacity:1;fill-rule:nonzero;stroke:none"/><path d="m 3434.46,705.332 h 10.6953 v 1848.92 H 3434.46 Z" id="path516" style="fill:#00add6;fill-opacity:1;fill-rule:nonzero;stroke:none"/><path d="m 3423.77,705.332 h 10.6953 v 1848.92 H 3423.77 Z" id="path518" style="fill:#00add6;fill-opacity:1;fill-rule:nonzero;stroke:none"/><path d="m 3413.07,705.332 h 10.6953 v 1848.92 H 3413.07 Z" id="path520" style="fill:#00add6;fill-opacity:1;fill-rule:nonzero;stroke:none"/><path d="m 3402.38,705.332 h 10.6953 v 1848.92 H 3402.38 Z" id="path522" style="fill:#00add6;fill-opacity:1;fill-rule:nonzero;stroke:none"/><path d="m 3391.68,705.332 h 10.6992 v 1848.92 H 3391.68 Z" id="path524" style="fill:#00add6;fill-opacity:1;fill-rule:nonzero;stroke:none"/><path d="m 3380.98,705.332 h 10.6953 v 1848.92 H 3380.98 Z" id="path526" style="fill:#00add6;fill-opacity:1;fill-rule:nonzero;stroke:none"/><path d="m 3370.29,705.332 h 10.6953 v 1848.92 H 3370.29 Z" id="path528" style="fill:#00add6;fill-opacity:1;fill-rule:nonzero;stroke:none"/><path d="m 3359.59,705.332 h 10.6953 v 1848.92 H 3359.59 Z" id="path530" style="fill:#00add6;fill-opacity:1;fill-rule:nonzero;stroke:none"/><path d="m 3348.9,705.332 h 10.6953 v 1848.92 H 3348.9 Z" id="path532" style="fill:#00add6;fill-opacity:1;fill-rule:nonzero;stroke:none"/><path d="m 3338.2,705.332 h 10.6953 v 1848.92 H 3338.2 Z" id="path534" style="fill:#00add6;fill-opacity:1;fill-rule:nonzero;stroke:none"/><path d="m 3327.51,705.332 h 10.6953 v 1848.92 H 3327.51 Z" id="path536" style="fill:#00add6;fill-opacity:1;fill-rule:nonzero;stroke:none"/><path d="m 3316.81,705.332 h 10.6992 v 1848.92 H 3316.81 Z" id="path538" style="fill:#00add6;fill-opacity:1;fill-rule:nonzero;stroke:none"/><path d="m 3311.43,705.332 h 5.3789 v 1848.92 h -5.3789 z" id="path540" style="fill:#00add6;fill-opacity:1;fill-rule:nonzero;stroke:none"/></g></g><path d="m 5624.94,7224.55 c 512.16,-744.28 354.4,-1716.48 193.18,-1895.65 -215.36,-239.35 -1250.4,-6.43 -1693.99,-38.58 -84.89,-6.15 -308.59,936.91 102.86,1834.45 198.76,433.59 1089.21,548.45 1397.95,99.78" id="path542" style="fill:#ea659d;fill-opacity:1;fill-rule:nonzero;stroke:none"/><path d="m 4956.25,4498.92 c -243.89,3.6 -675.66,467.21 -759.62,612.32 0,0 131.16,58.74 194.62,74.88 415.77,105.77 589.75,142.83 1068.22,-75.46 56.64,-25.84 209.84,-134.12 209.84,-134.12 -5.11,-18.44 -498.52,-480.8 -713.06,-477.62" id="path544" style="fill:#ffc6c3;fill-opacity:1;fill-rule:nonzero;stroke:none"/><path d="m 4755.13,5699.67 h 473.23 c 12.95,0 23.45,-10.5 23.45,-23.44 V 5222 c 0,-143.63 -116.43,-260.06 -260.06,-260.06 -143.63,0 -260.07,116.43 -260.07,260.06 v 454.23 c 0,12.94 10.5,23.44 23.45,23.44" id="path546" style="fill:#ffc6c3;fill-opacity:1;fill-rule:nonzero;stroke:none"/><path d="m 4335.35,6364.8 c 0.07,-72.18 58.07,-130.63 129.55,-130.56 71.48,0.07 129.36,58.64 129.29,130.82 -0.06,72.18 -58.07,130.64 -129.55,130.57 -71.48,-0.07 -129.36,-58.64 -129.29,-130.83" id="path548" style="fill:#ffc6c3;fill-opacity:1;fill-rule:nonzero;stroke:none"/><path d="m 5648.15,6364.93 c 0,72.18 -57.95,130.7 -129.42,130.7 -71.48,0 -129.43,-58.52 -129.43,-130.7 0,-72.18 57.95,-130.69 129.43,-130.69 71.47,0 129.42,58.51 129.42,130.69" id="path550" style="fill:#ffc6c3;fill-opacity:1;fill-rule:nonzero;stroke:none"/><path d="m 4990.96,7153.32 c 290.92,0.28 526.98,-241.94 527.28,-541.02 l 0.49,-493.7 c 0.29,-299.07 -235.3,-541.76 -526.21,-542.05 -290.9,-0.29 -526.97,241.93 -527.26,541.01 l -0.49,493.7 c -0.29,299.08 235.29,541.77 526.19,542.06" id="path552" style="fill:#ffd0ce;fill-opacity:1;fill-rule:nonzero;stroke:none"/><path d="m 4608.47,7353.38 c 136.96,107.04 488.78,195.43 806.04,-78.73 324.66,-280.58 160.07,-807.44 103.82,-765.5 -186.04,138.75 -88.21,396.54 -263.25,403.35 -141.05,5.48 -320.98,-414.7 -790.13,-479.97 -36.54,-5.08 -80.39,147.89 -103.19,272.18 -58.66,319.82 134.66,561.12 246.71,648.67" id="path554" style="fill:#ea659d;fill-opacity:1;fill-rule:nonzero;stroke:none"/><path d="m 5105.1,6440.5 c 0,31.52 25.63,57.14 57.15,57.14 h 238.09 c 31.51,0 57.14,-25.62 57.14,-57.14 0,-97.15 -79.05,-176.19 -176.2,-176.19 h -42.25 c -73.84,0 -133.93,60.08 -133.93,133.92 z m -28.56,0 v -42.27 c 0,-89.6 72.89,-162.49 162.49,-162.49 h 42.25 c 112.9,0 204.77,91.86 204.77,204.76 0,47.26 -38.45,85.71 -85.71,85.71 h -238.09 c -47.26,0 -85.71,-38.45 -85.71,-85.71" id="path556" style="fill:#1a1b5c;fill-opacity:1;fill-rule:nonzero;stroke:none"/><path d="m 4878.39,6398.23 c 0,-73.84 -60.08,-133.92 -133.92,-133.92 h -42.26 c -97.15,0 -176.19,79.04 -176.19,176.19 0,31.52 25.63,57.14 57.14,57.14 h 238.09 c 31.52,0 57.14,-25.62 57.14,-57.14 z m -57.14,127.98 h -238.09 c -47.27,0 -85.71,-38.45 -85.71,-85.71 0,-112.9 91.86,-204.76 204.76,-204.76 h 42.26 c 89.61,0 162.5,72.89 162.5,162.49 v 42.27 c 0,47.26 -38.45,85.71 -85.72,85.71" id="path558" style="fill:#1a1b5c;fill-opacity:1;fill-rule:nonzero;stroke:none"/><path d="m 4924.4,6440.64 c 39.59,30.19 95.29,30.68 135.38,1.21 5.73,-4.21 6.96,-12.24 2.75,-17.97 -4.18,-5.7 -12.24,-6.94 -17.96,-2.75 -31.01,22.75 -74,22.38 -104.57,-0.93 -2.34,-1.78 -5.07,-2.64 -7.79,-2.64 -3.88,0 -7.7,1.75 -10.23,5.07 -4.31,5.65 -3.23,13.72 2.42,18.01" id="path560" style="fill:#1a1b5c;fill-opacity:1;fill-rule:nonzero;stroke:none"/><path d="m 5328.84,5180.43 c 0,0 -314.28,-1368.17 -363.49,-1770.02 -68.62,-560.34 -190.53,-1976.6 -190.53,-1976.6 l 1251.85,42.44 -90.88,1176.32 c 0,0 310.31,1799.7 21.08,2186.67 -103,137.81 -628.03,341.19 -628.03,341.19" id="path562" style="fill:#003977;fill-opacity:1;fill-rule:nonzero;stroke:none"/><path d="m 4589.04,5244.95 c 0,0 98.51,-1194.68 122.64,-1582.31 33.66,-540.5 -17.26,-2228.83 -17.26,-2228.83 l -1234.21,97.05 c 0,0 190.43,942.81 183.93,1604.47 -8.36,848.98 -157.75,1478.99 178.32,1826.61 119.4,123.52 766.58,283.01 766.58,283.01" id="path564" style="fill:#003977;fill-opacity:1;fill-rule:nonzero;stroke:none"/><path d="m 5446.31,2422.29 c 129.35,-34.94 292.41,-121.1 423.32,-149.62 20.48,-4.46 116.7,46.4 116.7,46.4 l 166.8,-237.61 c 0,0 -71.29,-115.65 -72.87,-121.99 -1.59,-6.34 -175.75,-58.27 -232.88,-42.78 -78.07,21.19 -178.65,68.26 -256.32,90.84 -45.45,13.22 -131.52,-83.81 -194.89,-72.11 -6.49,1.19 -27.48,22.49 -27.48,22.49 0,0 -56.76,-20.31 -76.05,-17.43 -18.07,2.7 -63.37,36.43 -63.37,36.43 l 163.32,204.88 -98.37,-18.45 c 0,0 -51.73,-81.15 -84.51,-81.15 -37.71,0 -52.08,17.12 -52.08,17.12 l 74.35,119.78 159.21,118.61 c 0,0 -178.33,-33.39 -225.12,-9.16 -20.77,10.76 -44.52,44.97 -44.52,44.97 0,0 260.09,66.26 324.76,48.78" id="path566" style="fill:#ffd0ce;fill-opacity:1;fill-rule:nonzero;stroke:none"/><path d="m 6006.56,3562.4 531.99,-677.49 -639.9,-539.17 275.67,-397.62 c 0,0 159.36,49.65 295.11,145.29 368.06,259.33 817.76,700.34 817.76,897.42 0,197.43 -810.91,1239.55 -991.34,1574.47 -234.65,435.55 -416.9,343.96 -416.9,343.96 L 6006.56,3562.4" id="path568" style="fill:#003977;fill-opacity:1;fill-rule:nonzero;stroke:none"/><path d="m 4400.5,5410.28 201.8,118.76 c 28.84,7.71 45.32,40.57 36.65,73.02 l -219.37,820.25 c -8.69,32.45 -39.38,52.69 -68.21,44.98 l -201.79,-118.76 c -28.84,-7.71 -45.33,-40.57 -36.65,-73.02 l 219.38,-820.25 c 8.67,-32.45 39.36,-52.7 68.19,-44.98" id="path570" style="fill:#003977;fill-opacity:1;fill-rule:nonzero;stroke:none"/><path d="m 4480.24,5675.83 c 34.9,-71.31 64.27,-328.89 44.98,-504.54 l -258.76,-83.39 c 0,0 5.21,236.87 -4.01,259.04 -59.08,141.76 -137.45,264.81 -202.07,403.49 -32.32,69.34 -35.99,376.14 -35.99,376.14 0,0 37.57,-19.76 52.7,-40.98 34.1,-47.79 47.75,-255.69 47.75,-255.69 l 69.93,203.81 92.21,108.34 c 0,0 19.42,-12.68 28.84,-55.19 8.18,-36.96 -53.95,-111.92 -53.95,-111.92 l 7.51,-114.68 148.68,226.09 c 0,0 42.51,-44.15 49.52,-63.97 7.48,-21.16 2.87,-89.3 2.87,-89.3 0,0 24.95,-19.33 27.67,-26.39 26.64,-69.04 -41.58,-182.4 -17.88,-230.86" id="path572" style="fill:#ffd0ce;fill-opacity:1;fill-rule:nonzero;stroke:none"/><path d="m 3853.31,4987.23 c -152.02,56.57 -483.16,-858.83 -536.5,-1224.61 -102.86,-705.37 0.63,-1127.99 47.63,-1364.3 27.58,-138.66 522.94,228.09 628.97,367.66 256.27,337.33 632.94,2383.19 632.94,2383.19 l -487.38,214.75 -334.31,-1291.95 c 0,0 80.95,-177.36 142.27,90 47.83,208.54 103.7,751.82 -93.62,825.26" id="path574" style="fill:#004381;fill-opacity:1;fill-rule:nonzero;stroke:none"/><path d="m 3135.82,7055.35 v -30 h 7.13 c 22.26,-0.01 42.63,9.17 57.15,23.73 14.56,14.53 23.74,34.89 23.73,57.15 0.01,22.27 -9.17,42.63 -23.73,57.15 -14.52,14.57 -34.89,23.75 -57.15,23.74 h -7.13 c -7.9,0 -15.63,-3.2 -21.22,-8.79 -5.59,-5.58 -8.78,-13.31 -8.78,-21.21 0,-7.9 3.19,-15.63 8.78,-21.21 5.59,-5.59 13.32,-8.79 21.22,-8.79 21.68,-0.01 41.51,8.93 55.65,23.12 14.19,14.14 23.13,33.98 23.12,55.66 0.01,21.69 -8.93,41.53 -23.12,55.67 -14.14,14.18 -33.97,23.13 -55.65,23.12 l -176.65,-0.04 v -30 l 26.12,-14.75 c 1.89,3.31 19.69,36.42 19.69,93.51 0,24.21 -3.22,52.64 -12.06,84.6 -3.43,12.43 -8.34,23.34 -14.64,32.61 -9.39,13.96 -22.1,23.79 -34.8,29.25 -12.72,5.54 -25.08,7.11 -35.47,7.12 -19.79,-0.11 -33.33,-5.38 -35.38,-6.08 -14.05,-5.36 -21.97,-20.36 -18.49,-34.98 l 9.35,2.23 -9.37,-2.13 0.02,-0.1 9.35,2.23 -9.37,-2.13 c 0.12,-0.47 3.27,-14.83 3.25,-33.36 0.04,-15.36 -2.22,-33.38 -8.76,-48.72 l 0.01,0.02 c -3.93,-9.44 -11.44,-20.43 -19.76,-29.95 -8.26,-9.55 -17.33,-17.82 -23.39,-22.63 -33.37,-26.6 -52.85,-55.99 -63.79,-78.94 -10.98,-22.98 -13.63,-39.57 -13.97,-41.85 l 29.69,-4.34 -0.31,30 -89.56,-0.91 c -16.48,-0.17 -29.69,-13.53 -29.69,-30 v -312.39 c 0,-7.9 3.2,-15.63 8.78,-21.22 5.59,-5.58 13.32,-8.78 21.22,-8.78 l 443.76,0.13 c 19.91,-0.01 38.14,8.21 51.11,21.23 13.02,12.97 21.24,31.2 21.23,51.11 0.01,19.92 -8.21,38.15 -21.23,51.13 -12.97,13.01 -31.2,21.23 -51.11,21.22 -7.9,0 -15.63,-3.2 -21.22,-8.78 -5.59,-5.59 -8.78,-13.32 -8.78,-21.22 0,-7.9 3.19,-15.62 8.78,-21.21 5.59,-5.59 13.32,-8.79 21.22,-8.79 h 24.22 c 21.68,0 41.51,8.93 55.65,23.12 14.19,14.14 23.13,33.98 23.12,55.66 0.01,21.69 -8.93,41.53 -23.12,55.67 -14.14,14.18 -33.97,23.13 -55.65,23.12 -7.9,0 -15.63,-3.2 -21.22,-8.79 -5.59,-5.59 -8.78,-13.31 -8.78,-21.21 0,-7.9 3.19,-15.63 8.78,-21.22 5.59,-5.58 13.32,-8.78 21.22,-8.78 v 30 -30 c 5.13,-0.01 9.69,-2.05 13.23,-5.55 3.5,-3.54 5.53,-8.09 5.54,-13.24 -0.01,-5.14 -2.04,-9.69 -5.54,-13.23 -3.54,-3.5 -8.09,-5.54 -13.23,-5.55 h -24.22 c -7.9,0 -15.63,-3.2 -21.22,-8.78 -5.59,-5.59 -8.78,-13.32 -8.78,-21.22 0,-7.9 3.19,-15.62 8.78,-21.21 5.59,-5.59 13.32,-8.79 21.22,-8.79 3.37,0 6.31,-1.32 8.68,-3.65 2.34,-2.37 3.65,-5.32 3.66,-8.7 -0.01,-3.37 -1.32,-6.32 -3.66,-8.69 -2.37,-2.33 -5.31,-3.65 -8.68,-3.65 l -413.77,-0.12 v 252.68 l 59.87,0.61 c 14.76,0.15 27.25,11.06 29.38,25.66 l -18.92,2.77 18.88,-3.05 0.04,0.28 -18.92,2.77 18.88,-3.05 v 0.02 c 0.13,0.78 2.28,12.22 10.27,27.96 8.02,15.77 21.72,35.82 45.57,54.86 8.97,7.17 20.17,17.42 31.3,30.22 11.07,12.82 22.08,28.01 29.7,45.9 l 0.01,0.02 c 10.8,25.74 13.43,51.33 13.47,72.05 -0.02,26.69 -4.52,45.64 -4.86,47.16 l -29.17,-6.95 10.69,-28.03 -4.21,11.02 3.9,-11.13 0.31,0.11 -4.21,11.02 3.9,-11.13 c 0.24,0.14 7.28,2.32 14.3,2.25 2.82,0 5.59,-0.3 8.02,-0.93 3.69,-1 6.46,-2.37 9.47,-5.32 2.96,-2.99 6.62,-8.15 9.59,-18.73 7.4,-26.78 9.89,-49.69 9.89,-68.6 0,-22.26 -3.46,-39.03 -6.67,-49.9 -1.61,-5.43 -3.16,-9.37 -4.19,-11.75 -0.52,-1.19 -0.9,-1.99 -1.1,-2.39 l -0.15,-0.29 13.25,-7.06 -13.07,7.39 -0.18,-0.33 13.25,-7.06 -13.07,7.39 c -5.22,-9.25 -5.14,-20.71 0.22,-29.88 5.35,-9.17 15.28,-14.88 25.91,-14.88 l 176.64,0.04 c 5.13,-0.01 9.69,-2.04 13.23,-5.54 3.5,-3.55 5.53,-8.1 5.54,-13.25 -0.01,-5.14 -2.04,-9.7 -5.54,-13.24 -3.54,-3.5 -8.1,-5.53 -13.23,-5.54 -7.9,0 -15.63,-3.2 -21.22,-8.79 -5.59,-5.58 -8.78,-13.31 -8.78,-21.21 0,-7.9 3.19,-15.63 8.78,-21.21 5.59,-5.59 13.32,-8.79 21.22,-8.79 h 7.13 c 5.72,-0.01 10.8,-2.28 14.72,-6.16 3.88,-3.92 6.15,-9.01 6.16,-14.73 -0.01,-5.72 -2.28,-10.8 -6.16,-14.72 -3.92,-3.88 -9,-6.15 -14.72,-6.16 h -7.13 c -7.9,0 -15.63,-3.2 -21.22,-8.79 -5.59,-5.59 -8.78,-13.31 -8.78,-21.21 0,-7.9 3.19,-15.63 8.78,-21.22 5.59,-5.58 13.32,-8.78 21.22,-8.78 v 30" id="path576" style="fill:#b4f1f4;fill-opacity:1;fill-rule:nonzero;stroke:none"/><path d="m 2142.01,5147.32 c 18.59,-36.15 29.07,-77.04 29.08,-120.58 -0.02,-72.99 -29.5,-138.79 -77.31,-186.65 -47.86,-47.81 -113.66,-77.29 -186.65,-77.31 -72.98,0.02 -138.78,29.5 -186.64,77.31 -47.81,47.87 -77.3,113.66 -77.32,186.65 0.02,72.98 29.51,138.78 77.32,186.65 47.86,47.81 113.66,77.29 186.64,77.31 48.54,-0.01 93.8,-13.04 132.84,-35.81 14.31,-8.35 32.68,-3.52 41.03,10.79 8.35,14.31 3.52,32.68 -10.79,41.03 -47.88,27.96 -103.73,44 -163.08,43.99 -89.36,0.01 -170.54,-36.31 -229.07,-94.89 -58.58,-58.53 -94.9,-139.71 -94.88,-229.07 -0.02,-89.36 36.3,-170.54 94.88,-229.07 58.53,-58.58 139.71,-94.9 229.07,-94.89 89.37,-0.01 170.55,36.31 229.08,94.89 58.57,58.53 94.89,139.71 94.87,229.07 0.01,53.23 -12.88,103.66 -35.72,148.03 -7.58,14.73 -25.67,20.53 -40.4,12.94 -14.74,-7.57 -20.53,-25.66 -12.95,-40.4" id="path578" style="fill:#b4f1f4;fill-opacity:1;fill-rule:nonzero;stroke:none"/><path d="m 1980.09,5228.88 c -21.03,7.59 -43.62,11.99 -67.09,12.63 -1.96,0.06 -3.95,0.09 -5.96,0.09 -57.92,0.01 -110.95,-23.14 -149.63,-60.76 -38.73,-37.58 -63.48,-90.02 -65.04,-148.24 -0.46,-16.56 12.61,-30.36 29.17,-30.81 16.57,-0.45 30.35,12.61 30.81,29.18 1.16,42.12 18.87,79.59 46.86,106.83 28.04,27.2 65.99,43.79 107.83,43.8 1.41,0 2.84,-0.02 4.31,-0.06 17.05,-0.47 33.26,-3.65 48.37,-9.1 15.58,-5.62 32.78,2.45 38.41,18.03 5.62,15.59 -2.46,32.78 -18.04,38.41 z m 74.08,-153.41 c 5.06,-15.29 7.81,-31.6 7.81,-48.62 0,-1.43 -0.02,-2.92 -0.06,-4.48 l 0.01,0.14 c -1.17,-42.12 -18.89,-79.58 -46.88,-106.82 -28.04,-27.2 -65.99,-43.79 -107.82,-43.8 -1.43,0 -2.9,0.02 -4.36,0.06 h 0.04 c -40.68,1.12 -76.98,17.68 -103.97,44.01 -11.86,11.58 -30.84,11.36 -42.43,-0.49 -11.58,-11.85 -11.36,-30.84 0.5,-42.43 37.24,-36.43 88.07,-59.55 144.26,-61.07 h 0.05 c 1.93,-0.05 3.9,-0.08 5.91,-0.08 57.91,-0.01 110.94,23.14 149.63,60.76 38.73,37.58 63.47,90.01 65.04,148.23 l 0.01,0.14 c 0.04,1.89 0.07,3.83 0.07,5.83 0,23.49 -3.81,46.23 -10.87,67.51 -5.22,15.73 -22.19,24.25 -37.92,19.03 -15.72,-5.22 -24.24,-22.19 -19.02,-37.92" id="path580" style="fill:#b4f1f4;fill-opacity:1;fill-rule:nonzero;stroke:none"/><path d="m 1957.44,5026.74 c -0.02,-13.98 -5.59,-26.37 -14.73,-35.57 -9.2,-9.14 -21.59,-14.71 -35.58,-14.73 -13.98,0.02 -26.37,5.58 -35.57,14.73 -9.15,9.2 -14.71,21.59 -14.73,35.57 0.02,13.98 5.58,26.37 14.73,35.57 9.2,9.15 21.59,14.72 35.57,14.73 16.57,0 30,13.43 30,30 0,16.57 -13.43,30 -30,30 -30.36,0.02 -58.13,-12.39 -77.99,-32.3 -19.92,-19.87 -32.33,-47.64 -32.31,-78 -0.02,-30.37 12.39,-58.13 32.31,-77.99 19.86,-19.92 47.63,-32.32 77.99,-32.31 30.37,-0.01 58.13,12.39 78,32.31 19.91,19.86 32.32,47.63 32.3,77.99 0,16.56 -13.43,29.99 -29.99,29.99 -16.57,0 -30,-13.43 -30,-29.99" id="path582" style="fill:#b4f1f4;fill-opacity:1;fill-rule:nonzero;stroke:none"/><path d="m 1925.25,5005.09 342.62,318.66 c 12.13,11.28 12.81,30.26 1.53,42.4 -11.28,12.13 -30.26,12.81 -42.4,1.53 l -342.62,-318.66 c -12.12,-11.28 -12.81,-30.26 -1.53,-42.4 11.29,-12.13 30.27,-12.82 42.4,-1.53" id="path584" style="fill:#b4f1f4;fill-opacity:1;fill-rule:nonzero;stroke:none"/><path d="m 2133.75,5357.97 -33.23,-113.69 c -2.9,-9.92 -0.47,-20.66 6.4,-28.38 6.87,-7.71 17.26,-11.35 27.45,-9.61 l 119.08,20.32 c 16.33,2.79 27.31,18.29 24.52,34.62 -2.78,16.33 -18.28,27.31 -34.61,24.53 l -71.78,-12.25 19.77,67.62 c 4.65,15.91 -4.48,32.57 -20.38,37.21 -15.91,4.65 -32.56,-4.47 -37.21,-20.37" id="path586" style="fill:#b4f1f4;fill-opacity:1;fill-rule:nonzero;stroke:none"/><path d="m 8067.58,5379.83 h -332.02 v 416.64 h 412.86 l 0.27,-237.73 c 0.01,-16.57 13.46,-29.99 30.03,-29.97 16.56,0.02 29.98,13.47 29.97,30.03 l -0.31,267.7 c -0.02,16.57 -13.43,29.97 -30,29.97 h -472.81 c -7.9,0 -15.63,-3.2 -21.21,-8.79 -5.59,-5.58 -8.79,-13.31 -8.79,-21.21 v -476.64 c 0,-7.9 3.2,-15.63 8.79,-21.21 5.58,-5.59 13.31,-8.79 21.21,-8.79 h 362.01 c 16.57,0 30,13.43 30,30 0,16.57 -13.43,30 -30,30" id="path588" style="fill:#b4f1f4;fill-opacity:1;fill-rule:nonzero;stroke:none"/><path d="m 7773.83,5873.93 v -77.86 c 0,-16.57 13.43,-30 30,-30 16.57,0 30,13.43 30,30 v 77.86 c 0,16.57 -13.43,30 -30,30 -16.57,0 -30,-13.43 -30,-30" id="path590" style="fill:#b4f1f4;fill-opacity:1;fill-rule:nonzero;stroke:none"/><path d="m 8048.46,5873.93 v -77.86 c 0,-16.57 13.43,-30 30,-30 16.57,0 30,13.43 30,30 v 77.86 c 0,16.57 -13.43,30 -30,30 -16.57,0 -30,-13.43 -30,-30" id="path592" style="fill:#b4f1f4;fill-opacity:1;fill-rule:nonzero;stroke:none"/><path d="m 7705.57,5682.37 h 472.81 c 16.57,0 30,13.43 30,30 0,16.57 -13.43,30 -30,30 h -472.81 c -16.57,0 -30,-13.43 -30,-30 0,-16.57 13.43,-30 30,-30" id="path594" style="fill:#b4f1f4;fill-opacity:1;fill-rule:nonzero;stroke:none"/><path d="m 8312.68,5424.77 h -30 c -0.02,-28.81 -11.6,-54.62 -30.46,-73.54 -18.91,-18.86 -44.72,-30.44 -73.53,-30.46 -28.82,0.02 -54.63,11.6 -73.55,30.46 -18.87,18.92 -30.44,44.73 -30.46,73.54 0.02,28.81 11.59,54.62 30.46,73.54 18.92,18.87 44.73,30.44 73.55,30.46 28.81,-0.02 54.62,-11.59 73.53,-30.46 18.86,-18.92 30.44,-44.73 30.46,-73.54 h 30 30 c 0.02,45.19 -18.4,86.38 -48.03,115.96 -29.59,29.64 -70.77,48.06 -115.96,48.04 -45.2,0.02 -86.39,-18.4 -115.97,-48.03 -29.63,-29.59 -48.06,-70.78 -48.04,-115.97 -0.02,-45.19 18.41,-86.38 48.04,-115.96 29.58,-29.63 70.77,-48.05 115.97,-48.04 45.19,-0.01 86.37,18.41 115.96,48.04 29.63,29.58 48.05,70.77 48.03,115.96 h -30" id="path596" style="fill:#b4f1f4;fill-opacity:1;fill-rule:nonzero;stroke:none"/><path d="m 8148.69,5483.41 v -58.64 c 0,-7.9 3.19,-15.62 8.78,-21.21 l 32.68,-32.68 c 11.71,-11.72 30.7,-11.72 42.42,-0.01 11.72,11.72 11.72,30.71 0.01,42.43 l -23.9,23.9 v 46.21 c 0,16.56 -13.43,29.99 -29.99,29.99 -16.57,0 -30,-13.43 -30,-29.99" id="path598" style="fill:#b4f1f4;fill-opacity:1;fill-rule:nonzero;stroke:none"/><path d="m 7923.13,5496.47 v 30 h -86.02 v 56.02 h 56.02 v -86.02 h 30 v 30 -30 h 30 v 116.02 c 0,7.9 -3.2,15.63 -8.79,21.21 -5.59,5.59 -13.31,8.79 -21.21,8.79 h -116.02 c -7.9,0 -15.63,-3.2 -21.21,-8.79 -5.59,-5.58 -8.79,-13.31 -8.79,-21.21 v -116.02 c 0,-7.9 3.2,-15.63 8.79,-21.21 5.58,-5.59 13.31,-8.79 21.21,-8.79 h 116.02 c 7.9,0 15.62,3.2 21.21,8.79 5.59,5.58 8.79,13.31 8.79,21.21 h -30" id="path600" style="fill:#b4f1f4;fill-opacity:1;fill-rule:nonzero;stroke:none"/><path d="m 6607.55,7830.61 v 30 h -136.57 c -70.49,-0.01 -135.23,-28.08 -182.31,-73.78 -47.1,-45.63 -76.85,-109.47 -76.83,-180.2 0,-61.33 23.31,-116.92 59.06,-159.94 35.81,-43.04 84.09,-74.22 136.63,-87.37 l 7.25,29.11 h -30 v -124.74 c 0,-11.76 6.87,-22.44 17.57,-27.31 10.71,-4.87 23.26,-3.04 32.13,4.68 l 118.73,103.4 h 54.34 c 70.86,-0.01 135.11,29.46 181.28,76.28 46.22,46.78 74.89,111.33 74.89,181.79 0,70.47 -28.67,135.02 -74.89,181.8 -46.17,46.82 -110.42,76.29 -181.28,76.28 v -30 -30 c 54.07,-0.02 102.9,-22.34 138.58,-58.43 35.64,-36.12 57.6,-85.61 57.6,-139.65 0,-54.03 -21.96,-103.52 -57.6,-139.64 -35.68,-36.09 -84.51,-58.41 -138.58,-58.43 h -65.57 c -7.19,0 -14.29,-2.65 -19.71,-7.37 l -77.5,-67.49 0.01,58.83 c 0,13.77 -9.39,25.79 -22.75,29.11 -39.01,9.65 -77.2,33.94 -104.97,67.48 -27.84,33.57 -45.22,75.68 -45.22,121.61 0.02,53.76 22.38,101.91 58.61,137.14 36.26,35.17 86.1,56.84 140.53,56.84 h 136.57 v 30" id="path602" style="fill:#b4f1f4;fill-opacity:1;fill-rule:nonzero;stroke:none"/><path d="m 6676.31,7593.1 h -30 15.7 l -11.09,11.12 c -2.79,-2.74 -4.63,-6.86 -4.61,-11.12 h 15.7 l -11.09,11.12 11.03,-11.06 v 15.62 c -4.19,0.02 -8.28,-1.78 -11.03,-4.56 l 11.03,-11.06 v 15.62 -15.61 l 11.01,11.05 c -2.74,2.78 -6.81,4.57 -11.01,4.56 v -15.61 l 11.01,11.05 -11.08,-11.12 h 15.7 c 0.02,4.27 -1.83,8.4 -4.62,11.12 l -11.08,-11.12 h 15.7 -15.7 l 11.09,-11.12 c 2.79,2.72 4.63,6.85 4.61,11.12 h -15.7 l 11.09,-11.12 -11.02,11.05 v -15.61 c 4.2,-0.02 8.27,1.78 11.02,4.56 l -11.02,11.05 v -15.61 15.62 l -11.03,-11.06 c 2.75,-2.79 6.84,-4.58 11.03,-4.56 v 15.62 l -11.03,-11.06 11.09,11.12 h -15.7 c -0.02,-4.26 1.82,-8.38 4.61,-11.12 l 11.09,11.12 h -15.7 30 30 c 0.02,12.16 -5.03,23.45 -13.02,31.37 -7.95,7.97 -19.22,12.96 -31.34,12.95 -12.14,0.01 -23.4,-4.99 -31.34,-12.95 -7.99,-7.91 -13.05,-19.2 -13.03,-31.37 -0.02,-12.18 5.05,-23.47 13.04,-31.38 7.93,-7.96 19.19,-12.95 31.33,-12.94 12.12,-0.02 23.39,4.98 31.34,12.95 7.99,7.91 13.04,19.2 13.02,31.37 h -30" id="path604" style="fill:#b4f1f4;fill-opacity:1;fill-rule:nonzero;stroke:none"/><path d="m 6552.15,7593.1 h -30 15.71 l -11.09,11.12 c -2.79,-2.72 -4.64,-6.85 -4.62,-11.12 h 15.71 l -11.09,11.12 11.01,-11.05 0.01,15.61 c -4.21,0.01 -8.28,-1.78 -11.02,-4.56 l 11.01,-11.05 0.01,15.61 v -15.6 l 11,11.05 c -2.75,2.78 -6.82,4.56 -11,4.55 v -15.6 l 11,11.05 -11.09,-11.13 h 15.71 c 0.02,4.27 -1.83,8.4 -4.62,11.13 l -11.09,-11.13 h 15.71 -15.7 l 11.08,-11.13 c 2.8,2.73 4.64,6.86 4.62,11.13 h -15.7 l 11.08,-11.13 -11,11.05 v -15.6 c 4.18,-0.02 8.26,1.77 11,4.55 l -11,11.05 v -15.6 15.61 l -11.03,-11.05 c 2.75,-2.78 6.82,-4.58 11.03,-4.56 v 15.61 l -11.03,-11.05 11.09,11.12 h -15.7 c -0.02,-4.27 1.82,-8.4 4.61,-11.12 l 11.09,11.12 h -15.7 30 30 c 0.02,12.17 -5.04,23.46 -13.03,31.37 -7.94,7.96 -19.2,12.96 -31.33,12.95 -12.13,0.01 -23.4,-4.98 -31.34,-12.94 -8,-7.92 -13.06,-19.21 -13.04,-31.38 -0.02,-12.18 5.05,-23.47 13.04,-31.38 7.95,-7.96 19.21,-12.95 31.34,-12.94 12.13,-0.01 23.39,4.98 31.33,12.94 7.98,7.91 13.05,19.2 13.03,31.38 h -30" id="path606" style="fill:#b4f1f4;fill-opacity:1;fill-rule:nonzero;stroke:none"/><path d="m 6427.98,7593.1 h -30 15.7 l -11.09,11.12 c -2.79,-2.74 -4.63,-6.86 -4.61,-11.12 h 15.7 l -11.09,11.12 11.03,-11.06 v 15.62 c -4.19,0.02 -8.28,-1.78 -11.03,-4.56 l 11.03,-11.06 v 15.62 -15.61 l 11.02,11.05 c -2.75,2.78 -6.84,4.58 -11.02,4.56 v -15.61 l 11.02,11.05 -11.1,-11.12 h 15.71 c 0.02,4.26 -1.82,8.38 -4.61,11.12 l -11.1,-11.12 h 15.71 -15.7 l 11.09,-11.12 c 2.79,2.74 4.63,6.86 4.61,11.12 h -15.7 l 11.09,-11.12 -11.03,11.05 0.01,-15.61 c 4.18,-0.02 8.27,1.77 11.02,4.56 l -11.03,11.05 0.01,-15.61 v 15.62 l -11.03,-11.06 c 2.75,-2.79 6.84,-4.58 11.03,-4.56 v 15.62 l -11.03,-11.06 11.09,11.12 h -15.7 c -0.02,-4.26 1.82,-8.38 4.61,-11.12 l 11.09,11.12 h -15.7 30 30 c 0.02,12.16 -5.03,23.45 -13.02,31.37 -7.95,7.97 -19.22,12.96 -31.34,12.95 -12.13,0.01 -23.4,-4.98 -31.35,-12.95 -7.99,-7.92 -13.04,-19.21 -13.02,-31.37 -0.02,-12.17 5.03,-23.46 13.03,-31.37 7.94,-7.97 19.21,-12.97 31.34,-12.95 12.12,-0.02 23.39,4.98 31.34,12.95 7.99,7.91 13.04,19.2 13.02,31.37 h -30" id="path608" style="fill:#b4f1f4;fill-opacity:1;fill-rule:nonzero;stroke:none"/><path d="m 2873.25,2637.86 v 30 h -426.12 c -2.27,0.02 -4.05,0.84 -5.57,2.31 -1.47,1.51 -2.28,3.29 -2.3,5.56 v 287.9 c 0.02,2.27 0.83,4.05 2.3,5.56 1.52,1.48 3.3,2.29 5.57,2.31 h 426.12 c 2.27,-0.02 4.04,-0.83 5.56,-2.31 1.47,-1.51 2.29,-3.29 2.31,-5.56 v -287.9 c -0.02,-2.27 -0.84,-4.05 -2.31,-5.56 -1.52,-1.47 -3.29,-2.29 -5.56,-2.31 v -30 -30 c 18.64,-0.01 35.8,7.64 47.99,19.88 12.23,12.19 19.89,29.34 19.87,47.99 v 287.9 c 0.02,18.65 -7.64,35.81 -19.87,47.99 -12.19,12.24 -29.35,19.89 -47.99,19.88 h -426.12 c -18.64,0.01 -35.8,-7.64 -47.99,-19.88 -12.24,-12.18 -19.9,-29.34 -19.88,-47.99 v -287.9 c -0.02,-18.65 7.64,-35.8 19.88,-47.99 12.19,-12.24 29.35,-19.89 47.99,-19.88 h 426.12 v 30" id="path610" style="fill:#b4f1f4;fill-opacity:1;fill-rule:nonzero;stroke:none"/><path d="m 2409.26,2879.79 h 386.38 c 16.57,0 30,13.44 30,30 0,16.57 -13.43,30 -30,30 h -386.38 c -16.57,0 -30,-13.43 -30,-30 0,-16.56 13.43,-30 30,-30" id="path612" style="fill:#b4f1f4;fill-opacity:1;fill-rule:nonzero;stroke:none"/><path d="m 2409.26,2794.36 h 386.38 c 16.57,0 30,13.43 30,30 0,16.56 -13.43,30 -30,30 h -386.38 c -16.57,0 -30,-13.44 -30,-30 0,-16.57 13.43,-30 30,-30" id="path614" style="fill:#b4f1f4;fill-opacity:1;fill-rule:nonzero;stroke:none"/><path d="m 2911.12,2774.48 h -115.48 c -7.9,0 -15.63,-3.2 -21.22,-8.78 -5.58,-5.59 -8.78,-13.32 -8.78,-21.22 v -101.16 c 0,-16.57 13.43,-30 30,-30 16.57,0 30,13.43 30,30 l -0.01,71.17 85.49,-0.01 c 16.57,0 29.99,13.44 29.99,30 0,16.57 -13.42,30 -29.99,30" id="path616" style="fill:#b4f1f4;fill-opacity:1;fill-rule:nonzero;stroke:none"/><path d="m 2962.5,2730.92 42.57,-123.89 c 1.18,-3.44 1.71,-6.83 1.72,-10.2 0,-6.44 -2.05,-12.8 -5.74,-18.05 -3.71,-5.25 -8.86,-9.32 -15.45,-11.6 l -358.55,-123.21 c -3.44,-1.18 -6.84,-1.72 -10.2,-1.72 -6.45,-0.01 -12.81,2.05 -18.06,5.73 -5.25,3.71 -9.31,8.86 -11.58,15.45 l -32.73,95.23 c -5.39,15.67 -22.46,24.01 -38.12,18.62 -15.67,-5.38 -24.01,-22.45 -18.62,-38.12 l 32.72,-95.22 c 6.45,-18.84 18.66,-34.42 33.87,-45.07 15.2,-10.67 33.49,-16.61 52.52,-16.62 9.87,0 19.92,1.62 29.69,4.97 l 358.56,123.22 c 18.85,6.46 34.42,18.67 45.06,33.87 10.67,15.21 16.62,33.49 16.62,52.52 0.01,9.86 -1.6,19.92 -4.97,29.7 l -42.57,123.89 c -5.38,15.67 -22.45,24 -38.12,18.62 -15.67,-5.39 -24,-22.45 -18.62,-38.12" id="path618" style="fill:#b4f1f4;fill-opacity:1;fill-rule:nonzero;stroke:none"/><path d="m 7760.57,3533.33 c -4.83,-2.24 -10.3,-1.05 -14.33,2.43 -8.77,7.56 -23.37,12.78 -37.19,12.78 -21.03,0 -40.28,-6.07 -40.28,-23.8 0,-16.72 20.01,-19.76 41.28,-22.29 37.01,-4.56 76.52,-11.15 76.52,-55.74 0,-30.44 -22.68,-49.03 -49.82,-54.36 -5.96,-1.17 -10.22,-6.45 -10.22,-12.54 v -1.26 c 0,-7.12 -5.77,-12.89 -12.9,-12.89 h -6.37 c -7.12,0 -12.9,5.77 -12.9,12.89 0,6.11 -4.27,11.46 -10.27,12.57 -19.37,3.59 -37.01,12.54 -48.67,28.4 -4.81,6.55 -1.78,16.02 5.71,19.19 l 6.51,2.76 c 5.38,2.28 11.35,0.44 15.17,-3.99 9.79,-11.42 28.02,-18.37 45.22,-18.37 22.81,0 43.83,7.85 43.83,27.6 0,16.72 -21.02,22.8 -44.58,25.58 -36.22,4.06 -72.83,10.41 -71.68,52.45 1.23,45.25 45.91,49.94 55.51,55.27 1.9,1.06 2.67,6.95 2.98,11.99 0.26,4.25 3.77,7.53 8.02,7.53 0,0 17.34,2.02 21.65,-2.29 2.18,-2.18 2.77,-7.32 2.77,-10.02 0.01,-5.92 4.03,-11.07 9.78,-12.46 13.07,-3.14 25.03,-8.81 34.28,-19.56 5.36,-6.24 2.58,-16.04 -4.88,-19.49 l -5.14,-2.38" id="path620" style="fill:#b4f1f4;fill-opacity:1;fill-rule:nonzero;stroke:none"/><path d="m 7760.57,3533.33 -2.09,4.54 c -1.01,-0.47 -2.03,-0.68 -3.08,-0.68 -1.96,0 -4.1,0.79 -5.9,2.35 -10,8.53 -25.38,13.94 -40.45,14 -11,-0.02 -21.69,-1.51 -30.27,-5.78 -4.27,-2.15 -8.06,-5.06 -10.78,-8.97 -2.72,-3.88 -4.25,-8.72 -4.23,-14.05 -0.03,-5.17 1.66,-9.85 4.6,-13.37 4.45,-5.3 10.89,-8.06 17.97,-10 7.12,-1.91 15.1,-2.93 23.12,-3.89 18.4,-2.23 37.05,-5.09 50.36,-12.29 6.67,-3.6 11.99,-8.15 15.74,-14.22 3.73,-6.08 5.99,-13.83 6.01,-24.26 -0.04,-13.96 -5.09,-24.77 -13.28,-33.07 -8.2,-8.27 -19.74,-13.88 -32.5,-16.38 -8.36,-1.65 -14.27,-9.01 -14.26,-17.45 v -1.26 c -0.01,-4.36 -3.54,-7.88 -7.9,-7.89 h -6.37 c -4.36,0.01 -7.89,3.54 -7.9,7.89 0,8.44 -5.89,15.91 -14.37,17.49 -18.47,3.44 -34.8,11.84 -45.54,26.44 -0.93,1.28 -1.35,2.68 -1.36,4.16 -0.01,3.02 1.9,6.19 4.98,7.47 l 6.52,2.76 c 0.96,0.41 1.9,0.58 2.85,0.59 2.28,0 4.73,-1.11 6.58,-3.25 11.2,-12.88 30.49,-20.02 49.01,-20.1 11.97,0.02 23.63,1.99 32.87,7.01 4.6,2.51 8.62,5.86 11.49,10.19 2.87,4.31 4.48,9.58 4.47,15.4 0.02,5.24 -1.74,10.02 -4.73,13.76 -4.5,5.64 -11.19,9.12 -18.82,11.67 -7.67,2.52 -16.42,4.05 -25.44,5.12 h -0.04 c -17.72,1.96 -35.18,4.59 -47.45,11.1 -6.16,3.25 -10.99,7.34 -14.38,12.77 -3.37,5.43 -5.42,12.35 -5.43,21.69 l 0.02,1.69 0.01,0.09 c 0.29,10.5 3.03,18.26 7.02,24.38 5.98,9.14 15.13,14.74 24,18.54 4.42,1.89 8.72,3.32 12.46,4.54 3.77,1.25 6.83,2.16 9.45,3.58 2.08,1.24 2.78,2.72 3.37,3.96 0.83,1.91 1.23,3.85 1.55,5.92 0.32,2.05 0.51,4.19 0.63,6.18 0.1,1.6 1.39,2.82 3.03,2.83 h 0.3 l 0.29,0.03 0.61,0.07 c 1.26,0.12 4.29,0.37 7.55,0.37 2.3,0.01 4.74,-0.13 6.61,-0.47 0.93,-0.16 1.7,-0.37 2.21,-0.57 l 0.52,-0.25 0.07,-0.05 0.24,0.33 -0.28,-0.29 0.04,-0.04 0.24,0.33 -0.28,-0.29 0.08,0.08 -0.09,-0.07 0.01,-0.01 0.08,0.08 -0.09,-0.07 c 0.12,-0.09 0.67,-1.26 0.92,-2.63 0.28,-1.37 0.39,-2.92 0.39,-3.86 0.01,-8.21 5.6,-15.39 13.61,-17.32 12.44,-3.01 23.25,-8.21 31.66,-17.96 1.09,-1.28 1.56,-2.71 1.57,-4.31 0.02,-2.89 -1.82,-6.06 -4.77,-7.39 l -5.13,-2.38 2.1,-4.53 2.1,-4.54 5.14,2.38 c 6.64,3.12 10.54,9.67 10.56,16.46 0.01,3.75 -1.26,7.67 -3.99,10.83 -10.09,11.75 -23.21,17.89 -36.9,21.16 -3.49,0.84 -5.95,3.97 -5.96,7.61 0,1.69 -0.16,3.91 -0.68,6.28 -0.57,2.35 -1.28,4.9 -3.55,7.27 -2.54,2.4 -5.3,3.04 -8.07,3.6 -2.78,0.49 -5.68,0.62 -8.36,0.62 -5.02,0 -9.21,-0.5 -9.33,-0.51 l 0.58,-4.96 v 5 c -6.88,0.01 -12.59,-5.34 -13.02,-12.22 -0.13,-2.38 -0.4,-4.95 -0.79,-6.77 -0.18,-0.9 -0.41,-1.62 -0.54,-1.9 l -0.05,-0.11 2.09,-1.18 -1.12,2.03 -0.97,-0.85 2.09,-1.18 -1.12,2.03 c -0.63,-0.36 -2.22,-1 -4.27,-1.68 -7.28,-2.5 -20.26,-6 -31.77,-14.37 -11.56,-8.29 -21.56,-22.18 -22.04,-43.46 l 5,-0.13 -4.99,0.22 -0.04,-2.14 c -0.01,-10.81 2.45,-19.79 6.94,-26.98 6.77,-10.84 17.69,-17.19 29.84,-21.18 12.21,-4.01 25.92,-5.82 39.37,-7.33 h -0.03 c 11.53,-1.34 22.27,-3.57 29.54,-7.1 3.64,-1.75 6.35,-3.79 8.05,-5.95 1.69,-2.19 2.55,-4.44 2.58,-7.57 -0.01,-4.05 -1.03,-7.17 -2.81,-9.88 -2.66,-4.04 -7.39,-7.28 -13.76,-9.47 -6.33,-2.18 -14.14,-3.25 -22.26,-3.25 -15.89,-0.08 -33.05,6.69 -41.43,16.62 -3.58,4.15 -8.68,6.72 -14.16,6.73 -2.26,0 -4.57,-0.45 -6.76,-1.39 l -6.51,-2.75 c -6.94,-2.97 -11.06,-9.7 -11.07,-16.68 -0.01,-3.46 1.05,-7.04 3.29,-10.08 12.59,-17.12 31.53,-26.61 51.78,-30.35 3.54,-0.64 6.19,-3.88 6.19,-7.66 0,-9.89 8.02,-17.89 17.9,-17.89 h 6.37 c 9.89,0 17.89,8.01 17.89,17.89 v 1.26 c 0.01,3.74 2.62,6.94 6.19,7.64 14.38,2.82 27.75,9.17 37.67,19.14 9.93,9.94 16.22,23.65 16.18,40.12 0.02,11.88 -2.66,21.67 -7.49,29.5 -7.26,11.8 -18.99,18.72 -31.95,23.09 -13.01,4.39 -27.52,6.38 -41.46,8.11 -10.59,1.24 -20.63,2.68 -27.32,5.48 -3.35,1.38 -5.77,3.04 -7.25,4.85 -1.48,1.83 -2.29,3.81 -2.32,7 0.02,3.53 0.9,6.1 2.44,8.34 2.29,3.33 6.51,6.03 12.33,7.83 5.79,1.8 12.98,2.64 20.51,2.64 12.56,0.06 26.37,-4.98 33.92,-11.58 3.45,-2.98 7.82,-4.77 12.43,-4.78 2.43,0 4.92,0.52 7.26,1.59 l -2.09,4.55" id="path622" style="fill:#b4f1f4;fill-opacity:1;fill-rule:nonzero;stroke:none"/><path d="m 7901.92,3252.47 h 87.17 c 7.16,-0.02 13.37,-2.82 18.09,-7.5 4.68,-4.73 7.48,-10.94 7.5,-18.1 -0.02,-7.17 -2.82,-13.38 -7.5,-18.11 -4.73,-4.68 -10.93,-7.48 -18.09,-7.5 h -212 c -7.16,0.02 -13.37,2.82 -18.1,7.5 -4.68,4.73 -7.49,10.94 -7.51,18.11 v 63.18 c 0,16.57 -13.43,30 -29.99,30 -16.57,0 -30,-13.43 -30,-30 v -63.18 c -0.02,-23.55 9.63,-45.14 25.07,-60.54 15.4,-15.44 36.99,-25.08 60.53,-25.07 h 212 c 23.54,-0.01 45.13,9.63 60.52,25.08 15.44,15.39 25.09,36.98 25.07,60.53 0.02,23.54 -9.63,45.13 -25.07,60.52 -15.4,15.45 -36.98,25.09 -60.52,25.08 h -87.17 c -16.57,0 -30,-13.44 -30,-30 0,-16.57 13.43,-30 30,-30" id="path624" style="fill:#b4f1f4;fill-opacity:1;fill-rule:nonzero;stroke:none"/><path d="m 7901.85,3252.47 h 87.24 c 23.54,-0.02 45.13,9.63 60.52,25.07 15.44,15.4 25.09,36.99 25.07,60.53 0.02,23.54 -9.63,45.13 -25.07,60.53 -15.39,15.45 -36.98,25.09 -60.52,25.08 h -105.65 c -16.57,0 -30,-13.43 -30,-30 0,-16.57 13.43,-30 30,-30 h 105.65 c 7.16,-0.02 13.36,-2.82 18.09,-7.5 4.68,-4.73 7.48,-10.94 7.5,-18.11 -0.02,-7.16 -2.82,-13.38 -7.5,-18.11 -4.73,-4.68 -10.93,-7.48 -18.09,-7.49 h -87.24 c -16.57,0 -30,-13.44 -30,-30 0,-16.57 13.43,-30 30,-30" id="path626" style="fill:#b4f1f4;fill-opacity:1;fill-rule:nonzero;stroke:none"/><path d="m 7883.44,3363.68 h 105.65 c 23.54,-0.02 45.12,9.63 60.52,25.07 15.44,15.4 25.09,36.98 25.07,60.53 0.02,23.54 -9.63,45.13 -25.07,60.53 -15.39,15.44 -36.98,25.09 -60.52,25.07 h -77.69 c -16.57,0 -30,-13.43 -30,-30 0,-16.56 13.43,-30 30,-30 h 77.69 c 7.16,-0.01 13.36,-2.81 18.09,-7.49 4.68,-4.73 7.48,-10.95 7.5,-18.11 -0.02,-7.17 -2.82,-13.38 -7.5,-18.11 -4.72,-4.67 -10.93,-7.48 -18.09,-7.49 h -105.65 c -16.57,0 -30,-13.43 -30,-30 0,-16.57 13.43,-30 30,-30" id="path628" style="fill:#b4f1f4;fill-opacity:1;fill-rule:nonzero;stroke:none"/><path d="m 7899.83,3482.18 h -30 c -0.02,-45.02 -18.16,-85.5 -47.65,-115.03 -29.53,-29.48 -70.01,-47.63 -115.03,-47.64 -45.01,0.01 -85.49,18.16 -115.03,47.64 -29.48,29.53 -47.63,70.01 -47.65,115.03 0.02,45.01 18.17,85.49 47.65,115.03 29.54,29.48 70.02,47.63 115.03,47.64 45.02,-0.01 85.5,-18.16 115.03,-47.64 29.49,-29.54 47.63,-70.02 47.65,-115.03 h 30 29.99 c 0.02,61.39 -24.96,117.25 -65.21,157.45 -40.2,40.25 -96.06,65.24 -157.46,65.22 -61.39,0.02 -117.25,-24.97 -157.45,-65.22 -40.25,-40.2 -65.24,-96.06 -65.22,-157.45 -0.02,-61.4 24.97,-117.25 65.22,-157.45 40.2,-40.25 96.06,-65.24 157.45,-65.22 61.4,-0.02 117.25,24.97 157.46,65.22 40.25,40.2 65.23,96.05 65.21,157.45 h -29.99" id="path630" style="fill:#b4f1f4;fill-opacity:1;fill-rule:nonzero;stroke:none"/><path d="m 1625.89,1400.74 -6.39,39.49 58.83,9.54 6.4,-39.5 -58.84,-9.53" id="path632" style="fill:#dcf5f9;fill-opacity:1;fill-rule:nonzero;stroke:none"/><path d="m 1684.68,1464.85 -9.34,57.75 39.48,6.38 9.35,-57.74 -39.49,-6.39" id="path634" style="fill:#dcf5f9;fill-opacity:1;fill-rule:nonzero;stroke:none"/><path d="m 1749.05,1420.67 -6.4,39.5 55.66,9.01 6.39,-39.49 -55.65,-9.02" id="path636" style="fill:#dcf5f9;fill-opacity:1;fill-rule:nonzero;stroke:none"/><path d="m 1705.11,1338.64 -9.87,61.04 39.48,6.38 9.87,-61.03 -39.48,-6.39" id="path638" style="fill:#dcf5f9;fill-opacity:1;fill-rule:nonzero;stroke:none"/><path d="m 2388.02,9206.8 -32.59,23.2 82.42,115.75 121.18,-81.67 -22.36,-33.17 -88.85,59.88 -59.8,-83.99" id="path640" style="fill:#dcf5f9;fill-opacity:1;fill-rule:nonzero;stroke:none"/><path d="m 1210.28,3355.79 -6.4,39.49 58.84,9.53 6.4,-39.49 -58.84,-9.53" id="path642" style="fill:#dcf5f9;fill-opacity:1;fill-rule:nonzero;stroke:none"/><path d="m 1269.07,3419.9 -9.35,57.75 39.48,6.38 9.35,-57.74 -39.48,-6.39" id="path644" style="fill:#dcf5f9;fill-opacity:1;fill-rule:nonzero;stroke:none"/><path d="m 1333.43,3375.72 -6.39,39.49 55.65,9.02 6.4,-39.49 -55.66,-9.02" id="path646" style="fill:#dcf5f9;fill-opacity:1;fill-rule:nonzero;stroke:none"/><path d="m 1289.5,3293.69 -9.88,61.04 39.49,6.38 9.87,-61.03 -39.48,-6.39" id="path648" style="fill:#dcf5f9;fill-opacity:1;fill-rule:nonzero;stroke:none"/><path d="m 9150.42,8947.75 85.77,-12.27 11.69,81.72 -85.77,12.27 z m 119.69,-57.54 -164.96,23.62 23.04,160.9 164.95,-23.6 -23.03,-160.92" id="path650" style="fill:#dcf5f9;fill-opacity:1;fill-rule:nonzero;stroke:none"/><path d="m 7466.4,8479.9 -6.4,39.49 58.85,9.53 6.4,-39.49 -58.85,-9.53" id="path652" style="fill:#dcf5f9;fill-opacity:1;fill-rule:nonzero;stroke:none"/><path d="m 7525.2,8544.01 -9.35,57.74 39.49,6.39 9.34,-57.74 -39.48,-6.39" id="path654" style="fill:#dcf5f9;fill-opacity:1;fill-rule:nonzero;stroke:none"/><path d="m 7589.57,8499.83 -6.4,39.49 55.64,9.01 6.4,-39.49 -55.64,-9.01" id="path656" style="fill:#dcf5f9;fill-opacity:1;fill-rule:nonzero;stroke:none"/><path d="m 7545.63,8417.8 -9.88,61.03 39.48,6.39 9.88,-61.04 -39.48,-6.38" id="path658" style="fill:#dcf5f9;fill-opacity:1;fill-rule:nonzero;stroke:none"/><path d="m 8641.11,1298.62 c -9.06,0 -17.96,-2.52 -25.84,-7.43 -11.13,-6.92 -18.91,-17.77 -21.88,-30.55 -6.13,-26.35 10.33,-52.8 36.69,-58.93 26.39,-6.12 52.81,10.33 58.94,36.68 6.13,26.36 -10.33,52.8 -36.69,58.93 -3.73,0.87 -7.49,1.3 -11.22,1.3 z m 0.09,-138.2 c -6.66,0 -13.42,0.75 -20.19,2.32 -47.84,11.15 -77.7,59.13 -66.57,106.97 5.39,23.18 19.49,42.87 39.69,55.45 20.2,12.55 44.09,16.53 67.27,11.13 47.84,-11.14 77.71,-59.12 66.57,-106.96 -9.56,-41.08 -46.3,-68.91 -86.77,-68.91" id="path660" style="fill:#dcf5f9;fill-opacity:1;fill-rule:nonzero;stroke:none"/><path d="m 1672.25,8092.56 c -9.06,0 -17.96,-2.52 -25.84,-7.43 -11.13,-6.92 -18.91,-17.77 -21.87,-30.55 -6.14,-26.35 10.32,-52.8 36.69,-58.93 26.38,-6.12 52.8,10.33 58.93,36.68 6.13,26.36 -10.33,52.8 -36.69,58.93 -3.73,0.87 -7.49,1.3 -11.22,1.3 z m 0.09,-138.2 c -6.66,0 -13.42,0.75 -20.19,2.32 -47.84,11.15 -77.7,59.13 -66.57,106.97 5.39,23.18 19.49,42.87 39.69,55.45 20.2,12.56 44.09,16.53 67.27,11.13 47.85,-11.14 77.71,-59.12 66.58,-106.96 -9.56,-41.08 -46.3,-68.91 -86.78,-68.91" id="path662" style="fill:#dcf5f9;fill-opacity:1;fill-rule:nonzero;stroke:none"/></g></g></svg>