<?xml version="1.0" ?><svg width="340px" height="340px" viewBox="0 0 340 340" id="icons" xmlns="http://www.w3.org/2000/svg"><title/><path d="M171.415,301.451s5.706,5.25,10.438,15.654a7.052,7.052,0,0,0,9.443,3.466h0a7.048,7.048,0,0,0,3.517-8.982,49.92,49.92,0,0,0-18.665-23.36Z" style="fill:#ffc08d"/><path d="M164.722,289.209a58.957,58.957,0,0,0-17.77,19.476,6.787,6.787,0,0,0,1.566,8.346h0a6.792,6.792,0,0,0,10.123-1.427c3.006-4.6,7.512-10.5,12.774-14.153Z" style="fill:#ffc08d"/><path d="M234.613,208.287,170,277.722l-64.613-69.435-12.4-1.192S94.027,292.229,170,298.468c75.973-6.239,77.764-93.669,77.764-93.669Z" style="fill:#ffc08d"/><rect height="32.165" rx="7.274" style="fill:#ffc08d" width="14.548" x="162.726" y="272.409"/><path d="M189.719,77.857a12.7,12.7,0,0,1-5.425-4.342l-.954-1.335a12.769,12.769,0,0,0-10.39-5.347h-5.9a12.769,12.769,0,0,0-10.39,5.347l-.954,1.335a12.7,12.7,0,0,1-5.425,4.342,180.287,180.287,0,0,0-19.136,9.5s-41.405,29.459-53.4,55.9c0,0,20.3,32.925,92.251,32.925S262.943,142.8,262.943,142.8c-11.371-25.067-51.2-53.77-51.2-53.77A182.3,182.3,0,0,0,189.719,77.857Z" style="fill:#667387"/><path d="M211.739,89.034c.127,8.706-1.849,32.441-26.21,40.888a43.244,43.244,0,0,1-28.816-.208c-25.593-9.269-25.918-35.643-25.568-42.362-18.262,10.411-42.929,28.5-54.92,54.94,0,0,21.819,33.88,93.775,33.88s93.775-33.88,93.775-33.88C252.4,117.222,229.636,99.661,211.739,89.034Z" style="fill:#363b42"/><path d="M53.6,182.7s-12.1,10.976-13.874,32.017H97.894S71.213,182.963,53.6,182.7Z" style="fill:#363b42"/><path d="M87.338,208.553l-20.9-2.1A113.506,113.506,0,0,0,40.4,208.886c-3.624.837-7.092,3.14-8.241,6.678a72.6,72.6,0,0,0-2.674,11.383s-.329,8.383-.094,12.846H89.94S100.174,213.053,87.338,208.553Z" style="fill:#667387"/><path d="M87.755,208.043a162.294,162.294,0,0,0-21.322-1.589l7.031,5.862a4.11,4.11,0,0,1-2.327,7.259,210.587,210.587,0,0,0-41.653,7.373,63.861,63.861,0,0,0-.694,12.845H91.074S100.591,212.542,87.755,208.043Z" style="fill:#363b42"/><path d="M93.286,256.377l.035-12.978a50.656,50.656,0,0,0-1.724-8.224,13.237,13.237,0,0,0-12.823-9.165c-11.909.111-36.543,1.641-54.621,11.5a11.081,11.081,0,0,0-5.794,8.7l-.975,10.8-.178,11.207Z" style="fill:#667387"/><path d="M93.32,243.4c-9.829-.97-44.481-2.894-75.936,13.617l-.992,10.992L94,256.268A86.752,86.752,0,0,0,93.32,243.4Z" style="fill:#363b42"/><path d="M223.924,245.153s7.584-5.941,17.439-6.33a129.856,129.856,0,0,0,6.4-34.024l-13.151,3.488L193,253H214.55Z" style="fill:#e88154"/><path d="M105.387,208.287l-12.4-1.192a122.616,122.616,0,0,0,5.937,32.611c4.636.065,15.822,1.556,25.54,13.3H147Z" style="fill:#e88154"/><path d="M87.376,250.141s10,1.5,10.518,12.99v8.661A9.555,9.555,0,0,1,89,281.332c-15.328,1.057-47.22,4.395-69.448,14.537A6.732,6.732,0,0,1,10,289.764v-14a12.728,12.728,0,0,1,7.38-11.445C30.388,258.112,58.741,246.835,87.376,250.141Z" style="fill:#667387"/><path d="M210.03,212.542H129.97l-18.649,15.125C123.112,289.748,170,289.742,170,289.742s46.888.006,58.679-62.075Z" style="fill:#f74f73"/><path d="M170,212.542H129.97l-18.649,15.125a111.022,111.022,0,0,0,4.755,17.486c4.161,1.1,9.092,1.162,13.134-2.367,0,0,17.888,18.591,40.79,18.591s40.79-18.591,40.79-18.591c4.042,3.529,8.973,3.467,13.134,2.367a111.022,111.022,0,0,0,4.755-17.486L210.03,212.542Z" style="fill:#c12140"/><path d="M195.233,254.385C185.528,240.831,170,241.842,170,241.842s-15.528-1.011-25.233,12.543a8.627,8.627,0,0,0,7.032,13.623h36.4a8.627,8.627,0,0,0,7.032-13.623Z" style="fill:#363b42"/><path d="M286.4,182.7s12.1,10.976,13.874,32.017H242.106S268.787,182.963,286.4,182.7Z" style="fill:#363b42"/><path d="M252.664,208.553l20.9-2.1a113.506,113.506,0,0,1,26.038,2.433c3.624.837,7.092,3.14,8.241,6.678a72.6,72.6,0,0,1,2.674,11.383s.456,8.383.222,12.846h-61.1S239.828,213.053,252.664,208.553Z" style="fill:#667387"/><path d="M310.516,226.948a210.587,210.587,0,0,0-41.653-7.373,4.11,4.11,0,0,1-2.327-7.259l7.031-5.862a162.294,162.294,0,0,0-21.322,1.589c-12.836,4.5-3.319,31.75-3.319,31.75H311.21A63.861,63.861,0,0,0,310.516,226.948Z" style="fill:#363b42"/><path d="M246.67,256.37l.009-12.971a50.656,50.656,0,0,1,1.724-8.224,13.237,13.237,0,0,1,12.823-9.165c11.909.111,36.543,1.641,54.621,11.5a11.081,11.081,0,0,1,5.794,8.7l.975,10.8L322.9,267.9Z" style="fill:#667387"/><path d="M322.616,257.016c-31.455-16.511-66.107-14.587-75.936-13.617A86.752,86.752,0,0,0,246,256.268l77.612,11.74Z" style="fill:#363b42"/><path d="M230.548,167.417,170,176.172l-60.548-8.755L84.1,202.622s8,17.143,21.771,27.577a18.762,18.762,0,0,0,22.08.291l10.417-7.312a14.676,14.676,0,0,1,2.221-1.224,1,1,0,0,1,1.278,1.433c-1.988,3.13-4.224,8.337-.664,12.427A58.351,58.351,0,0,0,168.541,252.8a5.319,5.319,0,0,0,2.918,0,57.457,57.457,0,0,0,27.334-16.983c3.748-4.43,1.777-9.226-.245-12.215a1,1,0,0,1,1.269-1.451,13.359,13.359,0,0,1,1.811,1.03l10.417,7.312a18.762,18.762,0,0,0,22.08-.291C247.9,219.765,255.9,202.622,255.9,202.622Z" style="fill:#f74f73"/><path d="M248.236,215.286c.136-.19.274-.378.407-.566q.627-.885,1.2-1.739c.041-.061.088-.126.129-.187l0,0a85.151,85.151,0,0,0,5.925-10.169l-25.348-35.205L170,176.172l-60.548-8.755L84.1,202.622a85.322,85.322,0,0,0,5.925,10.169l0,0c.049.073.105.151.155.224.4.594.815,1.2,1.253,1.813.086.121.178.244.265.366q.558.779,1.157,1.574c.15.2.3.4.453.6.083.109.161.216.246.325l.007,0A67.214,67.214,0,0,0,105.875,230.2a18.762,18.762,0,0,0,22.08.291c-5.708,1.7-13.332-2.745-13.332-2.745-16.944-9.28-9.976-19.529-9.976-19.529l-.109.009c.774-1.044,1.548-2.176,2.316-3.426l13.3-17.719s16.348,7.152,49.959,7.226v0h.516v0c33.612-.074,49.959-7.226,49.959-7.226l13.3,17.719c.675,1.1,1.355,2.1,2.034,3.041h-.007s6.4,10.626-10.542,19.906c0,0-8.317,5.384-13.332,2.745a18.762,18.762,0,0,0,22.08-.291,67.606,67.606,0,0,0,12.516-12.765l0,0c.035-.045.067-.09.1-.136.149-.2.291-.388.437-.583Q247.725,215.994,248.236,215.286Z" style="fill:#c12140"/><path d="M224.288,169.085c2.02,9.675.964,16.7-1.006,21.629a17.269,17.269,0,0,1-15.794,10.695,68.249,68.249,0,0,1-12.272-.9,15.816,15.816,0,0,1-11.861-9.153l-5.071-11.284.188-5.128,45.816-6.625Z" style="fill:#363b42"/><path d="M272.583,105.677c-4.421,9.384-15.83,30.3-35.09,44.186,0,0-11.272,10.019-19.486,12.4l30.582,41.534c3.452,4.722,8.655,6.556,13.556,3.362a24.148,24.148,0,0,1,3.089-1.392c13.733-9.451,35.739-28.6,43.947-58.347a16.536,16.536,0,0,0-4.153-16.074l-26.506-26.683A3.677,3.677,0,0,0,272.583,105.677Z" style="fill:#667387"/><circle cx="262.943" cy="147.809" r="9.171" style="fill:#363b42"/><path d="M254.03,249.99a13.489,13.489,0,0,0-6.469,2.337c-2.565,1.811-5.194,5.058-5.455,10.8v8.661a9.555,9.555,0,0,0,8.892,9.54c15.328,1.057,47.22,4.395,69.448,14.537A6.732,6.732,0,0,0,330,289.764v-14a12.728,12.728,0,0,0-7.38-11.445C309.825,258.213,282.183,247.2,254.03,249.99Z" style="fill:#667387"/><path d="M115.712,169.085c-2.02,9.675-.964,16.7,1.006,21.629a17.269,17.269,0,0,0,15.794,10.695,68.249,68.249,0,0,0,12.272-.9,15.816,15.816,0,0,0,11.861-9.153l5.071-11.284-.188-5.128-45.816-6.625Z" style="fill:#363b42"/><path d="M67.417,105.677c4.454,9.452,16,30.608,35.512,44.488,0,0,11.388,9.445,19.423,11.769L91.475,204.2c-3.452,4.722-9.239,5.92-14.139,2.726l-2.526-1.129c-13.731-9.44-35.774-28.6-43.991-58.377a16.536,16.536,0,0,1,4.153-16.074l26.506-26.683A3.677,3.677,0,0,1,67.417,105.677Z" style="fill:#667387"/><circle cx="77.057" cy="147.809" r="9.171" style="fill:#363b42"/><path d="M77.35,207.493A10.988,10.988,0,0,0,92.236,204.8l32.223-44.074a71.294,71.294,0,0,1-21.526-10.566c-.116.117-.231.234-.339.361-2.473,2.932-6.316,9.069-6.428,18.982a6.148,6.148,0,0,0,1.29,3.826,6.121,6.121,0,0,1-.053,7.566L79.23,203.669a5.442,5.442,0,0,1-4.42,2.122C75.692,206.4,76.542,206.966,77.35,207.493Z" style="fill:#363b42"/><path d="M261.516,203.669l-18.172-22.775a6.118,6.118,0,0,1-.053-7.566,6.147,6.147,0,0,0,1.289-3.826c-.111-9.913-3.954-16.05-6.428-18.982a5.848,5.848,0,0,0-.66-.657,71.476,71.476,0,0,1-21.951,10.862L247.764,204.8a10.988,10.988,0,0,0,14.886,2.694q1.233-.8,2.584-1.731A5.451,5.451,0,0,1,261.516,203.669Z" style="fill:#363b42"/><path d="M236.012,163.278c-3.08-10.9-9.62-15.487-14.582-17.42a14.934,14.934,0,0,0-9.891-.307L170,158.577l-41.539-13.026a14.934,14.934,0,0,0-9.891.307c-4.962,1.933-11.5,6.522-14.582,17.42a8.459,8.459,0,0,0,4.9,10.051c10.066,4.223,31.719,11.526,61.109,11.526s51.044-7.3,61.109-11.526A8.459,8.459,0,0,0,236.012,163.278Z" style="fill:#f74f73"/><path d="M226.509,148.651a22.2,22.2,0,0,0-5.079-2.793,14.934,14.934,0,0,0-9.891-.307L170,158.577l-41.539-13.026a14.934,14.934,0,0,0-9.891.307,22.29,22.29,0,0,0-3.727,1.877c3.732,5.324,19.381,23.977,55.53,23.977C201.373,171.712,219.223,156.637,226.509,148.651Z" style="fill:#c12140"/><path d="M243.188,19.123a41.9,41.9,0,0,0-17,12.613,15.228,15.228,0,0,1-13.976,5.345,24.669,24.669,0,0,0-6.48-.017,7.029,7.029,0,0,0-3.762,12.16c27.548,25.122,13.4,63.037,13.4,63.037C203.876,144.123,170,141.5,170,141.5s-33.876,2.628-45.373-29.234c0,0-14.148-37.915,13.4-63.037a7.029,7.029,0,0,0-3.762-12.16,24.669,24.669,0,0,0-6.48.017,15.228,15.228,0,0,1-13.976-5.345,41.9,41.9,0,0,0-17-12.613,4.967,4.967,0,0,0-6.192,7.062l.221.391a55.915,55.915,0,0,1,6.732,32.5C95.437,82.647,94.019,161.473,170,164.855c75.981-3.382,74.562-82.208,72.427-105.779a55.915,55.915,0,0,1,6.732-32.5c.074-.131.148-.262.222-.391A4.967,4.967,0,0,0,243.188,19.123Z" style="fill:#ffc257"/><path d="M181.607,155.688a22.675,22.675,0,0,0,8.944-17.656A51.769,51.769,0,0,1,170,141.5a51.769,51.769,0,0,1-20.551-3.463,22.675,22.675,0,0,0,8.944,17.656A21.675,21.675,0,0,0,170,159.819,21.675,21.675,0,0,0,181.607,155.688Z" style="fill:#e87b31"/><path d="M295.12,156.142a4,4,0,1,1,0-8,3.987,3.987,0,0,1,2.83,1.17,4.005,4.005,0,0,1-2.83,6.83Z" style="fill:#363b42"/><path d="M281.72,177.132a4.047,4.047,0,0,1-2.83-1.17,4.093,4.093,0,0,1-.49-.61,4.033,4.033,0,0,1-.6-1.44,3.842,3.842,0,0,1,0-1.56,4.033,4.033,0,0,1,.6-1.44,3.607,3.607,0,0,1,1.1-1.1,4.033,4.033,0,0,1,1.44-.6,3.728,3.728,0,0,1,1.56,0,4.033,4.033,0,0,1,1.44.6,4.093,4.093,0,0,1,.61.49,4.919,4.919,0,0,1,.5.61,4.524,4.524,0,0,1,.36.69,3.832,3.832,0,0,1,.23.75,3.842,3.842,0,0,1,0,1.56,3.832,3.832,0,0,1-.23.75,4.524,4.524,0,0,1-.36.69,4,4,0,0,1-1.11,1.11,4.524,4.524,0,0,1-.69.36,3.832,3.832,0,0,1-.75.23A4.129,4.129,0,0,1,281.72,177.132Z" style="fill:#363b42"/><path d="M264.78,194.152a4.15,4.15,0,0,1-.79-.08,3.956,3.956,0,0,1-.74-.23,3.6,3.6,0,0,1-.7-.37,4.013,4.013,0,0,1-.6-.49,3.605,3.605,0,0,1-.5-.61,4.579,4.579,0,0,1-.37-.69,3.832,3.832,0,0,1-.23-.75,3.843,3.843,0,0,1,0-1.56,4.033,4.033,0,0,1,.6-1.44,3.251,3.251,0,0,1,.5-.61,4.82,4.82,0,0,1,.6-.5,4.2,4.2,0,0,1,.7-.36,3.956,3.956,0,0,1,.74-.23,3.776,3.776,0,0,1,1.57,0,4.3,4.3,0,0,1,.75.23,4.524,4.524,0,0,1,.69.36,4.82,4.82,0,0,1,.6.5,3.694,3.694,0,0,1,.5.61,4.033,4.033,0,0,1,.6,1.44,3.843,3.843,0,0,1,0,1.56,4.033,4.033,0,0,1-.6,1.44,4.161,4.161,0,0,1-.5.61,4.013,4.013,0,0,1-.6.49,3.828,3.828,0,0,1-.69.37,4.3,4.3,0,0,1-.75.23A4.129,4.129,0,0,1,264.78,194.152Z" style="fill:#363b42"/><path d="M294.12,220.539a4.131,4.131,0,0,1-.78-.081,4.049,4.049,0,0,1-.75-.229,3.9,3.9,0,0,1-.69-.371,4.093,4.093,0,0,1-.61-.49,4.043,4.043,0,0,1-.49-.61,4.033,4.033,0,0,1-.6-1.44,4.119,4.119,0,0,1-.08-.779,4.065,4.065,0,0,1,1.17-2.831,4.919,4.919,0,0,1,.61-.5,3.712,3.712,0,0,1,.69-.359,4,4,0,0,1,4.36,6.519,3.639,3.639,0,0,1-.61.49,3.577,3.577,0,0,1-.69.371,3.83,3.83,0,0,1-.75.229A4.047,4.047,0,0,1,294.12,220.539Z" style="fill:#363b42"/><path d="M300.27,245.415a4,4,0,0,1-2.83-6.83,4.161,4.161,0,0,1,.61-.5,4.579,4.579,0,0,1,.69-.37,4.659,4.659,0,0,1,.75-.23,4.094,4.094,0,0,1,1.56,0,4.659,4.659,0,0,1,.75.23,4.579,4.579,0,0,1,.69.37,3.694,3.694,0,0,1,.61.5,4,4,0,0,1,0,5.65,4.161,4.161,0,0,1-.61.5,4.033,4.033,0,0,1-1.44.6A4.129,4.129,0,0,1,300.27,245.415Z" style="fill:#363b42"/><path d="M275.22,240.511a3.914,3.914,0,0,1-3.32-1.78,4.033,4.033,0,0,1-.6-1.44,3.842,3.842,0,0,1,0-1.56,4.033,4.033,0,0,1,.6-1.44,4,4,0,0,1,6.15-.61,4.919,4.919,0,0,1,.5.61,5.7,5.7,0,0,1,.37.69,4.635,4.635,0,0,1,.22.75,3.842,3.842,0,0,1,0,1.56,4.635,4.635,0,0,1-.22.75,5.7,5.7,0,0,1-.37.69,4.919,4.919,0,0,1-.5.61A4.065,4.065,0,0,1,275.22,240.511Z" style="fill:#363b42"/><path d="M272.65,269.372a4.114,4.114,0,0,1-.78-.07,5.371,5.371,0,0,1-.75-.23,4.579,4.579,0,0,1-.69-.37,3.62,3.62,0,0,1-.6-.5,3.251,3.251,0,0,1-.5-.61,4.143,4.143,0,0,1-.37-.69,3.832,3.832,0,0,1-.23-.75,4.047,4.047,0,0,1-.08-.78,4.129,4.129,0,0,1,.08-.78,4.053,4.053,0,0,1,.23-.75,4.579,4.579,0,0,1,.37-.69,3.188,3.188,0,0,1,.5-.6,4.035,4.035,0,0,1,3.61-1.1,3.956,3.956,0,0,1,.74.23,4.049,4.049,0,0,1,1.3.87,3.62,3.62,0,0,1,.5.6,4.579,4.579,0,0,1,.37.69,4.99,4.99,0,0,1,.23.75,4.114,4.114,0,0,1,.07.78,3.995,3.995,0,0,1-4,4Z" style="fill:#363b42"/><path d="M302.82,276.112a4,4,0,0,1-2.83-6.83,4,4,0,1,1,2.83,6.83Z" style="fill:#363b42"/><path d="M45.877,220.539a4.047,4.047,0,0,1-.78-.081,3.83,3.83,0,0,1-.75-.229,3.577,3.577,0,0,1-.69-.371,3.722,3.722,0,0,1-.61-.49,4.109,4.109,0,0,1-.5-.61,4.485,4.485,0,0,1-.37-.69,3.767,3.767,0,0,1-.219-.75,3.437,3.437,0,0,1-.081-.779,4.022,4.022,0,0,1,1.17-2.831,4.393,4.393,0,0,1,.61-.5,3.424,3.424,0,0,1,.69-.359,3.835,3.835,0,0,1,.75-.231,4,4,0,0,1,3.611,6.75,4.1,4.1,0,0,1-.611.49,3.862,3.862,0,0,1-.69.371,4.026,4.026,0,0,1-.75.229A4.123,4.123,0,0,1,45.877,220.539Z" style="fill:#363b42"/><path d="M39.729,245.415a4.129,4.129,0,0,1-.78-.08,3.832,3.832,0,0,1-.75-.23,4.579,4.579,0,0,1-.69-.37,4.161,4.161,0,0,1-.61-.5,4,4,0,0,1,0-5.65,3.694,3.694,0,0,1,.61-.5,4.579,4.579,0,0,1,.69-.37,4.659,4.659,0,0,1,.75-.23,4.094,4.094,0,0,1,1.56,0,4.659,4.659,0,0,1,.75.23,4.579,4.579,0,0,1,.69.37,4.161,4.161,0,0,1,.61.5,4.005,4.005,0,0,1-2.83,6.83Z" style="fill:#363b42"/><path d="M64.78,240.533a4.042,4.042,0,0,1-2.83-1.17,4.919,4.919,0,0,1-.5-.61,4.524,4.524,0,0,1-.36-.69,3.832,3.832,0,0,1-.23-.75,3.843,3.843,0,0,1,0-1.56,3.832,3.832,0,0,1,.23-.75,4.524,4.524,0,0,1,.36-.69,4.994,4.994,0,0,1,.5-.61,4,4,0,0,1,5.66,5.66,4.919,4.919,0,0,1-.61.5,4.436,4.436,0,0,1-.69.36,3.832,3.832,0,0,1-.75.23A4.129,4.129,0,0,1,64.78,240.533Z" style="fill:#363b42"/><path d="M67.35,269.372a3.995,3.995,0,0,1-4-4,4.114,4.114,0,0,1,.07-.78,4.99,4.99,0,0,1,.23-.75,4.579,4.579,0,0,1,.37-.69,3.62,3.62,0,0,1,.5-.6,4.049,4.049,0,0,1,1.3-.87,3.956,3.956,0,0,1,.74-.23,4.146,4.146,0,0,1,1.57,0,4.3,4.3,0,0,1,.75.23,3.828,3.828,0,0,1,.69.37,4.313,4.313,0,0,1,1.1,1.1,3.828,3.828,0,0,1,.37.69,4.053,4.053,0,0,1,.23.75,4.129,4.129,0,0,1,.08.78,4.012,4.012,0,0,1-4,4Z" style="fill:#363b42"/><path d="M37.18,276.112a4.012,4.012,0,0,1-4-4,4,4,0,1,1,8,0,3.995,3.995,0,0,1-4,4Z" style="fill:#363b42"/><path d="M44.88,156.142a4.012,4.012,0,1,1,2.83-1.18A4,4,0,0,1,44.88,156.142Z" style="fill:#363b42"/><path d="M58.28,177.132a4.129,4.129,0,0,1-.78-.08,3.832,3.832,0,0,1-.75-.23,4.524,4.524,0,0,1-.69-.36,4,4,0,0,1-1.11-1.11,4.524,4.524,0,0,1-.36-.69,3.832,3.832,0,0,1-.23-.75,3.843,3.843,0,0,1,0-1.56,3.832,3.832,0,0,1,.23-.75,4.524,4.524,0,0,1,.36-.69,4.919,4.919,0,0,1,.5-.61,4.093,4.093,0,0,1,.61-.49,4.033,4.033,0,0,1,1.44-.6,3.729,3.729,0,0,1,1.56,0,4.033,4.033,0,0,1,1.44.6,4.093,4.093,0,0,1,.61.49,4.919,4.919,0,0,1,.5.61,4.524,4.524,0,0,1,.36.69,3.832,3.832,0,0,1,.23.75,3.842,3.842,0,0,1,0,1.56,3.832,3.832,0,0,1-.23.75,4.524,4.524,0,0,1-.36.69,4,4,0,0,1-1.11,1.11,4.524,4.524,0,0,1-.69.36,3.832,3.832,0,0,1-.75.23A4.129,4.129,0,0,1,58.28,177.132Z" style="fill:#363b42"/><path d="M75.22,194.152a3.995,3.995,0,0,1-3.99-4,4.114,4.114,0,0,1,.07-.78,4.033,4.033,0,0,1,.6-1.44,3.251,3.251,0,0,1,.5-.61,4.021,4.021,0,0,1,3.61-1.09,3.956,3.956,0,0,1,.74.23,3.576,3.576,0,0,1,1.3.86,3.251,3.251,0,0,1,.5.61,4.033,4.033,0,0,1,.6,1.44,3.842,3.842,0,0,1,0,1.56,4.033,4.033,0,0,1-.6,1.44,3.605,3.605,0,0,1-.5.61A4.029,4.029,0,0,1,75.22,194.152Z" style="fill:#363b42"/><path d="M235.353,187.824l4.759,6.509a130.039,130.039,0,0,0,59.151-68.795l-6.331-6.373A123.629,123.629,0,0,1,235.353,187.824Z" style="fill:#363b42"/><path d="M47.068,119.165l-6.331,6.373a130.039,130.039,0,0,0,59.151,68.8l4.759-6.509A123.629,123.629,0,0,1,47.068,119.165Z" style="fill:#363b42"/><path d="M183.859,126.881c-4.944-7.589-13.859-7.617-13.859-7.617s-8.915.028-13.858,7.617a17.056,17.056,0,0,0,4.515,23.158A18.107,18.107,0,0,0,170,153.176a18.114,18.114,0,0,0,9.344-3.137A17.058,17.058,0,0,0,183.859,126.881Z" style="fill:#ffc257"/><path d="M168.608,130.571a9.366,9.366,0,0,1,4.255-3.983,1.177,1.177,0,0,0-.24-2.2,12.111,12.111,0,0,0-2.623-.4s-6.754-.692-10,5.493c-3.032,5.786-2.118,12.987,3.256,16.7A13.056,13.056,0,0,0,170,148.449l.032,0a1.172,1.172,0,0,0,.675-2.054C167.929,144.038,164.125,138.944,168.608,130.571Z" style="fill:#ffecd2"/><path d="M138.3,95.442a42.543,42.543,0,0,0,3.405,9.376,4.7,4.7,0,0,0,8.3.138,89.335,89.335,0,0,1,11.318-16.189,3.573,3.573,0,0,0-3.483-5.845,51.975,51.975,0,0,0-17.611,7.54A4.685,4.685,0,0,0,138.3,95.442Z" style="fill:#93a1b5"/><path d="M165.79,210.867v27.506a3.7,3.7,0,0,1-5.059,3.444,38.932,38.932,0,0,1-9.251-5,9.936,9.936,0,0,1-3.362-10.9,53.752,53.752,0,0,1,9.927-17.817,4.4,4.4,0,0,1,3.382-1.6h0A4.363,4.363,0,0,1,165.79,210.867Z" style="fill:#ff9cb6"/></svg>