<svg width="540.835px" height="540.835px" viewBox="-68.15 0 540.835 540.835" xmlns="http://www.w3.org/2000/svg">
  <g id="Group_11" data-name="Group 11" transform="translate(-1160.427 2396.305)">
    <path id="path374" d="M1330.677-1969.622q16.5,13.02,31.373,15.653l7.827-14.627c-8.733-3.267-19.773-8.08-32.227-14.053l-6.973,13.027" fill="#2f4686" fill-rule="evenodd"/>
    <path id="path376" d="M1363.25-2014.342l17.4,9.453a7.712,7.712,0,0,1,3.08,10.387l-72.24,135.013a7.6,7.6,0,0,1-10.3,3.107l-17.4-9.467a7.712,7.712,0,0,1-3.083-10.387l72.239-135a7.582,7.582,0,0,1,10.307-3.107" fill="#465da9" fill-rule="evenodd"/>
    <path id="path378" d="M1379.717-1965.3a17.522,17.522,0,0,0,14.36-6.533l145.666-272.239-113.48-61.707-49.813-27.093q-72.842,136.12-145.677,272.24a17.809,17.809,0,0,0,2.461,15.68c11.721,10.253,38.4,27.44,70.525,44.907s61.024,30.507,75.957,34.746" fill="#f0393c" fill-rule="evenodd"/>
    <path id="path380" d="M1331.985-2249.781a60.656,60.656,0,0,0,17.545,2.053c24.4-1.187,47.827-22.653,72.227-23.826s49.76,17.933,74.16,16.747a60.345,60.345,0,0,0,17.24-3.72l-86.893-47.253-49.813-27.093-44.465,83.093" fill="#f9b317" fill-rule="evenodd"/>
    <path id="path382" d="M1414.636-2197.568c-24.4,1.187-47.84,22.653-72.226,23.84-14.829.707-30.013-6.066-45.117-11.227l-38.887,72.667a50.882,50.882,0,0,1,8.347-1.133c24.4-1.187,49.761,17.933,74.164,16.747,24.387-1.173,47.827-22.64,72.226-23.827,17.44-.84,35.387,8.693,53.12,13.76l42.08-78.64a64,64,0,0,1-19.547,4.573c-24.4,1.173-49.773-17.933-74.16-16.76" fill="#f9b317" fill-rule="evenodd"/>
    <path id="path384" d="M1406.29-2046.342c-24.4,1.173-47.827,22.64-72.227,23.827s-49.759-17.933-74.157-16.76a58.336,58.336,0,0,0-15.379,3.093c13.953,10,35.051,22.973,59.232,36.133,32.117,17.467,61.024,30.506,75.957,34.746a17.522,17.522,0,0,0,14.36-6.533l37.56-70.213c-8.507-2.72-16.987-4.707-25.347-4.293" fill="#f9b317" fill-rule="evenodd"/>
    <path id="path386" d="M1431.636-2042.048c-8.507-2.72-16.987-4.707-25.346-4.293a48.765,48.765,0,0,0-5.013.507q-49.34,42.5-97.517,45.787c11.924,6.48,23.4,12.36,33.891,17.4,12.453,5.973,23.493,10.787,32.227,14.053,3.733,1.387,7.027,2.494,9.84,3.293a17.5,17.5,0,0,0,14.36-6.533l37.56-70.213" fill="#db8e19" fill-rule="evenodd"/>
    <path id="path388" d="M1401.276-2045.835a48.7,48.7,0,0,1,5.013-.507c8.36-.413,16.84,1.573,25.346,4.293l34.627-64.693c-2.307-.653-4.613-1.387-6.92-2.16q-29.22,38.24-58.067,63.067" fill="#cb3325" fill-rule="evenodd"/>
    <path id="path390" d="M1459.343-2108.9c2.307.773,4.613,1.507,6.92,2.16l28.16-52.626q-17.6,27.62-35.08,50.466" fill="#db8e19" fill-rule="evenodd"/>
    <path id="path392" d="M1396.543-2273.074q65.36,39.58,124.346,64.253l13.92-26.026c-22.227-9.093-51.827-23.346-83.653-40.653q-5.78-3.14-11.4-6.28c-27.107-15.12-50.893-29.8-68.253-41.867l-13.92,26.027q19.76,12.92,38.96,24.547" fill="#2f4686" fill-rule="evenodd"/>
    <path id="path394" d="M1463.343-2276.061c-25.453-8.813-63.28-22.253-100.213-37.093,20.093,13.467,49.173,30.84,82.093,48.747,38.68,21.04,73.853,37.987,96.36,46.893,5.787,2.28,11.493,1.907,15.773-1.04s5.947-7.613,4.613-12.947l-5.467-21.653c-18.28-.52-52.946-8.987-93.16-22.907" fill="#4267ba" fill-rule="evenodd"/>
    <path id="path396" d="M1445.223-2264.408c38.68,21.04,73.853,37.987,96.36,46.893,5.787,2.28,11.48,1.907,15.773-1.04s5.947-7.613,4.613-12.947l-19-75.373-18.947-75.16c-1.227-4.866-4.6-8.96-9.613-11.693s-10.253-3.307-14.96-1.667l-72.72,25.32-72.906,25.386c-5.16,1.8-8.12,5.773-8.2,11s2.733,10.227,7.8,13.84c19.747,14.08,53.107,34.4,91.8,55.44" fill="#5b7fc9" fill-rule="evenodd"/>
    <path id="path398" d="M1216.744-2016.4l8.009,26.987a4.715,4.715,0,0,1-3.125,5.84l-26.764,8.067a4.657,4.657,0,0,1-5.793-3.147l-8.009-26.987a4.716,4.716,0,0,1,3.127-5.84l26.764-8.067a4.646,4.646,0,0,1,5.792,3.147" fill="#f0393c" fill-rule="evenodd"/>
    <path id="path400" d="M1220.748-2002.9q-12.648,16.54-35.68,10.76l4,13.493a4.656,4.656,0,0,0,5.792,3.147l26.764-8.08a4.69,4.69,0,0,0,3.124-5.827l-4-13.493" fill="#cb3325" fill-rule="evenodd"/>
    <path id="path402" d="M1246.449-2234.088a47.328,47.328,0,0,1,25.737-27.493,3.454,3.454,0,0,0,2.1-3.32,3.433,3.433,0,0,0-2.291-3.187,47.277,47.277,0,0,1-27.272-25.947,3.412,3.412,0,0,0-3.287-2.12,3.411,3.411,0,0,0-3.159,2.307,47.322,47.322,0,0,1-25.74,27.493,3.439,3.439,0,0,0-2.1,3.32,3.442,3.442,0,0,0,2.291,3.187A47.263,47.263,0,0,1,1240-2233.9a3.415,3.415,0,0,0,3.289,2.12,3.43,3.43,0,0,0,3.157-2.307" fill="#f9b317" fill-rule="evenodd"/>
    <path id="path404" d="M1255.7-2278.208q-1.708,24.2-26.66,28.48A47.215,47.215,0,0,1,1240-2233.9a3.415,3.415,0,0,0,3.289,2.12,3.43,3.43,0,0,0,3.157-2.307,47.328,47.328,0,0,1,25.737-27.493,3.454,3.454,0,0,0,2.1-3.32,3.433,3.433,0,0,0-2.291-3.187,46.782,46.782,0,0,1-16.3-10.12" fill="#db8e19" fill-rule="evenodd"/>
    <path id="path406" d="M1472.436-1911.662a47.352,47.352,0,0,1,25.733-27.493,3.448,3.448,0,0,0,2.107-3.307,3.422,3.422,0,0,0-2.293-3.187,47.3,47.3,0,0,1-27.267-25.947,3.421,3.421,0,0,0-3.293-2.12,3.413,3.413,0,0,0-3.16,2.307,47.354,47.354,0,0,1-25.733,27.493,3.453,3.453,0,0,0-2.107,3.32,3.418,3.418,0,0,0,2.293,3.173,47.34,47.34,0,0,1,27.267,25.947,3.4,3.4,0,0,0,3.293,2.12,3.4,3.4,0,0,0,3.16-2.307" fill="#5b7fc9" fill-rule="evenodd"/>
    <path id="path408" d="M1481.676-1955.768q-1.7,24.18-26.653,28.467a47.237,47.237,0,0,1,10.96,15.827,3.4,3.4,0,0,0,3.293,2.12,3.4,3.4,0,0,0,3.16-2.307,47.353,47.353,0,0,1,25.733-27.493,3.447,3.447,0,0,0,2.107-3.307,3.422,3.422,0,0,0-2.293-3.187,47.074,47.074,0,0,1-16.307-10.12" fill="#4267ba" fill-rule="evenodd"/>
    <path id="path410" d="M1560.7-2123.488a4.177,4.177,0,0,1,4.253,4.08,4.17,4.17,0,0,1-4.053,4.28l-18.213.427a4.157,4.157,0,0,1-4.24-4.08,4.17,4.17,0,0,1,4.053-4.28l18.2-.427" fill="#43bb4e" fill-rule="evenodd"/>
    <path id="path412" d="M1525.916-2122.661a4.157,4.157,0,0,1,4.24,4.08,4.177,4.177,0,0,1-4.04,4.28l-18.213.427a4.157,4.157,0,0,1-4.24-4.08,4.159,4.159,0,0,1,4.04-4.28l18.213-.427" fill="#43bb4e" fill-rule="evenodd"/>
    <path id="path414" d="M1529.543-2145.3a4.167,4.167,0,0,1,4.04-4.28,4.157,4.157,0,0,1,4.24,4.08l.427,18.36a4.168,4.168,0,0,1-4.04,4.28,4.157,4.157,0,0,1-4.24-4.08l-.427-18.36" fill="#43bb4e" fill-rule="evenodd"/>
    <path id="path416" d="M1530.356-2110.221a4.16,4.16,0,0,1,4.04-4.28,4.177,4.177,0,0,1,4.253,4.08l.427,18.36a4.178,4.178,0,0,1-4.053,4.28,4.159,4.159,0,0,1-4.24-4.093l-.427-18.347" fill="#43bb4e" fill-rule="evenodd"/>
    <path id="path418" d="M1187.54-2169.141a4.18,4.18,0,0,1,4.241-4.093,4.178,4.178,0,0,1,4.048,4.28l-.419,18.36a4.16,4.16,0,0,1-4.24,4.08,4.158,4.158,0,0,1-4.049-4.267l.419-18.36" fill="#5b7fc9" fill-rule="evenodd"/>
    <path id="path420" d="M1186.738-2134.075a4.161,4.161,0,0,1,4.24-4.08,4.17,4.17,0,0,1,4.051,4.28l-.42,18.36a4.16,4.16,0,0,1-4.241,4.08,4.169,4.169,0,0,1-4.048-4.28l.419-18.36" fill="#5b7fc9" fill-rule="evenodd"/>
    <path id="path422" d="M1164.476-2138.768a4.169,4.169,0,0,1-4.048-4.28,4.159,4.159,0,0,1,4.241-4.08l18.211.427a4.16,4.16,0,0,1,4.051,4.267,4.163,4.163,0,0,1-4.24,4.093l-18.215-.427" fill="#5b7fc9" fill-rule="evenodd"/>
    <path id="path424" d="M1199.269-2137.968a4.159,4.159,0,0,1-4.049-4.267,4.159,4.159,0,0,1,4.24-4.08l18.212.413a4.171,4.171,0,0,1,4.051,4.28,4.161,4.161,0,0,1-4.241,4.08l-18.212-.427" fill="#5b7fc9" fill-rule="evenodd"/>
    <path id="path426" d="M1525.276-1999.182a16.821,16.821,0,0,0,16.72-16.867,16.83,16.83,0,0,0-16.72-16.867,16.841,16.841,0,0,0-16.733,16.867,16.833,16.833,0,0,0,16.733,16.867" fill="#f9b317" fill-rule="evenodd"/>
  </g>
</svg>
