<?xml version="1.0" ?><svg width="64px" height="64px" viewBox="0 0 64 64" data-name="Layer 1" id="Layer_1" xmlns="http://www.w3.org/2000/svg"><defs><style>.cls-1{fill:#568b3e;}.cls-2{fill:#346a34;}.cls-3{fill:#fcb316;}.cls-4{fill:#f9a01b;}.cls-5{fill:#f78f1e;}.cls-6{fill:#f37021;}.cls-7{fill:#6d4d42;}.cls-8{fill:#5e4137;}</style></defs><polygon class="cls-1" points="57.03 39.27 57.75 44.14 53.79 44.76 52.57 49.49 48.74 48.08 46.28 52 43 49.16 39.72 52 37.26 48.08 33.43 49.49 32.21 44.76 28.25 44.14 28.97 39.28 26 36 60 36 57.03 39.27"/><polygon class="cls-2" points="57.03 39.27 57.75 44.14 53.79 44.76 52.57 49.49 48.74 48.08 46.28 52 43 49.16 43 36 60 36 57.03 39.27"/><polygon class="cls-1" points="34.02 36 26 36 28.97 39.28 28.25 44.14 32.21 44.76 32.24 44.89 28.76 45.79 28.14 49.75 23.28 49.03 20 52 16.73 49.03 11.86 49.75 11.24 45.79 6.51 44.57 7.92 40.74 4 38.28 6.84 35 4 31.72 7.92 29.26 6.51 25.43 11.24 24.21 11.86 20.25 16.72 20.97 20 18 23.27 20.97 28.14 20.25 28.76 24.21 33.49 25.43 32.08 29.26 36 31.72 33.16 35 34.02 36"/><polygon class="cls-2" points="34.02 36 26 36 28.97 39.28 28.25 44.14 32.21 44.76 32.24 44.89 28.76 45.79 28.14 49.75 23.28 49.03 20 52 20 18 23.27 20.97 28.14 20.25 28.76 24.21 33.49 25.43 32.08 29.26 36 31.72 33.16 35 34.02 36"/><path class="cls-3" d="M53,36a8.8393,8.8393,0,0,1-4.86,7.71,10.8852,10.8852,0,0,1-10.28,0A8.8393,8.8393,0,0,1,33,36Z"/><path class="cls-4" d="M53,36a8.8393,8.8393,0,0,1-4.86,7.71A10.7045,10.7045,0,0,1,43,45V36Z"/><path class="cls-5" d="M48.14,43.71a10.8852,10.8852,0,0,1-10.28,0L43,36Z"/><path class="cls-6" d="M48.14,43.71A10.7045,10.7045,0,0,1,43,45V36Z"/><polygon class="cls-7" points="22 12 22 19.82 20 18 18 19.82 18 12 22 12"/><polygon class="cls-8" points="22 12 22 19.82 20 18 20 12 22 12"/></svg>