<?xml version="1.0" ?><svg width="64px" height="64px" viewBox="0 0 64 64" data-name="Layer 1" id="Layer_1" xmlns="http://www.w3.org/2000/svg"><defs><style>.cls-1{fill:#6d4d42;}.cls-2{fill:#5e4137;}.cls-3{fill:#a1887f;}.cls-4{fill:#8d6e63;}.cls-5{fill:#4e342e;}.cls-6{fill:#3e2723;}</style></defs><path class="cls-1" d="M45.4468,17.2119c-.2833-.2795-6.9052-6.7047-13.1953-6.1612a.6486.6486,0,0,0-.5028,0c-6.2829-.5433-12.9112,5.8817-13.1955,6.1612a1,1,0,1,0,1.4043,1.4238c.06-.06,5.7947-5.65,11.0425-5.6267v4.3263c-7.8223,3.2333-9.3171,9.3078-9.3774,9.5729a.9974.9974,0,0,0,.7475,1.1943.999.999,0,0,0,1.2007-.7441c.0516-.2156,1.2567-4.9821,7.4292-7.8544V32a1,1,0,0,0,2,0V19.504c6.1616,2.8669,7.3735,7.6214,7.4287,7.8524a1,1,0,0,0,.9732.7745.9877.9877,0,0,0,.2241-.0254.9992.9992,0,0,0,.7514-1.1973c-.06-.2651-1.5551-6.34-9.3774-9.5729V13.0091c5.2289-.0194,10.9824,5.5675,11.043,5.6276a1,1,0,0,0,1.4038-1.4248Z"/><path class="cls-1" d="M37.41,42c0,.85.7,1.73.58,2.51-.14.84-1.09,1.45-1.34,2.19-.29.82.04,1.9-.38,2.54-.48.75-1.59.84-2.2,1.28C33.36,51.02,32.81,52,32,52s-1.36-.98-2.07-1.48c-.61-.44-1.72-.53-2.2-1.27-.42-.65-.09-1.73-.38-2.55-.25-.73-1.2-1.35-1.34-2.19-.12-.78.58-1.66.58-2.51s-.7-1.73-.58-2.51c.14-.84,1.09-1.45,1.34-2.19.29-.82-.04-1.9.38-2.54.02-.02.03-.05.06-.07.49-.69,1.55-.78,2.14-1.21C30.64,32.98,31.19,32,32,32s1.36.98,2.07,1.48c.59.43,1.65.52,2.15,1.21a.2651.2651,0,0,1,.05.06c.42.65.09,1.73.38,2.55.25.73,1.2,1.35,1.34,2.19C38.11,40.27,37.41,41.15,37.41,42Z"/><path class="cls-2" d="M37.41,42c0,.85.7,1.73.58,2.51-.14.84-1.09,1.45-1.34,2.19-.29.82.04,1.9-.38,2.54-.48.75-1.59.84-2.2,1.28C33.36,51.02,32.81,52,32,52V32c.81,0,1.36.98,2.07,1.48.59.43,1.65.52,2.15,1.21a.2651.2651,0,0,1,.05.06c.42.65.09,1.73.38,2.55.25.73,1.2,1.35,1.34,2.19C38.11,40.27,37.41,41.15,37.41,42Z"/><ellipse class="cls-3" cx="32" cy="42" rx="2" ry="5"/><path class="cls-4" d="M34,42c0,2.76-.9,5-2,5V37C33.1,37,34,39.24,34,42Z"/><path class="cls-5" d="M36.22,34.69a5.0005,5.0005,0,0,1-8.43,0c.49-.69,1.55-.78,2.14-1.21C30.64,32.98,31.19,32,32,32s1.36.98,2.07,1.48C34.66,33.91,35.72,34,36.22,34.69Z"/><path class="cls-6" d="M36.22,34.69A5.0057,5.0057,0,0,1,32,37V32c.81,0,1.36.98,2.07,1.48C34.66,33.91,35.72,34,36.22,34.69Z"/><path class="cls-1" d="M51.31,41.89c-.2.86-1.21,1.33-1.63,1.95-.49.71-.68,1.82-1.44,2.1-.77.28-1.62-.45-2.45-.69-.73-.2-1.8.09-2.51-.44-.61-.46-.67-1.59-1.22-2.27-.49-.6-1.59-.85-2.01-1.6-.38-.69-.02-1.76-.31-2.56-.29-.79-1.25-1.38-1.4-2.15-.16-.84.52-1.74.51-2.52-.01-.87-.69-1.77-.52-2.52.2-.87,1.21-1.33,1.64-1.95.49-.72.67-1.82,1.44-2.1.76-.28,1.61.45,2.45.68.72.21,1.8-.09,2.5.45.62.46.67,1.59,1.22,2.26.5.61,1.6.86,2.01,1.61.39.69.03,1.76.32,2.55.28.8,1.24,1.38,1.4,2.16.16.84-.52,1.74-.51,2.52C50.81,40.24,51.48,41.14,51.31,41.89Z"/><path class="cls-2" d="M51.31,41.89c-.2.86-1.21,1.33-1.63,1.95-.49.71-.68,1.82-1.44,2.1l-6.83-18.8c.76-.28,1.61.45,2.45.68.72.21,1.8-.09,2.5.45.62.46.67,1.59,1.22,2.26.5.61,1.6.86,2.01,1.61.39.69.03,1.76.32,2.55.28.8,1.24,1.38,1.4,2.16.16.84-.52,1.74-.51,2.52C50.81,40.24,51.48,41.14,51.31,41.89Z"/><path class="cls-3" d="M46.53,41.24c-1.04.38-2.64-1.42-3.59-4.02-.94-2.59-.86-5,.18-5.38,1.03-.38,2.64,1.42,3.58,4.02C47.65,38.45,47.57,40.86,46.53,41.24Z"/><path class="cls-4" d="M46.53,41.24l-3.41-9.4c1.03-.38,2.64,1.42,3.58,4.02C47.65,38.45,47.57,40.86,46.53,41.24Z"/><path class="cls-5" d="M46.29,28.23a5.0119,5.0119,0,0,1-7.93,2.87c.23-.82,1.19-1.27,1.6-1.87.5-.71.68-1.82,1.44-2.1a1.2768,1.2768,0,0,1,.88.04c.51.16,1.05.5,1.58.65a2.5578,2.5578,0,0,0,.27.05,1.0145,1.0145,0,0,0,.25.02c.34.03.71.02,1.07.06a1.7732,1.7732,0,0,1,.32.05c.01,0,.02.01.04.01a1.5546,1.5546,0,0,1,.23.08A.8867.8867,0,0,1,46.29,28.23Z"/><path class="cls-6" d="M46.29,28.23a4.988,4.988,0,0,1-3.18,3.6l-1.7-4.69a1.3048,1.3048,0,0,1,.87.03c.51.16,1.05.5,1.58.65a2.5578,2.5578,0,0,0,.27.05,1.0145,1.0145,0,0,0,.25.02c.34.03.71.02,1.07.06a1.7732,1.7732,0,0,1,.32.05c.01,0,.02.01.04.01a1.5546,1.5546,0,0,1,.23.08A.8867.8867,0,0,1,46.29,28.23Z"/><path class="cls-1" d="M59.31,29.56c-.14.86.16,1.94-.41,2.51-.58.58-1.66.28-2.51.42-.74.12-1.59.84-2.46.65-.75-.16-1.28-1.15-2.06-1.53-.71-.34-1.81-.1-2.5-.6-.64-.47-.77-1.59-1.37-2.19-.6-.59-1.71-.72-2.18-1.36-.5-.69-.27-1.79-.6-2.5-.38-.78-1.38-1.31-1.54-2.06-.19-.87.54-1.72.66-2.46.14-.86-.16-1.94.41-2.51.58-.58,1.66-.28,2.51-.42.75-.12,1.59-.84,2.46-.65.75.16,1.28,1.15,2.07,1.53.7.34,1.8.1,2.49.6.64.47.77,1.59,1.37,2.19.6.59,1.72.72,2.18,1.36.5.69.27,1.79.6,2.5.38.78,1.38,1.31,1.54,2.06C60.16,27.97,59.44,28.82,59.31,29.56Z"/><path class="cls-2" d="M59.31,29.56c-.14.86.16,1.94-.41,2.51L44.75,17.93c.58-.58,1.66-.28,2.51-.42.75-.12,1.59-.84,2.46-.65.75.16,1.28,1.15,2.07,1.53.7.34,1.8.1,2.49.6.64.47.77,1.59,1.37,2.19.6.59,1.72.72,2.18,1.36.5.69.27,1.79.6,2.5.38.78,1.38,1.31,1.54,2.06C60.16,27.97,59.44,28.82,59.31,29.56Z"/><path class="cls-3" d="M55.36,28.54c-.78.78-3-.17-4.95-2.13-1.95-1.95-2.9-4.16-2.12-4.95.78-.78,3,.17,4.95,2.13C55.19,25.54,56.14,27.75,55.36,28.54Z"/><path class="cls-4" d="M55.36,28.54l-7.07-7.08c.78-.78,3,.17,4.95,2.13C55.19,25.54,56.14,27.75,55.36,28.54Z"/><path class="cls-5" d="M48.28,21.46a4.9808,4.9808,0,0,1-4.61,1.34c-.14-.83.54-1.64.66-2.37.15-.85-.16-1.93.41-2.51a1.2044,1.2044,0,0,1,.64-.31c.06-.01.13-.02.19-.03a5.6829,5.6829,0,0,1,.59-.03,5.2879,5.2879,0,0,0,1.06-.04h.04a2.4613,2.4613,0,0,0,.51-.15,6.2154,6.2154,0,0,1,1.36-.51s0,.01.01,0a1.3412,1.3412,0,0,1,.49-.01v.01A5.0052,5.0052,0,0,1,48.28,21.46Z"/><path class="cls-6" d="M48.28,21.46l-3.53-3.53a1.226,1.226,0,0,1,.63-.32c.06-.01.13-.02.19-.03a5.6829,5.6829,0,0,1,.59-.03,6.1488,6.1488,0,0,0,1.06-.04h.04a2.4613,2.4613,0,0,0,.51-.15,7.9223,7.9223,0,0,1,1.36-.51s0,.01.01,0a1.61,1.61,0,0,1,.49,0A5.0052,5.0052,0,0,1,48.28,21.46Z"/><path class="cls-1" d="M12.69,41.89c.2.86,1.21,1.33,1.63,1.95.49.71.68,1.82,1.44,2.1.77.28,1.62-.45,2.45-.69.73-.2,1.8.09,2.51-.44.61-.46.67-1.59,1.22-2.27.49-.6,1.59-.85,2.01-1.6.38-.69.02-1.76.31-2.56.29-.79,1.25-1.38,1.4-2.15.16-.84-.52-1.74-.51-2.52.01-.87.69-1.77.52-2.52-.2-.87-1.21-1.33-1.64-1.95-.49-.72-.67-1.82-1.44-2.1-.76-.28-1.61.45-2.45.68-.72.21-1.8-.09-2.5.45-.62.46-.67,1.59-1.22,2.26-.5.61-1.6.86-2.01,1.61-.39.69-.03,1.76-.32,2.55-.28.8-1.24,1.38-1.4,2.16-.16.84.52,1.74.51,2.52C13.19,40.24,12.52,41.14,12.69,41.89Z"/><path class="cls-2" d="M12.69,41.89c.2.86,1.21,1.33,1.63,1.95.49.71.68,1.82,1.44,2.1l6.83-18.8c-.76-.28-1.61.45-2.45.68-.72.21-1.8-.09-2.5.45-.62.46-.67,1.59-1.22,2.26-.5.61-1.6.86-2.01,1.61-.39.69-.03,1.76-.32,2.55-.28.8-1.24,1.38-1.4,2.16-.16.84.52,1.74.51,2.52C13.19,40.24,12.52,41.14,12.69,41.89Z"/><path class="cls-3" d="M17.47,41.24c1.04.38,2.64-1.42,3.59-4.02.94-2.59.86-5-.18-5.38-1.03-.38-2.64,1.42-3.58,4.02C16.35,38.45,16.43,40.86,17.47,41.24Z"/><path class="cls-4" d="M17.47,41.24l3.41-9.4c-1.03-.38-2.64,1.42-3.58,4.02C16.35,38.45,16.43,40.86,17.47,41.24Z"/><path class="cls-5" d="M17.71,28.23a5.0119,5.0119,0,0,0,7.93,2.87c-.23-.82-1.19-1.27-1.6-1.87-.5-.71-.68-1.82-1.44-2.1a1.2768,1.2768,0,0,0-.88.04c-.51.16-1.05.5-1.58.65a2.5578,2.5578,0,0,1-.27.05,1.0145,1.0145,0,0,1-.25.02c-.34.03-.71.02-1.07.06a1.7732,1.7732,0,0,0-.32.05c-.01,0-.02.01-.04.01a1.5546,1.5546,0,0,0-.23.08A.8867.8867,0,0,0,17.71,28.23Z"/><path class="cls-6" d="M17.71,28.23a4.988,4.988,0,0,0,3.18,3.6l1.7-4.69a1.3048,1.3048,0,0,0-.87.03c-.51.16-1.05.5-1.58.65a2.5578,2.5578,0,0,1-.27.05,1.0145,1.0145,0,0,1-.25.02c-.34.03-.71.02-1.07.06a1.7732,1.7732,0,0,0-.32.05c-.01,0-.02.01-.04.01a1.5546,1.5546,0,0,0-.23.08A.8867.8867,0,0,0,17.71,28.23Z"/><path class="cls-1" d="M4.69,29.56c.14.86-.16,1.94.41,2.51.58.58,1.66.28,2.51.42.74.12,1.59.84,2.46.65.75-.16,1.28-1.15,2.06-1.53.71-.34,1.81-.1,2.5-.6.64-.47.77-1.59,1.37-2.19.6-.59,1.71-.72,2.18-1.36.5-.69.27-1.79.6-2.5.38-.78,1.38-1.31,1.54-2.06.19-.87-.54-1.72-.66-2.46-.14-.86.16-1.94-.41-2.51-.58-.58-1.66-.28-2.51-.42-.75-.12-1.59-.84-2.46-.65-.75.16-1.28,1.15-2.07,1.53-.7.34-1.8.1-2.49.6-.64.47-.77,1.59-1.37,2.19-.6.59-1.72.72-2.18,1.36-.5.69-.27,1.79-.6,2.5-.38.78-1.38,1.31-1.54,2.06C3.84,27.97,4.56,28.82,4.69,29.56Z"/><path class="cls-2" d="M4.69,29.56c.14.86-.16,1.94.41,2.51L19.25,17.93c-.58-.58-1.66-.28-2.51-.42-.75-.12-1.59-.84-2.46-.65-.75.16-1.28,1.15-2.07,1.53-.7.34-1.8.1-2.49.6-.64.47-.77,1.59-1.37,2.19-.6.59-1.72.72-2.18,1.36-.5.69-.27,1.79-.6,2.5-.38.78-1.38,1.31-1.54,2.06C3.84,27.97,4.56,28.82,4.69,29.56Z"/><path class="cls-3" d="M8.64,28.54c.78.78,3-.17,4.95-2.13,1.95-1.95,2.9-4.16,2.12-4.95-.78-.78-3,.17-4.95,2.13C8.81,25.54,7.86,27.75,8.64,28.54Z"/><path class="cls-4" d="M8.64,28.54l7.07-7.08c-.78-.78-3,.17-4.95,2.13C8.81,25.54,7.86,27.75,8.64,28.54Z"/><path class="cls-5" d="M15.72,21.46a4.9808,4.9808,0,0,0,4.61,1.34c.14-.83-.54-1.64-.66-2.37-.15-.85.16-1.93-.41-2.51a1.2044,1.2044,0,0,0-.64-.31c-.06-.01-.13-.02-.19-.03a5.6829,5.6829,0,0,0-.59-.03,5.2879,5.2879,0,0,1-1.06-.04h-.04a2.4613,2.4613,0,0,1-.51-.15,6.2154,6.2154,0,0,0-1.36-.51s0,.01-.01,0a1.3412,1.3412,0,0,0-.49-.01v.01A5.0052,5.0052,0,0,0,15.72,21.46Z"/><path class="cls-6" d="M15.72,21.46l3.53-3.53a1.226,1.226,0,0,0-.63-.32c-.06-.01-.13-.02-.19-.03a5.6829,5.6829,0,0,0-.59-.03,6.1488,6.1488,0,0,1-1.06-.04h-.04a2.4613,2.4613,0,0,1-.51-.15,7.9223,7.9223,0,0,0-1.36-.51s0,.01-.01,0a1.61,1.61,0,0,0-.49,0A5.0052,5.0052,0,0,0,15.72,21.46Z"/></svg>