<?xml version="1.0" ?><svg width="64px" height="64px" viewBox="0 0 64 64" data-name="Layer 1" id="Layer_1" xmlns="http://www.w3.org/2000/svg"><defs><style>.cls-1{fill:#6d4d42;}.cls-2{fill:#378e43;}.cls-3{fill:#42a047;}.cls-4{fill:#f78c1e;}.cls-5{fill:#f47c20;}.cls-6{fill:#ed6d23;}.cls-7{fill:#e55325;}</style></defs><path class="cls-1" d="M31,23a1,1,0,0,1-.707-1.707l1.4643-1.4649A10.9988,10.9988,0,0,0,35,12a1,1,0,0,1,2,0,12.9854,12.9854,0,0,1-3.8286,9.2422L31.707,22.707A.9958.9958,0,0,1,31,23Z"/><path class="cls-2" d="M31,18.33V22H27.33A6.3248,6.3248,0,0,1,21,15.67V12h3.67A6.3248,6.3248,0,0,1,31,18.33Z"/><path class="cls-3" d="M41,28.33V32H37.33A6.3248,6.3248,0,0,1,31,25.67V22h3.67A6.3248,6.3248,0,0,1,41,28.33Z"/><path class="cls-4" d="M60,40a8.376,8.376,0,0,1-1.69,4.94,10.1779,10.1779,0,0,1-1.3,1.52C53.64,49.79,47.73,52,41,52c-6.72,0-12.63-2.2-16-5.53a10.2579,10.2579,0,0,1-1.31-1.52A8.3823,8.3823,0,0,1,22,40Z"/><path class="cls-5" d="M60,40c0,6.63-8.51,12-19,12V40Z"/><path class="cls-3" d="M33.96,40H22c0,3.07,1.85,5.87,4.86,7.99-.29.19-.57.38-.87.56a21.1269,21.1269,0,0,1-15.85,2.99,19.4831,19.4831,0,0,1-4.32-1.47,3.11,3.11,0,0,1-1.79-2.33c-.57-4.06,7.98-2.53,6.8-11.86C9.78,27.63,15.2,20.56,22.75,20.04a6.2586,6.2586,0,0,0,2.56,1.62,6.1169,6.1169,0,0,0,2.02.34h3.59c.03.02.05.04.08.06v3.61a6.31,6.31,0,0,0,4.98,6.18A18.0668,18.0668,0,0,1,33.96,40Z"/><path class="cls-2" d="M33.96,40H22c0,3.07,1.85,5.87,4.86,7.99-.29.19-.57.38-.87.56a21.1269,21.1269,0,0,1-15.85,2.99c1.12-3.45,9.49-2.93,8.19-13.19-.89-7,2.02-13.29,6.98-16.69a6.1169,6.1169,0,0,0,2.02.34h3.59c.03.02.05.04.08.06v3.61a6.31,6.31,0,0,0,4.98,6.18A18.0668,18.0668,0,0,1,33.96,40Z"/><path class="cls-6" d="M58.31,44.94a10.1779,10.1779,0,0,1-1.3,1.52l-6-5.14-3.46,2.96,1.1.94a1,1,0,0,1-1.3,1.52l-1.34-1.15-1.36,1.17a1,1,0,1,1-1.3-1.52l1.12-.96-3.46-2.96-.01.01-3.45,2.95,1.1.94a1,1,0,0,1-1.3,1.52L36.01,45.6l-1.36,1.16a1,1,0,1,1-1.3-1.52l1.12-.96-3.46-2.96L25,46.47a10.2579,10.2579,0,0,1-1.31-1.52L29.47,40h3.08l3.46,2.96L39.47,40h3.08l3.46,2.96L49.47,40h3.08Z"/><path class="cls-7" d="M58.31,44.94a10.1779,10.1779,0,0,1-1.3,1.52l-6-5.14-3.46,2.96,1.1.94a1,1,0,0,1-1.3,1.52l-1.34-1.15-1.36,1.17a1,1,0,1,1-1.3-1.52l1.12-.96-3.46-2.96-.01.01V40h1.55l3.46,2.96L49.47,40h3.08Z"/><path class="cls-3" d="M31,18.33V22L21,12h3.67A6.3248,6.3248,0,0,1,31,18.33Z"/><path class="cls-2" d="M41,28.33V32L31,22h3.67A6.3248,6.3248,0,0,1,41,28.33Z"/></svg>