<?xml version="1.0" ?><svg width="64px" height="64px" viewBox="0 0 64 64" data-name="Layer 1" id="Layer_1" xmlns="http://www.w3.org/2000/svg"><defs><style>.cls-1{fill:#aed580;}.cls-2{fill:#9ccc65;}.cls-3{fill:#dcecc8;}.cls-4{fill:#c6e0a6;}.cls-5{fill:#7cb342;}</style></defs><path class="cls-1" d="M60,37a15,15,0,0,1-30,0h8a7,7,0,0,0,14,0Z"/><path class="cls-2" d="M60,37A15.0055,15.0055,0,0,1,45,52V44a6.9949,6.9949,0,0,0,7-7Z"/><path class="cls-3" d="M56,37a11,11,0,0,1-22,0h4a7,7,0,0,0,14,0Z"/><path class="cls-4" d="M56,37A10.9938,10.9938,0,0,1,45,48V44a6.9949,6.9949,0,0,0,7-7Z"/><path class="cls-1" d="M37.87,37H30a14.9482,14.9482,0,0,0,3.44,9.56A16.981,16.981,0,1,1,38,35,16.5189,16.5189,0,0,1,37.87,37Z"/><path class="cls-2" d="M37.87,37H30a14.9482,14.9482,0,0,0,3.44,9.56A16.9216,16.9216,0,0,1,21,52V18A16.9985,16.9985,0,0,1,38,35,16.5189,16.5189,0,0,1,37.87,37Z"/><path class="cls-5" d="M18.7891,19H10a1,1,0,0,1,0-2h8.7891A12.4494,12.4494,0,0,0,29.168,11.4453a1,1,0,0,1,1.664,1.1094A14.445,14.445,0,0,1,18.7891,19Z"/></svg>