<?xml version="1.0" ?><svg width="340px" height="340px" viewBox="0 0 340 340" id="icons" xmlns="http://www.w3.org/2000/svg"><title/><rect height="79.544" style="fill:#b0d6ed" width="319.759" x="10.12" y="169.882"/><path d="M23.905,191.2H21.618a4,4,0,1,1,0-8h2.287a4,4,0,0,1,0,8Z" style="fill:#72aad3"/><path d="M51.655,199.2H10.12v8H51.655a4,4,0,0,0,0-8Z" style="fill:#72aad3"/><path d="M329.88,199.2H284.1a4,4,0,0,0,0,8H329.88Z" style="fill:#72aad3"/><path d="M307.936,183.2H44.472a4,4,0,0,0,0,8H307.936a4,4,0,0,0,0-8Z" style="fill:#72aad3"/><path d="M310.408,249.426l-5.416-21.789-15.573-12.785a10.516,10.516,0,0,0-6.672-2.388h-5.3a10.513,10.513,0,0,1-8.546-4.389l-.352-.491A10.516,10.516,0,0,0,260,203.2H144.339l-51.082,13.7H73.382a10.511,10.511,0,0,0-8.709,4.624h0a10.516,10.516,0,0,1-8.71,4.623H29.38s-.192,9.787-.4,23.285Z" style="fill:#72aad3"/><path d="M60.218,252.489l-2.554-12.382A61.715,61.715,0,0,0,46.222,223l-2.434-2.347a14.832,14.832,0,0,0-16.263-2.9,35.481,35.481,0,0,0-10.951,7.309A22.658,22.658,0,0,0,10.12,241.03v14.24a22.83,22.83,0,0,0,6.413,15.921c4.782,4.923,12.581,10.105,24.494,10.767Z" style="fill:#bdbfd6"/><path d="M265.662,240,275.8,229.459a114.672,114.672,0,0,1,16.39-10.361,19.663,19.663,0,0,1,20.677,1.607,42.914,42.914,0,0,1,16.323,23.517,19.3,19.3,0,0,1,.36,8.627c-1.383,7.385-6.161,21.926-22.6,29.109L268,252.609Z" style="fill:#bdbfd6"/><path d="M27.9,262.739a74.85,74.85,0,0,0-3.192,14.7,37.667,37.667,0,0,0,16.318,4.518L61.545,251.31a57.228,57.228,0,0,0-3.883-11.2C49.856,239.593,35.023,241.655,27.9,262.739Z" style="fill:#70748e"/><path d="M318.534,274.18C312.358,236.8,278.5,238.125,278.5,238.125c-.974-3.353-1.9-6.275-2.695-8.665a83.891,83.891,0,0,0-10.4,9.124l2.6,14.025,38.953,29.349A37.879,37.879,0,0,0,318.534,274.18Z" style="fill:#70748e"/><path d="M75.8,249.233a89.19,89.19,0,0,0-16.674-1.612,23.392,23.392,0,0,0-20.221,12.057c-2.59,4.711-4.865,11.336-5.543,20.488a24.352,24.352,0,0,0,4.792,16.394c5.385,7.181,15.2,16.972,29.642,18.9,0,0,21.509,6.233,41.768,1.3l26.491-28.569V267.413Z" style="fill:#bdbfd6"/><path d="M221.767,301.177s14.441,15.6,33.176,20.127a24.958,24.958,0,0,0,5.862.651h15.866a26.4,26.4,0,0,0,14.988-4.616c8.04-5.542,19.18-16.53,20.491-35.381,0,0-.779-38.814-43.113-34.341H224.624l-10.129,44Z" style="fill:#bdbfd6"/><path d="M75.8,249.233s-2.049-.421-5.126-.834c-3.084,8.628-5.434,21.356-2.149,37.371a2.277,2.277,0,0,0,3.081,1.662l7.358-2.989s2.659,4.626,13.155,7.516a3.5,3.5,0,0,0,3.293-.805h0a1.909,1.909,0,0,1,3.155,1.852c-.8,3.27-1.78,7.5-2.633,11.926-.864,4.481.167,9.129,2.139,13.547a67.6,67.6,0,0,0,11.491-1.719l26.491-28.569V267.413Z" style="fill:#70748e"/><path d="M274.73,254.235l-8.576-6.618h-41.53l-1.935,8.407L214.5,291.616l7.272,9.561a80.181,80.181,0,0,0,11.053,9.458,53.191,53.191,0,0,0,3.051-14.133,3.665,3.665,0,0,1,3.641-3.405c1.067.007,2.135-.028,3.2-.111,9.437-.734,21.787-4.461,27.6-17.941l5.531,1.722a2.236,2.236,0,0,0,2.9-2.03A43.1,43.1,0,0,0,274.73,254.235Z" style="fill:#70748e"/><path d="M127.053,276.15,116.5,284.342a86.666,86.666,0,0,0-8.206,10.983,20.848,20.848,0,0,0-3.146,11.045h0a20.7,20.7,0,0,0,9.335,17.428,34.82,34.82,0,0,0,3.315,1.892,20.234,20.234,0,0,0,9.082,2.072h68.474a33.5,33.5,0,0,0,16.551-4.235c5.822-3.3,12.066-8.974,13.754-18.454a35.359,35.359,0,0,0-.856-14.253s-6.763-10.431-13.394-14.67l-1.593-17.308H131.384Z" style="fill:#bdbfd6"/><path d="M224.8,290.821a26.29,26.29,0,0,0-11.345-15.616l-3.636-16.363H131.384l-5.714,16.363a86.518,86.518,0,0,0-9.165,9.137,21.067,21.067,0,0,1,6.545,2.443s10.589,8.326,29.7,9.894a15.7,15.7,0,0,0,13.68-5.867c.056-.071.111-.143.165-.215a5.36,5.36,0,0,1,4.265-2.155h.572a5.291,5.291,0,0,1,4.5,2.493,15.968,15.968,0,0,0,10.337,7.018c5.309,1.009,15.523,1.352,25.616-7.171A33.375,33.375,0,0,1,224.8,290.821Z" style="fill:#70748e"/><path d="M159.234,74.6A50.99,50.99,0,0,0,113.2,96.954a59.887,59.887,0,0,0-3.952,6.661c-2.4,4.632-9,16.58-17.457,25.363,0,0,5.865,3.041,11.925,1.135,0,0-9.535,10.889-10.406,21,0,0,5.431.738,9.378-1.469,0,0,.685,13.023-12.337,31.529,0,0-10.624,15.079-15.079,29.13,0,0,3.084,2.056,10.623,0,0,0-24.01,32.28-16.716,58.945a72.587,72.587,0,0,0,4.846,9.4l6.715-4.015s1.582,5.978,10.493,8.034l7.314-6.955s13.821-1.851,24.1,1.919c0,0,11.045,8.061,28.479,11.152,4.372.774,9.953-4.317,9.953-4.317a10.46,10.46,0,0,1,1.311-1.395c1.609-3.976,2.158-10.3-.073-20.336h20.219s-3.872,9.467-2.413,19.364c0,0,5.211,9.269,10.331,8.979,3.861-.219,8.735-2.036,14.569-6.477a14.506,14.506,0,0,1,6.663-2.324,47.883,47.883,0,0,1,15.265.7s17.373,5.746,31.424-5.221c0,0,7.281-5.228,8.652-12.082a35,35,0,0,1,6.964,3.385l1.175-10.135c-.57-11.422-5.113-29.8-25.117-47.248a90.064,90.064,0,0,1,10.281-2.4s-5.826-12.338-21.933-20.22c0,0-11.309-8.568-13.023-34.27,0,0,1.371,1.713,7.2,3.427,0,0,.343-11.31-7.882-19.877l6.854-1.371s.244-2.928-5.444-8.577a27.587,27.587,0,0,1-7.429-12.627A28.727,28.727,0,0,1,218,112.3a41.533,41.533,0,0,0-2.975-11.467C209.438,88.086,194.33,65.57,159.234,74.6Z" style="fill:#f4dcc6"/><path d="M127.344,119.812s-.34-16.944,17.406-19.241a25.635,25.635,0,0,1,14.071,3.279,5.716,5.716,0,0,0,6.753-.87c3.894-3.7,11.273-8.792,20.932-6.585,14.614,3.341,13.843,19.653,13.843,19.653Z" style="fill:#c99673"/><path d="M116.145,44.12s12.537-.892,10.733-15.392a16.708,16.708,0,0,0-7.3-12.083c-3.826-2.462-9.693-4.053-18.383-1.708a24.981,24.981,0,0,0-14.1,9.538A21.762,21.762,0,0,0,83.865,31.3c-2.735,10.161,3.917,20.723,14.4,21.683C103.424,53.454,109.67,51.6,116.145,44.12Z" style="fill:#d9eef9"/><path d="M263.372,128.072q-.153.466-.289.961s-1.853,7.413,7.033,12.508a13.591,13.591,0,0,1,3.663,3.1,16.135,16.135,0,0,0,4.1,3.487c9.156,5.481,21.108-1.017,20.72-11.681q-.015-.42-.054-.849a13.623,13.623,0,0,0-7.2-10.6l-8.216-4.45C275.626,116.491,266.052,119.977,263.372,128.072Z" style="fill:#d9eef9"/><path d="M163.728,113.565s-9.507-8.873-24.615-5.5a15.3,15.3,0,0,0-11.066,9.33q-.162.426-.3.879c-2.746,8.7,3.017,17.753,11.947,19.612a34.74,34.74,0,0,0,6.5.687,3.882,3.882,0,0,1,3.845,3.863V163.52a14.831,14.831,0,0,0,.5,3.918c1.259,4.593,5.535,13.812,19.579,13.812,9.937,0,14.648-4.024,16.882-7.8a14.837,14.837,0,0,0,1.947-8.142L187.97,140a3.873,3.873,0,0,1,1.958-3.512c3.544-2.027,10.455-7.154,10.75-16.438a18.553,18.553,0,0,0-4.667-12.79q-.3-.345-.635-.692a15.5,15.5,0,0,0-19.9-1.88C172.463,106.743,168.457,109.665,163.728,113.565Z" style="fill:#f74f73"/><path d="M34.329,125.878a4,4,0,0,1-3.764-5.356c5.416-15.054-1.444-30.357-1.514-30.51C20.8,72.141,34.738,57.793,35.335,57.19a4,4,0,0,1,5.688,5.625c-.461.474-10.594,11.09-4.7,23.857.347.757,8.282,18.468,1.773,36.559A4,4,0,0,1,34.329,125.878Z" style="fill:#d9eef9"/><path d="M53.7,135.711a4,4,0,0,1-3.763-5.356c5.382-14.959-1.449-30.364-1.518-30.517-8.245-17.864,5.691-32.213,6.288-32.816a4,4,0,0,1,5.689,5.625c-.461.474-10.6,11.091-4.7,23.858.346.756,8.282,18.468,1.772,36.559A4,4,0,0,1,53.7,135.711Z" style="fill:#d9eef9"/><path d="M240.6,82.108a4,4,0,0,1-3.764-5.356c5.383-14.959-1.448-30.364-1.517-30.517-8.246-17.865,5.691-32.212,6.288-32.815a4,4,0,0,1,5.688,5.626c-.463.474-10.6,11.09-4.7,23.855.347.756,8.282,18.468,1.773,36.56A4,4,0,0,1,240.6,82.108Z" style="fill:#d9eef9"/><path d="M261.888,92.462a4,4,0,0,1-3.764-5.355c5.382-14.959-1.448-30.366-1.517-30.52a27.1,27.1,0,0,1-2.554-12.221,4,4,0,0,1,8,.229,19.213,19.213,0,0,0,1.83,8.659c.347.758,8.281,18.47,1.773,36.562A4,4,0,0,1,261.888,92.462Z" style="fill:#d9eef9"/><path d="M261.682,33.284a4,4,0,0,1-4.614-5.544c.558-1.217.986-1.951,1.033-2.03A4,4,0,0,1,265,29.77c-.015.026-.284.5-.653,1.3A3.992,3.992,0,0,1,261.682,33.284Z" style="fill:#d9eef9"/><path d="M159.279,124.318c-2.449-3.063-6.282-4.126-9.066-4.48a3.5,3.5,0,0,0-.881,6.946,6.948,6.948,0,0,1,4.48,1.9,3.5,3.5,0,0,0,5.467-4.371Z" style="fill:#373d4c"/><path d="M183.929,120.071a3.5,3.5,0,0,0-4.48-2.105,15.577,15.577,0,0,0-7.491,5.775,3.5,3.5,0,1,0,5.735,4.015,8.5,8.5,0,0,1,4.131-3.206A3.5,3.5,0,0,0,183.929,120.071Z" style="fill:#373d4c"/><path d="M172.056,141.264l-2.932,2.814-3.416-2.53a4,4,0,0,0-4.76,6.43l4.51,3.339V155.8a4,4,0,0,0,8,0v-4.795l4.137-3.97a4,4,0,0,0-5.539-5.772Z" style="fill:#373d4c"/><path d="M162.319,262.74c-2.991-10.052-21.092-12.759-35.266-15.123a85.345,85.345,0,0,1-20.574-6.716,1.093,1.093,0,0,1,.683-2.061,173.723,173.723,0,0,0,22.346,3.441c11.337.731,25.379,4.262,32.33,8.515a9.511,9.511,0,0,0,4.967,1.435h10.079a9.362,9.362,0,0,0,5.158-1.555c4.259-2.807,14.412-8.384,27.216-7.858.952.039,1.9.071,2.853.049,3.56-.081,12.373-.451,18.422-2.148a1.094,1.094,0,0,1,.945,1.93c-3.756,2.866-9.039,4.762-16.983,4.968-23.9.658-31.957,15.123-31.957,15.123Z" style="fill:#c99673"/><path d="M33.3,235.632a3.45,3.45,0,0,1-.78-.08,3.766,3.766,0,0,1-.75-.23,4.658,4.658,0,0,1-.69-.359,5.187,5.187,0,0,1-.61-.5,4.345,4.345,0,0,1-.5-.611,4.431,4.431,0,0,1-.359-.69,3.768,3.768,0,0,1-.231-.75,4.047,4.047,0,0,1-.08-.78,4.129,4.129,0,0,1,.08-.78,3.982,3.982,0,0,1,.231-.75,4.431,4.431,0,0,1,.359-.69,4.919,4.919,0,0,1,.5-.61,3.722,3.722,0,0,1,.61-.49,3.927,3.927,0,0,1,.69-.37,3.763,3.763,0,0,1,.75-.229,4.054,4.054,0,0,1,1.56,0,3.763,3.763,0,0,1,.75.229,3.857,3.857,0,0,1,.69.37,3.607,3.607,0,0,1,1.1,1.1,3.828,3.828,0,0,1,.37.69,4.053,4.053,0,0,1,.23.75,4.129,4.129,0,0,1,.08.78,4.067,4.067,0,0,1-1.17,2.831,5.106,5.106,0,0,1-.61.5,4.561,4.561,0,0,1-.69.359,3.766,3.766,0,0,1-.75.23A3.439,3.439,0,0,1,33.3,235.632Z" style="fill:#70748e"/><path d="M23.9,244.912a3.983,3.983,0,0,1-2.821-1.17,4,4,0,1,1,5.65,0A3.986,3.986,0,0,1,23.9,244.912Z" style="fill:#70748e"/><path d="M127.05,304.932a4.138,4.138,0,0,1-.78-.08,4.053,4.053,0,0,1-.75-.23,3.922,3.922,0,0,1-.69-.369,4.218,4.218,0,0,1-.61-.491,4.008,4.008,0,0,1,0-5.66,5.089,5.089,0,0,1,.61-.5,3.875,3.875,0,0,1,.69-.36,3.413,3.413,0,0,1,.75-.23,3.728,3.728,0,0,1,1.56,0,3.256,3.256,0,0,1,.75.23,3.5,3.5,0,0,1,.69.36,4.348,4.348,0,0,1,.61.5,4.008,4.008,0,0,1,0,5.66,3.7,3.7,0,0,1-.61.491,3.54,3.54,0,0,1-.69.369,3.832,3.832,0,0,1-.75.23A4.047,4.047,0,0,1,127.05,304.932Z" style="fill:#70748e"/><path d="M137.781,314.122a4,4,0,1,1,.779-7.92,3.859,3.859,0,0,1,.75.23,3.693,3.693,0,0,1,.69.361,4.209,4.209,0,0,1,.611.5,4.006,4.006,0,0,1,0,5.659,4.345,4.345,0,0,1-.611.5,3.69,3.69,0,0,1-.69.36,3.861,3.861,0,0,1-.75.231A4.125,4.125,0,0,1,137.781,314.122Z" style="fill:#70748e"/><path d="M290.52,277.592a4.029,4.029,0,0,1-2.83-1.17,4.919,4.919,0,0,1-.5-.61,4.485,4.485,0,0,1-.369-.69,4.022,4.022,0,0,1-.221-.75,3.445,3.445,0,0,1-.08-.78,3.988,3.988,0,0,1,1.17-2.83,3.694,3.694,0,0,1,.61-.5,4.143,4.143,0,0,1,.69-.37,4.762,4.762,0,0,1,.75-.23,4.093,4.093,0,0,1,1.56,0,4.762,4.762,0,0,1,.75.23,4.579,4.579,0,0,1,.69.37,4.161,4.161,0,0,1,.61.5,4.031,4.031,0,0,1,1.17,2.83,4.129,4.129,0,0,1-.08.78,4.053,4.053,0,0,1-.23.75,3.766,3.766,0,0,1-.37.69,4.03,4.03,0,0,1-.49.61,4.093,4.093,0,0,1-.61.49,3.828,3.828,0,0,1-.69.37,3.766,3.766,0,0,1-.75.23A4.121,4.121,0,0,1,290.52,277.592Z" style="fill:#70748e"/><path d="M295.94,290.782a4.2,4.2,0,0,1-.78-.069,3.948,3.948,0,0,1-.75-.231,3.828,3.828,0,0,1-.69-.37,3.56,3.56,0,0,1-.609-.5,4.06,4.06,0,0,1-.5-.6,4.4,4.4,0,0,1-.361-.69,4.478,4.478,0,0,1-.23-.75,4.127,4.127,0,0,1-.08-.779,4.217,4.217,0,0,1,.08-.79,4.145,4.145,0,0,1,.23-.741,3.693,3.693,0,0,1,.361-.69,4.087,4.087,0,0,1,.5-.609,4.038,4.038,0,0,1,3.609-1.1,3.832,3.832,0,0,1,.75.23,4.5,4.5,0,0,1,.69.371,4.036,4.036,0,0,1,.61.5,4.215,4.215,0,0,1,.5.609,3.69,3.69,0,0,1,.36.69,4.069,4.069,0,0,1,.231.741,4.3,4.3,0,0,1,.079.79,4.21,4.21,0,0,1-.079.779,4.3,4.3,0,0,1-.591,1.44,4.188,4.188,0,0,1-.5.6,3.605,3.605,0,0,1-.61.5,3.828,3.828,0,0,1-.69.37,3.9,3.9,0,0,1-.75.231A4.2,4.2,0,0,1,295.94,290.782Z" style="fill:#70748e"/><path d="M282.51,292.442a4.234,4.234,0,0,1-.79-.08,3.956,3.956,0,0,1-.74-.23,3.8,3.8,0,0,1-1.3-.87,3.972,3.972,0,0,1,0-5.65,3.627,3.627,0,0,1,.6-.5,4.191,4.191,0,0,1,.7-.37,3.922,3.922,0,0,1,.74-.22,4,4,0,1,1,.79,7.92Z" style="fill:#70748e"/><path d="M141.166,211.58c2.818,5.353,7.98,11.938,16.94,14.462a1.394,1.394,0,0,0,1.7-1.762,69.346,69.346,0,0,1-2.224-8.811,1.389,1.389,0,0,1,2.393-1.19,37.742,37.742,0,0,0,19.677,11.83,1.394,1.394,0,0,0,1.568-1.905c-.758-1.788-1.784-4.365-2.572-6.929a1.389,1.389,0,0,1,2-1.632,39.464,39.464,0,0,0,17.17,4.922,1.392,1.392,0,0,0,.656-2.66c-6.855-3.014-17.961-8.755-24.014-16.463a1.383,1.383,0,0,0-2.459.652,38.813,38.813,0,0,0,.393,12.673,1.389,1.389,0,0,1-2.212,1.376c-4.064-3.151-11.113-9.316-14.769-16.608a1.387,1.387,0,0,0-2.509.1,24.441,24.441,0,0,0-1.872,12.351,1.392,1.392,0,0,1-1.93,1.465,25.679,25.679,0,0,1-5.821-3.591A1.39,1.39,0,0,0,141.166,211.58Z" style="fill:#c99673"/><path d="M187,173.453a14.837,14.837,0,0,0,1.947-8.142l-.124-3.214c-3.017,5.954-8.54,11.449-18.677,11.449-13.4,0-18.313-6.863-20.11-12.279v2.253a14.791,14.791,0,0,0,.5,3.918c1.258,4.593,5.534,13.812,19.578,13.812C180.057,181.25,184.768,177.226,187,173.453Z" style="fill:#c12140"/><path d="M114.073,155.169c-2.759,5.067-5.134,11.242-4.492,17.42a.59.59,0,0,0,.963.379,28.456,28.456,0,0,1,7.012-4.394.59.59,0,0,1,.8.546,24.03,24.03,0,0,0,2.37,10.372.594.594,0,0,0,1.122-.295c-.147-3.506-.145-10.313,1.579-15.95a.586.586,0,0,0-.63-.761,22.106,22.106,0,0,0-8.323,2.849.586.586,0,0,1-.879-.52,56.993,56.993,0,0,1,1.576-9.244A.592.592,0,0,0,114.073,155.169Z" style="fill:#c99673"/><path d="M214.3,161.575c2.758,5.067,5.133,11.243,4.492,17.42a.591.591,0,0,1-.964.38,28.456,28.456,0,0,0-7.012-4.394.59.59,0,0,0-.8.546,24,24,0,0,1-2.37,10.372.594.594,0,0,1-1.122-.295c.147-3.506.145-10.314-1.579-15.951a.585.585,0,0,1,.63-.76,22.1,22.1,0,0,1,8.323,2.848.587.587,0,0,0,.88-.519c-.108-3.035-.878-5.8-1.577-9.244A.593.593,0,0,1,214.3,161.575Z" style="fill:#c99673"/><path d="M258.961,278.5s6.854-5.141,8.225-12a49.952,49.952,0,0,1,7.2,3.77,41.56,41.56,0,0,0,.783-11.353,16.033,16.033,0,0,1-.917,1.522,2.982,2.982,0,0,1-4.315.662l-1.237-.982a2.966,2.966,0,0,0-4.571,1.107c-8.388,19.8-35.942,17.928-49.747,15.6a17.015,17.015,0,0,0-13.3,3.39c-9.949,7.771-17.929,3.929-20.947,1.874.056.374.116.75.187,1.125a10.291,10.291,0,0,0,10.642,8.358c3.86-.219,8.883-1.694,14.717-6.135a11.727,11.727,0,0,1,5.862-2.406,49.337,49.337,0,0,1,15.212.941S244.91,289.47,258.961,278.5Z" style="fill:#c99673"/><path d="M131.251,274.1a29.948,29.948,0,0,0-10.7-4.256c-5.558-1.026-13.711-2.089-20.5-1.195a10.918,10.918,0,0,0-6.781,3.7l-2.351,2.7a1.509,1.509,0,0,1-1.854.343c-2.032-1.093-6.371-3.733-8.032-7.11a1.506,1.506,0,0,0-2.55-.208,34.093,34.093,0,0,0-2.763,4.236,1.511,1.511,0,0,1-2.088.579,19.4,19.4,0,0,1-4.452-3.634A34.253,34.253,0,0,0,73.9,279.532l6.511-4.112s2.057,5.826,10.967,7.882l7.2-6.854s13.365-1.714,23.646,2.056c0,0,11.256,7.816,28.69,10.906a10.244,10.244,0,0,0,10.932-5.143c.192-.37.371-.772.541-1.193C157.552,284.141,147.223,284.318,131.251,274.1Z" style="fill:#c99673"/></svg>