<?xml version="1.0" ?><svg width="64px" height="64px" viewBox="0 0 64 64" data-name="Layer 1" id="Layer_1" xmlns="http://www.w3.org/2000/svg"><defs><style>.cls-1{fill:#6d4d42;}.cls-2{fill:#378e43;}.cls-3{fill:#42a047;}.cls-4{fill:#f78c1e;}.cls-5{fill:#f47c20;}.cls-6{fill:#ffe0b2;}.cls-7{fill:#fcb64d;}.cls-8{fill:#fecc81;}.cls-9{fill:#faa629;}</style></defs><path class="cls-1" d="M22,21a1,1,0,0,1-1-1,9.01,9.01,0,0,1,9-9,1,1,0,0,1,0,2,7.0081,7.0081,0,0,0-7,7A1,1,0,0,1,22,21Z"/><path class="cls-2" d="M22,18.06V20H20.06A6.056,6.056,0,0,1,14,13.94V12h1.94A6.056,6.056,0,0,1,22,18.06Z"/><path class="cls-3" d="M22,20H20.06A6.056,6.056,0,0,1,14,13.94V12Z"/><path class="cls-4" d="M32.94,48.68A19.3038,19.3038,0,0,1,22,52C12.06,52,4,44.84,4,36s8.06-16,18-16c9.56,0,17.36,6.63,17.94,15H26A16.9519,16.9519,0,0,0,32.94,48.68Z"/><path class="cls-5" d="M32.94,48.68A19.3038,19.3038,0,0,1,22,52V20c9.56,0,17.36,6.63,17.94,15H26A16.9519,16.9519,0,0,0,32.94,48.68Z"/><path class="cls-4" d="M60,35a17,17,0,0,1-34,0Z"/><path class="cls-5" d="M60,35A16.9985,16.9985,0,0,1,43,52V35Z"/><path class="cls-6" d="M56,35a13,13,0,1,1-26,0Z"/><path class="cls-7" d="M56,35A12.9985,12.9985,0,0,1,43,48V35Z"/><path class="cls-8" d="M48.81,46.63a13.0047,13.0047,0,0,1-11.62,0L43,35Z"/><path class="cls-9" d="M48.81,46.63A12.8816,12.8816,0,0,1,43,48V35Z"/></svg>