<?xml version="1.0" ?><svg width="64px" height="64px" viewBox="0 0 64 64" data-name="Layer 1" id="Layer_1" xmlns="http://www.w3.org/2000/svg"><defs><style>.cls-1{fill:#ae1f59;}.cls-2{fill:#881a51;}.cls-3{fill:#fcb64d;}.cls-4{fill:#faa629;}.cls-5{fill:#6d4d42;}.cls-6{fill:#378e43;}.cls-7{fill:#42a047;}</style></defs><path class="cls-1" d="M32,38a14.0081,14.0081,0,0,0,1.47,6.23A14.9128,14.9128,0,0,1,20,52C10,52,4,43.94,4,34c0-7.3,3.25-13.57,8.93-16.4A5.4272,5.4272,0,0,0,17.44,20H20V17.44a5.2,5.2,0,0,0-.2-1.43c.07,0,.13-.01.2-.01,8.2,0,13.7,5.42,15.42,12.85A13.9,13.9,0,0,0,32,38Z"/><path class="cls-2" d="M32,38a14.0081,14.0081,0,0,0,1.47,6.23A14.9128,14.9128,0,0,1,20,52V16c8.2,0,13.7,5.42,15.42,12.85A13.9,13.9,0,0,0,32,38Z"/><circle class="cls-1" cx="46" cy="38" r="14"/><path class="cls-2" d="M60,38A14.0025,14.0025,0,0,1,46,52V24A14.0025,14.0025,0,0,1,60,38Z"/><circle class="cls-3" cx="46" cy="38" r="10"/><path class="cls-4" d="M56,38A10.0036,10.0036,0,0,1,46,48V28A10.0036,10.0036,0,0,1,56,38Z"/><circle class="cls-1" cx="46" cy="32" r="1"/><circle class="cls-1" cx="47" cy="35" r="1"/><circle class="cls-1" cx="45" cy="41" r="1"/><circle class="cls-1" cx="49" cy="39" r="1"/><circle class="cls-1" cx="43" cy="37" r="1"/><circle class="cls-1" cx="46" cy="44" r="1"/><circle class="cls-1" cx="52" cy="38" r="1"/><circle class="cls-1" cx="40" cy="38" r="1"/><circle class="cls-1" cx="50.2426" cy="33.7574" r="1"/><circle class="cls-1" cx="41.7574" cy="42.2426" r="1"/><circle class="cls-1" cx="50.2426" cy="42.2426" r="1"/><circle class="cls-1" cx="41.7574" cy="33.7574" r="1"/><path class="cls-5" d="M20,21a1,1,0,0,1-1-1V18a7.0085,7.0085,0,0,1,7-7,1,1,0,0,1,0,2,5.0059,5.0059,0,0,0-5,5v2A1,1,0,0,1,20,21Z"/><path class="cls-6" d="M20,17.44V20H17.44A5.4329,5.4329,0,0,1,12,14.56V12h2.56A5.4329,5.4329,0,0,1,20,17.44Z"/><path class="cls-7" d="M20,20H17.44A5.4329,5.4329,0,0,1,12,14.56V12Z"/></svg>