<?xml version="1.0" ?><svg width="64px" height="64px" viewBox="0 0 64 64" data-name="Layer 1" id="Layer_1" xmlns="http://www.w3.org/2000/svg"><defs><style>.cls-1{fill:#f05223;}.cls-2{fill:#e44c25;}.cls-3{fill:#f58967;}.cls-4{fill:#f37046;}.cls-5{fill:#378e43;}.cls-6{fill:#42a047;}</style></defs><path class="cls-1" d="M60,30.87a23.2259,23.2259,0,0,1-8.96,18.32,12.9071,12.9071,0,0,1-16.08,0A23.2259,23.2259,0,0,1,26,30.87C26,25.98,30.36,22,35.71,22c3.47,0,5.68.84,7.29,2.61C44.61,22.84,46.82,22,50.29,22,55.64,22,60,25.98,60,30.87Z"/><path class="cls-2" d="M60,30.87a23.2259,23.2259,0,0,1-8.96,18.32A12.6838,12.6838,0,0,1,43,52V24.61C44.61,22.84,46.82,22,50.29,22,55.64,22,60,25.98,60,30.87Z"/><path class="cls-3" d="M26,30.87a22.5273,22.5273,0,0,0,6,15.49,27.8162,27.8162,0,0,1-2.96,2.83,12.9071,12.9071,0,0,1-16.08,0A23.2259,23.2259,0,0,1,4,30.87C4,25.98,8.36,22,13.71,22c2.98,0,5.03.62,6.57,1.91a9.4879,9.4879,0,0,1,.72.7,7.7675,7.7675,0,0,1,.72-.69c1.54-1.3,3.59-1.92,6.57-1.92a10.3566,10.3566,0,0,1,3.71.68A8.9073,8.9073,0,0,0,26,30.87Z"/><path class="cls-4" d="M26,30.87a22.5273,22.5273,0,0,0,6,15.49,27.8162,27.8162,0,0,1-2.96,2.83A12.6838,12.6838,0,0,1,21,52V24.61C22.61,22.84,24.82,22,28.29,22a10.3566,10.3566,0,0,1,3.71.68A8.9073,8.9073,0,0,0,26,30.87Z"/><path class="cls-1" d="M21.72,25.3a18.2689,18.2689,0,0,0-2.51,3.68A24.8724,24.8724,0,0,0,16.33,39.2a.9983.9983,0,0,1-1,.94h-.06a1.005,1.005,0,0,1-.94-1.06,25.0086,25.0086,0,0,1,5.95-15.17,9.4879,9.4879,0,0,1,.72.7,7.7675,7.7675,0,0,1,.72-.69A.9966.9966,0,0,1,21.72,25.3Z"/><path class="cls-5" d="M21,20.93V24h-.62c-1.55-1.36-3.63-2-6.67-2a10.88,10.88,0,0,0-1.29.09A8.9173,8.9173,0,0,1,9,15.07V12h3.07A8.9324,8.9324,0,0,1,21,20.93Z"/><path class="cls-6" d="M21,24h-.62c-1.55-1.36-3.63-2-6.67-2a10.88,10.88,0,0,0-1.29.09A8.9173,8.9173,0,0,1,9,15.07V12Z"/><path class="cls-6" d="M21,20.93V24h.62c1.55-1.36,3.63-2,6.67-2a10.88,10.88,0,0,1,1.29.09A8.9173,8.9173,0,0,0,33,15.07V12H29.93A8.9324,8.9324,0,0,0,21,20.93Z"/><path class="cls-5" d="M21,24h.62c1.55-1.36,3.63-2,6.67-2a10.88,10.88,0,0,1,1.29.09A8.9173,8.9173,0,0,0,33,15.07V12Z"/><path class="cls-3" d="M47,37a7.9434,7.9434,0,0,1-4,7,8.125,8.125,0,0,1,0-14A7.9434,7.9434,0,0,1,47,37Z"/><path class="cls-4" d="M47,37a7.9434,7.9434,0,0,1-4,7V30A7.9434,7.9434,0,0,1,47,37Z"/></svg>