<?xml version="1.0" ?><svg width="64px" height="64px" viewBox="0 0 64 64" data-name="Layer 1" id="Layer_1" xmlns="http://www.w3.org/2000/svg"><defs><style>.cls-1{fill:#6d4d42;}.cls-2{fill:#5e4137;}.cls-3{fill:#f78c1e;}.cls-4{fill:#f47c20;}.cls-5{fill:#42a047;}.cls-6{fill:#378e43;}.cls-7{fill:#f05223;}.cls-8{fill:#e44c25;}</style></defs><path class="cls-1" d="M44,15.61l-3.93,3.93a7.3183,7.3183,0,0,0-3.61-3.61L40.39,12Z"/><path class="cls-2" d="M44,15.61l-3.93,3.93a7.49,7.49,0,0,0-1.48-2.13l3.61-3.6Z"/><path class="cls-3" d="M60,40a6.6039,6.6039,0,0,1-6.69,6.52,17.6408,17.6408,0,0,0-10.1,3.16,12.9871,12.9871,0,0,1-18.27-3.54L21,40l3.94-6.14a12.9871,12.9871,0,0,1,18.27-3.54,17.6408,17.6408,0,0,0,10.1,3.16A6.6039,6.6039,0,0,1,60,40Z"/><path class="cls-4" d="M60,40a6.6039,6.6039,0,0,1-6.69,6.52,17.6408,17.6408,0,0,0-10.1,3.16,12.9871,12.9871,0,0,1-18.27-3.54L21,40Z"/><path class="cls-5" d="M38.48,28.29a12.9073,12.9073,0,0,0-13.54,5.57L21,40l3.94,6.14a12.4165,12.4165,0,0,0,2.11,2.49,15.0547,15.0547,0,0,1-12.57,3.04l-8.35-1.8-1.8-8.35A15.3462,15.3462,0,0,1,16.62,23.39a21.0066,21.0066,0,0,0,11.02-5.8,7.6184,7.6184,0,1,1,10.84,10.7Z"/><path class="cls-6" d="M38.48,28.29a12.9073,12.9073,0,0,0-13.54,5.57L21,40l3.94,6.14a12.4165,12.4165,0,0,0,2.11,2.49,15.0547,15.0547,0,0,1-12.57,3.04l-8.35-1.8L38.59,17.41A7.7486,7.7486,0,0,1,38.48,28.29Z"/><path class="cls-7" d="M46,40s-4.03,4-9,4-9-4-9-4,4.03-4,9-4S46,40,46,40Z"/><path class="cls-8" d="M46,40s-4.03,4-9,4-9-4-9-4Z"/></svg>