<?xml version="1.0" ?><svg width="64px" height="64px" viewBox="0 0 64 64" data-name="Layer 1" id="Layer_1" xmlns="http://www.w3.org/2000/svg"><defs><style>.cls-1{fill:#fcb316;}.cls-2{fill:#f9a01b;}.cls-3{fill:#fdd837;}.cls-4{fill:#f9bf2c;}.cls-5{fill:#42a047;}.cls-6{fill:#378e43;}.cls-7{fill:#f78c1e;}.cls-8{fill:#f47c20;}.cls-9{fill:#fff278;}</style></defs><path class="cls-1" d="M59.62,42.14c-.79,1.61-2.98,1.88-4.35,3.16-1.22,1.13-1.94,3.67-3.52,4.46-1.43.72-3.4-.46-5.06-.08C45.16,50.02,43.67,52,42,52s-3.16-1.98-4.7-2.33c-1.65-.37-3.62.81-5.05.09-1.58-.78-2.3-3.33-3.52-4.46-1.37-1.27-3.56-1.55-4.35-3.15-.87-1.76.02-4.14.02-6.15H59.6C59.6,38.01,60.48,40.39,59.62,42.14Z"/><path class="cls-2" d="M59.62,42.14c-.79,1.61-2.98,1.88-4.35,3.16-1.22,1.13-1.94,3.67-3.52,4.46-1.43.72-3.4-.46-5.06-.08C45.16,50.02,43.67,52,42,52V36H59.6C59.6,38.01,60.48,40.39,59.62,42.14Z"/><path class="cls-3" d="M56,36a8.1453,8.1453,0,0,1-2.44,5.64,10.8308,10.8308,0,0,1-1.52,1.32,14.14,14.14,0,0,1-3.53,1.89,16.33,16.33,0,0,1-1.91.59,18.162,18.162,0,0,1-3.6.53c-.33.02-.66.03-1,.03s-.67-.01-1-.03a18.162,18.162,0,0,1-3.6-.53,16.33,16.33,0,0,1-1.91-.59,14.14,14.14,0,0,1-3.53-1.89,10.8308,10.8308,0,0,1-1.52-1.32A8.1453,8.1453,0,0,1,28,36Z"/><path class="cls-4" d="M56,36c0,5.52-6.27,10-14,10V36Z"/><path class="cls-5" d="M22.74,18.85a9.6127,9.6127,0,0,0-3.32,1.54,6.087,6.087,0,0,0-.04-4.04,7.5174,7.5174,0,0,1,3.8-2.28A6.7589,6.7589,0,0,1,22.74,18.85Z"/><path class="cls-6" d="M22.74,18.85a9.6127,9.6127,0,0,0-3.32,1.54l3.76-6.32A6.7589,6.7589,0,0,1,22.74,18.85Z"/><path class="cls-5" d="M26.95,18.74l-.36.3a22.6048,22.6048,0,0,0-5.63,7.04,11.0866,11.0866,0,0,0-1.78-.73,10.5492,10.5492,0,0,0-3.03-.48A9.38,9.38,0,0,1,26.95,18.74Z"/><path class="cls-6" d="M26.59,19.04a22.6048,22.6048,0,0,0-5.63,7.04,11.0866,11.0866,0,0,0-1.78-.73A8.3408,8.3408,0,0,1,26.59,19.04Z"/><path class="cls-6" d="M8.8259,14.0707h0a7.5066,7.5066,0,0,1,3.8052,2.2807,6.0416,6.0416,0,0,0-.0421,4.0381,9.5544,9.5544,0,0,0-3.3245-1.5414A6.8039,6.8039,0,0,1,8.8259,14.0707Z"/><path class="cls-6" d="M11.0527,26.0769a22.6579,22.6579,0,0,0-5.9933-7.3328,9.3716,9.3716,0,0,1,10.7964,6.121A10.7849,10.7849,0,0,0,11.0527,26.0769Z"/><path class="cls-5" d="M19.42,20.39a8.8836,8.8836,0,0,0-3.17,4.21l-.25.26-.24-.26a8.9476,8.9476,0,0,0-3.17-4.21,6.3052,6.3052,0,0,1,1.6-6.51L16,12l1.82,1.88A6.3052,6.3052,0,0,1,19.42,20.39Z"/><path class="cls-6" d="M19.42,20.39a8.8836,8.8836,0,0,0-3.17,4.21l-.25.26V12l1.82,1.88A6.3052,6.3052,0,0,1,19.42,20.39Z"/><path class="cls-5" d="M9.26,18.85a9.6127,9.6127,0,0,1,3.32,1.54L8.82,14.07A6.7589,6.7589,0,0,0,9.26,18.85Z"/><path class="cls-5" d="M5.41,19.04a22.6048,22.6048,0,0,1,5.63,7.04,11.0866,11.0866,0,0,1,1.78-.73A8.3408,8.3408,0,0,0,5.41,19.04Z"/><path class="cls-1" d="M26.88,44.13a13.3176,13.3176,0,0,1-.89,1.77,13.09,13.09,0,0,1-1.44,2.03,11.379,11.379,0,0,1-7.13,3.97,10.061,10.061,0,0,1-2.83,0,11.39,11.39,0,0,1-7.12-3.94,13.5573,13.5573,0,0,1-1.46-2.07,15.1184,15.1184,0,0,1-1.27-2.81,15.5331,15.5331,0,0,1-.5-2.01v-.01a13.34,13.34,0,0,1-.22-3.33v-.01c.01-.13.01-.27.03-.4a14.45,14.45,0,0,1,.35-2.36v-.01a14.2274,14.2274,0,0,1,2.52-5.38,12.4455,12.4455,0,0,1,1.32-1.49c.19-.18.38-.35.58-.52h.01a11.0838,11.0838,0,0,1,5.76-2.6,10.061,10.061,0,0,1,2.83,0,11.12,11.12,0,0,1,5.76,2.6h.01c.19.16.37.33.55.5a11.1476,11.1476,0,0,1,1.33,1.5,14.2432,14.2432,0,0,1,2.52,5.4c.09.35.15.69.21,1.04H24.4v.02c0,1.28-.36,2.71-.39,4.03a4.3309,4.3309,0,0,0,.33,2.01c.01.03.03.06.04.09A4.9974,4.9974,0,0,0,26.88,44.13Z"/><path class="cls-2" d="M26.88,44.13a12.2088,12.2088,0,0,1-9.46,7.77A11.0375,11.0375,0,0,1,16,52V24.86a9.4954,9.4954,0,0,1,1.42.1,11.12,11.12,0,0,1,5.76,2.6h.01A14.0029,14.0029,0,0,1,27.8,36H24.4c0,2.01-.89,4.39-.02,6.15A4.9974,4.9974,0,0,0,26.88,44.13Z"/><path class="cls-7" d="M25.07,29.56c-.02.03-.05.04-.07.06l-2.46,1.64a.9631.9631,0,0,1-1.1,0l-2.45-1.63-2.45,1.63a.8883.8883,0,0,1-.54.17.9472.9472,0,0,1-.56-.17l-2.45-1.63-2.45,1.63a.9747.9747,0,0,1-1.1,0L7,29.64a.5008.5008,0,0,1-.08-.07,12.4455,12.4455,0,0,1,1.32-1.49l1.75,1.15,2.45-1.63a.9631.9631,0,0,1,1.1,0l2.45,1.63.01-.01,2.44-1.62a.9631.9631,0,0,1,1.1,0l2.45,1.63,1.75-1.17A11.1476,11.1476,0,0,1,25.07,29.56Z"/><path class="cls-7" d="M27.8,36H25.55l-.56-.37-.56.37-.03.02-1.86,1.24a.9747.9747,0,0,1-1.1,0l-2.45-1.63-2.45,1.63a.8883.8883,0,0,1-.54.17.9472.9472,0,0,1-.56-.17l-2.45-1.63-2.45,1.63a.9631.9631,0,0,1-1.1,0L6.99,35.63l-2.3,1.53a.9926.9926,0,0,1-.64.16l.35-2.36v-.01L6.44,33.6a.9631.9631,0,0,1,1.1,0l2.45,1.63,2.45-1.63a.9631.9631,0,0,1,1.1,0l2.45,1.63.01-.01,2.44-1.62a.9631.9631,0,0,1,1.1,0l2.45,1.63,2.45-1.63a.9631.9631,0,0,1,1.1,0l2.05,1.36C27.68,35.31,27.74,35.65,27.8,36Z"/><path class="cls-7" d="M24.34,42.06l-1.8,1.2a.9747.9747,0,0,1-1.1,0l-2.45-1.63-2.45,1.63a.8883.8883,0,0,1-.54.17.9472.9472,0,0,1-.56-.17l-2.45-1.63-2.45,1.63a.9631.9631,0,0,1-1.1,0L6.99,41.63,5.02,42.95a.7918.7918,0,0,1-.28.13l-.5-2.01v-.01L6.43,39.6a.979.979,0,0,1,1.11,0l2.45,1.63,2.45-1.63a.9631.9631,0,0,1,1.1,0l2.45,1.63.01-.01,2.44-1.62a.9631.9631,0,0,1,1.1,0l2.45,1.63,1.51-1.01a1.0675,1.0675,0,0,1,.51-.17A4.3309,4.3309,0,0,0,24.34,42.06Z"/><path class="cls-7" d="M25.99,45.9a13.09,13.09,0,0,1-1.44,2.03l-2.01,1.33a.9747.9747,0,0,1-1.1,0l-2.45-1.63-2.45,1.63a.8883.8883,0,0,1-.54.17.9472.9472,0,0,1-.56-.17l-2.45-1.63-2.45,1.63a.9631.9631,0,0,1-1.1,0l-1.97-1.3a13.5573,13.5573,0,0,1-1.46-2.07l.43-.29a.9631.9631,0,0,1,1.1,0l2.45,1.63,2.45-1.63a.9631.9631,0,0,1,1.1,0l2.45,1.63.01-.01,2.44-1.62a.9631.9631,0,0,1,1.1,0l2.45,1.63,2.45-1.63a.9807.9807,0,0,1,1.1,0Z"/><path class="cls-8" d="M16.54,43.26a.8883.8883,0,0,1-.54.17V41.22l2.44-1.62a.9631.9631,0,0,1,1.1,0l2.45,1.63,1.51-1.01a1.0675,1.0675,0,0,1,.51-.17,4.3309,4.3309,0,0,0,.33,2.01l-1.8,1.2a.9747.9747,0,0,1-1.1,0l-2.45-1.63Z"/><path class="cls-8" d="M16.54,31.26a.8883.8883,0,0,1-.54.17V29.22l2.44-1.62a.9631.9631,0,0,1,1.1,0l2.45,1.63,1.75-1.17a11.1476,11.1476,0,0,1,1.33,1.5c-.02.03-.05.04-.07.06l-2.46,1.64a.9631.9631,0,0,1-1.1,0l-2.45-1.63Z"/><path class="cls-8" d="M25.54,45.6l.45.3a13.09,13.09,0,0,1-1.44,2.03l-2.01,1.33a.9747.9747,0,0,1-1.1,0l-2.45-1.63-2.45,1.63a.8883.8883,0,0,1-.54.17V47.22l2.44-1.62a.9631.9631,0,0,1,1.1,0l2.45,1.63,2.45-1.63A.9807.9807,0,0,1,25.54,45.6Z"/><path class="cls-8" d="M16.54,37.26a.8883.8883,0,0,1-.54.17V35.22l2.44-1.62a.9631.9631,0,0,1,1.1,0l2.45,1.63,2.45-1.63a.9631.9631,0,0,1,1.1,0l2.05,1.36c.09.35.15.69.21,1.04H25.55l-.56-.37-.56.37-.03.02-1.86,1.24a.9747.9747,0,0,1-1.1,0l-2.45-1.63Z"/><path class="cls-9" d="M43,42v3.97c-.33.02-.66.03-1,.03s-.67-.01-1-.03V42a1,1,0,0,1,2,0Z"/><path class="cls-9" d="M48.51,44.85a16.33,16.33,0,0,1-1.91.59l-1.27-3.19a1.0009,1.0009,0,0,1,1.86-.74L48.5,44.8A.09.09,0,0,1,48.51,44.85Z"/><path class="cls-9" d="M53.56,41.64a10.8308,10.8308,0,0,1-1.52,1.32l-2.62-2.62a1.0041,1.0041,0,0,1,1.42-1.42l2.7,2.7Z"/><path class="cls-9" d="M38.67,42.25,37.4,45.44a16.33,16.33,0,0,1-1.91-.59.09.09,0,0,1,.01-.05l1.31-3.29a1.0009,1.0009,0,1,1,1.86.74Z"/><path class="cls-9" d="M34.58,40.34l-2.62,2.62a10.8308,10.8308,0,0,1-1.52-1.32l.02-.02,2.7-2.7a1.0041,1.0041,0,0,1,1.42,1.42Z"/></svg>