<?xml version="1.0" ?><svg width="64px" height="64px" viewBox="0 0 64 64" data-name="Layer 1" id="Layer_1" xmlns="http://www.w3.org/2000/svg"><defs><style>.cls-1{fill:#e53a35;}.cls-2{fill:#d32e2e;}.cls-3{fill:#6d4d42;}.cls-4{fill:#42a047;}.cls-5{fill:#378e43;}.cls-6{fill:#e57373;}.cls-7{fill:#ef5451;}</style></defs><path class="cls-1" d="M32,38a13.847,13.847,0,0,0,1.58,6.44,15.9887,15.9887,0,1,1-22-22.02A10.1411,10.1411,0,0,0,16,24c0,3,4,8,4,8s4-5,4-8a10.1411,10.1411,0,0,0,4.42-1.58,15.9935,15.9935,0,0,1,6.3,7.32A13.907,13.907,0,0,0,32,38Z"/><path class="cls-2" d="M32,38a13.847,13.847,0,0,0,1.58,6.44A15.9894,15.9894,0,0,1,20,52V32s4-5,4-8a10.1411,10.1411,0,0,0,4.42-1.58,15.9935,15.9935,0,0,1,6.3,7.32A13.907,13.907,0,0,0,32,38Z"/><path class="cls-3" d="M20,21a1,1,0,0,1-1-1V18.585A7.5935,7.5935,0,0,1,26.585,11H28a1,1,0,0,1,0,2H26.585A5.5916,5.5916,0,0,0,21,18.585V20A1,1,0,0,1,20,21Z"/><path class="cls-4" d="M24,24c0,3-4,8-4,8s-4-5-4-8a4,4,0,0,1,8,0Z"/><path class="cls-5" d="M24,24c0,3-4,8-4,8V20A3.9989,3.9989,0,0,1,24,24Z"/><path class="cls-4" d="M24,16a4,4,0,0,0-4,4,4,4,0,0,1,4,4c3,0,8-4,8-4S27,16,24,16Z"/><path class="cls-5" d="M20,20a4,4,0,0,0-4-4c-3,0-8,4-8,4s5,4,8,4A4,4,0,0,1,20,20Z"/><circle class="cls-1" cx="46" cy="38" r="14"/><path class="cls-2" d="M60,38A14.0025,14.0025,0,0,1,46,52V24A14.0025,14.0025,0,0,1,60,38Z"/><path class="cls-6" d="M44,42.874a2.9371,2.9371,0,0,0-.84-2.0768,3.9524,3.9524,0,0,1,0-5.5945A2.9371,2.9371,0,0,0,44,33.1259h0A3.0059,3.0059,0,0,0,38.8983,30.96a9.9985,9.9985,0,0,0,0,14.0794A3.0059,3.0059,0,0,0,44,42.8741Z"/><path class="cls-7" d="M48,33.1259h0a2.9371,2.9371,0,0,0,.84,2.0768,3.9524,3.9524,0,0,1,0,5.5945A2.9371,2.9371,0,0,0,48,42.874v0A3.0059,3.0059,0,0,0,53.1017,45.04a9.9985,9.9985,0,0,0,0-14.0794A3.0059,3.0059,0,0,0,48,33.1259Z"/><path class="cls-5" d="M24,16c3,0,8,4,8,4H20A3.9989,3.9989,0,0,1,24,16Z"/><path class="cls-4" d="M16,16c-3,0-8,4-8,4H20A3.9989,3.9989,0,0,0,16,16Z"/></svg>