<?xml version="1.0" ?><svg width="64px" height="64px" viewBox="0 0 64 64" data-name="Layer 1" id="Layer_1" xmlns="http://www.w3.org/2000/svg"><defs><style>.cls-1{fill:#aed580;}.cls-2{fill:#9ccc65;}.cls-3{fill:#378e43;}.cls-4{fill:#42a047;}.cls-5{fill:#6d4d42;}.cls-6{fill:#5e4137;}</style></defs><path class="cls-1" d="M58.02,42.39a13.1731,13.1731,0,0,1-25.22.49A14.9313,14.9313,0,0,0,33.45,33a13.1537,13.1537,0,0,1,5.07-5.52,6.2919,6.2919,0,0,0,2.9-3.98c.03-.14.07-.27.11-.41a7.9087,7.9087,0,0,1,10-5.4,8.0154,8.0154,0,0,1,5.21,9.83,1.1764,1.1764,0,0,1-.07.2,6.6889,6.6889,0,0,0,.43,5.13A13.1371,13.1371,0,0,1,58.02,42.39Z"/><path class="cls-2" d="M58.02,42.39a13.2005,13.2005,0,0,1-16.91,8.92L51.53,17.69a8.0154,8.0154,0,0,1,5.21,9.83,1.1764,1.1764,0,0,1-.07.2,6.6889,6.6889,0,0,0,.43,5.13A13.1371,13.1371,0,0,1,58.02,42.39Z"/><path class="cls-3" d="M60,12.76l-.58,2.04a4.9231,4.9231,0,0,1-6.08,3.4l-2.03-.58.57-2.03a4.9275,4.9275,0,0,1,6.08-3.4Z"/><path class="cls-4" d="M60,12.76l-.58,2.04a4.9231,4.9231,0,0,1-6.08,3.4l-2.03-.58Z"/><path class="cls-5" d="M52,38.5A6.5,6.5,0,0,1,45.5,45a6.2693,6.2693,0,0,1-2.3-.43A6.4944,6.4944,0,0,1,45.5,32a6.0172,6.0172,0,0,1,1.54.19A6.49,6.49,0,0,1,52,38.5Z"/><path class="cls-6" d="M52,38.5A6.5,6.5,0,0,1,45.5,45a6.2693,6.2693,0,0,1-2.3-.43l3.84-12.38A6.49,6.49,0,0,1,52,38.5Z"/><path class="cls-4" d="M34,37A15.0055,15.0055,0,0,1,19,52c-.24,0-.48-.01-.72-.02A14.9942,14.9942,0,0,1,8.07,26.73a7.07,7.07,0,0,0,1.94-5.24C10,21.33,10,21.16,10,21a9.0007,9.0007,0,0,1,9-9h.27A9.109,9.109,0,0,1,28,21.14a1.9269,1.9269,0,0,1-.01.24,7.6312,7.6312,0,0,0,2.06,5.48A14.9514,14.9514,0,0,1,34,37Z"/><path class="cls-3" d="M34,37A15.0055,15.0055,0,0,1,19,52V12h.27A9.109,9.109,0,0,1,28,21.14a1.9269,1.9269,0,0,1-.01.24,7.6312,7.6312,0,0,0,2.06,5.48A14.9514,14.9514,0,0,1,34,37Z"/></svg>