<?xml version="1.0" ?><svg width="64px" height="64px" viewBox="0 0 64 64" data-name="Layer 1" id="Layer_1" xmlns="http://www.w3.org/2000/svg"><defs><style>.cls-1{fill:#cfd8dc;}.cls-2{fill:#7cb342;}.cls-3{fill:#679f42;}.cls-4{fill:#568b3e;}.cls-5{fill:#346a34;}.cls-6{fill:#aed580;}.cls-7{fill:#9ccc65;}</style></defs><path class="cls-1" d="M44.0015,29a1.0208,1.0208,0,0,1-.1534-.0117,1,1,0,0,1-.8364-1.14l2-13a1,1,0,0,1,1.231-.8183l8,2a1,1,0,0,1-.4854,1.94l-6.9355-1.7339L44.9883,28.1519A1,1,0,0,1,44.0015,29Z"/><path class="cls-2" d="M32,47.48a18.5539,18.5539,0,0,1-5.66,4.26,2.4833,2.4833,0,0,1-1.12.26,2.8153,2.8153,0,0,1-2.43-1.48,2.7806,2.7806,0,0,0-2.42-1.46h-.74a2.7806,2.7806,0,0,0-2.42,1.46,2.722,2.722,0,0,1-3.55,1.22C8.05,49.02,3.14,43,4.13,35.6c.79-5.88,2.75-11.17,6.71-14.36a12.1971,12.1971,0,0,1,1-.73,14.5191,14.5191,0,0,1,16.32,0c.34.23.67.47.99.73A16.5264,16.5264,0,0,1,33.93,28H30.07a30.6908,30.6908,0,0,0-1.94,7.6A14.7029,14.7029,0,0,0,32,47.48Z"/><path class="cls-3" d="M32,47.48a18.5539,18.5539,0,0,1-5.66,4.26,2.4833,2.4833,0,0,1-1.12.26,2.8153,2.8153,0,0,1-2.43-1.48,2.7806,2.7806,0,0,0-2.42-1.46H20V18a14.5382,14.5382,0,0,1,8.16,2.51c.34.23.67.47.99.73A16.5264,16.5264,0,0,1,33.93,28H30.07a30.6908,30.6908,0,0,0-1.94,7.6A14.7029,14.7029,0,0,0,32,47.48Z"/><path class="cls-4" d="M29.15,21.24c-1.08,1-1.66,3.28-3.45,3.71-1.63.38-3.79-1.53-5.7-1.53s-4.07,1.91-5.7,1.53c-1.79-.43-2.37-2.71-3.46-3.71a12.1971,12.1971,0,0,1,1-.73,14.5191,14.5191,0,0,1,16.32,0C28.5,20.74,28.83,20.98,29.15,21.24Z"/><path class="cls-5" d="M29.15,21.24c-1.08,1-1.66,3.28-3.45,3.71-1.63.38-3.79-1.53-5.7-1.53V18a14.5382,14.5382,0,0,1,8.16,2.51C28.5,20.74,28.83,20.98,29.15,21.24Z"/><path class="cls-6" d="M59.2,32H28.8a26.31,26.31,0,0,1,1.27-4H57.93A26.31,26.31,0,0,1,59.2,32Z"/><path class="cls-7" d="M59.2,32H44V28H57.93A26.31,26.31,0,0,1,59.2,32Z"/><path class="cls-2" d="M50.34,51.74a2.4833,2.4833,0,0,1-1.12.26,2.8153,2.8153,0,0,1-2.43-1.48,2.7806,2.7806,0,0,0-2.42-1.46h-.74a2.7806,2.7806,0,0,0-2.42,1.46,2.722,2.722,0,0,1-3.55,1.22C32.05,49.02,27.14,43,28.13,35.6A31.81,31.81,0,0,1,28.8,32H59.2a31.81,31.81,0,0,1,.67,3.6C60.86,43,55.95,49.02,50.34,51.74Z"/><path class="cls-3" d="M50.34,51.74a2.4833,2.4833,0,0,1-1.12.26,2.8153,2.8153,0,0,1-2.43-1.48,2.7806,2.7806,0,0,0-2.42-1.46H44V32H59.2a31.81,31.81,0,0,1,.67,3.6C60.86,43,55.95,49.02,50.34,51.74Z"/><path class="cls-4" d="M18.7891,19H10a1,1,0,0,1,0-2h8.7891A12.45,12.45,0,0,0,29.168,11.4453a1,1,0,0,1,1.664,1.1094A14.445,14.445,0,0,1,18.7891,19Z"/></svg>