<?xml version="1.0" ?><svg width="64px" height="64px" viewBox="0 0 64 64" data-name="Layer 1" id="Layer_1" xmlns="http://www.w3.org/2000/svg"><defs><style>.cls-1{fill:#d8cdc9;}.cls-2{fill:#bdaaa4;}.cls-3{fill:#6d4d42;}.cls-4{fill:#5e4137;}.cls-5{fill:#a1887f;}.cls-6{fill:#8d6e63;}.cls-7{fill:#42a047;}.cls-8{fill:#378e43;}</style></defs><path class="cls-1" d="M60,36c0,2.57-4.29,4.75-10.33,5.6A1.9464,1.9464,0,0,0,48,43.52V44a1.9991,1.9991,0,0,1-2.34,1.97A2.0717,2.0717,0,0,1,44,43.89a1.9355,1.9355,0,0,0-1.85-1.93C34.18,41.62,28,39.08,28,36c0-3.32,7.16-6,16-6S60,32.68,60,36Z"/><path class="cls-2" d="M60,36c0,2.57-4.29,4.75-10.33,5.6A1.9464,1.9464,0,0,0,48,43.52V44a1.9991,1.9991,0,0,1-2.34,1.97A2.0717,2.0717,0,0,1,44,43.89V30C52.84,30,60,32.68,60,36Z"/><path class="cls-3" d="M33.58,48.13A18.4637,18.4637,0,0,1,22,52C12.06,52,4,45.05,4,34s8.06-22,18-22c8.8,0,16.13,8.59,17.69,18.23C32.95,30.93,28,33.25,28,36A15.9468,15.9468,0,0,0,33.58,48.13Z"/><path class="cls-4" d="M33.58,48.13A18.4637,18.4637,0,0,1,22,52V12c8.8,0,16.13,8.59,17.69,18.23C32.95,30.93,28,33.25,28,36A15.9468,15.9468,0,0,0,33.58,48.13Z"/><ellipse class="cls-5" cx="44" cy="36" rx="11.09" ry="2"/><path class="cls-6" d="M55.09,36c-1.84.92-5.71,2-11.09,2V34C49.38,34,53.25,35.08,55.09,36Z"/><path class="cls-7" d="M60,20a15.94,15.94,0,0,1-5.04,11.64,27.9254,27.9254,0,0,0-5.35-1.25,38.5034,38.5034,0,0,0-4.44-.37A15.995,15.995,0,0,1,60,20Z"/><path class="cls-8" d="M60,20a15.94,15.94,0,0,1-5.04,11.64,27.9254,27.9254,0,0,0-5.35-1.25Z"/><path class="cls-3" d="M59.99,36.24A15.9959,15.9959,0,0,1,28,36c0,3.08,6.18,5.62,14.15,5.96A1.9355,1.9355,0,0,1,44,43.89V44a1.9991,1.9991,0,0,0,2.34,1.97A2.0717,2.0717,0,0,0,48,43.89v-.37a1.9464,1.9464,0,0,1,1.67-1.92C55.52,40.78,59.73,38.7,59.99,36.24Z"/><path class="cls-4" d="M59.99,36.24A15.9824,15.9824,0,0,1,44,52V44a1.9991,1.9991,0,0,0,2.34,1.97A2.0717,2.0717,0,0,0,48,43.89v-.37a1.9464,1.9464,0,0,1,1.67-1.92C55.52,40.78,59.73,38.7,59.99,36.24Z"/><circle class="cls-5" cx="22" cy="16" r="1"/><circle class="cls-5" cx="25" cy="20" r="1"/><circle class="cls-5" cx="19" cy="20" r="1"/></svg>