<svg width="64px" height="64px" viewBox="0 0 64 64" xmlns="http://www.w3.org/2000/svg"><title>boomerang</title><g id="boomerang"><circle cx="32.5" cy="34.5" r="22.5" style="fill:#ffded5"/><circle cx="38.74" cy="35.987" r="1.069" style="fill:#4c241d"/><circle cx="27.74" cy="9.987" r="1.069" style="fill:#4c241d"/><circle cx="10.5" cy="17.5" r="2.5" style="fill:none;stroke:#4c241d;stroke-linecap:round;stroke-linejoin:round;stroke-width:2px"/><line x1="41" y1="9" x2="47.5" y2="15.5" style="fill:none;stroke:#4c241d;stroke-linecap:round;stroke-linejoin:round;stroke-width:2px"/><line x1="42" y1="15" x2="32.5" y2="5.5" style="fill:none;stroke:#4c241d;stroke-linecap:round;stroke-linejoin:round;stroke-width:2px"/><line x1="40" y1="23" x2="37.5" y2="20.5" style="fill:none;stroke:#4c241d;stroke-linecap:round;stroke-linejoin:round;stroke-width:2px"/><line x1="27" y1="44" x2="17" y2="34" style="fill:none;stroke:#4c241d;stroke-linecap:round;stroke-linejoin:round;stroke-width:2px"/><line x1="13.5" y1="30.5" x2="9.5" y2="26.5" style="fill:none;stroke:#4c241d;stroke-linecap:round;stroke-linejoin:round;stroke-width:2px"/><line x1="20" y1="46" x2="16.5" y2="42.5" style="fill:none;stroke:#4c241d;stroke-linecap:round;stroke-linejoin:round;stroke-width:2px"/><line x1="29" y1="40" x2="32" y2="43" style="fill:none;stroke:#4c241d;stroke-linecap:round;stroke-linejoin:round;stroke-width:2px"/><line x1="10" y1="53" x2="7.5" y2="50.5" style="fill:none;stroke:#4c241d;stroke-linecap:round;stroke-linejoin:round;stroke-width:2px"/><line x1="44" y1="17" x2="47" y2="20" style="fill:none;stroke:#4c241d;stroke-linecap:round;stroke-linejoin:round;stroke-width:2px"/><path d="M15.036,56.976a3.336,3.336,0,0,1,3.321-3.662l18.854-2.281a13.311,13.311,0,0,0,11.6-11.468l2.541-19.23a3.336,3.336,0,0,1,3.664-3.319,3.431,3.431,0,0,1,3.009,3.462V43.4c-.371,11.765-5.561,16.952-17.131,16.582H18.5A3.434,3.434,0,0,1,15.036,56.976Z" style="fill:#bd53b5;stroke:#4c241d;stroke-linecap:round;stroke-linejoin:round;stroke-width:2px"/><polyline points="36.819 51.202 40 55 38.25 59.984" style="fill:none;stroke:#4c241d;stroke-linecap:round;stroke-linejoin:round;stroke-width:2px"/><circle cx="50.74" cy="51.987" r="1.069" style="fill:#4c241d"/><rect x="28.025" y="53.525" width="4.95" height="4.95" transform="translate(-30.665 37.969) rotate(-45)" style="fill:#ffec95;stroke:#4c241d;stroke-linecap:round;stroke-linejoin:round;stroke-width:2px"/><polyline points="49.223 38.798 53.022 41.978 58.005 40.228" style="fill:none;stroke:#4c241d;stroke-linecap:round;stroke-linejoin:round;stroke-width:2px"/><rect x="51.547" y="30.004" width="4.95" height="4.95" transform="translate(115.186 17.245) rotate(135)" style="fill:#ffec95;stroke:#4c241d;stroke-linecap:round;stroke-linejoin:round;stroke-width:2px"/></g></svg>