<svg width="64px" height="64px" viewBox="0 0 64 64" xmlns="http://www.w3.org/2000/svg"><title>koala</title><g id="koala"><circle cx="23.5" cy="23.5" r="22.5" style="fill:#ffded5"/><path d="M26.95,61H39.191c4.941-.074,8.577-6.313,7.67-12.869l-1.018-7.354C45.3,36.848,42.758,34,39.8,34H26.2c-2.961,0-5.5,2.848-6.046,6.776L19.139,48.13c-.907,6.556,2.729,12.795,7.67,12.869Z" style="fill:#eaeaea;stroke:#4c241d;stroke-linecap:round;stroke-linejoin:round;stroke-width:2px"/><path d="M41,57h3a4,4,0,0,1,4,4H37" style="fill:#fff;stroke:#4c241d;stroke-linecap:round;stroke-linejoin:round;stroke-width:2px"/><path d="M25,57H22a4,4,0,0,0-4,4H29" style="fill:#fff;stroke:#4c241d;stroke-linecap:round;stroke-linejoin:round;stroke-width:2px"/><line x1="57" y1="44" x2="57" y2="46" style="fill:none;stroke:#4c241d;stroke-linecap:round;stroke-linejoin:round;stroke-width:2px"/><line x1="57" y1="50" x2="57" y2="52" style="fill:none;stroke:#4c241d;stroke-linecap:round;stroke-linejoin:round;stroke-width:2px"/><line x1="53" y1="48" x2="55" y2="48" style="fill:none;stroke:#4c241d;stroke-linecap:round;stroke-linejoin:round;stroke-width:2px"/><line x1="59" y1="48" x2="61" y2="48" style="fill:none;stroke:#4c241d;stroke-linecap:round;stroke-linejoin:round;stroke-width:2px"/><circle cx="10.74" cy="33.987" r="1.069" style="fill:#4c241d"/><circle cx="57.74" cy="26.987" r="1.069" style="fill:#4c241d"/><circle cx="4.5" cy="45.5" r="2.5" style="fill:none;stroke:#4c241d;stroke-linecap:round;stroke-linejoin:round;stroke-width:2px"/><line x1="30" y1="42" x2="27" y2="42" style="fill:none;stroke:#4c241d;stroke-linecap:round;stroke-linejoin:round;stroke-width:2px"/><line x1="30" y1="45" x2="27" y2="45" style="fill:none;stroke:#4c241d;stroke-linecap:round;stroke-linejoin:round;stroke-width:2px"/><line x1="30" y1="48" x2="27" y2="48" style="fill:none;stroke:#4c241d;stroke-linecap:round;stroke-linejoin:round;stroke-width:2px"/><path d="M23,40h2.908A2.091,2.091,0,0,1,28,42.092v5.816A2.091,2.091,0,0,1,25.908,50H19.444A3.444,3.444,0,0,1,16,46.556V43a7,7,0,0,1,7-7h9" style="fill:#fff;stroke:#4c241d;stroke-linecap:round;stroke-linejoin:round;stroke-width:2px"/><line x1="36" y1="42" x2="39" y2="42" style="fill:none;stroke:#4c241d;stroke-linecap:round;stroke-linejoin:round;stroke-width:2px"/><line x1="36" y1="45" x2="39" y2="45" style="fill:none;stroke:#4c241d;stroke-linecap:round;stroke-linejoin:round;stroke-width:2px"/><line x1="36" y1="48" x2="39" y2="48" style="fill:none;stroke:#4c241d;stroke-linecap:round;stroke-linejoin:round;stroke-width:2px"/><path d="M43,40H40.092A2.091,2.091,0,0,0,38,42.092v5.816A2.091,2.091,0,0,0,40.092,50h6.464A3.444,3.444,0,0,0,50,46.556V43a7,7,0,0,0-7-7H26" style="fill:#fff;stroke:#4c241d;stroke-linecap:round;stroke-linejoin:round;stroke-width:2px"/><path d="M22.142,13.5a5.69,5.69,0,0,0-6.163-5.174l-5.258.458a4.133,4.133,0,0,0-3.758,4.476l.324,3.713a5.867,5.867,0,0,0,6.355,5.336l4.447-.388" style="fill:#eaeaea;stroke:#4c241d;stroke-linecap:round;stroke-linejoin:round;stroke-width:2px"/><path d="M42.947,13.5A5.69,5.69,0,0,1,49.11,8.328l5.258.458a4.133,4.133,0,0,1,3.758,4.476L57.8,16.975a5.867,5.867,0,0,1-6.355,5.336L47,21.923" style="fill:#eaeaea;stroke:#4c241d;stroke-linecap:round;stroke-linejoin:round;stroke-width:2px"/><path d="M50,25.586C50,33.629,40.729,37.9,32.833,37.9S15,33.629,15,25.586,22.857,9.1,32.833,9.1A16.764,16.764,0,0,1,50,25.586Z" style="fill:#eaeaea;stroke:#4c241d;stroke-linecap:round;stroke-linejoin:round;stroke-width:2px"/><circle cx="25.5" cy="19.5" r="1.5" style="fill:#4c241d"/><circle cx="39.821" cy="19.5" r="1.5" style="fill:#4c241d"/><line x1="33" y1="61" x2="33" y2="53" style="fill:none;stroke:#4c241d;stroke-linecap:round;stroke-linejoin:round;stroke-width:2px"/><line x1="8" y1="61" x2="58" y2="61" style="fill:none;stroke:#4c241d;stroke-linecap:round;stroke-linejoin:round;stroke-width:2px"/><path d="M34.953,34H31.047A2.44,2.44,0,0,1,28.5,31.245l1.14-6.268A2.526,2.526,0,0,1,32.187,23h1.626a2.526,2.526,0,0,1,2.546,1.977l1.14,6.268A2.44,2.44,0,0,1,34.953,34Z" style="fill:#6b4f5b;stroke:#4c241d;stroke-linecap:round;stroke-linejoin:round;stroke-width:2px"/></g></svg>