<svg width="64px" height="64px" viewBox="0 0 64 64" xmlns="http://www.w3.org/2000/svg"><title>sydney-opera</title><g id="sydney-opera"><circle cx="23.5" cy="26.5" r="22.5" style="fill:#ffded5"/><line x1="51" y1="5" x2="51" y2="7" style="fill:none;stroke:#4c241d;stroke-linecap:round;stroke-linejoin:round;stroke-width:2px"/><line x1="51" y1="11" x2="51" y2="13" style="fill:none;stroke:#4c241d;stroke-linecap:round;stroke-linejoin:round;stroke-width:2px"/><line x1="47" y1="9" x2="49" y2="9" style="fill:none;stroke:#4c241d;stroke-linecap:round;stroke-linejoin:round;stroke-width:2px"/><line x1="53" y1="9" x2="55" y2="9" style="fill:none;stroke:#4c241d;stroke-linecap:round;stroke-linejoin:round;stroke-width:2px"/><circle cx="5.74" cy="8.987" r="1.069" style="fill:#4c241d"/><circle cx="5.74" cy="20.987" r="1.069" style="fill:#4c241d"/><circle cx="21.5" cy="12.5" r="2.5" style="fill:none;stroke:#4c241d;stroke-linecap:round;stroke-linejoin:round;stroke-width:2px"/><path d="M31,26V16s14,7,18,13,8,22,8,22L6,50V30l15,7-1-2V23Z" style="fill:#6b4f5b"/><path d="M62,53.251a5.2,5.2,0,0,0-.782-2.724C55.806,17.784,31,16,31,16,49,28,52.574,40.9,54.74,48H5.251A3.252,3.252,0,0,0,2,51.251V57H62C61.984,56.786,62,53.251,62,53.251Z" style="fill:#fff;stroke:#4c241d;stroke-linecap:round;stroke-linejoin:round;stroke-width:2px"/><line x1="10" y1="51" x2="10" y2="54" style="fill:none;stroke:#b5a19c;stroke-linecap:round;stroke-linejoin:round;stroke-width:2px"/><line x1="6" y1="51" x2="6" y2="54" style="fill:none;stroke:#b5a19c;stroke-linecap:round;stroke-linejoin:round;stroke-width:2px"/><line x1="14" y1="51" x2="14" y2="54" style="fill:none;stroke:#b5a19c;stroke-linecap:round;stroke-linejoin:round;stroke-width:2px"/><line x1="18" y1="51" x2="18" y2="54" style="fill:none;stroke:#b5a19c;stroke-linecap:round;stroke-linejoin:round;stroke-width:2px"/><line x1="22" y1="51" x2="22" y2="54" style="fill:none;stroke:#b5a19c;stroke-linecap:round;stroke-linejoin:round;stroke-width:2px"/><line x1="26" y1="51" x2="26" y2="54" style="fill:none;stroke:#b5a19c;stroke-linecap:round;stroke-linejoin:round;stroke-width:2px"/><line x1="30" y1="51" x2="30" y2="54" style="fill:none;stroke:#b5a19c;stroke-linecap:round;stroke-linejoin:round;stroke-width:2px"/><line x1="34" y1="51" x2="34" y2="54" style="fill:none;stroke:#b5a19c;stroke-linecap:round;stroke-linejoin:round;stroke-width:2px"/><line x1="38" y1="51" x2="38" y2="54" style="fill:none;stroke:#b5a19c;stroke-linecap:round;stroke-linejoin:round;stroke-width:2px"/><line x1="42" y1="51" x2="42" y2="54" style="fill:none;stroke:#b5a19c;stroke-linecap:round;stroke-linejoin:round;stroke-width:2px"/><line x1="46" y1="51" x2="46" y2="54" style="fill:none;stroke:#b5a19c;stroke-linecap:round;stroke-linejoin:round;stroke-width:2px"/><line x1="50" y1="51" x2="50" y2="54" style="fill:none;stroke:#b5a19c;stroke-linecap:round;stroke-linejoin:round;stroke-width:2px"/><line x1="54" y1="51" x2="54" y2="54" style="fill:none;stroke:#b5a19c;stroke-linecap:round;stroke-linejoin:round;stroke-width:2px"/><line x1="58" y1="51" x2="58" y2="54" style="fill:none;stroke:#b5a19c;stroke-linecap:round;stroke-linejoin:round;stroke-width:2px"/><line x1="31" y1="16" x2="31" y2="26" style="fill:none;stroke:#4c241d;stroke-linecap:round;stroke-linejoin:round;stroke-width:2px"/><polyline points="63 61 63 57 1 57 1 61" style="fill:#bf7e68;stroke:#4c241d;stroke-linecap:round;stroke-linejoin:round;stroke-width:2px"/><path d="M40.043,48H51.158C46.081,27.223,20,23,20,23v1C28.758,28.716,36.148,40.685,40.043,48Z" style="fill:#fff;stroke:#4c241d;stroke-linecap:round;stroke-linejoin:round;stroke-width:2px"/><path d="M6.937,31c9.317,4.26,13.928,12.548,17.452,17H35.912C25.983,30.877,6,30,6,30V48" style="fill:#fff;stroke:#4c241d;stroke-linecap:round;stroke-linejoin:round;stroke-width:2px"/><line x1="20" y1="33" x2="20" y2="23" style="fill:none;stroke:#4c241d;stroke-linecap:round;stroke-linejoin:round;stroke-width:2px"/></g></svg>