<svg width="64px" height="64px" viewBox="0 0 64 64" xmlns="http://www.w3.org/2000/svg"><title>tarantula</title><g id="tarantula"><circle cx="23.5" cy="26.5" r="22.5" style="fill:#ffded5"/><circle cx="4.74" cy="16.987" r="1.069" style="fill:#4c241d"/><path d="M47.181,54.225l-.7-6.058a5.346,5.346,0,0,0,3.775-2.948l8.632-18.262a3.183,3.183,0,0,0-1.135-4.024l-.067-.043a3.276,3.276,0,0,0-4.606,1.036C51.417,26.687,49,31,49,31L53,8.087a2.786,2.786,0,0,0-1.615-3l-.066-.03A2.9,2.9,0,0,0,47.3,7.046C45.866,13.279,43,23.9,43,23.9L42.87,3.616A2.64,2.64,0,0,0,40.333.989l-.067,0A2.723,2.723,0,0,0,37.425,3.6C37.191,9.6,36,23,36,23L32.761,5.929A2.435,2.435,0,0,0,29.38,4.238h0a2.434,2.434,0,0,0-1.417,2.49L29,24l-3.785-8.412A2.541,2.541,0,0,0,20.5,17.426L23.95,28.3a33.551,33.551,0,0,1,.982,4.52L26.081,40.7c.4,2.734-.405,5.094,1.919,6.3v7" style="fill:#ffded5;stroke:#4c241d;stroke-linecap:round;stroke-linejoin:round;stroke-width:2px"/><path d="M42.234,37.138S42.2,32.619,49,31" style="fill:#ffded5;stroke:#4c241d;stroke-linecap:round;stroke-linejoin:round;stroke-width:2px"/><path d="M16.5,63A1.5,1.5,0,0,1,15,61.5v-8a1.5,1.5,0,0,1,.439-1.061l3-3a1.5,1.5,0,0,1,2.122,2.122L18,54.121V61.5A1.5,1.5,0,0,1,16.5,63Z" style="fill:#6b4f5b;stroke:#4c241d;stroke-linecap:round;stroke-linejoin:round;stroke-width:2px"/><path d="M10.5,53h-3a1.5,1.5,0,0,1,0-3H9.779l3.55-4.436A1.465,1.465,0,0,1,14.56,45l5,.2a1.5,1.5,0,1,1-.121,3L15.2,48.03l-3.526,4.407A1.5,1.5,0,0,1,10.5,53Z" style="fill:#6b4f5b;stroke:#4c241d;stroke-linecap:round;stroke-linejoin:round;stroke-width:2px"/><path d="M18.5,43h-.033l-4-.083a1.509,1.509,0,0,1-1.03-.435l-6-5.945a1.478,1.478,0,0,1,0-2.1,1.51,1.51,0,0,1,2.121,0l5.574,5.522,3.4.071A1.486,1.486,0,0,1,18.5,43Z" style="fill:#6b4f5b;stroke:#4c241d;stroke-linecap:round;stroke-linejoin:round;stroke-width:2px"/><path d="M19.5,40a1.491,1.491,0,0,1-1.06-.439l-2-2a1.493,1.493,0,0,1-.428-.875l-2.883-7.061-2.1-.7a1.5,1.5,0,1,1,.949-2.845l3,1a1.5,1.5,0,0,1,1.013,1.236L18.925,35.8l1.636,1.636A1.5,1.5,0,0,1,19.5,40Z" style="fill:#6b4f5b;stroke:#4c241d;stroke-linecap:round;stroke-linejoin:round;stroke-width:2px"/><path d="M29.5,63A1.5,1.5,0,0,0,31,61.5v-8a1.5,1.5,0,0,0-.439-1.061l-3-3a1.5,1.5,0,0,0-2.122,2.122L28,54.121V61.5A1.5,1.5,0,0,0,29.5,63Z" style="fill:#6b4f5b;stroke:#4c241d;stroke-linecap:round;stroke-linejoin:round;stroke-width:2px"/><path d="M35.5,53h3a1.5,1.5,0,0,0,0-3H36.221l-3.55-4.436A1.465,1.465,0,0,0,31.44,45l-5,.2a1.5,1.5,0,1,0,.121,3L30.8,48.03l3.526,4.407A1.5,1.5,0,0,0,35.5,53Z" style="fill:#6b4f5b;stroke:#4c241d;stroke-linecap:round;stroke-linejoin:round;stroke-width:2px"/><path d="M27.5,43h.033l4-.083a1.509,1.509,0,0,0,1.03-.435l6-5.945a1.478,1.478,0,0,0,0-2.1,1.51,1.51,0,0,0-2.121,0l-5.574,5.522-3.4.071A1.486,1.486,0,0,0,27.5,43Z" style="fill:#6b4f5b;stroke:#4c241d;stroke-linecap:round;stroke-linejoin:round;stroke-width:2px"/><path d="M26.5,40a1.491,1.491,0,0,0,1.06-.439l2-2a1.493,1.493,0,0,0,.428-.875l2.883-7.061,2.1-.7a1.5,1.5,0,1,0-.949-2.845l-3,1a1.5,1.5,0,0,0-1.013,1.236L27.075,35.8,25.439,37.44A1.5,1.5,0,0,0,26.5,40Z" style="fill:#6b4f5b;stroke:#4c241d;stroke-linecap:round;stroke-linejoin:round;stroke-width:2px"/><path d="M26.523,37.282A1.982,1.982,0,0,0,27,36V33a2,2,0,0,0-2-2H22a2,2,0,0,0-2,2v3a1.982,1.982,0,0,0,.477,1.282A2.633,2.633,0,0,0,19,39.642V49.5a4.5,4.5,0,0,0,9,0V39.642A2.633,2.633,0,0,0,26.523,37.282Z" style="fill:#b5a19c;stroke:#4c241d;stroke-linecap:round;stroke-linejoin:round;stroke-width:2px"/><line x1="22" y1="45" x2="25" y2="45" style="fill:none;stroke:#4c241d;stroke-linecap:round;stroke-linejoin:round;stroke-width:2px"/><line x1="22" y1="48" x2="25" y2="48" style="fill:none;stroke:#4c241d;stroke-linecap:round;stroke-linejoin:round;stroke-width:2px"/><line x1="12.837" y1="5.663" x2="9.163" y2="9.337" style="fill:none;stroke:#4c241d;stroke-linecap:round;stroke-linejoin:round;stroke-width:2px"/><line x1="9.163" y1="5.663" x2="12.837" y2="9.337" style="fill:none;stroke:#4c241d;stroke-linecap:round;stroke-linejoin:round;stroke-width:2px"/></g></svg>