<svg width="64px" height="64px" viewBox="0 0 64 64" xmlns="http://www.w3.org/2000/svg"><title>travel</title><g id="travel"><circle cx="24.5" cy="36.5" r="22.5" style="fill:#ffded5"/><circle cx="4.5" cy="43.5" r="2.5" style="fill:none;stroke:#4c241d;stroke-linecap:round;stroke-linejoin:round;stroke-width:2px"/><path d="M10.027,26l-1.074.537a1.779,1.779,0,0,0-.8,2.387l5.432,10.864a1.778,1.778,0,0,1,.17,1.047l-.279,1.952a1.78,1.78,0,0,0,1.762,2.031h0a1.778,1.778,0,0,0,.987-.3l2.989-1.993a1.785,1.785,0,0,1,.987-.3h1.568a1.78,1.78,0,0,0,1.779-1.78v-.327a1.78,1.78,0,0,1,1.779-1.779h9.141a1.776,1.776,0,0,1,1.258.521L39.1,42.229v1.3h2.5a1.781,1.781,0,0,1,1.727,1.348l.621,3.78A1.78,1.78,0,0,0,45.665,50h2.692a1.781,1.781,0,0,0,1.592-.984l.311-.623a1.78,1.78,0,0,1,1.592-.983h1.753c.639,0,1.228-1.638,1.545-2.192l4.525-7.92a1.759,1.759,0,0,0,.2-.534l1.108-5.539a1.782,1.782,0,0,0-.2-1.232L56.27,22.1a1.777,1.777,0,0,0-.982-.8l-2.161-.72a1.779,1.779,0,0,1-1.205-1.492l-.415-3.735a1.78,1.78,0,0,0-.973-1.395l-.741-.37a1.781,1.781,0,0,1-.984-1.592V9.2H47.514l-3.038,5.063a1.779,1.779,0,0,1-2.322.676l-2.326-1.163a1.78,1.78,0,0,1-.893-2.154l.027-.08A1.78,1.78,0,0,0,37.274,9.2h-4.2a1.781,1.781,0,0,0-1.592.984l-1.46,2.92A1.78,1.78,0,0,1,28,14.035l-2.621-.655a1.779,1.779,0,0,0-1.88.692L17.98,21.793a1.773,1.773,0,0,1-.652.557l-2.913,1.457" style="fill:#ffce56;stroke:#4c241d;stroke-linecap:round;stroke-linejoin:round;stroke-width:2px"/><circle cx="19.74" cy="51.987" r="1.069" style="fill:#4c241d"/><line x1="31" y1="50" x2="31" y2="52" style="fill:none;stroke:#4c241d;stroke-linecap:round;stroke-linejoin:round;stroke-width:2px"/><line x1="31" y1="56" x2="31" y2="58" style="fill:none;stroke:#4c241d;stroke-linecap:round;stroke-linejoin:round;stroke-width:2px"/><line x1="27" y1="54" x2="29" y2="54" style="fill:none;stroke:#4c241d;stroke-linecap:round;stroke-linejoin:round;stroke-width:2px"/><line x1="33" y1="54" x2="35" y2="54" style="fill:none;stroke:#4c241d;stroke-linecap:round;stroke-linejoin:round;stroke-width:2px"/><path d="M45.1,54H48.9a.677.677,0,0,1,.606.98L48,59l-3.51-4.02A.677.677,0,0,1,45.1,54Z" style="fill:#ffce56;stroke:#4c241d;stroke-linecap:round;stroke-linejoin:round;stroke-width:2px"/><path d="M15.781,5.326a7.844,7.844,0,0,0-7.747,7.936C8.034,17.645,15.781,28,15.781,28s7.747-10.355,7.747-14.738A7.843,7.843,0,0,0,15.781,5.326Zm0,11.953A4.018,4.018,0,1,1,19.7,13.262,3.97,3.97,0,0,1,15.781,17.279Z" style="fill:#f96e43;stroke:#4c241d;stroke-linecap:round;stroke-linejoin:round;stroke-width:2px"/><path d="M47.781,22.326a7.844,7.844,0,0,0-7.747,7.936C40.034,34.645,47.781,45,47.781,45s7.747-10.355,7.747-14.738A7.843,7.843,0,0,0,47.781,22.326Zm0,11.953A4.018,4.018,0,1,1,51.7,30.262,3.97,3.97,0,0,1,47.781,34.279Z" style="fill:#a9ba5a;stroke:#4c241d;stroke-linecap:round;stroke-linejoin:round;stroke-width:2px"/></g></svg>