<svg width="64px" height="64px" viewBox="0 0 64 64" xmlns="http://www.w3.org/2000/svg"><title>coat</title><g id="coat"><circle cx="25" cy="26" r="21.5" style="fill:#ffe5d2"/><path d="M17.407,14.913l-.24.131-1.384,1.981A9.9,9.9,0,0,0,14,22.692V59h6.06l1.119-10.069A104.047,104.047,0,0,0,17.407,14.913Z" style="fill:#e86436;stroke:#4c241d;stroke-linecap:round;stroke-linejoin:round;stroke-width:2px"/><path d="M52,22.692a9.9,9.9,0,0,0-1.783-5.667l-1.384-1.981-.045-.024a101.175,101.175,0,0,0-3.853,33.911L46.088,59H52Z" style="fill:#e86436;stroke:#4c241d;stroke-linecap:round;stroke-linejoin:round;stroke-width:2px"/><rect x="45" y="53" width="9" height="6" style="fill:#ffce56;stroke:#4c241d;stroke-linecap:round;stroke-linejoin:round;stroke-width:2px"/><rect x="12" y="53" width="9" height="6" style="fill:#ffce56;stroke:#4c241d;stroke-linecap:round;stroke-linejoin:round;stroke-width:2px"/><path d="M48.788,15.02,37.75,9h-9.5L17.407,14.913a104.047,104.047,0,0,1,3.772,34.018L20.333,59s0,4.4,6.334,2.888S33,55.844,33,55.844s0,4.533,6.333,6.044S45.667,59,45.667,59l-.732-10.069A101.175,101.175,0,0,1,48.788,15.02Z" style="fill:#e86436;stroke:#4c241d;stroke-linecap:round;stroke-linejoin:round;stroke-width:2px"/><line x1="33" y1="12" x2="33" y2="56" style="fill:none;stroke:#4c241d;stroke-linecap:round;stroke-linejoin:round;stroke-width:2px"/><line x1="8.519" y1="9.019" x2="9.734" y2="10.234" style="fill:none;stroke:#4c241d;stroke-linecap:round;stroke-linejoin:round;stroke-width:2px"/><line x1="4.266" y1="4.766" x2="5.481" y2="5.981" style="fill:none;stroke:#4c241d;stroke-linecap:round;stroke-linejoin:round;stroke-width:2px"/><line x1="8.519" y1="5.981" x2="9.734" y2="4.766" style="fill:none;stroke:#4c241d;stroke-linecap:round;stroke-linejoin:round;stroke-width:2px"/><line x1="4.266" y1="10.234" x2="5.481" y2="9.019" style="fill:none;stroke:#4c241d;stroke-linecap:round;stroke-linejoin:round;stroke-width:2px"/><circle cx="60" cy="20" r="1.025" style="fill:#4c241d"/><circle cx="6" cy="25" r="1.025" style="fill:#4c241d"/><circle cx="20" cy="5" r="1.025" style="fill:#4c241d"/><circle cx="54" cy="8" r="2" style="fill:none;stroke:#4c241d;stroke-linecap:round;stroke-linejoin:round;stroke-width:2px"/><path d="M24,6h4a5,5,0,0,1,5,5v0a0,0,0,0,1,0,0H24a0,0,0,0,1,0,0V6A0,0,0,0,1,24,6Z" style="fill:#e86436;stroke:#4c241d;stroke-linecap:round;stroke-linejoin:round;stroke-width:2px"/><path d="M33,6h9a0,0,0,0,1,0,0V6a5,5,0,0,1-5,5H33a0,0,0,0,1,0,0V6A0,0,0,0,1,33,6Z" transform="translate(75 17) rotate(180)" style="fill:#e86436;stroke:#4c241d;stroke-linecap:round;stroke-linejoin:round;stroke-width:2px"/><line x1="37" y1="19" x2="29" y2="19" style="fill:none;stroke:#4c241d;stroke-linecap:round;stroke-linejoin:round;stroke-width:2px"/><circle cx="39" cy="19" r="2" style="fill:#ffce56"/><circle cx="27" cy="19" r="2" style="fill:#ffce56"/><line x1="37" y1="25" x2="29" y2="25" style="fill:none;stroke:#4c241d;stroke-linecap:round;stroke-linejoin:round;stroke-width:2px"/><circle cx="39" cy="25" r="2" style="fill:#ffce56"/><circle cx="27" cy="25" r="2" style="fill:#ffce56"/><line x1="37" y1="31" x2="29" y2="31" style="fill:none;stroke:#4c241d;stroke-linecap:round;stroke-linejoin:round;stroke-width:2px"/><circle cx="39" cy="31" r="2" style="fill:#ffce56"/><circle cx="27" cy="31" r="2" style="fill:#ffce56"/><line x1="37" y1="37" x2="29" y2="37" style="fill:none;stroke:#4c241d;stroke-linecap:round;stroke-linejoin:round;stroke-width:2px"/><circle cx="39" cy="37" r="2" style="fill:#ffce56"/><circle cx="27" cy="37" r="2" style="fill:#ffce56"/></g></svg>