<svg width="64px" height="64px" viewBox="0 0 64 64" xmlns="http://www.w3.org/2000/svg"><title>fan</title><g id="fan"><circle cx="25.5" cy="40.5" r="21.5" style="fill:#ffe5d2"/><circle cx="25.5" cy="51.5" r="2.5" style="fill:none;stroke:#4c241d;stroke-linecap:round;stroke-linejoin:round;stroke-width:2px"/><line x1="7.919" y1="38.586" x2="4.223" y2="42.281" style="fill:none;stroke:#4c241d;stroke-linecap:round;stroke-linejoin:round;stroke-width:2px"/><line x1="4.223" y1="38.586" x2="7.919" y2="42.281" style="fill:none;stroke:#4c241d;stroke-linecap:round;stroke-linejoin:round;stroke-width:2px"/><circle cx="12" cy="5" r="1" style="fill:#4c241d"/><circle cx="11" cy="53" r="1" style="fill:#4c241d"/><polygon points="48.581 54.809 49.376 49.972 53.731 47.722 52.991 42.876 56.438 39.391 54.237 35.01 56.438 30.63 52.991 27.144 53.731 22.299 49.376 20.049 48.581 15.211 43.744 14.417 41.494 10.062 36.648 10.802 33.163 7.355 28.782 9.556 24.402 7.355 20.917 10.802 16.071 10.062 13.821 14.417 8.983 15.211 9.691 20.161 28.782 35.01 43.632 54.102 48.581 54.809" style="fill:#bd53b5;stroke:#4c241d;stroke-linecap:round;stroke-linejoin:round;stroke-width:2px"/><line x1="53.531" y1="27.232" x2="28.782" y2="35.01" style="fill:none;stroke:#4c241d;stroke-linejoin:round;stroke-width:2px"/><line x1="52.824" y1="43.496" x2="28.782" y2="35.01" style="fill:none;stroke:#4c241d;stroke-linejoin:round;stroke-width:2px"/><line x1="36.561" y1="10.262" x2="28.782" y2="35.01" style="fill:none;stroke:#4c241d;stroke-linejoin:round;stroke-width:2px"/><line x1="28.782" y1="9.555" x2="28.782" y2="35.01" style="fill:none;stroke:#4c241d;stroke-linejoin:round;stroke-width:2px"/><line x1="21.004" y1="10.262" x2="28.782" y2="35.01" style="fill:none;stroke:#4c241d;stroke-linejoin:round;stroke-width:2px"/><line x1="13.933" y1="14.504" x2="28.782" y2="35.01" style="fill:none;stroke:#4c241d;stroke-linejoin:round;stroke-width:2px"/><line x1="49.289" y1="49.86" x2="28.782" y2="35.01" style="fill:none;stroke:#4c241d;stroke-linejoin:round;stroke-width:2px"/><line x1="54.238" y1="35.01" x2="28.782" y2="35.01" style="fill:none;stroke:#4c241d;stroke-linejoin:round;stroke-width:2px"/><line x1="49.289" y1="20.161" x2="28.782" y2="35.01" style="fill:none;stroke:#4c241d;stroke-linejoin:round;stroke-width:2px"/><line x1="43.632" y1="14.504" x2="28.782" y2="35.01" style="fill:none;stroke:#4c241d;stroke-linejoin:round;stroke-width:2px"/><line x1="3.327" y1="19.454" x2="45.046" y2="61.173" style="fill:#aa9061;stroke:#4c241d;stroke-linecap:round;stroke-linejoin:round;stroke-width:2px"/><path d="M33.025,44.91A10,10,0,1,0,18.883,30.768Z" style="fill:#5c128d;stroke:#4c241d;stroke-linejoin:round;stroke-width:2px"/><path d="M30.2,42.081A6,6,0,0,1,21.711,33.6Z" style="fill:#e66353;stroke:#4c241d;stroke-linejoin:round;stroke-width:2px"/><line x1="54" y1="4" x2="54" y2="6" style="fill:none;stroke:#4c241d;stroke-linecap:round;stroke-linejoin:round;stroke-width:2px"/><line x1="56" y1="8" x2="58" y2="8" style="fill:none;stroke:#4c241d;stroke-linecap:round;stroke-linejoin:round;stroke-width:2px"/><line x1="52" y1="8" x2="50" y2="8" style="fill:none;stroke:#4c241d;stroke-linecap:round;stroke-linejoin:round;stroke-width:2px"/><line x1="54" y1="10" x2="54" y2="12" style="fill:none;stroke:#4c241d;stroke-linecap:round;stroke-linejoin:round;stroke-width:2px"/></g></svg>