<svg width="64px" height="64px" viewBox="0 0 64 64" xmlns="http://www.w3.org/2000/svg"><title>female</title><g id="female"><circle cx="36.5" cy="35.5" r="21.5" style="fill:#ffe5d2"/><path d="M34.022,7.078a14.485,14.485,0,0,0-13.013,5.579,13.929,13.929,0,0,0-2.417,5.227A17.98,17.98,0,0,0,18,21.5v.385A5.115,5.115,0,0,0,23.115,27h18.77A5.115,5.115,0,0,0,47,21.885h0A14.749,14.749,0,0,0,34.022,7.078Z" style="fill:#6b4f5b;stroke:#4c241d;stroke-linecap:round;stroke-linejoin:round;stroke-width:2px"/><path d="M42.625,47.33,35.969,44.3c.008-.1-7.946-.1-7.938,0l-8.587,3.9A9.389,9.389,0,0,0,14,56.775V63h8.545Z" style="fill:#b5a19c;stroke:#4c241d;stroke-linecap:round;stroke-linejoin:round;stroke-width:2px"/><rect x="29" y="38" width="7" height="7" style="fill:#edebdc;stroke:#4c241d;stroke-linecap:round;stroke-linejoin:round;stroke-width:2px"/><path d="M46.031,24.723C40,28,25.055,21.676,24.507,16.7l-.1.008C24.763,24.021,19,24.709,19,24.709a2.5,2.5,0,0,0-1.5,2.382,2.56,2.56,0,0,0,1.183,1.97,2.225,2.225,0,0,0,2.108.3A13.9,13.9,0,0,0,30.15,39.808a6.978,6.978,0,0,0,4.285-.046l.444-.144a13.9,13.9,0,0,0,9.293-10.269,2.282,2.282,0,0,0,2.093-.238,2.537,2.537,0,0,0,1.215-1.793A2.5,2.5,0,0,0,46.031,24.723Z" style="fill:#edebdc;stroke:#4c241d;stroke-linecap:round;stroke-linejoin:round;stroke-width:2px"/><circle cx="6.5" cy="23.5" r="2.5" style="fill:none;stroke:#4c241d;stroke-linecap:round;stroke-linejoin:round;stroke-width:2px"/><circle cx="59.5" cy="18.5" r="1.132" style="fill:#4c241d"/><circle cx="13.5" cy="34.5" r="1.132" style="fill:#4c241d"/><line x1="56.837" y1="8.663" x2="53.163" y2="12.337" style="fill:none;stroke:#4c241d;stroke-linecap:round;stroke-linejoin:round;stroke-width:2px"/><line x1="53.163" y1="8.663" x2="56.837" y2="12.337" style="fill:none;stroke:#4c241d;stroke-linecap:round;stroke-linejoin:round;stroke-width:2px"/><path d="M50,63V56.775a9.389,9.389,0,0,0-5.444-8.568l-1.931-.877L22.545,63Z" style="fill:#e66353;stroke:#4c241d;stroke-linecap:round;stroke-linejoin:round;stroke-width:2px"/><line x1="29" y1="53" x2="36" y2="58" style="fill:none;stroke:#4c241d;stroke-linecap:round;stroke-linejoin:round;stroke-width:2px"/><line x1="31" y1="51" x2="38" y2="56" style="fill:none;stroke:#4c241d;stroke-linecap:round;stroke-linejoin:round;stroke-width:2px"/><line x1="21" y1="59" x2="21" y2="63" style="fill:none;stroke:#4c241d;stroke-linecap:round;stroke-linejoin:round;stroke-width:2px"/><path d="M38,6.5a1.5,1.5,0,0,1-.363-2.955l8-2a1.5,1.5,0,1,1,.728,2.91l-8,2A1.483,1.483,0,0,1,38,6.5Z" style="fill:#bf7e68;stroke:#4c241d;stroke-linecap:round;stroke-linejoin:round;stroke-width:2px"/><path d="M27,6.5a1.5,1.5,0,0,0,.363-2.955l-8-2a1.5,1.5,0,1,0-.728,2.91l8,2A1.483,1.483,0,0,0,27,6.5Z" style="fill:#bf7e68;stroke:#4c241d;stroke-linecap:round;stroke-linejoin:round;stroke-width:2px"/><line x1="40" y1="28" x2="38" y2="29" style="fill:none;stroke:#4c241d;stroke-linecap:round;stroke-linejoin:round;stroke-width:2px"/><line x1="27" y1="29" x2="25" y2="28" style="fill:none;stroke:#4c241d;stroke-linecap:round;stroke-linejoin:round;stroke-width:2px"/><rect x="25" y="2" width="15" height="8" rx="3.591" ry="3.591" style="fill:#6b4f5b;stroke:#4c241d;stroke-linecap:round;stroke-linejoin:round;stroke-width:2px"/><path d="M23,43h5a4,4,0,0,1,4,4v0a0,0,0,0,1,0,0H27a4,4,0,0,1-4-4v0A0,0,0,0,1,23,43Z" style="fill:#6b4f5b;stroke:#4c241d;stroke-linecap:round;stroke-linejoin:round;stroke-width:2px"/><path d="M36,43h5a0,0,0,0,1,0,0v0a4,4,0,0,1-4,4H32a0,0,0,0,1,0,0v0A4,4,0,0,1,36,43Z" transform="translate(73 90) rotate(180)" style="fill:#6b4f5b;stroke:#4c241d;stroke-linecap:round;stroke-linejoin:round;stroke-width:2px"/><rect x="26" y="31" width="3" height="2" rx="1" ry="1" style="fill:#e66353"/><rect x="36" y="31" width="3" height="2" rx="1" ry="1" style="fill:#e66353"/></g></svg>