<?xml version="1.0" ?><svg width="340px" height="340px" viewBox="0 0 340 340" id="icons" xmlns="http://www.w3.org/2000/svg"><title/><path d="M135.069,60.9s-11.7-1.3-14.651,9.5a15.7,15.7,0,0,0-.4,5.842c.612,5.614,3.679,17.29,18.578,18.026Z" style="fill:#577772"/><path d="M146.768,25.39a36.4,36.4,0,0,0-2.892,7.274l51.681-.426a37.3,37.3,0,0,0-2.62-6.779C183.34,6.58,156.734,6.7,146.768,25.39Z" style="fill:#577772"/><path d="M280.09,279.283c-13.507-21.046-43.976-16.648-43.976-16.648H103.887s-30.47-4.4-43.977,16.648c0,0-10.294,12.277-6.824,31.484a21.831,21.831,0,0,0,21.5,17.9H265.413a21.831,21.831,0,0,0,21.5-17.9C290.384,291.56,280.09,279.283,280.09,279.283Z" style="fill:#9fbbba"/><path d="M236.114,262.635H103.887a60.854,60.854,0,0,0-24.652,2.309,27.326,27.326,0,0,0,22.579,11.441H238.185a27.327,27.327,0,0,0,22.58-11.441A60.85,60.85,0,0,0,236.114,262.635Z" style="fill:#577772"/><path d="M221.824,319.775a37.772,37.772,0,0,0,2.714-14.339V284.315c0-8.61-2.853-16.068-8.07-21.68H123.532c-5.217,5.612-8.07,13.07-8.07,21.68v21.121a37.794,37.794,0,0,0,2.714,14.339,31.123,31.123,0,0,0,5.383,8.888h92.882A31.123,31.123,0,0,0,221.824,319.775Z" style="fill:#577772"/><path d="M202.262,262.439l-63.213-.182c-4.2,1.774-14.376,14.121-14.376,14.121a26.562,26.562,0,0,0-1.136,7.937v21.121a29.884,29.884,0,0,0,2.116,11.29c2.272,5.571,6.888,11.937,16.119,11.937h56.456c9.231,0,13.847-6.366,16.119-11.937a29.884,29.884,0,0,0,2.116-11.29V284.315a26.562,26.562,0,0,0-1.136-7.937S206.46,264.214,202.262,262.439Z" style="fill:#9fbbba"/><path d="M199.486,267.019a4.038,4.038,0,1,0-7.858,1.863c.048.2,4.646,20.142-4.019,31.254-3.789,4.859-9.545,7.279-17.6,7.4-8.054-.116-13.815-2.53-17.608-7.382-8.616-11.022-4.109-30.947-4.033-31.274a4.038,4.038,0,0,0-7.858-1.861c-.229.971-5.512,23.948,5.509,38.082,5.329,6.834,13.377,10.37,23.923,10.512h.108c10.546-.142,18.594-3.678,23.923-10.512C205,290.967,199.716,267.99,199.486,267.019Z" style="fill:#577772"/><path d="M258.59,240.849a33.145,33.145,0,0,1-.6-6.092V183.109c-1.01-36.361-18.686-51.258-18.686-51.258-26.26-22.473-56.528-22.221-56.528-22.221H157.222s-30.269-.252-56.529,22.221c0,0-17.676,14.9-18.685,51.258v51.648a33.146,33.146,0,0,1-.6,6.092c-.936,5.005-1.567,16.53,10.218,23.4a28.335,28.335,0,0,0,14.289,3.7H234.083a28.335,28.335,0,0,0,14.289-3.7C260.157,257.379,259.526,245.854,258.59,240.849Z" style="fill:#9fbbba"/><path d="M182.778,109.63H157.222a81.269,81.269,0,0,0-19,2.838,22.754,22.754,0,0,0,6.22,10.806L170,127.5l25.561-4.223a22.754,22.754,0,0,0,6.22-10.806A81.269,81.269,0,0,0,182.778,109.63Z" style="fill:#577772"/><path d="M215.82,239.174a27.153,27.153,0,0,0-14.1-3.781h-.589a17.63,17.63,0,0,1-7.121-1.456,65.178,65.178,0,0,0-12.161-3.947,14.882,14.882,0,0,0-3.149-.339,14.639,14.639,0,0,0-8.7,2.866,14.654,14.654,0,0,0-8.7-2.866h0a14.885,14.885,0,0,0-3.15.339,65.178,65.178,0,0,0-12.161,3.947,17.63,17.63,0,0,1-7.121,1.456h-.589a27.153,27.153,0,0,0-14.1,3.781c-13.616,8.253-12.3,24.06-11.559,28.776H227.379C228.118,263.234,229.436,247.427,215.82,239.174Z" style="fill:#577772"/><path d="M181.96,109.63H158.04a64.734,64.734,0,0,0-11.96,1.409v74.937c0,10.056,7.763,18.207,17.339,18.207h13.162c9.576,0,17.339-8.151,17.339-18.207V111.039A64.734,64.734,0,0,0,181.96,109.63Z" style="fill:#9fbbba"/><path d="M204.931,60.9s11.7-1.3,14.651,9.5a15.7,15.7,0,0,1,.4,5.842c-.612,5.614-3.679,17.29-18.578,18.026Z" style="fill:#577772"/><path d="M144.443,121.589C152.391,124.745,161.7,127.5,170,127.5c8.876,0,18.119-3.474,25.557-7.255v-9.178a72.456,72.456,0,0,0-12.779-1.434H157.222a72.456,72.456,0,0,0-12.779,1.434Z" style="fill:#577772"/><path d="M205.868,39.668a37.98,37.98,0,0,0-11.686-12.329,43.663,43.663,0,0,0-48.364,0,37.98,37.98,0,0,0-11.686,12.329,34.251,34.251,0,0,0-4.321,20.124c.551,6.8,2.5,16.362,8.679,23.347L170,46.3l31.511,36.841c6.175-6.985,8.127-16.549,8.678-23.347A34.243,34.243,0,0,0,205.868,39.668Z" style="fill:#577772"/><path d="M202.263,262.439H137.738A22.4,22.4,0,0,0,124.7,276.385h90.61A22.4,22.4,0,0,0,202.263,262.439Z" style="fill:#577772"/><path d="M197.755,51.285A14.422,14.422,0,0,0,185.6,44.751H154.4a14.423,14.423,0,0,0-12.152,6.534c-6.676,10.373-7.176,23.872-7.176,23.872.238,17.36,7.022,27.28,12.068,32.275a44.908,44.908,0,0,0,4.421,3.6,20.858,20.858,0,0,0,12.4,4.08h12.094a20.857,20.857,0,0,0,12.4-4.079,45.045,45.045,0,0,0,4.421-3.6c5.046-5,11.83-14.915,12.068-32.275C204.931,75.157,204.431,61.658,197.755,51.285Z" style="fill:#9fbbba"/><path d="M117.363,314.482a4.037,4.037,0,0,0,1.781-7.876c-26.932-6.086-24.3-32.817-24.169-33.969a4.038,4.038,0,0,0-8.023-.922C86.912,272.064,83.276,306.78,117.363,314.482Z" style="fill:#577772"/><path d="M70.055,300.18c1.73,9.618,6.21,21.878,17.6,28.483h17.681C92.7,324.269,81.459,312.232,74.3,298.728A2.271,2.271,0,0,0,70.055,300.18Z" style="fill:#577772"/><path d="M270.8,300.18c-1.73,9.618-6.21,21.878-17.6,28.483H235.516c12.642-4.394,23.879-16.431,31.039-29.935A2.271,2.271,0,0,1,270.8,300.18Z" style="fill:#577772"/><path d="M108.649,242.757a4.039,4.039,0,0,1-3.433-6.155c.387-.63,9.658-15.4,24.16-14.842a14.12,14.12,0,0,1,8.262,3.168,4.037,4.037,0,0,1-5.139,6.228,6.121,6.121,0,0,0-3.306-1.323c-9.823-.369-17.032,10.889-17.1,11A4.032,4.032,0,0,1,108.649,242.757Z" style="fill:#577772"/><path d="M126.589,229.947a4.015,4.015,0,0,1-2.357-.762c-23.991-17.287-18.323-69.688-18.071-71.909a4.038,4.038,0,0,1,8.024.911c-.057.5-5.4,49.917,14.768,64.447a4.037,4.037,0,0,1-2.364,7.313Z" style="fill:#577772"/><path d="M155.1,79.275a19.872,19.872,0,0,1-6.661-1.109,3.532,3.532,0,1,1,2.376-6.653c1.876.669,5.81,1.458,11.079-.784a3.532,3.532,0,1,1,2.768,6.5A24.264,24.264,0,0,1,155.1,79.275Z" style="fill:#577772"/><path d="M160.708,136.794c-8.848,0-13.912-3.528-16.265-5.809v9.923a32.826,32.826,0,0,0,16.265,3.961,4.038,4.038,0,0,0,0-8.075Z" style="fill:#577772"/><path d="M231.351,242.757a4.033,4.033,0,0,1-3.436-1.913c-.1-.157-7-11.024-16.5-11.024-.169,0-.339,0-.51.011-.055,0-.11,0-.166,0a6.166,6.166,0,0,0-3.24,1.322,4.037,4.037,0,0,1-5.139-6.228,14.12,14.12,0,0,1,8.262-3.168c14.517-.559,23.772,14.211,24.16,14.842a4.039,4.039,0,0,1-3.433,6.155Z" style="fill:#577772"/><path d="M213.411,229.947a4.037,4.037,0,0,1-2.364-7.313c20.2-14.552,14.826-63.948,14.769-64.446a4.037,4.037,0,1,1,8.023-.912c.252,2.221,5.92,54.622-18.071,71.909A4.015,4.015,0,0,1,213.411,229.947Z" style="fill:#577772"/><path d="M214.779,181.679V133.65a4.038,4.038,0,0,0-8.075,0v48.143c0,.082,0,.173.008.254.01.156.97,15.805-8.944,25.266-8.7,8.307-43.174,11.964-55.536,0-9.848-9.53-8.954-25.11-8.945-25.256q.009-.132.009-.264V133.65a4.038,4.038,0,0,0-8.075,0v48.029c-.1,1.939-.66,19.536,11.3,31.34,6.909,6.82,16.461,11.271,28.45,11.27h10.066c11.988,0,21.541-4.45,28.45-11.27C215.439,201.215,214.879,183.618,214.779,181.679Z" style="fill:#577772"/><path d="M170,89.388a10.271,10.271,0,0,1-10.26-10.26V70.86c-1.538-5.895-8.879-5.27-9.726-5.179a3.533,3.533,0,0,1-.819-7.018c5.108-.612,15.352.914,17.532,11.043a3.578,3.578,0,0,1,.078.743v8.679a3.195,3.195,0,0,0,6.39,0V70.449a3.513,3.513,0,0,1,.079-.743c2.179-10.127,12.416-11.648,17.531-11.043a3.533,3.533,0,0,1-.821,7.018c-.859-.094-8.187-.711-9.724,5.179v8.268A10.271,10.271,0,0,1,170,89.388Z" style="fill:#577772"/><path d="M184.905,79.275a24.26,24.26,0,0,1-9.562-2.046,3.532,3.532,0,0,1,2.768-6.5c5.267,2.242,9.2,1.453,11.079.784a3.532,3.532,0,1,1,2.376,6.653A19.877,19.877,0,0,1,184.905,79.275Z" style="fill:#577772"/><path d="M176.727,102.431H163.273a3.533,3.533,0,1,1,0-7.065h13.454a3.533,3.533,0,1,1,0,7.065Z" style="fill:#577772"/><path d="M248.582,268.175a4.041,4.041,0,0,0-3.556,4.461c.126,1.136,2.77,27.882-24.169,33.97a4.037,4.037,0,1,0,1.78,7.876c34.087-7.7,30.451-42.418,30.411-42.767A4.034,4.034,0,0,0,248.582,268.175Z" style="fill:#577772"/><path d="M195.557,112.763a33.515,33.515,0,0,1-23.634,10.624q-.942.033-1.923.034c-.534,0-1.061-.008-1.572-.023a33.324,33.324,0,0,1-23.985-11.026v10.9a42.006,42.006,0,0,0,23.75,8.195c.593.017,1.194.027,1.807.027q1.132,0,2.217-.041a42.354,42.354,0,0,0,23.34-7.913Z" style="fill:#577772"/><path d="M195.557,129.613c-1.652,2.271-6.518,7.47-16.634,7.68a4.037,4.037,0,0,0,.082,8.073h.086a30.3,30.3,0,0,0,16.466-4.846Z" style="fill:#577772"/><path d="M144.443,180.326c.589.05,1.694.122,3.157.122,5.416,0,15.672-1.014,22.422-7.805,6.945,6.842,17.58,7.77,22.819,7.77,1.28,0,2.213-.055,2.716-.092v-8.088c-.126,0-.261.007-.386.019-.158.013-15.348,1.333-21.134-7.361V152a4.037,4.037,0,0,0-8.074,0v12.91c-5.759,8.882-20.922,7.371-21.071,7.351a3.962,3.962,0,0,0-.449-.025Z" style="fill:#577772"/><path d="M170,61.682a3.562,3.562,0,0,1-2.493-1.04,3.522,3.522,0,0,1-.011-4.987,3.3,3.3,0,0,1,.545-.443,2.984,2.984,0,0,1,.607-.324,3.065,3.065,0,0,1,.665-.2,3.531,3.531,0,1,1,.687,7Z" style="fill:#577772"/><rect height="16.962" rx="3.335" style="fill:#577772" transform="translate(232.916 213.754) rotate(-167.639)" width="6.67" x="124.696" y="85.785"/><rect height="16.962" rx="3.335" style="fill:#577772" transform="translate(-15.266 47.561) rotate(-12.361)" width="6.67" x="208.633" y="85.785"/><path d="M189.648,188.3S189.34,200.015,170,200.015,150.361,188.3,150.361,188.3V110.137c-1.718.21-3.7.5-5.918.927v76.245a18.525,18.525,0,0,0,18.526,18.525h14.062a18.525,18.525,0,0,0,18.526-18.525V111.064c-2.212-.421-4.193-.716-5.909-.926Z" style="fill:#577772"/><path d="M167.081,254.552a8.4,8.4,0,0,0-7.68,1.538,4.042,4.042,0,0,1-6.116-.47,4.15,4.15,0,0,1,.63-5.457c3.153-2.965,8.136-3.914,9.4-4.114,2.287-.48,2.635-1.519,2.649-1.572v-.114a4.05,4.05,0,0,1,.111-.866c.669-7.329-6.642-7.589-6.642-7.589a58.732,58.732,0,0,0-11.012,3.575,23.783,23.783,0,0,1-9.553,1.966h-.589a21.106,21.106,0,0,0-10.959,2.9c-12.225,7.41-8.546,23.6-8.546,23.6h38.012a13.211,13.211,0,0,0,12.075-7.859C169.743,257.017,169.327,255.181,167.081,254.552Z" style="fill:#9fbbba"/><path d="M212.681,244.353a21.106,21.106,0,0,0-10.959-2.9h-.589a23.775,23.775,0,0,1-9.552-1.966,58.77,58.77,0,0,0-11.013-3.575s-7.3.259-6.645,7.566a3.962,3.962,0,0,1,.112.821c.049.325.39,1.281,2.65,1.754,1.257.2,6.2,1.139,9.359,4.075a4.223,4.223,0,0,1,.373,5.855,4.04,4.04,0,0,1-5.818.111,7.075,7.075,0,0,0-3.195-1.927,9.583,9.583,0,0,0-2.518-.1c-1.765.461-4.32,1.558-3.737,6.047a13.209,13.209,0,0,0,12.066,7.841h38.012S224.906,251.763,212.681,244.353Z" style="fill:#9fbbba"/><path d="M174.035,244.307l0,.056v.108A.873.873,0,0,0,174.035,244.307Z" style="fill:#9fbbba"/><path d="M95.939,172.769h0a2.745,2.745,0,0,1,.644,1.989c-.363,4.72-1.573,23.257.825,34.343a16.48,16.48,0,0,1-.913,10.285c-.248.549-.53,1.108-.852,1.669a2.75,2.75,0,0,1-5.105-1.143c-.928-9.781-2.153-29.216.579-45.829A2.755,2.755,0,0,1,95.939,172.769Z" style="fill:#c7e2df"/><path d="M243.768,176.352a50.562,50.562,0,0,1-.3,8.327,11.608,11.608,0,0,0,4.463,10.476h0a2.324,2.324,0,0,0,3.752-1.773c.173-6.807.158-19.825-1.978-29.01a2.108,2.108,0,0,0-4.09-.043l-1.048,4A26.363,26.363,0,0,0,243.768,176.352Z" style="fill:#c7e2df"/><path d="M78.42,278.9v.723a9.22,9.22,0,0,1-4.676,8.058A30.754,30.754,0,0,0,62.13,298.606a2.251,2.251,0,0,1-3.277.733l-.081-.06a2.221,2.221,0,0,1-.856-2.316c.95-3.933,4.389-14.863,14.345-21.344A3.963,3.963,0,0,1,78.42,278.9Z" style="fill:#c7e2df"/><path d="M131.241,296.307c.186,1.067.407,2.18.668,3.311a30.105,30.105,0,0,0,12.479,18.021h0a1.859,1.859,0,0,1-.458,3.3l-.67.223a9.506,9.506,0,0,1-12.053-6.117,51.416,51.416,0,0,1-2-18.6A1.027,1.027,0,0,1,131.241,296.307Z" style="fill:#c7e2df"/><rect height="11.135" rx="2.481" style="fill:#c7e2df" width="4.962" x="153.917" y="150.558"/><path d="M152.164,48.578h14.573a1.162,1.162,0,0,1,.63,2.139l-1.053.678a20.216,20.216,0,0,1-10.953,3.224h-7.3a1.163,1.163,0,0,1-.971-1.8,10.448,10.448,0,0,1,4.638-4.16A1.223,1.223,0,0,1,152.164,48.578Z" style="fill:#c7e2df"/><path d="M108.007,134.592a50.242,50.242,0,0,1,4.6-4.166,3.78,3.78,0,0,1,6.109,2.98v11.019a3.779,3.779,0,0,1-3.779,3.779h-.309a3.781,3.781,0,0,1-3.313-1.961l-3.938-7.176A3.784,3.784,0,0,1,108.007,134.592Z" style="fill:#c7e2df"/></svg>