<svg width="64px" height="64px" viewBox="0 0 64 64" xmlns="http://www.w3.org/2000/svg"><title>fishes</title><g id="fishes"><circle cx="32.5" cy="29.5" r="21.5" style="fill:#ffe5d2"/><path d="M19.4,27.471l1.1,7.339a.922.922,0,0,0,1.684.367l5.271-8.09" style="fill:#f4aeab;stroke:#4c241d;stroke-linecap:round;stroke-linejoin:round;stroke-width:2px"/><path d="M17.927,12.946l-.52-7.4a.923.923,0,0,1,1.566-.724l6.9,6.755" style="fill:#f4aeab;stroke:#4c241d;stroke-linecap:round;stroke-linejoin:round;stroke-width:2px"/><path d="M42.021,20.184c.563-5.194-3.524-9.006-10.8-9.151l-4.24,7.47,4.648,8C39.42,25.57,41.618,23.9,42.021,20.184Z" style="fill:#f4aeab;stroke:#4c241d;stroke-linecap:round;stroke-linejoin:round;stroke-width:2px"/><path d="M7.738,40.817S5.513,28.008,21.62,27.241c4.082-.2,7.368-.425,10.012-.741l-4.648-8,4.24-7.47a26.312,26.312,0,0,0-5.387.485c-10.584,1.994-22.341,7.087-24,20.019C.835,39.283,3.52,43.5,3.52,43.5s-1.3,9.127,2.608,7.823S9.809,47.8,9.809,47.8s3.835,2.3,5.829-.154S16.021,42.657,7.738,40.817Z" style="fill:#fc8c29;stroke:#4c241d;stroke-linecap:round;stroke-linejoin:round;stroke-width:2px"/><path d="M26.984,18.5s-6.7-.353-14.721,5.21c-9.584,6.646-4.525,17.1-4.525,17.1" style="fill:none;stroke:#4c241d;stroke-linecap:round;stroke-linejoin:round;stroke-width:2px"/><circle cx="33.918" cy="14.39" r="1" style="fill:#4c241d"/><circle cx="33.942" cy="22.452" r="1" style="fill:#4c241d"/><path d="M45.332,36.244,43.38,29.085a.922.922,0,0,0-1.716-.166L37.38,37.571" style="fill:#f4aeab;stroke:#4c241d;stroke-linecap:round;stroke-linejoin:round;stroke-width:2px"/><path d="M48.5,50.5l1.385,7.291a.922.922,0,0,1-1.469.9l-7.645-5.9" style="fill:#f4aeab;stroke:#4c241d;stroke-linecap:round;stroke-linejoin:round;stroke-width:2px"/><path d="M23.72,46.138c.05,5.225,4.557,8.53,11.8,7.82l3.333-7.916-5.554-7.4C25.67,40.484,23.683,42.405,23.72,46.138Z" style="fill:#f4aeab;stroke:#4c241d;stroke-linecap:round;stroke-linejoin:round;stroke-width:2px"/><path d="M55.342,21.622S59.055,34.08,43.151,36.734c-4.031.673-7.268,1.287-9.856,1.911l5.554,7.4-3.333,7.916a26.341,26.341,0,0,0,5.293-1.114c10.276-3.224,21.354-9.662,21.488-22.7.08-7.81-3.081-11.683-3.081-11.683S59.438,9.244,55.707,11s-3.242,3.936-3.242,3.936-4.078-1.834-5.77.837S46.9,20.767,55.342,21.622Z" style="fill:#8690c3;stroke:#4c241d;stroke-linecap:round;stroke-linejoin:round;stroke-width:2px"/><path d="M38.849,46.042s6.694-.437,14.008-6.9c8.737-7.724,2.485-17.516,2.485-17.516" style="fill:none;stroke:#4c241d;stroke-linecap:round;stroke-linejoin:round;stroke-width:2px"/><circle cx="32.446" cy="50.941" r="1" style="fill:#4c241d"/><circle cx="31.476" cy="42.937" r="1" style="fill:#4c241d"/><circle cx="44.5" cy="5.5" r="2.5" style="fill:none;stroke:#4c241d;stroke-linecap:round;stroke-linejoin:round;stroke-width:2px"/><line x1="19.919" y1="55.586" x2="16.223" y2="59.281" style="fill:none;stroke:#4c241d;stroke-linecap:round;stroke-linejoin:round;stroke-width:2px"/><line x1="16.223" y1="55.586" x2="19.919" y2="59.281" style="fill:none;stroke:#4c241d;stroke-linecap:round;stroke-linejoin:round;stroke-width:2px"/><circle cx="53.5" cy="53.5" r="1.132" style="fill:#4c241d"/></g></svg>