<svg width="64px" height="64px" viewBox="0 0 64 64" xmlns="http://www.w3.org/2000/svg"><title>gate</title><g id="gate"><circle cx="23.5" cy="30.5" r="21.5" style="fill:#ffe5d2"/><path d="M5,62H5a4,4,0,0,1,4-4H56a4,4,0,0,1,4,4h0" style="fill:#b5a19c;stroke:#4c241d;stroke-linecap:round;stroke-linejoin:round;stroke-width:2px"/><line x1="6.919" y1="37.586" x2="3.223" y2="41.281" style="fill:none;stroke:#4c241d;stroke-linecap:round;stroke-linejoin:round;stroke-width:2px"/><line x1="3.223" y1="37.586" x2="6.919" y2="41.281" style="fill:none;stroke:#4c241d;stroke-linecap:round;stroke-linejoin:round;stroke-width:2px"/><polyline points="16 20 16 48 21 48 21 20" style="fill:#fc8c29;stroke:#4c241d;stroke-linecap:round;stroke-linejoin:round;stroke-width:2px"/><rect x="27" y="16" width="10" height="9" style="fill:#e86436;stroke:#4c241d;stroke-linecap:round;stroke-linejoin:round;stroke-width:2px"/><path d="M14.215,15.7a3.03,3.03,0,0,0-.046.524c0,2.006,1.989,3.631,4.443,3.631s4.442-1.625,4.442-3.631" style="fill:#aa9061;stroke:#4c241d;stroke-linecap:round;stroke-linejoin:round;stroke-width:2px"/><polygon points="14 58 23 58 22.415 48 14.585 48 14 58" style="fill:#aa9061;stroke:#4c241d;stroke-linecap:round;stroke-linejoin:round;stroke-width:2px"/><polyline points="48 19 48 48 43 48 43 19.39" style="fill:#fc8c29;stroke:#4c241d;stroke-linecap:round;stroke-linejoin:round;stroke-width:2px"/><path d="M49.785,15.706a3.007,3.007,0,0,1,.046.522c0,2.006-1.989,3.631-4.443,3.631s-4.442-1.625-4.442-3.631" style="fill:#aa9061;stroke:#4c241d;stroke-linecap:round;stroke-linejoin:round;stroke-width:2px"/><path d="M54.532,11.427v.345a3.463,3.463,0,0,1-3.143,3.52,272.159,272.159,0,0,1-38.773.034,3.474,3.474,0,0,1-3.148-3.52v-.333" style="fill:#f4aeab;stroke:#4c241d;stroke-linecap:round;stroke-linejoin:round;stroke-width:2px"/><path d="M9.468,23.576s24.32,2.993,45.064,0v1.2a3.463,3.463,0,0,1-3.143,3.52,272.159,272.159,0,0,1-38.773.034,3.474,3.474,0,0,1-3.148-3.52Z" style="fill:#6b4f5b;stroke:#4c241d;stroke-linecap:round;stroke-linejoin:round;stroke-width:2px"/><path d="M4,5.5s30.222,3.489,56,0V6.89a4.143,4.143,0,0,1-3.905,4.1,360.57,360.57,0,0,1-48.184.039A4.155,4.155,0,0,1,4,6.929Z" style="fill:#6b4f5b;stroke:#4c241d;stroke-linecap:round;stroke-linejoin:round;stroke-width:2px"/><polygon points="50 58 41 58 41.585 48 49.415 48 50 58" style="fill:#aa9061;stroke:#4c241d;stroke-linecap:round;stroke-linejoin:round;stroke-width:2px"/><line x1="32.044" y1="19" x2="32.044" y2="20.647" style="fill:#ffce56;stroke:#4c241d;stroke-linecap:round;stroke-linejoin:round;stroke-width:2px"/><circle cx="28" cy="34" r="1" style="fill:#e66353"/><circle cx="28" cy="38" r="1" style="fill:#e66353"/><circle cx="28" cy="42" r="1" style="fill:#e66353"/><circle cx="28" cy="46" r="1" style="fill:#e66353"/><circle cx="36" cy="34" r="1" style="fill:#e66353"/><circle cx="36" cy="38" r="1" style="fill:#e66353"/><circle cx="36" cy="42" r="1" style="fill:#e66353"/><circle cx="36" cy="46" r="1" style="fill:#e66353"/><line x1="46" y1="53" x2="46" y2="58" style="fill:none;stroke:#4c241d;stroke-linecap:round;stroke-linejoin:round;stroke-width:2px"/><line x1="18" y1="53" x2="18" y2="58" style="fill:none;stroke:#4c241d;stroke-linecap:round;stroke-linejoin:round;stroke-width:2px"/></g></svg>