<?xml version="1.0" ?><svg width="340px" height="340px" viewBox="0 0 340 340" id="icons" xmlns="http://www.w3.org/2000/svg"><title/><path d="M44.319,84.277,55.7,77.024s60.249,86.328,84.071,111.152c0,0,11.907,12.061,15.474,22.574a43.05,43.05,0,0,1,.773,4.9l-14.288,11.712s-9.812-5.427-17.426-20.695c-2.147-4.305-4.506-9-7.013-13.108C107.013,176.726,78.906,135.035,44.319,84.277Z" style="fill:#ffc49c"/><path d="M46.482,86.861c-7.648-12.011-8.665-13.744-21.26-33.982-3.6-5.779-9.875-13.732-13.264-19.636l-.922-1.607A6.445,6.445,0,0,1,13.3,22.908h0a6.445,6.445,0,0,1,8.814,2.132l.114.184c4.075,6.6,8.6,15.281,13.474,22.538,9.614,14.319,12.445,19,21.032,32.2Z" style="fill:#ffc49c"/><path d="M123.61,206.5c7.614,15.267,17.287,21.542,17.287,21.542l15.334-12.429a17.488,17.488,0,0,0-1-4.864l-5.512,3.415a10.981,10.981,0,0,1-14.162-2.161,77.288,77.288,0,0,1-9.806-15.727,205.957,205.957,0,0,0-15.951-27.468L57.97,94.033A5.559,5.559,0,0,1,59,86.58l2.165-1.788c-3.934-5.565-5.465-7.768-5.465-7.768L43.865,84.567c34.586,50.758,62.563,92.445,72.84,109.28C119.211,197.953,121.462,202.2,123.61,206.5Z" style="fill:#e28966"/><path d="M45.915,87.243,56.731,79.96c-1.115-1.715-2.13-3.281-3.079-4.747l-7.317,3.573-15.3-24.637a5.538,5.538,0,0,1,2.093-7.8l1.222-.654C29.991,38.9,25.92,31.207,22.225,25.224l-.071-.115a6.446,6.446,0,0,0-11.118,6.527l.922,1.607c3.389,5.9,9.155,14.338,12.752,20.117C37.305,73.6,38.268,75.232,45.915,87.243Z" style="fill:#e28966"/><path d="M57.534,82.13,52.727,85.4l-5.2,2.94c-3.23,2.2-6.822,1.75-9.021-1.481,0,0-1.616-7.327,1.614-9.526l3.532-2.872,5.922-4.031A7.076,7.076,0,0,1,59.4,72.3h0A7.075,7.075,0,0,1,57.534,82.13Z" style="fill:#e9ebfc"/><path d="M29.279,40.6,21.42,45.136c-1.586.916-2.964-.089-3.88-1.675L7.513,26.4C5.344,22.639,9.89,16.05,9.89,16.05A16.5,16.5,0,0,1,14.2,14.78a7.847,7.847,0,0,1,6.255,3.909L30.493,36.068A3.317,3.317,0,0,1,29.279,40.6Z" style="fill:#e9ebfc"/><path d="M256.465,21.372S226.53,31.78,229.614,64.937l1.842,13.739c2.611,19.483,19.95,33.852,39.535,32.169q1.751-.151,3.605-.412S273.68,50.656,256.465,21.372Z" style="fill:#363b42"/><path d="M236.549,38.689A168.113,168.113,0,0,0,263,36.756c-.911-2.29-1.877-4.522-2.9-6.675a164.272,164.272,0,0,1-25.19,1.578,3.787,3.787,0,0,0-2.829,1.193l-.058.064a3.5,3.5,0,0,0,2.853,5.767C235.423,38.687,235.982,38.689,236.549,38.689Z" style="fill:#e9ebfc"/><path d="M233.224,53.794A231.1,231.1,0,0,0,266.937,51.3c-.572-2.3-1.181-4.581-1.832-6.834a225.12,225.12,0,0,1-34.2,2.269,3.512,3.512,0,0,0-3.461,2.625l-.017.069a3.529,3.529,0,0,0,3.405,4.353Q232,53.793,233.224,53.794Z" style="fill:#e9ebfc"/><path d="M269.778,65.61c-.42-2.281-.873-4.583-1.361-6.89a255.478,255.478,0,0,1-38.287,2.321,3.547,3.547,0,0,0-3.6,3.856l0,.04.011.073a3.553,3.553,0,0,0,3.475,3.052q1.633.02,3.436.021A255.584,255.584,0,0,0,269.778,65.61Z" style="fill:#e9ebfc"/><path d="M272.092,81.409c-.305-2.25-.641-4.572-1.013-6.948A206.209,206.209,0,0,1,231.641,76.5a3.465,3.465,0,0,0-3.535,4.126l.018.1a3.461,3.461,0,0,0,3.252,2.807c2.854.118,6.023.195,9.442.195A204.5,204.5,0,0,0,272.092,81.409Z" style="fill:#e9ebfc"/><path d="M272.974,89.834C266.8,91,262.068,91.393,261.945,91.4c-2.208.194-4.649.344-7.254.446-5.608.22-11.4.179-17.32-.115a3.57,3.57,0,0,0-3.406,5.148c.059.115.121.23.185.345a3.565,3.565,0,0,0,3.034,1.817c3.277.062,7.417-.055,10.227-.055q3.852,0,7.614-.147c2.742-.107,5.321-.266,7.629-.469.445-.035,4.979-.41,11.045-1.52C273.5,94.7,273.257,92.346,272.974,89.834Z" style="fill:#e9ebfc"/><path d="M307.993,244.82s22.668,20.909,26.2,80.413h-7.212a14.559,14.559,0,0,1-11.4-5.433c-3.67-4.607-8.595-12.682-12.915-26.182,0,0,2.783,11.558.477,28.48a3.634,3.634,0,0,1-3.6,3.135H255.543a3.62,3.62,0,0,1-3.568-2.974,128.3,128.3,0,0,1-1.684-27.353,54.818,54.818,0,0,1-12.907,25.259,15.32,15.32,0,0,1-11.477,5.068h-4.95s1.252-44.812,19.6-80.413Z" style="fill:#535f70"/><path d="M264.8,244.82H240.558a148.461,148.461,0,0,0-8.626,20.652A71.884,71.884,0,0,0,264.8,244.82Z" style="fill:#363b42"/><path d="M250.267,151.372s-26.99,23.816-31.124,40.108l-3.647,4.864,17.386,22.128L251.05,201.45Z" style="fill:#acb9d4"/><path d="M219.908,195.365,242,220.9l-51.657,32.782-14.971-16.931c12.025-10.412,24.776-24.717,36.3-40.972A5.238,5.238,0,0,1,219.908,195.365Z" style="fill:#363b42"/><path d="M164.369,222.052l47.066,55.515a8.119,8.119,0,0,1-.884,10.574h0a8.119,8.119,0,0,1-11.484-.118L145.986,237.7Z" style="fill:#acb9d4"/><path d="M134.055,242.268h0c2.512,2.724,6.111,3.385,8.986,1.047l28.567-23.232a7.016,7.016,0,0,0,.858-10.059h0a7.017,7.017,0,0,0-9.7-.835l-19.579,15.87-8.666,7.686C131.372,235.3,131.31,239.29,134.055,242.268Z" style="fill:#e9ebfc"/><path d="M251.988,139.247s-21.522,39.4-5.517,105.573h59.712s28.936-45.449,12.315-113.163Z" style="fill:#535f70"/><path d="M288.783,135.048l-36.8,4.2a60.706,60.706,0,0,0-3,6.886,56.736,56.736,0,0,0,39.792,13.1Z" style="fill:#363b42"/><path d="M318.5,131.657,283.93,135.6l-6.353,49.32,39.555,35.083a159.253,159.253,0,0,0,5.595-71.468S319.929,137.488,318.5,131.657Z" style="fill:#e9ebfc"/><path d="M278.312,179.218l-.735,5.7,22.173,19.666a69.03,69.03,0,0,0,8.826-31.233,9.933,9.933,0,0,0-16.948-7.46Z" style="fill:#acb9d4"/><path d="M280.9,159.141c11.466.913,25.561-1.394,41.827-10.6-.79-5.488-1.875-11.153-3.307-16.984L283.93,135.6Z" style="fill:#acb9d4"/><path d="M293.712,175.231s5.28,16.212,26.66,20.089a9.1,9.1,0,0,1,7.5,10.013c-1.141,9.362-4.888,23.449-16.857,30.4H254.642Z" style="fill:#535f70"/><path d="M293.712,175.231l-39.07,60.5H276.66a43.744,43.744,0,0,0,22.592-30.25,67.436,67.436,0,0,0,6.7-15.7C296.448,183.628,293.712,175.231,293.712,175.231Z" style="fill:#363b42"/><path d="M246.16,232.46h69.373l-.91,5.927a7.839,7.839,0,0,1-7.9,6.433H248.7Z" style="fill:#363b42"/><path d="M304,143.892l2.774,11.787a58.767,58.767,0,0,1,0,11.948s-4.288,21.11-12.727,33.989a51.193,51.193,0,0,0-3.605,6.465c-3.012,6.47-11.751,21.317-29.929,25.483l-7.085.927-16.372-19.008s-3.96-22.885,17.98-47.355a55.062,55.062,0,0,0,5.883-7.88C265.748,152.4,279.139,136.17,304,143.892Z" style="fill:#e9ebfc"/><path d="M290.438,208.081a51.193,51.193,0,0,1,3.605-6.465c8.443-12.884,11.771-24.558,12.717-33.99a45.488,45.488,0,0,1-17.593,24.766,19.626,19.626,0,0,0-6.656,8.486c-4.189,10.012-12.419,16.234-18.047,19.508a13.216,13.216,0,0,1-11.086,1.046l-14.617-5.2-.392.782,15.055,17.48,7.085-.927C278.688,229.4,287.426,214.551,290.438,208.081Z" style="fill:#acb9d4"/><path d="M238.574,213.284l18.357,18.18a5.548,5.548,0,0,1-.236,8.1,95.987,95.987,0,0,1-49.427,22.323L194.824,247.57s19.672-18.225,35.644-34.264A5.739,5.739,0,0,1,238.574,213.284Z" style="fill:#535f70"/><path d="M150.731,235.928l-6.459,5.252a6.828,6.828,0,0,0,.38,8.2l13.231,14.32a11.2,11.2,0,0,0,13.973.843l2.106-1.526a10.948,10.948,0,0,0,.889-14.785l-8.72-10.719A10.947,10.947,0,0,0,150.731,235.928Z" style="fill:#535f70"/><path d="M194.824,247.57s-11.973,1.311-22.891,17.405a6.238,6.238,0,0,0,.449,7.52L177,277.932l.274.323a5.991,5.991,0,0,0,9.26-.371c8.691-10.543,19.026-10.333,20.38-14.809l.358-1.184Z" style="fill:#535f70"/><path d="M255.8,37.719c2.4-.257,4.806-.572,7.2-.963-.911-2.29-1.877-4.522-2.9-6.675-2.284.346-4.589.619-6.88.838C253.9,32.582,254.8,34.9,255.8,37.719Z" style="fill:#acb9d4"/><path d="M272.974,89.834C266.8,91,262.068,91.393,261.945,91.4c-2.208.194-4.649.344-7.254.446-.437.017-.883.022-1.323.036a38.268,38.268,0,0,1-5.135,7.1c2.287-.009,4.555-.051,6.792-.139,2.742-.107,5.321-.266,7.629-.469.445-.035,4.979-.41,11.045-1.52C273.5,94.7,273.257,92.346,272.974,89.834Z" style="fill:#acb9d4"/><path d="M271.079,74.461c-4.122.648-8.2,1.12-12.161,1.462a57.651,57.651,0,0,1-1.767,7.187c4.817-.362,9.831-.9,14.941-1.7C271.787,79.159,271.451,76.837,271.079,74.461Z" style="fill:#acb9d4"/><path d="M259.94,66.816c3.23-.323,6.524-.719,9.838-1.206-.42-2.281-.873-4.583-1.361-6.89-2.826.411-5.644.751-8.423,1.036C260.067,61.965,260.064,64.339,259.94,66.816Z" style="fill:#acb9d4"/><path d="M306.773,155.725A41.156,41.156,0,0,0,304,143.892c-20.337-6.317-33,3.4-39.576,11.433C274.61,159.355,288.993,161.651,306.773,155.725Z" style="fill:#acb9d4"/><path d="M265.105,44.465q-3.456.5-6.771.866h0s.613,2.672,1.106,6.942c2.446-.281,4.936-.594,7.5-.974C266.365,49,265.756,46.718,265.105,44.465Z" style="fill:#acb9d4"/><path d="M259.227,16.813c.724-.194,1.53-.393,2.407-.585,24.882-5.464,47.522,15.129,44.989,40.478a111.89,111.89,0,0,1-5.96,25.906c-.067.192-.138.378-.216.567a31.309,31.309,0,0,0-1.95,8.259,10.51,10.51,0,0,0,4.938,9.976,71,71,0,0,1,24.08,26.075,6.439,6.439,0,0,1-1.143,7.754c-8.616,8.253-33.807,26.74-72.475,8.054a6.447,6.447,0,0,1-2.818-8.924c3.118-5.666,9.876-11.065,19.139-24.068,0,0,7.06-39.536-13.5-88.333A3.8,3.8,0,0,1,259.227,16.813Z" style="fill:#535f70"/><path d="M284.8,101.147a40.3,40.3,0,0,0-13.611-.7c-.344,5.663-.969,9.859-.969,9.859-.114.16-.223.3-.336.462a25.75,25.75,0,0,1,12.851-7.2s.75-.119,1.917-.221A1.112,1.112,0,0,0,284.8,101.147Z" style="fill:#363b42"/><path d="M207.268,261.891a95.978,95.978,0,0,0,49.426-22.323,5.547,5.547,0,0,0,.237-8.1l-3.462-3.428c-3.864,5.477-17.584,22-44.673,25.643a6.352,6.352,0,0,1-2.974-.328l-3.3-1.182a2.6,2.6,0,0,0-2.953.857Z" style="fill:#363b42"/><path d="M207.268,261.891l-7.7-8.865s3.974,8.454-4.082,12.985c0,0-6.57,3.227-10.2,8.811,0,0-3.037,4.744-8.292,3.11l.274.323a6.36,6.36,0,0,0,9.466.109c4.957-5.045,6.559-6.443,10.139-6.945l.181-.025a11.91,11.91,0,0,0,9.854-8.319Z" style="fill:#363b42"/><path d="M25.777,42.621c-2.536-4.253-6.556-11.008-10.143-17.09C12.361,19.98,13.12,16.649,14.393,14.8a7.846,7.846,0,0,0-7.538,11.74L16.89,43.922a3.316,3.316,0,0,0,4.53,1.214Z" style="fill:#acb9d4"/><path d="M50.893,84.626a8.176,8.176,0,0,1-2.7-2.775L43.65,74.463h0l-3.8,2.586a7.075,7.075,0,0,0-1.868,9.83h0a7.074,7.074,0,0,0,9.83,1.868L52.727,85.4A7.038,7.038,0,0,1,50.893,84.626Z" style="fill:#acb9d4"/><path d="M176.632,251.389h0a9.838,9.838,0,0,1-7.674,5.125,12.518,12.518,0,0,1-10.94-4.524L147.03,238.937l-2.758,2.243s-3.363,4.2,0,8.221L157.481,264s6.6,6.105,14.452.98l2.029-1.958A10.943,10.943,0,0,0,176.632,251.389Z" style="fill:#363b42"/><path d="M172.216,209.766a11.11,11.11,0,0,1-3.062,6.225c-2.22,2.45-9.529,8.277-14.75,12.34a7.2,7.2,0,0,1-11.219-3.272l-9.029,7.318a7.016,7.016,0,0,0-.74,10.207l.04.043a7.29,7.29,0,0,0,9.79.817l28.567-23.231a7.152,7.152,0,0,0,.653-10.189C172.386,209.933,172.3,209.852,172.216,209.766Z" style="fill:#acb9d4"/><path d="M252.01,282.329a1.327,1.327,0,0,0-2.475-.848,54.981,54.981,0,0,0-5.186,14.7c-2.039,9.613-12.633,22.19-22.985,22.41-.339,4.2-.407,6.644-.407,6.644h4.95a15.32,15.32,0,0,0,11.477-5.068,54.818,54.818,0,0,0,12.907-25.259S251.089,288.135,252.01,282.329Z" style="fill:#363b42"/><path d="M250.291,294.906c-.022.559-.036,1.1-.051,1.65C250.275,295.963,250.3,295.4,250.291,294.906Z" style="fill:#363b42"/><path d="M315.585,319.8a14.559,14.559,0,0,0,11.4,5.433H334.2c-.118-1.989-.261-3.928-.421-5.832-15.739-2.2-22.765-21.481-25.133-28.939a31.066,31.066,0,0,0-6.672-10.9,1.327,1.327,0,0,0-2.266,1.22c1.393,5.518,2.964,12.836,2.964,12.836C306.99,307.118,311.915,315.193,315.585,319.8Z" style="fill:#363b42"/><path d="M303.147,322.1c.4-2.936.645-5.707.779-8.288A15.248,15.248,0,0,1,296.4,317H260.986a14.517,14.517,0,0,1-10.206-3.581c.364,3.814.828,6.815,1.195,8.837a3.62,3.62,0,0,0,3.568,2.974h44.006A3.634,3.634,0,0,0,303.147,322.1Z" style="fill:#363b42"/></svg>