<svg width="64px" height="64px" viewBox="0 0 64 64" xmlns="http://www.w3.org/2000/svg"><title>panda</title><g id="panda"><circle cx="34.5" cy="25.5" r="21.5" style="fill:#ffe5d2"/><circle cx="15.5" cy="6.5" r="2.5" style="fill:none;stroke:#4c241d;stroke-linecap:round;stroke-linejoin:round;stroke-width:2px"/><circle cx="50.5" cy="8.5" r="1.132" style="fill:#4c241d"/><circle cx="56.5" cy="56.5" r="1.132" style="fill:#4c241d"/><line x1="34.837" y1="11.663" x2="31.163" y2="15.337" style="fill:none;stroke:#4c241d;stroke-linecap:round;stroke-linejoin:round;stroke-width:2px"/><line x1="31.163" y1="11.663" x2="34.837" y2="15.337" style="fill:none;stroke:#4c241d;stroke-linecap:round;stroke-linejoin:round;stroke-width:2px"/><path d="M63,24a9,9,0,0,0-17.477-3H18.477A8.994,8.994,0,1,0,3.988,30.684,14.913,14.913,0,0,0,3,36v3A15,15,0,0,0,18,54h1.964a9.039,9.039,0,0,0,8.083,5h7.906a9.039,9.039,0,0,0,8.083-5H46A15,15,0,0,0,61,39V36a14.913,14.913,0,0,0-.988-5.316A8.97,8.97,0,0,0,63,24Z" style="fill:#fff;stroke:#4c241d;stroke-linecap:round;stroke-linejoin:round;stroke-width:2px"/><path d="M14.307,21.458a5,5,0,1,0-8.458,5.33" style="fill:#b5a19c;stroke:#4c241d;stroke-linecap:round;stroke-linejoin:round;stroke-width:2px"/><path d="M14.307,21.458A15.03,15.03,0,0,0,3.972,30.677" style="fill:none;stroke:#4c241d;stroke-linecap:round;stroke-linejoin:round;stroke-width:2px"/><path d="M58.146,26.8a5,5,0,1,0-8.452-5.339" style="fill:#b5a19c;stroke:#4c241d;stroke-linecap:round;stroke-linejoin:round;stroke-width:2px"/><path d="M60.028,30.677A15.031,15.031,0,0,0,49.7,21.459" style="fill:none;stroke:#4c241d;stroke-linecap:round;stroke-linejoin:round;stroke-width:2px"/><rect x="28" y="44" width="8" height="3" rx="1.5" ry="1.5" style="fill:#6b4f5b;stroke:#4c241d;stroke-linecap:round;stroke-linejoin:round;stroke-width:2px"/><line x1="32" y1="50" x2="32" y2="47" style="fill:none;stroke:#4c241d;stroke-linecap:round;stroke-linejoin:round;stroke-width:2px"/><polyline points="23 49 25 51 32 50 39 51 41 49" style="fill:none;stroke:#4c241d;stroke-linecap:round;stroke-linejoin:round;stroke-width:2px"/><path d="M46.345,29.115h0a3.96,3.96,0,0,1,3.96,3.96v7.87a3.96,3.96,0,0,1-3.96,3.96h0a6.566,6.566,0,0,1-6.566-6.566V35.681A6.566,6.566,0,0,1,46.345,29.115Z" transform="translate(-12.47 27.479) rotate(-30)" style="fill:#6b4f5b"/><rect x="42" y="32" width="4" height="5" rx="2" ry="2" style="fill:#4c241d"/><path d="M20.3,29.115h0a3.96,3.96,0,0,1,3.96,3.96v7.87A3.96,3.96,0,0,1,20.3,44.9h0a6.566,6.566,0,0,1-6.566-6.566V35.681A6.566,6.566,0,0,1,20.3,29.115Z" transform="translate(16.94 78.558) rotate(-150)" style="fill:#6b4f5b"/><rect x="18.036" y="32" width="4" height="5" rx="2" ry="2" transform="translate(40.072 69) rotate(-180)" style="fill:#4c241d"/></g></svg>