<svg width="64px" height="64px" viewBox="0 0 64 64" xmlns="http://www.w3.org/2000/svg"><title>tea</title><g id="tea"><circle cx="38.5" cy="26.5" r="21.5" style="fill:#ffe5d2"/><circle cx="43.5" cy="7.5" r="1.132" style="fill:#4c241d"/><circle cx="58.5" cy="3.5" r="1.132" style="fill:#4c241d"/><line x1="52.837" y1="48.663" x2="49.163" y2="52.337" style="fill:none;stroke:#4c241d;stroke-linecap:round;stroke-linejoin:round;stroke-width:2px"/><line x1="49.163" y1="48.663" x2="52.837" y2="52.337" style="fill:none;stroke:#4c241d;stroke-linecap:round;stroke-linejoin:round;stroke-width:2px"/><rect x="13" y="58" width="22" height="3" style="fill:#bf7e68;stroke:#4c241d;stroke-linecap:round;stroke-linejoin:round;stroke-width:2px"/><path d="M40,34s8-2,13-7l3,2s-3.289,1.919-4,5C49,47,38,47,38,47" style="fill:#bf7e68;stroke:#4c241d;stroke-linecap:round;stroke-linejoin:round;stroke-width:2px"/><path d="M15,25H33a3,3,0,0,1,3,3v0a0,0,0,0,1,0,0H12a0,0,0,0,1,0,0v0A3,3,0,0,1,15,25Z" style="fill:#bf7e68;stroke:#4c241d;stroke-linecap:round;stroke-linejoin:round;stroke-width:2px"/><path d="M37.661,31.5l1.325-21.089C39.168,7.505,37.588,5,35.572,5H12.428c-2.016,0-3.6,2.505-3.414,5.411L10.339,31.5" style="fill:none;stroke:#4c241d;stroke-linecap:round;stroke-linejoin:round;stroke-width:2px"/><path d="M35.285,58H12.715a6.282,6.282,0,0,1-6.268-6.7l1.28-19.2A4.388,4.388,0,0,1,12.105,28H35.9a4.388,4.388,0,0,1,4.378,4.1l1.28,19.2A6.282,6.282,0,0,1,35.285,58Z" style="fill:#fc8c29;stroke:#4c241d;stroke-linecap:round;stroke-linejoin:round;stroke-width:2px"/><line x1="35" y1="61" x2="48" y2="61" style="fill:none;stroke:#4c241d;stroke-linecap:round;stroke-linejoin:round;stroke-width:2px"/><line x1="24" y1="25" x2="24" y2="22" style="fill:none;stroke:#4c241d;stroke-linecap:round;stroke-linejoin:round;stroke-width:2px"/><path d="M20.5,44.5a3,3,0,0,1,6,0,3,3,0,0,1,6,0,3,3,0,0,1,6,0" style="fill:none;stroke:#ffce56;stroke-linecap:round;stroke-linejoin:round;stroke-width:2px"/><rect x="20" y="19" width="8" height="3" rx="1.5" ry="1.5" style="fill:#ffce56;stroke:#4c241d;stroke-linecap:round;stroke-linejoin:round;stroke-width:2px"/><rect x="15" y="3" width="18" height="4" rx="1.5" ry="1.5" style="fill:#bf7e68;stroke:#4c241d;stroke-linecap:round;stroke-linejoin:round;stroke-width:2px"/><path d="M10.5,37.5a3,3,0,0,1,6,0,3,3,0,0,1,6,0,3,3,0,0,1,6,0" style="fill:none;stroke:#ffce56;stroke-linecap:round;stroke-linejoin:round;stroke-width:2px"/><path d="M10.5,51.5a3,3,0,0,1,6,0,3,3,0,0,1,6,0,3,3,0,0,1,6,0" style="fill:none;stroke:#ffce56;stroke-linecap:round;stroke-linejoin:round;stroke-width:2px"/><path d="M51.14,10.958l-.876,2.167a2.922,2.922,0,0,0,1.045,3.5h0a2.921,2.921,0,0,1,1.045,3.5l-.877,2.167" style="fill:none;stroke:#4c241d;stroke-linecap:round;stroke-linejoin:round;stroke-width:2px"/><path d="M55.792,10.958l-.877,2.167a2.922,2.922,0,0,0,1.045,3.5h0a2.921,2.921,0,0,1,1.045,3.5l-.877,2.167" style="fill:none;stroke:#4c241d;stroke-linecap:round;stroke-linejoin:round;stroke-width:2px"/></g></svg>