<svg width="120px" height="120px" viewBox="0 0 120 120" xmlns="http://www.w3.org/2000/svg"><defs><style>.cls-1{fill:#e99735;}.cls-2{fill:#fff;}.cls-3{fill:#2b3c58;}.cls-4{fill:#2b3c59;}.cls-5{fill:#e07a2e;}.cls-6{fill:#e99736;}.cls-7{fill:#e99635;}.cls-8{fill:#313f59;}.cls-9{fill:#747d90;}.cls-10{fill:#edab60;}.cls-11{fill:#9b9ca7;}.cls-12{fill:#fffffe;}.cls-13{fill:#fffefe;}.cls-14{fill:#fffefd;}.cls-15{fill:#e17b2f;}.cls-16{fill:#fffefc;}</style></defs><title>hs-huzzah-16</title><g id="Layer_2" data-name="Layer 2"><path class="cls-1" d="M15.4,13.15a10.78,10.78,0,0,1,1.8.33c1.32.45,2.61,1,3.93,1.49a41.5,41.5,0,0,0,6.45,2.18c2,.37,4.05-.59,6-1.2,2.55-.78,5-2.11,7.81-1.61a1.54,1.54,0,0,1,1.27.66c-.27.42.3.57.3.9.41.15,0,.47.14.67a3.26,3.26,0,0,1-.17,3.2,7.08,7.08,0,0,0-.73,2.79c-.12,1.41.66,1.92,1.69,2.37a.5.5,0,0,1,.35.35c2.12,1.16,4.51,1.6,6.72,2.52,2.06.85,4.13,1.69,6.15,2.64.84.4.8,1.3.72,2.11-.51-.29-.88-.1-1.39.17a16.38,16.38,0,0,1-4.83,1.85,8,8,0,0,0-2.57.77c-.87.47-1.9.52-2.75,1.06-.66.42-1.26.92-1.94,1.32-.18.1-.21.32-.25.52-1.46,1.57-1.21,3.58-1.41,5.48-.08.75-.1,1.5-.15,2.26-.46.11-.74-.35-1.15-.36a4,4,0,0,1-1.1-3,4.73,4.73,0,0,0-.3-1.91c-.14-.63.28-1.29-.12-1.91a.06.06,0,0,1,0-.06c.67-.36.24-1.29.86-1.67a2,2,0,0,0,1.35-.68A6.81,6.81,0,0,1,45,35c1.81-.59,3.72-.61,5.56-1a13.38,13.38,0,0,0,2.33-.9.27.27,0,0,0,.2-.35c-.05-.28.14-.38.34-.49a.7.7,0,0,0,.26-1.07,3.06,3.06,0,0,0-1.27-1.3,9.93,9.93,0,0,0-2.43-1c-3-.76-6-1.55-8.92-2.59a4.79,4.79,0,0,1-1.57-1.06.88.88,0,0,1-.23-.6A6.11,6.11,0,0,1,40,20.94a17.26,17.26,0,0,0,1.1-2.76c.25-.83,0-1.18-.84-1.36a4.77,4.77,0,0,0-2.4.07,71.71,71.71,0,0,0-8.44,3,4.27,4.27,0,0,1-3.66-.25,34,34,0,0,0-4.34-1.9c-.83-.26-1.66-.52-2.5-.74a2.18,2.18,0,0,0-2.46,1.94s0,.1,0,.12c.52.55.19,1-.11,1.52a.83.83,0,0,0-.05.52,10.94,10.94,0,0,1-.18,3.28,7.57,7.57,0,0,1-3,4.55.56.56,0,0,1-.31.12c-1.08-.7-1.93-.2-2.77.52a2.54,2.54,0,0,1-1.59.8c-.26-.3,0-.47.16-.67.5-.63,1.07-1.2,1.57-1.85.33-.43.57-.93.94-1.34s.19-.93.21-1.36a1.34,1.34,0,0,1,.36-.91c.75-.3.84-.44.69-1.22-.31-1.64-.81-3.23-1.17-4.86a4.72,4.72,0,0,1,0-2.71c.21-.52-.26-.7-.31-1.06a1.25,1.25,0,0,1,1.05-.77,15.07,15.07,0,0,1,2.83-.47Z"/><path class="cls-2" d="M11.79,24.36c-.16.21-.65.44,0,.63-.62.47-.13,1.3-.67,1.88-1,1.07-1.87,2.28-2.78,3.43-.06.34-.37.48-.6.66A16.16,16.16,0,0,0,5.9,32.79,7.7,7.7,0,0,0,4,35.48a1,1,0,0,1-.31.41c-.48.06-.85.22-.94.77,0,.12-.07.3-.29.25,0-7.73,0-15.46,0-23.19,0-.44.06-.59.56-.58,3.91,0,7.82,0,11.73,0-1.11.3-2.23.58-3.33.9-.21.06-.37.28-.55.43,0,.09,0,.2-.13.22-.75.16-.81.77-.9,1.36A5.13,5.13,0,0,0,10,18.33c.32,1.09.69,2.17,1.07,3.24a4.15,4.15,0,0,1,.27,2.12c-.05.13-.05.23.14.2A.41.41,0,0,1,11.79,24.36Z"/><path class="cls-3" d="M2.46,36.91c.39-.37,0-1.55,1.17-1.08.53.06.62.4.53.84a.35.35,0,0,1-.24.19c.08,0,.17,0,.25,0a.18.18,0,0,1,.09.08,1.28,1.28,0,0,1,.09.64c0,1.1.56,1.53,1.63,1.58a29.14,29.14,0,0,0,3.74,0,25.52,25.52,0,0,0,4.42-.6,1.92,1.92,0,0,1,1.59,0,.38.38,0,0,0,.37,0,7.9,7.9,0,0,1,4.84-.58,11.1,11.1,0,0,1,4.33,1.65c.33.22.8.45.53,1a27.25,27.25,0,0,0-4.65-1,12.48,12.48,0,0,0-2.2.49c-1.79.31-3.56.72-5.36.88a30.91,30.91,0,0,1-6.73.11,5.36,5.36,0,0,1-4.4-3.36Z"/><path class="cls-3" d="M117.25,50.76c.39.13.36.54.55.79v.53c-.12.81-.19,1.64-.38,2.44a5.82,5.82,0,0,1-5,4.44,16.46,16.46,0,0,1-6.13-.56,8.39,8.39,0,0,1-1.44-.65c.06-.76.18-.87.88-.82a10.09,10.09,0,0,1,1.47.31c1.26.29,2.54.09,3.8.29.32,0,.58-.3.91-.39a5.89,5.89,0,0,0,2.79-1.78,3.94,3.94,0,0,0,1-2.15,18.63,18.63,0,0,1,.35-1.93C116.29,50.43,116.5,50.31,117.25,50.76Z"/><path class="cls-4" d="M44.3,107.11c-.57-.11-1.16-.18-1.71-.34s-1.35-.15-.71-1.08a.55.55,0,0,1-.09-1c.63-.38,1.27-1.13,2.13-.38.17.15.15.36.18.55.11.67.26.8.95.83s1.24-.09,1.75.38l.38.38a9.71,9.71,0,0,1-1,.49,4.18,4.18,0,0,1-.8.13Z"/><path class="cls-1" d="M117.25,50.76c-1.19-.5-1.11.58-1.12,1.08-.06,3.07-1.83,4.7-4.52,5.65-1.41.5-2.79,0-4.19,0a8,8,0,0,1-1.52-.31.77.77,0,0,0-1.07.61c.13.69.71.86,1.25,1.08.13.05.21.21.31.32-.14,0-.27,0-.4,0a4.54,4.54,0,0,0-3.16.29c-1.1.57-1,1.54-.71,2.53.1.37.29.71.36,1.08.12.63,0,1-.8.74a3.08,3.08,0,0,0-2.21.5,2.23,2.23,0,0,1-1-.12,11.65,11.65,0,0,0-4.64-.66,6.7,6.7,0,0,0-2.43.76,1.25,1.25,0,0,1-.53.26c-.67,0-.92.68-1.44.92-.18.08,0,.23,0,.31s.34.19.51.3.25.38,0,.54-.42.13-.62.21a1.47,1.47,0,0,0-1,1.29c-.79,2-1.56,4.06-2.38,6.08-1.28,3.15-2.2,6.46-4,9.37a1.54,1.54,0,0,1-.42.38c-.15-.5-.47-.37-.8-.22s-.9.55-1.46.28c-.46-.91-.71-1.89-1.08-2.83-.79-2-1.54-4-2.28-6a2.32,2.32,0,0,0-.22-.41,3.29,3.29,0,0,1-.63-1.75c0-.8-.7-1.41-.79-2.21,0-.07-.06-.12-.07-.19-.08-.3-.33-.63.08-.87a1.1,1.1,0,0,1,1.28.37,8.84,8.84,0,0,0,.38.83,1.73,1.73,0,0,0,.81.75,6.39,6.39,0,0,0,5.34,0,2.43,2.43,0,0,1,1.16-.11,2.87,2.87,0,0,1,.57.17c1.08.3,1.69-.25,1.45-1.35A1.65,1.65,0,0,0,84,69a4.06,4.06,0,0,0-3,.52c-.81.45-.86.44-1-.47s-.44-1.7-1.43-1.94a2.83,2.83,0,0,0-3,.62c-.55.57-.77.5-1.09-.21a.61.61,0,0,1-.05-.12,1.44,1.44,0,0,0-1.56-1.27c-.27-.66-.43-1.36-.68-2-.15-.4-.08-.95-.72-1-.13,0-.14-.2-.13-.33.06-1.19,0-1.24-1.08-1.73A1.4,1.4,0,0,1,70,60.9a7,7,0,0,0-4-2.53,1.26,1.26,0,0,1-.45-.26c-1-.9-1.75-2.11-2.85-3a1.68,1.68,0,0,1-.56-.72.84.84,0,0,1,.92-1,1.73,1.73,0,0,0,.62-.2A1.31,1.31,0,0,0,64.27,51a3.72,3.72,0,0,0-1.06-.88,2.24,2.24,0,0,1-.58-.43c-.3-.35-.24-.58.19-.75s.64-.15,1-.24a1.05,1.05,0,0,0,.48-1.91A2.58,2.58,0,0,0,62,46.21c-.09,0-.2,0-.23.11s.1.18.18.24c.4.29.85.58.72,1.15s-.65.66-1.12.79A5,5,0,0,0,60.2,49c-.81.29-1.54.65-1.62,1.67,0,.4-.28.26-.44.09a11.54,11.54,0,0,0-1.33-1.19,1,1,0,0,0-.75-.35c-.16,0-.32,0-.32-.24,0-.41-.31-.6-.57-.83-.7-.6-1.38-1.22-2.12-1.78-.21-.15-.51-.3-.44-.66,1.86-1.07,3.88-.77,5.86-.63s4.22.37,6.32.65c2.28.31,4.54.75,6.81,1.09a12.27,12.27,0,0,0,4.52,0c.82-.19.77-1.28.86-1.94.36-2.62.46-5.25,1.45-7.79.91-2.35,2.25-4.14,4.67-4.88a6.19,6.19,0,0,1,7.05,3.21,14.73,14.73,0,0,1,.27,2.23c.52,1.84-.08,4,1.5,5.56.31.3.5,0,.66-.1a38.65,38.65,0,0,1,5.78-3.33,11.73,11.73,0,0,1,7-.28A19.77,19.77,0,0,1,113,43.32a1.92,1.92,0,0,1,1,1.55c0,.58.35-.21.65.16A12.05,12.05,0,0,1,117.25,50.76Z"/><path class="cls-1" d="M50.35,75.59C52,79.17,55.51,81,57.9,83.82c.71.84.65,1.81,1,2.7a10.35,10.35,0,0,0-2,1.34,5.54,5.54,0,0,1-3.85,1.06c-1.31-.21-2.64-.29-3.95-.63-2.46-.64-4.89-1.38-7.36-2a24,24,0,0,1-2.63-2c-.27-.22-.36-.51.06-.63a1.25,1.25,0,0,0,.89-1.11,1.92,1.92,0,0,1,.11-.31c.24-.61.37-.68.9-.29a22.37,22.37,0,0,0,3.62,2.14,4,4,0,0,0,3,.34.81.81,0,0,0,.53-.4,1.51,1.51,0,0,1,1,0,4.1,4.1,0,0,0,2.25-.21c.44-.18.88-.37,1-.91A4,4,0,0,0,50.84,80c-.92-.85-1.71-1.8-2.55-2.71-.49-.53-1.06-1-1.58-1.47s-.94-.67-.86-1.35a.89.89,0,0,1,.6-.25c.48,0,.64-.3.75-.68a17.12,17.12,0,0,1,2.12-4.39,2.85,2.85,0,0,0,.51-2.24,1,1,0,0,0-.4-.65c-.58-1.26-1.07-1.36-2.86-1.11a15.63,15.63,0,0,0-3.52,1.1A32.22,32.22,0,0,1,37.13,68c-1.39.23-2.42-.54-3.42-1.38-1.73-1.45-3.26-3.16-5.39-4.07a3.68,3.68,0,0,0-2-.37.83.83,0,0,0-.8.74,4.12,4.12,0,0,0-.09,1.31,33,33,0,0,1,.4,4.19c.07,1.51.59,3,.39,4.5a1.15,1.15,0,0,1-.07.45c-.18.22-.38.08-.52,0a25.34,25.34,0,0,1-3.5-3.21c.28-1.88-.44-3.64-.67-5.46S21,61,21.85,59.38c.52-1,1.83-1.23,3-1.18,2.61.13,4.56,1.75,6.75,2.92,2.45,1.3,4.7,3.07,7.46,3.77,1.35.35,2.53-.47,3.8-.68,2.22-.37,4.32-1.31,6.59-1.42.86,0,1.73.09,2.6.11.61,0,.88.41,1.08.9a1.57,1.57,0,0,0-.08.91,5.57,5.57,0,0,1-.43,3.46,12.19,12.19,0,0,1-1.22,2.17,7.67,7.67,0,0,0-1.25,4.43A4.45,4.45,0,0,0,50.35,75.59Z"/><path class="cls-5" d="M48.13,84.14l.29.33L48,84.6c-2.85.78-4.83-1-6.91-2.39-1.18-.78-.84.48-.89.66-.15.53-.31.89-.9.95a1.25,1.25,0,0,0-.3.12,3,3,0,0,0,.24.26l2.42,1.91c-.14.22-.38.17-.59.22-.92.19-1.11.66-.6,1.44a.65.65,0,0,1,.13.23l-.15,2.09c-.68.11-1.32.38-2,.44a7.4,7.4,0,0,1-2-.34,3.29,3.29,0,0,0-2.14.09c-.15,0-.29.1-.31.29s-.08.28-.23.26c-.37,0-.48,0-.35.43s-.19.24-.39.26A4.41,4.41,0,0,1,30.74,91a2.53,2.53,0,0,0-2.62.13c-.26.18-.62.16-.74.59-.07.22-.41.18-.63,0,.16-1.27-.71-2.24-1-3.38-.12-.49-.7-1-.15-1.52a.49.49,0,0,0-.2-.23c-.05,0-.22.14-.23.13-.19-.22-.36-.46-.53-.69a.69.69,0,0,1,1.08,0,3.48,3.48,0,0,0-2.66-1.8c-2,.06-3.84.64-5.8.67a3,3,0,0,1-2.68-1.06,5.18,5.18,0,0,1-.79-1,9.12,9.12,0,0,1,1.87-3.93c1.24-1.82,3.1-3,4.38-4.79.89-1.21,1.91-2.35,2.09-3.93l3.91,3.3c.26.25.09.5,0,.72a4.53,4.53,0,0,1-2.33,2.29A8.45,8.45,0,0,0,21,78.35c-.66.64-.51,1.1.4,1.32a10.77,10.77,0,0,0,3.35.13A11.12,11.12,0,0,1,28,79.7a1.64,1.64,0,0,1,1.16.78,9.09,9.09,0,0,1,1.24,3,1.59,1.59,0,0,0,2.27.94c.32-.2.18-.58.41-.79A6.68,6.68,0,0,0,36,83a.42.42,0,0,1,.31.22c.47.58.76.64,1.48.38a.64.64,0,0,0,.5-.66,7.76,7.76,0,0,0,0-1.18A5.36,5.36,0,0,1,38.46,80a1.28,1.28,0,0,1,2-.93,17.29,17.29,0,0,1,3.5,2.32,21.69,21.69,0,0,0,3.67,2.29C47.82,83.76,48.12,83.79,48.13,84.14Z"/><path class="cls-5" d="M25.8,40.6c-.87-1.71-2.66-1.82-4.17-2.35a8.37,8.37,0,0,0-4.88.12c-2.08.5-4.21.49-6.29.83a41,41,0,0,1-5,.19c-1.07,0-1.23-.9-1.36-1.73a5.77,5.77,0,0,1,0-.72c0-.08-.14-.11-.1-.22a.78.78,0,0,0-.42-.89A14.48,14.48,0,0,1,8.37,30.3a10.69,10.69,0,0,0,2.55-1.59,1.3,1.3,0,0,1,1.84.29c0,.42-.31.6-.54.84-1.06,1.06-2.3,1.91-3.37,3a7.82,7.82,0,0,0-.79,1.12c-.2.3,0,.55.26.7a2.87,2.87,0,0,0,1.07.31,12.11,12.11,0,0,0,4-.31c1.93-.4,3.87-.71,5.83-1,1.15-.14,2.28.11,3.41,0a.41.41,0,0,1,.32.07,14,14,0,0,1,2.36,1.86A55.64,55.64,0,0,0,30,41.06c1.12,1.08,2.3,2.08,3.45,3.13a3.77,3.77,0,0,0,2.21.92c.59.07,1.18.11,1.77.21A1.67,1.67,0,0,0,39,43.65a.61.61,0,0,1,.19-.56c.45-.47.37-1.15.52-1.73.08-.31,0-.69.45-.79.57,1.67,0,3.63,1.36,5.1.12,0,.21.14.14.25a11.22,11.22,0,0,0-.61,1.8,1.51,1.51,0,0,1-.35.56,5,5,0,0,1-7-.2c-.49-.54-1.1-1-1.57-1.51-.1-.13,0-.52-.36-.36a.19.19,0,0,1-.14-.09,25.85,25.85,0,0,0-3.44-3.42Z"/><path class="cls-5" d="M70.07,60.8c.92.34,2,.58,1.31,2,0,0,0,.16,0,.17,1.37.64,1,2,1.38,3.11-.59.81-.18,1.52.24,2.23a.86.86,0,0,0,.57.42,3.88,3.88,0,0,0,3-.25c.6-.37.84-.23,1,.48,0,.09,0,0,0,.06.09.75.09,1.6.91,1.92a3.34,3.34,0,0,0,3.1-.16l.33-.23c1-.74,1-.72,1.29.49a.78.78,0,0,1,0,.58c-1.69.35-3.31,1.19-5.11.68-1.2-.34-2.42-.62-2.72-2.15-.11-.54-.73-.36-1.07-.3s-.06.42,0,.66c.48,1.2.69,2.55,1.23,3.67.77,1.61,1.31,3.27,2,4.92a11,11,0,0,1,1.2,3.45c0,.36.66.75.52,1.35a2.25,2.25,0,0,1-2,.08,10.72,10.72,0,0,1-5-3.43,10.43,10.43,0,0,1-1-2.19,1.22,1.22,0,0,0-.67-.77,9.1,9.1,0,0,1-.14-5c.19-.7-.72-1.52.24-2h0c-.88-.54-.26-1.38-.35-2.06a17.46,17.46,0,0,1,.1-3.06,6.37,6.37,0,0,0-.28-3.81A.83.83,0,0,1,70.07,60.8Z"/><path class="cls-5" d="M90,66.44c.18-.51-.32-.37-.51-.5s-.42-.26-.4-.54.46-.17.49-.26c.15-.4.47-.49.8-.67a9.33,9.33,0,0,1,8.45-.42c.22.08.45.12.68.19-.37.5-1.09.85-.89,1.6.31,1.17,1.21,1.46,2.31,1.44a.7.7,0,0,0,.68-.41.75.75,0,0,0-.17-.61.77.77,0,0,1-.11-.94c.17-.4.47-.34.77-.3a6.81,6.81,0,0,0,2.53-.44c1.09-.32.85-1.16.83-1.94.24-.17.41,0,.58.13a2.4,2.4,0,0,1,.55,2c-.21.6-.74.78-1.25,1a.65.65,0,0,1-.31,0,1.12,1.12,0,0,0,.31,0c3,.65,6.16.58,9.21,1.1.5.09,1,.21,1.49.29a.67.67,0,0,1,.59.45l-.37,1c-.33-.42-.57-.29-1,0a9.17,9.17,0,0,1-4.08,1.82,26.93,26.93,0,0,1-9-.26,20.83,20.83,0,0,1-3.61-1,.73.73,0,0,1-.5-.39c0-.06.11-.15,0-.15s-.14.16-.26.18a8.7,8.7,0,0,1-2.23-.73,17.15,17.15,0,0,0-4.45-1.26A1.84,1.84,0,0,1,90,66.44Z"/><path class="cls-5" d="M62.22,54.44A29.1,29.1,0,0,1,65.68,58c-.18.22-.41.15-.61.1-.95-.27-1.92-.43-2.86-.78-1.31-.49-2.68-.83-4-1.25-.5-.15-1-.55-1.55-.13-.18.13-.32-.11-.33-.29a1,1,0,0,0-.64-.77,24,24,0,0,1-2.47-1.51,5.58,5.58,0,0,1-2.64-4.47,1.14,1.14,0,0,0-.72-1.06,4.52,4.52,0,0,1,2.77-2.1,23.5,23.5,0,0,1,2.74,2.41c.85,1,2.15,1.43,2.9,2.52a.83.83,0,0,0,.17.15v-.18c.08-1.09.78-1.55,1.76-1.71a1.77,1.77,0,0,0,1.09,1.63,2,2,0,0,1,1,1.44.71.71,0,0,1-.6.93,8.15,8.15,0,0,0-1.09.24c-.26.09-.45.2-.41.57s.22.44.49.5a4,4,0,0,0,.85,0C61.73,54.28,62,54.22,62.22,54.44Z"/><path class="cls-3" d="M98.14,68.73a23.83,23.83,0,0,0,8.17,1.76,16.79,16.79,0,0,0,6.39-.61,6,6,0,0,0,2.52-1.46c.57-.61.84-.65,1,.21a8.14,8.14,0,0,1-2,2.82,11,11,0,0,1-3.59,1.25,17.38,17.38,0,0,1-4.93.12,13.27,13.27,0,0,1-2.83-.36,3.18,3.18,0,0,0-1.22-.33,7.82,7.82,0,0,1-2.93-.78c-2.63-.9-5-2.52-7.68-3.23A2.37,2.37,0,0,0,89,68.05c-.31.44-.42.61-.65,0-.29-1.36.77-1.37,1.61-1.61a25.5,25.5,0,0,1,7.6,2.19,1.67,1.67,0,0,0,.44.06A.1.1,0,0,1,98.14,68.73Z"/><path class="cls-3" d="M49.84,47.84a.64.64,0,0,1,.9.68c-.05,2.79,1.71,4.3,3.87,5.55.56.33,1.12.66,1.69,1a11.9,11.9,0,0,0,1.2.55A64.43,64.43,0,0,0,65.68,58a14.87,14.87,0,0,1,3.7,1.84c.39.26.4.69.69,1a5.73,5.73,0,0,1,.36,4.67c-.49-3.07-2.6-4.69-5.3-5.57-3.47-1.12-7.15-1.59-10.46-3.15-2.47-1.17-5.06-2.33-5.94-5.35C48.35,50.08,48.9,48.17,49.84,47.84Z"/><path class="cls-1" d="M116.59,67.65a14.4,14.4,0,0,0-4-.78c-2.6-.38-5.28-.24-7.83-1.06l-.24,0a1.25,1.25,0,0,0,.25-.09c.55-.31,1.35-.19,1.62-1a.91.91,0,0,1,.09-.17c-.51-.26-.19-.64-.22-1a1,1,0,0,0-.83-.89c-.06-.16-.1-.33-.17-.48-.84-1.95-.84-1.95,1.29-2.16,2.38-.23,3.76.21,6.39,2.12.84.61,1.58,1.34,2.44,1.92.41.28.37.64.47,1v0c.82.06.63.79.76,1.25A5.31,5.31,0,0,1,116.59,67.65Z"/><path class="cls-3" d="M40.6,88A.86.86,0,0,1,40,86.78c.26-.66,1-.65,1.67-.67,2.08.57,4.14,1.25,6.25,1.7,2.32.49,4.63,1.32,7.08.7a6.51,6.51,0,0,0,2.92-1.71c.3-.29.57-.5,1-.28.65.61,0,2-1.08,2.64-2.54,1.5-5.18,1.14-7.83.46-2.48-.63-5-1.34-7.41-2.05C41.82,87.35,41.3,88,40.6,88Z"/><path class="cls-3" d="M26.75,91.69c.15-.15.53-.64.61-.67,1.55-.57,3.05-.81,4.53.26.29.2,1.3,0,1.36-.26s.89-.86,1.44-1a3,3,0,0,1,2.46.23c.35.22.81-.23,1.18.11.64.12,1.59-.63,2-.06.12.31.41,1.31.19,1.68s-1.05.45-1.38.35c-1.55-.44-2.43-1.18-3.56-.75a4.2,4.2,0,0,0-1.4,1.12c-.67.85-2.48-.26-2.59-.39-1-.68-1.86-.16-2.68.35A1.59,1.59,0,0,1,26.75,91.69Z"/><path class="cls-3" d="M44.13,38.24c-.12-.2-.42-.33,0-.61a20.39,20.39,0,0,1,7.64-3.27,11.2,11.2,0,0,0,5.13-2.24c.39-.34.73.09,1,.43A6.64,6.64,0,0,1,54,35.49a30.15,30.15,0,0,1-5.67,1.56C46.85,37.3,45.55,37.94,44.13,38.24Z"/><path class="cls-3" d="M13.81,82.81c.88.34,1.06,1.54,2.07,1.69a15.77,15.77,0,0,0,5.47-.42c2.2-.45,2.76-.47,4.34,1.21.28.3.44,2.43.18,2.49s-.44-.26-.44-.26c-.52-.36-.38-1.34-.77-1.52a13.62,13.62,0,0,0-3.06.1,11.63,11.63,0,0,1-6.55-1,3.76,3.76,0,0,1-1.49-1.91C13.47,83,13.57,82.8,13.81,82.81Z"/><path class="cls-3" d="M50.35,75.59c-.8-.3-.4-1-.37-1.46a10,10,0,0,1,1.79-4.72c.91-1.41,1.62-3,1-4.78,0-.15-.3-.77.33-.83,1.34.54,1.5,1.8,1.54,2.94a6.79,6.79,0,0,1-1.77,4.54,6.78,6.78,0,0,0-1.77,3.6C51.11,75.32,50.88,75.65,50.35,75.59Z"/><path class="cls-3" d="M70.59,77.56c.26-.42.37-.22.55.09.56,1,.7,2.12,1.51,3,1.81,1.9,3.76,3.49,6.62,3.26.69.18,1.16-.38,1.75-.52.2,0,.38-.14.57-.2l-.06.73a4.77,4.77,0,0,1-3.43,1.7.68.68,0,0,0-.3-.23,3.4,3.4,0,0,1-3.35-.7,9.12,9.12,0,0,1-3.4-5.27A6.41,6.41,0,0,1,70.59,77.56Z"/><path class="cls-3" d="M32.16,46.44c1.41,1,2.35,2.56,4.27,2.93a3.92,3.92,0,0,0,4.7-2.46c.13-.42.28-.83.42-1.24.49-.4.66.28,1,.31.51.87.06,1.8.11,2.7.13,2-1.66,2.29-3,2.27a8.77,8.77,0,0,1-6.9-3.07c-.41-.5-.88-1-1.32-1.44-.18-.21-.08-.3.16-.32a.2.2,0,0,0,.11,0C31.9,46.22,32.14,46.18,32.16,46.44Z"/><path class="cls-4" d="M44.27,25.28c-1-.41-2.21-.82-2.26-2.12a5.43,5.43,0,0,1,.81-3.51,3.86,3.86,0,0,0,.31-3.08,3.65,3.65,0,0,1,1,2c.5,1.62-.13,3.2-.39,4.78C43.62,24.16,44.35,24.58,44.27,25.28Z"/><path class="cls-1" d="M33.08,102.47c1.63-.9,3.25-1.79,5.23-1.27a.53.53,0,0,1,.42.63c-.09.28-.43.29-.73.17a3.1,3.1,0,0,0-.62-.13c0,.33.32.2.47.3,1.08.7.13,1-.25,1.49a.89.89,0,0,1-1.24.29c-.45-.22-1,.06-1.46.16-.84.17-1.11,0-1.18-.8C33.69,102.82,33.22,102.8,33.08,102.47Z"/><path class="cls-4" d="M33.08,102.47c.53.12,1.06.18.83,1a.46.46,0,0,0,.75.49c.94-.58,2,.22,2.94-.31.25,0,.59,0,.6.35s-.31.38-.56.53a7.57,7.57,0,0,1-4.51.68,1.94,1.94,0,0,1-1.34-.61c-.77-1.14-.31-1.82,1-2A1.08,1.08,0,0,0,33.08,102.47Z"/><path class="cls-1" d="M46.8,106.11a20.09,20.09,0,0,0-2.3-.22c-.77-.18-.6-.94-.58-1.54a3.4,3.4,0,0,1,3-.51c.36.13.91.3.88.74A1.87,1.87,0,0,1,46.8,106.11Z"/><path class="cls-4" d="M43.71,98.39a1.4,1.4,0,0,1-1.35.8c-.9,0-1.94.62-2.7-.44-.15-.21-1.09.43-.61-.55a1.06,1.06,0,0,1,1.57-.59,5.13,5.13,0,0,0,2.05.36A1,1,0,0,1,43.71,98.39Z"/><path class="cls-6" d="M43.71,98.39a4.84,4.84,0,0,0-2.27-.21c-.26,0-.54-.37-.82-.57A2.72,2.72,0,0,1,42.94,97c.42.07.81.09,1.08.66S43.54,98.06,43.71,98.39Z"/><path class="cls-7" d="M40.07,91.17l-1.74-.8c.72,0,1.35-.66,2.12-.28C40.39,90.47,40.74,91,40.07,91.17Z"/><path class="cls-8" d="M43,15.9c-.26-.23-.52-.46-.76-.71,0,0,0-.15,0-.23l.46,0C42.88,15.27,43.29,15.47,43,15.9Z"/><path class="cls-9" d="M77.8,85.35l.34-.07,0,.3Z"/><path class="cls-2" d="M40.19,40.57c-.21.81-.37,1.64-.62,2.44a8.05,8.05,0,0,1-.81,1.85c-.9,1.36-2.2.41-3.29.41-1.71,0-2.71-1.42-3.88-2.41a30.54,30.54,0,0,1-4.71-5c-1.13-1.51-2.22-3.15-4-4a5.74,5.74,0,0,0-3-.11c-2.46.31-4.91.7-7.36,1.14a7.36,7.36,0,0,1-3.84,0c-1.24-.45-1.29-1.14-.31-2,1.46-1.3,2.89-2.62,4.33-3.94a8,8,0,0,0,3.42-7.14c0-.72-.26-1.43.4-2.07.15-.16-.52-.66-.23-1.31.81-1.79,2.37-2.13,4.07-1.17a21.32,21.32,0,0,0,2.41.79c1.63.61,3.07,1.65,4.82,1.93A4.53,4.53,0,0,0,30,19.42a45.2,45.2,0,0,1,9.06-2.93c2-.32,2.67.6,2,2.51-.56,1.51-1.45,2.88-1.65,4.55s.74,2.23,2,2.64c3,1,6.13,1.81,9.22,2.62a4.65,4.65,0,0,1,3.32,2.31c.39.81.09,1.15-.66,1.35a1.42,1.42,0,0,0,0,.21,2.61,2.61,0,0,1-1.79.69c-2.41.3-4.84.48-7.24.85a18.44,18.44,0,0,0-2,.48c-.8.21-.92,1-1.2,1.62-.12.28-.09.62-.33.84a6.4,6.4,0,0,1-.29,1.29A6.42,6.42,0,0,0,40.19,40.57Z"/><path class="cls-5" d="M40.73,37.16c.05-2,1.27-2.86,3.57-3.2,3-.43,6.06-.29,9-1.28.27.5-.18.52-.45.66-2,1-4.18,1.07-6.29,1.53-1.72.37-3.52.6-4.74,2.16C41.63,37.23,41.09,37.13,40.73,37.16Z"/><path class="cls-3" d="M11.27,23.87c0-2.32-1.48-4.29-1.67-6.57a11.27,11.27,0,0,1,.2-2.08c.08-.64.58-.68,1.06-.74,1,.3.32.92.35,1.46a23.72,23.72,0,0,0,.51,3.55c.25,1.22.64,2.4.87,3.62.11.55.2,1.3-.8,1.25-.16-.16-.33-.31-.5-.46Z"/><path class="cls-10" d="M11.27,23.87l0,0-.14.25L11,24Z"/><path class="cls-11" d="M4.05,36.72l.1.22-.4,0Z"/><path class="cls-2" d="M83.24,71.59C83,70.44,82.87,70,81.56,71a2.53,2.53,0,0,1-4.14-2c-.08-.8-.4-.63-.88-.29A3,3,0,0,1,72.3,67.3c-.13-.49-.12-1,.5-1.25,1.11-.32,1.48.37,1.72,1.24.13.47.28.84.83.36,2.07-1.82,4.24-1.13,4.81,1.58.13.63.29.38.56.2,1.49-1,3.18-1.07,4.17-.19a1.74,1.74,0,0,1,.38,2.38C84.79,72.26,83.92,72.12,83.24,71.59Z"/><path class="cls-2" d="M80.72,44.71c-1.5,0-1.15-1.16-1.16-1.93A2.56,2.56,0,0,1,81.62,40a2.26,2.26,0,0,1,2.79,1.54.5.5,0,0,0,.08.14.89.89,0,0,1,.08-.17c1.47-2.81,3-2.93,5.3-.47.46.5.68.8-.18,1a1.84,1.84,0,0,1-2.09-.55c-.41-.36-.59-.33-.71.19a2.08,2.08,0,0,1-1.74,1.82,2.69,2.69,0,0,1-2.89-1.12l-.14-.22a1.11,1.11,0,0,0-.05.25,8.89,8.89,0,0,1-.3,1.62C81.57,44.52,81.29,44.85,80.72,44.71Z"/><path class="cls-2" d="M62.22,54.44a10.35,10.35,0,0,1-1.67,0c-.22,0-.66,0-.71-.44a.91.91,0,0,1,.67-1.06c.54-.2,1.46.21,1.56-.65s-.7-1.56-1.44-2a.93.93,0,0,1-.45-1.38c.31-.43.81-.44,1.25-.59s1-.14,1.11-.72-.54-.78-.93-1.06c-.11-.07-.21,0-.21-.24s.12-.24.19-.25a2.85,2.85,0,0,1,3,.84c.74,1,.15,1.9-1.3,2.14a5.2,5.2,0,0,0-.76.25c.21.2.4.42.63.6s.72.48,1,.78c1.19,1.18.84,2.62-.79,2.94C62.81,53.74,62.37,53.81,62.22,54.44Z"/><path class="cls-5" d="M80.72,44.71c1.37-.34.88-1.58,1.18-2.43,0-.14.1-.28.14-.42a3.65,3.65,0,0,1,.26.32,2.63,2.63,0,0,0,2.84,1.18c1-.15,1.38-.86,1.58-1.78.06-.31.08-1.17.83-.33a2.55,2.55,0,0,0,2.14.82c-1.87,1.55-3.55,3.52-6.44,2.43-.3-.11-.78.3-1.18.45A1.31,1.31,0,0,1,80.72,44.71Z"/><path class="cls-2" d="M79,56.31a2.75,2.75,0,0,1,3.5-.83c1.1.66,1.16,1.51.2,2.81a.34.34,0,0,1-.17.33,2.7,2.7,0,0,1-3.8-.77A1.2,1.2,0,0,1,79,56.31Z"/><path class="cls-2" d="M91.13,51.56a3.06,3.06,0,0,1,4.48-.67c1,.89.07,1.66-.52,2.37-.24.4-.67.39-1,.46a3.22,3.22,0,0,1-2.53-.57A1.14,1.14,0,0,1,91.13,51.56Z"/><path class="cls-2" d="M85,54.86c.6-1.71,1.94-1.92,3.47-1.71.46.06,1,.22,1.1.74a2.14,2.14,0,0,1-.75,2,1,1,0,0,1-1,.59,4.43,4.43,0,0,1-2.25-.25A1,1,0,0,1,85,54.86Z"/><path class="cls-12" d="M98,47.59a1.38,1.38,0,0,1,.5-1.59,1.42,1.42,0,0,1,1.71,0c.27.27.07,1,0,1.58a2,2,0,0,0,2.08,2.09c.39,0,.85-.1.91.51-.83.82-1.85.54-2.8.4a3.78,3.78,0,0,1-2.38-1.53A1.16,1.16,0,0,1,98,47.59Z"/><path class="cls-13" d="M106.47,48.25l-.13-.29c.87-.37,1.77-.74,2.63,0a3.16,3.16,0,0,1,.41,3.43c-.26.36-.69.31-1.08.34a.64.64,0,0,1-.94-.51,7.72,7.72,0,0,1-.12-.84,3,3,0,0,0-.62-1.63A.53.53,0,0,1,106.47,48.25Z"/><path class="cls-5" d="M79,56.31a1.49,1.49,0,0,0,.44,2.11,2.78,2.78,0,0,0,3.26-.13,1.48,1.48,0,0,1,1,.52c.07.09.24.21.23.24s-.18.28-.3.31c-1.58.42-3.12.9-4.75-.07-.47-.28-1.15-.15-1.41-.88C77.07,57.15,77.66,56.29,79,56.31Z"/><path class="cls-5" d="M98,47.59c-.21,1.54,1.43,3,3.24,3a6.82,6.82,0,0,0,2-.33c.38.12.72.32.28.71-1.29,1.17-5.73.29-6.47-1.25C96.53,48.55,96.87,47.8,98,47.59Z"/><path class="cls-5" d="M85,54.86c0,1.15,1.22,1.79,2.81,1.44a7.27,7.27,0,0,0,1-.39c.37.15,1,.1,1,.57,0,.69-.83.77-1.29.9a4.54,4.54,0,0,1-3.87-.32C83.68,56.46,83.84,55.57,85,54.86Z"/><path class="cls-5" d="M106.47,48.25a3.64,3.64,0,0,1,1,2.84c0,.52.38.59.79.62.06.37-.13.48-.46.55a1.94,1.94,0,0,1-1.3-.2c-1.14-.51-.64-1.73-1.07-2.56C105.17,48.93,105.68,48.31,106.47,48.25Z"/><path class="cls-5" d="M91.13,51.56c.08,1.81,1.57,2.46,4,1.7.3.07.72.16.69.48s-.44.3-.74.2c.06.73-.56.48-.9.58a3.77,3.77,0,0,1-3-.43c-.41-.23-.88-.93-.72-1.06C90.9,52.6,90.06,51.6,91.13,51.56Z"/><path class="cls-14" d="M101.7,43.77c-.19-.31-1,0-.78-.53.29-.75,1.17-.57,1.77-.56a5.7,5.7,0,0,1,2,.6c.24.11.65.37.32.81-.19.25-.28.26.15.26s.35.4,0,.63a1.36,1.36,0,0,1-2.09-.34C102.72,44.16,102.12,44.1,101.7,43.77Z"/><path class="cls-15" d="M101.7,43.77a1.81,1.81,0,0,1,1.55,1c.35.67,1.22.33,1.88.21-.11,1-.95.65-1.47.72a1.75,1.75,0,0,1-1.87-1C101.35,43.86,101.37,43.85,101.7,43.77Z"/><path class="cls-2" d="M48.13,84.14c-2.93-1.18-5-3.65-7.89-5a1,1,0,0,0-1.48.49c-.5,1-.11,2.07-.28,3.09,0,.35.28.9-.28,1-.8.17-1.76.63-2.11-.68A5.89,5.89,0,0,1,35.94,81a2.85,2.85,0,0,1,.27-1.53,3.65,3.65,0,0,1,3.46-1.61,7.77,7.77,0,0,1,3.5,1c2.06,1,3.78,2.55,5.78,3.65.15.08.29.2.45.27.34.16.45,0,.4-.32a2,2,0,0,0-.31-.79,9,9,0,0,0-2-2.22,3.08,3.08,0,0,1-.52-.5,10,10,0,0,0-2.83-2.63A3.32,3.32,0,0,1,43,74.88a11.53,11.53,0,0,0-.56-1.11,1.72,1.72,0,0,1,0-1.42,9,9,0,0,1,1.76-3.06c.64-.75,1.23-1.54,1.83-2.32.11-.14.28-.31.17-.47s-.34,0-.48,0c-1.09.48-2.24.77-3.31,1.3-.86.42-1.84.44-2.69.86a13.26,13.26,0,0,1-3.3.56,6.36,6.36,0,0,1-3.57-1,17.14,17.14,0,0,1-3.12-2.52A19.34,19.34,0,0,0,27.83,64c-.11-.08-.23-.27-.39-.15s0,.25,0,.37c.09.66.26,1.3.4,1.94.3,1.71.74,3.38,1.06,5.08a7.69,7.69,0,0,1,.1,2,3.81,3.81,0,0,1-1.6,2.55c-.95.81-2,1.51-3,2.25a4.23,4.23,0,0,0-.41.33c-.06.06-.14.13-.12.22s.17.12.28.12a4.41,4.41,0,0,0,.72-.08,11.68,11.68,0,0,1,4.37,0c2.41.49,3.33,2.18,4,4.35a.58.58,0,0,1-.1.56c.25,1-.5,1.16-1.13,1.15-.84,0-1.72-.14-1.81-1.34a5.32,5.32,0,0,0-1.5-3.26c-.57-.6-1.62-.44-2.49-.33a15.44,15.44,0,0,1-4.7.07c-.43-.08-1.11-.24-1.1-.77,0-.69.68-1,1.14-1.5,1.19-1.18,3.1-1.36,4-2.91a11.21,11.21,0,0,0,.55-1.28q-.28-3.43-.58-6.87a22.83,22.83,0,0,1-.23-3c0-.47-.12-1.2.46-1.45a3.22,3.22,0,0,1,2.69.2c2.54,1.14,4.27,3.32,6.47,4.91,1.11.8,2.21.53,3.42.29,2.85-.57,5.38-2.08,8.23-2.6,1.2-.22,2.55-.47,3,1.23.35.8-.12,1.38-.57,2-.84,1.06-1.93,1.9-2.73,3a5,5,0,0,0-.7,1.26,1.3,1.3,0,0,0,.16,1.48.69.69,0,0,1,.15.61c.63,1.24,2,1.78,2.75,2.87C49.74,79,51.69,80,52.35,82a6.56,6.56,0,0,1,.2,1c0,.4-.3.74-.86,1.09C50.77,84.54,49.28,84.14,48.13,84.14Z"/><path class="cls-5" d="M45.86,74.52C44.92,73,45.6,71,47.28,69.61c1.07-.86,2.28-1.77,2.27-3.4.75.58.7,2.34-.06,3.16a14.3,14.3,0,0,0-1.61,2.85C47.36,73.09,47.63,74.73,45.86,74.52Z"/><path class="cls-1" d="M33.1,83.63c-.48-2.85-1.94-4.71-5-4.92a14.68,14.68,0,0,0-3.68.23,3.85,3.85,0,0,1-1.06-.1,7.05,7.05,0,0,1,.69-.75c1.26-1,2.6-1.83,3.77-2.94,1.5-1.43,1-3,.71-4.66-.27-1.43-.56-2.86-.85-4.29a4.68,4.68,0,0,1,1.19,1.37c.41.84.9,1.87,2.15,1.86a.34.34,0,0,1,.29.12c.4.7,1.13.68,1.78.84a6.15,6.15,0,0,0,3.7-.08c.77-.27,1.6-.31,2.36-.6,1-.37,1-.35.49-1.15,2.2-.8,4.4-1.62,6.61-2.39.45-.16.27.17.17.37a18.62,18.62,0,0,1-2.2,3c-.8,1-1.72,2-1.72,3.31,0,1.66,1.1,2.8,2.41,3.85a17.44,17.44,0,0,1,5,5.58,2.62,2.62,0,0,1,.1.94,7.45,7.45,0,0,1-.93-.36c-2.48-1.44-4.66-3.39-7.36-4.43-1.69-.64-4.56-.73-5.46,1.32-.47,1.06,0,2.26-.2,3.39A3.4,3.4,0,0,1,33.1,83.63Z"/><path class="cls-1" d="M37.81,19.09a17.54,17.54,0,0,0-1.05,4.65,3,3,0,0,0,1.69,2.71c2.91,1.76,6.33,2,9.53,2.94a4.94,4.94,0,0,1,2.47,1.2c.25.27.71.53.59.91s-.66.6-1.11.65a66.42,66.42,0,0,0-6.63.65c-1.54.31-3.3.13-4.57,1.46a4.64,4.64,0,0,0-1,3.31c0,2.13-.51,4.2-.73,6.3,0,.24-.2.65-.35.67A1.77,1.77,0,0,1,35.22,44c-1.45-1.4-2.91-2.78-4.27-4.27-.86-.95-1.5-2.1-2.31-3.09a34.88,34.88,0,0,0-3.11-3.09c-2.25-2.15-4.72-1-7.08-.85a41.53,41.53,0,0,0-7.78,1.47,2,2,0,0,1-.64,0,1.85,1.85,0,0,1,.25-.55c1.48-1.42,3-2.8,4.46-4.24s2.94-2.9,3.34-4.95a29.3,29.3,0,0,0,.24-4.6.68.68,0,0,1,1-.14,14.08,14.08,0,0,1,2,1.4c.08.25-.11.33-.28.33-.46,0-.6.39-.73.7s.64.92.92,1a2.93,2.93,0,0,0,1,0c.63-.12.78-.35.6-1-.08-.26,0-.37.22-.43.95,0,1.85.32,2.79.41a13.82,13.82,0,0,0,6.41-.78c1.45-.58,2.91-1.12,4.31-1.8A1.89,1.89,0,0,1,37.81,19.09Z"/><path class="cls-5" d="M21.35,21.08c-.59-.37-1.2-.72-1.77-1.12a1.19,1.19,0,0,0-1.26-.21c0-.11,0-.22,0-.33,0-.39-.48-.84.07-1.18s1.13.05,1.6.33c3.23,1.88,6.57,3.5,10.42,2.32,2.49-.77,4.87-1.89,7.3-2.86l.88-.35c-.14.23-.3.46-.44.7s-.25.47-.38.71c-3.6,1.51-7,3.55-11.17,3.16-1.25-.12-2.5-.35-3.75-.53A13.87,13.87,0,0,1,21.35,21.08Z"/><path class="cls-5" d="M39.65,68.56c.23.24.84.33.69.66-.32.66-1.14.75-1.75.88-2,.45-3.91,1.14-6,.41-.57-.21-1.33-.84-1.43-.82-1.32.23-1.54-1-2.26-1.54-.09-.06-.24-.16-.23-.22.09-.83-.81-1.07-1-1.73l-.54-2.5a1.09,1.09,0,0,1,0-.31l.27.16c1.56,1,2.67,2.54,4.11,3.7a7.45,7.45,0,0,0,7.51,1.38A2.79,2.79,0,0,1,39.65,68.56Z"/><path class="cls-14" d="M36,32.68a1.8,1.8,0,0,1-1.3-.34c.45-.2-.22-.6.17-.85.78-.51,1.49-1.23,2.55-.75.46.21,1.09.74.86,1.05A2.43,2.43,0,0,1,36,32.68Z"/><path class="cls-14" d="M33.59,27.84c-.28-.14-.74-.37-1.18-.63-.08-.05-.08-.23-.11-.35.92-.09,1.23-1.5,2.39-1.09.49.17,1.14.16,1.15.88s-.64.92-1.19,1.11A4.72,4.72,0,0,1,33.59,27.84Z"/><path class="cls-14" d="M21.35,21.08a1.57,1.57,0,0,1,1.54.64c.19.33.49.66.18,1.07s-1.06.47-1.63.44a1.13,1.13,0,0,1-1-.6C19.58,21.31,20.6,21.33,21.35,21.08Z"/><path class="cls-16" d="M26.79,31.4c-.4-.19-1,0-1.36-.46a3,3,0,0,1-.26-.34l.38-.16a.81.81,0,0,0,.14-.12c-.34-.42-.27-.4.29-.7s1.36-.09,2-.07c.27,0,.53.33.42.56-.18.41-.11,1-.73,1.16C27.42,31.33,27.14,31.35,26.79,31.4Z"/><path class="cls-12" d="M26.37,24.8c-.51-.35-1.76.24-1.66-.83s1.27-.91,2.08-1c.47,0,1.14,0,1.22.57C28.21,24.79,27.2,24.66,26.37,24.8Z"/><path class="cls-13" d="M33.69,21.83c.66,0,1.68-.43,1.71.6s-1.12,1.06-1.95,1.13a2.89,2.89,0,0,1-1-.17c-.1,0-.17-.13-.25-.2C32.9,22.91,32.74,21.78,33.69,21.83Z"/><path class="cls-14" d="M17.91,31.28c-.45-.28-1.4,0-1.38-.54,0-.85.84-1.29,1.71-1.35.64,0,1.34.43,1.3.86C19.47,31,18.56,31.05,17.91,31.28Z"/><path class="cls-14" d="M20.58,27.26c-.81.08-1.38-.29-1.43-1a.89.89,0,0,1,1-.75c.72.12,1.83-.08,1.8,1.1C21.93,27.37,21.13,27.21,20.58,27.26Z"/><path class="cls-14" d="M33.08,35.25c.91.12,1.68,0,1.74.78s-.64.84-1.25.88-1.34-.42-1.38-.82A.85.85,0,0,1,33.08,35.25Z"/><path class="cls-14" d="M42.71,29.8c.7,0,1.51.19,1.43.64-.14.76-1.08.49-1.66.58-.39.07-1.23.08-1.16-.53S42.36,30.12,42.71,29.8Z"/></g></svg>