<svg width="120px" height="120px" viewBox="0 0 120 120" id="Layer_1" data-name="Layer 1" xmlns="http://www.w3.org/2000/svg"><defs><style>.cls-1{fill:#ccccd7;}.cls-2{fill:#90aad8;}.cls-3{fill:#faccd7;}.cls-4{fill:#facbd7;}.cls-5{fill:#4f78bc;}.cls-6{fill:#2b3c58;}.cls-7{fill:#2b3c59;}.cls-8{fill:#f7b0c9;}.cls-9{fill:#90aad9;}.cls-10{fill:#3d4b68;}.cls-11{fill:#fff;}.cls-12{fill:#eaedf7;}.cls-13{fill:#b0c3e5;}.cls-14{fill:#f7f8fc;}.cls-15{fill:#425172;}.cls-16{fill:#2c3c59;}.cls-17{fill:#2f3e5a;}.cls-18{fill:#2d3d5a;}.cls-19{fill:#2e3d5a;}.cls-20{fill:#2d3d59;}</style></defs><title>hs-huzzah-10</title><path class="cls-1" d="M72.28,2.47c.09.3.39.29.61.4a19.45,19.45,0,0,1,4,3.37c.46.43.88.9,1.32,1.36a11.13,11.13,0,0,1,2.66,4.45,9.5,9.5,0,0,1,.48,3.75c-.12,1.25-.14,2.52-.3,3.78a7,7,0,0,1-.71,2c-.68,1.52-1.32,3.06-2.13,4.53a37.63,37.63,0,0,0-3.56,7.47,6.46,6.46,0,0,0,.48,4.64A12.52,12.52,0,0,0,78.1,42c.43.42.63,1,1.22,1.34a.24.24,0,0,1,.1.33c-.09.16-.23.35-.4.29-.34-.11-.7,0-1-.26a26.31,26.31,0,0,1-3.63-3.2,3.36,3.36,0,0,1-.7-1.07,13.24,13.24,0,0,1-1.37-3.1A9.32,9.32,0,0,1,72.4,32a29.61,29.61,0,0,1,3.15-6.29,23,23,0,0,0,2.8-6.48,17.32,17.32,0,0,0,.35-7A10.12,10.12,0,0,0,75.83,6.7a24.17,24.17,0,0,0-4-3.68c-.26-.16-.3-.31-.15-.55Z"/><path class="cls-2" d="M109.11,60.27a8.63,8.63,0,0,1,3.64.38,4.47,4.47,0,0,1,2.48,2.84c.11.25.15.55.46.65v2c-.21.18-.18.43-.21.68a10.9,10.9,0,0,1-1.7,4.57c-.55.91-1.28,1.68-1.75,2.63-.22.46-.7.65-1,1a29.31,29.31,0,0,1-4.18,3.77c-.91.67-2,1.18-2.93,1.76-.25-.29,0-.52.1-.75a56,56,0,0,0,2.1-5.29,3.58,3.58,0,0,1,.68-.82c2.51-2.66,4-5.71,3.48-9.47a4.26,4.26,0,0,0-.43-1.38,1,1,0,0,0-.92-.68c-.24-.34-.07-.68,0-1A3.87,3.87,0,0,0,109.11,60.27Z"/><path class="cls-3" d="M19.81,117.83a.39.39,0,0,0-.32-.15c-.23,0-.56.09-.58-.31a.59.59,0,0,1,.41-.65c.56-.12,1.18-.59,1.66.16a.45.45,0,0,0,.24.16c.2.08.58-.06.58.21s-.41.18-.61.3-.77,0-1.07.28Z"/><path class="cls-2" d="M67.39,92.69a5.91,5.91,0,0,0-1.48-1.59c-1.23-1.16-2.29-2.47-3.44-3.71a12.91,12.91,0,0,1-2.07-2.33,15,15,0,0,0-1.66-2.52,14.47,14.47,0,0,1-2.49-4.68c-.21-.61-.66-1.12-.85-1.75-.48-1.56-1.1-3.06-1.57-4.61-.27-.89-.19-1.9-.86-2.67-.07-.09.15-.38.1-.54-.31-1.05-.26-2.17-.66-3.23a11.36,11.36,0,0,1,0-1.57c-.23-1.57-.21-3.17-.39-4.74-.13-1.12,0-2.23-.15-3.33,0-.29.11-.34.24-.47s.31,0,.44.12a8.13,8.13,0,0,0,4.74,2.11c1.54.17,3.08.38,4.62.61a34.57,34.57,0,0,0,3.53,0c.48,0,.92.19,1.4.21,1.06.06,2.11-.09,3.15-.07a11.44,11.44,0,0,1,3.39.31,6.58,6.58,0,0,0,2,0,10.33,10.33,0,0,0,2.6-.11c1.25-.31,2.54.17,3.8-.11.37-.09.75-.11,1.13-.17s.66.16.82-.19-.2-.62-.45-.87a1.25,1.25,0,0,1,1.07-.31c1.45,0,2.91,0,4.36,0A45.19,45.19,0,0,0,95,56.11c1.53-.25,3.07-.44,4.61-.69A11.9,11.9,0,0,0,103,54.18c.55-.27.54-.74,0-1a14.53,14.53,0,0,0-3.68-1.5c-3-.63-5.92-1.36-8.94-1.75a.72.72,0,0,1-.35-.15.41.41,0,0,1,.19-.64c1.1.15,2.19.32,3.29.46A40.68,40.68,0,0,1,99.6,50.8a26.57,26.57,0,0,1,4.17,1.3,4.38,4.38,0,0,1,2.65,3.28c.22,1.19.16,2.36.29,3.53.07.66-.28,1.31-.09,2,0,.07-.09.07-.14,0s0,0,0-.06.13.15.18.24a17,17,0,0,1-.29,2.24,9.07,9.07,0,0,0-.06.91,7.56,7.56,0,0,0-.57,2.43,39.26,39.26,0,0,1-1.1,4.68c-.22.72-.39,1.46-.54,2.2a1.71,1.71,0,0,1-.34.75,1.25,1.25,0,0,0-.3.76,18.71,18.71,0,0,1-1.38,3.3,25.34,25.34,0,0,1-1.6,3.52,1.16,1.16,0,0,1-.54.51c-.38.16-.46.68-1,.71-.17,0,0,.24.06.37s-.28.37-.16.63c-1,1-1.45,2.43-2.5,3.41a.34.34,0,0,0-.08.35c.07.23.24.07.37.1,1,.22,2,0,2.94.11a65.22,65.22,0,0,1,8.22,1.24,33.65,33.65,0,0,1,4.5,1.33,4.46,4.46,0,0,1,2.06,1.72,1.71,1.71,0,0,1-.28,2.13,9.64,9.64,0,0,1-3.61,2A48.2,48.2,0,0,1,103.81,98a49.81,49.81,0,0,1-8.52,1c-1.32.07-2.65.13-4,.25-2.37.2-4.75,0-7.13.2a30.51,30.51,0,0,1-3.7,0c-1.28-.08-2.57,0-3.87,0-2.36-.13-4.72-.11-7.07-.32a68.22,68.22,0,0,1-7.13-.67,26.43,26.43,0,0,0-3.79-.34,27.91,27.91,0,0,1-5.06-.88,11.74,11.74,0,0,1-2.67-.55c-1.48-.7-3.16-1-4.45-2.13-.09-.08-.28-.13-.29-.21s.42-.19.23-.43c-.05-.07-.48.17-.53.1a2.25,2.25,0,0,1-.4-1.28,1.14,1.14,0,0,1,.51-1,12,12,0,0,1,4.56-1.81c.42-.09.77-.33,1.2-.43,2.41-.56,4.86-.86,7.3-1.25a1.21,1.21,0,0,1,1.1.17c.05,0,.17.09.2.07.83-.7,1.07.19,1.47.57.81.77,1.59,1.57,2.38,2.37-.15.29-.44.32-.71.39a3.76,3.76,0,0,0-.66.17c-.48.22-1,.47-1.08,1s.49.7.85,1a6.32,6.32,0,0,0,2.72,1c1,.14,1.92.5,2.91.63,2.89.38,5.78.62,8.69.71s5.77,0,8.64-.16c3.44-.14,6.86-.43,10.28-.8a88,88,0,0,0,10.72-1.74,5.78,5.78,0,0,0,1.62-.69c.15-.08.31-.21.27-.42s-.24-.15-.39-.19-.4,0-.45-.23.21-.23.36-.31.11-.23,0-.32a3.45,3.45,0,0,0-.61-.3A17.83,17.83,0,0,0,101.72,90a62.46,62.46,0,0,0-6.27-.09,1,1,0,0,0-.81.37l-.5.58A10.32,10.32,0,0,1,87,94.3a59.31,59.31,0,0,1-6.1.41c-3.34-.11-6.7,0-10-.61A7.07,7.07,0,0,1,67.39,92.69Z"/><path class="cls-4" d="M6.64,109.09c-.09-.12-.21-.35-.26-.34-.88.24-1-.52-1.3-1A2.23,2.23,0,0,1,4.91,106a6.8,6.8,0,0,1,1.58-3c.22-.28.37-.69.88-.49.18.07.13-.09.09-.17a.3.3,0,0,1,.11-.4,33.42,33.42,0,0,1,4.56-3.44c1.09-.6,2.12-1.38,3.25-1.94,2.76-1.37,5.37-3.12,8.41-3.77A36.8,36.8,0,0,1,28.71,92a25.2,25.2,0,0,1,5.14.2c1.64.22,3.68,1.77,4,3.11.13.56.25,1.16-.3,1.59-.18.14-.14.24,0,.37s.1.34,0,.35c-1,.08-.29,1.16-.84,1.5.06.3-.15.48-.33.65a32.46,32.46,0,0,1-4.25,3.58A52.11,52.11,0,0,1,25.48,107a15.22,15.22,0,0,1-4.8,1.47c-1.15.16-2.28.47-3.45.61a26.41,26.41,0,0,1-3,.34,13.7,13.7,0,0,1-3.18-.25c-1.22-.31-2.49-.24-3.71-.51C6.9,108.54,6.83,108.88,6.64,109.09Z"/><path class="cls-5" d="M90.09,49.74a16.53,16.53,0,0,1,4,.55c1.3.31,2.62.53,3.92.81A20.41,20.41,0,0,1,103.24,53c.41.22.35.55.42.88s-.28.38-.47.47A13.14,13.14,0,0,1,100,55.57c-2.21.38-4.44.71-6.68.92-1.14.1-2.28.08-3.42.15-2.18.14-4.38-.09-6.57.17-.35.21-.69,0-1-.07-1.07-.11-2.15.08-3.2,0s-2.1,0-3.17-.18c-1.24-.25-2.55-.08-3.8-.28A28.49,28.49,0,0,1,68.64,56s-.11,0-.14,0c-1.58.81-3.07-.39-4.64-.2a12.23,12.23,0,0,1-3-.05c-1.92-.2-3.82-.48-5.73-.76a2.41,2.41,0,0,1-.67-.32c-.23-.34,0-.6.19-.81A5.46,5.46,0,0,1,57.62,52,23.92,23.92,0,0,0,60,51.09c1.58-.54,3.25-.65,4.84-1.07a35.13,35.13,0,0,1,5.76-.57,1.37,1.37,0,0,1,.75.11c.6.61.24,1.33.23,2a1.14,1.14,0,0,1-.14.43c-.05.14-.15.31,0,.42s.33,0,.46-.13A5.89,5.89,0,0,0,73,50c.09-.23,0-.52.28-.7a11.51,11.51,0,0,1,2.49-.08c2.13-.08,4.26-.22,6.39-.12,1.72.07,3.44-.1,5.15.14.46.19.27.54.19.84a9.65,9.65,0,0,1-1.68,3.36c-.17.22-.37.43-.15.74a.66.66,0,0,0,.76.21,3.08,3.08,0,0,0,1.74-1.49,14.27,14.27,0,0,0,1.68-3A.35.35,0,0,1,90.09,49.74Z"/><path class="cls-6" d="M67.39,92.69c.46-.17.62.32.94.43a18.58,18.58,0,0,0,3.53.95,32.85,32.85,0,0,0,5.13.35c2,0,4.07.23,6.13,0,1.57-.18,3.18-.28,4.77-.38a8.68,8.68,0,0,0,3.51-1.26A9.76,9.76,0,0,0,94.52,90a.9.9,0,0,1,.72-.37c1.81,0,3.63-.11,5.44,0a29.61,29.61,0,0,1,5.62.79,7.92,7.92,0,0,1,1.89.84c.21.13.39.36.34.55s-.33,0-.5.1l-.37.07c.1.16.25.09.38.11s.69-.27.78.17-.24.59-.53.78a13.15,13.15,0,0,1-3.81,1.17,43.47,43.47,0,0,1-5.84,1c-1.71.21-3.43.42-5.15.55-1.53.11-3.07.31-4.59.38s-3.07.15-4.6.2c-2,.08-4,.17-6,.16a76.29,76.29,0,0,1-9.06-.6,41,41,0,0,1-5.89-1.28,5.55,5.55,0,0,1-1.59-1c-.46-.34-.37-1,.15-1.4a2.67,2.67,0,0,1,1.56-.66,3.4,3.4,0,0,0,.73-.19,15.2,15.2,0,0,0,2.19,1.42C66.76,93,67.1,93.15,67.39,92.69Z"/><path class="cls-1" d="M73.23,49.45A6.32,6.32,0,0,1,72.1,52.4c-.22.28-.42.52-.81.26s-.11-.45,0-.73a3.74,3.74,0,0,0,.1-2.22,1.06,1.06,0,0,1-.33-.46.37.37,0,0,0,0-.5c-.57-.58-.87-1.4-1.54-1.88a18.66,18.66,0,0,0-4.07-2.47,16.43,16.43,0,0,1-5.49-3.21,6.47,6.47,0,0,1-1.75-2.61c-.17-.52-.42-1-.56-1.58a5.46,5.46,0,0,1,0-2.31c.16-.84.48-1.62.66-2.44,0-.12,0-.29.11-.35s.94.1.45-.66c-.09-.14.43-.73.74-1s.39-.76.75-1.05a9.82,9.82,0,0,0,.86-1c1-1.11,2.05-2.16,3.11-3.22a18.51,18.51,0,0,0,4.29-5.8A6.84,6.84,0,0,0,68.35,13C67,10.38,64.59,9.43,61.81,9.24a11.44,11.44,0,0,0-3.25.12c-.4.09-.93,0-1-.42,0-.19.55-.48,1-.49,1.19,0,2.37-.21,3.57-.16a13.33,13.33,0,0,1,6.38,1.79,7.52,7.52,0,0,1,3.19,4,8.46,8.46,0,0,1-.15,5.47,10.71,10.71,0,0,1-1.74,3.09,31.66,31.66,0,0,1-2.91,3.29c-1,1-1.94,2-2.84,3.06a14.08,14.08,0,0,0-3.13,5.23,6.36,6.36,0,0,0,1.33,6,13.07,13.07,0,0,0,5.18,3.52A11.23,11.23,0,0,1,69.55,45a10.5,10.5,0,0,1,2.87,2.57A14.46,14.46,0,0,1,73.21,49,.4.4,0,0,1,73.23,49.45Z"/><path class="cls-4" d="M33.9,110.78c-2.54,0-5-.53-7.53-.78a1.65,1.65,0,0,1-.42-.16c0-.34.28-.38.51-.46A15,15,0,0,0,30,107.7a14.77,14.77,0,0,1,3.55-1.38,42.68,42.68,0,0,0,5.46-2.15,9.68,9.68,0,0,0,1.19-.25c.54-.17,1-.46,1-1.11.13-.28.43-.4.61-.64.46-.64,1.13-1.19.82-2.12a22,22,0,0,1,4.08.87c1.46.44,2.87,1,4.28,1.57a6.3,6.3,0,0,1,2.76,1.83c.06.08.21.15.2.22,0,.45-.41.82.21,1.33.34.27-.45.91-.78,1.33-.21.26-.47.63-.9.66a.67.67,0,0,0-.52,0,20.82,20.82,0,0,1-6.1,1.29c-1.87.23-3.74.45-5.6.83a24.59,24.59,0,0,1-3.65.22A6.94,6.94,0,0,0,33.9,110.78Z"/><path class="cls-1" d="M90.09,49.74a13.32,13.32,0,0,1-2.46,4.09c-.41.45-.82.92-1.53.8-.23,0-.58.13-.67-.19s-.29-.64.06-.94a4.78,4.78,0,0,0,1.18-1.72,4.5,4.5,0,0,0,.67-2.4c-.08-.09,0-.18,0-.28a3.54,3.54,0,0,0,.21-2.91,23.58,23.58,0,0,0-3-5.41c-.87-1.36-2-2.53-2.75-4a5.67,5.67,0,0,1-.13-5.56,42.4,42.4,0,0,1,4.56-6.84.52.52,0,0,1,.17-.16c.24-.09.45-.51.69-.28s-.17.45-.31.65A33.21,33.21,0,0,0,84,29.25a8.72,8.72,0,0,0-.91,4.17,7,7,0,0,0,1.65,3.9c.89,1.21,1.84,2.37,2.72,3.58.74,1,1.32,2.15,2,3.21a6.43,6.43,0,0,1,.82,5A.87.87,0,0,0,90.09,49.74Z"/><path class="cls-7" d="M6.64,109.09c-.07-.63.05-.9.79-.65a6.87,6.87,0,0,0,1.87.26c1.45.08,2.87.4,4.33.45.88,0,1.69-.21,2.54-.23a15.17,15.17,0,0,0,2.9-.38c1.35-.3,2.73-.48,4.07-.88a24.15,24.15,0,0,0,4.75-2.14,12.49,12.49,0,0,1,1.3-.57c1.31-.49,2.25-1.55,3.46-2.19,1.64-.87,2.75-2.35,4.05-3.63.68-.58.68-.58.89.43a2.37,2.37,0,0,1-.66,1,29.57,29.57,0,0,1-7.75,6.33c-1.19.71-2.49,1.16-3.65,1.92a4.4,4.4,0,0,1-1.87.55c-1.25.33-2.52.6-3.74,1a14.52,14.52,0,0,1-2.76.37,31.11,31.11,0,0,1-4,.19A19,19,0,0,1,7.63,110C7.11,109.87,7,109.42,6.64,109.09Z"/><path class="cls-8" d="M23.66,109.37a39.84,39.84,0,0,0,9-5,25.55,25.55,0,0,0,4.37-4.2c.17-.21.37-.41.56-.61a2.75,2.75,0,0,1,1.65-.1,29.78,29.78,0,0,1,3.42.59c.56.59.3,1.08-.16,1.56s-.61,1-1.23,1.2a2.74,2.74,0,0,1-1.32.29,1.74,1.74,0,0,0-.45.06c-.61.21-.72.58-.34,1.16a25.06,25.06,0,0,1-3.62,1.54c-1.35.35-2.6,1-4,1.3a8.41,8.41,0,0,0-2.06,1.11,13.53,13.53,0,0,1-3.19,1.33,1.52,1.52,0,0,0-.38.24A13.68,13.68,0,0,1,23.66,109.37Z"/><path class="cls-7" d="M33.9,110.78c.3-.79,1.09-.72,1.64-.73,1.38,0,2.74-.25,4.12-.21a29,29,0,0,0,3-.47c1.8-.16,3.57-.61,5.39-.66a7.13,7.13,0,0,0,1.79-.41,9.17,9.17,0,0,0,2.4-.85c.29-.18.28.19.23.41-.36,1-1.37,1.14-2.16,1.52-1.85.88-3.91.83-5.88,1.2-1.47.27-3,.41-4.43.6a34.83,34.83,0,0,1-4.9,0C34.69,111.19,34.17,111.34,33.9,110.78Z"/><path class="cls-7" d="M99.89,82.38a30.64,30.64,0,0,0,2-4.07,1.5,1.5,0,0,1,.62-.65,14.16,14.16,0,0,0,2.89-2.57,1.52,1.52,0,0,1,.81-.54c.14.08.14.17.07.31-.92,1.77-1.28,3.78-2.37,5.48,0,0,0,.15,0,.22A16.31,16.31,0,0,1,99.89,82.38Z"/><path class="cls-9" d="M71,49.25c.3,0,.33.23.33.46-1.34,0-2.68,0-4,0a21.23,21.23,0,0,0-3.17.55,30.44,30.44,0,0,0-6,1.63A8.74,8.74,0,0,0,55,53.76a1.2,1.2,0,0,0-.47.85c-.62.06-1-.49-1.5-.66-.18-.06-.09-.22,0-.36a6.9,6.9,0,0,1,4-2.1c1.42-.27,2.77-.76,4.19-1a43.33,43.33,0,0,1,5.93-1.13A27.93,27.93,0,0,1,71,49.25Z"/><path class="cls-4" d="M15.74,113.54a4.59,4.59,0,0,1,2.28.57c.51.21.45.47.14.87-.48.64-1.19.52-1.8.64a10,10,0,0,1-3.58.22H12.7c-.42-.19-1.08-.21-1.11-.75s.57-.85,1-1A8.88,8.88,0,0,1,15.74,113.54Z"/><path class="cls-7" d="M106.49,60.92a.28.28,0,0,0,.13,0,19.69,19.69,0,0,1,2.49-.62c.39.18.17.5.1.71a3.58,3.58,0,0,0-.28,1.16.68.68,0,0,1-.33.49c-.74.52-1.47,1.07-2.17,1.64a.24.24,0,0,1-.28,0A5.28,5.28,0,0,1,106.3,62a4.17,4.17,0,0,0,.19-1.11Z"/><path class="cls-2" d="M87.31,49.1c.16.07,0,.18,0,.28-2.48.1-5-.12-7.43,0-1.37,0-2.75.12-4.13.11a24.1,24.1,0,0,0-2.55,0c0-.16,0-.32,0-.48,1.59,0,3.18-.13,4.76-.12,2.94,0,5.88.1,8.83.11A1.94,1.94,0,0,1,87.31,49.1Z"/><path class="cls-4" d="M23.88,115.19a7.61,7.61,0,0,1-1-.13c-.31-.08-.82,0-.76-.52s.48-.83.83-.76a16.48,16.48,0,0,0,1.87-.1,4.36,4.36,0,0,1,.88.22c.16,0,.36.12.35.34a.46.46,0,0,1-.3.49C25.1,114.91,24.41,115.07,23.88,115.19Z"/><path class="cls-10" d="M98.81,84.09c-.36-.32-.07-.47.16-.63C99.18,83.74,98.88,83.89,98.81,84.09Z"/><path class="cls-11" d="M106.15,64.31a34.52,34.52,0,0,1,2.78-2.17c.58-.17,1,.2,1.3,1a8.06,8.06,0,0,1,.08,4.81,11.73,11.73,0,0,1-3.51,5.9,6.24,6.24,0,0,0-.6.65,18.71,18.71,0,0,1-4.32,3.76c0-.57.47-1,.67-1.46a9.66,9.66,0,0,1,.72-1.8c.14-.25.12-.56.3-.8a4.52,4.52,0,0,0,.57-2.12,7.68,7.68,0,0,1,.44-1.45,47.12,47.12,0,0,0,1.17-5.62A.92.92,0,0,1,106.15,64.31Z"/><path class="cls-12" d="M114.11,67.48c0,.13-.06.26-.15.23s-.23-.28-.26-.47,0-.24.11-.22S114,67.33,114.11,67.48Z"/><path class="cls-13" d="M88.68,71.54A2.52,2.52,0,0,1,87.47,74a3,3,0,0,0-.57.5c-.33.42-.91.79.09,1.24a5.22,5.22,0,0,1,1.56,1.45,1,1,0,0,1,.22,1.23c-.2.35,0,.89-.35,1.31a4.69,4.69,0,0,1-4.35,1.55,4.86,4.86,0,0,1-1.75-.48c-.34-.19-.51-.08-.59.34-.28,1.39-1.4,2.18-2.41,3s-2.78.27-3.6-.69a3.64,3.64,0,0,1-1.13-2,4.15,4.15,0,0,1,.31-2.88c.42-.61.18-.75-.42-.68a6.65,6.65,0,0,1-2.31-.26,1.81,1.81,0,0,1-.92-.5A5.15,5.15,0,0,1,69.83,73a1.9,1.9,0,0,1,.85-1.36,6.44,6.44,0,0,1,3.51-1.29,3.83,3.83,0,0,1,1.9.48c.4.21.45.06.43-.29a8,8,0,0,1,.18-1.62,4.1,4.1,0,0,1,2.84-3.44,2.26,2.26,0,0,1,3,1.36c.11.23.14.5.26.72.22.44,0,1,.37,1.38.32-.42.83-.47,1.25-.67a4.43,4.43,0,0,1,2-.62,3.08,3.08,0,0,1,1.56.65c.41.23.42.81.48,1.23A7,7,0,0,1,88.68,71.54Z"/><path class="cls-14" d="M106.49,60.93l-.14-.07-.54-.19c.07-.06.13-.17.21-.19.34-.06.45.15.47.44Z"/><path class="cls-15" d="M103.57,74.25c.08.34-.12.56-.3.8C103.28,74.75,103.18,74.41,103.57,74.25Z"/><path class="cls-16" d="M28.08,95c1,0,1.56.67,1,1.3-.43.42-.68,1-1.24,1.32a.9.9,0,0,1-1.13,0,1.36,1.36,0,0,1-.37-1.38A1.55,1.55,0,0,1,28.08,95Z"/><path class="cls-16" d="M17,104.94c-.59.12-.71-.22-.67-.75a2.27,2.27,0,0,1,2.34-1.9c.34.07.41.17.41.46A2.2,2.2,0,0,1,17,104.94Z"/><path class="cls-16" d="M19.19,97.57c.43.06,1-.16,1.08.52a.8.8,0,0,1-.84,1,2.37,2.37,0,0,1-1.31-.48c-.31-.2,0-.4,0-.58C18.3,97.38,18.83,97.66,19.19,97.57Z"/><path class="cls-17" d="M30.38,100c-.23,0-.43.1-.55-.1s.09-.34.17-.51c.34-.74.77-1.3,1.72-1.1.28.06.56.17.48.45s0,.72-.53.67c-.31,0-.58,0-.69.41S30.55,100,30.38,100Z"/><path class="cls-18" d="M23.93,100.19c.49-.09.77.13.78.59s-.42.85-.76.74-1.19.24-1.2-.56S23.41,100.25,23.93,100.19Z"/><path class="cls-19" d="M11.86,103.68c-.21-.22-.8,0-.77-.5a.81.81,0,0,1,.89-.84c.45,0,1,.22,1,.63S12.38,103.64,11.86,103.68Z"/><path class="cls-7" d="M45.79,104.51c.9-.33,1.08.54,1.51,1,.18.2-.07.18-.14.21a4.43,4.43,0,0,1-2.61.36.58.58,0,0,1-.52-.55c0-.33.15-.41.33-.58A1.6,1.6,0,0,1,45.79,104.51Z"/><path class="cls-16" d="M39.16,104.32c-.16-.24-.79,0-.63-.5s.67-1,1.07-.93c.6.11,1.11-.25,1.67-.08.23.56-.11,1.06-1,1.32A8.77,8.77,0,0,1,39.16,104.32Z"/><path class="cls-20" d="M38.7,107.09c-.37,0-.89-.19-.84-.33.16-.44.68-.49,1.1-.57.15,0,.33.1.5.14s.26,0,.28.17-.05.25-.22.32S39,107.15,38.7,107.09Z"/><path class="cls-9" d="M80.49,73.5a5.45,5.45,0,0,1,.88.2,1,1,0,0,1,.31,1.83,2.19,2.19,0,0,1-2.52.13,1,1,0,0,1-.3-1.3A1.62,1.62,0,0,1,80.49,73.5Z"/></svg>