<svg width="120px" height="120px" viewBox="0 0 120 120" xmlns="http://www.w3.org/2000/svg"><defs><style>.cls-1{fill:#a8dac5;}.cls-2{fill:#fbfdfc;}.cls-3{fill:#d5dce1;}.cls-4{fill:#5a76ba;}.cls-5{fill:#c6e5d2;}.cls-6{fill:#b8c8d7;}.cls-7{fill:#2b3c58;}.cls-8{fill:#5bbe88;}.cls-9{fill:#f05e7e;}.cls-10{fill:#4f69b1;}.cls-11{fill:#ee3459;}.cls-12{fill:#f6a5bc;}.cls-13{fill:#0e1c3d;}.cls-14{fill:#19a163;}.cls-15{fill:#f7b1c2;}.cls-16{fill:#2b3c59;}.cls-17{fill:#5b77ba;}.cls-18{fill:#f1627e;}.cls-19{fill:#9292a4;}.cls-20{fill:#f59292;}.cls-21{fill:#28a86a;}.cls-22{fill:#fff;}.cls-23{fill:#f05172;}.cls-24{fill:#fefefe;}.cls-25{fill:#fcfcfc;}.cls-26{fill:#c8e5d3;}.cls-27{fill:#fbfdfb;}.cls-28{fill:#fcfdfc;}.cls-29{fill:#fcfefd;}.cls-30{fill:#fafdfb;}.cls-31{fill:#f9fcfa;}.cls-32{fill:#f9fcfb;}.cls-33{fill:#f597b2;}</style></defs><title>hs-huzzah-17</title><g id="Layer_2" data-name="Layer 2"><path class="cls-1" d="M13.84,106.14c-.87-.66-1.77-1.29-2.61-2A20.46,20.46,0,0,1,4.41,95c-.55-1.63-.93-3.32-1.39-5v-.15a4.27,4.27,0,0,0,0-2v-.46c.31-1.14.54-2.3,1-3.41.48-1.3,1.1-2.56,1.67-3.83a11.78,11.78,0,0,1,2,1.84c1.61,1.65,3.33,3.17,5,4.74a1.22,1.22,0,0,1,.41.93c.3-.37.59-.16.85,0,.57.43,1.18.82,1.75,1.25a6.46,6.46,0,0,0,1.73.94.7.7,0,0,1,0,.55c-.27,1.12-.71,2.19-1,3.32-.16.68-.05.83.66.79a6.34,6.34,0,0,0,1.48-.39c.82-.23,1.12,0,.91.81a15.54,15.54,0,0,1-2.13,4.82c-.6.89-.51,1,.52,1.31,3.19,1,6-.23,8.81-1.44a16,16,0,0,0,2.62-1.46c.36-.24.7-.63,1.23-.47a2.35,2.35,0,0,1,.23,1.42c0,.69.15,1.37.14,2a5.92,5.92,0,0,0,1,3.11c.64,1.08.55,1.41-.62,1.93a23.17,23.17,0,0,1-7.67,1.94c-3.29.26-6.27-.67-9.27-1.71A.88.88,0,0,1,13.84,106.14Z"/><path class="cls-2" d="M3,87.82a2.11,2.11,0,0,1,0,2Z"/><path class="cls-3" d="M60.47,96.45c-.51-.27-1,0-1.53,0-.41-.67-.32-1.48-.64-2.19-.09-.19.14-.36.34-.44.32.18.37.91.89.58s.25-1,.12-1.31A24.7,24.7,0,0,0,57,87.89c-.34-.49-1-.7-1.3-1.31a5.43,5.43,0,0,1,1.75-1.69c1.69-1.33,3.51-2.49,5.28-3.72a3.85,3.85,0,0,1,2.54-.3A12.56,12.56,0,0,0,68,80.75a24.4,24.4,0,0,1,4.6-.19A5,5,0,0,0,74.63,80c.07,0,.23-.07.2-.16s-.18,0-.28,0c-1.68-.2-3.38,0-5.06-.26a51.05,51.05,0,0,1-6.16-.89,41.5,41.5,0,0,1-4.14-.82,44.65,44.65,0,0,1-5.09-2.16,29,29,0,0,1-3.49-2.09c-1-.69-2.23-1.1-2.83-2.16a20.18,20.18,0,0,0-2-2.25c-1.13-1.48-2.22-3-3.24-4.56A10.78,10.78,0,0,1,40.77,61a1.23,1.23,0,0,0-.37-.58,1.15,1.15,0,0,1-.35-.67c0-1-.74-1.73-.86-2.69-.08-.64-.56-.85-1.18-.81-.2,0-.45,0-.49-.28s.18-.22.33-.26a3.25,3.25,0,0,1,.43-.08,11.62,11.62,0,0,1,3.06.1l3.6.16a.51.51,0,0,1,.44-.34c1.08.06,2.17-.32,3.24,0,1.07.13,2.14-.09,3.2,0,1.16.62,3,.38,3.22-.43a2,2,0,0,0,1.25.44c1.22.12,2.44,0,3.65.09.69.06,1.38-.23,2.05.06a22.87,22.87,0,0,1,2.62.06c.66.08.37-.49.61-.66a1.21,1.21,0,0,0,1.18.47c1.1,0,2.21-.06,3.31,0a2.29,2.29,0,0,1,.37,0c.85.07,1.72.19,2.25-.73-.11,1,.26,1.27,1.25,1,.74-.21,1.56.24,2.33-.09a6.09,6.09,0,0,1,2.55,0c2.43.05,4.87.12,7.3.13,4.35,0,8.71,0,13.06,0,3.13,0,6.26.1,9.38.15.25,0,.52,0,.46.36-.55,3.35-1.26,6.6-3.45,9.39a33,33,0,0,1-7.75,7.26c-3.93,2.62-7.91,5.12-12.62,6.11l-6.53,1.37a1.17,1.17,0,0,0-.3.14l.19.08a33.12,33.12,0,0,1,6.06,3,23.23,23.23,0,0,1,3.35,2.51c.19.45-.16.71-.38,1a11.59,11.59,0,0,0-1.45,2.47c-.39,1.45-1,2.82-1.39,4.26-.12.42,0,1-.51,1.23a9.07,9.07,0,0,1-2.83.37c-1.21,0-2.41.1-3.61.2a38.12,38.12,0,0,1-4.14,0c-1.41,0-2.81-.06-4.22,0-1.76.09-3.52.26-5.28.19A10.69,10.69,0,0,0,60.47,96.45Z"/><path class="cls-4" d="M85.6,89.68c.37-1.3,1.39-2.22,2-3.38,1.68-2,3.37-3.89,5-5.85s2.62-1.87,4.81-.59c1.6.94,3,2.26,4.89,2.69.15.08-.22.3.15.37,1.12.23,2,1,3.14,1.3a1.05,1.05,0,0,1,.68.67c-2,2.93-4.12,5.85-6.14,8.8-.16.22-.81.33-.44.68s.77-.08,1-.39c1-1.26,2.07-2.53,3.09-3.81s2.07-2.62,3.09-3.94c.37-.47.47.06.58.18a45.49,45.49,0,0,1,4.41,5.92c.34.54-.34.91-.6,1.27-2.18,3-4.42,5.86-6.65,8.78a2.3,2.3,0,0,1-.6.39,10.74,10.74,0,0,1-6.93,2.69,2.61,2.61,0,0,1-2.46-2.78,11.29,11.29,0,0,1,1.7-5.05c.07-.12.27-.25.15-.37s-.28,0-.41.12a7.46,7.46,0,0,1-4.55,1.14c-.39,0-.85,0-1-.54a5.31,5.31,0,0,1,2-.37A7.56,7.56,0,0,0,95.08,97c.19-.1.52-.18.41-.45s-.41-.14-.62-.09c-.65.16-1.28.36-1.93.52a5,5,0,0,1-4.56-.88,3.56,3.56,0,0,1-1.11-1.8c-.25-.79-.55-1.48-1.46-1.69-.1,0-.16-.12-.21-.21C85.26,91.46,85.68,90.57,85.6,89.68Z"/><path class="cls-5" d="M17.32,89.82c-1.37.18-1.94-1.19-3-1.54-.28-.09-.63-1.52-1.05-.06-.07.24-.27,0-.29-.11-.27-1.94-2.11-2.53-3.21-3.75C8.42,82.9,7,81.53,5.64,80.12A14.8,14.8,0,0,1,8.8,76a3.29,3.29,0,0,0,.4-.62,21.71,21.71,0,0,1,8.9-4.62c1.11.1,2.09-.47,3.19-.54a21.24,21.24,0,0,1,8.52,1,15.88,15.88,0,0,1,7.62,5.48c.29.38,1,.86.72,1.61A10,10,0,0,0,38.69,83a.81.81,0,0,1-.1.8,1.69,1.69,0,0,0-.2,2,1.35,1.35,0,0,1,.15.74.5.5,0,0,1-.13.19c-1.18.53-2.11,1.47-3.26,2a17.79,17.79,0,0,1-5.67-.69c-.57-.21-.65-.42-.38-1,.65-1.41.58-1.53-1-1.79a13.61,13.61,0,0,1-4-1.38c-.67-.34-.73-.77-.23-1.36.13-.15.29-.28.42-.44.5-.59.36-1.21-.39-1.39a21.2,21.2,0,0,1-4.08-1.56c.26-.77-.31-1.19-.78-1.57a1.42,1.42,0,0,1-.4-2c.11-.2.35-.46.09-.69s-.49,0-.73,0a1.45,1.45,0,0,0-.29.11,2,2,0,0,1-2.41-.3c-.18-.16-.41-.43-.66-.28s-.11.48-.05.72a1.49,1.49,0,0,1-.81,1.92.38.38,0,0,0-.12.09c-.18.18-.5.3-.44.59s.43.3.7.37a1.64,1.64,0,0,0,.23,0c.89.1.91.1.87,1a2.18,2.18,0,0,0,.83,2,11.26,11.26,0,0,1-.81,4.48c-.13.34-.54.7-.27,1.05s.76.16,1.16.14a4,4,0,0,0,1.25-.37c.32-.12.71-.12.68.31A6.61,6.61,0,0,1,17.32,89.82Z"/><path class="cls-6" d="M38,55.91c-.08,0-.19,0-.23.05-.18.24.11.13.13.12,1.23-.21,1.24.63,1.63,1.49.48,1.07,1,2.21,1.37,3.26a28.08,28.08,0,0,0,2.77,5,17.18,17.18,0,0,0,2.51,3.37c1,.94,1.66,2.17,2.69,3.08.42.37,1.32.24,1.35.39.18,1.21,1.32,1.22,2,1.66a28.8,28.8,0,0,0,10.27,4,106.08,106.08,0,0,0,12.16,1.32,3,3,0,0,1,.58.18,1.58,1.58,0,0,1-.43.35,5.52,5.52,0,0,1-2.07.62,34.82,34.82,0,0,0-6.38.33c-.7.06-1.42-.06-2.13,0-2.19,0-3.42,1.87-5.1,2.85a30.82,30.82,0,0,0-3.45,2.63,9.45,9.45,0,0,0-4.25-2.07c-.1,0-.79-.05-.26-.38C53.05,83,55,81.89,56.86,80.79c.07,0,.17,0,.25,0-.08,0-.16-.14-.24-.15a42.65,42.65,0,0,1-10.14-3c-2.29-.9-4-2.7-6.09-4a17.58,17.58,0,0,1-3.87-3.48c-3.31-3.72-6.73-7.36-7.92-12.44-.38-1.6.15-2.09,2.5-2.09a20.16,20.16,0,0,1,2.19.16c.5.06.77-.11.84-.61a1.84,1.84,0,0,0,1.73.44,9.37,9.37,0,0,1,1.3,0C37.65,55.62,37.94,55.57,38,55.91Z"/><path class="cls-7" d="M13.84,106.14c1.52.43,3.06.81,4.57,1.3a15.28,15.28,0,0,0,5.94.41,20.3,20.3,0,0,0,7.39-2.18c.26-.13.51-.24.25-.6-1.6-2.22-1.44-4.82-1.58-7.35a3.71,3.71,0,0,1,.71-3.2.73.73,0,0,1,.89-.29.63.63,0,0,1,.25.73,11.57,11.57,0,0,0-.11,1.66,4.19,4.19,0,0,0,0,1.83c0,.79.33,1.52.36,2.31.05.5.33.94.39,1.43a6.59,6.59,0,0,0,1.12,2.19c.36.63,1.13.83,1.54,1.4a12.84,12.84,0,0,0,4.51,2.59A14.1,14.1,0,0,0,46,109a17,17,0,0,0,9.59-4.5c.2-.18.38-.43.72-.32a21.06,21.06,0,0,1,6.12.81,17.31,17.31,0,0,1,2.43,1.14,1.79,1.79,0,0,1,1,1.41,1.68,1.68,0,0,1-1.28,1.38,35.74,35.74,0,0,1-8.29,1.31c-2.55.08-5.09.23-7.63.35-5.12.23-10.22.76-15.35.73-4.27,0-8.52-.14-12.76-.51a32.82,32.82,0,0,1-6.54-1.44C12.16,108.73,12.14,107.7,13.84,106.14Z"/><path class="cls-8" d="M86.52,21.28c-.13-1-.27-1.85,1.27-1.71s2.92-.14,4.34.06c1.71.25,1.13,1.83,1.12,2.82-.09,5.91,0,11.82.16,17.74.11,4.46,0,8.93,0,13.39,0,.79-.51.81-.89.74a4.45,4.45,0,0,0-1.27,0,20.52,20.52,0,0,1-.73-3.5,19.91,19.91,0,0,0-.51-3,22.77,22.77,0,0,1-.81-4.39c-.44-2.28-.67-4.6-1-6.91a7.33,7.33,0,0,0-.78-3.15c-.2-.33.26-.54.16-.86a5.12,5.12,0,0,1-.12-1.3,53.58,53.58,0,0,0-.84-8.76C86.59,22.09,86.63,21.68,86.52,21.28Z"/><path class="cls-8" d="M96.66,23.58a26.6,26.6,0,0,0,0-3.34c-.07-.63.16-.65.57-.65,1.39,0,2.78.11,4.15,0s2.09.34,2.09,1.89c0,8.59,0,17.19.07,25.78,0,1.79,0,3.58.09,5.36.11,1.4-.18,2.15-1.75,1.75a1.75,1.75,0,0,1-.52-1.16c0-.34-.24-.69-.15-1,.2-.69-1.13-.89-.43-1.84.4-.54-.23-1.4-.35-2.13s-.27-1.41-.41-2.12-.23-1.47-.4-2.19-.26-1.41-.38-2.12c-.32-1.91-.45-3.85-.83-5.74s-.19-4-.6-6-.57-3.85-1.07-5.73A5.87,5.87,0,0,0,96.66,23.58Z"/><path class="cls-9" d="M41.34,55.77l-3.05,0c-.15-.53.46-.84.31-1.44-.34-1.28-.2-2.63-.42-3.94s-.37-2.69-.58-4c-.28-1.79-.29-3.62-.59-5.41s-.11-3.82-.63-5.68a4.67,4.67,0,0,1,.08-1.53c0-.44,0-.8-.5-1s-.49-.52-.18-.85a2.34,2.34,0,0,0,.37-2.25,2.25,2.25,0,0,1,0-1.12c.16-.48.34-1-.3-1.41-.28-.16-.13-.44.07-.57s.31-.53.29-.87c-.09-1.33-.38-2.64-.46-4,0-.68.24-1.38-.14-2a13.39,13.39,0,0,1,4.85.08c1.46.41.79,1.86.77,2.73-.09,5.85.06,11.7.15,17.54.06,3.78-.21,7.57-.14,11.35C41.31,52.87,41.39,54.32,41.34,55.77Z"/><path class="cls-7" d="M72.33,54.85c-.3,1.92-1.74.63-2.62.93a10.07,10.07,0,0,0-.16-4.09,12.83,12.83,0,0,1-.19-1.75,2.27,2.27,0,0,0-.64-1.83.48.48,0,0,1-.14-.56,4.42,4.42,0,0,0,.07-2,7.32,7.32,0,0,0-.32-2.18A11,11,0,0,1,68,41c-.22-1.31-.06-2.63-.25-3.94-.52-3.55-.4-7.15-1-10.7A18.91,18.91,0,0,1,67,21.63a4.37,4.37,0,0,1,.27-2c1.43.15,2.88-.27,4.33.23,1,.34.54,1.14.55,1.64.08,5,.06,9.92.09,14.87s.06,9.74.09,14.61C72.32,52.26,72.32,53.55,72.33,54.85Z"/><path class="cls-8" d="M76.83,19.69c1.8,0,3.6-.33,5.38.15,1,.28.55,1.15.55,1.66.09,4.93.07,9.86.1,14.79s.07,10,.11,15A10.37,10.37,0,0,0,83,52.77c.32,2.21-1.13,1.81-2.38,1.76.38-2.52-.22-4.93-.75-7.36-.2-.87-.11-1.79-.3-2.67s-.17-2.1-.85-3a.34.34,0,0,1,0-.22,10.65,10.65,0,0,0-.37-4c-.41-2.33-.5-4.69-.76-7-.1-.87-.07-1.74-.14-2.6a21.14,21.14,0,0,1-.3-3.1A13.67,13.67,0,0,0,76.68,21C76.59,20.57,76.42,20.08,76.83,19.69Z"/><path class="cls-9" d="M62,55.77l-2.14.14A15.8,15.8,0,0,0,60,53.36c-.31-1.61-.29-3.26-.68-4.85a6.36,6.36,0,0,0-.53-1.9c-.21-.35.19-1,.07-1.53-.42-1.86-.09-3.77-.39-5.64a1.9,1.9,0,0,0-.35-1.08A.44.44,0,0,1,58,38c.07-2.49-.7-4.86-.95-7.31-.2-2-.48-4-.68-6a40.2,40.2,0,0,0-.89-4.2,1.12,1.12,0,0,0-.35-.59c.29-.7.86-.21,1.26-.23a23.22,23.22,0,0,1,4.41,0c1.8.21,1.18,1.85,1.17,2.83,0,5.08,0,10.15.09,15.23.13,5.57.07,11.14.08,16.71C62.11,54.86,62,55.32,62,55.77Z"/><path class="cls-10" d="M85.6,89.68l.15,2.79c.17.24,0,.44-.09.64a3,3,0,0,0,.23,2.37s0,.11.08.13c1,.56,1.6,1.73,3,1.77a2.52,2.52,0,0,1,1.75.63c1.77.69,3.38.16,5-.62a2.14,2.14,0,0,0,.19-.13c.43-.19,1-.68,1.3-.38s-.4.58-.6.91a12,12,0,0,0-1.66,5.36c-.1,1.38,2.09,2.45,4,2a23.52,23.52,0,0,0,5.26-2.38l-.15.42c0,.39-.27.58-.53.79a15.85,15.85,0,0,1-6.5,3.32,24.31,24.31,0,0,1-7.7.58,4,4,0,0,1-3-1.32,1.28,1.28,0,0,1-.43-.87c-1-2.44-2-4.87-2-7.56a1.08,1.08,0,0,1-.22-.93,6,6,0,0,1,.38-2.13Z"/><path class="cls-9" d="M51.82,55.61a6.35,6.35,0,0,1-3.21.18s0,0,0-.06c.61-.35,1.59-.3,1.39-1.46-.13-.72.2-1.54-.5-2.15a.44.44,0,0,1,0-.63.84.84,0,0,0,.15-.72c-.51-2.21-.5-4.51-1.08-6.71-.14-.55,0-1.14-.12-1.69a16.21,16.21,0,0,1-.2-2.19,39.07,39.07,0,0,0-.38-4c-.33-1.71-.35-3.48-.7-5.16a11.54,11.54,0,0,1-.12-3.15.87.87,0,0,0-.25-.77.88.88,0,0,1-.16-1.35,1,1,0,0,0,.17-.81,27.15,27.15,0,0,0-.54-3.1,6,6,0,0,1-.19-1.52c0-.26,0-.52.3-.65,1.54.15,3.1-.29,4.65.21,1,.35.56,1.19.57,1.73.08,4.07,0,8.14.05,12.21q0,9,.12,18C51.84,53,51.83,54.32,51.82,55.61Z"/><path class="cls-11" d="M46.44,19.62c-.26,1.71.5,3.3.63,5,0,.18.17.42.1.51-1.08,1.46.39,2.89.06,4.52-.25,1.19.36,3,.64,4.56a36.79,36.79,0,0,1,.7,6.17c0,2.79.89,5.45,1,8.2,0,1.07,1.06,2.18,0,3.25,1,.65.54,1.67.71,2.55.27,1.53-.85,1.28-1.67,1.45l-3.22,0a.46.46,0,0,1-.13-.07c.23-.47-.2-.73-.34-1.08s.17-.86.09-1.22a6.14,6.14,0,0,1-.11-1.7,6.32,6.32,0,0,0-.14-1.45c0-3.53-.07-7.05,0-10.58,0-4.36.11-8.72.15-13.09,0-2.17-.12-4.36,0-6.53C44.93,19.07,46,19.94,46.44,19.62Z"/><path class="cls-12" d="M56.34,104.13a17.6,17.6,0,0,1-9,4.86A14.84,14.84,0,0,1,41,108.8a13.31,13.31,0,0,1-5.57-2.94c.17-.24.45-.22.69-.27a8,8,0,0,0,4.82-3,3.27,3.27,0,0,1,3.07-.94,4.37,4.37,0,0,1,.78.31,8.69,8.69,0,0,0,6.87.28,8.57,8.57,0,0,0,3.4-2.56,5.83,5.83,0,0,1,1.83-1.48,1.06,1.06,0,0,1,1.1,0l.78.32a5.32,5.32,0,0,1-.78,2.89A23.93,23.93,0,0,1,56.34,104.13Z"/><path class="cls-11" d="M55.1,19.9c.61.11.62.66.71,1.07a64.66,64.66,0,0,1,1.37,9.61c.15,2,1,4,1.08,6,.13,2.26.94,4.47.53,6.79a10.14,10.14,0,0,0,.28,2.14c.1,2.2.74,4.31,1,6.49.09.82-.39,1.92.51,2.64,0,0,0,0,0,.07-.59.19-.26.95-.74,1.21-1.4,0-2.79-.11-4.19-.1-.51,0-.67-.17-.62-.63.34-1.25-.32-2.46-.11-3.71.17-.15.1-.31,0-.47,0-3.78-.05-7.56,0-11.34,0-4.33.11-8.67.15-13C55.1,24.4,55.09,22.15,55.1,19.9Z"/><path class="cls-13" d="M67.25,19.61c-.6,4.69.12,9.34.38,14,.11,1.92.52,3.82.48,5.73a11.88,11.88,0,0,0,0,2.94c.8,1.5.53,3,.79,4.52.41,2.35.8,4.71,1.11,7.07.08.62.45,1.4-.34,1.91-1.3,0-2.6.07-3.9.16-.7.06-.52-.42-.59-.77,0-3.5-.21-7-.12-10.49,0-1.94.25-4,.15-5.84-.2-4,.11-8,0-12a60.37,60.37,0,0,1,0-6.86C65.41,19.09,66.61,19.88,67.25,19.61Z"/><path class="cls-7" d="M85.77,105.69c1.71,2.54,4.35,2,6.78,2a16.9,16.9,0,0,0,11.39-4.46c2,.08,4,.11,6,.27a20.08,20.08,0,0,1,6.13,1.19c.56.23,1.08.8,1,1.31a2,2,0,0,1-1.44,1.34,43.65,43.65,0,0,1-7.22,1.57,61.46,61.46,0,0,1-12.79.56c-2.91-.19-5.85-.12-8.66-1-1-.31-2.14-.56-2.1-2.12C84.9,105.42,85.52,106,85.77,105.69Z"/><path class="cls-14" d="M76.83,19.69c.2,1.65.43,3.29.58,4.95.33,3.77.58,7.56,1,11.33.16,1.58.68,3.13.79,4.72.15,2.11.74,4.14,1,6.24S80.7,51,81.1,53a1.37,1.37,0,0,1-.45,1.49c-.76.16-1.51.32-2.27.46-.28,0-.47.09-.45.45s.3.32.53.36a7,7,0,0,1-2.55,0c-.06-3.73-.23-7.46-.14-11.18,0-1.88.18-3.8.14-5.65-.06-2.94,0-5.88,0-8.81s.14-6.16.21-9.24C76.14,19.54,76.13,19.54,76.83,19.69Z"/><path class="cls-11" d="M35.65,19.72c.91.58.23,1.43.35,2.15.22,1.34.3,2.71.49,4.07,0,.37.17.68-.38.72-.1,0-.39.29-.14.39,1,.43.45,1.13.4,1.78a12.82,12.82,0,0,0,.08,1.75c0,.59,0,1.17-.57,1.53-.16.1-.24.43-.05.43,1.41.07.86,1.12.81,1.74a27.27,27.27,0,0,0,.47,4.78c.35,4.13.87,8.25,1.35,12.37.12,1.08.39,2.15.45,3.23,0,.37-.4.77-.62,1.16l-.27.09c-1,0-2-.15-3-.09-.59,0-.62-.22-.61-.63.53-.81-.13-1.58-.1-2.4.12-3.46,0-6.93,0-10.39,0-5.26.07-10.52.09-15.79,0-2.19-.07-4.39,0-6.58C34.46,19.2,35.21,19.74,35.65,19.72Z"/><path class="cls-15" d="M38.29,86.61l.16,0a23.76,23.76,0,0,1,5-1.43,5.31,5.31,0,0,0,1.65-.53,16,16,0,0,1,5.26.89,16.19,16.19,0,0,1,5.23,3.69c-.15.23-.39.23-.62.26a6.88,6.88,0,0,0-4,2.46,9.71,9.71,0,0,1-2.3,1.89,2.32,2.32,0,0,1-2.55.1,8.09,8.09,0,0,0-4.34-1.31,2,2,0,0,1-.42-.2,17,17,0,0,1-1.88-2.89,15.16,15.16,0,0,1-1.1-2C38.18,87.18,38.06,86.91,38.29,86.61Z"/><path class="cls-14" d="M86.52,21.28a31.82,31.82,0,0,1,1.11,8.47,20.75,20.75,0,0,0,.3,3c.54,2.95.72,6,1.21,8.93a62,62,0,0,0,1.39,7.24,36.59,36.59,0,0,1,.74,5.46,16.82,16.82,0,0,0-2.84.06c-1.88.33-2.33-.5-2.24-2.21.12-2.25,0-4.51,0-6.77,0-4.77,0-9.54.1-14.32C86.36,27.85,86.45,24.57,86.52,21.28Z"/><path class="cls-14" d="M96.66,23.58a23,23,0,0,1,1.08,4.48c.66,3,.63,6,1.1,9,.53,3.45,1,6.9,1.68,10.33a13.07,13.07,0,0,1,.57,2.82c-.07,1.5.71,2.78.81,4.2a21.17,21.17,0,0,0-4.84,0c-.45.08-.51-.14-.52-.5,0-2.74-.06-5.48-.08-8.22,0-2,0-3.93,0-5.9q.06-6.63.13-13.27C96.6,25.52,96.64,24.55,96.66,23.58Z"/><path class="cls-7" d="M18.1,70.75c-1.23.54-2.44,1.12-3.69,1.58a20,20,0,0,0-4.63,2.79,2.74,2.74,0,0,1-.58.25c-.26-.38-.5-.76-.77-1.12-.78-1.06-.81-1.84.48-2.64.86-.54-.34-1-.51-1.5a8.67,8.67,0,0,1-.76-4.19C7.8,64.74,9.86,64,11,64.74a9.19,9.19,0,0,1,3.26,3.73c.06.14.23.39.29.37C16.35,68.27,17.24,69.47,18.1,70.75Z"/><path class="cls-16" d="M83.88,95.07l-.16,3.06A10.94,10.94,0,0,1,80.49,98c-.15-.24-.3-.12-.44,0a2.46,2.46,0,0,1-1.24.19c-3.08.06-6.13-.2-9.2-.35-2.76-.13-5.56.13-8.22-.91a10,10,0,0,1-.92-.48c.39-.62,1.1-.57,1.65-.58,4-.06,8.06-.46,12.11-.23a61.7,61.7,0,0,0,6.79-.3C82,95.29,82.93,95.16,83.88,95.07Z"/><path class="cls-7" d="M45.07,84.61c0,.72-.59.5-1,.61l-5.37,1.46c-.08,0-.18-.07-.27-.11-.3-1-1.18-2,.11-3.09.27-.23-.39-1.5-.56-2.3a3.54,3.54,0,0,1,.15-2.9c2-1.15,4.23,0,4.69,2.53.15.85.29,1.55,1.36,1.8S44.5,84.05,45.07,84.61Z"/><path class="cls-15" d="M99.92,18.24c-1.44.2-1.76-.69-1.83-1.58a12.71,12.71,0,0,1,.73-5.29c.28-.77.94-.88,1.69-.89,1.24,0,1.36,1.07,1.59,1.77a9.3,9.3,0,0,1,.55,3.53C102.54,17.49,101.66,18.24,99.92,18.24Z"/><path class="cls-15" d="M71.69,16.24a2,2,0,0,1-1.08,2.42,3.28,3.28,0,0,1-3.25-.33c-.46-.29-.25-.72-.26-1.11a11.56,11.56,0,0,1,1.06-5,1.75,1.75,0,0,1,1.66-1.16c.92,0,1,.67,1.07,1.11C71.23,13.51,71.9,14.78,71.69,16.24Z"/><path class="cls-15" d="M80,17.9c-2.43-.23-3-.64-2.6-3.36a20.48,20.48,0,0,1,.86-3.32c.26-.79.37-1.54,1.46-1.5s1.08.9,1.25,1.55a30.53,30.53,0,0,1,.89,4.31C82,16.9,81.48,17.91,80,17.9Z"/><path class="cls-15" d="M38.61,18.52a3.86,3.86,0,0,1-.89.07c-2.33-.35-2.62-1-2-3.4a21.24,21.24,0,0,1,1.07-3.51c.2-.46.36-1,1-1s.78.5,1,.91c.85,1.83,1.85,3.63,1.41,5.77A1.51,1.51,0,0,1,38.61,18.52Z"/><path class="cls-9" d="M41.69,92.43a6.86,6.86,0,0,1,4.24,1.18c1.58,1,2.81,0,3.9-1,1.4-1.26,2.53-2.85,4.53-3.28.39-.08.8-.13,1.2-.19l1.18,1.28a7.28,7.28,0,0,0-3.6,2.34,8.25,8.25,0,0,1-5.52,2.59,7,7,0,0,1-3.92-.92,8.55,8.55,0,0,1-1.48-.89C42,93.21,41.43,93,41.69,92.43Z"/><path class="cls-15" d="M43.7,94.28c3.88,1.78,7.09.75,9.91-2.25.81-.87,1.73-1.77,3.13-1.56a5.49,5.49,0,0,1,1.12,2.12c.07.31-.2.33-.37.35a10.41,10.41,0,0,0-5.7,2.9,8.15,8.15,0,0,1-2.66,1.77.6.6,0,0,1-.23,0,14.17,14.17,0,0,1-5-2.57C43.46,94.67,43.46,94.62,43.7,94.28Z"/><path class="cls-10" d="M106.33,84.89l-3.83-1.72c-.35-.15-.37-.34-.14-.62,1.22-1.9,2.41-3.82,3.7-5.68.41-.59,1-.26,1.39.2a1.13,1.13,0,0,1,.2.87,17.8,17.8,0,0,0-.1,5,2.54,2.54,0,0,1-.1,1.28C107.25,84.79,106.67,84.62,106.33,84.89Z"/><path class="cls-15" d="M87.77,15.48c.45-1.24-.2-3.24,1.53-4.41.82-.56,1.57-.48,1.84.73s.64,2.29.92,3.45c.38,1.59-.26,2.56-1.8,2.79C88.57,18.29,87.89,17.69,87.77,15.48Z"/><path class="cls-15" d="M58.42,18.2c-1.31,0-2.06-1.84-1.76-3.31A30.65,30.65,0,0,1,58,11.35c.13-.41.52-.52.93-.55s.88,0,1.06.53a13.49,13.49,0,0,1,.9,4.89C60.84,17.92,59.47,18.06,58.42,18.2Z"/><path class="cls-15" d="M50.19,14.49c-.13,1.24.19,2.58-1.5,3-2,.43-2.54,0-2.55-2A7.56,7.56,0,0,1,48,10.35c.59-.7,1.31-.45,1.63.41A10.57,10.57,0,0,1,50.19,14.49Z"/><path class="cls-15" d="M58.64,93.82l.3,2.63,0,.48c-.3.27-.67.19-1,.21a8.41,8.41,0,0,0-2.93.59,3.06,3.06,0,0,0-1.49,1.16.31.31,0,0,1-.33,0c-.58-.3-1.31-.21-1.79-.75-.05-.43.3-.55.58-.7a8.22,8.22,0,0,0,2.15-1.8,5.32,5.32,0,0,1,3.67-2.11,1.89,1.89,0,0,1,.75.1Z"/><path class="cls-9" d="M58.5,93.67a6.4,6.4,0,0,0-4.76,2.72,10.86,10.86,0,0,1-2.37,1.75.4.4,0,0,1-.33.11c-.65-.27-1.41-.24-2-.73,2.89-1.72,5.1-4.66,8.8-4.93Z"/><path class="cls-17" d="M107.45,84.27a22.3,22.3,0,0,1,0-7.2l3.15,2.72c.41.36.3.67,0,1C109.51,82,108.48,83.12,107.45,84.27Z"/><path class="cls-9" d="M53.37,98.9c.41-1.41,1.72-1.51,2.81-1.79a13,13,0,0,1,2.73-.18c-.06.5.3,1-.15,1.52-.77.11-1.6-.69-2.32.23a7.37,7.37,0,0,1-1.2,1A1.47,1.47,0,0,1,53.37,98.9Z"/><path class="cls-18" d="M44.76,50.24c.6.52-.06,1.5.71,2-.53,0-.46.46-.36.65.24.47.42.85-.17,1.17.22.22-.27,1,.57.75.1,0,.23.08.34.13a1.24,1.24,0,0,1-.17.27c-.18.16-.5.24-.29.59l-.45.17A36.08,36.08,0,0,1,44.76,50.24Z"/><path class="cls-19" d="M80.05,98c.09-.25.14-.54.51-.49l-.07.48Z"/><path class="cls-20" d="M55,51c.24.17.5.34,0,.47Z"/><path class="cls-8" d="M17.32,89.82c.16-1,.32-1.94.47-2.9.05-.38,0-.55-.45-.33a3.07,3.07,0,0,1-1,.4c-.64.11-1.42.36-1.88-.14s.25-.94.44-1.39a18.86,18.86,0,0,0,.92-4.39,5.35,5.35,0,0,1,.9-1.82c.05-.09.14-.19.23-.19,1,0,1.89-.39,2.83,0a48.7,48.7,0,0,1,4.81,1.66c.63.29.47,1.17-.14,1.66-.88.72-.94,1.13.26,1.6a15.83,15.83,0,0,0,4,1.21c1.69.19,1.18,1.14.65,1.91-.42.61-.29.64.31.85,1.81.67,3.7.5,5.56.68.06.44-.26.73-.5,1a8.67,8.67,0,0,0-2.21,3.64.72.72,0,0,1-.25.39c-.86.47-1.78,0-2.67.16-.08,0-.17,0-.2-.09-.37-.67-.83-.51-1.32-.16a4.13,4.13,0,0,1-2.55-.26,6.53,6.53,0,0,0-2.2-.24c-.38,0-.71,0-.47-.56.16-.2.41-.2.62-.27s.28-.08.21-.25-.25-.17-.39-.08-.23.45-.44.61A4.62,4.62,0,0,1,20.76,92a19.15,19.15,0,0,1-3.41-1.51.48.48,0,0,1-.19-.23Z"/><path class="cls-21" d="M29.49,93.67l2.77-.14a.57.57,0,0,1-.31.77c-1.66.63-1.2,2.2-1.54,3.42a26.78,26.78,0,0,1-8.3,3.78,10.49,10.49,0,0,1-5.12-.4c-.53-.12-.46-.58-.19-1a16,16,0,0,0,2.43-5.34,4.43,4.43,0,0,0,.06-.51,2.69,2.69,0,0,0-.57,0c-.86.28-2,1-2.58.33s.29-1.62.46-2.48a18.35,18.35,0,0,1,.56-1.88,39.49,39.49,0,0,0,5.76,2.15h0c.22,1,1,.15,1.5.38.77.35,1.73.27,2.57.71.16.08.74-.18,1.15-.13C28.54,93.68,29.05,93.54,29.49,93.67Z"/><path class="cls-16" d="M90.67,98a18.17,18.17,0,0,1-3.23-.92,4.63,4.63,0,0,1-1.82-1.72,2.55,2.55,0,0,1,.13-2.9c1.12-.16,1.47.6,1.66,1.47.57,2.65,3.35,3.31,5.38,2.8.76-.19,1.5-.46,2.27-.62.27-.06.8,0,.84.18.1.33-.13.6-.51.79A12,12,0,0,1,90.67,98Z"/><path class="cls-12" d="M32,94.3l.31-.77c.34-2,1.77-3.43,3-4.94a11.75,11.75,0,0,1,3-2c.37,1.59,1.43,2.82,2.17,4.21.27.51.61,1,.92,1.48-.16.38-.53.39-.84.43a6.37,6.37,0,0,0-4.12,2.56,6.42,6.42,0,0,1-2.62,2.3,1.32,1.32,0,0,1-1.85-1Z"/><path class="cls-22" d="M19.8,79c-.83-.06-1.65.12-2.48.14s-.81,1.38-1.48,1.91c-1.14-.18-.95-1.11-.93-1.83s-.1-.89-.79-.83c-.44,0-1,0-1.19-.51s.38-.71.64-.81c1.38-.53.8-1.61.8-2.52,0-.19-.17-.44.11-.52a.6.6,0,0,1,.45.17,2.55,2.55,0,0,0,3.38.43.68.68,0,0,1,.85.13c.32.32,0,.48-.16.7-.72,1.1,0,1.74.72,2.43C20,78.16,20.88,78.58,19.8,79Z"/><path class="cls-12" d="M51.09,98.16l.28,0,1.87.62a13.32,13.32,0,0,1-2.76,2.65,3.17,3.17,0,0,1-3.55.25,7.45,7.45,0,0,0-5.75-.52,4.52,4.52,0,0,0-3.08,2.35c0,.1-.08.23-.18.25-.83.13-1.32.83-2,1.2a1.53,1.53,0,0,1-1.93-.46c-.77-.52-.86-1.42-1.21-2.18.31-.32.72-.21,1.09-.23a6.52,6.52,0,0,0,4.89-2.33,15.52,15.52,0,0,1,1.56-1.58,3.14,3.14,0,0,1,4.22-.27,6,6,0,0,0,3.65.94,10.53,10.53,0,0,0,2-.49A2.53,2.53,0,0,1,51.09,98.16Z"/><path class="cls-23" d="M34,104.48c1,.53,1.72.27,2.76-.37,1.2-.74,1.8-2,3.08-2.64a7.78,7.78,0,0,1,7.18,0,3.21,3.21,0,0,0,3.74-.5c.85-.71,1.66-1.46,2.5-2.19l.13.14a3.24,3.24,0,0,0,1.87.79,8.36,8.36,0,0,1-10.43,2.46c-1.56-.77-2.68-.39-3.88.87-1.46,1.53-3.18,2.86-5.51,2.84C35,105.32,34.16,105.25,34,104.48Z"/><path class="cls-12" d="M43.7,94.28c.58,1.4,2,1.67,3.13,2.31a22.76,22.76,0,0,0,2.09.91,1.74,1.74,0,0,1-2.16.58,15.79,15.79,0,0,1-1.66-.8,5.52,5.52,0,0,0-4.53-.46,7.86,7.86,0,0,0-3,1.92A11.31,11.31,0,0,1,35,100.89a2.37,2.37,0,0,1-2.39.31.57.57,0,0,1-.26-.27L32,98.45a.81.81,0,0,1,.79-.17,5.47,5.47,0,0,0,4.91-2c.76-.77,1.35-1.69,2.16-2.41a1.88,1.88,0,0,1,2.43-.38Z"/><path class="cls-23" d="M32.31,100.93c1.7.78,2.89-.28,3.95-1.28C38,98,39.74,96.34,42.39,96.32a6.32,6.32,0,0,1,3.48,1.1,2.55,2.55,0,0,0,3.05.08.34.34,0,0,0,.14,0,4.61,4.61,0,0,1,2,.64A6.17,6.17,0,0,1,45,98.4C42.25,96.92,41.47,97,39,99.75a7.23,7.23,0,0,1-6.26,2.55Z"/><path class="cls-23" d="M42.29,93.5c-1.46-.43-2.39.44-3.15,1.45-1.8,2.38-3.86,4.16-7.14,3.5A2.42,2.42,0,0,1,32,96.6c.92,1.21,2.05,1.12,3.08,0,1.23-1.38,2.23-3,4.12-3.7.72-.24,1.48-.38,2.23-.56l.31.13Z"/><path class="cls-24" d="M10.13,66.5A6,6,0,0,1,12,68.92c.09.18.77.36,0,.79-1,.61-1.39.28-1.65-.7-.16-.63-.43-1.23-.59-1.86C9.74,66.9,9.69,66.57,10.13,66.5Z"/><path class="cls-25" d="M39.37,79.81a.62.62,0,0,1,.1-.88c.3-.22.35.25.55.37,1.2.75,1.31,2.06,1.56,3.24.13.63-.6.49-1,.64-.3-.09-.32-.36-.4-.6C39.92,81.66,39.61,80.74,39.37,79.81Z"/><path class="cls-26" d="M39.37,79.81l1.23,3.37c-.16,0-.37.43-.46-.07C39.94,82,39.24,81,39.37,79.81Z"/><path class="cls-27" d="M20.28,89.34c-.43.1-.72,0-.74-.44,0-.63.58-.45.9-.56.14,0,.6.07.54.46S20.78,89.56,20.28,89.34Z"/><path class="cls-28" d="M17.65,83.5c-.36,0-.73-.15-.69-.39.09-.57.64-.48,1.08-.56s.4.12.38.37C18.39,83.44,17.94,83.41,17.65,83.5Z"/><path class="cls-2" d="M25.77,89.51a.47.47,0,0,1-.65-.49c0-.45.44-.41.73-.45s.66.11.65.46S26.18,89.6,25.77,89.51Z"/><path class="cls-29" d="M22.92,92.41c-.08-.46-.12-.87.56-.9.39,0,.66.18.61.49C24,92.76,23.35,92.36,22.92,92.41Z"/><path class="cls-30" d="M21.39,83.66c-.12-.1-.55.23-.43-.32.07-.3,0-.68.49-.6.3.05.71.05.71.46S21.78,83.69,21.39,83.66Z"/><path class="cls-31" d="M29.49,93.67c-.5.15-1.06.55-1.35-.3C28.78,92.58,29.22,92.75,29.49,93.67Z"/><path class="cls-32" d="M23.17,96.3a.6.6,0,0,1,.85.63c0,.47-.49.56-.88.58s-.79,0-.77-.46S22.59,96.13,23.17,96.3Z"/><path class="cls-33" d="M52.25,100.46l-.19-.15a.72.72,0,0,1,.2-.19s.1,0,.15.07Z"/></g></svg>