<?xml version="1.0" ?><svg width="340px" height="340px" viewBox="0 0 340 340" id="icons" xmlns="http://www.w3.org/2000/svg"><title/><path d="M191.077,120.945l-12.162,4.944-7.859,4.29c-4.08,2.449-8.429,5.129-12.635,7.847a29.884,29.884,0,0,0-11.315,13.494c-3.579,8.485-9.156,22.1-13.39,34.275a31.747,31.747,0,0,1-4.664,8.751c-6.556,8.658-22.4,27.62-39.809,34.173H84.574V330h85.873L205.71,140.263Z" style="fill:#535f70"/><path d="M157.54,215.42V330h11.782l36.256-188.853-8.2,1.353s-16.573,17.522-34.457,51.226A46.3,46.3,0,0,0,157.54,215.42Z" style="fill:#363b42"/><path d="M205.71,140.263l-15.176-20.717-11.619,6.343c-.163,14,4.916,27.64,23.739,34.851l.638-4.271Z" style="fill:#e9ebfc"/><path d="M202.654,160.74l2.924-19.593-8.2,1.353s-3.21,3.4-8.325,10.063A43.982,43.982,0,0,0,202.654,160.74Z" style="fill:#acb9d4"/><path d="M213.741,123.724l-13.59,24.349s-17.136,25.242-28.17,47.537a44.634,44.634,0,0,0-4.594,19.806V330H302.461S302,243.8,281.005,212.959a52.177,52.177,0,0,1-6.666-13.691c-4.02-12.77-12.642-36.937-24.767-53.527a37.049,37.049,0,0,0-10.85-9.807A166.78,166.78,0,0,0,213.741,123.724Z" style="fill:#ffb655"/><path d="M186.561,101.872v25.857c0,11.591,13.59,20.344,13.59,20.344s8.843-11.444,13.59-20.344V101.872Z" style="fill:#ffc4b6"/><polygon points="85.053 249.357 102.831 246.015 113.538 330 81.092 330 85.053 249.357" style="fill:#363b42"/><rect height="247.692" style="fill:#ea9d81" width="16.05" x="72.029" y="82.308"/><rect height="25.877" style="fill:#ffcb57" width="16.05" x="72.029" y="56.43"/><path d="M79.574,10a26.165,26.165,0,1,0,26.165,26.165A26.164,26.164,0,0,0,79.574,10Zm0,36.628A10.464,10.464,0,1,1,90.038,36.165,10.464,10.464,0,0,1,79.574,46.628Z" style="fill:#ffcb57"/><path d="M47.924,81.744a10.524,10.524,0,0,1-6.8-2.327c-7.3-5.971-2.523-19.669,5.968-30.115,7.623-9.38,15.493-14.077,23.451-13.934a4,4,0,0,1-.134,8c-5.247-.09-11.2,3.708-17.109,10.981-7.831,9.634-8.546,17.7-7.111,18.876a3.211,3.211,0,0,0,2.515.464c3.885-.536,9.109-4.489,12.7-9.615a4,4,0,1,1,6.549,4.594C62.957,75.8,56,80.759,49.8,81.613A13.679,13.679,0,0,1,47.924,81.744Z" style="fill:#ff9e1f"/><path d="M258.21,211.547c-7.253.712-14.115,1.288-20.44,1.676,3.458-4.091,3.832-7.466,3.467-9.671a3.4,3.4,0,0,0-3.362-2.825h-5.467l-38.9,1.416v6.145l-8.3-2.531a25.437,25.437,0,0,0,2.526,9.9,5.112,5.112,0,0,1-.1,4.828,20.3,20.3,0,0,0-1.073,17.591c4.506,12.016,18.278,12.507,18.278,12.507h0a7.621,7.621,0,0,1,6.042,7.163c1.309,35.67.1,72.252.1,72.252h31.392c0-34.193-1.8-57.55-3.406-71.625h0l-.027-.22c-.358-3.12-.706-5.775-1.023-7.985-1.217-9.087-3.312-23.4-5.3-30.657,5.338-.794,16.326-2.546,26.111-4.853A1.582,1.582,0,0,0,258.21,211.547Z" style="fill:#e87b31"/><path d="M110.461,79.692c-6.746,0-15.144-5.018-22.223-13.727-5.767-7.1-9.32-15-9.5-21.131a4,4,0,0,1,8-.24c.129,4.31,3.158,10.718,7.716,16.325,7.3,8.979,15.028,11.873,17.582,10.441.214-.12.353-.458.412-1,.341-3.14-2.466-9.2-7.753-13.9a4,4,0,0,1,5.318-5.977c6.894,6.135,11.069,14.471,10.388,20.742a8.961,8.961,0,0,1-4.452,7.118A11.059,11.059,0,0,1,110.461,79.692Z" style="fill:#ff9e1f"/><path d="M234.875,200.959a6.973,6.973,0,0,0-5.377-2.4l-6.613-.523a152.523,152.523,0,0,0-24.078,0l-6.544.52a7.055,7.055,0,0,0-5.857,2.938,6.836,6.836,0,0,0-.154,7.519,28.3,28.3,0,0,0,7.435,7.874,29.511,29.511,0,0,0,34.318,0,28.282,28.282,0,0,0,7.434-7.874A6.844,6.844,0,0,0,234.875,200.959Z" style="fill:#63697c"/><path d="M186.561,101.872v15.334c2.044,2.357,6.578,6.717,14.63,10.582a5.078,5.078,0,0,1,2.131,7.282c-2.683,4.276-3.157,4.044-7.706,9.407a38.487,38.487,0,0,0,4.535,3.6l10.761-13.945a14.245,14.245,0,0,0,2.963-9.1l-.134-4.8V101.872Z" style="fill:#ea8b7f"/><path d="M179.393,94.824s-10.943-.137-13.953-7.8,0-17.236,0-17.236h13.953Z" style="fill:#ea8b7f"/><path d="M220.91,94.824s10.943-.137,13.952-7.8,0-17.236,0-17.236H220.91Z" style="fill:#ea8b7f"/><path d="M173.972,71.323l.966,17.845.218,1.982a21.953,21.953,0,0,0,3.374,9.737c7.259,10.972,21.621,10.972,21.621,10.972s14.363,0,21.621-10.972a21.954,21.954,0,0,0,3.375-9.737l.236-2.143.948-17.684Z" style="fill:#ffc4b6"/><path d="M174.179,83.73c15.416,1.195,34.258,1.946,51.91.742l.718-13.149H173.5Z" style="fill:#ea8b7f"/><path d="M196.666,13.931c-10.639,3.573-43.652,17.135-71.293,54.874a2.119,2.119,0,0,0,1.32,3.348,434.428,434.428,0,0,0,51.574,5.88s14.3.032,21.884.032a436.336,436.336,0,0,0,73.088-6.3c1.547-.28,1.7-1.731.774-3-23.8-32.5-64.729-52.729-64.729-52.729-2.264-.919-4.171-1.607-5.647-2.1A10.915,10.915,0,0,0,196.666,13.931Z" style="fill:#efab95"/><path d="M274.929,68.805c-23.812-32.513-51.6-47.072-65.646-52.769,6.483,5.116,26.151,22.1,37.491,40.776A7.053,7.053,0,0,1,242.8,67.248c-10.16,3.022-30.525,7.814-64.529,10.784,6.948.38,14.3.612,21.884.612a435.468,435.468,0,0,0,73.459-6.49A2.12,2.12,0,0,0,274.929,68.805Z" style="fill:#d36f54"/><path d="M231.656,52.657a2,2,0,0,1-1.886-1.334,20.676,20.676,0,0,0-1.956-4.035,2,2,0,0,1,3.338-2.2,24.76,24.76,0,0,1,2.39,4.907,2,2,0,0,1-1.886,2.667Z" style="fill:#d36f54"/><path d="M224.911,53.058a2,2,0,0,1-1.814-1.25,19.568,19.568,0,0,0-2.061-3.9,2,2,0,0,1,3.205-2.393,23.1,23.1,0,0,1,2.564,4.794,2,2,0,0,1-1.894,2.75Z" style="fill:#d36f54"/><path d="M166.911,53.058a2,2,0,0,0,1.814-1.25,19.536,19.536,0,0,1,2.062-3.9,2,2,0,0,0-3.205-2.393,23.042,23.042,0,0,0-2.564,4.794,2,2,0,0,0,1.893,2.75Z" style="fill:#d36f54"/><path d="M216.264,34.258a2,2,0,0,1-1.774-1.046,21.122,21.122,0,0,0-2.567-3.681,2,2,0,0,1,2.952-2.7,24.777,24.777,0,0,1,3.13,4.471,2,2,0,0,1-1.741,2.954Z" style="fill:#d36f54"/><path d="M212.8,65.384a2,2,0,0,1-1.978-1.727,19.567,19.567,0,0,0-1.041-4.287,2,2,0,0,1,3.693-1.535,22.932,22.932,0,0,1,1.31,5.277,2,2,0,0,1-1.709,2.254A2.128,2.128,0,0,1,212.8,65.384Z" style="fill:#d36f54"/><path d="M206.163,66.369a2,2,0,0,1-1.978-1.727,19.5,19.5,0,0,0-1.041-4.287,2,2,0,0,1,3.693-1.535,22.979,22.979,0,0,1,1.311,5.277,2,2,0,0,1-1.985,2.272Z" style="fill:#d36f54"/><path d="M151.7,65.384a2,2,0,0,0,1.978-1.727,19.5,19.5,0,0,1,1.041-4.287,2,2,0,0,0-3.693-1.535,22.961,22.961,0,0,0-1.311,5.277,2,2,0,0,0,1.709,2.254A2.155,2.155,0,0,0,151.7,65.384Z" style="fill:#d36f54"/><path d="M158.337,66.369a2,2,0,0,0,1.979-1.727,19.429,19.429,0,0,1,1.041-4.287,2,2,0,0,0-3.693-1.535,22.979,22.979,0,0,0-1.311,5.277,2,2,0,0,0,1.984,2.272Z" style="fill:#d36f54"/><path d="M191.885,88.294a2.817,2.817,0,0,1-1.442-.4,12.515,12.515,0,0,0-2.9-1.219,2.835,2.835,0,0,1,1.53-5.46,18.07,18.07,0,0,1,4.254,1.8,2.836,2.836,0,0,1-1.447,5.275Z" style="fill:#d3625f"/><path d="M208.418,88.294a2.836,2.836,0,0,1-1.448-5.275,18.079,18.079,0,0,1,4.254-1.8,2.835,2.835,0,1,1,1.53,5.46A12.485,12.485,0,0,0,209.86,87.9,2.817,2.817,0,0,1,208.418,88.294Z" style="fill:#d3625f"/><path d="M136.011,239.993l-3.161,3.824a20.494,20.494,0,0,0-4.7,13.055V330h10.333l-3.429-74.334a17.116,17.116,0,0,1,.954-6.479l2.7-7.667A1.575,1.575,0,0,0,136.011,239.993Z" style="fill:#363b42"/><path d="M88.078,82.308H72.029v5.986h5.12a3.943,3.943,0,0,1,3.943,3.942V225.047a6.742,6.742,0,0,1-5.7,6.661l-3.359.524V330H88.078Z" style="fill:#d36f54"/><path d="M78.434,237.662H94.478a8.353,8.353,0,0,1,8.353,8.353v5.171a7.956,7.956,0,0,1-7.955,7.956H85.064Z" style="fill:#ea8b7f"/><path d="M72.341,237.662h11.8A11.138,11.138,0,0,1,95.279,248.8v12.994a11.138,11.138,0,0,1-11.138,11.138h-11.8a5.436,5.436,0,0,1-5.436-5.436V243.1A5.436,5.436,0,0,1,72.341,237.662Z" style="fill:#ffc4b6"/><path d="M228.005,216.894a28.282,28.282,0,0,0,7.434-7.874,6.844,6.844,0,0,0-.564-8.061,6.973,6.973,0,0,0-5.377-2.4h-1.97c1.492,1.651,4.435,6.264-1.971,12.314-6.623,6.256-24.193,6.811-30.694,6.794A29.507,29.507,0,0,0,228.005,216.894Z" style="fill:#3a4860"/><path d="M226.333,224.452a5.517,5.517,0,0,0-5.595-3.388,96.269,96.269,0,0,1-20.956-.218c-5.474-.763-10,4.624-8.5,10.319q.139.53.319,1.089a7.855,7.855,0,0,0,4.8,5.021c4.181,1.49,12.881,3.574,29.684,4.2,0,0,1.7-.1,3.866-.2A49.1,49.1,0,0,0,226.333,224.452Z" style="fill:#ffc4b6"/><path d="M195.223,203.739c-.8-.2-.8-2.031.01-2.19,3.632-.719,4.934-1.588,15.291-1.588A59.88,59.88,0,0,1,225.7,201.47c.817.153.831,2.019.015,2.19C219.241,205.022,207.059,206.729,195.223,203.739Z" style="fill:#3a4860"/></svg>