<svg width="120px" height="120px" viewBox="0 0 120 120" xmlns="http://www.w3.org/2000/svg"><path d="m103.36 82.75c0-1.18.08-2.36.11-3.54 0-.22.12-.3.32-.28a38 38 0 0 1 7.58 1.65 28.28 28.28 0 0 1 4.63 2.09c1.39.78 2.85 1.6 3.33 3.26a5.24 5.24 0 0 1 -1.69 5.4 48.36 48.36 0 0 1 -4.88 3.28 11 11 0 0 1 -3 1.29c-1.55.31-2.87 1.21-4.42 1.47-1 .17-2.09.47-3.13.73-.63.16-1.24.41-1.88.51-.44.07-1 .25-1.35-.16 0 0-.1 0-.13 0a4.15 4.15 0 0 1 -3.77.89c-.25 0-.54.35-.94.33s-.59.08-.89-.17c-.45-.38-.2.33-.48.36a15.73 15.73 0 0 0 -2.66.33 13.07 13.07 0 0 0 -1.84.24 2.22 2.22 0 0 1 -1.85 0c-.06 0-.21 0-.22 0-.51 1-1.43.3-2.13.44a25.09 25.09 0 0 1 -3.14.27c-.21 0-.44.17-.62-.11s-.36-.31-.4-.28c-.28.22.11.26.12.38a.38.38 0 0 1 -.26.25c-.58 0-1.17.05-1.76.07-.2 0-.35 0-.37-.28 0-.06-.1-.18-.15-.17a.29.29 0 0 0 -.21.15c-.45.68-1 .82-1.53.14a.28.28 0 0 0 -.21 0c-.34.77-1 .61-1.66.65-2.25.13-4.5.34-6.75.52l-6.53.51a7.67 7.67 0 0 0 -1.17.17c-.39.1-.68.08-.79-.38-.4.55-.82.62-1.27.06-.23 1.19-1.14.33-1.66.44a10.78 10.78 0 0 1 -3.54.07 13.77 13.77 0 0 1 -2.35-.27c-.51-.16-1.33.21-2 .24a9.25 9.25 0 0 1 -1.73 0c-1.41-.29-2.8 0-4.2-.23a32.68 32.68 0 0 0 -4.09-.17c-1.28 0-2.57 0-3.86 0-.73 0-1.45-.09-2.17-.14-2.6-.21-5.19-.41-7.78-.67-.42 0-.8-.55-1.28-.26-.32.19-.58.51-.44-.2-.42.06-.33-.42-.51-.51-.46-.23-.2.46-.38.41-.83-.25-1.85.06-2.44-.86-.12-.19-.17 0-.2.08-.18.63-.62 0-.9.17-.09.06-.14-.06-.07-.16s.13-.14.11-.17-.15-.25-.22-.24a.26.26 0 0 0 -.25.33c0 .15.09.27-.09.36s-.14-.18-.25-.21a7.65 7.65 0 0 1 -1.35-.35c-1.19-.53-2.52-.45-3.73-1-2-.85-4.19-1.27-6.21-2.13a7.67 7.67 0 0 1 -2.34-1.58c-.67 0-.91-.58-1.27-1a16.18 16.18 0 0 0 -1.43-1.53c-.65-.55-.44-1.32-.67-2v-.33a5.59 5.59 0 0 1 1.54-3.52c.69-.61 1.38-1.21 2-1.84 1.29-1.16 2.98-1.55 4.39-2.46a15.67 15.67 0 0 1 3.13-1 15.66 15.66 0 0 1 2.5-1c1.21-.17 2.31-.72 3.52-.84h.1c.14-1 .79-.15 1.19-.31a10.63 10.63 0 0 1 2.05-.4c.51.42.47.86-.11 1.28a.1.1 0 0 1 -.09 0h-.1s.06 0 .08 0 .33-.09.43.12a.31.31 0 0 1 -.1.43s-.16 0 0 .1a.89.89 0 0 1 .07 1.18 35.59 35.59 0 0 1 -3.67 1.17 1.37 1.37 0 0 0 -.52.16 18.71 18.71 0 0 1 -2.52.86 20.48 20.48 0 0 0 -4.34 1.83 6.41 6.41 0 0 0 -2.28 1.88 3.35 3.35 0 0 0 .55 3.8 15.71 15.71 0 0 0 2.71 1.76.8.8 0 0 0 .26.09c1.55.3 3 .91 4.56 1.24.68.15 1.36.26 2 .41a1.9 1.9 0 0 1 1.24.5.18.18 0 0 0 .19.07 9.08 9.08 0 0 1 3.4.36c1.2.19 2.4.29 3.6.46a28.81 28.81 0 0 1 3.06.41 7.69 7.69 0 0 0 1.45.09c.81 0 1.62.09 2.42.16 1.6.13 3.21.15 4.81.2s3.34.16 5 .22a9.44 9.44 0 0 1 1.51.18c.3.07.57-.08.86 0a33.49 33.49 0 0 0 3.47.07 21.63 21.63 0 0 0 3.59-.16 2.64 2.64 0 0 1 1 0c.68.16 1.36-.2 2 0a19.37 19.37 0 0 1 3.39-.33 3.46 3.46 0 0 1 1.2 0c.53.12 1-.25 1.48-.25 1.12 0 2.24-.17 3.36-.22.27 0 .55 0 .7.28v.05c.09-.61.52-.36.86-.34v.12s0-.06 0-.08a14.11 14.11 0 0 1 2.25-.16 9.64 9.64 0 0 0 1.74-.15 27.67 27.67 0 0 0 2.88-.19.76.76 0 0 1 .68.11c.13.11.22.06.33 0a.45.45 0 0 1 .31-.08 11.13 11.13 0 0 0 2.55-.17c1.59 0 3.13-.38 4.71-.45 1.07 0 2.1-.29 3.16-.38a.58.58 0 0 1 .56.24c.17.23.35.39.44-.06a.41.41 0 0 1 .52-.35 2.64 2.64 0 0 0 1-.11.87.87 0 0 1 .86.11s0 .18.1 0c.15-.36.51-.35.8-.36.64 0 1.25-.2 1.88-.27.3 0 .58-.08.76.24s.27.13.36 0a1.12 1.12 0 0 1 1-.53 25.71 25.71 0 0 0 4.1-.76 1.4 1.4 0 0 1 .86 0c.15.06.23 0 .34-.11.26-.15.6-.29.82-.14s.46 0 .68-.13a2 2 0 0 1 1-.39 10.51 10.51 0 0 1 1.86-.23c.25 0 .37.1.32.37 0 0-.1.09 0 .17s.08-.08.1-.13c.43-1.1 1.48-1.09 2.39-1.32 1.14-.28 2.27-.58 3.41-.88a14.74 14.74 0 0 0 3.5-1.53 5.73 5.73 0 0 0 2.21-2.13 1.64 1.64 0 0 0 -.75-2.16c-.27-.1-.37-.33-.56-.49a10.14 10.14 0 0 0 -2.18-1.3 32.08 32.08 0 0 0 -3.69-1.14 2.47 2.47 0 0 0 -2.18.15 1.93 1.93 0 0 1 -1.77-.18z" fill="#facbd7"/><path d="m30.1 14.51c.51 1.54.94 3.15 2.8 3.66.11 0 .18.17.27.26a3.84 3.84 0 0 0 -.35.18 4.84 4.84 0 0 0 -1.82 3.39c0 .24.07.54-.27.63s-.45-.23-.51-.4a6 6 0 0 0 -3.43-3.54.22.22 0 0 1 -.1-.17s.1-.08.16-.1a3.68 3.68 0 0 0 2.52-3c.08-.36.11-.76.54-.93z" fill="#facbd7"/><path d="m20.27 80.9a.84.84 0 0 0 .24-1.29c.07-.22 0-.45.06-.67v-2.92c-.77-.15-.15-.27-.06-.53a4.41 4.41 0 0 0 0-1.41c0-.49 0-1 0-1.48a20.65 20.65 0 0 1 -.14-2.47 21.62 21.62 0 0 0 .1-3.49 5.35 5.35 0 0 0 0-1.55c-.19-.74.33-.6.66-.62 1.86-.1 3.72-.12 5.58-.25 2.6-.18 5.19-.4 7.78-.64s5-.48 7.56-.77c.94-.11 1.89-.2 2.81-.37 2.84-.53 5.73-.69 8.57-1.15 2.1-.35 4.23-.55 6.33-.88 1.77-.28 3.54-.64 5.3-1a2.78 2.78 0 0 0 .54-.22 3.12 3.12 0 0 1 1.46-.36c1.84-.13 3.64-.47 5.46-.71 1.17-.16 2.34-.35 3.5-.55s2.53-.5 3.8-.74q3.18-.6 6.35-1.28c2.28-.49 4.5-1.2 6.75-1.75 1.52-.37 3-.79 4.52-1.26a3.37 3.37 0 0 1 .7.06h.16a4.9 4.9 0 0 1 .86 1.33c-.11 1.18-.07 2.36-.17 3.54-.11 1.48-.16 3-.34 4.44a2.86 2.86 0 0 0 0 1.45.34.34 0 0 1 0 .26 8.15 8.15 0 0 0 -.25 3.18 15.45 15.45 0 0 1 -.29 3.33 1.74 1.74 0 0 0 .13 1.12.45.45 0 0 1 0 .51 1.11 1.11 0 0 0 0 1.28c0 .1.13.26 0 .3-.42.16-.36.4-.18.71.07.12-.05.23-.13.33a.72.72 0 0 0 -.14.67 4.09 4.09 0 0 1 0 1.56c0 .07-.07.18 0 .2.57.41.08.83 0 1.24a18.85 18.85 0 0 0 -.13 2.71 23 23 0 0 0 -.12 3.42c.06.33-.16.54-.51.57a16.76 16.76 0 0 1 -1.74.07c-1.11 0-2.21.09-3.32.15s-2.17.18-3.25.28c-.68.07-1.38-.08-2.07 0-.1 0-.27 0-.31 0-.32.54-.62.22-1 0a1 1 0 0 0 -.7-.08 2.08 2.08 0 0 1 -.86 0c-.13 0-.31 0-.36.07-.21.46-.44.3-.7.06a.55.55 0 0 0 -.46-.12c-1 .13-1.93 0-2.88.14a1 1 0 0 0 -.4.15.51.51 0 0 1 -.52 0 2.35 2.35 0 0 0 -1.17-.19c-1.49 0-3-.06-4.47 0-.09 0-.22 0-.26 0-.34.56-.65.12-1 0a5.35 5.35 0 0 0 -1.6-.08 25.88 25.88 0 0 1 -3.63 0 1.05 1.05 0 0 0 -.94.31c-.33.3-.45.24-.49-.18 0-.2-.13-.2-.25-.18a9.86 9.86 0 0 0 -2.42.32.34.34 0 0 1 -.35 0 .77.77 0 0 0 -.92.07.38.38 0 0 1 -.15 0 10.57 10.57 0 0 0 -2.81.12c-.2 0-.41 0-.5.26s-.26.28-.43.08a.83.83 0 0 0 -.75-.22c-2.69.23-5.38.4-8.08.55-1.51.09-3 .24-4.54.23-.25 0-.33.16-.43.34s-.31.3-.51 0a.81.81 0 0 0 -1.21-.1c-.14.14-.26.33-.44.16-.55-.48-1.19-.23-1.78-.23a10.73 10.73 0 0 0 -2.11.17 1.45 1.45 0 0 0 -.57.14c-.08 0-.17.1-.25.08-1.06-.32-2.09.09-3.13.13-1.87.06-3.7.52-5.55.74a22 22 0 0 0 -2.7.27 10 10 0 0 1 -2.19 0 1.06 1.06 0 0 0 -.89.31c-.3.33-.64 0-1 0a5.92 5.92 0 0 1 -.23-1.92c-.11-.8 0-1.61-.11-2.41 0 0 0-.09 0-.11-.62-.54-.14-1 .07-1.54-.13-.3.39-.93-.44-.89a.22.22 0 0 1 -.11 0c.05 0 .13-.08.16-.14s.42-.1.39-.43-.39 0-.42-.24z" fill="#e2802f"/><path d="m20.7 82.64c-.17.22.52.83-.33.73 0 0-.05.09 0 .11 1 1.46.34 3.15.63 4.7v.38a1.4 1.4 0 0 1 -.06.73 5 5 0 0 0 .16 2.77c0 .68.18.85.89.81 2.52-.14 5-.36 7.54-.6.57-.48 1.19-.09 1.78-.13 1.37-.1 2.75-.16 4.13-.28 1.86-.16 3.73-.2 5.6-.3a19.92 19.92 0 0 0 2.69-.24c.44-.08.82 0 1.22 0 1.95-.16 3.92-.25 5.87-.38s3.81-.29 5.71-.36a20.87 20.87 0 0 0 4.17-.44c.42-.1.91.15 1.29-.24 0-.05.1 0 .15 0a4.57 4.57 0 0 0 2.71.16c1.9-.14 3.81-.19 5.72-.27h.32c1.51-.27 3-.08 4.55-.3a7.09 7.09 0 0 1 1.66 0 17.33 17.33 0 0 0 2.49-.23c1.07-.07 2.14-.1 3.21-.19 2.64-.24 5.3-.1 8-.32a10.38 10.38 0 0 1 1.25 0 16.18 16.18 0 0 0 4-.42c1.06-.23 2.12-.24 3.17-.47a1.22 1.22 0 0 0 .72-.45 1.31 1.31 0 0 1 .74-.27c.73-.15.83-.26.93-1 0-.16 0-.33.19-.42.75.37 1.11-.13 1.26-.7a18.66 18.66 0 0 0 .35-2.26c1.1.49 2.08-.47 3.14-.27 2.42.48 4.85 1 6.82 2.64.39.32 1 .48 1.21 1.1a2.54 2.54 0 0 1 -1.12 3.22 13.74 13.74 0 0 1 -5.49 2.43c-1.37.26-2.71.68-4.06 1-.56.15-.51.84-.94 1.12-.12.08-.16.33-.37.2 0 0 .07-.24.11-.37s.19-.35.15-.41-.28.11-.41.08c-.65-.14-1.29.31-1.86.15s-.79 1.37-1.63.47a.68.68 0 0 0 -.74.41c-.18.42-.25-.31-.67-.2a36.84 36.84 0 0 1 -4.19.79c-.57.09-1.17 0-1.41.73-.05.16-.33.26-.38.06-.19-.77-.73-.39-1.14-.36-.57 0-1.13.16-1.7.24-.38.06-.56.81-1.18.19-.27-.28-1 .37-1.51.09-.29 1-.81.23-1.28.26-1.91.15-3.8.45-5.71.56-.5 0-1.26.47-1.4.38a2.1 2.1 0 0 0 -1.88 0c-.69.24-1.49-.36-2.08.37-.08.1-.11-.49-.58-.42-.89.14-1.81.14-2.72.2l-4.21.26c-.23.15-1-.44-.66.5v.11s-.11 0-.13-.08c-.29-.81-.92-.43-1.44-.41-1 0-2 .06-3 .2-1.78.27-3.58.11-5.34.34-2.1.27-4.2 0-6.28.3-1 .14-2 0-3.09.06a29.86 29.86 0 0 1 -4.6-.3c-1.85-.09-3.71-.1-5.56-.16-.83 0-1.66-.1-2.49-.2-.28 0-.55-.26-.62.23 0 0-.1.08-.12.07-1.18-1-2.56-.16-3.77-.46a11 11 0 0 0 -2.45-.41c-1.1 0-2.21-.2-3.27-.33-1.26-.17-2.57-.43-3.84-.71 0 0-.07 0-.09 0-1.31.26-2.35-.69-3.6-.81a33.52 33.52 0 0 1 -4-1.06 16.61 16.61 0 0 1 -2.68-1.06 3.78 3.78 0 0 1 -2-4.69 6 6 0 0 1 3.24-2.62 36.2 36.2 0 0 1 4.88-1.83c1.73-.59 3.55-1.22 5.43-1.72z" fill="#f7b0c9"/><path d="m21.13 92c-.66-.56-.47-1.34-.47-2a6 6 0 0 1 .34-1.44 10.18 10.18 0 0 1 3.23-.34 13.45 13.45 0 0 0 2.77-.33c2.51-.33 5-.7 7.51-.93.55 0 1.08-.2 1.63-.22a33.22 33.22 0 0 1 4.56-.16c.54.06.94-.2 1.39-.13s.91-.35.85.45c0 .08.17.24.2.07.2-1.19 1.13-.5 1.64-.55 2.74-.27 5.49-.39 8.24-.57l3.81-.25a.32.32 0 0 1 .38.22 1.12 1.12 0 0 0 .17.21 2 2 0 0 1 0-.25.63.63 0 0 1 .07-.25c1.2.06 2.42-.35 3.6.17.31-.53.74-.42 1.13-.17s.27-.19.51-.18c.79 0 1.57-.11 2.36-.17.16 0 .42-.07.32.25a2.87 2.87 0 0 1 -.18.4 5.19 5.19 0 0 0 .45-.37c.49-.51 1.09-.09 1.63-.16a14.42 14.42 0 0 1 2.71 0c.76 0 1.6-.35 2.27.34 0 0 .17.07.19.05.7-.89 1.69-.32 2.52-.44a12.15 12.15 0 0 1 3.13.07c1.46.18 2.88-.25 4.32-.18.26 0 .63-.15.74.31 0 0 .13.08.2.13.08-1 .78-.25 1.17-.38s1.1-.34 1.47.31c0 0 .12.06.12.06.55-1 1.45-.37 2.17-.45 1.57-.18 3.16-.23 4.74-.29a13.28 13.28 0 0 1 2.89-.08c1.26.21 1.63-.32 1.6-1.56 0-1.66.15-3.32.27-5 0-.26-.41-.82.36-.72 0 0 0-.13 0-.15-1-.78 0-1.82-.34-2.71-.08-.22.32-.6 0-.93a.27.27 0 0 1 0-.21c.89-.42-.37-1.51.58-1.91a1.56 1.56 0 0 1 -.22-1.43 8.79 8.79 0 0 0 .35-2.22 16.14 16.14 0 0 1 0-3c.17-1.66.11-3.32.35-5s.14-3.54.22-5.31c0-1-.3-1.78-1.42-2-.12-.06-.29.07-.37 0-.36-.48-.94-.31-1.4-.52s-.91-.5-1.39-.72c-.91-.41-1.85-.71-2.75-1.12a7.89 7.89 0 0 1 -.81-.44c-.64-.38-1.37-.56-2-.88-1.58-.76-3.17-1.49-4.67-2.39a6.74 6.74 0 0 0 -1.06-.39c-1.2-.47-2.32-1.11-3.48-1.64-.66-.29-1.27-.67-1.94-.93-.92-.34-1.77-.85-2.69-1.18a7.87 7.87 0 0 1 -.91-.59 26.77 26.77 0 0 0 -4.19-1.67c-.89-.31-1.73-.74-2.6-1.09-.37-.15-.61-.49-1-.65a.39.39 0 0 1 -.07-.62c.29-.32-.16-.49-.16-.76s-.54-.75.09-1.15c.26-.16-.24-.2-.27-.38a5.34 5.34 0 0 1 2.45-1.15 15.19 15.19 0 0 1 3.69-.33 6.77 6.77 0 0 1 3.35.83c.2.12.43.22.44.51s.13.18.27.17a.8.8 0 0 1 .81.49 4.73 4.73 0 0 1 .58 1.17c.06.28.24.35.49.25a8.38 8.38 0 0 1 3.82-.31 5.85 5.85 0 0 1 1.68.43 10.27 10.27 0 0 1 3.17 1.67 3.28 3.28 0 0 1 .89 1.16 1.54 1.54 0 0 0 2 1 6.41 6.41 0 0 1 2.17-.37c.91.13 1.83-.09 2.73.09a21.25 21.25 0 0 1 2.73.77 3.4 3.4 0 0 1 1.74 1.28 2.29 2.29 0 0 1 .46 1.32c0 .65.17.79.82.79s1.53-.07 2.29 0a3.91 3.91 0 0 1 2.49.8 2.16 2.16 0 0 1 .57 2.17c-.22 1.27-1.18 1.71-2.06 2.27a5.45 5.45 0 0 1 -1.39.63.43.43 0 0 0 -.36.55c.08.54.11 1.09.2 1.63a2.57 2.57 0 0 1 -.2 1.59.47.47 0 0 0 0 .63.74.74 0 0 1 .06.53 3.22 3.22 0 0 0 0 1c.07.3.08.6-.23.77-.16.09 0 .09 0 .13a.17.17 0 0 1 .11.17c-.18.65.14 1.27.06 1.92a11.44 11.44 0 0 0 -.19 2c0 1-.27 1.9-.22 2.87a10.47 10.47 0 0 1 -.4 2.41c0 .23-.32.3-.42.46s.34.2.34.46a1.61 1.61 0 0 1 0 .44 25.4 25.4 0 0 0 -.26 3.14c-.25 1.66-.18 3.35-.36 5a8.47 8.47 0 0 0 0 1.81 4.19 4.19 0 0 1 0 .71c0 .16-.12.24-.25.33s0 .07.06.08a.56.56 0 0 1 .19.38c0 .27.13.53-.11.77a.24.24 0 0 0 0 .29c.39.75.11 1.56.2 2.34 0 .07-.05.14-.07.2-.07.21-.58.36 0 .64.24.11.14.66 0 .9a7.42 7.42 0 0 0 -.67 1.43 1.24 1.24 0 0 1 -.46.6 2.67 2.67 0 0 1 -1 .2 14.84 14.84 0 0 0 -2 .32 19.68 19.68 0 0 1 -3.6.13c-1.28 0-2.57 0-3.86 0s-2.79-.11-4.19-.09-3 0-4.52.14c-1.66.15-3.33.27-5 .27s-3.18.17-4.78.1c-1.18 0-2.39.12-3.59.15-1.49 0-3 .23-4.46.19a35.31 35.31 0 0 0 -4.24.36 12.28 12.28 0 0 1 -2.5.09c-.46-.06-.82.32-1.31.21-1.87-.43-3.72 0-5.58.17a5.25 5.25 0 0 0 -2.29.26h-.17a9.28 9.28 0 0 0 -2.73.13c-.62.1-1.3 0-2 .07a1.26 1.26 0 0 0 -.63.14.47.47 0 0 1 -.36.1 9.56 9.56 0 0 0 -3 0c-1.82.15-3.64.18-5.46.44s-3.63.47-5.46.6c-1.11.08-2.2.22-3.29.39a8.11 8.11 0 0 0 -1.54.32c-.08.16-.32.26-.51.01z" fill="#fdcc7c"/><path d="m66.34 37.77c0 .47.13.74.66.57.1.7.75.57 1.17.81 2 1.09 4.19 1.46 6.14 2.56 1.47.84 3 1.6 4.52 2.33s3.19 1.5 4.83 2.13c1.3.5 2.4 1.4 3.71 1.83a26.15 26.15 0 0 1 3.11 1.32 29.38 29.38 0 0 0 3.12 1.44c1 .3 1.68 1 2.63 1.25.24.07.45.26.63-.1.09-.16.19 0 .17.08-.07.45.32.46.56.61a77.39 77.39 0 0 1 -8 2.27c-2.88.77-5.81 1.4-8.74 2-2.68.49-5.34 1.09-8.06 1.39-2.19.24-4.36.62-6.54.94a3.25 3.25 0 0 1 -.54 0 6.89 6.89 0 0 0 -2.56-.08c-1.28 0-2.56.21-3.84.3-2.48.17-5 .26-7.45.5-2.09.19-4.18.47-6.25.85-3 .54-6 .63-9 .93-.16 0-.46-.08-.38.3 0 0-.29.22-.3.21-.85-.94-1.86-.23-2.77-.24-1.62 0-3.24.15-4.85.27s-3.27.3-4.91.45l-2.4.19a1.24 1.24 0 0 1 -.27 0c.06-.09.09-.21.17-.25 2.27-1.16 4.26-2.76 6.46-4 1-.55 1.94-1.06 2.92-1.59a.94.94 0 0 0 .88 0c.16-.1.36-.11.39.17 0 .12 0 .23.18.23s.19-.15.21-.27a1.12 1.12 0 0 1 .08-.26c.09-.16.19-.36.39-.32s.18.25.18.41c0 .32.11.49.46.34.14-.06.25 0 .36.09s.24.11.3 0c.27-.41.49-.23.73 0s.21.22.32.15 0-.22 0-.32-.11-.41.12-.53a.49.49 0 0 1 .55.14.63.63 0 0 1 .23.53c0 .25.12.3.34.31 1.47 0 3 .17 4.43.14.12 0 .22 0 .27-.13.17-.33.36-.29.51 0a.38.38 0 0 0 .4.21c.54 0 1.1.17 1.62-.25a1 1 0 0 1 .93.1c.15.1.34.23.44.11.32-.43.59-.1.92 0a4.89 4.89 0 0 0 2 0c.43-.1.9-.5 1.36 0 .13.14.39.06.58 0 .79 0 1.6.19 2.34-.25a.11.11 0 0 1 .11 0c.84.45 1.66-.1 2.49-.05a4.46 4.46 0 0 0 1 .16c.46-.07 1 .09 1.34-.3.11-.11.23 0 .35.07a1.17 1.17 0 0 0 1.4-.22.62.62 0 0 1 .91-.09c.4.28.85.08 1.27 0 .88-.09 1.75-.26 2.64-.32a7.07 7.07 0 0 0 3.37-1.25 3.68 3.68 0 0 0 1.68-1.64.82.82 0 0 0 -.15-1c-.33-.33-.74-.61-.83-1.13a.36.36 0 0 1 .11-.24 2.49 2.49 0 0 0 .89-2.17 3.26 3.26 0 0 0 -1.38-2.78 14 14 0 0 0 -1.69-1.15c-.22-.1-.23-.31-.15-.52a6 6 0 0 0 .21-3.16c0-.24-.06-.44-.42-.43s-.5-.28-.26-.59.11-.4 0-.61a5.68 5.68 0 0 0 -1.28-1.4c-.12-.09-.3-.19-.14-.39s.45-.23.69-.32a1.86 1.86 0 0 1 .34-.06 1 1 0 0 1 -.08.3c-.12.22-.06.46.12.52s.18-.2.2-.32a1.14 1.14 0 0 1 1.8-.78z" fill="#e99735"/><path d="m99.32 87.2c.35-.82.72-1.62 1.05-2.44.06-.13.17-.38-.13-.42s-.41.24-.52 0c0-.08.28-.31.44-.47.55-.53.15-1.2.13-1.76a11.12 11.12 0 0 1 0-2.08c0-.18-.16-.25-.36-.14s-.16.27-.28.1.1-.34.15-.34c.74 0 .51-.55.47-.88a16.6 16.6 0 0 1 .11-3.38c.18-2.34.35-4.68.53-7 0-.19 0-.31-.22-.36a.34.34 0 0 1 -.28-.45c.12-.4.17.12.3 0a.65.65 0 0 0 .34-.57c.07-1 .16-2 .3-2.91.2-1.31.19-2.65.38-4 .06-.44.46-1.19-.34-1.54a.49.49 0 0 1 .07-.24c.09-.11.38 0 .29-.3 0 0-.26 0-.39 0s-.16 0-.25-.07a1.3 1.3 0 0 1 .23-.18c.22-.09.65-.14.53-.41-.32-.67.3-1.49-.36-2.06-.16-.13-.37-.27-.29-.45s.23.08.35.09c.48 0 .07-.27.12-.39.48-1.1 0-2.16-.11-3.23 0-.31.14-.29.29-.33a6.45 6.45 0 0 0 3.13-1.74 2.32 2.32 0 0 0 .52-2.27 2.29 2.29 0 0 0 -2-1.46 14 14 0 0 0 -3.3-.09c-.64 0-.9-.28-.88-.81 0-1.52-1-2.2-2.14-2.62a10.86 10.86 0 0 0 -3.67-.84 1.47 1.47 0 0 0 -1.08.24 1 1 0 0 1 -.25.12 2.61 2.61 0 0 0 .06-.27c0-.34-.17-.1-.26-.11-1.23-.12-2.37.66-3.64.36-.35-.08-.57-.13-.7-.5-.77-2.19-2.76-2.77-4.66-3.4a7.5 7.5 0 0 0 -5.24.11c-.35.15-.3-.26-.37-.45-.22-.57-.38-1.26-.93-1.52-1.19-.57-2.17-1.55-3.67-1.56a18.91 18.91 0 0 0 -4.58.37c-.54.12-1.33.05-1.56.88 0 .07-.42 0-.65 0-.27-.91.27-1.68.5-2.48a5.54 5.54 0 0 1 3.19-3.55 8.5 8.5 0 0 1 4.67-.5 5.67 5.67 0 0 1 4.27 3.5c.15.31.78.81.21 1.33.45-.18.23.72.89.46 3.17-1.29 6.43-2 9.85-1.06.18 0 .78-.07.38.5-.07.09 0 .27.12.2.79-.49 1.09.33 1.57.59a.38.38 0 0 1 .09.64s-.08.19-.06.2c.84.48.87 1.21.71 2s.42.68.91.59a10.05 10.05 0 0 1 6.46.69 5.27 5.27 0 0 1 3.14 3.54c.16.46.37.27.6.26 2-.17 4-.59 6 .26a2.54 2.54 0 0 1 1.64 2.22c.08.65 0 .74-.42 1-.19.12.08.18.17.2s.38-.13.38.21 0 .46-.34.53c-.09 0-.16.13-.25.2h.29.23c.13.2-.84 1.66-1.09 1.66s-.44.11-.33.23c.56.58-.07.74-.34 1a18.91 18.91 0 0 1 -6.64 3.74c-.42.12-.49.28-.41.72a16.11 16.11 0 0 1 .26 5c-.1.86.37 1.62.19 2.45a6.59 6.59 0 0 0 -.1.88s0 0 0 0a8.26 8.26 0 0 1 .1 2.76 27.8 27.8 0 0 1 -.14 4.28c-.14 1.06.17 2.15-.28 3.16a2.87 2.87 0 0 0 -.15.85c-.2 1.3-.13 2.64-.44 3.92-.05.19 0 .42-.34.35 0 0-.13.16-.13.17.91.85.11 1.9.3 2.84a9.87 9.87 0 0 1 -.12 2.53c.65.52-.38 1 0 1.55.12.17-.07.52.26.64.25 1.45-.81 1.57-1.79 1.77a.74.74 0 0 1 -.69-.26z" fill="#fcde9a"/><path d="m40.82 50.88c.77-.51.34-1.38.52-2.05a7.57 7.57 0 0 1 1.66-3.4c.69-.75 1.49-1.39 2.22-2.1a4.13 4.13 0 0 0 1.38-3.48c-.12-1.39.94-2.23 1.8-3.08a7.11 7.11 0 0 1 2.76-1.77.33.33 0 0 1 .44.21c.08.16-.06.27-.15.38-.53.59-.53.59.13 1.07a.71.71 0 0 1 .14.1c.1.09.27.16.19.34a.29.29 0 0 1 -.33.14c-.47-.06-.28.18-.14.35a2.23 2.23 0 0 0 1.21.88 11.14 11.14 0 0 0 4.7.28c.46-.08.94-.08 1.41-.15a.69.69 0 0 1 .42.07 6.28 6.28 0 0 1 2.2 1.9 2.31 2.31 0 0 1 0 2.74c-.17.31-.44.65-.23 1.07.08.15-.05.23-.16.3s-.21.18-.14.36-.07.36-.27.35-.25.2-.28.38.12.31.33.33a10.84 10.84 0 0 1 2.37.9c1 .35 1.14 1.32 1.47 2.12a2.83 2.83 0 0 1 -1 3.41 16.41 16.41 0 0 0 -1.51 1.25 7 7 0 0 1 -1.96.22c-.82.1-1.67.12-2.5.18a29.11 29.11 0 0 0 -3 .14 17.11 17.11 0 0 1 -3.27.1 25.31 25.31 0 0 1 -4-.46 16.06 16.06 0 0 1 -3.44-.79 5.42 5.42 0 0 1 -2.51-1.53c-.02-.28-.08-.64-.46-.76z" fill="#fcde9a"/><path d="m67.45 51.85c.2.25.4.51.62.74a1.6 1.6 0 0 1 -.35 2.59c-1.48 1-3 2-4.95 1.87a12.22 12.22 0 0 0 -2.79.37c-.29 0-.51.15-.71-.18a.31.31 0 0 0 -.52 0c-.54.62-1.08.57-1.87.37a16 16 0 0 0 -1.71.25 11 11 0 0 1 -1.81-.07c-.4-.05-.56.42-1 .27-1-.33-2.1.15-3.15 0-.2 0-.6.18-.59-.32 0 0-.18-.1-.22-.07-.86.7-1.86.31-2.79.38-.33 0-.61-.49-1 0-.11.13-.74-.14-1.11-.29s-.19.4-.53.35a10.46 10.46 0 0 0 -1.68 0c-.32 0-.08-.2-.13-.28s-.1-.2-.15-.2c-.2 0-.05.15-.08.21-.32.6-.86.15-1.25.17a35.08 35.08 0 0 1 -3.83-.12c-.3 0-.52 0-.33-.4s0-.46-.26-.58-.32-.19-.37 0 .11.35.16.53.31.35.11.39-.6.1-.78-.26c0-.12-.21-.27-.3-.26s-.06.19-.05.3a.41.41 0 0 1 0 .1c-.18 0-.47 0-.51-.05-.21-.44-1.1.44-1-.53 0-.14.19-.37-.07-.42a1 1 0 0 0 -.24.54c0 .21.14.47-.27.39-.21 0-.63.15-.41-.39.07-.17 0-.24-.24-.05-.41.37-.65.16-.9-.17 1-.65 2-1.34 3-1.93 1.83-1.1 3.75-2.1 5.66-3.1.5-.27.86-.8 1.5-.8a.29.29 0 0 1 .4.1 5 5 0 0 0 3 2.79 19 19 0 0 0 5.46 1.38 46.52 46.52 0 0 0 7.18 0 20.77 20.77 0 0 0 3.8-.47 23.16 23.16 0 0 0 4.08-1.33 2 2 0 0 0 .65-.39 18.08 18.08 0 0 0 1.88-1.28c.14-.11.26-.24.45-.15z" fill="#d96027"/><path d="m67.45 51.85a10.28 10.28 0 0 1 -2.21 1.42 3.08 3.08 0 0 0 -1.87.19c-.49.13-1 .39-1.5.14.59-.51 1.2-1 1.76-1.54 1.28-1.25.89-2.6.24-4-.4-.85-1.15-1-1.88-1.29a5.78 5.78 0 0 0 -1.75-.56c-.34 0 .22-.68-.29-.84.18-.21.4-.08.6-.09s.42 0 .22-.15c-.56-.47 0-.39.19-.54s-.2-.34 0-.63a3.22 3.22 0 0 0 .69-2.67 5.83 5.83 0 0 0 -1.36-1.7c-1.17-1.32-2.64-.52-4-.56-1.71-.05-3.52.22-4.88-1.22-.17-.18-.38-.51-.32-.7s.35 0 .54 0a.65.65 0 0 0 .2 0c0-.06-.08-.14-.14-.17-.78-.4-1.27-.79-.23-1.51.33-.24-.2-.25-.28-.4a15.21 15.21 0 0 1 3.53-1.28c.19-.05.24 0 .18.24-.43 1.64-.12 2.21 1.58 2.49a23.85 23.85 0 0 1 6.74 2 10.83 10.83 0 0 1 1.7 1.88c0 .08.16.18.14.22-.48 1 .92 1.44.62 2.43-.21.67-.06 1.45-.43 2.1-.15.28 0 .31.19.41 1.57.75 2.88 1.76 3.14 3.62a3.6 3.6 0 0 1 -.11 1.67c-.18.38-.67.68-1.01 1.04z" fill="#ffeabe"/><path d="m24.28 25.15c0 .08.11.13.12.19a6.06 6.06 0 0 0 3.26 4.11c.18.11.28.23.23.44s-.21.24-.38.23c-1.41-.12-2.23 1.65-2.51 2.74-.07.31 0 .73-.36.83s-.27-.36-.41-.54c-1-1.27-1.75-2.84-3.64-3-.28 0-.29-.21.08-.46a7.54 7.54 0 0 0 2.69-3c.21-.43.23-1 .69-1.26.11-.1.15-.19.23-.28z" fill="#facbd7"/><path d="m37.61 33.94a.28.28 0 0 1 -.26.32 3.6 3.6 0 0 0 -2.63 2.46c-.07.17 0 .46-.31.43-.11 0-.23-.25-.29-.41-.48-1.1-.95-2.18-2.24-2.62-.32-.11-.13-.41.11-.51a3.84 3.84 0 0 0 2.49-2.92c0-.15.23-.37.3-.06a4.22 4.22 0 0 0 2.73 3.16c.05.03.08.12.1.15z" fill="#facbd7"/><path d="m40.91 51.31-.36-.13.27-.3c.71-.25.43.43.62.67-.22.02-.37-.13-.53-.24z" fill="#e59c44"/><path d="m19.67 71.39c-.05 0-.15-.09-.16-.15s.1-.2.24-.17a1.45 1.45 0 0 1 .26.11z" fill="#ecad79"/><path d="m103.17 81.88c0 .12.08.18.06.22s-.13.16-.19.24-.1-.11-.09-.13a2 2 0 0 1 .22-.33z" fill="#facbd7"/><path d="m20.57 78.94-.06.67z" fill="#facbd7"/><path d="m42.94 98.6a1.82 1.82 0 0 1 .2.26s-.06.09-.1.14a1.14 1.14 0 0 1 -.15-.17s.02-.11.05-.23z" fill="#f7b0c9"/><path d="m20.28 80.89-.42.31a.9.9 0 0 1 0-.17c.14 0 .17-.44.41-.13z" fill="#e2802f"/><path d="m107.65 96.65c-.06-.24-.1-.3-.09-.36a.24.24 0 0 1 .12-.14s.1 0 .1.09-.02.1-.13.41z" fill="#fefefe"/><path d="m20.14 82.46c-.07.07-.11.14-.16.15s-.11 0-.16-.08.06-.15.12-.19.11.06.2.12z" fill="#ec9b6c"/><path d="m66.13 97.71.06.34s-.08 0-.09 0-.09-.22 0-.32z" fill="#f7b0c9"/><path d="m3.35 95.75.3-.14v.08h-.35z" fill="#fefefe"/><g fill="#d04c28"><path d="m23.84 84.84c-.32.42-.61 0-.9 0-.06 0-.15-.2-.15-.3 0-.3.31-.35.51-.4a6 6 0 0 1 1.27-.2c.18 0 .46 0 .49.32.08.64-.54.57-.84.82-.16-.08-.22-.24-.38-.24z"/><path d="m70.17 77.18c0 .35-.31.42-.66.43a.81.81 0 0 1 -.88-.83c0-.4.39-.55.79-.58.68-.06.69.42.75.98z"/><path d="m93.75 81.32c.31.09.86.06.9.39 0 .49-.48.66-.9.7a.61.61 0 0 1 -.75-.61c0-.46.4-.43.75-.48z"/><path d="m50.93 77.28c-.12 0-.6 0-.57-.25a.83.83 0 0 1 1-.72c.31 0 .67.08.65.4-.01.48-.47.61-1.08.57z"/><path d="m49.56 64.74c-.42.08-.66-.1-.66-.5s.36-.35.64-.38c.47 0 1 .3 1 .56s-.64.26-.98.32z"/><path d="m26.48 68.58c-.17-.08-.47.1-.43-.27s0-.88.63-.83c.25 0 .63 0 .65.39.04.64-.49.58-.85.71z"/></g><path d="m23.78 70.76c.37 0 .95.09.81.3a2.41 2.41 0 0 1 -1.3.7c-.14 0-.39-.28-.59-.44z" fill="#d14d28"/><path d="m45.14 70.63c-.37 0-.72-.1-.68-.39.07-.52.59-.41.95-.47s.7 0 .65.29c-.06.45-.61.47-.92.57z" fill="#d04c28"/><path d="m52.43 66.5c-.32 0-.7 0-.69-.46s.37-.39.68-.43c.51-.07.64.39.94.62-.27.28-.63.17-.93.27z" fill="#d04c28"/><path d="m93 60.27c-.15-.26-.75.14-.68-.39.08-.7.87-.19 1.17-.57.1.09.29.2.27.27a.79.79 0 0 1 -.76.69z" fill="#d04c28"/><path d="m37.39 81.11c.26.08.61 0 .57.49 0 .27 0 .63-.38.58a.78.78 0 0 1 -.71-.59c-.08-.4.28-.39.52-.48z" fill="#d14d28"/><path d="m52.29 82.75c-.3-.1-.75-.06-.79-.58 0-.3.16-.4.44-.4.47 0 .61.29.69.7s-.11.28-.34.28z" fill="#d14d28"/><path d="m89.27 75.52c-.19.45-.77.15-1.08.41 0 0-.32-.24-.3-.29a.81.81 0 0 1 .89-.57c.22.02.49.03.49.45z" fill="#d04c28"/><path d="m75.84 69.77c.3.24.81 0 .87.43 0 .18-.26.44-.58.41s-.74-.1-.87-.5a3.81 3.81 0 0 1 .58-.34z" fill="#d14e28"/><path d="m77.23 76.48c-.21 0-.57 0-.48-.29s.59-.3.93-.31.84.13.78.24c-.25.47-.82.22-1.23.36z" fill="#d04c28"/><path d="m29.41 81.11c-.36.13-.45-.22-.45-.4 0-.41.38-.48.71-.5s.57.17.48.28-.24.71-.74.62z" fill="#d14e28"/><path d="m83.38 61.58c.51 0 .77 0 .76.36s-.27.39-.53.39-.7-.07-.7-.34.39-.4.47-.41z" fill="#d04c28"/><path d="m27.53 72.87c-.06-.06-.41.25-.39-.13 0-.55.48-.48.84-.46a2.64 2.64 0 0 1 .6.15c-.3.21-.46.67-1.05.44z" fill="#d04d28"/><path d="m67.3 68c-.3 0-.6-.08-.55-.29.09-.37.52-.26.81-.35s.42 0 .4.24c-.06.4-.46.32-.66.4z" fill="#d04c28"/><path d="m23.84 84.84c.28-.24.33 0 .38.2-.22.19-.35.04-.38-.2z" fill="#f29ea2"/><path d="m99.32 87.2c.22 0 .51 0 .64.28-.34.85-1.12.57-1.74.65a46.2 46.2 0 0 1 -5.35.75c-2.18 0-4.36 0-6.53.11-1.7.06-3.39.2-5.09.31l-4.42.33c-1.31.08-2.62.16-3.93.21-2.35.09-4.69.1-7 .26-1 .07-2.07.2-3.12.18-.25 0-.53.16-.68-.28-.06-.17 0 .31-.3.31-.66 0-1.33.15-2 .19l-11.31.7c-1.21.07-2.42.2-3.63.28-.17 0-.48.19-.47-.24 0 0-.11-.06-.17-.09s-.08.12-.07.14c.35.54-.19.28-.29.28-1.61.1-3.22.17-4.83.26-2.7.15-5.41.28-8.11.48-2.06.15-4.1.45-6.16.55a9.58 9.58 0 0 1 -3.46 0c-.66-.2-.43-.54-.15-.9 1.49-.25 3-.56 4.47-.76 2-.25 4-.44 6-.63 1.57-.16 3.13-.3 4.7-.42 1.3-.1 2.61-.15 3.92-.24 1.56-.11 3.13-.21 4.69-.35a4 4 0 0 1 1.39.13c.7-.71 1.6-.23 2.4-.39a26 26 0 0 1 4.17-.3c.62 0 1.52.41 1.78.24.84-.54 1.65-.16 2.45-.24a51 51 0 0 1 6.19-.45c2.22 0 4.45-.24 6.67-.34 1.72-.07 3.44 0 5.16-.11 3.07-.13 6.14-.34 9.21-.41 2 0 3.92.27 5.86.15 2.53-.15 5.09.26 7.59-.47a8.42 8.42 0 0 1 1.52-.17z" fill="#2b3c58"/><path d="m20 89.86-.38-.19.19-.15c.12.38.52-.32.59.14.01.23-.21.16-.4.2z" fill="#ee9770"/><path d="m63.79 91.56c.1.09.21.16.2.2a.55.55 0 0 1 -.17.23s-.17-.09-.17-.13a1.27 1.27 0 0 1 .14-.3z" fill="#ef9f68"/><path d="m78.9 42.84-.16.23a1.67 1.67 0 0 1 -.25-.36s.08-.2.15-.21.25.09.26.34z" fill="#ffecd1"/><path d="m58.34 86.21c-.08-.12-.16-.19-.16-.24a.56.56 0 0 1 .13-.22c0 .06.14.12.15.18s-.06.14-.12.28z" fill="#e2802f"/><path d="m37.64 87.07-.12.11c0-.05-.08-.09-.09-.15s.07-.08.11-.07.06.04.1.11z" fill="#e2802f"/><path d="m61 85.7c.08 0 .21 0 .11.14s-.11.06-.16.09z" fill="#e2802f"/><path d="m38.76 60a2.78 2.78 0 0 1 -.3.24s-.11 0-.16-.07a2.28 2.28 0 0 1 .22-.22s.11.05.24.05z" fill="#f6d5af"/><path d="m110.11 48 .29.18c-.07 0-.15.15-.23.15s-.19-.09-.28-.14z" fill="#fefefe"/><path d="m102.7 62.66c-.06.32-.19.18-.3 0a1.23 1.23 0 0 1 -.08-.29l.39.27z" fill="#fefefe"/><path d="m99.76 38.64-.17.29-.12-.12z" fill="#fefefe"/><path d="m101.51 83.52-.21.29.24-.26z" fill="#fefefe"/><path d="m40.91 51.31c.32-.24.33.22.53.24a7.83 7.83 0 0 0 4.06 1.94c1.31.29 2.64.41 4 .59s2.48.08 3.71.18c.83.06 1.61-.14 2.43-.15a33.87 33.87 0 0 0 6.27-.51c.86-.2 1.72-.36 2.57-.6.37-.11.62-.07.8.27a6.27 6.27 0 0 1 -2.83 1.3c-3.13 1.15-6.41 1.17-9.67 1.21s-6.52-.23-9.48-1.85a4.66 4.66 0 0 1 -2.3-2.18.5.5 0 0 1 -.09-.44z" fill="#2b3c58"/><path d="m49.92 56.64c-.43 0-.66 0-.83-.17a1.17 1.17 0 0 1 .37 0c.21 0 .4.12.61.18z" fill="#60464b"/><path d="m37.51 54.08c0-.1-.11-.17-.1-.21a.81.81 0 0 1 .14-.2c.05.06.15.12.15.17s-.1.16-.19.24z" fill="#f4d1bb"/><path d="m65 42.9c0 .15 0 .31-.23.28a.31.31 0 0 1 -.2-.24.39.39 0 0 1 .22-.25c.21-.06.21.06.21.21z" fill="#eb9f42"/><path d="m52.92 90.55c-.07.06-.12.13-.17.13s-.1-.08-.15-.13.09-.13.13-.13.11.08.19.13z" fill="#ae90a5"/><path d="m46.25 89.75c.12 0 .24 0 .2.14a.19.19 0 0 1 -.18.08c-.21-.06 0-.15 0-.23z" fill="#fdcc7c"/><path d="m78.45 89.18c-.07.07-.11.13-.13.12s-.1-.06-.15-.1.06-.1.09-.1.1.04.19.08z" fill="#a6848c"/><path d="m44.15 90.1c-.07 0-.11.09-.14.08a.54.54 0 0 1 -.16-.1s.09-.08.15-.08.07 0 .15.1z" fill="#d6b175"/><path d="m32.34 91.94c-.07 0-.12.09-.13.08a.44.44 0 0 1 -.13-.14s.07-.09.07-.09z" fill="#bc8ba6"/></svg>