<svg width="120px" height="120px" viewBox="0 0 120 120" id="Layer_1" data-name="Layer 1" xmlns="http://www.w3.org/2000/svg"><defs><style>.cls-1{fill:#feb3c3;}.cls-2{fill:#56c188;}.cls-3{fill:#2a3b58;}.cls-4{fill:#1da163;}.cls-5{fill:#fec557;}.cls-6{fill:#fefefe;}.cls-7{fill:#a9e0c2;}</style></defs><title>hs-huzzah-28</title><path class="cls-1" d="M10.055,89.92245a.75069.75069,0,0,1,.61932.8077c-.01083.10046.00882.12589.09489.169a.6719.6719,0,0,1,.35912.69992,1.88276,1.88276,0,0,1-.31991,1.175c-.04781.06045-.11066.05279-.17035.0672q-.02623-.03127-.05485-.06041l-.03111-.02622.0325.0248a.19336.19336,0,0,0,.057.05828c-.00466.083-.01576.16474-.11427.18751-.1105.02554-.29028-.02426-.20061.20237.00664.01678-.02685.07011-.04782.07409-.44535.08448-.71311.52124-1.166.58581a.29885.29885,0,0,1-.18629-.01883A2.82688,2.82688,0,0,1,7.704,92.5882c-.10125-.24518.12885-.46478-.05738-.68745a1.18685,1.18685,0,0,1-.23414-.61215c-.0878-.59082-.48409-.79387-1.1504-.6765a6.02614,6.02614,0,0,1-1.83991.10027,5.56544,5.56544,0,0,0-.96845-.00744,3.15849,3.15849,0,0,1-1.47851-.31727c-.2573-.11605-.57173-.18357-.69162-.41743a5.788,5.788,0,0,1-.55475-.92009v-1.263c.15306-.17579.12439-.4129.206-.61374a1.69087,1.69087,0,0,1,.3197-.4056c.23566.276.14891-.0166.211-.10365a.34147.34147,0,0,1,.29709-.13569c.17075.01607.3202.10432.51495.0034a2.35378,2.35378,0,0,1,.59039-.10063c.41712-.08579.6874.20636,1.00058.38212.09044.05076.07328.175.065.27-.025.2856-.04324.57841-.05216.85747a2.21889,2.21889,0,0,0,.33014,1.37256c.08257.11911.17379.11146.28372.12739a3.42434,3.42434,0,0,0,1.095-.12436,6.77587,6.77587,0,0,1,1.82155-.02792c.22826.02105.4568.00137.68723.02517a2.9357,2.9357,0,0,1,1.15276.293.87265.87265,0,0,0,.50862.12558.26794.26794,0,0,1,.29835.194Z"/><path class="cls-2" d="M34.16969,98.18885c-.623-.53865-1.22642-1.1023-1.874-1.6096a22.67937,22.67937,0,0,0-2.40924-1.88813.2571.2571,0,0,1-.12114-.1829.14746.14746,0,0,0-.22719-.09316c-.06135.03033-.12674.20552-.13976-.01913a.4839.4839,0,0,0-.29784-.39912c-.26765-.08007-.25187-.42648-.56224-.47551-.16906-.0267-.28317-.29609-.471-.42047a2.75427,2.75427,0,0,1-.54-.52959,2.73522,2.73522,0,0,0-.55537-.44937c-.44263-.305-.71937-.7861-1.18612-1.05048-.13577-.0769-1.30672-1.11474-1.76709-1.42932-.3496-.23889-.68639-.46758-.61053-.95416.01879-.12052-.0328-.13381-.10009-.16462a.41183.41183,0,0,1-.23006-.28652c-.06735-.23483.26059-.34081.21867-.44214-.06882-.16639-.1661-.29155-.08-.48235.34-.75328.64632-1.52037.948-2.28994.3124-.797.71409-1.56261.978-2.37406A23.85464,23.85464,0,0,1,26.567,79.5688c.273-.557.51363-1.12431.73907-1.70312.13979-.35893.33472-.7154.50722-1.07227.35067-.72549.69554-1.457,1.10147-2.15177.55457-.94919.987-1.9683,1.63107-2.86465a5.03086,5.03086,0,0,0,.552-1.01176,3.1752,3.1752,0,0,1,.55424-.998c.13013-.13865.05174-.29038.10374-.41894a4.65811,4.65811,0,0,1,.43357-.90367c.37356-.54323.66524-1.13281,1.01465-1.68729.40038-.63531.69757-1.3258,1.11478-1.95279a9.06066,9.06066,0,0,0,.62854-1.2763,12.89982,12.89982,0,0,1,.72941-1.21674c.44823-.75141.87587-1.51326,1.36645-2.24123.60351-.89557,1.10429-1.85662,1.63279-2.79951.45148-.8055.9698-1.57267,1.45995-2.35517a11.23956,11.23956,0,0,0,1.12781-1.827c.0602-.155.2714-.25108.33227-.406.25262-.64309.72574-1.15507,1.01843-1.77251.40188-.84776.96334-1.6019,1.42553-2.41337.2188-.38414.44411-.75987.69846-1.11985.06023.02383-.03229.0095.0324.01282q.01009.00052.00922-.00955-.00277-.03192-.014-.03192c.09716-.41425.446-.68061.62-1.05069.034-.0723,1.022-1.61613,1.42174-2.14935.48036-.64081.84821-1.35249,1.33139-1.98841a.177.177,0,0,0,.01689-.04529,3.11539,3.11539,0,0,1,.53047-.67112,3.52006,3.52006,0,0,0,.29573-.49092,2.27326,2.27326,0,0,0,.30131-.42955c.077-.18762.25273-.28538.33692-.46584a5.03992,5.03992,0,0,1,.87992-1.07372c.54159-.62956.9483-1.36591,1.52935-1.955.563-.57072.90068-1.30127,1.45023-1.88017a24.85193,24.85193,0,0,0,1.89754-2.35475c.50394-.6803,1.09483-1.292,1.55432-2.00637a2.88916,2.88916,0,0,1,.33964-.33947,6.657,6.657,0,0,0,.61842-.73012,15.51381,15.51381,0,0,1,1.79553-1.89673c.59834-.62465,1.21982-1.2272,1.83379-1.83677.13378-.13282,1.16317-.985,1.49184-1.23605a10.619,10.619,0,0,1,1.03091-.68379c.38674-.22908.735-.54064,1.13343-.77694.82266-.48788,1.66818-.93317,2.50079-1.40015a14.81756,14.81756,0,0,1,2.29967-.88607,3.2327,3.2327,0,0,1,.88-.07285,2.99389,2.99389,0,0,1,1.25959.11371,2.19852,2.19852,0,0,1,1.68809,1.50672.3183.3183,0,0,0,.05237.13255,5.59326,5.59326,0,0,1,1.02263,3.2181c.09786.769.04549,1.53432.08577,2.3001a4.25993,4.25993,0,0,1-.16239,1.23212c-.08694.35922-.01064.72719-.11539,1.09562a15.85567,15.85567,0,0,0-.32805,1.77659,9.47538,9.47538,0,0,1-.26884,1.16955,1.34131,1.34131,0,0,1-.35958,1.1343c-.183.18643-.17461.44417-.27016.66183a5.40257,5.40257,0,0,1-.75215,1.34334c-.35034.66907-.67512,1.3511-1.02688,2.01988-.51816.98516-1.00545,1.98516-1.60146,2.92759-1.25114,1.97836-2.29712,4.07562-3.50809,6.07549-.55056.90923-1.09328,1.8324-1.72448,2.69075-.83047,1.12934-1.64728,2.26882-2.50053,3.38216a20.92282,20.92282,0,0,0-1.30074,2.03307.42378.42378,0,0,0,.17693.62387c1.06095.67059,1.79692,1.71414,2.82386,2.42789a15.69023,15.69023,0,0,1,1.58772,1.26629,1.40927,1.40927,0,0,1,.28961.323c.54278.54281,1.21559.92658,1.78154,1.43434.48865.43842,1.03073.81481,1.48522,1.29085a21.4844,21.4844,0,0,0,2.09021,2.06452,2.14866,2.14866,0,0,1,.3931.46156.6066.6066,0,0,0,.45907.31906c.14572.02371.29556.23754.37687.39949a3.74531,3.74531,0,0,0,.9202.95739c.238.22553.43164.48894.67269.70873.14393.13123.7369.76107.83517.87911a16.60668,16.60668,0,0,0,1.36479,1.3684c.50528.48077.92042,1.0505,1.4616,1.49984a4.0086,4.0086,0,0,1,.48847.52523c.35169.41993.73336.81122,1.11767,1.20047.11193.11337.25048.21161.25806.39424a.4118.4118,0,0,0,.1056.10183l-.00405-.007c.27266.72682.40458,1.49247.61038,2.23775.12023.43538.22915.87311.35744,1.30727a3.14546,3.14546,0,0,1-.16863,1.94377,20.06867,20.06867,0,0,1-1.36068,3.36055,17.75161,17.75161,0,0,1-1.16671,1.65752c-.57269.7803-1.12363,1.57745-1.63278,2.40453a17.55683,17.55683,0,0,1-1.29681,1.62637,3.69377,3.69377,0,0,0-.76769.97559,3.99961,3.99961,0,0,1-1.22836,1.32311.36567.36567,0,0,0-.28457.22312.384.384,0,0,1-.14368.13619,1.96665,1.96665,0,0,0-.69411.51176c-.74307.734-1.5218,1.42977-2.2893,2.13695-.84032.77429-1.75989,1.45669-2.56254,2.26983a.5782.5782,0,0,1-.09027.08947.47375.47375,0,0,0-.2503.32532c-.51933.54895-1.12168,1.00625-1.67692,1.51557-.32958.30232-.70414.55671-1.031.86809a.88513.88513,0,0,1-.62583.32254,2.28463,2.28463,0,0,0-1.06994.6237,29.05035,29.05035,0,0,1-2.40475,1.7123,3.53526,3.53526,0,0,0-1.06611.89143c-.11425.188-.362.13445-.506.25965-.68218.59306-1.54915.915-2.221,1.52141a2.67846,2.67846,0,0,1-.47216.33762c-1.50637.8586-2.95838,1.80969-4.47081,2.65628-.94243.52754-1.90665,1.0197-2.87947,1.49274a13.85976,13.85976,0,0,1-2.20267-1.7175c-1.208-1.0697-2.48625-2.05453-3.69176-3.126-1.2176-1.08225-2.51-2.07628-3.70444-3.18825-.6-.55857-1.2179-1.10845-1.87037-1.6087a4.83423,4.83423,0,0,1-1.08511-.90822.78834.78834,0,0,0-.942-.14924C34.6258,98.09209,34.43823,98.30711,34.16969,98.18885Z"/><path class="cls-3" d="M34.16969,98.18885c.20376-.00391.336-.16715.51815-.23286a1.06615,1.06615,0,0,1,1.36126.25852c.04494.04481.12681.09416.12459.138-.01523.30065.17308.32133.398.32316.10263.00083.1637.09687.23091.16512a18.0324,18.0324,0,0,0,1.56775,1.39626c.77321.62015,1.45091,1.34535,2.24972,1.93532.40187.29679.74374.70369,1.146.98544.56813.39788.99853.9499,1.599,1.302.31889.18694.52022.51974.82538.74117.48555.35235.94.74869,1.39737,1.13835.34565.29444.67116.61242,1.01377.91057a5.52791,5.52791,0,0,0,.69745.5525c.39113.24189.6676.61218,1.03921.87205.14021-.01179.23938.08594.358.13218a.38034.38034,0,0,0,.40631-.0614,15.24225,15.24225,0,0,1,1.42831-.899c1.15593-.58205,2.175-1.38618,3.293-2.02282.98313-.55985,1.942-1.15888,2.86412-1.802,1.66676-1.16251,3.44932-2.15945,5.00466-3.48413.24026-.20464.46415-.52077.86731-.437.10811.02246.01259-.03811.01845-.056a1.81245,1.81245,0,0,1,.82758-.88483.93544.93544,0,0,0,.5216-.31389c.93574-.79336,1.8584-1.60216,2.7854-2.40583.05325-.13967.18-.20718.28793-.29318l-.00123.0013c.5828-.4872,1.27236-.83129,1.83331-1.345a40.48234,40.48234,0,0,0,3.801-3.7175.111.111,0,0,0,.08855-.09129.71228.71228,0,0,1,.2902-.198c.035-.05242.05822-.123.10679-.15453a7.1871,7.1871,0,0,0,1.56-1.90833.65773.65773,0,0,1,.27465-.25354,1.04193,1.04193,0,0,1,.23723,1.4235A13.759,13.759,0,0,1,74.153,91.5375c-.28775.40956-.59407.80808-.90809,1.19944-.053.06606-.175.13118-.087.23939.43711.5374.02572,1.03659-.08813,1.53795-.03108.13688-.10331.28875-.14181.43878-.59458,2.31737-1.3031,4.6-2.1023,6.8544-.19985.56374-.32012,1.152-.5552,1.70529a2.99564,2.99564,0,0,1-.26369.51327,2.62782,2.62782,0,0,1-.77621.7215c-.66576.39182-1.2195.9412-1.85908,1.36973-.38388.25719-.63419.68487-1.09511.83716-.09361.396-.50632.37674-.76229.54838-.26542.178-.5078.38751-.7789.55779-.88291.55455-1.74837,1.13735-2.63867,1.6795-.52432.31929-1.038.655-1.59032.93462-.61691.31232-1.17775.7325-1.80673,1.03374a.93154.93154,0,0,0-.359.37855,2.00781,2.00781,0,0,1-1.34527.88112c-.62837.159-1.25988.02417-1.88809.13757a1.8024,1.8024,0,0,1-.88348-.16166,3.65026,3.65026,0,0,0-1.24137-.2879.509.509,0,0,1-.14494-.002c-.91383-.32188-1.89728-.32511-2.816-.60209-.62983-.18989-1.26434-.37012-1.88759-.58369-.30777-.10547-.48525-.39-.75349-.55078-.03566-.02138-.07712-.09047-.06711-.122.13055-.4104-.26336-.47044-.44765-.65556-.47715-.47934-1.06751-.829-1.56564-1.27765-.75455-.67961-1.48647-1.384-2.29413-2.00161-.63271-.48383-1.23615-1.00965-1.827-1.53493a9.61443,9.61443,0,0,1-1.60175-1.43124c-.1776-.24637-.5036-.35728-.73514-.58134-.702-.67942-1.42759-1.33628-2.16972-1.97191-.44039-.37718-.83673-.79834-1.26608-1.18116-.425-.3789-.80276-.79663-1.20166-1.19711C33.84627,98.60366,33.84132,98.6086,34.16969,98.18885Z"/><path class="cls-4" d="M70.00673,104.026c.2535-.8681.54373-1.724.82772-2.58227a4.66755,4.66755,0,0,0,.47583-1.67447,7.43069,7.43069,0,0,0,.737-2.21054,9.26417,9.26417,0,0,0,.53339-1.82279c.24784-.24205.00371-.65448.27461-.863.17507-.13477-.33276-.21389.001-.28.24761-.04907.12111-.2664.205-.38687.08811-.12655.02181-.29416.08036-.4215a2.34937,2.34937,0,0,0,.08707-.47064c.04442-.17982.07129-.30731-.18382-.19763a.13556.13556,0,0,1-.17628-.02694c-.06561-.09031.00751-.14813.06327-.2022a10.67592,10.67592,0,0,0,1.24394-1.58783,14.40365,14.40365,0,0,0,.91987-1.4458,1.23608,1.23608,0,0,0-.1415-1.37386c.38981-.45852.764-.93188,1.13019-1.4071.46327-.60118.84351-1.26629,1.26054-1.90318.42239-.64507.95542-1.21127,1.333-1.88964.14659-.26336.39754-.4493.48844-.769a3.51255,3.51255,0,0,1,.43541-.85682,4.61577,4.61577,0,0,0,.31842-.9451,15.278,15.278,0,0,0,.6332-1.756c.08281-.36107-.02413-.74164.13771-1.09092a.19453.19453,0,0,0-.0245-.13881,21.8969,21.8969,0,0,1-.78191-2.75462,3.039,3.039,0,0,1-.1548-.98768c.31464.40456.76743.69062.97528,1.19073.11569.27836.43343.38835.60315.65759a13.33677,13.33677,0,0,0,1.03833,1.30849,6.252,6.252,0,0,1,.436.56067,2.98028,2.98028,0,0,0,.38335.59309c.31769.38869.39086.91919.78784,1.25188.0888.07442.11362.22439.16983.33863.32587.66232.78685,1.25208,1.05711,1.94289.10315.26369.44642.39609.3904.73938a1.49949,1.49949,0,0,1,.05487,1.439c-.1599.50324-.244,1.019-.35132,1.52585a8.4087,8.4087,0,0,1-.55662,1.80035,3.877,3.877,0,0,0-.31163.94707,2.98316,2.98316,0,0,1-.58468,1.23064,13.71014,13.71014,0,0,0-.82649,1.46871c-.28216.50684-.71765.89767-1.02021,1.38993a7.08913,7.08913,0,0,0-.387.6479c-.03177.06674-.69491,1.08508-.8409,1.01939-.01423-.00641-.06746.02813-.06974.04752-.06587.56135-.76256.52753-.9393.992-.0247.06493-.18423.08817-.20468.186a1.16015,1.16015,0,0,1-.70714.796c-.37.18026-.56148.53248-.85909.77293-.61618.49782-1.0908,1.1337-1.686,1.65749-.46888.41264-.90589.89155-1.34482,1.35043a4.95267,4.95267,0,0,1-.8282.75665,6.6456,6.6456,0,0,0-1.19213,1.05375c-.22718.24207-.48067.45938-.71125.697a7.70033,7.70033,0,0,1-.64383.491c-.15575.12674-.64686.4364-.81445.59521A2.56058,2.56058,0,0,1,70.00673,104.026Z"/><path class="cls-3" d="M65.92372,60.38269a1.121,1.121,0,0,1-.37569-.20845c-.884-.72356-1.76187-1.45522-2.66253-2.15756a5.1826,5.1826,0,0,1-.562-.56872,3.586,3.586,0,0,0-1.10105-.90674c-.21953-.09726-.27749-.30453-.40615-.46236-.10892-.13361.02073-.23345.08486-.342.293-.496.65536-.95289.92637-1.45494a13.41854,13.41854,0,0,1,.90275-1.25977,7.501,7.501,0,0,0,.82013-1.168,5.322,5.322,0,0,1,.67668-.85137,13.12328,13.12328,0,0,0,1.33123-2.09909,7.38557,7.38557,0,0,1,.66517-.97833,11.15044,11.15044,0,0,0,.84829-1.3066c.484-.97621,1.01586-1.92462,1.54087-2.87789.16338-.29666.474-.50647.47942-.90732.00181-.13278.25509-.193.36132-.355.15089-.23.23126-.488.3737-.7206a33.49453,33.49453,0,0,0,1.72686-3.143c.23508-.49619.531-.96941.77043-1.47a.83622.83622,0,0,0,.117-.40445c-.00518-.13073.08144-.1593.18925-.15949.13791.20195.07733.4393.1127.659a22.9962,22.9962,0,0,1,.32172,2.75346c.04933,1.32957.3774,2.61877.384,3.94227a2.33119,2.33119,0,0,0,.20589,1.038c.08489.17334.1551.35528-.02141.53641-.11669.11974-.03625.27731-.0223.41913a1.94559,1.94559,0,0,1-.0985,1.04742c-.33112.63006-.75336,1.20379-1.11976,1.81181-.32441.53835-.62888,1.08872-.942,1.63387-.0957.16661-.18014.34107-.29031.49745-.06553.093-.13975.23266-.30315.09113-.08578-.07429-.18829-.0397-.22554.07637-.03526.10991-.05767.24753.10007.26889.18895.02557.15889.08838.08562.2147-.34578.59616-.6793,1.19946-1.02782,1.794a.431.431,0,0,1-.24348.22515c-.06851.01721-.12466.03671-.139.10755-.15.7387-.80424,1.18786-1.068,1.86383-.1103.28265-.39052.44615-.56639.68726-.20271.27791-.52681.47539-.515.89161.00257.09068-.18041.176-.25088.28177-.117.17563-.39727.2939-.21667.58989.04357.07141-.035.15794-.09953.20184a1.22094,1.22094,0,0,0-.40525.8144,1.5543,1.5543,0,0,1-.25642.65864A.67763.67763,0,0,0,65.92372,60.38269Z"/><path class="cls-4" d="M73.51279,46.97671a5.68387,5.68387,0,0,0-.08919-1.34588c-.0202-.06205-.13487-.295.14966-.22614.10071.02438.13393-.06323.07661-.15523-.04247-.06817-.11474-.12764-.131-.20052a4.0798,4.0798,0,0,1-.19838-.83146,22.968,22.968,0,0,0-.21237-2.39173,9.30453,9.30453,0,0,1-.19663-1.42539c.00282-.12754-.06559-.23992.09154-.31715.10787-.053.03042-.0738-.02208-.114-.2311-.177-.20993-.4623-.23638-.69931-.02614-.23433.13533-.45984.00093-.73138a1.51554,1.51554,0,0,1-.10325-.73139,4.59933,4.59933,0,0,1-.01157-1.2261c.21445-.39315.43186-.78474.64175-1.18032a.75348.75348,0,0,0,.13775-.453.34592.34592,0,0,1,.10476-.31072,1.73485,1.73485,0,0,0,.57474-1.16373c.22756.13567.00838.34448.0832.52114.06351.15-.0201.384.20713.43467a.48038.48038,0,0,0,.4586-.20374c.18257-.22106.35433-.452.51769-.68779a7.24192,7.24192,0,0,0,.87988-2.38985c.21265-.80713.31325-1.6328.45436-2.44934a8.6274,8.6274,0,0,0,.11014-2.33737c-.00521-.05141-.08858-.11206.00774-.14906.05836-.02242.071.0416.09511.08164.51317.85054.99932,1.71764,1.56342,2.53693a17.29071,17.29071,0,0,1,1.00172,1.8523c.1768.33854.32586.70727.49466,1.06017a.70834.70834,0,0,1,.03887.47209c-.10439.33785-.11905.69916-.2306,1.02331-.25744.74814-.41363,1.52667-.7175,2.26067-.29344.70884-.49469,1.45393-.857,2.13732a4.24077,4.24077,0,0,0-.21818.66969c-.01184.036.00263.15206-.09438.04929-.04353-.0461-.2161.67976-.35363.96524-.28027.58174-.51687,1.18631-.82425,1.75284-.58272,1.074-1.10709,2.17893-1.737,3.22839-.29767.496-.46424,1.06237-.783,1.55264C73.949,46.22,73.7365,46.602,73.51279,46.97671Z"/><path class="cls-5" d="M30.4162,20.77964c.0536.124.217.111.29116.22112-.6.36334-1.19388.73991-1.79,1.09786a5.69134,5.69134,0,0,0-1.73048,1.80776c-.47385.69156-.2521,1.24546.52548,1.6146.74871.35543,1.57856.47806,2.31487.85267a6.97679,6.97679,0,0,1,1.31152.70129c.20843.16784.49212.26383.64.50963.20211.336.58841.53981.65358.98211.02384.16185.1098.2879-.07929.38773.19741.07062.10119.22961.09575.351a3.3747,3.3747,0,0,1-.04149.76917.46638.46638,0,0,1-.154.28572c-.2114.152-.4108.2964-.249.60749.03651.07021-.03128.14516-.11327.18822a.35964.35964,0,0,0-.13993.12846c-.30046.51922-.51621.78659-.81571.84323-.3826.07234-.68685.43914-1.12271.29283-.33256.21244-.59376-.08224-.89066-.123-.10929-.015-.10146-.10791-.14563-.1681-.08165-.11129.16814-.10282.07191-.22122-.09054-.11138-.19156.0398-.25593-.00966A.4659.4659,0,0,1,28.619,31.432c.10621-.6149.23027-1.2268.33034-1.84264a1.94065,1.94065,0,0,0-.61386-1.68242,7.68891,7.68891,0,0,0-2.04287-.93743,6.62152,6.62152,0,0,1-1.65141-.71189c-.069-.05423-.15565-.0376-.22754-.06515-.234-.08967-.271-.24955-.07964-.396a1.476,1.476,0,0,0,.18852-.21139c.06156-.06735.15736-.15127.03987-.23834-.08815-.06533-.17457-.01171-.2593.05149-.50687.378-.47469.35845-.75891-.18871-.28767-.55378.00951-.99664.20111-1.44929a3.97,3.97,0,0,1,.64594-.89147A10.62991,10.62991,0,0,1,26.624,21.07161c.24062-.17214.569-.20585.81406-.40146.19889-.15877.323.18066.50056.1022.16846-.07446-.01046-.3508.23363-.42977a4.85176,4.85176,0,0,1,.89208-.16444,9.4203,9.4203,0,0,1,1.23465-.012,1.36353,1.36353,0,0,1,.65993.26811c.09212.05286.11782.162-.02941.20659C30.76035,20.69211,30.58827,20.73358,30.4162,20.77964Z"/><path class="cls-1" d="M54.55342,19.96844c-.40434.06272-.67712-.19882-.968-.363-.25171-.14205-.2335-.64166-.07789-.973a5.08043,5.08043,0,0,0,.57351-2.06472,1.70618,1.70618,0,0,0-.29959-.995,4.61128,4.61128,0,0,0-.9968-1.15944,3.75669,3.75669,0,0,1-.69551-1.01247c-.04142-.06174.0254-.29633.04479-.448a2.33522,2.33522,0,0,1,.45627-1.48833,7.41086,7.41086,0,0,1,1.77444-1.68718c.19089-.1034.238-.30476.43939-.41774.61717-.34625,1.20268-.74785,1.84513-1.05519.30542-.14611.64-.19974.94228-.34593a.1343.1343,0,0,1,.17578.02289c.12.15505.21169.08941.30431-.02589a.55174.55174,0,0,1,.68943-.17175,4.04415,4.04415,0,0,0,.7034.139c.14773.02386.1.08819.03612.14845-.07147.06742-.27142.14241.02416.1438.06476.00031.12953.0006.19429.00128.06575.00069.1332.00675.162.07637a.17234.17234,0,0,1-.04907.2196c-.19411.11945-.33413.32679-.52505.41779a21.491,21.491,0,0,0-2.22,1.54681c-.20237.12944-.31326.40335-.51563.58988a3.5122,3.5122,0,0,0-.8203.99605,1.20283,1.20283,0,0,0,.14579,1.44589c.29974.32969.51894.73468.831,1.03816a3.503,3.503,0,0,1,.72384.93663c.13861.27407.15866.26473-.1198.309a1.15869,1.15869,0,0,0-.18964.02281.17451.17451,0,0,0-.09874.095c-.019.05791.03939.06427.08358.07746.09172.02738.18029.06576.27255.09087.36106.09828.42528.14229.34954.4801-.05209.23232.01665.53116-.25618.689-.03645.02109-.10126.04546-.05082.10408.33649.39115-.07838.64124-.1885.93883a2.57212,2.57212,0,0,1-.42281.78129,1.994,1.994,0,0,1-1.076.67727A3.47691,3.47691,0,0,1,54.55342,19.96844Z"/><path class="cls-1" d="M25.79731,49.60379c.42941.059.40786.47766.579.73935a3.18985,3.18985,0,0,1,.14133.40468c.08734.18779.09333.3123-.16366.31057-.04288-.00029-.09944.0074-.09463.05837.00169.01789.08161.0275.12526.04248.28413.09753.35515.19428.25165.44422a.45168.45168,0,0,0,.00835.51354c.122.18054-.00855.33-.25335.29465l-.03813-.02066.01983.03856c.1012.2929-.07435.70628-.30571.64629-.36049-.09348-.46948.212-.68861.32258-.35423.17867-.32564.19-.676-.03439a7.265,7.265,0,0,0-.69566-.28688c-.27833-.13867-.56344-.281-.64673-.63171-.02036-.08574-.20947.03005-.21076-.15954-.00078-.11447-.11125-.2269-.1678-.34252a8.024,8.024,0,0,1-.48615-1.036,4.42688,4.42688,0,0,0-.84565-1.48235,4.55252,4.55252,0,0,0-1.07459-.88062c-.70447-.43546-1.44952-.81671-2.10527-1.31567a1.94922,1.94922,0,0,1-.93691-1.51159.23269.23269,0,0,0-.00594-.09612A2.81742,2.81742,0,0,1,17.59228,43.57a.17235.17235,0,0,1,.2499-.12569c.1056.03615.20414.09374.31057.12619a.1404.1404,0,0,0,.12508-.04465.14351.14351,0,0,0-.01837-.12867,2.64952,2.64952,0,0,0-.19563-.21477c-.24252-.26069-.21886-.24558-.0227-.55171.14816-.23122.43328-.2514.58326-.45894.015-.0207.05693-.02733.08739-.03046.14117-.01447.21836.23821.2529.17554.07078-.12839.11869-.21167.2751-.19981.11265.00854.22627.00488.33946.00554.12941.00075.25885.00211.38822-.00015a1.018,1.018,0,0,1,.46958.08086.84955.84955,0,0,1,.39642.67056c-.003.01588-.0007.0434-.00822.04628-.4353.16663-.249.36712-.03713.57761.07.0695-.00365.14594-.01428.22092-.01918.13536-.10923.25452-.05123.412.06058.16449-.00139.24642-.19732.17011-.13722-.05343-.20919.06336-.11191.138.55771.4279.42657,1.25333.98914,1.68491.07817.06.14863.19138.25677.24737a9.93252,9.93252,0,0,0,1.34671.72829c.14075.04748.19932.14657.11153.30375-.05.08953.01672.1862.10234.1116.24966-.21753.4203-.02332.616.079a11.70481,11.70481,0,0,1,1.36593,1.06079,1.52519,1.52519,0,0,1,.377.42468.66645.66645,0,0,0,.26786.25893c.26058.13069-.05829.17162-.04869.2663Z"/><path class="cls-1" d="M88.27778,48.05987c-.24677.33589-.6559.43436-.98365.64814a4.0098,4.0098,0,0,0-1.43584,1.37591,1.78933,1.78933,0,0,0-.166,1.1933,10.70986,10.70986,0,0,0,.71224,1.75462,4.58936,4.58936,0,0,1,.3835,2.20949,1.74418,1.74418,0,0,1-.53574.9824c-.36524.34887-.69365.73581-1.08333,1.06576a8.27778,8.27778,0,0,0-.90425.63138.10378.10378,0,0,1-.08778.02975c-.27165-.10288-.42332-.05224-.38435.27779a.13228.13228,0,0,1-.08117.10085,10.70231,10.70231,0,0,1-1.81338.4178,1.56434,1.56434,0,0,1-.73022-.21253.56335.56335,0,0,1-.03675-.979,3.24992,3.24992,0,0,0,.72605-.83218c.2475-.34578.58353-.59106.85067-.90963a2.83464,2.83464,0,0,0,.45688-1.03808.36806.36806,0,0,0-.04842-.27188A1.46748,1.46748,0,0,1,83.029,53.888a.57532.57532,0,0,0-.0647-.32637,12.15408,12.15408,0,0,1-.57142-1.5078,5.47142,5.47142,0,0,1-.17217-1.467.71965.71965,0,0,1,.1771-.53069,6.02133,6.02133,0,0,0,.47416-.74678c.14413-.2351.38571-.58757.80884-.4518.1366.04384.13511-.05716.11966-.12576-.05271-.23406.12806-.30816.26643-.40665A6.29625,6.29625,0,0,1,87.125,47.04093a4.79685,4.79685,0,0,1,1.48877.06741.12873.12873,0,0,1,.08618.19044.29614.29614,0,0,1-.10774.11535,1.10939,1.10939,0,0,1-.13657.07227.43768.43768,0,0,1-.09117.03179c-.01158.06977.09543.07133.08141.14262A.45765.45765,0,0,1,88.27778,48.05987Z"/><path class="cls-5" d="M90.21116,23.76068a8.91271,8.91271,0,0,1-2.12331-.28323c-.04465-.01649-.11746-.00811-.13428-.03661-.02575-.04363.04173-.0557.07034-.08294.0699-.06658.23732-.10928.10293-.25281-.13255-.14158-.36278-.15011-.422.00949-.08387.22621-.19311.11535-.29161.06051a1.71371,1.71371,0,0,1-.67919-.94936.8554.8554,0,0,1-.11262-.46046c.01695-.1037-.02929-.21567.16634-.18257.08117.01373.17515-.12379-.008-.15566a.15608.15608,0,0,1-.15153-.19545,4.45284,4.45284,0,0,1,.02563-.95735c.18529-.51071.15847-1.13883.49691-1.52781.4164-.47858.51993-1.18934,1.14067-1.49787.0694-.31124.34688-.4776.50454-.72636a.88823.88823,0,0,1,.81028-.42912,2.7175,2.7175,0,0,1,1.51135.171c.10714.06753.32859-.00152.34443.18476a.87223.87223,0,0,1-.09539.51523c-.44087.68241-.8234,1.39836-1.23863,2.09522a3.28441,3.28441,0,0,0-.26589,1.12744,3.18469,3.18469,0,0,0-.08727,1.219c.06008.30263.19991.57769.256.88481a.44175.44175,0,0,0,.479.3121,12.88126,12.88126,0,0,1,2.48439.201A4.00577,4.00577,0,0,1,95.297,24.00923a3.41346,3.41346,0,0,1,.52227.85075c.044.093.06812.18318-.04.25019-.0325.02015-.11289.0395-.06526.07546.374.28245.1049.662.15083.99079.04722.33819-.24066.57746-.35639.8711a1.49225,1.49225,0,0,1-.9345.81175c-.15795.06063-.34938.06613-.47452.215-.05467.065-.14687.0531-.22786.05885A1.191,1.191,0,0,1,92.6,26.803a12.11229,12.11229,0,0,1,.01648-1.45334c-.32214-.60815-.54329-1.31514-1.393-1.40136-.17422-.01768-.269-.22576-.479-.19318A3.51451,3.51451,0,0,1,90.21116,23.76068Z"/><path class="cls-5" d="M104.99119,58.44787a.92324.92324,0,0,1-.28042-.81308,5.9594,5.9594,0,0,1,.50637-1.93017,5.57885,5.57885,0,0,1,1.02908-1.46232c.08577-.08859.16687-.07478.21324.05594.03651.103.08627.20126.13767.31891.01891-.05178.03123-.07909.03892-.10764.0466-.17323-.10921-.40973-.01932-.49371a1.11783,1.11783,0,0,1,.72021-.18846,8.904,8.904,0,0,1,.9761-.02668,2.96886,2.96886,0,0,1,.45471.09593c.14388.03134.2301.1104.049.2509-.24739.192-.25376.23.00691.37425.2573.14238.24335.2385.08942.4727a7.39557,7.39557,0,0,0-.72253,1.65074,2.27171,2.27171,0,0,0,.04758,1.5409,1.61611,1.61611,0,0,0,.811.96148,3.17932,3.17932,0,0,1,.69047.4756,2.96867,2.96867,0,0,0,.75914.48383,4.51638,4.51638,0,0,1,1.03675.831,2.1225,2.1225,0,0,1,.65719,1.0292,1.8226,1.8226,0,0,1-.068,1.43539c-.07392.14827.112.26408-.01976.40431-.12619.13434-.18862.33162-.43921.27442-.09089-.02076-.22274.01627-.21449.13415.006.08587.13.05838.20389.05784.19645-.00142.23971.03048.15721.25159a2.49055,2.49055,0,0,1-2.49969,1.39367,1.02658,1.02658,0,0,1-.81481-.77875,3.47925,3.47925,0,0,1,.15109-1.51625c.08027-.22951.10306-.47933.45146-.43944.08178.00937.16612-.097.1597-.21045a.15494.15494,0,0,0-.19588-.15876c-.27691.05647-.28922-.10873-.28256-.30669a1.32055,1.32055,0,0,0-.5121-1.05338,9.71955,9.71955,0,0,0-1.97719-1.48058,9.56048,9.56048,0,0,1-1.09494-.9348.32125.32125,0,0,1-.09624-.165c-.02993-.10727-.13486-.25226.11586-.25014.068.00057.2182-.03962.192-.14552-.01824-.07375-.14523-.12324-.24822-.10533a.92375.92375,0,0,0-.17625.06836Z"/><path class="cls-5" d="M12.49313,76.9028a9.85133,9.85133,0,0,1-.96126-.23949c-.23193-.081-.24775-.33394-.0633-.50256a.26181.26181,0,0,1,.08472-.04324,4.62727,4.62727,0,0,0,1.89944-1.74245,4.86014,4.86014,0,0,0,.86528-2.10415c.13605-.70458-.25551-1.13909-1.07494-1.3866a12.54255,12.54255,0,0,1-2.17509-.86307,1.83364,1.83364,0,0,1-.56379-.51645c-.19361-.23977-.14241-.40467.12677-.685.1011-.1053.29887-.20047.01608-.33368-.096-.04522-.0825-.131-.05593-.244a1.74481,1.74481,0,0,1,.36726-.66466,2.55393,2.55393,0,0,1,1.29865-.90288c.33663-.1.68218-.15062,1.01874-.24728a.82063.82063,0,0,1,.83388.52437.80034.80034,0,0,1,.05495.791,3.44405,3.44405,0,0,0-.2744,1.1045c-.02983.18643.30376.56221.53725.62849a11.24356,11.24356,0,0,1,2.3447.87106,2.75219,2.75219,0,0,1,.74828.77319.73047.73047,0,0,1,.0852.54085,5.552,5.552,0,0,0-.07836.89179c.00856.2455.01787.538-.35507.56777-.04263.0034-.10669.04139-.0435.07857.26139.15379.01989.30426-.03289.38939a9.73355,9.73355,0,0,1-1.36512,1.83593,6.609,6.609,0,0,1-1.78417,1.16191A7.98971,7.98971,0,0,1,12.49313,76.9028Z"/><path class="cls-1" d="M98.13037,82.92618c.0527.008.16768-.00895.20466.03694a.41471.41471,0,0,0,.61746.07969c.12047-.0704.23534.08323.3667.08435.03929.00033.10325.01964.04752.0807-.05353.05864-.22129.06626-.13.183.05938.076.17617-.0139.26514-.049.11962-.04718.24682-.02792.2823.09911.032.1145-.088.146-.183.1681-.03774.00879-.106-.0005-.08324.06178.00977.02677.08574.0246.12609.046.07078.03759.02587.07227-.01485.08744-.301.11211-.52124.44163-.91.334-.03365-.00931-.30856.0176-.10144.20617-.11489.05171-.16113.17315-.27478.24145a5.893,5.893,0,0,0-1.03636.67382,1.26538,1.26538,0,0,0-.19355,1.597,6.37861,6.37861,0,0,1,.93349,2.0133.34773.34773,0,0,1,.02863.185,3.95469,3.95469,0,0,1-1.01871,1.89569,6.93041,6.93041,0,0,1-1.6216,1.16742,1.424,1.424,0,0,1-1.20029.16406,1.00531,1.00531,0,0,0-.43194-.02212c-.25835.02121-.41843-.15726-.58921-.28989a.28436.28436,0,0,1,.05733-.45545c.118-.08218.25933-.13143.375-.21613.09853-.07213.24258-.1753-.03086-.22166-.11246-.01906-.079-.11246-.03944-.18994a5.52236,5.52236,0,0,1,.34106-.66351,3.67926,3.67926,0,0,0,.43733-1.10994.608.608,0,0,0-.10783-.70931c-.12134-.109-.06457-.32265-.13776-.49238-.12174-.28229-.38331-.45766-.47962-.74454-.08043-.23955-.28342-.45945-.10886-.73659.01348-.0214.03532-.05045.02982-.069-.12759-.43123-.1198-.42861-.03829-.7091a2.00058,2.00058,0,0,1,.77273-1.07984,8.15616,8.15616,0,0,1,1.75251-1.04729c.61186-.22848,1.247-.39488,1.873-.58474A1.073,1.073,0,0,1,98.13037,82.92618Z"/><path class="cls-5" d="M6.94865,32.117c.12812.07194.3225-.10862.34031-.03207.03828.16452.14782.28762.18741.45668a4.38581,4.38581,0,0,1-.08764,1.67951c-.01529.10449.01692.364-.25385.33012-.04571-.00572-.051.04393-.05717.09678a1.51533,1.51533,0,0,1-1.148,1.26251c-.3163.06637-.68044.01835-.92145.31857-.03437.04281-.09293.016-.09625-.039-.01774-.29477-.28951-.2209-.44036-.27228a.70289.70289,0,0,1-.55-.64594,5.36414,5.36414,0,0,1-.01555-1.14763,5.04224,5.04224,0,0,0,.03274-1.70986,1.055,1.055,0,0,0-.55144-.75542c-.56381-.25669-.9404-.77318-1.50566-1.01772-.062-.02681-.10076-.11994-.13764-.18906-.05823-.10911.01675-.3238-.23172-.27849-.02016.00368-.071-.03849-.06925-.05524.03617-.33743-.32182-.56435-.23666-.928a2.72582,2.72582,0,0,1,.37427-1.02281c.13926-.19627.30225.0859.36177-.0636.06227-.15637-.19768-.1826-.19785-.33133,0-.03785.05969-.07335.08551-.114a2.21516,2.21516,0,0,1,1.86153-1.08834,6.83734,6.83734,0,0,1,1.30668.078c.28168.03895.08362.34692.34209.40354.1261.02763.01769.29283-.11315.46946a4.87164,4.87164,0,0,0-.673,1.3183,1.31457,1.31457,0,0,0,.68433,1.44424A9.54531,9.54531,0,0,1,6.84342,31.3776c.319.27586.33338.38859.10318.73747Z"/><path class="cls-2" d="M14.869,20.74673a2.19678,2.19678,0,0,1-1.13246-.201c-.16614-.04621-.22736-.222-.34742-.325-.18384-.15779-.03443-.28671.01658-.42557.0164-.04464.07137-.10893.05857-.1255-.24324-.31482.14391-.52994.1306-.81208a.28313.28313,0,0,1,.2039-.24238,4.46221,4.46221,0,0,1,2.00347-.17068.72971.72971,0,0,1,.69268.51979c.01949.0848.10728.11012.18266.14341.11287.04985.13245.19415.07489.24082-.2249.1823-.14313.46992-.2699.68205a1.40891,1.40891,0,0,1-1.00639.71142A4.10433,4.10433,0,0,1,14.869,20.74673Z"/><path class="cls-2" d="M4.9612,55.86156a1.35909,1.35909,0,0,0-.12984-.102c-.16085-.10139-.14275-.22334.00186-.29472A2.44508,2.44508,0,0,1,6.923,55.2c.37492.1443.66159.4094,1.02907.53946.09428.03337.08381.13289.11122.22024.07811.249-.01232.284-.218.2483-.11081-.01923-.22084-.04322-.3307-.06745-.06488-.01431-.13516-.02431-.15971.05091-.02621.08032.05358.09764.103.13643.38993.30585.37726.28808-.05879.55594a3.05385,3.05385,0,0,1-2.05554.2527c-.26129-.02964-.45646-.26715-.73845-.31546-.19143-.03278-.27794-.23283-.2815-.4415a.70707.70707,0,0,1,.19476-.5232C4.64195,55.734,4.76988,56.00354,4.9612,55.86156Z"/><path class="cls-2" d="M78.75737,6.369a2.10936,2.10936,0,0,1,.80516.08887c.20644.08766.36131.15242.20614.4102a.23176.23176,0,0,0,.14381.37975c.42529.11489.26827.4833.295.731.02217.20553-.17643.3744-.3928.49342a3.09989,3.09989,0,0,1-1.56415.22133,1.55982,1.55982,0,0,1-.89689-.29155.639.639,0,0,1-.11895-.14748c.06034-.01343.12207-.02261.18058-.04165.04613-.015.14308.02829.11885-.07706-.00873-.03795-.0613-.07394-.10206-.09484-.1161-.05953-.33405.04592-.35447-.06053a1.42305,1.42305,0,0,1,.05637-.601,1.27133,1.27133,0,0,1,1.33249-1.0098C78.5633,6.36627,78.66038,6.36922,78.75737,6.369Z"/><path class="cls-2" d="M94.00344,66.21594a1.876,1.876,0,0,1,.001-.19344c.0354-.33979.03966-.34373.35814-.26443.07255.01807.15336.09257.205-.00466.032-.06032-.047-.11024-.08411-.16145-.21866-.30171-.18995-.36377.16964-.44288a7.5653,7.5653,0,0,1,1.37505-.16424,1.04449,1.04449,0,0,1,.54478.13966,1.0096,1.0096,0,0,0,.31042.11816c.47171.09573.60948.30862.48452.76775-.03179.1168-.10926.16972-.32056.21212-.08774.0176-.1089.03463-.02431.10069.14746.11515.09071.19991-.04232.29162a1.77529,1.77529,0,0,1-1.03811.353,4.81574,4.81574,0,0,1-1.3815-.06233C94.13269,66.7844,94.00529,66.64953,94.00344,66.21594Z"/><path class="cls-2" d="M101.576,39.30533a3.641,3.641,0,0,1-1.024-.11113.73452.73452,0,0,1-.60689-.49664.72339.72339,0,0,1,.22852-.74645,2.4483,2.4483,0,0,1,1.48794-.54569c.07653-.00806.1622.04252.2342.02565.12142-.02847.20692-.16129.35112-.13807.084.01353.01918.26261.19389.13166.161-.12071.22418.04.32711.09457.09848.05224.20732.08611.30249.14324a.50528.50528,0,0,1,.20792.59662c-.023.06723-.04614.1386.03155.15555.464.10129.10458.26876.01427.35786A2.15639,2.15639,0,0,1,101.576,39.30533Z"/><path class="cls-2" d="M18.0289,85.17242a.90176.90176,0,0,0-.65645.16309c.155.00924.26992.01488.38467.02333.0913.00672.21094-.02911.24823.08839a.32143.32143,0,0,1-.07887.35492,1.90988,1.90988,0,0,1-.7473.5015,7.1574,7.1574,0,0,1-1.457.21329c-.17944.01413-.32661-.04513-.31129-.26548.01646-.23681-.05024-.2716-.2356-.121-.07507.061-.127.248-.25321.13841-.17153-.149-.47286-.18088-.48743-.48208-.01012-.20923-.00345-.41929-.00316-.629a.22193.22193,0,0,1,.16017-.22029c.28417-.07811.51228-.31276.8419-.27131.27034.034.52579-.12268.80661-.08939a3.23974,3.23974,0,0,0,.60966.07313,5.99219,5.99219,0,0,1,.64516.1361C17.73277,84.805,17.809,85.08233,18.0289,85.17242Z"/><path class="cls-2" d="M116.8276,42.07081a4.70976,4.70976,0,0,1,1.74388.13038c.3015.03672.39105.30713.58016.46652a.14255.14255,0,0,1,.01093.13607c-.22043.35195-.35165.78729-.84476.88529-.2332.04635-.45765.1395-.69155.17908a3.35931,3.35931,0,0,1-1.887-.21747.4981.4981,0,0,1-.24506-.5767c.0617-.21756.13528-.441.44959-.36717.05284.01241.15258-.00412.16761-.03651.03235-.06977-.04875-.11064-.10167-.13817-.07428-.03861-.16611-.06545-.04244-.14677A2.95078,2.95078,0,0,1,116.8276,42.07081Z"/><path class="cls-2" d="M41.47854,35.94048c.13248-.03033.2428-.04851.34722-.084.02919-.00992.041-.071.06076-.10859a.44636.44636,0,0,0-.08785-.03154.181.181,0,0,0-.0957.00555c-.1677.07634-.32889.10846-.34932-.139-.01505-.18238-.14033-.47042.2228-.44544.25144.01729-.04038-.156.11186-.21889a5.0641,5.0641,0,0,1,1.34024-.41592,1.89439,1.89439,0,0,1,.89123.16235c.08966.03621.14915.10678.04825.21884-.10806.12-.317.24913-.22507.41268.09684.17227.30772.08328.4821.035.13769-.03816.23945-.03313.18306.19342-.13971.56122-.33442.69134-.93471.79954a3.30761,3.30761,0,0,1-1.234-.02523A1.63254,1.63254,0,0,1,41.47854,35.94048Z"/><path class="cls-5" d="M88.57252,47.32448l.12743-.0257a2.10878,2.10878,0,0,1,.24565.14329c.1526.11765.15984.231-.02851.32566a2.50106,2.50106,0,0,1-.63931.29214c-.01312-.17488.13614-.3181.0971-.498q-.054-.03273-.0345-.06276c.0126-.01952.02519-.02933.03791-.02933l-.00456.00226C88.43143,47.41129,88.54115,47.42065,88.57252,47.32448Z"/><path class="cls-4" d="M79.734,73.98775a.10759.10759,0,0,1-.1056-.10183A.12249.12249,0,0,1,79.734,73.98775Z"/><path class="cls-5" d="M104.98462,58.44175l-.02955.06808c-.06424-.06511.02338-.04171.03612-.062Z"/><path class="cls-6" d="M10.54178,92.74308l-.13462-.03141c.01336-.01808.02559-.05054.04026-.05168a.08908.08908,0,0,1,.09618.08126Z"/><path class="cls-6" d="M10.055,89.92245,10.021,89.989c-.06-.06449.02027-.04483.03772-.06286Z"/><path class="cls-6" d="M10.64163,92.83774a.11172.11172,0,0,1-.09985-.09466l.00182-.00183a.10046.10046,0,0,1,.09444.1Z"/><path class="cls-7" d="M29.00433,82.15213c.22319-.50916.43258-1.02494.673-1.52587.33-.68766.74563-1.32824,1.13779-1.98134a4.27973,4.27973,0,0,0,.38137-.87549c.09066-.27572.43407-.43554.35439-.78564a7.10919,7.10919,0,0,0,.86052-1.53489.16242.16242,0,0,1,.10511-.0819c.21395-.02139.37674-.0394.06678-.22365-.09615-.05716.00095-.15128.03107-.20735.19421-.36156.40172-.71607.59866-1.07606.19105-.34921.3422-.71361.52237-1.06534.24873-.48558.5072-.96713.78421-1.437a12.29288,12.29288,0,0,1,.6977-1.25206c-.12719-.28147.39486-.18376.28358-.52473-.07483-.22931.185-.443.33916-.647a2.63011,2.63011,0,0,0,.33714-.63919c.087-.22569.251-.4037.34095-.63107A.501.501,0,0,1,36.918,67.373c.25838-.03482.267-.1066.079-.31063-.08426-.09147-.07419-.135-.01465-.23734.376-.64616.75-1.294,1.10221-1.95327.65652-1.22883,1.45163-2.37476,2.12645-3.59438a4.51534,4.51534,0,0,1,1.1209-1.52448.30831.30831,0,0,0,.10077-.15647,8.18817,8.18817,0,0,1,1.0981-1.94074c.51088-.8677,1.13459-1.66385,1.61173-2.55352a4.19419,4.19419,0,0,1,.76119-1.08254,4.2889,4.2889,0,0,0,.64522-.97124c.37234-.57621.77258-1.13553,1.13922-1.71259A7.53,7.53,0,0,0,47.6162,49.8a.50047.50047,0,0,1,.11586-.209,9.726,9.726,0,0,0,1.20469-1.7549.21313.21313,0,0,0,.0484-.08285c.029-.22469.47244-.14255.35812-.32663-.15867-.25551.10226-.29076.11924-.43862a1.4033,1.4033,0,0,1,.263-.503c.253-.43606.55206-.84742.83042-1.27048.7382-1.12192,1.44749-2.26223,2.28229-3.32161.34937-.44336.61736-.96147.944-1.43212a1.599,1.599,0,0,1,.39746-.41947.60069.60069,0,0,0,.2986-.44668,1.67542,1.67542,0,0,1,.35363-.60146c.22381-.312.479-.60581.692-.92041.3456-.51046.76653-.95787,1.12966-1.453a12.32125,12.32125,0,0,1,1.27816-1.55741,5.412,5.412,0,0,0,.764-1.04547c.15256-.24044.40779-.33513.56365-.57511A3.28422,3.28422,0,0,1,60.06359,32.44c.156-.10713.12151-.28364.24351-.39994.37128-.354.64359-.79917.99791-1.165a16.92228,16.92228,0,0,0,1.09343-1.34428c.33961-.43091.755-.787,1.09757-1.215.15107-.18872.3329-.38347.47025-.5787a6.979,6.979,0,0,1,1.674-1.55871c.13855-.10164.10258-.2915.24814-.39365.55016-.38608,1.007-.89219,1.58512-1.24338a1.88814,1.88814,0,0,0,.297-.15764,3.439,3.439,0,0,1,2.00075-.68829,1.47424,1.47424,0,0,1,.70046.11291,3.80875,3.80875,0,0,1,1.67876,1.1791.6265.6265,0,0,1,.161.29112c.03768.62365.3277,1.18819.40615,1.79947a3.42364,3.42364,0,0,1-.04386.8329,11.38833,11.38833,0,0,1-.3493,1.63281c-.04859.17841-.07994.47307-.4228.38246-.05379-.01422-.107.06614-.1238.13122a.07075.07075,0,0,0,.07555.09432c.26629-.06218.22142.07958.14624.22447-.11074.2134-.07725.52359-.42182.585-.1239.02208-.02813.07552.027.08308.18976.026.07782.13283.04981.20153-.37878.92909-.771,1.85282-1.13736,2.78675a4.64988,4.64988,0,0,0-.38059.82066c-.02537.13627-.06974.12486-.17632.03983-.0649-.05176-.13758.06454-.12923.14206a1.91613,1.91613,0,0,1-.49658,1.41268.31077.31077,0,0,0-.06291.11666,14.82086,14.82086,0,0,1-.8893,2.13026c-.05627.12448-.3284.15005-.18125.40908.07236.12737-.15244.2845-.222.43643-.3839.83787-.8874,1.60865-1.328,2.41339-.5149.94034-1.156,1.80239-1.63522,2.76207a5.53163,5.53163,0,0,1-.46028.6733,11.698,11.698,0,0,0-.61981,1.0746c-.14395.25934-.31021.58061-.71787.52764a.07964.07964,0,0,0-.08612.092c.01788.07486.07458.0918.14627.059.0548-.025.11509-.08507.17183-.02169.07785.087-.01538.13865-.05574.20228-.49427.77925-.98579,1.56025-1.481,2.33889-.19422.30537-.41469.59552-.59049.91083-.4547.81547-1.01837,1.56355-1.43611,2.40405-.23306.46893-.6053.86511-.85124,1.33416-.39873.76045-.93979,1.42926-1.3829,2.1611a1.01849,1.01849,0,0,0-.08977.21731c-.04739.14135-.10243.25506-.22924.03365-.10019-.175-.22538-.05029-.22216.05485a3.34188,3.34188,0,0,0,.07146.866c.04985.167.17851-.132.27077.04074a1.0199,1.0199,0,0,0,.2404.291,25.89571,25.89571,0,0,1,2.10442,1.84925c.84572.88869,1.923,1.501,2.73626,2.42929a14.858,14.858,0,0,1,1.11636,1.11132,1.90212,1.90212,0,0,0,.57093.40743c.37861.25407.62368.63743.973.91616a1.31679,1.31679,0,0,0,.25408.18773c.21719.1058.74239.85088.94028.828.01924.31591.3196.378.49781.54989.45274.43681.88729.8953,1.36615,1.30147.6081.51576,1.03246,1.20857,1.69179,1.67673.30783.21858.4557.61482.797.82865a6.30031,6.30031,0,0,1,.59668.66592c.23528.25775.45019.53471.69287.78495a6.83735,6.83735,0,0,0,1.04562,1.1323.5965.5965,0,0,1,.18507.279.76247.76247,0,0,0,.256.3457,2.6786,2.6786,0,0,1,.79563.98982c.3304.5541.72917,1.0696,1.03282,1.63688a12.15609,12.15609,0,0,1,.90446,1.813,3.61738,3.61738,0,0,1,.09943,1.79914,6.0389,6.0389,0,0,0-.12814.854,5.56007,5.56007,0,0,1-.436,1.31472,15.67834,15.67834,0,0,1-1.10562,2.00216c-.0444.10434-.14081.12446-.21493.18139-.06128.04708-.51262.90666-.75454,1.22345-.6556.85851-1.35127,1.68744-2.05284,2.50951a14.61486,14.61486,0,0,1-1.49315,1.55457,7.23425,7.23425,0,0,0-.98365,1.04891,3.30244,3.30244,0,0,1-.53519.54676c-.64647.52481-1.20725,1.14035-1.82374,1.69694-.58923.532-1.14321,1.10286-1.72075,1.6481-.24533.2316-.50546.4503-.76539.66333a8.25372,8.25372,0,0,1-1.23093,1.00191,2.60144,2.60144,0,0,0-.43114.38653,13.13568,13.13568,0,0,1-2.04484,1.56337,3.906,3.906,0,0,0-.57155.53351,23.6014,23.6014,0,0,1-2.05112,1.54945,11.23484,11.23484,0,0,1-2.01027,1.48044,1.6786,1.6786,0,0,0-.49311.43974,9.68507,9.68507,0,0,1-.9389.57144c-.31615.24708-.61293.52844-.94236.74408-.52.34038-1.00766.723-1.51829,1.07435-.62536.43025-1.2899.80168-1.884,1.28015-.2458.198-.5183.36643-.86617.13a.37315.37315,0,0,0-.47115.09691,1.08416,1.08416,0,0,1-1.2117-.02187c-.64851-.53188-1.298-1.06306-1.932-1.61195-.56341-.48774-1.15228-.94349-1.72514-1.41774-.6862-.56811-1.384-1.12158-2.07119-1.68808-.1334-.11-.22885-.26486-.35665-.383-.15054-.13911-.09561-.37775-.26238-.50321-.20633.21914-.364-.02635-.454-.10744-.27773-.25022-.61508-.439-.86223-.70213-.62319-.66354-1.38867-1.15011-2.055-1.75709-.39955-.36394-.837-.68653-1.26012-1.02422-.12063-.09626-.0961-.22667-.11269-.35338-.0266-.20322-.1019-.36891-.33429-.18167-.11342.09139-.16572.03132-.23718-.03817-.18544-.1803-.3729-.35853-.55964-.5375a10.33321,10.33321,0,0,0-1.036-.8767,1.32329,1.32329,0,0,1-.35813-.3904.92.92,0,0,0-.50858-.43564c-.313-.11739-.50164-.47139-.76078-.70849-.66678-.61006-1.36106-1.19118-1.98034-1.85387a7.03184,7.03184,0,0,0-.86989-.76032c-.10849-.08316-.16046-.1971-.2541-.28219-.10483-.09523-.09616-.18369-.00386-.29109.05437-.06327.24716-.10876.09151-.23749-.09352-.07735-.24469-.171-.35068-.05482-.23152.25368-.35954.27565-.38119-.11489-.33369-.14627-.51074-.47383-.78534-.68245a8.46993,8.46993,0,0,1-1.08-1.18577c-.04006-.04434-.036-.13712-.08-.16768-.12351-.08577-.28037-.17355-.19664-.336.075-.14544.25993-.06987.39855-.07774.04827-.00274.097.00316.14557.00511l.041.023-.02213-.04151a.55542.55542,0,0,0-.08769-.1123c-.32736-.24926-.33191-.252-.0442-.54929.05684-.05873.1558-.10278.077-.1816-.22978-.22982-.0391-.386.06038-.58252.20737-.40967.38106-.83627.57264-1.25407.25083-.547.50593-1.0921.75831-1.63841.04654-.10074.10033-.17948.202-.05617.06689.0811.11933.25307.23845.14824a.24843.24843,0,0,0-.04949-.37945c-.04388-.03651-.11977-.03456-.181-.05018Z"/><path class="cls-4" d="M63.406,99.15939a1.81454,1.81454,0,0,1-.57619.622c-.178.09577-.17081.26714-.20582.4246-.19184-.11635-.30448.00127-.45111.1168-.67542.53222-1.34338,1.07887-2.05741,1.55534-.46123.30779-.94577.594-1.40026.90809-.4979.34412-1.01362.66564-1.49991,1.03069-.5664.4252-1.212.74578-1.77329,1.17669-.59682.45814-1.32425.68589-1.904,1.17982a7.44184,7.44184,0,0,1-.84876.51353,5.30085,5.30085,0,0,1-.63869.47266c-.35275.13658-.62317.3814-.95262.5363a4.233,4.233,0,0,0-1.23544.73776,1.46857,1.46857,0,0,1-.51967.24182.41344.41344,0,0,0-.27977.24c-.01935.06232.0448.17119-.05931.19026-.13069.02392-.07281-.173-.09915-.16072-.30675.14322-.37382-.19362-.56637-.27057a5.03589,5.03589,0,0,1,1.29156-.76151,10.108,10.108,0,0,0,1.4561-.75209c.597-.39723,1.2477-.69615,1.84184-1.0968a2.45075,2.45075,0,0,1,1.22292-.61429.10552.10552,0,0,0,.10954-.12577c-.02891-.288.262-.35122.39488-.40186a5.79786,5.79786,0,0,0,1.8143-1.11508c.27309-.24388.67373-.302.90887-.60863.02514-.03278.08355-.04258.12843-.05711.07034-.02279.0373-.10989.2378-.18568.31807-.12023.50305-.49112.8835-.45187a.151.151,0,0,0,.18371-.10494c.15565-.50032.63347-.64447,1.00159-.90205.71753-.50207,1.49889-.92558,2.15969-1.49152.42219-.36159.91736-.60355,1.32649-.97264C63.40575,98.93674,63.38224,99.1031,63.406,99.15939Z"/><path class="cls-4" d="M72.63406,91.0853c.003.26679-.24437.36407-.376.53581a6.51944,6.51944,0,0,1-1.02224,1.12551c-.43186.35311-.79867.783-1.22378,1.14964a14.54151,14.54151,0,0,1-2.20074,1.79255,2.56143,2.56143,0,0,0-.45806.34492.46076.46076,0,0,1-.35349.11406.36013.36013,0,0,1,.2084-.35658c.62224-.42037,1.12473-.98389,1.73422-1.42388.34523-.24923.57017-.657.94646-.89384a15.48406,15.48406,0,0,0,1.46161-1.349,9.82147,9.82147,0,0,0,.74851-.74206A.85353.85353,0,0,1,72.63406,91.0853Z"/><path class="cls-4" d="M67.001,96.14649c.00516.197-.1808.20641-.28793.29319C66.66765,96.20315,66.76866,96.11036,67.001,96.14649Z"/><path class="cls-4" d="M73.01281,90.796a.25252.25252,0,0,1-.2902.198C72.74446,90.6827,72.74938,90.67935,73.01281,90.796Z"/><path class="cls-7" d="M29.00382,82.15167l-.03674.06927c-.06674-.06579.0145-.05147.03725-.06881Z"/><path class="cls-6" d="M44.76606,47.34826c.01833.02138.05566.05748.05219.062-.06156.07943-.05862-.00675-.07985-.03332Z"/><path class="cls-6" d="M26.373,52.42955l-.04725-.00506a.19089.19089,0,0,1-.18191-.12653c-.01991-.06628.03833-.07035.08328-.07129.12557-.00261.15737.08072.16418.185Z"/><path class="cls-6" d="M25.79731,49.60379l-.03785.0683c-.065-.06675.01774-.04963.03846-.06771Z"/><path class="cls-6" d="M88.57252,47.32448c.0108.153-.09222.15266-.19879.14753C88.39193,47.35808,88.50836,47.37648,88.57252,47.32448Z"/><path class="cls-6" d="M88.37829,47.46975a.08965.08965,0,0,1-.00341.09209c-.055-.00456-.145.00305-.14388-.05051C88.23208,47.46085,88.32174,47.46661,88.37829,47.46975Z"/><path class="cls-6" d="M99.02,83.45681c-.01939.01368-.03811.03615-.05844.0377-.01417.00109-.03054-.02648-.04593-.04125.01068-.00834.023-.02511.03174-.02339A.42562.42562,0,0,1,99.02,83.45681Z"/><path class="cls-6" d="M6.94865,32.117l-.03187.06238c-.06574-.05651.00727-.04875.02982-.06435Z"/><path class="cls-2" d="M46.48985,86.48524a4.50908,4.50908,0,0,0,.87946,2.77349,4.95078,4.95078,0,0,0,.69937,1.03267,3.80645,3.80645,0,0,0,2.47814,1.29219c.3114.00474.62229.05835.93294.09372a5.11341,5.11341,0,0,0,2.11131-.38363,2.22463,2.22463,0,0,1,.36917-.09976c.12189-.01566.229.00383.16429.1866a4.83641,4.83641,0,0,0-.14638.55467,4.69085,4.69085,0,0,0,.09808,1.88791.367.367,0,0,0,.03483.13823,9.91251,9.91251,0,0,0,1.15917,1.67922c.14955.14479.29189.30784.52759.27023.10225-.01632.10569.02529.0935.09718-.00533.03143-.0328.08507-.02652.08879a3.02828,3.02828,0,0,0,.98993.52547c.15532.02671.405.06708.25134-.25408a.07855.07855,0,0,1,.06782-.10539c.09813-.01626.18271.073.17224.12969-.03666.19859.01842.43826-.197.57392a20.82185,20.82185,0,0,0-2.122,1.52047c-.6663.547-1.3854,1.02331-2.08413,1.51916-.67567.47949-1.33368.98541-2.01669,1.45545-.54068.37208-1.081.74585-1.60343,1.14259-.16489.1252-.22937.13977-.37863-.02212a3.92406,3.92406,0,0,0-.35991-.31627c-.0759-.0637-.14322-.13425-.23731-.01432-.11808.15049-.18749-.01106-.18166-.06747.02726-.26376-.1773-.3361-.32286-.4834-.58445-.59144-1.34811-.96965-1.883-1.62181-.17488-.21322-.4703-.2932-.69574-.48314-.66592-.561-1.26741-1.20134-1.984-1.69751-.43369-.30027-.71451-.757-1.16-1.0384a1.95021,1.95021,0,0,1-.678-.60373c-.1039-.17131-.31-.204-.46107-.31275-.78092-.56223-1.4503-1.25282-2.18742-1.86449-.63578-.52758-1.27843-1.05257-1.88859-1.60813a12.16858,12.16858,0,0,1-1.26844-1.20835c-.45961-.56225-1.11546-.89969-1.53444-1.48966a.29142.29142,0,0,0-.29919-.07312c-.1683.02922-.18546-.01352-.18611-.291-.00024-.10349-.06817-.13623-.11987-.18269-.47934-.43076-.99244-.82526-1.46675-1.25765-.46237-.4215-.96117-.80515-1.3898-1.265-.12595-.13513-.21115-.18155-.06-.41478a8.65538,8.65538,0,0,0,.70036-1.48876,2.10777,2.10777,0,0,1,.1108-.24187c.09281-.16622.09551-.19832.09506-.60518a.13865.13865,0,0,1,.0674-.10768c.2587-.08781.46017-.21044.3865-.53563a12.86256,12.86256,0,0,0,.75139-1.40525,4.61248,4.61248,0,0,0,.78947-1.4695,5.08384,5.08384,0,0,1,.49992-.95118,2.44488,2.44488,0,0,1,.55876-.99823,1.65119,1.65119,0,0,0,.31941-.57846c.3181-.69344.59528-1.4083.95608-2.07839.18447-.3426.40491-.67312.60872-1.00929a3.60105,3.60105,0,0,0,.32644-.69058,1.259,1.259,0,0,1,.16745-.33962,7.223,7.223,0,0,0,.76191-1.486,8.92337,8.92337,0,0,1,.54864-.94087,10.05783,10.05783,0,0,0,.7846-1.52177.78.78,0,0,1,.12182-.2034,10.75931,10.75931,0,0,0,.756-1.43829c.20118-.3768.41186-.74935.63612-1.1128a14.53667,14.53667,0,0,0,1.02306-1.64509c.241-.54312.625-.98741.871-1.5171.0135-.02906.05343-.06619.04561-.08174-.10271-.20413.04882-.31246.18061-.27964.132.03287.01734.183-.017.28187a.38634.38634,0,0,0,.16289.46537c.41186.31223.82769.62059,1.23587.936a22.182,22.182,0,0,1,2.396,1.82272c.16135.16379.31307.36929.52421.04763.03091-.0471.11928-.03093.17665.0091a.12982.12982,0,0,1,.03548.17439c-.17212.27788.03833.37918.222.47466a10.25547,10.25547,0,0,1,1.35454.86407c.30251.22315.6816.31074.99571.54835.83738.63341,1.87118.95377,2.69569,1.60821.43722.347.88921.671,1.34195.99409.547.39036,1.11916.74531,1.67133,1.12868A19.39164,19.39164,0,0,1,57.916,74.62358a5.18078,5.18078,0,0,0,.67388.442c.691.47243,1.41444.89748,2.107,1.36775.24585.16692.42581.42412.687.58557.12227.07556.03284.16956-.03606.236a4.33417,4.33417,0,0,1-1.42766.934,19.34176,19.34176,0,0,1-2.19123.65241,1.28474,1.28474,0,0,1-.72286.03255c-.25453-.07717-.49932.07418-.7588.08455a9.96606,9.96606,0,0,1-2.14033-.25362c-.25262-.04471-.55572.03065-.77037-.21317a3.56012,3.56012,0,0,0-.77311-.1284,6.15825,6.15825,0,0,0-1.10877-.29505,2.003,2.003,0,0,1-.83171-.24671,1.94524,1.94524,0,0,0-.45667-.13691,9.245,9.245,0,0,1-1.2469-.37337,21.97616,21.97616,0,0,1-3.20325-1.48031c-.40414-.2177-.76623-.58845-1.27882-.59112-.2617-.2868-.65291-.39363-.92464-.67195-.13115-.13432-.26077-.35591-.5162-.15936-.07732.05949-.10682-.02526-.09909-.09087.01589-.13473-.05808-.19309-.16124-.2634-.14688-.10011-.2479-.1887-.23164.09267.00486.08413-.039.18166-.12864.17357-.1104-.01-.05653-.12334-.06466-.19216-.013-.11035.03444-.24024-.056-.3243-.06559-.06092-.16139-.34406-.25424.00354-.04163.15585-.26649-.03376-.37536.16771a1.61175,1.61175,0,0,0-.02942,1.56168.70491.70491,0,0,1-.33734,1.08523,1.55036,1.55036,0,0,0-.651.63071,1.6513,1.6513,0,0,1-.35238.42109,8.91952,8.91952,0,0,0-1.45288,1.65195c-.16147.25564-.21383.5505-.38818.78413a2.99625,2.99625,0,0,0-.296.84339,4.31718,4.31718,0,0,0,.09563,2.7425,6.93161,6.93161,0,0,0,1.38493,2.42341c.23008.29786.617.39088.90663.61317a4.05455,4.05455,0,0,0,1.95032.56759.4262.4262,0,0,1,.04835.00116c.27678.08268.377-.26277.58344-.25961.19916.00305.40766.1432.5956-.005a.87487.87487,0,0,1,.39972-.13194,2.14932,2.14932,0,0,0,.95615-.4275c.07859-.06735.22467-.08761.0379-.202-.03985-.0244.00739-.10353.05069-.08792.50234.18117.79144-.22705,1.15738-.41686.04858-.0252.068-.12019.14679-.08.06461.033.05795.10613.0579.17C46.48973,86.103,46.48985,86.34573,46.48985,86.48524Z"/><path class="cls-2" d="M62.03967,34.3512c.18065.019.2747-.14428.32888-.2413.21953-.39308.64032-.638.77957-1.08374.55058-.42114.85227-1.06622,1.35441-1.52276a6.0882,6.0882,0,0,0,.83337-1.0326,2.63234,2.63234,0,0,1,.73018-.80678.53656.53656,0,0,0,.17678-.16263,7.42065,7.42065,0,0,1,1.293-1.44669,8.59291,8.59291,0,0,1,1.32009-1.16706,2.70131,2.70131,0,0,0,.47118-.48472,2.56029,2.56029,0,0,1,.29579-.305c.31149-.23349.36251-.17644.59382.12462a.79346.79346,0,0,1,.236.59493,3.34761,3.34761,0,0,1-.10833.61586c-.27431.7078-.38711,1.462-.64371,2.17171-.15135.41865-.39475.8036-.55271,1.2204a15.26387,15.26387,0,0,0-.72562,1.92779.44861.44861,0,0,1-.07976.175,13.42164,13.42164,0,0,0-.94744,1.76174c-.26548.45558-.45946.9523-.69625,1.42521-.51268,1.02393-1.08019,2.02045-1.54077,3.07035-.13063.29778-.39053.52767-.48963.82635a10.20424,10.20424,0,0,1-.75058,1.246c-.36407.74266-.82059,1.43365-1.19141,2.1748a8.93623,8.93623,0,0,1-1.06473,1.7696,3.95242,3.95242,0,0,0-.70348,1.24927,3.91739,3.91739,0,0,1-.43507.7405c-.46082.74735-.94847,1.47684-1.38069,2.24365a11.1393,11.1393,0,0,1-1.04988,1.42945c-.09754.12216-.10259.27048-.19007.38223q-.92949,1.18737-1.74208,2.45722c-.26879.41972-.58962.79926-.87909,1.19833-.33163.45721-.6522.92925-1.01725,1.36566a11.97883,11.97883,0,0,0-.90294,1.393,1.15625,1.15625,0,0,0,.12817.71385,1.52244,1.52244,0,0,1,.45742.488,3.27219,3.27219,0,0,0,.60827.58873q1.03534.8227,2.0818,1.63143c.2973.23114.51.54442.80066.78623.45337.37722.85256.82024,1.31076,1.19079.77118.62368,1.4727,1.32542,2.24174,1.95013.03674.02985.09014.04054.1237.07275.4817.46239.505.49019-.00822.93822-.54381.4747-.95045,1.06621-1.44052,1.58543-.259.27438-.52748.549-.767.84264-.16131.19772-1.2844,1.68982-1.52236,2.11419a2.17041,2.17041,0,0,0-.13673.30734c-.07791.21-.16159.209-.35092.08256-.68966-.46071-1.39966-.89089-2.06375-1.39a.58357.58357,0,0,0-.21165-.11424c-.56043-.12079-.90349-.57023-1.35017-.86277-.46-.30125-.89369-.63957-1.36117-.93071-.34694-.21608-.6536-.4949-1.00615-.71143-.10182-.06254.0281-.31421-.20363-.41892-.29573-.13365-.4724-.44221-.85276-.50317a1.07928,1.07928,0,0,1-.75589-.54807.44233.44233,0,0,0-.16553-.17424,20.51994,20.51994,0,0,1-2.22278-1.70419c-.54961-.39283-1.04067-.86445-1.573-1.27646-.31021-.24012-.66026-.43813-.95911-.70482-.17141-.153-.15337-.24893-.05756-.4757.3198-.757.98913-1.30038,1.22984-2.09528a7.84235,7.84235,0,0,0,.96815-1.39258c.40012-.543.71885-1.1452,1.10216-1.70155.28808-.41815.53994-.85917.8317-1.27643a10.2672,10.2672,0,0,0,.95195-1.58519c.12294-.269.33521-.45656.47732-.70522.22175-.388.43437-.79052.69567-1.16132.09038-.12824.183-.25658.283-.37868a1.67983,1.67983,0,0,0,.1887-.2195c.06841-.12284-.00864-.24313-.02768-.36755-.03873-.253.21468.01489.28991-.135a2.4464,2.4464,0,0,1,.21212-.31873,2.53767,2.53767,0,0,0,.38989-.7629c.00411-.01368-.01366-.04043-.0075-.04605a9.04678,9.04678,0,0,0,1.001-1.50243,4.24737,4.24737,0,0,0,.25372-.3966c.05806-.09985.068-.1877-.07434-.21024-.18034-.02854-.1494-.11638-.0878-.2374.06944-.13641.17088-.239.28654-.097.10084.12375.13537.05889.21775.00611.18138-.1162.18709-.3296.28925-.48921.39892-.62324.85244-1.20642,1.2841-1.80512.5-.69344.89913-1.46594,1.41958-2.148a8.92641,8.92641,0,0,1,1.22692-1.6297c.13754-.11424.12426-.29614.23017-.414.43583-.48494.7374-1.07258,1.19261-1.54376.13157-.13619.36308-.24152.24153-.51756-.034-.07722.07518-.13094.14934-.15726a1.07086,1.07086,0,0,0,.44262-.35583c.07374-.0879.37346-.26953-.01162-.38154a.23033.23033,0,0,1,.00976-.127c.0165-.03945.07682-.09373.10536-.05355.166.23359.2071.0332.28972-.07022.48147-.60275.97452-1.19645,1.44674-1.8063a1.90106,1.90106,0,0,0,.43816-.70686Z"/><path class="cls-2" d="M59.12755,93.41985a1.71145,1.71145,0,0,0-.75826.10068,5.49286,5.49286,0,0,1-1.1771.18976.93864.93864,0,0,1-.43356-.00487c-.18874-.06735-.38786.21447-.52572-.00107-.11181-.17478.05979-.36881.09067-.55616A3.61852,3.61852,0,0,1,56.8098,92.016c.38726-.69693.7812-1.39209,1.21322-2.06645a2.13132,2.13132,0,0,1,.97938-.85675A3.75529,3.75529,0,0,0,60.349,87.92725c.40165-.44412.65345-1.02517,1.06126-1.46183.38335-.41045.66671-.89332,1.05711-1.29133.08031-.08189.41989-.51613.50226-.62305.40375-.5241.78617-1.06349,1.22734-1.55981.32672-.36756.61088-.773.91356-1.1619.42924-.55153.88866-1.08277,1.27823-1.661a12.11039,12.11039,0,0,0,1.172-1.60477c.14619-.3153.46454-.56649.65248-.88354a4.2475,4.2475,0,0,0,.78563-1.47944c.02014-.13053.23805-.1312.34382-.2693.34406-.44922.563-.96634.85835-1.43993.26738-.42866.2979-.44478.61339-.07719a4.90687,4.90687,0,0,0,.647.63648c.13553.109.185.14407.20558.19767a2.00521,2.00521,0,0,0,.58193.81535,7.4297,7.4297,0,0,1,1.08234,1.35345c.15918.21063.29042.47715.44052.717.234.374.2283.54376.0867,1.07672a8.64,8.64,0,0,1-.7961,1.94068c-.39037.71367-.9007,1.3415-1.28783,2.04881-.1019.1862-.3005.23022-.40822.39946-.34286.53857-.802.9876-1.191,1.49266a16.88516,16.88516,0,0,1-1.27152,1.34777c-.30819.31989-.61941.63685-.92951.95488-.1245.12769-.65641.68991-.75621.79084a5.032,5.032,0,0,1-.67466.61917,1.42552,1.42552,0,0,0-.62012.71641c-.0218.07207-.0751.0954-.12955.12966a14.97307,14.97307,0,0,0-2.02027,1.76334c-.201.18337-.40856.35954-.60876.54374a.53934.53934,0,0,1-.25927.10812,3.85476,3.85476,0,0,0-1.64349.60812,1.45124,1.45124,0,0,1-.445.16621,10.16975,10.16975,0,0,0-1.69379.58338Z"/><path class="cls-2" d="M48.4369,88.26105a2.20631,2.20631,0,0,1,.09817-.71291,6.47454,6.47454,0,0,1,.58795-2.21242c.02107-.0436.07558-.09245.06649-.12572-.056-.20487-.12533-.40572.20441-.41936.00082-.33826.27288-.59092.23814-.965a3.14162,3.14162,0,0,0-.95382-1.722.24987.24987,0,0,0-.21721-.07542.9886.9886,0,0,1-.74734-.066c-.11182-.03431-.20666.04194-.30871.1a8.35778,8.35778,0,0,1-1.75094.83723,3.10733,3.10733,0,0,0-.78941.17176,8.214,8.214,0,0,1-2.09986.7779,6.45518,6.45518,0,0,1-2.38523.24676c-.191-.01869-.27263-.1-.30336-.2989A4.85068,4.85068,0,0,1,40.29,81.34837a4.95477,4.95477,0,0,1,1.37356-2.18817,1.86123,1.86123,0,0,0,.457-.61482,1.19766,1.19766,0,0,1,.8815-.66308.345.345,0,0,0,.29069-.21347c.08711-.21186.23415-.18744.386-.07907a2.43532,2.43532,0,0,1,.29551.24679,3.82457,3.82457,0,0,0,.76039.58494c.59672.35036,1.15594.764,1.74679,1.12515.34986.21384.75682.32459,1.0995.55943a2.65853,2.65853,0,0,0,.64263.28486c.58609.15927,1.13334.42641,1.70919.61884.60235.20128,1.24174.26511,1.82147.52361a7.2671,7.2671,0,0,0,.9792.21445,14.85968,14.85968,0,0,0,1.52945.349,15.28163,15.28163,0,0,0,2.02762.29888c.323.01477.6699-.03441,1.00626-.05082.03188-.00155,1.173-.07976,1.30284-.1297.5217-.20071,1.06266-.338,1.59344-.508a2.66725,2.66725,0,0,0,1.478-.935.14424.14424,0,0,1,.20772-.05079c.09893.06425.03914.15392-.01235.2045a6.26573,6.26573,0,0,0-.7009.83087c-.251.35037-.56285.6609-.81784,1.00344-.40187.53987-.83794,1.05367-1.2224,1.60775-.39695.57207-.81648,1.12917-1.16632,1.73159a.47282.47282,0,0,1-.24668.20745,2.731,2.731,0,0,0-1.12724.86884,2.33362,2.33362,0,0,1-.85176.60512,15.11378,15.11378,0,0,1-1.905.78218c-.37848.12658-.75141.27-1.13123.39227a2.777,2.777,0,0,1-1.34452.20212,5.47226,5.47226,0,0,0-1.11432-.00771,3.77461,3.77461,0,0,1-1.69474-.41158C48.335,88.64581,48.48547,88.41791,48.4369,88.26105Z"/><path class="cls-2" d="M63.563,67.44928c.11082-.031.11756.02909.15.05666.12169.10351.285.17489.3483.32538.13666.325.47991.41841.6946.65361.06415.07028.308.30731.43056.42986.30267.30263.61927.594.92516.89047a6.31028,6.31028,0,0,0,.84969.83366,6.28763,6.28763,0,0,1,.76945.76539,2.20383,2.20383,0,0,0,.29122.237c.39157.25166.429.4505.12519.80829a7.21634,7.21634,0,0,0-.72808.94849c-.12612.21042-1.46115,2.06088-1.9062,2.74013-.10261.15657-.49238.65094-.54039.76471-.1251.29645-.4272.41815-.58427.68821-.20246.34812-.40436.70212-.6281,1.03268-.1425.21052-.42379.347-.60328.56222a.09013.09013,0,0,1-.08549.01742.15216.15216,0,0,1-.04727-.17264,4.60556,4.60556,0,0,0,.18205-1.42186,4.30871,4.30871,0,0,0-.94834-2.75209,9.24563,9.24563,0,0,0-1.14511-1.03211,5.44114,5.44114,0,0,0-1.363-.93106.45948.45948,0,0,1-.1117-.09157c-.39748-.34192-.36108-.338-.02779-.73477a5.85371,5.85371,0,0,0,.73685-.87067,8.65682,8.65682,0,0,1,.88527-1.001c.6611-.841,1.37354-1.64164,2.0666-2.45743C63.39268,67.62787,63.49431,67.52414,63.563,67.44928Z"/><path class="cls-2" d="M62.04118,34.34969a.85854.85854,0,0,1-.18591-.01265c-.14721-.04233-.11523-.16157-.09755-.26728a.12105.12105,0,0,1,.13384-.10276c.12129.00619.14535.09718.14853.19713.002.06229-.00015.12471-.00042.18707Z"/><path class="cls-2" d="M27.45742,86.80742c.06285.008.13089.0136.153.08517.00644.02091-.01855.07291-.03576.07623-.11293.02173-.12236-.06441-.13607-.14293Z"/><path class="cls-2" d="M59.12324,93.424l.06866.03905c-.0674.05394-.05338-.01325-.06435-.04325Z"/></svg>