<svg width="120px" height="120px" viewBox="0 0 120 120" xmlns="http://www.w3.org/2000/svg"><defs><style>.cls-1{fill:#9fd3fe;}.cls-2{fill:#a0d3fe;}.cls-3{fill:#fcd88f;}.cls-4{fill:#2b3c59;}.cls-5{fill:#0086e6;}.cls-6{fill:#56c188;}.cls-7{fill:#9b81eb;}.cls-8{fill:#2a3c59;}.cls-9{fill:#f0b266;}.cls-10{fill:#f06666;}.cls-11{fill:#f1e266;}.cls-12{fill:#2b3c58;}.cls-13{fill:#fefefe;}.cls-14{fill:#fbfdfd;}.cls-15{fill:#fefdfc;}</style></defs><title>hs-huzzah-46</title><g id="Layer_2" data-name="Layer 2"><path class="cls-1" d="M35.90537,84.69481c-.26417-.218-.3332-.09244-.36819.18513a1.9896,1.9896,0,0,1-1.97824,1.54146,8.55836,8.55836,0,0,1-2.90605-1.11792c-1.31509-.70518-2.57185-1.51812-3.87074-2.25467a27.70425,27.70425,0,0,1-3.57091-2.33894c-1.11723-.88579-2.24135-1.76754-3.33585-2.68417a16.60281,16.60281,0,0,0-1.47412-1.12148c-.40963-.27183-.73642-.66833-1.14125-.97716a10.27012,10.27012,0,0,1-1.24366-1.03439c-.28592-.30106-.58808-.57118-.88664-.85381a54.99348,54.99348,0,0,1-5.15823-5.2276A18.67372,18.67372,0,0,1,8.2309,66.531C7.84819,65.87209,7.296,65.322,6.874,64.67843c-.74055-1.12961-1.39393-2.30724-2.02977-3.4958a9.66937,9.66937,0,0,1-1.03319-1.839c-.29023-1.0104-.63535-2.00525-.9664-3.00364-.20891-.63-.409-1.26523-.666-1.87585a2.56755,2.56755,0,0,1-.12274-.71761,24.93649,24.93649,0,0,1-.28562-3.03121c-.00526-.81182.09609-1.63.08847-2.44658-.00253-.2713.1712-.4583.22489-.69509.13687-.60366.23181-1.21937.40948-1.81045.14647-.48728.22211-1.06591.87461-1.2086.064-.014.19836-.08916.119-.15667-.47472-.40363.0377-.70244.18051-.886a12.11369,12.11369,0,0,1,4.06775-3.52032c.39352-.19811.79163-.57419,1.30458-.19929.12665.09256.23577-.06046.211-.193-.07376-.39459.27884-.43281.458-.43059,1.32048.01637,2.57592-.50446,3.90937-.41276a32.63461,32.63461,0,0,1,4.60183.57434,42.5171,42.5171,0,0,1,4.08638,1.261,12.75033,12.75033,0,0,1,2.14956,1.10409c.83405.46427,1.62487.99309,2.43982,1.48485a6.52964,6.52964,0,0,1,1.32191.88308c.3731.37856.55479.20019.75156-.09221a16.64582,16.64582,0,0,1,2.02324-2.2797c.71317-.729,1.56542-1.26465,2.29409-1.932.96331-.88225,2.14078-1.41315,3.12444-2.24052a4.70885,4.70885,0,0,1,1.30426-.50059,32.33555,32.33555,0,0,1,3.57864-1.29269,13.13031,13.13031,0,0,1,5.81435-.25265,7.4745,7.4745,0,0,1,3.15666,1.08378c1.00469.72689,1.92244,1.57284,2.91506,2.31765,1.49683,1.12315,2.04058,2.80193,2.65931,4.43582a6.2308,6.2308,0,0,1,.60066,1.79364c.03484.62544.198,1.22139.27677,1.83426a.69137.69137,0,0,1,.21359.70389c-.127.97566-.01024,1.968-.1645,2.94809-.171,1.08643-.30007,2.17922-.41113,3.27374a14.71056,14.71056,0,0,1-.69213,3.40839,21.96687,21.96687,0,0,1-.87406,2.66367c-.15737.309.16887.6597-.20705.93153-.2821.204-.33645.59883-.452.92647a18.57171,18.57171,0,0,1-1.96736,3.78361c-.96989,1.52052-2.00809,2.99616-3.0492,4.462a13.43474,13.43474,0,0,1-1.75069,2.32946c-.25767.23461-.599.53119-.47557.998a.16749.16749,0,0,1-.06071.14572c-1.15254.64244-1.72859,1.84793-2.65175,2.71562a17.161,17.161,0,0,0-1.2173,1.3721c-.1468.17114-.44955.27929-.27766.60591.0151.02868-.051.14092-.06521.13827-.85443-.1593-.903.72171-1.28817,1.09572-.82889.805-1.56706,1.7104-2.38025,2.54688-.79621.819-1.73391,1.48579-2.46174,2.373a.78943.78943,0,0,1-.55653.353Z"/><path class="cls-2" d="M84.1965,84.7133a.72032.72032,0,0,1-.51463-.30939c-1.23933-1.26719-2.617-2.39425-3.79323-3.72356-.58046-.656-1.11756-1.3502-1.68638-2.01679-.14568-.17072-.24249-.471-.57635-.33-.08763.037-.16939.03264-.18542-.07377-.15529-1.031-1.08973-1.50266-1.66159-2.21927a17.60729,17.60729,0,0,0-1.88361-2.10307c-.1712-.1552-.23783-.43326-.547-.41169-.102.00711-.13967-.076-.11028-.16694.13479-.41733-.1796-.69495-.40056-.89949a6.80042,6.80042,0,0,1-.9444-1.19156c-1.10745-1.60866-2.25018-3.19265-3.34634-4.80973q-1.05672-1.5589-1.963-3.19708c-.2552-.46071-.38382-.9899-.59483-1.47721-.14856-.34306-.151-.77917-.56717-.96767a.1302.1302,0,0,1-.08554-.1347,10.84218,10.84218,0,0,0-.87068-3.29556,13.17919,13.17919,0,0,1-.55412-2.69292c-.06475-.47415-.17621-.77942-.69559-.83623-.238-.026-.40621-.289-.68-.2429a2.24736,2.24736,0,0,1-.53429-.8162c-.62894-1.15793-1.48815-2.16208-2.19751-3.265a16.25185,16.25185,0,0,1-1.48984-2.25724c-.06315-.14669-.1861-.2795-.11532-.46015a12.27878,12.27878,0,0,1,2.96654-.05747c.75531.03087,1.47448.32833,2.23724.30809l.00624-.00632a17.22724,17.22724,0,0,1,1.25684-4.85405,8.52036,8.52036,0,0,1,3.08021-4.01158c.74817-.52048,1.42908-1.13665,2.16624-1.67413a7.67737,7.67737,0,0,1,3.408-1.10245,12.8884,12.8884,0,0,1,5.869.40536c1.23332.36379,2.40036.94635,3.62115,1.36a13.90181,13.90181,0,0,1,3.3041,1.98512,13.80322,13.80322,0,0,1,2.5853,2.0111A14.89886,14.89886,0,0,1,90.93,43.65141a1.56609,1.56609,0,0,0,.36522.48818c.11214.08667.25178.27341.47257.07449a21.94306,21.94306,0,0,1,2.99353-2.0152A14.605,14.605,0,0,1,97.798,40.59512a35.47789,35.47789,0,0,1,4.08542-1.26227,29.39145,29.39145,0,0,1,4.72614-.57387,11.509,11.509,0,0,1,2.68076.31241c.33111.06189.65963.01666.97946.0807.27.05408.65053-.0074.60816.4885-.01567.1833.14476.233.29773.10215.21056-.18011.4142-.1046.633-.01214a10.0955,10.0955,0,0,1,2.894,1.89746,21.54762,21.54762,0,0,1,1.598,1.66741c.36984.41843.45168.621.33494,1.07727a.124.124,0,0,0,.10241.17353c.69285.17381.75982.77449.90719,1.31762a11.08245,11.08245,0,0,0,.53736,2.02988,2.53066,2.53066,0,0,1,.07722,1.02077,19.27162,19.27162,0,0,1-.23828,5.052,7.35775,7.35775,0,0,1-.43676,1.49564,18.82,18.82,0,0,0-.817,2.49242,13.40027,13.40027,0,0,1-1.49018,3.27579c-.762,1.28141-1.41457,2.63056-2.30284,3.83345-.7818,1.0587-1.60589,2.09178-2.37607,3.1535a32.21735,32.21735,0,0,1-3.11546,3.43693c-.90057.9277-1.86523,1.80492-2.85429,2.652a19.67988,19.67988,0,0,1-1.6857,1.509c-.55019.37044-.92633.922-1.5212,1.25654a5.638,5.638,0,0,0-1.08032.86961c-.837.80917-1.82827,1.42208-2.6955,2.19938A13.858,13.858,0,0,1,95.308,81.88394c-1.3212.75244-2.55923,1.64354-3.90536,2.34381a15.11508,15.11508,0,0,1-2.97477,1.567,17.45911,17.45911,0,0,1-1.678.61779,1.6432,1.6432,0,0,1-1.43135-.43721c-.377-.29836-.80389-.55465-.74823-1.15752.02527-.27353-.15043-.31677-.35182-.12309Z"/><path class="cls-3" d="M75.91638,100.043c.00787.21323-.15586.2938-.30958.333A8.38244,8.38244,0,0,0,72.759,102.17a6.61181,6.61181,0,0,0-2.40427,3.68037c-.04583.17122-.06751.35867-.27272.33794a.72515.72515,0,0,1-.7014-.4184c-.13448-.36611-.23923-.74317-.37475-1.10885a6.75691,6.75691,0,0,0-2.13793-3.26966,9.419,9.419,0,0,0-2.38153-1.34119c-.52572-.20279-.52259-.44843-.10176-.815a11.35408,11.35408,0,0,1,2.40269-1.254,6.34264,6.34264,0,0,0,3.32256-3.596.63093.63093,0,0,1,.62751-.50449c.366.02537.52031.26591.59776.602a6.626,6.626,0,0,0,1.82357,3.54577,4.72059,4.72059,0,0,0,1.74873,1.201,3.93856,3.93856,0,0,1,.88478.54383A.30349.30349,0,0,1,75.91638,100.043Z"/><path class="cls-3" d="M74.40717,22.1685c-.06631.21892-.21994.25235-.34167.32249a8.70158,8.70158,0,0,0-2.60059,2.40015,5.28932,5.28932,0,0,0-.62071,1.6533c-.0427.13587-.01342.29916-.2044.32756a.39814.39814,0,0,1-.42765-.18786c-.11862-.21387-.19829-.449-.3003-.67243a4.61955,4.61955,0,0,0-3.07361-2.93147.9591.9591,0,0,1-.17563-.05706c-.23007-.107-.64952-.07609-.612-.39531.02952-.251.31894-.45872.603-.61416a6.45454,6.45454,0,0,0,2.95994-2.50524,5.30494,5.30494,0,0,0,.29447-.739c.08334-.242.12106-.54042.48208-.5531.33315-.0117.39868.25233.48133.47655a4.86457,4.86457,0,0,0,1.23391,2.09449,3.65617,3.65617,0,0,0,1.57086.91836A1.66113,1.66113,0,0,1,74.40717,22.1685Z"/><path class="cls-4" d="M58.19883,46.8152a15.08517,15.08517,0,0,0,1.61241,2.48453c.611.82582,1.13315,1.71057,1.76388,2.52268a6.01227,6.01227,0,0,1,.96067,1.79137,4.4562,4.4562,0,0,0-2.227-.32782c-1.17009.07193-2.33091.2972-3.49488.463a4.40572,4.40572,0,0,0-.45958.11482,4.93952,4.93952,0,0,1-.00785-1.62692A19.25788,19.25788,0,0,0,56.702,47.741c-.00971-.27041.1521-.53455.01445-.803A2.95991,2.95991,0,0,1,58.19883,46.8152Z"/><path class="cls-3" d="M51.12965,90.37119c-.13985-.03079-.17762-.15492-.24173-.25837a7.68946,7.68946,0,0,0-1.36245-1.57092,3.374,3.374,0,0,0-1.58579-.76287c-.1676-.04021-.33965-.05287-.35764-.26449-.01677-.19728.127-.28779.28476-.35858.31879-.14308.64758-.268.95349-.43486a3.31529,3.31529,0,0,0,1.71134-2.14968c.05045-.19633.06469-.45745.31457-.47127.21778-.012.3333.20308.44.38332.17781.3004.38368.58561.54384.89476a3.43514,3.43514,0,0,0,1.93436,1.63257c.18563.0711.43508.10584.44745.36084.01268.26119-.234.33239-.41954.39009a3.60073,3.60073,0,0,0-2.37619,2.3245C51.31982,90.34015,51.23514,90.37966,51.12965,90.37119Z"/><path class="cls-1" d="M35.927,84.71312l-.04789.1512-.06547-.04664.09174-.12287Z"/><path class="cls-2" d="M84.2185,84.6947l.09169.12281-.06537.04694-.04832-.15115Z"/><path class="cls-5" d="M29.36762,49.84688a.86913.86913,0,0,0,1.21-.28245,3.19236,3.19236,0,0,1,.70424-.66763c.58766-.36791.83869-1.02513,1.24739-1.54163a32.2377,32.2377,0,0,1,3.47652-3.7845,15.70667,15.70667,0,0,1,4.59257-2.70119,6.34385,6.34385,0,0,1,2.058-.54753,1.12449,1.12449,0,0,0,.9507.31682,17.17677,17.17677,0,0,1,2.26575.04246c.9786.09982,1.62954.82174,2.43065,1.25953a4.08682,4.08682,0,0,1,1.81227,2.72959c-.15031.613-.70467.89836-1.10157,1.29541-1.85028,1.851-3.689,3.71646-5.38642,5.705-.58933.69043-1.21993,1.36138-1.8088,2.04991-.8421.98461-1.80053,1.89673-2.73232,2.81694a18.62351,18.62351,0,0,1-1.32807,1.37827c-.064.05148-.17119.12255-.15993.1797.13421.68133-.50247.68507-.81992.98543a10.41834,10.41834,0,0,0-2.1411,2.36618.38187.38187,0,0,1-.11148.14656,7.95142,7.95142,0,0,0-1.67537,1.71945c-1.31659,1.5307-2.78476,2.92143-4.10479,4.449-.63079-.11885-.73915-.70785-1.008-1.14317-.13883-.2248-.1767-.50565-.30186-.74367-.09321-.17725-.15707-.42045-.41859-.38733-.24733.03133-.28792.27363-.3492.46535A4.39369,4.39369,0,0,1,25.246,68.01306,12.20157,12.20157,0,0,1,23.53,69.1098a2.91824,2.91824,0,0,0-.3267.17429c-.11507.08814-.25126.17943-.25076.33465.00068.21165.19726.25421.349.29144a4.62857,4.62857,0,0,1,1.774.843c.16272.127.35216.221.39832.44833-.18651.64174-.80223.93688-1.174,1.43411a11.38545,11.38545,0,0,0-1.09931,1.37687.73819.73819,0,0,1-.53594.366,9.39662,9.39662,0,0,1-2.11525-1.42969c-1.61693-1.45821-3.121-3.03642-4.71508-4.518A21.51288,21.51288,0,0,0,13.3569,66.2187a1.388,1.388,0,0,1-.71783-.88346c-.05456-.46431-.46479-.69389-.71324-1.01991A5.00133,5.00133,0,0,1,10.72556,62.51c-.0368-.15593-.375-.08538-.345-.35086a15.94024,15.94024,0,0,1,1.61583-1.90595c.83056-.88614,1.58332-1.84291,2.4646-2.68311a1.36854,1.36854,0,0,0,.52952-1.13281c-.0189-.22771.06009-.49776.39617-.31079.19233.107.263-.03056.36192-.1188a5.4907,5.4907,0,0,0,.90871-1.07409,15.75316,15.75316,0,0,1,1.2694-1.29508c1.21632-1.42162,2.511-2.7737,3.73132-4.19427a13.4022,13.4022,0,0,1,1.74615-2.07015c.30177-.14183.47948.06346.71053.21118a37.66275,37.66275,0,0,0,3.31328,2.261,2.52223,2.52223,0,0,0,1.06825.28005c.21269.0056.49647.15839.50427-.29557C29.00367,49.64552,29.24475,49.6775,29.36762,49.84688Z"/><path class="cls-6" d="M28.69622,67.744c.16184-.64411.75476-.94625,1.14948-1.3968.98872-1.12853,2.08129-2.16627,3.06736-3.29695a16.08345,16.08345,0,0,0,1.52023-1.63095c.44461-.70725,1.08933-1.17541,1.57176-1.811.30194-.39779.6436-.91953,1.28862-.91693.09.00036.19868-.08021.15031-.13786-.48751-.58113.21933-.7186.41431-.93925.8704-.985,1.791-1.93069,2.7512-2.82889.39263-.36728.51043-1.03658,1.17718-1.10712.029-.45876.40546-.67652.6731-.96974.85148-.93286,1.71627-1.854,2.55169-2.801,1.59811-1.81161,3.374-3.44961,5.03947-5.19516.36426.001.43981.31418.48392.54765a14.20823,14.20823,0,0,1,.59371,3.13649,19.78239,19.78239,0,0,1-.87729,5.14689c-.47579,1.54793-.6891,3.16785-1.24491,4.70259a14.522,14.522,0,0,1-1.48211,3.17634,8.769,8.769,0,0,0-.6833,1.90617c-.16613.43567.30471.68607.3498,1.066-.112.28419-.38235.46713-.4743.771-.059.19484-.17627.53317-.29012.009-.01292-.05946-.06813-.11237-.13136-.05376-.04155.03851-.097.123-.08136.15321.30778.59362-.23941.89861-.47,1.27192-.67966,1.1002-1.42608,2.15918-2.14637,3.23429-.67936.11293-.35677,1.16476-1.12232,1.19692-.07638.7454-.774,1.07164-1.10268,1.64074a11.2414,11.2414,0,0,1-1.01756,1.36584,50.65607,50.65607,0,0,1-4.95882,5.30716,7.62245,7.62245,0,0,0-1.27248,1.4114,2.13158,2.13158,0,0,1-1.55751.64524c-.24317-.02653-.39185-.21835-.5715-.34527-1.7284-1.221-3.64737-2.14724-5.31909-3.457-1.19815-.93871-2.4452-1.81335-3.65822-2.73283-.16946-.12844-.41393-.22278-.37411-.51259.43678-.10464.46181-.56551.71616-.8302a17.54287,17.54287,0,0,1,1.93132-2.03631c.05477-.04135.06363-.14347.09384-.21734.27894-.08049.34438.15886.45414.31447a6.24437,6.24437,0,0,1,.95538,1.71831c.05906.19.13932.42935.39288.40922.20155-.016.19683-.24838.23138-.39519.40821-1.73407,1.70407-2.75168,3.01562-3.75839.10654-.08178.30834-.103.25693-.29384a.43662.43662,0,0,0-.32715-.25924,4.50816,4.50816,0,0,1-1.21111-.60209C28.934,68.20356,28.68426,68.06871,28.69622,67.744Z"/><path class="cls-7" d="M23.46753,47.45166a5.88573,5.88573,0,0,1-.93963,1.20709c-.94939,1.11152-1.86026,2.26271-2.87541,3.31714-.76473.79429-1.50837,1.60441-2.20334,2.4597a.13462.13462,0,0,1-.044.04288,1.83871,1.83871,0,0,0-.83306.89112c-.242.41682-.69515.6226-.96465,1.01035-.06594.09488-.20483.28313-.27063-.02385-.01837-.08572.00278-.238-.157-.18039-.04144.01494-.07477.15479-.05519.22036.16905.56611-.199.90684-.528,1.25133-1.14172,1.19555-2.27506,2.39719-3.317,3.68347a8.11324,8.11324,0,0,1-.899.82832c-.27984-.3677-.79553-.62688-.56545-1.23073a.1102.1102,0,0,0-.03383-.09817,6.77747,6.77747,0,0,1-2.276-3.38825,11.54427,11.54427,0,0,1-1.00486-2.90194,20.928,20.928,0,0,1-.412-2.28424,17.29811,17.29811,0,0,1-.09978-2.36562,9.28894,9.28894,0,0,1,.77782-3.38566,6.02187,6.02187,0,0,1,3.17158-2.824,7.87024,7.87024,0,0,1,4.18584-.56726c-.11591.41768.1024.55416.4726.5545.86463.00081,1.71414.17619,2.56993.23531a7.35424,7.35424,0,0,1,3.88452,1.54022,24.64519,24.64519,0,0,0,2.07374,1.53845C23.29726,47.08251,23.48082,47.20258,23.46753,47.45166Z"/><path class="cls-8" d="M47.19075,64.39445c-.6232-.47734-.57661-.81253-.38791-1.57891.36137-1.46772,1.43786-2.57786,1.84536-4.004.24007-.84022.56559-1.65178.76456-2.50766.39655-1.70584.9238-3.385,1.2449-5.10358a8.384,8.384,0,0,0,.00519-4.60907,10.69264,10.69264,0,0,0-.3644-1.54849c-.06981-.128-.1101-.25991-.24752-.33036a18.67521,18.67521,0,0,0-.97213-1.9484,2.93458,2.93458,0,0,0-.90553-.69254,4.73034,4.73034,0,0,0-2.5178-1.26843,15.99,15.99,0,0,0-2.20657.00568c-.32837.0363-.82377.14881-.7926-.48671a6.88253,6.88253,0,0,1,4.80476.187,13.16545,13.16545,0,0,1,2.42765,1.33762,5.51321,5.51321,0,0,1,1.94119,2.14425,11.59628,11.59628,0,0,1,.94445,2.101,10.84284,10.84284,0,0,1,.37052,1.37739,15.14524,15.14524,0,0,1-.56683,6.06422c-.302,1.25987-.73693,2.47967-.98843,3.75974A18.01554,18.01554,0,0,1,50.32014,60.798a18.73381,18.73381,0,0,1-1.52353,2.61061A1.98525,1.98525,0,0,1,47.19075,64.39445Z"/><path class="cls-8" d="M22.64292,74.29975c.73623.67391,1.585,1.1995,2.37456,1.80291,1.30861,1,2.62029,1.99654,4.01111,2.87981.71238.45242,1.48084.81724,2.18835,1.27647a5.02331,5.02331,0,0,1,1.3489,1.08848,1.67447,1.67447,0,0,1-1.41942.34572,5.28316,5.28316,0,0,1-2.17124-.90109c-1.10116-.65948-2.234-1.27774-3.27585-2.022a57.48333,57.48333,0,0,1-4.87469-3.84335c-1.249-1.11352-2.38654-2.34562-3.68873-3.3996a4.84241,4.84241,0,0,1-.40354-.51041Q15.165,69.33026,13.5873,67.65346a11.42939,11.42939,0,0,1-1.27217-1.80835.75115.75115,0,0,1-.01607-.54366c.02232-.07672.22509-.01838.34.03379.394.3472.80751.687,1.18309,1.037.97158.9054,2.02045,1.73181,2.9064,2.73319a9.73214,9.73214,0,0,0,1.60683,1.514c.4904.3479.769.85995,1.2223,1.23237A12.20412,12.20412,0,0,0,22.014,73.78231C22.28713,73.90885,22.26572,74.33993,22.64292,74.29975Z"/><path class="cls-8" d="M23.46753,47.45166a31.92779,31.92779,0,0,0-3.41371-2.48787,6.27744,6.27744,0,0,0-2.83242-.90852c-.97488-.03442-1.95442-.20084-2.93708-.26945-.15113-.01056-.43926.10821-.52234-.17963-.09031-.31291.2377-.33061.36184-.49284a5.58035,5.58035,0,0,1,3.015-.19334,17.28711,17.28711,0,0,1,3.95563,1.068A13.04261,13.04261,0,0,1,23.76034,45.46,21.96127,21.96127,0,0,0,26.198,47.11069a11.40567,11.40567,0,0,1,1.47319,1.0757c.474.35494.93367.73151,1.37462,1.12648.14846.133.41316.23926.32183.534a.69284.69284,0,0,0-.17666-.0443c-.12467.00184-.13091.0395-.041.13128.47992.49013-.16743.38971-.25859.38961a3.473,3.473,0,0,1-2.17441-.67,33.51731,33.51731,0,0,1-2.8968-2.1698C23.71944,47.385,23.58822,47.43073,23.46753,47.45166Z"/><path class="cls-9" d="M88.95055,49.27573a1.90522,1.90522,0,0,0,.59448.59191.71026.71026,0,0,0,.94236-.08927c.828-.74,1.793-1.29776,2.674-1.96224.96749-.7297,2.01555-1.32434,3.00928-2.00629a12.53769,12.53769,0,0,1,1.44472-.754,36.20527,36.20527,0,0,1,4.70337-1.64756,2.60072,2.60072,0,0,1,.83664-.14088c.93725.01056,1.85439-.24839,2.79113-.16662.07988.35127.35567.46855.65757.57374a10.5675,10.5675,0,0,1,2.13885.75283c.104.06337.229.09491.2737.22724a19.29525,19.29525,0,0,1-2.1583,2.487c-.27475.28855-.77531.45668-.56066,1.0304.04814.12866-.11411.237-.23427.22332-.29761-.03389-.53522.195-.82638.16016a4.03506,4.03506,0,0,1-.39189-.83545c-.08932-.1899-.18131-.39428-.42089-.40478-.274-.012-.39059.20749-.47554.41968a6.64968,6.64968,0,0,1-1.48839,2.25138,12.19608,12.19608,0,0,1-3.57345,2.16058,1.19849,1.19849,0,0,1-.11915.03241c-.31823.11245-.69094.27451-.73151.59376-.04881.384.40683.38884.67.50873.54851.24988,1.198.32807,1.52652.93581a16.32215,16.32215,0,0,1-1.34669,1.67651c-.09632.13127-.22893.20191-.112.4579.20842.45624.017.6509-.51183.60121a.63293.63293,0,0,0-.55466.18939c-.83257.82592-1.556,1.75115-2.36559,2.59675-.7823.81706-1.52918,1.66452-2.28756,2.50247A20.3112,20.3112,0,0,1,91.54,64.02492c-.826.72028-1.49662,1.57311-2.25969,2.34388-1.11427,1.1255-2.10826,2.3597-3.16281,3.53928-.528.59067-1.22845,1.05166-1.413,1.89747-.50088.14815-.75665.58288-1.11478.9083-.69049.62743-1.1749,1.44052-1.8944,2.02609-.264.21483.19431.4177-.06632.57451-.3972.11372-.54193-.23306-.73661-.437a40.85107,40.85107,0,0,1-2.72465-3.26984c-.8924-1.15451-1.86415-2.243-2.82454-3.33863a24.32385,24.32385,0,0,1-1.645-2.31048c-1.01622-1.47265-1.92926-3.01063-2.82289-4.55892-.18872-.327-.663-.3821-.70347-.81735a7.021,7.021,0,0,1,1.29328-1.46054c1.91854-2.14387,3.85067-4.27571,5.76615-6.4225.80014-.89676,1.59227-1.80064,2.41171-2.68049.47457-.50954.87125-1.0858,1.32832-1.61493A35.2467,35.2467,0,0,0,83.9917,44.686a1.164,1.164,0,0,1,.19507-.23858.42576.42576,0,0,1,.48569.17929c1.10865,1.2701,2.3873,2.38432,3.42054,3.723C88.35184,48.685,88.84614,48.79983,88.95055,49.27573Z"/><path class="cls-10" d="M81.58177,75.32586c-.22416-.46211.08251-.72037.34713-1.03946.6867-.82806,1.51762-1.52657,2.14161-2.40859a.45616.45616,0,0,1,.0316-.05293c.14313-.15119.61371.16671.50565-.41882-.03929-.21287.37931-.49942.56733-.76753a11.61854,11.61854,0,0,1,1.024-1.042c.3492-.38531.71742-.78074,1.04166-1.17678.934-1.14085,1.98317-2.16608,2.984-3.24067,1.27121-1.36491,2.46806-2.7987,3.71781-4.184,1.22281-1.35545,2.47383-2.68543,3.70708-4.03154a.48114.48114,0,0,1,.64662-.15168c.39705.19639.51987-.08441.3876-.3551a.592.592,0,0,1,.12146-.73392,12.7453,12.7453,0,0,1,1.38347-1.48038,2.94589,2.94589,0,0,1,1.411,1.11707,10.25857,10.25857,0,0,1,1.49947,3.16547,1.10905,1.10905,0,0,0,.15759.39984.43992.43992,0,0,0,.40731.234c.18083-.02162.17389-.198.228-.32806a8.98279,8.98279,0,0,1,.87853-1.89487,11.399,11.399,0,0,1,4.08485-3.39219c.15839-.08205.42074-.08135.44076-.28614.02264-.23147-.22728-.32559-.39731-.42706-.54673-.32628-1.11605-.60949-1.63643-.9859a6.03232,6.03232,0,0,1-2.01151-2.82673.40823.40823,0,0,1,.01875-.46491c.21244-.1443.34667-.45859.707-.26966.10785.05654.3606-.03815.14894-.204-.32556-.255-.08284-.36626.06428-.51458.57213-.57673,1.14367-1.15416,1.724-1.72256.374-.36627.52537-.94217,1.07679-1.13985.46536-.28077.814.0195,1.08563.3a7.91739,7.91739,0,0,1,1.76571,2.58441c.21084.53661.41782,1.07387.6551,1.60018a4.39922,4.39922,0,0,1,.31012,2.179,25.5409,25.5409,0,0,1-.55114,3.58517,20.01623,20.01623,0,0,1-2.59661,5.72409,11.53162,11.53162,0,0,0-1.69144,3.59845c-.33109.11493-.41725.46385-.64464.67442-.87439.8098-1.55233,1.7948-2.4001,2.6368-.63712.6328-1.23942,1.33126-1.84854,2.00405a33.93576,33.93576,0,0,1-4.47447,4.27175c-1.78629,1.36655-3.60909,2.68817-5.31384,4.16237a10.42287,10.42287,0,0,1-1.59527.97278c-1.09639.643-2.31819,1.04567-3.37628,1.76539a5.57338,5.57338,0,0,1-.7583.36749,2.21851,2.21851,0,0,1-1.35748-.76854,45.41828,45.41828,0,0,1-4.23453-4.24223C81.77529,75.90368,81.48608,75.69594,81.58177,75.32586Z"/><path class="cls-11" d="M84.21879,44.45874c.09644.34415-.25361.44215-.38641.64983a12.64916,12.64916,0,0,1-1.83164,2.33519c-.555.53417-1.00849,1.15259-1.508,1.7253-.57278.65677-1.19046,1.28638-1.71871,1.9678-1.15953,1.49574-2.49418,2.83076-3.73965,4.24333-1.17092,1.328-2.31391,2.69012-3.58961,3.92937-.41224.40047-.76534.86792-1.20379,1.24964a.15335.15335,0,0,1-.14854-.149c.011-.45335-.351-.74983-.506-1.13663-.284-.70875-.50636-1.4365-.75943-2.153-.32576-.92232-.55249-1.87721-.81261-2.82085a18.92444,18.92444,0,0,1-.61937-5.27483,11.95585,11.95585,0,0,1,1.33582-5.5601,5.54558,5.54558,0,0,1,1.48854-1.72458A6.85445,6.85445,0,0,1,72.759,40.21877c.8483-.21111,1.72812-.12934,2.57773-.31542.07866-.01723.18134.07508.27286.11653a1.462,1.462,0,0,0,.8485.31948,7.468,7.468,0,0,1,4.79508,1.50128,9.23775,9.23775,0,0,1,1.47795.97928C83.24912,43.32786,83.98915,43.67958,84.21879,44.45874Z"/><path class="cls-12" d="M107.96827,64.27366a1.89871,1.89871,0,0,1,.37283-1.59334,15.88287,15.88287,0,0,1,1.644-2.72463c.18269-.19978.21374-.53039.3716-.76195.72347-1.06111,1.0019-2.33771,1.67863-3.4194-.22071-.828.37375-1.50225.43177-2.28718.05222-.70644.17088-1.422.18786-2.12092a4.47528,4.47528,0,0,0-.44072-2.42876c-.31884-.55533-.44254-1.2213-.75189-1.78372a7.44424,7.44424,0,0,0-1.63069-2.15468,1.14115,1.14115,0,0,0-.84075-.29667,24.79337,24.79337,0,0,0-2.93475-1.088c-.33733-.15824-.34693-.28327-.10957-.51364l.17988-.01443a13.04177,13.04177,0,0,1,3.67315.7706,11.19681,11.19681,0,0,1,1.66.85908l-.00694-.00618a.80814.80814,0,0,0,.12879.10363,7.09016,7.09016,0,0,1,2.57924,3.01407,12.99858,12.99858,0,0,1,1.11564,4.71658,1.77866,1.77866,0,0,1-.11062.53189,27.53774,27.53774,0,0,1-.75432,2.79992,17.46968,17.46968,0,0,1-1.9997,3.99359c-.5854.82646-1.12813,1.68423-1.73656,2.493a7.07061,7.07061,0,0,1-2.017,2.03566,1.81034,1.81034,0,0,1-.49641.22208C107.76955,64.70576,107.90033,64.46463,107.96827,64.27366Z"/><path class="cls-4" d="M70.09247,60.41024l.14854.149a4.56193,4.56193,0,0,1,1.21651,1.50348,23.52862,23.52862,0,0,0,1.7365,2.847,34.069,34.069,0,0,0,2.70785,3.78078c1.085,1.21069,2.13775,2.45648,3.11991,3.764a16.17476,16.17476,0,0,0,2.56,2.8714,23.25841,23.25841,0,0,0,2.81588,3.14634c.53586.53578,1.10122,1.042,1.65094,1.564a13.51469,13.51469,0,0,0,1.50824,1.09247c.36328.34432.20741.55246-.18623.688a2.51155,2.51155,0,0,1-2.435-.41724c-.94921-.69028-1.75482-1.53884-2.62474-2.31388a27.53757,27.53757,0,0,1-2.29183-2.38928c-.79158-.89822-1.57817-1.80862-2.278-2.77791-.89263-1.23637-1.91165-2.3705-2.72255-3.67986-.775-1.2514-1.4528-2.555-2.22756-3.80328a.52536.52536,0,0,0-.118-.14113,4.04674,4.04674,0,0,1-1.02183-1.64245c-.42-.87427-.93917-1.69464-1.3557-2.5725a5.36253,5.36253,0,0,1-.39593-1.54823C69.895,60.50113,70.025,60.45093,70.09247,60.41024Z"/><path class="cls-4" d="M84.21879,44.45874c-.29677-.41768-.80287-.62548-1.10039-1.01352A7.426,7.426,0,0,0,81.50866,42.214c-.4038-.31091-.8831-.46263-1.28336-.78166a5.28931,5.28931,0,0,0-2.66718-.92215,5.65423,5.65423,0,0,0-1.23652-.002.58571.58571,0,0,1-.712-.48831,7.5581,7.5581,0,0,1,2.41671.02319,11.51186,11.51186,0,0,1,2.65568.56217A16.62086,16.62086,0,0,1,83.738,42.056a15.86431,15.86431,0,0,1,2.43757,1.74063,10.99516,10.99516,0,0,1,1.77886,1.79346c.681.89209,1.38895,1.76465,2.04011,2.67782.16754.23495.50041.565.24765.8686a.79955.79955,0,0,1-.98575.16349.88.88,0,0,0-.30588-.02423,23.95083,23.95083,0,0,1-2.4644-2.49611C85.692,46.04531,85.07059,45.13914,84.21879,44.45874Z"/><path class="cls-9" d="M109.82968,43.98856c-.67213-.17966-1.35615-.32462-2.01272-.54964-.55406-.1899-1.1525-.11877-1.6905-.35256a4.36219,4.36219,0,0,1,1.87556.07772,5.12221,5.12221,0,0,1,1.97855.66637A.18019.18019,0,0,1,109.82968,43.98856Z"/><path class="cls-10" d="M109.82968,43.98856l.15089-.15811a2.88809,2.88809,0,0,1,1.47908.88559A8.431,8.431,0,0,1,109.82968,43.98856Z"/><path class="cls-10" d="M111.5815,44.81349c-.0761.00666-.13177-.01205-.12879-.10362Z"/><path class="cls-13" d="M63.40885,47.0595l.05538.06365-.06162-.05733Z"/><path class="cls-14" d="M28.69622,67.744a3.033,3.033,0,0,0,1.6343,1.00446.51971.51971,0,0,1,.2057.12306c.16249.14068.48772.17088.49164.38719.0045.24822-.32828.25349-.5057.377a6.36454,6.36454,0,0,0-3.02747,3.90163c-.03183.15725.02.35292-.20869.38248a.43934.43934,0,0,1-.48641-.29743,6.894,6.894,0,0,0-.64822-1.38363,4.87606,4.87606,0,0,0-.76713-1.02287,3.9852,3.9852,0,0,0-1.79144-1.06,2.071,2.071,0,0,1-.57967-.19858c-.2543-.12756-.56811-.20247-.12669-.57389a13.34548,13.34548,0,0,1,1.48845-.92315,4.65606,4.65606,0,0,0,2.2313-2.7981c.0448-.17832.13358-.38989.39961-.4017.287-.01274.39293.16813.47677.39273A4.585,4.585,0,0,0,28.69622,67.744Z"/><path class="cls-15" d="M105.26979,48.553a5.83661,5.83661,0,0,0,2.32441,3.3485c.57366.41439,1.25071.62491,1.8012,1.0722.32607.26494.28555.4406-.05847.54342a9.22855,9.22855,0,0,0-2.98446,1.88229,6.05552,6.05552,0,0,0-2.311,3.69405c-.03155.172-.09459.28272-.26035.27433a.70061.70061,0,0,1-.70269-.40076c-.146-.35743-.2327-.73669-.34663-1.10271a10.15008,10.15008,0,0,0-1.392-2.63972c-.29181-.43246-.85294-.55423-1.151-.98216a4.60354,4.60354,0,0,0-1.643-.86476,2.24108,2.24108,0,0,1-.5574-.245c-.21121-.17716-.4405-.35726-.01586-.64163.88-.58929,1.88045-.92879,2.79447-1.446a6.14857,6.14857,0,0,0,3.01368-3.38787c.08921-.26068.25114-.55145.58371-.55017a.61632.61632,0,0,1,.63188.56918C105.04139,47.98742,105.28769,48.22806,105.26979,48.553Z"/></g></svg>