<svg width="120px" height="120px" viewBox="0 0 120 120" xmlns="http://www.w3.org/2000/svg"><defs><style>.cls-1{fill:#7bc078;}.cls-2{fill:#fdfdfd;}.cls-3{fill:#cbcbd6;}.cls-4{fill:#babbc8;}.cls-5{fill:#2c3c59;}.cls-6{fill:#d48de3;}.cls-7{fill:#f37878;}.cls-8{fill:#f2e476;}.cls-9{fill:#7694cb;}.cls-10{fill:#f3ba76;}.cls-11{fill:#e7e8ec;}.cls-12{fill:#fefefe;}.cls-13{fill:#ccccd6;}.cls-14{fill:#2f3f5a;}.cls-15{fill:#f37676;}</style></defs><title>hs-huzzah-47</title><g id="Layer_2" data-name="Layer 2"><path class="cls-1" d="M9.6307,14.50908a1.98662,1.98662,0,0,1,.64579,1.77333c-.07331,2.07805.04307,4.1666-.11153,6.23155C10.03521,24.247,9.16468,25.03,7.63987,24.84156c-1.26878-.15684-1.53323-1.43809-1.18328-2.53659a1.78991,1.78991,0,0,1,1.61458-1.427c.22494-.018.30957-.16882.3159-.39214.03089-1.09055.07233-2.18081.10477-3.27132a1.03981,1.03981,0,0,0-.05553-.25113,1.00154,1.00154,0,0,0-.18828.09916q-1.62046,1.35076-3.23754,2.70559a.84987.84987,0,0,0-.292.93062,17.673,17.673,0,0,1,.28766,3.95639,29.64678,29.64678,0,0,1,.00258,2.98393c-.12679.825.21512,1.65175-.12459,2.44416a.6264.6264,0,0,1-.18878.26614,2.46088,2.46088,0,0,1-3.61218-.66586,1.12174,1.12174,0,0,0-.20232-.17982V28.48135a.54111.54111,0,0,0,.091-.263A1.24585,1.24585,0,0,1,2.368,27.08573c.47776-.01476.63892-.17052.67317-.666.1293-1.87026.00375-3.74629.16083-5.61433A.46347.46347,0,0,0,3.19366,20.58c-.35334-.761.11638-1.15083.62789-1.61008,1.22488-1.09972,2.51053-2.13222,3.6827-3.2901.444-.43857,1.054-.66886,1.44464-1.17078Z"/><path class="cls-2" d="M8.94889,14.50908c.11518.39976-.237.55072-.45291.67639a30.26771,30.26771,0,0,0-3.19977,2.7112c-.679.5311-1.29012,1.149-1.93226,1.72732-.17565.15819-.30056.27808-.103.55324.29412.40966.12042.92981.08257,1.36337-.14816,1.6973-.00348,3.39709-.12315,5.09155-.025.35428-.054.67385-.54569.60156-.98525-.14485-1.44129.479-1.79383,1.24764,0-4.52489.00472-9.04981-.00953-13.57466-.00107-.3389.068-.40978.40732-.4074C3.83528,14.51723,6.39211,14.50908,8.94889,14.50908Z"/><path class="cls-3" d="M19.76386,75.404c-.21177-1.94057-.79538-3.80556-1.16959-5.71368-.563-2.87078-1.11155-5.74533-1.83278-8.58438-.29436-1.15869-.38885-2.3676-.67178-3.52995a5.98827,5.98827,0,0,0-.43557-1.56586c-.14726-.26548-.16009-.42012.26408-.51446,1.16385-.25885,2.3026-.62836,3.45715-.93173,1.28368-.3373,2.5827-.61881,3.85885-.98152,1.45373-.41319,2.94189-.70812,4.35885-1.24915a5.753,5.753,0,0,1,1.52447-.5239,1.08833,1.08833,0,0,1,.1534-.01541.99128.99128,0,0,0,.30225-.094c1.97983-.34532,3.85867-1.06683,5.80358-1.54662,1.62385-.4006,3.25309-.82993,4.8655-1.29917.65133-.18954,1.31605-.3331,1.96238-.54219,1.21123-.29694,2.40647-.65359,3.6108-.97412a5.667,5.667,0,0,0,.841-.211,6.31488,6.31488,0,0,1,1.53648-.37365,18.86562,18.86562,0,0,0,2.21971-.67955,4.38668,4.38668,0,0,0,.94121-.21314c1.29989-.34831,2.60882-.66134,3.8954-1.05719.17876-.02479.34647-.09942.52621-.119,1.368-.38981,2.75058-.726,4.11667-1.12209.28976-.05551.55842-.18692.84854-.241a42.17273,42.17273,0,0,0,4.11018-1.09193c1.886-.34587,3.64836-1.15365,5.54636-1.46847.67932-.11267,1.32036-.432,2.01607-.51039.44687-.03835.86028-.2325,1.304-.28942a14.20705,14.20705,0,0,0,2.9548-.67152c1.45646-.4039,2.9201-.782,4.37567-1.189,2.03508-.56906,4.04217-1.26582,6.10511-1.69925,1.76814-.37148,3.45283-1.01579,5.22248-1.37907a4.03192,4.03192,0,0,1,2.33737.038c.13434.05022.25523.06531.24657.24066-1.43758.97708-2.88669,1.94415-4.2719,2.98836-1.43244,1.0798-2.89847,2.11708-4.29088,3.255A38.45366,38.45366,0,0,1,83.039,44.2389a4.128,4.128,0,0,0-.87664.884,15.18833,15.18833,0,0,0-2.33012,1.20548,3.19711,3.19711,0,0,0-.82678.80978,18.58848,18.58848,0,0,0-2.85434,2.52052,21.43808,21.43808,0,0,0-1.99106,1.484c-.99785.806-2.08859,1.486-3.07567,2.30205-1.08881.90012-2.21911,1.74708-3.31488,2.6378a1.29493,1.29493,0,0,0-.31954.3928c-.20668.21248-.50663.19831-.75556.31317a4.84263,4.84263,0,0,0-.50538.07791c-1.61453.47563-3.27.78487-4.9051,1.17387-2.35226.55962-4.68684,1.19127-7.04747,1.715-.66014.14648-1.29595.37509-1.95017.54439a22.90127,22.90127,0,0,0,3.20009-.64782c3.07364-.79675,6.18995-1.413,9.266-2.19937a2.79055,2.79055,0,0,1,.89834-.08588c.3991.24683.05257.39728-.08434.55646-.492.57209-1.16422.95846-1.62388,1.56539a.74574.74574,0,0,1-.18238.17282,2.35556,2.35556,0,0,1-.39086.16081,1.20382,1.20382,0,0,1-.16546.04733c-2.11988.46287-4.22352.99332-6.33172,1.50464a7.28523,7.28523,0,0,0-.91276.3057c-.09228.03579-.267.03849-.22061.19026.03567.11681.19293.104.3.086a13.00029,13.00029,0,0,0,1.88885-.36764c1.31417-.42768,2.703-.53488,4.02007-.94779a.50846.50846,0,0,1,.33343.01546c.32541.26967.04567.48265-.09622.66388a25.34292,25.34292,0,0,1-1.69075,2.09973,5.486,5.486,0,0,0-.9462,1.39161,1.10413,1.10413,0,0,1-.52037.26181,18.59,18.59,0,0,1-1.92678.47937c-.58053.10625-.78351-.04113-.93009-.62245-.13418-.53207-.233-1.07126-.33855-1.60952-.16027-.8172-.71335-1.02981-1.42643-.58369a.39.39,0,0,0-.17809.48332,5.673,5.673,0,0,0,.61546,2.103.59913.59913,0,0,1,.04224.43614c-.04326.52108.16818.73464.68494.7176a2.423,2.423,0,0,0,.75634-.22371,6.98164,6.98164,0,0,1,2.13723-.45492c.18966.17609.07248.34878-.01975.50654-1.099,1.87973-2.33379,3.67466-3.46608,5.53378-.11447.18794-.2331.40723-.52672.31918a1.17678,1.17678,0,0,1-.41979-.78129c-.54419-2.38394-1.44948-4.655-2.16343-6.98555-.22685-.74054-.34428-1.513-.58638-2.25109-.06665-.20318-.08261-.56175-.33948-.50441-.27637.0617-.12154.38706-.07209.58615.4551,1.83235.93268,3.66089,1.305,5.51087.385,1.91309,1.05625,3.74709,1.469,5.64955a2.25568,2.25568,0,0,1,.0184.51327,2.32925,2.32925,0,0,1-.58358.93719c-1.02227,1.35731-1.95432,2.77421-2.87542,4.2043a42.697,42.697,0,0,1-3.16436,4.49078c-.23243.27544-.43278.57382-.64382.86412a53.89249,53.89249,0,0,1-3.91628,4.545,9.81424,9.81424,0,0,1-1.02738,1.13037,29.66161,29.66161,0,0,1-4.87489,1.38827c-.48923.13326-2.97432.83-3.41324.9892-1.98306.71925-4.04547,1.17731-6.04228,1.85863a12.61605,12.61605,0,0,1-2.1537.62095.99756.99756,0,0,1-.2668-.491c-.81165-2.69734-1.45888-5.4389-2.20039-8.15482-.63717-2.33378-1.15834-4.69642-1.81487-7.025a30.64859,30.64859,0,0,1-.67208-3.04325A2.71142,2.71142,0,0,0,19.76386,75.404Z"/><path class="cls-4" d="M59.52367,64.72891a2.52741,2.52741,0,0,1,.71925-1.25314,19.896,19.896,0,0,0,2.11765-2.72318c.06407-.21133.24166-.2523.42382-.284,1.34035-.38862,2.747-.52539,4.05755-1.03434.24455-.095.68525-.07882.6328-.40232-.02992-.18462-.47162-.02791-.72044.01619a17.83486,17.83486,0,0,0-2.38678.48845c-.17641.05684-.36794.11823-.53129-.04736.35913-.78406,1.20748-1.09,1.70642-1.73959.07555-.09836.2234-.14111.22494-.2977.09413-.26269.34951-.25639.55336-.334a10.53276,10.53276,0,0,0,2.06464-.63873c-.441-.07573-.7537.24449-1.02781-.05976.35023-.73461,1.09433-1.06716,1.67741-1.53424a35.80567,35.80567,0,0,1,3.00214-2.36376c1.40611-.89739,2.55467-2.14086,4.045-2.91149.10976.17157-.02148.28693-.11012.39442a6.35434,6.35434,0,0,0-.81452,1.40949A11.39025,11.39025,0,0,0,73.57834,55.209a12.78642,12.78642,0,0,0-.29713,5.42407,10.44765,10.44765,0,0,0,.439,2.61524A15.428,15.428,0,0,0,77.54688,68.79a14.66068,14.66068,0,0,0,6.60646,3.31967,5.82988,5.82988,0,0,0,1.35035.14268,18.50623,18.50623,0,0,0,6.21407-.72536,3.10527,3.10527,0,0,0,.76779-.36014c.26621-.17841.05466-.2625-.08278-.35447-.17393-.38944.1973-.38071.37424-.46117a4.58767,4.58767,0,0,0,1.819-1.2734,15.20581,15.20581,0,0,0,2.6789-2.83453,11.02109,11.02109,0,0,0,1.71929-4.22139,1.16136,1.16136,0,0,1,.25079-.679.63085.63085,0,0,0,.22-.55671,13.69741,13.69741,0,0,0-.46913-4.254,21.84405,21.84405,0,0,0-2.83394-6.02244,9.55382,9.55382,0,0,0-1.75061-1.91829c-.43807-.38273-.80877-.83991-1.25918-1.2168a14.26332,14.26332,0,0,0-3.87222-2.16642,16.48369,16.48369,0,0,0-3.24142-.63091,1.40473,1.40473,0,0,0-.99715.10025c-.28207.16262-.55849-.03094-.833.02911a9.13491,9.13491,0,0,0-1.4351.32344c-.19941.07844-.42.20656-.64112.029a1.99687,1.99687,0,0,1,.88172-.99019c1.39658-1.00212,2.6496-2.17828,3.99625-3.23823,1.282-1.0091,2.62236-1.94468,3.9449-2.90175.998-.72223,2.00606-1.43073,3.01475-2.13806.30306-.21251.57069-.50733.98968-.48995.28256,1.1459.715,2.25026.92778,3.417.06093.3342.89336,2.16.725,2.83476-.01756.07037.42941,1.21385.53889,1.62479.23026.86425.60894,1.68286.80043,2.56458.48653,2.24014,1.09653,4.45337,1.65,6.67913q1.39671,5.61645,2.78442,11.23515,1.07075,4.32766,2.137,8.65644a2.04956,2.04956,0,0,1-1.27988.3676,44.85132,44.85132,0,0,0-4.64771,1.04592c-2.29114.56946-4.5395,1.29943-6.8587,1.77126-1.29513.26348-2.53976.74207-3.82331,1.072q-2.27082.58373-4.532,1.2057c-2.29831.63121-4.61971,1.18688-6.8888,1.91923-1.37991.44538-2.80024.72785-4.18783,1.13319-1.92468.56224-3.86078,1.08347-5.78629,1.64264-1.14327.332-2.272.71762-3.43871.96955a3.582,3.582,0,0,0-1.73959.63144c-.52725.5219-1.04115.322-1.59092.37767a6.37268,6.37268,0,0,0-1.73373.52148,50.45581,50.45581,0,0,1-5.36937,1.62309A8.049,8.049,0,0,0,49.193,88.2181c-.58587.15508-1.161.38668-1.72517.54245a13.60474,13.60474,0,0,0-1.59308.26959c-1.22307.494-2.57764.52255-3.76634,1.11052-.24711.12224-.42078-.21315-.6568-.07382a2.10029,2.10029,0,0,1,.668-.9531,66.35355,66.35355,0,0,0,5.3647-6.427c1.30086-1.79825,2.50421-3.65685,3.72564-5.507a12.28949,12.28949,0,0,1,2.12512-2.80331c.15751-.13322-.09312-.46789.26557-.45247a.97675.97675,0,0,1,.37066.55683c.147.44583.45507.52658.87649.52827a6.68309,6.68309,0,0,0,2.28863-.61153,44.75089,44.75089,0,0,1,6.64287-1.71307,66.45,66.45,0,0,0,8.91335-2.17988c.36211-.12432.74655-.12828,1.1079-.23924.503-.15448.64421-.38274.47116-.82844-.9811-2.52682-1.57666-5.169-2.33811-7.76146a6.61158,6.61158,0,0,0-.49559-1.20525c-.09353-.17855-.19459-.42515-.44785-.34208-.22185.07277-.14609.31677-.145.499a10.43335,10.43335,0,0,0,.68392,3.03339c.46248,1.48293.70731,3.01911,1.15865,4.50432.14169.46622.06357.97765.18177,1.46042.078.31856-.11409.4812-.408.5716a23.78279,23.78279,0,0,1-3.745.88149c-.93667.12908-1.83663.45765-2.76394.64035-2.91432.57418-5.82058,1.17705-8.67194,2.0212-.60055.17779-1.17989.40957-1.76634.623-.40628.14786-.649.06126-.75852-.3774a11.05676,11.05676,0,0,1-.3586-1.43038.53478.53478,0,0,1,.09231-.453A6.51718,6.51718,0,0,0,55.836,70.16218c.87345-1.3517,1.72543-2.71726,2.58377-4.07869a1.11138,1.11138,0,0,0,.0797-.20924.363.363,0,0,1,.21926-.15848c2.08822-.51263,4.173-1.04425,6.28034-1.48034,1.16625-.24134,2.28591-.65892,3.45473-.89745.564-.11509.63132-.33975.53112-.90994-.12811-.729-.54011-1.36378-.64541-2.1038a.55425.55425,0,0,0-.726-.45541c-.4.07382-.47626.32053-.48766.69451a13.1348,13.1348,0,0,0,.3037,1.77935c.07023.68582.01648.70146-.63779.86931-1.77466.45532-3.58734.74615-5.34473,1.28312A3.45466,3.45466,0,0,1,59.52367,64.72891Z"/><path class="cls-4" d="M19.76386,75.404a3.8182,3.8182,0,0,1,.62347,1.805c.44552,2.0904,1.04748,4.13958,1.559,6.21209q.92967,3.76672,1.91008,7.52084c.3503,1.33247.83872,2.62733,1.11112,3.98221-1.40992.25455-2.81345.55653-4.232.74707-.942.12655-1.89791.17747-2.84713.26275-.71509.06425-1.03142-.62251-1.17043-1.12411-.64031-2.31047-1.12952-4.66277-1.76856-6.97364q-.91088-3.29391-1.73012-6.61058c-.69821-2.80054-1.4342-5.59247-2.11489-8.39787-.47342-1.95117-1.02066-3.88436-1.52578-5.828-.48053-1.849-.97394-3.69514-1.41554-5.55349-.38132-1.60471-.20542-1.96487,1.18481-2.86429a18.90721,18.90721,0,0,1,3.13883-1.59485,7.28744,7.28744,0,0,0,1.20408-.70356c.32969-.2169.52079-.29948.65436.21275.59172,2.26924,1.25047,4.52133,1.81744,6.79645a13.23825,13.23825,0,0,0,.38114,1.74065c.0718.18147-.10609.53414.32933.46151.01847-.00308.0895.1163.07523.13726-.52689.77418.158,1.42567.26353,2.1177a46.95944,46.95944,0,0,0,1.55581,6.2582c.23265.78278.67942,1.5126.86192,2.33048.02227.09981.06651.1905.18261.17149.14825-.02427.07514-.14911.06735-.22435C19.849,75.99092,19.8037,75.69772,19.76386,75.404Z"/><path class="cls-5" d="M49.193,88.2181c.009-.76255.74134-.71886,1.15721-.9433a20.21592,20.21592,0,0,1,4.664-1.49177c1.47916-.3818,2.866-1.01021,4.32969-1.414.39374-.10862,1.65089-.37459,1.88785-.48108a39.07177,39.07177,0,0,1,4.10595-1.25467c1.86329-.60342,3.79857-.98388,5.66442-1.58046,1.36477-.43639,2.75451-.78786,4.12918-1.16873,2.00337-.555,3.99367-1.16651,6.01668-1.65914,1.33435-.32494,2.639-.7637,3.99091-1.04.94037-.19216,1.83966-.57827,2.77586-.79912,1.87708-.44283,3.69716-1.09482,5.59742-1.45727a32.29483,32.29483,0,0,0,3.13644-.83139c1.92336-.57235,3.87236-1.03948,5.83246-1.46071.67275-.14458,1.36084-.21789,2.04192-.32376.44-.111.69869.045.75554.50723.05056.41081-.254.52371-.54118.64718a64.78923,64.78923,0,0,1-7.842,2.49815c-1.46773.42088-2.92833.86658-4.3959,1.28806a24.14814,24.14814,0,0,1-3.606.95521c-.858.10637-1.49512.66184-2.34036.75732a17.0467,17.0467,0,0,0-2.53629.66053c-.29641.0815-2.71827.5736-3.58081.887-1.1702.42517-2.39572.69886-3.599,1.03231q-2.20579.61128-4.4142,1.21305c-2.235.605-4.46821,1.21727-6.70951,1.79818-1.34721.34918-2.712.63015-4.062.96919-.96444.24221-1.91011.56081-2.87726.79008-1.36444.32346-2.74687.57135-4.11031.89861-.9239.22176-1.81779.57235-2.7446.77706A11.6647,11.6647,0,0,1,49.193,88.2181Z"/><path class="cls-6" d="M25.42608,26.4364c.117-.01548.29374-.10773.19648-.18542-.7617-.6084-.25766-1.49909-.51652-2.224a8.86749,8.86749,0,0,1-.22755-1.608c-.01693-.10918.06464-.31367-.11647-.32018-.09228-.00332-.21156.14535-.28271.24977-.48634.71376-.95456,1.43994-1.44519,2.15069a21.97477,21.97477,0,0,1-1.90985,2.67332c-.18208.19467.05725.83409.17463,1.24862a23.56567,23.56567,0,0,1,.8703,4.44281c.05964.71539.42262,1.30907.47413,1.991a3.89941,3.89941,0,0,1-.6811,2.77137,1.37129,1.37129,0,0,1-1.02014.40414,3.09608,3.09608,0,0,1-3.18886-1.72565,3.45036,3.45036,0,0,1-.12043-2.51046c.21959-.74786.90778-1.10615,1.8999-1.11184.50557-.00289,1.13446.31009.82479-.7876-.40935-1.451-.4798-2.99419-.91312-4.45333-.12513-.42137.106-.8249-.00172-1.23728a.25252.25252,0,0,1,.16959-.09832c.60915.08141.71707-.45288.9708-.792a38.84934,38.84934,0,0,0,3.05412-4.83359c.40675-.7529,1.1561-.3495,1.74839-.37479.44637-.01906.50558.43608.64365.80252a25.837,25.837,0,0,1,.991,6.01916,10.43847,10.43847,0,0,1-.0058,3.42682c-.26476,1.29526-.72771,1.60589-2.11966,1.53471a2.01329,2.01329,0,0,1-1.647-1.73347,5.52188,5.52188,0,0,1,.005-1.90063A1.339,1.339,0,0,1,24.7753,26.893c.32977-.00131.6772.04408.65024-.456Z"/><path class="cls-7" d="M114.74307,97.1077c-.01525-1.30082.52977-2.53843,1.942-2.64815.22036-.01712.34024-.185.333-.44075a33.122,33.122,0,0,1,.11026-3.61049,2.79529,2.79529,0,0,0-.00446-.28059.54485.54485,0,0,0-.19465.05925c-1.189.99644-2.34825,2.03072-3.57192,2.98228-.57982.45088-.37188.94879-.30211,1.464a22.07517,22.07517,0,0,1,.23185,3.88645c-.046,1.11223.008,2.22863.02,3.34316.00059.05483.04727.11925.03027.16269-.32844.83924.14029,1.71894-.13139,2.56592a.65789.65789,0,0,1-.20308.31245,2.79123,2.79123,0,0,1-4.1703-.86113,1.83014,1.83014,0,0,1,1.4958-2.50476c.78191.00385,1.00985-.31077.99467-1.05421-.03276-1.6051-.03434-3.21354.03925-4.81658a4.33967,4.33967,0,0,0,.047-1.58638c-.36409-.91029.25535-1.16448.734-1.61979,1.46785-1.39624,3.07937-2.63343,4.495-4.08792a1.89905,1.89905,0,0,1,.848-.46317c.277-.07356.02784-.48408.4303-.47155a1.13589,1.13589,0,0,1,1.133.99573,33.38746,33.38746,0,0,1-.00066,3.718c.00208.37629.00812.75353-.01531,1.1286-.0124.19846.22072.49943-.19929.56911-.0702.01166-.08254.08857-.04494.1797a4.06052,4.06052,0,0,1-.49989,4.0946,2.07387,2.07387,0,0,1-3.45557-.2769A1.7419,1.7419,0,0,1,114.74307,97.1077Z"/><path class="cls-4" d="M45.87738,40.72607a5.16077,5.16077,0,0,1,2.08692-.863c1.68563-.55964,3.37086-1.12169,5.10111-1.54933,1.05-.25951,2.04771-.74564,3.07776-1.07507,1.30035-.41587,2.57475-.89992,3.864-1.34165,1.8795-.644,3.7272-1.38,5.59782-2.0507,1.768-.6339,3.54807-1.234,5.32275-1.84926,1.45063-.50288,2.90027-1.00861,4.35289-1.50566a3.07974,3.07974,0,0,1,.497-.08545c.33894,1.40661.6362,2.825,1.03049,4.216.29023,1.02383.62639,2.033.837,3.07942.05623.27944-.00305.37952-.26606.49445a16.31807,16.31807,0,0,1-2.99838.96824,2.23,2.23,0,0,0-.71961.41966c-.30978.19875.03236.25463.05634.37729-.3422.35808-.82595.32031-1.25083.44712a8.3856,8.3856,0,0,1-.58935-2.114c-.26083-.86634-.37337-1.77469-.69955-2.62445.1612-.3629.41023-.68651.23722-1.14758-.1524-.40614-.38519-.6339-.79462-.50261-.829.26583-1.776.17262-2.48593.80509a.3177.3177,0,0,1-.26375.07728,4.9899,4.9899,0,0,0-2.34918.47188c-.0532.02113-.107.03821-.16147.05543a10.83647,10.83647,0,0,1-2.00694.491c-1.76974.54465-3.54542,1.07431-5.335,1.5578-2.95669.79882-5.92,1.57977-8.83865,2.51128a18.63451,18.63451,0,0,0-2.68841.88142A.49684.49684,0,0,1,45.87738,40.72607Z"/><path class="cls-8" d="M106.39126,87.78349a2.17383,2.17383,0,0,1-2.09187-2.81331,6.73108,6.73108,0,0,1,.60705-1.52418,1.4238,1.4238,0,0,1,1.89633-.67973c.76291.34143.86007.29332,1.00794-.4934.30734-1.63519.52895-3.29428.97285-4.89161a5.53784,5.53784,0,0,1,.50085-1.61526c.18062-.28067.36415-.28023.68966-.27177,1.05513.0274,1.44406.632,1.68513,1.54311.13883.52466.60091.93259.64635,1.53106.02862.377-.04328.46018-.42625.40357a2.1669,2.1669,0,0,1-1.32464-.68421,1.1591,1.1591,0,0,0-.16-.12191,1.15722,1.15722,0,0,0-.06626.19821c-.23034,1.57237-.6617,3.10239-.97622,4.65677a21.99336,21.99336,0,0,1-.47426,2.6301C108.48,86.8384,107.93819,87.83719,106.39126,87.78349Z"/><path class="cls-9" d="M6.35976,51.09028c-1.56091.04805-2.215-1.20535-2.169-2.49737a5.6635,5.6635,0,0,1,.7256-2.04815,1.53093,1.53093,0,0,1,1.7818-.46158c.80061.34484.84707.33557,1.00148-.49211.28024-1.50216.48472-3.02052.82483-4.50836.12654-.55354.26588-1.1087.39736-1.66459.18043-.76281.64459-.89124,1.65235-.51912a.77457.77457,0,0,1,.591.62544A6.57249,6.57249,0,0,0,12.2553,41.592c.08466.1297.32893.24678.16464.41912a.72314.72314,0,0,1-.50878.18508,2.279,2.279,0,0,1-1.47709-.61244c-.066-.06239-.12574-.13145-.18838-.19743a1.99725,1.99725,0,0,0-.08578.25772c-.33947,1.7691-.69178,3.536-1.00329,5.31a12.52834,12.52834,0,0,0-.2301,1.42261C8.85081,49.6315,7.83542,51.25715,6.35976,51.09028Z"/><path class="cls-10" d="M93.93045,88.59472A54.32831,54.32831,0,0,0,96.276,94.15684a6.30411,6.30411,0,0,1,.859,2.71569,2.54441,2.54441,0,0,1-1.34938,2.00587,2.08889,2.08889,0,0,1-2.3828-.39841,3.81088,3.81088,0,0,1-1.04251-2.87058,1.32291,1.32291,0,0,1,1.14251-1.238c.88924-.21737.92085-.2296.55741-1.04048-.61713-1.37692-1.32466-2.71975-1.83973-4.13315a10.03722,10.03722,0,0,1-.71959-1.99267c-.04493-.31688.02764-.53142.36-.56762a.91852.91852,0,0,0,.44293-.21257.85881.85881,0,0,1,1.212.01187,5.71873,5.71873,0,0,0,2.1,1.06333c.48692.15575.39367.37519.0994.61546a2.4227,2.4227,0,0,1-1.76117.44989l-.0378-.01438q-.01087-.00072-.00785.00973Q93.91813,88.59472,93.93045,88.59472Z"/><path class="cls-11" d="M107.7408,51.32435c.68024.23831,1.31773-.42474,2.01366-.07985.10062.04987.22931-.2451.44819-.27894a2.4541,2.4541,0,0,1,2.373,2.17542.52356.52356,0,0,1-.58975.495c-.85841-.09268-1.57238.44-2.412.46773-.72547.02394-1.438.3264-2.16708.405a1.60957,1.60957,0,0,1-1.08484-.04906c-.22962-.13826-.34648.09719-.454.22547a.44387.44387,0,0,1-.68309.08858,4.06479,4.06479,0,0,1-1.07119-1.12565c-.08577-.13055-.21107-.33991.08987-.45089a.32411.32411,0,0,0,.15211-.27744c-.24939-.74934.34251-.82029.78777-.94675C106.003,51.72879,106.8774,51.53678,107.7408,51.32435Z"/><path class="cls-11" d="M107.24338,46.51467c-.00313.04572.02864.182-.0218.22779-.72681.65961-1.08118,1.66355-1.87611,2.20445a2.03937,2.03937,0,0,0-.76478.70893.90673.90673,0,0,1-1.35772.09174,2.72681,2.72681,0,0,1-.86857-1.33551,1.81209,1.81209,0,0,1,.589-1.57619c.59126-.65234,1.27358-1.22213,1.91609-1.82818.115-.10844.23524-.202.40219-.13022.21318.0916.364.08741.40039-.19367.01958-.15136.11887-.15281.2509-.1118A2.9783,2.9783,0,0,1,107.24338,46.51467Z"/><path class="cls-11" d="M109.56757,59.38288a10.27068,10.27068,0,0,1-4.064-1.26518,2.9771,2.9771,0,0,1-.95577-1.3655c-.098-.20148-.10355-.55572.34148-.34544.06505.03074.1478.08635.202.06854a3.37375,3.37375,0,0,1,2.7.27158,5.885,5.885,0,0,1,1.90393.9561,1.5591,1.5591,0,0,1,.601.9238C110.3783,59.17344,110.18715,59.48116,109.56757,59.38288Z"/><path class="cls-6" d="M25.42554,26.437l-.04977-.04395c.01045.00128.02491-.00122.03045.00467a.14986.14986,0,0,1,.01986.03873Z"/><path class="cls-12" d="M10.06366,20.35839c-.00062.011.00367.02541-.00169.03214-.00688.00864-.02152.0111-.03282.01622l.00227-.06608Z"/><path class="cls-9" d="M46.00841,82.82523a8.11052,8.11052,0,0,1-2.98992,2.39868,4.81918,4.81918,0,0,1-1.2937.62163,12.72286,12.72286,0,0,1-2.71294.6948.80036.80036,0,0,1-.61557.22745,7.95022,7.95022,0,0,0-1.90084.07852.43351.43351,0,0,1-.40865-.1467,5.22734,5.22734,0,0,1-1.49528-2.28c-.07642-.226-.12936-.53231-.53661-.4093-.19424.05869-.25606-.18662-.218-.31143a3.0088,3.0088,0,0,0-.35951-1.90793,7.49326,7.49326,0,0,0-.824-1.9772c-.07653-.11-.16734-.24681-.10327-.36739.36939-.69516.04227-1.38557-.055-2.05188a27.67063,27.67063,0,0,1-.09646-3.33253c-.04348-1.69671.11978-6.96177-.13717-7.176-.11241-.09372-.08255-.24319-.05253-.37426.50644-2.21181-.07768-4.298-.74011-6.37347a1.00979,1.00979,0,0,1-.08809-.76368c.447-.36844.867-.80266,1.54016-.5874a.55916.55916,0,0,0,.28093-.01777,17.92193,17.92193,0,0,1,4.45542-.17775,11.27259,11.27259,0,0,1,2.7277.70521,4.15628,4.15628,0,0,1,1.84515.93739,21.10087,21.10087,0,0,1,.68973,2.11687c.2276.64945-.06314,1.39242.45216,1.9489a.87915.87915,0,0,1,.13876.54359c.03608.73844.17278,1.46554.23758,2.19942a1.86248,1.86248,0,0,1-.17405,1.254c-.22094.35585.40153.56273.3379,1.02566a17.42055,17.42055,0,0,0-.02535,2.09721,31.85635,31.85635,0,0,0,.50519,6.35915,14.942,14.942,0,0,0,1.49335,4.41733C45.99065,82.39135,46.153,82.57946,46.00841,82.82523Z"/><path class="cls-6" d="M31.43777,59.39037c.07564.7386.5442,1.35467.63071,2.09717a15.6423,15.6423,0,0,1,.47033,3.88315,4.08726,4.08726,0,0,1-.211,1.235c-.02683.05917.18374,5.46807.21033,7.5657a19.45583,19.45583,0,0,0,.33272,4.55966c.05566.221.53639,2.41789.80838,3.17865.20816.58224.77381,1.81744.8703,2.0515.19689.47757.43094.934.60519,1.428.17647.50033.785.81181,1.07508,1.31713a1.59492,1.59492,0,0,1-1.31563.12061,12.58577,12.58577,0,0,1-5.83854-2.16547,25.18455,25.18455,0,0,1-3.24252-2.83,9.76792,9.76792,0,0,1-2.16068-3.55309c-.494-1.41109-.81464-2.86719-1.22313-4.29956a10.77432,10.77432,0,0,1-.1719-4.985,20.4611,20.4611,0,0,1,.39923-2.04827,13.579,13.579,0,0,1,5.58517-6.96952,2.86968,2.86968,0,0,1,1.47662-.71439,1.71844,1.71844,0,0,0,1.23835.03149A.37784.37784,0,0,1,31.43777,59.39037Z"/><path class="cls-4" d="M30.18383,51.01825a19.79168,19.79168,0,0,1,2.3515-.71534c.20771-.05652.29523-.10156.22333-.33441-.364-1.17956-.71576-2.36291-1.07171-3.545A8.58991,8.58991,0,0,0,30.056,47.78869c-.95838.89331-1.88465,1.821-2.82428,2.73444q.18072.905.36126,1.81012a7.32792,7.32792,0,0,0,1.71393-.46771C29.17273,51.15411,29.83117,51.16333,30.18383,51.01825Z"/><path class="cls-13" d="M74.83075,29.67053a29.5711,29.5711,0,0,0-3.36438.75555c-.37623.10388-.6811.35022-1.133.24732-.306-.06971-.52667.296-.97046.27624a6.21627,6.21627,0,0,0-2.0011.59393l-.00879.01026a32.34557,32.34557,0,0,0-5.2323,1.26691c-1.45733.37628-2.91919.76684-4.37036,1.17584a30.17609,30.17609,0,0,1-4.19794,1.07617c-.34753.0459-.57482.172-.94744.2561-1.55915.35175-3.05133.944-4.62159,1.2555-.42065.08343-.81085.32043-1.23156.40295-1.34662.264-2.65631.66522-3.97638,1.02679-.6366.17438-1.28858.43714-1.89026.56647-.61322.13178-1.17859.548-1.8443.46179-.09686-.01257-1.17493.23883-1.46814.31556-.99982.26141-2.00049.52044-2.99585.79827-1.812.5058-3.62415,1.01227-5.4248,1.55616-.18433.05566-.35132.042-.51221.08264-.2417.06109-1.33063.34888-1.52985.41614-.77978.26312-.91272,1.04864-1.19824,1.63354-.36462.74713.05029,1.55127.24915,2.3219.37359,1.44788.71563,2.90393,1.0708,4.35657.33062.08172.45977-.20282.63617-.37122,1.27587-1.21759,2.47924-2.5119,3.84906-3.62921l-.03-.0993c.17462-.39106.60138-.44776.89807-.67694.00769-.00867.02057-.00782.02875-.01569a.26557.26557,0,0,0,.00531-.06519c-.33631-.42193-.31324-.60076.12182-.89831a3.84088,3.84088,0,0,1,.50263-.26251,16.53252,16.53252,0,0,1,2.661-.78717c2.44879-.71949,4.88708-1.47162,7.37555-2.05713a13.52056,13.52056,0,0,0,2.64367-.83191,5.8047,5.8047,0,0,1,1.23682-.54645c.85614-.29321,1.71381-.58838,2.57861-.84729.95844-.28693,1.90045-.64209,2.87207-.86487a17.5512,17.5512,0,0,0,2.54126-.77832c1.35358-.53583,2.75385-.93054,4.11243-1.45117,1.83411-.70282,3.70965-1.29572,5.53986-2.01154.88012-.34417,1.76275-.67919,2.66235-.97064.91644-.29687,1.84711-.56384,2.73932-.91809,1.08972-.43274,2.2102-.76929,3.306-1.1795a10.4627,10.4627,0,0,0,2.26526-.85474C75.59686,29.98175,75.233,29.6087,74.83075,29.67053Z"/><path class="cls-8" d="M75.08311,51.36159A4.786,4.786,0,0,1,76.08245,49.61a9.05371,9.05371,0,0,1,2.85044-2.486c.40009.0213.74353-.34658,1.16711-.17.2409.29988.4869.26528.72825.00537a3.2735,3.2735,0,0,1,.29044-.32664,2.76912,2.76912,0,0,1,1.65613-.3704c.17993.3385-.13036.47351-.29636.64a12.16684,12.16684,0,0,0-1.176,1.30673.84357.84357,0,0,0-.13684.90107,4.36745,4.36745,0,0,1,.27888.92268c.06527.35621.15727.65438.5796.72894a.30482.30482,0,0,1,.25557.33131c-.012.16255-.1539.2069-.28223.2375-.28976.0691-.3353.20728-.14492.43369a.37689.37689,0,0,1,.10459.31287,29.89693,29.89693,0,0,0-.14283,3.72765c-.01407.27042-.03656.51612.25661.68826.20554.12068.15529.30557.00772.48006a2.70834,2.70834,0,0,0-.158,2.327c.14276.215.27126.39389-.09291.5065-.19262.05956-.18434.23918-.16643.38.1128.88645-.17916,1.76788-.04833,2.646a5.50678,5.50678,0,0,0,.404,1.81982,1.48515,1.48515,0,0,1,.08657.66428c.03785.80277-.04565,1.64647.66886,2.25337a.42475.42475,0,0,1,.09163.42506.849.849,0,0,0,.14548.70606c.66168.70952.70036,1.8382,1.61751,2.37213.12057.07018.11107.23093.054.36611a.43038.43038,0,0,1-.50152.16641A11.98593,11.98593,0,0,1,79.969,69.71877a18.07255,18.07255,0,0,1-3.26774-3.11815,9.58677,9.58677,0,0,1-1.24435-2.21652A13.15519,13.15519,0,0,1,74.435,59.72558a24.98337,24.98337,0,0,1,.02195-4.4012,24.292,24.292,0,0,1,.69117-3.03586A1.26342,1.26342,0,0,0,75.08311,51.36159Z"/><path class="cls-1" d="M46.00841,82.82523a2.778,2.778,0,0,0-.5185-1.047,12.04071,12.04071,0,0,1-1.014-2.71926,16.30815,16.30815,0,0,1-.51713-2.8803c-.07941-.613-.18974-1.22654-.20761-1.84212-.0373-1.28466-.02279-2.57084-.029-3.8564q-.003-.62382-.00287-1.24765c-.00034-.28918-.11411-1.17724-.11268-1.36235a12.62965,12.62965,0,0,0-.40334-3.45946,3.39834,3.39834,0,0,1-.20439-1.28666c.01932-.21263-.00221-.60823-.44607-.57493-.10747.00806-.18311-.06484-.09082-.17767a1.02276,1.02276,0,0,0,.03667-1.19667c-.1311-.28762-.23257-.58873-.3474-.88376.20833-.18812.39016-.03895.56784.05368a14.35629,14.35629,0,0,1,1.54483.84042.80225.80225,0,0,0,.09668.05949,10.689,10.689,0,0,1,3.83493,4.00825A25.29055,25.29055,0,0,1,49.977,69.719a9.24061,9.24061,0,0,1,.23474,1.33962c.02048.11008-.00574.23251.08055.32657a.35749.35749,0,0,1,.15-.2896,8.79148,8.79148,0,0,1-.035,3.75618,8.03424,8.03424,0,0,1-.648,2.25913,12.13793,12.13793,0,0,1-2.08331,3.78272c-.49978.49664-.69173,1.17637-1.206,1.64291A.89932.89932,0,0,1,46.00841,82.82523Z"/><path class="cls-2" d="M34.9518,52.77176c.04784-.14546-.06-.30028.10423-.32808.0607-.01027.16731.08554.208.15815a1.75649,1.75649,0,0,1,.1607.41843c.25788,1.00151.25575,1.00113,1.21917.74193,2.34392-.63063,4.70994-1.19043,7.025-1.91326,1.75693-.54855,3.54349-.96888,5.31215-1.46284,2.14512-.59909,4.28225-1.244,6.45532-1.72128,2.52861-.55536,5.00555-1.30052,7.5022-1.96179,2.32126-.61481,4.631-1.28685,6.95863-1.88684,1.73876-.4482,3.48027-.8857,5.22-1.3302,1.33988-.34234,2.677-.69578,4.01986-1.02587.26548-.06526.33269-.2055.2-.39275-.2838-.40049-.10794-.88019-.26674-1.29962a.226.226,0,0,1,.13652-.32531c.19136-.04139.26586.10167.30807.25736.25557.94271.50773,1.88635.76532,2.82851.05281.19312-.048.28171-.20309.34232a.21242.21242,0,0,1-.31842-.20224c-.05221-.80693-.60474-.66551-1.0521-.49862-1.88742.7041-3.86,1.10335-5.78591,1.66771-1.50544.44117-3.00925.89061-4.52621,1.28907-2.08067.54653-4.20314.95342-6.25047,1.601-1.496.47314-3.01973.83094-4.52564,1.25-1.38311.38489-2.79479.698-4.17027,1.11009-1.12969.33847-2.27837.60922-3.401.98379-1.25934.42016-2.58816.62748-3.87628.96709-2.81789.74293-5.629,1.51159-8.44342,2.26762a4.931,4.931,0,0,1-.76856.17563c-.69456.0704-1.12119.29841-.77381,1.09959.06894.159.06689.37822-.13133.43581-.18355.05333-.3311-.139-.3682-.2799C35.42248,54.7386,35.18626,53.73293,34.9518,52.77176Z"/><path class="cls-2" d="M50.44225,71.09563a1.1632,1.1632,0,0,1-.00871.16966c-.04439.22824.09448.63519-.106.64915-.235.01637-.22753-.43983-.2417-.61839a16.11688,16.11688,0,0,0-1.10281-3.93092,12.40463,12.40463,0,0,0-3.212-4.98657,9.80287,9.80287,0,0,0-2.66743-1.657c-.3419-.06385-.54737-.47538-.95246-.4307A10.08693,10.08693,0,0,0,38.51478,58.937a14.85211,14.85211,0,0,0-5.47322.01638c-.12409.01756-1.38357.343-1.60363.437a1.66614,1.66614,0,0,0-.81431.16749c-.359.11494-.69352.11092-.88514-.29605.10511-.88387.877-1.1744,1.5003-1.4242a8.79748,8.79748,0,0,1,2.96895-.79787,20.58458,20.58458,0,0,1,2.07909-.11252c.5656.12429,1.13662-.13047,1.71835.10577.46437.18859,1.01009.16529,1.499.30735a19.36329,19.36329,0,0,1,5.97274,2.90035,15.38022,15.38022,0,0,1,1.95847,1.87852A12.43636,12.43636,0,0,1,48.683,64.21211a10.5003,10.5003,0,0,1,1.20767,3.34305A10.97511,10.97511,0,0,1,50.44225,71.09563Z"/><path class="cls-2" d="M82.80931,46.33473a4.75074,4.75074,0,0,0-1.71016.45084,1.067,1.067,0,0,1-1.01245.22981c-.30011-.05266-.53812.13414-.80387.21217-.14782.0434-.29171.13131-.34988-.10364.164-.84567,1.02248-.9291,1.541-1.3837a6.18611,6.18611,0,0,1,1.65817-.68111c.636-.12913,1.22652-.409,1.88543-.484a16.90931,16.90931,0,0,1,3.61672-.00024,9.74459,9.74459,0,0,1,2.73164.89579,11.02289,11.02289,0,0,1,3.93448,2.79045,17.09644,17.09644,0,0,1,1.71984,1.78924,21.54151,21.54151,0,0,1,2.98348,6.01475,14.69265,14.69265,0,0,1,.62592,4.81413c-.00848.24354.03909.52079-.33559.53343a.565.565,0,0,1-.26126-.53164,18.719,18.719,0,0,0-1.241-5.095,15.11563,15.11563,0,0,0-2.5722-4.41,18.85829,18.85829,0,0,0-3.40453-3.21992,3.12623,3.12623,0,0,0-1.35963-.66676,11.43815,11.43815,0,0,0-3.45865-1.20658,7.5683,7.5683,0,0,0-3.42542.0475C83.331,46.39942,83.06335,46.51807,82.80931,46.33473Z"/><path class="cls-14" d="M22.67661,66.94563a5.07519,5.07519,0,0,1-.24984,2.02083,10.29115,10.29115,0,0,0-.06418,4.03813c.642,2.5311,1.05609,5.15782,2.51606,7.40472a14.401,14.401,0,0,0,2.82658,2.99253,12.61735,12.61735,0,0,0,3.20723,2.17775,13.45854,13.45854,0,0,0,4.93847,1.17223,2.61191,2.61191,0,0,0,.37869-.04572q1.3922-.08325,2.78316-.1664c.36121.30208-.02282.34649-.16731.42038a4.723,4.723,0,0,1-1.82941.32932,14.58243,14.58243,0,0,1-5.30864-.52861A12.66706,12.66706,0,0,1,27.54181,84.78a16.78629,16.78629,0,0,1-3.03867-2.732c-.28177-.34871-1.28446-1.60968-1.49587-1.93662a15.65223,15.65223,0,0,1-.6668-1.496A17.01485,17.01485,0,0,1,21.307,74.90494a12.84976,12.84976,0,0,1,.27021-6.01214,9.88884,9.88884,0,0,1,.582-1.70053C22.27609,66.94226,22.47445,66.96384,22.67661,66.94563Z"/><path class="cls-11" d="M54.50133,72.558c.1513.49565.33279.98474.44264,1.48941.0665.30549.15767.30483.41042.20252a48.14666,48.14666,0,0,1,8.61062-2.316c1.99-.4024,3.94113-1.0074,5.95659-1.24736.89615-.10668,1.67306-.56866,2.55974-.64047.2851-.02309.28683-.17389.24682-.43374A65.70977,65.70977,0,0,0,70.851,61.90293a7.9937,7.9937,0,0,1-.18549-1.55029c-.01382-.183-.09919-.43486.20538-.51284a.50684.50684,0,0,1,.60273.30286,9.83463,9.83463,0,0,1,.87512,2.31471c.39241,1.39091.71912,2.801,1.13662,4.184.30235,1.00157.72284,1.96689,1.06018,2.95874.213.62636-.34347.76053-.7136.83817-2.19057.45946-4.28252,1.27088-6.48673,1.70483-1.971.388-3.95444.73733-5.909,1.21283a46.27532,46.27532,0,0,0-5.71537,1.71433,2.24254,2.24254,0,0,1-1.5549.04239c-.36686-.14305-.46307-.7416-.56527-1.18867q-.04516-.23489-.09021-.46984a7.28149,7.28149,0,0,1,.53217-.72332C54.1626,72.60172,54.269,72.403,54.50133,72.558Z"/><path class="cls-11" d="M59.52367,64.72891c2.32377-.54414,4.65178-1.07154,6.96567-1.65482.27167-.06848.812.1891.80707-.31177a1.9118,1.9118,0,0,0-.1504-.96545,3.61592,3.61592,0,0,1-.20056-1.70534c-.00942-.35921.44291-.31705.71663-.41535a.4901.4901,0,0,1,.67474.23976,22.54849,22.54849,0,0,1,.9095,2.985c.09963.49751-.52884.56567-.89775.66329-1.36095.36016-2.73241.68138-4.10286,1.00481-1.51657.35791-3.03211.72293-4.55813,1.036-.32951.06759-.60612.33542-.9696.24407-.23631-.43576.12665-.64593.34325-.9112Z"/><path class="cls-2" d="M54.50133,72.558c-.50721.1034-.47508.80279-.991.89625-.43635-1.5132-.92756-3.01349-1.2862-4.5448-.17774-.75893-.28354-1.5423-.46488-2.30616-.37532-1.58107-.74343-3.164-1.142-4.73926-.06959-.275-.0655-.43226.2168-.52062.29459-.09221.41952.07585.49008.32088.146.50706.31876,1.0087.42766,1.52374a47.469,47.469,0,0,0,1.63873,5.25323,36.13043,36.13043,0,0,0,1.09918,3.66091Q54.49524,72.33,54.50133,72.558Z"/><path class="cls-2" d="M59.06123,64.93785c.0435.36319-.43149.53124-.34323.91124q-.10934.01239-.21858.025a11.9193,11.9193,0,0,0-2.37515.6451,1.07371,1.07371,0,0,1-1.18169.00305.63665.63665,0,0,1-.16735-.94211c.08847-.11658-.06443-.13422-.10565-.20082a5.21183,5.21183,0,0,1-.63852-2.51238c-.02246-.42435.71132-.475,1.15665-.523.54137-.05828.69738.38233.7925.78384.151.63717.229,1.29134.36943,1.9314.05865.26729.20654.462.56389.37C57.6245,65.24627,58.34479,65.09954,59.06123,64.93785Z"/><path class="cls-2" d="M66.33123,57.21568l-.56365.23621c-3.82494.87334-7.654,1.72937-11.471,2.63608-.67577.16053-1.3591.2754-2.03165.44249-.17787.04419-.35183.10278-.40169-.13562-.04408-.21073.10439-.28145.29367-.32692q3.80865-.915,7.61468-1.8409,3.17769-.76653,6.35832-1.52083a5.11408,5.11408,0,0,1,.67364-.07042C66.87625,57.01639,66.51172,57.04114,66.33123,57.21568Z"/><path class="cls-5" d="M55.8113,44.82811a9.17367,9.17367,0,0,1-.18759-1.07993c-.04064-.69444.63928-.58161.95-.62406a9.8974,9.8974,0,0,0,1.87416-.47632c1.26306-.43507,1.36077-.27875,1.51481,1.05388Z"/><path class="cls-2" d="M62.80131,60.60359q-.22039.07442-.44076.14892c-.84069.18317-1.68246.36152-2.52185.55045-1.24524.28027-2.48593.58185-3.73549.8409-.24861.05155-.6856.08314-.73637-.1879-.07324-.391.359-.35222.63822-.44841,2.27694-.78456,4.66055-1.14574,6.97588-1.77568a1.78838,1.78838,0,0,1,.39557-.01826C63.54256,60.24135,63.03042,60.33107,62.80131,60.60359Z"/><path class="cls-5" d="M60.77737,43.47375c-.04085-.199-.0875-.3969-.12153-.597-.13858-.815.00448-.87585.8139-1.0319a5.31481,5.31481,0,0,0,1.63446-.44061c.41934-.23971.8665-.1163,1.269-.29884.17812-.08078.242.04374.26459.236.03987.3398.12986.67372.19888,1.01011a6.03472,6.03472,0,0,1-1.69.543C62.366,43.119,61.568,43.28353,60.77737,43.47375Z"/><path class="cls-5" d="M51.37242,45.92575c-.24441-.37371-.15134-.81951-.257-1.22374-.03093-.11832.05885-.20813.19327-.22876,1.1653-.17889,2.2729-.58332,3.41052-.87041.15638-.03946.37627-.10561.371.17148-.00785.41007.28226.76022.21308,1.17683-1.18816.32747-2.37851.6474-3.56164.9921A.54492.54492,0,0,1,51.37242,45.92575Z"/><path class="cls-5" d="M46.68429,47.21107a1.35314,1.35314,0,0,1-.305-1.27251c.0395-.34816.558-.31372.83888-.38239.83472-.2041,1.687-.3396,2.51018-.60057.30892-.09794.50277-.02258.46885.34475a1.75639,1.75639,0,0,0,.22735.90183A18.16625,18.16625,0,0,1,46.68429,47.21107Z"/><path class="cls-5" d="M42.28,48.46485a14.32264,14.32264,0,0,0-.15966-1.53945c-.08006-.31182,2.10239-.49638,2.85839-.7678.74723-.26827.74121.15242.78369.62074.02134.23531-.04387.48594.16029.67624Z"/><path class="cls-11" d="M62.80131,60.60358c.05547-.38463.55943-.47957.5752-.88991l-.00167.00408c.08592-.12079.2761.06254.34184-.11712l.11953-.11138a32.71194,32.71194,0,0,1,3.52326-.70383c.21968-.02809.44078-.09168.52615.15061s-.19589.33624-.32881.38661a19.86055,19.86055,0,0,1-2.01755.6664C64.63467,60.2248,63.71468,60.4015,62.80131,60.60358Z"/><path class="cls-11" d="M66.33123,57.21568c.04245-.28667.39888-.31778.47217-.57969.09833-.294.41465-.029.55437-.21648a1.14174,1.14174,0,0,0,.70309-.14576c.15127-.10813.39937-.16607.49441.04185.11454.2506-.12326.38313-.3186.43471A8.47719,8.47719,0,0,1,66.33123,57.21568Z"/><path class="cls-2" d="M63.71668,59.60063c.08416.06.15024.16808.08047.23382-.18131.17084-.25091-.17581-.42229-.11668C63.45636,59.58413,63.59581,59.61948,63.71668,59.60063Z"/><path class="cls-4" d="M29.29325,51.87377l.126-.00792C29.3812,51.92839,29.34189,51.97438,29.29325,51.87377Z"/><path class="cls-10" d="M82.80931,46.33473a8.7599,8.7599,0,0,1,4.659-.12964,11.60165,11.60165,0,0,1,3.05976,1.14846,11.44078,11.44078,0,0,1,.79654,2.92475c.20389,1.61151.31038,3.22694.42692,4.84226.1291,1.78934.20983,3.58189.34969,5.37134A27.10867,27.10867,0,0,0,93.125,65.93412a8.29369,8.29369,0,0,0,1.20418,2.405,1.29994,1.29994,0,0,1,.31913.82775,3.47434,3.47434,0,0,1-1.69353,1.25784c-.20067.09232-.39533.19774-.59275.29715-.3013.39458-.78329.42786-1.19962.56a15.01879,15.01879,0,0,1-3.9946.65695c-.69188.02592-1.38149-.13309-2.07635-.16778-.19449-.00971-.41939-.06575-.46892-.32653.14461-.44721-.39813-.24329-.49161-.53122-.17838-.54944-.8381-.85524-.77516-1.58723.01143-.13293-.53351-.41531-.6044-.82937-.03655-.2135-.21659-.39913-.00642-.619a.15847.15847,0,0,0-.05473-.24426c-.91966-.5682-.67336-1.52841-.74011-2.35327-.02336-.28865.00672-.54678-.19876-.76548a.48286.48286,0,0,1-.11151-.65878c.2016-.28288-.24194-.21464-.21361-.478.07034-.65426-.07163-1.33933.05118-1.97751.1053-.54714-.0704-1.06192.017-1.58724.01434-.08616.09768-.48761.0974-.60866a9.57405,9.57405,0,0,1,.23131-2.32785c.15575.09092-.31759-3.39126.00837-4.76431a10.21924,10.21924,0,0,0-.46113-1.66927,6.08609,6.08609,0,0,0-.43674-1.44856c-.148-.31174.01559-.57212.196-.83314C81.60542,47.473,82.27415,46.96588,82.80931,46.33473Z"/><path class="cls-15" d="M94.64832,69.16682c-.36858-.58376-.73871-1.16654-1.10523-1.75159a18.8853,18.8853,0,0,1-.97885-2.94978,19.103,19.103,0,0,1-.559-3.22358c-.11289-1.20477-.29659-2.40891-.31343-3.61523-.02366-1.6947-.23437-3.37578-.27857-5.06263-.0271-1.03468-.34152-2.01723-.331-3.05254.00754-.74407-.61328-1.37206-.554-2.158a4.559,4.559,0,0,1,2.062,1.23023,19.0797,19.0797,0,0,1,3.26,3.33332,21.55837,21.55837,0,0,1,1.25885,2.02633,5.9513,5.9513,0,0,0,.39893.66125,9.74474,9.74474,0,0,1,.862,2.33983,19.22608,19.22608,0,0,1,.924,4.46833c-.18579.66368-.32451,1.33746-.53338,1.99832A9.61356,9.61356,0,0,1,96.01424,67.875C95.54759,68.28885,95.2524,68.89074,94.64832,69.16682Z"/><path class="cls-14" d="M84.62255,71.4444a7.94638,7.94638,0,0,0,3.22933.29994,17.47285,17.47285,0,0,0,4.15256-.85981c.123-.04338.2385-.10791.35754-.16267.237.01514.58092-.08372.64892.18968.06138.24677-.287.29361-.47606.40058a9.73294,9.73294,0,0,1-3.93809.98979,17.48136,17.48136,0,0,1-3.63.04388,15.38549,15.38549,0,0,1-3.57633-.942,11.34144,11.34144,0,0,1-3.30214-1.93825,14.72238,14.72238,0,0,1-4.17038-5.44408,15.93646,15.93646,0,0,1-.88673-4.40443,9.53267,9.53267,0,0,1,.14753-3.45095A14.88615,14.88615,0,0,1,74.7363,51.7033a1.867,1.867,0,0,1,.34688-.34183c.45323.05147.43127.36564.31759.65882a15.29483,15.29483,0,0,0-.96033,4.68685c-.08683,1.53092.206,3.06226.26887,4.59314.03243.78912.44809,1.44482.5101,2.22369a3.6816,3.6816,0,0,0,.54238,1.22053,9.95614,9.95614,0,0,0,.87451,1.59873,16.484,16.484,0,0,0,2.7851,2.79152c.716.45826,1.39074.98508,2.1266,1.40688a13.84166,13.84166,0,0,0,2.75958.99536C84.394,71.5645,84.5167,71.478,84.62255,71.4444Z"/><path class="cls-11" d="M56.90686,71.49785c-.11356-.05446-.37261-.00493-.44177-.25967-.07263-.26756.10665-.32157.32274-.41727a43.15278,43.15278,0,0,1,6.1454-1.66674c1.08732-.30142,2.18784-.55692,3.287-.81328.97019-.22628,1.94555-.43117,2.92187-.62956a.92272.92272,0,0,1,.495.03993c.30822.12113.55141.21341.11347.58375a4.479,4.479,0,0,1-2.21207.89544c-1.09478.19394-2.145.55209-3.23252.75565C61.85109,70.44562,59.477,71.29088,56.90686,71.49785Z"/><path class="cls-5" d="M71.20874,35.62754c-1.27451.35966-2.55712.69325-3.82121,1.08637-1.24963.38862-2.52148.67637-3.78948.991-1.915.47515-3.78937,1.11452-5.705,1.587-1.77068.43675-3.52558.93348-5.29466,1.37589-2.01327.50348-4.02293,1.04106-6.02681,1.58828-1.40551.38383-2.79008.85705-4.217,1.16782-.11492.025-.16149.08014-.23881-.07887-.17158-.35291-.23621-.29133-.35179.07124-.09787.307-.5214.3025-.79484.38138-1.67706.48383-3.3543.983-5.05892,1.34965a9.115,9.115,0,0,1-3.32526.59918c-.08724-.21815-.52471-.01328-.47762-.4051a.99008.99008,0,0,1,.53416-.72161,7.42717,7.42717,0,0,1,2.38927-.862c1.59526-.36225,3.11841-.96753,4.70612-1.33909,1.20526-.28206,2.3814-.66667,3.59717-.9247a17.42689,17.42689,0,0,0,2.54327-.76788,5.91478,5.91478,0,0,0,2.27-.589c1.74389-.51643,3.48254-1.0537,5.23719-1.53562,2.14368-.58876,4.27033-1.23515,6.43687-1.74712,1.39734-.3302,2.75377-.8344,4.12638-1.26743.28237-.08908,1.19834-.48355,1.49175-.3034l-.00845.00666a5.89811,5.89811,0,0,1,1.98706-.59171c1.03017-.13309,1.95957-.642,2.98487-.82081a1.07574,1.07574,0,0,1,1.26316,1.37957C71.59909,35.49473,71.29478,35.42293,71.20874,35.62754Z"/><path class="cls-12" d="M93.93045,88.59472l-.15769-.08026.03141-.03789c.051.02771.10014.05875.14975.089Z"/><path class="cls-4" d="M65.45666,35.32487c.00313.006-.00069.0156-.00136.02356l-.01594-.06474C65.4396,35.28348,65.4501,35.31229,65.45666,35.32487Z"/></g></svg>