<svg width="120px" height="120px" viewBox="0 0 120 120" id="Layer_1" data-name="Layer 1" xmlns="http://www.w3.org/2000/svg"><defs><style>.cls-1{fill:#428ccb;}.cls-2{fill:#268d56;}.cls-3{fill:#1f2c36;}.cls-4{fill:#ec5a4d;}.cls-5{fill:#a7d2f0;}.cls-6{fill:#f2f3f5;}.cls-7{fill:#ec5b4d;}.cls-8{fill:#438dcb;}.cls-9{fill:#202d37;}.cls-10{fill:#eff2f5;}.cls-11{fill:#edf1f5;}.cls-12{fill:#ec5a4c;}</style></defs><title>Huzzahs_Black-History</title><path class="cls-1" d="M19.95326,36.37845c.77389-.834,1.5103-1.6955,2.36319-2.46445.64159-.57844,1.27935-1.181,1.91372-1.77192a31.02013,31.02013,0,0,1,2.97623-2.35464c.47838-.34675,3.041-1.96491,3.81873-2.45134.891-.55725,1.853-.9775,2.72847-1.557a20.85012,20.85012,0,0,1,2.51825-1.30459c.83047-.39969,1.66384-.79392,2.50372-1.1733a34.70312,34.70312,0,0,1,3.86893-1.57018.78946.78946,0,0,1,.19519-.011,5.757,5.757,0,0,1,.669,1.81744,37.79056,37.79056,0,0,0,1.94994,5.25581c.73406,2.469,1.57255,4.90272,2.46907,7.31688.48088,1.47018,1.10963,2.88151,1.68867,4.31333a9.91177,9.91177,0,0,1,.91112,2.84256c-.12091.29784-.41252.38255-.66451.48783-1.84757.77191-3.63706,1.669-5.43159,2.551A66.03949,66.03949,0,0,0,36.984,50.58713c-1.04777.69675-2.13044,1.34918-3.19006,2.029a24.515,24.515,0,0,0-3.9724,2.84138c-.68587.66349-1.54819,1.1206-2.23676,1.79332a.86839.86839,0,0,1-.71557.26194c-.2231-.0881-.20788-.30442-.27219-.48508-.34957-.98195-.66839-1.975-1.07176-2.93772a14.47621,14.47621,0,0,1-.39323-1.42749c-.79507-2.62221-1.68638-5.21281-2.5908-7.79691-.87956-2.51307-1.57824-5.08262-2.467-7.5912A1.686,1.686,0,0,1,19.95326,36.37845Z"/><path class="cls-2" d="M87.29788,34.406c.40589.51442,1.97787,5.48822,2.25,6.2498a13.64582,13.64582,0,0,1,.55928,1.63379,10.79644,10.79644,0,0,0,.55511,1.69973c.286.70934.43211,1.45272.70213,2.16195.33008.867.53429,1.78163.86948,2.6507a1.017,1.017,0,0,1,.04254.701,3.61471,3.61471,0,0,1-1.0469,1.7203c-.46257.37033-.82489.85107-1.28684,1.23478a27.33543,27.33543,0,0,0-2.9375,2.63265,11.09011,11.09011,0,0,1-1.931,1.57959c-.81446.57294-1.562,1.23855-2.42713,1.7463-.25687.15077-.43447.4604-.677.67122a7.88454,7.88454,0,0,1-1.97081,1.33483,6.90318,6.90318,0,0,0-1.23261.80864c-.45065.32648-.95752.51207-1.41464.80365a26.11175,26.11175,0,0,1-3.85526,1.94654c-1.2528.53256-2.48723,1.12117-3.78084,1.563-1.21181.41385-2.45718.70817-3.69775.99981a3.77835,3.77835,0,0,1-2.39487-.0517,1.31479,1.31479,0,0,1-.88122-.78341,4.78968,4.78968,0,0,1,2.46988-1.88167,4.598,4.598,0,0,0,2.50314-2.06712c.13742-.29845.19264-.61931.3404-.90848a.95928.95928,0,0,0,.50357-1.41957c-.52221-1.09643-.70475-2.30391-1.16262-3.41924-.074-.18022-.11831-.40668-.29467-.49553-.43326-.21828-.34584-.518-.18715-.84856a1.02545,1.02545,0,0,0-.67389-.71493c-.29561-.111-.03156-1.08123-.13365-1.28851a1.14183,1.14183,0,0,1-.16883-.97622c.40192-.58191,1.08257-.77533,1.63155-1.14893,1.26817-.863,2.62334-1.5902,3.90888-2.4287.8556-.55806.92958-2.07823,1.738-2.69624.835-.63834,2.59787-.17766,3.14218-1.147.032-.057.05725-.13121.11324-.15611a15.71553,15.71553,0,0,0,3.69775-2.8862c.9803-.849,3.64215-3.41663,4.05444-3.81176.51723-.49569,1.00982-1.01915,1.55115-1.48943a2.94813,2.94813,0,0,0,.55041-.72181A1.5094,1.5094,0,0,1,87.29788,34.406Z"/><path class="cls-3" d="M87.29788,34.406a7.65034,7.65034,0,0,0-1.12358,1.30832,6.3635,6.3635,0,0,1-1.40318,1.40614c-.44537.33919-2.67714,2.54913-2.89333,2.75448-1.29281,1.228-6.11006,5.31464-6.57268,5.70517a42.52937,42.52937,0,0,1-4.43642,3.11041c-.60233.38923-3.61754,2.12214-4.411,2.649-.16147.10723-.30518.24121-.45709.36285a.41422.41422,0,0,1-.39414-.3686c-.21232-.85257-.85543-1.53772-.93695-2.4375-.15092-.46884-.51061-.86427-.49149-1.39272a.372.372,0,0,0,.00936-.12929c-.19872-.65243-.19469-1.35865-.41868-1.987a12.9049,12.9049,0,0,1-.59613-1.5123c-.14153-.65833-.34971-1.29279-.54541-1.9288a26.554,26.554,0,0,0-.89921-2.76721c-.39781-.91534-.62814-1.88713-1.06514-2.781a.70856.70856,0,0,1-.01652-.25872c.09288-.50972.5989-.52259.91358-.61063a15.60743,15.60743,0,0,0,2.75977-1.46114,43.20908,43.20908,0,0,0,4.47291-2.69331,25.85669,25.85669,0,0,0,5.19635-4.234c1.74766-1.98626,3.85205-3.631,5.42795-5.76913.61958-.84061,1.36671-1.581,1.91138-2.4797.131-.21613.23627-.47683.52439-.55241a19.73671,19.73671,0,0,1,.84838,2.1935c.27106.632.44429,1.29407.70036,1.92829.17585.43552.15936.92072.3678,1.35307a23.63523,23.63523,0,0,0,.82959,2.24977,7.2554,7.2554,0,0,1,.54409,1.6281c.24813.80215.49179,1.605.78664,2.39246.23914.63865.42105,1.29877.66122,1.937.17956.47719.262.983.47582,1.45056A2.06725,2.06725,0,0,1,87.29788,34.406Z"/><path class="cls-4" d="M81.85261,18.339a17.0791,17.0791,0,0,1-1.62826,2.25808c-.53443.64537-1.05838,1.30792-1.60311,1.94575-.66986.78435-1.40494,1.5144-2.13164,2.24831-.51891.52405-2.22325,2.36375-2.39661,2.51848-.47224.42148-.89916.8863-1.40346,1.28141-.942.738-1.87111,1.49281-2.81207,2.23325-.733.57679-1.54392,1.02327-2.30382,1.5508-.92676.64338-1.95665,1.13732-2.9366,1.7051-.67318.39-1.34078.80226-2.01323,1.17779a4.751,4.751,0,0,1-1.74268.63056c-.1544.01708-.08243.2372-.23485.2508-.626-1.3204-1.128-2.68959-1.62129-4.06347-.24083-.67067-.55942-1.313-.81389-1.97925-.4151-1.08679-.89343-2.14613-1.24472-3.26214a24.57409,24.57409,0,0,0-1.22355-2.89382c-.183-.39531-.22384-.83118-.425-1.2138-.07532-.14323.03317-.1629.11781-.23542a1.44785,1.44785,0,0,1,.75642-.34076,20.09,20.09,0,0,0,2.70985-1.11862,5.81855,5.81855,0,0,1,.76122-.4579,76.59691,76.59691,0,0,0,7.06812-4.21967c.65331-.65279,1.34668-1.26515,2.00905-1.90751.57752-.56008,1.17335-1.115,1.70834-1.70982A20.84941,20.84941,0,0,0,72.448,10.32825c.18219-.27676.46781-.42559.65608-.69649.34839-.50133.68559-1.0112,1.04113-1.50644.47788-.66568.9711-1.31957,1.40316-2.01694a5.169,5.169,0,0,1,.58048-1.06189.97649.97649,0,0,1,.7339-.32014.47035.47035,0,0,1,.51928.37932,25.903,25.903,0,0,0,.851,2.47124c.43627,1.16312.75821,2.35917,1.15744,3.531.22407.65768.37692,1.35457.63759,1.9949.35716.87741.54684,1.80455.93884,2.676A11.065,11.065,0,0,1,81.85261,18.339Z"/><path class="cls-5" d="M20.34327,37.57507a30.54564,30.54564,0,0,1,1.00326,3.05325c.1423.558,1.10688,3.5063,1.18883,3.714.53451,1.35447.88616,2.77048,1.43453,4.12064.30416.74889.42311,1.5728.72452,2.32312.31441.78271.46887,1.61046.77826,2.39025.07066.17807.44545,1.26246.49986,1.56156a6.271,6.271,0,0,0,.54675,1.53353c.18673.39515.1203.84981.39718,1.192a.70711.70711,0,0,1,.40244.55658c.60322,2.13158,1.41013,4.19669,2.05858,6.3131.70388,2.30022,1.5846,4.54368,2.22073,6.86634.52089,1.40267.96187,2.8327,1.433,4.2516a16.13416,16.13416,0,0,1,.793,2.67553,3.92834,3.92834,0,0,0,.17722.99552c.15515.42382.3201.84325.46021,1.27379.33889,1.04137.65176,2.09082,1.00515,3.12851.62134,1.82454,1.25762,3.64708,1.81,5.49183.19628.6555.4077,1.31576.639,1.95317.33708.92874.557,1.89285.92229,2.81115.15767.39637.214.83193.35288,1.23715.354,1.03267.75855,2.049,1.07859,3.09169.11277.36737.94756,3.125,1.11125,3.54517.30373.77968.45133,1.60376.80726,2.37336a22.1851,22.1851,0,0,1,.79672,2.5154c.26849.83017.50926,1.66955.84681,2.47768.13092.31346.1904.65742.29308.98512.24007.7661.50564,1.519.783,2.27179.13509.36662.20956.78827.32094,1.179a30.13652,30.13652,0,0,1,1.239,3.46246,2.23347,2.23347,0,0,1-.47538.53261,2.19465,2.19465,0,0,1-1.27372.56958,3.39853,3.39853,0,0,0-1.04442.1189.47805.47805,0,0,1-.65487-.37423c-.14073-.676-1.09793-3.7854-1.36254-4.55015-.09376-.271-.39743-1.09042-.48948-1.33519-.22748-.60491-.43583-1.2211-.62432-1.83466-.441-1.4356-.94683-2.84909-1.3945-4.28181a16.81375,16.81375,0,0,0-.58309-1.71364c-.14887-.34218-.5667-1.649-.64619-1.97464A15.0306,15.0306,0,0,0,37.324,100.1c-.39039-.98152-.66558-1.99519-.98667-2.99332-.19538-.60734-.42723-1.2119-.60634-1.82685-.17455-.59928-.42053-1.213-.62745-1.82064-.444-1.304-.83932-2.62442-1.26993-3.93307-.24655-.74927-.53909-1.485-.79215-2.22971-.27578-.81163-.48638-1.651-.77959-2.45818-.37523-1.03294-.57625-2.12108-1.02-3.13024-.035-.07959-.5703-1.66338-.65677-1.97178-.08735-.31151-.1944-.61641-.29276-.923-.17135-.53423-.82855-2.46531-.89557-2.70014-.18876-.66142-.41383-1.31-.55348-1.98913-.074-.35969-.32581-.69183-.41626-1.0703-.17631-.73768-.53394-1.41037-.7689-2.12469-.20107-.61127-.38293-1.22771-.59326-1.83762-.24148-.70022-.37791-1.455-.60618-2.14856-.23206-.70507-.46044-1.42488-.72013-2.12739-.39431-1.06666-.7579-2.14194-1.07273-3.23607-.26148-.90878-.60435-1.79388-.90027-2.69306-.39759-1.20809-.75579-2.43-1.18464-3.62666-.40534-1.13109-.68134-2.30247-1.13952-3.41826a12.72683,12.72683,0,0,1-.66625-2.2177c-.09925-.47375-.34758-.87124-.48518-1.32207-.37569-1.23094-.862-2.42964-1.20441-3.66878Q18.57882,42.79889,17.94,41.012c-.44679-1.25544-.80954-2.53887-1.30725-3.7792a28.53157,28.53157,0,0,1-.85748-2.83869c-.099-.34786-.25845-.57721-.6607-.51878.06045-.33639.341-.39283.59251-.39229A5.71532,5.71532,0,0,0,18.47,32.84691a.36715.36715,0,0,1,.31635-.00555C18.94534,33.07179,20.19657,37.17954,20.34327,37.57507Z"/><path class="cls-6" d="M33.82421,78.12649c-.06169-.01854-.17664-.03522-.17737-.05592a42.78365,42.78365,0,0,0-1.75256-5.47725,2.09828,2.09828,0,0,0-.33572-.811c-.1542-.16509-.04914-.41958-.09877-.6285.18675-.482.67819-.65274,1.01769-.97677a48.78167,48.78167,0,0,1,7.64443-5.44321c1.39093-.892,2.827-1.70823,4.23208-2.57623.66088-.40827,1.38193-.72254,2.0552-1.11849.16772-.09865.36179-.15459.52836-.25771a78.503,78.503,0,0,1,9.0214-4.24511,38.63949,38.63949,0,0,1,5.015-1.65089,11.34924,11.34924,0,0,1,5.60508-.36733,1.03541,1.03541,0,0,1,.4883.16571,5.80923,5.80923,0,0,1,.79035,2.2598,16.07308,16.07308,0,0,0,.84348,2.44,4.86624,4.86624,0,0,1,.00047.99366c-.21428.429-.269.47809-.62119.54012-2.08493.09025-3.95659,1.04537-5.95865,1.47222a1.26121,1.26121,0,0,1-.45026.03171,2.183,2.183,0,0,0-1.16164.34971c-.67556.27261-1.32311.61492-1.98124.93045a7.90009,7.90009,0,0,0-1.42953.67955c-.63809.48221-1.4695.59185-2.08512,1.11261a.685.685,0,0,1-.34624.17245,5.429,5.429,0,0,0-2.05962.81948c-.72059.38777-1.51576.59623-2.207,1.04512a22.74119,22.74119,0,0,1-2.27289,1.31494c-.90022.44624-1.77043.94451-2.659,1.40977-.49518.25928-.92023.61911-1.41109.88978a18.05293,18.05293,0,0,0-1.72268.9697,1.42783,1.42783,0,0,0-.26257.18512A6.82887,6.82887,0,0,1,40.58306,73.405c-.50034.3264-1.028.61756-1.49721.98378-1.34184,1.04734-2.65436,2.1322-3.99132,3.1859A1.681,1.681,0,0,1,33.82421,78.12649Z"/><path class="cls-6" d="M29.25978,64.38445a21.54087,21.54087,0,0,1-.91029-2.6578,12.059,12.059,0,0,0-.58456-1.56214c-.26747-.60648-.34366-1.2831-.56452-1.91481-.09161-.262-.17567-.52878-.284-.78636.7224-.29426,1.16407-.955,1.7947-1.37255,1.16269-.76977,2.09009-1.85727,3.32459-2.52523.76675-.41487,1.45813-.94584,2.19956-1.39667.91918-.55892,1.8339-1.15157,2.72715-1.76607,1.04442-.71849,2.157-1.337,3.225-2.02236.61633-.39549,2.65875-1.37754,3.00406-1.60561.83658-.55256,1.78962-.84644,2.64973-1.33749.89466-.51075,1.86777-.86537,2.7811-1.35087.56618-.301,1.20926-.50485,1.81-.77163a22.7942,22.7942,0,0,1,8.17077-1.447,10.55344,10.55344,0,0,1,3.01777.40213,12.5367,12.5367,0,0,0,.62291,1.75623,2.1334,2.1334,0,0,1,.17766.48392c.13383.99168.80755,1.77264,1.04646,2.72335.09947.39581.44882.242.71011.2701.12963.32517.71186,1.12572.65353,1.34147-.31326.22147-.62977.06713-.942.00213a14.74726,14.74726,0,0,0-5.251-.1,21.22581,21.22581,0,0,0-3.08524.498,49.36906,49.36906,0,0,0-5.37032,2.022,65.46552,65.46552,0,0,0-6.96948,3.816c-2.00315,1.18248-3.978,2.41158-5.935,3.66053a34.04414,34.04414,0,0,0-5.00983,3.52433c-.83906.77719-1.92764,1.26083-2.76787,2.06226A.23452.23452,0,0,1,29.25978,64.38445Z"/><path class="cls-7" d="M61.62087,42.27c-.28615.29229-.59523.02155-.82626-.05a4.16323,4.16323,0,0,0-1.34518-.18108c-.64752.0203-1.28566-.07421-1.93288-.04345a23.539,23.539,0,0,0-4.43614.7169,13.99791,13.99791,0,0,0-2.17045.57791.48074.48074,0,0,1-.47763.02464c-.2294-.6483-.42862-1.31033-.64364-1.95972-.22505-.67967-.59643-1.28871-.79593-1.97645a9.09125,9.09125,0,0,0-.54329-1.38188,10.678,10.678,0,0,0-.57672-1.41714c-.07233-.10843-.03077-.29286-.04155-.44236a1.50813,1.50813,0,0,1,1.156-.4894,34.10893,34.10893,0,0,0,3.81694-.78818,24.54752,24.54752,0,0,1,4.70954-.33236,1.27554,1.27554,0,0,1,1.16335.45235,21.089,21.089,0,0,1,1.448,3.41276c.24253.60059.47076,1.23606.708,1.84006A13.68423,13.68423,0,0,0,61.62087,42.27Z"/><path class="cls-6" d="M58.677,34.97972a5.8164,5.8164,0,0,0-3.05854-.20109.54988.54988,0,0,1-.25375.02576,3.691,3.691,0,0,0-1.76074.11816,16.49665,16.49665,0,0,0-2.535.509,8.89525,8.89525,0,0,1-1.90179.35494,6.89758,6.89758,0,0,0-1.336.35081,1.92411,1.92411,0,0,1-.55877-1.24705,2.92243,2.92243,0,0,0-.3526-.97276c-.28634-.449-.23578-.9812-.44246-1.44893a20.63257,20.63257,0,0,1-.86422-2.62977c-.09825-.33934-.37942-.63269-.26656-1.02681a.57508.57508,0,0,1,.53048-.42339c1.47566-.16325,2.85906-.79659,4.3511-.85577a27.20023,27.20023,0,0,0,2.79342-.12478,8.847,8.847,0,0,1,2.89254.42219,18.58051,18.58051,0,0,0,1.19094,2.771,1.916,1.916,0,0,1,.26445.72512,4.42278,4.42278,0,0,0,.38751,1.09328,5.14165,5.14165,0,0,1,.45583,1.20271c.06244.3159.36347.60657.4408.9715A1.40672,1.40672,0,0,1,58.677,34.97972Z"/><path class="cls-7" d="M55.91413,27.83024a28.34457,28.34457,0,0,0-4.6852-.18322c-.40283.04033-.81249.0556-1.21935.07774a33.50869,33.50869,0,0,0-3.44493.718,2.42223,2.42223,0,0,0-1.21806.3692A12.4529,12.4529,0,0,1,44.106,26.0063c-.17843-.68228-.48855-1.31768-.6091-2.02154-.1067-.623-.48522-1.17884-.58706-1.81651-.02385-.14932-.04679-.29879-.07014-.44819a1.78282,1.78282,0,0,1,1.19185-.4062c.07488.00815.15681-.05754.23676-.08543a12.54943,12.54943,0,0,1,3.00411-.56615c.61892-.0577,2.65987-.09933,3.06795-.10271a7.70123,7.70123,0,0,1,2.74712.652,1.30348,1.30348,0,0,1,.74459.94163,19.82189,19.82189,0,0,0,.95647,2.6379c.24179.5678.40742,1.1677.63993,1.73989A6.31974,6.31974,0,0,1,55.91413,27.83024Z"/><path class="cls-5" d="M12.76191,31.11887c.01386-.55534.43607-.88751.74025-1.26181A5.33671,5.33671,0,0,1,15.847,28.06629a8.31984,8.31984,0,0,1,2.28609-.57467A5.8225,5.8225,0,0,1,19.53,27.44789a1.74115,1.74115,0,0,1,1.60486,2.011,6.41934,6.41934,0,0,1-3.611,1.88524,15.54427,15.54427,0,0,1-4.09339.1105C13.17519,31.40787,12.9026,31.39442,12.76191,31.11887Z"/><path class="cls-5" d="M64.67921,12.0522a1.43541,1.43541,0,0,1-.37592-.03654c-.45281-.167-.48432-.31863-.15283-.65441a4.278,4.278,0,0,1,.88539-.75961A11.72568,11.72568,0,0,0,66.97031,8.708a11.41113,11.41113,0,0,0,1.62948-1.74246c.49223-.70018,1.13852-1.27285,1.6256-1.98518a1.84705,1.84705,0,0,1,1.14113-.78674c.43943-.09062.61689.0284.66416.49219a2.33342,2.33342,0,0,1-.37136,1.35088c-.12046.21962-.25474.43826-.37915.66133a5.464,5.464,0,0,1-.93857,1.23368c-.58491.57854-1.0556,1.28681-1.689,1.79849a10.58421,10.58421,0,0,1-2.34485,1.91144A4.551,4.551,0,0,1,64.67921,12.0522Z"/><path class="cls-8" d="M12.76191,31.11887a6.38767,6.38767,0,0,0,2.53638.26831c1.04881-.062,2.08817-.22737,3.13018-.36307.58052-.0756.91329-.50749,1.35278-.79105.43615-.2814.90124-.51793,1.35364-.77414a4.87264,4.87264,0,0,1-1.95468,2.92223c-.14466.13364-.41238.18129-.39388.46021-3.011,1.55276-3.47207.85048-3.67172,1.034a2.6867,2.6867,0,0,1-1.68482-.33379A1.67833,1.67833,0,0,1,12.76191,31.11887Z"/><path class="cls-9" d="M61.67156,62.42128a18.70649,18.70649,0,0,1,1.90515-.57418c.92424-.3136,1.86414-.58106,2.7989-.86343.04019-.01215,1.33193-.63727,1.70486-.06632a2.11517,2.11517,0,0,1-.8834,1.84,7.87482,7.87482,0,0,1-2.86723,1.64068,1.53374,1.53374,0,0,0-.93978.73649,1.18037,1.18037,0,0,1-.648.57453,11.883,11.883,0,0,1-.60621-1.78443C61.94918,63.43571,61.824,62.9233,61.67156,62.42128Z"/><path class="cls-5" d="M68.6229,2.42923a5.559,5.559,0,0,1-.55852,1.78769,7.28905,7.28905,0,0,1-3.097,3.19491,1.07683,1.07683,0,0,1-1.10175.03342c-.03725-.02227-.07773-.0392-.11459-.062-.17357-.1076-.46078.04346-.555-.244.21527-.06536.28018-.3022.42113-.40779a10.36729,10.36729,0,0,0,1.429-1.56432c.40313-.45307.70385-.97216,1.06109-1.45208a8.85207,8.85207,0,0,1,1.85822-1.92169.37531.37531,0,0,1,.42645-.05005A.67977.67977,0,0,1,68.6229,2.42923Z"/><path class="cls-10" d="M28.18086,52.7378a3.18583,3.18583,0,0,1-.45656-.00414.86321.86321,0,0,1-.73912-.54624.92465.92465,0,0,1,.417-.92956,2.21849,2.21849,0,0,1,1.9371-.21848.9256.9256,0,0,1,.568.7905.79651.79651,0,0,1-.45567.73147,4.39127,4.39127,0,0,1-.94459.17433A2.16964,2.16964,0,0,1,28.18086,52.7378Z"/><path class="cls-10" d="M39.148,38.5552a2.19957,2.19957,0,0,0-.88477-.07848.50644.50644,0,0,1-.47771-.37352.64511.64511,0,0,1,.10132-.60921,2.15665,2.15665,0,0,1,2.19674-.70545c.458.05689.63007.78011.31757,1.19805A2.10721,2.10721,0,0,1,39.148,38.5552Z"/><path class="cls-10" d="M37.78071,44.10189a2.016,2.016,0,0,1-.82605-.12059c-.45284-.19358-.531-.60955-.604-.99035a.519.519,0,0,1,.34458-.57155,3.86386,3.86386,0,0,1,1.82648.007c.22075.04717.46373.70124.42231,1.02992a.82155.82155,0,0,1-.64086.642A4.54516,4.54516,0,0,1,37.78071,44.10189Z"/><path class="cls-10" d="M26.41455,45.25376c-.32412-.19463-.69847.02619-1.03558-.11015-.30041-.12151-.66634-.23435-.67869-.60163a.97545.97545,0,0,1,.50514-.90576,1.96981,1.96981,0,0,1,1.73874-.01439,1.28641,1.28641,0,0,1,.45861,1.01456A1.21984,1.21984,0,0,1,26.41455,45.25376Z"/><path class="cls-10" d="M35.63249,31.13968a1.36379,1.36379,0,0,1-.79654-.20742c-.32583-.12579-.69766-.22993-.696-.63167.00123-.29718.80669-.89833,1.06488-.806a4.56991,4.56991,0,0,0,1.15179.08435c.43163.046.55454.157.62145.58671.07542.4843.01219.63936-.41411.793A1.69182,1.69182,0,0,1,35.63249,31.13968Z"/><path class="cls-10" d="M36.0007,46.98016a3.40978,3.40978,0,0,1,.6955.09454.6828.6828,0,0,1,.53321.6407.99561.99561,0,0,1-.47586.84337,2.25072,2.25072,0,0,1-1.61253.10256c-.302-.0661-.1925-.40854-.35121-.59606a.53034.53034,0,0,1,.0743-.60367A1.21684,1.21684,0,0,1,36.0007,46.98016Z"/><path class="cls-10" d="M40.51011,28.5249a1.72331,1.72331,0,0,1-1.00916-.16407.82178.82178,0,0,1-.41469-1.011.37246.37246,0,0,1,.27655-.252,4.16892,4.16892,0,0,1,1.82587.01448.84209.84209,0,0,1,.49575.889.808.808,0,0,1-.799.56757A2.97789,2.97789,0,0,1,40.51011,28.5249Z"/><path class="cls-10" d="M29.43894,33.10133a2.746,2.746,0,0,1,1.36682.33238.46872.46872,0,0,1-.017.86773,6.69511,6.69511,0,0,1-.85927.442,2.44976,2.44976,0,0,1-1.53839-.464c-.21543-.307.12422-1.0163.556-1.13086A2.80183,2.80183,0,0,1,29.43894,33.10133Z"/><path class="cls-10" d="M44.05109,41.37017c-.31707.06726-.58824-.12864-.88767-.1624a.52362.52362,0,0,1-.37907-.63359,1.1963,1.1963,0,0,1,.659-.82289,1.30786,1.30786,0,0,1,1.58135.42215c.35629.54506.21674.95586-.39687,1.12429A3.91592,3.91592,0,0,1,44.05109,41.37017Z"/><path class="cls-10" d="M34.22038,36.63317c-.20981-.00911-.44588.07719-.631-.06745-.19943-.15582-.45814-.30472-.40008-.61776.06227-.33571.12167-.7007.48676-.85477a2.50372,2.50372,0,0,1,1.3365-.13354c.36483.05121.42371.38845.502.6681a.64605.64605,0,0,1-.25345.74456A1.28045,1.28045,0,0,1,34.22038,36.63317Z"/><path class="cls-10" d="M42.29268,45.49394a2.95611,2.95611,0,0,0-.9194-.09233c-.22952-.03128-.46175-.08431-.19976-.39222.10767-.12654-.0321-.11413-.10007-.11887-.10839-.00755-.2191.00671-.326-.00825-.2521-.0353-.26927-.18887-.15459-.37213a1.25515,1.25515,0,0,1,.25546-.29374,2.16494,2.16494,0,0,1,2.01828-.17121.67457.67457,0,0,1,.0078,1.22147A2.74365,2.74365,0,0,1,42.29268,45.49394Z"/><path class="cls-10" d="M40.05,33.88531a1.47636,1.47636,0,0,1-.92741-.2244.65645.65645,0,0,1-.40434-.5315.69838.69838,0,0,1,.50315-.5705,3.84638,3.84638,0,0,1,1.7201-.06284.51952.51952,0,0,1,.46008.54444.77244.77244,0,0,1-.4871.70988A1.47026,1.47026,0,0,1,40.05,33.88531Z"/><path class="cls-11" d="M33.46131,40.30763c.2017,0,.332.0046.46194-.00092a.51057.51057,0,0,1,.52981.44143c.00995.245.16195.65133-.217.76552a3.61127,3.61127,0,0,1-1.20655.3751,1.53819,1.53819,0,0,1-.84289-.28617c-.32592-.225-.33163-.84808.031-.94445C32.65478,40.542,33.00843,40.07846,33.46131,40.30763Z"/><path class="cls-10" d="M31.4121,46.98641a1.61219,1.61219,0,0,1-1.01628-.2909.71582.71582,0,0,1-.17144-.836,1.22773,1.22773,0,0,1,1.02476-.419,1.61749,1.61749,0,0,0,.69582.09786.805.805,0,0,1,.42785.13546.8902.8902,0,0,1,.397.70207c.027.27211-.29089.38886-.47687.438A2.3021,2.3021,0,0,1,31.4121,46.98641Z"/><path class="cls-11" d="M45.87332,35.62632a.99022.99022,0,0,1-1.078.837,2.0816,2.0816,0,0,0-.57136-.08382c-.40661.03286-.56663-.211-.70244-.53505-.14226-.33944.05809-.52078.26836-.71263a1.59631,1.59631,0,0,1,1.85533-.03991A.60421.60421,0,0,1,45.87332,35.62632Z"/><path class="cls-10" d="M28.79125,39.91521c-.40369-.00415-.81816.04313-1.12393-.32129-.14383-.17142-.295-.30987-.12107-.56067.15086-.21756.15131-.56124.535-.55844a7.62,7.62,0,0,1,1.19558-.00822c.493.07971.74569.20689.73166.46816a.94849.94849,0,0,1-.82584.97906C29.05273,39.92213,28.92177,39.91508,28.79125,39.91521Z"/><path class="cls-10" d="M24.5074,36.252a3.01264,3.01264,0,0,1,.32487.00161c.773.08432.97229.38839.75385,1.14252a.41.41,0,0,1-.29858.299,2.77959,2.77959,0,0,1-1.41929-.03242c-.19415-.03537-.40308-.55918-.36052-.83535a.66819.66819,0,0,1,.54627-.56489,1.92292,1.92292,0,0,1,.45339-.00619Z"/><path class="cls-11" d="M47.52442,42.78527a.7963.7963,0,0,1-.9423-.49024c-.11107-.22535-.12753-.32246.07467-.46094a1.86393,1.86393,0,0,1,1.689-.03121c.11116.07113.38789.16144.23935.28727-.20231.17136.15172.56232-.30632.59205A2.83182,2.83182,0,0,1,47.52442,42.78527Z"/><path class="cls-12" d="M29.25978,64.38445A7.93633,7.93633,0,0,1,31.20359,62.822a4.08635,4.08635,0,0,0,1.01185-.69429A11.87029,11.87029,0,0,1,34.506,60.35518c1.07891-.64421,2.08724-1.40562,3.15345-2.0726a15.63647,15.63647,0,0,1,1.98724-1.14752c.23056-.101.37972-.37083.627-.51154.94027-.535,1.84613-1.12557,2.80425-1.63631a5.857,5.857,0,0,0,1.39852-.98046c.06592-.06594.15546-.06737.22921-.10363a31.03478,31.03478,0,0,0,3.18782-1.79034,3.95838,3.95838,0,0,1,.639-.3144c1.46684-.60875,2.90039-1.29566,4.40362-1.81983.96421-.33621,1.91059-.71781,2.89911-.98883.7316-.20058,1.48714-.19919,2.22046-.35391a19.82493,19.82493,0,0,1,3.91517-.21794,7.46,7.46,0,0,1,1.97308.27217,6.33925,6.33925,0,0,0,.8877.155.37889.37889,0,0,1,.03578.0541c.1281.28936.5588,1.52.64735,1.85258a2.41309,2.41309,0,0,0,.48592.95067,1.28885,1.28885,0,0,0,.26252.90608,1.86509,1.86509,0,0,1,.20484.53445c.12.30248.48037,1.09285.59941,1.54081-.87045-.1253-1.7519-.122-2.62665-.196a4.99448,4.99448,0,0,0-2.01952.2362,2.69833,2.69833,0,0,1-1.11937.23508.54362.54362,0,0,0-.25744.02209c-1.20648.53949-2.52811.69595-3.76792,1.12824-.213.07427-.36435.21666-.56449.29512-1.18265.46361-2.36073.94884-3.51439,1.47093a18.77892,18.77892,0,0,0-3.29394,1.54871,3.08019,3.08019,0,0,1-.94943.3849,5.6002,5.6002,0,0,0-1.50349.84616c-.35808.2402-.75277.40489-1.12348.61-.584.32311-1.17981.62167-1.76191.94167a11.1154,11.1154,0,0,1-1.68239.99855,2.02575,2.02575,0,0,0-.503.28036,27.68655,27.68655,0,0,1-2.64772,1.64564c-.80079.44093-1.531,1.01012-2.292,1.5233-.98768.66608-1.96714,1.34491-2.96887,1.98912a3.48008,3.48008,0,0,0-.55334.43538,17.1852,17.1852,0,0,1-2.45826,2.07462C31.20361,70.47316,29.58649,65.693,29.25978,64.38445Z"/></svg>