<svg width="120px" height="120px" viewBox="0 0 120 120" id="Layer_1" data-name="Layer 1" xmlns="http://www.w3.org/2000/svg"><defs><style>.cls-1{fill:#035ea6;}.cls-2{fill:#895c5c;}.cls-3{fill:#145086;}.cls-4{fill:#b3bbc0;}.cls-5{fill:#a4abb2;}.cls-6{fill:#c3ccd4;}.cls-7{fill:#115186;}.cls-8{fill:#e99838;}.cls-9{fill:#8793a1;}.cls-10{fill:#1f2c37;}.cls-11{fill:#704d54;}.cls-12{fill:#4d2f2e;}.cls-13{fill:#24313b;}.cls-14{fill:#9d7343;}</style></defs><title>Huzzahs_Black-History</title><path class="cls-1" d="M19.24545,100.96867a7.2192,7.2192,0,0,1-1.79629-1.19861,8.469,8.469,0,0,0-2.98232-1.7471c-.24325-.051-.30816-.40806-.52924-.58556a6.69427,6.69427,0,0,0-1.933-.8676c-.66241-.16-.63489-.55853-.64333-.97147-.01444-.70672.04086-1.41232-.00453-2.12331-.10519-1.6474.0695-3.29629.05362-4.93938-.00971-1.00429.16534-1.96639.221-2.94946.01986-.3508-.155-.71842-.10925-1.06074.09448-.70679.11465-1.41312.15527-2.122.05222-.9111.26466-1.81636.27574-2.72576a26.75475,26.75475,0,0,1,.62585-4.98124,2.685,2.685,0,0,1,.68491-1.08412,21.80184,21.80184,0,0,1,3.50969-3.95575,4.79357,4.79357,0,0,0,2.43509.67172,31.74844,31.74844,0,0,1,7.25312,1.48733,69.01356,69.01356,0,0,1,6.46883,2.74823.96324.96324,0,0,1,.46478.395c.09837.55819-.39413.519-.68674.64774a3.30361,3.30361,0,0,0-1.924,3.39452,1.71855,1.71855,0,0,0,.69505,1.163,4.42965,4.42965,0,0,0,5.7979-.491,3.02339,3.02339,0,0,0,.67953-1.29178c.08355-.26592.10279-.5709.401-.7185a4.59288,4.59288,0,0,1,1.73718.9496A6.9278,6.9278,0,0,0,43.074,79.80756a4.42212,4.42212,0,0,1,1.6161.4313c.20662-.99891-.44414-1.52752-1.01336-2.21513-.62828-.759-1.19637-1.60024-1.79293-2.40427a.49122.49122,0,0,1-.10692-.569c.6462.27342,1.01184.89,1.55951,1.27734.46494.32884.63478.97776,1.25591,1.12179.1465.034.27431.29748.41972.11931a.55872.55872,0,0,0,.11646-.63025A9.53178,9.53178,0,0,0,44.056,75.2774a31.0303,31.0303,0,0,0-4.32016-4.46521,35.86488,35.86488,0,0,0-3.36315-2.791,38.341,38.341,0,0,0-4.585-2.96693c-1.43131-.74146-2.8285-1.54856-4.27866-2.25754a16.98231,16.98231,0,0,0-2.01-.99907c-.15741-.05271-1.356-.69274-1.891-.85349-.89389-.26862-1.77547-.57846-2.6608-.87521a4.514,4.514,0,0,0-.57-.21564c-.64238-.11987-1.26281-.38928-1.3731-1.04449a2.00457,2.00457,0,0,1,.71138-1.67219,22.59554,22.59554,0,0,1,3.89661-2.82752,14.99857,14.99857,0,0,1,2.89663-1.66061,6.51127,6.51127,0,0,1,1.527,1.04051,3.68783,3.68783,0,0,0,1.4341.76007.45738.45738,0,0,1,.362.31134c.28786,1.00228,1.24393,1.28551,1.99572,1.7154,1.97039,1.12671,3.854,2.366,5.73,3.65954.629.43371,1.28616.82629,1.93315,1.23268a22.77845,22.77845,0,0,1,3.77665,3.031,1.21823,1.21823,0,0,0,1.31857.28442,2.8369,2.8369,0,0,1,1.51353-.26714,11.3497,11.3497,0,0,1,1.96315,1.8173,10.87176,10.87176,0,0,0,1.82364,1.64066c.989.97873,1.916,2.01771,2.91175,2.99a2.21134,2.21134,0,0,1,.78138,1.03244,2.90122,2.90122,0,0,1-.27316,1.5714,25.80553,25.80553,0,0,0-1.05263,3.12219,4.30626,4.30626,0,0,1-.463,1.62807,4.54344,4.54344,0,0,0-.34891.98063,41.484,41.484,0,0,0-.96376,10.834,72.75008,72.75008,0,0,1-.35495,8.90931c-.13507,1.40459-.11467,2.83559-.21145,4.253-.18989,2.78093-.1653,5.567-.17653,8.35163-.00573,1.42106.0505,2.84141-.03081,4.26317-.0323.56485.54926.62225.89527.799.39781.2032.68328-.129.84426-.47131.231-.49115.32042-1.03733.54409-1.5334a52.95242,52.95242,0,0,1,1.69725-5.20355,36.45115,36.45115,0,0,1,3.20967-7.54847,10.01333,10.01333,0,0,0,.89406-1.96912,9.4862,9.4862,0,0,1,4.09967-4.816c2.4869-1.62478,5.07571-3.0729,7.63581-4.56808,1.35206-.78964,2.77915-1.4681,4.20377-2.13276a8.8991,8.8991,0,0,0,.894-.45358c.28744-.07678.59292.03455.8769-.08475.72859.00033,4.3571.09209,5.34478.15315,1.65148.10209,3.296-.0938,4.9449.00978.63853.0401,1.04232-.48,1.08083-1.26445A43.03158,43.03158,0,0,0,86.92,82.17181a3.47049,3.47049,0,0,1,.022-.84927.80253.80253,0,0,1,.08724-.21047c1.94392-1.48278,3.9831-2.83777,5.88311-4.38162a47.52317,47.52317,0,0,0,4.27826-3.88663c.20711-.21492.39221-.52548.768-.2647-.201.78981-.69289,1.46125-.8996,2.25214a37.84634,37.84634,0,0,0-1.04459,3.95131,33.16932,33.16932,0,0,0-.59732,4.24557,6.3465,6.3465,0,0,0,.24513,1.47853,2.37363,2.37363,0,0,1,.15754,1.09173.40328.40328,0,0,0,.36794.48744c.27661.00712.34139-.23569.364-.4205.20141-1.647.67163-3.24231.92548-4.87925a22.69655,22.69655,0,0,1,1.06244-4.05678,40.49589,40.49589,0,0,1,1.88534-4.76454,7.00423,7.00423,0,0,1,.78877-1.26942c.38127-.47076.75853-.93611,1.1-1.43978a1.23217,1.23217,0,0,1,2.09687.07657,7.94518,7.94518,0,0,1,.52964,1.46923,6.08452,6.08452,0,0,1,.68059,2.17438c.04142.84679.72949,2.71386.76117,3.09125a22.8506,22.8506,0,0,0,.47378,2.66278c.2503,1.2166.415,2.44751.61455,3.66725a20.62135,20.62135,0,0,1,.603,3.35273,6.75084,6.75084,0,0,0,.28139,1.52927,22.24869,22.24869,0,0,1,.2686,2.28468,1.22722,1.22722,0,0,1-.4844,1.03067,9.45082,9.45082,0,0,0-1.083,1.4213,13.12533,13.12533,0,0,1-1.3733,1.33143,25.05341,25.05341,0,0,0-2.23344,2.50375,1.2846,1.2846,0,0,1-.8123.52469c-1.1168.10027-1.59453,1.10862-2.44659,1.59269a10.44443,10.44443,0,0,0-2.37247,1.81423,22.72635,22.72635,0,0,1-4.52385,3.13945,20.98892,20.98892,0,0,1-2.71209,1.46041c-.47047.20769-2.40108,1.56124-3.02011,1.61112a2.22183,2.22183,0,0,1-.06029-1.07014,9.047,9.047,0,0,0-3.01879-7.72753,7.26292,7.26292,0,0,0-7.40485-1.76746,25.976,25.976,0,0,0-4.672,2.058,6.77612,6.77612,0,0,0-1.91655,1.78423c-.06631.07856-.05316-.019-.03932.05943.17071.96636-.82257,1.3879-1.00955,2.1941a14.75971,14.75971,0,0,0-.44262,2.51576,12.48382,12.48382,0,0,0,.00882,2.63455c.3694,2.30571,1.26188,4.32968,3.45305,5.51685.17432.09446.40311.15492.35079.4361a13.93222,13.93222,0,0,1-2.55121.94975,42.10245,42.10245,0,0,1-4.82106,1.70294,27.50032,27.50032,0,0,1-3.11229.84108,12.469,12.469,0,0,0-2.95512.87069,1.98532,1.98532,0,0,1-.89464.16542,20.86,20.86,0,0,0-2.67471.54363,3.35231,3.35231,0,0,0-1.31682.23734c-.45758.268-.9704.13906-1.45073.24147a2.29044,2.29044,0,0,1-1.161-.15648c-.933-.40216-1.93538-.56514-2.87951-.91342-.28458-.105-1.39775-.51633-1.729-.6119a23.4936,23.4936,0,0,1-2.81191-1.14617c-1.5859-.68869-3.12327-1.48194-4.65924-2.27576-1.11991-.5788-2.29319-1.0484-3.40857-1.65057-.8104-.43751-1.65808-.81427-2.48466-1.221-.85492-.42069-1.7039-.863-2.54546-1.307a7.47851,7.47851,0,0,1-2.34668-1.52827c.19207-.32523.49343-.22337.76472-.17927a21.266,21.266,0,0,0,4.09642.22679,7.61,7.61,0,0,0,3.8878-.84274,1.41165,1.41165,0,0,0,.76813-1.47492,28.69163,28.69163,0,0,1-.28489-4.09215c.03564-1.69347-.328-3.34586-.28262-5.034a14.72377,14.72377,0,0,0-.27005-2.95145c-.23408-1.32441-.177-2.68-.45425-3.99836a3.07573,3.07573,0,0,0-.15249-.75717c-.21422-.42905-.24358-.8742-1.08205-.62033a15.72261,15.72261,0,0,1-4.90717.56486c-2.01838-.04567-4.016.34062-6.03452.27152-.78085.57146-1.57806.04983-2.36312.0159a9.70978,9.70978,0,0,1-2.1541.01679c-.34931-.0917-.40519.2424-.43027.50517-.05654.5925-.04737,1.18845-.0754,1.78247a53.15185,53.15185,0,0,1-.52857,7.32846C19.33117,99.06129,19.60393,100.04584,19.24545,100.96867Z"/><path class="cls-2" d="M53.50314,71.81857c-1.24311-1.105-2.26353-2.43356-3.529-3.516a.48761.48761,0,0,1-.18681-.32318c1.27108-.62319,2.42369-1.44773,3.64934-2.14907a33.05718,33.05718,0,0,0,5.34613-4.339,29.11971,29.11971,0,0,0,4.63785-5.2766c.31377-.45579.77143-.7634,1.11512-1.18318.14566-.1779.34932-.38891.174-.61559-.21069-.27232-.47305-.08725-.692.04214A9.06069,9.06069,0,0,0,62.203,56.02861a15.2457,15.2457,0,0,1-6.33,3.9225,14.09263,14.09263,0,0,1-6.63879.74094,11.59508,11.59508,0,0,0-3.14985-.32751,5.54239,5.54239,0,0,1-4.08684-2.80413c-.22859-.372-.48634-.71711-.73137-1.07413.4409-.31456.14686-.67286-.00768-.94254-.86233-1.50478-1.5856-3.07772-2.303-4.65169-.85265-1.87063-1.64462-3.76664-2.3306-5.70882-.57689-1.63333-.88957-3.33331-1.37451-4.98873a3.90326,3.90326,0,0,1-.1108-1.29462A8.859,8.859,0,0,1,35.442,36.12c.382-.8104-.1089-4.03776.18466-4.88556.52672-1.52117,1.962-.59538,2.14072-2.236a1.11876,1.11876,0,0,1,.10561-.21038c.02078-.033.04356-.06491.06427-.09808a6.5472,6.5472,0,0,1,1.14043-1.12044,1.36789,1.36789,0,0,1,1.44692-.14935,11.86138,11.86138,0,0,1,1.47957.42184,1.50785,1.50785,0,0,0,1.961-.53382c.186-.23981.24824-.447-.091-.61654a4.43,4.43,0,0,0-3.60163-.513,5.17926,5.17926,0,0,0-1.5661.97781c-.19964.16763-.37805.47565-.72125.23476a6.5915,6.5915,0,0,1,.43984-3.91859A11.89615,11.89615,0,0,1,41.99121,18.604c.328-.29155.62723-.61129.94118-.91618a6.42558,6.42558,0,0,1,2.62837-1.53634c.72395-.35625,1.2808.0432,1.781.53666a8.47778,8.47778,0,0,0,3.15789,1.18008,5.9343,5.9343,0,0,0,4.33623,1.23255A22.46367,22.46367,0,0,0,59.897,18.05807a8.114,8.114,0,0,1,1.21064-.24747,2.32013,2.32013,0,0,1,1.45284.62465,13.99027,13.99027,0,0,1,2.12179,1.60747,5.47274,5.47274,0,0,0,1.04853,1.43181,11.57489,11.57489,0,0,1,2.33274,4.91116,27.18239,27.18239,0,0,1,.65524,4.823A15.89755,15.89755,0,0,0,70.346,37.37862a1.30281,1.30281,0,0,0,1.41848.82533,1.44311,1.44311,0,0,0,.19-.07063c.3326-.18108.0866-.4752.13627-.71221a18.74933,18.74933,0,0,1,1.40664-3.43889.95546.95546,0,0,1,.80733-.53526,4.6725,4.6725,0,0,1,1.23852-.01725,1.08766,1.08766,0,0,1,1.1167,1.22021,5.13291,5.13291,0,0,1-.3048,2.7175c-.44883.03766-.72692-.35166-1.13127-.45108-.50472-.12409-.86-.05766-1.041.48a34.98194,34.98194,0,0,1-1.82636,3.58316c-.32127.68447-.34205,1.14093.08038,1.47615.52653.41782.97743.23116,1.4662-.13316a3.83315,3.83315,0,0,0,1.04082-1.50777c.16439-.324.24711-.92369.8923-.62262a2.93473,2.93473,0,0,1-.23181,1.18778,13.29012,13.29012,0,0,0-.77387,2.32209,3.52039,3.52039,0,0,1-1.02164,1.92286c-.33445.13338-.74627.1694-.81282.64426a1.244,1.244,0,0,1-1.10156.46177c-.5449-.50056-.101-.98363.0225-1.47588.07045-.28067.51537-.596.0143-.84456a.72227.72227,0,0,0-1.01679.41884,2.59465,2.59465,0,0,0-.45524,1.59631.9258.9258,0,0,1-.11883.742c-.58449.01389-.87046.22351-.96773.89155-.319,2.19072-.74731,4.36518-1.00051,6.56719a7.61441,7.61441,0,0,0-.19215,1.91536.92959.92959,0,0,1-.30019.76912c-1.891,1.97116-3.60689,4.10162-5.5877,5.996-.92489.88453-1.80047,1.83913-2.67018,2.78735-.80869.88168-1.82969,1.51029-2.66631,2.35789a26.78548,26.78548,0,0,0-2.65665,2.906C54.11042,71.61541,53.92715,71.94146,53.50314,71.81857Z"/><path class="cls-3" d="M73.769,45.54788,74.83055,43.702a35.60119,35.60119,0,0,1,3.39778,1.46441,26.6461,26.6461,0,0,0,2.98418,1.36968,40.97743,40.97743,0,0,1,4.6232,2.2054,22.83787,22.83787,0,0,1,5.04338,3.75283c.062.373-.21045.56341-.43516.76846Q87.554,55.8998,84.47858,58.31815c-1.5601,1.2231-3.15081,2.41072-4.71992,3.62064-1.50907,1.16365-3.15391,2.16106-4.77121,3.178-1.31149.82468-2.59725,1.6896-3.90348,2.5214-2.15553,1.37264-4.29688,2.77107-6.39993,4.22718a22.98122,22.98122,0,0,0-5.42233,5.03728,14.20636,14.20636,0,0,0-1.41349,2.6665,39.65811,39.65811,0,0,0-1.5433,3.80124A4.87691,4.87691,0,0,0,55.8751,85.932a4.40331,4.40331,0,0,1-.14665,1.30382c-.52146,1.25978-.79912,2.596-1.21483,3.8893a70.39331,70.39331,0,0,0-2.2467,7.13871,2.48208,2.48208,0,0,0-.07443,1.03677,1.03164,1.03164,0,0,0,.484-.70634,18.35577,18.35577,0,0,1,1.74263-3.94384c.09831-.20451.19522-.44188.50777-.36218a.82154.82154,0,0,1,.20521.85633c-.46247,3.06054-.59434,6.15362-.91393,9.22813a1.87931,1.87931,0,0,0-.00854.6143,4.7077,4.7077,0,0,1-1.42161,4.64587,1.38532,1.38532,0,0,0-.40273.79987c-.25737,1.35429-.05785,2.72906-.205,4.08705-.18093.61184-.359,1.22455-.54393,1.83515-.10352.34172-.46246.38136-.69151.57394-.41983.353-.53256-.10843-.72346-.27036-.69595-.59036-.69417-.6017-.68517-1.57371.02552-2.75618-.03721-5.51164.04884-8.26942.04825-1.54621.14554-3.08526.22379-4.62777a12.14572,12.14572,0,0,0,.0866-2.633,13.3428,13.3428,0,0,1,.15684-2.29573c-.01121-.80586.05615-1.63831.11179-2.45742q.16133-2.37483.15383-4.753a9.63369,9.63369,0,0,1,.12475-2.22931c.14588-.63836-.07751-1.30869.01267-1.97676.18465-1.368.34448-2.7416.44395-4.118a18.31286,18.31286,0,0,1,.47847-3.03917,2.15562,2.15562,0,0,1,.31548-.75774,2.62353,2.62353,0,0,0,.33953-1.4761c.97491-.01016,1.257-.72915,1.46388-1.48011.19956-.72422.516-1.40838.69158-2.13887a.63482.63482,0,0,1,.16329-.34708c1.10072-.93663,1.812-2.23776,3.02625-3.09074.81114-.5698,1.45633-1.37778,2.23581-2.01568,1.46154-1.196,2.63961-2.68334,4.02283-3.95756a65.38161,65.38161,0,0,0,6.97038-7.86854,28.62044,28.62044,0,0,0,1.97581-3.297,2.69956,2.69956,0,0,0-1.52593,1.17638,9.092,9.092,0,0,1-1.01619,1.36606c-.11188.13627-.25061.30763-.45161.218a.41487.41487,0,0,1-.19055-.47241c.12472-.74124.02382-1.51125.20652-2.23222a7.67461,7.67461,0,0,0,.22374-2.22524,16.35683,16.35683,0,0,1,.37861-2.4451.2719.2719,0,0,1,.25926-.24534c.51646.47581.87542,1.14132,1.66009,1.29124a2.23291,2.23291,0,0,0,1.2847-.00629,1.56846,1.56846,0,0,0,.72406-2.56731C74.00372,45.931,73.7745,45.812,73.769,45.54788Z"/><path class="cls-4" d="M47.21938,16.83979a2.80517,2.80517,0,0,1-.254-.16511c-.74756-.605-.83484-.55052-1.806-.12369a7.50258,7.50258,0,0,0-2.1315,1.23232,17.62767,17.62767,0,0,1-3.8146,1.47926,2.5064,2.5064,0,0,1-3.51588-2.46286c.00529-.57633-.34259-1.08315-.28878-1.6629A7.44553,7.44553,0,0,0,37.046,12.05655a9.357,9.357,0,0,1,5.87987-6.42792,14.88467,14.88467,0,0,1,5.50937-1.17974A8.18235,8.18235,0,0,0,50.589,3.74047c1.39037-.41425,2.68924-1.0698,4.129-1.37886a18.42582,18.42582,0,0,1,4.29937-.56856,9.98809,9.98809,0,0,1,3.12944.70286c1.51384.54244,2.96568,1.24313,4.52386,1.68066.62151.17452,1.18865-.06312,1.80528.05286a9.96888,9.96888,0,0,1,2.481.65881,2.89392,2.89392,0,0,1-.19665,2.95155,5.0066,5.0066,0,0,1-1.338,1.69181,1.80781,1.80781,0,0,0-.61489,1.8595c.28508,2.15934.03346,2.702-2.05984,3.53992a1.922,1.922,0,0,1-1.63785-.2098,9.90184,9.90184,0,0,0-4.94715-1.38582,8.28456,8.28456,0,0,0-4.18775,1.45554,7.03008,7.03008,0,0,1-3.41983,1.5025.91908.91908,0,0,0-.37741.08259A6.91494,6.91494,0,0,1,47.21938,16.83979Z"/><path class="cls-5" d="M47.21938,16.83979a1.80813,1.80813,0,0,1,1.62627.0196,2.34327,2.34327,0,0,0,1.789-.13469,8.64719,8.64719,0,0,1,2.49879-.73281,4.06762,4.06762,0,0,0,2.24945-1.04723,7.82123,7.82123,0,0,1,2.27292-1.20873,6.20664,6.20664,0,0,1,3.04213-.62492,9.57594,9.57594,0,0,1,3.03978.75981,8.83619,8.83619,0,0,1,1.80707.86652c.19614.15712.44957.09042.67769.08725a3.00926,3.00926,0,0,0,2.35869-1.48943,3.44255,3.44255,0,0,0,.00379-1.99536,1.842,1.842,0,0,1,.61278-1.91923A4.90023,4.90023,0,0,0,71.0976,6.182c.08327-.43069-.22822-.84615-.14056-1.29373A6.88062,6.88062,0,0,1,74.50828,8.3323c.25452.44761.67144.75865.88913,1.22769a17.51732,17.51732,0,0,0,2.292,3.40641,16.34857,16.34857,0,0,1,2.76867,3.34353c.06686.10227.68609.87888-.55343.77778a1.53425,1.53425,0,0,1,.95925,1.988,14.59176,14.59176,0,0,1-.74259,3.65761,9.97443,9.97443,0,0,0-.3075,1.75018c.06147,1.28264.34357,2.576-.30436,3.81132a9.61575,9.61575,0,0,0-.7208,2.65237c-.20063,1.01045-.65888,1.94129-.77575,2.96176a17.39994,17.39994,0,0,1-.8987,3.30889,12.00941,12.00941,0,0,0-.89226,2.25445,11.63014,11.63014,0,0,1-.39589,1.612.37326.37326,0,0,1-.22166.29554c-.09715-.43187.20549-.82116.1331-1.2504a4.40506,4.40506,0,0,1,.5065-2.76718,7.097,7.097,0,0,0,.20693-2.35994,2.07472,2.07472,0,0,1-.023-.44683.75622.75622,0,0,0-.73781-.93586,8.51174,8.51174,0,0,0-1.45825.01432c-.251.0202-.57186.13091-.5932.41168a4.55278,4.55278,0,0,1-.70033,1.6012,26.38312,26.38312,0,0,1-.92237,2.60548l.02285.008c-.61855.25169-.74159-.18653-.76253-.61271-.06832-1.39051-.118-2.78405-.07921-4.17563a15.55484,15.55484,0,0,0-.59156-6.25972,7.98837,7.98837,0,0,0-2.57952-3.69213c-.45643-.3348-.62975-.85836-1.03015-1.23576-.78778-.74251-1.6657-1.385-2.40157-2.18255a19.95152,19.95152,0,0,0-3.38-2.18376,5.74884,5.74884,0,0,0-2.75386-.63266,3.39346,3.39346,0,0,0-.60637.10986,17.86939,17.86939,0,0,1-6.69671.85394,1.01536,1.01536,0,0,1-.69053-.29522A5.3567,5.3567,0,0,1,47.21938,16.83979Z"/><path class="cls-1" d="M55.59009,87.19881c.20554-.99521-.13-2.01862.238-3.022.43209-1.17839.81042-2.38,1.33267-3.52015a22.97856,22.97856,0,0,1,1.64809-3.3496,16.37852,16.37852,0,0,1,2.37009-2.90645,38.79312,38.79312,0,0,1,4.57687-3.52162c.78328-.5372,1.60051-1.02457,2.3917-1.55056,1.55724-1.03527,3.18157-1.97585,4.71874-3.027,1.798-1.22948,3.66381-2.35453,5.44462-3.61.96083-.67739,1.86319-1.4423,2.83128-2.07974.87664-.57723,1.732-1.21544,2.5274-1.85717.97947-.79017,2.021-1.51606,2.96038-2.36629.98826-.89447,2.06666-1.68794,2.97183-2.67763.39673-.43379.99219-.66228,1.27737-1.21624a10.27119,10.27119,0,0,1,1.73749,1.7246c.07637.10142.1701.19614.08551.33736-.08.23088-.4829.4241-.04057.78245.08328-.29641-.1964-.56842.04-.78048.29627-.067.42461.184.53563.35038.522.78222,1.254,1.38332,1.82789,2.12549.204.26387.95533.76426.95462,1.24591-.00054.35915-.3679.54727-.537.83141a1.49769,1.49769,0,0,0-.36622.90371,1.13565,1.13565,0,0,1-.39324.4708c-2.11316,1.78007-4.08851,3.71984-6.24993,5.44112a7.43057,7.43057,0,0,1-1.97984,1.33689A8.13764,8.13764,0,0,0,82.556,68.7541c-1.82391,1.11829-3.57342,2.35121-5.321,3.59-1.69719,1.203-3.50518,2.255-5.28647,3.33958-1.01012.615-2.03594,1.22973-2.9801,1.93743C66.5287,79.4498,63.858,80.92433,61.37609,82.682a38.8581,38.8581,0,0,0-4.18536,3.65862C56.74081,86.76772,56.36037,87.35629,55.59009,87.19881Z"/><path class="cls-6" d="M19.24545,100.96867a8.612,8.612,0,0,1,.05373-1.97311,36.98585,36.98585,0,0,1,.395-3.69908,6.93914,6.93914,0,0,0-.039-2.35974c-.09321-.369.16766-.6574.15538-1.03348-.03374-1.03387.06021-2.07207.108-3.10835.02089-.45328.28626-.72555.69958-.534.75384.34942,1.48647-.07336,2.23763.03614.40561.05911,1.80367-.01364,1.98026-.01395,1.66961-.00293,3.3304-.129,4.99356-.2798.82606-.07487,1.672-.02568,2.50988-.05565a14.49742,14.49742,0,0,0,2.841-.33631,2.45343,2.45343,0,0,1,.45281-.086c.22275-.00944,1.14439-.45415,1.46438-.00022.53333.75656.466,2.6905.55748,3.62458.05112.52194.10465,1.05868.19421,1.58618a35.55346,35.55346,0,0,1,.329,4.308,8.17607,8.17607,0,0,0,.185,2.26921c.1685.48685-.01737.88127.0271,1.29293.08513.78823.14078,1.58487.15426,2.36684a12.914,12.914,0,0,1,.1443,2.79389,1.17986,1.17986,0,0,1-.697.90614,5.43971,5.43971,0,0,1-2.74055.75808c-.53277-.01707-1.08239.331-1.64724.23944-1.40122-.22711-2.83169-.05125-4.225-.33519a.71931.71931,0,0,0-.3715.0339,7.29651,7.29651,0,0,1-2.13713-1.11739,32.57779,32.57779,0,0,0-2.80607-1.78767,19.85259,19.85259,0,0,1-2.85319-1.99438A11.64932,11.64932,0,0,1,19.24545,100.96867Z"/><path class="cls-7" d="M86.46348,67.16583a39.00682,39.00682,0,0,0,4.47286-3.605c1.28284-1.1643,2.59692-2.29422,3.90182-3.434a.92675.92675,0,0,1,.27833-.11173,9.41292,9.41292,0,0,1,2.26745,1.56578,48.20341,48.20341,0,0,1,5.05473,5.0155,38.68511,38.68511,0,0,0-4.48008,5.98273c-.73624.20058-1.09523.87544-1.59712,1.34746-.415.39029-.78665.86649-1.23316,1.21174A58.74544,58.74544,0,0,1,90.44,78.82159c-1.03776.64673-1.91941,1.52592-2.97036,2.16515a2.33924,2.33924,0,0,1-.34909.14332.78621.78621,0,0,1-.29543-.75474c.03251-.83242-.30172-1.62332-.26507-2.4563.01321-.30014-.17606-.44932-.44355-.55743a2.5761,2.5761,0,0,0-1.96455-.12244,6.37268,6.37268,0,0,1-2.57519.36319c-3.0931.0637-6.16761.39293-9.25088.59412a1.42922,1.42922,0,0,1-.61038-.04563c-.46375-.55785.08254-.77845.38785-.99813A32.37324,32.37324,0,0,1,75.811,74.781a36.509,36.509,0,0,0,4.41106-2.82721A36.39345,36.39345,0,0,1,85.65223,68.563C86.49,68.15391,86.618,67.87446,86.46348,67.16583Z"/><path class="cls-7" d="M33.43448,75.107a4.53856,4.53856,0,0,0-1.57915-.78928c-1.23551-.48809-2.39989-1.131-3.63662-1.61069a23.99949,23.99949,0,0,0-3.37042-1.12914c-.97164-.2195-1.9385-.46033-2.90658-.69541-1.21615-.29532-2.48013-.23683-3.697-.49047-.53-.11048-1.23966.01818-1.47115-.73544a20.668,20.668,0,0,1,2.50531-2.60655c.78538-.70349,1.504-1.47858,2.23169-2.23473a1.4887,1.4887,0,0,1,1.92437-.39936A17.33108,17.33108,0,0,1,26.849,65.99322a20.81553,20.81553,0,0,0,2.09157.99151,13.0827,13.0827,0,0,0,1.44519.77973c1.722.6904,3.27448,1.7023,4.93572,2.50389a19.42432,19.42432,0,0,1,2.75908,1.74719c1.09525.77907,2.16728,1.61,3.24393,2.42553.21479.16269.27884.42371.45237.60944a7.69793,7.69793,0,0,0,1.18257,1.604,15.56949,15.56949,0,0,0,1.71025,2.171.75056.75056,0,0,1,.205.90971c-.13292.26324.05892.27576.208.37243.14536.09426.12557.27472.05882.4206a.16513.16513,0,0,1-.26349.04842c-.83084-.61659-1.85859-.507-2.78679-.76177a5.09032,5.09032,0,0,1-1.39692-.60221c-.79508-.50406-1.597-.99725-2.39614-1.495a.48025.48025,0,0,1-.19042-.39083c-.18259-1.16652-.4246-1.45682-1.54052-1.71744a5.89,5.89,0,0,0-2.50756-.22505A.72383.72383,0,0,1,33.43448,75.107Z"/><path class="cls-3" d="M41.26614,56.48628a1.01239,1.01239,0,0,1,.73774.62246,5.43867,5.43867,0,0,0,1.47676,1.89619,5.5965,5.5965,0,0,0,2.65668,1.22047A34.77319,34.77319,0,0,1,46.10624,64.52a5.54812,5.54812,0,0,0-1.91909.5103.55882.55882,0,0,1-.74628-.1704,26.78427,26.78427,0,0,0-3.6218-3.09093,17.837,17.837,0,0,0-1.8109-1.12857c-.70183-.45673-1.4245-.88426-2.10356-1.37254a29.6532,29.6532,0,0,0-4.15983-2.57877,6.91188,6.91188,0,0,1-1.87807-1.34786,26.75735,26.75735,0,0,0-2.26425-1.74146,3.394,3.394,0,0,1-1.09367-.95124,7.0988,7.0988,0,0,1,1.64947-1.11634c2.47118-1.44083,4.93241-2.8983,7.51557-4.13786.37962-.18217.39957-.12691.54221.24453.58472,1.5226,1.268,3.00935,1.891,4.51318a19.5877,19.5877,0,0,0,2.17034,3.51769C40.474,55.95692,40.70416,56.509,41.26614,56.48628Z"/><path class="cls-6" d="M72.81032,112.62739c-.19713-.29755-.55929-.32453-.83432-.49654a6.83221,6.83221,0,0,1-2.92755-4.21042,3.487,3.487,0,0,1-.27-1.50243,14.66475,14.66475,0,0,0,.032-1.84838,11.80462,11.80462,0,0,1,.18037-1.73605,12.62626,12.62626,0,0,1,.61979-2.22092,7.06375,7.06375,0,0,1,.94648-1.74943c1.322-1.615,3.18889-2.32584,4.99724-3.133a10.27751,10.27751,0,0,1,1.95672-.62066,7.27329,7.27329,0,0,1,4.24452.26508A14.83429,14.83429,0,0,1,84.395,96.81355a6.92438,6.92438,0,0,1,1.70585,2.02652,9.3675,9.3675,0,0,1,1.4608,7.15338c-.56475.45316-1.261.69471-1.82843,1.15539a.86094.86094,0,0,1-.8555.16582.67353.67353,0,0,1,.0458-.72907,4.35239,4.35239,0,0,0,.30084-3.59149c-.45207-1.24549-.67136-2.57182-1.77837-3.53262a5.80159,5.80159,0,0,0-2.2474-1.30324,13.79333,13.79333,0,0,0-2.89108-.51409,6.37711,6.37711,0,0,0-6.2766,4.66153c-.75558,2.57437.42994,5.96531,2.60051,7.11262a8.19249,8.19249,0,0,0,1.87556.70816,3.5,3.5,0,0,1,1.43881.51051,13.7567,13.7567,0,0,1-2.65832,1.155c-.77309.31088-1.56119.58331-2.30928.95546C72.94929,112.76181,72.86748,112.66981,72.81032,112.62739Z"/><path class="cls-8" d="M77.9458,110.637a8.56035,8.56035,0,0,1-4.39725-1.72757,5.03077,5.03077,0,0,1-1.39007-2.06039,6.89951,6.89951,0,0,1-.03042-5.39665A6.58208,6.58208,0,0,1,75.23,98.11317a6.08444,6.08444,0,0,1,4.73718-.41549c.58333.17973,1.19162.18485,1.77557.42451a5.60549,5.60549,0,0,1,3.36621,3.7624c.1896.60957.34525,1.2272.50546,1.841a4.02225,4.02225,0,0,1-.45571,2.80037,2.11166,2.11166,0,0,0-.281.78873l.01673.01915a.38471.38471,0,0,1-.11754.19393c-1.06887.6583-2.26366,1.05074-3.3774,1.59929a13.96528,13.96528,0,0,0-2.34835,1.065A4.616,4.616,0,0,1,77.9458,110.637Z"/><path class="cls-5" d="M35.40864,15.13681A2.91555,2.91555,0,0,1,35.892,17.01a2.19285,2.19285,0,0,0,1.96028,2.16231,3.69143,3.69143,0,0,0,1.85839-.29434c.85642-.44458,1.86546-.52695,2.71154-1.03028a1.121,1.121,0,0,1,.60571-.06433,11.01936,11.01936,0,0,1-1.59176,1.64453,11.94075,11.94075,0,0,0-1.57953,1.74956,11.09008,11.09008,0,0,0-1.66245,3.77639,10.54948,10.54948,0,0,0-.1363,2.44061c.37209.47143.13724.94654.00859,1.421l-.00249.0008a.27655.27655,0,0,0-.15171.16924,6.48842,6.48842,0,0,1-1.09547,3.20939A22.5846,22.5846,0,0,0,35.442,36.12a14.69914,14.69914,0,0,0-.44042-5.47644c-.27632-1.23072-.25725-2.53322-.52685-3.77792a36.70881,36.70881,0,0,1-.62081-8.38828A4.71059,4.71059,0,0,1,35.40864,15.13681Z"/><path class="cls-6" d="M84.77692,107.52774c.00046-.08813.01576-.16725.11754-.19393A.17636.17636,0,0,1,84.77692,107.52774Z"/><path class="cls-9" d="M71.576,77.99948a12.2326,12.2326,0,0,0,2.52488-.19929c.50148-.06575,1.00959-.0292,1.49545-.05823,1.96475-.11742,3.923-.40366,5.89864-.3342.50732.01784,1.00781-.097,1.525-.04646a1.72957,1.72957,0,0,0,.942-.37529,6.23,6.23,0,0,1,2.62358.19961c.23257.106.201.33279.19805.541-.0162,1.14705.30682,2.26074.33691,3.4034l-.05156.17637c-.45056.68666-1.259.85695-1.889,1.2809-2.37272,1.59672-5.04015,2.671-7.48887,4.13628a13.28634,13.28634,0,0,0-2.21988,1.2732c-.26507.216-.53259.0947-.79987.0058a4.2252,4.2252,0,0,1-1.60264.16277c-2.34913.16231-4.69008-.16388-7.03627-.10078-2.18938.05888-4.38266-.06131-6.56938.18081a3.00861,3.00861,0,0,1-1.45091-.17319c-.36049-.4051-.01416-.70871.22446-.90211,1.0498-.85082,1.8305-2.00561,3.068-2.64809a23.14918,23.14918,0,0,0,2.14614-1.35328c.25986-.17355.54141-.43615.89031-.13846a4.05091,4.05091,0,0,1-.07635,1.06608,1.00271,1.00271,0,0,0,.94186,1.10518,5.29317,5.29317,0,0,0,1.69364.04289c.8685-.09693,1.73063-.23114,2.607-.27723.77295-.04067,1.00935-.30033,1.066-1.04941.04854-.64134.06354-1.28722.06456-1.92984.00161-1.02183-.27877-1.3454-1.28233-1.62818a2.05066,2.05066,0,0,1-.6492-.23849.24707.24707,0,0,1,.01231-.4021A6.587,6.587,0,0,1,71.576,77.99948Z"/><path class="cls-7" d="M57.91929,87.95572a34.64216,34.64216,0,0,0,3.53059-.09382,29.70718,29.70718,0,0,1,3.374.00176c.46125.0495.90032-.04973,1.34911-.044,1.68594.0216,3.3715.21633,5.04891.20466,1.14679-.008,2.29876-.0476,3.44943-.02174-.4099.60771-1.151.63917-1.72645.94217-2,1.05308-3.9769,2.1455-5.95545,3.23759-1.45847.805-2.83674,1.73328-4.257,2.59615a11.81312,11.81312,0,0,0-3.26651,2.55161,10.23452,10.23452,0,0,0-1.15781,1.78127c-.5263,1.03866-.8666,2.14913-1.45221,3.17639a27.86219,27.86219,0,0,0-2.54425,6.00562,42.19989,42.19989,0,0,1-1.54484,4.218c-.22723.55178-.07251,1.1696-.41064,1.68109-.06572.09943-.05338.25069-.176.32731a1.5348,1.5348,0,0,1-.16271-.89907,24.92073,24.92073,0,0,1,.14748-3.54795.6652.6652,0,0,1,.42268-.58219,1.74335,1.74335,0,0,0,1.03-1.27016c.19513-.79422.42023-1.58114.63989-2.36913.04147-.14879.1507-.3481-.01148-.4189-.57823-.25233-.26484-.64605-.24582-1.0359.03266-.6693.15782-1.328.18319-1.99344.03527-.92467.25615-1.83844.25192-2.75014-.00358-.77283.16743-1.50689.20914-2.2601a19.17383,19.17383,0,0,1,.2909-2.28467c.04662-.26357.14618-.56771-.13758-.78726-.18884-.2836-.02136-.54674.05354-.81087.25566-.90156.85219-1.64429,1.17847-2.515.136-.36293.33326-.26595.50079.00032a.85566.85566,0,0,1-.13577-.77564,9.056,9.056,0,0,1,1.24141-2.2077A.23849.23849,0,0,1,57.91929,87.95572Z"/><path class="cls-10" d="M46.10624,64.52a10.7951,10.7951,0,0,1,.03108-4.29457,5.11969,5.11969,0,0,1,1.75351.07123,13.06989,13.06989,0,0,0,5.83939-.02908,11.81538,11.81538,0,0,0,2.79487-.73243c1.05541-.5671,2.16849-1.01755,3.178-1.68122,1.49909-.98547,2.63254-2.38731,4.05223-3.45953.35948-.2715.705-.55365,1.15823-.26655.26269.16638.10413.74694-.3497,1.16787a41.91615,41.91615,0,0,0-2.93141,3.63175A16.823,16.823,0,0,1,59.74754,60.877c-.9042.755-1.71077,1.60863-2.58905,2.38849a21.76354,21.76354,0,0,1-4.12795,3.01962,19.87517,19.87517,0,0,0-1.825,1.15113,2.85947,2.85947,0,0,1-1.41816.54316,3.96081,3.96081,0,0,1-1.39281-1.13088C47.6678,66.03465,46.84229,65.322,46.10624,64.52Z"/><path class="cls-10" d="M70.43158,47.38341c-.11264,1.06351-.41075,2.09154-.42563,3.18291a33.3942,33.3942,0,0,1-.41306,3.64745,2.33138,2.33138,0,0,0,.02393.86163,22.87448,22.87448,0,0,0,1.35067-1.86411c.311-.66036,1.02226-.90484,1.5543-1.33246.28605-.22991.38643.15933.37045.28484a1.09412,1.09412,0,0,1-.28293.69724,5.97239,5.97239,0,0,0-1.09108,1.66667,19.65526,19.65526,0,0,1-2.02862,2.78449c-.96321,1.25244-2.05176,2.40815-3.08082,3.61027-1.199,1.40071-2.65383,2.54562-3.87387,3.93223a28.39354,28.39354,0,0,1-3.05065,2.94235q-1.62335,1.36534-3.17109,2.8102A16.36543,16.36543,0,0,0,54.535,72.59357a6.5566,6.5566,0,0,0-.78454,2.20539,5.60377,5.60377,0,0,1-.2793.79521c-.44177.97255-.443.972-1.43847.8572.4264-1.56451,1.17417-3.027,1.47045-4.6328a.83869.83869,0,0,0,.53817-.41434,28.87675,28.87675,0,0,1,4.66795-4.72256,22.01288,22.01288,0,0,0,3.00208-3.06645,15.63178,15.63178,0,0,1,1.90444-1.90484,14.48761,14.48761,0,0,0,1.75489-2.00484c.47974-.629,1.14274-1.08717,1.644-1.70641.25121-.31036.43438-.70144.83531-.88708a.36168.36168,0,0,0,.15193-.41251,5.79722,5.79722,0,0,1,.14791-1.94768c.23979-1.54986.377-3.11075.72659-4.65.16641-.73275.22474-1.50809.35247-2.26377.15977-.94531.14272-.98281,1.09114-.70715C70.43945,47.17872,70.54373,47.23322,70.43158,47.38341Z"/><path class="cls-6" d="M75.47124,87.99681c-.63057-.24943-.03041-.416.07205-.44534a17.31851,17.31851,0,0,0,2.991-1.5225q2.50253-1.273,4.97745-2.59993a11.69029,11.69029,0,0,0,1.75759-1.09771,20.38257,20.38257,0,0,1,1.79967-1.0249,30.67494,30.67494,0,0,1,.09136,3.34064,15.07641,15.07641,0,0,1-.16364,2.75705,1.40183,1.40183,0,0,1-1.18927.83683c-1.47453-.14148-2.95055.06774-4.41673-.02351-1.03564-.06443-2.07124-.01473-3.10281-.10609C78.1015,88.09485,76.2427,88.01906,75.47124,87.99681Z"/><path class="cls-6" d="M25.25237,75.021a3.38506,3.38506,0,0,1,1.38314.10236,2.00357,2.00357,0,0,1,1.453,1.31846,3.28711,3.28711,0,0,1-2.79873,4.58087,4.43023,4.43023,0,0,1-1.737-.138,2.78755,2.78755,0,0,1-1.87887-3.21891A3.184,3.184,0,0,1,25.25237,75.021Z"/><path class="cls-6" d="M33.43448,75.107l.569.13181A19.18894,19.18894,0,0,1,38.168,77.408l.13.30975A3.89388,3.89388,0,0,1,34.7462,81.164a4.31671,4.31671,0,0,1-3.53051-.8968,2.08258,2.08258,0,0,1-.62719-2.169,3.28873,3.28873,0,0,1,2.44212-2.76941A1.65262,1.65262,0,0,0,33.43448,75.107Z"/><path class="cls-11" d="M64.59434,20.10186a9.26428,9.26428,0,0,1,2.14623,1.65143c.64686.51318,1.025,1.266,1.65449,1.80071a10.15372,10.15372,0,0,1,1.88546,2.53209,7.63842,7.63842,0,0,1,1.07172,3.33657,26.9933,26.9933,0,0,1,.03,4.36906,24.56842,24.56842,0,0,0,.066,3.21732c.01493.20627-.02578.39477-.019.59026.01337.38613.10648.71812.60963.66106a1.251,1.251,0,0,1-1.87815-.77088c-.27748-.63313-.56942-1.2599-.85212-1.89076a9.65458,9.65458,0,0,1-.5111-2.2351c-.43631-2.32984-.32064-4.736-.94857-7.04248a12.82333,12.82333,0,0,0-1.62888-3.94476,14.36525,14.36525,0,0,0-1.50359-1.82961C64.60593,20.43234,64.4105,20.3105,64.59434,20.10186Z"/><path class="cls-11" d="M43.94663,51.63415a10.50161,10.50161,0,0,1,2.269-1.51872c.2432-.1388.52912-.20116.77814-.33161a1.36758,1.36758,0,0,1,1.39819.02532c.4686.26538.921.48025,1.33845-.117.16773-.24.46343-.12733.71871-.08718a14.93735,14.93735,0,0,1,2.645.778,16.88937,16.88937,0,0,0,1.98349.73934,3.3784,3.3784,0,0,0,2.34982-.47249c.73411-.41243,1.33342-.22516,1.32713.12826.27192.31171-1.924,1.49319-2.08018,1.62935l.00555-.00176a11.3101,11.3101,0,0,1-5.01478-.37232c-.65033-.15115-1.33586.0044-2.00225-.0828a1.86381,1.86381,0,0,1-.244-.046,5.2195,5.2195,0,0,0-1.95815.29892,4.48113,4.48113,0,0,1-2.93532-.06583C44.27438,52.0447,43.95225,52.01655,43.94663,51.63415Z"/><path class="cls-12" d="M52.03724,43.39754c-.11038-.33939-.60376-.69308-.19438-1.01718.33447-.2648.78971-.04744,1.1444.20706a1.17549,1.17549,0,0,1,.65451,1.12061.44752.44752,0,0,0,.00509.21816,1.021,1.021,0,0,1-.43354,1.5034,3.42134,3.42134,0,0,1-1.96532.595,6.67615,6.67615,0,0,0-1.298.22444,10.90858,10.90858,0,0,1-3.35174-.2299,9.29416,9.29416,0,0,1-2.78787-1.05862c-.22715-.11862-.29224-.35287-.47789-.48762-.61777-.155-.57411-.605-.48047-1.07744a10.31124,10.31124,0,0,1,.94224-1.75937,6.97767,6.97767,0,0,0,1.04285-1.50672c.18941-.41066.47661-.74,1.022-.60885.36742.08838.49955.23731.22974.58005a9.99833,9.99833,0,0,0-1.26092,2.2704c-.50854,1.176-.28106,1.92837.86653,2.40547a2.72162,2.72162,0,0,0,1.03174.28826c.4524-.23244.91279.00247,1.3707-.01541A30.08191,30.08191,0,0,0,51.3827,44.564C52.09066,44.45784,51.86355,43.81183,52.03724,43.39754Z"/><path class="cls-11" d="M76.244,37.36229a17.56717,17.56717,0,0,0-.32257,1.96157,1.62664,1.62664,0,0,1-.18393.80561,1.30331,1.30331,0,0,0-.71449.93927,3.05906,3.05906,0,0,1-1.42353,1.74159,1.21364,1.21364,0,0,1-1.70986-.86123,1.91035,1.91035,0,0,1,.25385-1.03287,34.34873,34.34873,0,0,0,1.85152-3.574c.29824-.823.69384-.95892,1.54776-.54967A1.17083,1.17083,0,0,1,76.244,37.36229Z"/><path class="cls-13" d="M56.24909,52.94544a2.37283,2.37283,0,0,1-1.24041.21184,17.2179,17.2179,0,0,1-4.06216-.108,9.53131,9.53131,0,0,0-2.37059.1729,10.46292,10.46292,0,0,1-2.75242-.14408,4.59183,4.59183,0,0,1-2.214-1.0831c-.119-.11271-.35121-.25215-.21145-.43555.17077-.2241.36652.01575.54853.07471a4.33523,4.33523,0,0,0,3.60725.33125,2.627,2.627,0,0,1,1.97853-.186l.00584.0058a16.83152,16.83152,0,0,1,4.78488.5483,2.76548,2.76548,0,0,0,1.5747-.11371c.98172-.42145,1.743-.82655,1.743-.82655.11314-.12233.52187-.33569.55941-.39949a4.08282,4.08282,0,0,0,1.29086-1.63167.51038.51038,0,0,1,.577-.395l.03129.02626c.17126.82949-.54725,1.21692-.94353,1.71261a8.57871,8.57871,0,0,1-1.23865,1.23A16.74532,16.74532,0,0,1,56.24909,52.94544Z"/><path class="cls-11" d="M50.46683,17.954a12.29386,12.29386,0,0,0,4.29144-.1112,5.31223,5.31223,0,0,1,.99578-.08109,8.80709,8.80709,0,0,0,1.98218-.5314,2.89963,2.89963,0,0,1,2.251.00567c.40955.18821,1.01664.11578,1.22707.6821-2.43581.61235-4.814,1.54764-7.38819,1.40442a6.32491,6.32491,0,0,1-3.14927-.97926A.45085.45085,0,0,1,50.46683,17.954Z"/><path class="cls-10" d="M60.28131,33.31682c-.02224.28187-.03866.57977-.43011.27522-.12116-.09427-.22469-.21115-.337-.317a.31754.31754,0,0,0-.34822-.09647.29053.29053,0,0,0-.14792.3903c.20144.69713-.18472,1.21341-.47086,1.78642a.95443.95443,0,0,1-1.009.51377c-.43872-.00692-.64783-.31306-.75079-.73543a1.99936,1.99936,0,0,1,.00529-1.20435c.08779-.2463.1524-.56712-.27653-.65642-.58319-.12143-.699-.53372-.60842-1.055a1.20329,1.20329,0,0,1,.95185-1.07408,3.19536,3.19536,0,0,1,3.28249,1.30569A.862.862,0,0,1,60.28131,33.31682Z"/><path class="cls-11" d="M50.73279,55.54836c.89705-.01327,1.79458-.05045,2.691-.0329.84991.01664.91939.11464.92319.95422.00058.12918.0015.25839-.00017.38755-.00934.72237-.15789.84317-.83345.90865a12.39634,12.39634,0,0,1-3.11622-.1199,9.60443,9.60443,0,0,1-3.2509-1.092c-.31929-.181-.24328-.47766-.23513-.75663a.84525.84525,0,0,1,.81231.00881A3.3013,3.3013,0,0,0,50.73279,55.54836Z"/><path class="cls-8" d="M70.43158,47.38341,70.32,47.13094a3.34938,3.34938,0,0,1,.38343-2.41061,1.73371,1.73371,0,0,1,.29744-.3514,1.16505,1.16505,0,0,1,1.33528-.04139c.3538.32874-.08215.53459-.16493.78528-.16993.51466-.53308.98814-.25283,1.57289.22467.26892.11639.648.3067.9281.12919.19015.26192.42033.51633.39566.28493-.02762.27677-.31172.34748-.52541a2.34593,2.34593,0,0,0-.1524-1.25549c-.07308-.63021-.07308-.63021.8325-.68069a1.861,1.861,0,0,1,.98824,1.81441,1.782,1.782,0,0,1-1.82725,1.613A2.42984,2.42984,0,0,1,70.43158,47.38341Z"/><path class="cls-9" d="M61.24764,26.93238c.07651.00821.174-.01117.22642.02872,1.0293.78306,2.21318,1.40561,2.784,2.66915.08.177.31186.35814.04978.52354a.569.569,0,0,1-.65639-.05639c-.3186-.25176-.66107-.50307-.9408-.76618-.415-.39038-.95912-.48741-1.36408-.83713-.34411-.29718-.75841-.10417-1.10671-.09091-.99886.038-1.99431.19829-2.98782.3345-.84945.11645-1.04083.00082-1.508-1.01958a.83471.83471,0,0,1,.92785-.601,18.84067,18.84067,0,0,0,3.52965-.29045A1.5506,1.5506,0,0,1,61.24764,26.93238Z"/><path class="cls-10" d="M42.08817,32.37051a12.04015,12.04015,0,0,1-.17,1.99672c-.02552.36535-.16833.60629-.70667.548-1.3604-.14739-1.59046-.39935-1.27959-1.76706.03409-.15.09544-.29449.122-.44542.12192-.69165.1191-.69215-.45946-.95188a2.24146,2.24146,0,0,1,2.98682-1.3574c.30552.14481.782,1.35831.88252,1.38357.28573.07179.09932.51741-.15416.74-.4647.43632-.81943-.10562-1.2314-.13848Z"/><path class="cls-11" d="M52.03724,43.39754c.32947.94156.071,1.38607-.82671,1.39517-.67.00679-1.26589.35664-1.93945.37424a5.88668,5.88668,0,0,1-2.54479-.1023c.09532-.37661-.272-.52841-.37963-.7994-.087-.219-.3032-.46271-.11658-.71837a.674.674,0,0,1,.71466-.35374C48.62918,43.59948,50.34066,43.30945,52.03724,43.39754Z"/><path class="cls-11" d="M54.77172,43.008a6.38725,6.38725,0,0,1,2.36831.88177A7.17486,7.17486,0,0,1,58.564,45.182a3.94678,3.94678,0,0,0,.82789.78476.71539.71539,0,0,1,.36567.85171c-.05172.15521-.20151.33965-.32667.24782-.31261-.22937-.73127-.109-.981-.26274-.62553-.385-1.40143-.42646-1.95932-.94159-.78876-.72831-1.82373-1.24678-2.05107-2.44131C54.36694,43.03958,54.44366,42.97132,54.77172,43.008Z"/><path class="cls-11" d="M43.30964,32.517a1.95967,1.95967,0,0,0-1.27416-2.02332,2.41929,2.41929,0,0,0-2.441,1.25718,3.74384,3.74384,0,0,0-.50732-.17229c-.3455-.10491-.5396-.41007-.33495-.71129.47343-.69686.93131-1.43062,1.99785-1.30781.52623.06059,1.05186-.18147,1.61606-.14117a3.6588,3.6588,0,0,1,2.18983,1.43226c.1424.49411-.22165.59373-.526.6706a.26352.26352,0,0,0,.1198.32c.15818.10569.312.21319.22.43127a.42855.42855,0,0,1-.4406.25328Q43.61939,32.52157,43.30964,32.517Z"/><path class="cls-4" d="M40.22,26.02047a3.19976,3.19976,0,0,1,2.96845.23,1.75746,1.75746,0,0,0,.72585.22806c.54312.09872.64787.46843.28672.87595-.89109,1.0055-1.25631,1.106-2.46617.57842-.40451-.17638-.85728-.12651-1.24293-.34026C40.79079,27.00117,40.207,26.56246,40.22,26.02047Z"/><path class="cls-11" d="M60.28131,33.31682a2.84208,2.84208,0,0,0-3.22677-2.03c-.59069.0737-.80739.56888-1.14675.93112-.19614-.05488-.39129-.1137-.58876-.16328a.34352.34352,0,0,1-.28622-.22782c-.0506-.2297.18074-.18384.28911-.26541a5.68449,5.68449,0,0,1,1.53271-1.08593,3.49533,3.49533,0,0,1,3.86479,1.02373,3.346,3.346,0,0,1,.417,1.35814C61.215,33.44473,60.6271,33.25685,60.28131,33.31682Z"/><path class="cls-4" d="M61.24764,26.93238q-1.97564.22769-3.95146.45368a.90628.90628,0,0,1-.45552.00559c-.48334-.242-.79773-.00347-1.09658.32645-.2005-.83464.08127-1.27515.91735-1.35113.68668-.06241,1.30788-.39,2.00527-.41883A2.82858,2.82858,0,0,1,61.24764,26.93238Z"/><path class="cls-13" d="M50.73279,55.54836a2.11256,2.11256,0,0,1-2.29209.67356,11.45523,11.45523,0,0,1-1.52956-.42456c-.12491-.2932-.44646-.632-.21668-.89635.28979-.33343.754-.05094,1.05876.06879A12.68913,12.68913,0,0,0,50.73279,55.54836Z"/><path class="cls-9" d="M40.22,26.02047a.83371.83371,0,0,0,.11643.2656c.61081.618.61605.63969.15549,1.30655-1.14186-.47458-1.62236.476-2.27364,1.05707a2.15224,2.15224,0,0,0-.15183.16572l-.00859-1.421c.66965-.3739,1.14408-1.02616,1.87254-1.31467A1.64626,1.64626,0,0,1,40.22,26.02047Z"/><path class="cls-11" d="M42.85207,43.39541c.189.34626.02728.849.48047,1.07744-.88394.37762-1.26886,1.2499-1.87708,1.9004a5.40945,5.40945,0,0,0-.37318.50312.7055.7055,0,0,1-.15458-.85313c.29935-.629.553-1.28474.90814-1.88019A1.28188,1.28188,0,0,1,42.85207,43.39541Z"/><path class="cls-3" d="M72.93649,46.22857c.138.2344.5786.33979.46524.64152-.16191.43093.002.93384-.33068,1.31154a.36118.36118,0,0,1-.5814.058,1.47876,1.47876,0,0,1-.57127-1.5539C72.305,46.63858,72.56988,46.32026,72.93649,46.22857Z"/><path class="cls-9" d="M37.91225,28.98546a.17375.17375,0,0,1,.15171-.16925Z"/><path class="cls-10" d="M57.91929,87.95572c-.61877.96855-1.46554,1.83371-1.41944,3.12553-.12251.1983-.152-.46441-.28976-.058-.3852,1.13652-1.19,2.09234-1.41224,3.29764-.54383,1.09608-1.07658,2.19784-1.636,3.2859-.29225.5684-.151,1.28129-.63453,1.786-.13492.14083-.17387.4174-.44456.3054-.23789-.09845-.18212-.31313-.15484-.53088a23.30025,23.30025,0,0,1,.99553-3.96246c.58759-1.90358,1.37617-3.73908,1.87546-5.67055a3.66745,3.66745,0,0,0,.32919-1.48352c-.05436-.37621.40091-.51541.462-.852a2.35548,2.35548,0,0,0,1.34925-.84148A14.59363,14.59363,0,0,1,59.07182,84.3a29.56812,29.56812,0,0,1,3.15153-2.41429c1.80994-1.11878,3.65819-2.205,5.35815-3.47035,1.30641-.97239,2.71626-1.77819,4.02347-2.74417.69707-.51512,1.48718-.95514,2.24521-1.41266,1.49292-.90109,2.94679-1.8499,4.35877-2.88352,1.18685-.86882,2.43843-1.67451,3.6956-2.4569a16.918,16.918,0,0,1,2.62332-1.38919,2.82436,2.82436,0,0,1,1.93561-.363c.58746.54587.55908.52031-.0136,1.04688a27.10044,27.10044,0,0,1-2.82118,1.67861c-1.52415,1.10122-3.18075,2.00454-4.63,3.22909a8.60479,8.60479,0,0,1-2.54831,1.50049,3.95042,3.95042,0,0,0-.73246.41157c-1.16271.746-2.31494,1.50865-3.48616,2.241a1.71626,1.71626,0,0,0-.65583.72605,15.82046,15.82046,0,0,0-2.94765,2.04944c-.01838.03029-.03677.06059-.05437.0915a2.35851,2.35851,0,0,1-.23169.22271A39.21228,39.21228,0,0,1,64.911,82.80346c-.183.122-.37221.28876-.6313.20876a3.16657,3.16657,0,0,0-1.51373.82458c-.60139.42112-1.25616.74479-1.85477,1.162-.43066.30017-.91127.50324-1.16757,1.04679-.22827.48412-.81445.6718-1.19149,1.05766A3.00356,3.00356,0,0,0,57.91929,87.95572Z"/><path class="cls-10" d="M86.68892,61.87378a.89045.89045,0,0,1-.59183-.12488c-.06213-.04547-.258-.1086-.10595-.15837.36511-.11954.06627-.44708.18939-.53552.59-.42375.99632-1.10972,1.74475-1.29574.28747-.07145.66063-.26089.87426.1633a.65353.65353,0,0,1-.30223.95541,3.6575,3.6575,0,0,0-.77026.62054A1.26954,1.26954,0,0,1,86.68892,61.87378Z"/><path class="cls-10" d="M82.08408,64.76207c.1079-.21078.6044-.173.33356-.66495-.09681-.17583.40018-.39346.6334-.583a2.15278,2.15278,0,0,1,1.466-.54083c.53627.02509.62382.24833.3482.72111A2.116,2.116,0,0,1,82.08408,64.76207Z"/><path class="cls-10" d="M63.39463,77.94008a2.73792,2.73792,0,0,0-.42042-.06849c-.21745.00036-.45458-.01927-.51185-.24526-.06144-.24245.179-.31288.356-.42412a7.12149,7.12149,0,0,1,2.05967-1.11293c.27247-.06585.59386-.22749.75985.05534.17406.29658-.05308.56238-.28914.78819A3.95268,3.95268,0,0,1,63.39463,77.94008Z"/><path class="cls-10" d="M69.94833,73.55791a3.94842,3.94842,0,0,1-2.14444,1.46178.79612.79612,0,0,1-.30047.0492c-.37439.00331-.89127.07946-.97528-.33355-.05128-.25209.44864-.39088.78324-.51318.41867-.153.69284-.58382,1.1293-.7887A1.13272,1.13272,0,0,1,69.94833,73.55791Z"/><path class="cls-10" d="M90.1299,58.5083c-.56982.01127-.59253-.09347-.42428-.66445a2.04031,2.04031,0,0,1,1.21366-1.17954A.89667.89667,0,0,1,92,57.01721c.21359.25244-.1185.5075-.34947.72558A2.036,2.036,0,0,1,90.1299,58.5083Z"/><path class="cls-10" d="M75.76573,69.94969c-.29857.01478-.78363-.0337-.85329-.351-.08093-.36872.40908-.53558.72353-.64722a3.48882,3.48882,0,0,1,1.52758-.40243c.17514.01791.37884-.02367.443.207a.394.394,0,0,1-.13747.48234A2.987,2.987,0,0,1,75.76573,69.94969Z"/><path class="cls-10" d="M78.81336,66.84574c.51656-.362,1.191-.30185,1.74-.60508a.58486.58486,0,0,1,.66543.24249c.11664.22624-.09539.46381-.34828.5992-.29.15525-.55587.35839-.85243.49767a1.2008,1.2008,0,0,1-.65292.19372c-.344-.04122-.87391-.03384-.89894-.3663C78.42653,66.8803,78.89082,67.08155,78.81336,66.84574Z"/><path class="cls-10" d="M72.128,72.39481c-.22891-.06756-.5318-.0848-.63143-.34178-.1244-.32085.18011-.44218.3968-.54729.406-.19693.829-.35875,1.24482-.53547.02358-.01.045-.02583.06918-.03363a.82077.82077,0,0,1,.96232.22908c-.29339.17459-.20726.59132-.60269.77341C73.10015,72.15407,72.592,72.165,72.128,72.39481Z"/><path class="cls-10" d="M59.90956,80.51227a.6308.6308,0,0,1-.63344-.21158c-.10786-.19352.09013-.43625.27545-.56619.51249-.35932.93059-.8986,1.62382-.93246.4214-.02059.68462.33833.42075.61847A2.65339,2.65339,0,0,1,59.90956,80.51227Z"/><path class="cls-10" d="M56.72864,84.07656c-.19921.01548-.43227-.02131-.47786-.25451-.05045-.25805.167-.16376.3087-.15679.16837.0083.13495-.15516.12363-.22021-.14989-.86132.56636-.89227,1.06683-1.14018.34887-.17282.43392.08524.457.304C58.25263,83.04228,57.1951,84.07747,56.72864,84.07656Z"/><path class="cls-10" d="M92.70153,54.55821c-.04614.36538.28883.57375.37434.9091-.38917.08554-.82824.1014-.97751-.287-.17216-.44794.37525-.43212.60373-.6241Z"/><path class="cls-10" d="M25.03088,94.97506a3.19924,3.19924,0,0,1,.78907-2.2786,2.95962,2.95962,0,0,1,1.86241-.98943,5.25941,5.25941,0,0,1,3.46892.29878,1.83551,1.83551,0,0,1,1.04087,2.395,3.34231,3.34231,0,0,1-2.85824,2.85158,4.43519,4.43519,0,0,1-3.6436-.73335A1.43315,1.43315,0,0,1,25.03088,94.97506Z"/><path class="cls-8" d="M22.00793,101.52772c-.12969-.59039.13743-.56893.57094-.61547a25.38887,25.38887,0,0,1,4.48741.16351c1.59311.11042,3.1872-.03933,4.77644.16477.8493.10908,1.72378.03422,2.57632.19846a2.208,2.208,0,0,1,1.553,1.50529c.07891.48687-.14447.73685-.61433.6865a21.83674,21.83674,0,0,0-3.16731-.07221,6.51962,6.51962,0,0,1-1.75312-.1388c-.36616-.08962-.77632.28551-1.01022-.05378-.307-.44536-.55958.03629-.84664-.03374a10.11484,10.11484,0,0,0-1.03348-.063c-1.39038-.19185-2.79875.00051-4.18082-.26386A1.81449,1.81449,0,0,1,22.00793,101.52772Z"/><path class="cls-9" d="M38.168,77.408a5.90314,5.90314,0,0,1-2.10506-1.0932c-.516-.3521-1.182-.43907-1.71971-.78936a.81955.81955,0,0,1-.3398-.28654,5.813,5.813,0,0,1,3.41324.43277A1.41733,1.41733,0,0,1,38.168,77.408Z"/><path class="cls-6" d="M82.95344,104.16506a5.48516,5.48516,0,0,1-3.34032,5.07127,2.91519,2.91519,0,0,1-3.461-.58873c-1.87441-1.70185-2.13128-3.77755-1.67109-6.12528a6.36769,6.36769,0,0,1,2.45-3.49891,1.95331,1.95331,0,0,1,2.45532-.41606.91951.91951,0,0,0,.4493.079,2.34153,2.34153,0,0,1,1.952,1.356A10.074,10.074,0,0,1,82.95344,104.16506Z"/><path class="cls-14" d="M64.27974,83.01222c1.40743-.87155,2.71663-1.88474,4.07483-2.82727.08249-.06886.20369-.06316.27937-.14514l-.00561.00911c.22331.06293.45484.03607.685.07664,1.49436.26344,1.45609.75385,1.54866,1.889a12.08763,12.08763,0,0,1-.07511,1.84357c-.08045,1.06795-.212,1.26146-1.291,1.3124-1.171.05529-2.31726.347-3.496.30358a2.90017,2.90017,0,0,1-1.28315-.19562c-.36044-.1928-.81062-.29431-.641-1.00464A4.92875,4.92875,0,0,1,64.27974,83.01222Z"/><path class="cls-13" d="M80.98829,82.77936c-1.2965-.23966-2.60181.08633-3.88978-.25856A3.8158,3.8158,0,0,0,75.6453,82.51a16.07075,16.07075,0,0,1-2.7-.17158c-.12419-.00382-.29331-.01219-.36053-.08924-.12971-.14867-.38528-.44172-.31078-.48211.313-.16972.41554-.64857.8449-.60975,1.26634.11448,2.5331-.14222,3.79663.0031,1.53982.17708,3.09309-.05611,4.62875.16506a2.40241,2.40241,0,0,1,1.53836.54366c.267.26819.416.28039-.02707.5464C82.37525,82.824,81.65742,82.55461,80.98829,82.77936Z"/><path class="cls-13" d="M72.70353,83.18757a2.15578,2.15578,0,0,1,1.56607-.14311c1.136.18544,2.28468.06652,3.41232.24279a5.95514,5.95514,0,0,1,2.42984.49163c.11374.07111.23378.12189.24166.26055.00948.16686-.14483.173-.25882.22866a5.39988,5.39988,0,0,1-2.65494.26928c-1.09281-.03362-2.18009-.13835-3.26414-.28083-.40583-.05333-.39107-.05037-.58186-.53934C73.45323,83.35727,73.03561,83.39605,72.70353,83.18757Z"/><path class="cls-13" d="M25.42364,79.0987a1.83538,1.83538,0,0,1-1.41547-.2865,1.08659,1.08659,0,0,1-.5696-1.294c.20466-.44081.47762-.82095,1.11036-.646a12.03136,12.03136,0,0,0,1.20759.09888,1.39112,1.39112,0,0,1,1.07929.97992.80431.80431,0,0,1-.30233.893A1.10672,1.10672,0,0,1,25.42364,79.0987Z"/><path class="cls-8" d="M34.42571,79.4065A3.67533,3.67533,0,0,1,32.7899,78.99a1.04645,1.04645,0,0,1-.0379-1.75329,2.43833,2.43833,0,0,1,2.63878-.38895c.8215.21548,1.03153.793.653,1.58429A1.67775,1.67775,0,0,1,34.42571,79.4065Z"/><path class="cls-11" d="M49.53825,51.78521l-.07537.07517c.0023-.01694-.00141-.04014.00825-.04942a.2294.2294,0,0,1,.06128-.03155Z"/><path class="cls-9" d="M68.63394,80.03981c-.03285.16446-.17064.1268-.27937.14514C68.3943,80.03374,68.52257,80.053,68.63394,80.03981Z"/><path class="cls-13" d="M81.24607,106.03134a14.8452,14.8452,0,0,0-2.53486-.00237,3.93821,3.93821,0,0,1-2.08433-.27145,1.94627,1.94627,0,0,1-1.19956-1.38111c-.07728-.39585.0348-.58237.47014-.51622a7.68658,7.68658,0,0,0,3.08139.0878c.20936-.05259.4532-.05509.2924.29573-.05038.1099-.03646.18927.08181.24037.13139.05674.20737-.04223.24287-.12255.08072-.18262.11572-.48788.37092-.37709.303.13155.67783-.03058.91952.24695.31465.36131.6209.72822.90125,1.1205.17852.24978.05466.43379-.01212.62354C81.71922,106.13541,81.53488,106.143,81.24607,106.03134Z"/><path class="cls-13" d="M81.19424,103.64673a15.90021,15.90021,0,0,1-2.19916-.35354c-.34107-.10389-.77317-.16549-1.15071-.27649a1.26478,1.26478,0,0,1-.74971-.62951c-.13238-.24555-.27929-.49942-.11366-.78435.18611-.32014.49979-.11011.69488-.07543.82708.14706,1.67113-.01084,2.49227.19352a2.46683,2.46683,0,0,1,1.51726,1.64992C81.69594,103.72413,81.43726,103.69433,81.19424,103.64673Z"/></svg>