<svg width="1080px" height="1080px" viewBox="-48.5 0 1080 1080" id="Capa_1" data-name="Capa 1" xmlns="http://www.w3.org/2000/svg"><defs><style>.cls-1{fill:#fd6769;}.cls-2{fill:#fdce51;}</style></defs><title>fruitsandvegetables</title><path id="Trazado_509" data-name="Trazado 509" class="cls-1" d="M585.72,483l42.49-36.43s24.28-18.21,109.28-30.35a42.37,42.37,0,0,1-1,8.48,32,32,0,0,1-5.05,3.68A231,231,0,0,0,619.12,581.52Z"/><path id="Trazado_510" data-name="Trazado 510" class="cls-1" d="M411.33,549.32,357.82,532.9s-29.54-7-112.31,15.82a42.08,42.08,0,0,0,4.33,7.35,33,33,0,0,0,6.06,1.35A231,231,0,0,1,420,653Z"/><path id="Trazado_511" data-name="Trazado 511" class="cls-1" d="M430.38,653.76S389,617.83,371.63,615.7c-50-14.31-118.82,9.94-118.82,9.94l3,5.3,16.53,4.64s172.92,98.94,208.56,162.47c22.46,15.25,75.66,48.05,75.66,48.05Z"/><path id="Trazado_512" data-name="Trazado 512" class="cls-1" d="M626,599.59s18.5-51.58,32.61-61.93c18.18-6.06,66.78-12.12,66.78-12.12v6.06l-12.12,12.12s-60.71,133.56-60.71,206.41C640.4,774.41,610,829.05,610,829.05Z"/><path id="Trazado_513" data-name="Trazado 513" class="cls-2" d="M631.25,613.54c-7.27-19.11-14.47-38.18-21.64-57.06-11.75-55.25-42.1-109.89-70.9-154-7.6-34.8-31.9-53-44-65.16A172.43,172.43,0,0,0,434,246.25c-13.81-13.81-25-22.1-37.53-24.79A58.57,58.57,0,0,0,364.16,225a49.87,49.87,0,0,0-8.23,45.07c-1.47,18.85-6.94,43-.64,65.86,1,24.68-6.3,56,11.91,80.3-6.06,18.21,0,42.49,3,57.46,5.68,34.29,15.22,70,33.43,100.38,6.46,25.8,1.78,54.76,9.82,79.1C451.53,768.51,507,860,576.64,856.36a31.1,31.1,0,0,0,5.68-.81C639.63,842,652.68,669.88,631.25,613.54Z"/><path id="Trazado_514" data-name="Trazado 514" class="cls-1" d="M640.73,674.1a371.22,371.22,0,0,0-85.36,70S519,701.57,429.82,698.48c7.31,17.73,20,57.41,43.59,91.11,28.93,41.38,54.64,60.71,100.18,69.82A69,69,0,0,0,619.11,826C643.06,782.81,648.82,709.68,640.73,674.1Z"/></svg>