<svg width="1080px" height="1080px" viewBox="-48.5 0 1080 1080" id="Capa_1" data-name="Capa 1" xmlns="http://www.w3.org/2000/svg"><defs><style>.cls-1{fill:#f7ffde;}.cls-2{fill:#100174;}.cls-3{fill:#fed9db;}.cls-4{fill:#94b7bd;}.cls-5{fill:#fdce51;}.cls-6{fill:#fd6769;}.cls-7{fill:#fff;}</style></defs><title>fruitsandvegetables</title><polygon class="cls-1" points="766.52 602.04 571.63 574.04 329.19 617.04 208.58 650.04 153 711.04 179.22 785.04 345.97 822.04 589.28 837.04 766.52 813.04 863 745.04 850.41 690.04 766.52 602.04"/><polygon class="cls-2" points="230.5 520.48 282.97 464.04 330.75 437.12 420.2 422.04 477.79 422.04 578.26 434.96 638.3 445.73 710.59 460.81 753.47 500.65 768.5 529.04 686.08 588.96 270.71 618.04 230.5 520.48"/><path id="Trazado_412" data-name="Trazado 412" class="cls-3" d="M345.4,423.77c-.85-9.67.33-8.89,5.37-16.35,6.62-9.81,18.88-26.59,31.59-27.7,16.36-1.43,15.95.87,30.24,8.69,5,2.71,13.28,22.26,13.81,28.27.93,10.66-5,20.36-11.14,28.18-6.7,8.59-14.11,14.84-25.82,15.86a33,33,0,0,1-20.85-5C357.19,449.4,346.62,437.74,345.4,423.77Z"/><path id="Trazado_413" data-name="Trazado 413" class="cls-3" d="M261.82,441.84c-.85-9.66.33-8.89,5.37-16.35,6.62-9.8,18.88-26.59,31.59-27.7,16.36-1.43,16,.87,30.24,8.69,5,2.72,13.28,22.26,13.81,28.27.93,10.66-5,20.36-11.14,28.18-6.7,8.59-14.11,14.84-25.82,15.87a33.06,33.06,0,0,1-20.85-5C273.61,467.48,263,455.81,261.82,441.84Z"/><path id="Trazado_414" data-name="Trazado 414" class="cls-3" d="M290.09,575.62c-.74-8.39.29-7.72,4.66-14.19,5.75-8.52,16.4-23.1,27.43-24.06,14.22-1.25,13.85.76,26.27,7.55,4.3,2.36,11.53,19.33,12,24.55.81,9.26-4.38,17.68-9.67,24.47-5.81,7.46-12.26,12.89-22.43,13.78a28.69,28.69,0,0,1-18.1-4.32C300.33,597.89,291.15,587.76,290.09,575.62Z"/><path id="Trazado_415" data-name="Trazado 415" class="cls-3" d="M249.4,422.94c7.42,6.23,6,6.52,7.75,15.35,2.25,11.62,5.46,32.16-2.74,41.93-10.56,12.59-11.91,10.67-27.53,15.24-5.43,1.59-25.14-6.35-29.76-10.23-8.19-6.88-10.83-18-12.05-27.8-1.34-10.82-.52-20.47,7-29.48a33.06,33.06,0,0,1,18.26-11.22C222.92,413.15,238.64,413.94,249.4,422.94Z"/><path id="Trazado_416" data-name="Trazado 416" class="cls-3" d="M318,513.8c.85,9.67-.33,8.89-5.37,16.35C306,540,293.73,556.74,281,557.85c-16.37,1.43-15.95-.87-30.24-8.69-5-2.71-13.29-22.26-13.81-28.27-.93-10.66,5-20.36,11.14-28.18,6.7-8.59,14.11-14.84,25.82-15.87a33,33,0,0,1,20.84,5C306.19,488.16,316.76,499.82,318,513.8Z"/><path id="Trazado_417" data-name="Trazado 417" class="cls-3" d="M387.19,470.37c7.43,6.24,6.05,6.53,7.76,15.36,2.25,11.62,5.46,32.16-2.74,41.93-10.56,12.58-11.91,10.66-27.53,15.24-5.43,1.58-25.14-6.35-29.76-10.23-8.2-6.88-10.83-18-12.05-27.8-1.34-10.82-.52-20.47,7-29.48a33,33,0,0,1,18.26-11.22C360.72,460.59,376.44,461.37,387.19,470.37Z"/><path id="Trazado_418" data-name="Trazado 418" class="cls-4" d="M304.58,388.59c-8.48-21.4-5.23-55,0-76.8,5.4-22.51,15.68-42.22,27.56-62.06-.45-8-6-11.94-9.75-5.7a274.13,274.13,0,0,0-28.25,70.14A217.38,217.38,0,0,0,291,341.45c-.12,3.45-.13,7.08,0,11a162.48,162.48,0,0,0,6.78,40.65,3.59,3.59,0,0,0,2.19,1.66c.89.19,2-.36,4.59-1.66Z"/><path id="Trazado_419" data-name="Trazado 419" class="cls-4" d="M266.18,334.37l-6.77-9V311.79l4.51-22.59,9,11.29L282,314s2.25,2.26,2.25,9,2.26,9,2.26,9l4.43,12.2.09,8.13-18.07-9Z"/><path id="Trazado_420" data-name="Trazado 420" class="cls-5" d="M670.25,350.43s-24.6-5.43-36.34,22.36-18.73,57.15-32.12,73.86-40.2,42.19-37.74,58.82.44,87.16,47.29,105.14,78.49,9.91,95.08-.48S764.06,571,767.1,545.65s11.67-43.64-2.68-64.17-43.06-53.66-50.28-71.85-16.83-37.16-24.79-45A104.91,104.91,0,0,0,670.25,350.43Z"/><path id="Trazado_421" data-name="Trazado 421" class="cls-6" d="M727.34,300.75l-10.58-1.05-10.92,2.48-7.4,2.83-13.22,7.59-8.29,6.81c2.06-4.2,3.06-10.29,5.77-15a62.74,62.74,0,0,1,17.47-24.28l17.93-22.67-10.68-1.73-5.13,5.4s-12,19.33-19.67,27.44a156.64,156.64,0,0,0-13.35,24.63l-6.52,15.05L658,344.81l.35,4.69-6.19,24a48.09,48.09,0,0,1,14.24-3.24,187.24,187.24,0,0,1,.25-19.82,101.92,101.92,0,0,1,4.15-16.09L687,330.59a154,154,0,0,0,19.57.16,41.86,41.86,0,0,0,22.2-8.49l13.56-11.12L752,303.2Z"/><ellipse id="Elipse_374" data-name="Elipse 374" class="cls-7" cx="424.4" cy="584.67" rx="3.89" ry="6.48"/><ellipse id="Elipse_376" data-name="Elipse 376" class="cls-7" cx="471.04" cy="631.32" rx="3.89" ry="6.48"/><path id="Trazado_432" data-name="Trazado 432" class="cls-4" d="M434.77,330.74c-23.32,230.61-49.23,209.88-40.16,268.18,5.39,34.7,58.29,90.41,121.78,70,76.44-24.62,83.64-71.7,89.39-107.54,7.53-46.91-67.36-171-114-230.61C468.12,300.53,437.2,306.59,434.77,330.74Z"/><ellipse id="Elipse_371" data-name="Elipse 371" class="cls-7" cx="442.53" cy="478.43" rx="3.89" ry="6.48"/><ellipse id="Elipse_372" data-name="Elipse 372" class="cls-7" cx="429.58" cy="532.85" rx="3.89" ry="6.48"/><ellipse id="Elipse_373" data-name="Elipse 373" class="cls-7" cx="452.9" cy="597.63" rx="3.89" ry="6.48"/><ellipse id="Elipse_375" data-name="Elipse 375" class="cls-7" cx="483.99" cy="584.67" rx="3.89" ry="6.48"/><ellipse id="Elipse_377" data-name="Elipse 377" class="cls-7" cx="465.86" cy="548.4" rx="3.89" ry="6.48"/><path id="Trazado_433" data-name="Trazado 433" d="M423.1,282.8c2.59,5.18,9.09,9.05,10.36,15.55.92,4.66,2.25,8.76,0,12.95-6.91,12.89-5.18,15.55-12.95,31.1-2.53,5-10.05,8.35-15.55,13,5.18,5.18,9,7.76,15.55,7.78,5.15,0,8.34-7.49,12.95-5.19,7,3.49,9.07,9.87,14.61,15.3a3.74,3.74,0,0,0,6.33-2.51c.71-10.28-2-28.39-2.91-38.64a29.29,29.29,0,0,1,11.21,14.22,1.13,1.13,0,0,0,1.44.7,1.15,1.15,0,0,0,.73-.81,66.35,66.35,0,0,0,1.54-22.9,62.08,62.08,0,0,1,19.24,20.09,2.26,2.26,0,0,0,3.1.77,2.29,2.29,0,0,0,.72-.7c5.77-8.66,13.3-16.75,23.4-18.41-10.4-2-20.43-12.15-30.16-16.33s-19.26-2.62-24.59-11.78a3.29,3.29,0,0,1-.55-1.48,3.43,3.43,0,0,1,.74-1.91l9-14c-.15-2-.15-2-2.55-4.37C459.59,277.3,454.2,275,449,275c-5.1,2.24-10.3,4.49-15.54,2.59Z"/><polygon class="cls-6" points="230.5 566.04 240.5 613.04 262.5 649.04 299.5 677.04 339.5 703.04 433.5 734.04 548.5 755.04 634.5 734.04 687.5 703.04 736.5 666.04 768.5 587.04 768.5 529.04 623.5 576.04 499.5 576.04 386.5 566.04 230.5 520.04 230.5 566.04"/></svg>