<?xml version="1.0" ?><svg width="340px" height="340px" viewBox="0 0 340 340" id="icons" xmlns="http://www.w3.org/2000/svg"><title/><polygon points="69.628 79.019 85.371 62.821 129.465 111.459 111.905 121.303 69.628 79.019" style="fill:#e9ebfc"/><path d="M129.963,109.526,85.606,62.58,69.628,79.019l9.5,9.506,3.744-2.417A8.609,8.609,0,0,1,93.81,87.435l26.664,28.28Z" style="fill:#acb9d4"/><path d="M96.642,112.583l22.264-21.417L293.838,297.7a6.2,6.2,0,0,1,1.317,3.333A9.973,9.973,0,0,1,285.57,312.1c-.091,0-.182.006-.273.008-8.665.152-16.53-3.8-20.588-8.211L96.448,118.259A4.076,4.076,0,0,1,96.642,112.583Z" style="fill:#414151"/><path d="M95.57,44.889h0a8.2,8.2,0,0,1,.9,11.749l-26.8,30.215a8.375,8.375,0,0,1-12.29.262L49,78.437,84.758,45.2A8.2,8.2,0,0,1,95.57,44.889Z" style="fill:#414151"/><path d="M28.283,71.586,52.7,83.628l.377,6.427a19.244,19.244,0,0,0,.508,8.654l.545,9.3c-.524,3.9-.022,8.4.767,13.064l.8,13.559L18.552,160.421a218.378,218.378,0,0,1,.179-48.326,16.209,16.209,0,0,0,1.089-8.069A157.6,157.6,0,0,1,28.283,71.586Z" style="fill:#414151"/><path d="M18.552,160.421s15.82-22.01,37.142-25.793l4.186,5.443a9.954,9.954,0,0,0,7.092,3.853L91.46,145.9l15.131,80.36L32.7,177.487A34.362,34.362,0,0,1,22.09,166.371Z" style="fill:#696987"/><path d="M241.683,148.357s13.76,2.218,31.382,21.858q4.974,5.544,10.48,10.582l19.135,17.471-29.808,27.991-29.461-8.9a94.836,94.836,0,0,1-10.637-3.921l-9.5-4.164Z" style="fill:#696987"/><path d="M91.46,145.9l-13.217-1.066-1.3,3.646a56.186,56.186,0,0,0-2.335,28.926l5.762,31.549,26.218,17.3Z" style="fill:#414151"/><path d="M253.8,175.437V153.662c-7.415-4.541-12.114-5.305-12.114-5.305l-18.411,60.917,9.5,4.164a94.867,94.867,0,0,0,9.715,3.628l7.152-18.9A64.207,64.207,0,0,0,253.8,175.437Z" style="fill:#414151"/><path d="M144.874,125.523l-4.832,12.541c6.314,19.831,17.281,35.187,29.733,49.115l33.91-59.011Z" style="fill:#ffc4b6"/><path d="M169.775,187.179l33.909-59.011-58.81-2.645-4.832,12.541c.6,1.892,1.26,3.731,1.944,5.544l25.246,5.348a3.686,3.686,0,0,1,2.545,5.231L159.609,174.9C162.832,179.15,166.24,183.225,169.775,187.179Z" style="fill:#ea8b7f"/><path d="M143.493,128.168l-21.336,13.1H94.413a9.021,9.021,0,0,0-8.813,7.045c-1.2,5.407-2.385,13.2-1.538,20.754a24.169,24.169,0,0,0,.447,2.56c1.473,6.581,8.5,36.239,20.076,57.659a34.262,34.262,0,0,1,4.174,17.786,141.229,141.229,0,0,1-2.21,20.54,10.775,10.775,0,0,0,2.34,9.129l11.618,13.639h61.36l4.619-85.777S153.624,164.879,143.493,128.168Z" style="fill:#696987"/><path d="M165.579,203.2h19.933c-5.507-6.885-32.923-42.269-42.019-75.231l-21.336,13.1S134.866,174.9,165.579,203.2Z" style="fill:#414151"/><path d="M197.181,130.386s-35.275,45.936-59.323,119.1c0,0-5.073,12.4,2.184,24.7,0,0,6.236,9.178,8.129,16.192H212l8.682-14.756a11.33,11.33,0,0,0,1-9.262l-4.708-14.412a21.794,21.794,0,0,1,1.2-16.472L238.2,195.224a68.863,68.863,0,0,0,6.56-21.27l3.213-23.34a7.468,7.468,0,0,0-7.836-8.474l-4.252.25a18.029,18.029,0,0,1-5.432-.506l-15.3-3.82-11.466-12.541Z" style="fill:#696987"/><path d="M153.261,267.645q-.189-.6-.351-1.178a30.008,30.008,0,0,1,.145-16c13.784-49.994,62.1-112.407,62.1-112.407l-11.467-12.541-7.139,2.838s-37.367,48.25-61.415,121.414c0,0-4.187,12.614,3.07,24.914,0,0,6,8.677,7.887,15.691h17.767c0-4.623-4.613-11.966-6.954-15.394A28.244,28.244,0,0,1,153.261,267.645Z" style="fill:#414151"/><path d="M211.518,56.076a33.223,33.223,0,0,0-6.488-7.843A163.072,163.072,0,0,0,176.1,27.976a12.769,12.769,0,0,0-12.363,0A163.054,163.054,0,0,0,134.8,48.233a33.491,33.491,0,0,0-6.577,7.993c-12.274,20.79-12.047,44.561-11.445,53.378a10.943,10.943,0,0,0,2.411,6.227c19.191,23.345,50.724,22.224,50.724,22.224s31.533,1.121,50.724-22.224a10.953,10.953,0,0,0,2.411-6.227C223.654,100.764,223.881,76.9,211.518,56.076Z" style="fill:#696987"/><path d="M208.969,88.034a11.854,11.854,0,0,0-1-8.465c-7.066-13.266-19.428-21.5-28.135-25.956a21.772,21.772,0,0,0-19.782,0c-8.739,4.462-21.16,12.732-28.22,26.063a11.9,11.9,0,0,0-1.038,8.273c2.209,9.472,5.16,32.614,27.06,44.857,0,0,13.948,2.821,23.24.7C202.932,121.282,206.567,97.6,208.969,88.034Z" style="fill:#414151"/><path d="M193.751,82.428A63.9,63.9,0,0,0,176.74,66.459a12.419,12.419,0,0,0-13.7.031,63.946,63.946,0,0,0-16.957,15.931,19.152,19.152,0,0,0-3.4,12.348,91.607,91.607,0,0,0,1.525,12.258s4.074,12.478,7.567,17.283a33.425,33.425,0,0,0,14.753,12.633,51.148,51.148,0,0,0,6.766,0,33.426,33.426,0,0,0,14.752-12.633c3.545-4.876,7.62-17.554,7.62-17.554a92.229,92.229,0,0,0,1.473-11.992A19.143,19.143,0,0,0,193.751,82.428Z" style="fill:#ffc4b6"/><path d="M187.029,126.829a26.857,26.857,0,0,0,2.085-2.841c3.753-5,8.067-18,8.067-18a91.723,91.723,0,0,0,1.559-12.3,19.4,19.4,0,0,0-3.735-12.834A66.925,66.925,0,0,0,177.14,64.674a13.506,13.506,0,0,0-14.5.032,66.925,66.925,0,0,0-17.877,16.238A19.361,19.361,0,0,0,141.1,93.763a91.115,91.115,0,0,0,1.611,12.5s4.312,12.793,8.01,17.72a33.491,33.491,0,0,0,5.446,6.4c-.116-.291-7.752-19.426-9.326-34.073a15.741,15.741,0,0,1,2.2-9.885A43.937,43.937,0,0,1,162.2,72.883a13.119,13.119,0,0,1,15.676.9,54.943,54.943,0,0,1,11.854,13.448,15.7,15.7,0,0,1,2.362,8.687c-.121,6.87-.984,19.953-5.385,30.909Z" style="fill:#ea8b7f"/><path d="M173.5,137.94c10.321-4.135,16.471-13.952,16.471-13.952,3.754-5,5.941-11.672,7.212-18-4.984-2.254-13.245-4.849-22.259-7.679a16.514,16.514,0,0,0-10.054.037c-8.877,2.857-17.14,5.676-22.159,7.92,1.279,6.242,3.456,12.792,7.155,17.72,0,0,6.15,9.817,16.472,13.952a55.812,55.812,0,0,0,7.162,0Z" style="fill:#414151"/><path d="M249.471,238.259l9.591-8.122a18.717,18.717,0,0,0,6.4-5.418l12.573-10.647c4.2-2.413,7.688-5.125,9.9-8.382L299.8,195.639l19.656,15.068a11.617,11.617,0,0,1,3.2,14.883,19.057,19.057,0,0,1-3.538,4.452,20.67,20.67,0,0,1-4.131,2.94l-42.128,23.437Z" style="fill:#414151"/><path d="M249.471,238.259l-24.319,20.594a5.8,5.8,0,0,0-.5,8.374l7.976,8.562A15.5,15.5,0,0,0,252.747,278l13.156-9.028a15.462,15.462,0,0,0,6.43-9.812l.531-2.745Z" style="fill:#ffc4b6"/><path d="M28.283,71.586s6.181-18.894,17.95-32.755L64.279,60.538,52.7,83.628Z" style="fill:#ea8b7f"/><path d="M19.007,19.326l2.275-2.158a10.018,10.018,0,0,1,13.9.107L73.768,55.011,58.739,71.586,19,33.86A10.017,10.017,0,0,1,19.007,19.326Z" style="fill:#414151"/><path d="M43.475,51.111l19.1,15.529L73.979,55.217a10.5,10.5,0,0,0,.343-13.773A129.761,129.761,0,0,0,62.864,28.99a12.776,12.776,0,0,0-17.434-.034,37.712,37.712,0,0,0-3.9,4.26A12.822,12.822,0,0,0,43.475,51.111Z" style="fill:#ffc4b6"/><path d="M216.976,251.95a21.774,21.774,0,0,1,.067-13.657l-.011-.034L204.67,263.18a2.373,2.373,0,0,0,3.79,2.747l9.9-9.735Z" style="fill:#414151"/><path d="M265.46,224.719l-6.4,5.418a97.332,97.332,0,0,1,23.631,20.814l7.078-3.938A103.459,103.459,0,0,0,265.46,224.719Z" style="fill:#696987"/><path d="M319.907,229.248c-9.9-10.692-22.649-18.633-31.976-23.558l-9.9,8.382c5.584,6.838,13.152,17.656,17.081,29.969l7.119-3.961a97.858,97.858,0,0,0-12.923-24.451c7.7,4.466,16.7,10.636,24,18.287l1.679-.934a20.67,20.67,0,0,0,4.131-2.94C319.4,229.78,319.653,229.514,319.907,229.248Z" style="fill:#696987"/><path d="M120.507,290.38H212v26.353a8.848,8.848,0,0,1-8.848,8.848h-73.8a8.848,8.848,0,0,1-8.848-8.848Z" style="fill:#414151"/><path d="M22.219,91.552c8.03,1.046,20.672,3.183,31.367,7.157l-.508-8.654a165.4,165.4,0,0,0-28.849-6.322Q23.116,87.645,22.219,91.552Z" style="fill:#696987"/><path d="M17.324,137.54A92.431,92.431,0,0,1,54.9,121.069l-.767-13.064a117.649,117.649,0,0,0-34.309-3.979c-.426,2.73-.788,5.425-1.09,8.069a114.485,114.485,0,0,1,28.644,2.462A100,100,0,0,0,17.531,127.6C17.383,131.11,17.322,134.444,17.324,137.54Z" style="fill:#696987"/><path d="M162.317,90.458a2.981,2.981,0,0,1-.7-.084l-3.6-.87a2.979,2.979,0,1,1,1.4-5.791l3.6.87a2.979,2.979,0,0,1-.7,5.875Z" style="fill:#d3625f"/><path d="M177.232,90.458a2.979,2.979,0,0,1-.7-5.875l3.6-.87a2.979,2.979,0,1,1,1.4,5.791l-3.6.87A2.981,2.981,0,0,1,177.232,90.458Z" style="fill:#d3625f"/><path d="M62.572,66.64s4.893-4.522,8.707-8.5a6.665,6.665,0,0,0-.116-9.324L61.49,39.149a7.924,7.924,0,0,0-11.965.874,12.993,12.993,0,0,0-.973,12.727l-1.264,1.461Z" style="fill:#ea8b7f"/><path d="M52.623,42.664l-.523.719a8.369,8.369,0,0,0,.977,10.964l1,.96a7.3,7.3,0,0,0-.944.581,9.77,9.77,0,0,0-1.1,14.876l4.748,4.725L68.1,61.916a7.918,7.918,0,0,0-.435-10.625L58.735,42.21A4.017,4.017,0,0,0,52.623,42.664Z" style="fill:#ffc4b6"/><path d="M272.333,259.164l.531-2.745-23.393-18.16-5.436,4.6,10.288,13.481a6.935,6.935,0,0,1-.757,9.255L243,275.56a11.252,11.252,0,0,1-7.043,2.928A15.5,15.5,0,0,0,252.747,278l13.156-9.028A15.462,15.462,0,0,0,272.333,259.164Z" style="fill:#ea8b7f"/><path d="M121.441,259.89,106.21,232.721l-.011.012a33.877,33.877,0,0,1,2.56,14.339c-.125,2.85-.327,6.069-.639,9.363l11.188,5.678A1.61,1.61,0,0,0,121.441,259.89Z" style="fill:#414151"/></svg>