<svg width="1080px" height="1080px" viewBox="-48.5 0 1080 1080" id="Capa_1" data-name="Capa 1" xmlns="http://www.w3.org/2000/svg"><defs><style>.cls-1{fill:#94b7bd;}.cls-2{fill:#fff;}</style></defs><title>fruitsandvegetables</title><path id="Trazado_432" data-name="Trazado 432" class="cls-1" d="M373.69,279.1C331.26,698.63,284.12,660.92,300.62,767c9.82,63.12,106.05,164.47,221.55,127.26C661.23,849.46,674.33,763.82,684.8,698.62c13.69-85.34-122.56-311.12-207.41-419.54C434.36,224.14,378.11,235.17,373.69,279.1Z"/><ellipse id="Elipse_371" data-name="Elipse 371" class="cls-2" cx="387.81" cy="547.79" rx="7.07" ry="11.79"/><ellipse id="Elipse_372" data-name="Elipse 372" class="cls-2" cx="364.24" cy="646.78" rx="7.07" ry="11.79"/><ellipse id="Elipse_373" data-name="Elipse 373" class="cls-2" cx="406.67" cy="764.63" rx="7.07" ry="11.79"/><ellipse id="Elipse_374" data-name="Elipse 374" class="cls-2" cx="354.81" cy="741.05" rx="7.07" ry="11.79"/><ellipse id="Elipse_375" data-name="Elipse 375" class="cls-2" cx="463.23" cy="741.05" rx="7.07" ry="11.79"/><ellipse id="Elipse_376" data-name="Elipse 376" class="cls-2" cx="439.67" cy="825.91" rx="7.07" ry="11.79"/><ellipse id="Elipse_377" data-name="Elipse 377" class="cls-2" cx="430.24" cy="675.06" rx="7.07" ry="11.79"/><path id="Trazado_433" data-name="Trazado 433" d="M352.46,191.89c4.71,9.43,16.53,16.46,18.85,28.28,1.67,8.49,4.1,15.94,0,23.57-12.58,23.44-9.43,28.28-23.57,56.57-4.59,9.18-18.28,15.2-28.28,23.56,9.43,9.43,16.4,14.12,28.28,14.15,9.37,0,15.18-13.62,23.57-9.43,12.68,6.34,16.49,18,26.58,27.83a6.81,6.81,0,0,0,11.51-4.57c1.29-18.7-3.63-51.65-5.29-70.29a53.22,53.22,0,0,1,20.38,25.87,2.06,2.06,0,0,0,3.95-.2,120.7,120.7,0,0,0,2.81-41.66,112.92,112.92,0,0,1,35,36.54,4.11,4.11,0,0,0,5.65,1.4,4.26,4.26,0,0,0,1.31-1.26c10.5-15.76,24.2-30.48,42.57-33.51-18.92-3.68-37.16-22.1-54.88-29.69s-35-4.78-44.73-21.44a6,6,0,0,1-1-2.69,6.33,6.33,0,0,1,1.35-3.48L432.87,186c-.28-3.55-.28-3.55-4.64-7.95-9.4,3.8-19.2-.32-28.63-.32-9.28,4.09-18.75,8.16-28.29,4.72Z"/></svg>