<svg width="1080px" height="1080px" viewBox="-48.5 0 1080 1080" id="Capa_1" data-name="Capa 1" xmlns="http://www.w3.org/2000/svg"><defs><style>.cls-1{fill:#fdce51;}.cls-2{fill:#fd6769;}</style></defs><title>fruitsandvegetables</title><path id="Trazado_436" data-name="Trazado 436" class="cls-1" d="M494.56,336.42c-61.1,82.16-229.64,183.29-195.93,351.82,16.29,81.49,168.53,177,168.53,177s59,21.06,82.17,56.88a96.29,96.29,0,0,0,21.06,0l19-61.1s118-130.62,96.92-244.38c-.61-72.82-125.2-219.54-139.77-236.46a5.47,5.47,0,0,1-1.32-3.69c.12-5,.16-17.51-2.17-21.08C536.07,344.71,506.94,333.5,494.56,336.42Z"/><path id="Trazado_437" data-name="Trazado 437" class="cls-2" d="M471.38,157.34c0,21.07-16.86,80.06-16.86,80.06l40,35.81s16.85,63.2,6.32,82.17c2.64,3.9,6.32,2.1,16.85,8.42,2.11-19,16.86-37.92,27.39-48.48,14.84-14.84,82.16-10.53,82.16-10.53L677.84,250s-54-22.17-71.63-16.86c-20.43,6.16-40,31.61-71.63,46.35a130.47,130.47,0,0,0-4.24-71.63C523.9,189.59,488.23,165.77,471.38,157.34Z"/></svg>