<svg width="1080px" height="1080px" viewBox="-48.5 0 1080 1080" id="Capa_1" data-name="Capa 1" xmlns="http://www.w3.org/2000/svg"><defs><style>.cls-1{fill:#f7ffde;}.cls-2{fill:#94b7bd;}.cls-3{fill:#fed9db;}.cls-4{fill:#fd6769;}.cls-5{fill:#fdce51;}</style></defs><title>fruitsandvegetables</title><path id="Trazado_649" data-name="Trazado 649" class="cls-1" d="M356.84,396l-47.15,87.57-26.95,60.62,37.05,37,50.52,84.2,87.57,26.95h64l97.67,37.05,64-27,114.51-67.36v-94.3l-30.31-57.26L727.32,372.43l-80.83-53.89h-192L393.9,352.22Z"/><path id="Path_402" data-name="Path 402" class="cls-2" d="M177.79,441.11s-21.08-4.88-18.58,9.11,29.11,49.66,29.11,49.66S236,540.42,266,546.6s98.36,17,115.16,14,66.65-14.84,87-30.05,51.74-49.71,59.92-68.51,25.85-65.28,26.93-91.47,1.16-58-.35-66.37l-5-28s-21.6-7.68-19.59,3.51S201.68,445.48,201.68,445.48Z"/><path id="Path_403" data-name="Path 403" class="cls-3" d="M177.79,441.11S298.79,367.83,343,348c43.95-19.77,187.56-65.4,187.56-65.4s.79-11.69,3.51,19.59-5,84.66-5,84.66,3.22,34.09-26.63,77-42.34,53.8-72.62,62.12-91.84,19.35-129.42,3-79.78-26.13-97.28-43.21S177.79,441.11,177.79,441.11Z"/><ellipse id="Ellipse_358" data-name="Ellipse 358" cx="403.82" cy="432.24" rx="5.69" ry="11.16" transform="translate(-160.45 254.77) rotate(-29.49)"/><ellipse id="Ellipse_359" data-name="Ellipse 359" cx="316.07" cy="442.19" rx="5.69" ry="11.16" transform="translate(-176.72 212.87) rotate(-29.49)"/><ellipse id="Ellipse_360" data-name="Ellipse 360" cx="368.52" cy="412.57" rx="5.69" ry="11.16" transform="translate(-155.35 234.85) rotate(-29.49)"/><ellipse id="Ellipse_361" data-name="Ellipse 361" cx="360.55" cy="448.66" rx="5.69" ry="11.16" transform="translate(-174.14 235.6) rotate(-29.49)"/><ellipse id="Ellipse_362" data-name="Ellipse 362" cx="412.29" cy="398.95" rx="5.69" ry="11.16" transform="matrix(0.87, -0.49, 0.49, 0.87, -142.97, 254.63)"/><path id="Path_427" data-name="Path 427" class="cls-4" d="M496.84,505c.43-42.69,14.53-68.08,80.85-87.93a67.84,67.84,0,0,1,44,2.2c65.32,29.46,109.2,59.09,102.84,107.8-3.54,27.1-22.59,60.4-43.45,76.95-22.71,18-48.61,20.76-81.38,17.59-6.9-.67-15.53-.5-22-2.2C525.3,605.62,496.31,557.82,496.84,505Z"/><path id="Path_428" data-name="Path 428" class="cls-2" d="M671.16,422.55s8.8,0,33-37.38c-13.19,11-56.08,16.49-56.08,16.49a284.23,284.23,0,0,1,7.68-49.48c-10,0-22,8.79-27.81,28.84l-3,15.14s-61.58-17.6-72.58-2.2c22,2.2,44,15.39,44,15.39-48.25,11.22-53.83,27.08-59.38,30.8,28.59-13.2,17.6-13.2,73.68-9.9,7.15,17.87,2.2,39.58-5.69,56.33a62,62,0,0,0,1.29,16.25c20.9-14.3,41.79-63.79,41.79-63.79s19.79,6.6,55,48.39C709.65,463.24,671.16,422.55,671.16,422.55Z"/><path id="Path_404" data-name="Path 404" class="cls-5" d="M448.47,500c-3.65-6.09-10.69-11-17.11-9.5-2.24.54-4.47,3.8-6.37,5.4a32,32,0,0,0-10.17,16.7c-5.93,22.08-9.29,62-21.16,84.93s-29.26,60.31-52.17,69.67a447.82,447.82,0,0,1-48.85,16.07l-.73.16c-2.49.4-18,3.19-23.86,11a19.64,19.64,0,0,0-4.71,8.84,10,10,0,0,0,2.65,8.7,61.93,61.93,0,0,0,39.89,13.41c27.17-.87,66.66-.47,82.36-7.28s43.28-25.93,53.88-47.16A227.9,227.9,0,0,0,465,587.24c1.67-30.58-4.16-39.5-7.27-61.14A70.24,70.24,0,0,0,448.47,500Z"/><path id="Path_405" data-name="Path 405" d="M432.84,494.06c5.44,21.91,9.06,41.75,8.18,64.48-.86,22.22-8.77,42.94-18.65,62.59a173.17,173.17,0,0,1-32.8,47.18C375,682.48,356.78,691,337.35,696.4c-22.73,6.3-47.59,7.56-71,9.13a11.17,11.17,0,0,0,0,2.83c41.27-2.75,88.19-2.9,121.28-30.84a159.82,159.82,0,0,0,36.44-47.66C434.41,610.47,443.1,590,445.77,568c3.17-26.18-5-51.66-11.22-77a3.26,3.26,0,0,0-1.89.95Z"/><path id="Path_406" data-name="Path 406" class="cls-5" d="M454.13,489.22c-8.17-3.35-18.86-3-24.13,3.3-1.84,2.21-1.62,7.13-2.33,10.13A39.85,39.85,0,0,0,430,526.87c10.57,26.43,37,68.7,42.27,100.41s15.86,81.91,0,108.32a557.81,557.81,0,0,1-36.67,52.45,8.17,8.17,0,0,1-.62.7c-2.17,2.26-15.55,16.63-15.55,28.76a24.23,24.23,0,0,0,1.91,12.35c2.75,4.12,5.85,6.65,9.12,6.68a77.08,77.08,0,0,0,49.74-16.38c26.42-21.14,66.06-50.2,76.63-68.7s23.77-58.13,18.49-87.19-18.49-68.7-39.63-100.41-33.61-36.25-52.85-55.48A87.48,87.48,0,0,0,454.13,489.22Z"/><path id="Path_407" data-name="Path 407" d="M443.25,508.41c32,29.08,59.2,69.66,71.44,111.14,13,44.17,10.49,94.32-13.23,135-13,22.29-59.46,60.5-77.29,78.93l1.58,1.58c18.5-10.57,64.55-53.19,77.49-73.18a152.76,152.76,0,0,0,23.53-66c5.34-46.17-10.21-94.62-33.25-134.52-12.6-21.82-29-38.53-44.83-58.13a74.34,74.34,0,0,0-16.05-13.32L430,492.51Z"/><path id="Path_408" data-name="Path 408" d="M430,492.53l-18.53-7.94,5.3-13.23,18.52-5.29-2.65,23.81Z"/><path id="Trazado_650" data-name="Trazado 650" d="M691.49,676.71c33.3-3.87,66.79-7,101.23-3.17,9.51,1.05,19.39-.69,28.93,0,3.48.25,2.92-2.38-.53-2.63a862.77,862.77,0,0,0-101.19-1.39c-9.55.43-18.88,3.28-28.41,4-3.47.27-3.5,3.45,0,3.17Z"/><path id="Trazado_651" data-name="Trazado 651" d="M282.39,250.65c20.86-3.42,41.84-6.06,63.52-1.79,6,1.17,12.16-.43,18.17.39,2.18.3,1.79-2.34-.38-2.64a341.88,341.88,0,0,0-63.55-2.76c-6,.3-11.82,3-17.79,3.63-2.17.23-2.15,3.4,0,3.17Z"/></svg>