<svg width="1080px" height="1080px" viewBox="-48.5 0 1080 1080" id="Capa_1" data-name="Capa 1" xmlns="http://www.w3.org/2000/svg"><defs><style>.cls-1{fill:#fdce51;}.cls-2{fill:#94b7bd;}</style></defs><title>fruitsandvegetables</title><path id="Trazado_430" data-name="Trazado 430" class="cls-1" d="M734.52,842.51C656.74,665.73,821.73,543.17,777,460.68c-8.49-15.67-49.5,2.36-63.64-11.79C669,404.61,732.17,274.48,649.68,253.27c-19.5-5-56.52,35.23-75.42,28.28-22.77-8.38-24.94-75-47.14-84.84-18.82-8.33-59.57,18.09-80.14,18.85-22.65.84-68.81-23.24-89.56-14.14-15.56,6.82-25.09,45.19-37.71,56.56-18.79,17-87.21,25.93-96.64,63.63-6.91,27.65,35.94,72.23,21.21,96.64-7.17,11.87-54.42,60.19-44.78,96.63,11.2,42.34,28.28,61.28,73.06,115.49,13.53,16.36-19.67,48.62-11.78,68.35,47.14,117.84,282.83-18.86,412.46,186.19C703.89,863.72,713.31,854.29,734.52,842.51Z"/><path id="Trazado_431" data-name="Trazado 431" class="cls-2" d="M682.27,824.7c-17.73-26.6-35.65-60.5-60.88-107.11L617.24,711c-5.89-46.17,9.09-85.52,23-120.65,9.69-24.54,18.85-46.18,18.85-66H654.4c0,18.92-14,41.91-23.56,66A246.52,246.52,0,0,0,611.66,702c-13.17-24.45-26.95-50.39-41-76.85-14.23-26.79-28.92-54.45-43.74-82h.2c0-26.42,20.45-63.82,37.71-99,17.5-35.64,33-71.48,33-99h-4.72c0,26.42-17.85,62.78-35.11,98-16,32.5-32.81,59.39-35.59,85.89C500,487.48,477.78,453.05,456,415.9h.45c0-12.9,7.31-28.09,15.05-44.18,10.15-21.08,22.66-38.31,17.95-66.6l-4.7,2.65c2.54,20.28-9,42.88-18.87,63.35a134.36,134.36,0,0,0-13.62,38.42c-20.3-34.3-39.79-65-57.57-89.31l-9,3.75a1456,1456,0,0,1,96,146.43,402.21,402.21,0,0,0-58.3-35.66c-41.24-19.21-93.68-38.3-99.09-57.21l-4.53,1.29c3.18,11.47,19.33,21.3,38.68,34.54,15.36,10.5,35.44,17.49,57.25,28.35,29.16,14.54,55,28.9,69.84,37.31l3.83,7.59c26.18,54.16,38.79,69,77.09,140.77,3.88,7.27,7.71,14.55,11.51,21.73-19.61-12-55-23.89-93.32-35.23-54.73-16.18-119.56-34-127.4-57.31l-9.31.75c8.56,25.65,72.53,43.69,132,61.27,42.42,18.86,85.32,25.46,101.65,38.73l2.06,3.7c37.16,69.87,64.84,127.9,89.56,165Z"/></svg>