<svg width="1080px" height="1080px" viewBox="-48.5 0 1080 1080" id="Capa_1" data-name="Capa 1" xmlns="http://www.w3.org/2000/svg"><defs><style>.cls-1{fill:#fed9db;}.cls-2{fill:#f7ffde;}.cls-3{fill:#fdce51;}.cls-4{fill:#94b7bd;}.cls-5{fill:#fd6769;}</style></defs><title>fruitsandvegetables</title><path id="Trazado_632" data-name="Trazado 632" class="cls-1" d="M695.14,437.81l-62.6-52.06-33.94-21-59.49-15.11-13.43,4.19L454,346.77,414,374l-32.26,24.82-87.55,56.84-44,74.83L206.07,578l59.72,137.2,84.9,83L407.77,873l97.87-30.58,94-29.37,119.09-9.83,22.43-42.82,12.47-88.14,23.28-87.32-10.55-81Z"/><polygon class="cls-2" points="698.39 589.29 679.78 572.23 639.46 572.23 600.69 579.99 592.93 589.29 608.44 609.45 645.66 617.21 684.43 609.45 698.39 589.29"/><polygon class="cls-3" points="637.91 583.09 574.32 471.43 552.61 428 540.2 370.62 540.2 330.3 563.47 285.32 596.03 254.31 637.91 245 679.78 254.31 710.8 266.71 751.12 313.24 751.12 372.17 746.47 414.05 701.49 500.89 650.32 583.09 645.66 589.29 637.91 583.09"/><path id="Path_409-2" data-name="Path 409-2" class="cls-2" d="M563,372.19c0-14.18.46-39.26,6.44-51.11a87.42,87.42,0,0,1,78.24-48.16c24.1,0,39.64,10.51,55.48,26.27s23.36,11.68,26.27,55.48c1.05,15.66-8.46,37-14.82,51.93a23.59,23.59,0,0,1-8.5,10.25c-19.55,13.23-30.82,25.41-58.44,25.41-24.86,0-39.53-3.8-55.47-20.44C577.08,406.09,574.65,395.54,563,372.19Z"/><polygon class="cls-2" points="419.24 589.29 400.63 572.23 360.3 572.23 321.53 579.99 313.78 589.29 329.29 609.45 366.51 617.21 405.28 609.45 419.24 589.29"/><polygon class="cls-4" points="358.75 583.09 295.17 471.43 273.45 428 261.05 370.62 261.05 330.3 284.31 285.32 316.88 254.31 358.75 245 400.63 254.31 431.64 266.71 471.97 313.24 471.97 372.17 467.31 414.05 422.34 500.89 371.16 583.09 366.51 589.29 358.75 583.09"/><path id="Path_409-2-2" data-name="Path 409-2" class="cls-2" d="M283.81,372.19c0-14.18.46-39.26,6.44-51.11a87.43,87.43,0,0,1,78.24-48.16c24.11,0,39.64,10.51,55.48,26.27s23.36,11.68,26.28,55.48c1,15.66-8.46,37-14.83,51.93a23.59,23.59,0,0,1-8.5,10.25c-19.54,13.23-30.81,25.41-58.43,25.41-24.86,0-39.53-3.8-55.48-20.44C297.93,406.09,295.49,395.54,283.81,372.19Z"/><polygon class="cls-2" points="555.71 713.36 537.1 696.3 496.78 696.3 458.01 704.06 450.25 713.36 465.76 733.52 502.98 741.28 541.75 733.52 555.71 713.36"/><polygon class="cls-5" points="495.23 707.16 431.64 595.5 409.93 552.07 397.52 494.69 397.52 454.37 420.79 409.39 453.36 378.38 495.23 369.07 537.1 378.38 568.12 390.78 608.44 437.31 608.44 496.24 603.79 538.11 558.81 624.96 507.64 707.16 502.98 713.36 495.23 707.16"/><path id="Path_409-2-3" data-name="Path 409-2" class="cls-2" d="M420.29,496.26c0-14.18.46-39.26,6.44-51.11A87.42,87.42,0,0,1,505,397c24.1,0,39.64,10.51,55.48,26.27s23.36,11.68,26.27,55.48c1,15.66-8.46,37-14.82,51.93a23.59,23.59,0,0,1-8.5,10.25c-19.55,13.23-30.81,25.41-58.44,25.41-24.86,0-39.53-3.81-55.47-20.44C434.4,530.16,432,519.61,420.29,496.26Z"/></svg>