<?xml version="1.0" ?><!DOCTYPE svg  PUBLIC '-//W3C//DTD SVG 1.1//EN'  'http://www.w3.org/Graphics/SVG/1.1/DTD/svg11.dtd'><svg width="513px" height="513px" viewBox="0 0 513 513" style="fill-rule:evenodd;clip-rule:evenodd;stroke-linejoin:round;stroke-miterlimit:2;" version="1.1" xml:space="preserve" xmlns="http://www.w3.org/2000/svg" xmlns:serif="http://www.serif.com/" xmlns:xlink="http://www.w3.org/1999/xlink"><g transform="matrix(1,0,0,1,-588,-614)"><g id="pumpkin-spice-coco" transform="matrix(1.35364,0,0,0.670162,17.0926,112.116)"><rect height="763.994" style="fill:none;" width="378.238" x="421.762" y="748.988"/><g transform="matrix(1,0,0,1,-10.7206,-8.2874)"><g transform="matrix(0.788175,-0.0324308,0.0158643,1.57302,-534.926,-1167.14)"><path d="M1573.73,1445.28C1587.18,1445.69 1599.21,1455.32 1607.28,1465.32C1611.04,1469.98 1614.42,1474.97 1617.15,1480.3C1617.15,1480.3 1618.78,1485.4 1615.89,1488.25C1612.89,1491.21 1607.36,1490.41 1605.16,1486.23C1604.74,1485.41 1604.67,1485.31 1604.48,1484.96C1596.41,1470.62 1583.93,1455.5 1568.48,1459.3C1562.8,1460.7 1557.88,1464.53 1553.72,1468.77C1553.72,1468.77 1551.99,1470.31 1550.21,1470.65C1546.04,1471.44 1541.63,1467.31 1542.42,1462.83C1542.98,1459.65 1546.02,1457.37 1548.76,1455.06C1555.62,1449.29 1564.09,1445.25 1573.07,1445.26C1573.29,1445.27 1573.51,1445.27 1573.73,1445.28Z" style="fill:white;fill-opacity:0.24;"/></g><g transform="matrix(2.15284,-0.0885821,0.0248156,2.46059,-2816.15,-2548.16)"><path d="M1572.47,1541.71C1572.47,1541.71 1563.24,1467.63 1567.45,1459.73C1573.5,1448.4 1581.6,1432.81 1593.61,1427.72C1613.99,1419.08 1625.71,1435.54 1625.71,1435.54C1646.83,1441.61 1677.68,1574.69 1631.43,1624.41C1618.92,1637.87 1517.82,1679.23 1508.44,1627.54C1498.77,1574.23 1513.23,1539.41 1526.3,1532.24C1542.8,1523.2 1565.63,1547.06 1572.47,1541.71Z" style="fill:rgb(255,210,169);"/></g><g transform="matrix(0.807891,0.181189,-0.0865274,1.53019,-431.585,-1394.19)"><path d="M1573.92,1412.23C1573.92,1412.23 1594.21,1395.81 1612.12,1431.01C1630.03,1466.2 1612.39,1513.28 1595.68,1530.28C1586.78,1539.35 1581.69,1541.3 1581.69,1541.3L1579.97,1506.14C1579.97,1506.14 1589.57,1507.32 1593.62,1497.42C1598.36,1485.85 1598.15,1450.35 1593.38,1441.17C1590.68,1435.96 1578.12,1443.04 1578.12,1443.04L1573.92,1412.23Z" style="fill:rgb(200,127,61);"/></g><g transform="matrix(0.807891,0.181189,-0.0865274,1.53019,-419.113,-1387.76)"><path d="M1296.22,1392.48C1296.22,1392.48 1312.57,1620.01 1352.92,1656.65C1393.26,1693.3 1522.03,1680.47 1551.33,1633.16C1580.62,1585.85 1558.03,1360.04 1558.03,1360.04C1558.03,1360.04 1559.31,1345.06 1536.45,1335.84C1479.89,1313.03 1295.8,1325.29 1296.22,1392.48Z" style="fill:rgb(243,183,129);"/></g><g transform="matrix(0.585786,-0.0241032,0.0144976,1.43751,-242.93,-992.76)"><path d="M1564.76,1429.04C1575.46,1424.08 1621.91,1398.18 1615.88,1407.87C1606.91,1422.28 1589.16,1624.34 1587.9,1632.77L1587.89,1632.85C1586.17,1640.4 1583.94,1647.82 1581.11,1655.06L1581.07,1655.16C1577.45,1663.17 1573.11,1670.83 1568.05,1677.95C1557.77,1692.3 1543.38,1703.76 1526.97,1711.34C1519.62,1714.74 1493.83,1713.39 1485.71,1715.03C1467.68,1717.64 1526.09,1672.65 1543.88,1607.01C1562.91,1536.77 1543.5,1438.88 1564.76,1429.04Z" style="fill:rgb(200,127,61);"/></g><g transform="matrix(0.699093,-0.0287653,0.0156383,1.55062,1.68203,-189.847)"><path d="M737.693,733.836C707.523,747.984 686.561,778.623 723.345,796.423C771.507,819.728 911.515,825.034 982.4,801.319C1004.35,793.977 1012.8,787.07 1015.08,773.121C1021.7,732.46 909.121,713.63 825.736,718.876C781.775,721.641 746.199,729.847 737.693,733.836Z" style="fill:white;"/></g><g transform="matrix(0.695169,0.155909,-0.06337,1.12066,-293.919,-773.307)"><path d="M1298.16,1395.97C1312.88,1428.09 1564.81,1399.52 1563.48,1355.34C1561.26,1281.35 1263.62,1320.57 1298.16,1395.97Z" style="fill:rgb(189,152,137);"/></g><g transform="matrix(0.69291,-0.0657656,0.0272519,1.15554,-415.707,-514.085)"><path d="M1546.85,1403.05C1544.96,1396.72 1522.23,1386.59 1523.27,1388.48C1523.25,1377.33 1523.1,1366.25 1516.6,1358.79C1516.89,1353.34 1484.98,1342.66 1488.78,1339.88C1502.82,1329.6 1570.66,1363.28 1567.58,1391C1566.85,1397.52 1547.22,1411.28 1546.85,1403.05Z" style="fill:rgb(113,42,14);fill-opacity:0.59;"/></g><g transform="matrix(0.877459,0.196792,-0.0803758,1.4214,-517.004,-1365.4)"><path d="M1332.37,1488.79C1332.37,1488.79 1328.59,1478.7 1350.41,1466.88C1369.95,1456.29 1409.74,1443.34 1496.05,1450.83C1556.41,1456.07 1479.94,1476.81 1479.94,1476.81C1426.57,1488.89 1378.7,1492.64 1332.37,1488.79Z" style="fill:rgb(119,55,55);"/></g><g transform="matrix(0.573207,0.128556,-0.0605265,1.07038,-109.239,-734.116)"><path d="M1305.92,1402.47C1305.92,1402.47 1300.53,1397.09 1319.35,1380.63C1329.7,1371.57 1326.85,1371.33 1329.58,1364.44C1329.74,1364.03 1320.65,1365.5 1323.26,1340.26C1326.23,1311.45 1372.81,1285.87 1392.68,1280.9C1393.32,1280.74 1399.71,1279.7 1396.23,1283.69C1392.63,1287.8 1391.85,1300.95 1398.92,1304.48C1406.52,1308.28 1453.68,1302.55 1479.87,1319.97C1486.86,1324.62 1496.14,1339.36 1492.37,1361.04C1490.24,1373.31 1515.94,1380.37 1524.46,1381.67C1542.98,1384.5 1578.67,1407.42 1587.19,1433.5C1589.72,1441.2 1517.51,1470.5 1496.86,1478.98C1449.02,1498.63 1308.49,1499.92 1286.21,1489.6C1271.6,1482.84 1237.74,1466.31 1245.64,1449.08C1256.58,1425.24 1302.31,1402.47 1305.92,1402.47Z" style="fill:white;"/></g></g><g transform="matrix(1,0,0,1,-10.7206,-8.2874)"><g transform="matrix(0.738747,0,0,1.49218,-12.6271,-167.296)"><path d="M744.821,725.689C766.107,718.624 783.981,719.057 783.668,716.568C782.246,705.267 785.512,692.361 798.227,678.729C806.928,669.4 817.887,661.477 836.188,658.065C844.505,656.514 852.988,654.26 851.123,658.541C849.695,661.821 848.392,664.41 847.407,667.659C844.173,678.332 902.544,679.708 913.701,699.739C920.444,711.847 919.193,714.712 919.776,717.5C920.332,720.16 970.37,725.777 991.626,749.994C1000.89,760.548 998.189,764.103 998.234,777.531C998.284,792.899 997.063,796.391 996.602,811.395C997.076,811.375 1015.08,814.252 1024.68,825.865C1037.29,841.108 1036.71,858.887 1034.21,878.004C1031.13,901.472 1020.12,923.068 1009.57,935.473C1003.74,942.327 996.373,947.623 987.709,950.918C986.185,962.164 983.46,979.778 981.278,990.999C978.183,1006.91 975.113,1023.5 967.916,1037.57C1023.32,1063.86 981.457,1079.57 956.297,1082.92C888,1092 706,1086 704,1070.75C702.822,1061.77 715.475,1049.11 728.653,1048.68C712.711,1029.75 709.449,1001.35 706.252,978.906C699.515,931.62 698.757,883.678 699.111,836.122C699.283,813.01 699.637,767.831 699.657,767.662C700.816,757.764 706,738.575 744.821,725.689ZM743.794,1011.65C740.527,1027.58 762.975,957.165 767.334,939.758C773.097,916.749 784.012,906.902 803.683,892.925C814.825,885.007 828.311,880.369 837.389,869.701C840.349,866.222 855.896,865.871 855.501,867.082C849.963,877.721 838.892,894.937 841.227,907.983C843.185,918.92 852.677,931.697 849.971,943.069C847.899,951.774 841.615,960.839 836.916,968.137C830.869,977.531 826.355,987.65 818.326,995.536C815.578,998.235 799.13,1002.11 796.085,1004.64C797.354,1004.23 761.75,1017.93 763.05,1017.95C769.573,1018.04 835.416,1001.83 836.969,1001.24C848.475,996.853 864.497,998.87 876.207,1004.74C878.024,1005.65 889.139,1010.24 889.884,1012.4C890.78,1015 884.064,1017.21 882.788,1018.04C875.49,1022.8 869.736,1030.53 863.453,1036.5C853.387,1046.05 847.045,1060.92 835.024,1068.26C834.02,1068.88 833.012,1069.45 831.999,1069.98C863.654,1072.32 896.217,1074.33 925.351,1062.21C937.691,1057.07 953.729,1047.05 960.518,1034.11C968.111,1019.64 971.518,996.678 974.372,980.444C985.459,917.383 990.01,794.479 990.129,790.024C989.489,791.383 970.475,799.896 959.917,804.414C947.913,809.551 894.053,820.24 863.098,820.476C752.793,821.318 713.778,800.717 707.993,790.753C707.615,832.154 707.786,862.9 710.87,904.407C712.254,899.652 713.206,895.715 718.051,890.32C719.731,888.448 723.578,882.585 726.183,881.966C727.15,881.736 725.631,892.024 725.306,892.986C723.323,898.877 722.319,907.699 724.573,914.108C732.662,937.122 761.15,926.994 743.794,1011.65ZM988.392,944.654C993.595,942.104 998.432,938.794 1002.58,934.124C1025.27,908.611 1037.66,862.63 1024.16,834.859C1020.11,826.525 1005.94,817.084 995.462,817.109C994.539,817.118 994.686,838.626 994.453,844.122C999.529,843.198 1003.37,843.512 1006.67,846.495C1010.65,850.095 1010.05,857.108 1010.22,862.8C1010.67,878.232 1008.64,890.647 1002.91,904.72C1000.12,911.576 997.408,912.369 990.757,916.495C990.073,924.198 989.293,936.964 988.392,944.654ZM991.794,908.987C992.746,908.177 998.973,908.131 1001.43,894.466C1003.83,881.082 1008.5,862.019 1002.97,852.565C1001.62,850.257 997.139,850.43 995.091,850.77C994.235,870.232 993.271,889.634 991.794,908.987ZM776.881,724.165C738.297,731.099 723.849,742.135 723.084,742.684C714.788,748.639 687.643,777.721 726.85,797.067C746.547,806.786 780.72,811.369 813.465,812.615C917.981,816.591 958.649,803.592 979.908,787.99C1029.9,751.3 926.029,722.59 920.545,722.334C919.732,722.296 920.453,725.973 918.947,728.277C917.815,730.008 962.03,736.734 978.447,761.543C998.412,791.715 900.602,801.995 875.346,803.384C762.149,809.61 732.241,790.625 722.227,783.644C717,780 714.787,769.506 718.487,762.885C723.367,754.153 730.846,743.828 761.568,738.018C762.428,728.413 768.414,728.221 776.881,724.165ZM842.951,663.477C799.008,666.007 781.503,703.625 793.233,714.474C784.41,721.355 793.216,723.148 786.597,726.434C779.556,729.93 773.521,729.148 771.272,736.952C768.698,745.883 766.429,745.871 749.46,753.558C736.927,759.235 729.271,766.486 735.952,779.51C741.122,789.589 759.757,791.511 771.43,793.893C800.57,799.841 838.564,800.497 873.911,798.389C884.888,797.735 986.956,792.636 944.893,754.127C930.835,741.257 908.408,730.96 910.574,728.434C912.783,725.857 912.952,721.262 913,717.695C913.112,709.475 910.959,701.185 904.379,696.776C889.919,687.084 870.905,685.781 853.883,682.924C847.875,681.915 841.365,679.527 840.799,673.041C840.516,669.798 841.535,666.518 843.012,663.556C843.012,663.556 843.214,663.407 842.951,663.477Z" style="fill:rgb(80,0,0);"/></g><g transform="matrix(0.590553,-0.0242993,0.0111747,1.10802,-254.795,-545.177)"><path d="M1382.42,1399.85C1385.48,1402.86 1389.75,1403.71 1389.75,1403.71C1389.75,1403.71 1393.37,1404.17 1391.85,1406.74C1390.44,1409.12 1387.29,1409.66 1385.75,1409.58C1358.9,1408.1 1376.48,1367.42 1387.51,1369.74C1391.65,1370.6 1373.47,1391.05 1382.42,1399.85Z" style="fill:rgb(80,0,0);"/></g><g transform="matrix(0.644487,-0.0265185,0.0129721,1.28625,-317.168,-793.461)"><path d="M1432.61,1391.06C1447.5,1391.37 1459.94,1397.82 1463.4,1398.66C1469.88,1400.22 1471.38,1391.9 1472.69,1388.97C1472.76,1388.8 1476.12,1385.19 1476.44,1388.54C1477.18,1396.37 1470.58,1408.23 1461.81,1405.21C1461.48,1405.1 1437.22,1396.88 1429.65,1402.23C1428.21,1403.25 1426.71,1406.82 1426.71,1406.82C1424.14,1409.63 1420.96,1409.56 1422.07,1402.07C1423.55,1396.65 1426.08,1390.93 1432.61,1391.06Z" style="fill:rgb(80,0,0);"/></g><g transform="matrix(0.644487,-0.0265185,0.0129721,1.28625,-317.168,-793.461)"><path d="M1434.76,1328.79C1438.43,1329.7 1439.11,1331.12 1437.35,1332.67C1435.61,1334.19 1433,1335.3 1430.27,1336.49C1427.98,1337.56 1422.26,1338.79 1422.26,1338.79L1422.3,1338.83C1423.73,1340.34 1422.55,1342.77 1420.72,1342.34C1418.11,1341.72 1417.93,1337.95 1419.72,1334.49C1422.38,1329.37 1430.51,1327.74 1434.76,1328.79Z" style="fill:rgb(80,0,0);"/></g></g></g></g></svg>