<svg width="1080px" height="1080px" viewBox="-48.5 0 1080 1080" id="Capa_1" data-name="Capa 1" xmlns="http://www.w3.org/2000/svg"><defs><style>.cls-1{fill:#fed9db;}.cls-2{fill:#f7ffde;}.cls-3{fill:#fdce51;}.cls-4{fill:#94b7bd;}</style></defs><title>fruitsandvegetables</title><path id="Trazado_632" data-name="Trazado 632" class="cls-1" d="M474.35,357.35,434,323.79,412.1,310.25l-38.36-9.74-8.66,2.7-46.24-4.56L293.09,316.2l-20.8,16-56.46,36.66-28.38,48.25L159,447.73l38.5,88.46,54.75,53.52L289.06,638l63.1-19.71,60.62-18.94L489.57,593,504,565.36l8.05-56.83,15-56.31L520.28,400Z"/><path id="Trazado_633" data-name="Trazado 633" class="cls-2" d="M227,727.16l7,22.43-3.51,9.34L234,781.35H824V716L792.49,729l-40.28,7.47L251.5,727.16Z"/><path id="Trazado_634" data-name="Trazado 634" class="cls-1" d="M609.8,502.43l34.21.83h12.28L666.82,512h22.81l10.53,8.77,8.77,14,8.77,24.56,5.27,8.78,10.52,10.52,15.79,3.51,7,5.27,7,21-1.76,36.85L759.8,671.7,751,682.22l-23.32,3.13L608.9,682.22Z"/><path id="Trazado_635" data-name="Trazado 635" class="cls-3" d="M297.82,444.48H611.89V683.1H275L255.71,479.57l10.53-21.05,8.77-14Z"/><path id="Path_410-2" data-name="Path 410-2" class="cls-4" d="M438.32,734.29c-7.12,0-19.7-.23-25.65-3.23a43.91,43.91,0,0,1-24.18-39.27c0-12.11,5.27-19.9,13.19-27.85s5.86-11.73,27.85-13.19c7.86-.53,18.57,4.24,26.06,7.43a11.79,11.79,0,0,1,5.15,4.27c6.65,9.82,12.76,15.47,12.76,29.34,0,12.48-1.91,19.83-10.26,27.85C455.34,727.2,450,728.42,438.32,734.29Z"/><path id="Path_410-3" data-name="Path 410-3" class="cls-4" d="M693.06,734.29c-7.13,0-19.71-.23-25.66-3.23a43.9,43.9,0,0,1-24.18-39.27c0-12.11,5.28-19.9,13.19-27.85s5.86-11.73,27.85-13.19c7.86-.53,18.57,4.24,26.07,7.43a11.82,11.82,0,0,1,5.14,4.27c6.65,9.82,12.76,15.47,12.76,29.34,0,12.48-1.91,19.83-10.26,27.85C710.07,727.2,704.78,728.42,693.06,734.29Z"/><path id="Trazado_636" data-name="Trazado 636" d="M693.14,575.2c-10.88-14.36-18.95-22.5-29.83-36.85-2-2.67-4.93-1.8-2.88.9l29.29,38.66a118.68,118.68,0,0,0-47.46,2.55c-3.28.78-5.3,2.78-1.91,2.56,18.31-1.23,36.26-2.44,54.54-.8C696.76,582.38,694.31,576.74,693.14,575.2Z"/><path id="Trazado_637" data-name="Trazado 637" d="M285.55,500.27c29.74-3.47,59.67-6.23,90.44-2.83,8.49.93,17.32-.62,25.84,0,3.1.22,2.6-2.13-.48-2.36a772.62,772.62,0,0,0-90.41-1.24c-8.53.39-16.87,2.93-25.38,3.6C282.46,497.68,282.43,500.51,285.55,500.27Z"/><path id="Trazado_638" data-name="Trazado 638" d="M221,527.72c29.75-3.46,59.67-6.23,90.45-2.83,8.48.94,17.32-.62,25.84,0,3.11.22,2.61-2.13-.48-2.35a770.24,770.24,0,0,0-90.4-1.25c-8.54.39-16.87,2.93-25.39,3.6-3.1.24-3.12,3.07,0,2.83Z"/><path id="Trazado_639" data-name="Trazado 639" d="M190.27,558.4c29.75-3.46,54.82-9.45,85.6-6.06,8.49.94-6.9-.62,1.61,0,3.11.22,2.61-2.13-.48-2.35-30.08-2.17-31.21.62-61.34,2-8.53.38-16.87,2.92-25.38,3.59-3.1.24-3.12,3.08,0,2.83Z"/></svg>