<svg width="1080px" height="1080px" viewBox="-48.5 0 1080 1080" id="Capa_1" data-name="Capa 1" xmlns="http://www.w3.org/2000/svg"><defs><style>.cls-1{fill:#fdce51;}.cls-2{fill:#f7ffde;}.cls-3{fill:#100174;}.cls-4{fill:#fd6769;}</style></defs><title>fruitsandvegetables</title><polygon class="cls-1" points="187.72 756.43 177.63 765.62 167.53 782.14 187.72 782.14 380.55 795 733.14 782.14 808.44 795 846.09 736.23 768.04 738.07 670.71 744.5 530.22 756.43 362.19 740.83 307.09 756.43 187.72 756.43"/><path id="Trazado_632" data-name="Trazado 632" class="cls-2" d="M677.89,347.66,635.6,311.83l-22.93-14.44L572.49,287l-9.08,2.89L515,285l-27,18.73-21.79,17.09L407,359.94l-29.74,51.5-29.81,32.68,40.35,94.42,57.36,57.12,38.56,51.51,66.11-21,63.52-20.21,80.45-6.77L709,569.68,717.42,509l15.73-60.09L726,393.2Z"/><path class="cls-3" d="M519.21,657.34H322.86L430.36,488h166.3Zm-171.7-13.55h164L580.4,501.54H437.81Z"/><polygon class="cls-3" points="508.6 653.27 404.55 467.24 417.55 459.96 519.43 642.43 508.6 653.27"/><polygon class="cls-3" points="668.54 647.06 574.5 460.49 587.89 453.94 681.93 640.52 668.54 647.06"/><polygon class="cls-3" points="457.11 440.57 411.05 440.57 370.41 448.7 362.28 460.89 377.18 460.89 404.28 467.67 432.73 467.67 465.24 454.12 457.11 440.57"/><polygon class="cls-3" points="564.14 449.75 573.75 460.49 603.37 461.69 645 461.69 636.19 437.81 604.17 437.81 573.75 437.81 564.14 449.75"/><path class="cls-4" d="M450.22,636.94c-4.27-64.23-15.14-58.1-38.53-81.36-23.23-23.12-46-38.53-81.36-38.53a128.24,128.24,0,0,0-114.74,70.63c-8.77,17.38-9.44,54.16-9.44,75,17.12,34.25,20.69,49.72,42.82,72.78,23.38,24.4,44.9,30,81.36,30,40.5,0,57-17.87,85.69-37.27a34.58,34.58,0,0,0,12.46-15C437.82,691.21,451.75,659.91,450.22,636.94Zm-33.15,36.47c-13.68,22.67-19.42,40.38-47.55,53.37-25.31,11.69-42,14.72-66.11,5.28-22.76-8.92-30.2-18.51-53.08-36.8-6.67-14.44-18-40.2-17.49-55.08a98.12,98.12,0,0,1,57-85.85c24.55-11.34,45.31-7.94,68.86.66s29.28.9,52.85,44.13c8.43,15.46,8.8,41.66,9.33,59.86A26.37,26.37,0,0,1,417.07,673.41Z"/><path class="cls-4" d="M776.55,724.45c42.39-48.45,30.37-51.8,30.28-84.78-.08-32.77-5.29-59.78-30.28-84.78A128.26,128.26,0,0,0,645.47,523.7c-18.49,6.09-45,31.62-59.68,46.33-12.11,36.32-20.52,49.79-21.19,81.75-.71,33.78,10.55,52.94,36.33,78.72,28.65,28.64,53,27.7,87,34.24a34.49,34.49,0,0,0,19.45-1.82C729.4,754.05,761.39,741.77,776.55,724.45Zm-49.23,2.34c-25.71,6.36-42.29,14.82-71.36,4.12-26.17-9.63-40.15-19.33-50.49-43-9.78-22.4-8.26-34.45-11.5-63.56,5.49-14.93,15.69-41.15,26.58-51.31a98.11,98.11,0,0,1,101-20.39c25.37,9.34,37.66,26.42,48.22,49.15s20.07,21.35,6.17,68.58c-5,16.89-23.24,35.68-35.73,48.93A26.35,26.35,0,0,1,727.32,726.79Z"/><path id="Trazado_639" data-name="Trazado 639" d="M179.28,419.67c27.5-.19,51-3.15,78.74,3,7.65,1.71-6.24-1.25,1.47.16,2.81.52,2.59-1.68-.2-2.19-27.24-5-28.55-2.55-56.19-4.32-7.82-.5-15.69,1-23.53.74-2.85-.09-3.16,2.5-.28,2.59Z"/><path id="Trazado_639-2" data-name="Trazado 639" d="M147.52,680.42c13.61-1.71,25.39-6,38.77-1.35,3.69,1.27-3-.9.72.07,1.36.36,1.38-1.81,0-2.16-13.19-3.46-14-1-27.54-1.19-3.85-.06-7.82,1.85-11.68,2-1.41.07-1.7,2.66-.28,2.59Z"/><path id="Trazado_639-3" data-name="Trazado 639" d="M226.57,453.69c33.38-.07,61.88-3.38,95.61,4,9.3,2-7.59-1.49,1.79.2,3.41.61,3.13-1.94-.26-2.55-33.1-6-34.68-3.14-68.24-5.35-9.51-.63-19.05,1.06-28.56.73-3.47-.12-3.83,2.89-.33,3Z"/><path id="Trazado_639-4" data-name="Trazado 639" d="M139.34,522.33c33.38.24,61.91-2.81,95.57,4.84,9.29,2.11-7.57-1.56,1.79.21,3.41.65,3.15-1.91-.24-2.55-33-6.27-34.64-3.45-68.18-6-9.5-.71-19.06.89-28.57.47-3.47-.15-3.85,2.85-.36,3Z"/></svg>