<svg width="1080px" height="1080px" viewBox="-48.5 0 1080 1080" id="Capa_1" data-name="Capa 1" xmlns="http://www.w3.org/2000/svg"><defs><style>.cls-1{fill:#fed9db;}.cls-2{fill:#94b7bd;}</style></defs><title>fruitsandvegetables</title><path id="Trazado_427" data-name="Trazado 427" class="cls-1" d="M246.87,577.6c.93-91.51,31.14-145.92,173.28-188.47a145.51,145.51,0,0,1,94.27,4.71c140,63.14,234,126.66,220.41,231-7.58,58.1-48.42,129.46-93.13,164.93C593,828.42,537.52,834.32,467.28,827.52c-14.78-1.43-33.29-1.07-47.14-4.71C307.86,793.25,245.73,690.79,246.87,577.6Z"/><path id="Trazado_428" data-name="Trazado 428" class="cls-2" d="M620.49,400.89s18.85,0,70.71-80.14C662.91,344.32,571,356.1,571,356.1a608.08,608.08,0,0,1,16.48-106c-21.53,0-47.15,18.85-59.61,61.81l-6.39,32.45s-132-37.71-155.55-4.72c47.14,4.72,94.27,33,94.27,33-103.4,24.05-115.34,58-127.26,66,61.28-28.29,37.71-28.29,157.91-21.21,15.32,38.3,4.72,84.84-12.19,120.73a133,133,0,0,0,2.77,34.82C526.2,542.29,571,436.23,571,436.23s42.42,14.14,117.85,103.7C703,488.1,620.49,400.89,620.49,400.89Z"/></svg>