<?xml version="1.0" encoding="iso-8859-1"?>
<!-- Uploaded to SVGRepo https://www.svgrepo.com -->
<svg version="1.1" id="Capa_1" xmlns="http://www.w3.org/2000/svg" xmlns:xlink="http://www.w3.org/1999/xlink" x="0px" y="0px"
	 viewBox="0 0 512 512" style="enable-background:new 0 0 512 512;" xml:space="preserve">
<g>
	<g>
		<path style="fill:#E84649;" d="M449.637,433.766l21.184,18.773c7.173,6.356,2.677,18.209-6.907,18.209H348.887
			c-5.752,0-10.415-4.663-10.415-10.415v-65.872h126.648c9.429,0,14.005,11.531,7.14,17.996L449.637,433.766z"/>
		<path style="fill:#D73337;" d="M400.397,394.461v17.007c0,13.778-11.206,24.995-24.995,24.995h-36.93v-42.002H400.397z"/>
		<path style="fill:#E84649;" d="M173.527,394.461v65.872c0,5.752-4.663,10.415-10.415,10.415H48.086
			c-9.584,0-14.08-11.852-6.907-18.209l21.184-18.773l-22.624-21.309c-6.864-6.465-2.289-17.996,7.14-17.996H173.527z"/>
		<path style="fill:#D73337;" d="M111.603,394.461h61.925v42.002h-36.93c-13.789,0-24.995-11.216-24.995-24.995V394.461z"/>
	</g>
	<g>
		<g>
			<path style="fill:#83B832;" d="M374.481,385.758c-2.911,0-5.699-1.653-7.009-4.467c-1.802-3.868-0.126-8.464,3.742-10.266
				c33.86-15.77,58.795-38.031,74.11-66.165c12.287-22.572,18.538-49.087,18.578-78.806c0.07-51.416-18.694-95.031-18.883-95.466
				c-1.706-3.909,0.078-8.463,3.987-10.171c3.907-1.708,8.46,0.071,10.17,3.979c0.823,1.878,20.137,46.626,20.179,101.189
				c0.04,51.131-17.557,120.3-101.618,159.448C376.683,385.524,375.572,385.758,374.481,385.758z"/>
			<g>
				<path style="fill:#BDEB73;" d="M452.432,67.648c8.582,24.851,10.865,60.983-0.37,64.863
					c-11.236,3.88-31.736-25.96-40.318-50.811c-8.582-24.851-1.997-35.303,9.239-39.183
					C432.218,38.636,443.849,42.797,452.432,67.648z"/>
			</g>
			<g>
				<path style="fill:#9AD63B;" d="M452.058,132.506c-2.614,0.906-5.738-0.021-9.102-2.291c3.583-13.039,0.687-37.805-5.707-56.322
					c-6.79-19.652-15.486-26.359-24.391-26.39c2.187-2.291,4.968-3.905,8.123-4.989c11.237-3.874,22.87,0.281,31.452,25.13
					C461.015,92.504,463.296,128.632,452.058,132.506z"/>
			</g>
			<g>
				<path style="fill:#8EC737;" d="M472.044,228.944c-5.186,3.833-15.945-0.989-27.192-9.571
					c-9.488-7.248-19.329-17.163-26.484-26.838c-15.632-21.152-12.477-33.087-2.916-40.158c9.29-6.863,21.214-6.592,36.232,12.851
					c0.437,0.552,0.864,1.125,1.302,1.719C468.607,188.088,481.604,221.873,472.044,228.944z"/>
				<path style="fill:#83B832;" d="M472.044,228.944c-5.186,3.833-15.945-0.989-27.192-9.571c-0.615-4.437-0.792-9.446-0.531-15.007
					c0.573-12.393,3.281-26.64,7.363-39.138c0.437,0.552,0.864,1.125,1.302,1.719C468.607,188.088,481.604,221.873,472.044,228.944z
					"/>
				<path style="fill:#BDEB73;" d="M467.238,164.96c-9.264,24.605-12.543,60.66-1.419,64.848
					c11.125,4.189,32.44-25.075,41.704-49.68c9.264-24.605,2.97-35.234-8.155-39.423
					C488.245,136.517,476.503,140.355,467.238,164.96z"/>
				<path style="fill:#9AD63B;" d="M507.526,180.131c-9.269,24.599-30.577,53.864-41.71,49.677c-2.593-0.968-4.395-3.676-5.53-7.561
					c11.102-7.644,24.787-28.671,31.723-47.084c7.301-19.402,4.936-30.108-1.843-35.826c3.072-0.323,6.165,0.219,9.206,1.364
					C510.494,144.899,516.785,155.522,507.526,180.131z"/>
			</g>
			<g>
				<path style="fill:#8EC737;" d="M445.216,334.912c-6.28,1.479-14.257-7.207-21.204-19.538
					c-5.863-10.394-10.987-23.401-13.747-35.107c-6.02-25.588,1.593-35.326,13.164-38.044c11.258-2.645,22.11,2.312,28.234,26.12
					c0.177,0.677,0.344,1.364,0.51,2.072C458.182,296.014,456.787,332.183,445.216,334.912z"/>
				<path style="fill:#83B832;" d="M445.216,334.912c-6.28,1.479-14.257-7.207-21.204-19.538c1.177-4.322,2.989-8.988,5.426-13.997
					c5.426-11.164,13.539-23.172,22.225-33.035c0.177,0.677,0.344,1.364,0.51,2.072
					C458.182,296.014,456.787,332.183,445.216,334.912z"/>
				<path style="fill:#BDEB73;" d="M466.051,274.221c-18.223,18.952-35.464,50.786-26.896,59.025
					c8.569,8.239,39.702-10.237,57.925-29.189c18.223-18.952,16.634-31.202,8.065-39.441
					C496.577,256.377,484.273,255.27,466.051,274.221z"/>
				<path style="fill:#9AD63B;" d="M497.08,304.054c-18.225,18.954-49.354,37.43-57.926,29.192
					c-1.323-1.271-2.031-3.114-2.208-5.384c13.226-3.885,32.139-16.83,44.814-30.004c17.746-18.454,16.705-30.556,8.727-38.794
					c5.853-0.583,10.664,1.708,14.653,5.551C513.712,272.852,515.306,285.11,497.08,304.054z"/>
			</g>
		</g>
		<g>
			<path style="fill:#83B832;" d="M137.519,385.758c-1.093,0-2.201-0.232-3.257-0.724C50.202,345.885,32.605,276.716,32.645,225.586
				c0.042-54.563,19.356-99.311,20.179-101.189c1.711-3.908,6.265-5.691,10.176-3.979c3.908,1.711,5.69,6.267,3.979,10.176
				c-0.293,0.675-18.952,44.189-18.881,95.461c0.04,29.719,6.292,56.233,18.578,78.806c15.315,28.134,40.249,50.395,74.11,66.165
				c3.868,1.802,5.544,6.397,3.742,10.266C143.218,384.104,140.431,385.758,137.519,385.758z"/>
			<g>
				<path style="fill:#BDEB73;" d="M59.568,67.648c-8.582,24.851-10.865,60.983,0.37,64.863s31.736-25.96,40.318-50.811
					s1.997-35.303-9.239-39.183S68.151,42.797,59.568,67.648z"/>
			</g>
			<g>
				<path style="fill:#9AD63B;" d="M100.256,81.704c-8.582,24.849-29.077,54.687-40.315,50.802c-2.76-0.948-4.707-3.843-5.936-8.05
					c10.935-7.821,24.172-29.39,30.64-48.115c6.478-18.767,4.312-29.327-1.979-35.024c2.77-0.229,5.572,0.24,8.352,1.198
					C102.256,46.399,108.837,56.844,100.256,81.704z"/>
			</g>
			<g>
				<path style="fill:#8EC737;" d="M39.956,228.944c5.186,3.833,15.945-0.989,27.192-9.571c9.488-7.248,19.329-17.163,26.484-26.838
					c15.632-21.152,12.477-33.087,2.916-40.158c-9.29-6.863-21.214-6.592-36.232,12.851c-0.437,0.552-0.864,1.125-1.302,1.719
					C43.393,188.088,30.396,221.873,39.956,228.944z"/>
				<path style="fill:#83B832;" d="M93.632,192.535c-7.155,9.675-16.996,19.59-26.484,26.838
					c-11.248,8.582-22.006,13.404-27.192,9.571c-1.406-1.041-2.333-2.676-2.822-4.749c4.353-1.896,9.259-4.968,14.257-8.779
					c9.488-7.249,19.329-17.163,26.484-26.838c15.382-20.808,12.57-32.702,3.374-39.804c5.738-1.354,10.831,0.302,15.299,3.604
					C106.109,159.448,109.264,171.383,93.632,192.535z"/>
				<path style="fill:#83B832;" d="M39.956,228.944c5.186,3.833,15.945-0.989,27.192-9.571c0.614-4.437,0.792-9.446,0.531-15.007
					c-0.573-12.393-3.281-26.64-7.363-39.138c-0.437,0.552-0.864,1.125-1.302,1.719C43.393,188.088,30.396,221.873,39.956,228.944z"
					/>
				<path style="fill:#BDEB73;" d="M44.762,164.96c9.264,24.605,12.543,60.66,1.419,64.848c-11.125,4.189-32.44-25.075-41.704-49.68
					s-2.97-35.234,8.155-39.423S35.497,140.355,44.762,164.96z"/>
				<path style="fill:#9AD63B;" d="M46.184,229.809c-2.802,1.052-6.249-0.01-9.987-2.593c4.062-12.56,0.479-38.732-6.749-57.925
					c-6.592-17.496-14.424-24.485-22.402-25.557c1.645-1.271,3.53-2.26,5.582-3.031c11.123-4.187,22.87-0.344,32.129,24.255
					C54.026,189.567,57.306,225.622,46.184,229.809z"/>
			</g>
			<g>
				<path style="fill:#8EC737;" d="M66.784,334.912c6.28,1.479,14.257-7.207,21.204-19.538
					c5.863-10.394,10.987-23.401,13.747-35.107c6.02-25.588-1.593-35.326-13.164-38.044c-11.258-2.645-22.11,2.312-28.234,26.12
					c-0.177,0.677-0.344,1.364-0.51,2.072C53.818,296.014,55.213,332.183,66.784,334.912z"/>
				<path style="fill:#83B832;" d="M101.735,280.267c-2.76,11.706-7.884,24.714-13.747,35.107
					c-6.946,12.331-14.924,21.017-21.204,19.538c-2.958-0.698-5.249-3.583-6.926-7.915c4.062-3.468,8.28-9.238,12.164-16.143
					c5.863-10.394,10.987-23.401,13.747-35.107c4.364-18.538,1.562-28.765-4.707-34.014c2.447-0.312,4.968-0.104,7.509,0.489
					C100.141,244.941,107.754,254.679,101.735,280.267z"/>
				<path style="fill:#83B832;" d="M66.784,334.912c6.28,1.479,14.257-7.207,21.204-19.538c-1.177-4.322-2.989-8.988-5.426-13.997
					c-5.426-11.164-13.539-23.172-22.225-33.035c-0.177,0.677-0.344,1.364-0.51,2.072C53.818,296.014,55.213,332.183,66.784,334.912
					z"/>
				<path style="fill:#BDEB73;" d="M45.949,274.221c18.223,18.952,35.464,50.786,26.896,59.025s-39.702-10.237-57.925-29.189
					c-18.223-18.952-16.634-31.202-8.065-39.441S27.727,255.27,45.949,274.221z"/>
				<path style="fill:#9AD63B;" d="M72.845,333.246c-2.739,2.635-7.79,2.541-13.987,0.562c2.302-11.821-12.935-38.367-28.921-54.989
					c-8.748-9.102-16.132-13.57-22.391-14.851c8.529-7.634,20.662-8.196,38.398,10.258C64.17,293.171,81.416,325.008,72.845,333.246
					z"/>
			</g>
		</g>
	</g>
	<path style="fill:#ED6264;" d="M375.407,421.883H136.593c-5.752,0-10.415-4.663-10.415-10.415v-76.383
		c0-5.752,4.663-10.415,10.415-10.415h238.814c5.752,0,10.415,4.663,10.415,10.415v76.383
		C385.822,417.22,381.159,421.883,375.407,421.883z"/>
	<path style="fill:#E84649;" d="M385.817,335.088v76.38c0,5.749-4.655,10.415-10.414,10.415H350.96
		c5.759,0,10.415-4.666,10.415-10.415v-76.38c0-5.759-4.655-10.415-10.415-10.415h24.443
		C381.162,324.673,385.817,329.329,385.817,335.088z"/>
	<g>
		<path style="fill:#FFDBAA;" d="M294.746,318.66c0,9.538-3.453,18.286-9.174,25.036c-7.115,8.384-17.724,13.709-29.572,13.709
			c-11.847,0-22.457-5.326-29.572-13.709c-5.721-6.751-9.174-15.498-9.174-25.036c0-21.396,17.35-38.746,38.746-38.746
			S294.746,297.264,294.746,318.66z"/>
		<path style="fill:#FFC26D;" d="M294.746,318.66c0,9.538-3.453,18.286-9.174,25.036L256,328.146l-29.572,15.55
			c-5.721-6.751-9.174-15.498-9.174-25.036c0-21.396,17.35-38.746,38.746-38.746S294.746,297.264,294.746,318.66z"/>
		<g>
			<g>
				<path style="fill:#FFCE8B;" d="M375.523,212.321l-50.52,49.229l11.925,69.529c1.784,10.413-9.139,18.346-18.499,13.437
					L256,311.697l-62.429,32.82c-9.36,4.909-20.283-3.024-18.499-13.437l6.455-37.644l5.47-31.885l-50.52-49.229
					c-7.56-7.372-3.38-20.232,7.067-21.744l69.801-10.141l31.223-63.261c4.672-9.479,18.193-9.479,22.865,0l31.223,63.261
					l23.256,3.38l46.545,6.761C378.904,192.089,383.083,204.949,375.523,212.321z"/>
				<path style="fill:#FFB54E;" d="M375.523,212.321l-50.52,49.229l11.925,69.529c1.784,10.413-9.139,18.346-18.499,13.437
					L256,311.697l-62.429,32.82c-9.36,4.909-20.283-3.024-18.499-13.437l6.455-37.644c96.879-17.684,129.597-70.871,140.384-109.62
					l46.545,6.761C378.904,192.089,383.083,204.949,375.523,212.321z"/>
			</g>
		</g>
	</g>
	<path style="fill:#FFCE8B;" d="M316.961,392.959H195.039c-4.268,0-7.726-3.459-7.726-7.726s3.459-7.726,7.726-7.726h121.922
		c4.268,0,7.726,3.459,7.726,7.726S321.228,392.959,316.961,392.959z"/>
</g>
<g>
</g>
<g>
</g>
<g>
</g>
<g>
</g>
<g>
</g>
<g>
</g>
<g>
</g>
<g>
</g>
<g>
</g>
<g>
</g>
<g>
</g>
<g>
</g>
<g>
</g>
<g>
</g>
<g>
</g>
</svg>
