<?xml version="1.0" encoding="iso-8859-1"?>
<!-- Uploaded to SVGRepo https://www.svgrepo.com -->
<svg version="1.1" id="Capa_1" xmlns="http://www.w3.org/2000/svg" xmlns:xlink="http://www.w3.org/1999/xlink" x="0px" y="0px"
	 viewBox="0 0 512 512" style="enable-background:new 0 0 512 512;" xml:space="preserve">
<g>
	<g>
		<g>
			<path style="fill:#FFDBAA;" d="M334.824,32.295C292.325,31.285,312.788,0,255.999,0c-56.788,0-36.326,31.285-78.825,32.295
				c-42.499,1.009,36.928,89.819,36.928,89.819h83.793C297.896,122.114,377.322,33.304,334.824,32.295z"/>
			<path style="fill:#FFC26D;" d="M297.9,122.111h-22.121c0,0,64.94-72.607,49.814-90.642c2.703,0.454,5.757,0.743,9.235,0.825
				C377.326,33.306,297.9,122.111,297.9,122.111z"/>
			<path style="fill:#FFC26D;" d="M269.488,129.84H242.51c-3.444,0-6.472-2.279-7.425-5.589
				c-0.456-1.585-11.214-39.105-14.949-65.923c-0.589-4.226,2.36-8.13,6.587-8.718c4.232-0.592,8.13,2.361,8.718,6.588
				c2.76,19.814,9.794,46.691,12.937,58.189h15.241c3.143-11.501,10.179-38.389,12.936-58.189c0.589-4.227,4.496-7.177,8.718-6.588
				c4.226,0.589,7.176,4.492,6.588,8.718c-3.734,26.818-14.492,64.338-14.949,65.923C275.96,127.561,272.932,129.84,269.488,129.84z
				"/>
			<path style="fill:#FFDBAA;" d="M368.442,219.39c-23.306-24.465-43.253-51.884-58.655-81.858H202.211
				c-15.402,29.975-35.35,57.394-58.655,81.858c-24.261,25.467-39.155,59.936-39.155,97.887v110.895
				c0,29.641,24.029,53.671,53.671,53.671h195.855c29.641,0,53.671-24.029,53.671-53.671V317.277
				C407.597,279.326,392.703,244.857,368.442,219.39z"/>
			<path style="fill:#FFC26D;" d="M407.599,317.273v110.896c0,29.643-24.03,53.673-53.673,53.673h-25.454
				c29.643,0,53.673-24.03,53.673-53.673V317.273c0-37.949-14.889-72.421-39.156-97.885c-23.308-24.464-43.252-51.878-58.657-81.851
				h25.454c15.405,29.973,35.349,57.388,58.657,81.851C392.7,244.852,407.599,279.324,407.599,317.273z"/>
			<path style="fill:#ED6264;" d="M308.015,149.42H203.983c-9.898,0-17.923-8.024-17.923-17.923v0
				c0-9.898,8.024-17.923,17.923-17.923h104.032c9.898,0,17.923,8.024,17.923,17.923v0
				C325.938,141.396,317.913,149.42,308.015,149.42z"/>
			<path style="fill:#E84649;" d="M325.939,131.502c0,4.945-2.009,9.426-5.254,12.661c-3.245,3.245-7.716,5.254-12.671,5.254
				h-18.935c4.955,0,9.426-2.009,12.671-5.254c3.245-3.235,5.254-7.716,5.254-12.661c0-9.9-8.025-17.925-17.925-17.925h18.935
				C317.914,113.577,325.939,121.602,325.939,131.502z"/>
		</g>
		<g>
			<g>
				<g>
					<g>
						<path style="fill:#F37D7E;" d="M297.382,345.203v156.34c0,8.324-9.272,13.3-16.215,8.705L256,493.559l-25.167,16.689
							c-6.943,4.595-16.215-0.381-16.215-8.705v-156.34c0-5.759,4.677-10.436,10.436-10.436h61.883
							C292.705,334.767,297.382,339.444,297.382,345.203z"/>
						<path style="fill:#ED6264;" d="M297.382,345.203v33.378c-11.662,8.375-25.961,13.31-41.382,13.31s-29.721-4.934-41.382-13.31
							v-33.378c0-5.759,4.677-10.436,10.436-10.436h61.883C292.705,334.767,297.382,339.444,297.382,345.203z"/>
					</g>
				</g>
			</g>
			<g>
				<g>
					<circle style="fill:#FFC26D;" cx="255.999" cy="320.765" r="56.707"/>
					<path style="fill:#FFA730;" d="M312.706,320.768c0,31.315-25.392,56.707-56.707,56.707c-3.632,0-7.191-0.34-10.638-1.001
						c26.238-4.973,46.079-28.023,46.079-55.706c0-27.693-19.841-50.733-46.079-55.706c3.446-0.66,7.006-1.001,10.638-1.001
						C287.314,264.062,312.706,289.443,312.706,320.768z"/>
				</g>
				<path style="fill:#FFA730;" d="M269.004,332.544h-3.038v-30.912c0-2.678-1.386-5.165-3.664-6.572
					c-2.279-1.407-5.124-1.535-7.518-0.338l-12.532,6.267c-3.816,1.908-5.363,6.549-3.455,10.366
					c1.908,3.817,6.55,5.361,10.366,3.455l1.35-0.675v18.41h-3.038c-4.267,0-7.726,3.459-7.726,7.726s3.459,7.726,7.726,7.726
					h21.529c4.268,0,7.726-3.459,7.726-7.726S273.272,332.544,269.004,332.544z"/>
			</g>
		</g>
	</g>
	<g>
		<path style="fill:#FFC26D;" d="M271.11,208.737h-27.706c-4.267,0-7.726-3.459-7.726-7.726s3.459-7.726,7.726-7.726h27.706
			c4.268,0,7.726,3.459,7.726,7.726S275.377,208.737,271.11,208.737z"/>
		<path style="fill:#FFC26D;" d="M289.972,237.03h-65.43c-4.267,0-7.726-3.459-7.726-7.726c0-4.268,3.459-7.726,7.726-7.726h65.43
			c4.268,0,7.726,3.459,7.726,7.726C297.698,233.571,294.239,237.03,289.972,237.03z"/>
	</g>
</g>
<g>
</g>
<g>
</g>
<g>
</g>
<g>
</g>
<g>
</g>
<g>
</g>
<g>
</g>
<g>
</g>
<g>
</g>
<g>
</g>
<g>
</g>
<g>
</g>
<g>
</g>
<g>
</g>
<g>
</g>
</svg>
