<?xml version="1.0" encoding="iso-8859-1"?>
<!-- Uploaded to SVGRepo https://www.svgrepo.com -->
<svg version="1.1" id="Capa_1" xmlns="http://www.w3.org/2000/svg" xmlns:xlink="http://www.w3.org/1999/xlink" x="0px" y="0px"
	 viewBox="0 0 512 512" style="enable-background:new 0 0 512 512;" xml:space="preserve">
<g>
	<g>
		<path style="fill:#F37D7E;" d="M238.487,272.484H186.37v228.783c0,8.551,9.519,13.65,16.638,8.932l28.639-18.986l6.84-4.534
			V272.484z"/>
		<path style="fill:#F37D7E;" d="M273.513,272.484v214.195l6.84,4.534l28.639,18.986c7.119,4.718,16.638-0.381,16.638-8.932V272.484
			H273.513z"/>
		<path style="fill:#ED6264;" d="M325.63,272.484v43.124c-1.164,0.155-2.349,0.227-3.534,0.227c-6.088,0-11.837-2.009-16.565-5.666
			c-1.267,4.337-3.575,8.283-6.779,11.507c-5.202,5.223-12.506,8.211-20.047,8.211c-9.395,0.01-17.668-4.471-22.705-11.878
			c-5.038,7.407-13.31,11.878-22.705,11.878c-7.541,0-14.845-2.987-20.047-8.211c-3.204-3.224-5.511-7.16-6.779-11.507
			c-4.728,3.657-10.477,5.666-16.565,5.666c-1.185,0-2.369-0.072-3.534-0.227v-43.124H325.63z"/>
		<path style="fill:#ED6264;" d="M325.63,272.484v228.783c0,8.551-9.519,13.65-16.638,8.932l-6.974-4.626
			c0.567-1.298,0.886-2.74,0.886-4.306V272.484H325.63z"/>
		<path style="fill:#FFF5F5;" d="M280.354,272.484v218.729l-18.662-12.37c-3.45-2.287-7.934-2.287-11.384,0l-18.662,12.37V272.484
			H280.354z"/>
		<path style="fill:#E0D3CE;" d="M280.354,272.484v57.35c-0.546,0.031-1.102,0.051-1.648,0.051
			c-9.395,0.01-17.668-4.471-22.705-11.878c-5.038,7.407-13.31,11.878-22.705,11.878c-0.546,0-1.102-0.021-1.648-0.051v-57.35
			H280.354z"/>
	</g>
	<g>
		<g>
			<g>
				<g>
					<path style="fill:#65BAFC;" d="M266.119,9.307L266.119,9.307c4.672-14.565,26.181-11.159,26.123,4.137v0
						c-0.039,10.336,13.205,14.639,19.248,6.254l0,0c8.944-12.409,28.347-2.522,23.566,12.007l0,0
						c-3.231,9.818,8.035,18.003,16.374,11.896l0,0c12.341-9.037,27.739,6.361,18.702,18.702l0,0
						c-6.107,8.339,2.078,19.604,11.896,16.374l0,0c14.53-4.782,24.416,14.622,12.007,23.566l0,0
						c-8.384,6.044-4.081,19.287,6.254,19.248h0c15.296-0.058,18.703,21.451,4.137,26.123l0,0c-9.842,3.157-9.842,17.082,0,20.239
						l0,0c14.565,4.672,11.159,26.18-4.137,26.123h0c-10.336-0.039-14.639,13.205-6.254,19.248l0,0
						c12.409,8.944,2.522,28.347-12.007,23.566l0,0c-9.818-3.231-18.003,8.035-11.896,16.374l0,0
						c9.037,12.341-6.361,27.739-18.702,18.702l0,0c-8.339-6.107-19.604,2.078-16.374,11.896l0,0
						c4.781,14.53-14.622,24.416-23.566,12.007l0,0c-6.044-8.384-19.287-4.081-19.248,6.254v0
						c0.058,15.296-21.451,18.703-26.123,4.137l0,0c-3.157-9.842-17.082-9.842-20.239,0l0,0
						c-4.672,14.565-26.18,11.159-26.123-4.137v0c0.039-10.336-13.205-14.639-19.248-6.254l0,0
						c-8.944,12.409-28.347,2.522-23.566-12.007l0,0c3.231-9.818-8.035-18.003-16.374-11.896l0,0
						c-12.341,9.037-27.739-6.361-18.702-18.702l0,0c6.107-8.339-2.078-19.604-11.896-16.374l0,0
						c-14.53,4.782-24.416-14.622-12.007-23.566l0,0c8.384-6.044,4.081-19.287-6.254-19.248h0
						c-15.296,0.058-18.703-21.451-4.137-26.123l0,0c9.842-3.157,9.842-17.082,0-20.239l0,0
						c-14.565-4.672-11.159-26.18,4.137-26.123h0c10.336,0.039,14.639-13.205,6.254-19.248l0,0
						c-12.409-8.944-2.522-28.347,12.007-23.566l0,0c9.818,3.231,18.003-8.035,11.896-16.374l0,0
						c-9.037-12.341,6.361-27.739,18.702-18.702l0,0c8.339,6.107,19.604-2.078,16.374-11.896l0,0
						c-4.781-14.53,14.622-24.416,23.566-12.007l0,0c6.044,8.384,19.287,4.081,19.248-6.254v0
						C219.7-1.852,241.208-5.259,245.881,9.307l0,0C249.038,19.148,262.962,19.148,266.119,9.307z"/>
					<circle style="fill:#2EA8FC;" cx="255.997" cy="157.739" r="126.005"/>
					<circle style="fill:#DAEDFF;" cx="255.745" cy="157.739" r="111.965"/>
					<path style="fill:#B6DCFF;" d="M367.966,157.743c0,61.83-50.136,111.966-111.966,111.966c-3.438,0-6.841-0.156-10.201-0.46
						c57.055-5.148,101.765-53.114,101.765-111.506c0-58.401-44.71-106.358-101.765-111.506c3.36-0.304,6.763-0.46,10.201-0.46
						C317.83,45.777,367.966,95.904,367.966,157.743z"/>
				</g>
			</g>
		</g>
		<g>
			<g>
				<g>
					<path style="fill:#FFCE8B;" d="M310.469,150.572l-23.023,22.435l5.434,31.686c0.813,4.745-4.165,8.361-8.43,6.123L256,195.859
						l-28.45,14.956c-4.266,2.237-9.243-1.378-8.43-6.123l2.942-17.155l2.493-14.531l-23.023-22.435
						c-3.445-3.36-1.541-9.22,3.22-9.909l31.809-4.622l14.229-28.829c2.129-4.32,8.291-4.32,10.42,0l14.229,28.829l10.598,1.541
						l21.211,3.081C312.009,141.352,313.914,147.212,310.469,150.572z"/>
					<path style="fill:#FFB54E;" d="M310.469,150.572l-23.023,22.435l5.434,31.686c0.813,4.745-4.165,8.361-8.43,6.123L256,195.859
						l-28.45,14.956c-4.266,2.237-9.243-1.378-8.43-6.123l2.942-17.155c44.149-8.059,59.059-32.297,63.975-49.955l21.211,3.081
						C312.009,141.352,313.914,147.212,310.469,150.572z"/>
				</g>
			</g>
		</g>
	</g>
</g>
<g>
</g>
<g>
</g>
<g>
</g>
<g>
</g>
<g>
</g>
<g>
</g>
<g>
</g>
<g>
</g>
<g>
</g>
<g>
</g>
<g>
</g>
<g>
</g>
<g>
</g>
<g>
</g>
<g>
</g>
</svg>
