<?xml version="1.0" encoding="iso-8859-1"?>
<!-- Uploaded to SVGRepo https://www.svgrepo.com -->
<svg version="1.1" id="Capa_1" xmlns="http://www.w3.org/2000/svg" xmlns:xlink="http://www.w3.org/1999/xlink" x="0px" y="0px"
	 viewBox="0 0 512 512" style="enable-background:new 0 0 512 512;" xml:space="preserve">
<g>
	<path style="fill:#FFE8CA;" d="M512,88.811v239.713c0,12.434-10.085,22.52-22.52,22.52s-22.509-10.086-22.509-22.52v86.319
		c0,9.972-6.48,18.42-15.453,21.387c-2.225,0.731-4.595,1.133-7.067,1.133c-12.434,0-22.509-10.075-22.509-22.52V100.432
		L394.353,70.69l21.644-21.644c10.549-10.549,24.848-16.473,39.765-16.473C486.822,32.574,512,57.751,512,88.811z"/>
	<path style="fill:#FFCE8B;" d="M512,88.811v239.713c0,12.434-10.085,22.52-22.52,22.52c-4.162,0-8.066-1.133-11.404-3.111
		c6.645-3.915,11.095-11.147,11.095-19.409V88.811c0-27.135-19.223-49.789-44.782-55.073c3.719-0.773,7.52-1.164,11.373-1.164
		C486.822,32.574,512,57.751,512,88.811z"/>
	<path style="fill:#FFCE8B;" d="M466.968,178.938c-4.267,0-7.726-3.459-7.726-7.726v-66.928c0-2.92-2.375-5.295-5.295-5.295
		c-4.267,0-7.726-3.459-7.726-7.726c0-4.267,3.459-7.726,7.726-7.726c11.441,0,20.748,9.307,20.748,20.748v66.928
		C474.695,175.479,471.235,178.938,466.968,178.938z"/>
	<g>
		<path style="fill:#8EC737;" d="M252.909,247.098c-5.182,0-9.673-2.153-12.908-5.553c-4.059-3.482-6.696-8.695-6.696-14.052
			v-99.382c-3.966,0.989-7.891,2.215-11.744,3.678c-13.135,4.996-25.445,12.785-36.025,23.365l-73.896,73.896
			c11.72,11.72,23.439,23.44,35.159,35.159l110.176,110.176l73.889-73.893c10.58-10.58,18.368-22.891,23.375-36.036
			c2.153-5.656,3.781-11.466,4.893-17.359H252.909z"/>
		<path style="fill:#8EC737;" d="M37.953,302.738L6.459,334.231c-8.612,8.612-8.612,22.582,0,31.184l97.795,97.795l16.349,16.359
			c8.612,8.602,22.571,8.612,31.194,0l31.493-31.494C134.844,399.629,86.399,351.183,37.953,302.738z"/>
		<path style="fill:#83B832;" d="M166.937,431.721l-31.488,31.488c-8.623,8.623-22.582,8.612-31.194,0l16.349,16.359
			c8.612,8.602,22.571,8.612,31.194,0l31.493-31.494C177.839,442.624,172.388,437.173,166.937,431.721z"/>
		<path style="fill:#83B832;" d="M331.842,247.098c-0.907,3.503-2.019,6.964-3.317,10.374
			c-4.996,13.135-12.785,25.446-23.365,36.026l-64.537,64.537l16.351,16.351l73.889-73.893c10.58-10.58,18.368-22.891,23.375-36.036
			c2.153-5.656,3.781-11.466,4.893-17.359H331.842z"/>
		
			<rect x="90.387" y="235.056" transform="matrix(0.7071 -0.7071 0.7071 0.7071 -195.4707 203.7391)" style="fill:#FFCE8B;" width="115.624" height="205.535"/>
		
			<rect x="154.88" y="390.755" transform="matrix(0.7071 -0.7071 0.7071 0.7071 -222.1844 268.2316)" style="fill:#FFB54E;" width="115.624" height="23.123"/>
		<g>
			<circle style="fill:#9E9797;" cx="205.987" cy="280.036" r="55.967"/>
		</g>
		<g>
			<path style="fill:#756F6F;" d="M245.564,319.613c-21.86,21.85-57.299,21.85-79.149,0c-2.266-2.266-4.296-4.677-6.099-7.211
				c21.85,15.515,52.343,13.485,71.938-6.099c19.584-19.594,21.613-50.088,6.099-71.938c2.534,1.803,4.945,3.832,7.211,6.099
				C267.414,262.314,267.414,297.753,245.564,319.613z"/>
		</g>
		<path style="fill:#ED6264;" d="M354.234,264.462H232.586c-6.082,0-11.025-4.943-11.025-11.025V131.789
			c15.687-5.972,32.537-7.961,49.004-5.98c25.629,3.095,51.257-5.754,69.51-24.007l56.957-56.957l44.146,44.146l-56.957,56.957
			c-18.253,18.253-27.102,43.881-24.007,69.51C362.195,231.925,360.206,248.775,354.234,264.462z"/>
		
			<rect x="379.726" y="52.014" transform="matrix(0.7071 -0.7071 0.7071 0.7071 59.1232 309.1953)" style="fill:#E84649;" width="46.135" height="62.432"/>
		<path style="fill:#E84649;" d="M354.234,264.462l-28.677,0c1.084-2.3,2.074-4.631,2.971-6.994
			c5.972-15.687,7.961-32.537,5.98-49.004c-3.095-25.629,5.754-51.257,24.007-69.51l66.313-66.313l16.35,16.35l-56.957,56.957
			c-18.253,18.253-27.102,43.881-24.007,69.51C362.195,231.925,360.206,248.775,354.234,264.462z"/>
		<path style="fill:#ED6264;" d="M370.704,61.926l53.393,53.393c4.306,4.306,11.288,4.306,15.594,0l17.128-17.128
			c4.306-4.306,4.306-11.288,0-15.594l-53.393-53.393c-4.306-4.306-11.288-4.306-15.594,0l-17.128,17.128
			C366.398,50.639,366.398,57.62,370.704,61.926z"/>
		<path style="fill:#FF9A1B;" d="M162.547,377.887c-1.977,0-3.955-0.754-5.463-2.263l-46.685-46.685
			c-3.018-3.017-3.018-7.909,0-10.927c3.017-3.017,7.909-3.018,10.927,0l46.685,46.685c3.018,3.017,3.018,7.909,0,10.927
			C166.502,377.133,164.524,377.887,162.547,377.887z"/>
	</g>
	<path style="fill:#FFCE8B;" d="M466.971,257.606v157.236c0,9.972-6.48,18.42-15.453,21.387V257.606
		c0-4.265,3.461-7.726,7.726-7.726C463.509,249.88,466.971,253.341,466.971,257.606z"/>
</g>
<g>
</g>
<g>
</g>
<g>
</g>
<g>
</g>
<g>
</g>
<g>
</g>
<g>
</g>
<g>
</g>
<g>
</g>
<g>
</g>
<g>
</g>
<g>
</g>
<g>
</g>
<g>
</g>
<g>
</g>
</svg>
