<?xml version="1.0" encoding="iso-8859-1"?>
<!-- Uploaded to SVGRepo https://www.svgrepo.com -->
<svg version="1.1" id="Capa_1" xmlns="http://www.w3.org/2000/svg" xmlns:xlink="http://www.w3.org/1999/xlink" x="0px" y="0px"
	 viewBox="0 0 512 512" style="enable-background:new 0 0 512 512;" xml:space="preserve">
<g>
	<g>
		<g>
			<g>
				<g>
					<g>
						<path style="fill:#FFCE8B;" d="M478.468,45.482h-87.71c-10.003,0-18.111,8.108-18.111,18.111c0,9.993,8.108,18.1,18.111,18.1
							h85.031v124.765h-48.522c-5.151,0-10.168,0.618-14.969,1.803c-3.286,0.793-6.47,1.854-9.529,3.152
							c-22.643,9.57-38.57,32.018-38.57,58.113c0,5.522,2.472,10.467,6.387,13.784c3.152,2.689,7.253,4.316,11.723,4.316
							c9.993,0,18.1-8.108,18.1-18.1c0-9.272,4.718-17.462,11.888-22.293c4.275-2.884,9.426-4.564,14.969-4.564h51.2
							c4.131,0,8.087-0.752,11.744-2.122c12.712-4.77,21.788-17.049,21.788-31.41V79.015C512,60.523,496.959,45.482,478.468,45.482z
							"/>
					</g>
					<path style="fill:#FFB54E;" d="M490.212,206.026v34.521c-3.657,1.37-7.613,2.122-11.744,2.122h-51.2
						c-5.542,0-10.693,1.679-14.969,4.564v-38.972c4.801-1.185,9.818-1.803,14.969-1.803h48.522v-24.065
						C484.35,186.813,490.212,195.744,490.212,206.026z"/>
					<path style="fill:#FFB54E;" d="M404.48,45.482v36.211h-13.722c-10.003,0-18.111-8.108-18.111-18.1
						c0-10.003,8.108-18.111,18.111-18.111H404.48z"/>
					<path style="fill:#FFB54E;" d="M402.77,211.413c-4.1,26.816-15.463,51.561-32.183,71.896
						c-3.915-3.317-6.387-8.262-6.387-13.784C364.2,243.431,380.126,220.984,402.77,211.413z"/>
					<g>
						<g>
							<path style="fill:#2EA8FC;" d="M464.442,366.153l-13.189-8.743l-13.189,8.743c-4.858,3.22-11.345-0.263-11.345-6.091V206.029
								c0-6.72,5.448-12.168,12.168-12.168h24.733c6.72,0,12.168,5.448,12.168,12.168v154.033
								C475.787,365.891,469.299,369.374,464.442,366.153z"/>
						</g>
					</g>
				</g>
				<g>
					<g>
						<path style="fill:#FFCE8B;" d="M109.23,211.413c-3.06-1.298-6.243-2.359-9.529-3.152c-4.801-1.185-9.818-1.803-14.969-1.803
							H36.211V81.693h85.031c10.003,0,18.111-8.108,18.111-18.1c0-10.003-8.108-18.111-18.111-18.111h-87.71
							C15.041,45.482,0,60.523,0,79.015v130.122c0,14.361,9.076,26.64,21.788,31.41c3.657,1.37,7.613,2.122,11.744,2.122h51.2
							c5.542,0,10.693,1.679,14.969,4.564c7.17,4.832,11.888,13.021,11.888,22.293c0,9.993,8.107,18.1,18.1,18.1
							c4.471,0,8.571-1.628,11.723-4.316c3.915-3.317,6.387-8.262,6.387-13.784C147.8,243.431,131.873,220.984,109.23,211.413z"/>
					</g>
					<path style="fill:#FFB54E;" d="M99.701,208.261v38.972c-4.275-2.884-9.426-4.564-14.969-4.564h-51.2
						c-4.131,0-8.087-0.752-11.744-2.122v-34.521c0-10.281,5.862-19.213,14.423-23.632v24.065h48.521
						C89.883,206.458,94.9,207.076,99.701,208.261z"/>
					<path style="fill:#FFB54E;" d="M147.8,269.526c0,5.522-2.472,10.467-6.387,13.784c-16.72-20.336-28.083-45.081-32.183-71.896
						C131.873,220.984,147.8,243.431,147.8,269.526z"/>
					<path style="fill:#FFB54E;" d="M121.242,81.693H107.52V45.482h13.722c10.003,0,18.111,8.108,18.111,18.111
						C139.353,73.586,131.245,81.693,121.242,81.693z"/>
					<g>
						<g>
							<path style="fill:#2EA8FC;" d="M47.558,366.153l13.189-8.743l13.189,8.743c4.858,3.22,11.345-0.263,11.345-6.091V206.029
								c0-6.72-5.448-12.168-12.168-12.168H48.38c-6.72,0-12.168,5.448-12.168,12.168v154.033
								C36.213,365.891,42.701,369.374,47.558,366.153z"/>
						</g>
					</g>
				</g>
			</g>
			<path style="fill:#FFDBAA;" d="M390.057,27.166v161.883c0,64.86-46.08,118.965-107.283,131.379v78.222h-53.549v-78.222
				c-61.203-12.414-107.283-66.519-107.283-131.379V27.166c0-5.707,4.636-10.343,10.353-10.343h247.408
				C385.422,16.823,390.057,21.458,390.057,27.166z"/>
			<path style="fill:#FFC26D;" d="M390.057,27.176v161.872c0,64.86-46.08,118.965-107.283,131.379v78.222h-22.798V313.96
				c0-5.176,3.51-9.644,8.504-11.003c56.918-15.492,98.779-67.542,98.779-129.362V27.166c0-5.707-4.636-10.343-10.353-10.343h22.798
				C385.422,16.823,390.057,21.458,390.057,27.176z"/>
			<rect x="229.226" y="362.582" style="fill:#FFC26D;" width="53.549" height="36.067"/>
			<g>
				<path style="fill:#EFE2DD;" d="M378.575,387.336v78.106h-245.15v-78.106c0-5.711,4.625-10.336,10.326-10.336h224.499
					C373.95,377,378.575,381.625,378.575,387.336z"/>
				<path style="fill:#CDBFBB;" d="M378.577,387.335v78.113H354.81v-78.113c0-5.704-4.629-10.334-10.334-10.334h23.767
					C373.948,377.001,378.577,381.631,378.577,387.335z"/>
				<g>
					<path style="fill:#FFF5F5;" d="M420.637,495.177H91.363c-5.707,0-10.334-4.626-10.334-10.334v-26.193
						c0-5.707,4.627-10.334,10.334-10.334h329.273c5.707,0,10.334,4.626,10.334,10.334v26.193
						C430.97,490.551,426.344,495.177,420.637,495.177z"/>
					<path style="fill:#EFE2DD;" d="M430.969,458.648v26.196c0,5.704-4.629,10.334-10.334,10.334h-22.817
						c5.704,0,10.334-4.629,10.334-10.334v-26.196c0-5.704-4.629-10.334-10.334-10.334h22.817
						C426.339,448.315,430.969,452.944,430.969,458.648z"/>
				</g>
			</g>
		</g>
		<path style="fill:#FFC26D;" d="M309.226,421.939H202.774c-4.268,0-7.726-3.459-7.726-7.726s3.459-7.726,7.726-7.726h106.453
			c4.268,0,7.726,3.459,7.726,7.726S313.494,421.939,309.226,421.939z"/>
		<circle style="fill:#DAEDFF;" cx="256" cy="127.503" r="46.966"/>
		<path style="fill:#B6DCFF;" d="M302.966,127.505c0,25.94-21.026,46.966-46.966,46.966c-4.214,0-8.303-0.556-12.187-1.597
			c20.027-5.378,34.769-23.653,34.769-45.369c0-21.716-14.742-39.992-34.769-45.369c3.884-1.04,7.974-1.597,12.187-1.597
			C281.94,80.539,302.966,101.565,302.966,127.505z"/>
	</g>
	<g>
		<g>
			<g>
				<path style="fill:#0097FA;" d="M475.789,206.026v154.033c0,5.831-6.49,9.313-11.342,6.099l-9.261-6.14V206.026
					c0-6.717-5.45-12.166-12.166-12.166h20.604C470.34,193.859,475.789,199.309,475.789,206.026z"/>
			</g>
		</g>
	</g>
	<g>
		<g>
			<g>
				<path style="fill:#0097FA;" d="M85.278,206.026v154.033c0,5.831-6.48,9.313-11.342,6.099l-9.261-6.14V206.026
					c0-6.717-5.45-12.166-12.166-12.166h20.604C79.829,193.859,85.278,199.309,85.278,206.026z"/>
			</g>
		</g>
	</g>
</g>
<g>
</g>
<g>
</g>
<g>
</g>
<g>
</g>
<g>
</g>
<g>
</g>
<g>
</g>
<g>
</g>
<g>
</g>
<g>
</g>
<g>
</g>
<g>
</g>
<g>
</g>
<g>
</g>
<g>
</g>
</svg>
