<?xml version="1.0" encoding="iso-8859-1"?>
<!-- Uploaded to SVGRepo https://www.svgrepo.com -->
<svg version="1.1" id="Capa_1" xmlns="http://www.w3.org/2000/svg" xmlns:xlink="http://www.w3.org/1999/xlink" x="0px" y="0px"
	 viewBox="0 0 512 512" style="enable-background:new 0 0 512 512;" xml:space="preserve">
<g>
	<path style="fill:#BDEB73;" d="M438.63,222.333l-6.555-6.552l21.48-21.48c12.155-12.155,18.227-28.087,18.227-44.019
		s-6.072-31.864-18.227-44.019c-24.31-24.31-63.727-24.31-88.037,0l-60.627,39.626L256,215.782l4.116,6.552H438.63z"/>
	<path style="fill:#BDEB73;" d="M75.808,211.667l4.117,4.115l-21.48,21.48c-12.155,12.155-18.227,28.087-18.227,44.019
		c0,15.932,6.072,31.864,18.227,44.019c24.31,24.31,63.727,24.31,88.037,0l64.408-40.408L256,215.782l-2.803-4.115H75.808z"/>
	<g>
		<g>
			<path style="fill:#7AA82D;" d="M435.662,512c-0.17,0-0.339-0.002-0.51-0.007c-10.765-0.276-19.266-9.227-18.99-19.991
				c2.645-102.938-61.414-150.431-62.062-150.899c-8.729-6.306-10.693-18.494-4.387-27.222c6.307-8.728,18.494-10.691,27.222-4.387
				c3.325,2.402,81.375,60.235,78.208,183.509C454.87,503.597,446.197,512,435.662,512z"/>
		</g>
		<g>
			<path style="fill:#729B23;" d="M455.144,493.004c-0.278,10.59-8.952,18.996-19.481,18.996c-0.175,0-0.34,0-0.515-0.01
				c-2.843-0.072-5.522-0.752-7.932-1.906c6.377-3.07,10.858-9.519,11.054-17.081c3.163-123.272-74.884-181.106-78.211-183.506
				c-0.958-0.69-1.957-1.288-2.988-1.772c6.233-2.987,13.866-2.565,19.862,1.772C380.261,311.898,458.307,369.732,455.144,493.004z"
				/>
		</g>
		<g>
			<g>
				<path style="fill:#BDEB73;" d="M264.333,31.37L256,39.707l-21.48-21.48C222.365,6.072,206.433,0,190.501,0
					c-15.932,0-31.864,6.072-44.019,18.227c-24.31,24.31-24.31,63.727,0,88.037l29.28,62.28L256,215.782l8.333-8.333V31.37z"/>
				<path style="fill:#A4E540;" d="M365.518,106.264L256,215.782l-12.467-12.467l97.039-97.051c24.31-24.31,24.31-63.727,0-88.037
					c-8.969-8.969-19.987-14.628-31.552-16.968C313.132,0.412,317.31,0,321.499,0c15.932,0,31.863,6.072,44.019,18.227
					C389.827,42.537,389.827,81.954,365.518,106.264z"/>
				<path style="fill:#A4E540;" d="M365.518,106.264L256,215.782V39.707l21.469-21.48c8.969-8.969,19.987-14.628,31.552-16.968
					C313.132,0.412,317.31,0,321.499,0c15.932,0,31.863,6.072,44.019,18.227C389.827,42.537,389.827,81.954,365.518,106.264z"/>
				<path style="fill:#8EC737;" d="M365.518,106.264L256,215.782v-24.934l84.572-84.584c24.31-24.31,24.31-63.727,0-88.037
					c-8.969-8.969-19.987-14.628-31.552-16.968C313.132,0.412,317.31,0,321.499,0c15.932,0,31.863,6.072,44.019,18.227
					C389.827,42.537,389.827,81.954,365.518,106.264z"/>
			</g>
			<g>
				<path style="fill:#BDEB73;" d="M365.517,325.299l-44.7-65.7L256,215.782l-11,11v176.08l11-11.005l21.48,21.48
					c12.155,12.155,28.087,18.227,44.019,18.227s31.864-6.072,44.019-18.227C389.827,389.026,389.827,349.609,365.517,325.299z"/>
				<path style="fill:#A4E540;" d="M146.482,325.299L256,215.782l12.467,12.467l-97.039,97.051c-24.31,24.31-24.31,63.727,0,88.037
					c8.969,8.969,19.987,14.628,31.551,16.968c-4.111,0.847-8.289,1.259-12.478,1.259c-15.932,0-31.863-6.072-44.019-18.227
					C122.173,389.026,122.173,349.609,146.482,325.299z"/>
				<path style="fill:#A4E540;" d="M146.482,325.299L256,215.782v176.075l-21.469,21.48c-8.969,8.969-19.987,14.628-31.552,16.968
					c-4.111,0.847-8.289,1.259-12.478,1.259c-15.932,0-31.863-6.072-44.019-18.227C122.173,389.026,122.173,349.609,146.482,325.299
					z"/>
				<path style="fill:#8EC737;" d="M146.482,325.299L256,215.782v24.934l-84.572,84.584c-24.31,24.31-24.31,63.727,0,88.037
					c8.969,8.969,19.987,14.628,31.551,16.968c-4.111,0.847-8.289,1.259-12.478,1.259c-15.932,0-31.863-6.072-44.019-18.227
					C122.173,389.026,122.173,349.609,146.482,325.299z"/>
			</g>
			<g>
				<path style="fill:#A4E540;" d="M365.517,325.299L256,215.782l12.467-12.467l97.051,97.039c24.31,24.31,63.727,24.31,88.037,0
					c8.969-8.969,14.628-19.987,16.968-31.552c0.847,4.111,1.259,8.289,1.259,12.478c0,15.932-6.072,31.863-18.227,44.019
					C429.245,349.609,389.827,349.609,365.517,325.299z"/>
				<path style="fill:#A4E540;" d="M365.517,325.299L256,215.782h176.075l21.48,21.469c8.969,8.969,14.628,19.987,16.968,31.552
					c0.847,4.111,1.259,8.289,1.259,12.478c0,15.932-6.072,31.863-18.227,44.019C429.245,349.609,389.827,349.609,365.517,325.299z"
					/>
				<path style="fill:#8EC737;" d="M365.517,325.299L256,215.782h24.934l84.584,84.572c24.31,24.31,63.727,24.31,88.037,0
					c8.969-8.969,14.628-19.987,16.968-31.552c0.847,4.111,1.259,8.289,1.259,12.478c0,15.932-6.072,31.863-18.227,44.019
					C429.245,349.609,389.827,349.609,365.517,325.299z"/>
			</g>
			<g>
				<path style="fill:#A4E540;" d="M146.483,106.264L256,215.782l-12.467,12.467l-97.051-97.039c-24.31-24.31-63.727-24.31-88.037,0
					c-8.969,8.969-14.628,19.987-16.968,31.552c-0.847-4.111-1.259-8.289-1.259-12.478c0-15.932,6.072-31.863,18.227-44.019
					C82.755,81.954,122.173,81.954,146.483,106.264z"/>
				<path style="fill:#A4E540;" d="M146.483,106.264L256,215.782H79.925l-21.48-21.469c-8.969-8.969-14.628-19.987-16.968-31.552
					c-0.847-4.111-1.259-8.289-1.259-12.478c0-15.932,6.072-31.863,18.227-44.019C82.755,81.954,122.173,81.954,146.483,106.264z"/>
				<path style="fill:#8EC737;" d="M146.483,106.264L256,215.782h-24.934l-84.584-84.572c-24.31-24.31-63.727-24.31-88.037,0
					c-8.969,8.969-14.628,19.987-16.968,31.552c-0.847-4.111-1.259-8.289-1.259-12.478c0-15.932,6.072-31.863,18.227-44.019
					C82.755,81.954,122.173,81.954,146.483,106.264z"/>
			</g>
		</g>
	</g>
	<circle style="fill:#7AA82D;" cx="256" cy="215.782" r="30.411"/>
	<path style="fill:#729B23;" d="M286.411,215.782c0,16.792-13.619,30.411-30.411,30.411c-3.255,0-6.387-0.515-9.323-1.463
		c12.228-3.935,21.088-15.411,21.088-28.948c0-13.536-8.859-25.013-21.088-28.948c2.936-0.948,6.068-1.463,9.323-1.463
		C272.792,185.371,286.411,198.99,286.411,215.782z"/>
</g>
<g>
</g>
<g>
</g>
<g>
</g>
<g>
</g>
<g>
</g>
<g>
</g>
<g>
</g>
<g>
</g>
<g>
</g>
<g>
</g>
<g>
</g>
<g>
</g>
<g>
</g>
<g>
</g>
<g>
</g>
</svg>
