<?xml version="1.0" ?><!DOCTYPE svg  PUBLIC '-//W3C//DTD SVG 1.1//EN'  'http://www.w3.org/Graphics/SVG/1.1/DTD/svg11.dtd'><svg width="513px" height="513px" viewBox="-0.5 0 513 513" style="fill-rule:evenodd;clip-rule:evenodd;stroke-linejoin:round;stroke-miterlimit:2;" version="1.1" xml:space="preserve" xmlns="http://www.w3.org/2000/svg" xmlns:serif="http://www.serif.com/" xmlns:xlink="http://www.w3.org/1999/xlink"><g transform="matrix(1,0,0,1,-2337,-614)"><g id="acorns" transform="matrix(1.01747,0,0,1,1295.12,614.059)"><rect height="512" style="fill:none;" width="503.211" x="1023.99" y="0"/><g transform="matrix(2.86415,-0.0593644,0.0330149,1.649,-3283.74,-2209.63)"><path d="M1624.73,1642.65L1584.54,1641.76C1583.48,1649.55 1522.83,1649.29 1512.15,1643.4C1494.25,1633.53 1493.86,1639.94 1496.62,1626.18C1501.81,1600.45 1515.22,1621.11 1524.19,1604.84C1534.22,1586.65 1540.94,1558.37 1541.19,1558.22C1541.55,1558.07 1541.92,1557.92 1542.28,1557.76C1538.88,1460.17 1632.4,1410.19 1619.97,1588.6C1638.94,1615.96 1663.53,1626.67 1652.23,1637.72C1650.59,1638.88 1624.73,1642.65 1624.73,1642.65Z" style="fill:rgb(243,195,153);"/></g><g transform="matrix(0.982834,0,0,1,440.588,-1858.1)"><path d="M698.103,2213.19C720.257,2208.45 910.008,2208.4 994.596,2216.09C999.933,2216.57 1064.26,2218.09 1055.71,2230.91C1041.6,2252.07 1008.62,2245.73 986.724,2243.22C975.38,2241.91 952,2249.89 935.945,2254.45C911.028,2261.53 890.846,2266.2 860.938,2260.08C832.207,2254.19 834.271,2249.77 808.269,2251.08C732.431,2254.91 677.614,2261.12 652.225,2237.54C646.903,2232.6 667.991,2219.64 698.103,2213.19Z" style="fill:rgb(80,0,0);"/></g><g transform="matrix(0.435611,-0.0818062,0.0844932,0.465773,809.2,268.07)"><g><g transform="matrix(-0.348949,0.851223,0.907092,0.384955,-324.944,-1241.32)"><path d="M670.31,2085.62C665.091,2120.15 709.399,2279.25 879.096,2277.68C900.272,2277.48 929.179,2261.26 932.479,2257.85C942.864,2247.12 955.047,2235.8 970.174,2219.06C1021.33,2162.46 1026.11,2077.08 980.924,2000.67C950.356,1948.97 702.278,1874.12 670.31,2085.62Z" style="fill:rgb(202,104,39);"/></g><g transform="matrix(0.982834,-5.50347e-17,5.55112e-17,1,447.066,-1820.02)"><path d="M707.219,2174.7C699.573,2165.48 751.023,2033.55 763.659,2050.18C797.741,2095.05 775.181,2094.22 801.728,2139.35C820.729,2171.65 831.703,2191.93 867.94,2208.12C914.288,2228.82 953.488,2237.08 997.923,2218.32C1016.19,2210.61 948.529,2248.41 948.529,2248.41C888.268,2272.03 834.752,2271.65 790.341,2246.83C747.368,2222.81 723.104,2193.87 707.219,2174.7Z" style="fill:rgb(151,69,15);"/></g><g transform="matrix(0.348949,-0.851223,0.907092,0.384955,-912.575,176.927)"><path d="M996.675,2117.43C996.245,2122.48 983.344,2205.49 910.954,2249.03C872.062,2272.42 798.347,2282.9 810.881,2280.5C835.941,2275.53 857.54,2259.79 878.049,2243.45C918.905,2210.91 953.737,2169.58 969.481,2121.61C973.111,2110.55 975.539,2099.04 976.159,2087.33C976.159,2087.33 998.459,2096.46 996.675,2117.43Z" style="fill:rgb(224,152,105);fill-opacity:0.99;"/></g><g transform="matrix(0.982834,-5.50347e-17,5.55112e-17,1,447.066,-1820.02)"><path d="M810.351,2006.61C817.445,2008.31 823.993,2016.07 831.522,2022.38C849.524,2037.49 867.011,2053.16 883.703,2069.54C883.703,2069.54 887.847,2073.62 890.691,2076.57C894.618,2080.64 896.788,2082.97 899.717,2086.1C903.36,2090.11 906.997,2094.12 910.632,2098.13L911.068,2098.62C924.697,2114.06 938.069,2129.68 951.333,2145.38C951.333,2145.38 956.177,2151.18 959.917,2155.69L960.051,2158.65L957.251,2158.47C955.005,2156.41 952.772,2154.33 950.531,2152.27L948.515,2150.41C945.056,2147.18 941.595,2143.95 938.132,2140.72C922.176,2125.88 906.317,2110.85 890.867,2095.8C890.867,2095.8 885.268,2090.27 880.415,2085.29L876.994,2081.72L874.666,2079.27C853.147,2056.11 833.278,2030.44 813.163,2010.77C808.615,2006.32 810.29,2007.86 810.29,2007.86L809.228,2007.83C809.228,2007.83 808.903,2006.33 810.351,2006.61Z" style="fill:rgb(224,152,105);"/></g><g transform="matrix(0.703737,-1.95326e-17,7.43095e-17,0.677283,654.054,-1157.04)"><path d="M810.321,2006.58C822.158,2008.86 838.508,2027.97 855.611,2043.21L858.364,2045.67C866.844,2053.42 875.25,2061.26 883.435,2069.29C883.435,2069.29 892.288,2078.2 899.385,2085.79C917.025,2105.18 934.199,2125.14 951.217,2145.28C951.217,2145.28 956.088,2151.1 959.838,2155.61C959.838,2155.61 960.053,2158.65 960.053,2158.65L957.329,2158.54C934.819,2137.88 912.501,2116.86 891.135,2096.05C891.135,2096.05 879.494,2084.32 879.494,2084.32C866.865,2071.01 854.76,2057.34 842.663,2043.62C842.663,2043.62 831.416,2030.73 823.89,2022.31C819.524,2017.42 815.595,2012.01 810.256,2008.23C808.485,2006.98 810.261,2007.89 810.261,2007.89L809.229,2007.83C809.229,2007.83 808.93,2006.32 810.321,2006.58Z" style="fill:rgb(224,152,105);"/></g><g transform="matrix(-0.348065,0.849065,0.879154,0.373099,-278.472,-1214.4)"><path d="M664.186,2124.79C782.052,1960.96 911.3,1986.09 973.344,2000.58C981.109,2002.39 991.53,2024.73 992.048,2024.57C1009.97,2018.83 997.672,1932.15 895.986,1913.39C847.685,1904.48 810.201,1908.17 775.256,1914.96C715.817,1926.5 697.376,1955.27 663.197,2005.77C636.786,2044.8 624.978,2078.38 627.003,2100.22C628.312,2114.32 650.959,2138.04 666.921,2137.9C670.041,2137.87 662.428,2127.24 664.186,2124.79Z" style="fill:rgb(118,9,9);"/></g><g transform="matrix(0.348065,-0.849065,0.879154,0.373099,-857.909,194.606)"><path d="M685.55,1948.97C731.634,1901.66 834.787,1983.46 974.01,2047.43C1013.47,2065.56 1032.24,2145.64 994.561,2142.48C993.029,2142.35 998.323,2129.28 994.415,2122.92C977.806,2095.89 925.448,2044.28 874.491,2016.55C842.896,1999.36 805.791,1995.98 774.3,1995.19C718.722,1993.81 672.053,2013.89 669.596,2011.17C647.822,1987.06 684.313,1953.12 685.55,1948.97Z" style="fill:rgb(88,17,17);"/></g><g transform="matrix(0.348065,-0.849065,0.879154,0.373099,-856.001,194.41)"><path d="M946.451,1941.93C966.66,1957.86 1021.94,2036.11 1028.75,2073.32C1030.71,2084.01 1034.88,2109.81 1023.4,2118.16L1021.1,2121.18C1021.1,2121.18 1020.16,2078.03 1008.22,2054.89C1006.23,2051.01 992.933,2023.56 986.1,2014.83C967.29,1990.8 957.858,1970.86 934.878,1952.72C926.84,1946.42 914.051,1936.82 901.105,1931.43C901.105,1931.43 875.852,1913.6 868.209,1907.7C868.209,1907.7 929.394,1928.5 946.451,1941.93Z" style="fill:rgb(195,136,136);"/></g></g><g transform="matrix(0.982834,-5.50347e-17,2.77556e-17,1,501.341,-1829.09)"><path d="M770.15,2029.9L782.234,2041.18L797.84,2055.89L806.242,2063.91L814.704,2072.08L822.968,2080.18L826.947,2084.14L830.781,2088L834.742,2092.05L839.066,2096.53L848.465,2106.43L858.293,2116.92L867.866,2127.22L883.517,2144.22L889.711,2150.99L889.95,2151.26L889.907,2152.39L888.697,2152.33L888.438,2152.09L881.752,2145.74L864.983,2129.7L854.82,2119.9L844.487,2109.85L834.748,2100.24L830.338,2095.83L826.363,2091.79L822.581,2087.89L818.706,2083.84L810.781,2075.45L802.801,2066.87L794.975,2058.35L780.635,2042.55L769.651,2030.33L769.451,2030.11L769.47,2029.68L769.929,2029.69L770.15,2029.9Z" style="fill:rgb(80,0,0);"/></g><g transform="matrix(0.982834,-5.50347e-17,2.77556e-17,1,480.829,-1821.58)"><path d="M780.412,2045.19L786.11,2049.76L793.428,2055.76L797.34,2059.06L801.253,2062.45L805.04,2065.85L806.848,2067.52L808.576,2069.17L810.344,2070.91L812.256,2072.86L816.368,2077.2L820.629,2081.84L824.753,2086.42L831.455,2094L834.093,2097.04L834.194,2097.16L834.176,2098.29L832.965,2098.26L832.844,2098.16L829.722,2095.55L821.923,2088.94L817.22,2084.88L812.464,2080.69L808.016,2076.65L806.022,2074.77L804.24,2073.04L802.562,2071.35L800.857,2069.59L797.403,2065.89L793.962,2062.08L790.616,2058.28L784.54,2051.16L779.922,2045.63L779.838,2045.53L779.848,2045.1L780.307,2045.11L780.412,2045.19Z" style="fill:rgb(80,0,0);"/></g><g transform="matrix(2.18189,0.383216,-0.402716,2.07624,-4266.98,-2643.34)"><path d="M2667.34,966.859C2666.88,967.942 2665.73,970.076 2663.49,970.925C2655.88,973.812 2646.61,968.114 2640.17,962.418C2619.87,944.479 2618.55,911.82 2624.16,886.63C2628.13,868.813 2634.43,850.676 2647.46,839.386C2657.6,830.596 2670.83,826.303 2683.48,821.713C2697.61,816.636 2713.6,812.098 2726.39,817.275C2734.48,820.547 2741.22,831.178 2739.62,839.781C2744.77,842.519 2749.69,845.886 2754.34,849.343C2766.17,858.151 2776.19,869.264 2783.13,882.195C2792.72,900.074 2794.93,921.866 2791.09,942.534C2789.42,951.534 2784.3,959.715 2777.7,965.978C2774.4,969.11 2770,971.032 2766.02,973.469C2756.41,979.325 2746.56,984.529 2735.34,986.727L2735.14,986.766C2713.84,990.394 2686.49,979.334 2667.34,966.859ZM2731.39,839.5C2730.2,840.046 2728.57,840.813 2727.14,841.519C2723.97,843.087 2720.85,844.742 2717.78,846.495C2689.29,862.762 2665.87,888.994 2660.25,923.689C2658.58,933.981 2658.47,944.425 2658.9,954.902C2658.93,955.718 2658.65,955.247 2659.4,956.237C2665.35,960.144 2675.09,966.03 2678.11,967.777C2694.72,977.384 2712.41,983.515 2731.84,979.994C2746.15,977.401 2758.95,969.04 2772.26,961.073C2774.5,959.288 2776.64,956.837 2778.47,954.115C2775.17,954.469 2771.33,954.002 2768.9,954.609C2768.9,954.609 2767.79,954.491 2767.79,954.491C2767.79,954.491 2767.08,953.713 2767.08,953.713L2767.16,952.667C2767.16,952.667 2773.34,951.697 2778.57,950.118C2780.69,949.477 2781.06,946.59 2779.3,942.217L2779.15,941.861L2779.56,940.155C2780.13,940.306 2780.69,940.456 2781.26,940.607C2781.78,941.255 2782.26,941.926 2782.72,942.621C2782.95,942.973 2783.17,943.337 2783.38,943.711C2783.54,943.136 2783.67,942.569 2783.78,942.014C2783.93,941.208 2784.08,940.401 2784.22,939.592C2787.28,921.602 2785.13,902.704 2777.16,886.466C2777,886.13 2776.84,885.795 2776.69,885.46C2767.18,865.532 2750.46,848.751 2731.39,839.5ZM2652.55,958.918C2651.55,959.558 2650.18,959.686 2648.64,959.422C2650.71,960.879 2652.93,962.103 2655.28,963.002C2655.28,963.002 2653.67,961.232 2652.55,958.918ZM2645.51,944.366C2645.41,944.451 2645.3,944.536 2645.19,944.619C2642.81,946.376 2639.44,946.194 2636.09,945.329C2637.79,948.325 2639.84,951.158 2642.26,953.78C2642.74,954.297 2643.23,954.804 2643.73,955.3C2645.98,956.629 2648.28,957.594 2650.09,957.238C2650.09,957.238 2651.11,956.559 2651.24,955.223C2651.63,951.171 2648.7,947.174 2645.51,944.366ZM2651.45,945.397C2651.4,945.41 2651.36,945.422 2651.31,945.434C2651.36,945.499 2651.4,945.564 2651.45,945.629L2651.45,945.397ZM2636.01,929.831C2634.43,931.134 2632.36,930.983 2630.43,930.53C2631.43,934.854 2632.86,939.035 2634.83,942.971C2639.31,944.217 2644.51,944.557 2644.97,940.977C2645.04,940.432 2645.09,941.069 2644.91,940.221C2643.97,936.016 2639.64,932.673 2636.01,929.831ZM2648.64,932.865C2648.01,933.615 2647.09,934.092 2645.8,934.109C2645.04,934.118 2644.29,933.975 2643.56,933.769C2645.44,935.959 2647.49,938.984 2647.11,941.621C2648.09,941.731 2649.25,941.948 2650.4,941.879C2651.19,941.831 2650.77,942.138 2650.76,941.89C2650.77,942.083 2651.03,941.94 2650.76,941.89C2650.76,941.828 2650.78,941.734 2650.85,941.591C2650.85,941.591 2651.14,936.876 2648.64,932.865ZM2652.54,929.858C2652.08,930.207 2651.55,930.517 2650.96,930.781C2650.96,930.781 2650.43,930.196 2651.37,931.542C2651.65,931.951 2651.93,932.389 2652.2,932.848C2652.3,931.85 2652.42,930.853 2652.54,929.858ZM2641.63,919.461C2641.34,919.723 2640.99,919.959 2640.6,920.167C2638.69,921.178 2636.26,920.59 2634.15,919.619C2634.15,919.619 2633.73,919.081 2634.6,920.469C2635.98,922.696 2637.48,925.413 2637.24,927.582C2637.35,927.645 2637.47,927.717 2637.59,927.799C2640.22,929.556 2643.25,931.737 2646.01,931.37C2648.32,931.06 2646.47,931.222 2646.58,931.125C2647.16,930.56 2646.75,931.159 2646.9,930.394C2647.61,926.717 2644.76,922.646 2641.63,919.461ZM2628.57,916.233C2628.74,920.346 2629.18,924.431 2629.97,928.412C2632.11,928.886 2634.03,929.007 2634.77,928.156C2634.8,927.924 2634.9,927.707 2635.07,927.54C2635.11,927.372 2635.12,927.184 2635.1,926.975C2634.76,922.742 2631.53,919.225 2628.57,916.233ZM2653.23,920.395C2653.11,920.453 2652.97,920.508 2652.84,920.558C2650.91,921.276 2648.73,921.174 2646.67,920.738C2646.67,920.738 2648.55,923.76 2649.28,926.172C2649.49,926.862 2649.64,927.607 2649.7,928.354C2651.33,927.807 2652.74,926.775 2653.23,924.952C2653.28,924.607 2653.34,924.261 2653.4,923.916C2653.49,922.743 2653.42,921.56 2653.23,920.395ZM2635.71,903.819C2635.08,904.346 2634.28,904.717 2633.35,904.835C2631.83,905.028 2630.29,904.948 2628.74,904.749C2628.57,907.431 2628.47,910.132 2628.49,912.83C2628.7,912.969 2628.92,913.133 2629.15,913.324C2632.27,915.84 2636.27,918.682 2638.95,917.96C2640.44,917.558 2639.73,917.913 2640.16,916.839C2640.72,915.437 2638.63,908.881 2635.71,903.819ZM2648.13,906.81C2645.44,907.222 2642.54,905.835 2639.63,904.756C2641.48,908.392 2643.54,912.913 2643.17,916.288C2643.68,916.513 2644.2,916.721 2644.72,916.909C2647.43,917.884 2650.62,918.544 2652.62,917.011L2652.7,916.947C2652.72,916.938 2652.72,916.933 2652.7,916.947C2652.69,916.96 2652.66,916.981 2652.66,916.976C2652.82,916.639 2652.93,916.455 2652.99,916.363C2653.21,916.047 2652.95,916.787 2652.97,916.088C2653,912.871 2650.58,909.791 2648.13,906.81ZM2657.38,907.349C2657.08,907.451 2656.77,907.535 2656.43,907.601C2655.04,907.871 2652.96,907.689 2652.96,907.689C2653.08,907.876 2653.2,908.066 2653.32,908.256C2653.79,909.021 2654.25,909.799 2654.66,910.602C2654.87,911.01 2655.06,911.423 2655.25,911.843C2655.38,912.154 2655.51,912.469 2655.62,912.789C2655.66,912.877 2655.69,912.966 2655.72,913.056C2656.22,911.138 2656.78,909.235 2657.38,907.349ZM2654.18,889.726C2654.05,889.805 2653.92,889.881 2653.78,889.955C2652.09,890.865 2650.08,891.09 2648.17,890.684C2648.17,890.684 2652.8,897.844 2651.16,903.824C2653.48,904.408 2656.1,904.699 2657.32,903.333C2658.33,902.197 2658.03,900.492 2657.87,899.135C2657.49,895.747 2656.12,892.458 2654.18,889.726ZM2642.39,888.38C2642.02,888.641 2641.6,888.863 2641.14,889.039C2638.48,890.041 2635.49,890.025 2632.61,889.808C2632.61,889.808 2636.67,896.655 2637.24,899.686C2637.3,900.013 2637.32,900.345 2637.3,900.675C2638.31,900.924 2639.48,901.431 2640.53,901.807C2642.92,902.654 2645.4,904.022 2647.82,903.61C2647.82,903.61 2648.24,898.465 2646.93,895.579C2646.71,895.09 2646.47,894.61 2646.21,894.138C2645.91,893.572 2645.59,893.018 2645.25,892.473C2644.34,891.005 2643.48,889.895 2642.39,888.38ZM2630.39,890.4C2629.8,894.043 2629.37,897.646 2629.03,901.147C2628.97,901.775 2628.92,902.405 2628.87,903.035C2631.11,903.319 2633.33,903.393 2634.73,902.543C2634.75,902.53 2634.84,902.568 2634.96,902.489C2634.84,902.15 2634.74,901.681 2634.94,901.253C2635.03,901.059 2635.15,900.909 2635.3,900.797C2635.02,899.502 2634.29,896.888 2632.96,894.56C2632.15,893.145 2631.28,891.765 2630.39,890.4ZM2663.8,891.775C2663.5,891.827 2663.18,891.858 2662.87,891.865C2661.42,891.897 2659.31,891.361 2659.31,891.361C2659.41,891.556 2659.49,891.753 2659.58,891.95C2660.31,893.589 2660.88,895.411 2661.21,897.219C2662.01,895.382 2662.88,893.567 2663.8,891.775ZM2664.11,874.842C2662.02,875.871 2659.26,875.712 2656.87,874.754C2656.87,874.754 2659.3,881.671 2657.02,886.529C2659.47,887.56 2662.44,888.996 2664.53,887.702C2667.78,885.7 2666.27,879.529 2664.11,874.842ZM2636.82,866.225C2634.05,873.105 2632.16,880.369 2630.87,887.545C2631.1,887.532 2631.36,887.538 2631.66,887.566C2635.53,887.908 2639.72,888.134 2641.49,885.881C2641.55,885.441 2641.73,885.049 2642.08,884.818C2642.45,883.787 2642.48,882.42 2642.07,880.617C2640.99,875.848 2638.99,871.313 2636.81,866.894C2636.81,866.894 2636.78,866.591 2636.82,866.225ZM2651.63,871.124C2650.77,871.651 2649.74,871.982 2648.53,872.047C2645.95,872.187 2643.38,871.198 2641.07,869.919C2641.07,869.919 2643.8,876.674 2644.56,880.671C2644.84,882.145 2644.87,883.7 2644.52,885.086C2644.81,885.233 2645.12,885.416 2645.46,885.641C2647.68,887.094 2651.07,887.773 2653,886.18C2653.1,886.038 2653.22,885.93 2653.35,885.85C2654.03,885.123 2654.46,884.046 2654.5,882.531C2654.61,878.715 2653.29,874.945 2651.69,871.374C2651.69,871.374 2651.66,871.278 2651.63,871.124ZM2672.39,878.156C2671.33,878.269 2670.2,878.116 2669.05,877.622C2669.05,877.622 2669.49,879.686 2669.72,881.861C2670.59,880.602 2671.48,879.367 2672.39,878.156ZM2676.23,861.921C2673.51,862.588 2670.56,862.452 2668.22,860.758C2668.22,860.758 2668.42,868.924 2666.94,871.88C2666.93,871.905 2666.91,871.93 2666.9,871.955C2668.51,873.242 2670.39,874.862 2672.28,874.82C2674.06,874.779 2674.07,873.976 2674.71,872.897C2676.61,869.688 2676.7,865.581 2676.23,861.921ZM2663.22,855.838C2659.07,856.498 2654.86,854.984 2651.11,853.019C2651.11,853.019 2653.56,856.953 2654.62,860.336C2655.51,863.182 2655.26,866.654 2653.7,869.078C2656.05,869.753 2659.64,873.239 2662.44,871.597C2662.73,871.427 2662.98,871.227 2663.21,871C2663.3,870.855 2663.4,870.74 2663.51,870.651C2664.84,868.956 2664.85,866.161 2664.74,863.603C2664.62,860.913 2663.92,858.457 2663.22,855.838ZM2684.95,864.412C2683.11,864.26 2681.26,863.58 2679.55,862.74C2679.55,862.74 2679.47,866.915 2678.93,870.398C2680.86,868.325 2682.87,866.331 2684.95,864.412ZM2645.58,850.315C2642.18,854.882 2639.45,859.907 2637.25,865.176C2637.63,864.838 2638.32,864.83 2639.58,865.755C2640.27,866.252 2640.98,866.719 2641.71,867.147C2642.2,867.436 2642.71,867.707 2643.22,867.956C2643.59,868.136 2643.97,868.303 2644.35,868.455C2644.65,868.573 2644.95,868.682 2645.25,868.779C2645.47,868.847 2645.68,868.91 2645.9,868.966C2648.44,869.622 2651.93,868.634 2652.35,865.484C2653.04,860.275 2649.28,854.78 2645.58,850.315ZM2690.73,850.158C2688.31,850.461 2685.75,850.051 2683.46,848.839C2683.46,848.839 2682.95,851.624 2682.42,853.693C2681.89,855.752 2681.26,857.946 2680.22,859.495C2683.42,861.34 2687.38,862.505 2689.43,859.237C2691.08,856.617 2691.2,853.182 2690.73,850.158ZM2680.32,847.904C2676.22,849.018 2671.7,846.273 2668.62,842.711C2669.36,846.991 2669.68,851.625 2667.05,854.124C2669.01,856.803 2671.2,859.486 2674.82,858.75C2675.78,858.552 2677.12,858.041 2677.12,858.041C2679.23,855.778 2680.06,851.344 2680.32,847.904ZM2698.37,853.732C2696.82,853.721 2695.27,853.29 2693.84,852.328C2693.84,852.328 2693.7,851.659 2693.74,852.788C2693.77,854.303 2693.64,855.905 2693.3,857.421C2694.95,856.152 2696.65,854.923 2698.37,853.732ZM2663.52,835.742C2657.71,838.751 2652.24,842.495 2647.97,847.335C2652.76,850.783 2658.45,853.822 2663.41,852.449C2663.53,852.319 2663.62,852.247 2663.62,852.247C2663.85,852.134 2664.19,852.088 2664.49,852.07C2666.28,851.194 2665.95,848.244 2665.75,846.16C2665.4,842.565 2664.43,839.268 2663.52,835.742ZM2707.08,843.744C2706.36,843.639 2705.66,843.419 2704.98,843.068C2703.44,842.262 2702.22,840.96 2701.23,839.545C2701.23,839.545 2700.16,842.886 2698.8,845.141C2697.72,846.943 2696.11,848.305 2694.23,849.168C2694.37,849.302 2694.52,849.433 2694.66,849.56C2697.37,851.878 2702.22,851.541 2705.48,847.47C2706.34,846.395 2706.94,845.102 2707.08,843.744ZM2713.77,844.402C2712.34,844.42 2710.9,844.283 2709.48,844.03C2709.48,844.03 2709.07,845.723 2708.16,847.517C2710.01,846.441 2711.88,845.403 2713.77,844.402ZM2698.97,837.139C2698.46,837.058 2697.92,836.935 2697.35,836.768C2694.2,835.837 2691.79,833.336 2689.89,830.792C2689.9,830.98 2689.91,831.168 2689.91,831.356C2690.01,836.572 2688.4,842.352 2684.35,845.715C2688.03,848.224 2693.84,847.947 2696.59,843.173C2697.66,841.299 2698.42,839.245 2698.97,837.139ZM2686.34,825.88C2679.68,828.265 2673.18,831.102 2666.83,834.117C2670.08,840.256 2675.08,847.289 2680.91,844.175C2681.12,844.02 2681.29,843.934 2681.29,843.934C2681.31,843.929 2681.33,843.925 2681.35,843.92C2681.44,843.865 2681.53,843.808 2681.62,843.748C2686.88,840.219 2687.68,832.538 2686.34,825.88ZM2723.78,836.574C2722.33,836.355 2720.37,835.898 2719.11,834.949C2718.69,834.632 2718.12,833.79 2718.06,834.455C2717.74,837.569 2715.7,840.48 2713.07,842.204C2716.87,842.385 2720.68,841.425 2722.85,838.286C2723.38,837.508 2723.55,836.947 2723.78,836.574ZM2715.66,831.997C2712.45,831.434 2709.72,828.423 2707.99,825.111C2707.99,825.111 2707.88,824.034 2707.81,825.489C2707.57,829.838 2706.7,835.331 2702.75,836.852C2702.82,836.984 2702.9,837.115 2702.97,837.245C2703.14,837.544 2703.32,837.837 2703.52,838.122C2703.66,838.333 2703.81,838.54 2703.97,838.742C2705.72,841.007 2708.9,842.099 2712.26,839.649C2714.67,837.889 2716.33,834.926 2715.66,831.997ZM2727.07,838.064C2726.91,838.038 2726.74,838.009 2726.56,837.979C2726.4,837.952 2726.24,837.925 2726.07,837.902C2725.11,837.773 2724.72,838.476 2724.32,839.267C2725.24,838.858 2726.15,838.457 2727.07,838.064ZM2735.78,833.917C2735.66,833.954 2735.54,833.986 2735.41,834.012C2735.22,834.048 2735.04,834.065 2734.86,834.065C2735.07,834.894 2735.19,835.739 2734.98,836.462C2735.56,836.817 2736.09,837.255 2736.6,837.616C2736.54,836.968 2736.51,836.882 2736.45,836.545C2736.29,835.668 2736.06,834.788 2735.78,833.917ZM2730.54,831.074C2730.77,830.362 2730.45,830.976 2730.45,830.976C2730.48,831.008 2730.51,831.041 2730.54,831.074C2730.45,831.331 2730.3,831.761 2730.03,832.455C2729.44,833.957 2728.28,835.211 2726.97,836.072C2728.01,836.262 2729.08,836.587 2730.19,836.73C2731.22,836.325 2732.2,835.952 2732.3,835.912C2732.38,835.888 2732.45,835.868 2732.53,835.848C2732.81,835.796 2733.08,835.791 2733.34,835.823C2733.46,835.048 2733.26,834.252 2733.01,833.472C2732.05,832.85 2731.24,831.857 2730.54,831.074ZM2728.24,829.038C2728.07,829.048 2727.9,829.046 2727.72,829.03C2724.91,828.786 2723.33,825.901 2722.12,823.734C2722.12,823.734 2722.74,830.212 2718.65,831.761C2719.23,832.253 2719.84,832.786 2720.42,833.243C2721.73,834.27 2723.36,835.423 2724.79,834.935C2726.03,834.511 2726.07,834.223 2726.48,833.897C2727.9,832.795 2728.73,831.031 2728.24,829.038ZM2705.53,820.572C2703.75,820.899 2701.99,821.286 2700.24,821.703C2696.63,822.563 2693.07,823.6 2689.54,824.775C2692.42,830.606 2696.94,836.959 2702.87,833.547C2703.64,833.108 2703.47,833.215 2703.76,832.776C2705.81,829.518 2705.71,825.07 2705.53,820.572ZM2731.76,826.408C2731.37,827.054 2730.91,827.66 2730.37,828.127C2730.51,828.307 2730.67,828.504 2730.84,828.72C2731.98,830.132 2733.11,831.692 2734.66,832.328C2734.89,832.421 2735.07,832.412 2735.21,832.352C2734.34,830.218 2733.16,828.18 2731.76,826.408ZM2719.95,819.848C2716.15,819.354 2712.26,819.546 2708.37,820.104C2709.92,825.052 2712.55,830.807 2717.6,829.975C2717.96,829.914 2717.97,829.917 2718.31,829.736C2718.47,829.648 2718.08,830.041 2718.75,829.414C2720.97,827.343 2720.59,823.336 2719.95,819.848ZM2722.28,820.243C2723.48,823.352 2725.03,826.515 2727.43,827.394C2727.43,827.394 2728.99,826.708 2729.09,826.646C2729.62,826.308 2730.2,825.829 2730.71,825.163C2728.7,822.956 2726.36,821.313 2723.97,820.653C2723.41,820.499 2722.84,820.362 2722.28,820.243Z" style="fill:rgb(80,0,0);"/></g></g><g transform="matrix(-0.519776,0,0,0.555765,1852.62,144.085)"><g><g transform="matrix(-0.348949,0.851223,0.907092,0.384955,-324.944,-1241.32)"><path d="M670.31,2085.62C665.091,2120.15 709.399,2279.25 879.096,2277.68C900.272,2277.48 913.01,2289.35 917.537,2280.09C927.057,2260.62 929.179,2261.26 932.479,2257.85C942.864,2247.12 955.047,2235.8 970.174,2219.06C1021.33,2162.46 1026.11,2077.08 980.924,2000.67C950.356,1948.97 702.278,1874.12 670.31,2085.62Z" style="fill:rgb(202,104,39);"/></g><g transform="matrix(0.348949,-0.851223,0.907092,0.384955,-912.575,176.927)"><path d="M995.706,2122.05C996.67,2115.91 976.125,2088.59 975.894,2091.24C971.646,2139.86 941.262,2183.13 905.839,2218.59C879.897,2244.56 850.6,2269.59 815.164,2279.47C812.528,2280.2 809.057,2280.81 809.057,2280.81L807.008,2281.17C790.57,2284.98 908.793,2290.88 961.43,2198.57C982.066,2162.38 989.709,2160.29 995.706,2122.05Z" style="fill:rgb(224,152,105);"/></g><g transform="matrix(0.982834,4.99412e-17,0,1,447.066,-1820.02)"><path d="M943.567,2136.19C930.789,2115.7 808.309,1999.82 812.831,2010.04C830.932,2038.62 948.071,2151.98 954.431,2156.64C959.7,2162.12 964.631,2160.63 960.196,2156.03C958.274,2153.69 946.599,2139.78 943.567,2136.19Z" style="fill:rgb(224,152,105);"/></g><g transform="matrix(0.703737,-4.99412e-17,0,0.677283,654.054,-1157.04)"><path d="M809.84,2006.56C804.709,2007.47 823.342,2021.62 829.751,2028.86C844.526,2045.55 859.036,2062.44 873.877,2078.38L877.266,2081.97L879.494,2084.32C901.429,2106.77 924.304,2127.81 947.114,2149.1C947.114,2149.1 952.691,2154.26 957.004,2158.24C961.58,2162.88 964.418,2160.31 960.119,2155.95C956.59,2151.68 952.541,2146.85 952.541,2146.85C935.563,2126.74 918.522,2106.86 900.591,2087.11C900.591,2087.11 895.197,2081.28 890.417,2076.32C890.417,2076.32 885.264,2071.08 879.915,2065.83C879.915,2065.83 869.576,2055.95 858.985,2046.24C858.985,2046.24 847.598,2036.09 847.598,2036.09C843.571,2032.6 839.529,2029.13 835.465,2025.69C827.753,2019.15 820.358,2011.86 811.636,2007.13C811.079,2006.83 810.48,2006.51 809.84,2006.56Z" style="fill:rgb(224,152,105);"/></g><g transform="matrix(0.982834,9.98824e-17,0,1,447.066,-1820.02)"><path d="M753.801,2065.61C749.876,2061.99 697.816,2161.11 705.555,2170.78C742.353,2216.79 728.828,2213.78 789.931,2246.63C828.135,2267.16 864.959,2265.63 899.238,2258.39C918.968,2254.23 933.855,2245.3 957.918,2244.97C975.808,2244.71 987.654,2238.93 995.066,2231.55C1011.37,2215.32 1006.21,2191.34 996.706,2201.43C968.922,2230.95 956.526,2226.86 918.186,2221.92C884.884,2217.63 853.266,2204.43 827.993,2182.7C786.309,2146.84 793.634,2102.33 753.801,2065.61Z" style="fill:rgb(151,69,15);"/></g><g transform="matrix(-0.348065,0.849065,0.879154,0.373099,-278.472,-1214.4)"><path d="M664.186,2124.79C782.052,1960.96 911.3,1986.09 973.344,2000.58C981.109,2002.39 991.53,2024.73 992.048,2024.57C1009.97,2018.83 997.672,1932.15 895.986,1913.39C847.685,1904.48 810.201,1908.17 775.256,1914.96C715.817,1926.5 697.376,1955.27 663.197,2005.77C636.786,2044.8 624.978,2078.38 627.003,2100.22C628.312,2114.32 650.959,2138.04 666.921,2137.9C670.041,2137.87 662.428,2127.24 664.186,2124.79Z" style="fill:rgb(118,9,9);"/></g><g transform="matrix(0.348065,-0.849065,0.879154,0.373099,-857.909,194.606)"><path d="M734.478,1920.87C751.042,1916.05 774.857,1905.87 832.286,1905.75C853.023,1905.71 832.508,1924.28 825.388,1947.19C817.869,1971.39 822.951,1999.95 816.685,1997.48C800.051,1990.92 750.772,1988.21 712.351,1997.22C684.673,2003.7 662.269,2019.78 661.6,2017.65C645.545,1966.55 733.241,1925.02 734.478,1920.87Z" style="fill:rgb(88,17,17);"/></g><g transform="matrix(-1.89088,0,0,1.79932,2724.18,-3599.48)"><path d="M843.943,2014.09C843.943,2014.09 841.641,2036.2 837.726,2053.61C835.834,2062.03 828.512,2068.22 830.518,2072.45C831.69,2074.91 838.283,2090.01 840.66,2084.75C843.112,2079.32 847.31,2047.67 850.973,2050.37C853.712,2052.39 856.648,2056.16 859.558,2060.68C868.8,2075.03 895.015,2104.22 896.624,2101.39C897.991,2098.98 903.552,2089.74 903.606,2088.04C903.765,2083.04 872.499,2069.16 863.426,2051.35C856.897,2038.53 862.584,2012.25 861.734,2008.05C858.368,1991.45 845.006,2001.16 843.943,2014.09Z" style="fill:rgb(118,9,9);"/></g><g transform="matrix(0.348065,-0.849065,0.879154,0.373099,-856.001,194.41)"><path d="M1034.25,2111.3C1037.81,2101.92 1029.07,2053.33 1012.11,2024.16C1008.71,2018.31 978.502,1968.88 951.084,1944.62C952.166,1937.93 872.59,1902.33 871.621,1908.32C881.282,1915.78 933.38,1944.6 957.695,1973.41C981.228,2001.29 1016.17,2048.76 1019.67,2077.96C1021.27,2086.75 1024.04,2110.65 1024.04,2110.65C1024.04,2110.65 1023.44,2118.17 1023.44,2118.17L1029.71,2116.89L1034.25,2111.3Z" style="fill:rgb(195,136,136);"/></g><g transform="matrix(-1.89088,0,0,1.79932,6013.19,-1364.15)"><path d="M2604.05,808.098C2612.15,824.85 2624,827.871 2626.8,830.475C2632.31,835.595 2643.41,846.927 2640.39,846.281C2635.48,845.235 2611.15,823.348 2605.28,817.544C2605.28,817.544 2595.43,805.642 2595.86,798.631C2597.68,768.751 2594.91,762.671 2590.44,758.203C2585.2,752.952 2599.43,760.601 2599.45,757.175C2599.45,757.095 2599.46,757.213 2599.46,757.213C2599.46,757.213 2602.94,762.319 2603.41,765.785C2604.22,771.692 2596.91,793.316 2604.05,808.098Z" style="fill:rgb(195,136,136);"/></g></g><g transform="matrix(0.982834,0,0,1,501.341,-1829.09)"><path d="M769.731,2030.31C769.731,2030.31 780.635,2042.55 780.635,2042.55C785.415,2047.82 790.183,2053.1 794.975,2058.35C799.455,2063.27 806.24,2070.6 810.781,2075.45C819.184,2084.42 828.279,2093.83 834.748,2100.24C842.603,2108.02 846.807,2112.14 854.82,2119.9C865.958,2130.69 877.182,2141.4 888.438,2152.09C891.868,2155.46 892.785,2154.02 889.711,2150.99L883.517,2144.22C878.3,2138.56 873.093,2132.88 867.866,2127.22C862.314,2121.22 854.064,2112.37 848.465,2106.43C842.626,2100.24 812.885,2070.29 806.242,2063.91C793.847,2052.01 781.825,2040.8 770.15,2029.9C770.15,2029.9 768.728,2028.71 769.731,2030.31Z" style="fill:rgb(80,0,0);"/></g><g transform="matrix(0.982834,0,0,1,480.829,-1821.58)"><path d="M779.838,2045.53L779.922,2045.63L784.54,2051.16L790.616,2058.28L793.962,2062.08L797.403,2065.89L800.857,2069.59L802.562,2071.35L804.24,2073.04L806.022,2074.77L808.016,2076.65L812.464,2080.69L817.22,2084.88L821.923,2088.94L829.722,2095.55L832.844,2098.16L832.965,2098.26L834.176,2098.29L834.194,2097.16L834.093,2097.04L831.455,2094L824.753,2086.42L820.629,2081.84L816.368,2077.2L812.256,2072.86L810.344,2070.91L808.576,2069.17L806.848,2067.52L805.04,2065.85L801.253,2062.45L797.34,2059.06L793.428,2055.76L786.11,2049.76L780.412,2045.19L780.307,2045.11L779.848,2045.1L779.838,2045.53Z" style="fill:rgb(80,0,0);"/></g><g transform="matrix(-1.89088,0,0,1.79932,6013.19,-1364.15)"><path d="M2566.91,826.107C2568.09,820.99 2572.8,816.835 2574.2,810.644C2577.1,797.645 2578.68,784.576 2580.15,771.328C2581.27,761.772 2588.89,750.904 2597.36,754.929C2602.58,757.408 2603.92,765.092 2603.43,769.853C2602.16,782.062 2599.05,794.678 2603.48,806.674C2607.32,817.047 2617.5,824.42 2625.6,829.71C2631.61,833.635 2638.29,836.559 2643.57,841.441C2646.02,843.709 2645.95,847.283 2643.58,852.356C2642.69,854.259 2641.75,856.14 2640.81,858.017L2639.28,860.974C2637.75,863.568 2637.27,863.173 2635.31,863.047C2630.82,862.757 2627.51,858.511 2625.07,856.091C2613.92,845.062 2603.95,833.025 2595.44,819.478C2593.99,817.186 2592.45,814.922 2590.64,812.881C2590.64,812.881 2588.46,819.746 2587.12,825.608C2585.89,831.165 2585.01,836.836 2583.25,842.208C2583.11,842.648 2582.94,843.088 2582.74,843.509C2596.44,863.07 2605.29,886.371 2608.08,909.078C2609.91,923.944 2607.99,939.336 2601.17,952.595C2595.71,963.206 2587.52,973.228 2575.85,976.316C2572.29,977.258 2567.99,977.092 2565.35,974.054C2565.35,974.054 2564.97,973.963 2564.63,972.988C2547.87,991.555 2526.01,1006.01 2500.37,1009.47C2493.61,1010.38 2488.78,1010.42 2482.6,1009.78C2479.02,1009.41 2475.46,1008.81 2471.96,1007.98C2460.74,1005.32 2449.97,1000.45 2439.26,996.398C2433.72,994.22 2424.43,996.421 2421.26,990.848C2418.17,985.425 2419.99,979.171 2417.18,972.066C2408.49,949.791 2406.14,925.088 2412.46,902.082C2417.52,883.653 2428.95,866.197 2442.12,852.914C2446.98,848.01 2449.96,844.552 2454.23,841.324C2454.15,841.096 2454.07,840.849 2454,840.58C2451.11,829.947 2458.39,816.207 2465.92,812.131C2474.18,807.66 2484.06,806.766 2493.38,806.785C2503.29,806.847 2513.08,808.361 2522.88,810.115C2538.36,812.904 2553.91,816.221 2566.91,826.107ZM2572,958.052C2572.02,957.968 2572.04,957.884 2572.06,957.799L2572.06,957.782C2568.16,930.21 2559.82,902.987 2539.67,881.356C2524.77,865.373 2505.88,854.085 2485.55,846.365C2478.33,843.624 2470.93,841.332 2463.46,839.44C2462.17,839.116 2456.98,844.997 2453.93,847.947C2437.96,863.385 2425.85,883.088 2420.71,904.313C2420.62,904.635 2420.53,904.957 2420.45,905.28C2414.94,926.64 2417.43,949.484 2425.6,970.12C2426.24,971.777 2426.36,972.225 2426.66,973.284C2426.98,974.467 2427.21,975.667 2427.39,976.878C2429.21,979.267 2431.5,981.06 2434.67,981.774C2434.93,981.685 2437.41,982.782 2435.39,984.747C2434.3,985.044 2433.71,985.05 2433.05,984.944C2431.26,984.656 2429.6,983.973 2428.09,983.018C2428.2,983.975 2428.34,984.932 2428.51,985.886C2428.51,985.886 2432.39,985.997 2435.61,986.425C2439.14,986.894 2442.42,988.441 2445.8,989.747C2459.49,995.059 2473.15,1000.96 2487.96,1001.61C2511.26,1003.14 2534.88,994.028 2553.54,978.876C2560.33,973.355 2566.55,965.196 2572,958.052ZM2580.26,960.778C2579.72,962.485 2578.82,964.147 2577.88,965.716C2577.88,965.716 2583.43,961.536 2583.64,961.34C2582.47,961.541 2581.33,961.394 2580.26,960.778ZM2596.01,941.447C2592.06,943.265 2587.75,944.335 2585,942.449C2581.85,947.038 2579.18,952.651 2581.23,956.999C2582.68,960.071 2581.5,958.014 2582.64,958.063C2584.89,958.162 2587.16,956.703 2589.3,954.803C2592.19,950.735 2594.39,946.218 2596.01,941.447ZM2578.59,944.322L2578.79,945.356C2579.08,944.743 2579.21,944.333 2578.85,944.341C2578.85,944.341 2578.75,944.339 2578.59,944.322ZM2582.5,938.333C2581.95,935.541 2583.47,932.445 2585.09,929.514C2585.09,929.514 2581.6,931.333 2579.15,929.631C2577.7,932.89 2577.23,936.473 2578.24,939.688C2578.65,941.026 2580.59,939.614 2582.5,938.333ZM2599.46,923.065C2596.9,924.071 2594.44,924.489 2592.78,923.318C2592.73,923.379 2592.68,923.44 2592.63,923.501C2589.49,927.428 2586.13,931.534 2585.12,936.238C2584.99,936.867 2584.95,937.274 2584.97,937.58C2585.01,937.593 2585.06,937.608 2585.11,937.625C2586.11,937.996 2586.53,938.805 2586.34,939.856C2588.62,941.339 2593.17,940.181 2596.94,938.441C2598.34,933.468 2599.15,928.273 2599.46,923.065ZM2574.28,927.206C2574.57,928.109 2574.84,929.014 2575.1,929.921C2575.4,929.208 2575.71,928.521 2576.03,927.874C2576.03,927.874 2575.28,927.681 2574.28,927.206ZM2591.08,920.695C2590.18,917.551 2591.94,914.038 2593.16,911.152C2593.16,911.152 2588.02,914.844 2584.4,912.615C2583.58,914.1 2582.51,915.779 2581.8,917.377C2580.5,920.343 2579.29,923.852 2580.74,926.669C2580.74,926.669 2581.65,927.343 2582.28,927.205C2585.66,926.41 2588.42,923.559 2591.08,920.695ZM2572.62,922.178C2573.44,923.455 2574.78,924.358 2576.9,924.622C2576.63,921.431 2577.64,918.162 2578.98,915.166C2578.98,915.166 2574.95,917.057 2571.42,916.426C2571.4,917.447 2572.29,921.243 2572.62,922.178ZM2598.79,906.215C2598.36,906.893 2597.93,907.59 2597.54,908.277C2595.41,912.122 2592.92,916.556 2593.53,920.184C2593.78,920.327 2593.97,920.573 2594.04,920.973C2594.38,921.295 2594.9,921.599 2595.64,921.563C2596.97,921.497 2598.28,921.121 2599.57,920.593C2599.7,915.726 2599.42,910.876 2598.79,906.215ZM2581.9,909.315C2580.76,906.089 2581.81,902.179 2582.52,899.078C2582.89,897.48 2583.54,895.251 2583.54,895.251C2580.47,897.075 2577.17,899.307 2574.17,899.43C2574.11,899.56 2574.04,899.694 2573.97,899.833C2572.12,903.443 2569.8,907.571 2570.54,911.08L2571.72,912.418C2574.59,913.484 2578.6,911.633 2581.9,909.315ZM2596.09,892.924C2593.05,893.937 2589.91,894.634 2587.74,893.629C2585.91,898.685 2583.72,904.744 2585.15,908.568C2585.41,908.789 2585.54,909.081 2585.56,909.43C2585.66,909.619 2585.57,909.428 2585.63,909.501C2585.8,909.712 2588.22,910.676 2590.7,909.132C2593.57,907.335 2595.99,904.778 2598.05,902.181C2598.07,902.156 2598.1,902.12 2598.13,902.076C2598.02,901.465 2597.9,900.857 2597.78,900.254C2597.27,897.8 2596.71,895.355 2596.09,892.924ZM2566.66,907.733C2567.06,905.565 2567.99,903.41 2568.77,901.504C2568.77,901.504 2566.32,902.287 2563.72,901.974C2564.74,903.867 2565.72,905.787 2566.66,907.733ZM2570.07,896.589C2569.82,896.164 2569.59,895.684 2569.4,895.146C2567.83,890.508 2569,885.432 2570.71,880.851C2570.71,880.851 2567.12,881.975 2563.62,880.929C2561.64,885.294 2560.65,890.164 2561.58,894.878C2561.6,895.02 2561.63,895.162 2561.67,895.303C2562.34,898.077 2566.28,898.178 2570.07,896.589ZM2585.18,890.106C2584.7,887.621 2585.73,884.84 2586.43,882.55C2587.06,880.495 2587.81,878.476 2588.59,876.471C2584.81,877.497 2580.1,878.294 2576.82,877.017C2573.79,883.264 2570.72,890.502 2573.79,895.629C2573.79,895.629 2577.67,894.435 2581.03,892.524C2582.46,891.707 2584.24,890.664 2585.18,890.106ZM2591.08,876.881C2590.72,877.739 2590.37,878.6 2590.03,879.466C2588.7,882.869 2586.95,886.727 2587.44,889.702C2588.09,890 2588.62,891.613 2588.63,891.617C2588.82,891.696 2588.71,891.651 2588.72,891.654C2590.77,892.433 2593.14,891.91 2595.6,891.064C2594.32,886.272 2592.81,881.535 2591.08,876.881ZM2556.84,890.75C2556.96,888.439 2557.42,886.095 2557.96,884.018C2557.96,884.018 2555.62,885.201 2552.87,885.343C2554.24,887.105 2555.57,888.909 2556.84,890.75ZM2559.35,878.02C2556.46,874.317 2556.78,869.011 2557.22,864.661C2557.22,864.661 2557.8,863.976 2556.81,864.579C2554.42,865.989 2551.64,866.272 2549.1,865.289C2547.94,869.612 2547.03,874.242 2548.89,878.379C2548.97,878.547 2549.05,878.713 2549.14,878.876C2550.91,882.116 2555.67,880.659 2559.35,878.02ZM2573.43,873.719C2573.3,873.398 2572.82,871.085 2572.77,870.275C2572.74,869.838 2572.72,867.892 2572.74,867.357C2572.9,863.404 2573.59,859.491 2574.41,855.608C2574.41,855.608 2571.77,857.309 2571.44,857.504C2568.84,859.047 2565.35,859.787 2562.39,858.884C2562.41,859.388 2562.35,859.974 2562.21,860.641C2560.82,867.541 2560.26,875.849 2565.64,877.289C2568.45,878.04 2570.99,875.912 2573.43,873.719ZM2578.63,851.328C2578.51,851.82 2578.35,852.337 2578.21,852.837C2576.55,859.236 2574.3,866.012 2575.86,872.269C2575.91,872.458 2575.97,872.636 2576.04,872.803C2576.66,873.02 2577.18,873.538 2577.37,874.294C2580.1,875.942 2585.71,874.781 2589.77,873.516C2586.7,865.836 2582.99,858.4 2578.63,851.328ZM2543.78,875.085C2543.65,873.441 2543.7,871.784 2543.86,870.255C2543.86,870.255 2542.24,871.281 2540.05,871.541C2541.25,872.634 2542.43,873.755 2543.6,874.904L2543.78,875.085ZM2545.3,862.589C2543.1,860.102 2541.52,856.155 2541.28,850.591C2541.28,850.591 2537.44,853.773 2533.24,853.703C2533.05,853.7 2532.86,853.693 2532.67,853.683C2532.88,856.726 2532.85,860.929 2535.44,864.867C2535.61,865.124 2535.79,865.375 2535.98,865.616C2536.14,865.811 2536.3,865.999 2536.47,866.18C2537.71,867.517 2539.9,867.931 2541.57,866.736C2543.08,865.654 2544.3,864.188 2545.3,862.589ZM2530.3,863.582C2529.83,862.243 2529.41,860.692 2529.06,858.9C2528.78,857.448 2528.53,855.265 2528.53,855.265C2528.37,855.386 2528.21,855.503 2528.05,855.62C2526.39,856.799 2524.47,857.787 2522.5,858.274C2525.16,859.947 2527.76,861.715 2530.3,863.582ZM2559.24,857.014C2558.9,856.667 2558.57,856.276 2558.28,855.838C2554.99,850.925 2557.03,843.737 2559.27,837.995C2555.35,841.117 2550.73,843.793 2545.84,843.855C2545.3,849.455 2545.16,855.196 2548,859.811C2549.9,862.892 2555.03,861.5 2558.77,857.378C2558.77,857.378 2558.95,857.198 2559.24,857.014ZM2632.86,857.012C2632.86,857.012 2632.75,857.193 2632.75,857.193C2632.75,857.193 2633.07,856.707 2632.86,857.012ZM2565.22,833.945C2564.54,835.174 2563.81,836.474 2563.26,837.756C2560.21,844.773 2557.34,854.689 2564.23,856.063C2568.05,856.823 2571.43,853.909 2573.97,851.542C2574.86,850.711 2576.07,849.364 2576.07,849.364C2576.07,849.364 2576.55,849.046 2577.13,848.941C2575.77,846.839 2574.36,844.771 2572.89,842.741C2570.61,839.591 2568.04,836.624 2565.22,833.945ZM2527.09,851.69C2525.34,850.007 2524.17,847.416 2523.12,845.085C2522.37,843.43 2521.69,841.74 2521.11,840.018C2520.97,840.125 2520.84,840.229 2520.7,840.331C2518.47,841.993 2515.74,843.066 2512.97,843.319C2513.21,847.738 2514.28,852.525 2517.89,854.593C2520.63,856.161 2524.27,854.169 2527.09,851.69ZM2578.45,837.706C2580.79,828.186 2581.3,818.193 2585.05,808.975C2586.26,805.997 2588.73,801.963 2594.09,806.768C2597.57,809.888 2600.16,813.84 2602.87,817.728C2611.68,830.23 2622.14,841.443 2632.55,851.932C2633.45,852.827 2634.78,854.066 2634.78,854.066C2636.57,851.379 2638.42,848.701 2639.87,845.871C2639.87,845.871 2638.77,844.219 2637.12,842.784C2634.12,840.192 2630.95,837.825 2627.83,835.383C2627.83,835.383 2623.5,832.003 2620.43,829.576C2611.54,822.489 2602.13,815.008 2599.28,803.846C2596.33,792.29 2598.57,779.802 2598.82,767.943C2598.85,766.538 2598.72,766.037 2598.75,766.241C2598.12,763.478 2597.05,760.124 2594.75,759.704C2591.95,759.193 2589.9,762.136 2588.42,765.063C2587.27,767.32 2586.81,769.846 2586.52,772.365C2584.99,785.675 2583.05,798.923 2580.06,811.956C2578.7,817.716 2574.29,822.424 2572.68,827.678C2572.32,828.835 2573.02,829.834 2573.48,830.835C2573.82,831.568 2578.05,837.2 2578.45,837.706ZM2511.51,852.044C2510.72,850.219 2510.22,848.211 2509.94,846.22C2509.94,846.22 2507.9,848.106 2504.73,848.79C2507.02,849.82 2509.28,850.904 2511.51,852.044ZM2541.05,842.843C2537.61,840.696 2536.92,834.853 2536.86,829.834C2536.32,830.757 2536.28,830.81 2536.01,831.219C2533.39,835.219 2529.18,838.365 2524.57,838.195C2525.44,840.803 2527.37,845.793 2529.73,848.735C2530.43,849.612 2532.53,849.932 2533.24,849.945C2534.65,849.971 2536,849.441 2537.16,848.636C2539.13,847.277 2540,845.194 2541.05,842.843ZM2508.56,842.982C2508,842.837 2507.45,842.65 2506.91,842.419C2503.11,840.792 2500.62,836.984 2498.59,833.061C2497.43,835.684 2495.3,837.845 2492.69,838.856C2493.05,839.998 2493.95,842.141 2495.87,843.596C2498.37,845.493 2501.68,846.781 2504.32,846.094C2506.07,845.638 2507.5,844.407 2508.56,842.982ZM2492,843.684C2491.17,842.621 2490.52,841.415 2490.12,840.073C2490.12,840.073 2487.63,840.941 2485.21,841.412C2487.49,842.127 2489.76,842.883 2492,843.684ZM2541.33,820.538C2541.25,821.087 2541.15,821.654 2541.1,822.227C2540.65,827.738 2539.6,833.755 2542.14,838.558C2542.41,839.063 2542.8,839.433 2543.29,839.686C2543.39,839.683 2543.51,839.674 2543.65,839.648L2544.93,840.097C2547.99,840.297 2552.7,838.22 2556.34,835.488C2558.23,834.076 2560,832.514 2561.64,830.826C2558.77,828.53 2555.67,826.531 2552.35,824.915C2548.8,823.183 2545.11,821.751 2541.33,820.538ZM2519.4,836.597C2513.97,833.489 2510.72,827.018 2509.78,820.619C2509.78,820.619 2508.45,823.232 2507.2,824.894C2505.59,827.039 2503.24,828.905 2500.61,829.733C2502.75,834.307 2505.67,839.036 2510.05,839.601C2513.41,840.034 2517.01,838.973 2519.4,836.597ZM2485.77,838.721C2485.73,838.705 2485.69,838.688 2485.65,838.671C2482.06,837.129 2478.93,834.279 2477.96,830.475C2477.96,830.475 2475.86,832.903 2474.41,833.908C2473.7,834.403 2472.96,834.785 2472.16,834.987C2473.48,836.356 2476.34,838.854 2479.93,839.232C2481.88,839.437 2483.85,839.221 2485.77,838.721ZM2459.1,836.512C2458.81,835.971 2458.63,835.35 2458.61,834.689C2458.6,834.361 2458.61,834.033 2458.63,833.706C2458.3,833.758 2457.96,833.761 2457.63,833.708L2457.58,833.97C2457.33,835.429 2457.2,836.921 2457.34,838.399C2457.34,838.399 2458.02,837.343 2459.1,836.512ZM2471.49,837.628C2471.12,837.218 2470.8,836.777 2470.51,836.305C2470.51,836.305 2469.72,836.592 2468.61,836.957C2469.57,837.174 2470.53,837.398 2471.49,837.628ZM2496.35,830.078C2495.3,829.908 2494.24,829.536 2493.21,828.923C2489.91,826.972 2488.87,822.249 2487.8,817.544C2487.74,817.736 2487.68,817.927 2487.62,818.118C2487.33,819.042 2487.01,819.954 2486.61,820.84C2485.37,823.662 2483.16,826.464 2480.31,827.522C2480.15,833.06 2487.27,838.261 2491.82,836.359C2494.19,835.365 2495.6,832.799 2496.35,830.078ZM2512.86,814.337C2512.81,822.018 2514.94,830.269 2521.5,833.522C2522.18,833.218 2522.97,833.63 2523.5,834.306C2524.55,834.6 2525.64,834.704 2526.71,834.43C2530.31,833.51 2532.43,829.997 2534.03,827.013C2535.33,824.558 2536.39,821.965 2537.18,819.299C2529.24,817.091 2520.99,815.684 2512.86,814.337ZM2476.76,827.871C2473.51,827.282 2471.78,823.278 2471.14,819.35C2471.14,819.35 2469.54,823.251 2468.52,824.576C2467.72,825.616 2466.48,826.29 2465.16,826.444C2465.14,826.499 2465.13,826.557 2465.12,826.619C2464.68,829.481 2467.36,831.913 2470.12,832.765C2471.4,833.159 2470.39,832.91 2471.06,832.808C2473.42,832.386 2475.2,830.263 2476.76,827.871ZM2460.56,824.487C2459.38,826.882 2458.52,829.515 2457.95,832.137C2459.07,832.529 2459.63,831.687 2460.11,830.755C2461.19,828.678 2461.43,828.168 2462.55,826.039C2462.13,825.845 2461.73,825.585 2461.35,825.252C2461.07,825.011 2460.81,824.754 2460.56,824.487ZM2489.58,811.985C2490.37,816.721 2491.18,821.735 2493.78,825.326C2494.02,825.667 2494.21,825.917 2494.62,826.217C2494.62,826.217 2497.52,827.597 2500.11,826.669C2504.95,824.938 2506.96,819.514 2508.43,815.088C2508.59,814.631 2508.73,814.153 2508.87,813.685C2502.53,812.689 2495.95,811.961 2489.58,811.985ZM2486.22,812.07C2481.63,812.293 2477.19,812.963 2473.09,814.27C2473.15,816.737 2473.01,820.287 2474.72,823.438C2476.96,827.574 2482.93,824.473 2485.01,817.747C2485.58,815.897 2485.98,813.993 2486.22,812.07ZM2470.23,815.308C2469.58,815.576 2468.93,815.862 2468.3,816.168C2465.33,817.609 2463.05,820.081 2461.34,823.04C2461.72,823.338 2462.16,823.682 2462.65,824.076C2462.75,824.159 2462.86,824.239 2462.97,824.316C2463.13,824.426 2463.3,824.509 2463.5,824.573C2463.87,824.279 2465.22,824.706 2465.24,824.739C2465.54,824.718 2465.74,824.684 2465.74,824.684C2468.53,823.041 2469.56,819.296 2470.23,815.308ZM2460.75,835.647C2461.08,835.555 2461.43,835.511 2461.8,835.533C2461.8,835.533 2462.42,835.452 2463.82,835.924L2464.36,836.036C2465.64,835.616 2466.9,834.98 2468.13,834.537C2467.92,834.449 2467.71,834.35 2467.49,834.24C2465.5,833.238 2463.71,831.6 2463.09,829.386C2463.09,829.386 2462.27,831.128 2461.14,832.277C2461.14,832.319 2460.62,832.731 2460.61,832.774C2460.49,833.841 2460.64,835.428 2460.64,835.428L2460.75,835.647Z" style="fill:rgb(80,0,0);"/></g></g><g transform="matrix(0.390356,0,0,0.390356,807.548,222.292)"><g><g transform="matrix(-0.348949,0.851223,0.907092,0.384955,-324.944,-1241.32)"><path d="M670.31,2085.62C651.493,2119.04 693.704,2224.57 873.026,2279.56C885.807,2283.48 918.721,2269.24 932.479,2257.85C943.977,2248.32 955.047,2235.8 970.174,2219.06C1021.33,2162.46 1026.11,2077.08 980.924,2000.67C950.356,1948.97 775.27,1899.24 670.31,2085.62Z" style="fill:rgb(202,104,39);"/></g><g transform="matrix(0.982834,-7.11032e-17,6.98826e-17,1,447.066,-1820.02)"><path d="M712.685,2187.7C688.851,2158.26 750.859,2042.09 752.726,2060.75C765.477,2097.45 756.494,2076.3 774.453,2112.37C796.188,2156.03 832.954,2192.17 879.318,2211.53C921.627,2229.19 955.672,2241.19 996.038,2219.54C1010.51,2211.78 961.965,2251.76 919.42,2258.36C818.845,2273.97 755.611,2240.71 712.685,2187.7Z" style="fill:rgb(151,69,15);fill-opacity:0.98;"/></g><g transform="matrix(0.348949,-0.851223,0.907092,0.384955,-912.575,176.927)"><path d="M974.147,2089.82C974.147,2089.82 1000.51,2118.12 998.931,2125.35C979.355,2214.8 864.195,2258.44 870.606,2252.25C916.434,2208.01 970.771,2148.83 974.147,2089.82Z" style="fill:rgb(223,150,102);"/></g><g transform="matrix(0.982834,-7.11032e-17,6.98826e-17,1,447.066,-1820.02)"><path d="M810.054,2006.54C821.055,2007.41 835.368,2025.27 847.546,2036.03C859.751,2046.83 871.749,2057.82 883.383,2069.23C883.383,2069.23 892.22,2078.13 899.319,2085.72C915.766,2103.81 931.712,2122.23 947.546,2140.94L951.195,2145.26C951.195,2145.26 956.068,2151.08 959.822,2155.6C962.184,2157.76 960.529,2161.47 957.344,2158.56C934.947,2138 912.945,2117.29 891.187,2096.1C891.187,2096.1 857.658,2060.56 851.45,2053.61C851.45,2053.61 845.519,2046.85 841.396,2042.19C831.51,2030.74 822.421,2018.29 811.061,2008.85C807.733,2006.08 810.255,2007.89 810.255,2007.89L809.23,2007.83C809.23,2007.83 808.867,2006.53 810.054,2006.54Z" style="fill:rgb(224,152,105);"/></g><g transform="matrix(0.703737,0,3.49413e-17,0.677283,654.054,-1157.04)"><path d="M810.049,2006.52C819.674,2007.28 831.802,2022.44 845.696,2034.39C845.696,2034.39 858.022,2045.32 858.022,2045.32C866.502,2053.06 874.917,2060.91 883.132,2068.97C883.132,2068.97 891.922,2077.82 899.004,2085.39C916.745,2104.89 934.009,2124.95 951.087,2145.14C951.087,2145.14 960.031,2155.86 960.031,2155.86C961.917,2159.41 960.878,2160.17 957.417,2158.63C935.098,2138.15 913.039,2117.39 891.438,2096.36C891.438,2096.36 879.72,2084.56 879.72,2084.56C856.853,2060.45 836.321,2033.21 812.972,2010.6C807.873,2005.66 810.227,2007.92 810.227,2007.92C810.227,2007.92 808.595,2006.52 810.049,2006.52Z" style="fill:rgb(224,152,105);"/></g><g transform="matrix(2.51779,0,0,2.56176,-5329.59,-2142.53)"><path d="M2573.72,890.533C2572.14,887.387 2570.82,883.348 2570.92,878.719C2571.18,867.516 2578.7,870.987 2578.7,870.987C2578.7,870.987 2580.4,870.411 2583.63,881.542C2583.74,881.919 2583.85,882.282 2583.94,882.633C2592.19,878.156 2601.88,876.54 2614.86,874.233C2632.14,871.163 2645.5,872.141 2652.84,875.992C2657.59,878.48 2664.22,889.093 2661.96,894.363C2661.52,895.393 2657.38,891.668 2656.28,891.895C2582.78,907.099 2573.69,953.597 2570.17,976.271C2569.73,979.109 2576.09,985.816 2575.96,985.964C2571.48,991.069 2542.91,974.368 2550.42,937.934C2553.99,920.627 2560.46,908.742 2567.66,898.147C2569.66,895.207 2571.67,892.695 2573.72,890.533Z" style="fill:rgb(118,9,9);"/></g><g transform="matrix(0.348065,-0.849065,0.879154,0.373099,-857.909,194.606)"><path d="M686.872,1954.43C733.032,1872.94 855.282,1980.79 994.504,2044.77C1021.49,2057.17 1034.24,2094.64 1026.06,2119.63C1022.28,2131.18 1004.63,2144.97 998.729,2143.58C998.321,2143.48 992.768,2141.77 992.76,2139.13C992.752,2135.94 998.142,2131.4 995.258,2127.15C973.525,2095.09 911.226,2017.06 841.813,2003.79C788.633,1993.63 730.282,1996.53 698.719,2002.86C679.782,2006.66 666.609,2035.98 665.014,2024.11C659.2,1980.82 681.955,1963.11 686.872,1954.43Z" style="fill:rgb(96,16,16);"/></g><g transform="matrix(0.348065,-0.849065,0.879154,0.373099,-856.001,194.41)"><path d="M916.523,1924.67C920.838,1926.75 967.61,1953.66 983.126,1975.63C1019.79,2027.55 1038.03,2082.91 1034.41,2092.34C1034.41,2092.34 1029.98,2116.66 1029.98,2116.66C1029.98,2116.66 1023.38,2118.27 1023.38,2118.27L1016.31,2129.87L1015.7,2107.45C1015.8,2098.63 1011.6,2067.49 1007.35,2055.51C995.864,2023.18 972.174,1994.55 954.268,1976.28C914.494,1929.14 862.998,1918.8 854.212,1911.91C854.212,1911.91 916.523,1924.67 916.523,1924.67Z" style="fill:rgb(195,136,136);"/></g></g><g transform="matrix(0.982834,0,0,1,501.341,-1829.09)"><path d="M769.913,2029.68C769.913,2029.68 782.182,2041.13 782.182,2041.13C787.371,2046.02 792.57,2050.9 797.748,2055.81C802.589,2060.39 809.81,2067.33 814.578,2071.97C823.4,2080.55 832.648,2089.82 838.928,2096.4C846.555,2104.4 850.582,2108.67 858.181,2116.81C868.744,2128.13 879.22,2139.53 889.67,2150.96C890.808,2151.82 890.376,2153.57 888.479,2152.12L881.809,2145.79C876.231,2140.46 870.645,2135.13 865.076,2129.79C859.159,2124.11 850.453,2115.68 844.615,2109.96C819.729,2085.59 796.674,2060.38 769.667,2030.34C769.667,2030.34 768.984,2029.67 769.913,2029.68Z" style="fill:rgb(80,0,0);"/></g><g transform="matrix(0.982834,0,0,1,480.829,-1821.58)"><path d="M780.396,2045.18C790.84,2053.54 803.268,2063.49 812.117,2072.73C815.47,2076.23 817.227,2078.12 820.517,2081.73C825.097,2086.76 829.587,2091.87 834.052,2097C834.052,2097 834.176,2098.29 834.176,2098.29L832.885,2098.19L829.779,2095.61C807.63,2076.85 794.999,2063.66 779.938,2045.65C779.938,2045.65 780.148,2044.98 780.396,2045.18Z" style="fill:rgb(80,0,0);"/></g><g transform="matrix(2.51779,0,0,2.56176,-5329.59,-2142.53)"><path d="M2571.16,889.416C2570.47,887.941 2569.65,885.964 2569.27,884.323C2569.01,883.205 2568.82,882.072 2568.71,880.929C2568.24,875.965 2568.61,869.603 2574.53,868.238C2576.11,867.875 2577.8,868.075 2579.32,868.67C2579.32,868.67 2582.24,870.999 2583.22,873.499C2583.95,875.341 2584.69,877.272 2585.32,879.232C2586.93,878.478 2588.59,877.816 2590.28,877.25C2604.26,872.571 2619.18,870.444 2633.18,870.479C2644.45,870.553 2657,872.328 2662.43,885.812C2663.43,888.298 2664.21,891.063 2663.56,893.693C2666.1,896.339 2680.68,916.832 2687.84,936.455C2687.84,936.455 2695.6,953.402 2689.23,985.227C2688.89,989.415 2687.55,992.261 2684.36,995.425C2676.25,1003.46 2664.89,1007.07 2653.28,1010.62C2648.13,1012.17 2642.82,1013.1 2637.48,1013.36C2617.12,1014.35 2593,1003.83 2578.48,987.721C2578.1,988.266 2577.48,988.915 2576.49,989.375C2571.02,991.93 2564.12,987.603 2558.72,982.25C2546.99,970.621 2544.07,951.874 2547.76,935.665C2551.51,919.255 2558.93,903.345 2569.98,890.717C2570.37,890.275 2570.76,889.841 2571.16,889.416ZM2681.73,991.459C2683.93,989.319 2684.12,987.113 2684.87,984.633C2685.09,983.906 2687.1,970.676 2686.24,954.62C2685.25,936.11 2671.69,910.649 2663.43,899.084C2660.73,895.308 2658.7,892.898 2658.31,892.714C2658.24,892.683 2656.38,893.1 2656.38,893.1C2636.11,897.844 2616.41,905.621 2600.75,919.946C2585.19,934.186 2576.73,954.527 2573.4,975.542C2580.81,984.707 2594.19,997.613 2606.56,1002.46C2616.15,1006.22 2626.56,1007.99 2636.81,1007.32C2647.98,1006.59 2658.78,1003.39 2669.26,998.802C2670.58,998.225 2671.91,997.556 2673.22,996.81C2672.49,996.749 2671.7,996.614 2670.82,996.389C2669.2,996.52 2669.35,994.058 2671.18,993.909C2671.29,993.901 2675.32,994.994 2676.09,994.199C2676.36,993.923 2679.1,991.949 2680.65,988.454C2681.88,985.689 2684.37,983.016 2683.69,986.813C2683.69,986.813 2683.66,988.65 2681.73,991.459ZM2567.67,978.564C2566.98,979.017 2566.09,979.215 2564.98,979.049C2564.81,979.024 2564.65,978.994 2564.49,978.959C2564.85,979.273 2565.21,979.579 2565.58,979.878C2567.46,981.382 2570.23,983.852 2568.82,981.555C2568.26,980.611 2567.89,979.608 2567.67,978.564ZM2555.08,964.94C2556.3,968.224 2557.94,971.321 2560.02,974.104C2561.77,975.651 2563.67,976.929 2565.59,976.7C2566.14,976.634 2565.78,976.674 2565.83,976.65C2566.08,976.54 2567.24,974.84 2567.03,972.825C2566.76,970.155 2565.36,967.677 2563.67,965.591C2563.58,965.642 2563.49,965.692 2563.4,965.74C2560.98,966.982 2557.96,966.226 2555.08,964.94ZM2568.67,967.205C2568.65,967.25 2568.64,967.305 2568.63,967.373L2568.65,967.281L2568.67,967.205ZM2552.45,952.2C2552.67,955.813 2553.3,959.394 2554.36,962.809C2558.09,964.534 2562.65,965.72 2563.67,962.779C2563.67,962.779 2563.41,960.266 2562.3,958.365C2561.05,956.205 2559.51,954.217 2557.86,952.338C2557.79,952.382 2557.71,952.424 2557.64,952.464C2555.93,953.337 2554.14,952.938 2552.45,952.2ZM2568.23,956.918C2567.81,957.18 2567.28,957.359 2566.63,957.432C2565.62,957.545 2564.6,957.214 2563.66,956.766C2564.76,958.64 2565.93,961.09 2565.53,963.099C2565.72,963.183 2565.92,963.289 2566.14,963.418C2569.31,965.291 2569.18,963.925 2569.54,963.253C2570.5,961.458 2569.29,959.253 2568.23,956.918ZM2571.99,954.925C2571.53,955.158 2571.01,955.343 2570.43,955.474C2570.43,955.474 2570.06,954.863 2570.7,956.222C2570.88,956.596 2571.04,956.988 2571.2,957.392C2571.45,956.566 2571.72,955.744 2571.99,954.925ZM2563.7,944.191C2562.64,944.778 2561.34,944.962 2559.91,944.463C2558.94,944.126 2558.04,943.623 2557.19,943.06C2558.39,945.527 2559.71,948.646 2559.09,950.728C2560.95,952.02 2563.73,955.018 2566.11,955.132C2566.87,955.169 2567.2,955.191 2567.29,955.188L2567.28,955.163L2567.28,955.16C2567.15,955.108 2566.76,954.98 2566.92,954.732C2566.92,954.732 2567.19,948.915 2563.7,944.191ZM2574.15,947.388C2574.05,947.414 2573.94,947.438 2573.83,947.458C2571.95,947.801 2569.98,947.349 2568.17,946.62C2568.17,946.62 2569.79,950.18 2569.82,953.221C2571.89,952.858 2573.67,951.497 2574.06,948.544C2574.11,948.182 2574.14,947.778 2574.15,947.388ZM2553.17,939.946C2553.05,940.677 2552.93,941.411 2552.83,942.145C2552.46,944.806 2552.3,947.519 2552.36,950.228C2552.44,950.516 2555.49,951.247 2555.86,951.107C2556.89,950.726 2557.35,950.189 2557.36,949.756C2557.46,946.317 2555.28,942.767 2553.17,939.946ZM2574.65,944.261L2574.65,944.261C2574.6,944.156 2574.58,943.977 2574.62,943.686C2575.03,941.073 2573.42,938.246 2571.82,935.509C2569.83,935.394 2567.32,934.065 2565.16,932.872C2565.16,932.872 2564.94,932.762 2565.27,933.823C2565.45,934.427 2566.36,939.349 2566.36,939.59C2566.37,940.505 2566.11,941.444 2565.63,942.265C2565.72,942.321 2565.83,942.383 2565.93,942.451C2568.54,944.121 2571.71,945.64 2574.15,944.473C2575.75,943.709 2574.89,944.729 2574.65,944.261ZM2555.15,930.964C2554.59,932.994 2554.1,935.041 2553.69,937.101C2554.17,937.566 2554.64,938.217 2555.2,938.725C2557.56,940.894 2560.73,943.309 2562.82,942.405C2562.88,942.378 2563.52,942.042 2563.78,941.357C2564.31,939.935 2563.98,938.854 2563.75,937.693C2563.34,935.555 2562.61,933.484 2561.73,931.481C2559.69,932.542 2557.23,931.675 2555.15,930.964ZM2579.85,937.437C2579.55,937.488 2579.24,937.516 2578.9,937.519C2577.17,937.534 2575.37,935.83 2576.25,937.999C2576.57,938.793 2576.85,939.599 2577.07,940.424C2577.15,940.699 2577.21,940.976 2577.27,941.254C2577.32,941.484 2577.36,941.715 2577.39,941.947L2577.39,941.98C2578.17,940.443 2578.99,938.928 2579.85,937.437ZM2579.83,922.609C2578.28,923.264 2576.43,923.357 2574.38,922.532C2574.38,922.532 2577.22,928.987 2574.93,933.583C2576.91,934.426 2579.22,935.084 2580.51,934.01C2581.51,933.192 2581.52,931.768 2581.58,930.559C2581.72,927.815 2581.05,925.022 2579.83,922.609ZM2569.67,919.91C2567.39,920.647 2564.14,920.264 2561.04,919.499C2561.04,919.499 2564.08,925.354 2563.48,928.986C2565.87,929.991 2569.51,932.998 2572.14,932.907C2572.14,932.907 2573.68,928.548 2572.66,925.632C2572.48,925.132 2571.85,923.94 2571.64,923.454C2571.08,922.113 2570.2,920.964 2569.67,919.91ZM2559.07,919.553C2557.71,922.833 2556.53,926.177 2555.54,929.569C2557.6,930.195 2559.67,930.626 2561.03,930.052C2561.07,930.036 2561.11,930.019 2561.14,930.001C2561.11,929.796 2561.11,929.554 2561.2,929.333C2561.35,928.982 2561.58,928.784 2561.88,928.705C2562.11,926.681 2560.58,922.913 2559.07,919.553ZM2587.88,925.812C2587.69,925.807 2587.5,925.792 2587.3,925.769C2585.87,925.603 2583.95,924.752 2583.95,924.752C2584.01,924.951 2584.06,925.151 2584.11,925.351C2584.48,926.859 2584.67,928.495 2584.61,930.064C2585.65,928.613 2586.74,927.195 2587.88,925.812ZM2590.82,912.023C2589.74,912.396 2588.57,912.483 2587.42,912.192C2586.16,911.873 2584.47,910.899 2584.47,910.899C2584.59,911.869 2584.66,912.844 2584.67,913.82C2584.67,914.234 2584.66,914.648 2584.64,915.062C2584.62,915.374 2584.6,915.686 2584.57,915.996C2584.39,917.515 2583.75,919.089 2582.72,920.369C2586.82,923.247 2593.74,925.188 2591.06,913.031C2590.99,912.691 2590.9,912.348 2590.82,912.023ZM2581.33,916.723C2581.96,913.771 2580.74,907.213 2580.74,907.213C2577.73,908.261 2574.29,906.736 2571.57,904.604C2571.65,904.962 2571.73,905.321 2571.81,905.68C2572.65,909.65 2573.83,914.058 2572.41,917.456C2572.64,917.713 2572.86,917.997 2573.16,918.251C2575.65,920.354 2580.36,921.251 2581.33,916.723ZM2597.31,916.156C2597.1,916.121 2596.89,916.074 2596.67,916.015C2595.49,915.699 2594.49,913.741 2594.64,916.232C2594.68,917.031 2594.65,917.855 2594.53,918.668C2594.59,918.615 2594.65,918.562 2594.7,918.509C2595.56,917.705 2596.43,916.921 2597.31,916.156ZM2568.51,901.748C2565.27,906.707 2562.41,911.927 2560.02,917.333C2560.05,917.34 2560.08,917.348 2560.11,917.357C2563.23,918.22 2567.16,919.457 2569.29,917.932C2569.34,917.708 2569.44,917.485 2569.58,917.263L2570.25,916.811C2570.66,916.021 2570.88,914.932 2570.81,913.457C2570.64,909.507 2569.65,905.587 2568.51,901.748ZM2603.39,903.456C2600.9,903.598 2598.33,903.052 2596.52,901.18C2596.52,901.18 2595.81,906.845 2594.29,909.263C2594.12,909.53 2593.93,909.784 2593.73,910.024C2594.98,911.74 2596.66,913.54 2598.58,913.191C2599.65,912.995 2599.23,913.223 2600.37,912.011C2602.44,909.781 2603.17,906.579 2603.39,903.456ZM2610.45,906.752C2610.38,906.734 2610.31,906.716 2610.24,906.696C2608.74,906.255 2607.34,905.466 2606.07,904.559C2605.87,906.433 2605.43,908.537 2604.7,910.438C2606.57,909.141 2608.49,907.914 2610.45,906.752ZM2593.18,896.589C2589.51,896.55 2585.98,894.65 2582.98,892.419C2583.35,893.318 2583.69,894.225 2583.99,895.15C2584.17,895.727 2584.68,897.776 2584.75,898.219C2585.19,900.792 2584.83,903.923 2582.93,905.842C2583.23,906.001 2583.58,906.247 2583.97,906.602C2585.81,908.244 2588.26,909.905 2590.14,909.045C2593.28,907.602 2593.33,903.474 2593.4,900.623C2593.42,899.853 2593.25,897.14 2593.18,896.589ZM2578.8,889.695C2576.01,891.969 2573.43,894.665 2571.14,897.892C2570.64,898.588 2570.15,899.289 2569.67,899.996C2572.11,900.413 2576.2,907.662 2580.83,904.448C2584.33,902.019 2582.03,895.431 2578.8,889.695ZM2617.85,896.16C2615.68,896.01 2613.55,895.26 2611.79,893.954C2611.79,893.954 2609.77,899.421 2607.17,901.992C2609.65,903.988 2612.86,905.626 2615.3,903.15C2617.06,901.361 2617.74,898.652 2617.85,896.16ZM2623.65,900.113C2622.34,899.811 2621.1,899.176 2620.04,898.16C2619.84,899.541 2619.42,900.994 2618.77,902.314C2620.38,901.544 2622,900.811 2623.65,900.113ZM2609.12,892.704C2605.54,892.954 2602.11,890.206 2600,886.903C2600,886.903 2599.8,886.816 2599.79,887.265C2599.7,890.577 2599.15,894.156 2596.8,895.73C2597.09,896.417 2597.34,897.123 2597.62,897.611C2598.95,899.877 2601.76,900.875 2604.72,900.362C2604.72,900.362 2607.79,896.255 2609.12,892.704ZM2632.9,893.284C2632.35,893.097 2631.83,892.832 2631.35,892.485C2629.87,891.4 2628.59,888.921 2628.59,888.921C2627.68,890.599 2625.34,894.767 2621.11,895.894C2623.21,898.375 2627.32,899.322 2631.29,895.845C2632.04,895.186 2632.59,894.051 2632.9,893.284ZM2638.57,894.82C2637.36,894.624 2636.14,894.307 2634.95,893.882C2634.95,893.882 2634.39,895.259 2633.57,896.38C2635.23,895.83 2636.9,895.31 2638.57,894.82ZM2596.62,880.575C2592.78,880.633 2582.33,886.028 2581.52,887.66C2585.03,891.012 2589.21,893.992 2593.44,893.8C2593.93,893.801 2595.19,893.699 2595.12,893.551C2596.4,893.2 2596.54,891.345 2596.72,890.159C2597.21,886.952 2596.88,883.871 2596.62,880.575ZM2627.16,886.563C2624.29,885.661 2621.76,883.101 2620.3,880.391C2620.3,880.391 2620.13,880.313 2620.08,880.639C2619.31,885.017 2616.91,889.29 2613.13,891.415C2615.03,892.845 2619.72,895.582 2623.69,891.605C2625.12,890.16 2626.26,888.415 2627.16,886.563ZM2648.36,890.267C2647.73,890.11 2647.12,889.837 2646.54,889.437C2645.16,888.465 2644.35,886.336 2643.89,887.697C2643.03,890.102 2640.95,891.975 2638.59,892.933C2638.91,893.019 2639.23,893.091 2639.55,893.141C2642.82,893.667 2646.73,892.902 2648.36,890.267ZM2660.4,889.211C2660.14,889.464 2659.75,889.644 2659.17,889.665C2658.97,889.672 2658.78,889.657 2658.6,889.622C2658.63,890.206 2658.88,890.557 2658.7,891.067C2659.86,890.923 2659.84,891.743 2660.74,892.237C2660.74,892.237 2660.93,891.33 2660.4,889.211ZM2651.24,891.661C2650.71,891.474 2650.2,891.322 2649.71,891.26C2649.56,891.24 2649.09,892.013 2648.96,892.153C2649.72,891.984 2650.48,891.82 2651.24,891.661ZM2642.36,885.087C2639.64,884.135 2637.69,881.17 2636.72,878.06C2636.72,878.06 2634.99,885.291 2631.87,886.416C2631.51,886.544 2631.15,886.652 2630.78,886.737C2630.61,886.778 2630.44,886.811 2630.26,886.836C2631.38,890.113 2634.22,892.554 2638.32,890.648C2640.5,889.637 2642.46,887.592 2642.36,885.087ZM2657.14,888.852C2656.35,888.15 2655.76,887.127 2655.25,886.335C2654.78,888.058 2653.5,889.35 2651.94,889.988C2652.62,890.36 2653.39,890.773 2654.31,891.047C2654.64,890.984 2656.57,890.669 2656.82,890.7C2657.07,890.231 2657.18,889.554 2657.14,888.852ZM2617.93,875.866C2615.32,876.317 2612.73,876.814 2610.18,877.3C2606.66,877.979 2603.14,878.734 2599.7,879.675C2601.47,884.845 2604.5,891.03 2609.8,889.822C2610.06,889.309 2610.69,889.556 2610.69,889.556C2615.69,887.717 2617.95,881.578 2617.93,875.866ZM2653.63,884.553C2653.47,884.531 2653.3,884.494 2653.13,884.442C2650.88,883.746 2649.93,881.205 2649.22,879.199C2649.22,879.199 2648.58,884.55 2645.01,885.311C2647.07,887.976 2650.22,890.375 2653.11,886.947C2653.71,886.243 2653.69,885.343 2653.63,884.553ZM2657.38,882.705C2656.87,883.262 2656.3,883.779 2655.66,884.128C2655.76,884.284 2655.86,884.454 2655.97,884.641C2657.46,887.211 2658.81,888.635 2659.42,888.159C2659.84,887.809 2659.49,888.268 2659.87,887.562L2659.91,887.545C2659.57,886.556 2659.12,885.521 2658.54,884.524C2658.18,883.903 2657.79,883.294 2657.38,882.705ZM2582.47,880.68C2581.22,877.2 2579.33,875.065 2577.91,873.242C2577.91,873.242 2572.39,870.137 2571.99,878.06C2571.86,880.8 2572.48,884.256 2573.37,887.238C2576.13,884.693 2579.19,882.492 2582.47,880.68ZM2635.45,874.131C2630.73,874.086 2625.9,874.602 2621.12,875.342C2621.61,877.107 2622.21,879.41 2623.87,881.623C2625.54,883.84 2628.42,885.55 2631.52,884.179C2631.69,884.102 2631.56,884.164 2631.62,884.118C2634.22,882.372 2634.92,877.987 2635.45,874.131ZM2637.86,874.205C2638.34,877.945 2639.47,882.168 2642.59,883.356C2642.9,883.049 2643.4,883.306 2643.77,883.643C2643.88,883.657 2644,883.667 2644.12,883.673C2646.64,883.817 2647.33,880.636 2647.65,878.839C2647.81,877.926 2647.9,876.786 2647.94,875.884C2644.68,874.901 2641.3,874.386 2637.86,874.205ZM2650,876.573C2650,876.573 2650.25,877.695 2650.4,878.18C2650.52,878.601 2650.66,879.018 2650.82,879.43C2650.93,879.748 2651.74,881.433 2651.84,881.584C2652.29,882.311 2653.78,883.337 2654.82,883C2655.15,882.894 2655.48,882.744 2655.8,882.485C2656.1,882.245 2656.39,881.954 2656.63,881.688C2654.87,879.436 2652.7,877.574 2650,876.573Z" style="fill:rgb(80,0,0);"/></g></g></g></g></svg>