<?xml version="1.0" encoding="iso-8859-1"?>
<!-- Uploaded to SVGRepo https://www.svgrepo.com -->
<svg version="1.1" id="Capa_1" xmlns="http://www.w3.org/2000/svg" xmlns:xlink="http://www.w3.org/1999/xlink" x="0px" y="0px"
	 viewBox="0 0 512 512" style="enable-background:new 0 0 512 512;" xml:space="preserve">
<g>
	<g>
		<g>
			<g>
				<path style="fill:#FFC26D;" d="M328.281,197.518l42.263,42.263c24.05,24.05,24.05,63.164,0,87.214L220.116,477.423
					c-24.041,24.041-63.156,24.041-87.206-0.008l-42.263-42.263l23.302-23.302l42.263,42.263c11.194,11.194,29.407,11.185,40.592,0
					l150.428-150.428c11.194-11.194,11.194-29.399,0-40.592l-42.263-42.263L328.281,197.518z"/>
			</g>
			
				<rect x="96.305" y="419.158" transform="matrix(0.7071 -0.7071 0.7071 0.7071 -273.8401 206.8599)" style="fill:#FF9A1B;" width="32.955" height="29.653"/>
			<path style="fill:#FF9A1B;" d="M328.281,197.518l31.297,31.297c-5.819,2.225-11.655,4.803-17.441,7.751
				c-4.635,2.351-9.161,4.963-13.604,7.826l-23.563-23.563L328.281,197.518z"/>
			
				<rect x="244.158" y="350.659" transform="matrix(0.7071 -0.7071 0.7071 0.7071 -169.6652 324.6759)" style="fill:#FF9A1B;" width="125.857" height="32.966"/>
		</g>
		<path style="fill:#FFDBAA;" d="M258.805,224.848L29.706,453.947l30.287,30.287l229.099-229.099
			c13.381-13.381,28.64-24.812,45.506-33.393c73.111-37.198,150.367-19.379,150.367-19.379L311.578,28.974
			c0,0,17.818,77.256-19.379,150.367C283.617,196.208,272.187,211.466,258.805,224.848z"/>
		
			<rect x="164.014" y="265.587" transform="matrix(0.7071 -0.7071 0.7071 0.7071 -136.4688 244.5326)" style="fill:#FFC26D;" width="125.857" height="42.823"/>
		<path style="fill:#FFB54E;" d="M506.957,214.21L506.957,214.21c-6.725,6.725-17.627,6.725-24.352,0L299.729,31.335
			c-6.725-6.725-6.725-17.627,0-24.352l0,0c6.725-6.725,17.627-6.725,24.352,0l182.875,182.875
			C513.681,196.583,513.681,207.486,506.957,214.21z"/>
		<circle style="fill:#FFB54E;" cx="37.922" cy="476.017" r="34.043"/>
		<path style="fill:#FF9A1B;" d="M61.991,500.092c-8.823,8.823-21.296,11.788-32.573,8.884c5.705-1.452,11.093-4.417,15.561-8.884
			c13.301-13.301,13.301-34.853,0-48.144c-4.468-4.468-9.856-7.433-15.561-8.895c11.277-2.904,23.75,0.061,32.573,8.895
			C75.292,465.239,75.292,486.791,61.991,500.092z"/>
		<path style="fill:#FF9A1B;" d="M79.186,424.033c-1.962,0-3.925-0.748-5.422-2.246l-13.318-13.317
			c-2.995-2.994-2.995-7.849,0-10.844c2.994-2.994,7.85-2.995,10.844,0l13.318,13.317c2.995,2.994,2.995,7.849,0,10.844
			C83.11,423.284,81.148,424.033,79.186,424.033z"/>
		<path style="fill:#FF9A1B;" d="M103.603,399.615c-1.962,0-3.925-0.748-5.422-2.246l-13.318-13.317
			c-2.995-2.994-2.995-7.849,0-10.844c2.994-2.994,7.85-2.995,10.844,0l13.318,13.317c2.995,2.994,2.995,7.849,0,10.844
			C107.528,398.866,105.566,399.615,103.603,399.615z"/>
		<path style="fill:#FF9A1B;" d="M128.021,375.197c-1.962,0-3.925-0.749-5.422-2.246l-13.318-13.318
			c-2.995-2.994-2.995-7.85,0-10.844c2.994-2.994,7.85-2.994,10.844,0l13.318,13.318c2.995,2.994,2.995,7.85,0,10.844
			C131.946,374.448,129.983,375.197,128.021,375.197z"/>
		<path style="fill:#F37D7E;" d="M425.171,435.385l-41.437,8.399l-8.399,41.437c-1.129,5.569-8.003,7.641-12.022,3.623L173.6,299.13
			c-4.638-4.638-4.638-12.157,0-16.794l48.686-48.686c4.638-4.638,12.157-4.638,16.794,0l189.713,189.713
			C432.812,427.381,430.74,434.256,425.171,435.385z"/>
		<path style="fill:#ED6264;" d="M239.077,233.651l189.711,189.711c4.022,4.022,1.957,10.891-3.611,12.025l-14.368,2.914
			L222.618,250.11c-4.635-4.635-12.159-4.635-16.794,0l16.459-16.459C226.926,229.007,234.441,229.016,239.077,233.651z"/>
		<path style="fill:#FFDBAA;" d="M29.126,483.661H7.668c-4.235,0-7.668-3.433-7.668-7.668s3.433-7.668,7.668-7.668h21.458
			c4.235,0,7.668,3.433,7.668,7.668S33.36,483.661,29.126,483.661z"/>
	</g>
	<g>
		<path style="fill:#FFDBAA;" d="M461.729,58.941c-1.962,0-3.925-0.748-5.422-2.246c-2.995-2.995-2.995-7.85,0-10.844l14.405-14.405
			c2.995-2.994,7.85-2.995,10.844,0c2.995,2.995,2.995,7.85,0,10.844l-14.405,14.405C465.654,58.192,463.691,58.941,461.729,58.941z
			"/>
		<g>
			<path style="fill:#FFDBAA;" d="M479.856,87.154c-3.567,0-6.761-2.502-7.504-6.132c-0.849-4.149,1.826-8.2,5.975-9.049
				l19.958-4.083c4.153-0.852,8.2,1.826,9.049,5.975c0.849,4.149-1.826,8.2-5.975,9.049l-19.958,4.083
				C480.882,87.103,480.365,87.154,479.856,87.154z"/>
			<path style="fill:#FFDBAA;" d="M433.525,40.807c-0.51,0-1.026-0.051-1.545-0.157c-4.149-0.849-6.824-4.9-5.975-9.049
				l4.083-19.958c0.849-4.149,4.901-6.828,9.049-5.975c4.149,0.849,6.824,4.9,5.975,9.049l-4.083,19.958
				C440.287,38.305,437.092,40.807,433.525,40.807z"/>
		</g>
	</g>
</g>
<g>
</g>
<g>
</g>
<g>
</g>
<g>
</g>
<g>
</g>
<g>
</g>
<g>
</g>
<g>
</g>
<g>
</g>
<g>
</g>
<g>
</g>
<g>
</g>
<g>
</g>
<g>
</g>
<g>
</g>
</svg>
