<?xml version="1.0" encoding="iso-8859-1"?>
<!-- Uploaded to SVGRepo https://www.svgrepo.com -->
<svg version="1.1" id="Capa_1" xmlns="http://www.w3.org/2000/svg" xmlns:xlink="http://www.w3.org/1999/xlink" x="0px" y="0px"
	 viewBox="0 0 512 512" style="enable-background:new 0 0 512 512;" xml:space="preserve">
<g>
	<path style="fill:#FFB54E;" d="M225.781,431.094l-29.272-29.272l266.204-266.204c3.736-3.736,9.792-3.736,13.528,0l15.745,15.745
		c3.736,3.736,3.736,9.792,0,13.528L225.781,431.094z"/>
	<path style="fill:#FF9A1B;" d="M491.985,164.886L225.776,431.095l-14.468-14.468l266.209-266.209c3.734-3.734,3.734-9.794,0-13.528
		l14.468,14.468C495.726,155.099,495.719,161.153,491.985,164.886z"/>
	<g>
		<g>
			<g>
				<path style="fill:#FDD1A7;" d="M142.131,477.784l-61.63-61.63c-6.323-6.323-11.029-14.08-13.717-22.613l-1.636-5.165
					c-4.936-15.62-13.564-29.835-25.148-41.428l-20.489-20.489c-3.061-3.061-3.061-8.016,0-11.077l90.01-90.02
					c3.061-3.061,8.026-3.061,11.086,0l6.505,6.514c19.676,19.676,46.249,31.327,74.065,31.308
					c7.499-0.009,14.836,1.473,21.627,4.285c6.782,2.812,13.019,6.945,18.318,12.234l38.099,38.099
					c6.122,6.122,6.112,16.051,0,22.163l-25.76,25.76l9.47,9.47l20.527,20.518c6.112,6.122,6.112,16.041,0,22.163l-5.768,5.758
					c-6.122,6.122-16.041,6.122-22.163,0L234.696,402.8l-8.791-8.791L142.131,477.784z"/>
			</g>
			<path style="fill:#FFBC8A;" d="M191.709,339.497l26.009-26.009c3.018-3.016,7.909-3.016,10.928,0
				c3.017,3.018,3.017,7.909,0,10.928l-26.009,26.009L191.709,339.497z"/>
			<path style="fill:#FFBC8A;" d="M221.922,358.719l-5.46,5.47l-93.963,93.963l-20.428-20.429l-21.562-21.562
				c-6.336-6.336-11.033-14.093-13.732-22.612l-1.628-5.172c-4.935-15.628-13.567-29.834-25.147-41.424l-20.49-20.49
				c-3.06-3.06-3.07-8.025,0-11.085l35.861-35.861l32.471,32.461c48.46,48.46,98.753,11.414,98.753,11.414L221.922,358.719z"/>
			<path style="fill:#F5A871;" d="M197.204,334.002c-4.446,5.549-6.694,12.768-8.108,19.673c-0.974,0.075-1.934,0.184-2.86,0.336
				c-7.119,1.143-13.588,4.44-18.708,9.56l-0.175,0.175c-5.037,5.038-8.283,11.373-9.457,18.245
				c-6.892,1.195-13.248,4.461-18.317,9.529l-0.154,0.154c-5.151,5.151-8.283,11.559-9.426,18.234
				c-6.902,1.185-13.258,4.45-18.317,9.509l-0.175,0.175c-5.007,5.007-8.262,11.301-9.436,18.131l20.428,20.429l99.423-99.433
				L197.204,334.002z"/>
			<path style="fill:#F5A871;" d="M122.497,458.15l-41.993-41.993c-6.326-6.326-11.031-14.084-13.724-22.613l-1.632-5.165
				c-4.935-15.626-13.564-29.84-25.151-41.427l-20.491-20.491c-3.058-3.058-3.063-8.018,0-11.081l9.284-9.284
				c-3.063,3.063-3.058,8.023,0,11.081l20.491,20.491c11.587,11.587,20.211,25.806,25.146,41.432l1.637,5.16
				c2.693,8.529,7.397,16.286,13.724,22.613l41.993,41.993L122.497,458.15z"/>
			<g>
				<g>
					<path style="fill:#FDD1A7;" d="M255.526,445.811l-5.759,5.759c-6.119,6.119-16.05,6.119-22.17,0l-50.056-50.056
						c-7.613-7.613-7.613-19.955,0-27.557l0.185-0.185c3.039-3.039,6.83-4.883,10.776-5.512c6.047-0.999,12.476,0.845,17.142,5.512
						l29.793,29.793l20.089,20.078C261.645,429.771,261.645,439.692,255.526,445.811z"/>
					<path style="fill:#FFBC8A;" d="M227.598,451.569l-50.056-50.056c-7.613-7.613-7.608-19.95,0-27.558l0.185-0.185
						c1.647-1.647,3.519-2.948,5.511-3.889c-3.403,7.227-2.122,16.106,3.854,22.082l50.056,50.056
						c5.476,5.476,13.989,6.051,20.1,1.732c-0.506,0.726-1.081,1.411-1.727,2.057l-5.756,5.756
						C243.645,457.685,233.719,457.69,227.598,451.569z"/>
					<path style="fill:#FDD1A7;" d="M227.6,451.567l-49.877-49.877c-7.71-7.71-20.209-7.71-27.919,0l-0.184,0.184
						c-7.609,7.609-7.609,19.947,0,27.556l50.058,50.058c6.12,6.12,16.044,6.12,22.164,0l5.757-5.757
						C233.721,467.611,233.721,457.688,227.6,451.567z"/>
					<path style="fill:#FFBC8A;" d="M199.68,479.488l-50.056-50.056c-7.613-7.613-7.613-19.945,0-27.558l0.18-0.18
						c1.652-1.652,3.519-2.948,5.511-3.889c-3.398,7.222-2.112,16.106,3.859,22.077l50.056,50.056
						c5.476,5.476,13.989,6.051,20.1,1.732c-0.506,0.726-1.086,1.417-1.732,2.062l-5.756,5.756
						C215.721,485.609,205.801,485.609,199.68,479.488z"/>
					<path style="fill:#FDD1A7;" d="M199.68,479.489l-49.877-49.877c-7.71-7.71-20.209-7.71-27.919,0l-0.184,0.184
						c-7.609,7.609-7.609,19.947,0,27.556l50.058,50.058c6.12,6.12,16.044,6.12,22.164,0l5.758-5.758
						C205.8,495.531,205.8,485.609,199.68,479.489z"/>
					<path style="fill:#FFBC8A;" d="M171.756,507.411l-50.056-50.056c-7.613-7.613-7.608-19.95,0-27.558l0.185-0.185
						c1.647-1.647,3.519-2.948,5.511-3.889c-3.403,7.227-2.117,16.111,3.854,22.082l50.056,50.056
						c5.476,5.476,13.984,6.056,20.1,1.732c-0.506,0.726-1.081,1.411-1.727,2.057l-5.761,5.761
						C187.803,513.527,177.878,513.532,171.756,507.411z"/>
				</g>
			</g>
			<path style="fill:#FFBC8A;" d="M255.52,423.643l-33.374-33.374l9.546-9.546l33.383,33.374c5.471,5.471,13.985,6.055,20.097,1.731
				c-0.507,0.727-1.081,1.416-1.731,2.057l-5.749,5.758C271.57,429.765,261.641,429.765,255.52,423.643z"/>
			<path style="fill:#FFBC8A;" d="M253.463,365.725l9.47,9.47l-24.889,24.889c-1.043,1.043-2.162,1.951-3.348,2.717l-8.791-8.791
				L253.463,365.725z"/>
			<path style="fill:#FFBC8A;" d="M235.438,403.563c-3.595,2.411-7.829,3.709-12.259,3.709c-5.893,0-11.435-2.297-15.597-6.459
				l-6.253-6.253c-7.18-7.18-11.631-16.37-12.826-26.301c6.047-0.999,12.476,0.845,17.142,5.512L235.438,403.563z"/>
			<path style="fill:#FDD1A7;" d="M256.26,362.926l-27.685,27.685c-2.982,2.982-7.816,2.982-10.798,0l-6.252-6.252
				c-11.913-11.913-11.913-31.229,0-43.142l11.513-11.513L256.26,362.926z"/>
		</g>
	</g>
	<path style="fill:#ED6264;" d="M173.041,135.68l177,177c3.736,3.736,9.792,3.736,13.528,0l119.343-119.343
		c3.736-3.736,3.736-9.792,0-13.528l-177-177c-5.351-5.351-14.502-2.664-16.11,4.73L269.78,99.549l-92.009,20.021
		C170.377,121.178,167.69,130.329,173.041,135.68z"/>
	<path style="fill:#E84649;" d="M482.908,193.335l-119.34,119.34c-3.74,3.74-9.787,3.74-13.528,0l-15.996-15.996
		c3.734,3.734,9.787,3.74,13.528,0l119.34-119.34c3.734-3.734,3.734-9.794,0-13.528l15.996,15.996
		C486.649,183.547,486.642,189.601,482.908,193.335z"/>
	<g>
		<path style="fill:#65BAFC;" d="M335.053,200.199l49.79-49.79c3.585-3.585,5.559-8.57,5.035-13.613
			c-0.766-7.374-6.218-13.166-13.235-14.557l-31.951-6.329c-4.476-0.887-8.824,2.023-9.711,6.5l-3.211,16.211
			c-0.887,4.476,2.023,8.824,6.5,9.711l1.594,0.316l-28.181,28.181l-8.442-8.442c-3.227-3.227-8.459-3.227-11.685,0l-11.685,11.685
			c-3.227,3.227-3.227,8.459,0,11.685l38.226,38.226c3.227,3.227,8.459,3.227,11.685,0l11.685-11.685
			c3.227-3.227,3.227-8.459,0-11.685L335.053,200.199z"/>
	</g>
</g>
<g>
</g>
<g>
</g>
<g>
</g>
<g>
</g>
<g>
</g>
<g>
</g>
<g>
</g>
<g>
</g>
<g>
</g>
<g>
</g>
<g>
</g>
<g>
</g>
<g>
</g>
<g>
</g>
<g>
</g>
</svg>
