<?xml version="1.0" encoding="iso-8859-1"?>
<!-- Uploaded to SVGRepo https://www.svgrepo.com -->
<svg version="1.1" id="Capa_1" xmlns="http://www.w3.org/2000/svg" xmlns:xlink="http://www.w3.org/1999/xlink" x="0px" y="0px"
	 viewBox="0 0 512 512" style="enable-background:new 0 0 512 512;" xml:space="preserve">
<g>
	<g>
		<g>
			<rect x="218.943" y="320.215" style="fill:#FFB54E;" width="15.453" height="57.69"/>
			<rect x="248.274" y="320.215" style="fill:#FFB54E;" width="15.453" height="57.69"/>
			<rect x="277.604" y="320.215" style="fill:#FFB54E;" width="15.453" height="57.69"/>
		</g>
	</g>
	<g>
		<path style="fill:#FF9A1B;" d="M337.796,100.607c0,7.222-0.907,13.526-2.709,19.141c-5.924,18.595-21.5,29.628-45.586,41.609
			c-4.821,2.4-9.982,4.842-15.473,7.386c-3.472,1.607-7.077,3.255-10.827,4.965c-2.339,1.071-4.739,2.163-7.201,3.297
			c-0.731,0.33-1.463,0.67-2.194,1.01c-5.11,2.349-9.694,4.873-13.732,7.562c-4.368,2.895-8.097,5.965-11.157,9.189
			c-4.708,4.945-7.829,10.261-9.261,15.813c-2.359,9.127,0.536,15.875,0.659,16.153c1.803,3.873,0.113,8.427-3.76,10.23
			c-1.04,0.494-2.143,0.721-3.235,0.721c-2.926,0-5.738-1.669-7.046-4.492c-0.227-0.484-4.708-10.333-2.215-23.612
			c0.433-2.297,1.071-4.708,1.978-7.18c3.286-8.963,9.323-17.07,18.038-24.25c4.059-3.338,8.684-6.48,13.897-9.416
			c2.946-1.648,6.068-3.235,9.375-4.759c2.977-1.37,5.862-2.689,8.654-3.966c0.258-0.113,0.515-0.237,0.773-0.35
			c5.944-2.72,11.414-5.223,16.452-7.582c13.114-6.15,23.251-11.311,30.813-16.668c12.877-9.107,18.306-18.78,18.306-34.8
			c0-4.265,3.461-7.726,7.726-7.726C334.335,92.881,337.796,96.343,337.796,100.607z"/>
		<path style="fill:#FA8916;" d="M289.501,161.357c-7.871,3.925-16.648,7.943-26.301,12.352c-3.029,1.38-6.16,2.812-9.395,4.306
			c-5.11,2.349-9.694,4.873-13.732,7.562c-5.604-2.565-10.941-5.017-15.999-7.428c6.346-5.223,14.113-9.962,23.272-14.175
			c3.245-1.494,6.387-2.926,9.426-4.316c5.944-2.72,11.414-5.223,16.452-7.582C279.169,154.939,284.598,158.04,289.501,161.357z"/>
		<path style="fill:#FFB54E;" d="M305.727,233.192c-1.308,2.812-4.1,4.461-7.005,4.461c-1.092,0-2.205-0.237-3.255-0.721
			c-3.853-1.792-5.522-6.356-3.77-10.209c0.175-0.402,2.977-7.108,0.649-16.143c-1.432-5.553-4.553-10.868-9.272-15.824
			c-5.893-6.202-14.258-11.847-24.879-16.74c-0.731-0.34-1.463-0.68-2.194-1.01c-2.462-1.133-4.862-2.225-7.201-3.297
			c-3.74-1.71-7.345-3.358-10.827-4.976c-32.945-15.236-53.951-26.671-61.069-48.985c-1.792-5.614-2.699-11.919-2.699-19.141
			c0-4.265,3.461-7.726,7.726-7.726c4.265,0,7.726,3.461,7.726,7.726c0,16.019,5.429,25.693,18.317,34.81
			c10.467,7.407,25.858,14.443,47.254,24.24c0.258,0.113,0.515,0.237,0.773,0.35c2.792,1.277,5.676,2.596,8.654,3.966
			c3.307,1.525,6.428,3.111,9.375,4.77c16.39,9.23,27.114,20.521,31.936,33.656c0.907,2.472,1.545,4.883,1.978,7.18
			C310.435,222.859,305.953,232.708,305.727,233.192z"/>
	</g>
	<g>
		<rect x="201.239" y="393.062" style="fill:#EFE2DD;" width="109.523" height="101.953"/>
		<rect x="288.861" y="393.062" style="fill:#CDBFBB;" width="21.901" height="101.953"/>
		<rect x="201.239" y="393.062" style="fill:#CDBFBB;" width="109.523" height="20.374"/>
		<g>
			<path style="fill:#FFF5F5;" d="M324.614,512H187.386c-5.597,0-10.134-4.537-10.134-10.134v-13.511
				c0-5.597,4.537-10.134,10.134-10.134h137.229c5.597,0,10.134,4.537,10.134,10.134v13.511
				C334.748,507.463,330.211,512,324.614,512z"/>
			<path style="fill:#EFE2DD;" d="M334.747,488.352v13.514c0,5.594-4.54,10.134-10.134,10.134h-22.376
				c5.594,0,10.134-4.54,10.134-10.134v-13.514c0-5.594-4.54-10.134-10.134-10.134h22.376
				C330.207,478.218,334.747,482.758,334.747,488.352z"/>
		</g>
		<g>
			<path style="fill:#FFF5F5;" d="M324.614,399.236H187.386c-5.597,0-10.134-4.537-10.134-10.134v-13.511
				c0-5.597,4.537-10.134,10.134-10.134h137.229c5.597,0,10.134,4.537,10.134,10.134v13.511
				C334.748,394.698,330.211,399.236,324.614,399.236z"/>
			<path style="fill:#EFE2DD;" d="M334.747,375.588v13.514c0,5.594-4.54,10.134-10.134,10.134h-22.376
				c5.594,0,10.134-4.54,10.134-10.134v-13.514c0-5.594-4.54-10.134-10.134-10.134h22.376
				C330.207,365.454,334.747,369.994,334.747,375.588z"/>
		</g>
	</g>
	<g>
		<path style="fill:#FA8916;" d="M219.655,210.579c-2.359,9.127,0.536,15.875,0.659,16.153c1.803,3.873,0.113,8.427-3.76,10.23
			c-1.04,0.494-2.143,0.721-3.235,0.721c-2.926,0-5.738-1.669-7.046-4.492c-0.227-0.484-4.708-10.333-2.215-23.612
			c7.232-6.367,15.648-11.435,24.858-14.814C224.209,199.711,221.087,205.027,219.655,210.579z"/>
		<path style="fill:#FF9A1B;" d="M305.727,233.192c-1.308,2.812-4.1,4.461-7.005,4.461c-1.092,0-2.205-0.237-3.255-0.721
			c-3.853-1.792-5.522-6.356-3.77-10.209c0.175-0.402,2.977-7.108,0.649-16.143c-1.432-5.553-4.553-10.868-9.272-15.824
			c9.22,3.389,17.626,8.447,24.869,14.824C310.435,222.859,305.953,232.708,305.727,233.192z"/>
		<circle style="fill:#FFDBAA;" cx="256" cy="268.704" r="64.311"/>
		<circle style="fill:#FFC26D;" cx="256" cy="268.704" r="42.194"/>
		<circle style="fill:#6D80D6;" cx="256" cy="268.704" r="27.988"/>
		<path style="fill:#5169CE;" d="M283.984,268.704c0,15.453-12.531,27.984-27.984,27.984c-3.389,0-6.636-0.599-9.629-1.695
			c10.715-3.937,18.355-14.226,18.355-26.29s-7.64-22.353-18.355-26.29c2.993-1.096,6.24-1.695,9.629-1.695
			C271.453,240.719,283.984,253.251,283.984,268.704z"/>
	</g>
	<g>
		<path style="fill:#FF9A1B;" d="M207.973,135.417c-10.24-3.451-19.728-8.025-28.134-13.629c-0.999-0.67-1.978-1.339-2.936-2.04
			c-1.792-5.614-2.699-11.919-2.699-19.141c0-4.265,3.461-7.726,7.726-7.726c4.265,0,7.726,3.461,7.726,7.726
			C189.656,116.627,195.085,126.3,207.973,135.417z"/>
		<path style="fill:#FA8916;" d="M337.796,100.607c0,7.222-0.907,13.526-2.709,19.141c-0.958,0.701-1.926,1.38-2.926,2.04
			c-8.396,5.604-17.894,10.178-28.124,13.619c12.877-9.107,18.306-18.78,18.306-34.8c0-4.265,3.461-7.726,7.726-7.726
			C334.335,92.881,337.796,96.343,337.796,100.607z"/>
		<ellipse style="fill:#65BAFC;" cx="256" cy="64.311" rx="96.393" ry="64.311"/>
		<ellipse style="fill:#2EA8FC;" cx="256" cy="64.311" rx="56.156" ry="42.193"/>
		<ellipse style="fill:#6D80D6;" cx="256" cy="64.311" rx="41.95" ry="27.988"/>
		<path style="fill:#5169CE;" d="M297.946,64.31c0,15.463-18.781,27.995-41.946,27.995c-3.338,0-6.595-0.264-9.71-0.761
			c18.477-2.922,32.226-14.002,32.226-27.234c0-13.221-13.749-24.301-32.226-27.223c3.115-0.497,6.372-0.761,9.71-0.761
			C279.165,36.326,297.946,48.857,297.946,64.31z"/>
	</g>
</g>
<g>
</g>
<g>
</g>
<g>
</g>
<g>
</g>
<g>
</g>
<g>
</g>
<g>
</g>
<g>
</g>
<g>
</g>
<g>
</g>
<g>
</g>
<g>
</g>
<g>
</g>
<g>
</g>
<g>
</g>
</svg>
