<?xml version="1.0" encoding="iso-8859-1"?>
<!-- Uploaded to SVGRepo https://www.svgrepo.com -->
<svg version="1.1" id="Capa_1" xmlns="http://www.w3.org/2000/svg" xmlns:xlink="http://www.w3.org/1999/xlink" x="0px" y="0px"
	 viewBox="0 0 512 512" style="enable-background:new 0 0 512 512;" xml:space="preserve">
<g>
	<g>
		<g>
			<g>
				<g>
					<g>
						<g>
							<path style="fill:#8EC737;" d="M339.387,245.031c-5.518-0.341-9.925-9.436-12.583-21.269
								c-2.236-9.988-3.236-21.922-2.603-32.218c1.39-22.504,10.039-28.603,20.213-27.978c9.882,0.612,17.564,7.36,16.712,28.404
								c-0.017,0.604-0.052,1.215-0.092,1.846C359.643,216.308,349.562,245.656,339.387,245.031z"/>
							<path style="fill:#83B832;" d="M339.387,245.031c-5.518-0.341-9.925-9.436-12.583-21.269
								c2.041-3.252,4.685-6.639,7.921-10.148c7.205-7.823,16.834-15.687,26.401-21.644c-0.017,0.604-0.052,1.215-0.092,1.846
								C359.643,216.308,349.562,245.656,339.387,245.031z"/>
							<path style="fill:#BDEB73;" d="M371.488,200.366c-19.642,11.053-41.662,32.923-36.665,41.803
								c4.997,8.881,35.12,1.409,54.761-9.644c19.642-11.053,21.365-21.501,16.368-30.382
								C400.955,193.263,391.13,189.313,371.488,200.366z"/>
							<path style="fill:#9AD63B;" d="M389.585,232.528c-19.641,11.046-49.76,18.523-54.764,9.639
								c-1.169-2.065-0.86-4.836,0.535-8.012c11.503,1.098,32.075-5.17,46.776-13.439c15.485-8.718,19.832-17.052,18.53-24.542
								c2.195,1.481,3.928,3.541,5.294,5.969C410.948,211.027,409.225,221.469,389.585,232.528z"/>
						</g>
					</g>
					<g>
						<g>
							<path style="fill:#8EC737;" d="M172.613,245.031c5.518-0.341,9.925-9.436,12.583-21.269
								c2.236-9.988,3.236-21.922,2.603-32.218c-1.39-22.504-10.038-28.603-20.213-27.978c-9.882,0.612-17.564,7.36-16.712,28.404
								c0.017,0.604,0.052,1.215,0.092,1.846C152.357,216.308,162.438,245.655,172.613,245.031z"/>
							<path style="fill:#83B832;" d="M187.799,191.545c0.633,10.296-0.367,22.23-2.603,32.218
								c-2.658,11.833-7.065,20.928-12.583,21.269c-1.497,0.091-3.007-0.472-4.47-1.563c1.814-3.644,3.343-8.364,4.525-13.622
								c2.236-9.988,3.236-21.922,2.603-32.218c-1.365-22.14-9.765-28.401-19.717-27.998c3.022-4.051,7.279-5.77,12.032-6.064
								C177.761,162.942,186.409,169.041,187.799,191.545z"/>
							<path style="fill:#83B832;" d="M172.613,245.031c5.518-0.341,9.925-9.436,12.583-21.269
								c-2.041-3.252-4.685-6.639-7.921-10.148c-7.205-7.823-16.834-15.687-26.401-21.644c0.017,0.604,0.052,1.215,0.092,1.846
								C152.357,216.308,162.438,245.655,172.613,245.031z"/>
							<path style="fill:#BDEB73;" d="M140.512,200.366c19.642,11.053,41.662,32.923,36.665,41.803
								c-4.997,8.881-35.12,1.409-54.761-9.644s-21.365-21.501-16.368-30.382C111.045,193.263,120.87,189.313,140.512,200.366z"/>
							<path style="fill:#9AD63B;" d="M177.179,242.167c-1.26,2.234-4.109,3.436-7.988,3.8c-4.254-10.486-21.027-25.698-36.35-34.32
								c-13.97-7.857-22.964-8.131-28.794-4.439c0.38-1.741,1.073-3.429,1.996-5.066c4.997-8.878,14.829-12.828,34.464-1.776
								C160.155,211.42,182.176,233.289,177.179,242.167z"/>
						</g>
					</g>
				</g>
				<g>
					<g>
						<g>
							<path style="fill:#8EC737;" d="M339.387,266.969c-5.518,0.341-9.925,9.436-12.583,21.269
								c-2.236,9.988-3.236,21.922-2.603,32.218c1.39,22.504,10.039,28.603,20.213,27.978c9.882-0.612,17.564-7.36,16.712-28.404
								c-0.017-0.604-0.052-1.215-0.092-1.846C359.643,295.692,349.562,266.344,339.387,266.969z"/>
							<path style="fill:#83B832;" d="M339.387,266.969c-5.518,0.341-9.925,9.436-12.583,21.269
								c2.041,3.252,4.685,6.639,7.921,10.148c7.205,7.823,16.834,15.687,26.401,21.644c-0.017-0.604-0.052-1.215-0.092-1.846
								C359.643,295.692,349.562,266.344,339.387,266.969z"/>
							<path style="fill:#BDEB73;" d="M371.488,311.634c-19.642-11.053-41.662-32.923-36.665-41.803
								c4.997-8.881,35.12-1.409,54.761,9.644c19.642,11.053,21.365,21.501,16.368,30.382
								C400.955,318.737,391.13,322.687,371.488,311.634z"/>
							<path style="fill:#9AD63B;" d="M389.585,279.472c-19.641-11.046-49.76-18.523-54.764-9.639
								c-1.169,2.065-0.86,4.836,0.535,8.012c11.503-1.098,32.075,5.17,46.776,13.439c15.485,8.718,19.832,17.052,18.53,24.542
								c2.195-1.481,3.928-3.541,5.294-5.969C410.948,300.973,409.225,290.531,389.585,279.472z"/>
						</g>
					</g>
					<g>
						<g>
							<path style="fill:#8EC737;" d="M172.613,266.969c5.518,0.341,9.925,9.436,12.583,21.269
								c2.236,9.988,3.236,21.922,2.603,32.218c-1.39,22.504-10.038,28.603-20.213,27.978c-9.882-0.612-17.564-7.36-16.712-28.404
								c0.017-0.603,0.052-1.215,0.092-1.846C152.357,295.692,162.438,266.345,172.613,266.969z"/>
							<path style="fill:#83B832;" d="M187.799,320.455c0.633-10.296-0.367-22.23-2.603-32.218
								c-2.658-11.833-7.065-20.928-12.583-21.269c-1.497-0.091-3.007,0.472-4.47,1.563c1.814,3.644,3.343,8.364,4.525,13.622
								c2.236,9.988,3.236,21.922,2.603,32.218c-1.365,22.14-9.765,28.401-19.717,27.998c3.022,4.051,7.279,5.77,12.032,6.064
								C177.761,349.058,186.409,342.959,187.799,320.455z"/>
							<path style="fill:#83B832;" d="M172.613,266.969c5.518,0.341,9.925,9.436,12.583,21.269
								c-2.041,3.252-4.685,6.639-7.921,10.148c-7.205,7.823-16.834,15.687-26.401,21.644c0.017-0.603,0.052-1.215,0.092-1.846
								C152.357,295.692,162.438,266.345,172.613,266.969z"/>
							<path style="fill:#BDEB73;" d="M140.512,311.634c19.642-11.053,41.662-32.923,36.665-41.803
								c-4.997-8.881-35.12-1.409-54.761,9.644c-19.642,11.053-21.365,21.501-16.368,30.382
								C111.045,318.737,120.87,322.687,140.512,311.634z"/>
							<path style="fill:#9AD63B;" d="M177.179,269.833c-1.26-2.234-4.109-3.436-7.988-3.8c-4.254,10.486-21.027,25.698-36.35,34.32
								c-13.97,7.857-22.964,8.131-28.794,4.439c0.38,1.741,1.073,3.429,1.996,5.066c4.997,8.878,14.829,12.828,34.464,1.776
								C160.155,300.58,182.176,278.711,177.179,269.833z"/>
						</g>
					</g>
				</g>
			</g>
			<g>
				<g>
					<g>
						<circle style="fill:#FFCE8B;" cx="256" cy="256" r="97.522"/>
						<circle style="fill:#FFB54E;" cx="256" cy="256" r="83.834"/>
						<circle style="fill:#ED6264;" cx="256" cy="256" r="69.95"/>
						<path style="fill:#E84649;" d="M325.947,256c0,38.636-31.311,69.947-69.947,69.947c-2.867,0-5.695-0.173-8.468-0.512
							c34.643-4.175,61.479-33.666,61.479-69.435s-26.837-65.26-61.479-69.435c2.773-0.339,5.6-0.512,8.468-0.512
							C294.636,186.053,325.947,217.364,325.947,256z"/>
					</g>
				</g>
			</g>
		</g>
		<path style="fill:#FFB54E;" d="M267.648,267.594h-3.038V236.68c0-2.678-1.386-5.165-3.664-6.572
			c-2.279-1.406-5.122-1.536-7.517-0.338l-12.533,6.267c-3.817,1.908-5.364,6.549-3.455,10.366c1.908,3.816,6.55,5.362,10.366,3.455
			l1.351-0.675v18.411h-3.038c-4.267,0-7.726,3.459-7.726,7.726s3.459,7.726,7.726,7.726h21.528c4.267,0,7.726-3.459,7.726-7.726
			S271.915,267.594,267.648,267.594z"/>
	</g>
	<g>
		<g>
			<g>
				<path style="fill:#FFB54E;" d="M58.986,256c0-108.808,88.206-197.014,197.014-197.014V30.82
					C131.637,30.82,30.82,131.637,30.82,256H58.986z"/>
				<path style="fill:#E84649;" d="M34.606,222.439c-0.467,0-0.94-0.042-1.416-0.13c-4.196-0.778-6.967-4.809-6.19-9.005
					c0.773-4.172,1.673-8.378,2.676-12.502c1.008-4.146,5.184-6.69,9.332-5.683c4.146,1.008,6.691,5.186,5.683,9.333
					c-0.935,3.848-1.775,7.774-2.496,11.667C41.505,219.839,38.258,222.439,34.606,222.439z M45.786,182.833
					c-0.924,0-1.862-0.167-2.775-0.518c-3.982-1.534-5.967-6.005-4.434-9.987c1.524-3.956,3.181-7.93,4.927-11.811
					c1.749-3.892,6.325-5.629,10.215-3.877c3.892,1.751,5.628,6.324,3.877,10.215c-1.63,3.624-3.177,7.334-4.599,11.026
					C51.816,180.95,48.889,182.833,45.786,182.833z M64.039,145.939c-1.38,0-2.778-0.37-4.04-1.146
					c-3.635-2.235-4.769-6.995-2.533-10.629c2.225-3.618,4.578-7.219,6.995-10.705c2.43-3.509,7.244-4.38,10.752-1.949
					c3.507,2.432,4.379,7.245,1.948,10.752c-2.257,3.256-4.454,6.62-6.532,9.997C69.169,144.632,66.634,145.939,64.039,145.939z
					 M88.707,112.993c-1.844,0-3.694-0.656-5.172-1.988c-3.169-2.858-3.422-7.743-0.564-10.912c2.843-3.153,5.809-6.268,8.814-9.256
					c3.026-3.007,7.919-2.992,10.927,0.032c3.009,3.026,2.994,7.919-0.032,10.927c-2.807,2.791-5.577,5.699-8.233,8.645
					C92.922,112.133,90.818,112.993,88.707,112.993z M118.926,85.063c-2.318,0-4.611-1.038-6.132-3.019
					c-2.6-3.383-1.964-8.234,1.42-10.834c3.368-2.588,6.847-5.113,10.34-7.505c3.522-2.41,8.33-1.511,10.74,2.01
					c2.411,3.52,1.512,8.329-2.009,10.74c-3.262,2.233-6.511,4.592-9.656,7.008C122.225,84.542,120.568,85.063,118.926,85.063z
					 M153.687,63.082c-2.81,0-5.52-1.538-6.886-4.212c-1.942-3.8-0.435-8.455,3.365-10.396c3.77-1.927,7.648-3.776,11.528-5.496
					c3.898-1.726,8.465,0.03,10.195,3.932c1.73,3.9-0.03,8.465-3.931,10.195c-3.622,1.606-7.242,3.332-10.761,5.13
					C156.071,62.81,154.87,63.082,153.687,63.082z M191.847,47.818c-3.332,0-6.408-2.173-7.404-5.53
					c-1.214-4.091,1.118-8.391,5.209-9.606c4.072-1.208,8.229-2.317,12.354-3.296c4.15-0.987,8.316,1.581,9.302,5.733
					c0.985,4.151-1.581,8.316-5.733,9.301c-3.848,0.913-7.726,1.949-11.526,3.076C193.314,47.714,192.574,47.818,191.847,47.818z
					 M232.189,39.791c-3.905,0-7.258-2.951-7.675-6.921c-0.446-4.243,2.633-8.045,6.877-8.491c1.258-0.132,2.518-0.254,3.781-0.366
					c4.242-0.361,8.002,2.762,8.38,7.012c0.378,4.251-2.762,8.002-7.012,8.38c-1.181,0.105-2.36,0.218-3.535,0.342
					C232.732,39.777,232.459,39.791,232.189,39.791z"/>
			</g>
		</g>
		<g>
			<g>
				<path style="fill:#E84649;" d="M62.887,224.56c-0.507,0-1.02-0.049-1.536-0.154c-4.183-0.843-6.89-4.919-6.046-9.101
					c0.831-4.123,1.803-8.271,2.889-12.328c1.103-4.122,5.339-6.567,9.46-5.468c4.122,1.103,6.57,5.338,5.467,9.46
					c-1.003,3.749-1.9,7.581-2.669,11.39C69.713,222.028,66.489,224.56,62.887,224.56z M74.966,185.867
					c-1.02,0-2.056-0.203-3.052-0.632c-3.919-1.688-5.728-6.233-4.041-10.152c1.662-3.859,3.468-7.719,5.37-11.473
					c1.928-3.808,6.578-5.331,10.384-3.401c3.806,1.928,5.329,6.577,3.401,10.383c-1.757,3.47-3.427,7.036-4.962,10.602
					C80.807,184.118,77.959,185.867,74.966,185.867z M94.76,150.481c-1.537,0-3.088-0.457-4.44-1.408
					c-3.49-2.456-4.328-7.276-1.873-10.765c2.421-3.442,4.979-6.848,7.602-10.126c2.666-3.331,7.528-3.871,10.86-1.204
					c3.331,2.666,3.871,7.528,1.204,10.86c-2.425,3.03-4.79,6.18-7.029,9.361C99.58,149.338,97.189,150.481,94.76,150.481z
					 M121.374,119.885c-2.063,0-4.121-0.821-5.642-2.446c-2.916-3.116-2.755-8.005,0.36-10.922c3.063-2.867,6.259-5.681,9.498-8.361
					c3.288-2.721,8.157-2.262,10.878,1.027c2.72,3.288,2.261,8.158-1.027,10.878c-2.997,2.48-5.955,5.083-8.789,7.737
					C125.162,119.194,123.266,119.885,121.374,119.885z M153.656,95.352c-2.607,0-5.151-1.319-6.606-3.708
					c-2.22-3.644-1.065-8.397,2.579-10.618c3.581-2.181,7.283-4.283,11.005-6.246c3.772-1.992,8.447-0.548,10.439,3.226
					c1.992,3.775,0.547,8.448-3.227,10.44c-3.442,1.817-6.867,3.761-10.178,5.778C156.412,94.988,155.025,95.352,153.656,95.352z
					 M190.258,77.95c-3.182,0-6.162-1.98-7.284-5.151c-1.424-4.023,0.684-8.438,4.706-9.861c3.96-1.401,8.016-2.696,12.054-3.848
					c4.104-1.173,8.379,1.206,9.55,5.31c1.171,4.103-1.206,8.378-5.309,9.549c-3.732,1.065-7.48,2.262-11.14,3.556
					C191.983,77.807,191.113,77.95,190.258,77.95z"/>
				<path style="fill:#E84649;" d="M229.707,68.452c-3.813,0-7.131-2.823-7.649-6.706c-0.564-4.229,2.407-8.116,6.637-8.68
					c2.106-0.281,4.253-0.532,6.379-0.749c4.242-0.409,8.037,2.66,8.469,6.904c0.432,4.245-2.659,8.037-6.904,8.47
					c-1.968,0.2-3.953,0.433-5.9,0.693C230.392,68.43,230.047,68.452,229.707,68.452z"/>
			</g>
		</g>
		<path style="fill:#FFB54E;" d="M256,488.906c-62.211,0-120.699-24.226-164.689-68.217C47.32,376.699,23.094,318.211,23.094,256
			c0-4.268,3.459-7.726,7.726-7.726s7.726,3.459,7.726,7.726c0,119.904,97.549,217.454,217.453,217.454S473.453,375.904,473.453,256
			S375.904,38.546,256,38.546c-4.267,0-7.726-3.459-7.726-7.726s3.459-7.726,7.726-7.726c62.211,0,120.699,24.226,164.689,68.217
			c43.99,43.99,68.217,102.478,68.217,164.689s-24.226,120.699-68.217,164.689C376.699,464.68,318.211,488.906,256,488.906z"/>
		<path style="fill:#FFB54E;" d="M256,460.74c-112.894,0-204.74-91.846-204.74-204.74c0-4.268,3.459-7.726,7.726-7.726
			s7.726,3.459,7.726,7.726c0,104.373,84.914,189.288,189.288,189.288S445.288,360.373,445.288,256S360.374,66.712,256,66.712
			c-4.267,0-7.726-3.459-7.726-7.726s3.459-7.726,7.726-7.726c112.894,0,204.74,91.846,204.74,204.74S368.894,460.74,256,460.74z"/>
		<g>
			<g>
				<path style="fill:#ED6264;" d="M256,109.595L256,109.595c-8.52,0-15.427-6.907-15.427-15.427V15.427
					C240.573,6.907,247.48,0,256,0h0c8.52,0,15.427,6.907,15.427,15.427v78.742C271.427,102.689,264.52,109.595,256,109.595z"/>
			</g>
			<g>
				<path style="fill:#ED6264;" d="M256,512L256,512c-8.52,0-15.427-6.907-15.427-15.427v-78.742c0-8.52,6.907-15.427,15.427-15.427
					h0c8.52,0,15.427,6.907,15.427,15.427v78.742C271.427,505.093,264.52,512,256,512z"/>
			</g>
		</g>
	</g>
	<g>
		<g>
			<path style="fill:#ED6264;" d="M433.31,256L433.31,256c0-8.52,6.907-15.427,15.427-15.427h47.837
				c8.52,0,15.427,6.907,15.427,15.427v0c0,8.52-6.907,15.427-15.427,15.427h-47.837C440.217,271.427,433.31,264.52,433.31,256z"/>
		</g>
		<g>
			<path style="fill:#ED6264;" d="M0,256L0,256c0-8.52,6.907-15.427,15.427-15.427h47.837c8.52,0,15.427,6.907,15.427,15.427v0
				c0,8.52-6.907,15.427-15.427,15.427H15.427C6.907,271.427,0,264.52,0,256z"/>
		</g>
	</g>
</g>
<g>
</g>
<g>
</g>
<g>
</g>
<g>
</g>
<g>
</g>
<g>
</g>
<g>
</g>
<g>
</g>
<g>
</g>
<g>
</g>
<g>
</g>
<g>
</g>
<g>
</g>
<g>
</g>
<g>
</g>
</svg>
