<?xml version="1.0" encoding="iso-8859-1"?>
<!-- Uploaded to SVGRepo https://www.svgrepo.com -->
<svg version="1.1" id="Capa_1" xmlns="http://www.w3.org/2000/svg" xmlns:xlink="http://www.w3.org/1999/xlink" x="0px" y="0px"
	 viewBox="0 0 512 512" style="enable-background:new 0 0 512 512;" xml:space="preserve">
<g>
	<g>
		<g>
			<g>
				<path style="fill:#FFCE8B;" d="M504.274,100.61v373.266c0,4.275-3.461,7.726-7.726,7.726c-4.265,0-7.726-3.451-7.726-7.726
					V100.61c0-4.275,3.461-7.726,7.726-7.726C500.812,92.884,504.274,96.335,504.274,100.61z"/>
				<path style="fill:#FFCE8B;" d="M23.179,100.61v373.266c0,4.275-3.461,7.726-7.726,7.726s-7.726-3.451-7.726-7.726V100.61
					c0-4.275,3.461-7.726,7.726-7.726S23.179,96.335,23.179,100.61z"/>
				<path style="fill:#FFB54E;" d="M23.179,100.61v29.546H7.726V100.61c0-4.275,3.461-7.726,7.726-7.726
					S23.179,96.335,23.179,100.61z"/>
			</g>
			<g>
				<g>
					<path style="fill:#2EA8FC;" d="M315.503,278.594v82.28c0,7.624-6.181,13.815-13.815,13.815h-16.74v89.605
						c0,5.697-4.615,10.302-10.302,10.302h-37.292c-5.687,0-10.302-4.605-10.302-10.302v-89.605h-16.74
						c-7.634,0-13.815-6.191-13.815-13.815v-82.27c0-20.572,16.679-37.241,37.241-37.241h44.535
						C298.835,241.363,315.503,258.032,315.503,278.594z"/>
					<path style="fill:#0097FA;" d="M227.227,317.041v57.649c0,0.567-0.062,1.113-0.175,1.638v-1.638h-15.278v-57.649
						c0-4.275,3.461-7.726,7.726-7.726C223.766,309.314,227.227,312.765,227.227,317.041z"/>
					<path style="fill:#0097FA;" d="M300.401,317.041v57.649h-15.453v-57.649c0-4.275,3.461-7.726,7.726-7.726
						C296.939,309.314,300.401,312.765,300.401,317.041z"/>
					<g>
						<rect x="227.052" y="344.464" style="fill:#756F6F;" width="57.896" height="47.8"/>
					</g>
					<path style="fill:#FFBC8A;" d="M284.948,383.961v80.333c0,5.697-4.615,10.302-10.302,10.302h-37.292
						c-5.687,0-10.302-4.605-10.302-10.302v-80.333H284.948z"/>
					<path style="fill:#FFBC8A;" d="M196.498,344.465v16.41c0,7.634,6.187,13.81,13.81,13.81h16.746v-30.22H196.498z"/>
					<path style="fill:#FFBC8A;" d="M284.946,344.465v30.22h16.746c7.624,0,13.81-6.177,13.81-13.81v-16.41H284.946z"/>
					<rect x="211.774" y="344.464" style="fill:#F5A871;" width="15.278" height="30.225"/>
					<rect x="284.948" y="344.464" style="fill:#F5A871;" width="15.453" height="30.225"/>
					<rect x="247.707" y="344.464" style="fill:#5B5555;" width="15.453" height="39.497"/>
					<rect x="247.707" y="383.961" style="fill:#F5A871;" width="15.453" height="90.635"/>
					<g>
						<circle style="fill:#FFBC8A;" cx="256" cy="213.887" r="29.871"/>
						<path style="fill:#F5A871;" d="M285.874,213.885c0,16.501-13.372,29.874-29.874,29.874c-3.414,0-6.686-0.571-9.734-1.631
							c11.711-4.026,20.13-15.156,20.13-28.243c0-13.087-8.419-24.207-20.13-28.243c3.047-1.06,6.319-1.631,9.734-1.631
							C272.501,184.012,285.874,197.394,285.874,213.885z"/>
					</g>
				</g>
				<g>
					<g>
						<path style="fill:#EFE2DD;" d="M162.274,281.654v82.28c0,7.624-6.181,13.805-13.815,13.805h-16.74v86.556
							c0,5.697-4.615,10.302-10.302,10.302H84.125c-5.687,0-10.302-4.605-10.302-10.302v-86.556h-16.74
							c-7.634,0-13.815-6.181-13.815-13.805v-82.27c0-20.573,16.679-37.252,37.241-37.252h44.535
							C145.606,244.413,162.274,261.091,162.274,281.654z"/>
						<path style="fill:#E0D3CE;" d="M73.998,320.1v57.649c0,0.566-0.062,1.112-0.175,1.638v-1.648H58.545V320.1
							c0-4.275,3.461-7.726,7.726-7.726C70.536,312.374,73.998,315.825,73.998,320.1z"/>
						<path style="fill:#E0D3CE;" d="M147.172,320.1v57.639h-15.453V320.1c0-4.275,3.461-7.726,7.726-7.726
							S147.172,315.825,147.172,320.1z"/>
						<path style="fill:#FFBC8A;" d="M43.268,347.523v16.41c0,7.634,6.187,13.81,13.81,13.81h16.746v-30.22H43.268z"/>
						<path style="fill:#FFBC8A;" d="M131.716,347.523v30.22h16.746c7.624,0,13.81-6.177,13.81-13.81v-16.41H131.716z"/>
						<rect x="58.545" y="347.524" style="fill:#F5A871;" width="15.278" height="30.215"/>
						<rect x="131.719" y="347.524" style="fill:#F5A871;" width="15.453" height="30.215"/>
						<g>
							<g>
								<rect x="73.823" y="347.524" style="fill:#756F6F;" width="57.896" height="44.741"/>
							</g>
						</g>
						<path style="fill:#FFBC8A;" d="M131.719,387.011v77.284c0,5.697-4.615,10.302-10.302,10.302H84.125
							c-5.687,0-10.302-4.605-10.302-10.302v-77.284H131.719z"/>
						<rect x="94.478" y="347.524" style="fill:#5B5555;" width="15.453" height="39.487"/>
						<rect x="94.478" y="387.011" style="fill:#F5A871;" width="15.453" height="87.586"/>
						<g>
							<circle style="fill:#FFBC8A;" cx="102.77" cy="216.945" r="29.871"/>
							<path style="fill:#F5A871;" d="M132.644,216.943c0,16.501-13.372,29.874-29.874,29.874c-3.414,0-6.686-0.571-9.734-1.631
								c11.711-4.026,20.13-15.156,20.13-28.243c0-13.087-8.419-24.207-20.13-28.243c3.047-1.06,6.319-1.631,9.734-1.631
								C119.271,187.07,132.644,200.452,132.644,216.943z"/>
						</g>
					</g>
					<g>
						<path style="fill:#ED6264;" d="M468.732,281.654v82.28c0,7.624-6.181,13.805-13.815,13.805h-16.74v86.556
							c0,5.697-4.615,10.302-10.302,10.302h-37.293c-5.687,0-10.302-4.605-10.302-10.302v-86.556h-16.74
							c-7.634,0-13.815-6.181-13.815-13.805v-82.27c0-20.573,16.679-37.252,37.241-37.252h44.535
							C452.064,244.413,468.732,261.091,468.732,281.654z"/>
						<path style="fill:#E84649;" d="M380.456,320.1v57.649c0,0.566-0.062,1.112-0.175,1.638v-1.648h-15.278V320.1
							c0-4.275,3.461-7.726,7.726-7.726C376.995,312.374,380.456,315.825,380.456,320.1z"/>
						<path style="fill:#E84649;" d="M453.63,320.1v57.639h-15.453V320.1c0-4.275,3.461-7.726,7.726-7.726
							C450.169,312.374,453.63,315.825,453.63,320.1z"/>
						<g>
							<rect x="380.281" y="347.524" style="fill:#756F6F;" width="57.896" height="44.741"/>
						</g>
						<path style="fill:#FFBC8A;" d="M438.177,387.011v77.284c0,5.697-4.615,10.302-10.302,10.302h-37.293
							c-5.687,0-10.302-4.605-10.302-10.302v-77.284H438.177z"/>
						<rect x="400.936" y="347.524" style="fill:#5B5555;" width="15.453" height="39.487"/>
						<rect x="400.936" y="387.011" style="fill:#F5A871;" width="15.453" height="87.586"/>
						<path style="fill:#FFBC8A;" d="M349.727,347.523v16.41c0,7.634,6.187,13.81,13.81,13.81h16.746v-30.22H349.727z"/>
						<path style="fill:#FFBC8A;" d="M438.176,347.523v30.22h16.746c7.624,0,13.81-6.177,13.81-13.81v-16.41H438.176z"/>
						<rect x="365.004" y="347.524" style="fill:#F5A871;" width="15.278" height="30.215"/>
						<path style="fill:#FFBC8A;" d="M468.732,347.524v16.411c0,7.634-6.191,13.805-13.815,13.805h-1.288v-30.215H468.732z"/>
						<rect x="438.177" y="347.524" style="fill:#F5A871;" width="15.453" height="30.215"/>
						<g>
							<circle style="fill:#FFBC8A;" cx="409.23" cy="216.945" r="29.871"/>
							<path style="fill:#F5A871;" d="M439.103,216.943c0,16.501-13.372,29.874-29.874,29.874c-3.414,0-6.686-0.571-9.734-1.631
								c11.711-4.026,20.13-15.156,20.13-28.243c0-13.087-8.419-24.207-20.13-28.243c3.047-1.06,6.319-1.631,9.734-1.631
								C425.731,187.07,439.103,200.452,439.103,216.943z"/>
						</g>
					</g>
				</g>
			</g>
			<path style="fill:#FFB54E;" d="M501.698,318.946H10.302C4.612,318.946,0,314.333,0,308.644v-23.575
				c0-5.69,4.612-10.302,10.302-10.302h491.396c5.69,0,10.302,4.612,10.302,10.302v23.575
				C512,314.333,507.388,318.946,501.698,318.946z"/>
			<path style="fill:#FFA730;" d="M512,285.064v23.581c0,5.687-4.615,10.302-10.302,10.302h-18.543
				c5.687,0,10.302-4.615,10.302-10.302v-23.581c0-5.687-4.615-10.302-10.302-10.302h18.543
				C507.385,274.762,512,279.377,512,285.064z"/>
		</g>
		<g>
			<rect x="36.486" y="30.398" style="fill:#FFF5F5;" width="55.029" height="48.848"/>
			<path style="fill:#FFF5F5;" d="M48.848,115.731H6.181c-3.414,0-6.181-2.767-6.181-6.181V66.884h48.848V115.731z"/>
			<rect x="79.152" y="66.884" style="fill:#FFF5F5;" width="55.029" height="48.848"/>
			<rect x="121.819" y="30.398" style="fill:#FFF5F5;" width="55.029" height="48.848"/>
			<rect x="207.152" y="30.398" style="fill:#FFF5F5;" width="55.029" height="48.848"/>
			<rect x="164.486" y="66.884" style="fill:#FFF5F5;" width="55.029" height="48.848"/>
			<rect x="377.819" y="30.398" style="fill:#FFF5F5;" width="55.029" height="48.848"/>
			<path style="fill:#FFF5F5;" d="M512,79.246h-48.848V30.398h42.667c3.414,0,6.181,2.767,6.181,6.181V79.246z"/>
			<rect x="420.486" y="66.884" style="fill:#FFF5F5;" width="55.029" height="48.848"/>
			<rect x="292.486" y="30.398" style="fill:#FFF5F5;" width="55.029" height="48.848"/>
			<rect x="249.819" y="66.884" style="fill:#FFF5F5;" width="55.029" height="48.848"/>
			<rect x="335.152" y="66.884" style="fill:#FFF5F5;" width="55.029" height="48.848"/>
			<g>
				<g>
					<g>
						<g>
							<path style="fill:#756F6F;" d="M42.667,73.065H0V36.579c0-3.414,2.767-6.181,6.181-6.181h36.486V73.065z"/>
							<rect x="85.333" y="30.398" style="fill:#756F6F;" width="42.667" height="42.667"/>
							<rect x="42.667" y="73.065" style="fill:#756F6F;" width="42.667" height="42.667"/>
						</g>
					</g>
				</g>
			</g>
			<g>
				<g>
					<g>
						<g>
							<rect x="170.667" y="30.398" style="fill:#756F6F;" width="42.667" height="42.667"/>
							<rect x="128" y="73.065" style="fill:#756F6F;" width="42.667" height="42.667"/>
							<rect x="213.333" y="73.065" style="fill:#756F6F;" width="42.667" height="42.667"/>
						</g>
					</g>
				</g>
			</g>
			<g>
				<g>
					<g>
						<g>
							<rect x="426.667" y="30.398" style="fill:#756F6F;" width="42.667" height="42.667"/>
							<rect x="384" y="73.065" style="fill:#756F6F;" width="42.667" height="42.667"/>
							<path style="fill:#FFB54E;" d="M504.274,100.61v29.546h-15.453V100.61c0-4.275,3.461-7.726,7.726-7.726
								C500.812,92.884,504.274,96.335,504.274,100.61z"/>
							<path style="fill:#756F6F;" d="M505.819,115.731h-36.486V73.065H512v36.486C512,112.964,509.233,115.731,505.819,115.731z"/>
						</g>
					</g>
				</g>
			</g>
			<g>
				<g>
					<g>
						<g>
							<rect x="256" y="30.398" style="fill:#756F6F;" width="42.667" height="42.667"/>
							<rect x="341.333" y="30.398" style="fill:#756F6F;" width="42.667" height="42.667"/>
							<rect x="298.667" y="73.065" style="fill:#756F6F;" width="42.667" height="42.667"/>
						</g>
					</g>
				</g>
			</g>
		</g>
	</g>
</g>
<g>
</g>
<g>
</g>
<g>
</g>
<g>
</g>
<g>
</g>
<g>
</g>
<g>
</g>
<g>
</g>
<g>
</g>
<g>
</g>
<g>
</g>
<g>
</g>
<g>
</g>
<g>
</g>
<g>
</g>
</svg>
