<?xml version="1.0" encoding="iso-8859-1"?>
<!-- Uploaded to SVGRepo https://www.svgrepo.com -->
<svg version="1.1" id="Capa_1" xmlns="http://www.w3.org/2000/svg" xmlns:xlink="http://www.w3.org/1999/xlink" x="0px" y="0px"
	 viewBox="0 0 512 512" style="enable-background:new 0 0 512 512;" xml:space="preserve">
<g>
	<g>
		<path style="fill:#ED6264;" d="M316.771,134.786H141.402V54.02c0-29.834,24.186-54.02,54.02-54.02h67.329
			c29.834,0,54.02,24.186,54.02,54.02V134.786z"/>
		<path style="fill:#E84649;" d="M316.769,54.023v80.758h-16.784V54.023c0-29.837-24.194-54.021-54.021-54.021h16.784
			C292.585,0.003,316.769,24.186,316.769,54.023z"/>
	</g>
	<g>
		<g>
			<g>
				<g>
					<path style="fill:#ED6264;" d="M349.06,241.785c-2.406-1.636-4.869-3.193-7.4-4.647c-2.318-1.329-4.687-2.575-7.108-3.75
						c-1.741-0.845-3.503-1.648-5.285-2.4c-1.01-0.433-2.029-0.845-3.06-1.246c-13.011-5.089-27.166-7.871-41.97-7.871h-49.562
						c-13.588,0-26.486,2.926-38.096,8.2c-0.917,0.412-1.823,0.845-2.71,1.288c-1.641,0.809-3.248,1.675-4.831,2.577V512H349.06
						V241.785z"/>
					<path style="fill:#E84649;" d="M341.66,237.137V512h-15.453V229.741c1.03,0.402,2.05,0.814,3.06,1.246
						c1.782,0.752,3.544,1.556,5.285,2.4C336.973,234.562,339.342,235.808,341.66,237.137z"/>
					<polygon style="fill:#FFF5F5;" points="349.06,417.271 341.66,421.828 326.208,431.347 264.901,469.093 189.039,419.523 
						189.039,512 349.06,512 					"/>
					<polygon style="fill:#E0D3CE;" points="341.66,421.828 341.66,512 326.208,512 326.208,431.347 					"/>
					<path style="fill:#D68A5A;" d="M193.87,231.358V512h-41.218c-5.69,0-10.302-4.612-10.302-10.302V314.195
						c0-29.824,14.124-56.33,36.067-73.205C183.208,237.292,188.39,234.067,193.87,231.358z"/>
					<path style="fill:#C47A4A;" d="M193.87,231.358V512h-15.453V240.99C183.208,237.292,188.39,234.067,193.87,231.358z"/>
					<rect x="142.351" y="422.673" style="fill:#65BAFC;" width="51.519" height="38.931"/>
					<rect x="178.418" y="422.673" style="fill:#2EA8FC;" width="15.453" height="38.931"/>
					<path style="fill:#E84649;" d="M349.06,241.771c-18.483-12.562-40.799-19.906-64.832-19.906h-18.382
						c32.689,0,62.204,13.589,83.214,35.421V241.771z"/>
					<path style="fill:#D68A5A;" d="M399.712,337.348v164.351c0,5.69-4.612,10.302-10.302,10.302h-47.755V237.136
						C376.349,257.052,399.712,294.478,399.712,337.348z"/>
					<path style="fill:#C47A4A;" d="M399.712,337.348v164.351c0,5.69-4.612,10.302-10.302,10.302h-8.08V337.348
						c0-34.756-15.365-65.939-39.675-87.116v-13.095C376.349,257.052,399.712,294.478,399.712,337.348z"/>
				</g>
				<g>
					<path style="fill:#65BAFC;" d="M193.867,214.046v70.292c1.503,31.579,27.678,56.808,59.628,56.784
						c32.787-0.024,59.605-27.775,59.605-60.562v-56.004c0-5.804-4.705-10.51-10.51-10.51H193.867z"/>
					<circle style="fill:#C47A4A;" cx="137.234" cy="147.322" r="24.946"/>
					<path style="fill:#2EA8FC;" d="M272.606,322.203c0,5.728-0.872,11.256-2.48,16.458c-5.286,1.598-10.857,2.459-16.627,2.459
						c-29.921,0.021-54.788-22.102-59.055-50.857c-0.284-1.944-0.483-3.92-0.578-5.928v-12.727
						c7.042-3.227,14.871-5.034,23.111-5.034C247.656,266.574,272.606,291.535,272.606,322.203z"/>
					<path style="fill:#D68A5A;" d="M159.934,78.792c-10.235,0-18.532,8.297-18.532,18.532v66.364
						c0,43.479,35.211,78.731,78.673,78.803v38.98c0,18.433,14.943,33.375,33.375,33.375h0c18.433,0,33.375-14.943,33.375-33.375
						V113.125c0-18.961-15.371-34.333-34.333-34.333H159.934z"/>
					<circle style="fill:#D68A5A;" cx="295.977" cy="147.322" r="24.946"/>
				</g>
			</g>
			<path style="fill:#B76B41;" d="M173.402,145.609c-4.268,0-7.726-3.459-7.726-7.726s3.459-7.742,7.726-7.742
				c4.268,0,7.726,3.443,7.726,7.71v0.033C181.128,142.149,177.67,145.609,173.402,145.609z"/>
			<path style="fill:#B76B41;" d="M237.096,145.609c-4.268,0-7.726-3.459-7.726-7.726s3.459-7.742,7.726-7.742
				s7.726,3.443,7.726,7.71v0.033C244.823,142.149,241.364,145.609,237.096,145.609z"/>
			<g>
				<path style="fill:#ED6264;" d="M218.325,179.431c0,13.454-6.851,16.612-15.302,16.612s-15.302-3.158-15.302-16.612
					c0-13.454,6.851-32.11,15.302-32.11S218.325,165.977,218.325,179.431z"/>
			</g>
			<path style="fill:#B76B41;" d="M228.322,222.816c-0.573,0-0.903-0.02-0.934-0.023c-4.256-0.31-7.455-4.011-7.145-8.267
				c0.308-4.233,3.959-7.419,8.198-7.149c2.469,0.119,14.819-0.124,17.41-16.556c0.663-4.215,4.615-7.093,8.835-6.429
				c4.215,0.665,7.094,4.621,6.429,8.836C256.69,221.294,233.309,222.816,228.322,222.816z"/>
		</g>
		<g>
			<g>
				<circle style="fill:#FFC26D;" cx="216.981" cy="322.205" r="40.916"/>
				<path style="fill:#FFA730;" d="M257.896,322.21c0,22.599-18.315,40.914-40.914,40.914c-4.32,0-8.481-0.665-12.395-1.908
					c16.53-5.256,28.519-20.728,28.519-39.006s-11.989-33.75-28.519-39.018c3.914-1.243,8.075-1.908,12.395-1.908
					C239.581,281.284,257.896,299.612,257.896,322.21z"/>
			</g>
			<path style="fill:#FA8916;" d="M226.364,328.553h-0.04V308.4c0-2.678-1.386-5.165-3.665-6.572
				c-2.278-1.408-5.122-1.536-7.517-0.338l-9.042,4.522c-3.817,1.908-5.363,6.549-3.455,10.366c1.562,3.123,4.949,4.724,8.226,4.16
				v8.016h-0.04c-4.268,0-7.726,3.459-7.726,7.726s3.459,7.726,7.726,7.726h15.533c4.268,0,7.726-3.459,7.726-7.726
				S230.631,328.553,226.364,328.553z"/>
		</g>
		<path style="fill:#FFF5F5;" d="M283.891,415.541h-36.088c-5.804,0-10.51-4.705-10.51-10.51v-8.703
			c0-5.804,4.705-10.51,10.51-10.51h36.088c5.804,0,10.51,4.705,10.51,10.51v8.703C294.401,410.835,289.695,415.541,283.891,415.541
			z"/>
	</g>
</g>
<g>
</g>
<g>
</g>
<g>
</g>
<g>
</g>
<g>
</g>
<g>
</g>
<g>
</g>
<g>
</g>
<g>
</g>
<g>
</g>
<g>
</g>
<g>
</g>
<g>
</g>
<g>
</g>
<g>
</g>
</svg>
