<?xml version="1.0" encoding="iso-8859-1"?>
<!-- Uploaded to SVGRepo https://www.svgrepo.com -->
<svg version="1.1" id="Capa_1" xmlns="http://www.w3.org/2000/svg" xmlns:xlink="http://www.w3.org/1999/xlink" x="0px" y="0px"
	 viewBox="0 0 512 512" style="enable-background:new 0 0 512 512;" xml:space="preserve">
<g>
	<g>
		<path style="fill:#EFE2DD;" d="M256,222.107c-4.233,0-7.663-3.431-7.663-7.663V159.1c0-4.232,3.431-7.663,7.663-7.663
			s7.663,3.431,7.663,7.663v55.344C263.663,218.676,260.233,222.107,256,222.107z"/>
		<g>
			<path style="fill:#FFC26D;" d="M396.569,72.178H302.23c-4.233,0-7.663-3.431-7.663-7.663c0-4.232,3.431-7.663,7.663-7.663h94.339
				c4.233,0,7.663,3.431,7.663,7.663C404.233,68.747,400.802,72.178,396.569,72.178z"/>
			<path style="fill:#FFC26D;" d="M209.77,72.178h-94.339c-4.233,0-7.663-3.431-7.663-7.663c0-4.232,3.431-7.663,7.663-7.663h94.339
				c4.233,0,7.663,3.431,7.663,7.663C217.433,68.747,214.003,72.178,209.77,72.178z"/>
		</g>
		<g>
			<g>
				<path style="fill:#2EA8FC;" d="M155.261,348.357v125.159H31.114c-5.64,0-10.218-4.567-10.218-10.218V348.357H155.261z"/>
				<rect x="132.506" y="348.357" style="fill:#0097FA;" width="22.755" height="125.159"/>
				<path style="fill:#2EA8FC;" d="M491.104,348.357v114.941c0,5.651-4.578,10.218-10.218,10.218H356.739V348.357H491.104z"/>
				<rect x="356.739" y="348.357" style="fill:#0097FA;" width="22.755" height="125.159"/>
				<path style="fill:#0097FA;" d="M491.104,348.357v114.941c0,5.651-4.578,10.218-10.218,10.218h-20.896
					c5.64,0,10.218-4.567,10.218-10.218V348.357H491.104z"/>
				<path style="fill:#F69798;" d="M155.088,315.915v40.249H10.218C4.567,356.163,0,351.586,0,345.946v-19.813
					c0-5.64,4.567-10.218,10.218-10.218H155.088z"/>
				<rect x="132.506" y="315.915" style="fill:#F37D7E;" width="22.582" height="40.249"/>
				<path style="fill:#FFCE8B;" d="M512,326.133v19.813c0,5.64-4.567,10.218-10.218,10.218h-144.87v-40.249h144.87
					C507.433,315.915,512,320.493,512,326.133z"/>
				<path style="fill:#FFB54E;" d="M512,326.133v19.813c0,5.64-4.567,10.218-10.218,10.218h-20.896
					c5.651,0,10.218-4.578,10.218-10.218v-19.813c0-5.64-4.567-10.218-10.218-10.218h20.896
					C507.433,315.915,512,320.493,512,326.133z"/>
				<rect x="356.912" y="315.915" style="fill:#FFB54E;" width="22.581" height="40.249"/>
				<rect x="146.815" y="228.823" style="fill:#8ECBFD;" width="218.37" height="244.698"/>
				<rect x="344.14" y="228.823" style="fill:#65BAFC;" width="21.045" height="244.698"/>
				<g>
					<path style="fill:#FFC26D;" d="M380.179,247.415H131.821c-5.643,0-10.218-4.575-10.218-10.218v-19.803
						c0-5.643,4.575-10.218,10.218-10.218h248.358c5.643,0,10.218,4.575,10.218,10.218v19.803
						C390.397,242.84,385.822,247.415,380.179,247.415z"/>
				</g>
				<g>
					<path style="fill:#FFA730;" d="M390.396,217.394v19.802c0,5.64-4.578,10.218-10.218,10.218h-20.896
						c5.64,0,10.218-4.578,10.218-10.218v-19.802c0-5.64-4.578-10.218-10.218-10.218h20.896
						C385.819,207.176,390.396,211.753,390.396,217.394z"/>
				</g>
			</g>
			<g>
				<path style="fill:#F37D7E;" d="M286.321,392.042L256,371.942l-30.321,20.1c-4.075,2.702-9.518-0.221-9.518-5.11V207.176h79.678
					v179.757C295.839,391.822,290.396,394.744,286.321,392.042z"/>
				<path style="fill:#ED6264;" d="M295.84,207.179v179.754c0,4.884-5.446,7.807-9.523,5.109l-7.009-4.649
					c0.01-0.153,0.02-0.307,0.02-0.46V207.179H295.84z"/>
			</g>
		</g>
		<path style="fill:#FFF5F5;" d="M256,162.738L256,162.738c-27.498,0-49.79-22.292-49.79-49.79V50.495
			c0-6.636,5.38-12.016,12.016-12.016h75.548c6.636,0,12.016,5.38,12.016,12.016v62.452C305.79,140.446,283.498,162.738,256,162.738
			z"/>
		<path style="fill:#EFE2DD;" d="M305.796,50.499v61.68c0,27.155-21.432,49.897-48.579,50.539
			c-4.274,0.101-8.421-0.331-12.392-1.247c22.11-5.071,38.609-24.874,38.609-48.522V38.483h10.346
			C300.416,38.483,305.796,43.863,305.796,50.499z"/>
		<g>
			<g>
				<path style="fill:#F37D7E;" d="M166.218,158.858l-13.025-8.635l-13.025,8.635c-4.797,3.18-11.204-0.26-11.204-6.015V62.031
					c0-6.636,5.38-12.016,12.016-12.016h24.426c6.636,0,12.016,5.38,12.016,12.016v90.811
					C177.422,158.598,171.015,162.038,166.218,158.858z"/>
			</g>
			<g>
				<path style="fill:#F37D7E;" d="M371.833,158.858l-13.025-8.635l-13.025,8.635c-4.797,3.18-11.204-0.26-11.204-6.015V62.031
					c0-6.636,5.38-12.016,12.016-12.016h24.426c6.636,0,12.016,5.38,12.016,12.016v90.811
					C383.037,158.598,376.63,162.038,371.833,158.858z"/>
			</g>
		</g>
		<path style="fill:#FFA730;" d="M266.321,110.698h-2.657V77.124c0-2.656-1.375-5.122-3.635-6.519
			c-2.259-1.397-5.081-1.523-7.456-0.335l-12.016,6.009c-3.786,1.893-5.32,6.496-3.427,10.282c1.893,3.786,6.496,5.322,10.282,3.427
			l0.925-0.463v21.174h-2.657c-4.233,0-7.663,3.431-7.663,7.663c0,4.232,3.431,7.663,7.663,7.663h20.641
			c4.233,0,7.663-3.431,7.663-7.663C273.984,114.129,270.554,110.698,266.321,110.698z"/>
	</g>
	<g>
		<g>
			<path style="fill:#ED6264;" d="M177.424,62.033v90.807c0,5.763-6.407,9.196-11.209,6.018l-4.455-2.953
				c0.429-0.909,0.674-1.941,0.674-3.065V62.033c0-6.642-5.375-12.016-12.016-12.016h14.99
				C172.039,50.017,177.424,55.391,177.424,62.033z"/>
		</g>
		<g>
			<path style="fill:#ED6264;" d="M383.04,62.033v90.807c0,5.763-6.407,9.196-11.209,6.018l-4.455-2.953
				c0.429-0.909,0.674-1.941,0.674-3.065V62.033c0-6.642-5.375-12.016-12.016-12.016h14.99
				C377.655,50.017,383.04,55.391,383.04,62.033z"/>
		</g>
	</g>
</g>
<g>
</g>
<g>
</g>
<g>
</g>
<g>
</g>
<g>
</g>
<g>
</g>
<g>
</g>
<g>
</g>
<g>
</g>
<g>
</g>
<g>
</g>
<g>
</g>
<g>
</g>
<g>
</g>
<g>
</g>
</svg>
