<?xml version="1.0" encoding="iso-8859-1"?>
<!-- Uploaded to SVGRepo https://www.svgrepo.com -->
<svg version="1.1" id="Capa_1" xmlns="http://www.w3.org/2000/svg" xmlns:xlink="http://www.w3.org/1999/xlink" x="0px" y="0px"
	 viewBox="0 0 512 512" style="enable-background:new 0 0 512 512;" xml:space="preserve">
<g>
	<g>
		<path style="fill:#C47A4A;" d="M372.918,44.018c0,23.184-17.939,42.184-40.69,43.884c-1.103,0.082-2.205,0.124-3.328,0.124
			c-24.307,0-44.008-19.701-44.008-44.008c0-12.179,4.946-23.194,12.931-31.169C305.788,4.905,316.772,0,328.899,0
			C353.206,0,372.918,19.711,372.918,44.018z"/>
		<path style="fill:#B7693E;" d="M308.798,59.839c-1.074,0-2.166-0.225-3.206-0.702c-3.872-1.774-5.582-6.337-3.82-10.213
			c0.106-0.232,2.642-5.76,7.285-11.701c6.518-8.342,14.221-13.701,22.275-15.501c4.161-0.928,8.295,1.692,9.224,5.857
			c0.931,4.164-1.691,8.294-5.856,9.225c-9.435,2.107-16.82,14.095-18.87,18.536C314.525,58.168,311.724,59.839,308.798,59.839z"/>
		<path style="fill:#B7693E;" d="M332.227,87.902c-1.103,0.082-2.205,0.124-3.328,0.124c-24.307,0-44.008-19.701-44.008-44.008
			c0-12.179,4.946-23.194,12.931-31.169c2.937,2.627,5.719,5.482,8.356,8.532C321.439,39.083,330.538,62.442,332.227,87.902z"/>
		<path style="fill:#D68A5A;" d="M261.469,182.342c49.998-14.174,56.636-47.21,56.636-85.705c0-51.416-33.28-93.097-82.96-93.097
			c-64.318,0-90.571,25.723-96.948,69.85c-5.864,40.581,44.135,90.426,56.387,108.952H261.469z"/>
		<path style="fill:#C47A4A;" d="M294.907,96.64c0,38.501-6.642,71.535-56.653,85.702h23.223
			c49.99-14.175,56.624-47.209,56.624-85.702c0-51.416-33.271-93.096-82.957-93.096c-4.997,0-9.778,0.155-14.322,0.464
			C265.551,8.645,294.907,48.346,294.907,96.64z"/>
		<g>
			<g>
				<g>
					<path style="fill:#E0D3CE;" d="M396.897,340.753v160.945c0,5.69-4.612,10.302-10.302,10.302H154.877
						c-5.69,0-10.302-4.612-10.302-10.302v-183.63c0-49.984,40.527-90.522,90.522-90.522h48.594
						C346.213,227.546,396.897,278.231,396.897,340.753z"/>
					<path style="fill:#CDBFBB;" d="M333.016,378.633V512h-15.453V378.633c0-4.265,3.451-7.726,7.726-7.726
						C329.554,370.906,333.016,374.368,333.016,378.633z"/>
					<polygon style="fill:#FFF5F5;" points="333.016,474.347 290.778,474.347 213.999,339.671 256.236,339.671 317.563,447.243 
											"/>
					<rect x="194.65" y="474.35" style="fill:#756F6F;" width="138.361" height="37.65"/>
					<rect x="317.563" y="474.347" style="fill:#5B5555;" width="15.453" height="37.653"/>
					<path style="fill:#CDBFBB;" d="M396.893,340.76v160.938c0,5.69-4.612,10.302-10.302,10.302h-7.72V340.77
						c0-62.524-50.695-113.219-113.219-113.219h18.032C346.208,227.551,396.893,278.236,396.893,340.76z"/>
					<path style="fill:#CDBFBB;" d="M194.652,378.633V512h-15.453V378.633c0-4.265,3.461-7.726,7.726-7.726
						C191.191,370.906,194.652,374.368,194.652,378.633z"/>
				</g>
				<g>
					<circle style="fill:#F5A871;" cx="139.56" cy="154.468" r="24.457"/>
					<path style="fill:#ED6264;" d="M311.979,230.184v36.365c0,19.563-9.735,37.293-24.601,48.171
						c-9.56,7.016-21.253,11.188-33.831,11.198c-26.939,0.031-49.686-18.255-56.475-43.072c-1.102-4.038-1.782-8.262-1.988-12.599
						v-50.366h106.593C307.364,219.882,311.979,224.497,311.979,230.184z"/>
					<path style="fill:#E84649;" d="M287.379,314.72c-9.56,7.016-21.253,11.188-33.831,11.198
						c-26.939,0.031-49.686-18.255-56.475-43.072c9.673-8.705,22.458-14.01,36.458-14.01
						C260.656,268.836,283.227,288.749,287.379,314.72z"/>
					<path style="fill:#FFBC8A;" d="M143.646,87.282v83.232c0,42.627,34.521,77.188,77.131,77.259v19.669
						c0,18.071,14.65,32.721,32.721,32.721h0c18.071,0,32.721-14.65,32.721-32.721V87.282H143.646z"/>
					<circle style="fill:#FFBC8A;" cx="295.192" cy="154.468" r="24.457"/>
				</g>
			</g>
			<path style="fill:#B7693E;" d="M175.019,152.94c-4.267,0-7.726-3.459-7.726-7.726c0-4.267,3.459-7.742,7.726-7.742
				c4.267,0,7.726,3.443,7.726,7.71v0.032C182.746,149.481,179.287,152.94,175.019,152.94z"/>
			<path style="fill:#B7693E;" d="M237.465,152.94c-4.267,0-7.726-3.459-7.726-7.726c0-4.267,3.459-7.742,7.726-7.742
				s7.726,3.443,7.726,7.71v0.032C245.192,149.481,241.732,152.94,237.465,152.94z"/>
			<g>
				<path style="fill:#ED6264;" d="M219.062,185.949c0,13.19-6.717,16.286-15.002,16.286c-8.285,0-15.002-3.096-15.002-16.286
					c0-13.19,6.717-31.48,15.002-31.48C212.345,154.468,219.062,172.758,219.062,185.949z"/>
			</g>
			<path style="fill:#F5A871;" d="M228.857,228.634c-0.566,0-0.891-0.02-0.92-0.022c-4.256-0.31-7.455-4.011-7.145-8.267
				c0.308-4.232,3.971-7.42,8.195-7.15c2.412,0.113,14.393-0.131,16.912-16.104c0.665-4.215,4.624-7.086,8.836-6.429
				c4.215,0.665,7.094,4.621,6.429,8.836C256.806,227.134,233.772,228.634,228.857,228.634z"/>
			<g>
				<g>
					<circle style="fill:#FFC26D;" cx="233.534" cy="323.373" r="40.114"/>
					<path style="fill:#FFA730;" d="M273.648,323.378c0,22.156-17.956,40.112-40.112,40.112c-4.236,0-8.315-0.652-12.152-1.87
						c16.206-5.153,27.96-20.322,27.96-38.242s-11.754-33.089-27.96-38.254c3.837-1.219,7.916-1.87,12.152-1.87
						C255.691,283.254,273.648,301.222,273.648,323.378z"/>
				</g>
				<path style="fill:#FA8916;" d="M242.845,329.451v-19.612c0-2.678-1.386-5.164-3.664-6.572c-2.277-1.407-5.121-1.535-7.517-0.339
					l-8.866,4.433c-3.816,1.908-5.364,6.549-3.456,10.366c1.535,3.068,4.835,4.672,8.05,4.189v7.536
					c-4.215,0.06-7.615,3.491-7.615,7.721c0,4.267,3.459,7.726,7.726,7.726h15.229c4.267,0,7.726-3.459,7.726-7.726
					C250.46,332.942,247.06,329.511,242.845,329.451z"/>
			</g>
		</g>
		<g>
			<path style="fill:#756F6F;" d="M316.745,106.634H139.673c-5.363,0-9.711-4.348-9.711-9.711V74.737
				c0-5.363,4.348-9.711,9.711-9.711h177.072c5.363,0,9.711,4.348,9.711,9.711v22.186
				C326.456,102.286,322.108,106.634,316.745,106.634z"/>
			<path style="fill:#5B5555;" d="M326.457,74.734v22.184c0,5.368-4.348,9.717-9.717,9.717h-20.185c5.368,0,9.717-4.348,9.717-9.717
				V74.734c0-5.358-4.348-9.706-9.717-9.706h20.185C322.109,65.028,326.457,69.376,326.457,74.734z"/>
		</g>
	</g>
	<polygon style="fill:#E0D3CE;" points="333.016,474.347 317.563,474.347 317.563,447.243 	"/>
</g>
<g>
</g>
<g>
</g>
<g>
</g>
<g>
</g>
<g>
</g>
<g>
</g>
<g>
</g>
<g>
</g>
<g>
</g>
<g>
</g>
<g>
</g>
<g>
</g>
<g>
</g>
<g>
</g>
<g>
</g>
</svg>
