<?xml version="1.0" encoding="iso-8859-1"?>
<!-- Uploaded to SVGRepo https://www.svgrepo.com -->
<svg version="1.1" id="Capa_1" xmlns="http://www.w3.org/2000/svg" xmlns:xlink="http://www.w3.org/1999/xlink" x="0px" y="0px"
	 viewBox="0 0 512 512" style="enable-background:new 0 0 512 512;" xml:space="preserve">
<g>
	<g>
		<g>
			<path style="fill:#ED6264;" d="M286.863,227.609h-48.583c-49.984,0-90.501,40.527-90.501,90.501v79.025h48.127V512H342.19
				V397.822h57.858v-57.027C400.048,278.284,349.373,227.609,286.863,227.609z"/>
			<path style="fill:#E84649;" d="M200.936,378.664V512h-15.453V378.664c0-4.275,3.451-7.726,7.726-7.726
				C197.474,370.938,200.936,374.389,200.936,378.664z"/>
			<path style="fill:#E84649;" d="M382.031,340.805v57.017h18.018v-57.027c0-62.511-50.675-113.186-113.186-113.186h-18.028
				C331.346,227.609,382.031,278.294,382.031,340.805z"/>
			<path style="fill:#FFBC8A;" d="M336.183,512h53.566c5.69,0,10.302-4.612,10.302-10.302v-81.153h-63.868V512z"/>
			<path style="fill:#F5A871;" d="M400.048,420.541v81.157c0,5.69-4.612,10.302-10.302,10.302h-7.716v-91.459H400.048z"/>
			<rect x="336.183" y="388.316" style="fill:#FFF5F5;" width="63.868" height="32.229"/>
			<rect x="382.031" y="388.317" style="fill:#E0D3CE;" width="18.018" height="32.224"/>
			<rect x="147.778" y="388.317" style="fill:#FFF5F5;" width="53.157" height="32.224"/>
			<path style="fill:#FFBC8A;" d="M200.936,420.541V512H158.08c-5.69,0-10.302-4.612-10.302-10.302v-81.157H200.936z"/>
			<rect x="185.483" y="388.317" style="fill:#F5A871;" width="15.453" height="123.683"/>
			<path style="fill:#E84649;" d="M336.188,378.664V512h-15.453V378.664c0-4.275,3.451-7.726,7.726-7.726
				C332.726,370.938,336.188,374.389,336.188,378.664z"/>
			<rect x="147.778" y="388.317" style="fill:#FFF5F5;" width="53.157" height="32.224"/>
			<rect x="185.483" y="388.317" style="fill:#E0D3CE;" width="15.453" height="32.224"/>
		</g>
		<g>
			<circle style="fill:#F5A871;" cx="142.768" cy="154.541" r="24.452"/>
			<path style="fill:#65BAFC;" d="M315.151,230.246v36.355c0,13.557-4.687,26.249-12.527,36.386
				c-10.714,13.877-27.331,22.963-45.894,22.973c-19.852,0.01-37.437-9.921-48.017-25.085c-6.119-8.746-9.9-19.244-10.436-30.576
				v-50.355h106.572C310.536,219.945,315.151,224.56,315.151,230.246z"/>
			<path style="fill:#2EA8FC;" d="M302.624,302.987c-10.714,13.877-27.331,22.963-45.894,22.973
				c-19.852,0.01-37.437-9.921-48.017-25.085c9.622-15.484,26.785-25.816,46.327-25.816
				C275.448,275.059,293.281,286.34,302.624,302.987z"/>
			<path style="fill:#FFBC8A;" d="M146.853,87.368v83.215c0,42.618,34.514,77.172,77.115,77.243v19.665
				c0,18.068,14.647,32.714,32.714,32.714h0c18.068,0,32.714-14.647,32.714-32.714V87.368H146.853z"/>
			<rect x="289.398" y="78.264" style="fill:#E0D3CE;" width="26.423" height="82.247"/>
			<g>
				<path style="fill:#756F6F;" d="M315.821,47.823v37.632c0,11.528-9.344,20.871-20.871,20.871H156.648
					c-14.989,0-28.824-8.241-35.768-21.52c-4.935-9.436-8.932-22.283-8.932-39.147c0-23.581,6.933-35.902,13.382-42.258
					c4.821-4.759,12.661-4.481,17.184,0.567c4.78,5.326,11.61,8.365,18.759,8.365h119.058
					C299.935,12.333,315.821,28.229,315.821,47.823z"/>
				<path style="fill:#5B5555;" d="M315.821,47.823v37.632c0,11.528-9.344,20.871-20.871,20.871h-18.904
					c11.528,0,20.871-9.344,20.871-20.871V47.823c0-19.594-15.885-35.49-35.49-35.49h18.904
					C299.935,12.333,315.821,28.229,315.821,47.823z"/>
			</g>
			<circle style="fill:#FFBC8A;" cx="298.368" cy="154.541" r="24.452"/>
		</g>
	</g>
	<g>
		<circle style="fill:#DAEDFF;" cx="255.039" cy="329.593" r="40.106"/>
		<path style="fill:#B6DCFF;" d="M295.145,329.598c0,22.151-17.953,40.104-40.104,40.104c-4.235,0-8.313-0.651-12.15-1.87
			c16.203-5.152,27.954-20.317,27.954-38.234s-11.751-33.082-27.954-38.246c3.837-1.219,7.915-1.87,12.15-1.87
			C277.192,289.482,295.145,307.446,295.145,329.598z"/>
	</g>
	<path style="fill:#FFF5F5;" d="M296.014,409.269h-63.992c-4.268,0-7.726-3.459-7.726-7.726s3.459-7.726,7.726-7.726h63.992
		c4.268,0,7.726,3.459,7.726,7.726S300.282,409.269,296.014,409.269z"/>
	<path style="fill:#FFF5F5;" d="M296.014,437.543h-63.992c-4.268,0-7.726-3.459-7.726-7.726c0-4.267,3.459-7.726,7.726-7.726h63.992
		c4.268,0,7.726,3.459,7.726,7.726C303.741,434.084,300.282,437.543,296.014,437.543z"/>
	<path style="fill:#5B5555;" d="M178.22,153.015c-4.268,0-7.726-3.459-7.726-7.726s3.459-7.742,7.726-7.742s7.726,3.443,7.726,7.71
		v0.032C185.946,149.556,182.488,153.015,178.22,153.015z"/>
	<path style="fill:#5B5555;" d="M240.652,153.015c-4.268,0-7.726-3.459-7.726-7.726s3.459-7.742,7.726-7.742s7.726,3.443,7.726,7.71
		v0.032C248.379,149.556,244.92,153.015,240.652,153.015z"/>
	<g>
		<path style="fill:#ED6264;" d="M222.254,186.015c0,13.188-6.715,16.283-14.999,16.283c-8.284,0-14.999-3.095-14.999-16.283
			c0-13.188,6.715-31.474,14.999-31.474C215.538,154.541,222.254,172.828,222.254,186.015z"/>
	</g>
	<path style="fill:#5B5555;" d="M184.978,106.326h-26.754c-2.225-2.637-4.183-5.532-5.821-8.664
		c-6.511-12.455-9.807-26.826-9.807-42.732c0-4.265,3.451-7.726,7.726-7.726c4.265,0,7.726,3.461,7.726,7.726
		c0,13.382,2.71,25.353,8.046,35.562C170.113,98.167,176.943,103.761,184.978,106.326z"/>
	<path style="fill:#5B5555;" d="M226.185,106.326h-26.733c-2.236-2.637-4.193-5.532-5.831-8.664
		c-1.978-3.781-0.515-8.458,3.266-10.436c3.781-1.978,8.448-0.515,10.425,3.266C211.32,98.167,218.15,103.761,226.185,106.326z"/>
	<path style="fill:#F5A871;" d="M232.047,228.694c-0.566,0-0.891-0.02-0.921-0.022c-4.256-0.31-7.455-4.011-7.145-8.267
		c0.308-4.231,3.975-7.414,8.196-7.149c2.407,0.11,14.388-0.13,16.907-16.1c0.665-4.214,4.611-7.097,8.835-6.428
		c4.215,0.664,7.094,4.62,6.429,8.835C259.991,227.195,236.961,228.694,232.047,228.694z"/>
	<path style="fill:#2EA8FC;" d="M264.351,335.668v-19.607c0-2.678-1.386-5.164-3.664-6.572c-2.28-1.408-5.122-1.535-7.517-0.339
		l-8.864,4.432c-3.817,1.908-5.364,6.549-3.456,10.366c1.533,3.067,4.832,4.668,8.048,4.189v7.531
		c-4.215,0.061-7.614,3.492-7.614,7.721c0,4.267,3.459,7.726,7.726,7.726h15.226c4.268,0,7.726-3.459,7.726-7.726
		C271.963,339.16,268.565,335.729,264.351,335.668z"/>
</g>
<g>
</g>
<g>
</g>
<g>
</g>
<g>
</g>
<g>
</g>
<g>
</g>
<g>
</g>
<g>
</g>
<g>
</g>
<g>
</g>
<g>
</g>
<g>
</g>
<g>
</g>
<g>
</g>
<g>
</g>
</svg>
