<?xml version="1.0" ?><!DOCTYPE svg  PUBLIC '-//W3C//DTD SVG 1.1//EN'  'http://www.w3.org/Graphics/SVG/1.1/DTD/svg11.dtd'><svg width="513px" height="513px" viewBox="0 -0.5 513 513" style="fill-rule:evenodd;clip-rule:evenodd;stroke-linejoin:round;stroke-miterlimit:2;" version="1.1" xml:space="preserve" xmlns="http://www.w3.org/2000/svg" xmlns:serif="http://www.serif.com/" xmlns:xlink="http://www.w3.org/1999/xlink"><g transform="matrix(1,0,0,1,-1751,0)"><g id="leaf" transform="matrix(1.35364,0,0,0.670162,1180.42,-501.943)"><rect height="763.994" style="fill:none;" width="378.238" x="421.762" y="748.988"/><g transform="matrix(0.385345,-3.02506,1.27812,0.982038,-143.644,2691.41)"><path d="M686.871,296.049C680.133,302.486 675.368,310.383 668.711,316.895C667.927,317.662 666.17,321.801 665.046,321.926C663.718,322.075 662.769,320.167 661.845,319.149C658.949,315.958 654.98,311.232 655.9,307.785C655.997,307.42 656.958,304.842 655.41,305.015C654.24,305.146 652.274,308.516 651.61,309.236C648.031,313.115 643.185,318.557 642.057,323.673C641.472,326.325 641.543,329.04 641.112,331.701C641.07,331.959 640.322,333.872 640.059,333.799C639.043,333.519 638.083,331.927 637.711,331.256C636.962,329.904 629.936,318.567 627.007,321.605C620.733,328.111 635.657,350.285 625.989,353.033C614.242,356.371 617.132,353.091 626.963,373.389C627.882,375.286 620.303,367.973 618.967,366.692C609.101,357.231 612.172,345.527 607.975,335.078C606.693,331.887 604.906,328.987 603.207,326.038C603.061,325.785 601.714,323.73 601.349,323.771C598.785,324.057 597.385,331.509 597.157,333.152C595.889,342.27 596.208,352.205 595.853,361.52C595.737,364.552 595.196,367.171 594.554,370.083C594.487,370.383 594.88,372.894 594.118,372.772C592.647,372.537 590.785,370.361 589.938,369.444C587.39,366.684 584.168,363.95 582.513,360.867C582.27,360.414 579.92,355.546 579.631,355.578C576.968,355.876 575.644,363.901 575.448,365.453C574.998,369.008 573.913,372.323 574.792,376.089C574.973,376.867 577.368,379.304 577.04,379.799C576.838,380.105 575.006,379.507 576.731,382.804C578.525,386.233 580.463,389.452 582.605,392.759C583.145,393.592 585.427,394.676 585.442,395.528C585.449,395.886 581.807,394.153 581.416,393.998C577.324,392.381 573.38,390.432 569.212,389.092C568.422,388.838 566.575,388.226 566.601,389.665C566.624,390.987 571.633,393.116 572.765,393.902C576.181,396.276 579.17,399.169 582.577,401.537C583.576,402.231 586.388,404.962 586.845,406.099C587.066,406.648 585.343,408.151 585.194,408.595C584.557,410.496 584.793,413.221 584.829,415.237C584.926,420.58 589.476,429.892 580.293,425.647C577.728,424.462 577.864,424.526 575.278,423.072C573.608,422.133 572.173,421.294 572.992,422.445C576.82,427.824 582.071,435.342 586.85,440.458C589.467,443.259 597.13,446.664 598.072,447.813C599.204,449.196 596.973,452.38 596.79,453.51C596.46,455.542 600.068,458.824 602.474,459.641C606.754,461.093 613.565,454.465 617.526,454.191C631.342,453.235 643.178,455.851 656.299,452.752C659.437,452.01 663.752,451.429 666.255,449.935C668.206,448.77 653.27,443.898 651.39,442.715C649.116,441.284 649.243,439.261 651.299,438.627C654.005,437.793 659.765,438.821 662.907,439.182C670.099,440.007 677.886,441.01 682.665,437.173C684.467,435.726 675.152,431.055 673.424,430.083C672.363,429.486 671.302,428.89 670.241,428.293C669.588,427.926 665.972,426.518 666.656,426.441C672.097,425.832 678.854,426.051 684.17,425.126C684.63,425.046 689.78,425.506 689.44,424.66C688.721,422.87 678.928,418.855 677.208,418.272C676.024,417.869 674.752,417.624 673.672,417.017C673.182,416.741 671.714,415.915 672.203,416.191C674.197,417.312 678.098,417.672 680.228,417.769C687.408,418.093 694.776,416.89 701.547,415.882C702.411,415.754 707.014,414.67 706.262,412.798C706.075,412.331 704.484,412.577 703.998,412.304C700.236,410.189 697.443,407.951 693.568,406.04C693.061,405.79 687.489,402.936 687.159,402.115C686.743,401.079 689.694,399.942 690.316,399.795C696.066,398.437 666.243,397.631 671.793,395.924C673.492,395.402 702.55,390.862 699.392,390.358C692.203,389.208 686.49,388.993 679.977,387.936C678.296,387.664 676.562,387.335 674.735,386.92C671.485,386.181 668.727,386.41 665.964,385.649C664.112,385.139 666.801,384.007 668.312,383.377C672.075,381.808 675.433,381.707 678.198,379.211C678.466,378.969 680.265,376.659 680.054,376.133C679.509,374.777 664.778,374.11 665.259,373.891C669.381,372.015 677.336,371.703 682.096,371.17C688.746,370.426 692.085,368.007 697.288,365.381C698.032,365.006 706.256,361.876 704.847,360.157C701.897,356.558 693.764,358.103 690.038,357.256C688.15,356.827 686.264,356.234 684.434,355.572C683.792,355.34 682.485,354.965 682.485,354.965C682.485,354.965 691.519,353.152 693.66,352.742C700.815,351.371 700.909,351.955 705.827,349.474C706.54,349.114 709.84,348.99 709.374,347.831C709.155,347.285 706.042,345.957 705.457,345.628C701.323,343.304 696.387,342.96 691.819,341.872C690.274,341.504 688.748,341.062 687.195,340.739C687.134,340.727 685.665,340.513 685.735,340.407C686.675,338.987 692.058,338.747 693.933,338.17C700.437,336.17 704.766,332.665 710.132,329.426C711.919,328.348 716.488,325.827 716.445,323.438C716.424,322.268 712.167,321.809 711.449,321.852C705.326,322.217 699.091,322.689 693.311,323.881C692.843,323.977 685.716,324.862 685.738,324.725C686.059,322.741 692.621,308.951 695.139,304.366C696.697,301.531 696.853,294.938 695.348,291.189C695.348,291.189 689.583,293.458 686.871,296.049Z" style="fill:rgb(241,168,37);"/></g><g transform="matrix(0.738747,0,0,1.49218,-872.03,748.988)"><path d="M1869.68,88.43C1873.72,92.093 1892.28,108.689 1897.22,113.087C1898.03,113.82 1898.14,113.971 1898.54,114.422C1900.2,116.297 1901.51,118.457 1903.19,120.31L1903.26,120.388C1905.49,104.503 1907.16,88.794 1910.4,72.924C1912.08,64.709 1919.49,48.121 1925.08,69.732C1928.98,84.803 1936.58,94.525 1936.56,109.681C1936.51,114.331 1934.05,125.219 1934.06,129.917C1934.06,129.917 1937.21,120.69 1939.97,114.599C1944.62,104.341 1957.07,88.402 1957.07,88.402C1959.01,87.977 1961.4,94.992 1961.78,97.007C1961.87,97.503 1958.15,147.271 1958.15,147.271C1959.22,145.529 1961.05,138.864 1962.01,137.059C1967.14,127.355 1966.79,119.083 1974.25,110.374C1974.5,110.08 1977.17,107.755 1977.58,107.529C1981.49,105.371 1982.76,115.148 1983.18,123.101C1983.95,137.41 1988.58,151.143 1985.63,166.211C1983.71,176.032 1979.82,192.463 1979.82,192.463C1983.7,185.762 1983.77,176.933 1989.03,171.368C1989.29,171.092 1991.59,168.254 1991.71,168.118C1992.45,167.282 1992.67,167.978 1993.71,169.437C1999.81,178.006 1996.72,186.657 1999.9,197.613C2000.42,199.4 2000.01,201.943 2000.21,203.988C2003,198.351 2002.29,194.396 2005.14,188.353C2009.82,178.377 2013.38,167.544 2017.38,157.551C2020.01,150.987 2023.11,145.327 2025.85,138.605C2026.02,138.221 2026.04,138.2 2026.14,138.04C2026.95,136.864 2029.07,137.388 2028.96,140.21C2028.66,148.068 2027.27,155.887 2026.21,163.731C2024.7,174.928 2023.04,186.131 2021.64,197.27C2026.74,186.415 2029.75,174.688 2035.58,164.218C2036.51,162.55 2038.61,160.046 2040.26,162.733C2040.97,163.885 2040.18,170.332 2041.59,170.451C2043,170.57 2046.61,164.36 2048.08,162.563C2051.59,158.274 2055.25,154.094 2058.94,149.946C2061.9,146.624 2064.42,142.833 2067.63,139.881C2070.76,137.01 2075.1,142.111 2073.64,153.89C2071.97,167.358 2069.26,180.62 2065.65,193.716C2065.65,193.716 2073.24,184.243 2075.64,182.603C2077.52,181.315 2080.52,181.253 2081.53,183.647C2083.04,187.241 2081.54,191.859 2081.11,195.868C2080.29,203.218 2072.62,228.794 2072.62,228.794C2077.8,222.612 2085.67,207.75 2091.62,204.253C2094.41,202.615 2099.65,199.193 2101.66,204.997C2106.2,218.276 2090.47,257.885 2086.47,271.921C2088.1,273.344 2088.91,273.958 2092.89,267.833C2098.87,258.628 2108.73,241.036 2112.01,244.67C2116.33,249.45 2114.71,255.39 2114.28,261.434C2113.33,274.822 2113.2,282.239 2110.15,295.267C2105.82,313.745 2100.62,332.715 2096.88,351.289C2095.33,359.279 2102,368.792 2100.81,377.277C2107.08,385.545 2113.52,393.714 2120.21,401.72C2129.38,412.684 2140.99,421.47 2150.25,432.405C2150.25,432.405 2150.21,432.353 2150.13,432.256C2154.62,437.068 2150.23,443.851 2144.01,450.926C2136.91,459.004 2119.52,423.744 2106.97,409.901C2102.45,403.675 2096.12,393.92 2091.79,387.548C2089.78,389.408 2087.99,390.972 2085.37,392.025C2081.52,393.571 2078.07,389.872 2074.98,385.978C2074.98,385.978 2062.68,398.748 2058.78,401.635C2050.92,407.452 2043.74,410.245 2034.78,413.896C2027.29,416.95 2025.03,417.413 2017.43,420.195C2017.43,420.195 2013.1,424.956 2011.39,420.361C2010.68,418.466 2017.59,411.651 2021.05,407.475C2023.44,404.587 2025.05,399.323 2025.65,395.813C2025.65,395.813 2013.65,392.189 2012.27,391.802C2006.18,390.095 1994.52,387.278 1991.56,381.657C1988.52,384.311 1985.7,387.185 1982.5,389.685C1975.98,394.777 1973.67,394.661 1967.65,400.594C1963.06,405.098 1956.48,414.997 1952.35,411.321C1949.27,408.591 1962.8,392.048 1964.46,389.214C1967.06,384.784 1963.3,385.513 1963.28,385.006C1963.28,385.006 1959.74,385.912 1957.05,386.593C1955.77,386.919 1954.48,387.232 1953.18,387.529C1952.32,387.728 1951.45,387.92 1950.58,388.105C1946.66,388.94 1942.12,390.433 1939.65,386.684C1937,387.77 1934.19,388.319 1931.17,387.569C1924.79,385.986 1919.24,381.854 1913.73,378.548C1908.5,375.384 1903.12,371.873 1899.99,366.751C1898.55,364.391 1897.36,360.949 1899.72,358.964C1900.8,358.05 1902.32,357.833 1903.76,357.525C1908.82,356.44 1913.85,355.882 1918.82,353.263C1923.13,350.996 1927.2,348.416 1931.52,346.029C1932.87,345.272 1938.07,342.379 1937.87,342.312C1937.75,342.271 1923.84,337.051 1917.82,334.463C1902.23,327.767 1886.18,322.174 1871.46,313.859C1865.62,310.563 1859.65,306.56 1856.6,301.109C1855.13,298.491 1848.64,297.272 1852.29,295.59C1856.45,293.675 1867.05,290.515 1871.61,289.52C1882.51,287.142 1893.67,288.623 1905.66,291.002C1917.7,293.365 1930.33,293.346 1940.87,286.605C1941.38,286.278 1941.89,285.95 1942.4,285.621C1944.73,284.122 1947.05,282.606 1949.34,281.052L1949.43,280.993C1941.59,282.519 1933.85,285.283 1926.06,286.053C1923.86,286.27 1921.44,285.916 1920.11,283.984C1918.27,281.326 1918.78,277.883 1918.87,274.789C1919.01,269.681 1920.19,264.094 1917.66,260.636C1914.36,256.107 1908.06,255.691 1903.16,255.056C1901.71,254.868 1900.25,254.707 1898.79,254.559C1886.98,253.366 1873.05,253.585 1867.51,243.622C1866.51,241.812 1863.44,242.599 1864.19,240.598C1866.23,235.138 1875.1,230.066 1880.1,228.196C1884.26,226.639 1889.08,226.039 1892.33,224.332L1891.12,223.11C1886,220.059 1880.16,218.144 1875.59,214.281C1867.06,207.085 1862.01,196.18 1856.87,186.065C1854.29,181.248 1848.62,175.888 1852.47,171.792C1852.68,171.558 1852.93,171.35 1853.2,171.174C1856.44,169.05 1860.54,172.026 1862.7,172.903C1869.16,175.526 1877.38,169.861 1883.26,167.41C1884.34,166.949 1885.58,165.915 1885.58,165.915C1884.33,162.143 1878.33,148.239 1876.53,144.165C1865.55,126.306 1848.92,86.057 1847.62,85.5C1843.01,83.524 1844.29,73.468 1848.52,75.193C1848.52,75.193 1863.79,83.078 1869.68,88.43M1940.65,346.385C1938.51,349.268 1934.86,350.964 1931.67,352.78C1924.53,356.881 1917.84,361.206 1909.15,362.831C1907.67,363.11 1905.48,363.566 1905.48,363.566C1909.86,370.194 1918.35,373.732 1925.28,377.783C1928.17,379.456 1931.22,380.951 1934.58,381.366C1934.58,381.366 1937.09,380.329 1938.91,379.667C1941.28,378.804 1944.78,378.515 1945.63,382.04C1945.79,382.017 1945.94,381.991 1946.1,381.964C1952.94,380.717 1959.67,378.689 1966.34,376.546C1968.83,374.983 1971.01,371.309 1974.86,372.508C1979.57,373.977 1977.41,377.663 1975.83,380.027C1975.07,381.169 1974.26,382.28 1973.44,383.383C1969.55,388.626 1965.75,394.061 1961.99,399.545C1961.99,399.545 1975.11,390.139 1980.72,384.989C1985.24,380.834 1989.76,373.612 1995.12,376.535C1997.1,377.609 1998.12,379.974 1999.32,382.115C1999.32,382.115 2001.55,383.532 2003.31,384.219C2014.86,388.743 2031.04,386.07 2031.58,397.51C2031.9,404.303 2026.17,409.957 2022.75,413.981L2024.46,413.304C2038.36,408.34 2050.17,403.241 2061.87,393.288C2066.41,389.423 2068.15,381.683 2075.47,381.987C2078.24,382.101 2080.53,384.103 2082.34,386.496C2082.34,386.496 2085.71,385.026 2088.09,382.62C2083.86,376.268 2079.72,369.877 2075.62,363.479C2059.57,357.687 2027.33,349.317 2026.74,349.247C2018.42,348.241 2006.4,347.908 1998.66,347.814C1993.22,347.747 1988.11,347.799 1983.61,347.819C1982.99,347.822 1982.38,347.824 1981.79,347.826M2084.18,354.745C2086.57,358.058 2088.98,361.365 2091.4,364.661C2091.15,359.61 2090.75,354.486 2091.66,349.754C2096.95,322.203 2107.8,295.233 2109.49,267.026C2109.83,261.374 2110.82,255.688 2110.25,250.154C2104.01,257.422 2099.84,266.337 2093.4,273.592C2091.34,275.916 2087.47,278.473 2084.04,275.582C2080.31,272.444 2082.25,265.754 2083.95,260.575C2086.84,251.789 2091.2,243.516 2093.62,234.571C2096.04,225.649 2097.52,216.261 2096.1,207.249C2091.15,211.777 2086.99,217.078 2082.6,222.07C2080.48,224.453 2077.77,227.027 2076.61,228.529C2074.89,230.777 2072.49,234.146 2069.9,231.75C2068.76,240.825 2062.36,250.101 2065.22,257.985C2069.86,271.185 2072.34,285.223 2071.94,298.175C2071.72,305.399 2069.21,312.273 2070.64,319.585C2073.06,331.966 2079.87,343.48 2084.18,354.745M1866.65,295.512C1866.27,295.611 1863.88,296.547 1863.51,296.644C1862.31,296.972 1863.54,298.954 1863.54,298.954C1865.44,304.576 1869.95,307.118 1875.78,310.233C1890.69,318.201 1907.09,323.443 1922.32,330.19C1927.12,332.318 1931.58,335.195 1935.96,338.158C1939.1,339.184 1943.12,341.02 1941.67,344.626C1941.67,344.626 1970.41,343.157 1984.76,341.962L1985.14,341.93C1986.82,341.789 1988.5,341.639 1990.18,341.465C1990.46,341.436 1990.74,341.406 1991.02,341.376L1991.34,341.34C1991.67,341.307 1991.67,341.307 1992.01,341.276C1994.89,341.028 1997.78,340.965 2000.66,340.967C2000.85,340.967 2001.04,340.968 2001.24,340.968C2012.59,341.113 2023.99,342.781 2035.32,345.614C2047.76,348.725 2060.11,353.241 2072.21,358.688L2072.25,358.706L2072.71,358.915C2061.4,341.126 2050.48,323.357 2039.55,306.334C2035.07,305.189 2029.57,307.071 2025.74,308.982C2012.26,315.707 2000.04,327.578 1983.41,324.155C1974.67,322.297 1955.53,315.211 1955.53,315.211C1949.87,313.912 1928.99,310.367 1925.03,309.394M2069.2,224.11C2069.71,222.299 2070.36,220.393 2070.77,218.566C2072.57,210.474 2074.69,202.415 2075.6,194.16C2075.8,192.579 2076.08,190.993 2076.25,189.393C2070.51,195.345 2065.67,202.116 2061.51,209.285C2060.18,211.549 2058.42,213.518 2056.66,215.45C2054.81,217.473 2050.57,215.181 2053.5,211.322C2057.55,205.899 2059.16,198.841 2061.01,192.406C2064.59,179.952 2067.29,167.322 2069.1,154.405C2069.46,151.843 2069.85,149.211 2069.84,146.685C2062.11,160.304 2042.65,198.194 2042.65,198.194C2038.1,207.392 2032.21,213.992 2028.76,225.837C2025.59,236.616 2022.52,247.134 2024.2,259.406C2024.77,263.53 2024.31,270.028 2023.6,269.61C2027.05,274.563 2055.48,314.658 2055.48,314.658C2059.7,320.484 2063.88,326.336 2068.05,332.192C2064.47,324.487 2062.05,316.564 2063.34,308.582C2065.71,293.919 2063.3,278.562 2061.23,267.276C2060.56,263.622 2059.29,259.9 2059.09,256.631C2058.59,248.031 2064.38,240.73 2066.98,232.101M1874.1,243.82C1876.14,245.421 1879.09,246.841 1882.12,247.572C1892.31,250.021 1903.11,248.947 1913.2,252.342C1918.77,254.217 1923.84,258.779 1923.83,265.689C1923.78,270.766 1922.53,276.161 1923.81,280.866C1924.25,282.458 1927.7,281.087 1931.28,280.241C1939.57,278.265 1947.91,276.383 1956.34,274.989C1956.34,274.989 1960.86,274.534 1960.01,277.983C1959.54,279.881 1957.48,281.016 1955.69,282.322C1946.59,288.966 1937.07,295.677 1926.32,297.138C1911.81,299.11 1897.33,292.241 1882.98,292.808C1878.9,292.969 1874.9,293.759 1870.92,294.731C1886.86,296.064 1891.53,299.583 1906.57,302.469L1923.85,305.681C1930.19,306.956 1931.39,305.725 1937.71,307.083C1937.71,307.083 1941.72,307.968 1944.76,308.655C1948.65,309.532 1952.53,310.491 1956.42,311.417L1957.15,311.591C1960.34,312.382 1963.54,313.176 1966.73,313.974C1972.92,315.524 1978.94,317.388 1985.35,318.775C2003.51,322.585 2022.08,300.53 2037.36,302.927C2028.35,288.962 2019.3,275.014 2010.23,261.303C1993.82,255.375 1977.52,249.6 1959.69,247.079C1943.77,244.827 1927.14,245.243 1915.33,245.266M2065.91,148.435C2063.69,150.748 2054.21,160.717 2049.42,167.268C2048.27,168.849 2038.81,177.603 2037.64,174.975C2036.98,173.497 2036.91,171.796 2036.84,170.139L2036.84,170.107C2032.39,180.036 2028.91,190.46 2024.03,200.129C2022.83,202.494 2021.17,206.038 2018.81,204.064C2017.17,202.69 2017.96,199.892 2018.35,196.96C2020.5,180.689 2023.21,164.476 2025.28,148.19C2025.28,148.19 2014.36,177.068 2007.39,191.38C2004.55,197.232 2004.53,204.405 2001.02,209.577C2000.19,210.799 1998.15,210.622 1997.4,208.277C1994.48,199.047 1997.04,188.26 1993.23,178.059C1992.66,176.55 1992.29,174.907 1991.32,173.636C1989.83,174.898 1989.03,177.124 1988.11,179.156C1985.68,184.55 1985.18,191.27 1981.63,197.33C1980.27,199.652 1979.38,202.241 1977.54,200.864C1976.92,200.402 1977.03,199.318 1977.01,198.315C1976.69,185.971 1980.55,173.723 1981.97,160.948C1983.21,149.915 1982.21,141.218 1980.54,130.303C1979.72,124.377 1981.29,118.541 1978.73,112.73C1978,111.067 1977.24,114.593 1975.91,115.68C1967.22,122.75 1968.15,138.026 1963.18,147.406C1961.74,150.113 1955.61,165.177 1953.26,163.645C1952.08,162.879 1952.88,153.972 1954.18,149.205C1958.06,135.02 1958.57,100.989 1956.58,98.042C1956.58,98.042 1953.66,102.673 1951.6,105.145C1944.38,113.952 1930.67,149.064 1928.88,145.569C1927.81,143.475 1928.69,131.948 1928.86,129.427C1929.28,123.377 1931.51,109.15 1930.97,103.178C1929.9,91.132 1924.94,87.616 1922.3,76.069C1921.23,71.446 1919.63,65.81 1917.25,64.442C1917.25,64.442 1913.82,70.926 1913.07,74.697C1910.75,86.502 1911.6,97.233 1910.55,109.433C1910.3,112.05 1908.97,120.195 1907.95,126.262C1910.65,129.183 1913.24,132.193 1915.71,135.296C1927.1,149.539 1943.48,159.075 1955.54,172.97C1956.11,173.623 1956.66,174.283 1957.22,174.95C1959.96,178.269 1962.38,181.862 1964.88,185.402C1982.81,210.818 2020.52,265.196 2020.52,265.196L2022.29,267.742C2022.25,267.536 2022.7,265.698 2022.71,265.776C2020.49,254.793 2019.06,244.092 2021.78,231.792C2024.02,221.674 2027.96,215.962 2033.63,206.021C2038.12,198.16 2039.52,194.252 2043.94,186.644C2045.07,184.692 2049.8,172.313 2052.2,168.543C2056.56,161.685 2061.11,155.018 2065.91,148.435M1856.64,176.374C1858.19,180 1860.8,183.138 1862.63,186.795C1867.62,196.716 1872.81,203.882 1881.96,209.407C1885.75,211.695 1889.87,216.779 1893.7,219.059C1893.7,219.059 1904.61,226.562 1890.75,229.967C1884.41,231.524 1877.73,233.134 1872.88,237.367C1872.5,237.701 1872.13,238.064 1871.83,238.47C1870.85,239.762 1870.47,241.16 1872.08,242.724L1873.98,242.141C1888.94,241.231 1903.72,240.627 1918.69,239.37C1920.76,239.197 1925.22,238.747 1925.55,238.716C1928.63,238.452 1931.7,238.398 1934.78,238.409C1958.79,238.715 2006.95,256.67 2007.25,256.811C2004.73,253.026 1993.55,236.542 1990.68,232.384L1990.41,232.004C1984.38,223.442 1978.27,214.957 1972.04,206.54L1971.64,206.003C1971.13,205.327 1970.62,204.648 1970.11,203.968C1965.46,201.769 1960.73,198.791 1955.25,196.431C1941.93,190.69 1927.93,187.106 1912.22,186.837C1905.48,186.721 1899.22,186.806 1893.01,185.478C1884.17,183.592 1875.57,180.622 1866.86,178.425C1864.37,178.525 1861.95,178.084 1859.69,176.834C1859.37,176.774 1857.34,176.436 1856.64,176.374M1965.61,197.927C1958.3,188.15 1950.8,178.471 1941.36,170.822C1929.22,160.988 1909.25,134.981 1898.55,123.354C1890.32,114.468 1860.77,86.28 1855.15,88.072C1855.15,88.072 1862.54,108.312 1873.98,130.348C1882.52,146.786 1896.68,165.664 1893.58,170.135C1892.15,172.202 1883.62,172.493 1881.31,173.681C1878.96,174.874 1876.48,176.045 1873.96,176.926C1874.52,177.024 1879.44,177.894 1882.21,178.383C1889.88,179.734 1897.64,182.12 1905.13,181.153C1906.15,181.034 1912.27,180.913 1913.39,180.957C1931.04,181.655 1947.91,187.721 1964.43,197.235C1964.82,197.462 1965.22,197.693 1965.61,197.927" style="fill:rgb(80,0,0);"/></g></g></g></svg>