<?xml version="1.0" encoding="iso-8859-1"?>
<!-- Uploaded to SVGRepo https://www.svgrepo.com -->
<svg version="1.1" id="Capa_1" xmlns="http://www.w3.org/2000/svg" xmlns:xlink="http://www.w3.org/1999/xlink" x="0px" y="0px"
	 viewBox="0 0 512 512" style="enable-background:new 0 0 512 512;" xml:space="preserve">
<g>
	<g>
		<g>
			<path style="fill:#FFCE8B;" d="M52.251,26.527v458.946c0,5.687-4.615,10.302-10.302,10.302H29.35
				c-5.697,0-10.302-4.615-10.302-10.302V26.527c0-5.687,4.605-10.302,10.302-10.302h12.599
				C47.636,16.225,52.251,20.841,52.251,26.527z"/>
			<rect x="19.048" y="64.644" style="fill:#FFB54E;" width="33.203" height="133.336"/>
		</g>
		<g>
			<path style="fill:#FFCE8B;" d="M492.952,26.527v458.946c0,5.687-4.605,10.302-10.302,10.302h-12.599
				c-5.687,0-10.302-4.615-10.302-10.302V26.527c0-5.687,4.615-10.302,10.302-10.302h12.599
				C488.347,16.225,492.952,20.841,492.952,26.527z"/>
			<g>
				<g>
					<rect x="459.749" y="64.644" style="fill:#FFB54E;" width="33.203" height="133.336"/>
				</g>
			</g>
		</g>
	</g>
	<g>
		<g>
			<rect x="150.846" y="79.064" style="fill:#FFB54E;" width="210.308" height="104.491"/>
			<rect x="335.163" y="79.064" style="fill:#FF9A1B;" width="25.991" height="104.491"/>
			<rect x="150.846" y="79.064" style="fill:#FF9A1B;" width="25.991" height="104.491"/>
			<g>
				<g>
					<path style="fill:#FFF5F5;" d="M58.427,183.556H10.302C4.612,183.556,0,178.943,0,173.254v-48.125h58.427V183.556z"/>
					<rect x="46.065" y="79.064" style="fill:#FFF5F5;" width="64.608" height="58.427"/>
					<path style="fill:#756F6F;" d="M52.246,131.31H0V89.366c0-5.69,4.612-10.302,10.302-10.302h41.944V131.31z"/>
					<rect x="98.31" y="125.129" style="fill:#FFF5F5;" width="58.427" height="58.427"/>
					<rect x="104.491" y="79.064" style="fill:#756F6F;" width="52.246" height="52.246"/>
					<rect x="52.246" y="131.31" style="fill:#756F6F;" width="52.246" height="52.246"/>
				</g>
				<g>
					<rect x="401.327" y="79.064" style="fill:#FFF5F5;" width="64.608" height="58.427"/>
					<rect x="355.263" y="125.129" style="fill:#FFF5F5;" width="58.427" height="58.427"/>
					<rect x="355.263" y="79.064" style="fill:#756F6F;" width="52.246" height="52.246"/>
					<path style="fill:#FFF5F5;" d="M501.698,183.556h-48.125v-58.427H512v48.125C512,178.943,507.388,183.556,501.698,183.556z"/>
					<path style="fill:#756F6F;" d="M512,131.31h-52.246V79.064h41.944c5.69,0,10.302,4.612,10.302,10.302V131.31z"/>
					<rect x="407.509" y="131.31" style="fill:#756F6F;" width="52.246" height="52.246"/>
				</g>
			</g>
		</g>
		<path style="fill:#FFF5F5;" d="M267.261,144.371h-2.679v-33.849c0-2.678-1.387-5.164-3.665-6.572
			c-2.277-1.407-5.121-1.536-7.517-0.338l-12.115,6.057c-3.817,1.908-5.364,6.549-3.455,10.366
			c1.908,3.816,6.548,5.365,10.366,3.455l0.933-0.466v21.348h-2.679c-4.267,0-7.726,3.459-7.726,7.726
			c0,4.267,3.459,7.726,7.726,7.726h20.811c4.268,0,7.726-3.459,7.726-7.726C274.987,147.83,271.528,144.371,267.261,144.371z"/>
	</g>
</g>
<g>
</g>
<g>
</g>
<g>
</g>
<g>
</g>
<g>
</g>
<g>
</g>
<g>
</g>
<g>
</g>
<g>
</g>
<g>
</g>
<g>
</g>
<g>
</g>
<g>
</g>
<g>
</g>
<g>
</g>
</svg>
