<?xml version="1.0" ?><!DOCTYPE svg  PUBLIC '-//W3C//DTD SVG 1.1//EN'  'http://www.w3.org/Graphics/SVG/1.1/DTD/svg11.dtd'><svg width="512px" height="512px" viewBox="0 0 512 512" enable-background="new 0 0 512 512" id="Bow_x5F_Arrow" version="1.1" xml:space="preserve" xmlns="http://www.w3.org/2000/svg" xmlns:xlink="http://www.w3.org/1999/xlink"><path d="M181.505,397.711c-13.047-20.699-22.12-46.903-22.12-46.903s-9.074,26.204-22.12,46.903  c-2.777,4.406-4.314,9.47-4.314,14.678v4.648c0,14.366,11.41,26.319,25.775,26.55c0.218,0.004,0.438,0.005,0.66,0.005  s0.441-0.001,0.66-0.005c14.364-0.23,25.775-12.184,25.775-26.55v-4.648C185.819,407.181,184.281,402.117,181.505,397.711z" fill="#D6C6E1"/><path d="M159.385,350.809c-0.002,0.006-9.075,26.205-22.12,46.902c-2.777,4.405-4.314,9.469-4.314,14.677v4.649  c0,14.366,11.411,26.319,25.775,26.55c0.218,0.004,0.438,0.005,0.66,0.005V350.809z" fill="#FFFFFF"/><rect fill="#FFD3CD" height="419.373" width="7.767" x="274.792" y="46.314"/><polygon fill="#DE8280" points="274.792,80.181 282.559,87.077 282.559,46.314 274.792,46.314 "/><polygon fill="#DE8280" points="274.792,430.51 274.792,465.687 282.559,465.687 282.559,424.945 "/><radialGradient cx="320.1172" cy="256.0083" gradientUnits="userSpaceOnUse" id="SVGID_1_" r="177.4894"><stop offset="0" style="stop-color:#F0DD7A"/><stop offset="1" style="stop-color:#BAA047"/></radialGradient><path d="M373.981,180.814c0,0-13.041-88.651-94.776-145.393c-2.695-1.87-3.27-5.778-0.935-8.084  c0.059-0.058,0.118-0.116,0.18-0.173c2.953-2.794,3.696-7.203,1.567-10.667l-0.529-0.862c-2.471-4.021-7.973-4.836-11.503-1.705  l-0.054,0.048c-8.813,7.83-8.948,21.594-0.666,29.984c3.083,3.124,8.298,6.889,13.898,10.917c0,0,82.221,54.944,61.474,155.247  c-0.837,4.042,0.791,8.158,4.075,10.659c6.28,4.783,15.552,14.409,15.758,29.655c0.05,3.708,0.05,7.415,0,11.122  c-0.206,15.247-9.478,24.873-15.758,29.656c-3.284,2.501-4.912,6.616-4.075,10.658c20.747,100.303-61.474,155.248-61.474,155.248  c-5.601,4.027-10.815,7.793-13.898,10.916c-8.282,8.391-8.147,22.155,0.666,29.984c0.083,0.074,0.166,0.147,0.25,0.219  c3.499,3.024,8.927,1.997,11.348-1.943l0.488-0.795c2.129-3.464,1.388-7.876-1.568-10.668c-0.061-0.058-0.121-0.115-0.179-0.173  c-2.335-2.306-1.761-6.213,0.935-8.084c81.735-56.741,94.776-145.394,94.776-145.394C378.205,305.842,379.05,256,379.05,256  S378.205,206.158,373.981,180.814z" fill="url(#SVGID_1_)"/><path d="M159.385,450.826L159.385,450.826c-3.838,0-6.95-3.111-6.95-6.95V141.81h13.9v302.066  C166.335,447.715,163.223,450.826,159.385,450.826z" fill="#B7486F"/><rect fill="#7F153E" height="15.045" width="13.9" x="152.435" y="141.81"/><path d="M175.534,138.272c-6.888-10.389-11.602-24.554-14.085-33.323c-0.722-2.55-3.407-2.55-4.129,0  c-2.483,8.77-7.197,22.935-14.085,33.323c-2.414,3.641-0.472,9.419,3.148,9.419l13.001,0l13.001,0  C176.006,147.691,177.948,141.914,175.534,138.272z" fill="#FFFFFF"/><path d="M161.449,104.949c-0.361-1.275-1.213-1.913-2.064-1.912v44.654h13.001c3.62,0,5.563-5.777,3.148-9.418  C168.646,127.884,163.933,113.719,161.449,104.949z" fill="#D6C6E1"/><path d="M279.205,476.579c10.51-7.296,19.824-15.134,28.177-23.229c-1.587-6.245-2.314-12.229-2.541-17.554  c-12.823,14.059-23.677,21.325-23.677,21.325c-5.601,4.028-10.815,7.794-13.898,10.917c-8.282,8.39-8.147,22.154,0.666,29.984  c0.083,0.074,0.167,0.146,0.25,0.219c3.499,3.024,8.928,1.997,11.348-1.943l0.488-0.795c2.129-3.464,1.386-7.873-1.567-10.668  c-0.062-0.057-0.121-0.115-0.18-0.173C275.936,482.357,276.51,478.449,279.205,476.579z" fill="#998337"/><path d="M279.205,35.421c-2.695-1.87-3.27-5.778-0.935-8.084c0.059-0.058,0.118-0.115,0.18-0.173  c2.953-2.794,3.696-7.203,1.567-10.667l-0.488-0.795c-2.42-3.94-7.849-4.968-11.348-1.944c-0.083,0.072-0.167,0.145-0.25,0.219  c-8.813,7.83-8.948,21.594-0.666,29.984c3.083,3.124,8.298,6.889,13.898,10.917c0,0,11.022,7.382,23.976,21.655  c0.481-5.26,1.471-10.991,3.283-16.885C299.813,51.197,290.147,43.018,279.205,35.421z" fill="#998337"/><path d="M295.318,464.436l-9.633-12.038c-1.372-1.714-3.872-1.991-5.586-0.62c-1.518,1.215-1.833,3.288-0.951,4.942  c-1.421-1.224-3.514-1.37-5.03-0.155h-0.001c-1.713,1.371-1.99,3.872-0.619,5.586l9.634,12.037c1.371,1.715,3.872,1.992,5.585,0.62  c1.518-1.214,1.833-3.287,0.951-4.942c1.421,1.224,3.514,1.37,5.031,0.156C296.412,468.65,296.689,466.149,295.318,464.436z" fill="#FFD3CD"/><path d="M294.777,42.042c-1.586-1.27-3.811-1.069-5.226,0.317c1.043-1.685,0.751-3.898-0.835-5.167  c-1.713-1.372-4.214-1.094-5.585,0.62l-9.634,12.038c-1.371,1.714-1.094,4.214,0.619,5.585h0.001c1.586,1.27,3.81,1.069,5.225-0.318  c-1.043,1.685-0.751,3.898,0.835,5.168c1.714,1.371,4.215,1.094,5.586-0.62l9.633-12.038  C296.768,45.913,296.49,43.413,294.777,42.042z" fill="#FFD3CD"/><path d="M346.713,220.784c6.28,4.783,15.552,14.409,15.758,29.655c0.05,3.708,0.05,7.415,0,11.122  c-0.206,15.246-9.478,24.873-15.758,29.656c28.438-7.52,26.757-35.209,26.757-35.209  C373.47,227.891,346.713,220.784,346.713,220.784z" fill="#BAA047"/></svg>