<?xml version="1.0" ?><!DOCTYPE svg  PUBLIC '-//W3C//DTD SVG 1.1//EN'  'http://www.w3.org/Graphics/SVG/1.1/DTD/svg11.dtd'><svg width="512px" height="512px" viewBox="0 0 512 512" enable-background="new 0 0 512 512" id="Armor" version="1.1" xml:space="preserve" xmlns="http://www.w3.org/2000/svg" xmlns:xlink="http://www.w3.org/1999/xlink"><linearGradient gradientUnits="userSpaceOnUse" id="SVGID_1_" x1="255.8799" x2="255.8799" y1="467.6563" y2="161.3456"><stop offset="0" style="stop-color:#CC5697"/><stop offset="1" style="stop-color:#8E3979"/></linearGradient><path d="M388.938,78.947c-0.751-10.932-9.838-19.415-20.796-19.415H255.88H146.103  c-10.889,0-19.942,8.381-20.782,19.237l-22.314,288.333c-0.343,18.889,7.863,36.955,22.436,48.979  c23.437,19.34,64.007,48.741,117.906,72.305c7.975,3.485,17.09,3.485,25.064,0c53.898-23.563,94.469-52.965,117.906-72.305  c14.571-12.024,22.777-30.091,22.435-48.979L388.938,78.947z" fill="url(#SVGID_1_)"/><path d="M356.442,214.607c0,0-10.946,47.027-8.96,87.547c0.211,4.291-1.557,8.439-4.703,11.364  c-7.137,6.634-21.877,19.222-45.183,34.054C297.597,347.572,287.265,238.415,356.442,214.607z" fill="#819FEA"/><path d="M155.558,214.607c0,0,10.946,47.027,8.96,87.547c-0.211,4.291,1.557,8.439,4.703,11.364  c7.137,6.634,21.877,19.222,45.183,34.054C214.403,347.572,224.735,238.415,155.558,214.607z" fill="#FFFFFF"/><path d="M177.839,321.074c8.249,6.908,20.268,16.127,36.564,26.498c0,0,4.458-63.892-26.219-110.058  C194.31,270.041,204.554,304.594,177.839,321.074z" fill="#C7DAFF"/><path d="M207.234,264.084c-7.671-25.656-22.669-39.494-51.677-49.477c0,0,1.371,5.901,3.054,15.3  C165.591,234.505,185.254,245.484,207.234,264.084z" fill="#819FEA"/><path d="M116.606,36.749l26.591,26.97c6.084,6.172,9.468,14.51,9.303,23.175  c-0.514,26.892-9.313,82.28-73.291,80.748c0,0-50.864,0.458-74.052-54.041c-1.841-4.327,0.654-9.321,5.194-10.545  c17.79-4.794,59.726-20.167,87.783-63.17c1.999-3.065,5.022-5.448,8.61-6.168C109.765,33.111,113.379,33.475,116.606,36.749z" fill="#FFFFFF"/><path d="M27.277,110.997c28.994,0.741,55.828-14.918,71.089-39.582c6.293-10.169,11.858-23.088,13.021-37.676  c-1.611-0.368-3.196-0.313-4.643-0.022c-3.588,0.72-6.611,3.104-8.61,6.168c-28.058,43.003-69.993,58.376-87.783,63.17  c-2.512,0.677-4.359,2.522-5.23,4.756C10.365,109.21,18.101,110.762,27.277,110.997z" fill="#819FEA"/><path d="M303.908,278.139c16.354-23.814,40.549-41.418,49.322-47.337c1.754-9.918,3.212-16.194,3.212-16.194  C326.342,224.966,311.304,251.485,303.908,278.139z" fill="#819FEA"/><path d="M342.588,224.278c-32.667,18.659-86.505,57.548-86.718,57.702c-0.214-0.154-54.052-39.043-86.718-57.702  c-0.449-0.256-0.907,0.319-0.553,0.697c8.948,9.546,41.252,49.083,38.004,119.423c-0.146,3.172,1.218,6.215,3.757,8.123  c7.341,5.518,24.104,17.219,45.499,26.486c0,0,38.314-21.045,45.52-26.486c2.534-1.914,3.903-4.951,3.757-8.123  c-3.247-70.341,29.056-109.877,38.005-119.423C343.494,224.598,343.036,224.022,342.588,224.278z" fill="#FFFFFF"/><path d="M342.611,224.265c-32.664,18.654-86.528,57.562-86.741,57.716h-0.001v38.471  c0,16.534-12.903,30.654-29.433,31.092c-7.447,0.197-14.444-1.239-18.877-2.434c0.64,1.337,1.575,2.53,2.801,3.451  c7.344,5.52,24.114,17.227,45.52,26.494v-0.059c0.394-0.217,38.331-21.063,45.499-26.475c2.534-1.914,3.903-4.951,3.757-8.123  c-3.248-70.352,29.065-109.889,38.009-119.428C343.496,224.596,343.058,224.01,342.611,224.265z" fill="#C7DAFF"/><path d="M342.588,224.278c-32.667,18.659-86.505,57.548-86.718,57.702c-0.214-0.154-54.052-39.043-86.718-57.702  c-0.449-0.256-0.907,0.319-0.553,0.697c2.576,2.749,10.676,13.794,15.719,21.535c17.398,12.146,39.061,28.756,71.551,53.881  c33.421-25.125,53.443-38.088,69.701-47.27c5.043-7.741,14.993-25.397,17.57-28.146  C343.494,224.598,343.036,224.022,342.588,224.278z" fill="#819FEA"/><path d="M369.938,185.458c-22.293,17.219-114.047,47.054-114.059,47.058c-0.012-0.004-91.766-29.839-114.058-47.058  c-0.604-0.467-1.422,0.15-1.145,0.862l10.185,26.186c1.072,2.756,2.933,5.135,5.348,6.841l99.67,70.385v0.001v-0.001l0.001,0.001  v-0.001l99.669-70.385c2.415-1.706,4.275-4.085,5.348-6.841l10.185-26.186C371.358,185.608,370.541,184.991,369.938,185.458z" fill="#FFFFFF"/><path d="M230.004,271.46l25.876,18.273v-57.218c0,0-42.604-13.856-76.808-28.133  C198.101,219.646,220.619,242.681,230.004,271.46z" fill="#DEEEFF"/><path d="M200.478,21c0,0-7.829,27.402,15.249,49.317c3.152,2.994,3.933,7.729,2.077,11.661l-19.554,41.44  c0,0-48.083,2.246-65.152-28.3l1.797-27.851C134.895,67.269,165.439,36.273,200.478,21z" fill="#819FEA"/><path d="M126.809,61.429c0,0,17.573-21.002,43.798-31.972c4.344-1.817,9.259,0.783,10.108,5.414  c1.623,8.854,4.073,23.56,5.553,38.841c1.926,19.875-13.67,37.717-33.636,37.436c-0.911-0.013-1.843-0.054-2.793-0.125  L126.809,61.429z" fill="#8C266B"/><path d="M311.522,21c0,0,7.829,27.402-15.249,49.317c-3.152,2.994-3.933,7.729-2.077,11.661l19.554,41.44  c0,0,48.083,2.246,65.152-28.3l-1.797-27.851C377.105,67.269,346.56,36.273,311.522,21z" fill="#819FEA"/><path d="M385.191,61.429c0,0-17.573-21.002-43.798-31.972c-4.344-1.817-9.259,0.783-10.108,5.414  c-1.623,8.854-4.073,23.56-5.554,38.841c-1.925,19.875,13.671,37.717,33.637,37.436c0.911-0.013,1.843-0.054,2.793-0.125  L385.191,61.429z" fill="#8C266B"/><path d="M319.83,37.695c-1.206-5.692-3.748-11.557-8.549-16.695c0,0-12.986,29.232-55.401,29.232  C213.464,50.232,200.479,21,200.479,21c-4.802,5.139-7.344,11.003-8.55,16.695c-4.11,19.405,7.276,38.972,25.778,46.123  c17.945,6.936,38.173,6.229,38.173,6.229s20.228,0.707,38.172-6.229C312.554,76.667,323.941,57.101,319.83,37.695z" fill="#5071BA"/><path d="M304.814,81.771c-2.042-3.973-6.135-6.471-10.602-6.471H255.88h-38.334c-4.467,0-8.559,2.498-10.601,6.471  l-17.887,34.796c25.455,28.54,66.821,34.325,66.821,34.325s41.366-5.785,66.82-34.325L304.814,81.771z" fill="#FFFFFF"/><path d="M322.7,116.567l-17.886-34.796c-2.042-3.973-6.135-6.471-10.602-6.471H255.88v75.592  C255.88,150.892,297.246,145.106,322.7,116.567z" fill="#C7DAFF"/><path d="M315.114,101.341c-5.009,2.546-14.495,7.24-26.536,12.1c-21.017,8.482-44.463,8.468-65.458-0.066  c-11.898-4.836-21.248-9.5-26.234-12.034l-7.827,15.226c25.455,28.54,66.821,34.325,66.821,34.325s41.606-5.785,67.062-34.325  L315.114,101.341z" fill="#819FEA"/><path d="M369.938,185.458c-22.291,17.218-114.037,47.05-114.058,47.058v57.217l99.669-70.385  c2.415-1.706,4.275-4.085,5.348-6.841l10.185-26.186C371.358,185.608,370.541,184.991,369.938,185.458z" fill="#C7DAFF"/><path d="M369.938,185.458c-22.293,17.219-114.047,47.054-114.059,47.058c-0.012-0.004-91.766-29.839-114.058-47.058  c-0.604-0.467-1.422,0.15-1.145,0.862l5.248,13.494c17.483,9.881,74.367,41.479,109.944,54.778c0,0,67.738-26.227,109.907-54.633  l5.305-13.639C371.358,185.608,370.541,184.991,369.938,185.458z" fill="#819FEA"/><path d="M411.631,157.347l-39.61-47.533c-5.513-6.614-13.677-10.438-22.287-10.438c-5.98,0-11.813,1.822-16.69,5.284  c-13.251,9.407-43.496,28.746-77.164,35.94c-33.669-7.195-63.915-26.534-77.165-35.94c-4.877-3.462-10.71-5.284-16.69-5.284  c-8.61,0-16.775,3.824-22.287,10.438l-39.611,47.533c53.449,55.381,155.752,83.093,155.752,83.093S358.182,212.728,411.631,157.347z  " fill="#FFFFFF"/><path d="M176.761,209.076c-20.626-17.934-32.199-44.612-29.381-71.799c1.944-18.757,9.89-31.254,15.371-37.847  c-0.244-0.006-0.482-0.056-0.728-0.056c-8.61,0-16.775,3.824-22.287,10.438l-39.611,47.533  c21.657,22.44,51.325,40.332,78.962,53.681C178.299,210.378,177.51,209.728,176.761,209.076z" fill="#C7DAFF"/><path d="M255.88,240.439v-56.871c-3.71,21.197-14.596,43.046-43.805,41.863  C237.4,235.424,255.88,240.439,255.88,240.439z" fill="#C7DAFF"/><path d="M411.631,157.347l-39.61-47.533c-5.513-6.614-13.677-10.438-22.287-10.438c-5.98,0-11.813,1.822-16.69,5.284  c-13.251,9.407-43.496,28.746-77.164,35.94v99.84C255.906,240.431,358.189,212.721,411.631,157.347z" fill="#C7DAFF"/><path d="M152.5,86.894c0.165-8.666-3.219-17.003-9.303-23.175l-26.591-26.97c-3.228-3.274-6.842-3.638-9.861-3.032  c-0.171,0.035-0.323,0.118-0.491,0.159c-1.749,7.44-3.271,14.286-3.258,15.535c0.764,72.478-27.937,103.65-42.92,114.971  c11.111,3.318,19.133,3.259,19.133,3.259C143.188,169.174,151.986,113.786,152.5,86.894z" fill="#DEEEFF"/><path d="M106.745,33.717c-3.588,0.72-6.611,3.104-8.61,6.168c-8.959,13.73-19.333,24.619-29.884,33.271  c9.452-1.689,19.37-1.866,28.165,1.201c0.658-0.974,1.329-1.938,1.95-2.942c6.293-10.169,11.858-23.088,13.021-37.676  C109.776,33.371,108.191,33.427,106.745,33.717z" fill="#819FEA"/><path d="M395.394,36.749l-26.591,26.97c-6.084,6.172-9.468,14.51-9.303,23.175  c0.514,26.892,9.313,82.28,73.291,80.748c0,0,50.864,0.458,74.052-54.041c1.841-4.327-0.654-9.321-5.194-10.545  c-17.79-4.794-59.727-20.167-87.783-63.17c-1.999-3.065-5.022-5.448-8.61-6.168C402.235,33.111,398.621,33.475,395.394,36.749z" fill="#FFFFFF"/><path d="M501.648,103.056c-17.79-4.794-59.727-20.167-87.783-63.17c-1.999-3.065-5.022-5.448-8.61-6.168  c-0.254-0.051-0.519-0.083-0.78-0.12c10.393,19.826,36.815,78.861,16.63,133.646c3.678,0.351,7.563,0.498,11.687,0.399  c0,0,50.864,0.458,74.052-54.041C508.684,109.274,506.188,104.279,501.648,103.056z" fill="#DEEEFF"/><path d="M484.723,110.997c-28.994,0.741-55.828-14.918-71.09-39.582c-6.292-10.169-11.857-23.088-13.021-37.676  c1.612-0.368,3.196-0.313,4.643-0.022c3.588,0.72,6.611,3.104,8.61,6.168c28.058,43.003,69.992,58.376,87.783,63.17  c2.512,0.677,4.359,2.522,5.23,4.756C501.635,109.21,493.899,110.762,484.723,110.997z" fill="#819FEA"/><path d="M292.473,148.836c-7.966-2.337-16.68,2.919-20.912,8.367c-0.465,0.598-0.765,1.226-0.959,1.859  c-4.807,14.603,4.693,22.51,5.298,22.794c7.002,5.544,14.308-5.699,16.802-10.932C295.558,164.93,300.758,151.267,292.473,148.836z" fill="#FFFFFF"/><path d="M312.383,135.831c-0.145,0-0.289,0-0.434,0c-2.791,0-5.464,2.453-5.335,5.334  c0.13,2.89,2.345,5.334,5.335,5.334c0.145,0,0.289,0,0.434,0c2.791,0,5.464-2.454,5.335-5.334  C317.588,138.274,315.374,135.831,312.383,135.831z" fill="#FFFFFF"/></svg>