<?xml version="1.0" ?><!DOCTYPE svg  PUBLIC '-//W3C//DTD SVG 1.1//EN'  'http://www.w3.org/Graphics/SVG/1.1/DTD/svg11.dtd'><svg width="512px" height="512px" viewBox="0 0 512 512" enable-background="new 0 0 512 512" id="Dragon_x5F_Egg" version="1.1" xml:space="preserve" xmlns="http://www.w3.org/2000/svg" xmlns:xlink="http://www.w3.org/1999/xlink"><path d="M188.323,143.619c0,0,21.594,10.505,44.583,2.811c3.79-1.268,7.835,1.084,8.736,4.978  c3.062,13.23,8.37,41.11,5.729,66.274l18.091,8.932c0,0,24.875,13.346,46.132,0l-25.779,40.022c0,0-38.443-71.006-111.26-83.67  L188.323,143.619z" fill="#632E54"/><path d="M266.579,231.22c0,0,14.028-49.538,65.758-55.675l-60.06-27.612l-39.651,51.063L266.579,231.22z" fill="#FFF4B2"/><path d="M332.337,172.097c0,0,13.151-42.965,58.306-41.239c37.117,1.418,60.16,21.388,69.26,32.68  c0.832,1.033,2.485,0.208,2.1-1.062c-8.479-27.928-49.631-130.522-194.107-118.008l-10.083,14.467l17.535,80.663L332.337,172.097z" fill="#FFF4B2"/><linearGradient gradientUnits="userSpaceOnUse" id="SVGID_1_" x1="408.2012" x2="68.0818" y1="75.5918" y2="313.4451"><stop offset="0" style="stop-color:#FFB77F"/><stop offset="1" style="stop-color:#C6753E"/></linearGradient><path d="M247.547,72.716c7.967,27.349,17.928,83.987-20.013,122.78l9.288,6.385  c0,0,11.516-11.284,23.553-30.453c5.629-8.965,16.72-12.813,26.599-9.011l47.344,18.222c2.213,0.852,4.708-0.134,5.742-2.268l0,0  c1.032-2.133,0.26-4.701-1.779-5.91l-51.73-30.673c-6.277-3.722-10.295-10.288-10.799-17.568  c-0.906-13.096-3.303-35.02-9.593-53.026c-1.845-5.279-0.798-11.133,2.648-15.538l0.128-0.163c2.965-3.789,7.326-6.168,12.079-6.531  c29.458-2.249,136.421-1.105,180.798,126.7c0.488,1.405,1.806,2.369,3.293,2.369l0,0c2.107,0,3.75-1.844,3.479-3.935  c-3.113-23.958-27.164-149.031-189.609-144.313c-9.908,0.288-19.227,4.854-25.42,12.595l0,0  C246.722,50.919,244.489,62.218,247.547,72.716z" fill="url(#SVGID_1_)"/><path d="M236.821,201.881c0,0,5.75-5.646,13.361-15.7c-5.026-0.416-9.271-1.519-12.693-2.787  c-2.881,4.179-6.17,8.232-9.956,12.103L236.821,201.881z" fill="#C6753E"/><linearGradient gradientUnits="userSpaceOnUse" id="SVGID_2_" x1="258.6299" x2="206.7054" y1="213.1631" y2="304.0309"><stop offset="0" style="stop-color:#FFB77F"/><stop offset="1" style="stop-color:#C6753E"/></linearGradient><path d="M176.495,169.375c0,0,97.054,12.48,118.452,107.241v60.513H141.045  C141.045,337.129,146.354,230.904,176.495,169.375z" fill="url(#SVGID_2_)"/><path d="M235.547,295.021l-36.003-26.006c-2.933-2.118-3.292-6.351-0.757-8.933l14.831-15.108  c2.918-2.972,2.499-7.839-0.897-10.25c-10.196-7.241-30.932-21.998-51.036-36.479c-20.042,61.017-23.95,138.884-23.95,138.884  h101.179L235.547,295.021z" fill="#C6753E"/><path d="M74.055,402.715c0,0,23.718,79.63,126.327,79.63c0,0,93.485,0,109.66-79.63  C310.041,402.715,210.918,376.586,74.055,402.715z" fill="#AF6D94"/><path d="M286.059,397.968l0.001-0.003c-0.32-0.052-0.681-0.105-1.007-0.158c-1.031-0.165-2.092-0.331-3.183-0.497  c-0.542-0.083-1.075-0.165-1.632-0.248c-0.176-0.026-0.338-0.053-0.516-0.079c0,0.001,0,0.003,0,0.004  c-27.464-4.064-72.091-8.162-127.723-4.34l5.218,34.155c0,0,17.339-5.515,26.446-9.03c2.402-0.927,5.086-0.638,7.202,0.829  c7.05,4.888,23.801,15.841,37.927,19.984c1.536,0.45,3.152,0.352,4.656-0.196c6.35-2.31,24.469-9.268,38.289-18.196  c-9.017,20.126-26.385,45.941-59.179,61.25c25.851-3.102,84.931-16.937,97.482-78.728  C310.041,402.715,301.499,400.479,286.059,397.968z" fill="#632E54"/><path d="M52.074,347.141c0,0-3.209,39.71,14.831,69.428c0.638,1.05,1.407,2.01,2.261,2.894  c2.28,2.36,7.174,7.253,12.189,11.173c3.049,2.383,7.432,1.838,9.772-1.244c4.498-5.924,12.19-15.369,18.97-20.304  c2.401-1.748,5.64-1.715,7.962,0.138c6.143,4.901,19.876,15.056,34.129,20.221c1.983,0.72,4.188,0.393,5.951-0.766  c5.768-3.79,19.155-12.735,27.587-19.557c2.207-1.785,5.306-1.895,7.666-0.317c7.028,4.697,21.906,14.075,33.946,17.847  c2.121,0.664,4.402,0.284,6.183-1.045c5.979-4.462,20.46-15.511,28.461-23.686c2.266-2.314,5.9-2.549,8.485-0.597  c6.789,5.129,19.454,14.909,29.205,23.685c2.642,2.377,6.619,2.402,9.238,0.002c4.084-3.739,9.845-9.098,13.039-12.438  c1.163-1.215,2.095-2.573,2.816-4.093c4.064-8.566,18.426-41.679,13.063-71.71v-16.59l-157.6,10.369l-109.906,7.051L52.074,347.141z  " fill="#AF6D94"/><path d="M337.828,336.771v-16.59l-25.508,1.678l0,0l-132.092,8.691l-53.988,3.463l14.511,28.941  c0,0,15.712-7.964,24.761-12.784c2.315-1.233,5.147-0.774,6.964,1.117c5.636,5.866,18.82,18.397,36.262,27.31  c1.986,1.015,4.381,0.758,6.147-0.604c5.256-4.051,16.53-13.095,24.346-21.904c2.185-2.462,5.991-2.551,8.358-0.262  c5.276,5.1,13.918,13.724,19.448,20.637c1.778,2.225,4.932,2.795,7.394,1.365c2.264-1.314,5.204-3.228,8.468-5.861  c-2.409,9.329-5.972,19.818-11.325,30.197c6.992,5.304,18.852,14.52,28.126,22.868c2.629,2.366,6.585,2.384,9.193-0.005  c4.094-3.75,9.881-9.133,13.077-12.476c1.149-1.203,2.071-2.547,2.784-4.05C328.805,399.973,343.195,366.828,337.828,336.771z" fill="#7C3E65"/><path d="M69.907,239.308c0,0-27.856,43.12-26.469,98.247c0.116,4.582,1.787,8.988,4.759,12.479  c3.565,4.188,9.006,10.262,15.27,16.176c1.498,1.415,3.805,1.494,5.349,0.129c5.644-4.99,19.265-16.656,30.321-23.116  c1.089-0.637,2.452-0.443,3.347,0.446c4.198,4.17,17.033,16.094,33.905,23.973c1.43,0.668,3.118,0.404,4.292-0.651  c4.935-4.44,18.25-16.68,26.877-27.051c1.037-1.247,2.873-1.413,4.074-0.324c5.809,5.267,22.199,19.604,37.092,27.727  c1.549,0.845,3.461,0.512,4.685-0.759c5.158-5.358,18.657-19.847,25.734-31.829c0.895-1.517,2.947-1.815,4.261-0.643  c5.737,5.122,19.417,17.657,26.089,26.495c1.402,1.856,4.072,2.101,5.788,0.531c6.108-5.592,18.878-18.135,24.917-30.373  c0.847-1.717,3.104-2.09,4.479-0.76c5.275,5.102,16.424,16.404,22.883,26.723c1.671,2.668,5.576,2.552,6.947-0.282  c2.422-5.007,5.994-11.799,10.106-17.743c2.699-3.9,3.745-8.691,3.177-13.401c-1.672-13.872-6.298-42.106-17.43-58.061  c-1-1.433-2.616-2.28-4.357-2.429c-10.996-0.938-52.713-5.262-72.187-18.174c-1.813-1.202-4.11-1.378-6.138-0.591l-37.173,14.414  c0,0,15.345,10.783,18.663,14.932c0,0,1.244,31.52-0.83,41.889c0,0-4.562-18.664-9.954-26.959c0,0-25.714-8.709-37.326-32.764  l-4.563-18.249H69.907z" fill="#AF6D94"/><path d="M334.506,356.443c2.422-5.006,5.994-11.798,10.106-17.742c2.7-3.9,3.744-8.691,3.177-13.402  c-1.672-13.871-6.298-42.105-17.43-58.06c-1-1.434-2.616-2.28-4.357-2.43c-9.958-0.849-45.061-4.499-66.072-14.766  c10.512,18.813,29.074,60.118,21.011,105.668c6.446-6.458,14.735-15.787,19.257-24.948c0.847-1.717,3.104-2.09,4.479-0.76  c5.275,5.102,16.424,16.404,22.883,26.723C329.229,359.395,333.135,359.277,334.506,356.443z" fill="#7C3E65"/><path d="M170.107,266.977l12.427,10.047c1.66,1.342,4.098,1.059,5.404-0.629l3.267-4.221  c-3.82-4.073-7.387-8.898-10.147-14.617l-4.563-18.249h-25.902l-15.483,38.588c0,0,18.046-4.884,29.794-11.405  C166.57,265.566,168.625,265.779,170.107,266.977z" fill="#7C3E65"/><path d="M309.244,221.339l-29.346,39.866c-1.916,2.602-1.166,6.275,1.635,7.885  c7.487,4.304,21.354,12.113,30.193,16.115c2.196,0.994,4.756,0.61,6.552-0.996c4.676-4.184,13.859-12.772,18.757-19.871  c1.343-1.945,1.547-4.46,0.646-6.646c-2.951-7.171-10.721-24.224-22.398-36.676C313.599,219.218,310.705,219.355,309.244,221.339z" fill="#7C3E65"/><path d="M69.221,287.805c-2.845,3.449-6.116,9.307-7.613,18.84c-0.28,1.779-0.292,3.609-0.015,5.39  c0.405,2.599,1.438,6.175,4.035,9.176c1.369,1.582,3.803,1.69,5.312,0.241c0.965-0.928,2.097-2.098,3.193-3.426  c2.267-2.748,3.675-6.105,4.092-9.643c0.53-4.5,0.755-11.712-1.567-19.161C75.646,285.976,71.384,285.181,69.221,287.805z" fill="#EFC3EB"/><path d="M93.133,172.12c0,0-24.803,37.204-36.197,63.661c-0.819,1.902-1.295,3.908-1.497,5.969  c-0.403,4.111-0.956,11.617-0.651,19.723c0.196,5.209,5.721,8.47,10.331,6.035c9.607-5.072,24.581-12.797,34.735-17.161  c1.981-0.851,4.253,0.014,5.196,1.953c2.856,5.867,9.744,17.983,21.329,26.585c3.948,2.931,9.313,3.033,13.354,0.232  c6.733-4.669,17.584-12.994,26.464-23.542c1.277-1.517,3.581-1.567,4.856-0.048c2.371,2.823,6.139,7.199,9.789,10.971  c1.582,1.635,4.254,1.447,5.56-0.417c5.161-7.369,17.575-24.904,28.119-38.313c1.647-2.095,1.207-5.127-0.951-6.689l-39.563-28.636  C174.007,192.442,127.141,171.291,93.133,172.12z" fill="#AF6D94"/><path d="M174.007,192.442c0,0-18.628-8.403-40.916-14.409v4.546c0,0,0.351,12.617,22.509,33.493  c1.834,1.728,4.558,2.12,6.77,0.911l25.953-14.179L174.007,192.442z" fill="#7C3E65"/><path d="M95.17,204.593c-4.162,2.771-9.559,7.98-14.248,17.7c-0.875,1.814-1.481,3.769-1.76,5.764  c-0.408,2.912-0.459,7.075,1.347,11.127c0.953,2.137,3.523,3.041,5.607,1.978c1.333-0.68,2.924-1.566,4.527-2.633  c3.316-2.207,5.911-5.344,7.502-8.995c2.024-4.645,4.6-12.291,4.525-21.016C102.638,204.716,98.335,202.485,95.17,204.593z" fill="#EFC3EB"/><path d="M169.579,102.659c-17.472,6.099-60.654,24.5-78.993,62.324l-3.23,21.537  c-0.763,5.081,4.232,9.124,9.03,7.285c10.062-3.856,20.469-7.912,32.645-9.594c1.56-0.216,3.126,0.515,3.983,1.836  c2.92,4.501,10.365,15.026,20.064,21.733c2.146,1.483,4.944,1.65,7.277,0.483l11.989-5.995c2.996-1.498,5.198-4.21,6.072-7.444  c2.724-10.078,9.535-32.823,18.688-46.027c1.835-2.647,2.029-6.078,0.314-8.804c-4.599-7.313-13.4-21.844-17.968-32.923  C177.856,103.205,173.528,101.28,169.579,102.659z" fill="#AF6D94"/><path d="M145.32,130.948c-5.596,1.008-13.583,4-22.872,12.018c-1.734,1.497-3.25,3.261-4.444,5.216  c-1.743,2.854-3.68,7.173-3.628,12.218c0.027,2.66,2.299,4.766,4.954,4.6c1.699-0.106,3.759-0.311,5.914-0.699  c4.458-0.802,8.584-2.901,11.896-5.989c4.213-3.929,10.359-10.741,14.229-19.876C153.054,134.455,149.575,130.181,145.32,130.948z" fill="#EFC3EB"/></svg>