<?xml version="1.0" ?><!DOCTYPE svg  PUBLIC '-//W3C//DTD SVG 1.1//EN'  'http://www.w3.org/Graphics/SVG/1.1/DTD/svg11.dtd'><svg width="512px" height="512px" viewBox="0 0 512 512" enable-background="new 0 0 512 512" id="Crystal_x5F_Shard" version="1.1" xml:space="preserve" xmlns="http://www.w3.org/2000/svg" xmlns:xlink="http://www.w3.org/1999/xlink"><polygon fill="#5B153E" points="286.189,10.023 197.834,96.197 161.838,233.639 216.378,455.071 293.825,501.977 308.006,451.799   337.457,139.829 "/><linearGradient gradientUnits="userSpaceOnUse" id="SVGID_1_" x1="352.6113" x2="198.4708" y1="409.2539" y2="40.8847"><stop offset="0" style="stop-color:#CC5697"/><stop offset="1" style="stop-color:#E585BE"/></linearGradient><polygon fill="url(#SVGID_1_)" points="337.457,139.829 282.917,80.926 207.651,185.643 293.825,501.977 308.006,451.8 "/><polygon fill="#F49FD3" points="337.457,139.829 337.457,139.829 286.189,10.023 282.917,80.926 "/><polygon fill="#A03774" points="282.917,80.926 286.189,10.023 197.834,96.197 207.651,185.643 "/><polygon fill="#A03774" points="207.651,185.643 216.378,455.071 293.825,501.977 "/><path d="M135.817,47.732c0,0,2.546,24.612-17.54,35.928c0,0,20.086,6.602,21.218,30.459  c0,0,0.849-27.347,16.407-35.551C155.902,78.568,138.363,71.496,135.817,47.732z" fill="#FFE9FB"/><path d="M373.637,222.807c0,0,2.547,24.611-17.539,35.928c0,0,20.086,6.602,21.217,30.459  c0,0,0.849-27.347,16.408-35.551C393.723,253.643,376.184,246.57,373.637,222.807z" fill="#FFE9FB"/><path d="M154.63,356.787c0,0,2.546,24.612-17.54,35.929c0,0,20.086,6.602,21.218,30.459  c0,0,0.849-27.347,16.408-35.551C174.716,387.624,157.176,380.551,154.63,356.787z" fill="#FFE9FB"/></svg>