<?xml version="1.0" ?><!DOCTYPE svg  PUBLIC '-//W3C//DTD SVG 1.1//EN'  'http://www.w3.org/Graphics/SVG/1.1/DTD/svg11.dtd'><svg width="512px" height="512px" viewBox="0 0 512 512" enable-background="new 0 0 512 512" id="Item_x5F_Bag" version="1.1" xml:space="preserve" xmlns="http://www.w3.org/2000/svg" xmlns:xlink="http://www.w3.org/1999/xlink"><path d="M159.247,140.764l-10.856-0.381c0,0-10.788-3.436-2.194-16.714c8.594-13.277,24.349-15.269,32.306-34.355  C178.502,89.313,180.253,126.656,159.247,140.764z" fill="#BC6662"/><path d="M207.413,76.939c-3.08-5.057-9.303-6.885-14.434-4.19c-6.944,3.647-15.999,10.919-20.268,24.966  c-0.826,2.717-1.231,5.559-1.514,8.394c-0.675,6.766-4.229,24.065-22.807,34.274c0,0,23.972,17.368,42.644,0  c0,0,25.738-23.158,43.401-11.316C234.436,129.066,217.78,93.96,207.413,76.939z" fill="#DB8B84"/><path d="M256.799,125.768c0,0-0.29-18.089,16.448-36.454c0,0,18.718-18.938,19.906-39.422  c0.651-11.22-7.511-21.032-18.195-22.511c-9.591-1.328-23.388,0.671-39.542,14.53l-6.192,5.648c-2.578,2.352-3.176,6.282-1.4,9.336  C235.455,70.018,254.663,104.791,256.799,125.768z" fill="#DB8B84"/><path d="M203.528,90.637c0,0,6.81,8.286,22.225,0.511c4.873-2.458,9.024-6.448,11.164-11.634  c1.792-4.341,2.518-10.034-0.762-16.387c0-0.001,20.479,21.356,23.949,69.5H235.46C235.46,132.627,211.511,119.234,203.528,90.637z" fill="#F7BBB6"/><path d="M219.402,95.122c-4.328,0.815-12.891,0.154-15.875-4.485c-4.413-6.859-1.95-14.104,6.724-21.307  c0,0,19.555-15.094,26.212-5.863c1.601,2.221,3.328,8.548,2.513,13.73C237.868,84.257,233.068,92.548,219.402,95.122z" fill="#BC6662"/><linearGradient gradientUnits="userSpaceOnUse" id="SVGID_1_" x1="241.9629" x2="302.7288" y1="247.5527" y2="749.4308"><stop offset="0.0103" style="stop-color:#F7BBB6"/><stop offset="1" style="stop-color:#DB8B84"/></linearGradient><path d="M236.934,154.877c0,0-10.45,6.399-14.464,20.438c0,0-19.213,63.96-69.268,101.235  c-5.465,4.068-10.661,8.464-15.156,13.584c-15.415,17.556-43.037,60.91-20.768,115.13c0,0,23.333,63.795,122.699,78.045  c36.654,5.257,74.332-1.944,105.282-22.274c23.375-15.354,46.291-39.707,55.298-77.974c3.037-12.905,3.412-26.251,0.628-39.214  c-3.76-17.511-13.531-42.077-38.519-63.32c-16.019-13.619-31.11-28.284-44.177-44.757c-19.272-24.297-43.313-57.708-52.919-83.941  L236.934,154.877z" fill="url(#SVGID_1_)"/><path d="M362.667,280.527c-16.019-13.619-31.11-28.284-44.176-44.757c-3.04-3.831-6.202-7.907-9.402-12.128  c5.937,22.998,10.708,49.898,11.044,77.766c1.059,87.645-68.787,155.834-149.798,159.113c17.465,9.977,40.192,18.564,69.643,22.788  c36.654,5.257,74.331-1.944,105.282-22.274c23.375-15.354,46.291-39.707,55.298-77.974c3.037-12.905,3.412-26.251,0.628-39.214  C397.426,326.337,387.654,301.771,362.667,280.527z" fill="#DB8B84"/><path d="M245.515,134.099c0,0-7.19,30.458-12.992,45.102c-0.555,1.4-0.826,2.9-0.657,4.406  c0.011,0.097,0.023,0.196,0.037,0.297c1.307,9.828,15.175,9.394,16.213-0.482c0.239-2.28,0.328-5,0.158-8.226  C248.273,175.195,243.689,149.748,245.515,134.099z" fill="#DB8B84"/><path d="M251.951,151.52c0,0,19.108,47.331-2.675,100.732c-1.583,3.881,0.86,8.226,5.005,8.857l0,0  c3.179,0.485,6.224-1.406,7.175-4.479c4.897-15.825,17.456-64.084,3.036-104.265L251.951,151.52z" fill="#A0376F"/><path d="M222.47,135.7L222.47,135.7c0,3.944,2.941,7.269,6.856,7.75l32.909,4.042  c4.655,0.571,8.761-3.061,8.761-7.75v-0.517c0-3.99-3.009-7.339-6.977-7.764l-32.91-3.526  C226.495,127.441,222.47,131.059,222.47,135.7z" fill="#C14C82"/><path d="M252.367,157.188c0,0,38.318,46.093,15.859,170.947c-0.753,4.185,1.956,8.211,6.132,9.014l0,0  c4.191,0.807,8.234-1.916,9.045-6.107c5.226-27.018,19.715-120.298-16.305-176.165L252.367,157.188z" fill="#C14C82"/><path d="M222.47,150.009v0.81c0,3.783,2.9,6.935,6.67,7.249l33.977,2.831c4.241,0.354,7.879-2.993,7.879-7.249l0,0  c0-3.718-2.803-6.837-6.5-7.232l-33.977-3.641C226.22,142.315,222.47,145.685,222.47,150.009z" fill="#A0376F"/></svg>