<?xml version="1.0" ?><!DOCTYPE svg  PUBLIC '-//W3C//DTD SVG 1.1//EN'  'http://www.w3.org/Graphics/SVG/1.1/DTD/svg11.dtd'><svg width="513px" height="513px" viewBox="0 0 513 513" style="fill-rule:evenodd;clip-rule:evenodd;stroke-linejoin:round;stroke-miterlimit:2;" version="1.1" xml:space="preserve" xmlns="http://www.w3.org/2000/svg" xmlns:serif="http://www.serif.com/" xmlns:xlink="http://www.w3.org/1999/xlink"><g transform="matrix(1,0,0,1,-5,-614)"><g id="mushrooms" transform="matrix(1.35364,0,0,0.670162,-565.905,112.116)"><rect height="763.994" style="fill:none;" width="378.238" x="421.762" y="748.988"/><g transform="matrix(2.02707,0.487748,-0.153964,2.61061,-2350.48,-3668.98)"><path d="M1624.63,1435.25C1652.78,1439.43 1609.58,1500.92 1626.15,1509.58C1649.51,1521.79 1643.33,1550.43 1643.89,1542.63C1649.55,1542.17 1678.43,1593.38 1662.12,1630.39C1646.67,1645.14 1603.91,1630.21 1603.91,1630.21C1601.24,1642.86 1520.02,1669.7 1509.19,1658.52C1498.36,1646.48 1501.64,1630.44 1504.67,1615.88C1504.67,1615.88 1528.62,1552.93 1527.41,1550.2C1527.41,1550.2 1501.51,1511.76 1509.98,1480.79C1515.98,1458.83 1590.82,1430.22 1624.63,1435.25Z" style="fill:rgb(244,213,134);"/></g><g transform="matrix(0.622067,0,0,1.42224,456.462,-961.077)"><path d="M190.549,1636.85L190.549,1636.85C200.16,1631.67 220.421,1629.83 230.941,1627.79C246.154,1624.85 303.762,1626.72 315.496,1626.24C346.136,1624.99 351.253,1633.66 375.238,1642.65C377.327,1643.43 403.174,1642.06 401.747,1642.65C401.747,1642.65 419.455,1643.97 427.308,1645.52C432.739,1646.59 458.289,1651.73 463.263,1654.43C473.631,1660.08 449.733,1662.07 442.31,1663.03C433.205,1664.2 403.43,1668.68 393.734,1669.12C376.056,1669.93 315.894,1664.15 299.828,1664.73C274.533,1665.63 256.915,1664.6 228.027,1660.87C221.663,1660.05 194.362,1662.26 188.869,1657.28C163.096,1657.7 140.864,1659.54 114.983,1660.89C103.878,1661.47 28.504,1654.03 46.474,1644.93C51.371,1642.45 120.591,1638.8 126.316,1637.97C134.597,1636.77 143.849,1634.96 143.849,1634.96C142.158,1634.34 148.799,1636.12 149.521,1636.11C156,1636.06 162.562,1635.69 169.051,1635.63C176.526,1635.55 183.69,1635.97 190.549,1636.85Z" style="fill:rgb(80,0,0);"/></g><g transform="matrix(0.842057,0,0,0.953128,103.327,50.7057)"><g><g transform="matrix(0.706367,0,0,1.42677,417.163,-997.343)"><path d="M76.678,1464.73C82.888,1424.44 288.436,1255.17 374.422,1348.12C453.938,1434.07 516.936,1446.35 416.413,1483.67C315.891,1520.99 53.501,1550.22 76.678,1464.73Z" style="fill:rgb(202,59,59);"/></g><g transform="matrix(0.706367,0,0,1.42677,415.041,-1008.79)"><path d="M124.507,1500.15C124.507,1500.15 378.283,1399.87 412.862,1421.94C472.546,1460.04 451.418,1461.18 410.341,1477.37C369.264,1493.56 93.176,1539.51 124.507,1500.15Z" style="fill:rgb(162,157,154);"/></g><g transform="matrix(0.706367,0,0,1.42677,417.163,-997.343)"><path d="M259.235,1482.62C259.235,1482.62 232.959,1655.32 236.582,1667.37C239.44,1676.87 276.173,1686.29 313.012,1679.82C322.878,1678.09 332.302,1684.48 350.493,1679.82C374.138,1673.77 372.306,1648.83 343.659,1573.55C312.386,1491.37 316.821,1459.51 316.821,1459.51C316.821,1459.51 272.2,1454.1 259.235,1482.62Z" style="fill:white;"/></g><g transform="matrix(0.657078,0,0,1.16141,406.663,-591.786)"><path d="M235.045,1381.04C235.045,1381.04 230.946,1383.77 230.144,1386.19C228.475,1391.24 229.901,1396.88 234.549,1396.47C242.365,1395.78 242.985,1391.58 243.987,1387.24C245.563,1380.41 239.759,1378.79 235.045,1381.04Z" style="fill:white;"/></g><g transform="matrix(0.917311,0,0,1.88596,346.947,-1634.37)"><path d="M235.045,1381.04C235.045,1381.04 230.946,1383.77 230.144,1386.19C228.475,1391.24 229.901,1396.88 234.549,1396.47C242.365,1395.78 242.985,1391.58 243.987,1387.24C245.563,1380.41 239.759,1378.79 235.045,1381.04Z" style="fill:white;"/></g><g transform="matrix(0.400868,0,0,0.713387,453.671,14.8228)"><path d="M235.045,1381.04C235.045,1381.04 230.946,1383.77 230.144,1386.19C228.475,1391.24 229.901,1396.88 234.549,1396.47C242.365,1395.78 242.985,1391.58 243.987,1387.24C245.563,1380.41 239.759,1378.79 235.045,1381.04Z" style="fill:white;"/></g><g transform="matrix(0.706367,0,0,1.42677,417.163,-997.343)"><path d="M274.245,1320.63C284.117,1318.16 331.246,1318.39 351.626,1333.72C380.227,1355.23 424.624,1397.12 421.144,1393.59C396.357,1368.54 409.225,1387.4 380.733,1365.95C361.153,1351.21 340.958,1336.73 316.901,1333.72C296.337,1331.14 275.414,1338.92 257.372,1344.17C243.556,1348.22 230.023,1353.46 217.258,1359.86C195.736,1370.64 175.842,1384.07 157.26,1399.16C140.059,1413.13 123.721,1428.48 107.454,1443.25C97.878,1451.99 88.323,1461.66 85.2,1474.52C83.891,1479.9 84.608,1485.65 87.362,1490.58C87.72,1491.21 87.737,1491.21 87.92,1491.49C91.383,1496.92 96.643,1501.04 102.51,1504.05C102.957,1504.28 102.779,1504.19 102.779,1504.19C103.527,1504.71 104.383,1505.11 105.023,1505.76C106.248,1507 107.035,1508.77 107.078,1510.53C107.104,1511.59 73.359,1494.38 75.238,1474.52C77.178,1454 88.151,1442.45 101.021,1429C114.66,1414.71 188.526,1360.02 211.267,1348.04C233.614,1336.28 252.054,1326.17 274.245,1320.63Z" style="fill:rgb(248,189,189);"/></g><g transform="matrix(0.738747,0,0,1.49218,418.06,-167.296)"><path d="M243.758,894.569C229.348,897.24 219.427,898.905 217.399,898.912C191.304,899.002 134.653,896.343 131.993,896.216C120.433,895.672 79.153,878.573 81.302,877.442C83.32,876.382 114.824,867.716 114.164,869.888C111.451,878.816 125.292,888.318 137.764,887.12C137.764,887.12 187.326,882.99 245.758,875.281C245.252,879.91 244.379,888.446 243.758,894.569ZM305.933,866.349C364.739,856.472 413.196,845.085 424.119,829.165C429.358,821.528 402.818,805.381 395.473,799.572L395.465,799.565C393.564,797.403 392.659,796.952 392.068,794.018C391.651,791.945 392.001,789.692 393.14,787.988C393.14,787.988 395.379,785.831 395.379,785.831C397.963,784.822 398.661,784.158 401.558,784.624C403.587,784.951 404.344,785.491 405.854,786.357C423.611,796.54 441.728,809.761 444.29,830.021C445.872,842.534 426.406,849.993 415.294,856.953C409.856,860.359 357.018,871.974 307.258,882.122C306.818,876.553 306.282,869.955 305.933,866.349Z" style="fill:rgb(133,51,51);"/></g><g transform="matrix(0.706367,0,0,1.42677,417.163,-997.343)"><path d="M311.881,1457.13C328.811,1457.29 310.249,1469.09 319.165,1484.97C322.506,1490.92 338.048,1552.97 341.776,1565.76C347.104,1583.92 358.787,1591.7 361.767,1610.53C362.205,1613.29 367.234,1659.02 367.912,1660.74C379.322,1690.04 312.116,1685.84 321.535,1684.14C327.713,1682.99 328.66,1675.47 331.401,1669.44C337.823,1655.31 332.274,1608.32 331.401,1598.87C330.011,1583.98 327.8,1569.12 323.429,1554.94C322.009,1550.32 320.593,1545.7 319.165,1541.08C319.165,1541.08 305.667,1501.98 301.065,1493.69C298.573,1489.21 294.431,1484.99 288.94,1484.97C288.763,1484.97 288.584,1484.97 288.405,1484.98C278.533,1485.17 258.955,1500.97 258.955,1500.97C249.134,1495.83 273.265,1453.51 311.881,1457.13Z" style="fill:rgb(198,176,176);"/></g></g><g transform="matrix(0.738747,0,0,1.49218,418.06,-167.296)"><path d="M236.626,900.112C216.278,901.676 195.795,902.305 175.171,901.811C145.391,901.098 114.816,900.162 88.196,884.96C79.488,879.988 71.497,872.542 68.781,862.497C67.135,856.414 67.573,849.892 69.256,843.769C69.256,843.769 70.058,840.079 71.207,837.439C76.563,825.133 86.054,814.886 95.551,804.954C122.908,776.346 155.139,752.333 189.921,732.957C221.81,715.191 255.86,705.194 291.427,704.814C291.905,704.81 333.407,705.452 358.289,729.558C378.616,749.251 397.564,769.558 419.046,788.784C429.623,798.274 442.309,806.289 448.259,818.467C451.283,824.656 450.55,829.662 447.333,836.125C442.972,844.884 435.475,846.535 427.119,850.94C396.499,867.083 362.427,875.896 328.584,882.709C323.477,883.737 319.056,883.944 313.933,884.884C316.874,905.606 326.474,934.77 332.123,956.338C337.995,978.759 346.357,997.265 349.902,1018.15C351.927,1030.08 360.658,1040.03 351.914,1050.07C342.561,1060.8 325.328,1062.21 311.754,1060.18C307.225,1059.5 302.767,1058.41 298.321,1059.1C277.835,1062.2 256.261,1061.4 237.07,1054.99C228.885,1052.26 220.164,1048.33 217.681,1040.54C216.186,1035.86 220.23,1030.93 220.696,1025.79C224.513,983.652 228.851,941.723 236.626,900.112ZM317.832,945.655C311.821,928.056 296.422,851.344 296.619,844.182C296.619,844.182 291.673,843.248 289.743,843.254C274.537,843.387 258.353,847.092 250.244,859.868C249.999,860.253 249.35,862.784 249.35,862.784L249.257,862.862C249.257,862.862 236.665,971.701 233.745,1007.72C233.004,1016.86 231.804,1026.02 232.363,1035.15C232.363,1035.15 235.246,1037.14 237.964,1038.18C256.483,1045.27 278.127,1044.41 296.541,1040.97C296.541,1040.97 300.28,1040.38 303.691,1040.54C313.728,1041.01 323.919,1043.86 333.786,1040.05C341.168,1037.2 340.436,1025.29 338.976,1016.29C335.04,992.016 325.538,968.111 317.832,945.655ZM312.307,878.816C333.47,874.617 354.509,869.391 375.405,862.945C393.98,857.215 412.761,850.889 429.011,840.568C434.708,836.95 441.031,831.988 439.643,826.098C437.755,818.088 430.369,811.881 424.107,805.813C399.65,782.113 373.663,760.347 351.673,736.609C330.399,713.831 294.886,708.931 263.221,715.428C213.621,725.604 168.502,753.095 128.946,784.625C111.887,798.222 95.238,812.712 82.516,830.194C79.219,834.724 75.848,839.499 74.917,844.87C74.885,844.995 74.853,845.12 74.821,845.245C72.941,852.816 73.403,860.987 78.067,867.694C85.451,878.313 98.518,882.927 110.256,886.104C145.398,895.617 183.361,893.978 220.054,891.167C226.245,890.692 232.429,890.156 238.604,889.553L240.269,880.67C229.35,881.935 218.366,883.089 207.313,884.16C181.166,886.694 154.794,889.704 128.905,886.152C120.773,885.036 110.225,882.952 110.918,875.266C111.101,873.229 111.315,871.795 113.48,869.674C118.199,865.052 222.966,826.395 275.989,810.48C304.864,801.814 333.801,792.693 363.703,789.563C367.739,789.14 371.799,788.872 375.86,788.887C381.985,788.944 388.232,789.606 393.403,792.894C405.327,800.475 417.999,807.397 426.503,818.804C429.306,822.565 431.136,827.738 428.821,832.26C425.961,837.847 419.589,840.459 413.805,842.906C400.755,848.428 387.392,853.439 374.434,856.794C353.295,862.269 331.925,866.794 310.305,870.608C310.926,873.269 311.578,875.905 312.23,878.508L312.307,878.816ZM243.035,865.816C235.663,868.498 228.665,871.765 220.555,873.588C198.71,878.499 179.714,879.702 158.94,883.291C167.066,882.884 175.214,882.122 183.317,881.428C193.191,880.582 203.048,879.531 212.888,878.35C222.4,877.21 231.902,875.985 241.39,874.669C241.941,871.718 242.49,868.768 243.035,865.816ZM246.165,856.953C223.053,858.851 200.18,867.052 177.239,869.712C156.74,872.088 135.576,870.278 115.697,872.257C113.242,874.238 114.396,876.683 114.707,877.225C114.795,878.463 129.378,883.838 131.091,882.653C149.56,877.17 167.817,877.244 187.612,873.883C195.628,872.513 203.633,871.072 211.595,869.414C214.464,868.817 217.327,868.192 220.182,867.532C228.893,865.518 236.954,861.302 245.318,858.609C245.576,858.08 245.859,857.521 246.165,856.953ZM183.476,847.211C166.702,853.143 150.03,859.264 133.463,865.497C151.198,865.131 167.024,866.694 185.961,863.274C203.762,860.06 221.344,855.072 239.351,852.888L239.529,852.867C220.988,850.743 202.757,848.028 183.476,847.211ZM308.79,863.671C324.502,860.696 340.149,857.427 355.713,853.835C367.881,851.027 380.166,847.759 391.431,843.405C397.781,840.963 404.377,838.877 410.53,836.153C376.317,841.771 342.241,849.319 308.005,859.488C308.247,860.886 308.511,862.281 308.79,863.671ZM307.557,856.751C327.694,849.206 348.336,842.618 368.902,837.246C368.997,837.221 370.882,836.73 370.975,836.709C387.898,832.86 404.935,829.705 422.05,827.115C421.857,825.74 420.938,824.001 418.902,821.705C417.885,820.558 416.821,819.449 415.717,818.373C403.605,825.356 389.522,829.345 375.693,831.328C365.503,832.839 355.512,836.16 345.562,839.383C332.594,843.583 319.765,848.176 307.044,853.013C307.194,854.261 307.366,855.507 307.557,856.751ZM254.695,846.709C246.433,843.055 239.316,837.354 233.409,830.288C220.245,834.538 207.139,838.951 194.094,843.487C209.324,844.657 224.461,846.606 239.519,848.217C240.64,848.34 241.762,848.465 242.882,848.605C245.552,848.936 248.866,849.083 251.147,850.023C252.256,848.838 253.443,847.735 254.695,846.709ZM306.394,844.692C323.074,833.927 339.821,823.471 357.706,815.051C364.666,811.774 371.969,809.272 379.128,806.395C383.471,804.649 387.802,802.875 392.121,801.072C390.906,800.314 389.697,799.564 388.498,798.817C384.934,796.645 380.618,796.077 376.012,796.132L306.359,843.035C306.365,843.587 306.377,844.139 306.394,844.692ZM263.67,841.064L260.418,821.828C253.28,823.992 246.159,826.21 239.054,828.476C244.732,834.747 251.652,839.876 259.973,843.036C261.171,842.328 262.406,841.671 263.67,841.064ZM276.646,836.597C277.436,829.574 278.779,822.61 280.722,815.838C275.637,817.296 270.561,818.784 265.493,820.3L268.709,838.944C271.294,837.998 273.958,837.222 276.646,836.597ZM398.548,805.148C387.63,809.793 376.637,814.191 365.65,818.533C353.552,823.369 342.487,830.292 331.349,837.001C346.206,831.814 361.274,826.409 376.685,824.193C388.371,822.48 400.071,819.29 410.267,813.544C406.554,810.53 402.577,807.77 398.548,805.148ZM287.102,834.879C297.505,826.461 306.876,816.908 315.174,806.461C311.689,807.356 308.212,808.273 304.742,809.196C298.595,810.831 292.46,812.513 286.337,814.241C284.075,821.183 282.503,828.354 281.627,835.608C283.461,835.304 285.291,835.063 287.102,834.879ZM303.672,835.155C304.665,833.913 305.71,832.66 306.679,831.452C315.453,820.514 325.475,810.595 336.18,801.473C331.829,802.395 327.491,803.399 323.164,804.455C314.053,816.634 305.119,825.595 293.727,834.442C294.893,834.404 296.059,834.388 297.224,834.391C299.387,834.405 302.255,834.578 302.255,834.578C302.255,834.578 302.894,834.753 303.672,835.155ZM364.004,797.02C358.386,797.574 352.793,798.367 347.222,799.335C335.508,808.732 324.514,818.952 314.808,830.354L314.669,830.518L364.004,797.02Z" style="fill:rgb(80,0,0);"/></g></g><g transform="matrix(0.478095,0,0,0.541158,244.939,604.042)"><g><g transform="matrix(0.738747,0,0,1.49218,419.372,-1061.54)"><path d="M76.678,1464.73C82.888,1424.44 288.436,1255.17 374.422,1348.12C453.938,1434.07 516.936,1446.35 416.413,1483.67C315.891,1520.99 53.501,1550.22 76.678,1464.73Z" style="fill:rgb(202,59,59);"/></g><g transform="matrix(0.738747,0,0,1.49218,417.153,-1073.51)"><path d="M124.507,1500.15C124.507,1500.15 378.283,1399.87 412.862,1421.94C472.546,1460.04 451.418,1461.18 410.341,1477.37C369.264,1493.56 93.176,1539.51 124.507,1500.15Z" style="fill:rgb(162,157,154);"/></g><g transform="matrix(0.738747,0,0,1.49218,419.372,-1061.54)"><path d="M259.235,1482.62C259.235,1482.62 232.959,1655.32 236.582,1667.37C239.44,1676.87 276.173,1686.29 313.012,1679.82C322.878,1678.09 332.302,1684.48 350.493,1679.82C374.138,1673.77 372.306,1648.83 343.659,1573.55C312.386,1491.37 316.821,1459.51 316.821,1459.51C316.821,1459.51 272.2,1454.1 259.235,1482.62Z" style="fill:white;"/></g><g transform="matrix(0.687198,0,0,1.21465,408.391,-637.391)"><path d="M235.045,1381.04C235.045,1381.04 230.946,1383.77 230.144,1386.19C228.475,1391.24 229.901,1396.88 234.549,1396.47C242.365,1395.78 242.985,1391.58 243.987,1387.24C245.563,1380.41 239.759,1378.79 235.045,1381.04Z" style="fill:white;"/></g><g transform="matrix(0.95936,0,0,1.97242,345.938,-1727.77)"><path d="M235.045,1381.04C235.045,1381.04 230.946,1383.77 230.144,1386.19C228.475,1391.24 229.901,1396.88 234.549,1396.47C242.365,1395.78 242.985,1391.58 243.987,1387.24C245.563,1380.41 239.759,1378.79 235.045,1381.04Z" style="fill:white;"/></g><g transform="matrix(0.419243,0,0,0.746088,457.554,-2.97613)"><path d="M235.045,1381.04C235.045,1381.04 230.946,1383.77 230.144,1386.19C228.475,1391.24 229.901,1396.88 234.549,1396.47C242.365,1395.78 242.985,1391.58 243.987,1387.24C245.563,1380.41 239.759,1378.79 235.045,1381.04Z" style="fill:white;"/></g><g transform="matrix(1.30114,0,0,2.62813,440.118,-1317.16)"><path d="M128.929,950.351L127.288,961.183C123.155,961.258 119.022,961.308 114.889,961.337L80.406,960.836C56.837,960.721 37.327,949.514 39.75,948.24C40.873,947.65 42.151,947.51 43.19,947.384C46.019,947.041 51.587,947.325 55.555,951.606C58.543,954.83 77.526,953.454 77.526,953.454C99.142,951.597 106.91,952.598 128.929,950.351ZM232.119,924.567C249.148,913.656 225.124,906.718 219.608,902.355C219.608,902.355 217.586,899.057 217.586,899.057C215.617,892.852 219.258,892.367 225.1,894.126C236.852,897.666 246.648,908.394 248.497,919.757C250.046,929.277 245.695,930.126 236.078,934.159C219.482,941.12 199.297,948.415 181.425,951.606C177.204,952.36 171.116,953.994 166.818,954.546L164.546,943.165C180.22,941.705 218.786,933.111 232.119,924.567Z" style="fill:rgb(133,51,51);"/></g><g transform="matrix(1.30114,0,0,2.62813,440.118,-1317.16)"><path d="M128.673,950.376L130.668,936.129C143.821,927.599 154.9,925.368 164.322,928.173L164.322,928.173C158.974,935.496 183.446,1002.46 190.812,1017.29L190.87,1017.44C191.646,1019.78 193.649,1039.59 189.68,1047.01C189.44,1047.45 182.261,1048.55 173.265,1049.78C176.387,1046 176.741,1040.42 176.668,1035.8C176.592,1031.03 175.779,1026.23 174.286,1021.74C174.286,1021.74 173.256,1016.16 172.861,1012.07C172.404,1007.22 171.995,1002.36 171.452,997.525L171.429,997.324C170.338,988.995 167.95,980.939 165.505,973.009C165.505,973.009 163.322,966.279 161.289,960.457L161.133,960.013C159.158,954.635 157.53,948.93 154.34,944.269C150.025,938.238 140.534,940.646 133.349,947.837C133.229,947.957 133.065,948.143 133.065,948.143L128.929,950.351L128.673,950.376Z" style="fill:rgb(198,176,176);"/></g><g transform="matrix(0.738747,0,0,1.49218,419.372,-1061.54)"><path d="M303.603,1319.41C328.666,1319.58 346.324,1325.38 366.579,1340.62C403.644,1368.52 432.186,1396.38 461.849,1432.66C461.849,1432.66 463.602,1438.89 463.602,1438.89C437.526,1412 408.897,1386.99 378.782,1364.57C356.218,1347.76 331.544,1331.7 302.88,1333.32C279.24,1334.65 255.614,1343.97 237.596,1350.84C233.858,1352.27 230.16,1353.8 226.505,1355.42C179.97,1376.1 141.407,1411.84 106.752,1443.13C97.525,1451.56 88.425,1460.75 84.794,1473.2C81.262,1485.31 93.052,1497.26 101.749,1504.72C102.361,1505.25 65.097,1484.21 75.236,1459.12C84.594,1435.95 138.109,1396.42 144.26,1390.66C165,1371.21 243.458,1331.8 267.61,1326.09C277.241,1323.82 293.683,1319.38 303.603,1319.41Z" style="fill:rgb(248,189,189);"/></g></g><g transform="matrix(1.30114,0,0,2.62813,440.118,-1317.16)"><path d="M125.308,962.615C101.756,964.77 78.05,965.112 55.175,960.069C42.266,957.223 28.083,952.017 24.987,939.476C24.096,935.869 24.369,932.015 25.38,928.419C26.675,919.848 34.084,912.587 40.62,905.691C62.891,882.189 90.293,863.238 119.995,851.453C132.455,846.508 145.713,843.078 159.235,843.058C159.521,843.059 159.806,843.061 160.092,843.064C175.47,843.313 190.153,849.458 200.879,860.847C214.086,874.801 229.205,887.013 242.856,900.218C250.029,907.156 257.803,915.69 253.019,925.015C248.835,933.17 239.279,936.768 231.861,939.895C212.523,948.048 192.113,953.089 171.487,956.626C175.459,969.92 181.163,982.605 185.673,993.819C191.113,1007.61 197.508,1021.43 197.941,1036.94C198.106,1042.87 196.533,1049.23 191.679,1053.06C184.616,1058.63 173.831,1057.62 165.868,1056.46C162.311,1055.96 158.608,1056.98 154.885,1057.24C142.648,1058.09 129.61,1057.47 119.234,1051.22C115.988,1049.26 113.603,1046.3 113.644,1041.89C113.697,1036 114.597,1030.11 115.403,1024.22C118.232,1003.56 121.672,983.033 125.308,962.615ZM132.934,938.891C132.934,938.891 124.887,1002.19 122.946,1034.41C122.787,1037.05 122.572,1039.72 122.759,1042.32C126.857,1045.73 133.229,1046.22 139.389,1046.75C146.807,1047.39 153.907,1046.75 161.428,1045.6C168.671,1044.58 176.444,1048.26 183.55,1044.9C188.147,1042.73 186.885,1035.19 185.705,1029.04C181.962,1009.51 173.583,991.429 168.091,971.952C164.108,957.825 160.443,943.354 160.915,928.63L160.922,928.428C159.56,928.328 158.197,928.288 156.826,928.293C147.479,928.375 137.533,930.946 132.934,938.891ZM169.494,949.257C188.172,945.672 206.477,940.666 223.944,933.614C230.843,930.828 238.067,928.378 243.414,922.985C247.672,918.69 240.689,910.614 234.054,904.405C220.271,891.508 206.279,879.367 193.06,865.212C187.609,859.423 180.697,855.182 172.944,853.018C155.874,848.254 137.711,852.683 121.79,858.674C91.428,870.099 63.497,888.98 41.728,911.989C37.026,916.958 31.808,922.084 29.994,928.498C29.907,928.805 29.967,928.715 29.737,929.616C28.763,933.545 28.846,937.8 30.891,941.391C34.932,948.488 43.441,951.358 50.729,953.295C71.74,958.877 94.184,957.832 115.925,956.153C119.492,955.878 123.062,955.573 126.631,955.235L127.075,952.778L127.451,950.701C109.764,953.036 91.964,954.589 73.934,954.5C67.295,954.467 60.358,954.773 54.177,951.974C52.02,950.997 49.855,948.694 50.99,945.92C51.535,944.588 52.987,943.24 54.473,942.7C74.236,935.511 129.496,913.434 169.567,902.786C181.974,899.49 194.543,896.166 207.195,896.011C207.45,896.009 207.706,896.009 207.962,896.01L208.025,896.011L208.027,896.009L208.053,896.011C212.042,896.058 215.8,896.739 219.549,899.137C220.577,899.799 226.373,903.526 226.373,903.526C230.746,906.441 234.894,909.615 237.975,913.698C239.127,915.224 239.924,917.195 239.924,919.135L239.924,919.135L239.924,919.135C239.924,920.525 239.515,921.898 238.535,923.08C233.645,928.98 224.501,930.392 215.848,933.707C215.532,933.824 215.532,933.824 215.215,933.939C200.174,939.251 184.162,941.575 168.409,944.271C168.733,945.939 169.096,947.602 169.494,949.257ZM129.085,941.735C125.073,943.271 121.186,945.047 116.889,946.044C105.436,948.667 93.698,950.054 82.169,952.013C97.498,951.44 112.876,949.141 128.141,946.906C128.455,945.182 128.77,943.458 129.085,941.735ZM130.668,936.33C128.598,936.596 126.039,936.944 123.653,937.32C108.562,939.701 94.172,944.358 78.276,944.839C70.093,945.086 61.925,944.717 53.778,945.488C53.778,945.488 51.534,947.403 53.507,949.028C56.43,951.436 60.848,951.579 65.141,951.847L65.55,951.872C82.275,947.369 100.275,946.403 117.764,942.177C122.052,941.111 125.95,938.922 130.099,937.526C130.265,937.121 130.456,936.722 130.668,936.33ZM94.168,930.501C83.862,934.105 73.626,937.913 63.371,941.757C73.893,941.564 84.496,942.114 95.2,940.181C105.786,938.269 116.183,935.314 126.903,934.014C126.903,934.014 122.974,933.569 119.854,933.235C111.619,932.336 103.431,930.877 95.156,930.609C94.839,930.599 94.485,930.511 94.168,930.501ZM167.786,940.74C182.09,938.196 196.277,935.126 210.154,930.92C215.977,929.155 221.843,927.07 227.409,924.567C207.205,927.778 188.138,931.853 167.394,938.016C167.511,938.925 167.642,939.833 167.786,940.74ZM167.198,936.386C179.273,931.859 191.544,927.935 203.83,924.726C203.886,924.711 205.005,924.419 205.061,924.406C215.083,922.127 225.175,920.257 235.317,918.72C235.162,917.571 234.231,916.066 232.058,913.993C231.901,913.843 231.743,913.694 231.585,913.546C224.402,917.694 207.72,921.233 207.442,921.276C193.604,923.543 180.354,928.97 166.977,934.13C167.041,934.882 167.115,935.634 167.198,936.386ZM135.997,930.336C131.146,928.182 126.964,924.841 123.487,920.717C115.889,923.175 108.317,925.705 100.765,928.303C110.433,928.977 120.116,930.231 130.006,931.602C130.432,931.661 132.296,931.98 132.72,932.052C133.042,932.106 135.176,930.977 135.997,930.336ZM166.694,928.162C166.697,928.491 166.702,928.821 166.709,929.15C178.749,921.389 191.116,913.766 204.172,908.677C208.696,906.907 213.2,905.087 217.684,903.217C216.892,902.736 216.097,902.267 215.303,901.81C213.21,900.66 210.814,900.225 208.254,900.176L166.694,928.162ZM141.344,926.993L139.431,915.679C135.229,916.975 131.037,918.293 126.853,919.634C130.236,923.333 134.324,926.331 139.172,928.173C139.89,927.747 140.617,927.353 141.344,926.993ZM149.26,924.238C149.632,919.922 150.264,916.218 151.485,912.002C148.466,912.906 145.452,913.827 142.441,914.752L144.331,925.706C144.454,925.66 144.578,925.616 144.7,925.573C146.193,925.05 147.716,924.605 149.26,924.238ZM221.484,905.636C215,908.396 208.46,911.037 201.899,913.614C201.642,913.717 179.102,925.364 179.102,925.364C187.912,922.283 199.3,918.277 208.452,916.975C215.316,915.958 222.269,914.076 228.321,910.688C226.133,908.887 223.834,907.204 221.484,905.636ZM155.403,923.201C161.552,918.205 167.127,912.501 172.055,906.277C166.278,907.723 160.535,909.33 154.814,911.014C153.476,915.106 152.541,919.347 152.016,923.669C153.139,923.472 154.27,923.316 155.403,923.201ZM165.157,923.515C165.779,922.669 166.449,921.821 167.085,921.032C172.261,914.619 178.131,908.819 184.412,903.47C181.873,903.982 179.342,904.536 176.817,905.125C171.509,912.515 167.109,917.549 160.149,922.959C161.524,922.958 162.895,923.019 164.255,923.141C164.255,923.141 164.668,923.254 165.157,923.515ZM201.056,900.735C199.696,900.921 198.326,901.13 196.961,901.319C194.937,901.601 192.918,901.915 190.904,902.259C183.986,907.814 177.47,913.865 171.709,920.633L201.056,900.735Z" style="fill:rgb(80,0,0);"/></g></g><g transform="matrix(-0.367546,0,0,0.416027,925.897,789.415)"><g><g transform="matrix(0.738747,0,0,1.49218,419.372,-1061.54)"><path d="M81.157,1467.41C87.367,1427.12 306.368,1251.21 392.355,1344.16C471.871,1430.11 516.936,1446.35 416.413,1483.67C315.891,1520.99 57.98,1552.89 81.157,1467.41Z" style="fill:rgb(202,59,59);"/></g><g transform="matrix(0.738747,0,0,1.49218,417.153,-1073.51)"><path d="M129.702,1499.7C129.702,1499.7 375.937,1404.07 412.862,1421.94C487.849,1458.25 451.418,1461.18 410.341,1477.37C369.264,1493.56 98.371,1539.05 129.702,1499.7Z" style="fill:rgb(162,157,154);"/></g><g transform="matrix(0.687198,0,0,1.21465,408.391,-637.391)"><path d="M235.045,1381.04C235.045,1381.04 230.946,1383.77 230.144,1386.19C228.475,1391.24 229.901,1396.88 234.549,1396.47C242.365,1395.78 242.985,1391.58 243.987,1387.24C245.563,1380.41 239.759,1378.79 235.045,1381.04Z" style="fill:white;"/></g><g transform="matrix(0.95936,0,0,1.97242,345.938,-1727.77)"><path d="M235.045,1381.04C235.045,1381.04 230.946,1383.77 230.144,1386.19C228.475,1391.24 229.901,1396.88 234.549,1396.47C242.365,1395.78 242.985,1391.58 243.987,1387.24C245.563,1380.41 239.759,1378.79 235.045,1381.04Z" style="fill:white;"/></g><g transform="matrix(0.419243,0,0,0.746088,457.554,-2.97613)"><path d="M235.045,1381.04C235.045,1381.04 230.946,1383.77 230.144,1386.19C228.475,1391.24 229.901,1396.88 234.549,1396.47C242.365,1395.78 242.985,1391.58 243.987,1387.24C245.563,1380.41 239.759,1378.79 235.045,1381.04Z" style="fill:white;"/></g><g transform="matrix(0.738747,0,0,1.49218,419.372,-1061.54)"><path d="M324.473,1311.27C324.002,1311.27 269.396,1326.78 248.86,1333.42C190.893,1352.15 144.457,1384.32 101.833,1428.84C96.023,1434.97 80.377,1451.54 78.5,1465.62C73.918,1499.98 106.618,1513.16 106.618,1513.16L106.504,1508.05L102.831,1504.21C102.102,1503.87 103.28,1504.45 102.145,1503.87C92.978,1499.1 84.688,1490.95 84.497,1480.54C84.171,1462.86 100.188,1449.86 111.712,1439.39C143.708,1410.24 175.499,1380.67 216.318,1360.33C239.031,1349.02 264.072,1340.44 289.096,1335.15C313.542,1329.97 338.956,1330.6 361.253,1345.27C398.748,1369.94 445.635,1412.7 476.609,1444.68C476.609,1444.68 471.83,1439.55 472.027,1439.38L473.902,1435.35L472.487,1430.99C442.822,1394.76 409.702,1360.93 373.128,1333.42C353.169,1318.4 349.936,1311.57 324.473,1311.27Z" style="fill:rgb(248,189,189);"/></g><g transform="matrix(-1.69249,0,0,3.41861,1280.22,-2158.91)"><path d="M393.851,976.942C395.561,976.955 414.837,978.352 431.298,978.65C438.166,978.775 447.323,979.845 452.648,978.12C454.511,977.516 452.895,974.998 454.69,974.143C454.834,971.119 471.063,971.941 470.958,974.143C470.958,974.143 460.719,982.122 460.384,980.349C457.679,983.433 395.088,986.834 395.49,984.731C394.707,978.432 394.261,980.723 393.851,976.942ZM367.206,980.349C357.213,978.357 331.908,971.078 328.931,970.471C307,966 301.281,951.583 301.281,951.583C301.281,951.583 305.371,951.677 305.473,951.583C305.473,951.583 309.879,951.93 310.09,952.114C313.884,955.429 328.071,962.89 338.847,965.626C340.256,965.994 361.226,970.965 370.142,971.913C369.117,976.277 368.456,974.931 367.206,980.349Z" style="fill:rgb(133,51,51);"/></g><g transform="matrix(0.738747,0,0,1.49218,419.372,-1061.54)"><path d="M262.328,1485.42C262.328,1485.42 232.959,1655.32 236.582,1667.37C239.44,1676.87 276.173,1686.29 313.012,1679.82C322.878,1678.09 332.302,1684.48 350.493,1679.82C374.138,1673.77 386.647,1666.91 353.14,1584.04C321.721,1506.35 326.764,1459.95 326.764,1459.95C326.764,1459.95 275.293,1456.9 262.328,1485.42Z" style="fill:white;"/></g><g transform="matrix(0.738747,0,0,1.49218,419.372,-1061.54)"><path d="M277.666,1467.41C260.523,1467.66 262.387,1498.68 262.387,1498.68C269.41,1492.91 290.59,1474.9 301.065,1493.69C302.118,1495.59 303.061,1497.54 303.952,1499.51C309.829,1512.52 309.062,1530.09 313.553,1543.67C313.553,1543.67 324.06,1579.6 325.906,1598.47C327.07,1610.37 331.853,1618.26 335.369,1629.25C339.926,1644.22 340.163,1662.1 325.906,1670.57C320.68,1673.68 321.408,1673.91 314.966,1675.01C306.512,1676.46 361.034,1692.67 367.846,1658.78C371.761,1639.3 370.729,1636.8 363.417,1618.6C363.417,1618.6 334.745,1522.34 331.239,1509.79C325.745,1490.31 336.147,1468.23 317.275,1457.22C309.821,1452.87 286.376,1467.35 277.666,1467.41Z" style="fill:rgb(198,176,176);"/></g></g><g transform="matrix(-1.69249,0,0,3.41861,1284.16,-2159.12)"><path d="M361.595,979.672C345.43,976.797 332.451,973.018 317.502,966.497C308.698,962.657 300.101,957.295 300.728,950.408C301.499,941.949 307.507,938.762 312.857,933.209C320.917,924.844 338.044,905.458 338.508,905.02C346.469,897.497 355.233,893.508 366.332,893.413C366.564,893.412 391.899,894.969 412.857,905.88C433.822,916.795 456.854,931.165 471.476,949.247C474.078,952.466 476.742,955.903 477.409,959.838C477.988,963.718 478.747,969.213 475.154,974.038C470.119,980.799 461.387,983.556 453.496,985.107C437.291,988.291 417.559,987.397 400.107,985.913C403.593,1003.53 405.891,1022.59 407.989,1040.54C408.471,1044.66 408.871,1049.63 406.706,1052.76C401.337,1060.52 390.819,1061.01 381.915,1061.03C378.23,1061.04 374.549,1060.52 370.896,1060.2C365.019,1059.74 358.419,1062.75 350.742,1059.18C345.822,1056.89 342.608,1051.74 342.233,1045.88C341.459,1033.81 349.27,1022.87 353.734,1011.69C354.321,1010.22 360.952,988.593 361.595,979.672ZM370.547,1047.98C375.179,1048.1 379.669,1049.31 384.705,1049.31C390.09,1049.31 395.783,1049.02 400.418,1046.58C400.418,1046.58 400.222,1039.91 399.893,1035.11C398.388,1013.07 396.044,991.081 393.721,969.073C393.721,969.073 393.879,968.518 393.603,968.068C389.764,961.957 377.11,960.425 369.854,960.849C369.854,960.849 369.725,965.842 369.345,969.671C367.914,984.103 365.588,998.152 360.951,1012.05C359.839,1015.4 349.328,1036.06 351.257,1046.84C351.675,1049.17 360.643,1048.95 364.142,1048.57C366.276,1048.34 368.394,1047.94 370.547,1047.98ZM400.353,1047.53C400.353,1047.53 400.307,1048.08 400.37,1047.49C400.379,1047.41 400.361,1047.5 400.353,1047.53ZM399.689,979.819C404.333,980.251 408.977,980.603 413.61,980.887C430.503,981.925 448.058,983.325 464.176,976.021C464.746,975.762 465.308,975.485 465.86,975.188C470.709,972.58 474.522,967.338 472.912,960.822C472.885,960.679 472.886,960.679 472.857,960.537C472.857,960.537 469.931,954.811 465.984,950.559C439.154,921.655 400.539,900.063 367.627,900.039C357.906,900.032 347.923,902.942 340.834,910.52C330.429,921.833 318.317,931.779 309.182,944.203C307.352,946.691 305.174,949.833 306.803,952.45C310.119,957.778 317.549,960.119 324.574,962.956C337.535,968.192 351.019,972.012 364.74,974.791C364.944,973.982 365.138,973.171 365.321,972.358C354.817,970.493 344.412,968.191 334.177,965.244C327.814,963.411 321.328,961.242 315.844,958.108C313.669,956.866 311.581,954.936 311.822,952.294C312.175,948.404 315.809,945.91 318.553,943.756C324.483,939.103 330.26,934.472 340.013,935.18C354.26,936.213 368.221,940.634 382.086,944.91C406.981,952.587 431.436,961.64 455.596,971.351C455.596,971.351 456.066,971.667 456.354,972.039C457.179,973.141 457.765,974.543 457.245,975.824C456.008,978.871 452.122,979.043 449.416,979.427C437.855,981.069 425.969,979.74 414.132,978.611C409.135,978.134 404.135,977.632 399.141,977.082C399.324,977.994 399.506,978.907 399.689,979.819ZM396.179,966.134C396.347,966.44 396.509,966.751 396.665,967.067C400.605,968.377 404.389,970.199 408.429,971.152C421.069,974.13 434.21,974.647 446.734,978.164C450.302,978.317 453.922,977.515 455.28,975.765C456.095,974.716 455.408,973.484 454.821,973.058C438.227,971.417 438.207,973.474 421.724,971.064C408.997,969.203 407.498,966.912 396.179,966.134ZM397.817,970.471C398.118,971.977 398.42,973.483 398.722,974.99C410.254,976.498 421.754,977.51 433.096,977.941C423.913,976.409 414.466,975.415 405.189,973.207C402.642,972.583 400.245,971.45 397.817,970.471ZM424.431,961.564C415.895,962.003 407.375,963.313 399.325,964.192C399.325,964.192 398.533,964.221 398.73,964.259C405.144,965.484 411.577,966.609 418.005,967.76C428.158,969.577 437.642,970.116 447.919,970.297C440.113,967.326 432.29,964.395 424.431,961.564ZM321.453,956.859C322.158,957.163 322.933,957.479 323.785,957.808C326.408,958.813 329.041,959.797 331.659,960.829C336.227,962.58 336.813,962.482 338.401,962.905C347.479,965.323 356.679,967.512 365.935,969.428C366.094,968.607 366.24,967.784 366.374,966.96C357.051,964.232 347.579,961.891 338.016,960.022C332.573,958.968 327.038,957.86 321.453,956.859ZM318.332,948.528C316.858,949.762 314.779,950.9 315.205,952.472C333.412,955.219 349.449,959.296 366.58,965.626C366.663,965.055 366.74,964.483 366.811,963.91C356.518,960.002 346.149,955.825 335.374,954.26C329.386,953.356 323.532,951.518 318.332,948.528ZM401.712,953.744C399.508,956.412 396.857,958.731 393.83,960.42C393.769,960.454 393.185,960.807 392.409,961.206C392.964,961.727 393.485,962.284 393.973,962.872C394.068,962.847 394.163,962.824 394.258,962.804C404.039,960.754 404.162,961.654 414.091,960.272C415.82,960.04 417.555,959.861 419.294,959.729C413.458,957.664 407.601,955.662 401.712,953.744ZM336.592,938.489C333.873,938.538 331.322,939.336 328.931,940.554C342.395,946.239 354.797,952.253 367.179,959.916C367.191,959.649 367.2,959.402 367.206,959.189L336.592,938.489ZM389.24,949.833L387.842,958.111C388.444,958.408 389.021,958.721 389.566,959.049C389.78,959.178 389.99,959.311 390.196,959.449C393.621,957.99 396.591,955.703 399.09,952.897C395.817,951.847 392.534,950.824 389.24,949.833ZM379.865,947.111C380.814,950.315 381.345,952.803 381.652,955.847C382.994,956.2 384.318,956.626 385.577,957.118L386.939,949.147C384.587,948.451 382.23,947.772 379.865,947.111ZM325.884,942.364C324.124,943.553 322.457,944.909 320.88,946.276C325.818,948.952 331.386,950.513 336.913,951.28C337.156,951.316 337.155,951.316 337.397,951.355C343.927,952.443 350.241,954.733 356.547,956.923L356.815,957.017C350.998,953.513 345.073,950.124 338.865,947.69C334.515,945.972 330.184,944.203 325.884,942.364ZM364.163,943.024C367.543,947.284 371.32,951.228 375.469,954.764C376.731,954.87 378.046,955.058 379.37,955.321C378.937,952.286 378.24,949.296 377.277,946.395C372.929,945.206 368.559,944.079 364.163,943.024ZM354.706,940.876C358.504,944.137 365.309,950.338 369.03,955.118C369.298,955.044 369.611,954.984 369.983,954.917C370.354,954.85 370.744,954.797 371.149,954.757C367.247,951.013 364.041,946.899 360.561,942.177C359.043,941.827 357.521,941.486 355.996,941.154C355.566,941.061 355.136,940.968 354.706,940.876ZM341.862,938.734L364.428,954.057C360.008,948.818 354.965,944.141 349.604,939.846C347.033,939.37 344.452,938.974 341.862,938.734Z" style="fill:rgb(80,0,0);"/></g></g></g></g></svg>