<?xml version="1.0" ?><!DOCTYPE svg  PUBLIC '-//W3C//DTD SVG 1.1//EN'  'http://www.w3.org/Graphics/SVG/1.1/DTD/svg11.dtd'><svg width="512px" height="512px" viewBox="0 0 512 512" enable-background="new 0 0 512 512" id="Potion" version="1.1" xml:space="preserve" xmlns="http://www.w3.org/2000/svg" xmlns:xlink="http://www.w3.org/1999/xlink"><path d="M256,22.974h-27.656c-4.731,0-8.367,4.188-7.705,8.872l4.904,34.683H256h30.457l4.904-34.683  c0.662-4.685-2.974-8.872-7.705-8.872H256z" fill="#BA8280"/><polygon fill="#965C5C" points="222.464,44.751 225.543,66.528 256,66.528 286.457,66.528 289.536,44.751 "/><linearGradient gradientUnits="userSpaceOnUse" id="SVGID_1_" x1="256" x2="256" y1="475.6611" y2="-13.8296"><stop offset="0.0103" style="stop-color:#FFCCE0"/><stop offset="1" style="stop-color:#FFE6FA"/></linearGradient><path d="M328.733,181.56l0.087,0.01c-0.048-0.01-0.091-0.026-0.139-0.036  c-1.773-0.89-3.563-1.751-5.371-2.581c-14.48-6.648-25.809-18.919-29.865-34.328c-0.437-1.659-0.792-3.245-1.082-4.725  c-1.135-5.801-1.559-11.743-0.836-17.609c3.08-25.015,21.564-36.845,21.564-36.845H256h-57.092c0,0,18.484,11.83,21.564,36.845  c0.723,5.866,0.299,11.809-0.836,17.609c-0.29,1.479-0.646,3.065-1.082,4.725c-4.058,15.409-15.385,27.68-29.865,34.328  c-1.808,0.83-3.598,1.691-5.371,2.581c-0.048,0.01-0.091,0.026-0.139,0.036l0.087-0.01c-56.602,28.424-94.309,88.938-89.133,157.693  c6.142,81.592,73.709,146.511,155.471,149.65c92.571,3.555,168.735-70.437,168.735-162.217  C418.34,263.187,381.859,208.238,328.733,181.56z" fill="url(#SVGID_1_)"/><path d="M312.854,59.05H196.377c-7.289,0-13.197,5.908-13.197,13.198l0,0c0,7.289,5.908,13.197,13.197,13.197  h116.477c7.289,0,13.198-5.908,13.198-13.197l0,0C326.052,64.958,320.143,59.05,312.854,59.05z" fill="#FFCCE0"/><path d="M198.908,85.445c0,0,7.582,4.887,13.846,14.958h86.492c6.264-10.071,13.846-14.958,13.846-14.958H256  H198.908z" fill="#DB8DA5"/><path d="M384.15,333.04c0.521-9.888-0.088-19.542-1.703-28.852c-3.918-22.584-24.301-38.612-47.162-36.966  c-35.465,2.555-72.27,23.617-83.893,30.801c-2.79,1.724-5.632,3.374-8.594,4.781c-39.337,18.691-69.826,14.979-90.558,6.503  c-11.732-4.796-24.558,3.87-24.573,16.546v0.299c0,73.722,62.162,132.925,136.932,128.052  C328.913,450.013,380.758,397.401,384.15,333.04z" fill="#CC5697"/><path d="M186.041,206.189c0,0-35.918,7.771-43.749,52.925c-0.852,4.907,2.501,9.619,7.404,10.492  c7.724,1.376,20.066,1.479,34.174-6.28c6.333-3.482,11.892-8.19,16.729-13.561c5.931-6.581,13.164-16.51,14.123-26.594  c0.947-9.973-7.45-18.322-17.468-18.325C193.898,204.846,190.046,205.181,186.041,206.189z" fill="#FFFFFF"/><circle cx="182.974" cy="369.12" fill="#A03774" r="15.998"/><circle cx="244.055" cy="339.308" fill="#A03774" r="4.908"/><circle cx="282.23" cy="396.389" fill="#A03774" r="27.269"/><circle cx="332.041" cy="319.311" fill="#A03774" r="12.543"/></svg>