<?xml version="1.0" ?><!DOCTYPE svg  PUBLIC '-//W3C//DTD SVG 1.1//EN'  'http://www.w3.org/Graphics/SVG/1.1/DTD/svg11.dtd'><svg width="513px" height="513px" viewBox="0 -0.5 513 513" style="fill-rule:evenodd;clip-rule:evenodd;stroke-linejoin:round;stroke-miterlimit:2;" version="1.1" xml:space="preserve" xmlns="http://www.w3.org/2000/svg" xmlns:serif="http://www.serif.com/" xmlns:xlink="http://www.w3.org/1999/xlink"><g transform="matrix(1,0,0,1,-583,0)"><g id="pumpkins" transform="matrix(1.058,0,0,1,-1783.02,0)"><rect height="512" style="fill:none;" width="483.932" x="2237.05" y="0"/><g transform="matrix(2.59351,0.326871,-0.183092,1.62612,-1329.85,-2783.2)"><path d="M1608.5,1439.36C1636.65,1443.54 1635.19,1467.57 1644.83,1490.41C1658.98,1523.94 1646.04,1539.87 1643.89,1542.63C1635.24,1571.79 1668.29,1622.5 1667.88,1626.6C1668.22,1641.44 1603.91,1630.21 1603.91,1630.21C1601.24,1642.86 1520.02,1669.7 1509.19,1658.52C1498.36,1646.48 1501.64,1630.44 1504.67,1615.88C1504.67,1615.88 1528.62,1552.93 1527.41,1550.2C1527.41,1550.2 1501.51,1511.76 1509.98,1480.79C1515.98,1458.83 1574.69,1434.34 1608.5,1439.36Z" style="fill:rgb(244,213,134);"/></g><g id="shadow" transform="matrix(0.94518,0,0,1,2236.25,-2450.39)"><path d="M145.72,2830.38C148.843,2830.4 151.966,2830.42 155.089,2830.44C155.089,2830.44 158.774,2830.6 161.462,2830.74L162.778,2830.82C165.51,2831.05 168.144,2828.14 170.875,2828.39C177.041,2828.97 183.308,2832.95 189.478,2833.69C189.478,2833.69 193.351,2834.13 197.016,2834.55C205.304,2835.51 213.59,2836.43 221.88,2837.22L221.983,2837.23C225.303,2837.44 228.623,2837.66 231.942,2837.88L232.755,2837.93C240.07,2838.25 247.389,2838.57 254.712,2838.86L258.208,2839.01C267.154,2839.33 276.104,2839.66 285.056,2840L292.47,2840.28C341.63,2841.96 390.511,2844.2 439.697,2842.52C450.264,2842.16 448.761,2849.08 459.167,2847.71C461.731,2847.37 475.576,2848.65 475.576,2848.65C482.578,2849.64 478.084,2854.89 474.671,2854.98C423.797,2859.72 371.025,2854.55 319.424,2851.54C311.164,2851.06 302.903,2850.56 294.643,2850.07L292.018,2849.91C281.136,2849.3 270.253,2848.7 259.37,2848.1L257.801,2848.02C249.9,2847.63 242.005,2847.26 234.092,2846.95L232.384,2846.88C229.596,2846.83 226.807,2846.79 224.018,2846.75L221.61,2846.71C218.236,2846.77 214.862,2846.83 211.489,2846.89L210.743,2846.9C197.436,2847.52 184.136,2848.26 170.875,2849.25C170.875,2849.25 168.016,2849.42 166.024,2849.54C164.562,2849.63 162.529,2849.75 162.529,2849.75C159.547,2849.84 155.562,2849.96 155.562,2849.96C147.284,2849.88 139.003,2849.79 130.734,2849.7C130.734,2849.7 127.365,2849.64 124.984,2849.6C116.107,2849.44 107.214,2849.33 98.324,2849.26C98.324,2849.26 94.157,2849.21 91.081,2849.18C34.147,2848.52 39.043,2844.48 39.287,2842.7C39.728,2839.48 46.053,2837.72 48.357,2837.62C75.745,2836.37 102.703,2831.24 130.327,2830.56C134.435,2830.46 138.543,2830.44 142.652,2830.4L144.575,2830.38C144.957,2830.38 145.338,2830.38 145.72,2830.38Z" style="fill:rgb(80,0,0);"/></g><g id="orange" transform="matrix(0.512078,0,0,0.535528,2030.82,-511.422)"><g><g transform="matrix(1,0,0,1,164.745,8.20406)"><path d="M891.045,1668.36C997.463,1637.66 1022.98,1441.05 955.64,1297.45C911.253,1202.79 801.654,1224.22 777.841,1229.18C746.486,1235.72 728.843,1218.73 697.43,1227.54C669.764,1235.3 639.176,1230.26 591.145,1256.12C516.333,1296.4 517.754,1354.83 512.768,1429.61C510.905,1457.56 461.811,1708.02 672.535,1676.83C735.01,1667.59 744.444,1686.3 767.387,1681.41C775.631,1679.66 825.42,1684.13 859.721,1680.72C875.312,1679.16 885.675,1669.91 891.045,1668.36Z" style="fill:rgb(238,115,50);"/></g><g id="shadiong" transform="matrix(1.84577,0,0,1.86731,-2834.76,-191.655)"><path d="M2002.59,764.946L2047.41,765.301L2079.11,760.426C2098.81,756.663 2125.53,780.932 2124.84,780.792C2110.49,777.878 2089.15,769.354 2076.92,769.24C2064.69,769.127 2061.57,777.423 2053.02,777.302C2033.64,777.028 2024.23,774.58 2007.97,778.678C1975.15,786.948 1966.25,815.4 1962.67,824.28C1907.11,962.055 1991.09,1003.84 1977.53,1006.44C1947.22,1012.24 1926.2,992.823 1915.83,982.075C1895.35,960.854 1900.68,928.689 1902.08,875.025C1904.3,790.236 1925.19,781.894 1978.8,769.24C1985.51,767.656 1993.78,766.212 2002.59,764.946Z" style="fill:rgb(178,85,36);"/></g><g transform="matrix(1,0,0,1,235.441,28.7639)"><path d="M603.49,1240.27C585.206,1240.27 639.063,1214.6 634.324,1186.16C632.008,1172.27 616.009,1143.73 616.164,1143.11C617.367,1138.34 637.173,1125.3 646.89,1126.55C651.096,1127.08 698.25,1202.03 701.964,1209.46C702.632,1210.8 725.23,1229.27 724.396,1229.61C712.711,1234.44 684.789,1230.51 648.158,1238.51C623.027,1243.99 603.49,1240.27 603.49,1240.27Z" style="fill:rgb(150,0,0);"/></g><g transform="matrix(1.5415,0,0,1.5415,-419.041,1040.36)"><path d="M869.428,150.723C879.532,162.26 881.588,179.886 883.996,196.053C886.402,212.197 887.598,228.475 888.367,244.747C888.921,254.794 890.741,264.736 892.271,274.719L892.484,276.105C893.004,279.989 893.529,283.872 894.037,287.757C896.669,307.928 896.982,327.738 894.2,349.657C889.424,387.274 874.418,413.639 874.418,413.639C871.754,415.352 864.597,421.029 865.105,415.577C865.38,412.628 869.236,406.688 870.468,403.679C880.563,379.021 882.957,351.472 883.352,324.652C883.574,309.579 880.816,294.589 878.901,279.413L878.715,277.934C877.246,264.112 876.216,250.154 876.747,235.468C877.572,211.522 878.774,186.633 873.352,163.849C872.323,159.525 871.021,155.209 868.634,151.528C868.634,151.528 867.869,150.507 869.428,150.723Z" style="fill:rgb(249,165,120);"/></g><g transform="matrix(1.5415,0,0,1.5415,-420.344,1041.65)"><path d="M987.833,160.984C987.833,160.984 1013.25,194.403 1022.53,253.766C1023.89,262.47 1023.02,271.341 1022.55,280.103L1022.54,280.365C1020.17,312.92 1016.75,342.765 1001.93,374.825C1000.26,378.447 985.551,395.684 985.551,395.684C993.768,373.195 1004.86,342.116 1008.6,317.927C1009.59,311.525 1010.39,305.038 1010.99,298.454C1013.48,271.219 1013.43,244.185 1007.58,216.089C1003.79,197.865 995.73,178.349 987.833,160.984Z" style="fill:rgb(249,165,120);"/></g><g transform="matrix(1.5415,0,0,1.5415,-419.041,1040.36)"><path d="M900.785,141.305C924.92,143.27 947.115,156.561 961.65,178.105C976.537,200.17 984.968,227.464 984.699,251.922C984.281,290.037 975.944,327.027 968.537,349.873C964.693,361.73 948.189,398.784 940.681,414.722C937.4,421.686 936.778,416.555 936.857,416.349C954.107,371.288 979.506,295.935 977.625,252.787C976.843,222.616 966.304,205.379 948.447,179.498C937.285,163.322 927.426,148.235 907.638,145.224C903.587,144.412 896.918,140.645 900.785,141.305Z" style="fill:rgb(249,165,120);"/></g></g><g transform="matrix(1.84577,0,0,1.86731,-665.911,918.591)"><g id="strokes"><path d="M828.146,166.148C828.286,165.826 828.418,165.499 828.542,165.169C830.777,159.184 826.786,152.156 823.622,145.926C822.122,142.973 820.326,140.16 819.012,137.123C818.275,135.421 819.928,131.814 823.645,129.317C827.638,126.635 832.374,124.636 836.955,124.727C841.729,124.898 844.709,130.83 848.05,135.621C854.807,145.31 861.23,155.145 867.326,165.283C868.255,165.18 870.892,170.097 871.814,169.936C880.575,168.404 886.644,163.981 895.719,163.982C924.67,164.086 952.679,175.961 967.549,204.554C993.691,254.821 1002.08,317.886 979.637,367.672C970.925,386.995 956.249,404.726 934.335,411.202C934.335,411.202 924.322,417.144 915.399,417.777C899.747,418.888 884.013,416.796 868.163,417.025C866.739,417.046 866.43,417.145 865.975,417.224C856.821,418.741 847.992,414.138 838.037,413.179C823.905,411.817 809.758,415.436 795.447,415.261C772.972,414.988 750.481,406.618 737.243,386.9C724.151,367.4 721.288,342.988 721.409,320.231C721.488,305.443 723.963,290.627 724.915,275.989C726.489,251.312 726.877,225.207 741.13,205.356C754.955,186.102 778.755,174.805 801.765,170.663C810.572,169.078 819.547,168.235 828.146,166.148ZM928.265,401.878C929.286,401.318 930.258,400.904 930.258,400.904C932.128,400.159 932.986,400.131 934.274,399.684C955.21,392.409 972.221,372.881 978.834,352.852C989.044,321.927 985.376,285.819 978.691,253.691C975.346,237.617 970.387,221.746 963.05,207.132C954.4,189.902 938.071,177.143 919.095,172.391C911.265,170.43 903.271,169.621 895.098,169.634C887.348,169.671 881.719,171.749 874.091,172.698C876.726,175.519 879.489,176.484 882.446,179.203C883.236,179.937 882.905,180.906 882.081,182.659C882.081,182.659 881.441,183.32 880.46,183.624C874.36,185.516 867.56,184.645 861.072,184.66C853.288,184.693 845.32,188.583 837.597,189.469C830.112,190.328 822.87,188.169 815.417,189.088C813.559,189.153 812.709,189.14 812.253,188.637C777.028,203.433 760.372,247.101 756.78,279.238C751.937,322.556 759.476,368.452 783.174,407.572C793.648,408.928 804.741,408.296 815.48,406.685C826.348,405.083 837.508,404.605 848.285,406.741C851.108,407.3 853.439,407.761 856.241,408.273L857.087,407.244C871.609,389.712 879.834,367.219 881.069,343.007C881.538,333.812 880.762,324.626 879.334,315.669C877.461,303.924 874.207,292.679 871.339,281.215C871.339,281.215 869.819,275.077 869.375,271.067C868.113,259.648 870.835,246.865 869.227,231.401C867.687,216.587 864.807,201.971 857.967,188.236C857.054,187.274 858.109,185.985 859.578,187.195C869.762,203.216 874.589,222.651 876.394,242.126C877.166,250.462 876.952,258.726 876.254,267.198C875.897,271.996 877.071,276.728 877.837,281.573C880.025,295.244 882.238,309.229 883.041,322.642C883.193,325.183 883.348,327.719 883.453,330.258C884.566,357.286 880.191,384.767 863.853,408.91C864.214,408.856 878.039,408.384 887.44,408.445C897.002,408.494 906.705,408.79 916.07,407.246C917.369,407.031 918.626,406.664 919.854,406.197C920.552,404.205 922.299,399.275 923.696,395.79C935.272,366.734 944.932,336.374 949.491,310.469C954.698,280.891 954.914,249.57 939.395,221.037C937.707,217.932 935.843,214.923 933.807,212.034C925.79,200.658 915.249,190.505 902.334,185.623C897.14,183.66 891.436,183.34 885.741,182.837C884.14,182.87 883.918,181.138 885.855,181.121C893.695,181.496 901.464,182.187 908.499,185.565C929.981,195.878 945.39,217.356 952.718,240.035C963.184,272.426 958.855,309.465 950.197,339.472C948.16,346.534 945.651,353.5 943.004,360.399C943.004,360.399 939.502,368.927 937.701,373.017C937.701,373.017 928.739,391.581 923.841,400.444C923.841,400.444 921.907,404.201 920.933,405.869C923.523,404.776 925.792,403.258 928.265,401.878ZM822.237,174.671C813.312,176.287 804.227,176.756 795.407,178.939C772.536,184.598 750.217,197.803 740.412,219.222C732.073,237.436 732.311,258.637 730.87,278.47C730.852,278.692 730.833,278.913 730.812,279.135C728.144,306.302 724.432,333.586 732.457,361.479C736.447,375.349 743.79,388.749 755.692,397.357C762.252,402.102 769.756,405.047 777.74,406.673C754.959,367.73 746.2,320.475 750.253,277.521C751.888,260.187 755.511,243.075 765.984,224.728C766.736,223.425 769.332,219.353 770.325,217.93C780.31,203.616 794.637,192.369 811.709,186.997C811.373,184.26 814.221,182.671 816.149,180.776C818.184,178.776 820.299,176.775 822.237,174.671ZM843.609,136.347C840.845,139.294 831.377,141.936 827.091,141.385C827.469,142.204 828.452,146.028 828.784,146.781C831.672,153.336 836.394,157.854 834.243,164.858C831.323,174.365 821.479,180.025 815.418,186.205L815.4,186.223C824.944,185.09 828.058,186.917 837.597,186.053C844.544,185.424 857.905,181.913 864.893,181.927C869.274,181.936 873.74,182.118 877.987,181.278C877.987,181.278 868.536,174.546 866.932,171.838C859.72,159.943 852.034,146.25 843.609,136.347ZM840.16,157.25C840.16,157.25 842.781,167.231 842.466,170.412C842.11,174.019 840.268,177.452 837.492,179.813C835.978,181.399 834.081,179.935 835.797,178.137C840.848,172.921 840.07,164.394 839.612,158.415C839.555,157.542 840.223,156.956 840.16,157.25ZM840.252,147.594C841.494,150.264 848.825,158.651 852.974,164.141C854.661,166.372 856.203,168.723 857.972,170.867C858.639,171.675 858.525,172.531 857.91,171.937C857.91,171.937 852.949,167.649 850.376,164.645C850.376,164.645 841.612,153.619 839.907,147.807C839.907,147.807 839.737,147.348 840.252,147.594ZM841.415,134.978C843.011,133.137 839.441,128.047 837.526,128.938C833.886,129.176 820.127,133.848 822.833,137.067C823.849,138.277 827.476,136.934 830.527,137.397C833.186,137.8 835.973,137.494 838.382,136.34C838.382,136.34 840.923,135.483 841.415,134.978Z" style="fill:rgb(80,0,0);"/></g></g></g><g id="yellow" transform="matrix(0.278161,0,0,0.203063,2369.24,59.1398)"><g><g transform="matrix(1,0,0,1,164.745,8.20406)"><path d="M891.045,1668.36C997.463,1637.66 1022.98,1441.05 955.64,1297.45C911.253,1202.79 803.568,1219.46 779.756,1224.42C748.4,1230.96 728.843,1218.73 697.43,1227.54C669.764,1235.3 639.176,1230.26 591.145,1256.12C516.333,1296.4 517.754,1354.83 512.768,1429.61C510.905,1457.56 461.811,1708.02 672.535,1676.83C735.01,1667.59 744.444,1686.3 767.387,1681.41C775.631,1679.66 825.42,1684.13 859.721,1680.72C875.312,1679.16 885.675,1669.91 891.045,1668.36Z" style="fill:rgb(238,184,50);"/></g><g transform="matrix(1,0,0,1,235.441,28.7639)"><path d="M603.49,1240.27C585.206,1240.27 639.063,1214.6 634.324,1186.16C632.008,1172.27 616.397,1143.67 616.164,1143.11C613.217,1136.02 636.757,1123.86 646.473,1125.1C650.679,1125.64 698.25,1202.03 701.964,1209.46C702.632,1210.8 725.23,1229.27 724.396,1229.61C712.711,1234.44 696.453,1227.43 665.662,1231.24C661.969,1231.69 648.426,1239.81 644.764,1240.27C637.897,1241.11 631.233,1238.5 625.335,1238.53C612.64,1238.59 603.49,1240.27 603.49,1240.27Z" style="fill:rgb(150,0,0);"/></g><g id="shading" transform="matrix(3.39796,0,0,4.92458,-6533.75,-3417.19)"><path d="M2177.58,944.421L2168.5,952.127C2157.69,957.383 2155.7,959.294 2152.11,965.502C2121.93,1017.74 2188.61,1034.25 2182.39,1035.67C2178.74,1036.51 2170.53,1034.97 2162.67,1037.23C2152.17,1040.25 2137.7,1035.67 2130.05,1028.28C2112.58,1011.4 2123.48,1001.99 2121.8,986.782C2120.28,973.011 2128.57,962.804 2131.64,958.293C2135.71,952.299 2139.47,951.681 2156.86,947.042C2165.31,944.788 2170.42,945.596 2177.58,944.421ZM2197.34,943.794C2241.72,941.467 2252.04,959.209 2243.02,953.276C2234.01,947.354 2222.11,947.788 2210.42,949.72C2210.21,949.753 2204.94,949.569 2204.75,949.631L2197.34,943.794Z" style="fill:rgb(87,62,1);fill-opacity:0.32;"/></g><g transform="matrix(3.39796,0,0,4.92458,-6533.75,-3417.19)"><path d="M2194.33,1034.78C2194.2,1034.9 2223.45,1034.96 2227.73,1028.2C2235.42,1016.06 2241.04,1001.19 2241.77,992.818C2242.76,981.39 2240.31,971.463 2231.49,961.593C2226.11,955.564 2208.47,949.741 2208.47,949.741C2208.47,949.741 2207.83,949.693 2208.96,949.741C2217.93,950.121 2230.08,955.638 2236.58,961.881C2244.21,969.212 2245.39,976.45 2245.43,987.19L2245.43,987.401C2245.07,1003.7 2238.15,1019.82 2228.1,1032.93C2241.36,1024.74 2255.94,1012.76 2258.1,999.131C2260.31,985.208 2258.7,968.161 2247.81,957.12C2247.81,957.12 2247.72,955.546 2247.72,955.546C2247.72,955.546 2249.16,955.368 2249.3,955.493C2261.84,966.309 2265.45,985.966 2263.2,998.059C2261.28,1008.38 2256.32,1018.04 2250.14,1026.56L2221.94,1036.53C2214.74,1037.27 2203,1035.41 2194.42,1035.45C2188.36,1038.92 2174.66,1036.45 2175.26,1035.32C2176.19,1033.59 2188.31,1035.2 2195.03,1029.55C2200.93,1024.59 2201.62,1012.69 2201.24,1006.37C2201.02,1002.8 2200.11,999.309 2199.42,995.791L2199.38,995.62C2198.58,991.074 2197.13,985.924 2197.16,981.451C2197.3,973.026 2197.5,962.607 2194.66,954.668C2194,952.826 2193.78,951.717 2193.92,951.829C2198.84,955.803 2199.97,964.042 2200.88,969.95C2201.87,976.347 2201.64,986.401 2202.75,992.62C2203.76,998.227 2206.12,999.989 2206.61,1005.87C2207.16,1012.37 2198.01,1031.19 2194.33,1034.78Z" style="fill:rgb(255,219,128);"/></g></g><g transform="matrix(3.39796,0,0,4.92458,-2442.55,-387.22)"><path d="M973.046,327.921C973.217,327.599 973.362,327.258 973.478,326.897C974.363,324.15 970.631,321.04 968.218,317.597C967.447,316.454 967.913,316.03 968.215,315.585C970.012,312.93 974.629,312.092 977.473,312.124C981.627,312.216 984.71,317.608 987.834,320.917C989.894,323.098 991.976,325.171 993.895,327.454C995.011,327.366 996.14,327.246 997.284,327.086C1001.71,326.491 1006.13,326.221 1010.59,326.241C1025.15,326.382 1040.54,329.313 1049.72,341.909C1063.5,360.799 1067.14,388.261 1052.97,407.239C1047.47,414.608 1039.17,419.714 1030.08,421.609C1030.08,421.609 1023.53,423.86 1020,424.024C1010.96,424.391 1001.64,422.754 992.905,423.706C988.283,424.164 983.786,422.579 979.092,422.165C967.155,421.11 955.361,424.134 942.839,421.754C932.099,419.714 921.167,414.263 917.06,403.661C912.344,391.486 914.969,375.875 916.19,363.628C917.039,355.305 919.016,346.5 925.51,340.91C936.119,331.78 944.303,328.506 960.883,329.145C962.253,329.006 970.15,327.755 972.535,328.545M1024.94,418.041C1026.68,417.392 1028.51,416.645 1028.51,416.645C1029.3,416.404 1029.34,416.485 1029.72,416.406C1039.47,414.327 1048.03,407.713 1052.57,398.834C1061.15,382.064 1057.59,359.919 1046.44,344.279C1046.06,343.739 1043.71,340.996 1042.88,340.217C1033.79,331.726 1020.53,329.855 1008.86,329.864C1006.12,329.879 1003.38,330.004 1000.66,330.256C999.507,330.362 998.357,330.427 997.206,330.462C998.557,331.305 1000.39,332.485 1001.66,333.441C1001.66,333.441 1002.6,334.622 1001.33,334.933C995.01,336.4 989.185,335.38 982.188,335.956C981.43,336.641 979.25,336.815 977.473,336.989C974.654,337.236 973.481,336.319 970.662,336.565L965.77,336.989C965.243,337.007 964.414,336.942 963.978,336.641C960.748,337.935 953.901,340.834 950.072,343.586C948.769,344.524 947.523,345.542 946.35,346.637C927.29,364.432 930.402,398.772 948.208,419.52C954.82,420.077 961.548,419.527 967.589,418.971C974.172,418.389 988.004,419.927 988.004,419.927C990.836,417.567 996.621,410.276 998.986,404.769C1004.02,393.039 998.561,379.993 995.732,369.652C993.449,361.308 996.981,352.511 991.58,341.179C990.831,339.606 990.007,338.065 989.004,336.642C989.004,336.642 988.435,335.916 989.673,336.039C997.2,344.258 999.701,356.782 998.559,366.62C997.958,373.056 1001.75,379.449 1002.45,387.643C1003.43,398.977 1000.03,410.792 991.016,419.947C993.221,419.92 995.437,419.66 997.755,419.66C1006.1,419.661 1014.79,420.978 1022.78,418.739C1024.06,416.469 1027.72,409.873 1029.95,405.482C1037.53,390.524 1044.32,374.21 1038.23,358.039C1033.62,345.795 1021.31,336.332 1008.73,334.979C1006.76,334.768 1003.94,334.565 1003.94,334.565L1003.55,334.144C1003.55,334.144 1003.84,333.757 1004.22,333.766C1021.17,334.229 1038.06,344.618 1042.38,362.157C1047.2,381.681 1034.8,403.517 1027.18,413.72C1025.95,415.364 1024.99,416.913 1023.69,418.498C1024.21,418.34 1024.42,418.232 1024.94,418.041M969.081,331.766C963.992,332.392 958.81,332.571 953.721,333.52C941.404,335.816 928.272,339.977 923.068,351.645C919.82,358.927 920.265,367.236 918.948,374.884C916.52,389.226 917.998,404.437 931.258,412.927C935.731,415.791 939.935,418.437 945.102,419.171C930.858,401.689 924.7,376.898 934.461,357.079C939.993,345.848 951.472,338.455 963.717,335.956C963.801,335.652 964.085,335.265 964.664,334.771C965.969,333.659 967.578,332.755 969.081,331.766M980.049,317.519C979.464,317.945 978.724,318.211 978.307,318.372C976.828,318.944 973.049,318.526 971.458,318.46C973.066,320.981 976.985,325.822 975.435,328.497C973.513,331.816 969.522,333.54 966.161,335.589L966.11,335.621C969.626,335.331 970.976,335.49 975.435,335.589C979.238,335.673 981.235,334.553 985.04,334.144C988.464,333.775 994.905,334.133 998.347,333.881C998.659,333.858 998.97,333.824 999.28,333.787C992.013,329.702 986.959,321.284 981.241,316.39M979.558,324.701C980.308,325.639 981.986,329.662 980.377,331.965C979.638,333.023 977.949,334.033 977.949,334.033C975.527,334.594 974.982,334 976.647,332.045C978.759,330.206 978.791,327.443 978.715,325.226C978.709,324.682 979.352,324.442 979.558,324.701M979.053,321.378C977.747,319.143 981.053,321.906 982.77,323.861C984.549,325.887 984.831,325.421 987.023,327.065C989.042,328.579 989.279,330.376 989.279,330.376C989.279,330.376 988.978,331.116 986.908,329.801C986.908,329.801 985.128,328.683 985.04,328.62C982.415,326.76 980.022,323.896 979.053,321.378M974.337,317.822C975.764,317.92 979.462,316.586 979.462,316.586C981.116,314.965 979.529,312.608 977.468,313.792C975.687,313.824 968.41,315.175 969.902,316.668C970.382,316.774 974.094,317.805 974.337,317.822Z" style="fill:rgb(80,0,0);"/></g></g><g id="pink" transform="matrix(0.278161,0,0,0.379129,2089.23,-245.677)"><g><g transform="matrix(1,0,0,1,164.745,8.20406)"><path d="M891.045,1668.36C997.463,1637.66 1022.98,1441.05 955.64,1297.45C911.253,1202.79 803.568,1219.46 779.756,1224.42C748.4,1230.96 728.843,1218.73 697.43,1227.54C669.764,1235.3 639.176,1230.26 591.145,1256.12C516.333,1296.4 517.754,1354.83 512.768,1429.61C510.905,1457.56 461.811,1708.02 672.535,1676.83C735.01,1667.59 744.444,1686.3 767.387,1681.41C775.631,1679.66 825.42,1684.13 859.721,1680.72C875.312,1679.16 885.675,1669.91 891.045,1668.36Z" style="fill:rgb(235,153,110);"/></g><g transform="matrix(-1,0,0,1,1559.55,28.7639)"><path d="M592.36,1229.62C574.076,1229.62 639.063,1214.6 634.324,1186.16C632.008,1172.27 613.614,1140.89 613.769,1140.28C614.973,1135.5 640.977,1126.85 650.694,1128.1C654.899,1128.63 698.25,1202.03 701.964,1209.46C702.632,1210.8 725.23,1229.27 724.396,1229.61C712.711,1234.44 686.631,1230.02 655.84,1233.83C630.321,1236.98 592.36,1229.62 592.36,1229.62Z" style="fill:rgb(150,0,0);"/></g><g id="shading1" transform="matrix(3.39796,0,0,2.63762,-5428.64,-971.654)"><path d="M1850.31,837.656L1849.36,839.415L1844.02,844.614C1844.61,846.523 1846.05,846.813 1847.93,846.368C1847.3,846.84 1845.53,848.457 1844.89,849.017C1826.1,865.442 1825.05,877.711 1822.13,890.09C1800.24,982.883 1870.59,1004.12 1863.41,1007.84C1857.17,1011.08 1831.46,1009.25 1824.96,1007.73C1810.54,1004.36 1793.23,991.137 1795.77,951.48C1798.68,905.941 1790.65,873.399 1815.25,851.188C1825.78,841.683 1839.83,838.761 1850.31,837.656ZM1872.17,836.34C1885.83,835.499 1897.89,834.998 1897.89,834.998C1901.79,836.769 1916.38,833.335 1924.62,854.51C1928.92,865.584 1918.08,851.355 1904.84,844.614C1897.21,840.726 1888.55,842.011 1884.86,844.643C1884.64,844.796 1884.43,844.937 1884.21,845.067C1883.19,844.422 1881.94,843.655 1881.36,843.373C1880.68,843.048 1874.78,839.497 1872.17,836.34Z" style="fill:rgb(176,109,74);"/></g><g transform="matrix(1.5415,0,9.43124e-17,1.5415,-419.041,1040.36)"><path d="M871.952,159.206C870.973,156.034 869.361,150.589 869.941,151.28C880.71,164.485 882.277,181.924 884.663,197.206C887.756,217.009 884.844,237.265 886.555,257.629C887.132,264.495 891.789,271.165 892.604,278.113C895.998,306.588 900.848,326.823 893.294,357.946C888.864,376.202 883.127,401.804 867.95,414.304C867.95,414.304 867.018,404.296 876.1,388.456C900.565,345.786 875.911,294.934 875.438,255.481C875.047,222.823 881.435,189.924 871.952,159.206Z" style="fill:rgb(255,198,168);"/></g><g transform="matrix(1.5415,0,9.43124e-17,1.5415,-420.344,1041.65)"><path d="M993.413,161.174C1013.8,186.33 1020.85,218.465 1023.09,246.431C1023.49,251.532 1023.7,256.64 1023.78,261.751L1023.78,262.404C1023.77,265.742 1023.69,269.079 1023.54,272.414C1023.32,277.42 1022.84,282.411 1022.22,287.391C1018.21,319.663 1006.72,351.322 991.484,381.333L990.449,382.42C990.449,382.42 995.016,368.178 998.286,356.686C1005.78,330.359 1010.27,304.191 1011.32,276.916C1011.51,273.764 1011.62,270.613 1011.67,267.459C1012.27,232.587 1008.67,196.755 988.903,165.426C988.476,164.749 987.803,163.757 987.803,163.757L987.505,161.834C987.505,161.834 988.975,160.293 988.975,160.293L991.395,160.044C992.068,160.421 992.741,160.798 993.413,161.174Z" style="fill:rgb(255,198,168);"/></g><g transform="matrix(1.5415,0,9.43124e-17,1.5415,-419.041,1040.36)"><path d="M905.01,140.021C941.864,144.661 970.274,181.778 977.438,207.679C983.013,227.834 982.957,245.747 983.46,266.257C984.649,314.653 971.085,353.144 946.448,402.037C944.023,406.847 939.936,413.837 941.153,410.302C966.053,337.979 986.905,257.755 967.822,204.54C950.299,155.67 901.666,140.41 901.666,140.41C902.78,140.278 903.912,139.821 905.01,140.021Z" style="fill:rgb(255,198,168);"/></g></g><g id="strokes1"><g transform="matrix(-1,0,0,1,1841.48,-55.2365)"><path d="M930.516,1247.06C932.82,1258.21 940.19,1268.59 947.753,1278.02C947.753,1278.02 958.204,1288.98 962.392,1292.28C964.115,1294.14 966.562,1291.95 965.139,1290.31C961.687,1285.52 958.823,1280.41 955.262,1275.6C955.262,1275.6 943.472,1261.69 938.173,1255.39C934.306,1250.79 931.784,1245.13 930.516,1247.06Z" style="fill:rgb(80,0,0);"/></g><g transform="matrix(-1,0,0,1,1841.48,-55.2365)"><path d="M928.773,1267.49C928.983,1275.25 930.082,1280.17 928.038,1288.61C927.472,1290.94 926.383,1298.24 921.759,1303.33C917.729,1306.27 923.858,1310.37 927.888,1307.44C933.362,1302.91 936.886,1297.05 937.739,1290.74C938.838,1282.61 931.393,1264.49 931.393,1264.49C931.097,1263.6 929.005,1262.97 928.773,1267.49Z" style="fill:rgb(80,0,0);"/></g><g transform="matrix(3.39796,0,0,2.63762,-1435.91,596.595)"><path d="M674.449,241.206C675.857,238.15 684.795,217.069 688.045,212.515C691.256,208.016 704.107,213.934 702.207,219.088C700.017,225.029 695.217,231.141 696.753,237.511C696.903,238.133 697.112,238.721 697.37,239.281C698.493,239.185 699.609,239.013 700.718,238.73C704.956,237.671 709.34,237.152 713.684,237.159C725.309,237.229 736.899,241.869 744.702,250.637C751.003,257.717 754.578,266.779 757.413,275.836C768.376,310.859 770.744,350.205 758.793,383.256C758.171,384.973 753.93,394.147 753.374,395.113C749.043,402.64 742.863,409.497 734.535,412.689C734.535,412.689 729.108,416.951 723.983,417.456C715.65,418.276 707.278,417.134 698.899,417.057C697.223,417.041 697.029,417.225 697.029,417.225C691.357,418.34 686.571,415.841 680.188,415.485C671.31,414.99 662.312,416.796 653.197,415.485C645.325,414.353 636.63,412.303 631.248,406.187C621.96,395.633 618.65,382.171 617.37,368.101C616.035,353.421 616.157,337.1 617.514,322.435C618.619,310.49 617.664,276.911 630.91,260.483C638.787,250.715 652.84,244.865 664.835,242.588C668.266,241.936 671.08,242.257 674.449,241.206ZM652.736,410.881C660.21,411.773 668.136,409.995 674.997,409.364C680.709,408.839 686.358,410.011 692.033,411.568C693.739,412.026 696.308,411.672 696.308,411.672C700.519,410.688 705.078,411.506 709.697,411.551C715.962,411.597 722.904,412.509 728.032,408.855C728.917,408.224 729.474,407.711 730.608,406.942L731.983,406.233C742.764,402.267 749.186,390.806 753.087,380.041C763.271,351.933 762.179,320.153 755.981,291.283C754.977,286.602 753.791,281.959 752.408,277.375C748.691,265.057 743.025,252.609 731.608,246.318C725.923,243.186 719.386,241.815 712.831,241.837C708.728,241.868 704.657,242.472 700.661,243.466C700.661,243.466 708.368,249.384 708.402,249.417C725.05,250.908 737.498,268.508 743.033,286.649C749.921,309.225 748.664,333.665 743.92,357.332C742.617,363.833 738.893,376.889 738.8,377.183C737.115,382.502 733.135,393.379 733.135,393.379C732.094,396.013 731.021,398.634 729.921,401.244C728.834,403.825 727.699,406.392 726.533,408.939C726.278,409.718 725.734,409.582 725.959,408.895C739.804,362.82 752.459,313.775 736.341,276.404C732.416,267.304 726.742,258.509 718.458,253.337C715.694,251.612 712.359,251.006 709.046,250.603C709.112,251.1 708.89,251.573 708.088,251.76C708.088,251.76 693.437,253.638 693.63,253.698C702.213,271.194 704.246,291.638 702.88,310.246C702.258,320.411 705.196,330.77 705.917,341.694C707.114,359.829 707.46,377.919 701.199,396.049C699.598,400.685 697.359,405.634 695.014,409.944C691.92,414.061 690.661,409.678 693.247,405.355C700.891,392.573 704.242,378.256 704.98,363.017C705.313,356.133 704.87,349.239 703.941,342.318C702.893,334.509 701.009,326.67 699.452,318.754C699.401,318.492 699.402,318.493 699.355,318.23C697.401,307.099 699.936,294.152 697.702,276.888C696.712,269.237 695.348,261.657 692.616,254.415C692.405,253.973 692.421,253.643 692.814,253.498C690.776,253.486 688.75,253.362 686.751,253.115C680.281,252.345 672.935,254.541 667.889,251.667C667.456,251.42 667.202,251.266 667.458,250.951C667.458,250.951 669.537,248.525 671.698,245.791C667.614,246.605 663.409,247.051 659.377,248.301C645.009,252.76 632.993,264.409 628.48,278.924C623.71,294.267 624.642,310.934 623.201,326.66C621.469,345.89 620.683,365.558 626.326,384.139C629.548,394.744 635.614,405.168 646.427,409.356C647.458,409.755 648.509,410.075 649.574,410.327C640.935,391.553 636.621,370.391 634.595,351.382C631.486,322.219 632.544,291.679 649.479,268.287C654.338,261.575 660.958,256.009 668.712,253.056C669.371,252.766 669.88,253.639 669.079,253.925C646.889,264.223 640.953,296.14 639.123,308.827C634.878,338.265 637.25,368.756 647.427,397.85C648.976,402.28 650.73,406.638 652.736,410.881ZM687.817,219.13C682.729,226.733 679.883,235.319 676.023,243.532C675.77,244.082 676.095,243.665 675.269,244.586C673.476,246.582 671.564,248.484 669.788,250.506C675.706,252.138 682.222,250.714 689.011,251.704C694.566,252.464 700.338,251.514 705.946,250.282C705.946,250.282 694.39,244.482 694.413,235.517C694.427,230.323 697.383,224.397 699.334,219.345C699.019,219.536 696.578,220.245 696.241,220.395C694.077,221.362 689.422,220.851 687.817,219.13ZM696.895,217.515C704.066,216.938 693.683,213.586 691.894,213.207C691.868,213.243 688.486,215.125 688.695,215.799C688.201,216.495 691.671,216.625 691.185,217.329C692.561,218.78 695.16,218.498 696.895,217.515Z" style="fill:rgb(80,0,0);"/></g></g></g><g id="vines" transform="matrix(1,0,0,1,0.899797,-20.0811)"><g transform="matrix(0.94518,0,0,1,1685.27,0)"><path d="M767.111,260.606C758.609,259.123 750.325,254.093 743.084,248.728C731.169,239.9 719.382,226.494 724.604,212.865C727.803,204.518 736.623,198.883 745.411,195.941C745.411,195.941 741.958,185.401 741.14,177.479C740.26,168.956 740.356,160.058 744.034,152.212C746.68,146.567 752.735,141.874 759.366,143.358C765.854,144.81 770.542,150.558 775.159,154.411C790.29,167.038 813.247,166.687 830.579,170.086L831.068,170.72C831.068,170.72 830.564,171.2 829.671,171.118C819.162,170.216 808.472,170.932 797.995,169.34C786.614,167.611 775.817,163.052 766.836,155.277C763.349,152.288 758.925,148.902 755.096,150.544C751.109,152.253 750.355,157.223 749.772,160.793C747.934,172.058 750.668,184.03 754.583,193.806C754.583,193.806 757.639,193.753 759.852,193.772C774.255,193.967 789.451,199.497 798.142,210.633C802.047,215.636 803.796,223.063 798.242,227.971C792.88,232.711 784.624,233.314 778.44,232.766C768.45,231.882 761.296,221.934 755.049,213.714C752.437,210.278 750.179,206.576 748.307,202.698C740.068,204.935 731.209,210.245 729.954,217.657C728.876,224.022 732.633,230.058 736.359,234.777C744.414,244.98 755.857,252.993 768.003,255.994C771.021,256.74 774.02,256.841 777.145,256.674C780.85,256.568 786.443,257.815 784.169,263C784.169,263 782.315,265.681 780.318,265C778.842,264.496 782,260 775.181,260.852C773.608,261.048 772.034,261.091 770.464,260.999C767.834,264.315 766.192,267.953 765.082,271.763L765.082,271.765C768.463,274.892 771.206,279.212 774.201,280.276C780.941,282.671 782.785,288.77 784.045,291.004C784.967,292.638 780.481,293.186 779.172,293.118C776.399,292.976 773.674,291.815 771.214,290.159C774.315,294.655 776.526,299.655 776.289,305.605C776.206,307.698 775.932,309.869 775.435,311.868C775.346,312.226 775.285,313.075 775.07,313.338C774.983,313.444 774.002,312.895 773.933,312.833C772.883,311.889 771.949,310.824 770.869,309.923C767.673,307.258 764.754,303.641 763.164,299.424C762.998,300.106 762.809,300.815 762.599,301.544C760.422,309.093 752.448,322.395 751.958,321.161C748.666,312.853 751.153,302.01 753.365,295.299C742.817,302.627 743.671,299.733 741.861,299.834C739.471,299.968 734.471,298.442 734.468,298.352C734.447,297.719 735.07,296.876 735.339,296.408C736.168,294.96 736.945,293.619 738.037,292.422C741.556,288.566 745.921,286.268 750.416,284.402C750.001,284.299 749.588,284.172 749.18,284.02C748.362,283.714 747.072,283.506 746.374,282.892C744.624,281.351 743.744,278.596 742.216,276.764C741.745,276.2 740.161,275.322 739.904,274.777C739.731,274.411 741.236,274.298 741.36,274.277C742.963,273.998 746.005,273.22 747.627,273.078C752.337,272.665 751.233,270.232 759.385,272.867C760.379,273.189 762.556,271.733 763.794,271.331L763.796,271.298C764.497,267.632 765.323,263.997 767.111,260.606ZM758.317,201.589C760.179,204.899 762.385,208.008 764.863,210.895C765.127,211.207 774.244,223.785 781.125,223.686C781.688,223.678 782.25,223.661 782.812,223.634C786.131,223.475 789.718,223.273 792.247,221.352C795.551,218.842 787.956,211.262 780.318,207.188C773.58,203.594 766.014,201.496 758.395,201.423C758.395,201.423 758.115,201.227 758.317,201.589Z" style="fill:rgb(80,0,0);"/></g><g transform="matrix(0.94518,0,0,1,1685.27,0)"><path d="M898.479,310.592C896.32,309.75 894.205,308.791 892.147,307.717C880.777,301.785 871.103,292.791 863.947,282.203C863.947,282.203 861.352,283.569 860.086,284.298L860.088,284.326C859.309,284.34 857.419,291.926 857.419,291.926L857.418,291.928C859.858,293.495 862.032,295.871 864.005,296.202C868.446,296.947 870.258,300.525 871.284,301.772C872.035,302.683 869.314,303.515 868.496,303.617C866.761,303.833 864.944,303.413 863.238,302.656C865.653,305.103 867.573,307.959 868.079,311.673C868.257,312.98 868.325,314.355 868.236,315.649C868.221,315.881 868.276,316.414 868.172,316.6C868.129,316.675 867.461,316.443 867.411,316.412C866.657,315.942 865.961,315.384 865.193,314.944C862.919,313.643 860.713,311.721 859.265,309.282C859.237,309.723 859.197,310.183 859.147,310.658C858.626,315.576 855.143,324.697 854.704,323.985C851.752,319.197 852.103,312.203 852.738,307.801C847.005,313.5 847.216,311.613 846.105,311.874C844.639,312.219 841.372,311.822 841.36,311.766C841.277,311.376 841.572,310.785 841.687,310.466C842.042,309.478 842.376,308.561 842.922,307.699C844.68,304.923 847.133,303.019 849.715,301.37C849.446,301.352 849.176,301.318 848.906,301.268C848.366,301.169 847.543,301.182 847.043,300.877C845.79,300.114 844.942,298.503 843.793,297.535C843.44,297.237 842.362,296.867 842.142,296.557C841.995,296.349 842.916,296.114 842.99,296.087C843.953,295.738 845.753,294.922 846.743,294.656C849.617,293.883 848.666,292.497 854.008,293.236C854.66,293.326 855.85,292.184 856.573,291.8C856.233,289.846 856.54,287.968 856.949,286.102C851.635,289.155 846.317,292.185 840.968,295.159C837.167,296.657 837.522,295.775 839.205,294.133C844.561,290.934 849.88,287.66 855.189,284.368C855.189,284.368 849.898,281.481 847.371,280.923L847.295,280.906L847.292,280.905C844.754,284.042 841.136,286.689 840.378,289.369C838.673,295.4 833.448,297.364 831.567,298.594C830.192,299.494 829.455,295.604 829.438,294.456C829.402,292.023 830.26,289.574 831.566,287.328C827.814,290.298 823.571,292.52 818.356,292.656C816.521,292.704 814.607,292.59 812.83,292.271C812.513,292.214 811.766,292.209 811.525,292.037C811.427,291.966 811.85,291.077 811.9,291.013C812.665,290.041 813.542,289.163 814.268,288.167C816.413,285.219 819.407,282.458 823.001,280.825C822.396,280.719 821.765,280.595 821.116,280.453C814.39,278.986 802.301,272.782 803.352,272.283C810.425,268.925 820.048,270.473 826.042,272.02C819.027,263.222 821.607,263.801 821.414,262.224C821.159,260.143 822.204,255.683 822.283,255.676C822.835,255.621 823.608,256.117 824.033,256.325C825.346,256.966 826.563,257.569 827.673,258.454C831.247,261.308 833.508,264.991 835.398,268.813C835.464,268.444 835.552,268.076 835.662,267.71C835.881,266.977 835.988,265.838 836.485,265.192C837.732,263.573 840.09,262.645 841.603,261.203C842.069,260.76 842.745,259.324 843.207,259.067C843.516,258.896 843.702,260.205 843.728,260.312C844.064,261.697 844.92,264.312 845.138,265.721C845.771,269.815 847.833,268.71 846,275.988C845.777,276.877 847.175,278.696 847.598,279.755C850.975,279.535 858.401,282.374 858.401,282.374C859.457,281.717 860.514,281.061 861.57,280.404L862.435,279.866C851.126,261.636 847.268,238.042 857.901,219.296C869.482,198.879 895.72,189.027 920.043,192.917C943.127,196.609 962.562,212.953 984.532,222.731C984.532,222.731 982.33,220.534 980.823,219.093C976.61,215.064 972.301,211.168 967.969,207.289C967.969,207.289 967.436,206.286 967.436,206.286C967.436,206.286 967.698,205.243 967.698,205.243C967.698,205.243 968.799,204.384 969.734,205.001C978.675,210.906 988.138,216.315 995.404,224.362C997.694,226.897 998.921,231.519 994.672,233.034C990.851,234.396 986.642,232.197 983.676,230.96C969.422,225.01 955.901,217.158 942.482,209.348C920.421,196.656 890.833,195.686 872.007,213.906C865.686,220.023 861.387,228.189 859.988,236.875C857.851,250.143 861.845,263.964 868.878,275.543L869.011,275.758C871.086,274.456 873.051,273.33 875.148,271.847C875.261,271.767 874.235,272.485 876.19,271.068C886.756,263.515 899.242,258.834 911.855,255.017C923.191,251.585 934.923,249.008 946.835,249.651C957.683,250.236 968.271,254.512 972.593,266.956C975.792,276.169 975.106,287.076 968.89,295.089C962.649,303.135 952.799,307.608 943.049,311.586C929.587,317.079 901.434,312.043 901.376,311.408C901.462,312.51 901.785,315.503 902.294,316.412C905.161,316.46 908.227,317.328 910.059,316.579C914.182,314.895 917.569,316.961 919.081,317.475C920.187,317.851 918.331,319.967 917.696,320.478C916.349,321.563 914.602,322.155 912.773,322.407C916.078,323.208 919.179,324.611 921.538,327.472C922.368,328.478 923.142,329.6 923.741,330.734C923.848,330.937 924.172,331.357 924.181,331.568C924.185,331.653 923.501,331.805 923.444,331.805C922.565,331.803 921.689,331.695 920.813,331.725C918.224,331.814 915.368,331.346 912.88,330.049C913.086,330.434 913.292,330.841 913.497,331.267C915.619,335.675 917.437,345.16 916.697,344.789C911.722,342.298 908.377,336.233 906.62,332.199C904.763,339.978 903.958,338.28 903.16,339.078C902.107,340.132 899.152,341.499 899.113,341.458C898.84,341.173 898.78,340.522 898.711,340.194C898.495,339.178 898.299,338.233 898.31,337.224C898.343,333.974 899.416,331.095 900.729,328.364C900.493,328.489 900.249,328.601 899.996,328.699C899.49,328.897 898.805,329.336 898.226,329.34C896.774,329.351 895.222,328.437 893.752,328.22C893.3,328.154 892.2,328.404 891.854,328.257C891.623,328.159 892.275,327.482 892.323,327.421C892.951,326.626 894.041,325.003 894.735,324.264C896.75,322.118 895.229,321.447 900.106,319.287C900.701,319.024 901.503,316.728 901.503,316.728C899.908,315.075 899.284,312.792 898.488,310.621L898.479,310.592ZM941.02,254.988C920.05,255.222 898.839,261.986 881.811,271.424C877.85,273.619 874.475,275.961 870.87,278.063L870.597,278.221C883.474,297.263 906.083,310.518 929.661,307.395C940.056,306.018 950.099,301.844 958.559,295.555C963.463,291.909 967.147,286.587 967.88,280.33C968.755,272.871 966.493,264.406 961.252,260.121C955.826,255.685 948.04,254.951 941.02,254.988Z" style="fill:rgb(80,0,0);"/></g></g></g></g></svg>