<?xml version="1.0" ?><!DOCTYPE svg  PUBLIC '-//W3C//DTD SVG 1.1//EN'  'http://www.w3.org/Graphics/SVG/1.1/DTD/svg11.dtd'><svg width="512px" height="512px" viewBox="0 0 512 512" enable-background="new 0 0 512 512" id="Castle" version="1.1" xml:space="preserve" xmlns="http://www.w3.org/2000/svg" xmlns:xlink="http://www.w3.org/1999/xlink"><path d="M280.959,35.19c0,0,12.56,9.134,25.406,12.005c1.836,0.41,2.688,2.534,1.605,4.073  c-2.382,3.39-6.898,8.506-14.022,11.638c-6.123,2.693-12.989-1.978-12.989-8.667V35.19z" fill="#A03774"/><path d="M256.964,18.972c0,0,5.506-0.027,12.343,0.707c12.098,1.298,21.307,11.462,21.307,23.63v9.066  c0,3.062-2.875,5.325-5.84,4.561c-6.515-1.679-17.499-3.833-27.81-2.683V18.972z" fill="#A03774"/><linearGradient gradientUnits="userSpaceOnUse" id="SVGID_1_" x1="256.9639" x2="256.9639" y1="28.2793" y2="90.8102"><stop offset="0.0051" style="stop-color:#FFC3B0"/><stop offset="1" style="stop-color:#E8897B"/></linearGradient><rect fill="url(#SVGID_1_)" height="75.546" width="9.975" x="251.977" y="18.984"/><rect fill="#C76266" height="9.589" width="9.975" x="251.977" y="84.941"/><polygon fill="#819FEA" points="256.964,209.618 186.459,209.618 186.459,335.072 256.964,335.072 327.469,335.072 327.469,209.618   "/><path d="M256.964,240.617c-11.399,0-20.642,9.242-20.642,20.642v17.501h20.642h20.642v-17.501  C277.605,249.859,268.364,240.617,256.964,240.617z" fill="#3D63AD"/><polygon fill="#466DBC" points="186.459,205.962 186.459,227.2 327.469,227.2 327.469,205.962 256.964,205.962 "/><path d="M273.211,87.677v6.843l-16.247,0.017l-16.247-0.017v-6.843c0-2.865-2.322-5.188-5.188-5.188h-13.313  c-2.865,0-5.188,2.323-5.188,5.188v103.134h39.938h39.938V87.677c0-2.865-2.323-5.188-5.188-5.188h-13.313  C275.534,82.488,273.211,84.812,273.211,87.677z" fill="#819FEA"/><path d="M256.964,116.073c-8.973,0-16.247,7.274-16.247,16.247v8.447h16.247h16.247v-8.447  C273.211,123.347,265.938,116.073,256.964,116.073z" fill="#3D63AD"/><path d="M329.86,162.53h-15.389c-2.896,0-5.243,2.348-5.243,5.243v14.122h-31.377v-14.122  c0-2.896-2.348-5.243-5.243-5.243h-15.645H241.32c-2.896,0-5.243,2.348-5.243,5.243v14.122h-31.378v-14.122  c0-2.896-2.347-5.243-5.242-5.243h-15.39h-15.39c-2.896,0-5.242,2.348-5.242,5.243v14.122v30.542h93.528h93.529v-30.542v-14.122  c0-2.896-2.348-5.243-5.243-5.243H329.86z" fill="#C7DAFF"/><polygon fill="#C7DAFF" points="256.964,338.832 114.438,338.832 114.438,493.028 256.964,493.028 399.49,493.028 399.49,338.832   "/><polygon fill="#466DBC" points="114.438,338.832 114.438,367.023 399.49,367.023 399.49,338.832 256.964,338.832 "/><path d="M258.71,382.673L258.71,382.673c-48.708,0-88.194,39.485-88.194,88.194v22.161h176.388v-22.161  C346.903,422.158,307.418,382.673,258.71,382.673z" fill="#466DBC"/><path d="M327.648,415.893c-3.805-4.766-8.076-9.14-12.773-13.023v55.794h-18.724v-67.652  c-4.096-1.924-8.364-3.532-12.774-4.815v72.468h-18.28v-75.735c-2.111-0.15-4.236-0.255-6.387-0.255l0,0  c-2.15,0-4.275,0.104-6.388,0.255v75.735H233.6v-72.342c-4.411,1.308-8.682,2.939-12.774,4.89v67.452h-18.28v-55.794  c-4.697,3.884-8.97,8.259-12.774,13.023v42.771h-18.395c-0.553,3.991-0.86,8.061-0.86,12.203v0.571h19.255v21.591h12.774v-21.591  h18.28v21.591H233.6v-21.591h18.723v21.591h12.774v-21.591h18.28v21.591h12.774v-21.591h18.724v21.591h12.773v-21.591h19.255v-0.571  c0-4.143-0.308-8.212-0.86-12.203h-18.395V415.893z" fill="#C7DAFF"/><path d="M375.736,311.836v14.483h-23.755v-14.483c0-2.704-2.192-4.896-4.896-4.896h-18.857h-18.858  c-2.704,0-4.896,2.192-4.896,4.896v14.483h-23.754v-14.483c0-2.704-2.192-4.896-4.896-4.896h-18.858h-18.858  c-2.704,0-4.896,2.192-4.896,4.896v14.483h-23.754v-14.483c0-2.704-2.192-4.896-4.896-4.896h-18.857h-18.858  c-2.704,0-4.896,2.192-4.896,4.896v14.483h-23.754v-14.483c0-2.704-2.192-4.896-4.896-4.896h-18.858v19.38v22.583h142.526H399.49  v-22.583v-19.38h-18.858C377.928,306.939,375.736,309.132,375.736,311.836z" fill="#C7DAFF"/><polygon fill="#819FEA" points="121.742,289.119 139.993,493.028 21.167,493.028 35.146,289.119 "/><path d="M111.19,242.016v14.137H89.934v-14.137c0-2.896-2.348-5.243-5.243-5.243H71.422  c-2.896,0-5.243,2.347-5.243,5.243v14.137H44.921v-14.137c0-2.896-2.347-5.243-5.243-5.243H26.409c-2.896,0-5.242,2.347-5.242,5.243  v14.137v32.967h113.778v-32.967v-14.137c0-2.896-2.348-5.243-5.243-5.243h-13.269C113.537,236.772,111.19,239.12,111.19,242.016z" fill="#C7DAFF"/><polygon fill="#466DBC" points="123.598,309.855 121.742,289.119 35.146,289.119 33.725,309.855 "/><path d="M104.375,493.028v-32.567c0-12.917-10.472-23.389-23.389-23.389s-23.389,10.472-23.389,23.389v32.567  H104.375z" fill="#3D63AD"/><path d="M95.509,389.65H66.464v-19.414c0-8.02,6.502-14.521,14.522-14.521l0,0c8.021,0,14.522,6.502,14.522,14.521  V389.65z" fill="#3D63AD"/><polygon fill="#819FEA" points="390.258,289.119 372.007,493.028 490.833,493.028 476.854,289.119 "/><path d="M400.81,242.016v14.137h21.257v-14.137c0-2.896,2.348-5.243,5.243-5.243h13.269  c2.896,0,5.243,2.347,5.243,5.243v14.137h21.258v-14.137c0-2.896,2.347-5.243,5.242-5.243h13.269c2.896,0,5.243,2.347,5.243,5.243  v14.137v32.967H377.055v-32.967v-14.137c0-2.896,2.348-5.243,5.243-5.243h13.269C398.463,236.772,400.81,239.12,400.81,242.016z" fill="#C7DAFF"/><polygon fill="#466DBC" points="388.402,309.855 390.258,289.119 476.854,289.119 478.275,309.855 "/><path d="M407.625,493.028v-32.567c0-12.917,10.472-23.389,23.389-23.389s23.389,10.472,23.389,23.389v32.567H407.625  z" fill="#3D63AD"/><path d="M416.491,389.65h29.044v-19.414c0-8.02-6.501-14.521-14.521-14.521l0,0c-8.021,0-14.522,6.502-14.522,14.521  V389.65z" fill="#3D63AD"/></svg>