<?xml version="1.0" ?><!DOCTYPE svg  PUBLIC '-//W3C//DTD SVG 1.1//EN'  'http://www.w3.org/Graphics/SVG/1.1/DTD/svg11.dtd'><svg width="512px" height="512px" viewBox="0 0 512 512" enable-background="new 0 0 512 512" id="Werewolf" version="1.1" xml:space="preserve" xmlns="http://www.w3.org/2000/svg" xmlns:xlink="http://www.w3.org/1999/xlink"><path d="M301.994,88.389c0,0,1.01-26.796,14.348-49.727c1.759-3.024,5.866-3.607,8.442-1.241  c8.93,8.202,26.93,29.024,30.325,65.89L301.994,88.389z" fill="#466B8E"/><linearGradient gradientUnits="userSpaceOnUse" id="SVGID_1_" x1="217.8174" x2="309.5928" y1="404.1689" y2="63.4692"><stop offset="0.0051" style="stop-color:#88ABD6"/><stop offset="1" style="stop-color:#4F76A0"/></linearGradient><path d="M207.537,163.374c0,0-11.311,41.472-52.591,69.803c-2.079,1.426-1.774,4.578,0.587,5.461  c1.69,0.633,3.732,1.23,6.019,1.573c0,0-31.947,41.373-87.35,60.05c-4.623,1.559-5.55,7.606-1.592,10.459  c7.029,5.067,18.576,11.7,35.376,16.383c0,0-5.197,7.948-17.254,13.146c-6.008,2.588-7.945,10.172-4.244,15.566  c16.62,24.222,59.353,79.755,124.261,117.48c2.832,1.646,6.335-0.682,5.959-3.936c-0.654-5.648-1.508-13.406-2.073-19.979  c-0.231-2.697,2.881-4.343,4.965-2.614c13.652,11.318,52.853,38.346,118.815,41.339c3.671,0.167,7.146-1.688,9.138-4.776  c9.474-14.703,36.419-59.463,41.399-100.133l7.058-2.27c3.025-0.973,4.476-4.412,3.019-7.236  c-3.431-6.65-10.481-17.748-21.678-23.848c0,0,15.732-0.342,26.653-10.042c3.398-3.02,2.409-8.568-1.891-10.048  c-18.979-6.526-65.006-27.783-66.661-80.813L207.537,163.374z" fill="url(#SVGID_1_)"/><path d="M402.113,329.752c-18.979-6.526-65.006-27.783-66.661-80.813l-106.703-71.375  c6.612,8.568,16.754,22.511,26.944,39.607l-31.046-11.144c-0.94,23.396,15.975,39.251,15.975,39.251l30.91,1.659  c12.615,27.061,21.861,57.791,18.894,86.568c0,0-3.647,38.521-47.085,25.34l-2.89,2.748c0,0,26.625,22.984,57.795,26.28  c0,0,46.32,84.929-19.905,89.724c16.717,5.336,36.678,9.447,60.074,10.509c3.671,0.167,7.146-1.688,9.138-4.776  c9.475-14.703,36.419-59.463,41.398-100.133l7.059-2.27c3.025-0.973,4.477-4.412,3.019-7.236  c-3.431-6.651-10.481-17.748-21.678-23.848c0,0,15.732-0.342,26.653-10.042C407.403,336.78,406.413,331.23,402.113,329.752z" fill="#6086AD"/><path d="M283.147,24.818c11.898,8.975,35.736,30.011,40.56,57.504c0,0,33.769,9.648,54.788,37.086  c1.49,1.945,2.473,4.239,2.984,6.635c3.164,14.816,17.423,72.283,51.584,90.947c4.084,2.231,7.03,6.054,7.772,10.649  c1.97,12.188,2.988,35.702-14.519,49.334c-2.619,2.039-6.329,1.923-8.995-0.056l-15.796-11.719c0,0-20.104,22.049-47.988,2.594  L311.563,242.5c-5.778-3.481-12.264-5.576-18.988-6.112c-9.266-0.738-23.49-1.663-37.454-1.748  c-7.002-0.042-13.742-2.63-18.985-7.273c-12.354-10.941-32.227-34.643-33.675-74.731c-0.125-3.449,3.884-5.456,6.597-3.324  c2.485,1.953,5.279,4.064,7.646,5.643c0,0-1.183-31.951,22.448-52.334c1.815-1.566,4.587-1.283,5.998,0.657l7.871,10.822  c0,0,1.702-31.771,15.719-60.289c2.621-5.334,4.493-10.992,5.639-16.824c0.551-2.802,1.079-5.901,1.452-8.994  C276.258,24.446,280.296,22.667,283.147,24.818z" fill="#88ABD6"/><path d="M280.077,23.931c-2.071,0.154-3.962,1.698-4.247,4.061c-0.373,3.093-0.901,6.192-1.452,8.994  c-1.146,5.832-3.018,11.49-5.639,16.824c-14.017,28.519-15.719,60.289-15.719,60.289c2.362,9.859,12.318,14.667,12.318,14.667  c5.163-34.044,32.907-42.463,32.907-42.463C297.979,45.749,286.289,29.642,280.077,23.931z" fill="#6086AD"/><path d="M441.864,240.211c-0.009-4.77-0.472-9.13-1.028-12.571c-0.742-4.595-3.688-8.417-7.772-10.649  c-1.974-1.078-3.872-2.299-5.714-3.62c-1.362,2.572-2.206,5.459-2.206,8.572C425.144,231.538,432.499,239.331,441.864,240.211z" fill="#333345"/><path d="M344.256,231.119c0,0,1.311-13.6,18.093-24.589c2.234-1.463,5.14,0.478,4.593,3.092  c-1.642,7.858-3.769,21.095-1.973,30.589L344.256,231.119z" fill="#FFFFFF"/><path d="M362.503,240.211c0,0,1.181,7.444,0.612,14.902c-0.148,1.945,2.032,3.23,3.671,2.172  c3.104-2.006,7.087-5.124,9.032-8.887L362.503,240.211z" fill="#FFFFFF"/><path d="M335.567,229.403L335.567,229.403c-0.443,1.557,0.433,3.167,1.986,3.619  c8.986,2.614,37.723,12.467,58.701,36.53c3.393-2.3,5.271-4.353,5.271-4.353s-25.777-30.205-62.543-37.893  C337.482,226.992,335.987,227.928,335.567,229.403z" fill="#6086AD"/><path d="M172.166,313.916c6.186,11.532,17.062,26.895,33.698,34.422c0,0-0.52-12.482,2.531-23.811  c0.474-1.76,2.867-2.025,3.751-0.432c6.042,10.893,25.301,39.401,66.978,52.51c6.755,2.125,14.057-0.899,17.252-7.219  c5.654-11.182,13.364-30.392,13.393-52.053c0.003-1.873,2.345-2.725,3.571-1.31c2.34,2.7,5.131,6.543,6.281,10.56  c0,0,4.894-12.689,6.572-29.139c0.105-1.03,1.608-1.061,1.719-0.029c1.082,10.16,1.593,28.496-5.321,46.004  c-0.573,1.453-2.591,1.546-3.252,0.131l-3.173-6.787c0,0,0.906,20.186-14.695,51.137c-3.242,6.431-10.721,9.539-17.529,7.193  c-16.776-5.777-47.769-19.784-67.605-48.893c0,0-1.486,8.463-1.538,14.782c-0.009,1.132-1.101,1.948-2.191,1.644  c-7.119-1.988-29.521-11.01-42.459-47.777C169.699,313.568,171.525,312.721,172.166,313.916z" fill="#6086AD"/><path d="M341.622,168.662l-0.313-0.253c-6.34-5.096-10.473-12.525-11.32-20.615  c-0.393-3.745-0.464-7.983,0.182-12.339c0.213-1.437,2.132-1.817,2.867-0.564l3.866,6.582l16.806,24.295l9.206,3.066  c1.646,1.241,1.119,3.834-0.879,4.336l0,0C354.901,174.962,347.339,173.292,341.622,168.662z" fill="#6086AD"/><path d="M340.699,135.747c5.371,4.262,13.777,11.396,18.123,17.487c0.88,1.232,1.347,2.678,1.319,4.192  c-0.035,1.949-0.079,5.017-0.071,8.093c0.008,3.076-3.291,5.003-5.986,3.522c-7.203-3.957-18.26-12.9-18.631-30.622  C335.396,135.662,338.538,134.033,340.699,135.747z" fill="#FFFFFF"/></svg>