<svg width="96px" height="96px" viewBox="0 -8.02 96 96" xmlns="http://www.w3.org/2000/svg"><g transform="translate(-160.109 -185.861)"><path d="M200.965,220.328s-5.275-18.85-13.436-26.338-26.618-12.936-27.416-1.764c-.26,3.643,11.512,21.857,13.116,31.224s18.317,10.587,18.317,10.587Z" fill="#3f3941"/><path d="M197.851,224.86c-2.537-12.172-8.165-25.746-13.46-33.315-8.987-6.063-23.57-9.224-24.278.681-.26,3.643,11.512,21.857,13.116,31.224a8.107,8.107,0,0,0,.794,2.361c4.827,2.493,14.084,4.063,19.846,4.845Z" fill="#f37777"/><path d="M208.109,208.232a11.032,11.032,0,0,0-4.576-.83c-5.034.381-12.828,2.607-15.74,6.527-4.231,5.7-9.526,30.143-8.462,38.688s18.806,13.213,28.778,13.213Z" fill="#3f3941"/><path d="M208.109,236.048s-6.072.473-9.988,4.814-11.208,11.528-10.435,16.548,2.458,10.631,11.441,7.475a36.909,36.909,0,0,0,8.982.945Z" fill="#e8dced"/><path d="M193.777,241.563a6.306,6.306,0,0,1-.788-.05c-4.317-.542-7.023-5.989-6.177-6.958.977-1.12,2.9-5.224,6.955-5.266,4.566-.047,6.36,3.785,7.374,5.754.147.285,1.265,1.467.864,2.126-.381.624-1.074.187-1.976.973-1.177.991-3.594,3.421-6.252,3.421Z" fill="#615764"/><path d="M200.376,235.727c-1.22-.736-2.3-5.526-6.609-5.526-3.795,0-6.081,4.345-6.081,5.169a6.611,6.611,0,0,0,5.412,5.168c3.851.477,5.945-2.86,6.765-3.319C201.052,236.554,201.732,236.546,200.376,235.727Z" fill="#fff"/><ellipse cx="5.084" cy="5.243" rx="5.084" ry="5.243" transform="translate(188.683 230.162)" fill="#4c383d"/><ellipse cx="3.07" cy="3.165" rx="3.07" ry="3.165" transform="translate(190.698 232.239)" fill="#3d2a2e"/><ellipse cx="0.947" cy="0.977" rx="0.947" ry="0.977" transform="translate(190.397 232.602)" fill="#fbfcfc"/><path d="M208.109,252.973a9.06,9.06,0,0,0-4.726,2.255c-3.456,3.2-8.018,5.1-10.8,3.56s-3.285-1.5-.974.615,7.766,1.564,10.439,0a9.154,9.154,0,0,1,6.062-.733Z" fill="#3d2a2e"/><path d="M208.109,256.367s-3.39-.688-4.726,1.578.433,6.421,4.726,6.421Z" fill="#f37777"/><path d="M203.533,207.4c-.484.036-1,.1-1.527.166a43.247,43.247,0,0,0-1.588,12.41c.466,7.474,3.115,22.907,3.115,22.907l4.576,2.968V208.232A11.032,11.032,0,0,0,203.533,207.4Z" fill="#e8dced"/><path d="M203.533,242.885c-.063,1.488,4.576,2.968,4.576,2.968V238S203.684,239.324,203.533,242.885Z" fill="#3d2a2e"/><path d="M208.109,238a11.667,11.667,0,0,0-3.1.67c-1.056.5-2.007,3.414-1.479,4.217s1.786.3,2.213,0-.744-2.611,0-2.51,1.378,3.413.638,3.614,1.725,1.864,1.725,1.864Z" fill="#4c383d"/><path d="M215.253,220.328s5.275-18.85,13.436-26.338,26.618-12.936,27.416-1.764c.26,3.643-11.511,21.857-13.116,31.224s-18.317,10.587-18.317,10.587Z" fill="#3f3941"/><path d="M218.367,224.86c2.537-12.172,8.166-25.746,13.46-33.315,8.987-6.063,23.57-9.224,24.278.681.26,3.643-11.511,21.857-13.116,31.224a8.105,8.105,0,0,1-.793,2.361c-4.828,2.493-14.084,4.063-19.846,4.845Z" fill="#f37777"/><path d="M208.109,208.232a11.039,11.039,0,0,1,4.577-.83c5.034.381,12.827,2.607,15.739,6.527,4.231,5.7,9.527,30.143,8.463,38.688s-18.807,13.213-28.779,13.213Z" fill="#3f3941"/><path d="M208.109,236.048s6.072.473,9.989,4.814S229.3,252.39,228.533,257.41s-2.459,10.631-11.442,7.475a36.9,36.9,0,0,1-8.982.945Z" fill="#e8dced"/><path d="M222.441,241.563a6.306,6.306,0,0,0,.788-.05c4.318-.542,7.023-5.989,6.178-6.958-.978-1.12-2.9-5.224-6.956-5.266-4.565-.047-6.36,3.785-7.374,5.754-.147.285-1.265,1.467-.864,2.126.381.624,1.074.187,1.977.973,1.176.991,3.593,3.421,6.251,3.421Z" fill="#615764"/><path d="M215.842,235.727c1.221-.736,2.295-5.526,6.609-5.526,3.795,0,6.082,4.345,6.082,5.169a6.611,6.611,0,0,1-5.412,5.168c-3.851.477-5.946-2.86-6.766-3.319C215.166,236.554,214.486,236.546,215.842,235.727Z" fill="#fff"/><ellipse cx="5.084" cy="5.243" rx="5.084" ry="5.243" transform="translate(217.367 230.162)" fill="#4c383d"/><ellipse cx="3.07" cy="3.165" rx="3.07" ry="3.165" transform="translate(219.381 232.239)" fill="#3d2a2e"/><ellipse cx="0.947" cy="0.977" rx="0.947" ry="0.977" transform="translate(223.927 232.602)" fill="#fbfcfc"/><path d="M208.109,252.973a9.06,9.06,0,0,1,4.726,2.255c3.456,3.2,8.018,5.1,10.8,3.56s3.284-1.5.974.615-7.767,1.564-10.439,0a9.156,9.156,0,0,0-6.063-.733Z" fill="#3d2a2e"/><path d="M208.109,256.367s3.39-.688,4.726,1.578-.433,6.421-4.726,6.421Z" fill="#f37777"/><path d="M212.686,207.4c.483.036,1,.1,1.526.166a43.212,43.212,0,0,1,1.588,12.41c-.466,7.474-3.115,22.907-3.115,22.907l-4.576,2.968V208.232A11.039,11.039,0,0,1,212.686,207.4Z" fill="#e8dced"/><path d="M212.685,242.885c.063,1.488-4.576,2.968-4.576,2.968V238S212.535,239.324,212.685,242.885Z" fill="#3d2a2e"/><path d="M208.109,238a11.672,11.672,0,0,1,3.1.67c1.056.5,2.006,3.414,1.478,4.217s-1.786.3-2.213,0,.744-2.611,0-2.51-1.377,3.413-.638,3.614-1.725,1.864-1.725,1.864Z" fill="#4c383d"/></g></svg>
