<svg width="96px" height="96px" viewBox="0 0 96 96" xmlns="http://www.w3.org/2000/svg"><g transform="translate(-31.482 -317.709)"><path d="M33.11,327.35s9.28,1.931,11.832,4.6,2.479,11.689,5.8,15.273,12.451,3.4,12.451,3.4l9.125-17.168s-12.583-15.379-19.1-14.616S33.11,327.35,33.11,327.35Z" fill="#f37777"/><path d="M70.263,335.7s-9.531-4.228-11.845-1.008,0,14.892,0,14.892Z" fill="#d45757"/><path d="M79.481,332.691s-14.908-2.306-17.329,1.844-8.991,13.833-8.991,19.711,2,25.245,4.8,26.974,7.685,6.993,8.357,9.03,4.822,20.018,7.589,21.056a27.639,27.639,0,0,0,5.571,1.383Z" fill="#cf693e"/><path d="M70.927,387.469s-8.25-8.5-11.5-8.628c-2.9-.114,4.5,3.208,7.5,9.7,4.14,8.953,5.816,18.25,7.586,20.02s4.974,1.474,4.974,1.474V388.8Z" fill="#4f3a2b"/><path d="M74.289,391.177s.708,19.558,1.6,20.832a3.518,3.518,0,0,0,3.591,1.645V390.677Z" fill="#f37777"/><path d="M76.453,332.345a51.012,51.012,0,0,1,.766,11.974c-.234,7.722,0,17.081-2.339,19.655s-5.85,11-7.956,18.017,4.29,12.558,12.557,12.558V332.71Z" fill="#f9edd3"/><path d="M79.481,382.126s-6.88-.737-6.88,2.359,3.882,6.192,6.88,6.192Z" fill="#4f3a2b"/><path d="M76.041,388.171s-2.7-2.507-.934-2.654S78.957,389.826,76.041,388.171Z" fill="#35251a"/><path d="M71.244,351.207c-.812-1.756-3.447,3.728-7.324,4.646-3.1.735-4.5,2.872-5.372,3.344a.255.255,0,0,0,.055.467,2.751,2.751,0,0,1,1.55.962,8.365,8.365,0,0,0,4.127,3.332c1.527.529,3.709-.61,5.051-.609a2.917,2.917,0,0,1,1.483.851.26.26,0,0,0,.412-.3C70.955,363.166,73.969,357.1,71.244,351.207Z" fill="#a05132"/><ellipse cx="3.356" cy="3.461" rx="3.356" ry="3.461" transform="translate(61.538 356.194)" fill="#4f3a2b"/><ellipse cx="2.026" cy="2.09" rx="2.026" ry="2.09" transform="translate(62.868 357.565)" fill="#35251a"/><ellipse cx="0.625" cy="0.645" rx="0.625" ry="0.645" transform="translate(62.669 357.804)" fill="#fbfcfc"/><path d="M63.92,377.514s-4.521-2.655-6.942-2.212S58.461,368.886,63.92,377.514Z" fill="#a05132"/><path d="M72.318,333.457s-10.7-12.992-15.093-15.312-20.867,5.186-24.115,9.205,1.373,5.879-1.024,11.679,2.88,1.62,6.36-2.324,1.967-10.652,5.336-12.528c1.2-.668,9.43-7.279,12.674-3.712,5.551,6.1,14.7,15.312,14.7,15.312Z" fill="#cf693e"/><path d="M125.853,327.35s-9.28,1.931-11.832,4.6-2.479,11.689-5.8,15.273-12.452,3.4-12.452,3.4l-9.124-17.168s12.582-15.379,19.1-14.616S125.853,327.35,125.853,327.35Z" fill="#f37777"/><path d="M88.7,335.7s9.532-4.228,11.845-1.008,0,14.892,0,14.892Z" fill="#d45757"/><path d="M79.481,332.691s14.909-2.306,17.329,1.844,8.992,13.833,8.992,19.711-2,25.245-4.8,26.974-7.685,6.993-8.358,9.03-4.822,20.018-7.588,21.056a27.656,27.656,0,0,1-5.572,1.383Z" fill="#cf693e"/><path d="M88.035,387.469s8.251-8.5,11.5-8.628c2.9-.114-4.5,3.208-7.5,9.7-4.14,8.953-5.816,18.25-7.586,20.02s-4.975,1.474-4.975,1.474V388.8Z" fill="#4f3a2b"/><path d="M84.674,391.177s-.709,19.558-1.6,20.832a3.518,3.518,0,0,1-3.591,1.645V390.677Z" fill="#f37777"/><path d="M82.51,332.345a50.968,50.968,0,0,0-.767,11.974c.234,7.722,0,17.081,2.34,19.655s5.85,11,7.956,18.017-4.29,12.558-12.558,12.558V332.71Z" fill="#f9edd3"/><path d="M79.481,382.126s6.881-.737,6.881,2.359-3.883,6.192-6.881,6.192Z" fill="#4f3a2b"/><path d="M82.921,388.171s2.7-2.507.934-2.654S80,389.826,82.921,388.171Z" fill="#35251a"/><path d="M87.718,351.207c.812-1.756,3.448,3.728,7.325,4.646,3.1.735,4.5,2.872,5.371,3.344a.255.255,0,0,1-.055.467,2.749,2.749,0,0,0-1.549.962,8.365,8.365,0,0,1-4.127,3.332c-1.527.529-3.709-.61-5.052-.609a2.917,2.917,0,0,0-1.483.851.261.261,0,0,1-.412-.3C88.007,363.166,84.994,357.1,87.718,351.207Z" fill="#a05132"/><ellipse cx="3.356" cy="3.461" rx="3.356" ry="3.461" transform="translate(90.712 356.194)" fill="#4f3a2b"/><ellipse cx="2.026" cy="2.09" rx="2.026" ry="2.09" transform="translate(92.042 357.565)" fill="#35251a"/><ellipse cx="0.625" cy="0.645" rx="0.625" ry="0.645" transform="translate(95.043 357.804)" fill="#fbfcfc"/><path d="M95.043,377.514s4.521-2.655,6.942-2.212S100.5,368.886,95.043,377.514Z" fill="#a05132"/><path d="M86.645,333.457s10.7-12.992,15.093-15.312,20.867,5.186,24.115,9.205-1.373,5.879,1.024,11.679-2.88,1.62-6.36-2.324-1.968-10.652-5.336-12.528c-1.2-.668-9.43-7.279-12.675-3.712-5.55,6.1-14.7,15.312-14.7,15.312Z" fill="#cf693e"/></g></svg>