<svg width="96.42px" height="96.42px" viewBox="-3.22 0 96.42 96.42" xmlns="http://www.w3.org/2000/svg"><g transform="translate(-163.119 -40.771)"><path d="M194.184,70.792a35.973,35.973,0,0,0-10-13.133c-7.072-5.734-16.286-12.578-18.643-16.278s-4.5,10.174,1.285,21.272,6.342,24.278,18,23.121Z" fill="#996d6d"/><path d="M200.038,127.453s.932,7.167,2.823,8.453,5.248,1.285,5.248,1.285V124.763Z" fill="#e3dfc8"/><path d="M186.485,83.114c-3.228-1.469-2.092-4.538-7.834-5.479-2.687-.44-5.278-2.282-7.33-4.191,2.79,7.292,5.588,13.115,13.5,12.33Z" fill="#ef962a"/><path d="M184.181,57.659c-4.3-3.483-9.375-7.373-13.234-10.721A45.152,45.152,0,0,0,179.9,58.214c8.715,7.89,10.681,12.5,11.13,17.634l3.159-5.056A35.973,35.973,0,0,0,184.181,57.659Z" fill="#ef962a"/><path d="M192.966,72.691s-12.214-13.409-12-9.383a60.627,60.627,0,0,1,0,10.883c-.425,6,6.057,8.746,6.057,8.746Z" fill="#7c4e4e"/><path d="M208.109,63.518s-8.923-2.635-14.375,0S180.35,77.269,179.712,83.54s8.569,25.084,8.569,29.645-.921,8.012,3.859,9.279,1.346,14.949,15.969,10.1Z" fill="#ef962a"/><path d="M208.109,66.72c-2.915,1.043-5.294,24.084-6.62,26.706s-4.919,6.761-6.356,9.835.1,18,2.515,23.966,10.461,3.857,10.461,3.857Z" fill="#f5f1db"/><path d="M202.861,124.05c-.072,1.706,5.248,3.4,5.248,3.4v-9.007S203.034,119.966,202.861,124.05Z" fill="#3d2a2e"/><path d="M208.109,118.446a13.362,13.362,0,0,0-3.552.768c-1.211.575-2.3,3.915-1.7,4.836s2.048.345,2.538,0-.853-2.994,0-2.879,1.58,3.915.732,4.145,1.978,2.137,1.978,2.137Z" fill="#4c383d"/><path d="M197.084,70.312c-.952.662-9.261,5.782-10.064,12.625-.333,2.838,1.266,4.079,2.571,6.844,1.842,3.9,3.871,8.776,5.765,7.553,3.235-2.089,6.559-10.335,5.967-14.763C200.362,75.384,200.52,67.924,197.084,70.312Z" fill="#35495e"/><ellipse cx="1.5" cy="1.547" rx="1.5" ry="1.547" transform="translate(194.752 81.348)" fill="#3d2a2e"/><ellipse cx="0.906" cy="0.934" rx="0.906" ry="0.934" transform="translate(195.346 81.961)" fill="#3d2a2e"/><ellipse cx="0.279" cy="0.288" rx="0.279" ry="0.288" transform="translate(195.257 82.068)" fill="#fbfcfc"/><path d="M192.966,121.227s-3.535-6.964-3.75-5.357S190.716,121.12,192.966,121.227Z" fill="#4c383d"/><path d="M222.034,70.792a35.969,35.969,0,0,1,10-13.133c7.071-5.734,16.285-12.578,18.643-16.278s4.5,10.174-1.286,21.272-6.341,24.278-18,23.121Z" fill="#996d6d"/><path d="M216.181,127.453s-.932,7.167-2.824,8.453-5.248,1.285-5.248,1.285V124.763Z" fill="#e3dfc8"/><path d="M229.733,83.114c3.228-1.469,2.092-4.538,7.834-5.479,2.687-.44,5.278-2.282,7.331-4.191-2.791,7.292-5.589,13.115-13.5,12.33Z" fill="#35495e"/><path d="M232.038,57.659c4.295-3.483,9.374-7.373,13.233-10.721a45.152,45.152,0,0,1-8.948,11.276c-8.715,7.89-10.681,12.5-11.13,17.634l-3.159-5.056A35.969,35.969,0,0,1,232.038,57.659Z" fill="#35495e"/><path d="M223.252,72.691s12.214-13.409,12-9.383a60.72,60.72,0,0,0,0,10.883c.426,6-6.057,8.746-6.057,8.746Z" fill="#7c4e4e"/><path d="M208.109,63.518s8.923-2.635,14.376,0,13.384,13.751,14.021,20.022-8.569,25.084-8.569,29.645.921,8.012-3.859,9.279-1.346,14.949-15.969,10.1Z" fill="#ef962a"/><path d="M208.109,66.72c2.915,1.043,5.3,24.084,6.62,26.706s4.919,6.761,6.357,9.835-.1,18-2.516,23.966-10.461,3.857-10.461,3.857Z" fill="#f5f1db"/><path d="M213.357,124.05c.072,1.706-5.248,3.4-5.248,3.4v-9.007S213.184,119.966,213.357,124.05Z" fill="#3d2a2e"/><path d="M208.109,118.446a13.362,13.362,0,0,1,3.552.768c1.211.575,2.3,3.915,1.7,4.836s-2.048.345-2.538,0,.853-2.994,0-2.879-1.58,3.915-.732,4.145-1.978,2.137-1.978,2.137Z" fill="#4c383d"/><ellipse cx="1.5" cy="1.547" rx="1.5" ry="1.547" transform="translate(218.467 81.348)" fill="#3d2a2e"/><ellipse cx="0.906" cy="0.934" rx="0.906" ry="0.934" transform="translate(219.061 81.961)" fill="#3d2a2e"/><ellipse cx="0.279" cy="0.288" rx="0.279" ry="0.288" transform="translate(220.402 82.068)" fill="#fbfcfc"/><path d="M223.252,121.227s3.536-6.964,3.75-5.357S225.5,121.12,223.252,121.227Z" fill="#4c383d"/></g></svg>
