<svg width="96px" height="96px" viewBox="0 -6.21 96 96" xmlns="http://www.w3.org/2000/svg"><g transform="translate(-31.481 -47.195)"><path d="M58.9,55.093,37.835,84.429S34.963,70.89,39.989,64.667,49.483,48.913,53.153,48.9,58.9,55.093,58.9,55.093Z" fill="#996d6d"/><path d="M79.481,47.195c-2.553,0-4.12,1.261-6.248,1.707s-8.791-2.6-12.6,0S46.49,61.4,44.2,69.933s2.054,14.121,0,19.387-3.69,14.361,0,17.951.1,13.882,13.025,14.361a45.843,45.843,0,0,0,22.259-4.787Z" fill="#f5f1db"/><path d="M59.855,114.93s-3.938,6.9-1.2,11.249c5.585,8.856,7.659,2.633,12.925,0,1.7-.849,2.314,1.915,7.9.479V97.7S65.76,102.723,59.855,114.93Z" fill="#a8a697"/><path d="M79.481,102.647s-7.659,1.2-10.292,3.83-2.393,12.783,0,12.973,4.34-2.921,4.34-2.921l5.952-1.2Z" fill="#f37777"/><path d="M79.481,74.241c-6.41,0-17.844,3.111-19.655,12.446s-12.051,22.259-10.3,30.4,3.621,11.728,10.3,11.728,10.7-16.754,13.186-18.669,6.469-2.154,6.469-5.744Z" fill="#c6c5b3"/><path d="M79.481,75.916A10.618,10.618,0,0,0,67.895,83.2C64.642,91.953,67.632,96.74,72,94.346s7.48,10.053,7.48,10.053Z" fill="#a8a697"/><path d="M79.481,75.916c-6.022,0-11.586,4.08-11.586,7.285s3.109,5.536,5.634,4.37,3.524,1.749,5.952,1.749Z" fill="#4c383d"/><path d="M68.425,68.5c-2.689-4.285-6.9-2.873-9.288,1.2S49.8,76.395,52.2,80.7s8.846,2.234,13.882,0S71.73,73.762,68.425,68.5Z" fill="#c6c5b3"/><ellipse cx="2.792" cy="2.879" rx="2.792" ry="2.879" transform="translate(60.441 73.037)" fill="#4c383d"/><ellipse cx="1.686" cy="1.738" rx="1.686" ry="1.738" transform="translate(61.547 74.178)" fill="#3d2a2e"/><ellipse cx="0.52" cy="0.536" rx="0.52" ry="0.536" transform="translate(61.382 74.377)" fill="#fbfcfc"/><path d="M62.422,51.024S55.275,47.259,51.7,48.9s-8.84,8.345-15.063,13.611-5.411,13.164-4.62,20.1-2.082,15.407,2.466,15.961,8.617-9.5,11.01-20.269,5.266-25.132,7.18-26.568S58.9,55.093,58.9,55.093Z" fill="#c6c5b3"/><path d="M76.849,88.361h0s-1.135-6.461-3.32-5.743-1.884,1.769,0,4.953C75.039,86.874,75.89,87.636,76.849,88.361Z" fill="#3d2a2e"/><path d="M100.065,55.093l21.063,29.336S124,70.89,118.974,64.667s-9.5-15.754-13.165-15.765S100.065,55.093,100.065,55.093Z" fill="#996d6d"/><path d="M79.481,47.195c2.553,0,4.12,1.261,6.249,1.707s8.791-2.6,12.6,0S112.472,61.4,114.766,69.933s-2.054,14.121,0,19.387,3.69,14.361,0,17.951-.1,13.882-13.025,14.361a45.849,45.849,0,0,1-22.26-4.787Z" fill="#f5f1db"/><path d="M99.108,114.93s3.938,6.9,1.2,11.249c-5.584,8.856-7.659,2.633-12.924,0-1.7-.849-2.314,1.915-7.9.479V97.7S93.2,102.723,99.108,114.93Z" fill="#a8a697"/><path d="M79.481,102.647s7.659,1.2,10.292,3.83,2.394,12.783,0,12.973-4.339-2.921-4.339-2.921l-5.953-1.2Z" fill="#f37777"/><path d="M79.481,74.241c6.411,0,17.845,3.111,19.655,12.446s12.051,22.259,10.3,30.4-3.621,11.728-10.3,11.728-10.7-16.754-13.186-18.669-6.469-2.154-6.469-5.744Z" fill="#c6c5b3"/><path d="M79.481,75.916A10.618,10.618,0,0,1,91.067,83.2c3.254,8.752.264,13.539-4.105,11.145S79.481,104.4,79.481,104.4Z" fill="#a8a697"/><path d="M79.481,75.916c6.022,0,11.586,4.08,11.586,7.285s-3.108,5.536-5.633,4.37-3.525,1.749-5.953,1.749Z" fill="#4c383d"/><path d="M90.538,68.5c2.688-4.285,6.894-2.873,9.288,1.2s9.334,6.7,6.941,11.01-8.846,2.234-13.882,0S87.233,73.762,90.538,68.5Z" fill="#c6c5b3"/><ellipse cx="2.792" cy="2.879" rx="2.792" ry="2.879" transform="translate(92.937 73.037)" fill="#4c383d"/><ellipse cx="1.686" cy="1.738" rx="1.686" ry="1.738" transform="translate(94.044 74.178)" fill="#3d2a2e"/><ellipse cx="0.52" cy="0.536" rx="0.52" ry="0.536" transform="translate(96.54 74.377)" fill="#fbfcfc"/><path d="M96.54,51.024s7.147-3.765,10.722-2.122,8.839,8.345,15.062,13.611,5.411,13.164,4.621,20.1,2.081,15.407-2.466,15.961-8.617-9.5-11.01-20.269-5.266-25.132-7.181-26.568-6.223,3.351-6.223,3.351Z" fill="#c6c5b3"/><path d="M82.113,88.361h0s1.135-6.461,3.321-5.743,1.883,1.769,0,4.953C83.923,86.874,83.072,87.636,82.113,88.361Z" fill="#3d2a2e"/></g></svg>
