<svg width="96px" height="96px" viewBox="-12.41 0 96 96" xmlns="http://www.w3.org/2000/svg"><g transform="translate(-428.934 -317.709)"><path d="M460.867,345.846s-8.2-23.14-12.523-27.569c-3.084-3.162-4.252,7.542-7.455,15.787s-5.281,19.746.859,25.609Z" fill="#f37777"/><path d="M458.666,347.438s-8.234-14.066-10.322-11.179-7.221,16.039-4.334,18.605Z" fill="#d45757"/><path d="M460.867,345.846s-8.2-23.14-12.523-27.569c2.06,3.04,4.46,25.563,5.32,32.779Z" fill="#3f3941"/><path d="M464.47,340.619s-6.971,0-10.506,1.691c-5.847,2.8-12.216,13.636-16.22,17.363s-8.81,11.1-8.81,25.167,15.4,18.19,20.247,20.207,5.708,8.662,15.289,8.662Z" fill="#3f3941"/><path d="M452.846,357.829c-2.762,1.109-2.615,8.2-4.32,9.291s-11.583.849-12.384,10.044-7.352,14.173.729,22.037c4.543,3.212,9.819,4.81,12.31,5.846,4.848,2.018,4.629,7.878,15.289,4.189V373.842C461.237,373.278,457.461,355.975,452.846,357.829Z" fill="#f5f1db"/><path d="M464.47,379.883c-3.031,0-4.1-.341-7.735,9.718s-8.861,12.253-5.072,18.929,8.351,6.105,12.913,2.733Z" fill="#f5f1db"/><path d="M457.382,378.091c-.6-1.432-1.738-4.467-4.849-3.73a19.282,19.282,0,0,0-4.679,1.652.2.2,0,0,0,.044.374,2.21,2.21,0,0,1,1.244.772,6.709,6.709,0,0,0,3.312,2.675c1.225.424,2.976-.49,4.054-.489a2.337,2.337,0,0,1,1.19.682.209.209,0,0,0,.331-.236C457.811,379.2,457.536,378.459,457.382,378.091Z" fill="#262128"/><ellipse cx="2.693" cy="2.778" rx="2.693" ry="2.778" transform="translate(450.253 374.328)" fill="#fff"/><ellipse cx="1.626" cy="1.677" rx="1.626" ry="1.677" transform="translate(451.321 375.428)" fill="#3d2a2e"/><ellipse cx="0.502" cy="0.518" rx="0.502" ry="0.518" transform="translate(451.161 375.62)" fill="#fbfcfc"/><path d="M464.576,397.9s-5.13-.55-5.13,1.759,2.895,4.617,5.13,4.617Z" fill="#3f3941"/><path d="M462.011,402.41s-2.015-1.869-.7-1.979S464.185,403.644,462.011,402.41Z" fill="#262128"/><path d="M468.179,345.846s8.2-23.14,12.523-27.569c3.084-3.162,4.251,7.542,7.455,15.787s5.281,19.746-.859,25.609Z" fill="#f37777"/><path d="M470.38,347.438s8.234-14.066,10.322-11.179,7.221,16.039,4.334,18.605Z" fill="#d45757"/><path d="M468.179,345.846s8.2-23.14,12.523-27.569c-2.06,3.04-4.46,25.563-5.32,32.779Z" fill="#3f3941"/><path d="M464.576,340.619s6.971,0,10.506,1.691c5.847,2.8,12.216,13.636,16.22,17.363s8.81,11.1,8.81,25.167-15.4,18.19-20.247,20.207-5.708,8.662-15.289,8.662Z" fill="#3f3941"/><path d="M476.2,357.829c2.762,1.109,2.615,8.2,4.32,9.291s11.583.849,12.384,10.044,7.351,14.173-.729,22.037c-4.543,3.212-9.819,4.81-12.31,5.846-4.848,2.018-4.629,7.878-15.289,4.189V373.842C467.809,373.278,471.585,355.975,476.2,357.829Z" fill="#f5f1db"/><path d="M464.576,379.883c3.03,0,4.1-.341,7.735,9.718s8.86,12.253,5.072,18.929-8.351,6.105-12.913,2.733Z" fill="#f5f1db"/><path d="M471.664,378.091c.6-1.432,1.738-4.467,4.849-3.73a19.282,19.282,0,0,1,4.679,1.652.2.2,0,0,1-.044.374,2.21,2.21,0,0,0-1.244.772,6.709,6.709,0,0,1-3.312,2.675c-1.225.424-2.977-.49-4.054-.489a2.337,2.337,0,0,0-1.19.682.209.209,0,0,1-.331-.236C471.235,379.2,471.51,378.459,471.664,378.091Z" fill="#262128"/><ellipse cx="2.693" cy="2.778" rx="2.693" ry="2.778" transform="translate(473.405 374.328)" fill="#fff"/><ellipse cx="1.626" cy="1.677" rx="1.626" ry="1.677" transform="translate(474.473 375.428)" fill="#3d2a2e"/><ellipse cx="0.502" cy="0.518" rx="0.502" ry="0.518" transform="translate(476.881 375.62)" fill="#fbfcfc"/><path d="M464.47,397.9s5.13-.55,5.13,1.759-2.9,4.617-5.13,4.617Z" fill="#3f3941"/><path d="M467.035,402.41s2.015-1.869.7-1.979S464.861,403.644,467.035,402.41Z" fill="#262128"/></g></svg>
