<svg width="96px" height="96px" viewBox="0 -2.37 96 96" xmlns="http://www.w3.org/2000/svg"><g transform="translate(-31.481 -180.216)"><path d="M60.949,235.372s-9-.035-12.292-2.506-3.53-7.533-7.3-12.18-11.3-23.237-9.649-36.415,16.238,9.413,27.062,16,6.786,16.708,11.09,17.178S60.949,235.372,60.949,235.372Z" fill="#f37777"/><path d="M66.709,226.1s-11.981-11-15.6-16.409.168,13.413,2.272,17.884,9.157,5.439,9.157,5.439Z" fill="#d45757"/><path d="M37.206,213.025a35.668,35.668,0,0,0,4.156,7.661c2.882,3.557,3.7,7.353,5.4,10.048.11-2.317.461-5.022.012-6.929C46.129,221.062,41.17,216.984,37.206,213.025Z" fill="#2b2527"/><path d="M69.865,217.451c-4.3-.47-.265-10.589-11.09-17.178-.337-.206-.679-.427-1.023-.662,1.767,2.7,3.182,5.282,3.514,7.015,1.039,5.413-1.079,7.295-2.491,11.531s5.761,10.889,3.747,12.715c-1.342,1.218-5.485,2.823-9.146,3.751a45.557,45.557,0,0,0,7.573.749S74.169,217.922,69.865,217.451Z" fill="#2b2527"/><path d="M79.481,209.437c-5.333.22-14.141,2.691-17.444,8.147s-9.958,20.429-9.958,26.644,10.178,13,13.7,18.832,4.062,8.415,13.7,8.415Z" fill="#2b2527"/><path d="M62.064,251.572c-3.512,1.333-9.985-9.546-9.819-5.991,1.28,5.836,10.266,12.07,13.535,17.479,3.523,5.83,4.062,8.415,13.7,8.415V240.589C73.845,240.589,65.58,250.237,62.064,251.572Z" fill="#daa778"/><path d="M79.481,246.4s-6.95-.221-6.95,2.906,3.922,6.256,6.95,6.256Z" fill="#2b2527"/><path d="M76.295,252.888s-2.245-1.078-1.813-2.993a1.127,1.127,0,0,1,1.909-.633C77.635,250.418,78.338,253.742,76.295,252.888Z" fill="#1a1517"/><path d="M79.481,258.961s-5.835,2.8-9.03,2.8-9.785-7.588-10.384-7.788,5.036,7.788,9.707,10.384a24.378,24.378,0,0,0,9.707,2.8Z" fill="#2b2527"/><path d="M79.481,260.556s-4.809,1.335-5.054,2.568.106,6.62,5.054,6.62Z" fill="#f37777"/><path d="M65.325,240.822c-.7,0-6.523.008-6.523-6.345a6.224,6.224,0,0,1,6.52-6.3c3.21,0,5.439,2.288,7.5,6.491.239.488,1.091,1.286.564,2.053-.372.541-1.98.131-2.473.543-.831.692-2.3,3.561-5.592,3.561Z" fill="#494144"/><path d="M71.982,234.831c-1.5-1.2-2.3-5.818-6.728-5.818-3.954,0-5.3,3.56-5.3,5.463,0,.87.587,4.958,4.6,5.462s5.451-3.4,6.427-3.508S73.839,236.316,71.982,234.831Z" fill="#fff"/><ellipse cx="5.477" cy="5.648" rx="5.477" ry="5.648" transform="translate(59.598 228.856)" fill="#2b2527"/><ellipse cx="3.307" cy="3.41" rx="3.307" ry="3.41" transform="translate(61.768 231.093)" fill="#1a1517"/><ellipse cx="1.02" cy="1.052" rx="1.02" ry="1.052" transform="translate(61.444 231.484)" fill="#fbfcfc"/><path d="M73.3,218.756c-1.933,0-6.7,5.235-5.715,6.119,4.761,4.285,4.842,6.12,6.989,6.12C75.927,230.995,76.2,218.756,73.3,218.756Z" fill="#daa778"/><path d="M98.014,235.372s9-.035,12.292-2.506,3.53-7.533,7.295-12.18,11.295-23.237,9.648-36.415-16.237,9.413-27.062,16S93.4,216.981,89.1,217.451,98.014,235.372,98.014,235.372Z" fill="#f37777"/><path d="M92.254,226.1s11.98-11,15.6-16.409-.167,13.413-2.272,17.884-9.157,5.439-9.157,5.439Z" fill="#d45757"/><path d="M121.757,213.025a35.758,35.758,0,0,1-4.156,7.661c-2.882,3.557-3.7,7.353-5.4,10.048-.111-2.317-.461-5.022-.013-6.929C112.834,221.062,117.792,216.984,121.757,213.025Z" fill="#2b2527"/><path d="M89.1,217.451c4.3-.47.265-10.589,11.09-17.178q.507-.309,1.024-.662c-1.767,2.7-3.182,5.282-3.515,7.015-1.039,5.413,1.079,7.295,2.491,11.531s-5.76,10.889-3.747,12.715c1.342,1.218,5.486,2.823,9.146,3.751a45.549,45.549,0,0,1-7.572.749S84.793,217.922,89.1,217.451Z" fill="#2b2527"/><path d="M79.481,209.437c5.334.22,14.142,2.691,17.445,8.147s9.958,20.429,9.958,26.644-10.178,13-13.7,18.832-4.061,8.415-13.7,8.415Z" fill="#2b2527"/><path d="M96.9,251.572c3.511,1.333,9.985-9.546,9.819-5.991-1.281,5.836-10.266,12.07-13.536,17.479-3.523,5.83-4.061,8.415-13.7,8.415V240.589C85.117,240.589,93.382,250.237,96.9,251.572Z" fill="#daa778"/><path d="M79.481,246.4s6.951-.221,6.951,2.906-3.922,6.256-6.951,6.256Z" fill="#2b2527"/><path d="M82.668,252.888s2.244-1.078,1.813-2.993a1.127,1.127,0,0,0-1.909-.633C81.328,250.418,80.625,253.742,82.668,252.888Z" fill="#1a1517"/><path d="M79.481,258.961s5.836,2.8,9.031,2.8,9.785-7.588,10.384-7.788-5.037,7.788-9.707,10.384a24.381,24.381,0,0,1-9.708,2.8Z" fill="#2b2527"/><path d="M79.481,260.556s4.81,1.335,5.055,2.568-.107,6.62-5.055,6.62Z" fill="#f37777"/><path d="M93.638,240.822c.7,0,6.523.008,6.523-6.345a6.224,6.224,0,0,0-6.52-6.3c-3.21,0-5.44,2.288-7.5,6.491-.24.488-1.092,1.286-.564,2.053.372.541,1.979.131,2.473.543.831.692,2.3,3.561,5.592,3.561Z" fill="#494144"/><path d="M86.981,234.831c1.495-1.2,2.3-5.818,6.728-5.818,3.953,0,5.3,3.56,5.3,5.463,0,.87-.588,4.958-4.6,5.462s-5.452-3.4-6.428-3.508S85.124,236.316,86.981,234.831Z" fill="#fff"/><ellipse cx="5.477" cy="5.648" rx="5.477" ry="5.648" transform="translate(88.411 228.856)" fill="#2b2527"/><ellipse cx="3.307" cy="3.41" rx="3.307" ry="3.41" transform="translate(90.581 231.093)" fill="#1a1517"/><ellipse cx="1.02" cy="1.052" rx="1.02" ry="1.052" transform="translate(95.478 231.484)" fill="#fbfcfc"/><path d="M85.66,218.756c1.933,0,6.7,5.235,5.714,6.119-4.761,4.285-4.841,6.12-6.988,6.12C83.036,230.995,82.767,218.756,85.66,218.756Z" fill="#daa778"/></g></svg>
