<svg width="96px" height="96px" viewBox="-18.54 0 96 96" xmlns="http://www.w3.org/2000/svg"><g transform="translate(-563.134 -40.981)"><path d="M588.242,61.98s-12.91-17.986-17.763-20.739c-3.464-1.965-1.791,7.6-2.5,15.545s.379,18.429,7.168,21.967Z" fill="#f37777"/><path d="M586.735,63.911s-10.661-10.119-11.745-7.094-2.231,15.7.913,17.2Z" fill="#d45757"/><path d="M588.242,61.98s-12.91-17.986-17.763-20.739c2.547,2.117,10.276,21.024,12.831,27.059Z" fill="#5c4f52"/><path d="M592.59,59.962s-5.464-1.8-6.879-1.286-12.8,12.035-13.949,17.1c-3.966,17.541-7.8,19.615-8.567,24.943s5.931,15.587,8.824,22.53,14.721,6.283,20.571,13.732Z" fill="#f7a747"/><path d="M580.369,104.065s-4.75-5.533-4.75-4.761,5.39,11.764,8.191,13.114,3.38,4.05,8.78,4.05v-8.619s-5.657,1.676-6.879,1.29S580.369,104.065,580.369,104.065Z" fill="#262128"/><path d="M586.735,108.936a52.716,52.716,0,0,1,1.264,9.3c.124,3.138-1.077,7.187,0,8.32,2.773,2.915,4.591,3.251,4.591,3.251v-20.87Z" fill="#f37777"/><path d="M584.1,74.02c-1.8.5-7.585,3.513-8.485,5.929s4.891,4.537,6.046,5.694-.492,5.014,1.3,3.857,2.871-5.493,3.775-7.857S585.7,73.581,584.1,74.02Z" fill="#5c4f52"/><path d="M592.59,80.354c-5.855,0-7.43,12.869-8.78,14.476s-4.913,6.58-4.913,8.587,4.95,7.793,6.814,8.179,6.879-1.506,6.879-1.506Z" fill="#5c4f52"/><path d="M592.59,97.87s-4.691-.5-4.691,1.586,2.675,4.163,4.691,4.163Z" fill="#3f3941"/><path d="M590.212,101.934s-1.817-1.685-.627-1.784S592.173,103.047,590.212,101.934Z" fill="#262128"/><path d="M585.2,81.092c-.477-1.141-1.384-3.558-3.862-2.971a15.367,15.367,0,0,0-3.727,1.316.163.163,0,0,0,.035.3,1.76,1.76,0,0,1,.991.615,5.338,5.338,0,0,0,2.638,2.13c.976.338,2.371-.39,3.229-.389a1.855,1.855,0,0,1,.948.544.167.167,0,0,0,.263-.189C585.539,81.974,585.32,81.386,585.2,81.092Z" fill="#3f3941"/><ellipse cx="2.145" cy="2.212" rx="2.145" ry="2.212" transform="translate(579.519 78.095)" fill="#f7a747"/><ellipse cx="1.295" cy="1.336" rx="1.295" ry="1.336" transform="translate(580.369 78.971)" fill="#3d2a2e"/><ellipse cx="0.4" cy="0.412" rx="0.4" ry="0.412" transform="translate(580.242 79.124)" fill="#fbfcfc"/><path d="M596.937,61.98s12.91-17.986,17.763-20.739c3.465-1.965,1.791,7.6,2.5,15.545s-.38,18.429-7.169,21.967Z" fill="#f37777"/><path d="M598.444,63.911S609.1,53.792,610.19,56.817s2.23,15.7-.914,17.2Z" fill="#d45757"/><path d="M596.937,61.98s12.91-17.986,17.763-20.739c-2.547,2.117-10.276,21.024-12.83,27.059Z" fill="#5c4f52"/><path d="M592.59,59.962s5.464-1.8,6.878-1.286,12.8,12.035,13.949,17.1c3.966,17.541,7.795,19.615,8.567,24.943s-5.931,15.587-8.824,22.53-14.721,6.283-20.57,13.732Z" fill="#f7a747"/><path d="M604.81,104.065s4.75-5.533,4.75-4.761-5.39,11.764-8.191,13.114-3.38,4.05-8.779,4.05v-8.619s5.657,1.676,6.878,1.29S604.81,104.065,604.81,104.065Z" fill="#262128"/><path d="M598.444,108.936a52.827,52.827,0,0,0-1.264,9.3c-.124,3.138,1.078,7.187,0,8.32-2.772,2.915-4.59,3.251-4.59,3.251v-20.87Z" fill="#f37777"/><path d="M601.075,74.02c1.8.5,7.585,3.513,8.485,5.929s-4.891,4.537-6.045,5.694.491,5.014-1.3,3.857-2.871-5.493-3.775-7.857S599.483,73.581,601.075,74.02Z" fill="#5c4f52"/><path d="M592.59,80.354c5.854,0,7.429,12.869,8.779,14.476s4.913,6.58,4.913,8.587-4.95,7.793-6.814,8.179-6.878-1.506-6.878-1.506Z" fill="#5c4f52"/><path d="M592.59,97.87s4.69-.5,4.69,1.586-2.675,4.163-4.69,4.163Z" fill="#3f3941"/><path d="M594.967,101.934s1.817-1.685.628-1.784S593.006,103.047,594.967,101.934Z" fill="#262128"/><path d="M599.982,81.092c.477-1.141,1.384-3.558,3.863-2.971a15.352,15.352,0,0,1,3.726,1.316.162.162,0,0,1-.035.3,1.761,1.761,0,0,0-.99.615,5.346,5.346,0,0,1-2.639,2.13c-.975.338-2.37-.39-3.228-.389a1.847,1.847,0,0,0-.948.544.167.167,0,0,1-.264-.189C599.64,81.974,599.859,81.386,599.982,81.092Z" fill="#3f3941"/><ellipse cx="2.145" cy="2.212" rx="2.145" ry="2.212" transform="translate(601.369 78.095)" fill="#f7a747"/><ellipse cx="1.295" cy="1.336" rx="1.295" ry="1.336" transform="translate(602.219 78.971)" fill="#3d2a2e"/><ellipse cx="0.4" cy="0.412" rx="0.4" ry="0.412" transform="translate(604.138 79.124)" fill="#fbfcfc"/></g></svg>
