<svg width="121.856px" height="121.856px" viewBox="0 -16.04 121.856 121.856" xmlns="http://www.w3.org/2000/svg"><g transform="translate(-147.181 -463.69)"><path d="M191.166,468.147l-11.343,21.643-8.845,39.857-9.8-29.364,13.627-24.958,10.429-7.179Z" fill="#3f3941"/><path d="M208.109,463.709s-3.12.622-5.94.869c-6.219.546-16.044,4.45-19.641,10.056-3.078,4.8-6.947,20.639-10.271,31.714-2.594,8.642-.529,17.876.012,22.9,1.314,12.221,23.52,18.9,35.84,18.9Z" fill="#3f3941"/><path d="M208.109,463.709s-3.12.622-5.94.869c-6.219.546-16.044,4.45-19.641,10.056-3.078,4.8-6.947,20.639-10.271,31.714-2.594,8.642-.529,17.876.012,22.9,1.314,12.221,23.52,18.9,35.84,18.9Z" fill="#a96852"/><path d="M208.109,524.182s-3.857-.668-5.786,2.237-6.3,21.728-6.3,21.728a38.162,38.162,0,0,0,12.082,2.544Z" fill="#e6e7e8"/><path d="M208.109,531.364v-48.5l-8.432-1.432s-7.236.422-11.295,4.229-6.494,2.532.831,7.669c0,0-6.818,1.847-8.425,6.868s-7.072,10.163-5.786,12.734,5.786,7.072,6.107,9c.225,1.348-.668,12.985,2.769,20.311a53.722,53.722,0,0,0,9.553,3.66Z" fill="#3f3941"/><path d="M208.109,463.709s-7.65,1.078-8.575,1.263c-1.265,5.308-4.634,8.227-4.575,11.317.052,2.692,3.157,6.22,4.718,11.858,1.981,7.154,2.472,16.437,2,17.781-2.326,6.667-10.269,5.265-12.554,14.076s-4.2,26.678,0,29.571,11.6,5.786,12.882,2.25,6.1-16.714,6.1-16.714v-71.4Z" fill="#fff"/><path d="M199.678,520.5c-.112,2.968,8.431,5.92,8.431,5.92V510.752S199.946,513.4,199.678,520.5Z" fill="#262128"/><path d="M208.109,510.752s-3.92.334-5.8,1.335-3.572,6.81-2.632,8.412,3.178.6,3.939,0-1.325-5.207,0-5.007,2.452,6.81,1.136,7.211,3.356,3.716,3.356,3.716Z" fill="#3f3941"/><path d="M189.67,503.654a3.716,3.716,0,0,1-3.279-4.548,3.836,3.836,0,0,1,4.63-3.127c1.948.344,3.056,1.971,3.859,4.741.093.322,1.476.763,1.074,1.172-.284.289-2.166,0-2.51.2-.578.332-1.774,1.915-3.774,1.563Z" fill="#262128"/><path d="M194.35,500.731c-.779-.886-.771-3.776-3.46-4.25a3.3,3.3,0,0,0-3.8,2.748,3.407,3.407,0,0,0,2.206,3.806c2.38.735,3.672-1.479,4.275-1.441S195.318,501.831,194.35,500.731Z" fill="#fff"/><ellipse cx="3.48" cy="3.374" rx="3.48" ry="3.374" transform="matrix(0.174, -0.985, 0.985, 0.174, 186.267, 502.634)" fill="#a05132"/><ellipse cx="2.101" cy="2.037" rx="2.101" ry="2.037" transform="matrix(0.174, -0.985, 0.985, 0.174, 187.823, 501.508)" fill="#3d2a2e"/><ellipse cx="0.648" cy="0.629" rx="0.648" ry="0.629" transform="matrix(0.174, -0.985, 0.985, 0.174, 188.089, 498.85)" fill="#fbfcfc"/><path d="M191.166,468.147s-6.843-4.608-11.343,0-12.214,11.407-24.428,13.285-8.552,27.429-3.41,41.158,13.374,12.706,14.338,20.878,5.077,10.607,8.485.964-.194-41.133,0-51.1,2.711-18.423,7.72-18.7Z" fill="#915c4b"/><path d="M225.052,468.147l11.343,21.643,8.845,39.857,9.8-29.364L241.41,475.325l-10.429-7.179Z" fill="#3f3941"/><path d="M208.109,463.709s3.12.622,5.94.869c6.219.546,16.044,4.45,19.641,10.056,3.078,4.8,6.947,20.639,10.271,31.714,2.594,8.642.529,17.876-.011,22.9-1.315,12.221-23.521,18.9-35.841,18.9Z" fill="#3f3941"/><path d="M208.109,463.709s3.12.622,5.94.869c6.219.546,16.044,4.45,19.641,10.056,3.078,4.8,6.947,20.639,10.271,31.714,2.594,8.642.529,17.876-.011,22.9-1.315,12.221-23.521,18.9-35.841,18.9Z" fill="#a96852"/><path d="M208.109,524.182s3.857-.668,5.786,2.237,6.3,21.728,6.3,21.728a38.162,38.162,0,0,1-12.082,2.544Z" fill="#e6e7e8"/><path d="M208.109,531.364v-48.5l8.432-1.432s7.236.422,11.295,4.229,6.494,2.532-.831,7.669c0,0,6.818,1.847,8.426,6.868s7.071,10.163,5.785,12.734-5.785,7.072-6.107,9c-.224,1.348.668,12.985-2.769,20.311a53.723,53.723,0,0,1-9.553,3.66Z" fill="#3f3941"/><path d="M208.109,463.709s7.651,1.078,8.576,1.263c1.264,5.308,4.633,8.227,4.574,11.317-.052,2.692-3.156,6.22-4.718,11.858-1.981,7.154-2.472,16.437-2,17.781,2.325,6.667,10.268,5.265,12.554,14.076s4.2,26.678,0,29.571-11.6,5.786-12.883,2.25-6.1-16.714-6.1-16.714v-71.4Z" fill="#fff"/><path d="M216.54,520.5c.112,2.968-8.431,5.92-8.431,5.92V510.752S216.273,513.4,216.54,520.5Z" fill="#262128"/><path d="M208.109,510.752s3.92.334,5.8,1.335,3.571,6.81,2.631,8.412-3.178.6-3.939,0,1.325-5.207,0-5.007-2.452,6.81-1.136,7.211-3.356,3.716-3.356,3.716Z" fill="#3f3941"/><path d="M226.548,503.654a3.715,3.715,0,0,0,3.279-4.548,3.836,3.836,0,0,0-4.63-3.127c-1.948.344-3.056,1.971-3.859,4.741-.093.322-1.476.763-1.074,1.172.284.289,2.167,0,2.51.2.578.332,1.775,1.915,3.774,1.563Z" fill="#262128"/><path d="M221.868,500.731c.779-.886.771-3.776,3.46-4.25a3.3,3.3,0,0,1,3.8,2.748,3.407,3.407,0,0,1-2.206,3.806c-2.38.735-3.671-1.479-4.275-1.441S220.9,501.831,221.868,500.731Z" fill="#fff"/><ellipse cx="3.374" cy="3.48" rx="3.374" ry="3.48" transform="matrix(0.985, -0.174, 0.174, 0.985, 222.096, 496.953)" fill="#a05132"/><ellipse cx="2.037" cy="2.101" rx="2.037" ry="2.101" transform="matrix(0.985, -0.174, 0.174, 0.985, 223.652, 498.078)" fill="#3d2a2e"/><ellipse cx="0.629" cy="0.648" rx="0.629" ry="0.648" transform="matrix(0.985, -0.174, 0.174, 0.985, 226.665, 497.791)" fill="#fbfcfc"/><path d="M225.052,468.147s6.843-4.608,11.343,0,12.214,11.407,24.428,13.285,8.553,27.429,3.41,41.158S250.859,535.3,249.9,543.468s-5.076,10.607-8.485.964.194-41.133,0-51.1-2.711-18.423-7.72-18.7Z" fill="#915c4b"/></g></svg>
