<svg width="96.001px" height="96.001px" viewBox="-14.73 0 96.001 96.001" xmlns="http://www.w3.org/2000/svg"><g transform="translate(-46.209 -605.861)"><path d="M72.708,624.842s-5.683-5.181-10.651-9.857-14.549-13.429-15.614-6.628,1.774,12.883,3.194,22.854A42.809,42.809,0,0,0,56.09,648.28Z" fill="#252428"/><path d="M56.09,614.461a130.874,130.874,0,0,1,9.387,20.58l7.231-10.2s-5.683-5.181-10.651-9.857c-3.4-3.2-8.968-8.316-12.481-9.036A40.1,40.1,0,0,1,56.09,614.461Z" fill="#38373c"/><path d="M50.693,636.235a42.265,42.265,0,0,0,5.4,12.045l2.31-3.257C56.831,643.184,53.811,639.755,50.693,636.235Z" fill="#38373c"/><path d="M79.485,622.375s-10.122-.183-12.444,4.289S54.9,640.118,53.6,647.038s-3.076,12.378-1.124,17.19,10.953,7.991,15.945,14.475,11.056,5.241,11.056,5.241Z" fill="#38373c"/><path d="M61.142,695.58s.078,2.33,2.925,5.673a10.816,10.816,0,0,1,2.068-3.816s.536,3.408,0,4.425a33.672,33.672,0,0,0,4.572-8.1,26.907,26.907,0,0,0,2.7,4.683s-.109-5.572,2.6-7.267a14.165,14.165,0,0,1,3.464-.8V656.5l-25.3-11.454c-4.719,5.976-8.977,9.957-7.025,20.78,0,0,.4-.49.891-1.154a27.422,27.422,0,0,0,.351,9.3,10.235,10.235,0,0,1,2.3-3.991s-1.234,3.768,1.783,10.191a24.214,24.214,0,0,1,2.071,12.641s2.858-2.281,2.858-4.632a85.286,85.286,0,0,1,2.054,10.08A7.8,7.8,0,0,0,61.142,695.58Z" fill="#38373c"/><path d="M73.409,698.449s-.109-5.572,2.6-7.267a14.165,14.165,0,0,1,3.464-.8V671.464l-7.838-1.774s-5.165,1.359-5.5,3.762a15.385,15.385,0,0,0,.771,5.7l-1.892-.473s2.009,2.6,1.892,4.968l-1.892-1.3s-.6,3.313,1.121,5.56H64.914a15.089,15.089,0,0,1,2.418,4.968l-1.785-.828a16.938,16.938,0,0,1,1.359,4.614,18.118,18.118,0,0,1-.569,4.379,2.377,2.377,0,0,1-.2.821,33.653,33.653,0,0,0,4.572-8.1A26.907,26.907,0,0,0,73.409,698.449Z" fill="#f5f1db"/><path d="M72.184,644.787c-.508-1.215-1.474-3.79-4.114-3.165a16.367,16.367,0,0,0-3.97,1.4.173.173,0,0,0,.037.317,1.881,1.881,0,0,1,1.056.655,5.693,5.693,0,0,0,2.81,2.27c1.039.36,2.525-.416,3.439-.415a1.975,1.975,0,0,1,1.01.579.178.178,0,0,0,.281-.2C72.548,645.726,72.315,645.1,72.184,644.787Z" fill="#252428"/><ellipse cx="2.285" cy="2.357" rx="2.285" ry="2.357" transform="translate(66.136 641.594)" fill="#ce783f"/><ellipse cx="1.38" cy="1.423" rx="1.38" ry="1.423" transform="translate(67.041 642.528)" fill="#3d2a2e"/><ellipse cx="0.426" cy="0.439" rx="0.426" ry="0.439" transform="translate(66.906 642.691)" fill="#fbfcfc"/><path d="M74.9,667.5s.32,8.266,1.123,9.984c.843,1.8,3.458,1.92,3.458,1.92V667.5Z" fill="#f37777"/><path d="M79.478,653.9c-3.184,0-8.917.638-11.634,6.243-1.767,3.645.775,9.653,5.336,12.906,2.833,2.022,6.305-2.5,6.305-2.5Z" fill="#f5f1db"/><path d="M73.18,673.051c2.833,2.022,6.305-2.5,6.305-2.5v-1.413c-1.08.311-2.655,3.1-4.209,3.54-2.734.775-4.156-2.006-5.773-3.424A15,15,0,0,0,73.18,673.051Z" fill="#c6c5b3"/><path d="M79.477,657.415l.007-35.04a30.634,30.634,0,0,0-5.872.575c-.74,3.449-1.423,7.83-.867,10.492,1.023,4.9,3.865,9.2,4.218,11.932S74.2,657.557,74.2,657.557Z" fill="#f5f1db"/><path d="M76.351,661.868a4.947,4.947,0,0,0,1.615.729l1.065-1.074-.8-3.331-3.331.192v1Z" fill="#38373c"/><path d="M79.477,656.642s-4.619.319-5.194,1.722,2.068,3.5,2.068,3.5-1.531-2.612-.919-2.7c2.795-.4,2.534,3.429,2.534,3.429a3.244,3.244,0,0,0,1.511.362Z" fill="#252428"/><path d="M52.831,655.614" fill="#fff"/><path d="M52.831,654.421a10.116,10.116,0,0,0,.946,6.626V659.32a19.25,19.25,0,0,1,2.839,6.112l1.3-2.011s-.347,3.549,1.542,5.323l.587-2.011a16.533,16.533,0,0,1,2.248,4.968,36,36,0,0,1,0,6.388s-1.187-6.033-2.011-7.689l-.237,3.786s-2.4-4.732-2.5-7.1c0,0-.928,2.957-3,3.9a19.943,19.943,0,0,0,0-5.442l-.414-2.957-1.656,1.635a6.452,6.452,0,0,0,0-3.181C52,659.636,50.228,658.2,52.831,654.421Z" fill="#252428"/><path d="M57.207,672.056a9.586,9.586,0,0,0,2.252,6.033l.824-1.606a16.047,16.047,0,0,1,.859,6.811l-1.683-4.259L58.4,681.4A14.51,14.51,0,0,1,57.207,672.056Z" fill="#252428"/><path d="M61.821,689.8a18.607,18.607,0,0,0-1.8-6.506,7.9,7.9,0,0,0,0,5.8l.621-2.543Z" fill="#252428"/><path d="M86.254,624.842s5.683-5.181,10.651-9.857,14.55-13.429,15.615-6.628-1.775,12.883-3.194,22.854a42.818,42.818,0,0,1-6.454,17.069Z" fill="#252428"/><path d="M102.872,614.461a130.967,130.967,0,0,0-9.387,20.58l-7.231-10.2s5.683-5.181,10.651-9.857c3.4-3.2,8.969-8.316,12.481-9.036A40.13,40.13,0,0,0,102.872,614.461Z" fill="#38373c"/><path d="M108.269,636.235a42.233,42.233,0,0,1-5.4,12.045l-2.309-3.257C102.132,643.184,105.151,639.755,108.269,636.235Z" fill="#38373c"/><path d="M79.477,622.375s10.122-.183,12.444,4.289,12.139,13.454,13.441,20.374,3.077,12.378,1.125,17.19S95.533,672.219,90.541,678.7s-11.056,5.241-11.056,5.241Z" fill="#38373c"/><path d="M97.82,695.58s-.077,2.33-2.925,5.673a10.8,10.8,0,0,0-2.068-3.816s-.536,3.408,0,4.425a33.689,33.689,0,0,1-4.571-8.1,26.907,26.907,0,0,1-2.7,4.683s.108-5.572-2.605-7.267a14.155,14.155,0,0,0-3.464-.8V656.5l25.3-11.454c4.718,5.976,8.977,9.957,7.025,20.78,0,0-.4-.49-.892-1.154a27.419,27.419,0,0,1-.35,9.3,10.244,10.244,0,0,0-2.3-3.991s1.234,3.768-1.782,10.191a24.2,24.2,0,0,0-2.071,12.641s-2.858-2.281-2.858-4.632a85.056,85.056,0,0,0-2.054,10.08A7.811,7.811,0,0,1,97.82,695.58Z" fill="#38373c"/><path d="M85.554,698.449s.108-5.572-2.605-7.267a14.155,14.155,0,0,0-3.464-.8V671.464l7.839-1.774s5.164,1.359,5.5,3.762a15.37,15.37,0,0,1-.77,5.7l1.891-.473s-2.008,2.6-1.891,4.968l1.891-1.3s.6,3.313-1.121,5.56h1.221a15.074,15.074,0,0,0-2.417,4.968l1.784-.828a16.913,16.913,0,0,0-1.358,4.614,18.069,18.069,0,0,0,.568,4.379,2.377,2.377,0,0,0,.2.821,33.67,33.67,0,0,1-4.571-8.1A26.907,26.907,0,0,1,85.554,698.449Z" fill="#f5f1db"/><path d="M86.778,644.787c.508-1.215,1.475-3.79,4.115-3.165a16.336,16.336,0,0,1,3.969,1.4.173.173,0,0,1-.037.317A1.882,1.882,0,0,0,93.77,644a5.7,5.7,0,0,1-2.81,2.27c-1.04.36-2.526-.416-3.44-.415a1.979,1.979,0,0,0-1.01.579.177.177,0,0,1-.28-.2C86.414,645.726,86.648,645.1,86.778,644.787Z" fill="#252428"/><ellipse cx="2.285" cy="2.357" rx="2.285" ry="2.357" transform="translate(88.256 641.594)" fill="#ce783f"/><ellipse cx="1.38" cy="1.423" rx="1.38" ry="1.423" transform="translate(89.162 642.528)" fill="#3d2a2e"/><ellipse cx="0.426" cy="0.439" rx="0.426" ry="0.439" transform="translate(91.205 642.691)" fill="#fbfcfc"/><path d="M84.067,667.5s-.321,8.266-1.123,9.984c-.844,1.8-3.459,1.92-3.459,1.92V667.5Z" fill="#f37777"/><path d="M79.485,653.9c3.183,0,8.917.638,11.634,6.243,1.767,3.645-.776,9.653-5.336,12.906-2.834,2.022-6.306-2.5-6.306-2.5Z" fill="#f5f1db"/><path d="M85.783,673.051c-2.834,2.022-6.306-2.5-6.306-2.5v-1.413c1.08.311,2.654,3.1,4.208,3.54,2.735.775,4.156-2.006,5.774-3.424A15.013,15.013,0,0,1,85.783,673.051Z" fill="#c6c5b3"/><path d="M79.485,657.415l-.007-35.04a30.636,30.636,0,0,1,5.873.575c.739,3.449,1.422,7.83.867,10.492-1.023,4.9-3.865,9.2-4.219,11.932s2.762,12.183,2.762,12.183Z" fill="#f5f1db"/><path d="M82.612,661.868A4.947,4.947,0,0,1,81,662.6l-1.064-1.074.8-3.331,3.331.192v1Z" fill="#38373c"/><path d="M79.485,656.642s4.62.319,5.194,1.722-2.067,3.5-2.067,3.5,1.531-2.612.919-2.7C80.736,658.766,81,662.6,81,662.6a3.239,3.239,0,0,1-1.511.362Z" fill="#252428"/><path d="M106.132,655.614" fill="#fff"/><path d="M106.132,654.421a10.116,10.116,0,0,1-.946,6.626V659.32a19.226,19.226,0,0,0-2.839,6.112l-1.3-2.011s.347,3.549-1.541,5.323l-.588-2.011a16.541,16.541,0,0,0-2.247,4.968,36,36,0,0,0,0,6.388s1.187-6.033,2.011-7.689l.236,3.786s2.4-4.732,2.5-7.1c0,0,.927,2.957,3,3.9a19.943,19.943,0,0,1,0-5.442l.415-2.957,1.656,1.635a6.452,6.452,0,0,1,0-3.181C106.96,659.636,108.734,658.2,106.132,654.421Z" fill="#252428"/><path d="M101.755,672.056a9.589,9.589,0,0,1-2.251,6.033l-.824-1.606a16.058,16.058,0,0,0-.86,6.811l1.684-4.259,1.059,2.366A14.506,14.506,0,0,0,101.755,672.056Z" fill="#252428"/><path d="M97.142,689.8a18.582,18.582,0,0,1,1.8-6.506,7.9,7.9,0,0,1,0,5.8l-.621-2.543Z" fill="#252428"/></g></svg>
