<svg width="96px" height="96px" viewBox="0 -2.33 96 96" xmlns="http://www.w3.org/2000/svg"><g transform="translate(-160.109 -320.04)"><path d="M199.465,325.075s-5.642-5.29-12.341-5.025-24.58,11.375-24.684,21.16c-.187,17.626-5.739,25.4.986,32.263,11.5,11.741,16.361,9.634,20.965-9.787C187.054,352.452,199.465,325.075,199.465,325.075Z" fill="#a05132"/><path d="M195.807,334.266c-.458-3.147-.772-5.289-.772-5.289s-6.074-2.753-7.908-1.835-8.41,21.407-10.7,27.371,4.893,23.191,0,25.51a3.7,3.7,0,0,0-.667.406c4.458-.624,5.88-9.214,8.635-16.743C186.886,356.867,192.2,343.357,195.807,334.266Z" fill="#8f3f25"/><path d="M208.109,324.284s-15.912-5.557-19.482,5.948-11.5,22.611-11.5,29.752,8.374,31.339,15.493,31.339h15.493Z" fill="#ce783f"/><path d="M206.82,323.931s-.754,29.926-5.371,35.73c-7.136,8.97-17.4,13.085-16.31,19.572,1.379,8.242,9.034,14.073,11.22,22.007s4.257,10.138,11.75,10.138V324.284Z" fill="#f7dcc6"/><path d="M198.929,350.542c-.83-1.985-2.409-6.193-6.723-5.171a26.714,26.714,0,0,0-6.487,2.29.283.283,0,0,0,.061.519,3.065,3.065,0,0,1,1.724,1.07,9.3,9.3,0,0,0,4.593,3.709c1.7.588,4.127-.68,5.62-.678a3.241,3.241,0,0,1,1.65.946.29.29,0,0,0,.459-.328C199.524,352.077,199.143,351.053,198.929,350.542Z" fill="#a05132"/><ellipse cx="3.735" cy="3.851" rx="3.735" ry="3.851" transform="translate(189.046 345.325)" fill="#4f3a2b"/><ellipse cx="2.255" cy="2.325" rx="2.255" ry="2.325" transform="translate(190.525 346.851)" fill="#35251a"/><ellipse cx="0.696" cy="0.718" rx="0.696" ry="0.718" transform="translate(190.304 347.117)" fill="#fbfcfc"/><path d="M208.109,371.282s-9.514-1.02-9.514,3.262,5.369,8.563,9.514,8.563Z" fill="#4f3a2b"/><path d="M203.352,379.641s-3.738-3.466-1.291-3.67S207.385,381.93,203.352,379.641Z" fill="#35251a"/><path d="M208.109,384.738s-5.531,3.466-8.644,3.466-11.676-9.377-11.676-8.053,3.874,7.849,7.544,12.538,4.145,14.679,12.776,14.679Z" fill="#4f3a2b"/><path d="M202.723,344.879c.364.319.383,7.162-.917,5.378s-1.376-3.144-.612-2.655S202.112,344.344,202.723,344.879Z" fill="#a05132"/><path d="M208.109,391.323s-6.762,1.57-7.985,3.1,1.971,12.539,3.992,13.558A9.86,9.86,0,0,0,208.109,409Z" fill="#f37777"/><path d="M202.367,336.622c-.8-1.063-1.937,1.02-5,2.447s-1.521,3.568,2.094,3.466S203.59,338.253,202.367,336.622Z" fill="#f7dcc6"/><path d="M216.753,325.075s5.642-5.29,12.342-5.025,24.579,11.375,24.683,21.16c.187,17.626,5.74,25.4-.985,32.263-11.5,11.741-16.362,9.634-20.965-9.787C229.164,352.452,216.753,325.075,216.753,325.075Z" fill="#a05132"/><path d="M220.411,334.266c.458-3.147.772-5.289.772-5.289s6.074-2.753,7.909-1.835,8.41,21.407,10.7,27.371-4.893,23.191,0,25.51a3.663,3.663,0,0,1,.667.406c-4.458-.624-5.88-9.214-8.634-16.743C229.333,356.867,224.015,343.357,220.411,334.266Z" fill="#8f3f25"/><path d="M208.109,324.284s15.912-5.557,19.482,5.948,11.5,22.611,11.5,29.752-8.374,31.339-15.493,31.339H208.109Z" fill="#ce783f"/><path d="M209.4,323.931s.754,29.926,5.37,35.73c7.136,8.97,17.4,13.085,16.31,19.572-1.379,8.242-9.034,14.073-11.219,22.007s-4.258,10.138-11.751,10.138V324.284Z" fill="#f7dcc6"/><path d="M217.289,350.542c.83-1.985,2.409-6.193,6.723-5.171a26.7,26.7,0,0,1,6.487,2.29.283.283,0,0,1-.061.519,3.065,3.065,0,0,0-1.724,1.07,9.3,9.3,0,0,1-4.592,3.709c-1.7.588-4.127-.68-5.621-.678a3.241,3.241,0,0,0-1.65.946.29.29,0,0,1-.459-.328C216.694,352.077,217.075,351.053,217.289,350.542Z" fill="#a05132"/><ellipse cx="3.735" cy="3.851" rx="3.735" ry="3.851" transform="translate(219.704 345.325)" fill="#4f3a2b"/><ellipse cx="2.255" cy="2.325" rx="2.255" ry="2.325" transform="translate(221.183 346.851)" fill="#35251a"/><ellipse cx="0.696" cy="0.718" rx="0.696" ry="0.718" transform="translate(224.522 347.117)" fill="#fbfcfc"/><path d="M208.109,371.282s9.514-1.02,9.514,3.262-5.368,8.563-9.514,8.563Z" fill="#4f3a2b"/><path d="M212.866,379.641s3.738-3.466,1.292-3.67S208.834,381.93,212.866,379.641Z" fill="#35251a"/><path d="M208.109,384.738s5.531,3.466,8.644,3.466,11.676-9.377,11.676-8.053-3.874,7.849-7.543,12.538-4.146,14.679-12.777,14.679Z" fill="#4f3a2b"/><path d="M213.495,344.879c-.364.319-.382,7.162.917,5.378s1.377-3.144.612-2.655S214.107,344.344,213.495,344.879Z" fill="#a05132"/><path d="M208.109,391.323s6.762,1.57,7.985,3.1-1.97,12.539-3.992,13.558A9.86,9.86,0,0,1,208.109,409Z" fill="#f37777"/><path d="M213.852,336.622c.8-1.063,1.937,1.02,4.995,2.447s1.521,3.568-2.094,3.466S212.628,338.253,213.852,336.622Z" fill="#f7dcc6"/></g></svg>
