<svg width="96px" height="96px" viewBox="-18.6 0 96 96" xmlns="http://www.w3.org/2000/svg"><g transform="translate(-562.912 -454.574)"><path d="M587.381,491.3s-2.494-4.973-5.928-13.045c-4.032-9.475-7.808-25.828-9.832-23.448s-8.7,21.644-8.7,29.46-.4,13,4.686,15.477,9.849,7.717,9.849,7.717Z" fill="#a05132"/><path d="M578.946,479.717c.79,4.083,3.648,11.629,5.519,16.332l2.916-4.748s-2.494-4.973-5.928-13.045c-1.864-4.379-3.672-10.227-5.279-15.016C576.987,468.369,578.2,475.857,578.946,479.717Z" fill="#ce783f"/><path d="M563.367,494.055a7.487,7.487,0,0,0,4.24,5.69c5.083,2.476,9.849,7.717,9.849,7.717l1.2-1.947c-1.789-2.688-4.915-7.226-6.036-7.868C571.563,497.045,566.777,495.849,563.367,494.055Z" fill="#ce783f"/><path d="M580.258,490.055s-3.3-9.025-5.033-10.24-.83,4.379-2.324,7.31-3.811,8.421,1.6,10.275S580.258,490.055,580.258,490.055Z" fill="#8a402a"/><path d="M592.311,492.762s-13.864.716-14.822,4.759-2.5,11.939-2.1,14.921,2.6,7.968,4.462,13.678,4.132,19.62,5.532,21.861,6.923,2.593,6.923,2.593Z" fill="#a05132"/><path d="M592.311,484.078s-16.89.856-18.057,5.692-3.044,14.28-2.552,17.848,3.17,9.529,5.436,16.359,5.033,17.489,6.739,20.169,8.434,3.1,8.434,3.1Z" fill="#ce783f"/><path d="M592.311,533.91s-7.5-.8-7.5,2.572,4.233,6.752,7.5,6.752Z" fill="#a05132"/><path d="M588.56,540.5s-2.947-2.733-1.018-2.894S591.74,542.306,588.56,540.5Z" fill="#8a402a"/><path d="M583.516,510.241c-.44-1.052-1.277-3.281-3.562-2.74a14.2,14.2,0,0,0-3.437,1.213.15.15,0,0,0,.033.275,1.628,1.628,0,0,1,.913.567,4.932,4.932,0,0,0,2.433,1.965c.9.312,2.186-.36,2.977-.359a1.713,1.713,0,0,1,.875.5.153.153,0,0,0,.242-.174C583.831,511.054,583.629,510.511,583.516,510.241Z" fill="#a05132"/><ellipse cx="1.978" cy="2.04" rx="1.978" ry="2.04" transform="translate(578.28 507.477)" fill="#f7a747"/><ellipse cx="1.194" cy="1.232" rx="1.194" ry="1.232" transform="translate(579.064 508.285)" fill="#3d2a2e"/><ellipse cx="0.369" cy="0.38" rx="0.369" ry="0.38" transform="translate(578.946 508.426)" fill="#fbfcfc"/><path d="M587.3,500.2c-.634,0-.14,3.014-.7,4.136s-2.664.07-2.594.7,2.454,2.26,3.716,1.831S587.863,500.2,587.3,500.2Z" fill="#a05132"/><path d="M597.242,491.3s2.493-4.973,5.928-13.045c4.031-9.475,7.808-25.828,9.831-23.448s8.7,21.644,8.7,29.46.4,13-4.686,15.477-9.849,7.717-9.849,7.717Z" fill="#a05132"/><path d="M605.676,479.717c-.789,4.083-3.647,11.629-5.518,16.332l-2.916-4.748s2.493-4.973,5.928-13.045c1.863-4.379,3.672-10.227,5.278-15.016C607.635,468.369,606.422,475.857,605.676,479.717Z" fill="#ce783f"/><path d="M621.255,494.055a7.485,7.485,0,0,1-4.24,5.69c-5.082,2.476-9.848,7.717-9.848,7.717l-1.2-1.947c1.79-2.688,4.916-7.226,6.037-7.868C613.059,497.045,617.845,495.849,621.255,494.055Z" fill="#ce783f"/><path d="M604.364,490.055s3.3-9.025,5.034-10.24.83,4.379,2.324,7.31,3.811,8.421-1.6,10.275S604.364,490.055,604.364,490.055Z" fill="#8a402a"/><path d="M592.311,492.762s13.864.716,14.822,4.759,2.5,11.939,2.1,14.921-2.6,7.968-4.462,13.678-4.132,19.62-5.532,21.861-6.923,2.593-6.923,2.593Z" fill="#a05132"/><path d="M592.311,484.078s16.89.856,18.057,5.692,3.045,14.28,2.552,17.848-3.17,9.529-5.435,16.359-5.034,17.489-6.74,20.169-8.434,3.1-8.434,3.1Z" fill="#ce783f"/><path d="M592.311,533.91s7.5-.8,7.5,2.572-4.234,6.752-7.5,6.752Z" fill="#a05132"/><path d="M596.062,540.5s2.948-2.733,1.019-2.894S592.882,542.306,596.062,540.5Z" fill="#8a402a"/><path d="M601.107,510.241c.44-1.052,1.276-3.281,3.562-2.74a14.168,14.168,0,0,1,3.436,1.213.15.15,0,0,1-.032.275,1.627,1.627,0,0,0-.914.567,4.928,4.928,0,0,1-2.433,1.965c-.9.312-2.186-.36-2.977-.359a1.715,1.715,0,0,0-.874.5.154.154,0,0,1-.243-.174C600.792,511.054,600.994,510.511,601.107,510.241Z" fill="#a05132"/><ellipse cx="1.978" cy="2.04" rx="1.978" ry="2.04" transform="translate(602.386 507.477)" fill="#f7a747"/><ellipse cx="1.194" cy="1.232" rx="1.194" ry="1.232" transform="translate(603.17 508.285)" fill="#3d2a2e"/><ellipse cx="0.369" cy="0.38" rx="0.369" ry="0.38" transform="translate(604.939 508.426)" fill="#fbfcfc"/><path d="M597.32,500.2c.635,0,.14,3.014.7,4.136s2.664.07,2.594.7-2.454,2.26-3.716,1.831S596.759,500.2,597.32,500.2Z" fill="#a05132"/></g></svg>
