<svg width="96px" height="96px" viewBox="-13.12 0 96 96" xmlns="http://www.w3.org/2000/svg" xmlns:xlink="http://www.w3.org/1999/xlink"><defs><clipPath id="a"><path d="M579.036,359.019a.567.567,0,0,0,.346-.914c-.972-1.205-2.352-3.363-3.536-3.6-1.626-.322-3.127,1.649-3.771,3.238a8.323,8.323,0,0,1,.983,2.071c.573,1.556,2.289,1.609,3.576.322A4.564,4.564,0,0,1,579.036,359.019Z" fill="#232931"/></clipPath><clipPath id="b"><path d="M606.144,359.019a.567.567,0,0,1-.347-.914c.973-1.205,2.352-3.363,3.537-3.6,1.625-.322,3.126,1.649,3.77,3.238a8.371,8.371,0,0,0-.983,2.071c-.572,1.556-2.288,1.609-3.575.322A4.571,4.571,0,0,0,606.144,359.019Z" fill="#232931"/></clipPath></defs><g transform="translate(-557.712 -317.709)"><path d="M578.93,334.835s-5.655-8.907-10.025-12.857-5.747-4.1-7.277-4.266-.181,5.933-.973,8.943-2.621,5.6-2.927,12.686,4,13.07,4.588,16.183,6.2,2.792,6.2,2.792Z" fill="#664544"/><path d="M592.59,333.092a98.018,98.018,0,0,1-13.62-.994c-5.8-.994-6.626,4.307-11.264,12.589s-2.2,14.054-3.479,21.907c-1.822,11.223-.662,16.855,6.46,21.99s4.572,15.991,10.37,18.987,11.533-5.238,11.533-5.238Z" fill="#393e46"/><path d="M576.351,394.4s-3.448-5.632-4.608-10.1-.475-15.737-1.231-14.909-.735,11.264,0,15.571S573.5,394.4,576.351,394.4Z" fill="#232931"/><path d="M579.036,359.019a.567.567,0,0,0,.346-.914c-.972-1.205-2.352-3.363-3.536-3.6-1.626-.322-3.127,1.649-3.771,3.238a8.323,8.323,0,0,1,.983,2.071c.573,1.556,2.289,1.609,3.576.322A4.564,4.564,0,0,1,579.036,359.019Z" fill="#252428"/><path d="M579.036,359.019a.567.567,0,0,0,.346-.914c-.972-1.205-2.352-3.363-3.536-3.6-1.626-.322-3.127,1.649-3.771,3.238a8.323,8.323,0,0,1,.983,2.071c.573,1.556,2.289,1.609,3.576.322A4.564,4.564,0,0,1,579.036,359.019Z" fill="#232931"/><g clip-path="url(#a)"><ellipse cx="2.492" cy="2.57" rx="2.492" ry="2.57" transform="translate(573.058 354.487)" fill="#f7a747"/><ellipse cx="1.505" cy="1.552" rx="1.505" ry="1.552" transform="translate(574.046 355.505)" fill="#232931"/><ellipse cx="0.464" cy="0.479" rx="0.464" ry="0.479" transform="translate(573.898 355.683)" fill="#fbfcfc"/></g><path d="M592.59,364.761c-3.205,0-7.8.5-10.179,4.863s-5.444,5.293-6.619,10.015c-1.425,5.725-1.18,15.978-2.748,24.159-1.159,6.048,1.126,7.365,4.612,9.4s5.022-2.181,7.443-11.036c3.056-11.182,7.491-12.931,7.491-14.125Z" fill="#606470"/><path d="M592.59,367.714c-3.916,0-8.435.823-8.8,3.612s.632,3.2,2.8,3.976a45.569,45.569,0,0,0,6,1.4Z" fill="#393e46"/><path d="M586.595,375.3a25.783,25.783,0,0,0,2.7.747h0a2.069,2.069,0,0,0,.829-2.055c-.362-1.174-1.9-2.8-3.112-2.668s-.142.771.31,2.016A1.681,1.681,0,0,1,586.595,375.3Z" fill="#232931"/><path d="M570.513,353.81l8.417-18.975s-5.655-8.907-10.025-12.857-5.747-4.1-7.277-4.266c-.349-.038-.544.261-.653.764,2.052.7,8.16,7.092,9.124,12.457s-2.851,7.7-3.21,11.011C566.612,344.485,569.267,350.947,570.513,353.81Z" fill="#393e46"/><path d="M578.026,345.479c3.467.947,6.294,5.337,8.423,7.491s.035,6.723-2.728,10.9,6.016-5.006,5.85-9.194-2.1-3.526-5.771-7.005S576.071,344.945,578.026,345.479Z" fill="#232931"/><path d="M606.249,334.835s5.656-8.907,10.026-12.857,5.747-4.1,7.277-4.266.18,5.933.972,8.943,2.621,5.6,2.928,12.686-4,13.07-4.588,16.183-6.2,2.792-6.2,2.792Z" fill="#664544"/><path d="M592.59,333.092a98.026,98.026,0,0,0,13.62-.994c5.8-.994,6.625,4.307,11.264,12.589s2.2,14.054,3.478,21.907c1.822,11.223.663,16.855-6.46,21.99s-4.572,15.991-10.369,18.987-11.533-5.238-11.533-5.238Z" fill="#393e46"/><path d="M608.828,394.4s3.448-5.632,4.608-10.1.475-15.737,1.231-14.909.735,11.264,0,15.571S611.675,394.4,608.828,394.4Z" fill="#232931"/><path d="M606.144,359.019a.567.567,0,0,1-.347-.914c.973-1.205,2.352-3.363,3.537-3.6,1.625-.322,3.126,1.649,3.77,3.238a8.371,8.371,0,0,0-.983,2.071c-.572,1.556-2.288,1.609-3.575.322A4.571,4.571,0,0,0,606.144,359.019Z" fill="#252428"/><path d="M606.144,359.019a.567.567,0,0,1-.347-.914c.973-1.205,2.352-3.363,3.537-3.6,1.625-.322,3.126,1.649,3.77,3.238a8.371,8.371,0,0,0-.983,2.071c-.572,1.556-2.288,1.609-3.575.322A4.571,4.571,0,0,0,606.144,359.019Z" fill="#232931"/><g clip-path="url(#b)"><ellipse cx="2.492" cy="2.57" rx="2.492" ry="2.57" transform="translate(607.136 354.487)" fill="#f7a747"/><ellipse cx="1.505" cy="1.552" rx="1.505" ry="1.552" transform="translate(608.124 355.505)" fill="#232931"/><ellipse cx="0.464" cy="0.479" rx="0.464" ry="0.479" transform="translate(610.352 355.683)" fill="#fbfcfc"/></g><path d="M592.59,364.761c3.2,0,7.8.5,10.178,4.863s5.444,5.293,6.62,10.015c1.425,5.725,1.18,15.978,2.747,24.159,1.16,6.048-1.125,7.365-4.612,9.4s-5.022-2.181-7.442-11.036c-3.057-11.182-7.491-12.931-7.491-14.125Z" fill="#606470"/><path d="M592.59,367.714c3.916,0,8.434.823,8.8,3.612s-.633,3.2-2.8,3.976a45.568,45.568,0,0,1-5.994,1.4Z" fill="#393e46"/><path d="M598.584,375.3a25.828,25.828,0,0,1-2.7.747h0a2.068,2.068,0,0,1-.829-2.055c.361-1.174,1.9-2.8,3.111-2.668s.142.771-.31,2.016A1.681,1.681,0,0,0,598.584,375.3Z" fill="#232931"/><path d="M614.666,353.81l-8.417-18.975s5.656-8.907,10.026-12.857,5.747-4.1,7.277-4.266c.348-.038.543.261.652.764-2.051.7-8.159,7.092-9.123,12.457s2.85,7.7,3.21,11.011C618.567,344.485,615.913,350.947,614.666,353.81Z" fill="#393e46"/><path d="M607.153,345.479c-3.467.947-6.294,5.337-8.422,7.491s-.036,6.723,2.727,10.9-6.016-5.006-5.85-9.194,2.1-3.526,5.772-7.005S609.108,344.945,607.153,345.479Z" fill="#232931"/></g></svg>
