<svg width="96px" height="96px" viewBox="-16.89 0 96 96" xmlns="http://www.w3.org/2000/svg"><g transform="translate(-304.787 -458.445)"><path d="M330.679,491.724s-1.913-10.1-7.627-17.419c-6.525-8.355-13.891-17.97-16.032-15.451s-2.219,17.157-2.224,25.428-.419,13.756,4.959,16.377,10.422,8.166,10.422,8.166Z" fill="#a05132"/><path d="M323.052,474.3l-.723-.926c.246,3.61,2.012,7.569,2.236,11.051.33,5.14-1.513,15.694-1.513,15.694l-2.7,4.708s-4.511-6.586-9.108-7.927c-2.3-.672-4.6-2.848-6.329-4.854.315,4.04,1.373,6.921,4.835,8.608,5.378,2.62,10.422,8.166,10.422,8.166l10.5-17.1S328.766,481.622,323.052,474.3Z" fill="#ce783f"/><path d="M324.488,489.786s-3.759-10.287-5.737-11.672-.946,4.992-2.649,8.332-4.344,9.6,1.823,11.712S324.488,489.786,324.488,489.786Z" fill="#8a402a"/><path d="M335.9,493.27s-14.67.757-15.684,5.035-2.644,12.634-2.217,15.79,2.754,8.431,4.722,14.473,4.372,20.762,5.853,23.133,7.326,2.744,7.326,2.744Z" fill="#a05132"/><path d="M335.9,484.081s-17.872.9-19.107,6.023-3.222,15.111-2.7,18.886,3.355,10.084,5.752,17.311,5.327,18.506,7.132,21.342,8.924,3.282,8.924,3.282Z" fill="#ce783f"/><path d="M331.927,490.007c-.515,2.967,1.942,22.143-.276,25.711s-5.373,5.944-6.861,9.9c-.959,2.549-1.382,8.078-1.562,11.692,1.4,4.617,2.746,8.766,3.744,10.334,1.8,2.837,8.924,3.282,8.924,3.282V486.446S332.442,487.04,331.927,490.007Z" fill="#f5f1db"/><path d="M335.9,536.811s-7.939-.851-7.939,2.722,4.48,7.145,7.939,7.145Z" fill="#f8a27d"/><path d="M331.927,543.786s-3.119-2.892-1.078-3.062S335.292,545.7,331.927,543.786Z" fill="#d27757"/><path d="M326.589,511.765c-.465-1.113-1.351-3.472-3.769-2.9a15.024,15.024,0,0,0-3.636,1.284.159.159,0,0,0,.034.291,1.721,1.721,0,0,1,.967.6,5.219,5.219,0,0,0,2.574,2.079c.952.33,2.313-.381,3.15-.38a1.82,1.82,0,0,1,.926.53.162.162,0,0,0,.257-.183C326.923,512.626,326.709,512.052,326.589,511.765Z" fill="#a05132"/><ellipse cx="2.093" cy="2.159" rx="2.093" ry="2.159" transform="translate(321.049 508.84)" fill="#f7a747"/><ellipse cx="1.264" cy="1.303" rx="1.264" ry="1.303" transform="translate(321.878 509.696)" fill="#3d2a2e"/><ellipse cx="0.39" cy="0.402" rx="0.39" ry="0.402" transform="translate(321.754 509.845)" fill="#fbfcfc"/><path d="M330.6,501.135c-.672,0-.148,3.19-.742,4.377s-2.819.074-2.745.742,2.6,2.391,3.932,1.937S331.19,501.135,330.6,501.135Z" fill="#a05132"/><path d="M341.114,491.724s1.913-10.1,7.626-17.419c6.525-8.355,13.892-17.97,16.032-15.451s2.219,17.157,2.224,25.428.42,13.756-4.959,16.377-10.421,8.166-10.421,8.166Z" fill="#a05132"/><path d="M348.74,474.3l.723-.926c-.245,3.61-2.012,7.569-2.235,11.051-.33,5.14,1.512,15.694,1.512,15.694l2.7,4.708s4.512-6.586,9.108-7.927c2.3-.672,4.605-2.848,6.33-4.854-.316,4.04-1.373,6.921-4.836,8.608-5.378,2.62-10.421,8.166-10.421,8.166l-10.5-17.1S343.027,481.622,348.74,474.3Z" fill="#ce783f"/><path d="M347.3,489.786s3.759-10.287,5.738-11.672.945,4.992,2.649,8.332,4.343,9.6-1.824,11.712S347.3,489.786,347.3,489.786Z" fill="#8a402a"/><path d="M335.9,493.27s14.671.757,15.684,5.035,2.645,12.634,2.217,15.79-2.753,8.431-4.721,14.473S344.7,549.33,343.222,551.7s-7.326,2.744-7.326,2.744Z" fill="#a05132"/><path d="M335.9,484.081s17.873.9,19.108,6.023,3.221,15.111,2.7,18.886-3.354,10.084-5.752,17.311-5.326,18.506-7.131,21.342-8.925,3.282-8.925,3.282Z" fill="#ce783f"/><path d="M339.866,490.007c.514,2.967-1.942,22.143.275,25.711s5.373,5.944,6.862,9.9c.959,2.549,1.382,8.078,1.562,11.692-1.4,4.617-2.746,8.766-3.744,10.334-1.805,2.837-8.925,3.282-8.925,3.282V486.446S339.351,487.04,339.866,490.007Z" fill="#f5f1db"/><path d="M335.9,536.811s7.939-.851,7.939,2.722-4.48,7.145-7.939,7.145Z" fill="#f8a27d"/><path d="M339.866,543.786s3.119-2.892,1.077-3.062S336.5,545.7,339.866,543.786Z" fill="#d27757"/><path d="M345.2,511.765c.466-1.113,1.351-3.472,3.769-2.9a15.038,15.038,0,0,1,3.637,1.284.159.159,0,0,1-.035.291,1.716,1.716,0,0,0-.966.6,5.224,5.224,0,0,1-2.574,2.079c-.953.33-2.314-.381-3.151-.38a1.814,1.814,0,0,0-.925.53.162.162,0,0,1-.257-.183C344.87,512.626,345.084,512.052,345.2,511.765Z" fill="#a05132"/><ellipse cx="2.093" cy="2.159" rx="2.093" ry="2.159" transform="translate(346.557 508.84)" fill="#f7a747"/><ellipse cx="1.264" cy="1.303" rx="1.264" ry="1.303" transform="translate(347.387 509.696)" fill="#3d2a2e"/><ellipse cx="0.39" cy="0.402" rx="0.39" ry="0.402" transform="translate(349.258 509.845)" fill="#fbfcfc"/><path d="M341.2,501.135c.672,0,.149,3.19.742,4.377s2.819.074,2.745.742-2.6,2.391-3.932,1.937S340.6,501.135,341.2,501.135Z" fill="#a05132"/></g></svg>
