<svg width="95.999px" height="95.999px" viewBox="-13.52 0 95.999 95.999" xmlns="http://www.w3.org/2000/svg" xmlns:xlink="http://www.w3.org/1999/xlink"><defs><clipPath id="a"><path d="M200.717,629.505c-.18-4.393-1.786-3.772-3.649-2.408-.944.691-2.627,1.605-2.846,2.408s1.533,1.532,3.248,1.532C200.352,631.037,200.754,630.4,200.717,629.505Z" fill="none"/></clipPath><clipPath id="b"><path d="M215.5,629.505c.18-4.393,1.786-3.772,3.649-2.408.944.691,2.627,1.605,2.846,2.408s-1.533,1.532-3.248,1.532C215.866,631.037,215.464,630.4,215.5,629.505Z" fill="none"/></clipPath></defs><g transform="translate(-173.628 -605.862)"><path d="M190.406,619.808a16.418,16.418,0,0,0-4.248,7.15c-1.478,4.755-6.1,11.757-9.051,18.876s-.924,20.13-.554,25.077-4.987,15.475-2.032,22.864,19.461,12.854,21.09,1.871.706-26.633,1.075-32.261-3.273-21.429-3.391-24.889S190.406,619.808,190.406,619.808Z" fill="#a05132"/><path d="M195.611,695.646c1.629-10.984.706-26.633,1.075-32.261s-3.273-21.429-3.391-24.889c-.013-.37-.057-.882-.124-1.489l-3.33-1.607s2.165,15.522,2.442,25.127c.253,8.751,2.343,33.449.618,39.969A6.93,6.93,0,0,0,195.611,695.646Z" fill="#8f3f25"/><path d="M208.107,605.862c-11.363,0-14.76,5.463-16.864,9.931s-3.272,10.84-3.272,17.074,2.3,6.513,4.89,18.91,2.265,20.571,6.31,21.818a34.927,34.927,0,0,0,8.936,1.225Z" fill="#ce783f"/><path d="M202.3,666.964s.228,6.891,0,13.8,1.886,9.552,5.816,9.552V666.068Z" fill="#f37777"/><path d="M208.107,664.933a7.361,7.361,0,0,1-2.029,5.158c-2.3,2.673-2.158,5.677-6.591,4.729s-6.65-9.314-4.156-14.828,2.215-10.646,5.748-15.492,5.473-8.49,5.473-17.542-10.456-19.569,1.564-20Z" fill="#f5f1db"/><path d="M200.717,629.505c-.18-4.393-1.786-3.772-3.649-2.408-.944.691-2.627,1.605-2.846,2.408s1.533,1.532,3.248,1.532C200.352,631.037,200.754,630.4,200.717,629.505Z" fill="#f5f1db"/><g clip-path="url(#a)"><ellipse cx="2.365" cy="2.439" rx="2.365" ry="2.439" transform="translate(195.5 626.059)" fill="#a05132"/><ellipse cx="1.428" cy="1.472" rx="1.428" ry="1.472" transform="translate(196.437 627.025)" fill="#3d2a2e"/><ellipse cx="0.441" cy="0.454" rx="0.441" ry="0.454" transform="translate(196.296 627.194)" fill="#fbfcfc"/></g><path d="M208.116,651.846c-3.642,0-7.208,5.606-7.037,6.763s7.037,1.383,7.037,1.383Z" fill="#ce783f"/><path d="M208.107,656.2s-7.028-.753-7.028,2.41,3.966,6.324,7.028,6.324Z" fill="#4c383d"/><path d="M204.593,662.373s-2.761-2.56-.954-2.71S207.572,664.064,204.593,662.373Z" fill="#3d2a2e"/><path d="M193.684,624.845c.476.344,5.051-2.411,6.334-2.285s1.792,2.348,2.3,2.6-.063-2.919-1.205-4.125-1.97.191-3.65,1.27S192.984,624.337,193.684,624.845Z" fill="#a05132"/><path d="M225.812,619.808a16.425,16.425,0,0,1,4.249,7.15c1.477,4.755,6.1,11.757,9.05,18.876s.924,20.13.554,25.077,4.988,15.475,2.032,22.864-19.461,12.854-21.09,1.871-.705-26.633-1.075-32.261,3.273-21.429,3.391-24.889S225.812,619.808,225.812,619.808Z" fill="#a05132"/><path d="M220.607,695.646c-1.629-10.984-.705-26.633-1.075-32.261s3.273-21.429,3.391-24.889c.013-.37.058-.882.124-1.489l3.33-1.607s-2.165,15.522-2.442,25.127c-.253,8.751-2.343,33.449-.618,39.969A6.93,6.93,0,0,1,220.607,695.646Z" fill="#8f3f25"/><path d="M208.112,605.862c11.362,0,14.76,5.463,16.863,9.931s3.272,10.84,3.272,17.074-2.3,6.513-4.89,18.91-2.265,20.571-6.31,21.818a34.917,34.917,0,0,1-8.935,1.225Z" fill="#ce783f"/><path d="M213.918,666.964s-.227,6.891,0,13.8-1.885,9.552-5.816,9.552V666.068Z" fill="#f37777"/><path d="M208.112,664.933a7.363,7.363,0,0,0,2.028,5.158c2.3,2.673,2.158,5.677,6.591,4.729s6.65-9.314,4.156-14.828-2.215-10.646-5.748-15.492-5.473-8.49-5.473-17.542,10.456-19.569-1.564-20Z" fill="#f5f1db"/><path d="M215.5,629.505c.18-4.393,1.786-3.772,3.649-2.408.944.691,2.627,1.605,2.846,2.408s-1.533,1.532-3.248,1.532C215.866,631.037,215.464,630.4,215.5,629.505Z" fill="#f5f1db"/><g clip-path="url(#b)"><ellipse cx="2.365" cy="2.439" rx="2.365" ry="2.439" transform="translate(215.989 626.059)" fill="#a05132"/><ellipse cx="1.428" cy="1.472" rx="1.428" ry="1.472" transform="translate(216.926 627.025)" fill="#3d2a2e"/><ellipse cx="0.441" cy="0.454" rx="0.441" ry="0.454" transform="translate(219.04 627.194)" fill="#fbfcfc"/></g><path d="M208.1,651.846c3.642,0,7.208,5.606,7.037,6.763s-7.037,1.383-7.037,1.383Z" fill="#ce783f"/><path d="M208.112,656.2s7.027-.753,7.027,2.41-3.965,6.324-7.027,6.324Z" fill="#4c383d"/><path d="M211.625,662.373s2.761-2.56.954-2.71S208.647,664.064,211.625,662.373Z" fill="#3d2a2e"/><path d="M222.534,624.845c-.475.344-5.05-2.411-6.334-2.285s-1.791,2.348-2.3,2.6.063-2.919,1.206-4.125,1.969.191,3.65,1.27S223.235,624.337,222.534,624.845Z" fill="#a05132"/></g></svg>
