<svg width="96px" height="96px" viewBox="-3.46 0 96 96" xmlns="http://www.w3.org/2000/svg" xmlns:xlink="http://www.w3.org/1999/xlink"><defs><clipPath id="a"><path d="M712.233,640.119c-.174-4.249-1.727-3.649-3.529-2.329-.913.668-2.541,1.553-2.753,2.329s1.482,1.482,3.141,1.482C711.88,641.6,712.269,640.987,712.233,640.119Z" fill="#232931"/></clipPath><clipPath id="b"><path d="M728.8,640.119c.175-4.249,1.728-3.649,3.53-2.329.913.668,2.541,1.553,2.752,2.329s-1.482,1.482-3.141,1.482C729.157,641.6,728.768,640.987,728.8,640.119Z" fill="#232931"/></clipPath></defs><g transform="translate(-675.977 -605.862)"><path d="M720.472,612.5s-.313-2.484-3.43-4.45-6.01.171-7.817-2.186a5.849,5.849,0,0,0,2.218,3.366s-1.349-1.124-5.51-.048a27.351,27.351,0,0,1-5.757,1.076l2.214,1s-2.773.777-6.238,2.073l-3.465,1.3h2.824a13.906,13.906,0,0,1-5.729,4.719s.272.334,1.957.6a35.75,35.75,0,0,1-8.068,9.545c-5.1,4.1-7.694,11.587-7.694,11.587l4.18-1.86a57.01,57.01,0,0,0-3.674,13.031l2.578-1.261s-2.823,7.5-1.473,12.975.736,8.419.736,8.419a9.076,9.076,0,0,0,2.578-3.84,7.01,7.01,0,0,0,.737,4.774l1.105-1.834a43.6,43.6,0,0,0,2.946,7.161c1.841,3.437,7.488,7.611,7.488,7.611l.123-2.788a16.463,16.463,0,0,1,2.7,3.408,40.417,40.417,0,0,1,2.084,3.8s.862-3.178.985-3.8c0,0,2.523,5.395,5.988,7.359v-3.314s4.751,2.332,7.176,5.033v-2.98s1.473,3.839,3.668,4.944,2.441,3.956,2.441,3.956l2.128-4.938V612.5Z" fill="#393e46"/><path d="M720.472,625.723a6.683,6.683,0,0,0-5.572-4.992,15.59,15.59,0,0,1-7.113-2.611l3.656,4.1a9.058,9.058,0,0,0-7.336,4.7,72.354,72.354,0,0,1-6.021,8.722l3.808-1.745s-2.7,12.392-3.808,13.158h2.581a20.5,20.5,0,0,0-2.581,8.879l1.844-1.114s-2.21,9.676,1.473,14.228l.246-3.633,6.383,6.652,12.44,8.65Z" fill="#232931"/><path d="M720.472,656.86s-5.32.467-7.652,4.223-.836,12.065-1.339,16.75a3.912,3.912,0,0,0,5.663,4.228,13.717,13.717,0,0,1,3.328-1.508Z" fill="#393e46"/><path d="M712.233,640.119c-.174-4.249-1.727-3.649-3.529-2.329-.913.668-2.541,1.553-2.753,2.329s1.482,1.482,3.141,1.482C711.88,641.6,712.269,640.987,712.233,640.119Z" fill="#262128"/><path d="M712.233,640.119c-.174-4.249-1.727-3.649-3.529-2.329-.913.668-2.541,1.553-2.753,2.329s1.482,1.482,3.141,1.482C711.88,641.6,712.269,640.987,712.233,640.119Z" fill="#232931"/><g clip-path="url(#a)"><ellipse cx="2.287" cy="2.359" rx="2.287" ry="2.359" transform="translate(707.186 636.786)" fill="#4c383d"/><ellipse cx="1.381" cy="1.424" rx="1.381" ry="1.424" transform="translate(708.093 637.72)" fill="#3d2a2e"/><ellipse cx="0.426" cy="0.44" rx="0.426" ry="0.44" transform="translate(707.957 637.884)" fill="#fbfcfc"/></g><path d="M716.083,629.769c-1.284-1.278-1.422,2.068-6.209,2.858-2.5.413,4.741,3.646,6.209,3.033S717.575,631.255,716.083,629.769Z" fill="#a05132"/><path d="M687,643.453s-2.4,3.6-3.328,10.409l1.664-2.577a79.15,79.15,0,0,1,0,9.062L687,658.868s-1.636,6.409,0,9.67l1.146-2.451a28.911,28.911,0,0,0,1.637,5.98l.655-1.824s3.6,2.4,4.583,4.842a11.21,11.21,0,0,0,2.128,3.575s-.328-6.045-2.292-8.417-5.074-7.086-5.074-7.086v2.93a34.293,34.293,0,0,1-.982-9.613c.327-4.644.327-6.416.327-6.416l-1.146,2.754S686.017,650.462,687,643.453Z" fill="#232931"/><path d="M695.254,623.875s-2.458,1.849-4.529,6.586l1.627-.792a32.942,32.942,0,0,0-2.159,7.589l-.588,4.036,2.491-4.447s-1.914,5.342-2.424,7.072c0,0,3.225-5.56,3.848-8.3s1.179-4.639,1.179-4.639l-3.017,3.336S694.065,626.027,695.254,623.875Z" fill="#232931"/><path d="M720.472,635.642c-3.493,0-10.522,4.361-13.686,10.457s-3.228,24.128-1.727,31.715,8.282,6.787,9.8,6.2,1.135-12.983,2.8-16.594,2.812-2.817,2.812-6.25Z" fill="#393e46"/><path d="M705.059,677.814c1.5,7.587,8.282,6.787,9.8,6.2s1.135-12.983,2.8-16.594,2.812-2.817,2.812-6.25v-9.506c-5.674.7-9.04-12.766-13.686-5.566C703.621,652.2,703.558,670.227,705.059,677.814Z" fill="#a05132"/><path d="M712.486,650.3c-.105,2.267,7.986,4.522,7.986,4.522V642.852S712.736,644.872,712.486,650.3Z" fill="#393e46"/><path d="M720.472,642.852a22.869,22.869,0,0,0-5.527,1.02c-1.757.765-3.338,5.2-2.459,6.426s2.97.459,3.68,0-1.237-3.978,0-3.825,2.292,5.2,1.062,5.508,3.244,2.839,3.244,2.839Z" fill="#232931"/><path d="M720.472,612.5a7.276,7.276,0,0,1,3.524-4.45c3.117-1.966,6.01.171,7.816-2.186a5.85,5.85,0,0,1-2.217,3.366s1.348-1.124,5.509-.048a27.351,27.351,0,0,0,5.758,1.076l-2.214,1s2.773.777,6.237,2.073l3.465,1.3h-2.823a13.9,13.9,0,0,0,5.728,4.719s-.272.334-1.956.6a35.757,35.757,0,0,0,8.067,9.545c5.1,4.1,7.695,11.587,7.695,11.587l-4.181-1.86a56.948,56.948,0,0,1,3.674,13.031l-2.578-1.261s2.824,7.5,1.474,12.975-.737,8.419-.737,8.419a9.086,9.086,0,0,1-2.578-3.84,7.006,7.006,0,0,1-.736,4.774l-1.1-1.834a43.55,43.55,0,0,1-2.947,7.161c-1.841,3.437-7.488,7.611-7.488,7.611l-.123-2.788a16.44,16.44,0,0,0-2.7,3.408,40.305,40.305,0,0,0-2.085,3.8s-.862-3.178-.984-3.8c0,0-2.524,5.395-5.988,7.359v-3.314s-4.751,2.332-7.177,5.033v-2.98s-1.473,3.839-3.668,4.944-2.441,3.956-2.441,3.956l-.736-4.938-1.485,2.087Z" fill="#393e46"/><path d="M720.472,625.723a6.872,6.872,0,0,1,5.666-4.992,15.589,15.589,0,0,0,7.113-2.611l-3.656,4.1a9.056,9.056,0,0,1,7.335,4.7,72.354,72.354,0,0,0,6.021,8.722l-3.808-1.745s2.706,12.392,3.808,13.158h-2.58a20.506,20.506,0,0,1,2.58,8.879l-1.844-1.114s2.21,9.676-1.473,14.228l-.245-3.633-6.384,6.652-12.533,8.65Z" fill="#232931"/><path d="M720.472,656.86s5.413.467,7.746,4.223.836,12.065,1.338,16.75a3.911,3.911,0,0,1-5.662,4.228,13.576,13.576,0,0,0-3.422-1.508Z" fill="#393e46"/><path d="M728.8,640.119c.175-4.249,1.728-3.649,3.53-2.329.913.668,2.541,1.553,2.752,2.329s-1.482,1.482-3.141,1.482C729.157,641.6,728.768,640.987,728.8,640.119Z" fill="#262128"/><path d="M728.8,640.119c.175-4.249,1.728-3.649,3.53-2.329.913.668,2.541,1.553,2.752,2.329s-1.482,1.482-3.141,1.482C729.157,641.6,728.768,640.987,728.8,640.119Z" fill="#232931"/><g clip-path="url(#b)"><ellipse cx="2.287" cy="2.359" rx="2.287" ry="2.359" transform="translate(729.276 636.786)" fill="#4c383d"/><ellipse cx="1.381" cy="1.424" rx="1.381" ry="1.424" transform="translate(730.182 637.72)" fill="#3d2a2e"/><ellipse cx="0.426" cy="0.44" rx="0.426" ry="0.44" transform="translate(732.228 637.884)" fill="#fbfcfc"/></g><path d="M724.955,629.769c1.283-1.278,1.421,2.068,6.209,2.858,2.5.413-4.742,3.646-6.209,3.033S723.462,631.255,724.955,629.769Z" fill="#a05132"/><path d="M754.038,643.453s2.4,3.6,3.328,10.409l-1.664-2.577a79.134,79.134,0,0,0,0,9.062l-1.664-1.479s1.637,6.409,0,9.67l-1.146-2.451a28.846,28.846,0,0,1-1.637,5.98l-.654-1.824s-3.6,2.4-4.583,4.842a11.21,11.21,0,0,1-2.128,3.575s.327-6.045,2.291-8.417,5.074-7.086,5.074-7.086v2.93a34.271,34.271,0,0,0,.983-9.613c-.328-4.644-.328-6.416-.328-6.416l1.146,2.754S755.02,650.462,754.038,643.453Z" fill="#232931"/><path d="M745.783,623.875s2.458,1.849,4.53,6.586l-1.627-.792a32.969,32.969,0,0,1,2.158,7.589l.588,4.036-2.491-4.447s1.915,5.342,2.424,7.072c0,0-3.224-5.56-3.847-8.3s-1.18-4.639-1.18-4.639l3.017,3.336S746.972,626.027,745.783,623.875Z" fill="#232931"/><path d="M720.472,635.642c3.493,0,10.615,4.361,13.78,10.457s3.227,24.128,1.727,31.715-8.283,6.787-9.8,6.2-1.134-12.983-2.8-16.594-2.905-2.817-2.905-6.25Z" fill="#393e46"/><path d="M735.979,677.814c-1.5,7.587-8.283,6.787-9.8,6.2s-1.135-12.983-2.8-16.594-2.905-2.817-2.905-6.25v-9.506c5.675.7,9.134-12.766,13.78-5.566C737.416,652.2,737.479,670.227,735.979,677.814Z" fill="#a05132"/><path d="M728.552,650.3c.1,2.267-8.08,4.522-8.08,4.522V642.852S728.3,644.872,728.552,650.3Z" fill="#393e46"/><path d="M720.472,642.852a23.387,23.387,0,0,1,5.621,1.02c1.756.765,3.337,5.2,2.459,6.426s-2.97.459-3.681,0,1.238-3.978,0-3.825-2.291,5.2-1.062,5.508-3.337,2.839-3.337,2.839Z" fill="#232931"/></g></svg>
