<?xml version="1.0" ?><!DOCTYPE svg  PUBLIC '-//W3C//DTD SVG 1.1//EN'  'http://www.w3.org/Graphics/SVG/1.1/DTD/svg11.dtd'><svg width="512px" height="512px" viewBox="0 0 512 512" id="Layer_1" style="enable-background:new 0 0 512 512;" version="1.1" xml:space="preserve" xmlns="http://www.w3.org/2000/svg" xmlns:xlink="http://www.w3.org/1999/xlink"><style type="text/css">
	.st0{fill:#EEEDF2;}
	.st1{fill:none;stroke:#1E247E;stroke-width:6;stroke-linecap:round;stroke-miterlimit:10;}
	.st2{fill:#EFC12F;stroke:#1E247E;stroke-width:6;stroke-linecap:round;stroke-miterlimit:10;}
	.st3{fill:none;stroke:#1E247E;stroke-width:3;stroke-linecap:round;stroke-miterlimit:10;}
	.st4{fill:#FFFFFF;stroke:#1E247E;stroke-width:3;stroke-linecap:round;stroke-miterlimit:10;}
	.st5{fill:#FCF5F2;stroke:#1E247E;stroke-width:5;stroke-linecap:round;stroke-miterlimit:10;}
	.st6{fill:#FCF5F2;stroke:#1E247E;stroke-width:6;stroke-linecap:round;stroke-miterlimit:10;}
	.st7{fill:#1E247E;}
	.st8{fill:none;stroke:#1E247E;stroke-width:4;stroke-linecap:round;stroke-miterlimit:10;}
	.st9{fill:#EAB8B1;}
	.st10{fill:#DC9695;stroke:#1E247E;stroke-width:4;stroke-linecap:round;stroke-miterlimit:10;}
	.st11{fill:#EECED1;stroke:#1E247E;stroke-width:3;stroke-linecap:round;stroke-miterlimit:10;}
	.st12{fill:#CB7272;stroke:#1E247E;stroke-width:3;stroke-linecap:round;stroke-miterlimit:10;}
	.st13{fill:#D3D5E7;stroke:#1E247E;stroke-width:6;stroke-linecap:round;stroke-miterlimit:10;}
	.st14{fill:#D3D5E7;}
	.st15{fill:#FFFFFF;stroke:#1E247E;stroke-width:5;stroke-linecap:round;stroke-miterlimit:10;}
	.st16{fill:#FFFFFF;stroke:#1E247E;stroke-width:4;stroke-linecap:round;stroke-miterlimit:10;}
	.st17{fill:#ECECEE;}
	.st18{fill:#DA867D;stroke:#1E247E;stroke-width:4;stroke-linecap:round;stroke-miterlimit:10;}
	.st19{fill:#FCF5F2;stroke:#1E247E;stroke-width:4;stroke-linecap:round;stroke-miterlimit:10;}
	.st20{fill:#69AEF8;stroke:#1E247E;stroke-width:6;stroke-linecap:round;stroke-miterlimit:10;}
	.st21{opacity:0.4;fill:#FFFFFF;}
	.st22{opacity:0.7;fill:#FFFFFF;}
	.st23{fill:#69ADF7;stroke:#1E247E;stroke-width:2.5;stroke-linecap:round;stroke-miterlimit:10;}
	.st24{fill:none;stroke:#FFFFFF;stroke-width:7;stroke-linecap:round;stroke-miterlimit:10;}
	.st25{fill:none;stroke:#1E247E;stroke-width:2.5;stroke-linecap:round;stroke-miterlimit:10;}
	.st26{fill:#F0C330;stroke:#1E247E;stroke-width:6;stroke-linecap:round;stroke-miterlimit:10;}
	.st27{opacity:0.3;}
	.st28{fill:#FFFFFF;}
	.st29{fill:#79CAA1;stroke:#1E247E;stroke-width:6;stroke-linecap:round;stroke-miterlimit:10;}
	.st30{fill:#DA867D;stroke:#1E247E;stroke-width:6;stroke-linecap:round;stroke-miterlimit:10;}
	.st31{fill:#FFFFFF;stroke:#1E247E;stroke-width:6;stroke-linecap:round;stroke-miterlimit:10;}
	.st32{fill:#DBE7FE;stroke:#1E247E;stroke-width:5;stroke-linecap:round;stroke-miterlimit:10;}
	.st33{fill:#F2F3F3;}
	.st34{fill:none;stroke:#1E247E;stroke-width:6;stroke-linecap:round;stroke-linejoin:round;stroke-miterlimit:10;}
	.st35{fill:#DBE7FE;stroke:#1E247E;stroke-width:6;stroke-linecap:round;stroke-linejoin:round;stroke-miterlimit:10;}
	.st36{fill:#EFC230;stroke:#1E247E;stroke-width:6;stroke-linecap:round;stroke-linejoin:round;stroke-miterlimit:10;}
	.st37{fill:none;stroke:#1E247E;stroke-width:3;stroke-linecap:round;stroke-linejoin:round;stroke-miterlimit:10;}
	.st38{fill:#F0C330;stroke:#1E247E;stroke-width:6;stroke-linecap:round;stroke-linejoin:round;stroke-miterlimit:10;}
	.st39{fill:#79CAA1;stroke:#1E247E;stroke-width:6;stroke-linecap:round;stroke-linejoin:round;stroke-miterlimit:10;}
	.st40{fill:#FFFFFF;stroke:#1E247E;stroke-width:6;stroke-linecap:round;stroke-linejoin:round;stroke-miterlimit:10;}
	.st41{fill:#DA867D;stroke:#1E247E;stroke-width:6;stroke-linecap:round;stroke-linejoin:round;stroke-miterlimit:10;}
	.st42{fill:#DBE7FE;stroke:#1E247E;stroke-width:6;stroke-linejoin:round;stroke-miterlimit:10;}
	.st43{fill:none;stroke:#1E247E;stroke-width:6;stroke-linejoin:round;stroke-miterlimit:10;}
	.st44{opacity:0.7;}
	.st45{fill:#FFFFFF;stroke:#1E247E;stroke-width:6;stroke-linejoin:round;stroke-miterlimit:10;}
	.st46{fill:none;stroke:#FFFFFF;stroke-width:3;stroke-linecap:round;stroke-linejoin:round;stroke-miterlimit:10;}
	.st47{fill:none;stroke:#1E247E;stroke-width:5;stroke-linecap:round;stroke-miterlimit:10;}
	.st48{fill:#DBE7FE;stroke:#1E247E;stroke-width:6;stroke-linecap:round;stroke-miterlimit:10;}
	.st49{opacity:0.1;fill:#BDBDBD;}
	.st50{fill:#69AEF8;stroke:#1E247E;stroke-width:6;stroke-linecap:round;stroke-linejoin:round;stroke-miterlimit:10;}
	.st51{fill:#79CAA1;stroke:#1E247E;stroke-width:5;stroke-miterlimit:10;}
	.st52{fill:#D2D4E6;stroke:#1E247E;stroke-width:5;stroke-linecap:round;stroke-miterlimit:10;}
	.st53{fill:#69AEF8;stroke:#1E247E;stroke-width:5;stroke-miterlimit:10;}
	.st54{opacity:0.2;fill:none;stroke:#1E247E;stroke-width:5;stroke-linecap:round;stroke-miterlimit:10;}
	.st55{fill:none;stroke:#1E247E;stroke-width:2.5;stroke-linecap:round;stroke-linejoin:round;stroke-miterlimit:10;}
	.st56{fill:#69AEF8;stroke:#1E247E;stroke-width:6;stroke-miterlimit:10;}
	.st57{fill:#DBE7FE;}
	.st58{fill:#FFFFFF;stroke:#1E247E;stroke-width:6;stroke-miterlimit:10;}
	.st59{fill:#D9857D;stroke:#1E247E;stroke-width:5;stroke-miterlimit:10;}
	.st60{fill:none;stroke:#D3D5E7;stroke-width:4.7904;stroke-linecap:round;stroke-miterlimit:10;}
	.st61{fill:#D2D4E6;stroke:#D3D5E7;stroke-width:4.7904;stroke-linecap:round;stroke-miterlimit:10;}
	.st62{fill:#D2D4E6;stroke:#D3D5E7;stroke-width:5.5;stroke-linecap:round;stroke-miterlimit:10;}
	.st63{fill:none;stroke:#D3D5E7;stroke-width:5.5;stroke-linecap:round;stroke-miterlimit:10;}
	.st64{fill:#79CAA1;}
	.st65{fill:#F0C330;}
	.st66{fill:#79CAA1;stroke:#1E247E;stroke-width:6;stroke-miterlimit:10;}
	.st67{opacity:0.8;fill:#FFFFFF;}
	.st68{fill:#DA867D;stroke:#1E247E;stroke-width:6;stroke-miterlimit:10;}
	.st69{fill:#F0C330;stroke:#1E247E;stroke-width:5;stroke-miterlimit:10;}
	.st70{fill:#D2D4E6;}
	.st71{fill:#EEBDBC;stroke:#D3D5E7;stroke-width:5.5;stroke-linecap:round;stroke-miterlimit:10;}
	.st72{fill:#D3D5E7;stroke:#D3D5E7;stroke-width:5.5;stroke-linecap:round;stroke-miterlimit:10;}
</style><g><g id="Gallery"><circle class="st0" cx="256" cy="256" id="Background_19_" r="215.6"/><g id="Picture_in_frame"><g id="Sparkles_18_"><line class="st24" id="Bottom_64_" x1="369.8" x2="361.6" y1="119.2" y2="122.1"/><line class="st24" id="Middle_54_" x1="360" x2="353.8" y1="107.7" y2="115.3"/><line class="st24" id="Top_66_" x1="344.8" x2="345.6" y1="109.8" y2="100.6"/></g><path class="st14" d="M432.3,448.6H109.7c-11.2,0-20.2-9-20.2-20.2V193.9c0-11.2,9-20.2,20.2-20.2h322.6      c11.2,0,20.2,9,20.2,20.2v234.6C452.5,439.6,443.5,448.6,432.3,448.6z" id="Shadow_51_"/><path class="st34" d="M180,158.3l69.8-99c2.8-3.9,8.5-3.9,11.3,0l69.8,99" id="Wire"/><circle class="st35" cx="255.5" cy="65" id="Pin_1_" r="8.5"/><g id="Frame_1_"><path class="st31" d="M417.2,433.3H94.6c-11.2,0-20.2-9-20.2-20.2V178.5c0-11.2,9-20.2,20.2-20.2h322.6       c11.2,0,20.2,9,20.2,20.2v234.6C437.4,424.3,428.4,433.3,417.2,433.3z" id="Shape_72_"/><g id="Corner_lines_1_"><line class="st36" id="_x34_th_8_" x1="80.5" x2="101.5" y1="427.5" y2="404.4"/><line class="st36" id="_x33_rd_16_" x1="432.2" x2="409.2" y1="426.7" y2="404.6"/><line class="st36" id="_x32_nd_17_" x1="432.1" x2="409.5" y1="164.8" y2="187.4"/><line class="st36" id="_x31_st_17_" x1="80.6" x2="101.5" y1="164" y2="187.4"/></g><g id="Small_lines"><line class="st37" id="Top_left_1_" x1="148.9" x2="159.4" y1="173.7" y2="173.7"/><line class="st37" id="Top_right_1_" x1="326.2" x2="336.7" y1="173.9" y2="173.9"/><line class="st37" id="Right_45_" x1="89.5" x2="100" y1="349.6" y2="349.6"/><line class="st37" id="Bottom_left_1_" x1="161.8" x2="172.3" y1="417.7" y2="417.7"/><line class="st37" id="Bottom_right_1_" x1="350.7" x2="361.2" y1="417.7" y2="417.7"/><line class="st37" id="Left_46_" x1="426.8" x2="437.3" y1="282.4" y2="282.4"/></g></g><g id="Picture"><path class="st20" d="M405.9,405.8H105c-2.7,0-4.9-2.2-4.9-4.9V190.7c0-2.7,2.2-4.9,4.9-4.9h300.9       c2.7,0,4.9,2.2,4.9,4.9v210.2C410.8,403.6,408.6,405.8,405.9,405.8z" id="Shape_71_"/><circle class="st38" cx="288.3" cy="258.1" id="Sun" r="24.3"/><g id="Mountains"><g id="Right_44_"><path class="st39" d="M393.7,405.8H285.7l27.4-47.9l21.9-38.3c2.1-3.7,7.5-3.7,9.6,0l23.3,40.8L393.7,405.8z         " id="Bottom_63_"/><path class="st40" d="M316.7,351.5l18.2-31.9c2.1-3.7,7.5-3.7,9.6,0l23.3,40.8l1.1,1.9l-18.2-9.5l-11.8,8.6         l-11-8.4l-16.1,7L316.7,351.5z" id="Top_65_"/></g><g id="Left_45_"><path class="st41" d="M300.2,405.8h-181c-1.5,0-2.5-1.6-1.7-3l47-82.4l40-70.1c2.3-4,8.1-4,10.4,0l42.1,73.8         l44.9,78.6C302.7,404.2,301.8,405.8,300.2,405.8z" id="Bottom_62_"/><path class="st40" d="M257,324.2l-7.7,9.1l-23-12.1l-16.6,12.1l-17.4-11l-14,11l-13.8-12.9l40-70.1         c2.3-4,8.1-4,10.4,0L257,324.2z" id="Top_64_"/><g id="Lines_32_"><line class="st25" id="Bottom_61_" x1="171.1" x2="179.1" y1="366.6" y2="372.8"/><line class="st25" id="Middle_53_" x1="171.1" x2="187.1" y1="358.9" y2="371.2"/><line class="st25" id="Top_63_" x1="182.7" x2="187.1" y1="360" y2="363.4"/></g></g></g><path class="st28" d="M154.5,242c-12.9-0.7-12.6-15-12.6-15c-0.3,15.8-13.3,15-13.3,15s13.3,1.3,13.3,14.6       C141.9,256.6,143.6,243.3,154.5,242" id="Sparkle"/></g></g></g></g></svg>