<?xml version="1.0" ?><!DOCTYPE svg  PUBLIC '-//W3C//DTD SVG 1.1//EN'  'http://www.w3.org/Graphics/SVG/1.1/DTD/svg11.dtd'><svg width="512px" height="512px" viewBox="0 0 512 512" id="Layer_1" style="enable-background:new 0 0 512 512;" version="1.1" xml:space="preserve" xmlns="http://www.w3.org/2000/svg" xmlns:xlink="http://www.w3.org/1999/xlink"><style type="text/css">
	.st0{fill:#EEEDF2;}
	.st1{fill:#D3D5E7;}
	.st2{fill:#FFFFFF;stroke:#1E247E;stroke-width:6;stroke-linecap:round;stroke-miterlimit:10;}
	.st3{fill:#DA867D;stroke:#1E247E;stroke-width:6;stroke-linecap:round;stroke-miterlimit:10;}
	.st4{fill:none;stroke:#1E247E;stroke-width:3;stroke-linecap:round;stroke-miterlimit:10;}
	.st5{fill:none;stroke:#1E247E;stroke-width:2.5;stroke-linecap:round;stroke-miterlimit:10;}
	.st6{fill:#F0C330;stroke:#1E247E;stroke-width:6;stroke-linecap:round;stroke-miterlimit:10;}
	.st7{fill:none;stroke:#1E247E;stroke-width:2;stroke-linecap:round;stroke-miterlimit:10;}
	.st8{fill:#DBE7FE;stroke:#1E247E;stroke-width:6;stroke-linecap:round;stroke-miterlimit:10;}
	.st9{fill:none;stroke:#1E247E;stroke-width:6;stroke-linecap:round;stroke-miterlimit:10;}
	.st10{fill:#1E247E;stroke:#1E247E;stroke-width:4;stroke-linecap:round;stroke-miterlimit:10;}
	.st11{fill:none;stroke:#FFFFFF;stroke-width:7;stroke-linecap:round;stroke-miterlimit:10;}
	.st12{fill:#FFFFFF;stroke:#1E247E;stroke-width:6;stroke-linecap:round;stroke-linejoin:round;stroke-miterlimit:10;}
	.st13{fill:#69ADF7;stroke:#1E247E;stroke-width:2.5;stroke-linecap:round;stroke-miterlimit:10;}
	.st14{fill:none;stroke:#1E247E;stroke-width:3;stroke-linecap:round;stroke-linejoin:round;stroke-miterlimit:10;}
	.st15{fill:#FFFFFF;}
	.st16{fill:#F0C330;stroke:#1E247E;stroke-width:6;stroke-miterlimit:10;}
	.st17{fill:#DA867D;stroke:#1E247E;stroke-width:6;stroke-miterlimit:10;}
	.st18{fill:none;stroke:#1E247E;stroke-width:5;stroke-linecap:round;stroke-miterlimit:10;}
	.st19{fill:none;stroke:#D3D5E7;stroke-width:6;stroke-linecap:round;stroke-miterlimit:10;}
	.st20{fill:none;stroke:#D2D4E6;stroke-width:6;stroke-linecap:round;stroke-miterlimit:10;}
	.st21{fill:#EFC230;stroke:#D3D5E7;stroke-width:6;stroke-linecap:round;stroke-miterlimit:10;}
	.st22{fill:#FFFFFF;stroke:#1E247E;stroke-width:6;stroke-miterlimit:10;}
	.st23{fill:none;stroke:#1E247E;stroke-width:4;stroke-linecap:round;stroke-miterlimit:10;}
	.st24{fill:#EFC230;stroke:#1E247E;stroke-width:6;stroke-linecap:round;stroke-miterlimit:10;}
	.st25{fill:#69AEF8;stroke:#1E247E;stroke-width:6;stroke-miterlimit:10;}
	.st26{fill:#FFFFFF;stroke:#1E247E;stroke-width:5;stroke-linecap:round;stroke-miterlimit:10;}
	.st27{fill:#1E247E;}
	.st28{fill:#F0C330;}
	.st29{fill:#DA867D;stroke:#1E247E;stroke-width:5.5;stroke-linecap:round;stroke-miterlimit:10;}
	.st30{fill:#D3D5E7;stroke:#1E247E;stroke-width:5.5;stroke-linecap:round;stroke-miterlimit:10;}
	.st31{fill:#69AEF8;}
	.st32{fill:#D3D5E7;stroke:#1E247E;stroke-width:6;stroke-linejoin:round;stroke-miterlimit:10;}
	.st33{fill:#FCF5F2;stroke:#1E247E;stroke-width:6;stroke-linejoin:round;stroke-miterlimit:10;}
	.st34{fill:#DA867D;stroke:#1E247E;stroke-width:6;stroke-linejoin:round;stroke-miterlimit:10;}
	.st35{fill:#DA867D;}
	.st36{fill:#69AEF8;stroke:#1E247E;stroke-width:6;stroke-linecap:round;stroke-linejoin:round;stroke-miterlimit:10;}
	.st37{fill:#1E247E;stroke:#1E247E;stroke-width:6;stroke-linecap:round;stroke-linejoin:round;stroke-miterlimit:10;}
	.st38{fill:#DBE7FE;stroke:#1E247E;stroke-width:6;stroke-linejoin:round;stroke-miterlimit:10;}
	.st39{fill:#F0C330;stroke:#1E247E;stroke-width:6;stroke-linejoin:round;stroke-miterlimit:10;}
	.st40{fill:none;stroke:#FFFFFF;stroke-width:6;stroke-linecap:round;stroke-linejoin:round;stroke-miterlimit:10;}
	.st41{fill:none;stroke:#1E247E;stroke-width:6;stroke-linecap:round;stroke-linejoin:round;stroke-miterlimit:10;}
</style><g><g id="Award_1_"><circle class="st0" cx="256" cy="258.9" id="Background_11_" r="215.6"/><g id="Award"><path class="st1" d="M370.6,267.1l-1.3,0.3l0.9,0.9c19.6,19,0.8,51.5-25.4,44l-1.3-0.4l0.3,1.2      c2.2,7.9,0.9,15.1-2.6,20.7l37.6,80.3c0.4,0.9-0.5,1.9-1.5,1.5l-38.3-15.8c-0.6-0.3-1.3,0.1-1.5,0.7l-12.3,39.5      c-0.3,1-1.7,1.1-2.1,0.1l-39.2-83.7c-6.8,3-14.8,3-21.6,0l-39.2,83.7c-0.4,0.9-1.8,0.8-2.1-0.1l-12.3-39.5      c-0.2-0.6-0.9-1-1.5-0.7l-38.2,15.8c-1,0.4-1.9-0.6-1.5-1.5l37.6-80.3c-3.5-5.7-4.9-12.9-2.6-20.7l0.4-1.2l-1.3,0.4      c-26.2,7.5-45-25-25.4-44l1-0.9l-1.3-0.3c-26.4-6.6-26.4-44.2,0-50.8l1.3-0.3l-1-0.9c-19.6-18.9-0.8-51.5,25.4-44l1.3,0.4      l-0.4-1.3c-7.5-26.2,25.1-45,44-25.4l0.9,0.9l0.3-1.3c6.6-26.4,44.2-26.4,50.8,0l0.3,1.3l0.9-0.9c19-19.6,51.5-0.8,44,25.4      l-0.3,1.3l1.3-0.4c20.7-5.9,36.7,13.1,33,30.7c-1,4.7-3.4,9.3-7.6,13.3l-0.9,0.9l1.3,0.3C397.1,222.9,397.1,260.5,370.6,267.1z" id="Shadow_31_"/><g id="Body_10_"><g id="Stripes"><path class="st3" d="M245.2,347L206,430.8c-0.4,0.9-1.8,0.8-2.1-0.1l-12.3-39.5c-0.2-0.6-0.9-1-1.5-0.7        l-38.2,15.8c-1,0.4-1.9-0.6-1.5-1.5l37.6-80.3c3.4,5.6,9,9.8,15.2,11.7c8.6,2.6,18.5,1,26.2-6.9l0.9-0.9l0.3,1.3        C232.8,338.2,238.4,344.1,245.2,347z" id="Left_29_"/><path class="st3" d="M360.2,406.2l-38.2-15.8c-0.6-0.3-1.3,0.1-1.5,0.7l-12.3,39.5c-0.3,1-1.7,1.1-2.1,0.1        l-39.2-83.7c5.6-2.4,10.4-6.8,13.1-13.2c0.6-1.4,1.1-2.9,1.5-4.4l0.3-1.3l0.9,0.9c7.7,7.9,17.6,9.6,26.2,6.9        c6.2-1.9,11.8-6,15.2-11.7l37.6,80.3C362.1,405.6,361.2,406.6,360.2,406.2z" id="Right_28_"/></g><path class="st12" d="M353.3,257.6l-1.3,0.3l0.9,0.9c19.6,19,0.8,51.5-25.4,44l-1.3-0.4l0.4,1.2       c2.2,7.9,0.9,15-2.6,20.7c-3.4,5.6-9,9.8-15.2,11.7c-8.6,2.6-18.5,1-26.2-6.9l-0.9-0.9l-0.3,1.3c-0.4,1.6-0.9,3-1.5,4.4       c-2.7,6.4-7.5,10.8-13.1,13.2c-6.8,3-14.8,3-21.6,0c-6.8-2.9-12.4-8.8-14.6-17.6l-0.3-1.3l-0.9,0.9c-7.7,7.9-17.6,9.6-26.2,6.9       c-6.2-1.9-11.8-6-15.2-11.7c-3.5-5.7-4.9-12.9-2.6-20.7l0.4-1.2l-1.3,0.4c-26.2,7.5-45-25-25.4-44l0.9-0.9l-1.3-0.3       c-26.4-6.6-26.4-44.2,0-50.8l1.3-0.3l-0.9-0.9c-19.6-18.9-0.8-51.5,25.4-44l1.3,0.4l-0.4-1.3c-7.5-26.2,25-45,44-25.4l0.9,0.9       l0.3-1.3c6.6-26.5,44.2-26.5,50.8,0l0.3,1.3l0.9-0.9c19-19.6,51.5-0.8,44,25.4l-0.4,1.3l1.3-0.4c20.7-5.9,36.7,13.1,33,30.7       c-1,4.7-3.4,9.3-7.6,13.3l-0.9,0.9l1.3,0.3C379.7,213.4,379.7,251,353.3,257.6z" id="Shape_46_"/></g><path class="st6" d="M290.7,281.9l-32.6-16.7c-1-0.5-2.1-0.5-3.1,0l-32.2,17.4c-0.6,0.3-1.4-0.2-1.3-0.9l5.8-36.1      c0.2-1.1-0.2-2.2-1-2.9l-26.5-25.3c-0.5-0.5-0.2-1.4,0.5-1.5l36.2-5.7c1.1-0.2,2-0.9,2.5-1.8l15.8-33c0.3-0.6,1.2-0.7,1.6,0      l16.6,32.6c0.5,1,1.4,1.6,2.5,1.8l36.3,4.9c0.7,0.1,1,1,0.5,1.5L286.2,242c-0.8,0.8-1.1,1.9-0.9,2.9l6.6,36      C292,281.7,291.3,282.2,290.7,281.9z" id="Star"/><g id="Lines_20_"><line class="st13" id="Bottom_31_" x1="203.2" x2="211.2" y1="179.6" y2="185.8"/><line class="st13" id="Middle_30_" x1="203.2" x2="219.3" y1="171.9" y2="184.2"/><line class="st13" id="Top_32_" x1="214.8" x2="219.3" y1="173" y2="176.4"/></g><path class="st14" d="M346,273.8c0.8,6-2.1,12.1-7,15.5" id="Line:_bottom_right"/><path class="st14" d="M336.8,176.2c4.5,2.6,7.5,7.7,7.5,12.9" id="Line:_top_right"/></g><g id="Sparkles_6_"><g id="RIght_3_"><path class="st15" d="M424.8,329.1c-25-1.3-24.3-29-24.3-29c-0.7,30.5-25.7,29-25.7,29s25.7,2.5,25.7,28.3       C400.5,357.4,403.7,331.6,424.8,329.1" id="Large_1_"/><path class="st15" d="M438.9,297.6c-11.2-0.6-10.9-13-10.9-13c-0.3,13.7-11.5,13-11.5,13s11.5,1.1,11.5,12.7       C428,310.3,429.5,298.7,438.9,297.6" id="Medium_1_"/><path class="st15" d="M409.7,273.3c-7.1-0.4-6.9-8.2-6.9-8.2c-0.2,8.6-7.3,8.2-7.3,8.2s7.3,0.7,7.3,8       C402.8,281.3,403.7,274,409.7,273.3" id="Small_1_"/></g><g id="Left_28_"><path class="st15" d="M133.2,201.6c-7.1-0.4-6.9-8.2-6.9-8.2c-0.2,8.6-7.3,8.2-7.3,8.2s7.3,0.7,7.3,8       C126.4,209.6,127.3,202.3,133.2,201.6" id="Small"/><path class="st15" d="M161.4,152c-11.2-0.6-10.9-13-10.9-13c-0.3,13.7-11.5,13-11.5,13s11.5,1.1,11.5,12.7       C150.5,164.7,152,153.1,161.4,152" id="Medium"/><path class="st15" d="M130.2,165.1c-22.4-1.2-21.8-26-21.8-26c-0.6,27.3-23,26-23,26s23,2.2,23,25.4       C108.4,190.4,111.2,167.2,130.2,165.1" id="Large"/></g></g></g></g></svg>