<?xml version="1.0" ?><svg width="340px" height="340px" viewBox="0 0 340 340" id="icons" xmlns="http://www.w3.org/2000/svg"><title/><path d="M246.918,27.069h0a5.215,5.215,0,0,0-7.1,2.35c-.764,1.549-2.668,5.512-4.032,7.106a10.617,10.617,0,0,1-16.928-1c-2.37-3.7-2.955-11.714-1.016-20.608a5.173,5.173,0,0,0-3.316-5.968h0a5.161,5.161,0,0,0-6.392,2.605C204,20.191,197.24,40.523,217.4,53.08c0,0,5.225,21.3,22.307,28.337l9.17-4.865s-15.935-9.111-15.681-23.024c0,0,13.344-5.615,16.431-20.92A5.149,5.149,0,0,0,246.918,27.069Z" style="fill:#c97469"/><path d="M238.783,200.411s-6.516,13.938-8.141,29.261a48.079,48.079,0,0,0-.25,5.063v13.13a17.959,17.959,0,0,1-4.751,12.177C215.605,270.928,191.648,296,173.1,308.107a4.538,4.538,0,0,1-6.926-2.958,32.759,32.759,0,0,1-.564-7.776,22.887,22.887,0,0,1,5.883-13.985l26-29.254L203.63,209.1Z" style="fill:#db5e26"/><path d="M121.7,220.625s7.989,19.252-4.542,37.362a32.616,32.616,0,0,0-5.529,13.176,43.828,43.828,0,0,0-.131,13.728,29.539,29.539,0,0,0,1.175,4.766l10.871,33.04a5.738,5.738,0,0,1-7.144,7.286,21.357,21.357,0,0,1-13.144-10.838c-.222-.444-.414-.906-.6-1.368L79.182,258.363,88.565,209.1Z" style="fill:#db5e26"/><path d="M281.212,79.368l30.949-8.533s-1.04,23.41-23.665,22.015Z" style="fill:#db5e26"/><path d="M276.168,27.069h0a5.213,5.213,0,0,1,7.1,2.35,48.3,48.3,0,0,0,4.337,7.234c4.565,5.334,13.9,5.411,17.686-.5,2.371-3.7,1.893-12.341-.046-21.235a5.172,5.172,0,0,1,3.316-5.968h0a5.161,5.161,0,0,1,6.392,2.605c4.141,8.638,10.9,28.97-9.258,41.527,0,0-5.225,21.3-22.308,28.337l-8.239-6.23s15-7.746,14.75-21.659c0,0-13.343-5.615-16.43-20.92A5.149,5.149,0,0,1,276.168,27.069Z" style="fill:#c97469"/><path d="M244.374,78.834l-25.863-9.095S213.4,89.918,234.427,90.771c0,0-4.8,5.868-5.1,22.771a18.159,18.159,0,0,1-.626,4.348c-2.055,7.737-10.018,29.522-34.347,28.586,0,0-21.316,0-47.747-10.231,0,0-34.167-14.5-64.931-10.128A49.8,49.8,0,0,0,55.4,138.681c-8.7,7.861-23.513,20.026-33.43,21.567a1.71,1.71,0,0,0-1.171,2.574,22.013,22.013,0,0,0,14.488,10.032l6.734.622s-1.807,22.2,11.8,41.757a23.826,23.826,0,0,1,3.837,8.686,38.949,38.949,0,0,1-6,30.772,13.8,13.8,0,0,0-2.513,7.449c-.377,10.47-.027,37.029,11.346,57.99,0,0,3.743,7.326,13.689,10.5a4.57,4.57,0,0,0,5.937-4.943L73.905,279.2a14.033,14.033,0,0,1,3.758-11.545c5.018-5.263,12.791-13.969,16.648-21.131,0,0,5.684-13.358,2.273-25.011,30.233-2.073,59.457-2.513,77.42,15.271a20.732,20.732,0,0,1,8.265,11.82c1.925,7.391,5,18.869,8.591,30.989a38.528,38.528,0,0,1,1.589,10.322l.378,23.676a18.38,18.38,0,0,0,13.132,17.49c.14.039.281.078.424.115a5,5,0,0,0,6.252-4.768c.2-14.487.5-54.47-1.779-84.045a30.368,30.368,0,0,1,10.078-24.954,96.555,96.555,0,0,1,13.209-9.842c18.189-11.369,30.782-38.614,34.1-68.211a40.059,40.059,0,0,0,18.215,2.43,15.9,15.9,0,0,0,14.1-15.911c-.072-4.479-1.256-10.284-4.646-17.62a32.07,32.07,0,0,1-2.712-9.629c-1.049-8.753-5.352-26.355-22.967-28.9A30.614,30.614,0,0,0,244.374,78.834Z" style="fill:#f99848"/><path d="M174,236.787c-8.152-36.5-61.148-30.432-61.148-30.432-15.61.709-22.47-1.893-22.47-1.893,1.183,6.86,6.2,17.046,6.2,17.046s7.958,9.095,28.137,6.537c15.516-1.967,33.215,1.275,45.735,6.754A20.948,20.948,0,0,1,174,236.787Z" style="fill:#e7eef2"/><path d="M68.178,179.3l1.8,1.27a5.729,5.729,0,0,1,1.622,7.595l-1.238,2.092a5.729,5.729,0,0,1-8.551,1.521l-1.6-1.3a5.731,5.731,0,0,1-1.692-6.591,19.822,19.822,0,0,1,1.493-2.949A5.72,5.72,0,0,1,68.178,179.3Z" style="fill:#fff2e9"/><path d="M78.819,146.842l4.132-3.714a3.072,3.072,0,0,1,4.95,1.261l2.13,6.017a3.075,3.075,0,0,1-1.5,3.76l-3.706,1.9a3.039,3.039,0,0,1-3.379-.38,11.417,11.417,0,0,1-3.556-5.781A3.08,3.08,0,0,1,78.819,146.842Z" style="fill:#fff2e9"/><path d="M84.789,174.9a14.947,14.947,0,0,1,2.929-4.641,4.583,4.583,0,0,1,5.03-1.1l3.212,1.3a4.558,4.558,0,0,1,2.3,6.394l-2.283,4.219a4.568,4.568,0,0,1-6.019,1.924A11,11,0,0,1,85,178.722,4.464,4.464,0,0,1,84.789,174.9Z" style="fill:#fff2e9"/><path d="M108.368,151.45a27.667,27.667,0,0,1,5.418-5.173,5.1,5.1,0,0,1,6.25.462l2.409,2.155a5.133,5.133,0,0,1,.986,6.458l-2.062,3.456a5.106,5.106,0,0,1-5.3,2.425,24.117,24.117,0,0,1-5.881-1.874A5.144,5.144,0,0,1,108.368,151.45Z" style="fill:#fff2e9"/><path d="M144.877,164.915l-3.792-.853a4.484,4.484,0,0,1-3.428-5.2,12.331,12.331,0,0,1,5.227-8.258,4.428,4.428,0,0,1,3.884-.454l4.694,1.625a4.486,4.486,0,0,1,1.846,7.264l-4.133,4.527A4.486,4.486,0,0,1,144.877,164.915Z" style="fill:#fff2e9"/><path d="M120.635,179.417l1.515,1.166a5.278,5.278,0,0,1,1.983,5.065l-.631,3.713a5.245,5.245,0,0,1-5.3,4.394,11,11,0,0,1-7.638-3.047,5.265,5.265,0,0,1-.149-7.2l3.063-3.426A5.276,5.276,0,0,1,120.635,179.417Z" style="fill:#fff2e9"/><path d="M139.351,179.8a32.181,32.181,0,0,1,3.331-2.383,6.194,6.194,0,0,1,8.625,2.18l.433.751a6.2,6.2,0,0,1-1.252,7.73l-1.871,1.662a6.182,6.182,0,0,1-6.424,1.121c-.563-.228-1.157-.492-1.758-.8A6.177,6.177,0,0,1,139.351,179.8Z" style="fill:#fff2e9"/><path d="M170.685,160.536q.477-.526,1.055-1.09a6.864,6.864,0,0,1,6.7-1.666h0a6.864,6.864,0,0,1,4.866,7.66l-.189,1.205a6.843,6.843,0,0,1-10.364,4.79,13.2,13.2,0,0,1-1.558-1.165A6.832,6.832,0,0,1,170.685,160.536Z" style="fill:#fff2e9"/><path d="M195.839,174.668l2.808-2.012a6.187,6.187,0,0,1,7.381.136,21.572,21.572,0,0,1,3.809,3.685,6.156,6.156,0,0,1,.071,7.417,12.5,12.5,0,0,1-3.55,3.379,5.97,5.97,0,0,1-5.538.232,34.283,34.283,0,0,1-4.974-2.788A6.154,6.154,0,0,1,195.839,174.668Z" style="fill:#fff2e9"/><path d="M170.079,192.979a18.824,18.824,0,0,1,2.624-1.652,5.686,5.686,0,0,1,3.288-.591,27.944,27.944,0,0,1,7.62,1.97,5.8,5.8,0,0,1,3.095,7.584,34.487,34.487,0,0,1-2.957,5.488,5.812,5.812,0,0,1-8.254,1.51,33.6,33.6,0,0,1-6.42-6.177A5.724,5.724,0,0,1,170.079,192.979Z" style="fill:#fff2e9"/><path d="M266.8,101.464a3.06,3.06,0,0,1-.591-.059l-3.75-.748a3,3,0,1,1,1.174-5.884l3.75.748a3,3,0,0,1-.583,5.943Z" style="fill:#373d4c"/><path d="M278.74,99.488a3,3,0,0,1-1.793-5.407l3.069-2.282a3,3,0,1,1,3.581,4.814l-3.07,2.283A2.982,2.982,0,0,1,278.74,99.488Z" style="fill:#373d4c"/><path d="M42.016,173.476a52.979,52.979,0,0,1,6.368-16.9,1.462,1.462,0,0,0-2.169-1.9c-4.715,3.8-10.06,9.861-10.931,18.163A29.632,29.632,0,0,0,42.016,173.476Z" style="fill:#db5e26"/><path d="M278.565,113.919a17.955,17.955,0,0,1,4.541-.814,5.617,5.617,0,0,1,5.85,5.181c.023.311.036.629.036.952a6.745,6.745,0,0,1-9.321,6.151,11.311,11.311,0,0,1-3.242-2.054A5.6,5.6,0,0,1,278.565,113.919Z" style="fill:#373d4c"/><path d="M254.969,133.474a31.552,31.552,0,0,0,11.127,19.2c.922-4.35,1.646-8.8,2.152-13.307a48.709,48.709,0,0,1-10.47-7.385A1.673,1.673,0,0,0,254.969,133.474Z" style="fill:#db5e26"/></svg>