<?xml version="1.0" ?><!DOCTYPE svg  PUBLIC '-//W3C//DTD SVG 1.1//EN'  'http://www.w3.org/Graphics/SVG/1.1/DTD/svg11.dtd'><svg width="512px" height="512px" viewBox="0 0 512 512" id="Layer_1" style="enable-background:new 0 0 512 512;" version="1.1" xml:space="preserve" xmlns="http://www.w3.org/2000/svg" xmlns:xlink="http://www.w3.org/1999/xlink"><style type="text/css">
	.st0{fill:#EEEDF2;}
	.st1{fill:#D3D5E7;}
	.st2{fill:#FFFFFF;stroke:#1E247E;stroke-width:6;stroke-linecap:round;stroke-miterlimit:10;}
	.st3{fill:#DA867D;stroke:#1E247E;stroke-width:6;stroke-linecap:round;stroke-miterlimit:10;}
	.st4{fill:none;stroke:#1E247E;stroke-width:3;stroke-linecap:round;stroke-miterlimit:10;}
	.st5{fill:none;stroke:#1E247E;stroke-width:2.5;stroke-linecap:round;stroke-miterlimit:10;}
	.st6{fill:#F0C330;stroke:#1E247E;stroke-width:6;stroke-linecap:round;stroke-miterlimit:10;}
	.st7{fill:none;stroke:#1E247E;stroke-width:2;stroke-linecap:round;stroke-miterlimit:10;}
	.st8{fill:#DBE7FE;stroke:#1E247E;stroke-width:6;stroke-linecap:round;stroke-miterlimit:10;}
	.st9{fill:none;stroke:#1E247E;stroke-width:6;stroke-linecap:round;stroke-miterlimit:10;}
	.st10{fill:#1E247E;stroke:#1E247E;stroke-width:4;stroke-linecap:round;stroke-miterlimit:10;}
	.st11{fill:none;stroke:#FFFFFF;stroke-width:7;stroke-linecap:round;stroke-miterlimit:10;}
	.st12{fill:#FFFFFF;stroke:#1E247E;stroke-width:6;stroke-linecap:round;stroke-linejoin:round;stroke-miterlimit:10;}
	.st13{fill:#69ADF7;stroke:#1E247E;stroke-width:2.5;stroke-linecap:round;stroke-miterlimit:10;}
	.st14{fill:none;stroke:#1E247E;stroke-width:3;stroke-linecap:round;stroke-linejoin:round;stroke-miterlimit:10;}
	.st15{fill:#FFFFFF;}
	.st16{fill:#F0C330;stroke:#1E247E;stroke-width:6;stroke-miterlimit:10;}
	.st17{fill:#DA867D;stroke:#1E247E;stroke-width:6;stroke-miterlimit:10;}
	.st18{fill:none;stroke:#1E247E;stroke-width:5;stroke-linecap:round;stroke-miterlimit:10;}
	.st19{fill:none;stroke:#D3D5E7;stroke-width:6;stroke-linecap:round;stroke-miterlimit:10;}
	.st20{fill:none;stroke:#D2D4E6;stroke-width:6;stroke-linecap:round;stroke-miterlimit:10;}
	.st21{fill:#EFC230;stroke:#D3D5E7;stroke-width:6;stroke-linecap:round;stroke-miterlimit:10;}
	.st22{fill:#FFFFFF;stroke:#1E247E;stroke-width:6;stroke-miterlimit:10;}
	.st23{fill:none;stroke:#1E247E;stroke-width:4;stroke-linecap:round;stroke-miterlimit:10;}
	.st24{fill:#EFC230;stroke:#1E247E;stroke-width:6;stroke-linecap:round;stroke-miterlimit:10;}
	.st25{fill:#69AEF8;stroke:#1E247E;stroke-width:6;stroke-miterlimit:10;}
	.st26{fill:#FFFFFF;stroke:#1E247E;stroke-width:5;stroke-linecap:round;stroke-miterlimit:10;}
	.st27{fill:#1E247E;}
	.st28{fill:#F0C330;}
	.st29{fill:#DA867D;stroke:#1E247E;stroke-width:5.5;stroke-linecap:round;stroke-miterlimit:10;}
	.st30{fill:#D3D5E7;stroke:#1E247E;stroke-width:5.5;stroke-linecap:round;stroke-miterlimit:10;}
	.st31{fill:#69AEF8;}
	.st32{fill:#D3D5E7;stroke:#1E247E;stroke-width:6;stroke-linejoin:round;stroke-miterlimit:10;}
	.st33{fill:#FCF5F2;stroke:#1E247E;stroke-width:6;stroke-linejoin:round;stroke-miterlimit:10;}
	.st34{fill:#DA867D;stroke:#1E247E;stroke-width:6;stroke-linejoin:round;stroke-miterlimit:10;}
	.st35{fill:#DA867D;}
	.st36{fill:#69AEF8;stroke:#1E247E;stroke-width:6;stroke-linecap:round;stroke-linejoin:round;stroke-miterlimit:10;}
	.st37{fill:#1E247E;stroke:#1E247E;stroke-width:6;stroke-linecap:round;stroke-linejoin:round;stroke-miterlimit:10;}
	.st38{fill:#DBE7FE;stroke:#1E247E;stroke-width:6;stroke-linejoin:round;stroke-miterlimit:10;}
	.st39{fill:#F0C330;stroke:#1E247E;stroke-width:6;stroke-linejoin:round;stroke-miterlimit:10;}
	.st40{fill:none;stroke:#FFFFFF;stroke-width:6;stroke-linecap:round;stroke-linejoin:round;stroke-miterlimit:10;}
	.st41{fill:none;stroke:#1E247E;stroke-width:6;stroke-linecap:round;stroke-linejoin:round;stroke-miterlimit:10;}
</style><g><g id="Meeting"><circle class="st0" cx="256.6" cy="257.1" r="215.6"/><g id="Bottom_line_12_"><line class="st9" id="Right_39_" x1="422.5" x2="472.7" y1="472.7" y2="472.7"/><line class="st9" id="Middle_43_" x1="85.5" x2="409" y1="472.7" y2="472.7"/><line class="st9" id="Left_40_" x1="41.4" x2="71.8" y1="472.7" y2="472.7"/></g><g id="Speech_balloons_1_"><g id="Right_38_"><path class="st1" d="M305.3,183.2v69c0,0.8,1,1.2,1.5,0.6l16.3-16.3c2.5-2.5,5.9-3.9,9.4-3.9h71.5       c10.1,0,18.3-8.2,18.3-18.3v-40.7c0-10.1-8.2-18.3-18.3-18.3h-70.8C317.8,155.3,305.3,167.8,305.3,183.2z" id="Shadow_45_"/><path class="st22" d="M290.2,151.3v69c0,0.8,1,1.2,1.5,0.6l16.3-16.3c2.5-2.5,5.9-3.9,9.4-3.9h71.5       c10.1,0,18.3-8.2,18.3-18.3v-40.7c0-10.1-8.2-18.3-18.3-18.3h-70.8C302.7,123.4,290.2,135.9,290.2,151.3z" id="Shape_60_"/><g id="Content_9_"><line class="st18" id="_x33_rd_10_" x1="318.4" x2="379" y1="176.5" y2="176.5"/><line class="st18" id="_x32_nd_11_" x1="318.4" x2="379" y1="162.3" y2="162.3"/><line class="st18" id="_x31_st_11_" x1="318.4" x2="379" y1="148.2" y2="148.2"/></g><path class="st4" d="M301,196.8c2.4-3.3,6.2-5.3,10.3-5.6" id="Line_20_"/></g><g id="Left_39_"><path class="st1" d="M242.3,142.8v69c0,0.8-1,1.2-1.5,0.6l-16.3-16.3c-2.5-2.5-5.9-3.9-9.4-3.9h-71.5       c-10.1,0-18.3-8.2-18.3-18.3v-40.7c0-10.1,8.2-18.3,18.3-18.3h70.8C229.9,114.9,242.3,127.4,242.3,142.8z" id="Shadow_44_"/><path class="st22" d="M216.5,106v69c0,0.8-1,1.2-1.5,0.6l-16.3-16.3c-2.5-2.5-5.9-3.9-9.4-3.9h-71.5       c-10.1,0-18.3-8.2-18.3-18.3V96.4c0-10.1,8.2-18.3,18.3-18.3h70.8C204.1,78.1,216.5,90.6,216.5,106z" id="Shape_59_"/><path class="st4" d="M196,90.5c3.9,1.3,7,4.3,8.5,8" id="Line_19_"/><g id="Content_8_"><line class="st18" id="_x33_rd_9_" x1="123.2" x2="183.8" y1="130.4" y2="130.4"/><line class="st18" id="_x32_nd_10_" x1="123.2" x2="183.8" y1="116.2" y2="116.2"/><line class="st18" id="_x31_st_10_" x1="123.2" x2="150" y1="102.1" y2="102.1"/></g></g></g><g id="People"><g id="Left_38_"><g id="Person_4_"><g id="Body_12_"><path class="st32" d="M236.7,472.1H117.2v-59.7c0-33,26.7-59.7,59.7-59.7h0c33,0,59.7,26.7,59.7,59.7V472.1z" id="Shape_58_"/></g><g id="Head_5_"><circle class="st33" cx="176.9" cy="307.7" id="Shape_57_" r="29.8"/></g></g><path class="st14" d="M204.4,375.9c5.3,4.4,9.4,10,11.9,16.3" id="Line_18_"/><g id="Lines_26_"><line class="st5" id="Bottom_42_" x1="144.9" x2="152.9" y1="402.3" y2="408.4"/><line class="st5" id="Middle_42_" x1="144.9" x2="161" y1="394.6" y2="406.9"/><line class="st5" id="Top_44_" x1="156.6" x2="161" y1="395.6" y2="399"/></g><g id="Sparkles_13_"><line class="st11" id="Bottom_41_" x1="220" x2="211.6" y1="266.7" y2="269.1"/><line class="st11" id="Middle_41_" x1="211" x2="204.2" y1="254.6" y2="261.7"/><line class="st11" id="Top_43_" x1="195.6" x2="197.1" y1="255.7" y2="246.5"/></g></g><g id="Right_37_"><g id="Person_3_"><g id="Body_11_"><path class="st34" d="M395.5,471.8H276v-59.7c0-33,26.7-59.7,59.7-59.7h0c33,0,59.7,26.7,59.7,59.7V471.8z" id="Shape_56_"/></g><g id="Head_4_"><circle class="st33" cx="335.7" cy="307.5" id="Shape_55_" r="29.8"/></g></g><path class="st14" d="M363.2,374c5.3,4.4,9.4,10,11.9,16.3" id="Line_17_"/><g id="Lines_25_"><line class="st5" id="Bottom_40_" x1="377.2" x2="385.2" y1="463.9" y2="470.1"/><line class="st5" id="Middle_40_" x1="377.2" x2="393.3" y1="456.2" y2="468.5"/><line class="st5" id="Top_42_" x1="388.9" x2="393.3" y1="457.3" y2="460.7"/></g><g id="Sparkles_12_"><line class="st11" id="Bottom_39_" x1="294.9" x2="289.3" y1="270.8" y2="263.4"/><line class="st11" id="Middle_39_" x1="278.6" x2="287.1" y1="291.9" y2="290.2"/><line class="st11" id="Top_41_" x1="280.9" x2="290.2" y1="277.1" y2="280.2"/></g></g></g></g></g></svg>