<?xml version="1.0" ?><!DOCTYPE svg  PUBLIC '-//W3C//DTD SVG 1.1//EN'  'http://www.w3.org/Graphics/SVG/1.1/DTD/svg11.dtd'><svg width="512px" height="512px" viewBox="0 0 512 512" id="Layer_1" style="enable-background:new 0 0 512 512;" version="1.1" xml:space="preserve" xmlns="http://www.w3.org/2000/svg" xmlns:xlink="http://www.w3.org/1999/xlink"><style type="text/css">
	.st0{fill:#EEEDF2;}
	.st1{fill:none;stroke:#1E247E;stroke-width:6;stroke-linecap:round;stroke-miterlimit:10;}
	.st2{fill:#EFC12F;stroke:#1E247E;stroke-width:6;stroke-linecap:round;stroke-miterlimit:10;}
	.st3{fill:none;stroke:#1E247E;stroke-width:3;stroke-linecap:round;stroke-miterlimit:10;}
	.st4{fill:#FFFFFF;stroke:#1E247E;stroke-width:3;stroke-linecap:round;stroke-miterlimit:10;}
	.st5{fill:#FCF5F2;stroke:#1E247E;stroke-width:5;stroke-linecap:round;stroke-miterlimit:10;}
	.st6{fill:#FCF5F2;stroke:#1E247E;stroke-width:6;stroke-linecap:round;stroke-miterlimit:10;}
	.st7{fill:#1E247E;}
	.st8{fill:none;stroke:#1E247E;stroke-width:4;stroke-linecap:round;stroke-miterlimit:10;}
	.st9{fill:#EAB8B1;}
	.st10{fill:#DC9695;stroke:#1E247E;stroke-width:4;stroke-linecap:round;stroke-miterlimit:10;}
	.st11{fill:#EECED1;stroke:#1E247E;stroke-width:3;stroke-linecap:round;stroke-miterlimit:10;}
	.st12{fill:#CB7272;stroke:#1E247E;stroke-width:3;stroke-linecap:round;stroke-miterlimit:10;}
	.st13{fill:#D3D5E7;stroke:#1E247E;stroke-width:6;stroke-linecap:round;stroke-miterlimit:10;}
	.st14{fill:#D3D5E7;}
	.st15{fill:#FFFFFF;stroke:#1E247E;stroke-width:5;stroke-linecap:round;stroke-miterlimit:10;}
	.st16{fill:#FFFFFF;stroke:#1E247E;stroke-width:4;stroke-linecap:round;stroke-miterlimit:10;}
	.st17{fill:#ECECEE;}
	.st18{fill:#DA867D;stroke:#1E247E;stroke-width:4;stroke-linecap:round;stroke-miterlimit:10;}
	.st19{fill:#FCF5F2;stroke:#1E247E;stroke-width:4;stroke-linecap:round;stroke-miterlimit:10;}
	.st20{fill:#69AEF8;stroke:#1E247E;stroke-width:6;stroke-linecap:round;stroke-miterlimit:10;}
	.st21{opacity:0.4;fill:#FFFFFF;}
	.st22{opacity:0.7;fill:#FFFFFF;}
	.st23{fill:#69ADF7;stroke:#1E247E;stroke-width:2.5;stroke-linecap:round;stroke-miterlimit:10;}
	.st24{fill:none;stroke:#FFFFFF;stroke-width:7;stroke-linecap:round;stroke-miterlimit:10;}
	.st25{fill:none;stroke:#1E247E;stroke-width:2.5;stroke-linecap:round;stroke-miterlimit:10;}
	.st26{fill:#F0C330;stroke:#1E247E;stroke-width:6;stroke-linecap:round;stroke-miterlimit:10;}
	.st27{opacity:0.3;}
	.st28{fill:#FFFFFF;}
	.st29{fill:#79CAA1;stroke:#1E247E;stroke-width:6;stroke-linecap:round;stroke-miterlimit:10;}
	.st30{fill:#DA867D;stroke:#1E247E;stroke-width:6;stroke-linecap:round;stroke-miterlimit:10;}
	.st31{fill:#FFFFFF;stroke:#1E247E;stroke-width:6;stroke-linecap:round;stroke-miterlimit:10;}
	.st32{fill:#DBE7FE;stroke:#1E247E;stroke-width:5;stroke-linecap:round;stroke-miterlimit:10;}
	.st33{fill:#F2F3F3;}
	.st34{fill:none;stroke:#1E247E;stroke-width:6;stroke-linecap:round;stroke-linejoin:round;stroke-miterlimit:10;}
	.st35{fill:#DBE7FE;stroke:#1E247E;stroke-width:6;stroke-linecap:round;stroke-linejoin:round;stroke-miterlimit:10;}
	.st36{fill:#EFC230;stroke:#1E247E;stroke-width:6;stroke-linecap:round;stroke-linejoin:round;stroke-miterlimit:10;}
	.st37{fill:none;stroke:#1E247E;stroke-width:3;stroke-linecap:round;stroke-linejoin:round;stroke-miterlimit:10;}
	.st38{fill:#F0C330;stroke:#1E247E;stroke-width:6;stroke-linecap:round;stroke-linejoin:round;stroke-miterlimit:10;}
	.st39{fill:#79CAA1;stroke:#1E247E;stroke-width:6;stroke-linecap:round;stroke-linejoin:round;stroke-miterlimit:10;}
	.st40{fill:#FFFFFF;stroke:#1E247E;stroke-width:6;stroke-linecap:round;stroke-linejoin:round;stroke-miterlimit:10;}
	.st41{fill:#DA867D;stroke:#1E247E;stroke-width:6;stroke-linecap:round;stroke-linejoin:round;stroke-miterlimit:10;}
	.st42{fill:#DBE7FE;stroke:#1E247E;stroke-width:6;stroke-linejoin:round;stroke-miterlimit:10;}
	.st43{fill:none;stroke:#1E247E;stroke-width:6;stroke-linejoin:round;stroke-miterlimit:10;}
	.st44{opacity:0.7;}
	.st45{fill:#FFFFFF;stroke:#1E247E;stroke-width:6;stroke-linejoin:round;stroke-miterlimit:10;}
	.st46{fill:none;stroke:#FFFFFF;stroke-width:3;stroke-linecap:round;stroke-linejoin:round;stroke-miterlimit:10;}
	.st47{fill:none;stroke:#1E247E;stroke-width:5;stroke-linecap:round;stroke-miterlimit:10;}
	.st48{fill:#DBE7FE;stroke:#1E247E;stroke-width:6;stroke-linecap:round;stroke-miterlimit:10;}
	.st49{opacity:0.1;fill:#BDBDBD;}
	.st50{fill:#69AEF8;stroke:#1E247E;stroke-width:6;stroke-linecap:round;stroke-linejoin:round;stroke-miterlimit:10;}
	.st51{fill:#79CAA1;stroke:#1E247E;stroke-width:5;stroke-miterlimit:10;}
	.st52{fill:#D2D4E6;stroke:#1E247E;stroke-width:5;stroke-linecap:round;stroke-miterlimit:10;}
	.st53{fill:#69AEF8;stroke:#1E247E;stroke-width:5;stroke-miterlimit:10;}
	.st54{opacity:0.2;fill:none;stroke:#1E247E;stroke-width:5;stroke-linecap:round;stroke-miterlimit:10;}
	.st55{fill:none;stroke:#1E247E;stroke-width:2.5;stroke-linecap:round;stroke-linejoin:round;stroke-miterlimit:10;}
	.st56{fill:#69AEF8;stroke:#1E247E;stroke-width:6;stroke-miterlimit:10;}
	.st57{fill:#DBE7FE;}
	.st58{fill:#FFFFFF;stroke:#1E247E;stroke-width:6;stroke-miterlimit:10;}
	.st59{fill:#D9857D;stroke:#1E247E;stroke-width:5;stroke-miterlimit:10;}
	.st60{fill:none;stroke:#D3D5E7;stroke-width:4.7904;stroke-linecap:round;stroke-miterlimit:10;}
	.st61{fill:#D2D4E6;stroke:#D3D5E7;stroke-width:4.7904;stroke-linecap:round;stroke-miterlimit:10;}
	.st62{fill:#D2D4E6;stroke:#D3D5E7;stroke-width:5.5;stroke-linecap:round;stroke-miterlimit:10;}
	.st63{fill:none;stroke:#D3D5E7;stroke-width:5.5;stroke-linecap:round;stroke-miterlimit:10;}
	.st64{fill:#79CAA1;}
	.st65{fill:#F0C330;}
	.st66{fill:#79CAA1;stroke:#1E247E;stroke-width:6;stroke-miterlimit:10;}
	.st67{opacity:0.8;fill:#FFFFFF;}
	.st68{fill:#DA867D;stroke:#1E247E;stroke-width:6;stroke-miterlimit:10;}
	.st69{fill:#F0C330;stroke:#1E247E;stroke-width:5;stroke-miterlimit:10;}
	.st70{fill:#D2D4E6;}
	.st71{fill:#EEBDBC;stroke:#D3D5E7;stroke-width:5.5;stroke-linecap:round;stroke-miterlimit:10;}
	.st72{fill:#D3D5E7;stroke:#D3D5E7;stroke-width:5.5;stroke-linecap:round;stroke-miterlimit:10;}
</style><g><g id="Office"><circle class="st0" cx="254" cy="255.7" id="Background_20_" r="215.6"/><g id="Bottom_line_17_"><line class="st1" id="Right_52_" x1="57.9" x2="469.6" y1="471.9" y2="471.9"/><line class="st1" id="Left_53_" x1="38.4" x2="48.7" y1="471.9" y2="471.9"/></g><g id="Clouds_3_"><g id="Secondary_cloud__x23_2_1_"><path class="st15" d="M463.8,302.1c0,10.8-8.8,19.6-19.6,19.6h-80.1c-8.6,0-15.5-6.9-15.5-15.5       c0-0.5,0-1,0.1-1.6c0-0.4,0.1-0.7,0.1-1.1c1.1-6.2,5.8-11.2,12-12.5c1.1-0.2,2.2-0.4,3.3-0.4c0.1,0,0.1,0,0.2,0       c-0.1-0.9-0.2-1.7-0.2-2.6c0-1.4,0.1-2.8,0.4-4.2c1.9-9.9,10.6-17.3,21-17.3c1.4,0,2.7,0.1,4,0.4c3-9.1,10.1-16.4,19.1-19.6       c2.8-1,5.8-1.6,8.9-1.8c0.5,0,1,0,1.5,0c0.1,0,0.1,0,0.2,0c17,0.1,30.8,14,30.8,31c0,2.3-0.2,4.5-0.7,6.6       C457.7,285.4,463.8,293,463.8,302.1z" id="Shape_86_"/><path class="st15" d="M450,276.1c0,8.9-3.7,16.9-9.7,22.6" id="Line__x23_2_7_"/><path class="st47" d="M384.9,266.5c9.8,0,18.1,6.8,20.3,15.9" id="Line__x23_1_7_"/></g><g id="Primary_cloud__x23_1"><path class="st15" d="M311,143.2c0,10.8-8.8,19.6-19.6,19.6h-80.1c-8.6,0-15.5-6.9-15.5-15.5c0-0.5,0-1,0.1-1.6       c0-0.4,0.1-0.7,0.1-1.1c1.1-6.2,5.8-11.2,12-12.5c1.1-0.2,2.2-0.4,3.3-0.4c0.1,0,0.1,0,0.2,0c-0.1-0.9-0.2-1.7-0.2-2.6       c0-1.4,0.1-2.8,0.4-4.2c1.9-9.9,10.6-17.3,21-17.3c1.4,0,2.7,0.1,4,0.4c3-9.1,10.1-16.4,19.1-19.6c2.8-1,5.8-1.6,8.9-1.8       c0.5,0,1,0,1.5,0c0.1,0,0.1,0,0.2,0c17,0.1,30.8,14,30.8,31c0,2.3-0.2,4.5-0.7,6.6C304.9,126.5,311,134.1,311,143.2z" id="Shape_85_"/><path class="st15" d="M297.2,117.2c0,8.9-3.7,16.9-9.7,22.6" id="Line__x23_2_6_"/><path class="st47" d="M232.1,107.6c9.8,0,18.1,6.8,20.3,15.9" id="Line__x23_1_6_"/></g><path class="st14" d="M432.7,195.7c0,10.1-8.2,18.2-18.2,18.2h-74.6c-8,0-14.4-6.5-14.4-14.4      c0-0.5,0-1,0.1-1.4c0-0.3,0.1-0.7,0.1-1c1-5.8,5.4-10.4,11.1-11.7c1-0.2,2-0.3,3.1-0.3c0,0,0.1,0,0.1,0      c-0.1-0.8-0.1-1.6-0.1-2.4c0-1.3,0.1-2.6,0.4-3.9c1.8-9.2,9.9-16.1,19.6-16.1c1.3,0,2.5,0.1,3.7,0.3c2.8-8.5,9.4-15.3,17.8-18.3      c2.6-0.9,5.4-1.5,8.3-1.6c0.5,0,0.9,0,1.4,0c0.1,0,0.1,0,0.2,0c15.9,0.1,28.7,13,28.7,28.9c0,2.1-0.2,4.2-0.7,6.1      C427,180.2,432.7,187.3,432.7,195.7z" id="Secondary_cloud__x23_2"/><path class="st14" d="M177.1,254.9c0,10.1-8.2,18.2-18.2,18.2H84.3c-8,0-14.4-6.5-14.4-14.4      c0-0.5,0-1,0.1-1.4c0-0.3,0.1-0.7,0.1-1c1-5.8,5.4-10.4,11.1-11.7c1-0.2,2-0.3,3.1-0.3c0,0,0.1,0,0.1,0      c-0.1-0.8-0.1-1.6-0.1-2.4c0-1.3,0.1-2.6,0.4-3.9c1.8-9.2,9.9-16.1,19.6-16.1c1.3,0,2.5,0.1,3.7,0.3c2.8-8.5,9.4-15.3,17.8-18.3      c2.6-0.9,5.4-1.5,8.3-1.6c0.5,0,0.9,0,1.4,0c0.1,0,0.1,0,0.2,0c15.9,0.1,28.7,13,28.7,28.9c0,2.1-0.2,4.2-0.7,6.1      C171.4,239.4,177.1,246.5,177.1,254.9z" id="Secondary_cloud__x23_1"/></g><g id="Buildings"><g id="Left_51_"><path class="st30" d="M235.2,471.3h-125V259.7c0-2,1.6-3.6,3.6-3.6h117.7c2,0,3.6,1.6,3.6,3.6V471.3z" id="Shape_84_"/><line class="st3" id="Top_line_5_" x1="110.2" x2="155.6" y1="274.1" y2="274.1"/><g id="Bottom_line_16_"><line class="st3" id="Right_51_" x1="181.6" x2="208.3" y1="422" y2="422"/><line class="st3" id="Left_52_" x1="162.9" x2="170.6" y1="422" y2="422"/></g><g id="Lines_36_"><line class="st25" id="Bottom_71_" x1="155.6" x2="163.6" y1="338.1" y2="344.3"/><line class="st25" id="Middle_59_" x1="155.6" x2="171.6" y1="330.4" y2="342.8"/><line class="st25" id="Top_73_" x1="167.2" x2="171.6" y1="331.5" y2="334.9"/></g></g><g id="Right_49_"><path class="st48" d="M404.4,471.3h-125V81.8c0-2.7,2.2-4.9,4.9-4.9h115.2c2.7,0,4.9,2.2,4.9,4.9V471.3z" id="Shape_83_"/><g id="Antenna"><line class="st1" id="Left_50_" x1="334.3" x2="334.3" y1="76.9" y2="40.1"/><line class="st1" id="Right_50_" x1="348.9" x2="348.9" y1="76.8" y2="57.6"/></g><g id="Bottom_lines_1_"><line class="st3" id="Bottom_70_" x1="373.7" x2="405.2" y1="453" y2="453"/><line class="st3" id="Top_72_" x1="362.2" x2="366.9" y1="431.1" y2="431.1"/></g><g id="Lines_35_"><line class="st25" id="Bottom_69_" x1="315.1" x2="323.1" y1="127.9" y2="134.1"/><line class="st25" id="Middle_58_" x1="315.1" x2="331.1" y1="120.2" y2="132.6"/><line class="st25" id="Top_71_" x1="326.7" x2="331.1" y1="121.3" y2="124.7"/></g></g><g id="Middle_57_"><path class="st31" d="M314,471.3H194.3c-1.4,0-2.5-1.1-2.5-2.5v-240c0-2.9,1.7-5.6,4.3-6.9l113-54.5       c3-1.7,6.9,0,7.3,3.4c0,0.2,0,0.4,0,0.6v297.3C316.4,470.2,315.3,471.3,314,471.3z" id="Shape_82_"/><path class="st49" d="M313.5,175.9v292.6h-27.3V181.7l20.1-9.7l5.5-2.6c0,0,1.2-0.3,1.6,0.9V175.9z" id="Shadow_56_"/><g id="Windows"><g id="Right_48_"><rect class="st50" height="205.3" id="Shape_81_" width="20" x="272.2" y="216.2"/><line class="st3" id="_x38_th" x1="272.2" x2="292.1" y1="396.1" y2="396.1"/><line class="st3" id="_x37_th" x1="272.2" x2="292.1" y1="373.5" y2="373.5"/><line class="st3" id="_x36_th_1_" x1="272.2" x2="292.1" y1="350.9" y2="350.9"/><line class="st3" id="_x35_th_4_" x1="272.2" x2="292.1" y1="328.2" y2="328.2"/><line class="st3" id="_x34_th_10_" x1="272.2" x2="292.1" y1="305.9" y2="305.9"/><line class="st3" id="_x33_rd_22_" x1="272.2" x2="292.1" y1="283.6" y2="283.6"/><line class="st3" id="_x32_nd_23_" x1="272.2" x2="292.1" y1="261.3" y2="261.3"/><line class="st3" id="_x31_st_23_" x1="272.2" x2="292.1" y1="238.9" y2="238.9"/></g><g id="Left_49_"><rect class="st50" height="134.6" id="Shape_80_" width="19.9" x="217.1" y="336.6"/><line class="st3" id="_x35_th_3_" x1="217.1" x2="237.1" y1="448.6" y2="448.6"/><line class="st3" id="_x34_th_9_" x1="217.1" x2="237.1" y1="426.3" y2="426.3"/><line class="st3" id="_x33_rd_21_" x1="217.1" x2="237.1" y1="404" y2="404"/><line class="st3" id="_x32_nd_22_" x1="217.1" x2="237.1" y1="381.7" y2="381.7"/><line class="st3" id="_x31_st_22_" x1="217.1" x2="237.1" y1="359.3" y2="359.3"/></g></g><g id="Lines_34_"><line class="st3" id="Right_47_" x1="257.4" x2="260.4" y1="203.2" y2="201.8"/><line class="st3" id="Left_48_" x1="239" x2="253.4" y1="212.1" y2="205.1"/></g></g></g><g id="Trees_1_"><g id="Left_47_"><path class="st51" d="M70.9,377c0.9,1,1.7,1.9,2.4,3c1.6,2.2,2.9,4.3,4.3,6.4c5.7,8.5,12.1,18.8,14.5,29.3       c0.7,2.9,1.1,5.9,1.1,8.7c-0.4,14.9-12.6,26.9-27.6,26.9c-15,0-27.2-11.9-27.6-26.9c0-2.8,0.5-5.8,1.1-8.7       c2.5-10.6,8.6-20.9,14.3-29.3c1.5-2.2,3.2-4.4,4.8-6.7c0.7-1,1.5-2,2.4-2.9l0.9-1c2.2-2.4,6-2.4,8.2,0L70.9,377z" id="Shape_79_"/><line class="st52" id="Base_line" x1="65.7" x2="65.7" y1="407.7" y2="470"/><line class="st52" id="Left_line_2_" x1="65.7" x2="52" y1="439.1" y2="423.2"/><line class="st52" id="Right_line_2_" x1="65.7" x2="74.5" y1="423.6" y2="413.4"/></g><g id="Right_46_"><path class="st53" d="M451.5,378.7c0.9,1,1.7,1.9,2.4,3c1.6,2.2,2.9,4.3,4.3,6.4c5.7,8.5,12.1,18.8,14.5,29.3       c0.7,2.9,1.1,5.9,1.1,8.7c-0.4,14.9-12.6,26.9-27.6,26.9c-15,0-27.2-11.9-27.6-26.9c0-2.8,0.5-5.8,1.1-8.7       c2.5-10.6,8.6-20.9,14.3-29.3c1.5-2.2,3.2-4.4,4.8-6.7c0.7-1,1.5-2,2.4-2.9l0.9-1c2.2-2.4,6-2.4,8.2,0L451.5,378.7z" id="Shape_78_"/><line class="st52" id="Base_line_1_" x1="446.3" x2="446.3" y1="409.3" y2="471.6"/><line class="st52" id="Left_line_1_" x1="446.3" x2="432.6" y1="440.7" y2="424.8"/><line class="st52" id="Right_line_1_" x1="446.3" x2="455.1" y1="425.3" y2="415"/></g></g></g></g></svg>