<?xml version="1.0" ?><svg width="500px" height="500px" viewBox="0 0 500 500" xmlns="http://www.w3.org/2000/svg"><g style="isolation:isolate"><path d="M303.278,121.459a55.833,55.833,0,0,1-46.2,14.611,55.949,55.949,0,0,1,63.667-59.814A55.835,55.835,0,0,1,303.278,121.459Z" fill="#7bb82f"/><path d="M320.914,81.06a55.943,55.943,0,0,0-59.057,55.482q-2.4-.133-4.783-.472a55.948,55.948,0,0,1,63.667-59.814Q320.93,78.655,320.914,81.06Z" fill="#fff" opacity="0.4"/><path d="M303.277,121.46a55.835,55.835,0,0,1-46.2,14.61,56.3,56.3,0,0,1,.15-10.442q.041.959.116,1.917a55.943,55.943,0,0,0,63.517-49.371A55.8,55.8,0,0,1,303.277,121.46Z" fill="#4ead34"/><path d="M303.278,121.459a55.833,55.833,0,0,1-46.2,14.611,55.949,55.949,0,0,1,63.667-59.814A55.835,55.835,0,0,1,303.278,121.459Z" fill="none" stroke="#262a5d" stroke-miterlimit="10" stroke-width="7.119"/><path d="M255.782,132.861a246.275,246.275,0,0,1,47.779-40.3,242.674,242.674,0,0,0-42.273,44.815Z" fill="#262a5d"/><path d="M252.523,179.249q.173-3.165.1-6.317c-.009-.525-.017-1.049-.045-1.574l-.07-1.57c-.077-1.045-.13-2.089-.244-3.128-.179-2.08-.486-4.143-.812-6.191l-.287-1.53c-.1-.509-.182-1.019-.3-1.523l-.336-1.514c-.058-.251-.107-.5-.171-.755l-.194-.749a79,79,0,0,0-3.916-11.646l-.6-1.4L245,139.967l-.322-.69-.162-.344-.174-.339-.693-1.353-.347-.675-.369-.664-.735-1.325c-.245-.441-.516-.868-.772-1.3s-.51-.868-.784-1.292a79.676,79.676,0,0,0-15.634-18.089q-2.271-1.938-4.655-3.722t-4.89-3.376q-2.495-1.6-5.078-3.016c-1.722-.941-3.454-1.807-5.224-2.612l10.045-18.3c2.069,1.3,4.1,2.688,6.05,4.128s3.85,2.947,5.688,4.511,3.619,3.185,5.339,4.866,3.374,3.425,4.972,5.214,3.115,3.651,4.582,5.542c.717.962,1.447,1.908,2.129,2.894.342.49.7.97,1.028,1.469l1,1.492c.337.493.645,1.007.965,1.511s.642,1.006.942,1.522c.6,1.032,1.222,2.05,1.782,3.1.285.523.575,1.043.854,1.569l.809,1.592.4.8.38.807.756,1.614c.251.537.475,1.089.712,1.632s.475,1.086.692,1.637l.647,1.655.322.826.3.836.588,1.671.147.417.134.422.265.844.529,1.685.469,1.7a90.3,90.3,0,0,1,2.656,13.767l.1.866c.033.288.051.579.078.868l.147,1.735c.056.577.075,1.157.108,1.736l.089,1.733c.058,2.314.085,4.621-.023,6.92-.03,1.15-.123,2.3-.194,3.441l-.152,1.713c-.047.571-.113,1.14-.18,1.708q-.387,3.411-1.022,6.771Z" fill="#f39a25"/><path d="M259.925,176.332q-.274,1.886-.63,3.756l-6.771-.84q.169-3.163.1-6.317c-.009-.524-.017-1.048-.045-1.573l-.07-1.571c-.077-1.045-.131-2.088-.244-3.127-.179-2.081-.485-4.144-.812-6.192l-.287-1.53c-.1-.508-.181-1.017-.3-1.521l-.337-1.514c-.057-.253-.107-.5-.171-.755l-.193-.75a79.114,79.114,0,0,0-3.916-11.646l-.6-1.405-.648-1.38-.323-.689-.162-.345-.173-.338-.694-1.355-.346-.675-.368-.663-.735-1.325c-.246-.441-.518-.868-.774-1.3s-.509-.869-.782-1.292a79.711,79.711,0,0,0-15.636-18.09q-2.269-1.936-4.654-3.722t-4.89-3.375q-2.5-1.6-5.078-3.015c-1.722-.942-3.454-1.808-5.225-2.613l10.047-18.3c.141.088.281.178.422.27l-6.7,12.2c1.829.831,3.621,1.727,5.4,2.7s3.53,2.013,5.25,3.116,3.409,2.267,5.056,3.491,3.248,2.513,4.814,3.849a82.434,82.434,0,0,1,16.166,18.7c.283.437.537.89.81,1.336s.546.891.8,1.346l.761,1.37.381.686.359.7.716,1.4.18.35.167.355.334.714.671,1.427.616,1.453a81.421,81.421,0,0,1,4.049,12.041l.2.774c.065.26.117.521.177.781l.347,1.565c.125.522.211,1.05.313,1.575l.3,1.581c.336,2.119.654,4.252.839,6.4.117,1.074.172,2.152.251,3.234l.074,1.623c.029.542.038,1.085.047,1.628q.066,3.256-.107,6.532Z" fill="#f39a25" opacity="0.5" style="mix-blend-mode:multiply"/><path d="M252.523,179.249q.173-3.165.1-6.317c-.009-.525-.017-1.049-.045-1.574l-.07-1.57c-.077-1.045-.13-2.089-.244-3.128-.179-2.08-.486-4.143-.812-6.191l-.287-1.53c-.1-.509-.182-1.019-.3-1.523l-.336-1.514c-.058-.251-.107-.5-.171-.755l-.194-.749a79,79,0,0,0-3.916-11.646l-.6-1.4L245,139.967l-.322-.69-.162-.344-.174-.339-.693-1.353-.347-.675-.369-.664-.735-1.325c-.245-.441-.516-.868-.772-1.3s-.51-.868-.784-1.292a79.676,79.676,0,0,0-15.634-18.089q-2.271-1.938-4.655-3.722t-4.89-3.376q-2.495-1.6-5.078-3.016c-1.722-.941-3.454-1.807-5.224-2.612l10.045-18.3c2.069,1.3,4.1,2.688,6.05,4.128s3.85,2.947,5.688,4.511,3.619,3.185,5.339,4.866,3.374,3.425,4.972,5.214,3.115,3.651,4.582,5.542c.717.962,1.447,1.908,2.129,2.894.342.49.7.97,1.028,1.469l1,1.492c.337.493.645,1.007.965,1.511s.642,1.006.942,1.522c.6,1.032,1.222,2.05,1.782,3.1.285.523.575,1.043.854,1.569l.809,1.592.4.8.38.807.756,1.614c.251.537.475,1.089.712,1.632s.475,1.086.692,1.637l.647,1.655.322.826.3.836.588,1.671.147.417.134.422.265.844.529,1.685.469,1.7a90.3,90.3,0,0,1,2.656,13.767l.1.866c.033.288.051.579.078.868l.147,1.735c.056.577.075,1.157.108,1.736l.089,1.733c.058,2.314.085,4.621-.023,6.92-.03,1.15-.123,2.3-.194,3.441l-.152,1.713c-.047.571-.113,1.14-.18,1.708q-.387,3.411-1.022,6.771Z" fill="none" stroke="#262a5d" stroke-miterlimit="10" stroke-width="7.119"/><path d="M371.28,220.082C365.861,209.689,345.5,174.767,303.6,164a100.923,100.923,0,0,0-39.141-2.075,104.386,104.386,0,0,1-28.911,0A100.923,100.923,0,0,0,196.4,164c-41.9,10.765-62.264,45.687-67.683,56.08-26.843,51.471-2.187,105.342,5.8,122.8,14,30.584,50.036,85.176,91.855,81.22a47.154,47.154,0,0,0,10.592-2.265,40.874,40.874,0,0,1,26.063,0,47.157,47.157,0,0,0,10.591,2.265c41.82,3.956,77.859-50.636,91.856-81.22C373.467,325.424,398.123,271.553,371.28,220.082Z" fill="#e00817"/><path d="M371.28,220.082C365.861,209.689,345.5,174.767,303.6,164a100.923,100.923,0,0,0-39.141-2.075,104.386,104.386,0,0,1-28.911,0A100.923,100.923,0,0,0,196.4,164c-41.9,10.765-62.264,45.687-67.683,56.08-26.843,51.471-2.187,105.342,5.8,122.8,14,30.584,50.036,85.176,91.855,81.22a47.154,47.154,0,0,0,10.592-2.265,40.874,40.874,0,0,1,26.063,0,47.157,47.157,0,0,0,10.591,2.265c41.82,3.956,77.859-50.636,91.856-81.22C373.467,325.424,398.123,271.553,371.28,220.082Z" fill="#b6c62f"/><path d="M337.567,180.272a96.812,96.812,0,0,0-25.927-10.889,100.656,100.656,0,0,0-39.069-2.07,103.951,103.951,0,0,1-28.861,0,100.712,100.712,0,0,0-39.079,2.07c-41.829,10.745-62.15,45.606-67.565,55.987-26.8,51.377-2.186,105.158,5.789,122.584,9.537,20.838,29.321,52.824,54.2,69.789-28.765-14.895-51.942-51.75-62.524-74.869-7.994-17.454-32.647-71.323-5.809-122.8,5.425-10.39,25.784-45.309,67.69-56.073a100.829,100.829,0,0,1,39.136-2.08,104.3,104.3,0,0,0,28.909,0,100.879,100.879,0,0,1,39.146,2.08A97.918,97.918,0,0,1,337.567,180.272Z" fill="#fff" opacity="0.3"/><g opacity="0.3"><path d="M184.989,216.529c-4.491,10.669-10.293,18.5-14.374,17.528-4.043-.979-6.028-10.681-3.011-21.885,2.981-11.215,11.042-19.267,16.558-17.739C189.712,195.958,189.441,205.878,184.989,216.529Z" fill="#fff"/></g><g opacity="0.3"><path d="M183.893,292.2c1.354,23.877,1.113,44.466-7.032,47.419-7.931,3-22.122-16.478-23.93-45.1-1.9-28.609,9.847-50.77,18.158-48.982C179.568,247.22,182.255,268.354,183.893,292.2Z" fill="#fff"/></g><path d="M365.479,342.874c-13.994,30.586-50.034,85.183-91.854,81.225a47.671,47.671,0,0,1-10.592-2.262,40.827,40.827,0,0,0-26.061,0A47.916,47.916,0,0,1,226.38,424.1c-28.87,2.731-54.99-22.449-73-48.367,16.592,18.729,37.305,33.308,59.667,31.2a47.3,47.3,0,0,0,10.62-2.271,40.929,40.929,0,0,1,26.139,0,47.307,47.307,0,0,0,10.62,2.271c41.935,3.959,78.071-50.781,92.1-81.445,8.013-17.5,32.733-71.523,5.818-123.13-.786-1.5-1.888-3.527-3.317-5.923a122.324,122.324,0,0,1,16.247,23.646C398.126,271.551,373.464,325.42,365.479,342.874Z" fill="#9cba2b"/><path d="M371.28,220.082C365.861,209.689,345.5,174.767,303.6,164a100.923,100.923,0,0,0-39.141-2.075,104.386,104.386,0,0,1-28.911,0A100.923,100.923,0,0,0,196.4,164c-41.9,10.765-62.264,45.687-67.683,56.08-26.843,51.471-2.187,105.342,5.8,122.8,14,30.584,50.036,85.176,91.855,81.22a47.154,47.154,0,0,0,10.592-2.265,40.874,40.874,0,0,1,26.063,0,47.157,47.157,0,0,0,10.591,2.265c41.82,3.956,77.859-50.636,91.856-81.22C373.467,325.424,398.123,271.553,371.28,220.082Z" fill="none" stroke="#262a5d" stroke-miterlimit="10" stroke-width="7.119"/></g></svg>