<?xml version="1.0" ?><svg width="340px" height="340px" viewBox="0 0 340 340" id="icons" xmlns="http://www.w3.org/2000/svg"><title/><path d="M158.275,28.411a35.206,35.206,0,0,0,4.974,7.954l87.412,115.8,4.83-3.3,4.3-2.945L183.953,22.7a28.389,28.389,0,0,0-5.142-7.768q-.162-.171-.33-.341A12.352,12.352,0,0,0,158.275,28.411Z" style="fill:#ffc49c"/><path d="M178.809,14.933c-3.907,2.33-7.814,6.834-4.227,15.087a23.435,23.435,0,0,0,2.331,4.071l62.386,89.29a8.34,8.34,0,0,1-.429,10.117l-1.206,1.448,13,17.217,4.83-3.3,4.829-3.3L184.091,22.109A35.3,35.3,0,0,0,178.809,14.933Z" style="fill:#e28966"/><path d="M56.388,254.051l2.746-2.909a11.071,11.071,0,0,1,16.853.883A32.608,32.608,0,0,1,82.481,266.5L77.7,284.971S70.13,266.16,56.388,254.051Z" style="fill:#f74f73"/><path d="M203.041,174.214a84.6,84.6,0,0,1,20.255-8.951V144.706h-23.67Z" style="fill:#c12140"/><path d="M174.816,144.706h28.225V173.1a321.532,321.532,0,0,0-39.63,50.471l-20.847,35.068L94.107,227.865l18.763-26.513a19.53,19.53,0,0,0,3.354-8.239c1.107-7.022,3.589-21.1,7.274-32.662Z" style="fill:#e9ebfc"/><path d="M133.083,157.51,130.04,169.7a14.214,14.214,0,0,0,1.771,11.034L144,200.041a6.509,6.509,0,0,1,.015,6.924l-16.031,25.65a8.183,8.183,0,0,1-6.954,3.846l-13.429-.026,35.722,22.687,20.761-34.29a348.945,348.945,0,0,1,38.955-50.618V144.706H174.816Z" style="fill:#acb9d4"/><path d="M177.382,130.36v14.472a14.088,14.088,0,0,1-10.36,13.749,16.638,16.638,0,0,1-2.936.471l-11.524-8.232-.025-20.46Z" style="fill:#ffc4b6"/><path d="M249.024,174.766C229.19,186.519,201.4,187.431,201.4,187.431L180.648,169.5l-22.957,20.934c11.012,10.186,23.917,17.831,32.7,23.172a24.309,24.309,0,0,0,23.021,1.563c28.536-12.823,41.323-25.526,41.323-25.526l-1.613-5.1Z" style="fill:#ffc4b6"/><path d="M253.125,184.544c-1.635,1.379-3.313,2.7-5.076,3.919-9.3,6.408-28.482,19.15-35.426,20.261q-.7.113-1.391.194A35.435,35.435,0,0,1,198,207.947l-.819,9.332a25.306,25.306,0,0,0,16.292-1.51c28.536-12.823,41.914-25.822,41.914-25.822Z" style="fill:#ea8b7f"/><path d="M157.691,190.437C168.7,200.623,181.216,208.515,190,213.856a24.931,24.931,0,0,0,11.4,3.5V187.431L180.648,169.5Z" style="fill:#f74f73"/><polygon points="223.296 165.263 249.087 158.576 249.087 144.706 223.296 144.706 223.296 165.263" style="fill:#ea8b7f"/><path d="M248.473,131.614c-1.018.486-3.134,1.392-3.134,1.392a19.629,19.629,0,0,0-1.8,1.4,11.321,11.321,0,0,0-2.053,14.347l5.267,8.69a11.572,11.572,0,0,0,14.741,4.513l12.751-5.876L259.8,134.847A8.843,8.843,0,0,0,248.473,131.614Z" style="fill:#ffc4b6"/><path d="M94.107,227.865A58.854,58.854,0,0,0,85.266,239.4,67.142,67.142,0,0,0,76.29,282c1.358,11.538,4.517,30.552,11.6,47.5h40.032l-1.461-26.915L172.632,329.5h38.277l-1.309-3.159a26.79,26.79,0,0,0-7.912-13.376l-60.557-54.727Z" style="fill:#e9ebfc"/><path d="M109.578,206l3.035,10.791a1.551,1.551,0,0,0,3.043-.382l.568-23.3a19.53,19.53,0,0,1-3.354,8.239Z" style="fill:#acb9d4"/><path d="M211.461,329.5l-.909-3.266a29.332,29.332,0,0,0-8.546-13.857l-44.422-40.317h0l-14.259-12.941-29.506-18.739h0L94.107,227.865a50.779,50.779,0,0,0-5.547,6.572l23.474,16.515a13.776,13.776,0,0,1,5.391,14.895q-.533,1.938-1.2,4.125c-5.76,18.8-3.571,50.3-2.763,59.531h14.464l-1.461-26.915L172.632,329.5Z" style="fill:#acb9d4"/><path d="M102.685,239.151l-3.138-1.918s-22.666,28.321-1.918,92.27h5.056S83.506,276.114,102.685,239.151Z" style="fill:#acb9d4"/><path d="M159.623,153.905a5.4,5.4,0,0,0-1.657.775l6.12,4.372a16.719,16.719,0,0,0,2.611-.392,14.1,14.1,0,0,0,10.685-13.826V130.36H152.537l.015,12.311c3.258,1.643,8.39,2.47,14.792,1.827a1.349,1.349,0,0,1,1.375,1.887A13.4,13.4,0,0,1,159.623,153.905Z" style="fill:#ea8b7f"/><path d="M200.154,102.044s.265,17-6.118,22.238H169.877l-3.095-30.036Z" style="fill:#383a3d"/><path d="M137.458,97.837V116.86a22.762,22.762,0,0,0,22.762,22.762h4.728s12.1-.22,16.714-7.917c0,0,12.315,1.319,14.294-8.8,0,0,1.236-6.179-3.413-8.05a7.024,7.024,0,0,0-6.76.846,9.3,9.3,0,0,0-2.582,3.025s-10.116-4.178-11.216-20.012Z" style="fill:#ffc4b6"/><path d="M137.458,109.264h37.074a29.958,29.958,0,0,1-2.547-10.547l-34.527-.88Z" style="fill:#ea8b7f"/><path d="M187.823,203.6c-2.324-1.415-4.968-3.06-7.451-4.688a9.72,9.72,0,0,1-3.316-12.625l7.149-13.71-3.557-3.073-22.957,20.934a207.4,207.4,0,0,0,32.242,23.855,25.381,25.381,0,0,0,11.468,3.634v-9.253A38.1,38.1,0,0,1,187.823,203.6Z" style="fill:#c12140"/><path d="M110.614,102.044h89.54S202.7,54.566,165.74,54.566c0,0-31.865-1.912-35.689,34.414l-10.03,1.808a11.437,11.437,0,0,0-9.407,11.256Z" style="fill:#f74f73"/><path d="M146.953,119.122a3.007,3.007,0,0,1-.832-.118l-2.613-.753a3,3,0,0,1,1.662-5.766l2.613.754a3,3,0,0,1-.83,5.883Z" style="fill:#ea8b7f"/><path d="M157.691,119.154a3,3,0,0,1-.855-5.877l3.044-.906a3,3,0,0,1,1.711,5.751l-3.044.906A2.993,2.993,0,0,1,157.691,119.154Z" style="fill:#ea8b7f"/><path d="M154.715,147.1l25.933,22.4L155.4,201.914l-26.835-26.321c-8.775-8.606-7.609-23.284,2.683-30q.606-.4,1.251-.766A19.34,19.34,0,0,1,154.715,147.1Z" style="fill:#e9ebfc"/><path d="M248.41,131.239a22.609,22.609,0,0,0-3.063,1.778c2.119.52,5.15,2.1,7.9,6.605,2.045,3.352,3.619,5.74,4.758,7.382a3.4,3.4,0,0,1-.879,4.777,19.77,19.77,0,0,0-7.308,9,11.568,11.568,0,0,0,11.677,1.179l13.424-5.018-14.94-22.423A9.172,9.172,0,0,0,248.41,131.239Z" style="fill:#ea8b7f"/><path d="M249.024,174.766a32.523,32.523,0,0,1,12.324-18.572,10.445,10.445,0,0,1,3.008-1.558s8.994.019,11.678,4L281.767,166c1.612,2.658,1.926,4.962.684,7.657h0a7.689,7.689,0,0,1-5.024,4.193c-4.4,1.243-12.378,4.4-22.163,11.793Z" style="fill:#ffc4b6"/><path d="M276.205,158.323a10.832,10.832,0,0,0-11.846-3.678l8.6,13.3a4.628,4.628,0,0,1-1.862,5.215s-9.085,3.474-15.366,9.122q-1.284,1.155-2.6,2.265l2.266,5.4c9.784-7.4,18.027-10.493,22.428-11.736a7.94,7.94,0,0,0,4.118-12.521Z" style="fill:#ea8b7f"/><path d="M184.487,125.932a14.354,14.354,0,0,1,3.87-7.956,2.82,2.82,0,0,1,3.715-.12l.038.033a5.289,5.289,0,0,1,.6.624.381.381,0,0,1-.423.6c-1.121-.39-2.949-.532-4.122,1.925a.734.734,0,0,0,.52,1.041,2.183,2.183,0,0,1,1.914,1.993,3.367,3.367,0,0,1-.778,2.535,6.88,6.88,0,0,1-2.071,1.75A2.274,2.274,0,0,1,184.487,125.932Z" style="fill:#ea8b7f"/><ellipse cx="142.216" cy="82.248" rx="7.396" ry="6.357" style="fill:#c12140" transform="translate(50.863 218.795) rotate(-86.259)"/></svg>