<?xml version="1.0" ?><svg width="500px" height="500px" viewBox="0 0 500 500" xmlns="http://www.w3.org/2000/svg"><g style="isolation:isolate"><path d="M136.945,296.385A615.943,615.943,0,0,0,268.766,124.663c12.868-24.677,44.2-35.359,73.438-22.773h0c27.945,12.053,43.7,44.557,33.833,74.346a719.943,719.943,0,0,1-119.73,222c-30.274,38.2-88.572,38.01-119.421,3.49h0C107.077,368.547,108.728,322.29,136.945,296.385Z" fill="#6c539d"/><path d="M115.157,346.536A74.141,74.141,0,0,1,126.081,323.8a73.348,73.348,0,0,1,9.525-10.883A679.172,679.172,0,0,0,248.551,176.142q-9.166,6.631-18.006,12.485a616.269,616.269,0,0,1-93.6,107.753,66.544,66.544,0,0,0-9.125,10.323A69.316,69.316,0,0,0,115.157,346.536Z" fill="#fff" opacity="0.3"/><path d="M256.3,398.239a719.832,719.832,0,0,0,119.736-222,58.792,58.792,0,0,0,.2-36.16A746.543,746.543,0,0,1,251.283,372.1c-31.914,40.194-93.919,39.546-127.01,2.773a96.865,96.865,0,0,1-6.528-8.045,84.961,84.961,0,0,0,19.137,34.9C167.728,436.252,226.031,436.433,256.3,398.239Z" fill="#6c539d" opacity="0.5" style="mix-blend-mode:multiply"/><path d="M136.945,296.385A615.943,615.943,0,0,0,268.766,124.663c12.868-24.677,44.2-35.359,73.438-22.773h0c27.945,12.053,43.7,44.557,33.833,74.346a719.943,719.943,0,0,1-119.73,222c-30.274,38.2-88.572,38.01-119.421,3.49h0C107.077,368.547,108.728,322.29,136.945,296.385Z" fill="none" stroke="#262a5d" stroke-linecap="round" stroke-miterlimit="10" stroke-width="7.119"/><g opacity="0.2"><path d="M175.2,347.54a316.226,316.226,0,0,0,67.025-90.334c3.617-7.3,1.05-15.654-5.428-18.8h0c-6.488-3.152-14.36-.543-18.226,5.693A284.118,284.118,0,0,1,150.9,319.3c-8.374,6.5-10.575,18.616-4.3,27.264h0C152.858,355.2,166.239,355.959,175.2,347.54Z" fill="#fff"/></g><path d="M369.411,112.647c1.472-1.3,7.181-6.634,7.765-15.04.923-13.277-11.869-20.882-12.556-21.275-6.935-3.97-18.223-5.866-26.149.784-6.176,5.181-7.041,12.807-7.208,14.858a68.09,68.09,0,0,1,38.148,20.673Z" fill="#7bb82f"/><path d="M331.258,91.972a65.824,65.824,0,0,1,8.678,2.11,21.135,21.135,0,0,1,6.9-12.59c6.063-5.094,14.1-5.176,20.634-3.156a26.253,26.253,0,0,0-2.847-2c-6.94-3.975-18.224-5.861-26.15.777C332.294,82.3,331.432,89.93,331.258,91.972Z" fill="#fff" opacity="0.3"/><path d="M362.569,106.253a66.27,66.27,0,0,1,6.843,6.4c1.465-1.3,7.182-6.633,7.765-15.037.919-13.287-11.872-20.889-12.553-21.28a27.627,27.627,0,0,0-6.92-2.762c4.435,5.155,8.469,12.5,7.824,21.8A29.074,29.074,0,0,1,362.569,106.253Z" fill="#7bb82f" opacity="0.5" style="mix-blend-mode:multiply"/><path d="M369.411,112.647c1.472-1.3,7.181-6.634,7.765-15.04.923-13.277-11.869-20.882-12.556-21.275-6.935-3.97-18.223-5.866-26.149.784-6.176,5.181-7.041,12.807-7.208,14.858a68.09,68.09,0,0,1,38.148,20.673Z" fill="none" stroke="#262a5d" stroke-linecap="round" stroke-linejoin="round" stroke-width="7.119"/><path d="M260.527,224.713c3.89.249,36.641,1.862,57.587-23.289a65.35,65.35,0,0,0,14.427-34.874,88.224,88.224,0,0,0,10.064,42.885,86.391,86.391,0,0,0,17.3,22.632q11.38-25.32,20.977-51.456c10.314-28-.242-58.9-22.777-76.135a66.108,66.108,0,0,0-11.889-7.249C314.376,82.245,279.371,92.9,264.24,119.7a684.976,684.976,0,0,1-44.573,69.275c12.692-7.841,25.927-16.638,39.5-26.515q13.755-10.017,25.946-19.934a149.88,149.88,0,0,1-24.585,82.192Z" fill="#7bb82f"/><path d="M219.667,188.97c6.645-4.114,13.439-8.473,20.352-13.135q15.6-23.165,29.555-47.622c16.067-28.017,52-39.883,84.07-25.21a61.985,61.985,0,0,1,8.088,4.475c-.534-.484-1.073-.934-1.625-1.393-.649-.553-1.328-1.091-2.005-1.609a66.108,66.108,0,0,0-11.889-7.249C314.376,82.245,279.371,92.9,264.24,119.7c-3.6,6.405-7.276,12.735-11.078,18.986-.653,1.1-1.326,2.2-1.991,3.292q-4.042,6.612-8.227,13.117c-.936,1.447-1.864,2.881-2.813,4.319-.928,1.434-1.876,2.871-2.837,4.3-.9,1.378-1.81,2.735-2.737,4.095q-2.935,4.356-5.934,8.645-3.22,4.618-6.5,9.169C221.307,186.727,220.488,187.849,219.667,188.97Z" fill="#fff" opacity="0.3"/><path d="M349.028,219.726A85.773,85.773,0,0,0,359.9,232.067q11.38-25.32,20.977-51.456c9.572-25.968,1.172-54.453-18.093-72.176a73.184,73.184,0,0,1,5.932,62.01Q359.592,195.4,349.028,219.726Z" fill="#7bb82f" opacity="0.5" style="mix-blend-mode:multiply"/><path d="M260.527,224.713c3.89.249,36.641,1.862,57.587-23.289a65.35,65.35,0,0,0,14.427-34.874,88.224,88.224,0,0,0,10.064,42.885,86.391,86.391,0,0,0,17.3,22.632q11.38-25.32,20.977-51.456c10.314-28-.242-58.9-22.777-76.135a66.108,66.108,0,0,0-11.889-7.249C314.376,82.245,279.371,92.9,264.24,119.7a684.976,684.976,0,0,1-44.573,69.275c12.692-7.841,25.927-16.638,39.5-26.515q13.755-10.017,25.946-19.934a149.88,149.88,0,0,1-24.585,82.192Z" fill="none" stroke="#262a5d" stroke-linecap="round" stroke-linejoin="round" stroke-width="7.119"/></g></svg>