<?xml version="1.0" ?><svg width="500px" height="500px" viewBox="0 0 500 500" xmlns="http://www.w3.org/2000/svg"><g style="isolation:isolate"><path d="M360.75,161.3c-3.659,17.385-17.246,27.4-25.451,33.259-47.412,33.9-137.427,35.825-172.686-10.123-4.224-5.5-20.154-26.266-15.56-51.829,2.51-13.976,10.169-23.83,14.911-28.98A82.641,82.641,0,0,0,188.6,158.542a54.315,54.315,0,0,1,20-57.08,61.631,61.631,0,0,0-1.065,9.1v.009c-.444,9.661.935,24.776,11.577,37.029a46.309,46.309,0,0,0,14.523,11.133A147.014,147.014,0,0,1,286.007,41.881c6.539-3.936,14.06-2.844,17.533,1.519,2.88,3.612,2.093,8.354,1.889,9.41-6.622,3.982-31.925,20.237-42.28,53.32a95.929,95.929,0,0,0-.4,55.172c.176.593.333,1.13.491,1.621a127.2,127.2,0,0,1,54.144-46.753,42.147,42.147,0,0,0-9.873,17.393A33.983,33.983,0,0,0,306.4,144.89a34.976,34.976,0,0,0,4.075,13.948,46.641,46.641,0,0,0,33.731-46.66,77.1,77.1,0,0,1,8.678,11.7C358.416,133.054,363.862,146.53,360.75,161.3Z" fill="#7bb82f"/><path d="M360.75,161.3c-3.659,17.385-17.246,27.4-25.451,33.259-.279.195-.556.4-.834.574a38.169,38.169,0,0,0-6.372-10.734c.6-.4,1.194-.815,1.778-1.232,7.6-5.446,20.209-14.726,23.6-30.851,3.251-15.439-3.575-29.36-9.243-37.751.018-1,0-1.806-.019-2.389C347.413,115.716,365.927,136.721,360.75,161.3Z" fill="#7bb82f" opacity="0.5" style="mix-blend-mode:multiply"/><path d="M156.91,162.854c-1.725-5.9-5.646-19.955-1.642-37.145a67.661,67.661,0,0,1,7.085-18.079c-.176-1.454-.305-2.8-.389-4-4.742,5.15-12.4,15-14.911,28.98-4.594,25.563,11.336,46.328,15.56,51.829a70.437,70.437,0,0,0,4.659,5.451q.178-2.2.355-4.409A80.2,80.2,0,0,1,156.91,162.854Z" fill="#fff" opacity="0.3"/><path d="M352.886,123.875c-3.862,16.644-13.059,29.258-25.386,33.713a33.084,33.084,0,0,1-17.023,1.25,46.641,46.641,0,0,0,33.731-46.66A77.1,77.1,0,0,1,352.886,123.875Z" fill="#fff" opacity="0.3"/><path d="M317.386,116.17a42.454,42.454,0,0,0-9.17,15.112c-1.187.312-2.7.755-4.439,1.375a61.506,61.506,0,0,0-6.144,2.633c-6.365,3.216-13.167,9.875-13.167,9.875-9.331,9.136-17,17.215-21.909,22.5-.01-1.287-.01-3.5.194-6.363.176.593.333,1.13.491,1.621a127.2,127.2,0,0,1,54.144-46.753Z" fill="#fff" opacity="0.3"/><path d="M208.6,101.462a61.631,61.631,0,0,0-1.065,9.1v.009a103.456,103.456,0,0,0-6.816,10.708,95.423,95.423,0,0,0-6.595,14.438c-1.582,4.731-4.214,15.015-1.609,29.877-1.7-3.585-8.877-19.766-2.54-38.787A52.164,52.164,0,0,1,208.6,101.462Z" fill="#fff" opacity="0.3"/><path d="M299.427,40.4a136.3,136.3,0,0,0-25.092,23.182c-18.3,21.781-25.239,44.069-29.769,59.141a205.066,205.066,0,0,0-7.541,37.707l-3.393-1.692A147.014,147.014,0,0,1,286.007,41.881,15.174,15.174,0,0,1,299.427,40.4Z" fill="#fff" opacity="0.3"/><path d="M335.3,194.561c8.2-5.865,21.787-15.879,25.447-33.263,5.173-24.574-13.334-45.584-16.546-49.122a46.645,46.645,0,0,1-33.729,46.663,35.059,35.059,0,0,1-4.078-13.946c-1.111-15.444,8.8-26.418,10.985-28.726a127.322,127.322,0,0,0-54.14,46.755,96,96,0,0,1-.1-56.788c10.362-33.091,35.665-49.346,42.288-53.325.2-1.053.986-5.8-1.9-9.412-3.475-4.357-11-5.45-17.533-1.517a147.078,147.078,0,0,0-52.378,116.858,46.621,46.621,0,0,1-14.522-11.131c-15.623-17.992-11.288-42.163-10.511-46.141a54.318,54.318,0,0,0-19.99,57.079,82.569,82.569,0,0,1-26.638-54.917c-4.748,5.149-12.4,15-14.918,28.984-4.593,25.56,11.345,46.327,15.562,51.822C197.874,230.382,287.884,228.463,335.3,194.561Z" fill="none" stroke="#060606" stroke-miterlimit="10" stroke-width="7.119"/><circle cx="250.001" cy="421.591" fill="#24252c" r="38.956"/><path d="M288.954,421.593a38.949,38.949,0,0,1-64.249,29.619,47.107,47.107,0,0,0,5.418.96,55.233,55.233,0,0,0,5.612.327c21.939.043,32.545-8.333,32.545-8.333,15.228-12.025,15.107-34.126,15.079-39.291-.008-1.52-.078-2.777-.138-3.621A38.688,38.688,0,0,1,288.954,421.593Z" fill="#0d0d10"/><circle cx="250.001" cy="421.591" fill="none" r="38.956" stroke="#060606" stroke-miterlimit="10" stroke-width="7.119"/><path d="M250,372.952a38.954,38.954,0,0,1-38.955,38.956c-.907,0-1.806-.028-2.695-.093-.3-.019-.592-.047-.889-.074-.148-.01-.287-.028-.435-.037l-.945-.112c-.185-.018-.371-.046-.565-.073-.222-.037-.445-.065-.667-.1a38.622,38.622,0,0,1-6.372-1.583c-.259-.084-.509-.176-.759-.259a40.528,40.528,0,0,1-3.853-1.649c-.306-.148-.6-.3-.9-.463-.167-.084-.324-.167-.49-.26-.417-.222-.825-.454-1.232-.694-.556-.334-1.1-.667-1.64-1.029-.37-.24-.741-.5-1.111-.759a.884.884,0,0,1-.12-.093c-.445-.314-.89-.648-1.325-.99-.38-.3-.759-.612-1.13-.927l-.009-.009a.632.632,0,0,1-.148-.129,38.39,38.39,0,0,1-6.8-7.521q-.207-.306-.416-.611c-.51-.769-.991-1.556-1.445-2.371-.231-.4-.444-.806-.657-1.214-.473-.9-.9-1.806-1.288-2.741-.111-.25-.213-.51-.315-.769-.083-.2-.167-.407-.241-.621-.13-.323-.25-.657-.361-.99s-.232-.668-.333-1.01c-.065-.194-.13-.389-.176-.584-.13-.4-.241-.8-.343-1.194-.139-.51-.259-1.019-.371-1.538-.064-.278-.12-.546-.175-.824-.075-.352-.139-.7-.195-1.065s-.12-.713-.167-1.065c-.083-.546-.148-1.093-.194-1.649-.028-.213-.046-.416-.065-.629-.028-.334-.047-.668-.065-1-.046-.732-.065-1.472-.065-2.223a38.947,38.947,0,0,1,35.565-38.806c1.121-.1,2.251-.149,3.39-.149.741,0,1.482.019,2.223.065.333.019.667.037,1,.065l.6.056c.241.027.473.046.714.083.324.028.639.074.953.12.362.046.714.1,1.075.167s.713.12,1.065.195c.334.064.667.138,1,.213.834.185,1.668.4,2.483.648.222.065.444.129.657.2.343.1.676.213,1.009.333s.668.231.992.361c.2.074.416.149.62.241.259.1.519.2.769.315.935.389,1.843.815,2.741,1.288.352.175.7.37,1.047.564q.639.348,1.25.723c.269.157.538.324.8.5.167.1.324.213.491.315l.611.417c.565.388,1.13.8,1.676,1.231.232.167.454.343.667.519a38.583,38.583,0,0,1,5.316,5.2,37.432,37.432,0,0,1,3.464,4.789c.195.314.38.629.574.953.26.445.51.908.751,1.371.194.361.38.732.555,1.112.139.287.279.574.408.87s.259.584.38.871.25.583.361.879c.3.751.574,1.51.815,2.279.1.3.195.6.287.917.074.231.139.454.195.695.092.305.176.62.25.935.166.648.305,1.306.435,1.973.083.416.158.842.231,1.269.028.2.065.416.093.639q.042.3.083.611c.047.334.084.658.112.982.046.472.092.944.12,1.426q.042.584.055,1.167C249.988,372.017,250,372.489,250,372.952Z" fill="#24252c"/><path d="M214.9,335.961c0,.9-.027,1.787-.092,2.676a40.182,40.182,0,0,1-1.51,8.7,40.9,40.9,0,0,1-36.574,29.416c-.9.065-1.8.092-2.705.092-.584,0-1.167-.009-1.741-.037-.028-.213-.046-.416-.065-.629-.028-.334-.047-.668-.065-1-.046-.732-.065-1.472-.065-2.223a38.947,38.947,0,0,1,35.565-38.806c1.121-.1,2.251-.149,3.39-.149.741,0,1.482.019,2.223.065.333.019.667.037,1,.065l.6.056C214.9,334.775,214.9,335.368,214.9,335.961Z" fill="#0d0d10"/><path d="M249.506,366.738c.028.2.065.416.093.639a41.863,41.863,0,0,1-5.826-.436,43.52,43.52,0,0,1-36.121-32.795c1.121-.1,2.251-.149,3.39-.149.741,0,1.482.019,2.223.065.333.019.667.037,1,.065l.6.056c.241.027.473.046.714.083.324.028.639.074.953.12.362.046.714.1,1.075.167s.713.12,1.065.195c.334.064.667.138,1,.213.834.185,1.668.4,2.483.648.222.065.444.129.657.2.343.1.676.213,1.009.333s.668.231.992.361c.2.074.416.149.62.241.259.1.519.2.769.315.935.389,1.843.815,2.741,1.288.352.175.7.37,1.047.564q.639.348,1.25.723c.269.157.538.324.8.5.167.1.324.213.491.315l.611.417c.565.388,1.13.8,1.676,1.231.232.167.454.343.667.519a38.583,38.583,0,0,1,5.316,5.2,37.432,37.432,0,0,1,3.464,4.789c.195.314.38.629.574.953.26.445.51.908.751,1.371.194.361.38.732.555,1.112.139.287.279.574.408.87s.259.584.38.871.25.583.361.879c.3.751.574,1.51.815,2.279.1.3.195.6.287.917.074.231.139.454.195.695.092.305.176.62.25.935.166.648.305,1.306.435,1.973C249.368,365.885,249.442,366.311,249.506,366.738Z" fill="#0d0d10"/><path d="M250,372.952a38.954,38.954,0,0,1-38.955,38.956c-.907,0-1.806-.028-2.695-.093-.3-.019-.592-.047-.889-.074-.148-.01-.287-.028-.435-.037l-.945-.112c-.185-.018-.371-.046-.565-.073-.222-.037-.445-.065-.667-.1a38.622,38.622,0,0,1-6.372-1.583c-.259-.084-.509-.176-.759-.259a40.528,40.528,0,0,1-3.853-1.649c-.306-.148-.6-.3-.9-.463-.167-.084-.324-.167-.49-.26-.417-.222-.825-.454-1.232-.694-.556-.334-1.1-.667-1.64-1.029-.37-.24-.741-.5-1.111-.759a.884.884,0,0,1-.12-.093c-.445-.314-.89-.648-1.325-.99-.38-.3-.759-.612-1.13-.927l-.009-.009a.632.632,0,0,1-.148-.129c.018.009.037.009.055.018a48.356,48.356,0,0,0,5.354.945s2.732.315,5.612.324c21.941.046,32.546-8.336,32.546-8.336,9.817-7.752,13.254-19.69,14.448-28.582a75.319,75.319,0,0,0,.63-10.706c-.009-1.519-.074-2.779-.139-3.621.195.314.38.629.574.953.26.445.51.908.751,1.371.194.361.38.732.555,1.112.139.287.279.574.408.87s.259.584.38.871.25.583.361.879c.3.751.574,1.51.815,2.279.1.3.195.6.287.917.074.231.139.454.195.695.092.305.176.62.25.935.166.648.305,1.306.435,1.973.093.416.167.842.231,1.269.028.2.065.416.093.639h.01c.027.2.055.407.073.611.047.334.084.658.112.982.046.472.092.944.12,1.426q.042.584.055,1.167C249.988,372.017,250,372.489,250,372.952Z" fill="#0d0d10"/><path d="M250,372.952a38.954,38.954,0,0,1-38.955,38.956c-.907,0-1.806-.028-2.695-.093-.3-.019-.592-.047-.889-.074-.148-.01-.287-.028-.435-.037l-.945-.112c-.185-.018-.371-.046-.565-.073-.222-.037-.445-.065-.667-.1a38.622,38.622,0,0,1-6.372-1.583c-.259-.084-.509-.176-.759-.259a40.528,40.528,0,0,1-3.853-1.649c-.306-.148-.6-.3-.9-.463-.167-.084-.324-.167-.49-.26-.417-.222-.825-.454-1.232-.694-.556-.334-1.1-.667-1.64-1.029-.37-.24-.741-.5-1.111-.759a.884.884,0,0,1-.12-.093c-.445-.314-.89-.648-1.325-.99-.38-.3-.759-.612-1.13-.927l-.009-.009a.632.632,0,0,1-.148-.129,38.39,38.39,0,0,1-6.8-7.521q-.207-.306-.416-.611c-.51-.769-.991-1.556-1.445-2.371-.231-.4-.444-.806-.657-1.214-.473-.9-.9-1.806-1.288-2.741-.111-.25-.213-.51-.315-.769-.083-.2-.167-.407-.241-.621-.13-.323-.25-.657-.361-.99s-.232-.668-.333-1.01c-.065-.194-.13-.389-.176-.584-.13-.4-.241-.8-.343-1.194-.139-.51-.259-1.019-.371-1.538-.064-.278-.12-.546-.175-.824-.075-.352-.139-.7-.195-1.065s-.12-.713-.167-1.065c-.083-.546-.148-1.093-.194-1.649-.028-.213-.046-.416-.065-.629-.028-.334-.047-.668-.065-1-.046-.732-.065-1.472-.065-2.223a38.947,38.947,0,0,1,35.565-38.806c1.121-.1,2.251-.149,3.39-.149.741,0,1.482.019,2.223.065.333.019.667.037,1,.065l.6.056c.241.027.473.046.714.083.324.028.639.074.953.12.362.046.714.1,1.075.167s.713.12,1.065.195c.334.064.667.138,1,.213.834.185,1.668.4,2.483.648.222.065.444.129.657.2.343.1.676.213,1.009.333s.668.231.992.361c.2.074.416.149.62.241.259.1.519.2.769.315.935.389,1.843.815,2.741,1.288.352.175.7.37,1.047.564q.639.348,1.25.723c.269.157.538.324.8.5.167.1.324.213.491.315l.611.417c.565.388,1.13.8,1.676,1.231.232.167.454.343.667.519a38.583,38.583,0,0,1,5.316,5.2,37.432,37.432,0,0,1,3.464,4.789c.195.314.38.629.574.953.26.445.51.908.751,1.371.194.361.38.732.555,1.112.139.287.279.574.408.87s.259.584.38.871.25.583.361.879c.3.751.574,1.51.815,2.279.1.3.195.6.287.917.074.231.139.454.195.695.092.305.176.62.25.935.166.648.305,1.306.435,1.973.083.416.158.842.231,1.269.028.2.065.416.093.639q.042.3.083.611c.047.334.084.658.112.982.046.472.092.944.12,1.426q.042.584.055,1.167C249.988,372.017,250,372.489,250,372.952Z" fill="none" stroke="#060606" stroke-miterlimit="10" stroke-width="7.119"/><path d="M327.907,372.952c0,1.288-.064,2.566-.185,3.825a38.961,38.961,0,0,1-38.769,35.131c-.908,0-1.807-.028-2.7-.093-.3-.019-.593-.047-.889-.074-.148-.01-.287-.028-.435-.037l-.945-.112c-.185-.018-.37-.046-.565-.073-.222-.037-.444-.065-.667-.1a38.6,38.6,0,0,1-6.372-1.583c-.259-.084-.509-.176-.759-.259a40.638,40.638,0,0,1-3.853-1.649c-.306-.148-.6-.3-.9-.463-.167-.084-.325-.167-.492-.26-.416-.222-.824-.454-1.231-.694-.556-.334-1.1-.667-1.64-1.029-.37-.24-.741-.5-1.111-.759a.827.827,0,0,1-.12-.093c-.445-.314-.89-.648-1.325-.99-.38-.3-.759-.612-1.13-.927l-.009-.009a.613.613,0,0,1-.148-.129,38.354,38.354,0,0,1-6.8-7.521l-.417-.611c-.51-.769-.991-1.556-1.445-2.371-.232-.4-.445-.806-.658-1.214-.472-.9-.9-1.806-1.287-2.741-.111-.25-.213-.51-.315-.769-.083-.2-.166-.407-.241-.621-.129-.323-.25-.657-.361-.99s-.231-.668-.333-1.01c-.065-.194-.13-.389-.176-.584-.13-.4-.241-.8-.343-1.194-.139-.51-.26-1.019-.37-1.538-.065-.278-.121-.546-.176-.824-.074-.352-.14-.7-.195-1.065s-.12-.713-.167-1.065c-.111-.75-.194-1.51-.259-2.278-.028-.334-.046-.668-.065-1-.046-.732-.065-1.472-.065-2.223a39.645,39.645,0,0,1,.4-5.575,38.953,38.953,0,0,1,34.8-33.194c1.232-.121,2.492-.186,3.761-.186.74,0,1.481.019,2.222.065.334.019.667.037,1,.065.055.009.11.009.166.019h.01c.379.027.759.064,1.139.12.324.028.639.074.954.12.361.046.713.1,1.074.167s.713.12,1.065.195c.333.064.667.138,1,.213.834.185,1.667.4,2.483.648.222.065.444.129.657.2.343.1.676.213,1.01.333s.667.231.991.361c.2.074.416.149.62.241.26.1.519.2.769.315.935.389,1.843.815,2.742,1.288.352.175.7.37,1.046.564q.639.348,1.25.723c.269.157.537.324.8.5.166.1.324.213.491.315l.611.417c.565.388,1.13.8,1.676,1.231.232.167.454.343.667.519a38.7,38.7,0,0,1,5.317,5.2,37.425,37.425,0,0,1,3.463,4.789c.2.314.38.629.575.953.259.445.509.908.75,1.371q.291.541.556,1.112c.138.287.277.574.407.87s.259.584.38.871.25.583.361.879c.3.751.574,1.51.815,2.279.1.3.2.6.287.917.074.231.139.454.195.695.092.305.176.62.25.935.166.648.305,1.306.435,1.973.083.416.157.842.232,1.269.018.148.046.305.074.463.037.259.074.528.1.787.047.334.084.658.112.982.046.472.092.944.12,1.426q.042.584.056,1.167C327.9,372.017,327.907,372.489,327.907,372.952Z" fill="#24252c"/><path d="M292.342,334.146a42.268,42.268,0,0,1-1.371,4.565A43.665,43.665,0,0,1,256.1,366.96a43.159,43.159,0,0,1-5.706.417,38.953,38.953,0,0,1,34.8-33.194c1.232-.121,2.492-.186,3.761-.186.74,0,1.481.019,2.222.065.334.019.667.037,1,.065C292.231,334.136,292.286,334.136,292.342,334.146Z" fill="#0d0d10"/><path d="M327.907,372.952c0,1.288-.064,2.566-.185,3.825-.565.028-1.139.038-1.713.038a40.838,40.838,0,0,1-39.27-29.555,40.312,40.312,0,0,1-1.426-7.752c-.1-1.167-.158-2.352-.158-3.547,0-.593.009-1.186.037-1.778,1.232-.121,2.492-.186,3.761-.186.74,0,1.481.019,2.222.065.334.019.667.037,1,.065.055.009.11.009.166.019h.01c.379.027.759.064,1.139.12.324.028.639.074.954.12.361.046.713.1,1.074.167s.713.12,1.065.195c.333.064.667.138,1,.213.834.185,1.667.4,2.483.648.222.065.444.129.657.2.343.1.676.213,1.01.333s.667.231.991.361c.2.074.416.149.62.241.26.1.519.2.769.315.935.389,1.843.815,2.742,1.288.352.175.7.37,1.046.564q.639.348,1.25.723c.269.157.537.324.8.5.166.1.324.213.491.315l.611.417c.565.388,1.13.8,1.676,1.231.232.167.454.343.667.519a38.7,38.7,0,0,1,5.317,5.2,37.425,37.425,0,0,1,3.463,4.789c.2.314.38.629.575.953.259.445.509.908.75,1.371q.291.541.556,1.112c.138.287.277.574.407.87s.259.584.38.871.25.583.361.879c.3.751.574,1.51.815,2.279.1.3.2.6.287.917.074.231.139.454.195.695.092.305.176.62.25.935.166.648.305,1.306.435,1.973.093.416.167.842.232,1.269.018.148.046.305.074.463.037.259.074.528.1.787.047.334.084.658.112.982.046.472.092.944.12,1.426q.042.584.056,1.167C327.9,372.017,327.907,372.489,327.907,372.952Z" fill="#0d0d10"/><path d="M327.907,372.952c0,1.288-.064,2.566-.185,3.825a38.961,38.961,0,0,1-38.769,35.131c-.908,0-1.807-.028-2.7-.093-.3-.019-.593-.047-.889-.074-.148-.01-.287-.028-.435-.037l-.945-.112c-.185-.018-.37-.046-.565-.073-.222-.037-.444-.065-.667-.1a38.6,38.6,0,0,1-6.372-1.583c-.259-.084-.509-.176-.759-.259a40.638,40.638,0,0,1-3.853-1.649c-.306-.148-.6-.3-.9-.463-.167-.084-.325-.167-.492-.26-.416-.222-.824-.454-1.231-.694-.556-.334-1.1-.667-1.64-1.029-.37-.24-.741-.5-1.111-.759a.827.827,0,0,1-.12-.093c-.445-.314-.89-.648-1.325-.99-.38-.3-.759-.612-1.13-.927l-.009-.009a.613.613,0,0,1-.148-.129c.018.009.037.009.055.018a48.356,48.356,0,0,0,5.354.945s2.732.315,5.612.324c21.942.046,32.546-8.336,32.546-8.336,6.632-5.233,10.345-12.374,12.439-19.2a67.691,67.691,0,0,0,2.64-20.089c-.01-1.519-.075-2.779-.14-3.621.2.314.38.629.575.953.259.445.509.908.75,1.371q.291.541.556,1.112c.138.287.277.574.407.87s.259.584.38.871.25.583.361.879c.3.751.574,1.51.815,2.279.1.3.2.6.287.917.074.231.139.454.195.695.092.305.176.62.25.935.166.648.305,1.306.435,1.973.093.416.167.842.232,1.269.018.148.046.305.074.463.037.259.074.528.1.787.047.334.084.658.112.982.046.472.092.944.12,1.426q.042.584.056,1.167C327.9,372.017,327.907,372.489,327.907,372.952Z" fill="#0d0d10"/><path d="M327.907,372.952c0,1.288-.064,2.566-.185,3.825a38.961,38.961,0,0,1-38.769,35.131c-.908,0-1.807-.028-2.7-.093-.3-.019-.593-.047-.889-.074-.148-.01-.287-.028-.435-.037l-.945-.112c-.185-.018-.37-.046-.565-.073-.222-.037-.444-.065-.667-.1a38.6,38.6,0,0,1-6.372-1.583c-.259-.084-.509-.176-.759-.259a40.638,40.638,0,0,1-3.853-1.649c-.306-.148-.6-.3-.9-.463-.167-.084-.325-.167-.492-.26-.416-.222-.824-.454-1.231-.694-.556-.334-1.1-.667-1.64-1.029-.37-.24-.741-.5-1.111-.759a.827.827,0,0,1-.12-.093c-.445-.314-.89-.648-1.325-.99-.38-.3-.759-.612-1.13-.927l-.009-.009a.613.613,0,0,1-.148-.129,38.354,38.354,0,0,1-6.8-7.521l-.417-.611c-.51-.769-.991-1.556-1.445-2.371-.232-.4-.445-.806-.658-1.214-.472-.9-.9-1.806-1.287-2.741-.111-.25-.213-.51-.315-.769-.083-.2-.166-.407-.241-.621-.129-.323-.25-.657-.361-.99s-.231-.668-.333-1.01c-.065-.194-.13-.389-.176-.584-.13-.4-.241-.8-.343-1.194-.139-.51-.26-1.019-.37-1.538-.065-.278-.121-.546-.176-.824-.074-.352-.14-.7-.195-1.065s-.12-.713-.167-1.065c-.111-.75-.194-1.51-.259-2.278-.028-.334-.046-.668-.065-1-.046-.732-.065-1.472-.065-2.223a39.645,39.645,0,0,1,.4-5.575,38.953,38.953,0,0,1,34.8-33.194c1.232-.121,2.492-.186,3.761-.186.74,0,1.481.019,2.222.065.334.019.667.037,1,.065.055.009.11.009.166.019h.01c.379.027.759.064,1.139.12.324.028.639.074.954.12.361.046.713.1,1.074.167s.713.12,1.065.195c.333.064.667.138,1,.213.834.185,1.667.4,2.483.648.222.065.444.129.657.2.343.1.676.213,1.01.333s.667.231.991.361c.2.074.416.149.62.241.26.1.519.2.769.315.935.389,1.843.815,2.742,1.288.352.175.7.37,1.046.564q.639.348,1.25.723c.269.157.537.324.8.5.166.1.324.213.491.315l.611.417c.565.388,1.13.8,1.676,1.231.232.167.454.343.667.519a38.7,38.7,0,0,1,5.317,5.2,37.425,37.425,0,0,1,3.463,4.789c.2.314.38.629.575.953.259.445.509.908.75,1.371q.291.541.556,1.112c.138.287.277.574.407.87s.259.584.38.871.25.583.361.879c.3.751.574,1.51.815,2.279.1.3.2.6.287.917.074.231.139.454.195.695.092.305.176.62.25.935.166.648.305,1.306.435,1.973.083.416.157.842.232,1.269.018.148.046.305.074.463.037.259.074.528.1.787.047.334.084.658.112.982.046.472.092.944.12,1.426q.042.584.056,1.167C327.9,372.017,327.907,372.489,327.907,372.952Z" fill="none" stroke="#060606" stroke-miterlimit="10" stroke-width="7.119"/><path d="M211.042,326.7a38.954,38.954,0,0,1-38.955,38.955c-.907,0-1.806-.028-2.695-.092-.3-.019-.592-.047-.889-.075-.148-.009-.287-.028-.435-.037l-.945-.111c-.185-.018-.371-.046-.565-.074-.222-.037-.445-.065-.667-.1a38.524,38.524,0,0,1-6.372-1.584c-.259-.083-.509-.176-.76-.259a40.363,40.363,0,0,1-3.852-1.649c-.306-.148-.6-.3-.9-.463-.167-.083-.324-.166-.49-.259-.417-.222-.825-.454-1.232-.694-.556-.334-1.1-.667-1.64-1.029-.37-.24-.741-.5-1.111-.759a1.19,1.19,0,0,1-.121-.093c-.444-.315-.889-.648-1.324-.991-.38-.3-.759-.611-1.13-.926l-.009-.009a.616.616,0,0,1-.148-.13,38.356,38.356,0,0,1-6.8-7.52l-.416-.612c-.51-.769-.991-1.556-1.445-2.371-.232-.4-.445-.806-.658-1.213-.472-.9-.9-1.806-1.287-2.742-.111-.25-.213-.509-.315-.768-.084-.2-.167-.408-.241-.621-.129-.324-.25-.657-.361-.991s-.231-.666-.334-1.009c-.064-.195-.129-.389-.175-.584-.13-.4-.241-.8-.343-1.194-.139-.51-.259-1.019-.371-1.538-.064-.278-.12-.546-.176-.824-.074-.352-.138-.7-.194-1.065s-.12-.714-.167-1.065c-.111-.751-.194-1.51-.259-2.279-.028-.333-.047-.667-.065-1-.046-.732-.065-1.473-.065-2.223a38.986,38.986,0,0,1,37.2-38.918c.583-.028,1.166-.037,1.759-.037.741,0,1.482.019,2.223.065.334.018.667.037,1,.065.436.036.88.083,1.315.139.325.027.639.073.955.12.361.046.713.1,1.074.167s.713.12,1.065.194c.334.065.667.139,1,.213.834.185,1.667.4,2.482.648.222.066.445.13.658.2.343.1.676.213,1.009.334l.39.138c.2.066.407.139.6.223s.416.148.62.241c.259.1.519.2.769.315.935.389,1.843.815,2.741,1.287.352.176.7.371,1.047.565q.639.348,1.25.722c.269.158.538.325.8.5.167.1.324.213.491.314l.611.417c.565.389,1.13.8,1.676,1.232.232.167.454.342.667.519a38.64,38.64,0,0,1,5.316,5.2,37.325,37.325,0,0,1,3.464,4.788c.195.315.38.63.574.954.26.445.51.908.751,1.371q.291.541.555,1.111c.139.287.278.574.408.871s.259.583.38.871.25.583.361.88c.3.749.574,1.509.815,2.278.1.3.194.6.287.917.074.231.139.453.195.694.092.306.175.621.25.936.166.648.305,1.306.435,1.973.083.416.158.843.231,1.269.019.147.047.305.074.463.028.222.056.453.084.675a.478.478,0,0,1,.019.112c.046.333.083.657.11.981.047.473.093.945.121,1.427q.042.584.055,1.167C211.033,325.763,211.042,326.236,211.042,326.7Z" fill="#24252c"/><path d="M185.258,290.031a35.233,35.233,0,0,1-2.594,2.8A38.873,38.873,0,0,1,155.472,303.9a40.71,40.71,0,0,1-5.956-.445,38.942,38.942,0,0,1-7.215-1.843,38.828,38.828,0,0,1,28.027-13.828c.583-.028,1.166-.037,1.759-.037.741,0,1.482.019,2.223.065.334.018.667.037,1,.065.436.036.88.083,1.315.139.325.027.639.073.955.12.361.046.713.1,1.074.167s.713.12,1.065.194c.334.065.667.139,1,.213.834.185,1.667.4,2.482.648.222.066.445.13.658.2.343.1.676.213,1.009.334Z" fill="#0d0d10"/><path d="M210.625,320.948c.028.222.056.453.084.675a40.556,40.556,0,0,1-5.955-.481,41.416,41.416,0,0,1-30.564-22.034,41.187,41.187,0,0,1-3.862-11.327c.583-.028,1.166-.037,1.759-.037.741,0,1.482.019,2.223.065.334.018.667.037,1,.065.436.036.88.083,1.315.139.325.027.639.073.955.12.361.046.713.1,1.074.167s.713.12,1.065.194c.334.065.667.139,1,.213.834.185,1.667.4,2.482.648.222.066.445.13.658.2.343.1.676.213,1.009.334l.39.138c.2.066.407.139.6.223s.416.148.62.241c.259.1.519.2.769.315.935.389,1.843.815,2.741,1.287.352.176.7.371,1.047.565q.639.348,1.25.722c.269.158.538.325.8.5.167.1.324.213.491.314l.611.417c.565.389,1.13.8,1.676,1.232.232.167.454.342.667.519a38.64,38.64,0,0,1,5.316,5.2,37.325,37.325,0,0,1,3.464,4.788c.195.315.38.63.574.954.26.445.51.908.751,1.371q.291.541.555,1.111c.139.287.278.574.408.871s.259.583.38.871.25.583.361.88c.3.749.574,1.509.815,2.278.1.3.194.6.287.917.074.231.139.453.195.694.092.306.175.621.25.936.166.648.305,1.306.435,1.973.092.416.167.843.231,1.269C210.57,320.632,210.6,320.79,210.625,320.948Z" fill="#0d0d10"/><path d="M201.845,301.572a38.685,38.685,0,0,0-19.181-8.743,39.335,39.335,0,0,0-5.946-.454,37.979,37.979,0,0,0-5.158.342,38.947,38.947,0,0,0-24.7,63.62,1.014,1.014,0,0,1,.093.111.616.616,0,0,1-.148-.13,38.356,38.356,0,0,1-6.8-7.52l-.416-.612c-.51-.769-.991-1.556-1.445-2.371-.232-.4-.445-.806-.658-1.213-.472-.9-.9-1.806-1.287-2.742-.111-.25-.213-.509-.315-.768-.084-.2-.167-.408-.241-.621-.129-.324-.25-.657-.361-.991s-.231-.666-.334-1.009c-.064-.195-.129-.389-.175-.584-.13-.389-.241-.787-.343-1.194-.139-.51-.259-1.019-.371-1.538-.064-.278-.12-.546-.176-.824-.074-.352-.138-.7-.194-1.065s-.12-.714-.167-1.065c-.111-.751-.194-1.51-.259-2.279-.028-.333-.047-.667-.065-1-.046-.732-.065-1.473-.065-2.223a38.986,38.986,0,0,1,37.2-38.918c.583-.028,1.166-.037,1.759-.037.741,0,1.482.019,2.223.065.334.018.667.037,1,.065.436.036.88.083,1.315.139.325.027.639.073.955.12.361.046.713.1,1.074.167s.713.12,1.065.194c.334.065.667.139,1,.213.834.185,1.667.4,2.482.648.222.066.445.13.658.2.343.1.676.213,1.009.334l.39.138c.2.066.407.139.6.223s.416.148.62.241c.259.1.519.2.769.315.935.389,1.843.815,2.741,1.287.352.176.7.371,1.047.565q.639.348,1.25.722c.269.158.538.325.8.5.167.1.324.213.491.314l.611.417c.565.389,1.13.8,1.676,1.232.232.167.454.342.667.519A38.64,38.64,0,0,1,201.845,301.572Z" fill="#fff" opacity="0.3"/><path d="M211.042,326.7a38.954,38.954,0,0,1-38.955,38.955c-.907,0-1.806-.028-2.695-.092-.3-.019-.592-.047-.889-.075-.148-.009-.287-.028-.435-.037l-.945-.111c-.185-.018-.371-.046-.565-.074-.222-.037-.445-.065-.667-.1a38.524,38.524,0,0,1-6.372-1.584c-.259-.083-.509-.176-.76-.259a40.363,40.363,0,0,1-3.852-1.649c-.306-.148-.6-.3-.9-.463-.167-.083-.324-.166-.49-.259-.417-.222-.825-.454-1.232-.694-.556-.334-1.1-.667-1.64-1.029-.37-.24-.741-.5-1.111-.759a1.19,1.19,0,0,1-.121-.093c-.444-.315-.889-.648-1.324-.991-.38-.3-.759-.611-1.13-.926l-.009-.009a.616.616,0,0,1-.148-.13c.018.009.036.009.055.019a48.342,48.342,0,0,0,5.354.935,55.611,55.611,0,0,0,5.612.333c21.941.037,32.546-8.335,32.546-8.335,9.651-7.623,13.133-19.292,14.384-28.128a73.742,73.742,0,0,0,.694-11.161c-.009-1.519-.074-2.778-.139-3.621.195.315.38.63.574.954.26.445.51.908.751,1.371q.291.541.555,1.111c.139.287.278.574.408.871s.259.583.38.871.25.583.361.88c.3.749.574,1.509.815,2.278.1.3.194.6.287.917.074.231.139.453.195.694.092.306.175.621.25.936.166.648.305,1.306.435,1.973.092.416.167.843.231,1.269.019.147.047.305.074.463.028.222.056.453.084.675h.009c0,.037.01.074.01.112.046.333.083.657.11.981.047.473.093.945.121,1.427q.042.584.055,1.167C211.033,325.763,211.042,326.236,211.042,326.7Z" fill="#0d0d10"/><path d="M211.042,326.7a38.954,38.954,0,0,1-38.955,38.955c-.907,0-1.806-.028-2.695-.092-.3-.019-.592-.047-.889-.075-.148-.009-.287-.028-.435-.037l-.945-.111c-.185-.018-.371-.046-.565-.074-.222-.037-.445-.065-.667-.1a38.524,38.524,0,0,1-6.372-1.584c-.259-.083-.509-.176-.76-.259a40.363,40.363,0,0,1-3.852-1.649c-.306-.148-.6-.3-.9-.463-.167-.083-.324-.166-.49-.259-.417-.222-.825-.454-1.232-.694-.556-.334-1.1-.667-1.64-1.029-.37-.24-.741-.5-1.111-.759a1.19,1.19,0,0,1-.121-.093c-.444-.315-.889-.648-1.324-.991-.38-.3-.759-.611-1.13-.926l-.009-.009a.616.616,0,0,1-.148-.13,38.356,38.356,0,0,1-6.8-7.52l-.416-.612c-.51-.769-.991-1.556-1.445-2.371-.232-.4-.445-.806-.658-1.213-.472-.9-.9-1.806-1.287-2.742-.111-.25-.213-.509-.315-.768-.084-.2-.167-.408-.241-.621-.129-.324-.25-.657-.361-.991s-.231-.666-.334-1.009c-.064-.195-.129-.389-.175-.584-.13-.4-.241-.8-.343-1.194-.139-.51-.259-1.019-.371-1.538-.064-.278-.12-.546-.176-.824-.074-.352-.138-.7-.194-1.065s-.12-.714-.167-1.065c-.111-.751-.194-1.51-.259-2.279-.028-.333-.047-.667-.065-1-.046-.732-.065-1.473-.065-2.223a38.986,38.986,0,0,1,37.2-38.918c.583-.028,1.166-.037,1.759-.037.741,0,1.482.019,2.223.065.334.018.667.037,1,.065.436.036.88.083,1.315.139.325.027.639.073.955.12.361.046.713.1,1.074.167s.713.12,1.065.194c.334.065.667.139,1,.213.834.185,1.667.4,2.482.648.222.066.445.13.658.2.343.1.676.213,1.009.334l.39.138c.2.066.407.139.6.223s.416.148.62.241c.259.1.519.2.769.315.935.389,1.843.815,2.741,1.287.352.176.7.371,1.047.565q.639.348,1.25.722c.269.158.538.325.8.5.167.1.324.213.491.314l.611.417c.565.389,1.13.8,1.676,1.232.232.167.454.342.667.519a38.64,38.64,0,0,1,5.316,5.2,37.325,37.325,0,0,1,3.464,4.788c.195.315.38.63.574.954.26.445.51.908.751,1.371q.291.541.555,1.111c.139.287.278.574.408.871s.259.583.38.871.25.583.361.88c.3.749.574,1.509.815,2.278.1.3.194.6.287.917.074.231.139.453.195.694.092.306.175.621.25.936.166.648.305,1.306.435,1.973.083.416.158.843.231,1.269.019.147.047.305.074.463.028.222.056.453.084.675a.478.478,0,0,1,.019.112c.046.333.083.657.11.981.047.473.093.945.121,1.427q.042.584.055,1.167C211.033,325.763,211.042,326.236,211.042,326.7Z" fill="none" stroke="#060606" stroke-miterlimit="10" stroke-width="7.119"/><path d="M288.953,319.16c0,.778-.019,1.547-.066,2.306A38.968,38.968,0,0,1,250,358.124c-.907,0-1.806-.027-2.7-.092-.3-.019-.593-.047-.889-.074-.148-.01-.287-.028-.435-.037l-.945-.112c-.185-.018-.371-.046-.565-.074-.222-.037-.445-.064-.667-.1a38.7,38.7,0,0,1-6.372-1.583c-.259-.084-.509-.176-.759-.26-.76-.287-1.51-.583-2.242-.908q-.653-.276-1.278-.583a.155.155,0,0,1-.046-.018c-.5-.241-.982-.491-1.464-.751-1-.527-1.963-1.1-2.908-1.722-.435-.278-.861-.575-1.287-.871l-.12-.093c-.445-.324-.889-.648-1.325-.99-.38-.306-.759-.612-1.13-.927l-.009-.009a.907.907,0,0,1-.148-.13,38.382,38.382,0,0,1-5.381-5.594c-.186-.241-.371-.481-.547-.722s-.37-.5-.556-.76c-.2-.287-.4-.574-.592-.861-.334-.491-.649-.982-.954-1.491-.2-.324-.4-.667-.584-1-.277-.482-.537-.973-.8-1.464-.139-.277-.278-.565-.417-.843s-.269-.574-.4-.861-.26-.574-.38-.87-.25-.584-.361-.88a5.524,5.524,0,0,1-.223-.584c-.1-.25-.194-.51-.277-.769-.2-.518-.371-1.056-.528-1.593s-.315-1.065-.454-1.6c-.111-.435-.213-.871-.306-1.315-.065-.259-.12-.519-.166-.778-.075-.37-.139-.741-.2-1.121-.065-.343-.112-.676-.158-1.019-.111-.759-.194-1.528-.259-2.306-.018-.241-.037-.491-.055-.732,0-.073-.01-.148-.01-.231-.046-.732-.065-1.473-.065-2.213v-.019A38.955,38.955,0,0,1,247.7,280.27c.759-.047,1.528-.065,2.3-.065.825,0,1.64.028,2.455.074a38.133,38.133,0,0,1,6.214.9c.676.148,1.344.324,2,.51a.149.149,0,0,1,.083.027,35.022,35.022,0,0,1,4,1.39c.324.139.649.268.973.417s.639.287.954.435c.63.287,1.259.611,1.871.944.009,0,.009,0,.018.01.6.333,1.2.676,1.788,1.037.3.176.592.361.879.556.584.38,1.149.778,1.714,1.185.278.2.556.408.824.621s.547.426.815.648q1.209.972,2.334,2.056c.25.241.5.482.741.732.482.491.954,1,1.417,1.51.223.259.454.518.676.787a36.543,36.543,0,0,1,3.464,4.788c.232.371.454.741.667,1.121s.426.76.63,1.148.4.778.584,1.167a.009.009,0,0,1,.009.01c.166.361.342.722.5,1.092.389.853.731,1.723,1.056,2.6.139.389.268.787.4,1.186.12.361.232.722.333,1.093.038.111.075.222.1.333.1.37.2.75.3,1.13s.194.778.278,1.176c.009.056.028.111.037.176.064.278.12.565.166.852.028.111.047.232.065.352.028.167.065.334.083.5.047.232.084.473.121.714.037.268.074.536.1.805.037.3.074.593.1.889.046.463.092.926.12,1.389.028.4.046.806.056,1.214C288.943,318.234,288.953,318.7,288.953,319.16Z" fill="#24252c"/><path d="M252.452,280.279v.019a40.071,40.071,0,0,1-.269,4.621,40.963,40.963,0,0,1-2.1,9.132,41.413,41.413,0,0,1-34.334,27.3,40.072,40.072,0,0,1-4.621.268h-.009c0-.073-.01-.148-.01-.231-.046-.732-.065-1.473-.065-2.213v-.019A38.955,38.955,0,0,1,247.7,280.27c.759-.047,1.528-.065,2.3-.065C250.822,280.205,251.637,280.233,252.452,280.279Z" fill="#0d0d10"/><path d="M288.953,319.16c0,.778-.019,1.547-.066,2.306a40.111,40.111,0,0,1-7.659-.732,41.208,41.208,0,0,1-33.2-35.333,40.867,40.867,0,0,1-.323-5.122v-.009c.759-.047,1.528-.065,2.3-.065.825,0,1.64.028,2.455.074a38.133,38.133,0,0,1,6.214.9c.676.148,1.344.324,2,.51a.149.149,0,0,1,.083.027,35.022,35.022,0,0,1,4,1.39c.324.139.649.268.973.417s.639.287.954.435c.63.287,1.259.611,1.871.944.009,0,.009,0,.018.01.6.333,1.2.676,1.788,1.037.3.176.592.361.879.556.584.38,1.149.778,1.714,1.185.278.2.556.408.824.621s.547.426.815.648q1.209.972,2.334,2.056c.25.241.5.482.741.732.482.491.954,1,1.417,1.51.223.259.454.518.676.787a36.543,36.543,0,0,1,3.464,4.788c.232.371.454.741.667,1.121s.426.76.63,1.148.4.778.584,1.167a.009.009,0,0,1,.009.01c.166.361.342.722.5,1.092.389.853.731,1.723,1.056,2.6.139.389.268.787.4,1.186.12.361.232.722.333,1.093.038.111.075.222.1.333.1.37.2.75.3,1.13s.194.778.278,1.176c.009.056.028.111.037.176.064.278.12.565.166.852.028.111.047.232.065.352.028.167.065.334.083.5.047.232.084.473.121.714.037.268.074.536.1.805.037.3.074.593.1.889.046.463.092.926.12,1.389.028.4.046.806.056,1.214C288.943,318.234,288.953,318.7,288.953,319.16Z" fill="#0d0d10"/><path d="M288.953,319.16c0,.778-.019,1.547-.066,2.306A38.968,38.968,0,0,1,250,358.124c-.907,0-1.806-.027-2.7-.092-.3-.019-.593-.047-.889-.074-.148-.01-.287-.028-.435-.037l-.945-.112c-.185-.018-.371-.046-.565-.074-.222-.037-.445-.064-.667-.1a38.7,38.7,0,0,1-6.372-1.583c-.259-.084-.509-.176-.759-.26-.76-.287-1.51-.583-2.242-.908q-.653-.276-1.278-.583a.155.155,0,0,1-.046-.018c-.5-.241-.982-.491-1.464-.751-1-.527-1.963-1.1-2.908-1.722-.435-.278-.861-.575-1.287-.871l-.12-.093c-.445-.324-.889-.648-1.325-.99-.38-.306-.759-.612-1.13-.927l-.009-.009a.907.907,0,0,1-.148-.13c.018.01.037.01.055.019a48.342,48.342,0,0,0,5.354.935,55.464,55.464,0,0,0,5.612.334c21.942.037,32.546-8.336,32.546-8.336,7.215-5.7,10.985-13.661,12.948-21.006a68.854,68.854,0,0,0,2.13-18.282c-.009-1.528-.074-2.779-.139-3.622.232.371.454.741.667,1.121s.426.76.63,1.148.4.778.584,1.167a.009.009,0,0,1,.009.01c.166.361.342.722.5,1.092.389.853.731,1.723,1.056,2.6.139.389.268.787.4,1.186.12.361.232.722.333,1.093.038.111.075.222.1.333.1.37.2.75.3,1.13s.194.778.278,1.176c.009.056.028.111.037.176.064.278.12.565.166.852.028.111.047.232.065.352.028.167.065.334.083.5.047.232.084.473.121.714.037.268.074.536.1.805.037.3.074.593.1.889.046.463.092.926.12,1.389.028.4.046.806.056,1.214C288.943,318.234,288.953,318.7,288.953,319.16Z" fill="#0d0d10"/><path d="M288.953,319.16c0,.778-.019,1.547-.066,2.306A38.968,38.968,0,0,1,250,358.124c-.907,0-1.806-.027-2.7-.092-.3-.019-.593-.047-.889-.074-.148-.01-.287-.028-.435-.037l-.945-.112c-.185-.018-.371-.046-.565-.074-.222-.037-.445-.064-.667-.1a38.7,38.7,0,0,1-6.372-1.583c-.259-.084-.509-.176-.759-.26-.76-.287-1.51-.583-2.242-.908q-.653-.276-1.278-.583a.155.155,0,0,1-.046-.018c-.5-.241-.982-.491-1.464-.751-1-.527-1.963-1.1-2.908-1.722-.435-.278-.861-.575-1.287-.871l-.12-.093c-.445-.324-.889-.648-1.325-.99-.38-.306-.759-.612-1.13-.927l-.009-.009a.907.907,0,0,1-.148-.13,38.382,38.382,0,0,1-5.381-5.594c-.186-.241-.371-.481-.547-.722s-.37-.5-.556-.76c-.2-.287-.4-.574-.592-.861-.334-.491-.649-.982-.954-1.491-.2-.324-.4-.667-.584-1-.277-.482-.537-.973-.8-1.464-.139-.277-.278-.565-.417-.843s-.269-.574-.4-.861-.26-.574-.38-.87-.25-.584-.361-.88a5.524,5.524,0,0,1-.223-.584c-.1-.25-.194-.51-.277-.769-.2-.518-.371-1.056-.528-1.593s-.315-1.065-.454-1.6c-.111-.435-.213-.871-.306-1.315-.065-.259-.12-.519-.166-.778-.075-.37-.139-.741-.2-1.121-.065-.343-.112-.676-.158-1.019-.111-.759-.194-1.528-.259-2.306-.018-.241-.037-.491-.055-.732,0-.073-.01-.148-.01-.231-.046-.732-.065-1.473-.065-2.213v-.019A38.955,38.955,0,0,1,247.7,280.27c.759-.047,1.528-.065,2.3-.065.825,0,1.64.028,2.455.074a38.133,38.133,0,0,1,6.214.9c.676.148,1.344.324,2,.51a.149.149,0,0,1,.083.027,35.022,35.022,0,0,1,4,1.39c.324.139.649.268.973.417s.639.287.954.435c.63.287,1.259.611,1.871.944.009,0,.009,0,.018.01.6.333,1.2.676,1.788,1.037.3.176.592.361.879.556.584.38,1.149.778,1.714,1.185.278.2.556.408.824.621s.547.426.815.648q1.209.972,2.334,2.056c.25.241.5.482.741.732.482.491.954,1,1.417,1.51.223.259.454.518.676.787a36.543,36.543,0,0,1,3.464,4.788c.232.371.454.741.667,1.121s.426.76.63,1.148.4.778.584,1.167a.009.009,0,0,1,.009.01c.166.361.342.722.5,1.092.389.853.731,1.723,1.056,2.6.139.389.268.787.4,1.186.12.361.232.722.333,1.093.038.111.075.222.1.333.1.37.2.75.3,1.13s.194.778.278,1.176c.009.056.028.111.037.176.064.278.12.565.166.852.028.111.047.232.065.352.028.167.065.334.083.5.047.232.084.473.121.714.037.268.074.536.1.805.037.3.074.593.1.889.046.463.092.926.12,1.389.028.4.046.806.056,1.214C288.943,318.234,288.953,318.7,288.953,319.16Z" fill="none" stroke="#060606" stroke-miterlimit="10" stroke-width="7.119"/><path d="M366.862,326.7a38.953,38.953,0,0,1-38.955,38.955c-.907,0-1.806-.028-2.695-.092-.3-.019-.593-.047-.889-.075-.148-.009-.287-.028-.435-.037l-.945-.111c-.185-.018-.37-.046-.565-.074-.222-.037-.444-.065-.667-.1a38.5,38.5,0,0,1-6.372-1.584c-.259-.083-.509-.176-.759-.259a40.381,40.381,0,0,1-3.853-1.649c-.306-.148-.6-.3-.9-.463-.167-.083-.325-.166-.491-.259-.417-.222-.825-.454-1.232-.694-.556-.334-1.1-.667-1.64-1.029-.37-.24-.74-.5-1.111-.759a1,1,0,0,1-.12-.093c-.445-.315-.89-.648-1.325-.991-.38-.3-.759-.611-1.13-.926l-.009-.009a.616.616,0,0,1-.148-.13,38.32,38.32,0,0,1-6.8-7.52l-.417-.612c-.509-.769-.991-1.556-1.445-2.371-.232-.4-.445-.806-.658-1.213-.472-.9-.9-1.806-1.287-2.742-.111-.25-.213-.509-.315-.768-.083-.2-.166-.408-.241-.621-.129-.324-.25-.657-.361-.991s-.231-.666-.333-1.009c-.065-.195-.13-.389-.176-.584-.13-.4-.241-.8-.343-1.194-.139-.51-.259-1.019-.37-1.538-.065-.278-.121-.546-.177-.824-.073-.352-.138-.7-.194-1.065s-.12-.714-.166-1.065c-.112-.751-.195-1.51-.26-2.279-.028-.333-.046-.667-.065-1-.046-.732-.064-1.473-.064-2.223a38.931,38.931,0,0,1,38.954-38.955q.806,0,1.612.028c.2.009.407.018.611.037.334.018.667.037,1,.065.435.036.879.083,1.315.139.324.027.639.073.954.12.361.046.713.1,1.074.167s.713.12,1.065.194c.333.065.667.139,1,.213.834.185,1.667.4,2.482.648.223.066.445.13.658.2.343.1.676.213,1.01.334s.667.231.991.361c.2.074.417.148.62.241.26.1.519.2.769.315.936.389,1.843.815,2.741,1.287.353.176.7.371,1.047.565q.639.348,1.25.722c.269.158.537.325.8.5.166.1.324.213.491.314l.611.417c.565.389,1.13.8,1.677,1.232.231.167.453.342.666.519a38.7,38.7,0,0,1,5.317,5.2.05.05,0,0,1,.027.037,37.442,37.442,0,0,1,3.436,4.751c.195.315.38.63.575.954.259.445.509.908.75,1.371q.291.541.556,1.111c.139.287.277.574.407.871s.259.583.38.871.25.583.361.88c.3.749.574,1.509.815,2.278.1.3.195.6.287.917.074.231.139.453.195.694.092.306.176.621.25.936.166.648.305,1.306.435,1.973.083.416.157.843.232,1.269.018.147.046.305.074.463.037.259.074.527.1.787.046.333.083.657.111.981.046.473.093.945.12,1.427q.042.584.056,1.167C366.853,325.763,366.862,326.236,366.862,326.7Z" fill="#24252c"/><path d="M357.693,301.609a38.856,38.856,0,0,1-38.343-6.947,37.509,37.509,0,0,1-4.613-4.631,38.8,38.8,0,0,1,13.17-2.287q.806,0,1.612.028c.2.009.407.018.611.037.334.018.667.037,1,.065.435.036.879.083,1.315.139.324.027.639.073.954.12.361.046.713.1,1.074.167s.713.12,1.065.194c.333.065.667.139,1,.213.834.185,1.667.4,2.482.648.223.066.445.13.658.2.343.1.676.213,1.01.334s.667.231.991.361c.2.074.417.148.62.241.26.1.519.2.769.315.936.389,1.843.815,2.741,1.287.353.176.7.371,1.047.565q.639.348,1.25.722c.269.158.537.325.8.5.166.1.324.213.491.314l.611.417c.565.389,1.13.8,1.677,1.232.231.167.453.342.666.519a38.7,38.7,0,0,1,5.317,5.2A.05.05,0,0,1,357.693,301.609Z" fill="#0d0d10"/><path d="M329.519,287.772l-.009.009a38.782,38.782,0,0,1-1.195,4.826,39.958,39.958,0,0,1-2.649,6.427,41.267,41.267,0,0,1-30.7,22,42.038,42.038,0,0,1-5.659.435,38.929,38.929,0,0,1,38.6-33.722Q328.713,287.744,329.519,287.772Z" fill="#0d0d10"/><path d="M366.864,326.7a38.949,38.949,0,0,1-64.249,29.619,47.379,47.379,0,0,0,5.419.96,55.207,55.207,0,0,0,5.612.327c21.939.043,32.545-8.333,32.545-8.333,15.228-12.025,15.107-34.126,15.079-39.291-.008-1.52-.079-2.777-.139-3.621A38.688,38.688,0,0,1,366.864,326.7Z" fill="#0d0d10"/><path d="M366.862,326.7a38.953,38.953,0,0,1-38.955,38.955c-.907,0-1.806-.028-2.695-.092-.3-.019-.593-.047-.889-.075-.148-.009-.287-.028-.435-.037l-.945-.111c-.185-.018-.37-.046-.565-.074-.222-.037-.444-.065-.667-.1a38.5,38.5,0,0,1-6.372-1.584c-.259-.083-.509-.176-.759-.259a40.381,40.381,0,0,1-3.853-1.649c-.306-.148-.6-.3-.9-.463-.167-.083-.325-.166-.491-.259-.417-.222-.825-.454-1.232-.694-.556-.334-1.1-.667-1.64-1.029-.37-.24-.74-.5-1.111-.759a1,1,0,0,1-.12-.093c-.445-.315-.89-.648-1.325-.991-.38-.3-.759-.611-1.13-.926l-.009-.009a.616.616,0,0,1-.148-.13,38.32,38.32,0,0,1-6.8-7.52l-.417-.612c-.509-.769-.991-1.556-1.445-2.371-.232-.4-.445-.806-.658-1.213-.472-.9-.9-1.806-1.287-2.742-.111-.25-.213-.509-.315-.768-.083-.2-.166-.408-.241-.621-.129-.324-.25-.657-.361-.991s-.231-.666-.333-1.009c-.065-.195-.13-.389-.176-.584-.13-.4-.241-.8-.343-1.194-.139-.51-.259-1.019-.37-1.538-.065-.278-.121-.546-.177-.824-.073-.352-.138-.7-.194-1.065s-.12-.714-.166-1.065c-.112-.751-.195-1.51-.26-2.279-.028-.333-.046-.667-.065-1-.046-.732-.064-1.473-.064-2.223a38.931,38.931,0,0,1,38.954-38.955q.806,0,1.612.028c.2.009.407.018.611.037.334.018.667.037,1,.065.435.036.879.083,1.315.139.324.027.639.073.954.12.361.046.713.1,1.074.167s.713.12,1.065.194c.333.065.667.139,1,.213.834.185,1.667.4,2.482.648.223.066.445.13.658.2.343.1.676.213,1.01.334s.667.231.991.361c.2.074.417.148.62.241.26.1.519.2.769.315.936.389,1.843.815,2.741,1.287.353.176.7.371,1.047.565q.639.348,1.25.722c.269.158.537.325.8.5.166.1.324.213.491.314l.611.417c.565.389,1.13.8,1.677,1.232.231.167.453.342.666.519a38.7,38.7,0,0,1,5.317,5.2.05.05,0,0,1,.027.037,37.442,37.442,0,0,1,3.436,4.751c.195.315.38.63.575.954.259.445.509.908.75,1.371q.291.541.556,1.111c.139.287.277.574.407.871s.259.583.38.871.25.583.361.88c.3.749.574,1.509.815,2.278.1.3.195.6.287.917.074.231.139.453.195.694.092.306.176.621.25.936.166.648.305,1.306.435,1.973.083.416.157.843.232,1.269.018.147.046.305.074.463.037.259.074.527.1.787.046.333.083.657.111.981.046.473.093.945.12,1.427q.042.584.056,1.167C366.853,325.763,366.862,326.236,366.862,326.7Z" fill="none" stroke="#060606" stroke-miterlimit="10" stroke-width="7.119"/><circle cx="201.784" cy="209.374" fill="#24252c" r="38.956"/><path d="M231.54,184.248a38.947,38.947,0,0,0-54.885,54.886,38.949,38.949,0,1,1,54.885-54.886Z" fill="#fff" opacity="0.3"/><path d="M240.737,209.376A38.949,38.949,0,0,1,176.488,239a47.341,47.341,0,0,0,5.419.96,55.207,55.207,0,0,0,5.612.327c21.939.043,32.544-8.333,32.544-8.333,15.229-12.025,15.108-34.126,15.08-39.291-.008-1.52-.079-2.777-.139-3.621A38.688,38.688,0,0,1,240.737,209.376Z" fill="#0d0d10"/><circle cx="201.784" cy="209.374" fill="none" r="38.956" stroke="#060606" stroke-miterlimit="10" stroke-width="7.119"/><path d="M337.169,209.371a38.945,38.945,0,0,1-34.518,38.695,36.752,36.752,0,0,1-4.437.26,38.761,38.761,0,0,1-25.155-9.216c-.111-.092-.222-.185-.333-.287-.241-.2-.473-.407-.7-.62s-.463-.417-.685-.639-.445-.426-.667-.649a40.6,40.6,0,0,1-3.085-3.464.207.207,0,0,0-.027-.046c-.38-.491-.75-.982-1.112-1.482q-.32-.444-.611-.889h-.009c-.315-.481-.63-.973-.926-1.463-.167-.269-.325-.537-.482-.815-.306-.537-.612-1.093-.9-1.649-.14-.278-.278-.565-.417-.852s-.269-.565-.4-.852-.259-.583-.379-.871-.25-.583-.361-.88c-.084-.194-.158-.389-.223-.583-.1-.25-.194-.51-.278-.769-.194-.528-.37-1.056-.527-1.593-.158-.509-.306-1.037-.445-1.556,0-.018-.009-.028-.009-.046-.112-.435-.213-.871-.306-1.315q-.1-.39-.166-.778c-.075-.371-.14-.741-.2-1.121-.065-.343-.112-.676-.158-1.019-.111-.759-.194-1.528-.259-2.306-.028-.324-.047-.639-.065-.963-.046-.732-.065-1.473-.065-2.214v-.018c0-1.121.046-2.232.139-3.325A38.984,38.984,0,0,1,308.884,171.9a.149.149,0,0,1,.083.027,35.022,35.022,0,0,1,4,1.39c.324.139.649.268.973.416s.639.288.954.436c.63.287,1.259.611,1.871.945.009,0,.009,0,.018.009.6.333,1.2.676,1.788,1.037.3.176.592.361.879.556.584.379,1.149.778,1.714,1.185.278.2.556.408.824.621s.547.426.815.648q1.209.972,2.334,2.056c.25.232.5.482.741.732.482.491.954,1,1.417,1.509.222.26.454.519.676.788.037.046.084.1.121.148a38.978,38.978,0,0,1,8.965,22.024Q337.169,207.885,337.169,209.371Z" fill="#24252c"/><path d="M337.169,209.371a38.945,38.945,0,0,1-34.518,38.695c-.028-.546-.037-1.092-.037-1.648a40.425,40.425,0,0,1,34.444-39.993Q337.169,207.885,337.169,209.371Z" fill="#0d0d10"/><path d="M321.332,240.722a38.567,38.567,0,0,1-18.681,7.344,36.752,36.752,0,0,1-4.437.26,38.761,38.761,0,0,1-25.155-9.216c-.111-.092-.222-.185-.333-.287-.241-.2-.473-.407-.7-.62s-.463-.417-.685-.639-.445-.426-.667-.649a37.734,37.734,0,0,1-3.085-3.464.207.207,0,0,0-.027-.046c-.38-.491-.75-.982-1.112-1.482q-.32-.444-.611-.889c.491-.361.982-.713,1.482-1.046a38.942,38.942,0,0,1,54.015,10.734Z" fill="#0d0d10"/><path d="M327.972,184.253a38.948,38.948,0,0,0-54.913,54.857c-.111-.092-.222-.185-.333-.287-.241-.2-.473-.407-.7-.62s-.463-.417-.685-.639-.445-.426-.667-.649a37.734,37.734,0,0,1-3.085-3.464.207.207,0,0,0-.027-.046c-.38-.491-.75-.982-1.112-1.482q-.32-.444-.611-.889h-.009c-.315-.481-.63-.973-.926-1.463-.167-.269-.325-.537-.482-.815-.306-.537-.612-1.093-.9-1.649-.14-.278-.278-.565-.417-.852s-.269-.565-.4-.852-.259-.583-.379-.871-.25-.583-.361-.88c-.084-.194-.158-.389-.223-.583-.1-.25-.194-.51-.278-.769-.194-.528-.37-1.056-.527-1.593s-.316-1.065-.454-1.6c-.112-.435-.213-.871-.306-1.315q-.1-.39-.166-.778c-.075-.371-.14-.741-.2-1.121-.065-.343-.112-.676-.158-1.019-.111-.759-.194-1.528-.259-2.306-.028-.324-.047-.639-.065-.963-.046-.732-.065-1.473-.065-2.214v-.018a38.96,38.96,0,0,1,38.955-38.946,39.366,39.366,0,0,1,10.67,1.473.149.149,0,0,1,.083.027,40.855,40.855,0,0,1,4,1.39c.324.139.649.268.973.416s.639.288.954.436c.63.3,1.25.62,1.871.945.009,0,.009,0,.018.009.6.333,1.2.676,1.788,1.037.3.176.592.361.879.556.584.379,1.149.778,1.714,1.185.278.2.556.408.824.621s.547.426.815.648q1.209.972,2.334,2.056c.25.241.491.482.741.732.482.491.954,1,1.417,1.509C327.518,183.725,327.75,183.984,327.972,184.253Z" fill="#fff" opacity="0.3"/><path d="M337.169,209.371a38.945,38.945,0,0,1-34.518,38.695,36.752,36.752,0,0,1-4.437.26,38.761,38.761,0,0,1-25.155-9.216c-.111-.092-.222-.185-.333-.287-.241-.2-.473-.407-.7-.62s-.463-.417-.685-.639-.445-.426-.667-.649a40.6,40.6,0,0,1-3.085-3.464.207.207,0,0,0-.027-.046c-.38-.491-.75-.982-1.112-1.482q-.32-.444-.611-.889h-.009c-.315-.481-.63-.973-.926-1.463-.167-.269-.325-.537-.482-.815-.306-.537-.612-1.093-.9-1.649-.14-.278-.278-.565-.417-.852s-.269-.565-.4-.852-.259-.583-.379-.871-.25-.583-.361-.88c-.084-.194-.158-.389-.223-.583-.1-.25-.194-.51-.278-.769-.194-.528-.37-1.056-.527-1.593s-.316-1.065-.454-1.6c-.112-.435-.213-.871-.306-1.315q-.1-.39-.166-.778c-.075-.371-.14-.741-.2-1.121-.065-.343-.112-.676-.158-1.019-.111-.759-.194-1.528-.259-2.306-.028-.324-.047-.639-.065-.963-.046-.732-.065-1.473-.065-2.214v-.018A38.979,38.979,0,0,1,308.884,171.9a.149.149,0,0,1,.083.027,35.022,35.022,0,0,1,4,1.39c.324.139.649.268.973.416s.639.288.954.436c.63.287,1.259.611,1.871.945.009,0,.009,0,.018.009.6.333,1.2.676,1.788,1.037.3.176.592.361.879.556.584.379,1.149.778,1.714,1.185.278.2.556.408.824.621s.547.426.815.648q1.209.972,2.334,2.056c.25.232.5.482.741.732.482.491.954,1,1.417,1.509.222.26.454.519.676.788a38.713,38.713,0,0,1,9.086,22.172Q337.169,207.885,337.169,209.371Z" fill="none" stroke="#060606" stroke-miterlimit="10" stroke-width="7.119"/><circle cx="155.475" cy="255.683" fill="#24252c" r="38.956"/><path d="M185.231,230.557a38.947,38.947,0,0,0-54.885,54.886,38.949,38.949,0,1,1,54.885-54.886Z" fill="#fff" opacity="0.3"/><path d="M194.428,255.685A38.949,38.949,0,0,1,130.179,285.3a47.379,47.379,0,0,0,5.419.96,55.207,55.207,0,0,0,5.612.327c21.939.042,32.545-8.333,32.545-8.333,15.228-12.025,15.107-34.126,15.079-39.291-.008-1.52-.079-2.777-.139-3.621A38.688,38.688,0,0,1,194.428,255.685Z" fill="#0d0d10"/><circle cx="155.475" cy="255.683" fill="none" r="38.956" stroke="#060606" stroke-miterlimit="10" stroke-width="7.119"/><circle cx="344.526" cy="255.683" fill="#24252c" r="38.956"/><path d="M374.282,230.557A38.947,38.947,0,0,0,319.4,285.443a38.949,38.949,0,1,1,54.885-54.886Z" fill="#fff" opacity="0.3"/><path d="M383.479,255.685A38.948,38.948,0,0,1,319.231,285.3a47.324,47.324,0,0,0,5.418.96,55.207,55.207,0,0,0,5.612.327c21.939.042,32.545-8.333,32.545-8.333,15.228-12.025,15.107-34.126,15.079-39.291-.008-1.52-.079-2.777-.139-3.621A38.688,38.688,0,0,1,383.479,255.685Z" fill="#0d0d10"/><circle cx="344.526" cy="255.683" fill="none" r="38.956" stroke="#060606" stroke-miterlimit="10" stroke-width="7.119"/><circle cx="211.045" cy="271.646" fill="#24252c" r="38.956"/><path d="M240.8,246.52a38.947,38.947,0,0,0-54.885,54.886A38.949,38.949,0,1,1,240.8,246.52Z" fill="#fff" opacity="0.3"/><path d="M250,271.648a38.949,38.949,0,0,1-64.249,29.619,46.947,46.947,0,0,0,5.419.96,55.207,55.207,0,0,0,5.612.327c21.939.043,32.545-8.333,32.545-8.333C244.553,282.2,244.432,260.1,244.4,254.93c-.008-1.52-.079-2.777-.139-3.621A38.688,38.688,0,0,1,250,271.648Z" fill="#0d0d10"/><circle cx="211.045" cy="271.646" fill="none" r="38.956" stroke="#060606" stroke-miterlimit="10" stroke-width="7.119"/><circle cx="288.956" cy="271.646" fill="#24252c" r="38.956"/><path d="M327.909,271.648a38.948,38.948,0,0,1-64.248,29.619,46.892,46.892,0,0,0,5.418.96,55.207,55.207,0,0,0,5.612.327c21.939.043,32.545-8.333,32.545-8.333,15.228-12.025,15.107-34.126,15.079-39.291-.008-1.52-.079-2.777-.139-3.621A38.688,38.688,0,0,1,327.909,271.648Z" fill="#0d0d10"/><circle cx="288.956" cy="271.646" fill="none" r="38.956" stroke="#060606" stroke-miterlimit="10" stroke-width="7.119"/><circle cx="250.001" cy="213.8" fill="#24252c" r="38.956"/><path d="M279.757,188.674a38.947,38.947,0,0,0-54.886,54.886,38.949,38.949,0,1,1,54.886-54.886Z" fill="#fff" opacity="0.3"/><path d="M288.954,213.8a38.949,38.949,0,0,1-64.249,29.619,47.324,47.324,0,0,0,5.418.96,55.233,55.233,0,0,0,5.612.327c21.939.043,32.545-8.333,32.545-8.333,15.228-12.025,15.107-34.126,15.079-39.291-.008-1.52-.078-2.777-.138-3.621A38.688,38.688,0,0,1,288.954,213.8Z" fill="#0d0d10"/><circle cx="250.001" cy="213.8" fill="none" r="38.956" stroke="#060606" stroke-miterlimit="10" stroke-width="7.119"/><g opacity="0.2"><path d="M238.62,211.367c-2.73,6.5-6.79,11.087-9.868,10.333-3.055-.761-4.749-6.764-2.981-13.612,1.747-6.853,7.083-11.7,11.1-10.589C240.914,198.609,241.329,204.877,238.62,211.367Z" fill="#fff"/></g><g opacity="0.2"><path d="M191.139,204.878c-2.729,6.5-6.792,11.086-9.868,10.332-3.056-.76-4.747-6.763-2.981-13.612,1.746-6.853,7.083-11.7,11.1-10.589C193.431,192.12,193.849,198.387,191.139,204.878Z" fill="#fff"/></g><g opacity="0.2"><path d="M141.513,250.693c-2.73,6.5-6.791,11.086-9.868,10.332-3.054-.76-4.747-6.763-2.981-13.612,1.746-6.852,7.083-11.7,11.1-10.589C143.808,237.934,144.221,244.2,141.513,250.693Z" fill="#fff"/></g><g opacity="0.2"><path d="M198.9,271.029c-2.733,6.5-6.791,11.086-9.869,10.333-3.056-.761-4.747-6.763-2.98-13.612,1.746-6.852,7.082-11.7,11.1-10.589C201.193,258.271,201.609,264.539,198.9,271.029Z" fill="#fff"/></g><g opacity="0.2"><path d="M276.408,269.964c-2.729,6.5-6.791,11.085-9.869,10.332-3.054-.761-4.748-6.763-2.98-13.612,1.743-6.852,7.083-11.7,11.1-10.589C278.7,257.206,279.12,263.473,276.408,269.964Z" fill="#fff"/></g><g opacity="0.2"><path d="M160.2,328.142c-1.469,6.834-4.913,11.962-8.043,11.7-3.117-.28-5.739-5.925-5.514-12.908s4.2-12.617,8.57-12.191S161.665,321.322,160.2,328.142Z" fill="#fff"/></g><g opacity="0.2"><path d="M236.581,429.212c.188,6.983-2.448,12.619-5.568,12.889-3.128.253-6.56-4.886-8-11.726s.682-12.976,5.061-13.384S236.4,422.234,236.581,429.212Z" fill="#fff"/></g><g opacity="0.2"><path d="M222.621,373.987c-.648,6.944-3.707,12.341-6.838,12.351-3.13-.009-6.189-5.407-6.838-12.351s2.406-12.888,6.838-12.888S223.271,367.052,222.621,373.987Z" fill="#fff"/></g><g opacity="0.2"><path d="M256.684,324.369c-.649,6.943-3.708,12.341-6.839,12.351-3.13-.009-6.19-5.408-6.838-12.351s2.408-12.888,6.838-12.888S257.334,317.435,256.684,324.369Z" fill="#fff"/></g><g opacity="0.2"><path d="M336.357,324.369c-.647,6.943-3.706,12.341-6.838,12.351-3.132-.009-6.189-5.408-6.838-12.351s2.406-12.888,6.838-12.888S337.009,317.435,336.357,324.369Z" fill="#fff"/></g><g opacity="0.2"><path d="M351.586,247.819c-.65,6.944-3.708,12.342-6.838,12.351-3.132-.008-6.191-5.407-6.839-12.351s2.409-12.888,6.839-12.888S352.237,240.885,351.586,247.819Z" fill="#fff"/></g><g opacity="0.2"><path d="M318.82,195.96c-.65,6.944-3.708,12.342-6.838,12.351-3.132-.008-6.191-5.407-6.839-12.351s2.408-12.888,6.839-12.888S319.471,189.025,318.82,195.96Z" fill="#fff"/></g><g opacity="0.2"><path d="M291.505,375.128c-.649,6.943-3.706,12.343-6.838,12.351-3.13-.009-6.188-5.408-6.838-12.351s2.408-12.888,6.838-12.888S292.154,368.194,291.505,375.128Z" fill="#fff"/></g></g></svg>