<?xml version="1.0" ?><svg width="500px" height="500px" viewBox="0 0 500 500" xmlns="http://www.w3.org/2000/svg"><g style="isolation:isolate"><path d="M375.212,246.094c.639-.729,1.175-1.267,1.767-1.831s1.174-1.078,1.78-1.588a37.43,37.43,0,0,1,3.856-2.81,27.973,27.973,0,0,1,9.168-3.751,20.821,20.821,0,0,1,10.276.448,23.5,23.5,0,0,1,4.591,1.949,28.835,28.835,0,0,1,3.925,2.7A32.155,32.155,0,0,1,413.9,244.4a24.695,24.695,0,0,1,4.932,7.884c.534,1.36.956,2.658,1.293,3.34a2.639,2.639,0,0,0,.42.651,1.813,1.813,0,0,0,.684.44,4.566,4.566,0,0,0,2.45.159,20.04,20.04,0,0,0,6.477-2.615l.051-.03a2.485,2.485,0,0,1,2.683,4.175,25.23,25.23,0,0,1-7.916,4.17,10.727,10.727,0,0,1-5.459.187,8.29,8.29,0,0,1-2.889-1.3,8.774,8.774,0,0,1-2.225-2.313c-1.031-1.613-1.507-2.843-2.089-3.9a18.423,18.423,0,0,0-1.824-2.816,19.076,19.076,0,0,0-2.3-2.371,24.106,24.106,0,0,0-2.694-2.061,20.074,20.074,0,0,0-2.855-1.523,14.14,14.14,0,0,0-2.885-.846,10.975,10.975,0,0,0-5.55.426,17.548,17.548,0,0,0-5.261,2.942,26.336,26.336,0,0,0-2.378,2.191c-.371.394-.739.8-1.077,1.207a14.125,14.125,0,0,0-.888,1.158,6.02,6.02,0,1,1-9.575-7.261Z" fill="#262a5d"/><path d="M384.765,250.005c0,69.56-70.81,125.95-158.15,125.95-35.5,0-68.26-9.32-94.65-25.04-38.54-22.97-63.49-59.62-63.49-100.91,0-69.57,70.8-125.96,158.14-125.96,40.42,0,77.31,12.08,105.27,31.95C364.335,179.065,384.765,212.635,384.765,250.005Z" fill="#7bb82f"/><path d="M383.785,264.065a101.572,101.572,0,0,1-2.22,11.27l-1.48.03a33.71,33.71,0,0,0-5.54.41,15.6,15.6,0,0,1-6.42.01c-1.69-.32-3.77-.38-5.69-.54-2.06-.16-4.26-.2-6.16-.49a13.278,13.278,0,0,0-6.32.38c-4.93,1.49-10.17,1.79-16.24,1.39-7.26-.47-14.85-.42-22.3-.6a6.833,6.833,0,0,0-1.13.08c-3.99.8-7.61.21-11.41-.15a58.8,58.8,0,0,0-6.48.07c-2.43.05-5.31.45-7.19.09-5.88-1.13-10.86-1.05-16.13.68a27.032,27.032,0,0,1-11.76,1c-2.9-.37-6.06-.46-9.12-.65-2.23-.13-4.47-.32-6.72-.36-7.03-.11-14.18-.47-21.06-.15a112.865,112.865,0,0,1-13.01.07c-4.58-.29-9.68-1.34-13.97.32a7.36,7.36,0,0,1-2.79-.07,25.336,25.336,0,0,0-13.71.15,27.187,27.187,0,0,1-11.83.19,42.289,42.289,0,0,0-12.95-.54,21.7,21.7,0,0,1-5.86-.37,47.648,47.648,0,0,0-11.15-.57c-3.8.15-7.75.11-11.62-.06-3.9-.18-7.88-1.05-11.45.05a9.4,9.4,0,0,1-2.52-.11c-2.95-.36-5.84-.87-8.82-1.14-4.51-.4-9.03-.97-12.94.42a23.658,23.658,0,0,1-9.57.93q-3.27-.255-6.56-.48a101.876,101.876,0,0,1-2.47-13.28,17.443,17.443,0,0,1,5.45,1.68c3.43,1.89,10.42,2.09,13.66.58-1.36-.67-2.58-1.27-3.8-1.88.35-.13.71-.26,1.06-.38.02,1.66,2.41,1.54,5.43,1.41a36.687,36.687,0,0,1,5.88.58c2.7.34,5.39.71,8.04,1.12a9.615,9.615,0,0,0,7.03-1.21c1.83-.91,4.63-.67,6.91-.15a9.1,9.1,0,0,0,5.19-.05c4.84-1.6,10.31-1.58,16.13-.6a60.463,60.463,0,0,0,6.07.99,40.654,40.654,0,0,0,7.74-.05,42.423,42.423,0,0,1,10.39-.48,17.952,17.952,0,0,0,8.69-.92c2.41-1.06,5.67-.86,8.5-.27a32,32,0,0,0,12.86.23,14.507,14.507,0,0,1,4.43-.17c4.6.92,9.3.44,13.95.59a128.246,128.246,0,0,1,17.2,2c5.9,1,10.8,1.29,15.59-.74,2.57-1.09,6.16-1.34,9.98-.95a12.433,12.433,0,0,0,3.33.03c4.2-1.04,8.1-.57,12.04.16,2.89.54,5.69,1.06,7.7-.56a7.166,7.166,0,0,1,3.03-.51c5.17.21,10.32.51,15.46.8a35.486,35.486,0,0,0,4.34.37c3.53-.27,6.75-.52,9.42.74a10.392,10.392,0,0,0,3.56.02c2.02-.31,3.97-.73,5.79-1.19,5.65-1.46,9.07-1.47,14.37,0,1.33.37,2.58.78,3.86,1.16a19.548,19.548,0,0,0,12.38.09,17.916,17.916,0,0,1,10.51-.13c1.79.41,3.85.67,5.83.95,3.35.48,6.05.11,7.85-1.12a7.15,7.15,0,0,1,5.8-.6A10.782,10.782,0,0,0,383.785,264.065Z" fill="#59a532"/><path d="M333.385,342.915a160.665,160.665,0,0,1-21.92,13.4c-4.19-.01-8.33-.21-12.56-.29a15.718,15.718,0,0,0-3.9.16,18.748,18.748,0,0,1-7.66.14,16.8,16.8,0,0,0-5.57.08,11.561,11.561,0,0,1-5.94.11,15.307,15.307,0,0,0-11.16.68,14.862,14.862,0,0,1-10.98.74,18.663,18.663,0,0,0-4.36-.24c-1.67-.07-3.34-.14-5.02-.2-5.22-.17-10.68-.81-15.7-.45a73.383,73.383,0,0,1-12.83-.3c-2.66-.28-5.57-.7-7.69.34a5.31,5.31,0,0,1-2.6-.18,13.151,13.151,0,0,0-9.37-.1c-3.15,1.19-6.58.61-10.57-.23a26.89,26.89,0,0,0-6.38-.68,28.559,28.559,0,0,1-7.3-.68,33.481,33.481,0,0,0-6.46-.68c-3.72.02-7.18.2-11.52-.83a7.18,7.18,0,0,0-2.56-.06,19.569,19.569,0,0,1-8.2-.73,108.332,108.332,0,0,0-10.96-1.92c-.03,0-.06-.01-.09-.01a154.885,154.885,0,0,1-13.55-9.04,7.158,7.158,0,0,0,4.05-.98c-.75-.17-1.42-.33-2.08-.48-.05-.08-.1-.15-.15-.22,2.42.22,5.32.05,7.19.72,4.95,1.75,8.94,1.92,13.23,2.14-.86-1.82,1.01-2.25,4.84-1.18,1.94.53,3.28.68,4.39.18,3.11-1.38,7.72-.99,12.65.02,1.98.41,3.93.98,5.88,1.25a16.858,16.858,0,0,0,4.96.14,28.8,28.8,0,0,1,9.25-.23c2.43.27,4.32.07,5.68-.8,1.71-1.08,4.52-.71,6.98-.02a22.481,22.481,0,0,0,10.04.53c1.88-.29,4.49.17,6.75.33a22.264,22.264,0,0,0,4.11.34,31.716,31.716,0,0,1,10.83.55c2.83.52,5.56,1.17,8.3,1.76,3.91.84,7.33.95,10.44-.76a14.017,14.017,0,0,1,8.36-1.19,9.389,9.389,0,0,0,3-.03,19.906,19.906,0,0,1,9.67.24c2.31.57,4.31.74,5.96-.69a3.653,3.653,0,0,1,1.82-.52c4.22.16,8.41.37,12.57.59a21.537,21.537,0,0,0,3.08.35c3.15-.34,5.84-.54,8.34.53.83.35,4.3-.58,6.53-1.04,1.77-.37,3.62-1.27,5.18-1.29a36.664,36.664,0,0,1,7.08.76,16.425,16.425,0,0,1,3.3,1.27c2.68,1.04,4.89,1.03,8.54-.25A21.167,21.167,0,0,1,333.385,342.915Z" fill="#59a532"/><path d="M370.485,302.385a121.14,121.14,0,0,1-8.36,12.6c-.21.05-.43.1-.65.16a4.443,4.443,0,0,1-1.37.08c-4.29-.31-8.69-.55-12.85-1.04a13.344,13.344,0,0,0-6.15.5,36.251,36.251,0,0,1-14.73,1.54c-2.3-.22-4.98-.02-7.48-.04q-3.39-.03-6.75-.11c-2.37-.05-5.05-.5-7.03-.11a27.4,27.4,0,0,1-9.95-.05,16.536,16.536,0,0,0-5.27-.11c-3.91,1.1-6.92.57-10.42-.03-3.17-.53-6.63-.9-10.08.26a30.872,30.872,0,0,1-7.88,1.98c-6.88.42-13.87.39-20.8.51-.01-.12-.02-.26-.04-.38q7.545.015,15.09,0c.15-.16.3-.33.45-.49a25.783,25.783,0,0,0-4.08-.7c-2.44-.04-4.93.12-7.35.3-2.4.19-3.45-.97-5.49-.96-5.04.01-10.45-.33-15.01.28a68.574,68.574,0,0,1-15.95-.14c-3.23-.31-6.66-.66-9.5.36a8.688,8.688,0,0,1-3.52-.13,19.47,19.47,0,0,0-10.69-.03c-4.02,1.18-8.19.85-13.03.15-3.26-.47-6.76-.41-10.17-.61a36.265,36.265,0,0,1-5.12-.37,49.932,49.932,0,0,0-12.99-.72,52.354,52.354,0,0,1-8.16-.31c-3.5-.44-6.77-.84-9.62-.17a7.856,7.856,0,0,1-2.29.03c-4.55-.59-9.14-1.15-13.69-1.89a13.442,13.442,0,0,0-6.24.13c-3.4,1.03-7.49,1.3-12.84.46l-.65-.09a117.874,117.874,0,0,1-8.21-12.9c1.2.3,2.54.69,4.1,1.16,6.76,2.04,8.13,2.14,13.78.77a16.1,16.1,0,0,1,8.36.29,28.4,28.4,0,0,0,3.75.85c5.03.65,6.85,1.69,9.92-.66,1.06-.8,3.28-.68,5.31-.1a9.64,9.64,0,0,0,6.12.01c4.34-1.47,9.8-1.1,15.14.02,5.14,1.07,9.68,1.76,14.72.69,1.93-.41,5.11-.17,7.69.01,3.03.22,5.43.12,7.23-.85,1.69-.9,4.09-.97,6.74-.43,4.64.94,8.97,1.47,13.86.55,1.91-.36,5.06.23,7.63.41a28.438,28.438,0,0,0,4.16.32c8.54-.94,15.9.63,22.77,2.38,4.67,1.2,9.05,1.03,11.94-.91,1.62-1.09,6.58-1.61,9.62-1.19a13.419,13.419,0,0,0,4.51-.06c2.85-.99,7.27-.65,10.03.1,3.11.84,4.71.8,7.3-.26a9.537,9.537,0,0,1,3.35-.76c4.96.17,9.84.51,14.76.72,2.06.09,4.18.01,6.27.04a23.466,23.466,0,0,1,4.26.21c3.95,1.01,5.37,1.09,9.63-.21,3.52-1.07,7.13-1.9,11.16-1.23a38.965,38.965,0,0,1,5.93,1.56c5.07,1.71,6.97,1.73,13.24.04a16.5,16.5,0,0,1,8.99-.15,41.668,41.668,0,0,0,5.16.91,11.442,11.442,0,0,0,7.62-1.15A7.675,7.675,0,0,1,370.485,302.385Z" fill="#59a532"/><path d="M332.525,156.455a5.872,5.872,0,0,0-2.27.41c-2.92,1.17-6.81,1.5-11.55.85-2.06-.28-4.13-.29-6.19-.46-2.98-.23-5.96-.49-8.93-.71a21.067,21.067,0,0,0-4.77-.22c-2.95.62-5.79.22-8.89-.33a15.721,15.721,0,0,0-5.21-.18,17.937,17.937,0,0,1-7.91-.17,22.633,22.633,0,0,0-6.01-.62,23.676,23.676,0,0,0-6.11,1.45,15.089,15.089,0,0,1-10.25.14,13,13,0,0,0-2.95-.15c-2.71-.09-5.42-.1-8.1-.26-1.4-.08-2.81-.67-4.05-.56-5.4.5-10.89-.04-16.32,1.03a23.94,23.94,0,0,1-5.16.05c-2.91-.13-5.75-.41-8.66-.45a33.678,33.678,0,0,0-4.02.56,13.341,13.341,0,0,1-3.55.25,15.827,15.827,0,0,0-9.83.35,25.52,25.52,0,0,1-11.84.79,66.288,66.288,0,0,0-7.9-.1,44.306,44.306,0,0,1-6.09.02,33.2,33.2,0,0,0-8.79.04c-3.47.34-6.82.29-10.24.5-2.29.13-4.63.38-6.97.61a19.5,19.5,0,0,1-2.16.3c-3.8-.18-7.64-.31-11.13-.64a10.932,10.932,0,0,0-5.21.59,40.417,40.417,0,0,1-7.09,1.73,153.586,153.586,0,0,1,18.92-12.97,9.537,9.537,0,0,1,5.11.46c2.82,1.11,5.29.69,9.68-1.35,1.78-.81,3.3-.98,4.25-.58,1.58.68,3.45.22,5.71-.59a19.332,19.332,0,0,1,9.52-1.17,46.122,46.122,0,0,0,4.87.83,23.562,23.562,0,0,0,6.25-.27,33.678,33.678,0,0,1,8.82-.95,12.957,12.957,0,0,0,4.91-.75,11.5,11.5,0,0,1,8.61-.75,14.615,14.615,0,0,0,7.27-.12,13.125,13.125,0,0,1,4.65-.46c2.94.7,6.02.43,9.32.28a37.777,37.777,0,0,1,14.23,2.34c3.39,1.15,6.76.91,8.99-.92,1.48-1.22,5.84-1.74,8.52-1.13a6.316,6.316,0,0,0,2.81-.07,12.218,12.218,0,0,1,9.06.26,4.513,4.513,0,0,0,4.54-.17,5.414,5.414,0,0,1,2.71-.94c3.72.2,7.47.63,11.24.98,1.73.16,3.47.27,5.21.46a17.924,17.924,0,0,1,4.24.59,7.643,7.643,0,0,0,5.05.42,27.3,27.3,0,0,0,3.38-1.13c2.11-.9,4.69-.79,7.58,0,1.37.38,2.7.85,4.01,1.34A160.78,160.78,0,0,1,332.525,156.455Z" fill="#59a532"/><path d="M370.335,197.365a27.131,27.131,0,0,0-5.1.51,3.148,3.148,0,0,1-.72-.05c-4.9-.61-9.83-1.13-14.63-1.85a10.5,10.5,0,0,0-5.13.16,34.251,34.251,0,0,1-15.23,1.02c-2.5-.35-5.25-.21-7.88-.31-2.38-.1-4.75-.22-7.13-.35-2.49-.13-5.44-.65-7.37-.32a31.108,31.108,0,0,1-10.38-.3,19.708,19.708,0,0,0-6.15-.11,17.918,17.918,0,0,1-8.77-.15,23.3,23.3,0,0,0-12.61.4,31.521,31.521,0,0,1-10.4,1.42c-4.33-.41-8.67-.47-12.85-.82-5.75-.47-11.36-.5-17.09-.44a68.584,68.584,0,0,0-7.78.2,56.27,56.27,0,0,1-10.62.21c-4.69-.25-9.6-1.27-14.42.52a7.684,7.684,0,0,1-2.93-.17,20.33,20.33,0,0,0-10.86.12c-5.25,1.43-9.98,1.3-15.18.68-2.91-.35-6.48-.03-9.75-.03a33.965,33.965,0,0,1-4.8-.11,43.55,43.55,0,0,0-11.47-.23c-4.16.39-8.33.83-12.33.17a23.28,23.28,0,0,0-7.47.23,17.565,17.565,0,0,1-6.25.17c-6.11-.48-11.69-1.93-19.23.56-1.45.48-4.57.29-5.59.77-2.17,1.02-3.54.53-5.22.48-1.13-.03-2.24-.08-3.36-.12a118.119,118.119,0,0,1,8.13-12.78,7.238,7.238,0,0,1,2.11,1.16c1.45,1.17,7.21,1.27,10.52.14.51-.18.67-.54,1-.81l-.85-.12c1.61-.2,3.22-.45,4.8-.59a11.4,11.4,0,0,1,3.26-.04c1.53,1.33,5.53.94,8.46,1.28a8.557,8.557,0,0,0,6.08-1.27c1.75-1.28,4.56-1.09,6.17-.73a10.211,10.211,0,0,0,5.69-.4,31.243,31.243,0,0,1,15.75-.72,27.519,27.519,0,0,0,12.67.02,34.3,34.3,0,0,1,7.8-.39c2.95.06,5.47-.07,7.68-1.2a10.826,10.826,0,0,1,6.72-.55,33.446,33.446,0,0,0,13.49,0c1.74-.35,4.31.18,6.53.28a40.256,40.256,0,0,0,5.25.12c5.74-.56,10.62.32,15.68,1.06,1.29.19,2.53.46,3.73.74,4.84,1.16,9.24,1.18,13.38-.79a16.106,16.106,0,0,1,8.92-1,11.525,11.525,0,0,0,3.62-.01,21.892,21.892,0,0,1,10.53.24c2.65.6,4.95.82,6.88-.42a7.486,7.486,0,0,1,3.27-.53c4.67.27,9.32.69,14,1.02,1.78.13,3.58.09,5.37.17,1.51.06,3.58-.07,4.45.29,3.44,1.46,6.31.87,9.07.18,7.66-1.91,9.23-1.85,17.23.92,4.55,1.57,8.63,2.21,12.71.59,2.29-.91,5.31-.68,8.66.17a61.379,61.379,0,0,0,8.14,1.49,7.114,7.114,0,0,0,3.67-.65,5.093,5.093,0,0,1,.71-.42A119.218,119.218,0,0,1,370.335,197.365Z" fill="#59a532"/><path d="M383.865,236.515c-.51-.01-1.01-.02-1.51-.02a39.306,39.306,0,0,0-5.93.17,18.85,18.85,0,0,1-7.26-.14,52.138,52.138,0,0,0-5.57-.57c-2.13-.18-4.46-.19-6.37-.54a12.571,12.571,0,0,0-6.24.28,35.7,35.7,0,0,1-15.01,1.14,40.382,40.382,0,0,0-4.19-.21c-5.6-.21-11.2-.42-16.81-.6a20.209,20.209,0,0,0-3.77.08,33.256,33.256,0,0,1-11.13-.19,22.432,22.432,0,0,0-6.47-.11,24.98,24.98,0,0,1-9.52-.03,58.732,58.732,0,0,0-6.56-.73,23.555,23.555,0,0,0-9.01,1.52c-5.09,1.64-8.72,1.7-13.57.05-.47-.16-1.04-.28-1.56-.41a27.583,27.583,0,0,1-12.65.03,17.073,17.073,0,0,0-4.03-.39c-5.33.09-10.94-.11-15.89.49a86.138,86.138,0,0,1-16.21.07c-3.9-.24-8.07-.64-11.84.53a10.118,10.118,0,0,1-3.53-.1,26.267,26.267,0,0,0-12.4.19,32.934,32.934,0,0,1-14.51.35,34.3,34.3,0,0,0-10.8-.25,20.988,20.988,0,0,1-5.54-.13,61.171,61.171,0,0,0-13.56-.35c-2.42.14-4.92.31-7.28.21-4.87-.21-9.63-.99-14.54.2a3.918,3.918,0,0,1-1.14.01c-5.04-.41-10.23-.69-15.03-1.3a17.778,17.778,0,0,0-6.65.37,58.424,58.424,0,0,1-11.16,1.49q-3.7,0-7.38-.11a101.738,101.738,0,0,1,2.53-13.24,27.693,27.693,0,0,1,3.41.88c1.08.34,2.1.71,3.28,1.01a18.208,18.208,0,0,0,10.74-.29c4.72-1.31,6.74-1.3,11.32-.23a34.609,34.609,0,0,0,6.85.87,15.319,15.319,0,0,0,5.22-.87,12.082,12.082,0,0,1,8.27-.77,12.239,12.239,0,0,0,4.35-.18,36.924,36.924,0,0,1,17.24-.69c5.14.9,10.05,1.45,15.83.13a31.014,31.014,0,0,1,6.69-.17c3.53.1,6.72.08,9.4-1.16a12.03,12.03,0,0,1,7.01-.36,37.686,37.686,0,0,0,14.77.2c1.91-.33,4.75.22,7.19.32,2.02.08,4.07.1,6.12.1a55.685,55.685,0,0,1,6.69-.05c5.65.74,11.25,1.61,16.62,2.65,4.48.87,8.59.54,10.91-1.19,1.14-.85,8.26-1.48,11.06-1.17a17.413,17.413,0,0,0,4.97-.19,26.454,26.454,0,0,1,11.23.4c1.25.39,5.06.44,5.56.12,2.97-1.91,7.57-1.19,11.63-1.21a33.591,33.591,0,0,1,5.94.51,34.375,34.375,0,0,0,10.63.54,11.258,11.258,0,0,1,4,.59,11.489,11.489,0,0,0,6.29.34c1.55-.3,3.06-.64,4.47-1.02a24.012,24.012,0,0,1,13.62.07c1.49.4,2.8.9,4.26,1.32,5.41,1.58,7.63,1.6,12.92.22a19.072,19.072,0,0,1,9.87,0,61.543,61.543,0,0,0,7.04,1.24c2.52.31,4.79.14,6.09-.81,1.62-1.18,3.91-1.26,7.26-.59a8.439,8.439,0,0,0,1.12.13A101.484,101.484,0,0,1,383.865,236.515Z" fill="#59a532"/><path d="M384.765,250.005c0,69.56-70.81,125.95-158.15,125.95-35.5,0-68.26-9.32-94.65-25.04,30.44,4.66,65.91,4.99,103.47-4.92,29.84-7.88,71.02-18.74,95.12-56.06,30.13-46.66,13.73-104,1.33-133.94C364.335,179.065,384.765,212.635,384.765,250.005Z" fill="#7bb82f" opacity="0.5" style="mix-blend-mode:multiply"/><path d="M348.3,169.535c-3.03-2.55-6.21-5.01-9.5-7.35-27.96-19.87-64.85-31.95-105.27-31.95-87.34,0-158.14,56.39-158.14,125.96,0,30.61,13.71,58.67,36.51,80.49-26.91-22.57-43.42-53.09-43.42-86.68,0-69.57,70.8-125.96,158.14-125.96,40.42,0,77.31,12.08,105.27,31.95A144.745,144.745,0,0,1,348.3,169.535Z" fill="#fff" opacity="0.3"/><path d="M384.765,250.005a102.47,102.47,0,0,1-3.2,25.33,108.012,108.012,0,0,1-11.08,27.05,121.14,121.14,0,0,1-8.36,12.6,137.753,137.753,0,0,1-28.74,27.93,160.665,160.665,0,0,1-21.92,13.4c-24.52,12.43-53.63,19.64-84.85,19.64-35.44,0-68.16-9.29-94.53-24.97a154.885,154.885,0,0,1-13.55-9.04,136.31,136.31,0,0,1-28.71-28.7,117.874,117.874,0,0,1-8.21-12.9,107.792,107.792,0,0,1-9.95-25.02,101.876,101.876,0,0,1-2.47-13.28,100.052,100.052,0,0,1-.72-12.04,102.212,102.212,0,0,1,3.3-25.73,107.362,107.362,0,0,1,9.86-24.65,118.119,118.119,0,0,1,8.13-12.78,134.068,134.068,0,0,1,24.61-25.57,153.586,153.586,0,0,1,18.92-12.97c26.16-15.25,58.42-24.26,93.32-24.26,32.23,0,62.22,7.68,87.22,20.87a160.78,160.78,0,0,1,18.69,11.54,137.842,137.842,0,0,1,30.39,29.62,119.218,119.218,0,0,1,7.42,11.29,108.384,108.384,0,0,1,11.31,27.6,101.484,101.484,0,0,1,2.22,11.55A100.437,100.437,0,0,1,384.765,250.005Z" fill="none" stroke="#262a5d" stroke-linecap="round" stroke-miterlimit="10" stroke-width="7.119"/></g></svg>