<?xml version="1.0" ?><svg width="500px" height="500px" viewBox="0 0 500 500" xmlns="http://www.w3.org/2000/svg"><g style="isolation:isolate"><path d="M335.967,378.833a68.728,68.728,0,0,1-39.69,45.56,67.3,67.3,0,0,1-8.58,2.96,68.881,68.881,0,0,1-17.96,2.37h-39.48a68.805,68.805,0,0,1-17.95-2.37,65.921,65.921,0,0,1-8.59-2.96,68.782,68.782,0,0,1-36.56-36.45,66.119,66.119,0,0,1-3.13-9.11,68.237,68.237,0,0,1-1.83-25.45l.96-8.32,1.08-9.43,3.08-26.79,2.46-21.39,1.73-14.98,3.77-32.81.43-3.72,1.02-8.87a65.713,65.713,0,0,1,65.3-58.22h15.95a65.727,65.727,0,0,1,65.3,58.22l1.02,8.87.43,3.73,3.77,32.8,1.72,14.97,2.46,21.41,3.08,26.78,1.08,9.44.96,8.31A68.237,68.237,0,0,1,335.967,378.833Z" fill="#e9ae1a"/><path d="M334.2,380.593l3.551-3.52c-5.464-5.511-10.886-10.9-16.16-16.061,5.738-4.835,11.4-9.544,16.84-14.006l-3.17-3.867c-5.578,4.573-11.379,9.4-17.263,14.362-6.084-5.941-12.289-11.9-18.506-17.784,6.276-5.362,12.78-10.834,19.761-16.625,5.06,4.86,10.022,9.673,14.761,14.325l3.5-3.568c-4.622-4.537-9.456-9.227-14.386-13.964,3.588-2.958,7.314-6,11.127-9.089l-3.145-3.887c-3.987,3.227-7.879,6.41-11.617,9.493-6.584-6.279-12.826-12.149-18.964-17.833,6.791-5.672,13.565-11.251,20.2-16.636q3.9,3.653,7.771,7.324l3.441-3.628q-3.628-3.442-7.285-6.866c1.8-1.448,3.592-2.9,5.4-4.332l-3.106-3.917c-2,1.585-3.988,3.191-5.974,4.794-6.592-6.162-13.1-12.154-19.4-17.876,6.714-5.5,13.644-11.084,20.664-16.66l.8.737,3.394-3.672-2.306-2.121-1.365-1.74-.287.227c-6.905-6.317-13.442-12.215-19.862-17.921,5.049-4.041,9.818-7.822,14.475-11.472L314,200.875c-4.877,3.822-9.873,7.784-15.189,12.043-6.536-5.782-13.341-11.714-20.293-17.69,5.779-4.7,11.5-9.291,17.017-13.666l-3.106-3.919c-5.761,4.566-11.733,9.366-17.769,14.277-6.762-5.783-13.717-11.641-20.736-17.468,1.481-1.221,2.957-2.44,4.452-3.666l-3.184-3.854q-2.6,2.133-5.19,4.272-2.589-2.138-5.19-4.272l-1.067,1.281-2.1,2.587q2.223,1.821,4.437,3.652c-6.8,5.646-13.749,11.5-20.728,17.459-6.054-4.919-12.026-9.719-17.766-14.276l-3.108,3.916c5.5,4.368,11.219,8.962,17.015,13.668-6.57,5.644-13.255,11.472-20.3,17.7-5.148-4.129-10.249-8.177-15.181-12.042l-3.084,3.935c4.7,3.687,9.562,7.54,14.466,11.471-6.417,5.7-12.952,11.6-19.859,17.918-.094-.073-.187-.149-.282-.223l-1.339,1.706c-.772.714-1.545,1.429-2.318,2.133l3.368,3.695c.269-.245.535-.493.8-.739,6.78,5.38,13.709,10.967,20.665,16.662-6.513,5.913-13.02,11.907-19.4,17.874q-2.973-2.4-5.96-4.789l-3.116,3.91c1.808,1.441,3.6,2.889,5.4,4.336q-3.656,3.429-7.291,6.878l3.447,3.621q3.867-3.679,7.769-7.329c6.633,5.381,13.408,10.961,20.205,16.639-6.548,6.068-12.906,12.047-18.957,17.829-3.726-3.074-7.543-6.195-11.627-9.5l-3.146,3.885c3.9,3.163,7.564,6.154,11.134,9.1-4.579,4.389-9.3,8.97-14.393,13.967l3.5,3.568c5.23-5.133,10.072-9.828,14.768-14.325,6.473,5.365,13.1,10.941,19.762,16.628-6.022,5.7-12.225,11.657-18.5,17.782-5.618-4.735-11.413-9.559-17.272-14.371L161.574,347c5.714,4.693,11.366,9.4,16.852,14.017-5.219,5.11-10.525,10.378-16.169,16.059l3.547,3.523c5.748-5.786,11.145-11.142,16.457-16.339,6.593,5.59,13.061,11.155,19.294,16.6-5.845,5.649-11.789,11.485-18.057,17.73-4.693-4.051-9.523-8.171-14.727-12.555l-3.221,3.824c5.086,4.285,9.814,8.317,14.406,12.279q-1.372,1.378-2.745,2.762l3.559,3.513q1.486-1.5,2.977-3c6.333,5.485,12.653,11.042,18.851,16.574l-.634.628,3.514,3.558.852-.845.276.249q2.017,1.815,4.027,3.63l3.356-3.706q-2.012-1.821-4.039-3.642l-.051-.045c5.852-5.761,11.891-11.617,18.014-17.469,6.376,5.8,12.558,11.513,18.443,17.039q-3.458,3.257-6.9,6.535l3.461,3.609q3.519-3.373,7.08-6.71,3.55,3.345,7.08,6.71l3.46-3.609q-3.429-3.288-6.894-6.534c5.941-5.572,12.124-11.281,18.443-17.031,5.981,5.709,12.025,11.566,18.023,17.462q-2.049,1.842-4.09,3.685l3.355,3.706q2.141-1.938,4.3-3.874c.279.277.559.553.835.829l3.535-3.536c-.211-.211-.425-.423-.638-.634,6.434-5.736,12.753-11.293,18.848-16.572.993.992,1.986,1.983,2.968,2.984l3.57-3.5c-.909-.927-1.828-1.844-2.747-2.763,4.577-3.948,9.3-7.978,14.4-12.275l-3.222-3.824c-5.219,4.4-10.05,8.519-14.727,12.555-6.07-6.053-12.121-12-18.05-17.737,6.231-5.443,12.7-11.01,19.3-16.6C323.115,369.505,328.633,374.984,334.2,380.593Zm-18.583-60.981c-6.984,5.8-13.494,11.276-19.782,16.653-6.214-5.857-12.564-11.754-18.94-17.588,6.36-5.508,12.988-11.164,19.774-16.87C302.8,307.487,309.038,313.346,315.612,319.612Zm-46.243-1.026c-6.424,5.594-12.918,11.337-19.367,17.129-6.247-5.614-12.738-11.355-19.36-17.121,6.446-5.859,12.94-11.675,19.368-17.344C256.416,306.9,262.907,312.719,269.369,318.586Zm-39.182-41.151c6.671-5.933,13.315-11.76,19.814-17.376,6.582,5.687,13.225,11.516,19.815,17.386-6.644,5.667-13.285,11.415-19.8,17.143C243.627,288.981,236.979,283.23,230.187,277.435Zm23.607,20.486c6.519-5.723,13.154-11.462,19.788-17.118,6.49,5.8,12.986,11.694,19.378,17.586-6.794,5.718-13.43,11.382-19.79,16.894C266.705,309.409,260.208,303.589,253.794,297.921Zm.036-41.16c6.673-5.732,13.463-11.481,20.251-17.146,6.649,5.827,13.3,11.739,19.831,17.633-6.7,5.516-13.491,11.19-20.251,16.925C267.07,268.3,260.421,262.461,253.83,256.761ZM250,253.456c-6.427-5.531-13.093-11.181-20.26-17.172,6.533-5.692,13.327-11.527,20.267-17.4,6.782,5.743,13.575,11.579,20.258,17.4C263.473,241.961,256.678,247.719,250,253.456Zm-3.829,3.3c-6.509,5.629-13.159,11.464-19.833,17.405-7.088-6.007-13.753-11.576-20.249-16.918,6.394-5.766,13.044-11.677,19.838-17.631C233.1,245.6,239.76,251.242,246.175,256.758ZM226.42,280.794c6.784,5.783,13.424,11.525,19.807,17.127-6.437,5.68-12.937,11.5-19.386,17.371-6.393-5.54-13.032-11.207-19.8-16.9C213.362,292.562,219.859,286.663,226.42,280.794Zm.5,41.191c6.614,5.754,13.1,11.484,19.342,17.093-6.143,5.535-12.489,11.345-18.932,17.332-6.425-5.692-12.907-11.348-19.334-16.871C214.094,333.791,220.438,327.906,226.921,321.985ZM250,342.44c6.144,5.533,12.486,11.336,18.914,17.306-6.326,5.63-12.667,11.359-18.914,17.087-6.428-5.9-12.768-11.624-18.913-17.088C237.526,353.765,243.867,347.963,250,342.44Zm3.739-3.361c6.447-5.786,12.934-11.521,19.35-17.1,6.367,5.823,12.711,11.711,18.924,17.564-6.358,5.463-12.843,11.118-19.342,16.871C266.24,350.434,259.893,344.624,253.74,339.079Zm63.307-60.6c-6.65,5.4-13.43,10.986-20.225,16.666-6.393-5.9-12.9-11.805-19.395-17.614,6.758-5.728,13.542-11.4,20.234-16.9C303.958,266.344,310.458,272.327,317.047,278.483Zm1.456-41.132c-7.034,5.592-13.97,11.188-20.683,16.688-6.535-5.9-13.19-11.821-19.848-17.661,6.8-5.644,13.736-11.317,20.683-16.92C305.079,225.163,311.611,231.051,318.5,237.351ZM294.858,216.1c-6.957,5.615-13.9,11.3-20.7,16.945-6.685-5.831-13.484-11.676-20.275-17.432,6.882-5.795,13.822-11.555,20.7-17.174C281.525,204.4,288.321,210.322,294.858,216.1ZM250,177.694c7.012,5.816,13.96,11.663,20.722,17.44-6.884,5.633-13.829,11.4-20.712,17.2-6.673-5.623-13.622-11.394-20.723-17.21C236.265,189.172,243.21,183.326,250,177.694Zm-24.572,20.733c7.091,5.8,14.033,11.564,20.708,17.184-6.95,5.888-13.753,11.734-20.286,17.432-6.665-5.535-13.609-11.217-20.706-16.944C212.176,209.888,218.858,204.067,225.429,198.427ZM181.5,237.349c6.9-6.3,13.425-12.188,19.847-17.891,7.09,5.717,14.026,11.389,20.692,16.92-6.8,5.966-13.462,11.888-19.857,17.661C195.222,248.336,188.287,242.74,181.5,237.349Zm1.455,41.134c6.385-5.963,12.885-11.948,19.389-17.847,6.5,5.338,13.154,10.895,20.232,16.889-6.57,5.881-13.074,11.791-19.4,17.624C196.38,289.465,189.6,283.878,182.955,278.483Zm1.444,41.131c6.051-5.778,12.4-11.747,18.942-17.8,6.758,5.683,13.388,11.341,19.779,16.876-6.491,5.933-12.843,11.828-18.942,17.582C197.512,330.573,190.881,324.991,184.4,319.614Zm1.455,41.133c6.275-6.119,12.474-12.073,18.487-17.757,6.418,5.51,12.893,11.158,19.315,16.845-6.2,5.8-12.4,11.679-18.487,17.539C198.932,371.922,192.456,366.347,185.854,360.747Zm20.313,57.722c-6.208-5.543-12.537-11.109-18.878-16.6,6.26-6.233,12.2-12.06,18.041-17.7,6.329,5.556,12.655,11.193,18.87,16.815C218.067,406.841,212.02,412.708,206.167,418.469Zm21.663-20.952c-6.219-5.628-12.551-11.273-18.886-16.836,6.081-5.854,12.273-11.726,18.469-17.513,6.136,5.453,12.471,11.174,18.894,17.063C240.035,386.016,233.84,391.812,227.83,397.517ZM250,417.947c-5.888-5.53-12.076-11.25-18.459-17.06,6-5.7,12.192-11.485,18.458-17.261,6.325,5.831,12.512,11.62,18.459,17.27C262.135,406.654,255.946,412.371,250,417.947Zm3.693-37.716c6.242-5.722,12.577-11.443,18.895-17.063,6.33,5.913,12.524,11.783,18.477,17.512-6.142,5.39-12.476,11.037-18.895,16.846C266.222,391.87,260.027,386.072,253.7,380.231Zm59.016,21.646c-6.1,5.289-12.427,10.85-18.867,16.594-6.008-5.908-12.057-11.77-18.042-17.486,6.414-5.8,12.742-11.442,18.876-16.822C300.6,389.89,306.645,395.83,312.711,401.877Zm-17.869-24.5c-5.956-5.735-12.157-11.615-18.5-17.538,6.5-5.746,12.974-11.394,19.324-16.846,6.209,5.868,12.407,11.821,18.488,17.756C307.552,366.35,301.076,371.926,294.842,377.374Z" fill="#e39306"/><path d="M311.991,197.133a66.067,66.067,0,0,0-12.83-10.99,65.463,65.463,0,0,0-36-10.75h-15.95a65.727,65.727,0,0,0-65.3,58.22l-1.02,8.87-.43,3.72-3.77,32.81-1.73,14.98-2.46,21.39-3.08,26.79-1.08,9.43-.96,8.32a68.237,68.237,0,0,0,1.83,25.45,66.119,66.119,0,0,0,3.13,9.11,67.686,67.686,0,0,0,6.88,12.42c-.08-.08-.16-.17-.23-.25a68.56,68.56,0,0,1-11.83-18.71,66.119,66.119,0,0,1-3.13-9.11,68.237,68.237,0,0,1-1.83-25.45l.96-8.32,1.08-9.43,3.08-26.79,2.46-21.39,1.73-14.98,3.77-32.81.43-3.72,1.02-8.87a65.713,65.713,0,0,1,65.3-58.22h15.95a65.8,65.8,0,0,1,54.01,28.28Z" fill="#fff" opacity="0.3"/><polygon fill="#e39306" points="243.211 168.853 243.744 168.213 244.795 166.919 243.211 168.853"/><path d="M335.967,378.833a68.728,68.728,0,0,1-39.69,45.56,67.3,67.3,0,0,1-8.58,2.96,68.881,68.881,0,0,1-17.96,2.37h-39.48a68.805,68.805,0,0,1-17.95-2.37,65.921,65.921,0,0,1-8.59-2.96,68.074,68.074,0,0,1-13.9-7.87c21.57-2.65,54.81-11.14,82.76-38.01,30.14-28.98,37.61-63.42,41.65-82.07,9.19-42.4,1.87-79.68-6.4-104.69a65.583,65.583,0,0,1,15.45,35.32l1.02,8.87.43,3.73,3.77,32.8,1.72,14.97,2.46,21.41,3.08,26.78,1.08,9.44.96,8.31A68.237,68.237,0,0,1,335.967,378.833Z" fill="#e9ae1a" opacity="0.5" style="mix-blend-mode:multiply"/><g opacity="0.25"><path d="M203.914,274.581c-.97,10.384-4.8,18.526-8.574,18.538-3.768-.013-7.6-8.154-8.574-18.538s2.862-19.209,8.574-19.21S204.886,264.21,203.914,274.581Z" fill="#fff"/></g><g opacity="0.25"><path d="M207.484,342.4c-.075,21.789-3.126,40.471-10.872,41.909-7.632,1.467-17.5-17.2-17.468-41.909-.036-24.706,9.836-43.376,17.468-41.908C204.358,301.927,207.409,320.609,207.484,342.4Z" fill="#fff"/></g><path d="M269.741,429.723h-39.48a68.514,68.514,0,0,1-68.06-76.34l14.53-126.31a65.713,65.713,0,0,1,65.3-58.22h15.95a65.728,65.728,0,0,1,65.3,58.22l14.52,126.31A68.509,68.509,0,0,1,269.741,429.723Z" fill="none" stroke="#262a5d" stroke-miterlimit="10" stroke-width="7.119"/><path d="M309.731,97.663c-.11.02-.25.04-.42.08a32.677,32.677,0,0,0-20.79,15.02,33.618,33.618,0,0,0-3.55,25.41,42.109,42.109,0,0,0-5.54,1.82c-.8.33-1.58.67-2.32,1.02a44.072,44.072,0,0,0-11.62,8.07A70.257,70.257,0,0,1,250,111.833a140.148,140.148,0,0,1-15.48,37.25,44.7,44.7,0,0,0-8.46-6.4,43.016,43.016,0,0,0-5.48-2.69,41.608,41.608,0,0,0-5.16-1.72,34.339,34.339,0,0,0-3.93-25.51c-.4-.66-7.84-12.34-20.82-15.03-.16-.03-.29-.05-.4-.07,4.41-1.4,16.78-4.64,30.31,1.32a43.822,43.822,0,0,1,13.94,9.85A156.679,156.679,0,0,0,242,93.283a159.867,159.867,0,0,0,8-24.81,81.806,81.806,0,0,0,5.68,23.09,77.979,77.979,0,0,0,9.81,17.27,43.706,43.706,0,0,1,13.94-9.85C292.951,93.023,305.321,96.263,309.731,97.663Z" fill="#7bb82f"/><path d="M277.111,141.013a44.072,44.072,0,0,0-11.62,8.07A70.257,70.257,0,0,1,250,111.833a140.148,140.148,0,0,1-15.48,37.25,44.7,44.7,0,0,0-8.46-6.4,34.057,34.057,0,0,0,1.84-13.2,34.942,34.942,0,0,0-6.93-18.73,32.945,32.945,0,0,1,16.43,13.86c1.725-2.993,3.444-6.159,5.13-9.5a194.621,194.621,0,0,0,7.953-17.96,61.542,61.542,0,0,0,13.087,27.2,30.965,30.965,0,0,1,5.39-8.98,31.435,31.435,0,0,1,13.09-8.98,32.671,32.671,0,0,0-6.42,11.8A34.33,34.33,0,0,0,277.111,141.013Z" fill="#7bb82f" opacity="0.5" style="mix-blend-mode:multiply"/><path d="M309.731,97.663c-.11.02-.25.04-.42.08a32.677,32.677,0,0,0-20.79,15.02,33.618,33.618,0,0,0-3.55,25.41,42.109,42.109,0,0,0-5.54,1.82,43.976,43.976,0,0,0-13.94,9.09A70.257,70.257,0,0,1,250,111.833a140.148,140.148,0,0,1-15.48,37.25,44.093,44.093,0,0,0-13.94-9.09,41.608,41.608,0,0,0-5.16-1.72,34.339,34.339,0,0,0-3.93-25.51c-.4-.66-7.84-12.34-20.82-15.03-.16-.03-.29-.05-.4-.07,4.41-1.4,16.78-4.64,30.31,1.32a43.822,43.822,0,0,1,13.94,9.85A156.679,156.679,0,0,0,242,93.283a159.867,159.867,0,0,0,8-24.81,81.806,81.806,0,0,0,5.68,23.09,77.979,77.979,0,0,0,9.81,17.27,43.706,43.706,0,0,1,13.94-9.85C292.951,93.023,305.321,96.263,309.731,97.663Z" fill="none" stroke="#262a5d" stroke-linecap="round" stroke-linejoin="round" stroke-width="7.119"/><path d="M309.731,138.773c-1.98.35-13.96,2.61-21.21,13.94a31.859,31.859,0,0,0-4.54,21.5,65.068,65.068,0,0,0-26-5.36h-15.95a65.068,65.068,0,0,0-26.01,5.36,31.832,31.832,0,0,0-4.53-21.5c-7.26-11.33-19.23-13.59-21.22-13.94a47.379,47.379,0,0,1,25.15-.5,41.608,41.608,0,0,1,5.16,1.72,44.093,44.093,0,0,1,13.94,9.09A140.148,140.148,0,0,0,250,111.833a70.257,70.257,0,0,0,15.49,37.25,43.976,43.976,0,0,1,13.94-9.09,42.109,42.109,0,0,1,5.54-1.82A47.465,47.465,0,0,1,309.731,138.773Z" fill="#7bb82f"/><path d="M283.991,146.393a23.548,23.548,0,0,0-6.64,8.62,24.424,24.424,0,0,0-1.09,16.42,65.751,65.751,0,0,0-18.28-2.58h-15.95a65.875,65.875,0,0,0-18.29,2.58,27.393,27.393,0,0,0,.08-10.73,28.078,28.078,0,0,0-7.67-14.31c3.63,1.95,7.39,4.1,11.25,6.47,3.22,1.98,6.26,3.97,9.13,5.93a28.836,28.836,0,0,0,7.41-7.12,29.137,29.137,0,0,0,4.94-11.42,23.077,23.077,0,0,0,16.87,19.26,29.38,29.38,0,0,1,18.24-13.12Z" fill="#7bb82f" opacity="0.5" style="mix-blend-mode:multiply"/><path d="M309.731,138.773c-1.98.35-13.96,2.61-21.21,13.94a31.859,31.859,0,0,0-4.54,21.5,65.328,65.328,0,0,0-26-5.36h-15.95a65.377,65.377,0,0,0-26.01,5.36,31.832,31.832,0,0,0-4.53-21.5c-7.26-11.33-19.23-13.59-21.22-13.94a47.379,47.379,0,0,1,25.15-.5,41.608,41.608,0,0,1,5.16,1.72,44.093,44.093,0,0,1,13.94,9.09A140.148,140.148,0,0,0,250,111.833a70.257,70.257,0,0,0,15.49,37.25,43.976,43.976,0,0,1,13.94-9.09,42.109,42.109,0,0,1,5.54-1.82A47.465,47.465,0,0,1,309.731,138.773Z" fill="none" stroke="#262a5d" stroke-linecap="round" stroke-linejoin="round" stroke-width="7.119"/></g></svg>