<?xml version="1.0" ?><svg width="500px" height="500px" viewBox="0 0 500 500" xmlns="http://www.w3.org/2000/svg"><g style="isolation:isolate"><path d="M334.772,386.316a267.824,267.824,0,0,1-71.378,67.069,24.633,24.633,0,0,1-26.791,0,268.106,268.106,0,0,1-71.378-67.069C150,365.44,108.462,308.511,117.9,237.564c2.136-16.072,5.712-42.9,26.506-66.519a99.481,99.481,0,0,1,24.325-20.024,120.916,120.916,0,0,1,36.537-13.872,150.3,150.3,0,0,1,20.868-2.888,147.007,147.007,0,0,1,23.866.192,147.075,147.075,0,0,1,23.866-.192,150.3,150.3,0,0,1,20.868,2.888,120.935,120.935,0,0,1,36.537,13.872A99.537,99.537,0,0,1,355.6,171.045c20.794,23.619,24.361,50.447,26.5,66.519C391.545,308.511,350,365.44,334.772,386.316Z" fill="#e00817"/><g opacity="0.3"><path d="M189.878,208.835c-4.665,11.112-11.6,18.943-16.862,17.655-5.22-1.3-8.112-11.557-5.092-23.259,2.983-11.708,12.1-19.992,18.97-18.092C193.794,187.035,194.508,197.745,189.878,208.835Z" fill="#fff"/></g><g opacity="0.3"><path d="M190.122,294.045c1.493,26.724.407,50.044-9.687,53.718-9.849,3.723-26.671-18.206-28.73-50.822-2.151-32.6,11.935-57.722,22.259-55.515C184.476,243.512,188.3,267.354,190.122,294.045Z" fill="#fff"/></g><path d="M340.647,157.264a122.084,122.084,0,0,0-35.91-13.37,150.692,150.692,0,0,0-20.87-2.85,147.092,147.092,0,0,0-23.87.19,146.916,146.916,0,0,0-23.86-.19,150.49,150.49,0,0,0-20.87,2.85,121.832,121.832,0,0,0-36.54,13.72,99.019,99.019,0,0,0-24.32,19.8c-20.8,23.36-24.37,49.89-26.51,65.79-9.43,70.16,32.1,126.46,47.33,147.1a266.911,266.911,0,0,0,71.38,66.33c.32.21.65.4.98.59a24.669,24.669,0,0,1-10.98-3.84,268.01,268.01,0,0,1-71.38-67.07c-15.23-20.87-56.76-77.8-47.33-148.75,2.14-16.07,5.71-42.9,26.51-66.52a99.165,99.165,0,0,1,24.32-20.02,120.8,120.8,0,0,1,36.54-13.88,150.848,150.848,0,0,1,20.87-2.88,145.7,145.7,0,0,1,23.86.19,145.872,145.872,0,0,1,23.87-.19,151.053,151.053,0,0,1,20.87,2.88,120.841,120.841,0,0,1,36.53,13.88A101.732,101.732,0,0,1,340.647,157.264Z" fill="#fff" opacity="0.3"/><path d="M334.777,386.314a267.861,267.861,0,0,1-71.38,67.07,24.635,24.635,0,0,1-26.79,0c-2.41-1.56-4.85-3.18-7.3-4.89a306.574,306.574,0,0,0,76.32-73.28c17.49-23.98,65.21-89.38,54.37-170.88-1.29-9.7-3.04-22.83-7.88-37.03q1.785,1.8,3.49,3.74c20.79,23.62,24.36,50.45,26.49,66.52C391.547,308.514,350,365.444,334.777,386.314Z" fill="#bb1822" opacity="0.75"/><path d="M315.637,111.224c-4.27,6.09-9.28,12.54-14.91,19.13q-2.88,3.375-5.99,6.79a151.053,151.053,0,0,0-20.87-2.88v-.51c.01-.49.01-.99.01-1.48v-.45c0-1.54-.01-3.07-.03-4.6-.01-.39-.01-.78-.02-1.17-.02-1.12-.04-2.23-.07-3.33-.27-9.78-.96-19.1-2-27.7q4.515-3.735,8.89-7.04c23.13-17.53,42.7-25.75,49.24-19.21C335.767,74.664,329.7,91.124,315.637,111.224Z" fill="#7bb82f"/><path d="M294.737,128.944c-4.166-.883-8.207-1.543-12.045-2.029-.006-.785-.007-1.58-.015-2.361-.009-.714-.027-1.421-.04-2.133l32.11-36.127L282.448,115c-.326-9.381-.94-18.428-1.8-27.016q-4.365,3.3-8.89,7.04a303.139,303.139,0,0,1,2.07,31.03c.01.39.01.78.02,1.17.02,1.53.03,3.06.03,4.6,0,.64,0,1.29-.01,1.93v.51a151.053,151.053,0,0,1,20.87,2.88q3.1-3.405,5.99-6.79h-.01C298.7,129.824,296.707,129.364,294.737,128.944Z" fill="#7bb82f" opacity="0.5" style="mix-blend-mode:multiply"/><path d="M337.687,146.9c-2.06,1.37-4.2,2.75-6.42,4.12-1.05-.62-2.1-1.22-3.16-1.79q-.9-.5-1.8-.96c-.64-.34-1.29-.67-1.94-.99-.43-.22-.87-.43-1.3-.63-.59-.29-1.17-.57-1.76-.83q-1.215-.57-2.43-1.08a1.472,1.472,0,0,0-.22-.1c-.64-.28-1.29-.55-1.93-.81-1.11-.45-2.22-.89-3.34-1.3-.5-.19-1-.38-1.49-.54-.21-.08-.41-.16-.62-.23-.24-.09-.48-.17-.72-.25-.77-.27-1.53-.53-2.3-.77s-1.53-.49-2.29-.72-1.52-.46-2.28-.67c-.06-.02-.13-.04-.2-.06-2.96-.83-5.88-1.54-8.75-2.15.47-.52.94-1.03,1.4-1.55q2.355-2.625,4.58-5.24c5.64-6.58,10.65-13.03,14.92-19.13,4.24-1.25,8.32-2.33,12.21-3.23,21.56-4.98,37.2-4.44,40.43,2.68C371.827,118.534,359.347,132.5,337.687,146.9Z" fill="#7bb82f"/><path d="M319.927,136.994l30.35-16.75-35.7,14.54c-1.97-.759-3.933-1.445-5.888-2.088a258.091,258.091,0,0,0,16.948-21.472c.76-1.09,1.5-2.16,2.21-3.23-3.89.9-7.97,1.98-12.21,3.23-4.437,6.336-9.682,13.045-15.58,19.895-.438.512-.877,1.023-1.323,1.535q-1.28,1.467-2.6,2.94c-.46.52-.93,1.03-1.4,1.55,2.87.61,5.79,1.32,8.75,2.15h.01c.06.02.13.04.19.06.207.057.415.124.622.183q1.108.321,2.22.664c.485.146.97.3,1.459.458,1.094.353,2.189.713,3.289,1.105.21.07.41.15.62.23.5.17,1,.35,1.49.54,1.12.41,2.23.85,3.34,1.3.65.26,1.29.53,1.93.81a1.472,1.472,0,0,1,.22.1q1.215.51,2.43,1.08c.59.27,1.17.54,1.76.83.43.2.87.41,1.3.63.65.32,1.3.65,1.94.99q.9.465,1.8.96c1.06.57,2.11,1.17,3.16,1.79,2.22-1.37,4.36-2.75,6.42-4.12q-3.18-2.19-6.42-4.09A107.644,107.644,0,0,0,319.927,136.994Z" fill="#7bb82f" opacity="0.5" style="mix-blend-mode:multiply"/><path d="M228.237,95.024c-.99,8.18-1.66,17.01-1.96,26.27-.05,1.57-.08,3.16-.11,4.76-.01.39-.01.78-.02,1.17-.01,1.07-.01,2.14-.01,3.22-.01.46-.01.92-.01,1.38,0,.64,0,1.29.01,1.93v.51a150.848,150.848,0,0,0-20.87,2.88q-3.1-3.405-6-6.79c-5.63-6.59-10.64-13.04-14.91-19.13-14.05-20.1-20.13-36.56-14.24-42.45,6.54-6.54,26.1,1.68,49.23,19.21Q223.712,91.284,228.237,95.024Z" fill="#7bb82f"/><path d="M219.347,87.984c-.817,8.154-1.4,16.729-1.74,25.605L186.9,86.294l30.5,34.316c-.03,1.311-.057,2.623-.076,3.944-.007.786-.006,1.584-.011,2.374-3.842.484-7.87,1.133-12.039,2.016-1.97.42-3.97.88-5.99,1.41h-.01q2.9,3.375,6,6.79a150.848,150.848,0,0,1,20.87-2.88v-.51c-.01-.64-.01-1.29-.01-1.93,0-.463,0-.922.006-1.384l0,0c0-1.08,0-2.15.01-3.22.01-.39.01-.78.02-1.17a303.139,303.139,0,0,1,2.07-31.03Q223.722,91.289,219.347,87.984Z" fill="#7bb82f" opacity="0.5" style="mix-blend-mode:multiply"/><path d="M205.267,137.144c-1.13.24-2.26.5-3.4.77-.57.13-1.15.27-1.72.42s-1.15.29-1.73.44c-1.64.44-3.3.91-4.97,1.43q-.66.195-1.32.42c-.48.15-.96.31-1.44.47-1.24.41-2.49.85-3.74,1.31-.71.26-1.41.53-2.12.81-.68.26-1.36.54-2.04.82-.2.08-.41.17-.61.25-.54.23-1.07.46-1.61.69-.76.33-1.52.67-2.28,1.03-.39.18-.78.37-1.18.56-.98.46-1.96.95-2.93,1.46-.44.22-.89.45-1.33.69-.74.39-1.48.8-2.21,1.21-.64.36-1.28.73-1.91,1.1-2.22-1.37-4.36-2.75-6.42-4.12-21.65-14.4-34.14-28.37-30.58-36.23,3.22-7.12,18.87-7.66,40.42-2.68,3.89.9,7.97,1.98,12.21,3.23,4.27,6.1,9.28,12.55,14.92,19.13q2.235,2.61,4.59,5.24C204.327,136.114,204.8,136.624,205.267,137.144Z" fill="#7bb82f"/><path d="M203.867,135.594q-1.3-1.45-2.56-2.9c-.3-.344-.595-.687-.893-1.03a255.684,255.684,0,0,1-16.057-20.444c-4.24-1.25-8.32-2.33-12.21-3.23.71,1.07,1.45,2.14,2.21,3.23a257.476,257.476,0,0,0,16.951,21.47c-1.406.461-2.816.94-4.231,1.46l-34.17-13.91,28.95,15.98a109.6,109.6,0,0,0-13.13,6.59q-3.24,1.905-6.42,4.09c2.06,1.37,4.2,2.75,6.42,4.12.63-.37,1.27-.74,1.91-1.1.73-.41,1.47-.82,2.21-1.21.44-.24.88-.47,1.33-.69.97-.51,1.95-1,2.93-1.46.39-.19.79-.38,1.18-.56.76-.36,1.52-.7,2.28-1.03.54-.23,1.07-.46,1.61-.69.2-.08.41-.17.61-.25.68-.29,1.36-.56,2.04-.82.71-.28,1.41-.55,2.12-.81,1.25-.46,2.5-.9,3.74-1.31,1.134-.384,2.263-.736,3.389-1.078q.543-.165,1.085-.323c1.089-.32,2.177-.631,3.256-.919.58-.15,1.15-.3,1.73-.44s1.15-.29,1.72-.42c1.14-.27,2.27-.53,3.4-.77C204.8,136.624,204.327,136.114,203.867,135.594Z" fill="#7bb82f" opacity="0.5" style="mix-blend-mode:multiply"/><path d="M273.877,131.824c0,.64,0,1.29-.01,1.93v.51c-.56-.04-1.11-.08-1.66-.11-2.06-.12-4.03-.2-5.88-.24-2.68-.06-5.11-.05-7.26.01q-1.05.015-2.01.06c-.39.01-.77.03-1.14.05-2.74.13-4.77.31-5.92.42-.25-.02-.53-.05-.86-.08-.31-.03-.65-.05-1.03-.09-.22-.02-.45-.04-.7-.05-.33-.02-.67-.05-1.03-.07-.62-.04-1.31-.08-2.04-.12-.83-.04-1.74-.07-2.7-.1-.23-.01-.46-.02-.69-.02-.16-.01-.32-.01-.48-.01-.32-.01-.64-.02-.97-.02-1.3-.02-2.68-.03-4.15-.01-.23,0-.46.01-.69.01l-1.33.03c-.45.01-.9.02-1.36.04-.34.01-.69.02-1.04.04-.52.02-1.04.04-1.57.07-1.05.05-2.12.11-3.22.19v-.51c-.01-.64-.01-1.29-.01-1.93,0-1.54.01-3.07.02-4.6.01-.39.01-.78.02-1.17a303.139,303.139,0,0,1,2.07-31.03c3.76-30.89,12.09-52.37,21.76-52.37s18,21.48,21.76,52.37a303.139,303.139,0,0,1,2.07,31.03c.01.39.01.78.02,1.17C273.867,128.754,273.877,130.284,273.877,131.824Z" fill="#7bb82f"/><path d="M273.847,127.224c-.01-.39-.01-.78-.02-1.17-1.23-.09-2.42-.16-3.58-.21h-.01a150.8,150.8,0,0,0-16.739.128L250,66.537l-3.5,59.432a148.108,148.108,0,0,0-15.16-.185c-1.65.06-3.37.14-5.17.27-.01.39-.01.78-.02,1.17-.01,1.53-.02,3.06-.02,4.6,0,.64,0,1.29.01,1.93v.51c1.1-.08,2.17-.14,3.22-.19.53-.03,1.05-.05,1.57-.07.35-.02.7-.03,1.04-.04.46-.02.91-.03,1.36-.04l1.33-.03c.23,0,.46-.01.69-.01,1.47-.02,2.85-.01,4.15.01.33,0,.65.01.97.02.16,0,.32,0,.48.01.23,0,.46.01.69.02.96.03,1.87.06,2.7.1.595.033,1.153.066,1.679.1l-.019.311h8l-.018-.312q.9-.057,1.938-.107c.37-.02.75-.04,1.14-.05q.96-.045,2.01-.06c2.15-.06,4.58-.07,7.26-.01,1.85.04,3.82.12,5.88.24.55.03,1.1.07,1.66.11v-.51c.01-.64.01-1.29.01-1.93C273.877,130.284,273.867,128.754,273.847,127.224Z" fill="#7bb82f" opacity="0.5" style="mix-blend-mode:multiply"/><path d="M334.772,386.316a267.824,267.824,0,0,1-71.378,67.069,24.633,24.633,0,0,1-26.791,0,268.106,268.106,0,0,1-71.378-67.069C150,365.44,108.462,308.511,117.9,237.564c2.136-16.072,5.712-42.9,26.506-66.519a99.481,99.481,0,0,1,24.325-20.024,120.916,120.916,0,0,1,36.537-13.872,150.3,150.3,0,0,1,20.868-2.888,147.007,147.007,0,0,1,23.866.192,147.075,147.075,0,0,1,23.866-.192,150.3,150.3,0,0,1,20.868,2.888,120.935,120.935,0,0,1,36.537,13.872A99.537,99.537,0,0,1,355.6,171.045c20.794,23.619,24.361,50.447,26.5,66.519C391.545,308.511,350,365.44,334.772,386.316Z" fill="none" stroke="#262a5d" stroke-miterlimit="10" stroke-width="7.119"/><path d="M315.637,111.22a266.727,266.727,0,0,1-20.9,25.929,150.3,150.3,0,0,0-20.868-2.888c.009-.807.009-1.623.009-2.439q0-2.311-.028-4.594a303.522,303.522,0,0,0-2.09-32.2c26.883-22.262,50.767-33.612,58.129-26.25C335.772,74.665,329.693,91.122,315.637,111.22Z" fill="none" stroke="#262a5d" stroke-miterlimit="10" stroke-width="7.119"/><path d="M331.27,151.021a120.935,120.935,0,0,0-36.537-13.872,266.727,266.727,0,0,0,20.9-25.929c27.717-8.188,48.833-8.958,52.638-.55C372.171,119.288,356.823,135.215,331.27,151.021Z" fill="none" stroke="#262a5d" stroke-miterlimit="10" stroke-width="7.119"/><path d="M273.874,131.822c0,.816,0,1.632-.009,2.439a147.075,147.075,0,0,0-23.866.192,147.007,147.007,0,0,0-23.866-.192c-.009-.807-.009-1.623-.009-2.439q0-2.311.027-4.594a303.776,303.776,0,0,1,2.091-32.2C232,64.139,240.326,42.657,250,42.657s18,21.482,21.757,52.371a303.522,303.522,0,0,1,2.09,32.2Q273.875,129.511,273.874,131.822Z" fill="none" stroke="#262a5d" stroke-miterlimit="10" stroke-width="7.119"/><path d="M226.151,127.228q-.027,2.283-.027,4.594c0,.816,0,1.632.009,2.439a150.3,150.3,0,0,0-20.868,2.888,266.9,266.9,0,0,1-20.9-25.929c-14.055-20.1-20.134-36.555-14.248-42.442,7.363-7.362,31.247,3.988,58.13,26.25A303.776,303.776,0,0,0,226.151,127.228Z" fill="none" stroke="#262a5d" stroke-miterlimit="10" stroke-width="7.119"/><path d="M205.265,137.149a120.916,120.916,0,0,0-36.537,13.872c-25.553-15.806-40.9-31.733-37-40.351,3.8-8.408,24.921-7.638,52.637.55A266.9,266.9,0,0,0,205.265,137.149Z" fill="none" stroke="#262a5d" stroke-miterlimit="10" stroke-width="7.119"/><g opacity="0.75"><ellipse cx="250" cy="200.471" fill="#fdd16f" rx="7.283" ry="19.248"/><ellipse cx="250" cy="354.333" fill="#fdd16f" rx="7.283" ry="19.248"/><path d="M299.1,266.486c.017,12.06-4.963,21.142-8.887,20.388-3.98-.74-5.641-9.828-5.679-20.388.037-10.559,1.7-19.648,5.679-20.387C294.139,245.345,299.12,254.427,299.1,266.486Z" fill="#fdd16f"/><path d="M215.463,266.486c-.037,10.56-1.7,19.648-5.679,20.388-3.923.754-8.9-8.328-8.887-20.388-.017-12.059,4.963-21.141,8.887-20.387C213.764,246.838,215.425,255.926,215.463,266.486Z" fill="#fdd16f"/><path d="M168.346,204.27c-2.965,10.416-6.123,19.942-10.234,19.521-4.077-.33-7.333-12.125-3.645-24.464,3.642-12.373,11.7-18.694,14.969-16.434C172.838,185.182,171.2,193.8,168.346,204.27Z" fill="#fdd16f"/><path d="M332.248,204.27c2.965,10.416,6.123,19.942,10.234,19.521,4.076-.33,7.332-12.125,3.645-24.464-3.642-12.373-11.7-18.694-14.97-16.434C327.756,185.182,329.4,193.8,332.248,204.27Z" fill="#fdd16f"/><path d="M161.907,305.8c2.251,10.518,3.371,19.3-.162,21.367-3.413,2.046-11.088-4.928-13.975-17.475-2.93-12.521.938-23.834,4.985-23.825C156.849,285.8,159.536,295.33,161.907,305.8Z" fill="#fdd16f"/><path d="M335.242,305.8c-2.252,10.518-3.371,19.3.162,21.367,3.413,2.046,11.089-4.928,13.975-17.475,2.928-12.521-.939-23.834-4.986-23.825C340.3,285.8,337.613,295.33,335.242,305.8Z" fill="#fdd16f"/><path d="M305.6,391.821c-4.091,9.311-10.966,13.144-13.281,11.041-2.426-2.148-.274-8.6,2.941-16.711,3.289-8.05,6.533-15.436,9.768-14.474C308.256,372.55,309.736,382.547,305.6,391.821Z" fill="#fdd16f"/><path d="M193.876,396.381c4.09,9.311,10.967,13.144,13.281,11.041,2.424-2.148.273-8.6-2.941-16.711-3.289-8.05-6.533-15.435-9.768-14.474C191.224,377.11,189.742,387.107,193.876,396.381Z" fill="#fdd16f"/></g></g></svg>