<?xml version="1.0" encoding="UTF-8"?>
<!DOCTYPE svg PUBLIC "-//W3C//DTD SVG 1.1//EN" "http://www.w3.org/Graphics/SVG/1.1/DTD/svg11.dtd">

<svg xmlns="http://www.w3.org/2000/svg" xml:space="preserve" width="2048px" height="2048px" style="shape-rendering:geometricPrecision; text-rendering:geometricPrecision; image-rendering:optimizeQuality; fill-rule:evenodd; clip-rule:evenodd"
viewBox="0 0 2048 2048"
 xmlns:xlink="http://www.w3.org/1999/xlink">
 <defs>
  <style type="text/css">
   <![CDATA[
    .fil8 {fill:none}
    .fil5 {fill:#3E238A}
    .fil1 {fill:#432687}
    .fil4 {fill:#522EA9}
    .fil0 {fill:#5E35B1}
    .fil7 {fill:#5932AD;fill-rule:nonzero}
    .fil3 {fill:#673AB7;fill-rule:nonzero}
    .fil6 {fill:#6947B5;fill-rule:nonzero}
    .fil2 {fill:#7E57C2;fill-rule:nonzero}
   ]]>
  </style>
 </defs>
 <g id="Layer_x0020_1">
  <metadata id="CorelCorpID_0Corel-Layer"/>
  <g id="_373907184">
   <path class="fil0" d="M1790 1750l13 42 -44 0 -23 -9c-12,-12 -30,-28 -49,-41 -16,-11 -34,-20 -50,-20 -18,0 -40,11 -63,22 -29,15 -58,29 -91,29 -33,0 -62,-15 -91,-29 -22,-11 -44,-22 -63,-22 -18,0 -40,11 -63,22 -29,15 -58,29 -91,29 -33,0 -62,-15 -91,-29 -22,-11 -44,-22 -63,-22 -18,0 -40,11 -63,22 -29,15 -58,29 -91,29 -33,0 -62,-15 -91,-29 -22,-11 -44,-22 -63,-22 -18,0 -40,11 -63,22 -29,15 -58,29 -91,29 -33,0 -62,-15 -91,-29 -22,-11 -44,-22 -63,-22 -14,0 -28,6 -44,16 -18,11 -37,28 -56,46l-22 9 0 0 -44 0 13 -42 445 -1366c218,0 423,0 641,0l447 1366z"/>
   <g>
    <path class="fil1" d="M1641 1719c-1,0 -2,0 -3,0 -15,0 -34,9 -52,20 -1,-3 -3,-6 -4,-9 -71,-169 -266,-277 -230,-530 32,-224 60,-142 -48,-328 -19,-33 -26,-55 -30,-94l4 23 9 25c52,127 128,110 105,269 -29,205 -16,274 116,431 61,72 86,88 132,183 1,3 1,7 1,10z"/>
    <path class="fil1" d="M1353 1723c-7,-3 -15,-5 -21,-5 -13,0 -28,7 -44,15 -126,-231 -242,-325 -147,-630 59,-189 -2,-323 27,-465l15 -50 -13 51c-12,79 14,224 15,314 2,137 -54,224 -44,354 10,147 139,293 212,416z"/>
    <path class="fil1" d="M1062 1731c-14,-7 -27,-12 -38,-12 -9,0 -19,3 -30,8 -85,-180 -98,-291 -41,-496 27,-97 46,-143 -10,-220 -80,-109 72,-200 81,-335 7,-94 -5,-90 33,-184 -33,95 -22,91 -25,184 -4,137 -140,231 -72,315 69,85 51,143 26,254 -46,202 -26,297 71,472 3,5 4,10 4,15z"/>
    <path class="fil1" d="M733 1722c-6,-2 -11,-3 -16,-3 -13,0 -27,6 -43,14 -1,-3 -1,-6 -1,-9 4,-182 -14,-395 51,-564 47,-122 24,-119 36,-246 9,-96 18,-93 47,-176 6,-17 2,-32 10,-43 -7,11 -2,26 -7,44 -24,83 -32,81 -36,176 -5,130 19,125 -23,257 -52,165 -23,375 -17,549z"/>
    <path class="fil1" d="M462 1738c-19,-11 -37,-20 -52,-20 -1,0 -2,0 -3,0l0 -1c11,-174 15,-214 97,-357 48,-83 28,-44 33,-157 5,-136 46,-216 92,-338 -37,122 -72,206 -68,338 3,113 20,83 -26,179 -68,141 -68,172 -67,338 0,7 -2,13 -5,18z"/>
   </g>
   <line class="fil1" x1="1760" y1="1792" x2="1760" y2= "1792" />
   <polygon class="fil2" points="1314,367 735,367 704,367 704,350 704,287 704,271 735,271 1314,271 1344,271 1344,287 1344,350 1344,367 "/>
   <polygon class="fil3" points="1314,367 735,367 704,367 704,372 704,393 704,399 735,399 1314,399 1344,399 1344,393 1344,372 1344,367 "/>
  </g>
  <g id="_373907352">
   <path class="fil4" d="M1001 1726c-13,4 -26,11 -39,18 -29,15 -58,29 -91,29 -33,0 -62,-15 -91,-29 -22,-11 -44,-22 -63,-22 -18,0 -40,11 -63,22 -29,15 -58,29 -91,29 -33,0 -62,-15 -91,-29 -22,-11 -44,-22 -63,-22 -14,0 -28,6 -44,16 -18,11 -37,28 -56,46l-22 9 0 0 -44 0 13 -42 445 -1366 298 0 0 1342z"/>
   <g>
    <path class="fil5" d="M1001 1724c-2,1 -4,2 -6,3 -85,-180 -98,-291 -41,-496 27,-97 46,-143 -10,-220 -62,-85 15,-158 58,-250l0 33c-37,78 -86,140 -39,198 19,24 32,46 39,67l0 127c-4,18 -8,38 -13,60 -35,152 -32,244 13,355l0 125z"/>
    <path class="fil5" d="M733 1722c-6,-2 -11,-3 -16,-3 -13,0 -27,6 -43,14 -1,-3 -1,-6 -1,-9 4,-182 -14,-395 51,-564 47,-122 24,-119 36,-246 9,-96 18,-93 47,-176 6,-17 2,-32 10,-43 -7,11 -2,26 -7,44 -24,83 -32,81 -36,176 -5,130 19,125 -23,257 -52,165 -23,375 -17,549z"/>
    <path class="fil5" d="M462 1738c-19,-11 -37,-20 -52,-20 -1,0 -2,0 -3,0l0 -1c11,-174 15,-214 97,-357 48,-83 28,-44 33,-157 5,-136 46,-216 92,-338 -37,122 -72,206 -68,338 3,113 20,83 -26,179 -68,141 -68,172 -67,338 0,7 -2,13 -5,18z"/>
   </g>
   <polygon class="fil6" points="1001,367 735,367 704,367 704,350 704,287 704,271 735,271 1001,271 "/>
   <polygon class="fil7" points="1001,367 735,367 704,367 704,372 704,393 704,399 735,399 1001,399 "/>
  </g>
  <rect class="fil8" width="2048" height="2048"/>
 </g>
</svg>
