 <svg
        t="1650848913991"
      
        viewBox="0 0 1024 1024"
        version="1.1"
        xmlns="http://www.w3.org/2000/svg"
        p-id="17131"
      >
        <path
          d="M341.333333 341.333333 341.333333 512 554.666667 512 554.666667 341.333333 341.333333 341.333333M42.666667 42.666667 213.333333 42.666667 213.333333 85.333333 810.666667 85.333333 810.666667 42.666667 981.333333 42.666667 981.333333 213.333333 938.666667 213.333333 938.666667 810.666667 981.333333 810.666667 981.333333 981.333333 810.666667 981.333333 810.666667 938.666667 213.333333 938.666667 213.333333 981.333333 42.666667 981.333333 42.666667 810.666667 85.333333 810.666667 85.333333 213.333333 42.666667 213.333333 42.666667 42.666667M213.333333 810.666667 213.333333 853.333333 810.666667 853.333333 810.666667 810.666667 853.333333 810.666667 853.333333 213.333333 810.666667 213.333333 810.666667 170.666667 213.333333 170.666667 213.333333 213.333333 170.666667 213.333333 170.666667 810.666667 213.333333 810.666667M256 256 640 256 640 426.666667 768 426.666667 768 768 341.333333 768 341.333333 597.333333 256 597.333333 256 256M640 597.333333 426.666667 597.333333 426.666667 682.666667 682.666667 682.666667 682.666667 512 640 512 640 597.333333Z"
          p-id="17132"
        ></path>
      </svg>