  <svg
        t="1650848938557"
        viewBox="0 0 1024 1024"
        version="1.1"
        xmlns="http://www.w3.org/2000/svg"
        p-id="17281"
       
      >
        <path
          d="M85.333333 85.333333 256 85.333333 256 128 554.666667 128 554.666667 85.333333 725.333333 85.333333 725.333333 256 682.666667 256 682.666667 384 768 384 768 341.333333 938.666667 341.333333 938.666667 512 896 512 896 768 938.666667 768 938.666667 938.666667 768 938.666667 768 896 512 896 512 938.666667 341.333333 938.666667 341.333333 768 384 768 384 682.666667 256 682.666667 256 725.333333 85.333333 725.333333 85.333333 554.666667 128 554.666667 128 256 85.333333 256 85.333333 85.333333M768 512 768 469.333333 682.666667 469.333333 682.666667 554.666667 725.333333 554.666667 725.333333 725.333333 554.666667 725.333333 554.666667 682.666667 469.333333 682.666667 469.333333 768 512 768 512 810.666667 768 810.666667 768 768 810.666667 768 810.666667 512 768 512M554.666667 256 554.666667 213.333333 256 213.333333 256 256 213.333333 256 213.333333 554.666667 256 554.666667 256 597.333333 384 597.333333 384 512 341.333333 512 341.333333 341.333333 512 341.333333 512 384 597.333333 384 597.333333 256 554.666667 256M512 512 469.333333 512 469.333333 597.333333 554.666667 597.333333 554.666667 554.666667 597.333333 554.666667 597.333333 469.333333 512 469.333333 512 512Z"
          p-id="17282"
        ></path>
      </svg>