 <svg
          t="1717679973041"
          class="icon"
          viewBox="0 0 1024 1024"
          version="1.1"
          xmlns="http://www.w3.org/2000/svg"
          p-id="5747"
          width="20"
          height="20"
        >
          <path
            d="M876.893 63.84h20.44c34.501 0 62.49 30.402 62.49 64.919V229.7h-0.13c0 16.569-11.355 22.409-22.855 22.409s-22.854-7.734-22.854-19.234c0-0.211-3.92-0.373-3.92-0.583v-82.72c0-23-10.56-35.975-33.56-35.975h-61.47c-0.21 0-1.36-2.786-1.555-2.786-11.5 0-21.817-12.213-21.817-23.713s18.885-20.813 18.885-20.813V63.84h66.345zM213.45 66.286V63.84h-86.914c-34.5 0-62.36 30.402-62.36 64.919V229.7c0 16.569 9.33 22.409 20.83 22.409s24.927-8.528 24.927-20.028c0-0.211 4.001 0.421 4.001 0.21v-82.72c0-23 10.432-35.974 33.432-35.974h63.008c0.194 0 0.372-2.786 0.583-2.786 11.5 0 22.06-10.772 22.06-22.263 0-11.5-2.98-22.263-19.567-22.263z m16.587 500.74V246.27h-33.173v530.764h33.173V567.026zM109.933 795.141c0-11.5-11.37-21.576-22.87-21.576s-22.888 3.468-22.888 20.053v105.638c0 34.5 27.86 60.224 62.36 60.224h83.837c0.194 0 0.372 0.679 0.583 0.679 11.5 0 22.06-9.038 22.06-20.538s-2.98-20.538-19.566-20.538v7.224h-66.344v-6.737c-33.173-2.624-33.173-19.923-33.173-41.14v-82.704c0.001-0.213-3.999-0.39-3.999-0.585z m186.448-228.115V246.27h-16.586V694.1h16.586V567.026z m16.585 160.249h-33.172v49.758h33.172v-49.758z m66.344-160.249V246.27h-16.585V694.1h16.585V567.026z m16.586 160.249h-33.171v49.758h33.171v-49.758z m82.931-160.249V246.27h-66.344V694.1h66.344V567.026z m0 210.007v-49.758h-33.173v49.758h33.173z m132.688-210.007V246.27h-49.758V694.1h49.758V567.026z m-82.93 210.007h33.172v-49.758h-33.172v49.758zM661.273 566.41V246.27H644.69V694.1h16.584V566.41z m-33.171 210.623h33.171v-49.758h-33.171v49.758zM744.205 566.41V246.27h-16.587V694.1h16.587V566.41z m-33.173 210.623h33.173v-49.758h-33.173v49.758z m116.103-210.007V246.27h-33.172v530.764h33.172V567.026z m70.198 392.454c34.5 0 62.489-25.723 62.489-60.224V793.618h-0.13c0-16.585-9.33-20.053-20.83-20.053s-24.88 9.688-24.88 21.188c0 0.226-3.918 0.76-3.918 0.97v82.705c0 20.7 0 37.738-33.172 40.978v6.899h-66.345v-7.224s-18.885 9.33-18.885 20.83 10.317 20.246 21.817 20.246c0.193 0 1.344-0.68 1.555-0.68h82.299z"
            p-id="5748"
          ></path>
        </svg>